<svg width="493" height="493" viewBox="0 0 493 493" fill="none" xmlns="http://www.w3.org/2000/svg">
<path fill-rule="evenodd" clip-rule="evenodd" d="M0 0H492.963V492.963H0V0Z" fill="#0077C0"/>
<path fill-rule="evenodd" clip-rule="evenodd" d="M262.103 140.535C267.133 159.928 250.372 164.24 256.119 172.141C263.304 181.958 273.118 176.689 274.793 196.323V274.136C274.076 282.519 274.076 282.519 261.866 282.999V316.279H233.851V282.999C221.16 282.758 219.724 282.519 219.724 274.136V196.084C219.724 175.253 235.047 179.323 238.878 171.9C244.384 162.083 227.865 162.802 233.851 140.535C237.204 130.241 256.36 127.126 262.103 140.535ZM190.513 147.718C183.091 155.619 171.12 174.532 178.78 190.335C194.822 196.321 193.625 139.817 213.498 140.774C223.074 149.872 210.385 176.448 206.554 188.18C201.526 202.786 197.695 232.954 188.356 247.799C180.693 260.01 186.44 298.32 184.047 311.727C177.342 318.195 159.624 313.642 151.961 312.448C151.961 297.123 150.046 285.153 147.652 260.969C147.172 256.18 142.147 181.239 146.217 172.143C154.835 153.228 201.524 117.311 207.99 110.368C213.737 104.382 233.371 84.0312 241.033 84.0312C246.539 87.6235 243.188 96.2417 241.991 99.5951C234.33 118.506 201.528 137.182 190.513 147.718V147.718ZM304.724 147.718C312.145 155.619 324.119 174.532 316.456 190.335C300.415 196.321 301.609 139.817 281.741 140.774C272.163 149.872 284.851 176.448 288.682 188.18C293.708 202.786 297.541 232.954 306.878 247.799C314.541 260.01 308.794 298.32 311.19 311.727C317.894 318.195 335.61 313.642 343.275 312.448C343.275 297.123 345.191 285.153 347.586 260.969C348.066 256.18 353.092 181.239 349.024 172.143C340.404 153.228 293.712 117.311 287.249 110.368C281.502 104.382 261.87 84.0312 254.205 84.0312C248.7 87.6235 252.053 96.2417 253.248 99.5951C260.908 118.506 293.708 137.182 304.724 147.718V147.718ZM125.388 122.098C121.318 126.168 111.981 128.803 105.754 137.423C103.122 132.634 109.585 121.381 117.248 114.918C122.754 110.129 133.767 102.707 137.119 101.75C139.514 107.492 130.655 116.112 125.388 122.098Z" fill="white"/>
<path fill-rule="evenodd" clip-rule="evenodd" d="M112.459 152.743C105.516 159.448 97.8531 162.082 88.0383 174.051C83.9681 159.686 84.9259 146.996 86.8415 138.376C90.1949 127.123 95.9396 114.672 105.518 110.602C103.363 117.065 100.251 125.926 99.5319 137.896C95.4618 154.179 93.0683 154.656 94.0261 157.05C94.9839 157.05 100.251 148.43 106.955 141.727C114.618 133.826 124.433 132.149 130.898 127.601C129.939 130.715 124.192 140.771 112.459 152.743V152.743Z" fill="white"/>
<path fill-rule="evenodd" clip-rule="evenodd" d="M77.9802 220.503C68.4042 203.503 67.4443 191.052 66.7275 176.446C67.2054 166.39 72.2333 143.166 79.4179 139.812C77.2634 160.882 83.0102 162.798 80.6147 180.277C80.6147 181.235 78.2191 199.192 78.2191 200.15C81.0925 199.67 78.458 183.63 111.979 160.404C104.797 173.095 108.148 176.924 94.9775 193.925C79.4179 209.011 77.2634 224.095 77.9802 220.503V220.503Z" fill="white"/>
<path fill-rule="evenodd" clip-rule="evenodd" d="M91.3893 236.784C84.4457 247.081 85.6424 252.107 83.9678 257.133C66.9663 247.318 47.8123 208.293 54.9969 188.898C59.3059 203.743 65.5306 206.856 69.8418 219.068C77.5021 237.505 76.3054 243.011 81.0944 247.32C80.1366 237.744 83.49 226.492 86.6023 218.11C91.1524 210.928 94.9815 201.828 98.3349 198.476C101.925 212.123 99.2906 223.138 91.3893 236.784V236.784Z" fill="white"/>
<path fill-rule="evenodd" clip-rule="evenodd" d="M106.712 270.067C106.712 284.91 103.838 291.614 102.642 302.63C73.6706 293.052 58.3457 259.772 58.3457 243.251C67.2049 263.362 80.1342 263.123 97.1336 291.614C98.5714 280.84 94.2602 288.982 93.7824 268.629C94.2623 247.319 98.5714 246.602 99.2882 233.434C104.798 239.18 106.712 262.646 106.712 270.067V270.067Z" fill="white"/>
<path fill-rule="evenodd" clip-rule="evenodd" d="M130.897 312.447C133.051 323.459 134.009 336.39 135.686 345.968C119.164 339.742 115.094 344.531 95.2211 332.079C86.123 327.053 69.8424 306.461 70.8002 291.858C90.4342 313.644 94.0265 311.253 103.363 319.152C112.223 326.332 119.405 336.868 125.869 335.432C126.349 329.449 111.263 316.758 113.178 280.125C117.249 284.193 128.023 300.951 130.897 312.447V312.447Z" fill="white"/>
<path fill-rule="evenodd" clip-rule="evenodd" d="M163.937 339.742C168.965 347.164 167.768 350.278 181.176 365.601C177.824 367.039 159.148 371.828 146.46 372.306C138.318 372.306 108.867 364.643 99.0518 344.531C116.051 353.627 116.292 351.232 138.798 356.264C154.839 359.854 166.333 365.123 170.883 364.643C169.925 362.248 157.235 357.222 148.856 346.447C140.235 334.953 142.151 322.026 134.491 312.446C139.755 311.01 159.867 334.473 163.937 339.742V339.742ZM373.678 122.099C377.75 126.169 387.087 128.803 393.314 137.424C395.946 132.634 389.482 121.382 381.82 114.918C376.314 110.129 365.298 102.708 361.947 101.75C359.552 107.493 368.415 116.113 373.678 122.099Z" fill="white"/>
<path fill-rule="evenodd" clip-rule="evenodd" d="M386.609 152.743C393.551 159.448 401.215 162.082 411.03 174.051C415.098 159.686 414.14 146.996 412.225 138.376C408.876 127.123 403.129 114.672 393.551 110.602C395.703 117.065 398.82 125.926 399.534 137.896C403.607 154.179 406.002 154.656 405.044 157.05C404.087 157.05 398.818 148.43 392.113 141.727C384.45 133.826 374.634 132.149 368.17 127.601C369.13 130.715 374.879 140.771 386.609 152.743V152.743Z" fill="white"/>
<path fill-rule="evenodd" clip-rule="evenodd" d="M421.088 220.503C430.662 203.503 431.619 191.052 432.34 176.446C431.86 166.39 426.83 143.166 419.65 139.812C421.803 160.882 416.056 162.798 418.451 180.277C418.451 181.235 420.847 199.192 420.847 200.15C417.973 199.67 420.61 183.63 387.089 160.404C394.273 173.095 390.92 176.924 404.088 193.925C419.652 209.011 421.805 224.095 421.088 220.503V220.503Z" fill="white"/>
<path fill-rule="evenodd" clip-rule="evenodd" d="M407.679 236.783C414.62 247.08 413.426 252.105 415.1 257.131C432.1 247.314 451.254 208.29 444.073 188.895C439.762 203.739 433.538 206.852 429.226 219.064C421.568 237.502 422.763 243.007 417.974 247.316C418.932 237.74 415.578 226.488 412.468 218.107C407.92 210.924 404.089 201.824 400.735 198.473C397.143 212.121 399.778 223.137 407.679 236.783V236.783Z" fill="white"/>
<path fill-rule="evenodd" clip-rule="evenodd" d="M392.356 270.067C392.356 284.91 395.226 291.614 396.425 302.63C425.393 293.052 440.72 259.772 440.72 243.251C431.861 263.362 418.932 263.123 401.93 291.614C400.493 280.84 404.804 288.982 405.284 268.629C404.804 247.319 400.495 246.602 399.778 233.434C394.274 239.18 392.356 262.646 392.356 270.067V270.067Z" fill="white"/>
<path fill-rule="evenodd" clip-rule="evenodd" d="M368.172 312.447C366.019 323.459 365.062 336.39 363.383 345.968C379.904 339.742 383.972 344.531 403.847 332.079C412.948 327.053 429.226 306.461 428.268 291.858C408.636 313.644 405.046 311.253 395.705 319.152C386.846 326.332 379.668 336.868 373.2 335.432C372.72 329.449 387.806 316.758 385.89 280.125C381.82 284.193 371.045 300.951 368.172 312.447V312.447Z" fill="white"/>
<path fill-rule="evenodd" clip-rule="evenodd" d="M335.13 339.742C330.105 347.164 331.299 350.278 317.892 365.601C321.245 367.039 339.919 371.828 352.608 372.306C360.75 372.306 390.199 364.643 400.014 344.531C383.014 353.627 382.775 351.232 360.27 356.264C344.229 359.854 332.733 365.123 328.185 364.643C329.143 362.248 341.833 357.222 350.212 346.447C358.832 334.953 356.917 322.026 364.579 312.446C359.315 311.01 339.198 334.473 335.13 339.742ZM207.753 408.939L202.964 406.307C202.964 406.307 233.85 368.474 287.244 371.348C340.64 374.221 337.046 386.912 365.778 384.753C368.888 384.516 363.146 388.825 363.146 388.825C363.146 388.825 335.371 399.6 300.893 387.867C266.414 376.135 244.147 368.952 207.753 408.939V408.939Z" fill="white"/>
<path fill-rule="evenodd" clip-rule="evenodd" d="M292.273 408.938L297.062 406.306C297.062 406.306 266.177 368.474 212.783 371.347C159.389 374.221 162.982 386.911 134.25 384.752C131.137 384.515 136.882 388.825 136.882 388.825C136.882 388.825 164.656 399.599 199.135 387.867C233.612 376.136 255.88 368.952 292.273 408.938V408.938Z" fill="white"/>
</svg>
