<svg width="22" height="17" viewBox="0 0 22 17" fill="none" xmlns="http://www.w3.org/2000/svg">
<path d="M1.59277 8.20602L0.638725 7.90637C0.577457 8.10144 0.577456 8.3106 0.638723 8.50567L1.59277 8.20602ZM20.6772 8.20609L21.6312 8.50574C21.6925 8.31068 21.6925 8.10151 21.6312 7.90645L20.6772 8.20609ZM13.1345 8.20605C13.1345 9.31062 12.2391 10.2061 11.1345 10.2061V12.2061C13.3437 12.2061 15.1345 10.4152 15.1345 8.20605H13.1345ZM11.1345 10.2061C10.03 10.2061 9.13452 9.31062 9.13452 8.20605H7.13452C7.13452 10.4152 8.92538 12.2061 11.1345 12.2061V10.2061ZM9.13452 8.20605C9.13452 7.10149 10.03 6.20605 11.1345 6.20605V4.20605C8.92538 4.20605 7.13452 5.99692 7.13452 8.20605H9.13452ZM11.1345 6.20605C12.2391 6.20605 13.1345 7.10149 13.1345 8.20605H15.1345C15.1345 5.99692 13.3437 4.20605 11.1345 4.20605V6.20605ZM2.54682 8.50567C3.69395 4.85339 7.10661 2.20605 11.135 2.20605V0.206055C6.20806 0.206055 2.04014 3.44447 0.638725 7.90637L2.54682 8.50567ZM11.135 2.20605C15.1633 2.20605 18.576 4.85342 19.7231 8.50574L21.6312 7.90645C20.2298 3.44452 16.0619 0.206055 11.135 0.206055V2.20605ZM19.7231 7.90644C18.576 11.5587 15.1633 14.2061 11.135 14.2061V16.2061C16.0619 16.2061 20.2298 12.9676 21.6312 8.50574L19.7231 7.90644ZM11.135 14.2061C7.1066 14.2061 3.69394 11.5587 2.54682 7.90637L0.638723 8.50567C2.04012 12.9676 6.20805 16.2061 11.135 16.2061V14.2061Z" fill="white"/>
</svg>
