<svg width="22" height="21" viewBox="0 0 22 21" fill="none" xmlns="http://www.w3.org/2000/svg">
<path d="M3.12776 0.498948C2.73724 0.108424 2.10407 0.108424 1.71355 0.498948C1.32302 0.889472 1.32302 1.52264 1.71355 1.91316L3.12776 0.498948ZM19.7135 19.9132C20.1041 20.3037 20.7372 20.3037 21.1278 19.9132C21.5183 19.5226 21.5183 18.8895 21.1278 18.4989L19.7135 19.9132ZM1.87891 10.206L0.924858 9.90637C0.86359 10.1014 0.863589 10.3106 0.924856 10.5057L1.87891 10.206ZM20.9633 10.2061L21.9173 10.5057C21.9786 10.3107 21.9786 10.1015 21.9174 9.90644L20.9633 10.2061ZM13.4818 18.0132C14.0244 17.9103 14.3809 17.387 14.278 16.8444C14.1751 16.3017 13.6518 15.9453 13.1092 16.0482L13.4818 18.0132ZM4.23949 7.78068C4.57277 7.34029 4.48593 6.71311 4.04554 6.37983C3.60514 6.04656 2.97796 6.1334 2.64469 6.57379L4.23949 7.78068ZM9.29933 8.08473L8.59223 8.79184L9.29933 8.08473ZM13.542 12.3274L12.8349 13.0345L13.542 12.3274ZM11.4207 8.20605C12.5252 8.20605 13.4207 9.10149 13.4207 10.2061H15.4207C15.4207 7.99692 13.6298 6.20605 11.4207 6.20605V8.20605ZM11.4211 4.20605C15.4495 4.20605 18.8621 6.85342 20.0093 10.5057L21.9174 9.90644C20.516 5.44452 16.348 2.20605 11.4211 2.20605V4.20605ZM11.4211 16.2061C7.39274 16.2061 3.98007 13.5587 2.83296 9.90637L0.924856 10.5057C2.32625 14.9676 6.49418 18.2061 11.4211 18.2061V16.2061ZM13.1092 16.0482C12.5632 16.1517 11.9989 16.2061 11.4211 16.2061V18.2061C12.1246 18.2061 12.8136 18.1399 13.4818 18.0132L13.1092 16.0482ZM2.83295 10.5057C3.14484 9.51269 3.62457 8.59325 4.23949 7.78068L2.64469 6.57379C1.89376 7.56607 1.30677 8.69042 0.924858 9.90637L2.83295 10.5057ZM10.0064 8.79184C10.3695 8.42882 10.8681 8.20605 11.4207 8.20605V6.20605C10.3164 6.20605 9.31499 6.65486 8.59223 7.37763L10.0064 8.79184ZM8.59223 8.79184L12.8349 13.0345L14.2491 11.6203L10.0064 7.37763L8.59223 8.79184ZM13.4207 10.2061C13.4207 10.7586 13.1979 11.2572 12.8349 11.6203L14.2491 13.0345C14.9718 12.3117 15.4207 11.3103 15.4207 10.2061H13.4207ZM1.71355 1.91316L5.30271 5.50232L6.71692 4.08811L3.12776 0.498948L1.71355 1.91316ZM5.30271 5.50232L8.59223 8.79184L10.0064 7.37763L6.71692 4.08811L5.30271 5.50232ZM6.55167 5.63569C7.95481 4.73108 9.62511 4.20605 11.4211 4.20605V2.20605C9.22932 2.20605 7.18446 2.84812 5.46796 3.95474L6.55167 5.63569ZM14.2491 11.6203L6.71692 4.08811L5.30271 5.50232L12.8349 13.0345L14.2491 11.6203ZM12.8349 13.0345L16.1247 16.3244L17.539 14.9101L14.2491 11.6203L12.8349 13.0345ZM16.1247 16.3244L19.7135 19.9132L21.1278 18.4989L17.539 14.9101L16.1247 16.3244ZM20.0093 9.90644C19.3736 11.9303 18.0405 13.6484 16.2901 14.7767L17.3736 16.4578C19.5098 15.0807 21.1392 12.9833 21.9173 10.5057L20.0093 9.90644Z" fill="currentColor"/>
</svg>
