<?xml version="1.0" encoding="utf-8"?>
<!-- Generator: Adobe Illustrator 23.0.5, SVG Export Plug-In . SVG Version: 6.00 Build 0)  -->
<svg version="1.1" id="Capa_1" xmlns="http://www.w3.org/2000/svg" xmlns:xlink="http://www.w3.org/1999/xlink" x="0px" y="0px"
	 viewBox="0 0 340.2 170.1" style="enable-background:new 0 0 340.2 170.1;" xml:space="preserve">
<style type="text/css">
	.st0{fill:none;stroke:#808080;stroke-width:6.5806;stroke-linecap:round;stroke-miterlimit:10;}
	.st1{fill:none;stroke:#808080;stroke-width:7.2387;stroke-linecap:round;stroke-miterlimit:10;}
	.st2{fill:#808080;}
	.st3{fill:none;stroke:#808080;stroke-width:6.5806;stroke-miterlimit:10;}
</style>
<line class="st0" x1="80.2" y1="18.2" x2="137.5" y2="18.2"/>
<line class="st0" x1="150.3" y1="18.2" x2="175" y2="18.2"/>
<line class="st0" x1="80.2" y1="28.4" x2="169.4" y2="28.4"/>
<line class="st1" x1="153.4" y1="49.8" x2="217.7" y2="49.8"/>
<line class="st1" x1="153.5" y1="68.4" x2="238.7" y2="68.4"/>
<line class="st1" x1="153.4" y1="87.1" x2="163.5" y2="87.1"/>
<line class="st1" x1="182.1" y1="87.1" x2="230.9" y2="87.1"/>
<line class="st1" x1="249.5" y1="87.1" x2="264.7" y2="87.1"/>
<line class="st1" x1="153.3" y1="105.7" x2="202.1" y2="105.7"/>
<line class="st1" x1="153.3" y1="124.4" x2="202.1" y2="124.4"/>
<line class="st1" x1="63.3" y1="151.9" x2="112" y2="151.9"/>
<rect x="197.2" y="137.5" class="st2" width="5.4" height="20.7"/>
<rect x="271.8" y="137.5" class="st2" width="5.4" height="20.7"/>
<rect x="203.7" y="137.5" class="st2" width="1.2" height="20.7"/>
<rect x="205.6" y="137.5" class="st2" width="1.2" height="20.7"/>
<rect x="278.1" y="137.5" class="st2" width="1.2" height="20.7"/>
<rect x="280" y="137.5" class="st2" width="1.2" height="20.7"/>
<rect x="209.3" y="137.5" class="st2" width="10.7" height="20.7"/>
<rect x="221.9" y="137.5" class="st2" width="10.7" height="20.7"/>
<rect x="234.4" y="137.5" class="st2" width="10.7" height="20.7"/>
<rect x="247" y="137.5" class="st2" width="10.7" height="20.7"/>
<rect x="259.5" y="137.5" class="st2" width="10.7" height="20.7"/>
<path class="st3" d="M288.5,165.5H50.8c-5.6,0-10.2-4.5-10.2-10.2V15.5c0-5.6,4.5-10.2,10.2-10.2h237.6c5.6,0,10.2,4.5,10.2,10.2
	v139.9C298.6,161,294.1,165.5,288.5,165.5z"/>
<rect x="62.2" y="39.9" class="st3" width="72.5" height="96.9"/>
<circle class="st3" cx="98.4" cy="81.2" r="22.4"/>
<path class="st3" d="M65.1,136.9c0-18.4,14.9-33.3,33.3-33.3s33.3,14.9,33.3,33.3"/>
<ellipse class="st2" cx="64.8" cy="25.1" rx="6.6" ry="7.8"/>
<circle class="st2" cx="64.8" cy="16.3" r="3.1"/>
</svg>
