<?xml version="1.0" encoding="utf-8"?>
<!-- Generator: Adobe Illustrator 23.0.5, SVG Export Plug-In . SVG Version: 6.00 Build 0)  -->
<svg version="1.1" id="Capa_1" xmlns="http://www.w3.org/2000/svg" xmlns:xlink="http://www.w3.org/1999/xlink" x="0px" y="0px"
	 viewBox="0 0 340.2 170.1" style="enable-background:new 0 0 340.2 170.1;" xml:space="preserve">
<style type="text/css">
	.st0{fill:none;stroke:#808080;stroke-width:7.8457;stroke-miterlimit:10;}
	.st1{fill:none;stroke:#808080;stroke-width:2.3537;stroke-linecap:round;stroke-miterlimit:10;}
	.st2{fill:#808080;}
	.st3{fill:none;stroke:#808080;stroke-width:3.9229;stroke-miterlimit:10;}
	.st4{fill:none;stroke:#808080;stroke-width:3.1383;stroke-miterlimit:10;}
	.st5{fill:none;stroke:#808080;stroke-width:6.9286;stroke-miterlimit:10;}
</style>
<circle class="st0" cx="134.9" cy="66.8" r="39"/>
<path class="st0" d="M77,163.7c0-32,26-58,58-58s58,26,58,58"/>
<line class="st1" x1="190.1" y1="76.8" x2="222.5" y2="76.8"/>
<line class="st1" x1="216.1" y1="84.3" x2="234.1" y2="84.3"/>
<line class="st1" x1="216.1" y1="89.5" x2="239.9" y2="89.5"/>
<line class="st1" x1="216.1" y1="94.7" x2="218.9" y2="94.7"/>
<line class="st1" x1="224.1" y1="94.7" x2="237.7" y2="94.7"/>
<line class="st1" x1="242.9" y1="94.7" x2="247.2" y2="94.7"/>
<line class="st1" x1="216.1" y1="99.9" x2="229.7" y2="99.9"/>
<line class="st1" x1="216.1" y1="105.1" x2="229.7" y2="105.1"/>
<line class="st1" x1="190.9" y1="111.9" x2="204.6" y2="111.9"/>
<rect x="228.3" y="107.7" class="st2" width="1.5" height="5.8"/>
<rect x="249.2" y="107.7" class="st2" width="1.5" height="5.8"/>
<rect x="230.2" y="107.7" class="st2" width="0.3" height="5.8"/>
<rect x="230.7" y="107.7" class="st2" width="0.3" height="5.8"/>
<rect x="250.9" y="107.7" class="st2" width="0.3" height="5.8"/>
<rect x="251.4" y="107.7" class="st2" width="0.3" height="5.8"/>
<rect x="231.7" y="107.7" class="st2" width="3" height="5.8"/>
<rect x="235.2" y="107.7" class="st2" width="3" height="5.8"/>
<rect x="238.7" y="107.7" class="st2" width="3" height="5.8"/>
<rect x="242.2" y="107.7" class="st2" width="3" height="5.8"/>
<rect x="245.7" y="107.7" class="st2" width="3" height="5.8"/>
<path class="st3" d="M253.8,116.6h-66.4c-1.6,0-2.8-1.3-2.8-2.8V74.7c0-1.6,1.3-2.8,2.8-2.8h66.4c1.6,0,2.8,1.3,2.8,2.8v39.1
	C256.7,115.4,255.4,116.6,253.8,116.6z"/>
<rect x="190.6" y="81.6" class="st4" width="19.4" height="26"/>
<circle class="st4" cx="200.3" cy="92.6" r="6"/>
<path class="st4" d="M191.4,107.5c0-4.9,4-8.9,8.9-8.9s8.9,4,8.9,8.9"/>
<path class="st5" d="M260.2,163.7h-181c-8.5,0-15.4-6.9-15.4-15.4V23c0-8.5,6.9-15.4,15.4-15.4h181c8.5,0,15.4,6.9,15.4,15.4v125.3
	C275.6,156.8,268.7,163.7,260.2,163.7z"/>
</svg>
