<?xml version="1.0" encoding="utf-8"?>
<!-- Generator: Adobe Illustrator 23.0.5, SVG Export Plug-In . SVG Version: 6.00 Build 0)  -->
<svg version="1.1" id="Capa_1" xmlns="http://www.w3.org/2000/svg" xmlns:xlink="http://www.w3.org/1999/xlink" x="0px" y="0px"
	 viewBox="0 0 340.2 170.1" style="enable-background:new 0 0 340.2 170.1;" xml:space="preserve">
<style type="text/css">
	.st0{fill:none;stroke:#808080;stroke-width:7.2387;stroke-linecap:round;stroke-miterlimit:10;}
	.st1{display:none;}
	.st2{display:inline;}
	.st3{fill:#0E487D;stroke:#808080;stroke-width:1.8186;stroke-miterlimit:10;}
	.st4{fill:none;stroke:#808080;stroke-width:1.8186;stroke-linecap:round;stroke-linejoin:round;stroke-miterlimit:10;}
	.st5{fill:#808080;}
	.st6{fill:#FFFFFF;}
	.st7{fill:none;stroke:#808080;stroke-width:6.5806;stroke-miterlimit:10;}
	.st8{fill:none;stroke:#808080;stroke-width:3.2903;stroke-miterlimit:10;}
	.st9{opacity:0.4;}
	.st10{fill:none;stroke:#808080;stroke-width:4.6064;stroke-miterlimit:10;}
</style>
<line class="st0" x1="62.3" y1="25.7" x2="126.6" y2="25.7"/>
<line class="st0" x1="62.3" y1="44.4" x2="141.7" y2="44.4"/>
<line class="st0" x1="137.8" y1="25.7" x2="203.3" y2="25.7"/>
<line class="st0" x1="62.2" y1="120.3" x2="276.8" y2="120.3"/>
<line class="st0" x1="62.2" y1="135.3" x2="276.8" y2="135.3"/>
<line class="st0" x1="62" y1="150.2" x2="276.8" y2="150.2"/>
<g>
	<g class="st1">
		<g class="st2">
			<path class="st3" d="M232.7,111.4L232.7,111.4c0,0-0.1,0.1-0.1,0.1c0,0-0.1,0.1-0.1,0.1c-0.1,0-0.1,0-0.2,0c-0.1,0-0.2,0-0.2-0.1
				c-0.1,0-0.1-0.1-0.2-0.2c-0.1-0.1-0.1-0.1-0.1-0.2c0-0.1,0-0.2,0-0.3c0-0.2,0.1-0.4,0.2-0.5c0.1-0.1,0.2-0.2,0.4-0.2
				c0.1,0,0.2,0,0.3,0.1c0.1,0,0.1,0.1,0.2,0.2v-0.5c0-0.1,0-0.1,0-0.2c0,0,0.1-0.1,0.1-0.1c0.1,0,0.1,0,0.1,0.1c0,0,0,0.1,0,0.1
				v1.5c0,0.1,0,0.1,0,0.2c0,0-0.1,0-0.1,0c0,0-0.1,0-0.1-0.1C232.7,111.5,232.7,111.4,232.7,111.4z M232,110.9c0,0.1,0,0.2,0,0.2
				c0,0.1,0.1,0.1,0.1,0.2c0.1,0,0.1,0.1,0.2,0.1c0.1,0,0.1,0,0.2,0c0.1,0,0.1-0.1,0.1-0.1c0-0.1,0-0.1,0-0.2c0-0.1,0-0.2,0-0.2
				c0-0.1-0.1-0.1-0.1-0.2c-0.1,0-0.1-0.1-0.2-0.1c-0.1,0-0.1,0-0.2,0.1c-0.1,0-0.1,0.1-0.1,0.2C232,110.7,232,110.8,232,110.9z"/>
			<path class="st3" d="M234.3,110.9h-0.7c0,0.1,0,0.1,0,0.2c0,0.1,0.1,0.1,0.1,0.1c0.1,0,0.1,0,0.2,0c0,0,0.1,0,0.1,0
				c0,0,0.1,0,0.1,0c0,0,0.1,0,0.1-0.1c0,0,0.1-0.1,0.1-0.1c0,0,0,0,0.1,0c0,0,0.1,0,0.1,0c0,0,0,0,0,0.1c0,0,0,0.1,0,0.1
				c0,0-0.1,0.1-0.1,0.1c-0.1,0-0.1,0.1-0.2,0.1c-0.1,0-0.2,0-0.3,0c-0.2,0-0.4-0.1-0.5-0.2c-0.1-0.1-0.2-0.3-0.2-0.5
				c0-0.1,0-0.2,0-0.3c0-0.1,0.1-0.2,0.1-0.2c0.1-0.1,0.1-0.1,0.2-0.1c0.1,0,0.2-0.1,0.3-0.1c0.1,0,0.3,0,0.4,0.1
				c0.1,0.1,0.2,0.1,0.2,0.2c0,0.1,0.1,0.2,0.1,0.3c0,0.1,0,0.1-0.1,0.2C234.4,110.9,234.4,110.9,234.3,110.9z M233.6,110.7h0.6
				c0-0.1,0-0.2-0.1-0.3c-0.1-0.1-0.1-0.1-0.2-0.1c-0.1,0-0.2,0-0.2,0.1C233.6,110.5,233.6,110.6,233.6,110.7z"/>
			<path class="st3" d="M235.9,111.1c0,0.1,0,0.2-0.1,0.2c0,0.1-0.1,0.1-0.2,0.2c-0.1,0-0.2,0.1-0.3,0.1c-0.1,0-0.2,0-0.3-0.1
				c-0.1,0-0.2-0.1-0.2-0.1c0-0.1-0.1-0.1-0.1-0.2c0,0,0-0.1,0-0.1c0,0,0.1,0,0.1,0c0,0,0.1,0,0.1,0c0,0,0,0,0.1,0.1
				c0,0.1,0.1,0.1,0.1,0.1c0.1,0,0.1,0,0.2,0c0.1,0,0.1,0,0.2,0c0,0,0.1-0.1,0.1-0.1c0-0.1,0-0.1-0.1-0.1c0,0-0.1-0.1-0.2-0.1
				c-0.1,0-0.2-0.1-0.3-0.1c-0.1,0-0.1-0.1-0.2-0.1c0-0.1-0.1-0.1-0.1-0.2c0-0.1,0-0.1,0.1-0.2c0-0.1,0.1-0.1,0.2-0.1
				c0.1,0,0.2-0.1,0.3-0.1c0.1,0,0.2,0,0.2,0c0.1,0,0.1,0,0.2,0.1c0,0,0.1,0.1,0.1,0.1c0,0,0,0.1,0,0.1c0,0,0,0.1,0,0.1
				c0,0-0.1,0-0.1,0c0,0-0.1,0-0.1,0c0,0-0.1-0.1-0.1-0.1c0,0-0.1-0.1-0.1-0.1c0,0-0.1,0-0.1,0c-0.1,0-0.1,0-0.2,0
				c0,0-0.1,0.1-0.1,0.1c0,0,0,0.1,0,0.1c0,0,0.1,0,0.1,0.1c0.1,0,0.1,0,0.2,0.1c0.1,0,0.2,0.1,0.3,0.1c0.1,0,0.1,0.1,0.2,0.1
				C235.9,111,235.9,111.1,235.9,111.1z"/>
			<path class="st3" d="M236.2,110c0,0-0.1,0-0.1,0c0,0-0.1-0.1-0.1-0.1c0,0,0-0.1,0.1-0.1c0,0,0.1,0,0.1,0c0,0,0.1,0,0.1,0
				c0,0,0.1,0.1,0.1,0.1c0,0.1,0,0.1-0.1,0.1C236.3,110,236.3,110,236.2,110z M236.4,110.3v1c0,0.1,0,0.1-0.1,0.2
				c0,0-0.1,0.1-0.1,0.1s-0.1,0-0.1-0.1c0,0,0-0.1,0-0.2v-1c0-0.1,0-0.1,0-0.2c0,0,0.1-0.1,0.1-0.1s0.1,0,0.1,0.1
				C236.4,110.2,236.4,110.3,236.4,110.3z"/>
			<path class="st3" d="M237.9,110.4v1c0,0.1,0,0.2,0,0.3c0,0.1-0.1,0.2-0.1,0.2c-0.1,0.1-0.1,0.1-0.2,0.1c-0.1,0-0.2,0-0.3,0
				c-0.1,0-0.2,0-0.3-0.1c-0.1,0-0.2-0.1-0.2-0.1c-0.1-0.1-0.1-0.1-0.1-0.2c0,0,0-0.1,0-0.1c0,0,0.1,0,0.1,0c0.1,0,0.1,0,0.1,0.1
				c0,0,0,0,0.1,0.1c0,0,0,0,0.1,0.1c0,0,0.1,0,0.1,0c0,0,0.1,0,0.1,0c0.1,0,0.2,0,0.2,0c0.1,0,0.1-0.1,0.1-0.1c0,0,0-0.1,0-0.1
				c0-0.1,0-0.1,0-0.2c-0.1,0.1-0.1,0.1-0.2,0.2c-0.1,0-0.2,0.1-0.3,0.1c-0.1,0-0.2,0-0.3-0.1c-0.1-0.1-0.2-0.1-0.2-0.3
				c0-0.1-0.1-0.2-0.1-0.4c0-0.1,0-0.2,0-0.3c0-0.1,0.1-0.2,0.1-0.2c0.1-0.1,0.1-0.1,0.2-0.1c0.1,0,0.1,0,0.2,0c0.1,0,0.2,0,0.3,0.1
				c0.1,0,0.1,0.1,0.2,0.2v0c0-0.1,0-0.1,0-0.1c0,0,0.1-0.1,0.1-0.1c0.1,0,0.1,0,0.1,0.1C237.9,110.3,237.9,110.3,237.9,110.4z
				 M236.9,110.9c0,0.1,0,0.2,0.1,0.3c0.1,0.1,0.1,0.1,0.2,0.1c0.1,0,0.1,0,0.2,0c0.1,0,0.1-0.1,0.1-0.1c0-0.1,0-0.1,0-0.2
				c0-0.1,0-0.3-0.1-0.3s-0.1-0.1-0.2-0.1c-0.1,0-0.2,0-0.2,0.1C237,110.6,236.9,110.7,236.9,110.9z"/>
			<path class="st3" d="M238.5,110.3L238.5,110.3c0.1,0,0.1-0.1,0.2-0.1c0.1,0,0.2-0.1,0.3-0.1c0.1,0,0.2,0,0.2,0.1
				c0.1,0,0.1,0.1,0.2,0.2c0,0,0,0.1,0,0.1c0,0,0,0.1,0,0.2v0.7c0,0.1,0,0.1,0,0.2c0,0-0.1,0.1-0.1,0.1c-0.1,0-0.1,0-0.1-0.1
				c0,0,0-0.1,0-0.2v-0.6c0-0.1,0-0.2,0-0.3c0-0.1-0.1-0.1-0.2-0.1c-0.1,0-0.1,0-0.2,0.1s-0.1,0.1-0.1,0.2c0,0.1,0,0.1,0,0.3v0.4
				c0,0.1,0,0.1,0,0.2c0,0-0.1,0.1-0.1,0.1c-0.1,0-0.1,0-0.1-0.1c0,0,0-0.1,0-0.2v-1c0-0.1,0-0.1,0-0.1c0,0,0.1,0,0.1,0
				c0,0,0.1,0,0.1,0c0,0,0,0,0.1,0.1C238.5,110.3,238.5,110.3,238.5,110.3z"/>
			<path class="st3" d="M240.6,110.9h-0.7c0,0.1,0,0.1,0,0.2c0,0.1,0.1,0.1,0.1,0.1c0.1,0,0.1,0,0.2,0c0,0,0.1,0,0.1,0
				c0,0,0.1,0,0.1,0c0,0,0.1,0,0.1-0.1c0,0,0.1-0.1,0.1-0.1c0,0,0,0,0.1,0c0,0,0.1,0,0.1,0c0,0,0,0,0,0.1c0,0,0,0.1,0,0.1
				c0,0-0.1,0.1-0.1,0.1c-0.1,0-0.1,0.1-0.2,0.1c-0.1,0-0.2,0-0.3,0c-0.2,0-0.4-0.1-0.5-0.2c-0.1-0.1-0.2-0.3-0.2-0.5
				c0-0.1,0-0.2,0-0.3c0-0.1,0.1-0.2,0.1-0.2c0.1-0.1,0.1-0.1,0.2-0.1c0.1,0,0.2-0.1,0.3-0.1c0.1,0,0.3,0,0.4,0.1
				c0.1,0.1,0.2,0.1,0.2,0.2c0,0.1,0.1,0.2,0.1,0.3c0,0.1,0,0.1-0.1,0.2C240.8,110.9,240.7,110.9,240.6,110.9z M239.9,110.7h0.6
				c0-0.1,0-0.2-0.1-0.3c-0.1-0.1-0.1-0.1-0.2-0.1c-0.1,0-0.2,0-0.2,0.1C240,110.5,240,110.6,239.9,110.7z"/>
			<path class="st3" d="M242.1,111.4L242.1,111.4c0,0-0.1,0.1-0.1,0.1c0,0-0.1,0.1-0.1,0.1c-0.1,0-0.1,0-0.2,0c-0.1,0-0.2,0-0.2-0.1
				c-0.1,0-0.1-0.1-0.2-0.2c-0.1-0.1-0.1-0.1-0.1-0.2c0-0.1,0-0.2,0-0.3c0-0.2,0.1-0.4,0.2-0.5c0.1-0.1,0.2-0.2,0.4-0.2
				c0.1,0,0.2,0,0.3,0.1c0.1,0,0.1,0.1,0.2,0.2v-0.5c0-0.1,0-0.1,0-0.2c0,0,0.1-0.1,0.1-0.1c0.1,0,0.1,0,0.1,0.1c0,0,0,0.1,0,0.1
				v1.5c0,0.1,0,0.1,0,0.2c0,0-0.1,0-0.1,0c0,0-0.1,0-0.1-0.1C242.1,111.5,242.1,111.4,242.1,111.4z M241.4,110.9c0,0.1,0,0.2,0,0.2
				c0,0.1,0.1,0.1,0.1,0.2c0.1,0,0.1,0.1,0.2,0.1c0.1,0,0.1,0,0.2,0c0.1,0,0.1-0.1,0.1-0.1c0-0.1,0-0.1,0-0.2c0-0.1,0-0.2,0-0.2
				c0-0.1-0.1-0.1-0.1-0.2c-0.1,0-0.1-0.1-0.2-0.1c-0.1,0-0.1,0-0.2,0.1c-0.1,0-0.1,0.1-0.1,0.2
				C241.4,110.7,241.4,110.8,241.4,110.9z"/>
			<path class="st3" d="M243.5,109.8v0.5c0.1-0.1,0.1-0.1,0.2-0.2c0.1,0,0.2-0.1,0.3-0.1c0.1,0,0.2,0,0.3,0.1
				c0.1,0.1,0.2,0.1,0.2,0.2c0,0.1,0.1,0.2,0.1,0.4c0,0.1,0,0.2,0,0.3c0,0.1-0.1,0.2-0.1,0.2c-0.1,0.1-0.1,0.1-0.2,0.2
				c-0.1,0-0.2,0.1-0.2,0.1c-0.1,0-0.1,0-0.2,0c0,0-0.1,0-0.1-0.1c0,0-0.1,0-0.1-0.1s-0.1-0.1-0.1-0.1v0c0,0.1,0,0.1,0,0.1
				c0,0-0.1,0.1-0.1,0.1c0,0-0.1,0-0.1-0.1c0,0,0-0.1,0-0.1v-1.5c0-0.1,0-0.1,0-0.2c0,0,0.1-0.1,0.1-0.1c0.1,0,0.1,0,0.1,0.1
				C243.5,109.7,243.5,109.8,243.5,109.8z M243.5,110.9c0,0.1,0,0.2,0.1,0.3c0.1,0.1,0.1,0.1,0.3,0.1c0.1,0,0.2,0,0.2-0.1
				c0.1-0.1,0.1-0.2,0.1-0.3c0-0.1,0-0.2,0-0.2c0-0.1-0.1-0.1-0.1-0.2c0,0-0.1-0.1-0.2-0.1c-0.1,0-0.1,0-0.2,0.1
				c-0.1,0-0.1,0.1-0.1,0.2C243.5,110.7,243.5,110.8,243.5,110.9z"/>
			<path class="st3" d="M245,111.6L245,111.6l-0.4-1.2c0-0.1,0-0.1,0-0.1c0,0,0-0.1,0-0.1c0,0,0,0,0.1-0.1c0,0,0.1,0,0.1,0
				c0.1,0,0.1,0,0.1,0c0,0,0,0.1,0.1,0.1l0.3,0.9l0.3-0.8c0-0.1,0-0.1,0.1-0.2c0,0,0-0.1,0.1-0.1c0,0,0,0,0.1,0c0,0,0.1,0,0.1,0
				c0,0,0,0,0.1,0.1c0,0,0,0,0,0.1c0,0,0,0,0,0.1c0,0,0,0.1,0,0.1l-0.5,1.2c0,0.1-0.1,0.2-0.1,0.2c0,0.1-0.1,0.1-0.1,0.1
				c-0.1,0-0.1,0-0.3,0c-0.1,0-0.2,0-0.2,0c-0.1,0-0.1-0.1-0.1-0.1c0,0,0-0.1,0-0.1c0,0,0.1,0,0.1,0c0,0,0,0,0.1,0c0,0,0,0,0.1,0
				c0,0,0.1,0,0.1,0c0,0,0,0,0.1-0.1C244.9,111.7,245,111.7,245,111.6z"/>
		</g>
		<g class="st2">
			<path class="st3" d="M250.1,110.2L250.1,110.2l0.1-0.1c0-0.1,0-0.2,0-0.3c0-0.1,0.1-0.1,0.1-0.1c0.1,0,0.2,0,0.3,0
				c0.2,0,0.3,0,0.3,0.2c0,0,0,0.1,0,0.1c0,0,0,0-0.1,0c0,0,0,0-0.1,0c0,0-0.1,0-0.1,0c-0.1,0-0.1,0-0.1,0.1c0,0,0,0.1,0,0.2v0.1
				h0.1c0.1,0,0.2,0,0.2,0.1c0,0.1,0,0.1-0.1,0.1c0,0-0.1,0-0.1,0h-0.1v0.9c0,0.1,0,0.1,0,0.2c0,0-0.1,0.1-0.1,0.1
				c0,0-0.1,0-0.1-0.1c0,0,0-0.1,0-0.2v-0.9h-0.1c-0.1,0-0.1,0-0.1,0c0,0,0-0.1,0-0.1C249.9,110.2,249.9,110.2,250.1,110.2"/>
			<path class="st3" d="M251.2,111.1v0.3c0,0.1,0,0.1-0.1,0.2c0,0-0.1,0.1-0.1,0.1c-0.1,0-0.1,0-0.1-0.1c0,0,0-0.1,0-0.2v-1
				c0-0.2,0.1-0.2,0.2-0.2c0.1,0,0.1,0,0.1,0.1c0,0,0,0.1,0,0.2c0-0.1,0.1-0.1,0.1-0.2c0,0,0.1-0.1,0.2-0.1c0.1,0,0.1,0,0.2,0.1
				c0.1,0,0.1,0.1,0.1,0.1c0,0,0,0.1,0,0.1c0,0-0.1,0-0.1,0c0,0,0,0-0.1,0c0,0-0.1,0-0.1,0c-0.1,0-0.1,0-0.1,0c0,0-0.1,0.1-0.1,0.1
				c0,0.1,0,0.1,0,0.2C251.2,110.9,251.2,111,251.2,111.1"/>
			<path class="st3" d="M252.8,110.9h-0.7c0,0.1,0,0.2,0,0.2c0,0.1,0.1,0.1,0.1,0.1c0.1,0,0.1,0,0.2,0c0,0,0.1,0,0.1,0
				c0,0,0.1,0,0.1,0c0,0,0.1,0,0.1-0.1c0,0,0.1-0.1,0.1-0.1c0,0,0,0,0.1,0c0,0,0.1,0,0.1,0c0,0,0,0,0,0.1c0,0,0,0.1,0,0.1
				c0,0-0.1,0.1-0.1,0.1c-0.1,0-0.1,0.1-0.2,0.1c-0.1,0-0.2,0-0.3,0c-0.2,0-0.4-0.1-0.5-0.2c-0.1-0.1-0.2-0.3-0.2-0.5
				c0-0.1,0-0.2,0-0.3c0-0.1,0.1-0.2,0.1-0.2c0.1-0.1,0.1-0.1,0.2-0.1c0.1,0,0.2-0.1,0.3-0.1c0.1,0,0.3,0,0.4,0.1
				c0.1,0.1,0.2,0.1,0.2,0.2c0,0.1,0.1,0.2,0.1,0.3c0,0.1,0,0.1-0.1,0.2C253,110.9,252.9,110.9,252.8,110.9 M252.1,110.7h0.6
				c0-0.1,0-0.2-0.1-0.3c-0.1-0.1-0.1-0.1-0.2-0.1c-0.1,0-0.2,0-0.2,0.1C252.2,110.5,252.2,110.6,252.1,110.7"/>
			<path class="st3" d="M254.3,110.9h-0.7c0,0.1,0,0.2,0,0.2c0,0.1,0.1,0.1,0.1,0.1c0.1,0,0.1,0,0.2,0c0,0,0.1,0,0.1,0
				c0,0,0.1,0,0.1,0c0,0,0.1,0,0.1-0.1c0,0,0.1-0.1,0.1-0.1c0,0,0,0,0.1,0c0,0,0.1,0,0.1,0c0,0,0,0,0,0.1c0,0,0,0.1,0,0.1
				c0,0-0.1,0.1-0.1,0.1c-0.1,0-0.1,0.1-0.2,0.1c-0.1,0-0.2,0-0.3,0c-0.2,0-0.4-0.1-0.5-0.2c-0.1-0.1-0.2-0.3-0.2-0.5
				c0-0.1,0-0.2,0-0.3c0-0.1,0.1-0.2,0.1-0.2c0.1-0.1,0.1-0.1,0.2-0.1c0.1,0,0.2-0.1,0.3-0.1c0.1,0,0.3,0,0.4,0.1
				c0.1,0.1,0.2,0.1,0.2,0.2c0,0.1,0.1,0.2,0.1,0.3c0,0.1,0,0.1-0.1,0.2C254.4,110.9,254.4,110.9,254.3,110.9 M253.6,110.7h0.6
				c0-0.1,0-0.2-0.1-0.3c-0.1-0.1-0.1-0.1-0.2-0.1c-0.1,0-0.2,0-0.2,0.1C253.6,110.5,253.6,110.6,253.6,110.7"/>
			<path class="st3" d="M255.1,110.3L255.1,110.3c0.1,0,0.1-0.1,0.2-0.1c0.1,0,0.2-0.1,0.2-0.1c0.1,0,0.2,0,0.3,0.1
				c0.1,0.1,0.2,0.1,0.2,0.2c0.1,0.1,0.1,0.2,0.1,0.4c0,0.1,0,0.2,0,0.3c0,0.1-0.1,0.2-0.1,0.2c-0.1,0.1-0.1,0.1-0.2,0.1
				c-0.1,0-0.2,0-0.2,0c-0.1,0-0.2,0-0.3-0.1c-0.1,0-0.1-0.1-0.2-0.2v0.5c0,0.2-0.1,0.2-0.2,0.2c-0.1,0-0.1,0-0.1-0.1
				c0,0,0-0.1,0-0.2v-1.5c0-0.1,0-0.1,0-0.1c0,0,0.1,0,0.1,0c0,0,0.1,0,0.1,0.1C255,110.2,255.1,110.3,255.1,110.3 M255.7,110.9
				c0-0.1,0-0.2,0-0.2c0-0.1-0.1-0.1-0.1-0.2c0,0-0.1-0.1-0.2-0.1c-0.1,0-0.2,0-0.2,0.1c-0.1,0.1-0.1,0.2-0.1,0.3
				c0,0.1,0,0.2,0.1,0.3c0.1,0.1,0.1,0.1,0.2,0.1c0.1,0,0.1,0,0.2-0.1c0.1,0,0.1-0.1,0.1-0.2C255.7,111,255.7,111,255.7,110.9"/>
			<path class="st3" d="M256.4,110c0,0-0.1,0-0.1,0c0,0-0.1-0.1-0.1-0.1c0,0,0-0.1,0.1-0.1c0,0,0.1,0,0.1,0c0,0,0.1,0,0.1,0
				c0,0,0.1,0.1,0.1,0.1c0,0.1,0,0.1-0.1,0.1C256.5,110,256.5,110,256.4,110 M256.6,110.3v1c0,0.1,0,0.1-0.1,0.2
				c0,0-0.1,0.1-0.1,0.1s-0.1,0-0.1-0.1c0,0,0-0.1,0-0.2v-1c0-0.1,0-0.1,0-0.2c0,0,0.1-0.1,0.1-0.1s0.1,0,0.1,0.1
				C256.6,110.2,256.6,110.3,256.6,110.3"/>
			<path class="st3" d="M257.8,111.4l-0.3-0.5l-0.2,0.2v0.3c0,0.1,0,0.1-0.1,0.2c0,0-0.1,0.1-0.1,0.1c-0.1,0-0.1,0-0.1-0.1
				c0,0,0-0.1,0-0.2v-1.5c0-0.1,0-0.1,0-0.2c0,0,0.1-0.1,0.1-0.1c0.1,0,0.1,0,0.1,0.1c0,0,0,0.1,0,0.2v0.9l0.4-0.4
				c0-0.1,0.1-0.1,0.1-0.1c0,0,0.1,0,0.1,0c0,0,0.1,0,0.1,0c0,0,0,0.1,0,0.1c0,0.1,0,0.1-0.1,0.2l-0.2,0.2l0.4,0.6
				c0,0,0,0.1,0.1,0.1c0,0,0,0,0,0.1c0,0.1,0,0.1,0,0.1c0,0-0.1,0-0.1,0c0,0-0.1,0-0.1,0C257.8,111.5,257.8,111.5,257.8,111.4"/>
			<path class="st3" d="M258.5,111.6c-0.1,0-0.1,0-0.1-0.1c0,0-0.1-0.1-0.1-0.1c0-0.1,0-0.1,0.1-0.1c0,0,0.1-0.1,0.1-0.1
				c0.1,0,0.1,0,0.1,0.1c0,0,0.1,0.1,0.1,0.1c0,0.1,0,0.1-0.1,0.1C258.6,111.6,258.6,111.6,258.5,111.6"/>
			<path class="st3" d="M260.3,111.1c0,0,0,0.1,0,0.1c0,0.1-0.1,0.1-0.1,0.1c-0.1,0-0.1,0.1-0.2,0.1c-0.1,0-0.2,0-0.3,0
				c-0.2,0-0.4-0.1-0.5-0.2c-0.1-0.1-0.2-0.3-0.2-0.5c0-0.1,0-0.3,0.1-0.4c0.1-0.1,0.1-0.2,0.2-0.3c0.1-0.1,0.2-0.1,0.4-0.1
				c0.1,0,0.2,0,0.3,0c0.1,0,0.1,0.1,0.2,0.1c0.1,0,0.1,0.1,0.1,0.1c0,0,0,0.1,0,0.1c0,0,0,0.1,0,0.1c0,0-0.1,0-0.1,0
				c0,0-0.1,0-0.1,0c0,0,0,0-0.1-0.1c0-0.1-0.1-0.1-0.1-0.1c0,0-0.1,0-0.2,0c-0.1,0-0.2,0-0.3,0.1c-0.1,0.1-0.1,0.2-0.1,0.3
				c0,0.1,0,0.1,0,0.2c0,0.1,0,0.1,0.1,0.1c0,0,0.1,0.1,0.1,0.1c0,0,0.1,0,0.1,0c0.1,0,0.1,0,0.2,0c0.1,0,0.1-0.1,0.1-0.1
				c0,0,0-0.1,0.1-0.1c0,0,0.1,0,0.1,0c0,0,0.1,0,0.1,0C260.2,111.1,260.3,111.1,260.3,111.1"/>
			<path class="st3" d="M261.8,110.9c0,0.1,0,0.2,0,0.3c0,0.1-0.1,0.2-0.1,0.2c-0.1,0.1-0.1,0.1-0.2,0.1c-0.1,0-0.2,0.1-0.3,0.1
				c-0.1,0-0.2,0-0.3-0.1c-0.1,0-0.2-0.1-0.2-0.1c-0.1-0.1-0.1-0.1-0.1-0.2c0-0.1,0-0.2,0-0.3c0-0.1,0-0.2,0-0.3
				c0-0.1,0.1-0.2,0.1-0.2c0.1-0.1,0.1-0.1,0.2-0.1c0.1,0,0.2-0.1,0.3-0.1c0.1,0,0.2,0,0.3,0.1c0.1,0,0.2,0.1,0.2,0.1
				c0.1,0.1,0.1,0.1,0.1,0.2C261.8,110.7,261.8,110.8,261.8,110.9 M261.4,110.9c0-0.1,0-0.3-0.1-0.3c-0.1-0.1-0.1-0.1-0.3-0.1
				c-0.1,0-0.1,0-0.2,0.1c-0.1,0-0.1,0.1-0.1,0.2c0,0.1,0,0.2,0,0.2c0,0.1,0,0.2,0,0.2c0,0.1,0.1,0.1,0.1,0.2c0.1,0,0.1,0.1,0.2,0.1
				c0.1,0,0.2,0,0.3-0.1C261.4,111.1,261.4,111,261.4,110.9"/>
			<path class="st3" d="M263.1,110.9v0.5c0,0.1,0,0.1,0,0.2c0,0-0.1,0.1-0.1,0.1c-0.1,0-0.1,0-0.1-0.1c0,0-0.1-0.1-0.1-0.2v-0.6
				c0-0.1,0-0.2,0-0.2c0,0,0-0.1,0-0.1c0,0-0.1,0-0.1,0c-0.1,0-0.2,0-0.2,0.1c0,0.1-0.1,0.2-0.1,0.3v0.5c0,0.1,0,0.1,0,0.2
				c0,0-0.1,0.1-0.1,0.1c-0.1,0-0.1,0-0.1-0.1c0,0-0.1-0.1-0.1-0.2v-1c0-0.1,0-0.1,0-0.2c0,0,0.1-0.1,0.1-0.1c0,0,0.1,0,0.1,0
				c0,0,0,0.1,0,0.1v0c0.1-0.1,0.1-0.1,0.2-0.2c0.1,0,0.1-0.1,0.2-0.1c0.1,0,0.2,0,0.2,0.1c0.1,0,0.1,0.1,0.2,0.2
				c0.1-0.1,0.1-0.1,0.2-0.2c0.1,0,0.1-0.1,0.2-0.1c0.1,0,0.2,0,0.2,0.1c0.1,0,0.1,0.1,0.2,0.2c0,0.1,0,0.2,0,0.3v0.7
				c0,0.1,0,0.1,0,0.2c0,0-0.1,0.1-0.1,0.1c-0.1,0-0.1,0-0.1-0.1c0,0-0.1-0.1-0.1-0.2v-0.6c0-0.1,0-0.1,0-0.2c0,0,0-0.1-0.1-0.1
				c0,0-0.1,0-0.1,0c0,0-0.1,0-0.1,0c0,0-0.1,0.1-0.1,0.1C263.1,110.6,263.1,110.7,263.1,110.9"/>
		</g>
		<g class="st2">
			<path class="st3" d="M246.8,110.8C246.8,110.8,246.8,110.8,246.8,110.8C246.8,110.8,246.8,110.8,246.8,110.8z"/>
			<path class="st3" d="M246.8,110.9C246.8,110.9,246.8,110.9,246.8,110.9C246.8,110.9,246.8,110.8,246.8,110.9
				C246.8,110.8,246.8,110.9,246.8,110.9z"/>
			<path class="st3" d="M246.9,111.2C246.9,111.2,246.9,111.2,246.9,111.2C246.9,111.2,246.9,111.2,246.9,111.2z"/>
			<path class="st3" d="M246.9,111.2C246.9,111.2,246.9,111.2,246.9,111.2C246.9,111.2,246.9,111.2,246.9,111.2z"/>
			<path class="st3" d="M246.8,111c0,0.1,0,0.1,0.1,0.2C246.9,111.1,246.9,111.1,246.8,111C246.8,111,246.8,111,246.8,111z"/>
			<path class="st3" d="M248.1,109.4c0.1,0,0.1,0,0.2,0l0-0.1c0,0-0.2,0-0.4,0l0-0.1c0.1,0,0.1-0.1,0.1-0.1c0-0.1-0.1-0.1-0.1-0.1
				c-0.1,0-0.1,0.1-0.1,0.1c0,0.1,0,0.1,0.1,0.1l0,0.1c-0.2,0-0.4,0.1-0.4,0.1l0,0.1c0.1,0,0.2-0.1,0.4-0.1
				C248,109.4,248.1,109.4,248.1,109.4z"/>
			<path class="st3" d="M246.9,110L246.9,110C246.9,109.9,246.9,109.9,246.9,110L246.9,110L246.9,110c-0.1-0.1-0.2,0-0.3,0.2
				c0,0,0,0,0,0c0,0-0.1,0-0.1,0c0,0,0,0,0,0c0,0,0,0-0.1,0c0,0,0,0,0-0.1c0,0,0-0.1-0.1-0.1c0,0-0.1,0-0.1,0.1c0,0.1,0,0.1,0.1,0.1
				c0,0,0,0,0,0c0,0,0.1,0,0.1,0c0,0,0,0,0.1,0c0,0,0,0,0,0.1c0,0,0,0,0,0c-0.1,0.2,0,0.4,0,0.4l0.1,0c0-0.1,0-0.2,0.1-0.3
				C246.8,110.1,246.9,110,246.9,110z"/>
			<path class="st3" d="M249.4,109.6C249.3,109.6,249.3,109.6,249.4,109.6c-0.1,0.1-0.1,0.1-0.1,0.1c0,0,0,0.1,0,0.1c0,0,0,0,0,0.1
				c0,0,0,0,0,0c-0.1-0.1-0.2-0.2-0.2-0.2l-0.1,0.1c0.1,0.1,0.2,0.2,0.2,0.3c0.1,0.1,0.1,0.2,0.2,0.3l0.1-0.1c0,0-0.1-0.2-0.2-0.3
				c0,0,0,0,0,0c0,0,0-0.1,0-0.1c0,0,0,0,0-0.1c0,0,0,0,0.1,0C249.4,109.7,249.5,109.7,249.4,109.6
				C249.5,109.6,249.4,109.6,249.4,109.6z"/>
			<path class="st3" d="M249,110.8c-0.2,0.1-0.5,0.2-0.9,0.3c-0.2,0-0.3,0-0.5,0c-0.2,0-0.4,0-0.5,0c-0.1,0-0.3,0-0.3-0.1
				c0,0.1,0,0.1,0.1,0.2c0,0,0,0,0,0c0,0,0,0,0,0c0,0,0,0,0,0c0,0,0,0,0,0c0,0.1,0.1,0.1,0.1,0.2c0.2,0.2,0.4,0.2,0.4,0.2l0,0l0,0
				c0,0,0.2,0.1,0.4,0.1c0.3,0,0.5-0.1,0.8-0.2c0.2-0.1,0.4-0.2,0.4-0.4c0.1-0.1,0.1-0.2,0.1-0.3c0-0.1,0-0.1,0-0.2
				C249.2,110.7,249.1,110.7,249,110.8z"/>
			<path class="st3" d="M247,110c0,0-0.1,0.1-0.2,0.3c0,0.1,0,0.3,0,0.3v0c0,0,0,0.1,0,0.1c0,0,0,0,0,0c0,0,0,0,0,0c0,0,0,0.1,0,0.1
				c0.1,0,0.7,0.2,1.3,0.1c0.4-0.1,0.7-0.2,0.9-0.3c0.2-0.1,0.2-0.1,0.3-0.2c0-0.1-0.1-0.4-0.2-0.5c-0.3-0.4-0.6-0.5-0.7-0.5
				c-0.1,0-0.1,0-0.2,0c-0.1,0-0.1,0-0.2,0c-0.1,0-0.2,0-0.3,0.1c-0.2,0.1-0.3,0.2-0.5,0.3l0,0C247.1,109.9,247,109.9,247,110z
				 M248.6,109.9c0.1,0,0.2,0.1,0.2,0.2c0,0.1-0.1,0.2-0.2,0.2c-0.1,0-0.2-0.1-0.2-0.2C248.4,110,248.5,109.9,248.6,109.9z
				 M247.5,109.9c0.2,0,0.4,0.2,0.4,0.4c0,0.2-0.2,0.4-0.4,0.4c-0.2,0-0.4-0.2-0.4-0.4C247.1,110.1,247.3,109.9,247.5,109.9z"/>
		</g>
	</g>
	<g>
		
			<image style="overflow:visible;opacity:0.15;" width="203" height="290" xlink:href="D5E15BD5AF7CA568.png"  transform="matrix(0.24 0 0 0.24 223.9942 24.7942)">
		</image>
		<g>
			<g>
				<g>
					<path class="st4" d="M225.8,56.5c7.8-17,36.7-16.4,44.4,0.3"/>
				</g>
				<g>
					<g>
						<path class="st4" d="M227,49.8c4.6-6.6,12.5-9.4,20.8-9.4"/>
					</g>
					<g>
						<path class="st4" d="M268.6,49.8c-4.6-6.6-12.5-9.4-20.8-9.4"/>
					</g>
				</g>
				<g>
					<g>
						<path class="st4" d="M228.1,44.9c4.7-5.6,12.1-8,19.7-8"/>
					</g>
					<g>
						<path class="st4" d="M267.5,44.9c-4.7-5.6-12.1-8-19.7-8"/>
					</g>
				</g>
				<g>
					<g>
						<path class="st4" d="M229.3,40.1c4.7-4.6,11.5-6.7,18.5-6.7"/>
					</g>
					<g>
						<path class="st4" d="M266.3,40.1c-4.7-4.6-11.5-6.7-18.5-6.7"/>
					</g>
				</g>
				<g>
					<g>
						<path class="st4" d="M231.7,34.8c4.5-3.2,10.2-4.7,16.1-4.7"/>
					</g>
					<g>
						<path class="st4" d="M263.9,34.8c-4.5-3.2-10.2-4.7-16.1-4.7"/>
					</g>
				</g>
				<g>
					<g>
						<path class="st4" d="M227,76.3c4.6,6.6,12.5,9.4,20.8,9.4"/>
					</g>
					<g>
						<path class="st4" d="M268.1,76.5c-4.6,6.6-12,9.2-20.2,9.2"/>
					</g>
				</g>
				<g>
					<g>
						<path class="st4" d="M228.1,81.3c4.7,5.6,12.1,8,19.7,8"/>
					</g>
					<g>
						<path class="st4" d="M267.5,81.3c-4.7,5.6-12.1,8-19.7,8"/>
					</g>
				</g>
				<g>
					<g>
						<path class="st4" d="M229.3,86c4.7,4.6,11.5,6.7,18.5,6.7"/>
					</g>
					<g>
						<path class="st4" d="M266.3,86c-4.7,4.6-11.5,6.7-18.5,6.7"/>
					</g>
				</g>
				<g>
					<g>
						<path class="st4" d="M234.7,29c3.9-2,8.5-2.9,13.1-2.9"/>
					</g>
					<g>
						<path class="st4" d="M261,29c-3.9-2-8.5-2.9-13.1-2.9"/>
					</g>
				</g>
				<g>
					<path class="st4" d="M225.2,61.5c1.8-1.1,2.5-3.2,4.1-5.4c1.6-2.2,5.6-8.8,18.5-8.8"/>
					<path class="st4" d="M270.4,61.5c-1.8-1.1-2.5-3.2-4.1-5.4c-1.6-2.2-5.6-8.8-18.5-8.8"/>
				</g>
				<g>
					<g>
						<path class="st4" d="M229.6,74.5c1.8,2.4,6.1,7.8,18.2,7.8"/>
						<path class="st4" d="M247.8,82.3"/>
					</g>
					<g>
						<path class="st4" d="M266,74.5c-1.8,2.4-6.1,7.8-18.2,7.8"/>
						<path class="st4" d="M247.8,82.3"/>
					</g>
				</g>
				<g>
					<g>
						<g>
							<path class="st4" d="M233.1,73.2c2.3,3.1,6.9,5.7,14.7,5.7"/>
							<path class="st4" d="M247.8,78.9"/>
						</g>
						<g>
							<path class="st4" d="M247.8,78.9"/>
							<path class="st4" d="M247.8,78.9"/>
						</g>
					</g>
					<g>
						<g>
							<path class="st4" d="M263.6,72.4c-2.6,3.2-7.2,6.5-15.8,6.5"/>
							<path class="st4" d="M247.8,78.9"/>
						</g>
						<g>
							<path class="st4" d="M247.8,78.9"/>
							<path class="st4" d="M247.8,78.9"/>
						</g>
					</g>
				</g>
				<g>
					<g>
						<g>
							<path class="st4" d="M237.5,72.9c2,1.8,6.3,2.4,10.3,2.4"/>
							<path class="st4" d="M247.8,75.3"/>
						</g>
						<g>
							<path class="st4" d="M247.8,75.3"/>
							<path class="st4" d="M247.8,75.3"/>
						</g>
					</g>
				</g>
				<g>
					<g>
						<g>
							<path class="st4" d="M261.6,69.7c-3.6,4.6-8.7,5.6-13.8,5.6"/>
							<path class="st4" d="M247.7,75.3"/>
						</g>
						<g>
							<path class="st4" d="M247.7,75.3"/>
							<path class="st4" d="M247.7,75.3"/>
						</g>
					</g>
				</g>
				<path class="st4" d="M224.9,65.8c1.9-0.7,4.3-3.7,6.4-6.6c4.3-6,7.5-8.5,16.5-8.5"/>
				<path class="st4" d="M270.7,65.8c-1.9-0.7-4.3-3.7-6.4-6.6c-4.3-6-7.5-8.5-16.5-8.5"/>
				<path class="st4" d="M227.9,68.1c8.3-3.5,7.2-13.9,20.2-13.9c4.7,0,8.5,3.8,8.5,8.5s-3.8,8.5-8.5,8.5c-8.6,0-11.3-4.1-19.6-1.3"
					/>
				<path class="st4" d="M270.4,68.8c-6-2.5-7.6-8.2-11.9-12"/>
				<path class="st4" d="M235.4,66.3c2.1,0,3.9,0.5,5.7,0.9c2,0.5,4,1.1,6.8,1.1c3.1,0,5.6-2.5,5.6-5.6c0-3.1-2.5-5.6-5.6-5.6
					c-5.3,0-7.8,2.6-10.1,5.8c-0.8,1.1-1.7,2.3-2.7,3.4C235.1,66.3,235.2,66.3,235.4,66.3z"/>
				<path class="st4" d="M248,65c-2.9,0-5-0.5-7.4-1.2c0,0,0,0-0.1,0c0.8-1.1,3.4-3.4,7.5-3.4c1.3,0,2.3,1,2.3,2.3
					C250.3,64,249.3,65,248,65z"/>
				<path class="st4" d="M269.4,71.3c-5.7-0.6-8.9-7.6-10-9c0,0,0.7,4.1-1.7,6.8"/>
			</g>
		</g>
	</g>
</g>
<line class="st0" x1="152.9" y1="44.4" x2="185.8" y2="44.4"/>
<g>
	<path class="st5" d="M183.1,55.8c1.4,1.6,4.3,2.3,6.3,1.7c2-0.6,4.1,0.5,4.5,2.6c0.5,2.1,2.5,4.2,4.6,4.6c2.1,0.5,3.3,2.5,2.6,4.5
		c-0.6,2,0.1,4.9,1.7,6.3c1.6,1.4,1.6,3.8,0,5.2c-1.6,1.4-2.3,4.3-1.7,6.3c0.6,2-0.5,4.1-2.6,4.5c-2.1,0.5-4.2,2.5-4.6,4.6
		c-0.5,2.1-2.5,3.3-4.5,2.6c-2-0.6-4.9,0.1-6.3,1.7c-1.4,1.6-3.8,1.6-5.2,0c-1.4-1.6-4.3-2.3-6.3-1.7c-2,0.6-4.1-0.5-4.5-2.6
		c-0.5-2.1-2.5-4.2-4.6-4.6c-2.1-0.5-3.3-2.5-2.6-4.5c0.6-2-0.1-4.9-1.7-6.3c-1.6-1.4-1.6-3.8,0-5.2c1.6-1.4,2.3-4.3,1.7-6.3
		c-0.6-2,0.5-4.1,2.6-4.5c2.1-0.5,4.2-2.5,4.6-4.6c0.5-2.1,2.5-3.3,4.5-2.6c2,0.6,4.9-0.1,6.3-1.7C179.3,54.3,181.6,54.3,183.1,55.8
		z"/>
	<circle class="st6" cx="180.5" cy="78.1" r="15.9"/>
</g>
<path class="st7" d="M288.5,165.5H50.8c-5.6,0-10.2-4.5-10.2-10.2V15.5c0-5.6,4.5-10.2,10.2-10.2h237.6c5.6,0,10.2,4.5,10.2,10.2
	v139.9C298.6,161,294.1,165.5,288.5,165.5z"/>
<path class="st8" d="M269.6,100.4H226c-4.8,0-8.6-3.9-8.6-8.6V27.7c0-4.8,3.9-8.6,8.6-8.6h43.5c4.8,0,8.6,3.9,8.6,8.6v64.1
	C278.2,96.5,274.4,100.4,269.6,100.4z"/>
<g class="st9">
	<rect x="78.8" y="29.6" class="st10" width="51.6" height="68.9"/>
	<circle class="st10" cx="104.6" cy="58.9" r="15.9"/>
	<path class="st10" d="M80.9,98.5c0-13.1,10.6-23.7,23.7-23.7s23.7,10.6,23.7,23.7"/>
</g>
</svg>
