<svg xmlns="http://www.w3.org/2000/svg" width="833.423" height="458.259" viewBox="0 0 833.423 458.259"><defs><style>.a{fill:rgba(255,145,0,0.15);}.b{fill:#ff9100;}.c{fill:#ff7100;}</style></defs><g transform="translate(203.597 224.319)"><path class="a" d="M207.293,0C353.545,0,591.81,63.34,591.81,176.482S336.5,402.015,75.215,402.015-57.519,318-57.519,204.861,61.042,0,207.293,0Z" transform="translate(38.016 -168.075)"/><path class="b" d="M207.293,0C353.545,0,591.81,63.34,591.81,176.482S336.5,402.015,75.215,402.015-57.519,318-57.519,204.861,61.042,0,207.293,0Z" transform="translate(-114.458 -188.075)"/><path class="c" d="M163.659,0C244.4,0,375.949,34.97,375.949,97.435S234.993,221.95,90.739,221.95,17.458,175.568,17.458,113.1,82.914,0,163.659,0Z" transform="matrix(-0.53, -0.848, 0.848, -0.53, 66.876, 212.119)"/></g></svg>