<svg xmlns="http://www.w3.org/2000/svg" width="117" height="42" viewBox="0 0 117 42"><defs><style>.a{fill:#1c2d5e;}.b{fill:none;}</style></defs><path class="a" d="M9.733,6.418h5.32v4.306H9.733V28.161H4.5V10.724H0V8.549C1.588,7.615,5.567,5.414,5.567,0H9.733Z" transform="translate(101.815 3.519)"/><path class="a" d="M11.414,18.221a8.008,8.008,0,0,0,6.455-2.95l2.864,4.3a12.36,12.36,0,0,1-9.362,3.774C4.4,23.34,0,18.264,0,11.67S4.4,0,11.371,0a12.358,12.358,0,0,1,9.362,3.775L17.868,8.069a8.008,8.008,0,0,0-6.455-2.95c-3.548,0-5.985,2.6-5.985,6.551s2.437,6.551,5.985,6.551" transform="translate(20.777 9.675)"/><path class="a" d="M10.346,23.34a9.883,9.883,0,0,1-7.262-3.08A12.168,12.168,0,0,1,0,11.691,12.236,12.236,0,0,1,3.084,3.1,9.86,9.86,0,0,1,10.346,0a9.029,9.029,0,0,1,6.575,2.685V.52h5.193v22.3H16.921V20.7A8.9,8.9,0,0,1,10.346,23.34Zm.922-18.447A5.647,5.647,0,0,0,7,6.669a7.226,7.226,0,0,0-1.722,5.023A7.152,7.152,0,0,0,7,16.677a5.736,5.736,0,0,0,4.267,1.77,5.432,5.432,0,0,0,4.052-1.77,7.215,7.215,0,0,0,1.727-4.986,7.289,7.289,0,0,0-1.727-5.023A5.419,5.419,0,0,0,11.267,4.893Z" transform="translate(42.248 9.675)"/><path class="a" d="M5.4,31.79H0V.511H5.4V2.6A9.021,9.021,0,0,1,12.254,0a10.215,10.215,0,0,1,7.51,3.123,11.8,11.8,0,0,1,3.042,8.325,11.871,11.871,0,0,1-3.042,8.347,10.189,10.189,0,0,1-7.51,3.144A9.02,9.02,0,0,1,5.4,20.3v11.49ZM11.063,4.809A5.666,5.666,0,0,0,6.94,6.548a6.888,6.888,0,0,0-1.792,4.9A6.961,6.961,0,0,0,6.94,16.385a5.652,5.652,0,0,0,4.123,1.745,6.288,6.288,0,0,0,4.493-1.745A6.773,6.773,0,0,0,17.4,11.447a6.7,6.7,0,0,0-1.845-4.9A6.3,6.3,0,0,0,11.063,4.809Z" transform="translate(67.875 10.21)"/><path class="a" d="M0,3.478A3.482,3.482,0,0,1,3.477,0,3.444,3.444,0,0,1,6.91,3.478,3.493,3.493,0,0,1,3.477,6.911,3.473,3.473,0,0,1,0,3.478" transform="translate(92.087)"/><path class="b" d="M0,41.309H117V0H0Z"/><path class="a" d="M0,21.7H4.846V0H0Z" transform="translate(93.461 10.502)"/><path class="a" d="M23.208,21.973c-.062-.039-.611-.387-.9-.629a7.6,7.6,0,0,1-.951-.967,13.029,13.029,0,0,1-.96-1.3c-.642-.995-3.936-5.735-6.582-9.543l-.671-.966c-1.808-2.639-3.5-5.115-3.659-5.356A9.674,9.674,0,0,0,8.245,1.669,6.873,6.873,0,0,0,6.7.491,3.861,3.861,0,0,0,4.8,0H.458A.473.473,0,0,0,0,.511a.747.747,0,0,0,.33.62L.454.943.33,1.131c.062.039.611.387.9.629a7.577,7.577,0,0,1,.951.967,13.035,13.035,0,0,1,.96,1.3c.64.991,3.919,5.71,6.553,9.5l.7,1.007c1.807,2.638,3.5,5.112,3.658,5.356a9.675,9.675,0,0,0,1.239,1.548,6.883,6.883,0,0,0,1.543,1.178,3.864,3.864,0,0,0,1.9.491H23.08a.473.473,0,0,0,.458-.511.748.748,0,0,0-.33-.62" transform="translate(0 9.802)"/><path class="a" d="M7.058,1.072l-.017-.026L6.346,0c-1.572,2.371-2.917,4.41-3.3,5.027A13.189,13.189,0,0,1,2.116,6.34a7.511,7.511,0,0,1-.922.979,10.73,10.73,0,0,1-.874.637l.12.191L.32,7.956A.766.766,0,0,0,0,8.584.471.471,0,0,0,.444,9.1H4.658A3.619,3.619,0,0,0,6.5,8.6a6.709,6.709,0,0,0,1.5-1.193A9.759,9.759,0,0,0,9.2,5.843c.045-.073.223-.348.5-.767C8.988,4,8.208,2.811,7.732,2.084Z" transform="translate(0 23.805)"/><path class="a" d="M2.606,7.989l.018.028L3.347,9.1c1.573-2.372,2.917-4.41,3.3-5.027a13.18,13.18,0,0,1,.931-1.313A7.541,7.541,0,0,1,8.5,1.783a10.723,10.723,0,0,1,.874-.637.767.767,0,0,0,.32-.628A.471.471,0,0,0,9.248,0H5.034a3.619,3.619,0,0,0-1.84.5A6.709,6.709,0,0,0,1.7,1.691,9.739,9.739,0,0,0,.5,3.259c-.045.073-.223.348-.5.767C.7,5.1,1.484,6.291,1.961,7.017Z" transform="translate(13.154 9.802)"/></svg>