<svg width="68" height="25" viewBox="0 0 68 25" fill="none" xmlns="http://www.w3.org/2000/svg">
<g clip-path="url(#clip0_2809_1372)">
<path d="M63.9297 5.94148H66.961V8.40205H63.9297V18.366H60.9479V8.40205H58.3838V7.15919C59.2886 6.62548 61.5559 5.36776 61.5559 2.27405H63.9297V5.94148Z" fill="white"/>
<path d="M18.7122 16.2038C19.4132 16.2252 20.1097 16.0842 20.7476 15.7919C21.3855 15.4995 21.9476 15.0637 22.3903 14.5181L24.0222 16.9752C23.3344 17.6909 22.5037 18.2529 21.5845 18.6245C20.6652 18.9962 19.6781 19.169 18.6877 19.1318C14.7156 19.129 12.2085 16.2284 12.2085 12.4604C12.2085 8.69238 14.7156 5.79181 18.6877 5.79181C19.6782 5.75461 20.6653 5.92753 21.5846 6.29925C22.5038 6.67098 23.3345 7.23314 24.0222 7.94896L22.3897 10.4027C21.947 9.85711 21.3849 9.42123 20.747 9.12887C20.1092 8.83652 19.4127 8.69556 18.7116 8.71696C16.69 8.71696 15.3014 10.2027 15.3014 12.4604C15.3014 14.7181 16.69 16.2038 18.7116 16.2038" fill="white"/>
<path d="M30.3377 19.1289C29.5644 19.1361 28.798 18.9836 28.0861 18.6808C27.3742 18.378 26.7321 17.9314 26.1998 17.3689C25.0041 16.0263 24.3742 14.2711 24.4425 12.4723C24.375 10.6699 25.0046 8.91097 26.1998 7.56315C26.7306 6.99788 27.3721 6.54874 28.0842 6.24391C28.7963 5.93907 29.5635 5.78512 30.3377 5.79172C31.0332 5.7802 31.7237 5.91023 32.3677 6.17394C33.0116 6.43765 33.5955 6.82957 34.0841 7.326V6.08886H37.0431V18.8317H34.0841V17.6203C33.5959 18.1156 33.0115 18.5051 32.3671 18.7646C31.7226 19.0241 31.0319 19.1481 30.3377 19.1289ZM30.863 8.58772C30.4092 8.57526 29.9579 8.65924 29.5388 8.83415C29.1197 9.00906 28.7422 9.27094 28.4311 9.60258C27.7527 10.3998 27.4019 11.4259 27.4499 12.4729C27.4032 13.5131 27.7542 14.5319 28.4311 15.3214C28.7443 15.6498 29.1222 15.9093 29.5408 16.0835C29.9593 16.2576 30.4094 16.3425 30.8625 16.3329C31.2965 16.3361 31.7264 16.2477 32.1242 16.0734C32.5219 15.8992 32.8787 15.643 33.1713 15.3214C33.8463 14.5304 34.1978 13.5125 34.1554 12.4723C34.199 11.4255 33.8476 10.4006 33.1713 9.602C32.8792 9.2796 32.5226 9.02261 32.1248 8.84783C31.727 8.67306 31.2968 8.58442 30.8625 8.58772H30.863Z" fill="white"/>
<path d="M42.1218 24.2631H39.0449V6.38939H42.1218V7.5831C42.6329 7.07513 43.2445 6.68041 43.9173 6.42448C44.59 6.16855 45.3089 6.05712 46.0273 6.09739C46.8244 6.0851 47.6155 6.23716 48.3516 6.54414C49.0877 6.85112 49.7531 7.30647 50.3065 7.88196C51.4787 9.18155 52.1004 10.8878 52.0398 12.6391C52.0994 14.3941 51.4781 16.1038 50.3065 17.4088C49.7547 17.9872 49.0899 18.4452 48.3536 18.7544C47.6173 19.0635 46.8254 19.217 46.0273 19.2054C45.3072 19.2428 44.5874 19.1279 43.9146 18.8681C43.2417 18.6083 42.6309 18.2094 42.1218 17.6974V24.2631ZM45.3486 8.84539C44.9103 8.8424 44.4759 8.92897 44.072 9.09981C43.6681 9.27066 43.3031 9.5222 42.9993 9.8391C42.306 10.6021 41.9393 11.6076 41.9783 12.6391C41.9382 13.6771 42.3047 14.6897 42.9993 15.4602C43.3026 15.7781 43.6674 16.0306 44.0713 16.202C44.4753 16.3735 44.91 16.4604 45.3486 16.4574C45.8198 16.4682 46.2884 16.3857 46.7277 16.2146C47.167 16.0435 47.5684 15.7871 47.9087 15.4602C48.263 15.0842 48.5386 14.6408 48.719 14.1561C48.8995 13.6714 48.9813 13.1554 48.9595 12.6385C48.9806 12.1249 48.8985 11.6123 48.7178 11.1313C48.5372 10.6502 48.2619 10.2106 47.9082 9.83853C47.2198 9.18057 46.2993 8.82339 45.3486 8.84539Z" fill="white"/>
<path d="M52.8408 2.25061C52.8414 1.7238 53.0503 1.21873 53.4217 0.846158C53.7931 0.47359 54.2967 0.26394 54.822 0.263184C55.0808 0.264 55.3369 0.316152 55.5756 0.416636C55.8142 0.517121 56.0307 0.663953 56.2125 0.848678C56.3943 1.0334 56.5379 1.25237 56.6349 1.49298C56.732 1.73358 56.7807 1.99107 56.7781 2.25061C56.7693 2.76814 56.5604 3.262 56.1955 3.628C55.8305 3.994 55.3381 4.20351 54.822 4.21233C54.3007 4.21296 53.8002 4.00728 53.4292 3.63997C53.0583 3.27265 52.8468 2.77338 52.8408 2.25061" fill="#D7EB36"/>
<path d="M53.624 18.6643H56.3853V6.26428H53.624V18.6643Z" fill="white"/>
<path d="M13.5935 18.4203C13.5581 18.398 13.2453 18.1991 13.0806 18.0608C12.884 17.8932 12.7026 17.7083 12.5388 17.5083C12.3413 17.2722 12.1586 17.0241 11.9918 16.7654C11.6259 16.1968 9.74902 13.4883 8.24133 11.3123L7.85899 10.7603C6.82879 9.25228 5.86469 7.83742 5.77409 7.6997C5.56926 7.38234 5.3325 7.08689 5.06754 6.81799C4.80735 6.55294 4.51095 6.32629 4.1872 6.14485C3.85644 5.95938 3.48352 5.86273 3.10458 5.86428H0.630501C0.593934 5.86532 0.557962 5.87382 0.524776 5.88925C0.49159 5.90469 0.461884 5.92674 0.437468 5.95405C0.413052 5.98137 0.394438 6.01339 0.382758 6.04816C0.371079 6.08292 0.366579 6.11971 0.369532 6.15628C0.369511 6.22626 0.38665 6.29518 0.41944 6.35696C0.45223 6.41874 0.499665 6.47149 0.557567 6.51056L0.628222 6.40313L0.557567 6.51056C0.592894 6.53285 0.905715 6.7317 1.07039 6.86999C1.26712 7.03757 1.44848 7.2225 1.61227 7.42256C1.80975 7.6586 1.99244 7.90669 2.15928 8.16542C2.52395 8.7317 4.39232 11.4283 5.89318 13.594L6.29204 14.1694C7.32167 15.6768 8.28634 17.0906 8.37637 17.23C8.58087 17.5483 8.81744 17.8447 9.08235 18.1146C9.34224 18.3795 9.63825 18.6061 9.96156 18.7877C10.2923 18.9731 10.6652 19.0697 11.0442 19.0683H13.5205C13.5571 19.0672 13.5931 19.0587 13.6263 19.0433C13.6594 19.0279 13.6891 19.0058 13.7136 18.9785C13.738 18.9512 13.7566 18.9192 13.7683 18.8844C13.78 18.8496 13.7845 18.8128 13.7815 18.7763C13.7815 18.7063 13.7643 18.6374 13.7315 18.5756C13.6987 18.5138 13.6513 18.4611 13.5935 18.422" fill="white"/>
<path d="M4.39108 14.4787L4.38139 14.4638L3.98538 13.8661C3.08966 15.2209 2.32327 16.3861 2.10504 16.7387C1.94379 16.9993 1.76683 17.2499 1.57513 17.4889C1.41704 17.6908 1.24122 17.878 1.04977 18.0484C0.889974 18.178 0.723761 18.2995 0.551764 18.4124L0.62014 18.5215L0.551764 18.4124C0.494943 18.4532 0.448724 18.5071 0.416994 18.5695C0.385264 18.632 0.368952 18.7011 0.369428 18.7712C0.365914 18.8074 0.369746 18.8439 0.38069 18.8786C0.391635 18.9132 0.409466 18.9453 0.433108 18.9729C0.45675 19.0004 0.485713 19.0229 0.51825 19.0389C0.550786 19.0549 0.586222 19.0642 0.622419 19.0661H3.02356C3.39261 19.0668 3.75507 18.9681 4.07313 18.7804C4.3891 18.5953 4.67693 18.3657 4.92783 18.0987C5.18525 17.8247 5.41434 17.5252 5.61159 17.2049C5.63723 17.1632 5.73866 17.0061 5.89649 16.7667C5.49079 16.1518 5.04635 15.4724 4.77513 15.0569L4.39108 14.4787Z" fill="white"/>
<path d="M9.34965 10.4294L9.3599 10.4454L9.77187 11.0643C10.6682 9.70883 11.434 8.54426 11.6522 8.19169C11.8136 7.93099 11.9908 7.68043 12.1827 7.4414C12.3409 7.24 12.5167 7.05317 12.7081 6.88312C12.8678 6.75346 13.0341 6.63197 13.2061 6.51912C13.2628 6.47828 13.309 6.42438 13.3408 6.36194C13.3725 6.2995 13.3888 6.23034 13.3884 6.16026C13.3921 6.1239 13.3883 6.08717 13.3774 6.0523C13.3664 6.01744 13.3485 5.98518 13.3248 5.95748C13.301 5.92979 13.2718 5.90724 13.2391 5.89121C13.2063 5.87518 13.1707 5.86601 13.1343 5.86426H10.7331C10.3645 5.8638 10.0024 5.96246 9.68469 6.14997C9.37001 6.33494 9.08334 6.56412 8.83341 6.83055C8.57581 7.10521 8.34671 7.40542 8.14965 7.72654C8.12401 7.76826 8.02258 7.9254 7.86475 8.16483C8.26361 8.77854 8.71033 9.45912 8.98213 9.87397L9.34965 10.4294Z" fill="white"/>
</g>
<defs>
<clipPath id="clip0_2809_1372">
<rect width="66.6667" height="24" fill="white" transform="translate(0.369629 0.263184)"/>
</clipPath>
</defs>
</svg>
