<svg width="51" height="19" viewBox="0 0 51 19" fill="none" xmlns="http://www.w3.org/2000/svg">
<g clip-path="url(#clip0_10405_64718)">
<path d="M48.1701 4.52816H50.4436V6.37359H48.1701V13.8466H45.9338V6.37359H44.0107V5.44144C44.6894 5.04116 46.3898 4.09787 46.3898 1.77759H48.1701V4.52816Z" fill="#B0B6C7"/>
<path d="M14.2567 12.2251C14.7824 12.2411 15.3048 12.1354 15.7832 11.9161C16.2617 11.6969 16.6832 11.3699 17.0152 10.9608L18.2392 12.8036C17.7233 13.3404 17.1003 13.7619 16.4109 14.0406C15.7215 14.3193 14.9811 14.449 14.2383 14.4211C11.2592 14.4189 9.37891 12.2435 9.37891 9.41749C9.37891 6.59149 11.2592 4.41606 14.2383 4.41606C14.9812 4.38816 15.7215 4.51785 16.411 4.79664C17.1004 5.07544 17.7234 5.49706 18.2392 6.03392L17.0148 7.87421C16.6828 7.46504 16.2612 7.13813 15.7828 6.91886C15.3044 6.69959 14.782 6.59388 14.2563 6.60992C12.74 6.60992 11.6986 7.72421 11.6986 9.41749C11.6986 11.1108 12.74 12.2251 14.2563 12.2251" fill="#B0B6C7"/>
<path d="M22.9759 14.4187C22.396 14.4241 21.8211 14.3097 21.2872 14.0826C20.7533 13.8555 20.2717 13.5206 19.8725 13.0987C18.9757 12.0918 18.5033 10.7753 18.5546 9.42624C18.5039 8.07441 18.9761 6.75525 19.8725 5.74438C20.2706 5.32044 20.7518 4.98358 21.2858 4.75495C21.8199 4.52632 22.3953 4.41086 22.9759 4.41581C23.4975 4.40717 24.0154 4.50469 24.4984 4.70247C24.9813 4.90026 25.4193 5.1942 25.7858 5.56653V4.63867H28.005V14.1958H25.7858V13.2872C25.4196 13.6587 24.9813 13.9508 24.4979 14.1454C24.0146 14.3401 23.4966 14.4331 22.9759 14.4187ZM23.3699 6.51281C23.0296 6.50346 22.6911 6.56645 22.3768 6.69764C22.0624 6.82882 21.7793 7.02523 21.546 7.27395C21.0372 7.87186 20.7741 8.64144 20.8101 9.42667C20.7751 10.2068 21.0383 10.971 21.546 11.5631C21.7809 11.8094 22.0643 12.004 22.3782 12.1346C22.6922 12.2652 23.0297 12.3289 23.3695 12.3217C23.6951 12.3241 24.0174 12.2578 24.3158 12.1271C24.6141 11.9964 24.8817 11.8042 25.1011 11.5631C25.6074 10.9698 25.871 10.2064 25.8392 9.42624C25.8719 8.64112 25.6084 7.87246 25.1011 7.27352C24.8821 7.03172 24.6146 6.83898 24.3163 6.7079C24.0179 6.57681 23.6953 6.51034 23.3695 6.51281H23.3699Z" fill="#B0B6C7"/>
<path d="M31.8145 18.2695H29.5068V4.86419H31.8145V5.75947C32.1978 5.37849 32.6566 5.08245 33.1611 4.89051C33.6657 4.69856 34.2048 4.61498 34.7436 4.64519C35.3414 4.63597 35.9348 4.75002 36.4869 4.98025C37.0389 5.21048 37.538 5.552 37.953 5.98361C38.8322 6.9583 39.2984 8.23796 39.253 9.55147C39.2977 10.8677 38.8317 12.15 37.953 13.1288C37.5391 13.5625 37.0405 13.9061 36.4883 14.1379C35.9361 14.3698 35.3422 14.4849 34.7436 14.4762C34.2036 14.5042 33.6637 14.418 33.1591 14.2232C32.6544 14.0283 32.1963 13.7292 31.8145 13.3452V18.2695ZM34.2346 6.70619C33.9059 6.70395 33.5801 6.76887 33.2772 6.897C32.9742 7.02514 32.7005 7.21379 32.4727 7.45147C31.9527 8.02368 31.6776 8.77785 31.7068 9.55147C31.6768 10.33 31.9517 11.0894 32.4727 11.6673C32.7001 11.9058 32.9737 12.0951 33.2766 12.2237C33.5796 12.3523 33.9056 12.4174 34.2346 12.4152C34.588 12.4233 34.9395 12.3614 35.269 12.2331C35.5984 12.1048 35.8994 11.9125 36.1547 11.6673C36.4204 11.3853 36.6271 11.0527 36.7624 10.6892C36.8978 10.3257 36.9591 9.93871 36.9427 9.55104C36.9586 9.16585 36.897 8.7814 36.7615 8.42061C36.6261 8.05981 36.4195 7.73007 36.1543 7.45104C35.638 6.95757 34.9476 6.68969 34.2346 6.70619Z" fill="#B0B6C7"/>
<path d="M39.8535 1.7601C39.854 1.36499 40.0106 0.986188 40.2892 0.706762C40.5677 0.427336 40.9454 0.270098 41.3394 0.269531C41.5335 0.270144 41.7256 0.309257 41.9046 0.384621C42.0835 0.459984 42.2459 0.570108 42.3823 0.708652C42.5186 0.847196 42.6263 1.01142 42.6991 1.19188C42.7719 1.37233 42.8084 1.56544 42.8065 1.7601C42.7999 2.14825 42.6432 2.51865 42.3695 2.79314C42.0958 3.06764 41.7264 3.22478 41.3394 3.23139C40.9484 3.23187 40.5731 3.07761 40.2948 2.80212C40.0166 2.52663 39.858 2.15218 39.8535 1.7601" fill="#B0B6C7"/>
<path d="M40.4404 14.0703H42.5114V4.77026H40.4404V14.0703Z" fill="#B0B6C7"/>
<path d="M10.4176 13.8875C10.3911 13.8708 10.1565 13.7216 10.033 13.6179C9.8855 13.4922 9.74949 13.3535 9.62661 13.2035C9.47849 13.0264 9.34148 12.8404 9.21635 12.6463C8.94199 12.2199 7.5343 10.1885 6.40353 8.55647L6.11678 8.14247C5.34413 7.01147 4.62105 5.95033 4.5531 5.84704C4.39948 5.60902 4.22191 5.38744 4.02319 5.18576C3.82805 4.98697 3.60574 4.81698 3.36293 4.6809C3.11486 4.5418 2.83518 4.46931 2.55097 4.47047H0.69541C0.667985 4.47126 0.641006 4.47763 0.616116 4.4892C0.591226 4.50078 0.568947 4.51732 0.550635 4.53781C0.532323 4.5583 0.518362 4.58231 0.509603 4.60838C0.500843 4.63446 0.497468 4.66205 0.499683 4.68947C0.499668 4.74196 0.512522 4.79365 0.537114 4.83999C0.561707 4.88632 0.597283 4.92588 0.640709 4.95519L0.693701 4.87462L0.640709 4.95519C0.667205 4.9719 0.90182 5.12104 1.02532 5.22476C1.17288 5.35044 1.30889 5.48914 1.43173 5.63919C1.57985 5.81621 1.71686 6.00228 1.84199 6.19633C2.1155 6.62104 3.51678 8.64347 4.64242 10.2678L4.94156 10.6993C5.71379 11.8299 6.43729 12.8902 6.50481 12.9948C6.65819 13.2335 6.83561 13.4558 7.0343 13.6582C7.22921 13.8569 7.45122 14.0268 7.6937 14.163C7.94179 14.3021 8.22146 14.3746 8.50567 14.3735H10.3629C10.3904 14.3727 10.4173 14.3663 10.4422 14.3547C10.4671 14.3432 10.4894 14.3266 10.5077 14.3061C10.526 14.2856 10.54 14.2616 10.5487 14.2356C10.5575 14.2095 10.5609 14.1819 10.5587 14.1545C10.5586 14.102 10.5458 14.0503 10.5212 14.004C10.4966 13.9577 10.461 13.9181 10.4176 13.8888" fill="#B0B6C7"/>
<path d="M3.51621 10.9311L3.50895 10.92L3.21194 10.4717C2.54014 11.4878 1.96536 12.3617 1.80168 12.6261C1.68074 12.8216 1.54802 13.0095 1.40424 13.1888C1.28568 13.3402 1.15381 13.4806 1.01023 13.6084C0.890381 13.7056 0.765721 13.7967 0.636723 13.8814L0.688005 13.9633L0.636723 13.8814C0.594108 13.912 0.559443 13.9524 0.535646 13.9993C0.511849 14.0461 0.499614 14.098 0.499971 14.1505C0.497336 14.1777 0.50021 14.2051 0.508418 14.2311C0.516627 14.257 0.53 14.2811 0.547732 14.3018C0.565463 14.3224 0.587185 14.3393 0.611588 14.3513C0.63599 14.3633 0.662567 14.3702 0.689715 14.3717H2.49057C2.76736 14.3722 3.0392 14.2982 3.27775 14.1574C3.51472 14.0186 3.7306 13.8464 3.91877 13.6461C4.11184 13.4406 4.28365 13.216 4.43159 12.9758C4.45083 12.9445 4.52689 12.8267 4.64527 12.6471C4.341 12.186 4.00766 11.6764 3.80424 11.3648L3.51621 10.9311Z" fill="#B0B6C7"/>
<path d="M7.23477 7.89432L7.24246 7.90632L7.55144 8.37046C8.22366 7.35389 8.79802 6.48046 8.96169 6.21603C9.08276 6.02051 9.21563 5.83258 9.35956 5.65332C9.47821 5.50227 9.61007 5.36214 9.75357 5.2346C9.87342 5.13736 9.99808 5.04624 10.1271 4.9616C10.1697 4.93097 10.2043 4.89055 10.2281 4.84372C10.2519 4.79689 10.2642 4.74502 10.2638 4.69246C10.2666 4.66519 10.2638 4.63764 10.2556 4.61149C10.2474 4.58535 10.2339 4.56115 10.2161 4.54038C10.1983 4.51961 10.1764 4.50269 10.1518 4.49067C10.1273 4.47865 10.1005 4.47178 10.0732 4.47046H8.27238C7.99588 4.47011 7.72435 4.54411 7.48605 4.68475C7.25004 4.82347 7.03504 4.99536 6.84759 5.19517C6.65439 5.40117 6.48257 5.62633 6.33477 5.86717C6.31554 5.89846 6.23947 6.01632 6.12109 6.19589C6.42024 6.65617 6.75528 7.1666 6.95913 7.47775L7.23477 7.89432Z" fill="#B0B6C7"/>
</g>
<defs>
<clipPath id="clip0_10405_64718">
<rect width="50" height="18" fill="white" transform="translate(0.5 0.269531)"/>
</clipPath>
</defs>
</svg>
