<svg width="85" height="31" viewBox="0 0 85 31" fill="none" xmlns="http://www.w3.org/2000/svg">
<g clip-path="url(#clip0_2955_51402)">
<path d="M80.4194 7.18346H84.2389V10.2962H80.4194V22.9013H76.6624V10.2962H73.4316V8.72394C74.5717 8.04876 77.4285 6.45768 77.4285 2.54395H80.4194V7.18346Z" fill="#1C2D5E"/>
<path d="M23.4456 20.1656C24.3289 20.1927 25.2065 20.0144 26.0103 19.6445C26.814 19.2747 27.5222 18.7232 28.08 18.0331L30.1362 21.1415C29.2696 22.0469 28.2229 22.7579 27.0647 23.228C25.9065 23.6981 24.6627 23.9168 23.4148 23.8697C18.41 23.8661 15.251 20.1967 15.251 15.43C15.251 10.6632 18.41 6.99381 23.4148 6.99381C24.6628 6.94675 25.9066 7.1655 27.0648 7.63575C28.2231 8.106 29.2697 8.81717 30.1362 9.72272L28.0793 12.8268C27.5215 12.1367 26.8133 11.5852 26.0095 11.2154C25.2058 10.8455 24.3282 10.6672 23.4449 10.6943C20.8976 10.6943 19.148 12.5738 19.148 15.43C19.148 18.2861 20.8976 20.1656 23.4449 20.1656" fill="#1C2D5E"/>
<path d="M38.0934 23.8661C37.1191 23.8753 36.1534 23.6824 35.2564 23.2993C34.3594 22.9162 33.5503 22.3513 32.8797 21.6396C31.3731 19.9412 30.5794 17.7207 30.6655 15.4451C30.5804 13.1649 31.3737 10.9398 32.8797 9.23477C33.5485 8.51968 34.3568 7.95149 35.254 7.56585C36.1512 7.18022 37.1179 6.98546 38.0934 6.99381C38.9697 6.97924 39.8398 7.14373 40.6512 7.47734C41.4625 7.81095 42.1983 8.30675 42.8139 8.93477V7.36971H46.5422V23.4902H42.8139V21.9577C42.1988 22.5843 41.4624 23.077 40.6504 23.4052C39.8384 23.7335 38.9681 23.8904 38.0934 23.8661V23.8661ZM38.7554 10.5309C38.1836 10.5152 37.6149 10.6214 37.0868 10.8427C36.5587 11.0639 36.0831 11.3952 35.6912 11.8148C34.8363 12.8233 34.3943 14.1214 34.4549 15.4459C34.396 16.7618 34.8382 18.0507 35.6912 19.0495C36.0858 19.4649 36.5619 19.7932 37.0893 20.0135C37.6167 20.2338 38.1838 20.3412 38.7546 20.329C39.3016 20.333 39.8432 20.2212 40.3444 20.0008C40.8456 19.7803 41.2951 19.4562 41.6638 19.0495C42.5142 18.0488 42.9572 16.7611 42.9037 15.4451C42.9587 14.1208 42.5159 12.8243 41.6638 11.8141C41.2958 11.4062 40.8465 11.0811 40.3452 10.86C39.8439 10.6389 39.3019 10.5267 38.7546 10.5309H38.7554Z" fill="#1C2D5E"/>
<path d="M52.9414 30.3615H49.0645V7.75017H52.9414V9.26029C53.5853 8.61767 54.356 8.11833 55.2036 7.79456C56.0513 7.4708 56.957 7.32983 57.8622 7.38077C58.8666 7.36523 59.8634 7.55759 60.7909 7.94594C61.7184 8.33428 62.5567 8.91033 63.254 9.63836C64.731 11.2824 65.5143 13.4409 65.438 15.6564C65.5131 17.8766 64.7302 20.0395 63.254 21.6904C62.5587 22.4221 61.7211 23.0016 60.7933 23.3926C59.8656 23.7837 58.8678 23.9779 57.8622 23.9632C56.955 24.0105 56.048 23.8651 55.2002 23.5365C54.3524 23.2078 53.5828 22.7032 52.9414 22.0555V30.3615ZM57.0071 10.8572C56.4548 10.8534 55.9075 10.9629 55.3986 11.179C54.8897 11.3951 54.4298 11.7134 54.047 12.1143C53.1735 13.0794 52.7114 14.3515 52.7605 15.6564C52.71 16.9696 53.1718 18.2505 54.047 19.2254C54.4291 19.6275 54.8887 19.9469 55.3977 20.1638C55.9067 20.3807 56.4544 20.4906 57.0071 20.4868C57.6008 20.5005 58.1913 20.3961 58.7448 20.1796C59.2983 19.9632 59.804 19.6389 60.2329 19.2254C60.6793 18.7496 61.0265 18.1886 61.2538 17.5755C61.4812 16.9624 61.5842 16.3096 61.5568 15.6557C61.5834 15.006 61.4799 14.3575 61.2523 13.749C61.0247 13.1404 60.6778 12.5842 60.2321 12.1135C59.3648 11.2812 58.205 10.8293 57.0071 10.8572V10.8572Z" fill="#1C2D5E"/>
<path d="M66.4473 2.51422C66.448 1.84777 66.7112 1.20882 67.1792 0.737497C67.6472 0.266177 68.2817 0.000956557 68.9436 0C69.2697 0.00103273 69.5924 0.067008 69.893 0.194127C70.1937 0.321246 70.4664 0.506997 70.6955 0.740686C70.9246 0.974374 71.1055 1.25138 71.2279 1.55576C71.3502 1.86014 71.4115 2.18588 71.4083 2.51422C71.3972 3.16892 71.134 3.79369 70.6741 4.2567C70.2143 4.71971 69.5938 4.98475 68.9436 4.9959C68.2867 4.99671 67.6561 4.73651 67.1887 4.27184C66.7213 3.80716 66.4548 3.17555 66.4473 2.51422" fill="#D7EB36"/>
<path d="M67.4346 23.2785H70.9137V7.5918H67.4346V23.2785Z" fill="#1C2D5E"/>
<path d="M16.9963 22.9698C16.9518 22.9416 16.5576 22.69 16.3501 22.5151C16.1023 22.303 15.8738 22.0691 15.6673 21.8161C15.4185 21.5175 15.1883 21.2036 14.9781 20.8763C14.5172 20.157 12.1523 16.7305 10.2526 13.9778L9.77083 13.2794C8.47278 11.3717 7.25801 9.58186 7.14386 9.40764C6.88577 9.00616 6.58745 8.6324 6.2536 8.29222C5.92577 7.95691 5.5523 7.67019 5.14437 7.44066C4.72762 7.20603 4.25774 7.08376 3.78027 7.08572H0.662937C0.616863 7.08704 0.571538 7.09779 0.529723 7.11731C0.487909 7.13684 0.450479 7.16473 0.419715 7.19929C0.388952 7.23385 0.365497 7.27436 0.350781 7.31834C0.336065 7.36232 0.330395 7.40886 0.334117 7.45511C0.33409 7.54365 0.355685 7.63084 0.397 7.709C0.438316 7.78715 0.498083 7.85388 0.57104 7.90331L0.660065 7.7674L0.57104 7.90331C0.615552 7.9315 1.00971 8.18307 1.21719 8.358C1.46508 8.57 1.69358 8.80395 1.89996 9.05704C2.14879 9.35564 2.37897 9.66949 2.58919 9.9968C3.04868 10.7132 5.40283 14.1245 7.29391 16.8643L7.79647 17.5922C9.09381 19.4992 10.3093 21.2876 10.4227 21.464C10.6804 21.8667 10.9785 22.2417 11.3123 22.5831C11.6397 22.9182 12.0127 23.2049 12.4201 23.4346C12.8369 23.6692 13.3067 23.7914 13.7842 23.7896H16.9044C16.9504 23.7882 16.9958 23.7775 17.0376 23.758C17.0794 23.7384 17.1168 23.7106 17.1476 23.676C17.1784 23.6414 17.2018 23.6009 17.2165 23.5569C17.2312 23.513 17.2369 23.4664 17.2332 23.4202C17.2332 23.3316 17.2115 23.2445 17.1702 23.1663C17.1289 23.0882 17.0692 23.0214 16.9963 22.972" fill="#1C2D5E"/>
<path d="M5.40091 17.9834L5.3887 17.9646L4.88973 17.2085C3.76111 18.9225 2.79547 20.3964 2.5205 20.8425C2.31732 21.1722 2.09434 21.4892 1.8528 21.7916C1.65361 22.047 1.43208 22.2838 1.19085 22.4993C0.989512 22.6634 0.780084 22.817 0.563367 22.9598L0.649521 23.0979L0.563367 22.9598C0.491773 23.0114 0.433537 23.0796 0.393557 23.1586C0.353578 23.2376 0.333023 23.3251 0.333623 23.4138C0.329197 23.4596 0.334024 23.5058 0.347814 23.5496C0.361604 23.5934 0.384072 23.634 0.413861 23.6689C0.44365 23.7037 0.480143 23.7322 0.521139 23.7524C0.562135 23.7727 0.606784 23.7844 0.652393 23.7868H3.67783C4.14283 23.7877 4.59953 23.6628 5.00029 23.4254C5.3984 23.1913 5.76108 22.9008 6.07721 22.563C6.40156 22.2163 6.69021 21.8375 6.93875 21.4324C6.97106 21.3796 7.09885 21.1808 7.29773 20.8779C6.78655 20.1001 6.22655 19.2405 5.8848 18.715L5.40091 17.9834Z" fill="#1C2D5E"/>
<path d="M11.6493 12.8609L11.6622 12.8811L12.1813 13.664C13.3106 11.9493 14.2756 10.4761 14.5505 10.03C14.7539 9.70023 14.9771 9.38325 15.2189 9.08088C15.4183 8.82609 15.6398 8.58974 15.8809 8.37461C16.0822 8.21059 16.2916 8.0569 16.5084 7.91413C16.5799 7.86246 16.6381 7.79428 16.6781 7.71529C16.7181 7.6363 16.7387 7.54881 16.7381 7.46015C16.7428 7.41415 16.738 7.36769 16.7242 7.32358C16.7105 7.27948 16.6879 7.23867 16.6579 7.20363C16.628 7.16859 16.5912 7.14007 16.55 7.11979C16.5087 7.09951 16.4638 7.08791 16.4179 7.0857H13.3925C12.928 7.08511 12.4718 7.20993 12.0714 7.44714C11.6749 7.68114 11.3137 7.97106 10.9988 8.3081C10.6743 8.65557 10.3856 9.03536 10.1373 9.4416C10.105 9.49437 9.97719 9.69316 9.77832 9.99606C10.2809 10.7724 10.8438 11.6334 11.1862 12.1582L11.6493 12.8609Z" fill="#1C2D5E"/>
</g>
<defs>
<clipPath id="clip0_2955_51402">
<rect width="84" height="30.3614" fill="white" transform="translate(0.333984)"/>
</clipPath>
</defs>
</svg>
