<svg width="67" height="24" viewBox="0 0 67 24" fill="none" xmlns="http://www.w3.org/2000/svg">
<g clip-path="url(#clip0_1280:380)">
<path d="M63.56 5.67817H66.5914V8.13874H63.56V18.1027H60.5783V8.13874H58.0142V6.89588C58.919 6.36217 61.1862 5.10446 61.1862 2.01074H63.56V5.67817Z" fill="#1C2D5E"/>
<path d="M18.3423 15.9404C19.0433 15.9618 19.7399 15.8208 20.3777 15.5285C21.0156 15.2361 21.5777 14.8002 22.0204 14.2547L23.6523 16.7118C22.9645 17.4275 22.1338 17.9895 21.2146 18.3611C20.2953 18.7327 19.3082 18.9056 18.3178 18.8684C14.3457 18.8655 11.8386 15.965 11.8386 12.197C11.8386 8.42896 14.3457 5.52839 18.3178 5.52839C19.3083 5.49118 20.2954 5.6641 21.2147 6.03583C22.134 6.40755 22.9646 6.96971 23.6523 7.68553L22.0198 10.1392C21.5772 9.59369 21.0151 9.1578 20.3772 8.86545C19.7393 8.57309 19.0428 8.43214 18.3418 8.45353C16.3201 8.45353 14.9315 9.93924 14.9315 12.197C14.9315 14.4547 16.3201 15.9404 18.3418 15.9404" fill="#1C2D5E"/>
<path d="M29.9681 18.8657C29.1948 18.873 28.4283 18.7204 27.7164 18.4176C27.0045 18.1148 26.3624 17.6682 25.8302 17.1057C24.6345 15.7631 24.0046 14.0079 24.0729 12.2091C24.0053 10.4067 24.6349 8.64779 25.8302 7.29996C26.361 6.7347 27.0025 6.28556 27.7146 5.98072C28.4266 5.67589 29.1939 5.52194 29.9681 5.52854C30.6635 5.51702 31.3541 5.64704 31.998 5.91075C32.642 6.17446 33.2259 6.56638 33.7145 7.06282V5.82568H36.6735V18.5685H33.7145V17.3571C33.2263 17.8524 32.6419 18.2419 31.9974 18.5014C31.353 18.7609 30.6623 18.8849 29.9681 18.8657ZM30.4934 8.32454C30.0396 8.31207 29.5883 8.39606 29.1692 8.57097C28.75 8.74588 28.3725 9.00776 28.0615 9.33939C27.3831 10.1366 27.0323 11.1627 27.0803 12.2097C27.0336 13.2499 27.3845 14.2688 28.0615 15.0583C28.3747 15.3867 28.7526 15.6462 29.1712 15.8203C29.5897 15.9944 30.0398 16.0793 30.4928 16.0697C30.9269 16.0729 31.3568 15.9845 31.7545 15.8102C32.1523 15.636 32.5091 15.3798 32.8017 15.0583C33.4766 14.2672 33.8282 13.2494 33.7857 12.2091C33.8294 11.1623 33.478 10.1374 32.8017 9.33882C32.5096 9.01641 32.153 8.75943 31.7552 8.58465C31.3573 8.40987 30.9272 8.32124 30.4928 8.32454H30.4934Z" fill="#1C2D5E"/>
<path d="M41.7522 23.9999H38.6753V6.12621H41.7522V7.31992C42.2632 6.81195 42.8749 6.41723 43.5477 6.1613C44.2204 5.90537 44.9392 5.79394 45.6576 5.83421C46.4547 5.82192 47.2459 5.97398 47.982 6.28096C48.7181 6.58794 49.3834 7.04329 49.9368 7.61878C51.1091 8.91836 51.7307 10.6246 51.6702 12.3759C51.7298 14.1309 51.1084 15.8406 49.9368 17.1456C49.385 17.724 48.7202 18.1821 47.9839 18.4912C47.2477 18.8003 46.4557 18.9538 45.6576 18.9422C44.9376 18.9796 44.2178 18.8647 43.5449 18.6049C42.8721 18.3451 42.2613 17.9462 41.7522 17.4342V23.9999ZM44.979 8.58221C44.5407 8.57922 44.1063 8.66579 43.7024 8.83663C43.2985 9.00747 42.9335 9.25902 42.6297 9.57592C41.9364 10.3389 41.5697 11.3444 41.6086 12.3759C41.5686 13.4139 41.9351 14.4265 42.6297 15.1971C42.9329 15.515 43.2977 15.7674 43.7017 15.9389C44.1057 16.1103 44.5403 16.1972 44.979 16.1942C45.4502 16.205 45.9188 16.1225 46.3581 15.9514C46.7974 15.7803 47.1987 15.524 47.5391 15.1971C47.8934 14.821 48.1689 14.3776 48.3494 13.8929C48.5299 13.4083 48.6116 12.8922 48.5898 12.3753C48.611 11.8618 48.5288 11.3492 48.3482 10.8681C48.1676 10.387 47.8922 9.94739 47.5385 9.57535C46.8502 8.91739 45.9297 8.56021 44.979 8.58221Z" fill="#1C2D5E"/>
<path d="M52.4712 1.98743C52.4718 1.46061 52.6807 0.955542 53.0521 0.582974C53.4235 0.210406 53.9271 0.000756136 54.4524 0C54.7112 0.000816351 54.9673 0.0529682 55.2059 0.153453C55.4446 0.253937 55.661 0.400769 55.8428 0.585494C56.0247 0.77022 56.1682 0.989189 56.2653 1.22979C56.3624 1.4704 56.4111 1.72788 56.4085 1.98743C56.3997 2.50495 56.1908 2.99882 55.8258 3.36482C55.4609 3.73082 54.9684 3.94033 54.4524 3.94914C53.9311 3.94978 53.4306 3.7441 53.0596 3.37678C52.6886 3.00947 52.4772 2.51019 52.4712 1.98743" fill="#1C2D5E"/>
<path d="M53.2542 18.401H56.0154V6.00098H53.2542V18.401Z" fill="#1C2D5E"/>
<path d="M13.2241 18.1571C13.1888 18.1348 12.8759 17.9359 12.7113 17.7977C12.5146 17.63 12.3332 17.4451 12.1694 17.2451C11.9719 17.0091 11.7892 16.761 11.6224 16.5022C11.2566 15.9337 9.37963 13.2251 7.87194 11.0491L7.48961 10.4971C6.45941 8.98909 5.4953 7.57423 5.40471 7.43652C5.19987 7.11916 4.96311 6.82371 4.69815 6.55481C4.43797 6.28975 4.14156 6.06311 3.81781 5.88166C3.48706 5.69619 3.11414 5.59955 2.73519 5.60109H0.261116C0.22455 5.60214 0.188577 5.61063 0.155391 5.62607C0.122205 5.6415 0.092499 5.66355 0.0680832 5.69087C0.0436675 5.71819 0.0250529 5.75021 0.0133734 5.78497C0.00169385 5.81974 -0.00280612 5.85653 0.00014758 5.89309C0.000126483 5.96308 0.0172655 6.032 0.0500553 6.09378C0.0828452 6.15556 0.13028 6.20831 0.188182 6.24738L0.258837 6.13995L0.188182 6.24738C0.223509 6.26966 0.53633 6.46852 0.701002 6.60681C0.897737 6.77438 1.07909 6.95931 1.24288 7.15938C1.44036 7.39541 1.62305 7.64351 1.78989 7.90223C2.15456 8.46852 4.02294 11.1651 5.52379 13.3308L5.92265 13.9062C6.95228 15.4137 7.91696 16.8274 8.00698 16.9668C8.21148 17.2851 8.44805 17.5815 8.71297 17.8514C8.97285 18.1163 9.26886 18.3429 9.59217 18.5245C9.92295 18.7099 10.2959 18.8066 10.6748 18.8051H13.1511C13.1877 18.804 13.2237 18.7955 13.2569 18.7801C13.2901 18.7647 13.3198 18.7426 13.3442 18.7153C13.3686 18.688 13.3872 18.656 13.3989 18.6212C13.4106 18.5864 13.4151 18.5497 13.4121 18.5131C13.4121 18.4431 13.3949 18.3742 13.3621 18.3124C13.3294 18.2507 13.2819 18.1979 13.2241 18.1588" fill="#1C2D5E"/>
<path d="M4.0217 14.2156L4.01201 14.2007L3.616 13.603C2.72027 14.9579 1.95389 16.123 1.73566 16.4756C1.57441 16.7363 1.39744 16.9868 1.20574 17.2259C1.04765 17.4277 0.871831 17.615 0.680385 17.7853C0.52059 17.915 0.354377 18.0365 0.182379 18.1493L0.250755 18.2585L0.182379 18.1493C0.125558 18.1901 0.0793393 18.244 0.0476094 18.3065C0.0158796 18.3689 -0.000433233 18.4381 4.29575e-05 18.5082C-0.00347038 18.5443 0.000360832 18.5809 0.0113055 18.6155C0.0222501 18.6502 0.0400813 18.6822 0.0637234 18.7098C0.0873655 18.7374 0.116328 18.7598 0.148865 18.7758C0.181401 18.7919 0.216837 18.8011 0.253034 18.803H2.65417C3.02322 18.8037 3.38569 18.705 3.70375 18.5173C4.01971 18.3323 4.30755 18.1027 4.55845 17.8356C4.81586 17.5616 5.04495 17.2622 5.24221 16.9419C5.26785 16.9002 5.36927 16.743 5.52711 16.5036C5.12141 15.8887 4.67697 15.2093 4.40574 14.7939L4.0217 14.2156Z" fill="#1C2D5E"/>
<path d="M8.98002 10.1662L8.99027 10.1822L9.40224 10.8011C10.2985 9.44565 11.0643 8.28108 11.2826 7.9285C11.444 7.6678 11.6212 7.41724 11.8131 7.17822C11.9713 6.97682 12.1471 6.78998 12.3384 6.61993C12.4982 6.49028 12.6644 6.36879 12.8364 6.25593C12.8932 6.21509 12.9394 6.16119 12.9711 6.09875C13.0029 6.03631 13.0192 5.96715 13.0188 5.89708C13.0224 5.86071 13.0187 5.82398 13.0078 5.78912C12.9968 5.75426 12.9789 5.722 12.9551 5.6943C12.9314 5.6666 12.9022 5.64405 12.8695 5.62803C12.8367 5.612 12.801 5.60283 12.7646 5.60108H10.3635C9.99483 5.60061 9.63279 5.69928 9.31506 5.88679C9.00038 6.07176 8.71371 6.30094 8.46378 6.56736C8.20618 6.84203 7.97708 7.14224 7.78002 7.46336C7.75438 7.50508 7.65295 7.66222 7.49512 7.90165C7.89398 8.51536 8.3407 9.19593 8.6125 9.61079L8.98002 10.1662Z" fill="#1C2D5E"/>
</g>
<defs>
<clipPath id="clip0_1280:380">
<rect width="66.6667" height="24" fill="white"/>
</clipPath>
</defs>
</svg>
