<svg width="114" height="100" viewBox="0 0 114 100" fill="none" xmlns="http://www.w3.org/2000/svg">
<path opacity="0.24" d="M48.6816 3.21492C43.1096 3.55692 37.4596 4.31491 32.3816 6.64592C27.8891 8.86249 23.8468 11.8931 20.4596 15.5839C17.1511 18.7749 14.5097 22.5915 12.6886 26.8119C11.3506 30.2809 10.8766 34.0339 9.61758 37.5439C7.32658 43.9069 2.50258 49.2579 1.08958 55.8709C0.623367 58.2336 0.502106 60.6514 0.729576 63.0489C1.36834 69.9093 3.87498 76.4635 7.97714 81.9993C12.0793 87.5352 17.6201 91.841 23.9976 94.4489C29.9376 96.6079 36.2187 97.6768 42.5386 97.6039C50.3563 97.5398 58.1617 96.9689 65.9056 95.8949C79.0296 94.3589 92.5456 92.7049 104.064 86.2309C105.767 85.3448 107.322 84.1976 108.671 82.8309C110.439 80.7776 111.685 78.3269 112.302 75.6879C113.998 69.3888 113.691 62.7177 111.424 56.6009C109.803 52.2659 107.19 48.1759 106.859 43.5609C106.508 38.6659 108.776 34.0199 110.069 29.2849C111.192 25.1689 111.348 20.6609 108.669 17.0189C106.758 14.4189 103.099 12.5919 100.24 11.4659C89.7356 7.32503 78.7065 4.6662 67.4696 3.56591C61.225 2.95336 54.9418 2.83466 48.6786 3.21092L48.6816 3.21492Z" fill="#EF170E"/>
<path d="M56.6182 100C84.2324 100 106.618 77.6142 106.618 50C106.618 22.3858 84.2324 0 56.6182 0C29.0039 0 6.61816 22.3858 6.61816 50C6.61816 77.6142 29.0039 100 56.6182 100Z" fill="#EF170E"/>
<path d="M68.1422 49.2561H46.5792C46.19 49.2548 45.8043 49.3304 45.4444 49.4787C45.0846 49.6271 44.7576 49.8451 44.4824 50.1203C44.2072 50.3956 43.9891 50.7225 43.8408 51.0824C43.6925 51.4423 43.6168 51.8279 43.6182 52.2172V65.351C43.6182 66.1363 43.9302 66.8895 44.4855 67.4448C45.0408 68.0001 45.7939 68.312 46.5792 68.312H68.1422C68.9275 68.312 69.6807 68.0001 70.236 67.4448C70.7913 66.8895 71.1033 66.1363 71.1033 65.351V52.2172C71.1046 51.8279 71.029 51.4423 70.8807 51.0824C70.7323 50.7225 70.5143 50.3956 70.239 50.1203C69.9638 49.8451 69.6368 49.6271 69.277 49.4787C68.9171 49.3304 68.5315 49.2548 68.1422 49.2561ZM59.3416 63.8756H55.3798L56.2052 58.5004C55.6739 58.2394 55.2467 57.8062 54.993 57.2714C54.7393 56.7366 54.6742 56.1317 54.8082 55.5551C54.9421 54.9786 55.2674 54.4644 55.7309 54.0963C56.1943 53.7281 56.7688 53.5277 57.3607 53.5277C57.9526 53.5277 58.5271 53.7281 58.9906 54.0963C59.4541 54.4644 59.7793 54.9786 59.9133 55.5551C60.0473 56.1317 59.9821 56.7366 59.7284 57.2714C59.4748 57.8062 59.0475 58.2394 58.5163 58.5004L59.3416 63.8756Z" fill="white"/>
<path d="M51.0969 47.1512L50.6945 45.0878C50.3484 43.3598 50.7028 41.5651 51.6799 40.0985C52.657 38.6319 54.1767 37.6135 55.9047 37.2673C57.6327 36.9212 59.4274 37.2757 60.894 38.2528C62.3606 39.2299 63.379 40.7496 63.7252 42.4775L64.1275 44.4894L67.9346 43.7259L67.5219 41.6625C67.2744 40.2852 66.7548 38.9711 65.9933 37.7971C65.2318 36.623 64.2439 35.6127 63.0872 34.8251C61.9306 34.0375 60.6284 33.4885 59.257 33.2102C57.8856 32.9319 56.4725 32.9299 55.1004 33.2044C53.7282 33.4788 52.4245 34.0241 51.2657 34.8085C50.1068 35.5928 49.116 36.6004 48.3512 37.7723C47.5865 38.9441 47.0631 40.2568 46.8118 41.6334C46.5604 43.0099 46.5861 44.4228 46.8874 45.7894L47.2898 47.8528L51.0969 47.1512Z" fill="white"/>
</svg>
