<svg width="114" height="100" viewBox="0 0 114 100" fill="none" xmlns="http://www.w3.org/2000/svg">
<path opacity="0.24" d="M48.6816 3.21492C43.1096 3.55692 37.4596 4.31491 32.3816 6.64592C27.8891 8.86249 23.8468 11.8931 20.4596 15.5839C17.1511 18.7749 14.5097 22.5915 12.6886 26.8119C11.3506 30.2809 10.8766 34.0339 9.61758 37.5439C7.32658 43.9069 2.50258 49.2579 1.08958 55.8709C0.623367 58.2336 0.502106 60.6514 0.729576 63.0489C1.36834 69.9093 3.87498 76.4635 7.97714 81.9993C12.0793 87.5352 17.6201 91.841 23.9976 94.4489C29.9376 96.6079 36.2187 97.6768 42.5386 97.6039C50.3563 97.5398 58.1617 96.9689 65.9056 95.8949C79.0296 94.3589 92.5456 92.7049 104.064 86.2309C105.767 85.3448 107.322 84.1976 108.671 82.8309C110.439 80.7776 111.685 78.3269 112.302 75.6879C113.998 69.3888 113.691 62.7177 111.424 56.6009C109.803 52.2659 107.19 48.1759 106.859 43.5609C106.508 38.6659 108.776 34.0199 110.069 29.2849C111.192 25.1689 111.348 20.6609 108.669 17.0189C106.758 14.4189 103.099 12.5919 100.24 11.4659C89.7356 7.32503 78.7065 4.6662 67.4696 3.56591C61.225 2.95336 54.9418 2.83466 48.6786 3.21092L48.6816 3.21492Z" fill="#EF170E"/>
<path d="M57 100C84.6142 100 107 77.6142 107 50C107 22.3858 84.6142 0 57 0C29.3858 0 7 22.3858 7 50C7 77.6142 29.3858 100 57 100Z" fill="#EF170E"/>
<path d="M70.4211 59.3333V60.8889C70.4211 62.6 69 64 67.2632 64H45.1579C44.3204 64 43.5171 63.6722 42.9249 63.0888C42.3327 62.5053 42 61.714 42 60.8889V39.1111C42 38.286 42.3327 37.4947 42.9249 36.9112C43.5171 36.3278 44.3204 36 45.1579 36H67.2632C69 36 70.4211 37.4 70.4211 39.1111V40.6667H56.2105C55.373 40.6667 54.5698 40.9944 53.9776 41.5779C53.3853 42.1613 53.0526 42.9527 53.0526 43.7778V56.2222C53.0526 57.0473 53.3853 57.8387 53.9776 58.4221C54.5698 59.0056 55.373 59.3333 56.2105 59.3333H70.4211ZM56.2105 56.2222H72V43.7778H56.2105V56.2222ZM62.5263 52.3333C61.2158 52.3333 60.1579 51.2911 60.1579 50C60.1579 48.7089 61.2158 47.6667 62.5263 47.6667C63.8368 47.6667 64.8947 48.7089 64.8947 50C64.8947 51.2911 63.8368 52.3333 62.5263 52.3333Z" fill="white"/>
</svg>
