<svg width="114" height="100" viewBox="0 0 114 100" fill="none" xmlns="http://www.w3.org/2000/svg">
<path opacity="0.24" d="M48.6816 3.21492C43.1096 3.55692 37.4596 4.31491 32.3816 6.64592C27.8891 8.86249 23.8468 11.8931 20.4596 15.5839C17.1511 18.7749 14.5097 22.5915 12.6886 26.8119C11.3506 30.2809 10.8766 34.0339 9.61758 37.5439C7.32658 43.9069 2.50258 49.2579 1.08958 55.8709C0.623367 58.2336 0.502106 60.6514 0.729576 63.0489C1.36834 69.9093 3.87498 76.4635 7.97714 81.9993C12.0793 87.5352 17.6201 91.841 23.9976 94.4489C29.9376 96.6079 36.2187 97.6768 42.5386 97.6039C50.3563 97.5398 58.1617 96.9689 65.9056 95.8949C79.0296 94.3589 92.5456 92.7049 104.064 86.2309C105.767 85.3448 107.322 84.1976 108.671 82.8309C110.439 80.7776 111.685 78.3269 112.302 75.6879C113.998 69.3888 113.691 62.7177 111.424 56.6009C109.803 52.2659 107.19 48.1759 106.859 43.5609C106.508 38.6659 108.776 34.0199 110.069 29.2849C111.192 25.1689 111.348 20.6609 108.669 17.0189C106.758 14.4189 103.099 12.5919 100.24 11.4659C89.7356 7.32503 78.7065 4.6662 67.4696 3.56591C61.225 2.95336 54.9418 2.83466 48.6786 3.21092L48.6816 3.21492Z" fill="#EF170E"/>
<path d="M57 100C84.6142 100 107 77.6142 107 50C107 22.3858 84.6142 0 57 0C29.3858 0 7 22.3858 7 50C7 77.6142 29.3858 100 57 100Z" fill="#EF170E"/>
<path d="M54.1797 45.3522C54.4583 45.1664 54.8025 45.0004 55.1996 44.8719L55.1996 47.9283C54.8025 47.7998 54.4583 47.6337 54.1797 47.448C53.5243 47.0111 53.3996 46.6051 53.3996 46.4001C53.3996 46.1951 53.5243 45.7891 54.1797 45.3522Z" fill="white"/>
<path d="M58.7996 55.1283L58.7996 52.0719C59.1967 52.2004 59.5409 52.3665 59.8195 52.5522C60.475 52.9891 60.5996 53.3951 60.5996 53.6001C60.5996 53.8051 60.475 54.2111 59.8196 54.648C59.5409 54.8337 59.1967 54.9998 58.7996 55.1283Z" fill="white"/>
<path fill-rule="evenodd" clip-rule="evenodd" d="M56.9996 64.4001C64.9525 64.4001 71.3996 57.953 71.3996 50.0001C71.3996 42.0472 64.9525 35.6001 56.9996 35.6001C49.0467 35.6001 42.5996 42.0472 42.5996 50.0001C42.5996 57.953 49.0467 64.4001 56.9996 64.4001ZM58.7996 41.0001C58.7996 40.006 57.9937 39.2001 56.9996 39.2001C56.0055 39.2001 55.1996 40.006 55.1996 41.0001V41.1657C54.0807 41.3758 53.0459 41.7814 52.1828 42.3568C50.8838 43.2228 49.7996 44.6169 49.7996 46.4001C49.7996 48.1833 50.8838 49.5774 52.1828 50.4434C53.0459 51.0188 54.0807 51.4244 55.1996 51.6345L55.1996 55.1287C54.4958 54.9002 53.9741 54.5575 53.6816 54.2204C53.0301 53.4696 51.8932 53.389 51.1424 54.0406C50.3915 54.6921 50.311 55.8289 50.9625 56.5798C51.975 57.7466 53.5068 58.5156 55.1996 58.8338L55.1996 59.0001C55.1996 59.9942 56.0055 60.8001 56.9996 60.8001C57.9937 60.8001 58.7996 59.9942 58.7996 59.0001L58.7996 58.8345C59.9185 58.6244 60.9534 58.2188 61.8165 57.6434C63.1155 56.7774 64.1996 55.3833 64.1996 53.6001C64.1996 51.8169 63.1155 50.4228 61.8165 49.5568C60.9534 48.9814 59.9185 48.5758 58.7996 48.3657L58.7996 44.8714C59.5034 45.1 60.0251 45.4427 60.3176 45.7798C60.9692 46.5306 62.106 46.6112 62.8569 45.9596C63.6077 45.3081 63.6882 44.1713 63.0367 43.4204C62.0242 42.2536 60.4924 41.4846 58.7996 41.1663V41.0001Z" fill="white"/>
</svg>
