<svg width="114" height="100" viewBox="0 0 114 100" fill="none" xmlns="http://www.w3.org/2000/svg">
<g clip-path="url(#clip0)">
<path opacity="0.24" d="M48.6806 3.21501C43.1086 3.55701 37.4586 4.31501 32.3806 6.64601C27.8882 8.86259 23.8458 11.8932 20.4586 15.584C17.1502 18.775 14.5087 22.5916 12.6876 26.812C11.3496 30.281 10.8756 34.034 9.6166 37.544C7.3256 43.907 2.5016 49.258 1.0886 55.871C0.62239 58.2337 0.50113 60.6515 0.7286 63.049C1.36737 69.9094 3.874 76.4636 7.97617 81.9994C12.0783 87.5353 17.6191 91.8411 23.9966 94.449C29.9367 96.608 36.2177 97.6768 42.5376 97.604C50.3553 97.5399 58.1607 96.969 65.9046 95.895C79.0286 94.359 92.5446 92.705 104.063 86.231C105.766 85.3449 107.321 84.1976 108.67 82.831C110.438 80.7777 111.684 78.327 112.301 75.688C113.997 69.3889 113.69 62.7178 111.423 56.601C109.802 52.266 107.189 48.176 106.858 43.561C106.507 38.666 108.775 34.02 110.068 29.285C111.191 25.169 111.347 20.661 108.668 17.019C106.757 14.419 103.098 12.592 100.239 11.466C89.7347 7.32512 78.7055 4.66629 67.4686 3.56601C61.224 2.95345 54.9409 2.83475 48.6776 3.21101L48.6806 3.21501Z" fill="#EF170E"/>
<path d="M56.5146 100C84.1289 100 106.515 77.6142 106.515 50C106.515 22.3858 84.1289 0 56.5146 0C28.9004 0 6.51465 22.3858 6.51465 50C6.51465 77.6142 28.9004 100 56.5146 100Z" fill="#EF170E"/>
<g clip-path="url(#clip1)">
<path d="M59.7027 50.5L66.939 43.2637C67.2825 42.9209 67.4756 42.4557 67.4761 41.9704C67.4765 41.4851 67.2841 41.0196 66.9413 40.6761C66.5985 40.3327 66.1333 40.1395 65.648 40.1391C65.1627 40.1387 64.6972 40.331 64.3538 40.6739L57.1174 47.9102L49.8811 40.6739C49.5377 40.3304 49.0719 40.1375 48.5862 40.1375C48.1005 40.1375 47.6347 40.3304 47.2913 40.6739C46.9478 41.0173 46.7549 41.4831 46.7549 41.9688C46.7549 42.4545 46.9478 42.9203 47.2913 43.2637L54.5276 50.5L47.2913 57.7364C46.9478 58.0798 46.7549 58.5456 46.7549 59.0313C46.7549 59.517 46.9478 59.9828 47.2913 60.3262C47.6347 60.6696 48.1005 60.8626 48.5862 60.8626C49.0719 60.8626 49.5377 60.6696 49.8811 60.3262L57.1174 53.0899L64.3538 60.3262C64.6972 60.6696 65.163 60.8626 65.6487 60.8626C66.1344 60.8626 66.6002 60.6696 66.9436 60.3262C67.287 59.9828 67.48 59.517 67.48 59.0313C67.48 58.5456 67.287 58.0798 66.9436 57.7364L59.7027 50.5Z" fill="white"/>
</g>
</g>
<defs>
<clipPath id="clip0">
<rect width="112.765" height="100" fill="white" transform="translate(0.617188)"/>
</clipPath>
<clipPath id="clip1">
<rect width="38" height="38" fill="white" transform="translate(36.6172 29)"/>
</clipPath>
</defs>
</svg>
