<svg xmlns="http://www.w3.org/2000/svg" width="112.765" height="100" viewBox="0 0 112.765 100"><defs><style>.a,.b{fill:#21dd62;}.a{opacity:0.24;isolation:isolate;}.c{fill:none;stroke:#fff;stroke-linecap:round;stroke-linejoin:round;stroke-width:3px;}</style></defs><g transform="translate(-124.103 -155)"><path class="a" d="M54.035,17.757c-5.572.342-11.222,1.1-16.3,3.431a40.511,40.511,0,0,0-11.922,8.938,34.7,34.7,0,0,0-7.771,11.228c-1.338,3.469-1.812,7.222-3.071,10.732C12.68,58.449,7.856,63.8,6.443,70.413a24.92,24.92,0,0,0-.36,7.178,37.7,37.7,0,0,0,23.268,31.4,52.505,52.505,0,0,0,18.541,3.155,180.9,180.9,0,0,0,23.367-1.709c13.124-1.536,26.64-3.19,38.158-9.664a18.412,18.412,0,0,0,4.607-3.4,16.8,16.8,0,0,0,3.631-7.143,31.412,31.412,0,0,0-.878-19.087c-1.621-4.335-4.234-8.425-4.565-13.04-.351-4.895,1.917-9.541,3.21-14.276,1.123-4.116,1.279-8.624-1.4-12.266-1.911-2.6-5.57-4.427-8.429-5.553a121.685,121.685,0,0,0-32.77-7.9,119.239,119.239,0,0,0-18.791-.355Z" transform="translate(118.131 140.458)"/><circle class="b" cx="50" cy="50" r="50" transform="translate(130 155)"/><path class="c" d="M2737.1,218.962l12.789,12.26,29.211-28" transform="translate(-2578.103 -12.222)"/></g></svg>