<svg width="37" height="37" viewBox="0 0 37 37" fill="none" xmlns="http://www.w3.org/2000/svg">
<path d="M36.5 18.3828C36.5 28.3239 28.4411 36.3828 18.5 36.3828C8.55888 36.3828 0.5 28.3239 0.5 18.3828C0.5 8.44169 8.55888 0.382812 18.5 0.382812C28.4411 0.382812 36.5 8.44169 36.5 18.3828Z" fill="#F9E7E7"/>
<path d="M19.4943 19.2894L19.3059 18.3073L19.4943 19.2894ZM13.8231 14.9565C13.5876 15.4561 13.8018 16.052 14.3014 16.2874C14.8009 16.5228 15.3968 16.3087 15.6322 15.8091L13.8231 14.9565ZM17.5001 20.3828C17.5001 20.9351 17.9478 21.3828 18.5001 21.3828C19.0523 21.3828 19.5001 20.9351 19.5001 20.3828H17.5001ZM18.5 22.3828C17.9477 22.3828 17.5 22.8305 17.5 23.3828C17.5 23.9351 17.9477 24.3828 18.5 24.3828V22.3828ZM18.51 24.3828C19.0623 24.3828 19.51 23.9351 19.51 23.3828C19.51 22.8305 19.0623 22.3828 18.51 22.3828V24.3828ZM26.5 18.3828C26.5 22.8011 22.9183 26.3828 18.5 26.3828V28.3828C24.0228 28.3828 28.5 23.9057 28.5 18.3828H26.5ZM18.5 26.3828C14.0817 26.3828 10.5 22.8011 10.5 18.3828H8.5C8.5 23.9057 12.9772 28.3828 18.5 28.3828V26.3828ZM10.5 18.3828C10.5 13.9645 14.0817 10.3828 18.5 10.3828V8.38281C12.9772 8.38281 8.5 12.86 8.5 18.3828H10.5ZM18.5 10.3828C22.9183 10.3828 26.5 13.9645 26.5 18.3828H28.5C28.5 12.86 24.0228 8.38281 18.5 8.38281V10.3828ZM21.5001 16.3828C21.5001 17.1123 20.7788 18.0248 19.3059 18.3073L19.6827 20.2715C21.666 19.891 23.5001 18.4522 23.5001 16.3828H21.5001ZM18.5001 14.3828C19.4092 14.3828 20.1937 14.6604 20.7285 15.0615C21.2629 15.4623 21.5001 15.9397 21.5001 16.3828H23.5001C23.5001 15.1691 22.8418 14.1465 21.9285 13.4615C21.0155 12.7768 19.8001 12.3828 18.5001 12.3828V14.3828ZM15.6322 15.8091C15.9716 15.089 17.0283 14.3828 18.5001 14.3828V12.3828C16.4885 12.3828 14.582 13.3462 13.8231 14.9565L15.6322 15.8091ZM19.3059 18.3073C18.4097 18.4792 17.5001 19.2407 17.5001 20.3828H19.5001C19.5001 20.3823 19.5001 20.3827 19.4999 20.3836C19.4997 20.3844 19.4997 20.3843 19.5002 20.3829C19.5014 20.3802 19.5064 20.3699 19.5206 20.3548C19.5522 20.3214 19.61 20.2854 19.6827 20.2715L19.3059 18.3073ZM18.5 24.3828H18.51V22.3828H18.5V24.3828Z" fill="#FF5C8A"/>
</svg>
