<svg width="22" height="23" viewBox="0 0 22 23" fill="none" xmlns="http://www.w3.org/2000/svg">
<path fill-rule="evenodd" clip-rule="evenodd" d="M11.0386 2.66751C15.9005 2.66751 19.8421 6.58474 19.8421 11.4182C19.8421 16.2517 15.9005 20.1689 11.0386 20.1689C9.56084 20.1712 8.10657 19.8015 6.81123 19.0945L6.2004 18.761L2.91847 19.6429L3.8133 16.4687L3.4411 15.8391C2.64983 14.4988 2.23384 12.9723 2.23631 11.4182C2.23631 6.58474 6.17663 2.66751 11.0386 2.66751ZM5.9808 20.6021C7.53064 21.448 9.27055 21.8903 11.0386 21.8879C16.855 21.8879 21.5713 17.2006 21.5713 11.4182C21.5713 5.63583 16.855 0.948486 11.0386 0.948486C5.22213 0.948486 0.507159 5.63583 0.507159 11.4182C0.504468 13.2782 1.00255 15.1049 1.94971 16.7089L0.432373 22.0925L5.9808 20.6021Z" fill="white"/>
<path fill-rule="evenodd" clip-rule="evenodd" d="M19.8422 11.4182C19.8422 6.58471 15.9006 2.66748 11.0386 2.66748C6.17665 2.66748 2.23634 6.58471 2.23634 11.4182C2.23386 12.9723 2.64985 14.4987 3.44113 15.8391L3.81333 16.4695L2.91849 19.6428L6.20043 18.761L6.81125 19.0945C8.10659 19.8015 9.56087 20.1711 11.0386 20.1689C15.9006 20.1689 19.8422 16.2516 19.8422 11.4182ZM8.52744 10.9717C8.92342 11.6537 9.61465 12.4199 10.2536 12.912C11.0256 13.5059 12.2365 14.2872 12.6312 13.9404C12.817 13.7771 13.328 13.0409 13.3963 12.9885C13.4646 12.9361 13.6911 12.5587 14.2267 12.8166C14.7623 13.0745 16.0977 13.7337 16.0977 13.7337C16.0977 13.7337 16.3869 13.8497 16.3748 14.3005C16.3627 14.7514 16.3428 14.867 16.3428 14.867C16.3428 14.867 16.1487 16.4141 14.0262 16.4743C13.0652 16.5022 11.9512 16.1128 10.9668 15.6147C9.28395 14.7617 8.23305 13.8188 7.1091 12.3525C6.34611 11.3567 5.58355 10.0485 5.71843 8.88562C5.95229 6.86792 7.24268 6.68226 7.24268 6.68226C7.24268 6.68226 7.35983 6.66808 7.8133 6.67753C8.26677 6.68699 8.36965 6.97836 8.36965 6.97836C8.36965 6.97836 8.99647 8.40086 9.23034 8.94493C9.46421 9.489 9.21175 9.72579 9.15555 9.79112C9.09936 9.85644 8.7626 10.2514 8.58969 10.428C8.41677 10.6046 8.46 10.8496 8.52874 10.9717H8.52744Z" fill="#00BB2D"/>
<path fill-rule="evenodd" clip-rule="evenodd" d="M9.22855 8.94485C8.99511 8.40078 8.36829 6.97829 8.36829 6.97829C8.36829 6.97829 8.26541 6.68519 7.81194 6.67746C7.35846 6.66972 7.24131 6.68219 7.24131 6.68219C7.24131 6.68219 5.9505 6.86784 5.71663 8.88554C5.58219 10.0485 6.34431 11.3566 7.10774 12.3524C8.23169 13.8187 9.28258 14.7616 10.9655 15.6147C11.9515 16.1145 13.0638 16.5038 14.0248 16.4742C16.1473 16.4127 16.3414 14.8669 16.3414 14.8669C16.3414 14.8669 16.3609 14.7513 16.3734 14.3005C16.386 13.8497 16.0963 13.7336 16.0963 13.7336C16.0963 13.7336 14.7605 13.0748 14.2249 12.8165C13.6893 12.5582 13.4628 12.9351 13.3949 12.9884C13.3271 13.0417 12.8152 13.7775 12.6298 13.9408C12.2364 14.2871 11.0251 13.5063 10.2522 12.9124C9.61328 12.4203 8.92205 11.654 8.52608 10.972C8.45475 10.85 8.41368 10.605 8.5866 10.4279C8.75951 10.2509 9.0967 9.85636 9.15246 9.79147C9.20823 9.72658 9.46155 9.49064 9.22725 8.94528L9.22855 8.94485Z" fill="white"/>
<path d="M18.7912 3.71105C16.9556 1.88651 14.5283 0.768544 11.9414 0.556071C9.35444 0.343598 6.77556 1.0504 4.66359 2.55071C4.57261 2.61789 4.5118 2.71791 4.49426 2.82923C4.47673 2.94054 4.50387 3.05426 4.56984 3.14587C4.63581 3.23749 4.73534 3.29969 4.84699 3.31907C4.95864 3.33845 5.07348 3.31346 5.16678 3.24949C6.87782 2.02825 8.93221 1.37358 11.0386 1.37833C16.6073 1.37833 21.139 5.88218 21.139 11.4183C21.139 16.9544 16.6073 21.4583 11.0386 21.4583C9.34292 21.4585 7.6745 21.0344 6.18698 20.2253C6.08899 20.1719 5.97404 20.1584 5.86622 20.1875L1.05398 21.4802L2.36598 16.8251C2.38163 16.7695 2.38587 16.7114 2.37844 16.6542C2.37102 16.5969 2.35207 16.5418 2.32275 16.492C1.33819 14.8193 0.861385 12.8992 0.949823 10.9632C1.03826 9.02722 1.68817 7.15798 2.82118 5.58092C2.85541 5.5351 2.88011 5.48297 2.89386 5.42756C2.9076 5.37215 2.9101 5.31457 2.90122 5.25819C2.89234 5.2018 2.87225 5.14774 2.84212 5.09916C2.812 5.05058 2.77245 5.00845 2.72577 4.97523C2.67909 4.94201 2.62622 4.91837 2.57025 4.90568C2.51428 4.89299 2.45633 4.89151 2.39978 4.90133C2.34323 4.91114 2.28921 4.93206 2.24088 4.96285C2.19255 4.99365 2.15087 5.0337 2.11828 5.08068C0.906288 6.7673 0.202962 8.7624 0.0907207 10.8322C-0.0215206 12.902 0.461973 14.9607 1.48454 16.767L0.0160551 21.9765C-0.00196366 22.0404 -0.00486037 22.1076 0.00759186 22.1728C0.0200441 22.2379 0.0475071 22.2994 0.0878296 22.3522C0.128152 22.4051 0.180239 22.448 0.24001 22.4775C0.299781 22.507 0.365613 22.5223 0.432349 22.5223C0.470471 22.5224 0.508429 22.5174 0.545177 22.5073L5.92545 21.0612C8.24643 22.2764 10.9287 22.6241 13.4856 22.0413C16.0424 21.4584 18.3044 19.9837 19.8609 17.8846C21.4175 15.7855 22.1655 13.2012 21.9692 10.6007C21.773 8.00013 20.6454 5.55573 18.7912 3.71105Z" fill="#606C8E"/>
<path d="M18.1246 16.6277C18.1719 16.6591 18.2248 16.6808 18.2805 16.6918C18.3362 16.7028 18.3935 16.7027 18.4492 16.6917C18.5049 16.6806 18.5578 16.6588 18.605 16.6274C18.6522 16.596 18.6927 16.5556 18.7242 16.5087C19.6381 15.1448 20.1682 13.5626 20.2593 11.9264C20.3504 10.2901 19.9993 8.65942 19.2425 7.2036C18.4856 5.74779 17.3505 4.51992 15.9551 3.64749C14.5597 2.77506 12.9548 2.28986 11.307 2.24228C9.65929 2.19469 8.02877 2.58645 6.58476 3.37688C5.14075 4.16731 3.93589 5.3276 3.09527 6.73728C2.25466 8.14696 1.80892 9.75464 1.80436 11.3934C1.79979 13.0322 2.23655 14.6423 3.0693 16.0566L3.34812 16.5293L2.50214 19.5277C2.48144 19.6009 2.48062 19.6782 2.49977 19.7517C2.51891 19.8253 2.55733 19.8925 2.61112 19.9465C2.6649 20.0005 2.73212 20.0393 2.80592 20.0591C2.87973 20.0788 2.95748 20.0788 3.03126 20.0589L6.14374 19.2222L6.60283 19.471C8.08214 20.2753 9.75457 20.6619 11.4391 20.5891C13.1235 20.5163 14.7559 19.9868 16.1594 19.058C16.2067 19.0266 16.2472 18.9864 16.2788 18.9394C16.3104 18.8925 16.3323 18.8398 16.3434 18.7845C16.3545 18.7291 16.3545 18.6721 16.3435 18.6167C16.3324 18.5613 16.3105 18.5087 16.279 18.4617C16.2474 18.4148 16.2069 18.3744 16.1597 18.3431C16.1125 18.3117 16.0595 18.2898 16.0038 18.2788C15.9481 18.2678 15.8908 18.2677 15.8351 18.2787C15.7794 18.2897 15.7264 18.3115 15.6792 18.3429C14.4073 19.1845 12.9281 19.6644 11.4017 19.7304C9.87527 19.7965 8.35974 19.4462 7.01912 18.7176L6.4083 18.3841C6.31031 18.3308 6.19536 18.3173 6.08754 18.3463L3.53963 19.0318L4.23129 16.5852C4.247 16.5296 4.25127 16.4714 4.24385 16.4141C4.23642 16.3568 4.21745 16.3015 4.18806 16.2517L3.81586 15.6217C3.06518 14.3466 2.6699 12.8956 2.67073 11.4182C2.66857 6.82972 6.42343 3.09729 11.0385 3.09729C15.6537 3.09729 19.4098 6.82972 19.4098 11.4182C19.4122 13.0609 18.9232 14.6673 18.0049 16.0329C17.9734 16.0799 17.9515 16.1326 17.9404 16.1879C17.9294 16.2433 17.9294 16.3003 17.9406 16.3556C17.9517 16.411 17.9737 16.4636 18.0052 16.5105C18.0368 16.5574 18.0774 16.5977 18.1246 16.629V16.6277Z" fill="#606C8E"/>
<path d="M9.45899 10.0979L9.48752 10.0648C9.87442 9.63506 9.77672 9.12537 9.62629 8.77555C9.40452 8.25984 8.82353 6.93963 8.76863 6.815C8.68217 6.60012 8.39643 6.25632 7.82062 6.246C7.3719 6.23698 7.22449 6.24944 7.18991 6.25374H7.17953C7.11339 6.26319 5.55629 6.51159 5.2874 8.83227C5.16377 9.89893 5.6609 11.1693 6.7641 12.6085C7.98575 14.2025 9.1084 15.1514 10.7693 15.9929C11.5962 16.4123 12.804 16.9031 13.9284 16.9031C13.9647 16.9031 14.0015 16.9031 14.0374 16.9031C15.3005 16.8666 15.9749 16.3444 16.3181 15.9147C16.5504 15.6285 16.7058 15.2884 16.7699 14.9262C16.7768 14.8764 16.7945 14.7199 16.8057 14.3112C16.8213 13.7392 16.4915 13.4384 16.2792 13.343C16.159 13.2837 14.9214 12.6739 14.4139 12.4293C14.0711 12.2639 13.5675 12.1693 13.114 12.6584L13.1075 12.6657C13.0461 12.719 12.9856 12.7985 12.8014 13.0435C12.6878 13.1964 12.4612 13.4973 12.3635 13.5974C12.1599 13.6116 11.4804 13.3138 10.5164 12.572C9.909 12.1044 9.26057 11.3764 8.90177 10.7597C8.89793 10.7491 8.89631 10.7379 8.89702 10.7266C9.04572 10.5749 9.28608 10.2969 9.45899 10.0979ZM9.98898 13.2515C10.2769 13.4736 10.8419 13.8866 11.3879 14.1621C11.6472 14.291 12.4318 14.6886 12.9164 14.2622C13.05 14.1445 13.2398 13.8965 13.4935 13.5592C13.5666 13.462 13.6565 13.3443 13.6915 13.3013C13.714 13.2807 13.7326 13.2609 13.7499 13.2424C13.8277 13.1565 13.8632 13.1199 14.0365 13.2038C14.5574 13.4547 15.8564 14.0955 15.9031 14.1183C15.9191 14.1342 15.9442 14.1862 15.9412 14.2902C15.9317 14.6464 15.9178 14.7749 15.9148 14.7994C15.9145 14.8039 15.9145 14.8083 15.9148 14.8128C15.8674 15.0347 15.7652 15.2415 15.6174 15.4144C15.2811 15.8137 14.742 16.0268 14.0145 16.0474C13.0418 16.0762 11.9278 15.6203 11.1639 15.2331C9.6077 14.4427 8.60263 13.5914 7.45144 12.0907C6.5017 10.8517 6.05212 9.7584 6.14636 8.93327C6.32663 7.37755 7.18386 7.13302 7.29928 7.10723C7.33991 7.10465 7.47695 7.09907 7.80289 7.10723C7.90664 7.10723 7.95765 7.13689 7.97278 7.15365C7.9944 7.20221 8.60392 8.58602 8.83131 9.11548C8.945 9.37978 8.87454 9.45929 8.84168 9.49496L8.82569 9.51301L8.80105 9.5418C8.55118 9.83275 8.37524 10.0309 8.27841 10.1297C7.95938 10.4555 7.98964 10.9067 8.15305 11.1882C8.56891 11.9042 9.28953 12.7151 9.98898 13.2515Z" fill="#606C8E"/>
<path d="M3.59196 4.44447C3.6624 4.44482 3.73187 4.42805 3.79431 4.39563C3.85675 4.3632 3.91027 4.31609 3.95021 4.25841C3.99016 4.20072 4.01532 4.1342 4.0235 4.06465C4.03169 3.99509 4.02265 3.92459 3.99717 3.8593C3.9717 3.79401 3.93055 3.73589 3.87733 3.69001C3.8241 3.64414 3.76041 3.61188 3.69178 3.59607C3.62315 3.58025 3.55168 3.58134 3.48358 3.59926C3.41547 3.61717 3.35281 3.65135 3.30103 3.69884C3.23661 3.75723 3.19144 3.83361 3.17147 3.91797C3.1515 4.00233 3.15765 4.09072 3.18911 4.17154C3.22057 4.25236 3.27588 4.32184 3.34777 4.37085C3.41966 4.41986 3.50478 4.44613 3.59196 4.44619V4.44447Z" fill="#606C8E"/>
<path d="M16.9428 17.3166C16.8853 17.3795 16.8479 17.458 16.8353 17.542C16.8227 17.6261 16.8354 17.712 16.8719 17.7888C16.9084 17.8657 16.967 17.9301 17.0403 17.9738C17.1136 18.0176 17.1982 18.0388 17.2836 18.0347C17.369 18.0306 17.4513 18.0014 17.52 17.9509C17.5887 17.9003 17.6408 17.8306 17.6697 17.7507C17.6986 17.6707 17.703 17.584 17.6823 17.5015C17.6616 17.419 17.6168 17.3445 17.5536 17.2874C17.5115 17.2494 17.4624 17.22 17.409 17.2009C17.3555 17.1819 17.2988 17.1734 17.2421 17.1762C17.1854 17.1789 17.1297 17.1927 17.0784 17.2168C17.027 17.2409 16.9809 17.2748 16.9428 17.3166Z" fill="#606C8E"/>
</svg>
