<svg width="45" height="41" viewBox="0 0 45 41" fill="none" xmlns="http://www.w3.org/2000/svg">
<g clip-path="url(#clip0_10661_62757)">
<path d="M40.2548 20.7318C40.2548 31.7193 31.3479 40.6265 20.3604 40.6265C9.37289 40.6265 0.46582 31.7193 0.46582 20.7318C0.46582 9.74435 9.37289 0.83728 20.3604 0.83728C31.3478 0.83728 40.2548 9.74435 40.2548 20.7318Z" fill="#EDF0F4"/>
<path fill-rule="evenodd" clip-rule="evenodd" d="M21.699 10.8831C21.9662 10.3755 21.3523 9.76098 20.8493 10.0259C20.4402 10.1906 20.3363 10.7888 20.6548 11.0915C20.9553 11.4069 21.5438 11.2969 21.699 10.8831ZM16.1006 11.107C16.1317 10.7707 15.7449 10.4879 15.4394 10.615C15.0141 10.7294 14.9669 11.406 15.3795 11.5674C15.6909 11.741 16.133 11.4722 16.1006 11.107ZM26.5195 11.5777C26.042 11.5194 25.9664 10.7611 26.4261 10.6084C26.7826 10.4328 27.1098 10.7622 27.1619 11.1035C27.0871 11.395 26.8455 11.6619 26.5195 11.5777ZM17.8314 13.6997C17.91 13.1004 17.1811 12.6143 16.6703 12.9407C16.1919 13.1878 16.1262 13.925 16.5602 14.2463C17.0092 14.6554 17.8049 14.3048 17.8314 13.6997ZM24.4679 13.287C24.6958 12.6937 25.6192 12.6758 25.8786 13.2533C26.135 13.7027 25.8197 14.2592 25.3628 14.412C24.7578 14.5261 24.183 13.8654 24.4679 13.287ZM21.1323 13.4538C20.6525 13.4885 20.1927 13.8684 20.1977 14.3783C20.1703 14.795 20.465 15.1353 20.815 15.3089C20.85 15.311 20.8854 15.3138 20.921 15.3167L20.9211 15.3167L20.9211 15.3167L20.9211 15.3167L20.9212 15.3167L20.9212 15.3167L20.9213 15.3167L20.9213 15.3167L20.9213 15.3167L20.9214 15.3167L20.9214 15.3167L20.9214 15.3167L20.9215 15.3167L20.9215 15.3167L20.9216 15.3167L20.9216 15.3167L20.9216 15.3167L20.9217 15.3167L20.9217 15.3168L20.9217 15.3168L20.9218 15.3168L20.9218 15.3168L20.9219 15.3168C21.1195 15.3326 21.3248 15.3491 21.5027 15.2484C21.9624 15.043 22.1883 14.4269 21.9339 13.9795C21.7974 13.6552 21.4505 13.5182 21.1323 13.4538ZM12.1525 15.1214C12.6191 14.8316 13.2486 15.3604 13.072 15.8724C12.9747 16.3153 12.3853 16.4955 12.0484 16.2127C11.6888 15.9478 11.7458 15.3109 12.1525 15.1214ZM30.4304 15.671C30.4776 15.1661 29.8243 14.8099 29.4284 15.1204C29.0222 15.3724 29.0664 16.045 29.4992 16.2415C29.8922 16.4786 30.457 16.1314 30.4304 15.671ZM22.4603 16.0371C23.1136 15.8 23.8895 16.0837 24.2619 16.672C24.7531 17.3913 24.4917 18.4866 23.7295 18.8993C22.9397 19.3874 21.7864 18.9737 21.4947 18.0828C21.1636 17.2852 21.646 16.2871 22.4603 16.0371ZM20.675 16.8081C20.3252 16.0599 19.3508 15.7703 18.6268 16.1155C17.8551 16.4636 17.5 17.4906 17.8998 18.2466C18.2564 19.0285 19.2958 19.3488 20.0325 18.9262C20.7683 18.5502 21.0865 17.5363 20.675 16.8081ZM14.7888 17.4409C14.8439 16.9697 15.284 16.6631 15.728 16.6314C16.2064 16.6897 16.5885 17.065 16.6405 17.554C16.6092 18.0381 16.2388 18.5113 15.7308 18.5084C15.172 18.557 14.6821 17.9955 14.7888 17.4409ZM27.4701 17.5533C27.4956 16.8875 26.6989 16.3965 26.1252 16.7338C25.5093 17.0272 25.4631 17.9974 26.0565 18.342C26.6277 18.7557 27.5094 18.2586 27.4701 17.5533ZM17.0671 19.2198C17.738 19.0334 18.5052 19.3528 18.8343 19.9758C19.1948 20.6028 19.0474 21.4739 18.4876 21.9338C17.7695 22.6084 16.4453 22.3376 16.0631 21.4169C15.6239 20.573 16.1574 19.442 17.0671 19.2198ZM26.1065 19.8821C25.7558 19.2819 24.9895 19.0279 24.3373 19.2164C23.4208 19.4698 22.9355 20.6444 23.4178 21.4756C23.8156 22.2791 24.9355 22.5489 25.6585 22.035C26.3488 21.5925 26.5701 20.5686 26.1065 19.8821ZM12.7513 19.9996C13.3309 19.7781 13.9734 20.4242 13.7386 21.0046C13.5951 21.5334 12.8574 21.7288 12.4763 21.339C12.0303 20.9729 12.1954 20.1583 12.7513 19.9996ZM29.2884 19.9004C28.7959 19.9272 28.4446 20.3568 28.4613 20.8419C28.5576 21.0681 28.6744 21.3042 28.9023 21.4212C29.3886 21.6921 30.0763 21.3003 30.0399 20.7238C30.0713 20.2873 29.6853 19.9639 29.2884 19.9004ZM9.90185 20.2843C10.2505 20.1305 10.6819 20.4358 10.6022 20.8269C10.5835 21.2698 9.93623 21.4401 9.69843 21.0701C9.48831 20.8131 9.61408 20.4168 9.90185 20.2843ZM32.6243 20.5155C32.527 20.2258 32.1331 20.0989 31.8876 20.2755C31.479 20.4956 31.6391 21.2576 32.1341 21.2121C32.4867 21.2655 32.7893 20.832 32.6243 20.5155ZM18.9612 22.4014C19.8787 22.1604 20.865 22.9333 20.8708 23.8876C20.9307 24.8519 19.9592 25.707 19.02 25.4843C18.294 25.3663 17.7244 24.6598 17.7479 23.9188C17.7459 23.2101 18.2754 22.5513 18.9612 22.4014ZM24.5269 23.8996C24.5416 22.9232 23.5259 22.1365 22.5946 22.3995C22.0425 22.538 21.575 22.9977 21.453 23.563C21.2114 24.4112 21.8499 25.3716 22.7153 25.4847C23.6349 25.6724 24.576 24.8461 24.5269 23.8996ZM15.5885 22.9869C16.2329 22.8758 16.8371 23.602 16.5757 24.2201C16.3851 24.8787 15.4362 25.0574 15.0167 24.5194C14.5245 24.0027 14.8919 23.0582 15.5885 22.9869ZM27.4807 23.9048C27.5249 23.2749 26.8196 22.7728 26.245 23.0159C25.5505 23.2389 25.4346 24.3083 26.0711 24.6717C26.633 25.0765 27.5038 24.5983 27.4807 23.9048ZM29.2234 26.0336C28.9984 25.6099 29.4071 25.0484 29.8728 25.1268C30.0918 25.1231 30.2486 25.2875 30.3903 25.4362L30.4151 25.4622L30.4204 25.5051C30.4505 25.7467 30.485 26.0237 30.2904 26.2062C30.0102 26.5644 29.3756 26.4621 29.2234 26.0336ZM13.1145 25.9026C13.2123 25.3886 12.586 24.9521 12.1508 25.2448C11.7362 25.4582 11.7214 26.1249 12.1222 26.359C12.4955 26.6169 13.0624 26.3571 13.1145 25.9026ZM20.7491 26.1963C21.3189 25.9424 22.0448 26.4434 21.9908 27.0773C22.033 27.7778 21.1352 28.2629 20.5781 27.8422C19.9593 27.4811 20.0625 26.4185 20.7491 26.1963ZM17.8589 27.8709C17.9031 27.3223 17.2518 26.8768 16.7665 27.1348C16.4247 27.2638 16.2853 27.6448 16.2793 27.9869C16.3962 28.3007 16.6338 28.6308 16.9983 28.6387C17.4384 28.7053 17.8737 28.3214 17.8589 27.8709ZM24.8332 27.1427C25.3322 26.8312 26.0415 27.2786 25.9943 27.8653C26.0071 28.4785 25.2055 28.8713 24.7409 28.4685C24.291 28.1527 24.3459 27.3937 24.8332 27.1427ZM26.6363 29.8204C26.2758 29.8978 26.0145 30.3066 26.2365 30.6459C26.4644 31.0398 27.1295 30.8989 27.1717 30.4396C27.2326 30.1002 26.9262 29.88 26.6363 29.8204ZM15.1002 30.3512C15.1886 30.0823 15.4027 29.8151 15.7161 29.885C16.1729 29.9177 16.3085 30.6132 15.9087 30.8275C15.5492 31.0724 15.1321 30.7371 15.1002 30.3512ZM21.4058 30.2798C21.0698 30.0685 20.5601 30.2619 20.4726 30.6597C20.3128 31.0616 20.6966 31.5474 21.122 31.497C21.3509 31.5029 21.5277 31.3383 21.6652 31.1736C21.692 31.0625 21.7192 30.9513 21.7497 30.8402L21.7478 30.8332C21.6912 30.6215 21.6254 30.375 21.4058 30.2798Z" fill="#3CC8C8"/>
<g filter="url(#filter0_d_10661_62757)">
<circle cx="36.3633" cy="32.5876" r="8" fill="#EDF0F4"/>
</g>
<path d="M34.0328 31.6302L36.3633 29.2997L38.6949 31.6312L40.0509 30.2752L36.3633 26.5876L32.6769 30.2741L34.0328 31.6302ZM30.3633 32.5877L31.7193 31.2314L33.0753 32.5874L31.7192 33.9434L30.3633 32.5877ZM34.0328 33.5453L36.3633 35.8757L38.6948 33.5442L40.0516 34.8995L40.0509 34.9002L36.3633 38.5877L32.6769 34.9013L32.675 34.8994L34.0328 33.5453ZM39.6513 32.5882L41.0073 31.2322L42.3633 32.5882L41.0073 33.9442L39.6513 32.5882Z" fill="#F3BA2F"/>
<path d="M37.7383 32.5869H37.7389L36.363 31.2109L35.346 32.2276L35.2292 32.3445L34.9882 32.5855L34.9863 32.5874L34.9882 32.5894L36.363 33.9643L37.739 32.5884L37.7397 32.5876L37.7384 32.5869" fill="#F3BA2F"/>
</g>
<defs>
<filter id="filter0_d_10661_62757" x="20.3633" y="18.5876" width="32" height="32" filterUnits="userSpaceOnUse" color-interpolation-filters="sRGB">
<feFlood flood-opacity="0" result="BackgroundImageFix"/>
<feColorMatrix in="SourceAlpha" type="matrix" values="0 0 0 0 0 0 0 0 0 0 0 0 0 0 0 0 0 0 127 0" result="hardAlpha"/>
<feOffset dy="2"/>
<feGaussianBlur stdDeviation="4"/>
<feComposite in2="hardAlpha" operator="out"/>
<feColorMatrix type="matrix" values="0 0 0 0 0.109804 0 0 0 0 0.176471 0 0 0 0 0.368627 0 0 0 0.1 0"/>
<feBlend mode="normal" in2="BackgroundImageFix" result="effect1_dropShadow_10661_62757"/>
<feBlend mode="normal" in="SourceGraphic" in2="effect1_dropShadow_10661_62757" result="shape"/>
</filter>
<clipPath id="clip0_10661_62757">
<rect width="44" height="40" fill="white" transform="translate(0.363281 0.731445)"/>
</clipPath>
</defs>
</svg>
