<svg width="45" height="41" viewBox="0 0 45 41" fill="none" xmlns="http://www.w3.org/2000/svg">
<g clip-path="url(#clip0_10661_62759)">
<circle cx="20.3633" cy="20.7313" r="20" fill="#EDF0F4"/>
<path fill-rule="evenodd" clip-rule="evenodd" d="M21.56 6.66839C20.867 5.47154 19.7647 5.47154 19.0718 6.66839L6.48909 28.8259C5.79618 30.0385 6.36311 30.9991 7.74893 30.9991H14.0639C15.3395 30.9204 16.4891 30.2432 17.182 29.1723L24.7883 15.9912C25.3395 14.8574 25.3395 13.5188 24.7883 12.3849L22.5206 8.40067L21.56 6.66839ZM29.9229 21.2511C29.23 20.0542 28.1119 20.0542 27.419 21.2511L23.0253 28.8259C22.3481 30.0227 22.9151 30.9991 24.2851 30.9991H32.9781C34.3639 30.9991 34.9308 30.0227 34.2379 28.8259L29.9229 21.2511Z" fill="#E84142"/>
<g filter="url(#filter0_d_10661_62759)">
<circle cx="36.3633" cy="32.5875" r="8" fill="#EDF0F4"/>
</g>
<path d="M34.0328 31.63L36.3633 29.2995L38.6949 31.631L40.0509 30.275L36.3633 26.5875L32.6769 30.2739L34.0328 31.63ZM30.3633 32.5875L31.7193 31.2313L33.0753 32.5873L31.7192 33.9433L30.3633 32.5875ZM34.0328 33.5452L36.3633 35.8756L38.6948 33.5441L40.0516 34.8994L40.0509 34.9001L36.3633 38.5876L32.6769 34.9012L32.675 34.8992L34.0328 33.5452ZM39.6513 32.5881L41.0073 31.2321L42.3633 32.588L41.0073 33.9441L39.6513 32.5881Z" fill="#F3BA2F"/>
<path d="M37.7383 32.5868H37.7389L36.363 31.2108L35.346 32.2275L35.2292 32.3444L34.9882 32.5854L34.9863 32.5873L34.9882 32.5892L36.363 33.9642L37.739 32.5882L37.7397 32.5875L37.7384 32.5868" fill="#F3BA2F"/>
</g>
<defs>
<filter id="filter0_d_10661_62759" x="20.3633" y="18.5875" width="32" height="32" filterUnits="userSpaceOnUse" color-interpolation-filters="sRGB">
<feFlood flood-opacity="0" result="BackgroundImageFix"/>
<feColorMatrix in="SourceAlpha" type="matrix" values="0 0 0 0 0 0 0 0 0 0 0 0 0 0 0 0 0 0 127 0" result="hardAlpha"/>
<feOffset dy="2"/>
<feGaussianBlur stdDeviation="4"/>
<feComposite in2="hardAlpha" operator="out"/>
<feColorMatrix type="matrix" values="0 0 0 0 0.109804 0 0 0 0 0.176471 0 0 0 0 0.368627 0 0 0 0.1 0"/>
<feBlend mode="normal" in2="BackgroundImageFix" result="effect1_dropShadow_10661_62759"/>
<feBlend mode="normal" in="SourceGraphic" in2="effect1_dropShadow_10661_62759" result="shape"/>
</filter>
<clipPath id="clip0_10661_62759">
<rect width="44" height="40" fill="white" transform="translate(0.363281 0.731323)"/>
</clipPath>
</defs>
</svg>
