<svg width="45" height="41" viewBox="0 0 45 41" fill="none" xmlns="http://www.w3.org/2000/svg">
<g clip-path="url(#clip0_10661_62736)">
<path fill-rule="evenodd" clip-rule="evenodd" d="M20.6133 0.168579C31.6573 0.168579 40.6133 9.12458 40.6133 20.1686C40.6133 31.2126 31.6573 40.1686 20.6133 40.1686C9.56928 40.1686 0.613281 31.2126 0.613281 20.1686C0.613281 9.12458 9.56928 0.168579 20.6133 0.168579Z" fill="#EAEEF2"/>
<path fill-rule="evenodd" clip-rule="evenodd" d="M11.4932 13.4006C11.4932 13.4006 9.34124 11.6806 9.19324 15.9286C9.04524 19.2206 9.04924 25.6126 10.5732 28.6326C11.2172 29.7686 12.0772 29.4206 13.6772 28.2886C15.0692 27.2606 20.1052 22.6206 22.2372 20.5846C24.3692 18.5486 28.6932 12.7086 29.5932 16.6766C29.9492 18.3446 30.3892 19.7606 30.0532 23.4606C29.9492 24.6006 29.4612 25.4646 27.2372 23.9206C25.5572 22.8406 23.9612 21.6806 23.9612 21.6806C23.9612 21.6806 23.6532 21.1286 22.9252 22.0246C22.3532 22.7406 22.0652 22.9166 22.9812 23.4606C23.9012 24.0046 28.5532 27.2126 30.3372 27.7126C31.8092 28.1406 32.6492 28.1326 32.6932 25.2406C32.6852 22.9446 32.5532 16.3726 31.7172 13.5726C31.0852 11.8286 30.1572 11.0366 28.1532 12.9966C26.1492 14.9566 19.8292 21.0846 16.3732 23.8606C14.0812 25.5806 13.1012 27.1326 12.2372 24.2646C11.6292 22.0926 10.8412 15.3326 13.3292 16.6206C14.8852 17.3646 15.6612 17.3606 15.0532 17.8286C14.4452 18.2926 12.6972 19.8966 12.6972 19.8966C12.6972 19.8966 12.1572 20.3326 12.4092 21.2766C12.6612 21.9366 12.6612 22.2646 14.0172 20.9886C15.3732 19.7126 16.3732 18.7486 16.3732 18.7486C16.3732 18.7486 16.5892 18.4086 17.2332 19.0366C17.8772 19.6646 17.9812 19.8406 17.9812 19.8406C17.9812 19.8406 18.1532 20.3086 18.8412 19.4966C19.5332 18.6846 19.9772 18.1886 18.6692 17.4286C17.3652 16.6606 11.4932 13.4006 11.4932 13.4006Z" fill="#0055D5"/>
<g clip-path="url(#clip1_10661_62736)" filter="url(#filter0_d_10661_62736)">
<g clip-path="url(#clip2_10661_62736)">
<circle cx="36.4473" cy="32.1686" r="8" fill="#EDF0F4"/>
</g>
<path d="M36.5429 25.7686L36.457 26.0603V34.5246L36.5429 34.6103L40.4719 32.2878L36.5429 25.7686Z" fill="#343434"/>
<path d="M36.5424 25.7686L32.6133 32.2878L36.5424 34.6103V30.5019V25.7686Z" fill="#8C8C8C"/>
<path d="M36.5425 35.3531L36.4941 35.4121V38.4273L36.5425 38.5686L40.4739 33.0319L36.5425 35.3531Z" fill="#3C3C3B"/>
<path d="M36.5424 38.5686V35.3531L32.6133 33.0319L36.5424 38.5686Z" fill="#8C8C8C"/>
<path d="M36.542 34.6117L40.471 32.2892L36.542 30.5033V34.6117Z" fill="#141414"/>
<path d="M32.6133 32.2892L36.5424 34.6117V30.5033L32.6133 32.2892Z" fill="#393939"/>
</g>
</g>
<defs>
<filter id="filter0_d_10661_62736" x="20.6133" y="18.1686" width="32" height="32" filterUnits="userSpaceOnUse" color-interpolation-filters="sRGB">
<feFlood flood-opacity="0" result="BackgroundImageFix"/>
<feColorMatrix in="SourceAlpha" type="matrix" values="0 0 0 0 0 0 0 0 0 0 0 0 0 0 0 0 0 0 127 0" result="hardAlpha"/>
<feOffset dy="2"/>
<feGaussianBlur stdDeviation="4"/>
<feComposite in2="hardAlpha" operator="out"/>
<feColorMatrix type="matrix" values="0 0 0 0 0.109804 0 0 0 0 0.176471 0 0 0 0 0.368627 0 0 0 0.05 0"/>
<feBlend mode="normal" in2="BackgroundImageFix" result="effect1_dropShadow_10661_62736"/>
<feBlend mode="normal" in="SourceGraphic" in2="effect1_dropShadow_10661_62736" result="shape"/>
</filter>
<clipPath id="clip0_10661_62736">
<rect width="44" height="40" fill="white" transform="translate(0.613281 0.168579)"/>
</clipPath>
<clipPath id="clip1_10661_62736">
<rect width="16" height="16" fill="white" transform="translate(28.6133 24.1686)"/>
</clipPath>
<clipPath id="clip2_10661_62736">
<rect width="16" height="16" fill="white" transform="translate(28.6133 24.1686)"/>
</clipPath>
</defs>
</svg>
