<svg width="45" height="41" viewBox="0 0 45 41" fill="none" xmlns="http://www.w3.org/2000/svg">
<g clip-path="url(#clip0_10661_62755)">
<g clip-path="url(#clip1_10661_62755)">
<circle cx="20.3633" cy="20.3718" r="20" fill="#EDF0F4"/>
<path d="M14.537 17.9781L20.3633 12.1519L26.1923 17.9806L29.5823 14.5906L20.3633 5.37183L11.1473 14.5879L14.537 17.9781ZM5.36328 20.3719L8.7534 16.9813L12.1433 20.3712L8.75316 23.7613L5.36328 20.3719ZM14.537 22.766L20.3633 28.5919L26.1922 22.7633L29.584 26.1515L29.5823 26.1533L20.3633 35.3719L11.1473 26.1559L11.1425 26.1511L14.537 22.766ZM28.5833 20.3733L31.9734 16.9832L35.3633 20.3731L31.9733 23.7632L28.5833 20.3733Z" fill="#F3BA2F"/>
<path d="M23.8018 20.3699H23.8033L20.3636 16.9299L17.8212 19.4717L17.5291 19.7639L16.9267 20.3664L16.9219 20.3711L16.9267 20.376L20.3636 23.8134L23.8035 20.3735L23.8052 20.3716L23.8021 20.3699" fill="#F3BA2F"/>
</g>
<g filter="url(#filter0_d_10661_62755)">
<circle cx="36.3633" cy="32.5876" r="8" fill="#EDF0F4"/>
</g>
<path d="M34.0328 31.6302L36.3633 29.2997L38.6949 31.6312L40.0509 30.2752L36.3633 26.5876L32.6769 30.2741L34.0328 31.6302ZM30.3633 32.5877L31.7193 31.2314L33.0753 32.5874L31.7192 33.9434L30.3633 32.5877ZM34.0328 33.5453L36.3633 35.8757L38.6948 33.5442L40.0516 34.8995L40.0509 34.9002L36.3633 38.5877L32.6769 34.9013L32.675 34.8994L34.0328 33.5453ZM39.6513 32.5882L41.0073 31.2322L42.3633 32.5882L41.0073 33.9442L39.6513 32.5882Z" fill="#F3BA2F"/>
<path d="M37.7383 32.5869H37.7389L36.363 31.2109L35.346 32.2276L35.2292 32.3445L34.9882 32.5855L34.9863 32.5874L34.9882 32.5894L36.363 33.9643L37.739 32.5884L37.7397 32.5876L37.7384 32.5869" fill="#F3BA2F"/>
</g>
<defs>
<filter id="filter0_d_10661_62755" x="20.3633" y="18.5876" width="32" height="32" filterUnits="userSpaceOnUse" color-interpolation-filters="sRGB">
<feFlood flood-opacity="0" result="BackgroundImageFix"/>
<feColorMatrix in="SourceAlpha" type="matrix" values="0 0 0 0 0 0 0 0 0 0 0 0 0 0 0 0 0 0 127 0" result="hardAlpha"/>
<feOffset dy="2"/>
<feGaussianBlur stdDeviation="4"/>
<feComposite in2="hardAlpha" operator="out"/>
<feColorMatrix type="matrix" values="0 0 0 0 0.109804 0 0 0 0 0.176471 0 0 0 0 0.368627 0 0 0 0.1 0"/>
<feBlend mode="normal" in2="BackgroundImageFix" result="effect1_dropShadow_10661_62755"/>
<feBlend mode="normal" in="SourceGraphic" in2="effect1_dropShadow_10661_62755" result="shape"/>
</filter>
<clipPath id="clip0_10661_62755">
<rect width="44" height="40" fill="white" transform="translate(0.363281 0.731445)"/>
</clipPath>
<clipPath id="clip1_10661_62755">
<rect width="40" height="40" fill="white" transform="translate(0.363281 0.731445)"/>
</clipPath>
</defs>
</svg>
