<svg width="33" height="34" viewBox="0 0 33 34" fill="none" xmlns="http://www.w3.org/2000/svg">
<path d="M32.5063 20.4937C30.3024 29.3341 21.3485 34.7142 12.5071 32.5097C3.66937 30.3057 -1.7107 21.3513 0.494207 12.5117C2.69718 3.67033 11.651 -1.71015 20.4897 0.493792C29.3305 2.69773 34.7103 11.6531 32.5061 20.4939L32.5062 20.4937H32.5063Z" fill="#F7931A"/>
<path d="M23.798 14.1229C24.1264 11.9269 22.4545 10.7464 20.1683 9.95897L20.9099 6.98424L19.0991 6.53303L18.3771 9.42944C17.9011 9.3107 17.4122 9.19883 16.9263 9.08792L17.6535 6.1724L15.8439 5.72119L15.1018 8.69495C14.7079 8.60526 14.3209 8.51661 13.9455 8.42321L13.9476 8.41385L11.4505 7.79027L10.9688 9.72433C10.9688 9.72433 12.3123 10.0323 12.284 10.0512C13.0172 10.2343 13.1498 10.7197 13.1278 11.1044L12.283 14.4933C12.3335 14.5062 12.399 14.5247 12.4713 14.5537C12.4108 14.5387 12.3466 14.5224 12.2798 14.5064L11.0957 19.2538C11.0061 19.4766 10.7786 19.8109 10.2659 19.6839C10.2841 19.7102 8.94981 19.3555 8.94981 19.3555L8.05078 21.4283L10.4073 22.0157C10.8456 22.1257 11.2752 22.2407 11.6983 22.3488L10.949 25.3577L12.7577 25.8089L13.4997 22.832C13.9939 22.9661 14.4734 23.0899 14.9428 23.2065L14.2033 26.1694L16.0141 26.6206L16.7634 23.6174C19.8512 24.2018 22.173 23.9662 23.1503 21.1732C23.9377 18.9246 23.1111 17.6276 21.4866 16.7818C22.6698 16.5089 23.561 15.7307 23.7986 14.1232L23.798 14.1228L23.798 14.1229ZM19.6607 19.9245C19.1011 22.1731 15.3151 20.9575 14.0876 20.6527L15.082 16.6665C16.3094 16.973 20.2455 17.5794 19.6608 19.9245H19.6607ZM20.2207 14.0904C19.7102 16.1357 16.5591 15.0966 15.5369 14.8418L16.4384 11.2265C17.4606 11.4813 20.7525 11.9569 20.2209 14.0904H20.2207Z" fill="white"/>
</svg>
