<svg width="45" height="41" viewBox="0 0 45 41" fill="none" xmlns="http://www.w3.org/2000/svg">
<g clip-path="url(#clip0_10661_62744)">
<path d="M20.6133 0.168579C31.66 0.168579 40.6133 9.12367 40.6133 20.1686C40.6133 31.2153 31.66 40.1686 20.6133 40.1686C9.56837 40.1686 0.613281 31.2144 0.613281 20.1686C0.613281 9.12367 9.56837 0.168579 20.6133 0.168579Z" fill="#ECEFF3"/>
<path fill-rule="evenodd" clip-rule="evenodd" d="M10.7381 31.3169V31.3916L10.7345 31.3943V31.4069H19.4097C20.3916 31.4204 21.3699 31.3421 22.3347 31.1693C23.3508 30.9704 24.3409 30.6572 25.285 30.2324C25.6943 30.0428 26.0871 29.8136 26.4833 29.5825C26.5836 29.5239 26.6842 29.4653 26.7853 29.4071C27.2515 29.075 27.6979 28.715 28.1227 28.3325C29.2855 27.2813 30.1855 25.9699 30.748 24.5074C30.7858 24.3436 30.946 24.2383 31.1107 24.2698H33.4732C33.6613 24.2698 33.7234 24.2068 33.7234 23.9944V22.4815C33.736 22.3366 33.736 22.1899 33.7234 22.045C33.7234 22.0071 33.7332 21.9694 33.7429 21.9317C33.7623 21.8565 33.7816 21.7815 33.7234 21.7066H31.7497C31.5112 21.7066 31.5112 21.6814 31.5112 21.469C31.5796 20.7076 31.5796 19.9435 31.5112 19.1821C31.4986 18.9571 31.549 18.9571 31.7236 18.9571H33.4489C33.6496 18.9571 33.7243 18.9067 33.7243 18.7069V16.6567C33.7181 16.5208 33.715 16.452 33.679 16.4171C33.6419 16.3813 33.5702 16.3813 33.4246 16.3813H31.1872C31.0126 16.411 30.8452 16.2931 30.8137 16.1184C30.5572 15.4479 30.2305 14.8062 29.8372 14.2059C29.4412 13.6137 28.9948 13.0575 28.4998 12.5436C27.8419 11.8866 27.103 11.316 26.3002 10.8435C25.0897 10.1406 23.7657 9.64828 22.3878 9.39358C21.7191 9.27028 21.0432 9.19558 20.3628 9.16858H10.9883C10.7381 9.16858 10.7381 9.21898 10.7381 9.41878V16.1562C10.7381 16.3939 10.6877 16.3939 10.5005 16.3939H7.81308C7.61328 16.3939 7.61328 16.4308 7.61328 16.5685V18.7681C7.61328 18.9679 7.67538 18.9679 7.82568 18.9679H10.5383C10.7381 18.9679 10.7381 19.0048 10.7381 19.1551V21.505C10.7381 21.7174 10.6751 21.7174 10.5131 21.7174H7.61328V24.0925C7.61328 24.2923 7.67538 24.2923 7.82568 24.2923H10.5383C10.7381 24.2923 10.7381 24.3166 10.7381 24.4795V27.4172V28.4045V31.3169ZM28.002 16.1796C28.0236 16.2354 28.0236 16.2975 28.002 16.3542H28.0623C28.0371 16.429 27.912 16.4542 27.912 16.4542H13.4876C13.25 16.4542 13.25 16.4038 13.25 16.2165V11.7795C13.25 11.6166 13.2752 11.5419 13.4624 11.5419H20.1747C20.8893 11.5356 21.6021 11.6103 22.2996 11.7669C23.682 12.0945 24.9681 12.7461 26.0499 13.6668C26.2659 13.8279 26.4585 14.0178 26.625 14.2293C26.9778 14.5794 27.2874 14.9691 27.5502 15.3921C27.7248 15.6396 27.8751 15.9033 28.002 16.1796ZM28.5997 21.7039H21H13.5497C13.3977 21.7039 13.3228 21.7039 13.2859 21.6665C13.25 21.6301 13.25 21.5583 13.25 21.4168V19.192C13.25 19.0165 13.3004 18.9544 13.4876 18.9544H28.6123C28.7752 18.9544 28.8499 19.0165 28.8499 19.1668C28.912 19.9408 28.912 20.7184 28.8499 21.4915C28.8382 21.7039 28.7617 21.7039 28.5997 21.7039ZM28.0011 24.304C27.7887 24.2806 27.5745 24.2806 27.3621 24.304H13.5002C13.313 24.304 13.25 24.304 13.25 24.5542V28.8923C13.25 29.0921 13.25 29.1425 13.5002 29.1425H19.9002C20.2062 29.1659 20.5122 29.1443 20.8119 29.0804C21.7407 29.0138 22.6542 28.8122 23.5254 28.4801C23.8422 28.3703 24.1482 28.2272 24.4371 28.0553H24.5244C26.0247 27.2749 27.2433 26.0491 28.0119 24.5443C28.0119 24.5443 28.0992 24.3553 28.0011 24.3058V24.304Z" fill="#F5AC37"/>
<g clip-path="url(#clip1_10661_62744)" filter="url(#filter0_d_10661_62744)">
<g clip-path="url(#clip2_10661_62744)">
<circle cx="36.4473" cy="32.1686" r="8" fill="#EDF0F4"/>
</g>
<path d="M36.5429 25.7686L36.457 26.0603V34.5246L36.5429 34.6103L40.4719 32.2878L36.5429 25.7686Z" fill="#343434"/>
<path d="M36.5424 25.7686L32.6133 32.2878L36.5424 34.6103V30.5019V25.7686Z" fill="#8C8C8C"/>
<path d="M36.5425 35.3531L36.4941 35.4121V38.4273L36.5425 38.5686L40.4739 33.0319L36.5425 35.3531Z" fill="#3C3C3B"/>
<path d="M36.5424 38.5686V35.3531L32.6133 33.0319L36.5424 38.5686Z" fill="#8C8C8C"/>
<path d="M36.542 34.6117L40.471 32.2892L36.542 30.5033V34.6117Z" fill="#141414"/>
<path d="M32.6133 32.2892L36.5424 34.6117V30.5033L32.6133 32.2892Z" fill="#393939"/>
</g>
</g>
<defs>
<filter id="filter0_d_10661_62744" x="20.6133" y="18.1686" width="32" height="32" filterUnits="userSpaceOnUse" color-interpolation-filters="sRGB">
<feFlood flood-opacity="0" result="BackgroundImageFix"/>
<feColorMatrix in="SourceAlpha" type="matrix" values="0 0 0 0 0 0 0 0 0 0 0 0 0 0 0 0 0 0 127 0" result="hardAlpha"/>
<feOffset dy="2"/>
<feGaussianBlur stdDeviation="4"/>
<feComposite in2="hardAlpha" operator="out"/>
<feColorMatrix type="matrix" values="0 0 0 0 0.109804 0 0 0 0 0.176471 0 0 0 0 0.368627 0 0 0 0.05 0"/>
<feBlend mode="normal" in2="BackgroundImageFix" result="effect1_dropShadow_10661_62744"/>
<feBlend mode="normal" in="SourceGraphic" in2="effect1_dropShadow_10661_62744" result="shape"/>
</filter>
<clipPath id="clip0_10661_62744">
<rect width="44" height="40" fill="white" transform="translate(0.613281 0.168579)"/>
</clipPath>
<clipPath id="clip1_10661_62744">
<rect width="16" height="16" fill="white" transform="translate(28.6133 24.1686)"/>
</clipPath>
<clipPath id="clip2_10661_62744">
<rect width="16" height="16" fill="white" transform="translate(28.6133 24.1686)"/>
</clipPath>
</defs>
</svg>
