<svg width="45" height="41" viewBox="0 0 45 41" fill="none" xmlns="http://www.w3.org/2000/svg">
<g clip-path="url(#clip0_10661_62751)">
<path d="M20.8516 0.397827C31.8983 0.397827 40.8516 9.35292 40.8516 20.3978C40.8516 31.4445 31.8983 40.3978 20.8516 40.3978C9.80665 40.3978 0.851562 31.4436 0.851562 20.3978C0.851562 9.35292 9.80665 0.397827 20.8516 0.397827Z" fill="#ECEFF3"/>
<path fill-rule="evenodd" clip-rule="evenodd" d="M10.9764 31.5461V31.6208L10.9728 31.6235V31.6361H19.648C20.6299 31.6496 21.6082 31.5713 22.573 31.3985C23.5891 31.1996 24.5791 30.8864 25.5232 30.4616C25.9326 30.272 26.3254 30.0429 26.7216 29.8117C26.8219 29.7532 26.9225 29.6945 27.0236 29.6363C27.4898 29.3042 27.9362 28.9442 28.361 28.5617C29.5238 27.5105 30.4238 26.1992 30.9863 24.7367C31.0241 24.5729 31.1843 24.4676 31.349 24.4991H33.7115C33.8996 24.4991 33.9617 24.4361 33.9617 24.2237V22.7108C33.9743 22.5659 33.9743 22.4192 33.9617 22.2743C33.9617 22.2364 33.9715 22.1986 33.9812 22.1609C34.0006 22.0857 34.0199 22.0108 33.9617 21.9359H31.988C31.7495 21.9359 31.7495 21.9107 31.7495 21.6982C31.8179 20.9368 31.8179 20.1727 31.7495 19.4113C31.7369 19.1863 31.7873 19.1863 31.9619 19.1863H33.6872C33.8879 19.1863 33.9626 19.1359 33.9626 18.9361V16.8859C33.9564 16.7501 33.9533 16.6813 33.9172 16.6464C33.8802 16.6105 33.8084 16.6105 33.6629 16.6105H31.4255C31.2509 16.6402 31.0835 16.5223 31.052 16.3477C30.7955 15.6772 30.4688 15.0355 30.0755 14.4352C29.6795 13.843 29.2331 13.2868 28.7381 12.7729C28.0802 12.1159 27.3413 11.5452 26.5385 11.0727C25.3279 10.3698 24.004 9.87753 22.6261 9.62283C21.9574 9.49953 21.2815 9.42483 20.6011 9.39783H11.2266C10.9764 9.39783 10.9764 9.44823 10.9764 9.64803V16.3855C10.9764 16.6231 10.926 16.6231 10.7388 16.6231H8.05136C7.85156 16.6231 7.85156 16.66 7.85156 16.7977V18.9973C7.85156 19.1971 7.91366 19.1971 8.06396 19.1971H10.7766C10.9764 19.1971 10.9764 19.234 10.9764 19.3843V21.7343C10.9764 21.9467 10.9134 21.9467 10.7514 21.9467H7.85156V24.3218C7.85156 24.5216 7.91366 24.5216 8.06396 24.5216H10.7766C10.9764 24.5216 10.9764 24.5459 10.9764 24.7088V27.6464V28.6337V31.5461ZM28.2403 16.4089C28.2619 16.4647 28.2619 16.5268 28.2403 16.5835H28.3006C28.2754 16.6582 28.1503 16.6834 28.1503 16.6834H13.7259C13.4883 16.6834 13.4883 16.633 13.4883 16.4458V12.0088C13.4883 11.8458 13.5135 11.7711 13.7007 11.7711H20.413C21.1276 11.7648 21.8404 11.8395 22.5379 11.9962C23.9203 12.3238 25.2064 12.9754 26.2882 13.8961C26.5042 14.0572 26.6968 14.2471 26.8633 14.4586C27.2161 14.8087 27.5257 15.1984 27.7885 15.6214C27.9631 15.8689 28.1134 16.1326 28.2403 16.4089ZM28.8379 21.9332H21.2383H13.788C13.636 21.9332 13.5611 21.9332 13.5242 21.8957C13.4883 21.8593 13.4883 21.7875 13.4883 21.646V19.4212C13.4883 19.2457 13.5387 19.1836 13.7259 19.1836H28.8505C29.0134 19.1836 29.0881 19.2457 29.0881 19.396C29.1502 20.17 29.1502 20.9476 29.0881 21.7207C29.0764 21.9332 28.9999 21.9332 28.8379 21.9332ZM28.2394 24.5333C28.027 24.5099 27.8128 24.5099 27.6004 24.5333H13.7385C13.5513 24.5333 13.4883 24.5333 13.4883 24.7835V29.1215C13.4883 29.3213 13.4883 29.3717 13.7385 29.3717H20.1384C20.4445 29.3951 20.7505 29.3735 21.0502 29.3096C21.979 29.243 22.8925 29.0414 23.7637 28.7093C24.0805 28.5995 24.3865 28.4564 24.6754 28.2845H24.7627C26.263 27.5042 27.4816 26.2784 28.2502 24.7736C28.2502 24.7736 28.3375 24.5846 28.2394 24.5351V24.5333Z" fill="#F5AC37"/>
<g filter="url(#filter0_d_10661_62751)">
<g filter="url(#filter1_d_10661_62751)">
<circle cx="36.8516" cy="32.3978" r="8" fill="#EDF0F4"/>
</g>
<path d="M39.2516 30.7911C39.081 30.693 38.8617 30.693 38.6667 30.7911L37.3021 31.6006L36.376 32.1158L35.0357 32.9253C34.8652 33.0234 34.6458 33.0234 34.4509 32.9253L33.403 32.2875C33.2324 32.1894 33.1106 31.9931 33.1106 31.7723V30.5458C33.1106 30.3496 33.2081 30.1533 33.403 30.0307L34.4509 29.4174C34.6215 29.3193 34.8408 29.3193 35.0357 29.4174L36.0836 30.0552C36.2542 30.1533 36.376 30.3496 36.376 30.5704V31.3799L37.3021 30.8402V30.0062C37.3021 29.8099 37.2046 29.6137 37.0096 29.491L35.0601 28.3381C34.8895 28.24 34.6702 28.24 34.4753 28.3381L32.477 29.5156C32.282 29.6137 32.1846 29.8099 32.1846 30.0062V32.312C32.1846 32.5082 32.282 32.7045 32.477 32.8271L34.4509 33.9801C34.6215 34.0782 34.8408 34.0782 35.0357 33.9801L36.376 33.1951L37.3021 32.6554L38.6424 31.8705C38.8129 31.7723 39.0323 31.7723 39.2272 31.8705L40.2751 32.4837C40.4457 32.5818 40.5675 32.7781 40.5675 32.9988V34.2254C40.5675 34.4216 40.47 34.6178 40.2751 34.7405L39.2516 35.3537C39.081 35.4519 38.8617 35.4519 38.6667 35.3537L37.6189 34.7405C37.4483 34.6424 37.3264 34.4461 37.3264 34.2254V33.4404L36.4004 33.9801V34.7896C36.4004 34.9858 36.4979 35.182 36.6928 35.3047L38.6667 36.4576C38.8373 36.5557 39.0566 36.5557 39.2516 36.4576L41.2255 35.3047C41.3961 35.2066 41.5179 35.0103 41.5179 34.7896V32.4592C41.5179 32.2629 41.4204 32.0667 41.2255 31.9441L39.2516 30.7911Z" fill="#8247E5"/>
</g>
</g>
<defs>
<filter id="filter0_d_10661_62751" x="20.8516" y="18.3978" width="32" height="32" filterUnits="userSpaceOnUse" color-interpolation-filters="sRGB">
<feFlood flood-opacity="0" result="BackgroundImageFix"/>
<feColorMatrix in="SourceAlpha" type="matrix" values="0 0 0 0 0 0 0 0 0 0 0 0 0 0 0 0 0 0 127 0" result="hardAlpha"/>
<feOffset dy="2"/>
<feGaussianBlur stdDeviation="4"/>
<feComposite in2="hardAlpha" operator="out"/>
<feColorMatrix type="matrix" values="0 0 0 0 0.109804 0 0 0 0 0.176471 0 0 0 0 0.368627 0 0 0 0.05 0"/>
<feBlend mode="normal" in2="BackgroundImageFix" result="effect1_dropShadow_10661_62751"/>
<feBlend mode="normal" in="SourceGraphic" in2="effect1_dropShadow_10661_62751" result="shape"/>
</filter>
<filter id="filter1_d_10661_62751" x="20.8516" y="18.3978" width="32" height="32" filterUnits="userSpaceOnUse" color-interpolation-filters="sRGB">
<feFlood flood-opacity="0" result="BackgroundImageFix"/>
<feColorMatrix in="SourceAlpha" type="matrix" values="0 0 0 0 0 0 0 0 0 0 0 0 0 0 0 0 0 0 127 0" result="hardAlpha"/>
<feOffset dy="2"/>
<feGaussianBlur stdDeviation="4"/>
<feComposite in2="hardAlpha" operator="out"/>
<feColorMatrix type="matrix" values="0 0 0 0 0.109804 0 0 0 0 0.176471 0 0 0 0 0.368627 0 0 0 0.1 0"/>
<feBlend mode="normal" in2="BackgroundImageFix" result="effect1_dropShadow_10661_62751"/>
<feBlend mode="normal" in="SourceGraphic" in2="effect1_dropShadow_10661_62751" result="shape"/>
</filter>
<clipPath id="clip0_10661_62751">
<rect width="44" height="40" fill="white" transform="translate(0.851562 0.397827)"/>
</clipPath>
</defs>
</svg>
