<svg width="45" height="41" viewBox="0 0 45 41" fill="none" xmlns="http://www.w3.org/2000/svg">
<g clip-path="url(#clip0_10661_62767)">
<path d="M20.3066 0.858032C31.3534 0.858032 40.3066 9.81312 40.3066 20.858C40.3066 31.9047 31.3534 40.858 20.3066 40.858C9.26173 40.858 0.306641 31.9038 0.306641 20.858C0.306641 9.81312 9.26173 0.858032 20.3066 0.858032Z" fill="#ECEFF3"/>
<path fill-rule="evenodd" clip-rule="evenodd" d="M10.4315 32.0064V32.0811L10.4279 32.0838V32.0964H19.1031C20.085 32.1099 21.0633 32.0316 22.0281 31.8588C23.0442 31.6598 24.0342 31.3466 24.9783 30.9218C25.3877 30.7322 25.7804 30.5031 26.1767 30.2719C26.277 30.2134 26.3775 30.1547 26.4786 30.0965C26.9448 29.7644 27.3912 29.4044 27.816 29.0219C28.9789 27.9707 29.8789 26.6594 30.4414 25.1969C30.4792 25.0331 30.6394 24.9278 30.8041 24.9593H33.1666C33.3547 24.9593 33.4168 24.8963 33.4168 24.6839V23.171C33.4294 23.0261 33.4294 22.8794 33.4168 22.7345C33.4168 22.6966 33.4265 22.6588 33.4363 22.6211C33.4556 22.5459 33.475 22.471 33.4168 22.3961H31.4431C31.2046 22.3961 31.2046 22.3709 31.2046 22.1585C31.273 21.397 31.273 20.6329 31.2046 19.8715C31.192 19.6465 31.2424 19.6465 31.417 19.6465H33.1423C33.343 19.6465 33.4177 19.5961 33.4177 19.3963V17.3461C33.4115 17.2103 33.4083 17.1415 33.3723 17.1066C33.3353 17.0707 33.2635 17.0707 33.118 17.0707H30.8806C30.706 17.1004 30.5386 16.9825 30.5071 16.8079C30.2506 16.1374 29.9239 15.4957 29.5306 14.8954C29.1346 14.3032 28.6882 13.747 28.1932 13.2331C27.5352 12.5761 26.7963 12.0055 25.9935 11.5329C24.783 10.83 23.4591 10.3377 22.0812 10.083C21.4125 9.95973 20.7366 9.88503 20.0562 9.85803H10.6817C10.4315 9.85803 10.4315 9.90843 10.4315 10.1082V16.8457C10.4315 17.0833 10.3811 17.0833 10.1939 17.0833H7.50644C7.30664 17.0833 7.30664 17.1202 7.30664 17.2579V19.4575C7.30664 19.6573 7.36874 19.6573 7.51904 19.6573H10.2317C10.4315 19.6573 10.4315 19.6942 10.4315 19.8445V22.1945C10.4315 22.4069 10.3685 22.4069 10.2065 22.4069H7.30664V24.782C7.30664 24.9818 7.36874 24.9818 7.51904 24.9818H10.2317C10.4315 24.9818 10.4315 25.0061 10.4315 25.169V28.1066V29.0939V32.0064ZM27.6954 16.8691C27.717 16.9249 27.717 16.987 27.6954 17.0437H27.7557C27.7305 17.1184 27.6054 17.1436 27.6054 17.1436H13.181C12.9434 17.1436 12.9434 17.0932 12.9434 16.906V12.469C12.9434 12.3061 12.9686 12.2314 13.1558 12.2314H19.868C20.5826 12.2251 21.2954 12.2998 21.9929 12.4564C23.3754 12.784 24.6615 13.4356 25.7433 14.3563C25.9593 14.5174 26.1519 14.7073 26.3184 14.9188C26.6712 15.2689 26.9808 15.6586 27.2436 16.0816C27.4182 16.3291 27.5685 16.5928 27.6954 16.8691ZM28.293 22.3934H20.6933H13.2431C13.0911 22.3934 13.0162 22.3934 12.9792 22.3559C12.9434 22.3195 12.9434 22.2478 12.9434 22.1063V19.8814C12.9434 19.7059 12.9938 19.6438 13.181 19.6438H28.3056C28.4685 19.6438 28.5432 19.7059 28.5432 19.8562C28.6053 20.6302 28.6053 21.4078 28.5432 22.181C28.5315 22.3934 28.455 22.3934 28.293 22.3934ZM27.6945 24.9935C27.4821 24.9701 27.2679 24.9701 27.0555 24.9935H13.1936C13.0064 24.9935 12.9434 24.9935 12.9434 25.2437V29.5817C12.9434 29.7815 12.9434 29.8319 13.1936 29.8319H19.5935C19.8995 29.8553 20.2055 29.8337 20.5052 29.7698C21.434 29.7032 22.3476 29.5016 23.2188 29.1695C23.5356 29.0597 23.8416 28.9166 24.1305 28.7447H24.2178C25.7181 27.9644 26.9367 26.7386 27.7053 25.2338C27.7053 25.2338 27.7926 25.0448 27.6945 24.9953V24.9935Z" fill="#F5AC37"/>
<g filter="url(#filter0_d_10661_62767)">
<circle cx="36.3066" cy="32.858" r="8" fill="#E7EFF3"/>
<path d="M33.2661 34.7533C33.3215 34.6979 33.3978 34.6655 33.4786 34.6655H40.8103C40.9443 34.6655 41.0112 34.8272 40.9165 34.9219L39.4682 36.3702C39.4128 36.4257 39.3366 36.458 39.2557 36.458H31.924C31.7901 36.458 31.7231 36.2963 31.8178 36.2016L33.2661 34.7533Z" fill="url(#paint0_linear_10661_62767)"/>
<path d="M33.2661 29.3458C33.3239 29.2904 33.4001 29.2581 33.4786 29.2581H40.8103C40.9443 29.2581 41.0112 29.4198 40.9165 29.5145L39.4682 30.9628C39.4128 31.0182 39.3366 31.0505 39.2557 31.0505H31.924C31.7901 31.0505 31.7231 30.8889 31.8178 30.7941L33.2661 29.3458Z" fill="url(#paint1_linear_10661_62767)"/>
<path d="M39.4682 32.0322C39.4128 31.9768 39.3366 31.9445 39.2557 31.9445H31.924C31.7901 31.9445 31.7231 32.1062 31.8178 32.2009L33.2661 33.6492C33.3215 33.7046 33.3978 33.737 33.4786 33.737H40.8103C40.9443 33.737 41.0112 33.5753 40.9165 33.4806L39.4682 32.0322Z" fill="url(#paint2_linear_10661_62767)"/>
</g>
</g>
<defs>
<filter id="filter0_d_10661_62767" x="20.3066" y="18.858" width="32" height="32" filterUnits="userSpaceOnUse" color-interpolation-filters="sRGB">
<feFlood flood-opacity="0" result="BackgroundImageFix"/>
<feColorMatrix in="SourceAlpha" type="matrix" values="0 0 0 0 0 0 0 0 0 0 0 0 0 0 0 0 0 0 127 0" result="hardAlpha"/>
<feOffset dy="2"/>
<feGaussianBlur stdDeviation="4"/>
<feComposite in2="hardAlpha" operator="out"/>
<feColorMatrix type="matrix" values="0 0 0 0 0.109804 0 0 0 0 0.176471 0 0 0 0 0.368627 0 0 0 0.1 0"/>
<feBlend mode="normal" in2="BackgroundImageFix" result="effect1_dropShadow_10661_62767"/>
<feBlend mode="normal" in="SourceGraphic" in2="effect1_dropShadow_10661_62767" result="shape"/>
</filter>
<linearGradient id="paint0_linear_10661_62767" x1="15.2026" y1="27.8979" x2="15.0075" y2="37.7137" gradientUnits="userSpaceOnUse">
<stop stop-color="#00FFA3"/>
<stop offset="1" stop-color="#DC1FFF"/>
</linearGradient>
<linearGradient id="paint1_linear_10661_62767" x1="12.9839" y1="26.7396" x2="12.7889" y2="36.5555" gradientUnits="userSpaceOnUse">
<stop stop-color="#00FFA3"/>
<stop offset="1" stop-color="#DC1FFF"/>
</linearGradient>
<linearGradient id="paint2_linear_10661_62767" x1="14.0862" y1="27.315" x2="13.8911" y2="37.1309" gradientUnits="userSpaceOnUse">
<stop stop-color="#00FFA3"/>
<stop offset="1" stop-color="#DC1FFF"/>
</linearGradient>
<clipPath id="clip0_10661_62767">
<rect width="44" height="40" fill="white" transform="translate(0.306641 0.858032)"/>
</clipPath>
</defs>
</svg>
