<svg width="45" height="41" viewBox="0 0 45 41" fill="none" xmlns="http://www.w3.org/2000/svg">
<g clip-path="url(#clip0_10661_62762)">
<path d="M20.3633 0.731323C31.41 0.731323 40.3633 9.68641 40.3633 20.7313C40.3633 31.778 31.41 40.7313 20.3633 40.7313C9.31837 40.7313 0.363281 31.7771 0.363281 20.7313C0.363281 9.68641 9.31837 0.731323 20.3633 0.731323Z" fill="#ECEFF3"/>
<path fill-rule="evenodd" clip-rule="evenodd" d="M10.4881 31.8796V31.9543L10.4845 31.957V31.9696H19.1597C20.1416 31.9831 21.1199 31.9048 22.0847 31.732C23.1008 31.5331 24.0909 31.2199 25.035 30.7951C25.4443 30.6055 25.8371 30.3764 26.2333 30.1452C26.3336 30.0867 26.4342 30.028 26.5353 29.9698C27.0015 29.6377 27.4479 29.2777 27.8727 28.8952C29.0355 27.844 29.9355 26.5327 30.498 25.0702C30.5358 24.9064 30.696 24.8011 30.8607 24.8326H33.2232C33.4113 24.8326 33.4734 24.7696 33.4734 24.5572V23.0443C33.486 22.8994 33.486 22.7527 33.4734 22.6078C33.4734 22.5699 33.4832 22.5321 33.4929 22.4944C33.5123 22.4192 33.5316 22.3443 33.4734 22.2693H31.4997C31.2612 22.2693 31.2612 22.2441 31.2612 22.0317C31.3296 21.2703 31.3296 20.5062 31.2612 19.7448C31.2486 19.5198 31.299 19.5198 31.4736 19.5198H33.1989C33.3996 19.5198 33.4743 19.4694 33.4743 19.2696V17.2194C33.4681 17.0836 33.465 17.0147 33.429 16.9799C33.3919 16.944 33.3202 16.944 33.1746 16.944H30.9372C30.7626 16.9737 30.5952 16.8558 30.5637 16.6812C30.3072 16.0107 29.9805 15.369 29.5872 14.7687C29.1912 14.1765 28.7448 13.6203 28.2498 13.1064C27.5919 12.4494 26.853 11.8787 26.0502 11.4062C24.8397 10.7033 23.5157 10.211 22.1378 9.95633C21.4691 9.83302 20.7932 9.75832 20.1128 9.73132H10.7383C10.4881 9.73132 10.4881 9.78172 10.4881 9.98153V16.719C10.4881 16.9566 10.4377 16.9566 10.2505 16.9566H7.56308C7.36328 16.9566 7.36328 16.9935 7.36328 17.1312V19.3308C7.36328 19.5306 7.42538 19.5306 7.57568 19.5306H10.2883C10.4881 19.5306 10.4881 19.5675 10.4881 19.7178V22.0677C10.4881 22.2801 10.4251 22.2801 10.2631 22.2801H7.36328V24.6553C7.36328 24.8551 7.42538 24.8551 7.57568 24.8551H10.2883C10.4881 24.8551 10.4881 24.8794 10.4881 25.0423V27.9799V28.9672V31.8796ZM27.752 16.7424C27.7736 16.7982 27.7736 16.8603 27.752 16.917H27.8123C27.7871 16.9917 27.662 17.0169 27.662 17.0169H13.2376C13 17.0169 13 16.9665 13 16.7793V12.3422C13 12.1793 13.0252 12.1046 13.2124 12.1046H19.9247C20.6393 12.0983 21.3521 12.173 22.0496 12.3296C23.432 12.6573 24.7181 13.3089 25.7999 14.2296C26.0159 14.3907 26.2085 14.5806 26.375 14.7921C26.7278 15.1422 27.0374 15.5319 27.3002 15.9549C27.4748 16.2024 27.6251 16.4661 27.752 16.7424ZM28.3497 22.2666H20.75H13.2997C13.1477 22.2666 13.0728 22.2666 13.0359 22.2292C13 22.1928 13 22.121 13 21.9795V19.7547C13 19.5792 13.0504 19.5171 13.2376 19.5171H28.3623C28.5252 19.5171 28.5999 19.5792 28.5999 19.7295C28.662 20.5035 28.662 21.2811 28.5999 22.0542C28.5882 22.2666 28.5117 22.2666 28.3497 22.2666ZM27.7511 24.8668C27.5387 24.8434 27.3245 24.8434 27.1121 24.8668H13.2502C13.063 24.8668 13 24.8668 13 25.117V29.455C13 29.6548 13 29.7052 13.2502 29.7052H19.6502C19.9562 29.7286 20.2622 29.707 20.5619 29.6431C21.4907 29.5765 22.4042 29.3749 23.2754 29.0428C23.5922 28.933 23.8982 28.7899 24.1871 28.618H24.2744C25.7747 27.8377 26.9933 26.6119 27.7619 25.1071C27.7619 25.1071 27.8492 24.9181 27.7511 24.8686V24.8668Z" fill="#F5AC37"/>
<g filter="url(#filter0_d_10661_62762)">
<circle cx="36.3633" cy="32.5875" r="8" fill="#EDF0F4"/>
</g>
<path d="M34.0328 31.63L36.3633 29.2995L38.6949 31.631L40.0509 30.275L36.3633 26.5875L32.6769 30.2739L34.0328 31.63ZM30.3633 32.5875L31.7193 31.2313L33.0753 32.5873L31.7192 33.9433L30.3633 32.5875ZM34.0328 33.5452L36.3633 35.8756L38.6948 33.5441L40.0516 34.8994L40.0509 34.9001L36.3633 38.5876L32.6769 34.9012L32.675 34.8992L34.0328 33.5452ZM39.6513 32.5881L41.0073 31.2321L42.3633 32.588L41.0073 33.9441L39.6513 32.5881Z" fill="#F3BA2F"/>
<path d="M37.7383 32.5868H37.7389L36.363 31.2108L35.346 32.2275L35.2292 32.3444L34.9882 32.5854L34.9863 32.5873L34.9882 32.5892L36.363 33.9642L37.739 32.5882L37.7397 32.5875L37.7384 32.5868" fill="#F3BA2F"/>
</g>
<defs>
<filter id="filter0_d_10661_62762" x="20.3633" y="18.5875" width="32" height="32" filterUnits="userSpaceOnUse" color-interpolation-filters="sRGB">
<feFlood flood-opacity="0" result="BackgroundImageFix"/>
<feColorMatrix in="SourceAlpha" type="matrix" values="0 0 0 0 0 0 0 0 0 0 0 0 0 0 0 0 0 0 127 0" result="hardAlpha"/>
<feOffset dy="2"/>
<feGaussianBlur stdDeviation="4"/>
<feComposite in2="hardAlpha" operator="out"/>
<feColorMatrix type="matrix" values="0 0 0 0 0.109804 0 0 0 0 0.176471 0 0 0 0 0.368627 0 0 0 0.1 0"/>
<feBlend mode="normal" in2="BackgroundImageFix" result="effect1_dropShadow_10661_62762"/>
<feBlend mode="normal" in="SourceGraphic" in2="effect1_dropShadow_10661_62762" result="shape"/>
</filter>
<clipPath id="clip0_10661_62762">
<rect width="44" height="40" fill="white" transform="translate(0.363281 0.731323)"/>
</clipPath>
</defs>
</svg>
