<svg width="45" height="41" viewBox="0 0 45 41" fill="none" xmlns="http://www.w3.org/2000/svg">
<g clip-path="url(#clip0_10661_62741)">
<circle cx="20.6133" cy="20.1686" r="20" fill="#EDF0F4"/>
<path d="M28.7093 10.4367C29.3863 10.5213 30.0915 10.5777 30.7685 10.6905C32.0943 10.9444 32.5457 11.6214 32.32 12.9754C32.2636 13.4832 31.8687 13.8781 31.3609 13.9627C31.0506 14.0192 30.7121 14.0474 30.4018 14.0192C26.0013 14.0192 21.6289 14.0474 17.2283 14.0474C16.5795 14.0474 15.9025 14.1038 15.2537 14.2166C13.0816 14.5551 12.2354 15.4578 12.0661 17.6581C11.9815 18.6736 11.9815 18.6736 13.0252 18.6736H30.5147C30.6839 18.6736 30.8532 18.6736 31.0224 18.6736C31.3045 18.6736 31.5584 18.7582 31.8123 18.8993C32.6021 19.407 32.4046 20.2251 32.3764 20.9585C32.3482 21.5509 31.9815 21.8894 31.3609 22.0022C31.107 22.0587 30.8532 22.0587 30.5711 22.0587C24.5908 22.0587 18.6106 22.0587 12.6303 22.0587C11.9815 22.0587 11.9815 22.0587 12.0379 22.7075C12.0661 23.2998 12.1226 23.8922 12.2636 24.4846C12.5457 25.5565 13.1945 26.2336 14.2946 26.5439C15.4794 26.8824 16.7206 26.9388 17.9336 26.967C22.1931 26.967 26.4808 26.967 30.7685 26.967C31.3045 26.967 31.8123 27.0234 32.1508 27.5312C32.6867 28.3774 32.4046 29.4776 31.5584 30.0135C31.4455 30.0982 31.3327 30.1546 31.1917 30.1828C30.2608 30.4931 29.3017 30.5495 28.3144 30.5777C24.2805 30.6623 20.2749 30.6623 16.2692 30.5777C15.0281 30.5495 13.7869 30.4085 12.5739 30.1546C9.72481 29.5622 8.28616 28.0953 7.80661 25.218C7.69378 24.5692 7.63736 23.8922 7.55273 23.2152V17.9684C7.60915 17.4606 7.66557 16.9247 7.72199 16.4169C8.0887 13.1729 9.55556 11.565 12.7431 10.8316C13.8715 10.5777 15.0563 10.5213 16.1846 10.4084L28.7093 10.4367Z" fill="#7866D5"/>
<path fill-rule="evenodd" clip-rule="evenodd" d="M16.241 31.0854C18.2438 31.1136 20.2466 31.1418 22.2776 31.1418C23.2967 31.1418 24.3158 31.1347 25.3313 31.1276C26.3397 31.1206 27.3446 31.1136 28.3425 31.1136C29.2452 31.0854 30.3171 31.029 31.3609 30.6905C31.5301 30.6341 31.6994 30.5494 31.8404 30.4648C32.3764 30.1263 32.7431 29.6185 32.8841 29.0262C33.0252 28.4338 32.9405 27.8132 32.602 27.2772C32.0943 26.4592 31.2198 26.4592 30.7967 26.4592H27.9758H27.9751C24.6749 26.4592 21.2901 26.4592 17.9617 26.431C16.8898 26.431 15.6486 26.3745 14.4356 26.036C13.5329 25.7822 12.997 25.2462 12.7713 24.3717C12.6303 23.8075 12.5738 23.2434 12.5456 22.651V22.6228V22.5382H12.6585H30.571C30.8531 22.5382 31.1352 22.5382 31.4455 22.4817C32.32 22.3125 32.7995 21.7765 32.8559 20.9867C32.8559 20.9444 32.863 20.895 32.87 20.8456C32.8771 20.7963 32.8841 20.7469 32.8841 20.7046L32.8853 20.6906C32.9417 20.0148 33.0186 19.0924 32.0661 18.4761C31.7558 18.3068 31.3891 18.194 31.0224 18.194H13.0252H12.5456C12.5456 18.1267 12.5521 18.053 12.5588 17.9759C12.5661 17.8914 12.5738 17.8029 12.5738 17.7145C12.7431 15.7398 13.3919 15.0346 15.3383 14.7243C15.9589 14.6115 16.6077 14.5551 17.2283 14.5551C21.6006 14.5551 26.0012 14.5269 30.3736 14.4987C30.7403 14.4987 31.0788 14.4705 31.4173 14.414C32.1789 14.3012 32.7431 13.7088 32.8277 13.0036C33.1098 11.3675 32.4892 10.4648 30.8813 10.1545C30.5038 10.0706 30.1419 10.0335 29.7841 9.99681C29.6605 9.98415 29.5375 9.97153 29.4145 9.95705C29.217 9.95705 28.9913 9.92884 28.7939 9.90063H28.7657H16.2128H16.1563L15.3101 9.98526C14.4356 10.0699 13.5611 10.1545 12.6585 10.352C9.2452 11.1136 7.6091 12.8908 7.21417 16.3604C7.20088 16.5199 7.18133 16.6794 7.16142 16.8418C7.13907 17.0242 7.11626 17.2102 7.10134 17.4042L7.04492 17.9119V23.2152V23.2716C7.07313 23.4972 7.10134 23.6947 7.12955 23.8922C7.15776 24.3435 7.21417 24.8231 7.2988 25.3026C7.80656 28.3492 9.38625 29.9853 12.461 30.6341C13.7022 30.9161 14.9716 31.0572 16.241 31.0854ZM8.11681 23.7793C8.11681 23.5819 8.08861 23.3844 8.0604 23.1869V18.0247L8.11681 17.5452C8.13173 17.3512 8.15454 17.1652 8.1769 16.9828C8.19681 16.8204 8.21636 16.6609 8.22965 16.5015C8.56815 13.4549 9.86576 12.0163 12.8277 11.2828C13.5535 11.1135 14.2586 11.0479 14.9964 10.9792C15.1188 10.9678 15.242 10.9564 15.3665 10.9443L16.2127 10.8597H28.681C28.8785 10.8597 29.1041 10.8879 29.3016 10.9161C29.7529 10.9443 30.2043 11.0008 30.6556 11.0854C31.7275 11.311 32.0096 11.6778 31.8122 12.8061C31.784 13.0882 31.5583 13.3139 31.2762 13.3421C30.9941 13.3985 30.712 13.3985 30.4017 13.3985C28.2014 13.3985 26.0082 13.4055 23.815 13.4126C21.6218 13.4197 19.4285 13.4267 17.2282 13.4267C16.523 13.4549 15.846 13.5113 15.169 13.6242C12.7713 13.9909 11.7557 15.091 11.5583 17.517C11.5553 17.5791 11.552 17.6392 11.5489 17.6971C11.522 18.191 11.5033 18.5339 11.7557 18.7864C12.0378 19.0685 12.4045 19.0685 13.0251 19.0685H31.0787C31.248 19.0685 31.4454 19.1249 31.5865 19.2095C31.9814 19.4634 31.9814 19.8019 31.925 20.5071C31.925 20.5635 31.9179 20.6129 31.9109 20.6622C31.9038 20.7116 31.8968 20.761 31.8968 20.8174C31.8686 21.0995 31.7557 21.2969 31.3044 21.3816C31.0787 21.438 30.8249 21.438 30.5992 21.438H12.6584C12.2635 21.438 11.9532 21.438 11.7275 21.6919C11.5089 21.9378 11.5286 22.2102 11.5556 22.586C11.5565 22.5982 11.5574 22.6104 11.5583 22.6228V22.651C11.5583 23.2716 11.6429 23.9204 11.784 24.5409C12.0942 25.8103 12.8841 26.6284 14.1535 26.9669C15.4793 27.3618 16.8051 27.4182 17.9335 27.4182C21.2621 27.4465 24.6754 27.4465 27.9476 27.4465H30.7684C31.3044 27.4465 31.5301 27.5311 31.6993 27.785C31.8968 28.0953 31.9532 28.4338 31.8686 28.7723C31.784 29.1108 31.5583 29.3929 31.2762 29.5903C31.2339 29.6044 31.1916 29.6256 31.1493 29.6467C31.1069 29.6679 31.0646 29.689 31.0223 29.7031C30.1196 29.9852 29.1323 30.0417 28.3143 30.0699C24.3086 30.1545 20.2466 30.1545 16.2691 30.0699C15.0562 30.0417 13.8432 29.9006 12.6584 29.6467C10.0068 29.0826 8.73741 27.785 8.28607 25.1333L8.11681 23.7793Z" fill="#7866D5"/>
<g clip-path="url(#clip1_10661_62741)" filter="url(#filter0_d_10661_62741)">
<g clip-path="url(#clip2_10661_62741)">
<circle cx="36.4473" cy="32.1686" r="8" fill="#EDF0F4"/>
</g>
<path d="M36.5429 25.7686L36.457 26.0603V34.5246L36.5429 34.6103L40.4719 32.2878L36.5429 25.7686Z" fill="#343434"/>
<path d="M36.5424 25.7686L32.6133 32.2878L36.5424 34.6103V30.5019V25.7686Z" fill="#8C8C8C"/>
<path d="M36.5425 35.3531L36.4941 35.4121V38.4273L36.5425 38.5686L40.4739 33.0319L36.5425 35.3531Z" fill="#3C3C3B"/>
<path d="M36.5424 38.5686V35.3531L32.6133 33.0319L36.5424 38.5686Z" fill="#8C8C8C"/>
<path d="M36.542 34.6117L40.471 32.2892L36.542 30.5033V34.6117Z" fill="#141414"/>
<path d="M32.6133 32.2892L36.5424 34.6117V30.5033L32.6133 32.2892Z" fill="#393939"/>
</g>
</g>
<defs>
<filter id="filter0_d_10661_62741" x="20.6133" y="18.1686" width="32" height="32" filterUnits="userSpaceOnUse" color-interpolation-filters="sRGB">
<feFlood flood-opacity="0" result="BackgroundImageFix"/>
<feColorMatrix in="SourceAlpha" type="matrix" values="0 0 0 0 0 0 0 0 0 0 0 0 0 0 0 0 0 0 127 0" result="hardAlpha"/>
<feOffset dy="2"/>
<feGaussianBlur stdDeviation="4"/>
<feComposite in2="hardAlpha" operator="out"/>
<feColorMatrix type="matrix" values="0 0 0 0 0.109804 0 0 0 0 0.176471 0 0 0 0 0.368627 0 0 0 0.05 0"/>
<feBlend mode="normal" in2="BackgroundImageFix" result="effect1_dropShadow_10661_62741"/>
<feBlend mode="normal" in="SourceGraphic" in2="effect1_dropShadow_10661_62741" result="shape"/>
</filter>
<clipPath id="clip0_10661_62741">
<rect width="44" height="40" fill="white" transform="translate(0.613281 0.168579)"/>
</clipPath>
<clipPath id="clip1_10661_62741">
<rect width="16" height="16" fill="white" transform="translate(28.6133 24.1686)"/>
</clipPath>
<clipPath id="clip2_10661_62741">
<rect width="16" height="16" fill="white" transform="translate(28.6133 24.1686)"/>
</clipPath>
</defs>
</svg>
