<svg width="45" height="41" viewBox="0 0 45 41" fill="none" xmlns="http://www.w3.org/2000/svg">
<g clip-path="url(#clip0_10661_62732)">
<g clip-path="url(#clip1_10661_62732)">
<ellipse cx="20.1973" cy="20.1483" rx="20" ry="20.0023" fill="#EDF0F4"/>
<path d="M20.6583 5.14661L20.457 5.83041V25.671L20.6583 25.8719L29.8669 20.428L20.6583 5.14661Z" fill="#343434"/>
<path d="M20.6561 5.14661L11.4473 20.428L20.6561 25.8719V16.2418V5.14661Z" fill="#8C8C8C"/>
<path d="M20.6584 27.6129L20.5449 27.7513V34.8188L20.6584 35.15L29.8726 22.1719L20.6584 27.6129Z" fill="#3C3C3B"/>
<path d="M20.6561 35.15V27.6129L11.4473 22.1719L20.6561 35.15Z" fill="#8C8C8C"/>
<path d="M20.6543 25.875L29.8629 20.4311L20.6543 16.2449V25.875Z" fill="#141414"/>
<path d="M11.4473 20.4311L20.6561 25.875V16.2449L11.4473 20.4311Z" fill="#393939"/>
</g>
<g clip-path="url(#clip2_10661_62732)" filter="url(#filter0_d_10661_62732)">
<g clip-path="url(#clip3_10661_62732)">
<circle cx="36.4473" cy="32.1505" r="8" fill="#EDF0F4"/>
</g>
<path d="M36.5429 25.7505L36.457 26.0422V34.5066L36.5429 34.5922L40.4719 32.2698L36.5429 25.7505Z" fill="#343434"/>
<path d="M36.5424 25.7505L32.6133 32.2698L36.5424 34.5922V30.4839V25.7505Z" fill="#8C8C8C"/>
<path d="M36.5425 35.335L36.4941 35.3941V38.4092L36.5425 38.5505L40.4739 33.0138L36.5425 35.335Z" fill="#3C3C3B"/>
<path d="M36.5424 38.5505V35.335L32.6133 33.0138L36.5424 38.5505Z" fill="#8C8C8C"/>
<path d="M36.542 34.5936L40.471 32.2711L36.542 30.4852V34.5936Z" fill="#141414"/>
<path d="M32.6133 32.2711L36.5424 34.5936V30.4852L32.6133 32.2711Z" fill="#393939"/>
</g>
</g>
<defs>
<filter id="filter0_d_10661_62732" x="20.6133" y="18.1505" width="32" height="32" filterUnits="userSpaceOnUse" color-interpolation-filters="sRGB">
<feFlood flood-opacity="0" result="BackgroundImageFix"/>
<feColorMatrix in="SourceAlpha" type="matrix" values="0 0 0 0 0 0 0 0 0 0 0 0 0 0 0 0 0 0 127 0" result="hardAlpha"/>
<feOffset dy="2"/>
<feGaussianBlur stdDeviation="4"/>
<feComposite in2="hardAlpha" operator="out"/>
<feColorMatrix type="matrix" values="0 0 0 0 0.109804 0 0 0 0 0.176471 0 0 0 0 0.368627 0 0 0 0.1 0"/>
<feBlend mode="normal" in2="BackgroundImageFix" result="effect1_dropShadow_10661_62732"/>
<feBlend mode="normal" in="SourceGraphic" in2="effect1_dropShadow_10661_62732" result="shape"/>
</filter>
<clipPath id="clip0_10661_62732">
<rect width="44" height="40.0045" fill="white" transform="translate(0.613281 0.145996)"/>
</clipPath>
<clipPath id="clip1_10661_62732">
<rect width="40" height="40.0045" fill="white" transform="translate(0.613281 0.145996)"/>
</clipPath>
<clipPath id="clip2_10661_62732">
<rect width="16" height="16" fill="white" transform="translate(28.6133 24.1505)"/>
</clipPath>
<clipPath id="clip3_10661_62732">
<rect width="16" height="16" fill="white" transform="translate(28.6133 24.1505)"/>
</clipPath>
</defs>
</svg>
