<svg width="20" height="21" viewBox="0 0 20 21" fill="none" xmlns="http://www.w3.org/2000/svg">
<g clip-path="url(#clip0_10721_106218)">
<g clip-path="url(#clip1_10721_106218)">
<ellipse cx="9.79184" cy="10.5469" rx="9.99887" ry="10" fill="#EDF0F4"/>
</g>
<path d="M9.91105 2.54688L9.80371 2.91153V13.492L9.91105 13.5991L14.8217 10.696L9.91105 2.54688Z" fill="#343434"/>
<path d="M9.91079 2.54688L5 10.696L9.91079 13.5991V8.46361V2.54688Z" fill="#8C8C8C"/>
<path d="M9.91108 14.5266L9.85059 14.6003V18.3693L9.91108 18.5459L14.8248 11.625L9.91108 14.5266Z" fill="#3C3C3B"/>
<path d="M9.91079 18.5459V14.5266L5 11.625L9.91079 18.5459Z" fill="#8C8C8C"/>
<path d="M9.91016 13.6003L14.8208 10.6972L9.91016 8.46484V13.6003Z" fill="#141414"/>
<path d="M5 10.6972L9.91079 13.6003V8.46484L5 10.6972Z" fill="#393939"/>
</g>
<defs>
<clipPath id="clip0_10721_106218">
<rect width="19.9977" height="20" fill="white" transform="translate(0.000976562 0.546875)"/>
</clipPath>
<clipPath id="clip1_10721_106218">
<rect width="19.9977" height="20" fill="white" transform="translate(0.000976562 0.546875)"/>
</clipPath>
</defs>
</svg>
