<svg width="33" height="33" viewBox="0 0 33 33" fill="none" xmlns="http://www.w3.org/2000/svg">
<g clip-path="url(#clip0)">
<path d="M16.5003 31.2142C24.6267 31.2142 31.2145 24.6265 31.2145 16.5001C31.2145 8.37364 24.6267 1.78589 16.5003 1.78589C8.37389 1.78589 1.78613 8.37364 1.78613 16.5001C1.78613 24.6265 8.37389 31.2142 16.5003 31.2142Z" fill="white"/>
<path d="M16.5 0C13.2366 0 10.0465 0.967708 7.3331 2.78075C4.61969 4.59379 2.50484 7.17074 1.256 10.1857C0.00714914 13.2007 -0.319606 16.5183 0.31705 19.719C0.953707 22.9197 2.52518 25.8597 4.83275 28.1673C7.14031 30.4748 10.0803 32.0463 13.281 32.683C16.4817 33.3196 19.7993 32.9929 22.8143 31.744C25.8293 30.4952 28.4062 28.3803 30.2193 25.6669C32.0323 22.9535 33 19.7634 33 16.5C33.0063 14.3395 32.587 12.1989 31.766 10.2004C30.9451 8.20194 29.7385 6.38474 28.2152 4.85258C26.692 3.32041 24.8818 2.10327 22.8882 1.27067C20.8945 0.43806 18.7564 0.00628665 16.5959 0H16.5ZM16.7797 17.0593L15.0618 22.8523H24.2506C24.3115 22.8502 24.3722 22.86 24.4292 22.8814C24.4863 22.9027 24.5385 22.9351 24.5831 22.9767C24.6276 23.0182 24.6635 23.0681 24.6887 23.1236C24.7139 23.179 24.728 23.2389 24.73 23.2998V23.4516L23.931 26.2082C23.8958 26.3386 23.8173 26.4531 23.7084 26.533C23.5995 26.6128 23.4667 26.6533 23.3317 26.6477H9.26877L11.6259 18.6174L8.98911 19.4165L9.58839 17.5787L12.2252 16.7797L15.5412 5.51332C15.5777 5.38368 15.6565 5.26999 15.7651 5.19035C15.8737 5.11071 16.0058 5.0697 16.1404 5.07385H19.6961C19.757 5.07171 19.8177 5.0816 19.8747 5.10294C19.9318 5.12427 19.9841 5.15665 20.0286 5.1982C20.0731 5.23976 20.109 5.28969 20.1342 5.34513C20.1594 5.40057 20.1735 5.46044 20.1756 5.52131V5.67312L17.3789 15.1816L20.0157 14.3826L19.4564 16.3002L16.7797 17.0593Z" fill="#345D9D"/>
<g clip-path="url(#clip1)">
<path d="M16.5808 15.5811L16.5781 15.5902V15.8543L16.5808 15.857L16.7034 15.7845L16.5808 15.5811Z" fill="#343434"/>
<path d="M16.5806 15.5811L16.458 15.7845L16.5806 15.857V15.7288V15.5811Z" fill="#8C8C8C"/>
<path d="M16.5806 15.8802L16.5791 15.882V15.9761L16.5806 15.9805L16.7033 15.8077L16.5806 15.8802Z" fill="#3C3C3B"/>
<path d="M16.5806 15.9805V15.8802L16.458 15.8077L16.5806 15.9805Z" fill="#8C8C8C"/>
<path d="M16.5801 15.8568L16.7027 15.7843L16.5801 15.7286V15.8568Z" fill="#141414"/>
<path d="M16.458 15.7843L16.5806 15.8568V15.7286L16.458 15.7843Z" fill="#393939"/>
</g>
</g>
<defs>
<clipPath id="clip0">
<rect width="33" height="33" fill="white"/>
</clipPath>
<clipPath id="clip1">
<rect width="0.399515" height="0.399515" fill="white" transform="translate(16.3809 15.5811)"/>
</clipPath>
</defs>
</svg>
