<svg width="45" height="41" viewBox="0 0 45 41" fill="none" xmlns="http://www.w3.org/2000/svg">
<g clip-path="url(#clip0_10661_62747)">
<circle cx="20.8516" cy="20.3978" r="20" fill="#EDF0F4"/>
<path d="M26.8521 16.3811C26.4256 16.1358 25.8773 16.1358 25.39 16.3811L21.9783 18.4048L19.6632 19.6927L16.3125 21.7164C15.8861 21.9617 15.3377 21.9617 14.8504 21.7164L12.2307 20.1219C11.8042 19.8766 11.4996 19.386 11.4996 18.8341V15.7678C11.4996 15.2772 11.7433 14.7866 12.2307 14.48L14.8504 12.9469C15.2768 12.7016 15.8251 12.7016 16.3125 12.9469L18.9322 14.5413C19.3586 14.7866 19.6632 15.2772 19.6632 15.8292V17.8529L21.9783 16.5037V14.4187C21.9783 13.9281 21.7346 13.4375 21.2472 13.1308L16.3734 10.2486C15.947 10.0032 15.3987 10.0032 14.9113 10.2486L9.91564 13.1922C9.42826 13.4375 9.18457 13.9281 9.18457 14.4187V20.1833C9.18457 20.6739 9.42826 21.1645 9.91564 21.4711L14.8504 24.3534C15.2768 24.5987 15.8251 24.5987 16.3125 24.3534L19.6632 22.391L21.9783 21.0418L25.329 19.0794C25.7555 18.8341 26.3038 18.8341 26.7912 19.0794L29.4109 20.6125C29.8373 20.8578 30.1419 21.3485 30.1419 21.9004V24.9666C30.1419 25.4573 29.8982 25.9479 29.4109 26.2545L26.8521 27.7876C26.4256 28.0329 25.8773 28.0329 25.39 27.7876L22.7703 26.2545C22.3438 26.0092 22.0392 25.5186 22.0392 24.9666V23.0042L19.7242 24.3534V26.3771C19.7242 26.8677 19.9679 27.3583 20.4552 27.665L25.39 30.5473C25.8164 30.7926 26.3647 30.7926 26.8521 30.5473L31.7868 27.665C32.2133 27.4197 32.5179 26.9291 32.5179 26.3771V20.5512C32.5179 20.0606 32.2742 19.57 31.7868 19.2634L26.8521 16.3811Z" fill="#8247E5"/>
<g filter="url(#filter0_d_10661_62747)">
<g filter="url(#filter1_d_10661_62747)">
<circle cx="36.8516" cy="32.3978" r="8" fill="#EDF0F4"/>
</g>
<path d="M39.2516 30.7911C39.081 30.693 38.8617 30.693 38.6667 30.7911L37.3021 31.6006L36.376 32.1158L35.0357 32.9253C34.8652 33.0234 34.6458 33.0234 34.4509 32.9253L33.403 32.2875C33.2324 32.1894 33.1106 31.9931 33.1106 31.7723V30.5458C33.1106 30.3496 33.2081 30.1533 33.403 30.0307L34.4509 29.4174C34.6215 29.3193 34.8408 29.3193 35.0357 29.4174L36.0836 30.0552C36.2542 30.1533 36.376 30.3496 36.376 30.5704V31.3799L37.3021 30.8402V30.0062C37.3021 29.8099 37.2046 29.6137 37.0096 29.491L35.0601 28.3381C34.8895 28.24 34.6702 28.24 34.4753 28.3381L32.477 29.5156C32.282 29.6137 32.1846 29.8099 32.1846 30.0062V32.312C32.1846 32.5082 32.282 32.7045 32.477 32.8271L34.4509 33.9801C34.6215 34.0782 34.8408 34.0782 35.0357 33.9801L36.376 33.1951L37.3021 32.6554L38.6424 31.8705C38.8129 31.7723 39.0323 31.7723 39.2272 31.8705L40.2751 32.4837C40.4457 32.5818 40.5675 32.7781 40.5675 32.9988V34.2254C40.5675 34.4216 40.47 34.6178 40.2751 34.7405L39.2516 35.3537C39.081 35.4519 38.8617 35.4519 38.6667 35.3537L37.6189 34.7405C37.4483 34.6424 37.3264 34.4461 37.3264 34.2254V33.4404L36.4004 33.9801V34.7896C36.4004 34.9858 36.4979 35.182 36.6928 35.3047L38.6667 36.4576C38.8373 36.5557 39.0566 36.5557 39.2516 36.4576L41.2255 35.3047C41.3961 35.2066 41.5179 35.0103 41.5179 34.7896V32.4592C41.5179 32.2629 41.4204 32.0667 41.2255 31.9441L39.2516 30.7911Z" fill="#8247E5"/>
</g>
</g>
<defs>
<filter id="filter0_d_10661_62747" x="20.8516" y="18.3978" width="32" height="32" filterUnits="userSpaceOnUse" color-interpolation-filters="sRGB">
<feFlood flood-opacity="0" result="BackgroundImageFix"/>
<feColorMatrix in="SourceAlpha" type="matrix" values="0 0 0 0 0 0 0 0 0 0 0 0 0 0 0 0 0 0 127 0" result="hardAlpha"/>
<feOffset dy="2"/>
<feGaussianBlur stdDeviation="4"/>
<feComposite in2="hardAlpha" operator="out"/>
<feColorMatrix type="matrix" values="0 0 0 0 0.109804 0 0 0 0 0.176471 0 0 0 0 0.368627 0 0 0 0.05 0"/>
<feBlend mode="normal" in2="BackgroundImageFix" result="effect1_dropShadow_10661_62747"/>
<feBlend mode="normal" in="SourceGraphic" in2="effect1_dropShadow_10661_62747" result="shape"/>
</filter>
<filter id="filter1_d_10661_62747" x="20.8516" y="18.3978" width="32" height="32" filterUnits="userSpaceOnUse" color-interpolation-filters="sRGB">
<feFlood flood-opacity="0" result="BackgroundImageFix"/>
<feColorMatrix in="SourceAlpha" type="matrix" values="0 0 0 0 0 0 0 0 0 0 0 0 0 0 0 0 0 0 127 0" result="hardAlpha"/>
<feOffset dy="2"/>
<feGaussianBlur stdDeviation="4"/>
<feComposite in2="hardAlpha" operator="out"/>
<feColorMatrix type="matrix" values="0 0 0 0 0.109804 0 0 0 0 0.176471 0 0 0 0 0.368627 0 0 0 0.1 0"/>
<feBlend mode="normal" in2="BackgroundImageFix" result="effect1_dropShadow_10661_62747"/>
<feBlend mode="normal" in="SourceGraphic" in2="effect1_dropShadow_10661_62747" result="shape"/>
</filter>
<clipPath id="clip0_10661_62747">
<rect width="44" height="40" fill="white" transform="translate(0.851562 0.397827)"/>
</clipPath>
</defs>
</svg>
