<svg width="21" height="20" viewBox="0 0 21 20" fill="none" xmlns="http://www.w3.org/2000/svg">
<circle cx="10.6084" cy="10" r="10" fill="#EDF0F4"/>
<path d="M13.6087 7.99163C13.3954 7.86898 13.1213 7.86898 12.8776 7.99163L11.1718 9.0035L10.0142 9.64742L8.33887 10.6593C8.12564 10.7819 7.85149 10.7819 7.6078 10.6593L6.29797 9.86206C6.08474 9.73941 5.93243 9.49411 5.93243 9.21814V7.68501C5.93243 7.4397 6.05428 7.1944 6.29797 7.04109L7.6078 6.27452C7.82103 6.15187 8.09518 6.15187 8.33887 6.27452L9.64871 7.07175C9.86194 7.1944 10.0142 7.4397 10.0142 7.71567V8.72754L11.1718 8.05296V7.01043C11.1718 6.76512 11.0499 6.51982 10.8062 6.36651L8.36933 4.92536C8.1561 4.80271 7.88195 4.80271 7.63826 4.92536L5.14044 6.39717C4.89675 6.51982 4.7749 6.76512 4.7749 7.01043V9.89272C4.7749 10.138 4.89675 10.3833 5.14044 10.5366L7.6078 11.9778C7.82103 12.1004 8.09518 12.1004 8.33887 11.9778L10.0142 10.9966L11.1718 10.322L12.8471 9.34079C13.0604 9.21814 13.3345 9.21814 13.5782 9.34079L14.888 10.1074C15.1013 10.23 15.2536 10.4753 15.2536 10.7513V12.2844C15.2536 12.5297 15.1317 12.775 14.888 12.9283L13.6087 13.6949C13.3954 13.8175 13.1213 13.8175 12.8776 13.6949L11.5678 12.9283C11.3545 12.8057 11.2022 12.5604 11.2022 12.2844V11.3032L10.0447 11.9778V12.9897C10.0447 13.235 10.1665 13.4803 10.4102 13.6336L12.8776 15.0747C13.0908 15.1974 13.365 15.1974 13.6087 15.0747L16.076 13.6336C16.2893 13.5109 16.4416 13.2656 16.4416 12.9897V10.0767C16.4416 9.8314 16.3197 9.58609 16.076 9.43278L13.6087 7.99163Z" fill="#8247E5"/>
</svg>
