<svg width="45" height="41" viewBox="0 0 45 41" fill="none" xmlns="http://www.w3.org/2000/svg">
<g clip-path="url(#clip0_10661_62756)">
<path fill-rule="evenodd" clip-rule="evenodd" d="M20.3633 40.7314C9.36328 40.7314 0.363281 31.7316 0.363281 20.6319C0.463281 9.63209 9.36328 0.632273 20.4633 0.732271C31.4633 0.832269 40.3633 9.73209 40.3633 20.9319C40.2633 31.8316 31.3633 40.7314 20.3633 40.7314Z" fill="#EDF0F4"/>
<path fill-rule="evenodd" clip-rule="evenodd" d="M12.8388 12.7107C12.4754 10.8148 13.9289 9.06482 15.8184 9.06482C17.49 9.06482 18.8708 10.4502 18.8708 12.1273V15.919C19.3068 15.919 19.7429 15.8461 20.1789 15.8461C20.615 15.8461 20.9784 15.8461 21.4144 15.919V12.1273C21.4144 10.4502 22.7952 9.06482 24.4668 9.06482C26.3563 9.06482 27.8098 10.8148 27.5191 12.7107L26.7197 17.1586C29.554 18.3982 31.7343 20.5857 31.7343 23.2836V24.9607C31.7343 27.2211 30.2808 29.1169 28.1732 30.3565C26.0656 31.669 23.304 32.3982 20.1789 32.3982C17.0539 32.3982 14.2923 31.669 12.1847 30.3565C10.1498 29.1169 8.69629 27.2211 8.69629 24.9607V23.2836C8.69629 20.5857 10.8039 18.3982 13.6382 17.1586L12.8388 12.7107ZM25.6298 17.7419L26.5746 12.4919C26.7926 11.1794 25.8478 9.93984 24.467 9.93984C23.3042 9.93984 22.3594 10.8878 22.3594 12.0544V16.8669C22.0687 16.794 21.7053 16.794 21.4146 16.794C20.9786 16.794 20.6152 16.7211 20.1792 16.7211C19.7431 16.7211 19.3071 16.7211 18.871 16.794C18.5803 16.794 18.2169 16.8669 17.9262 16.8669V12.1273C17.9262 10.9607 16.9815 10.0128 15.8187 10.0128C14.5105 10.0128 13.4931 11.2523 13.7838 12.5648L14.7285 17.8148C11.6762 18.9815 9.64128 21.0232 9.64128 23.3565V25.0336C9.64128 28.6065 14.3652 31.5232 20.1792 31.5232C25.9932 31.5232 30.717 28.6065 30.717 25.0336V23.3565C30.7897 20.9503 28.7548 18.9086 25.6298 17.7419Z" fill="#633001"/>
<path d="M30.7758 24.9404C30.7758 28.5585 26.0257 31.5121 20.1794 31.5121C14.3331 31.5121 9.58301 28.5585 9.58301 24.9404V23.2421H30.8488V24.9404H30.7758Z" fill="#FEDC90"/>
<path fill-rule="evenodd" clip-rule="evenodd" d="M13.6895 12.4973C13.3962 11.1877 14.4228 9.95093 15.7428 9.95093C16.9161 9.95093 17.8693 10.8967 17.8693 12.0608V16.8625C18.6026 16.7898 19.336 16.717 20.1426 16.717C20.8759 16.717 21.6092 16.7898 22.3425 16.8625V12.0608C22.3425 10.8967 23.2958 9.95093 24.4691 9.95093C25.789 9.95093 26.8157 11.1877 26.5957 12.4973L25.6424 17.7356C28.7222 18.8996 30.8488 20.9368 30.8488 23.2649C30.8488 26.8298 26.0824 29.74 20.2159 29.74C14.3495 29.74 9.58301 26.8298 9.58301 23.2649C9.58301 20.9368 11.6363 18.8996 14.7161 17.7356L13.6895 12.4973Z" fill="#D1884F"/>
<path d="M17.2623 22.9467C17.2623 23.9066 16.7454 24.7189 16.0808 24.7189C15.4163 24.7189 14.8994 23.9066 14.8994 22.9467C14.8994 21.9868 15.4163 21.1746 16.0808 21.1746C16.7454 21.1746 17.2623 21.9868 17.2623 22.9467Z" fill="#633001"/>
<path d="M25.5318 22.9467C25.5318 23.9066 25.0149 24.7189 24.3504 24.7189C23.6858 24.7189 23.1689 23.9066 23.1689 22.9467C23.1689 21.9868 23.6858 21.1746 24.3504 21.1746C25.0149 21.1746 25.5318 21.9868 25.5318 22.9467Z" fill="#633001"/>
<g filter="url(#filter0_d_10661_62756)">
<circle cx="36.3633" cy="32.5876" r="8" fill="#EDF0F4"/>
</g>
<path d="M34.0328 31.6302L36.3633 29.2997L38.6949 31.6312L40.0509 30.2752L36.3633 26.5876L32.6769 30.2741L34.0328 31.6302ZM30.3633 32.5877L31.7193 31.2314L33.0753 32.5874L31.7192 33.9434L30.3633 32.5877ZM34.0328 33.5453L36.3633 35.8757L38.6948 33.5442L40.0516 34.8995L40.0509 34.9002L36.3633 38.5877L32.6769 34.9013L32.675 34.8994L34.0328 33.5453ZM39.6513 32.5882L41.0073 31.2322L42.3633 32.5882L41.0073 33.9442L39.6513 32.5882Z" fill="#F3BA2F"/>
<path d="M37.7383 32.5869H37.7389L36.363 31.2109L35.346 32.2276L35.2292 32.3445L34.9882 32.5855L34.9863 32.5874L34.9882 32.5894L36.363 33.9643L37.739 32.5884L37.7397 32.5876L37.7384 32.5869" fill="#F3BA2F"/>
</g>
<defs>
<filter id="filter0_d_10661_62756" x="20.3633" y="18.5876" width="32" height="32" filterUnits="userSpaceOnUse" color-interpolation-filters="sRGB">
<feFlood flood-opacity="0" result="BackgroundImageFix"/>
<feColorMatrix in="SourceAlpha" type="matrix" values="0 0 0 0 0 0 0 0 0 0 0 0 0 0 0 0 0 0 127 0" result="hardAlpha"/>
<feOffset dy="2"/>
<feGaussianBlur stdDeviation="4"/>
<feComposite in2="hardAlpha" operator="out"/>
<feColorMatrix type="matrix" values="0 0 0 0 0.109804 0 0 0 0 0.176471 0 0 0 0 0.368627 0 0 0 0.1 0"/>
<feBlend mode="normal" in2="BackgroundImageFix" result="effect1_dropShadow_10661_62756"/>
<feBlend mode="normal" in="SourceGraphic" in2="effect1_dropShadow_10661_62756" result="shape"/>
</filter>
<clipPath id="clip0_10661_62756">
<rect width="44" height="40" fill="white" transform="translate(0.363281 0.731445)"/>
</clipPath>
</defs>
</svg>
