<svg width="45" height="41" viewBox="0 0 45 41" fill="none" xmlns="http://www.w3.org/2000/svg">
<g clip-path="url(#clip0_10661_62745)">
<path d="M20.2324 40.1478C31.2784 40.1478 40.2324 31.1938 40.2324 20.1478C40.2324 9.10183 31.2784 0.147827 20.2324 0.147827C9.18642 0.147827 0.232422 9.10183 0.232422 20.1478C0.232422 31.1938 9.18642 40.1478 20.2324 40.1478Z" fill="#EDF0F4"/>
<path d="M17.7973 17.2357V8.35706C17.7973 8.35706 14.9199 9.7875 14.9199 12.8293C14.9199 15.871 17.7973 17.2357 17.7973 17.2357Z" fill="#006E3C"/>
<path d="M17.7969 8.35706C17.7969 8.35706 20.6742 9.7875 20.6742 12.8293C20.6742 15.871 17.7969 17.2357 17.7969 17.2357V8.35706Z" fill="#00B43C"/>
<path d="M24.4888 21.3957L28.4348 19.1596C28.4348 19.1596 27.0702 18.2389 25.7219 19.0116C24.3737 19.7844 24.4888 21.3957 24.4888 21.3957Z" fill="#006E3C"/>
<path d="M28.4353 19.1595C28.4353 19.1595 28.5175 20.8037 27.1693 21.5601C25.8211 22.3328 24.4893 21.3956 24.4893 21.3956L28.4353 19.1595Z" fill="#00B43C"/>
<path fill-rule="evenodd" clip-rule="evenodd" d="M28.6252 18.7942L28.6322 18.7978L28.8623 18.9458V19.1924C28.8623 19.2582 28.7801 21.149 27.3826 21.9546C26.9551 22.2013 26.5111 22.2835 26.1001 22.2835C25.426 22.2835 24.8176 22.0533 24.5217 21.9053L23.9955 22.2013C24.012 22.2999 24.0284 22.415 24.0284 22.5301C24.0284 23.1878 23.5845 23.7304 22.9926 23.9112V26.7721C23.5845 26.9365 24.0284 27.4956 24.0284 28.1532C24.0284 28.9589 23.3707 29.6001 22.5815 29.6001C22.154 29.6001 21.7759 29.4193 21.5128 29.1233L19.1945 30.4551C19.2274 30.5702 19.2438 30.6853 19.2438 30.8004C19.2438 31.5896 18.5861 32.2308 17.7969 32.2308C16.9913 32.2308 16.35 31.5896 16.35 30.8004C16.35 30.6853 16.3665 30.5702 16.3994 30.4551L14.081 29.1233C13.818 29.4193 13.4398 29.6001 13.0123 29.6001C12.2067 29.6001 11.5654 28.9425 11.5654 28.1532C11.5654 27.4956 12.0094 26.953 12.6013 26.7721V23.9112C12.0094 23.7468 11.5654 23.1878 11.5654 22.5301C11.5654 21.7245 12.2231 21.0832 13.0123 21.0832C13.4069 21.0832 13.7522 21.2476 14.0153 21.4943L16.3994 20.1131C16.3665 19.998 16.35 19.883 16.35 19.7679C16.35 19.1102 16.7775 18.5512 17.3859 18.3867V17.5318C16.6953 17.0714 14.4921 15.4601 14.4921 12.8787C14.4921 9.88626 17.4516 8.02832 17.5832 7.94611L17.7969 7.81458L18.0107 7.94611C18.1422 8.02832 21.1018 9.88626 21.1018 12.8787C21.1018 15.4601 18.8985 17.0878 18.208 17.5318V18.3867C18.7999 18.5512 19.2438 19.1102 19.2438 19.7679C19.2438 19.883 19.2274 19.998 19.1945 20.1131L21.5621 21.4943C21.8252 21.2312 22.1705 21.0832 22.5651 21.0832C22.9597 21.0832 23.305 21.2476 23.568 21.4943L24.0942 21.1983C24.1435 20.6557 24.3573 19.3568 25.4917 18.6991C26.8734 17.8958 28.4906 18.7252 28.6252 18.7942ZM22.5815 23.1551C22.7295 23.1551 22.8611 23.1057 22.9762 23.0235C23.0912 22.9249 23.1735 22.7933 23.1899 22.596C23.2063 22.5631 23.2063 22.5303 23.2063 22.4974C23.2063 22.2343 23.0419 22.0041 22.8117 21.9055C22.746 21.8726 22.6473 21.8561 22.5651 21.8561C22.4829 21.8561 22.4007 21.8726 22.3349 21.9055C22.1212 21.9877 21.9732 22.185 21.9403 22.4152V22.4974V22.596C21.9732 22.7604 22.0554 22.9084 22.1869 23.0071C22.2363 23.0564 22.2856 23.0893 22.3514 23.1057C22.4336 23.1386 22.4993 23.1551 22.5815 23.1551ZM23.2064 28.1532C23.2064 28.5149 22.9104 28.7945 22.5651 28.7945C22.45 28.7945 22.3185 28.7616 22.2363 28.6958C22.0554 28.5807 21.9239 28.3834 21.9239 28.1532V28.1368C21.9239 28.071 21.9403 28.0052 21.9568 27.9395C21.9897 27.8244 22.0719 27.7257 22.1705 27.6435C22.2527 27.5778 22.3514 27.5284 22.45 27.512C22.4648 27.512 22.4796 27.5087 22.4959 27.505C22.5158 27.5005 22.538 27.4955 22.5651 27.4955C22.7131 27.4955 22.8611 27.5449 22.9597 27.6271C23.1242 27.7586 23.2064 27.9395 23.2064 28.1532ZM21.6443 27.0518C21.7922 26.9203 21.9731 26.8216 22.1704 26.7723V23.9114C21.9402 23.8456 21.7429 23.7305 21.5785 23.5661L19.178 24.9637C19.2273 25.0788 19.2437 25.2267 19.2437 25.3583C19.2437 25.4444 19.2312 25.518 19.2171 25.6009L19.2108 25.6378L21.6443 27.0518ZM17.7967 31.4417C17.4679 31.4417 17.2048 31.2115 17.1555 30.8991V30.8004C17.1555 30.5374 17.3199 30.3072 17.5501 30.2085C17.6323 30.1756 17.7145 30.1592 17.7967 30.1592C17.8789 30.1592 17.9611 30.1756 18.0433 30.2085C18.2735 30.3072 18.438 30.5374 18.438 30.8004V30.8991C18.3886 31.195 18.1091 31.4417 17.7967 31.4417ZM13.9496 27.0518L16.383 25.6378C16.3666 25.5556 16.3501 25.4569 16.3501 25.3583C16.3501 25.2103 16.383 25.0788 16.4159 24.9472L14.0154 23.5661C13.8509 23.7305 13.6536 23.8456 13.4234 23.9114V26.7723C13.6207 26.8216 13.8016 26.9203 13.9496 27.0518ZM13.6699 28.1533C13.6699 28.3835 13.5548 28.5808 13.3575 28.6959C13.2589 28.7617 13.1438 28.7945 13.0287 28.7945C12.667 28.7945 12.3875 28.4986 12.3875 28.1533C12.3875 27.956 12.4861 27.7587 12.6341 27.6436C12.7492 27.5614 12.8807 27.5121 13.0287 27.5121C13.0616 27.5121 13.1109 27.5121 13.1438 27.5285C13.2589 27.545 13.3411 27.5943 13.4233 27.6601C13.522 27.7258 13.5877 27.8409 13.6371 27.956C13.6535 28.0218 13.6699 28.0875 13.6699 28.1533ZM13.0123 21.8891C12.667 21.8891 12.3711 22.1686 12.3711 22.5303C12.3711 22.7276 12.4697 22.9085 12.6012 23.0729C12.6999 23.1551 12.8479 23.2044 12.9959 23.2044C13.0781 23.2044 13.1603 23.188 13.226 23.1551C13.2918 23.1222 13.3411 23.0893 13.3904 23.0565L13.3905 23.0565C13.522 22.9578 13.6206 22.8098 13.6371 22.6454V22.5468V22.4481C13.6042 22.2179 13.4562 22.0206 13.2425 21.9384C13.1767 21.9055 13.0945 21.8891 13.0123 21.8891ZM17.4021 19.2583C17.5172 19.1761 17.6488 19.1267 17.7968 19.1267C17.9447 19.1267 18.0927 19.1761 18.1914 19.2583C18.3229 19.3569 18.4051 19.5049 18.4215 19.6693V19.768C18.4215 19.9653 18.3229 20.1626 18.1749 20.2777L18.1749 20.2777C18.1256 20.3106 18.0763 20.3434 18.0105 20.3763C17.9447 20.4092 17.8625 20.4257 17.7803 20.4257C17.6981 20.4257 17.6159 20.4092 17.5501 20.3763C17.4844 20.3599 17.435 20.327 17.3857 20.2777C17.2377 20.1626 17.1391 19.9817 17.1391 19.768V19.6693C17.1884 19.5049 17.2706 19.3569 17.4021 19.2583ZM18.1914 25.8513C18.3393 25.7362 18.438 25.5718 18.438 25.3745C18.438 25.3745 18.438 25.3581 18.4051 25.3416C18.4051 25.2758 18.4051 25.2101 18.3887 25.1608C18.3558 25.0292 18.2736 24.9141 18.1749 24.8319C18.1091 24.7826 18.0269 24.7333 17.9447 24.7168C17.8954 24.7004 17.8461 24.7004 17.7803 24.7004C17.7145 24.7004 17.6652 24.7004 17.6159 24.7168C17.5172 24.7333 17.435 24.7826 17.3693 24.8319C17.2706 24.9306 17.1884 25.0457 17.1555 25.1772C17.1391 25.2265 17.1391 25.2758 17.1391 25.3416V25.3581C17.1391 25.5554 17.2377 25.7362 17.3857 25.8513C17.4186 25.8842 17.4515 25.9006 17.4844 25.9171C17.5666 25.9664 17.6652 25.9993 17.7803 25.9993C17.8954 25.9993 17.9941 25.9664 18.0927 25.9171C18.1091 25.9089 18.1256 25.8965 18.142 25.8842L18.1421 25.8842C18.1585 25.8719 18.1749 25.8595 18.1914 25.8513ZM21.1675 22.1849C21.1346 22.3 21.1181 22.4151 21.1181 22.5302C21.1181 22.6453 21.1346 22.7768 21.1675 22.8919L18.7505 24.2894C18.5861 24.1415 18.4052 24.0428 18.1915 23.9771V21.149C18.4216 21.0833 18.619 20.9682 18.7834 20.8038L21.1675 22.1849ZM17.797 8.78467C17.1558 9.24504 15.2979 10.7741 15.2979 12.8952C15.2979 14.6709 16.5968 15.9534 17.4024 16.5617V13.2076C17.4024 12.9938 17.5669 12.8129 17.797 12.8129C18.0108 12.8129 18.1917 12.9938 18.1917 13.2076V16.5617C18.9809 15.9534 20.2962 14.6709 20.2962 12.8952C20.2962 10.7741 18.4383 9.24504 17.797 8.78467ZM16.7941 20.8038C16.9585 20.9682 17.1722 21.0833 17.386 21.149V23.9771C17.1722 24.0428 16.9914 24.1415 16.8269 24.273L14.3935 22.8754C14.4264 22.7603 14.4429 22.6453 14.4429 22.5302C14.4429 22.4151 14.4264 22.3 14.3935 22.1849L16.7941 20.8038ZM14.4593 28.1532C14.4593 28.2354 14.4593 28.3176 14.4429 28.3998L16.7941 29.7645C16.9749 29.6001 17.1722 29.485 17.4024 29.4192V26.7392C17.1558 26.657 16.9256 26.5254 16.7612 26.3446L14.3935 27.7093C14.4429 27.8572 14.4593 28.0052 14.4593 28.1532ZM18.7998 29.7645C18.6354 29.6001 18.4216 29.485 18.1915 29.4192V26.7392C18.4381 26.6734 18.6683 26.5254 18.8327 26.3446L21.2003 27.7093C21.151 27.8408 21.1346 27.9888 21.1346 28.1532C21.1346 28.2354 21.1346 28.3176 21.151 28.3998L18.7998 29.7645ZM25.3766 21.3791C25.8369 21.4942 26.4288 21.5435 26.955 21.2475C27.7278 20.8036 27.9415 19.85 28.0073 19.406C27.5798 19.2252 26.6426 18.9457 25.8863 19.3896C25.3601 19.702 25.097 20.2446 24.982 20.6885L25.7712 20.2281C25.9685 20.113 26.1987 20.1788 26.3138 20.3761C26.4288 20.5734 26.3631 20.8036 26.1658 20.9187L25.3766 21.3791Z" fill="black"/>
<g filter="url(#filter0_d_10661_62745)">
<g filter="url(#filter1_d_10661_62745)">
<path d="M36.2324 40.1478C40.6508 40.1478 44.2324 36.5662 44.2324 32.1478C44.2324 27.7294 40.6508 24.1478 36.2324 24.1478C31.814 24.1478 28.2324 27.7294 28.2324 32.1478C28.2324 36.5662 31.814 40.1478 36.2324 40.1478Z" fill="#EDF0F4"/>
</g>
<path d="M36.2584 30.983V27.4315C36.2584 27.4315 35.1074 28.0037 35.1074 29.2204C35.1074 30.4371 36.2584 30.983 36.2584 30.983Z" fill="#006E3C"/>
<path d="M36.2578 27.4315C36.2578 27.4315 37.4087 28.0037 37.4087 29.2204C37.4087 30.4371 36.2578 30.983 36.2578 30.983V27.4315Z" fill="#00B43C"/>
<path d="M38.9346 32.6471L40.513 31.7527C40.513 31.7527 39.9671 31.3844 39.4278 31.6935C38.8885 32.0026 38.9346 32.6471 38.9346 32.6471Z" fill="#006E3C"/>
<path d="M40.513 31.7526C40.513 31.7526 40.5459 32.4102 40.0066 32.7128C39.4673 33.0219 38.9346 32.647 38.9346 32.647L40.513 31.7526Z" fill="#00B43C"/>
<path fill-rule="evenodd" clip-rule="evenodd" d="M40.5895 31.6065L40.5923 31.6079L40.6844 31.6671V31.7657C40.6844 31.792 40.6515 32.5484 40.0925 32.8706C39.9215 32.9693 39.7439 33.0022 39.5795 33.0022C39.3098 33.0022 39.0665 32.9101 38.9481 32.8509L38.7377 32.9693C38.7442 33.0087 38.7508 33.0548 38.7508 33.1008C38.7508 33.3639 38.5732 33.5809 38.3365 33.6533V34.7976C38.5732 34.8634 38.7508 35.087 38.7508 35.3501C38.7508 35.6723 38.4877 35.9288 38.1721 35.9288C38.0011 35.9288 37.8498 35.8565 37.7446 35.7381L36.8172 36.2708C36.8304 36.3169 36.837 36.3629 36.837 36.4089C36.837 36.7246 36.5739 36.9811 36.2582 36.9811C35.936 36.9811 35.6795 36.7246 35.6795 36.4089C35.6795 36.3629 35.686 36.3169 35.6992 36.2708L34.7719 35.7381C34.6666 35.8565 34.5154 35.9288 34.3444 35.9288C34.0221 35.9288 33.7656 35.6658 33.7656 35.3501C33.7656 35.087 33.9432 34.87 34.18 34.7976V33.6533C33.9432 33.5875 33.7656 33.3639 33.7656 33.1008C33.7656 32.7785 34.0287 32.5221 34.3444 32.5221C34.5022 32.5221 34.6403 32.5878 34.7456 32.6865L35.6992 32.134C35.686 32.088 35.6795 32.042 35.6795 31.9959C35.6795 31.7328 35.8505 31.5092 36.0938 31.4435V31.1015C35.8176 30.9173 34.9363 30.2728 34.9363 29.2402C34.9363 28.0433 36.1201 27.3001 36.1727 27.2672L36.2582 27.2146L36.3437 27.2672C36.3963 27.3001 37.5802 28.0433 37.5802 29.2402C37.5802 30.2728 36.6989 30.9239 36.4226 31.1015V31.4435C36.6594 31.5092 36.837 31.7328 36.837 31.9959C36.837 32.042 36.8304 32.088 36.8172 32.134L37.7643 32.6865C37.8695 32.5812 38.0076 32.5221 38.1655 32.5221C38.3233 32.5221 38.4614 32.5878 38.5667 32.6865L38.7771 32.5681C38.7969 32.3511 38.8824 31.8315 39.3362 31.5684C39.8888 31.2471 40.5357 31.5789 40.5895 31.6065ZM38.1721 33.3507C38.2313 33.3507 38.2839 33.331 38.3299 33.2981C38.376 33.2587 38.4089 33.2061 38.4154 33.1271C38.422 33.114 38.422 33.1008 38.422 33.0877C38.422 32.9824 38.3563 32.8904 38.2642 32.8509C38.2379 32.8378 38.1984 32.8312 38.1655 32.8312C38.1326 32.8312 38.0998 32.8378 38.0735 32.8509C37.988 32.8838 37.9288 32.9627 37.9156 33.0548V33.0877V33.1271C37.9288 33.1929 37.9616 33.2521 38.0143 33.2916C38.034 33.3113 38.0537 33.3244 38.08 33.331C38.1129 33.3442 38.1392 33.3507 38.1721 33.3507ZM38.4221 35.3501C38.4221 35.4948 38.3037 35.6066 38.1656 35.6066C38.1195 35.6066 38.0669 35.5934 38.034 35.5671C37.9617 35.5211 37.9091 35.4422 37.9091 35.3501V35.3435C37.9091 35.3172 37.9156 35.2909 37.9222 35.2646C37.9354 35.2186 37.9683 35.1791 38.0077 35.1462C38.0406 35.1199 38.0801 35.1002 38.1195 35.0936C38.1254 35.0936 38.1313 35.0923 38.1379 35.0908L38.1379 35.0908C38.1458 35.089 38.1547 35.087 38.1656 35.087C38.2247 35.087 38.2839 35.1068 38.3234 35.1396C38.3892 35.1923 38.4221 35.2646 38.4221 35.3501ZM37.7972 34.9095C37.8564 34.8569 37.9287 34.8175 38.0077 34.7977V33.6534C37.9156 33.6271 37.8367 33.581 37.7709 33.5153L36.8107 34.0743C36.8304 34.1203 36.837 34.1795 36.837 34.2321C36.837 34.2666 36.832 34.296 36.8263 34.3292L36.8238 34.3439L37.7972 34.9095ZM36.2581 36.6655C36.1266 36.6655 36.0213 36.5734 36.0016 36.4485V36.409C36.0016 36.3038 36.0674 36.2117 36.1595 36.1722C36.1923 36.1591 36.2252 36.1525 36.2581 36.1525C36.291 36.1525 36.3239 36.1591 36.3568 36.1722C36.4488 36.2117 36.5146 36.3038 36.5146 36.409V36.4485C36.4949 36.5668 36.3831 36.6655 36.2581 36.6655ZM34.7193 34.9095L35.6927 34.3439C35.6861 34.311 35.6795 34.2716 35.6795 34.2321C35.6795 34.1729 35.6927 34.1203 35.7058 34.0677L34.7456 33.5153C34.6799 33.581 34.6009 33.6271 34.5089 33.6534V34.7977C34.5878 34.8175 34.6601 34.8569 34.7193 34.9095ZM34.6074 35.3502C34.6074 35.4422 34.5614 35.5211 34.4824 35.5672C34.443 35.5935 34.3969 35.6066 34.3509 35.6066C34.2062 35.6066 34.0944 35.4883 34.0944 35.3502C34.0944 35.2712 34.1339 35.1923 34.1931 35.1463C34.2391 35.1134 34.2917 35.0937 34.3509 35.0937C34.3641 35.0937 34.3838 35.0937 34.3969 35.1002C34.443 35.1068 34.4759 35.1265 34.5088 35.1528C34.5482 35.1792 34.5745 35.2252 34.5943 35.2712C34.6008 35.2975 34.6074 35.3238 34.6074 35.3502ZM34.3444 32.8444C34.2063 32.8444 34.0879 32.9562 34.0879 33.1008C34.0879 33.1798 34.1273 33.2521 34.1799 33.3179C34.2194 33.3508 34.2786 33.3705 34.3378 33.3705C34.3707 33.3705 34.4036 33.3639 34.4299 33.3508C34.4562 33.3376 34.4759 33.3245 34.4956 33.3113C34.5482 33.2718 34.5877 33.2127 34.5943 33.1469V33.1074V33.068C34.5811 32.9759 34.5219 32.897 34.4364 32.8641C34.4101 32.8509 34.3772 32.8444 34.3444 32.8444ZM36.1003 31.7921C36.1463 31.7592 36.1989 31.7394 36.2581 31.7394C36.3173 31.7394 36.3765 31.7592 36.416 31.7921C36.4686 31.8315 36.5015 31.8907 36.5081 31.9565V31.9959C36.5081 32.0749 36.4686 32.1538 36.4094 32.1998C36.3897 32.213 36.3699 32.2261 36.3436 32.2393C36.3173 32.2524 36.2844 32.259 36.2516 32.259C36.2187 32.259 36.1858 32.2524 36.1595 32.2393C36.1332 32.2327 36.1134 32.2195 36.0937 32.1998C36.0345 32.1538 35.9951 32.0814 35.9951 31.9959V31.9565C36.0148 31.8907 36.0477 31.8315 36.1003 31.7921ZM36.416 34.4293C36.4752 34.3832 36.5146 34.3174 36.5146 34.2385C36.5146 34.2385 36.5146 34.2319 36.5015 34.2254C36.5015 34.1991 36.5015 34.1728 36.4949 34.153C36.4817 34.1004 36.4489 34.0544 36.4094 34.0215C36.3831 34.0018 36.3502 33.982 36.3173 33.9755C36.2976 33.9689 36.2779 33.9689 36.2516 33.9689C36.2252 33.9689 36.2055 33.9689 36.1858 33.9755C36.1463 33.982 36.1134 34.0018 36.0871 34.0215C36.0477 34.061 36.0148 34.107 36.0016 34.1596C35.9951 34.1793 35.9951 34.1991 35.9951 34.2254V34.2319C35.9951 34.3109 36.0345 34.3832 36.0937 34.4293C36.1069 34.4424 36.12 34.449 36.1332 34.4556C36.1661 34.4753 36.2055 34.4884 36.2516 34.4884C36.2976 34.4884 36.3371 34.4753 36.3765 34.4556C36.3831 34.4523 36.3897 34.4473 36.3962 34.4424C36.4028 34.4375 36.4094 34.4325 36.416 34.4293ZM37.6064 32.9628C37.5933 33.0088 37.5867 33.0549 37.5867 33.1009C37.5867 33.1469 37.5933 33.1996 37.6064 33.2456L36.6397 33.8046C36.5739 33.7454 36.5015 33.706 36.4161 33.6797V32.5485C36.5081 32.5221 36.587 32.4761 36.6528 32.4103L37.6064 32.9628ZM36.2583 27.6027C36.0018 27.7868 35.2586 28.3985 35.2586 29.2469C35.2586 29.9572 35.7782 30.4702 36.1005 30.7135V29.3718C36.1005 29.2864 36.1662 29.214 36.2583 29.214C36.3438 29.214 36.4161 29.2864 36.4161 29.3718V30.7135C36.7318 30.4702 37.258 29.9572 37.258 29.2469C37.258 28.3985 36.5148 27.7868 36.2583 27.6027ZM35.857 32.4103C35.9228 32.4761 36.0083 32.5221 36.0938 32.5485V33.6797C36.0083 33.706 35.9359 33.7454 35.8702 33.798L34.8968 33.239C34.91 33.193 34.9165 33.1469 34.9165 33.1009C34.9165 33.0549 34.91 33.0088 34.8968 32.9628L35.857 32.4103ZM34.9231 35.35C34.9231 35.3829 34.9231 35.4157 34.9165 35.4486L35.857 35.9945C35.9294 35.9287 36.0083 35.8827 36.1004 35.8564V34.7844C36.0017 34.7515 35.9096 34.6989 35.8439 34.6265L34.8968 35.1724C34.9165 35.2316 34.9231 35.2908 34.9231 35.35ZM36.6594 35.9945C36.5936 35.9287 36.5081 35.8827 36.4161 35.8564V34.7844C36.5147 34.7581 36.6068 34.6989 36.6725 34.6265L37.6196 35.1724C37.5999 35.225 37.5933 35.2842 37.5933 35.35C37.5933 35.3829 37.5933 35.4157 37.5999 35.4486L36.6594 35.9945ZM39.29 32.6405C39.4742 32.6865 39.7109 32.7062 39.9214 32.5878C40.2305 32.4103 40.316 32.0288 40.3423 31.8512C40.1713 31.7789 39.7964 31.6671 39.4939 31.8447C39.2834 31.9696 39.1782 32.1867 39.1322 32.3642L39.4479 32.1801C39.5268 32.134 39.6189 32.1603 39.6649 32.2393C39.7109 32.3182 39.6846 32.4103 39.6057 32.4563L39.29 32.6405Z" fill="black"/>
</g>
</g>
<defs>
<filter id="filter0_d_10661_62745" x="20.2324" y="18.1478" width="32" height="32" filterUnits="userSpaceOnUse" color-interpolation-filters="sRGB">
<feFlood flood-opacity="0" result="BackgroundImageFix"/>
<feColorMatrix in="SourceAlpha" type="matrix" values="0 0 0 0 0 0 0 0 0 0 0 0 0 0 0 0 0 0 127 0" result="hardAlpha"/>
<feOffset dy="2"/>
<feGaussianBlur stdDeviation="4"/>
<feComposite in2="hardAlpha" operator="out"/>
<feColorMatrix type="matrix" values="0 0 0 0 0.109804 0 0 0 0 0.176471 0 0 0 0 0.368627 0 0 0 0.05 0"/>
<feBlend mode="normal" in2="BackgroundImageFix" result="effect1_dropShadow_10661_62745"/>
<feBlend mode="normal" in="SourceGraphic" in2="effect1_dropShadow_10661_62745" result="shape"/>
</filter>
<filter id="filter1_d_10661_62745" x="20.2324" y="18.1478" width="32" height="32" filterUnits="userSpaceOnUse" color-interpolation-filters="sRGB">
<feFlood flood-opacity="0" result="BackgroundImageFix"/>
<feColorMatrix in="SourceAlpha" type="matrix" values="0 0 0 0 0 0 0 0 0 0 0 0 0 0 0 0 0 0 127 0" result="hardAlpha"/>
<feOffset dy="2"/>
<feGaussianBlur stdDeviation="4"/>
<feComposite in2="hardAlpha" operator="out"/>
<feColorMatrix type="matrix" values="0 0 0 0 0.109804 0 0 0 0 0.176471 0 0 0 0 0.368627 0 0 0 0.1 0"/>
<feBlend mode="normal" in2="BackgroundImageFix" result="effect1_dropShadow_10661_62745"/>
<feBlend mode="normal" in="SourceGraphic" in2="effect1_dropShadow_10661_62745" result="shape"/>
</filter>
<clipPath id="clip0_10661_62745">
<rect width="44" height="40" fill="white" transform="translate(0.232422 0.147827)"/>
</clipPath>
</defs>
</svg>
