<svg width="45" height="41" viewBox="0 0 45 41" fill="none" xmlns="http://www.w3.org/2000/svg">
<g clip-path="url(#clip0_10661_62746)">
<circle cx="20.2324" cy="20.1478" r="20" fill="#EDF0F4"/>
<path fill-rule="evenodd" clip-rule="evenodd" d="M17.2483 8.89784H19.1964C19.2325 8.89515 19.2613 8.86642 19.264 8.83027V6.88214C19.2613 6.846 19.2325 6.81726 19.1964 6.81458H17.2483C17.2121 6.81726 17.1834 6.846 17.1807 6.88214V8.83027C17.1801 8.84838 17.187 8.86594 17.1998 8.87875C17.2126 8.89156 17.2302 8.89847 17.2483 8.89784ZM19.1963 12.4787H17.2481C17.212 12.476 17.1832 12.4473 17.1806 12.4111V10.463C17.1832 10.4269 17.212 10.3981 17.2481 10.3954H19.1963C19.2324 10.3981 19.2611 10.4269 19.2638 10.463V12.4111C19.2611 12.4473 19.2324 12.476 19.1963 12.4787ZM19.1962 16.0485H13.1717C13.1536 16.0491 13.136 16.0422 13.1232 16.0294C13.1104 16.0166 13.1035 15.999 13.1041 15.9809V14.0328C13.1068 13.9966 13.1355 13.9679 13.1717 13.9652H19.1962C19.2324 13.9679 19.2611 13.9966 19.2638 14.0328V15.9809C19.2611 16.0171 19.2324 16.0458 19.1962 16.0485ZM8.91511 21.1158H6.96698C6.93084 21.1185 6.9021 21.1472 6.89941 21.1834V23.1315C6.9021 23.1677 6.93084 23.1964 6.96698 23.1991H8.91511C8.95125 23.1964 8.97999 23.1677 8.98268 23.1315V21.1834C8.97999 21.1472 8.95125 21.1185 8.91511 21.1158ZM14.1176 21.1158H16.0657C16.1018 21.1185 16.1306 21.1472 16.1333 21.1834V27.208C16.1306 27.2441 16.1018 27.2728 16.0657 27.2755H14.1176C14.0814 27.2728 14.0527 27.2441 14.05 27.208V21.1834C14.0527 21.1472 14.0814 21.1185 14.1176 21.1158ZM27.9797 19.1676H29.9278C29.964 19.1649 29.9927 19.1362 29.9954 19.1V17.1519C29.9927 17.1157 29.964 17.087 29.9278 17.0843H27.9797C27.9436 17.087 27.9148 17.1157 27.9121 17.1519V19.1C27.9095 19.1186 27.9157 19.1374 27.929 19.1507C27.9423 19.164 27.9611 19.1703 27.9797 19.1676ZM26.347 19.1679H24.3989C24.3807 19.1685 24.3632 19.1616 24.3504 19.1488C24.3376 19.136 24.3307 19.1184 24.3313 19.1003V13.0757C24.334 13.0396 24.3627 13.0109 24.3989 13.0082H26.347C26.3831 13.0109 26.4119 13.0396 26.4145 13.0757V19.1003C26.4119 19.1365 26.3831 19.1652 26.347 19.1679ZM10.548 21.1158H12.4961C12.5306 21.1219 12.5576 21.1489 12.5637 21.1834V23.1315C12.561 23.1677 12.5322 23.1964 12.4961 23.1991H10.548C10.5118 23.1964 10.4831 23.1677 10.4804 23.1315V21.1834C10.4831 21.1472 10.5118 21.1185 10.548 21.1158ZM27.3041 24.2465H21.2795C21.2434 24.2492 21.2147 24.2779 21.212 24.3141V26.2622C21.2147 26.2983 21.2434 26.3271 21.2795 26.3298H27.3041C27.3403 26.3271 27.369 26.2983 27.3717 26.2622V24.3141C27.3695 24.2777 27.3405 24.2487 27.3041 24.2465ZM22.8785 20.6991H31.4142C31.4323 20.6985 31.4499 20.7054 31.4627 20.7182C31.4755 20.731 31.4824 20.7486 31.4818 20.7667V22.6585C31.4791 22.6947 31.4504 22.7234 31.4142 22.7261H22.8785C22.8423 22.7234 22.8136 22.6947 22.8109 22.6585V20.7667C22.8136 20.7305 22.8423 20.7018 22.8785 20.6991ZM23.2164 27.8161H21.2683C21.2321 27.8188 21.2034 27.8475 21.2007 27.8837V29.8318C21.2034 29.868 21.2321 29.8967 21.2683 29.8994H23.2164C23.2526 29.8967 23.2813 29.868 23.284 29.8318V27.8837C23.2846 27.8656 23.2777 27.848 23.2649 27.8352C23.2521 27.8224 23.2345 27.8155 23.2164 27.8161ZM17.586 17.5687C17.6221 17.5714 17.6509 17.6001 17.6536 17.6362V19.5281C17.6509 19.5642 17.6221 19.5929 17.586 19.5956H9.05026C9.01411 19.5929 8.98538 19.5642 8.98269 19.5281V17.6362C8.98538 17.6001 9.01411 17.5714 9.05026 17.5687H17.586ZM33.4976 17.0958H31.5494C31.5133 17.0985 31.4846 17.1272 31.4819 17.1634V19.1115C31.4846 19.1476 31.5133 19.1764 31.5494 19.179H33.4976C33.5337 19.1764 33.5624 19.1476 33.5651 19.1115V17.1634C33.5678 17.1447 33.5616 17.126 33.5483 17.1127C33.535 17.0994 33.5162 17.0931 33.4976 17.0958ZM17.7212 22.7261H19.613C19.6492 22.7288 19.6779 22.7575 19.6806 22.7936V31.3294C19.6779 31.3655 19.6492 31.3943 19.613 31.397H17.7212C17.6851 31.3943 17.6563 31.3655 17.6536 31.3294V22.7936C17.6563 22.7575 17.6851 22.7288 17.7212 22.7261ZM22.811 17.5124V8.96542C22.8083 8.92927 22.7796 8.90054 22.7435 8.89785H20.8516C20.8155 8.90054 20.7868 8.92927 20.7841 8.96542V17.5124C20.7868 17.5486 20.8155 17.5773 20.8516 17.58H22.7435C22.7796 17.5773 22.8083 17.5486 22.811 17.5124ZM21.2683 31.397H23.2164C23.235 31.3944 23.2538 31.4006 23.2671 31.4139C23.2804 31.4272 23.2867 31.446 23.284 31.4646V33.4127C23.2813 33.4489 23.2526 33.4776 23.2164 33.4803H21.2683C21.2321 33.4776 21.2034 33.4489 21.2007 33.4127V31.4646C21.2034 31.4285 21.2321 31.3997 21.2683 31.397Z" fill="#149DD9"/>
<g filter="url(#filter0_d_10661_62746)">
<g filter="url(#filter1_d_10661_62746)">
<path d="M36.2324 40.1478C40.6508 40.1478 44.2324 36.5662 44.2324 32.1478C44.2324 27.7294 40.6508 24.1478 36.2324 24.1478C31.814 24.1478 28.2324 27.7294 28.2324 32.1478C28.2324 36.5662 31.814 40.1478 36.2324 40.1478Z" fill="#EDF0F4"/>
</g>
<path d="M36.2584 30.983V27.4315C36.2584 27.4315 35.1074 28.0037 35.1074 29.2204C35.1074 30.4371 36.2584 30.983 36.2584 30.983Z" fill="#006E3C"/>
<path d="M36.2578 27.4315C36.2578 27.4315 37.4087 28.0037 37.4087 29.2204C37.4087 30.4371 36.2578 30.983 36.2578 30.983V27.4315Z" fill="#00B43C"/>
<path d="M38.9346 32.6471L40.513 31.7527C40.513 31.7527 39.9671 31.3844 39.4278 31.6935C38.8885 32.0026 38.9346 32.6471 38.9346 32.6471Z" fill="#006E3C"/>
<path d="M40.513 31.7526C40.513 31.7526 40.5459 32.4102 40.0066 32.7128C39.4673 33.0219 38.9346 32.647 38.9346 32.647L40.513 31.7526Z" fill="#00B43C"/>
<path fill-rule="evenodd" clip-rule="evenodd" d="M40.5895 31.6065L40.5923 31.6079L40.6844 31.6671V31.7657C40.6844 31.792 40.6515 32.5484 40.0925 32.8706C39.9215 32.9693 39.7439 33.0022 39.5795 33.0022C39.3098 33.0022 39.0665 32.9101 38.9481 32.8509L38.7377 32.9693C38.7442 33.0087 38.7508 33.0548 38.7508 33.1008C38.7508 33.3639 38.5732 33.5809 38.3365 33.6533V34.7976C38.5732 34.8634 38.7508 35.087 38.7508 35.3501C38.7508 35.6723 38.4877 35.9288 38.1721 35.9288C38.0011 35.9288 37.8498 35.8565 37.7446 35.7381L36.8172 36.2708C36.8304 36.3169 36.837 36.3629 36.837 36.4089C36.837 36.7246 36.5739 36.9811 36.2582 36.9811C35.936 36.9811 35.6795 36.7246 35.6795 36.4089C35.6795 36.3629 35.686 36.3169 35.6992 36.2708L34.7719 35.7381C34.6666 35.8565 34.5154 35.9288 34.3444 35.9288C34.0221 35.9288 33.7656 35.6658 33.7656 35.3501C33.7656 35.087 33.9432 34.87 34.18 34.7976V33.6533C33.9432 33.5875 33.7656 33.3639 33.7656 33.1008C33.7656 32.7785 34.0287 32.5221 34.3444 32.5221C34.5022 32.5221 34.6403 32.5878 34.7456 32.6865L35.6992 32.134C35.686 32.088 35.6795 32.042 35.6795 31.9959C35.6795 31.7328 35.8505 31.5092 36.0938 31.4435V31.1015C35.8176 30.9173 34.9363 30.2728 34.9363 29.2402C34.9363 28.0433 36.1201 27.3001 36.1727 27.2672L36.2582 27.2146L36.3437 27.2672C36.3963 27.3001 37.5802 28.0433 37.5802 29.2402C37.5802 30.2728 36.6989 30.9239 36.4226 31.1015V31.4435C36.6594 31.5092 36.837 31.7328 36.837 31.9959C36.837 32.042 36.8304 32.088 36.8172 32.134L37.7643 32.6865C37.8695 32.5812 38.0076 32.5221 38.1655 32.5221C38.3233 32.5221 38.4614 32.5878 38.5667 32.6865L38.7771 32.5681C38.7969 32.3511 38.8824 31.8315 39.3362 31.5684C39.8888 31.2471 40.5357 31.5789 40.5895 31.6065ZM38.1721 33.3507C38.2313 33.3507 38.2839 33.331 38.3299 33.2981C38.376 33.2587 38.4089 33.2061 38.4154 33.1271C38.422 33.114 38.422 33.1008 38.422 33.0877C38.422 32.9824 38.3563 32.8904 38.2642 32.8509C38.2379 32.8378 38.1984 32.8312 38.1655 32.8312C38.1326 32.8312 38.0998 32.8378 38.0735 32.8509C37.988 32.8838 37.9288 32.9627 37.9156 33.0548V33.0877V33.1271C37.9288 33.1929 37.9616 33.2521 38.0143 33.2916C38.034 33.3113 38.0537 33.3244 38.08 33.331C38.1129 33.3442 38.1392 33.3507 38.1721 33.3507ZM38.4221 35.3501C38.4221 35.4948 38.3037 35.6066 38.1656 35.6066C38.1195 35.6066 38.0669 35.5934 38.034 35.5671C37.9617 35.5211 37.9091 35.4422 37.9091 35.3501V35.3435C37.9091 35.3172 37.9156 35.2909 37.9222 35.2646C37.9354 35.2186 37.9683 35.1791 38.0077 35.1462C38.0406 35.1199 38.0801 35.1002 38.1195 35.0936C38.1254 35.0936 38.1313 35.0923 38.1379 35.0908L38.1379 35.0908C38.1458 35.089 38.1547 35.087 38.1656 35.087C38.2247 35.087 38.2839 35.1068 38.3234 35.1396C38.3892 35.1923 38.4221 35.2646 38.4221 35.3501ZM37.7972 34.9095C37.8564 34.8569 37.9287 34.8175 38.0077 34.7977V33.6534C37.9156 33.6271 37.8367 33.581 37.7709 33.5153L36.8107 34.0743C36.8304 34.1203 36.837 34.1795 36.837 34.2321C36.837 34.2666 36.832 34.296 36.8263 34.3292L36.8238 34.3439L37.7972 34.9095ZM36.2581 36.6655C36.1266 36.6655 36.0213 36.5734 36.0016 36.4485V36.409C36.0016 36.3038 36.0674 36.2117 36.1595 36.1722C36.1923 36.1591 36.2252 36.1525 36.2581 36.1525C36.291 36.1525 36.3239 36.1591 36.3568 36.1722C36.4488 36.2117 36.5146 36.3038 36.5146 36.409V36.4485C36.4949 36.5668 36.3831 36.6655 36.2581 36.6655ZM34.7193 34.9095L35.6927 34.3439C35.6861 34.311 35.6795 34.2716 35.6795 34.2321C35.6795 34.1729 35.6927 34.1203 35.7058 34.0677L34.7456 33.5153C34.6799 33.581 34.6009 33.6271 34.5089 33.6534V34.7977C34.5878 34.8175 34.6601 34.8569 34.7193 34.9095ZM34.6074 35.3502C34.6074 35.4422 34.5614 35.5211 34.4824 35.5672C34.443 35.5935 34.3969 35.6066 34.3509 35.6066C34.2062 35.6066 34.0944 35.4883 34.0944 35.3502C34.0944 35.2712 34.1339 35.1923 34.1931 35.1463C34.2391 35.1134 34.2917 35.0937 34.3509 35.0937C34.3641 35.0937 34.3838 35.0937 34.3969 35.1002C34.443 35.1068 34.4759 35.1265 34.5088 35.1528C34.5482 35.1792 34.5745 35.2252 34.5943 35.2712C34.6008 35.2975 34.6074 35.3238 34.6074 35.3502ZM34.3444 32.8444C34.2063 32.8444 34.0879 32.9562 34.0879 33.1008C34.0879 33.1798 34.1273 33.2521 34.1799 33.3179C34.2194 33.3508 34.2786 33.3705 34.3378 33.3705C34.3707 33.3705 34.4036 33.3639 34.4299 33.3508C34.4562 33.3376 34.4759 33.3245 34.4956 33.3113C34.5482 33.2718 34.5877 33.2127 34.5943 33.1469V33.1074V33.068C34.5811 32.9759 34.5219 32.897 34.4364 32.8641C34.4101 32.8509 34.3772 32.8444 34.3444 32.8444ZM36.1003 31.7921C36.1463 31.7592 36.1989 31.7394 36.2581 31.7394C36.3173 31.7394 36.3765 31.7592 36.416 31.7921C36.4686 31.8315 36.5015 31.8907 36.5081 31.9565V31.9959C36.5081 32.0749 36.4686 32.1538 36.4094 32.1998C36.3897 32.213 36.3699 32.2261 36.3436 32.2393C36.3173 32.2524 36.2844 32.259 36.2516 32.259C36.2187 32.259 36.1858 32.2524 36.1595 32.2393C36.1332 32.2327 36.1134 32.2195 36.0937 32.1998C36.0345 32.1538 35.9951 32.0814 35.9951 31.9959V31.9565C36.0148 31.8907 36.0477 31.8315 36.1003 31.7921ZM36.416 34.4293C36.4752 34.3832 36.5146 34.3174 36.5146 34.2385C36.5146 34.2385 36.5146 34.2319 36.5015 34.2254C36.5015 34.1991 36.5015 34.1728 36.4949 34.153C36.4817 34.1004 36.4489 34.0544 36.4094 34.0215C36.3831 34.0018 36.3502 33.982 36.3173 33.9755C36.2976 33.9689 36.2779 33.9689 36.2516 33.9689C36.2252 33.9689 36.2055 33.9689 36.1858 33.9755C36.1463 33.982 36.1134 34.0018 36.0871 34.0215C36.0477 34.061 36.0148 34.107 36.0016 34.1596C35.9951 34.1793 35.9951 34.1991 35.9951 34.2254V34.2319C35.9951 34.3109 36.0345 34.3832 36.0937 34.4293C36.1069 34.4424 36.12 34.449 36.1332 34.4556C36.1661 34.4753 36.2055 34.4884 36.2516 34.4884C36.2976 34.4884 36.3371 34.4753 36.3765 34.4556C36.3831 34.4523 36.3897 34.4473 36.3962 34.4424C36.4028 34.4375 36.4094 34.4325 36.416 34.4293ZM37.6064 32.9628C37.5933 33.0088 37.5867 33.0549 37.5867 33.1009C37.5867 33.1469 37.5933 33.1996 37.6064 33.2456L36.6397 33.8046C36.5739 33.7454 36.5015 33.706 36.4161 33.6797V32.5485C36.5081 32.5221 36.587 32.4761 36.6528 32.4103L37.6064 32.9628ZM36.2583 27.6027C36.0018 27.7868 35.2586 28.3985 35.2586 29.2469C35.2586 29.9572 35.7782 30.4702 36.1005 30.7135V29.3718C36.1005 29.2864 36.1662 29.214 36.2583 29.214C36.3438 29.214 36.4161 29.2864 36.4161 29.3718V30.7135C36.7318 30.4702 37.258 29.9572 37.258 29.2469C37.258 28.3985 36.5148 27.7868 36.2583 27.6027ZM35.857 32.4103C35.9228 32.4761 36.0083 32.5221 36.0938 32.5485V33.6797C36.0083 33.706 35.9359 33.7454 35.8702 33.798L34.8968 33.239C34.91 33.193 34.9165 33.1469 34.9165 33.1009C34.9165 33.0549 34.91 33.0088 34.8968 32.9628L35.857 32.4103ZM34.9231 35.35C34.9231 35.3829 34.9231 35.4157 34.9165 35.4486L35.857 35.9945C35.9294 35.9287 36.0083 35.8827 36.1004 35.8564V34.7844C36.0017 34.7515 35.9096 34.6989 35.8439 34.6265L34.8968 35.1724C34.9165 35.2316 34.9231 35.2908 34.9231 35.35ZM36.6594 35.9945C36.5936 35.9287 36.5081 35.8827 36.4161 35.8564V34.7844C36.5147 34.7581 36.6068 34.6989 36.6725 34.6265L37.6196 35.1724C37.5999 35.225 37.5933 35.2842 37.5933 35.35C37.5933 35.3829 37.5933 35.4157 37.5999 35.4486L36.6594 35.9945ZM39.29 32.6405C39.4742 32.6865 39.7109 32.7062 39.9214 32.5878C40.2305 32.4103 40.316 32.0288 40.3423 31.8512C40.1713 31.7789 39.7964 31.6671 39.4939 31.8447C39.2834 31.9696 39.1782 32.1867 39.1322 32.3642L39.4479 32.1801C39.5268 32.134 39.6189 32.1603 39.6649 32.2393C39.7109 32.3182 39.6846 32.4103 39.6057 32.4563L39.29 32.6405Z" fill="black"/>
</g>
</g>
<defs>
<filter id="filter0_d_10661_62746" x="20.2324" y="18.1478" width="32" height="32" filterUnits="userSpaceOnUse" color-interpolation-filters="sRGB">
<feFlood flood-opacity="0" result="BackgroundImageFix"/>
<feColorMatrix in="SourceAlpha" type="matrix" values="0 0 0 0 0 0 0 0 0 0 0 0 0 0 0 0 0 0 127 0" result="hardAlpha"/>
<feOffset dy="2"/>
<feGaussianBlur stdDeviation="4"/>
<feComposite in2="hardAlpha" operator="out"/>
<feColorMatrix type="matrix" values="0 0 0 0 0.109804 0 0 0 0 0.176471 0 0 0 0 0.368627 0 0 0 0.05 0"/>
<feBlend mode="normal" in2="BackgroundImageFix" result="effect1_dropShadow_10661_62746"/>
<feBlend mode="normal" in="SourceGraphic" in2="effect1_dropShadow_10661_62746" result="shape"/>
</filter>
<filter id="filter1_d_10661_62746" x="20.2324" y="18.1478" width="32" height="32" filterUnits="userSpaceOnUse" color-interpolation-filters="sRGB">
<feFlood flood-opacity="0" result="BackgroundImageFix"/>
<feColorMatrix in="SourceAlpha" type="matrix" values="0 0 0 0 0 0 0 0 0 0 0 0 0 0 0 0 0 0 127 0" result="hardAlpha"/>
<feOffset dy="2"/>
<feGaussianBlur stdDeviation="4"/>
<feComposite in2="hardAlpha" operator="out"/>
<feColorMatrix type="matrix" values="0 0 0 0 0.109804 0 0 0 0 0.176471 0 0 0 0 0.368627 0 0 0 0.1 0"/>
<feBlend mode="normal" in2="BackgroundImageFix" result="effect1_dropShadow_10661_62746"/>
<feBlend mode="normal" in="SourceGraphic" in2="effect1_dropShadow_10661_62746" result="shape"/>
</filter>
<clipPath id="clip0_10661_62746">
<rect width="44" height="40" fill="white" transform="translate(0.232422 0.147827)"/>
</clipPath>
</defs>
</svg>
