<svg width="45" height="41" viewBox="0 0 45 41" fill="none" xmlns="http://www.w3.org/2000/svg">
<g clip-path="url(#clip0_10661_62748)">
<g clip-path="url(#clip1_10661_62748)">
<circle cx="20.8516" cy="20.3978" r="20" fill="#EDF0F4"/>
<path d="M13.8406 7.89783H28.306C28.3366 7.89783 28.3658 7.91098 28.3861 7.93394L30.534 10.1298C30.7167 10.3166 30.8191 10.5676 30.8191 10.829V14.435C30.8191 14.9873 30.3714 15.435 29.8191 15.435H24.3731C23.8208 15.435 23.3731 14.9873 23.3731 14.435V13.9095C23.3731 13.3572 22.9254 12.9095 22.3731 12.9095H19.4108C18.8585 12.9095 18.4108 13.3572 18.4108 13.9095V16.8982C18.4108 17.4504 18.8585 17.8982 19.4108 17.8982H27.8748C28.14 17.8982 28.3943 18.0035 28.5819 18.1911L30.4519 20.0611C30.6394 20.2486 30.7448 20.503 30.7448 20.7682V29.9557C30.7448 30.221 30.6394 30.4753 30.4519 30.6629L28.5098 32.6049C28.3223 32.7925 28.0679 32.8978 27.8027 32.8978H13.9474C13.6822 32.8978 13.4278 32.7925 13.2403 32.6049L11.1767 30.5413C10.9891 30.3538 10.8838 30.0994 10.8838 29.8342V26.3887C10.8838 25.8364 11.3315 25.3887 11.8838 25.3887H17.4502C18.0025 25.3887 18.4502 25.8364 18.4502 26.3887V26.8698C18.4502 27.4221 18.8979 27.8698 19.4502 27.8698H22.2484C22.8007 27.8698 23.2484 27.4221 23.2484 26.8698V23.9691C23.2484 23.4168 22.8007 22.9691 22.2484 22.9691H13.8406C13.5754 22.9691 13.3211 22.8638 13.1335 22.6762L11.1767 20.7194C10.9891 20.5318 10.8838 20.2775 10.8838 20.0123V10.8547C10.8838 10.5895 10.9891 10.3351 11.1767 10.1476L13.1335 8.19072C13.3211 8.00318 13.5754 7.89783 13.8406 7.89783Z" fill="#0097F8"/>
</g>
<g filter="url(#filter0_d_10661_62748)">
<g filter="url(#filter1_d_10661_62748)">
<circle cx="36.8516" cy="32.3978" r="8" fill="#EDF0F4"/>
</g>
<path d="M39.2516 30.7911C39.081 30.693 38.8617 30.693 38.6667 30.7911L37.3021 31.6006L36.376 32.1158L35.0357 32.9253C34.8652 33.0234 34.6458 33.0234 34.4509 32.9253L33.403 32.2875C33.2324 32.1894 33.1106 31.9931 33.1106 31.7723V30.5458C33.1106 30.3496 33.2081 30.1533 33.403 30.0307L34.4509 29.4174C34.6215 29.3193 34.8408 29.3193 35.0357 29.4174L36.0836 30.0552C36.2542 30.1533 36.376 30.3496 36.376 30.5704V31.3799L37.3021 30.8402V30.0062C37.3021 29.8099 37.2046 29.6137 37.0096 29.491L35.0601 28.3381C34.8895 28.24 34.6702 28.24 34.4753 28.3381L32.477 29.5156C32.282 29.6137 32.1846 29.8099 32.1846 30.0062V32.312C32.1846 32.5082 32.282 32.7045 32.477 32.8271L34.4509 33.9801C34.6215 34.0782 34.8408 34.0782 35.0357 33.9801L36.376 33.1951L37.3021 32.6554L38.6424 31.8705C38.8129 31.7723 39.0323 31.7723 39.2272 31.8705L40.2751 32.4837C40.4457 32.5818 40.5675 32.7781 40.5675 32.9988V34.2254C40.5675 34.4216 40.47 34.6178 40.2751 34.7405L39.2516 35.3537C39.081 35.4519 38.8617 35.4519 38.6667 35.3537L37.6189 34.7405C37.4483 34.6424 37.3264 34.4461 37.3264 34.2254V33.4404L36.4004 33.9801V34.7896C36.4004 34.9858 36.4979 35.182 36.6928 35.3047L38.6667 36.4576C38.8373 36.5557 39.0566 36.5557 39.2516 36.4576L41.2255 35.3047C41.3961 35.2066 41.5179 35.0103 41.5179 34.7896V32.4592C41.5179 32.2629 41.4204 32.0667 41.2255 31.9441L39.2516 30.7911Z" fill="#8247E5"/>
</g>
</g>
<defs>
<filter id="filter0_d_10661_62748" x="20.8516" y="18.3978" width="32" height="32" filterUnits="userSpaceOnUse" color-interpolation-filters="sRGB">
<feFlood flood-opacity="0" result="BackgroundImageFix"/>
<feColorMatrix in="SourceAlpha" type="matrix" values="0 0 0 0 0 0 0 0 0 0 0 0 0 0 0 0 0 0 127 0" result="hardAlpha"/>
<feOffset dy="2"/>
<feGaussianBlur stdDeviation="4"/>
<feComposite in2="hardAlpha" operator="out"/>
<feColorMatrix type="matrix" values="0 0 0 0 0.109804 0 0 0 0 0.176471 0 0 0 0 0.368627 0 0 0 0.05 0"/>
<feBlend mode="normal" in2="BackgroundImageFix" result="effect1_dropShadow_10661_62748"/>
<feBlend mode="normal" in="SourceGraphic" in2="effect1_dropShadow_10661_62748" result="shape"/>
</filter>
<filter id="filter1_d_10661_62748" x="20.8516" y="18.3978" width="32" height="32" filterUnits="userSpaceOnUse" color-interpolation-filters="sRGB">
<feFlood flood-opacity="0" result="BackgroundImageFix"/>
<feColorMatrix in="SourceAlpha" type="matrix" values="0 0 0 0 0 0 0 0 0 0 0 0 0 0 0 0 0 0 127 0" result="hardAlpha"/>
<feOffset dy="2"/>
<feGaussianBlur stdDeviation="4"/>
<feComposite in2="hardAlpha" operator="out"/>
<feColorMatrix type="matrix" values="0 0 0 0 0.109804 0 0 0 0 0.176471 0 0 0 0 0.368627 0 0 0 0.1 0"/>
<feBlend mode="normal" in2="BackgroundImageFix" result="effect1_dropShadow_10661_62748"/>
<feBlend mode="normal" in="SourceGraphic" in2="effect1_dropShadow_10661_62748" result="shape"/>
</filter>
<clipPath id="clip0_10661_62748">
<rect width="44" height="40" fill="white" transform="translate(0.851562 0.397827)"/>
</clipPath>
<clipPath id="clip1_10661_62748">
<rect width="40" height="40" fill="white" transform="translate(0.851562 0.397827)"/>
</clipPath>
</defs>
</svg>
