<svg width="45" height="41" viewBox="0 0 45 41" fill="none" xmlns="http://www.w3.org/2000/svg">
<g clip-path="url(#clip0_10661_62763)">
<circle cx="20.3066" cy="20.858" r="20" fill="#E7EFF3"/>
<path d="M12.7053 25.5963C12.8439 25.4577 13.0345 25.3768 13.2366 25.3768H31.5658C31.9007 25.3768 32.0682 25.7811 31.8314 26.0178L28.2106 29.6386C28.072 29.7772 27.8814 29.8581 27.6793 29.8581H9.35016C9.01522 29.8581 8.84775 29.4538 9.08452 29.2171L12.7053 25.5963Z" fill="url(#paint0_linear_10661_62763)"/>
<path d="M12.7053 12.0775C12.8497 11.9389 13.0402 11.858 13.2366 11.858H31.5658C31.9007 11.858 32.0682 12.2623 31.8314 12.499L28.2106 16.1198C28.072 16.2584 27.8814 16.3393 27.6793 16.3393H9.35016C9.01522 16.3393 8.84775 15.935 9.08452 15.6983L12.7053 12.0775Z" fill="url(#paint1_linear_10661_62763)"/>
<path d="M28.2106 18.7935C28.072 18.6549 27.8814 18.5741 27.6793 18.5741H9.35016C9.01522 18.5741 8.84775 18.9783 9.08452 19.2151L12.7053 22.8359C12.8439 22.9745 13.0345 23.0553 13.2366 23.0553H31.5658C31.9007 23.0553 32.0682 22.6511 31.8314 22.4143L28.2106 18.7935Z" fill="url(#paint2_linear_10661_62763)"/>
<g filter="url(#filter0_d_10661_62763)">
<circle cx="36.3066" cy="32.858" r="8" fill="#E7EFF3"/>
<path d="M33.2661 34.7533C33.3215 34.6979 33.3978 34.6655 33.4786 34.6655H40.8103C40.9443 34.6655 41.0112 34.8272 40.9165 34.9219L39.4682 36.3702C39.4128 36.4257 39.3366 36.458 39.2557 36.458H31.924C31.7901 36.458 31.7231 36.2963 31.8178 36.2016L33.2661 34.7533Z" fill="url(#paint3_linear_10661_62763)"/>
<path d="M33.2661 29.3458C33.3239 29.2904 33.4001 29.2581 33.4786 29.2581H40.8103C40.9443 29.2581 41.0112 29.4198 40.9165 29.5145L39.4682 30.9628C39.4128 31.0182 39.3366 31.0505 39.2557 31.0505H31.924C31.7901 31.0505 31.7231 30.8889 31.8178 30.7941L33.2661 29.3458Z" fill="url(#paint4_linear_10661_62763)"/>
<path d="M39.4682 32.0322C39.4128 31.9768 39.3366 31.9445 39.2557 31.9445H31.924C31.7901 31.9445 31.7231 32.1062 31.8178 32.2009L33.2661 33.6492C33.3215 33.7046 33.3978 33.737 33.4786 33.737H40.8103C40.9443 33.737 41.0112 33.5753 40.9165 33.4806L39.4682 32.0322Z" fill="url(#paint5_linear_10661_62763)"/>
</g>
</g>
<defs>
<filter id="filter0_d_10661_62763" x="20.3066" y="18.858" width="32" height="32" filterUnits="userSpaceOnUse" color-interpolation-filters="sRGB">
<feFlood flood-opacity="0" result="BackgroundImageFix"/>
<feColorMatrix in="SourceAlpha" type="matrix" values="0 0 0 0 0 0 0 0 0 0 0 0 0 0 0 0 0 0 127 0" result="hardAlpha"/>
<feOffset dy="2"/>
<feGaussianBlur stdDeviation="4"/>
<feComposite in2="hardAlpha" operator="out"/>
<feColorMatrix type="matrix" values="0 0 0 0 0.109804 0 0 0 0 0.176471 0 0 0 0 0.368627 0 0 0 0.1 0"/>
<feBlend mode="normal" in2="BackgroundImageFix" result="effect1_dropShadow_10661_62763"/>
<feBlend mode="normal" in="SourceGraphic" in2="effect1_dropShadow_10661_62763" result="shape"/>
</filter>
<linearGradient id="paint0_linear_10661_62763" x1="-32.4535" y1="8.45764" x2="-32.9411" y2="32.9974" gradientUnits="userSpaceOnUse">
<stop stop-color="#00FFA3"/>
<stop offset="1" stop-color="#DC1FFF"/>
</linearGradient>
<linearGradient id="paint1_linear_10661_62763" x1="-38.0001" y1="5.56178" x2="-38.4878" y2="30.1015" gradientUnits="userSpaceOnUse">
<stop stop-color="#00FFA3"/>
<stop offset="1" stop-color="#DC1FFF"/>
</linearGradient>
<linearGradient id="paint2_linear_10661_62763" x1="-35.2445" y1="7.00047" x2="-35.7321" y2="31.5402" gradientUnits="userSpaceOnUse">
<stop stop-color="#00FFA3"/>
<stop offset="1" stop-color="#DC1FFF"/>
</linearGradient>
<linearGradient id="paint3_linear_10661_62763" x1="15.2026" y1="27.8979" x2="15.0075" y2="37.7137" gradientUnits="userSpaceOnUse">
<stop stop-color="#00FFA3"/>
<stop offset="1" stop-color="#DC1FFF"/>
</linearGradient>
<linearGradient id="paint4_linear_10661_62763" x1="12.9839" y1="26.7396" x2="12.7889" y2="36.5555" gradientUnits="userSpaceOnUse">
<stop stop-color="#00FFA3"/>
<stop offset="1" stop-color="#DC1FFF"/>
</linearGradient>
<linearGradient id="paint5_linear_10661_62763" x1="14.0862" y1="27.315" x2="13.8911" y2="37.1309" gradientUnits="userSpaceOnUse">
<stop stop-color="#00FFA3"/>
<stop offset="1" stop-color="#DC1FFF"/>
</linearGradient>
<clipPath id="clip0_10661_62763">
<rect width="44" height="40" fill="white" transform="translate(0.306641 0.858032)"/>
</clipPath>
</defs>
</svg>
