<svg width="33" height="33" viewBox="0 0 33 33" fill="none" xmlns="http://www.w3.org/2000/svg">
<ellipse cx="16.4854" cy="16.0018" rx="16" ry="16.0018" fill="#E7EFF3"/>
<path d="M10.4038 19.7928C10.5147 19.6819 10.6671 19.6172 10.8288 19.6172H25.4921C25.7601 19.6172 25.8941 19.9406 25.7047 20.13L22.808 23.027C22.6972 23.1379 22.5447 23.2026 22.383 23.2026H7.71968C7.45173 23.2026 7.31775 22.8792 7.50717 22.6897L10.4038 19.7928Z" fill="url(#paint0_linear_17629_61955)"/>
<path d="M10.4038 8.97635C10.5193 8.86547 10.6717 8.80078 10.8288 8.80078H25.4921C25.7601 8.80078 25.8941 9.12421 25.7047 9.31364L22.808 12.2106C22.6972 12.3215 22.5447 12.3862 22.383 12.3862H7.71968C7.45173 12.3862 7.31775 12.0627 7.50717 11.8733L10.4038 8.97635Z" fill="url(#paint1_linear_17629_61955)"/>
<path d="M22.808 14.3514C22.6972 14.2405 22.5447 14.1758 22.383 14.1758H7.71968C7.45173 14.1758 7.31775 14.4992 7.50717 14.6886L10.4038 17.5856C10.5147 17.6965 10.6671 17.7612 10.8288 17.7612H25.4921C25.7601 17.7612 25.8941 17.4377 25.7047 17.2483L22.808 14.3514Z" fill="url(#paint2_linear_17629_61955)"/>
<defs>
<linearGradient id="paint0_linear_17629_61955" x1="-25.7232" y1="6.08032" x2="-26.1134" y2="25.7143" gradientUnits="userSpaceOnUse">
<stop stop-color="#00FFA3"/>
<stop offset="1" stop-color="#DC1FFF"/>
</linearGradient>
<linearGradient id="paint1_linear_17629_61955" x1="-30.1606" y1="3.76321" x2="-30.5508" y2="23.3972" gradientUnits="userSpaceOnUse">
<stop stop-color="#00FFA3"/>
<stop offset="1" stop-color="#DC1FFF"/>
</linearGradient>
<linearGradient id="paint2_linear_17629_61955" x1="-27.956" y1="4.91583" x2="-28.3463" y2="24.5498" gradientUnits="userSpaceOnUse">
<stop stop-color="#00FFA3"/>
<stop offset="1" stop-color="#DC1FFF"/>
</linearGradient>
</defs>
</svg>
