<svg width="45" height="41" viewBox="0 0 45 41" fill="none" xmlns="http://www.w3.org/2000/svg">
<g clip-path="url(#clip0_10661_62738)">
<circle cx="20.6133" cy="20.1686" r="20" fill="#EDF0F4"/>
<path d="M12.7024 9.83521L33.2799 23.7292L28.1909 31.1685L7.61328 17.1651L12.7024 9.83521Z" fill="url(#paint0_linear_10661_62738)"/>
<path d="M33.5034 23.7574C31.7445 26.325 25.8083 25.3203 20.2019 21.3014C14.4856 17.3942 11.4075 12.1474 13.0565 9.57974C14.8153 7.01214 20.7516 8.01685 26.358 12.0357C32.0743 15.8313 35.1524 21.1898 33.5034 23.7574Z" fill="url(#paint1_linear_10661_62738)"/>
<path d="M28.1683 31.1C26.4038 33.6509 20.4486 32.6527 14.8242 28.66C9.1998 24.6674 6.00162 19.5657 7.76613 16.9039C9.53065 14.3531 15.4859 15.3512 21.1103 19.3439C26.7347 23.3365 29.8226 28.5491 28.1683 31.1Z" fill="url(#paint2_linear_10661_62738)"/>
<path d="M33.1982 23.6416L28.1064 31.1368C26.3353 33.6719 20.3579 32.5697 14.7127 28.7119C13.6057 27.9403 12.6095 27.1687 11.6133 26.287C12.3881 26.1767 13.3844 25.7358 14.3806 24.6336C16.1516 22.7598 17.0372 22.3189 17.812 22.4291C18.5869 22.4291 19.4724 23.2007 20.9114 25.0745C22.3504 26.9483 24.3428 27.4994 25.5605 26.5074C25.6711 26.3972 25.7818 26.3972 25.8925 26.287C26.8888 25.5154 27.2208 25.1847 29.1026 21.6576C29.5454 20.7758 31.095 19.3429 33.1982 20.0042C33.7516 21.4371 33.7516 22.6496 33.1982 23.6416Z" fill="#0E0F23"/>
<path fill-rule="evenodd" clip-rule="evenodd" d="M32.2636 23.3647C30.7236 25.5781 25.3338 24.4714 20.164 20.8193C14.8842 17.1673 11.8043 12.5192 13.3443 10.3058C14.8842 8.0924 20.274 9.19909 25.4438 12.8512C30.6136 16.5032 33.6935 21.1513 32.2636 23.3647ZM27.4238 20.0446C26.6539 21.1513 24.014 20.598 21.3741 18.8273C18.8442 17.0566 17.3042 14.7325 18.0742 13.6258C18.8442 12.5192 21.4841 13.0725 24.124 14.8432C26.6539 16.6139 28.1938 18.938 27.4238 20.0446Z" fill="white"/>
<path d="M12.2426 11.9658C12.2426 11.8735 12.1426 11.7811 12.0426 11.8735C11.9426 11.9658 11.8426 11.9658 11.8426 12.0582C11.9426 12.3352 12.0426 12.5199 12.0426 12.7046C12.0426 12.797 12.1426 12.8893 12.2426 12.797C12.3426 12.797 12.4426 12.7046 12.3426 12.6123C12.3426 12.4276 12.3426 12.2429 12.2426 11.9658Z" fill="white"/>
<path d="M12.9395 13.6594C12.9395 13.5481 12.8307 13.4367 12.722 13.5481C12.6133 13.6594 12.6133 13.6594 12.6133 13.7707C13.8093 16.5537 16.3102 19.5594 19.5721 21.7858C19.6808 21.8971 19.7896 21.7858 19.8983 21.7858C20.007 21.6745 19.8983 21.5632 19.8983 21.4518C16.5276 19.2254 14.1355 16.3311 12.9395 13.6594Z" fill="white"/>
<path d="M26.1524 24.702C26.0498 24.702 25.9473 24.702 25.9473 24.802C25.9473 24.902 25.9473 25.002 26.0498 25.002C26.3575 25.102 26.7678 25.202 27.0755 25.302C27.178 25.302 27.2806 25.302 27.2806 25.202C27.2806 25.102 27.2806 25.002 27.178 25.002C26.8703 24.902 26.4601 24.802 26.1524 24.702Z" fill="white"/>
<path d="M28.1616 25.0645C28.0544 25.0645 27.9473 25.1645 27.9473 25.2645C27.9473 25.3645 28.0544 25.4645 28.1616 25.4645C29.0187 25.5645 29.983 25.6645 30.733 25.5645C30.8401 25.5645 30.9473 25.4645 30.9473 25.3645C30.9473 25.2645 30.8401 25.1645 30.733 25.1645C29.8758 25.2645 29.0187 25.1645 28.1616 25.0645Z" fill="white"/>
<g clip-path="url(#clip1_10661_62738)" filter="url(#filter0_d_10661_62738)">
<g clip-path="url(#clip2_10661_62738)">
<circle cx="36.4473" cy="32.1686" r="8" fill="#EDF0F4"/>
</g>
<path d="M36.5429 25.7686L36.457 26.0603V34.5246L36.5429 34.6103L40.4719 32.2878L36.5429 25.7686Z" fill="#343434"/>
<path d="M36.5424 25.7686L32.6133 32.2878L36.5424 34.6103V30.5019V25.7686Z" fill="#8C8C8C"/>
<path d="M36.5425 35.3531L36.4941 35.4121V38.4273L36.5425 38.5686L40.4739 33.0319L36.5425 35.3531Z" fill="#3C3C3B"/>
<path d="M36.5424 38.5686V35.3531L32.6133 33.0319L36.5424 38.5686Z" fill="#8C8C8C"/>
<path d="M36.542 34.6117L40.471 32.2892L36.542 30.5033V34.6117Z" fill="#141414"/>
<path d="M32.6133 32.2892L36.5424 34.6117V30.5033L32.6133 32.2892Z" fill="#393939"/>
</g>
</g>
<defs>
<filter id="filter0_d_10661_62738" x="20.6133" y="18.1686" width="32" height="32" filterUnits="userSpaceOnUse" color-interpolation-filters="sRGB">
<feFlood flood-opacity="0" result="BackgroundImageFix"/>
<feColorMatrix in="SourceAlpha" type="matrix" values="0 0 0 0 0 0 0 0 0 0 0 0 0 0 0 0 0 0 127 0" result="hardAlpha"/>
<feOffset dy="2"/>
<feGaussianBlur stdDeviation="4"/>
<feComposite in2="hardAlpha" operator="out"/>
<feColorMatrix type="matrix" values="0 0 0 0 0.109804 0 0 0 0 0.176471 0 0 0 0 0.368627 0 0 0 0.05 0"/>
<feBlend mode="normal" in2="BackgroundImageFix" result="effect1_dropShadow_10661_62738"/>
<feBlend mode="normal" in="SourceGraphic" in2="effect1_dropShadow_10661_62738" result="shape"/>
</filter>
<linearGradient id="paint0_linear_10661_62738" x1="8.39814" y1="9.55565" x2="11.2675" y2="23.6592" gradientUnits="userSpaceOnUse">
<stop stop-color="#03B8FF"/>
<stop offset="1" stop-color="#FA52A0"/>
</linearGradient>
<linearGradient id="paint1_linear_10661_62738" x1="11.5296" y1="8.19197" x2="14.152" y2="22.5929" gradientUnits="userSpaceOnUse">
<stop stop-color="#03B8FF"/>
<stop offset="1" stop-color="#FA52A0"/>
</linearGradient>
<linearGradient id="paint2_linear_10661_62738" x1="4.59386" y1="10.1802" x2="7.22563" y2="24.4921" gradientUnits="userSpaceOnUse">
<stop stop-color="#03B8FF"/>
<stop offset="1" stop-color="#FA52A0"/>
</linearGradient>
<clipPath id="clip0_10661_62738">
<rect width="44" height="40" fill="white" transform="translate(0.613281 0.168579)"/>
</clipPath>
<clipPath id="clip1_10661_62738">
<rect width="16" height="16" fill="white" transform="translate(28.6133 24.1686)"/>
</clipPath>
<clipPath id="clip2_10661_62738">
<rect width="16" height="16" fill="white" transform="translate(28.6133 24.1686)"/>
</clipPath>
</defs>
</svg>
