<svg width="45" height="41" viewBox="0 0 45 41" fill="none" xmlns="http://www.w3.org/2000/svg">
<g clip-path="url(#clip0_10661_62735)">
<path d="M16.2573 37.629C6.61677 35.2249 0.747568 25.4566 3.15286 15.8136L3.15298 15.8131C5.5562 6.16819 15.3239 0.298918 24.9654 2.70306L24.9655 2.70308C34.6096 5.10727 40.4786 14.8766 38.074 24.5212L38.0514 24.6118C35.6087 34.2015 25.8722 40.0264 16.2573 37.629ZM16.2573 37.629L15.7734 39.5696L16.2573 37.629Z" fill="url(#paint0_linear_10661_62735)" stroke="#EAEEF2" stroke-width="4"/>
<path d="M17.4586 12.5178C17.1878 12.4791 17.1749 12.4662 17.3039 12.4533C17.5489 12.4146 18.1162 12.4662 18.516 12.5565C19.4444 12.7757 20.2825 13.343 21.1723 14.3359L21.4044 14.6067L21.7397 14.5551C23.171 14.323 24.641 14.5036 25.866 15.0709C26.2012 15.2257 26.7299 15.5351 26.7944 15.6125C26.8202 15.6383 26.8588 15.8059 26.8846 15.9736C26.9749 16.5796 26.9362 17.0309 26.7428 17.3791C26.6396 17.5725 26.6396 17.6241 26.7041 17.7917C26.7557 17.9207 26.9104 18.0109 27.0523 18.0109C27.3617 18.0109 27.6841 17.5209 27.8388 16.8375L27.9033 16.5667L28.0194 16.6957C28.677 17.4307 29.1928 18.4493 29.2702 19.1714L29.2959 19.3649L29.1799 19.1972C28.9865 18.9007 28.8059 18.7072 28.5609 18.5396C28.1225 18.243 27.6583 18.1528 26.4333 18.0883C25.3244 18.0238 24.6925 17.9336 24.0736 17.7272C23.0162 17.3791 22.4746 16.9278 21.2239 15.2643C20.6694 14.5293 20.3212 14.1296 19.9731 13.7944C19.2123 13.0594 18.4515 12.6725 17.4586 12.5178Z" fill="#FF007A"/>
<path d="M27.0648 14.1553C27.0906 13.6653 27.155 13.3429 27.2969 13.0464C27.3485 12.9303 27.4 12.8271 27.4129 12.8271C27.4258 12.8271 27.4 12.9174 27.3614 13.0206C27.2582 13.3043 27.2453 13.704 27.3098 14.1553C27.4 14.7356 27.4387 14.8129 28.0577 15.4448C28.3414 15.7413 28.6766 16.1153 28.8056 16.27L29.0248 16.5537L28.8056 16.3474C28.5348 16.0895 27.9158 15.5995 27.774 15.535C27.6837 15.4835 27.6708 15.4835 27.6064 15.5479C27.5548 15.5995 27.5419 15.6769 27.5419 16.0508C27.529 16.6311 27.4516 16.9921 27.2582 17.3661C27.155 17.5595 27.1421 17.5208 27.2324 17.3016C27.2969 17.134 27.3098 17.0566 27.3098 16.5021C27.3098 15.3803 27.1808 15.1095 26.3943 14.6582C26.2008 14.5421 25.8656 14.3745 25.6721 14.2842C25.4658 14.194 25.3111 14.1166 25.324 14.1166C25.3498 14.0908 26.1106 14.31 26.4071 14.439C26.8585 14.6195 26.9358 14.6324 26.9874 14.6195C27.0261 14.5808 27.0519 14.4777 27.0648 14.1553Z" fill="#FF007A"/>
<path d="M17.9872 16.0768C17.4456 15.3289 17.0974 14.1684 17.1748 13.3045L17.2006 13.0337L17.3295 13.0595C17.5616 13.0982 17.9614 13.2529 18.1548 13.369C18.6706 13.6784 18.9027 14.104 19.1219 15.1613C19.1864 15.4708 19.2766 15.8318 19.3153 15.9479C19.3798 16.1413 19.6248 16.5926 19.8311 16.8763C19.9729 17.0826 19.8827 17.1858 19.5603 17.16C19.0703 17.1084 18.4127 16.6571 17.9872 16.0768Z" fill="#FF007A"/>
<path d="M26.407 21.6859C23.8538 20.6544 22.9512 19.7646 22.9512 18.2559C22.9512 18.0367 22.9641 17.8562 22.9641 17.8562C22.977 17.8562 23.0672 17.9336 23.1833 18.0238C23.6991 18.4365 24.2793 18.617 25.8912 18.8491C26.8325 18.9909 27.3741 19.0941 27.8641 19.2617C29.4243 19.7775 30.3914 20.8349 30.6235 22.2662C30.688 22.6788 30.6493 23.4654 30.5462 23.878C30.4559 24.2004 30.198 24.7936 30.1335 24.8064C30.1206 24.8064 30.0948 24.742 30.0948 24.6388C30.069 24.0972 29.7983 23.5814 29.3469 23.1817C28.8054 22.7175 28.1091 22.3693 26.407 21.6859Z" fill="#FF007A"/>
<path d="M24.6025 22.1115C24.5767 21.918 24.5123 21.673 24.4736 21.5699L24.4091 21.3765L24.5252 21.5183C24.6928 21.7117 24.8217 21.9438 24.9378 22.2662C25.0281 22.5112 25.0281 22.5886 25.0281 22.9883C25.0281 23.3751 25.0152 23.4654 24.9378 23.6846C24.8088 24.0328 24.6541 24.2778 24.3962 24.5486C23.932 25.0257 23.326 25.2836 22.462 25.3996C22.3073 25.4125 21.8689 25.4512 21.482 25.477C20.5149 25.5286 19.8702 25.6317 19.2899 25.838C19.2125 25.8638 19.1352 25.8896 19.1223 25.8767C19.0965 25.8509 19.4962 25.6188 19.8186 25.4641C20.2699 25.2449 20.7341 25.1288 21.7528 24.9483C22.2557 24.8709 22.7715 24.7678 22.9004 24.7162C24.177 24.3165 24.8088 23.3236 24.6025 22.1115Z" fill="#FF007A"/>
<path d="M25.7751 24.1876C25.4399 23.4526 25.3625 22.7563 25.543 22.0987C25.5688 22.0342 25.5946 21.9697 25.6204 21.9697C25.6462 21.9697 25.7235 22.0084 25.8009 22.06C25.9556 22.1631 26.278 22.3437 27.1033 22.795C28.1477 23.3624 28.7409 23.8008 29.1535 24.3037C29.5146 24.7421 29.7338 25.245 29.837 25.8639C29.9014 26.2121 29.8627 27.0502 29.7725 27.3984C29.4888 28.4944 28.8441 29.3713 27.9027 29.8742C27.7609 29.9515 27.6449 30.0031 27.632 30.0031C27.6191 30.0031 27.6706 29.8742 27.748 29.7194C28.0575 29.0618 28.0962 28.43 27.8641 27.7208C27.7222 27.2823 27.4256 26.7537 26.8325 25.8639C26.1233 24.8323 25.9556 24.5616 25.7751 24.1876Z" fill="#FF007A"/>
<path d="M16.1692 28.1332C17.1234 27.3337 18.2969 26.7664 19.38 26.5859C19.8442 26.5085 20.6179 26.5343 21.0434 26.6503C21.7268 26.8308 22.3458 27.2177 22.6682 27.6948C22.9776 28.159 23.1195 28.5587 23.2613 29.4485C23.3129 29.7966 23.3774 30.1577 23.3903 30.235C23.4934 30.6993 23.6997 31.0603 23.9576 31.2537C24.3574 31.5503 25.0537 31.5632 25.7371 31.3053C25.8531 31.2666 25.9563 31.2279 25.9563 31.2408C25.9821 31.2666 25.6339 31.4987 25.4018 31.6148C25.0795 31.7824 24.8216 31.834 24.4734 31.834C23.8545 31.834 23.3258 31.5116 22.9003 30.8669C22.81 30.7379 22.6295 30.364 22.4747 30.0158C22.0234 28.9714 21.7913 28.6619 21.2626 28.3137C20.7984 28.0172 20.2053 27.9527 19.754 28.1719C19.1608 28.4556 19.0061 29.2164 19.4187 29.6806C19.5863 29.874 19.8958 30.0287 20.1537 30.0674C20.6308 30.1319 21.0434 29.7579 21.0434 29.2808C21.0434 28.9714 20.9274 28.7908 20.6179 28.649C20.2053 28.4685 19.754 28.6748 19.7668 29.0745C19.7668 29.2422 19.8442 29.3453 20.0118 29.4227C20.115 29.4743 20.115 29.4743 20.0376 29.4614C19.6637 29.384 19.5734 28.9198 19.87 28.6232C20.2311 28.2622 20.9918 28.4169 21.2497 28.9198C21.3529 29.1261 21.3658 29.5387 21.2755 29.7966C21.0563 30.364 20.4374 30.6606 19.8055 30.4929C19.38 30.3769 19.1995 30.2608 18.6837 29.7322C17.7811 28.8037 17.4329 28.6232 16.1434 28.4298L15.8984 28.3911L16.1692 28.1332Z" fill="#FF007A"/>
<path fill-rule="evenodd" clip-rule="evenodd" d="M9.38626 7.38577C12.3907 11.035 17.0199 16.7086 17.252 17.0181C17.4454 17.276 17.3681 17.521 17.0457 17.7015C16.8652 17.8047 16.4912 17.9078 16.3107 17.9078C16.1044 17.9078 15.8594 17.8047 15.6918 17.6371C15.5757 17.521 15.0728 16.786 13.9381 15.0194C13.0741 13.6655 12.3391 12.5436 12.3262 12.5308C12.2747 12.505 12.2747 12.505 13.8478 15.316C14.8407 17.0826 15.1631 17.7144 15.1631 17.7918C15.1631 17.9594 15.1115 18.0497 14.9052 18.2818C14.557 18.6686 14.4023 19.1071 14.2862 20.0226C14.1573 21.0413 13.8091 21.7634 12.8162 22.9884C12.236 23.7105 12.1457 23.8394 12.0039 24.136C11.8234 24.497 11.7718 24.7033 11.746 25.1676C11.7202 25.6576 11.7718 25.967 11.9136 26.4312C12.0426 26.8439 12.1844 27.1147 12.5326 27.6433C12.8291 28.1075 13.0097 28.4557 13.0097 28.5847C13.0097 28.6878 13.0355 28.6878 13.4997 28.5847C14.6086 28.3268 15.5241 27.8883 16.027 27.3468C16.3365 27.0115 16.4139 26.831 16.4139 26.3668C16.4139 26.0702 16.401 26.0057 16.3236 25.8252C16.1947 25.5415 15.9497 25.3094 15.421 24.9483C14.7247 24.4712 14.4281 24.0844 14.3507 23.5686C14.2862 23.1302 14.3636 22.8336 14.7505 22.0213C15.1502 21.1831 15.2533 20.8349 15.3178 19.9839C15.3565 19.4423 15.421 19.2231 15.5757 19.0555C15.7433 18.8749 15.8852 18.8105 16.2849 18.7589C16.9426 18.6686 17.3681 18.501 17.7033 18.1786C17.9999 17.9078 18.1289 17.6371 18.1418 17.2373L18.1547 16.9407L17.987 16.7602C17.381 16.0639 8.98652 6.8313 8.94784 6.8313C8.93494 6.8313 9.14126 7.0763 9.38626 7.38577ZM13.3449 25.7219C13.4868 25.4769 13.4094 25.1675 13.1773 25.0127C12.9581 24.8709 12.6228 24.9354 12.6228 25.1288C12.6228 25.1804 12.6486 25.232 12.726 25.2577C12.842 25.3222 12.8549 25.3867 12.7647 25.5285C12.6744 25.6704 12.6744 25.7993 12.7904 25.8896C12.971 26.0314 13.216 25.9541 13.3449 25.7219Z" fill="#FF007A"/>
<path fill-rule="evenodd" clip-rule="evenodd" d="M18.5673 18.9392C18.2579 19.0295 17.9613 19.3648 17.871 19.7C17.8194 19.9063 17.8452 20.2803 17.9355 20.3963C18.0773 20.5769 18.2063 20.6284 18.5673 20.6284C19.2765 20.6284 19.8826 20.319 19.9471 19.945C20.0115 19.6355 19.7407 19.21 19.3668 19.0166C19.1734 18.9134 18.7736 18.8748 18.5673 18.9392ZM19.3927 19.5837C19.4958 19.429 19.4571 19.2614 19.2637 19.1453C18.9156 18.9261 18.3869 19.1066 18.3869 19.4419C18.3869 19.6095 18.6577 19.7901 18.9156 19.7901C19.0832 19.7901 19.3153 19.6869 19.3927 19.5837Z" fill="#FF007A"/>
<g clip-path="url(#clip1_10661_62735)" filter="url(#filter0_d_10661_62735)">
<g clip-path="url(#clip2_10661_62735)">
<circle cx="36.4473" cy="32.1685" r="8" fill="#EDF0F4"/>
</g>
<path d="M36.5429 25.7684L36.457 26.0602V34.5245L36.5429 34.6102L40.4719 32.2877L36.5429 25.7684Z" fill="#343434"/>
<path d="M36.5424 25.7684L32.6133 32.2877L36.5424 34.6102V30.5018V25.7684Z" fill="#8C8C8C"/>
<path d="M36.5425 35.353L36.4941 35.412V38.4271L36.5425 38.5684L40.4739 33.0317L36.5425 35.353Z" fill="#3C3C3B"/>
<path d="M36.5424 38.5684V35.353L32.6133 33.0317L36.5424 38.5684Z" fill="#8C8C8C"/>
<path d="M36.542 34.6115L40.471 32.2891L36.542 30.5032V34.6115Z" fill="#141414"/>
<path d="M32.6133 32.2891L36.5424 34.6115V30.5032L32.6133 32.2891Z" fill="#393939"/>
</g>
</g>
<defs>
<filter id="filter0_d_10661_62735" x="20.6133" y="18.1685" width="32" height="32" filterUnits="userSpaceOnUse" color-interpolation-filters="sRGB">
<feFlood flood-opacity="0" result="BackgroundImageFix"/>
<feColorMatrix in="SourceAlpha" type="matrix" values="0 0 0 0 0 0 0 0 0 0 0 0 0 0 0 0 0 0 127 0" result="hardAlpha"/>
<feOffset dy="2"/>
<feGaussianBlur stdDeviation="4"/>
<feComposite in2="hardAlpha" operator="out"/>
<feColorMatrix type="matrix" values="0 0 0 0 0.109804 0 0 0 0 0.176471 0 0 0 0 0.368627 0 0 0 0.05 0"/>
<feBlend mode="normal" in2="BackgroundImageFix" result="effect1_dropShadow_10661_62735"/>
<feBlend mode="normal" in="SourceGraphic" in2="effect1_dropShadow_10661_62735" result="shape"/>
</filter>
<linearGradient id="paint0_linear_10661_62735" x1="0.613281" y1="0.16394" x2="0.613281" y2="40.1684" gradientUnits="userSpaceOnUse">
<stop stop-color="#FEF3F9"/>
<stop offset="1" stop-color="#FDE5F2"/>
</linearGradient>
<clipPath id="clip0_10661_62735">
<rect width="44" height="40.0045" fill="white" transform="translate(0.613281 0.16394)"/>
</clipPath>
<clipPath id="clip1_10661_62735">
<rect width="16" height="16" fill="white" transform="translate(28.6133 24.1685)"/>
</clipPath>
<clipPath id="clip2_10661_62735">
<rect width="16" height="16" fill="white" transform="translate(28.6133 24.1685)"/>
</clipPath>
</defs>
</svg>
