<svg width="45" height="41" viewBox="0 0 45 41" fill="none" xmlns="http://www.w3.org/2000/svg">
<g clip-path="url(#clip0_10661_62761)">
<path d="M20.3633 0.731323C31.41 0.731323 40.3633 9.68641 40.3633 20.7313C40.3633 31.778 31.41 40.7313 20.3633 40.7313C9.31837 40.7313 0.363281 31.7771 0.363281 20.7313C0.363281 9.68641 9.31837 0.731323 20.3633 0.731323Z" fill="#ECEFF3"/>
<path d="M25.6155 23.5128C25.6155 20.7317 23.9467 19.7781 20.6092 19.3808C18.2252 19.0629 17.7484 18.4273 17.7484 17.3147C17.7484 16.2021 18.5432 15.4871 20.1324 15.4871C21.5628 15.4871 22.3575 15.9639 22.7547 17.1559C22.7957 17.271 22.871 17.3709 22.9705 17.4419C23.07 17.5129 23.1889 17.5517 23.3111 17.5531H24.582C24.6556 17.5549 24.7287 17.5418 24.797 17.5145C24.8653 17.4872 24.9274 17.4463 24.9794 17.3942C25.0315 17.3422 25.0724 17.2802 25.0997 17.2119C25.127 17.1436 25.1402 17.0704 25.1384 16.9969V16.9173C24.9846 16.0562 24.5506 15.2699 23.904 14.6808C23.2573 14.0916 22.4342 13.7326 21.5625 13.6594V11.7525C21.5625 11.4345 21.3241 11.1961 20.9268 11.1166H19.7349C19.4169 11.1166 19.1785 11.355 19.0989 11.7525V13.5801C16.715 13.8981 15.2057 15.487 15.2057 17.474C15.2057 20.0963 16.7949 21.1292 20.1324 21.5267C22.3575 21.9239 23.0727 22.4007 23.0727 23.6723C23.0727 24.9438 21.9597 25.8178 20.4503 25.8178C18.3838 25.8178 17.6686 24.9432 17.4302 23.7512C17.4063 23.62 17.338 23.501 17.2367 23.4142C17.1355 23.3274 17.0074 23.278 16.8741 23.2744H15.523C15.4495 23.2727 15.3764 23.2858 15.3081 23.3132C15.2398 23.3405 15.1778 23.3814 15.1258 23.4334C15.0738 23.4855 15.0329 23.5475 15.0056 23.6158C14.9783 23.6841 14.9651 23.7573 14.967 23.8308V23.9104C15.2846 25.8968 16.5562 27.3272 19.1785 27.7247V29.6318C19.1785 29.9495 19.4169 30.1879 19.8141 30.2675H21.0061C21.3241 30.2675 21.5625 30.0291 21.642 29.6318V27.725C24.026 27.3276 25.6152 25.6588 25.6152 23.5133L25.6155 23.5128Z" fill="#2775CA"/>
<path d="M16.3182 31.8563C10.1199 29.6315 6.94118 22.7181 9.24587 16.599C9.83217 14.9727 10.7699 13.4957 11.9924 12.2733C13.2148 11.0508 14.6918 10.113 16.3182 9.52675C16.4705 9.46045 16.5984 9.34822 16.6838 9.20573C16.7693 9.06325 16.8082 8.89763 16.795 8.732V7.61959C16.8058 7.47389 16.7634 7.32921 16.6758 7.21234C16.5881 7.09548 16.4611 7.01434 16.3182 6.98397C16.2061 6.97215 16.0936 7.00022 16.0002 7.06323C13.1071 7.98261 10.5817 9.79879 8.7895 12.2489C6.99728 14.699 6.03125 17.6558 6.03125 20.6915C6.03125 23.7271 6.99728 26.684 8.7895 29.134C10.5817 31.5841 13.1071 33.4003 16.0002 34.3197C16.0663 34.3581 16.1405 34.3802 16.2167 34.3843C16.293 34.3884 16.3692 34.3744 16.439 34.3434C16.5088 34.3123 16.5702 34.2652 16.6183 34.2058C16.6663 34.1464 16.6996 34.0765 16.7154 34.0017C16.7949 33.9225 16.795 33.8429 16.795 33.6841V32.5715C16.795 32.3331 16.5566 32.0156 16.3182 31.8563ZM24.7416 7.06323C24.6755 7.02488 24.6013 7.00273 24.525 6.99862C24.4487 6.99451 24.3726 7.00854 24.3028 7.03958C24.233 7.07061 24.1715 7.11775 24.1235 7.17714C24.0754 7.23652 24.0421 7.30645 24.0264 7.38119C23.9468 7.46076 23.9468 7.54002 23.9468 7.69915V8.81156C23.9605 8.97161 24.0105 9.12641 24.0932 9.26415C24.1758 9.4019 24.2888 9.51893 24.4236 9.60631C30.6219 11.8311 33.8006 18.7446 31.4959 24.8636C30.9096 26.4899 29.9718 27.9669 28.7494 29.1894C27.5269 30.4118 26.0499 31.3496 24.4236 31.9359C24.2712 32.0022 24.1434 32.1144 24.0579 32.2569C23.9724 32.3994 23.9336 32.565 23.9468 32.7306V33.8431C23.936 33.9887 23.9783 34.1334 24.066 34.2503C24.1536 34.3672 24.2807 34.4483 24.4236 34.4787C24.5356 34.4905 24.6482 34.4624 24.7416 34.3994C27.6331 33.467 30.1545 31.6415 31.9431 29.1855C33.7316 26.7295 34.6952 23.7696 34.6952 20.7314C34.6952 17.6932 33.7316 14.7333 31.9431 12.2773C30.1545 9.82129 27.6331 7.99582 24.7416 7.06338V7.06323Z" fill="#2775CA"/>
<g filter="url(#filter0_d_10661_62761)">
<circle cx="36.3633" cy="32.5875" r="8" fill="#EDF0F4"/>
</g>
<path d="M34.0328 31.63L36.3633 29.2995L38.6949 31.631L40.0509 30.275L36.3633 26.5875L32.6769 30.2739L34.0328 31.63ZM30.3633 32.5875L31.7193 31.2313L33.0753 32.5873L31.7192 33.9433L30.3633 32.5875ZM34.0328 33.5452L36.3633 35.8756L38.6948 33.5441L40.0516 34.8994L40.0509 34.9001L36.3633 38.5876L32.6769 34.9012L32.675 34.8992L34.0328 33.5452ZM39.6513 32.5881L41.0073 31.2321L42.3633 32.588L41.0073 33.9441L39.6513 32.5881Z" fill="#F3BA2F"/>
<path d="M37.7383 32.5868H37.7389L36.363 31.2108L35.346 32.2275L35.2292 32.3444L34.9882 32.5854L34.9863 32.5873L34.9882 32.5892L36.363 33.9642L37.739 32.5882L37.7397 32.5875L37.7384 32.5868" fill="#F3BA2F"/>
</g>
<defs>
<filter id="filter0_d_10661_62761" x="20.3633" y="18.5875" width="32" height="32" filterUnits="userSpaceOnUse" color-interpolation-filters="sRGB">
<feFlood flood-opacity="0" result="BackgroundImageFix"/>
<feColorMatrix in="SourceAlpha" type="matrix" values="0 0 0 0 0 0 0 0 0 0 0 0 0 0 0 0 0 0 127 0" result="hardAlpha"/>
<feOffset dy="2"/>
<feGaussianBlur stdDeviation="4"/>
<feComposite in2="hardAlpha" operator="out"/>
<feColorMatrix type="matrix" values="0 0 0 0 0.109804 0 0 0 0 0.176471 0 0 0 0 0.368627 0 0 0 0.1 0"/>
<feBlend mode="normal" in2="BackgroundImageFix" result="effect1_dropShadow_10661_62761"/>
<feBlend mode="normal" in="SourceGraphic" in2="effect1_dropShadow_10661_62761" result="shape"/>
</filter>
<clipPath id="clip0_10661_62761">
<rect width="44" height="40" fill="white" transform="translate(0.363281 0.731323)"/>
</clipPath>
</defs>
</svg>
