<svg width="45" height="41" viewBox="0 0 45 41" fill="none" xmlns="http://www.w3.org/2000/svg">
<g clip-path="url(#clip0_10661_62749)">
<path d="M20.8516 0.397827C31.8983 0.397827 40.8516 9.35292 40.8516 20.3978C40.8516 31.4445 31.8983 40.3978 20.8516 40.3978C9.80665 40.3978 0.851562 31.4436 0.851562 20.3978C0.851562 9.35292 9.80665 0.397827 20.8516 0.397827Z" fill="#ECEFF3"/>
<path d="M26.1038 23.1793C26.1038 20.3982 24.435 19.4446 21.0975 19.0473C18.7135 18.7294 18.2367 18.0938 18.2367 16.9812C18.2367 15.8687 19.0315 15.1536 20.6207 15.1536C22.051 15.1536 22.8458 15.6304 23.243 16.8224C23.284 16.9375 23.3593 17.0374 23.4588 17.1084C23.5583 17.1794 23.6771 17.2182 23.7994 17.2196H25.0703C25.1439 17.2214 25.217 17.2083 25.2853 17.181C25.3536 17.1537 25.4157 17.1128 25.4677 17.0607C25.5197 17.0087 25.5607 16.9467 25.588 16.8784C25.6153 16.8101 25.6285 16.7369 25.6267 16.6634V16.5838C25.4728 15.7227 25.0389 14.9364 24.3922 14.3473C23.7456 13.7581 22.9225 13.3991 22.0507 13.3259V11.419C22.0507 11.101 21.8124 10.8626 21.4151 10.7831H20.2231C19.9052 10.7831 19.6668 11.0215 19.5872 11.419V13.2466C17.2033 13.5646 15.6939 15.1535 15.6939 17.1405C15.6939 19.7628 17.2831 20.7957 20.6207 21.1932C22.8458 21.5904 23.561 22.0672 23.561 23.3388C23.561 24.6103 22.448 25.4843 20.9386 25.4843C18.872 25.4843 18.1569 24.6097 17.9185 23.4177C17.8946 23.2865 17.8263 23.1675 17.725 23.0807C17.6238 22.9939 17.4957 22.9445 17.3624 22.9409H16.0113C15.9378 22.9392 15.8646 22.9523 15.7963 22.9797C15.7281 23.007 15.666 23.0479 15.614 23.0999C15.562 23.152 15.5212 23.214 15.4939 23.2823C15.4666 23.3506 15.4534 23.4238 15.4552 23.4973V23.5769C15.7729 25.5633 17.0444 26.9937 19.6668 27.3912V29.2983C19.6668 29.616 19.9052 29.8544 20.3024 29.934H21.4944C21.8123 29.934 22.0507 29.6956 22.1303 29.2983V27.3915C24.5143 26.9941 26.1035 25.3253 26.1035 23.1798L26.1038 23.1793Z" fill="#2775CA"/>
<path d="M16.8064 31.5228C10.6082 29.298 7.42946 22.3846 9.73415 16.2655C10.3204 14.6392 11.2582 13.1622 12.4807 11.9398C13.7031 10.7173 15.1801 9.77955 16.8064 9.19325C16.9588 9.12695 17.0866 9.01472 17.1721 8.87224C17.2576 8.72975 17.2964 8.56413 17.2832 8.3985V7.28609C17.2941 7.1404 17.2517 6.99572 17.1641 6.87885C17.0764 6.76198 16.9493 6.68084 16.8064 6.65047C16.6944 6.63865 16.5818 6.66672 16.4885 6.72974C13.5954 7.64911 11.07 9.4653 9.27779 11.9154C7.48556 14.3655 6.51953 17.3223 6.51953 20.358C6.51953 23.3936 7.48556 26.3505 9.27779 28.8005C11.07 31.2506 13.5954 33.0668 16.4885 33.9862C16.5545 34.0246 16.6288 34.0467 16.705 34.0508C16.7813 34.0549 16.8575 34.0409 16.9273 34.0099C16.9971 33.9788 17.0585 33.9317 17.1066 33.8723C17.1546 33.8129 17.1879 33.743 17.2037 33.6682C17.2832 33.589 17.2832 33.5094 17.2832 33.3506V32.238C17.2832 31.9996 17.0448 31.6821 16.8064 31.5228ZM25.2298 6.72974C25.1638 6.69138 25.0896 6.66924 25.0133 6.66512C24.937 6.66101 24.8608 6.67505 24.791 6.70608C24.7212 6.73711 24.6598 6.78426 24.6118 6.84364C24.5637 6.90302 24.5304 6.97296 24.5147 7.0477C24.4351 7.12726 24.4351 7.20652 24.4351 7.36565V8.47806C24.4487 8.63811 24.4988 8.79292 24.5814 8.93066C24.6641 9.0684 24.7771 9.18543 24.9119 9.27282C31.1101 11.4976 34.2889 18.4111 31.9842 24.5301C31.3979 26.1564 30.4601 27.6334 29.2377 28.8559C28.0152 30.0783 26.5382 31.0161 24.9119 31.6024C24.7595 31.6687 24.6317 31.7809 24.5462 31.9234C24.4607 32.0659 24.4219 32.2315 24.4351 32.3971V33.5096C24.4243 33.6553 24.4666 33.7999 24.5543 33.9168C24.6419 34.0337 24.769 34.1148 24.9119 34.1452C25.0239 34.157 25.1365 34.1289 25.2298 34.0659C28.1214 33.1335 30.6428 31.308 32.4313 28.852C34.2199 26.396 35.1834 23.4361 35.1834 20.3979C35.1834 17.3597 34.2199 14.3998 32.4313 11.9438C30.6428 9.4878 28.1214 7.66232 25.2298 6.72988V6.72974Z" fill="#2775CA"/>
<g filter="url(#filter0_d_10661_62749)">
<g filter="url(#filter1_d_10661_62749)">
<circle cx="36.8516" cy="32.3978" r="8" fill="#EDF0F4"/>
</g>
<path d="M39.2516 30.7911C39.081 30.693 38.8617 30.693 38.6667 30.7911L37.3021 31.6006L36.376 32.1158L35.0357 32.9253C34.8652 33.0234 34.6458 33.0234 34.4509 32.9253L33.403 32.2875C33.2324 32.1894 33.1106 31.9931 33.1106 31.7723V30.5458C33.1106 30.3496 33.2081 30.1533 33.403 30.0307L34.4509 29.4174C34.6215 29.3193 34.8408 29.3193 35.0357 29.4174L36.0836 30.0552C36.2542 30.1533 36.376 30.3496 36.376 30.5704V31.3799L37.3021 30.8402V30.0062C37.3021 29.8099 37.2046 29.6137 37.0096 29.491L35.0601 28.3381C34.8895 28.24 34.6702 28.24 34.4753 28.3381L32.477 29.5156C32.282 29.6137 32.1846 29.8099 32.1846 30.0062V32.312C32.1846 32.5082 32.282 32.7045 32.477 32.8271L34.4509 33.9801C34.6215 34.0782 34.8408 34.0782 35.0357 33.9801L36.376 33.1951L37.3021 32.6554L38.6424 31.8705C38.8129 31.7723 39.0323 31.7723 39.2272 31.8705L40.2751 32.4837C40.4457 32.5818 40.5675 32.7781 40.5675 32.9988V34.2254C40.5675 34.4216 40.47 34.6178 40.2751 34.7405L39.2516 35.3537C39.081 35.4519 38.8617 35.4519 38.6667 35.3537L37.6189 34.7405C37.4483 34.6424 37.3264 34.4461 37.3264 34.2254V33.4404L36.4004 33.9801V34.7896C36.4004 34.9858 36.4979 35.182 36.6928 35.3047L38.6667 36.4576C38.8373 36.5557 39.0566 36.5557 39.2516 36.4576L41.2255 35.3047C41.3961 35.2066 41.5179 35.0103 41.5179 34.7896V32.4592C41.5179 32.2629 41.4204 32.0667 41.2255 31.9441L39.2516 30.7911Z" fill="#8247E5"/>
</g>
</g>
<defs>
<filter id="filter0_d_10661_62749" x="20.8516" y="18.3978" width="32" height="32" filterUnits="userSpaceOnUse" color-interpolation-filters="sRGB">
<feFlood flood-opacity="0" result="BackgroundImageFix"/>
<feColorMatrix in="SourceAlpha" type="matrix" values="0 0 0 0 0 0 0 0 0 0 0 0 0 0 0 0 0 0 127 0" result="hardAlpha"/>
<feOffset dy="2"/>
<feGaussianBlur stdDeviation="4"/>
<feComposite in2="hardAlpha" operator="out"/>
<feColorMatrix type="matrix" values="0 0 0 0 0.109804 0 0 0 0 0.176471 0 0 0 0 0.368627 0 0 0 0.05 0"/>
<feBlend mode="normal" in2="BackgroundImageFix" result="effect1_dropShadow_10661_62749"/>
<feBlend mode="normal" in="SourceGraphic" in2="effect1_dropShadow_10661_62749" result="shape"/>
</filter>
<filter id="filter1_d_10661_62749" x="20.8516" y="18.3978" width="32" height="32" filterUnits="userSpaceOnUse" color-interpolation-filters="sRGB">
<feFlood flood-opacity="0" result="BackgroundImageFix"/>
<feColorMatrix in="SourceAlpha" type="matrix" values="0 0 0 0 0 0 0 0 0 0 0 0 0 0 0 0 0 0 127 0" result="hardAlpha"/>
<feOffset dy="2"/>
<feGaussianBlur stdDeviation="4"/>
<feComposite in2="hardAlpha" operator="out"/>
<feColorMatrix type="matrix" values="0 0 0 0 0.109804 0 0 0 0 0.176471 0 0 0 0 0.368627 0 0 0 0.1 0"/>
<feBlend mode="normal" in2="BackgroundImageFix" result="effect1_dropShadow_10661_62749"/>
<feBlend mode="normal" in="SourceGraphic" in2="effect1_dropShadow_10661_62749" result="shape"/>
</filter>
<clipPath id="clip0_10661_62749">
<rect width="44" height="40" fill="white" transform="translate(0.851562 0.397827)"/>
</clipPath>
</defs>
</svg>
