<svg width="45" height="41" viewBox="0 0 45 41" fill="none" xmlns="http://www.w3.org/2000/svg">
<g clip-path="url(#clip0_10661_62743)">
<path d="M20.6133 0.168579C31.66 0.168579 40.6133 9.12367 40.6133 20.1686C40.6133 31.2153 31.66 40.1686 20.6133 40.1686C9.56837 40.1686 0.613281 31.2144 0.613281 20.1686C0.613281 9.12367 9.56837 0.168579 20.6133 0.168579Z" fill="#ECEFF3"/>
<path d="M25.8655 22.9501C25.8655 20.1689 24.1967 19.2153 20.8592 18.8181C18.4752 18.5001 17.9984 17.8645 17.9984 16.752C17.9984 15.6394 18.7932 14.9244 20.3824 14.9244C21.8128 14.9244 22.6075 15.4012 23.0047 16.5931C23.0457 16.7083 23.121 16.8081 23.2205 16.8791C23.32 16.9502 23.4389 16.989 23.5611 16.9904H24.832C24.9056 16.9922 24.9787 16.979 25.047 16.9517C25.1153 16.9244 25.1774 16.8835 25.2294 16.8315C25.2815 16.7795 25.3224 16.7175 25.3497 16.6491C25.377 16.5808 25.3902 16.5077 25.3884 16.4341V16.3546C25.2346 15.4934 24.8006 14.7072 24.154 14.118C23.5073 13.5289 22.6842 13.1698 21.8125 13.0966V11.1897C21.8125 10.8718 21.5741 10.6334 21.1768 10.5538H19.9849C19.6669 10.5538 19.4285 10.7922 19.3489 11.1897V13.0174C16.965 13.3353 15.4557 14.9242 15.4557 16.9112C15.4557 19.5336 17.0449 20.5664 20.3824 20.964C22.6075 21.3612 23.3227 21.838 23.3227 23.1095C23.3227 24.3811 22.2097 25.2551 20.7003 25.2551C18.6338 25.2551 17.9186 24.3805 17.6802 23.1885C17.6563 23.0573 17.588 22.9383 17.4867 22.8514C17.3855 22.7646 17.2574 22.7153 17.1241 22.7117H15.773C15.6995 22.7099 15.6264 22.7231 15.5581 22.7504C15.4898 22.7778 15.4278 22.8187 15.3758 22.8707C15.3238 22.9227 15.2829 22.9848 15.2556 23.0531C15.2283 23.1214 15.2151 23.1945 15.217 23.268V23.3476C15.5346 25.334 16.8062 26.7644 19.4285 27.1619V29.0691C19.4285 29.3868 19.6669 29.6252 20.0641 29.7047H21.2561C21.5741 29.7047 21.8125 29.4663 21.892 29.0691V27.1622C24.276 26.7649 25.8652 25.0961 25.8652 22.9505L25.8655 22.9501Z" fill="#2775CA"/>
<path d="M16.5682 31.2936C10.3699 29.0688 7.19118 22.1553 9.49587 16.0363C10.0822 14.41 11.0199 12.933 12.2424 11.7105C13.4648 10.4881 14.9418 9.5503 16.5682 8.96401C16.7205 8.8977 16.8484 8.78547 16.9338 8.64299C17.0193 8.50051 17.0582 8.33488 17.045 8.16925V7.05684C17.0558 6.91115 17.0134 6.76647 16.9258 6.6496C16.8381 6.53273 16.7111 6.45159 16.5682 6.42122C16.4561 6.4094 16.3436 6.43747 16.2502 6.50049C13.3571 7.41987 10.8317 9.23605 9.0395 11.6861C7.24728 14.1362 6.28125 17.0931 6.28125 20.1287C6.28125 23.1643 7.24728 26.1212 9.0395 28.5713C10.8317 31.0214 13.3571 32.8376 16.2502 33.757C16.3163 33.7953 16.3905 33.8175 16.4667 33.8216C16.543 33.8257 16.6192 33.8116 16.689 33.7806C16.7588 33.7496 16.8202 33.7024 16.8683 33.6431C16.9163 33.5837 16.9496 33.5137 16.9654 33.439C17.0449 33.3597 17.045 33.2802 17.045 33.1213V32.0088C17.045 31.7704 16.8066 31.4529 16.5682 31.2936ZM24.9916 6.50049C24.9255 6.46213 24.8513 6.43999 24.775 6.43588C24.6987 6.43176 24.6226 6.4458 24.5528 6.47683C24.483 6.50786 24.4215 6.55501 24.3735 6.61439C24.3254 6.67378 24.2921 6.74371 24.2764 6.81845C24.1968 6.89801 24.1968 6.97728 24.1968 7.1364V8.24882C24.2105 8.40886 24.2605 8.56367 24.3432 8.70141C24.4258 8.83915 24.5388 8.95619 24.6736 9.04357C30.8719 11.2684 34.0506 18.1819 31.7459 24.3009C31.1596 25.9272 30.2218 27.4042 28.9994 28.6266C27.7769 29.8491 26.2999 30.7869 24.6736 31.3732C24.5212 31.4395 24.3934 31.5517 24.3079 31.6942C24.2224 31.8367 24.1836 32.0023 24.1968 32.1679V33.2803C24.186 33.426 24.2283 33.5707 24.316 33.6876C24.4036 33.8044 24.5307 33.8856 24.6736 33.9159C24.7856 33.9278 24.8982 33.8997 24.9916 33.8367C27.8831 32.9042 30.4045 31.0788 32.1931 28.6228C33.9816 26.1668 34.9452 23.2069 34.9452 20.1687C34.9452 17.1304 33.9816 14.1705 32.1931 11.7145C30.4045 9.25855 27.8831 7.43307 24.9916 6.50063V6.50049Z" fill="#2775CA"/>
<g clip-path="url(#clip1_10661_62743)" filter="url(#filter0_d_10661_62743)">
<g clip-path="url(#clip2_10661_62743)">
<circle cx="36.4473" cy="32.1686" r="8" fill="#EDF0F4"/>
</g>
<path d="M36.5429 25.7686L36.457 26.0603V34.5246L36.5429 34.6103L40.4719 32.2878L36.5429 25.7686Z" fill="#343434"/>
<path d="M36.5424 25.7686L32.6133 32.2878L36.5424 34.6103V30.5019V25.7686Z" fill="#8C8C8C"/>
<path d="M36.5425 35.3531L36.4941 35.4121V38.4273L36.5425 38.5686L40.4739 33.0319L36.5425 35.3531Z" fill="#3C3C3B"/>
<path d="M36.5424 38.5686V35.3531L32.6133 33.0319L36.5424 38.5686Z" fill="#8C8C8C"/>
<path d="M36.542 34.6117L40.471 32.2892L36.542 30.5033V34.6117Z" fill="#141414"/>
<path d="M32.6133 32.2892L36.5424 34.6117V30.5033L32.6133 32.2892Z" fill="#393939"/>
</g>
</g>
<defs>
<filter id="filter0_d_10661_62743" x="20.6133" y="18.1686" width="32" height="32" filterUnits="userSpaceOnUse" color-interpolation-filters="sRGB">
<feFlood flood-opacity="0" result="BackgroundImageFix"/>
<feColorMatrix in="SourceAlpha" type="matrix" values="0 0 0 0 0 0 0 0 0 0 0 0 0 0 0 0 0 0 127 0" result="hardAlpha"/>
<feOffset dy="2"/>
<feGaussianBlur stdDeviation="4"/>
<feComposite in2="hardAlpha" operator="out"/>
<feColorMatrix type="matrix" values="0 0 0 0 0.109804 0 0 0 0 0.176471 0 0 0 0 0.368627 0 0 0 0.05 0"/>
<feBlend mode="normal" in2="BackgroundImageFix" result="effect1_dropShadow_10661_62743"/>
<feBlend mode="normal" in="SourceGraphic" in2="effect1_dropShadow_10661_62743" result="shape"/>
</filter>
<clipPath id="clip0_10661_62743">
<rect width="44" height="40" fill="white" transform="translate(0.613281 0.168579)"/>
</clipPath>
<clipPath id="clip1_10661_62743">
<rect width="16" height="16" fill="white" transform="translate(28.6133 24.1686)"/>
</clipPath>
<clipPath id="clip2_10661_62743">
<rect width="16" height="16" fill="white" transform="translate(28.6133 24.1686)"/>
</clipPath>
</defs>
</svg>
