<svg width="45" height="41" viewBox="0 0 45 41" fill="none" xmlns="http://www.w3.org/2000/svg">
<g clip-path="url(#clip0_10661_62766)">
<path d="M20.3066 0.858032C31.3534 0.858032 40.3066 9.81312 40.3066 20.858C40.3066 31.9047 31.3534 40.858 20.3066 40.858C9.26173 40.858 0.306641 31.9038 0.306641 20.858C0.306641 9.81312 9.26173 0.858032 20.3066 0.858032Z" fill="#ECEFF3"/>
<path d="M25.5588 23.6395C25.5588 20.8584 23.8901 19.9048 20.5525 19.5076C18.1686 19.1896 17.6918 18.554 17.6918 17.4414C17.6918 16.3289 18.4865 15.6138 20.0757 15.6138C21.5061 15.6138 22.3009 16.0906 22.6981 17.2826C22.7391 17.3977 22.8144 17.4976 22.9139 17.5686C23.0133 17.6396 23.1322 17.6784 23.2544 17.6798H24.5254C24.5989 17.6816 24.6721 17.6685 24.7404 17.6412C24.8087 17.6139 24.8708 17.573 24.9228 17.521C24.9748 17.4689 25.0157 17.4069 25.0431 17.3386C25.0704 17.2703 25.0835 17.1971 25.0818 17.1236V17.044C24.9279 16.1829 24.494 15.3966 23.8473 14.8075C23.2007 14.2183 22.3775 13.8593 21.5058 13.7861V11.8792C21.5058 11.5612 21.2674 11.3229 20.8702 11.2433H19.6782C19.3603 11.2433 19.1219 11.4817 19.0423 11.8792V13.7068C16.6584 14.0248 15.149 15.6137 15.149 17.6007C15.149 20.223 16.7382 21.2559 20.0757 21.6534C22.3009 22.0506 23.0161 22.5274 23.0161 23.799C23.0161 25.0705 21.903 25.9445 20.3937 25.9445C18.3271 25.9445 17.6119 25.0699 17.3735 23.8779C17.3496 23.7467 17.2813 23.6277 17.1801 23.5409C17.0788 23.4541 16.9508 23.4047 16.8175 23.4011H15.4664C15.3928 23.3994 15.3197 23.4125 15.2514 23.4399C15.1831 23.4672 15.1211 23.5081 15.0691 23.5602C15.0171 23.6122 14.9762 23.6742 14.9489 23.7425C14.9216 23.8108 14.9085 23.884 14.9103 23.9575V24.0371C15.228 26.0235 16.4995 27.4539 19.1219 27.8514V29.7586C19.1219 30.0762 19.3603 30.3146 19.7575 30.3942H20.9495C21.2674 30.3942 21.5058 30.1558 21.5854 29.7586V27.8517C23.9693 27.4543 25.5585 25.7855 25.5585 23.64L25.5588 23.6395Z" fill="#2775CA"/>
<path d="M16.2615 31.983C10.0632 29.7582 6.88454 22.8448 9.18923 16.7257C9.77553 15.0994 10.7133 13.6224 11.9357 12.4C13.1582 11.1775 14.6352 10.2398 16.2615 9.65346C16.4139 9.58716 16.5417 9.47493 16.6272 9.33244C16.7127 9.18996 16.7515 9.02434 16.7383 8.85871V7.74629C16.7491 7.6006 16.7068 7.45592 16.6191 7.33905C16.5315 7.22218 16.4044 7.14105 16.2615 7.11067C16.1495 7.09886 16.0369 7.12693 15.9436 7.18994C13.0505 8.10932 10.5251 9.9255 8.73286 12.3756C6.94064 14.8257 5.97461 17.7826 5.97461 20.8182C5.97461 23.8538 6.94064 26.8107 8.73286 29.2608C10.5251 31.7108 13.0505 33.527 15.9436 34.4464C16.0096 34.4848 16.0838 34.5069 16.1601 34.511C16.2364 34.5151 16.3125 34.5011 16.3823 34.4701C16.4521 34.439 16.5136 34.3919 16.5616 34.3325C16.6097 34.2731 16.643 34.2032 16.6587 34.1284C16.7383 34.0492 16.7383 33.9696 16.7383 33.8108V32.6982C16.7383 32.4598 16.4999 32.1423 16.2615 31.983ZM24.6849 7.18994C24.6189 7.15159 24.5446 7.12944 24.4684 7.12533C24.3921 7.12122 24.3159 7.13525 24.2461 7.16628C24.1763 7.19732 24.1149 7.24446 24.0668 7.30385C24.0188 7.36323 23.9855 7.43316 23.9697 7.5079C23.8902 7.58747 23.8902 7.66673 23.8902 7.82586V8.93827C23.9038 9.09832 23.9539 9.25312 24.0365 9.39086C24.1192 9.5286 24.2322 9.64564 24.367 9.73302C30.5652 11.9578 33.7439 18.8713 31.4392 24.9903C30.8529 26.6166 29.9152 28.0937 28.6927 29.3161C27.4703 30.5385 25.9933 31.4763 24.367 32.0626C24.2146 32.1289 24.0868 32.2411 24.0013 32.3836C23.9158 32.5261 23.877 32.6917 23.8902 32.8574V33.9698C23.8793 34.1155 23.9217 34.2601 24.0093 34.377C24.097 34.4939 24.2241 34.575 24.367 34.6054C24.479 34.6172 24.5916 34.5891 24.6849 34.5261C27.5765 33.5937 30.0979 31.7682 31.8864 29.3122C33.675 26.8563 34.6385 23.8963 34.6385 20.8581C34.6385 17.8199 33.675 14.86 31.8864 12.404C30.0979 9.948 27.5765 8.12253 24.6849 7.19009V7.18994Z" fill="#2775CA"/>
<g filter="url(#filter0_d_10661_62766)">
<circle cx="36.3066" cy="32.858" r="8" fill="#E7EFF3"/>
<path d="M33.2661 34.7533C33.3215 34.6979 33.3978 34.6655 33.4786 34.6655H40.8103C40.9443 34.6655 41.0112 34.8272 40.9165 34.9219L39.4682 36.3702C39.4128 36.4257 39.3366 36.458 39.2557 36.458H31.924C31.7901 36.458 31.7231 36.2963 31.8178 36.2016L33.2661 34.7533Z" fill="url(#paint0_linear_10661_62766)"/>
<path d="M33.2661 29.3458C33.3239 29.2904 33.4001 29.2581 33.4786 29.2581H40.8103C40.9443 29.2581 41.0112 29.4198 40.9165 29.5145L39.4682 30.9628C39.4128 31.0182 39.3366 31.0505 39.2557 31.0505H31.924C31.7901 31.0505 31.7231 30.8889 31.8178 30.7941L33.2661 29.3458Z" fill="url(#paint1_linear_10661_62766)"/>
<path d="M39.4682 32.0322C39.4128 31.9768 39.3366 31.9445 39.2557 31.9445H31.924C31.7901 31.9445 31.7231 32.1062 31.8178 32.2009L33.2661 33.6492C33.3215 33.7046 33.3978 33.737 33.4786 33.737H40.8103C40.9443 33.737 41.0112 33.5753 40.9165 33.4806L39.4682 32.0322Z" fill="url(#paint2_linear_10661_62766)"/>
</g>
</g>
<defs>
<filter id="filter0_d_10661_62766" x="20.3066" y="18.858" width="32" height="32" filterUnits="userSpaceOnUse" color-interpolation-filters="sRGB">
<feFlood flood-opacity="0" result="BackgroundImageFix"/>
<feColorMatrix in="SourceAlpha" type="matrix" values="0 0 0 0 0 0 0 0 0 0 0 0 0 0 0 0 0 0 127 0" result="hardAlpha"/>
<feOffset dy="2"/>
<feGaussianBlur stdDeviation="4"/>
<feComposite in2="hardAlpha" operator="out"/>
<feColorMatrix type="matrix" values="0 0 0 0 0.109804 0 0 0 0 0.176471 0 0 0 0 0.368627 0 0 0 0.1 0"/>
<feBlend mode="normal" in2="BackgroundImageFix" result="effect1_dropShadow_10661_62766"/>
<feBlend mode="normal" in="SourceGraphic" in2="effect1_dropShadow_10661_62766" result="shape"/>
</filter>
<linearGradient id="paint0_linear_10661_62766" x1="15.2026" y1="27.8979" x2="15.0075" y2="37.7137" gradientUnits="userSpaceOnUse">
<stop stop-color="#00FFA3"/>
<stop offset="1" stop-color="#DC1FFF"/>
</linearGradient>
<linearGradient id="paint1_linear_10661_62766" x1="12.9839" y1="26.7396" x2="12.7889" y2="36.5555" gradientUnits="userSpaceOnUse">
<stop stop-color="#00FFA3"/>
<stop offset="1" stop-color="#DC1FFF"/>
</linearGradient>
<linearGradient id="paint2_linear_10661_62766" x1="14.0862" y1="27.315" x2="13.8911" y2="37.1309" gradientUnits="userSpaceOnUse">
<stop stop-color="#00FFA3"/>
<stop offset="1" stop-color="#DC1FFF"/>
</linearGradient>
<clipPath id="clip0_10661_62766">
<rect width="44" height="40" fill="white" transform="translate(0.306641 0.858032)"/>
</clipPath>
</defs>
</svg>
