<svg width="45" height="41" viewBox="0 0 45 41" fill="none" xmlns="http://www.w3.org/2000/svg">
<g clip-path="url(#clip0_10661_62754)">
<g clip-path="url(#clip1_10661_62754)">
<circle cx="20.8516" cy="20.3978" r="20" fill="#EDF0F4"/>
<path fill-rule="evenodd" clip-rule="evenodd" d="M11.3443 8.04469L5.87405 21.2534C5.85324 21.3025 5.84664 21.358 5.85523 21.4117C5.86381 21.4655 5.88714 21.5147 5.92178 21.5521L20.6956 37.8262C20.7375 37.8725 20.7934 37.8983 20.8516 37.8983C20.9097 37.8983 20.9656 37.8725 21.0076 37.8262L35.7813 21.5531C35.816 21.5157 35.8393 21.4665 35.8479 21.4128C35.8565 21.359 35.8499 21.3035 35.8291 21.2544L30.3588 8.0457C30.3412 8.00134 30.3128 7.96376 30.2771 7.93746C30.2413 7.91115 30.1998 7.89723 30.1573 7.89736H11.5476C11.5049 7.89675 11.4631 7.91033 11.427 7.93648C11.3909 7.96262 11.3622 8.0002 11.3443 8.04469Z" fill="#50AF95"/>
<path fill-rule="evenodd" clip-rule="evenodd" d="M23.5124 23.5223C23.4063 23.5315 22.8583 23.5691 21.636 23.5691C20.6637 23.5691 19.9734 23.5355 19.7312 23.5223C15.9739 23.3323 13.1694 22.5804 13.1694 21.6802C13.1694 20.78 15.9739 20.0291 19.7312 19.8361V22.7735C19.977 22.7938 20.6805 22.8416 21.6528 22.8416C22.8195 22.8416 23.4037 22.7857 23.5089 22.7745V19.8381C27.2582 20.0301 30.0565 20.782 30.0565 21.6802C30.0565 22.5784 27.2591 23.3303 23.5089 23.5213L23.5124 23.5223ZM23.5124 19.5343V16.9058H28.7449V12.8975H14.4988V16.9058H19.7304V19.5333C15.4781 19.7578 12.2803 20.7261 12.2803 21.8865C12.2803 23.0468 15.4781 24.0141 19.7304 24.2397V32.6627H23.5115V24.2366C27.7541 24.0121 30.9466 23.0448 30.9466 21.8855C30.9466 20.7261 27.7567 19.7589 23.5115 19.5333L23.5124 19.5343Z" fill="white"/>
</g>
<g filter="url(#filter0_d_10661_62754)">
<g filter="url(#filter1_d_10661_62754)">
<circle cx="36.8516" cy="32.3978" r="8" fill="#EDF0F4"/>
</g>
<path d="M39.2516 30.7911C39.081 30.693 38.8617 30.693 38.6667 30.7911L37.3021 31.6006L36.376 32.1158L35.0357 32.9253C34.8652 33.0234 34.6458 33.0234 34.4509 32.9253L33.403 32.2875C33.2324 32.1894 33.1106 31.9931 33.1106 31.7723V30.5458C33.1106 30.3496 33.2081 30.1533 33.403 30.0307L34.4509 29.4174C34.6215 29.3193 34.8408 29.3193 35.0357 29.4174L36.0836 30.0552C36.2542 30.1533 36.376 30.3496 36.376 30.5704V31.3799L37.3021 30.8402V30.0062C37.3021 29.8099 37.2046 29.6137 37.0096 29.491L35.0601 28.3381C34.8895 28.24 34.6702 28.24 34.4753 28.3381L32.477 29.5156C32.282 29.6137 32.1846 29.8099 32.1846 30.0062V32.312C32.1846 32.5082 32.282 32.7045 32.477 32.8271L34.4509 33.9801C34.6215 34.0782 34.8408 34.0782 35.0357 33.9801L36.376 33.1951L37.3021 32.6554L38.6424 31.8705C38.8129 31.7723 39.0323 31.7723 39.2272 31.8705L40.2751 32.4837C40.4457 32.5818 40.5675 32.7781 40.5675 32.9988V34.2254C40.5675 34.4216 40.47 34.6178 40.2751 34.7405L39.2516 35.3537C39.081 35.4519 38.8617 35.4519 38.6667 35.3537L37.6189 34.7405C37.4483 34.6424 37.3264 34.4461 37.3264 34.2254V33.4404L36.4004 33.9801V34.7896C36.4004 34.9858 36.4979 35.182 36.6928 35.3047L38.6667 36.4576C38.8373 36.5557 39.0566 36.5557 39.2516 36.4576L41.2255 35.3047C41.3961 35.2066 41.5179 35.0103 41.5179 34.7896V32.4592C41.5179 32.2629 41.4204 32.0667 41.2255 31.9441L39.2516 30.7911Z" fill="#8247E5"/>
</g>
</g>
<defs>
<filter id="filter0_d_10661_62754" x="20.8516" y="18.3978" width="32" height="32" filterUnits="userSpaceOnUse" color-interpolation-filters="sRGB">
<feFlood flood-opacity="0" result="BackgroundImageFix"/>
<feColorMatrix in="SourceAlpha" type="matrix" values="0 0 0 0 0 0 0 0 0 0 0 0 0 0 0 0 0 0 127 0" result="hardAlpha"/>
<feOffset dy="2"/>
<feGaussianBlur stdDeviation="4"/>
<feComposite in2="hardAlpha" operator="out"/>
<feColorMatrix type="matrix" values="0 0 0 0 0.109804 0 0 0 0 0.176471 0 0 0 0 0.368627 0 0 0 0.05 0"/>
<feBlend mode="normal" in2="BackgroundImageFix" result="effect1_dropShadow_10661_62754"/>
<feBlend mode="normal" in="SourceGraphic" in2="effect1_dropShadow_10661_62754" result="shape"/>
</filter>
<filter id="filter1_d_10661_62754" x="20.8516" y="18.3978" width="32" height="32" filterUnits="userSpaceOnUse" color-interpolation-filters="sRGB">
<feFlood flood-opacity="0" result="BackgroundImageFix"/>
<feColorMatrix in="SourceAlpha" type="matrix" values="0 0 0 0 0 0 0 0 0 0 0 0 0 0 0 0 0 0 127 0" result="hardAlpha"/>
<feOffset dy="2"/>
<feGaussianBlur stdDeviation="4"/>
<feComposite in2="hardAlpha" operator="out"/>
<feColorMatrix type="matrix" values="0 0 0 0 0.109804 0 0 0 0 0.176471 0 0 0 0 0.368627 0 0 0 0.1 0"/>
<feBlend mode="normal" in2="BackgroundImageFix" result="effect1_dropShadow_10661_62754"/>
<feBlend mode="normal" in="SourceGraphic" in2="effect1_dropShadow_10661_62754" result="shape"/>
</filter>
<clipPath id="clip0_10661_62754">
<rect width="44" height="40" fill="white" transform="translate(0.851562 0.397827)"/>
</clipPath>
<clipPath id="clip1_10661_62754">
<rect width="40" height="40" fill="white" transform="translate(0.851562 0.397827)"/>
</clipPath>
</defs>
</svg>
