<svg width="33" height="33" viewBox="0 0 33 33" fill="none" xmlns="http://www.w3.org/2000/svg">
<g clip-path="url(#clip0)">
<path fill-rule="evenodd" clip-rule="evenodd" d="M6.0418 0.162077L0.0247375 14.6912C0.00184084 14.7452 -0.00541496 14.8062 0.00403117 14.8654C0.0134773 14.9245 0.0391298 14.9786 0.0772373 15.0197L16.3279 32.9207C16.374 32.9716 16.4355 33 16.4995 33C16.5634 33 16.6249 32.9716 16.6711 32.9207L32.9217 15.0209C32.9598 14.9797 32.9854 14.9256 32.9949 14.8665C33.0043 14.8074 32.9971 14.7463 32.9742 14.6923L26.9571 0.163194C26.9377 0.1144 26.9065 0.0730642 26.8672 0.0441284C26.8279 0.0151926 26.7821 -0.000119696 26.7355 2.16286e-05H6.26541C6.21851 -0.000649126 6.17244 0.0142943 6.13276 0.0430492C6.09308 0.0718041 6.06149 0.113142 6.0418 0.162077Z" fill="#50AF95"/>
<path fill-rule="evenodd" clip-rule="evenodd" d="M19.4262 17.187C19.3096 17.197 18.7068 17.2384 17.3622 17.2384C16.2928 17.2384 15.5335 17.2015 15.2671 17.187C11.1342 16.978 8.04934 16.1509 8.04934 15.1607C8.04934 14.1705 11.1342 13.3446 15.2671 13.1322V16.3633C15.5374 16.3856 16.3112 16.4382 17.3807 16.4382C18.664 16.4382 19.3067 16.3767 19.4223 16.3644V13.1345C23.5465 13.3457 26.6245 14.1727 26.6245 15.1607C26.6245 16.1487 23.5475 16.9757 19.4223 17.1858L19.4262 17.187ZM19.4262 12.8003V9.90902H25.1818V5.5H9.51156V9.90902H15.2661V12.7992C10.5888 13.0462 7.07129 14.1113 7.07129 15.3876C7.07129 16.6639 10.5888 17.7279 15.2661 17.976V27.2411H19.4253V17.9727C24.0919 17.7257 27.6036 16.6617 27.6036 15.3865C27.6036 14.1113 24.0948 13.0473 19.4253 12.7992L19.4262 12.8003Z" fill="white"/>
</g>
<defs>
<clipPath id="clip0">
<rect width="33" height="33" fill="white"/>
</clipPath>
</defs>
</svg>
