<svg width="45" height="41" viewBox="0 0 45 41" fill="none" xmlns="http://www.w3.org/2000/svg">
<g clip-path="url(#clip0_10661_62760)">
<g clip-path="url(#clip1_10661_62760)">
<circle cx="20.3633" cy="20.7313" r="20" fill="#EDF0F4"/>
<path fill-rule="evenodd" clip-rule="evenodd" d="M10.856 8.37818L5.38577 21.5869C5.36495 21.636 5.35836 21.6915 5.36695 21.7452C5.37553 21.799 5.39885 21.8482 5.4335 21.8856L20.2073 38.1597C20.2492 38.206 20.3051 38.2318 20.3633 38.2318C20.4214 38.2318 20.4773 38.206 20.5193 38.1597L35.2931 21.8866C35.3277 21.8492 35.351 21.8 35.3596 21.7463C35.3682 21.6925 35.3616 21.637 35.3408 21.5879L29.8706 8.3792C29.8529 8.33484 29.8245 8.29726 29.7888 8.27095C29.753 8.24465 29.7115 8.23073 29.669 8.23085H11.0593C11.0167 8.23024 10.9748 8.24383 10.9387 8.26997C10.9026 8.29611 10.8739 8.33369 10.856 8.37818Z" fill="#50AF95"/>
<path fill-rule="evenodd" clip-rule="evenodd" d="M23.0241 23.8558C22.9181 23.865 22.3701 23.9026 21.1477 23.9026C20.1754 23.9026 19.4851 23.869 19.243 23.8558C15.4857 23.6658 12.6812 22.9139 12.6812 22.0137C12.6812 21.1135 15.4857 20.3626 19.243 20.1696V23.107C19.4887 23.1273 20.1922 23.1751 21.1645 23.1751C22.3312 23.1751 22.9154 23.1192 23.0206 23.108V20.1716C26.7699 20.3636 29.5682 21.1155 29.5682 22.0137C29.5682 22.9119 26.7708 23.6638 23.0206 23.8548L23.0241 23.8558ZM23.0241 19.8678V17.2393H28.2566V13.231H14.0105V17.2393H19.2421V19.8668C14.9898 20.0913 11.792 21.0596 11.792 22.22C11.792 23.3803 14.9898 24.3476 19.2421 24.5731V32.9962H23.0232V24.5701C27.2658 24.3456 30.4583 23.3783 30.4583 22.219C30.4583 21.0596 27.2684 20.0924 23.0232 19.8668L23.0241 19.8678Z" fill="white"/>
</g>
<g filter="url(#filter0_d_10661_62760)">
<circle cx="36.3633" cy="32.5875" r="8" fill="#EDF0F4"/>
</g>
<path d="M34.0328 31.63L36.3633 29.2995L38.6949 31.631L40.0509 30.275L36.3633 26.5875L32.6769 30.2739L34.0328 31.63ZM30.3633 32.5875L31.7193 31.2313L33.0753 32.5873L31.7192 33.9433L30.3633 32.5875ZM34.0328 33.5452L36.3633 35.8756L38.6948 33.5441L40.0516 34.8994L40.0509 34.9001L36.3633 38.5876L32.6769 34.9012L32.675 34.8992L34.0328 33.5452ZM39.6513 32.5881L41.0073 31.2321L42.3633 32.588L41.0073 33.9441L39.6513 32.5881Z" fill="#F3BA2F"/>
<path d="M37.7383 32.5868H37.7389L36.363 31.2108L35.346 32.2275L35.2292 32.3444L34.9882 32.5854L34.9863 32.5873L34.9882 32.5892L36.363 33.9642L37.739 32.5882L37.7397 32.5875L37.7384 32.5868" fill="#F3BA2F"/>
</g>
<defs>
<filter id="filter0_d_10661_62760" x="20.3633" y="18.5875" width="32" height="32" filterUnits="userSpaceOnUse" color-interpolation-filters="sRGB">
<feFlood flood-opacity="0" result="BackgroundImageFix"/>
<feColorMatrix in="SourceAlpha" type="matrix" values="0 0 0 0 0 0 0 0 0 0 0 0 0 0 0 0 0 0 127 0" result="hardAlpha"/>
<feOffset dy="2"/>
<feGaussianBlur stdDeviation="4"/>
<feComposite in2="hardAlpha" operator="out"/>
<feColorMatrix type="matrix" values="0 0 0 0 0.109804 0 0 0 0 0.176471 0 0 0 0 0.368627 0 0 0 0.1 0"/>
<feBlend mode="normal" in2="BackgroundImageFix" result="effect1_dropShadow_10661_62760"/>
<feBlend mode="normal" in="SourceGraphic" in2="effect1_dropShadow_10661_62760" result="shape"/>
</filter>
<clipPath id="clip0_10661_62760">
<rect width="44" height="40" fill="white" transform="translate(0.363281 0.731323)"/>
</clipPath>
<clipPath id="clip1_10661_62760">
<rect width="40" height="40" fill="white" transform="translate(0.363281 0.731323)"/>
</clipPath>
</defs>
</svg>
