<svg width="45" height="41" viewBox="0 0 45 41" fill="none" xmlns="http://www.w3.org/2000/svg">
<g clip-path="url(#clip0_10661_62753)">
<path d="M20.8516 0.397827C31.8983 0.397827 40.8516 9.35292 40.8516 20.3978C40.8516 31.4445 31.8983 40.3978 20.8516 40.3978C9.80665 40.3978 0.851562 31.4436 0.851562 20.3978C0.851562 9.35292 9.80665 0.397827 20.8516 0.397827Z" fill="#ECEFF3"/>
<path d="M28.7362 13.1444L28.0498 13.8309C29.6878 15.6221 30.5961 17.9614 30.5961 20.3886C30.5961 22.8158 29.6878 25.1552 28.0498 26.9464L28.7362 27.6328C30.5578 25.657 31.5691 23.068 31.5691 20.3806C31.5691 17.6932 30.5578 15.1043 28.7362 13.1284V13.1444Z" fill="#F09242"/>
<path d="M14.3011 13.2039C16.0923 11.5659 18.4316 10.6576 20.8588 10.6576C23.286 10.6576 25.6254 11.5659 27.4166 13.2039L28.103 12.5175C26.1272 10.6959 23.5382 9.68457 20.8508 9.68457C18.1634 9.68457 15.5745 10.6959 13.5986 12.5175L14.3011 13.2039Z" fill="#F09242"/>
<path d="M13.658 26.9532C12.022 25.1623 11.1149 22.8244 11.1149 20.3988C11.1149 17.9732 12.022 15.6353 13.658 13.8445L12.9716 13.1581C11.15 15.1339 10.1387 17.7229 10.1387 20.4103C10.1387 23.0977 11.15 25.6866 12.9716 27.6625L13.658 26.9532Z" fill="#F09242"/>
<path d="M27.4064 27.5872C25.6152 29.2251 23.2759 30.1334 20.8487 30.1334C18.4215 30.1334 16.0821 29.2251 14.2909 27.5872L13.6045 28.2736C15.5803 30.0952 18.1693 31.1065 20.8567 31.1065C23.5441 31.1065 26.133 30.0952 28.1089 28.2736L27.4064 27.5872Z" fill="#F09242"/>
<path d="M25.1857 18.1075C25.0484 16.6751 23.8128 16.1946 22.25 16.0482V14.0758H21.0419V16.0116C20.7238 16.0116 20.3989 16.0116 20.0763 16.0116V14.0758H18.8773V16.0619H16.4268V17.3547C16.4268 17.3547 17.3191 17.3387 17.3054 17.3547C17.4663 17.337 17.6278 17.3824 17.7558 17.4815C17.8839 17.5805 17.9685 17.7253 17.9918 17.8855V23.3221C17.9884 23.3786 17.9737 23.4338 17.9485 23.4845C17.9234 23.5352 17.8883 23.5804 17.8454 23.6173C17.8033 23.6549 17.754 23.6836 17.7006 23.7017C17.6471 23.7198 17.5905 23.7269 17.5342 23.7225C17.5502 23.7362 16.6556 23.7225 16.6556 23.7225L16.4268 25.1663H18.8545V27.1844H20.0626V25.1961H21.0282V27.1753H22.2386V25.1801C24.2796 25.0565 25.7028 24.5531 25.8813 22.6425C26.0254 21.1049 25.3024 20.4185 24.1469 20.1416C24.8493 19.7961 25.2841 19.1554 25.1857 18.1075ZM23.4925 22.4046C23.4925 23.9056 20.9206 23.734 20.1015 23.734V21.0706C20.9206 21.0729 23.4925 20.8372 23.4925 22.4046ZM22.9319 18.652C22.9319 20.0249 20.7856 19.8579 20.1038 19.8579V17.4371C20.7856 17.4371 22.9319 17.222 22.9319 18.652Z" fill="#F09242"/>
<path d="M20.8493 32.8978C18.3772 32.8974 15.9608 32.1639 13.9055 30.7902C11.8502 29.4166 10.2484 27.4643 9.30264 25.1803C8.35682 22.8963 8.10948 20.3832 8.59186 17.9586C9.07425 15.5341 10.2647 13.307 12.0127 11.559C13.7608 9.81098 15.9878 8.62052 18.4124 8.13813C20.8369 7.65574 23.3501 7.90309 25.6341 8.8489C27.918 9.79471 29.8703 11.3965 31.244 13.4518C32.6177 15.507 33.3511 17.9235 33.3516 20.3955C33.3519 22.0374 33.0287 23.6633 32.4005 25.1803C31.7723 26.6973 30.8514 28.0757 29.6904 29.2367C28.5294 30.3977 27.151 31.3186 25.6341 31.9468C24.1171 32.575 22.4912 32.8981 20.8493 32.8978ZM20.8493 8.87257C18.5717 8.87438 16.3459 9.55135 14.453 10.8179C12.5601 12.0845 11.0852 13.8837 10.2146 15.9883C9.3441 18.093 9.11704 20.4084 9.56214 22.642C10.0072 24.8756 11.1045 26.9272 12.7153 28.5373C14.3261 30.1475 16.3781 31.2439 18.6119 31.6881C20.8457 32.1324 23.161 31.9044 25.2653 31.033C27.3695 30.1616 29.1682 28.686 30.434 26.7926C31.6998 24.8992 32.3759 22.6731 32.3768 20.3955C32.3774 18.8818 32.0796 17.3827 31.5005 15.9841C30.9213 14.5855 30.0722 13.3148 29.0015 12.2446C27.9309 11.1744 26.6599 10.3258 25.261 9.74717C23.8622 9.16856 22.363 8.87137 20.8493 8.87257Z" fill="#F09242"/>
<g filter="url(#filter0_d_10661_62753)">
<g filter="url(#filter1_d_10661_62753)">
<circle cx="36.8516" cy="32.3978" r="8" fill="#EDF0F4"/>
</g>
<path d="M39.2516 30.7911C39.081 30.693 38.8617 30.693 38.6667 30.7911L37.3021 31.6006L36.376 32.1158L35.0357 32.9253C34.8652 33.0234 34.6458 33.0234 34.4509 32.9253L33.403 32.2875C33.2324 32.1894 33.1106 31.9931 33.1106 31.7723V30.5458C33.1106 30.3496 33.2081 30.1533 33.403 30.0307L34.4509 29.4174C34.6215 29.3193 34.8408 29.3193 35.0357 29.4174L36.0836 30.0552C36.2542 30.1533 36.376 30.3496 36.376 30.5704V31.3799L37.3021 30.8402V30.0062C37.3021 29.8099 37.2046 29.6137 37.0096 29.491L35.0601 28.3381C34.8895 28.24 34.6702 28.24 34.4753 28.3381L32.477 29.5156C32.282 29.6137 32.1846 29.8099 32.1846 30.0062V32.312C32.1846 32.5082 32.282 32.7045 32.477 32.8271L34.4509 33.9801C34.6215 34.0782 34.8408 34.0782 35.0357 33.9801L36.376 33.1951L37.3021 32.6554L38.6424 31.8705C38.8129 31.7723 39.0323 31.7723 39.2272 31.8705L40.2751 32.4837C40.4457 32.5818 40.5675 32.7781 40.5675 32.9988V34.2254C40.5675 34.4216 40.47 34.6178 40.2751 34.7405L39.2516 35.3537C39.081 35.4519 38.8617 35.4519 38.6667 35.3537L37.6189 34.7405C37.4483 34.6424 37.3264 34.4461 37.3264 34.2254V33.4404L36.4004 33.9801V34.7896C36.4004 34.9858 36.4979 35.182 36.6928 35.3047L38.6667 36.4576C38.8373 36.5557 39.0566 36.5557 39.2516 36.4576L41.2255 35.3047C41.3961 35.2066 41.5179 35.0103 41.5179 34.7896V32.4592C41.5179 32.2629 41.4204 32.0667 41.2255 31.9441L39.2516 30.7911Z" fill="#8247E5"/>
</g>
</g>
<defs>
<filter id="filter0_d_10661_62753" x="20.8516" y="18.3978" width="32" height="32" filterUnits="userSpaceOnUse" color-interpolation-filters="sRGB">
<feFlood flood-opacity="0" result="BackgroundImageFix"/>
<feColorMatrix in="SourceAlpha" type="matrix" values="0 0 0 0 0 0 0 0 0 0 0 0 0 0 0 0 0 0 127 0" result="hardAlpha"/>
<feOffset dy="2"/>
<feGaussianBlur stdDeviation="4"/>
<feComposite in2="hardAlpha" operator="out"/>
<feColorMatrix type="matrix" values="0 0 0 0 0.109804 0 0 0 0 0.176471 0 0 0 0 0.368627 0 0 0 0.05 0"/>
<feBlend mode="normal" in2="BackgroundImageFix" result="effect1_dropShadow_10661_62753"/>
<feBlend mode="normal" in="SourceGraphic" in2="effect1_dropShadow_10661_62753" result="shape"/>
</filter>
<filter id="filter1_d_10661_62753" x="20.8516" y="18.3978" width="32" height="32" filterUnits="userSpaceOnUse" color-interpolation-filters="sRGB">
<feFlood flood-opacity="0" result="BackgroundImageFix"/>
<feColorMatrix in="SourceAlpha" type="matrix" values="0 0 0 0 0 0 0 0 0 0 0 0 0 0 0 0 0 0 127 0" result="hardAlpha"/>
<feOffset dy="2"/>
<feGaussianBlur stdDeviation="4"/>
<feComposite in2="hardAlpha" operator="out"/>
<feColorMatrix type="matrix" values="0 0 0 0 0.109804 0 0 0 0 0.176471 0 0 0 0 0.368627 0 0 0 0.1 0"/>
<feBlend mode="normal" in2="BackgroundImageFix" result="effect1_dropShadow_10661_62753"/>
<feBlend mode="normal" in="SourceGraphic" in2="effect1_dropShadow_10661_62753" result="shape"/>
</filter>
<clipPath id="clip0_10661_62753">
<rect width="44" height="40" fill="white" transform="translate(0.851562 0.397827)"/>
</clipPath>
</defs>
</svg>
