<svg width="45" height="41" viewBox="0 0 45 41" fill="none" xmlns="http://www.w3.org/2000/svg">
<g clip-path="url(#clip0_10661_62752)">
<g clip-path="url(#clip1_10661_62752)">
<circle cx="20.8516" cy="20.3978" r="20" fill="#EDF0F4"/>
<path d="M15.2459 32.8978C21.661 32.8978 21.661 32.8023 22.7489 32.4795C24.1698 32.0575 18.7354 28.2954 15.2459 28.2954C11.7563 28.2954 8.92773 29.3256 8.92773 30.5964C8.92773 31.8671 11.7562 32.8978 15.2459 32.8978Z" fill="black"/>
<path d="M29.8133 13.3287L30.1082 13.6467L29.8503 13.9952C21.4837 25.3076 16.6639 30.4296 14.619 29.7424C13.3734 29.3241 12.1242 28.0656 10.8752 26.2383C10.436 25.596 10.0238 24.9196 9.64875 24.2466C9.39902 23.7984 9.18762 23.3896 9.07797 23.1594C8.96321 22.9346 8.88042 22.6949 8.83199 22.4472L8.82636 22.4187C8.80679 22.3177 8.79955 22.286 8.78534 22.231C8.21065 20.0667 8.28574 17.7811 9.00127 15.6592C9.71679 13.5373 11.0411 11.673 12.809 10.2987C14.577 8.92432 16.7104 8.1008 18.9432 7.93076C21.176 7.76073 23.4095 8.2517 25.3652 9.34248L25.4086 9.36929C26.7881 10.33 28.2563 11.6498 29.8133 13.3287ZM24.8322 10.2429C23.0552 9.25889 21.0282 8.81888 19.0032 8.97754C16.9781 9.13621 15.0444 9.88656 13.4423 11.1353C11.8403 12.3841 10.6406 14.0761 9.99235 16.0012C9.34415 17.9262 9.27603 19.9993 9.79647 21.9628C9.81913 22.048 9.82931 22.0962 9.85331 22.2198L9.85827 22.2451C9.88993 22.4071 9.94516 22.5637 10.0222 22.7097C10.1223 22.9198 10.3236 23.3088 10.5626 23.7379C10.923 24.3848 11.319 25.0344 11.7387 25.6483C12.8673 27.2993 13.9866 28.4268 14.9521 28.7512C16.2399 29.1837 21.0881 24.0517 28.7499 13.7243C27.3589 12.2557 26.053 11.0953 24.8322 10.2429Z" fill="black"/>
<path d="M24.8317 10.243C23.0547 9.25901 21.0277 8.81903 19.0027 8.97772C16.9776 9.13641 15.0439 9.88677 13.4419 11.1355C11.8399 12.3843 10.6402 14.0763 9.99197 16.0013C9.34377 17.9264 9.27565 19.9994 9.79606 21.9629C9.81872 22.0481 9.82891 22.0962 9.8529 22.2198L9.85786 22.2452C9.88955 22.4071 9.94478 22.5636 10.0218 22.7095C10.1219 22.9196 10.3231 23.3086 10.5622 23.7377C10.9226 24.3846 11.3186 25.0342 11.7383 25.6481C12.8669 27.2991 13.9862 28.4266 14.9517 28.751C16.2395 29.1835 21.0877 24.0515 28.7495 13.7241C27.3584 12.2556 26.0525 11.0952 24.8317 10.243Z" fill="#EC1C79"/>
<path d="M21.8987 32.7932C19.6437 32.7932 17.4393 32.1245 15.5643 30.8717C13.6893 29.6188 12.2279 27.8382 11.365 25.7548C10.502 23.6714 10.2762 21.3789 10.7162 19.1672C11.1561 16.9555 12.242 14.9239 13.8365 13.3293C15.4311 11.7348 17.4627 10.6489 19.6744 10.209C21.8861 9.76902 24.1786 9.99481 26.262 10.8578C28.3454 11.7207 30.1261 13.1821 31.3789 15.0571C32.6317 16.9321 33.3004 19.1365 33.3004 21.3915C33.3004 24.4155 32.0992 27.3155 29.9609 29.4537C27.8227 31.592 24.9227 32.7932 21.8987 32.7932ZM21.8987 31.7476C23.9469 31.7476 25.949 31.1402 27.6519 30.0024C29.3548 28.8645 30.6821 27.2472 31.4659 25.355C32.2497 23.4628 32.4547 21.3806 32.0552 19.3719C31.6556 17.3631 30.6694 15.5179 29.2212 14.0697C27.773 12.6214 25.9278 11.6352 23.9191 11.2355C21.9103 10.8359 19.8282 11.041 17.936 11.8247C16.0437 12.6084 14.4264 13.9357 13.2885 15.6386C12.1505 17.3415 11.5431 19.3436 11.5431 21.3917C11.5431 22.7516 11.8109 24.0982 12.3313 25.3546C12.8518 26.611 13.6146 27.7526 14.5762 28.7142C15.5378 29.6758 16.6794 30.4386 17.9358 30.959C19.1922 31.4794 20.5388 31.7472 21.8987 31.7472V31.7476Z" fill="black"/>
<path d="M21.8985 31.7474C23.9466 31.7474 25.9488 31.14 27.6517 30.0021C29.3547 28.8643 30.682 27.247 31.4658 25.3547C32.2496 23.4625 32.4547 21.3804 32.0551 19.3716C31.6555 17.3628 30.6693 15.5176 29.221 14.0694C27.7728 12.6211 25.9276 11.6348 23.9189 11.2353C21.9101 10.8357 19.8279 11.0407 17.9357 11.8245C16.0435 12.6083 14.4262 13.9355 13.2883 15.6385C12.1504 17.3414 11.543 19.3435 11.543 21.3917C11.543 22.7516 11.8108 24.0982 12.3312 25.3546C12.8516 26.611 13.6144 27.7526 14.576 28.7142C15.5376 29.6759 16.6792 30.4387 17.9356 30.9591C19.192 31.4795 20.5386 31.7474 21.8985 31.7474Z" fill="white"/>
<path fill-rule="evenodd" clip-rule="evenodd" d="M14.152 23.5129L12.7812 19.3832H13.9821L14.6967 21.7559L15.4876 19.3718H16.4661L17.257 21.7559L17.9716 19.3832H19.149L17.7779 23.5129H16.788L15.9621 21.1523L15.142 23.5129H14.152ZM19.5996 23.4835V19.3832H22.8973V20.3497H20.7243V20.9706H22.6927V21.8669H20.7243V22.5171H22.9269V23.4836L19.5996 23.4835ZM24.5084 23.4835V20.3791H23.2784V19.3832H26.875V20.3791H25.6449V23.4836L24.5084 23.4835ZM27.3729 23.4835V19.3832H28.5092V20.9179H29.9678V19.3832H31.1041V23.4836H29.9678V21.9255H28.5092V23.4836L27.3729 23.4835Z" fill="black"/>
<path d="M9.08464 18.1499C8.949 18.0786 8.84671 17.957 8.79971 17.8111C8.75271 17.6652 8.76475 17.5068 8.83324 17.3697C8.90172 17.2326 9.02121 17.1278 9.16606 17.0777C9.31092 17.0277 9.46961 17.0365 9.6081 17.1021L11.2817 17.9389C11.3514 17.9728 11.4137 18.0202 11.4649 18.0783C11.5162 18.1364 11.5554 18.2041 11.5803 18.2774C11.6053 18.3508 11.6154 18.4284 11.6101 18.5057C11.6048 18.583 11.5843 18.6585 11.5496 18.7278C11.515 18.7971 11.4669 18.8588 11.4083 18.9094C11.3496 18.96 11.2814 18.9985 11.2078 19.0226C11.1342 19.0467 11.0565 19.0559 10.9792 19.0498C10.902 19.0436 10.8268 19.0222 10.7578 18.9868L9.08464 18.1499Z" fill="black"/>
<path d="M8.89127 20.9248C8.82041 20.8932 8.75654 20.8479 8.70335 20.7914C8.65015 20.735 8.60871 20.6685 8.58141 20.5959C8.55411 20.5233 8.54151 20.446 8.54433 20.3684C8.54716 20.2909 8.56535 20.2147 8.59785 20.1443C8.63036 20.0738 8.67653 20.0106 8.73369 19.9581C8.79085 19.9057 8.85785 19.8651 8.93082 19.8388C9.00378 19.8124 9.08125 19.8008 9.15873 19.8047C9.23621 19.8085 9.31215 19.8277 9.38216 19.8611L11.0558 20.6335C11.1266 20.6651 11.1905 20.7104 11.2437 20.7669C11.2969 20.8234 11.3383 20.8898 11.3656 20.9624C11.3929 21.0351 11.4055 21.1124 11.4027 21.1899C11.3999 21.2674 11.3817 21.3436 11.3492 21.414C11.3167 21.4845 11.2705 21.5478 11.2133 21.6002C11.1562 21.6526 11.0892 21.6932 11.0162 21.7196C10.9432 21.7459 10.8658 21.7575 10.7883 21.7537C10.7108 21.7498 10.6349 21.7306 10.5649 21.6972L8.89127 20.9248Z" fill="black"/>
</g>
<g filter="url(#filter0_d_10661_62752)">
<g filter="url(#filter1_d_10661_62752)">
<circle cx="36.8516" cy="32.3978" r="8" fill="#EDF0F4"/>
</g>
<path d="M39.2516 30.7911C39.081 30.693 38.8617 30.693 38.6667 30.7911L37.3021 31.6006L36.376 32.1158L35.0357 32.9253C34.8652 33.0234 34.6458 33.0234 34.4509 32.9253L33.403 32.2875C33.2324 32.1894 33.1106 31.9931 33.1106 31.7723V30.5458C33.1106 30.3496 33.2081 30.1533 33.403 30.0307L34.4509 29.4174C34.6215 29.3193 34.8408 29.3193 35.0357 29.4174L36.0836 30.0552C36.2542 30.1533 36.376 30.3496 36.376 30.5704V31.3799L37.3021 30.8402V30.0062C37.3021 29.8099 37.2046 29.6137 37.0096 29.491L35.0601 28.3381C34.8895 28.24 34.6702 28.24 34.4753 28.3381L32.477 29.5156C32.282 29.6137 32.1846 29.8099 32.1846 30.0062V32.312C32.1846 32.5082 32.282 32.7045 32.477 32.8271L34.4509 33.9801C34.6215 34.0782 34.8408 34.0782 35.0357 33.9801L36.376 33.1951L37.3021 32.6554L38.6424 31.8705C38.8129 31.7723 39.0323 31.7723 39.2272 31.8705L40.2751 32.4837C40.4457 32.5818 40.5675 32.7781 40.5675 32.9988V34.2254C40.5675 34.4216 40.47 34.6178 40.2751 34.7405L39.2516 35.3537C39.081 35.4519 38.8617 35.4519 38.6667 35.3537L37.6189 34.7405C37.4483 34.6424 37.3264 34.4461 37.3264 34.2254V33.4404L36.4004 33.9801V34.7896C36.4004 34.9858 36.4979 35.182 36.6928 35.3047L38.6667 36.4576C38.8373 36.5557 39.0566 36.5557 39.2516 36.4576L41.2255 35.3047C41.3961 35.2066 41.5179 35.0103 41.5179 34.7896V32.4592C41.5179 32.2629 41.4204 32.0667 41.2255 31.9441L39.2516 30.7911Z" fill="#8247E5"/>
</g>
</g>
<defs>
<filter id="filter0_d_10661_62752" x="20.8516" y="18.3978" width="32" height="32" filterUnits="userSpaceOnUse" color-interpolation-filters="sRGB">
<feFlood flood-opacity="0" result="BackgroundImageFix"/>
<feColorMatrix in="SourceAlpha" type="matrix" values="0 0 0 0 0 0 0 0 0 0 0 0 0 0 0 0 0 0 127 0" result="hardAlpha"/>
<feOffset dy="2"/>
<feGaussianBlur stdDeviation="4"/>
<feComposite in2="hardAlpha" operator="out"/>
<feColorMatrix type="matrix" values="0 0 0 0 0.109804 0 0 0 0 0.176471 0 0 0 0 0.368627 0 0 0 0.05 0"/>
<feBlend mode="normal" in2="BackgroundImageFix" result="effect1_dropShadow_10661_62752"/>
<feBlend mode="normal" in="SourceGraphic" in2="effect1_dropShadow_10661_62752" result="shape"/>
</filter>
<filter id="filter1_d_10661_62752" x="20.8516" y="18.3978" width="32" height="32" filterUnits="userSpaceOnUse" color-interpolation-filters="sRGB">
<feFlood flood-opacity="0" result="BackgroundImageFix"/>
<feColorMatrix in="SourceAlpha" type="matrix" values="0 0 0 0 0 0 0 0 0 0 0 0 0 0 0 0 0 0 127 0" result="hardAlpha"/>
<feOffset dy="2"/>
<feGaussianBlur stdDeviation="4"/>
<feComposite in2="hardAlpha" operator="out"/>
<feColorMatrix type="matrix" values="0 0 0 0 0.109804 0 0 0 0 0.176471 0 0 0 0 0.368627 0 0 0 0.1 0"/>
<feBlend mode="normal" in2="BackgroundImageFix" result="effect1_dropShadow_10661_62752"/>
<feBlend mode="normal" in="SourceGraphic" in2="effect1_dropShadow_10661_62752" result="shape"/>
</filter>
<clipPath id="clip0_10661_62752">
<rect width="44" height="40" fill="white" transform="translate(0.851562 0.397827)"/>
</clipPath>
<clipPath id="clip1_10661_62752">
<rect width="40" height="40" fill="white" transform="translate(0.851562 0.397827)"/>
</clipPath>
</defs>
</svg>
