<svg width="45" height="41" viewBox="0 0 45 41" fill="none" xmlns="http://www.w3.org/2000/svg">
<g clip-path="url(#clip0_10661_62740)">
<circle cx="20.6133" cy="20.1686" r="20" fill="#EDF0F4"/>
<path d="M29.8758 17.8499L26.1533 19.5095L16.2782 24.536L26.1533 29.2839V21.436L29.8758 19.7585V31.3526L26.1533 33.0123L11.6133 26.0535V22.3547L21.6781 17.4171L11.6133 12.5803V8.82827L15.395 7.16858L29.8758 14.1393V17.8499Z" fill="#49C1BF"/>
<path d="M11.6133 8.82827L26.1533 15.799L29.8758 14.1393L15.395 7.16858L11.6133 8.82827Z" fill="#077A8F"/>
<path d="M26.1533 15.7832L29.8758 14.1235V17.8341L26.1533 19.4938V15.7832V15.7832Z" fill="#298E97"/>
<path d="M11.6133 8.83154V12.5836L21.6781 17.4204L11.6133 22.358V26.0567L26.1533 33.0156V29.2931L16.2782 24.5393L26.1533 19.5128V15.8022L11.6133 8.83154Z" fill="#49C1BF"/>
<path d="M26.1533 32.9879L29.8758 31.3282V19.7341L26.1533 21.4116V32.9879Z" fill="#298E97"/>
<g clip-path="url(#clip1_10661_62740)" filter="url(#filter0_d_10661_62740)">
<g clip-path="url(#clip2_10661_62740)">
<circle cx="36.4473" cy="32.1686" r="8" fill="#EDF0F4"/>
</g>
<path d="M36.5429 25.7686L36.457 26.0603V34.5246L36.5429 34.6103L40.4719 32.2878L36.5429 25.7686Z" fill="#343434"/>
<path d="M36.5424 25.7686L32.6133 32.2878L36.5424 34.6103V30.5019V25.7686Z" fill="#8C8C8C"/>
<path d="M36.5425 35.3531L36.4941 35.4121V38.4273L36.5425 38.5686L40.4739 33.0319L36.5425 35.3531Z" fill="#3C3C3B"/>
<path d="M36.5424 38.5686V35.3531L32.6133 33.0319L36.5424 38.5686Z" fill="#8C8C8C"/>
<path d="M36.542 34.6117L40.471 32.2892L36.542 30.5033V34.6117Z" fill="#141414"/>
<path d="M32.6133 32.2892L36.5424 34.6117V30.5033L32.6133 32.2892Z" fill="#393939"/>
</g>
</g>
<defs>
<filter id="filter0_d_10661_62740" x="20.6133" y="18.1686" width="32" height="32" filterUnits="userSpaceOnUse" color-interpolation-filters="sRGB">
<feFlood flood-opacity="0" result="BackgroundImageFix"/>
<feColorMatrix in="SourceAlpha" type="matrix" values="0 0 0 0 0 0 0 0 0 0 0 0 0 0 0 0 0 0 127 0" result="hardAlpha"/>
<feOffset dy="2"/>
<feGaussianBlur stdDeviation="4"/>
<feComposite in2="hardAlpha" operator="out"/>
<feColorMatrix type="matrix" values="0 0 0 0 0.109804 0 0 0 0 0.176471 0 0 0 0 0.368627 0 0 0 0.05 0"/>
<feBlend mode="normal" in2="BackgroundImageFix" result="effect1_dropShadow_10661_62740"/>
<feBlend mode="normal" in="SourceGraphic" in2="effect1_dropShadow_10661_62740" result="shape"/>
</filter>
<clipPath id="clip0_10661_62740">
<rect width="44" height="40" fill="white" transform="translate(0.613281 0.168579)"/>
</clipPath>
<clipPath id="clip1_10661_62740">
<rect width="16" height="16" fill="white" transform="translate(28.6133 24.1686)"/>
</clipPath>
<clipPath id="clip2_10661_62740">
<rect width="16" height="16" fill="white" transform="translate(28.6133 24.1686)"/>
</clipPath>
</defs>
</svg>
