<svg xmlns="http://www.w3.org/2000/svg" width="90.201" height="90.631" viewBox="0 0 90.201 90.631"><defs><style>.a{fill:#313131;}</style></defs><path class="a" d="M133.247,267.94c-18.283,0-34.556-15.044-33.962-32.982-.4-17.627,15.053-33.792,33.962-33.792a3.8,3.8,0,0,1,0,7.6c-14.716,0-27.437,11.976-27.775,26.689-.364,15.869,12.521,27.984,27.775,28.5,16,.976,29.865-13.433,29.429-28.142-.621-20.961-18.236-28.982-18.236-28.982s19.348,7.543,20.384,27.72C165.887,255.248,148.886,268.157,133.247,267.94Z" transform="translate(276.754 182.41) rotate(150)"/></svg>