<svg width="155" height="152" viewBox="0 0 155 152" fill="none" xmlns="http://www.w3.org/2000/svg">
<path d="M114.262 50.87L102.137 5.81252C101.901 4.93396 101.494 4.11049 100.94 3.38916C100.385 2.66782 99.6945 2.06277 98.9064 1.60855C98.1182 1.15434 97.2483 0.859882 96.3463 0.74199C95.4443 0.624099 94.5279 0.685091 93.6495 0.921481L5.88899 24.467C4.11384 24.9458 2.60145 26.1098 1.68429 27.7033C0.767129 29.2968 0.520257 31.1893 0.997942 32.9648L13.1132 78.0222C13.5898 79.797 14.7513 81.31 16.3425 82.2291C17.9338 83.1481 19.8248 83.3981 21.6002 82.924L33.983 79.5955L51.0321 89.4097L47.4039 75.9888L109.371 59.3357C111.139 58.8566 112.646 57.6974 113.562 56.1113C114.479 54.5252 114.73 52.641 114.262 50.87Z" fill="#FF5C8A"/>
<path opacity="0.3" d="M114.262 50.87L102.137 5.81252C101.901 4.93396 101.494 4.11049 100.94 3.38916C100.385 2.66782 99.6945 2.06277 98.9064 1.60855C98.1182 1.15434 97.2483 0.859882 96.3463 0.74199C95.4443 0.624099 94.5279 0.685091 93.6495 0.921481L5.88899 24.467C4.11384 24.9458 2.60145 26.1098 1.68429 27.7033C0.767129 29.2968 0.520257 31.1893 0.997942 32.9648L13.1132 78.0222C13.5898 79.797 14.7513 81.31 16.3425 82.2291C17.9338 83.1481 19.8248 83.3981 21.6002 82.924L33.983 79.5955L51.0321 89.4097L47.4039 75.9888L109.371 59.3357C111.139 58.8566 112.646 57.6974 113.562 56.1113C114.479 54.5252 114.73 52.641 114.262 50.87Z" fill="#1C2D5E"/>
<path d="M150.019 145.212L154.706 114.71C154.891 113.51 154.591 112.285 153.872 111.305C153.154 110.326 152.076 109.672 150.875 109.488L91.4333 100.348C90.8386 100.255 90.2315 100.28 89.6467 100.423C89.062 100.566 88.5111 100.822 88.0258 101.178C87.5405 101.534 87.1303 101.983 86.8188 102.498C86.5073 103.013 86.3005 103.584 86.2105 104.179L81.5121 134.681C81.3277 135.882 81.6277 137.107 82.3463 138.086C83.0648 139.065 84.1429 139.719 85.3436 139.904L93.7236 141.199L101.419 151.687L102.821 142.59L144.753 149.012C145.349 149.11 145.957 149.089 146.545 148.95C147.132 148.812 147.686 148.559 148.175 148.206C148.665 147.853 149.079 147.407 149.396 146.893C149.712 146.379 149.924 145.808 150.019 145.212Z" fill="#FF5C8A"/>
<path opacity="0.3" d="M150.019 145.212L154.706 114.71C154.891 113.51 154.591 112.285 153.872 111.305C153.154 110.326 152.076 109.672 150.875 109.488L91.4333 100.348C90.8386 100.255 90.2315 100.28 89.6467 100.423C89.062 100.566 88.5111 100.822 88.0258 101.178C87.5405 101.534 87.1303 101.983 86.8188 102.498C86.5073 103.013 86.3005 103.584 86.2105 104.179L81.5121 134.681C81.3277 135.882 81.6277 137.107 82.3463 138.086C83.0648 139.065 84.1429 139.719 85.3436 139.904L93.7236 141.199L101.419 151.687L102.821 142.59L144.753 149.012C145.349 149.11 145.957 149.089 146.545 148.95C147.132 148.812 147.686 148.559 148.175 148.206C148.665 147.853 149.079 147.407 149.396 146.893C149.712 146.379 149.924 145.808 150.019 145.212Z" fill="white"/>
<path d="M147.911 95.7673L140.269 41.1846C139.967 39.0316 138.822 37.087 137.086 35.7784C135.349 34.4698 133.165 33.9044 131.012 34.2065L24.6182 49.083C22.4653 49.3855 20.5207 50.5307 19.2121 52.2668C17.9035 54.0029 17.338 56.1877 17.6401 58.3407L25.2817 112.923C25.4289 113.99 25.785 115.016 26.3298 115.944C26.8746 116.873 27.5972 117.684 28.4563 118.332C29.3154 118.981 30.294 119.453 31.3361 119.722C32.3781 119.992 33.463 120.052 34.5287 119.901L49.5122 117.761L68.081 131.77L65.8014 115.481L140.901 104.982C143.05 104.684 144.994 103.548 146.307 101.821C147.621 100.094 148.197 97.9179 147.911 95.7673Z" fill="#FF5C8A"/>
<path d="M35.1709 73.057L41.1964 72.2115L50.6681 82.6572L49.052 71.1092L55.131 70.2637L58.0528 91.1335L51.9738 91.9897L42.5556 81.619L44.161 93.0814L38.0927 93.9269L35.1709 73.057Z" fill="white"/>
<path d="M59.4014 69.6629L76.6966 67.2441L77.3173 71.7071L66.4971 73.2161L66.9573 76.5339L76.9963 75.1319L77.5956 79.4129L67.5567 80.8149L68.1239 84.9247L79.2652 83.3728L79.9287 88.0926L62.3231 90.5542L59.4014 69.6629Z" fill="white"/>
<path d="M78.334 67.02L84.4558 66.1638L88.298 77.5405L89.8927 65.4039L95.9931 64.5477L100.863 75.7639L101.441 63.7878L107.53 62.9316L105.85 84.4544L99.5249 85.332L94.0238 72.703L92.2151 86.3594L85.8899 87.237L78.334 67.02Z" fill="white"/>
<path d="M110.464 76.7594L116.553 75.5179C116.72 76.3117 117.089 77.049 117.624 77.6584C118.025 78.031 118.508 78.3038 119.034 78.4544C119.561 78.6051 120.115 78.6293 120.652 78.5253C121.424 78.4687 122.148 78.1296 122.686 77.5728C122.891 77.3627 123.046 77.1096 123.141 76.8318C123.235 76.5541 123.266 76.2587 123.232 75.9674C123.185 75.6894 123.079 75.4249 122.92 75.192C122.761 74.9592 122.553 74.7637 122.311 74.6189C121.223 74.1217 120.04 73.8661 118.844 73.8697C116.6 73.8202 114.399 73.2408 112.422 72.1787C111.768 71.7693 111.214 71.2183 110.801 70.5663C110.388 69.9143 110.126 69.1779 110.036 68.4114C109.881 67.3139 110.06 66.1951 110.549 65.2007C111.099 64.0946 111.963 63.1751 113.032 62.5572C114.587 61.7177 116.293 61.1974 118.052 61.0267C120.172 60.594 122.374 60.8142 124.366 61.6582C125.177 62.1195 125.879 62.7503 126.424 63.5076C126.969 64.2648 127.344 65.1307 127.523 66.0462L121.498 67.2556C121.306 66.4811 120.843 65.8013 120.192 65.3398C119.508 64.9722 118.718 64.8513 117.955 64.9973C117.346 65.0369 116.769 65.2909 116.329 65.7144C116.171 65.8768 116.052 66.073 115.982 66.2881C115.911 66.5033 115.891 66.7317 115.922 66.9559C115.952 67.1313 116.022 67.2976 116.126 67.4421C116.23 67.5867 116.365 67.7059 116.521 67.7907C117.236 68.1062 118.01 68.2632 118.79 68.2509C120.927 68.336 123.046 68.6701 125.105 69.2462C126.262 69.6044 127.297 70.2791 128.091 71.1941C128.78 72.0495 129.217 73.0797 129.354 74.1694C129.546 75.4836 129.341 76.8255 128.765 78.0223C128.167 79.2725 127.214 80.3186 126.025 81.0297C124.513 81.8862 122.841 82.4218 121.113 82.6029C117.545 83.1024 114.991 82.7456 113.45 81.5327C111.924 80.3421 110.867 78.6521 110.464 76.7594Z" fill="white"/>
</svg>
