<svg width="328" height="328" viewBox="0 0 328 328" fill="none" xmlns="http://www.w3.org/2000/svg">
<g clip-path="url(#clip0_11226_109484)">
<path d="M164.5 298.989C241.813 298.989 304.489 295.329 304.489 290.816C304.489 286.302 241.813 282.643 164.5 282.643C87.1864 282.643 24.5114 286.302 24.5114 290.816C24.5114 295.329 87.1864 298.989 164.5 298.989Z" fill="#F5F5F5"/>
<path d="M117.274 290.815H94.5238C93.6659 290.815 92.8432 290.475 92.2366 289.868C91.63 289.261 91.2892 288.439 91.2892 287.581V247.936H120.509V287.588C120.507 288.445 120.165 289.266 119.559 289.871C118.952 290.476 118.131 290.815 117.274 290.815Z" fill="#FF5C8A"/>
<path opacity="0.2" d="M120.509 247.936H91.2964V265.141L120.509 258.809V247.936Z" fill="black"/>
<path d="M133.078 195.923C133.078 185.008 137.414 174.54 145.132 166.822C152.85 159.104 163.318 154.769 174.232 154.769C185.147 154.769 195.615 159.104 203.333 166.822C211.051 174.54 215.386 185.008 215.386 195.923V247.907H133.078V195.923Z" fill="#FF5C8A"/>
<path opacity="0.3" d="M133.078 195.923C133.078 185.008 137.414 174.54 145.132 166.822C152.85 159.104 163.318 154.769 174.232 154.769C185.147 154.769 195.615 159.104 203.333 166.822C211.051 174.54 215.386 185.008 215.386 195.923V247.907H133.078V195.923Z" fill="black"/>
<path d="M36.1934 195.916V242.81C36.1934 243.483 36.3262 244.151 36.5843 244.773C36.8423 245.395 37.2206 245.961 37.6973 246.437C38.1741 246.913 38.7401 247.29 39.3629 247.548C39.9856 247.805 40.653 247.937 41.3268 247.936H133.079V195.916C133.079 185.001 137.414 174.533 145.132 166.815C152.85 159.098 163.318 154.762 174.233 154.762H77.3474C66.4326 154.762 55.965 159.098 48.2471 166.815C40.5292 174.533 36.1934 185.001 36.1934 195.916Z" fill="#FF5C8A"/>
<path opacity="0.2" d="M36.2006 232.586H133.086V218.146H36.2006V232.586Z" fill="black"/>
<path opacity="0.2" d="M36.2006 213.663H133.086V199.223H36.2006V213.663Z" fill="black"/>
<path d="M83.5782 209.446V150.964C83.5783 150.731 83.5275 150.5 83.4294 150.289C83.3313 150.077 83.1883 149.89 83.0102 149.739C82.8322 149.589 82.6235 149.479 82.3986 149.417C82.1737 149.356 81.9381 149.344 81.7082 149.383L61.2972 152.74V161.209H76.8997V209.316C75.3241 210.04 74.0406 211.277 73.2592 212.824C72.4777 214.372 72.2444 216.139 72.5974 217.837C72.9504 219.534 73.8689 221.062 75.2026 222.17C76.5364 223.278 78.2065 223.9 79.94 223.936C81.6735 223.971 83.3678 223.418 84.7459 222.366C86.1241 221.314 87.1045 219.825 87.5269 218.143C87.9494 216.462 87.7888 214.687 87.0715 213.108C86.3543 211.53 85.1227 210.241 83.5782 209.453V209.446Z" fill="#1C2D5E"/>
<path d="M138.934 253.82H244.519C245.29 253.822 246.03 253.52 246.579 252.979C247.128 252.438 247.441 251.703 247.451 250.932C247.451 250.155 247.142 249.409 246.592 248.86C246.042 248.31 245.297 248.001 244.519 248.001H133.078C133.088 249.548 133.709 251.028 134.806 252.118C135.903 253.208 137.387 253.82 138.934 253.82Z" fill="#FF5C8A"/>
<path opacity="0.2" d="M138.934 253.82H182.081C182.851 253.822 183.591 253.52 184.14 252.979C184.689 252.438 185.002 251.703 185.012 250.932C185.012 250.155 184.703 249.409 184.153 248.86C183.604 248.31 182.858 248.001 182.081 248.001H133.078C133.088 249.548 133.709 251.028 134.806 252.118C135.903 253.208 137.387 253.82 138.934 253.82Z" fill="black"/>
<path d="M239.935 284.418L233.826 284.469L232.159 270.325L238.274 270.274L239.935 284.418Z" fill="#FF8B7B"/>
<path opacity="0.2" d="M232.159 270.332L233.018 277.624L239.133 277.566L238.274 270.281L232.159 270.332Z" fill="black"/>
<path d="M289.579 269.423L284.323 272.542L275.767 261.156L281.024 258.037L289.579 269.423Z" fill="#FF8B7B"/>
<path opacity="0.2" d="M275.775 261.156L280.179 267.026L285.442 263.906L281.031 258.037L275.775 261.156Z" fill="black"/>
<path d="M233.812 283.761L240.49 283.703C240.614 283.704 240.734 283.745 240.832 283.819C240.931 283.893 241.004 283.996 241.039 284.115L242.656 289.537C242.698 289.663 242.709 289.797 242.688 289.927C242.667 290.058 242.615 290.182 242.537 290.289C242.458 290.395 242.356 290.482 242.237 290.541C242.118 290.6 241.987 290.629 241.855 290.627C239.444 290.627 235.956 290.497 232.924 290.526C229.386 290.526 227.812 290.779 223.661 290.815C221.148 290.815 220.267 288.302 221.3 288.064C226 286.981 228.433 286.837 232.375 284.252C232.797 283.953 233.296 283.783 233.812 283.761Z" fill="#1C2D5E"/>
<path d="M231.292 284.866C231.951 284.853 232.606 284.773 233.249 284.627C233.278 284.623 233.305 284.608 233.325 284.585C233.344 284.563 233.356 284.534 233.357 284.505C233.36 284.475 233.354 284.446 233.34 284.42C233.326 284.394 233.304 284.373 233.278 284.36C232.989 284.216 230.39 282.989 229.718 283.422C229.653 283.463 229.6 283.521 229.565 283.59C229.53 283.658 229.513 283.735 229.516 283.812C229.508 283.949 229.534 284.087 229.59 284.212C229.647 284.338 229.733 284.448 229.841 284.534C230.276 284.798 230.785 284.915 231.292 284.866ZM232.736 284.433C231.415 284.664 230.411 284.613 230.007 284.288C229.936 284.231 229.88 284.158 229.842 284.075C229.805 283.993 229.787 283.902 229.79 283.812C229.788 283.784 229.792 283.756 229.804 283.731C229.815 283.705 229.833 283.683 229.855 283.667C230.252 283.422 231.704 283.942 232.751 284.418L232.736 284.433Z" fill="#FF5C8A"/>
<path d="M233.22 284.62C233.248 284.626 233.278 284.626 233.307 284.62C233.328 284.605 233.344 284.584 233.353 284.559C233.362 284.535 233.363 284.508 233.357 284.483C233.357 284.368 232.881 281.739 231.422 281.905C231.039 281.949 230.931 282.137 230.91 282.295C230.808 283.017 232.354 284.303 233.162 284.635L233.22 284.62ZM231.545 282.158C232.418 282.158 232.859 283.602 232.989 284.209C232.187 283.754 231.112 282.714 231.169 282.31C231.169 282.31 231.169 282.187 231.429 282.158H231.545Z" fill="#FF5C8A"/>
<path d="M242.678 115.651C241.877 120.293 240.859 124.748 239.624 129.246C239.008 131.489 238.327 133.725 237.581 135.954C237.191 137.073 236.823 138.184 236.382 139.296C236.173 139.852 235.963 140.408 235.725 140.964L235.386 141.802L235.213 142.213L235.119 142.437L234.989 142.719C234.396 143.995 233.67 145.205 232.823 146.329C232.101 147.347 231.314 148.285 230.541 149.217C228.996 151.036 227.386 152.726 225.754 154.386C222.496 157.66 219.069 160.761 215.488 163.678L212.231 160.437C215.011 156.906 217.812 153.339 220.52 149.809C221.87 148.047 223.184 146.256 224.411 144.488C225.025 143.607 225.61 142.719 226.123 141.852C226.587 141.115 226.983 140.336 227.307 139.527C227.35 139.441 227.451 139.094 227.531 138.863L227.776 138.098C227.949 137.6 228.101 137.08 228.253 136.56C228.563 135.528 228.852 134.473 229.148 133.427C229.711 131.311 230.238 129.174 230.751 127.022C231.747 122.69 232.707 118.315 233.574 114.026L242.678 115.651Z" fill="#FF8B7B"/>
<path d="M244.837 116.495C244.469 123.47 241.09 133.26 241.09 133.26L231.603 129.65L227.697 128.206C228.211 123.589 229.308 119.055 230.96 114.712C233.848 107.275 240.541 105.463 243.956 110.936C244.75 112.171 244.96 114.178 244.837 116.495Z" fill="#FF5C8A"/>
<path opacity="0.2" d="M244.837 116.496C244.469 123.47 241.09 133.26 241.09 133.26L231.603 129.65C232.167 127.19 232.905 124.772 233.812 122.416C236.18 116.221 241.234 113.932 244.837 116.496Z" fill="black"/>
<path d="M213.769 159.75L207.329 160.805L207.278 167.122C207.278 167.122 213.459 166.256 215.877 163.295L213.769 159.75Z" fill="#FF8B7B"/>
<path d="M201.365 164.465L201.502 168.617L207.278 167.122L207.322 160.805L201.365 164.465Z" fill="#FF8B7B"/>
<path d="M238.057 160.805C238.057 160.805 228.881 194.212 226.447 212.911C223.92 232.362 229.884 274.072 229.884 274.072L240.924 273.834C240.924 273.834 241.754 231.315 245.364 212.189C249.32 191.345 256.858 160.4 256.858 160.4L238.057 160.805Z" fill="#1C2D5E"/>
<path d="M242.281 274.332L229.299 274.592L228.346 270.281L242.115 270.245L242.281 274.332Z" fill="#FF5C8A"/>
<path opacity="0.4" d="M242.281 274.332L229.299 274.592L228.346 270.281L242.115 270.245L242.281 274.332Z" fill="white"/>
<path d="M283.955 271.935L289.695 268.527C289.806 268.456 289.938 268.425 290.07 268.439C290.201 268.453 290.324 268.513 290.417 268.606L294.539 272.476C294.639 272.564 294.717 272.675 294.765 272.799C294.814 272.923 294.832 273.057 294.817 273.189C294.803 273.321 294.758 273.448 294.684 273.559C294.611 273.67 294.511 273.762 294.395 273.826C292.301 275.025 289.233 276.714 286.626 278.223C283.587 280.036 282.294 281.018 278.764 283.133C276.598 284.418 274.569 282.678 275.341 281.949C278.858 278.642 280.886 277.292 282.995 273.083C283.198 272.616 283.531 272.217 283.955 271.935Z" fill="#1C2D5E"/>
<path d="M282.323 274.144C282.884 273.799 283.411 273.403 283.897 272.96C283.918 272.938 283.933 272.911 283.939 272.882C283.946 272.853 283.943 272.822 283.933 272.794C283.922 272.765 283.902 272.741 283.876 272.726C283.85 272.71 283.819 272.703 283.789 272.707C283.464 272.707 280.626 272.953 280.244 273.689C280.203 273.755 280.181 273.831 280.181 273.909C280.181 273.987 280.203 274.063 280.244 274.129C280.307 274.246 280.397 274.347 280.506 274.424C280.615 274.5 280.74 274.55 280.872 274.57C281.389 274.59 281.899 274.441 282.323 274.144ZM283.37 273.032C282.345 273.898 281.449 274.36 280.937 274.281C280.848 274.268 280.763 274.234 280.689 274.183C280.615 274.131 280.554 274.064 280.511 273.985C280.496 273.96 280.487 273.931 280.487 273.902C280.487 273.873 280.496 273.844 280.511 273.819C280.742 273.429 282.222 273.147 283.37 273.032Z" fill="#FF5C8A"/>
<path d="M283.875 272.974C283.9 272.955 283.92 272.93 283.933 272.902C283.947 272.881 283.955 272.855 283.955 272.83C283.955 272.804 283.947 272.779 283.933 272.758C283.861 272.671 282.135 270.592 280.966 271.501C280.655 271.732 280.655 271.956 280.713 272.101C280.973 272.743 282.995 273.097 283.839 272.996L283.875 272.974ZM281.19 271.689C281.948 271.249 283.045 272.259 283.493 272.721C282.561 272.721 281.117 272.375 280.959 271.999C280.959 271.999 280.915 271.891 281.11 271.747L281.19 271.689Z" fill="#FF5C8A"/>
<path d="M249.472 160.559C249.472 160.559 249.472 193.381 250.331 212.218C251.212 231.813 275.688 265.531 275.688 265.531L285.11 259.755C285.11 259.755 268.576 227.669 268.829 208.211C269.103 186.991 270.749 160.083 270.749 160.083L249.472 160.559Z" fill="#1C2D5E"/>
<path d="M286.323 259.747L275.89 266.115L273.284 263.523L284.763 255.87L286.323 259.747Z" fill="#FF5C8A"/>
<path opacity="0.4" d="M286.323 259.747L275.89 266.115L273.284 263.523L284.763 255.87L286.323 259.747Z" fill="white"/>
<path d="M237.299 107.976C237.299 107.976 230.476 126.589 238.057 160.812L270.749 160.09C270.865 155.072 267.19 130.661 271.529 106.915C267.89 106.306 264.214 105.937 260.526 105.81C255.894 105.636 251.255 105.735 246.635 106.106C243.479 106.485 240.358 107.11 237.299 107.976Z" fill="#FF5C8A"/>
<path d="M258.844 90.1641C258.064 94.6477 257.363 102.864 260.555 105.781C260.555 105.781 259.428 110.366 251.125 110.517C244.49 110.64 246.663 106.077 246.663 106.077C251.624 104.777 251.414 101.081 250.468 97.6295L258.844 90.1641Z" fill="#FF8B7B"/>
<path opacity="0.2" d="M255.429 93.2036L250.476 97.6223C250.707 98.4249 250.866 99.2463 250.952 100.077C252.851 99.7666 255.429 97.615 255.587 95.6151C255.682 94.8083 255.628 93.991 255.429 93.2036Z" fill="black"/>
<path opacity="0.2" d="M264.237 118.755L269.688 122.683C269.45 126.863 269.378 130.928 269.414 134.74C266.071 131.376 264.201 125.188 264.237 118.755Z" fill="black"/>
<path d="M259.364 103.55C259.364 103.55 257.797 107.319 250.483 110.525C251.659 110.997 252.724 111.71 253.609 112.618C254.494 113.525 255.18 114.608 255.624 115.795C255.624 115.795 260.945 110.741 262.367 105.687L259.364 103.55Z" fill="white"/>
<path d="M245.017 114.431C245.017 114.431 247.255 111.182 250.483 110.525C249.349 109.139 248.18 106.063 249.263 104.604C248.311 104.855 247.389 105.206 246.512 105.651C246.512 105.651 242.122 108.287 245.017 114.431Z" fill="white"/>
<path d="M244.375 77.3267C241.393 78.6047 239.913 86.6333 243.797 88.3805C247.682 90.1278 250.021 74.9153 244.375 77.3267Z" fill="#1C2D5E"/>
<path d="M259.234 83.4279C258.988 89.4927 259.154 93.0521 256.165 96.2217C251.667 100.994 244.137 98.3877 242.563 92.3735C241.119 86.9585 241.783 77.9335 247.653 75.4209C248.945 74.8552 250.361 74.6293 251.765 74.7648C253.169 74.9003 254.516 75.3925 255.676 76.1949C256.836 76.9972 257.772 78.0829 258.395 79.3489C259.018 80.6148 259.306 82.019 259.234 83.4279Z" fill="#FF8B7B"/>
<path d="M250.086 85.3121C250.086 85.8031 249.848 86.2074 249.523 86.2146C249.198 86.2218 248.931 85.8247 248.923 85.3338C248.916 84.8428 249.162 84.4385 249.487 84.4313C249.811 84.424 250.079 84.8139 250.086 85.3121Z" fill="#1C2D5E"/>
<path d="M244.512 85.4278C244.512 85.9188 244.274 86.3231 243.949 86.3303C243.624 86.3375 243.357 85.9477 243.35 85.4495C243.342 84.9513 243.588 84.5542 243.913 84.547C244.238 84.5398 244.505 84.9369 244.512 85.4278Z" fill="#1C2D5E"/>
<path d="M246.295 85.6372C245.738 87.1565 244.976 88.5923 244.028 89.9042C244.37 90.1373 244.758 90.2929 245.166 90.3602C245.573 90.4276 245.991 90.405 246.389 90.2941L246.295 85.6372Z" fill="#FF5652"/>
<path d="M247.855 91.6225C248.518 91.628 249.173 91.4733 249.764 91.1716C250.354 90.87 250.864 90.4302 251.248 89.8897C251.258 89.8738 251.265 89.8559 251.268 89.8372C251.271 89.8186 251.27 89.7995 251.266 89.7812C251.261 89.7629 251.252 89.7457 251.241 89.7309C251.229 89.716 251.214 89.7037 251.198 89.6947C251.166 89.6754 251.128 89.6692 251.091 89.6773C251.055 89.6853 251.023 89.7071 251.003 89.7381C250.639 90.233 250.164 90.6353 249.616 90.9125C249.067 91.1897 248.462 91.334 247.848 91.3337C247.829 91.3346 247.81 91.3393 247.793 91.3474C247.776 91.3555 247.76 91.3669 247.748 91.381C247.735 91.3951 247.725 91.4116 247.719 91.4295C247.712 91.4474 247.709 91.4663 247.71 91.4853C247.712 91.5223 247.728 91.5572 247.755 91.5828C247.782 91.6083 247.818 91.6225 247.855 91.6225Z" fill="#1C2D5E"/>
<path d="M251.725 83.4782C251.79 83.4761 251.853 83.4534 251.905 83.4132C251.964 83.3651 252.002 83.2957 252.01 83.2199C252.018 83.1442 251.996 83.0684 251.949 83.0089C251.672 82.6416 251.311 82.3458 250.896 82.1461C250.482 81.9464 250.026 81.8486 249.566 81.8609C249.489 81.8676 249.419 81.9044 249.369 81.9633C249.32 82.0222 249.296 82.0984 249.302 82.175C249.309 82.2515 249.346 82.3223 249.405 82.3718C249.464 82.4212 249.54 82.4452 249.616 82.4385C249.98 82.4351 250.339 82.5169 250.665 82.6774C250.991 82.8379 251.275 83.0726 251.494 83.3626C251.52 83.3989 251.555 83.4284 251.595 83.4485C251.635 83.4686 251.68 83.4787 251.725 83.4782Z" fill="#1C2D5E"/>
<path d="M242.028 83.5651C242.084 83.5645 242.138 83.5487 242.185 83.5194C242.232 83.4901 242.27 83.4485 242.295 83.399C242.438 83.0607 242.66 82.7618 242.943 82.528C243.226 82.2941 243.561 82.1322 243.92 82.0561C243.996 82.0436 244.064 82.0019 244.11 81.9399C244.156 81.8779 244.176 81.8004 244.165 81.724C244.151 81.6487 244.109 81.5815 244.048 81.5359C243.986 81.4904 243.909 81.4699 243.833 81.4785C243.384 81.575 242.964 81.7773 242.609 82.0686C242.254 82.36 241.973 82.7319 241.79 83.1535C241.773 83.1875 241.763 83.2246 241.761 83.2625C241.759 83.3004 241.764 83.3384 241.777 83.3741C241.79 83.4099 241.81 83.4426 241.836 83.4705C241.861 83.4983 241.893 83.5207 241.927 83.5362C241.959 83.5522 241.993 83.562 242.028 83.5651Z" fill="#1C2D5E"/>
<path d="M272.576 111.225C273.941 113.189 275.139 115.109 276.374 117.088C277.608 119.066 278.749 121.059 279.883 123.08C282.181 127.175 284.226 131.406 286.005 135.751C286.236 136.293 286.439 136.871 286.648 137.434L286.966 138.286L287.124 138.719L287.312 139.311C287.772 140.867 287.939 142.495 287.803 144.112C287.518 146.938 286.576 149.657 285.052 152.054C283.726 154.194 282.148 156.167 280.352 157.931C279.493 158.798 278.583 159.599 277.659 160.372C276.723 161.144 275.747 161.867 274.735 162.538L271.796 159.014C272.439 158.292 273.168 157.397 273.818 156.567C274.468 155.736 275.103 154.848 275.702 153.982C276.871 152.317 277.874 150.542 278.699 148.682C279.417 147.135 279.794 145.45 279.803 143.744C279.778 143.093 279.641 142.45 279.399 141.845L278.821 140.56C278.598 140.083 278.395 139.6 278.15 139.116C276.287 135.253 274.136 131.412 271.876 127.614C269.616 123.817 267.248 120.005 264.901 116.359L272.576 111.225Z" fill="#FF8B7B"/>
<path d="M271.529 106.929C277.24 108.164 285.457 125.78 285.457 125.78L270.157 133.246C267.436 129.084 265.175 124.64 263.414 119.99C260.75 112.546 265.414 105.6 271.529 106.929Z" fill="#FF5C8A"/>
<path d="M266.093 152.234L281.464 197.641C282.061 199.423 281.929 201.369 281.098 203.054C280.266 204.739 278.801 206.027 277.024 206.637L173.698 241.668C171.914 242.267 169.966 242.134 168.28 241.299C166.594 240.464 165.307 238.995 164.702 237.214L149.338 191.821C149.042 190.961 148.919 190.051 148.977 189.143C149.06 187.732 149.561 186.378 150.416 185.253C151.271 184.128 152.441 183.283 153.778 182.825L257.125 147.794C258.464 147.344 259.906 147.302 261.267 147.675C262.629 148.048 263.849 148.818 264.771 149.888C265.362 150.575 265.811 151.372 266.093 152.234Z" fill="#FF5C8A"/>
<path opacity="0.8" d="M266.093 152.234L281.464 197.641C282.061 199.423 281.929 201.369 281.098 203.054C280.266 204.739 278.801 206.027 277.024 206.637L173.698 241.668C171.914 242.267 169.966 242.134 168.28 241.299C166.594 240.464 165.307 238.995 164.702 237.214L149.338 191.821C149.042 190.961 148.919 190.051 148.977 189.143C149.06 187.732 149.561 186.378 150.416 185.253C151.271 184.128 152.441 183.283 153.778 182.825L257.125 147.794C258.464 147.344 259.906 147.302 261.267 147.675C262.629 148.048 263.849 148.818 264.771 149.888C265.362 150.575 265.811 151.372 266.093 152.234Z" fill="white"/>
<path opacity="0.6" d="M264.742 149.888L221.993 188.118C219.844 190.038 217.329 191.504 214.6 192.428C211.87 193.353 208.982 193.716 206.109 193.497L148.941 189.165C149.024 187.755 149.525 186.401 150.38 185.275C151.235 184.15 152.405 183.305 153.742 182.848L257.089 147.816C258.426 147.362 259.869 147.316 261.232 147.685C262.595 148.054 263.817 148.821 264.742 149.888Z" fill="#FF5C8A"/>
<path d="M273.341 158.169L266.771 158.213L270.822 164.848C270.822 164.848 275.5 163.714 275.933 161.361L273.341 158.169Z" fill="#FF8B7B"/>
<path d="M262.663 162.104L266.266 167.44L270.822 164.848L266.771 158.212L262.663 162.104Z" fill="#FF8B7B"/>
<path d="M263.371 78.5689C264.815 82.5254 260.447 91.6876 257.905 91.5143C255.364 91.341 254.671 81.8179 256.115 79.4497C254.743 80.0851 241.675 80.1067 241.739 78.7277C242.072 73.717 250.959 71.8976 260.706 74.3957C263.241 74.273 264.186 74.9661 263.371 78.5689Z" fill="#1C2D5E"/>
<path d="M262.107 90.034C261.72 90.6835 261.209 91.2496 260.601 91.6996C259.994 92.1495 259.303 92.4742 258.569 92.6549C256.605 93.1314 255.681 91.3625 256.302 89.5431C256.844 87.9041 258.519 85.6876 260.468 86.0197C262.418 86.3518 263.06 88.424 262.107 90.034Z" fill="#FF8B7B"/>
<path d="M233.949 76.2078L263.941 79.6734C264.092 79.6896 264.243 79.6457 264.362 79.5511C264.481 79.4565 264.558 79.3188 264.576 79.168C264.593 79.018 264.55 78.8675 264.457 78.7488C264.364 78.63 264.228 78.5525 264.078 78.5326L234.079 75.0742C233.929 75.0578 233.779 75.1008 233.66 75.1939C233.541 75.287 233.463 75.4228 233.444 75.5724C233.427 75.7235 233.471 75.8749 233.566 75.9939C233.66 76.1128 233.798 76.1896 233.949 76.2078Z" fill="#FF5C8A"/>
<path d="M264.576 79.1391L265.096 74.6627C265.091 74.1733 264.902 73.7036 264.568 73.3456C264.235 72.9877 263.779 72.7673 263.291 72.7278L244.873 69.2477C243.508 68.9878 242.252 69.7531 242.259 70.8361V76.5688L264.576 79.1391Z" fill="#FF5C8A"/>
<path d="M243.978 75.2476L251.775 76.1501L252.042 73.8758L243.985 72.9517L243.978 75.2476Z" fill="white"/>
</g>
<defs>
<clipPath id="clip0_11226_109484">
<rect width="328" height="328" fill="white"/>
</clipPath>
</defs>
</svg>
