<svg width="101" height="140" viewBox="0 0 101 140" fill="none" xmlns="http://www.w3.org/2000/svg">
<path d="M27.9387 122.993C26.3615 123.507 24.7519 123.915 23.1206 124.216C22.8682 124.261 22.6214 124.306 22.3802 124.339C21.5894 124.457 20.849 124.53 20.1367 124.564C9.28342 125.125 9.00297 116.061 8.73374 111.444C8.46649 105.271 8.62016 99.0872 9.19368 92.935C9.94527 84.3702 11.3699 75.4744 13.4396 68.8167C16.4348 59.2142 21.2921 58.1597 25.4147 58.0868C26.2111 58.0868 26.9908 58.0868 27.7199 58.0868C27.7199 58.0868 27.1927 60.8071 26.9403 63.4321L25.3025 75.065L23.0253 91.2075L22.6719 93.7259V93.8661L21.438 102.605L21.1519 104.618C21.0229 105.959 20.9275 107.849 22.3915 108.926C22.5978 109.086 22.824 109.218 23.0645 109.319C24.0181 109.745 25.4259 109.919 27.4731 109.678L27.6807 115.41L27.7199 116.442L27.7872 118.226L27.8994 121.468L27.9387 122.993Z" fill="#FFB573"/>
<path d="M3.26439 89.665C6.37173 93.2154 8.87331 92.7836 13.1697 93.4566C17.4662 94.1297 21.1681 93.8941 25.5094 93.4959C26.39 81.4199 27.8763 69.3775 27.7529 57.3127C24.2305 57.5764 20.4613 57.4305 17.5727 59.1805C13.725 61.5194 13.467 67.5266 10.8757 71.7613C7.81323 76.7645 3.88698 80.8646 0 84.9142C1.41345 87.3822 1.49758 87.6177 3.26439 89.665Z" fill="#1C2D5E"/>
<path opacity="0.2" d="M25.3019 75.0593L19.3115 93.8829H26.8724L25.3019 75.0593Z" fill="#1C2D5E"/>
<path d="M83.1748 96.5188C82.4849 99.6037 81.6604 102.627 80.8191 106.48C80.6396 107.305 80.4545 108.163 80.2582 109.083C80.0058 110.362 79.7534 111.719 79.5122 113.2C79.243 114.882 78.9794 116.677 78.727 118.674C78.5026 120.402 78.2951 122.264 78.0988 124.283C78.0146 125.164 77.9249 126.072 77.8463 127.026C77.6893 128.882 77.5378 130.862 77.4032 132.977C77.2686 135.091 77.1452 137.436 77.0331 139.893C75.2046 139.848 21.1626 139.893 21.1626 139.893C21.4655 136.297 21.7235 132.915 21.9703 129.651C22.0993 127.839 22.2283 126.067 22.3349 124.317V124.277C22.3741 123.716 22.4078 123.212 22.4358 122.684C22.52 121.35 22.5929 120.031 22.6602 118.719C22.8228 115.578 22.9462 112.471 23.0248 109.302C23.0248 109.167 23.0248 109.032 23.0248 108.898C23.0696 106.946 23.0977 104.971 23.1089 102.941C23.1089 100.024 23.1089 97.0124 23.0472 93.849C23.0472 93.7929 23.0472 93.7368 23.0472 93.6807C23.0472 92.8618 23.0192 92.0317 22.9967 91.1903C22.9294 88.6102 22.8397 85.918 22.7163 83.0855C22.5648 79.5518 22.3685 75.7939 22.1217 71.7891C21.8301 67.0495 22.1666 60.7507 25.3805 58.0753C25.6987 57.8077 26.0469 57.578 26.4182 57.391C26.9696 57.1115 27.5624 56.9221 28.1737 56.8301L45.1407 54.1883L51.0581 53.2684L59.7744 54.9511L78.9008 58.7091C79.1298 58.7532 79.3564 58.8094 79.5795 58.8774C80.8156 59.2387 81.8993 59.9952 82.6644 61.0312C84.6387 63.673 85.0482 68.3228 84.6556 74.5823C85.1436 85.4019 84.3863 91.0557 83.1748 96.5188Z" fill="#FF5C8A"/>
<path d="M83.1748 96.5188C82.4849 99.6037 81.6604 102.627 80.8191 106.48C80.6396 107.305 80.4545 108.163 80.2582 109.083C80.0058 110.362 79.7534 111.719 79.5122 113.2C79.243 114.882 78.9794 116.677 78.727 118.674C78.5026 120.402 78.2951 122.264 78.0988 124.283C78.0146 125.164 77.9249 126.072 77.8463 127.026C77.6893 128.882 77.5378 130.862 77.4032 132.977C77.2686 135.091 77.1452 137.436 77.0331 139.893C75.2046 139.848 21.1626 139.893 21.1626 139.893C21.4655 136.297 21.7235 132.915 21.9703 129.651C22.0993 127.839 22.2283 126.067 22.3349 124.317V124.277C22.3741 123.716 22.4078 123.212 22.4358 122.684C22.52 121.35 22.5929 120.031 22.6602 118.719C22.8228 115.578 22.9462 112.471 23.0248 109.302C23.0248 109.167 23.0248 109.032 23.0248 108.898C23.0696 106.946 23.0977 104.971 23.1089 102.941C23.1089 100.024 23.1089 97.0124 23.0472 93.849C23.0472 93.7929 23.0472 93.7368 23.0472 93.6807C23.0472 92.8618 23.0192 92.0317 22.9967 91.1903C22.9294 88.6102 22.8397 85.918 22.7163 83.0855C22.5648 79.5518 22.3685 75.7939 22.1217 71.7891C21.8301 67.0495 22.1666 60.7507 25.3805 58.0753C25.6987 57.8077 26.0469 57.578 26.4182 57.391C26.9696 57.1115 27.5624 56.9221 28.1737 56.8301L45.1407 54.1883L51.0581 53.2684L59.7744 54.9511L78.9008 58.7091C79.1298 58.7532 79.3564 58.8094 79.5795 58.8774C80.8156 59.2387 81.8993 59.9952 82.6644 61.0312C84.6387 63.673 85.0482 68.3228 84.6556 74.5823C85.1436 85.4019 84.3863 91.0557 83.1748 96.5188Z" fill="#1C2D5E"/>
<path d="M60.5649 55.961C63.9639 58.3841 62.5224 62.1925 59.7516 65.3055C53.98 71.7838 47.9729 73.7974 47.9729 73.7974C47.8831 73.7581 32.9802 62.989 43.4857 56.2527C45.2245 55.1309 45.9032 52.4891 46.0939 49.7239C46.2095 47.6117 46.1249 45.4933 45.8415 43.397C45.791 42.8698 45.7069 42.3538 45.6171 41.8658C45.5274 41.3778 45.4264 40.8842 45.3086 40.4299L61.165 33.9124C59.4263 36.5261 58.1026 44.9058 58.4727 47.6037C58.8766 50.6213 58.9944 54.8448 60.5649 55.961Z" fill="#FFB573"/>
<path opacity="0.2" d="M46.1447 49.7236C46.2603 47.6114 46.1758 45.493 45.8923 43.3968C45.8418 42.8695 45.7577 42.3535 45.668 41.8655L57.8898 39.521C55.3434 42.0843 51.7312 47.2781 46.1447 49.7236Z" fill="#1C2D5E"/>
<path d="M29.5816 22.0437C29.9798 24.6687 33.6985 28.9371 33.5078 28.679C33.3589 28.403 33.3057 28.0855 33.3564 27.776C33.4412 26.5887 33.7434 25.427 34.2482 24.349C34.5567 25.8185 35.039 28.8361 36.5366 28.8754C37.1312 27.7928 37.8659 26.8057 37.765 25.5717C38.1127 26.8337 38.4268 28.1013 38.769 29.3633C40.2498 28.4037 41.4266 27.042 42.1617 25.4378C42.8968 23.8336 43.1597 22.0531 42.9196 20.3049C42.788 19.4919 42.4983 18.7125 42.067 18.0109C41.5309 17.2367 40.8825 16.5468 40.1431 15.9636C38.2473 14.3539 35.8299 13.0358 33.4124 13.7201C28.8468 15.0213 29.1833 19.4187 29.5816 22.0437Z" fill="#263238"/>
<path d="M32.7561 34.243C34.7192 44.9393 47.5244 50.5818 55.977 42.92C60.8568 38.5058 61.6364 33.2391 62.5226 25.0276C62.6628 23.7824 62.8031 22.4755 62.9657 21.1014C63.2245 18.9366 63.0004 16.7414 62.3095 14.6735C62.0245 13.8097 61.6485 12.9787 61.1877 12.1944C59.5362 9.21407 56.8912 6.90789 53.7137 5.67788C50.5362 4.44787 47.0277 4.37207 43.8 5.46368C33.2441 9.03095 30.978 24.6181 32.7561 34.243Z" fill="#FFB573"/>
<path d="M43.1438 19.0711C43.0653 19.043 42.997 18.9922 42.9474 18.9252C42.8692 18.8194 42.8359 18.6869 42.8548 18.5567C42.8737 18.4264 42.9433 18.3089 43.0484 18.2297C43.6783 17.7479 44.4159 17.4267 45.1977 17.2938C45.9795 17.1609 46.7819 17.2203 47.5355 17.4669C47.5956 17.4915 47.6503 17.5277 47.6963 17.5735C47.7424 17.6192 47.779 17.6736 47.804 17.7336C47.829 17.7935 47.8419 17.8577 47.8421 17.9227C47.8422 17.9876 47.8295 18.0519 47.8048 18.1119C47.7537 18.2352 47.6564 18.3335 47.5338 18.3859C47.4112 18.4383 47.2729 18.4406 47.1485 18.3924C46.5509 18.1963 45.9144 18.1495 45.2945 18.2561C44.6746 18.3627 44.0903 18.6194 43.5925 19.0038C43.5299 19.0528 43.4556 19.0848 43.377 19.0966C43.2983 19.1084 43.218 19.0996 43.1438 19.0711Z" fill="#263238"/>
<path d="M37.7258 19.8226C37.6725 19.7597 37.6051 19.7101 37.5291 19.678C37.4531 19.6459 37.3707 19.632 37.2883 19.6375C36.6466 19.7185 35.9949 19.6491 35.3845 19.435C34.7742 19.2208 34.222 18.8677 33.7715 18.4036C33.6843 18.3008 33.5604 18.2363 33.4263 18.2237C33.2921 18.2111 33.1584 18.2515 33.0536 18.3362C32.9536 18.4223 32.8898 18.543 32.8753 18.6742C32.8607 18.8053 32.8964 18.9371 32.9751 19.043C33.53 19.6379 34.2192 20.0914 34.9852 20.3656C35.7512 20.6398 36.5717 20.7267 37.3781 20.6191C37.446 20.6142 37.5122 20.5957 37.5728 20.5645C37.6334 20.5334 37.687 20.4904 37.7305 20.438C37.774 20.3856 37.8065 20.3249 37.8259 20.2596C37.8453 20.1944 37.8514 20.1258 37.8436 20.0582C37.8236 19.9714 37.7832 19.8907 37.7258 19.8226Z" fill="#263238"/>
<path d="M39.6383 31.1359C38.1004 31.1503 36.6039 30.6376 35.3979 29.6832C37.0414 28.051 38.8811 26.2168 40.0085 24.192L39.6383 31.1359Z" fill="#ED893E"/>
<path d="M35.813 24.8032C35.3932 24.77 34.9841 24.6537 34.6096 24.4611C34.235 24.2686 33.9025 24.0035 33.6312 23.6814C33.6058 23.6545 33.5859 23.6229 33.5727 23.5883C33.5595 23.5538 33.5533 23.5169 33.5543 23.48C33.5554 23.443 33.5637 23.4066 33.5788 23.3728C33.5939 23.339 33.6155 23.3086 33.6424 23.2832C33.6693 23.2577 33.7009 23.2379 33.7355 23.2247C33.77 23.2115 33.8069 23.2052 33.8438 23.2063C33.8808 23.2073 33.9172 23.2157 33.951 23.2308C33.9848 23.2459 34.0152 23.2675 34.0406 23.2944C34.6632 23.9506 35.6392 24.6013 36.7385 23.9562C36.8028 23.9187 36.8791 23.9076 36.9514 23.9254C37.0236 23.9432 37.0861 23.9885 37.1255 24.0516C37.1626 24.1165 37.1728 24.1933 37.1539 24.2657C37.1351 24.338 37.0886 24.4001 37.0246 24.4386C36.6608 24.6668 36.2423 24.7927 35.813 24.8032Z" fill="#263238"/>
<path d="M45.5728 33.727C44.7829 34.3329 43.8797 34.7746 42.9164 35.026C41.9531 35.2775 40.9492 35.3335 39.9639 35.1909C39.897 35.1838 39.8353 35.1514 39.7915 35.1003C39.7477 35.0492 39.7251 34.9833 39.7283 34.9161C39.7298 34.8844 39.7374 34.8533 39.7509 34.8246C39.7644 34.7959 39.7834 34.7701 39.8068 34.7487C39.8303 34.7274 39.8577 34.7108 39.8875 34.7001C39.9174 34.6894 39.9491 34.6846 39.9807 34.6861C41.055 34.8378 42.1498 34.7406 43.1807 34.4022C44.2115 34.0638 45.1508 33.4931 45.9262 32.7342C45.9722 32.69 46.0335 32.6653 46.0973 32.6653C46.161 32.6653 46.2224 32.69 46.2683 32.7342C46.3125 32.7836 46.3369 32.8475 46.3369 32.9137C46.3369 32.9799 46.3125 33.0438 46.2683 33.0932C46.0589 33.3213 45.8271 33.5325 45.5728 33.727Z" fill="#263238"/>
<path d="M56.9419 40.6429C58.2367 40.4007 59.4588 39.8654 60.5148 39.078C60.5148 40.4971 61.4683 42.9313 61.4683 42.9313C65.9835 41.445 69.7022 32.409 70.2014 29.4138C72.7142 34.0805 72.4954 31.3994 72.6917 29.4138C72.9722 26.5589 73.0395 23.603 72.0692 20.9107C71.0988 18.2184 68.8721 15.8122 66.0452 15.3467C65.5188 15.2971 64.9888 15.3895 64.5103 15.6145C64.0318 15.8394 63.6225 16.1885 63.3248 16.6255C62.8412 17.4936 62.5253 18.445 62.3938 19.4299C61.0813 26.5028 61.1374 34.776 56.9419 40.6429Z" fill="#263238"/>
<path d="M63.3475 24.3772C59.8924 24.4501 57.7779 28.8082 57.4133 31.7922C56.9814 35.1071 59.2138 37.8386 62.4165 36.3691C63.6106 35.8147 64.6821 35.0276 65.5682 34.0539C66.4542 33.0802 67.1371 31.9394 67.5767 30.6984C68.6424 27.6304 66.8026 24.3155 63.3475 24.3772Z" fill="#FFB573"/>
<path opacity="0.2" d="M72.9327 79.4175C72.9327 79.4175 68.7372 98.4037 71.6482 109.863C74.5593 121.322 80.3701 127.099 80.3701 127.099L81.4078 79.4231L72.9327 79.4175Z" fill="#1C2D5E"/>
<path opacity="0.2" d="M80.3703 127.099C79.5455 127.296 78.6839 127.276 77.8687 127.043C77.7117 128.899 77.5602 130.879 77.4256 132.994C74.0883 134.783 59.2078 129.527 46.1559 124.283C43.2785 123.128 40.4909 121.967 37.9388 120.884C37.0302 120.508 36.1608 120.133 35.3251 119.762C33.5919 119.022 32.0102 118.332 30.6304 117.726C29.5086 117.238 28.5214 116.801 27.7025 116.431C25.9918 115.673 25.0103 115.225 25.0103 115.225L27.6633 115.399L48.6126 116.756L54.0252 117.109L55.1133 117.171L61.816 117.603L66.3929 117.895H66.6284L71.0707 118.181L74.6885 118.411L78.7269 118.669L80.3479 118.775C80.3479 118.775 80.4376 119.897 80.4657 121.776V121.843C80.5049 123.24 80.4881 125.029 80.3703 127.099Z" fill="#1C2D5E"/>
<path d="M88.9967 96.5917C88.1666 105.364 86.9439 114.03 85.9343 119.717C85.2332 123.677 82.9952 126.448 80.3702 127.11C79.5454 127.307 78.6838 127.287 77.8687 127.054C77.7453 127.02 77.6275 126.981 77.5041 126.936L57.4241 121.759L57.2503 121.708L55.1021 121.148L55.1357 117.165V116.845V115.269L55.1806 110.294L57.8953 110.44L71.1604 111.147C71.4289 111.222 71.7112 111.234 71.9849 111.18C73.1347 110.962 74.0882 109.616 74.2285 107.843L74.4865 103.995L75.0474 95.5092L76.1299 79.4059L77.1227 64.4974C77.2328 62.8889 77.4862 61.2934 77.8799 59.7299C79.5671 59.8015 81.2146 60.2643 82.6923 61.0816C85.8165 62.7643 89.2099 66.3372 89.7596 73.6624C90.2195 79.7425 89.7932 88.212 88.9967 96.5917Z" fill="#FFB573"/>
<path d="M64.9068 123.201L35.4375 117.513C34.6343 117.26 33.7821 117.205 32.9528 117.351L24.6515 118.775C23.7601 118.93 22.844 118.853 21.9906 118.553C21.1372 118.252 20.3752 117.738 19.7774 117.059L15.8512 112.605C15.3777 112.07 15.0171 111.445 14.7909 110.767C14.5647 110.09 14.4775 109.373 14.5346 108.661C14.5916 107.949 14.7918 107.256 15.1231 106.623C15.4543 105.99 15.9099 105.43 16.4625 104.977L17.8704 103.822C18.7849 103.07 19.9245 102.647 21.1077 102.618C22.2909 102.59 23.4496 102.958 24.3991 103.665C25.3581 104.378 26.5305 104.746 27.7252 104.708H28.2132C29.322 104.674 30.4137 104.988 31.3345 105.607C32.2552 106.226 32.9585 107.118 33.3454 108.157L33.8053 109.386L57.8283 110.306L64.9068 123.201Z" fill="#FFB573"/>
<path opacity="0.1" d="M29.582 110.087C30.9898 109.812 32.3864 109.588 33.7999 109.358L33.3456 108.146C32.9587 107.107 32.2553 106.215 31.3346 105.596C30.4139 104.977 29.3222 104.662 28.2134 104.697H27.7254C26.5307 104.735 25.3583 104.367 24.3993 103.654C23.4498 102.947 22.2911 102.579 21.1079 102.607C19.9247 102.636 18.785 103.059 17.8705 103.811L16.4627 104.966C15.5518 105.714 14.9154 106.744 14.6535 107.893C14.3915 109.043 14.5189 110.246 15.0156 111.315C17.7023 111.568 27.344 110.525 29.582 110.087Z" fill="#1C2D5E"/>
<path opacity="0.2" d="M74.1445 117.16C73.156 117.58 72.138 117.926 71.0989 118.198C69.1414 118.758 66.4435 119.465 63.2969 120.25C61.4235 120.716 59.3706 121.204 57.2617 121.709C53.7393 122.55 49.9701 123.431 46.1897 124.289C36.3236 126.532 26.5585 128.681 22.0265 129.673C22.1555 127.862 22.2845 126.089 22.391 124.339C21.6002 124.457 20.8598 124.53 20.1475 124.564V124.429L20.3213 123.19L22.4527 122.707L27.8766 121.473L35.3196 119.79L40.7715 118.551L48.624 116.762L55.1415 115.281L59.9484 114.187L63.5605 113.368C63.5605 113.368 70.1398 114.053 73.3032 115.158C74.9747 115.718 75.6758 116.397 74.1445 117.16Z" fill="#1C2D5E"/>
<path d="M12.2446 109.128L57.4693 108.292C58.3067 108.221 59.1156 107.954 59.8307 107.512L66.9989 103.076C67.7671 102.599 68.6449 102.326 69.5483 102.285C70.4517 102.244 71.3506 102.435 72.1591 102.84L77.4652 105.493C78.1024 105.813 78.6689 106.257 79.1311 106.8C79.5933 107.343 79.9417 107.973 80.1557 108.653C80.3697 109.333 80.4448 110.05 80.3767 110.759C80.3086 111.469 80.0986 112.158 79.7592 112.785L78.901 114.4C78.3338 115.439 77.4355 116.258 76.3491 116.728C75.2626 117.197 74.0504 117.29 72.9051 116.991C71.7497 116.689 64.4917 117.872 62.9324 116.195L62.035 115.241L26.0538 123.711C23.503 124.312 20.8805 124.552 18.263 124.423L12.2446 109.128Z" fill="#FFB573"/>
<path d="M101 94.0286C99.7692 94.914 98.3507 95.5033 96.8549 95.7506C87.1066 97.3659 80.9312 96.547 73.0731 95.1897C71.6877 82.1489 72.0354 72.0529 74.537 64.7613C75.3727 62.3382 77.7621 58.8102 80.3198 58.9168C91.1843 59.3711 93.0352 70.2973 94.2748 75.3397C95.8147 81.8 98.0703 88.0684 101 94.0286Z" fill="#FF5C8A"/>
<path d="M101 94.0286C99.7692 94.914 98.3507 95.5033 96.8549 95.7506C87.1066 97.3659 80.9312 96.547 73.0731 95.1897C71.6877 82.1489 72.0354 72.0529 74.537 64.7613C75.3727 62.3382 77.7621 58.8102 80.3198 58.9168C91.1843 59.3711 93.0352 70.2973 94.2748 75.3397C95.8147 81.8 98.0703 88.0684 101 94.0286Z" fill="#1C2D5E"/>
<path d="M54.5634 19.2057C55.9039 15.7506 57.8671 14.0174 56.706 14.253C53.565 14.898 51.5009 12.1777 49.2518 13.8772C48.1805 15.2402 49.5939 17.6239 49.6444 17.4893C48.5226 18.1007 47.0362 17.7305 46.0435 16.9284C45.0507 16.1264 44.6468 14.6176 44.1196 13.4397C43.8311 14.77 43.9264 16.155 44.3944 17.4332C43.5924 18.1456 41.8199 16.9565 41.0291 16.261C40.2118 15.4443 39.5871 14.4556 39.2006 13.3668C38.965 14.5559 38.7799 15.773 39.683 17.1528C38.4995 17.2706 36.9346 16.9733 36.1157 16.1095C35.6868 15.6589 35.3605 15.1208 35.1591 14.5321C34.9577 13.9435 34.886 13.3182 34.949 12.6993C34.7078 13.3163 34.7808 15.8123 35.3304 16.1825C33.2664 15.6216 31.2864 13.12 31.292 10.9774C31.3381 9.90356 31.6407 8.85641 32.1745 7.92352C32.7083 6.99063 33.4577 6.19913 34.3601 5.61525C35.2351 5.05436 36.2222 4.61686 37.1645 4.10084C38.5892 3.30998 47.5467 -4.15549 61.5297 3.24268C70.2123 7.83078 69.0176 17.8259 68.0585 18.9477C66.8694 20.3331 64.9231 20.8715 63.1002 20.7706C61.2773 20.6696 54.2213 20.1199 54.5634 19.2057Z" fill="#263238"/>
<path d="M56.4257 14.2249C55.5185 15.2006 54.8412 16.3668 54.4433 17.6382C54.0454 18.9096 53.937 20.2539 54.126 21.5726C54.5243 24.1976 58.2486 28.4716 58.0523 28.208C57.9034 27.932 57.8501 27.6144 57.9008 27.305C57.9856 26.1176 58.2879 24.956 58.7927 23.8779C59.1068 25.3474 59.5835 28.365 61.0867 28.4043C61.6812 27.3218 62.4104 26.3346 62.3095 25.1006C62.6572 26.3627 62.9713 27.6303 63.3191 28.8923C64.7989 27.9316 65.975 26.5698 66.7099 24.9659C67.4449 23.3619 67.7084 21.582 67.4697 19.8339C67.336 19.0205 67.0445 18.2412 66.6115 17.5398C66.0701 16.7711 65.4158 16.0885 64.6708 15.515C62.775 13.9052 60.2622 12.3011 57.9401 13.2714C57.6484 13.4004 56.3359 13.8772 56.4257 14.2249Z" fill="#263238"/>
<path d="M47.0817 22.7504C47.0817 23.6254 46.6162 24.3265 46.0553 24.3434C45.4944 24.3602 45.0344 23.6647 44.9896 22.7673C44.9447 21.8698 45.4551 21.1912 46.0216 21.1799C46.5881 21.1687 47.0873 21.8867 47.0817 22.7504Z" fill="#263238"/>
</svg>
