<svg width="175" height="162" viewBox="0 0 175 162" fill="none" xmlns="http://www.w3.org/2000/svg">
<path d="M126.333 45.1742C130.155 41.3522 130.155 35.1556 126.333 31.3336C122.511 27.5116 116.315 27.5116 112.493 31.3336C108.671 35.1556 108.671 41.3522 112.493 45.1742C116.315 48.9962 122.511 48.9962 126.333 45.1742Z" fill="#FF5C8A"/>
<g opacity="0.7">
<path d="M122.662 37.5017L123.177 39.7334C123.199 39.8186 123.203 39.9074 123.189 39.9942C123.175 40.081 123.142 40.1639 123.094 40.2375C123.048 40.3128 122.986 40.378 122.914 40.4292C122.842 40.4804 122.76 40.5166 122.673 40.5357L120.711 40.9893L121.072 42.5595C121.093 42.6444 121.097 42.7328 121.082 42.819C121.067 42.9052 121.034 42.9873 120.985 43.0601C120.939 43.1342 120.877 43.1978 120.805 43.2469C120.732 43.296 120.651 43.3296 120.564 43.3456C120.478 43.3672 120.389 43.3713 120.301 43.3576C120.213 43.344 120.129 43.3128 120.053 43.2661C119.978 43.2218 119.913 43.1623 119.861 43.0913C119.81 43.0204 119.775 42.9396 119.757 42.8541L119.395 41.2657L117.449 41.7157C117.365 41.7359 117.278 41.739 117.193 41.7247C117.108 41.7104 117.027 41.6791 116.954 41.6325C116.879 41.5882 116.813 41.5288 116.762 41.4578C116.71 41.3869 116.674 41.3061 116.656 41.2205C116.635 41.1361 116.632 41.0484 116.646 40.9627C116.661 40.877 116.692 40.795 116.739 40.7218C116.784 40.647 116.843 40.5822 116.914 40.5315C116.985 40.4808 117.066 40.4453 117.151 40.4273L121.705 39.3774L121.491 38.4504L116.95 39.4967C116.866 39.5181 116.779 39.5223 116.693 39.5089C116.607 39.4956 116.525 39.465 116.452 39.419C116.376 39.3737 116.311 39.3132 116.26 39.2413C116.21 39.1694 116.175 39.0878 116.157 39.0015L115.644 36.7789C115.604 36.6081 115.634 36.4285 115.727 36.2798C115.82 36.131 115.968 36.0252 116.139 35.9856L118.076 35.5393L117.715 33.9672C117.694 33.8841 117.69 33.7976 117.703 33.7128C117.716 33.6281 117.746 33.5469 117.791 33.4739C117.838 33.3948 117.902 33.3268 117.978 33.2745C118.054 33.2221 118.141 33.1866 118.232 33.1703C118.315 33.15 118.402 33.1469 118.487 33.1612C118.572 33.1755 118.653 33.2068 118.725 33.2534C118.799 33.299 118.863 33.3592 118.914 33.4304C118.964 33.5015 118.999 33.5821 119.018 33.6672L119.379 35.2375L121.367 34.7821C121.453 34.7613 121.542 34.7581 121.629 34.7727C121.717 34.7873 121.8 34.8194 121.875 34.8671C121.95 34.9104 122.016 34.9689 122.067 35.0389C122.119 35.1089 122.155 35.1888 122.175 35.2737C122.213 35.4484 122.181 35.6311 122.086 35.7828C121.991 35.9344 121.841 36.0429 121.667 36.085L117.113 37.1349L117.312 38.0565L121.849 37.0102C121.935 36.9894 122.025 36.9862 122.112 37.0008C122.199 37.0154 122.282 37.0475 122.357 37.0951C122.434 37.1376 122.5 37.1958 122.553 37.2659C122.606 37.3359 122.643 37.4163 122.662 37.5017Z" fill="white"/>
</g>
<path d="M130.668 19.9968C134.167 19.9968 137.003 17.1608 137.003 13.6625C137.003 10.1641 134.167 7.32813 130.668 7.32813C127.17 7.32813 124.334 10.1641 124.334 13.6625C124.334 17.1608 127.17 19.9968 130.668 19.9968Z" fill="#FF5C8A"/>
<g opacity="0.7">
<path d="M132.501 14.8042L131.715 16.0612C131.686 16.1102 131.647 16.1526 131.601 16.1858C131.555 16.219 131.502 16.2422 131.446 16.2539C131.391 16.267 131.333 16.2688 131.276 16.2591C131.22 16.2494 131.166 16.2286 131.117 16.1977L130.012 15.5071L129.458 16.3912C129.429 16.4398 129.39 16.4817 129.344 16.5143C129.298 16.5469 129.245 16.5695 129.189 16.5806C129.134 16.5931 129.077 16.5941 129.021 16.5834C128.966 16.5727 128.913 16.5506 128.866 16.5185C128.817 16.489 128.774 16.4498 128.74 16.4033C128.706 16.3569 128.682 16.3041 128.668 16.2481C128.654 16.1934 128.652 16.1363 128.661 16.0804C128.67 16.0246 128.691 15.9713 128.721 15.9239L129.283 15.0316L128.186 14.3468C128.139 14.3177 128.097 14.2793 128.065 14.2338C128.033 14.1883 128.01 14.1367 127.998 14.0822C127.983 14.0274 127.981 13.9702 127.99 13.9142C127.999 13.8583 128.019 13.8048 128.05 13.7572C128.079 13.7091 128.118 13.6675 128.164 13.6348C128.209 13.6021 128.261 13.579 128.316 13.567C128.371 13.5532 128.428 13.5508 128.483 13.5601C128.539 13.5693 128.592 13.59 128.64 13.6207L131.204 15.2243L131.531 14.7024L128.974 13.103C128.925 13.0744 128.883 13.0362 128.85 12.9909C128.817 12.9455 128.794 12.8939 128.781 12.8392C128.767 12.784 128.765 12.7265 128.775 12.6703C128.784 12.6142 128.806 12.5608 128.837 12.5134L129.62 11.2613C129.68 11.165 129.776 11.0965 129.886 11.071C129.997 11.0454 130.113 11.0647 130.209 11.1248L131.3 11.8071L131.854 10.9222C131.883 10.8746 131.92 10.8331 131.965 10.8003C132.01 10.7675 132.061 10.744 132.115 10.7312C132.173 10.7168 132.233 10.715 132.292 10.7258C132.351 10.7366 132.406 10.7599 132.455 10.794C132.503 10.823 132.544 10.8613 132.576 10.9066C132.609 10.952 132.631 11.0034 132.643 11.0578C132.656 11.1127 132.658 11.1696 132.648 11.2252C132.639 11.2808 132.618 11.3338 132.588 11.3812L132.034 12.2653L133.152 12.9666C133.201 12.9964 133.244 13.0358 133.277 13.0824C133.31 13.129 133.334 13.1819 133.346 13.2378C133.361 13.2922 133.364 13.349 133.356 13.4046C133.347 13.4603 133.327 13.5136 133.297 13.5612C133.235 13.6586 133.136 13.7277 133.024 13.7536C132.911 13.7796 132.792 13.7604 132.693 13.7001L130.129 12.0965L129.798 12.6093L132.354 14.2071C132.402 14.2369 132.445 14.2763 132.478 14.3229C132.511 14.3695 132.535 14.4224 132.547 14.4783C132.563 14.5328 132.567 14.59 132.559 14.6462C132.551 14.7023 132.531 14.7562 132.501 14.8042Z" fill="white"/>
</g>
<path d="M112.149 21.8761C113.787 20.4915 113.993 18.0408 112.609 16.4022C111.224 14.7636 108.773 14.5577 107.135 15.9423C105.496 17.3268 105.29 19.7776 106.675 21.4161C108.059 23.0547 110.51 23.2607 112.149 21.8761Z" fill="#FF5C8A"/>
<g opacity="0.7">
<path d="M110.95 18.7196L111.08 19.6193C111.086 19.6537 111.084 19.689 111.076 19.7228C111.067 19.7567 111.052 19.7884 111.03 19.8159C111.009 19.8442 110.983 19.8679 110.953 19.8858C110.922 19.9036 110.889 19.9152 110.854 19.9199L110.063 20.034L110.153 20.6671C110.159 20.7014 110.157 20.7364 110.149 20.77C110.14 20.8036 110.124 20.835 110.103 20.8622C110.082 20.8899 110.055 20.913 110.025 20.93C109.995 20.9471 109.961 20.9576 109.927 20.9611C109.892 20.9668 109.856 20.9654 109.822 20.9571C109.788 20.9488 109.755 20.9337 109.727 20.9126C109.699 20.8926 109.675 20.8669 109.657 20.8372C109.639 20.8074 109.628 20.7743 109.623 20.7399L109.533 20.0997L108.749 20.2129C108.715 20.2182 108.68 20.2165 108.647 20.208C108.614 20.1995 108.583 20.1844 108.556 20.1636C108.527 20.1436 108.503 20.1179 108.485 20.0881C108.467 20.0584 108.456 20.0252 108.451 19.9907C108.446 19.9567 108.448 19.9219 108.456 19.8884C108.465 19.855 108.48 19.8237 108.501 19.7963C108.521 19.7682 108.547 19.7445 108.576 19.7268C108.606 19.7091 108.639 19.6978 108.673 19.6935L110.509 19.4296L110.456 19.0559L108.625 19.3187C108.591 19.3244 108.556 19.3232 108.523 19.315C108.489 19.3069 108.458 19.2921 108.43 19.2714C108.402 19.251 108.378 19.2249 108.361 19.1948C108.343 19.1647 108.332 19.1312 108.328 19.0966L108.199 18.2005C108.189 18.1316 108.207 18.0616 108.248 18.0058C108.29 17.9501 108.352 17.9132 108.421 17.9032L109.202 17.791L109.111 17.1573C109.106 17.1237 109.107 17.0894 109.115 17.0563C109.123 17.0232 109.137 16.9921 109.158 16.9647C109.179 16.935 109.207 16.9103 109.238 16.8921C109.27 16.8739 109.306 16.8627 109.342 16.8593C109.376 16.854 109.41 16.8557 109.443 16.8642C109.476 16.8726 109.507 16.8877 109.534 16.9086C109.562 16.9291 109.586 16.955 109.603 16.9848C109.621 17.0146 109.632 17.0476 109.636 17.0819L109.727 17.715L110.528 17.601C110.563 17.5956 110.599 17.5973 110.633 17.6059C110.667 17.6146 110.699 17.6301 110.726 17.6514C110.755 17.6711 110.779 17.6964 110.797 17.7258C110.815 17.7552 110.827 17.788 110.832 17.8222C110.841 17.8926 110.822 17.9638 110.78 18.0206C110.737 18.0774 110.674 18.1153 110.604 18.1262L108.768 18.3901L108.816 18.7612L110.645 18.4982C110.68 18.4928 110.715 18.4945 110.749 18.5032C110.783 18.5118 110.815 18.5273 110.843 18.5486C110.872 18.568 110.897 18.5932 110.915 18.6227C110.934 18.6521 110.946 18.6851 110.95 18.7196Z" fill="white"/>
</g>
<path d="M75.8741 161.087C112.685 161.087 142.525 159.345 142.525 157.196C142.525 155.047 112.685 153.305 75.8741 153.305C39.0635 153.305 9.22266 155.047 9.22266 157.196C9.22266 159.345 39.0635 161.087 75.8741 161.087Z" fill="#F5F5F5"/>
<path d="M96.2799 83.0781L97.0085 84.5447L98.6302 84.7844L97.4551 85.9266L97.7324 87.5436L96.2799 86.7821L94.8275 87.5436L95.1048 85.9266L93.9297 84.7844L95.5561 84.5447L96.2799 83.0781Z" fill="#FF5C8A"/>
<path d="M51.6432 9.19141L52.3671 10.6627L53.9935 10.8977L52.8183 12.0446L53.0957 13.6616L51.6432 12.8954L50.1908 13.6616L50.4681 12.0446L49.293 10.8977L50.9193 10.6627L51.6432 9.19141Z" fill="#FF5C8A"/>
<path d="M18.5807 57.5508L19.3046 59.022L20.9263 59.2571L19.7511 60.3993L20.0285 62.0162L18.5807 61.2548L17.1283 62.0162L17.4056 60.3993L16.2305 59.2571L17.8521 59.022L18.5807 57.5508Z" fill="#FF5C8A"/>
<path d="M80.9935 36.9844L81.44 37.8916L82.4459 38.0373L81.7173 38.7424L81.8913 39.7436L80.9935 39.2735L80.0957 39.7436L80.2649 38.7424L79.541 38.0373L80.5422 37.8916L80.9935 36.9844Z" fill="#FF5C8A"/>
<path d="M108.542 110.918L108.989 111.83L109.995 111.976L109.266 112.681L109.44 113.682L108.542 113.212L107.644 113.682L107.814 112.681L107.09 111.976L108.091 111.83L108.542 110.918Z" fill="#FF5C8A"/>
<path d="M144.14 60.3477L144.586 61.2549L145.592 61.4006L144.864 62.1056L145.038 63.1068L144.14 62.6321L143.242 63.1068L143.416 62.1056L142.688 61.4006L143.693 61.2549L144.14 60.3477Z" fill="#FF5C8A"/>
<path d="M82.8919 94.5156L83.3384 95.4228L84.3443 95.5685L83.6158 96.2783L83.7897 97.2748L82.8919 96.8048L81.9941 97.2748L82.1633 96.2783L81.4395 95.5685L82.4407 95.4228L82.8919 94.5156Z" fill="#FF5C8A"/>
<path d="M71.4837 16.5508L71.9349 17.4627L72.9361 17.6084L72.2123 18.3135L72.3815 19.3147L71.4837 18.8446L70.5859 19.3147L70.7598 18.3135L70.0312 17.6084L71.0372 17.4627L71.4837 16.5508Z" fill="#FF5C8A"/>
<path d="M24.348 80.7383L24.6113 81.2694L25.1941 81.354L24.7711 81.763L24.8698 82.3459L24.348 82.0732L23.8263 82.3459L23.925 81.763L23.502 81.354L24.0895 81.2694L24.348 80.7383Z" fill="#FF5C8A"/>
<path d="M86.6676 15.7773L86.9308 16.3038L87.5137 16.3884L87.0906 16.802L87.194 17.3849L86.6676 17.1076L86.1458 17.3849L86.2492 16.802L85.8262 16.3884L86.409 16.3038L86.6676 15.7773Z" fill="#FF5C8A"/>
<path d="M64.6918 120.629L64.955 121.155L65.5379 121.24L65.1148 121.654L65.2135 122.236L64.6918 121.959L64.17 122.236L64.2687 121.654L63.8457 121.24L64.4333 121.155L64.6918 120.629Z" fill="#FF5C8A"/>
<path d="M121.084 95.7422L121.343 96.2733L121.93 96.3579L121.507 96.7669L121.606 97.3497L121.084 97.0771L120.563 97.3497L120.661 96.7669L120.238 96.3579L120.821 96.2733L121.084 95.7422Z" fill="#FF5C8A"/>
<path d="M131.313 46.3789L131.576 46.9054L132.159 46.99L131.736 47.4036L131.835 47.9865L131.313 47.7091L130.791 47.9865L130.89 47.4036L130.467 46.99L131.054 46.9054L131.313 46.3789Z" fill="#FF5C8A"/>
<path d="M78.0894 73.4062L78.3527 73.9374L78.9355 74.022L78.5125 74.431L78.6112 75.0138L78.0894 74.7412L77.5677 75.0138L77.6664 74.431L77.248 74.022L77.8309 73.9374L78.0894 73.4062Z" fill="#FF5C8A"/>
<path d="M100.735 48.168L101.671 50.0623L103.758 50.3631L102.244 51.839L102.601 53.9214L100.735 52.939L98.8645 53.9214L99.2217 51.839L97.7129 50.3631L99.7999 50.0623L100.735 48.168Z" fill="#FF5C8A"/>
<path d="M22.6892 21.9688L23.6199 23.863L25.7116 24.1686L24.1981 25.6398L24.5553 27.7221L22.6892 26.7397L20.8184 27.7221L21.1757 25.6398L19.6621 24.1686L21.7538 23.863L22.6892 21.9688Z" fill="#FF5C8A"/>
<g opacity="0.7">
<path opacity="0.7" d="M96.2799 83.0781L97.0085 84.5447L98.6302 84.7844L97.4551 85.9266L97.7324 87.5436L96.2799 86.7821L94.8275 87.5436L95.1048 85.9266L93.9297 84.7844L95.5561 84.5447L96.2799 83.0781Z" fill="white"/>
<path opacity="0.7" d="M51.6432 9.19141L52.3671 10.6627L53.9935 10.8977L52.8183 12.0446L53.0957 13.6616L51.6432 12.8954L50.1908 13.6616L50.4681 12.0446L49.293 10.8977L50.9193 10.6627L51.6432 9.19141Z" fill="white"/>
<path opacity="0.7" d="M18.5807 57.5508L19.3046 59.022L20.9263 59.2571L19.7511 60.3993L20.0285 62.0162L18.5807 61.2548L17.1283 62.0162L17.4056 60.3993L16.2305 59.2571L17.8521 59.022L18.5807 57.5508Z" fill="white"/>
<path opacity="0.7" d="M80.9935 36.9844L81.44 37.8916L82.4459 38.0373L81.7173 38.7424L81.8913 39.7436L80.9935 39.2735L80.0957 39.7436L80.2649 38.7424L79.541 38.0373L80.5422 37.8916L80.9935 36.9844Z" fill="white"/>
<path opacity="0.7" d="M108.542 110.918L108.989 111.83L109.995 111.976L109.266 112.681L109.44 113.682L108.542 113.212L107.644 113.682L107.814 112.681L107.09 111.976L108.091 111.83L108.542 110.918Z" fill="white"/>
<path opacity="0.7" d="M144.14 60.3477L144.586 61.2549L145.592 61.4006L144.864 62.1056L145.038 63.1068L144.14 62.6321L143.242 63.1068L143.416 62.1056L142.688 61.4006L143.693 61.2549L144.14 60.3477Z" fill="white"/>
<path opacity="0.7" d="M82.8919 94.5156L83.3384 95.4228L84.3443 95.5685L83.6158 96.2783L83.7897 97.2748L82.8919 96.8048L81.9941 97.2748L82.1633 96.2783L81.4395 95.5685L82.4407 95.4228L82.8919 94.5156Z" fill="white"/>
<path opacity="0.7" d="M71.4837 16.5508L71.9349 17.4627L72.9361 17.6084L72.2123 18.3135L72.3815 19.3147L71.4837 18.8446L70.5859 19.3147L70.7598 18.3135L70.0312 17.6084L71.0372 17.4627L71.4837 16.5508Z" fill="white"/>
<path opacity="0.7" d="M24.348 80.7383L24.6113 81.2694L25.1941 81.354L24.7711 81.763L24.8698 82.3459L24.348 82.0732L23.8263 82.3459L23.925 81.763L23.502 81.354L24.0895 81.2694L24.348 80.7383Z" fill="white"/>
<path opacity="0.7" d="M86.6676 15.7773L86.9308 16.3038L87.5137 16.3884L87.0906 16.802L87.194 17.3849L86.6676 17.1076L86.1458 17.3849L86.2492 16.802L85.8262 16.3884L86.409 16.3038L86.6676 15.7773Z" fill="white"/>
<path opacity="0.7" d="M64.6918 120.629L64.955 121.155L65.5379 121.24L65.1148 121.654L65.2135 122.236L64.6918 121.959L64.17 122.236L64.2687 121.654L63.8457 121.24L64.4333 121.155L64.6918 120.629Z" fill="white"/>
<path opacity="0.7" d="M121.084 95.7422L121.343 96.2733L121.93 96.3579L121.507 96.7669L121.606 97.3497L121.084 97.0771L120.563 97.3497L120.661 96.7669L120.238 96.3579L120.821 96.2733L121.084 95.7422Z" fill="white"/>
<path opacity="0.7" d="M131.313 46.3789L131.576 46.9054L132.159 46.99L131.736 47.4036L131.835 47.9865L131.313 47.7091L130.791 47.9865L130.89 47.4036L130.467 46.99L131.054 46.9054L131.313 46.3789Z" fill="white"/>
<path opacity="0.7" d="M78.0894 73.4062L78.3527 73.9374L78.9355 74.022L78.5125 74.431L78.6112 75.0138L78.0894 74.7412L77.5677 75.0138L77.6664 74.431L77.248 74.022L77.8309 73.9374L78.0894 73.4062Z" fill="white"/>
<path opacity="0.7" d="M100.735 48.168L101.671 50.0623L103.758 50.3631L102.244 51.839L102.601 53.9214L100.735 52.939L98.8645 53.9214L99.2217 51.839L97.7129 50.3631L99.7999 50.0623L100.735 48.168Z" fill="white"/>
<path opacity="0.7" d="M22.6892 21.9688L23.6199 23.863L25.7116 24.1686L24.1981 25.6398L24.5553 27.7221L22.6892 26.7397L20.8184 27.7221L21.1757 25.6398L19.6621 24.1686L21.7538 23.863L22.6892 21.9688Z" fill="white"/>
</g>
<path d="M155.232 90.909C155.232 90.909 153.498 87.1205 155.481 83.3883C157.465 79.6561 158.038 78.7724 156.774 78.0062C155.509 77.24 154.931 80.9957 154.931 80.9957C154.304 79.3003 154.238 77.4481 154.743 75.7124C155.622 73.0096 156.177 68.6099 154.974 68.1352C153.77 67.6604 154.743 73.6254 153.7 75.656C153.17 74.2287 152.827 72.7388 152.68 71.2234C152.534 69.0518 152.76 65.5828 151.81 64.6944C150.861 63.806 150.254 64.4218 151.19 69.2116C151.754 72.0729 152.068 74.9777 152.13 77.8934C152.13 77.8934 150.066 71.6135 148.684 71.4302C147.302 71.2469 147.302 73.2822 148.487 75.0449C149.671 76.8076 151.951 79.971 152.327 81.5974C152.327 81.5974 150.066 76.8687 148.031 78.307C145.996 79.7454 149.803 82.6127 151.5 83.6421C153.197 84.6715 154.372 91.1629 154.372 91.1629L155.232 90.909Z" fill="#FF5C8A"/>
<path opacity="0.2" d="M155.232 90.909C155.232 90.909 153.498 87.1205 155.481 83.3883C157.465 79.6561 158.038 78.7724 156.774 78.0062C155.509 77.24 154.931 80.9957 154.931 80.9957C154.304 79.3003 154.238 77.4481 154.743 75.7124C155.622 73.0096 156.177 68.6099 154.974 68.1352C153.77 67.6604 154.743 73.6254 153.7 75.656C153.17 74.2287 152.827 72.7388 152.68 71.2234C152.534 69.0518 152.76 65.5828 151.81 64.6944C150.861 63.806 150.254 64.4218 151.19 69.2116C151.754 72.0729 152.068 74.9777 152.13 77.8934C152.13 77.8934 150.066 71.6135 148.684 71.4302C147.302 71.2469 147.302 73.2822 148.487 75.0449C149.671 76.8076 151.951 79.971 152.327 81.5974C152.327 81.5974 150.066 76.8687 148.031 78.307C145.996 79.7454 149.803 82.6127 151.5 83.6421C153.197 84.6715 154.372 91.1629 154.372 91.1629L155.232 90.909Z" fill="black"/>
<path d="M153.859 92.4734C153.859 92.4734 155.552 88.6566 153.526 84.9526C151.5 81.2487 150.908 80.3744 152.163 79.5894C153.418 78.8044 154.043 82.5507 154.043 82.5507C154.648 80.8464 154.69 78.9931 154.165 77.2626C153.248 74.574 152.647 70.1837 153.841 69.6902C155.035 69.1966 154.137 75.1803 155.204 77.2109C155.719 75.7757 156.045 74.2793 156.172 72.7596C156.29 70.588 156.022 67.119 156.962 66.2212C157.902 65.3234 158.518 65.9251 157.643 70.729C157.115 73.5979 156.84 76.5077 156.821 79.4249C156.821 79.4249 158.804 73.1121 160.186 72.91C161.568 72.7079 161.596 74.7385 160.426 76.5247C159.256 78.3109 157.018 81.5025 156.666 83.1336C156.666 83.1336 158.87 78.372 160.92 79.7915C162.969 81.2111 159.199 84.1207 157.516 85.1783C155.834 86.2359 154.734 92.7225 154.734 92.7225L153.859 92.4734Z" fill="#FF5C8A"/>
<path d="M159.166 87.5586H150.414L151.124 93.8196H158.457L159.166 87.5586Z" fill="#1C2D5E"/>
<path d="M155.98 96.5469H153.916V157.211H155.98V96.5469Z" fill="#1C2D5E"/>
<path opacity="0.2" d="M155.98 96.5469H153.916V157.211H155.98V96.5469Z" fill="white"/>
<path d="M156.22 98.1401H153.677L151.797 94.9531H158.1L156.22 98.1401Z" fill="#1C2D5E"/>
<path opacity="0.5" d="M156.22 98.1401H153.677L151.797 94.9531H158.1L156.22 98.1401Z" fill="white"/>
<path d="M174.044 95.8283H135.848C135.615 95.8283 135.391 95.7357 135.226 95.5708C135.061 95.406 134.969 95.1824 134.969 94.9493C134.969 94.7162 135.061 94.4926 135.226 94.3278C135.391 94.1629 135.615 94.0703 135.848 94.0703H174.044C174.277 94.0703 174.501 94.1628 174.667 94.3275C174.833 94.4922 174.926 94.7157 174.928 94.9493C174.926 95.1829 174.833 95.4064 174.667 95.5711C174.501 95.7358 174.277 95.8283 174.044 95.8283Z" fill="#FF5C8A"/>
<path d="M158.293 155.281H151.604C151.094 155.282 150.605 155.486 150.244 155.847C149.884 156.209 149.682 156.698 149.682 157.208H160.215C160.215 156.698 160.013 156.209 159.653 155.847C159.292 155.486 158.803 155.282 158.293 155.281Z" fill="#FF5C8A"/>
<path opacity="0.5" d="M174.044 95.8283H135.848C135.615 95.8283 135.391 95.7357 135.226 95.5708C135.061 95.406 134.969 95.1824 134.969 94.9493C134.969 94.7162 135.061 94.4926 135.226 94.3278C135.391 94.1629 135.615 94.0703 135.848 94.0703H174.044C174.277 94.0703 174.501 94.1628 174.667 94.3275C174.833 94.4922 174.926 94.7157 174.928 94.9493C174.926 95.1829 174.833 95.4064 174.667 95.5711C174.501 95.7358 174.277 95.8283 174.044 95.8283Z" fill="white"/>
<path opacity="0.5" d="M158.293 155.281H151.604C151.094 155.282 150.605 155.486 150.244 155.847C149.884 156.209 149.682 156.698 149.682 157.208H160.215C160.215 156.698 160.013 156.209 159.653 155.847C159.292 155.486 158.803 155.282 158.293 155.281Z" fill="white"/>
<path d="M2.77344 154.332H32.4476V156.87C32.4476 156.956 32.4134 157.039 32.3526 157.1C32.2918 157.16 32.2093 157.195 32.1233 157.195H30.8447C30.8024 157.195 30.7604 157.186 30.7213 157.17C30.6822 157.153 30.6468 157.13 30.617 157.099C30.5873 157.069 30.5638 157.033 30.5481 156.994C30.5323 156.955 30.5245 156.913 30.5251 156.87V156.118H14.8866V156.87C14.8866 156.956 14.8524 157.039 14.7916 157.1C14.7308 157.16 14.6483 157.195 14.5623 157.195H13.2837C13.1977 157.195 13.1152 157.16 13.0544 157.1C12.9936 157.039 12.9594 156.956 12.9594 156.87V156.118H4.79465V156.87C4.79465 156.956 4.76048 157.039 4.69965 157.1C4.63883 157.16 4.55633 157.195 4.47031 157.195H3.19178C3.10576 157.195 3.02327 157.16 2.96244 157.1C2.90162 157.039 2.86745 156.956 2.86745 156.87V156.118H2.77344V154.332Z" fill="#1C2D5E"/>
<path d="M22.0915 128.525V127.543C22.0915 127.258 22.0353 126.975 21.9262 126.712C21.8171 126.448 21.6571 126.209 21.4555 126.007C21.2538 125.806 21.0144 125.646 20.7509 125.537C20.4875 125.428 20.2051 125.371 19.9199 125.371H16.3992C15.8228 125.371 15.27 125.6 14.862 126.007C14.454 126.414 14.2241 126.967 14.2229 127.543V128.525H12.7188V127.543C12.72 126.568 13.1083 125.633 13.7984 124.944C14.4885 124.254 15.4239 123.867 16.3992 123.867H19.9199C20.8944 123.868 21.8286 124.256 22.5177 124.945C23.2068 125.634 23.5944 126.568 23.5957 127.543V128.525H22.0915Z" fill="#1C2D5E"/>
<path d="M2.98034 155.281H32.6169C34.0032 155.281 35.127 154.157 35.127 152.771V130.289C35.127 128.903 34.0032 127.779 32.6169 127.779H2.98034C1.59408 127.779 0.470287 128.903 0.470287 130.289V152.771C0.470287 154.157 1.59408 155.281 2.98034 155.281Z" fill="#FF5C8A"/>
<path opacity="0.2" d="M0.464844 129.784V153.287C0.464844 153.82 0.676801 154.332 1.05409 154.709C1.43138 155.087 1.94309 155.299 2.47665 155.299H33.1097C33.6425 155.297 34.153 155.085 34.5292 154.708C34.9055 154.331 35.1168 153.82 35.1168 153.287V129.784C35.1168 129.252 34.9053 128.742 34.5289 128.365C34.1525 127.989 33.642 127.777 33.1097 127.777H2.47665C1.9439 127.777 1.4329 127.989 1.05575 128.365C0.678596 128.741 0.466088 129.252 0.464844 129.784Z" fill="white"/>
<path opacity="0.2" d="M14.5753 155.281H32.611C33.9973 155.281 35.1211 154.157 35.1211 152.771V130.289C35.1211 128.903 33.9973 127.779 32.611 127.779H14.5753C13.189 127.779 12.0652 128.903 12.0652 130.289L12.0652 152.771C12.0652 154.157 13.189 155.281 14.5753 155.281Z" fill="white"/>
<path d="M5.74414 129.046V150.922C5.74414 151.021 5.78376 151.117 5.85428 151.188C5.9248 151.258 6.02045 151.298 6.12018 151.298C6.21991 151.298 6.31556 151.258 6.38608 151.188C6.4566 151.117 6.49622 151.021 6.49622 150.922V129.046C6.49621 128.711 6.62879 128.39 6.8649 128.153C7.10101 127.916 7.42141 127.782 7.75595 127.781H6.19069C5.90229 128.14 5.74476 128.586 5.74414 129.046Z" fill="#1C2D5E"/>
<path opacity="0.5" d="M24.8799 131.91L22.8023 137.607L18.1582 138.519L21.519 142.956L20.7247 149.217L24.8799 146.261L29.0351 149.217L28.2407 142.956L31.6016 138.519L26.9575 137.607L24.8799 131.91Z" fill="white"/>
<path d="M101.738 58.8751L104.995 58.767C105.345 58.5326 105.731 58.3564 106.137 58.2453C106.65 58.1466 111.473 60.4498 111.552 60.5955C111.632 60.7412 109.621 63.9517 109.291 63.9752C108.962 63.9987 105.273 61.9963 104.911 61.78C104.674 61.6208 104.488 61.3974 104.375 61.1361L101.197 61.545L101.738 58.8751Z" fill="#E4897B"/>
<path d="M103.707 61.7299C103.707 61.7299 90.5455 64.3198 87.3304 63.4502C85.751 63.0225 82.3761 61.9508 79.3396 60.9684C77.3183 60.3103 75.4475 59.6946 74.357 59.3326L73.3652 59.0036L75.5745 55.5863L77.1303 53.1797C80.5288 54.5428 86.9731 58.8814 88.9567 59.0036C90.9403 59.1258 102.964 58.0635 102.964 58.0635L103.707 61.7299Z" fill="#FF5C8A"/>
<path opacity="0.3" d="M79.3341 60.9821C77.3129 60.324 75.4421 59.7083 74.3516 59.3463L75.569 55.5859C75.569 55.5859 78.9956 58.1007 79.3341 60.9821Z" fill="black"/>
<path d="M35.8922 149.003L30.872 153.53L26.5664 153.013L32.3668 146.648L35.8922 149.003Z" fill="#E4897B"/>
<path d="M119.166 149.091L124.717 152.946L128.924 151.893L122.367 146.309L119.166 149.091Z" fill="#E4897B"/>
<path d="M34.28 111.32C33.81 114.544 37.8759 120.119 37.8759 120.119L48.1511 105.862V120.119C48.1511 120.119 56.8235 117.021 60.2972 111.813C63.7708 106.605 72.1048 91.7374 71.6818 86.7173C71.2587 81.6972 63.8038 68.8555 63.8038 68.8555L43.4413 86.7173C43.4413 86.7173 35.6432 102.393 34.28 111.32Z" fill="#FF5C8A"/>
<path opacity="0.3" d="M34.28 111.32C33.81 114.544 37.8759 120.119 37.8759 120.119L48.1511 105.862V120.119C48.1511 120.119 56.8235 117.021 60.2972 111.813C63.7708 106.605 72.1048 91.7374 71.6818 86.7173C71.2587 81.6972 63.8038 68.8555 63.8038 68.8555L43.4413 86.7173C43.4413 86.7173 35.6432 102.393 34.28 111.32Z" fill="black"/>
<path d="M61.5012 47.4141C63.2639 47.5363 68.0396 48.2601 69.3463 49.9382C70.653 51.6163 71.0244 55.9313 68.19 57.6987C65.3556 59.4661 59.5834 54.2909 59.6351 50.9535C59.6868 47.6162 61.5012 47.4141 61.5012 47.4141Z" fill="#1C2D5E"/>
<path d="M125.179 148.534L121.061 152.228C121.061 152.228 92.6608 132.218 73.1162 113.031C69.254 109.3 65.6277 105.333 62.2581 101.153C62.2581 101.153 62.7282 121.604 62.2581 125.449C61.7881 129.294 33.0258 152.242 33.0258 152.242L29.0586 148.397C29.0586 148.397 51.6209 125.957 52.1145 122.61C52.608 119.264 47.884 102.652 46.6619 93.7259C45.4398 84.7997 50.0322 72.7617 50.0322 72.7617L69.1208 74.4915L70.484 84.9125C70.484 84.9125 92.9711 119.301 125.179 148.534Z" fill="#1C2D5E"/>
<path d="M31.1972 152.744H26.4309C26.3533 152.745 26.2784 152.772 26.2179 152.821C26.1574 152.869 26.1149 152.936 26.0971 153.012L25.3262 156.504C25.3106 156.58 25.3105 156.659 25.3259 156.735C25.3412 156.811 25.3717 156.883 25.4156 156.947C25.4595 157.011 25.5158 157.066 25.5812 157.108C25.6466 157.149 25.7198 157.178 25.7963 157.191H25.9232C27.465 157.191 28.5884 157.068 30.5203 157.068C31.7142 157.068 35.3101 157.195 36.9552 157.195C38.6004 157.195 38.8354 155.569 38.1445 155.419C35.1221 154.76 32.847 153.849 31.8787 152.979C31.7862 152.897 31.6783 152.834 31.5614 152.794C31.4444 152.753 31.3206 152.736 31.1972 152.744Z" fill="#1C2D5E"/>
<path d="M128.102 150.858L123.792 152.889C123.722 152.922 123.665 152.979 123.63 153.049C123.596 153.119 123.587 153.198 123.604 153.274L124.394 156.762C124.411 156.836 124.443 156.906 124.487 156.968C124.531 157.03 124.587 157.083 124.652 157.123C124.716 157.163 124.788 157.19 124.863 157.202C124.939 157.215 125.015 157.212 125.089 157.195L125.207 157.148C126.594 156.471 127.557 155.907 129.32 155.084C130.396 154.577 133.705 153.157 135.195 152.457C136.686 151.756 136.187 150.196 135.515 150.346C132.497 151.037 130.053 151.178 128.807 150.816C128.576 150.738 128.323 150.753 128.102 150.858Z" fill="#1C2D5E"/>
<path d="M69.9481 77.3088L49.125 74.9727L48.8477 77.4545L69.9622 79.5603L69.9481 77.3088Z" fill="black"/>
<path d="M55.6214 79.5506L56.3613 79.6328L56.8484 75.2492L56.1085 75.167L55.6214 79.5506Z" fill="#1C2D5E"/>
<path d="M65.9819 80.1903L66.7246 80.2734L67.2174 75.8731L66.4747 75.7899L65.9819 80.1903Z" fill="#1C2D5E"/>
<path d="M60.1958 78.5924L64.0449 79.0234L64.3557 76.2487L60.5065 75.8176L60.1958 78.5924Z" fill="white"/>
<path d="M69.9159 77.6476C72.1346 61.5061 76.4402 53.1393 76.4402 53.1393C66.9922 49.8489 54.2539 47.4141 54.2539 47.4141C50.8179 56.2181 49.4688 68.8107 49.0176 75.5606L69.9159 77.6476Z" fill="#1C2D5E"/>
<path opacity="0.8" d="M69.9159 77.6476C72.1346 61.5061 76.4402 53.1393 76.4402 53.1393C66.9922 49.8489 54.2539 47.4141 54.2539 47.4141C50.8179 56.2181 49.4688 68.8107 49.0176 75.5606L69.9159 77.6476Z" fill="white"/>
<path d="M66.8559 52.0519C66.8559 52.0519 62.5315 50.9943 61.4551 48.8133C62.3247 48.3902 63.0062 47.4548 63.5374 46.3032C63.6784 46.0024 63.81 45.6828 63.9275 45.3631C64.2486 44.4649 64.5031 43.5442 64.689 42.6086C64.8864 41.6685 65.018 40.7849 65.1027 40.0469L65.7372 41.0622L68.6938 45.805C68.5089 46.0991 68.341 46.4035 68.1909 46.7169C67.8948 47.2698 67.7155 47.8778 67.6644 48.503C67.6447 48.8207 67.6829 49.1392 67.7772 49.4431C67.8785 49.7654 68.0378 50.0665 68.2473 50.3315C68.5891 50.7401 69.0014 51.084 69.4647 51.3468C69.695 52.3621 66.8559 52.0519 66.8559 52.0519Z" fill="#E4897B"/>
<path opacity="0.2" d="M68.1891 46.711C67.893 47.264 67.7138 47.8719 67.6627 48.4971C67.6429 48.8148 67.6812 49.1333 67.7755 49.4372C65.8483 48.6899 64.5133 46.8896 63.9258 45.3478C64.2468 44.4496 64.5013 43.5289 64.6873 42.5933C65.0586 42.0622 65.4252 41.5545 65.7355 41.0469L68.6921 45.7897C68.5068 46.0868 68.3389 46.3944 68.1891 46.711Z" fill="black"/>
<path d="M62.9638 47.1797L66.4609 51.3631L67.8288 49.6521L69.2389 51.0106C69.4789 51.2834 69.6112 51.6343 69.6112 51.9977C69.6112 52.361 69.4789 52.7119 69.2389 52.9848L67.8288 54.9073L66.2024 52.557L63.9039 53.8732L59.8145 48.6603L62.9638 47.1797Z" fill="#1C2D5E"/>
<path opacity="0.7" d="M62.9638 47.1797L66.4609 51.3631L67.8288 49.6521L69.2389 51.0106C69.4789 51.2834 69.6112 51.6343 69.6112 51.9977C69.6112 52.361 69.4789 52.7119 69.2389 52.9848L67.8288 54.9073L66.2024 52.557L63.9039 53.8732L59.8145 48.6603L62.9638 47.1797Z" fill="white"/>
<path d="M75.2876 35.175C76.5661 36.5569 75.7576 40.4677 72.8433 42.3056C69.929 44.1435 70.5495 34.39 70.5495 34.39C70.5495 34.39 74.4744 34.2913 75.2876 35.175Z" fill="#1C2D5E"/>
<path d="M64.4993 45.9381C65.0276 46.8379 65.8365 47.5394 66.802 47.9351C67.7674 48.3308 68.836 48.3987 69.8438 48.1286C71.1542 47.8029 72.2917 46.9913 73.026 45.8582C73.1277 45.7063 73.2219 45.5494 73.308 45.3882C74.8827 42.2717 75.6583 36.697 72.4196 34.3843C71.7034 33.8688 70.8672 33.5451 69.9905 33.4441C69.1138 33.3431 68.2259 33.4682 67.4112 33.8075C66.5965 34.1467 65.8822 34.6888 65.3363 35.3822C64.7904 36.0756 64.4311 36.8971 64.2925 37.7687C63.6626 41.4868 63.0798 43.6443 64.4993 45.9381Z" fill="#E4897B"/>
<path d="M69.628 40.1215C69.5387 40.4129 69.6562 40.6949 69.8536 40.742C70.051 40.789 70.2673 40.5821 70.3237 40.2719C70.3801 39.9617 70.2908 39.6937 70.0981 39.6467C69.9053 39.5997 69.7032 39.8301 69.628 40.1215Z" fill="#1C2D5E"/>
<path d="M73.0086 40.9175C72.9825 40.9736 72.9678 41.0344 72.9652 41.0962C72.9627 41.1581 72.9724 41.2198 72.9938 41.2779C73.0152 41.336 73.0479 41.3893 73.0899 41.4347C73.132 41.4801 73.1826 41.5168 73.2389 41.5426C73.4316 41.5849 73.6478 41.3781 73.7089 41.0726C73.77 40.7671 73.676 40.4944 73.4833 40.4474C73.2906 40.4004 73.065 40.6354 73.0086 40.9175Z" fill="#1C2D5E"/>
<path d="M71.8995 40.8125C72.0401 41.8107 72.3169 42.7849 72.7221 43.708C72.4824 43.8073 72.2237 43.8525 71.9645 43.8403C71.7053 43.8281 71.452 43.7589 71.2227 43.6375L71.8995 40.8125Z" fill="#DE5753"/>
<path d="M74.6056 39.7732C74.5736 39.7813 74.54 39.7813 74.508 39.7731C74.4759 39.7649 74.4465 39.7487 74.4223 39.7262C74.2664 39.5618 74.0744 39.4358 73.8615 39.3583C73.6486 39.2808 73.4206 39.2539 73.1955 39.2796C73.1723 39.2843 73.1485 39.2843 73.1253 39.2797C73.1022 39.2751 73.0802 39.266 73.0605 39.2529C73.0409 39.2398 73.024 39.223 73.0109 39.2034C72.9977 39.1838 72.9886 39.1618 72.984 39.1386C72.9793 39.1155 72.9793 39.0916 72.9839 39.0685C72.9885 39.0453 72.9976 39.0233 73.0107 39.0036C73.0237 38.984 73.0406 38.9671 73.0602 38.954C73.0798 38.9409 73.1018 38.9317 73.125 38.9271C73.4079 38.8881 73.696 38.9167 73.9656 39.0107C74.2353 39.1047 74.4788 39.2613 74.6761 39.4676C74.6929 39.4843 74.7062 39.504 74.7153 39.5258C74.7244 39.5476 74.7291 39.571 74.7291 39.5946C74.7291 39.6182 74.7244 39.6415 74.7153 39.6633C74.7062 39.6851 74.6929 39.7049 74.6761 39.7215L74.6056 39.7732Z" fill="#1C2D5E"/>
<path d="M69.3039 38.6076C69.2687 38.5991 69.2373 38.5793 69.2146 38.5512C69.1924 38.5092 69.1874 38.4603 69.2005 38.4147C69.2137 38.3692 69.244 38.3304 69.2851 38.3067C69.5374 38.1693 69.8193 38.095 70.1066 38.0901C70.3939 38.0852 70.6781 38.1498 70.935 38.2785C70.9554 38.2902 70.9733 38.3058 70.9876 38.3245C71.002 38.3431 71.0125 38.3644 71.0186 38.3871C71.0248 38.4098 71.0263 38.4335 71.0233 38.4568C71.0202 38.4801 71.0125 38.5026 71.0008 38.523C70.9763 38.5633 70.9373 38.5926 70.8917 38.6048C70.8462 38.6171 70.7977 38.6113 70.7563 38.5888C70.5504 38.4932 70.3249 38.4472 70.0979 38.4546C69.871 38.4619 69.649 38.5224 69.4496 38.6311C69.4251 38.6384 69.3993 38.6401 69.3741 38.6361C69.3488 38.632 69.3248 38.6222 69.3039 38.6076Z" fill="#1C2D5E"/>
<path d="M68.0777 33.8273L68.0401 34.3914C67.4525 34.5747 66.9449 36.2293 67.0718 36.9202C67.3397 38.3962 66.1599 40.3845 64.9472 41.0379C64.9472 41.0379 65.0271 40.4362 64.4771 40.4832C63.9271 40.5302 63.5088 43.6607 64.2139 45.3247C64.2139 45.3247 62.9777 43.7077 62.7473 40.2905C62.5358 37.1318 62.9118 34.6029 63.7485 33.5547L68.0777 33.8273Z" fill="#1C2D5E"/>
<path d="M61.9764 40.4005C62.0804 40.8605 62.2742 41.2955 62.5469 41.6802C62.8196 42.065 63.1656 42.3921 63.5652 42.6427C64.6322 43.3101 65.5206 42.4358 65.5206 41.2325C65.5206 40.1702 64.9565 38.5109 63.7344 38.3417C62.5123 38.1725 61.732 39.2583 61.9764 40.4005Z" fill="#E4897B"/>
<path d="M70.7715 44.5287C70.4816 44.9097 70.2208 45.312 69.9912 45.732L69.7515 45.6474C68.6751 45.2526 68.3084 44.7073 68.2238 44.2373C68.1907 44.0035 68.2132 43.7651 68.2896 43.5416C68.3266 43.4136 68.382 43.2917 68.4542 43.1797C69.0104 43.7174 69.6756 44.1294 70.4049 44.3877C70.6258 44.4817 70.7715 44.5287 70.7715 44.5287Z" fill="#1C2D5E"/>
<path d="M70.4031 44.3877L70.1634 44.7402C69.1528 44.3642 68.49 43.9647 68.2832 43.5416C68.3202 43.4136 68.3756 43.2917 68.4477 43.1797C69.0053 43.718 69.6722 44.13 70.4031 44.3877Z" fill="white"/>
<path d="M69.7738 45.6484C68.6973 45.2536 68.3307 44.7083 68.2461 44.2383C68.653 44.3965 69.0286 44.6257 69.3554 44.9152C69.5684 45.1096 69.7148 45.3661 69.7738 45.6484Z" fill="#DE5753"/>
<path d="M66.3284 48.1707C66.9522 48.7011 67.7487 48.9845 68.5673 48.9671C69.3858 48.9498 70.1697 48.633 70.7704 48.0767C71.6729 47.1789 72.2792 45.7265 71.9737 45.0778C71.3344 43.7147 70.211 43.9356 70.211 43.9356C69.9774 43.4162 69.5656 42.9977 69.05 42.7558C68.6524 42.6104 68.2258 42.5619 67.8056 42.6142C67.3855 42.6665 66.9838 42.8182 66.634 43.0566C65.5153 43.9121 64.641 46.7794 66.3284 48.1707ZM68.2885 43.0002C68.6581 43.0161 69.0163 43.1326 69.3245 43.3373C69.6326 43.5419 69.879 43.8268 70.0371 44.1612C70.0371 44.1612 71.7669 44.0155 71.4473 45.7453C71.1276 47.4751 69.7692 47.9451 69.2333 47.3199C68.6975 46.6948 69.4966 46.1072 69.4966 46.1072L68.8338 45.6842C68.6552 46.6008 67.5553 47.3528 66.9536 46.3939C66.3519 45.435 66.9536 42.8874 68.2885 42.9861V43.0002Z" fill="#1C2D5E"/>
<path d="M67.0473 34.5734C67.884 34.4089 69.2189 33.9906 71.0051 35.2926C72.7913 36.5947 73.2989 36.9801 74.4176 35.6969C75.5364 34.4136 75.4 30.6438 72.7208 29.7131C70.0415 28.7824 67.3105 31.8049 67.3105 31.8049C67.3105 31.8049 62.5724 32.0728 62.8263 36.5053L67.0473 34.5734Z" fill="#1C2D5E"/>
<path d="M66.6153 52.4928L63.6634 50.5703C63.6634 50.5703 62.9583 50.6925 63.56 52.5962C63.3124 53.1491 63.1461 53.7349 63.0664 54.3354C63.104 54.8054 66.3567 53.635 66.3567 53.635C66.3567 53.635 68.6741 55.6139 68.9514 55.5857C69.2287 55.5575 68.9514 53.3953 68.9514 53.3953C68.9514 53.3953 69.5108 52.2954 69.351 52.098C69.1911 51.9005 66.6153 52.4928 66.6153 52.4928Z" fill="#1C2D5E"/>
<path d="M65.1579 72.3884C65.1579 72.3884 39.0138 94.3208 34.2852 111.299C34.3933 110.617 37.6601 90.7203 49.7215 67.9605C49.5889 64.5785 49.792 61.1917 50.3279 57.8498C50.6709 55.603 51.1672 53.3823 51.8133 51.2033C52.2214 49.8383 52.6999 48.4953 53.2469 47.1797L59.4045 47.8143C59.4045 47.8143 62.0321 66.1038 65.1579 72.3884Z" fill="#FF5C8A"/>
<path d="M70.0888 50.6055C70.0888 50.6055 71.5366 62.7186 63.8184 72.0162C63.8184 72.0162 68.4953 77.967 70.4789 84.9096L71.6964 86.7146L70.6576 74.4933C73.2477 67.5268 75.4078 60.4079 77.1254 53.1766L70.0888 50.6055Z" fill="#FF5C8A"/>
<path d="M61.5003 47.4157C61.5003 47.4157 57.848 46.8094 55.8926 51.5569H58.7129L57.2698 54.7297C57.2698 54.7297 60.0901 65.6395 64.7342 71.4305C64.7201 71.4305 60.2264 49.404 61.5003 47.4157Z" fill="#1C2D5E"/>
<path d="M63.6641 72.3016C63.6641 72.3016 71.1519 58.3553 69.3328 49.9414C71.1632 51.4871 72.5488 53.4924 73.3471 55.7512L71.9604 55.2389L73.3471 59.7513C73.3471 59.7513 68.2893 69.7022 63.6641 72.3016Z" fill="#1C2D5E"/>
<path d="M127.37 76.2958C127.37 76.2958 124.441 78.1196 119.544 78.1196C114.646 78.1196 111.553 76.2958 111.553 76.2958L112.728 64.2344L113 61.4141L125.955 61.1133C125.955 61.8654 126.007 62.8807 126.091 64.0276C126.444 68.9349 127.37 76.2958 127.37 76.2958Z" fill="#1C2D5E"/>
<path d="M126.096 64.0323C123.919 64.9488 121.576 65.4079 119.214 65.3813C117.002 65.3933 114.806 65.0047 112.732 64.2344L113.005 61.4141L125.96 61.1133C125.96 61.8701 126.011 62.8854 126.096 64.0323Z" fill="#FF5C8A"/>
<path d="M119.542 64.0409C125.687 64.0409 130.668 63.0034 130.668 61.7236C130.668 60.4438 125.687 59.4062 119.542 59.4062C113.397 59.4062 108.416 60.4438 108.416 61.7236C108.416 63.0034 113.397 64.0409 119.542 64.0409Z" fill="#1C2D5E"/>
<path opacity="0.2" d="M119.542 64.0409C125.687 64.0409 130.668 63.0034 130.668 61.7236C130.668 60.4438 125.687 59.4062 119.542 59.4062C113.397 59.4062 108.416 60.4438 108.416 61.7236C108.416 63.0034 113.397 64.0409 119.542 64.0409Z" fill="white"/>
<path opacity="0.5" d="M125.959 61.1162C125.959 61.8542 123.087 62.4511 119.543 62.4511C115.999 62.4511 113.127 61.8542 113.127 61.1162C113.127 60.3782 115.999 59.7812 119.543 59.7812C123.087 59.7812 125.959 60.3782 125.959 61.1162Z" fill="black"/>
<path opacity="0.3" d="M73.1357 113.028C69.2735 109.298 65.6472 105.331 62.2776 101.15L61.4785 92.1907L66.2166 88.1953C65.958 89.9346 65.2965 91.5893 64.2847 93.0274L73.1357 113.028Z" fill="black"/>
<path opacity="0.3" d="M50.3281 57.8487C50.6712 55.602 51.1674 53.3813 51.8135 51.2023L53.2471 50.9531C53.4874 52.262 53.339 53.6126 52.8203 54.8381C52.3015 56.0635 51.4351 57.1102 50.3281 57.8487Z" fill="black"/>
<path d="M44.5926 37.6665L45.7583 34.6158C46.0942 34.3627 46.3863 34.0562 46.6232 33.7086C46.8817 33.2386 46.2754 27.9459 46.1532 27.8142C46.031 27.6826 42.3552 28.5522 42.2236 28.853C42.092 29.1539 42.7876 33.2997 42.8722 33.7086C42.9441 33.9837 43.0943 34.2319 43.3047 34.4231L41.8945 37.2998L44.5926 37.6665Z" fill="#E4897B"/>
<path d="M53.2479 47.1786C50.6486 47.0987 42.8364 48.4947 42.3428 47.1786C41.8493 45.8625 45.5626 36.5038 45.5626 36.5038L42.2723 35.6953C42.2723 35.6953 35.7715 48.3584 36.8714 50.9531C37.9714 53.5477 51.4429 53.8486 51.4429 53.8486C51.4429 53.8486 52.5193 53.6888 53.262 50.9531C54.0047 48.2174 53.2479 47.1786 53.2479 47.1786Z" fill="#FF5C8A"/>
<path d="M44.9514 30.9493L44.3027 30.0327L67.2505 14.2344L67.4902 14.5728L44.9514 30.9493Z" fill="#1C2D5E"/>
</svg>
