<svg width="100" height="79" viewBox="0 0 100 79" fill="none" xmlns="http://www.w3.org/2000/svg">
<g clip-path="url(#clip0_3320_49764)">
<path d="M73.6396 33.5878L68.041 31.8801L50.6647 88.8495L56.2632 90.5571C60.0039 91.6981 63.9326 92.0911 67.8252 91.7137C71.7177 91.3363 75.4978 90.1959 78.9496 88.3576C82.4015 86.5194 85.4574 84.0192 87.943 80.9999C90.4286 77.9806 92.2951 74.5013 93.4361 70.7606C94.577 67.02 94.97 63.0912 94.5926 59.1987C94.2153 55.3061 93.0749 51.526 91.2366 48.0742C89.3983 44.6224 86.8981 41.5664 83.8788 39.0808C80.8595 36.5953 77.3802 34.7287 73.6396 33.5878Z" fill="#FF5C8A"/>
<path opacity="0.1" d="M73.6396 33.5878L68.041 31.8801L50.6647 88.8495L56.2632 90.5571C60.0039 91.6981 63.9326 92.0911 67.8252 91.7137C71.7177 91.3363 75.4978 90.1959 78.9496 88.3576C82.4015 86.5194 85.4574 84.0192 87.943 80.9999C90.4286 77.9806 92.2951 74.5013 93.4361 70.7606C94.577 67.02 94.97 63.0912 94.5926 59.1987C94.2153 55.3061 93.0749 51.526 91.2366 48.0742C89.3983 44.6224 86.8981 41.5664 83.8788 39.0808C80.8595 36.5953 77.3802 34.7287 73.6396 33.5878Z" fill="#1C2D5E"/>
<path d="M54.3728 30.3275L54.3275 30.0671C56.6084 29.6845 58.9254 29.5628 61.2338 29.7042L61.2148 29.9755C58.9282 29.8339 56.6328 29.952 54.3728 30.3275Z" fill="#FF5C8A"/>
<path d="M50.4932 31.2479L50.4179 30.9949C51.0744 30.7961 51.7456 30.6128 52.4108 30.4582L52.4711 30.7149C51.8109 30.8711 51.1464 31.0509 50.4932 31.2479Z" fill="#FF5C8A"/>
<path d="M73.351 86.6502C87.8679 78.9192 93.369 60.8837 85.638 46.3668C77.9069 31.8499 59.8714 26.3489 45.3545 34.0799C30.8376 41.8109 25.3366 59.8464 33.0676 74.3633C40.7986 88.8802 58.8341 94.3813 73.351 86.6502Z" fill="#FF5C8A"/>
<path opacity="0.1" d="M81.4228 50.2955C78.1958 45.0252 73.0788 41.1854 67.1165 39.56C61.1543 37.9346 54.7965 38.6462 49.3412 41.5496C43.8859 44.4529 39.7445 49.329 37.7625 55.1823C35.7805 61.0357 36.1074 67.4248 38.6765 73.0453C36.9488 70.2237 35.8166 67.0785 35.3495 63.8031C34.8825 60.5277 35.0904 57.1914 35.9606 53.9994C36.8308 50.8074 38.3449 47.8271 40.4096 45.2419C42.4743 42.6567 45.0461 40.5213 47.9667 38.9669C50.8874 37.4125 54.0951 36.4721 57.3927 36.2034C60.6903 35.9347 64.008 36.3435 67.1417 37.4046C70.2755 38.4658 73.159 40.1568 75.615 42.3736C78.0709 44.5905 80.0474 47.2864 81.4228 50.2955Z" fill="#1C2D5E"/>
<path opacity="0.1" d="M69.9751 65.8742C69.5243 64.7538 68.587 63.7741 67.1634 62.9352C68.1249 62.937 69.0701 62.6863 69.9044 62.2082C70.9657 61.55 71.7422 60.5183 72.0808 59.3162C72.3135 58.6048 72.3897 57.8514 72.3042 57.1078C72.2186 56.3641 71.9733 55.6478 71.5851 55.0078C70.7889 53.6564 69.3606 52.6664 67.3 52.0379L66.0322 51.6512L67.1281 48.0583L64.7294 47.3267L63.6335 50.9196L60.6593 50.0124L61.7552 46.4195L59.3591 45.6887L58.2632 49.2816L53.0526 47.6923L51.7308 52.0256L53.6046 52.5971L49.7246 65.3181L47.8508 64.7466L46.5291 69.0799L51.7397 70.6692L50.6438 74.2621L53.0399 74.993L54.1358 71.4L57.1101 72.3072L56.0142 75.9001L58.4128 76.6317L59.5087 73.0388L59.813 73.1316C60.8185 73.3881 61.8368 73.5923 62.8635 73.7434C64.0263 73.941 64.9342 73.9629 65.5872 73.8092C66.6183 73.5775 67.5692 73.0755 68.3422 72.3547C69.1369 71.6011 69.7148 70.6479 70.0154 69.5948C70.4389 68.2366 70.4255 66.9964 69.9751 65.8742ZM60.2732 54.6311L63.1917 55.5213C64.1941 55.827 64.8431 56.2162 65.1386 56.6888C65.2865 56.9337 65.3776 57.2086 65.4054 57.4933C65.4332 57.778 65.3969 58.0653 65.2992 58.3341C65.2305 58.6251 65.0985 58.8972 64.9126 59.1313C64.7267 59.3654 64.4915 59.5556 64.2237 59.6884C63.7131 59.9207 62.9414 59.8793 61.9086 59.5643L59.0358 58.688L60.2732 54.6311ZM62.4298 68.2594C61.8401 68.5211 60.9764 68.4784 59.8387 68.1315L56.4689 67.1036L57.7945 62.7576L61.1491 63.7808C62.3087 64.1345 63.0599 64.5733 63.4026 65.0973C63.5714 65.3492 63.6799 65.6365 63.72 65.937C63.76 66.2376 63.7303 66.5433 63.6333 66.8306C63.5551 67.1448 63.406 67.437 63.1974 67.6846C62.9888 67.9323 62.7262 68.1289 62.4298 68.2594Z" fill="#1C2D5E"/>
<path d="M69.1734 65.6301C68.7225 64.5096 67.7852 63.53 66.3616 62.6911C67.3238 62.6924 68.2696 62.442 69.1052 61.9648C70.165 61.3052 70.9403 60.2735 71.279 59.072C71.5118 58.3606 71.588 57.6073 71.5024 56.8636C71.4169 56.12 71.1716 55.4036 70.7833 54.7637C69.9872 53.4122 68.5588 52.4223 66.4982 51.7938L65.2304 51.4071L66.3263 47.8142L63.9302 47.0833L62.8343 50.6762L59.8575 49.7683L60.9534 46.1754L58.5573 45.4445L57.4614 49.0374L52.2508 47.4481L50.9291 51.7814L52.8029 52.353L48.9228 65.074L47.049 64.5024L45.7273 68.8357L50.9379 70.425L49.842 74.018L52.2382 74.7488L53.3341 71.1559L56.3108 72.0638L55.2149 75.6568L57.6111 76.3876L58.7069 72.7947L59.0112 72.8875C60.0168 73.144 61.035 73.3482 62.0617 73.4992C63.2229 73.6963 64.1308 73.7183 64.7854 73.565C65.8169 73.3342 66.768 72.8321 67.5404 72.1106C68.3352 71.3569 68.913 70.4038 69.2137 69.3506C69.6372 67.9924 69.6238 66.7523 69.1734 65.6301ZM59.4714 54.387L62.3899 55.2771C63.3923 55.5829 64.0413 55.9721 64.3369 56.4447C64.4847 56.6896 64.5759 56.9644 64.6037 57.2491C64.6314 57.5338 64.5951 57.8212 64.4974 58.09C64.4287 58.3809 64.2967 58.6531 64.1108 58.8872C63.925 59.1212 63.6898 59.3115 63.422 59.4443C62.9097 59.676 62.138 59.6346 61.1069 59.3201L58.234 58.4439L59.4714 54.387ZM61.6281 68.0152C61.0383 68.2769 60.1746 68.2343 59.037 67.8873L55.6672 66.8595L56.9928 62.5135L60.3473 63.5367C61.5053 63.8899 62.2564 64.3287 62.6009 64.8532C62.7702 65.1048 62.8791 65.3921 62.9191 65.6928C62.9591 65.9934 62.9292 66.2992 62.8316 66.5864C62.7534 66.9007 62.6043 67.1928 62.3956 67.4405C62.187 67.6882 61.9245 67.8848 61.6281 68.0152Z" fill="white"/>
<path d="M29.8494 -1.33357L27.0127 -0.573486L34.7471 28.2915L37.5837 27.5315C39.479 27.0236 41.2557 26.1474 42.8124 24.9529C44.3691 23.7585 45.6753 22.269 46.6564 20.5698C47.6375 18.8705 48.2742 16.9946 48.5303 15.0492C48.7865 13.1038 48.6569 11.1271 48.149 9.23176C47.6412 7.33646 46.765 5.55974 45.5705 4.00305C44.376 2.44636 42.8866 1.14019 41.1874 0.159109C39.4881 -0.821972 37.6122 -1.45875 35.6668 -1.71486C33.7214 -1.97098 31.7447 -1.84141 29.8494 -1.33357Z" fill="#FF5C8A"/>
<path opacity="0.1" d="M29.8494 -1.33357L27.0127 -0.573486L34.7471 28.2915L37.5837 27.5315C39.479 27.0236 41.2557 26.1474 42.8124 24.9529C44.3691 23.7585 45.6753 22.269 46.6564 20.5698C47.6375 18.8705 48.2742 16.9946 48.5303 15.0492C48.7865 13.1038 48.6569 11.1271 48.149 9.23176C47.6412 7.33646 46.765 5.55974 45.5705 4.00305C44.376 2.44636 42.8866 1.14019 41.1874 0.159109C39.4881 -0.821972 37.6122 -1.45875 35.6668 -1.71486C33.7214 -1.97098 31.7447 -1.84141 29.8494 -1.33357Z" fill="#1C2D5E"/>
<path d="M20.7819 2.39636L20.6934 2.29752C21.5627 1.52889 22.5167 0.861675 23.5368 0.308758L23.6008 0.429312C22.5899 0.976363 21.6442 1.63626 20.7819 2.39636Z" fill="#FF5C8A"/>
<path d="M19.3752 3.81848L19.276 3.73078C19.5026 3.47177 19.7396 3.21549 19.9817 2.973L20.0755 3.06627C19.836 3.30808 19.6009 3.5611 19.3752 3.81848Z" fill="#FF5C8A"/>
<path d="M43.8192 21.3297C47.9453 14.1832 45.4967 5.04503 38.3502 0.919014C31.2038 -3.20701 22.0656 -0.758438 17.9396 6.38804C13.8136 13.5345 16.2621 22.6727 23.4086 26.7987C30.5551 30.9247 39.6932 28.4762 43.8192 21.3297Z" fill="#FF5C8A"/>
<path opacity="0.1" d="M37.6006 3.71153C34.8271 2.32524 31.6292 2.04982 28.6596 2.94149C25.6899 3.83317 23.1727 5.82469 21.6216 8.50946C20.0706 11.1942 19.6028 14.3698 20.3138 17.3878C21.0247 20.4057 22.8608 23.0385 25.4472 24.7487C23.9623 24.0065 22.6451 22.9684 21.5763 21.6982C20.5076 20.428 19.71 18.9526 19.2326 17.3628C18.7552 15.7729 18.6081 14.1022 18.8004 12.4534C18.9927 10.8046 19.5202 9.21253 20.3506 7.77517C21.181 6.33781 22.2966 5.08552 23.629 4.09533C24.9613 3.10514 26.4821 2.39798 28.0978 2.01735C29.7136 1.63672 31.3901 1.59067 33.0243 1.88202C34.6586 2.17337 36.2159 2.79597 37.6006 3.71153Z" fill="#1C2D5E"/>
<path opacity="0.1" d="M36.865 13.3849C36.3754 13.0277 35.7163 12.8596 34.8875 12.8806C35.2972 12.626 35.633 12.2683 35.8611 11.8432C36.1381 11.2811 36.1946 10.6357 36.0194 10.0341C35.9296 9.66945 35.7619 9.32853 35.528 9.03471C35.2941 8.74089 34.9994 8.50112 34.6642 8.33181C33.9663 7.96802 33.0954 7.92599 32.0513 8.20574L31.409 8.37786L30.9212 6.55742L29.7059 6.88307L30.1936 8.70351L28.6867 9.10731L28.1989 7.28686L26.9848 7.61217L27.4726 9.43261L24.8325 10.14L25.4208 12.3356L26.3702 12.0812L28.0973 18.5266L27.1479 18.781L27.7362 20.9766L30.3763 20.2692L30.8641 22.0896L32.0781 21.7643L31.5903 19.9439L33.0973 19.5401L33.5851 21.3606L34.8004 21.0349L34.3126 19.2145L34.4668 19.1731C34.963 19.0153 35.4506 18.8317 35.9278 18.6233C36.4752 18.3986 36.8675 18.1668 37.1046 17.928C37.482 17.5555 37.7534 17.0892 37.8911 16.5771C38.0292 16.0452 38.022 15.486 37.8703 14.9579C37.6898 14.2673 37.3547 13.7429 36.865 13.3849ZM29.749 11.1759L31.2277 10.7796C31.7356 10.6436 32.1153 10.6368 32.3666 10.7595C32.4946 10.8245 32.6064 10.9173 32.6938 11.0311C32.7813 11.1449 32.8421 11.2768 32.8719 11.4172C32.92 11.5593 32.9361 11.7102 32.9191 11.8592C32.9021 12.0082 32.8525 12.1517 32.7738 12.2793C32.6182 12.5138 32.2787 12.7012 31.7554 12.8414L30.2998 13.2314L29.749 11.1759ZM34.2867 16.4042C34.1051 16.6722 33.7261 16.8834 33.1497 17.0379L31.4423 17.4954L30.8523 15.2934L32.552 14.838C33.1395 14.6805 33.5758 14.6678 33.8609 14.7998C33.9996 14.8622 34.1222 14.9557 34.219 15.073C34.3159 15.1903 34.3844 15.3283 34.4195 15.4763C34.4696 15.6308 34.4837 15.7948 34.4607 15.9557C34.4377 16.1165 34.3782 16.2699 34.2867 16.4042Z" fill="#1C2D5E"/>
<path d="M36.4577 13.4918C35.9682 13.1346 35.309 12.9665 34.4802 12.9876C34.8902 12.7326 35.2263 12.3748 35.4552 11.9497C35.7311 11.3875 35.7871 10.7424 35.6122 10.141C35.5223 9.77638 35.3547 9.43547 35.1208 9.14165C34.8869 8.84783 34.5922 8.60805 34.2569 8.43875C33.5591 8.07495 32.6882 8.03293 31.6441 8.31268L31.0018 8.4848L30.514 6.66435L29.2999 6.98966L29.7877 8.8101L28.2794 9.21424L27.7917 7.3938L26.5776 7.7191L27.0654 9.53955L24.4253 10.247L25.0136 12.4425L25.963 12.1881L27.69 18.6336L26.7406 18.888L27.3289 21.0835L29.969 20.3761L30.4568 22.1966L31.6709 21.8713L31.1831 20.0508L32.6914 19.6467L33.1791 21.4671L34.3932 21.1418L33.9054 19.3214L34.0596 19.2801C34.5557 19.1222 35.0434 18.9387 35.5205 18.7303C36.0672 18.5058 36.4594 18.274 36.6974 18.0349C37.0751 17.6627 37.3466 17.1963 37.4838 16.684C37.622 16.1522 37.6148 15.593 37.463 15.0648C37.2826 14.3742 36.9475 13.8499 36.4577 13.4918ZM29.3418 11.2828L30.8205 10.8866C31.3284 10.7505 31.708 10.7438 31.9594 10.8665C32.0873 10.9314 32.1992 11.0242 32.2866 11.138C32.374 11.2518 32.4349 11.3838 32.4647 11.5242C32.5127 11.6663 32.5288 11.8172 32.5119 11.9662C32.4949 12.1152 32.4453 12.2586 32.3666 12.3863C32.2101 12.621 31.8706 12.8083 31.3482 12.9483L29.8926 13.3383L29.3418 11.2828ZM33.8794 16.5111C33.6979 16.7791 33.3189 16.9904 32.7425 17.1448L31.0351 17.6023L30.4451 15.4003L32.1448 14.9449C32.7315 14.7877 33.1678 14.775 33.4537 14.9067C33.5926 14.9689 33.7153 15.0623 33.8121 15.1796C33.909 15.297 33.9775 15.4351 34.0122 15.5832C34.0624 15.7378 34.0765 15.9018 34.0535 16.0626C34.0305 16.2234 33.9709 16.3768 33.8794 16.5111Z" fill="white"/>
<path d="M80.8489 -1.55675L78.9189 -2.14746L72.9081 17.4915L74.8381 18.0822C76.1276 18.4769 77.4822 18.6137 78.8246 18.4849C80.167 18.356 81.4709 17.9641 82.6618 17.3313C83.8527 16.6986 84.9073 15.8375 85.7654 14.7971C86.6235 13.7568 87.2683 12.5577 87.663 11.2682C88.0577 9.97865 88.1945 8.62403 88.0656 7.28164C87.9368 5.93924 87.5448 4.63537 86.9121 3.44447C86.2793 2.25356 85.4182 1.19895 84.3779 0.340839C83.3376 -0.517272 82.1384 -1.16208 80.8489 -1.55675Z" fill="#FF5C8A"/>
<path opacity="0.1" d="M80.8489 -1.55675L78.9189 -2.14746L72.9081 17.4915L74.8381 18.0822C76.1276 18.4769 77.4822 18.6137 78.8246 18.4849C80.167 18.356 81.4709 17.9641 82.6618 17.3313C83.8527 16.6986 84.9073 15.8375 85.7654 14.7971C86.6235 13.7568 87.2683 12.5577 87.663 11.2682C88.0577 9.97865 88.1945 8.62403 88.0656 7.28164C87.9368 5.93924 87.5448 4.63537 86.9121 3.44447C86.2793 2.25356 85.4182 1.19895 84.3779 0.340839C83.3376 -0.517272 82.1384 -1.16208 80.8489 -1.55675Z" fill="#1C2D5E"/>
<path d="M80.7325 16.741C85.7409 14.08 87.6438 7.86262 84.9828 2.85418C82.3217 -2.15427 76.1044 -4.0572 71.0959 -1.39615C66.0875 1.26491 64.1846 7.48226 66.8456 12.4907C69.5067 17.4992 75.724 19.4021 80.7325 16.741Z" fill="#FF5C8A"/>
<path opacity="0.1" d="M83.5276 4.20771C82.4166 2.38928 80.6534 1.06349 78.598 0.501019C76.5426 -0.0614495 74.35 0.181823 72.4679 1.18117C70.5857 2.18051 69.156 3.86056 68.4706 5.87831C67.7852 7.89606 67.8958 10.0993 68.7798 12.0383C68.185 11.0648 67.7956 9.97981 67.6357 8.8502C67.4757 7.7206 67.5485 6.57021 67.8497 5.46979C68.1508 4.36937 68.6739 3.34219 69.3867 2.45143C70.0996 1.56067 70.9871 0.825153 71.9947 0.290127C73.0024 -0.244898 74.1088 -0.568123 75.246 -0.659668C76.3832 -0.751212 77.5271 -0.609141 78.6074 -0.242193C79.6876 0.124756 80.6814 0.708824 81.5276 1.47409C82.3737 2.23935 83.0544 3.16963 83.5276 4.20771Z" fill="#1C2D5E"/>
<path opacity="0.1" d="M79.5743 9.57616C79.4192 9.18964 79.0963 8.8515 78.6057 8.56177C78.9373 8.56269 79.2633 8.47655 79.5511 8.31197C79.9173 8.08537 80.1854 7.72985 80.3026 7.31545C80.3831 7.0702 80.4096 6.81046 80.3803 6.554C80.3511 6.29754 80.2667 6.05044 80.1331 5.82962C79.859 5.36334 79.3668 5.0215 78.6564 4.80409L78.2194 4.67032L78.5985 3.43174L77.7716 3.17866L77.3925 4.41724L76.3672 4.10343L76.7463 2.86485L75.9203 2.61203L75.5412 3.85061L73.7449 3.30083L73.2877 4.79465L73.9337 4.99236L72.5915 9.37765L71.9455 9.17994L71.4883 10.6738L73.2846 11.2235L72.9055 12.4621L73.7315 12.7149L74.1106 11.4763L75.1359 11.7902L74.7568 13.0287L75.5837 13.2818L75.9628 12.0432L76.0677 12.0753C76.4143 12.1641 76.7654 12.2349 77.1194 12.2873C77.5203 12.3558 77.8333 12.3637 78.0585 12.3109C78.4142 12.2313 78.7423 12.0586 79.009 11.8103C79.2833 11.5507 79.4829 11.2222 79.587 10.8591C79.7334 10.3909 79.7292 9.96327 79.5743 9.57616ZM76.2325 5.69596L77.2386 6.00389C77.5842 6.10965 77.8078 6.24407 77.9096 6.40714C77.9605 6.49163 77.9918 6.58645 78.0013 6.68463C78.0108 6.78282 77.9982 6.88188 77.9644 6.97455C77.9406 7.07484 77.895 7.16866 77.8308 7.24931C77.7666 7.32996 77.6855 7.39548 77.5931 7.44118C77.417 7.52111 77.1509 7.50658 76.7948 7.39761L75.8045 7.0945L76.2325 5.69596ZM76.9717 10.3961C76.7682 10.4862 76.4704 10.4712 76.0782 10.3511L74.9165 9.99559L75.3751 8.49741L76.5315 8.85135C76.9313 8.9737 77.1901 9.12527 77.3082 9.30606C77.3663 9.39297 77.4036 9.49209 77.4173 9.59573C77.431 9.69938 77.4207 9.80479 77.3871 9.90381C77.3601 10.0121 77.3085 10.1128 77.2365 10.1982C77.1645 10.2835 77.0739 10.3512 76.9717 10.3961Z" fill="#1C2D5E"/>
<path d="M79.2979 9.49071C79.1428 9.10419 78.82 8.76606 78.3293 8.47632C78.6611 8.47709 78.9873 8.39107 79.2756 8.22678C79.6413 7.99969 79.909 7.6442 80.0262 7.23C80.1067 6.98475 80.1332 6.72501 80.104 6.46855C80.0747 6.21209 79.9904 5.96499 79.8567 5.74417C79.5826 5.2779 79.0904 4.93605 78.3801 4.71864L77.943 4.58487L78.3221 3.34629L77.4961 3.09348L77.117 4.33206L76.0908 4.01798L76.4699 2.7794L75.6439 2.52658L75.2648 3.76516L73.4686 3.21539L73.0114 4.7092L73.6573 4.90691L72.3151 9.2922L71.6692 9.09449L71.212 10.5883L73.0082 11.1381L72.6291 12.3767L73.4551 12.6295L73.8342 11.3909L74.8604 11.705L74.4813 12.9436L75.3073 13.1964L75.6864 11.9578L75.7913 11.9899C76.138 12.0787 76.489 12.1494 76.843 12.2019C77.2433 12.2702 77.5564 12.2781 77.7822 12.2255C78.1379 12.1462 78.4661 11.9734 78.7327 11.7248C79.007 11.4652 79.2066 11.1367 79.3106 10.7737C79.4571 10.3055 79.4529 9.87782 79.2979 9.49071ZM75.9562 5.61051L76.9622 5.91844C77.3078 6.0242 77.5314 6.15862 77.6332 6.32169C77.6841 6.40618 77.7155 6.501 77.7249 6.59918C77.7344 6.69737 77.7218 6.79643 77.688 6.8891C77.6642 6.98939 77.6186 7.08321 77.5545 7.16386C77.4903 7.24451 77.4091 7.31003 77.3167 7.35573C77.14 7.43548 76.8739 7.42096 76.5184 7.31216L75.5281 7.00905L75.9562 5.61051ZM76.6953 10.3107C76.4918 10.4007 76.194 10.3857 75.8018 10.2657L74.6402 9.91014L75.0987 8.41196L76.2551 8.7659C76.6543 8.88807 76.9132 9.03964 77.0318 9.22061C77.0901 9.30744 77.1275 9.40656 77.1412 9.51024C77.1549 9.61393 77.1445 9.71937 77.1108 9.81836C77.0837 9.9267 77.0322 10.0274 76.9602 10.1127C76.8881 10.1981 76.7975 10.2658 76.6953 10.3107Z" fill="white"/>
</g>
<defs>
<clipPath id="clip0_3320_49764">
<rect width="100" height="100" fill="white" transform="translate(0 -10.5)"/>
</clipPath>
</defs>
</svg>
