<svg width="106" height="106" viewBox="0 0 106 106" fill="none" xmlns="http://www.w3.org/2000/svg">
<g clip-path="url(#clip0_15355_92228)">
<path opacity="0.1" d="M76.3343 41.6284C56.1734 75.6025 -16.1777 65.5311 5.73654 122.238C26.1035 174.935 94.5626 160.237 126.707 128.431C161.897 93.613 157.624 32.5723 124.262 -3.69074C114.28 -14.538 89.5211 -28.3405 78.187 -12.1222C67.0185 3.78623 88.369 21.3212 76.3343 41.6284Z" fill="white"/>
<path d="M85.2168 44.2301C79.3846 40.2464 76.7473 36.1432 76.2374 31.1954C77.2174 36.438 80.3486 40.597 87.344 44.1106C87.3999 44.1423 87.4631 44.1588 87.5273 44.1584C87.6176 44.1588 87.7054 44.1285 87.7762 44.0724C87.847 44.0164 87.8967 43.9379 87.9171 43.8499C87.9374 43.7619 87.9273 43.6696 87.8883 43.5882C87.8494 43.5067 87.7839 43.4409 87.7026 43.4015C77.8628 38.4617 75.9586 32.4144 76.8589 23.4112C77.1138 22.224 77.4326 21.021 77.815 19.7143C81.002 8.83076 63.2505 6.64768 57.6972 8.91043C44.0489 14.4876 48.2398 29.9843 52.12 35.8245C56.0001 41.6646 43.0211 45.5846 50.2715 62.2923C57.5219 79.0001 81.6394 78.5858 88.5153 69.9012C95.3912 61.2167 94.9848 50.9626 85.2168 44.2301Z" fill="#263238"/>
<path d="M49.6009 50.5264C49.5212 51.6179 49.4335 52.566 49.2981 53.562C49.1626 54.5579 49.0192 55.522 48.8599 56.494C48.5412 58.446 48.0631 60.3741 47.6409 62.2943C46.7063 66.1715 45.4072 69.9516 43.7607 73.5842L43.45 74.2694C43.3305 74.5084 43.2827 74.6518 43.0357 75.1219C42.5634 75.9726 41.8872 76.6927 41.0677 77.2173C40.3108 77.6902 39.4597 77.9921 38.5739 78.1017C37.8702 78.1896 37.1583 78.1896 36.4546 78.1017C34.2593 77.7553 32.1438 77.0186 30.2081 75.9266C26.724 74.0219 23.4705 71.7228 20.5117 69.0746L22.4797 66.4214C24.0731 67.3218 25.7224 68.238 27.3637 69.0666C28.9718 69.9039 30.6265 70.6488 32.3195 71.2975C33.7867 71.9246 35.3434 72.3171 36.9326 72.4608C37.5541 72.4608 37.9285 72.2855 37.817 72.2855C37.7054 72.2855 37.7294 72.3412 37.7373 72.2855L38.1437 71.2099C39.4201 67.8159 40.4454 64.3327 41.2111 60.7885C41.6095 59.0037 41.9282 57.1951 42.231 55.3945C42.5337 53.5938 42.7727 51.7295 42.948 50.0483L49.6009 50.5264Z" fill="#FFB573"/>
<path d="M45.0689 42.5524C42.3759 43.2217 40.5195 54.2964 40.5195 54.2964L47.9292 59.3319C47.9292 59.3319 55.0362 48.1774 52.9647 45.2215C50.7896 42.1381 48.9889 41.5485 45.0689 42.5524Z" fill="#FF5C8A"/>
<path opacity="0.2" d="M45.0689 42.5524C42.3759 43.2217 40.5195 54.2964 40.5195 54.2964L47.9292 59.3319C47.9292 59.3319 55.0362 48.1774 52.9647 45.2215C50.7896 42.1381 48.9889 41.5485 45.0689 42.5524Z" fill="black"/>
<path opacity="0.2" d="M45.3097 45.0215L43.2461 56.1679L47.4051 58.9964L45.3097 45.0215Z" fill="black"/>
<path d="M23.5801 66.8676L19.5964 60.6211L17.3496 66.8596C17.3496 66.8596 20.1143 70.0466 22.7515 69.3853L23.5801 66.8676Z" fill="#FFB573"/>
<path d="M15.3426 58.2793L12.6895 63.1633L17.3424 66.8602L19.5893 60.6217L15.3426 58.2793Z" fill="#FFB573"/>
<path d="M45.0708 42.5516C45.0708 42.5516 41.9634 43.6432 48.186 81.9188H74.6778C74.2316 71.1388 74.2237 64.486 79.3706 42.3604C75.6619 41.592 71.9018 41.0967 68.1206 40.8784C64.1181 40.5913 60.1002 40.5913 56.0977 40.8784C50.9268 41.3485 45.0708 42.5516 45.0708 42.5516Z" fill="#FF5C8A"/>
<path opacity="0.2" d="M45.0708 42.5516C45.0708 42.5516 41.9634 43.6432 48.186 81.9188H74.6778C74.2316 71.1388 74.2237 64.486 79.3706 42.3604C75.6619 41.592 71.9018 41.0967 68.1206 40.8784C64.1181 40.5913 60.1002 40.5913 56.0977 40.8784C50.9268 41.3485 45.0708 42.5516 45.0708 42.5516Z" fill="black"/>
<path d="M68.1206 40.8784C64.1181 40.5913 60.1002 40.5913 56.0977 40.8784C54.6476 41.0059 53.1497 41.1971 51.7475 41.3963C51.126 43.7228 51.2535 46.9735 53.6198 51.2282L54.9902 53.6742L57.5956 52.6304C59.5237 51.8337 69.2838 47.7304 72.415 42.6472L73.2118 41.3326C71.6501 41.1334 69.9053 40.9661 68.1206 40.8784Z" fill="white"/>
<path d="M68.1182 40.8782C65.4173 38.2967 66.1742 31.1977 66.9311 27.3335L59.5453 33.6597C60.2942 36.6713 60.4057 39.8663 56.0953 40.9021L55.2986 40.9817C54.3345 42.7983 54.0955 45.6029 56.3981 49.7459C56.3981 49.7459 66.947 45.4913 69.6958 41.0455C69.2018 40.9419 68.6521 40.9021 68.1182 40.8782Z" fill="#FFB573"/>
<path opacity="0.2" d="M63.921 29.9082L59.5469 33.6609C59.7365 34.3597 59.8618 35.0745 59.9213 35.7961C61.5706 35.5571 63.8334 33.7485 64.0087 32.0196C64.111 31.3165 64.0813 30.6004 63.921 29.9082V29.9082Z" fill="black"/>
<path d="M71.8084 21.1523C69.8723 27.335 69.1871 29.9882 65.2273 32.4262C59.2677 36.0992 52.097 32.3705 52.1448 25.7415C52.1846 19.7739 55.3317 10.6671 62.0961 9.68714C63.5846 9.4644 65.1053 9.62558 66.5141 10.1554C67.9228 10.6852 69.1729 11.5661 70.1457 12.7145C71.1186 13.8629 71.7819 15.2408 72.0729 16.7174C72.3639 18.1941 72.2729 19.7207 71.8084 21.1523V21.1523Z" fill="#FFB573"/>
<path d="M73.0419 12.1481C70.9227 10.1969 68.1763 9.06667 65.2976 8.96117C64.8978 8.60628 64.4012 8.37879 63.8714 8.30783C60.8677 7.69434 57.4974 8.50703 55.9597 10.4113C54.5813 12.1482 59.2742 13.168 62.6444 11.7896C63.1304 17.1119 67.6241 28.0591 71.9105 27.0712C77.5117 25.7964 77.5595 16.3311 73.0419 12.1481Z" fill="#263238"/>
<path d="M48.1837 81.9193C48.1837 81.9193 43.0367 132.17 43.467 152.033C43.9131 172.748 51.4902 219.907 51.4902 219.907H60.3101C60.3101 219.907 58.9158 173.927 59.6966 153.61C60.5492 131.453 67.5844 81.9033 67.5844 81.9033L48.1837 81.9193Z" fill="#1C2D5E"/>
<path opacity="0.2" d="M59.6407 94.4199C53.1313 107.51 58.3341 131.389 60.6367 140.273C61.8159 126.935 63.8237 110.618 65.3534 98.6427C64.3416 91.8704 62.6126 88.3886 59.6407 94.4199Z" fill="black"/>
<path d="M55.1797 81.9189C55.1797 81.9189 61.1792 134.161 65.7127 150.933C71.0907 170.852 97.8135 201.717 97.8135 201.717L105.606 197.431C105.606 197.431 87.0734 162.773 82.9542 152.279C74.19 129.891 81.6954 96.5073 74.676 81.9189H55.1797Z" fill="#1C2D5E"/>
<path d="M61.3842 20.3551C61.2647 20.865 60.8902 21.2076 60.5875 21.1518C60.2847 21.096 60.0855 20.5861 60.213 20.0762C60.3405 19.5663 60.707 19.2157 61.0097 19.2794C61.3125 19.3432 61.5117 19.8372 61.3842 20.3551Z" fill="#1C2D5E"/>
<path d="M55.6581 18.9281C55.5306 19.4381 55.1561 19.7886 54.8215 19.7249C54.4869 19.6611 54.3196 19.1672 54.447 18.6572C54.5745 18.1473 54.941 17.7968 55.2438 17.8605C55.5465 17.9242 55.7377 18.4182 55.6581 18.9281Z" fill="#1C2D5E"/>
<path d="M55.3796 17.9165L54.2402 17.2632C54.2402 17.2632 54.6306 18.3786 55.3796 17.9165Z" fill="#1C2D5E"/>
<path d="M57.1722 20.2915C56.4297 21.3435 55.5449 22.2873 54.543 23.096C54.7572 23.3471 55.0236 23.5484 55.3235 23.686C55.6235 23.8236 55.9498 23.8942 56.2799 23.8928L57.1722 20.2915Z" fill="#ED893E"/>
<path d="M58.5749 26.5768C58.3065 26.554 58.0402 26.5114 57.7781 26.4493C57.7579 26.4447 57.7388 26.436 57.722 26.4238C57.7053 26.4115 57.6912 26.3959 57.6808 26.378C57.6703 26.36 57.6637 26.3401 57.6612 26.3195C57.6588 26.2989 57.6606 26.278 57.6666 26.2581C57.6712 26.2387 57.6797 26.2205 57.6914 26.2044C57.7032 26.1883 57.718 26.1746 57.735 26.1643C57.7521 26.1539 57.771 26.147 57.7907 26.144C57.8104 26.1409 57.8305 26.1418 57.8498 26.1466C58.484 26.3134 59.1486 26.3282 59.7896 26.1898C60.4306 26.0513 61.0299 25.7635 61.5388 25.3498C61.5522 25.3346 61.5688 25.3223 61.5873 25.314C61.6059 25.3056 61.626 25.3013 61.6463 25.3013C61.6667 25.3013 61.6868 25.3056 61.7053 25.314C61.7239 25.3223 61.7404 25.3346 61.7539 25.3498C61.7681 25.3639 61.7794 25.3807 61.7871 25.3991C61.7948 25.4176 61.7987 25.4374 61.7987 25.4574C61.7987 25.4774 61.7948 25.4972 61.7871 25.5157C61.7794 25.5341 61.7681 25.5509 61.7539 25.5649C61.3171 25.9352 60.8113 26.2153 60.2656 26.389C59.72 26.5627 59.1453 26.6265 58.5749 26.5768V26.5768Z" fill="#1C2D5E"/>
<path d="M72.0855 27.3259C71.3776 28.3592 70.2888 29.0698 69.0579 29.3018C67.4246 29.5886 66.7633 28.0908 67.3528 26.6327C67.8787 25.3181 69.3606 23.5892 70.9382 23.9557C71.2804 24.0435 71.5953 24.2152 71.8546 24.4553C72.1138 24.6953 72.3092 24.9961 72.423 25.3306C72.5369 25.665 72.5656 26.0226 72.5067 26.3709C72.4478 26.7193 72.303 27.0475 72.0855 27.3259V27.3259Z" fill="#FFB573"/>
<path d="M64.0008 19.7493C63.935 19.7443 63.8724 19.7184 63.8223 19.6754C63.7721 19.6325 63.737 19.5746 63.7219 19.5103C63.4032 18.116 61.7062 17.4069 61.6902 17.3989C61.6519 17.384 61.6168 17.3616 61.5872 17.333C61.5576 17.3044 61.5339 17.2703 61.5176 17.2324C61.5013 17.1946 61.4927 17.154 61.4922 17.1128C61.4918 17.0716 61.4995 17.0308 61.515 16.9926C61.5483 16.9179 61.609 16.8589 61.6847 16.8277C61.7603 16.7966 61.845 16.7957 61.9213 16.8253C62.001 16.8253 63.9371 17.6698 64.3115 19.3669C64.321 19.4067 64.3225 19.4479 64.316 19.4883C64.3096 19.5286 64.2952 19.5673 64.2737 19.6021C64.2522 19.6369 64.2241 19.6671 64.191 19.691C64.1578 19.7149 64.1203 19.732 64.0805 19.7414L64.0008 19.7493Z" fill="#1C2D5E"/>
<path d="M54.5357 15.8378C54.4837 15.8301 54.4342 15.8102 54.3913 15.7797C54.3483 15.7492 54.3132 15.7091 54.2887 15.6625C54.253 15.5885 54.248 15.5034 54.2749 15.4257C54.3018 15.3481 54.3583 15.2843 54.4321 15.2482C54.8678 15.0219 55.3515 14.9038 55.8424 14.9038C56.3333 14.9038 56.817 15.0219 57.2526 15.2482C57.3217 15.2911 57.3712 15.3593 57.3906 15.4382C57.4099 15.5171 57.3976 15.6005 57.3562 15.6705C57.3357 15.7055 57.3084 15.736 57.2759 15.7603C57.2434 15.7845 57.2064 15.802 57.167 15.8117C57.1276 15.8213 57.0867 15.823 57.0466 15.8165C57.0066 15.8101 56.9683 15.7956 56.9339 15.7741V15.7741C56.5885 15.5978 56.2063 15.5059 55.8185 15.5059C55.4307 15.5059 55.0484 15.5978 54.703 15.7741C54.6526 15.8072 54.5955 15.829 54.5357 15.8378V15.8378Z" fill="#1C2D5E"/>
<path d="M82.4187 49.9541C83.2155 53.9378 83.8051 57.802 84.2592 61.7698C84.4982 63.7458 84.6735 65.7536 84.809 67.7454C84.8807 68.7413 84.9205 69.7532 84.9603 70.7651L85.0002 72.2869V72.9004C85.0002 73.0916 85.0002 73.2828 85.0002 73.474C84.8992 74.368 84.5138 75.2059 83.9007 75.8642C83.4285 76.3562 82.851 76.7348 82.2116 76.9717C81.796 77.1353 81.3629 77.2503 80.9208 77.3143C80.2565 77.414 79.5838 77.446 78.9131 77.4099C77.8002 77.3511 76.6927 77.2153 75.5986 77.0036C73.5875 76.5995 71.6005 76.0835 69.6469 75.4579C67.7347 74.8444 65.8544 74.1831 63.99 73.4899C62.1256 72.7968 60.3011 72.0239 58.4766 71.1794L59.584 68.0721C61.4484 68.5262 63.3447 69.0043 65.2329 69.4265C67.1212 69.8488 69.0016 70.295 70.8739 70.6535C72.7463 71.0121 74.6186 71.3467 76.4511 71.53C77.2917 71.6303 78.1384 71.6702 78.9848 71.6495C79.2935 71.6479 79.6009 71.6105 79.901 71.5379C80.0126 71.5379 80.0444 71.4821 80.0205 71.4901C79.8415 71.5506 79.682 71.6579 79.5584 71.8008C79.2837 72.0955 79.1081 72.4689 79.0565 72.8685C79.0446 72.937 79.0446 73.0071 79.0565 73.0756C79.0565 73.0756 79.0565 72.98 79.0565 72.9402V72.5896L78.929 71.1794L78.6183 68.343C78.3872 66.4467 78.1243 64.5425 77.8215 62.6383C77.5188 60.7341 77.2319 58.8298 76.9132 56.9256C76.5945 55.0214 76.2679 53.1092 75.9492 51.2448L82.4187 49.9541Z" fill="#FFB573"/>
<path d="M79.3705 42.3607C82.0316 43.1574 85.2186 52.3041 85.2186 52.3041L74.9167 59.666C74.9167 59.666 71.164 52.0411 72.2794 48.6072C73.4427 45.0378 76.3747 41.4365 79.3705 42.3607Z" fill="#FF5C8A"/>
<path opacity="0.2" d="M79.3705 42.3607C82.0316 43.1574 85.2186 52.3041 85.2186 52.3041L74.9167 59.666C74.9167 59.666 71.164 52.0411 72.2794 48.6072C73.4427 45.0378 76.3747 41.4365 79.3705 42.3607Z" fill="black"/>
<path d="M61.155 19.3179L60.0156 18.6646C60.0156 18.6646 60.4379 19.7959 61.155 19.3179Z" fill="#1C2D5E"/>
<path d="M75.0741 80.3649L75.7513 82.7552C75.8389 82.9464 75.6238 83.1296 75.3211 83.1296H48.0485C47.8095 83.1296 47.6183 83.0101 47.6023 82.8667L47.3633 80.4765C47.3633 80.3092 47.5545 80.1737 47.8095 80.1737H74.6438C74.7259 80.1665 74.8084 80.1803 74.8837 80.2138C74.9589 80.2472 75.0244 80.2992 75.0741 80.3649V80.3649Z" fill="#FF5C8A"/>
<path d="M71.4734 83.3612H72.1905C72.3339 83.3612 72.4375 83.2895 72.4295 83.2019L72.0949 80.1185C72.0949 80.0308 71.9594 79.9512 71.816 79.9512H71.099C70.9555 79.9512 70.844 80.0308 70.852 80.1185L71.1946 83.2019C71.2025 83.2895 71.33 83.3612 71.4734 83.3612Z" fill="#1C2D5E"/>
<path d="M50.0818 83.3612H50.7989C50.9423 83.3612 51.0538 83.2895 51.0379 83.2019L50.7033 80.1185C50.7033 80.0308 50.5678 79.9512 50.4244 79.9512H49.7073C49.5639 79.9512 49.4524 80.0308 49.4683 80.1185L49.8029 83.2019C49.8029 83.2895 49.9304 83.3612 50.0818 83.3612Z" fill="#1C2D5E"/>
<path d="M60.7724 83.3612H61.4895C61.6329 83.3612 61.7445 83.2895 61.7285 83.2019L61.3939 80.1185C61.3939 80.0308 61.2584 79.9512 61.115 79.9512H60.4378C60.2944 79.9512 60.1828 80.0308 60.1988 80.1185L60.5334 83.2019C60.5015 83.2895 60.629 83.3612 60.7724 83.3612Z" fill="#1C2D5E"/>
<path d="M35.6282 90.9224C47.4782 90.9224 57.0846 81.3161 57.0846 69.4661C57.0846 57.6161 47.4782 48.0098 35.6282 48.0098C23.7782 48.0098 14.1719 57.6161 14.1719 69.4661C14.1719 81.3161 23.7782 90.9224 35.6282 90.9224Z" fill="#FF5C8A"/>
<path opacity="0.4" d="M35.6282 90.9224C47.4782 90.9224 57.0846 81.3161 57.0846 69.4661C57.0846 57.6161 47.4782 48.0098 35.6282 48.0098C23.7782 48.0098 14.1719 57.6161 14.1719 69.4661C14.1719 81.3161 23.7782 90.9224 35.6282 90.9224Z" fill="black"/>
<path d="M18.0816 67.1233C17.677 70.0421 18.0168 73.0158 19.0695 75.768C20.5982 79.8039 23.5484 83.1424 27.3656 85.1559C31.1827 87.1694 35.6039 87.7192 39.798 86.702C43.9921 85.6849 47.6702 83.1707 50.1408 79.6322C52.6115 76.0938 53.7045 71.7747 53.2145 67.4869C52.7245 63.1992 50.6851 59.2381 47.4798 56.3483C44.2745 53.4585 40.124 51.8391 35.8086 51.7944C31.4931 51.7497 27.31 53.283 24.0456 56.1058C20.7811 58.9286 18.6602 62.8466 18.0816 67.1233V67.1233Z" fill="#FF5C8A"/>
<path d="M60.3269 68.2081L55.3951 63.1807L54.7656 69.7857C54.7656 69.7857 58.2315 72.1759 60.6376 70.8852L60.3269 68.2081Z" fill="#FFB573"/>
<path d="M49.9555 62.4629L49.7324 68.0242L54.7679 69.785L55.3973 63.18L49.9555 62.4629Z" fill="#FFB573"/>
<path d="M11.0686 47.7138C10.9792 47.7309 10.8872 47.7284 10.7989 47.7064C10.7105 47.6844 10.6281 47.6434 10.5572 47.5862C10.4864 47.5291 10.4288 47.4572 10.3885 47.3756C10.3483 47.294 10.3263 47.2045 10.3241 47.1135L10.2978 45.8995C10.296 45.8596 10.2849 45.8206 10.2653 45.7857C10.2458 45.7508 10.2184 45.7209 10.1853 45.6985L9.16644 45.0328C9.06853 44.9693 8.99043 44.8796 8.94106 44.7738C8.89169 44.668 8.87304 44.5505 8.88723 44.4347C8.90141 44.3188 8.94787 44.2093 9.0213 44.1186C9.09472 44.0279 9.19217 43.9596 9.30252 43.9216L10.4506 43.5197C10.488 43.5058 10.5216 43.4833 10.5486 43.4539C10.5756 43.4246 10.5952 43.3892 10.606 43.3508L10.9222 42.1774C10.9514 42.0625 11.0127 41.9582 11.0988 41.8767C11.185 41.7952 11.2925 41.7399 11.4088 41.7171C11.5252 41.6943 11.6457 41.705 11.7562 41.7479C11.8667 41.7909 11.9628 41.8643 12.0333 41.9597L12.7689 42.927C12.7938 42.9589 12.826 42.9844 12.8628 43.0012C12.8996 43.0181 12.9398 43.0259 12.9803 43.024L14.1936 42.9747C14.3101 42.9683 14.4261 42.9947 14.5284 43.051C14.6306 43.1073 14.715 43.1912 14.7718 43.2931C14.8287 43.3951 14.8558 43.5109 14.85 43.6275C14.8442 43.744 14.8057 43.8566 14.739 43.9524L14.0306 44.9296C14.0082 44.9628 13.9943 45.0008 13.99 45.0405C13.9857 45.0802 13.9912 45.1204 14.006 45.1575L14.436 46.2924C14.4777 46.4013 14.4881 46.5196 14.4658 46.6341C14.4436 46.7485 14.3896 46.8544 14.3102 46.9397C14.2307 47.025 14.1289 47.0863 14.0163 47.1166C13.9038 47.1469 13.785 47.1449 13.6734 47.111L12.509 46.7623C12.4707 46.75 12.4298 46.7475 12.3903 46.7553C12.3508 46.763 12.3139 46.7807 12.2831 46.8066L11.3357 47.5653C11.2604 47.6363 11.1686 47.6874 11.0686 47.7138V47.7138ZM11.4798 42.0989C11.4341 42.1063 11.3915 42.1269 11.3573 42.1582C11.3231 42.1895 11.2988 42.2301 11.2874 42.275L10.9675 43.4492C10.9416 43.547 10.8922 43.6369 10.8237 43.7113C10.7552 43.7857 10.6696 43.8423 10.5743 43.8762L9.42622 44.2781C9.38293 44.2933 9.34475 44.3202 9.31601 44.356C9.28727 44.3917 9.26912 44.4348 9.26362 44.4803C9.25813 44.5258 9.26551 44.572 9.28492 44.6135C9.30433 44.6551 9.335 44.6904 9.37344 44.7154L10.3923 45.381C10.4769 45.437 10.5467 45.5127 10.5956 45.6016C10.6445 45.6905 10.6711 45.7899 10.6731 45.8914L10.7031 47.1046C10.704 47.1504 10.7176 47.1951 10.7425 47.2335C10.7674 47.272 10.8025 47.3027 10.844 47.3222C10.8854 47.3417 10.9315 47.3492 10.977 47.3438C11.0225 47.3385 11.0655 47.3205 11.1013 47.292L12.0517 46.5289C12.1302 46.466 12.2227 46.423 12.3214 46.4037C12.4201 46.3844 12.522 46.3892 12.6184 46.4178L13.7865 46.7658C13.8305 46.7829 13.8785 46.787 13.9247 46.7776C13.9709 46.7681 14.0134 46.7455 14.0471 46.7126C14.0808 46.6796 14.1043 46.6376 14.1148 46.5916C14.1252 46.5456 14.1222 46.4975 14.106 46.4532L13.676 45.3183C13.6405 45.2235 13.628 45.1215 13.6398 45.0209C13.6515 44.9203 13.687 44.8239 13.7434 44.7398L14.4356 43.7388C14.4627 43.7013 14.4784 43.6568 14.481 43.6107C14.4835 43.5645 14.4728 43.5185 14.45 43.4783C14.4274 43.4383 14.394 43.4054 14.3537 43.3833C14.3133 43.3613 14.2676 43.3511 14.2217 43.3538L13.0069 43.415C12.9058 43.4195 12.8052 43.3994 12.7137 43.3564C12.6221 43.3133 12.5425 43.2486 12.4816 43.1679L11.7319 42.188C11.7036 42.1496 11.6645 42.1205 11.6195 42.1046C11.5746 42.0888 11.5259 42.0868 11.4798 42.0989V42.0989Z" fill="#FF5C8A"/>
<path opacity="0.5" d="M11.0686 47.7138C10.9792 47.7309 10.8872 47.7284 10.7989 47.7064C10.7105 47.6844 10.6281 47.6434 10.5572 47.5862C10.4864 47.5291 10.4288 47.4572 10.3885 47.3756C10.3483 47.294 10.3263 47.2045 10.3241 47.1135L10.2978 45.8995C10.296 45.8596 10.2849 45.8206 10.2653 45.7857C10.2458 45.7508 10.2184 45.7209 10.1853 45.6985L9.16644 45.0328C9.06853 44.9693 8.99043 44.8796 8.94106 44.7738C8.89169 44.668 8.87304 44.5505 8.88723 44.4347C8.90141 44.3188 8.94787 44.2093 9.0213 44.1186C9.09472 44.0279 9.19217 43.9596 9.30252 43.9216L10.4506 43.5197C10.488 43.5058 10.5216 43.4833 10.5486 43.4539C10.5756 43.4246 10.5952 43.3892 10.606 43.3508L10.9222 42.1774C10.9514 42.0625 11.0127 41.9582 11.0988 41.8767C11.185 41.7952 11.2925 41.7399 11.4088 41.7171C11.5252 41.6943 11.6457 41.705 11.7562 41.7479C11.8667 41.7909 11.9628 41.8643 12.0333 41.9597L12.7689 42.927C12.7938 42.9589 12.826 42.9844 12.8628 43.0012C12.8996 43.0181 12.9398 43.0259 12.9803 43.024L14.1936 42.9747C14.3101 42.9683 14.4261 42.9947 14.5284 43.051C14.6306 43.1073 14.715 43.1912 14.7718 43.2931C14.8287 43.3951 14.8558 43.5109 14.85 43.6275C14.8442 43.744 14.8057 43.8566 14.739 43.9524L14.0306 44.9296C14.0082 44.9628 13.9943 45.0008 13.99 45.0405C13.9857 45.0802 13.9912 45.1204 14.006 45.1575L14.436 46.2924C14.4777 46.4013 14.4881 46.5196 14.4658 46.6341C14.4436 46.7485 14.3896 46.8544 14.3102 46.9397C14.2307 47.025 14.1289 47.0863 14.0163 47.1166C13.9038 47.1469 13.785 47.1449 13.6734 47.111L12.509 46.7623C12.4707 46.75 12.4298 46.7475 12.3903 46.7553C12.3508 46.763 12.3139 46.7807 12.2831 46.8066L11.3357 47.5653C11.2604 47.6363 11.1686 47.6874 11.0686 47.7138V47.7138ZM11.4798 42.0989C11.4341 42.1063 11.3915 42.1269 11.3573 42.1582C11.3231 42.1895 11.2988 42.2301 11.2874 42.275L10.9675 43.4492C10.9416 43.547 10.8922 43.6369 10.8237 43.7113C10.7552 43.7857 10.6696 43.8423 10.5743 43.8762L9.42622 44.2781C9.38293 44.2933 9.34475 44.3202 9.31601 44.356C9.28727 44.3917 9.26912 44.4348 9.26362 44.4803C9.25813 44.5258 9.26551 44.572 9.28492 44.6135C9.30433 44.6551 9.335 44.6904 9.37344 44.7154L10.3923 45.381C10.4769 45.437 10.5467 45.5127 10.5956 45.6016C10.6445 45.6905 10.6711 45.7899 10.6731 45.8914L10.7031 47.1046C10.704 47.1504 10.7176 47.1951 10.7425 47.2335C10.7674 47.272 10.8025 47.3027 10.844 47.3222C10.8854 47.3417 10.9315 47.3492 10.977 47.3438C11.0225 47.3385 11.0655 47.3205 11.1013 47.292L12.0517 46.5289C12.1302 46.466 12.2227 46.423 12.3214 46.4037C12.4201 46.3844 12.522 46.3892 12.6184 46.4178L13.7865 46.7658C13.8305 46.7829 13.8785 46.787 13.9247 46.7776C13.9709 46.7681 14.0134 46.7455 14.0471 46.7126C14.0808 46.6796 14.1043 46.6376 14.1148 46.5916C14.1252 46.5456 14.1222 46.4975 14.106 46.4532L13.676 45.3183C13.6405 45.2235 13.628 45.1215 13.6398 45.0209C13.6515 44.9203 13.687 44.8239 13.7434 44.7398L14.4356 43.7388C14.4627 43.7013 14.4784 43.6568 14.481 43.6107C14.4835 43.5645 14.4728 43.5185 14.45 43.4783C14.4274 43.4383 14.394 43.4054 14.3537 43.3833C14.3133 43.3613 14.2676 43.3511 14.2217 43.3538L13.0069 43.415C12.9058 43.4195 12.8052 43.3994 12.7137 43.3564C12.6221 43.3133 12.5425 43.2486 12.4816 43.1679L11.7319 42.188C11.7036 42.1496 11.6645 42.1205 11.6195 42.1046C11.5746 42.0888 11.5259 42.0868 11.4798 42.0989V42.0989Z" fill="white"/>
<path d="M30.132 32.7323L30.6872 34.9964C30.717 35.1267 30.778 35.2478 30.8648 35.3493C30.9517 35.4508 31.0619 35.5298 31.186 35.5794L33.3633 36.4065C33.5084 36.4621 33.635 36.557 33.729 36.6807C33.823 36.8043 33.8806 36.9518 33.8953 37.1064C33.91 37.261 33.8813 37.4167 33.8123 37.5559C33.7433 37.695 33.6368 37.8122 33.5049 37.8941L31.526 39.1202C31.4111 39.1905 31.3152 39.288 31.2467 39.404C31.1783 39.52 31.1393 39.651 31.1334 39.7856L31.0207 42.1153C31.0135 42.2708 30.963 42.4212 30.8748 42.5495C30.7866 42.6778 30.6642 42.7789 30.5216 42.8413C30.3789 42.9036 30.2217 42.9248 30.0676 42.9024C29.9135 42.8801 29.7688 42.815 29.6497 42.7146L27.8703 41.2096C27.768 41.1213 27.6454 41.0597 27.5135 41.0305C27.3816 41.0013 27.2445 41.0054 27.1145 41.0423L24.8686 41.6516C24.7189 41.6915 24.5611 41.6889 24.4129 41.6441C24.2646 41.5993 24.1317 41.5141 24.0291 41.3981C23.9265 41.282 23.8583 41.1397 23.832 40.9871C23.8057 40.8344 23.8225 40.6775 23.8804 40.5338L24.7615 38.3767C24.8111 38.2543 24.8305 38.1218 24.8182 37.9904C24.8058 37.8589 24.762 37.7324 24.6904 37.6214L23.416 35.6713C23.3276 35.5414 23.2776 35.3893 23.2718 35.2324C23.266 35.0754 23.3047 34.92 23.3833 34.7841C23.462 34.6481 23.5774 34.5371 23.7163 34.4639C23.8553 34.3906 24.012 34.3581 24.1687 34.37L26.4907 34.5419C26.6249 34.5515 26.7595 34.5285 26.8829 34.4749C27.0063 34.4212 27.1149 34.3385 27.1995 34.2338L28.6573 32.4097C28.7538 32.2842 28.8839 32.1887 29.0326 32.1344C29.1813 32.08 29.3424 32.0692 29.497 32.103C29.6517 32.1368 29.7935 32.2139 29.9059 32.3254C30.0184 32.4368 30.0968 32.5779 30.132 32.7323V32.7323Z" fill="#FF5C8A"/>
<path d="M15.3534 30.0675L15.2733 31.2678C15.2697 31.3353 15.2825 31.4026 15.3106 31.4641C15.3388 31.5256 15.3813 31.5793 15.4347 31.6207L16.377 32.3668C16.4401 32.4167 16.488 32.4834 16.5151 32.5591C16.5423 32.6348 16.5476 32.7167 16.5306 32.7953C16.5136 32.874 16.4748 32.9463 16.4188 33.004C16.3627 33.0617 16.2916 33.1026 16.2135 33.1219L15.048 33.4157C14.9806 33.4337 14.9184 33.4676 14.8667 33.5145C14.8151 33.5614 14.7753 33.62 14.7509 33.6854L14.3335 34.8133C14.3027 34.8842 14.2535 34.9456 14.1911 34.9911C14.1286 35.0367 14.0551 35.0647 13.9782 35.0723C13.9013 35.0799 13.8237 35.0669 13.7535 35.0345C13.6833 35.0021 13.6231 34.9515 13.579 34.8881L12.939 33.8597C12.9011 33.8011 12.85 33.7524 12.7896 33.7174C12.7293 33.6824 12.6615 33.6622 12.5919 33.6585L11.39 33.6094C11.3092 33.6069 11.2308 33.5816 11.1637 33.5366C11.0966 33.4915 11.0435 33.4285 11.0106 33.3546C10.9776 33.2808 10.9662 33.1992 10.9775 33.1191C10.9888 33.0391 11.0224 32.9638 11.0745 32.902L11.8479 31.9813C11.8932 31.9264 11.9241 31.8611 11.938 31.7912C11.9518 31.7214 11.9481 31.6492 11.9272 31.5812L11.6038 30.4215C11.5862 30.3453 11.5898 30.2657 11.6141 30.1913C11.6384 30.117 11.6826 30.0506 11.7418 29.9995C11.801 29.9483 11.873 29.9143 11.9501 29.901C12.0272 29.8877 12.1065 29.8957 12.1794 29.9242L13.2975 30.3704C13.3626 30.3959 13.4327 30.4055 13.5022 30.3986C13.5718 30.3916 13.6386 30.3683 13.6974 30.3305L14.697 29.6616C14.7653 29.6205 14.8437 29.599 14.9234 29.5995C15.0031 29.6 15.0812 29.6224 15.149 29.6644C15.2168 29.7063 15.2718 29.7661 15.3079 29.8372C15.3439 29.9084 15.3597 29.988 15.3534 30.0675V30.0675Z" fill="#FF5C8A"/>
</g>
<defs>
<clipPath id="clip0_15355_92228">
<rect width="106" height="106" fill="white"/>
</clipPath>
</defs>
</svg>
