<svg width="57" height="58" viewBox="0 0 57 58" fill="none" xmlns="http://www.w3.org/2000/svg">
<g clip-path="url(#clip0)">
<path d="M69.2679 57.7529C69.2679 57.7764 54.2043 57.7936 35.6267 57.7936C17.0491 57.7936 1.98242 57.7764 1.98242 57.7529C1.98242 57.7294 17.0429 57.7122 35.6267 57.7122C54.2106 57.7122 69.2679 57.7309 69.2679 57.7529Z" fill="#263238"/>
<path d="M18.6781 4.63904L18.6906 5.26532C18.6906 5.26532 18.9452 10.119 18.9296 10.8487C18.914 11.5783 16.4854 15.7415 16.4854 15.7415L17.9769 18.1793L21.5378 11.7599L20.685 4.87076L20.6632 4.7001" fill="#FFBE9D"/>
<path d="M20.4865 3.88903L20.007 2.12134L18.1328 3.20794C18.1328 3.36451 18.6935 4.63901 18.6935 4.63901L19.0184 4.9772C19.0184 4.9772 20.6473 4.80497 20.6817 4.78775C20.716 4.77053 20.4865 3.88903 20.4865 3.88903Z" fill="#FFBE9D"/>
<path d="M20.0642 2.24676C20.0642 2.24676 20.0751 2.26085 20.0829 2.28434C20.1548 2.47535 20.364 3.33806 20.2688 3.40226C20.1735 3.46645 19.8518 3.48211 19.8002 3.37407C19.7487 3.26604 19.5706 2.27807 19.5706 2.27807C19.5706 2.27807 19.5519 2.1215 19.7987 2.0166C19.9517 1.9571 20.0642 2.24676 20.0642 2.24676Z" fill="#FFBE9D"/>
<path d="M19.4713 2.07134C19.4713 2.07134 19.4823 2.08543 19.4901 2.10735C19.5619 2.29993 19.7712 3.16108 19.6759 3.22527C19.5807 3.28947 19.2589 3.30512 19.2074 3.19709C19.1558 3.08905 18.9778 2.10109 18.9778 2.10109C18.9778 2.10109 18.9606 1.94452 19.2058 1.84118C19.3589 1.78012 19.4713 2.07134 19.4713 2.07134Z" fill="#FFBE9D"/>
<path d="M18.93 2.05252C18.9391 2.06341 18.9455 2.07628 18.9487 2.0901C19.0206 2.28112 19.2283 3.14382 19.133 3.20802C19.0378 3.27221 18.7176 3.28787 18.6645 3.17984C18.6114 3.0718 18.4349 2.08384 18.4349 2.08384C18.4349 2.08384 18.4162 1.92727 18.6629 1.82393C18.8175 1.7566 18.93 2.05252 18.93 2.05252Z" fill="#FFBE9D"/>
<path d="M18.3919 2.03063C18.401 2.04152 18.4074 2.05439 18.4106 2.06821C18.4825 2.25923 18.6902 3.12193 18.5949 3.18613C18.4997 3.25032 18.1779 3.26598 18.1264 3.15795C18.0749 3.04991 17.8968 2.06195 17.8968 2.06195C17.8968 2.06195 17.8781 1.90538 18.1248 1.80204C18.2794 1.73941 18.3919 2.03063 18.3919 2.03063Z" fill="#FFBE9D"/>
<path d="M19.7337 3.12352C19.7299 2.97822 19.7073 2.83402 19.6665 2.69452C19.6444 2.55331 19.6045 2.41548 19.5479 2.2843C19.5517 2.42961 19.5743 2.5738 19.615 2.71331C19.6372 2.85452 19.677 2.99235 19.7337 3.12352Z" fill="#EB996E"/>
<path d="M19.2257 3.25657C19.2099 3.05174 19.1748 2.84887 19.121 2.65064C19.0881 2.44775 19.0358 2.2485 18.9648 2.05566C18.9826 2.26024 19.0176 2.46294 19.0695 2.6616C19.1044 2.86405 19.1567 3.06311 19.2257 3.25657Z" fill="#EB996E"/>
<g opacity="0.78">
<path opacity="0.78" d="M18.7061 3.34749C18.6884 3.14239 18.6534 2.93917 18.6015 2.73999C18.5666 2.53754 18.5143 2.33848 18.4453 2.14502C18.4611 2.35036 18.4962 2.55375 18.55 2.75252C18.5831 2.95535 18.6354 3.15456 18.7061 3.34749Z" fill="#EB996E"/>
</g>
<path d="M19.1126 4.46688L18.5441 4.00656C18.295 3.8053 18.1333 3.51522 18.0928 3.19709L18.0615 2.9544L19.7795 2.60681C19.7795 2.60681 19.7795 3.24719 19.2953 3.25502L19.8998 3.56816L19.1126 4.46688Z" fill="#FFBE9D"/>
<path d="M19.8168 3.69182C19.809 3.69182 19.7715 3.62136 19.6684 3.52585C19.526 3.39413 19.3405 3.31898 19.1468 3.31448H18.9625L19.1358 3.25029L19.5325 3.10311C19.6119 3.06059 19.6774 2.99604 19.7212 2.91718C19.765 2.83832 19.7851 2.7485 19.7793 2.65845C19.7779 2.64468 19.7753 2.63105 19.7715 2.61774L19.8199 2.64436C19.3404 2.76335 18.9063 2.86356 18.5892 2.91836C18.433 2.94654 18.3018 2.96376 18.2113 2.97472C18.1652 2.98128 18.1184 2.98128 18.0723 2.97472C18.2382 2.92632 18.4066 2.8866 18.5767 2.85573C18.8891 2.7884 19.3201 2.6788 19.7996 2.55981L19.8371 2.55042L19.848 2.58643C19.8535 2.60437 19.8577 2.62268 19.8605 2.64123C19.8724 2.75095 19.8465 2.86144 19.7871 2.95437C19.7316 3.03761 19.6586 3.10762 19.5732 3.15948L19.1718 3.29726L19.1608 3.2315C19.37 3.24 19.5674 3.33053 19.7106 3.48358C19.765 3.54145 19.8019 3.61369 19.8168 3.69182Z" fill="#EB996E"/>
<path d="M19.7121 2.89495C19.7261 2.89495 19.7542 2.97323 19.8417 3.05152C19.8638 3.07312 19.8922 3.08717 19.9228 3.09167C19.9533 3.09616 19.9845 3.09088 20.0119 3.07657C20.0424 3.05109 20.0656 3.01794 20.079 2.98051C20.0925 2.94309 20.0957 2.90274 20.0885 2.86363C20.0682 2.66949 20.0572 2.48786 20.0401 2.36261C20.0229 2.23735 20.001 2.1575 20.0135 2.1528C20.026 2.1481 20.0619 2.22169 20.0963 2.35165C20.1319 2.51892 20.1565 2.6884 20.1697 2.85894C20.1783 2.91235 20.1717 2.96711 20.1507 3.01695C20.1297 3.06679 20.0952 3.1097 20.051 3.14076C20.0104 3.16159 19.964 3.16842 19.9191 3.16021C19.8743 3.15201 19.8333 3.12922 19.8027 3.09536C19.7656 3.0549 19.7379 3.0068 19.7214 2.95445C19.7105 2.91843 19.7074 2.89808 19.7121 2.89495Z" fill="#EB996E"/>
<path d="M13.8732 8.57532C14.2886 8.55027 14.6744 8.80391 14.9665 9.10766C15.2585 9.41141 15.474 9.77152 15.7723 10.0643C15.9941 10.2819 16.2628 10.4698 16.3971 10.7501C16.611 11.1979 16.4314 11.7756 16.7094 12.1921C16.8656 12.4254 17.1295 12.5632 17.2873 12.7933C17.4825 13.083 17.4685 13.4619 17.4247 13.8095C17.4143 14.0539 17.3286 14.2891 17.1795 14.4828C17.0404 14.6128 16.8714 14.7063 16.6876 14.7552C15.3244 15.2176 13.8524 15.2493 12.4707 14.846" fill="#333333"/>
<path d="M11.0108 11.367C10.9751 11.081 10.9969 10.7907 11.0752 10.5133C11.1534 10.236 11.2864 9.97717 11.4663 9.75229C11.6462 9.52741 11.8693 9.34105 12.1224 9.20424C12.3755 9.06742 12.6534 8.98296 12.9397 8.95585C13.494 8.91295 14.0438 9.08334 14.4772 9.43236C14.9107 9.78139 15.1952 10.2828 15.273 10.8347C15.4064 11.6205 15.4981 12.4128 15.5479 13.2083C15.5338 14.3137 14.8888 14.7427 14.628 14.8727C14.534 14.907 14.4366 14.9311 14.3375 14.9447C14.3375 14.9447 14.3375 14.9447 14.3375 14.9525L14.5827 16.2208C14.6936 17.0522 14.2313 17.7865 13.4035 17.9133C12.5758 18.0401 11.9245 17.3966 11.798 16.5652L11.0108 11.367Z" fill="#FFBE9D"/>
<path d="M15.0827 11.4876C15.0656 11.5127 14.9266 11.4344 14.7329 11.4626C14.5392 11.4907 14.4205 11.6035 14.4002 11.5831C14.3799 11.5628 14.4002 11.5314 14.458 11.4782C14.5307 11.4106 14.6222 11.3669 14.7204 11.353C14.8174 11.3391 14.9162 11.3561 15.0031 11.4015C15.0671 11.4375 15.0921 11.4751 15.0827 11.4876Z" fill="#333333"/>
<path d="M13.4238 11.8476C13.4051 11.8727 13.2677 11.7944 13.074 11.8226C12.8803 11.8508 12.7616 11.9635 12.7398 11.9447C12.7179 11.9259 12.7398 11.8915 12.7976 11.8398C12.87 11.7709 12.9625 11.727 13.0615 11.7146C13.1583 11.6992 13.2575 11.7157 13.3442 11.7615C13.4067 11.7975 13.4332 11.8351 13.4238 11.8476Z" fill="#333333"/>
<path d="M14.0721 12.7307C14.1663 12.6863 14.2654 12.6532 14.3673 12.632C14.4142 12.6195 14.4579 12.6038 14.461 12.571C14.4574 12.5207 14.4389 12.4728 14.4079 12.4332L14.2142 12.0903C14.0394 11.801 13.8874 11.4984 13.7598 11.1853C13.9585 11.459 14.1345 11.7486 14.2861 12.0511C14.3517 12.1717 14.4142 12.2876 14.4751 12.3972C14.5129 12.451 14.5311 12.5162 14.5266 12.5819C14.5218 12.5997 14.5132 12.6163 14.5013 12.6303C14.4894 12.6444 14.4746 12.6557 14.4579 12.6633C14.4328 12.6737 14.4066 12.681 14.3798 12.6853C14.2798 12.7143 14.1763 12.7296 14.0721 12.7307Z" fill="#333333"/>
<path d="M14.3295 14.9525C14.3295 14.9525 13.6189 15.1169 12.6396 14.7051C12.6396 14.7051 13.0613 15.6179 14.3967 15.2938L14.3295 14.9525Z" fill="#EB996E"/>
<path d="M14.0548 13.1927C14.0135 13.1545 13.9633 13.1271 13.9087 13.1132C13.8542 13.0993 13.7971 13.0991 13.7425 13.1129C13.702 13.1226 13.6639 13.1404 13.6304 13.1651C13.5968 13.1899 13.5686 13.2211 13.5472 13.2569C13.5271 13.2919 13.518 13.3321 13.5211 13.3723C13.5242 13.4126 13.5393 13.4509 13.5644 13.4824C13.5996 13.5113 13.6425 13.5292 13.6877 13.5339C13.733 13.5387 13.7786 13.53 13.819 13.509C13.9021 13.4639 13.9757 13.4034 14.0361 13.3305C14.0547 13.3125 14.0701 13.2913 14.0814 13.2679C14.0868 13.2567 14.0886 13.244 14.0867 13.2317C14.0847 13.2194 14.0791 13.208 14.0704 13.199" fill="#EB996E"/>
<path d="M13.5396 12.9406C13.5693 12.9406 13.599 13.1378 13.7926 13.2537C13.9863 13.3696 14.2002 13.3179 14.2049 13.3461C14.2096 13.3743 14.1628 13.393 14.0722 13.4087C13.9538 13.4276 13.8326 13.4037 13.7301 13.3414C13.6312 13.2825 13.5593 13.1868 13.5302 13.0752C13.5099 12.9954 13.5255 12.9421 13.5396 12.9406Z" fill="#333333"/>
<path d="M13.2913 11.2386C13.2803 11.2934 13.0898 11.2949 12.8743 11.3544C12.6587 11.4139 12.4916 11.4985 12.4557 11.4562C12.4401 11.4374 12.4557 11.3842 12.5276 11.3247C12.6141 11.2506 12.7162 11.1971 12.8263 11.1684C12.9364 11.1396 13.0516 11.1363 13.1632 11.1587C13.2538 11.1791 13.2991 11.2135 13.2913 11.2386Z" fill="#333333"/>
<path d="M14.8951 10.9115C14.8685 10.9585 14.7389 10.9334 14.5827 10.9538C14.4265 10.9741 14.3016 11.0242 14.2704 10.9835C14.2391 10.9428 14.2704 10.9177 14.3188 10.8692C14.3885 10.8098 14.4745 10.7727 14.5655 10.7627C14.6564 10.7506 14.7488 10.7676 14.8295 10.8113C14.881 10.8473 14.906 10.888 14.8951 10.9115Z" fill="#333333"/>
<path d="M15.4886 10.5935C15.2606 10.9427 14.5375 10.7266 14.1002 10.487C13.8724 10.6333 13.5966 10.6845 13.3317 10.6298C13.0668 10.5751 12.8336 10.4188 12.682 10.1943C12.4322 10.5074 11.9246 10.4088 11.745 10.0486C11.5654 9.68853 11.6638 9.19376 11.9183 8.87905C12.1741 8.58514 12.5265 8.39293 12.9116 8.33731C13.3536 8.25124 13.811 8.29686 14.2273 8.46855C14.6437 8.64024 15.0007 8.93046 15.2543 9.30336C15.4948 9.66817 15.6401 10.1582 15.4964 10.5951" fill="#333333"/>
<path d="M11.9781 8.85253C11.1582 8.69596 10.3679 9.51483 10.2851 10.1051C10.143 11.1228 10.2851 11.2496 10.0946 11.7366C9.97434 12.0497 9.55734 12.3785 9.39335 12.7058C9.2153 13.0565 9.21686 13.6452 9.34024 14.0241C9.44332 14.3372 9.86657 15.2187 9.86657 15.2187C9.86657 15.2187 11.0848 15.1796 11.7079 15.0199C11.869 14.9868 12.0199 14.916 12.1484 14.8132C12.2671 14.7052 12.0219 14.3325 12.0453 14.1744C12.1093 13.7235 12.4451 13.462 12.3576 13.0173C12.2296 12.4271 11.7657 12.391 11.7751 11.7914C11.7751 11.4782 12.2577 11.0085 12.3014 10.6954C12.3451 10.3822 12.5294 9.27058 11.9891 8.86036" fill="#333333"/>
<path d="M10.724 22.4476C10.724 22.4476 11.2644 23.6813 11.2332 24.2654C11.2019 24.8494 10.6444 26.747 10.6444 26.747L17.2492 27.3655L17.2789 25.8342L17.0806 19.5353L20.7633 13.9191L17.977 12.3002L15.2673 15.9874L14.5817 15.7213L11.6143 16.097V16.6137L11.5299 16.6231C10.8791 16.7618 10.2555 17.0067 9.68387 17.348C9.16421 17.6726 8.75234 18.1444 8.50044 18.7038C8.24854 19.2633 8.16794 19.885 8.26887 20.4904C8.38913 21.242 8.6234 22.1548 9.0732 22.6824C9.93844 23.6939 10.724 22.4476 10.724 22.4476Z" fill="#FF8006"/>
<path d="M5.69368 52.6439L4.98618 55.8505L3.69613 58.2273C3.6737 58.268 3.65993 58.3129 3.6557 58.3593C3.65146 58.4056 3.65685 58.4523 3.67153 58.4964C3.6862 58.5406 3.70985 58.5812 3.74096 58.6157C3.77208 58.6502 3.80999 58.6779 3.85231 58.697C3.90158 58.7203 3.9558 58.7313 4.01024 58.7288C4.06468 58.7264 4.1177 58.7106 4.16467 58.6829C4.76441 58.3353 6.96498 57.0452 7.00403 56.804C7.04932 56.5285 7.97547 53.4691 7.97547 53.4691L5.69368 52.6439Z" fill="#FF8006"/>
<g opacity="0.6">
<path opacity="0.6" d="M3.85059 58.6938L7.04447 56.5895L7.01167 56.7241C6.98291 56.8379 6.91623 56.9385 6.82269 57.0091C6.56187 57.197 5.83251 57.7027 4.16763 58.6766C4.12035 58.7036 4.06722 58.7188 4.0128 58.7207C3.95838 58.7226 3.90432 58.7112 3.85527 58.6875L3.85059 58.6938Z" fill="white"/>
</g>
<g opacity="0.6">
<path opacity="0.6" d="M6.64891 55.3996C6.60253 55.4188 6.5649 55.4545 6.54327 55.4999C6.52164 55.5453 6.51754 55.5971 6.53177 55.6454C6.5491 55.6922 6.58376 55.7306 6.62855 55.7524C6.67335 55.7743 6.72483 55.778 6.77229 55.7628C6.82134 55.7425 6.86112 55.7047 6.88392 55.6567C6.90672 55.6087 6.91091 55.5539 6.89567 55.5029C6.87209 55.4559 6.83138 55.4197 6.78196 55.4019C6.73254 55.3842 6.67819 55.3861 6.63016 55.4074" fill="white"/>
</g>
<path d="M4.9185 57.4789C4.8668 57.3615 4.7931 57.2552 4.70141 57.1657C4.59572 57.0918 4.47701 57.0387 4.35156 57.0091C4.35156 56.9998 4.39685 56.9857 4.47495 56.9935C4.5752 57.0067 4.66955 57.0485 4.7467 57.1141C4.82581 57.1786 4.88399 57.2652 4.91381 57.363C4.93412 57.4288 4.92787 57.4789 4.9185 57.4789Z" fill="#333333"/>
<path d="M4.58726 57.85C4.56851 57.8594 4.49199 57.731 4.33893 57.6433C4.24154 57.5983 4.14138 57.5596 4.03906 57.5274C4.09546 57.5087 4.15549 57.5038 4.21417 57.5131C4.27284 57.5224 4.32846 57.5455 4.37641 57.5807C4.54509 57.6824 4.606 57.8453 4.58726 57.85Z" fill="#333333"/>
<path d="M5.48225 57.0341C5.36959 56.911 5.24852 56.7959 5.11992 56.6897C4.97727 56.6032 4.82851 56.5273 4.6748 56.4626C4.84964 56.4712 5.01843 56.5295 5.16143 56.6307C5.30442 56.7319 5.41571 56.8718 5.48225 57.0341Z" fill="#333333"/>
<path d="M5.77073 56.0775C5.75823 56.0947 5.60049 55.9773 5.37403 55.9131C5.14757 55.8489 4.95234 55.8583 4.94922 55.838C5.09294 55.7853 5.25061 55.7853 5.39433 55.838C5.54432 55.8702 5.67784 55.9552 5.77073 56.0775Z" fill="#333333"/>
<path d="M6.0045 55.1412C5.87659 55.0616 5.73838 54.9999 5.59374 54.958C5.44502 54.9376 5.29423 54.9376 5.14551 54.958C5.14551 54.9502 5.18768 54.9189 5.27045 54.8938C5.38111 54.864 5.49723 54.8608 5.60936 54.8844C5.72326 54.9074 5.83023 54.9567 5.92172 55.0285C5.98263 55.088 6.01074 55.1302 6.0045 55.1412Z" fill="#333333"/>
<path d="M5.6389 54.781C5.63728 54.7394 5.64586 54.698 5.66388 54.6605C5.70158 54.5523 5.76053 54.4527 5.83724 54.3677C5.88744 54.2998 5.95894 54.2507 6.04028 54.2283C6.06759 54.2238 6.09562 54.2277 6.1207 54.2394C6.14578 54.2512 6.16674 54.2702 6.18084 54.2941C6.20398 54.343 6.20896 54.3985 6.1949 54.4507C6.16261 54.5567 6.09394 54.6479 6.00105 54.7081C5.90815 54.7683 5.79702 54.7936 5.68731 54.7795C5.57906 54.7643 5.47777 54.7172 5.39629 54.6441C5.31481 54.5711 5.25682 54.4754 5.2297 54.3693C5.22352 54.3425 5.22296 54.3148 5.22807 54.2878C5.23318 54.2609 5.24384 54.2353 5.25938 54.2127C5.27782 54.1903 5.30323 54.1747 5.33154 54.1684C5.35985 54.1622 5.38943 54.1656 5.41556 54.1782C5.48882 54.2139 5.55173 54.2678 5.59829 54.3348C5.66756 54.4256 5.72042 54.5279 5.75447 54.637C5.77082 54.6755 5.77829 54.7173 5.77633 54.7591C5.72376 54.6182 5.65003 54.4862 5.55768 54.3677C5.51797 54.3098 5.46423 54.2629 5.4015 54.2315C5.38766 54.2246 5.37186 54.2227 5.35678 54.2261C5.3417 54.2295 5.32826 54.2381 5.31873 54.2503C5.30938 54.2656 5.30342 54.2827 5.30126 54.3006C5.29911 54.3184 5.3008 54.3365 5.30623 54.3536C5.33223 54.4444 5.38376 54.5257 5.45467 54.5879C5.52557 54.6501 5.61285 54.6905 5.70605 54.7043C5.79875 54.7153 5.89242 54.6943 5.97163 54.6448C6.05083 54.5953 6.11085 54.5202 6.1418 54.4319C6.15497 54.3965 6.15497 54.3576 6.1418 54.3223C6.13471 54.3087 6.12346 54.2977 6.10969 54.2909C6.09592 54.2841 6.08035 54.282 6.06527 54.2847C5.99698 54.3037 5.93635 54.3437 5.89191 54.399C5.78517 54.5099 5.69944 54.6394 5.6389 54.781Z" fill="#333333"/>
<g opacity="0.3">
<path opacity="0.3" d="M5.60992 52.9915L5.51465 53.4487L7.77457 54.1126L7.96823 53.4706L5.69269 52.6439L5.60992 52.9915Z" fill="black"/>
</g>
<path d="M16.0482 53.8308L15.8561 56.3938C15.8561 56.3938 18.3909 57.4491 18.4019 57.9267L13.4307 57.7341L13.565 53.7274L16.0482 53.8308Z" fill="#FF8006"/>
<g opacity="0.6">
<path opacity="0.6" d="M14.3264 56.1183C14.2782 56.1312 14.2364 56.1615 14.209 56.2034C14.1816 56.2453 14.1706 56.2958 14.1781 56.3453C14.1876 56.3951 14.216 56.4393 14.2574 56.4685C14.2988 56.4977 14.3498 56.5097 14.3998 56.5019C14.451 56.4882 14.4953 56.456 14.5242 56.4114C14.553 56.3669 14.5644 56.3132 14.556 56.2608C14.5392 56.2109 14.5038 56.1694 14.4573 56.1449C14.4108 56.1204 14.3567 56.1148 14.3061 56.1292" fill="white"/>
</g>
<g opacity="0.6">
<path opacity="0.6" d="M13.4307 57.734L13.4603 57.3301L18.216 57.6667C18.216 57.6667 18.4331 57.7716 18.4019 57.9266L13.4307 57.734Z" fill="white"/>
</g>
<path d="M15.9376 56.3719C15.9376 56.3954 15.8142 56.4016 15.6924 56.4752C15.5706 56.5488 15.5019 56.649 15.48 56.6396C15.4581 56.6302 15.5003 56.4831 15.6502 56.4032C15.8002 56.3234 15.947 56.35 15.9376 56.3719Z" fill="#333333"/>
<path d="M16.451 56.6083C16.451 56.6318 16.3495 56.6694 16.2621 56.7649C16.1746 56.8604 16.1481 56.9716 16.1231 56.97C16.0981 56.9684 16.0903 56.8291 16.1996 56.7085C16.3089 56.5879 16.451 56.5848 16.451 56.6083Z" fill="#333333"/>
<path d="M16.7279 57.2456C16.7061 57.2456 16.6764 57.1266 16.7435 56.9966C16.8107 56.8667 16.9278 56.8166 16.9372 56.8401C16.9466 56.8636 16.8732 56.9293 16.8201 57.0373C16.767 57.1454 16.7482 57.244 16.7279 57.2456Z" fill="#333333"/>
<path d="M15.9164 55.7831C15.9055 55.8051 15.7946 55.7659 15.6571 55.7706C15.5197 55.7753 15.4119 55.8144 15.3994 55.7925C15.3869 55.7706 15.4931 55.6876 15.6556 55.6861C15.818 55.6845 15.9289 55.7643 15.9164 55.7831Z" fill="#333333"/>
<g opacity="0.3">
<path opacity="0.3" d="M16.0087 54.338L15.9759 54.7952L13.5332 54.6778L13.5488 54.1501L16.0087 54.338Z" fill="black"/>
</g>
<path d="M15.9466 55.2649C15.8638 55.2841 15.7775 55.2803 15.6967 55.254C15.6075 55.2342 15.521 55.2037 15.439 55.1632C15.3909 55.1392 15.3444 55.112 15.3 55.0818C15.2722 55.0657 15.2474 55.0451 15.2266 55.0207C15.212 55.0022 15.2041 54.9793 15.2041 54.9557C15.2041 54.9322 15.212 54.9093 15.2266 54.8908C15.2393 54.874 15.2559 54.8605 15.275 54.8515C15.294 54.8425 15.3149 54.8383 15.3359 54.8391C15.3672 54.8396 15.3983 54.8449 15.4281 54.8547C15.4819 54.8696 15.5342 54.8895 15.5842 54.9142C15.6665 54.9543 15.7419 55.0071 15.8076 55.0708C15.9185 55.1835 15.9544 55.2759 15.9466 55.2806C15.9388 55.2853 15.8825 55.2086 15.7685 55.1162C15.7014 55.0626 15.628 55.0173 15.5499 54.9816C15.5044 54.9617 15.4574 54.9454 15.4093 54.933C15.3578 54.9158 15.3125 54.9142 15.2984 54.933C15.2844 54.9518 15.2984 54.9456 15.2984 54.9612C15.3138 54.9784 15.3317 54.9932 15.3515 55.005C15.3924 55.0349 15.4352 55.0621 15.4796 55.0865C15.5555 55.1274 15.635 55.1615 15.717 55.1882C15.7953 55.2082 15.872 55.2338 15.9466 55.2649Z" fill="#333333"/>
<path d="M15.9123 55.2979C15.8682 55.225 15.8485 55.14 15.8561 55.0552C15.8559 54.9625 15.8712 54.8704 15.9014 54.7827C15.919 54.7309 15.942 54.681 15.9701 54.634C15.9842 54.6026 16.0059 54.5751 16.0331 54.5541C16.0604 54.5331 16.0924 54.5191 16.1263 54.5134C16.1484 54.5148 16.1697 54.5224 16.1877 54.5355C16.2056 54.5485 16.2195 54.5664 16.2278 54.587C16.2395 54.6166 16.2469 54.6477 16.2497 54.6794C16.2576 54.7355 16.2576 54.7924 16.2497 54.8485C16.2315 54.9413 16.1914 55.0283 16.1325 55.1021C16.031 55.2274 15.9279 55.2587 15.9264 55.2446C15.9248 55.2305 16.006 55.1882 16.0825 55.0661C16.1271 54.9957 16.1569 54.9168 16.17 54.8344C16.177 54.7866 16.177 54.7381 16.17 54.6904C16.17 54.6371 16.1466 54.5933 16.1263 54.598C16.106 54.6027 16.0591 54.6356 16.0372 54.6763C16.0106 54.7183 15.9881 54.7629 15.9701 54.8093C15.9395 54.8887 15.92 54.972 15.9123 55.0567C15.9045 55.2023 15.9264 55.2947 15.9123 55.2979Z" fill="#333333"/>
<path d="M9.74901 20.9977L11.0344 21.0697C11.125 21.4319 11.2467 21.7855 11.3983 22.1266C12.4337 20.3244 13.2365 17.9117 13.4364 16.9409C13.4067 16.8439 13.3724 16.7374 13.3302 16.6168C13.2988 16.436 13.3041 16.2507 13.3458 16.072C13.3818 15.8559 13.4411 15.5647 13.4598 15.43C13.5145 15.0198 13.5801 14.9603 13.7238 15.0026C13.9175 15.0652 13.6441 16.1534 13.8019 16.1769C13.8878 16.1894 13.9924 15.8167 14.0221 15.5114C14.0518 15.2061 14.1908 14.2589 14.2923 14.2009C14.4485 14.1086 14.5687 14.2542 14.5312 14.5595C14.4938 14.8648 14.4453 15.787 14.6078 15.7995C14.7702 15.812 14.8998 14.251 14.8998 14.251C14.8998 14.251 14.8748 13.9128 15.056 13.9207C15.3934 13.9348 15.1294 15.5803 15.1013 15.7353C15.081 15.8434 15.2575 15.8637 15.2715 15.7463C15.2856 15.6289 15.3684 14.1806 15.712 14.1978C15.9743 14.2072 15.5074 15.5537 15.6557 15.8653C15.8041 16.1769 15.9056 14.8053 16.1571 14.8241C16.2508 14.8241 16.3133 14.8491 16.1477 15.6257C15.9808 16.2433 15.7801 16.8512 15.5464 17.4467C15.1482 19.5995 13.4005 26.4871 10.6611 25.2267C9.12741 24.5206 8.41211 21.0274 8.41211 21.0274L9.74901 20.9977Z" fill="#FFBE9D"/>
<path d="M15.5515 17.4451C15.5542 17.4289 15.5589 17.4131 15.5655 17.3981C15.5764 17.3636 15.5921 17.3182 15.6108 17.2634C15.653 17.1382 15.7139 16.9644 15.7904 16.7436C15.8669 16.5229 15.9606 16.241 16.0544 15.9154C16.1012 15.7588 16.1403 15.5772 16.1762 15.3877C16.1934 15.2938 16.2121 15.1967 16.223 15.0965C16.227 15.047 16.227 14.9973 16.223 14.9478C16.223 14.8961 16.2121 14.8554 16.1715 14.8538C16.1309 14.8522 16.1012 14.8773 16.0731 14.9211C16.0466 14.9674 16.0246 15.0162 16.0075 15.0668C15.9716 15.1701 15.9419 15.2797 15.9138 15.3924C15.8857 15.5052 15.8591 15.621 15.8248 15.7384C15.8103 15.8033 15.7838 15.8649 15.7467 15.9201C15.7366 15.9327 15.7219 15.9408 15.7059 15.9429C15.6899 15.9449 15.6737 15.9407 15.6608 15.931C15.6456 15.9169 15.6334 15.8998 15.6249 15.8809C15.6112 15.8489 15.6017 15.8152 15.5967 15.7807C15.5918 15.5176 15.618 15.2548 15.6748 14.9979C15.6983 14.8663 15.7217 14.7333 15.7389 14.5986C15.748 14.5311 15.7532 14.4632 15.7545 14.3951C15.7545 14.334 15.7545 14.2495 15.7186 14.2385C15.6826 14.2275 15.6249 14.2635 15.5936 14.3199C15.5572 14.3781 15.5284 14.4407 15.5077 14.5062C15.4638 14.6435 15.4299 14.7837 15.4062 14.9258C15.3812 15.0714 15.3625 15.2186 15.3453 15.3674C15.3453 15.4425 15.3312 15.5239 15.3234 15.5928L15.3141 15.7071C15.3153 15.7315 15.3114 15.7558 15.3025 15.7785C15.2936 15.8012 15.28 15.8217 15.2625 15.8386C15.2399 15.8554 15.2126 15.8645 15.1844 15.8645C15.1563 15.8645 15.1289 15.8554 15.1063 15.8386C15.0938 15.8303 15.083 15.8194 15.0747 15.8068C15.0663 15.7942 15.0607 15.78 15.0579 15.7651C15.0555 15.7511 15.0555 15.7368 15.0579 15.7228V15.6946C15.0689 15.6179 15.0814 15.538 15.0923 15.4644C15.1142 15.3079 15.1329 15.1513 15.1485 14.9947C15.1641 14.8382 15.1735 14.6816 15.1766 14.525C15.1844 14.367 15.1686 14.2087 15.1298 14.0553C15.1209 14.0162 15.0974 13.982 15.0642 13.9598C15.0482 13.955 15.0312 13.9551 15.0153 13.9601C14.9994 13.9651 14.9854 13.9748 14.9752 13.988C14.9333 14.0661 14.9164 14.1552 14.9267 14.2432C14.8986 14.5563 14.8643 14.8554 14.8205 15.1529C14.7971 15.3094 14.7737 15.4504 14.7362 15.596C14.7269 15.6331 14.7154 15.6697 14.7018 15.7056C14.6894 15.7498 14.6638 15.7891 14.6284 15.8183C14.6123 15.8261 14.5941 15.8283 14.5766 15.8246C14.5591 15.8209 14.5433 15.8115 14.5316 15.7979C14.5165 15.7805 14.5048 15.7603 14.4972 15.7384C14.4834 15.702 14.4734 15.6642 14.4676 15.6257C14.4354 15.3397 14.4328 15.0511 14.4598 14.7646C14.4778 14.6313 14.4846 14.4966 14.4801 14.3622C14.4766 14.3051 14.4507 14.2516 14.4082 14.2134C14.3985 14.2068 14.3875 14.2023 14.3759 14.2004C14.3643 14.1985 14.3524 14.1992 14.3411 14.2025C14.3278 14.2057 14.3152 14.211 14.3036 14.2181C14.2954 14.2236 14.289 14.2312 14.2848 14.2401C14.2384 14.3584 14.2039 14.4812 14.1818 14.6064C14.1568 14.7317 14.1349 14.8569 14.1146 14.9806C14.0943 15.1043 14.0771 15.2249 14.0615 15.3454C14.0459 15.466 14.0365 15.585 14.0131 15.7024C13.9936 15.8185 13.9627 15.9323 13.9209 16.0422C13.911 16.07 13.8985 16.0967 13.8835 16.122C13.8647 16.1471 13.8553 16.18 13.8054 16.1956C13.7927 16.1979 13.7796 16.1965 13.7676 16.1915C13.7557 16.1865 13.7455 16.1781 13.7382 16.1674C13.7294 16.1522 13.7225 16.1359 13.7179 16.1189C13.7121 16.09 13.7085 16.0607 13.707 16.0312C13.707 15.8073 13.7382 15.6022 13.7491 15.4049C13.7585 15.3102 13.7585 15.2147 13.7491 15.12C13.7491 15.0777 13.7304 15.0292 13.7054 15.0182C13.6889 15.0101 13.6707 15.0058 13.6523 15.0058C13.6339 15.0058 13.6157 15.0101 13.5992 15.0182C13.545 15.0776 13.5111 15.1527 13.5024 15.2327C13.4836 15.3141 13.4758 15.3893 13.4602 15.4723C13.4055 15.7854 13.3478 16.05 13.3212 16.2677C13.3073 16.3637 13.3073 16.4613 13.3212 16.5573C13.3399 16.6356 13.3665 16.7061 13.3806 16.7609L13.418 16.8892C13.4242 16.9031 13.4279 16.9179 13.429 16.9331C13.4212 16.9199 13.4154 16.9057 13.4118 16.8908L13.3665 16.7671C13.3478 16.7107 13.3212 16.6466 13.2978 16.5604C13.2836 16.4623 13.2836 16.3626 13.2978 16.2645C13.3212 16.0422 13.3743 15.7776 13.4243 15.466C13.4383 15.3893 13.4462 15.3094 13.4649 15.2233C13.4727 15.1801 13.4842 15.1377 13.4993 15.0965C13.5123 15.0484 13.5408 15.006 13.5805 14.9759C13.6046 14.9633 13.6314 14.9567 13.6586 14.9567C13.6857 14.9567 13.7125 14.9633 13.7366 14.9759C13.7991 15.012 13.8007 15.0714 13.8116 15.1169C13.8209 15.2153 13.8209 15.3144 13.8116 15.4128C13.8022 15.6132 13.771 15.823 13.7757 16.0391C13.7771 16.0643 13.7802 16.0894 13.7851 16.1142C13.7851 16.1393 13.8038 16.1487 13.8007 16.144C13.7976 16.1393 13.8257 16.122 13.8366 16.1017C13.8493 16.0783 13.8608 16.0543 13.871 16.0297C13.9091 15.9228 13.9379 15.8128 13.9569 15.7009C13.9787 15.5881 13.985 15.4691 14.0022 15.3486C14.0193 15.228 14.0334 15.1043 14.0537 14.9806C14.074 14.8569 14.0943 14.7301 14.1193 14.6033C14.1416 14.4701 14.1788 14.3398 14.2302 14.215C14.24 14.1942 14.2557 14.1767 14.2755 14.1649C14.2926 14.1548 14.311 14.1469 14.3301 14.1414C14.3512 14.1359 14.3732 14.1348 14.3947 14.1383C14.4163 14.1418 14.4368 14.1498 14.4551 14.1618C14.4856 14.1861 14.5109 14.2165 14.5294 14.2509C14.5479 14.2854 14.5593 14.3232 14.5628 14.3622C14.5722 14.4334 14.5722 14.5055 14.5628 14.5767C14.5628 14.644 14.5503 14.7129 14.5457 14.7818C14.5176 15.0613 14.5176 15.343 14.5457 15.6226C14.5512 15.6556 14.5596 15.6881 14.5706 15.7197C14.5756 15.7321 14.5825 15.7437 14.5909 15.7541C14.5909 15.7854 14.5909 15.7619 14.5909 15.7666C14.5909 15.7713 14.5909 15.7666 14.5909 15.7557C14.6072 15.7338 14.6198 15.7095 14.6284 15.6836C14.6394 15.6508 14.6503 15.6163 14.6597 15.5819C14.694 15.4425 14.719 15.2953 14.7409 15.1482C14.7846 14.8522 14.8174 14.5501 14.8455 14.2432C14.8332 14.1345 14.8562 14.0246 14.9111 13.93C14.9315 13.9022 14.9604 13.8819 14.9935 13.8723C15.0265 13.8627 15.0618 13.8643 15.0938 13.8768C15.1217 13.8915 15.146 13.912 15.1654 13.9368C15.1848 13.9616 15.1987 13.9903 15.2063 14.0209C15.2486 14.1822 15.266 14.349 15.2578 14.5156C15.2578 14.6722 15.2438 14.8382 15.2282 14.9979C15.2125 15.1576 15.1938 15.311 15.1719 15.4676C15.161 15.5459 15.1485 15.6241 15.1376 15.6993C15.1266 15.7494 15.1376 15.751 15.1376 15.7651C15.1467 15.7707 15.1573 15.7738 15.168 15.7738C15.1788 15.7738 15.1893 15.7707 15.1985 15.7651C15.2157 15.7541 15.2172 15.7306 15.2204 15.6883L15.2313 15.574C15.2313 15.4989 15.2469 15.4175 15.2532 15.3486C15.2703 15.192 15.2906 15.048 15.3156 14.9024C15.3402 14.756 15.3751 14.6116 15.4203 14.4702C15.4437 14.3987 15.4757 14.3304 15.5155 14.2667C15.5377 14.2322 15.5663 14.2024 15.5999 14.179C15.6181 14.1628 15.6406 14.1523 15.6647 14.1488C15.6888 14.1453 15.7134 14.1489 15.7355 14.1593C15.7575 14.1696 15.7761 14.1861 15.7889 14.2069C15.8017 14.2276 15.8082 14.2517 15.8076 14.2761C15.8132 14.3128 15.8159 14.35 15.8154 14.3872C15.8132 14.458 15.8069 14.5286 15.7967 14.5986C15.7795 14.7364 15.7545 14.8695 15.7311 15.001C15.6744 15.2506 15.6472 15.506 15.6498 15.7619C15.6526 15.7896 15.66 15.8166 15.6717 15.8418C15.6757 15.8513 15.681 15.8603 15.6873 15.8684C15.6873 15.8684 15.6873 15.8684 15.6873 15.8606C15.717 15.8122 15.7386 15.7593 15.7514 15.704C15.7857 15.5897 15.8123 15.4738 15.842 15.3611C15.8716 15.2484 15.9013 15.1372 15.9403 15.0307C15.9591 14.9763 15.9832 14.9239 16.0122 14.8742C16.0271 14.8474 16.0473 14.824 16.0715 14.8053C16.0852 14.7941 16.1012 14.7861 16.1184 14.7818C16.1349 14.7786 16.1519 14.7786 16.1684 14.7818C16.1864 14.7835 16.2036 14.7901 16.2182 14.8008C16.2328 14.8116 16.2442 14.8261 16.2511 14.8429C16.2618 14.8703 16.2676 14.8995 16.2683 14.929C16.2699 14.9813 16.2668 15.0337 16.259 15.0855C16.248 15.1889 16.2277 15.286 16.209 15.3815C16.1753 15.5601 16.1321 15.7367 16.0793 15.9107C15.9825 16.2363 15.8841 16.5119 15.8029 16.7358C15.7217 16.9597 15.6467 17.1351 15.6092 17.2509C15.5874 17.3057 15.5686 17.3496 15.5561 17.384C15.5436 17.4184 15.553 17.4466 15.5515 17.4451Z" fill="#EB996E"/>
<path d="M8.40234 21.1542C8.65067 22.0341 9.13639 23.3932 9.65178 24.8274C9.66851 24.8735 9.69846 24.9136 9.73788 24.9427C9.77729 24.9718 9.82441 24.9886 9.87331 24.991C9.92221 24.9933 9.97071 24.9811 10.0127 24.9559C10.0547 24.9307 10.0884 24.8936 10.1094 24.8493L11.3901 22.1328C11.3901 22.1328 11.0777 19.9016 11.1074 19.9799C11.1371 20.0582 8.46482 20.2696 8.46482 20.2696L8.40234 21.1542Z" fill="#FF8006"/>
<path d="M16.1463 54.4759C16.3752 54.4693 16.5932 54.3771 16.7577 54.2174C16.9221 54.0578 17.0211 53.8422 17.035 53.6132C17.3021 49.2793 18.5047 29.5653 18.2641 28.9469C17.9924 28.2517 17.2786 25.8343 17.2786 25.8343L10.9018 25.5383C10.9018 25.5383 9.31502 28.0435 9.087 29.0111C8.88084 29.8738 3.10374 48.1238 2.38531 51.9989C2.34976 52.1914 2.38638 52.3902 2.48813 52.5572C2.58989 52.7242 2.74961 52.8477 2.93663 52.9039L16.1463 54.4759Z" fill="#333333"/>
<path d="M46.6628 57.9642L27.0106 57.8734C25.8758 57.868 24.7895 57.4111 23.9906 56.6032C23.1917 55.7952 22.7455 54.7022 22.75 53.5646L22.9578 4.17253C22.9631 3.03418 23.4193 1.94456 24.2258 1.14329C25.0324 0.342024 26.1234 -0.105295 27.2589 -0.1003L46.9111 -0.00948869C47.473 -0.00702674 48.029 0.106379 48.5473 0.324252C49.0655 0.542125 49.5359 0.860199 49.9315 1.26031C50.3272 1.66043 50.6403 2.13475 50.8531 2.65619C51.0659 3.17763 51.1741 3.73598 51.1717 4.29936L50.9639 53.6898C50.9615 54.2536 50.8483 54.8114 50.6308 55.3313C50.4133 55.8513 50.0958 56.3232 49.6964 56.7201C49.297 57.117 48.8235 57.4312 48.303 57.6446C47.7825 57.8581 47.2251 57.9667 46.6628 57.9642Z" fill="#333333"/>
<path d="M46.7136 1.37609L42.9028 1.3573C42.6519 1.36224 42.4132 1.4667 42.239 1.64778C42.0648 1.82887 41.9694 2.07181 41.9735 2.32334V3.01539C41.9758 3.14 41.9536 3.26383 41.9081 3.37982C41.8626 3.49581 41.7948 3.60169 41.7085 3.6914C41.6222 3.78111 41.5192 3.85289 41.4052 3.90266C41.2912 3.95242 41.1686 3.97919 41.0443 3.98143L33.6179 3.94699C33.367 3.94002 33.1291 3.83358 32.9564 3.65102C32.7836 3.46845 32.6902 3.22467 32.6964 2.97311V2.2795C32.7027 2.02795 32.6093 1.78416 32.4365 1.6016C32.2638 1.41903 32.0259 1.3126 31.775 1.30563H30.435L27.1005 1.29154C26.7067 1.28968 26.3164 1.3656 25.9519 1.51497C25.5874 1.66433 25.2558 1.88421 24.976 2.16205C24.6963 2.43989 24.4738 2.77025 24.3214 3.13427C24.169 3.49829 24.0896 3.88884 24.0878 4.28362L23.8848 52.4935C23.884 52.8884 23.9608 53.2796 24.1108 53.6448C24.2608 54.0099 24.4812 54.3418 24.7592 54.6216C25.0372 54.9013 25.3675 55.1234 25.7312 55.2752C26.0949 55.4269 26.4848 55.5053 26.8787 55.5059L46.4918 55.5968C46.8855 55.5986 47.2758 55.5227 47.6402 55.3733C48.0046 55.2239 48.3361 55.004 48.6158 54.7262C48.8954 54.4483 49.1177 54.1179 49.2699 53.7539C49.4221 53.3899 49.5013 52.9994 49.503 52.6047L49.7045 4.40105C49.7071 4.00529 49.6318 3.61291 49.4828 3.24643C49.3337 2.87995 49.114 2.5466 48.836 2.26552C48.5581 1.98444 48.2276 1.76117 47.8633 1.60853C47.4991 1.4559 47.1084 1.3769 46.7136 1.37609Z" fill="white"/>
<path d="M26.6362 6.50076C26.6149 6.50013 26.5947 6.49113 26.58 6.47571L26.2817 6.16256C26.2744 6.1555 26.2687 6.14696 26.2649 6.13751C26.2611 6.12807 26.2594 6.11793 26.2598 6.10776C26.2599 6.09752 26.262 6.0874 26.266 6.07799C26.27 6.06858 26.2759 6.06007 26.2833 6.05296L26.5831 5.76644C26.5902 5.75915 26.5988 5.75335 26.6081 5.7494C26.6175 5.74545 26.6276 5.74341 26.6378 5.74341C26.648 5.74341 26.658 5.74545 26.6674 5.7494C26.6768 5.75335 26.6853 5.75915 26.6924 5.76644C26.6998 5.77371 26.7056 5.78237 26.7095 5.79191C26.7135 5.80145 26.7155 5.81168 26.7155 5.82202C26.7155 5.83235 26.7135 5.84259 26.7095 5.85213C26.7056 5.86167 26.6998 5.87032 26.6924 5.8776L26.4488 6.10933L26.694 6.36611C26.7013 6.37339 26.7071 6.38204 26.7111 6.39158C26.7151 6.40112 26.7171 6.41136 26.7171 6.42169C26.7171 6.43203 26.7151 6.44226 26.7111 6.4518C26.7071 6.46134 26.7013 6.47 26.694 6.47727C26.6864 6.48481 26.6774 6.49077 26.6675 6.4948C26.6575 6.49883 26.6469 6.50086 26.6362 6.50076Z" fill="#333333"/>
<path d="M39.2033 17.3199C39.2549 17.3622 38.4912 18.3925 37.4978 19.62L36.895 20.3527L36.8122 20.4529L36.7248 20.3621C35.9439 19.5589 35.4175 18.9639 35.455 18.9264C35.4925 18.8888 36.0875 19.4196 36.8872 20.1977L36.7185 20.215L37.3089 19.4744C38.3022 18.239 39.1502 17.2777 39.2033 17.3199Z" fill="white"/>
<path d="M42.9987 17.3965C42.8769 16.9659 42.3193 17.0082 42.3193 17.0082L42.3334 17.3073C42.6567 17.2509 42.8566 17.6298 42.8566 17.6298L42.9987 17.3965Z" fill="#FF8006"/>
<path d="M31.154 18.3014C31.0337 17.8708 30.4746 17.9116 30.4746 17.9116L30.4902 18.2122C30.8135 18.1558 31.0134 18.5347 31.0134 18.5347L31.154 18.3014Z" fill="#E0E0E0"/>
<path d="M37.6778 20.9154C38.326 21.1127 38.7289 20.3643 38.7289 20.3643L38.3354 20.1388C38.1417 20.5975 37.4951 20.5443 37.4951 20.5443L37.6778 20.9154Z" fill="#E0E0E0"/>
<path d="M34.0844 21.7217C33.783 21.7546 33.7471 22.1335 33.7471 22.1335L33.9485 22.1569C33.9485 21.9346 34.225 21.8438 34.225 21.8438L34.0844 21.7217Z" fill="#FF8006"/>
<path d="M46.5069 24.4962C46.5506 24.1956 46.1945 24.0657 46.1945 24.0657L46.1211 24.2551C46.3366 24.3099 46.3569 24.6011 46.3569 24.6011L46.5069 24.4962Z" fill="#E0E0E0"/>
<path d="M35.8418 17.7652C35.8855 17.4645 35.5295 17.3346 35.5295 17.3346L35.4561 17.5256C35.6716 17.5804 35.6919 17.8701 35.6919 17.8701L35.8418 17.7652Z" fill="#FF8006"/>
<path d="M28.3958 22.6141C28.3427 23.0839 28.9643 23.1997 28.9643 23.1997L29.0767 22.8866C28.7035 22.8521 28.6504 22.4169 28.6504 22.4169L28.3958 22.6141Z" fill="#FF8006"/>
<path d="M42.2583 20.906C42.5613 20.9232 42.6582 20.5553 42.6582 20.5553L42.4629 20.4989C42.427 20.7181 42.1396 20.7635 42.1396 20.7635L42.2583 20.906Z" fill="#FF8006"/>
<path d="M43.9129 22.143C43.8317 22.1658 43.747 22.1738 43.663 22.1665C43.5789 22.1739 43.4943 22.166 43.4131 22.143C43.578 22.1096 43.7479 22.1096 43.9129 22.143Z" fill="#E0E0E0"/>
<path d="M44.1783 21.4618C44.2096 21.6294 44.2096 21.8014 44.1783 21.9691C44.145 21.8016 44.145 21.6292 44.1783 21.4618Z" fill="#E0E0E0"/>
<path d="M44.459 22.1257C44.5402 22.1029 44.6248 22.0949 44.7089 22.1022C44.7929 22.0947 44.8776 22.1027 44.9588 22.1257C44.7938 22.1591 44.6239 22.1591 44.459 22.1257Z" fill="#E0E0E0"/>
<path d="M44.1949 22.8083C44.1616 22.6403 44.1616 22.4674 44.1949 22.2994C44.2261 22.4676 44.2261 22.6401 44.1949 22.8083Z" fill="#E0E0E0"/>
<path d="M44.5977 22.5234C44.5884 22.5312 44.5399 22.4905 44.49 22.4326C44.44 22.3746 44.4103 22.3183 44.4197 22.3104C44.4291 22.3026 44.479 22.3418 44.5275 22.4013C44.5759 22.4608 44.6087 22.5062 44.5977 22.5234Z" fill="#E0E0E0"/>
<path d="M44.5746 21.7405C44.5839 21.7514 44.5511 21.8 44.4996 21.8516C44.4481 21.9033 44.3996 21.9378 44.3903 21.9284C44.3809 21.919 44.4137 21.8689 44.4652 21.8172C44.5168 21.7655 44.5652 21.7405 44.5746 21.7405Z" fill="#E0E0E0"/>
<path d="M44.0029 21.9393C43.9935 21.9503 43.9467 21.9252 43.8982 21.8845C43.8498 21.8438 43.8186 21.8031 43.8264 21.7937C43.8342 21.7843 43.8811 21.8078 43.9295 21.8469C43.9779 21.8861 44.0107 21.9299 44.0029 21.9393Z" fill="#E0E0E0"/>
<path d="M43.9795 22.2807C43.9904 22.2885 43.9607 22.3371 43.9139 22.3888C43.867 22.4404 43.8217 22.4733 43.8123 22.4639C43.803 22.4545 43.8311 22.406 43.8779 22.3559C43.9248 22.3058 43.9701 22.2713 43.9795 22.2807Z" fill="#E0E0E0"/>
<path d="M30.3064 20.7463C30.1415 20.7797 29.9716 20.7797 29.8066 20.7463C29.8878 20.7235 29.9725 20.7155 30.0565 20.7228C30.1406 20.7153 30.2252 20.7233 30.3064 20.7463Z" fill="#FF8006"/>
<path d="M30.5719 20.0652C30.6052 20.2332 30.6052 20.4061 30.5719 20.574C30.5385 20.4061 30.5385 20.2332 30.5719 20.0652Z" fill="#FF8006"/>
<path d="M30.8545 20.7306C31.0194 20.6972 31.1893 20.6972 31.3543 20.7306C31.1893 20.764 31.0194 20.764 30.8545 20.7306Z" fill="#FF8006"/>
<path d="M30.5885 21.4117C30.5551 21.2443 30.5551 21.0719 30.5885 20.9044C30.6218 21.0719 30.6218 21.2443 30.5885 21.4117Z" fill="#FF8006"/>
<path d="M30.9936 21.1141C30.9827 21.1235 30.9343 21.0828 30.8859 21.0233C30.8374 20.9638 30.8047 20.9106 30.8156 20.9012C30.8265 20.8918 30.8734 20.9341 30.9233 20.992C30.9733 21.05 31.003 21.1141 30.9936 21.1141Z" fill="#FF8006"/>
<path d="M30.9691 20.347C30.9785 20.3564 30.9441 20.4065 30.8941 20.4582C30.8442 20.5099 30.7942 20.5427 30.7848 20.5333C30.7754 20.5239 30.8082 20.4754 30.8598 20.4237C30.9113 20.3721 30.9597 20.3314 30.9691 20.347Z" fill="#FF8006"/>
<path d="M30.3962 20.5443C30.3884 20.5537 30.3416 20.5302 30.2932 20.4895C30.2448 20.4488 30.212 20.4081 30.2213 20.3971C30.2307 20.3861 30.276 20.4112 30.3244 20.4519C30.3728 20.4926 30.4056 20.5333 30.3962 20.5443Z" fill="#FF8006"/>
<path d="M30.374 20.8841C30.3834 20.8935 30.3537 20.942 30.3084 20.9937C30.2631 21.0453 30.2162 21.0782 30.2053 21.0688C30.1944 21.0594 30.2256 21.0109 30.2709 20.9608C30.3162 20.9107 30.3631 20.8747 30.374 20.8841Z" fill="#FF8006"/>
<path d="M47.5916 5.66146C47.225 5.70169 46.856 5.71529 46.4874 5.70217C46.1194 5.71535 45.7508 5.70175 45.3848 5.66146C45.7508 5.62024 46.1194 5.60663 46.4874 5.62075C46.856 5.60666 47.2251 5.62027 47.5916 5.66146Z" fill="#333333"/>
<path d="M47.5916 6.12346C47.2251 6.16465 46.856 6.17825 46.4874 6.16416C46.1194 6.17829 45.7508 6.16468 45.3848 6.12346C45.7508 6.08317 46.1194 6.06957 46.4874 6.08275C46.856 6.06963 47.225 6.08323 47.5916 6.12346Z" fill="#333333"/>
<path d="M47.5916 6.58219C47.2251 6.62338 46.856 6.63699 46.4874 6.6229C46.1194 6.63703 45.7508 6.62342 45.3848 6.58219C45.7508 6.54191 46.1194 6.52831 46.4874 6.54149C46.856 6.52837 47.225 6.54197 47.5916 6.58219Z" fill="#333333"/>
<path d="M37.8652 38.1596L37.7731 44.46L36.9609 44.4538L37.1359 38.1533L37.8652 38.1596Z" fill="#FAFAFA"/>
<path d="M33.3878 38.1235L33.2707 44.4255L32.3945 44.4176L32.5382 38.1172L33.3878 38.1235Z" fill="#FAFAFA"/>
<path d="M33.7953 35.7613C33.7898 35.765 33.79 35.7631 33.7953 35.7613V35.7613Z" fill="#E0E0E0"/>
<path d="M38.3772 36.0082L38.3287 38.172L37.5322 38.1564L37.5885 36.002L38.3772 36.0082Z" fill="#FAFAFA"/>
<path d="M32.716 35.9753L32.6379 38.1204L31.7617 38.1125L31.8086 35.9565L32.716 35.9753Z" fill="#FAFAFA"/>
<path d="M42.0572 40.7602L42.0056 44.3316L41.5449 44.3285L41.6433 40.7571L42.0572 40.7602Z" fill="#FAFAFA"/>
<path d="M39.5193 40.7414L39.4537 44.3112L38.957 44.3081L39.0382 40.7367L39.5193 40.7414Z" fill="#FAFAFA"/>
<path d="M42.3476 39.5421L42.3211 40.768L41.8682 40.7586L41.901 39.5389L42.3476 39.5421Z" fill="#FAFAFA"/>
<path d="M39.139 39.5233L39.0953 40.7383L38.5986 40.7351L38.6252 39.5123L39.139 39.5233Z" fill="#FAFAFA"/>
</g>
<path d="M36.6479 29.4142C36.8387 30.2591 36.7746 31.1417 36.4636 31.9502C36.1526 32.7588 35.6088 33.4568 34.9009 33.9561C34.1929 34.4554 33.3528 34.7334 32.4868 34.755C31.6209 34.7766 30.7679 34.5408 30.036 34.0774C29.3041 33.614 28.7261 32.9439 28.3752 32.1519C28.0243 31.3599 27.9163 30.4816 28.0648 29.6281C28.2133 28.7747 28.6117 27.9845 29.2095 27.3576C29.8073 26.7307 30.5776 26.2952 31.423 26.1063C32.5545 25.8521 33.7407 26.0578 34.7205 26.6782C35.7004 27.2985 36.3937 28.2827 36.6479 29.4142Z" fill="#FF8006"/>
<g opacity="0.3">
<path opacity="0.3" d="M35.5212 29.2839C35.5002 29.2839 35.455 29.1499 35.3469 28.9127C35.1946 28.5778 34.9904 28.269 34.7418 27.9978C34.5727 27.8127 34.3838 27.6465 34.1786 27.5025C33.9434 27.3389 33.6879 27.2065 33.4186 27.1087C33.2731 27.0544 33.1237 27.0112 32.9716 26.9796C32.812 26.9469 32.6502 26.9253 32.4876 26.9151C32.3208 26.9055 32.1536 26.9087 31.9873 26.9248C31.8165 26.9412 31.6472 26.9704 31.4807 27.0119C31.3157 27.0542 31.1539 27.1081 30.9966 27.1733C30.8435 27.2394 30.6957 27.3171 30.5545 27.4056C30.4175 27.491 30.2874 27.587 30.1656 27.6929C30.0503 27.7925 29.9425 27.9003 29.8429 28.0156C29.6514 28.2314 29.4886 28.4711 29.3588 28.7288C29.2483 28.9538 29.1628 29.1903 29.1038 29.4339C29.0197 29.7905 28.9914 30.1579 29.0199 30.5231C29.0428 30.6585 29.052 30.7958 29.0473 30.933C28.9821 30.8129 28.9431 30.6804 28.9328 30.5441C28.861 30.1678 28.861 29.7812 28.9328 29.4049C29.0384 28.8392 29.2898 28.3108 29.6621 27.872C29.769 27.7443 29.8849 27.6246 30.0091 27.5137C30.2748 27.2795 30.5753 27.0879 30.8998 26.9458C31.2413 26.7951 31.6056 26.7024 31.9777 26.6714C32.157 26.6569 32.3372 26.6569 32.5166 26.6714C32.8561 26.6951 33.19 26.7697 33.5074 26.8925C34.0441 27.0998 34.5187 27.4415 34.8854 27.8849C35.1302 28.1797 35.3183 28.5173 35.4405 28.8805C35.4956 29.0077 35.5231 29.1452 35.5212 29.2839Z" fill="black"/>
</g>
<path d="M35.6178 29.5767C35.6099 29.5603 35.6039 29.5429 35.6001 29.5251L35.5533 29.3718C35.5309 29.288 35.5023 29.206 35.4678 29.1265C35.4275 29.0157 35.3795 28.9078 35.3241 28.8038C35.1799 28.5142 34.9934 28.2477 34.7707 28.0131C34.4489 27.6666 34.0569 27.3927 33.6209 27.2096C33.1849 27.0265 32.7149 26.9385 32.2421 26.9513C31.6479 26.9727 31.0707 27.1551 30.5721 27.479C30.4394 27.565 30.3127 27.6599 30.1929 27.763C30.0729 27.8757 29.9607 27.9965 29.8572 28.1244C29.6389 28.3777 29.4624 28.6642 29.3344 28.9732C29.1983 29.2909 29.1128 29.6279 29.0811 29.972C29.0108 30.6863 29.1708 31.4044 29.5377 32.0213C29.7144 32.3145 29.9354 32.5785 30.1929 32.8039C30.4407 33.0323 30.7234 33.2197 31.0303 33.359C31.3192 33.4976 31.6288 33.5881 31.9469 33.6269C32.4973 33.7031 33.058 33.6369 33.5756 33.4346C34.0931 33.2323 34.5501 32.9007 34.903 32.4715C35.1775 32.1412 35.3857 31.7609 35.5162 31.3517C35.6169 31.0447 35.6713 30.7243 35.6775 30.4012C35.6851 30.2836 35.6851 30.1655 35.6775 30.0479C35.6741 29.9613 35.665 29.875 35.6501 29.7897L35.6259 29.6283C35.6238 29.6106 35.6238 29.5928 35.6259 29.5751C35.6332 29.5915 35.6381 29.6089 35.6404 29.6267L35.6711 29.7881C35.69 29.873 35.7019 29.9594 35.7066 30.0463C35.7202 30.1646 35.725 30.2838 35.7211 30.4029C35.7201 30.7314 35.669 31.0579 35.5694 31.371C35.3412 32.1281 34.8503 32.7789 34.185 33.2063C33.5198 33.6337 32.7238 33.8097 31.9404 33.7027C31.7804 33.6811 31.6219 33.6493 31.466 33.6075C31.3075 33.5589 31.1522 33.5002 31.0013 33.4316C30.6885 33.2919 30.3998 33.1035 30.1461 32.8733C29.8807 32.6382 29.6542 32.3626 29.4748 32.0568C29.2912 31.7415 29.1558 31.4005 29.073 31.0451C28.9977 30.6883 28.9748 30.3225 29.0052 29.9591C29.0339 29.6054 29.1183 29.2585 29.2553 28.9312C29.3863 28.6151 29.5672 28.322 29.7911 28.0631C29.8978 27.9365 30.0132 27.8173 30.1364 27.7065C30.6271 27.2759 31.234 26.9997 31.8811 26.9127C32.5281 26.8257 33.1865 26.9318 33.7735 27.2176C34.1658 27.4047 34.5181 27.6661 34.811 27.9873C35.0333 28.2269 35.2177 28.4989 35.358 28.7941C35.4116 28.8984 35.458 29.0062 35.4968 29.1168C35.5291 29.198 35.555 29.2817 35.5743 29.3669L35.613 29.5283C35.6164 29.5442 35.618 29.5604 35.6178 29.5767Z" fill="white"/>
<path d="M32.1455 34.5299C32.101 34.5401 32.0552 34.5428 32.0099 34.538C31.8878 34.537 31.7659 34.5273 31.6452 34.5089C30.8364 34.3938 30.0859 34.0222 29.504 33.4488C29.417 33.3627 29.3356 33.271 29.2603 33.1745C29.2087 33.1051 29.1813 33.0663 29.1861 33.0615C29.1909 33.0567 29.32 33.2003 29.5459 33.4068C29.8409 33.6746 30.171 33.901 30.527 34.0797C30.8849 34.2556 31.2648 34.3826 31.6565 34.4573C31.9551 34.5057 32.1455 34.5154 32.1455 34.5299Z" fill="white"/>
<path d="M32.885 34.5488C32.885 34.5714 32.8011 34.594 32.6946 34.5972C32.5881 34.6005 32.5026 34.5843 32.501 34.5601C32.4994 34.5359 32.5865 34.5166 32.6914 34.5133C32.7963 34.5101 32.8834 34.5263 32.885 34.5488Z" fill="white"/>
<path d="M32.6513 31.8384C32.8074 31.8201 32.921 31.7872 32.9921 31.7397C33.1166 31.6557 33.1789 31.5105 33.1789 31.3041C33.1789 31.147 33.1206 31.0228 33.004 30.9315C32.9348 30.8785 32.8173 30.8237 32.6513 30.7671V31.8384ZM32.3696 28.9753C32.1977 28.979 32.0703 29.0219 31.9873 29.1041C31.9043 29.1845 31.8628 29.295 31.8628 29.4356C31.8628 29.589 31.925 29.7105 32.0495 29.8C32.1187 29.8493 32.2254 29.895 32.3696 29.937V28.9753ZM32.6572 33H32.3696V32.4548C31.9803 32.4146 31.6898 32.3361 31.4982 32.2192C31.1602 32.0091 30.9942 31.6511 31.0002 31.1452H31.8005C31.8282 31.3753 31.8667 31.5297 31.9161 31.6082C31.9932 31.7306 32.1444 31.81 32.3696 31.8466V30.6767L32.1295 30.611C31.7521 30.5087 31.4853 30.3662 31.3292 30.1836C31.175 30.0009 31.098 29.7808 31.098 29.5233C31.098 29.3534 31.1276 29.1991 31.1869 29.0603C31.2482 28.9215 31.3331 28.8018 31.4418 28.7014C31.5821 28.5717 31.7383 28.4822 31.9102 28.4329C32.0149 28.4018 32.1681 28.379 32.3696 28.3644V28H32.6513V28.3699C32.9734 28.3936 33.2263 28.4667 33.4101 28.589C33.7441 28.7845 33.917 29.1014 33.9289 29.5397H33.1493C33.1334 29.3772 33.1038 29.2584 33.0603 29.1836C32.9852 29.0539 32.8489 28.9826 32.6513 28.9699V30.0137C33.1216 30.1635 33.4378 30.2959 33.5998 30.411C33.8666 30.6027 34 30.8731 34 31.2219C34 31.6822 33.8172 32.0164 33.4516 32.2247C33.2283 32.3525 32.9635 32.4274 32.6572 32.4493V33Z" fill="white"/>
<path d="M44.6479 41.4142C44.8387 42.2591 44.7746 43.1417 44.4636 43.9502C44.1526 44.7588 43.6088 45.4568 42.9009 45.9561C42.1929 46.4554 41.3528 46.7334 40.4868 46.755C39.6209 46.7766 38.7679 46.5408 38.036 46.0774C37.3041 45.614 36.7261 44.9439 36.3752 44.1519C36.0243 43.3599 35.9163 42.4816 36.0648 41.6281C36.2133 40.7747 36.6117 39.9845 37.2095 39.3576C37.8073 38.7307 38.5776 38.2952 39.423 38.1063C40.5545 37.8521 41.7407 38.0578 42.7205 38.6782C43.7004 39.2985 44.3937 40.2827 44.6479 41.4142Z" fill="#FF8006"/>
<g opacity="0.3">
<path opacity="0.3" d="M43.5212 41.2839C43.5002 41.2839 43.455 41.1499 43.3469 40.9127C43.1946 40.5778 42.9904 40.269 42.7418 39.9978C42.5727 39.8127 42.3838 39.6465 42.1786 39.5025C41.9434 39.3389 41.6879 39.2065 41.4186 39.1087C41.2731 39.0544 41.1237 39.0112 40.9716 38.9796C40.812 38.9469 40.6502 38.9253 40.4876 38.9151C40.3208 38.9055 40.1536 38.9087 39.9873 38.9248C39.8165 38.9412 39.6472 38.9704 39.4807 39.0119C39.3157 39.0542 39.1539 39.1081 38.9966 39.1733C38.8435 39.2394 38.6957 39.3171 38.5545 39.4056C38.4175 39.491 38.2874 39.587 38.1656 39.6929C38.0503 39.7925 37.9425 39.9003 37.8429 40.0156C37.6514 40.2314 37.4886 40.4711 37.3588 40.7288C37.2483 40.9538 37.1628 41.1903 37.1038 41.4339C37.0197 41.7905 36.9914 42.1579 37.0199 42.5231C37.0428 42.6585 37.052 42.7958 37.0473 42.933C36.9821 42.8129 36.9431 42.6804 36.9328 42.5441C36.861 42.1678 36.861 41.7812 36.9328 41.4049C37.0384 40.8392 37.2898 40.3108 37.6621 39.872C37.769 39.7443 37.8849 39.6246 38.0091 39.5137C38.2748 39.2795 38.5753 39.0879 38.8998 38.9458C39.2413 38.7951 39.6056 38.7024 39.9777 38.6714C40.157 38.6569 40.3372 38.6569 40.5166 38.6714C40.8561 38.6951 41.19 38.7697 41.5074 38.8925C42.0441 39.0998 42.5187 39.4415 42.8854 39.8849C43.1302 40.1797 43.3183 40.5173 43.4405 40.8805C43.4956 41.0077 43.5231 41.1452 43.5212 41.2839Z" fill="black"/>
</g>
<path d="M43.6178 41.5767C43.6099 41.5603 43.6039 41.5429 43.6001 41.5251L43.5533 41.3718C43.5309 41.288 43.5023 41.206 43.4678 41.1265C43.4275 41.0157 43.3795 40.9078 43.3241 40.8038C43.1799 40.5142 42.9934 40.2477 42.7707 40.0131C42.4489 39.6666 42.0569 39.3927 41.6209 39.2096C41.1849 39.0265 40.7149 38.9385 40.2421 38.9513C39.6479 38.9727 39.0707 39.1551 38.5721 39.479C38.4394 39.565 38.3127 39.6599 38.1929 39.763C38.0729 39.8757 37.9607 39.9965 37.8572 40.1244C37.6389 40.3777 37.4624 40.6642 37.3344 40.9732C37.1983 41.2909 37.1128 41.6279 37.0811 41.972C37.0108 42.6863 37.1708 43.4044 37.5377 44.0213C37.7144 44.3145 37.9354 44.5785 38.1929 44.8039C38.4407 45.0323 38.7234 45.2197 39.0303 45.359C39.3192 45.4976 39.6288 45.5881 39.9469 45.6269C40.4973 45.7031 41.058 45.6369 41.5756 45.4346C42.0931 45.2323 42.5501 44.9007 42.903 44.4715C43.1775 44.1412 43.3857 43.7609 43.5162 43.3517C43.6169 43.0447 43.6713 42.7243 43.6775 42.4012C43.6851 42.2836 43.6851 42.1655 43.6775 42.0479C43.6741 41.9613 43.665 41.875 43.6501 41.7897L43.6259 41.6283C43.6238 41.6106 43.6238 41.5928 43.6259 41.5751C43.6332 41.5915 43.6381 41.6089 43.6404 41.6267L43.6711 41.7881C43.69 41.873 43.7019 41.9594 43.7066 42.0463C43.7202 42.1646 43.725 42.2838 43.7211 42.4029C43.7201 42.7314 43.669 43.0579 43.5694 43.371C43.3412 44.1281 42.8503 44.7789 42.185 45.2063C41.5198 45.6337 40.7238 45.8097 39.9404 45.7027C39.7804 45.6811 39.6219 45.6493 39.466 45.6075C39.3075 45.5589 39.1522 45.5002 39.0013 45.4316C38.6885 45.2919 38.3998 45.1035 38.1461 44.8733C37.8807 44.6382 37.6542 44.3626 37.4748 44.0568C37.2912 43.7415 37.1558 43.4005 37.073 43.0451C36.9977 42.6883 36.9748 42.3225 37.0052 41.9591C37.0339 41.6054 37.1183 41.2585 37.2553 40.9312C37.3863 40.6151 37.5672 40.322 37.7911 40.0631C37.8978 39.9365 38.0132 39.8173 38.1364 39.7065C38.6271 39.2759 39.234 38.9997 39.8811 38.9127C40.5281 38.8257 41.1865 38.9318 41.7735 39.2176C42.1658 39.4047 42.5181 39.6661 42.811 39.9873C43.0333 40.2269 43.2177 40.4989 43.358 40.7941C43.4116 40.8984 43.458 41.0062 43.4968 41.1168C43.5291 41.198 43.555 41.2817 43.5743 41.3669L43.613 41.5283C43.6164 41.5442 43.618 41.5604 43.6178 41.5767Z" fill="white"/>
<path d="M40.1455 46.5299C40.101 46.5401 40.0552 46.5428 40.0099 46.538C39.8878 46.537 39.7659 46.5273 39.6452 46.5089C38.8364 46.3938 38.0859 46.0222 37.504 45.4488C37.417 45.3627 37.3356 45.271 37.2603 45.1745C37.2087 45.1051 37.1813 45.0663 37.1861 45.0615C37.1909 45.0567 37.32 45.2003 37.5459 45.4068C37.8409 45.6746 38.171 45.901 38.527 46.0797C38.8849 46.2556 39.2648 46.3826 39.6565 46.4573C39.9551 46.5057 40.1455 46.5154 40.1455 46.5299Z" fill="white"/>
<path d="M40.885 46.5488C40.885 46.5714 40.8011 46.594 40.6946 46.5972C40.5881 46.6005 40.5026 46.5843 40.501 46.5601C40.4994 46.5359 40.5865 46.5166 40.6914 46.5133C40.7963 46.5101 40.8834 46.5263 40.885 46.5488Z" fill="white"/>
<path d="M40.6513 43.8384C40.8074 43.8201 40.921 43.7872 40.9921 43.7397C41.1166 43.6557 41.1789 43.5105 41.1789 43.3041C41.1789 43.147 41.1206 43.0228 41.004 42.9315C40.9348 42.8785 40.8173 42.8237 40.6513 42.7671V43.8384ZM40.3696 40.9753C40.1977 40.979 40.0703 41.0219 39.9873 41.1041C39.9043 41.1845 39.8628 41.295 39.8628 41.4356C39.8628 41.589 39.925 41.7105 40.0495 41.8C40.1187 41.8493 40.2254 41.895 40.3696 41.937V40.9753ZM40.6572 45H40.3696V44.4548C39.9803 44.4146 39.6898 44.3361 39.4982 44.2192C39.1602 44.0091 38.9942 43.6511 39.0002 43.1452H39.8005C39.8282 43.3753 39.8667 43.5297 39.9161 43.6082C39.9932 43.7306 40.1444 43.81 40.3696 43.8466V42.6767L40.1295 42.611C39.7521 42.5087 39.4853 42.3662 39.3292 42.1836C39.175 42.0009 39.098 41.7808 39.098 41.5233C39.098 41.3534 39.1276 41.1991 39.1869 41.0603C39.2482 40.9215 39.3331 40.8018 39.4418 40.7014C39.5821 40.5717 39.7383 40.4822 39.9102 40.4329C40.0149 40.4018 40.1681 40.379 40.3696 40.3644V40H40.6513V40.3699C40.9734 40.3936 41.2263 40.4667 41.4101 40.589C41.7441 40.7845 41.917 41.1014 41.9289 41.5397H41.1493C41.1334 41.3772 41.1038 41.2584 41.0603 41.1836C40.9852 41.0539 40.8489 40.9826 40.6513 40.9699V42.0137C41.1216 42.1635 41.4378 42.2959 41.5998 42.411C41.8666 42.6027 42 42.8731 42 43.2219C42 43.6822 41.8172 44.0164 41.4516 44.2247C41.2283 44.3525 40.9635 44.4274 40.6572 44.4493V45Z" fill="white"/>
<path d="M43.6479 17.4142C43.8387 18.2591 43.7746 19.1417 43.4636 19.9502C43.1526 20.7588 42.6088 21.4568 41.9009 21.9561C41.1929 22.4554 40.3528 22.7334 39.4868 22.755C38.6209 22.7766 37.7679 22.5408 37.036 22.0774C36.3041 21.614 35.7261 20.9439 35.3752 20.1519C35.0243 19.3599 34.9163 18.4816 35.0648 17.6281C35.2133 16.7747 35.6117 15.9845 36.2095 15.3576C36.8073 14.7307 37.5776 14.2952 38.423 14.1063C39.5545 13.8521 40.7407 14.0578 41.7205 14.6782C42.7004 15.2985 43.3937 16.2827 43.6479 17.4142Z" fill="#FF8006"/>
<g opacity="0.3">
<path opacity="0.3" d="M42.5212 17.2839C42.5002 17.2839 42.455 17.1499 42.3469 16.9127C42.1946 16.5778 41.9904 16.269 41.7418 15.9978C41.5727 15.8127 41.3838 15.6465 41.1786 15.5025C40.9434 15.3389 40.6879 15.2065 40.4186 15.1087C40.2731 15.0544 40.1237 15.0112 39.9716 14.9796C39.812 14.9469 39.6502 14.9253 39.4876 14.9151C39.3208 14.9055 39.1536 14.9087 38.9873 14.9248C38.8165 14.9412 38.6472 14.9704 38.4807 15.0119C38.3157 15.0542 38.1539 15.1081 37.9966 15.1733C37.8435 15.2394 37.6957 15.3171 37.5545 15.4056C37.4175 15.491 37.2874 15.587 37.1656 15.6929C37.0503 15.7925 36.9425 15.9003 36.8429 16.0156C36.6514 16.2314 36.4886 16.4711 36.3588 16.7288C36.2483 16.9538 36.1628 17.1903 36.1038 17.4339C36.0197 17.7905 35.9914 18.1579 36.0199 18.5231C36.0428 18.6585 36.052 18.7958 36.0473 18.933C35.9821 18.8129 35.9431 18.6804 35.9328 18.5441C35.861 18.1678 35.861 17.7812 35.9328 17.4049C36.0384 16.8392 36.2898 16.3108 36.6621 15.872C36.769 15.7443 36.8849 15.6246 37.0091 15.5137C37.2748 15.2795 37.5753 15.0879 37.8998 14.9458C38.2413 14.7951 38.6056 14.7024 38.9777 14.6714C39.157 14.6569 39.3372 14.6569 39.5166 14.6714C39.8561 14.6951 40.19 14.7697 40.5074 14.8925C41.0441 15.0998 41.5187 15.4415 41.8854 15.8849C42.1302 16.1797 42.3183 16.5173 42.4405 16.8805C42.4956 17.0077 42.5231 17.1452 42.5212 17.2839Z" fill="black"/>
</g>
<path d="M42.6178 17.5767C42.6099 17.5603 42.6039 17.5429 42.6001 17.5251L42.5533 17.3718C42.5309 17.288 42.5023 17.206 42.4678 17.1265C42.4275 17.0157 42.3795 16.9078 42.3241 16.8038C42.1799 16.5142 41.9934 16.2477 41.7707 16.0131C41.4489 15.6666 41.0569 15.3927 40.6209 15.2096C40.1849 15.0265 39.7149 14.9385 39.2421 14.9513C38.6479 14.9727 38.0707 15.1551 37.5721 15.479C37.4394 15.565 37.3127 15.6599 37.1929 15.763C37.0729 15.8757 36.9607 15.9965 36.8572 16.1244C36.6389 16.3777 36.4624 16.6642 36.3344 16.9732C36.1983 17.2909 36.1128 17.6279 36.0811 17.972C36.0108 18.6863 36.1708 19.4044 36.5377 20.0213C36.7144 20.3145 36.9354 20.5785 37.1929 20.8039C37.4407 21.0323 37.7234 21.2197 38.0303 21.359C38.3192 21.4976 38.6288 21.5881 38.9469 21.6269C39.4973 21.7031 40.058 21.6369 40.5756 21.4346C41.0931 21.2323 41.5501 20.9007 41.903 20.4715C42.1775 20.1412 42.3857 19.7609 42.5162 19.3517C42.6169 19.0447 42.6713 18.7243 42.6775 18.4012C42.6851 18.2836 42.6851 18.1655 42.6775 18.0479C42.6741 17.9613 42.665 17.875 42.6501 17.7897L42.6259 17.6283C42.6238 17.6106 42.6238 17.5928 42.6259 17.5751C42.6332 17.5915 42.6381 17.6089 42.6404 17.6267L42.6711 17.7881C42.69 17.873 42.7019 17.9594 42.7066 18.0463C42.7202 18.1646 42.725 18.2838 42.7211 18.4029C42.7201 18.7314 42.669 19.0579 42.5694 19.371C42.3412 20.1281 41.8503 20.7789 41.185 21.2063C40.5198 21.6337 39.7238 21.8097 38.9404 21.7027C38.7804 21.6811 38.6219 21.6493 38.466 21.6075C38.3075 21.5589 38.1522 21.5002 38.0013 21.4316C37.6885 21.2919 37.3998 21.1035 37.1461 20.8733C36.8807 20.6382 36.6542 20.3626 36.4748 20.0568C36.2912 19.7415 36.1558 19.4005 36.073 19.0451C35.9977 18.6883 35.9748 18.3225 36.0052 17.9591C36.0339 17.6054 36.1183 17.2585 36.2553 16.9312C36.3863 16.6151 36.5672 16.322 36.7911 16.0631C36.8978 15.9365 37.0132 15.8173 37.1364 15.7065C37.6271 15.2759 38.234 14.9997 38.8811 14.9127C39.5281 14.8257 40.1865 14.9318 40.7735 15.2176C41.1658 15.4047 41.5181 15.6661 41.811 15.9873C42.0333 16.2269 42.2177 16.4989 42.358 16.7941C42.4116 16.8984 42.458 17.0062 42.4968 17.1168C42.5291 17.198 42.555 17.2817 42.5743 17.3669L42.613 17.5283C42.6164 17.5442 42.618 17.5604 42.6178 17.5767Z" fill="white"/>
<path d="M39.1455 22.5299C39.101 22.5401 39.0552 22.5428 39.0099 22.538C38.8878 22.537 38.7659 22.5273 38.6452 22.5089C37.8364 22.3938 37.0859 22.0222 36.504 21.4488C36.417 21.3627 36.3356 21.271 36.2603 21.1745C36.2087 21.1051 36.1813 21.0663 36.1861 21.0615C36.1909 21.0567 36.32 21.2003 36.5459 21.4068C36.8409 21.6746 37.171 21.901 37.527 22.0797C37.8849 22.2556 38.2648 22.3826 38.6565 22.4573C38.9551 22.5057 39.1455 22.5154 39.1455 22.5299Z" fill="white"/>
<path d="M39.885 22.5488C39.885 22.5714 39.8011 22.594 39.6946 22.5972C39.5881 22.6005 39.5026 22.5843 39.501 22.5601C39.4994 22.5359 39.5865 22.5166 39.6914 22.5133C39.7963 22.5101 39.8834 22.5263 39.885 22.5488Z" fill="white"/>
<path d="M39.6513 19.8384C39.8074 19.8201 39.921 19.7872 39.9921 19.7397C40.1166 19.6557 40.1789 19.5105 40.1789 19.3041C40.1789 19.147 40.1206 19.0228 40.004 18.9315C39.9348 18.8785 39.8173 18.8237 39.6513 18.7671V19.8384ZM39.3696 16.9753C39.1977 16.979 39.0703 17.0219 38.9873 17.1041C38.9043 17.1845 38.8628 17.295 38.8628 17.4356C38.8628 17.589 38.925 17.7105 39.0495 17.8C39.1187 17.8493 39.2254 17.895 39.3696 17.937V16.9753ZM39.6572 21H39.3696V20.4548C38.9803 20.4146 38.6898 20.3361 38.4982 20.2192C38.1602 20.0091 37.9942 19.6511 38.0002 19.1452H38.8005C38.8282 19.3753 38.8667 19.5297 38.9161 19.6082C38.9932 19.7306 39.1444 19.81 39.3696 19.8466V18.6767L39.1295 18.611C38.7521 18.5087 38.4853 18.3662 38.3292 18.1836C38.175 18.0009 38.098 17.7808 38.098 17.5233C38.098 17.3534 38.1276 17.1991 38.1869 17.0603C38.2482 16.9215 38.3331 16.8018 38.4418 16.7014C38.5821 16.5717 38.7383 16.4822 38.9102 16.4329C39.0149 16.4018 39.1681 16.379 39.3696 16.3644V16H39.6513V16.3699C39.9734 16.3936 40.2263 16.4667 40.4101 16.589C40.7441 16.7845 40.917 17.1014 40.9289 17.5397H40.1493C40.1334 17.3772 40.1038 17.2584 40.0603 17.1836C39.9852 17.0539 39.8489 16.9826 39.6513 16.9699V18.0137C40.1216 18.1635 40.4378 18.2959 40.5998 18.411C40.8666 18.6027 41 18.8731 41 19.2219C41 19.6822 40.8172 20.0164 40.4516 20.2247C40.2283 20.3525 39.9635 20.4274 39.6572 20.4493V21Z" fill="white"/>
<defs>
<clipPath id="clip0">
<rect width="57" height="58" fill="white"/>
</clipPath>
</defs>
</svg>
