<svg width="76" height="76" viewBox="0 0 76 76" fill="none" xmlns="http://www.w3.org/2000/svg">
<path d="M55.4421 21.5266H47.8193V32.5755H55.4421V21.5266Z" fill="#E0E0E0"/>
<path d="M55.0603 21.5266H47.4375V32.5755H55.0603V21.5266Z" fill="#F5F5F5"/>
<path d="M54.1126 22.7227H48.3838V31.3791H54.1126V22.7227Z" fill="white"/>
<path d="M54.1115 31.3776C54.1115 31.3776 54.1115 31.3639 54.1115 31.3366V31.2135C54.1115 31.104 54.1115 30.9459 54.1115 30.7392C54.1115 30.3243 54.1115 29.7193 54.1115 28.9547C54.1115 27.4347 54.1115 25.2672 54.1024 22.7227L54.1206 22.741H48.3932L48.4145 22.7197C48.4145 25.9847 48.4145 28.9958 48.4145 31.3746L48.3978 31.3594H52.5687H53.7193H54.1115H54.0112H53.7072H52.558H48.378H48.3613V31.3427C48.3613 28.9639 48.3613 25.9527 48.3613 22.6878V22.6665H54.1297V22.6863C54.1297 25.2368 54.1221 27.3983 54.1206 28.9319C54.1206 29.6919 54.1206 30.2999 54.1206 30.7103C54.1206 30.9155 54.1206 31.0736 54.1206 31.1815V31.3016C54.1202 31.3272 54.1172 31.3527 54.1115 31.3776Z" fill="#E0E0E0"/>
<path d="M55.0821 21.5266C55.043 21.5964 54.9977 21.6625 54.9468 21.7242C54.8586 21.8412 54.7325 22.0024 54.5896 22.1802C54.4467 22.358 54.3115 22.5085 54.2127 22.618C54.1613 22.6798 54.1048 22.7372 54.0439 22.7897C54.0898 22.7227 54.1406 22.6592 54.1959 22.5997L54.5638 22.1544L54.9301 21.709C54.9753 21.6439 55.0261 21.5828 55.0821 21.5266Z" fill="#E0E0E0"/>
<path d="M54.1416 31.3501C54.4271 31.8027 54.7626 32.2218 55.1418 32.5995L54.1416 31.3501Z" fill="white"/>
<path d="M55.1418 32.5996C55.0781 32.5555 55.0195 32.5045 54.967 32.4476C54.8342 32.3122 54.7084 32.1702 54.59 32.022C54.4715 31.876 54.3609 31.7238 54.2586 31.566C54.2125 31.502 54.1733 31.4332 54.1416 31.3608C54.1942 31.4194 54.2415 31.4825 54.283 31.5493C54.3666 31.6679 54.4851 31.829 54.6219 32.0053C54.7587 32.1816 54.8925 32.3291 54.9882 32.437C55.0433 32.4874 55.0946 32.5417 55.1418 32.5996Z" fill="#E0E0E0"/>
<path d="M47.4375 32.5662L48.4346 31.335L47.4375 32.5662Z" fill="white"/>
<path d="M48.4346 31.335C48.285 31.5524 48.1242 31.762 47.9528 31.9627C47.6761 32.3032 47.4451 32.5707 47.4375 32.5707C47.5868 32.3526 47.7477 32.1425 47.9193 31.9414C48.0808 31.7307 48.2528 31.5283 48.4346 31.335Z" fill="#E0E0E0"/>
<path d="M47.4375 21.5266C47.6099 21.7104 47.7718 21.9037 47.9224 22.1057C48.0848 22.3004 48.237 22.5033 48.3784 22.7137C48.206 22.53 48.0441 22.3366 47.8935 22.1346C47.7303 21.9406 47.5781 21.7376 47.4375 21.5266Z" fill="#E0E0E0"/>
<path d="M52.3284 24.4797H50.4102V29.9259H52.3284V24.4797Z" fill="#E0E0E0"/>
<path d="M40.2792 52.4401C39.9325 52.5547 39.6124 52.7379 39.3382 52.979C39.064 53.22 38.8412 53.5139 38.6832 53.8431C38.3716 54.5043 38.2157 55.2281 38.2272 55.9589C38.2089 57.368 38.8184 58.8697 39.5268 60.0873C40.8264 59.2148 41.3219 57.4698 41.518 56.5685C41.822 55.1427 41.518 52.3809 40.2807 52.4401" fill="#F5F5F5"/>
<path d="M37.8765 62.2093C38.0071 61.822 38.0329 61.407 37.9512 61.0066C37.8695 60.6061 37.6833 60.2344 37.4114 59.9293C37.1352 59.6295 36.8022 59.3878 36.4316 59.2181C36.061 59.0485 35.6603 58.9544 35.253 58.9413C34.8775 58.9215 34.4611 58.9793 34.2087 59.2589C34.0989 59.3968 34.0279 59.5615 34.003 59.736C33.9782 59.9105 34.0004 60.0885 34.0674 60.2515C34.2061 60.5767 34.4285 60.8594 34.7119 61.0708C35.6436 61.8308 36.6879 62.4038 37.8765 62.2062" fill="#F5F5F5"/>
<path d="M38.8508 65.596C38.8682 65.2852 38.854 64.9735 38.8082 64.6657C38.7711 64.3273 38.6935 63.9946 38.5772 63.6747C38.4469 63.2814 38.291 62.897 38.1105 62.5241C37.7776 61.839 37.2805 61.2469 36.6635 60.8004C36.4726 60.67 36.2689 60.5595 36.0555 60.4706C35.9794 60.434 35.8977 60.4104 35.8138 60.4006C35.8016 60.4265 36.1406 60.5526 36.592 60.8901C37.1691 61.3499 37.6364 61.9325 37.96 62.5955C38.137 62.9626 38.2938 63.3391 38.4297 63.7233C38.5486 64.0328 38.6352 64.3537 38.6881 64.6809C38.7824 65.2448 38.8264 65.599 38.8508 65.596Z" fill="#E0E0E0"/>
<path d="M40.326 54.5681C40.2773 54.7167 40.2417 54.8693 40.2196 55.0241C40.1618 55.3281 40.0843 55.7537 39.9931 56.2872C39.8092 57.3512 39.5736 58.8317 39.3517 60.4703C39.1297 62.1088 38.9732 63.5969 38.882 64.6776C38.8364 65.2172 38.8045 65.6535 38.7878 65.956C38.7697 66.1124 38.7667 66.2702 38.7786 66.4272C38.8154 66.2744 38.8388 66.1188 38.8485 65.962C38.8865 65.6322 38.9352 65.202 39.0005 64.6883C39.1206 63.6121 39.2954 62.1271 39.5158 60.4916C39.7362 58.856 39.9551 57.4029 40.1101 56.304C40.1831 55.7902 40.2424 55.3616 40.288 55.0348C40.314 54.8806 40.3267 54.7245 40.326 54.5681Z" fill="#E0E0E0"/>
<path d="M39.5724 62.9662C39.9314 62.1846 40.4715 61.4998 41.148 60.9685C41.8244 60.4372 42.6176 60.0747 43.4621 59.911C43.8907 59.832 44.4197 59.8472 44.6553 60.215C44.8909 60.5829 44.6841 61.0723 44.4242 61.431C43.868 62.1542 43.1102 62.6967 42.2463 62.9902C41.3824 63.2837 40.451 63.315 39.5693 63.0802" fill="#F5F5F5"/>
<path d="M42.8643 61.0435C42.7815 61.0474 42.6999 61.0648 42.6226 61.0951C42.4706 61.1377 42.2502 61.2122 41.9842 61.311C41.2807 61.5666 40.6304 61.95 40.066 62.4418C39.7617 62.7229 39.5051 63.0514 39.306 63.4146C39.1468 63.7127 39.0296 64.0314 38.9579 64.3616C38.9091 64.5825 38.8806 64.8074 38.8728 65.0334C38.8588 65.1154 38.8588 65.1992 38.8728 65.2812C38.9047 65.2812 38.9169 64.9301 39.0582 64.389C39.2439 63.6843 39.6292 63.0482 40.1679 62.5574C40.7211 62.0799 41.3471 61.694 42.0222 61.4143C42.5466 61.1879 42.8765 61.0678 42.8643 61.0435Z" fill="#E0E0E0"/>
<path d="M69.2487 25.8038C69.2487 25.8038 67.6558 25.3341 67.0113 28.9958C66.3668 32.6574 66.3151 34.6745 66.3151 34.6745C66.3151 34.6745 66.0917 35.4694 65.5019 35.1746C64.9122 34.8797 63.9105 33.8415 63.2037 34.3006C62.4695 34.7763 62.4802 35.7552 63.038 37.0259C63.5959 38.2966 64.71 41.1299 64.8134 41.3853C64.9167 41.6406 64.8803 42.0617 64.4471 41.9264C64.0139 41.7911 61.2551 40.1282 60.5407 41.4962C59.8263 42.8642 61.9634 46.1414 62.1899 46.5122C62.4163 46.8831 62.3905 47.0686 62.2324 47.2236C62.0743 47.3786 61.1988 46.7326 60.3932 46.2918C59.5876 45.851 58.5768 45.4817 58.2333 46.2994C57.8898 47.1172 58.5373 49.8745 62.4619 53.4784L64.3863 55.0288L66.7164 54.1715C71.591 52.0314 73.1004 49.6358 73.0426 48.7497C72.9849 47.8635 71.9057 47.8802 71.0013 48.0322C70.0969 48.1842 69.0587 48.5171 68.9584 48.318C68.8581 48.1189 68.8976 47.9289 69.2305 47.6583C69.5634 47.3878 72.6474 44.9679 72.4149 43.4525C72.1823 41.937 69.0299 42.6165 68.5754 42.6043C68.1209 42.5922 68.2303 42.1802 68.4036 41.975C68.5769 41.7698 70.5574 39.4488 71.4968 38.4258C72.4362 37.4029 72.763 36.4818 72.2234 35.7932C71.7035 35.129 70.4176 35.7932 69.7655 35.8753C69.1134 35.9574 69.1575 35.1396 69.1575 35.1396C69.1575 35.1396 69.7655 33.2153 70.3386 29.5399C70.9116 25.8646 69.2138 25.8007 69.2138 25.8007" fill="#F5F5F5"/>
<path d="M68.6678 29.0852C68.6678 29.0852 68.6678 29.111 68.6602 29.1627L68.6283 29.3892C68.5979 29.5914 68.5538 29.8847 68.4991 30.2586C68.3851 31.0186 68.2133 32.107 67.9959 33.4506C67.5612 36.1486 66.9319 39.8696 66.2191 43.9782C65.5062 48.0867 64.8663 51.8062 64.4179 54.5011C64.1944 55.8463 64.0135 56.9331 63.8889 57.6931C63.8266 58.067 63.7779 58.3589 63.7369 58.561C63.7202 58.6568 63.708 58.7313 63.6974 58.786C63.6867 58.8407 63.6807 58.862 63.6807 58.862C63.6807 58.862 63.6807 58.8362 63.6898 58.7845C63.6989 58.7328 63.708 58.6553 63.7202 58.558C63.7506 58.3558 63.7947 58.0625 63.8494 57.6886C63.9634 56.9286 64.1351 55.8402 64.3525 54.4966C64.7872 51.7986 65.4165 48.0761 66.1309 43.9675C66.8453 39.859 67.4883 36.141 67.9443 33.44C68.1662 32.0948 68.3471 31.008 68.4732 30.248L68.6176 29.3801L68.6571 29.1551C68.6595 29.1316 68.663 29.1083 68.6678 29.0852Z" fill="#E0E0E0"/>
<path d="M64.5479 35.8145C64.5895 35.8573 64.6262 35.9047 64.6573 35.9558C64.7242 36.0501 64.8093 36.1884 64.9279 36.3601C65.1513 36.7052 65.4477 37.1885 65.7638 37.7281L66.5679 39.1159L66.8126 39.5339C66.8474 39.5805 66.8755 39.6316 66.8962 39.6859C66.854 39.6437 66.8167 39.5968 66.7853 39.5461C66.7199 39.4518 66.6333 39.3135 66.5178 39.1402C66.2974 38.7921 66.007 38.3042 65.6909 37.7646L64.8777 36.3829C64.7804 36.2188 64.6968 36.0789 64.6299 35.9649C64.5961 35.9186 64.5685 35.868 64.5479 35.8145Z" fill="#E0E0E0"/>
<path d="M67.1271 39.6723C67.1134 39.6526 68.0847 38.999 69.2961 38.2101C70.5076 37.4212 71.4971 36.7995 71.5108 36.8178C71.5245 36.836 70.5517 37.4927 69.3418 38.28C68.1318 39.0674 67.1393 39.6891 67.1271 39.6723Z" fill="#E0E0E0"/>
<path d="M65.75 45.9287C65.8048 45.9017 65.8624 45.8808 65.9218 45.8664L66.396 45.722C66.7958 45.5989 67.349 45.4286 67.951 45.2173C68.5529 45.0061 69.094 44.8009 69.4846 44.6473L69.9406 44.4665C69.9961 44.4395 70.0548 44.42 70.1154 44.4087C70.065 44.4433 70.011 44.4723 69.9543 44.4953C69.8479 44.547 69.6944 44.6185 69.4983 44.7021C69.1153 44.8693 68.5772 45.0866 67.9783 45.2964C67.3794 45.5061 66.817 45.6703 66.4127 45.7782C66.209 45.8314 66.0449 45.8725 65.9294 45.8983C65.871 45.9156 65.8108 45.9258 65.75 45.9287Z" fill="#E0E0E0"/>
<path d="M62.6494 42.9553C62.698 42.9842 62.743 43.0189 62.7832 43.0587C62.8652 43.1286 62.9838 43.232 63.1267 43.3627C63.4155 43.6226 63.8092 43.9844 64.2409 44.3872C64.6725 44.79 65.0601 45.1593 65.3383 45.4299C65.4766 45.5636 65.5876 45.6746 65.6636 45.7521C65.7055 45.79 65.7432 45.8323 65.776 45.8783C65.7269 45.8508 65.6818 45.8165 65.6423 45.7764C65.5587 45.7065 65.4416 45.6016 65.2972 45.4724C65.01 45.214 64.6148 44.8523 64.1831 44.448C63.7514 44.0436 63.3638 43.6758 63.0872 43.4068C62.9473 43.2715 62.8364 43.162 62.7604 43.083C62.718 43.0454 62.6807 43.0025 62.6494 42.9553Z" fill="#E0E0E0"/>
<path d="M60.7314 48.3269C60.7929 48.3652 60.8499 48.4101 60.9017 48.4607L61.344 48.8483C61.7149 49.1781 62.2226 49.6371 62.7819 50.1494C63.3413 50.6616 63.8459 51.1283 64.2031 51.4687L64.6272 51.8761C64.6828 51.9216 64.7338 51.9725 64.7792 52.0281C64.7186 51.9887 64.6616 51.9439 64.609 51.8943L64.1667 51.5067C63.7958 51.1769 63.2881 50.7163 62.7287 50.2056C62.1694 49.6949 61.6647 49.2267 61.3091 48.8863L60.8804 48.488C60.8252 48.4397 60.7753 48.3857 60.7314 48.3269Z" fill="#E0E0E0"/>
<path d="M64.7031 51.9173C64.772 51.8832 64.8437 51.8552 64.9174 51.8337L65.5133 51.6285C66.0149 51.4552 66.708 51.2135 67.4665 50.9262C68.225 50.6389 68.9044 50.3623 69.3938 50.1586L69.976 49.9169C70.0459 49.884 70.1186 49.8575 70.1934 49.8379C70.1295 49.8815 70.0612 49.9181 69.9897 49.9473C69.8559 50.0127 69.6614 50.0993 69.4182 50.2118C68.9333 50.4307 68.2554 50.7165 67.4954 51.0037C66.7354 51.291 66.0392 51.5281 65.5315 51.6801C65.2777 51.7592 65.0755 51.82 64.9235 51.8595C64.8521 51.8859 64.7783 51.9053 64.7031 51.9173Z" fill="#E0E0E0"/>
<path d="M15.7834 58.2692C19.293 56.2659 20.433 52.0585 20.6474 48.2023C20.6838 47.5578 20.8161 46.889 20.5622 46.2977C20.3084 45.7064 19.632 45.2565 19.0331 45.4739C18.5361 45.6548 18.2731 46.1898 17.9691 46.6245C17.5566 47.2031 16.9892 47.6536 16.3321 47.9241C15.9034 48.0989 15.3866 48.181 15.0036 47.9241C14.4777 47.5669 14.4822 46.7963 14.5476 46.1594C14.6682 44.9677 14.7842 43.7781 14.8957 42.5904C14.958 41.9536 15.0203 41.3015 14.8774 40.6783C14.7346 40.0551 14.347 39.4501 13.7557 39.2252C13.1644 39.0002 12.3801 39.2799 12.1946 39.894C12.1186 40.1493 12.146 40.4229 12.105 40.6859C12.0639 40.9488 11.9119 41.2316 11.649 41.2832C11.386 41.3349 11.1489 41.1312 10.9756 40.926C10.3676 40.2208 10.0043 39.3498 9.66232 38.4849C9.32032 37.6201 8.992 36.74 8.45848 35.9815C7.92496 35.223 7.14976 34.5922 6.2408 34.4615C5.33184 34.3308 4.30584 34.802 3.99272 35.6775C3.6796 36.553 4.11888 37.5167 4.62352 38.298C5.37622 39.4542 6.29154 40.4959 7.34128 41.3912C7.52976 41.5523 7.73344 41.7271 7.79728 41.9703C7.89608 42.408 7.45376 42.7941 7.02208 42.896C6.53112 43.01 6.01888 42.9127 5.51728 42.9264C5.01568 42.94 4.45328 43.1088 4.22376 43.5632C3.90152 44.191 4.38488 44.9312 4.8804 45.4222C5.87346 46.4181 7.03095 47.2352 8.30192 47.8375C8.75792 48.0518 9.2352 48.2479 9.58328 48.6127C9.93136 48.9775 10.1077 49.5718 9.83864 50.0004C9.5696 50.4291 8.96768 50.5203 8.48432 50.3835C8.00096 50.2467 7.586 49.9396 7.13304 49.7208C6.2864 49.3088 5.14792 49.2648 4.51712 49.9716C4.10216 50.4367 4.0064 51.1268 4.13864 51.7378C4.27088 52.3488 4.60224 52.896 4.96096 53.4098C6.21496 55.1882 7.89304 56.6808 9.86448 57.5731C11.8359 58.4653 13.701 58.8286 15.7925 58.2753" fill="#F5F5F5"/>
<path d="M15.5741 61.1239C15.558 59.3246 15.3702 57.531 15.0132 55.7674C14.5662 53.6142 13.9963 51.4883 13.3063 49.4001L12.7682 47.757C12.5919 47.2174 12.4171 46.6824 12.2134 46.1686C11.8218 45.1845 11.3757 44.2228 10.8773 43.2882C10.4076 42.3929 9.93034 41.56 9.47738 40.7848C9.02442 40.0096 8.58514 39.2952 8.15954 38.6568C7.49158 37.655 6.74547 36.7076 5.92818 35.8235C5.63938 35.5104 5.40834 35.2748 5.24874 35.1167L5.06634 34.9389C5.04616 34.9179 5.0243 34.8985 5.00098 34.8811C5.0181 34.9042 5.0369 34.9261 5.05722 34.9465L5.23202 35.1334C5.38402 35.2961 5.61202 35.5377 5.89474 35.8554C6.69729 36.7506 7.43149 37.7048 8.09114 38.71C8.51218 39.3438 8.94386 40.0597 9.39378 40.838C9.8437 41.6162 10.3179 42.4492 10.7831 43.3429C11.2777 44.2733 11.7217 45.2298 12.1131 46.2081C12.3137 46.7189 12.487 47.2493 12.6618 47.7905C12.8366 48.3316 13.0144 48.8788 13.1953 49.4351C13.8829 51.5181 14.4543 53.6377 14.9068 55.7841C15.2673 57.5405 15.4627 59.3266 15.4905 61.1193" fill="#E0E0E0"/>
<path d="M12.1855 46.1611C12.2259 46.0765 12.2555 45.9871 12.2737 45.8951C12.3239 45.7218 12.3862 45.4695 12.4607 45.1549C12.6127 44.5271 12.7844 43.6546 12.9744 42.6909C13.1644 41.7273 13.3514 40.8593 13.5095 40.2361C13.587 39.9321 13.6523 39.6722 13.701 39.4989C13.7307 39.4101 13.751 39.3184 13.7618 39.2253C13.7167 39.3076 13.6815 39.3948 13.6569 39.4853C13.5961 39.6555 13.5171 39.9048 13.4289 40.2149C13.2495 40.8335 13.0489 41.7029 12.8589 42.6681L12.3786 45.1442C12.3193 45.4406 12.2691 45.6914 12.2266 45.8921C12.2045 45.9803 12.1907 46.0703 12.1855 46.1611Z" fill="#E0E0E0"/>
<path d="M4.12012 43.8764C4.22586 43.9085 4.33419 43.9314 4.44388 43.9448C4.65364 43.9828 4.95612 44.0361 5.327 44.1151C6.0718 44.2671 7.09172 44.5072 8.20588 44.8249C9.32004 45.1426 10.3156 45.477 11.03 45.7369C11.3872 45.8646 11.6745 45.9756 11.8721 46.0516C11.9727 46.0977 12.0776 46.1338 12.1852 46.1595C12.0922 46.0992 11.9934 46.0483 11.8904 46.0075C11.6973 45.9178 11.4146 45.7947 11.0589 45.6564C10.3506 45.3737 9.35652 45.0286 8.2378 44.7079C7.28493 44.4317 6.31844 44.205 5.3422 44.0284C4.96828 43.9616 4.66276 43.9205 4.45148 43.8962C4.34198 43.8784 4.23095 43.8718 4.12012 43.8764Z" fill="#E0E0E0"/>
<path d="M14.9248 55.6081C14.9512 55.5796 14.9733 55.5473 14.9902 55.5123L15.1589 55.2281C15.3109 54.9818 15.5024 54.6201 15.7426 54.1641C16.2244 53.2612 16.8522 51.992 17.524 50.5814C18.1958 49.1709 18.8099 47.8971 19.2735 46.9851L19.8238 45.9059L19.9758 45.611C19.9945 45.5774 20.0093 45.5417 20.0199 45.5046C19.9942 45.5332 19.9722 45.5648 19.9545 45.5989L19.7873 45.8831C19.6429 46.1309 19.4438 46.4911 19.2021 46.9471C18.7202 47.8515 18.094 49.1207 17.4206 50.5313C16.7473 51.9418 16.1347 53.2141 15.6726 54.1276L15.1209 55.2068L14.9689 55.5017C14.9493 55.5349 14.9345 55.5707 14.9248 55.6081Z" fill="#E0E0E0"/>
<path d="M4.3418 51.0933C4.37393 51.1165 4.40926 51.1349 4.44668 51.148L4.75068 51.2833L5.88308 51.7697C6.84068 52.1785 8.16307 52.7607 9.60707 53.4052C11.0511 54.0497 12.3796 54.6212 13.3463 55.0103C13.8281 55.2064 14.2203 55.3599 14.4939 55.4663L14.8085 55.5818C14.8447 55.5967 14.8824 55.6074 14.921 55.6137C14.8896 55.5903 14.8547 55.5718 14.8176 55.559L14.5136 55.4237L13.3752 54.9328C12.4176 54.5224 11.0952 53.9402 9.65115 53.2957C8.20715 52.6513 6.87716 52.0797 5.91196 51.6906C5.43012 51.4961 5.03796 51.341 4.76436 51.2346L4.44972 51.1206C4.41494 51.1073 4.37872 51.0981 4.3418 51.0933Z" fill="#E0E0E0"/>
<path d="M26.5749 12.4187V24.9648H8.55681L7.90625 12.5069L26.5749 12.4187Z" fill="#E0E0E0"/>
<path d="M7.90625 12.5082L7.90625 24.9387H25.9243V12.5082L7.90625 12.5082Z" fill="white"/>
<path d="M26.0111 25.0239H7.82129V12.4216H26.0111V25.0239ZM7.99305 24.8522H25.8394V12.5919H7.99305V24.8522Z" fill="#E0E0E0"/>
<path d="M23.9731 14.051H9.8584V23.3929H23.9731V14.051Z" fill="white"/>
<path d="M23.9742 14.0509H23.9043H23.7113H22.9361L20.0268 14.0616L9.8656 14.0813L9.90664 14.0403C9.90664 16.8949 9.90664 20.058 9.90664 23.3822L9.86104 23.3381L23.9773 23.3473L23.9408 23.3822C23.9499 20.5398 23.956 18.2142 23.9606 16.5863C23.9606 15.7746 23.9606 15.1408 23.9697 14.7061C23.9697 14.4917 23.9697 14.3261 23.9697 14.2121C23.9697 14.0981 23.9697 14.0403 23.9697 14.0403C23.9697 14.0403 23.9697 14.095 23.9697 14.2045C23.9697 14.3139 23.9697 14.4796 23.9697 14.6924C23.9697 15.1241 23.9697 15.7564 23.9788 16.5635C23.9788 18.1914 23.9894 20.5307 23.997 23.3822V23.4187H23.9621L9.84584 23.4278H9.80176V23.3822C9.80176 20.058 9.80176 16.8949 9.80176 14.0403V13.9993H9.84128L20.0253 14.0205L22.9254 14.0312H23.6854H23.8815L23.9742 14.0509Z" fill="#E0E0E0"/>
<path d="M7.90357 12.4717C8.01231 12.5266 8.11432 12.5939 8.20757 12.6723C8.39301 12.8061 8.64381 12.9946 8.91437 13.2119C9.18493 13.4293 9.42357 13.633 9.59229 13.7865C9.68888 13.8633 9.77521 13.9522 9.84917 14.051C9.83245 14.0707 9.39317 13.7135 8.85813 13.2803C8.32309 12.8471 7.89141 12.493 7.90357 12.4717Z" fill="#E0E0E0"/>
<path d="M25.9263 12.5066C25.6298 12.798 25.3129 13.0677 24.9778 13.3137C24.6616 13.5832 24.3263 13.8296 23.9746 14.0509C24.273 13.7599 24.5915 13.4902 24.9276 13.2438C25.2426 12.9746 25.5763 12.7283 25.9263 12.5066Z" fill="#E0E0E0"/>
<path d="M25.9112 24.9402L23.9033 23.3108L25.9112 24.9402Z" fill="white"/>
<path d="M23.9028 23.3108C24.2636 23.5478 24.6083 23.8083 24.9349 24.0906C25.2795 24.3508 25.6056 24.6347 25.9107 24.9402C25.5496 24.7038 25.2048 24.4433 24.8787 24.1605C24.3193 23.7121 23.8861 23.3306 23.9028 23.3108Z" fill="#E0E0E0"/>
<path d="M7.90332 24.9385C8.19693 24.6499 8.51086 24.3827 8.84268 24.139C9.15592 23.8727 9.4876 23.6289 9.83524 23.4094C9.54238 23.6983 9.22894 23.9655 8.8974 24.2089C8.58367 24.4753 8.25148 24.7191 7.90332 24.9385Z" fill="#E0E0E0"/>
<path d="M12.7246 16.9634V20.0916H21.606V16.9634H12.7246Z" fill="#E0E0E0"/>
<path d="M68.1807 9.50317H58.5469V23.4674H68.1807V9.50317Z" fill="#E0E0E0"/>
<path d="M67.6982 9.50317H58.0645V23.4674H67.6982V9.50317Z" fill="#F5F5F5"/>
<path d="M66.5015 11.0156H59.2617V21.9551H66.5015V11.0156Z" fill="white"/>
<path d="M66.503 21.955C66.503 21.955 66.503 21.9368 66.503 21.9018V21.7498C66.503 21.6115 66.503 21.4109 66.503 21.1494C66.503 20.625 66.503 19.862 66.503 18.8968C66.503 16.9679 66.4954 14.2349 66.4908 11.0186L66.5152 11.0429H59.2617L59.2891 11.0171C59.2891 15.1439 59.2891 18.9485 59.2891 21.9611L59.2678 21.9398L64.5376 21.952H65.9938H66.3768H66.5091H66.3814H66.0029H64.5513L59.2678 21.9626H59.248V21.9414C59.248 18.9333 59.248 15.1287 59.248 10.9973V10.9897H66.544V11.0141C66.544 14.238 66.5364 16.974 66.5334 18.9074C66.5334 19.8696 66.5334 20.6326 66.5258 21.1555C66.5258 21.4139 66.5258 21.6115 66.5258 21.7498V21.9018C66.503 21.9383 66.503 21.955 66.503 21.955Z" fill="#E0E0E0"/>
<path d="M67.7268 9.50317C67.6779 9.59172 67.6204 9.67522 67.555 9.75245C67.4426 9.90445 67.2845 10.1066 67.099 10.327C66.9136 10.5474 66.7479 10.742 66.6218 10.8803C66.5593 10.9582 66.4902 11.0304 66.415 11.0961C66.4692 11.0108 66.5307 10.9305 66.599 10.856L67.0626 10.2936C67.2374 10.0793 67.397 9.88621 67.5262 9.72965C67.5865 9.6486 67.6536 9.57284 67.7268 9.50317Z" fill="#E0E0E0"/>
<path d="M66.5391 21.9199C66.8996 22.492 67.3233 23.0217 67.8022 23.4992L66.5391 21.9199Z" fill="white"/>
<path d="M67.8018 23.4992C67.7217 23.4401 67.6478 23.3728 67.5814 23.2986C67.4523 23.1678 67.2775 22.9809 67.1042 22.762C66.9552 22.5745 66.8157 22.3797 66.6862 22.1783C66.6269 22.0976 66.5759 22.011 66.5342 21.9199C66.5996 21.9947 66.6591 22.0745 66.712 22.1586C66.8184 22.3106 66.9674 22.5112 67.1407 22.7286C67.3139 22.9459 67.4811 23.1374 67.6042 23.2727C67.6755 23.3434 67.7415 23.4191 67.8018 23.4992Z" fill="#E0E0E0"/>
<path d="M58.0635 23.4569L59.3251 21.9004L58.0635 23.4569Z" fill="white"/>
<path d="M59.3245 21.9004C59.1362 22.1761 58.9333 22.4414 58.7165 22.6953C58.3669 23.124 58.0751 23.466 58.0645 23.4553C58.2531 23.1799 58.4561 22.9146 58.6725 22.6604C58.8765 22.3959 59.0941 22.1423 59.3245 21.9004Z" fill="#E0E0E0"/>
<path d="M58.0635 9.50317C58.2791 9.7363 58.4821 9.98087 58.6715 10.2358C58.8753 10.4788 59.0661 10.7325 59.243 10.9958C59.0268 10.7631 58.8238 10.5185 58.635 10.2632C58.4311 10.0202 58.2404 9.76647 58.0635 9.50317Z" fill="#E0E0E0"/>
<path d="M64.2467 13.2363H61.8223V20.1189H64.2467V13.2363Z" fill="#E0E0E0"/>
<path d="M70.2134 66.4238C70.2134 66.4466 55.4056 66.4633 37.1458 66.4633C18.8861 66.4633 4.0752 66.4527 4.0752 66.4238C4.0752 66.3949 18.8785 66.3843 37.1458 66.3843C55.4132 66.3843 70.2134 66.4086 70.2134 66.4238Z" fill="#263238"/>
<path d="M51.6347 40.1279C51.7476 40.5869 51.7344 41.0679 51.5966 41.52C51.4589 41.9721 51.2015 42.3787 50.8519 42.6967C50.3883 43.1071 49.7879 43.3442 49.3623 43.7957C49.0988 44.0959 48.9177 44.4592 48.8364 44.8503C48.7552 45.2413 48.7766 45.6467 48.8987 46.027C49.0278 46.4046 49.2322 46.752 49.4995 47.0482C49.7668 47.3445 50.0914 47.5835 50.4536 47.7507C50.947 47.9812 51.4878 48.0917 52.032 48.0732C52.5762 48.0547 53.1083 47.9078 53.5849 47.6443C54.7598 46.9801 55.4438 45.647 55.6171 44.3079C55.7904 42.9688 55.5183 41.613 55.1611 40.3103" fill="#263238"/>
<path d="M66.4531 63.7413C67.6691 63.5422 68.8091 63.913 70.013 64.179C70.3331 64.2739 70.671 64.2921 70.9994 64.2322C71.5208 64.0985 71.8917 63.5908 71.9722 63.0588C72.0374 62.5927 71.9292 62.1189 71.6682 61.7273C71.5635 61.5585 71.4209 61.4164 71.2518 61.3123C71.0705 61.2215 70.8721 61.1697 70.6696 61.1603C69.9319 61.1009 69.1918 61.2405 68.5264 61.5646C67.8629 61.8872 67.261 62.3235 66.748 62.8536C66.4926 63.109 66.5686 63.4023 66.4562 63.7458" fill="#263238"/>
<path d="M41.8004 44.1149C41.6054 42.9554 41.6291 41.7697 41.8703 40.6189C41.9723 40.0562 42.1785 39.5175 42.4783 39.0305C42.5805 38.8489 42.736 38.703 42.9237 38.6125C43.0601 38.5672 43.2063 38.5607 43.3462 38.5937C43.486 38.6268 43.6139 38.698 43.7156 38.7995C43.8455 38.9347 43.9452 39.0959 44.0081 39.2725C44.0709 39.4491 44.0956 39.6371 44.0804 39.8239C44.0533 40.1976 43.9618 40.5637 43.8098 40.9062C43.3402 42.107 42.5939 43.1041 41.7959 44.1134" fill="#263238"/>
<path d="M65.3602 48.5093C65.6353 48.7054 71.7441 61.864 71.7441 61.864C71.2528 61.6541 70.7087 61.601 70.1862 61.712L69.8548 61.8001C69.2617 61.9596 68.6993 62.2164 68.1904 62.5601L66.447 63.7397C66.378 63.7 66.3195 63.6444 66.2764 63.5775C66.2333 63.5106 66.2068 63.4343 66.1992 63.3551V63.3049L61.4629 55.176L65.3602 48.5093Z" fill="#FF8006"/>
<path d="M42.422 27.5605L44.0514 36.8219C44.5758 38.0683 50.6908 45.6197 50.6908 45.6197L48.6692 52.1162L40.6375 41.1342C39.8917 40.3367 39.486 39.28 39.5066 38.1884L39.8197 28.2932L42.422 27.5605Z" fill="#FFBE9D"/>
<path d="M51.0932 44.168L55.2869 44.4857L58.944 45.0526C58.944 45.0526 65.36 46.7383 65.36 47.4405C65.36 47.6746 63.6089 53.2515 62.624 56.5925C62.3825 57.4039 62.1856 58.228 62.0342 59.0609L65.36 66.4238H49.5778V59.6735C49.5778 59.6735 48.5138 50.8073 48.7007 49.5959C48.8877 48.3845 51.0932 44.168 51.0932 44.168Z" fill="#FF8006"/>
<path d="M40.4326 23.8182C40.4573 22.8749 40.5538 21.9348 40.7214 21.0062C40.7442 20.8739 40.7989 20.7143 40.9312 20.7022C41.0953 20.6809 41.1789 20.8922 41.2002 21.0563C41.346 22.1763 41.2992 23.3129 41.0619 24.417" fill="#EB996E"/>
<path d="M42.3015 43.4295C44.1012 41.8214 44.162 39.0352 44.0085 36.8175C43.9784 36.6556 44.003 36.4882 44.0784 36.3418C44.2502 36.097 44.6682 36.1898 44.8384 36.436C45.0086 36.6822 44.9904 37.006 44.9813 37.3039C45.074 37.0516 45.4692 37.0531 45.6546 37.2477C45.8401 37.4422 45.872 37.7356 45.8933 38.0077L45.9526 38.7494L51.2102 43.7654C51.2102 43.7654 51.3546 43.3094 51.7407 43.5724C52.1268 43.8354 52.3761 44.3902 52.3761 44.3902L48.6718 52.475L41.7969 44.115C41.9291 43.8621 42.0993 43.6309 42.3015 43.4295Z" fill="#FF8006"/>
<path d="M49.4373 49.0244C48.8887 49.7241 48.479 50.5222 48.2304 51.3759C47.9826 52.2351 48.0097 53.1503 48.3079 53.9933C48.5386 54.5766 48.9166 55.0901 49.4048 55.4838C49.8931 55.8776 50.4751 56.138 51.0941 56.2398" fill="#FF8006"/>
<path d="M66.453 63.7411L66.2539 66.4239H70.1497L71.0617 61.6739C69.875 61.6076 68.7045 61.9744 67.7678 62.706L66.453 63.7411Z" fill="#FFBE9D"/>
<path d="M44.1338 42.835C44.1558 42.7612 44.1843 42.6894 44.2189 42.6207C44.2797 42.4869 44.3618 42.2893 44.4545 42.0431C44.5472 41.7968 44.646 41.4989 44.7388 41.1645C44.8351 40.7995 44.9117 40.4296 44.9683 40.0564C45.0208 39.683 45.0528 39.307 45.064 38.9301C45.064 38.582 45.064 38.2689 45.0428 38.0059C45.0215 37.743 45.0017 37.5317 44.982 37.3858C44.9689 37.3099 44.9617 37.2332 44.9607 37.1562C44.9854 37.2293 45.0027 37.3047 45.0124 37.3812C45.0518 37.5863 45.0807 37.7933 45.099 38.0014C45.1287 38.3105 45.1414 38.6211 45.137 38.9316C45.1254 39.693 45.0151 40.4497 44.8087 41.1827C44.7238 41.4815 44.6223 41.7753 44.5047 42.0628C44.4044 42.3091 44.3147 42.5036 44.2447 42.6343C44.2129 42.7039 44.1758 42.771 44.1338 42.835Z" fill="#263238"/>
<path d="M45.2783 41.4229C45.3279 41.2922 45.3847 41.1643 45.4486 41.0399C45.7147 40.423 45.8691 39.7637 45.9046 39.0928C45.9043 38.9532 45.912 38.8136 45.9274 38.6748C45.9573 38.8125 45.9685 38.9536 45.9608 39.0943C45.9556 39.776 45.7999 40.4482 45.5048 41.0627C45.4468 41.1929 45.3705 41.3142 45.2783 41.4229Z" fill="#263238"/>
<path d="M51.4526 45.6273C51.4404 45.6197 51.5042 45.5209 51.5407 45.3415C51.5833 45.1071 51.5698 44.866 51.5012 44.6378C51.429 44.4081 51.3411 44.1836 51.2382 43.9659C51.1902 43.8758 51.1545 43.7797 51.1318 43.6802C51.192 43.7614 51.243 43.8491 51.2838 43.9416C51.4041 44.1557 51.5015 44.3819 51.5742 44.6165C51.6469 44.8566 51.6526 45.112 51.5909 45.3552C51.5718 45.4573 51.5238 45.5517 51.4526 45.6273Z" fill="#263238"/>
<path d="M50.5399 56.3343C50.5161 56.3244 50.4936 56.3117 50.473 56.2963L50.2936 56.1778C50.1416 56.0729 49.9151 55.9194 49.6507 55.7111C49.338 55.4703 49.0521 55.1967 48.7979 54.8949C48.4851 54.5212 48.2597 54.0824 48.1383 53.6105C48.0222 53.1384 47.9923 52.6492 48.0501 52.1665C48.0967 51.775 48.1838 51.3894 48.31 51.0158C48.3937 50.7641 48.4906 50.5171 48.6003 50.2756C48.6399 50.1905 48.6703 50.1236 48.6931 50.081C48.7031 50.0574 48.7159 50.0349 48.7311 50.0142C48.7023 50.1072 48.6683 50.1986 48.6292 50.2878C48.5608 50.461 48.462 50.7134 48.3632 51.0326C48.2465 51.4044 48.1661 51.7867 48.1231 52.1741C48.0701 52.648 48.101 53.1275 48.2143 53.5907C48.3326 54.0521 48.551 54.4818 48.8542 54.8493C49.103 55.1492 49.3816 55.4232 49.6856 55.667C49.944 55.8798 50.1614 56.0394 50.3119 56.1534L50.4821 56.2842C50.5216 56.3146 50.5414 56.3313 50.5399 56.3343Z" fill="#263238"/>
<path d="M59.1497 57.8377C59.1287 57.8488 59.1062 57.857 59.0828 57.862C59.0373 57.8742 58.9719 57.897 58.8852 57.9137C58.6403 57.9668 58.391 57.9968 58.1404 58.0033C57.3052 58.029 56.4813 57.804 55.7751 57.3572C55.0688 56.9105 54.5125 56.2626 54.1778 55.4969C54.0758 55.2679 53.9959 55.0297 53.9392 54.7855C53.9179 54.6989 53.9103 54.6335 53.9012 54.5849C53.8959 54.5614 53.8934 54.5375 53.8936 54.5134C53.9247 54.5993 53.9501 54.6872 53.9696 54.7764C54.2115 55.6941 54.7532 56.5046 55.5087 57.0791C56.2641 57.6536 57.1899 57.9591 58.1389 57.9471C58.387 57.9459 58.6346 57.9245 58.8792 57.8833C58.9685 57.8633 59.0588 57.8481 59.1497 57.8377Z" fill="#263238"/>
<path d="M61.568 60.8001C61.5467 60.8001 61.7473 59.9534 62.024 58.9228C62.3006 57.8923 62.5286 57.0608 62.5484 57.0669C62.5681 57.073 62.369 57.912 62.1 58.9426C61.8309 59.9732 61.5892 60.8001 61.568 60.8001Z" fill="#263238"/>
<path d="M63.6885 59.0077C63.6703 59.0183 63.0592 58.0197 62.3205 56.7763C61.5818 55.533 61.0042 54.5161 61.0239 54.5055C61.0437 54.4948 61.6532 55.4919 62.3919 56.7353C63.1307 57.9787 63.7143 58.9955 63.6885 59.0077Z" fill="#263238"/>
<path d="M69.5233 61.4688C69.5233 61.484 69.3014 61.5023 68.9548 61.5904C68.7524 61.6419 68.5538 61.7074 68.3605 61.7865C68.1247 61.8863 67.8971 62.0042 67.6795 62.1392C67.4649 62.2773 67.2616 62.4323 67.0715 62.6028C66.9166 62.7444 66.7718 62.8968 66.6383 63.0588C66.4103 63.3339 66.2979 63.5269 66.2842 63.5148C66.3025 63.4655 66.3265 63.4186 66.3556 63.3749C66.426 63.2505 66.5058 63.1316 66.5943 63.0192C66.7241 62.8513 66.8669 62.6937 67.0214 62.548C67.2125 62.371 67.4191 62.2113 67.6385 62.0707C67.8599 61.9332 68.0928 61.8152 68.3347 61.7181C68.5319 61.6402 68.7353 61.5787 68.9427 61.5342C69.0817 61.502 69.2229 61.4806 69.3652 61.4703C69.4176 61.4623 69.4708 61.4617 69.5233 61.4688Z" fill="#263238"/>
<path d="M70.2688 60.5537C70.2688 60.5705 70.0241 60.5401 69.6334 60.5735C69.4056 60.5941 69.1798 60.6337 68.9586 60.6921C68.4161 60.8361 67.9091 61.0901 67.469 61.4384C67.29 61.5808 67.1232 61.7379 66.9704 61.9081C66.7105 62.1999 66.5889 62.4127 66.5752 62.4051C66.5957 62.3513 66.6227 62.3002 66.6558 62.2531C66.6883 62.1944 66.7249 62.1381 66.7652 62.0844C66.8158 62.0108 66.8701 61.9397 66.9278 61.8716C67.0772 61.6932 67.2431 61.5293 67.4234 61.3821C67.6463 61.2034 67.8866 61.0476 68.1408 60.917C68.3966 60.7918 68.6645 60.693 68.9403 60.6221C69.1665 60.5653 69.3976 60.5302 69.6304 60.5173C69.719 60.5128 69.8078 60.5128 69.8964 60.5173C69.964 60.5175 70.0315 60.5216 70.0986 60.5294C70.1561 60.5303 70.2133 60.5385 70.2688 60.5537Z" fill="#263238"/>
<g opacity="0.3">
<path opacity="0.3" d="M54.0567 54.8369C53.6995 55.5148 53.9974 56.3417 54.3242 57.0364C54.5781 57.5744 54.8608 58.1201 55.3229 58.4956C55.5499 58.6812 55.8129 58.8178 56.0953 58.897C56.3777 58.9761 56.6733 58.9961 56.9638 58.9556C57.2542 58.915 57.5332 58.8149 57.7831 58.6614C58.033 58.508 58.2485 58.3046 58.4161 58.0639C57.4471 58.0495 56.5052 57.7423 55.7142 57.1826C54.9231 56.6229 54.3199 55.837 53.9838 54.9281" fill="black"/>
</g>
<g opacity="0.3">
<path opacity="0.3" d="M61.0346 54.5056C60.761 55.1577 60.9677 56.0499 61.2535 56.6959C61.5393 57.3419 61.8433 58.0639 61.6137 58.7343C61.5546 58.8533 61.5239 58.9844 61.5241 59.1173C61.5393 59.248 61.6761 59.3742 61.7992 59.3134C61.8628 59.2686 61.9069 59.2012 61.9223 59.1249C62.1381 58.4743 62.3545 57.8243 62.5713 57.1747" fill="black"/>
</g>
<path d="M46.6553 45.9191C46.6798 45.511 46.7305 45.1048 46.8073 44.7031C46.8589 44.2993 46.9366 43.8992 47.0398 43.5054C47.0169 43.9137 46.9661 44.32 46.8878 44.7214C46.8367 45.1253 46.759 45.5254 46.6553 45.9191Z" fill="#FAFAFA"/>
<path d="M45.0553 45.5831C45.0356 45.5953 44.7741 45.2305 44.4124 44.8109C44.0506 44.3914 43.7314 44.0768 43.7466 44.0601C44.0192 44.2594 44.2636 44.4946 44.4732 44.7593C44.7021 45.0075 44.8978 45.2844 45.0553 45.5831Z" fill="#FAFAFA"/>
<path d="M46.4291 41.6677C46.3833 41.7657 46.3256 41.8575 46.2573 41.9413C46.1418 42.104 45.9731 42.3213 45.777 42.5493C45.5809 42.7773 45.3924 42.9825 45.2511 43.1224C45.1802 43.2036 45.0989 43.2751 45.0094 43.3352C44.9927 43.32 45.3256 42.9597 45.7162 42.4976C46.1068 42.0356 46.4108 41.648 46.4291 41.6677Z" fill="#FAFAFA"/>
<path d="M45.8929 39.754C45.8701 39.7631 45.7834 39.5701 45.6162 39.3771C45.449 39.184 45.2697 39.0731 45.2818 39.0503C45.4399 39.0958 45.5784 39.1926 45.6755 39.3254C45.7924 39.441 45.8687 39.5914 45.8929 39.754Z" fill="#FAFAFA"/>
<path d="M44.5057 40.9335C44.3815 40.992 44.2475 41.0266 44.1105 41.0354C43.9776 41.0701 43.8392 41.0783 43.7031 41.0597C43.9601 40.9665 44.2325 40.9236 44.5057 40.9335Z" fill="#FAFAFA"/>
<path d="M48.004 42.6223C48.0074 42.3857 47.9906 42.1492 47.9538 41.9155C47.8909 41.6872 47.808 41.4649 47.7061 41.2512C47.8784 41.4283 47.9916 41.6546 48.0298 41.8987C48.0949 42.1369 48.0858 42.3893 48.004 42.6223Z" fill="#FAFAFA"/>
<path d="M49.8715 44.6316C49.5912 44.1841 49.2147 43.8046 48.7695 43.5205C49.0209 43.618 49.2489 43.7674 49.4388 43.9588C49.6286 44.1502 49.7761 44.3795 49.8715 44.6316Z" fill="#FAFAFA"/>
<path d="M46.8724 48.1185C46.4198 48.288 45.9185 48.2711 45.4785 48.0714C45.4861 48.0486 45.7825 48.1443 46.1732 48.155C46.5638 48.1656 46.8663 48.0957 46.8724 48.1185Z" fill="#FAFAFA"/>
<path d="M48.2808 48.8407C48.2595 48.8316 48.3781 48.482 48.4769 48.0382C48.5757 47.5943 48.6198 47.2265 48.6426 47.2295C48.6582 47.5076 48.6284 47.7864 48.5544 48.0549C48.5061 48.3298 48.4137 48.5952 48.2808 48.8407Z" fill="#FAFAFA"/>
<path d="M51.3552 48.9577C51.1148 48.7546 50.8925 48.5308 50.691 48.289C50.4686 48.0651 50.2652 47.8231 50.083 47.5654C50.3225 47.7697 50.5442 47.9939 50.7457 48.2357C50.968 48.4596 51.1718 48.7011 51.3552 48.9577Z" fill="#FAFAFA"/>
<path d="M52.7868 52.5099C52.6045 52.3776 52.4382 52.2246 52.2913 52.0539C52.1265 51.9008 51.9796 51.7295 51.8535 51.5432C52.0358 51.6755 52.2021 51.8285 52.349 51.9992C52.5153 52.1509 52.6623 52.3224 52.7868 52.5099Z" fill="#FAFAFA"/>
<path d="M50.1257 52.8488C49.9509 53.0348 49.7452 53.1891 49.5177 53.3048C49.3036 53.4473 49.0658 53.5503 48.8154 53.6088C48.8154 53.5875 49.1194 53.4568 49.4782 53.2425C49.8369 53.0282 50.1105 52.8306 50.1257 52.8488Z" fill="#FAFAFA"/>
<path d="M51.3513 56.228C51.3285 56.228 51.4197 55.8237 51.4653 55.3236C51.5109 54.8235 51.4972 54.4116 51.52 54.4116C51.5758 54.7125 51.584 55.0202 51.5443 55.3236C51.5291 55.6335 51.4639 55.9389 51.3513 56.228Z" fill="#FAFAFA"/>
<path d="M55.9585 53.4812C55.7074 53.3275 55.4847 53.1316 55.3003 52.9021C55.097 52.6899 54.9329 52.4434 54.8154 52.174C54.8352 52.1603 55.0434 52.4902 55.3596 52.8504C55.6758 53.2106 55.9737 53.4614 55.9585 53.4812Z" fill="#FAFAFA"/>
<path d="M57.6407 54.9145C57.6224 54.9008 57.8535 54.5846 58.1119 54.1788C58.3703 53.773 58.5603 53.4325 58.58 53.4431C58.4814 53.7195 58.3459 53.9813 58.1772 54.2214C58.0313 54.4761 57.8507 54.7094 57.6407 54.9145Z" fill="#FAFAFA"/>
<path d="M57.394 51.4065C56.875 51.3203 56.3659 51.1828 55.874 50.9961C56.1361 51.0273 56.3947 51.0833 56.6462 51.1633C56.903 51.2189 57.1536 51.3004 57.394 51.4065Z" fill="#FAFAFA"/>
<path d="M56.1677 57.5804C56.1407 57.341 56.1407 57.0994 56.1677 56.86C56.1696 56.6191 56.1971 56.3791 56.2497 56.144C56.2771 56.3834 56.2771 56.6251 56.2497 56.8645C56.2483 57.1054 56.2207 57.3455 56.1677 57.5804Z" fill="#FAFAFA"/>
<path d="M57.2285 59.6949C57.3081 59.4494 57.3721 59.1991 57.42 58.9456C57.4411 58.6882 57.4451 58.4298 57.4322 58.1719C57.5106 58.4248 57.533 58.6918 57.4979 58.9543C57.4627 59.2168 57.3708 59.4685 57.2285 59.6919V59.6949Z" fill="#FAFAFA"/>
<path d="M54.4783 59.2282C54.4008 58.7031 54.5036 58.1673 54.7702 57.7083C54.7914 57.7174 54.6516 58.0381 54.5725 58.4591C54.4935 58.8802 54.5011 59.2267 54.4783 59.2282Z" fill="#FAFAFA"/>
<path d="M51.9709 60.2997C51.7231 60.1276 51.4846 59.9424 51.2565 59.7449C51.0124 59.5681 50.7775 59.3789 50.5527 59.178C50.826 59.3141 51.0812 59.4836 51.3127 59.6826C51.5555 59.8619 51.7764 60.069 51.9709 60.2997Z" fill="#FAFAFA"/>
<path d="M53.6687 57.3179C53.087 57.687 52.4771 58.0097 51.8447 58.2831C52.1309 58.0861 52.4317 57.9113 52.7446 57.7602C53.0408 57.5892 53.3497 57.4413 53.6687 57.3179Z" fill="#FAFAFA"/>
<path d="M58.9451 64.0103C58.9128 64.0209 58.8798 64.029 58.8463 64.0346C58.7809 64.0468 58.6852 64.0711 58.5605 64.0878C58.2085 64.1417 57.8525 64.1645 57.4965 64.1562C56.577 64.1429 55.6707 63.9347 54.8375 63.5453C54.0043 63.156 53.2631 62.5943 52.6629 61.8975C52.3143 61.4964 52.0157 61.0544 51.7737 60.5812C51.6088 60.2641 51.4725 59.933 51.3664 59.5917C51.3253 59.4716 51.3056 59.3758 51.2873 59.312C51.2772 59.2793 51.2706 59.2457 51.2676 59.2117C51.2821 59.2425 51.2938 59.2745 51.3025 59.3074C51.3253 59.3698 51.3497 59.4594 51.3953 59.5826C51.6867 60.4158 52.1357 61.1852 52.7177 61.8489C53.3194 62.5297 54.0537 63.0804 54.8757 63.4675C55.6976 63.8546 56.59 64.0698 57.4981 64.1C57.8533 64.1132 58.209 64.099 58.5621 64.0574C58.6882 64.0453 58.784 64.0255 58.8493 64.0194C58.8808 64.0128 58.9129 64.0098 58.9451 64.0103Z" fill="#263238"/>
<path d="M54.4024 63.223C54.3505 62.9817 54.3755 62.7303 54.4738 62.504C54.548 62.2685 54.6949 62.0626 54.8933 61.9158C54.7591 62.1101 54.6436 62.3168 54.5483 62.5329C54.4787 62.758 54.4298 62.989 54.4024 63.223Z" fill="#FAFAFA"/>
<path d="M53.1523 62.7C53.0079 62.8117 52.8755 62.938 52.7571 63.0769C52.6583 63.23 52.5748 63.3924 52.5078 63.5618C52.5129 63.3691 52.5776 63.1827 52.693 63.0284C52.8085 62.8741 52.9689 62.7593 53.1523 62.7Z" fill="#FAFAFA"/>
<path d="M57.9631 65.5637C57.7143 65.5438 57.474 65.4644 57.2623 65.3321C57.0507 65.1998 56.874 65.0186 56.7471 64.8037C57.0776 65.1606 57.4974 65.423 57.9631 65.5637Z" fill="#FAFAFA"/>
<path d="M58.7111 61.3535C58.6792 61.577 58.5847 61.7868 58.4387 61.9589C58.2927 62.1311 58.101 62.2584 57.8857 62.3263C58.0634 62.2037 58.2284 62.0637 58.3782 61.9083C58.508 61.7353 58.6195 61.5494 58.7111 61.3535Z" fill="#FAFAFA"/>
<path d="M60.837 64.492C60.8188 64.4768 61.0194 64.2229 61.2049 63.8733C61.3903 63.5238 61.4891 63.2152 61.5089 63.2228C61.4228 63.7062 61.1867 64.1503 60.834 64.492H60.837Z" fill="#FAFAFA"/>
<path d="M63.6476 64.9041C63.6567 64.9269 63.38 65.0363 63.1019 65.2658C62.8237 65.4953 62.6565 65.7416 62.6367 65.7218C62.7241 65.5121 62.8677 65.3306 63.0517 65.1974C63.2192 65.0462 63.4256 64.9447 63.6476 64.9041Z" fill="#FAFAFA"/>
<path d="M61.5037 61.3064C61.4794 61.314 61.3517 60.8702 61.0674 60.3777C60.7832 59.8852 60.4792 59.5386 60.499 59.5234C60.5824 59.5822 60.6558 59.6541 60.7163 59.7362C61.0362 60.11 61.2799 60.5427 61.4338 61.01C61.472 61.1047 61.4955 61.2046 61.5037 61.3064Z" fill="#FAFAFA"/>
<path d="M61.924 56.7812C61.4509 56.9446 60.9618 57.0573 60.4648 57.1172C60.9381 56.9542 61.4272 56.8416 61.924 56.7812Z" fill="#FAFAFA"/>
<path d="M60.6306 55.4282C60.4571 55.2669 60.3011 55.0875 60.1655 54.8932C60.0107 54.7141 59.8757 54.519 59.7627 54.311C59.9379 54.4702 60.094 54.6493 60.2278 54.8446C60.384 55.023 60.5192 55.2189 60.6306 55.4282Z" fill="#FAFAFA"/>
<path d="M63.8407 54.6167C63.3481 54.6045 62.8636 54.4895 62.418 54.2793C62.6586 54.3204 62.8967 54.3757 63.1308 54.445C63.3707 54.4878 63.6077 54.5451 63.8407 54.6167Z" fill="#FAFAFA"/>
<path d="M66.1211 54.5757C66.1865 54.3607 66.2641 54.1496 66.3537 53.9434C66.4178 53.7275 66.4955 53.5158 66.5862 53.3096C66.5738 53.5371 66.5224 53.7607 66.4342 53.9708C66.3664 54.1893 66.2604 54.3941 66.1211 54.5757Z" fill="#FAFAFA"/>
<path d="M65.6008 57.664C65.1293 57.5587 64.7035 57.3064 64.3848 56.9435C64.4 56.9253 64.6401 57.135 64.973 57.3311C65.3059 57.5272 65.6084 57.6412 65.6008 57.664Z" fill="#FAFAFA"/>
<path d="M67.0807 57.5699C67.1112 57.2648 67.1672 56.9628 67.2479 56.6671C67.3029 56.3664 67.3833 56.071 67.4881 55.7839C67.4028 56.3906 67.265 56.9887 67.0762 57.5715L67.0807 57.5699Z" fill="#FAFAFA"/>
<path d="M65.8453 61.0234C65.4659 60.594 65.127 60.1305 64.833 59.6387C65.0322 59.8449 65.2123 60.0688 65.3711 60.3075C65.5509 60.531 65.7096 60.7707 65.8453 61.0234Z" fill="#FAFAFA"/>
<path d="M67.955 59.7025C67.9337 59.7131 67.7954 59.438 67.5765 59.1309C67.3576 58.8239 67.1463 58.6005 67.163 58.5837C67.3542 58.7177 67.517 58.8881 67.6418 59.0853C67.7871 59.2676 67.8936 59.4776 67.955 59.7025Z" fill="#FAFAFA"/>
<path d="M69.9337 59.4063C69.7604 59.2027 69.5981 58.9902 69.4473 58.7694C69.2746 58.5659 69.1123 58.3539 68.9609 58.134C69.3653 58.4904 69.6958 58.9226 69.9337 59.4063Z" fill="#FAFAFA"/>
<path d="M69.4647 60.7178C69.4376 60.5352 69.3762 60.3593 69.2838 60.1995C69.1725 60.0519 69.0349 59.9261 68.8779 59.8286C68.8779 59.8195 68.9479 59.8286 69.0436 59.8757C69.1671 59.9415 69.2718 60.0378 69.3476 60.1554C69.425 60.2726 69.4715 60.4075 69.4829 60.5475C69.4981 60.6479 69.4783 60.7178 69.4647 60.7178Z" fill="#FAFAFA"/>
<path d="M67.9265 62.5159C67.9143 62.5159 67.9189 62.4748 67.9067 62.4216C67.8923 62.3533 67.8554 62.2917 67.8018 62.2468C67.7457 62.2053 67.677 62.1844 67.6073 62.1876C67.5526 62.1876 67.5176 62.2012 67.5115 62.1876C67.5055 62.1739 67.5343 62.1465 67.5997 62.1283C67.6427 62.117 67.6877 62.1159 67.7312 62.1249C67.7747 62.1339 67.8155 62.1528 67.8505 62.1801C67.8855 62.2075 67.9137 62.2426 67.933 62.2826C67.9522 62.3226 67.9619 62.3666 67.9614 62.411C67.9599 62.484 67.9356 62.5189 67.9265 62.5159Z" fill="#FAFAFA"/>
<path d="M52.1119 65.3904C51.828 65.2811 51.57 65.1137 51.3544 64.8991C51.1387 64.6845 50.9701 64.4274 50.8594 64.144C51.1694 64.6567 51.5992 65.0865 52.1119 65.3965V65.3904Z" fill="#FAFAFA"/>
<path d="M42.4374 27.664C42.1926 25.352 41.7503 23.1769 41.6302 20.9106C41.635 20.8538 41.6279 20.7966 41.6093 20.7427C41.5907 20.6888 41.5611 20.6393 41.5223 20.5975C41.4892 20.5781 41.4525 20.5657 41.4145 20.561C41.3765 20.5563 41.3378 20.5593 41.301 20.57C41.2642 20.5807 41.2299 20.5987 41.2003 20.623C41.1707 20.6473 41.1463 20.6774 41.1286 20.7115C41.0623 20.8537 41.0361 21.0114 41.0526 21.1675C41.0553 22.3727 40.8496 23.5693 40.4446 24.7045C40.1847 25.4417 39.8366 26.1485 39.6421 26.904C39.4475 27.6594 39.8138 27.9163 40.1543 28.62" fill="#FFBE9D"/>
<path d="M40.1588 28.6168C39.8576 28.3858 39.6241 28.0781 39.4827 27.726C39.3412 27.3738 39.297 26.9901 39.3547 26.615C39.4322 26.159 39.6587 25.7455 39.838 25.3199C40.0174 24.8943 40.1557 24.4216 40.0463 23.9732C39.9858 23.8068 39.945 23.6339 39.9247 23.4579C39.9247 23.2816 40.0387 23.084 40.215 23.0764C40.2816 23.0818 40.3461 23.1026 40.4034 23.1371C40.4606 23.1717 40.509 23.2191 40.5448 23.2755C40.8412 23.6419 41.0784 24.7119 40.9294 25.5115" fill="#FFBE9D"/>
<path d="M40.9296 25.5117C40.9296 25.5117 40.9448 25.3885 40.9539 25.1666C40.9634 24.8536 40.9374 24.5405 40.8764 24.2333C40.8354 24.0218 40.7744 23.8146 40.694 23.6147C40.6517 23.5059 40.5944 23.4036 40.5237 23.3107C40.492 23.2608 40.4504 23.218 40.4016 23.1848C40.3527 23.1516 40.2975 23.1288 40.2395 23.1177C40.1797 23.1205 40.1226 23.1429 40.0767 23.1813C40.0309 23.2197 39.9989 23.2721 39.9857 23.3305C39.9531 23.4601 39.9616 23.5966 40.01 23.7211C40.0611 23.8602 40.0968 24.0044 40.1164 24.1513C40.1311 24.3033 40.1254 24.4567 40.0997 24.6073C39.9933 25.2244 39.6649 25.7229 39.4917 26.2169C39.4062 26.4478 39.3605 26.6914 39.3564 26.9374C39.3555 27.1518 39.3872 27.365 39.4506 27.5697C39.5427 27.8685 39.6982 28.1438 39.9066 28.3769C40.0586 28.5395 40.1574 28.6109 40.1529 28.6185C40.1257 28.6048 40.1002 28.5879 40.0769 28.5684C40.0082 28.5161 39.9437 28.4587 39.8838 28.3966C39.6617 28.1675 39.4952 27.8903 39.3974 27.5865C39.3281 27.377 39.2922 27.158 39.291 26.9374C39.2923 26.6834 39.337 26.4315 39.4233 26.1926C39.5905 25.688 39.9142 25.1894 40.0145 24.5951C40.0405 24.4507 40.0461 24.3033 40.0312 24.1573C40.013 24.0146 39.9788 23.8744 39.9294 23.7393C39.8769 23.5997 39.8694 23.4472 39.9081 23.3031C39.9308 23.2312 39.9722 23.1666 40.0282 23.1161C40.0562 23.09 40.0893 23.0699 40.1254 23.0571C40.1614 23.0443 40.1998 23.0391 40.238 23.0417C40.3076 23.0509 40.3745 23.0747 40.4342 23.1117C40.494 23.1486 40.5452 23.1978 40.5845 23.256C40.6584 23.3566 40.7178 23.4671 40.7608 23.5843C40.8412 23.7885 40.9003 24.0004 40.9372 24.2166C40.9947 24.5283 41.0126 24.8459 40.9904 25.1621C40.985 25.2478 40.9739 25.3332 40.9569 25.4174C40.9523 25.45 40.9431 25.4817 40.9296 25.5117Z" fill="#EB996E"/>
<path d="M60.8005 37.8556C60.8502 38.073 60.9679 38.2689 61.1366 38.4149C61.3052 38.5609 61.516 38.6493 61.7384 38.6673C61.9612 38.6782 62.1831 38.6323 62.3833 38.5339C62.5835 38.4355 62.7554 38.2879 62.8829 38.1049C63.1353 37.7326 63.2369 37.2784 63.1671 36.8341C63.0805 36.1942 62.6549 35.5786 62.0378 35.3886C61.4207 35.1986 60.6531 35.5406 60.4828 36.1608L59.7715 37.1533L60.8005 37.8556Z" fill="#263238"/>
<path d="M59.9598 35.9053C60.0288 35.3552 59.9866 34.7969 59.8357 34.2635C59.6848 33.7301 59.4283 33.2324 59.0814 32.8C58.7344 32.3676 58.3042 32.0093 57.8162 31.7463C57.3281 31.4834 56.7922 31.3212 56.2403 31.2693C54.0348 31.0595 52.0725 32.7026 51.7426 34.8945C51.4523 36.8158 51.203 38.7553 51.2122 39.4545C51.2395 41.5825 52.4814 42.4063 52.986 42.6465C53.1672 42.7118 53.3546 42.7581 53.5454 42.7848C53.5472 42.7852 53.5489 42.7859 53.5504 42.7869C53.552 42.788 53.5533 42.7893 53.5543 42.7909C53.5553 42.7924 53.5559 42.7942 53.5562 42.796C53.5565 42.7979 53.5564 42.7997 53.556 42.8015L53.0848 45.2335C52.8705 46.831 53.7627 48.2568 55.3572 48.4894C56.9517 48.7219 58.2087 47.4953 58.4534 45.8962L59.9598 35.9053Z" fill="#FFBE9D"/>
<path d="M52.1093 36.1364C52.1443 36.1865 52.424 36.036 52.7842 36.0892C53.1445 36.1424 53.3801 36.3613 53.4257 36.3218C53.4485 36.3051 53.4165 36.2215 53.3147 36.1212C53.1749 35.9904 52.9981 35.906 52.8085 35.8795C52.6214 35.8523 52.4305 35.8847 52.2628 35.9722C52.1367 36.0406 52.0911 36.1136 52.1093 36.1364Z" fill="#263238"/>
<path d="M55.3079 36.8298C55.3428 36.8799 55.624 36.7294 55.9828 36.7826C56.3415 36.8358 56.5801 37.0547 56.6257 37.0152C56.647 36.9985 56.6166 36.9149 56.5132 36.813C56.3737 36.6831 56.1975 36.5992 56.0086 36.5729C55.8215 36.5456 55.6305 36.578 55.4629 36.6656C55.3398 36.734 55.2912 36.807 55.3079 36.8298Z" fill="#263238"/>
<path d="M54.0637 38.5289C53.8828 38.4423 53.6918 38.3785 53.4952 38.3389C53.404 38.3161 53.3204 38.2842 53.3143 38.2204C53.3203 38.1246 53.3553 38.0328 53.4146 37.9574L53.7885 37.2977C54.3099 36.3569 54.7005 35.5786 54.6641 35.5573C54.6276 35.536 54.1716 36.2824 53.6502 37.2293L53.2869 37.8936C53.2142 37.9968 53.1788 38.1217 53.1866 38.2477C53.1962 38.2812 53.2131 38.3121 53.2359 38.3384C53.2588 38.3646 53.2871 38.3856 53.3189 38.3997C53.3676 38.4205 53.4186 38.4353 53.4709 38.4438C53.6641 38.4972 53.8632 38.5258 54.0637 38.5289Z" fill="#263238"/>
<path d="M53.5598 42.8002C53.5598 42.8002 54.9277 43.1163 56.8201 42.3259C56.8201 42.3259 56.0054 44.0815 53.4336 43.4568L53.5598 42.8002Z" fill="#EB996E"/>
<path d="M54.0896 39.4181C54.1702 39.344 54.2681 39.2912 54.3743 39.2647C54.4805 39.2381 54.5917 39.2386 54.6976 39.2661C54.7759 39.2854 54.8495 39.3201 54.9142 39.3681C54.9789 39.4161 55.0334 39.4765 55.0746 39.5458C55.1141 39.6125 55.1319 39.6899 55.1256 39.7671C55.1194 39.8444 55.0893 39.9179 55.0396 39.9774C54.9728 40.0339 54.8905 40.0689 54.8034 40.0779C54.7164 40.0868 54.6287 40.0693 54.5517 40.0276C54.3904 39.9435 54.2477 39.8277 54.1322 39.6871C54.0951 39.6528 54.0651 39.6115 54.044 39.5655C54.0335 39.5437 54.0299 39.5192 54.0337 39.4953C54.0375 39.4714 54.0485 39.4492 54.0653 39.4318" fill="#EB996E"/>
<path d="M55.0858 38.9319C55.028 38.9198 54.9703 39.3104 54.5964 39.5399C54.2224 39.7694 53.812 39.6646 53.8014 39.7193C53.7923 39.7436 53.8835 39.809 54.0583 39.8394C54.2863 39.8754 54.5198 39.8302 54.718 39.7117C54.9081 39.5973 55.0465 39.4137 55.104 39.1994C55.142 39.0368 55.1132 38.9334 55.0858 38.9319Z" fill="#263238"/>
<path d="M55.5542 35.6591C55.5755 35.7624 55.9418 35.7685 56.3552 35.881C56.7687 35.9935 57.0955 36.1576 57.1639 36.0786C57.1943 36.0406 57.1487 35.9403 57.0255 35.8247C56.8587 35.6819 56.6616 35.579 56.449 35.5237C56.2365 35.4684 56.0142 35.4622 55.7989 35.5055C55.6317 35.5451 55.5466 35.6104 55.5542 35.6591Z" fill="#263238"/>
<path d="M52.4724 35.0284C52.5226 35.1196 52.784 35.0709 53.0804 35.1105C53.3768 35.15 53.623 35.2442 53.6884 35.1682C53.7203 35.1302 53.6884 35.0421 53.5926 34.9493C53.4583 34.8347 53.2928 34.7628 53.1173 34.7428C52.9419 34.7228 52.7644 34.7555 52.6077 34.8369C52.4967 34.9053 52.4496 34.9843 52.4724 35.0284Z" fill="#263238"/>
<path d="M51.3261 34.4187C51.7654 35.089 53.1607 34.6741 54.0028 34.2135C54.4427 34.4941 54.9747 34.592 55.4857 34.4864C55.9966 34.3808 56.4462 34.08 56.7388 33.6481C57.2207 34.2561 58.2011 34.0585 58.5628 33.3669C58.9246 32.6753 58.7148 31.7222 58.2284 31.1173C57.742 30.5123 57.0215 30.2053 56.3132 30.0761C54.6336 29.7721 52.8051 30.4166 51.8004 31.935C51.3368 32.6358 51.0586 33.5797 51.3337 34.4187" fill="#263238"/>
<path d="M55.9687 30.3147C55.9687 30.3451 55.572 30.2691 54.9488 30.3725C54.1393 30.5071 53.3973 30.9065 52.839 31.5079C52.3135 32.1377 51.9661 32.8965 51.8328 33.7058C51.7866 34.0432 51.7688 34.3839 51.7796 34.7242C51.7472 34.6364 51.7282 34.5441 51.7233 34.4506C51.6968 34.1977 51.7008 33.9426 51.7355 33.6906C51.8457 32.85 52.195 32.0586 52.7417 31.4106C53.3196 30.7848 54.0983 30.381 54.9427 30.2691C55.1947 30.2352 55.4498 30.2311 55.7027 30.257C55.7938 30.2625 55.8835 30.282 55.9687 30.3147Z" fill="#455A64"/>
<path d="M53.6971 33.4402C53.672 33.3632 53.6607 33.2824 53.6636 33.2015C53.6557 32.981 53.6787 32.7605 53.732 32.5464C53.8134 32.1874 53.9673 31.8487 54.1844 31.5514C54.4015 31.2541 54.6771 31.0043 54.9944 30.8175C55.3116 30.6307 55.6637 30.5108 56.0291 30.4651C56.3944 30.4195 56.7652 30.4491 57.1186 30.5522C57.3319 30.6107 57.5364 30.6976 57.7266 30.8106C57.7999 30.8487 57.8654 30.9003 57.9196 30.9626C57.6545 30.8371 57.3789 30.7354 57.0958 30.6586C56.4074 30.4832 55.6776 30.5871 55.0654 30.9475C54.4532 31.308 54.0084 31.8958 53.8278 32.5829C53.6789 33.0906 53.726 33.4402 53.6971 33.4402Z" fill="#455A64"/>
<path d="M57.7269 32.7103C57.5621 33.3052 57.4672 33.9174 57.4442 34.5343C57.4214 35.1546 57.6142 35.7637 57.9899 36.258C58.5766 36.9648 59.5555 37.1806 60.4584 37.3524C60.9413 36.1475 61.0869 34.8338 60.8794 33.5524C60.776 32.9307 60.5754 32.2969 60.1376 31.8439C59.8122 31.5228 59.3894 31.3188 58.9355 31.2638C58.4817 31.2088 58.0224 31.3059 57.6296 31.5399" fill="#263238"/>
<path d="M58.2281 35.6533C57.991 36.1671 58.0077 36.7614 58.0898 37.3253C58.1719 37.8892 58.3148 38.441 58.3087 39.0064C58.3026 39.5719 58.1233 40.1723 57.6794 40.5264C57.5448 40.6162 57.4186 40.7179 57.3024 40.8304C57.2451 40.8875 57.2067 40.9609 57.1926 41.0406C57.1784 41.1203 57.1892 41.2024 57.2234 41.2758C57.3085 41.4126 57.5654 41.4096 57.6019 41.253L57.5791 41.2925C57.5567 41.3304 57.5446 41.3735 57.5442 41.4175C57.5437 41.4614 57.5548 41.5048 57.5763 41.5431C57.5979 41.5815 57.6292 41.6135 57.667 41.6359C57.7048 41.6584 57.7479 41.6705 57.7919 41.671C57.9472 41.6636 58.0994 41.6244 58.239 41.5559C58.3786 41.4874 58.5026 41.391 58.6036 41.2728C58.8939 40.9368 59.0094 40.4854 59.0854 40.0568C59.3195 38.7146 59.2739 37.3208 59.6448 36.012" fill="#263238"/>
<path d="M53.0744 44.4675C53.1791 44.9247 53.3809 45.354 53.6662 45.7263C53.9515 46.0987 54.3135 46.4052 54.7278 46.6253C55.142 46.8453 55.5987 46.9736 56.067 47.0015C56.5352 47.0294 57.0039 46.9562 57.4414 46.787C58.2287 46.483 58.8641 45.8902 59.4766 45.3111C59.5863 45.9703 59.5561 46.6453 59.3881 47.2921C59.22 47.939 58.9179 48.5433 58.5013 49.0658C58.0846 49.5884 57.5628 50.0175 56.9696 50.3254C56.3764 50.6333 55.7251 50.813 55.058 50.853C54.0502 50.9138 52.968 50.6067 52.3342 49.8209C51.8918 49.2737 51.714 48.5487 51.7262 47.8449C51.7569 47.14 51.8911 46.4435 52.1244 45.7777C52.3038 45.2031 52.588 44.5617 53.1687 44.4021" fill="#FF8006"/>
<path d="M60.2856 37.3919C60.8936 37.7187 61.2189 38.4027 61.336 39.0776C61.453 39.7524 61.3937 40.4456 61.4226 41.128C61.4515 41.8105 61.5822 42.528 62.0154 43.0584C62.4714 43.6239 63.1934 43.8914 63.8394 44.2364C65.2561 44.9964 66.4234 46.293 66.849 47.8464C67.2746 49.3999 66.8885 51.1904 65.7257 52.3076C64.6617 53.32 63.1265 53.6756 61.6613 53.6756C60.617 53.6756 59.4694 53.4507 58.8173 52.6344C58.1652 51.8182 58.2093 50.6736 58.4373 49.6674C58.6653 48.6612 59.0833 47.6838 59.1 46.6517C58.944 47.2907 58.672 47.8955 58.2975 48.4362C58.1896 48.5882 58.0056 48.7554 57.8415 48.6672C57.6773 48.5791 57.7275 48.2948 57.8126 48.1048C59.0712 45.3035 58.6334 39.6567 59.3797 36.5635" fill="#263238"/>
<path d="M59.2492 37.0742C59.2872 37.062 60.7571 36.7838 60.5671 38.237C60.3771 39.6901 58.9589 39.2006 58.9619 39.1596C58.965 39.1186 59.2492 37.0742 59.2492 37.0742Z" fill="#FFBE9D"/>
<path d="M59.4771 38.6673C59.4771 38.6673 59.4999 38.687 59.5409 38.7129C59.5977 38.7463 59.6652 38.7567 59.7294 38.7418C59.8906 38.7053 60.0517 38.4773 60.0927 38.2174C60.1119 38.0929 60.1036 37.9658 60.0684 37.845C60.0607 37.7977 60.0416 37.7531 60.0127 37.715C59.9839 37.6768 59.9461 37.6463 59.9027 37.6261C59.8754 37.6164 59.8457 37.6161 59.8181 37.6252C59.7906 37.6343 59.7669 37.6522 59.7507 37.6762C59.7264 37.7142 59.7309 37.7447 59.7233 37.7462C59.7157 37.7477 59.696 37.7173 59.7142 37.6595C59.7272 37.6245 59.7519 37.5949 59.7841 37.5759C59.8068 37.5623 59.8319 37.5536 59.8581 37.5502C59.8842 37.5468 59.9108 37.5488 59.9362 37.5562C59.9943 37.5758 60.0465 37.61 60.0877 37.6555C60.129 37.701 60.1579 37.7563 60.1718 37.8161C60.2167 37.9501 60.2287 38.093 60.2067 38.2326C60.1596 38.5244 59.9742 38.7782 59.7507 38.8117C59.7102 38.8182 59.6688 38.8154 59.6296 38.8036C59.5904 38.7917 59.5543 38.7711 59.5242 38.7433C59.4756 38.7022 59.4725 38.6688 59.4771 38.6673Z" fill="#EB996E"/>
<path d="M51.5723 47.5988C51.6436 47.4437 51.7259 47.2938 51.8185 47.1504C52.0304 46.7998 52.2061 46.4285 52.3429 46.0423C52.4758 45.6559 52.5205 45.2445 52.4736 44.8385C52.444 44.6719 52.4055 44.507 52.3581 44.3445C52.3867 44.3815 52.4089 44.4231 52.4235 44.4676C52.473 44.5841 52.5088 44.706 52.5299 44.8309C52.5938 45.2457 52.5557 45.6699 52.4189 46.0667C52.2809 46.4586 52.0957 46.8323 51.8671 47.1793C51.782 47.3131 51.7151 47.4195 51.6589 47.4909C51.6027 47.5623 51.5768 47.6019 51.5723 47.5988Z" fill="#263238"/>
<path d="M52.3132 45.9221C52.2919 45.9221 52.2509 45.7974 52.1201 45.7108C51.9894 45.6241 51.8587 45.6241 51.8557 45.6013C51.8526 45.5785 51.8876 45.5755 51.9469 45.574C52.0254 45.5747 52.1019 45.5996 52.1657 45.6454C52.2301 45.6904 52.2798 45.7533 52.3086 45.8263C52.3284 45.8825 52.3238 45.919 52.3132 45.9221Z" fill="#FAFAFA"/>
<path d="M53.2523 45.9192C53.1385 45.7912 53.0133 45.6736 52.8784 45.568C52.7287 45.4842 52.5708 45.416 52.4072 45.3643C52.4978 45.3518 52.5899 45.3576 52.6781 45.3814C52.7664 45.4051 52.849 45.4464 52.921 45.5027C53.0816 45.5929 53.2005 45.7424 53.2523 45.9192Z" fill="#FAFAFA"/>
<path d="M53.8418 49.0033C53.8453 48.7937 53.8749 48.5854 53.93 48.3831C53.9593 48.1743 54.015 47.97 54.0956 47.7751C54.0922 47.9852 54.0625 48.1941 54.0075 48.3968C53.978 48.6052 53.9224 48.8089 53.8418 49.0033Z" fill="#FAFAFA"/>
<path d="M56.2124 49.4684C56.1743 49.0321 56.1881 48.5928 56.2534 48.1597C56.2934 48.5959 56.2797 49.0355 56.2124 49.4684Z" fill="#FAFAFA"/>
<path d="M7.7999 56.2234L5.45605 66.4302L10.4128 66.4454L12.7019 57.4698L7.7999 56.2234Z" fill="#B78876"/>
<path d="M32.1415 43.6834C31.6703 43.0526 31.1292 42.4461 30.8815 41.6982C30.7614 41.3365 30.7143 40.9534 30.5866 40.5947C30.4589 40.236 30.2263 39.8864 29.8707 39.7511C29.515 39.6158 29.2444 39.7511 29.0134 40.0065L27.3125 44.9814L28.2929 48.8027C29.2718 48.5823 30.4969 48.3209 31.4119 47.909C32.327 47.497 32.9319 46.8374 32.9958 45.8357C33.0399 45.0498 32.6127 44.3157 32.1415 43.6834Z" fill="#263238"/>
<path d="M16.6631 42.805C16.6631 42.805 10.7503 45.3784 10.0115 46.5396C9.27282 47.7009 6.84082 55.9804 6.84082 55.9804L13.0728 57.8044L12.9664 66.4243H28.2424L28.1163 51.2243L26.2011 42.8248C26.2011 42.8248 22.8282 42.6074 22.5151 42.4539C22.2019 42.3003 16.6631 42.805 16.6631 42.805Z" fill="#FF8006"/>
<path d="M37.6754 21.7359C37.724 21.3878 37.4793 21.0047 37.6556 20.6992C37.7722 20.5418 37.9389 20.4287 38.1283 20.3785C38.2201 20.3365 38.3193 20.3133 38.4202 20.3101C38.4705 20.3093 38.5199 20.3233 38.5623 20.3503C38.6047 20.3773 38.6383 20.4162 38.6588 20.4621C38.6698 20.5202 38.6647 20.5802 38.644 20.6357C38.6234 20.6911 38.5881 20.7399 38.5418 20.7767C38.4492 20.8495 38.3713 20.9393 38.3123 21.0412C38.271 21.2914 38.2903 21.5478 38.3685 21.7891C38.571 22.3198 38.7391 22.8631 38.8716 23.4155" fill="#B78876"/>
<path d="M36.4277 21.8546C36.449 21.3272 36.8837 19.2494 36.8989 18.7219C37.2561 18.8314 37.4629 19.2114 37.5297 19.5792C37.5966 19.947 37.5617 20.3255 37.6255 20.6934C37.7106 21.1874 37.9675 21.6327 38.2259 22.0614C38.4843 22.49 38.7549 22.9262 38.8719 23.4126C38.9889 23.899 39.4297 25.1637 39.0862 25.5285" fill="#B78876"/>
<path d="M36.3289 25.4114L34.2146 35.4555C34.1401 35.9115 26.2012 42.8351 26.2012 42.8351L27.7683 49.096L38.1043 38.9835C38.8506 38.1856 39.2568 37.1285 39.2367 36.0362L39.0604 26.6122L36.3289 25.4114Z" fill="#B78876"/>
<path d="M35.9667 21.9184L36.3285 25.4144L39.0645 26.6182C39.0645 26.6182 39.0979 26.3705 39.2165 25.159C39.3457 23.8245 37.9108 23.2514 37.2709 22.271C36.9973 21.85 37.0687 21.0748 36.8574 20.1142C36.8331 20.0032 36.6811 19.3314 36.599 18.9711C36.5558 18.7709 36.4386 18.5945 36.2707 18.4771C36.1461 18.395 36.0062 18.354 35.9044 18.4771C35.8026 18.6002 35.9667 21.9184 35.9667 21.9184Z" fill="#B78876"/>
<path d="M37.6758 25.9921C37.9798 25.7291 38.0528 25.2579 37.9388 24.8673C37.7992 24.4826 37.5789 24.1322 37.2928 23.8397C37.007 23.548 36.7667 23.2149 36.5799 22.8517C36.4644 22.5903 36.4096 22.3015 36.2759 22.0446C36.1421 21.7877 35.9156 21.5521 35.6299 21.5415C35.8594 22.987 35.8533 23.8215 36.323 25.4053" fill="#B78876"/>
<path d="M35.9136 23.1923C35.9136 23.1923 35.903 23.1528 35.8863 23.0768C35.8695 23.0008 35.8407 22.8746 35.8133 22.7454C35.7479 22.4414 35.6613 22.0538 35.5716 21.6085L35.5625 21.5659H35.6066C35.7001 21.5625 35.7935 21.5777 35.8811 21.6105C35.9688 21.6434 36.0491 21.6933 36.1173 21.7574C36.326 21.956 36.4746 22.2094 36.5459 22.4885C36.6066 22.7055 36.6864 22.9166 36.7846 23.1193C36.859 23.2525 36.9488 23.3765 37.0521 23.4887C37.0898 23.5318 37.1206 23.5805 37.1433 23.6331C37.1017 23.5945 37.0631 23.5529 37.0278 23.5085C36.9146 23.4016 36.8165 23.2799 36.7359 23.1467C36.6286 22.9433 36.541 22.73 36.4745 22.5098C36.4038 22.2447 36.2619 22.0039 36.0641 21.8137C35.9408 21.698 35.7771 21.6352 35.6081 21.6389L35.6446 21.5933C35.8285 22.5083 35.9471 23.1938 35.9136 23.1923Z" fill="#7C5142"/>
<path d="M37.1429 22.3031C37.0326 21.8329 36.9484 21.3569 36.8906 20.8774C36.8062 20.4016 36.7478 19.9216 36.7158 19.4395C36.8269 19.91 36.9112 20.3866 36.9681 20.8667C37.0525 21.342 37.1109 21.8215 37.1429 22.3031Z" fill="#7C5142"/>
<path d="M38.0153 22.4214C38.0153 22.4214 38.0259 22.4366 38.0351 22.4746H38.0123C37.8992 22.1494 37.8068 21.8174 37.7356 21.4805C37.6703 21.1872 37.6231 20.9196 37.5943 20.7205C37.5708 20.6163 37.5616 20.5095 37.5669 20.4028C37.5897 20.4028 37.6824 20.8756 37.8131 21.4668C37.918 21.9396 38.0153 22.3378 38.0351 22.4716H38.0123C38.0107 22.4396 38.0107 22.4214 38.0153 22.4214Z" fill="#7C5142"/>
<path d="M38.554 24.3472C38.5418 24.3472 38.4871 24.2682 38.3777 24.1512C38.0885 23.844 37.696 23.6545 37.2757 23.6192C37.1877 23.6199 37.0998 23.6143 37.0127 23.6024C37.0968 23.5698 37.1872 23.5563 37.2772 23.5629C37.4962 23.5657 37.712 23.6165 37.9093 23.7119C38.1065 23.8072 38.2804 23.9447 38.4187 24.1147C38.4809 24.1809 38.5272 24.2604 38.554 24.3472Z" fill="#7C5142"/>
<path d="M36.5763 25.6881C36.5011 25.5573 36.4405 25.4186 36.3954 25.2746C36.2705 24.9336 36.1659 24.5854 36.0823 24.2319C35.9973 23.8814 35.9333 23.5261 35.8908 23.1679C35.8659 23.0173 35.8568 22.8645 35.8634 22.7119C35.9016 22.8572 35.929 23.005 35.9455 23.1542C35.9911 23.4263 36.061 23.8033 36.1583 24.2182C36.2556 24.6332 36.365 24.9965 36.4486 25.261C36.5011 25.4002 36.5437 25.5429 36.5763 25.6881Z" fill="#7C5142"/>
<path d="M24.3447 43.0159C24.4802 42.8085 24.6902 42.6612 24.9314 42.6046C25.1725 42.548 25.4262 42.5864 25.6398 42.7119C26.7554 41.7999 27.897 40.9153 29.0126 40.0078C28.6478 41.8318 28.4046 44.3748 29.2209 46.0437C29.2209 46.0437 30.2499 47.9559 31.8885 47.6641L30.4262 49.0959L28.1204 51.2346" fill="#FF8006"/>
<path d="M23.9834 43.8673C23.9851 43.6225 24.0597 43.3839 24.1977 43.1818C24.3142 42.9659 24.4919 42.7893 24.7084 42.6741C24.365 43.0003 24.1147 43.4122 23.9834 43.8673Z" fill="#263238"/>
<path d="M25.1884 44.9921C25.1251 44.8908 25.0817 44.7783 25.0607 44.6608C24.9951 44.3789 24.9872 44.0866 25.0377 43.8016C25.0881 43.5166 25.1957 43.2447 25.354 43.0024C25.4144 42.8988 25.4938 42.8075 25.5881 42.7334C25.5988 42.7425 25.5106 42.8459 25.4027 43.0374C25.2623 43.2797 25.1651 43.5446 25.1154 43.8202C25.0678 44.0963 25.0678 44.3786 25.1154 44.6547C25.1534 44.8523 25.2005 44.98 25.1884 44.9921Z" fill="#263238"/>
<path d="M30.774 48.8953C30.6618 48.965 30.5392 49.0164 30.4107 49.0473C30.0596 49.1319 29.6922 49.1209 29.3467 49.0153C28.8351 48.8529 28.3875 48.5339 28.0669 48.1033C27.6818 47.5754 27.4219 46.9667 27.3069 46.3234C27.0922 45.1651 27.0309 43.9835 27.1245 42.8092C27.1595 42.3532 27.2096 41.9975 27.2522 41.7452C27.2719 41.6205 27.2902 41.5248 27.3039 41.4594C27.3086 41.4257 27.3167 41.3926 27.3282 41.3606C27.3292 41.3948 27.3262 41.429 27.3191 41.4624L27.2826 41.7497C27.2507 41.999 27.2081 42.3577 27.1807 42.8137C27.103 43.983 27.1714 45.1574 27.3844 46.3097C27.4982 46.9364 27.75 47.5298 28.1216 48.0471C28.429 48.4732 28.8622 48.7922 29.3604 48.9591C29.6968 49.0675 30.0555 49.0868 30.4016 49.0153C30.5283 48.9837 30.6527 48.9436 30.774 48.8953Z" fill="#FAFAFA"/>
<path d="M13.102 60.37C13.0807 60.37 13.0625 58.2085 13.0625 55.544C13.0625 52.8794 13.0807 50.718 13.102 50.718C13.1233 50.718 13.1415 52.8779 13.1415 55.544C13.1415 58.2101 13.1248 60.37 13.102 60.37Z" fill="#263238"/>
<path d="M12.9799 49.0506C12.9632 49.0506 12.9677 48.8347 12.8932 48.4988C12.8489 48.3025 12.7852 48.1111 12.7032 47.9273C12.6011 47.7037 12.4752 47.4917 12.3278 47.295C12.1763 47.101 12.0046 46.9237 11.8156 46.766C11.6599 46.6388 11.4925 46.5268 11.3155 46.4316C11.0115 46.272 10.8002 46.2188 10.8048 46.2036C10.8566 46.2063 10.9078 46.2165 10.9568 46.234C11.0144 46.2484 11.0708 46.2672 11.1255 46.2903C11.2 46.316 11.2727 46.3469 11.3428 46.383C11.5254 46.4724 11.6977 46.5814 11.8566 46.7083C12.0517 46.8676 12.2286 47.0481 12.384 47.2463C12.5357 47.4481 12.6633 47.667 12.764 47.8984C12.8468 48.0876 12.9085 48.2854 12.948 48.4882C12.9636 48.5654 12.9742 48.6436 12.9799 48.7222C12.987 48.7812 12.99 48.8407 12.989 48.9001C12.9918 48.9504 12.9887 49.0009 12.9799 49.0506Z" fill="#263238"/>
<path d="M23.3901 42.7378C23.4027 42.78 23.4114 42.8232 23.416 42.867C23.4365 42.9902 23.4496 43.1146 23.4555 43.2394C23.4736 43.7006 23.4093 44.1613 23.2655 44.5998C23.0513 45.2538 22.6717 45.8413 22.1635 46.3052C21.5261 46.8623 20.7256 47.1982 19.8815 47.2629C19.0375 47.3275 18.1952 47.1174 17.4804 46.664C16.9089 46.2816 16.4461 45.758 16.1367 45.144C15.9294 44.7318 15.7972 44.2861 15.746 43.8276C15.7337 43.7034 15.7281 43.5786 15.7293 43.4537C15.7256 43.4102 15.7256 43.3665 15.7293 43.323C15.7364 43.3657 15.74 43.4089 15.74 43.4522C15.7438 43.5763 15.754 43.7 15.7704 43.8231C15.8326 44.2749 15.9714 44.7129 16.1808 45.1181C16.4909 45.7197 16.9498 46.232 17.5138 46.6062C18.2157 47.0475 19.0406 47.2522 19.8673 47.1901C20.6941 47.128 21.4792 46.8024 22.1072 46.2612C22.6099 45.8067 22.9877 45.2311 23.2047 44.5892C23.3503 44.1569 23.4223 43.7031 23.4175 43.247C23.4175 43.0859 23.4038 42.9612 23.3916 42.8761C23.3795 42.791 23.3886 42.7393 23.3901 42.7378Z" fill="#263238"/>
<path d="M12.9717 55.9252C12.9717 55.9465 11.7085 55.5498 10.1673 55.0406C8.62599 54.5314 7.38111 54.1012 7.38871 54.0799C7.39631 54.0586 8.65031 54.4554 10.1931 54.9646C11.7359 55.4738 12.9778 55.904 12.9717 55.9252Z" fill="#FAFAFA"/>
<path d="M27.9687 53.8156C27.9687 53.8384 24.6171 53.8703 20.4826 53.887C16.3482 53.9037 12.9951 53.9007 12.9951 53.887C12.9951 53.8733 16.3467 53.8323 20.4826 53.8156C24.6186 53.7989 27.9687 53.7943 27.9687 53.8156Z" fill="#FAFAFA"/>
<path d="M28.0446 55.1396C28.0446 55.1609 24.6748 55.1791 20.5206 55.1791C16.3665 55.1791 12.9951 55.1609 12.9951 55.1396C12.9951 55.1183 16.3634 55.1001 20.5206 55.1001C24.6778 55.1001 28.0446 55.1168 28.0446 55.1396Z" fill="#FAFAFA"/>
<path d="M25.9805 56.7478C25.9702 56.7901 25.956 56.8313 25.938 56.8709C25.9045 56.956 25.8589 57.0716 25.8027 57.2175L25.7024 57.4668C25.6628 57.558 25.6157 57.6537 25.5671 57.7586C25.4668 57.9653 25.3634 58.2055 25.219 58.4578L25.0001 58.856C24.9241 58.9944 24.8329 59.1312 24.7448 59.2771C24.5715 59.5704 24.3587 59.8653 24.1368 60.18C23.6432 60.8486 23.0995 61.4786 22.5104 62.0648C21.9128 62.6427 21.2721 63.1743 20.5936 63.6547C20.2744 63.8675 19.975 64.0757 19.6816 64.2429C19.5296 64.328 19.3959 64.4162 19.256 64.4907L18.8487 64.7004C18.5948 64.8388 18.3516 64.9391 18.1434 65.0348C18.0385 65.0804 17.9412 65.126 17.85 65.164L17.5977 65.2598L17.2496 65.389C17.2095 65.4062 17.1677 65.4195 17.125 65.4285C17.1629 65.407 17.2026 65.3887 17.2436 65.3738L17.5871 65.2309L17.8348 65.1291C17.926 65.0896 18.0218 65.0424 18.1252 64.9938C18.3319 64.895 18.572 64.7916 18.8228 64.6503L19.2226 64.4375C19.3609 64.3615 19.4992 64.2718 19.6452 64.1867C19.9385 64.018 20.2349 63.8082 20.5572 63.5954C21.9111 62.6401 23.1019 61.4724 24.0836 60.1374C24.304 59.8258 24.5183 59.5294 24.6916 59.2421C24.7812 59.0977 24.874 58.9624 24.9515 58.8256L25.1719 58.4304C25.3239 58.1827 25.4257 57.944 25.5291 57.7388C25.5792 57.6355 25.6294 57.5412 25.6704 57.4516C25.7115 57.3619 25.7449 57.2798 25.7768 57.2053C25.8392 57.0624 25.8893 56.95 25.9288 56.8648C25.9441 56.825 25.9613 56.7859 25.9805 56.7478Z" fill="#263238"/>
<g opacity="0.3">
<path opacity="0.3" d="M25.3641 58.064C24.3427 59.3073 23.2726 60.2087 21.7724 60.7893C21.0534 61.066 20.301 61.256 19.6048 61.5858C18.9087 61.9156 18.252 62.4127 17.9328 63.1164C17.6912 63.6606 17.8082 64.4844 18.3888 64.603C18.6144 64.6307 18.8432 64.5954 19.05 64.5012C22.0216 63.4235 23.9748 60.7012 25.355 58.064" fill="black"/>
</g>
<path d="M14.7341 31.0203C14.0926 31.5234 14.0501 32.4643 14.082 33.279C14.1139 34.0937 14.123 35.0209 13.5287 35.5833C13.0423 36.0469 12.1911 36.2187 12.0513 36.8768C12.0159 37.0319 12.03 37.1941 12.0917 37.3408C12.1534 37.4874 12.2596 37.6109 12.3952 37.694C12.5308 37.7771 12.6891 37.8155 12.8478 37.8039C13.0064 37.7923 13.1574 37.7312 13.2794 37.6292C13.0727 38.1445 13.167 38.8042 13.6062 39.1492C14.0455 39.4943 14.8131 39.3301 14.9742 38.8011C14.9493 38.8886 14.9425 38.9803 14.9541 39.0705C14.9656 39.1608 14.9954 39.2477 15.0416 39.3261C15.0878 39.4045 15.1494 39.4727 15.2228 39.5265C15.2961 39.5804 15.3796 39.6188 15.4682 39.6394C15.5569 39.66 15.6487 39.6624 15.7383 39.6464C15.8279 39.6305 15.9133 39.5965 15.9893 39.5465C16.0654 39.4966 16.1305 39.4317 16.1807 39.3558C16.2309 39.2799 16.2652 39.1947 16.2814 39.1051" fill="#263238"/>
<path d="M24.0422 36.9193C24.0728 37.0261 24.125 37.1254 24.1956 37.2112C24.2661 37.2969 24.3536 37.3672 24.4525 37.4177C24.5514 37.4683 24.6596 37.4979 24.7705 37.5049C24.8813 37.5118 24.9924 37.4959 25.0968 37.4581C25.2013 37.4203 25.2968 37.3614 25.3775 37.2851C25.4582 37.2088 25.5224 37.1168 25.566 37.0146C25.6097 36.9125 25.6319 36.8025 25.6312 36.6915C25.6306 36.5804 25.6071 36.4707 25.5622 36.3691C25.4361 36.0529 25.1062 35.8143 25.0986 35.4753C25.0788 35.0649 25.5105 34.7928 25.889 34.6332C26.2675 34.4736 26.7113 34.2608 26.7706 33.855C26.8299 33.4491 26.4909 33.1375 26.2082 32.8594C25.9255 32.5812 25.6534 32.1587 25.8525 31.8151C25.9544 31.6403 26.1565 31.5461 26.2873 31.3926C26.5821 31.0521 26.4636 30.4806 26.1231 30.1903C25.7826 29.8999 25.2947 29.8331 24.8493 29.8863C24.404 29.9395 23.9784 30.1067 23.5421 30.2146C22.8187 30.3892 22.067 30.4118 21.3344 30.281C20.6018 30.1502 19.9044 29.8688 19.2861 29.4546" fill="#263238"/>
<path d="M15.1703 34.1543L16.7344 43.2196C16.7992 43.599 16.9385 43.9618 17.1441 44.2871C17.3498 44.6125 17.6179 44.8939 17.9328 45.1152C18.2478 45.3364 18.6034 45.4932 18.9792 45.5764C19.355 45.6596 19.7436 45.6675 20.1225 45.5999C20.8404 45.4713 21.4842 45.0786 21.927 44.499C22.3698 43.9195 22.5796 43.1952 22.515 42.4687C22.4435 41.6646 22.3827 40.9988 22.3827 40.9988C22.3827 40.9988 24.6536 40.4152 24.4575 38.1108C24.3618 36.9952 23.9802 34.7136 23.6094 32.6525C23.4171 31.5857 22.8302 30.6305 21.9655 29.9767C21.1009 29.323 20.0218 29.0188 18.943 29.1246L18.721 29.1459C18.1557 29.2345 17.6138 29.4354 17.1274 29.7369C16.641 30.0383 16.2199 30.4341 15.8889 30.9009C15.558 31.3677 15.3239 31.8961 15.2005 32.4549C15.077 33.0137 15.0668 33.5915 15.1703 34.1543Z" fill="#B78876"/>
<path d="M23.125 34.1407C23.1349 34.2264 23.1106 34.3126 23.0574 34.3806C23.0042 34.4486 22.9263 34.4929 22.8407 34.5039C22.7992 34.5115 22.7566 34.5107 22.7155 34.5015C22.6743 34.4923 22.6354 34.4749 22.6011 34.4504C22.5668 34.4259 22.5377 34.3947 22.5157 34.3587C22.4937 34.3227 22.4791 34.2827 22.4729 34.241C22.463 34.1552 22.4872 34.069 22.5404 34.001C22.5936 33.933 22.6715 33.8887 22.7571 33.8777C22.7986 33.8701 22.8412 33.8709 22.8824 33.8801C22.9235 33.8893 22.9624 33.9067 22.9968 33.9312C23.0311 33.9558 23.0601 33.987 23.0821 34.0229C23.1041 34.0589 23.1187 34.0989 23.125 34.1407Z" fill="#263238"/>
<path d="M23.2253 33.8262C23.1889 33.8718 22.9213 33.7122 22.5672 33.7471C22.213 33.7821 21.9698 33.9858 21.9273 33.9462C21.9075 33.928 21.9409 33.8474 22.0458 33.7532C22.189 33.6317 22.3664 33.5578 22.5535 33.5419C22.7376 33.5236 22.9228 33.564 23.0825 33.6574C23.1995 33.7304 23.2436 33.8049 23.2253 33.8262Z" fill="#263238"/>
<path d="M19.6584 34.5464C19.667 34.632 19.6421 34.7176 19.5887 34.7852C19.5354 34.8527 19.4579 34.8968 19.3726 34.9082C19.3312 34.9156 19.2886 34.9146 19.2475 34.9053C19.2065 34.896 19.1676 34.8786 19.1334 34.8541C19.0991 34.8296 19.0701 34.7985 19.048 34.7627C19.0259 34.7268 19.0112 34.6869 19.0048 34.6452C18.9957 34.5596 19.0203 34.4738 19.0733 34.406C19.1264 34.3382 19.2037 34.2937 19.289 34.282C19.3307 34.2746 19.3734 34.2756 19.4147 34.285C19.456 34.2943 19.495 34.3119 19.5294 34.3365C19.5638 34.3611 19.5929 34.3924 19.6151 34.4284C19.6372 34.4645 19.652 34.5046 19.6584 34.5464Z" fill="#263238"/>
<path d="M19.7488 34.2305C19.7123 34.2776 19.4448 34.118 19.0906 34.1529C18.7365 34.1879 18.4948 34.3916 18.4507 34.3521C18.4309 34.3338 18.4644 34.2533 18.5693 34.159C18.7127 34.038 18.89 33.9642 19.0769 33.9477C19.2611 33.9286 19.4465 33.9691 19.6059 34.0633C19.7229 34.1362 19.7609 34.2107 19.7488 34.2305Z" fill="#263238"/>
<path d="M21.2916 36.7338C21.2916 36.7126 21.5044 36.6533 21.8556 36.5727C21.9452 36.5545 22.0304 36.5286 22.0395 36.4648C22.0369 36.371 22.0068 36.2801 21.9528 36.2034L21.6169 35.5406C21.1503 34.5952 20.8037 33.8154 20.8417 33.7972C20.8797 33.779 21.2886 34.5298 21.7537 35.4692L22.0775 36.138C22.1448 36.2413 22.1734 36.3652 22.158 36.4876C22.1489 36.5217 22.1319 36.5533 22.1084 36.5797C22.0849 36.606 22.0556 36.6266 22.0228 36.6396C21.9737 36.6576 21.9227 36.6698 21.8708 36.6761C21.6808 36.7188 21.4863 36.7382 21.2916 36.7338Z" fill="#263238"/>
<path d="M19.7045 32.832C19.6787 32.9323 19.3215 32.9201 18.9111 33.0113C18.5007 33.1025 18.1739 33.2485 18.1115 33.1633C18.0827 33.1253 18.1313 33.0281 18.2635 32.9217C18.4324 32.7883 18.6303 32.6967 18.8411 32.6541C19.0515 32.6078 19.2699 32.6125 19.478 32.6678C19.6315 32.718 19.7152 32.7864 19.7045 32.832Z" fill="#263238"/>
<path d="M22.9951 32.8123C22.9404 32.8989 22.6911 32.8397 22.3871 32.864C22.0831 32.8883 21.8506 32.9719 21.7791 32.8929C21.7503 32.8549 21.7791 32.7697 21.8825 32.6831C22.0187 32.5754 22.1849 32.5128 22.3583 32.5037C22.531 32.4896 22.7037 32.53 22.8523 32.6192C22.9754 32.6922 23.0179 32.7712 22.9951 32.8123Z" fill="#263238"/>
<path d="M17.4256 31.3819L17.4134 31.3941C17.0747 31.7191 16.8743 32.1623 16.8541 32.6313C16.8541 32.6481 16.8541 32.6648 16.8541 32.6785C16.8282 33.3458 16.9088 34.013 16.8769 34.6788C16.8449 35.3446 16.6823 36.0346 16.24 36.5347C16.0591 36.7399 15.7186 36.9026 15.5332 36.7004C15.4687 36.6152 15.4296 36.5135 15.4207 36.407C15.1441 34.8323 14.5725 33.4658 14.4145 31.8045C14.3918 31.5823 14.4226 31.3579 14.5043 31.1501C14.586 30.9423 14.7162 30.757 14.8841 30.6097C15.2064 30.3255 15.6061 30.0261 16.0105 30.172C16.4148 30.3179 16.9848 30.9913 17.3146 31.2679" fill="#263238"/>
<path d="M16.0483 35.1211C16.0072 35.1089 14.4188 34.808 14.6225 36.3782C14.8262 37.9483 16.3614 37.4209 16.3584 37.3753C16.3553 37.3297 16.0483 35.1211 16.0483 35.1211Z" fill="#B78876"/>
<path d="M15.8094 36.8433C15.8094 36.8433 15.7851 36.8661 15.741 36.8919C15.7108 36.9104 15.6773 36.9227 15.6424 36.9282C15.6074 36.9336 15.5717 36.9322 15.5373 36.9238C15.3641 36.8843 15.1893 36.6381 15.1452 36.3569C15.1236 36.2224 15.1324 36.0847 15.171 35.9541C15.1797 35.9031 15.2005 35.8549 15.2317 35.8136C15.2629 35.7723 15.3036 35.7392 15.3504 35.717C15.3807 35.7051 15.4142 35.704 15.4453 35.714C15.4763 35.724 15.5029 35.7443 15.5206 35.7717C15.548 35.8127 15.5419 35.8462 15.551 35.8477C15.5601 35.8492 15.5814 35.8173 15.5601 35.7534C15.5464 35.7155 15.5201 35.6833 15.4857 35.6622C15.4393 35.6367 15.385 35.6297 15.3337 35.6425C15.2707 35.6638 15.2142 35.7007 15.1695 35.75C15.1248 35.7992 15.0934 35.859 15.0783 35.9237C15.0289 36.0704 15.0159 36.2268 15.0403 36.3797C15.092 36.6943 15.2926 36.9694 15.5282 37.0059C15.572 37.013 15.6168 37.01 15.6592 36.9971C15.7016 36.9842 15.7405 36.9617 15.7729 36.9314C15.8094 36.8813 15.8094 36.8448 15.8094 36.8433Z" fill="#7C5142"/>
<path d="M15.9785 30.4211C15.5225 29.8283 16.5045 28.819 17.2584 28.4983C18.0123 28.1776 19.0748 28.4558 19.8743 28.6366C20.3774 28.7522 20.8866 28.93 21.3943 28.8586C21.7347 28.7905 22.0631 28.6722 22.3686 28.5074C22.6738 28.3399 23.01 28.2365 23.3566 28.2034C23.5302 28.1902 23.7041 28.2247 23.8595 28.3032C24.0149 28.3817 24.1458 28.5012 24.2382 28.6488C24.3993 28.9528 24.2549 29.4088 23.9175 29.4924C24.0213 29.421 24.1408 29.3758 24.2659 29.3608C24.391 29.3458 24.5179 29.3614 24.6356 29.4062C24.7533 29.4511 24.8584 29.5238 24.9418 29.6182C25.0252 29.7126 25.0845 29.8259 25.1145 29.9482C25.1445 30.0706 25.1443 30.1984 25.114 30.3207C25.0837 30.443 25.0242 30.5561 24.9406 30.6503C24.8569 30.7445 24.7517 30.8169 24.6338 30.8615C24.516 30.906 24.3891 30.9213 24.2641 30.906C24.4723 30.7145 24.8432 30.9622 24.8432 31.2434C24.8432 31.5246 24.6076 31.7557 24.3613 31.894C23.7321 32.2466 22.9569 32.2284 22.2546 32.0658C21.5524 31.9031 20.8866 31.6098 20.1874 31.4274C19.4882 31.245 18.3163 30.9166 17.6627 31.2222C17.1824 31.4456 16.8936 32.0794 16.5987 31.9822C16.4592 31.9242 16.3352 31.8344 16.2367 31.7198C16.1382 31.6052 16.068 31.4691 16.0317 31.3225C15.9638 31.0276 15.9443 30.7237 15.974 30.4226" fill="#263238"/>
<path d="M16.0693 35.3903C16.0889 36.2251 16.1846 37.0564 16.3551 37.8739C16.5255 38.6943 16.9147 39.4532 17.4814 40.0703C18.2414 40.8501 19.2385 41.5903 20.3177 41.7743C21.4957 41.9688 22.9367 41.7226 23.8958 41.0143C24.3518 40.6783 24.6816 39.9503 24.5403 39.4C24.7334 39.3089 24.8986 39.1679 25.0188 38.9915C25.1391 38.8151 25.21 38.6098 25.2243 38.3968C25.2486 37.9712 24.9887 37.4392 24.6528 37.383C24.9051 37.3404 24.978 36.9391 24.8823 36.7127C24.7865 36.4862 24.4537 36.4178 24.2013 36.4664C23.9519 36.5317 23.72 36.6511 23.5219 36.816C23.3249 36.9812 23.1027 37.1136 22.8637 37.2082C22.049 37.4727 21.2237 36.7522 20.3679 36.7871C19.5942 36.8175 18.9057 37.4605 18.1381 37.3526C17.925 37.312 17.7228 37.227 17.5447 37.1031C17.3667 36.9792 17.2167 36.8193 17.1045 36.6336C16.8673 36.2703 16.9707 34.9282 16.878 34.5056" fill="#263238"/>
<g opacity="0.6">
<path opacity="0.6" d="M22.2776 39.0092C22.2136 38.9942 22.1506 38.9749 22.0892 38.9514C21.9403 38.9088 21.7836 38.9011 21.6313 38.9288C21.4789 38.9564 21.335 39.0188 21.2106 39.111C21.1133 39.1809 21.0586 39.2372 21.0586 39.2296C21.0586 39.222 21.089 39.1551 21.1817 39.0776C21.3066 38.9677 21.4591 38.894 21.6228 38.8645C21.7865 38.8351 21.9551 38.8509 22.1104 38.9104C22.2229 38.9484 22.2822 39.0016 22.2776 39.0092Z" fill="#455A64"/>
</g>
<path d="M20.6136 37.2629C20.6714 37.2537 20.7094 37.6383 21.0696 37.8709C21.4298 38.1034 21.8296 38.0305 21.8387 38.0837C21.8463 38.1065 21.7551 38.1673 21.5818 38.1885C21.3573 38.2149 21.1306 38.161 20.9419 38.0365C20.7611 37.9158 20.6346 37.7293 20.5893 37.5167C20.5543 37.3617 20.5878 37.2629 20.6136 37.2629Z" fill="white"/>
<path d="M19.4707 41.5175C19.5051 41.5253 19.5383 41.5376 19.5695 41.554C19.6349 41.5783 19.7306 41.6117 19.8568 41.6467C20.2143 41.7433 20.5812 41.8009 20.9512 41.8185C21.2045 41.8334 21.4586 41.8283 21.7112 41.8033C22.0024 41.7772 22.2902 41.7212 22.57 41.6361C22.8789 41.5438 23.1735 41.4093 23.4455 41.2363C23.7413 41.0579 23.9994 40.8235 24.2055 40.5462C24.4503 40.2198 24.5593 39.8112 24.5095 39.4062V39.3743L24.5369 39.3621C24.7259 39.2743 24.8896 39.1399 25.0126 38.9715C25.0723 38.8921 25.1232 38.8065 25.1646 38.7161C25.2009 38.6284 25.2235 38.5356 25.2315 38.441C25.2481 38.2698 25.2236 38.0971 25.1602 37.9372C25.0967 37.7773 24.9961 37.6348 24.8667 37.5214L24.8439 37.5032L24.8621 37.4804C24.9307 37.3934 24.9754 37.29 24.992 37.1805C25.0085 37.071 24.9962 36.959 24.9564 36.8557C24.9251 36.7773 24.8779 36.7063 24.8177 36.6471C24.7575 36.588 24.6857 36.542 24.6068 36.5121C24.506 36.4719 24.397 36.4568 24.2891 36.4681C24.2146 36.4772 24.1781 36.4909 24.1766 36.4863C24.2117 36.4696 24.2491 36.4583 24.2876 36.4529C24.432 36.4295 24.58 36.4545 24.7087 36.5241C24.8374 36.5936 24.9394 36.7038 24.999 36.8374C25.044 36.9489 25.0592 37.0701 25.0432 37.1892C25.0272 37.3083 24.9806 37.4212 24.9077 37.5169V37.4758C25.0466 37.5944 25.1552 37.7443 25.2244 37.9133C25.2937 38.0822 25.3217 38.2652 25.306 38.4471C25.2982 38.5515 25.2741 38.6541 25.2345 38.7511C25.1905 38.8464 25.137 38.937 25.075 39.0217C24.9456 39.2021 24.7717 39.3461 24.5703 39.4397L24.5931 39.3941C24.6541 39.8197 24.5449 40.2523 24.2891 40.5979C24.077 40.8833 23.811 41.1244 23.5063 41.3077C23.2288 41.4843 22.9273 41.62 22.611 41.7105C22.3263 41.7961 22.0334 41.8511 21.737 41.8747C21.4795 41.8951 21.2208 41.8951 20.9633 41.8747C20.5905 41.8514 20.2217 41.7846 19.8644 41.6756C19.7675 41.6455 19.6726 41.6094 19.5801 41.5677C19.542 41.5549 19.5053 41.5381 19.4707 41.5175Z" fill="#455A64"/>
<path d="M12.5802 37.506C12.5511 37.498 12.5238 37.4846 12.4996 37.4665C12.4311 37.4152 12.3785 37.3456 12.3476 37.2658C12.2963 37.1374 12.2851 36.9964 12.3157 36.8615C12.3637 36.6829 12.4709 36.5259 12.6197 36.4161C12.7946 36.2843 12.9896 36.1817 13.1973 36.1121C13.43 36.039 13.6551 35.9433 13.8692 35.8264C14.0945 35.6837 14.271 35.4759 14.3753 35.2305C14.4897 34.9665 14.5507 34.6823 14.5547 34.3945C14.5668 33.8002 14.43 33.2363 14.4148 32.7119C14.3996 32.1875 14.4908 31.6981 14.7295 31.3697C14.9082 31.1065 15.1796 30.9204 15.4895 30.8484C15.5735 30.8316 15.6596 30.8275 15.7448 30.8362C15.7746 30.8397 15.8041 30.8453 15.833 30.8529C15.7204 30.8476 15.6075 30.8562 15.4971 30.8788C15.1984 30.9577 14.9392 31.1438 14.769 31.4017C14.5471 31.7209 14.4544 32.1951 14.4817 32.7089C14.5091 33.2226 14.6337 33.7865 14.6337 34.3976C14.6274 34.6963 14.5618 34.9908 14.4407 35.264C14.3289 35.5229 14.1406 35.7414 13.9011 35.8902C13.6811 36.0093 13.4493 36.105 13.2095 36.176C13.0077 36.2398 12.8174 36.3352 12.6456 36.4587C12.5044 36.5586 12.4011 36.7032 12.3522 36.8691C12.3191 36.9955 12.3249 37.129 12.3689 37.2521C12.409 37.358 12.4834 37.4474 12.5802 37.506Z" fill="#455A64"/>
<path d="M23.9751 29.4665C23.9967 29.4534 24.0196 29.4427 24.0435 29.4346C24.0724 29.4217 24.1024 29.4115 24.1332 29.4042C24.1744 29.392 24.2166 29.3834 24.2593 29.3783C24.4012 29.3629 24.5447 29.3799 24.679 29.4281C24.8133 29.4763 24.9349 29.5544 25.0345 29.6565C25.1342 29.7902 25.2063 29.9423 25.2468 30.1041C25.2872 30.2658 25.2952 30.434 25.2701 30.5989C25.2403 30.8034 25.1698 30.9998 25.0627 31.1765C24.9557 31.3533 24.8143 31.5068 24.6469 31.6279C24.2615 31.9085 23.801 32.0673 23.3245 32.0839C22.808 32.1043 22.2913 32.049 21.7908 31.9198C20.9958 31.7246 20.2415 31.3907 19.5625 30.9333C19.2723 30.7338 18.9674 30.5565 18.6505 30.4028C18.3729 30.2744 18.0741 30.1981 17.7689 30.1779C17.3244 30.1471 16.8793 30.2298 16.4754 30.418C16.1912 30.5518 16.0559 30.6673 16.0498 30.6582C16.1746 30.5507 16.3131 30.4602 16.4617 30.3891C16.868 30.1882 17.3194 30.096 17.772 30.1216C18.087 30.1378 18.3963 30.2125 18.684 30.342C19.0054 30.4953 19.3149 30.6726 19.6096 30.8725C20.2838 31.3208 21.0305 31.649 21.8167 31.8423C22.3095 31.9716 22.8184 32.0289 23.3276 32.0125C23.7895 31.9963 24.2363 31.844 24.612 31.5747C24.7732 31.4594 24.91 31.3132 25.0143 31.1447C25.1187 30.9761 25.1886 30.7886 25.22 30.5928C25.2468 30.4344 25.2419 30.2722 25.2056 30.1157C25.1693 29.9591 25.1024 29.8113 25.0087 29.6808C24.9144 29.582 24.7994 29.5052 24.6719 29.4561C24.5445 29.4069 24.4077 29.3866 24.2715 29.3966C24.171 29.4122 24.0719 29.4356 23.9751 29.4665Z" fill="#455A64"/>
<path d="M23.1702 28.1277C23.1701 28.2473 23.1458 28.3657 23.0988 28.4758C22.967 28.7782 22.738 29.028 22.4482 29.1856C22.2525 29.2995 22.0378 29.3767 21.8144 29.4136C21.5583 29.4509 21.2983 29.4509 21.0422 29.4136C20.4996 29.3452 19.9387 29.1324 19.3489 28.9485C18.7592 28.7646 18.1649 28.6551 17.642 28.7676C17.1787 28.8688 16.759 29.1135 16.4427 29.4668C16.2272 29.7025 16.0622 29.9797 15.9578 30.2815C15.8879 30.4974 15.8742 30.6235 15.8651 30.622C15.8614 30.5917 15.8614 30.5611 15.8651 30.5308C15.8773 30.4434 15.8961 30.357 15.9213 30.2724C16.0158 29.9602 16.1771 29.6723 16.3941 29.4288C16.7135 29.0598 17.1429 28.803 17.6192 28.6962C18.1603 28.5761 18.7713 28.687 19.3641 28.8725C19.9569 29.0579 20.5133 29.2707 21.0437 29.3406C21.2932 29.3771 21.5467 29.3771 21.7961 29.3406C22.0129 29.3079 22.2219 29.2363 22.4133 29.1294C22.6965 28.9808 22.9242 28.7446 23.0623 28.456C23.107 28.3496 23.143 28.2398 23.1702 28.1277Z" fill="#455A64"/>
<path d="M34.674 18.5078C34.6603 18.5246 33.8061 17.8299 32.7649 16.9559C31.7237 16.0819 30.8922 15.3523 30.9074 15.3417C30.9226 15.331 31.7754 16.0196 32.8166 16.8951C33.8577 17.7706 34.6892 18.4911 34.674 18.5078Z" fill="#263238"/>
<path d="M39.0095 17.4665C38.9882 17.4665 38.9016 16.1167 38.818 14.4493C38.7344 12.7818 38.6827 11.429 38.704 11.4275C38.7253 11.426 38.8119 12.7773 38.897 14.4462C38.9822 16.1152 39.0308 17.4665 39.0095 17.4665Z" fill="#263238"/>
<path d="M36.2489 16.5013C36.2276 16.5013 35.9616 15.7413 35.653 14.7792C35.3445 13.817 35.1119 13.0403 35.1332 13.0342C35.1545 13.0281 35.4205 13.7942 35.729 14.7549C36.0376 15.7155 36.2686 16.4953 36.2489 16.5013Z" fill="#263238"/>
<path d="M33.7885 19.9333C33.3882 19.7925 32.9968 19.6275 32.6166 19.4393C32.2251 19.2742 31.8444 19.0849 31.4766 18.8723C31.8768 19.0131 32.2682 19.1781 32.6485 19.3663C33.0398 19.5317 33.4205 19.721 33.7885 19.9333Z" fill="#263238"/>
<path d="M29.7922 18.187C29.7922 18.2083 29.663 18.2113 29.5094 18.187C29.3559 18.1627 29.2343 18.1353 29.2374 18.114C29.2404 18.0928 29.3666 18.0897 29.5186 18.114C29.6706 18.1384 29.7922 18.1657 29.7922 18.187Z" fill="#263238"/>
<path d="M35.2329 12.0524C35.2101 12.0524 35.1934 11.9292 35.1934 11.7757C35.1934 11.6222 35.2101 11.4976 35.2329 11.4976C35.2557 11.4976 35.2724 11.6222 35.2724 11.7757C35.2724 11.9292 35.2542 12.0524 35.2329 12.0524Z" fill="#263238"/>
<path d="M44.3838 14.1984C44.4005 14.2136 43.6983 15.0177 42.8182 15.9951C41.9381 16.9724 41.2116 17.7537 41.1918 17.7385C41.1721 17.7233 41.8773 16.9207 42.7574 15.9419C43.6375 14.963 44.3686 14.1847 44.3838 14.1984Z" fill="#263238"/>
<path d="M45.5013 13.0933C45.5165 13.1085 45.436 13.2149 45.3205 13.3304C45.2049 13.4459 45.1 13.525 45.0848 13.5098C45.0696 13.4946 45.1502 13.3882 45.2657 13.2742C45.3813 13.1602 45.4861 13.072 45.5013 13.0933Z" fill="#263238"/>
<path d="M48.2096 16.9846C48.1444 17.0316 48.0752 17.0728 48.0029 17.1077C47.8676 17.1822 47.67 17.2871 47.4238 17.4117C46.9298 17.661 46.2382 17.9863 45.4599 18.3101C44.6817 18.6338 43.9627 18.8922 43.4368 19.0701C43.1754 19.1567 42.9626 19.2221 42.8136 19.2661C42.7382 19.2935 42.6603 19.3134 42.5811 19.3254C42.6529 19.2899 42.7277 19.2604 42.8045 19.2373L43.4125 19.0169C43.9323 18.8299 44.6452 18.5609 45.4234 18.2417C46.2017 17.9225 46.8933 17.6017 47.3994 17.3661L47.9892 17.0865C48.0601 17.0471 48.1337 17.0131 48.2096 16.9846Z" fill="#263238"/>
<path d="M45.988 20.7271C45.8581 20.7849 45.7227 20.8292 45.5837 20.8593C45.3314 20.9292 44.9757 21.0113 44.5835 21.0797C44.1914 21.1481 43.8235 21.1861 43.5667 21.2043C43.426 21.2222 43.2838 21.2248 43.1426 21.2119C43.2806 21.1801 43.4209 21.1588 43.5621 21.1481C43.8205 21.1162 44.1777 21.0675 44.5699 20.9961C44.962 20.9247 45.3162 20.8563 45.5715 20.8015C45.7078 20.7639 45.8472 20.739 45.988 20.7271Z" fill="#263238"/>
<path d="M48.0074 20.353C47.7179 20.4057 47.4213 20.4057 47.1318 20.353C47.4213 20.3003 47.7179 20.3003 48.0074 20.353Z" fill="#263238"/>
<path d="M36.5836 58.064C36.7975 58.1004 37.002 58.1794 37.1848 58.2964C37.3676 58.4134 37.5249 58.5659 37.6476 58.7449C37.8897 59.1066 38.0457 59.5189 38.1036 59.9503C38.2419 60.7772 38.0185 61.7165 37.7114 62.4978C36.8678 62.1011 36.4179 61.1192 36.2218 60.6054C35.9178 59.7952 35.8403 58.14 36.576 58.064" fill="#FF8006"/>
<path d="M38.9626 63.6669C38.8356 63.4597 38.7657 63.2226 38.7601 62.9796C38.7545 62.7366 38.8134 62.4965 38.9307 62.2837C39.051 62.0729 39.2122 61.8882 39.4049 61.7404C39.5975 61.5927 39.8177 61.4849 40.0525 61.4234C40.1575 61.3833 40.2699 61.3666 40.382 61.3745C40.4941 61.3823 40.6032 61.4146 40.7015 61.469C40.7834 61.5346 40.8463 61.6209 40.8837 61.719C40.9211 61.817 40.9317 61.9233 40.9143 62.0268C40.8767 62.2337 40.7855 62.427 40.6498 62.5877C40.209 63.1562 39.6801 63.6243 38.9626 63.6669Z" fill="#FF8006"/>
<path d="M38.75 66.2871C38.7324 66.231 38.7227 66.1727 38.7211 66.1139C38.7105 66.0014 38.6953 65.8372 38.6846 65.6351C38.6462 65.1062 38.6784 64.5746 38.7804 64.0543C38.8895 63.5287 39.1378 63.042 39.4993 62.6452C39.6109 62.5288 39.7365 62.4266 39.8733 62.3412C39.919 62.3063 39.9704 62.2795 40.0253 62.2622C39.8525 62.3919 39.6908 62.5358 39.5419 62.6924C39.2047 63.0897 38.9727 63.5653 38.867 64.0755C38.7664 64.5889 38.7256 65.1123 38.7454 65.6351C38.76 65.8521 38.7616 66.0699 38.75 66.2871Z" fill="#263238"/>
<path d="M36.7842 59.324C36.8268 59.4112 36.8624 59.5017 36.8906 59.5945C36.9529 59.7709 37.0426 60.0262 37.1429 60.3439C37.3511 60.9793 37.6232 61.8639 37.9029 62.8443C38.1826 63.8247 38.4076 64.7215 38.5626 65.3721C38.6401 65.6974 38.6994 65.9603 38.7374 66.1442C38.7627 66.2379 38.78 66.3335 38.7891 66.43C38.7519 66.3406 38.7229 66.248 38.7025 66.1534C38.6492 65.9558 38.5808 65.6974 38.4988 65.3934C38.327 64.7474 38.0884 63.8551 37.8117 62.8747C37.5351 61.8943 37.2736 61.0081 37.0821 60.3682L36.8587 59.6082C36.826 59.5157 36.8011 59.4206 36.7842 59.324Z" fill="#263238"/>
<path d="M37.8392 64.4479C37.627 63.9831 37.3075 63.5753 36.9068 63.2582C36.5062 62.9411 36.036 62.7237 35.5349 62.6239C35.2795 62.5752 34.9649 62.5813 34.822 62.8002C34.6791 63.0191 34.8022 63.3109 34.9558 63.5207C35.2833 63.9557 35.7326 64.2838 36.2466 64.4635C36.7607 64.6431 37.3165 64.6663 37.8437 64.53" fill="#FF8006"/>
<path d="M35.8145 63.352C35.8713 63.3498 35.9282 63.356 35.9832 63.3702C36.0485 63.3792 36.113 63.3929 36.1762 63.4113C36.2617 63.4313 36.3459 63.4562 36.4286 63.4857C36.6445 63.5614 36.8523 63.6587 37.0487 63.7761C37.5337 64.063 37.944 64.4604 38.2465 64.9358C38.368 65.1278 38.4698 65.3315 38.5505 65.5438C38.5833 65.6252 38.6112 65.7084 38.6341 65.7931C38.6551 65.8561 38.6714 65.9207 38.6827 65.9861C38.6987 66.0404 38.7059 66.0968 38.704 66.1534C38.6873 66.1534 38.6402 65.9208 38.4897 65.5697C38.4003 65.3645 38.293 65.1677 38.169 64.9814C38.0155 64.7548 37.8398 64.544 37.6446 64.3521C37.4467 64.1633 37.2309 63.9943 37.0001 63.8475C36.8097 63.729 36.6093 63.6273 36.4012 63.5435C36.0486 63.4097 35.8114 63.3702 35.8145 63.352Z" fill="#263238"/>
</svg>
