<?xml version="1.0" encoding="utf-8"?>
<!-- Generator: Adobe Illustrator 23.0.5, SVG Export Plug-In . SVG Version: 6.00 Build 0)  -->
<svg version="1.1" id="Capa_1" xmlns="http://www.w3.org/2000/svg" xmlns:xlink="http://www.w3.org/1999/xlink" x="0px" y="0px"
	 viewBox="0 0 199.3 102.1" style="enable-background:new 0 0 199.3 102.1;" xml:space="preserve">
<style type="text/css">
	.st0{fill-rule:evenodd;clip-rule:evenodd;fill:#FFFFFF;}
	.st1{fill:#4984C1;}
	.st2{opacity:0.2;}
	.st3{fill:none;}
	.st4{fill:#FFFFFF;}
	.st5{opacity:0.8;fill:#FFFFFF;enable-background:new    ;}
	.st6{opacity:0.8;fill:none;stroke:#FFFFFF;stroke-width:0.9828;stroke-dasharray:0.9828,0.9828;enable-background:new    ;}
	.st7{fill:#C5D045;}
	.st8{fill:#182B5B;}
</style>
<g>
	<g id="Page-1">
		<g id="logo">
			<path id="base" class="st0" d="M159.6,25.2L159.6,25.2c13.5,0,24.5,11,24.5,24.5l0,0c0,13.5-11,24.5-24.5,24.5l0,0
				c-13.5,0-24.5-11-24.5-24.5l0,0C135.1,36.2,146.1,25.2,159.6,25.2z"/>
			<path id="WalletConnect" class="st1" d="M151.3,42.9c4.6-4.5,12-4.5,16.6,0l0.6,0.5c0.2,0.2,0.2,0.6,0,0.8l-1.9,1.8
				c-0.1,0.1-0.3,0.1-0.4,0l-0.8-0.7c-3.2-3.1-8.4-3.1-11.6,0l-0.8,0.8c-0.1,0.1-0.3,0.1-0.4,0l-1.9-1.8c-0.2-0.2-0.2-0.6,0-0.8
				L151.3,42.9z M171.8,46.7l1.7,1.6c0.2,0.2,0.2,0.6,0,0.8l-7.6,7.4c-0.2,0.2-0.6,0.2-0.8,0c0,0,0,0,0,0l-5.4-5.3
				c-0.1-0.1-0.2-0.1-0.2,0c0,0,0,0,0,0l-5.4,5.3c-0.2,0.2-0.6,0.2-0.8,0c0,0,0,0,0,0l-7.6-7.4c-0.2-0.2-0.2-0.6,0-0.8l1.7-1.6
				c0.2-0.2,0.6-0.2,0.8,0l5.4,5.3c0.1,0.1,0.2,0.1,0.2,0c0,0,0,0,0,0l5.4-5.3c0.2-0.2,0.6-0.2,0.8,0c0,0,0,0,0,0l5.4,5.3
				c0.1,0.1,0.2,0.1,0.2,0l5.4-5.3C171.2,46.5,171.6,46.5,171.8,46.7z"/>
		</g>
	</g>
	<g class="st2">
		<path class="st3" d="M8.8,46.5c0,0.7-0.2,1.4-0.6,2c0,0.1-0.1,0.1-0.1,0.2l27,25L42.6,16c-0.3,0-0.6-0.1-0.9-0.2
			c-2-0.5-3.8-1.4-5.3-2.7l-28.6,31C8.4,44.7,8.8,45.6,8.8,46.5z"/>
		<path class="st3" d="M55.1,10.3c-2.5,4-7,6.3-11.8,5.8l-7.6,57.6l66.9-14l0.1,0.7L36,74.3l29.6,27.8H113l17.6-48.2L55.1,10.3z"/>
		<polygon class="st3" points="113.7,102.1 199.3,102.1 199.3,93.7 131.1,54.2 		"/>
		<path class="st3" d="M56.6,6.6c-0.3,1.1-0.7,2.1-1.2,3.1l75.3,43.6L150.2,0H56.4C57,2.1,57.2,4.3,56.6,6.6z"/>
		<path class="st3" d="M36.3,75.9L7.5,49.2c-0.3,0.3-0.7,0.5-1,0.7c-0.7,0.3-1.4,0.3-2.1,0.2c-0.7-0.1-1.4-0.5-1.9-1
			c-0.5-0.5-0.9-1.2-1-1.9c-0.1-0.7-0.1-1.4,0.2-2.1c0.3-0.7,0.7-1.2,1.3-1.6c0.6-0.4,1.3-0.6,2-0.6c0.8,0,1.6,0.3,2.2,0.8l28.6-31
			c-3-2.9-4.5-7.3-3.4-11.7c0.1-0.3,0.2-0.6,0.3-0.9H0v102.1h19.3L36.3,75.9z"/>
		<polygon class="st3" points="20.2,102.1 64.6,102.1 37,76.1 		"/>
		<path class="st3" d="M199.3,92.9V71l-12.1-19.3c0,0-0.1,0.1-0.1,0.1c-0.2,0.1-0.4,0.1-0.6,0.2L186,55l-0.5-3.1c0,0,0,0-0.1,0
			c-0.6-0.1-1.1-0.4-1.5-0.8c-0.4-0.4-0.7-0.9-0.8-1.5s-0.1-1.2,0.2-1.7c0.2-0.5,0.6-1,1.1-1.3c0.5-0.3,1.1-0.5,1.6-0.5
			c0.4,0,0.8,0.1,1.1,0.2c0.4,0.1,0.7,0.4,1,0.6s0.5,0.6,0.6,1c0.1,0.4,0.2,0.7,0.2,1.1c0,0.6-0.2,1.2-0.5,1.6
			c-0.2,0.2-0.4,0.5-0.6,0.7l11.5,18.4V0.6l-18.4,8c0.1,0.3,0.1,0.6,0.1,0.9c0,1.5-1.1,2.7-2.4,2.9l-0.5,3.1l-0.5-3.1
			c-1.4-0.2-2.4-1.5-2.4-2.9c0-1.6,1.3-3,3-3c1.1,0,2,0.6,2.5,1.5L199,0h-48.1l-19.5,53.6L199.3,92.9z"/>
		<path class="st4" d="M8.8,46.5c0-0.9-0.3-1.8-0.9-2.4l-2.2,2.4L8,48.7c0-0.1,0.1-0.1,0.1-0.2C8.6,47.9,8.8,47.2,8.8,46.5z"/>
		<path class="st4" d="M4.9,46.3l2.5-2.7c-0.6-0.5-1.4-0.8-2.2-0.8c-0.7,0-1.4,0.2-2,0.6c-0.6,0.4-1.1,1-1.3,1.6
			c-0.3,0.7-0.3,1.4-0.2,2.1c0.1,0.7,0.5,1.4,1,1.9c0.5,0.5,1.2,0.9,1.9,1c0.7,0.1,1.4,0.1,2.1-0.2c0.4-0.2,0.7-0.4,1-0.7l-2.9-2.7
			L4.9,46.3z"/>
		<polygon class="st4" points="131.4,53.6 150.9,0 150.2,0 130.8,53.2 		"/>
		<polygon class="st4" points="130.5,53.9 113,102.1 113.7,102.1 131.1,54.2 		"/>
		<path class="st4" d="M34.9,74.2l0.1-0.4l-27-25l-2.4-2.2l2.2-2.4l28.6-31c-0.2-0.2-0.3-0.3-0.5-0.5l-28.6,31l-2.5,2.7l-0.2,0.2
			l2.9,2.7l28.7,26.7l-16.9,26.2h0.8l16.8-26L34.9,74.2z"/>
		<path class="st4" d="M130.8,53.2L55.5,9.7c-0.1,0.2-0.2,0.4-0.3,0.6l75.4,43.6l0.6,0.3l68.2,39.5v-0.8l-68-39.3L130.8,53.2z"/>
		<path class="st5" d="M181,8.5l18.4-8V0H199l-18.2,7.9C180.8,8.1,180.9,8.3,181,8.5z"/>
		<path class="st5" d="M187.2,51.7L199.3,71v-1.3l-11.5-18.4C187.6,51.5,187.4,51.6,187.2,51.7z"/>
		<polygon class="st5" points="36,74.3 102.7,60.3 102.6,59.6 35.7,73.6 35.6,73.9 		"/>
		<path class="st5" d="M35.3,74l-0.1-0.3l0.5-0.1l7.6-57.6c-0.2,0-0.4-0.1-0.7-0.1L35,73.8L35.3,74z"/>
		<polygon class="st5" points="35.6,74.4 37.2,75.8 37,76.1 64.6,102.1 65.6,102.1 36,74.3 		"/>
		<polygon class="st4" points="35.3,74 35,73.8 34.9,74.2 37,76.1 37.2,75.8 35.6,74.4 35.3,74.4 		"/>
		<polygon class="st5" points="35.3,74 35,73.8 34.9,74.2 37,76.1 37.2,75.8 35.6,74.4 35.3,74.4 		"/>
		<polygon class="st5" points="35.3,74 35.6,74.4 36,74.3 35.6,73.9 35.7,73.6 35.2,73.7 		"/>
		<polygon class="st5" points="35.3,74 35.6,74.4 36,74.3 35.6,73.9 35.7,73.6 35.2,73.7 		"/>
		<polygon class="st4" points="35.3,74.4 35.6,74.4 35.3,74 		"/>
		<polygon class="st5" points="35.3,74.4 35.6,74.4 35.3,74 		"/>
		<polygon class="st5" points="35.3,74.4 35.6,74.4 35.3,74 		"/>
		<path class="st4" d="M177.6,12.3l0.5,3.1l0.5-3.1c-0.2,0-0.3,0.1-0.5,0.1S177.8,12.3,177.6,12.3z"/>
		<path class="st4" d="M178.2,6.4c-1.6,0-3,1.3-3,3c0,1.5,1.1,2.7,2.4,2.9c0.2,0,0.3,0.1,0.5,0.1s0.4,0,0.5-0.1
			c1.4-0.2,2.4-1.5,2.4-2.9c0-0.3-0.1-0.6-0.1-0.9c-0.1-0.2-0.2-0.4-0.3-0.6C180.2,7,179.3,6.4,178.2,6.4z"/>
		<path class="st4" d="M185.4,51.9L186,55l0.5-3.1C186.1,52,185.8,52,185.4,51.9z"/>
		<path class="st4" d="M188.4,50.7c0.3-0.5,0.5-1.1,0.5-1.6c0-0.4-0.1-0.8-0.2-1.1c-0.1-0.4-0.4-0.7-0.6-1s-0.6-0.5-1-0.6
			c-0.4-0.1-0.7-0.2-1.1-0.2c-0.6,0-1.2,0.2-1.6,0.5c-0.5,0.3-0.9,0.8-1.1,1.3c-0.2,0.5-0.3,1.1-0.2,1.7s0.4,1.1,0.8,1.5
			c0.4,0.4,0.9,0.7,1.5,0.8c0,0,0,0,0.1,0c0.3,0.1,0.7,0.1,1.1,0c0.2,0,0.4-0.1,0.6-0.2c0,0,0.1,0,0.1-0.1c0.2-0.1,0.4-0.2,0.6-0.4
			C188,51.1,188.2,50.9,188.4,50.7z"/>
		<path class="st4" d="M35.9,12.6c0.2,0.2,0.3,0.3,0.5,0.5c1.5,1.3,3.3,2.2,5.3,2.7c0.3,0.1,0.6,0.1,0.9,0.2c0.2,0,0.4,0.1,0.7,0.1
			c4.8,0.5,9.4-1.8,11.8-5.8c0.1-0.2,0.2-0.4,0.3-0.6c0.5-0.9,0.9-2,1.2-3.1C57.2,4.3,57,2.1,56.4,0H32.8c-0.1,0.3-0.2,0.6-0.3,0.9
			C31.5,5.3,32.9,9.7,35.9,12.6z"/>
	</g>
	<g>
		<circle class="st6" cx="121.1" cy="49.7" r="32.8"/>
		<circle class="st7" cx="121.1" cy="49.7" r="27.5"/>
		<path class="st8" d="M130.1,57.9c0,0-0.5-0.3-0.7-0.5c-0.3-0.2-0.5-0.5-0.8-0.8c-0.3-0.3-0.5-0.7-0.8-1c-0.5-0.8-3.1-4.6-5.2-7.6
			l-0.5-0.8c-1.4-2.1-2.8-4.1-2.9-4.3c-0.3-0.4-0.6-0.9-1-1.2c-0.4-0.4-0.8-0.7-1.2-0.9c-0.5-0.3-1-0.4-1.5-0.4h-3.4
			c-0.2,0-0.4,0.2-0.4,0.4c0,0.2,0.1,0.4,0.3,0.5l0.1-0.1l-0.1,0.2c0,0,0.5,0.3,0.7,0.5c0.3,0.2,0.5,0.5,0.8,0.8
			c0.3,0.3,0.5,0.7,0.8,1c0.5,0.8,3.1,4.5,5.2,7.6L120,52c1.4,2.1,2.8,4.1,2.9,4.3c0.3,0.4,0.6,0.9,1,1.2c0.4,0.4,0.8,0.7,1.2,0.9
			c0.5,0.3,1,0.4,1.5,0.4h3.4c0.2,0,0.4-0.2,0.4-0.4C130.4,58.2,130.3,58,130.1,57.9z"/>
		<path class="st8" d="M117.5,52.5L117.5,52.5l-0.6-0.8c-1.3,1.9-2.4,3.5-2.7,3.9c-0.2,0.4-0.5,0.7-0.8,1c-0.2,0.3-0.5,0.5-0.8,0.8
			c-0.2,0.2-0.7,0.5-0.7,0.5l0.1,0.2l-0.1-0.1c-0.2,0.1-0.3,0.3-0.3,0.5c0,0.2,0.2,0.4,0.4,0.4h3.4c0.5,0,1-0.1,1.5-0.4
			c0.4-0.3,0.9-0.6,1.2-0.9c0.4-0.4,0.7-0.8,1-1.2c0-0.1,0.2-0.3,0.4-0.6c-0.6-0.8-1.2-1.8-1.6-2.3L117.5,52.5z"/>
		<path class="st8" d="M124.6,46.7L124.6,46.7l0.6,0.9c1.3-1.9,2.4-3.5,2.7-3.9c0.2-0.4,0.5-0.7,0.8-1c0.2-0.3,0.5-0.5,0.8-0.8
			c0.2-0.2,0.7-0.5,0.7-0.5c0.2-0.1,0.3-0.3,0.3-0.5c0-0.2-0.2-0.4-0.4-0.4h-3.4c-0.5,0-1,0.1-1.5,0.4c-0.4,0.3-0.9,0.6-1.2,0.9
			c-0.4,0.4-0.7,0.8-1,1.2c0,0.1-0.2,0.3-0.4,0.6c0.6,0.8,1.2,1.8,1.6,2.3L124.6,46.7z"/>
	</g>
</g>
</svg>
