<svg width="48" height="62" viewBox="0 0 48 62" fill="none" xmlns="http://www.w3.org/2000/svg">
<path d="M37.3434 56.9902H18.6494V61.0352H37.3434V56.9902Z" fill="#E0E0E0"/>
<path d="M26.0703 56.9902L26.379 61.0352H29.0176L29.1548 56.9902H26.0703Z" fill="#E0E0E0"/>
<path d="M32.7536 56.9788H14.0596V61.0237H32.7536V56.9788Z" fill="#EBEBEB"/>
<path d="M32.7471 57.6249C32.7471 57.6749 28.5878 57.7164 23.4565 57.7164C18.3253 57.7164 14.166 57.6749 14.166 57.6249C14.166 57.5749 18.3239 57.532 23.4565 57.532C28.5892 57.532 32.7471 57.5734 32.7471 57.6249Z" fill="#E0E0E0"/>
<path d="M32.7422 58.5497C32.7422 58.6011 28.5829 58.6426 23.4517 58.6426C18.3204 58.6426 14.1611 58.6011 14.1611 58.5497C14.1611 58.4982 18.319 58.4568 23.4517 58.4568C28.5843 58.4568 32.7422 58.4982 32.7422 58.5497Z" fill="#E0E0E0"/>
<path d="M32.7422 59.4745C32.7422 59.526 28.5829 59.5674 23.4517 59.5674C18.3204 59.5674 14.1611 59.526 14.1611 59.4745C14.1611 59.4231 18.319 59.3831 23.4517 59.3831C28.5843 59.3831 32.7422 59.4245 32.7422 59.4745Z" fill="#E0E0E0"/>
<path d="M32.7422 60.3949C32.7422 60.4464 28.5829 60.4878 23.4517 60.4878C18.3204 60.4878 14.1611 60.4464 14.1611 60.3949C14.1611 60.3434 18.319 60.302 23.4517 60.302C28.5843 60.302 32.7422 60.3492 32.7422 60.3949Z" fill="#E0E0E0"/>
<path d="M21.5352 56.9902L21.8425 61.0352H24.4824L24.6196 56.9902H21.5352Z" fill="#E0E0E0"/>
<path d="M17.5635 61.035H17.6635H17.958L19.0914 61.0279L23.2879 61.0165L37.3438 61.005L37.3066 61.0422V56.9972L37.3438 57.0344L23.2922 57.0144L19.0986 57.0001L17.9651 56.993H17.6707C17.6049 56.993 17.5706 56.993 17.5706 56.993H17.6707H17.9651H19.0986L23.2922 56.9844H37.3438H37.3838V61.1037H37.3466L23.2907 61.0922L19.0886 61.0479H17.9551H17.6607L17.5635 61.035Z" fill="#263238"/>
<path d="M32.8282 61.0095C32.8082 61.0095 32.791 60.1276 32.791 59.0399C32.791 57.9522 32.8082 57.0718 32.8282 57.0718C32.8482 57.0718 32.8653 57.9522 32.8653 59.0399C32.8653 60.1276 32.8496 61.0095 32.8282 61.0095Z" fill="#263238"/>
<path d="M37.1365 49.4036H19.4902V53.2213H37.1365V49.4036Z" fill="#E0E0E0"/>
<path d="M26.4961 49.4036L26.7877 53.2213H29.279L29.4076 49.4036H26.4961Z" fill="#E0E0E0"/>
<path d="M32.8553 49.4021H15.209V53.2198H32.8553V49.4021Z" fill="#EBEBEB"/>
<path d="M32.7999 50.001C32.7999 50.0496 28.875 50.0896 24.0325 50.0896C19.19 50.0896 15.2637 50.0496 15.2637 50.001C15.2637 49.9524 19.19 49.9138 24.0325 49.9138C28.875 49.9138 32.7999 49.961 32.7999 50.001Z" fill="#E0E0E0"/>
<path d="M32.7941 50.8755C32.7941 50.9227 28.8692 50.9627 24.0266 50.9627C19.1841 50.9627 15.2578 50.9227 15.2578 50.8755C15.2578 50.8283 19.1841 50.7883 24.0266 50.7883C28.8692 50.7883 32.7941 50.8269 32.7941 50.8755Z" fill="#E0E0E0"/>
<path d="M32.7941 51.7493C32.7941 51.7965 28.8692 51.8365 24.0266 51.8365C19.1841 51.8365 15.2578 51.7965 15.2578 51.7493C15.2578 51.7021 19.1841 51.6621 24.0266 51.6621C28.8692 51.6621 32.7941 51.7007 32.7941 51.7493Z" fill="#E0E0E0"/>
<path d="M32.7941 52.6226C32.7941 52.6712 28.8692 52.7098 24.0266 52.7098C19.1841 52.7098 15.2578 52.6712 15.2578 52.6226C15.2578 52.574 19.1841 52.5354 24.0266 52.5354C28.8692 52.5354 32.7941 52.574 32.7941 52.6226Z" fill="#E0E0E0"/>
<path d="M22.2148 49.4036L22.505 53.2213H24.9963L25.1263 49.4036H22.2148Z" fill="#E0E0E0"/>
<path d="M18.4653 53.2098C18.4653 53.2098 18.4982 53.2098 18.5597 53.2098H18.8384H19.9075L23.8681 53.1983L37.1379 53.1855L37.1007 53.2226V49.3892L37.1379 49.4264L23.7781 49.4721H19.7889H18.7098H18.4239C18.361 49.4721 18.3281 49.4721 18.3281 49.4721H18.4239H18.7098L19.7889 49.4607L23.7781 49.4321L37.1379 49.3621H37.1751V53.2484H37.1379L23.8681 53.2369L19.9075 53.2255L18.8384 53.2184H18.5597L18.4653 53.2098Z" fill="#263238"/>
<path d="M39.0252 53.2212H21.3789V57.0389H39.0252V53.2212Z" fill="#E0E0E0"/>
<path d="M28.3848 53.2212L28.6763 57.0389H31.1676L31.2977 53.2212H28.3848Z" fill="#E0E0E0"/>
<path d="M34.6932 53.2097H17.0469V57.0274H34.6932V53.2097Z" fill="#EBEBEB"/>
<path d="M34.6881 53.8201C34.6881 53.8673 30.7632 53.9073 25.9207 53.9073C21.0782 53.9073 17.1533 53.8673 17.1533 53.8201C17.1533 53.7729 21.0782 53.7329 25.9207 53.7329C30.7632 53.7329 34.6881 53.7715 34.6881 53.8201Z" fill="#E0E0E0"/>
<path d="M34.6817 54.6934C34.6817 54.7406 30.7569 54.7806 25.9143 54.7806C21.0718 54.7806 17.1455 54.7406 17.1455 54.6934C17.1455 54.6462 21.0718 54.6062 25.9143 54.6062C30.7569 54.6062 34.6817 54.6448 34.6817 54.6934Z" fill="#E0E0E0"/>
<path d="M34.6817 55.5667C34.6817 55.6153 30.7569 55.6539 25.9143 55.6539C21.0718 55.6539 17.1455 55.6153 17.1455 55.5667C17.1455 55.5181 21.0718 55.4795 25.9143 55.4795C30.7569 55.4795 34.6817 55.5181 34.6817 55.5667Z" fill="#E0E0E0"/>
<path d="M34.6817 56.44C34.6817 56.4886 30.7569 56.5272 25.9143 56.5272C21.0718 56.5272 17.1455 56.4886 17.1455 56.44C17.1455 56.3914 21.0718 56.3528 25.9143 56.3528C30.7569 56.3528 34.6817 56.3928 34.6817 56.44Z" fill="#E0E0E0"/>
<path d="M24.1035 53.2212L24.3937 57.0389H26.885L27.015 53.2212H24.1035Z" fill="#E0E0E0"/>
<path d="M20.3525 57.0388H20.4483H20.7256L21.7961 57.0317L25.7568 57.0202L39.0251 57.0088L38.9879 57.046V53.2211L39.0251 53.2583L25.7611 53.2383L21.8019 53.224L20.7327 53.2168H20.4554H20.3611C20.3611 53.2168 20.3926 53.2168 20.4554 53.2168H20.7327H21.8019L25.7611 53.2083H39.0251H39.0623V57.1003H39.0251L25.7568 57.0874L21.8033 57.0517H20.7327H20.4554C20.3854 57.0417 20.3525 57.0388 20.3525 57.0388Z" fill="#263238"/>
<path d="M32.8721 53.2484C32.8521 53.2484 32.835 52.3908 32.835 51.3445C32.835 50.2983 32.8521 49.4407 32.8721 49.4407C32.8921 49.4407 32.9093 50.2983 32.9093 51.3445C32.9093 52.3908 32.8936 53.2484 32.8721 53.2484Z" fill="#263238"/>
<path d="M34.7667 57.0146C34.7452 57.0146 34.7295 56.1827 34.7295 55.1565C34.7295 54.1302 34.7452 53.2983 34.7667 53.2983C34.7881 53.2983 34.8038 54.1302 34.8038 55.1565C34.8038 56.1827 34.7867 57.0146 34.7667 57.0146Z" fill="#263238"/>
<path d="M14.862 7.83608C14.8758 7.64342 14.9465 7.45918 15.065 7.30668C15.1836 7.15419 15.3447 7.0403 15.5281 6.97943C15.7114 6.91856 15.9086 6.91344 16.0949 6.96472C16.2811 7.016 16.4479 7.12138 16.5743 7.26751C16.7006 7.41365 16.7807 7.59398 16.8045 7.78567C16.8283 7.97736 16.7947 8.17181 16.7079 8.34439C16.6211 8.51697 16.4851 8.65993 16.3171 8.75519C16.149 8.85044 15.9565 8.89369 15.7639 8.87948C15.6361 8.87025 15.5114 8.83592 15.397 8.77848C15.2825 8.72103 15.1805 8.64159 15.0967 8.54469C15.0129 8.44779 14.9491 8.33533 14.9088 8.21374C14.8685 8.09216 14.8526 7.96383 14.862 7.83608Z" fill="#FF8006"/>
<g opacity="0.3">
<path opacity="0.3" d="M15.7797 7.45872L15.7868 7.33008H15.9026L15.8955 7.45586C15.9992 7.46402 16.0984 7.50172 16.1813 7.56449L16.1098 7.70742C16.0457 7.65767 15.97 7.62519 15.8897 7.61308L15.8783 7.80461C16.0055 7.84463 16.1456 7.89609 16.1356 8.06046C16.1356 8.18338 16.0327 8.282 15.8497 8.29201V8.42065L15.7339 8.4135V8.28772C15.6516 8.27844 15.5727 8.24952 15.5038 8.20339L15.5696 8.06046C15.6221 8.09507 15.6808 8.11933 15.7425 8.13192L15.7554 7.93468C15.6282 7.89752 15.4895 7.84606 15.4995 7.68312C15.5024 7.56877 15.5967 7.47015 15.7797 7.45872ZM15.8626 7.97184L15.8526 8.13621C15.9155 8.12621 15.9412 8.09333 15.9441 8.05617C15.9469 8.01901 15.914 7.99614 15.8626 7.97184ZM15.6811 7.68598C15.6811 7.726 15.7111 7.7503 15.7597 7.77031L15.7682 7.61165C15.7111 7.62023 15.6839 7.64882 15.6825 7.68598H15.6811Z" fill="black"/>
</g>
<g opacity="0.3">
<path opacity="0.3" d="M15.0881 7.93579C15.0958 7.96571 15.1001 7.99639 15.101 8.02727C15.1119 8.10796 15.135 8.18652 15.1696 8.26024C15.1942 8.31077 15.2239 8.35866 15.2582 8.40317C15.2999 8.45344 15.348 8.49812 15.4011 8.5361C15.4284 8.55664 15.4571 8.57527 15.4869 8.59184C15.5184 8.60949 15.5514 8.62432 15.5855 8.63615C15.6203 8.64964 15.6562 8.66016 15.6927 8.6676C15.7304 8.67486 15.7687 8.67916 15.8071 8.68046C15.8451 8.68334 15.8833 8.68334 15.9214 8.68046C15.9581 8.67682 15.9944 8.67013 16.03 8.66045C16.0647 8.65064 16.0987 8.63822 16.1315 8.62329C16.1636 8.61025 16.1942 8.59397 16.223 8.57469C16.2755 8.54089 16.3236 8.50054 16.3659 8.45463C16.4033 8.41302 16.4368 8.36805 16.466 8.32028C16.5066 8.2495 16.536 8.17283 16.5532 8.09301C16.5571 8.0628 16.5643 8.03309 16.5746 8.0044C16.5808 8.03506 16.5808 8.06664 16.5746 8.0973C16.5639 8.18169 16.5383 8.26349 16.4988 8.33886C16.4717 8.39055 16.4381 8.43858 16.3988 8.48179C16.3537 8.53294 16.3017 8.57767 16.2444 8.61471C16.2135 8.63532 16.181 8.65348 16.1472 8.66903C16.1123 8.68555 16.0759 8.69895 16.0386 8.70905C15.9999 8.72084 15.9602 8.72898 15.92 8.73334C15.8791 8.73622 15.838 8.73622 15.7971 8.73334C15.7557 8.73172 15.7146 8.72646 15.6741 8.71762C15.6347 8.7097 15.596 8.69871 15.5584 8.68475C15.5224 8.67067 15.4875 8.65395 15.454 8.63472C15.4218 8.61624 15.3907 8.59571 15.3611 8.57326C15.3077 8.53179 15.2597 8.48377 15.2182 8.43033C15.1839 8.38203 15.1546 8.33029 15.131 8.27597C15.0979 8.19705 15.0795 8.11278 15.0767 8.02727C15.0747 7.99633 15.0786 7.96529 15.0881 7.93579Z" fill="black"/>
</g>
<path d="M15.0862 7.86609C15.0867 7.92781 15.0915 7.98942 15.1005 8.05047C15.1302 8.21596 15.2142 8.36685 15.3392 8.47926C15.4308 8.56161 15.5418 8.61925 15.6619 8.64676C15.7819 8.67427 15.907 8.67074 16.0253 8.63649C16.1698 8.59314 16.2978 8.50696 16.3924 8.38935C16.487 8.27173 16.5437 8.1282 16.555 7.97771C16.5663 7.82721 16.5317 7.67682 16.4557 7.5464C16.3798 7.41598 16.2661 7.31165 16.1296 7.2472C16.0175 7.19561 15.894 7.17352 15.7709 7.18303C15.6479 7.19253 15.5293 7.23331 15.4264 7.30151C15.2866 7.39388 15.1815 7.53015 15.1277 7.68885C15.1099 7.74743 15.0961 7.80711 15.0862 7.86752C15.0864 7.80579 15.0965 7.74449 15.1162 7.686C15.1674 7.52177 15.2727 7.3797 15.415 7.28293C15.5207 7.21172 15.643 7.1687 15.77 7.15794C15.8971 7.14719 16.0248 7.16905 16.141 7.22147C16.2828 7.28805 16.401 7.3961 16.48 7.53132C16.559 7.66655 16.5951 7.82257 16.5834 7.97875C16.5718 8.13492 16.513 8.28389 16.4149 8.40593C16.3168 8.52798 16.1839 8.61735 16.0338 8.66221C15.9105 8.69886 15.7797 8.70271 15.6543 8.67339C15.529 8.64406 15.4135 8.58257 15.3192 8.49499C15.1928 8.37875 15.1096 8.22302 15.0834 8.05333C15.0742 7.99117 15.0752 7.92794 15.0862 7.86609Z" fill="#263238"/>
<path d="M16.1484 7.03564C16.1861 7.03872 16.2227 7.04994 16.2556 7.06852C16.3387 7.10561 16.4146 7.15688 16.48 7.22003C16.5467 7.28207 16.6023 7.35507 16.6444 7.43585C16.6636 7.46808 16.6772 7.50337 16.6844 7.54019C16.6229 7.4313 16.5475 7.33088 16.46 7.24147C16.366 7.15905 16.2611 7.08981 16.1484 7.03564Z" fill="white"/>
<path d="M15.9915 6.98306C15.9915 6.98306 16.0144 6.97448 16.0373 6.98306C16.0601 6.99164 16.0759 7.00021 16.0744 7.00879C16.073 7.01736 16.0516 7.01736 16.0287 7.00879C16.0058 7.00021 15.9887 6.99164 15.9915 6.98306Z" fill="white"/>
<path d="M26.0102 33.2707V31.687H26.4146C26.5397 31.687 26.6597 31.6373 26.7482 31.5488C26.8366 31.4604 26.8863 31.3404 26.8863 31.2153C26.8863 31.0902 26.8366 30.9702 26.7482 30.8818C26.6597 30.7933 26.5397 30.7436 26.4146 30.7436H26.0102V30.1991H26.4146C26.5354 30.1924 26.6491 30.1397 26.7323 30.0519C26.8154 29.964 26.8618 29.8476 26.8618 29.7267C26.8618 29.6057 26.8154 29.4893 26.7323 29.4015C26.6491 29.3136 26.5354 29.2609 26.4146 29.2543H26.0102V28.4639H3.02964V29.2543H2.62514C2.50435 29.2609 2.3907 29.3136 2.30754 29.4015C2.22438 29.4893 2.17804 29.6057 2.17804 29.7267C2.17804 29.8476 2.22438 29.964 2.30754 30.0519C2.3907 30.1397 2.50435 30.1924 2.62514 30.1991H3.02964V30.7436H2.62514C2.50005 30.7436 2.38008 30.7933 2.29162 30.8818C2.20317 30.9702 2.15347 31.0902 2.15347 31.2153C2.15347 31.3404 2.20317 31.4604 2.29162 31.5488C2.38008 31.6373 2.50005 31.687 2.62514 31.687H3.02964V33.0477C2.63678 33.0477 2.24777 33.1251 1.88482 33.2754C1.52187 33.4257 1.19208 33.6461 0.914292 33.9239C0.636501 34.2017 0.416144 34.5315 0.265804 34.8944C0.115465 35.2574 0.0380859 35.6464 0.0380859 36.0392V56.5685C0.039978 57.6558 0.473061 58.698 1.24234 59.4665C2.01162 60.235 3.05429 60.667 4.14165 60.6677H24.8939C25.982 60.6681 27.0257 60.2366 27.7959 59.468C28.5661 58.6994 28.9998 57.6566 29.0017 56.5685V36.2722C29.003 35.8785 28.9266 35.4884 28.7769 35.1243C28.6271 34.7602 28.407 34.4292 28.129 34.1504C27.8511 33.8715 27.5209 33.6503 27.1573 33.4993C26.7937 33.3484 26.4039 33.2706 26.0102 33.2707Z" fill="#FAFAFA"/>
<path d="M26.01 33.2706C26.01 33.2706 26.1186 33.2706 26.3244 33.2835C26.6305 33.3174 26.93 33.3959 27.2135 33.5164C27.4218 33.6073 27.6189 33.722 27.8009 33.858C28.0222 34.0196 28.219 34.2122 28.3855 34.4298C28.8069 34.9768 29.0278 35.6519 29.0115 36.3422C29.0115 39.4209 29.0187 43.8733 29.023 49.3747C29.023 50.7506 29.023 52.1904 29.023 53.6941C29.023 54.4449 29.023 55.2106 29.023 55.991C29.023 56.1854 29.023 56.3826 29.023 56.5784C29.0196 56.7779 29.0034 56.977 28.9744 57.1744C28.9455 57.3735 28.9025 57.5703 28.8457 57.7633C28.8171 57.8591 28.7786 57.9534 28.7442 58.0492C28.7113 58.145 28.6712 58.2382 28.6242 58.3279C28.5367 58.513 28.4369 58.6921 28.3255 58.8639C28.2082 59.0333 28.0797 59.1947 27.941 59.347C27.6612 59.6588 27.3336 59.9242 26.9705 60.1331C26.6038 60.3483 26.206 60.5055 25.7913 60.5991C25.368 60.6833 24.9362 60.7174 24.5049 60.7006H19.2007H7.78622H4.79181C4.29155 60.7006 3.777 60.7191 3.27531 60.6077C2.77123 60.5013 2.29199 60.3 1.86315 60.0145C0.98714 59.4342 0.363552 58.5435 0.117953 57.5218C-0.010685 57.0129 -0.00067975 56.4812 0.000749564 55.9624V54.3901C0.000749564 50.2966 0.000749564 46.2959 0.000749564 42.4382V36.0763C0.000749564 35.9606 0.0121842 35.8448 0.0164721 35.729C0.02076 35.6132 0.0479172 35.4975 0.0736449 35.386C0.175573 34.9347 0.377821 34.5121 0.665381 34.1496C0.949878 33.7964 1.3096 33.5111 1.71833 33.3145C2.12706 33.118 2.5745 33.0151 3.02804 33.0133L2.99373 33.0476C2.99373 32.5845 2.99373 32.1343 2.99373 31.6869L3.02661 31.7212H2.74074C2.64023 31.7304 2.53891 31.7183 2.44345 31.6855C2.34739 31.6481 2.26509 31.5822 2.20762 31.4966C2.15014 31.4111 2.12025 31.31 2.12196 31.2069C2.12368 31.1039 2.15691 31.0038 2.2172 30.9202C2.27748 30.8366 2.36193 30.7735 2.45917 30.7393C2.55196 30.7126 2.64872 30.7025 2.74503 30.7093H3.03089L2.99802 30.7436V30.199L3.03089 30.2319H2.74503C2.64395 30.2408 2.54211 30.2282 2.44631 30.1947C2.35083 30.1568 2.2692 30.0906 2.21234 30.0051C2.15548 29.9195 2.1261 29.8186 2.12812 29.7159C2.13014 29.6132 2.16347 29.5135 2.22365 29.4303C2.28383 29.347 2.36799 29.2841 2.46489 29.2499C2.55776 29.2237 2.65452 29.2141 2.75075 29.2214H3.03661L3.00517 29.2542V28.4324H3.03661L26.0171 28.4467H26.0343V29.2542L26.0171 29.2371H26.3573C26.4679 29.2272 26.5789 29.2522 26.6746 29.3085C26.7581 29.3597 26.8242 29.4349 26.8644 29.5242C26.9045 29.6135 26.9168 29.7129 26.8997 29.8093C26.8826 29.9057 26.8368 29.9947 26.7684 30.0647C26.6999 30.1348 26.612 30.1825 26.516 30.2019C26.4315 30.2118 26.3464 30.2146 26.2615 30.2104H26.01L26.0243 30.1976C26.0243 30.4363 26.0243 30.5906 26.0243 30.7421L26.0114 30.7293H26.3787C26.496 30.7227 26.6119 30.7576 26.706 30.8279C26.7837 30.8862 26.842 30.9666 26.8732 31.0587C26.9043 31.1507 26.9069 31.25 26.8807 31.3435C26.8544 31.437 26.8004 31.5204 26.7259 31.5827C26.6514 31.645 26.5598 31.6833 26.4631 31.6926C26.3001 31.6926 26.1515 31.6926 26.0114 31.6926L26.02 31.6841C26.02 32.7432 26.0114 33.2106 26.0114 33.2663C26.0114 33.2106 26.0114 32.7432 26.0028 31.6841V31.6769H26.01C26.1529 31.6769 26.2958 31.6769 26.4602 31.6769C26.5524 31.6673 26.6395 31.6301 26.7102 31.5703C26.781 31.5104 26.8321 31.4307 26.8569 31.3414C26.8817 31.2522 26.8791 31.1575 26.8494 31.0697C26.8197 30.982 26.7643 30.9052 26.6903 30.8493C26.6004 30.782 26.4894 30.749 26.3773 30.7564H25.9971V30.1847H26.2544C26.3374 30.1879 26.4206 30.1845 26.5031 30.1747C26.593 30.1562 26.6753 30.111 26.7391 30.045C26.803 29.979 26.8454 29.8953 26.8608 29.8048C26.8763 29.7143 26.864 29.6212 26.8257 29.5377C26.7874 29.4543 26.7248 29.3844 26.646 29.3371C26.5554 29.2841 26.4505 29.2607 26.3459 29.27H25.99V29.2542C25.99 29.0227 25.99 28.7854 25.99 28.4638L26.0071 28.481L3.02661 28.4967L3.05948 28.4638V29.2871H2.74646C2.65616 29.2796 2.56524 29.2878 2.47775 29.3114C2.39396 29.3414 2.32111 29.3958 2.26861 29.4677C2.21612 29.5396 2.1864 29.6255 2.18331 29.7145C2.18091 29.8043 2.20623 29.8927 2.25585 29.9676C2.30546 30.0426 2.37695 30.1004 2.4606 30.1333C2.54884 30.163 2.64236 30.1737 2.73503 30.1647H3.06091V30.7764H2.74503C2.65464 30.7687 2.56359 30.7774 2.47632 30.8022C2.39193 30.8317 2.31861 30.8864 2.26624 30.9588C2.21387 31.0313 2.18495 31.118 2.1834 31.2074C2.18184 31.2968 2.20771 31.3845 2.25753 31.4588C2.30735 31.533 2.37872 31.5902 2.46203 31.6226C2.54995 31.6515 2.64284 31.6622 2.73503 31.654H3.06091V31.6883C3.06091 32.1357 3.06091 32.586 3.06091 33.0491V33.0848H3.02518C2.35268 33.0855 1.70048 33.3153 1.17595 33.7361C0.651425 34.157 0.285843 34.7439 0.139393 35.4003C0.113666 35.5103 0.102231 35.6233 0.08365 35.7362C0.0650689 35.8491 0.0693568 35.962 0.0679275 36.0763V36.7696C0.0679275 38.622 0.0679275 40.5139 0.0679275 42.4454V55.9667C0.0422573 56.4836 0.0811485 57.0016 0.183702 57.5089C0.425206 58.5122 1.03812 59.3866 1.89888 59.9559C2.31998 60.2372 2.7911 60.4351 3.28674 60.539C3.77843 60.6491 4.28726 60.6291 4.78752 60.632H19.2007H24.5163C24.9415 60.648 25.367 60.614 25.7841 60.5305C26.1928 60.4398 26.5849 60.286 26.9462 60.0745C27.3031 59.8686 27.6254 59.6076 27.901 59.3013C28.0384 59.1514 28.1654 58.9924 28.2812 58.8253C28.3909 58.6562 28.4892 58.48 28.5756 58.2979C28.6221 58.2091 28.6618 58.1169 28.6942 58.022C28.7271 57.9277 28.7657 57.8362 28.7943 57.7362C28.8507 57.5461 28.8932 57.3521 28.9215 57.1559C28.9695 56.7667 28.9863 56.3743 28.9715 55.9824C28.9715 55.202 28.9715 54.4364 28.9715 53.6855C28.9715 52.1838 28.9715 50.744 28.9715 49.3661C28.9715 43.8647 28.9801 39.4124 28.9829 36.3336C28.9996 35.6483 28.7812 34.978 28.3641 34.4341C28.1992 34.217 28.0043 34.0245 27.7852 33.8623C27.6048 33.7265 27.4096 33.6114 27.2034 33.5193C26.9214 33.398 26.6235 33.3176 26.3187 33.2806L26.01 33.2706Z" fill="#263238"/>
<path d="M23.2427 50.0094C22.5311 50.2974 21.7501 50.3678 20.9985 50.2117C20.247 50.0556 19.5586 49.68 19.0206 49.1325C18.4825 48.585 18.119 47.8902 17.9761 47.136C17.8331 46.3818 17.9171 45.6022 18.2175 44.8958C18.5178 44.1894 19.021 43.5879 19.6633 43.1676C20.3056 42.7473 21.0582 42.527 21.8258 42.5346C22.5934 42.5422 23.3414 42.7774 23.9753 43.2103C24.6092 43.6433 25.1003 44.2546 25.3866 44.9668C25.7709 45.9198 25.761 46.9864 25.3589 47.9321C24.9568 48.8777 24.1956 49.625 23.2427 50.0094Z" fill="#FF8006"/>
<g opacity="0.3">
<path opacity="0.3" d="M20.2816 47.3808L19.8071 47.5795L19.6299 47.1507L20.0916 46.9563C19.9448 46.5748 19.9086 46.1597 19.9872 45.7586L20.6018 45.7743C20.5341 46.0891 20.5494 46.4162 20.6461 46.7233L21.3608 46.4261C21.2765 45.9072 21.2179 45.3169 21.8196 45.0625C22.2684 44.8738 22.7915 45.0382 23.1489 45.6757L23.6191 45.4784L23.7963 45.9072L23.3347 46.1016C23.4453 46.4119 23.4806 46.7441 23.4376 47.0707L22.8273 47.0778C22.8589 46.8296 22.8414 46.5775 22.7758 46.336L22.0611 46.639C22.1483 47.155 22.2041 47.7382 21.6109 47.9897C21.1578 48.1741 20.6418 48.0126 20.2816 47.3808ZM21.9768 46.1702L22.5786 45.9172C22.4356 45.7143 22.2741 45.6771 22.134 45.7357C21.994 45.7943 21.9582 45.9587 21.9768 46.1702ZM21.2622 47.3279C21.4051 47.2665 21.4394 47.1093 21.4265 46.8992L20.8419 47.145C20.9763 47.338 21.1264 47.3851 21.2622 47.3279Z" fill="black"/>
</g>
<g opacity="0.3">
<path opacity="0.3" d="M23.1948 49.0046C23.1877 48.9874 23.3035 48.9274 23.4964 48.7988C23.7676 48.6195 24.0087 48.3985 24.2111 48.1442C24.3492 47.97 24.4676 47.7812 24.5641 47.581C24.6728 47.3514 24.7516 47.1088 24.7985 46.8592C24.8504 46.5836 24.862 46.302 24.8328 46.023C24.8175 45.8783 24.7912 45.735 24.7542 45.5943C24.715 45.4478 24.6648 45.3044 24.6042 45.1655C24.5416 45.0267 24.4695 44.8925 24.3883 44.7638C24.3085 44.6394 24.2191 44.5214 24.121 44.4108C23.9352 44.2013 23.72 44.0198 23.4821 43.8719C23.266 43.7379 23.0335 43.6322 22.7904 43.5575C22.2644 43.3986 21.7053 43.3853 21.1724 43.5189C21.058 43.5589 20.9396 43.5867 20.8193 43.6018C20.9157 43.5231 21.0278 43.4661 21.1481 43.4346C21.4687 43.3194 21.8081 43.2656 22.1486 43.2759C22.6529 43.2886 23.1457 43.4293 23.5808 43.6847C23.708 43.7591 23.8289 43.8437 23.9424 43.9377C24.0624 44.0335 24.1743 44.1392 24.2768 44.2536C24.3821 44.3724 24.4777 44.4996 24.5627 44.6338C24.6513 44.7707 24.7297 44.914 24.7971 45.0626C24.8621 45.2131 24.9156 45.3684 24.9572 45.5271C24.9971 45.6814 25.0249 45.8386 25.0401 45.9973C25.0522 46.151 25.0522 46.3053 25.0401 46.459C25.0324 46.6061 25.0128 46.7524 24.9815 46.8964C24.8787 47.3955 24.6482 47.8594 24.3126 48.2428C24.0908 48.4996 23.8226 48.7125 23.5222 48.8702C23.4231 48.9364 23.3118 48.9821 23.1948 49.0046Z" fill="black"/>
</g>
<path d="M22.9489 49.1362L22.9918 49.1134L23.119 49.0505C23.189 49.0194 23.2564 48.9826 23.3205 48.9404C23.4117 48.8896 23.4991 48.8323 23.5821 48.7689C23.8144 48.6011 24.0206 48.3998 24.1938 48.1715C24.4248 47.8733 24.5966 47.5337 24.6998 47.1709C24.8384 46.6956 24.8519 46.1926 24.739 45.7105C24.626 45.2285 24.3905 44.7838 24.0552 44.4195C23.9612 44.3175 23.8605 44.222 23.7536 44.1336C23.6414 44.0449 23.5235 43.9637 23.4005 43.8907C23.1474 43.7367 22.8714 43.6238 22.583 43.5562C22.2854 43.483 21.9782 43.457 21.6725 43.479C21.3581 43.5036 21.049 43.5739 20.7549 43.6877C20.4638 43.8092 20.1921 43.973 19.9487 44.1737C19.7129 44.3698 19.5094 44.6018 19.3456 44.8612C19.1846 45.1093 19.0639 45.3814 18.9882 45.6673C18.9501 45.8052 18.9214 45.9456 18.9025 46.0875C18.8883 46.2271 18.8825 46.3674 18.8853 46.5077C18.8965 46.9999 19.0338 47.4809 19.2841 47.9048C19.5343 48.3288 19.8892 48.6814 20.3146 48.929C20.8933 49.2658 21.5678 49.4001 22.2314 49.3106C22.3348 49.2976 22.4374 49.2785 22.5387 49.2534C22.6139 49.2384 22.688 49.2179 22.7602 49.192L22.896 49.1491L22.9417 49.1362C22.9281 49.1452 22.9132 49.152 22.8974 49.1563L22.7645 49.2063C22.6931 49.2351 22.6195 49.2581 22.5444 49.2749C22.4431 49.3034 22.3399 49.3249 22.2356 49.3392C21.949 49.3827 21.6575 49.3827 21.3709 49.3392C20.9896 49.2872 20.6221 49.1615 20.2889 48.969C19.8843 48.7366 19.5413 48.4107 19.2884 48.0185C18.996 47.5659 18.8329 47.042 18.8167 46.5034C18.8126 46.3603 18.8183 46.217 18.8339 46.0746C18.8529 45.93 18.8815 45.7867 18.9196 45.6459C18.9965 45.3524 19.1195 45.0731 19.2841 44.8183C19.4517 44.5529 19.6595 44.3152 19.9001 44.1136C20.3982 43.693 21.0177 43.4426 21.6682 43.399C21.9812 43.3769 22.2957 43.4044 22.6001 43.4804C22.8952 43.55 23.1774 43.6658 23.4363 43.8235C23.5621 43.8994 23.6829 43.9834 23.7979 44.075C23.9073 44.1671 24.0105 44.2665 24.1066 44.3723C24.5751 44.8919 24.8443 45.5607 24.8663 46.2599C24.8883 46.9591 24.6616 47.6435 24.2267 48.1915C24.0487 48.4202 23.8372 48.6207 23.5992 48.7861C23.5141 48.8484 23.4248 48.9048 23.3319 48.9547C23.2659 48.9948 23.1965 49.0292 23.1247 49.0576L22.9946 49.1148C22.9804 49.124 22.965 49.1312 22.9489 49.1362Z" fill="#263238"/>
<path d="M18.1242 46.8093C18.1242 46.8093 18.1099 46.7693 18.0971 46.6936C18.0811 46.5861 18.072 46.4777 18.0699 46.3691C18.0565 45.6451 18.2754 44.9358 18.6945 44.3452C18.7571 44.2565 18.8253 44.172 18.8989 44.0922C18.924 44.0611 18.9534 44.0337 18.9861 44.0107C18.9961 44.0193 18.886 44.1537 18.7374 44.3738C18.3506 44.9707 18.1378 45.6637 18.1228 46.3748C18.1171 46.6392 18.1371 46.8079 18.1242 46.8093Z" fill="white"/>
<path d="M18.2148 47.4593C18.1933 47.4593 18.1633 47.3922 18.1447 47.2993C18.1261 47.2063 18.129 47.1292 18.1447 47.1263C18.1604 47.1234 18.1962 47.1935 18.2133 47.285C18.2305 47.3764 18.2348 47.4551 18.2148 47.4593Z" fill="white"/>
<path d="M20.7632 47.3566C19.0252 48.147 17.3543 49.199 15.4619 49.4663C12.8348 49.8379 10.2578 48.7516 7.85508 47.541C4.30466 45.7629 1.01581 45.5757 0.0410159 46.2775V56.5314C0.040636 57.6197 0.472323 58.6637 1.24123 59.434C2.01014 60.2042 3.05337 60.6377 4.14172 60.6392H24.8954C25.4348 60.6392 25.969 60.533 26.4674 60.3265C26.9658 60.1201 27.4186 59.8175 27.8 59.4361C28.1815 59.0546 28.4841 58.6018 28.6905 58.1034C28.897 57.605 29.0032 57.0708 29.0032 56.5314V45.5757C26.3504 45.7143 23.0401 46.3204 20.7632 47.3566Z" fill="#929292"/>
<path d="M25.9474 33.0377C25.9474 33.0577 20.7104 33.0748 14.2527 33.0748C7.79507 33.0748 2.55664 33.0577 2.55664 33.0377C2.55664 33.0176 7.79222 33.0005 14.2527 33.0005C20.7132 33.0005 25.9474 33.0162 25.9474 33.0377Z" fill="#263238"/>
<path d="M28.7754 45.5756H28.6982L28.4709 45.5856C28.2722 45.5927 27.9792 45.6099 27.6019 45.6399C24.9521 45.8566 22.3694 46.5847 19.9965 47.7839C19.1932 48.1769 18.3599 48.6171 17.4523 48.9773C16.991 49.1625 16.516 49.3116 16.0316 49.4233C15.9072 49.4504 15.7843 49.4776 15.6571 49.4962L15.4699 49.5276L15.2783 49.5491C15.1511 49.5591 15.0239 49.5805 14.8939 49.5834L14.5065 49.5977C13.9943 49.5945 13.4833 49.5491 12.9786 49.4619C12.49 49.3706 12.007 49.2513 11.5321 49.1045C10.6401 48.8157 9.76581 48.4749 8.91361 48.084C8.09461 47.7195 7.32707 47.3551 6.5924 47.0506C5.9143 46.7616 5.2199 46.5125 4.51275 46.3045C3.49088 45.9899 2.42177 45.8569 1.35396 45.9115C1.18691 45.9199 1.0204 45.9371 0.855133 45.9629C0.783667 45.9729 0.712201 45.9786 0.656458 45.9901L0.492087 46.0244L0.270542 46.0687C0.220516 46.0787 0.193359 46.0815 0.193359 46.0815C0.193359 46.0815 0.219088 46.073 0.269114 46.0615L0.489227 46.0101L0.652169 45.9715C0.7122 45.9601 0.779378 45.9529 0.852273 45.9415C1.01774 45.9122 1.18478 45.8927 1.35253 45.8829C2.42441 45.8161 3.49957 45.942 4.52704 46.2545C5.23748 46.4576 5.93485 46.7039 6.61527 46.992C7.35279 47.2936 8.1232 47.6581 8.94076 48.0197C9.79147 48.4075 10.6638 48.7458 11.5535 49.0331C12.0256 49.1789 12.5057 49.2972 12.9914 49.3875C13.4919 49.4736 13.9987 49.5186 14.5065 49.5219L14.8896 49.5076C15.0182 49.5076 15.144 49.4847 15.2698 49.4733L15.4584 49.4533L15.6457 49.4218C15.77 49.4033 15.8929 49.3775 16.0144 49.349C16.4956 49.2392 16.9673 49.0915 17.4252 48.9073C18.3285 48.5514 19.1604 48.1126 19.9651 47.721C21.3879 47.0093 22.8888 46.4658 24.4374 46.1016C25.4788 45.8545 26.5385 45.6925 27.6062 45.617C27.9849 45.5913 28.278 45.5784 28.4781 45.577H28.7053C28.7286 45.5753 28.752 45.5748 28.7754 45.5756Z" fill="#263238"/>
<path d="M6.67432 51.0841C7.18173 51.2013 7.66198 51.4129 8.16081 51.5587C8.23841 51.4422 8.30675 51.3199 8.3652 51.1928C8.54585 50.7903 8.6197 50.3481 8.57961 49.9089C8.53951 49.4696 8.38684 49.048 8.13633 48.685C7.88581 48.3219 7.54592 48.0296 7.14946 47.8362C6.75301 47.6428 6.31339 47.5548 5.87305 47.5809C5.43271 47.607 5.00652 47.7461 4.63565 47.9849C4.26477 48.2237 3.96173 48.5541 3.75578 48.9442C3.54983 49.3343 3.44794 49.7709 3.45993 50.2118C3.47193 50.6528 3.59741 51.0832 3.82427 51.4615C4.70111 51.0069 5.70938 50.8734 6.67432 51.0841Z" fill="#FF8006"/>
<path d="M3.59429 50.404C3.56206 50.3122 3.54704 50.2153 3.54998 50.1181C3.54213 49.8786 3.5745 49.6394 3.64574 49.4106C3.71603 49.1815 3.82372 48.9656 3.96448 48.7717C4.01831 48.688 4.08654 48.6144 4.16601 48.5544C3.76345 49.0876 3.56108 49.7453 3.59429 50.4126V50.404Z" fill="white"/>
<path d="M3.65266 50.8356C3.63265 50.8356 3.60692 50.7927 3.59549 50.7312C3.58405 50.6698 3.59549 50.6183 3.60978 50.614C3.62407 50.6098 3.65552 50.6569 3.66838 50.7169C3.68125 50.777 3.6741 50.8313 3.65266 50.8356Z" fill="white"/>
<path d="M4.38432 51.2229L4.42577 51.2101C4.30097 51.0199 4.21006 50.8095 4.15706 50.5883C4.0869 50.2942 4.0869 49.9877 4.15706 49.6936C4.23905 49.3557 4.41207 49.0467 4.65732 48.8003C4.78737 48.6659 4.93788 48.553 5.10327 48.4658C5.27364 48.3715 5.45795 48.3049 5.64927 48.2685C6.05353 48.1866 6.47331 48.2336 6.84947 48.4028C7.22563 48.572 7.53923 48.855 7.74607 49.2119C7.93768 49.544 8.02624 49.9256 8.00049 50.3082C7.97794 50.6545 7.86131 50.9881 7.66317 51.273C7.6403 51.3087 7.61172 51.3387 7.58599 51.3716L7.64745 51.3916C7.66889 51.3644 7.69319 51.3387 7.71463 51.3087C7.92212 51.0139 8.04472 50.6678 8.06909 50.3082C8.0837 50.1165 8.06876 49.9236 8.02479 49.7365C7.98131 49.5386 7.90652 49.349 7.80324 49.1747C7.589 48.8045 7.26388 48.511 6.8738 48.3356C6.48371 48.1602 6.04837 48.1117 5.62926 48.1971C5.42869 48.2347 5.23559 48.3047 5.05753 48.4043C4.88674 48.4951 4.7314 48.6123 4.59729 48.7517C4.36196 48.991 4.19219 49.2868 4.10433 49.6107C4.01646 49.9347 4.01345 50.2758 4.0956 50.6012C4.1549 50.8237 4.25261 51.0341 4.38432 51.2229Z" fill="#FF8006"/>
<g opacity="0.3">
<path opacity="0.3" d="M7.12793 48.5102C7.30959 48.6275 7.47205 48.7721 7.60961 48.939C7.70346 49.0526 7.78447 49.1763 7.85116 49.3078C7.92772 49.4578 7.98395 49.6174 8.01839 49.7823C8.03816 49.8712 8.05059 49.9615 8.05556 50.0524C8.06356 50.1475 8.06356 50.2432 8.05556 50.3383C8.04768 50.4346 8.03238 50.5302 8.00982 50.6242C7.96287 50.8209 7.88521 51.009 7.7797 51.1816C7.73691 51.2539 7.68915 51.3231 7.63677 51.3888L7.7797 51.4403C7.82626 51.3825 7.86922 51.3219 7.90834 51.2588C7.9628 51.167 8.01057 51.0715 8.05127 50.9729C8.09229 50.8723 8.12527 50.7686 8.14989 50.6627C8.17433 50.5599 8.19059 50.4552 8.19849 50.3497C8.20638 50.2479 8.20638 50.1457 8.19849 50.0439C8.19132 49.9474 8.17602 49.8518 8.15275 49.758C8.11225 49.5823 8.04781 49.413 7.96122 49.2549C7.88556 49.1182 7.79444 48.9906 7.68965 48.8747C7.5384 48.7085 7.35763 48.5718 7.15652 48.4716C7.08556 48.4292 7.00683 48.4015 6.92497 48.3901C6.92068 48.3901 7.00072 48.4287 7.12793 48.5102Z" fill="black"/>
</g>
<g opacity="0.3">
<path opacity="0.3" d="M5.18327 50.7726C5.57633 50.9427 5.82789 50.6468 6.04086 50.3681L6.51682 50.5739C6.43143 50.7161 6.31873 50.84 6.18522 50.9384L6.25955 51.0141C6.38735 51.028 6.51428 51.049 6.63974 51.077C6.73614 50.9738 6.81877 50.8585 6.88559 50.734L7.19003 50.8655L7.31152 50.5796L6.99993 50.451C7.14286 49.9879 6.97849 49.662 6.68262 49.5334C6.28242 49.3604 6.02943 49.6634 5.82504 49.9407L5.35765 49.7392C5.45943 49.5528 5.607 49.3954 5.78644 49.2818L5.51202 48.9802C5.28459 49.1275 5.10289 49.3354 4.98746 49.5805L4.68301 49.4476L4.56152 49.7335L4.87454 49.8693C4.73161 50.3252 4.89169 50.6468 5.18327 50.7726ZM6.50539 49.9936C6.59829 50.0336 6.64832 50.128 6.62259 50.2909L6.22667 50.118C6.31815 50.0122 6.40819 49.9522 6.50539 49.9936ZM5.23759 50.0236L5.6235 50.1894C5.5306 50.2923 5.44198 50.3495 5.33764 50.3081C5.2333 50.2666 5.209 50.1766 5.23759 50.0236Z" fill="#FF8006"/>
</g>
<path d="M9.73631 51.893C9.71349 51.8951 9.69052 51.8951 9.6677 51.893C9.62197 51.893 9.55479 51.893 9.46903 51.893C9.22491 51.8868 8.98166 51.8615 8.74151 51.8172C8.38619 51.7475 8.03576 51.6548 7.69239 51.5399C7.30362 51.417 6.8834 51.254 6.4303 51.1483C6.00305 51.0523 5.55942 51.0563 5.13392 51.1597C4.78317 51.237 4.4398 51.3446 4.10767 51.4813C3.82181 51.5942 3.59597 51.6986 3.44018 51.7672C3.36061 51.8086 3.2785 51.8448 3.19434 51.8758C3.21221 51.8606 3.23189 51.8476 3.25294 51.8372C3.29296 51.8143 3.35013 51.7815 3.42731 51.7414C3.58025 51.6614 3.80322 51.5499 4.08766 51.4284C4.42075 51.2847 4.76614 51.1713 5.11962 51.0897C5.55475 50.9798 6.00964 50.9739 6.44746 51.0725C6.9077 51.1854 7.32649 51.347 7.71383 51.4727C8.05376 51.5885 8.40026 51.6839 8.75151 51.7586C8.98724 51.8078 9.22599 51.8412 9.46617 51.8587C9.55692 51.8637 9.64719 51.8751 9.73631 51.893Z" fill="#263238"/>
<path d="M13.1453 5.69922L13.0438 5.76068C12.978 5.8007 12.8794 5.86073 12.7579 5.94649C12.5063 6.11515 12.1462 6.37528 11.7002 6.74405C11.4787 6.927 11.2271 7.12996 10.9713 7.36437C10.7284 7.65499 10.568 8.00545 10.5067 8.37918C10.3452 9.18103 10.5067 10.1272 10.8341 11.0949C11.0051 11.6043 11.2041 12.1039 11.4301 12.5914C11.6659 13.1002 11.9446 13.6162 12.1905 14.1708C12.3191 14.4452 12.4335 14.7325 12.5564 15.0198C12.6793 15.3071 12.7894 15.6072 12.8951 15.9131C13.1138 16.522 13.3111 17.158 13.4797 17.8184C13.8398 19.2007 14.0601 20.6156 14.1372 22.042C14.1801 22.7838 14.1715 23.5399 14.1558 24.3046C14.1401 25.0693 14.11 25.8468 14.0714 26.6329C13.9957 28.2052 13.8956 29.736 13.8385 31.2168C13.7813 32.6975 13.7527 34.1283 13.7513 35.4904C13.7513 38.2147 13.8599 40.6659 14.0028 42.7213C14.1458 44.7766 14.3173 46.4375 14.4474 47.581C14.5117 48.1527 14.5674 48.5986 14.6046 48.8988C14.6217 49.0489 14.636 49.1618 14.6446 49.2418C14.6532 49.3219 14.656 49.359 14.656 49.359C14.656 49.359 14.656 49.3204 14.6375 49.2433C14.6189 49.1661 14.6103 49.0503 14.5903 48.9016C14.5488 48.6001 14.4874 48.157 14.4188 47.5852C14.2758 46.4418 14.1 44.7824 13.95 42.7256C13.7999 40.6688 13.6898 38.2161 13.6827 35.4904C13.6827 34.1268 13.707 32.6961 13.7656 31.2139C13.8242 29.7317 13.9214 28.1995 13.9971 26.6287C14.0357 25.844 14.0657 25.0678 14.0829 24.3032C14.1 23.5385 14.1072 22.7852 14.0643 22.0463C13.9902 20.6242 13.7738 19.213 13.4183 17.8341C13.251 17.1752 13.0538 16.5477 12.838 15.9345C12.7336 15.6287 12.6135 15.3342 12.5021 15.0426C12.3906 14.7511 12.2662 14.4709 12.1376 14.1951C11.8946 13.6419 11.6187 13.1259 11.3829 12.6142C11.1525 12.1267 10.9497 11.6266 10.7755 11.1163C10.4496 10.1415 10.2895 9.18674 10.4567 8.37346C10.5218 7.9932 10.6877 7.63734 10.937 7.34293C11.1985 7.10566 11.4487 6.91413 11.6731 6.72404C12.1233 6.36385 12.4863 6.10229 12.7408 5.93649C12.8705 5.84907 13.0056 5.76983 13.1453 5.69922Z" fill="#263238"/>
<path d="M1.12505 39.8357C1.14506 39.8357 1.16221 43.156 1.16221 47.2495C1.16221 51.3431 1.14506 54.6634 1.12505 54.6634C1.10504 54.6634 1.08789 51.3445 1.08789 47.2495C1.08789 43.1546 1.10361 39.8357 1.12505 39.8357Z" fill="#263238"/>
<path d="M27.669 55.4451C27.6476 55.4451 27.6318 53.9915 27.6318 52.1991C27.6318 50.4067 27.6476 48.9531 27.669 48.9531C27.6904 48.9531 27.7062 50.4067 27.7062 52.1991C27.7062 53.9915 27.689 55.4451 27.669 55.4451Z" fill="white"/>
<path d="M27.669 46.5374C27.7185 46.7561 27.7185 46.9832 27.669 47.202C27.6195 46.9832 27.6195 46.7561 27.669 46.5374Z" fill="white"/>
<path d="M18.0352 36.1422C19.6532 35.3603 21.4655 35.1031 23.2493 34.8687C23.121 35.8413 22.777 36.773 22.2425 37.5957C21.7081 38.4184 20.9966 39.1113 20.1601 39.6239C19.3235 40.1365 18.3831 40.4558 17.4074 40.5584C16.4317 40.661 15.4454 40.5444 14.5205 40.2171C14.8721 38.4534 16.4158 36.9226 18.0352 36.1422Z" fill="#929292"/>
<path d="M13.7803 40.7031C13.7803 40.7031 13.7989 40.6831 13.8389 40.6502C13.896 40.6021 13.9562 40.5577 14.019 40.5173C14.1776 40.4044 14.4177 40.2586 14.7165 40.0799C15.3139 39.7255 16.1458 39.2595 17.0791 38.7493L19.4532 37.4371L20.1679 37.0341L20.3637 36.9255C20.3855 36.9115 20.4091 36.9005 20.4337 36.8926C20.4149 36.9106 20.3938 36.926 20.3708 36.9383L20.1822 37.0584C20.0178 37.1627 19.7762 37.3071 19.4775 37.4872C18.8786 37.8388 18.0411 38.3076 17.1134 38.8179C16.1858 39.3281 15.3439 39.7869 14.7408 40.13C14.4392 40.3015 14.1962 40.4416 14.0333 40.5459C13.8703 40.6502 13.7846 40.7031 13.7803 40.7031Z" fill="#263238"/>
<path d="M17.9869 17.7812C19.4877 17.058 21.1685 16.8193 22.8208 16.6021C22.7016 17.5035 22.3825 18.3669 21.887 19.1294C21.3915 19.8918 20.7319 20.5339 19.9566 21.0089C19.1812 21.4839 18.3095 21.7798 17.4052 21.875C16.5009 21.9701 15.5867 21.8621 14.7295 21.5589C15.0554 19.9252 16.4861 18.5059 17.9869 17.7812Z" fill="#929292"/>
<path d="M14.1348 21.9578C14.15 21.9392 14.1678 21.9228 14.1876 21.9092C14.2397 21.8657 14.2941 21.8251 14.3506 21.7877C14.4935 21.6848 14.7151 21.5504 14.9881 21.386C15.5326 21.063 16.2987 20.6371 17.1463 20.1697L19.3146 18.9777L19.9692 18.6103L20.1479 18.5117C20.1686 18.4993 20.1907 18.4892 20.2136 18.4817C20.1962 18.4986 20.1765 18.513 20.155 18.5246L19.9835 18.6361C19.8406 18.7304 19.6133 18.8619 19.3403 19.0234C18.7943 19.345 18.0296 19.7738 17.1821 20.2397C16.3345 20.7057 15.5655 21.1245 15.0138 21.4361C14.7394 21.5933 14.5164 21.7219 14.3677 21.8163C14.2191 21.9106 14.1462 21.9635 14.1348 21.9578Z" fill="#263238"/>
<path d="M10.8705 25.3178C9.66842 24.7018 8.31057 24.4745 6.97559 24.2659C7.05443 24.9985 7.2958 25.7042 7.68208 26.3317C8.06836 26.9592 8.58983 27.4925 9.20844 27.8928C9.82705 28.2931 10.5272 28.5503 11.2579 28.6456C11.9885 28.7409 12.7312 28.672 13.4318 28.4437C13.2045 27.1131 12.0725 25.9339 10.8705 25.3178Z" fill="#929292"/>
<path d="M13.911 28.7782C13.8466 28.7409 13.7841 28.7004 13.7237 28.6567C13.6051 28.5781 13.4264 28.4709 13.2063 28.3394L11.4711 27.3289C10.7936 26.933 10.1848 26.5699 9.74595 26.2984C9.5287 26.1554 9.35289 26.0497 9.23426 25.9696C9.16977 25.9316 9.109 25.8875 9.05273 25.8381C9.12084 25.8679 9.18634 25.9032 9.24855 25.9439L9.77311 26.2526L11.5097 27.2674C12.1872 27.6619 12.7961 28.0221 13.2335 28.2966C13.4507 28.4395 13.6251 28.5481 13.7409 28.6353C13.7863 28.6674 13.8297 28.7023 13.8709 28.7396C13.8995 28.7625 13.9138 28.7768 13.911 28.7782Z" fill="#263238"/>
<path d="M9.41564 13.0888C7.81624 12.2698 6.00958 11.9668 4.23438 11.6909C4.33906 12.6663 4.66031 13.606 5.17465 14.4413C5.68899 15.2767 6.38343 15.9865 7.20725 16.5191C8.03107 17.0517 8.96346 17.3936 9.93631 17.5197C10.9092 17.6458 11.8979 17.553 12.8303 17.2481C12.5215 15.4772 11.015 13.9092 9.41564 13.0888Z" fill="#929292"/>
<path d="M13.4619 17.6912C13.4619 17.6912 13.3761 17.6283 13.2146 17.5254C13.0531 17.4225 12.8201 17.2753 12.5285 17.0966C11.9411 16.745 11.1235 16.2733 10.2216 15.7488C9.3197 15.2242 8.50643 14.7483 7.9247 14.3809C7.63883 14.2008 7.40014 14.0522 7.24005 13.9521L7.0571 13.8321C7.03507 13.8191 7.01488 13.8032 6.99707 13.7849C7.02138 13.7932 7.04445 13.8048 7.06568 13.8192L7.25578 13.9307L7.95185 14.3438L10.2588 15.6902C11.1607 16.2147 11.9739 16.6907 12.5557 17.0566C12.8415 17.2396 13.0774 17.3896 13.2317 17.504C13.2925 17.5484 13.3507 17.5961 13.4061 17.6469C13.4447 17.6741 13.4633 17.6912 13.4619 17.6912Z" fill="#263238"/>
<path d="M9.84109 39.9513C8.22311 39.1708 6.41074 38.9121 4.62695 38.6777C4.7553 39.6504 5.09927 40.5821 5.63374 41.4048C6.16822 42.2275 6.8797 42.9205 7.71623 43.433C8.55276 43.9456 9.49321 44.2649 10.4689 44.3675C11.4446 44.4701 12.4309 44.3535 13.3558 44.0262C13.0027 42.2639 11.4605 40.7317 9.84109 39.9513Z" fill="#929292"/>
<path d="M14.1247 44.5279C14.1247 44.535 14.036 44.4678 13.8688 44.3663C13.7016 44.2649 13.46 44.1219 13.1542 43.949C12.5481 43.6045 11.702 43.1443 10.7715 42.6312C9.84101 42.118 8.99914 41.6478 8.3974 41.2948C8.09724 41.1175 7.85426 40.9732 7.68274 40.866L7.49264 40.7459C7.44977 40.7173 7.42833 40.7016 7.42975 40.6987C7.45465 40.7078 7.47859 40.7193 7.50122 40.733L7.71562 40.8459L8.43027 41.2504L10.8115 42.5611C11.742 43.0742 12.5839 43.5416 13.1842 43.8975C13.4843 44.0762 13.7245 44.2234 13.8845 44.3363C13.9473 44.378 14.0079 44.4229 14.0661 44.4707C14.0875 44.4877 14.1071 44.5069 14.1247 44.5279Z" fill="#263238"/>
<path d="M26.2155 29.2569C26.2155 29.2769 20.9799 29.2941 14.5223 29.2941C8.06461 29.2941 2.82617 29.2769 2.82617 29.2569C2.82617 29.2369 8.06175 29.2197 14.5223 29.2197C20.9827 29.2197 26.2155 29.2354 26.2155 29.2569Z" fill="#263238"/>
<path d="M26.1666 30.2149C26.1666 30.2349 20.9311 30.252 14.472 30.252C8.01292 30.252 2.77734 30.2349 2.77734 30.2149C2.77734 30.1948 8.01292 30.1763 14.472 30.1763C20.9311 30.1763 26.1666 30.1934 26.1666 30.2149Z" fill="#263238"/>
<path d="M26.1666 30.7293C26.1666 30.7507 20.9311 30.7665 14.472 30.7665C8.01292 30.7665 2.77734 30.7507 2.77734 30.7293C2.77734 30.7079 8.01292 30.6921 14.472 30.6921C20.9311 30.6921 26.1666 30.7093 26.1666 30.7293Z" fill="#263238"/>
<path d="M26.1432 31.6871C26.1432 31.7071 20.9062 31.7242 14.4486 31.7242C7.99092 31.7242 2.75391 31.7071 2.75391 31.6871C2.75391 31.6671 7.98949 31.6499 14.4486 31.6499C20.9076 31.6499 26.1432 31.6671 26.1432 31.6871Z" fill="#263238"/>
<path d="M13.3345 34.8429C13.3073 34.7354 13.2526 34.6369 13.1758 34.557C12.7436 34.1239 12.2212 33.7915 11.6458 33.5835C11.0704 33.3754 10.4562 33.2969 9.84694 33.3535C9.82055 33.3524 9.79421 33.3567 9.7696 33.3663C9.74499 33.3759 9.72265 33.3906 9.704 33.4093C9.65398 33.4764 9.704 33.5708 9.76689 33.6337C10.2116 34.1194 10.7717 34.4849 11.3954 34.6963C12.0191 34.9077 12.6861 34.9581 13.3345 34.8429Z" fill="#929292"/>
<path d="M13.7167 35.1059C13.7167 35.1145 13.5738 35.0173 13.3337 34.8743C13.0279 34.6895 12.7076 34.5299 12.376 34.3969C12.0432 34.2666 11.7012 34.1615 11.3526 34.0825C11.2078 34.0574 11.0646 34.0235 10.9238 33.981C10.9636 33.9744 11.0041 33.9744 11.0439 33.981C11.1211 33.981 11.2326 34.0025 11.3683 34.0268C11.724 34.0918 12.0725 34.1913 12.4089 34.324C12.7452 34.4573 13.0667 34.6254 13.368 34.8257C13.4837 34.9029 13.5738 34.9687 13.6338 35.0187C13.6938 35.0687 13.7253 35.1016 13.7167 35.1059Z" fill="#263238"/>
<path d="M13.3506 15.833C13.3564 15.7224 13.3903 15.6151 13.4492 15.5214C13.7855 15.0103 14.2304 14.5796 14.7522 14.2602C15.274 13.9407 15.8598 13.7403 16.4679 13.6733C16.4924 13.6681 16.5176 13.6678 16.5421 13.6725C16.5666 13.6772 16.59 13.6867 16.6109 13.7004C16.6737 13.7562 16.638 13.8591 16.5951 13.932C16.2575 14.4959 15.7833 14.9656 15.2163 15.2979C14.6492 15.6301 14.0075 15.8141 13.3506 15.833Z" fill="#929292"/>
<path d="M12.9619 16.2432C12.9818 16.2068 13.0063 16.1732 13.0348 16.1431C13.0848 16.0802 13.1634 16.0002 13.2635 15.893C13.5253 15.6273 13.8125 15.3879 14.1211 15.1783C14.4302 14.9705 14.7591 14.7938 15.103 14.6509C15.2345 14.5966 15.3431 14.5566 15.4189 14.5337C15.4576 14.5176 15.4986 14.5079 15.5404 14.5051C15.5404 14.5166 15.3803 14.5795 15.1245 14.6995C14.7904 14.8546 14.4688 15.0352 14.1625 15.2398C13.8598 15.4465 13.5731 15.6759 13.3049 15.9259C13.1965 16.0379 13.082 16.1438 12.9619 16.2432Z" fill="#263238"/>
<path d="M19.4943 49.3845L16.417 50.2164L16.4227 50.2364L18.0393 58.1191L24.6112 56.3439L23.3306 51.6L19.4943 49.3845Z" fill="#FF8006"/>
<path d="M16.4179 50.2168L14.1182 53.9259L15.4403 58.8213L21.5949 57.159L20.3014 52.3679L16.4179 50.2168Z" fill="#FF8006"/>
<path d="M17.4848 58.2695C17.4588 58.2119 17.4383 58.1521 17.4233 58.0908C17.3861 57.9622 17.3375 57.7949 17.2804 57.5906C17.1589 57.1503 16.9945 56.5529 16.803 55.8754L16.793 55.8396L16.8273 55.8311L17.5891 55.6238L18.3523 55.4194L18.3881 55.4094L18.3967 55.4437L18.8497 57.1718C18.9012 57.379 18.9441 57.5491 18.9755 57.6777C18.9913 57.7358 19.0018 57.7951 19.007 57.855C18.981 57.7974 18.9605 57.7376 18.9455 57.6763C18.9083 57.5477 18.8598 57.3804 18.8026 57.1761C18.6797 56.7358 18.5167 56.1384 18.3238 55.4609L18.3681 55.4852L17.6062 55.6924L16.8444 55.8982L16.863 55.8539L17.3161 57.5805C17.3676 57.7878 17.4104 57.9579 17.4419 58.0865C17.4618 58.1461 17.4761 58.2073 17.4848 58.2695Z" fill="#263238"/>
<g opacity="0.3">
<path opacity="0.3" d="M19.6325 53.3552L18.3154 53.7083L18.6685 55.0253L19.9856 54.6723L19.6325 53.3552Z" fill="white"/>
</g>
<g opacity="0.3">
<path opacity="0.3" d="M16.305 53.9173L14.9941 54.2712L15.3481 55.5821L16.659 55.2282L16.305 53.9173Z" fill="white"/>
</g>
<path d="M14.8664 51.1997L14.2109 51.3767L14.7363 53.3224L15.3917 53.1454L14.8664 51.1997Z" fill="#FF8006"/>
<path d="M16.4179 50.2165C16.4352 50.2082 16.4535 50.2019 16.4722 50.1979L16.6309 50.1507L17.2426 49.9778L19.4881 49.3589H19.4995H19.5095L23.3544 51.5657L23.4316 51.6101L23.3444 51.6329L21.2533 52.1689L20.31 52.409H20.2957L20.2828 52.4019L16.4036 50.2451L16.4451 50.2336C15.7476 51.3471 15.1701 52.2718 14.7628 52.9207L14.2911 53.6668L14.1639 53.8627C14.1511 53.8857 14.1357 53.9073 14.1182 53.927C14.1293 53.9027 14.1422 53.8793 14.1568 53.8569L14.2754 53.6583C14.3826 53.4796 14.537 53.2295 14.7328 52.9022L16.3922 50.2008L16.4079 50.1765L16.4337 50.1907L20.3185 52.3347H20.2914L21.2347 52.0946L23.3272 51.56L23.3187 51.6258L19.4824 49.4118H19.5024L17.2498 50.0064L16.6352 50.165L16.4737 50.205L16.4179 50.2165Z" fill="#FF8006"/>
<g opacity="0.3">
<path opacity="0.3" d="M19.0094 57.8576L18.3591 55.4478L16.834 55.8594L17.4843 58.2692" fill="black"/>
</g>
<path d="M26.3591 57.2558C25.7671 56.677 25.0259 56.2741 24.2183 56.0921C23.4106 55.9102 22.5683 55.9562 21.7853 56.2252C20.6976 56.6169 19.7013 57.4502 18.5493 57.353C17.9161 57.2986 17.3458 56.9642 16.7398 56.7812C16.0751 56.5842 15.3708 56.5617 14.6949 56.7159C14.019 56.8701 13.3941 57.1959 12.8806 57.6617L12.3418 59.394C12.3418 59.394 27.0409 59.9443 27.0409 59.394C27.0409 58.8437 26.3591 57.2558 26.3591 57.2558Z" fill="#929292"/>
<path d="M25.6965 56.6484C25.6581 56.6324 25.6208 56.6138 25.585 56.5926C25.5136 56.5541 25.4078 56.4969 25.2677 56.434C24.8721 56.2529 24.4538 56.1259 24.0242 56.0567C23.3876 55.9491 22.7347 55.9916 22.1175 56.181C21.4186 56.384 20.7053 56.7613 19.9335 57.1029C19.5505 57.2744 19.1531 57.4345 18.7429 57.4402C18.3327 57.4459 17.9639 57.2759 17.6337 57.1301C17.0507 56.8561 16.4192 56.7002 15.7756 56.6713C15.3414 56.6521 14.9065 56.6901 14.4821 56.7842C14.3392 56.8199 14.2163 56.8499 14.1376 56.8742C14.0988 56.8884 14.0585 56.8984 14.0176 56.9042C14.0553 56.8873 14.094 56.8725 14.1334 56.8599C14.2105 56.8313 14.3249 56.7956 14.475 56.757C14.9007 56.649 15.3394 56.6009 15.7785 56.6141C16.4311 56.6358 17.0727 56.7884 17.6652 57.0629C17.9982 57.2058 18.3541 57.3716 18.7472 57.363C19.1402 57.3545 19.5262 57.2015 19.9078 57.03C20.6768 56.6913 21.3928 56.3154 22.1032 56.111C22.7299 55.9212 23.3929 55.8835 24.0371 56.0009C24.4695 56.0758 24.8891 56.2115 25.2834 56.404C25.3909 56.4553 25.4954 56.5125 25.5965 56.5755C25.6317 56.5971 25.6651 56.6215 25.6965 56.6484Z" fill="#263238"/>
<path d="M10.6929 55.3746L5.375 54.4875L5.00673 56.6954L10.3246 57.5824L10.6929 55.3746Z" fill="#FF8006"/>
<path d="M12.3092 55.4727L4.17871 54.1165L4.10581 54.5535L12.2363 55.9097L12.3092 55.4727Z" fill="#FF8006"/>
<g opacity="0.3">
<path opacity="0.3" d="M12.3091 55.4712L9.89551 55.0686L9.82308 55.5028L12.2367 55.9054L12.3091 55.4712Z" fill="black"/>
</g>
<g opacity="0.3">
<path opacity="0.3" d="M11.0321 55.7417L8.5459 55.3398L8.23122 57.2869L10.7174 57.6887L11.0321 55.7417Z" fill="#FF8006"/>
</g>
<path d="M12.2478 55.9081C12.2478 55.9281 10.4283 55.6422 8.19145 55.2692C5.95457 54.8961 4.14363 54.5774 4.14649 54.5545C4.14935 54.5316 5.966 54.8203 8.20288 55.1934C10.4398 55.5665 12.2521 55.8866 12.2478 55.9081Z" fill="#263238"/>
<path d="M4.26847 56.4914C5.06602 56.3727 5.90503 56.2569 6.66114 56.54C7.12138 56.7129 7.53302 57.0302 8.01899 57.1117C8.59071 57.2074 9.18245 56.9545 9.76847 56.9988C10.0243 57.0208 10.2721 57.0987 10.4944 57.2272C10.7167 57.3556 10.908 57.5314 11.0549 57.742C11.008 57.8391 10.9391 57.9241 10.8538 57.99C10.7685 58.056 10.669 58.1013 10.5632 58.1222C10.3515 58.1615 10.1349 58.1673 9.9214 58.1394C8.62216 58.0393 7.32148 57.9393 6.03796 57.722C5.65055 57.6739 5.27381 57.5618 4.92309 57.3904C4.74846 57.3032 4.59533 57.1784 4.47473 57.0249C4.35412 56.8714 4.26903 56.6931 4.22559 56.5028" fill="#929292"/>
<path d="M3.81934 56.2827C3.81934 56.2827 3.86507 56.2356 3.93368 56.1398C4.00229 56.044 4.09519 55.894 4.20525 55.711C4.42394 55.3437 4.70551 54.802 5.19291 54.3403C5.42336 54.1222 5.71072 53.9735 6.02191 53.9115C6.27977 53.8583 6.54824 53.9042 6.77373 54.0402C6.92604 54.1288 7.04695 54.2627 7.11962 54.4232C7.13975 54.4659 7.15417 54.5111 7.1625 54.5576C7.1625 54.589 7.16965 54.6062 7.1625 54.6062C7.15535 54.6062 7.14392 54.5404 7.08961 54.4346C7.00982 54.2875 6.88986 54.1661 6.74371 54.0845C6.5264 53.9631 6.2722 53.9255 6.02906 53.9787C5.73071 54.0461 5.45673 54.1945 5.23721 54.4075C5.01638 54.6212 4.81897 54.8579 4.64834 55.1136C4.48826 55.3451 4.36248 55.5709 4.24384 55.7525C4.15696 55.8985 4.06151 56.0393 3.95798 56.1741C3.92014 56.2199 3.87285 56.257 3.81934 56.2827Z" fill="#263238"/>
<path d="M11.9485 57.6775C11.8308 57.6954 11.7109 57.693 11.5941 57.6704C11.2782 57.6015 10.9736 57.4884 10.6893 57.3345C10.4928 57.2357 10.2881 57.1539 10.0776 57.0901C9.96098 57.0569 9.84119 57.0363 9.72023 57.0286C9.59143 57.0249 9.46258 57.0345 9.33574 57.0572C9.07418 57.0987 8.80404 57.1858 8.51103 57.2316C8.3609 57.2574 8.20786 57.2617 8.05651 57.2444C7.90024 57.2227 7.74945 57.1718 7.61199 57.0944C7.33328 56.9443 7.10173 56.7399 6.84731 56.6098C6.597 56.4901 6.32648 56.4184 6.04975 56.3983C5.51805 56.3525 5.03351 56.4183 4.62044 56.3983C4.29661 56.3952 3.97479 56.3471 3.66423 56.2554C3.58064 56.2295 3.49856 56.1989 3.41839 56.1639C3.38977 56.1526 3.36245 56.1382 3.33691 56.121C3.33691 56.1138 3.45412 56.1682 3.6728 56.2282C3.9831 56.3058 4.30205 56.3432 4.62187 56.3397C5.02493 56.3497 5.50804 56.2768 6.05118 56.3211C6.33735 56.3386 6.61742 56.4114 6.8759 56.5355C7.14318 56.6784 7.3733 56.8743 7.64201 57.0186C7.77227 57.0913 7.91465 57.1397 8.06222 57.1615C8.20507 57.1769 8.34935 57.1725 8.49102 57.1487C8.77688 57.1058 9.04845 57.02 9.31716 56.9786C9.44849 56.9574 9.58155 56.9487 9.71451 56.9529C9.8404 56.9622 9.96496 56.9847 10.0861 57.02C10.3038 57.0885 10.5147 57.1765 10.7165 57.283C10.9958 57.439 11.2941 57.5581 11.6041 57.6375C11.7179 57.6581 11.833 57.6715 11.9485 57.6775Z" fill="#263238"/>
<path d="M14.9274 8.31494C14.8674 8.36814 14.8028 8.41597 14.7344 8.45787C14.6701 8.50218 14.5915 8.55507 14.5057 8.62224C14.42 8.68942 14.3142 8.76518 14.2113 8.85236C14.1084 8.93955 13.9869 9.03532 13.8697 9.14823C13.7525 9.26115 13.6281 9.37978 13.5009 9.51128C13.2311 9.80055 12.9859 10.1118 12.7677 10.4418C12.5539 10.7742 12.3689 11.1242 12.2145 11.488C12.1474 11.6581 12.083 11.8196 12.0373 11.9754C11.9916 12.1312 11.9473 12.2741 11.913 12.4042C11.8787 12.5343 11.8558 12.6615 11.8329 12.7687C11.81 12.8759 11.7958 12.9688 11.7843 13.046C11.7766 13.1261 11.7623 13.2055 11.7414 13.2832C11.7401 13.2025 11.7449 13.1217 11.7557 13.0417C11.7557 12.9645 11.7715 12.8702 11.7915 12.7558C11.8115 12.6415 11.8258 12.5214 11.8615 12.3871C11.8972 12.2527 11.9258 12.1012 11.9773 11.9468C12.0287 11.7925 12.0859 11.6252 12.1516 11.4523C12.3031 11.0821 12.4883 10.7266 12.7048 10.3903C12.9257 10.0571 13.1754 9.74381 13.4509 9.4541C13.581 9.32261 13.7039 9.19826 13.8282 9.09249C13.9526 8.98672 14.0684 8.88667 14.1784 8.80662C14.2885 8.72658 14.3914 8.6494 14.4814 8.58508C14.5715 8.52076 14.6515 8.46931 14.7173 8.42929C14.7843 8.38589 14.8545 8.34767 14.9274 8.31494Z" fill="#263238"/>
<path d="M9.57261 21.8692C9.23797 22.0065 8.87011 22.0413 8.51565 21.9693C8.1612 21.8973 7.8361 21.7216 7.58157 21.4646C7.32704 21.2077 7.15453 20.8809 7.08591 20.5258C7.01729 20.1706 7.05564 19.8031 7.19611 19.4698C7.33658 19.1365 7.57284 18.8524 7.87494 18.6535C8.17705 18.4546 8.5314 18.3499 8.89309 18.3526C9.25478 18.3553 9.60752 18.4653 9.90661 18.6687C10.2057 18.8721 10.4377 19.1597 10.5731 19.4951C10.7543 19.9427 10.7507 20.4439 10.5632 20.8888C10.3757 21.3338 10.0195 21.6863 9.57261 21.8692Z" fill="#FF8006"/>
<g opacity="0.3">
<path opacity="0.3" d="M8.18132 20.6312L7.95835 20.7255L7.87402 20.5254L8.09128 20.4339C8.02284 20.2544 8.006 20.0594 8.04268 19.8708L8.32854 19.8779C8.29745 20.026 8.30483 20.1795 8.34998 20.3239L8.68302 20.181C8.64442 19.938 8.61441 19.6593 8.89884 19.5392C9.11038 19.4506 9.35622 19.5278 9.52488 19.8251L9.74642 19.7321L9.83075 19.9323L9.61207 20.0237C9.66478 20.1696 9.68146 20.326 9.66066 20.4797H9.3748C9.39033 20.363 9.38207 20.2443 9.3505 20.1309L9.01176 20.2739C9.05321 20.5168 9.08036 20.7913 8.80022 20.9085C8.5944 21.0042 8.34998 20.9285 8.18132 20.6312ZM8.97888 20.0595L9.26474 19.9408C9.19757 19.8451 9.12181 19.8279 9.05607 19.8551C8.99032 19.8822 8.97031 19.9623 8.97888 20.0609V20.0595ZM8.64299 20.6055C8.71303 20.5754 8.72589 20.5026 8.72018 20.4039L8.44432 20.5197C8.50864 20.6112 8.57296 20.6326 8.64299 20.6069V20.6055Z" fill="black"/>
</g>
<g opacity="0.3">
<path opacity="0.3" d="M9.55229 21.396C9.55229 21.3874 9.60375 21.3588 9.69522 21.2988C9.82238 21.2137 9.93567 21.1096 10.0311 20.9901C10.0954 20.9082 10.1506 20.8196 10.1955 20.7256C10.2475 20.6177 10.285 20.5033 10.307 20.3855C10.3323 20.256 10.3376 20.1235 10.3227 19.9924C10.3159 19.9229 10.3034 19.8541 10.2855 19.7866C10.2669 19.7179 10.2435 19.6505 10.2155 19.585C10.186 19.5195 10.1521 19.456 10.114 19.3949C10.076 19.3368 10.034 19.2814 9.98823 19.2291C9.94429 19.1779 9.8965 19.1302 9.8453 19.0862C9.79608 19.0443 9.74349 19.0066 9.68808 18.9733C9.58659 18.9118 9.47752 18.8637 9.36362 18.8304C9.26312 18.8 9.15959 18.7809 9.05489 18.7732C8.90277 18.7628 8.74996 18.7758 8.6018 18.8118C8.54741 18.8303 8.49143 18.8437 8.43457 18.8518C8.48016 18.8146 8.53333 18.7878 8.59036 18.7732C8.74058 18.7191 8.89956 18.6934 9.05918 18.6974C9.29892 18.7051 9.53289 18.7729 9.73953 18.8947C9.79929 18.9296 9.85616 18.9693 9.90962 19.0133C9.96558 19.0569 10.0181 19.1047 10.0668 19.1563C10.1188 19.2122 10.1666 19.2719 10.2098 19.3349C10.2518 19.4 10.2886 19.4684 10.3198 19.5393C10.3506 19.6102 10.3759 19.6833 10.3956 19.758C10.4136 19.8302 10.4256 19.9039 10.4313 19.9781C10.4363 20.0504 10.4363 20.123 10.4313 20.1954C10.4269 20.2646 10.4173 20.3334 10.4027 20.4012C10.3764 20.5263 10.3336 20.6474 10.2755 20.7614C10.2242 20.8595 10.1614 20.9512 10.0883 21.0344C9.98362 21.155 9.85765 21.2553 9.71666 21.3302C9.66729 21.3638 9.6112 21.3863 9.55229 21.396Z" fill="black"/>
</g>
<path d="M9.43156 21.4559C9.53221 21.4008 9.63 21.3407 9.72457 21.2758C9.97542 21.0893 10.1574 20.8249 10.242 20.524C10.3045 20.3035 10.3095 20.0707 10.2565 19.8477C10.2034 19.6248 10.0941 19.4191 9.93897 19.2504C9.85074 19.1525 9.74807 19.0687 9.63453 19.0017C9.51644 18.9311 9.38821 18.8791 9.25433 18.8474C8.97201 18.7786 8.67524 18.8001 8.40576 18.9088C8.13629 19.0175 7.90769 19.208 7.75212 19.4534C7.67705 19.5687 7.62062 19.6951 7.58489 19.8279C7.54846 19.9541 7.53206 20.0853 7.5363 20.2167C7.5419 20.4459 7.60587 20.6699 7.72217 20.8674C7.83847 21.065 8.00325 21.2297 8.20093 21.3458C8.47097 21.5035 8.78529 21.5683 9.09567 21.5302C9.20882 21.5111 9.32093 21.4863 9.43156 21.4559C9.32698 21.507 9.21513 21.5417 9.09996 21.5588C8.78166 21.6103 8.45532 21.5512 8.1752 21.3916C7.98136 21.2821 7.81665 21.1277 7.69495 20.9413C7.55461 20.726 7.476 20.4764 7.46769 20.2195C7.46264 20.0811 7.47904 19.9427 7.51629 19.8093C7.5526 19.669 7.61097 19.5354 7.68923 19.4134C7.85403 19.156 8.09479 18.9562 8.37816 18.8417C8.66196 18.7275 8.97448 18.7055 9.27148 18.7788C9.41249 18.8114 9.54719 18.867 9.67026 18.9431C9.78979 19.0127 9.8974 19.1011 9.98899 19.2047C10.1502 19.3823 10.2628 19.5985 10.3159 19.8324C10.369 20.0663 10.3608 20.3099 10.292 20.5397C10.201 20.8491 10.0068 21.1179 9.74172 21.3015C9.6472 21.3691 9.5425 21.4212 9.43156 21.4559Z" fill="#263238"/>
<path d="M7.16401 20.3625C7.10965 20.1266 7.11856 19.8804 7.18983 19.649C7.26111 19.4176 7.39223 19.2091 7.56993 19.0447C7.44546 19.242 7.34198 19.4518 7.2612 19.6707C7.20386 19.8971 7.17127 20.1291 7.16401 20.3625Z" fill="white"/>
<path d="M7.20656 20.6686C7.18512 20.6686 7.16225 20.64 7.15368 20.5971C7.1451 20.5542 7.15368 20.5157 7.17512 20.5114C7.19656 20.5071 7.21799 20.5399 7.22657 20.5828C7.23515 20.6257 7.22657 20.6643 7.20656 20.6686Z" fill="white"/>
<path d="M7.6416 21.8191C8.78505 22.2779 10.2144 22.2165 11.2149 21.5104C10.6903 21.0887 9.98854 20.7114 9.32105 20.8029C8.98719 20.8507 8.66641 20.9654 8.37786 21.14C8.0893 21.3146 7.8389 21.5456 7.6416 21.8191Z" fill="#929292"/>
<path d="M9.57237 18.3345C10.0824 18.6779 10.5005 19.1411 10.7901 19.6836C11.0796 20.226 11.2318 20.8312 11.2332 21.4461L11.2046 21.5518C10.8805 21.4565 10.5793 21.2958 10.3195 21.0798C10.0597 20.8637 9.84682 20.5969 9.69395 20.2955C9.54108 19.9942 9.45144 19.6648 9.43053 19.3276C9.40962 18.9903 9.45789 18.6524 9.57237 18.3345Z" fill="#929292"/>
<path d="M14.1049 24.0675C14.0633 24.0117 14.0274 23.9518 13.9977 23.8888C13.9029 23.7275 13.7994 23.5715 13.6875 23.4214C13.5195 23.2007 13.3325 22.995 13.1287 22.8068C12.9 22.5924 12.6298 22.378 12.3454 22.1508C11.8718 21.7524 11.3492 21.4161 10.7903 21.1503C10.5745 21.0531 10.3944 20.9845 10.2686 20.9416C10.2022 20.9225 10.1372 20.8986 10.0742 20.8701C10.1432 20.8773 10.2112 20.8917 10.2772 20.913C10.4589 20.9646 10.637 21.0281 10.8103 21.1031C11.3817 21.3558 11.914 21.6889 12.3911 22.0922C12.677 22.3194 12.9471 22.5381 13.1758 22.7568C13.3798 22.9503 13.5655 23.1623 13.7304 23.39C13.837 23.5451 13.9325 23.7075 14.0163 23.876C14.0519 23.9368 14.0816 24.001 14.1049 24.0675Z" fill="#263238"/>
<path d="M16.9557 28.5656C16.9695 28.3729 17.0402 28.1887 17.1588 28.0362C17.2773 27.8837 17.4385 27.7698 17.6218 27.7089C17.8051 27.648 18.0024 27.6429 18.1886 27.6942C18.3748 27.7455 18.5417 27.8509 18.668 27.997C18.7943 28.1431 18.8744 28.3235 18.8982 28.5152C18.922 28.7069 18.8884 28.9013 18.8016 29.0739C18.7149 29.2465 18.5789 29.3894 18.4108 29.4847C18.2428 29.5799 18.0503 29.6232 17.8576 29.609C17.7299 29.5997 17.6052 29.5654 17.4907 29.508C17.3762 29.4505 17.2742 29.3711 17.1904 29.2742C17.1067 29.1773 17.0428 29.0648 17.0026 28.9432C16.9623 28.8216 16.9464 28.6933 16.9557 28.5656Z" fill="#FF8006"/>
<g opacity="0.3">
<path opacity="0.3" d="M17.8764 28.1894L17.8849 28.0593L17.9993 28.0665L17.9921 28.1923C18.0959 28.2012 18.195 28.2394 18.278 28.3023L18.2051 28.4452C18.1422 28.3942 18.0666 28.3611 17.9864 28.3495L17.975 28.5424C18.1008 28.581 18.2423 28.6325 18.2323 28.7969C18.2323 28.9198 18.1293 29.0198 17.9464 29.0298L17.9378 29.157H17.822L17.8306 29.0313C17.7482 29.0213 17.6693 28.9919 17.6005 28.9455L17.6663 28.8026C17.7185 28.8378 17.7773 28.8621 17.8392 28.874L17.8506 28.6782C17.7249 28.6396 17.5862 28.5882 17.5962 28.4252C17.6005 28.298 17.6948 28.1994 17.8764 28.1894ZM17.9621 28.7068L17.9521 28.8697C18.0136 28.8597 18.0407 28.8283 18.0422 28.7897C18.0436 28.7511 18.0121 28.7254 17.9621 28.7068ZM17.7792 28.4209C17.7792 28.461 17.8092 28.4853 17.8578 28.5053L17.8678 28.3452C17.8092 28.3509 17.782 28.3795 17.7792 28.4109V28.4209Z" fill="black"/>
</g>
<g opacity="0.3">
<path opacity="0.3" d="M17.1862 28.667C17.1862 28.667 17.1862 28.6999 17.2005 28.757C17.2109 28.8383 17.234 28.9174 17.2691 28.9914C17.2926 29.0423 17.3218 29.0902 17.3563 29.1344C17.398 29.1847 17.446 29.2293 17.4992 29.2673C17.5266 29.2883 17.5558 29.307 17.5864 29.323C17.6177 29.3406 17.6501 29.3559 17.6836 29.3688C17.7186 29.3811 17.7544 29.3912 17.7908 29.3988C17.8286 29.4058 17.8668 29.4105 17.9051 29.4131C17.9432 29.416 17.9814 29.416 18.0195 29.4131C18.0567 29.409 18.0935 29.4018 18.1295 29.3917C18.1641 29.3821 18.1981 29.3702 18.231 29.3559C18.3212 29.3159 18.4024 29.258 18.4697 29.1858C18.508 29.145 18.5416 29.0999 18.5698 29.0515C18.6114 28.981 18.6413 28.9043 18.6584 28.8242C18.6626 28.7942 18.6693 28.7645 18.6784 28.7356C18.6784 28.7356 18.687 28.7685 18.6784 28.8285C18.669 28.9134 18.6438 28.9959 18.6041 29.0715C18.5757 29.1224 18.5421 29.1703 18.504 29.2144C18.4586 29.2657 18.4067 29.3109 18.3496 29.3488C18.3182 29.3681 18.2857 29.3857 18.2524 29.4017C18.2174 29.418 18.1811 29.4313 18.1438 29.4417C18.1051 29.4533 18.0654 29.4615 18.0252 29.466C17.9838 29.4689 17.9422 29.4689 17.9008 29.466C17.8596 29.4641 17.8185 29.4593 17.7779 29.4517C17.739 29.4433 17.7007 29.4318 17.6636 29.4174C17.6266 29.4045 17.5912 29.3877 17.5578 29.3674C17.5254 29.3499 17.4948 29.3293 17.4663 29.3059C17.4126 29.2648 17.3645 29.2167 17.3234 29.163C17.2888 29.1149 17.2595 29.0631 17.2362 29.0086C17.203 28.9297 17.1846 28.8454 17.1819 28.7599C17.1765 28.729 17.178 28.6973 17.1862 28.667Z" fill="black"/>
</g>
<path d="M17.1847 28.5971C17.1863 28.6583 17.1916 28.7194 17.2005 28.78C17.23 28.9456 17.314 29.0965 17.4392 29.2088C17.5308 29.291 17.6419 29.3485 17.762 29.3758C17.882 29.403 18.0071 29.3992 18.1252 29.3646C18.2697 29.3211 18.3976 29.2348 18.492 29.1171C18.5865 28.9994 18.643 28.8558 18.6541 28.7053C18.6653 28.5548 18.6305 28.4045 18.5545 28.2742C18.4784 28.1439 18.3646 28.0397 18.2281 27.9753C18.1163 27.9237 17.993 27.9016 17.8702 27.9111C17.7473 27.9206 17.629 27.9614 17.5264 28.0296C17.3862 28.1216 17.2809 28.258 17.2276 28.417C17.2097 28.4761 17.1954 28.5362 17.1847 28.5971C17.186 28.5349 17.1966 28.4732 17.2162 28.4141C17.267 28.25 17.3724 28.1083 17.5149 28.0125C17.6202 27.9406 17.7422 27.8972 17.8692 27.8864C17.9961 27.8757 18.1237 27.8979 18.2396 27.951C18.382 28.0171 18.5008 28.1249 18.5804 28.2603C18.6599 28.3956 18.6962 28.552 18.6846 28.7085C18.6729 28.865 18.6138 29.0143 18.5152 29.1364C18.4165 29.2584 18.283 29.3475 18.1324 29.3918C18.0301 29.4203 17.9229 29.4267 17.8179 29.4107C17.7129 29.3947 17.6125 29.3566 17.5233 29.299C17.4342 29.2413 17.3582 29.1653 17.3006 29.0761C17.243 28.9869 17.205 28.8865 17.189 28.7814C17.1782 28.7206 17.1768 28.6584 17.1847 28.5971Z" fill="white"/>
<path d="M18.2461 27.7651C18.2835 27.7696 18.3198 27.7807 18.3533 27.798C18.5204 27.8739 18.6577 28.0031 18.7435 28.1653C18.7629 28.198 18.7764 28.2338 18.7835 28.2711C18.7226 28.1614 18.6472 28.0604 18.5591 27.971C18.4644 27.8887 18.3592 27.8194 18.2461 27.7651Z" fill="white"/>
<path d="M18.0902 27.7133C18.0902 27.7047 18.1116 27.7033 18.1345 27.7133C18.1573 27.7233 18.1745 27.7319 18.1716 27.739C18.1688 27.7462 18.1502 27.749 18.1273 27.739C18.1045 27.729 18.0873 27.7204 18.0902 27.7133Z" fill="white"/>
<path d="M17.671 27.4233C17.3487 27.6235 17.0804 27.8996 16.8895 28.2276C16.6986 28.5555 16.591 28.9252 16.5762 29.3043L16.5919 29.3701C16.7939 29.3185 16.9833 29.2263 17.1484 29.099C17.3136 28.9717 17.451 28.812 17.5523 28.6298C17.6536 28.4476 17.7166 28.2466 17.7375 28.0391C17.7584 27.8317 17.7368 27.6221 17.6739 27.4233H17.671Z" fill="#929292"/>
<path d="M18.7792 29.4929C18.4349 29.653 18.0565 29.7263 17.6773 29.7064C17.2981 29.6864 16.9295 29.5739 16.6038 29.3785L16.5566 29.3285C16.7107 29.1877 16.8918 29.0799 17.089 29.0116C17.2862 28.9433 17.4953 28.916 17.7034 28.9314C17.9115 28.9468 18.1142 29.0045 18.2992 29.1011C18.4842 29.1976 18.6476 29.331 18.7792 29.4929Z" fill="#929292"/>
<path d="M17.0271 29.0457C16.964 29.0981 16.8971 29.1459 16.827 29.1886C16.7598 29.2343 16.6841 29.2901 16.5912 29.3615C16.4983 29.433 16.3968 29.5045 16.2896 29.6017C16.1824 29.6989 16.0623 29.7946 15.9423 29.9133C15.8222 30.0319 15.6979 30.1591 15.5678 30.2949C15.0157 30.9015 14.5714 31.5981 14.2542 32.3545C14.1871 32.5303 14.1113 32.6961 14.0684 32.8562C14.0427 32.9363 14.0156 33.0134 13.9941 33.0878L13.9369 33.305C13.8969 33.4479 13.8769 33.5694 13.8526 33.6809C13.8283 33.7924 13.8126 33.8882 13.8012 33.9668C13.7936 34.0499 13.7788 34.1321 13.7568 34.2126C13.7566 34.1295 13.7618 34.0464 13.7726 33.9639C13.7806 33.8681 13.7934 33.7726 13.8112 33.6781C13.8312 33.5652 13.8483 33.4351 13.8855 33.2964C13.9026 33.2264 13.9212 33.1535 13.9398 33.0763C13.9584 32.9991 13.9855 32.9234 14.0098 32.8419C14.0556 32.679 14.1242 32.5117 14.1914 32.3331C14.3509 31.9509 14.5422 31.5828 14.7631 31.2325C14.9882 30.8859 15.2416 30.5584 15.5206 30.2534C15.6521 30.1105 15.775 29.9833 15.9037 29.8718C16.0323 29.7603 16.1467 29.6545 16.2596 29.5645C16.3725 29.4745 16.4768 29.3987 16.5697 29.3315C16.6482 29.2728 16.7298 29.2184 16.8142 29.1686C16.8814 29.1215 16.9527 29.0804 17.0271 29.0457Z" fill="#263238"/>
<path d="M11.7174 7.66019C10.9689 7.82924 10.1871 7.77243 9.47096 7.49696C8.75479 7.22149 8.13645 6.73973 7.6942 6.11268C7.25195 5.48563 7.00568 4.74146 6.98656 3.97438C6.96743 3.2073 7.17631 2.45179 7.58677 1.80348C7.99722 1.15516 8.59078 0.643196 9.29233 0.332379C9.99388 0.0215611 10.7719 -0.0741344 11.5278 0.0574058C12.2838 0.188946 12.9837 0.541808 13.5391 1.07133C14.0944 1.60085 14.4801 2.28322 14.6475 3.03207C14.8726 4.03435 14.6904 5.08501 14.1409 5.95294C13.5914 6.82087 12.7196 7.43498 11.7174 7.66019Z" fill="#FF8006"/>
<g opacity="0.3">
<path opacity="0.3" d="M9.22172 4.58562L8.72146 4.70425L8.61426 4.25545L9.10165 4.13968C9.01927 3.73964 9.05147 3.32446 9.19456 2.94191L9.79773 3.05769C9.68019 3.35686 9.64227 3.6814 9.68767 3.9996L10.4295 3.82666C10.4295 3.30067 10.4652 2.7075 11.1056 2.55457C11.5787 2.44165 12.0675 2.68892 12.3162 3.37642L12.8136 3.25779L12.9194 3.70517L12.432 3.82094C12.4902 4.14526 12.4711 4.47875 12.3762 4.7943L11.773 4.7014C11.8448 4.46208 11.8681 4.21087 11.8417 3.96244L11.087 4.14111C11.087 4.66423 11.0527 5.24882 10.4223 5.40033C9.95781 5.51039 9.47471 5.2674 9.22172 4.58562ZM11.0913 3.66657L11.7259 3.51507C11.6158 3.29066 11.4643 3.2292 11.3171 3.26351C11.1699 3.29781 11.107 3.45504 11.0913 3.66657ZM10.1979 4.69282C10.3537 4.65566 10.408 4.50558 10.4295 4.2969L9.81202 4.43983C9.91493 4.65566 10.055 4.72712 10.1979 4.69282Z" fill="black"/>
</g>
<g opacity="0.3">
<path opacity="0.3" d="M11.8328 6.66119C11.8328 6.64261 11.9515 6.60259 12.1616 6.50683C12.4583 6.37197 12.7318 6.19108 12.972 5.97083C13.136 5.82105 13.2831 5.65378 13.4108 5.472C13.5557 5.26364 13.6729 5.03735 13.7595 4.7988C13.8077 4.66993 13.8459 4.53757 13.8739 4.40288C13.9029 4.26145 13.922 4.11817 13.9311 3.97408C13.9396 3.82639 13.9367 3.67825 13.9225 3.531C13.9079 3.37969 13.8821 3.22968 13.8453 3.08219C13.8078 2.93607 13.7601 2.79278 13.7024 2.6534C13.6438 2.51781 13.575 2.38689 13.4965 2.26176C13.4209 2.14043 13.3359 2.02525 13.2421 1.9173C13.1539 1.81521 13.0584 1.71967 12.9563 1.63144C12.7651 1.46182 12.5527 1.31769 12.3245 1.20264C12.1252 1.10479 11.9157 1.02906 11.6999 0.976811C11.3841 0.90227 11.0586 0.877196 10.7351 0.902487C10.6152 0.922802 10.4936 0.930943 10.3721 0.926785C10.4784 0.869028 10.5958 0.834443 10.7165 0.825304C11.0499 0.761683 11.3923 0.761683 11.7256 0.825304C12.2267 0.91887 12.6948 1.14155 13.0835 1.47135C13.1965 1.56599 13.3026 1.66869 13.4008 1.77866C13.6083 2.01404 13.778 2.2802 13.9039 2.56764C14.0374 2.87019 14.1195 3.19287 14.1469 3.52242C14.1597 3.68129 14.1597 3.84094 14.1469 3.99981C14.1259 4.30049 14.0599 4.59632 13.9511 4.87741C13.7675 5.35288 13.4648 5.7732 13.072 6.09804C12.8109 6.31485 12.5119 6.48154 12.1902 6.58973C12.0774 6.63858 11.9557 6.66294 11.8328 6.66119Z" fill="black"/>
</g>
<path d="M11.5734 6.74706C11.588 6.74 11.6034 6.73472 11.6192 6.73134L11.755 6.68989C11.8292 6.67008 11.9018 6.64476 11.9722 6.61414C12.0704 6.57851 12.1659 6.536 12.2581 6.48693C12.5146 6.35917 12.7506 6.19394 12.9585 5.99667C13.2654 5.71162 13.508 5.36441 13.6702 4.97821C13.8324 4.592 13.9103 4.17566 13.8989 3.75694C13.88 3.23059 13.7185 2.71927 13.4316 2.2776C13.3553 2.1601 13.2713 2.04789 13.18 1.94171C13.0802 1.83543 12.9732 1.7361 12.8598 1.64441C12.6355 1.451 12.3817 1.29466 12.108 1.18131C11.8266 1.06075 11.5281 0.985034 11.2233 0.956909C10.5905 0.894655 9.95447 1.03639 9.40803 1.36141C9.14837 1.51787 8.91452 1.71363 8.71482 1.94171C8.51254 2.16128 8.34656 2.41169 8.22313 2.68352C8.10038 2.93942 8.02024 3.21364 7.98586 3.49537C7.91836 3.98292 7.97699 4.47963 8.15616 4.93805C8.33533 5.39648 8.62904 5.80131 9.00925 6.11388C9.30188 6.35705 9.63869 6.54147 10.0012 6.65702C10.2731 6.74629 10.5569 6.79446 10.8431 6.79995C10.9473 6.80664 11.0519 6.80664 11.1561 6.79995C11.2328 6.79693 11.3092 6.78882 11.3848 6.77565L11.5277 6.75421C11.5434 6.75232 11.5592 6.75232 11.5749 6.75421C11.5603 6.76073 11.5449 6.76506 11.5291 6.76707L11.3862 6.79423C11.311 6.81098 11.2345 6.8215 11.1575 6.82567C11.0527 6.83773 10.9471 6.84203 10.8416 6.83854C10.5506 6.83767 10.2614 6.79236 9.98405 6.70418C9.31345 6.502 8.737 6.06717 8.35839 5.47791C7.97979 4.88864 7.82387 4.18362 7.91869 3.48965C7.93784 3.34793 7.96601 3.20757 8.00302 3.06944C8.04606 2.92902 8.0981 2.79152 8.15881 2.65779C8.28255 2.38071 8.44948 2.12502 8.65336 1.90026C8.86163 1.66522 9.10572 1.46455 9.37659 1.30566C9.65592 1.14305 9.95798 1.0231 10.2728 0.949762C10.5888 0.883013 10.9128 0.862789 11.2347 0.889731C11.548 0.915082 11.8553 0.989854 12.1452 1.11128C12.4252 1.22727 12.6849 1.38749 12.9141 1.58581C13.0263 1.6804 13.1319 1.7826 13.23 1.89168C13.6115 2.32633 13.8561 2.86396 13.9331 3.43711C14.0102 4.01026 13.9162 4.5934 13.6631 5.11336C13.4973 5.46087 13.2658 5.77297 12.9813 6.0324C12.7691 6.22929 12.5281 6.39268 12.2667 6.51694C12.1743 6.56442 12.0788 6.60549 11.9808 6.63986C11.9088 6.66845 11.8348 6.69138 11.7593 6.70847L11.6163 6.74277C11.6022 6.74578 11.5879 6.74721 11.5734 6.74706Z" fill="white"/>
<path d="M7.18596 3.67092C7.17695 3.63157 7.17453 3.591 7.17882 3.55086C7.17966 3.44271 7.18826 3.33475 7.20454 3.22783C7.30647 2.51138 7.63563 1.84655 8.14361 1.33113C8.21989 1.25405 8.30105 1.18196 8.38659 1.11531C8.44805 1.06957 8.48235 1.04527 8.48664 1.04956C8.49093 1.05385 8.36372 1.16819 8.18077 1.36829C7.94357 1.62958 7.74306 1.92194 7.58474 2.23732C7.42891 2.55433 7.31642 2.89085 7.25028 3.23784C7.2074 3.50226 7.19883 3.67092 7.18596 3.67092Z" fill="white"/>
<path d="M7.16922 4.32677C7.14921 4.32677 7.1292 4.25244 7.12634 4.15811C7.12348 4.06377 7.13777 3.98802 7.15921 3.98659C7.18065 3.98516 7.1978 4.06235 7.20066 4.15525C7.20352 4.24816 7.18923 4.32534 7.16922 4.32677Z" fill="white"/>
<path d="M36.6572 17.5657C36.523 17.2865 36.3377 17.0287 36.28 16.7186C36.2128 16.3735 36.3122 15.9882 36.135 15.6848C35.9268 15.3236 35.4449 15.2551 35.0904 15.0376C34.5104 14.6818 34.701 12.8357 33.298 12.2302L32.812 14.9799C32.8039 16.7915 32.7592 18.6022 32.6777 20.4121C33.5786 20.4915 34.4829 20.5247 35.3871 20.5114C35.6276 20.5217 35.8678 20.4857 36.0947 20.4054C36.5109 20.2308 36.7566 19.7891 36.8586 19.3487C36.9949 18.7487 36.9239 18.1202 36.6572 17.5657Z" fill="#263238"/>
<path d="M33.5468 16.6905L31.9008 20.2739L31.4846 17.9284L31.1972 18.4037C31.1972 18.4037 30.7099 21.595 30.8267 22.163C30.9784 22.9027 31.5463 23.4975 31.5463 23.4975L32.125 26.2593C32.1679 26.5533 32.4351 26.7614 32.5573 26.7224L36.6281 24.7555C36.8563 24.585 36.8523 24.3702 36.7274 24.0842L36.4952 23.5633L36.4213 20.239C36.4213 20.0363 36.3515 18.4184 36.2079 17.7995C36.1527 17.5549 36.038 17.3278 35.8741 17.1381C35.7102 16.9484 35.502 16.802 35.268 16.712C34.9404 16.5911 33.9899 16.4381 33.5468 16.6905Z" fill="#FF8006"/>
<path d="M32.6993 14.5799L28.8729 12.1753C28.3775 13.4024 28.7937 14.8484 28.9548 15.2472C29.1159 15.6459 29.3146 16.0635 29.2314 16.4851C29.1736 16.7845 28.9816 17.0382 28.8689 17.3202C28.7881 17.5269 28.7497 17.7479 28.7562 17.9698C28.7627 18.1917 28.8138 18.41 28.9065 18.6118C29.034 18.8803 29.2421 19.1488 29.2273 19.4442C29.2126 19.7395 28.9521 20.0175 28.9038 20.3303C28.8514 20.67 29.0609 21.0016 29.3065 21.2419C29.4622 21.4315 29.6828 21.5564 29.9255 21.5923C30.194 21.6058 30.433 21.4366 30.6102 21.2392C31.013 20.7921 31.1862 20.1893 31.2815 19.5972C31.3769 19.0051 31.4158 18.3996 31.6024 17.8263C31.7783 17.2759 32.0804 16.7751 32.3261 16.2514C32.5718 15.7278 32.7638 15.1545 32.6993 14.5799Z" fill="#263238"/>
<path d="M43.2548 35.5406L45.9924 32.4956L44.7384 31.2375L41.5 34.0006L43.2548 35.5406Z" fill="#FFBE9D"/>
<path d="M45.6413 32.9077L45.7272 32.8244C45.7272 32.8244 47.7009 33.6971 47.9882 33.4474L45.1969 30.6145L44.292 31.5812C44.5987 31.6929 44.8778 31.8692 45.1106 32.098C45.3434 32.3268 45.5243 32.6029 45.6413 32.9077Z" fill="#FF8006"/>
<g opacity="0.6">
<path opacity="0.6" d="M44.8767 31.5718C44.8583 31.5362 44.8536 31.4951 44.8635 31.4562C44.8734 31.4174 44.8972 31.3835 44.9304 31.361C44.965 31.3413 45.0059 31.3356 45.0446 31.3451C45.0833 31.3545 45.1169 31.3785 45.1385 31.412C45.1581 31.4498 45.1631 31.4934 45.1524 31.5346C45.1418 31.5757 45.1162 31.6115 45.0807 31.6349C45.0423 31.6516 44.999 31.6528 44.9597 31.6383C44.9204 31.6238 44.8883 31.5947 44.8699 31.557" fill="white"/>
</g>
<g opacity="0.6">
<path opacity="0.6" d="M45.196 30.6145L44.9785 30.8468L47.7322 33.4823C47.7322 33.4823 47.9121 33.5548 47.9873 33.4528L45.196 30.6145Z" fill="white"/>
</g>
<path d="M45.7512 32.8272C45.7646 32.8124 45.7028 32.7372 45.68 32.6258C45.6572 32.5143 45.68 32.4204 45.6612 32.4137C45.6424 32.4069 45.5834 32.505 45.6142 32.6406C45.6451 32.7762 45.7337 32.8433 45.7512 32.8272Z" fill="#263238"/>
<path d="M46.1535 33.0031C46.171 32.9937 46.1347 32.9104 46.1468 32.8057C46.1589 32.701 46.2072 32.6258 46.1938 32.6137C46.1804 32.6016 46.0931 32.6687 46.0797 32.799C46.0662 32.9292 46.1454 33.0165 46.1535 33.0031Z" fill="#263238"/>
<path d="M46.6822 32.8218C46.6728 32.8057 46.5842 32.8554 46.548 32.9655C46.5117 33.0756 46.548 33.1696 46.5587 33.1642C46.5694 33.1588 46.5762 33.0783 46.6111 32.9883C46.646 32.8984 46.6916 32.8366 46.6822 32.8218Z" fill="#263238"/>
<path d="M34.4984 18.3942C34.5078 18.3942 34.4729 18.2841 34.4461 18.1069C34.4138 17.8755 34.4215 17.6402 34.4689 17.4114C34.5037 17.1809 34.6109 16.9674 34.775 16.8019C34.8483 16.7391 34.9344 16.6933 35.0274 16.6676C35.001 16.6609 34.9733 16.6609 34.9469 16.6676C34.8747 16.6841 34.8073 16.7167 34.7495 16.763C34.5699 16.9283 34.452 17.1499 34.4152 17.3913C34.3653 17.6261 34.363 17.8685 34.4085 18.1042C34.4212 18.2054 34.4517 18.3036 34.4984 18.3942Z" fill="#263238"/>
<path d="M35.1533 44.7253L35.5897 48.878L37.3982 48.788L37.519 44.4487L35.1533 44.7253Z" fill="#FFBE9D"/>
<path d="M35.5178 48.3315V48.4524C35.5178 48.4524 33.5039 49.3506 33.5039 49.7386L37.5613 49.5614L37.4471 48.2188C37.1526 48.3751 36.8277 48.4661 36.4948 48.4856C36.1618 48.5051 35.8286 48.4525 35.5178 48.3315Z" fill="#FF8006"/>
<path d="M34.9016 49.1104C34.9177 49.1104 34.9378 49.0245 34.8882 48.9318C34.8385 48.8392 34.7539 48.7976 34.7539 48.8177C34.7539 48.8379 34.7996 48.8822 34.8385 48.952C34.8774 49.0218 34.8841 49.1091 34.9016 49.1104Z" fill="#263238"/>
<g opacity="0.6">
<path opacity="0.6" d="M37.0515 48.6645C37.091 48.6747 37.1253 48.6991 37.1479 48.7331C37.1704 48.7671 37.1796 48.8082 37.1737 48.8485C37.165 48.8883 37.1413 48.9233 37.1076 48.9463C37.0739 48.9692 37.0327 48.9784 36.9925 48.972C36.9496 48.962 36.9121 48.9364 36.8872 48.9001C36.8624 48.8638 36.852 48.8195 36.8582 48.776C36.8715 48.7353 36.9 48.7014 36.9379 48.6813C36.9757 48.6613 37.0198 48.6567 37.0609 48.6686" fill="white"/>
</g>
<g opacity="0.6">
<path opacity="0.6" d="M37.5613 49.5616L37.5345 49.238L33.6611 49.5267C33.6611 49.5267 33.4838 49.6126 33.5093 49.7388L37.5613 49.5616Z" fill="white"/>
</g>
<path d="M35.509 48.4644C35.509 48.4845 35.6097 48.4886 35.709 48.5476C35.8084 48.6067 35.8647 48.6886 35.8835 48.6819C35.9023 48.6752 35.8661 48.5611 35.7493 48.4912C35.6325 48.4214 35.5036 48.4456 35.509 48.4644Z" fill="#263238"/>
<path d="M35.0918 48.654C35.0918 48.6728 35.175 48.7023 35.2462 48.7882C35.3173 48.8742 35.3402 48.956 35.3603 48.9547C35.3804 48.9534 35.3872 48.8406 35.2972 48.7412C35.2073 48.6419 35.0918 48.6405 35.0918 48.654Z" fill="#263238"/>
<path d="M43.2444 32.4995L40.2584 34.7309C40.2584 34.7309 39.2945 31.792 39.0232 30.0895C39.0232 30.0895 39.371 28.6006 38.8125 27.5265C38.0982 26.2994 37.3007 25.7811 37.3007 25.7811L36.6294 24.75L32.5586 26.7263L33.5562 29.9486L33.7347 39.4072L35.3727 47.4226L37.5209 47.4145C37.5209 47.4145 37.7182 42.7463 37.1584 41.0009C36.5985 39.2555 36.7677 38.4057 36.7677 38.4057L37.1557 34.3778C38.4835 39.4797 40.5552 38.2365 41.2573 37.7424C42.3717 36.9597 44.7481 33.9307 44.7481 33.9307L43.2444 32.4995Z" fill="#263238"/>
<path d="M33.2979 26.4445C33.3244 26.4777 33.3551 26.5075 33.3892 26.5331C33.4263 26.5661 33.4653 26.5971 33.506 26.6257C33.5583 26.6657 33.613 26.7024 33.6698 26.7358C33.7375 26.7787 33.8079 26.8173 33.8805 26.8513C33.9624 26.8929 34.0467 26.9297 34.133 26.9614C34.5295 27.1097 34.955 27.1644 35.3762 27.1211C35.4664 27.112 35.556 27.0981 35.6447 27.0795C35.7232 27.0643 35.8008 27.0446 35.877 27.0204C35.9403 27.0019 36.0026 26.9799 36.0636 26.9547C36.1096 26.9374 36.1545 26.9172 36.1979 26.8942C36.2373 26.878 36.2747 26.8573 36.3093 26.8325C36.3093 26.8217 36.1428 26.9063 35.8649 26.9829C35.7889 27.0043 35.7118 27.0218 35.634 27.0352C35.5508 27.0527 35.4608 27.0607 35.3655 27.0715C35.1592 27.0869 34.9519 27.0824 34.7465 27.058C34.5418 27.0298 34.3404 26.9817 34.145 26.9144C34.0551 26.8795 33.9705 26.8499 33.894 26.811C33.8221 26.7789 33.7522 26.7426 33.6845 26.7022C33.4388 26.5586 33.3046 26.4364 33.2979 26.4445Z" fill="#455A64"/>
<path d="M33.5549 12.6183C33.1642 11.9725 32.6392 11.3535 31.9236 11.1159C31.2859 10.9038 30.487 11.0031 29.8641 11.2501C29.5453 11.4019 29.2642 11.6224 29.041 11.8959C28.7457 12.2396 28.7416 12.723 28.7014 13.1754C28.6208 14.0804 29.0451 15.1155 29.3928 15.3236L33.2541 15.8714C33.72 15.3652 34.194 14.7329 34.1255 14.0495C34.0705 13.5876 33.8019 13.0184 33.5549 12.6183Z" fill="#263238"/>
<path d="M31.891 11.7856L29.6314 11.9199C28.94 12.0609 28.7547 13.0262 28.9239 13.7123C29.1132 14.4735 29.3736 15.3959 29.6381 15.9249C30.1685 16.9896 31.0734 16.8647 31.0734 16.8647C31.0734 16.8647 31.0814 16.8808 31.1929 17.2111L31.4614 18.0704L31.8239 20.6415L33.533 16.9896L32.3636 12.0743C32.3345 11.9763 32.2701 11.8925 32.1828 11.8392C32.0955 11.7859 31.9916 11.7668 31.891 11.7856Z" fill="#FFBE9D"/>
<path d="M29.3815 14.498C29.3933 14.5356 29.4192 14.567 29.4538 14.5858C29.4884 14.6046 29.5289 14.6092 29.5668 14.5987C29.5854 14.5943 29.603 14.5863 29.6184 14.575C29.6339 14.5637 29.6469 14.5495 29.6568 14.5331C29.6667 14.5167 29.6732 14.4985 29.6759 14.4796C29.6787 14.4607 29.6776 14.4414 29.6728 14.4228C29.6616 14.3852 29.6361 14.3534 29.6017 14.3343C29.5673 14.3152 29.5268 14.3104 29.4889 14.3208C29.4701 14.3252 29.4524 14.3333 29.4368 14.3446C29.4212 14.356 29.408 14.3703 29.398 14.3868C29.3879 14.4033 29.3813 14.4217 29.3785 14.4408C29.3757 14.4599 29.3767 14.4793 29.3815 14.498Z" fill="#263238"/>
<path d="M29.2732 14.122C29.296 14.1354 29.3793 14.02 29.5417 13.9716C29.7042 13.9233 29.8344 13.9649 29.8451 13.9407C29.8559 13.9166 29.821 13.9018 29.7606 13.8817C29.6794 13.8552 29.592 13.8552 29.5108 13.8817C29.4302 13.9063 29.3596 13.9562 29.3095 14.024C29.2665 14.0777 29.2611 14.1166 29.2732 14.122Z" fill="#263238"/>
<path d="M30.8851 14.0346C30.8969 14.0722 30.9228 14.1037 30.9574 14.1224C30.992 14.1412 31.0325 14.1459 31.0704 14.1353C31.089 14.1309 31.1066 14.1229 31.1221 14.1116C31.1377 14.1004 31.1508 14.0862 31.1608 14.0698C31.1708 14.0534 31.1774 14.0353 31.1803 14.0163C31.1833 13.9974 31.1824 13.9781 31.1778 13.9595C31.166 13.9219 31.1401 13.8903 31.1056 13.8713C31.0711 13.8523 31.0306 13.8473 30.9925 13.8574C30.9738 13.862 30.9562 13.8702 30.9407 13.8816C30.9252 13.8929 30.912 13.9073 30.9021 13.9237C30.8921 13.9402 30.8854 13.9585 30.8825 13.9775C30.8796 13.9965 30.8805 14.016 30.8851 14.0346Z" fill="#263238"/>
<path d="M30.8027 13.671C30.8255 13.6844 30.9101 13.569 31.0645 13.5206C31.2189 13.4723 31.3572 13.5206 31.3679 13.4898C31.3787 13.4589 31.3451 13.4508 31.2833 13.4307C31.2021 13.4049 31.1149 13.4049 31.0336 13.4307C30.9528 13.4557 30.8822 13.5061 30.8322 13.5743C30.796 13.6267 30.7906 13.6656 30.8027 13.671Z" fill="#263238"/>
<path d="M30.6015 14.9947C30.511 14.9959 30.4209 15.0076 30.333 15.0296C30.2927 15.0377 30.2525 15.0417 30.2377 15.0162C30.2214 14.9766 30.2177 14.9331 30.2269 14.8913C30.2337 14.7839 30.2417 14.6711 30.2498 14.5543C30.2773 14.2651 30.2818 13.9742 30.2632 13.6843C30.2117 13.9707 30.1825 14.2607 30.1759 14.5517C30.1706 14.6698 30.1652 14.7826 30.1598 14.89C30.1502 14.9453 30.1602 15.0023 30.188 15.0511C30.1981 15.0633 30.2108 15.0731 30.2253 15.0796C30.2397 15.0861 30.2554 15.0892 30.2712 15.0887C30.295 15.0881 30.3185 15.084 30.3411 15.0766C30.4311 15.0609 30.5187 15.0334 30.6015 14.9947Z" fill="#263238"/>
<path d="M31.0742 16.8596C31.6045 16.7011 32.0805 16.3985 32.449 15.9856C32.449 15.9856 32.3242 16.8865 31.1695 17.1362L31.0742 16.8596Z" fill="#EB996E"/>
<path d="M31.2047 15.1223C31.1709 15.0955 31.1312 15.0773 31.0889 15.0691C31.0466 15.0609 31.003 15.063 30.9617 15.0753C30.9028 15.0894 30.8487 15.1191 30.8051 15.1611C30.7614 15.2031 30.7297 15.2559 30.7133 15.3143C30.7054 15.3664 30.7174 15.4195 30.7468 15.4633C30.7643 15.4848 30.7468 15.4754 30.7777 15.4861C30.8604 15.5304 30.9525 15.5543 31.0463 15.5559C31.0972 15.553 31.1462 15.5348 31.1867 15.5037C31.2271 15.4726 31.2573 15.4299 31.2732 15.3814C31.2854 15.336 31.2856 15.2881 31.2736 15.2427C31.2615 15.1972 31.2378 15.1557 31.2047 15.1223Z" fill="#EB996E"/>
<path d="M31.0922 14.9543C31.0667 14.9611 31.119 15.1289 31.013 15.294C30.9069 15.4592 30.723 15.4954 30.7297 15.5196C30.7364 15.5437 30.7793 15.5397 30.8559 15.5196C30.9543 15.489 31.0391 15.4255 31.0962 15.3397C31.1504 15.2569 31.1701 15.1562 31.1513 15.0591C31.1351 14.9893 31.1043 14.9543 31.0922 14.9543Z" fill="#263238"/>
<path d="M30.6209 13.3431C30.6491 13.3807 30.7968 13.3122 30.9861 13.276C31.1754 13.2397 31.3365 13.2437 31.3486 13.1994C31.3486 13.178 31.315 13.1457 31.2439 13.1242C31.1492 13.0989 31.05 13.0957 30.9538 13.1148C30.8577 13.1339 30.7672 13.1748 30.6894 13.2343C30.6303 13.2746 30.6075 13.3189 30.6209 13.3431Z" fill="#263238"/>
<path d="M29.1619 13.5699C29.1995 13.5954 29.2961 13.5256 29.4223 13.484C29.5485 13.4424 29.6667 13.433 29.6801 13.3887C29.6801 13.3672 29.6573 13.3363 29.5996 13.3189C29.5233 13.2998 29.4431 13.3035 29.3689 13.3296C29.2947 13.3556 29.2297 13.4027 29.182 13.4652C29.1471 13.5149 29.1444 13.5565 29.1619 13.5699Z" fill="#263238"/>
<path d="M32.5088 13.5324C32.5209 13.5203 33.066 13.1296 33.262 13.758C33.458 14.3863 32.7894 14.4521 32.7827 14.4293C32.776 14.4065 32.5088 13.5324 32.5088 13.5324Z" fill="#FFBE9D"/>
<path d="M32.8997 14.1371C32.8997 14.1371 32.9131 14.1371 32.9346 14.1371C32.9492 14.1386 32.9639 14.1373 32.978 14.1331C32.992 14.129 33.0051 14.1221 33.0165 14.1129C33.0492 14.0749 33.071 14.0287 33.0796 13.9793C33.0881 13.9299 33.083 13.8791 33.0648 13.8323C33.05 13.7781 33.0229 13.728 32.9856 13.686C32.9735 13.6685 32.9575 13.6542 32.9389 13.6442C32.9202 13.6342 32.8994 13.6287 32.8782 13.6282C32.8646 13.6285 32.8515 13.6336 32.8414 13.6427C32.8313 13.6519 32.8248 13.6644 32.8232 13.6779C32.8232 13.698 32.8232 13.7088 32.8232 13.7115C32.8232 13.7142 32.8071 13.7048 32.803 13.6779C32.8014 13.6611 32.8062 13.6443 32.8165 13.6309C32.8226 13.6215 32.8307 13.6136 32.8402 13.6075C32.8497 13.6015 32.8604 13.5976 32.8715 13.596C32.8988 13.5929 32.9264 13.5969 32.9516 13.6077C32.9768 13.6186 32.9987 13.6358 33.0152 13.6578C33.0591 13.7034 33.0909 13.7592 33.1078 13.8202C33.1286 13.8748 33.1327 13.9343 33.1196 13.9912C33.1064 14.0482 33.0766 14.0999 33.034 14.1398C33.0188 14.1501 33.0015 14.1568 32.9833 14.1594C32.9652 14.1619 32.9467 14.1603 32.9292 14.1545C32.9064 14.1492 32.8984 14.1384 32.8997 14.1371Z" fill="#EB996E"/>
<path d="M29.1718 11.9266C28.9152 12.1887 28.7564 12.5309 28.722 12.896C28.6877 13.2595 28.7335 13.6262 28.8563 13.9701L28.9301 13.9043C28.968 13.6964 29.0688 13.5052 29.2188 13.3565C29.3611 13.2007 29.5249 13.0692 29.6659 12.9121C29.9894 12.5488 30.1673 12.0788 30.1653 11.5923C29.9851 11.5678 29.8018 11.5853 29.6294 11.6432C29.4571 11.7012 29.3005 11.7982 29.1718 11.9266Z" fill="#263238"/>
<path d="M32.0276 11.5577C31.4247 11.2677 30.4742 11.308 29.9385 11.7081C30.1976 12.2035 30.7857 12.6667 31.2636 12.9567C31.7416 13.2467 32.1873 13.8965 32.8748 13.4024C32.9217 13.3689 32.9983 13.4024 33.0359 13.3541C33.0636 13.3151 33.0765 13.2675 33.0721 13.2198C33.0681 12.8734 32.9684 12.5349 32.7841 12.2416C32.5997 11.9482 32.3379 11.7116 32.0276 11.5577Z" fill="#263238"/>
<path d="M31.251 21.2473C30.9266 21.3339 30.597 21.3994 30.2642 21.4433C29.9349 21.5096 29.6017 21.5544 29.2666 21.5776C29.5911 21.4918 29.9207 21.4268 30.2534 21.3829C30.5827 21.3167 30.9159 21.2714 31.251 21.2473Z" fill="white"/>
<path d="M33.9581 17.0287C33.9728 17.0421 33.1136 18.0303 32.0395 19.2359C30.9654 20.4416 30.0833 21.4096 30.0685 21.3989C30.0538 21.3881 30.913 20.3986 31.9871 19.1916C33.0612 17.9846 33.9433 17.0166 33.9581 17.0287Z" fill="#263238"/>
<path d="M39.1333 28.8396C39.1397 28.8596 39.1428 28.8804 39.1427 28.9014C39.1502 28.9601 39.1538 29.0193 39.1535 29.0786C39.1527 29.2977 39.1279 29.516 39.0796 29.7297C38.913 30.4335 38.6303 31.1046 38.2432 31.7155C38.1304 31.894 38.0069 32.0592 37.8981 32.223C37.7915 32.3787 37.6981 32.5431 37.6188 32.7144C37.488 33.0077 37.389 33.3142 37.3235 33.6287C37.2657 33.8972 37.2308 34.116 37.208 34.2691C37.2004 34.3485 37.186 34.4271 37.165 34.5041C37.1649 34.4241 37.1703 34.3443 37.1812 34.2651C37.1959 34.112 37.2241 33.8891 37.2751 33.6179C37.3352 33.2986 37.4307 32.987 37.5598 32.6889C37.6384 32.5132 37.7323 32.3447 37.8404 32.1854C37.9505 32.0189 38.0727 31.8538 38.1841 31.6779C38.5682 31.0744 38.8562 30.4149 39.038 29.723C39.0905 29.5132 39.1219 29.2987 39.132 29.0826C39.1333 28.9255 39.1266 28.8396 39.1333 28.8396Z" fill="#455A64"/>
<path d="M31.7165 20.2847L26.1406 28.9123L27.6175 29.742L34.74 20.5263L31.7165 20.2847Z" fill="#FF8006"/>
<path d="M31.1266 18.6599C31.1188 18.6758 31.1125 18.6925 31.1078 18.7096C31.0971 18.7485 31.0823 18.7955 31.0662 18.8532C31.0299 18.9781 30.9802 19.1607 30.9252 19.3903C30.7687 19.9784 30.6853 20.5836 30.6768 21.1921C30.6734 21.8039 30.8249 22.4067 31.1172 22.9442C31.2077 23.1054 31.3163 23.2559 31.4408 23.3926C31.4824 23.4423 31.5227 23.4745 31.5468 23.5C31.5586 23.5131 31.5721 23.5244 31.5871 23.5336C31.5871 23.5336 31.5401 23.4785 31.4528 23.3792C31.336 23.2384 31.2335 23.0864 31.1467 22.9254C30.8675 22.3891 30.7237 21.7926 30.7278 21.188C30.7369 20.5838 30.8144 19.9825 30.9588 19.3957C31.0098 19.1755 31.0514 18.9929 31.0823 18.8586C31.0957 18.8009 31.1065 18.7526 31.1145 18.7123C31.1205 18.6953 31.1245 18.6778 31.1266 18.6599Z" fill="#263238"/>
<path d="M31.9795 21.9036C31.9795 21.9036 31.9929 21.9332 32.0265 21.9802C32.0461 22.0088 32.0677 22.0362 32.0909 22.0621C32.1204 22.0981 32.1523 22.1322 32.1863 22.1641C32.2725 22.2485 32.3669 22.324 32.4682 22.3897C32.5947 22.4698 32.7298 22.5356 32.871 22.5857C33.0115 22.6341 33.1569 22.6669 33.3046 22.6837C33.4252 22.6957 33.5466 22.6957 33.6671 22.6837C33.7479 22.6762 33.8278 22.6618 33.9061 22.6407C33.9356 22.6349 33.964 22.6249 33.9907 22.6112C33.9907 22.6004 33.8659 22.634 33.6645 22.6447C33.5461 22.6511 33.4275 22.6466 33.31 22.6313C33.1671 22.6114 33.0264 22.5781 32.8898 22.532C32.7538 22.4825 32.623 22.42 32.4991 22.3453C32.3987 22.283 32.3039 22.212 32.2158 22.1332C32.0574 22.0003 31.9875 21.8969 31.9795 21.9036Z" fill="#263238"/>
<path d="M24.6424 24.4333C25.2359 24.3272 30.7768 23.5377 30.7768 23.5377C30.9537 23.4683 31.1196 23.3738 31.2696 23.2571C32.5141 22.3173 35.9875 19.5542 36.1983 18.8588C36.4426 18.0532 36.1714 17.1818 35.527 16.8341C35.0356 16.5656 34.5348 16.379 33.4849 17.5887C32.4349 18.7983 30.0679 21.399 30.0679 21.399L24.5928 22.7416L24.6424 24.4333Z" fill="#FF8006"/>
<path d="M32.5581 26.7251C32.5581 26.7251 32.5407 26.7331 32.5071 26.7385C32.4574 26.7456 32.4067 26.7386 32.3608 26.7183C32.2265 26.666 32.1299 26.4861 32.099 26.2645C32.0345 25.9813 31.958 25.6241 31.8761 25.2375C31.7754 24.7581 31.6881 24.3245 31.6291 24.009C31.5995 23.8519 31.5767 23.7243 31.5619 23.6357C31.5505 23.5919 31.5456 23.5467 31.5472 23.5015C31.5664 23.5444 31.5804 23.5895 31.5888 23.6357C31.6116 23.723 31.6412 23.8479 31.6774 24.0049C31.7499 24.3164 31.8439 24.7487 31.9459 25.2281C32.0278 25.6147 32.1003 25.9732 32.1554 26.2592C32.1569 26.343 32.1775 26.4254 32.2157 26.5001C32.2538 26.5748 32.3085 26.6398 32.3755 26.6902C32.4338 26.7128 32.4957 26.7246 32.5581 26.7251Z" fill="#263238"/>
<path d="M40.2466 36.4362C40.2137 36.3697 40.1954 36.2969 40.1929 36.2227C40.1746 36.0467 40.1768 35.8692 40.1996 35.6937C40.2452 35.2802 40.3849 34.9674 40.4064 34.9768C40.4278 34.9862 40.3137 35.2963 40.2721 35.7018C40.2507 35.8732 40.2418 36.046 40.2452 36.2187C40.2534 36.2909 40.2539 36.3638 40.2466 36.4362Z" fill="#455A64"/>
<path d="M32.9641 14.4011C32.8231 14.5757 32.8647 14.6414 32.9291 14.8563C32.9936 15.0711 33.0916 15.2846 33.0755 15.5088C33.05 15.8605 32.7466 16.1519 32.7466 16.505C32.7466 16.7655 32.913 17.0071 32.8983 17.2662C32.8808 17.5697 32.6297 17.8033 32.4284 18.0248C32.227 18.2463 31.8913 18.915 32.0484 19.1727C32.5854 18.6129 33.3145 17.8973 33.7763 17.3401C34.2382 16.7829 34.5819 16.0713 34.4812 15.3557L32.9641 14.4011Z" fill="#263238"/>
<path d="M36.1275 17.3322C36.1289 17.2778 36.1339 17.2235 36.1423 17.1697C36.1551 17.0232 36.1424 16.8755 36.1047 16.7334C36.0786 16.6377 36.0368 16.5469 35.9812 16.4648C35.9157 16.3709 35.8338 16.2895 35.7395 16.2245C35.5094 16.089 35.2593 15.9906 34.9984 15.9332C34.7289 15.8755 34.4723 15.769 34.2412 15.619C34.0567 15.4836 33.9229 15.2903 33.8612 15.0699C33.8188 14.9251 33.7971 14.775 33.7968 14.6241C33.7923 14.5688 33.7959 14.5132 33.8075 14.459C33.8169 14.5131 33.8223 14.5679 33.8236 14.6228C33.8343 14.7698 33.8627 14.9149 33.9082 15.0551C33.9732 15.2619 34.1038 15.4419 34.2801 15.568C34.5063 15.7101 34.7558 15.811 35.0172 15.866C35.2857 15.9252 35.5425 16.0287 35.7771 16.1722C35.8766 16.2426 35.9622 16.3309 36.0295 16.4326C36.0865 16.5223 36.1282 16.6207 36.153 16.724C36.1883 16.8718 36.1938 17.0251 36.1692 17.1751C36.1632 17.2292 36.1492 17.2822 36.1275 17.3322Z" fill="#455A64"/>
<path d="M33.705 12.5484C33.6589 12.5288 33.6141 12.5064 33.5708 12.4813C33.4407 12.4247 33.3059 12.3798 33.168 12.347C32.9641 12.3 32.7573 12.2664 32.549 12.2463C32.2912 12.2321 32.0343 12.2034 31.7797 12.1604C31.3148 12.0679 30.8724 11.8855 30.4774 11.6233C30.3584 11.5447 30.245 11.4581 30.1377 11.3642C30.0625 11.2957 30.0236 11.2568 30.0276 11.2528C30.0317 11.2487 30.1995 11.3951 30.5043 11.5817C30.9005 11.8252 31.337 11.9961 31.7932 12.0865C32.0617 12.1443 32.3181 12.1469 32.5571 12.1765C32.7674 12.2004 32.9756 12.2399 33.1801 12.2946C33.3199 12.3295 33.4551 12.3808 33.5828 12.4477C33.6172 12.4665 33.65 12.488 33.6809 12.5121C33.6956 12.5376 33.7064 12.547 33.705 12.5484Z" fill="#455A64"/>
<path d="M20.0907 28.0834C19.9676 28.0207 19.8402 27.9669 19.7094 27.9223C19.4867 27.8337 19.2757 27.7183 19.0811 27.5786V27.6578C19.1591 28.0711 19.3927 28.4387 19.7336 28.6849C19.8128 28.7477 19.9043 28.7935 20.0021 28.8192C20.0608 28.8383 20.1239 28.8395 20.1833 28.8227C20.2428 28.8059 20.2959 28.7718 20.3359 28.7248C20.3759 28.6777 20.401 28.6198 20.408 28.5585C20.415 28.4971 20.4037 28.435 20.3753 28.3801C20.3185 28.2507 20.2177 28.1455 20.0907 28.0834Z" fill="#F5F5F5"/>
<path d="M21.3643 23.4798C21.3643 23.4798 22.9848 22.0392 23.7434 23.5268C23.7434 23.5268 23.977 23.7954 23.6413 24.6009C23.3057 25.4065 22.6115 26.8082 22.6115 26.8082L22.3981 26.3248C22.3981 26.3248 23.3151 24.6049 23.4171 24.2559C23.5191 23.9068 23.5017 23.6154 23.4265 23.461C23.3352 23.2758 23.0895 22.9831 22.5927 23.1429C21.5992 23.4651 21.5616 23.9954 21.5616 23.9954L21.3643 23.4798Z" fill="#FF8006"/>
<path d="M23.3508 28.4046C23.3508 28.4046 21.8149 29.907 19.6224 29.5432L18.5752 24.3527L21.353 23.3618L23.3508 28.4046Z" fill="#FF8006"/>
<path d="M19.7369 28.7831L16.8355 27.2807C16.6705 27.4335 16.4725 27.5461 16.2568 27.6097L16.9469 26.1973C17.02 26.4094 17.0398 26.6362 17.0047 26.8578L19.4079 27.8822L19.7369 28.7831Z" fill="#FF8006"/>
<path d="M24.5685 23.0718L23.4635 22.6073L22.2552 22.5146C22.2552 22.5146 22.1545 22.8127 22.5908 22.8369L23.1144 22.908L23.2151 23.1578C23.2151 23.1578 23.7522 23.9123 24.4074 23.8371L24.5685 23.0718Z" fill="#FFBE9D"/>
<path d="M24.597 22.9347L23.6974 22.8904L23.1268 22.9092C22.9147 22.9696 22.7415 23.0985 22.477 23.1777C22.3956 23.2013 22.3179 23.2361 22.2461 23.2811C22.2101 23.3023 22.1805 23.3328 22.1604 23.3695C22.1404 23.4061 22.1305 23.4474 22.132 23.4892C22.1344 23.5097 22.1411 23.5294 22.1518 23.5471C22.1625 23.5647 22.1769 23.5799 22.194 23.5914C22.211 23.603 22.2304 23.6108 22.2508 23.6143C22.2711 23.6177 22.292 23.6167 22.3119 23.6114C22.3036 23.65 22.3031 23.6899 22.3103 23.7287C22.3175 23.7675 22.3324 23.8045 22.354 23.8376C22.3756 23.8707 22.4035 23.8991 22.4361 23.9214C22.4688 23.9436 22.5055 23.9592 22.5442 23.9672C22.5307 23.9887 22.5225 24.0132 22.5204 24.0385C22.5183 24.0639 22.5223 24.0894 22.532 24.1129C22.5417 24.1364 22.5569 24.1572 22.5763 24.1737C22.5957 24.1901 22.6187 24.2017 22.6435 24.2075C22.6757 24.2075 22.712 24.2075 22.7388 24.2276C22.7657 24.2478 22.7684 24.3055 22.7805 24.3471C22.8113 24.4545 22.951 24.4814 23.0611 24.4626C23.1661 24.426 23.2761 24.4061 23.3873 24.4035C23.5041 24.4196 23.5994 24.5082 23.7136 24.5378C23.7969 24.5458 23.8811 24.5341 23.9591 24.5038C24.0372 24.4735 24.1072 24.4254 24.1633 24.3632C24.2986 24.2373 24.4574 24.1392 24.6306 24.0746L24.597 22.9347Z" fill="#FFBE9D"/>
<path d="M19.6318 29.5299C19.608 29.4644 19.5896 29.397 19.5768 29.3285C19.5459 29.1862 19.5029 29.0009 19.4533 28.7767C19.3512 28.3094 19.2156 27.6636 19.0693 26.9494C18.9229 26.2351 18.8008 25.588 18.7054 25.1181C18.6651 24.8925 18.6302 24.7059 18.6034 24.5622C18.5883 24.4942 18.5789 24.425 18.5752 24.3555C18.5997 24.4203 18.6182 24.4873 18.6302 24.5555C18.6625 24.6992 18.7041 24.8845 18.7551 25.1087C18.8558 25.5746 18.9927 26.2217 19.1377 26.936C19.2827 27.6502 19.4063 28.2974 19.5016 28.7673C19.5432 28.9928 19.5781 29.1794 19.6036 29.3245C19.6196 29.3919 19.629 29.4607 19.6318 29.5299Z" fill="#263238"/>
<path d="M23.3508 28.4044C23.3334 28.4044 22.8715 27.2887 22.3197 25.8978C21.7679 24.5069 21.3356 23.3724 21.353 23.3643C21.3705 23.3562 21.8324 24.48 22.3842 25.8723C22.936 27.2646 23.3683 28.3977 23.3508 28.4044Z" fill="#263238"/>
<path d="M21.385 23.4036C21.3646 23.4391 21.3393 23.4717 21.3098 23.5002C21.2351 23.5839 21.1543 23.662 21.0682 23.7338C20.9427 23.8422 20.808 23.9393 20.6654 24.0238C20.4889 24.1267 20.3033 24.213 20.1109 24.2816C19.9171 24.3481 19.7175 24.3962 19.5148 24.4253C19.3494 24.4485 19.1823 24.4575 19.0153 24.4521C18.9032 24.4496 18.7914 24.4384 18.681 24.4186C18.64 24.415 18.5998 24.4055 18.5615 24.3904C18.5615 24.377 18.7361 24.4051 19.0167 24.4025C19.1803 24.4007 19.3436 24.3872 19.5054 24.3622C19.7009 24.3296 19.8934 24.2815 20.0814 24.2185C20.2699 24.1511 20.4527 24.0685 20.6278 23.9715C20.7706 23.892 20.9075 23.8023 21.0373 23.703C21.2575 23.5231 21.3756 23.3942 21.385 23.4036Z" fill="#263238"/>
<path d="M16.9467 26.2026C16.9719 26.2815 16.9801 26.3647 16.9709 26.447C16.96 26.6466 16.9079 26.8418 16.8178 27.0203C16.7288 27.1987 16.6067 27.3586 16.458 27.4915C16.4 27.5499 16.3305 27.5956 16.2539 27.6258C16.4526 27.4392 16.6215 27.2232 16.7547 26.9854C16.8405 26.8139 16.8968 26.6291 16.9212 26.4389C16.9244 26.3597 16.9329 26.2807 16.9467 26.2026Z" fill="#263238"/>
<path d="M15.7811 26.9358C15.736 26.9289 15.6899 26.9317 15.6459 26.944C15.6019 26.9562 15.5611 26.9777 15.526 27.007C15.5095 27.0222 15.4963 27.0407 15.4873 27.0612C15.4783 27.0818 15.4736 27.104 15.4736 27.1265C15.4736 27.1489 15.4783 27.1711 15.4873 27.1917C15.4963 27.2123 15.5095 27.2307 15.526 27.246C15.5999 27.2983 15.7019 27.2567 15.7798 27.2097C15.8888 27.1411 15.9924 27.0643 16.0899 26.9801C15.9884 26.9569 15.8851 26.9421 15.7811 26.9358Z" fill="#455A64"/>
<path d="M15.2364 26.6714C15.2018 26.666 15.1665 26.668 15.1327 26.6773C15.0989 26.6865 15.0674 26.7028 15.0404 26.7251C15.0277 26.7368 15.0175 26.751 15.0105 26.7668C15.0036 26.7827 15 26.7998 15 26.8171C15 26.8344 15.0036 26.8515 15.0105 26.8673C15.0175 26.8831 15.0277 26.8973 15.0404 26.909C15.0968 26.9493 15.1747 26.9171 15.2351 26.8808C15.3185 26.8281 15.3979 26.7693 15.4727 26.705C15.3951 26.687 15.316 26.6758 15.2364 26.6714Z" fill="#455A64"/>
<path d="M16.2416 26.2859C16.2083 26.2311 16.1639 26.1839 16.1111 26.1473C16.0584 26.1108 15.9986 26.0857 15.9355 26.0738C15.9041 26.0699 15.8722 26.0725 15.8418 26.0815C15.8114 26.0905 15.7832 26.1057 15.759 26.1261C15.7348 26.1466 15.7151 26.1718 15.7011 26.2002C15.6871 26.2286 15.6792 26.2596 15.6777 26.2913C15.6885 26.4175 15.8254 26.49 15.9463 26.5316C16.1182 26.5892 16.2941 26.634 16.4726 26.6659C16.4069 26.5327 16.3296 26.4056 16.2416 26.2859Z" fill="#455A64"/>
<path d="M34.2129 20.7921C34.1359 20.6875 34.0642 20.579 33.9981 20.4672C33.657 19.9445 33.2185 19.4924 32.7065 19.1353C32.5972 19.066 32.4914 18.9912 32.3896 18.9111C32.5118 18.9579 32.6278 19.0197 32.7347 19.0951C33.2691 19.4344 33.7165 19.8942 34.0411 20.4377C34.1139 20.5476 34.1717 20.6668 34.2129 20.7921Z" fill="white"/>
<path d="M35.8325 19.2629C35.8231 19.2629 35.7439 19.1287 35.5962 18.9165C35.4042 18.6408 35.1847 18.3853 34.941 18.1539C34.6955 17.9236 34.4254 17.721 34.1355 17.5498C33.9126 17.4155 33.7663 17.3524 33.7716 17.3403C33.8094 17.3464 33.8461 17.3582 33.8804 17.3752C33.9761 17.4143 34.0694 17.4591 34.1596 17.5095C34.4599 17.671 34.7376 17.8714 34.9853 18.1056C35.2327 18.3397 35.45 18.6035 35.6325 18.891C35.6884 18.9776 35.7395 19.0673 35.7855 19.1596C35.8068 19.1912 35.8227 19.2261 35.8325 19.2629Z" fill="white"/>
<path d="M32.2144 22.4732C32.0056 22.1455 31.776 21.8316 31.527 21.5333C31.0974 21.0527 30.6624 20.752 30.6771 20.7278C30.7807 20.7789 30.8776 20.8425 30.9658 20.9171C31.1883 21.085 31.3938 21.2743 31.5794 21.4823C31.765 21.6883 31.9284 21.9133 32.0667 22.1536C32.131 22.2525 32.1808 22.3601 32.2144 22.4732Z" fill="white"/>
<path d="M29.0179 23.7539C28.9974 23.6563 28.9871 23.5569 28.987 23.4572C28.9723 23.245 28.9562 23.0047 28.9387 22.7389C28.9212 22.4731 28.8957 22.2327 28.8783 22.0219C28.8629 21.9234 28.858 21.8235 28.8635 21.7239C28.8971 21.8183 28.9183 21.9167 28.9266 22.0166C28.9562 22.1992 28.987 22.4529 29.0085 22.7335C29.03 23.0141 29.0367 23.2706 29.0367 23.4545C29.0429 23.5547 29.0366 23.6553 29.0179 23.7539Z" fill="white"/>
<path d="M26.1672 24.2735C26.1349 24.1845 26.1155 24.0913 26.1095 23.9969C26.0787 23.7743 26.0607 23.5502 26.0558 23.3256C26.0496 23.0984 26.0572 22.8711 26.0786 22.6449C26.0811 22.5507 26.096 22.4572 26.1229 22.3669C26.1444 22.3669 26.1122 22.7966 26.1229 23.3229C26.1337 23.8492 26.1874 24.2708 26.1672 24.2735Z" fill="white"/>
<path d="M28.731 28.2462C28.4485 28.1333 28.1751 27.9986 27.9134 27.8434C27.6398 27.7094 27.3772 27.5541 27.1279 27.3789C27.4103 27.4922 27.6837 27.6269 27.9456 27.7817C28.2185 27.9169 28.481 28.0722 28.731 28.2462Z" fill="white"/>
<path d="M30.2083 26.2992C29.9279 26.1516 29.6587 25.9838 29.4027 25.7971C29.1334 25.629 28.8767 25.4414 28.6348 25.2358C29.1852 25.5503 29.7112 25.9057 30.2083 26.2992Z" fill="white"/>
<path d="M31.5383 24.499C31.5235 24.5124 31.302 24.2882 31.0012 24.0425C30.7005 23.7968 30.4427 23.621 30.4534 23.6035C30.878 23.8153 31.2482 24.1216 31.5356 24.499H31.5383Z" fill="white"/>
<path d="M36.5038 23.6814C36.448 23.7123 36.3891 23.737 36.3279 23.7552L35.8419 23.9351C35.4311 24.0855 34.8645 24.2936 34.2415 24.5313C33.6186 24.7689 33.056 24.9931 32.6492 25.1542L32.1672 25.3449C32.1097 25.372 32.0494 25.3928 31.9873 25.4067C32.0411 25.3731 32.0977 25.3444 32.1565 25.3207C32.2679 25.2684 32.425 25.1959 32.6304 25.1086C33.0332 24.9354 33.5917 24.7058 34.216 24.4655C34.8403 24.2252 35.4109 24.0264 35.8272 23.8882C36.0353 23.8197 36.2031 23.7646 36.3212 23.7297C36.3806 23.7085 36.4417 23.6923 36.5038 23.6814Z" fill="white"/>
<path d="M36.432 22.0847C36.3735 22.1163 36.3124 22.1428 36.2494 22.1639C36.1299 22.2109 35.9554 22.2754 35.7392 22.3519C35.3069 22.5036 34.7041 22.6969 34.0314 22.8889C33.3588 23.0809 32.7466 23.2394 32.3022 23.3481C32.0793 23.4032 31.8994 23.4448 31.7732 23.4716C31.7089 23.4887 31.6433 23.5008 31.5771 23.5079C31.6381 23.4809 31.7015 23.4598 31.7665 23.4448L32.2887 23.2998C32.7305 23.1803 33.3413 23.0138 34.0126 22.8218C34.684 22.6298 35.2881 22.4445 35.7245 22.3049L36.24 22.1384C36.3024 22.115 36.3666 22.0971 36.432 22.0847Z" fill="white"/>
<path d="M36.3379 20.6738C36.2218 20.7389 36.0989 20.7911 35.9714 20.8296C35.6698 20.9375 35.3612 21.0245 35.0477 21.09C34.7342 21.1561 34.4166 21.201 34.0971 21.2243C33.9633 21.2398 33.8281 21.2398 33.6943 21.2243C33.8243 21.1991 33.9557 21.1816 34.0877 21.1719C34.3294 21.1437 34.6637 21.0954 35.0275 21.0189C35.3914 20.9424 35.7176 20.8524 35.9513 20.7799C36.0773 20.7347 36.2065 20.6993 36.3379 20.6738Z" fill="white"/>
<g opacity="0.3">
<path opacity="0.3" d="M31.6646 23.9418C31.6338 23.6733 31.5519 23.3591 31.3008 23.2517C30.7026 23.4784 30.0826 23.6426 29.4507 23.7418L29.4346 23.7619C29.5447 23.909 29.694 24.0223 29.8654 24.0888C30.0368 24.1552 30.2234 24.1722 30.4039 24.1378C30.5218 24.096 30.6472 24.08 30.7718 24.0908C30.8475 24.1193 30.9158 24.1645 30.9716 24.2231C31.0274 24.2817 31.0693 24.3521 31.094 24.4292C31.1578 24.5938 31.2584 24.7417 31.3881 24.8615L31.7197 24.4332C31.7626 24.2681 31.6848 24.1096 31.6646 23.9418Z" fill="black"/>
</g>
<path d="M26.0066 29.5888L24.625 29.2813L23.6382 29.5123C23.6382 29.5123 23.5657 29.6734 23.806 29.7244L24.3296 29.6882L23.8315 29.9567C23.8315 29.9567 23.8651 30.1446 24.1001 30.1017C24.2486 30.0727 24.3903 30.0157 24.5176 29.9339L25.3366 30.1514C25.3366 30.1514 24.531 30.526 24.5928 30.7153C24.6545 30.9046 24.7351 30.8979 24.8412 30.8723C24.9472 30.8468 25.0614 30.671 25.2815 30.6763C25.5017 30.6817 25.8951 30.6065 26.3086 30.5595C26.6658 30.5192 27.3317 29.5875 27.3317 29.5875L26.3771 29.0383L26.0066 29.5888Z" fill="#FFBE9D"/>
<path d="M25.2328 29.6868C25.0691 29.6791 24.9073 29.6484 24.7521 29.5955C24.6969 29.5752 24.639 29.5629 24.5803 29.5593C24.5324 29.5664 24.4866 29.5838 24.446 29.6103C24.3749 29.6559 24.3346 29.6935 24.3265 29.6868C24.3185 29.6801 24.3467 29.6304 24.4178 29.57C24.4607 29.5328 24.5125 29.5074 24.5682 29.4962C24.6023 29.4902 24.6373 29.4925 24.6702 29.5029L24.7656 29.527C24.9281 29.5579 25.0854 29.6117 25.2328 29.6868Z" fill="#EB996E"/>
</svg>
