<svg width="361" height="381" viewBox="0 0 361 381" fill="none" xmlns="http://www.w3.org/2000/svg">
<g clip-path="url(#clip0_11071_106507)">
<rect width="360" height="380" transform="translate(0.632812 0.351562)" fill="#E1E9FE"/>
<path d="M335.31 206.835L334.249 231.978C334.174 233.781 333.608 235.53 332.614 237.036C331.62 238.543 330.234 239.75 328.605 240.528C326.823 241.377 325.083 242.194 324.266 242.544C322.314 243.456 320.384 244.22 318.453 244.974C314.559 246.491 310.698 247.87 306.709 249.132L303.112 239.786C306.369 238.661 319.376 233.866 323.885 232.084L329.677 206.325C329.168 205.689 335.31 206.835 335.31 206.835Z" fill="#EBB376"/>
<path d="M334.801 208.839L337.029 200.426H328.807C328.807 200.426 328.17 205.232 330.928 207.682L334.801 208.839Z" fill="#EBB376"/>
<path d="M335.765 195.725L332.71 195.109C332.116 194.997 331.502 195.106 330.982 195.415C330.463 195.723 330.074 196.211 329.888 196.786L328.827 200.446H337.049L337.495 198.207C337.546 197.93 337.543 197.646 337.484 197.371C337.424 197.095 337.311 196.835 337.15 196.604C336.989 196.373 336.784 196.176 336.546 196.025C336.308 195.874 336.043 195.772 335.765 195.725Z" fill="#EBB376"/>
<path d="M296.628 239.489C299.344 235.309 318.631 234.789 318.631 234.789L319.501 248.241C319.501 248.241 307.534 251.827 300.299 251.763C294.888 250.522 294.824 243.181 296.628 239.489Z" fill="#FF5C8A"/>
<path d="M296.628 239.489C299.344 235.309 318.631 234.789 318.631 234.789L319.501 248.241C319.501 248.241 307.534 251.827 300.299 251.763C294.888 250.522 294.824 243.181 296.628 239.489Z" fill="#FF5C8A"/>
<path opacity="0.1" d="M296.628 239.489C299.344 235.309 318.631 234.789 318.631 234.789L319.501 248.241C319.501 248.241 307.534 251.827 300.299 251.763C294.888 250.522 294.824 243.181 296.628 239.489Z" fill="white"/>
<path d="M265.174 226.299C265.174 229.482 264.92 226.299 266.914 231.858C268.909 237.417 267.54 243.708 259.286 242.223C251.033 240.738 246.832 242.679 241.347 244.058C235.862 245.438 228.436 240.091 231.968 233.725C235.501 227.36 234.95 223.318 231.968 223.053C226.59 222.554 227.725 212.974 232.149 207.691C235.629 203.543 235.629 203.543 243.543 202.482C268.792 199.098 265.196 223.116 265.174 226.299Z" fill="#1C2D5E"/>
<path d="M251.7 349.84C251.232 351.839 250.549 353.781 249.663 355.633C246.576 362.285 239.892 392.17 239.892 392.17C245.801 410.863 236.03 448.227 235.595 449.798L222.271 450.667C222.112 449.076 221.942 447.304 221.761 445.416C220.425 431.38 221.04 411.574 220.043 394.355C218.388 365.934 229.517 306.429 229.517 306.429L255.328 305.039L259.19 322.013C260.341 326.909 260.259 332.014 258.952 336.871C257.645 341.728 255.153 346.184 251.7 349.84Z" fill="#1C2D5E"/>
<path opacity="0.2" d="M250.163 354.076C246.98 360.865 241.846 375.697 241.846 375.697C244.243 367.782 246.652 346.225 250.439 336.242L250.163 354.076Z" fill="black"/>
<path d="M284.259 449.373L272.123 450.773C271.412 449.245 270.659 447.59 269.842 445.713C262.596 429.364 251.701 408.496 248.974 390.292C244.815 362.464 249.526 305.654 249.526 305.654L274.764 303.129C278.333 311.694 280.005 320.93 279.666 330.203C278.711 363.684 269.768 387.926 269.768 387.926C281.374 404.868 284.196 447.855 284.259 449.373Z" fill="#1C2D5E"/>
<path d="M308.501 236.019C302.79 237.881 296.725 238.389 290.784 237.504C290.784 237.504 279.825 244.124 275.136 246.797C271.572 243.924 269.285 239.761 268.771 235.212C275.136 233.727 282.424 230.894 288.779 229.558C294.083 228.497 308.777 230.788 308.777 230.788L308.501 236.019Z" fill="#CB7A63"/>
<path d="M308.786 230.788C311.067 230.448 314.09 230.31 315.3 230.268C315.64 230.25 315.978 230.339 316.265 230.522C317.167 231.106 319.215 232.4 320.042 232.803C320.429 233.017 320.743 233.341 320.943 233.734C321.144 234.127 321.221 234.572 321.167 235.01L320.954 236.739C320.927 237.163 320.733 237.56 320.416 237.842C320.098 238.124 319.681 238.269 319.257 238.246C317.92 238.14 314.833 238.246 314.833 238.246C314.833 238.246 312.446 237.577 308.468 236.05L308.786 230.788Z" fill="#CB7A63"/>
<path d="M283.08 243.096C283.08 243.096 273.649 248.623 270.445 250.024C263.836 252.92 259.836 244.518 259.921 242.597C259.97 240.978 260.564 239.423 261.608 238.184C265.109 233.145 279.484 230.758 279.484 230.758C280.286 234.976 281.49 239.108 283.08 243.096Z" fill="#FF5C8A"/>
<path opacity="0.2" d="M283.08 243.096C283.08 243.096 273.649 248.623 270.445 250.024C263.836 252.92 259.836 244.518 259.921 242.597C259.97 240.978 260.564 239.423 261.608 238.184C265.109 233.145 279.484 230.758 279.484 230.758C280.286 234.976 281.49 239.108 283.08 243.096Z" fill="black"/>
<path d="M226.177 250.128L217.489 265.988L198.923 283.588C198.923 283.588 194.467 283.429 192.261 284.723L196.759 292.5C198.781 291.834 200.49 290.454 201.565 288.617C201.565 288.617 218.009 284.883 226.825 271.271C230.803 265.139 238.091 255.358 238.314 252.483C238.537 249.608 236.892 245.396 233.455 245.184C230.018 244.972 228.161 246.139 226.177 250.128Z" fill="#CB7A63"/>
<path d="M225.157 247.05L217.274 258.837L232.923 266.741C232.923 266.741 239.054 261.054 240.094 252.79C240.964 245.915 236.445 239.55 230.154 242.001C229.024 242.464 228 243.15 227.142 244.017C226.283 244.885 225.608 245.916 225.157 247.05Z" fill="#FF5C8A"/>
<path opacity="0.2" d="M225.157 247.05L217.274 258.837L232.923 266.741C232.923 266.741 239.054 261.054 240.094 252.79C240.964 245.915 236.445 239.55 230.154 242.001C229.024 242.464 228 243.15 227.142 244.017C226.283 244.885 225.608 245.916 225.157 247.05Z" fill="black"/>
<path d="M192.258 284.648L189.67 286.77C189.169 287.174 188.836 287.749 188.736 288.384C188.636 289.02 188.776 289.67 189.129 290.208L190.678 292.552C190.993 293.053 191.47 293.431 192.029 293.624C192.589 293.817 193.197 293.813 193.754 293.613L196.757 292.552L192.258 284.648Z" fill="#CB7A63"/>
<path d="M266.937 234.406C261.378 236.803 241.72 240.188 235.482 241.153C234.751 241.265 234.063 241.565 233.484 242.025C232.905 242.484 232.457 243.087 232.182 243.773C231.657 244.957 231.069 246.111 230.421 247.232C228.14 251.529 227.079 253.841 225.17 256.971C223.366 259.91 225.117 262.753 225.891 264.864C226.491 266.932 226.604 269.111 226.22 271.229C221.754 314.471 230.973 310.641 230.973 310.641C252.7 310.344 275.658 305.814 275.658 305.814C267.213 280.311 274.088 231.308 266.937 234.406Z" fill="#FF5C8A"/>
<path opacity="0.2" d="M266.937 234.406C261.378 236.803 241.72 240.188 235.482 241.153C234.751 241.265 234.063 241.565 233.484 242.025C232.905 242.484 232.457 243.087 232.182 243.773C231.657 244.957 231.069 246.111 230.421 247.232C228.14 251.529 227.079 253.841 225.17 256.971C223.366 259.91 225.117 262.753 225.891 264.864C226.491 266.932 226.604 269.111 226.22 271.229C221.754 314.471 230.973 310.641 230.973 310.641C252.7 310.344 275.658 305.814 275.658 305.814C267.213 280.311 274.088 231.308 266.937 234.406Z" fill="black"/>
<path d="M242.407 253.982L248.465 250.619C250.866 249.283 252.975 247.481 254.67 245.318C256.364 243.156 257.609 240.677 258.331 238.026C252.348 236.753 251.913 229.995 252.443 224.234L241.951 235.31C243.352 239.31 242.885 238.206 238.673 240.805C238.45 241.092 231.745 247.892 242.407 253.982Z" fill="#CB7A63"/>
<path opacity="0.2" d="M250.618 228.933C250.77 227.25 250.615 225.554 250.162 223.926L246.48 226.758L242.746 230.694C243.277 232.11 243.633 233.585 243.807 235.086C246.894 234.025 250.236 231.702 250.618 228.933Z" fill="black"/>
<path d="M255.392 221.56C253.535 229.177 252.92 232.434 248.316 235.691C241.409 240.582 232.466 236.646 231.999 228.625C231.585 221.422 234.683 210.187 242.767 208.468C244.548 208.083 246.397 208.159 248.14 208.689C249.883 209.219 251.462 210.186 252.727 211.497C253.991 212.809 254.9 214.421 255.366 216.182C255.833 217.943 255.841 219.794 255.392 221.56Z" fill="#CB7A63"/>
<path d="M243.849 206.835C240.189 209.731 243.52 214.77 245.345 217.072C247.17 219.375 253.036 222.95 250.957 226.429C248.878 229.909 251.562 239.807 258.33 238.025C265.099 236.243 262.107 217.2 259.985 212.001C257.863 206.803 248.209 203.387 243.849 206.835Z" fill="#1C2D5E"/>
<path d="M237.94 221.758C237.128 223.087 236.135 224.298 234.99 225.354C235.262 225.639 235.593 225.86 235.959 226.003C236.326 226.146 236.719 226.207 237.112 226.182L237.94 221.758Z" fill="#B74D3C"/>
<path d="M244.74 219.024C244.792 219.033 244.846 219.033 244.899 219.024C244.968 218.981 245.017 218.911 245.035 218.832C245.052 218.752 245.038 218.669 244.994 218.6C244.698 218.097 244.285 217.674 243.79 217.365C243.295 217.057 242.733 216.872 242.151 216.828C242.069 216.831 241.991 216.863 241.933 216.92C241.874 216.977 241.838 217.054 241.833 217.136C241.835 217.215 241.867 217.29 241.922 217.347C241.977 217.404 242.051 217.438 242.13 217.443C242.61 217.49 243.072 217.649 243.479 217.907C243.887 218.165 244.228 218.515 244.475 218.929C244.508 218.965 244.549 218.992 244.596 219.009C244.642 219.025 244.691 219.031 244.74 219.024Z" fill="#1C2D5E"/>
<path d="M233.464 216.751C233.513 216.761 233.563 216.761 233.612 216.751C234.02 216.5 234.481 216.348 234.958 216.308C235.435 216.267 235.915 216.339 236.36 216.517C236.433 216.555 236.519 216.563 236.598 216.54C236.677 216.516 236.744 216.462 236.784 216.39C236.821 216.314 236.826 216.227 236.798 216.147C236.77 216.068 236.712 216.002 236.636 215.966C236.1 215.737 235.517 215.639 234.935 215.682C234.354 215.724 233.791 215.905 233.294 216.21C233.222 216.25 233.168 216.317 233.144 216.396C233.121 216.475 233.129 216.561 233.167 216.634C233.194 216.688 233.237 216.731 233.29 216.76C233.343 216.788 233.404 216.8 233.464 216.793V216.751Z" fill="#1C2D5E"/>
<path d="M242.555 221.518C242.439 222.143 242.014 222.578 241.6 222.515C241.187 222.451 240.953 221.878 241.07 221.252C241.187 220.626 241.611 220.191 242.014 220.191C242.417 220.191 242.661 220.881 242.555 221.518Z" fill="#1C2D5E"/>
<path d="M235.469 220.245C235.352 220.871 234.928 221.306 234.525 221.243C234.122 221.179 233.878 220.617 233.984 219.98C234.09 219.344 234.525 218.919 234.928 218.983C235.331 219.047 235.586 219.619 235.469 220.245Z" fill="#1C2D5E"/>
<path d="M235.098 219.044L233.677 218.344C233.677 218.344 234.239 219.659 235.098 219.044Z" fill="#1C2D5E"/>
<path d="M242.185 220.317L240.764 219.617C240.764 219.617 241.326 220.922 242.185 220.317Z" fill="#1C2D5E"/>
<path d="M255.126 228.361C254.441 229.711 253.252 230.736 251.816 231.215C249.896 231.819 248.867 230.154 249.333 228.287C249.758 226.632 251.264 224.308 253.216 224.499C253.64 224.552 254.045 224.708 254.393 224.955C254.741 225.203 255.023 225.532 255.212 225.915C255.402 226.298 255.493 226.722 255.478 227.149C255.463 227.576 255.342 227.992 255.126 228.361Z" fill="#CB7A63"/>
<path d="M241.611 228.57C241.886 228.419 242.146 228.241 242.386 228.039C242.404 228.023 242.418 228.004 242.428 227.982C242.438 227.96 242.443 227.936 242.443 227.912C242.443 227.888 242.438 227.864 242.428 227.842C242.418 227.82 242.404 227.801 242.386 227.785C242.369 227.766 242.348 227.752 242.326 227.742C242.303 227.732 242.278 227.727 242.253 227.727C242.228 227.727 242.204 227.732 242.181 227.742C242.158 227.752 242.137 227.766 242.121 227.785C241.503 228.286 240.776 228.637 239.999 228.808C239.222 228.979 238.415 228.967 237.644 228.771C237.621 228.761 237.596 228.756 237.571 228.757C237.546 228.758 237.522 228.764 237.5 228.775C237.477 228.786 237.458 228.802 237.442 228.822C237.427 228.841 237.416 228.864 237.41 228.888C237.396 228.934 237.401 228.984 237.423 229.028C237.444 229.071 237.481 229.105 237.527 229.121C238.21 229.31 238.924 229.359 239.626 229.264C240.328 229.169 241.003 228.933 241.611 228.57Z" fill="#1C2D5E"/>
<path d="M270.214 293.242C269.535 302.726 275.698 347.92 280.568 367.684C287.039 393.931 297.542 455.378 297.542 455.378L309.159 453.606C309.159 453.606 308.268 401.156 300.852 380.702C298.974 353.044 294.338 290.961 294.338 290.961L270.214 293.242Z" fill="#1C2D5E"/>
<path opacity="0.2" d="M296.056 321.11C295.631 314.098 290.008 308.454 289.489 321.842C289.16 330.33 293.403 344.736 297.976 354.73C297.244 343.877 296.575 331.794 296.056 321.11Z" fill="black"/>
<path d="M285.774 302.516C285.774 302.516 301.136 360.589 308.902 382.316C314.503 397.985 351.337 434.756 351.337 434.756L358.902 429.207C358.902 429.207 343.434 398.569 324.295 379.197C320.858 354.383 319.097 313.082 307.958 300.5L285.774 302.516Z" fill="#1C2D5E"/>
<path d="M270.297 254.031C266.818 257.702 263.221 261.15 259.487 264.534C255.753 267.918 235.256 281.975 218.971 285.264C218.702 285.341 218.42 285.364 218.141 285.333C217.862 285.301 217.593 285.215 217.347 285.079C217.102 284.943 216.886 284.76 216.711 284.54C216.537 284.321 216.407 284.069 216.33 283.8C216.253 283.53 216.229 283.248 216.261 282.969C216.293 282.691 216.379 282.421 216.515 282.176C216.651 281.93 216.834 281.714 217.053 281.54C217.273 281.365 217.524 281.235 217.794 281.158C222.303 279.376 260.601 251.453 264.038 248.058C264.431 247.627 264.906 247.28 265.436 247.036C265.966 246.793 266.539 246.659 267.122 246.642C267.705 246.626 268.285 246.727 268.828 246.939C269.371 247.152 269.866 247.472 270.282 247.88C270.699 248.288 271.029 248.776 271.253 249.314C271.477 249.852 271.59 250.43 271.585 251.013C271.581 251.597 271.459 252.173 271.226 252.708C270.994 253.242 270.657 253.725 270.234 254.126L270.297 254.031Z" fill="#EBB376"/>
<path d="M218.462 281.221L211.523 280.309L214.282 287.905C214.282 287.905 218.451 287.247 220.212 284.202L218.462 281.221Z" fill="#EBB376"/>
<path d="M264.59 242.702C257.641 244.972 260.972 247.879 256.4 251.603C251.095 255.92 251.732 256.621 251.732 256.621L259.975 265.744C259.975 265.744 270.213 258.042 274.361 255.072C278.509 252.101 269.841 242.521 264.59 242.702Z" fill="#FF5C8A"/>
<path opacity="0.1" d="M264.59 242.702C257.641 244.972 260.972 247.879 256.4 251.603C251.095 255.92 251.732 256.621 251.732 256.621L259.975 265.744C259.975 265.744 270.213 258.042 274.361 255.072C278.509 252.101 269.841 242.521 264.59 242.702Z" fill="black"/>
<path d="M207.026 285.71L208.999 288.522C209.216 288.837 209.532 289.071 209.897 289.186C210.262 289.302 210.656 289.292 211.015 289.158L214.282 287.959L211.524 280.363L207.429 283.313C207.062 283.58 206.814 283.981 206.739 284.429C206.664 284.877 206.766 285.337 207.026 285.71Z" fill="#EBB376"/>
<path d="M260.175 247.697C261.522 263.292 268.45 291.003 269.214 300.487C270.752 319.88 278.38 368.278 278.38 368.278C286.931 368.278 306.112 363.398 315.882 355.961L316.148 340.345L322.343 353.606L324.677 349.023L318.248 322.066C315.882 303.097 303.396 296.604 303.088 293.666C301.945 277.836 302.236 261.936 303.958 246.159C304.077 245.204 304.006 244.236 303.751 243.309C303.495 242.382 303.059 241.514 302.468 240.755C301.877 239.997 301.142 239.362 300.306 238.888C299.469 238.413 298.547 238.108 297.593 237.99C297.37 237.99 297.147 237.99 296.924 237.99C294.856 237.916 292.553 237.884 290.23 237.99C285.019 238.094 279.822 238.565 274.677 239.401C271.07 240.069 267.251 241.035 264.472 241.767C263.183 242.111 262.052 242.889 261.27 243.969C260.487 245.049 260.101 246.365 260.175 247.697Z" fill="#FF5C8A"/>
<g opacity="0.1">
<path opacity="0.1" d="M267.221 288.032C268.218 293.262 268.982 297.676 269.215 300.487C270.753 319.88 278.381 368.278 278.381 368.278C286.932 368.278 306.113 363.398 315.884 355.961L316.149 340.345L322.345 353.606L324.679 349.023L318.25 322.066C315.884 303.097 303.397 296.604 303.089 293.666C301.946 277.836 302.238 261.936 303.959 246.159C304.078 245.204 304.008 244.236 303.752 243.309C303.496 242.382 303.06 241.514 302.469 240.755C301.878 239.997 301.143 239.362 300.307 238.888C299.47 238.413 298.548 238.108 297.594 237.99C297.371 237.99 297.148 237.99 296.926 237.99C294.857 237.916 292.555 237.884 290.231 237.99C279.357 245.851 270.711 249.119 267.656 272.999L267.221 288.032Z" fill="white"/>
</g>
<path d="M287.143 220.551C286.624 225.643 286.464 234.894 290.273 237.907C285.125 240.626 280.501 244.24 276.619 248.579C272.068 242.055 274.72 239.318 274.72 239.318C280.163 237.483 279.654 233.356 278.327 229.558L287.143 220.551Z" fill="#EBB376"/>
<path d="M290.549 237.685C289.26 236.293 288.508 234.488 288.427 232.593C287.155 232.49 285.88 232.742 284.743 233.321C283.606 233.9 282.652 234.782 281.987 235.871C280.534 238.353 280.81 241.43 281.128 244.284C284.204 242.056 287.472 239.913 290.549 237.685Z" fill="#FF5C8A"/>
<path opacity="0.1" d="M290.549 237.685C289.26 236.293 288.508 234.488 288.427 232.593C287.155 232.49 285.88 232.742 284.743 233.321C283.606 233.9 282.652 234.782 281.987 235.871C280.534 238.353 280.81 241.43 281.128 244.284C284.204 242.056 287.472 239.913 290.549 237.685Z" fill="white"/>
<path opacity="0.2" d="M286.19 221.535C286.384 224.515 285.943 227.502 284.895 230.298C284.153 232.229 281.713 233.269 279.22 233.704C279.144 232.284 278.851 230.885 278.35 229.555L286.19 221.535Z" fill="black"/>
<path d="M274.838 203.796C275.663 209.672 275.455 215.646 274.223 221.449L271.295 220.728C271.571 215.901 272.271 210.851 272.547 206.024C271.666 209.483 270.701 213.355 269.82 216.813C269.109 216.591 268.462 216.272 267.698 216.06C268.388 213.259 269.459 210.384 270.138 207.573C270.336 206.43 270.781 205.343 271.443 204.39C271.876 203.949 272.436 203.655 273.045 203.548C273.654 203.442 274.281 203.528 274.838 203.796Z" fill="#FF5C8A"/>
<path d="M265.289 209.063C265.839 209.554 266.488 209.923 267.192 210.144C267.896 210.364 268.638 210.432 269.371 210.342C270.103 210.253 270.807 210.008 271.437 209.623C272.067 209.239 272.607 208.725 273.022 208.115C273.437 207.505 273.716 206.813 273.842 206.086C273.968 205.36 273.937 204.614 273.751 203.9C273.566 203.186 273.229 202.521 272.765 201.947C272.301 201.374 271.72 200.906 271.061 200.575C270.339 200.268 269.551 200.148 268.77 200.226C267.99 200.304 267.241 200.577 266.594 201.021C265.995 201.472 265.503 202.05 265.154 202.714C264.806 203.379 264.609 204.112 264.579 204.861C264.536 206.368 264.229 208.044 265.289 209.063Z" fill="#1C2D5E"/>
<path d="M294.54 213.571C292.842 221.804 292.365 225.315 287.538 228.996C280.345 234.524 270.563 230.683 269.768 222.122C269.025 214.42 271.89 202.251 280.462 200.087C281.915 199.707 283.43 199.617 284.918 199.822C286.407 200.027 287.841 200.524 289.137 201.284C290.434 202.043 291.568 203.051 292.475 204.249C293.382 205.447 294.044 206.813 294.423 208.267C294.882 210.001 294.922 211.819 294.54 213.571Z" fill="#EBB376"/>
<path d="M274.255 221.728C274.255 221.728 276.695 220.837 283.739 219.988C283.188 222.237 281.861 224.158 278.254 224.593C277.395 224.779 276.497 224.616 275.757 224.141C275.017 223.666 274.496 222.916 274.308 222.057C274.284 221.948 274.266 221.839 274.255 221.728Z" fill="#1C2D5E"/>
<path d="M279.695 222.674C278.302 222.763 276.973 223.29 275.897 224.181C276.623 224.54 277.441 224.67 278.242 224.552C279.636 224.463 280.964 223.927 282.029 223.024C281.309 222.662 280.491 222.54 279.695 222.674Z" fill="#9D2724"/>
<path d="M274.562 221.631C274.666 221.884 274.836 222.104 275.055 222.269C275.273 222.433 275.532 222.535 275.804 222.565C277.891 222.3 279.952 221.864 281.968 221.26C282.294 221.186 282.597 221.034 282.851 220.816C283.104 220.597 283.3 220.32 283.421 220.008C280.43 220.315 277.468 220.857 274.562 221.631Z" fill="white"/>
<path d="M279.484 198.77C277.165 199.411 275.089 200.725 273.516 202.545C271.943 204.365 270.945 206.61 270.646 208.997C271.973 208.997 273.426 208.381 274.763 208.339C274.947 207.173 275.369 206.057 276.002 205.061C276.636 204.064 277.467 203.209 278.444 202.546C277.771 203.285 277.255 204.154 276.928 205.098C276.602 206.043 276.471 207.045 276.545 208.042C277.924 208.233 279.229 208.519 280.608 208.7C281.193 206.698 282.158 204.829 283.451 203.194C283.388 205.315 283.515 207.384 283.451 209.559C284.969 210.503 286.581 211.553 288.109 212.508C289.145 209.381 288.991 205.98 287.674 202.96C286.242 199.958 282.635 197.963 279.484 198.77Z" fill="#1C2D5E"/>
<path d="M285.51 200.077C286.221 205.795 288.756 213.211 291.875 217.677C294.549 217.985 297.095 214.93 297.455 211.768C297.604 210.236 297.374 208.691 296.786 207.268C296.198 205.846 295.269 204.59 294.082 203.61C291.811 201.828 288.162 199.653 285.51 200.077Z" fill="#1C2D5E"/>
<path d="M294.093 207.129C293.211 212.998 293.362 218.976 294.538 224.793C295.461 224.581 296.533 224.305 297.466 224.093C297.244 219.266 296.596 214.205 296.405 209.378C297.254 212.847 298.188 216.73 299.026 220.189C299.747 219.976 300.384 219.669 301.095 219.457C300.437 216.656 299.408 213.77 298.75 210.969C298.556 209.828 298.119 208.743 297.466 207.787C297.042 207.34 296.49 207.036 295.885 206.918C295.28 206.8 294.654 206.874 294.093 207.129Z" fill="#FF5C8A"/>
<path d="M303.481 212.506C302.933 213.023 302.28 213.414 301.566 213.652C300.852 213.89 300.094 213.97 299.346 213.886C298.598 213.801 297.878 213.555 297.235 213.163C296.592 212.772 296.042 212.245 295.624 211.619C295.205 210.994 294.928 210.284 294.812 209.54C294.696 208.797 294.743 208.037 294.951 207.313C295.159 206.589 295.522 205.92 296.014 205.351C296.507 204.782 297.118 204.328 297.805 204.019C298.529 203.719 299.317 203.606 300.095 203.692C300.874 203.777 301.619 204.057 302.261 204.507C302.856 204.966 303.341 205.552 303.682 206.222C304.023 206.891 304.212 207.628 304.234 208.379C304.319 209.801 304.605 211.445 303.481 212.506Z" fill="#1C2D5E"/>
<path d="M296.79 217.92C296.631 218.714 296.316 219.468 295.863 220.138C295.409 220.809 294.826 221.382 294.148 221.824C292.334 222.98 290.806 221.527 290.774 219.49C290.774 217.655 291.676 214.843 293.745 214.493C294.469 214.396 295.202 214.59 295.784 215.031C296.366 215.472 296.751 216.125 296.853 216.848C296.896 217.206 296.874 217.569 296.79 217.92Z" fill="#EBB376"/>
<path d="M282.062 214.3C281.967 214.969 281.532 215.478 281.086 215.414C280.641 215.351 280.365 214.746 280.46 214.078C280.556 213.409 280.991 212.9 281.436 213.017C281.882 213.133 282.158 213.621 282.062 214.3Z" fill="#1C2D5E"/>
<path d="M274.424 213.23C274.328 213.919 273.893 214.407 273.448 214.291C273.002 214.174 272.726 213.643 272.822 212.954C272.917 212.264 273.352 211.787 273.787 211.84C274.222 211.893 274.519 212.561 274.424 213.23Z" fill="#1C2D5E"/>
<path d="M273.979 211.97L272.42 211.27C272.42 211.27 273.078 212.659 273.979 211.97Z" fill="#1C2D5E"/>
<path d="M276.249 214.633C275.435 216.093 274.425 217.435 273.247 218.622C273.557 218.915 273.928 219.137 274.333 219.273C274.738 219.408 275.167 219.454 275.592 219.407L276.249 214.633Z" fill="#ED893E"/>
<path d="M284.133 211.944C284.074 211.906 284.023 211.855 283.985 211.796C283.752 211.35 283.418 210.966 283.008 210.675C282.599 210.383 282.126 210.193 281.629 210.119C281.525 210.109 281.429 210.059 281.36 209.98C281.291 209.901 281.255 209.8 281.258 209.695C281.261 209.642 281.274 209.59 281.297 209.542C281.32 209.494 281.352 209.451 281.391 209.416C281.43 209.38 281.476 209.353 281.526 209.335C281.576 209.318 281.629 209.31 281.682 209.313C282.317 209.401 282.922 209.639 283.446 210.008C283.97 210.378 284.399 210.867 284.695 211.435C284.744 211.532 284.752 211.644 284.718 211.748C284.684 211.851 284.611 211.937 284.515 211.987C284.453 212.014 284.385 212.024 284.318 212.017C284.251 212.009 284.187 211.984 284.133 211.944Z" fill="#1C2D5E"/>
<path d="M271.984 210.205H271.92C271.838 210.139 271.785 210.042 271.773 209.937C271.761 209.832 271.791 209.726 271.856 209.643C272.266 209.166 272.781 208.791 273.362 208.55C273.942 208.308 274.571 208.207 275.198 208.253C275.302 208.269 275.395 208.324 275.458 208.407C275.521 208.49 275.55 208.595 275.538 208.699C275.522 208.804 275.465 208.899 275.38 208.963C275.294 209.026 275.187 209.053 275.082 209.038C274.58 209.002 274.078 209.085 273.615 209.281C273.152 209.476 272.742 209.778 272.419 210.163C272.36 210.215 272.286 210.247 272.208 210.255C272.13 210.262 272.051 210.245 271.984 210.205Z" fill="#1C2D5E"/>
<path d="M281.628 213.028L280.058 212.328C280.058 212.328 280.715 213.729 281.628 213.028Z" fill="#1C2D5E"/>
<path d="M281.054 244.507C279.201 245.956 277.511 247.603 276.015 249.419C275.739 249.748 275.474 250.109 275.198 250.48C272.705 247.594 272.228 243.287 273.246 239.553C274.359 239.394 275.387 238.868 276.167 238.059C276.947 237.25 277.435 236.204 277.554 235.086C278.211 234.821 278.88 235.394 279.346 235.925C279.787 236.492 280.082 237.159 280.206 237.866C280.752 240.038 281.037 242.268 281.054 244.507Z" fill="#FF5C8A"/>
<path d="M176.11 276.164L183.218 284.386L187.77 289.457C188.06 289.773 188.283 290.144 188.427 290.548C188.57 290.952 188.63 291.382 188.603 291.81C188.576 292.238 188.463 292.656 188.271 293.039C188.078 293.422 187.81 293.763 187.483 294.04L186.274 295.101C185.645 295.646 184.846 295.953 184.014 295.971H182.741C182.094 295.991 181.453 295.831 180.891 295.509C180.33 295.187 179.868 294.715 179.558 294.146L177.935 291.07C177.76 290.739 177.646 290.38 177.596 290.009L177.086 285.967L171.294 280.535L176.11 276.164Z" fill="#71403E"/>
<path d="M182.602 281.755L174.624 285.999C174.624 285.999 166.01 274.329 156.95 260.537C153.767 255.625 147.306 246.576 147.306 246.576C143.063 237.983 137.27 217.805 138.395 217.805C145.821 217.805 150.425 221.444 157.014 235.118C160.705 242.884 182.602 281.755 182.602 281.755Z" fill="#FF5C8A"/>
<path d="M151.276 289.618C151.276 289.618 164.335 369.185 165.768 382.499C167.2 395.813 172.324 444.455 172.324 444.455L160.548 446.576C160.548 446.576 145.324 410.389 146.587 386.403C146.587 386.403 133.347 340.477 129.167 330.42C129.167 330.42 116.712 313.732 121.55 288.652L151.276 289.618Z" fill="#1C2D5E"/>
<path opacity="0.2" d="M140.687 363.771C138.279 356.09 135.977 349.088 134.523 345.609C132.417 344.536 130.468 343.18 128.731 341.577C128.062 338.617 127.67 336.718 127.67 336.718L133.314 312.742C133.314 312.742 141.016 339.498 140.687 363.771Z" fill="black"/>
<path d="M134.237 291.621L134.683 334.513L136.126 355.2C137.443 374.179 137.259 393.231 135.574 412.181L132.391 448.325L119.661 449.768C119.661 449.768 112.139 406.675 117.252 385.128C117.252 385.128 103.461 325.718 105.211 291.621H134.237Z" fill="#1C2D5E"/>
<path d="M106.514 299.279L100.976 229.78C99.1942 216.901 101.486 212.329 106.355 213.411L138.394 217.898C146.361 220.02 147.592 224.136 147.878 227.446C147.374 248.227 148.321 269.018 150.711 289.668L151.507 296.638L106.514 299.279Z" fill="#FF5C8A"/>
<path d="M120.827 198.039C120.891 202.993 120.307 211.449 117.125 215.385C116.758 215.846 116.559 216.418 116.559 217.008C116.559 217.597 116.758 218.169 117.125 218.631C119.677 222.195 123.455 224.692 127.734 225.643C133.229 226.863 134.163 223.957 133.505 221.4C133.414 221.067 133.258 220.755 133.045 220.484C132.831 220.212 132.566 219.986 132.264 219.819C127.341 217.178 127.819 212.531 129.548 208.712L120.827 198.039Z" fill="#71403E"/>
<path opacity="0.2" d="M124.372 202.43L129.56 208.742C129.146 209.68 128.815 210.653 128.573 211.649C127.27 211.168 126.105 210.375 125.181 209.339C124.256 208.303 123.599 207.056 123.269 205.708C122.972 204.021 123.746 202.504 124.372 202.43Z" fill="black"/>
<path d="M120.222 189.849C119.84 197.275 119.246 201.668 122.567 205.879C127.542 212.245 137.091 209.858 139.679 202.697C142.024 196.183 142.236 185.096 135.319 181.33C133.8 180.492 132.092 180.056 130.358 180.063C128.623 180.069 126.919 180.519 125.407 181.369C123.895 182.219 122.625 183.442 121.717 184.92C120.81 186.399 120.296 188.084 120.222 189.817V189.849Z" fill="#71403E"/>
<path d="M133.831 206.144L131.2 205.762C131.529 206.674 131.816 207.618 132.144 208.531C132.781 207.703 133.195 206.939 133.831 206.144Z" fill="#1C2D5E"/>
<path d="M131.616 193.295C131.553 193.9 131.807 194.43 132.21 194.473C132.613 194.515 132.974 194.059 133.038 193.412C133.101 192.765 132.847 192.287 132.444 192.245C132.041 192.202 131.616 192.69 131.616 193.295Z" fill="#1C2D5E"/>
<path d="M138.406 194.064C138.332 194.668 138.597 195.188 139 195.231C139.403 195.273 139.764 194.827 139.828 194.17C139.891 193.512 139.637 193.045 139.234 193.003C138.83 192.96 138.47 193.416 138.406 194.064Z" fill="#1C2D5E"/>
<path d="M135.997 194.168C136.682 196.038 137.621 197.805 138.788 199.419C138.365 199.706 137.886 199.898 137.382 199.982C136.879 200.067 136.363 200.041 135.87 199.907L135.997 194.168Z" fill="#561616"/>
<path d="M129.557 190.233C129.496 190.232 129.438 190.214 129.387 190.18C129.322 190.111 129.286 190.02 129.286 189.926C129.286 189.831 129.322 189.74 129.387 189.671C129.771 189.254 130.247 188.934 130.778 188.736C131.31 188.539 131.88 188.47 132.443 188.536C132.535 188.554 132.616 188.607 132.67 188.685C132.723 188.762 132.745 188.857 132.729 188.95C132.721 188.996 132.704 189.04 132.679 189.08C132.654 189.12 132.621 189.154 132.583 189.181C132.544 189.207 132.501 189.226 132.455 189.235C132.409 189.245 132.361 189.245 132.315 189.236C131.869 189.19 131.417 189.25 130.999 189.412C130.58 189.575 130.206 189.834 129.907 190.17C129.861 190.213 129.803 190.242 129.741 190.253C129.679 190.264 129.615 190.257 129.557 190.233Z" fill="#1C2D5E"/>
<path d="M141.367 191.61C141.309 191.594 141.255 191.565 141.211 191.525C141.166 191.484 141.133 191.433 141.112 191.376C140.976 190.955 140.743 190.571 140.432 190.256C140.12 189.941 139.739 189.703 139.319 189.562C139.234 189.54 139.16 189.488 139.11 189.417C139.059 189.345 139.036 189.257 139.043 189.17C139.066 189.077 139.125 188.997 139.206 188.947C139.288 188.898 139.386 188.882 139.478 188.905C140.019 189.076 140.511 189.373 140.915 189.772C141.319 190.17 141.623 190.658 141.802 191.196C141.832 191.283 141.827 191.379 141.788 191.463C141.748 191.546 141.677 191.61 141.59 191.642C141.514 191.656 141.436 191.645 141.367 191.61Z" fill="#1C2D5E"/>
<path d="M119.036 197.405C116.132 191.323 115.258 184.469 116.543 177.853C120.761 175.29 125.7 174.172 130.61 174.67C135.406 175.339 138.419 174.67 141.792 178.171C141.792 178.171 140.859 184.261 139.861 186.17C138.183 185.639 136.466 185.234 134.727 184.961C131.221 184.591 127.678 184.809 124.245 185.608C124.5 187.518 125.009 189.661 125.253 191.57C124.758 191.535 124.261 191.612 123.8 191.795C123.339 191.979 122.925 192.265 122.59 192.631C122.855 194.997 122.144 197.384 122.41 199.76C121.519 199.018 119.545 198.445 119.036 197.405Z" fill="#1C2D5E"/>
<path d="M115.821 196.353C116.644 198.044 118.1 199.344 119.874 199.97C122.239 200.755 123.555 198.687 123.056 196.395C122.568 194.326 120.754 191.42 118.335 191.611C115.916 191.801 114.845 194.263 115.821 196.353Z" fill="#71403E"/>
<path d="M137.207 202.4C134.288 201.755 131.322 201.347 128.338 201.18C128.879 202.898 130.163 204.362 133.504 204.649C136.846 204.935 137.207 202.4 137.207 202.4Z" fill="#1C2D5E"/>
<path d="M136.921 202.324C136.688 202.663 136.348 203.66 135.627 203.724C133.688 203.544 131.764 203.236 129.866 202.801C129.272 202.663 128.911 201.793 128.625 201.199C131.411 201.398 134.182 201.774 136.921 202.324Z" fill="white"/>
<path d="M157.535 272.59L165.385 278.849L170.382 282.69C171.013 283.18 171.431 283.893 171.552 284.682C171.672 285.472 171.485 286.277 171.029 286.933L170.18 288.132C169.741 288.744 169.098 289.18 168.366 289.363L167.305 289.628C166.729 289.773 166.123 289.75 165.559 289.562C164.995 289.374 164.497 289.029 164.123 288.567L162.096 286.031C161.876 285.747 161.704 285.428 161.587 285.087L160.314 281.469L154.15 277.544L157.535 272.59Z" fill="#EEC1BB"/>
<path d="M96.0127 298.57C96.0127 298.57 105.274 363.709 106.707 377.002C108.139 390.295 115.321 445.387 115.321 445.387L104.553 447.509C104.553 447.509 91.2387 407.439 88.7456 380.895C88.7456 380.895 77.3517 341.398 73.1718 331.352C73.1718 331.352 60.7169 316.892 65.5546 291.812L96.0127 298.57Z" fill="#1C2D5E"/>
<path opacity="0.2" d="M79.3365 349.533C76.9389 341.863 74.6261 334.85 73.1727 331.371C71.0663 330.298 69.1173 328.942 67.3802 327.339C66.7119 324.379 66.3193 322.491 66.3193 322.491L74.8807 310.418C74.8807 310.418 76.663 335.572 79.3365 349.533Z" fill="black"/>
<path d="M75.666 294.07C75.666 294.07 72.6 370.889 66.3089 387.428C60.0178 403.967 38.4924 446.509 38.4924 446.509L28.4033 441.82C28.4033 441.82 39.9034 392.096 49.2392 380.596L47.2978 326.756C47.2978 326.756 39.5957 301.379 46.8522 287.715L75.666 294.07Z" fill="#1C2D5E"/>
<path d="M161.714 274.859L156.781 280.991L111.661 249.048L105.741 245.155L104.298 244.21C102.933 243.167 101.883 241.767 101.263 240.164C100.644 238.562 100.479 236.819 100.787 235.129C101.317 231.798 103.492 230.376 105.338 227.958C105.648 227.574 106.042 227.267 106.49 227.062C106.939 226.857 107.429 226.759 107.921 226.775C108.414 226.792 108.896 226.922 109.33 227.157C109.763 227.392 110.136 227.724 110.42 228.127L161.714 274.859Z" fill="#FF5C8A"/>
<g opacity="0.2">
<path opacity="0.2" d="M161.715 274.859L156.782 280.991L111.662 249.048L105.742 245.155L104.299 244.21C102.934 243.167 101.884 241.767 101.264 240.164C100.645 238.562 100.48 236.819 100.788 235.129C101.318 231.798 103.493 230.376 105.339 227.958C105.649 227.574 106.043 227.267 106.491 227.062C106.94 226.857 107.43 226.759 107.922 226.775C108.415 226.792 108.897 226.922 109.331 227.157C109.764 227.392 110.137 227.724 110.421 228.127L161.715 274.859Z" fill="black"/>
</g>
<path d="M69.2257 216.925L105.837 225.348C106.848 225.58 107.802 226.01 108.646 226.614C109.489 227.218 110.203 227.984 110.748 228.866C111.293 229.748 111.657 230.73 111.819 231.754C111.981 232.779 111.939 233.825 111.693 234.833L107.874 246.598C102.912 261.827 99.2142 277.44 96.8195 293.277L96.0132 298.581L46.8516 287.707L59.7838 222.993C59.9948 221.969 60.4081 220.998 60.9996 220.135C61.5912 219.273 62.3489 218.538 63.2284 217.973C64.1079 217.408 65.0914 217.024 66.1213 216.844C67.1512 216.664 68.2066 216.691 69.2257 216.925Z" fill="#FF5C8A"/>
<path opacity="0.2" d="M69.2257 216.925L105.837 225.348C106.848 225.58 107.802 226.01 108.646 226.614C109.489 227.218 110.203 227.984 110.748 228.866C111.293 229.748 111.657 230.73 111.819 231.754C111.981 232.779 111.939 233.825 111.693 234.833L107.874 246.598C102.912 261.827 99.2142 277.44 96.8195 293.277L96.0132 298.581L46.8516 287.707L59.7838 222.993C59.9948 221.969 60.4081 220.998 60.9996 220.135C61.5912 219.273 62.3489 218.538 63.2284 217.973C64.1079 217.408 65.0914 217.024 66.1213 216.844C67.1512 216.664 68.2066 216.691 69.2257 216.925Z" fill="black"/>
<path opacity="0.5" d="M101.425 258.127C101.298 258.679 100.974 259.166 100.512 259.495C99.7793 260.018 98.938 260.369 98.0508 260.521C97.1636 260.674 96.2534 260.624 95.3881 260.376C94.3827 259.977 93.4687 259.378 92.7011 258.616C91.9335 257.853 91.3282 256.944 90.9217 255.941C90.6891 255.409 90.6552 254.81 90.8263 254.254L93.6907 244.706C93.8754 244.095 94.2914 243.58 94.8502 243.271C95.409 242.962 96.0664 242.883 96.6824 243.051C98.5814 243.561 100.841 244.187 102.496 244.664C103.111 244.844 103.631 245.259 103.945 245.818C104.258 246.377 104.34 247.037 104.172 247.656C103.164 251.316 101.913 256.249 101.425 258.127Z" fill="white"/>
<path d="M105.402 287.312L151.062 288.458L153.8 304.658L136.475 313.601L105.2 305.04L105.402 287.312Z" fill="#1C2D5E"/>
<path opacity="0.2" d="M56.0908 243.339C59.0825 241.536 68.7154 218.652 68.7154 218.652C65.9369 220.866 62.9971 222.87 59.9206 224.646C59.0189 229.58 57.0032 238.396 56.0908 243.339Z" fill="black"/>
<path d="M28.7115 174.552L25.741 164.145L23.7678 157.663C23.5143 156.83 23.5937 155.931 23.9894 155.155C24.3852 154.379 25.0663 153.788 25.8895 153.504L27.3748 152.984C28.1384 152.703 28.977 152.703 29.7406 152.984L30.8757 153.451C31.4708 153.687 31.9863 154.088 32.362 154.607C32.7378 155.125 32.9582 155.74 32.9975 156.379L33.1779 159.869C33.1998 160.256 33.1568 160.643 33.0505 161.015L31.8942 165.036L34.8435 172.335L28.7115 174.552Z" fill="#EEC1BB"/>
<path d="M69.947 217.071C69.8929 216.512 69.7178 215.97 69.4339 215.485C69.1499 215 68.764 214.582 68.3027 214.26C64.5789 211.703 54.5111 204.33 48.4216 195.907C40.9105 185.457 33.6858 166.562 33.6858 166.562L26.0898 169.278C26.0898 169.278 30.7684 197.689 37.7596 207.386C43.4672 215.342 54.7339 225.208 59.2639 228.996C60.3615 229.916 61.7554 230.407 63.1872 230.377C64.619 230.348 65.9917 229.801 67.0508 228.837C68.6952 227.235 70.5517 223.904 69.947 217.071Z" fill="#FF5C8A"/>
<path opacity="0.2" d="M69.947 217.071C69.8929 216.512 69.7178 215.97 69.4339 215.485C69.1499 215 68.764 214.582 68.3027 214.26C64.5789 211.703 54.5111 204.33 48.4216 195.907C40.9105 185.457 33.6858 166.562 33.6858 166.562L26.0898 169.278C26.0898 169.278 30.7684 197.689 37.7596 207.386C43.4672 215.342 54.7339 225.208 59.2639 228.996C60.3615 229.916 61.7554 230.407 63.1872 230.377C64.619 230.348 65.9917 229.801 67.0508 228.837C68.6952 227.235 70.5517 223.904 69.947 217.071Z" fill="black"/>
<g opacity="0.5">
<path opacity="0.5" d="M94.1554 222.652C94.1554 222.652 93.8265 226.216 89.742 225.707C85.6576 225.198 80.6714 219.098 80.6714 219.098L76.9053 218.652L84.2148 229.845L89.6466 228.052L94.1235 231.351L96.797 223.448L94.1554 222.652Z" fill="white"/>
</g>
<path d="M67.2837 227.555L63.0401 236.954L60.2606 242.778C59.8905 243.529 59.8311 244.396 60.0952 245.19C60.3593 245.984 60.9256 246.642 61.6716 247.022L62.9977 247.722C63.6852 248.084 64.4814 248.182 65.2362 247.998L66.3713 247.733C66.9606 247.585 67.4967 247.276 67.9187 246.839C68.3407 246.402 68.6316 245.855 68.7583 245.261L69.4267 241.993C69.486 241.642 69.486 241.284 69.4267 240.933L68.8644 237.028L72.6518 230.568L67.2837 227.555Z" fill="#71403E"/>
<path d="M102.25 224.741C102.25 224.741 86.9629 221.007 81.2128 218.684C80.1519 218.27 71.7921 235.658 71.7921 235.658L63.7188 232.666C63.7188 232.666 69.6067 210.388 77.3936 209.104C86.5173 207.598 106.356 213.432 106.356 213.432C111.172 214.271 110.971 226.736 102.25 224.741Z" fill="#FF5C8A"/>
<path d="M95.2825 223.52L95.0597 223.955C94.6328 224.779 93.9892 225.47 93.1983 225.954C92.4075 226.438 91.4994 226.697 90.5721 226.703C89.734 226.703 87.782 226.703 83.5384 223.764C82.2637 222.754 81.1696 221.534 80.3027 220.157C80.4 219.884 80.5436 219.629 80.7271 219.404C83.9098 215.468 84.5038 207.013 84.4508 202.059L93.1607 212.784C91.4951 216.412 90.9965 220.836 95.2825 223.52Z" fill="#EEC1BB"/>
<path opacity="0.2" d="M86.518 207.578L92.947 213.18C92.5631 214.171 92.2649 215.193 92.0558 216.235C90.6742 215.914 89.3905 215.264 88.3137 214.34C87.237 213.417 86.399 212.247 85.8708 210.931C85.351 209.382 85.9027 207.727 86.518 207.578Z" fill="black"/>
<path d="M101.159 184.207C101.159 184.207 108.67 192.005 102.654 194.731C96.6392 197.458 101.159 184.207 101.159 184.207Z" fill="#1C2D5E"/>
<path d="M83.8772 193.839C83.4846 201.266 82.8905 205.658 86.2005 209.88C91.1761 216.245 100.724 213.869 103.323 206.697C105.668 200.184 105.901 189.097 98.9736 185.331C97.4544 184.496 95.7474 184.062 94.0138 184.07C92.2803 184.079 90.5774 184.529 89.0663 185.378C87.5552 186.228 86.2856 187.449 85.3776 188.926C84.4696 190.402 83.9532 192.086 83.8772 193.818V193.839Z" fill="#EEC1BB"/>
<path d="M95.196 197.299C95.1323 197.904 95.3975 198.434 95.7901 198.476C96.1826 198.519 96.5539 198.063 96.6282 197.416C96.7024 196.768 96.4266 196.291 96.0341 196.249C95.6415 196.206 95.2702 196.705 95.196 197.299Z" fill="#1C2D5E"/>
<path d="M102.017 198.074C101.953 198.679 102.208 199.199 102.611 199.241C103.014 199.283 103.374 198.838 103.438 198.18C103.502 197.522 103.247 197.045 102.855 197.002C102.462 196.96 102.08 197.469 102.017 198.074Z" fill="#1C2D5E"/>
<path d="M99.4606 198.02C99.9746 199.941 100.749 201.783 101.763 203.494C101.316 203.741 100.822 203.889 100.312 203.928C99.8034 203.966 99.2921 203.894 98.8135 203.717L99.4606 198.02Z" fill="#D4827D"/>
<path d="M94.2835 194.178C94.2233 194.175 94.1648 194.157 94.1137 194.125C94.0488 194.056 94.0127 193.965 94.0127 193.87C94.0127 193.776 94.0488 193.685 94.1137 193.616C94.4955 193.199 94.9705 192.88 95.4997 192.682C96.0289 192.485 96.5974 192.416 97.1585 192.481C97.2527 192.496 97.3369 192.549 97.3925 192.626C97.4482 192.704 97.4709 192.8 97.4556 192.894C97.4375 192.989 97.383 193.074 97.3037 193.129C97.2245 193.185 97.1267 193.207 97.0312 193.191C96.587 193.144 96.1378 193.202 95.7208 193.363C95.3038 193.524 94.9311 193.781 94.6336 194.114C94.5857 194.154 94.5283 194.181 94.4669 194.192C94.4056 194.204 94.3424 194.199 94.2835 194.178Z" fill="#1C2D5E"/>
<path d="M104.385 195.664C104.326 195.65 104.272 195.622 104.227 195.581C104.182 195.54 104.149 195.488 104.13 195.431C103.995 195.008 103.762 194.622 103.451 194.305C103.139 193.988 102.758 193.749 102.338 193.606C102.292 193.596 102.249 193.577 102.211 193.55C102.173 193.523 102.14 193.489 102.116 193.449C102.091 193.41 102.074 193.366 102.067 193.32C102.06 193.274 102.061 193.227 102.072 193.182C102.095 193.089 102.153 193.009 102.235 192.959C102.317 192.909 102.414 192.894 102.507 192.916C103.049 193.086 103.542 193.383 103.946 193.782C104.35 194.18 104.653 194.669 104.831 195.208C104.861 195.295 104.856 195.391 104.816 195.474C104.777 195.558 104.706 195.622 104.618 195.653C104.545 195.686 104.461 195.69 104.385 195.664Z" fill="#1C2D5E"/>
<path d="M95.5985 205.784C95.3259 205.629 95.0668 205.452 94.8241 205.254C94.806 205.238 94.7915 205.218 94.7816 205.196C94.7717 205.174 94.7666 205.15 94.7666 205.126C94.7666 205.102 94.7717 205.078 94.7816 205.056C94.7915 205.034 94.806 205.015 94.8241 204.999C94.8608 204.967 94.9079 204.949 94.9567 204.949C95.0055 204.949 95.0526 204.967 95.0893 204.999C95.7061 205.503 96.4325 205.854 97.2102 206.026C97.9879 206.197 98.7949 206.183 99.5662 205.986C99.6127 205.972 99.6627 205.976 99.706 205.998C99.7493 206.02 99.7828 206.057 99.7996 206.102C99.808 206.126 99.8117 206.151 99.8104 206.176C99.8091 206.201 99.8028 206.226 99.7919 206.249C99.7811 206.271 99.7659 206.292 99.7472 206.308C99.7285 206.325 99.7067 206.338 99.6829 206.346C98.9991 206.53 98.2854 206.575 97.5839 206.478C96.8824 206.382 96.2073 206.146 95.5985 205.784Z" fill="#1C2D5E"/>
<path d="M84.7795 201.02C84.7795 201.02 88.3653 200.925 87.697 197.838C87.0286 194.75 90.7311 192.035 90.3492 187.929C90.3492 187.929 110.368 192.894 105.456 182.327C103.451 178.731 95.3778 178.36 89.2989 178.816C81.321 179.41 82.8487 184.025 82.8487 184.025C74.16 185.224 76.6425 203.131 84.7795 201.02Z" fill="#1C2D5E"/>
<path d="M79.4407 200.341C80.2596 202.032 81.7119 203.331 83.4827 203.959C85.8378 204.754 86.6653 202.24 86.6653 200.383C86.1773 198.325 84.3738 195.408 81.955 195.599C79.5361 195.79 78.454 198.251 79.4407 200.341Z" fill="#EEC1BB"/>
</g>
<defs>
<clipPath id="clip0_11071_106507">
<rect width="360" height="380" fill="white" transform="translate(0.632812 0.351562)"/>
</clipPath>
</defs>
</svg>
