<svg width="361" height="320" viewBox="0 0 361 320" fill="none" xmlns="http://www.w3.org/2000/svg">
<g clip-path="url(#clip0_12955_114518)">
<rect width="360" height="320" transform="translate(0.111328)" fill="#E1E9FE"/>
<path d="M321.789 144.944L320.728 170.087C320.652 171.89 320.087 173.639 319.092 175.146C318.098 176.652 316.712 177.859 315.084 178.638C313.302 179.487 311.562 180.303 310.745 180.653C308.793 181.566 306.862 182.33 304.931 183.083C301.038 184.6 297.176 185.979 293.187 187.242L289.591 177.895C292.848 176.771 305.854 171.975 310.363 170.193L316.156 144.435C315.646 143.798 321.789 144.944 321.789 144.944Z" fill="#EBB376"/>
<path d="M321.279 146.948L323.507 138.535H315.285C315.285 138.535 314.649 143.341 317.407 145.792L321.279 146.948Z" fill="#EBB376"/>
<path d="M322.244 133.834L319.188 133.219C318.595 133.107 317.98 133.215 317.461 133.524C316.941 133.832 316.552 134.32 316.367 134.895L315.306 138.555H323.528L323.973 136.317C324.025 136.04 324.021 135.755 323.962 135.48C323.903 135.205 323.79 134.944 323.629 134.713C323.468 134.482 323.262 134.285 323.025 134.134C322.787 133.983 322.521 133.881 322.244 133.834Z" fill="#EBB376"/>
<path d="M283.106 177.598C285.822 173.418 305.109 172.898 305.109 172.898L305.979 186.351C305.979 186.351 294.012 189.936 286.777 189.873C281.367 188.631 281.303 181.29 283.106 177.598Z" fill="#FF5C8A"/>
<path d="M283.106 177.598C285.822 173.418 305.109 172.898 305.109 172.898L305.979 186.351C305.979 186.351 294.012 189.936 286.777 189.873C281.367 188.631 281.303 181.29 283.106 177.598Z" fill="#FF5C8A"/>
<path opacity="0.1" d="M283.106 177.598C285.822 173.418 305.109 172.898 305.109 172.898L305.979 186.351C305.979 186.351 294.012 189.936 286.777 189.873C281.367 188.631 281.303 181.29 283.106 177.598Z" fill="white"/>
<path d="M251.653 164.408C251.653 167.591 251.398 164.408 253.393 169.968C255.387 175.527 254.019 181.818 245.765 180.332C237.511 178.847 233.31 180.789 227.825 182.168C222.34 183.547 214.914 178.2 218.447 171.835C221.98 165.469 221.428 161.427 218.447 161.162C213.068 160.664 214.203 151.084 218.627 145.8C222.107 141.652 222.107 141.652 230.021 140.591C255.27 137.207 251.674 161.226 251.653 164.408Z" fill="#1C2D5E"/>
<path d="M238.178 287.95C237.711 289.949 237.028 291.891 236.141 293.742C233.054 300.394 226.371 330.279 226.371 330.279C232.28 348.972 222.509 386.337 222.074 387.907L208.749 388.777C208.59 387.185 208.42 385.414 208.24 383.525C206.903 369.49 207.519 349.683 206.521 332.465C204.866 304.044 215.995 244.538 215.995 244.538L241.807 243.148L245.668 260.123C246.82 265.019 246.738 270.124 245.431 274.98C244.124 279.837 241.632 284.293 238.178 287.95Z" fill="#1C2D5E"/>
<path opacity="0.2" d="M236.642 292.185C233.459 298.975 228.324 313.806 228.324 313.806C230.722 305.892 233.13 284.335 236.917 274.352L236.642 292.185Z" fill="black"/>
<path d="M270.738 387.482L258.601 388.882C257.891 387.355 257.137 385.7 256.32 383.822C249.075 367.474 238.179 346.606 235.453 328.401C231.294 300.574 236.004 243.763 236.004 243.763L261.243 241.238C264.811 249.803 266.483 259.04 266.144 268.312C265.189 301.794 256.246 326.035 256.246 326.035C267.852 342.978 270.674 385.965 270.738 387.482Z" fill="#1C2D5E"/>
<path d="M294.979 174.128C289.269 175.99 283.203 176.498 277.262 175.613C277.262 175.613 266.303 182.233 261.614 184.907C258.05 182.033 255.763 177.871 255.249 173.322C261.614 171.836 268.903 169.004 275.257 167.667C280.562 166.606 295.255 168.898 295.255 168.898L294.979 174.128Z" fill="#CB7A63"/>
<path d="M295.265 168.897C297.545 168.558 300.569 168.42 301.778 168.377C302.119 168.359 302.456 168.448 302.744 168.632C303.646 169.215 305.693 170.51 306.521 170.913C306.907 171.126 307.221 171.45 307.422 171.843C307.622 172.237 307.7 172.681 307.645 173.119L307.433 174.849C307.406 175.273 307.212 175.669 306.894 175.951C306.576 176.233 306.16 176.378 305.736 176.355C304.399 176.249 301.312 176.355 301.312 176.355C301.312 176.355 298.925 175.687 294.946 174.159L295.265 168.897Z" fill="#CB7A63"/>
<path d="M269.559 181.205C269.559 181.205 260.128 186.733 256.924 188.133C250.314 191.029 246.315 182.627 246.4 180.707C246.448 179.087 247.043 177.532 248.087 176.293C251.588 171.254 265.963 168.867 265.963 168.867C266.764 173.085 267.968 177.217 269.559 181.205Z" fill="#FF5C8A"/>
<path opacity="0.2" d="M269.559 181.205C269.559 181.205 260.128 186.733 256.924 188.133C250.314 191.029 246.315 182.627 246.4 180.707C246.448 179.087 247.043 177.532 248.087 176.293C251.588 171.254 265.963 168.867 265.963 168.867C266.764 173.085 267.968 177.217 269.559 181.205Z" fill="black"/>
<path d="M212.656 188.237L203.967 204.097L185.402 221.698C185.402 221.698 180.946 221.538 178.739 222.833L183.237 230.609C185.259 229.944 186.968 228.563 188.043 226.726C188.043 226.726 204.487 222.992 213.303 209.381C217.281 203.249 224.57 193.467 224.792 190.592C225.015 187.717 223.371 183.506 219.934 183.293C216.496 183.081 214.64 184.248 212.656 188.237Z" fill="#CB7A63"/>
<path d="M211.635 185.16L203.753 196.946L219.401 204.85C219.401 204.85 225.533 199.164 226.573 190.899C227.443 184.025 222.923 177.659 216.632 180.11C215.503 180.573 214.479 181.259 213.62 182.127C212.762 182.994 212.087 184.026 211.635 185.16Z" fill="#FF5C8A"/>
<path opacity="0.2" d="M211.635 185.16L203.753 196.946L219.401 204.85C219.401 204.85 225.533 199.164 226.573 190.899C227.443 184.025 222.923 177.659 216.632 180.11C215.503 180.573 214.479 181.259 213.62 182.127C212.762 182.994 212.087 184.026 211.635 185.16Z" fill="black"/>
<path d="M178.737 222.758L176.148 224.88C175.647 225.283 175.314 225.858 175.214 226.494C175.114 227.129 175.254 227.779 175.607 228.317L177.156 230.661C177.472 231.162 177.948 231.54 178.508 231.733C179.067 231.926 179.676 231.922 180.233 231.722L183.235 230.661L178.737 222.758Z" fill="#CB7A63"/>
<path d="M253.416 172.515C247.857 174.913 228.198 178.297 221.96 179.262C221.23 179.374 220.541 179.675 219.962 180.134C219.384 180.594 218.935 181.197 218.661 181.883C218.136 183.066 217.548 184.221 216.9 185.341C214.619 189.638 213.558 191.951 211.648 195.08C209.845 198.019 211.595 200.862 212.37 202.973C212.97 205.041 213.082 207.22 212.699 209.339C208.232 252.581 217.451 248.751 217.451 248.751C239.178 248.454 262.136 243.924 262.136 243.924C253.691 218.42 260.566 169.417 253.416 172.515Z" fill="#FF5C8A"/>
<path opacity="0.2" d="M253.416 172.515C247.857 174.913 228.198 178.297 221.96 179.262C221.23 179.374 220.541 179.675 219.962 180.134C219.384 180.594 218.935 181.197 218.661 181.883C218.136 183.066 217.548 184.221 216.9 185.341C214.619 189.638 213.558 191.951 211.648 195.08C209.845 198.019 211.595 200.862 212.37 202.973C212.97 205.041 213.082 207.22 212.699 209.339C208.232 252.581 217.451 248.751 217.451 248.751C239.178 248.454 262.136 243.924 262.136 243.924C253.691 218.42 260.566 169.417 253.416 172.515Z" fill="black"/>
<path d="M228.886 192.091L234.944 188.728C237.344 187.392 239.454 185.59 241.148 183.428C242.842 181.265 244.087 178.786 244.81 176.135C238.826 174.862 238.391 168.104 238.922 162.344L228.43 173.419C229.83 177.419 229.363 176.316 225.152 178.915C224.929 179.201 218.224 186.002 228.886 192.091Z" fill="#CB7A63"/>
<path opacity="0.2" d="M237.096 167.043C237.248 165.36 237.094 163.663 236.64 162.035L232.959 164.868L229.225 168.804C229.755 170.219 230.112 171.694 230.285 173.196C233.373 172.135 236.715 169.811 237.096 167.043Z" fill="black"/>
<path d="M241.87 159.669C240.014 167.286 239.398 170.543 234.794 173.8C227.888 178.691 218.944 174.755 218.478 166.735C218.064 159.531 221.162 148.296 229.246 146.578C231.026 146.193 232.876 146.269 234.619 146.799C236.362 147.329 237.94 148.295 239.205 149.607C240.47 150.918 241.378 152.531 241.845 154.292C242.311 156.053 242.32 157.904 241.87 159.669Z" fill="#CB7A63"/>
<path d="M230.328 144.944C226.668 147.84 229.999 152.88 231.823 155.182C233.648 157.484 239.515 161.059 237.436 164.539C235.356 168.019 238.04 177.917 244.809 176.134C251.577 174.352 248.585 155.309 246.464 150.111C244.342 144.912 234.688 141.496 230.328 144.944Z" fill="#1C2D5E"/>
<path d="M224.418 159.867C223.606 161.197 222.614 162.407 221.469 163.464C221.741 163.748 222.071 163.97 222.438 164.113C222.804 164.255 223.198 164.316 223.591 164.291L224.418 159.867Z" fill="#B74D3C"/>
<path d="M231.218 157.134C231.271 157.143 231.325 157.143 231.377 157.134C231.446 157.09 231.495 157.021 231.513 156.941C231.531 156.862 231.517 156.778 231.473 156.709C231.177 156.207 230.764 155.783 230.269 155.474C229.774 155.166 229.211 154.982 228.63 154.938C228.548 154.94 228.47 154.973 228.411 155.03C228.352 155.087 228.317 155.163 228.312 155.245C228.314 155.324 228.346 155.399 228.401 155.456C228.456 155.513 228.53 155.548 228.609 155.553C229.088 155.599 229.551 155.758 229.958 156.016C230.365 156.274 230.706 156.624 230.953 157.038C230.987 157.074 231.028 157.101 231.074 157.118C231.12 157.135 231.17 157.14 231.218 157.134Z" fill="#1C2D5E"/>
<path d="M219.942 154.86C219.991 154.871 220.042 154.871 220.091 154.86C220.499 154.609 220.96 154.458 221.437 154.417C221.914 154.377 222.394 154.448 222.838 154.627C222.912 154.665 222.997 154.673 223.076 154.649C223.156 154.625 223.222 154.572 223.263 154.499C223.299 154.424 223.304 154.336 223.276 154.257C223.248 154.177 223.19 154.112 223.114 154.075C222.578 153.846 221.995 153.748 221.414 153.791C220.832 153.833 220.269 154.015 219.772 154.319C219.7 154.359 219.647 154.426 219.623 154.506C219.599 154.585 219.607 154.67 219.645 154.743C219.673 154.797 219.716 154.841 219.769 154.869C219.822 154.898 219.882 154.909 219.942 154.903V154.86Z" fill="#1C2D5E"/>
<path d="M229.034 159.627C228.917 160.253 228.493 160.688 228.079 160.624C227.665 160.56 227.432 159.988 227.549 159.362C227.665 158.736 228.09 158.301 228.493 158.301C228.896 158.301 229.14 158.99 229.034 159.627Z" fill="#1C2D5E"/>
<path d="M221.948 158.355C221.831 158.981 221.407 159.416 221.003 159.352C220.6 159.288 220.356 158.726 220.462 158.089C220.568 157.453 221.003 157.029 221.407 157.092C221.81 157.156 222.064 157.729 221.948 158.355Z" fill="#1C2D5E"/>
<path d="M221.577 157.153L220.155 156.453C220.155 156.453 220.718 157.769 221.577 157.153Z" fill="#1C2D5E"/>
<path d="M228.664 158.427L227.242 157.727C227.242 157.727 227.804 159.031 228.664 158.427Z" fill="#1C2D5E"/>
<path d="M241.604 166.47C240.92 167.82 239.73 168.846 238.294 169.324C236.374 169.929 235.345 168.263 235.812 166.396C236.236 164.741 237.743 162.418 239.695 162.609C240.119 162.661 240.523 162.818 240.871 163.065C241.22 163.312 241.501 163.642 241.691 164.025C241.88 164.408 241.971 164.831 241.956 165.258C241.941 165.685 241.82 166.102 241.604 166.47Z" fill="#CB7A63"/>
<path d="M228.09 166.679C228.365 166.528 228.624 166.351 228.864 166.149C228.882 166.133 228.897 166.113 228.907 166.091C228.917 166.069 228.922 166.045 228.922 166.021C228.922 165.997 228.917 165.973 228.907 165.952C228.897 165.93 228.882 165.91 228.864 165.894C228.847 165.876 228.827 165.861 228.804 165.851C228.781 165.841 228.757 165.836 228.732 165.836C228.707 165.836 228.682 165.841 228.659 165.851C228.637 165.861 228.616 165.876 228.599 165.894C227.981 166.396 227.255 166.746 226.477 166.917C225.7 167.088 224.894 167.076 224.122 166.881C224.099 166.871 224.075 166.866 224.05 166.866C224.025 166.867 224 166.873 223.978 166.884C223.956 166.895 223.936 166.911 223.921 166.931C223.905 166.95 223.894 166.973 223.889 166.997C223.875 167.044 223.879 167.094 223.901 167.137C223.923 167.18 223.96 167.214 224.005 167.231C224.688 167.42 225.402 167.468 226.104 167.373C226.806 167.279 227.482 167.042 228.09 166.679Z" fill="#1C2D5E"/>
<path d="M256.692 231.351C256.013 240.836 262.177 286.029 267.046 305.794C273.518 332.04 284.021 393.487 284.021 393.487L295.637 391.715C295.637 391.715 294.746 339.265 287.331 318.811C285.453 291.154 280.817 229.07 280.817 229.07L256.692 231.351Z" fill="#1C2D5E"/>
<path opacity="0.2" d="M282.534 259.22C282.11 252.207 276.487 246.563 275.967 259.952C275.638 268.439 279.882 282.846 284.454 292.839C283.722 281.986 283.054 269.903 282.534 259.22Z" fill="black"/>
<path d="M272.253 240.625C272.253 240.625 287.615 298.698 295.38 320.425C300.982 336.095 337.816 372.865 337.816 372.865L345.38 367.317C345.38 367.317 329.912 336.678 310.774 317.306C307.337 292.492 305.575 251.192 294.436 238.609L272.253 240.625Z" fill="#1C2D5E"/>
<path d="M256.776 192.14C253.296 195.811 249.7 199.259 245.965 202.643C242.231 206.027 221.735 220.084 205.45 223.373C205.18 223.45 204.898 223.474 204.62 223.442C204.341 223.41 204.071 223.324 203.826 223.188C203.581 223.052 203.365 222.869 203.19 222.65C203.015 222.43 202.886 222.179 202.808 221.909C202.731 221.639 202.708 221.357 202.739 221.079C202.771 220.8 202.857 220.53 202.993 220.285C203.129 220.04 203.312 219.824 203.532 219.649C203.751 219.474 204.003 219.345 204.272 219.267C208.781 217.485 247.079 189.562 250.517 186.168C250.909 185.736 251.385 185.389 251.915 185.146C252.444 184.902 253.018 184.768 253.601 184.752C254.184 184.735 254.764 184.836 255.307 185.049C255.85 185.261 256.344 185.581 256.761 185.989C257.177 186.397 257.507 186.885 257.731 187.423C257.955 187.962 258.068 188.54 258.064 189.123C258.059 189.706 257.937 190.282 257.705 190.817C257.473 191.352 257.135 191.834 256.712 192.236L256.776 192.14Z" fill="#EBB376"/>
<path d="M204.94 219.33L198.002 218.418L200.76 226.014C200.76 226.014 204.93 225.356 206.691 222.311L204.94 219.33Z" fill="#EBB376"/>
<path d="M251.068 180.811C244.12 183.081 247.451 185.988 242.878 189.712C237.574 194.03 238.21 194.73 238.21 194.73L246.453 203.854C246.453 203.854 256.691 196.152 260.839 193.181C264.987 190.211 256.32 180.631 251.068 180.811Z" fill="#FF5C8A"/>
<path opacity="0.1" d="M251.068 180.811C244.12 183.081 247.451 185.988 242.878 189.712C237.574 194.03 238.21 194.73 238.21 194.73L246.453 203.854C246.453 203.854 256.691 196.152 260.839 193.181C264.987 190.211 256.32 180.631 251.068 180.811Z" fill="black"/>
<path d="M193.504 223.82L195.477 226.631C195.694 226.946 196.011 227.18 196.376 227.296C196.741 227.411 197.134 227.401 197.493 227.267L200.761 226.069L198.002 218.473L193.907 221.422C193.54 221.69 193.293 222.091 193.217 222.539C193.142 222.987 193.245 223.446 193.504 223.82Z" fill="#EBB376"/>
<path d="M246.654 185.807C248.001 201.402 254.929 229.112 255.692 238.596C257.231 257.989 264.858 306.387 264.858 306.387C273.409 306.387 292.59 301.507 302.361 294.07L302.626 278.454L308.822 291.715L311.156 287.132L304.727 260.175C302.361 241.206 289.874 234.714 289.567 231.775C288.424 215.946 288.715 200.045 290.437 184.268C290.555 183.314 290.485 182.345 290.229 181.418C289.974 180.491 289.538 179.623 288.947 178.865C288.355 178.106 287.621 177.471 286.784 176.997C285.947 176.522 285.026 176.217 284.071 176.099C283.848 176.099 283.626 176.099 283.403 176.099C281.334 176.025 279.032 175.993 276.709 176.099C271.498 176.203 266.301 176.675 261.156 177.51C257.549 178.179 253.73 179.144 250.95 179.876C249.662 180.22 248.531 180.998 247.748 182.078C246.966 183.158 246.579 184.475 246.654 185.807Z" fill="#FF5C8A"/>
<g opacity="0.1">
<path opacity="0.1" d="M253.699 226.142C254.696 231.372 255.46 235.785 255.694 238.596C257.232 257.989 264.86 306.387 264.86 306.387C273.411 306.387 292.591 301.507 302.362 294.07L302.627 278.454L308.823 291.715L311.157 287.132L304.728 260.175C302.362 241.206 289.876 234.714 289.568 231.775C288.425 215.946 288.716 200.045 290.438 184.268C290.557 183.314 290.486 182.345 290.231 181.418C289.975 180.491 289.539 179.623 288.948 178.865C288.357 178.106 287.622 177.471 286.785 176.997C285.949 176.522 285.027 176.217 284.073 176.099C283.85 176.099 283.627 176.099 283.404 176.099C281.335 176.025 279.033 175.993 276.71 176.099C265.836 183.961 257.19 187.228 254.134 211.109L253.699 226.142Z" fill="white"/>
</g>
<path d="M273.622 158.66C273.102 163.752 272.943 173.003 276.752 176.016C271.603 178.736 266.98 182.349 263.098 186.689C258.547 180.164 261.199 177.427 261.199 177.427C266.641 175.592 266.132 171.465 264.806 167.667L273.622 158.66Z" fill="#EBB376"/>
<path d="M277.027 175.794C275.738 174.402 274.986 172.597 274.905 170.702C273.634 170.599 272.359 170.851 271.222 171.43C270.085 172.009 269.131 172.892 268.466 173.98C267.012 176.463 267.288 179.539 267.606 182.393C270.683 180.165 273.95 178.022 277.027 175.794Z" fill="#FF5C8A"/>
<path opacity="0.1" d="M277.027 175.794C275.738 174.402 274.986 172.597 274.905 170.702C273.634 170.599 272.359 170.851 271.222 171.43C270.085 172.009 269.131 172.892 268.466 173.98C267.012 176.463 267.288 179.539 267.606 182.393C270.683 180.165 273.95 178.022 277.027 175.794Z" fill="white"/>
<path opacity="0.2" d="M272.668 159.645C272.863 162.624 272.422 165.611 271.374 168.407C270.631 170.338 268.191 171.378 265.698 171.813C265.623 170.394 265.329 168.995 264.828 167.665L272.668 159.645Z" fill="black"/>
<path d="M261.317 141.906C262.141 147.781 261.933 153.755 260.701 159.559L257.773 158.837C258.049 154.01 258.749 148.961 259.025 144.133C258.144 147.592 257.179 151.464 256.299 154.923C255.588 154.7 254.941 154.382 254.177 154.169C254.866 151.369 255.938 148.494 256.617 145.682C256.815 144.539 257.26 143.453 257.922 142.5C258.355 142.059 258.915 141.764 259.524 141.658C260.133 141.551 260.76 141.638 261.317 141.906Z" fill="#FF5C8A"/>
<path d="M251.768 147.172C252.318 147.664 252.966 148.032 253.67 148.253C254.374 148.474 255.117 148.542 255.849 148.452C256.581 148.362 257.286 148.117 257.916 147.733C258.545 147.349 259.086 146.834 259.501 146.224C259.915 145.614 260.195 144.923 260.321 144.196C260.447 143.469 260.416 142.724 260.23 142.01C260.044 141.296 259.708 140.63 259.244 140.056C258.78 139.483 258.199 139.015 257.539 138.685C256.817 138.378 256.03 138.258 255.249 138.336C254.468 138.413 253.72 138.687 253.073 139.13C252.473 139.581 251.981 140.16 251.633 140.824C251.284 141.488 251.087 142.221 251.057 142.971C251.015 144.477 250.707 146.153 251.768 147.172Z" fill="#1C2D5E"/>
<path d="M281.018 151.681C279.321 159.913 278.843 163.425 274.016 167.106C266.823 172.633 257.042 168.793 256.246 160.231C255.504 152.529 258.368 140.361 266.94 138.197C268.394 137.816 269.908 137.726 271.397 137.931C272.886 138.137 274.319 138.633 275.616 139.393C276.912 140.153 278.047 141.16 278.954 142.359C279.86 143.557 280.522 144.922 280.901 146.376C281.36 148.11 281.4 149.928 281.018 151.681Z" fill="#EBB376"/>
<path d="M260.733 159.838C260.733 159.838 263.173 158.946 270.218 158.098C269.666 160.347 268.34 162.267 264.733 162.702C263.873 162.888 262.975 162.726 262.235 162.25C261.496 161.775 260.974 161.025 260.786 160.166C260.762 160.058 260.745 159.948 260.733 159.838Z" fill="#1C2D5E"/>
<path d="M266.174 160.784C264.781 160.872 263.451 161.4 262.376 162.29C263.102 162.65 263.919 162.779 264.721 162.662C266.114 162.572 267.442 162.037 268.508 161.134C267.787 160.772 266.969 160.649 266.174 160.784Z" fill="#9D2724"/>
<path d="M261.041 159.74C261.145 159.993 261.315 160.214 261.533 160.378C261.752 160.542 262.01 160.645 262.282 160.674C264.369 160.409 266.431 159.973 268.446 159.369C268.772 159.296 269.076 159.143 269.329 158.925C269.583 158.707 269.779 158.429 269.899 158.117C266.908 158.424 263.946 158.967 261.041 159.74Z" fill="white"/>
<path d="M265.962 136.879C263.644 137.52 261.567 138.834 259.995 140.654C258.422 142.474 257.423 144.719 257.125 147.106C258.451 147.106 259.905 146.491 261.241 146.448C261.426 145.282 261.848 144.166 262.481 143.17C263.114 142.174 263.945 141.318 264.923 140.656C264.249 141.395 263.733 142.263 263.407 143.208C263.08 144.153 262.95 145.154 263.024 146.151C264.403 146.342 265.708 146.629 267.087 146.809C267.671 144.808 268.637 142.938 269.93 141.303C269.866 143.425 269.994 145.493 269.93 147.668C271.447 148.612 273.06 149.663 274.587 150.618C275.624 147.49 275.469 144.09 274.152 141.07C272.72 138.067 269.113 136.073 265.962 136.879Z" fill="#1C2D5E"/>
<path d="M271.988 138.187C272.699 143.905 275.235 151.32 278.354 155.787C281.027 156.094 283.573 153.039 283.934 149.878C284.083 148.345 283.853 146.8 283.264 145.378C282.676 143.955 281.748 142.699 280.56 141.719C278.29 139.937 274.641 137.762 271.988 138.187Z" fill="#1C2D5E"/>
<path d="M280.571 145.238C279.689 151.107 279.84 157.085 281.017 162.902C281.94 162.69 283.011 162.414 283.945 162.202C283.722 157.375 283.075 152.314 282.884 147.487C283.733 150.957 284.666 154.839 285.504 158.298C286.226 158.086 286.862 157.778 287.573 157.566C286.915 154.765 285.886 151.88 285.229 149.079C285.035 147.938 284.597 146.852 283.945 145.896C283.521 145.449 282.968 145.145 282.363 145.027C281.759 144.909 281.132 144.983 280.571 145.238Z" fill="#FF5C8A"/>
<path d="M289.959 150.616C289.412 151.132 288.758 151.523 288.044 151.762C287.33 152 286.573 152.08 285.825 151.995C285.077 151.911 284.356 151.664 283.713 151.273C283.07 150.881 282.521 150.354 282.102 149.729C281.684 149.103 281.407 148.393 281.291 147.65C281.174 146.906 281.222 146.146 281.429 145.422C281.637 144.699 282 144.029 282.493 143.46C282.986 142.892 283.597 142.437 284.284 142.128C285.007 141.828 285.795 141.716 286.574 141.801C287.353 141.886 288.098 142.167 288.739 142.616C289.334 143.076 289.82 143.661 290.161 144.331C290.502 145.001 290.69 145.737 290.713 146.489C290.797 147.91 291.084 149.555 289.959 150.616Z" fill="#1C2D5E"/>
<path d="M283.268 156.029C283.11 156.823 282.795 157.577 282.341 158.248C281.888 158.918 281.305 159.491 280.627 159.933C278.812 161.09 277.285 159.636 277.253 157.599C277.253 155.764 278.155 152.953 280.223 152.603C280.947 152.506 281.68 152.699 282.263 153.14C282.845 153.581 283.229 154.235 283.332 154.958C283.374 155.316 283.353 155.679 283.268 156.029Z" fill="#EBB376"/>
<path d="M268.541 152.41C268.445 153.078 268.01 153.587 267.565 153.524C267.119 153.46 266.843 152.855 266.939 152.187C267.034 151.519 267.469 151.009 267.915 151.126C268.36 151.243 268.636 151.731 268.541 152.41Z" fill="#1C2D5E"/>
<path d="M260.902 151.339C260.807 152.029 260.372 152.517 259.926 152.4C259.48 152.283 259.205 151.753 259.3 151.063C259.396 150.374 259.831 149.896 260.266 149.949C260.7 150.002 260.998 150.671 260.902 151.339Z" fill="#1C2D5E"/>
<path d="M260.458 150.079L258.898 149.379C258.898 149.379 259.556 150.769 260.458 150.079Z" fill="#1C2D5E"/>
<path d="M262.728 152.742C261.913 154.202 260.903 155.544 259.726 156.731C260.036 157.024 260.406 157.247 260.811 157.382C261.216 157.518 261.646 157.564 262.07 157.516L262.728 152.742Z" fill="#ED893E"/>
<path d="M270.612 150.053C270.552 150.015 270.501 149.964 270.463 149.905C270.231 149.459 269.896 149.075 269.487 148.784C269.077 148.493 268.605 148.302 268.108 148.229C268.004 148.218 267.908 148.168 267.839 148.09C267.77 148.011 267.733 147.909 267.737 147.804C267.739 147.751 267.752 147.699 267.775 147.652C267.798 147.604 267.83 147.561 267.869 147.525C267.909 147.49 267.955 147.463 268.005 147.445C268.055 147.427 268.108 147.42 268.161 147.422C268.796 147.51 269.401 147.749 269.925 148.118C270.449 148.487 270.877 148.976 271.174 149.544C271.222 149.641 271.23 149.754 271.197 149.857C271.163 149.96 271.09 150.046 270.993 150.096C270.932 150.123 270.864 150.134 270.797 150.126C270.73 150.119 270.666 150.094 270.612 150.053Z" fill="#1C2D5E"/>
<path d="M258.462 148.315H258.399C258.316 148.248 258.263 148.152 258.252 148.047C258.24 147.941 258.27 147.836 258.335 147.752C258.744 147.275 259.26 146.9 259.84 146.659C260.421 146.418 261.05 146.316 261.677 146.363C261.78 146.378 261.873 146.434 261.937 146.517C262 146.6 262.028 146.704 262.016 146.808C262.001 146.914 261.944 147.008 261.858 147.072C261.773 147.136 261.666 147.163 261.56 147.148C261.059 147.112 260.556 147.195 260.094 147.39C259.631 147.586 259.221 147.888 258.897 148.272C258.839 148.324 258.765 148.357 258.687 148.364C258.609 148.372 258.53 148.354 258.462 148.315Z" fill="#1C2D5E"/>
<path d="M268.106 151.138L266.536 150.438C266.536 150.438 267.194 151.838 268.106 151.138Z" fill="#1C2D5E"/>
<path d="M267.533 182.617C265.68 184.066 263.99 185.713 262.494 187.528C262.218 187.857 261.953 188.218 261.677 188.589C259.184 185.704 258.706 181.397 259.725 177.662C260.837 177.503 261.865 176.978 262.645 176.169C263.425 175.36 263.913 174.313 264.032 173.196C264.69 172.931 265.358 173.504 265.825 174.034C266.265 174.602 266.56 175.268 266.684 175.975C267.231 178.147 267.516 180.377 267.533 182.617Z" fill="#FF5C8A"/>
<path d="M162.589 214.273L169.697 222.495L174.248 227.566C174.538 227.882 174.762 228.253 174.905 228.658C175.048 229.062 175.108 229.491 175.082 229.919C175.055 230.347 174.942 230.765 174.749 231.149C174.557 231.532 174.289 231.872 173.962 232.149L172.752 233.21C172.124 233.755 171.324 234.063 170.493 234.08H169.219C168.572 234.1 167.932 233.94 167.37 233.618C166.808 233.296 166.347 232.824 166.037 232.256L164.414 229.179C164.239 228.848 164.124 228.489 164.074 228.118L163.565 224.076L157.772 218.644L162.589 214.273Z" fill="#71403E"/>
<path d="M169.081 219.864L161.103 224.108C161.103 224.108 152.488 212.438 143.428 198.647C140.246 193.735 133.785 184.685 133.785 184.685C129.541 176.092 123.749 155.914 124.873 155.914C132.3 155.914 136.904 159.553 143.492 173.228C147.184 180.993 169.081 219.864 169.081 219.864Z" fill="#FF5C8A"/>
<path d="M137.754 227.727C137.754 227.727 150.814 307.294 152.246 320.608C153.678 333.922 158.802 382.564 158.802 382.564L147.027 384.686C147.027 384.686 131.803 348.499 133.065 324.512C133.065 324.512 119.825 278.586 115.645 268.529C115.645 268.529 103.191 251.841 108.028 226.762L137.754 227.727Z" fill="#1C2D5E"/>
<path opacity="0.2" d="M127.166 301.88C124.757 294.2 122.455 287.198 121.002 283.718C118.895 282.646 116.946 281.289 115.209 279.687C114.541 276.727 114.148 274.828 114.148 274.828L119.792 250.852C119.792 250.852 127.494 277.607 127.166 301.88Z" fill="black"/>
<path d="M120.716 229.73L121.161 272.622L122.604 293.31C123.922 312.288 123.737 331.341 122.052 350.29L118.87 386.435L106.139 387.877C106.139 387.877 98.6173 344.784 103.731 323.237C103.731 323.237 89.9392 263.827 91.6897 229.73H120.716Z" fill="#1C2D5E"/>
<path d="M92.9929 237.389L87.455 167.89C85.6727 155.011 87.9642 150.438 92.8337 151.52L124.873 156.008C132.84 158.13 134.071 162.246 134.357 165.556C133.853 186.337 134.799 207.128 137.19 227.777L137.985 234.747L92.9929 237.389Z" fill="#FF5C8A"/>
<path d="M107.306 136.148C107.369 141.103 106.786 149.558 103.603 153.494C103.237 153.956 103.037 154.528 103.037 155.117C103.037 155.707 103.237 156.279 103.603 156.74C106.156 160.304 109.933 162.801 114.212 163.753C119.708 164.973 120.641 162.066 119.983 159.509C119.893 159.176 119.736 158.864 119.523 158.593C119.31 158.321 119.044 158.095 118.742 157.929C113.82 155.287 114.297 150.64 116.026 146.821L107.306 136.148Z" fill="#71403E"/>
<path opacity="0.2" d="M110.85 140.539L116.038 146.851C115.624 147.789 115.294 148.762 115.052 149.758C113.749 149.277 112.584 148.484 111.659 147.449C110.734 146.413 110.078 145.166 109.747 143.817C109.45 142.13 110.225 140.613 110.85 140.539Z" fill="black"/>
<path d="M106.701 127.959C106.319 135.385 105.725 139.777 109.045 143.989C114.021 150.354 123.569 147.967 126.158 140.806C128.502 134.292 128.714 123.206 121.797 119.44C120.279 118.601 118.571 118.165 116.836 118.172C115.102 118.179 113.397 118.629 111.885 119.479C110.373 120.329 109.103 121.551 108.196 123.029C107.289 124.508 106.774 126.194 106.701 127.927V127.959Z" fill="#71403E"/>
<path d="M120.31 144.253L117.679 143.871C118.008 144.783 118.294 145.728 118.623 146.64C119.259 145.813 119.673 145.049 120.31 144.253Z" fill="#1C2D5E"/>
<path d="M118.095 131.404C118.031 132.009 118.286 132.54 118.689 132.582C119.092 132.624 119.453 132.168 119.516 131.521C119.58 130.874 119.325 130.397 118.922 130.354C118.519 130.312 118.095 130.8 118.095 131.404Z" fill="#1C2D5E"/>
<path d="M124.885 132.173C124.81 132.778 125.076 133.298 125.479 133.34C125.882 133.382 126.242 132.937 126.306 132.279C126.37 131.621 126.115 131.155 125.712 131.112C125.309 131.07 124.948 131.526 124.885 132.173Z" fill="#1C2D5E"/>
<path d="M122.476 132.277C123.16 134.148 124.099 135.915 125.266 137.529C124.844 137.815 124.364 138.008 123.861 138.092C123.357 138.176 122.841 138.15 122.349 138.017L122.476 132.277Z" fill="#561616"/>
<path d="M116.035 128.343C115.975 128.341 115.916 128.323 115.866 128.29C115.801 128.221 115.765 128.13 115.765 128.035C115.765 127.94 115.801 127.849 115.866 127.78C116.249 127.363 116.726 127.043 117.257 126.846C117.788 126.648 118.358 126.58 118.921 126.645C119.013 126.663 119.095 126.717 119.148 126.794C119.202 126.871 119.223 126.966 119.208 127.059C119.2 127.105 119.183 127.15 119.158 127.189C119.133 127.229 119.1 127.263 119.061 127.29C119.023 127.317 118.979 127.335 118.933 127.345C118.887 127.354 118.84 127.355 118.794 127.345C118.347 127.299 117.896 127.359 117.477 127.522C117.058 127.684 116.684 127.944 116.386 128.279C116.339 128.322 116.282 128.351 116.22 128.362C116.158 128.374 116.094 128.367 116.035 128.343Z" fill="#1C2D5E"/>
<path d="M127.845 129.719C127.787 129.704 127.734 129.675 127.689 129.634C127.645 129.593 127.611 129.542 127.591 129.486C127.455 129.064 127.221 128.681 126.91 128.366C126.599 128.05 126.218 127.813 125.798 127.672C125.713 127.649 125.639 127.598 125.588 127.526C125.538 127.454 125.514 127.367 125.522 127.279C125.545 127.186 125.603 127.106 125.685 127.057C125.766 127.007 125.864 126.992 125.957 127.014C126.497 127.186 126.99 127.483 127.394 127.881C127.797 128.279 128.101 128.767 128.28 129.305C128.311 129.393 128.306 129.489 128.266 129.572C128.226 129.655 128.155 129.72 128.068 129.751C127.992 129.765 127.914 129.754 127.845 129.719Z" fill="#1C2D5E"/>
<path d="M105.515 135.515C102.61 129.433 101.736 122.579 103.021 115.962C107.239 113.399 112.178 112.282 117.089 112.78C121.884 113.448 124.897 112.78 128.271 116.281C128.271 116.281 127.337 122.37 126.34 124.28C124.661 123.748 122.945 123.344 121.205 123.07C117.7 122.7 114.157 122.919 110.724 123.718C110.978 125.627 111.487 127.77 111.731 129.68C111.236 129.644 110.739 129.721 110.278 129.905C109.817 130.089 109.404 130.374 109.069 130.741C109.334 133.106 108.623 135.493 108.888 137.87C107.997 137.127 106.024 136.554 105.515 135.515Z" fill="#1C2D5E"/>
<path d="M102.299 134.462C103.123 136.153 104.578 137.453 106.352 138.08C108.718 138.865 110.033 136.796 109.535 134.504C109.047 132.436 107.233 129.529 104.814 129.72C102.395 129.911 101.323 132.372 102.299 134.462Z" fill="#71403E"/>
<path d="M123.685 140.509C120.767 139.865 117.801 139.457 114.816 139.289C115.357 141.008 116.641 142.472 119.983 142.758C123.325 143.045 123.685 140.509 123.685 140.509Z" fill="#1C2D5E"/>
<path d="M123.4 140.433C123.166 140.773 122.827 141.77 122.105 141.834C120.167 141.654 118.242 141.345 116.345 140.911C115.751 140.773 115.39 139.903 115.104 139.309C117.89 139.508 120.661 139.883 123.4 140.433Z" fill="white"/>
<path d="M144.013 210.699L151.864 216.958L156.861 220.799C157.491 221.289 157.91 222.002 158.03 222.792C158.151 223.581 157.964 224.387 157.508 225.042L156.659 226.241C156.219 226.853 155.576 227.289 154.845 227.472L153.784 227.737C153.207 227.882 152.602 227.859 152.038 227.671C151.474 227.483 150.976 227.138 150.601 226.676L148.575 224.141C148.354 223.856 148.182 223.537 148.066 223.197L146.793 219.579L140.629 215.654L144.013 210.699Z" fill="#EEC1BB"/>
<path d="M82.4913 236.68C82.4913 236.68 91.7528 301.818 93.185 315.111C94.6172 328.404 101.799 383.496 101.799 383.496L91.0314 385.618C91.0314 385.618 77.7173 345.548 75.2242 319.005C75.2242 319.005 63.8302 279.508 59.6503 269.461C59.6503 269.461 47.1954 255.001 52.0331 229.922L82.4913 236.68Z" fill="#1C2D5E"/>
<path opacity="0.2" d="M65.815 287.642C63.4174 279.972 61.1046 272.96 59.6512 269.48C57.5449 268.408 55.5958 267.051 53.8587 265.449C53.1904 262.489 52.7979 260.6 52.7979 260.6L61.3592 248.527C61.3592 248.527 63.1415 273.681 65.815 287.642Z" fill="black"/>
<path d="M62.1445 232.179C62.1445 232.179 59.0785 308.998 52.7874 325.537C46.4964 342.077 24.9709 384.618 24.9709 384.618L14.8818 379.929C14.8818 379.929 26.3819 330.205 35.7177 318.705L33.7763 264.865C33.7763 264.865 26.0742 239.488 33.3307 225.824L62.1445 232.179Z" fill="#1C2D5E"/>
<path d="M148.192 212.969L143.259 219.101L98.1395 187.157L92.2197 183.264L90.7769 182.32C89.4118 181.276 88.3615 179.876 87.7419 178.274C87.1222 176.671 86.9573 174.929 87.2654 173.239C87.7958 169.907 89.9707 168.486 91.8166 166.067C92.1262 165.683 92.5207 165.377 92.969 165.172C93.4172 164.966 93.907 164.868 94.3998 164.885C94.8925 164.901 95.3747 165.032 95.8082 165.266C96.2418 165.501 96.615 165.833 96.8983 166.237L148.192 212.969Z" fill="#FF5C8A"/>
<g opacity="0.2">
<path opacity="0.2" d="M148.193 212.969L143.26 219.101L98.1405 187.157L92.2207 183.264L90.7779 182.32C89.4128 181.276 88.3625 179.876 87.7428 178.274C87.1232 176.671 86.9583 174.929 87.2664 173.239C87.7968 169.907 89.9716 168.486 91.8176 166.067C92.1272 165.683 92.5217 165.377 92.9699 165.172C93.4182 164.966 93.908 164.868 94.4007 164.885C94.8935 164.901 95.3756 165.032 95.8092 165.266C96.2428 165.501 96.616 165.833 96.8993 166.237L148.193 212.969Z" fill="black"/>
</g>
<path d="M55.7043 155.034L92.3156 163.458C93.3263 163.689 94.281 164.12 95.124 164.724C95.9671 165.328 96.6818 166.093 97.2266 166.975C97.7714 167.858 98.1355 168.84 98.2978 169.864C98.46 170.888 98.4171 171.934 98.1717 172.942L94.3525 184.707C89.3901 199.936 85.6927 215.549 83.298 231.386L82.4917 236.691L33.3301 225.817L46.2623 161.102C46.4733 160.078 46.8867 159.107 47.4782 158.245C48.0697 157.383 48.8274 156.648 49.7069 156.082C50.5864 155.517 51.57 155.133 52.5998 154.953C53.6297 154.773 54.6852 154.801 55.7043 155.034Z" fill="#FF5C8A"/>
<path opacity="0.2" d="M55.7043 155.034L92.3156 163.458C93.3263 163.689 94.281 164.12 95.124 164.724C95.9671 165.328 96.6818 166.093 97.2266 166.975C97.7714 167.858 98.1355 168.84 98.2978 169.864C98.46 170.888 98.4171 171.934 98.1717 172.942L94.3525 184.707C89.3901 199.936 85.6927 215.549 83.298 231.386L82.4917 236.691L33.3301 225.817L46.2623 161.102C46.4733 160.078 46.8867 159.107 47.4782 158.245C48.0697 157.383 48.8274 156.648 49.7069 156.082C50.5864 155.517 51.57 155.133 52.5998 154.953C53.6297 154.773 54.6852 154.801 55.7043 155.034Z" fill="black"/>
<path opacity="0.5" d="M87.903 196.236C87.7769 196.789 87.4522 197.276 86.9907 197.605C86.2578 198.127 85.4165 198.478 84.5293 198.631C83.6421 198.783 82.7319 198.733 81.8666 198.485C80.8613 198.086 79.9472 197.487 79.1796 196.725C78.412 195.963 77.8067 195.053 77.4002 194.051C77.1676 193.518 77.1338 192.919 77.3048 192.364L80.1692 182.816C80.3539 182.205 80.77 181.69 81.3287 181.38C81.8875 181.071 82.5449 180.993 83.1609 181.161C85.0599 181.67 87.3196 182.296 88.9746 182.773C89.5897 182.954 90.1098 183.368 90.4231 183.927C90.7365 184.487 90.8182 185.146 90.6508 185.765C89.6429 189.425 88.3911 194.358 87.903 196.236Z" fill="white"/>
<path d="M91.8803 225.422L137.541 226.568L140.278 242.767L122.954 251.711L91.6787 243.149L91.8803 225.422Z" fill="#1C2D5E"/>
<path opacity="0.2" d="M42.5693 181.449C45.561 179.645 55.1939 156.762 55.1939 156.762C52.4154 158.976 49.4757 160.979 46.3991 162.756C45.4974 167.689 43.4817 176.505 42.5693 181.449Z" fill="black"/>
<path d="M15.19 112.661L12.2195 102.254L10.2463 95.772C9.99277 94.939 10.0722 94.0401 10.468 93.2645C10.8637 92.4888 11.5448 91.8969 12.3681 91.6133L13.8533 91.0935C14.6169 90.8126 15.4555 90.8126 16.2191 91.0935L17.3542 91.5602C17.9493 91.7966 18.4648 92.1975 18.8406 92.716C19.2163 93.2345 19.4367 93.8492 19.476 94.4883L19.6564 97.9786C19.6783 98.365 19.6353 98.7523 19.5291 99.1244L18.3727 103.145L21.322 110.444L15.19 112.661Z" fill="#EEC1BB"/>
<path d="M56.4256 155.181C56.3714 154.621 56.1963 154.08 55.9124 153.594C55.6285 153.109 55.2425 152.691 54.7812 152.369C51.0575 149.813 40.9896 142.44 34.9001 134.016C27.389 123.566 20.1643 104.672 20.1643 104.672L12.5684 107.388C12.5684 107.388 17.2469 135.798 24.2382 145.495C29.9457 153.452 41.2124 163.318 45.7424 167.105C46.84 168.025 48.2339 168.516 49.6657 168.487C51.0975 168.457 52.4702 167.91 53.5293 166.946C55.1737 165.344 57.0303 162.013 56.4256 155.181Z" fill="#FF5C8A"/>
<path opacity="0.2" d="M56.4256 155.181C56.3714 154.621 56.1963 154.08 55.9124 153.594C55.6285 153.109 55.2425 152.691 54.7812 152.369C51.0575 149.813 40.9896 142.44 34.9001 134.016C27.389 123.566 20.1643 104.672 20.1643 104.672L12.5684 107.388C12.5684 107.388 17.2469 135.798 24.2382 145.495C29.9457 153.452 41.2124 163.318 45.7424 167.105C46.84 168.025 48.2339 168.516 49.6657 168.487C51.0975 168.457 52.4702 167.91 53.5293 166.946C55.1737 165.344 57.0303 162.013 56.4256 155.181Z" fill="black"/>
<g opacity="0.5">
<path opacity="0.5" d="M80.6339 160.761C80.6339 160.761 80.305 164.326 76.2206 163.817C72.1361 163.307 67.15 157.207 67.15 157.207L63.3838 156.762L70.6933 167.954L76.1251 166.161L80.602 169.461L83.2755 161.557L80.6339 160.761Z" fill="white"/>
</g>
<path d="M53.7622 165.664L49.5186 175.064L46.7391 180.888C46.369 181.639 46.3096 182.505 46.5737 183.299C46.8378 184.093 47.4042 184.752 48.1501 185.131L49.4762 185.832C50.1637 186.194 50.9599 186.292 51.7147 186.107L52.8498 185.842C53.4391 185.695 53.9753 185.385 54.3972 184.948C54.8192 184.511 55.1101 183.964 55.2368 183.37L55.9052 180.103C55.9646 179.752 55.9646 179.393 55.9052 179.042L55.3429 175.138L59.1303 168.677L53.7622 165.664Z" fill="#71403E"/>
<path d="M88.7288 162.851C88.7288 162.851 73.4414 159.117 67.6913 156.793C66.6305 156.379 58.2706 173.767 58.2706 173.767L50.1973 170.776C50.1973 170.776 56.0852 148.497 63.8721 147.213C72.9958 145.707 92.8344 151.542 92.8344 151.542C97.6509 152.38 97.4493 164.845 88.7288 162.851Z" fill="#FF5C8A"/>
<path d="M81.761 161.63L81.5382 162.065C81.1113 162.888 80.4677 163.579 79.6769 164.063C78.886 164.547 77.9779 164.806 77.0507 164.812C76.2126 164.812 74.2605 164.812 70.017 161.874C68.7422 160.863 67.6481 159.643 66.7812 158.267C66.8785 157.993 67.0221 157.738 67.2056 157.514C70.3883 153.578 70.9824 145.122 70.9293 140.168L79.6392 150.894C77.9736 154.522 77.475 158.946 81.761 161.63Z" fill="#EEC1BB"/>
<path opacity="0.2" d="M72.9965 145.688L79.4255 151.289C79.0416 152.28 78.7434 153.302 78.5343 154.344C77.1527 154.023 75.869 153.373 74.7922 152.45C73.7155 151.526 72.8775 150.356 72.3493 149.04C71.8295 147.491 72.3812 145.836 72.9965 145.688Z" fill="black"/>
<path d="M87.6371 122.316C87.6371 122.316 95.1482 130.114 89.1329 132.84C83.1177 135.567 87.6371 122.316 87.6371 122.316Z" fill="#1C2D5E"/>
<path d="M70.3557 131.949C69.9632 139.375 69.3691 143.767 72.679 147.99C77.6546 154.355 87.2026 151.978 89.8018 144.807C92.1464 138.293 92.3798 127.207 85.4521 123.441C83.933 122.605 82.2259 122.172 80.4924 122.18C78.7588 122.188 77.056 122.638 75.5448 123.488C74.0337 124.337 72.7641 125.558 71.8561 127.035C70.9481 128.512 70.4317 130.196 70.3557 131.928V131.949Z" fill="#EEC1BB"/>
<path d="M81.6745 135.408C81.6108 136.013 81.876 136.543 82.2686 136.586C82.6611 136.628 83.0324 136.172 83.1067 135.525C83.1809 134.878 82.9051 134.4 82.5126 134.358C82.1201 134.316 81.7487 134.814 81.6745 135.408Z" fill="#1C2D5E"/>
<path d="M88.4951 136.183C88.4314 136.788 88.686 137.308 89.0892 137.35C89.4923 137.393 89.853 136.947 89.9167 136.289C89.9803 135.632 89.7257 135.154 89.3332 135.112C88.9406 135.069 88.5587 135.579 88.4951 136.183Z" fill="#1C2D5E"/>
<path d="M85.9391 136.129C86.4531 138.05 87.2277 139.892 88.2413 141.603C87.7947 141.85 87.3 141.998 86.791 142.037C86.282 142.075 85.7706 142.003 85.292 141.826L85.9391 136.129Z" fill="#D4827D"/>
<path d="M80.762 132.287C80.7018 132.285 80.6433 132.266 80.5923 132.234C80.5274 132.165 80.4912 132.074 80.4912 131.98C80.4912 131.885 80.5274 131.794 80.5923 131.725C80.974 131.309 81.449 130.989 81.9782 130.792C82.5075 130.594 83.0759 130.525 83.637 130.59C83.7312 130.606 83.8154 130.658 83.871 130.735C83.9267 130.813 83.9494 130.909 83.9341 131.004C83.916 131.099 83.8615 131.183 83.7822 131.238C83.703 131.294 83.6052 131.316 83.5097 131.301C83.0655 131.253 82.6163 131.312 82.1993 131.472C81.7823 131.633 81.4096 131.89 81.1121 132.224C81.0642 132.264 81.0068 132.291 80.9454 132.302C80.8841 132.313 80.8209 132.308 80.762 132.287Z" fill="#1C2D5E"/>
<path d="M90.8636 133.773C90.8046 133.76 90.7501 133.731 90.7055 133.69C90.6609 133.649 90.6276 133.598 90.609 133.54C90.4735 133.117 90.2407 132.731 89.9293 132.415C89.618 132.098 89.2367 131.858 88.8161 131.715C88.7705 131.705 88.7275 131.686 88.6894 131.659C88.6513 131.633 88.6189 131.598 88.5942 131.559C88.5695 131.519 88.553 131.475 88.5455 131.429C88.5381 131.383 88.5399 131.336 88.5508 131.291C88.5735 131.198 88.632 131.118 88.7135 131.068C88.795 131.019 88.893 131.003 88.9858 131.026C89.5271 131.196 90.0202 131.492 90.4242 131.891C90.8282 132.289 91.1315 132.778 91.3092 133.317C91.3398 133.404 91.3347 133.5 91.2949 133.584C91.2552 133.667 91.184 133.732 91.097 133.763C91.0234 133.796 90.9399 133.8 90.8636 133.773Z" fill="#1C2D5E"/>
<path d="M82.077 143.893C81.8044 143.739 81.5453 143.561 81.3026 143.363C81.2845 143.347 81.2701 143.327 81.2602 143.306C81.2502 143.284 81.2451 143.26 81.2451 143.236C81.2451 143.212 81.2502 143.188 81.2602 143.166C81.2701 143.144 81.2845 143.124 81.3026 143.108C81.3393 143.076 81.3864 143.059 81.4352 143.059C81.484 143.059 81.5311 143.076 81.5678 143.108C82.1846 143.612 82.9111 143.964 83.6887 144.135C84.4664 144.307 85.2734 144.293 86.0448 144.095C86.0912 144.081 86.1412 144.086 86.1845 144.107C86.2279 144.129 86.2613 144.166 86.2782 144.212C86.2866 144.235 86.2902 144.26 86.2889 144.286C86.2876 144.311 86.2813 144.335 86.2705 144.358C86.2596 144.381 86.2444 144.401 86.2257 144.418C86.207 144.434 86.1852 144.447 86.1615 144.456C85.4776 144.639 84.7639 144.684 84.0624 144.588C83.3609 144.491 82.6859 144.255 82.077 143.893Z" fill="#1C2D5E"/>
<path d="M71.258 139.13C71.258 139.13 74.8439 139.034 74.1755 135.947C73.5071 132.86 77.2096 130.144 76.8277 126.038C76.8277 126.038 96.8467 131.003 91.9348 120.437C89.9297 116.84 81.8563 116.469 75.7774 116.925C67.7995 117.519 69.3272 122.134 69.3272 122.134C60.6385 123.333 63.121 141.241 71.258 139.13Z" fill="#1C2D5E"/>
<path d="M65.9192 138.45C66.7381 140.141 68.1904 141.441 69.9612 142.068C72.3163 142.864 73.1438 140.349 73.1438 138.493C72.6558 136.435 70.8523 133.517 68.4335 133.708C66.0147 133.899 64.9326 136.36 65.9192 138.45Z" fill="#EEC1BB"/>
</g>
<defs>
<clipPath id="clip0_12955_114518">
<rect width="360" height="320" fill="white" transform="translate(0.111328)"/>
</clipPath>
</defs>
</svg>
