<svg width="36" height="37" viewBox="0 0 36 37" fill="none" xmlns="http://www.w3.org/2000/svg">
<path d="M36 18.9648C36 28.906 27.9411 36.9648 18 36.9648C8.05888 36.9648 0 28.906 0 18.9648C0 9.02372 8.05888 0.964844 18 0.964844C27.9411 0.964844 36 9.02372 36 18.9648Z" fill="#E1E9FE"/>
<path d="M14.9998 15.9646L15.3416 15.0248C14.9764 14.892 14.5675 14.9828 14.2927 15.2575C14.018 15.5322 13.9273 15.9412 14.06 16.3063L14.9998 15.9646ZM18.9998 26.9646L18.06 27.3063C18.2018 27.6961 18.5693 27.9579 18.984 27.9645C19.3986 27.9711 19.7743 27.721 19.9283 27.336L18.9998 26.9646ZM20.9998 21.9646L20.6284 21.0361C20.3743 21.1378 20.173 21.3391 20.0714 21.5932L20.9998 21.9646ZM25.9998 19.9646L26.3712 20.8931C26.7563 20.7391 27.0063 20.3634 26.9997 19.9487C26.9931 19.5341 26.7313 19.1665 26.3416 19.0248L25.9998 19.9646ZM25.2927 27.6717C25.6832 28.0622 26.3164 28.0622 26.7069 27.6717C27.0975 27.2812 27.0975 26.648 26.7069 26.2575L25.2927 27.6717ZM14.154 8.94431C14.011 8.41084 13.4627 8.09426 12.9292 8.2372C12.3958 8.38014 12.0792 8.92848 12.2221 9.46194L14.154 8.94431ZM12.9986 12.3597C13.1415 12.8932 13.6899 13.2098 14.2233 13.0668C14.7568 12.9239 15.0734 12.3755 14.9304 11.8421L12.9986 12.3597ZM10.8772 15.8952C11.4107 16.0382 11.959 15.7216 12.102 15.1881C12.2449 14.6547 11.9283 14.1063 11.3949 13.9634L10.8772 15.8952ZM8.4971 13.1869C7.96363 13.044 7.4153 13.3606 7.27236 13.894C7.12941 14.4275 7.446 14.9758 7.97946 15.1188L8.4971 13.1869ZM20.6566 11.722C21.0472 11.3315 21.0472 10.6983 20.6566 10.3078C20.2661 9.91726 19.633 9.91726 19.2424 10.3078L20.6566 11.722ZM17.1211 12.4291C16.7306 12.8196 16.7306 13.4528 17.1211 13.8433C17.5116 14.2338 18.1448 14.2338 18.5353 13.8433L17.1211 12.4291ZM12.8786 19.5001C13.2691 19.1096 13.2691 18.4764 12.8786 18.0859C12.488 17.6953 11.8549 17.6953 11.4644 18.0859L12.8786 19.5001ZM9.34303 20.2072C8.95251 20.5977 8.95251 21.2309 9.34303 21.6214C9.73356 22.0119 10.3667 22.0119 10.7572 21.6214L9.34303 20.2072ZM14.06 16.3063L18.06 27.3063L19.9396 26.6229L15.9396 15.6229L14.06 16.3063ZM19.9283 27.336L21.9283 22.336L20.0714 21.5932L18.0714 26.5932L19.9283 27.336ZM21.3712 22.8931L26.3712 20.8931L25.6284 19.0361L20.6284 21.0361L21.3712 22.8931ZM26.3416 19.0248L15.3416 15.0248L14.6581 16.9044L25.6581 20.9044L26.3416 19.0248ZM20.2927 22.6717L25.2927 27.6717L26.7069 26.2575L21.7069 21.2575L20.2927 22.6717ZM12.2221 9.46194L12.9986 12.3597L14.9304 11.8421L14.154 8.94431L12.2221 9.46194ZM11.3949 13.9634L8.4971 13.1869L7.97946 15.1188L10.8772 15.8952L11.3949 13.9634ZM19.2424 10.3078L17.1211 12.4291L18.5353 13.8433L20.6566 11.722L19.2424 10.3078ZM11.4644 18.0859L9.34303 20.2072L10.7572 21.6214L12.8786 19.5001L11.4644 18.0859Z" fill="#4A75F7"/>
</svg>
