<svg width="36" height="37" viewBox="0 0 36 37" fill="none" xmlns="http://www.w3.org/2000/svg">
<path d="M36 18.5273C36 28.4685 27.9411 36.5273 18 36.5273C8.05888 36.5273 0 28.4685 0 18.5273C0 8.58622 8.05888 0.527344 18 0.527344C27.9411 0.527344 36 8.58622 36 18.5273Z" fill="#E1E9FE"/>
<path d="M28 26.5273V27.5273C28.5523 27.5273 29 27.0796 29 26.5273H28ZM8 26.5273H7C7 27.0796 7.44772 27.5273 8 27.5273V26.5273ZM22.6438 22.6702L21.7154 23.0418L22.6438 22.6702ZM20 13.5273C20 14.6319 19.1046 15.5273 18 15.5273V17.5273C20.2091 17.5273 22 15.7365 22 13.5273H20ZM18 15.5273C16.8954 15.5273 16 14.6319 16 13.5273H14C14 15.7365 15.7909 17.5273 18 17.5273V15.5273ZM16 13.5273C16 12.4228 16.8954 11.5273 18 11.5273V9.52734C15.7909 9.52734 14 11.3182 14 13.5273H16ZM18 11.5273C19.1046 11.5273 20 12.4228 20 13.5273H22C22 11.3182 20.2091 9.52734 18 9.52734V11.5273ZM26 16.5273C26 17.0796 25.5523 17.5273 25 17.5273V19.5273C26.6569 19.5273 28 18.1842 28 16.5273H26ZM25 17.5273C24.4477 17.5273 24 17.0796 24 16.5273H22C22 18.1842 23.3431 19.5273 25 19.5273V17.5273ZM24 16.5273C24 15.9751 24.4477 15.5273 25 15.5273V13.5273C23.3431 13.5273 22 14.8705 22 16.5273H24ZM25 15.5273C25.5523 15.5273 26 15.9751 26 16.5273H28C28 14.8705 26.6569 13.5273 25 13.5273V15.5273ZM12 16.5273C12 17.0796 11.5523 17.5273 11 17.5273V19.5273C12.6569 19.5273 14 18.1842 14 16.5273H12ZM11 17.5273C10.4477 17.5273 10 17.0796 10 16.5273H8C8 18.1842 9.34315 19.5273 11 19.5273V17.5273ZM10 16.5273C10 15.9751 10.4477 15.5273 11 15.5273V13.5273C9.34315 13.5273 8 14.8705 8 16.5273H10ZM11 15.5273C11.5523 15.5273 12 15.9751 12 16.5273H14C14 14.8705 12.6569 13.5273 11 13.5273V15.5273ZM25 22.5273C26.1046 22.5273 27 23.4228 27 24.5273H29C29 22.3182 27.2091 20.5273 25 20.5273V22.5273ZM27 24.5273V26.5273H29V24.5273H27ZM28 25.5273H23V27.5273H28V25.5273ZM9 24.5273C9 23.4228 9.89543 22.5273 11 22.5273V20.5273C8.79086 20.5273 7 22.3182 7 24.5273H9ZM13 25.5273H8V27.5273H13V25.5273ZM9 26.5273V24.5273H7V26.5273H9ZM12 24.5273V26.5273H14V24.5273H12ZM13 27.5273H23V25.5273H13V27.5273ZM24 26.5273V24.5273H22V26.5273H24ZM14 24.5273C14 24.0005 14.1013 23.4998 14.2846 23.0418L12.4279 22.2986C12.1515 22.989 12 23.7417 12 24.5273H14ZM14.2846 23.0418C14.8752 21.5666 16.3174 20.5273 18 20.5273V18.5273C15.4722 18.5273 13.3118 20.0902 12.4279 22.2986L14.2846 23.0418ZM11 22.5273C11.6366 22.5273 12.2034 22.8236 12.5713 23.2898L14.1412 22.0507C13.4104 21.1247 12.2746 20.5273 11 20.5273V22.5273ZM18 20.5273C19.6826 20.5273 21.1248 21.5666 21.7154 23.0418L23.5721 22.2986C22.6882 20.0902 20.5278 18.5273 18 18.5273V20.5273ZM21.7154 23.0418C21.8987 23.4998 22 24.0005 22 24.5273H24C24 23.7417 23.8485 22.989 23.5721 22.2986L21.7154 23.0418ZM23.4287 23.2898C23.7966 22.8236 24.3634 22.5273 25 22.5273V20.5273C23.7254 20.5273 22.5896 21.1247 21.8588 22.0507L23.4287 23.2898Z" fill="#4A75F7"/>
</svg>
