<svg width="94" height="111" viewBox="0 0 94 111" fill="none" xmlns="http://www.w3.org/2000/svg">
<path d="M46.8 110.263C72.4277 110.263 93.2031 109.051 93.2031 107.554C93.2031 106.058 72.4277 104.845 46.8 104.845C21.1723 104.845 0.396973 106.058 0.396973 107.554C0.396973 109.051 21.1723 110.263 46.8 110.263Z" fill="#B2C610"/>
<path d="M5.47468 77.3164H5.23535V80.533H5.47468V77.3164Z" fill="#FF5C8A"/>
<path d="M5.47468 81.4908H5.23535V82.8215H5.47468V81.4908Z" fill="#FF5C8A"/>
<path d="M6.07373 65.5603H45.2108V107.555H7.19378C6.89736 107.555 6.61308 107.437 6.40348 107.228C6.19388 107.018 6.07612 106.734 6.07612 106.437V65.5603H6.07373Z" fill="#FF5C8A"/>
<path opacity="0.2" d="M45.2108 65.5603H6.07373V68.5375H28.592L29.3387 107.555L29.8604 68.5375H45.2108V65.5603Z" fill="#1C2D5E"/>
<path d="M5.73586 59.1783H45.2104V67.6888H5.73586C5.58797 67.6888 5.44613 67.6301 5.34155 67.5255C5.23698 67.4209 5.17823 67.2791 5.17823 67.1312V59.7384C5.17791 59.6649 5.1921 59.5922 5.21999 59.5242C5.24787 59.4563 5.28889 59.3946 5.34071 59.3425C5.39252 59.2905 5.4541 59.2492 5.52191 59.221C5.58972 59.1928 5.66243 59.1783 5.73586 59.1783Z" fill="#FF5C8A"/>
<path d="M21.1436 107.556L20.7344 59.1783H29.2448L29.6517 107.556H21.1436Z" fill="#1C2D5E"/>
<path d="M60.6351 107.555H45.2201V65.5602H61.7456V106.437C61.7456 106.732 61.6288 107.016 61.4208 107.225C61.2127 107.434 60.9303 107.553 60.6351 107.555Z" fill="#FF5C8A"/>
<path opacity="0.2" d="M60.6351 107.555H45.2201V65.5602H61.7456V106.437C61.7456 106.732 61.6288 107.016 61.4208 107.225C61.2127 107.434 60.9303 107.553 60.6351 107.555Z" fill="#1C2D5E"/>
<path opacity="0.2" d="M45.21 65.5603H61.7427V68.5375H52.5166L51.2625 107.555L51.399 68.5375H45.21V65.5603Z" fill="#1C2D5E"/>
<path d="M62.083 67.688H45.2104V59.1775H62.083C62.1562 59.1775 62.2287 59.192 62.2964 59.22C62.364 59.248 62.4255 59.2891 62.4773 59.3409C62.5291 59.3926 62.5701 59.4541 62.5982 59.5218C62.6262 59.5894 62.6406 59.6619 62.6406 59.7352V67.128C62.6409 67.2014 62.6267 67.2742 62.5989 67.3421C62.571 67.41 62.53 67.4718 62.4781 67.5238C62.4263 67.5759 62.3647 67.6171 62.2969 67.6453C62.2291 67.6735 62.1564 67.688 62.083 67.688Z" fill="#FF5C8A"/>
<path opacity="0.2" d="M62.083 67.688H45.2104V59.1775H62.083C62.1562 59.1775 62.2287 59.192 62.2964 59.22C62.364 59.248 62.4255 59.2891 62.4773 59.3409C62.5291 59.3926 62.5701 59.4541 62.5982 59.5218C62.6262 59.5894 62.6406 59.6619 62.6406 59.7352V67.128C62.6409 67.2014 62.6267 67.2742 62.5989 67.3421C62.571 67.41 62.53 67.4718 62.4781 67.5238C62.4263 67.5759 62.3647 67.6171 62.2969 67.6453C62.2291 67.6735 62.1564 67.688 62.083 67.688Z" fill="#1C2D5E"/>
<path d="M51.2627 107.556L51.9759 59.1783H57.2866L56.5734 107.556H51.2627Z" fill="#1C2D5E"/>
<path opacity="0.2" d="M51.2627 107.556L51.9759 59.1783H57.2866L56.5734 107.556H51.2627Z" fill="#1C2D5E"/>
<path d="M54.0347 43.1184V43.1064H47.0726C46.6719 43.1398 46.2809 43.2469 45.9191 43.4224C38.8589 46.3804 35.427 54.1322 33.9097 59.1677H41.032C41.032 59.1677 57.8878 42.6398 54.0347 43.1184Z" fill="#1C2D5E"/>
<path opacity="0.5" d="M41.0317 59.1776C41.0317 52.6368 45.981 46.3904 53.0412 43.4323C60.1013 40.4743 41.0317 59.1776 41.0317 59.1776Z" fill="#1C2D5E"/>
<path d="M55.8537 47.2616H50.6867C50.3569 47.29 50.0337 47.3708 49.7294 47.5009C43.6409 49.698 38.8711 55.4538 36.2983 59.1921H41.5875C41.5875 59.1921 58.8525 46.9026 55.8537 47.2616Z" fill="#1C2D5E"/>
<path opacity="0.5" d="M41.5967 59.1786C44.0881 52.7168 48.9392 49.6845 55.0277 47.4875C61.1162 45.2905 41.5967 59.1786 41.5967 59.1786Z" fill="#1C2D5E"/>
<path d="M21.0599 41.0775V41.0631H14.0811C13.9532 41.0607 13.827 41.0924 13.7155 41.1551C13.604 41.2178 13.5112 41.3092 13.4469 41.4197C11.269 44.7535 20.6267 53.4961 27.4307 59.1754H34.5531C34.5531 59.1754 24.1185 40.5342 21.0599 41.0775Z" fill="#1C2D5E"/>
<path opacity="0.5" d="M34.5535 59.1782C27.759 53.499 18.3918 44.7564 20.5697 41.4225C22.7475 38.0887 34.5535 59.1782 34.5535 59.1782Z" fill="#1C2D5E"/>
<path d="M28.3356 45.7515H23.1566C23.0522 45.7541 22.9495 45.7789 22.8554 45.8243C22.7613 45.8697 22.678 45.9346 22.6109 46.0148C20.3038 48.4918 25.4446 54.9847 29.3121 59.1993H34.594C34.594 59.1993 30.7169 45.3351 28.3356 45.7515Z" fill="#1C2D5E"/>
<path opacity="0.5" d="M34.5937 59.1774C30.7262 54.9605 25.5831 48.47 27.8926 45.9929C30.2021 43.5159 34.5937 59.1774 34.5937 59.1774Z" fill="#1C2D5E"/>
<path d="M41.7876 32.9942C46.1406 28.6413 46.1406 21.5838 41.7876 17.2309C37.4347 12.8779 30.3772 12.8779 26.0243 17.2309C21.6713 21.5838 21.6713 28.6413 26.0243 32.9942C30.3772 37.3472 37.4347 37.3472 41.7876 32.9942Z" fill="#1C2D5E"/>
<path opacity="0.4" d="M41.7876 32.9942C46.1406 28.6413 46.1406 21.5838 41.7876 17.2309C37.4347 12.8779 30.3772 12.8779 26.0243 17.2309C21.6713 21.5838 21.6713 28.6413 26.0243 32.9942C30.3772 37.3472 37.4347 37.3472 41.7876 32.9942Z" fill="#1C2D5E"/>
<path opacity="0.2" d="M43.1342 26.6853C44.0035 21.5896 40.5771 16.754 35.4813 15.8848C30.3856 15.0156 25.55 18.4419 24.6808 23.5377C23.8116 28.6335 27.2379 33.469 32.3337 34.3382C37.4295 35.2075 42.265 31.7811 43.1342 26.6853Z" fill="#1C2D5E"/>
<path d="M43.5808 26.008C43.9282 21.0455 40.1869 16.741 35.2244 16.3936C30.2618 16.0462 25.9573 19.7875 25.6099 24.75C25.2626 29.7126 29.0039 34.0171 33.9664 34.3645C38.9289 34.7118 43.2334 30.9705 43.5808 26.008Z" fill="#1C2D5E"/>
<path opacity="0.4" d="M43.5808 26.008C43.9282 21.0455 40.1869 16.741 35.2244 16.3936C30.2618 16.0462 25.9573 19.7875 25.6099 24.75C25.2626 29.7126 29.0039 34.0171 33.9664 34.3645C38.9289 34.7118 43.2334 30.9705 43.5808 26.008Z" fill="#1C2D5E"/>
<path d="M37.6071 24.2539L38.1936 26.7956C38.2185 26.8926 38.2229 26.9938 38.2066 27.0926C38.1903 27.1915 38.1537 27.2858 38.0989 27.3698C38.0457 27.4555 37.9759 27.5298 37.8935 27.5881C37.8112 27.6464 37.718 27.6876 37.6194 27.7093L35.3844 28.2259L35.796 30.0143C35.8202 30.111 35.8239 30.2117 35.8069 30.3098C35.7899 30.408 35.7525 30.5016 35.6972 30.5844C35.644 30.6688 35.574 30.7412 35.4915 30.7972C35.4089 30.8532 35.3157 30.8914 35.2177 30.9096C35.1195 30.9342 35.0173 30.9389 34.9173 30.9233C34.8172 30.9078 34.7213 30.8723 34.6352 30.819C34.5495 30.7686 34.4751 30.7008 34.417 30.62C34.3589 30.5392 34.3183 30.4472 34.2977 30.3498L33.8861 28.5408L31.6696 29.0532C31.5741 29.0763 31.4749 29.0798 31.378 29.0635C31.2811 29.0473 31.1884 29.0116 31.1057 28.9586C31.0197 28.9081 30.9451 28.8404 30.8867 28.7596C30.8282 28.6788 30.7872 28.5868 30.7661 28.4893C30.7427 28.3932 30.739 28.2933 30.7553 28.1956C30.7716 28.098 30.8074 28.0047 30.8608 27.9213C30.9117 27.8361 30.9796 27.7623 31.0603 27.7046C31.1411 27.6468 31.2329 27.6064 31.33 27.5859L36.5163 26.3901L36.2734 25.3343L31.1016 26.526C31.0058 26.5504 30.9061 26.5551 30.8085 26.5399C30.7109 26.5247 30.6173 26.4899 30.5335 26.4375C30.4476 26.3859 30.3734 26.317 30.3157 26.2351C30.2579 26.1533 30.2179 26.0603 30.1981 25.9621L29.6136 23.4307C29.5686 23.2361 29.6027 23.0316 29.7085 22.8622C29.8142 22.6927 29.9829 22.5722 30.1775 22.5272L32.3837 22.0188L31.9721 20.2283C31.9483 20.1337 31.9436 20.0352 31.9585 19.9387C31.9733 19.8422 32.0073 19.7496 32.0586 19.6665C32.1128 19.5764 32.1857 19.499 32.2723 19.4394C32.3589 19.3798 32.4572 19.3393 32.5607 19.3207C32.6559 19.2976 32.7548 19.2941 32.8514 19.3103C32.948 19.3266 33.0402 19.3624 33.1226 19.4154C33.2071 19.4674 33.2802 19.5359 33.3375 19.6169C33.3948 19.6979 33.4351 19.7897 33.456 19.8867L33.8676 21.6751L36.1314 21.1565C36.2294 21.1328 36.3311 21.1291 36.4305 21.1458C36.5299 21.1624 36.6249 21.1989 36.7097 21.2532C36.7956 21.3026 36.8703 21.3692 36.9291 21.4489C36.9879 21.5287 37.0296 21.6197 37.0514 21.7163C37.0947 21.9153 37.0585 22.1234 36.9504 22.2961C36.8424 22.4688 36.671 22.5924 36.4731 22.6404L31.2868 23.8361L31.5132 24.8857L36.6809 23.6941C36.7789 23.6704 36.8806 23.6667 36.98 23.6833C37.0794 23.7 37.1744 23.7365 37.2592 23.7908C37.3465 23.8392 37.4226 23.9055 37.4825 23.9853C37.5424 24.0651 37.5849 24.1566 37.6071 24.2539Z" fill="#1C2D5E"/>
<g opacity="0.7">
<path d="M37.608 24.2536L38.1946 26.7953C38.2195 26.8924 38.2239 26.9935 38.2076 27.0924C38.1913 27.1912 38.1546 27.2856 38.0999 27.3695C38.0467 27.4553 37.9769 27.5295 37.8945 27.5878C37.8122 27.6462 37.7189 27.6874 37.6204 27.7091L35.3853 28.2257L35.7969 30.0141C35.8212 30.1108 35.8249 30.2114 35.8079 30.3096C35.7909 30.4078 35.7535 30.5013 35.6982 30.5842C35.645 30.6685 35.575 30.741 35.4924 30.7969C35.4099 30.8529 35.3167 30.8912 35.2186 30.9094C35.1204 30.934 35.0183 30.9386 34.9183 30.9231C34.8182 30.9075 34.7223 30.8721 34.6362 30.8188C34.5504 30.7683 34.4761 30.7005 34.418 30.6197C34.3599 30.539 34.3193 30.4469 34.2987 30.3496L33.8871 28.5405L31.6706 29.053C31.575 29.0761 31.4758 29.0796 31.3789 29.0633C31.282 29.047 31.1894 29.0113 31.1067 28.9583C31.0207 28.9079 30.9461 28.8401 30.8876 28.7593C30.8292 28.6786 30.7881 28.5865 30.7671 28.4891C30.7437 28.3929 30.74 28.293 30.7563 28.1954C30.7725 28.0978 30.8084 28.0044 30.8618 27.9211C30.9126 27.8358 30.9806 27.762 31.0613 27.7043C31.1421 27.6466 31.2339 27.6062 31.331 27.5856L36.5173 26.3899L36.2744 25.3341L31.1025 26.5257C31.0068 26.5501 30.9071 26.5549 30.8095 26.5397C30.7118 26.5245 30.6183 26.4896 30.5345 26.4372C30.4486 26.3857 30.3744 26.3168 30.3167 26.2349C30.2589 26.153 30.2188 26.06 30.1991 25.9618L29.6146 23.4304C29.5696 23.2358 29.6037 23.0313 29.7095 22.8619C29.8152 22.6925 29.9839 22.572 30.1785 22.5269L32.3847 22.0186L31.9731 20.2281C31.9492 20.1334 31.9446 20.0349 31.9594 19.9384C31.9743 19.8419 32.0083 19.7494 32.0595 19.6662C32.1138 19.5762 32.1867 19.4988 32.2733 19.4392C32.3599 19.3795 32.4582 19.3391 32.5617 19.3205C32.6569 19.2974 32.7558 19.2938 32.8524 19.3101C32.9489 19.3264 33.0412 19.3621 33.1235 19.4152C33.2081 19.4671 33.2812 19.5357 33.3385 19.6167C33.3958 19.6977 33.4361 19.7895 33.457 19.8865L33.8686 21.6749L36.1324 21.1563C36.2303 21.1326 36.3321 21.1289 36.4315 21.1455C36.5308 21.1621 36.6258 21.1987 36.7107 21.253C36.7966 21.3024 36.8713 21.369 36.9301 21.4487C36.9889 21.5284 37.0305 21.6194 37.0524 21.7161C37.0957 21.9151 37.0595 22.1232 36.9514 22.2959C36.8434 22.4686 36.672 22.5921 36.474 22.6401L31.2878 23.8358L31.5142 24.8854L36.6819 23.6938C36.7798 23.6701 36.8816 23.6665 36.981 23.6831C37.0803 23.6997 37.1753 23.7363 37.2602 23.7906C37.3475 23.839 37.4236 23.9052 37.4835 23.985C37.5434 24.0648 37.5859 24.1563 37.608 24.2536Z" fill="white"/>
</g>
<path d="M57.6912 16.2476C60.4644 12.966 60.0522 8.05765 56.7706 5.28448C53.489 2.5113 48.5806 2.92347 45.8074 6.20508C43.0342 9.4867 43.4464 14.3951 46.728 17.1683C50.0096 19.9414 54.918 19.5293 57.6912 16.2476Z" fill="#1C2D5E"/>
<path opacity="0.4" d="M57.6912 16.2476C60.4644 12.966 60.0522 8.05765 56.7706 5.28448C53.489 2.5113 48.5806 2.92347 45.8074 6.20508C43.0342 9.4867 43.4464 14.3951 46.728 17.1683C50.0096 19.9414 54.918 19.5293 57.6912 16.2476Z" fill="#1C2D5E"/>
<path opacity="0.2" d="M56.785 15.3825C59.0837 12.6019 58.693 8.48444 55.9124 6.1858C53.1319 3.88716 49.0144 4.27783 46.7158 7.05838C44.4171 9.83893 44.8078 13.9564 47.5883 16.2551C50.3689 18.5537 54.4864 18.163 56.785 15.3825Z" fill="#1C2D5E"/>
<path d="M56.982 15.4516C59.0851 12.6999 58.5593 8.7644 55.8076 6.66135C53.056 4.5583 49.1204 5.08411 47.0174 7.83578C44.9143 10.5874 45.4401 14.523 48.1918 16.626C50.9435 18.7291 54.879 18.2033 56.982 15.4516Z" fill="#1C2D5E"/>
<path opacity="0.4" d="M56.982 15.4516C59.0851 12.6999 58.5593 8.7644 55.8076 6.66135C53.056 4.5583 49.1204 5.08411 47.0174 7.83578C44.9143 10.5874 45.4401 14.523 48.1918 16.626C50.9435 18.7291 54.879 18.2033 56.982 15.4516Z" fill="#1C2D5E"/>
<path d="M54.321 11.8653L53.8785 13.6311C53.8624 13.6982 53.8325 13.7613 53.7907 13.8162C53.7489 13.8711 53.6961 13.9167 53.6356 13.9501C53.5746 13.9872 53.5066 14.0116 53.4359 14.0219C53.3652 14.0321 53.2931 14.028 53.224 14.0097L51.6825 13.6208L51.3697 14.8556C51.3538 14.9231 51.324 14.9865 51.2822 15.0418C51.2404 15.097 51.1875 15.143 51.1269 15.1766C51.0685 15.2129 51.0034 15.2369 50.9354 15.2471C50.8675 15.2574 50.7982 15.2537 50.7317 15.2363C50.6633 15.2202 50.5987 15.1907 50.5418 15.1493C50.4849 15.108 50.4368 15.0557 50.4004 14.9955C50.3632 14.9368 50.3386 14.871 50.3279 14.8023C50.3173 14.7336 50.321 14.6635 50.3386 14.5963L50.6535 13.3409L49.11 12.9642C49.0431 12.9482 48.9802 12.9188 48.925 12.8778C48.8698 12.8368 48.8235 12.785 48.7889 12.7255C48.7517 12.6672 48.727 12.6018 48.7164 12.5334C48.7058 12.465 48.7094 12.3952 48.7272 12.3283C48.7426 12.2606 48.7717 12.1969 48.8128 12.1409C48.8538 12.085 48.906 12.0381 48.9659 12.0031C49.0251 11.967 49.091 11.9433 49.1596 11.9334C49.2283 11.9235 49.2982 11.9276 49.3652 11.9455L52.9668 12.849L53.152 12.1163L49.5607 11.2149C49.4934 11.1999 49.43 11.1711 49.3744 11.1303C49.3188 11.0896 49.2722 11.0378 49.2376 10.9782C49.2003 10.9195 49.1759 10.8536 49.1659 10.7848C49.156 10.716 49.1608 10.6458 49.1799 10.579L49.6204 8.81934C49.6369 8.75227 49.6667 8.68915 49.7078 8.63364C49.7489 8.57812 49.8006 8.53131 49.86 8.4959C49.9193 8.4605 49.985 8.4372 50.0534 8.42737C50.1218 8.41753 50.1915 8.42135 50.2584 8.4386L51.7854 8.8214L52.0983 7.58657C52.1134 7.51687 52.1428 7.45106 52.1846 7.39328C52.2264 7.3355 52.2797 7.28701 52.3412 7.25085C52.4027 7.2147 52.471 7.19167 52.5418 7.18321C52.6126 7.17475 52.6845 7.18105 52.7527 7.20172C52.8191 7.21708 52.8815 7.24605 52.936 7.28679C52.9906 7.32753 53.0361 7.37915 53.0697 7.43839C53.1061 7.49707 53.1301 7.56256 53.1404 7.63085C53.1507 7.69914 53.1469 7.7688 53.1293 7.83559L52.8165 9.07042L54.3806 9.46351C54.4492 9.4799 54.5138 9.51006 54.5704 9.55216C54.627 9.59426 54.6745 9.64742 54.7099 9.70842C54.7474 9.76624 54.7726 9.83116 54.784 9.89914C54.7953 9.96712 54.7925 10.0367 54.7758 10.1036C54.7586 10.1721 54.7279 10.2366 54.6855 10.2931C54.6431 10.3497 54.5898 10.3972 54.5288 10.4328C54.468 10.4707 54.4002 10.4957 54.3294 10.5063C54.2586 10.5169 54.1864 10.5129 54.1172 10.4946L50.5136 9.59111L50.3325 10.3197L53.9217 11.219C53.9903 11.2354 54.0549 11.2656 54.1115 11.3077C54.1681 11.3498 54.2155 11.4029 54.251 11.4639C54.2906 11.5219 54.3174 11.5878 54.3295 11.657C54.3415 11.7262 54.3386 11.7972 54.321 11.8653Z" fill="#1C2D5E"/>
<g opacity="0.7">
<path d="M54.3205 11.8653L53.878 13.6311C53.8619 13.6982 53.832 13.7613 53.7902 13.8162C53.7484 13.8711 53.6956 13.9167 53.6351 13.9501C53.5741 13.9872 53.5061 14.0116 53.4354 14.0219C53.3647 14.0321 53.2926 14.028 53.2235 14.0097L51.682 13.6208L51.3692 14.8556C51.3533 14.9231 51.3235 14.9865 51.2817 15.0418C51.2399 15.097 51.187 15.143 51.1264 15.1766C51.068 15.2129 51.0029 15.2369 50.9349 15.2471C50.867 15.2574 50.7977 15.2537 50.7312 15.2363C50.6628 15.2202 50.5982 15.1907 50.5413 15.1493C50.4844 15.108 50.4363 15.0557 50.3999 14.9955C50.3627 14.9368 50.3381 14.871 50.3275 14.8023C50.3168 14.7336 50.3205 14.6635 50.3381 14.5963L50.653 13.3409L49.1095 12.9642C49.0426 12.9482 48.9797 12.9188 48.9245 12.8778C48.8693 12.8368 48.823 12.785 48.7884 12.7255C48.7512 12.6672 48.7265 12.6018 48.7159 12.5334C48.7053 12.465 48.7089 12.3952 48.7267 12.3283C48.7421 12.2606 48.7712 12.1969 48.8123 12.1409C48.8533 12.085 48.9055 12.0381 48.9654 12.0031C49.0246 11.967 49.0905 11.9433 49.1591 11.9334C49.2278 11.9235 49.2977 11.9276 49.3647 11.9455L52.9663 12.849L53.1515 12.1163L49.5602 11.2149C49.4929 11.1999 49.4295 11.1711 49.3739 11.1303C49.3183 11.0896 49.2717 11.0378 49.2371 10.9782C49.1998 10.9195 49.1754 10.8536 49.1655 10.7848C49.1555 10.716 49.1603 10.6458 49.1795 10.579L49.6199 8.81934C49.6365 8.75227 49.6662 8.68915 49.7073 8.63364C49.7484 8.57812 49.8001 8.53131 49.8595 8.4959C49.9188 8.4605 49.9846 8.4372 50.0529 8.42737C50.1213 8.41753 50.191 8.42135 50.2579 8.4386L51.7849 8.8214L52.0978 7.58657C52.1129 7.51687 52.1423 7.45106 52.1841 7.39328C52.2259 7.3355 52.2793 7.28701 52.3407 7.25085C52.4022 7.2147 52.4705 7.19167 52.5413 7.18321C52.6122 7.17475 52.684 7.18105 52.7522 7.20172C52.8186 7.21708 52.881 7.24605 52.9355 7.28679C52.9901 7.32753 53.0356 7.37915 53.0692 7.43839C53.1056 7.49707 53.1296 7.56256 53.1399 7.63085C53.1502 7.69914 53.1464 7.7688 53.1289 7.83559L52.816 9.07042L54.3801 9.46351C54.4488 9.4799 54.5133 9.51006 54.5699 9.55216C54.6265 9.59426 54.674 9.64742 54.7094 9.70842C54.7469 9.76624 54.7721 9.83116 54.7835 9.89914C54.7948 9.96712 54.792 10.0367 54.7753 10.1036C54.7581 10.1721 54.7274 10.2366 54.685 10.2931C54.6426 10.3497 54.5893 10.3972 54.5283 10.4328C54.4676 10.4707 54.3997 10.4957 54.3289 10.5063C54.2581 10.5169 54.1859 10.5129 54.1167 10.4946L50.5131 9.59111L50.332 10.3197L53.9212 11.219C53.9898 11.2354 54.0544 11.2656 54.111 11.3077C54.1676 11.3498 54.2151 11.4029 54.2505 11.4639C54.2901 11.5219 54.3169 11.5878 54.329 11.657C54.341 11.7262 54.3381 11.7972 54.3205 11.8653Z" fill="white"/>
</g>
<path d="M73.1706 41.3422C72.5274 43.1579 71.8136 44.9139 71.0564 46.6699C70.29 48.4556 69.4106 50.1907 68.4237 51.8646C68.2907 52.0791 68.1523 52.2935 68.0085 52.5079L67.9026 52.668L67.7588 52.8661C67.6611 52.991 67.5688 53.0995 67.4874 53.2054C67.1454 53.5866 66.783 53.949 66.4017 54.291C65.6771 54.9614 64.9388 55.5693 64.1925 56.1692C62.6943 57.3579 61.1636 58.4707 59.5786 59.5265L58.6313 58.3513L62.621 54.4186C63.2806 53.7645 63.9346 53.105 64.5453 52.4454C64.8466 52.117 65.1397 51.7805 65.3812 51.4711C65.4409 51.3951 65.4925 51.3191 65.5387 51.254L65.5956 51.1617L65.6744 51.0206C65.7802 50.8333 65.8915 50.6515 65.9946 50.4588C66.8251 48.8982 67.5579 47.2019 68.2636 45.4812C68.9692 43.7604 69.6478 42.0261 70.2991 40.3054L73.1706 41.3422Z" fill="#E4897B"/>
<path d="M73.9329 40.0344C74.549 41.8365 70.9284 47.1371 70.9284 47.1371L67.4707 45.2128C68.0599 43.5589 68.7562 41.9452 69.5551 40.3818C70.7656 38.0911 73.2571 38.0558 73.9329 40.0344Z" fill="#FF5C8A"/>
<path opacity="0.7" d="M73.9329 40.0344C74.549 41.8365 70.9284 47.1371 70.9284 47.1371L67.4707 45.2128C68.0599 43.5589 68.7562 41.9452 69.5551 40.3818C70.7656 38.0911 73.2571 38.0558 73.9329 40.0344Z" fill="white"/>
<path opacity="0.31" d="M73.9851 40.2584C73.2089 39.8866 72.316 40.1987 71.3742 41.686C70.4324 43.1733 69.6318 45.6567 69.5449 46.3651L70.9318 47.1332C70.9318 47.1332 74.2728 42.237 73.9851 40.2584Z" fill="#FF5C8A"/>
<path d="M71.5907 38.6553C71.5907 38.6553 69.0069 44.7321 70.8687 56.047H81.63C81.763 54.3942 81.0031 46.3361 82.8676 38.5521C81.683 38.3215 80.4844 38.1692 79.2796 38.0962C77.7565 38.0093 76.2296 38.0093 74.7064 38.0962C73.6551 38.2029 72.6135 38.3898 71.5907 38.6553Z" fill="#FF5C8A"/>
<path opacity="0.7" d="M71.5907 38.6553C71.5907 38.6553 69.0069 44.7321 70.8687 56.047H81.63C81.763 54.3942 81.0031 46.3361 82.8676 38.5521C81.683 38.3215 80.4844 38.1692 79.2796 38.0962C77.7565 38.0093 76.2296 38.0093 74.7064 38.0962C73.6551 38.2029 72.6135 38.3898 71.5907 38.6553Z" fill="white"/>
<path d="M85.4403 104.257L83.8471 105.685L80.8101 102.523L82.4059 101.095L85.4403 104.257Z" fill="#E4897B"/>
<path d="M79.9777 107.226H77.9666L77.7061 102.569H79.7172L79.9777 107.226Z" fill="#E4897B"/>
<path d="M80.8135 102.523L82.3768 104.154L83.9726 102.724L82.4094 101.095L80.8135 102.523Z" fill="#CE6F64"/>
<path d="M79.7172 102.569H77.7061L77.8418 104.971H79.8529L79.7172 102.569Z" fill="#CE6F64"/>
<path d="M70.8687 56.0467C70.8687 56.0467 68.749 70.719 68.027 78.7038C67.4462 85.1117 81.3016 104.216 81.3016 104.216L83.9803 101.695C83.9803 101.695 73.8623 84.5662 74.6412 77.4336C75.3957 70.5263 77.9524 56.0386 77.9524 56.0386L70.8687 56.0467Z" fill="#FF5C8A"/>
<path d="M70.8687 56.0467C70.8687 56.0467 68.749 70.719 68.027 78.7038C67.4462 85.1117 81.3016 104.216 81.3016 104.216L83.9803 101.695C83.9803 101.695 73.8623 84.5662 74.6412 77.4336C75.3957 70.5263 77.9524 56.0386 77.9524 56.0386L70.8687 56.0467Z" fill="#1C2D5E"/>
<path opacity="0.2" d="M74.641 77.442C75.0291 73.8838 75.8976 68.3091 76.644 63.7441C76.2532 62.9787 75.1567 61.429 75.1567 61.429C74.1742 64.8243 72.0382 77.6238 75.0861 94.9097C78.2616 100.028 81.3013 104.224 81.3013 104.224L81.7166 97.6238C78.7827 92.1034 74.1009 82.3734 74.641 77.442Z" fill="#1C2D5E"/>
<path d="M74.6957 56.0471C74.6957 56.0471 74.5057 71.4223 74.8314 77.1843C75.187 83.4918 76.9782 104.393 76.9782 104.393H80.6639C80.6639 104.393 80.5527 84.002 80.7698 77.7597C81.0113 70.9745 81.6356 56.0471 81.6356 56.0471H74.6957Z" fill="#FF5C8A"/>
<path d="M74.6957 56.0471C74.6957 56.0471 74.5057 71.4223 74.8314 77.1843C75.187 83.4918 76.9782 104.393 76.9782 104.393H80.6639C80.6639 104.393 80.5527 84.002 80.7698 77.7597C81.0113 70.9745 81.6356 56.0471 81.6356 56.0471H74.6957Z" fill="#1C2D5E"/>
<path d="M77.8607 106.996H80.1215C80.1592 106.994 80.196 107.008 80.2239 107.033C80.2518 107.059 80.2687 107.094 80.2708 107.132L80.382 108.92C80.3824 108.967 80.3736 109.013 80.356 109.057C80.3385 109.1 80.3126 109.139 80.2798 109.172C80.2471 109.206 80.2081 109.232 80.1651 109.25C80.1221 109.269 80.0759 109.278 80.0292 109.278C79.2421 109.265 78.8649 109.219 77.8715 109.219C77.2609 109.219 74.6608 109.284 73.8167 109.284C72.9726 109.284 73.0025 108.448 73.3526 108.372C74.9566 108.033 76.946 107.558 77.516 107.118C77.6142 107.04 77.7354 106.998 77.8607 106.996Z" fill="#263238"/>
<path d="M83.4074 105.112L85.3452 103.806C85.3769 103.781 85.4161 103.768 85.4565 103.768C85.4969 103.768 85.5361 103.781 85.5678 103.806L87.0497 105.302C87.0786 105.335 87.0999 105.373 87.1122 105.415C87.1244 105.457 87.1273 105.502 87.1205 105.545C87.1138 105.588 87.0976 105.629 87.0732 105.666C87.0488 105.702 87.0166 105.733 86.9791 105.755C85.7415 106.708 84.8486 107.427 84.1429 108.219C83.3287 109.145 82.889 109.278 80.9891 109.278C80.1098 109.278 79.6131 108.537 79.9714 108.423C83.136 107.421 82.2892 106.985 83.06 105.516C83.1404 105.355 83.2598 105.216 83.4074 105.112Z" fill="#263238"/>
<path d="M59.0872 58.0994L56.9893 58.1726L57.4289 59.8174C57.4289 59.8174 59.6219 60.0128 59.8173 59.3506L59.0872 58.0994Z" fill="#E4897B"/>
<path d="M54.7256 59.1525L56.1966 60.0102L57.4288 59.8175L56.9891 58.1727L54.7256 59.1525Z" fill="#E4897B"/>
<path opacity="0.31" d="M80.4636 40.4742C80.241 41.7552 80.5369 44.8167 81.6361 48.3612C81.7221 45.3244 82.0754 42.301 82.6918 39.3261V39.3098C81.9862 39.2393 80.678 39.2718 80.4636 40.4742Z" fill="#FF5C8A"/>
<path d="M79.0056 32.9449C78.6663 34.416 78.2837 37.1138 79.277 38.1017C79.277 38.1017 78.8482 39.3203 76.1124 39.3203C73.1052 39.3203 74.7038 38.1017 74.7038 38.1017C76.3594 37.7109 76.3594 36.4922 76.1124 35.3496L79.0056 32.9449Z" fill="#E4897B"/>
<path d="M77.8278 33.9246L76.1152 35.3413C76.1769 35.6089 76.215 35.8813 76.2292 36.1555C76.8589 36.066 77.7437 35.3766 77.8332 34.7198C77.8812 34.4567 77.8793 34.187 77.8278 33.9246Z" fill="#CE6F64"/>
<path d="M75.4367 27.9566C74.4081 28.3067 73.5857 31.0344 74.7853 31.7563C75.9849 32.4783 77.3908 27.2917 75.4367 27.9566Z" fill="#263238"/>
<path d="M79.649 31.4035C79.0356 33.3033 78.775 34.4514 77.5374 35.2303C77.1382 35.4869 76.6763 35.6295 76.2019 35.6426C75.7275 35.6557 75.2585 35.5388 74.8457 35.3046C74.4329 35.0704 74.092 34.7278 73.8599 34.3138C73.6278 33.8998 73.5133 33.4303 73.5287 32.9559C73.5532 31.1294 74.5519 28.3176 76.6553 27.9648C77.1087 27.8773 77.577 27.9104 78.0135 28.0608C78.45 28.2113 78.8393 28.4737 79.1425 28.822C79.4457 29.1702 79.652 29.5919 79.7409 30.045C79.8298 30.4981 79.7981 30.9665 79.649 31.4035Z" fill="#E4897B"/>
<path d="M81.1682 28.2278C80.5548 29.7097 81.9824 28.4721 81.6133 30.2308C81.3745 31.3762 79.3063 34.1201 78.5084 33.8704C77.7105 33.6207 77.7186 31.6747 78.7364 30.2987C79.3226 29.5089 78.0552 28.6132 75.2081 28.7082C72.361 28.8032 70.6403 27.2019 74.4237 26.0267C74.4237 26.0267 73.0287 26.841 73.8565 27.1124C75.029 27.5493 82.3977 25.2587 81.1682 28.2278Z" fill="#263238"/>
<path d="M80.626 28.9061C80.5961 28.9061 81.2638 28.7405 81.6193 27.5491C81.6193 27.5681 81.5026 29.3241 80.626 28.9061Z" fill="#263238"/>
<path d="M75.2983 26.29C73.5478 26.8329 74.2724 27.4435 74.9971 27.5955L76.6581 26.9441C74.134 27.278 75.2983 26.29 75.2983 26.29Z" fill="#263238"/>
<path d="M79.9858 33.7241C79.6218 34.0778 79.1363 34.2788 78.6288 34.2859C77.9584 34.2859 77.8145 33.6508 78.1755 33.1188C78.4958 32.6411 79.2286 32.0658 79.8202 32.3236C80.4119 32.5814 80.4309 33.2871 79.9858 33.7241Z" fill="#E4897B"/>
<path d="M76.558 31.2976C76.5173 31.455 76.4006 31.569 76.2866 31.5419C76.1726 31.5147 76.1319 31.3709 76.1726 31.2135C76.2133 31.0561 76.33 30.9421 76.444 30.9719C76.558 31.0018 76.5987 31.1402 76.558 31.2976Z" fill="#263238"/>
<path d="M74.7665 30.9042C74.7258 31.0616 74.6091 31.1756 74.4951 31.1484C74.3811 31.1213 74.3404 30.9801 74.3811 30.8227C74.4218 30.6653 74.5358 30.5513 74.6525 30.5785C74.7692 30.6056 74.7991 30.7467 74.7665 30.9042Z" fill="#263238"/>
<path d="M75.3146 31.1074C75.0061 31.5468 74.6411 31.9438 74.229 32.288C74.3197 32.3888 74.4313 32.4684 74.556 32.5214C74.6807 32.5744 74.8155 32.5994 74.9509 32.5947L75.3146 31.1074Z" fill="#DE5753"/>
<path d="M75.6128 33.1671C75.5004 33.167 75.3884 33.1542 75.2789 33.1291C75.2669 33.1259 75.2565 33.1182 75.25 33.1076C75.2434 33.097 75.2412 33.0843 75.2437 33.0721C75.2469 33.0601 75.2546 33.0497 75.2652 33.0431C75.2757 33.0366 75.2885 33.0343 75.3007 33.0368C75.5005 33.0813 75.7079 33.08 75.9072 33.033C76.1064 32.986 76.2925 32.8945 76.4514 32.7654C76.4605 32.7566 76.4727 32.7517 76.4853 32.7517C76.498 32.7517 76.5102 32.7566 76.5193 32.7654C76.5281 32.7745 76.533 32.7867 76.533 32.7993C76.533 32.812 76.5281 32.8242 76.5193 32.8333C76.2673 33.0502 75.9453 33.1688 75.6128 33.1671Z" fill="#263238"/>
<path d="M77.269 30.8449C77.2505 30.8452 77.2323 30.8399 77.2168 30.8297C77.2013 30.8196 77.1893 30.805 77.1822 30.7879C77.1376 30.679 77.0675 30.5824 76.9777 30.5064C76.888 30.4303 76.7812 30.377 76.6665 30.3509C76.654 30.3492 76.6419 30.3451 76.631 30.3387C76.6201 30.3323 76.6106 30.3238 76.603 30.3137C76.5954 30.3036 76.5899 30.2921 76.5868 30.2798C76.5838 30.2676 76.5832 30.2548 76.5851 30.2423C76.5891 30.2173 76.6027 30.1949 76.6229 30.1797C76.6432 30.1645 76.6685 30.1578 76.6937 30.1609C76.8399 30.1907 76.9766 30.2557 77.092 30.3503C77.2074 30.4449 77.298 30.5662 77.3559 30.7037C77.3612 30.7151 77.3642 30.7274 77.3646 30.7399C77.365 30.7525 77.3629 30.765 77.3583 30.7767C77.3538 30.7883 77.3468 30.799 77.338 30.8079C77.3292 30.8168 77.3187 30.8239 77.307 30.8286C77.2957 30.8367 77.2827 30.8423 77.269 30.8449Z" fill="#263238"/>
<path d="M74.1615 30.1253C74.1397 30.1251 74.1186 30.1175 74.1018 30.1036C74.0822 30.0872 74.0699 30.0638 74.0674 30.0385C74.0648 30.0131 74.0723 29.9878 74.0882 29.9679C74.1838 29.8489 74.3055 29.7535 74.4438 29.689C74.5822 29.6246 74.7335 29.5928 74.8861 29.5961C74.8986 29.5971 74.9108 29.6006 74.9219 29.6063C74.9331 29.6121 74.9429 29.62 74.951 29.6295C74.9591 29.6391 74.9652 29.6502 74.969 29.6622C74.9727 29.6741 74.9741 29.6867 74.973 29.6992C74.9723 29.7118 74.9691 29.7242 74.9635 29.7355C74.9578 29.7468 74.9499 29.7569 74.9403 29.765C74.9306 29.7731 74.9193 29.7792 74.9072 29.7828C74.8951 29.7865 74.8824 29.7875 74.8698 29.786C74.7478 29.7848 74.6271 29.8115 74.5169 29.8642C74.4068 29.9169 74.3103 29.9941 74.2347 30.09C74.226 30.1011 74.2149 30.1101 74.2022 30.1162C74.1895 30.1223 74.1756 30.1254 74.1615 30.1253Z" fill="#263238"/>
<path d="M83.3889 39.9397C83.6005 40.2681 83.777 40.5585 83.9561 40.8733C84.1352 41.1882 84.3062 41.4921 84.4745 41.807C84.8056 42.4339 85.1177 43.0744 85.4027 43.7285C86.0005 45.0676 86.4492 46.4683 86.7407 47.9055L86.7679 48.0439L86.7814 48.1118L86.8004 48.2257C86.8235 48.3776 86.8353 48.5309 86.8357 48.6844C86.833 48.9416 86.8058 49.1979 86.7543 49.4498C86.6624 49.8654 86.5297 50.2708 86.358 50.6603C86.0533 51.3427 85.6901 51.9974 85.2724 52.6171C84.4829 53.7955 83.5852 54.8977 82.5909 55.9093L81.4103 54.9621C82.0671 53.8167 82.7212 52.628 83.2694 51.4636C83.539 50.9068 83.7693 50.3318 83.9588 49.7429C84.0363 49.4973 84.089 49.2445 84.1162 48.9884C84.1257 48.9045 84.1257 48.8199 84.1162 48.736C84.1162 48.7116 84.1162 48.6899 84.0999 48.6871C84.0837 48.6844 84.0999 48.6871 84.0999 48.6736L84.0837 48.6193L84.0511 48.508C83.8796 47.9094 83.6757 47.3204 83.4404 46.7439C83.2016 46.1549 82.9356 45.5687 82.6561 44.9852C82.3765 44.4016 82.0752 43.8262 81.7658 43.2509C81.6139 42.9632 81.4537 42.6782 81.2936 42.3959L80.8159 41.5817L83.3889 39.9397Z" fill="#E4897B"/>
<path d="M77.1495 107.344C77.0141 107.357 76.8784 107.319 76.7695 107.238C76.7389 107.204 76.7173 107.162 76.7068 107.118C76.6964 107.073 76.6974 107.027 76.7098 106.983C76.7158 106.953 76.7292 106.925 76.7486 106.902C76.768 106.879 76.7929 106.861 76.8211 106.85C77.0681 106.752 77.6353 107.143 77.7005 107.186C77.7085 107.191 77.7147 107.199 77.7182 107.207C77.7216 107.216 77.722 107.226 77.7195 107.235C77.7181 107.244 77.7139 107.253 77.7077 107.259C77.7014 107.266 77.6932 107.271 77.6842 107.273C77.5089 107.315 77.3297 107.339 77.1495 107.344ZM76.9134 106.928C76.8945 106.925 76.8753 106.925 76.8564 106.928C76.8426 106.933 76.8304 106.942 76.8213 106.954C76.8122 106.965 76.8065 106.979 76.8048 106.993C76.795 107.022 76.7928 107.052 76.7985 107.082C76.8042 107.112 76.8176 107.139 76.8374 107.162C76.9297 107.254 77.1929 107.265 77.5539 107.194C77.362 107.061 77.1434 106.971 76.9134 106.931V106.928Z" fill="white"/>
<path d="M77.6729 107.275H77.6485C77.4476 107.155 77.1491 106.732 77.1952 106.515C77.2032 106.475 77.2245 106.439 77.2555 106.413C77.2866 106.387 77.3256 106.372 77.3662 106.371C77.402 106.366 77.4384 106.37 77.4726 106.381C77.5069 106.392 77.5383 106.411 77.5643 106.436C77.7679 106.634 77.7217 107.212 77.7217 107.237C77.7207 107.245 77.7177 107.252 77.713 107.259C77.7083 107.266 77.7019 107.271 77.6946 107.275H77.6729ZM77.4015 106.46H77.3798C77.3119 106.46 77.2956 106.501 77.2902 106.528C77.2603 106.672 77.4585 106.99 77.6322 107.136C77.6572 106.916 77.6116 106.694 77.5019 106.501C77.4883 106.488 77.4721 106.477 77.4544 106.47C77.4367 106.463 77.4178 106.46 77.3988 106.46H77.4015Z" fill="white"/>
<path d="M82.1054 106.203C82.0552 106.205 82.0052 106.195 81.9589 106.176C81.9231 106.162 81.8913 106.139 81.8663 106.11C81.8412 106.08 81.8236 106.045 81.815 106.008C81.8081 105.985 81.8072 105.961 81.8124 105.937C81.8177 105.914 81.8288 105.892 81.8449 105.875C82.0267 105.655 82.9794 105.72 83.0879 105.728C83.098 105.728 83.1077 105.732 83.1156 105.738C83.1234 105.745 83.129 105.754 83.1313 105.763C83.1334 105.773 83.1325 105.783 83.1286 105.793C83.1247 105.802 83.1181 105.81 83.1096 105.815C82.8065 106.015 82.4641 106.147 82.1054 106.203ZM82.6808 105.807C82.347 105.807 81.9969 105.839 81.9182 105.934C81.9136 105.942 81.9112 105.95 81.9112 105.959C81.9112 105.967 81.9136 105.976 81.9182 105.983C81.9227 106.007 81.933 106.029 81.9482 106.047C81.9633 106.066 81.9829 106.08 82.005 106.089C82.157 106.152 82.499 106.048 82.9305 105.818L82.6808 105.807Z" fill="white"/>
<path d="M83.0854 105.823C82.814 105.823 82.2034 105.614 82.1572 105.397C82.1572 105.343 82.1572 105.267 82.2875 105.205C82.7543 104.985 83.1153 105.723 83.1316 105.747C83.1349 105.755 83.1366 105.764 83.1366 105.772C83.1366 105.78 83.1349 105.789 83.1316 105.796C83.1271 105.805 83.1204 105.812 83.1123 105.816C83.1042 105.821 83.0949 105.824 83.0854 105.823ZM82.4585 105.262C82.4124 105.261 82.3669 105.271 82.3255 105.292C82.2685 105.319 82.2414 105.349 82.2468 105.376C82.2739 105.503 82.7136 105.682 83.0013 105.72C82.9145 105.574 82.7055 105.262 82.4585 105.262Z" fill="white"/>
<path d="M81.9477 54.5221L79.9556 54.172L80.9842 56.4925C80.9842 56.4925 82.8108 56.4925 82.7293 55.5372L81.9477 54.5221Z" fill="#E4897B"/>
<path d="M78.4492 55.339L79.391 57.2118L80.9733 56.4925L79.9447 54.172L78.4492 55.339Z" fill="#E4897B"/>
<path d="M84.1433 101.551L81.1388 104.379L80.1699 103.339L83.6086 100.207L84.1433 101.551Z" fill="#FF5C8A"/>
<path opacity="0.6" d="M84.1433 101.551L81.1388 104.379L80.1699 103.339L83.6086 100.207L84.1433 101.551Z" fill="white"/>
<path d="M80.8112 104.392H76.8297L76.6099 102.992L81.0039 103.212L80.8112 104.392Z" fill="#FF5C8A"/>
<path opacity="0.6" d="M80.8112 104.392H76.8297L76.6099 102.992L81.0039 103.212L80.8112 104.392Z" fill="white"/>
<path d="M82.868 38.5516C84.7678 38.823 86.7138 45.4236 86.7138 45.4236L82.6427 47.6818C82.6427 47.6818 80.9899 44.5443 80.2001 42.2156C79.3723 39.7757 80.8352 38.2531 82.868 38.5516Z" fill="#FF5C8A"/>
<path opacity="0.7" d="M82.868 38.5516C84.7678 38.823 86.7138 45.4236 86.7138 45.4236L82.6427 47.6818C82.6427 47.6818 80.9899 44.5443 80.2001 42.2156C79.3723 39.7757 80.8352 38.2531 82.868 38.5516Z" fill="white"/>
<path d="M76.0361 39.3153C76.3454 39.816 76.5245 40.386 76.5572 40.9736C76.5572 40.9736 79.9444 39.7794 79.7843 38.0289C79.7843 38.0289 79.3039 37.7439 78.9999 37.5132C78.9999 37.5132 78.8859 38.6151 76.0361 39.3153Z" fill="#FF5C8A"/>
<path opacity="0.6" d="M76.0361 39.3153C76.3454 39.816 76.5245 40.386 76.5572 40.9736C76.5572 40.9736 79.9444 39.7794 79.7843 38.0289C79.7843 38.0289 79.3039 37.7439 78.9999 37.5132C78.9999 37.5132 78.8859 38.6151 76.0361 39.3153Z" fill="white"/>
<path d="M76.0357 39.3149C75.7243 39.7889 75.5001 40.3146 75.3735 40.8674C75.3735 40.8674 73.84 39.8306 74.3014 38.1017C74.5824 37.9885 74.8719 37.8977 75.1672 37.8303C75.1672 37.8303 74.9663 38.9485 76.0357 39.3149Z" fill="#FF5C8A"/>
<path opacity="0.6" d="M76.0357 39.3149C75.7243 39.7889 75.5001 40.3146 75.3735 40.8674C75.3735 40.8674 73.84 39.8306 74.3014 38.1017C74.5824 37.9885 74.8719 37.8977 75.1672 37.8303C75.1672 37.8303 74.9663 38.9485 76.0357 39.3149Z" fill="white"/>
</svg>
