<svg width="328" height="329" viewBox="0 0 328 329" fill="none" xmlns="http://www.w3.org/2000/svg">
<path d="M140.706 102.136C139.256 105.659 130.722 105.416 121.78 101.729C112.839 98.0427 106.758 92.1978 108.208 88.6751C108.549 87.8616 109.52 84.8112 110.491 84.3914C113.823 82.981 120.167 86.1495 127.035 88.9834C133.431 91.6074 140.745 93.3195 141.88 96.7898C142.563 98.9021 141.119 101.132 140.706 102.136Z" fill="#FF5C8A"/>
<path opacity="0.2" d="M141.879 96.788C142.424 99.5498 141.223 100.875 140.705 102.134C140.187 103.394 138.672 104.221 136.553 104.509C136.288 104.554 136.021 104.585 135.752 104.601C134.128 104.697 132.497 104.611 130.891 104.345C130.662 104.345 130.432 104.273 130.196 104.234C128.311 103.895 126.454 103.417 124.64 102.804L123.984 102.58C123.256 102.325 122.508 102.043 121.76 101.734C121.012 101.426 120.304 101.078 119.602 100.77L118.998 100.481C117.344 99.6635 115.751 98.7297 114.229 97.6867L113.691 97.3063C112.363 96.3673 111.146 95.2801 110.063 94.0656C109.899 93.8819 109.749 93.7048 109.604 93.5211C108.194 91.7368 107.636 90.0312 108.194 88.6733C108.561 87.8008 109.348 84.816 110.477 84.3831C111.865 83.9921 113.333 83.9921 114.721 84.3831L115.377 84.5405C118.657 85.3802 122.79 87.2498 127.008 88.9882C131.98 91.0415 137.865 93.1735 140.751 95.6335C140.923 95.778 141.087 95.9313 141.243 96.0927C141.473 96.3071 141.686 96.5396 141.879 96.788Z" fill="black"/>
<g opacity="0.2">
<path opacity="0.2" d="M115.705 83.977L115.403 84.528L110.076 94.0597C109.912 93.876 109.762 93.6989 109.617 93.5152L114.734 84.3706L115.134 83.6621L115.705 83.977Z" fill="black"/>
</g>
<g opacity="0.2">
<path opacity="0.2" d="M119.732 87.8682L114.241 97.7082L113.703 97.3277L119.161 87.5664L119.732 87.8682Z" fill="black"/>
</g>
<g opacity="0.2">
<path opacity="0.2" d="M129.829 93.5098L124.64 102.805L123.984 102.582L129.232 93.1621L129.829 93.5098Z" fill="black"/>
</g>
<g opacity="0.2">
<path opacity="0.2" d="M125.132 90.8848L119.615 100.771L119.012 100.482L124.561 90.5371L125.132 90.8848Z" fill="black"/>
</g>
<g opacity="0.2">
<path opacity="0.2" d="M135.948 95.3065L130.891 104.346C130.661 104.346 130.431 104.274 130.195 104.235L135.371 94.9785L135.948 95.3065Z" fill="black"/>
</g>
<path d="M141.839 99.0652C140.39 102.588 131.96 102.45 123.012 98.7568C114.064 95.0635 107.99 89.2252 109.446 85.7024C110.902 82.1797 119.325 82.324 128.273 86.0108C137.221 89.6975 143.289 95.5228 141.839 99.0652Z" fill="#FF5C8A"/>
<path opacity="0.2" d="M138.795 97.7862C137.772 100.272 131.198 99.9248 124.12 97.0056C117.042 94.0864 112.135 89.6977 113.158 87.2115C114.182 84.7253 120.755 85.0729 127.84 87.9921C134.924 90.9113 139.825 95.3 138.795 97.7862Z" fill="white"/>
<path d="M185.915 70.293C188.251 73.304 183.803 80.5922 176.147 86.5158C168.492 92.4395 160.404 94.8011 158.075 91.7638C157.537 91.0685 155.359 88.7397 155.49 87.6507C155.93 84.0624 161.827 80.1395 167.705 75.5869C173.176 71.3491 178.286 65.8518 181.861 66.5931C184.033 67.072 185.253 69.4402 185.915 70.293Z" fill="#FF5C8A"/>
<path opacity="0.2" d="M181.863 66.6191C184.533 67.5244 185.084 69.2431 185.917 70.2927C186.75 71.3423 186.718 73.0939 185.917 75.0815C185.825 75.3243 185.714 75.567 185.596 75.8163C184.877 77.2746 183.997 78.6477 182.972 79.9097C182.834 80.0934 182.683 80.2705 182.532 80.4542C181.299 81.9255 179.957 83.3026 178.518 84.5739L178.012 85.0134C177.429 85.5185 176.812 86.0236 176.176 86.5156C175.539 87.0076 174.903 87.4734 174.26 87.9129C174.083 88.0441 173.893 88.1687 173.716 88.2934C172.183 89.3215 170.578 90.2379 168.914 91.0354C168.71 91.1404 168.514 91.2257 168.323 91.3175C166.844 92.0016 165.293 92.5166 163.699 92.8526C163.462 92.9051 163.233 92.9444 163.003 92.9772C160.753 93.3118 158.995 92.9772 158.096 91.7899C157.519 91.042 155.321 88.8707 155.512 87.6833C155.855 86.2797 156.584 85.0002 157.617 83.99C157.762 83.826 157.919 83.662 158.083 83.4915C160.451 81.038 164.118 78.4075 167.726 75.6195C171.984 72.3395 176.759 68.2788 180.322 67.0062C180.537 66.9272 180.756 66.8593 180.978 66.8028C181.268 66.7201 181.564 66.6587 181.863 66.6191Z" fill="black"/>
<g opacity="0.2">
<path opacity="0.2" d="M157.735 82.9531L158.063 83.491L163.679 92.8522C163.443 92.9046 163.213 92.944 162.983 92.9768L157.598 83.9765L157.178 83.3205L157.735 82.9531Z" fill="black"/>
</g>
<g opacity="0.2">
<path opacity="0.2" d="M163.107 81.3926L168.893 91.0358C168.69 91.1407 168.493 91.226 168.303 91.3179L162.543 81.7271L163.107 81.3926Z" fill="black"/>
</g>
<g opacity="0.2">
<path opacity="0.2" d="M173.019 75.4492L178.497 84.5807L177.992 85.0202L172.455 75.7838L173.019 75.4492Z" fill="black"/>
</g>
<g opacity="0.2">
<path opacity="0.2" d="M168.414 78.2109L174.24 87.9132C174.063 88.0444 173.872 88.169 173.695 88.2937L167.844 78.5455L168.414 78.2109Z" fill="black"/>
</g>
<g opacity="0.2">
<path opacity="0.2" d="M177.625 71.0215L182.951 79.9103C182.814 80.094 182.663 80.2711 182.512 80.4548L177.061 71.3626L177.625 71.0215Z" fill="black"/>
</g>
<path d="M174.163 83.9414C181.814 78.0157 186.126 70.7715 183.794 67.7612C181.462 64.7508 173.37 67.1142 165.72 73.04C158.069 78.9658 153.757 86.2099 156.089 89.2203C158.421 92.2306 166.513 89.8672 174.163 83.9414Z" fill="#FF5C8A"/>
<path opacity="0.2" d="M173.214 82.1151C179.269 77.425 182.842 71.8978 181.193 69.7697C179.545 67.6415 173.3 69.7183 167.245 74.4083C161.19 79.0984 157.618 84.6256 159.266 86.7538C160.914 88.8819 167.159 86.8051 173.214 82.1151Z" fill="white"/>
<path d="M154.251 56.1886C153.503 60.5051 143.821 62.3287 132.852 60.3607C121.884 58.3927 113.612 53.3219 114.379 49.0054C114.557 48.0017 114.865 44.3478 115.895 43.6196C119.299 41.2187 127.211 43.226 135.634 44.7217C143.506 46.119 152.119 46.2305 154.251 49.8582C155.543 52.0886 154.468 54.9553 154.251 56.1886Z" fill="#FF5C8A"/>
<path opacity="0.2" d="M154.252 49.8656C155.564 52.8438 154.521 54.6216 154.252 56.1697C153.983 57.7179 152.481 59.0102 150.171 59.863C149.889 59.9745 149.594 60.0664 149.292 60.1582C147.486 60.6659 145.629 60.9717 143.756 61.0701C143.487 61.0701 143.224 61.0701 142.949 61.116C140.742 61.1971 138.532 61.116 136.336 60.8733L135.569 60.7749C134.683 60.6633 133.771 60.5321 132.86 60.3681C131.948 60.2041 131.062 60.0205 130.19 59.8171C129.94 59.7646 129.691 59.699 129.442 59.64C127.381 59.1311 125.359 58.4733 123.394 57.672C123.151 57.5801 122.921 57.4752 122.692 57.3833C120.966 56.6489 119.329 55.7225 117.811 54.6216C117.581 54.4576 117.371 54.2936 117.155 54.123C115.121 52.4633 114.078 50.679 114.374 49.0193C114.57 47.9435 114.728 44.4273 115.882 43.6336C117.037 42.8398 118.69 42.5905 120.658 42.584H121.445C125.381 42.7152 130.452 43.8107 135.628 44.7291C141.729 45.8181 148.873 46.7693 152.717 48.8291C152.942 48.9486 153.161 49.08 153.373 49.2227C153.682 49.4138 153.976 49.6287 154.252 49.8656Z" fill="black"/>
<g opacity="0.2">
<path opacity="0.2" d="M121.662 41.9137L121.452 42.6025L117.804 54.6336C117.575 54.4696 117.365 54.3056 117.148 54.135L120.651 42.596L120.927 41.6973L121.662 41.9137Z" fill="black"/>
</g>
<g opacity="0.2">
<path opacity="0.2" d="M127.146 45.2726L123.387 57.6644C123.145 57.5726 122.915 57.4676 122.686 57.3758L126.425 45.043L127.146 45.2726Z" fill="black"/>
</g>
<g opacity="0.2">
<path opacity="0.2" d="M139.892 49.1566L136.33 60.8925L135.562 60.7941L139.164 48.9336L139.892 49.1566Z" fill="black"/>
</g>
<g opacity="0.2">
<path opacity="0.2" d="M133.967 47.3592L130.181 59.8232C129.932 59.7707 129.683 59.7051 129.434 59.6461L133.238 47.123L133.967 47.3592Z" fill="black"/>
</g>
<g opacity="0.2">
<path opacity="0.2" d="M147.219 49.6676L143.748 61.0886C143.479 61.0886 143.217 61.0886 142.941 61.1345L146.49 49.4512L147.219 49.6676Z" fill="black"/>
</g>
<path d="M154.762 52.4196C155.53 48.1036 147.258 43.022 136.286 41.0696C125.314 39.1171 115.797 41.0332 115.029 45.3492C114.261 49.6652 122.533 54.7468 133.505 56.6992C144.477 58.6517 153.994 56.7356 154.762 52.4196Z" fill="#FF5C8A"/>
<path opacity="0.2" d="M151.028 51.7601C151.571 48.7104 144.973 44.9857 136.291 43.4407C127.609 41.8958 120.131 43.1157 119.588 46.1654C119.045 49.2152 125.644 52.9399 134.326 54.4848C143.008 56.0298 150.486 54.8099 151.028 51.7601Z" fill="white"/>
<path d="M211.519 166.392L144.01 170.328C141.625 170.468 139.285 171.037 137.102 172.007L63.7746 204.807C62.488 205.373 61.4344 206.363 60.7896 207.612C60.1449 208.86 59.9481 210.293 60.2322 211.669L72.3485 268.971C72.5533 269.893 72.9664 270.757 73.5563 271.496C74.1461 272.234 74.897 272.828 75.7516 273.232C76.6061 273.636 77.5417 273.839 78.4868 273.826C79.4319 273.813 80.3615 273.583 81.2045 273.156L153.581 237.023L220.414 234.786C221.237 234.765 222.045 234.568 222.785 234.209C223.526 233.85 224.181 233.338 224.708 232.706C225.235 232.074 225.621 231.337 225.841 230.545C226.061 229.752 226.11 228.921 225.984 228.108L217.042 173.241C216.577 170.407 214.425 166.307 211.519 166.392Z" fill="#FF5C8A"/>
<path opacity="0.1" d="M211.519 166.392L144.01 170.328C141.625 170.468 139.285 171.037 137.102 172.007L63.7746 204.807C62.488 205.373 61.4344 206.363 60.7896 207.612C60.1449 208.86 59.9481 210.293 60.2322 211.669L72.3485 268.971C72.5533 269.893 72.9664 270.757 73.5563 271.496C74.1461 272.234 74.897 272.828 75.7516 273.232C76.6061 273.636 77.5417 273.839 78.4868 273.826C79.4319 273.813 80.3615 273.583 81.2045 273.156L153.581 237.023L220.414 234.786C221.237 234.765 222.045 234.568 222.785 234.209C223.526 233.85 224.181 233.338 224.708 232.706C225.235 232.074 225.621 231.337 225.841 230.545C226.061 229.752 226.11 228.921 225.984 228.108L217.042 173.241C216.577 170.407 214.425 166.307 211.519 166.392Z" fill="black"/>
<path d="M76.0155 129.081L40.5879 161.738L104.164 230.708L139.592 198.05L76.0155 129.081Z" fill="#FF5C8A"/>
<path opacity="0.5" d="M139.583 198.056L104.152 230.711L40.5859 161.746L63.8346 140.315L76.0165 129.084L78.0435 131.288L139.583 198.056Z" fill="#FAFAFA"/>
<path d="M76.2427 133.297L44.9824 162.113L104.45 226.626L135.711 197.81L76.2427 133.297Z" stroke="#FF5C8A" stroke-miterlimit="10"/>
<path d="M97.3815 187.6C100.967 184.295 100.514 177.97 96.3686 173.473C92.2236 168.977 85.9567 168.011 82.3712 171.316C78.7856 174.621 79.2391 180.946 83.3841 185.443C87.5291 189.939 93.796 190.905 97.3815 187.6Z" fill="#FF5C8A"/>
<path opacity="0.1" d="M103.778 202.72L91.1892 207.069L63.834 140.315L76.0159 129.084L78.0429 131.288L103.778 202.72Z" fill="black"/>
<path d="M106.231 102.06L60.9336 118.484L92.9079 206.668L138.205 190.244L106.231 102.06Z" fill="#FF5C8A"/>
<path opacity="0.5" d="M106.231 102.06L60.9336 118.484L92.9079 206.668L138.205 190.244L106.231 102.06Z" fill="#FAFAFA"/>
<path d="M104.807 106.037L64.8379 120.529L94.746 203.015L134.715 188.522L104.807 106.037Z" stroke="#FF5C8A" stroke-miterlimit="10"/>
<path d="M103.321 164.283C107.905 162.621 109.932 156.612 107.847 150.863C105.763 145.114 100.356 141.801 95.7717 143.463C91.1872 145.125 89.1606 151.133 91.2453 156.883C93.3299 162.632 98.7363 165.945 103.321 164.283Z" fill="#FF5C8A"/>
<path d="M211.96 168.72L145.376 172.472C143.015 172.602 140.7 173.169 138.547 174.145L66.295 206.761C65.0224 207.337 63.9841 208.329 63.3519 209.574C62.7197 210.819 62.5314 212.243 62.8182 213.61L74.9345 270.938C75.1297 271.855 75.5325 272.715 76.112 273.452C76.6914 274.189 77.4322 274.783 78.2773 275.19C79.1224 275.596 80.0493 275.803 80.9869 275.794C81.9244 275.786 82.8476 275.563 83.6855 275.143L154.993 239.214L220.908 237.128C221.724 237.102 222.525 236.902 223.258 236.542C223.99 236.182 224.638 235.67 225.157 235.04C225.676 234.41 226.055 233.676 226.267 232.888C226.48 232.1 226.523 231.275 226.392 230.469L217.424 175.608C216.958 172.748 214.833 168.641 211.96 168.72Z" fill="#FF5C8A"/>
<path opacity="0.2" d="M148.084 182.508L205.215 178.992" stroke="black" stroke-width="2" stroke-linecap="round" stroke-linejoin="round"/>
<path opacity="0.2" d="M141.242 183.984L151.679 231.925" stroke="black" stroke-width="2" stroke-linecap="round" stroke-linejoin="round"/>
<path opacity="0.2" d="M71.6543 227.268L79.0146 264.141C79.0146 264.141 84.6562 249.513 71.6543 227.268Z" fill="#FAFAFA"/>
<path opacity="0.2" d="M72.6191 227.702C72.875 228.358 137.996 200.412 137.996 200.412C138.173 206.748 136.588 213.008 133.42 218.498C130.251 223.987 125.622 228.49 120.048 231.507C100.447 242.495 72.6191 227.702 72.6191 227.702Z" fill="#FAFAFA"/>
<path d="M115.875 228.79C117.433 228.79 118.696 227.527 118.696 225.969C118.696 224.411 117.433 223.148 115.875 223.148C114.318 223.148 113.055 224.411 113.055 225.969C113.055 227.527 114.318 228.79 115.875 228.79Z" fill="#FF5C8A"/>
<path opacity="0.2" d="M138.029 200.412C138.029 200.412 146.105 212.568 144.15 233.271L138.029 200.412Z" fill="black"/>
<g opacity="0.2">
<path opacity="0.2" d="M68.5391 212.784L70.0413 212.121" stroke="#FAFAFA" stroke-linecap="round" stroke-linejoin="round"/>
<path opacity="0.2" d="M73.1582 210.744L133.969 183.861" stroke="#FAFAFA" stroke-linecap="round" stroke-linejoin="round" stroke-dasharray="5.2 5.2"/>
<path opacity="0.2" d="M135.529 183.172L137.025 182.51" stroke="#FAFAFA" stroke-linecap="round" stroke-linejoin="round"/>
</g>
<path opacity="0.2" d="M150 193.286L207.131 189.764" stroke="black" stroke-width="2" stroke-linecap="round" stroke-linejoin="round"/>
<path opacity="0.2" d="M152.572 206.728L209.703 203.205" stroke="black" stroke-width="2" stroke-linecap="round" stroke-linejoin="round"/>
<path d="M197.181 111.24C197.181 111.24 195.745 126.545 190.057 127.863C186.535 128.624 182.863 128.257 179.561 126.814L174.936 123.258L172.68 131.13C172.68 131.13 175.146 134.482 180.296 132.16C180.296 132.16 189.48 136.201 194.557 132.16C199.635 128.119 201.262 117.033 201.262 117.033L197.181 111.24Z" fill="#B97964"/>
<path d="M201.752 103.828C201.752 103.828 197.783 97.0645 199.587 84.8039C201.391 72.5432 211.671 71.0279 215.64 71.9135C219.608 72.7991 222.856 76.6104 225.558 83.8658C228.261 91.1212 229.258 93.0104 233.765 91.7378C238.272 90.4652 250.263 86.4898 253.602 90.0256C254.563 90.9915 255.271 92.179 255.663 93.4834C256.055 94.7877 256.121 96.1686 255.852 97.504C255.852 97.504 272.535 93.45 271.091 108.328C269.648 123.206 245.573 137.094 222.672 122.393C199.771 107.692 201.752 103.828 201.752 103.828Z" fill="#263238"/>
<path d="M201.569 139.837C201.569 139.837 197.036 178.823 197.187 197.105C197.338 215.388 203.833 258.474 203.833 258.474H211.842C211.842 258.474 210.786 224.021 210.937 212.233C211.088 200.444 213.2 180.942 213.2 180.942C213.2 180.942 215.765 198.47 218.789 204.663C221.814 210.855 238.587 232.772 250.225 239.575L255.663 234.583C255.663 234.583 243.573 219.626 239.04 212.22C234.507 204.813 230.433 202.714 228.767 188.938C227.101 175.162 229.981 153.127 225.146 139.83L201.569 139.837Z" fill="#1C2D5E"/>
<path opacity="0.2" d="M213.201 180.94L209.717 156.229C209.717 156.229 206.969 171.08 212.381 189.219L213.201 180.94Z" fill="black"/>
<path d="M205.48 260.657L205.749 268.313L211.122 268.759L211.391 268.044V260.119L205.48 260.657Z" fill="#B97964"/>
<path d="M202.928 257.745L203.42 260.612L212.643 260.835L213.227 257.391L202.928 257.745Z" fill="#FF5C8A"/>
<path d="M247.699 240.104L256.247 232.141L258.13 235.139L250.789 241.856L247.699 240.104Z" fill="#FF5C8A"/>
<path d="M251.818 240.105L257.46 244.855L261.081 240.597L256.45 235.809L251.818 240.105Z" fill="#B97964"/>
<path d="M262.177 240.27L265.589 242.369C265.744 242.465 265.877 242.594 265.977 242.746C266.078 242.898 266.144 243.071 266.171 243.252C266.197 243.432 266.185 243.616 266.133 243.792C266.081 243.967 265.991 244.128 265.871 244.265C263.397 247.06 257.08 254.158 256.45 254.656C255.67 255.312 254.725 254.21 254.482 253.226C254.482 253.226 256.273 250.851 256.45 249.329C256.525 248.154 256.525 246.975 256.45 245.8C256.437 245.506 256.535 245.218 256.726 244.993L260.537 240.519C260.734 240.286 261.009 240.132 261.311 240.087C261.612 240.041 261.92 240.106 262.177 240.27Z" fill="#263238"/>
<path d="M212.432 268.97L213.141 272.906C213.174 273.086 213.166 273.271 213.12 273.447C213.073 273.624 212.989 273.789 212.872 273.93C212.755 274.07 212.608 274.184 212.443 274.262C212.278 274.34 212.097 274.381 211.914 274.382C208.182 274.382 198.683 274.421 197.889 274.29C196.898 274.126 197.076 272.709 197.659 271.882C197.659 271.882 200.618 271.633 201.858 270.734C202.78 270.011 203.656 269.231 204.482 268.399C204.693 268.192 204.974 268.073 205.269 268.064L211.14 267.927C211.445 267.916 211.744 268.015 211.981 268.207C212.219 268.398 212.379 268.669 212.432 268.97Z" fill="#263238"/>
<path d="M226.007 118.214L234.193 112.467C234.193 112.467 232.015 103.756 228.788 103.323C225.56 102.89 209.541 99.8394 199.353 103.323C199.353 103.323 195.693 104.366 194.564 114.645L198.92 116.036C198.92 116.036 200.482 135.283 201.446 138.248H224.695C224.695 138.248 224.957 121.697 226.007 118.214Z" fill="#FF5C8A"/>
<path d="M227.771 116.975C227.771 116.975 230.873 125.831 231.424 130.593C231.424 130.593 224.051 127.654 222.149 126.31L220.705 121.127L215.825 118.746L214.375 122.682L218.449 127.733C218.449 127.733 229.555 138.124 235.183 135.749C240.812 133.375 232.959 113.354 232.959 113.354L227.771 116.975Z" fill="#B97964"/>
<path d="M206.942 78.1987C206.942 78.1987 204.102 83.8665 204.318 88.4782C204.535 93.0899 206.864 94.9726 211.292 95.622C211.292 95.622 213.181 101.526 208.222 102.123C207.841 102.169 207.71 103.671 207.736 103.914C207.867 104.872 208.819 105.396 209.704 105.619C210.637 105.826 211.589 105.932 212.545 105.934C213.548 105.969 214.546 105.775 215.463 105.367C216.38 104.959 217.193 104.348 217.839 103.579C217.944 103.455 218.941 102.182 218.941 102.182C218.941 102.182 216.572 101.008 217.406 93.3195C218.536 92.5838 219.404 91.509 219.885 90.2494C220.338 90.0092 220.738 89.6814 221.062 89.2849C221.387 88.8884 221.629 88.4313 221.775 87.9403C222.129 86.4052 220.771 84.2798 218.291 86.4052C218.291 86.4052 213.62 84.0436 211.849 75.7715C210.536 77.1131 208.806 77.969 206.942 78.1987Z" fill="#B97964"/>
<path d="M208.274 87.2182L208.674 84.1875L206.529 86.5622C206.751 86.7978 207.023 86.9794 207.326 87.0931C207.628 87.2069 207.953 87.2497 208.274 87.2182Z" fill="#A24E3F"/>
<path d="M209.521 89.4361C209.521 89.4361 211.785 89.7837 212.874 88.334" stroke="#222221" stroke-width="0.75" stroke-linecap="round" stroke-linejoin="round"/>
<path d="M211.783 79.9431C212.297 79.797 212.841 79.7925 213.357 79.9299C213.873 80.0673 214.342 80.3416 214.716 80.7237" stroke="#222221" stroke-linecap="round" stroke-linejoin="round"/>
<path d="M207.868 79.2872C207.868 79.2872 206.557 79.0839 205.973 79.8252" stroke="#222221" stroke-linecap="round" stroke-linejoin="round"/>
<path d="M212.696 83.9312C212.637 84.3904 212.342 84.7249 212.04 84.6856C211.739 84.6462 211.535 84.246 211.594 83.7868C211.653 83.3276 211.948 82.9931 212.25 83.0324C212.552 83.0718 212.755 83.472 212.696 83.9312Z" fill="#222221"/>
<path d="M207.459 82.9151C207.519 82.4588 207.319 82.0568 207.014 82.0171C206.708 81.9775 206.413 82.3152 206.353 82.7715C206.294 83.2278 206.494 83.6298 206.799 83.6695C207.104 83.7091 207.4 83.3714 207.459 82.9151Z" fill="#222221"/>
<path d="M212.255 83.0327L211.219 82.5801C211.232 82.6935 211.275 82.8014 211.344 82.8931C211.412 82.9848 211.503 83.0571 211.608 83.1029C211.712 83.1486 211.827 83.1662 211.941 83.1539C212.054 83.1416 212.163 83.0998 212.255 83.0327Z" fill="#222221"/>
<path d="M207.113 82.062L206.076 81.6094C206.09 81.7228 206.133 81.8308 206.201 81.9225C206.269 82.0141 206.36 82.0864 206.465 82.1322C206.57 82.1779 206.685 82.1955 206.798 82.1832C206.912 82.1709 207.02 82.1291 207.113 82.062Z" fill="#222221"/>
<path d="M200.633 137.224V139.96L225.823 140.17L225.148 136.916L200.633 137.224Z" fill="#FF5C8A"/>
<path opacity="0.4" d="M200.633 137.224V139.96L225.823 140.17L225.148 136.916L200.633 137.224Z" fill="white"/>
<path d="M200.939 123.947L187.084 172.137C186.624 173.751 185.69 175.19 184.404 176.268C183.118 177.346 181.538 178.014 179.868 178.186C178.806 178.287 177.733 178.189 176.707 177.897L150.224 170.281C148.083 169.663 146.274 168.222 145.195 166.272C144.115 164.323 143.852 162.026 144.464 159.883L158.325 111.68C158.944 109.542 160.386 107.737 162.333 106.66C164.281 105.583 166.577 105.322 168.716 105.934L195.219 113.543C197.355 114.168 199.156 115.613 200.229 117.564C201.301 119.514 201.556 121.809 200.939 123.947Z" fill="#FF5C8A"/>
<path opacity="0.2" d="M200.939 123.947L187.084 172.137C186.624 173.751 185.69 175.19 184.404 176.268C183.118 177.346 181.538 178.014 179.868 178.186C178.806 178.287 177.733 178.189 176.707 177.897L150.224 170.281C148.083 169.663 146.274 168.222 145.195 166.272C144.115 164.323 143.852 162.026 144.464 159.883L158.325 111.68C158.944 109.542 160.386 107.737 162.333 106.66C164.281 105.583 166.577 105.322 168.716 105.934L195.219 113.543C197.355 114.168 199.156 115.613 200.229 117.564C201.301 119.514 201.556 121.809 200.939 123.947Z" fill="black"/>
<path d="M198.637 124.518L184.782 172.714C184.432 173.941 183.806 175.072 182.952 176.02C182.098 176.968 181.039 177.709 179.855 178.186C178.793 178.287 177.72 178.189 176.693 177.897L150.224 170.281C148.083 169.663 146.274 168.222 145.195 166.272C144.115 164.323 143.852 162.026 144.464 159.883L158.325 111.68C158.676 110.455 159.302 109.326 160.156 108.38C161.01 107.434 162.069 106.696 163.252 106.222C164.315 106.114 165.388 106.212 166.414 106.511L192.864 114.153C195.001 114.767 196.808 116.202 197.889 118.144C198.971 120.087 199.24 122.378 198.637 124.518Z" fill="#FF5C8A"/>
<path opacity="0.5" d="M198.637 124.518L184.782 172.714C184.432 173.941 183.806 175.072 182.952 176.02C182.098 176.968 181.039 177.709 179.855 178.186C178.793 178.287 177.72 178.189 176.693 177.897L150.224 170.281C148.083 169.663 146.274 168.222 145.195 166.272C144.115 164.323 143.852 162.026 144.464 159.883L158.325 111.68C158.676 110.455 159.302 109.326 160.156 108.38C161.01 107.434 162.069 106.696 163.252 106.222C164.315 106.114 165.388 106.212 166.414 106.511L192.864 114.153C195.001 114.767 196.808 116.202 197.889 118.144C198.971 120.087 199.24 122.378 198.637 124.518Z" fill="#FAFAFA"/>
<path d="M161.39 128.617L158.555 127.818L148.351 164.023L151.186 164.822L161.39 128.617Z" fill="#FAFAFA"/>
<path d="M155.254 165.971L152.42 165.151L162.621 128.959L165.448 129.772L155.254 165.971Z" fill="#FAFAFA"/>
<path d="M159.375 167.151L156.541 166.338L166.742 130.146L169.576 130.96L159.375 167.151Z" fill="#FAFAFA"/>
<path opacity="0.5" d="M186.073 135.703L183.238 134.904L173.034 171.109L175.869 171.908L186.073 135.703Z" fill="black"/>
<path d="M185.714 125.47L184.336 130.384L182.657 129.911C181.843 129.681 181.154 129.137 180.741 128.399C180.328 127.661 180.224 126.79 180.453 125.975L181.371 122.695L184.763 123.666C185.128 123.78 185.433 124.033 185.611 124.371C185.79 124.71 185.827 125.105 185.714 125.47Z" fill="#FAFAFA"/>
<path d="M184.907 123.062L181.516 122.091L182.532 118.496C182.646 118.093 182.838 117.716 183.097 117.387C183.356 117.058 183.678 116.783 184.044 116.578C184.409 116.374 184.811 116.243 185.228 116.194C185.644 116.145 186.065 116.178 186.468 116.292L188.213 116.784L186.691 122.078C186.641 122.261 186.554 122.432 186.437 122.581C186.319 122.73 186.173 122.854 186.007 122.946C185.84 123.038 185.657 123.095 185.469 123.115C185.28 123.135 185.089 123.117 184.907 123.062Z" fill="#FAFAFA"/>
<path d="M188.121 124.649L191.532 125.627L190.627 128.835C190.515 129.239 190.324 129.617 190.065 129.947C189.806 130.277 189.485 130.552 189.119 130.757C188.753 130.962 188.35 131.093 187.933 131.141C187.516 131.189 187.094 131.154 186.691 131.039L184.92 130.54L186.33 125.633C186.382 125.451 186.47 125.28 186.589 125.131C186.707 124.983 186.854 124.859 187.02 124.767C187.187 124.676 187.37 124.618 187.559 124.598C187.748 124.578 187.939 124.595 188.121 124.649Z" fill="#FAFAFA"/>
<path d="M192.739 121.369L191.709 125.016L188.298 124.038C187.933 123.932 187.625 123.685 187.44 123.352C187.256 123.019 187.211 122.627 187.314 122.261L188.836 116.967L190.535 117.446C190.937 117.559 191.314 117.749 191.642 118.008C191.971 118.266 192.245 118.586 192.45 118.951C192.654 119.315 192.785 119.716 192.835 120.131C192.885 120.546 192.852 120.966 192.739 121.369Z" fill="#FAFAFA"/>
</svg>
