<svg width="26" height="27" viewBox="2 0 21 22" fill="none" xmlns="http://www.w3.org/2000/svg">
<path d="M3 12.5L5 10.5M5 10.5L12 3.5L19 10.5M5 10.5V20.5C5 21.0523 5.44772 21.5 6 21.5H9M19 10.5L21 12.5M19 10.5V20.5C19 21.0523 18.5523 21.5 18 21.5H15M9 21.5C9.55228 21.5 10 21.0523 10 20.5V16.5C10 15.9477 10.4477 15.5 11 15.5H13C13.5523 15.5 14 15.9477 14 16.5V20.5C14 21.0523 14.4477 21.5 15 21.5M9 21.5H15" stroke="currentcolor" stroke-width="2" stroke-linecap="round" stroke-linejoin="round"/>
</svg>
