<svg width="200" height="200" viewBox="0 0 200 200" fill="none" xmlns="http://www.w3.org/2000/svg">
<path d="M67.6568 172.719H16.5498V182.338H67.6568V172.719Z" fill="#1C2D5E"/>
<path opacity="0.2" d="M67.6568 172.719H16.5498V173.812H67.6568V172.719Z" fill="black"/>
<path opacity="0.2" d="M22.3063 172.719H20.292V182.338H22.3063V172.719Z" fill="black"/>
<path opacity="0.2" d="M26.9284 172.719H24.9141V182.338H26.9284V172.719Z" fill="black"/>
<path opacity="0.2" d="M31.5553 172.719H29.541V182.338H31.5553V172.719Z" fill="black"/>
<path opacity="0.2" d="M36.1774 172.719H34.1631V182.338H36.1774V172.719Z" fill="black"/>
<path opacity="0.2" d="M40.7995 172.719H38.7852V182.338H40.7995V172.719Z" fill="black"/>
<path opacity="0.2" d="M45.4264 172.719H43.4121V182.338H45.4264V172.719Z" fill="black"/>
<path opacity="0.2" d="M50.0485 172.719H48.0342V182.338H50.0485V172.719Z" fill="black"/>
<path opacity="0.2" d="M54.6705 172.719H52.6562V182.338H54.6705V172.719Z" fill="black"/>
<path opacity="0.2" d="M59.2975 172.719H57.2832V182.338H59.2975V172.719Z" fill="black"/>
<path opacity="0.2" d="M63.9196 172.719H61.9053V182.338H63.9196V172.719Z" fill="black"/>
<path d="M65.5796 163.1H14.4727V172.719H65.5796V163.1Z" fill="#1C2D5E"/>
<path opacity="0.2" d="M65.5796 163.1H14.4727V164.193H65.5796V163.1Z" fill="black"/>
<path opacity="0.2" d="M20.2243 163.1H18.21V172.719H20.2243V163.1Z" fill="black"/>
<path opacity="0.2" d="M24.8512 163.1H22.8369V172.719H24.8512V163.1Z" fill="black"/>
<path opacity="0.2" d="M29.4733 163.1H27.459V172.719H29.4733V163.1Z" fill="black"/>
<path opacity="0.2" d="M34.0954 163.1H32.0811V172.719H34.0954V163.1Z" fill="black"/>
<path opacity="0.2" d="M38.7223 163.1H36.708V172.719H38.7223V163.1Z" fill="black"/>
<path opacity="0.2" d="M43.3444 163.1H41.3301V172.719H43.3444V163.1Z" fill="black"/>
<path opacity="0.2" d="M47.9664 163.1H45.9521V172.719H47.9664V163.1Z" fill="black"/>
<path opacity="0.2" d="M52.5934 163.1H50.5791V172.719H52.5934V163.1Z" fill="black"/>
<path opacity="0.2" d="M57.2155 163.1H55.2012V172.719H57.2155V163.1Z" fill="black"/>
<path opacity="0.2" d="M61.8375 163.1H59.8232V172.719H61.8375V163.1Z" fill="black"/>
<path d="M64.107 153.482H13V163.101H64.107V153.482Z" fill="#1C2D5E"/>
<path opacity="0.2" d="M64.107 153.482H13V154.575H64.107V153.482Z" fill="black"/>
<path opacity="0.2" d="M18.7565 153.482H16.7422V163.101H18.7565V153.482Z" fill="black"/>
<path opacity="0.2" d="M23.3786 153.482H21.3643V163.101H23.3786V153.482Z" fill="black"/>
<path opacity="0.2" d="M28.0055 153.482H25.9912V163.101H28.0055V153.482Z" fill="black"/>
<path opacity="0.2" d="M32.6276 153.482H30.6133V163.101H32.6276V153.482Z" fill="black"/>
<path opacity="0.2" d="M37.2496 153.482H35.2354V163.101H37.2496V153.482Z" fill="black"/>
<path opacity="0.2" d="M41.8766 153.482H39.8623V163.101H41.8766V153.482Z" fill="black"/>
<path opacity="0.2" d="M46.4987 153.482H44.4844V163.101H46.4987V153.482Z" fill="black"/>
<path opacity="0.2" d="M51.1207 153.482H49.1064V163.101H51.1207V153.482Z" fill="black"/>
<path opacity="0.2" d="M55.7477 153.482H53.7334V163.101H55.7477V153.482Z" fill="black"/>
<path opacity="0.2" d="M60.3698 153.482H58.3555V163.101H60.3698V153.482Z" fill="black"/>
<path d="M66.4234 143.868H15.3164V153.487H66.4234V143.868Z" fill="#1C2D5E"/>
<path opacity="0.2" d="M66.4234 143.868H15.3164V144.961H66.4234V143.868Z" fill="black"/>
<path opacity="0.2" d="M21.068 143.868H19.0537V153.487H21.068V143.868Z" fill="black"/>
<path opacity="0.2" d="M25.695 143.868H23.6807V153.487H25.695V143.868Z" fill="black"/>
<path opacity="0.2" d="M30.317 143.868H28.3027V153.487H30.317V143.868Z" fill="black"/>
<path opacity="0.2" d="M34.9391 143.868H32.9248V153.487H34.9391V143.868Z" fill="black"/>
<path opacity="0.2" d="M39.5661 143.868H37.5518V153.487H39.5661V143.868Z" fill="black"/>
<path opacity="0.2" d="M44.1881 143.868H42.1738V153.487H44.1881V143.868Z" fill="black"/>
<path opacity="0.2" d="M48.8102 143.868H46.7959V153.487H48.8102V143.868Z" fill="black"/>
<path opacity="0.2" d="M53.4372 143.868H51.4229V153.487H53.4372V143.868Z" fill="black"/>
<path opacity="0.2" d="M58.0592 143.868H56.0449V153.487H58.0592V143.868Z" fill="black"/>
<path opacity="0.2" d="M62.6803 143.868H60.666V153.487H62.6803V143.868Z" fill="black"/>
<path d="M13.0727 143.863H64.1797V134.244H13.0727V143.863Z" fill="#1C2D5E"/>
<path opacity="0.2" d="M13.0727 135.338H64.1797V134.245H13.0727V135.338Z" fill="black"/>
<path opacity="0.2" d="M58.4232 143.863H60.4375V134.244H58.4232V143.863Z" fill="black"/>
<path opacity="0.2" d="M53.7963 143.863H55.8105V134.244H53.7963V143.863Z" fill="black"/>
<path opacity="0.2" d="M49.1742 143.863H51.1885V134.244H49.1742V143.863Z" fill="black"/>
<path opacity="0.2" d="M44.5521 143.863H46.5664V134.244H44.5521V143.863Z" fill="black"/>
<path opacity="0.2" d="M39.9252 143.863H41.9395V134.244H39.9252V143.863Z" fill="black"/>
<path opacity="0.2" d="M35.3031 143.863H37.3174V134.244H35.3031V143.863Z" fill="black"/>
<path opacity="0.2" d="M30.681 143.863H32.6953V134.244H30.681V143.863Z" fill="black"/>
<path opacity="0.2" d="M26.0541 143.863H28.0684V134.244H26.0541V143.863Z" fill="black"/>
<path opacity="0.2" d="M21.432 143.863H23.4463V134.244H21.432V143.863Z" fill="black"/>
<path opacity="0.2" d="M16.8099 143.863H18.8242V134.244H16.8099V143.863Z" fill="black"/>
<path d="M15.1499 134.25H66.2568V124.631H15.1499V134.25Z" fill="#1C2D5E"/>
<path opacity="0.2" d="M15.1499 125.724H66.2568V124.631H15.1499V125.724Z" fill="black"/>
<path opacity="0.2" d="M60.5004 134.25H62.5146V124.631H60.5004V134.25Z" fill="black"/>
<path opacity="0.2" d="M55.8832 134.25H57.8975V124.631H55.8832V134.25Z" fill="black"/>
<path opacity="0.2" d="M51.2562 134.25H53.2705V124.631H51.2562V134.25Z" fill="black"/>
<path opacity="0.2" d="M46.6293 134.25H48.6436V124.631H46.6293V134.25Z" fill="black"/>
<path opacity="0.2" d="M42.0121 134.25H44.0264V124.631H42.0121V134.25Z" fill="black"/>
<path opacity="0.2" d="M37.3851 134.25H39.3994V124.631H37.3851V134.25Z" fill="black"/>
<path opacity="0.2" d="M32.7582 134.25H34.7725V124.631H32.7582V134.25Z" fill="black"/>
<path opacity="0.2" d="M28.141 134.25H30.1553V124.631H28.141V134.25Z" fill="black"/>
<path opacity="0.2" d="M23.514 134.25H25.5283V124.631H23.514V134.25Z" fill="black"/>
<path opacity="0.2" d="M18.8871 134.25H20.9014V124.631H18.8871V134.25Z" fill="black"/>
<path d="M16.6225 124.63H67.7295V115.012H16.6225V124.63Z" fill="#1C2D5E"/>
<path opacity="0.2" d="M16.6225 116.105H67.7295V115.012H16.6225V116.105Z" fill="black"/>
<path opacity="0.2" d="M61.973 124.63H63.9873V115.012H61.973V124.63Z" fill="black"/>
<path opacity="0.2" d="M57.346 124.63H59.3604V115.012H57.346V124.63Z" fill="black"/>
<path opacity="0.2" d="M52.724 124.63H54.7383V115.012H52.724V124.63Z" fill="black"/>
<path opacity="0.2" d="M48.1019 124.63H50.1162V115.012H48.1019V124.63Z" fill="black"/>
<path opacity="0.2" d="M43.475 124.63H45.4893V115.012H43.475V124.63Z" fill="black"/>
<path opacity="0.2" d="M38.8529 124.63H40.8672V115.012H38.8529V124.63Z" fill="black"/>
<path opacity="0.2" d="M34.2308 124.63H36.2451V115.012H34.2308V124.63Z" fill="black"/>
<path opacity="0.2" d="M29.6039 124.63H31.6182V115.012H29.6039V124.63Z" fill="black"/>
<path opacity="0.2" d="M24.9818 124.63H26.9961V115.012H24.9818V124.63Z" fill="black"/>
<path opacity="0.2" d="M20.3597 124.63H22.374V115.012H20.3597V124.63Z" fill="black"/>
<path d="M14.3061 115.012H65.4131V105.394H14.3061V115.012Z" fill="#1C2D5E"/>
<path opacity="0.2" d="M14.3061 106.486H65.4131V105.393H14.3061V106.486Z" fill="black"/>
<path opacity="0.2" d="M59.6566 115.012H61.6709V105.394H59.6566V115.012Z" fill="black"/>
<path opacity="0.2" d="M55.0404 115.012H57.0547V105.394H55.0404V115.012Z" fill="black"/>
<path opacity="0.2" d="M50.4125 115.012H52.4268V105.394H50.4125V115.012Z" fill="black"/>
<path opacity="0.2" d="M45.7855 115.012H47.7998V105.394H45.7855V115.012Z" fill="black"/>
<path opacity="0.2" d="M41.1693 115.012H43.1836V105.394H41.1693V115.012Z" fill="black"/>
<path opacity="0.2" d="M36.5414 115.012H38.5557V105.394H36.5414V115.012Z" fill="black"/>
<path opacity="0.2" d="M31.9144 115.012H33.9287V105.394H31.9144V115.012Z" fill="black"/>
<path opacity="0.2" d="M27.2982 115.012H29.3125V105.394H27.2982V115.012Z" fill="black"/>
<path opacity="0.2" d="M22.6703 115.012H24.6846V105.394H22.6703V115.012Z" fill="black"/>
<path opacity="0.2" d="M18.0433 115.012H20.0576V105.394H18.0433V115.012Z" fill="black"/>
<path d="M179.137 67.0272L158.754 70.5197C158.362 70.5857 157.999 70.7668 157.71 71.0401C157.421 71.3133 157.22 71.6664 157.132 72.0542C157.045 72.4421 157.074 72.8473 157.218 73.2182C157.361 73.5891 157.612 73.909 157.937 74.1371L161.695 76.7968L138.653 109.369C138.503 109.581 138.313 109.761 138.093 109.899C137.874 110.037 137.629 110.131 137.374 110.174C137.118 110.218 136.856 110.211 136.603 110.153C136.35 110.095 136.111 109.988 135.9 109.838L102.031 85.895C101.602 85.593 101.071 85.4733 100.554 85.562C100.037 85.6508 99.5764 85.9408 99.2727 86.3686L31 182.868H55.5359L104.061 114.272C104.211 114.06 104.401 113.88 104.621 113.742C104.84 113.604 105.085 113.51 105.341 113.467C105.597 113.423 105.858 113.431 106.111 113.488C106.364 113.546 106.603 113.653 106.815 113.804L140.683 137.746C140.895 137.896 141.135 138.003 141.388 138.061C141.642 138.118 141.904 138.125 142.16 138.081C142.417 138.037 142.662 137.943 142.881 137.804C143.101 137.666 143.292 137.485 143.442 137.273L178.049 88.3465L181.812 91.0062C182.136 91.2297 182.519 91.353 182.913 91.3606C183.307 91.3683 183.694 91.26 184.027 91.0492C184.36 90.8384 184.623 90.5345 184.785 90.1752C184.946 89.8159 184.998 89.4171 184.935 89.0283L181.437 68.6459C181.343 68.128 181.049 67.6679 180.619 67.365C180.188 67.0622 179.656 66.9408 179.137 67.0272Z" fill="#D7EB36"/>
<path opacity="0.2" d="M179.137 67.0272L158.754 70.5197C158.362 70.5857 157.999 70.7668 157.71 71.0401C157.421 71.3133 157.22 71.6664 157.132 72.0542C157.045 72.4421 157.074 72.8473 157.218 73.2182C157.361 73.5891 157.612 73.909 157.937 74.1371L161.695 76.7968L138.653 109.369C138.503 109.581 138.313 109.761 138.093 109.899C137.874 110.037 137.629 110.131 137.374 110.174C137.118 110.218 136.856 110.211 136.603 110.153C136.35 110.095 136.111 109.988 135.9 109.838L102.031 85.895C101.602 85.593 101.071 85.4733 100.554 85.562C100.037 85.6508 99.5764 85.9408 99.2727 86.3686L31 182.868H55.5359L104.061 114.272C104.211 114.06 104.401 113.88 104.621 113.742C104.84 113.604 105.085 113.51 105.341 113.467C105.597 113.423 105.858 113.431 106.111 113.488C106.364 113.546 106.603 113.653 106.815 113.804L140.683 137.746C140.895 137.896 141.135 138.003 141.388 138.061C141.642 138.118 141.904 138.125 142.16 138.081C142.417 138.037 142.662 137.943 142.881 137.804C143.101 137.666 143.292 137.485 143.442 137.273L178.049 88.3465L181.812 91.0062C182.136 91.2297 182.519 91.353 182.913 91.3606C183.307 91.3683 183.694 91.26 184.027 91.0492C184.36 90.8384 184.623 90.5345 184.785 90.1752C184.946 89.8159 184.998 89.4171 184.935 89.0283L181.437 68.6459C181.343 68.128 181.049 67.6679 180.619 67.365C180.188 67.0622 179.656 66.9408 179.137 67.0272Z" fill="#D7EB36"/>
<path opacity="0.2" d="M54.001 180.031H36.7311C36.7073 180.03 36.6842 180.023 36.6641 180.01C36.644 179.997 36.6276 179.979 36.6166 179.958C36.6042 179.938 36.5977 179.914 36.5977 179.89C36.5977 179.866 36.6042 179.843 36.6166 179.823L99.8666 90.4024C100.025 90.1747 100.227 89.9806 100.461 89.8311C100.695 89.6817 100.956 89.5799 101.229 89.5315C101.502 89.4832 101.782 89.4892 102.053 89.5494C102.324 89.6095 102.58 89.7225 102.807 89.8819L136.671 113.824C136.87 113.969 137.095 114.072 137.335 114.128C137.574 114.184 137.822 114.191 138.065 114.15C138.307 114.109 138.539 114.02 138.746 113.888C138.954 113.756 139.133 113.584 139.273 113.382L165.667 76.0733L161.503 73.1117C161.481 73.0979 161.464 73.0772 161.454 73.0528C161.445 73.0283 161.444 73.0015 161.451 72.9764C161.457 72.9515 161.47 72.9288 161.488 72.9112C161.507 72.8937 161.53 72.8819 161.555 72.8775L178.731 69.9367C178.748 69.9337 178.765 69.9341 178.781 69.9377C178.797 69.9414 178.813 69.9483 178.826 69.958C178.84 69.9677 178.851 69.98 178.86 69.9942C178.869 70.0084 178.875 70.0243 178.877 70.0408L181.818 87.217C181.822 87.2426 181.818 87.2688 181.808 87.2927C181.798 87.3166 181.782 87.3372 181.761 87.3523C181.739 87.3662 181.714 87.3736 181.688 87.3736C181.662 87.3736 181.637 87.3662 181.615 87.3523L177.451 84.3907L142.916 133.213C142.758 133.44 142.556 133.633 142.323 133.782C142.089 133.931 141.829 134.033 141.556 134.081C141.284 134.129 141.004 134.123 140.734 134.064C140.464 134.004 140.208 133.892 139.981 133.733L106.113 109.791C105.914 109.65 105.69 109.551 105.454 109.497C105.217 109.443 104.972 109.437 104.733 109.478C104.493 109.519 104.265 109.607 104.059 109.736C103.854 109.866 103.676 110.035 103.536 110.233L54.1103 179.974C54.0979 179.991 54.0816 180.005 54.0626 180.015C54.0436 180.025 54.0225 180.031 54.001 180.031ZM36.981 179.771H53.9333L103.245 110.061C103.566 109.603 104.056 109.29 104.607 109.193C105.159 109.095 105.726 109.22 106.185 109.541L140.054 133.483C140.252 133.624 140.476 133.723 140.713 133.777C140.949 133.831 141.194 133.837 141.434 133.796C141.673 133.755 141.902 133.667 142.107 133.538C142.312 133.408 142.49 133.239 142.63 133.041L177.238 84.1149C177.246 84.1003 177.259 84.088 177.273 84.0789C177.287 84.0699 177.304 84.0644 177.321 84.0628C177.336 84.0554 177.353 84.0516 177.37 84.0516C177.387 84.0516 177.404 84.0554 177.42 84.0628L181.453 86.9151L178.586 70.2542L161.873 73.1169L165.906 75.9692C165.933 75.9898 165.952 76.0193 165.958 76.0525C165.972 76.0841 165.972 76.1197 165.958 76.1513L139.492 113.569C139.333 113.796 139.13 113.989 138.896 114.136C138.662 114.284 138.401 114.383 138.128 114.428C137.581 114.519 137.021 114.392 136.566 114.074L102.703 90.1317C102.504 89.9874 102.278 89.8843 102.039 89.8284C101.8 89.7725 101.551 89.7649 101.309 89.8061C101.067 89.8473 100.835 89.9365 100.628 90.0683C100.42 90.2002 100.241 90.3722 100.101 90.5741L36.981 179.771Z" fill="white"/>
<path d="M149.222 150.51H147.083V182.338H149.222V150.51Z" fill="#263238"/>
<path d="M167.939 133.168H165.8V182.338H167.939V133.168Z" fill="#263238"/>
<path d="M187 144.962H184.86V182.338H187V144.962Z" fill="#263238"/>
<path d="M147.088 150.51H132.088V182.338H147.088V150.51Z" fill="#1C2D5E"/>
<path opacity="0.2" d="M132.088 150.51V169.383L139.583 150.51H132.088Z" fill="white"/>
<path d="M165.8 133.168H150.8V182.338H165.8V133.168Z" fill="#1C2D5E"/>
<path opacity="0.2" d="M150.8 133.168V152.041L158.3 133.168H150.8Z" fill="white"/>
<path d="M184.866 144.962H169.865V182.338H184.866V144.962Z" fill="#1C2D5E"/>
<path opacity="0.2" d="M169.865 144.962V161.758L177.366 144.962H169.865Z" fill="white"/>
<path d="M97.1894 179.736L93.166 178.981L93.8479 169.461L97.8712 170.221L97.1894 179.736Z" fill="#7F3E3B"/>
<path d="M124.265 179.626H120.168L119.153 170.148H123.244L124.265 179.626Z" fill="#7F3E3B"/>
<path d="M119.836 179.153H124.822C124.903 179.153 124.982 179.181 125.045 179.232C125.109 179.283 125.153 179.354 125.171 179.434L125.983 183.077C126.001 183.166 126 183.257 125.978 183.345C125.957 183.433 125.916 183.515 125.858 183.585C125.801 183.655 125.728 183.711 125.646 183.75C125.564 183.788 125.475 183.807 125.384 183.806C123.776 183.78 122.605 183.681 120.585 183.681C119.341 183.681 115.588 183.811 113.871 183.811C112.153 183.811 111.929 182.114 112.632 181.958C115.786 181.271 118.16 180.318 119.169 179.413C119.351 179.246 119.589 179.153 119.836 179.153Z" fill="#263238"/>
<path d="M93.2488 178.096L97.6573 178.856C97.7371 178.87 97.8098 178.91 97.8636 178.971C97.9175 179.031 97.9493 179.108 97.954 179.189L98.131 182.91C98.1355 183 98.1197 183.09 98.0847 183.173C98.0497 183.256 97.9965 183.33 97.929 183.389C97.8614 183.449 97.7813 183.492 97.6947 183.517C97.608 183.541 97.5169 183.545 97.4283 183.53C95.8668 183.228 93.5611 182.739 91.5676 182.395C89.2306 181.994 88.0907 181.703 85.3529 181.229C83.6978 180.943 84.0569 179.147 84.7804 179.1C88.0543 178.955 89.2098 179.454 92.2234 178.242C92.5449 178.098 92.9001 178.048 93.2488 178.096Z" fill="#263238"/>
<path d="M107.266 54.3754C107.125 54.7918 107.016 55.0937 106.886 55.4164C106.756 55.7391 106.626 56.0826 106.49 56.4105C106.22 57.0715 105.933 57.7169 105.631 58.3623C105.029 59.6575 104.353 60.9174 103.607 62.1359C102.081 64.7424 100.093 67.0494 97.7408 68.9439C97.0859 69.4433 96.3894 69.8856 95.6589 70.266C95.4715 70.37 95.2789 70.4585 95.0811 70.547C94.8833 70.6355 94.7064 70.7188 94.4721 70.8073C94.0107 70.9771 93.5352 71.1059 93.0512 71.1924C92.2652 71.325 91.4696 71.3929 90.6726 71.3954C89.923 71.3954 89.2048 71.3954 88.4969 71.3278C85.7358 71.1075 83.0036 70.6123 80.3408 69.8496L80.752 66.8047C83.3545 66.7058 85.9933 66.6225 88.4709 66.4039C89.0903 66.3467 89.6992 66.2738 90.277 66.1853C90.806 66.1135 91.3282 65.9986 91.8385 65.8418C92.005 65.7942 92.1657 65.7278 92.3173 65.644C92.4891 65.5399 92.7233 65.441 92.9159 65.3057C93.3401 65.0382 93.7422 64.7371 94.1182 64.4052C94.9485 63.6688 95.6971 62.8451 96.3511 61.9485C97.0638 60.9975 97.714 60.0013 98.2977 58.9661C98.9067 57.9251 99.4532 56.8165 99.9893 55.7026C100.25 55.1457 100.51 54.5784 100.739 54.011L101.088 53.1626L101.405 52.3611L107.266 54.3754Z" fill="#7F3E3B"/>
<path d="M105.293 49.5761C112.762 49.5761 104.554 65.7114 104.554 65.7114L95.0234 61.8545C95.0234 61.8545 97.6259 56.2436 99.3383 53.0322C99.8929 51.9442 100.75 51.0394 101.806 50.4263C102.862 49.8133 104.073 49.5181 105.293 49.5761Z" fill="#1C2D5E"/>
<g opacity="0.3">
<path opacity="0.3" d="M105.293 49.5761C112.762 49.5761 104.554 65.7114 104.554 65.7114L95.0234 61.8545C95.0234 61.8545 97.6259 56.2436 99.3383 53.0322C99.8929 51.9442 100.75 51.0394 101.806 50.4263C102.862 49.8133 104.073 49.5181 105.293 49.5761Z" fill="white"/>
</g>
<path opacity="0.2" d="M103.466 54.7915C100.733 56.7121 98.8333 60.2775 98.292 63.1714L103.736 65.3783C104.725 63.9001 105.688 62.1564 106.75 60.6262C107.041 59.8299 107.328 58.9919 107.578 58.1435L103.466 54.7915Z" fill="black"/>
<path d="M83.0942 67.1945L79.8203 65.3468L77.3115 70.0312C78.7606 70.2764 80.2434 70.2393 81.6784 69.9219L83.0942 67.1945Z" fill="#7F3E3B"/>
<path d="M76.687 65.3468L74.8652 69.4795L77.2907 70.0468L79.7995 65.3468H76.687Z" fill="#7F3E3B"/>
<path opacity="0.2" d="M93.8478 169.466L93.499 174.369L97.5224 175.124L97.8711 170.221L93.8478 169.466Z" fill="black"/>
<path opacity="0.2" d="M123.245 170.153H119.148L119.679 175.04H123.77L123.245 170.153Z" fill="black"/>
<path d="M125.66 51.3615C124.46 55.7791 123.59 60.2799 123.057 64.8266C122.667 67.9964 122.438 71.0204 122.292 73.7686C121.949 80.2019 122.095 85.1049 121.902 86.7809C118.701 86.5623 106.641 85.7399 100.041 85.261C97.0694 61.9795 102.748 49.9874 102.748 49.9874C104.468 49.6641 106.206 49.4468 107.953 49.3368C108.322 49.3368 108.702 49.3004 109.082 49.2952C112.187 49.3315 115.288 49.547 118.368 49.9406C118.951 50.0082 119.544 50.0967 120.117 50.1904C123.089 50.6484 125.66 51.3615 125.66 51.3615Z" fill="#1C2D5E"/>
<g opacity="0.3">
<path opacity="0.3" d="M125.66 51.3615C124.46 55.7791 123.59 60.2799 123.057 64.8266C122.667 67.9964 122.438 71.0204 122.292 73.7686C121.949 80.2019 122.095 85.1049 121.902 86.7809C118.701 86.5623 106.641 85.7399 100.041 85.261C97.0694 61.9795 102.748 49.9874 102.748 49.9874C104.468 49.6641 106.206 49.4468 107.953 49.3368C108.322 49.3368 108.702 49.3004 109.082 49.2952C112.187 49.3315 115.288 49.547 118.368 49.9406C118.951 50.0082 119.544 50.0967 120.117 50.1904C123.089 50.6484 125.66 51.3615 125.66 51.3615Z" fill="white"/>
</g>
<path opacity="0.2" d="M120.148 57.2533C120.106 60.6034 121.045 63.8926 122.849 66.7158C122.912 66.0912 122.984 65.4614 123.063 64.8264C123.354 62.4426 123.729 59.9755 124.223 57.4823L120.148 57.2533Z" fill="black"/>
<path d="M118.222 39.4059C117.431 42.3571 116.463 47.7858 118.414 49.925C117.427 50.8204 116.259 51.4934 114.99 51.8984C113.72 52.3034 112.378 52.4309 111.055 52.2724C108.489 52.0382 108.489 50.2321 109.129 49.2796C112.517 48.7175 112.601 46.2399 112.184 43.8769L118.222 39.4059Z" fill="#7F3E3B"/>
<path d="M109.176 53.2461C109.236 53.7055 109.344 54.1573 109.498 54.5942C109.543 54.7333 109.63 54.8548 109.748 54.9409C109.866 55.027 110.008 55.0732 110.154 55.073C110.582 55.0668 111.009 55.1034 111.43 55.1823C111.518 55.2031 111.61 55.2054 111.699 55.1893C111.789 55.1732 111.874 55.139 111.95 55.0886C112.47 54.7607 113.137 54.2767 112.965 53.6729C112.762 52.965 111.544 52.3248 111.544 52.3248C111.544 52.3248 109.452 52.8401 109.176 53.2461Z" fill="#263238"/>
<path d="M110.274 54.5942C109.436 56.4264 107.5 68.1582 107.261 69.9331C107.021 71.708 107.838 74.5707 108.973 76.8452C110.277 75.0566 111.02 72.9205 111.107 70.7086C111.258 68.2831 111.404 54.8857 111.404 54.8857L110.274 54.5942Z" fill="#263238"/>
<path d="M111.528 52.3244C112.303 52.9706 112.943 53.7629 113.412 54.6562C114.729 54.5521 120.543 52.0017 119.716 50.0342C118.992 49.8312 118.357 49.4148 118.154 49.6282C117.878 50.0498 115.411 51.5384 111.528 52.3244Z" fill="white"/>
<path d="M111.529 52.3247C111.529 52.3247 109.296 53.0794 108.775 54.3494C107.427 53.7509 106.693 51.0495 107.885 49.2746C108.629 49.2122 109.343 48.8426 109.478 49.0873C109.686 49.5505 109.119 50.7945 111.529 52.3247Z" fill="white"/>
<path opacity="0.2" d="M115.76 41.2332L112.185 43.872C112.292 44.4226 112.35 44.9818 112.356 45.5428C113.642 45.4491 115.479 44.1739 115.719 42.8519C115.832 42.3195 115.846 41.7707 115.76 41.2332Z" fill="black"/>
<path d="M109.551 29.9279C107.99 30.5421 107.412 36.585 110.592 35.9916C113.772 35.3983 112.695 28.6943 109.551 29.9279Z" fill="#263238"/>
<path d="M119.861 35.9709C118.586 39.8278 118.04 42.1492 115.531 43.643C111.752 45.8863 107.385 42.8154 107.479 38.6567C107.562 34.9143 109.629 29.2306 113.881 28.6841C114.817 28.5574 115.77 28.6723 116.65 29.0179C117.529 29.3635 118.305 29.9284 118.905 30.6587C119.504 31.389 119.907 32.2605 120.074 33.1903C120.242 34.1202 120.168 35.0774 119.861 35.9709Z" fill="#7F3E3B"/>
<path d="M118.415 38.6254C116.796 38.6566 115.469 33.7536 118.732 32.3795C116.161 32.0828 108.265 32.5148 106.85 28.9859C105.434 25.457 110.925 24.9104 112.794 26.2429C112.2 24.3015 114.615 21.4388 118.956 24.0412C123.297 26.6437 123.245 29.8551 122.839 30.8076C124.775 31.3281 125.155 35.6377 123.016 36.2155C124.271 37.9539 123.188 41.6078 119.805 40.827C119.69 42.9558 117.317 42.0242 117.462 40.3898C117.608 38.7555 118.415 38.6254 118.415 38.6254Z" fill="#263238"/>
<path d="M111.2 39.5675C111.658 39.7014 112.141 39.724 112.609 39.6334C113.077 39.5429 113.516 39.3418 113.891 39.047C113.91 39.0267 113.921 38.9997 113.921 38.9716C113.921 38.9434 113.91 38.9164 113.891 38.8961C113.872 38.877 113.845 38.8663 113.818 38.8663C113.791 38.8663 113.765 38.877 113.745 38.8961C113.399 39.1735 112.993 39.3652 112.559 39.4556C112.124 39.5461 111.675 39.5327 111.247 39.4166C111.234 39.4127 111.22 39.4115 111.207 39.4131C111.193 39.4147 111.18 39.419 111.169 39.4259C111.157 39.4327 111.147 39.4419 111.139 39.4528C111.131 39.4637 111.125 39.4762 111.122 39.4895C111.126 39.5088 111.135 39.5265 111.149 39.5404C111.163 39.5543 111.181 39.5637 111.2 39.5675Z" fill="#263238"/>
<path d="M120.668 40.0618C119.92 40.7598 118.926 41.134 117.904 41.1028C116.551 41.0455 116.29 39.7339 117.014 38.6773C117.67 37.7248 119.158 36.5954 120.345 37.1731C120.603 37.3026 120.825 37.4945 120.99 37.7315C121.155 37.9684 121.258 38.2429 121.29 38.5299C121.322 38.8169 121.282 39.1074 121.174 39.3749C121.065 39.6424 120.891 39.8786 120.668 40.0618Z" fill="#7F3E3B"/>
<path d="M92.1404 172.782L98.9068 174.38C98.9068 174.38 101.301 148.017 103.357 133.532C103.903 129.691 104.747 124.288 106.032 118.532C107.651 111.281 109.676 103.437 111.352 97.2956C113.106 90.8259 114.443 86.2508 114.443 86.2508L100.088 85.2462C100.088 85.2462 92.3174 119.13 91.495 131.57C90.6154 144.551 92.1404 172.782 92.1404 172.782Z" fill="#263238"/>
<path opacity="0.2" d="M105.995 118.531C107.614 111.281 109.639 103.437 111.315 97.2952L109.821 94.0837C106.276 98.3153 105.319 111.416 105.995 118.531Z" fill="black"/>
<path d="M107.812 85.7874C107.812 85.7874 109.374 120.827 111.092 132.694C112.981 145.706 117.785 174.094 117.785 174.094H125.285C125.285 174.094 123.203 147.096 121.793 134.37C120.185 119.874 121.902 86.7711 121.902 86.7711L107.812 85.7874Z" fill="#263238"/>
<path d="M116.89 174.255H125.717L126.108 171.616L116.364 171.444L116.89 174.255Z" fill="#1C2D5E"/>
<path d="M91.7082 173.235L99.3958 174.682L100.265 172.001L91.5 170.341L91.7082 173.235Z" fill="#1C2D5E"/>
<path d="M113.933 35.6643C113.845 35.9818 113.611 36.1848 113.413 36.1432C113.215 36.1015 113.1 35.784 113.184 35.4665C113.267 35.149 113.506 34.9461 113.704 34.9877C113.902 35.0293 114.017 35.3468 113.933 35.6643Z" fill="#263238"/>
<path d="M110.321 34.717C110.238 35.0345 109.999 35.2375 109.801 35.1907C109.603 35.1438 109.494 34.8367 109.577 34.514C109.66 34.1913 109.9 33.9935 110.097 34.0352C110.295 34.0768 110.405 34.3943 110.321 34.717Z" fill="#263238"/>
<path d="M111.122 35.0129C110.483 35.8881 109.729 36.6726 108.879 37.3447C109.301 38.0162 110.388 37.9589 110.388 37.9589L111.122 35.0129Z" fill="#630F0F"/>
<path d="M115.052 34.6276C115.016 34.6254 114.981 34.6129 114.951 34.5918C114.922 34.5706 114.899 34.5415 114.885 34.5079C114.798 34.2805 114.658 34.0768 114.477 33.9132C114.296 33.7496 114.08 33.6307 113.844 33.5658C113.82 33.561 113.796 33.5514 113.775 33.5374C113.753 33.5234 113.735 33.5054 113.721 33.4844C113.707 33.4634 113.697 33.4397 113.691 33.4149C113.686 33.39 113.686 33.3643 113.691 33.3394C113.696 33.3144 113.705 33.2907 113.719 33.2695C113.733 33.2482 113.751 33.23 113.772 33.2157C113.793 33.2015 113.817 33.1915 113.842 33.1864C113.867 33.1812 113.892 33.181 113.917 33.1858C114.216 33.2619 114.491 33.4085 114.722 33.6131C114.952 33.8178 115.129 34.0747 115.239 34.3621C115.25 34.3857 115.255 34.411 115.255 34.4367C115.256 34.4624 115.251 34.4878 115.241 34.5116C115.231 34.5353 115.217 34.5569 115.199 34.5751C115.181 34.5932 115.159 34.6075 115.135 34.6172C115.109 34.6271 115.08 34.6307 115.052 34.6276Z" fill="#263238"/>
<path d="M108.796 32.9053C108.756 32.9006 108.718 32.8844 108.687 32.8585C108.669 32.8405 108.654 32.8191 108.644 32.7954C108.634 32.7717 108.629 32.7462 108.629 32.7205C108.629 32.6948 108.634 32.6694 108.644 32.6457C108.654 32.622 108.669 32.6005 108.687 32.5826C108.882 32.3442 109.131 32.156 109.414 32.0337C109.696 31.9115 110.004 31.8587 110.311 31.8799C110.361 31.8889 110.406 31.9163 110.437 31.9568C110.468 31.9973 110.482 32.0479 110.478 32.0985C110.47 32.1492 110.443 32.1949 110.402 32.226C110.361 32.2571 110.31 32.2711 110.259 32.2651C110.016 32.2541 109.773 32.3001 109.551 32.3995C109.329 32.4989 109.133 32.649 108.979 32.8376C108.957 32.8636 108.928 32.8835 108.896 32.8954C108.864 32.9072 108.83 32.9107 108.796 32.9053Z" fill="#263238"/>
<path d="M118.487 179.871C118.208 179.893 117.929 179.819 117.696 179.663C117.622 179.6 117.566 179.519 117.531 179.428C117.497 179.337 117.485 179.239 117.498 179.142C117.497 179.086 117.512 179.031 117.542 178.982C117.571 178.934 117.614 178.896 117.665 178.872C118.118 178.638 119.435 179.45 119.586 179.543C119.601 179.553 119.614 179.567 119.621 179.583C119.629 179.6 119.631 179.619 119.627 179.637C119.626 179.657 119.618 179.676 119.604 179.69C119.591 179.705 119.574 179.716 119.554 179.72C119.205 179.81 118.848 179.861 118.487 179.871ZM117.878 179.023C117.835 179.019 117.792 179.028 117.753 179.049C117.727 179.049 117.696 179.085 117.691 179.163C117.682 179.228 117.689 179.293 117.712 179.354C117.735 179.415 117.772 179.469 117.821 179.512C118.278 179.72 118.798 179.746 119.273 179.585C118.847 179.308 118.372 179.118 117.873 179.023H117.878Z" fill="#1C2D5E"/>
<path d="M119.528 179.725H119.481C119.06 179.496 118.237 178.596 118.326 178.164C118.34 178.092 118.379 178.028 118.434 177.982C118.49 177.935 118.56 177.91 118.633 177.909C118.707 177.898 118.783 177.904 118.855 177.926C118.927 177.947 118.993 177.984 119.049 178.034C119.523 178.419 119.622 179.595 119.627 179.652C119.627 179.67 119.623 179.687 119.615 179.702C119.607 179.718 119.595 179.731 119.58 179.741C119.562 179.741 119.544 179.736 119.528 179.725ZM118.701 178.065H118.659C118.534 178.065 118.524 178.138 118.519 178.164C118.466 178.429 118.987 179.111 119.409 179.428C119.381 178.962 119.212 178.516 118.925 178.148C118.863 178.094 118.783 178.064 118.701 178.065Z" fill="#1C2D5E"/>
<path d="M92.7593 178.586C92.0879 178.586 90.9064 178.56 90.5316 178.097C90.4723 178.025 90.4322 177.94 90.4149 177.849C90.3976 177.758 90.4037 177.664 90.4327 177.576C90.4439 177.525 90.468 177.478 90.5026 177.438C90.5372 177.399 90.5812 177.37 90.6305 177.352C91.151 177.17 92.65 178.263 92.8166 178.393C92.8326 178.405 92.8444 178.421 92.85 178.44C92.8557 178.459 92.8549 178.479 92.8478 178.497C92.8455 178.52 92.8355 178.541 92.8193 178.557C92.8032 178.573 92.782 178.583 92.7593 178.586ZM90.7086 177.545C90.6881 177.551 90.6698 177.564 90.656 177.58C90.6422 177.597 90.6334 177.617 90.6305 177.638C90.6136 177.693 90.6104 177.751 90.6213 177.808C90.6322 177.864 90.6568 177.917 90.693 177.961C90.9012 178.227 91.557 178.378 92.473 178.383C91.8537 177.977 91.0209 177.482 90.7086 177.55V177.545Z" fill="#1C2D5E"/>
<path d="M92.7595 178.585C92.7361 178.594 92.7101 178.594 92.6867 178.585C92.239 178.283 91.4271 177.242 91.578 176.8C91.6144 176.696 91.7133 176.576 91.9788 176.591C92.0784 176.596 92.1761 176.621 92.2657 176.665C92.3553 176.708 92.4348 176.77 92.4993 176.847C92.9417 177.367 92.8636 178.465 92.8584 178.512C92.8574 178.529 92.852 178.544 92.8429 178.558C92.8337 178.572 92.8211 178.583 92.8064 178.59L92.7595 178.585ZM91.8539 176.779C91.781 176.779 91.7654 176.831 91.7602 176.847C91.6717 177.112 92.2078 177.914 92.6502 178.293C92.6866 177.827 92.5755 177.361 92.3327 176.961C92.2878 176.907 92.2324 176.862 92.1698 176.83C92.1071 176.798 92.0386 176.779 91.9684 176.774C91.9303 176.767 91.8912 176.768 91.8539 176.779Z" fill="#1C2D5E"/>
<path d="M107.094 69.6412L105.434 68.4545L78.2119 106.56L79.8723 107.746C84.9316 111.174 91.1302 112.488 97.1453 111.409C103.16 110.33 108.515 106.943 112.068 101.97C115.62 96.9977 117.088 90.8337 116.159 84.7937C115.23 78.7537 111.977 73.316 107.094 69.6412Z" fill="#1C2D5E"/>
<path opacity="0.1" d="M107.094 69.6412L105.434 68.4545L78.2119 106.56L79.8723 107.746C84.9316 111.174 91.1302 112.488 97.1453 111.409C103.16 110.33 108.515 106.943 112.068 101.97C115.62 96.9977 117.088 90.8337 116.159 84.7937C115.23 78.7537 111.977 73.316 107.094 69.6412Z" fill="black"/>
<path d="M66.777 90.4876C66.3894 87.2678 66.628 84.0034 67.4796 80.8741L68.0001 81.0095C67.1636 84.0757 66.9303 87.2752 67.3131 90.4303L66.777 90.4876Z" fill="#1C2D5E"/>
<path d="M68.3544 96.7689C67.8902 95.5844 67.5161 94.3664 67.2354 93.1255L67.7558 93.011C68.0333 94.2233 68.4004 95.4132 68.8541 96.5711L68.3544 96.7689Z" fill="#1C2D5E"/>
<path d="M96.5551 110.43C109.219 107.822 117.37 95.4406 114.762 82.7766C112.153 70.1126 99.7719 61.9612 87.1079 64.57C74.4439 67.1788 66.2926 79.5598 68.9013 92.2238C71.5101 104.888 83.8911 113.039 96.5551 110.43Z" fill="#1C2D5E"/>
<path d="M86.2951 93.428L89.9698 88.2908C88.6928 86.6876 88.011 85.1539 87.9242 83.6896C87.8583 82.1931 88.3166 80.7205 89.2202 79.5257C90.0791 78.2524 91.4015 77.3652 92.9053 77.0534C94.4597 76.7575 96.0685 77.0566 97.4128 77.8914L98.2976 76.6526L100.078 77.9226L99.1876 79.1614C100.276 80.0757 101.034 81.3232 101.342 82.7111C101.575 84.0743 101.356 85.4763 100.718 86.7033L97.3243 84.892C97.5717 84.4247 97.695 83.9016 97.6822 83.373C97.6695 82.8444 97.5211 82.3279 97.2514 81.8731L93.8266 86.672C95.4089 88.6083 96.2538 90.253 96.3614 91.6063C96.4397 93.0537 95.9924 94.4807 95.1018 95.6245C94.161 97.0257 92.726 98.0202 91.0836 98.4091C89.3525 98.7656 87.5508 98.4807 86.014 97.6075L85.1292 98.8463L83.3491 97.5763L84.1923 96.3948C82.9787 95.3527 82.1608 93.9246 81.8761 92.3506C81.6587 90.6366 82.002 88.8982 82.8546 87.3955L86.3055 89.3421C85.98 90.0352 85.8179 90.7938 85.8319 91.5594C85.8382 92.2099 85.9968 92.8499 86.2951 93.428ZM95.4974 80.5459C94.9291 80.361 94.3168 80.361 93.7485 80.5459C93.1996 80.7207 92.7227 81.0697 92.39 81.54C92.0825 81.9752 91.9187 82.4957 91.9216 83.0286C91.9277 83.6504 92.108 84.2581 92.4421 84.7826L95.4974 80.5459ZM87.9503 94.875C88.5977 95.1881 89.3347 95.2636 90.0322 95.0884C90.7321 94.9164 91.3449 94.4943 91.755 93.9016C92.1312 93.3933 92.3156 92.7683 92.2755 92.1372C92.176 91.3751 91.8496 90.6606 91.3386 90.0864L87.9503 94.875Z" fill="white"/>
<path opacity="0.1" d="M110.789 85.5584C109.699 80.8275 106.846 76.6904 102.812 73.9902C98.7774 71.29 93.865 70.2302 89.076 71.0267C84.2871 71.8232 79.9822 74.4161 77.0388 78.2768C74.0955 82.1375 72.7354 86.9754 73.2356 91.8043C72.6513 89.2674 72.5926 86.6378 73.063 84.0774C73.5334 81.517 74.5231 79.0801 75.971 76.9166C77.4189 74.7532 79.2944 72.9091 81.482 71.4979C83.6696 70.0868 86.1229 69.1384 88.6909 68.7113C91.2589 68.2842 93.8871 68.3874 96.4137 69.0145C98.9403 69.6416 101.312 70.7793 103.382 72.3576C105.452 73.9359 107.177 75.9214 108.451 78.1916C109.725 80.4619 110.521 82.969 110.789 85.5584Z" fill="black"/>
<path d="M126.186 53.5996C126.706 54.2606 127.138 54.854 127.575 55.4994C128.012 56.1448 128.439 56.7642 128.856 57.4096C129.683 58.7004 130.469 60.012 131.198 61.3809C131.927 62.7498 132.603 64.1499 133.217 65.5969L133.665 66.6951L134.071 67.8246C134.206 68.1942 134.321 68.5897 134.44 68.9749L134.612 69.5578L134.659 69.7036L134.737 70.0211C134.787 70.2371 134.821 70.4562 134.841 70.6769C134.891 71.4105 134.793 72.1466 134.555 72.8421C134.375 73.3655 134.14 73.8681 133.852 74.3411C133.377 75.1156 132.826 75.841 132.208 76.5064C131.11 77.6734 129.917 78.7475 128.642 79.7178C126.218 81.5686 123.637 83.204 120.929 84.6052L119.242 82.034C121.423 80.1758 123.604 78.2188 125.577 76.2357C126.535 75.2864 127.426 74.2706 128.241 73.1961C128.588 72.7471 128.888 72.264 129.137 71.7543C129.214 71.5874 129.273 71.413 129.314 71.2338C129.314 71.1193 129.314 71.0985 129.314 71.2338C129.306 71.2716 129.306 71.3105 129.314 71.3483C129.313 71.3639 129.313 71.3796 129.314 71.3952L129.267 71.2807L129.085 70.8226C128.96 70.5103 128.85 70.2033 128.705 69.8962L128.288 68.9749L127.846 68.0536C127.227 66.8305 126.565 65.6125 125.847 64.4102C125.129 63.2079 124.385 62.0107 123.609 60.8344C123.229 60.2411 122.834 59.6529 122.438 59.0752L121.251 57.3836L126.186 53.5996Z" fill="#7F3E3B"/>
<path d="M125.66 51.362C129.496 52.1376 132.863 61.5168 132.863 61.5168L124.858 68.0385C124.858 68.0385 122.256 63.2708 120.132 58.6697C117.847 53.6574 121.012 50.4251 125.66 51.362Z" fill="#1C2D5E"/>
<g opacity="0.3">
<path opacity="0.3" d="M125.66 51.362C129.496 52.1376 132.863 61.5168 132.863 61.5168L124.858 68.0385C124.858 68.0385 122.256 63.2708 120.132 58.6697C117.847 53.6574 121.012 50.4251 125.66 51.362Z" fill="white"/>
</g>
<path d="M120.189 81.6754L116.057 82.1282L118.737 86.6149C118.737 86.6149 122.172 85.449 121.756 83.5648L120.189 81.6754Z" fill="#7F3E3B"/>
<path d="M113.595 84.4962L115.984 88.1032L118.737 86.6146L116.057 82.1279L113.595 84.4962Z" fill="#7F3E3B"/>
</svg>
