<svg width="25" height="24" viewBox="0 0 25 24" fill="none" xmlns="http://www.w3.org/2000/svg">
<path d="M6.50781 5H8.50781V3H6.50781V5ZM9.50781 6V8H11.5078V6H9.50781ZM8.50781 9H6.50781V11H8.50781V9ZM5.50781 8V6H3.50781V8H5.50781ZM6.50781 9C5.95553 9 5.50781 8.55228 5.50781 8H3.50781C3.50781 9.65685 4.85096 11 6.50781 11V9ZM9.50781 8C9.50781 8.55228 9.0601 9 8.50781 9V11C10.1647 11 11.5078 9.65685 11.5078 8H9.50781ZM8.50781 5C9.0601 5 9.50781 5.44772 9.50781 6H11.5078C11.5078 4.34315 10.1647 3 8.50781 3V5ZM6.50781 3C4.85096 3 3.50781 4.34315 3.50781 6H5.50781C5.50781 5.44772 5.95553 5 6.50781 5V3ZM16.5078 5H18.5078V3H16.5078V5ZM19.5078 6V8H21.5078V6H19.5078ZM18.5078 9H16.5078V11H18.5078V9ZM15.5078 8V6H13.5078V8H15.5078ZM16.5078 9C15.9555 9 15.5078 8.55228 15.5078 8H13.5078C13.5078 9.65685 14.851 11 16.5078 11V9ZM19.5078 8C19.5078 8.55228 19.0601 9 18.5078 9V11C20.1647 11 21.5078 9.65685 21.5078 8H19.5078ZM18.5078 5C19.0601 5 19.5078 5.44772 19.5078 6H21.5078C21.5078 4.34315 20.1647 3 18.5078 3V5ZM16.5078 3C14.851 3 13.5078 4.34315 13.5078 6H15.5078C15.5078 5.44772 15.9555 5 16.5078 5V3ZM6.50781 15H8.50781V13H6.50781V15ZM9.50781 16V18H11.5078V16H9.50781ZM8.50781 19H6.50781V21H8.50781V19ZM5.50781 18V16H3.50781V18H5.50781ZM6.50781 19C5.95553 19 5.50781 18.5523 5.50781 18H3.50781C3.50781 19.6569 4.85096 21 6.50781 21V19ZM9.50781 18C9.50781 18.5523 9.0601 19 8.50781 19V21C10.1647 21 11.5078 19.6569 11.5078 18H9.50781ZM8.50781 15C9.0601 15 9.50781 15.4477 9.50781 16H11.5078C11.5078 14.3431 10.1647 13 8.50781 13V15ZM6.50781 13C4.85096 13 3.50781 14.3431 3.50781 16H5.50781C5.50781 15.4477 5.95553 15 6.50781 15V13ZM16.5078 15H18.5078V13H16.5078V15ZM19.5078 16V18H21.5078V16H19.5078ZM18.5078 19H16.5078V21H18.5078V19ZM15.5078 18V16H13.5078V18H15.5078ZM16.5078 19C15.9555 19 15.5078 18.5523 15.5078 18H13.5078C13.5078 19.6569 14.851 21 16.5078 21V19ZM19.5078 18C19.5078 18.5523 19.0601 19 18.5078 19V21C20.1647 21 21.5078 19.6569 21.5078 18H19.5078ZM18.5078 15C19.0601 15 19.5078 15.4477 19.5078 16H21.5078C21.5078 14.3431 20.1647 13 18.5078 13V15ZM16.5078 13C14.851 13 13.5078 14.3431 13.5078 16H15.5078C15.5078 15.4477 15.9555 15 16.5078 15V13Z" fill="#1C2D5E"/>
</svg>
