<svg width="250" height="233" viewBox="0 0 250 233" fill="none" xmlns="http://www.w3.org/2000/svg">
<path d="M36.6103 214.74C85.4276 238.005 164.572 238.012 213.39 214.74C262.207 191.468 262.2 153.752 213.39 130.487C164.579 107.223 85.4276 107.223 36.6103 130.487C-12.207 153.752 -12.1999 191.475 36.6103 214.74Z" fill="#F5F5F5"/>
<path d="M213.219 197.546C222.21 197.546 229.498 194.073 229.498 189.788C229.498 185.504 222.21 182.031 213.219 182.031C204.228 182.031 196.939 185.504 196.939 189.788C196.939 194.073 204.228 197.546 213.219 197.546Z" fill="#EBEBEB"/>
<path d="M32.9043 190.9L38.6638 187.577C41.8794 184.953 44.327 181.51 45.748 177.61C47.5261 172.708 47.2782 168.981 46.003 167.111C44.4374 164.809 40.3781 165.212 40.2152 170.058C39.8752 179.608 37.0911 186.231 32.9043 190.9Z" fill="#FF5C8A"/>
<path opacity="0.2" d="M32.9043 190.9L38.6638 187.577C41.8794 184.953 44.327 181.51 45.748 177.61C47.5261 172.708 47.2782 168.981 46.003 167.111C44.4374 164.809 40.3781 165.212 40.2152 170.058C39.8752 179.608 37.0911 186.231 32.9043 190.9Z" fill="#1C2D5E"/>
<path d="M32.9046 191.254C32.8296 191.253 32.7568 191.228 32.6967 191.183C32.6367 191.138 32.5924 191.076 32.5703 191.004C32.5483 190.932 32.5496 190.855 32.574 190.784C32.5984 190.713 32.6447 190.652 32.7062 190.609C46.0245 181.4 43.4459 168.556 43.4175 168.429C43.4078 168.382 43.4072 168.334 43.416 168.287C43.4248 168.241 43.4427 168.196 43.4687 168.156C43.4947 168.116 43.5282 168.082 43.5675 168.055C43.6067 168.029 43.6508 168.01 43.6974 168C43.7439 167.99 43.7919 167.99 43.8386 167.998C43.8853 168.007 43.9298 168.025 43.9696 168.051C44.0094 168.077 44.0437 168.111 44.0705 168.15C44.0973 168.189 44.1162 168.233 44.1259 168.28C44.1259 168.414 46.8463 181.697 33.1313 191.19C33.0647 191.236 32.9851 191.258 32.9046 191.254Z" fill="white"/>
<path d="M21.3644 197.567C21.3644 197.567 19.3595 195.938 19.8413 193.728C20.323 191.517 21.6194 189.93 19.4021 187.083C17.1847 184.235 16.5684 180.438 19.2179 178.383C21.2369 176.789 24.3893 179.042 25.5228 174.841C26.3587 171.766 26.0754 164.959 29.9929 162.692C33.9105 160.425 36.3687 163.839 35.7524 168.458C35.214 172.588 34.4489 176.562 35.044 177.668C36.1916 179.793 38.154 179.502 38.0619 183.385C37.9839 186.998 34.5623 189.987 34.5623 189.987L21.3644 197.567Z" fill="#FF5C8A"/>
<path d="M27.9455 194.103C27.8589 194.102 27.7755 194.07 27.7105 194.013C27.6455 193.955 27.6032 193.877 27.5913 193.791C26.5783 185.396 29.0082 170.902 30.9917 166.595C31.0084 166.547 31.0352 166.503 31.0702 166.467C31.1052 166.43 31.1476 166.402 31.1946 166.383C31.2415 166.364 31.292 166.355 31.3426 166.358C31.3931 166.36 31.4426 166.373 31.4876 166.396C31.5299 166.415 31.568 166.443 31.5995 166.477C31.6311 166.511 31.6555 166.551 31.6713 166.594C31.6872 166.638 31.6941 166.684 31.6918 166.73C31.6894 166.777 31.6778 166.822 31.6577 166.864C29.6953 171.114 27.3505 185.651 28.321 193.678C28.331 193.771 28.3038 193.864 28.2454 193.937C28.187 194.01 28.1021 194.057 28.0093 194.067L27.9455 194.103Z" fill="white"/>
<path d="M27.7552 187.564C27.701 187.566 27.6471 187.554 27.5993 187.528C25.1411 186.331 23.5826 182.059 23.5188 181.861C23.5014 181.817 23.4931 181.77 23.4942 181.723C23.4954 181.675 23.506 181.629 23.5255 181.585C23.545 181.542 23.573 181.503 23.6077 181.471C23.6425 181.439 23.6833 181.414 23.7279 181.398C23.7724 181.382 23.8197 181.375 23.867 181.377C23.9143 181.38 23.9606 181.392 24.0032 181.413C24.0458 181.433 24.0838 181.462 24.115 181.498C24.1462 181.534 24.1699 181.575 24.1847 181.62C24.1847 181.663 25.7078 185.8 27.911 186.87C27.9833 186.905 28.0415 186.963 28.0762 187.036C28.1108 187.108 28.1198 187.19 28.1017 187.268C28.0836 187.346 28.0394 187.416 27.9765 187.466C27.9135 187.516 27.8355 187.543 27.7552 187.543V187.564Z" fill="white"/>
<path d="M27.7115 190.398C27.6405 190.398 27.5712 190.376 27.5129 190.336C27.4546 190.295 27.4102 190.238 27.3856 190.171C27.3503 190.085 27.3507 189.988 27.3865 189.902C27.4223 189.815 27.4907 189.747 27.5769 189.711C31.714 188.053 34.2927 183.129 34.321 183.073C34.3642 182.989 34.4389 182.926 34.5286 182.898C34.6182 182.869 34.7156 182.877 34.7992 182.92C34.8828 182.964 34.9458 183.038 34.9744 183.128C35.003 183.218 34.9947 183.315 34.9515 183.399C34.8382 183.611 32.2241 188.613 27.8673 190.37C27.8188 190.393 27.765 190.402 27.7115 190.398Z" fill="white"/>
<path d="M172.321 152.285C172.321 152.285 169.225 147.269 168.921 141.821C168.616 136.373 169.813 134.107 171.457 133.455C173.1 132.803 173.228 134.808 174.071 135.991C174.914 137.174 176.635 136.501 177.273 132.81C177.91 129.119 180.234 122.892 185.065 121.681C190.379 120.363 187.531 126.597 186.192 129.027C184.853 131.457 183.819 134.772 184.697 135.672C185.576 136.572 186.943 134.907 188.239 136.451C189.819 138.315 184.91 145.023 182.09 146.646L172.321 152.285Z" fill="#FF5C8A"/>
<path d="M176.565 150.18C176.518 150.179 176.473 150.168 176.43 150.148C176.388 150.129 176.35 150.101 176.319 150.067C176.287 150.033 176.262 149.992 176.246 149.949C176.23 149.905 176.223 149.859 176.225 149.812C176.705 141.049 179.437 132.557 184.159 125.159C184.186 125.12 184.22 125.088 184.26 125.063C184.3 125.038 184.344 125.021 184.391 125.014C184.437 125.007 184.484 125.009 184.53 125.02C184.575 125.032 184.618 125.053 184.655 125.081C184.729 125.136 184.779 125.218 184.794 125.31C184.808 125.401 184.786 125.494 184.733 125.57C180.096 132.86 177.412 141.22 176.94 149.847C176.938 149.894 176.926 149.94 176.905 149.981C176.885 150.023 176.857 150.061 176.822 150.092C176.787 150.123 176.746 150.147 176.702 150.162C176.658 150.177 176.611 150.183 176.565 150.18Z" fill="white"/>
<path d="M176.969 145.993C176.91 145.992 176.851 145.978 176.799 145.95C174.815 144.852 173.717 141.594 173.675 141.459C173.659 141.415 173.652 141.368 173.655 141.321C173.657 141.274 173.669 141.229 173.69 141.187C173.71 141.144 173.739 141.107 173.774 141.076C173.809 141.045 173.85 141.021 173.894 141.006C173.983 140.977 174.081 140.984 174.164 141.027C174.248 141.069 174.311 141.143 174.34 141.232C174.34 141.232 175.403 144.371 177.174 145.327C177.254 145.374 177.313 145.451 177.338 145.541C177.363 145.631 177.353 145.727 177.309 145.809C177.277 145.87 177.227 145.92 177.167 145.953C177.106 145.985 177.037 145.999 176.969 145.993Z" fill="white"/>
<path d="M177.316 143.847C177.238 143.846 177.162 143.819 177.1 143.77C177.039 143.721 176.995 143.654 176.976 143.577C176.964 143.533 176.962 143.486 176.968 143.441C176.975 143.395 176.991 143.351 177.014 143.311C177.038 143.272 177.069 143.237 177.107 143.21C177.144 143.183 177.186 143.163 177.231 143.152C182.346 141.856 184.117 139.178 184.131 139.15C184.156 139.11 184.189 139.076 184.227 139.049C184.266 139.022 184.309 139.003 184.355 138.993C184.4 138.983 184.448 138.982 184.494 138.99C184.54 138.998 184.584 139.015 184.623 139.04C184.663 139.065 184.697 139.098 184.724 139.136C184.751 139.174 184.77 139.218 184.78 139.263C184.791 139.309 184.792 139.356 184.784 139.403C184.775 139.449 184.758 139.493 184.733 139.532C184.655 139.653 182.813 142.465 177.408 143.84L177.316 143.847Z" fill="white"/>
<path d="M95.2462 141.275C95.2462 141.275 88.4525 139.617 88.0983 126.894C87.7228 113.165 89.7631 97.1405 81.7225 95.8441C73.6819 94.5477 69.2188 104.345 69.318 115.786C69.4101 125.803 73.4481 147.552 95.2179 151.816L95.2462 141.275Z" fill="#FF5C8A"/>
<path opacity="0.2" d="M95.2462 141.275C95.2462 141.275 88.4525 139.617 88.0983 126.894C87.7228 113.165 89.7631 97.1405 81.7225 95.8441C73.6819 94.5477 69.2188 104.345 69.318 115.786C69.4101 125.803 73.4481 147.552 95.2179 151.816L95.2462 141.275Z" fill="#1C2D5E"/>
<path d="M95.2459 150.513H95.1821C90.287 149.62 86.2985 146.921 83.3303 142.5C74.5317 129.373 77.3016 104.862 78.2155 100.583C78.2359 100.492 78.2908 100.412 78.3688 100.361C78.4467 100.309 78.5416 100.29 78.6334 100.307C78.7251 100.329 78.8049 100.385 78.8563 100.464C78.9077 100.543 78.9268 100.639 78.9097 100.732C78.01 104.982 75.2543 129.182 83.9182 142.104C85.1794 144.107 86.8432 145.827 88.8042 147.154C90.7652 148.481 92.9805 149.386 95.3097 149.811C95.3559 149.82 95.4 149.837 95.4393 149.863C95.4787 149.889 95.5125 149.922 95.5389 149.961C95.5653 150 95.5836 150.043 95.5929 150.09C95.6022 150.136 95.6023 150.183 95.593 150.229C95.578 150.31 95.5349 150.383 95.4713 150.434C95.4078 150.486 95.3279 150.514 95.2459 150.513Z" fill="white"/>
<path d="M95.2458 183.165C88.2253 184.114 76.8268 184.1 70.2456 178.915C63.6644 173.729 65.0387 169.266 67.5677 167.403C70.0968 165.54 72.2929 163.414 67.9432 159.277C63.5935 155.14 56.6085 148.495 54.3415 138.528C52.0746 128.56 53.1939 122.326 57.6428 120.25C61.9571 118.238 63.0976 121.44 65.74 128.043C68.3824 134.645 74.3261 128.985 79.4125 131.047C84.499 133.108 84.2936 137.189 84.6124 140.695C84.9311 144.202 86.6101 145.173 89.4934 145.173C92.3767 145.173 95.2458 146.83 95.2458 150.131V183.165Z" fill="#FF5C8A"/>
<path d="M95.2455 171.587C95.2151 171.594 95.1837 171.594 95.1534 171.587C94.8487 171.502 87.5874 169.391 77.0107 159.679C65.7468 149.336 60.4336 133.821 60.377 133.666C60.3498 133.576 60.3582 133.48 60.4005 133.397C60.4428 133.314 60.5156 133.25 60.6037 133.219C60.692 133.19 60.7883 133.196 60.8718 133.238C60.9554 133.279 61.0194 133.351 61.05 133.439C61.0996 133.595 66.3631 148.939 77.4924 159.155C87.9204 168.74 95.2667 170.886 95.3446 170.907C95.3893 170.92 95.4309 170.942 95.4672 170.971C95.5035 171 95.5337 171.036 95.556 171.077C95.5784 171.118 95.5925 171.163 95.5976 171.209C95.6026 171.255 95.5985 171.302 95.5855 171.346C95.5625 171.418 95.517 171.48 95.4556 171.524C95.3943 171.567 95.3206 171.589 95.2455 171.587Z" fill="white"/>
<path d="M79.9643 162.145C79.8931 162.146 79.8233 162.124 79.7649 162.084C79.7064 162.043 79.6622 161.985 79.6385 161.918C77.3644 156.081 76.8473 143.591 76.8048 143.06C76.8028 142.966 76.8371 142.876 76.9005 142.807C76.9639 142.738 77.0515 142.697 77.1448 142.691C77.2373 142.693 77.3261 142.728 77.3941 142.791C77.4621 142.854 77.5045 142.939 77.5132 143.031C77.5132 143.159 78.0445 155.932 80.276 161.663C80.2931 161.707 80.3013 161.753 80.3002 161.8C80.2991 161.847 80.2887 161.893 80.2696 161.936C80.2505 161.979 80.223 162.018 80.1889 162.05C80.1547 162.082 80.1145 162.107 80.0706 162.123C80.0364 162.136 80.0006 162.143 79.9643 162.145Z" fill="white"/>
<path d="M79.9082 170.539C79.255 170.544 78.6022 170.511 77.9529 170.44C77.9064 170.435 77.8614 170.42 77.8206 170.397C77.7798 170.374 77.7438 170.343 77.7149 170.306C77.686 170.27 77.6646 170.227 77.6519 170.182C77.6393 170.137 77.6356 170.09 77.6412 170.043C77.6468 169.997 77.6615 169.952 77.6844 169.911C77.7074 169.87 77.7382 169.834 77.775 169.805C77.8119 169.776 77.854 169.755 77.8991 169.742C77.9443 169.73 77.9914 169.726 78.0379 169.732C78.1017 169.732 84.6971 170.483 87.7221 167.401C87.7535 167.364 87.7924 167.333 87.8362 167.312C87.88 167.29 87.9278 167.278 87.9765 167.276C88.0253 167.274 88.074 167.281 88.1195 167.299C88.1651 167.316 88.2066 167.343 88.2413 167.377C88.2761 167.412 88.3034 167.453 88.3215 167.498C88.3396 167.543 88.3482 167.592 88.3467 167.641C88.3451 167.689 88.3335 167.737 88.3126 167.782C88.2917 167.826 88.2619 167.865 88.225 167.897C86.036 170.157 82.2176 170.539 79.9082 170.539Z" fill="white"/>
<path d="M74.8085 36.3935L74.0434 31.98L70.1046 34.5729C69.7447 33.8645 69.2345 33.2431 68.6098 32.7522L70.4942 27.6516L66.9521 26.8652L64.3593 31.8242C63.4212 31.9824 62.5117 32.2784 61.6602 32.7026L60.5338 28.9622L56.3258 32.2705L56.602 36.6627C55.7451 37.6226 54.968 38.6509 54.2784 39.7373L50.8072 39.5601L48.3702 45.0221L51.3526 46.2972C51.0413 47.427 50.8443 48.5852 50.7647 49.7543L46.9746 53.2398L47.7326 57.6603L51.6785 55.0675C52.0364 55.7752 52.5469 56.3946 53.1733 56.881L51.3243 61.9888L54.8664 62.768L58.5785 59.1551C59.4357 59.0205 59.2232 57.4053 60.1583 56.9448L61.2847 60.6711L65.4857 57.3699L65.3794 55.6413C66.2295 54.692 69.4457 52.6022 70.14 51.5112L71.0113 50.0944L73.4483 44.6324L72.3148 42.578L71.0538 39.9002L74.8085 36.3935ZM61.9506 50.9232C58.7202 53.4594 57.7001 54.019 57.1546 50.6257C56.6091 47.2323 58.4581 42.075 61.6885 39.5318C64.9189 36.9886 66.1516 36.8115 66.7325 40.1977C67.3134 43.584 65.1881 48.4154 61.9506 50.9232Z" fill="#E0E0E0"/>
<path d="M66.9795 26.8652L71.5772 29.5147L68.9844 34.4595L64.3867 31.81L66.9795 26.8652Z" fill="#F5F5F5"/>
<path d="M78.64 34.63L74.7012 37.2228L70.1035 34.5733L74.0423 31.9805L78.64 34.63Z" fill="#F5F5F5"/>
<path d="M78.0098 47.2613L75.0273 45.9932L70.4297 43.3438L73.4121 44.6118L78.0098 47.2613Z" fill="#E0E0E0"/>
<path d="M51.3164 61.9905L55.9141 64.6329L57.7985 59.5323L53.2008 56.8828L51.3164 61.9905Z" fill="#E0E0E0"/>
<path d="M65.84 63.3211L61.2494 60.6716L60.123 56.9453L64.7207 59.5948L65.84 63.3211Z" fill="#E0E0E0"/>
<path d="M79.3981 39.0439L78.64 34.6304L74.7012 37.2232C74.3387 36.5145 73.8262 35.8933 73.1994 35.4026L75.0838 30.302L71.5771 29.5156L68.9772 34.4746C68.0391 34.6328 67.1296 34.9288 66.2781 35.353L65.1588 31.6267L60.9508 34.935L61.227 39.3273C60.3692 40.2939 59.592 41.3293 58.9034 42.4231L55.4251 42.246L52.9881 47.7079L55.9706 48.983C55.662 50.1158 55.4651 51.2761 55.3826 52.4472L51.5996 55.8831L52.3576 60.3036L56.2964 57.7108C56.6591 58.4174 57.1716 59.0364 57.7983 59.5243L55.9139 64.625L59.456 65.4113L62.0488 60.4524C62.9905 60.2959 63.903 59.9973 64.755 59.5668L65.8743 63.2931L70.0823 59.9919L69.806 55.5997C70.663 54.6398 71.4401 53.6115 72.1296 52.5251L75.608 52.6952L78.045 47.2332L75.02 45.9652C75.3336 44.8332 75.533 43.6727 75.6151 42.501L79.3981 39.0439ZM66.5544 53.6019C63.3311 56.1381 60.2423 55.4509 59.6544 52.0647C59.0664 48.6784 61.2129 43.8682 64.4433 41.3321C67.6737 38.7959 70.7553 39.4902 71.3433 42.8764C71.9313 46.2627 69.7848 51.0658 66.5544 53.6019Z" fill="#EBEBEB"/>
<path d="M65.1592 31.6124L60.5615 28.9629L56.3535 32.2712L60.9512 34.9207L65.1592 31.6124Z" fill="#F5F5F5"/>
<path d="M56.3535 32.2715L56.6298 36.6637L61.2274 39.3132L60.9512 34.921L56.3535 32.2715Z" fill="#E0E0E0"/>
<path d="M58.9029 42.3879L54.3053 39.7384L50.834 39.5684L55.4245 42.2179L58.9029 42.3879Z" fill="#F5F5F5"/>
<path d="M50.8354 39.5684L48.3984 45.0232L52.989 47.6727L55.426 42.2179L50.8354 39.5684Z" fill="#E0E0E0"/>
<path d="M55.3826 52.4053L50.792 49.7559L47.002 53.2413L51.5925 55.8908L55.3826 52.4053Z" fill="#F5F5F5"/>
<path d="M52.3576 60.3103L47.76 57.6608L47.002 53.2402L51.5925 55.8897L52.3576 60.3103Z" fill="#E0E0E0"/>
<path d="M71.5781 29.5147L66.9805 26.8652L70.4942 27.6516L75.0848 30.3011L71.5781 29.5147Z" fill="#F5F5F5"/>
<path d="M54.2211 16.3601V9.76473L48.9717 12.1308C48.6937 11.0119 48.2135 9.9531 47.5549 9.00672L50.8632 2.34047L46.8252 0.00976562L42.7022 6.20845C41.5532 6.10807 40.3956 6.22095 39.2876 6.54141L38.7067 0.810285L32.9968 4.11152L32.423 10.4873C31.1804 11.5884 30.0377 12.7975 29.0084 14.1003L24.8854 12.6834L20.8474 19.6826L24.1487 22.5163C23.5387 24.0589 23.0646 25.6518 22.7318 27.2769L17.4824 30.9678V37.5702L22.7318 35.2041C23.0099 36.3231 23.49 37.3819 24.1487 38.3283L20.8616 45.0016L24.8996 47.3323L29.0226 41.1336C30.1716 41.2337 31.3292 41.1208 32.4372 40.8007L33.011 46.5318L38.7209 43.2305L39.3018 36.8547C41.0839 36.2045 42.6627 35.095 43.8782 33.6385L46.8394 34.6799L50.8774 27.6878L48.3979 25.5625C48.9362 23.7903 49.1356 21.9325 48.9859 20.0864L54.2211 16.3601ZM35.8518 32.838C31.4737 35.3671 28.7676 33.5464 28.7676 28.5095C28.7676 23.4727 32.3876 17.2457 36.7727 14.7166C41.1578 12.1875 43.8073 14.0082 43.8073 19.0875C43.8073 24.1669 40.2369 30.3019 35.8518 32.838Z" fill="#E0E0E0"/>
<path d="M51.4167 2.65218L46.8261 0.00976562L42.7031 6.20845L47.2937 8.85795L51.4167 2.65218Z" fill="#F5F5F5"/>
<path d="M58.8197 12.4132L54.2221 9.76367L48.9727 12.1298L53.5703 14.7793L58.8197 12.4132Z" fill="#F5F5F5"/>
<path d="M37.5882 49.1814L32.9976 46.5319L32.4238 40.8008L37.0144 43.4503L37.5882 49.1814Z" fill="#E0E0E0"/>
<path d="M20.8398 45.0022L25.4375 47.6517L28.7458 40.9854L24.1482 38.3359L20.8398 45.0022Z" fill="#E0E0E0"/>
<path d="M58.8188 19.0447V12.4493L53.5694 14.7942C53.2943 13.6742 52.8139 12.6149 52.1525 11.67L55.4609 5.00381L51.4229 2.66602L47.2999 8.87179C46.1509 8.76792 44.9926 8.88086 43.8853 9.20474L43.3044 3.45945L37.5945 6.76069L37.0136 13.1365C35.7727 14.2394 34.6302 15.4483 33.599 16.7494L29.476 15.3326L25.438 22.3318L28.7463 25.1655C28.1331 26.7069 27.6589 28.3001 27.3295 29.9261L22.0801 33.6169V40.2194L27.3295 37.8533C27.6044 38.9733 28.0849 40.0327 28.7463 40.9774L25.438 47.6437L29.476 49.9744L33.599 43.7757C34.748 43.8761 35.9056 43.7632 37.0136 43.4427L37.5945 49.1739L43.3044 45.8726L43.8782 39.4968C45.1209 38.3957 46.2635 37.1867 47.2928 35.8839L51.4158 37.3007L55.4538 30.3086L52.1455 27.4749C52.7585 25.9334 53.2327 24.3402 53.5623 22.7143L58.8188 19.0447ZM40.4494 35.5226C36.0643 38.0516 32.508 35.9972 32.508 30.9391C32.508 25.881 36.0501 19.7248 40.4494 17.1886C44.8487 14.6525 48.3838 16.714 48.3838 21.7721C48.3838 26.8303 44.8275 32.951 40.4494 35.4872V35.5226Z" fill="#EBEBEB"/>
<path d="M29.0078 14.1151L33.5983 16.7646L29.4753 15.3265L24.8848 12.6699L29.0078 14.1151Z" fill="#F0F0F0"/>
<path d="M24.8848 12.6762L20.8457 19.6777L25.4418 22.3292L29.4809 15.3276L24.8848 12.6762Z" fill="#F5F5F5"/>
<path d="M20.8398 19.668L25.4375 22.3175L28.7458 25.1653L24.1482 22.5229L20.8398 19.668Z" fill="#E0E0E0"/>
<path d="M22.7318 27.2832L27.3295 29.9327L22.0801 33.6236L17.4824 30.9741L22.7318 27.2832Z" fill="#F5F5F5"/>
<path d="M17.4824 30.9746L22.0801 33.6241V40.2266L17.4824 37.5771V30.9746Z" fill="#E0E0E0"/>
<path d="M43.3036 3.46004L38.706 0.810547L32.9961 4.11179L37.5867 6.76128L43.3036 3.46004Z" fill="#F5F5F5"/>
<path d="M102.245 192.645L168.837 154.192C168.983 154.141 169.11 154.045 169.2 153.918C169.29 153.791 169.338 153.639 169.338 153.484C169.338 153.328 169.29 153.177 169.2 153.05C169.11 152.923 168.983 152.827 168.837 152.775L162.68 149.233C162.299 149.041 161.878 148.941 161.451 148.941C161.024 148.941 160.603 149.041 160.222 149.233L93.6093 187.651C93.4626 187.702 93.3355 187.798 93.2456 187.925C93.1557 188.052 93.1074 188.204 93.1074 188.359C93.1074 188.515 93.1557 188.667 93.2456 188.793C93.3355 188.92 93.4626 189.016 93.6093 189.068L99.7867 192.61C100.165 192.807 100.585 192.913 101.012 192.919C101.438 192.926 101.861 192.832 102.245 192.645Z" fill="#E0E0E0"/>
<path d="M167.01 5.72715L106.964 40.3973C106.071 40.9798 105.328 41.7644 104.796 42.6875C104.263 43.6105 103.955 44.6462 103.896 45.7104V188.153C103.896 190.108 105.271 190.901 106.964 189.924L167.01 155.254C167.903 154.672 168.647 153.888 169.18 152.965C169.713 152.041 170.021 151.005 170.077 149.94V7.4982C170.077 5.54296 168.71 4.74953 167.01 5.72715Z" fill="#606C8E"/>
<path d="M106.964 40.3979L167.009 5.72774C168.525 4.8493 169.779 5.39479 170.034 6.91789C169.893 5.96028 169.55 5.04351 169.029 4.22788C168.507 3.41225 167.819 2.71624 167.009 2.18564L164.516 0.768796C163.565 0.286504 162.514 0.0351562 161.448 0.0351562C160.382 0.0351562 159.331 0.286504 158.381 0.768796L98.3279 35.4106C97.4235 35.9777 96.6776 36.765 96.1602 37.6988L104.796 42.6577C105.313 41.7313 106.059 40.9532 106.964 40.3979V40.3979Z" fill="#1C2D5E"/>
<path d="M95.2461 183.165C95.3042 184.23 95.6123 185.265 96.1452 186.188C96.6781 187.111 97.421 187.896 98.3136 188.479L100.814 189.895C101.68 190.328 102.627 190.574 103.594 190.615C104.561 190.657 105.526 190.493 106.425 190.136C105.008 190.689 103.882 189.874 103.882 188.124V45.7105C103.917 44.6417 104.227 43.6 104.781 42.6855L96.1458 37.7266C95.5992 38.6341 95.2898 39.6646 95.2461 40.7232V183.165Z" fill="#1C2D5E"/>
<path d="M108.614 59.3756L165.379 26.6112C166.4 26.0303 167.221 26.5049 167.221 27.6738V133.101C167.187 133.74 167.003 134.362 166.683 134.916C166.362 135.47 165.916 135.94 165.379 136.289L108.635 169.053C107.615 169.641 106.793 169.167 106.793 167.991V62.5635C106.825 61.9266 107.007 61.3062 107.323 60.7524C107.639 60.1986 108.081 59.727 108.614 59.3756Z" fill="white"/>
<path d="M136.985 28.4618C136.672 28.6675 136.411 28.9438 136.224 29.2687C136.037 29.5935 135.929 29.9577 135.908 30.332C135.908 31.0404 136.39 31.3025 136.985 30.9554C137.3 30.7509 137.561 30.4749 137.748 30.1498C137.935 29.8247 138.043 29.4598 138.062 29.0852C138.062 28.398 137.58 28.1217 136.985 28.4618Z" fill="#1C2D5E"/>
<path d="M136.987 157.713C135.748 158.523 134.718 159.614 133.98 160.896C133.241 162.179 132.815 163.617 132.736 165.095C132.736 167.808 134.642 168.913 136.987 167.553C138.225 166.743 139.255 165.652 139.993 164.37C140.732 163.087 141.158 161.649 141.237 160.171C141.252 157.458 139.339 156.353 136.987 157.713Z" fill="#1C2D5E"/>
<path d="M126.791 39.4266C126.169 39.8399 125.652 40.3938 125.283 41.0435C124.914 41.6932 124.702 42.4207 124.666 43.1671C124.666 44.5414 125.629 45.1011 126.791 44.4139C127.42 44.0045 127.944 43.4524 128.32 42.8024C128.695 42.1524 128.912 41.423 128.952 40.6734C128.952 39.2991 127.989 38.7394 126.791 39.4266Z" fill="#1C2D5E"/>
<path d="M132.084 38.9593C132.084 39.8803 132.792 40.2274 133.621 39.7386L147.79 31.5422C148.229 31.2681 148.597 30.8942 148.864 30.4511C149.131 30.0079 149.29 29.5079 149.327 28.9919C149.327 28.078 148.619 27.7309 147.79 28.2197L133.621 36.4161C133.183 36.6895 132.816 37.0622 132.549 37.5041C132.282 37.9459 132.122 38.4445 132.084 38.9593V38.9593Z" fill="#1C2D5E"/>
<path d="M100.034 63.9397C100.537 64.2671 100.955 64.7085 101.256 65.2279C101.556 65.7473 101.73 66.3301 101.763 66.9292C101.763 68.0343 100.99 68.4807 100.034 67.9281C99.5329 67.5994 99.1161 67.1576 98.8171 66.6384C98.5181 66.1191 98.3453 65.5369 98.3125 64.9385C98.3125 63.8405 99.0847 63.3942 100.034 63.9397Z" fill="#1C2D5E"/>
<path d="M100.034 77.2429C100.537 77.5703 100.955 78.0117 101.256 78.5311C101.556 79.0505 101.73 79.6333 101.763 80.2324C101.763 81.3305 100.99 81.7768 100.034 81.2313C99.5329 80.9026 99.1161 80.4608 98.8171 79.9416C98.5181 79.4223 98.3453 78.8401 98.3125 78.2417C98.3125 77.1366 99.0847 76.6903 100.034 77.2429Z" fill="#1C2D5E"/>
<path d="M99.4961 64.2082C99.9989 64.5356 100.417 64.977 100.718 65.4964C101.018 66.0158 101.192 66.5986 101.225 67.1977C101.225 68.2957 100.452 68.7421 99.4961 68.1966C98.9934 67.8691 98.5749 67.4278 98.2746 66.9084C97.9743 66.389 97.8006 65.8061 97.7676 65.207C97.7747 64.1019 98.5468 63.6768 99.4961 64.2082Z" fill="#606C8E"/>
<path d="M99.4961 77.5041C99.9998 77.8323 100.419 78.2747 100.719 78.7954C101.02 79.3162 101.193 79.9004 101.225 80.5007C101.225 81.5988 100.452 82.0451 99.4961 81.4925C98.9922 81.1663 98.5728 80.7253 98.2723 80.2056C97.9719 79.686 97.7989 79.1025 97.7676 78.503C97.7747 77.4049 98.5468 76.9586 99.4961 77.5041Z" fill="#606C8E"/>
<path d="M178.712 31.0122C178.712 29.8362 177.89 29.3615 176.87 29.9495L170.076 33.8671L120.125 62.714C119.589 63.0626 119.142 63.5331 118.822 64.0871C118.502 64.6411 118.317 65.263 118.283 65.9019V171.301C118.283 172.477 119.105 172.951 120.125 172.363L170.097 143.509L176.87 139.599C177.406 139.25 177.853 138.78 178.173 138.226C178.493 137.672 178.677 137.05 178.712 136.411V31.0122Z" fill="white"/>
<path d="M179.42 31.0102C179.464 30.655 179.403 30.2945 179.244 29.9738C179.085 29.6531 178.834 29.3865 178.525 29.2073C178.215 29.0281 177.859 28.9443 177.501 28.9663C177.144 28.9884 176.801 29.1153 176.515 29.3313L170.033 33.0788L119.771 62.1241C119.124 62.5326 118.586 63.0923 118.203 63.755C117.82 64.4178 117.605 65.1637 117.575 65.9283V171.299C117.546 171.653 117.614 172.007 117.771 172.325C117.929 172.644 118.169 172.913 118.467 173.105C118.721 173.253 119.01 173.329 119.303 173.325C119.718 173.312 120.123 173.192 120.479 172.978L170.777 143.933L177.245 140.199C177.888 139.787 178.424 139.226 178.806 138.564C179.188 137.902 179.406 137.158 179.441 136.395L179.42 31.0102ZM170.047 142.721L169.466 143.061L119.799 171.738C119.716 171.802 119.619 171.847 119.516 171.869C119.413 171.891 119.306 171.89 119.204 171.866C119.112 171.809 119.02 171.611 119.02 171.285V65.9C119.057 65.3856 119.209 64.8863 119.467 64.4396C119.725 63.9929 120.081 63.6106 120.508 63.3213L170.125 34.6303L177.21 30.5285C177.293 30.4644 177.39 30.4197 177.493 30.3976C177.596 30.3756 177.702 30.3767 177.805 30.401C177.897 30.4577 177.989 30.656 177.989 30.9819V136.409C177.952 136.924 177.799 137.423 177.541 137.87C177.284 138.316 176.928 138.699 176.501 138.988L170.033 142.721H170.047Z" fill="#FF5C8A"/>
<path d="M148.498 55.5018C154.874 51.8322 160.01 54.7934 160.01 62.1539C160.01 69.5144 154.853 78.4475 148.498 82.0888C142.144 85.7301 136.986 82.7972 136.986 75.4438C136.986 68.0904 142.144 59.1785 148.498 55.5018Z" fill="#FF5C8A"/>
<path d="M148.497 61.2822C150.559 60.0921 152.23 61.0555 152.23 63.4075C152.16 64.7032 151.786 65.9641 151.137 67.0879C150.488 68.2117 149.584 69.1667 148.497 69.8754C146.436 71.0655 144.764 70.1021 144.764 67.7501C144.834 66.4544 145.208 65.1935 145.857 64.0697C146.506 62.946 147.41 61.9909 148.497 61.2822Z" fill="#FF5C8A"/>
<path d="M155.774 73.9769C155.774 70.0664 153.032 68.4795 149.639 70.4348L147.514 71.6603C144.128 73.6156 141.379 78.3762 141.379 82.2867V83.3422C143.341 83.9869 145.807 83.6397 148.463 82.0883C151.406 80.273 153.895 77.8086 155.739 74.8837L155.774 73.9769Z" fill="#FF5C8A"/>
<path opacity="0.7" d="M148.497 61.2822C150.559 60.0921 152.23 61.0555 152.23 63.4075C152.16 64.7032 151.786 65.9641 151.137 67.0879C150.488 68.2117 149.584 69.1667 148.497 69.8754C146.436 71.0655 144.764 70.1021 144.764 67.7501C144.834 66.4544 145.208 65.1935 145.857 64.0697C146.506 62.946 147.41 61.9909 148.497 61.2822Z" fill="white"/>
<path opacity="0.7" d="M155.774 73.9769C155.774 70.0664 153.032 68.4795 149.639 70.4348L147.514 71.6603C144.128 73.6156 141.379 78.3762 141.379 82.2867V83.3422C143.341 83.9869 145.807 83.6397 148.463 82.0883C151.406 80.273 153.895 77.8086 155.739 74.8837L155.774 73.9769Z" fill="white"/>
<path d="M126.226 98.2768L141.039 89.7262C141.747 89.3365 142.264 89.6482 142.264 90.4346V90.9234C142.242 91.3491 142.119 91.7635 141.906 92.1329C141.693 92.5022 141.396 92.816 141.039 93.0487L126.226 101.599C125.553 101.989 125 101.67 125 100.891V100.402C125.023 99.9764 125.146 99.5622 125.359 99.193C125.572 98.8238 125.869 98.5099 126.226 98.2768Z" fill="#FF5C8A"/>
<path opacity="0.1" d="M126.226 98.2768L141.039 89.7262C141.747 89.3365 142.264 89.6482 142.264 90.4346V90.9234C142.242 91.3491 142.119 91.7635 141.906 92.1329C141.693 92.5022 141.396 92.816 141.039 93.0487L126.226 101.599C125.553 101.989 125 101.67 125 100.891V100.402C125.023 99.9764 125.146 99.5622 125.359 99.193C125.572 98.8238 125.869 98.5099 126.226 98.2768V98.2768Z" fill="#1C2D5E"/>
<path d="M125.616 108.598L170.431 82.7266C170.764 82.5282 171.04 82.6841 171.04 83.0808V88.309C171.028 88.5211 170.966 88.7275 170.861 88.9119C170.755 89.0963 170.608 89.2536 170.431 89.3716L125.616 115.243C125.276 115.441 125 115.279 125 114.889V109.661C125.012 109.448 125.074 109.241 125.181 109.056C125.288 108.871 125.437 108.715 125.616 108.598Z" fill="#FF5C8A"/>
<path opacity="0.2" d="M125.616 108.598L170.431 82.7266C170.764 82.5282 171.04 82.6841 171.04 83.0808V88.309C171.028 88.5211 170.966 88.7275 170.861 88.9119C170.755 89.0963 170.608 89.2536 170.431 89.3716L125.616 115.243C125.276 115.441 125 115.279 125 114.889V109.661C125.012 109.448 125.074 109.241 125.181 109.056C125.288 108.871 125.437 108.715 125.616 108.598Z" fill="white"/>
<path d="M126.226 121.533L141.039 112.983C141.747 112.593 142.264 112.912 142.264 113.691V114.18C142.242 114.606 142.12 115.02 141.907 115.39C141.694 115.759 141.396 116.073 141.039 116.305L126.226 124.856C125.553 125.253 125 124.934 125 124.147V123.659C125.024 123.233 125.148 122.819 125.36 122.45C125.573 122.081 125.869 121.767 126.226 121.533Z" fill="#FF5C8A"/>
<path opacity="0.1" d="M126.226 121.533L141.039 112.983C141.747 112.593 142.264 112.912 142.264 113.691V114.18C142.242 114.606 142.12 115.02 141.907 115.39C141.694 115.759 141.396 116.073 141.039 116.305L126.226 124.856C125.553 125.253 125 124.934 125 124.147V123.659C125.024 123.233 125.148 122.819 125.36 122.45C125.573 122.081 125.869 121.767 126.226 121.533V121.533Z" fill="#1C2D5E"/>
<path d="M125.616 131.855L170.431 105.983C170.764 105.785 171.04 105.948 171.04 106.337V111.565C171.028 111.778 170.966 111.984 170.861 112.168C170.755 112.353 170.608 112.51 170.431 112.628L125.616 138.5C125.276 138.698 125 138.542 125 138.145V132.917C125.012 132.704 125.074 132.497 125.181 132.312C125.288 132.128 125.437 131.971 125.616 131.855Z" fill="#FF5C8A"/>
<path opacity="0.2" d="M125.616 131.855L170.431 105.983C170.764 105.785 171.04 105.948 171.04 106.337V111.565C171.028 111.778 170.966 111.984 170.861 112.168C170.755 112.353 170.608 112.51 170.431 112.628L125.616 138.5C125.276 138.698 125 138.542 125 138.145V132.917C125.012 132.704 125.074 132.497 125.181 132.312C125.288 132.128 125.437 131.971 125.616 131.855Z" fill="white"/>
<path d="M143.489 134.822L161.2 124.614C161.908 124.217 162.432 124.536 162.432 125.322V130.791C162.409 131.218 162.285 131.633 162.071 132.002C161.857 132.371 161.558 132.685 161.2 132.917L143.489 143.132C142.781 143.522 142.264 143.203 142.264 142.424V136.948C142.288 136.522 142.412 136.109 142.625 135.74C142.838 135.371 143.134 135.057 143.489 134.822Z" fill="#FF5C8A"/>
<path opacity="0.1" d="M143.489 134.822L161.2 124.614C161.908 124.217 162.432 124.536 162.432 125.322V130.791C162.409 131.218 162.285 131.633 162.071 132.002C161.857 132.371 161.558 132.685 161.2 132.917L143.489 143.132C142.781 143.522 142.264 143.203 142.264 142.424V136.948C142.288 136.522 142.412 136.109 142.625 135.74C142.838 135.371 143.134 135.057 143.489 134.822Z" fill="#1C2D5E"/>
<path d="M185.429 111.744C185.429 111.744 176.73 99.7429 176.219 98.2836C175.816 97.2068 176.219 95.6057 176.347 94.8619C176.475 94.1181 176.588 92.4603 176.715 92.0282C176.928 91.2206 175.887 91.3835 175.299 92.1203C174.711 92.8571 174.512 94.3306 174.208 94.5714C173.903 94.8123 171.586 91.4331 170.375 89.8746C169.164 88.3161 168.406 87.3668 167.662 87.9477C167.13 88.3657 167.527 89.2724 168.406 90.6043C168.919 91.3214 169.392 92.0664 169.822 92.8358C169.957 93.1263 169.234 93.1475 168.845 93.7497C168.54 94.2172 168.845 94.9752 168.42 95.3365C168.158 95.5356 167.979 95.8239 167.916 96.1466C167.854 96.4693 167.912 96.8038 168.08 97.0863C168.868 98.3247 169.885 99.4018 171.076 100.26C172.38 101.16 172.904 101.479 173.676 102.704C174.448 103.93 181.377 116.447 181.844 117.198C182.312 117.949 183.212 119.48 184.579 119.522C185.946 119.565 197.139 109.93 197.713 109.448C199.555 107.911 200.143 107.691 200.455 109.073C200.562 109.564 200.643 110.061 200.695 110.56C200.915 112.317 202.112 118.594 202.112 118.594C202.112 118.594 207.78 121.336 212.434 120.011C217.088 118.686 218.661 116.71 218.661 116.71L216.33 112.912C216.961 111.347 219.872 104.999 220.815 100.558L206.221 98.1986C205.924 98.1348 205.442 98.0144 204.804 97.8514C204.004 97.6389 201.971 96.9376 200.433 98.2836C195.418 102.655 185.443 111.744 185.443 111.744" fill="#FFA8A7"/>
<path d="M214.36 185.375L211.746 189.009C212.934 189.564 214.232 189.842 215.543 189.824C217.888 189.909 218.533 189.116 218.618 188.96C219.014 188.11 218.398 186.579 218.228 185.262L214.36 185.375Z" fill="#1C2D5E"/>
<path d="M211.896 187.267C211.896 187.267 208.723 187.062 206.534 186.793C204.345 186.523 202.609 187.586 203.119 188.486C203.629 189.385 204.84 190.136 206.725 190.767C208.333 191.312 210.267 191.702 211.939 192.184C213.611 192.665 214.773 193.296 215.743 192.956C216.827 192.58 217.295 192.148 217.202 191.355C216.966 190.226 216.673 189.11 216.324 188.011L211.896 187.267Z" fill="#1C2D5E"/>
<path d="M218.619 181.728C218.619 181.728 218.222 185.029 218.193 185.737C218.165 186.446 214.97 186.672 214.361 185.376L214.262 181.338L218.619 181.728Z" fill="#F28F8F"/>
<path d="M215.403 183.754L216.543 188.77C216.543 188.77 216.65 189.379 214.043 189.768C211.436 190.158 207.341 188.401 206.64 188.047C205.938 187.693 205.86 186.977 208.425 187.119C210.989 187.261 211.896 187.268 211.896 187.268L211.06 185.05L215.403 183.754Z" fill="#FFA8A7"/>
<path d="M220.772 100.515L222.578 100.012C222.578 100.012 226.354 111.963 226.772 113.118C227.19 114.272 227.665 115.491 226.85 116.915C225.88 118.608 220.772 125.416 220.772 125.416L217.527 122.242L221.211 115.498L217.952 108.909L220.772 100.515Z" fill="#F28F8F"/>
<path d="M202.219 84.9926C201.796 84.1976 201.581 83.3081 201.594 82.4074C201.608 81.5068 201.85 80.6242 202.297 79.8424C204.097 76.5057 208.106 74.8834 212.881 75.4998C215.091 75.7902 217.698 77.625 219.122 80.3666C220.695 83.4057 220.844 89.5265 221.247 91.843L202.219 84.9926Z" fill="#1C2D5E"/>
<path d="M202.091 86.3027C202.091 86.3027 200.958 88.4634 201.156 88.6618C201.45 88.8334 201.771 88.9532 202.105 89.016L202.091 86.3027Z" fill="#FFA8A7"/>
<path d="M205.534 79.4749C204.301 80.2754 202.176 81.7489 202.084 86.6016C201.984 91.5605 202.693 93.197 203.43 93.7708C203.925 94.1604 206.837 93.9621 208.084 93.6716C209.331 93.3812 212.922 91.603 214.219 88.904C215.742 85.7302 215.43 81.1113 213.17 79.6945C212.02 79.0143 210.716 78.6374 209.38 78.599C208.045 78.5606 206.721 78.8619 205.534 79.4749Z" fill="#FFA8A7"/>
<path d="M218.619 116.68C220.801 120.08 222.87 123.055 223.323 126.895C224.258 134.964 221.198 144.188 220.539 150.16C221.778 151.858 222.492 153.883 222.594 155.983C222.594 158.455 218.619 181.727 218.619 181.727C218.619 181.727 215.729 182.605 214.263 181.337L211.535 138.527L212.952 133.313L218.619 116.68Z" fill="#FF5C8A"/>
<path opacity="0.2" d="M218.619 116.68C220.801 120.08 222.87 123.055 223.323 126.895C224.258 134.964 221.198 144.188 220.539 150.16C221.778 151.858 222.492 153.883 222.594 155.983C222.594 158.455 218.619 181.727 218.619 181.727C218.619 181.727 215.729 182.605 214.263 181.337L211.535 138.527L212.952 133.313L218.619 116.68Z" fill="#1C2D5E"/>
<path d="M211.535 138.529L212.952 133.315C215.665 132.6 218.281 131.561 220.745 130.219C220.745 130.219 219.271 132.904 215.035 134.377L212.846 141.072L212.662 156.409L211.535 138.529Z" fill="#FF5C8A"/>
<path opacity="0.3" d="M211.535 138.529L212.952 133.315C215.665 132.6 218.281 131.561 220.745 130.219C220.745 130.219 219.271 132.904 215.035 134.377L212.846 141.072L212.662 156.409L211.535 138.529Z" fill="#1C2D5E"/>
<path d="M218.618 116.68C219.787 118.592 222.578 121.851 221.983 124.989C221.274 128.787 219.22 131.457 212.972 133.313L207.106 154.566C207.106 154.566 210.159 157.4 211.094 160.141C212.03 162.883 215.402 183.767 215.402 183.767C215.402 183.767 214.353 185.474 211.059 185.064C211.059 185.064 199.575 158.852 198.768 157.145C197.788 155.416 197.444 153.398 197.797 151.442C198.159 148.693 202.048 118.607 202.048 118.607L218.618 116.68Z" fill="#FF5C8A"/>
<path opacity="0.2" d="M218.618 116.68C219.787 118.592 222.578 121.851 221.983 124.989C221.274 128.787 219.22 131.457 212.972 133.313L207.106 154.566C207.106 154.566 210.159 157.4 211.094 160.141C212.03 162.883 215.402 183.767 215.402 183.767C215.402 183.767 214.353 185.474 211.059 185.064C211.059 185.064 199.575 158.852 198.768 157.145C197.788 155.416 197.444 153.398 197.797 151.442C198.159 148.693 202.048 118.607 202.048 118.607L218.618 116.68Z" fill="#1C2D5E"/>
<path d="M220.772 100.515L206.178 98.1557C205.881 98.092 205.399 97.9715 204.762 97.8086C204.762 97.8086 204.138 106.961 200.391 109.058C200.483 109.498 200.561 109.986 200.631 110.546C200.851 112.303 202.048 118.58 202.048 118.58C202.048 118.58 207.716 121.321 212.37 119.996C217.024 118.672 218.597 116.695 218.597 116.695L216.266 112.898C216.918 111.318 219.851 104.971 220.772 100.515Z" fill="#FF5C8A"/>
<path opacity="0.7" d="M220.772 100.515L206.178 98.1557C205.881 98.092 205.399 97.9715 204.762 97.8086C204.762 97.8086 204.138 106.961 200.391 109.058C200.483 109.498 200.561 109.986 200.631 110.546C200.851 112.303 202.048 118.58 202.048 118.58C202.048 118.58 207.716 121.321 212.37 119.996C217.024 118.672 218.597 116.695 218.597 116.695L216.266 112.898C216.918 111.318 219.851 104.971 220.772 100.515Z" fill="white"/>
<path d="M216.925 111.389C214.987 112.552 212.956 113.555 210.854 114.385C212.762 114.347 214.63 113.831 216.287 112.883L216.925 111.389Z" fill="#FF5C8A"/>
<path d="M205.173 79.7143C205.173 79.7143 204.464 84.3191 206.136 87.0252C206.136 87.0252 206.759 85.1904 208.311 85.5375C209.862 85.8847 209.947 87.932 208.856 89.0796C208.579 89.4016 208.217 89.6388 207.811 89.7641C207.405 89.8894 206.972 89.8977 206.561 89.7881C206.561 89.7881 206.313 93.1176 206.178 95.9088C206.044 98.7 205.307 104.785 208.445 107.244C211.584 109.702 219.461 110.566 223.152 105.409C225.207 102.54 222.479 97.4673 221.211 91.7787C220.042 86.5506 219.383 78.8005 213.836 77.5536C208.29 76.3068 205.173 79.7143 205.173 79.7143Z" fill="#1C2D5E"/>
<path d="M225.525 16.7993L224.356 17.5077C224.454 17.0918 224.509 16.6668 224.519 16.2396C224.519 13.8664 222.854 12.91 220.8 14.1144C220.174 14.4915 219.617 14.9704 219.149 15.5312C219.149 12.3433 216.91 11.0469 214.148 12.6408C212.692 13.5903 211.48 14.8696 210.611 16.3749C209.742 17.8803 209.24 19.5692 209.146 21.3048C209.146 21.4678 209.146 21.6236 209.146 21.7795C208.434 21.6899 207.714 21.8556 207.113 22.247C206.03 22.9524 205.129 23.9032 204.483 25.022C203.837 26.1409 203.464 27.3964 203.394 28.6866C203.393 28.9865 203.424 29.2857 203.486 29.5792L202.862 29.9405C201.169 30.9181 199.795 32.8238 199.795 34.191C199.795 35.5583 201.169 35.8841 202.862 34.8994L225.532 21.8291C227.225 20.8514 228.599 18.9458 228.599 17.5785C228.599 16.2113 227.218 15.8146 225.525 16.7993Z" fill="#EBEBEB"/>
</svg>
