<svg width="38" height="38" viewBox="0 0 38 38" fill="none" xmlns="http://www.w3.org/2000/svg">
    <circle cx="19.0026" cy="19" r="18.6667" fill="#E1E9FE"/>
    <path d="M29.0039 27V28C29.5562 28 30.0039 27.5523 30.0039 27H29.0039ZM9.00391 27H8.00391C8.00391 27.5523 8.45162 28 9.00391 28V27ZM23.6477 23.1429L22.7193 23.5145L23.6477 23.1429ZM21.0039 14C21.0039 15.1046 20.1085 16 19.0039 16V18C21.213 18 23.0039 16.2091 23.0039 14H21.0039ZM19.0039 16C17.8993 16 17.0039 15.1046 17.0039 14H15.0039C15.0039 16.2091 16.7948 18 19.0039 18V16ZM17.0039 14C17.0039 12.8954 17.8993 12 19.0039 12V10C16.7948 10 15.0039 11.7909 15.0039 14H17.0039ZM19.0039 12C20.1085 12 21.0039 12.8954 21.0039 14H23.0039C23.0039 11.7909 21.213 10 19.0039 10V12ZM27.0039 17C27.0039 17.5523 26.5562 18 26.0039 18V20C27.6608 20 29.0039 18.6569 29.0039 17H27.0039ZM26.0039 18C25.4516 18 25.0039 17.5523 25.0039 17H23.0039C23.0039 18.6569 24.3471 20 26.0039 20V18ZM25.0039 17C25.0039 16.4477 25.4516 16 26.0039 16V14C24.3471 14 23.0039 15.3431 23.0039 17H25.0039ZM26.0039 16C26.5562 16 27.0039 16.4477 27.0039 17H29.0039C29.0039 15.3431 27.6608 14 26.0039 14V16ZM13.0039 17C13.0039 17.5523 12.5562 18 12.0039 18V20C13.6608 20 15.0039 18.6569 15.0039 17H13.0039ZM12.0039 18C11.4516 18 11.0039 17.5523 11.0039 17H9.00391C9.00391 18.6569 10.3471 20 12.0039 20V18ZM11.0039 17C11.0039 16.4477 11.4516 16 12.0039 16V14C10.3471 14 9.00391 15.3431 9.00391 17H11.0039ZM12.0039 16C12.5562 16 13.0039 16.4477 13.0039 17H15.0039C15.0039 15.3431 13.6608 14 12.0039 14V16ZM26.0039 23C27.1085 23 28.0039 23.8954 28.0039 25H30.0039C30.0039 22.7909 28.213 21 26.0039 21V23ZM28.0039 25V27H30.0039V25H28.0039ZM29.0039 26H24.0039V28H29.0039V26ZM10.0039 25C10.0039 23.8954 10.8993 23 12.0039 23V21C9.79477 21 8.00391 22.7909 8.00391 25H10.0039ZM14.0039 26H9.00391V28H14.0039V26ZM10.0039 27V25H8.00391V27H10.0039ZM13.0039 25V27H15.0039V25H13.0039ZM14.0039 28H24.0039V26H14.0039V28ZM25.0039 27V25H23.0039V27H25.0039ZM15.0039 25C15.0039 24.4732 15.1052 23.9725 15.2885 23.5145L13.4318 22.7713C13.1554 23.4616 13.0039 24.2143 13.0039 25H15.0039ZM15.2885 23.5145C15.8791 22.0392 17.3213 21 19.0039 21V19C16.4761 19 14.3158 20.5628 13.4318 22.7713L15.2885 23.5145ZM12.0039 23C12.6405 23 13.2073 23.2963 13.5752 23.7624L15.1451 22.5234C14.4143 21.5973 13.2785 21 12.0039 21V23ZM19.0039 21C20.6865 21 22.1287 22.0392 22.7193 23.5145L24.576 22.7713C23.6921 20.5628 21.5317 19 19.0039 19V21ZM22.7193 23.5145C22.9026 23.9725 23.0039 24.4732 23.0039 25H25.0039C25.0039 24.2143 24.8524 23.4616 24.576 22.7713L22.7193 23.5145ZM24.4326 23.7624C24.8005 23.2963 25.3673 23 26.0039 23V21C24.7293 21 23.5936 21.5973 22.8627 22.5234L24.4326 23.7624Z" fill="#4A75F7"/>
    </svg>