<svg width="38" height="38" viewBox="0 0 38 38" fill="none" xmlns="http://www.w3.org/2000/svg">
<circle cx="19.0026" cy="19" r="18.6667" fill="#E1E9FE"/>
<path d="M28.0039 16L28.4895 16.8742C28.807 16.6978 29.0039 16.3632 29.0039 16C29.0039 15.6368 28.807 15.3022 28.4895 15.1258L28.0039 16ZM19.0039 21L18.5183 21.8742C18.8203 22.0419 19.1875 22.0419 19.4896 21.8742L19.0039 21ZM10.0039 16L9.51826 15.1258C9.2008 15.3022 9.00391 15.6368 9.00391 16C9.00391 16.3632 9.2008 16.6978 9.51826 16.8742L10.0039 16ZM19.0039 11L19.4895 10.1258C19.1875 9.95805 18.8203 9.95805 18.5183 10.1258L19.0039 11ZM15.0039 19.5L14.5183 18.6258C14.2008 18.8022 14.0039 19.1368 14.0039 19.5H15.0039ZM14.0039 26.9999C14.0039 27.5522 14.4516 27.9999 15.0039 27.9999C15.5562 27.9999 16.0039 27.5522 16.0039 26.9999H14.0039ZM19.4895 18.1519C19.9723 17.8837 20.1463 17.2749 19.8781 16.7921C19.6098 16.3094 19.001 16.1354 18.5183 16.4036L19.4895 18.1519ZM25.163 17.5783L26.0926 17.2096C25.9865 16.9421 25.7704 16.7333 25.4994 16.6365C25.2284 16.5397 24.9289 16.5644 24.6774 16.7041L25.163 17.5783ZM25.8283 24.0569L25.9251 25.0522C26.3733 25.0086 26.7371 24.6708 26.8137 24.2271L25.8283 24.0569ZM19.0039 27.0555L18.337 27.8007C18.7167 28.1405 19.2911 28.1405 19.6708 27.8007L19.0039 27.0555ZM12.1795 24.0569L11.1941 24.2271C11.2708 24.6708 11.6346 25.0086 12.0827 25.0522L12.1795 24.0569ZM12.8448 17.5782L13.3304 16.7041C13.0789 16.5644 12.7794 16.5397 12.5084 16.6365C12.2374 16.7333 12.0213 16.9421 11.9152 17.2096L12.8448 17.5782ZM27.5183 15.1258L18.5183 20.1258L19.4895 21.8742L28.4895 16.8742L27.5183 15.1258ZM19.4895 20.1258L10.4895 15.1258L9.51826 16.8742L18.5183 21.8742L19.4895 20.1258ZM10.4895 16.8742L19.4895 11.8742L18.5183 10.1258L9.51826 15.1258L10.4895 16.8742ZM18.5183 11.8742L27.5183 16.8742L28.4895 15.1258L19.4895 10.1258L18.5183 11.8742ZM14.0039 19.5V26.9999H16.0039V19.5H14.0039ZM18.5183 16.4036L14.5183 18.6258L15.4895 20.3742L19.4895 18.1519L18.5183 16.4036ZM24.6774 16.7041L18.5183 20.1258L19.4896 21.8742L25.6487 18.4524L24.6774 16.7041ZM27.0039 21.9999C27.0039 20.3101 26.681 18.6933 26.0926 17.2096L24.2334 17.9469C24.7303 19.1998 25.0039 20.5667 25.0039 21.9999H27.0039ZM26.8137 24.2271C26.9388 23.5028 27.0039 22.7586 27.0039 21.9999H25.0039C25.0039 22.644 24.9487 23.2743 24.8429 23.8866L26.8137 24.2271ZM19.6708 27.8007C21.3667 26.2829 23.5339 25.2847 25.9251 25.0522L25.7315 23.0615C22.9025 23.3366 20.3392 24.5184 18.337 26.3104L19.6708 27.8007ZM12.0827 25.0522C14.4739 25.2847 16.6411 26.2829 18.337 27.8007L19.6708 26.3104C17.6686 24.5184 15.1053 23.3366 12.2763 23.0616L12.0827 25.0522ZM11.0039 21.9999C11.0039 22.7585 11.069 23.5027 11.1941 24.2271L13.1649 23.8866C13.0591 23.2743 13.0039 22.6439 13.0039 21.9999H11.0039ZM11.9152 17.2096C11.3268 18.6933 11.0039 20.3101 11.0039 21.9999H13.0039C13.0039 20.5667 13.2775 19.1998 13.7744 17.9469L11.9152 17.2096ZM19.4896 20.1258L13.3304 16.7041L12.3591 18.4524L18.5183 21.8742L19.4896 20.1258Z" fill="#4A75F7"/>
</svg>