<svg width="38" height="38" viewBox="0 0 38 38" fill="none" xmlns="http://www.w3.org/2000/svg">
<circle cx="19.0026" cy="19" r="18.6667" fill="#F9E7E7"/>
<path d="M9.00391 28C9.00391 28.5523 9.45162 29 10.0039 29C10.5562 29 11.0039 28.5523 11.0039 28H9.00391ZM18.5039 10L19.211 9.29289C19.0235 9.10536 18.7691 9 18.5039 9V10ZM19.5039 11L18.7968 11.7071C18.9843 11.8946 19.2387 12 19.5039 12V11ZM28.0039 11L28.8983 11.4472C29.0533 11.1372 29.0368 10.7691 28.8546 10.4743C28.6723 10.1795 28.3505 10 28.0039 10V11ZM25.0039 17L24.1095 16.5528C23.9687 16.8343 23.9687 17.1657 24.1095 17.4472L25.0039 17ZM28.0039 23V24C28.3505 24 28.6723 23.8205 28.8546 23.5257C29.0368 23.2309 29.0533 22.8628 28.8983 22.5528L28.0039 23ZM19.5039 23L18.7968 23.7071C18.9843 23.8946 19.2387 24 19.5039 24V23ZM18.5039 22L19.211 21.2929C19.0235 21.1054 18.7691 21 18.5039 21V22ZM20.0039 10.5C20.0039 9.94772 19.5562 9.5 19.0039 9.5C18.4516 9.5 18.0039 9.94772 18.0039 10.5H20.0039ZM18.0039 16C18.0039 16.5523 18.4516 17 19.0039 17C19.5562 17 20.0039 16.5523 20.0039 16H18.0039ZM11.0039 28V24H9.00391V28H11.0039ZM11.0039 24V12H9.00391V24H11.0039ZM12.0039 11H18.5039V9H12.0039V11ZM17.7968 10.7071L18.7968 11.7071L20.211 10.2929L19.211 9.29289L17.7968 10.7071ZM19.5039 12H28.0039V10H19.5039V12ZM27.1095 10.5528L24.1095 16.5528L25.8983 17.4472L28.8983 11.4472L27.1095 10.5528ZM24.1095 17.4472L27.1095 23.4472L28.8983 22.5528L25.8983 16.5528L24.1095 17.4472ZM28.0039 22H19.5039V24H28.0039V22ZM20.211 22.2929L19.211 21.2929L17.7968 22.7071L18.7968 23.7071L20.211 22.2929ZM18.5039 21H12.0039V23H18.5039V21ZM12.0039 21C10.3471 21 9.00391 22.3431 9.00391 24H11.0039C11.0039 23.4477 11.4516 23 12.0039 23V21ZM11.0039 12C11.0039 11.4477 11.4516 11 12.0039 11V9C10.3471 9 9.00391 10.3431 9.00391 12H11.0039ZM18.0039 10.5V16H20.0039V10.5H18.0039Z" fill="#FF5C8A"/>
</svg>