<svg width="60" height="60" viewBox="0 0 60 60" fill="none" xmlns="http://www.w3.org/2000/svg">
<path d="M60 30C60 46.5685 46.5685 60 30 60C13.4315 60 0 46.5685 0 30C0 13.4315 13.4315 0 30 0C46.5685 0 60 13.4315 60 30Z" fill="#F9E7E7"/>
<path d="M43.7795 16.2204L44.4866 15.5133L43.7795 16.2204ZM20.8333 45.0591V46.0591C21.0986 46.0591 21.3529 45.9538 21.5404 45.7662L20.8333 45.0591ZM15 45.0591H14C14 45.6114 14.4477 46.0591 15 46.0591V45.0591ZM15 39.1074L14.2929 38.4002C14.1054 38.5878 14 38.8421 14 39.1074H15ZM38.5941 16.9275C39.8307 15.6908 41.8358 15.6908 43.0724 16.9275L44.4866 15.5133C42.4689 13.4956 39.1976 13.4956 37.1799 15.5133L38.5941 16.9275ZM43.0724 16.9275C44.3091 18.1642 44.3091 20.1692 43.0724 21.4058L44.4866 22.8201C46.5043 20.8023 46.5043 17.531 44.4866 15.5133L43.0724 16.9275ZM43.0724 21.4058L20.1262 44.352L21.5404 45.7662L44.4866 22.8201L43.0724 21.4058ZM20.8333 44.0591H15V46.0591H20.8333V44.0591ZM37.1799 15.5133L14.2929 38.4002L15.7071 39.8145L38.5941 16.9275L37.1799 15.5133ZM14 39.1074V45.0591H16V39.1074H14ZM34.6799 19.4275L40.5724 25.3201L41.9866 23.9058L36.0941 18.0133L34.6799 19.4275Z" fill="#FF5C8A"/>
</svg>
