<svg width="60" height="60" viewBox="0 0 60 60" fill="none" xmlns="http://www.w3.org/2000/svg">
<path d="M60 30C60 46.5685 46.5685 60 30 60C13.4315 60 0 46.5685 0 30C0 13.4315 13.4315 0 30 0C46.5685 0 60 13.4315 60 30Z" fill="#F9E7E7"/>
<path d="M30.0007 29C29.4484 29 29.0007 29.4477 29.0007 30C29.0007 30.5523 29.4484 31 30.0007 31V29ZM35.0007 31C35.5529 31 36.0007 30.5523 36.0007 30C36.0007 29.4477 35.5529 29 35.0007 29V31ZM30.0007 35.6667C29.4484 35.6667 29.0007 36.1144 29.0007 36.6667C29.0007 37.219 29.4484 37.6667 30.0007 37.6667V35.6667ZM35.0007 37.6667C35.5529 37.6667 36.0007 37.219 36.0007 36.6667C36.0007 36.1144 35.5529 35.6667 35.0007 35.6667V37.6667ZM25.0007 29C24.4484 29 24.0007 29.4477 24.0007 30C24.0007 30.5523 24.4484 31 25.0007 31V29ZM25.0173 31C25.5696 31 26.0173 30.5523 26.0173 30C26.0173 29.4477 25.5696 29 25.0173 29V31ZM25.0007 35.6667C24.4484 35.6667 24.0007 36.1144 24.0007 36.6667C24.0007 37.219 24.4484 37.6667 25.0007 37.6667V35.6667ZM25.0173 37.6667C25.5696 37.6667 26.0173 37.219 26.0173 36.6667C26.0173 36.1144 25.5696 35.6667 25.0173 35.6667V37.6667ZM40.6673 21.6667V41.6667H42.6673V21.6667H40.6673ZM38.334 44H21.6673V46H38.334V44ZM19.334 41.6667V21.6667H17.334V41.6667H19.334ZM21.6673 19.3333H25.0007V17.3333H21.6673V19.3333ZM35.0007 19.3333H38.334V17.3333H35.0007V19.3333ZM21.6673 44C20.3787 44 19.334 42.9553 19.334 41.6667H17.334C17.334 44.0599 19.2741 46 21.6673 46V44ZM40.6673 41.6667C40.6673 42.9553 39.6227 44 38.334 44V46C40.7272 46 42.6673 44.0599 42.6673 41.6667H40.6673ZM42.6673 21.6667C42.6673 19.2734 40.7272 17.3333 38.334 17.3333V19.3333C39.6227 19.3333 40.6673 20.378 40.6673 21.6667H42.6673ZM19.334 21.6667C19.334 20.378 20.3787 19.3333 21.6673 19.3333V17.3333C19.2741 17.3333 17.334 19.2734 17.334 21.6667H19.334ZM30.0007 31H35.0007V29H30.0007V31ZM30.0007 37.6667H35.0007V35.6667H30.0007V37.6667ZM28.334 16H31.6673V14H28.334V16ZM31.6673 20.6667H28.334V22.6667H31.6673V20.6667ZM28.334 20.6667C27.0453 20.6667 26.0007 19.622 26.0007 18.3333H24.0007C24.0007 20.7266 25.9408 22.6667 28.334 22.6667V20.6667ZM34.0007 18.3333C34.0007 19.622 32.956 20.6667 31.6673 20.6667V22.6667C34.0606 22.6667 36.0007 20.7266 36.0007 18.3333H34.0007ZM31.6673 16C32.956 16 34.0007 17.0447 34.0007 18.3333H36.0007C36.0007 15.9401 34.0606 14 31.6673 14V16ZM28.334 14C25.9408 14 24.0007 15.9401 24.0007 18.3333H26.0007C26.0007 17.0447 27.0453 16 28.334 16V14ZM25.0007 31H25.0173V29H25.0007V31ZM25.0007 37.6667H25.0173V35.6667H25.0007V37.6667Z" fill="#FF5C8A"/>
</svg>
