<svg width="25" height="25" viewBox="0 0 25 25" fill="none" xmlns="http://www.w3.org/2000/svg">
<circle cx="12.75" cy="12.5839" r="12" transform="rotate(-180 12.75 12.5839)" fill="#E1E9FE"/>
<path d="M14.4451 9.72394C14.7937 10.1524 15.4235 10.2172 15.8519 9.86864C16.2804 9.52013 16.3451 8.89029 15.9966 8.46185L14.4451 9.72394ZM10.3269 15.4437C9.97836 15.0152 9.34852 14.9505 8.92009 15.299C8.49166 15.6475 8.42687 16.2773 8.77539 16.7058L10.3269 15.4437ZM13.386 6.76562C13.386 6.21334 12.9383 5.76562 12.386 5.76562C11.8337 5.76562 11.386 6.21334 11.386 6.76562H13.386ZM11.386 18.402C11.386 18.9543 11.8337 19.402 12.386 19.402C12.9383 19.402 13.386 18.9543 13.386 18.402L11.386 18.402ZM12.386 11.5838C11.6657 11.5838 11.0556 11.3746 10.6514 11.0872C10.245 10.7982 10.1133 10.4904 10.1133 10.2565H8.11328C8.11328 11.308 8.7142 12.1638 9.49231 12.7171C10.2726 13.272 11.2988 13.5838 12.386 13.5838V11.5838ZM10.1133 10.2565C10.1133 10.0226 10.245 9.71484 10.6514 9.42586C11.0556 9.13842 11.6657 8.92926 12.386 8.92926V6.92926C11.2988 6.92926 10.2726 7.24108 9.49231 7.79595C8.7142 8.34927 8.11328 9.20511 8.11328 10.2565H10.1133ZM12.386 8.92926C13.3693 8.92926 14.1108 9.31294 14.4451 9.72394L15.9966 8.46185C15.1992 7.48161 13.8255 6.92926 12.386 6.92926V8.92926ZM12.386 13.5838C13.1063 13.5838 13.7164 13.793 14.1206 14.0804C14.527 14.3694 14.6587 14.6772 14.6587 14.9111H16.6587C16.6587 13.8596 16.0578 13.0038 15.2797 12.4505C14.4994 11.8956 13.4732 11.5838 12.386 11.5838V13.5838ZM11.386 6.76562V7.92926H13.386V6.76562H11.386ZM11.386 17.2383L11.386 18.402L13.386 18.402L13.386 17.2384L11.386 17.2383ZM12.386 16.2384C11.4028 16.2383 10.6612 15.8547 10.3269 15.4437L8.77539 16.7058C9.57278 17.686 10.9466 18.2383 12.386 18.2384L12.386 16.2384ZM14.6587 14.9111C14.6587 15.145 14.527 15.4528 14.1207 15.7418C13.7164 16.0292 13.1063 16.2384 12.386 16.2384V18.2384C13.4732 18.2384 14.4994 17.9265 15.2797 17.3717C16.0578 16.8183 16.6587 15.9625 16.6587 14.9111H14.6587ZM11.386 7.92926L11.386 17.2384L13.386 17.2383L13.386 7.92926L11.386 7.92926Z" fill="#4A75F7"/>
</svg>
