<?xml version="1.0" encoding="utf-8"?>
<!-- Generator: Adobe Illustrator 23.0.5, SVG Export Plug-In . SVG Version: 6.00 Build 0)  -->
<svg version="1.1" id="Capa_1" xmlns="http://www.w3.org/2000/svg" xmlns:xlink="http://www.w3.org/1999/xlink" x="0px" y="0px"
	 viewBox="0 0 26 26" style="enable-background:new 0 0 26 26;" xml:space="preserve">
<style type="text/css">
	.st0{fill:#059669;}
</style>
<path class="st0" d="M13,0c7.2,0,13,5.8,13,13s-5.8,13-13,13S0,20.2,0,13C0,5.8,5.8,0,13,0z M13,2C6.9,2,2,6.9,2,13s4.9,11,11,11
	s11-4.9,11-11S19.1,2,13,2z M7.1,7.1h10.5l-2.9-2.9l1.1-1l4.7,4.7l-4.7,4.7l-1.1-1l2.9-2.9H7.7c-0.3,0-0.6,0.2-0.6,0.6v3.4H5.7l0-4
	C5.6,7.8,6.3,7.1,7.1,7.1z M18.9,18.9H8.5l2.9,2.9l-1.1,1l-4.7-4.7l4.7-4.7l1.1,1l-2.9,2.9h9.8c0.3,0,0.6-0.2,0.6-0.6v-3.4h1.5l0,4
	C20.4,18.2,19.7,18.9,18.9,18.9z"/>
</svg>
