<svg width="328" height="208" viewBox="0 0 328 208" fill="none" xmlns="http://www.w3.org/2000/svg">
<path d="M164 203.277C234.247 203.277 291.192 200.218 291.192 196.445C291.192 192.671 234.247 189.612 164 189.612C93.7543 189.612 36.8086 192.671 36.8086 196.445C36.8086 200.218 93.7543 203.277 164 203.277Z" fill="#F5F5F5"/>
<path d="M205.542 148.935L189.098 145.579C189.098 145.579 193.406 141.283 194.671 142.2C196.316 143.39 198.598 139.167 200.39 140.643C201.018 141.165 200.422 142.296 200.766 142.872C201.339 143.821 202.306 143.858 203.108 144.48C204.671 145.692 205.056 146.964 205.542 148.935Z" fill="#FF5C8A"/>
<path opacity="0.2" d="M205.542 148.935L189.098 145.579C189.098 145.579 193.406 141.283 194.671 142.2C196.316 143.39 198.598 139.167 200.39 140.643C201.018 141.165 200.422 142.296 200.766 142.872C201.339 143.821 202.306 143.858 203.108 144.48C204.671 145.692 205.056 146.964 205.542 148.935Z" fill="#263238"/>
<path d="M191.184 144.557C191.184 144.557 193.558 138.572 193.017 137.509C192.476 136.446 191.436 140.72 191.436 140.72C191.436 140.72 190.799 131.238 189.204 130.865C187.609 130.493 189.493 139.039 189.493 139.039C189.493 139.039 184.946 126.551 182.742 127.173C180.537 127.796 187.65 139.507 187.65 139.507C187.65 139.507 183.525 134.212 182.15 135.193C180.776 136.174 186.697 141.224 186.697 141.224C186.697 141.224 183.892 139.966 183.695 140.938C183.498 141.909 188.127 144.507 191.184 144.557Z" fill="#FF5C8A"/>
<path opacity="0.2" d="M191.184 144.557C191.184 144.557 193.558 138.572 193.017 137.509C192.476 136.446 191.436 140.72 191.436 140.72C191.436 140.72 190.799 131.238 189.204 130.865C187.609 130.493 189.493 139.039 189.493 139.039C189.493 139.039 184.946 126.551 182.742 127.173C180.537 127.796 187.65 139.507 187.65 139.507C187.65 139.507 183.525 134.212 182.15 135.193C180.776 136.174 186.697 141.224 186.697 141.224C186.697 141.224 183.892 139.966 183.695 140.938C183.498 141.909 188.127 144.507 191.184 144.557Z" fill="white"/>
<path d="M192.356 143.876C192.356 143.876 197.695 143.998 198.369 143.272C199.043 142.545 195.418 142.967 195.418 142.967C195.418 142.967 202.636 139.789 202.48 138.476C202.324 137.164 196.183 141.001 196.183 141.001C196.183 141.001 204.652 133.99 203.539 132.477C202.425 130.965 195.289 139.743 195.289 139.743C195.289 139.743 198.259 135.093 197.122 134.33C195.986 133.567 193.699 139.516 193.699 139.516C193.699 139.516 193.887 137.014 193.076 137.132C192.264 137.25 191.54 141.514 192.356 143.876Z" fill="#FF5C8A"/>
<path opacity="0.2" d="M192.356 143.876C192.356 143.876 197.695 143.998 198.369 143.272C199.043 142.545 195.418 142.967 195.418 142.967C195.418 142.967 202.636 139.789 202.48 138.476C202.324 137.164 196.183 141.001 196.183 141.001C196.183 141.001 204.652 133.99 203.539 132.477C202.425 130.965 195.289 139.743 195.289 139.743C195.289 139.743 198.259 135.093 197.122 134.33C195.986 133.567 193.699 139.516 193.699 139.516C193.699 139.516 193.887 137.014 193.076 137.132C192.264 137.25 191.54 141.514 192.356 143.876Z" fill="white"/>
<path d="M192.883 143.276C192.883 143.276 198.883 139.353 199.061 138.04C199.24 136.728 195.569 139.948 195.569 139.948C195.569 139.948 201.069 130.961 199.891 129.617C198.713 128.272 194.891 137.191 194.891 137.191C194.891 137.191 198.818 123.009 196.421 122.205C194.025 121.402 192.915 136.446 192.915 136.446C192.915 136.446 192.595 129.049 190.738 129.081C188.882 129.113 190.968 137.414 190.968 137.414C190.968 137.414 189.24 134.503 188.433 135.257C187.627 136.011 190.166 141.296 192.883 143.276Z" fill="#FF5C8A"/>
<path opacity="0.4" d="M192.883 143.276C192.883 143.276 198.883 139.353 199.061 138.04C199.24 136.728 195.569 139.948 195.569 139.948C195.569 139.948 201.069 130.961 199.891 129.617C198.713 128.272 194.891 137.191 194.891 137.191C194.891 137.191 198.818 123.009 196.421 122.205C194.025 121.402 192.915 136.446 192.915 136.446C192.915 136.446 192.595 129.049 190.738 129.081C188.882 129.113 190.968 137.414 190.968 137.414C190.968 137.414 189.24 134.503 188.433 135.257C187.627 136.011 190.166 141.296 192.883 143.276Z" fill="white"/>
<path d="M198.296 147.454L185.193 144.779C185.193 144.779 188.626 141.355 189.634 142.082C190.945 143.031 192.765 139.671 194.19 140.847C194.694 141.26 194.217 142.159 194.492 142.622C194.951 143.376 195.721 143.408 196.358 143.903C197.604 144.87 197.911 145.883 198.296 147.454Z" fill="#FF5C8A"/>
<path d="M101.052 106.775C101.052 106.775 101.116 100.349 100.213 99.5497C99.3105 98.7504 99.8926 103.105 99.8926 103.105C99.8926 103.105 95.8824 94.4772 94.26 94.6906C92.6376 94.9041 97.4681 102.22 97.4681 102.22C97.4681 102.22 88.7328 92.1521 86.895 93.5145C85.0572 94.8768 95.9191 103.305 95.9191 103.305C95.9191 103.305 90.1627 99.813 89.2507 101.207C88.3387 102.601 95.667 105.235 95.667 105.235C95.667 105.235 92.5963 105.054 92.7567 106.03C92.9171 107.006 98.1785 107.81 101.052 106.775Z" fill="#FF5C8A"/>
<path opacity="0.2" d="M101.052 106.775C101.052 106.775 101.116 100.349 100.213 99.5497C99.3105 98.7504 99.8926 103.105 99.8926 103.105C99.8926 103.105 95.8824 94.4772 94.26 94.6906C92.6376 94.9041 97.4681 102.22 97.4681 102.22C97.4681 102.22 88.7328 92.1521 86.895 93.5145C85.0572 94.8768 95.9191 103.305 95.9191 103.305C95.9191 103.305 90.1627 99.813 89.2507 101.207C88.3387 102.601 95.667 105.235 95.667 105.235C95.667 105.235 92.5963 105.054 92.7567 106.03C92.9171 107.006 98.1785 107.81 101.052 106.775Z" fill="white"/>
<path d="M100.49 101.53C100.49 101.53 102.717 96.7159 102.323 95.8168C101.929 94.9176 100.875 98.3825 100.875 98.3825C100.875 98.3825 100.792 90.5627 99.4998 90.1812C98.2074 89.7997 99.3532 96.9067 99.3532 96.9067C99.3532 96.9067 96.2 86.4302 94.3576 86.8435C92.5152 87.2567 97.8178 97.2064 97.8178 97.2064C97.8178 97.2064 94.6784 92.6652 93.5189 93.41C92.3594 94.1547 96.9746 98.5733 96.9746 98.5733C96.9746 98.5733 94.7288 97.4153 94.518 98.2009C94.3072 98.9865 97.9782 101.334 100.49 101.53Z" fill="#FF5C8A"/>
<path opacity="0.2" d="M100.49 101.53C100.49 101.53 102.717 96.7159 102.323 95.8168C101.929 94.9176 100.875 98.3825 100.875 98.3825C100.875 98.3825 100.792 90.5627 99.4998 90.1812C98.2074 89.7997 99.3532 96.9067 99.3532 96.9067C99.3532 96.9067 96.2 86.4302 94.3576 86.8435C92.5152 87.2567 97.8178 97.2064 97.8178 97.2064C97.8178 97.2064 94.6784 92.6652 93.5189 93.41C92.3594 94.1547 96.9746 98.5733 96.9746 98.5733C96.9746 98.5733 94.7288 97.4153 94.518 98.2009C94.3072 98.9865 97.9782 101.334 100.49 101.53Z" fill="white"/>
<path d="M104.806 103.305C104.806 103.305 110.8 99.3816 110.984 98.0692C111.167 96.7568 107.487 99.9765 107.487 99.9765C107.487 99.9765 113.009 90.9895 111.809 89.6453C110.608 88.3012 106.809 97.22 106.809 97.22C106.809 97.22 110.741 83.038 108.339 82.2342C105.938 81.4304 104.847 96.498 104.847 96.498C104.847 96.498 104.522 89.1004 102.665 89.1322C100.809 89.164 102.895 97.4652 102.895 97.4652C102.895 97.4652 101.167 94.5543 100.365 95.3082C99.5627 96.062 102.07 101.325 104.806 103.305Z" fill="#FF5C8A"/>
<path opacity="0.4" d="M104.806 103.305C104.806 103.305 110.8 99.3816 110.984 98.0692C111.167 96.7568 107.487 99.9765 107.487 99.9765C107.487 99.9765 113.009 90.9895 111.809 89.6453C110.608 88.3012 106.809 97.22 106.809 97.22C106.809 97.22 110.741 83.038 108.339 82.2342C105.938 81.4304 104.847 96.498 104.847 96.498C104.847 96.498 104.522 89.1004 102.665 89.1322C100.809 89.164 102.895 97.4652 102.895 97.4652C102.895 97.4652 101.167 94.5543 100.365 95.3082C99.5627 96.062 102.07 101.325 104.806 103.305Z" fill="white"/>
<path d="M121.938 100.857C121.938 100.857 127.172 97.188 132.172 97.9055C137.172 98.623 137.351 101.861 137.351 101.861C137.351 101.861 145.88 101.32 148.777 101.861C151.673 102.401 154.024 106.211 154.029 107.179C154.033 108.146 152.576 111.742 154.029 112.369C155.482 112.996 163.154 111.915 164.304 114.077C165.454 116.238 167.897 129.217 169.85 129.371C171.802 129.526 179.772 128.268 183.489 132.041C187.206 135.815 187.155 132.981 189.085 137.632C191.014 142.282 192.948 144.184 194.25 144.312C195.552 144.439 208.957 146.033 212.051 150.542C214.095 153.46 216.38 156.205 218.884 158.748C218.884 158.748 237.317 160.355 238.701 164.011H78.1607C78.1607 164.011 77.8811 136.496 80.2368 134.262C81.8203 132.839 83.6449 131.705 85.6265 130.911C85.6265 130.911 88.3168 115.593 88.4451 114.653C88.5734 113.713 91.8412 109.658 92.5699 106.652C93.2986 103.646 98.9862 99.5222 101.667 98.623C104.348 97.7239 111.292 98.9545 111.892 100.857C112.492 102.76 121.938 100.857 121.938 100.857Z" fill="#1C2D5E"/>
<path opacity="0.4" d="M238.701 164.011H78.1607C78.1607 164.011 78.1287 161.068 78.1607 157.027C78.2478 148.717 78.6191 135.761 80.2231 134.262C81.8108 132.838 83.6401 131.703 85.6266 130.911C85.6277 130.896 85.6277 130.88 85.6266 130.865C85.7732 130.025 87.9914 117.396 88.3764 114.998L88.4314 114.653C88.5643 113.718 91.8275 109.658 92.5562 106.652C93.2849 103.646 98.9725 99.5222 101.654 98.623C104.335 97.7239 111.278 98.9545 111.878 100.857C112.479 102.76 121.929 100.857 121.929 100.857C123.693 99.6901 125.633 98.8087 127.676 98.2461C129.131 97.8361 130.653 97.7203 132.154 97.9055C137.149 98.623 137.333 101.861 137.333 101.861C137.333 101.861 145.862 101.32 148.758 101.861C151.435 102.356 153.644 105.653 153.969 106.911C153.994 106.998 154.008 107.088 154.011 107.179C154.011 108.146 152.558 111.742 154.011 112.369C154.759 112.558 155.531 112.636 156.302 112.601C159.135 112.651 163.452 112.501 164.29 114.077C164.584 114.717 164.823 115.381 165.005 116.061C166.289 120.357 168.214 129.23 169.85 129.371H169.946C172.05 129.48 179.832 128.322 183.489 132.037C186.61 135.216 187.073 133.717 188.283 135.901C188.582 136.462 188.85 137.038 189.085 137.627C191.019 142.277 192.948 144.18 194.25 144.307C195.46 144.421 207.165 145.828 211.267 149.647C211.562 149.919 211.825 150.224 212.051 150.556C214.095 153.469 216.381 156.21 218.884 158.748C218.884 158.748 237.317 160.355 238.701 164.011Z" fill="white"/>
<path opacity="0.2" d="M100.622 132.3C100.622 132.3 94.0682 129.943 93.4358 130.066C92.895 130.166 87.2624 130.711 85.6445 130.865C85.7912 130.025 88.0094 117.396 88.3944 114.999C89.9251 116.415 95.6402 121.724 96.4148 122.759C97.2993 123.954 100.622 132.3 100.622 132.3Z" fill="#263238"/>
<path opacity="0.2" d="M137.352 101.861C137.352 101.861 135.597 102.065 134.996 101.516C134.396 100.966 132.352 98.6457 127.695 98.2461C129.15 97.8361 130.672 97.7203 132.173 97.9055C137.169 98.623 137.352 101.861 137.352 101.861Z" fill="#263238"/>
<path opacity="0.2" d="M156.316 112.601H146.889C146.889 112.601 143.383 109.658 142.764 108.9C142.145 108.141 141.229 105.862 141.229 105.862C141.229 105.862 147.031 107.102 148.763 107.379C149.909 107.565 152.43 107.183 153.969 106.924C153.994 107.012 154.008 107.102 154.011 107.192C154.011 108.16 152.558 111.756 154.011 112.383C154.764 112.569 155.541 112.642 156.316 112.601Z" fill="#263238"/>
<path opacity="0.2" d="M169.945 129.376H160.375C160.375 129.376 158.166 120.811 158.423 120.048C158.68 119.285 161.09 121.065 162.607 121.674C163.607 122.069 164.505 118.531 165.004 116.061C166.288 120.357 168.213 129.23 169.849 129.371L169.945 129.376Z" fill="#263238"/>
<path opacity="0.2" d="M211.249 149.666C208.329 152.241 202.165 154.007 200.043 155.91C198.43 157.359 196.441 161.359 195.24 164.025H159.918C152.292 163.485 146.352 163.08 146.077 163.117C145.289 163.217 146.334 131.433 151.696 133.431C157.059 135.429 166.11 146.846 166.11 146.846L174.534 152.463L178.425 148.213C178.425 148.213 182.398 145.647 183.512 146.269C184.525 146.832 187.541 138.613 188.306 135.92C188.605 136.48 188.873 137.056 189.108 137.645C191.042 142.296 192.972 144.198 194.273 144.325C195.46 144.425 207.165 145.833 211.249 149.666Z" fill="#263238"/>
<path opacity="0.2" d="M134.83 164.012H78.1607C78.1607 164.012 78.1287 161.069 78.1607 157.027C79.5151 156.58 80.8918 156.203 82.2855 155.896C82.8905 155.742 90.1409 147.454 90.1409 147.454C90.1409 147.454 96.7864 144.198 97.8313 144.63C98.8762 145.061 106.337 153.058 107.667 154.875C108.996 156.691 114.317 154.257 116.374 154.171C118.432 154.085 123.625 145.997 124.473 144.312C125.321 142.627 130.568 141.197 130.568 141.197C130.568 141.197 134.024 157.967 134.83 164.012Z" fill="#263238"/>
<path d="M134.358 105.803V129.058H147.8C148.456 129.057 149.105 129.185 149.711 129.433C150.317 129.682 150.867 130.046 151.331 130.505C151.794 130.964 152.162 131.51 152.413 132.11C152.663 132.71 152.792 133.354 152.791 134.003V161.886H251.58C252.653 161.886 253.682 162.308 254.441 163.06C255.2 163.812 255.626 164.832 255.626 165.896V167.671H73V166.15C73 165.087 73.4264 164.067 74.1853 163.315C74.9442 162.563 75.9736 162.14 77.0469 162.14H130.009V139.089C130.009 137.809 129.496 136.581 128.582 135.676C127.668 134.771 126.429 134.262 125.137 134.262H120.664C120.113 134.263 119.568 134.156 119.058 133.947C118.549 133.738 118.087 133.432 117.697 133.046C117.308 132.661 116.999 132.202 116.788 131.698C116.578 131.193 116.47 130.653 116.47 130.107V106.457C116.471 105.144 116.015 103.871 115.181 102.852C114.346 101.832 113.184 101.128 111.887 100.857H129.367C130.023 100.857 130.672 100.984 131.278 101.233C131.884 101.481 132.434 101.845 132.898 102.305C133.361 102.764 133.729 103.309 133.98 103.91C134.23 104.51 134.359 105.153 134.358 105.803Z" fill="#FF5C8A"/>
<path opacity="0.6" d="M134.358 105.803V129.058H147.8C148.456 129.057 149.105 129.185 149.711 129.433C150.317 129.682 150.867 130.046 151.331 130.505C151.794 130.964 152.162 131.51 152.413 132.11C152.663 132.71 152.792 133.354 152.791 134.003V161.886H251.58C252.653 161.886 253.682 162.308 254.441 163.06C255.2 163.812 255.626 164.832 255.626 165.896V167.671H73V166.15C73 165.087 73.4264 164.067 74.1853 163.315C74.9442 162.563 75.9736 162.14 77.0469 162.14H130.009V139.089C130.009 137.809 129.496 136.581 128.582 135.676C127.668 134.771 126.429 134.262 125.137 134.262H120.664C120.113 134.263 119.568 134.156 119.058 133.947C118.549 133.738 118.087 133.432 117.697 133.046C117.308 132.661 116.999 132.202 116.788 131.698C116.578 131.193 116.47 130.653 116.47 130.107V106.457C116.471 105.144 116.015 103.871 115.181 102.852C114.346 101.832 113.184 101.128 111.887 100.857H129.367C130.023 100.857 130.672 100.984 131.278 101.233C131.884 101.481 132.434 101.845 132.898 102.305C133.361 102.764 133.729 103.309 133.98 103.91C134.23 104.51 134.359 105.153 134.358 105.803Z" fill="white"/>
<path d="M127.108 162.141C125.779 160.683 125.779 158.626 127.108 159.716C128.437 160.805 129.042 162.181 130.009 160.774C130.976 159.366 132.301 157.504 133.392 159.275C134.482 161.046 136.655 161.441 137.745 160.347C138.836 159.252 140.537 157.014 141.412 158.53C142.287 160.047 142.787 161.382 144.73 160.065C146.673 158.748 149.203 158.562 149.689 159.257C150.175 159.952 149.689 160.424 151.623 160.065C153.557 159.707 157.059 160.796 155.248 161.882L127.108 162.141Z" fill="#FF5C8A"/>
<path opacity="0.8" d="M127.108 162.141C125.779 160.683 125.779 158.626 127.108 159.716C128.437 160.805 129.042 162.181 130.009 160.774C130.976 159.366 132.301 157.504 133.392 159.275C134.482 161.046 136.655 161.441 137.745 160.347C138.836 159.252 140.537 157.014 141.412 158.53C142.287 160.047 142.787 161.382 144.73 160.065C146.673 158.748 149.203 158.562 149.689 159.257C150.175 159.952 149.689 160.424 151.623 160.065C153.557 159.707 157.059 160.796 155.248 161.882L127.108 162.141Z" fill="white"/>
<path d="M116.69 129.372C115.59 127.914 115.59 125.857 116.69 126.947C117.79 128.036 118.29 129.412 119.087 128.005C119.885 126.597 120.989 124.73 121.887 126.502C122.786 128.273 124.587 128.672 125.49 127.578C126.393 126.483 127.781 124.245 128.542 125.761C129.303 127.278 129.688 128.613 131.292 127.296C132.896 125.979 134.99 125.793 135.389 126.483C135.788 127.174 135.389 127.655 136.989 127.296C138.588 126.937 141.489 128.027 139.991 129.113L116.69 129.372Z" fill="#FF5C8A"/>
<path opacity="0.8" d="M116.69 129.372C115.59 127.914 115.59 125.857 116.69 126.947C117.79 128.036 118.29 129.412 119.087 128.005C119.885 126.597 120.989 124.73 121.887 126.502C122.786 128.273 124.587 128.672 125.49 127.578C126.393 126.483 127.781 124.245 128.542 125.761C129.303 127.278 129.688 128.613 131.292 127.296C132.896 125.979 134.99 125.793 135.389 126.483C135.788 127.174 135.389 127.655 136.989 127.296C138.588 126.937 141.489 128.027 139.991 129.113L116.69 129.372Z" fill="white"/>
<path opacity="0.2" d="M132.172 132.3C133.877 132.3 134.115 142.482 134.358 146.791C134.601 151.101 134.601 142.84 136.191 141.882C137.782 140.924 137.639 146.11 138.73 145.061C139.821 144.012 139.211 136.955 140.421 136.36C141.631 135.765 141.751 142.763 142.96 142.795C144.17 142.827 144.908 137.677 145.325 137.8C145.742 137.922 146.829 143.431 147.672 142.232C148.515 141.033 148.882 136.124 149.849 138.281C150.816 140.438 151.755 133.894 150.816 131.692C150.816 131.692 150.697 135.979 149.487 134.253C148.277 132.527 149.363 131.21 147.429 130.974C145.495 130.738 145.738 134.421 144.29 134.253C142.841 134.085 142.708 131.81 140.958 131.81C139.207 131.81 139.211 134.662 137.639 134.253C136.067 133.844 135.586 132.532 134.376 131.81C133.166 131.088 132.172 132.3 132.172 132.3Z" fill="white"/>
<path opacity="0.2" d="M117.195 104.054C118.611 104.054 118.813 110.916 119.029 113.822C119.244 116.729 119.23 111.157 120.536 110.512C121.843 109.867 121.737 113.359 122.64 112.664C123.543 111.97 123.043 107.215 124.047 106.802C125.051 106.389 125.147 111.116 126.151 111.139C127.154 111.161 127.773 107.687 128.117 107.769C128.461 107.851 129.363 111.561 130.065 110.753C130.766 109.944 131.068 106.638 131.87 108.092C132.672 109.545 133.451 105.135 132.672 103.655C132.672 103.655 132.572 106.543 131.568 105.38C130.564 104.218 131.467 103.328 129.863 103.169C128.259 103.01 128.461 105.494 127.255 105.38C126.05 105.267 125.944 103.732 124.505 103.732C123.066 103.732 123.057 105.653 121.755 105.38C120.454 105.108 120.051 104.218 119.047 103.732C118.742 103.593 118.401 103.55 118.07 103.607C117.74 103.665 117.434 103.821 117.195 104.054Z" fill="white"/>
<path d="M197.645 72.7524C197.645 72.7524 201.023 80.2317 201.343 81.0855C201.664 81.9392 210.789 81.3443 210.789 81.3443V83.7466C210.789 83.7466 200.628 85.3496 199.487 84.2007C198.346 83.0518 195.037 76.5806 195.037 76.5806L197.645 72.7524Z" fill="#E4897B"/>
<path d="M169.876 70.6498C169.876 70.6498 166.526 71.9758 165.481 72.0938C164.436 72.2119 159.72 64.1968 159.72 64.1968L157.941 65.5591C157.941 65.5591 162.442 74.9048 164.326 75.3135C166.209 75.7222 171.026 74.1919 171.026 74.1919L169.876 70.6498Z" fill="#E4897B"/>
<path d="M175.991 67.1348C173.292 67.7705 166.885 70.636 166.885 70.636C166.885 70.636 168.457 77.7111 169.085 77.4613C169.713 77.2116 176.67 76.2716 176.67 76.2716L175.991 67.1348Z" fill="#FF5C8A"/>
<path opacity="0.6" d="M176.647 76.2855L175.689 76.4172C174.648 76.5625 172.939 76.8032 171.509 77.0257C170.686 77.1335 169.869 77.2851 169.062 77.4799C168.457 77.716 166.885 70.6409 166.885 70.6409C166.885 70.6409 173.301 67.7754 175.991 67.1396L176.193 69.937L176.546 74.8687L176.647 76.2855Z" fill="white"/>
<path opacity="0.2" d="M176.545 74.8641C176.301 75.4032 176.014 75.9225 175.688 76.4172C174.648 76.5625 172.938 76.8032 171.508 77.0257C169.336 72.7479 175.225 70.1095 175.225 70.1095C175.533 69.9877 175.861 69.9275 176.192 69.9324C177.87 69.9824 177.59 72.5617 176.545 74.8641Z" fill="#263238"/>
<path d="M167.187 69.9277L169.359 77.4797L168.273 77.7703L166.279 70.6362L167.187 69.9277Z" fill="#FF5C8A"/>
<path d="M191.595 172.73C191.595 172.73 183.772 130.952 183.676 107.428L191.609 107.179C191.609 107.179 190.472 128.767 195.01 172.571L191.595 172.73Z" fill="#E4897B"/>
<path d="M172.077 172.417C172.077 172.417 169.942 129.993 173.017 106.652L180.909 107.433C180.909 107.433 176.876 128.695 175.501 172.703L172.077 172.417Z" fill="#E4897B"/>
<path d="M179.744 121.188C180.358 117.351 181.119 114.013 182.036 111.543C182.168 113.164 182.544 116.661 183.058 121.188H193.218C192.893 109.168 192.709 95.3311 192.691 93.5918H174.125C173.323 97.9331 171.742 108.323 170.633 121.188H179.744Z" fill="#FF5C8A"/>
<path opacity="0.2" d="M179.744 121.188C180.358 117.351 181.119 114.013 182.036 111.543C182.168 113.164 182.544 116.661 183.058 121.188H193.218C192.893 109.168 192.709 95.3311 192.691 93.5918H174.125C173.323 97.9331 171.742 108.323 170.633 121.188H179.744Z" fill="white"/>
<path opacity="0.2" d="M182.036 111.547C181.123 114.141 180.428 116.805 179.96 119.513C179.442 112.465 181.518 104.981 181.518 104.981L182.036 111.547Z" fill="#263238"/>
<path d="M173.947 93.8096H192.655V96.0166L173.709 95.7895L173.947 93.8096Z" fill="#1C2D5E"/>
<path d="M186.642 92.8198H185.973V96.7388H186.642V92.8198Z" fill="#FF5C8A"/>
<path d="M177.177 92.8198H176.508V96.7388H177.177V92.8198Z" fill="#FF5C8A"/>
<g opacity="0.2">
<path opacity="0.2" d="M186.642 92.8198H185.973V96.7388H186.642V92.8198Z" fill="white"/>
<path opacity="0.2" d="M177.177 92.8198H176.508V96.7388H177.177V92.8198Z" fill="white"/>
</g>
<path d="M182.476 93.4238H179.016V95.8942H182.476V93.4238Z" fill="white"/>
<path d="M154.565 64.8961C153.74 64.3012 155.142 61.1133 155.142 61.1133L160.216 63.175C160.216 63.175 160.128 65.5591 159.51 66.3538C159.184 66.7534 154.565 64.8961 154.565 64.8961Z" fill="#E4897B"/>
<path d="M214.43 84.5047C215.452 84.4366 215.979 80.999 215.979 80.999L210.58 80.0635C210.58 80.0635 209.37 82.1252 209.471 83.1151C209.526 83.6374 214.43 84.5047 214.43 84.5047Z" fill="#E4897B"/>
<path d="M182.475 120.525L182.598 121.674L193.534 121.17V120.048L182.475 120.525Z" fill="#FF5C8A"/>
<path d="M170.357 120.289L180.147 120.648L179.876 121.674L170.357 121.188V120.289Z" fill="#FF5C8A"/>
<path d="M192.713 94.1682C193.208 83.6191 196.338 68.6878 196.338 68.6878C187.631 66.6125 175.99 67.1347 175.99 67.1347C173.698 75.1907 173.762 88.1875 173.955 94.1682H192.713Z" fill="#FF5C8A"/>
<path opacity="0.6" d="M196.34 68.6927C196.34 68.6927 195.749 71.5173 195.038 75.5816C194.64 77.8522 194.209 80.4997 193.819 83.2653C193.306 86.9254 192.875 90.7718 192.715 94.164H173.956C173.764 88.1833 173.718 75.1866 175.991 67.1305C175.991 67.1305 177.866 67.0488 180.67 67.0806C184.079 67.1085 187.483 67.3238 190.868 67.7254C192.709 67.9468 194.536 68.2697 196.34 68.6927Z" fill="white"/>
<path opacity="0.2" d="M190.867 67.7299L185.849 72.5753L184.474 69.7688C181.545 80.0909 180.807 91.6754 180.757 92.7425C181.279 79.3825 182.769 71.6943 183.507 69.619L181.096 71.5581L180.67 67.0986C184.078 67.122 187.483 67.3328 190.867 67.7299Z" fill="#263238"/>
<path d="M183.181 64.7782C183.286 65.2748 183.223 65.7918 183.002 66.2496C182.735 66.5515 182.385 66.7693 181.994 66.8763C182.321 67.3845 182.76 67.8129 183.277 68.1296H185.848C185.848 68.1296 187.013 68.3839 187.457 68.1296C187.819 67.9253 188.204 67.7345 188.553 67.5029C188.73 67.3799 188.898 67.2449 189.057 67.0988C188.506 66.8275 188.076 66.3653 187.847 65.8C187.388 64.3559 187.883 59.4424 187.883 59.4424L182.448 61.6539C182.448 61.6539 182.494 61.7765 182.553 61.9809C182.844 62.8937 183.054 63.8296 183.181 64.7782Z" fill="#E4897B"/>
<path opacity="0.2" d="M187.03 62.4754C187.03 62.4754 185.862 64.8777 183.181 64.796C183.053 63.8473 182.843 62.9114 182.553 61.9986L182.887 61.876L187.03 62.4754Z" fill="#263238"/>
<path d="M179.941 50.1054C178.777 50.2643 179.428 51.999 180.129 52.9254C180.831 53.8518 180.381 54.7419 181.225 56.0089C182.068 57.2759 185.317 57.4166 185.858 58.393C186.399 59.3693 186.848 60.936 188.663 60.6181C190.478 60.3003 192.756 62.1848 193.049 60.6181C193.342 59.0515 191.83 56.1996 188.663 53.5884C185.496 50.9773 181.999 49.8238 179.941 50.1054Z" fill="#FF5C8A"/>
<path d="M184.332 65.5226C180.666 66.5897 180.565 57.3485 181.839 54.6919" stroke="#FF5C8A" stroke-width="0.5" stroke-linecap="round" stroke-linejoin="round"/>
<path d="M184.006 50.2144C184.006 50.2144 180.93 53.7973 182.099 56.6128C183.268 59.4284 187.86 52.0717 187.86 52.0717L184.006 50.2144Z" fill="#1C2D5E"/>
<path d="M186.289 63.511C185.437 63.8948 184.482 63.9898 183.571 63.7812C182.659 63.5727 181.843 63.0723 181.247 62.3576C180.462 61.4504 180.053 60.2821 180.102 59.0879C180.102 58.9244 180.125 58.761 180.147 58.5929C180.606 55.5367 182.897 51.1091 186.481 51.1046C187.269 51.0999 188.045 51.2949 188.735 51.671C189.425 52.0471 190.007 52.5919 190.425 53.2535C190.843 53.9152 191.083 54.6717 191.123 55.4512C191.163 56.2308 191 57.0074 190.652 57.7074C189.249 60.7227 188.521 62.5664 186.289 63.511Z" fill="#E4897B"/>
<path d="M185.584 56.672C185.497 56.9263 185.263 57.0717 185.093 57.0035C184.924 56.9354 184.878 56.6766 184.979 56.4268C185.08 56.1771 185.304 56.0272 185.469 56.0908C185.634 56.1544 185.675 56.4132 185.584 56.672Z" fill="#1C2D5E"/>
<path d="M182.695 55.5187C182.613 55.773 182.374 55.9183 182.209 55.8502C182.044 55.7821 181.994 55.5233 182.095 55.2735C182.196 55.0237 182.416 54.8739 182.581 54.9375C182.746 55.001 182.791 55.278 182.695 55.5187Z" fill="#1C2D5E"/>
<path d="M183.562 56.0093C182.944 56.6594 182.238 57.2204 181.463 57.6759C181.586 57.8709 181.752 58.0365 181.948 58.1605C182.143 58.2846 182.364 58.3641 182.595 58.3934L183.562 56.0093Z" fill="#DE5753"/>
<path d="M182.128 53.8701C182.145 53.894 182.169 53.9125 182.197 53.9238C182.224 53.935 182.254 53.9384 182.284 53.9337C182.482 53.8934 182.687 53.9 182.882 53.9529C183.077 54.0058 183.257 54.1034 183.406 54.2379C183.421 54.2531 183.438 54.2654 183.457 54.2739C183.477 54.2825 183.497 54.2872 183.518 54.2879C183.54 54.2885 183.561 54.285 183.58 54.2776C183.6 54.2702 183.618 54.259 183.633 54.2447C183.649 54.2304 183.661 54.2132 183.67 54.1942C183.678 54.1752 183.683 54.1546 183.684 54.1337C183.684 54.1129 183.681 54.0921 183.673 54.0725C183.666 54.053 183.655 54.0351 183.64 54.0199C183.455 53.8457 183.23 53.7181 182.984 53.6477C182.738 53.5774 182.479 53.5665 182.229 53.6158C182.187 53.6225 182.149 53.6453 182.124 53.6794C182.099 53.7134 182.089 53.7559 182.096 53.7974C182.101 53.8236 182.112 53.8484 182.128 53.8701Z" fill="#1C2D5E"/>
<path d="M186.606 55.7591C186.637 55.768 186.67 55.768 186.702 55.7591C186.739 55.7396 186.768 55.7066 186.782 55.6669C186.795 55.6271 186.793 55.5837 186.775 55.5456C186.663 55.3178 186.497 55.1202 186.291 54.9699C186.085 54.8197 185.846 54.7211 185.593 54.6828C185.551 54.679 185.509 54.6916 185.477 54.7179C185.444 54.7442 185.423 54.7822 185.419 54.8236C185.415 54.865 185.428 54.9064 185.454 54.9386C185.481 54.9709 185.519 54.9916 185.561 54.9961C185.757 55.0361 185.942 55.1198 186.1 55.241C186.259 55.3622 186.388 55.5176 186.477 55.6955C186.492 55.7155 186.511 55.7317 186.534 55.7428C186.556 55.7538 186.581 55.7594 186.606 55.7591Z" fill="#1C2D5E"/>
<path d="M189.955 52.9395L189.167 54.1974C189.344 54.4103 189.435 54.6814 189.42 54.9571C189.406 55.2329 189.288 55.4933 189.089 55.6869C188.131 56.5951 187.961 58.6477 188.507 59.7421C188.507 59.7421 188.763 59.288 189.126 59.5741C189.488 59.8602 188.209 62.3624 186.834 63.207C186.834 63.207 188.571 62.6712 190.5 60.3234C192.283 58.1527 193.319 56.1364 193.25 54.9512L189.955 52.9395Z" fill="#1C2D5E"/>
<path d="M191 60.7909C190.368 61.3536 189.535 61.6444 188.686 61.5992C187.563 61.5311 187.371 60.4458 187.985 59.583C188.539 58.8246 189.818 57.9118 190.776 58.4113C191.734 58.9109 191.766 60.0916 191 60.7909Z" fill="#E4897B"/>
<path d="M182.463 59.2695C182.478 59.6925 182.461 60.116 182.412 60.5365L182.628 60.6001C183.613 60.8635 184.163 60.6637 184.461 60.364C184.605 60.2114 184.711 60.028 184.772 59.8281C184.811 59.7152 184.832 59.5974 184.837 59.4784C184.154 59.5861 183.457 59.5442 182.793 59.3558C182.591 59.2968 182.463 59.2695 182.463 59.2695Z" fill="#1C2D5E"/>
<path d="M182.801 59.356V59.751C183.717 60.0008 184.419 60.0507 184.785 59.8509C184.823 59.738 184.845 59.6203 184.849 59.5013C184.164 59.6022 183.465 59.5526 182.801 59.356Z" fill="white"/>
<path d="M182.627 60.6C183.612 60.8634 184.162 60.6636 184.46 60.3639C184.083 60.2695 183.692 60.2418 183.305 60.2821C183.051 60.3151 182.814 60.4263 182.627 60.6Z" fill="#DE5753"/>
<path d="M184.005 50.2146C183.703 50.4735 183.799 51.8767 184.844 52.9393C185.889 54.002 185.032 52.2082 185.032 52.2082C185.032 52.2082 187.246 54.0247 187.443 53.7386C187.64 53.4525 187.03 52.6759 187.03 52.6759C187.03 52.6759 188.767 54.4652 190.651 54.6922C192.535 54.9193 190.486 50.9185 188.465 50.2192C186.444 49.5198 184.913 49.4245 184.005 50.2146Z" fill="#1C2D5E"/>
<path d="M190.624 56.5723C190.624 56.5723 188.016 64.483 184.35 65.5456" stroke="#FF5C8A" stroke-width="0.5" stroke-linecap="round" stroke-linejoin="round"/>
<path d="M184.332 49.8966L187.636 47.9258C187.636 47.9258 189.525 47.9258 191.656 50.2236C193.787 52.5214 193.993 54.1926 193.993 54.1926L192.999 56.7175L184.332 49.8966Z" fill="#FF5C8A"/>
<path opacity="0.6" d="M184.332 49.8966L187.636 47.9258C187.636 47.9258 189.525 47.9258 191.656 50.2236C193.787 52.5214 193.993 54.1926 193.993 54.1926L192.999 56.7175L184.332 49.8966Z" fill="white"/>
<path opacity="0.2" d="M184.332 49.8967C185.395 49.8182 186.46 50.0007 187.435 50.428C188.947 51.1364 191.876 53.734 192.999 56.7175C192.999 56.7175 188.136 54.1972 186.683 52.6305C185.23 51.0638 184.332 49.8967 184.332 49.8967Z" fill="#263238"/>
<path d="M179.941 50.1054L184.332 49.8965C186.03 50.2487 187.629 50.9665 189.016 51.999C190.977 53.593 192.999 56.7173 192.999 56.7173L193.049 60.6182C193.049 60.6182 193.026 59.0151 190.757 58.0251C189.52 57.4848 188.53 55.0007 187.714 54.1152C186.899 53.2297 184.644 53.0208 183.92 52.3941C183.195 51.7674 182.022 50.3097 179.941 50.1054Z" fill="#FF5C8A"/>
<path opacity="0.6" d="M179.941 50.1054L184.332 49.8965C186.03 50.2487 187.629 50.9665 189.016 51.999C190.977 53.593 192.999 56.7173 192.999 56.7173L193.049 60.6182C193.049 60.6182 193.026 59.0151 190.757 58.0251C189.52 57.4848 188.53 55.0007 187.714 54.1152C186.899 53.2297 184.644 53.0208 183.92 52.3941C183.195 51.7674 182.022 50.3097 179.941 50.1054Z" fill="white"/>
<path d="M188.397 65.6092L184.469 67.8162L182.796 65.5229L181.096 66.6719L181.834 70.1958L184.331 68.3112L185.514 71.1858L190.606 67.5029L188.397 65.6092Z" fill="#FF5C8A"/>
<path opacity="0.6" d="M188.397 65.6092L184.469 67.8162L182.796 65.5229L181.096 66.6719L181.834 70.1958L184.331 68.3112L185.514 71.1858L190.606 67.5029L188.397 65.6092Z" fill="white"/>
<path opacity="0.2" d="M185.358 76.0444L190.606 76.7574L190.028 83.5782L184.547 83.0605L185.358 76.7574L187.576 78.7146L190.028 77.5021L187.457 79.2232L185.56 77.4931L185.01 82.4565L189.575 82.8153L190.189 77.0208L185.358 76.0444Z" fill="#263238"/>
<path opacity="0.2" d="M175.835 74.7461L180.423 75.4636L179.919 82.2844L175.125 81.7622L175.835 75.4636L177.774 77.4163L179.919 76.2038L177.669 77.9249L176.01 76.1947L175.533 81.1627L179.525 81.5215L180.061 75.727L175.835 74.7461Z" fill="#263238"/>
<path d="M176.719 174.946L176.214 172.703L176.132 168.657H172.713C172.7 168.505 172.644 168.361 172.553 168.238C172.462 168.116 172.338 168.021 172.196 167.964C172.054 167.906 171.899 167.889 171.747 167.914C171.596 167.938 171.454 168.004 171.338 168.103L170.88 171.84C170.018 172.608 167.988 173.416 165.288 173.997C164.683 174.129 164.876 175.568 166.347 175.568C167.818 175.568 171.031 175.459 172.094 175.459C173.822 175.459 174.844 175.541 176.219 175.564H176.334C176.4 175.548 176.462 175.52 176.518 175.481C176.573 175.441 176.62 175.392 176.655 175.334C176.691 175.277 176.715 175.213 176.726 175.146C176.737 175.08 176.734 175.012 176.719 174.946Z" fill="#1C2D5E"/>
<path d="M196.427 174.946L195.923 172.703L195.167 168.657H191.752C191.739 168.505 191.683 168.361 191.592 168.238C191.501 168.116 191.378 168.021 191.236 167.964C191.093 167.906 190.938 167.889 190.787 167.914C190.635 167.938 190.494 168.004 190.377 168.103L190.579 171.84C189.717 172.608 187.687 173.416 184.988 173.997C184.383 174.129 184.575 175.568 186.046 175.568C187.518 175.568 190.73 175.459 191.794 175.459C193.521 175.459 194.543 175.541 195.918 175.564H196.033C196.1 175.549 196.163 175.522 196.22 175.483C196.276 175.444 196.324 175.394 196.36 175.337C196.397 175.279 196.422 175.215 196.433 175.148C196.445 175.081 196.443 175.013 196.427 174.946Z" fill="#1C2D5E"/>
<path opacity="0.2" d="M195.037 75.5815C194.638 77.8521 194.208 80.4996 193.818 83.2652C192.191 79.5414 193.777 74.1147 193.777 74.1147C194.272 74.5351 194.697 75.0301 195.037 75.5815Z" fill="#263238"/>
<path d="M196.34 68.6924C199.034 71.0038 201.331 78.5149 201.331 78.5149L196.34 82.2841L193.993 78.5149C193.656 76.4591 193.656 74.3629 193.993 72.3071C194.561 69.0875 196.34 68.6924 196.34 68.6924Z" fill="#FF5C8A"/>
<path opacity="0.6" d="M196.34 68.6924C199.034 71.0038 201.331 78.5149 201.331 78.5149L196.34 82.2841L193.993 78.5149C193.656 76.4591 193.656 74.3629 193.993 72.3071C194.561 69.0875 196.34 68.6924 196.34 68.6924Z" fill="white"/>
<path d="M195.771 82.2839L201.574 77.77L202 78.8236L196.564 83.2512L195.771 82.2839Z" fill="#FF5C8A"/>
<path d="M105.238 175.55H88.4453C88.4453 175.55 91.791 170.482 93.2163 171.127C95.0495 171.963 96.4244 167.372 98.496 168.457C99.2201 168.843 98.8672 170.069 99.3209 170.564C100.077 171.382 101.03 171.223 101.942 171.672C103.725 172.567 104.358 173.734 105.238 175.55Z" fill="#1C2D5E"/>
<path d="M90.2824 174.156C90.2824 174.156 91.3823 167.798 90.6216 166.89C89.8608 165.982 89.7049 170.346 89.7049 170.346C89.7049 170.346 87.1476 161.191 85.5114 161.141C83.8753 161.091 87.4546 169.083 87.4546 169.083C87.4546 169.083 80.4609 157.758 78.426 158.816C76.3911 159.874 85.7589 169.91 85.7589 169.91C85.7589 169.91 80.6396 165.546 79.5122 166.777C78.3847 168.007 85.1952 171.772 85.1952 171.772C85.1952 171.772 82.1933 171.104 82.1933 172.094C82.1933 173.084 87.2759 174.719 90.2824 174.156Z" fill="#FF5C8A"/>
<path opacity="0.2" d="M90.2824 174.156C90.2824 174.156 91.3823 167.798 90.6216 166.89C89.8608 165.982 89.7049 170.346 89.7049 170.346C89.7049 170.346 87.1476 161.191 85.5114 161.141C83.8753 161.091 87.4546 169.083 87.4546 169.083C87.4546 169.083 80.4609 157.758 78.426 158.816C76.3911 159.874 85.7589 169.91 85.7589 169.91C85.7589 169.91 80.6396 165.546 79.5122 166.777C78.3847 168.007 85.1952 171.772 85.1952 171.772C85.1952 171.772 82.1933 171.104 82.1933 172.094C82.1933 173.084 87.2759 174.719 90.2824 174.156Z" fill="white"/>
<path d="M91.2905 173.248C91.2905 173.248 96.5473 172.303 97.056 171.459C97.5647 170.614 94.1045 171.749 94.1045 171.749C94.1045 171.749 100.521 167.208 100.104 165.937C99.6867 164.665 94.4528 169.67 94.4528 169.67C94.4528 169.67 101.327 161.11 99.9204 159.852C98.5134 158.594 93.33 168.593 93.33 168.593C93.33 168.593 95.2961 163.444 94.0083 162.926C92.7204 162.408 91.7167 168.689 91.7167 168.689C91.7167 168.689 91.3913 166.2 90.6168 166.482C89.8423 166.763 90.0027 171.105 91.2905 173.248Z" fill="#FF5C8A"/>
<path opacity="0.2" d="M91.2905 173.248C91.2905 173.248 96.5473 172.303 97.056 171.459C97.5647 170.614 94.1045 171.749 94.1045 171.749C94.1045 171.749 100.521 167.208 100.104 165.937C99.6867 164.665 94.4528 169.67 94.4528 169.67C94.4528 169.67 101.327 161.11 99.9204 159.852C98.5134 158.594 93.33 168.593 93.33 168.593C93.33 168.593 95.2961 163.444 94.0083 162.926C92.7204 162.408 91.7167 168.689 91.7167 168.689C91.7167 168.689 91.3913 166.2 90.6168 166.482C89.8423 166.763 90.0027 171.105 91.2905 173.248Z" fill="white"/>
<path d="M91.6847 172.557C91.6847 172.557 96.7581 167.517 96.6711 166.2C96.584 164.883 93.6325 168.766 93.6325 168.766C93.6325 168.766 97.2119 158.861 95.7636 157.785C94.3154 156.709 92.4088 166.195 92.4088 166.195C92.4088 166.195 93.3667 151.523 90.8505 151.209C88.3344 150.896 90.3327 165.882 90.3327 165.882C90.3327 165.882 88.4994 158.698 86.6983 159.102C84.8971 159.506 88.6232 167.217 88.6232 167.217C88.6232 167.217 86.3316 164.715 85.6992 165.614C85.0667 166.513 88.6003 171.168 91.6847 172.557Z" fill="#FF5C8A"/>
<path opacity="0.4" d="M91.6847 172.557C91.6847 172.557 96.7581 167.517 96.6711 166.2C96.584 164.883 93.6325 168.766 93.6325 168.766C93.6325 168.766 97.2119 158.861 95.7636 157.785C94.3154 156.709 92.4088 166.195 92.4088 166.195C92.4088 166.195 93.3667 151.523 90.8505 151.209C88.3344 150.896 90.3327 165.882 90.3327 165.882C90.3327 165.882 88.4994 158.698 86.6983 159.102C84.8971 159.506 88.6232 167.217 88.6232 167.217C88.6232 167.217 86.3316 164.715 85.6992 165.614C85.0667 166.513 88.6003 171.168 91.6847 172.557Z" fill="white"/>
<path d="M97.8396 175.55H84.457C84.457 175.55 87.1244 171.513 88.2564 172.022C89.7367 172.69 90.8321 169.034 92.4682 169.897C93.0457 170.206 92.7616 171.182 93.1236 171.577C93.724 172.226 94.4985 172.104 95.2135 172.458C96.6297 173.18 97.1292 174.106 97.8396 175.55Z" fill="#1C2D5E"/>
<path opacity="0.2" d="M97.8396 175.55H84.457C84.457 175.55 87.1244 171.513 88.2564 172.022C89.7367 172.69 90.8321 169.034 92.4682 169.897C93.0457 170.206 92.7616 171.182 93.1236 171.577C93.724 172.226 94.4985 172.104 95.2135 172.458C96.6297 173.18 97.1292 174.106 97.8396 175.55Z" fill="white"/>
<path d="M224.15 166.291C224.15 166.291 229.192 148.067 233.248 142.295C237.304 136.523 230.787 155.337 230.787 155.337C230.787 155.337 236.497 143.344 238.289 143.721C240.081 144.098 232.391 157.054 232.391 157.054C232.391 157.054 238.248 146.686 240.814 148.38C243.381 150.074 233.335 160.732 233.335 160.732C233.335 160.732 242.35 154.039 243.248 155.9C244.146 157.762 234.517 163.711 234.517 163.711C234.517 163.711 243.683 161.895 244.641 165.074C245.599 168.252 235.526 167.798 235.526 167.798C235.526 167.798 240.187 167.589 241.071 170.927C241.956 174.265 228.839 173.048 224.15 166.291Z" fill="#FF5C8A"/>
<path opacity="0.2" d="M224.15 166.291C224.15 166.291 229.192 148.067 233.248 142.295C237.304 136.523 230.787 155.337 230.787 155.337C230.787 155.337 236.497 143.344 238.289 143.721C240.081 144.098 232.391 157.054 232.391 157.054C232.391 157.054 238.248 146.686 240.814 148.38C243.381 150.074 233.335 160.732 233.335 160.732C233.335 160.732 242.35 154.039 243.248 155.9C244.146 157.762 234.517 163.711 234.517 163.711C234.517 163.711 243.683 161.895 244.641 165.074C245.599 168.252 235.526 167.798 235.526 167.798C235.526 167.798 240.187 167.589 241.071 170.927C241.956 174.265 228.839 173.048 224.15 166.291Z" fill="white"/>
<path d="M221.588 171.563C221.588 171.563 228.394 158.585 227.015 156.309C225.635 154.034 222.729 161.382 222.729 161.382C222.729 161.382 227.977 144.757 226.084 142.927C224.191 141.097 220.713 157.245 220.713 157.245C220.713 157.245 222.546 138.326 220.713 137.318C218.88 136.31 217.963 154.438 217.963 154.438C217.963 154.438 216.707 135.257 214.397 135.547C212.087 135.838 214.397 152.59 214.397 152.59C214.397 152.59 209.228 139.839 206.909 140.352C204.59 140.865 210.635 153.553 210.635 153.553C210.635 153.553 204.507 145.892 202.738 147.69C200.969 149.489 208.215 157.876 208.215 157.876C208.215 157.876 201.996 154.034 200.391 155.951C198.787 157.867 206.909 161.999 206.909 161.999C206.909 161.999 200.281 163.702 200.744 165.337C201.207 166.972 206.909 166.75 206.909 166.75C206.909 166.75 209.416 178.375 221.588 171.563Z" fill="#FF5C8A"/>
<path opacity="0.4" d="M221.588 171.563C221.588 171.563 228.394 158.585 227.015 156.309C225.635 154.034 222.729 161.382 222.729 161.382C222.729 161.382 227.977 144.757 226.084 142.927C224.191 141.097 220.713 157.245 220.713 157.245C220.713 157.245 222.546 138.326 220.713 137.318C218.88 136.31 217.963 154.438 217.963 154.438C217.963 154.438 216.707 135.257 214.397 135.547C212.087 135.838 214.397 152.59 214.397 152.59C214.397 152.59 209.228 139.839 206.909 140.352C204.59 140.865 210.635 153.553 210.635 153.553C210.635 153.553 204.507 145.892 202.738 147.69C200.969 149.489 208.215 157.876 208.215 157.876C208.215 157.876 201.996 154.034 200.391 155.951C198.787 157.867 206.909 161.999 206.909 161.999C206.909 161.999 200.281 163.702 200.744 165.337C201.207 166.972 206.909 166.75 206.909 166.75C206.909 166.75 209.416 178.375 221.588 171.563Z" fill="white"/>
<path d="M236.217 140.547C236.217 140.749 236.156 140.947 236.043 141.115C235.93 141.283 235.769 141.414 235.58 141.491C235.392 141.568 235.184 141.589 234.984 141.549C234.784 141.51 234.601 141.413 234.456 141.27C234.312 141.127 234.214 140.945 234.174 140.746C234.134 140.548 234.155 140.343 234.233 140.156C234.311 139.969 234.443 139.81 234.613 139.698C234.782 139.585 234.982 139.525 235.186 139.525C235.459 139.525 235.721 139.633 235.915 139.825C236.108 140.016 236.217 140.276 236.217 140.547Z" fill="#FF5C8A"/>
<path d="M223.379 167.267C223.379 167.267 227.128 146.582 236.312 137.632" stroke="#FF5C8A" stroke-miterlimit="10" stroke-linecap="round"/>
<path d="M237.523 137.631C237.523 137.869 237.452 138.1 237.319 138.298C237.187 138.495 236.998 138.648 236.776 138.739C236.555 138.83 236.312 138.854 236.077 138.807C235.843 138.761 235.627 138.647 235.458 138.479C235.289 138.312 235.173 138.098 235.127 137.865C235.08 137.633 235.104 137.392 235.196 137.173C235.287 136.954 235.442 136.766 235.641 136.635C235.84 136.503 236.074 136.433 236.313 136.433C236.634 136.433 236.942 136.559 237.169 136.784C237.396 137.009 237.523 137.314 237.523 137.631Z" fill="#FF5C8A"/>
<path d="M232.615 148.299C233.185 148.299 233.646 147.841 233.646 147.277C233.646 146.713 233.185 146.255 232.615 146.255C232.046 146.255 231.584 146.713 231.584 147.277C231.584 147.841 232.046 148.299 232.615 148.299Z" fill="#FF5C8A"/>
<path d="M229.066 144.311C229.065 144.513 229.004 144.71 228.89 144.878C228.776 145.045 228.615 145.176 228.427 145.252C228.238 145.329 228.031 145.348 227.831 145.309C227.631 145.269 227.448 145.171 227.304 145.028C227.161 144.885 227.063 144.703 227.023 144.505C226.984 144.307 227.005 144.101 227.083 143.915C227.161 143.728 227.293 143.569 227.463 143.457C227.632 143.345 227.831 143.285 228.035 143.285C228.171 143.285 228.305 143.312 228.431 143.363C228.556 143.415 228.67 143.491 228.766 143.586C228.862 143.681 228.938 143.795 228.989 143.919C229.041 144.044 229.067 144.177 229.066 144.311Z" fill="#FF5C8A"/>
<path d="M232.271 150.983C232.271 151.185 232.211 151.382 232.098 151.55C231.984 151.718 231.823 151.849 231.635 151.927C231.446 152.004 231.239 152.024 231.039 151.985C230.839 151.945 230.655 151.848 230.511 151.705C230.367 151.562 230.269 151.38 230.229 151.182C230.189 150.984 230.209 150.778 230.287 150.592C230.366 150.405 230.498 150.245 230.667 150.133C230.837 150.021 231.036 149.961 231.24 149.961C231.513 149.962 231.775 150.07 231.968 150.262C232.161 150.453 232.27 150.712 232.271 150.983Z" fill="#FF5C8A"/>
<path d="M227.555 149.52C227.555 149.722 227.494 149.92 227.381 150.088C227.267 150.256 227.106 150.387 226.918 150.464C226.73 150.542 226.522 150.562 226.322 150.522C226.122 150.483 225.938 150.386 225.794 150.243C225.65 150.1 225.552 149.918 225.512 149.72C225.472 149.521 225.493 149.316 225.571 149.129C225.649 148.943 225.781 148.783 225.95 148.671C226.12 148.558 226.319 148.499 226.523 148.499C226.797 148.499 227.059 148.606 227.253 148.798C227.446 148.989 227.555 149.249 227.555 149.52Z" fill="#FF5C8A"/>
<path d="M232.693 138.83C232.693 139.032 232.633 139.23 232.519 139.398C232.406 139.566 232.245 139.697 232.057 139.774C231.868 139.852 231.661 139.872 231.461 139.832C231.261 139.793 231.077 139.696 230.933 139.553C230.789 139.41 230.69 139.228 230.651 139.03C230.611 138.831 230.631 138.626 230.709 138.439C230.787 138.253 230.92 138.093 231.089 137.981C231.259 137.869 231.458 137.809 231.662 137.809C231.936 137.809 232.198 137.916 232.391 138.108C232.585 138.299 232.693 138.559 232.693 138.83Z" fill="#FF5C8A"/>
<path d="M231.66 138.831V143.776L236.312 142.632" stroke="#FF5C8A" stroke-miterlimit="10" stroke-linecap="round"/>
<path d="M228.035 144.312L229.369 148.199L232.614 147.477" stroke="#FF5C8A" stroke-miterlimit="10" stroke-linecap="round"/>
<path d="M226.523 149.521L227.596 152.45L231.239 150.983" stroke="#FF5C8A" stroke-miterlimit="10" stroke-linecap="round"/>
<path d="M211.042 172.657C206.207 166.014 200.212 158.784 192.48 155.369" stroke="#FF5C8A" stroke-miterlimit="10" stroke-linecap="round"/>
<path d="M191.349 155.787C191.432 156.009 191.581 156.202 191.775 156.341C191.969 156.48 192.201 156.559 192.44 156.567C192.68 156.575 192.916 156.513 193.12 156.388C193.324 156.263 193.485 156.081 193.584 155.865C193.683 155.649 193.716 155.408 193.677 155.174C193.638 154.94 193.529 154.722 193.366 154.549C193.202 154.376 192.99 154.255 192.756 154.201C192.523 154.147 192.279 154.163 192.055 154.247C191.906 154.303 191.77 154.386 191.654 154.493C191.538 154.6 191.445 154.729 191.379 154.872C191.314 155.015 191.277 155.17 191.272 155.327C191.267 155.484 191.293 155.64 191.349 155.787Z" fill="#FF5C8A"/>
<path d="M198.416 163.476C198.488 163.665 198.615 163.828 198.78 163.946C198.946 164.064 199.143 164.13 199.347 164.137C199.55 164.144 199.752 164.091 199.925 163.984C200.098 163.878 200.236 163.723 200.32 163.539C200.404 163.355 200.432 163.151 200.399 162.952C200.366 162.752 200.275 162.567 200.136 162.419C199.997 162.272 199.817 162.168 199.618 162.122C199.42 162.075 199.212 162.088 199.021 162.159C198.765 162.254 198.558 162.447 198.445 162.693C198.331 162.94 198.321 163.221 198.416 163.476Z" fill="#FF5C8A"/>
<path d="M201.623 159.107C201.695 159.296 201.822 159.46 201.988 159.577C202.154 159.695 202.351 159.761 202.555 159.767C202.759 159.774 202.96 159.72 203.133 159.613C203.306 159.506 203.444 159.351 203.528 159.167C203.612 158.982 203.639 158.778 203.605 158.578C203.572 158.379 203.479 158.194 203.34 158.047C203.2 157.899 203.02 157.796 202.821 157.751C202.622 157.705 202.414 157.719 202.224 157.79C202.097 157.837 201.981 157.909 201.882 158.001C201.783 158.093 201.704 158.203 201.648 158.325C201.592 158.448 201.561 158.58 201.557 158.714C201.553 158.848 201.575 158.981 201.623 159.107Z" fill="#FF5C8A"/>
<path d="M200.99 166.468C201.061 166.658 201.187 166.822 201.353 166.941C201.518 167.059 201.715 167.126 201.919 167.134C202.123 167.141 202.325 167.088 202.499 166.982C202.672 166.876 202.81 166.721 202.895 166.537C202.98 166.353 203.008 166.148 202.975 165.949C202.942 165.749 202.85 165.564 202.711 165.416C202.572 165.268 202.392 165.164 202.193 165.118C201.994 165.072 201.786 165.085 201.595 165.156C201.34 165.251 201.132 165.442 201.019 165.688C200.906 165.934 200.895 166.215 200.99 166.468Z" fill="#FF5C8A"/>
<path d="M204.888 163.462C204.959 163.651 205.086 163.815 205.252 163.932C205.417 164.05 205.614 164.117 205.818 164.123C206.022 164.13 206.223 164.077 206.396 163.971C206.569 163.864 206.707 163.709 206.791 163.526C206.876 163.342 206.903 163.137 206.871 162.938C206.838 162.739 206.746 162.553 206.607 162.406C206.468 162.258 206.288 162.154 206.09 162.108C205.891 162.061 205.684 162.074 205.493 162.145C205.237 162.242 205.031 162.434 204.918 162.681C204.804 162.927 204.794 163.208 204.888 163.462Z" fill="#FF5C8A"/>
<path d="M196.299 155.233C196.371 155.422 196.498 155.586 196.664 155.703C196.83 155.821 197.027 155.887 197.231 155.893C197.435 155.899 197.636 155.846 197.809 155.739C197.982 155.632 198.119 155.477 198.203 155.292C198.287 155.108 198.314 154.904 198.281 154.704C198.247 154.505 198.155 154.32 198.015 154.173C197.876 154.025 197.695 153.922 197.497 153.877C197.298 153.831 197.09 153.845 196.899 153.916C196.773 153.963 196.657 154.035 196.558 154.127C196.459 154.219 196.38 154.329 196.324 154.451C196.268 154.574 196.237 154.705 196.233 154.84C196.229 154.974 196.251 155.107 196.299 155.233Z" fill="#FF5C8A"/>
<path d="M197.261 154.875L199.012 159.507L194.25 160.051" stroke="#FF5C8A" stroke-miterlimit="10" stroke-linecap="round"/>
<path d="M202.595 158.748L202.723 162.853L199.428 163.307" stroke="#FF5C8A" stroke-miterlimit="10" stroke-linecap="round"/>
<path d="M205.855 163.103L205.891 166.218L201.959 166.109" stroke="#FF5C8A" stroke-miterlimit="10" stroke-linecap="round"/>
<path d="M191.33 175.551H246.437C246.437 175.551 232.5 171.046 232.152 169.77C231.803 168.494 231.812 167.608 230.117 166.495C228.421 165.383 226.088 164.702 225.442 163.485C224.796 162.268 222.793 160.306 222.101 159.729C221.409 159.152 213.141 163.276 213.045 163.362C212.948 163.448 210.648 167.926 209.864 168.925C209.08 169.924 203.672 168.702 202.38 169.761C201.087 170.819 196.747 173.548 196.747 173.548C196.747 173.548 194.616 173.28 191.33 175.551Z" fill="#1C2D5E"/>
<path opacity="0.2" d="M191.33 175.551H246.437C246.437 175.551 232.5 171.046 232.152 169.77C231.803 168.494 231.812 167.608 230.117 166.495C228.421 165.383 226.088 164.702 225.442 163.485C224.796 162.268 222.793 160.306 222.101 159.729C221.409 159.152 213.141 163.276 213.045 163.362C212.948 163.448 210.648 167.926 209.864 168.925C209.08 169.924 203.672 168.702 202.38 169.761C201.087 170.819 196.747 173.548 196.747 173.548C196.747 173.548 194.616 173.28 191.33 175.551Z" fill="white"/>
<path d="M152.82 57.2122C152.82 57.2122 154.616 49.079 153.892 48.1299C153.168 47.1807 152.407 51.4676 152.407 51.4676C152.407 51.4676 152.086 48.8383 150.931 49.1153C149.776 49.3923 150.698 52.2714 150.698 52.2714C150.698 52.2714 150.088 51.1543 149.259 51.8173C148.429 52.4803 149.648 57.1395 152.82 57.2122Z" fill="#FF5C8A"/>
<path d="M155.161 54.9418C153.713 53.8201 151.65 55.85 151.65 55.85L145.253 46.9902C143.057 47.6669 145.445 51.8947 145.445 51.8947C145.445 51.8947 142.416 49.9011 142.301 51.2408C142.186 52.5804 144.863 53.5885 145.702 53.8565C145.115 53.6884 143.708 53.3796 143.552 54.188C143.355 55.2052 147.333 56.4813 147.333 56.4813C147.333 56.4813 147.306 56.5312 147.264 56.622L144.331 56.8491L140.211 54.3015C140.211 54.3015 139.148 55.2097 140.848 57.0262C142.549 58.8427 144.327 58.1206 144.327 58.1206C144.327 58.1206 145.413 60.5047 149.24 60.9225H149.322C152.356 61.4538 156.522 55.9999 155.161 54.9418Z" fill="#FF5C8A"/>
<path opacity="0.2" d="M155.161 54.9418C153.713 53.8201 151.65 55.85 151.65 55.85L145.253 46.9902C143.057 47.6669 145.445 51.8947 145.445 51.8947C145.445 51.8947 142.416 49.9011 142.301 51.2408C142.186 52.5804 144.863 53.5885 145.702 53.8565C145.115 53.6884 143.708 53.3796 143.552 54.188C143.355 55.2052 147.333 56.4813 147.333 56.4813C147.333 56.4813 147.306 56.5312 147.264 56.622L144.331 56.8491L140.211 54.3015C140.211 54.3015 139.148 55.2097 140.848 57.0262C142.549 58.8427 144.327 58.1206 144.327 58.1206C144.327 58.1206 145.413 60.5047 149.24 60.9225H149.322C152.356 61.4538 156.522 55.9999 155.161 54.9418Z" fill="white"/>
<path d="M155.445 55.8091L156.536 56.1497L155.459 56.4267L155.872 57.1533L155.028 56.8899C154.969 56.7947 154.932 56.6871 154.921 56.5756C154.911 56.4641 154.926 56.3516 154.966 56.247C155.007 56.1423 155.071 56.0483 155.154 55.9724C155.237 55.8964 155.337 55.8405 155.445 55.8091Z" fill="#FF5C8A"/>
<path d="M154.648 55.9592C154.64 55.9836 154.627 56.0063 154.611 56.0259C154.594 56.0456 154.574 56.0617 154.551 56.0736C154.528 56.0854 154.503 56.0926 154.477 56.0948C154.451 56.0969 154.425 56.0941 154.4 56.0863C154.376 56.0786 154.353 56.0661 154.333 56.0495C154.314 56.0329 154.297 56.0126 154.286 55.9897C154.274 55.9668 154.268 55.9419 154.266 55.9163C154.264 55.8908 154.268 55.8652 154.277 55.8411C154.292 55.7927 154.327 55.7524 154.372 55.7287C154.417 55.7049 154.47 55.6996 154.519 55.7139C154.544 55.7217 154.567 55.7342 154.587 55.7507C154.607 55.7672 154.623 55.7874 154.635 55.8102C154.647 55.833 154.654 55.8579 154.656 55.8834C154.658 55.909 154.656 55.9347 154.648 55.9592Z" fill="#1C2D5E"/>
<path d="M201.332 71.9483C200.998 72.7164 200.765 73.5238 200.64 74.3506C200.548 75.3587 200.424 75.5903 199.792 74.8047C199.159 74.0191 198.605 71.14 201.332 71.9483Z" fill="#FF5C8A"/>
<path d="M195.593 66.8716C195.593 66.8716 194.745 67.7253 194.584 67.7253C194.424 67.7253 193.209 67.9569 193.237 68.2476C193.264 68.5382 194.745 68.6245 195.331 68.7017C195.918 68.7789 195.593 66.8716 195.593 66.8716Z" fill="#FF5C8A"/>
<path d="M201.272 68.6833C201.752 68.5934 202.195 68.3627 202.542 68.0211C202.889 67.6795 203.125 67.2427 203.219 66.7669C203.705 64.9959 197.527 63.134 197.069 59.8371C196.611 56.5402 201.542 52.9799 204.356 56.4131C207.17 59.8462 203.815 59.9597 203.815 59.9597C203.815 59.9597 201.162 59.7281 203.054 61.6399C204.947 63.5518 207.124 64.5644 206.955 68.379C206.785 72.1936 202.83 71.5896 202 70.7359C201.748 70.4583 201.554 70.1341 201.429 69.7818C201.304 69.4295 201.25 69.0561 201.272 68.6833Z" fill="#FF5C8A"/>
<path d="M195.592 63.1886C195.592 63.1886 195.258 60.8908 194.323 60.9407C193.388 60.9907 194.744 63.3203 194.744 63.3203L195.592 63.1886Z" fill="#FF5C8A"/>
<path d="M195.176 62.6616C192.656 62.4391 191.909 65.1093 193.183 65.6996C194.457 66.29 195.176 65.6996 195.176 65.6996V67.9702C195.176 67.9702 192.958 68.5197 193.343 69.1146C193.728 69.7094 196.042 69.1146 196.042 69.1146L197.944 70.7494C197.813 71.0844 197.759 71.4444 197.787 71.8029C197.814 72.1613 197.923 72.509 198.105 72.8201C198.105 72.8201 197.087 71.6349 196.863 72.4523C196.638 73.2697 198.568 75.1225 199.287 75.1225C200.007 75.1225 200.332 73.5649 200.332 73.5649C201.066 73.2837 201.701 72.7977 202.162 72.1658C202.622 71.5338 202.888 70.7831 202.926 70.0046C203.077 67.2572 198.059 66.4443 197.239 65.2546C196.418 64.0648 196.565 63.6152 196.565 63.6152C196.742 63.2237 196.796 62.7884 196.719 62.3663C196.642 61.9441 196.438 61.5548 196.134 61.2493C195.053 60.064 195.176 62.6616 195.176 62.6616Z" fill="#FF5C8A"/>
<path opacity="0.2" d="M195.176 62.6616C192.656 62.4391 191.909 65.1093 193.183 65.6996C194.457 66.29 195.176 65.6996 195.176 65.6996V67.9702C195.176 67.9702 192.958 68.5197 193.343 69.1146C193.728 69.7094 196.042 69.1146 196.042 69.1146L197.944 70.7494C197.813 71.0844 197.759 71.4444 197.787 71.8029C197.814 72.1613 197.923 72.509 198.105 72.8201C198.105 72.8201 197.087 71.6349 196.863 72.4523C196.638 73.2697 198.568 75.1225 199.287 75.1225C200.007 75.1225 200.332 73.5649 200.332 73.5649C201.066 73.2837 201.701 72.7977 202.162 72.1658C202.622 71.5338 202.888 70.7831 202.926 70.0046C203.077 67.2572 198.059 66.4443 197.239 65.2546C196.418 64.0648 196.565 63.6152 196.565 63.6152C196.742 63.2237 196.796 62.7884 196.719 62.3663C196.642 61.9441 196.438 61.5548 196.134 61.2493C195.053 60.064 195.176 62.6616 195.176 62.6616Z" fill="white"/>
<path d="M194.694 64.4012C194.694 64.5738 194.589 64.7146 194.46 64.7146C194.332 64.7146 194.227 64.5738 194.227 64.4012C194.227 64.2287 194.327 64.0879 194.46 64.0879C194.593 64.0879 194.694 64.2287 194.694 64.4012Z" fill="#1C2D5E"/>
<path d="M192.668 65.1592C192.744 65.1276 192.83 65.126 192.907 65.1547C192.985 65.1833 193.048 65.2402 193.085 65.3136C193.218 65.5861 192.494 65.3636 192.668 65.1592Z" fill="#1C2D5E"/>
<path d="M119.129 174.706C116.792 171.759 120.398 164.774 127.741 164.261C135.083 163.748 139.162 169.584 139.437 171.741C139.712 173.898 144.693 174.27 144.693 174.27V175.66C144.693 175.66 121.123 177.222 119.129 174.706Z" fill="#FF5C8A"/>
<path d="M144.996 175.814C145.581 175.814 146.055 175.344 146.055 174.765C146.055 174.185 145.581 173.716 144.996 173.716C144.411 173.716 143.938 174.185 143.938 174.765C143.938 175.344 144.411 175.814 144.996 175.814Z" fill="#1C2D5E"/>
<path d="M139.753 173.734C139.753 173.805 139.732 173.874 139.692 173.933C139.653 173.992 139.596 174.038 139.53 174.065C139.464 174.092 139.391 174.099 139.321 174.086C139.25 174.072 139.186 174.038 139.135 173.987C139.085 173.937 139.05 173.873 139.036 173.804C139.022 173.734 139.029 173.662 139.057 173.596C139.084 173.531 139.131 173.475 139.19 173.435C139.25 173.396 139.32 173.375 139.391 173.375C139.487 173.375 139.579 173.413 139.647 173.48C139.715 173.547 139.753 173.639 139.753 173.734Z" fill="#1C2D5E"/>
<path d="M139.235 170.982C139.235 170.982 140.857 165.038 139.766 162.522C138.676 160.006 139.235 166.064 139.235 166.064C139.235 166.064 137.401 158.748 135.898 158.208C134.395 157.667 136.746 162.041 136.746 162.041C136.746 162.041 131.246 156.714 129.871 157.313C128.497 157.913 131.572 159.688 131.572 159.688C131.572 159.688 124.239 157.418 123.583 158.448C122.928 159.479 126.003 159.357 126.003 159.357C126.003 159.357 118.267 160.015 118.143 160.792C118.02 161.568 120.623 161.15 120.623 161.15C120.623 161.15 116.452 163.789 116.576 164.506C116.7 165.224 118.437 164.134 118.437 164.134C118.437 164.134 115.229 167.799 115.229 168.998C115.229 170.196 116.924 168.457 116.924 168.457C116.924 168.457 115.549 171.091 115.957 172.29C116.365 173.489 117.227 171.214 117.103 171.382C116.979 171.55 115.774 174.783 120.971 175.659C126.168 176.536 133.345 177.022 134.39 176.114C135.435 175.205 135.174 172.24 135.174 172.24C135.174 172.24 137.676 169.983 139.235 170.982Z" fill="#FF5C8A"/>
<path opacity="0.2" d="M139.235 170.982C139.235 170.982 140.857 165.038 139.766 162.522C138.676 160.006 139.235 166.064 139.235 166.064C139.235 166.064 137.401 158.748 135.898 158.208C134.395 157.667 136.746 162.041 136.746 162.041C136.746 162.041 131.246 156.714 129.871 157.313C128.497 157.913 131.572 159.688 131.572 159.688C131.572 159.688 124.239 157.418 123.583 158.448C122.928 159.479 126.003 159.357 126.003 159.357C126.003 159.357 118.267 160.015 118.143 160.792C118.02 161.568 120.623 161.15 120.623 161.15C120.623 161.15 116.452 163.789 116.576 164.506C116.7 165.224 118.437 164.134 118.437 164.134C118.437 164.134 115.229 167.799 115.229 168.998C115.229 170.196 116.924 168.457 116.924 168.457C116.924 168.457 115.549 171.091 115.957 172.29C116.365 173.489 117.227 171.214 117.103 171.382C116.979 171.55 115.774 174.783 120.971 175.659C126.168 176.536 133.345 177.022 134.39 176.114C135.435 175.205 135.174 172.24 135.174 172.24C135.174 172.24 137.676 169.983 139.235 170.982Z" fill="#263238"/>
</svg>
