<svg width="329" height="329" viewBox="0 0 329 329" fill="none" xmlns="http://www.w3.org/2000/svg">
<rect width="328" height="328" transform="translate(0.5 0.666626)" fill="white"/>
<path d="M223.997 113.817L217.785 111.312C217.785 111.312 209.588 126.26 207.24 127.018C204.046 128.045 197.433 130.9 193.513 131.401C192.981 132.027 192.11 133.975 192.192 134.682C197.458 136.442 209.031 134.106 211.51 132.265C217.152 128.088 223.997 113.817 223.997 113.817Z" fill="#E58A7B"/>
<path d="M225.907 110.417C227.066 114.694 220.791 123.298 220.791 123.298L212.569 118.689C212.569 118.689 214.109 115.151 215.988 111.551C219 105.733 224.586 105.539 225.907 110.417Z" fill="#FF5C8A"/>
<path opacity="0.2" d="M225.907 110.417C227.066 114.694 220.791 123.298 220.791 123.298L212.569 118.689C212.569 118.689 214.109 115.151 215.988 111.551C219 105.733 224.586 105.539 225.907 110.417Z" fill="black"/>
<path opacity="0.2" d="M215.832 120.53L219.069 122.346L219.639 112.408C217.754 113.855 216.426 118.213 215.832 120.53Z" fill="black"/>
<path d="M220.497 107.198C220.497 107.198 214.097 121.438 217.829 147.951H243.046C243.447 144.081 242.119 125.195 246.923 106.96C244.156 106.419 241.357 106.061 238.544 105.889C234.975 105.682 231.398 105.682 227.829 105.889C225.356 106.14 222.904 106.578 220.497 107.198V107.198Z" fill="#FF5C8A"/>
<path opacity="0.2" d="M220.497 107.198C220.497 107.198 214.097 121.438 217.829 147.951H243.046C243.447 144.081 242.119 125.195 246.923 106.96C244.156 106.419 241.357 106.061 238.544 105.889C234.975 105.682 231.398 105.682 227.829 105.889C225.356 106.14 222.904 106.578 220.497 107.198V107.198Z" fill="black"/>
<g style="mix-blend-mode:multiply">
<path d="M214.648 272.693C214.61 273.369 224.172 273.914 236.001 273.914C247.83 273.914 257.461 273.369 257.499 272.693C257.537 272.016 247.981 271.478 236.145 271.478C224.31 271.478 214.691 272.023 214.648 272.693Z" fill="#E8ECF1"/>
</g>
<path d="M231.481 254.922L227.008 256.653L230.861 266.606L235.334 264.874L231.481 254.922Z" fill="#E58A7B"/>
<path d="M251.425 267.876H246.71L244.981 256.961H249.697L251.425 267.876Z" fill="#E58A7B"/>
<path d="M246.384 267.332H251.682C251.774 267.332 251.863 267.365 251.933 267.425C252.003 267.484 252.049 267.567 252.064 267.657L252.746 271.847C252.761 271.952 252.752 272.059 252.722 272.16C252.691 272.262 252.639 272.356 252.569 272.435C252.499 272.515 252.412 272.579 252.316 272.622C252.219 272.665 252.114 272.687 252.008 272.686C250.16 272.655 249.271 272.542 246.942 272.542C245.508 272.542 242.558 272.692 240.567 272.692C238.575 272.692 238.444 270.738 239.264 270.557C242.946 269.761 244.374 268.678 245.601 267.626C245.818 267.436 246.096 267.331 246.384 267.332V267.332Z" fill="#263238"/>
<path d="M230.729 265.716L235.738 264.251C235.828 264.225 235.923 264.232 236.009 264.268C236.094 264.304 236.164 264.369 236.208 264.451L238.087 268.208C238.13 268.304 238.153 268.407 238.152 268.512C238.152 268.617 238.128 268.72 238.083 268.815C238.039 268.91 237.974 268.994 237.893 269.061C237.813 269.128 237.718 269.177 237.617 269.204C235.795 269.705 234.574 270.012 232.294 270.676C230.723 271.133 229.119 271.878 227.566 272.373C226.489 272.717 223.96 272.729 222.651 272.729C220.716 272.729 220.284 270.688 221.117 270.594C223.214 270.362 223.496 270.469 224.655 269.886C226.55 269.058 228.268 267.871 229.714 266.392C229.987 266.081 230.337 265.848 230.729 265.716V265.716Z" fill="#263238"/>
<path d="M194.303 131.376L189.118 129.203L186.982 134.951C189.108 135.275 191.27 135.275 193.395 134.951L194.303 131.376Z" fill="#E58A7B"/>
<path d="M185.26 129.053L185.122 132.873L186.982 134.939L189.117 129.191L185.26 129.053Z" fill="#E58A7B"/>
<path d="M232.094 255.767L227.607 257.499L229.594 262.646L234.081 260.914L232.094 255.767Z" fill="#CF6F64"/>
<path d="M249.697 256.961H244.981L245.877 262.591H250.592L249.697 256.961Z" fill="#CF6F64"/>
<path opacity="0.2" d="M217.027 140.782C217.121 141.915 217.228 143.074 217.366 144.264L236.114 138.177C239.042 137.309 241.587 135.469 243.328 132.96C243.403 131.289 243.497 129.529 243.641 127.694C243.704 126.805 243.779 125.891 243.86 124.964C243.942 124.037 244.054 123.01 244.173 122.021L217.027 140.782Z" fill="black"/>
<path d="M223.152 120.242L222.525 120.166C222.895 117.035 225.231 114.568 227.692 114.631V115.257C225.537 115.213 223.483 117.436 223.152 120.242Z" fill="white"/>
<path d="M226.489 126.022H226.383V125.396C228.537 125.477 230.56 123.229 230.892 120.43L231.518 120.505C231.186 123.567 228.925 126.022 226.489 126.022Z" fill="white"/>
<path d="M238.194 93.822C237.311 97.2724 236.271 103.591 238.544 105.889C238.544 105.889 236.954 109.39 230.547 109.39C224.692 109.39 227.83 105.889 227.83 105.889C231.725 104.975 231.794 102.132 231.28 99.4391L238.194 93.822Z" fill="#E58A7B"/>
<path d="M235.375 96.1138L231.286 99.4389C231.413 100.058 231.486 100.686 231.505 101.318C232.701 102.507 235.1 99.4953 235.344 97.9548C235.468 97.3483 235.479 96.7241 235.375 96.1138Z" fill="#CF6F64"/>
<path d="M224.254 93.7787C224.538 94.2718 224.921 94.701 225.379 95.0393C225.837 95.3777 226.36 95.6179 226.915 95.745C228.418 96.0769 229.169 94.6929 228.756 93.3027C228.387 92.0503 227.153 90.3658 225.625 90.6539C225.298 90.7213 224.991 90.8662 224.732 91.0763C224.472 91.2865 224.266 91.5559 224.132 91.8619C223.998 92.1679 223.939 92.5016 223.96 92.8351C223.981 93.1686 224.082 93.4921 224.254 93.7787V93.7787Z" fill="#CF6F64"/>
<path d="M226.74 82.7383C224.398 83.8091 223.571 93.1146 226.515 94.4922C229.458 95.8699 231.174 80.7031 226.74 82.7383Z" fill="#263238"/>
<path d="M238.907 88.6313C238.344 93.3028 238.281 96.0519 235.776 98.444C235 99.2378 234.02 99.8017 232.943 100.073C231.867 100.345 230.736 100.314 229.676 99.9835C228.616 99.6531 227.668 99.0362 226.937 98.201C226.206 97.3657 225.719 96.3446 225.532 95.2503C224.774 91.0547 225.82 84.1226 230.504 82.2628C231.488 81.8287 232.57 81.6657 233.639 81.7908C234.707 81.9159 235.722 82.3244 236.58 82.9741C237.437 83.6237 238.105 84.4909 238.514 85.4856C238.923 86.4803 239.059 87.5664 238.907 88.6313V88.6313Z" fill="#E58A7B"/>
<path d="M231.211 85.1555C234.68 84.2726 237.229 83.6714 236.315 86.5582C235.106 90.4157 233.653 94.1479 235.601 94.3169C236.791 94.4234 242.051 92.1941 241.381 89.9335C240.798 87.9672 243.259 87.4286 243.698 86.433C245.319 82.826 240.679 83.3019 241.506 81.1102C242.332 78.9185 237.749 75.3867 235.244 77.1463C231.167 79.9893 224.172 79.9455 227.848 75.2677C230.485 71.93 225.782 72.6126 225.782 72.6126C225.782 72.6126 228.625 74.2971 223.841 76.9021C218.781 79.6825 223.421 87.1531 231.211 85.1555Z" fill="#263238"/>
<path d="M240.748 93.7787C240.063 94.7697 239.034 95.4705 237.861 95.745C236.315 96.0769 235.72 94.6929 236.302 93.3027C236.822 92.0503 238.25 90.3658 239.727 90.6539C241.205 90.9419 241.543 92.5513 240.748 93.7787Z" fill="#E58A7B"/>
<path d="M217.83 147.952C217.83 147.952 213.596 185.837 213.265 200.215C212.926 215.169 227.611 261.828 227.611 261.828L235.125 258.697C235.125 258.697 226.359 216.064 227.611 201.38C228.939 185.368 234.424 147.977 234.424 147.977L217.83 147.952Z" fill="#FF5C8A"/>
<path opacity="0.2" d="M228.349 158.353C224.974 165.354 227.247 179.199 229.076 187.403C229.771 181.61 230.597 175.323 231.38 169.506C231.305 160.563 230.61 153.656 228.349 158.353Z" fill="black"/>
<path d="M234.793 256.217C234.831 256.217 235.682 258.609 235.682 258.609L227.016 262.253L225.65 259.711L234.793 256.217Z" fill="#FF5C8A"/>
<path d="M226.778 147.952C226.778 147.952 230.015 183.984 232.157 197.479C234.511 212.263 243.742 261.502 243.742 261.502H252.377C252.377 261.502 247.205 213.459 246.228 198.819C245.163 182.938 243.047 147.952 243.047 147.952H226.778Z" fill="#FF5C8A"/>
<path d="M252.508 259.254C252.546 259.254 252.796 261.665 252.796 261.665H243.303L242.626 258.897L252.508 259.254Z" fill="#FF5C8A"/>
<path opacity="0.2" d="M249.202 256.398C249.183 256.398 249.164 256.392 249.149 256.379C249.134 256.366 249.124 256.349 249.121 256.329C249.071 255.891 244.405 212.495 243.529 199.344C242.577 185.079 240.661 153.437 240.642 153.118C240.641 153.107 240.642 153.097 240.646 153.087C240.649 153.077 240.654 153.068 240.662 153.061C240.669 153.053 240.677 153.047 240.687 153.043C240.696 153.038 240.707 153.036 240.717 153.036V153.036C240.738 153.036 240.757 153.044 240.772 153.058C240.788 153.072 240.797 153.091 240.798 153.112C240.798 153.431 242.733 185.048 243.685 199.338C244.562 212.489 249.227 255.853 249.271 256.323C249.273 256.333 249.272 256.344 249.27 256.354C249.267 256.364 249.263 256.374 249.256 256.382C249.25 256.39 249.241 256.397 249.232 256.402C249.223 256.407 249.213 256.41 249.202 256.411V256.398Z" fill="black"/>
<path d="M231.743 89.9336C231.743 90.3156 231.506 90.6224 231.255 90.6224C231.005 90.6224 230.823 90.3156 230.848 89.9336C230.873 89.5516 231.086 89.2448 231.336 89.2448C231.587 89.2448 231.769 89.5579 231.743 89.9336Z" fill="#263238"/>
<path d="M227.447 89.9336C227.447 90.3156 227.203 90.6224 226.959 90.6224C226.714 90.6224 226.526 90.3156 226.545 89.9336C226.564 89.5516 226.789 89.2448 227.04 89.2448C227.29 89.2448 227.472 89.5579 227.447 89.9336Z" fill="#263238"/>
<path d="M228.8 90.1274C228.277 91.2939 227.603 92.3866 226.796 93.3775C227.422 94.0037 228.593 93.7156 228.593 93.7156L228.8 90.1274Z" fill="#DF5753"/>
<path d="M228.913 95.3123C228.898 95.3124 228.884 95.3094 228.871 95.3037C228.857 95.2979 228.845 95.2895 228.835 95.279C228.825 95.2684 228.818 95.2559 228.813 95.2423C228.808 95.2286 228.805 95.2141 228.806 95.1996C228.808 95.1692 228.821 95.1405 228.843 95.1195C228.865 95.0985 228.895 95.0869 228.925 95.0869C229.404 95.0902 229.878 94.9862 230.311 94.7825C230.745 94.5787 231.127 94.2805 231.43 93.9096C231.452 93.8907 231.48 93.8802 231.508 93.8802C231.537 93.8802 231.565 93.8907 231.587 93.9096C231.607 93.9306 231.618 93.9587 231.618 93.9879C231.618 94.0171 231.607 94.0452 231.587 94.0662C231.262 94.4603 230.854 94.7768 230.391 94.9925C229.928 95.2081 229.423 95.3174 228.913 95.3123V95.3123Z" fill="#263238"/>
<path d="M232.508 88.7814C232.477 88.7967 232.444 88.8048 232.41 88.8048C232.377 88.8048 232.343 88.7967 232.313 88.7814C232.079 88.6299 231.813 88.5357 231.535 88.5063C231.258 88.477 230.977 88.5133 230.717 88.6123C230.691 88.625 230.663 88.6325 230.635 88.6343C230.607 88.6361 230.578 88.6323 230.551 88.6229C230.525 88.6136 230.5 88.599 230.479 88.5799C230.458 88.5609 230.441 88.5378 230.428 88.5121C230.405 88.4564 230.405 88.3938 230.427 88.3376C230.449 88.2815 230.492 88.2362 230.547 88.2115C230.875 88.0778 231.23 88.0251 231.582 88.0578C231.934 88.0905 232.273 88.2076 232.57 88.3994C232.594 88.4157 232.615 88.4366 232.631 88.4609C232.646 88.4852 232.657 88.5125 232.662 88.541C232.668 88.5696 232.667 88.5989 232.661 88.6272C232.655 88.6556 232.643 88.6824 232.626 88.7062C232.595 88.7421 232.554 88.7682 232.508 88.7814V88.7814Z" fill="#263238"/>
<path d="M225.788 87.5291C225.755 87.521 225.724 87.5037 225.701 87.479C225.68 87.4586 225.663 87.4343 225.652 87.4074C225.641 87.3805 225.635 87.3516 225.635 87.3225C225.635 87.2933 225.641 87.2644 225.652 87.2376C225.663 87.2107 225.68 87.1863 225.701 87.1659C225.941 86.8967 226.239 86.6866 226.574 86.5519C226.909 86.4172 227.27 86.3616 227.629 86.3894C227.658 86.3939 227.686 86.4042 227.71 86.4197C227.735 86.4353 227.756 86.4557 227.773 86.4798C227.789 86.5038 227.8 86.531 227.806 86.5596C227.811 86.5883 227.811 86.6177 227.805 86.6462C227.791 86.7041 227.757 86.7552 227.709 86.7898C227.66 86.8244 227.601 86.8401 227.542 86.834V86.834C227.257 86.8161 226.972 86.8632 226.709 86.9717C226.445 87.0802 226.209 87.2472 226.02 87.4602C225.991 87.4919 225.955 87.5151 225.914 87.5273C225.873 87.5394 225.829 87.5401 225.788 87.5291V87.5291Z" fill="#263238"/>
<path d="M249.346 113.122L242.834 111.388C242.834 111.388 236.446 127.112 234.186 128.132C231.117 129.535 223.346 134.395 220.04 136.693C219.858 137.476 220.002 139.548 220.415 140.118C226.051 139.091 236.841 134.939 239.095 132.829C244.236 128.014 249.346 113.122 249.346 113.122Z" fill="#E58A7B"/>
<path d="M244.799 268.158C244.481 268.183 244.165 268.097 243.904 267.914C243.823 267.841 243.763 267.749 243.729 267.645C243.695 267.542 243.688 267.432 243.71 267.325C243.714 267.259 243.735 267.195 243.773 267.139C243.81 267.084 243.862 267.04 243.923 267.012C244.449 266.743 245.92 267.676 246.089 267.782C246.108 267.794 246.122 267.811 246.13 267.831C246.138 267.852 246.139 267.874 246.133 267.895C246.128 267.917 246.117 267.937 246.101 267.954C246.086 267.97 246.067 267.982 246.045 267.989C245.637 268.089 245.219 268.146 244.799 268.158ZM244.173 267.181C244.126 267.171 244.076 267.171 244.029 267.181C244.005 267.193 243.985 267.212 243.972 267.236C243.958 267.259 243.952 267.286 243.954 267.313C243.937 267.386 243.94 267.462 243.962 267.533C243.984 267.605 244.024 267.669 244.079 267.72C244.323 267.939 244.937 267.964 245.745 267.807C245.264 267.491 244.722 267.277 244.154 267.181H244.173Z" fill="#FF5C8A"/>
<path d="M246.015 267.989C245.999 267.994 245.981 267.994 245.965 267.989C245.495 267.726 244.612 266.693 244.744 266.167C244.763 266.083 244.81 266.009 244.877 265.956C244.944 265.902 245.027 265.873 245.113 265.872C245.197 265.861 245.283 265.868 245.364 265.893C245.445 265.918 245.519 265.96 245.583 266.017C246.103 266.461 246.134 267.826 246.134 267.895C246.137 267.916 246.133 267.937 246.123 267.955C246.113 267.973 246.097 267.987 246.077 267.995C246.056 268 246.035 267.997 246.015 267.989ZM245.176 266.079H245.132C244.988 266.079 244.969 266.161 244.963 266.192C244.888 266.499 245.445 267.281 245.908 267.651C245.906 267.122 245.742 266.606 245.439 266.173C245.366 266.11 245.272 266.076 245.176 266.079V266.079Z" fill="#FF5C8A"/>
<path d="M228.175 267.375C227.791 267.509 227.374 267.509 226.991 267.375C226.904 267.328 226.83 267.26 226.777 267.177C226.723 267.094 226.691 266.998 226.684 266.9C226.676 266.838 226.684 266.775 226.707 266.717C226.73 266.659 226.767 266.607 226.816 266.568C227.317 266.117 229.364 266.568 229.596 266.655C229.618 266.661 229.637 266.674 229.651 266.692C229.665 266.71 229.672 266.733 229.671 266.756C229.672 266.779 229.666 266.802 229.654 266.822C229.642 266.842 229.624 266.858 229.602 266.868C229.141 267.076 228.664 267.246 228.175 267.375V267.375ZM227.154 266.63C227.082 266.645 227.015 266.677 226.96 266.724C226.94 266.739 226.924 266.759 226.916 266.783C226.907 266.806 226.905 266.831 226.91 266.856C226.914 266.921 226.934 266.985 226.969 267.041C227.004 267.097 227.053 267.143 227.11 267.175C227.442 267.35 228.212 267.213 229.208 266.793C228.537 266.624 227.843 266.569 227.154 266.63V266.63Z" fill="#FF5C8A"/>
<path d="M229.583 266.869H229.533C228.907 266.756 227.654 266.036 227.617 265.497C227.617 265.372 227.673 265.197 227.974 265.097C228.075 265.06 228.183 265.045 228.291 265.052C228.398 265.058 228.503 265.086 228.6 265.134C229.276 265.466 229.633 266.668 229.652 266.725C229.656 266.744 229.656 266.763 229.65 266.782C229.645 266.801 229.635 266.818 229.621 266.831C229.611 266.847 229.598 266.859 229.583 266.869V266.869ZM228.099 265.284H228.036C227.842 265.353 227.842 265.435 227.842 265.46C227.842 265.785 228.75 266.38 229.383 266.581C229.237 266.078 228.929 265.637 228.506 265.328C228.38 265.264 228.235 265.249 228.099 265.284Z" fill="#FF5C8A"/>
<path d="M220.572 136.323L214.04 139.329L213.283 141.207L215.694 142.829C215.694 142.829 220.202 142.341 221.486 139.441L220.572 136.323Z" fill="#E58A7B"/>
<path d="M220.848 140.224C220.702 138.969 220.287 137.761 219.633 136.68L220.666 135.903C221.443 137.149 221.939 138.548 222.119 140.005L220.848 140.224Z" fill="#263238"/>
<path d="M221.962 137.212C222.1 137.429 222.168 137.684 222.156 137.941C222.145 138.198 222.054 138.445 221.897 138.649C221.74 138.853 221.524 139.003 221.278 139.08C221.032 139.157 220.769 139.156 220.524 139.077C220.279 138.999 220.064 138.847 219.908 138.642C219.752 138.437 219.664 138.189 219.654 137.932C219.644 137.675 219.714 137.421 219.853 137.205C219.993 136.989 220.196 136.821 220.434 136.724C220.702 136.587 221.012 136.562 221.299 136.654C221.585 136.745 221.823 136.946 221.962 137.212V137.212Z" fill="#263238"/>
<path d="M209.625 141.758L210.496 142.635L216.357 140.13L214.04 139.328L209.625 141.758Z" fill="#E58A7B"/>
<path opacity="0.2" d="M234.793 256.217C234.831 256.217 235.682 258.609 235.682 258.609L227.016 262.253L225.65 259.711L234.793 256.217Z" fill="black"/>
<path opacity="0.2" d="M252.508 259.254C252.546 259.254 252.796 261.665 252.796 261.665H243.303L242.626 258.897L252.508 259.254Z" fill="black"/>
<path d="M251.043 111.318C252.765 116.873 246.034 124.468 246.034 124.468L236.734 120.674C237.837 117.463 239.108 114.313 240.542 111.237C243.397 105.081 249.302 105.714 251.043 111.318Z" fill="#FF5C8A"/>
<path opacity="0.2" d="M251.043 111.318C252.765 116.873 246.034 124.468 246.034 124.468L236.734 120.674C237.837 117.463 239.108 114.313 240.542 111.237C243.397 105.081 249.302 105.714 251.043 111.318Z" fill="black"/>
<path d="M158.642 55.6666H154.64V56.3116H158.642V55.6666Z" fill="#FF5C8A"/>
<path d="M210.44 81.195L209.956 91.9424L210.6 91.9714L211.084 81.2241L210.44 81.195Z" fill="#FF5C8A"/>
<path d="M209.195 58.5601H135.303L128.427 212.432H202.319L209.195 58.5601Z" fill="#FF5C8A"/>
<path opacity="0.56" d="M206.99 60.6765H133.098L126.222 214.548H200.115L206.99 60.6765Z" fill="#FAFAFA"/>
<path opacity="0.07" d="M204.786 62.7867H130.894L124.012 216.659H197.904L204.786 62.7867Z" fill="#FF5C8A"/>
<path d="M196.376 129.897H133.305L132.779 141.67H195.85L196.376 129.897Z" fill="white"/>
<path d="M167.99 121.306H133.686L133.455 126.572H167.758L167.99 121.306Z" fill="#FF5C8A"/>
<path d="M194.955 161.671H131.883L131.357 173.443H194.429L194.955 161.671Z" fill="white"/>
<path opacity="0.47" d="M183.389 189.343H140.976L140.343 203.451H182.756L183.389 189.343Z" fill="#FF5C8A"/>
<path d="M180.552 205.644H138.139C138.121 205.648 138.101 205.648 138.083 205.644C138.077 205.625 138.077 205.606 138.083 205.587L138.709 191.473C138.709 191.463 138.711 191.453 138.715 191.445C138.719 191.436 138.724 191.428 138.731 191.422C138.738 191.415 138.747 191.41 138.756 191.407C138.765 191.404 138.775 191.403 138.784 191.404H181.197C181.205 191.4 181.214 191.398 181.222 191.398C181.231 191.398 181.239 191.4 181.247 191.404C181.252 191.411 181.254 191.42 181.254 191.429C181.254 191.438 181.252 191.446 181.247 191.454L180.634 205.6C180.626 205.615 180.614 205.627 180.6 205.634C180.585 205.642 180.569 205.645 180.552 205.644V205.644ZM138.214 205.493H180.477L181.103 191.529H138.84L138.214 205.493Z" fill="white"/>
<path d="M160.582 153.08H132.265L132.033 158.353H160.344L160.582 153.08Z" fill="#FF5C8A"/>
<path d="M182.581 91.8672C182.419 95.2935 181.201 98.5856 179.093 101.292C177.533 103.336 175.525 104.995 173.224 106.142C170.923 107.29 168.389 107.895 165.818 107.911C163.74 107.927 161.681 107.517 159.767 106.707C157.853 105.897 156.126 104.703 154.691 103.2C153.256 101.697 152.144 99.9163 151.423 97.9673C150.703 96.0182 150.389 93.9422 150.501 91.8672C150.721 87.5614 152.578 83.5024 155.691 80.5202C158.805 77.5381 162.94 75.8581 167.252 75.8238C169.331 75.8044 171.393 76.2116 173.309 77.0203C175.225 77.8291 176.954 79.0221 178.391 80.5257C179.828 82.0292 180.941 83.8115 181.661 85.7622C182.382 87.7129 182.695 89.7907 182.581 91.8672V91.8672Z" fill="white"/>
<path d="M184.091 79.1804C184.05 80.0914 183.726 80.967 183.164 81.6852C182.748 82.2281 182.214 82.6689 181.602 82.9738C180.989 83.2788 180.316 83.4399 179.632 83.4449C178.969 83.4489 178.316 83.2906 177.729 82.9839C177.141 82.6771 176.638 82.2313 176.263 81.6852C175.766 80.9473 175.52 80.069 175.562 79.1804C175.622 78.0372 176.117 76.9601 176.944 76.1689C177.771 75.3776 178.869 74.9317 180.014 74.9222C180.566 74.9171 181.114 75.0252 181.623 75.2398C182.131 75.4544 182.591 75.7709 182.973 76.1698C183.355 76.5688 183.651 77.0417 183.843 77.5595C184.036 78.0772 184.12 78.6289 184.091 79.1804V79.1804Z" fill="#FF5C8A"/>
<path d="M140.099 135.783C140.069 136.288 139.849 136.763 139.483 137.111C139.117 137.46 138.632 137.657 138.127 137.662C137.883 137.665 137.641 137.618 137.416 137.523C137.19 137.429 136.987 137.29 136.818 137.113C136.649 136.937 136.518 136.729 136.433 136.5C136.348 136.271 136.31 136.027 136.323 135.783C136.35 135.278 136.57 134.802 136.936 134.452C137.303 134.103 137.789 133.907 138.296 133.905C138.54 133.903 138.781 133.951 139.006 134.045C139.231 134.14 139.434 134.28 139.602 134.455C139.771 134.631 139.902 134.84 139.988 135.068C140.073 135.297 140.111 135.54 140.099 135.783V135.783Z" fill="#263238"/>
<path d="M148.541 135.784C148.512 136.289 148.292 136.764 147.926 137.113C147.56 137.462 147.074 137.658 146.568 137.662C146.325 137.664 146.083 137.616 145.859 137.522C145.635 137.427 145.432 137.287 145.264 137.111C145.095 136.935 144.965 136.727 144.88 136.498C144.795 136.27 144.758 136.027 144.771 135.784C144.798 135.279 145.017 134.804 145.382 134.455C145.747 134.106 146.232 133.909 146.737 133.905C146.981 133.902 147.223 133.949 147.449 134.044C147.674 134.138 147.877 134.277 148.046 134.454C148.215 134.63 148.346 134.838 148.431 135.067C148.516 135.296 148.554 135.54 148.541 135.784V135.784Z" fill="#263238"/>
<path d="M156.988 135.784C156.959 136.289 156.739 136.764 156.373 137.113C156.006 137.462 155.521 137.658 155.015 137.662C154.771 137.664 154.53 137.616 154.305 137.522C154.08 137.427 153.877 137.287 153.708 137.112C153.54 136.936 153.408 136.727 153.323 136.499C153.238 136.27 153.2 136.027 153.212 135.784C153.24 135.278 153.46 134.803 153.826 134.454C154.193 134.105 154.678 133.909 155.184 133.905C155.428 133.902 155.67 133.949 155.895 134.044C156.121 134.138 156.324 134.277 156.493 134.454C156.662 134.63 156.793 134.838 156.878 135.067C156.963 135.296 157.001 135.54 156.988 135.784V135.784Z" fill="#263238"/>
<path d="M138.677 167.558C138.647 168.062 138.427 168.537 138.061 168.885C137.695 169.234 137.21 169.431 136.705 169.436C136.461 169.438 136.219 169.39 135.994 169.296C135.77 169.201 135.567 169.062 135.398 168.886C135.229 168.71 135.098 168.501 135.012 168.273C134.927 168.045 134.889 167.801 134.901 167.558C134.93 167.053 135.15 166.577 135.516 166.228C135.882 165.879 136.368 165.683 136.874 165.679C137.117 165.677 137.359 165.725 137.584 165.819C137.808 165.914 138.011 166.054 138.18 166.23C138.349 166.405 138.48 166.614 138.566 166.842C138.651 167.071 138.689 167.314 138.677 167.558Z" fill="#263238"/>
<path d="M147.119 167.558C147.09 168.062 146.871 168.536 146.506 168.885C146.141 169.234 145.657 169.431 145.153 169.436C144.909 169.439 144.667 169.392 144.441 169.298C144.216 169.203 144.013 169.064 143.844 168.888C143.675 168.712 143.544 168.503 143.459 168.274C143.374 168.045 143.336 167.801 143.349 167.558C143.378 167.053 143.598 166.577 143.964 166.228C144.33 165.879 144.816 165.683 145.322 165.679C145.565 165.677 145.807 165.725 146.031 165.82C146.255 165.914 146.458 166.054 146.626 166.23C146.795 166.406 146.925 166.615 147.01 166.843C147.095 167.071 147.132 167.314 147.119 167.558V167.558Z" fill="#263238"/>
<path d="M155.585 167.558C155.556 168.063 155.336 168.538 154.97 168.887C154.603 169.236 154.118 169.432 153.612 169.436C153.368 169.437 153.127 169.389 152.903 169.294C152.679 169.199 152.476 169.059 152.307 168.884C152.139 168.708 152.008 168.5 151.922 168.272C151.836 168.044 151.797 167.801 151.808 167.558C151.839 167.053 152.059 166.579 152.425 166.23C152.791 165.881 153.276 165.685 153.781 165.679C154.025 165.676 154.267 165.723 154.492 165.818C154.717 165.912 154.921 166.052 155.09 166.228C155.259 166.404 155.39 166.613 155.475 166.841C155.56 167.07 155.597 167.314 155.585 167.558V167.558Z" fill="#263238"/>
<path d="M164.014 167.558C163.984 168.062 163.763 168.537 163.397 168.885C163.031 169.234 162.547 169.431 162.041 169.436C161.798 169.437 161.556 169.389 161.332 169.294C161.108 169.199 160.905 169.059 160.737 168.884C160.568 168.708 160.437 168.5 160.351 168.272C160.265 168.044 160.227 167.801 160.238 167.558C160.268 167.053 160.488 166.579 160.854 166.23C161.22 165.881 161.705 165.684 162.21 165.679C162.454 165.677 162.696 165.725 162.92 165.819C163.145 165.914 163.348 166.054 163.517 166.23C163.686 166.405 163.817 166.614 163.902 166.842C163.988 167.071 164.026 167.314 164.014 167.558V167.558Z" fill="#263238"/>
<path d="M172.493 167.558C172.463 168.062 172.243 168.537 171.876 168.885C171.51 169.234 171.026 169.431 170.52 169.436C170.276 169.439 170.034 169.392 169.809 169.298C169.584 169.203 169.381 169.064 169.212 168.888C169.043 168.712 168.911 168.503 168.826 168.274C168.741 168.045 168.704 167.801 168.717 167.558C168.745 167.053 168.965 166.577 169.332 166.228C169.698 165.879 170.183 165.683 170.689 165.679C170.933 165.677 171.175 165.725 171.4 165.819C171.624 165.914 171.827 166.054 171.996 166.23C172.165 166.405 172.296 166.614 172.381 166.842C172.467 167.071 172.505 167.314 172.493 167.558Z" fill="#263238"/>
<path d="M171.211 91.0326C173.832 88.4695 173.971 84.3611 171.522 81.8563C169.072 79.3515 164.962 79.3988 162.341 81.9619C159.72 84.525 159.581 88.6333 162.03 91.1381C164.48 93.6429 168.59 93.5957 171.211 91.0326Z" fill="#FF5C8A"/>
<path d="M179.093 101.292C177.532 103.336 175.525 104.995 173.223 106.143C170.922 107.29 168.388 107.895 165.817 107.911C163.324 107.932 160.863 107.339 158.653 106.185C156.442 105.031 154.55 103.35 153.143 101.292C156.186 98.2609 161.001 96.2821 166.337 96.2821C171.672 96.2821 176.319 98.2609 179.093 101.292Z" fill="#FF5C8A"/>
<path opacity="0.1" d="M171.211 91.0326C173.832 88.4695 173.971 84.3611 171.522 81.8563C169.072 79.3515 164.962 79.3988 162.341 81.9619C159.72 84.525 159.581 88.6333 162.03 91.1381C164.48 93.6429 168.59 93.5957 171.211 91.0326Z" fill="white"/>
<path opacity="0.1" d="M179.093 101.292C177.532 103.336 175.525 104.995 173.223 106.143C170.922 107.29 168.388 107.895 165.817 107.911C163.324 107.932 160.863 107.339 158.653 106.185C156.442 105.031 154.55 103.35 153.143 101.292C156.186 98.2609 161.001 96.2821 166.337 96.2821C171.672 96.2821 176.319 98.2609 179.093 101.292Z" fill="white"/>
<path d="M86.9574 144.507C86.3625 145.809 85.7363 147.243 85.1915 148.633C84.6467 150.023 84.0893 151.457 83.6071 152.885C82.6226 155.699 81.8728 158.589 81.3653 161.527L81.2276 162.447C81.2144 162.605 81.2293 162.764 81.2714 162.917C81.4192 163.436 81.6519 163.927 81.9602 164.37C82.7644 165.516 83.6973 166.567 84.7406 167.501C85.8406 168.524 86.9944 169.488 88.1973 170.388C89.3996 171.314 90.6645 172.216 91.9107 173.068L90.7397 175.266C87.764 173.969 84.9397 172.35 82.3172 170.438C80.918 169.417 79.6554 168.222 78.5599 166.881C77.9106 166.083 77.4042 165.178 77.0633 164.207C76.865 163.6 76.7636 162.966 76.7627 162.328C76.7627 162.178 76.7627 161.959 76.7627 161.852V161.546L76.8253 160.919C77.1843 157.657 77.8703 154.439 78.873 151.313C79.3615 149.773 79.8812 148.239 80.4761 146.742C81.071 145.245 81.6847 143.78 82.4424 142.258L86.9574 144.507Z" fill="#E58A7B"/>
<path d="M91.028 172.679L95.4553 170.438L94.3094 175.297C94.3094 175.297 91.2722 176.149 89.8633 174.671L91.028 172.679Z" fill="#E58A7B"/>
<path d="M99.5071 171.233L98.3298 175.253L94.3096 175.297L95.4555 170.438L99.5071 171.233Z" fill="#E58A7B"/>
<path d="M105.756 121.061C105.993 121.929 106.323 122.769 106.739 123.566C106.618 123.704 106.461 123.807 106.285 123.863C106.11 123.919 105.923 123.927 105.744 123.886L105.756 121.061Z" fill="#DF5753"/>
<path d="M105.625 121.099C105.884 121.099 106.095 120.777 106.095 120.379C106.095 119.981 105.884 119.659 105.625 119.659C105.366 119.659 105.155 119.981 105.155 120.379C105.155 120.777 105.366 121.099 105.625 121.099Z" fill="#263238"/>
<path d="M105.487 119.684L106.439 119.414C106.439 119.414 105.976 120.153 105.487 119.684Z" fill="#263238"/>
<path d="M93.5267 125.658C94.0966 128.569 94.6664 133.911 92.625 135.859C92.625 135.859 93.4265 138.814 98.8432 138.814C104.798 138.814 101.686 135.859 101.686 135.859C98.4362 135.082 98.5176 132.671 99.0875 130.404L93.5267 125.658Z" fill="#E58A7B"/>
<path d="M91.942 119.02C92.2426 123.886 92.2677 125.952 94.7224 128.451C98.4233 132.208 104.335 130.78 105.493 125.946C106.539 121.562 105.875 114.349 101.11 112.414C100.064 111.983 98.925 111.826 97.8014 111.958C96.6778 112.089 95.6064 112.506 94.6886 113.167C93.7707 113.829 93.0368 114.713 92.5562 115.737C92.0756 116.762 91.8642 117.891 91.942 119.02V119.02Z" fill="#E58A7B"/>
<path d="M92.4243 113.547C89.9821 114.436 86.7258 113.772 88.0033 121.306C89.3559 129.283 87.2769 131.907 87.2769 131.907C87.2769 131.907 96.5385 133.88 105.994 131.788C105.994 131.788 103.107 126.741 103.915 123.021C104.948 118.325 104.134 116.59 104.134 116.59C104.134 116.59 95.8559 112.294 92.4243 113.547Z" fill="#263238"/>
<path d="M102.757 121.556C102.759 122.481 103.024 123.387 103.521 124.168C104.185 125.182 104.967 124.794 105.161 123.717C105.337 122.771 105.205 121.099 104.36 120.448C103.515 119.797 102.769 120.435 102.757 121.556Z" fill="#E58A7B"/>
<path d="M90.3019 114.367C89.6005 112.395 92.9445 109.358 100.021 110.61C107.097 111.862 107.404 117.755 107.404 117.755L105.976 116.052L106.038 117.843L98.7682 119.239L90.3019 114.367Z" fill="#263238"/>
<path d="M90.9028 136.191C90.861 135.905 90.9325 135.614 91.1021 135.38C91.2717 135.146 91.526 134.988 91.8108 134.938C94.015 134.575 99.0247 133.836 101.542 134.187C103.421 134.45 103.909 135.54 103.99 136.435C104.003 136.592 103.982 136.75 103.929 136.898C103.876 137.046 103.791 137.181 103.682 137.293C103.572 137.406 103.439 137.494 103.293 137.551C103.146 137.608 102.989 137.633 102.832 137.625L91.9485 137.136C91.6919 137.123 91.4477 137.022 91.2572 136.85C91.0666 136.678 90.9414 136.445 90.9028 136.191V136.191Z" fill="#FF5C8A"/>
<path opacity="0.6" d="M90.9028 136.191C90.861 135.905 90.9325 135.614 91.1021 135.38C91.2717 135.146 91.526 134.988 91.8108 134.938C94.015 134.575 99.0247 133.836 101.542 134.187C103.421 134.45 103.909 135.54 103.99 136.435C104.003 136.592 103.982 136.75 103.929 136.898C103.876 137.046 103.791 137.181 103.682 137.293C103.572 137.406 103.439 137.494 103.293 137.551C103.146 137.608 102.989 137.633 102.832 137.625L91.9485 137.136C91.6919 137.123 91.4477 137.022 91.2572 136.85C91.0666 136.678 90.9414 136.445 90.9028 136.191V136.191Z" fill="black"/>
<path d="M97.1968 245.589L101.236 248.395L107.993 239.233L103.954 236.434L97.1968 245.589Z" fill="#E58A7B"/>
<path d="M87.7783 245.407L92.0428 247.837L98.0231 238.15L93.7586 235.72L87.7783 245.407Z" fill="#E58A7B"/>
<path d="M107.986 239.233L104.504 243.955L100.465 241.156L103.947 236.434L107.986 239.233Z" fill="#CF6F64"/>
<path d="M93.7518 235.72L98.0226 238.156L94.9416 243.147L90.6709 240.711L93.7518 235.72Z" fill="#CF6F64"/>
<path d="M100.603 166.774C100.603 166.774 116.371 186.644 113.409 205.649C111.023 220.997 97.1836 241.781 97.1836 241.781L90.6773 238.55C95.2633 229.361 99.177 219.851 102.387 210.095C103.377 207.066 103.666 203.852 103.232 200.696C102.799 197.539 101.653 194.522 99.8826 191.873C91.8921 180.206 79.0925 187.151 87.7028 166.774H100.603Z" fill="#FF5C8A"/>
<path d="M100.603 166.774C100.603 166.774 116.371 186.644 113.409 205.649C111.023 220.997 97.1836 241.781 97.1836 241.781L90.6773 238.55C95.2633 229.361 99.177 219.851 102.387 210.095C103.377 207.066 103.666 203.852 103.232 200.696C102.799 197.539 101.653 194.522 99.8826 191.873C91.8921 180.206 79.0925 187.151 87.7028 166.774H100.603Z" fill="#1C2D5E"/>
<path opacity="0.4" d="M108.337 179.537L106.045 177.257C106.045 177.439 110.485 204.848 111.731 212.55C112.466 210.3 113.029 207.997 113.415 205.662C114.881 196.338 111.819 186.813 108.337 179.537Z" fill="black"/>
<path d="M107.642 166.774C107.642 166.774 126.628 191.747 127.167 206.72C127.611 219.244 106.502 243.51 106.502 243.51L100.365 239.54C100.365 239.54 112.72 222.306 115.832 208.229C114.63 194.277 89.2061 166.774 89.2061 166.774H107.642Z" fill="#FF5C8A"/>
<path d="M107.642 166.774C107.642 166.774 126.628 191.747 127.167 206.72C127.611 219.244 106.502 243.51 106.502 243.51L100.365 239.54C100.365 239.54 112.72 222.306 115.832 208.229C114.63 194.277 89.2061 166.774 89.2061 166.774H107.642Z" fill="#1C2D5E"/>
<path d="M84.1527 136.973C82.1238 137.455 80.1763 144.832 80.1763 144.832L88.1103 150.13C88.1103 150.13 90.7529 144.293 89.8261 141.738C88.868 139.077 86.7014 136.366 84.1527 136.973Z" fill="#FF5C8A"/>
<path opacity="0.2" d="M85.7054 141.726L85.1543 148.157L88.1037 150.136C88.9181 148.303 89.5211 146.383 89.901 144.413L85.7054 141.726Z" fill="black"/>
<path d="M109.99 137.117C109.99 137.117 112.332 137.938 107.641 166.768H87.6904C88.0286 158.627 88.0348 153.618 84.1523 136.973C86.9459 136.397 89.7775 136.025 92.6249 135.859C95.6415 135.642 98.6696 135.642 101.686 135.859C105.581 136.215 109.99 137.117 109.99 137.117Z" fill="#FF5C8A"/>
<path d="M112.019 141.726C112.469 142.979 112.945 144.325 113.446 145.621C113.947 146.917 114.423 148.251 114.93 149.566L116.465 153.499L116.853 154.482L117.053 154.97L117.147 155.215C117.147 155.258 117.147 155.258 117.147 155.252C117.033 155.091 116.883 154.958 116.709 154.864C116.461 154.718 116.182 154.634 115.895 154.62C115.656 154.612 115.419 154.657 115.2 154.751C114.912 154.883 114.912 154.939 114.918 154.933C114.97 154.891 115.016 154.843 115.056 154.789C115.402 154.334 115.702 153.845 115.951 153.33C116.246 152.754 116.527 152.14 116.809 151.52C117.36 150.268 117.867 148.971 118.375 147.663C118.882 146.354 119.364 145.033 119.834 143.699L121.261 139.703L123.672 140.33C123.196 143.185 122.583 145.966 121.844 148.796C121.487 150.205 121.067 151.601 120.591 153.01C120.353 153.718 120.09 154.419 119.79 155.14C119.477 155.921 119.091 156.672 118.638 157.381C118.471 157.62 118.287 157.846 118.087 158.058C117.767 158.403 117.379 158.678 116.947 158.865C116.564 159.03 116.149 159.107 115.732 159.091C115.265 159.073 114.811 158.938 114.411 158.696C113.939 158.402 113.547 157.995 113.271 157.513C113.177 157.35 113.096 157.187 113.039 157.068L112.92 156.83L112.682 156.342L112.206 155.371C111.58 154.069 110.954 152.754 110.409 151.432C109.864 150.111 109.288 148.771 108.75 147.425C108.211 146.078 107.729 144.732 107.272 143.279L112.019 141.726Z" fill="#E58A7B"/>
<path d="M109.989 137.118C112.388 137.688 115.087 144.776 115.087 144.776L107.954 150.844C107.954 150.844 103.339 143.117 104.272 140.568C105.243 137.913 106.858 136.373 109.989 137.118Z" fill="#FF5C8A"/>
<path d="M122.395 137.462L124.9 135.37L126.641 138.081L125.357 140.342C125.357 140.342 123.315 142.221 121.512 141.263C121.226 140.619 121.157 139.9 121.316 139.214C121.476 138.528 121.854 137.913 122.395 137.462V137.462Z" fill="#E58A7B"/>
<path d="M129.421 135.376L129.233 136.059L125.269 136.723L124.881 135.37L129.421 135.376Z" fill="#E58A7B"/>
<path d="M106.99 243.829L99.8389 239.208L101.123 236.979L109.157 241.919L106.99 243.829Z" fill="#FF5C8A"/>
<path d="M94.8416 247.512C94.2141 247.435 93.6112 247.222 93.0757 246.886C93.0536 246.878 93.0344 246.864 93.0208 246.845C93.0073 246.826 93 246.803 93 246.779C93 246.756 93.0073 246.733 93.0208 246.714C93.0344 246.695 93.0536 246.681 93.0757 246.673C93.2698 246.61 94.9543 246.09 95.4427 246.491C95.4976 246.537 95.5394 246.596 95.5636 246.664C95.5878 246.731 95.5936 246.803 95.5805 246.873C95.5718 246.986 95.5344 247.095 95.472 247.189C95.4095 247.283 95.324 247.36 95.2236 247.412C95.1063 247.476 94.9752 247.51 94.8416 247.512V247.512ZM93.4326 246.823C94.2154 247.224 94.8416 247.368 95.1422 247.218C95.2076 247.181 95.2627 247.129 95.3021 247.065C95.3416 247.002 95.3641 246.929 95.3676 246.854C95.3676 246.754 95.3676 246.71 95.3112 246.685C95.0482 246.472 94.1089 246.635 93.4201 246.823H93.4326Z" fill="#263238"/>
<path d="M93.1194 246.93C93.0864 246.929 93.0549 246.916 93.0318 246.892C93.0225 246.875 93.0176 246.855 93.0176 246.836C93.0176 246.816 93.0225 246.797 93.0318 246.779C93.0318 246.723 93.4388 245.364 94.0775 245.057C94.1591 245.02 94.2478 245.001 94.3374 245.001C94.4271 245.001 94.5157 245.02 94.5973 245.057C94.6852 245.085 94.7614 245.141 94.8136 245.217C94.8658 245.293 94.891 245.385 94.8854 245.477C94.8415 246.04 93.6956 246.817 93.1695 246.948L93.1194 246.93ZM94.3343 245.22C94.2734 245.222 94.2136 245.237 94.159 245.264C93.7707 245.452 93.4513 246.184 93.2948 246.629C93.8458 246.397 94.6036 245.784 94.6286 245.439C94.6286 245.383 94.6286 245.314 94.4846 245.251C94.4377 245.226 94.3869 245.209 94.3343 245.201V245.22Z" fill="#263238"/>
<path d="M103.778 250.217C103.07 250.217 102.087 249.309 101.549 248.752C101.535 248.733 101.527 248.71 101.527 248.686C101.527 248.662 101.535 248.639 101.549 248.62C101.561 248.6 101.578 248.584 101.599 248.572C101.62 248.561 101.644 248.556 101.667 248.558C101.918 248.558 104.091 248.883 104.398 249.497C104.43 249.552 104.447 249.615 104.447 249.678C104.447 249.742 104.43 249.805 104.398 249.86C104.352 249.956 104.282 250.038 104.196 250.099C104.109 250.161 104.008 250.199 103.903 250.211L103.778 250.217ZM101.962 248.839C102.751 249.603 103.446 250.029 103.84 249.979C103.91 249.97 103.975 249.944 104.032 249.904C104.089 249.863 104.135 249.81 104.166 249.747C104.18 249.726 104.188 249.701 104.188 249.675C104.188 249.65 104.18 249.625 104.166 249.603C104.003 249.265 102.845 248.977 101.962 248.839Z" fill="#263238"/>
<path d="M102.031 248.808C101.89 248.812 101.75 248.801 101.611 248.777C101.592 248.774 101.574 248.766 101.558 248.754C101.543 248.742 101.531 248.726 101.524 248.708C101.514 248.689 101.509 248.669 101.509 248.648C101.509 248.628 101.514 248.607 101.524 248.589C101.561 248.545 102.406 247.524 103.208 247.455C103.435 247.438 103.66 247.51 103.834 247.656C104.078 247.869 104.066 248.056 104.003 248.175C103.847 248.601 102.763 248.808 102.031 248.808ZM101.868 248.576C102.569 248.614 103.69 248.382 103.834 248.075C103.834 248.075 103.884 247.975 103.721 247.837C103.657 247.781 103.581 247.738 103.499 247.713C103.417 247.687 103.331 247.678 103.246 247.687C102.706 247.838 102.225 248.15 101.868 248.582V248.576Z" fill="#263238"/>
<path d="M93.2889 246.253L87.9787 244.75C87.8872 244.723 87.7886 244.73 87.7019 244.77C87.6153 244.811 87.5466 244.882 87.509 244.969L85.7181 248.996C85.676 249.099 85.6563 249.21 85.6601 249.321C85.664 249.433 85.6914 249.542 85.7405 249.642C85.7896 249.742 85.8593 249.83 85.945 249.901C86.0307 249.972 86.1305 250.025 86.2378 250.054C88.1165 250.543 89.0182 250.681 91.354 251.351C92.7942 251.751 94.8482 252.497 96.8333 253.06C98.8184 253.624 99.4821 251.689 98.7119 251.275C95.2302 249.434 94.9547 248.144 94.0028 246.767C93.8323 246.517 93.5797 246.335 93.2889 246.253V246.253Z" fill="#FF5C8A"/>
<path d="M101.693 248.019L97.1594 244.888C97.0825 244.832 96.9877 244.806 96.8931 244.815C96.7984 244.824 96.7105 244.868 96.6459 244.938L93.6401 248.169C93.5668 248.253 93.5122 248.351 93.4798 248.457C93.4474 248.563 93.438 248.675 93.4522 248.785C93.4665 248.895 93.504 249.001 93.5623 249.096C93.6206 249.19 93.6983 249.272 93.7904 249.334C95.3872 250.405 96.2138 250.837 98.2114 252.221C99.4638 253.072 101.887 254.963 103.578 256.141C105.269 257.318 106.527 255.702 105.926 255.064C103.234 252.189 102.645 250.386 102.2 248.751C102.123 248.455 101.943 248.195 101.693 248.019Z" fill="#FF5C8A"/>
<path d="M98.0163 242.195L89.8442 238.131L90.6896 235.914L99.419 240.197L98.0163 242.195Z" fill="#FF5C8A"/>
<path d="M87.3898 165.597L86.701 167.401C86.6321 167.539 86.7949 167.683 87.0266 167.683H107.742C107.923 167.683 108.073 167.595 108.086 167.482L108.261 165.691C108.261 165.572 108.117 165.466 107.923 165.466H87.7155C87.6546 165.46 87.5933 165.469 87.5366 165.492C87.48 165.515 87.4296 165.551 87.3898 165.597V165.597Z" fill="#FF5C8A"/>
<path opacity="0.4" d="M87.3898 165.597L86.701 167.401C86.6321 167.539 86.7949 167.683 87.0266 167.683H107.742C107.923 167.683 108.073 167.595 108.086 167.482L108.261 165.691C108.261 165.572 108.117 165.466 107.923 165.466H87.7155C87.6546 165.46 87.5933 165.469 87.5366 165.492C87.48 165.515 87.4296 165.551 87.3898 165.597V165.597Z" fill="white"/>
<path d="M90.6525 167.858H90.1077C90.0013 167.858 89.9199 167.801 89.9261 167.733L90.1829 165.409C90.1829 165.347 90.2831 165.29 90.3895 165.29H90.9343C91.0408 165.29 91.1222 165.347 91.1159 165.409L90.8592 167.733C90.8529 167.801 90.759 167.858 90.6525 167.858Z" fill="#FF5C8A"/>
<path d="M103.427 167.858H102.888C102.782 167.858 102.701 167.801 102.707 167.733L102.957 165.409C102.957 165.347 103.064 165.29 103.17 165.29H103.709C103.815 165.29 103.903 165.347 103.89 165.409L103.64 167.733C103.609 167.801 103.54 167.858 103.427 167.858Z" fill="#FF5C8A"/>
<g style="mix-blend-mode:multiply">
<path d="M90.1765 273.906C99.4417 273.906 106.953 273.362 106.953 272.691C106.953 272.02 99.4417 271.477 90.1765 271.477C80.9113 271.477 73.4004 272.02 73.4004 272.691C73.4004 273.362 80.9113 273.906 90.1765 273.906Z" fill="#F5F5F5"/>
</g>
<path d="M100.396 270.976C97.4277 270.111 94.1339 269.003 92.1425 267.845C92.0862 267.807 92.0236 267.788 91.9672 267.757V254.318H97.9725C98.4284 254.291 98.8567 254.091 99.17 253.759C99.4832 253.427 99.6576 252.987 99.6576 252.531C99.6576 252.074 99.4832 251.635 99.17 251.302C98.8567 250.97 98.4284 250.77 97.9725 250.743H91.9985V189.487H88.3916V250.743H82.4238C82.1801 250.728 81.9361 250.764 81.7066 250.847C81.4772 250.931 81.2672 251.06 81.0895 251.227C80.9119 251.395 80.7704 251.597 80.6736 251.821C80.5769 252.045 80.527 252.287 80.527 252.531C80.527 252.775 80.5769 253.016 80.6736 253.24C80.7704 253.465 80.9119 253.667 81.0895 253.834C81.2672 254.001 81.4772 254.131 81.7066 254.214C81.9361 254.297 82.1801 254.333 82.4238 254.318H88.3916V267.738C88.3352 267.738 88.2788 267.788 88.2225 267.826C86.1998 269.003 82.931 270.111 79.9628 270.957C79.7623 271.017 79.5901 271.148 79.4775 271.324C79.3648 271.501 79.3191 271.712 79.3486 271.92C79.3781 272.127 79.4809 272.317 79.6384 272.455C79.7958 272.593 79.9976 272.67 80.207 272.673H100.152C100.352 272.659 100.541 272.577 100.688 272.441C100.835 272.304 100.931 272.121 100.96 271.923C100.988 271.724 100.948 271.522 100.845 271.349C100.743 271.177 100.584 271.045 100.396 270.976Z" fill="#E0E0E0"/>
<path d="M101.317 183.25H79.0489C77.2575 183.25 75.8052 184.702 75.8052 186.494V193.113C75.8052 194.904 77.2575 196.356 79.0489 196.356H101.317C103.108 196.356 104.561 194.904 104.561 193.113V186.494C104.561 184.702 103.108 183.25 101.317 183.25Z" fill="#FF5C8A"/>
<path d="M78.8423 196.363V197.503C78.8423 198.442 79.863 199.206 81.1154 199.206H99.2754C100.528 199.206 101.549 198.442 101.549 197.503V196.363H78.8423Z" fill="#FF5C8A"/>
<path opacity="0.3" d="M78.8423 196.363V197.503C78.8423 198.442 79.863 199.206 81.1154 199.206H99.2754C100.528 199.206 101.549 198.442 101.549 197.503V196.363H78.8423Z" fill="white"/>
</svg>
