<svg width="329" height="329" viewBox="0 0 329 329" fill="none" xmlns="http://www.w3.org/2000/svg">
<rect width="328" height="328" transform="translate(0.5 0.676514)" fill="white"/>
<path d="M166.659 107.035C166.337 113.471 174.833 120.133 179.62 120.221C180.68 120.28 181.738 120.069 182.694 119.607C183.65 119.145 184.473 118.448 185.086 117.581C185.698 116.714 186.081 115.706 186.197 114.651C186.314 113.596 186.16 112.528 185.751 111.548C181.873 115.676 174.946 111.194 172.178 107.212C169.411 103.23 166.949 101.379 166.659 107.035Z" fill="#263238"/>
<path d="M186.741 117.47C181.559 118.564 177.722 112.844 176.185 108.958L179.154 120.221C183.289 121.742 186.145 121.565 186.741 117.47Z" fill="#263238"/>
<path d="M152.081 229.896C152.492 227.351 153.777 225.03 155.716 223.331C157.654 221.631 160.124 220.661 162.701 220.588H172.026L179.709 165.726C180.058 163.509 181.168 161.482 182.849 159.994C184.531 158.507 186.678 157.652 188.921 157.576H229.43C230.453 157.548 231.47 157.748 232.407 158.163C233.343 158.577 234.175 159.196 234.842 159.973C235.509 160.75 235.994 161.666 236.261 162.654C236.529 163.643 236.573 164.679 236.389 165.686L229.341 216.219C228.255 223.991 221.07 230.282 213.307 230.282H152.025L152.081 229.896Z" fill="#1C2D5E"/>
<path d="M206.314 281.057H214.432L213.169 230.282H207.57L206.314 281.057Z" fill="#E0E0E0"/>
<path opacity="0.3" d="M207.514 232.656L213.258 233.991L213.17 230.282H207.57L207.514 232.656Z" fill="#263238"/>
<path d="M188.028 281.057H196.146L194.883 230.282H189.283L188.028 281.057Z" fill="#E0E0E0"/>
<path opacity="0.3" d="M189.227 232.656L194.971 233.991L194.882 230.282H189.283L189.227 232.656Z" fill="#263238"/>
<path d="M174.705 281.057H182.83L181.567 230.282H175.968L174.705 281.057Z" fill="#E0E0E0"/>
<path opacity="0.3" d="M175.911 232.656L181.656 233.991L181.567 230.282H175.967L175.911 232.656Z" fill="#263238"/>
<path d="M156.417 281.057H164.543L163.28 230.282H157.68L156.417 281.057Z" fill="#E0E0E0"/>
<path opacity="0.3" d="M157.624 232.656L163.368 233.991L163.28 230.282H157.68L157.624 232.656Z" fill="#263238"/>
<path d="M160.874 119.964C153.159 120.423 152.249 111.227 154.8 107.646C157.411 110.038 160.334 112.065 163.489 113.672C161.566 121.509 160.874 119.964 160.874 119.964Z" fill="#263238"/>
<path d="M177.818 156.329C177.167 157.81 176.491 159.853 175.67 162.251C175.26 163.457 174.769 164.745 174.174 166.137C173.53 167.671 172.744 169.142 171.824 170.529C170.72 172.199 169.363 173.686 167.802 174.938C166.149 176.236 164.277 177.228 162.275 177.867C160.489 178.428 158.634 178.74 156.764 178.792C155.148 178.815 153.534 178.707 151.936 178.47L151.534 178.414C150.612 178.284 149.728 177.961 148.94 177.464C148.152 176.968 147.479 176.31 146.964 175.534C146.43 174.721 146.005 173.842 145.701 172.919C145.467 172.192 145.297 171.447 145.194 170.69C145.036 169.519 145.012 168.335 145.122 167.158C145.3 165.325 145.647 163.513 146.16 161.744C147.067 158.695 148.213 155.722 149.587 152.854C150.898 150.086 152.314 147.431 153.835 144.808C155.356 142.185 156.932 139.74 158.735 137.262C159.27 136.526 160.049 136.005 160.934 135.792C161.819 135.58 162.75 135.69 163.561 136.103C164.372 136.517 165.008 137.205 165.357 138.046C165.705 138.886 165.742 139.824 165.461 140.689V140.802C164.592 143.449 163.658 146.176 162.806 148.847C161.953 151.518 161.108 154.197 160.392 156.844C159.668 159.357 159.098 161.912 158.686 164.495C158.518 165.538 158.45 166.594 158.485 167.649C158.491 167.923 158.54 168.195 158.63 168.454C158.63 168.502 158.63 168.454 158.63 168.325C158.568 168.081 158.465 167.85 158.324 167.641L153.36 164.729C154.186 164.75 155.013 164.702 155.83 164.584C156.386 164.491 156.927 164.326 157.439 164.093C157.749 163.944 158.023 163.73 158.244 163.465C158.561 163.136 158.831 162.765 159.048 162.363C159.408 161.674 159.728 160.965 160.006 160.239C160.352 159.378 160.674 158.365 161.052 157.262C161.859 154.604 162.881 152.015 164.109 149.523C165.027 147.77 166.589 146.442 168.467 145.818C170.344 145.194 172.391 145.322 174.176 146.175C175.961 147.029 177.345 148.541 178.038 150.394C178.731 152.247 178.678 154.297 177.891 156.112L177.818 156.329Z" fill="#FF8B7B"/>
<path d="M154.527 131.292L154.728 132.048C155.437 134.734 156.822 137.194 158.751 139.192L159.426 139.9C159.991 140.456 160.692 140.854 161.458 141.056C162.224 141.257 163.03 141.256 163.795 141.051C166.514 140.399 168.405 137.833 167.898 135.548C167.502 134 166.835 132.534 165.927 131.219L164.318 127.623C163.984 127.008 163.435 126.538 162.776 126.302C162.117 126.066 161.394 126.081 160.746 126.344L156.964 127.559C155.227 128.114 154.132 129.795 154.527 131.292Z" fill="#FF8B7B"/>
<path opacity="0.2" d="M167.906 135.548C167.51 134 166.843 132.534 165.935 131.219L164.326 127.623C163.992 127.008 163.443 126.538 162.784 126.302C162.125 126.066 161.403 126.081 160.754 126.344L159.145 126.843C160.061 129.777 161.462 132.537 163.288 135.009C164.373 136.439 165.808 137.564 167.456 138.275C167.928 137.45 168.088 136.482 167.906 135.548Z" fill="black"/>
<path d="M145.307 260.951C146.554 260.066 154.076 259.527 154.076 259.527C155.413 265.159 156.413 270.865 157.069 276.616L147.543 275.449C147.543 275.449 146.972 265.948 145.307 260.951Z" fill="#FF8B7B"/>
<path d="M156.779 260.018C154.735 244.941 158.501 230.403 156.417 221.046C166.916 222.905 188.598 226.734 192.227 211.931C193.627 206.178 199.685 199.179 199.194 195.977C190.063 195.977 160.23 195.639 149.361 197.715C131.597 201.102 132.393 213.339 137.164 233.991C139.023 242.037 140.004 243.453 142.337 253.96C143.592 259.592 143.327 263.116 144.952 266.792C149.023 269.656 154.244 268.329 156.763 267.042C158.83 265.079 157.189 263.108 156.779 260.018Z" fill="#FF5C8A"/>
<path opacity="0.5" d="M156.779 260.018C154.735 244.941 158.501 230.403 156.417 221.046C166.916 222.905 188.598 226.734 192.227 211.931C193.627 206.178 199.685 199.179 199.194 195.977C190.063 195.977 160.23 195.639 149.361 197.715C131.597 201.102 132.393 213.339 137.164 233.991C139.023 242.037 140.004 243.453 142.337 253.96C143.592 259.592 143.327 263.116 144.952 266.792C149.023 269.656 154.244 268.329 156.763 267.042C158.83 265.079 157.189 263.108 156.779 260.018Z" fill="#263238"/>
<path d="M179.009 261.836C179.87 260.469 186.515 256.856 186.515 256.856C189.445 261.788 192.072 266.893 194.384 272.142L185.413 274.95C185.413 274.95 182.026 265.988 179.009 261.836Z" fill="#FF8B7B"/>
<path d="M175.244 140.287C187.424 142.121 179.564 165.099 175.244 172.372C168.582 168.679 159.756 166.571 158.509 161.156C161.727 155.01 159.957 137.994 175.244 140.287Z" fill="#1C2D5E"/>
<path d="M200.707 130.552C191.576 131.469 175.067 136.103 167.078 141.308C163.135 143.883 161.51 148.951 162.347 154.181C165.396 173.329 167.448 183.571 166.892 196.54C170.915 201.971 208.728 206.331 218.182 198.149C219.485 190.908 221.464 172.5 217.884 144.543C216.621 134.671 209.091 129.715 200.707 130.552Z" fill="#FF5C8A"/>
<path opacity="0.2" d="M217.884 144.551C217.884 144.285 217.812 144.028 217.763 143.746C199.637 145.806 194.311 179.395 219.324 189.162C220.161 179.548 220.434 164.479 217.884 144.551Z" fill="black"/>
<path d="M180.875 117.406C182.106 124.502 185.703 131.018 190.812 133.142C190.812 133.142 186.29 141.992 175.525 149.804C170.4 145.154 170.988 140.641 170.988 140.641C172.862 138.122 174.117 135.403 171.583 132.643L180.875 117.406Z" fill="#FF8B7B"/>
<path opacity="0.2" d="M178.462 125.741L172.21 133.416C172.679 134.091 172.957 134.879 173.017 135.699C173.076 136.518 172.914 137.339 172.548 138.074C174.536 137.109 177.689 135.13 178.816 132.676C180.674 128.573 179.612 125.443 178.462 125.741Z" fill="black"/>
<path d="M178.646 111.017C181.374 118.677 183.353 122.997 181.221 128.717C178.003 137.31 167.327 138.549 162.371 132.032C157.905 126.159 154.196 114.622 160.239 107.976C166.281 101.331 175.919 103.358 178.646 111.017Z" fill="#FF8B7B"/>
<path d="M170.722 109.28C169.604 113.471 176.426 115.249 175.839 120.085C179.291 119.859 182.123 117.22 183.177 113.278C184.23 109.336 180.892 101.347 175.936 104.678C172.492 105.418 171.487 106.399 170.722 109.28Z" fill="#263238"/>
<path d="M169.338 121.348C169.556 121.975 169.403 122.603 168.992 122.748C168.582 122.892 168.067 122.498 167.842 121.871C167.617 121.243 167.778 120.616 168.188 120.463C168.598 120.31 169.113 120.712 169.338 121.348Z" fill="#263238"/>
<path d="M162.033 124.735C162.25 125.362 162.098 125.99 161.687 126.135C161.277 126.28 160.762 125.885 160.537 125.258C160.312 124.63 160.472 124.003 160.883 123.858C161.293 123.713 161.808 124.099 162.033 124.735Z" fill="#263238"/>
<path d="M171.953 129.699C171.658 129.93 171.343 130.135 171.011 130.31C170.989 130.323 170.964 130.331 170.938 130.334C170.912 130.336 170.886 130.334 170.862 130.326C170.837 130.319 170.814 130.306 170.794 130.29C170.774 130.273 170.758 130.253 170.746 130.23C170.732 130.208 170.723 130.183 170.72 130.157C170.716 130.131 170.719 130.104 170.726 130.079C170.734 130.054 170.747 130.031 170.764 130.011C170.781 129.991 170.802 129.975 170.826 129.964C171.564 129.587 172.202 129.042 172.69 128.373C173.178 127.703 173.501 126.928 173.634 126.111C173.64 126.059 173.666 126.011 173.707 125.978C173.747 125.945 173.799 125.929 173.851 125.934C173.877 125.936 173.902 125.943 173.924 125.954C173.947 125.966 173.967 125.982 173.983 126.001C174 126.021 174.012 126.043 174.02 126.068C174.028 126.092 174.031 126.117 174.028 126.143C173.825 127.553 173.081 128.828 171.953 129.699Z" fill="#263238"/>
<path d="M169.137 117.397C169.085 117.41 169.031 117.412 168.978 117.402C168.925 117.392 168.875 117.372 168.831 117.341C168.432 117.053 167.97 116.863 167.483 116.788C166.997 116.712 166.499 116.753 166.031 116.907C165.935 116.947 165.827 116.947 165.731 116.908C165.634 116.869 165.557 116.793 165.517 116.697C165.496 116.65 165.484 116.599 165.483 116.547C165.483 116.495 165.492 116.444 165.512 116.396C165.531 116.347 165.56 116.304 165.597 116.267C165.634 116.231 165.678 116.202 165.726 116.183C166.315 115.979 166.944 115.919 167.561 116.007C168.178 116.096 168.765 116.329 169.274 116.689C169.36 116.748 169.42 116.839 169.439 116.941C169.459 117.044 169.437 117.15 169.378 117.236C169.351 117.278 169.316 117.314 169.274 117.342C169.233 117.369 169.186 117.388 169.137 117.397Z" fill="#263238"/>
<path d="M160.093 120.913C160.187 120.877 160.29 120.877 160.383 120.913C160.431 120.932 160.475 120.96 160.511 120.996C160.548 121.031 160.578 121.074 160.598 121.121C160.618 121.168 160.629 121.219 160.629 121.27C160.63 121.322 160.62 121.373 160.6 121.42C160.384 122.003 160.032 122.527 159.573 122.946C159.114 123.366 158.562 123.67 157.961 123.834C157.911 123.844 157.858 123.845 157.807 123.835C157.757 123.826 157.708 123.806 157.665 123.778C157.621 123.749 157.584 123.713 157.555 123.67C157.526 123.627 157.505 123.579 157.495 123.528C157.475 123.426 157.497 123.32 157.554 123.233C157.611 123.146 157.699 123.085 157.8 123.061C158.276 122.929 158.712 122.685 159.074 122.349C159.435 122.013 159.71 121.595 159.876 121.131C159.917 121.032 159.995 120.954 160.093 120.913Z" fill="#263238"/>
<path d="M164.053 122.699C164.053 122.699 164.857 126.722 164.495 129.136C166.104 129.417 167.464 127.929 167.464 127.929L164.053 122.699Z" fill="#FF5652"/>
<path d="M215.881 141.646C216.364 143.03 216.75 144.245 217.128 145.548C217.506 146.852 217.852 148.123 218.198 149.418C218.85 152.009 219.445 154.632 219.912 157.327C220.145 158.67 220.362 160.022 220.547 161.406C220.733 162.79 220.861 164.198 220.958 165.638C221.054 167.078 221.119 168.558 221.062 170.119C221.03 171.818 220.85 173.512 220.523 175.179L220.443 175.582C220.252 176.505 219.856 177.374 219.284 178.124C218.436 179.212 217.414 180.153 216.259 180.908C215.298 181.532 214.263 182.035 213.178 182.404C211.453 182.972 209.658 183.302 207.844 183.386C206.322 183.469 204.797 183.428 203.282 183.265C201.834 183.12 200.45 182.919 199.098 182.654C196.469 182.123 193.878 181.419 191.343 180.546C188.841 179.698 186.396 178.693 184.021 177.537C183.224 177.138 182.591 176.474 182.231 175.659C181.87 174.844 181.806 173.929 182.048 173.071C182.29 172.213 182.823 171.467 183.557 170.96C184.29 170.454 185.177 170.219 186.065 170.296H186.266C188.567 170.513 191.021 170.779 193.37 170.94C195.719 171.1 198.061 171.229 200.297 171.205C202.343 171.234 204.387 171.051 206.396 170.658C207.065 170.539 207.71 170.308 208.302 169.974C208.471 169.853 208.536 169.757 208.504 169.749C208.471 169.741 208.31 169.797 208.15 169.966L206.911 172.911C206.943 172.049 206.918 171.186 206.838 170.328C206.734 169.33 206.629 168.26 206.452 167.166C206.098 164.962 205.647 162.661 205.076 160.336C204.505 158.011 203.934 155.669 203.282 153.328L201.343 146.361L201.295 146.184C200.766 144.271 201.002 142.228 201.953 140.487C202.903 138.745 204.494 137.441 206.388 136.851C208.282 136.261 210.332 136.43 212.103 137.323C213.875 138.217 215.23 139.764 215.881 141.638V141.646Z" fill="#FF8B7B"/>
<path d="M177.995 169.298L181.141 168.992C182.373 168.87 183.617 169.064 184.753 169.556L187.907 170.931C188.661 171.307 189.291 171.893 189.719 172.618C190.147 173.343 190.356 174.177 190.321 175.018C190.321 177.601 188.607 179.966 186.379 180.28C184.786 180.448 183.176 180.334 181.624 179.942L177.657 179.669C176.97 179.58 176.342 179.233 175.901 178.698C175.46 178.163 175.239 177.48 175.284 176.788L175.212 172.846C175.164 172.017 175.421 171.2 175.933 170.547C176.446 169.893 177.179 169.45 177.995 169.298Z" fill="#FF8B7B"/>
<path d="M189.782 251.482C183.289 237.942 187.432 236.735 181.592 223.862C191.793 224.932 210.096 225.817 216.251 212.406C218.721 207.023 218.198 200.804 218.182 198.157C211.182 194.392 188.752 195.414 177.955 197.747C160.255 201.56 152.25 204.988 159.451 226.71C161.816 233.847 165.147 240.299 172.195 251.707C175.236 256.623 176.813 264.298 179.725 267.074C182.557 269.447 185.357 264.508 191.085 265.159C193.507 261.571 191.125 254.29 189.782 251.482Z" fill="#FF5C8A"/>
<path opacity="0.4" d="M189.782 251.482C183.289 237.942 187.432 236.735 181.592 223.862C191.793 224.932 210.096 225.817 216.251 212.406C218.721 207.023 218.198 200.804 218.182 198.157C211.182 194.392 188.752 195.414 177.955 197.747C160.255 201.56 152.25 204.988 159.451 226.71C161.816 233.847 165.147 240.299 172.195 251.707C175.236 256.623 176.813 264.298 179.725 267.074C182.557 269.447 185.357 264.508 191.085 265.159C193.507 261.571 191.125 254.29 189.782 251.482Z" fill="#263238"/>
<path d="M195.011 269.222C193.048 268.055 186.965 270.879 186.965 270.879C186.86 270.102 186.586 269.358 186.161 268.699C185.413 267.363 181.688 268.763 180.529 270.421C179.371 272.078 182.774 272.875 182.774 272.875C180.964 276.543 182.154 278.506 176.635 279.987C175.485 280.292 175.903 282.706 178.638 282.746C183.176 282.811 182.79 281.21 186.499 280.132C189.669 279.206 193.74 278.072 197.006 277.066C197.146 277.036 197.277 276.977 197.393 276.893C197.508 276.809 197.605 276.702 197.677 276.579C197.748 276.455 197.794 276.318 197.81 276.177C197.826 276.035 197.813 275.891 197.77 275.755L195.011 269.222Z" fill="#263238"/>
<path d="M157.697 274.588C156.168 272.899 149.539 273.824 149.539 273.824C149.67 273.056 149.635 272.268 149.434 271.515C149.112 270.011 145.138 270.268 143.561 271.515C141.984 272.762 144.985 274.516 144.985 274.516C142.185 277.493 141.662 278.539 136.135 279.987C134.985 280.293 135.395 282.706 138.138 282.746C142.668 282.811 142.555 282.489 146.417 282.545C149.724 282.594 153.94 282.698 157.359 282.698C157.502 282.706 157.645 282.684 157.779 282.634C157.913 282.584 158.036 282.506 158.138 282.407C158.241 282.307 158.322 282.187 158.376 282.054C158.43 281.922 158.457 281.779 158.453 281.636L157.697 274.588Z" fill="#263238"/>
<path d="M104.01 183.571H195.848V177.118H104.01V183.571Z" fill="#FF5C8A"/>
<path opacity="0.3" d="M162.097 183.571H195.848V177.118H162.097V183.571Z" fill="#263238"/>
<path d="M145.822 283.937H154.036L151.904 183.571H147.954L145.822 283.937Z" fill="#E0E0E0"/>
<path opacity="0.3" d="M147.889 186.885L152.016 188.792L151.904 183.571H147.954L147.889 186.885Z" fill="#263238"/>
<path d="M149.948 173.112C147.269 173.844 129.698 175.928 121.79 173.916C123.6 175.123 129.899 177.135 135.394 177.135H178.099C178.099 177.135 182.532 177.135 183.538 175.944C177.504 176.531 153.834 175.791 149.948 173.112Z" fill="#FF5C8A"/>
<path opacity="0.7" d="M149.948 173.112C147.269 173.844 129.698 175.928 121.79 173.916C123.6 175.123 129.899 177.135 135.394 177.135H178.099C178.099 177.135 182.532 177.135 183.538 175.944C177.504 176.531 153.834 175.791 149.948 173.112Z" fill="white"/>
<path d="M202.332 130.463C218.238 130.335 216.878 143.336 220.474 152.419C214.481 161.808 201.527 162.492 201.527 162.492C201.527 162.492 184.898 130.608 202.332 130.463Z" fill="#1C2D5E"/>
<path d="M184.48 117.872C184.583 118.828 184.477 119.795 184.17 120.706C183.863 121.617 183.362 122.451 182.702 123.15C180.988 124.815 178.679 123.013 178.003 120.342C177.368 117.928 177.488 114.179 179.781 113.568C182.074 112.956 184.287 115.29 184.48 117.872Z" fill="#FF8B7B"/>
<path d="M172.025 110.414C168.743 115.933 157.97 116.794 153.931 114.219C150.029 111.733 149.973 105.844 153.931 102.956C154.88 108.547 162.853 109.296 167.367 107.51C171.88 105.724 174.946 105.547 172.025 110.414Z" fill="#263238"/>
<path d="M169.322 108.95C163.924 102.578 168.92 95.9403 175.292 96.1414C171.229 101.073 174.045 104.235 176.426 104.79C173.144 109.424 169.322 108.95 169.322 108.95Z" fill="#263238"/>
<path d="M167.464 114.155C160.359 117.84 151.067 116.408 149.949 112.788C153.505 114.115 157.27 112.844 157.608 111.428C160.351 113.391 167.464 114.155 167.464 114.155Z" fill="#263238"/>
<path d="M175.928 104.678C178.848 102.111 183.909 105.354 184.577 108.242C181.873 107.011 180.385 108.523 180.152 109.634C177.963 108.145 175.928 104.678 175.928 104.678Z" fill="#263238"/>
<path d="M158.131 109.095C154.631 104.267 157.511 97.1714 163.706 95.9243C161.864 99.1425 168.405 103.567 171.181 101.942C174.165 108.845 171.494 110.704 166.434 112.152C162.66 113.238 159.354 110.76 158.131 109.095Z" fill="#263238"/>
<path d="M169.813 103.23C171.164 99.7942 180.063 98.3058 182.122 101.62C179.033 102.377 180.159 106.448 179.644 108.861C178.832 112.659 167.713 108.548 169.813 103.23Z" fill="#263238"/>
<path d="M185.445 121.975C185.154 121.688 184.784 121.492 184.382 121.413C183.98 121.334 183.564 121.375 183.186 121.532C182.807 121.688 182.483 121.952 182.254 122.291C182.025 122.631 181.901 123.03 181.897 123.44C181.899 123.991 182.12 124.519 182.51 124.908C182.901 125.297 183.429 125.515 183.981 125.515C184.392 125.518 184.795 125.398 185.137 125.17C185.48 124.943 185.747 124.618 185.904 124.238C186.061 123.858 186.101 123.44 186.02 123.037C185.938 122.634 185.738 122.264 185.445 121.975ZM183.981 124.469C183.777 124.471 183.577 124.412 183.406 124.3C183.236 124.188 183.103 124.027 183.024 123.839C182.944 123.651 182.923 123.444 182.962 123.244C183.001 123.043 183.098 122.859 183.242 122.714C183.385 122.569 183.569 122.471 183.769 122.43C183.969 122.39 184.176 122.41 184.365 122.487C184.554 122.565 184.715 122.697 184.828 122.867C184.942 123.036 185.002 123.236 185.002 123.44C185.006 123.577 184.982 123.713 184.932 123.84C184.882 123.968 184.808 124.085 184.713 124.183C184.618 124.282 184.504 124.361 184.379 124.416C184.253 124.47 184.118 124.499 183.981 124.502V124.469Z" fill="#FF8B7B"/>
<path d="M185.075 122.345C184.822 122.096 184.49 121.943 184.137 121.91C183.783 121.878 183.429 121.969 183.135 122.168C182.841 122.367 182.625 122.662 182.524 123.002C182.423 123.342 182.442 123.707 182.579 124.034C182.717 124.362 182.963 124.632 183.277 124.798C183.59 124.964 183.952 125.017 184.3 124.947C184.648 124.877 184.961 124.688 185.186 124.414C185.411 124.139 185.533 123.795 185.533 123.44C185.533 123.236 185.492 123.035 185.413 122.847C185.335 122.659 185.219 122.489 185.075 122.345ZM183.981 124.502C183.777 124.503 183.577 124.444 183.406 124.332C183.236 124.22 183.103 124.06 183.023 123.871C182.944 123.683 182.923 123.476 182.961 123.276C183 123.076 183.098 122.891 183.241 122.747C183.385 122.602 183.569 122.503 183.769 122.462C183.969 122.422 184.176 122.442 184.365 122.52C184.553 122.597 184.715 122.729 184.828 122.899C184.942 123.068 185.002 123.268 185.002 123.472C185 123.743 184.892 124.002 184.701 124.195C184.51 124.387 184.252 124.497 183.981 124.502Z" fill="#263238"/>
<g clip-path="url(#clip0_3593_50303)">
<path d="M121.18 112.373C135.348 112.373 146.834 101.022 146.834 87.0199C146.834 73.0177 135.348 61.6666 121.18 61.6666C107.012 61.6666 95.5259 73.0177 95.5259 87.0199C95.5259 101.022 107.012 112.373 121.18 112.373Z" fill="#EE6D66"/>
<g clip-path="url(#clip1_3593_50303)">
<path d="M123.433 87.7297L128.233 82.9291C128.461 82.7016 128.589 82.393 128.589 82.0711C128.59 81.7491 128.462 81.4403 128.235 81.2125C128.007 80.9846 127.699 80.8565 127.377 80.8562C127.055 80.8559 126.746 80.9835 126.518 81.2109L121.717 86.0116L116.917 81.2109C116.689 80.9831 116.38 80.8551 116.058 80.8551C115.735 80.8551 115.426 80.9831 115.199 81.2109C114.971 81.4388 114.843 81.7478 114.843 82.07C114.843 82.3922 114.971 82.7012 115.199 82.9291L119.999 87.7297L115.199 92.5304C114.971 92.7582 114.843 93.0673 114.843 93.3895C114.843 93.7117 114.971 94.0207 115.199 94.2485C115.426 94.4764 115.735 94.6044 116.058 94.6044C116.38 94.6044 116.689 94.4764 116.917 94.2485L121.717 89.4479L126.518 94.2485C126.746 94.4764 127.055 94.6044 127.377 94.6044C127.699 94.6044 128.008 94.4764 128.236 94.2485C128.464 94.0207 128.592 93.7117 128.592 93.3895C128.592 93.0673 128.464 92.7582 128.236 92.5304L123.433 87.7297Z" fill="white"/>
</g>
</g>
<defs>
<clipPath id="clip0_3593_50303">
<rect width="57.8575" height="50.7066" fill="white" transform="translate(92.5 61.6666)"/>
</clipPath>
<clipPath id="clip1_3593_50303">
<rect width="25.2097" height="25.2097" fill="white" transform="translate(108.117 73.4666)"/>
</clipPath>
</defs>
</svg>
