<svg width="329" height="329" viewBox="0 0 329 329" fill="none" xmlns="http://www.w3.org/2000/svg">
<g clip-path="url(#clip0_759_6960)">
<rect width="328" height="328" transform="translate(0.234375 0.0802002)" fill="white"/>
<path d="M348.527 257.846H-6.12891V258.023H348.527V257.846Z" fill="#EBEBEB"/>
<path d="M312.99 269.258H289.498V269.436H312.99V269.258Z" fill="#EBEBEB"/>
<path d="M228.808 271.188H222.645V271.365H228.808V271.188Z" fill="#EBEBEB"/>
<path d="M288.787 262.676H275.176V262.853H288.787V262.676Z" fill="#EBEBEB"/>
<path d="M61.7172 263.868H31.082V264.045H61.7172V263.868Z" fill="#EBEBEB"/>
<path d="M72.5271 263.868H68.0371V264.045H72.5271V263.868Z" fill="#EBEBEB"/>
<path d="M153.573 266.861H87.125V267.038H153.573V266.861Z" fill="#EBEBEB"/>
<path d="M173.475 98.5484C172.369 93.2503 170.273 88.2086 167.297 83.6883L172.617 77.2619L161.268 65.913L154.841 71.2328C150.325 68.2484 145.286 66.1428 139.988 65.0263L139.208 56.7487H123.093L122.312 65.0263C117.016 66.132 111.977 68.2281 107.459 71.2044L101.033 65.8846L89.684 77.2336L95.0039 83.6599C92.0275 88.1802 89.9314 93.2219 88.8258 98.52L80.541 99.3002V115.38L88.8258 116.161C89.9327 121.458 92.0287 126.5 95.0039 131.021L89.6273 137.475L100.976 148.824L107.403 143.505C111.919 146.484 116.959 148.58 122.256 149.683L123.036 157.967H139.123L139.903 149.683C145.202 148.579 150.244 146.483 154.763 143.505L161.19 148.824L172.539 137.475L167.219 131.049C170.194 126.528 172.29 121.487 173.397 116.189L181.682 115.409V99.3286L173.475 98.5484ZM152.905 107.365C152.905 111.672 151.628 115.882 149.235 119.463C146.842 123.044 143.441 125.835 139.462 127.483C135.483 129.132 131.105 129.563 126.881 128.723C122.657 127.882 118.777 125.808 115.731 122.763C112.686 119.718 110.612 115.837 109.772 111.613C108.931 107.389 109.363 103.011 111.011 99.0318C112.659 95.0528 115.45 91.6519 119.031 89.2591C122.612 86.8664 126.822 85.5893 131.129 85.5893C133.99 85.5874 136.822 86.1493 139.466 87.2429C142.109 88.3365 144.511 89.9403 146.534 91.9627C148.557 93.985 150.161 96.3863 151.256 99.0291C152.35 101.672 152.913 104.505 152.912 107.365H152.905Z" fill="#E0E0E0"/>
<path d="M219.609 175.743L220.141 181.665H231.696L232.256 175.714C236.062 174.921 239.684 173.417 242.932 171.281L247.549 175.104L255.728 166.926L251.904 162.308C254.042 159.061 255.546 155.439 256.338 151.633L262.289 151.073V139.547L256.338 138.986C255.546 135.18 254.042 131.558 251.904 128.311L255.728 123.693L247.549 115.522L242.932 119.345C239.686 117.205 236.063 115.698 232.256 114.905L231.696 108.954H220.141L219.581 114.905C215.775 115.699 212.153 117.206 208.906 119.345L204.288 115.522L196.117 123.693L199.94 128.311C197.801 131.558 196.294 135.18 195.5 138.986L189.549 139.547V151.101L195.5 151.662C196.294 155.468 197.801 159.09 199.94 162.337L196.117 166.954L204.288 175.133L208.906 171.31C212.163 173.447 215.795 174.951 219.609 175.743ZM225.951 160.968C222.854 160.969 219.826 160.052 217.251 158.331C214.676 156.611 212.669 154.165 211.485 151.303C210.301 148.442 209.993 145.293 210.599 142.256C211.206 139.219 212.7 136.431 214.892 134.243C217.084 132.056 219.876 130.568 222.914 129.969C225.953 129.369 229.101 129.685 231.96 130.876C234.818 132.066 237.26 134.078 238.974 136.657C240.689 139.236 241.599 142.266 241.591 145.363C241.58 149.504 239.927 153.472 236.995 156.397C234.064 159.322 230.092 160.966 225.951 160.968Z" fill="#E0E0E0"/>
<path d="M158.241 256.675H172.001L172.668 249.582C177.204 248.645 181.52 246.854 185.386 244.305L190.883 248.859L200.601 239.12L196.026 233.63C198.572 229.764 200.362 225.451 201.303 220.919L208.396 220.252V206.491L201.303 205.825C200.361 201.295 198.57 196.985 196.026 193.121L200.572 187.624L190.841 177.892L185.386 182.439C181.521 179.895 177.211 178.102 172.682 177.154L172.016 170.061H158.255L157.588 177.154C153.057 178.101 148.744 179.893 144.877 182.439L139.38 177.892L129.634 187.624L134.188 193.121C131.638 196.983 129.845 201.294 128.904 205.825L121.811 206.491V220.252L128.904 220.919C129.844 225.452 131.637 229.766 134.188 233.63L129.634 239.12L139.366 248.852L144.863 244.298C148.727 246.849 153.04 248.642 157.574 249.582L158.241 256.675ZM165.121 231.998C161.437 231.998 157.836 230.906 154.773 228.859C151.71 226.812 149.322 223.903 147.912 220.5C146.503 217.096 146.134 213.351 146.852 209.738C147.571 206.125 149.345 202.806 151.95 200.201C154.555 197.596 157.874 195.822 161.487 195.103C165.1 194.384 168.846 194.753 172.249 196.163C175.653 197.573 178.562 199.96 180.608 203.023C182.655 206.087 183.748 209.688 183.748 213.372C183.751 215.82 183.272 218.245 182.338 220.509C181.404 222.772 180.032 224.828 178.302 226.561C176.572 228.294 174.517 229.668 172.256 230.606C169.994 231.544 167.57 232.027 165.121 232.027V231.998Z" fill="#E0E0E0"/>
<path d="M235.151 231.502L234.442 230.083C233.299 227.911 231.342 226.28 228.998 225.55C226.655 224.82 224.118 225.05 221.944 226.189L218.624 227.927C216.453 229.072 214.824 231.031 214.094 233.375C213.364 235.719 213.593 238.256 214.73 240.432L215.439 241.815L213.127 243.035L221.461 258.909L245.798 246.142L237.463 230.26L235.151 231.502ZM230.072 243.645L231.526 246.418L229.767 247.348L228.313 244.574C227.978 244.561 227.651 244.461 227.366 244.283C227.082 244.105 226.848 243.856 226.689 243.56C226.554 243.331 226.466 243.076 226.432 242.812C226.398 242.548 226.419 242.28 226.491 242.024C226.564 241.767 226.689 241.529 226.857 241.322C227.025 241.116 227.233 240.945 227.469 240.822C227.704 240.698 227.963 240.623 228.228 240.603C228.494 240.582 228.761 240.615 229.013 240.701C229.265 240.787 229.497 240.923 229.695 241.101C229.893 241.279 230.053 241.495 230.165 241.737C230.318 242.035 230.391 242.368 230.374 242.703C230.358 243.038 230.254 243.363 230.072 243.645ZM231.491 233.445L219.085 239.957L218.376 238.538C217.746 237.332 217.62 235.925 218.026 234.626C218.431 233.327 219.335 232.242 220.539 231.608L223.852 229.87C225.054 229.238 226.457 229.107 227.755 229.505C229.054 229.904 230.142 230.8 230.782 231.998L231.491 233.445Z" fill="#F0F0F0"/>
<path d="M227.697 190.186C229.91 186.331 233.561 183.512 237.85 182.347C242.139 181.182 246.714 181.767 250.573 183.973L249.863 185.171L254.616 183.88L253.325 179.128L252.616 180.32C248.309 177.852 243.267 176.991 238.386 177.892C233.505 178.792 229.102 181.395 225.96 185.237C222.818 189.078 221.14 193.91 221.226 198.873C221.311 203.836 223.155 208.607 226.428 212.338L229.591 209.564C227.296 206.934 225.88 203.653 225.54 200.179C225.201 196.704 225.955 193.211 227.697 190.186Z" fill="#263238"/>
<path d="M258.199 184.951L255.007 187.654C257.559 190.661 258.969 194.472 258.989 198.417C259.008 202.361 257.636 206.186 255.114 209.218C252.591 212.251 249.08 214.297 245.198 214.996C241.316 215.695 237.312 215.002 233.891 213.04L234.6 211.841L229.826 213.189L231.117 217.941L231.826 216.743C236.11 219.18 241.115 220.03 245.964 219.145C250.812 218.26 255.194 215.696 258.341 211.903C261.487 208.11 263.197 203.33 263.172 198.401C263.146 193.473 261.385 188.711 258.199 184.951Z" fill="#263238"/>
<g opacity="0.6">
<path opacity="0.6" d="M227.697 190.186C229.91 186.331 233.561 183.512 237.85 182.347C242.139 181.182 246.714 181.767 250.573 183.973L249.863 185.171L254.616 183.88L253.325 179.128L252.616 180.32C248.309 177.852 243.267 176.991 238.386 177.892C233.505 178.792 229.102 181.395 225.96 185.237C222.818 189.078 221.14 193.91 221.226 198.873C221.311 203.836 223.155 208.607 226.428 212.338L229.591 209.564C227.296 206.934 225.88 203.653 225.54 200.179C225.201 196.704 225.955 193.211 227.697 190.186Z" fill="white"/>
<path opacity="0.6" d="M258.199 184.951L255.007 187.654C257.559 190.661 258.969 194.472 258.989 198.417C259.008 202.361 257.636 206.186 255.114 209.218C252.591 212.251 249.08 214.297 245.198 214.996C241.316 215.695 237.312 215.002 233.891 213.04L234.6 211.841L229.826 213.189L231.117 217.941L231.826 216.743C236.11 219.18 241.115 220.03 245.964 219.145C250.812 218.26 255.194 215.696 258.341 211.903C261.487 208.11 263.197 203.33 263.172 198.401C263.146 193.473 261.385 188.711 258.199 184.951Z" fill="white"/>
</g>
<path d="M239.203 178.639H234.578V164.452C234.578 161.843 233.542 159.341 231.697 157.496C229.852 155.651 227.349 154.614 224.74 154.614C222.131 154.614 219.629 155.651 217.784 157.496C215.939 159.341 214.902 161.843 214.902 164.452V178.639H210.277V164.452C210.277 160.617 211.801 156.938 214.513 154.226C217.226 151.513 220.904 149.99 224.74 149.99C228.576 149.99 232.255 151.513 234.967 154.226C237.679 156.938 239.203 160.617 239.203 164.452V178.639Z" fill="#263238"/>
<g opacity="0.3">
<path opacity="0.3" d="M239.203 178.639H234.578V164.452C234.578 161.843 233.542 159.341 231.697 157.496C229.852 155.651 227.349 154.614 224.74 154.614C222.131 154.614 219.629 155.651 217.784 157.496C215.939 159.341 214.902 161.843 214.902 164.452V178.639H210.277V164.452C210.277 160.617 211.801 156.938 214.513 154.226C217.226 151.513 220.904 149.99 224.74 149.99C228.576 149.99 232.255 151.513 234.967 154.226C237.679 156.938 239.203 160.617 239.203 164.452V178.639Z" fill="white"/>
</g>
<path d="M244.501 175.028V198.244C244.501 198.598 244.432 198.948 244.296 199.275C244.161 199.602 243.962 199.899 243.712 200.15C243.462 200.4 243.164 200.599 242.837 200.734C242.51 200.87 242.16 200.939 241.806 200.939H207.66C207.307 200.938 206.957 200.868 206.631 200.732C206.306 200.596 206.01 200.397 205.761 200.147C205.512 199.897 205.315 199.6 205.18 199.273C205.046 198.947 204.978 198.597 204.979 198.244V175.028C204.978 174.675 205.046 174.325 205.18 173.999C205.315 173.672 205.512 173.375 205.761 173.125C206.01 172.875 206.306 172.676 206.631 172.54C206.957 172.404 207.307 172.334 207.66 172.333H241.806C242.253 172.33 242.692 172.442 243.083 172.659C243.512 172.887 243.872 173.229 244.121 173.646C244.371 174.064 244.503 174.541 244.501 175.028Z" fill="#FF5C8A"/>
<path opacity="0.2" d="M243.083 172.659V195.407C243.083 195.76 243.013 196.11 242.877 196.437C242.742 196.764 242.543 197.06 242.293 197.31C242.042 197.56 241.745 197.758 241.418 197.892C241.091 198.027 240.741 198.096 240.387 198.095H206.241C205.8 198.096 205.366 197.986 204.979 197.776V175.028C204.978 174.675 205.046 174.325 205.18 173.999C205.315 173.672 205.512 173.375 205.761 173.125C206.01 172.875 206.306 172.676 206.631 172.54C206.957 172.404 207.307 172.334 207.66 172.333H241.806C242.253 172.33 242.692 172.442 243.083 172.659Z" fill="white"/>
<path opacity="0.5" d="M229.825 183.724C229.812 182.799 229.547 181.894 229.058 181.108C228.569 180.322 227.874 179.684 227.049 179.264C226.224 178.844 225.3 178.656 224.377 178.723C223.453 178.789 222.565 179.106 221.809 179.639C221.052 180.173 220.456 180.903 220.083 181.751C219.711 182.598 219.577 183.531 219.697 184.45C219.816 185.368 220.183 186.236 220.759 186.961C221.336 187.685 222.099 188.239 222.966 188.562L222.732 194.747H226.797L226.194 188.682C227.251 188.355 228.175 187.696 228.829 186.803C229.483 185.911 229.832 184.831 229.825 183.724Z" fill="black"/>
<path d="M160.168 87.4657L162.523 95.034L164.871 87.4657H160.168Z" fill="#FF5C8A"/>
<path d="M181.773 69.3854H143.265C139.9 69.3854 137.172 72.1133 137.172 75.4784V83.6851C137.172 87.0502 139.9 89.7781 143.265 89.7781H181.773C185.138 89.7781 187.866 87.0502 187.866 83.6851V75.4784C187.866 72.1133 185.138 69.3854 181.773 69.3854Z" fill="#FF5C8A"/>
<path d="M149.089 79.5711L150.423 80.323L150.075 80.933L148.72 80.1385V81.6636H148.011V80.1385L146.656 80.933L146.309 80.323L147.656 79.5711L146.309 78.8618L146.656 78.2376L148.011 79.032V77.4857H148.72V78.9965L150.075 78.2021L150.423 78.8263L149.089 79.5711Z" fill="white"/>
<path d="M153.799 79.5711L155.133 80.323L154.785 80.933L153.43 80.1385V81.6636H152.763V80.1385L151.394 80.933L151.047 80.323L152.395 79.5711L151.047 78.8618L151.394 78.2376L152.749 79.032V77.4857H153.416V78.9965L154.771 78.2021L155.118 78.8263L153.799 79.5711Z" fill="white"/>
<path d="M158.488 79.571L159.821 80.3229L159.473 80.9329L158.119 80.1385V81.6635H157.409V80.1385L156.055 80.9329L155.707 80.3229L157.048 79.571L155.707 78.8617L156.055 78.2375L157.409 79.0319V77.5211H158.119V79.0319L159.473 78.2375L159.821 78.8617L158.488 79.571Z" fill="white"/>
<path d="M163.218 79.571L164.551 80.3229L164.204 80.9329L162.849 80.1385V81.6635H162.175V80.1385L160.82 80.9329L160.473 80.3229L161.813 79.571L160.473 78.8617L160.82 78.2375L162.175 79.0319V77.5211H162.849V79.0319L164.204 78.2375L164.551 78.8617L163.218 79.571Z" fill="white"/>
<path d="M167.927 79.571L169.261 80.3229L168.913 80.9329L167.551 80.1385V81.6635H166.842V80.1385L165.579 80.9329L165.225 80.3229L166.572 79.571L165.225 78.8617L165.579 78.2375L166.934 79.0319V77.5211H167.643V79.0319L169.005 78.2375L169.353 78.8617L167.927 79.571Z" fill="white"/>
<path d="M172.631 79.571L173.972 80.3229L173.624 80.9329L172.262 80.1385V81.6635H171.588V80.1385L170.226 80.9329L169.879 80.3229L171.227 79.571L169.879 78.8617L170.226 78.2375L171.588 79.0319V77.5211H172.262V79.0319L173.624 78.2375L173.972 78.8617L172.631 79.571Z" fill="white"/>
<path d="M177.339 79.5711L178.673 80.323L178.325 80.933L176.97 80.1385V81.6636H176.261V80.1385L174.906 80.933L174.559 80.323L175.906 79.5711L174.559 78.8618L174.906 78.2376L176.261 79.032V77.4857H176.97V78.9965L178.325 78.2021L178.673 78.8263L177.339 79.5711Z" fill="white"/>
<path d="M193.293 140.309L197.62 137.508L192.747 134.514C192.747 134.514 189.037 137.245 190.527 139.096L193.293 140.309Z" fill="#B55B52"/>
<path d="M199.839 132.904L194.775 131.755L192.746 134.514L197.619 137.508L199.839 132.904Z" fill="#B55B52"/>
<path d="M175.509 131.216C178.247 135.358 180.992 140.394 184.73 143.622C184.801 143.679 184.773 143.622 184.496 143.622C184.354 143.657 184.425 143.728 184.716 143.622C185.567 143.137 186.316 142.491 186.922 141.721C188.309 140.04 189.543 138.238 190.61 136.337C190.66 136.259 190.61 136.337 190.61 136.422C190.592 136.552 190.592 136.683 190.61 136.812C190.674 136.876 190.447 136.692 190.887 137.664C191.094 137.974 191.389 138.215 191.734 138.358C192.078 138.501 192.457 138.538 192.823 138.465C193.057 138.415 193.279 138.316 193.473 138.176C193.667 138.035 193.83 137.856 193.951 137.649C193.84 137.78 193.741 137.92 193.653 138.068L190.475 136.713C190.552 136.262 190.737 135.836 191.015 135.472C191.271 135.183 191.61 134.98 191.986 134.89C192.355 134.818 192.737 134.856 193.084 135C193.431 135.144 193.727 135.387 193.937 135.699C194.377 136.678 194.157 136.493 194.221 136.564C194.229 136.791 194.207 137.017 194.157 137.238C193.043 141.969 190.135 149.764 184.106 149.807C179.85 149.417 176.623 144.743 174.232 141.792C172.536 139.52 170.973 137.152 169.551 134.699L175.474 131.223L175.509 131.216Z" fill="#B55B52"/>
<path d="M173.325 128.102C176.163 129.038 181.915 142.111 181.915 142.111L172.141 146.75C172.141 146.75 170.155 136.479 170.545 133.167C170.79 131.185 171.785 129.372 173.325 128.102Z" fill="#FF5C8A"/>
<path opacity="0.7" d="M173.325 128.102C176.163 129.038 181.915 142.111 181.915 142.111L172.141 146.75C172.141 146.75 170.155 136.479 170.545 133.167C170.79 131.185 171.785 129.372 173.325 128.102Z" fill="white"/>
<path d="M184.816 279.661L179.837 281.072L178.652 273.319L178.014 269.177L182.993 267.766L183.844 273.319L184.816 279.661Z" fill="#B55B52"/>
<path d="M156.187 280.065L151.052 280.746L151.002 273.319L150.967 268.702L156.109 268.035L156.145 273.319L156.187 280.065Z" fill="#B55B52"/>
<path opacity="0.2" d="M156.109 268.035L156.145 273.319H151.002L150.967 268.702L156.109 268.035Z" fill="black"/>
<path opacity="0.2" d="M183.844 273.319H178.652L178.014 269.177L182.993 267.766L183.844 273.319Z" fill="black"/>
<path d="M184.731 278.88L179.057 278.731C178.954 278.728 178.853 278.76 178.77 278.822C178.688 278.884 178.629 278.972 178.603 279.072L177.418 283.626C177.381 283.735 177.371 283.853 177.39 283.967C177.409 284.081 177.455 284.19 177.525 284.282C177.595 284.374 177.686 284.448 177.791 284.497C177.897 284.546 178.012 284.568 178.128 284.562C180.171 284.562 183.093 284.562 185.682 284.612C188.682 284.697 190.59 284.548 194.109 284.612C196.237 284.668 196.896 282.548 196.017 282.328C191.995 281.335 189.37 281.533 185.944 279.292C185.586 279.046 185.166 278.904 184.731 278.88Z" fill="#263238"/>
<path d="M185.164 279.512C185.16 279.486 185.163 279.46 185.175 279.437C185.186 279.414 185.205 279.396 185.228 279.384C185.469 279.271 187.59 278.27 188.207 278.639C188.265 278.673 188.314 278.722 188.347 278.78C188.381 278.839 188.399 278.905 188.398 278.973C188.405 279.084 188.385 279.195 188.341 279.297C188.297 279.4 188.229 279.49 188.143 279.561C187.561 280.044 186.086 279.802 185.256 279.611C185.232 279.607 185.21 279.594 185.193 279.577C185.177 279.559 185.166 279.536 185.164 279.512ZM185.667 279.455C186.809 279.675 187.661 279.646 187.987 279.37C188.045 279.325 188.09 279.267 188.119 279.2C188.147 279.133 188.158 279.059 188.15 278.987C188.152 278.96 188.147 278.933 188.134 278.909C188.122 278.885 188.103 278.865 188.079 278.852H188.037C187.646 278.689 186.504 279.086 185.667 279.455Z" fill="#FF5C8A"/>
<path d="M185.205 279.59C185.188 279.578 185.175 279.562 185.167 279.543C185.16 279.524 185.158 279.503 185.163 279.483C185.237 278.752 185.543 278.064 186.035 277.518C186.133 277.437 186.247 277.378 186.369 277.345C186.491 277.312 186.62 277.306 186.745 277.327C187.078 277.37 187.17 277.54 187.192 277.682C187.262 278.263 185.986 279.348 185.347 279.611C185.319 279.618 185.29 279.618 185.262 279.611L185.205 279.59ZM186.688 277.568C186.599 277.556 186.508 277.563 186.421 277.587C186.335 277.611 186.254 277.653 186.184 277.71C185.791 278.146 185.543 278.694 185.475 279.278C186.128 278.916 187 278.065 186.95 277.71C186.95 277.71 186.95 277.632 186.844 277.596L186.688 277.568Z" fill="#FF5C8A"/>
<path d="M155.982 278.88L150.307 278.731C150.204 278.728 150.103 278.76 150.021 278.822C149.938 278.884 149.879 278.972 149.853 279.072L148.662 283.626C148.633 283.735 148.629 283.85 148.651 283.961C148.673 284.072 148.719 284.177 148.788 284.267C148.856 284.357 148.944 284.431 149.045 284.482C149.146 284.533 149.258 284.56 149.371 284.562C151.407 284.562 154.336 284.562 156.925 284.612C159.926 284.697 161.827 284.548 165.345 284.612C167.473 284.668 168.139 282.548 167.253 282.328C163.238 281.335 160.607 281.533 157.188 279.292C156.83 279.048 156.414 278.906 155.982 278.88Z" fill="#263238"/>
<path d="M156.359 279.512C156.355 279.486 156.36 279.459 156.373 279.436C156.385 279.413 156.405 279.395 156.43 279.384C156.671 279.271 158.785 278.27 159.402 278.639C159.46 278.673 159.509 278.722 159.542 278.78C159.576 278.839 159.593 278.905 159.593 278.973C159.601 279.083 159.582 279.194 159.539 279.296C159.496 279.399 159.429 279.489 159.345 279.561C158.756 280.044 157.281 279.802 156.451 279.611C156.428 279.605 156.407 279.592 156.391 279.575C156.374 279.557 156.363 279.535 156.359 279.512ZM156.869 279.455C158.004 279.675 158.863 279.646 159.189 279.37C159.246 279.324 159.29 279.266 159.319 279.199C159.347 279.132 159.359 279.059 159.352 278.987C159.352 278.959 159.345 278.933 159.331 278.909C159.317 278.885 159.298 278.866 159.274 278.852H159.231C158.877 278.689 157.735 279.086 156.898 279.455H156.869Z" fill="#FF5C8A"/>
<path d="M156.436 279.59C156.418 279.579 156.404 279.563 156.395 279.544C156.386 279.525 156.383 279.504 156.386 279.483C156.464 278.752 156.772 278.064 157.265 277.518C157.363 277.437 157.476 277.377 157.599 277.344C157.721 277.311 157.85 277.305 157.975 277.327C158.308 277.369 158.4 277.54 158.415 277.682C158.493 278.263 157.209 279.348 156.577 279.611C156.547 279.618 156.516 279.618 156.485 279.611L156.436 279.59ZM157.918 277.568C157.829 277.556 157.738 277.562 157.651 277.586C157.565 277.611 157.484 277.653 157.414 277.71C157.025 278.148 156.777 278.695 156.705 279.278C157.358 278.916 158.23 278.065 158.188 277.71C158.181 277.682 158.168 277.657 158.147 277.637C158.127 277.616 158.102 277.603 158.074 277.596C158.024 277.577 157.971 277.568 157.918 277.568Z" fill="#FF5C8A"/>
<path d="M145.598 167.214C142.874 179.002 147.541 271.759 147.541 271.759H156.563L160.422 194.444L174.608 271.759L184.255 271.05C177.949 211.17 172.381 175.42 172.381 175.42V170.902L145.598 167.214Z" fill="#263238"/>
<path d="M184.269 271.036L174.623 271.745L163.451 210.886L160.429 194.437L156.571 271.752H147.548C147.548 271.752 142.881 178.981 145.598 167.214L172.41 170.909V175.427C172.41 175.427 177.964 211.191 184.269 271.036Z" fill="#1C2D5E"/>
<path d="M145.01 127.343C145.955 132.909 146.483 138.538 146.592 144.182C146.684 148.119 146.592 151.864 146.457 155.255C146.102 163.206 145.336 169.221 145.372 171.285L172.439 171.767C178.894 143.466 173.347 128.102 173.347 128.102C171.248 127.52 169.116 127.065 166.963 126.74C166.49 126.679 166.017 126.622 165.544 126.57C161.717 126.279 157.875 126.208 154.039 126.357C153.33 126.357 152.571 126.421 151.855 126.478C148.237 126.783 145.01 127.343 145.01 127.343Z" fill="#FF5C8A"/>
<path d="M166.423 127.492C166.423 127.492 164.812 129.826 163.522 129.989C161.691 130.237 155.01 126.145 155.01 126.145C156.556 125.003 157.315 122.513 157.648 119.881C157.887 117.745 157.932 115.592 157.783 113.448L164.032 120.243C163.209 122.371 162.72 124.641 164.337 126.237C164.932 126.803 165.644 127.232 166.423 127.492Z" fill="#B55B52"/>
<path opacity="0.2" d="M164.324 126.215C161.571 124.713 159.264 122.511 157.635 119.832C157.873 117.696 157.918 115.542 157.77 113.398L164.019 120.193C163.196 122.343 162.742 124.655 164.324 126.215Z" fill="black"/>
<path d="M171.253 107.319C171.785 109.284 171.253 113.27 168.615 111.852C165.976 110.433 170.367 103.929 171.253 107.319Z" fill="#263238"/>
<path d="M157.153 109.341C156.636 114.306 156.082 117.214 158.161 120.144C161.296 124.541 167.786 123.229 169.779 118.484C171.581 114.228 172.12 106.78 167.602 104.057C166.599 103.454 165.46 103.116 164.291 103.073C163.122 103.03 161.962 103.285 160.918 103.813C159.874 104.341 158.981 105.125 158.323 106.092C157.665 107.058 157.262 108.176 157.153 109.341Z" fill="#B55B52"/>
<path d="M160.77 106.773L161.018 101.191C161.018 101.191 155.088 100.482 155.223 103.546C151.861 105.035 153.195 110.22 157.507 112.923C160.018 111.093 159.94 106.404 159.94 106.404C160.196 106.532 160.479 106.653 160.77 106.773Z" fill="#263238"/>
<path d="M154.565 113.136C154.656 113.752 154.868 114.344 155.189 114.877C155.511 115.41 155.935 115.874 156.437 116.243C157.785 117.221 159.055 116.143 159.168 114.569C159.275 113.15 158.7 110.93 157.111 110.575C156.761 110.506 156.399 110.525 156.057 110.629C155.715 110.734 155.405 110.921 155.153 111.174C154.901 111.428 154.716 111.739 154.613 112.081C154.51 112.423 154.494 112.786 154.565 113.136Z" fill="#B55B52"/>
<path d="M164.437 111.887C164.366 112.292 164.529 112.646 164.791 112.689C165.054 112.731 165.323 112.441 165.387 112.036C165.451 111.632 165.295 111.277 165.032 111.235C164.77 111.192 164.5 111.483 164.437 111.887Z" fill="#263238"/>
<path d="M168.99 112.597C168.927 113.001 169.09 113.363 169.352 113.398C169.615 113.434 169.884 113.15 169.948 112.746C170.012 112.341 169.856 111.987 169.593 111.944C169.331 111.901 169.061 112.199 168.99 112.597Z" fill="#263238"/>
<path d="M167.508 112.597C167.813 113.862 168.29 115.079 168.927 116.214C168.617 116.352 168.281 116.424 167.941 116.424C167.601 116.424 167.265 116.352 166.955 116.214L167.508 112.597Z" fill="#A02724"/>
<path d="M164.536 117.42C164.705 117.473 164.878 117.514 165.054 117.54C165.085 117.545 165.116 117.537 165.141 117.518C165.166 117.499 165.183 117.472 165.188 117.441C165.191 117.425 165.191 117.409 165.188 117.393C165.185 117.377 165.178 117.362 165.169 117.349C165.16 117.336 165.148 117.325 165.134 117.316C165.12 117.308 165.105 117.302 165.089 117.299C164.588 117.232 164.111 117.048 163.694 116.763C163.278 116.477 162.934 116.097 162.692 115.654C162.686 115.639 162.678 115.625 162.667 115.614C162.656 115.602 162.643 115.593 162.628 115.587C162.613 115.581 162.597 115.578 162.581 115.579C162.566 115.579 162.55 115.583 162.536 115.59C162.507 115.602 162.484 115.626 162.472 115.655C162.46 115.684 162.46 115.717 162.472 115.746C162.683 116.151 162.975 116.509 163.33 116.797C163.685 117.085 164.096 117.297 164.536 117.42Z" fill="#263238"/>
<path d="M163.274 110.199C163.314 110.213 163.358 110.214 163.399 110.204C163.44 110.194 163.478 110.173 163.508 110.142C163.722 109.929 163.983 109.768 164.269 109.672C164.556 109.576 164.861 109.547 165.161 109.589C165.191 109.596 165.222 109.597 165.253 109.592C165.284 109.587 165.313 109.576 165.339 109.559C165.366 109.543 165.388 109.521 165.406 109.496C165.425 109.471 165.437 109.442 165.444 109.412C165.451 109.382 165.452 109.35 165.447 109.32C165.442 109.289 165.431 109.26 165.414 109.233C165.398 109.207 165.377 109.184 165.351 109.166C165.326 109.148 165.297 109.135 165.267 109.128C164.891 109.064 164.505 109.092 164.142 109.209C163.779 109.327 163.449 109.53 163.182 109.802C163.137 109.847 163.111 109.908 163.111 109.972C163.111 110.036 163.137 110.097 163.182 110.142C163.208 110.168 163.24 110.187 163.274 110.199Z" fill="#263238"/>
<path d="M171.254 111.341C171.297 111.355 171.345 111.355 171.388 111.341C171.449 111.323 171.501 111.282 171.531 111.226C171.562 111.17 171.569 111.104 171.551 111.043C171.452 110.677 171.265 110.341 171.007 110.063C170.748 109.785 170.427 109.574 170.069 109.447C170.008 109.432 169.943 109.44 169.888 109.47C169.832 109.5 169.791 109.55 169.771 109.61C169.754 109.672 169.761 109.737 169.791 109.793C169.822 109.849 169.873 109.89 169.934 109.908C170.218 110.008 170.472 110.177 170.674 110.4C170.876 110.623 171.019 110.893 171.09 111.185C171.103 111.222 171.124 111.256 171.153 111.283C171.181 111.311 171.216 111.33 171.254 111.341Z" fill="#263238"/>
<path d="M155.224 103.546C155.224 103.546 152.16 100.503 162.558 100.779C172.957 101.056 174.688 106.887 169.921 108.241L169.708 107.291C168.89 107.713 167.99 107.955 167.07 108.002C166.15 108.048 165.231 107.898 164.374 107.561L165.126 107.092C165.126 107.092 158.026 107.816 155.224 103.546Z" fill="#263238"/>
<path d="M163.523 129.968C163.523 129.968 162.197 131.5 160.686 133.011C158.48 131.897 153.316 128.911 153.593 126.151C153.898 125.35 155.997 124.839 155.997 124.839C155.997 124.839 158.225 127.811 163.523 129.968Z" fill="#FF5C8A"/>
<path d="M163.523 129.968C164.609 130.842 165.564 131.867 166.361 133.011C167.985 131.961 167.169 126.825 166.573 126.258C165.714 125.789 164.751 125.545 163.772 125.549C164.093 126.25 164.239 127.019 164.195 127.789C164.152 128.559 163.921 129.307 163.523 129.968Z" fill="#FF5C8A"/>
<g opacity="0.5">
<path opacity="0.5" d="M163.523 129.968C163.523 129.968 162.197 131.5 160.686 133.011C158.48 131.897 153.316 128.911 153.593 126.151C153.898 125.35 155.997 124.839 155.997 124.839C155.997 124.839 158.225 127.811 163.523 129.968Z" fill="white"/>
<path opacity="0.5" d="M163.523 129.968C164.609 130.842 165.564 131.867 166.361 133.011C167.985 131.961 167.169 126.825 166.573 126.258C165.714 125.789 164.751 125.545 163.772 125.549C164.093 126.25 164.239 127.019 164.195 127.789C164.152 128.559 163.921 129.307 163.523 129.968Z" fill="white"/>
</g>
<path opacity="0.2" d="M163.451 210.886L160.43 194.437L161.011 185.734C161.011 185.734 165.147 200.828 163.451 210.886Z" fill="black"/>
<path d="M147.847 134.855C145.222 139.231 141.158 145.494 138.931 149.942C137.746 152.46 137.377 155.155 136.732 157.872C136.115 160.773 135.498 163.731 134.817 166.653L131.426 166.355C131.306 163.284 131.334 160.241 131.518 157.17C131.753 153.971 131.923 150.516 133.129 147.481C135.526 141.643 138.683 136.422 142.066 131.166L147.847 134.869V134.855Z" fill="#B55B52"/>
<path d="M145.009 127.343C141.2 128.329 134.369 142.019 134.369 142.019L142.462 147.261L149.761 140.167C150.18 137.6 150.023 134.971 149.3 132.471C148.116 128.201 145.009 127.343 145.009 127.343Z" fill="#FF5C8A"/>
<path opacity="0.7" d="M145.009 127.343C141.2 128.329 134.369 142.019 134.369 142.019L142.462 147.261L149.761 140.167C150.18 137.6 150.023 134.971 149.3 132.471C148.116 128.201 145.009 127.343 145.009 127.343Z" fill="white"/>
<path d="M147.881 169.543L204.107 109.919C204.41 109.597 204.773 109.339 205.176 109.158C205.579 108.977 206.013 108.878 206.455 108.865C206.896 108.852 207.335 108.926 207.748 109.083C208.161 109.24 208.539 109.476 208.86 109.779L210.217 111.059C210.866 111.671 211.245 112.515 211.271 113.407C211.297 114.298 210.968 115.163 210.356 115.812L154.13 175.436L147.881 169.543Z" fill="#263238"/>
<path opacity="0.6" d="M147.881 169.543L204.107 109.919C204.41 109.597 204.773 109.339 205.176 109.158C205.579 108.977 206.013 108.878 206.455 108.865C206.896 108.852 207.335 108.926 207.748 109.083C208.161 109.24 208.539 109.476 208.86 109.779L210.217 111.059C210.866 111.671 211.245 112.515 211.271 113.407C211.297 114.298 210.968 115.163 210.356 115.812L154.13 175.436L147.881 169.543Z" fill="white"/>
<path opacity="0.2" d="M209.273 110.178L210.217 111.064C210.538 111.367 210.796 111.729 210.977 112.131C211.158 112.533 211.258 112.967 211.271 113.408C211.285 113.848 211.211 114.287 211.054 114.7C210.897 115.112 210.661 115.489 210.359 115.81L154.132 175.442L153.195 174.555L209.422 114.923C209.724 114.602 209.96 114.224 210.116 113.812C210.272 113.399 210.345 112.96 210.332 112.52C210.318 112.079 210.217 111.645 210.036 111.243C209.854 110.842 209.595 110.48 209.273 110.178Z" fill="black"/>
<path d="M191.334 133.266L201.754 143.097L203.109 141.657L201.761 140.387L203.903 138.111L203.116 137.366L206.336 133.954L207.123 134.699L209.138 132.564L210.485 133.84L211.883 132.351L211.095 131.606L213.11 129.464L211.528 127.974L212.847 126.577L215.224 128.811L217.635 126.258L207.215 116.427L191.334 133.266Z" fill="#263238"/>
<path opacity="0.6" d="M191.334 133.266L201.754 143.097L203.109 141.657L201.761 140.387L203.903 138.111L203.116 137.366L206.336 133.954L207.123 134.699L209.138 132.564L210.485 133.84L211.883 132.351L211.095 131.606L213.11 129.464L211.528 127.974L212.847 126.577L215.224 128.811L217.635 126.258L207.215 116.427L191.334 133.266Z" fill="white"/>
<g opacity="0.2">
<path opacity="0.6" d="M202.169 140.78L200.816 142.215L201.756 143.1L203.108 141.666L202.169 140.78Z" fill="black"/>
<path opacity="0.6" d="M207.122 134.699L206.335 133.947L203.115 137.366L203.902 138.111L201.76 140.387L200.816 139.501L202.966 137.224L202.171 136.479L205.391 133.06L206.186 133.812L208.193 131.677L209.137 132.564L207.122 134.699Z" fill="black"/>
<path opacity="0.6" d="M210.152 130.713L212.173 128.578L213.117 129.464L211.095 131.606L211.89 132.351L210.485 133.841L209.549 132.954L210.946 131.464L210.152 130.713Z" fill="black"/>
<path opacity="0.6" d="M211.901 125.688L210.582 127.086L211.521 127.972L212.84 126.573L211.901 125.688Z" fill="black"/>
<path opacity="0.6" d="M216.693 125.376L214.279 127.936L215.218 128.821L217.632 126.262L216.693 125.376Z" fill="black"/>
</g>
<path d="M202.61 110.408L185.373 128.686C185.088 128.988 185.102 129.464 185.404 129.749L191.659 135.647C191.961 135.932 192.437 135.918 192.722 135.616L209.959 117.337C210.243 117.035 210.229 116.56 209.927 116.275L203.673 110.377C203.371 110.092 202.895 110.106 202.61 110.408Z" fill="#263238"/>
<path d="M154.457 194.714C153.149 196.101 151.58 197.218 149.841 197.999C148.101 198.78 146.225 199.211 144.318 199.267C142.412 199.323 140.514 199.003 138.731 198.325C136.949 197.647 135.317 196.625 133.93 195.317L129.22 190.876C127.832 189.568 126.716 187.999 125.935 186.26C125.153 184.52 124.722 182.644 124.666 180.737C124.61 178.831 124.931 176.933 125.608 175.15C126.286 173.368 127.309 171.736 128.617 170.349C129.926 168.956 131.498 167.835 133.241 167.05C134.985 166.266 136.866 165.833 138.777 165.777C140.688 165.721 142.591 166.043 144.378 166.724C146.164 167.405 147.798 168.432 149.187 169.746L153.89 174.186C155.275 175.497 156.389 177.067 157.167 178.808C157.945 180.549 158.373 182.426 158.425 184.332C158.478 186.239 158.155 188.136 157.474 189.918C156.793 191.699 155.768 193.329 154.457 194.714Z" fill="#263238"/>
<path d="M149.045 189.607C148.394 190.298 147.614 190.855 146.747 191.244C145.881 191.634 144.947 191.849 143.998 191.877C143.049 191.905 142.103 191.746 141.215 191.409C140.328 191.072 139.515 190.563 138.824 189.912L134.37 185.656C133.679 185.004 133.123 184.223 132.734 183.357C132.345 182.491 132.13 181.556 132.103 180.607C132.075 179.658 132.235 178.712 132.573 177.825C132.91 176.937 133.42 176.125 134.072 175.435C134.722 174.743 135.502 174.186 136.368 173.797C137.234 173.408 138.168 173.193 139.117 173.165C140.066 173.138 141.011 173.297 141.898 173.636C142.785 173.974 143.596 174.484 144.286 175.137L148.783 179.393C150.171 180.713 150.979 182.53 151.028 184.445C151.077 186.361 150.364 188.217 149.045 189.607Z" fill="white"/>
<path opacity="0.5" d="M202.61 110.408L185.373 128.686C185.088 128.988 185.102 129.464 185.404 129.749L191.659 135.647C191.961 135.932 192.437 135.918 192.722 135.616L209.959 117.337C210.243 117.035 210.229 116.56 209.927 116.275L203.673 110.377C203.371 110.092 202.895 110.106 202.61 110.408Z" fill="white"/>
<g opacity="0.5">
<path opacity="0.5" d="M154.457 194.714C153.149 196.101 151.58 197.218 149.841 197.999C148.101 198.78 146.225 199.211 144.318 199.267C142.412 199.323 140.514 199.003 138.731 198.325C136.949 197.647 135.317 196.625 133.93 195.317L129.22 190.876C127.832 189.568 126.716 187.999 125.935 186.26C125.153 184.52 124.722 182.644 124.666 180.737C124.61 178.831 124.931 176.933 125.608 175.15C126.286 173.368 127.309 171.736 128.617 170.349C129.926 168.956 131.498 167.835 133.241 167.05C134.985 166.266 136.866 165.833 138.777 165.777C140.688 165.721 142.591 166.043 144.378 166.724C146.164 167.405 147.798 168.432 149.187 169.746L153.89 174.186C155.275 175.497 156.389 177.067 157.167 178.808C157.945 180.549 158.373 182.426 158.425 184.332C158.478 186.239 158.155 188.136 157.474 189.918C156.793 191.699 155.768 193.329 154.457 194.714Z" fill="white"/>
<path opacity="0.5" d="M149.045 189.606C148.394 190.298 147.614 190.854 146.747 191.244C145.881 191.634 144.947 191.849 143.998 191.877C143.049 191.905 142.103 191.746 141.215 191.409C140.328 191.072 139.515 190.563 138.824 189.911L134.37 185.656C133.679 185.004 133.123 184.223 132.734 183.357C132.345 182.49 132.13 181.556 132.103 180.607C132.075 179.658 132.235 178.712 132.573 177.825C132.91 176.937 133.42 176.125 134.072 175.434C134.722 174.743 135.502 174.186 136.368 173.797C137.234 173.408 138.168 173.193 139.117 173.165C140.066 173.137 141.011 173.297 141.898 173.636C142.785 173.974 143.596 174.484 144.286 175.137L148.783 179.392C150.171 180.712 150.979 182.53 151.028 184.445C151.077 186.36 150.364 188.217 149.045 189.606Z" fill="white"/>
</g>
<path opacity="0.2" d="M208.045 114.498L209.932 116.271C210.003 116.341 210.059 116.424 210.098 116.516C210.136 116.608 210.156 116.707 210.156 116.806C210.156 116.906 210.136 117.005 210.098 117.097C210.059 117.189 210.003 117.272 209.932 117.342L192.696 135.614C192.626 135.685 192.543 135.741 192.452 135.779C192.361 135.818 192.263 135.837 192.164 135.837C192.065 135.837 191.966 135.818 191.875 135.779C191.784 135.741 191.701 135.685 191.632 135.614L189.752 133.84C189.893 133.98 190.083 134.058 190.28 134.058C190.478 134.058 190.668 133.98 190.809 133.84L208.045 115.562C208.116 115.492 208.172 115.409 208.21 115.318C208.249 115.227 208.269 115.129 208.269 115.03C208.269 114.93 208.249 114.832 208.21 114.741C208.172 114.65 208.116 114.567 208.045 114.498Z" fill="black"/>
<g opacity="0.2">
<path opacity="0.2" d="M142.882 173.824L144.3 175.151C142.891 173.932 141.066 173.305 139.205 173.399C137.344 173.492 135.591 174.3 134.311 175.654C133.032 177.008 132.323 178.804 132.334 180.667C132.345 182.53 133.074 184.317 134.37 185.656L132.951 184.322C131.556 183.005 130.742 181.188 130.687 179.271C130.631 177.353 131.34 175.492 132.657 174.097C133.974 172.703 135.791 171.888 137.708 171.833C139.626 171.778 141.487 172.486 142.882 173.803V173.824Z" fill="black"/>
<path opacity="0.2" d="M152.451 172.888L153.87 174.222C156.583 176.886 158.144 180.507 158.217 184.309C158.29 188.111 156.87 191.79 154.26 194.556C151.651 197.322 148.062 198.955 144.262 199.104C140.462 199.252 136.756 197.906 133.938 195.352L132.52 194.026C135.328 196.639 139.056 198.036 142.89 197.911C146.724 197.786 150.353 196.149 152.985 193.358C155.617 190.567 157.038 186.848 156.938 183.013C156.838 179.178 155.225 175.538 152.451 172.888Z" fill="black"/>
</g>
<g opacity="0.2">
<path opacity="0.2" d="M142.882 173.824L144.3 175.151C142.891 173.932 141.066 173.305 139.205 173.399C137.344 173.492 135.591 174.3 134.311 175.654C133.032 177.008 132.323 178.804 132.334 180.667C132.345 182.53 133.074 184.317 134.37 185.656L132.951 184.322C131.556 183.005 130.742 181.188 130.687 179.271C130.631 177.353 131.34 175.492 132.657 174.097C133.974 172.703 135.791 171.888 137.708 171.833C139.626 171.778 141.487 172.486 142.882 173.803V173.824Z" fill="black"/>
<path opacity="0.2" d="M142.882 173.824L144.3 175.151C142.891 173.932 141.066 173.305 139.205 173.399C137.344 173.492 135.591 174.3 134.311 175.654C133.032 177.008 132.323 178.804 132.334 180.667C132.345 182.53 133.074 184.317 134.37 185.656L132.951 184.322C131.556 183.005 130.742 181.188 130.687 179.271C130.631 177.353 131.34 175.492 132.657 174.097C133.974 172.703 135.791 171.888 137.708 171.833C139.626 171.778 141.487 172.486 142.882 173.803V173.824Z" fill="black"/>
</g>
<path d="M132.085 174.456L137.298 173.151L136.717 169.342L130.361 170.625L132.085 174.456Z" fill="#B55B52"/>
<path d="M131.574 165.639L130.361 170.604L136.745 169.32C136.745 169.32 136.83 164.859 134.461 164.568L131.574 165.639Z" fill="#B55B52"/>
</g>
<defs>
<clipPath id="clip0_759_6960">
<rect width="328" height="328" fill="white" transform="translate(0.234375 0.0802002)"/>
</clipPath>
</defs>
</svg>
