<svg width="329" height="329" viewBox="0 0 329 329" fill="none" xmlns="http://www.w3.org/2000/svg">
<g clip-path="url(#clip0_3030_51570)">
<rect width="328" height="328" transform="translate(0.5 0.676514)" fill="white"/>
<path d="M348.792 258.442H-5.86328V258.619H348.792V258.442Z" fill="#EBEBEB"/>
<path d="M313.256 269.855H289.763V270.032H313.256V269.855Z" fill="#EBEBEB"/>
<path d="M229.075 271.784H222.911V271.961H229.075V271.784Z" fill="#EBEBEB"/>
<path d="M289.054 263.272H275.442V263.45H289.054V263.272Z" fill="#EBEBEB"/>
<path d="M61.9823 264.464H31.3472V264.641H61.9823V264.464Z" fill="#EBEBEB"/>
<path d="M72.7922 264.464H68.3022V264.641H72.7922V264.464Z" fill="#EBEBEB"/>
<path d="M153.838 267.457H87.3896V267.634H153.838V267.457Z" fill="#EBEBEB"/>
<path d="M173.741 99.1447C172.635 93.8466 170.539 88.8049 167.563 84.2846L172.883 77.8583L161.534 66.5093L155.107 71.8291C150.591 68.8448 145.552 66.7391 140.255 65.6226L139.474 57.345H123.359L122.578 65.6226C117.283 66.7283 112.243 68.8244 107.725 71.8007L101.299 66.4809L89.9502 77.8299L95.27 84.2562C92.2936 88.7766 90.1975 93.8182 89.0919 99.1163L80.8071 99.8966V115.977L89.0919 116.757C90.1988 122.055 92.2948 127.096 95.27 131.617L89.8934 138.072L101.242 149.421L107.669 144.101C112.185 147.08 117.225 149.176 122.522 150.279L123.302 158.564H139.389L140.169 150.279C145.468 149.175 150.51 147.079 155.029 144.101L161.456 149.421L172.805 138.072L167.485 131.645C170.46 127.124 172.556 122.083 173.663 116.785L181.948 116.005V99.9249L173.741 99.1447ZM153.171 107.961C153.171 112.268 151.894 116.478 149.501 120.059C147.108 123.64 143.707 126.432 139.728 128.08C135.749 129.728 131.371 130.159 127.147 129.319C122.923 128.479 119.043 126.405 115.997 123.359C112.952 120.314 110.878 116.434 110.038 112.21C109.198 107.986 109.629 103.607 111.277 99.6282C112.925 95.6491 115.716 92.2482 119.297 89.8555C122.878 87.4627 127.088 86.1856 131.395 86.1856C134.256 86.1837 137.089 86.7456 139.732 87.8392C142.375 88.9328 144.777 90.5366 146.8 92.559C148.823 94.5813 150.427 96.9826 151.522 99.6254C152.616 102.268 153.179 105.101 153.178 107.961H153.171Z" fill="#E0E0E0"/>
<path d="M219.875 176.339L220.407 182.262H231.962L232.522 176.311C236.328 175.517 239.949 174.013 243.197 171.877L247.815 175.701L255.993 167.522L252.17 162.905C254.307 159.658 255.812 156.036 256.603 152.23L262.554 151.669V140.143L256.603 139.583C255.812 135.777 254.307 132.154 252.17 128.907L255.993 124.29L247.815 116.119L243.197 119.942C239.951 117.801 236.329 116.294 232.522 115.501L231.962 109.55H220.407L219.847 115.501C216.04 116.295 212.418 117.802 209.172 119.942L204.554 116.119L196.383 124.29L200.206 128.907C198.066 132.154 196.56 135.776 195.766 139.583L189.814 140.143V151.698L195.766 152.258C196.56 156.064 198.066 159.686 200.206 162.933L196.383 167.551L204.554 175.729L209.172 171.906C212.429 174.044 216.06 175.548 219.875 176.339ZM226.216 161.564C223.119 161.565 220.092 160.648 217.517 158.927C214.942 157.207 212.935 154.761 211.751 151.9C210.567 149.038 210.258 145.89 210.865 142.853C211.471 139.816 212.965 137.027 215.157 134.84C217.35 132.652 220.142 131.165 223.18 130.565C226.218 129.966 229.366 130.281 232.225 131.472C235.084 132.663 237.525 134.675 239.24 137.254C240.954 139.833 241.865 142.862 241.857 145.959C241.845 150.101 240.193 154.069 237.261 156.994C234.329 159.919 230.358 161.562 226.216 161.564Z" fill="#E0E0E0"/>
<path d="M72.5225 233.276L72.8063 236.311H78.7006L78.9914 233.283C80.9313 232.874 82.7769 232.104 84.4319 231.013L86.7868 232.964L90.9575 228.8L89.0069 226.445C90.0973 224.788 90.8649 222.939 91.2696 220.997L94.3055 220.714V214.819L91.2696 214.536C90.8649 212.594 90.0973 210.745 89.0069 209.088L90.9575 206.733L86.7868 202.562L84.4319 204.513C82.7765 203.424 80.9309 202.656 78.9914 202.25L78.7006 199.214H72.8063L72.5225 202.25C70.5831 202.656 68.7375 203.424 67.0821 204.513L64.7272 202.562L60.5564 206.733L62.5071 209.088C61.4134 210.744 60.6454 212.592 60.2443 214.536L57.2085 214.819V220.714L60.2443 220.997C60.6454 222.941 61.4134 224.789 62.5071 226.445L60.5564 228.8L64.7272 232.964L67.0821 231.013C68.7359 232.105 70.5821 232.873 72.5225 233.276ZM75.757 225.743C74.1787 225.743 72.6359 225.275 71.3237 224.398C70.0114 223.521 68.9886 222.275 68.3847 220.817C67.7807 219.359 67.6227 217.754 67.9306 216.206C68.2385 214.658 68.9985 213.236 70.1145 212.12C71.2304 211.004 72.6523 210.244 74.2002 209.937C75.7481 209.629 77.3526 209.787 78.8107 210.391C80.2688 210.995 81.5151 212.017 82.3919 213.33C83.2687 214.642 83.7367 216.185 83.7367 217.763C83.7367 218.811 83.5303 219.849 83.1293 220.817C82.7283 221.785 82.1405 222.665 81.3995 223.406C80.6585 224.146 79.7789 224.734 78.8107 225.135C77.8426 225.536 76.8049 225.743 75.757 225.743Z" fill="#F0F0F0"/>
<path d="M284.422 218.55L284.656 221.047H289.508L289.742 218.55C291.34 218.216 292.861 217.583 294.225 216.685L296.161 218.295L299.595 214.862L297.984 212.925C298.884 211.562 299.517 210.041 299.85 208.443L302.347 208.209V203.357L299.85 203.123C299.515 201.524 298.882 200.004 297.984 198.64L299.595 196.703L296.161 193.27L294.225 194.881C292.861 193.982 291.34 193.35 289.742 193.015L289.508 190.518H284.656L284.422 193.015C282.824 193.35 281.303 193.982 279.939 194.881L278.003 193.27L274.57 196.703L276.18 198.64C275.282 200.004 274.649 201.524 274.315 203.123L271.818 203.357V208.209L274.315 208.443C274.648 210.041 275.281 211.562 276.18 212.925L274.57 214.89L278.003 218.323L279.939 216.713C281.305 217.601 282.826 218.225 284.422 218.55ZM287.082 212.351C285.783 212.351 284.513 211.966 283.433 211.244C282.353 210.522 281.511 209.496 281.014 208.296C280.517 207.096 280.387 205.775 280.64 204.501C280.894 203.227 281.519 202.057 282.438 201.138C283.356 200.22 284.527 199.594 285.801 199.341C287.075 199.087 288.396 199.217 289.596 199.714C290.796 200.212 291.822 201.053 292.544 202.134C293.265 203.214 293.65 204.484 293.65 205.783C293.649 207.524 292.956 209.194 291.725 210.425C290.493 211.656 288.824 212.349 287.082 212.351Z" fill="#F0F0F0"/>
<path d="M158.505 257.271H172.266L172.933 250.178C177.468 249.241 181.784 247.45 185.651 244.901L191.148 249.455L200.866 239.716L196.29 234.226C198.836 230.36 200.627 226.047 201.568 221.515L208.661 220.848V207.088L201.568 206.421C200.626 201.891 198.835 197.581 196.29 193.717L200.837 188.22L191.105 178.488L185.651 183.035C181.786 180.491 177.476 178.698 172.947 177.751L172.28 170.657H158.52L157.853 177.751C153.321 178.697 149.009 180.49 145.142 183.035L139.645 178.488L129.899 188.22L134.453 193.717C131.903 197.579 130.11 201.89 129.168 206.421L122.075 207.088V220.848L129.168 221.515C130.108 226.049 131.902 230.362 134.453 234.226L129.899 239.716L139.631 249.448L145.128 244.894C148.992 247.445 153.305 249.238 157.839 250.178L158.505 257.271ZM165.386 232.595C161.702 232.595 158.101 231.502 155.037 229.455C151.974 227.409 149.587 224.5 148.177 221.096C146.767 217.693 146.398 213.947 147.117 210.334C147.836 206.721 149.61 203.402 152.215 200.797C154.82 198.192 158.139 196.418 161.752 195.699C165.365 194.981 169.11 195.35 172.514 196.759C175.917 198.169 178.826 200.557 180.873 203.62C182.92 206.683 184.012 210.284 184.012 213.968C184.016 216.416 183.537 218.842 182.603 221.105C181.668 223.368 180.297 225.425 178.567 227.157C176.837 228.89 174.782 230.264 172.52 231.202C170.259 232.14 167.834 232.623 165.386 232.623V232.595Z" fill="#E0E0E0"/>
<path d="M235.416 232.098L234.707 230.679C233.565 228.507 231.607 226.877 229.263 226.147C226.92 225.417 224.383 225.646 222.209 226.785L218.889 228.523C216.718 229.668 215.089 231.627 214.359 233.971C213.629 236.315 213.858 238.853 214.995 241.028L215.704 242.411L213.392 243.631L221.726 259.506L246.063 246.738L237.729 230.857L235.416 232.098ZM230.338 244.241L231.792 247.015L230.033 247.944L228.578 245.171C228.243 245.158 227.916 245.057 227.632 244.879C227.347 244.701 227.113 244.452 226.954 244.156C226.819 243.927 226.732 243.672 226.698 243.408C226.664 243.144 226.684 242.876 226.757 242.62C226.83 242.364 226.954 242.125 227.122 241.918C227.29 241.712 227.498 241.542 227.734 241.418C227.97 241.294 228.228 241.22 228.494 241.199C228.759 241.178 229.026 241.212 229.278 241.297C229.53 241.383 229.762 241.519 229.96 241.697C230.158 241.875 230.318 242.092 230.43 242.333C230.583 242.631 230.656 242.965 230.64 243.3C230.623 243.635 230.519 243.96 230.338 244.241ZM231.756 234.042L219.35 240.553L218.641 239.134C218.011 237.928 217.886 236.521 218.291 235.222C218.697 233.924 219.6 232.838 220.804 232.204L224.117 230.467C225.319 229.834 226.722 229.703 228.021 230.102C229.319 230.5 230.407 231.397 231.047 232.594L231.756 234.042Z" fill="#F0F0F0"/>
<path d="M65.2879 147.754L65.8057 146.278C66.6078 143.959 66.458 141.416 65.3892 139.206C64.3203 136.997 62.4194 135.301 60.1028 134.49L56.5563 133.263C54.2338 132.462 51.6886 132.616 49.4796 133.691C47.2706 134.765 45.5784 136.673 44.7746 138.994L44.2568 140.476L41.7955 139.618L35.9082 156.563L61.8761 165.558L67.7563 148.612L65.2879 147.754ZM52.96 152.371L51.9315 155.308L50.0519 154.655L51.0804 151.698C50.86 151.445 50.7093 151.14 50.6434 150.811C50.5774 150.483 50.5985 150.143 50.7044 149.825C50.8766 149.331 51.2378 148.926 51.7087 148.699C52.1796 148.471 52.7216 148.44 53.2154 148.612C53.7092 148.784 54.1144 149.145 54.3419 149.616C54.5694 150.087 54.6005 150.629 54.4283 151.123C54.3139 151.441 54.1181 151.724 53.8605 151.943C53.6029 152.162 53.2925 152.31 52.96 152.371ZM61.3938 146.406L48.158 141.831L48.6687 140.349C49.1177 139.064 50.0573 138.011 51.2817 137.418C52.5061 136.825 53.9156 136.741 55.2015 137.185L58.748 138.412C60.0334 138.86 61.0885 139.799 61.6817 141.024C62.2748 142.249 62.3575 143.659 61.9116 144.945L61.3938 146.406Z" fill="#F0F0F0"/>
<path d="M297.672 139.469L296.154 138.987C298.233 138.618 300.128 137.564 301.537 135.992C302.946 134.421 303.787 132.422 303.927 130.316C304.067 128.21 303.497 126.117 302.308 124.373C301.119 122.629 299.38 121.334 297.368 120.694C295.357 120.054 293.189 120.107 291.211 120.844C289.233 121.581 287.559 122.959 286.456 124.759C285.354 126.559 284.886 128.676 285.128 130.773C285.37 132.87 286.308 134.825 287.792 136.327L286.281 135.844C284.067 135.137 281.662 135.338 279.596 136.402C277.529 137.466 275.969 139.306 275.258 141.519L273.74 146.3L301.857 155.23L303.397 150.485C303.745 149.386 303.874 148.228 303.775 147.08C303.676 145.931 303.352 144.813 302.82 143.789C302.288 142.766 301.56 141.858 300.677 141.116C299.793 140.375 298.772 139.815 297.672 139.469Z" fill="#F0F0F0"/>
<path d="M195.716 53.8056L194.772 54.2028C195.637 53.1538 196.124 51.8454 196.158 50.4866C196.191 49.1278 195.768 47.7971 194.956 46.707C194.144 45.6169 192.991 44.8303 191.679 44.4728C190.368 44.1153 188.975 44.2077 187.722 44.735C186.47 45.2624 185.43 46.1943 184.769 47.382C184.108 48.5697 183.864 49.9446 184.077 51.2871C184.289 52.6296 184.945 53.8622 185.94 54.788C186.935 55.7139 188.212 56.2795 189.566 56.3946L188.623 56.7918C187.247 57.3772 186.158 58.4819 185.592 59.8659C185.026 61.2499 185.029 62.8012 185.601 64.1828L186.849 67.1619L204.362 59.7993L203.107 56.8272C202.521 55.4514 201.417 54.3623 200.033 53.7965C198.649 53.2306 197.097 53.2339 195.716 53.8056Z" fill="#F0F0F0"/>
<path d="M68.969 73.7371L67.9689 73.5314C69.28 73.1596 70.4286 72.359 71.2312 71.2576C72.0337 70.1561 72.4438 68.8174 72.3959 67.4554C72.3481 66.0935 71.8449 64.7869 70.967 63.7445C70.0891 62.7021 68.8871 61.9842 67.5531 61.7054C66.2191 61.4266 64.8301 61.6031 63.6082 62.2067C62.3864 62.8103 61.4021 63.806 60.8128 65.0349C60.2235 66.2637 60.0632 67.6546 60.3575 68.9853C60.6518 70.3159 61.3837 71.5095 62.4362 72.3752L61.4361 72.1695C59.9663 71.8719 58.4385 72.1681 57.1865 72.9935C55.9345 73.8188 55.0601 75.1063 54.7544 76.5744L54.0947 79.7308L72.6858 83.6036L73.3454 80.4472C73.6522 78.9773 73.3639 77.4457 72.5435 76.188C71.7232 74.9302 70.4378 74.0489 68.969 73.7371Z" fill="#F0F0F0"/>
<path d="M227.964 190.782C230.176 186.928 233.827 184.109 238.116 182.944C242.405 181.779 246.981 182.363 250.839 184.569L250.13 185.768L254.882 184.477L253.591 179.724L252.882 180.916C248.575 178.448 243.533 177.588 238.652 178.488C233.772 179.388 229.368 181.991 226.226 185.833C223.084 189.675 221.406 194.507 221.492 199.469C221.578 204.432 223.421 209.203 226.694 212.934L229.857 210.161C227.562 207.531 226.146 204.249 225.806 200.775C225.467 197.301 226.221 193.807 227.964 190.782Z" fill="#263238"/>
<path d="M258.464 185.548L255.272 188.25C257.824 191.257 259.234 195.069 259.254 199.013C259.274 202.957 257.901 206.782 255.379 209.815C252.857 212.847 249.346 214.893 245.464 215.592C241.582 216.291 237.577 215.599 234.156 213.636L234.865 212.438L230.091 213.785L231.382 218.538L232.092 217.339C236.375 219.776 241.38 220.627 246.229 219.742C251.077 218.857 255.459 216.293 258.606 212.499C261.752 208.706 263.463 203.926 263.437 198.998C263.411 194.069 261.65 189.308 258.464 185.548Z" fill="#263238"/>
<g opacity="0.6">
<path opacity="0.6" d="M227.964 190.782C230.176 186.928 233.827 184.109 238.116 182.944C242.405 181.779 246.981 182.363 250.839 184.569L250.13 185.768L254.882 184.477L253.591 179.724L252.882 180.916C248.575 178.448 243.533 177.588 238.652 178.488C233.772 179.388 229.368 181.991 226.226 185.833C223.084 189.675 221.406 194.507 221.492 199.469C221.578 204.432 223.421 209.203 226.694 212.934L229.857 210.161C227.562 207.531 226.146 204.249 225.806 200.775C225.467 197.301 226.221 193.807 227.964 190.782Z" fill="white"/>
<path opacity="0.6" d="M258.464 185.548L255.272 188.25C257.824 191.257 259.234 195.069 259.254 199.013C259.274 202.957 257.901 206.782 255.379 209.815C252.857 212.847 249.346 214.893 245.464 215.592C241.582 216.291 237.577 215.599 234.156 213.636L234.865 212.438L230.091 213.785L231.382 218.538L232.092 217.339C236.375 219.776 241.38 220.627 246.229 219.742C251.077 218.857 255.459 216.293 258.606 212.499C261.752 208.706 263.463 203.926 263.437 198.998C263.411 194.069 261.65 189.308 258.464 185.548Z" fill="white"/>
</g>
<path d="M239.469 179.235H234.844V165.049C234.844 162.439 233.808 159.937 231.963 158.092C230.118 156.247 227.616 155.211 225.006 155.211C222.397 155.211 219.895 156.247 218.05 158.092C216.205 159.937 215.168 162.439 215.168 165.049V179.235H210.543V165.049C210.543 161.213 212.067 157.534 214.78 154.822C217.492 152.11 221.171 150.586 225.006 150.586C228.842 150.586 232.521 152.11 235.233 154.822C237.945 157.534 239.469 161.213 239.469 165.049V179.235Z" fill="#263238"/>
<g opacity="0.3">
<path opacity="0.3" d="M239.469 179.235H234.844V165.049C234.844 162.439 233.808 159.937 231.963 158.092C230.118 156.247 227.616 155.211 225.006 155.211C222.397 155.211 219.895 156.247 218.05 158.092C216.205 159.937 215.168 162.439 215.168 165.049V179.235H210.543V165.049C210.543 161.213 212.067 157.534 214.78 154.822C217.492 152.11 221.171 150.586 225.006 150.586C228.842 150.586 232.521 152.11 235.233 154.822C237.945 157.534 239.469 161.213 239.469 165.049V179.235Z" fill="white"/>
</g>
<path d="M244.767 175.624V198.84C244.767 199.194 244.698 199.545 244.562 199.872C244.427 200.199 244.228 200.496 243.978 200.746C243.728 200.996 243.431 201.195 243.104 201.33C242.777 201.466 242.426 201.536 242.072 201.536H207.926C207.573 201.535 207.223 201.464 206.898 201.328C206.572 201.192 206.276 200.993 206.027 200.743C205.778 200.493 205.581 200.196 205.447 199.869C205.312 199.543 205.244 199.193 205.245 198.84V175.624C205.244 175.271 205.312 174.922 205.447 174.595C205.581 174.269 205.778 173.972 206.027 173.721C206.276 173.471 206.572 173.272 206.898 173.136C207.223 173 207.573 172.93 207.926 172.929H242.072C242.519 172.926 242.959 173.038 243.349 173.255C243.778 173.484 244.138 173.825 244.388 174.243C244.638 174.66 244.769 175.138 244.767 175.624Z" fill="#FF5C8A"/>
<path opacity="0.2" d="M243.349 173.255V196.003C243.349 196.357 243.279 196.707 243.144 197.033C243.008 197.36 242.809 197.657 242.559 197.906C242.309 198.156 242.011 198.354 241.684 198.489C241.357 198.623 241.007 198.692 240.653 198.691H206.507C206.066 198.693 205.632 198.583 205.245 198.372V175.624C205.244 175.271 205.312 174.922 205.447 174.595C205.581 174.269 205.778 173.972 206.027 173.721C206.276 173.471 206.572 173.272 206.898 173.136C207.223 173 207.573 172.93 207.926 172.929H242.072C242.519 172.926 242.959 173.038 243.349 173.255Z" fill="white"/>
<path opacity="0.5" d="M230.092 184.321C230.079 183.395 229.814 182.49 229.324 181.704C228.835 180.918 228.141 180.281 227.316 179.86C226.491 179.44 225.567 179.253 224.643 179.319C223.72 179.385 222.832 179.702 222.075 180.236C221.319 180.769 220.722 181.499 220.35 182.347C219.978 183.195 219.844 184.128 219.963 185.046C220.082 185.964 220.45 186.832 221.026 187.557C221.602 188.282 222.365 188.835 223.233 189.158L222.999 195.343H227.063L226.46 189.279C227.518 188.951 228.441 188.293 229.095 187.4C229.749 186.507 230.099 185.427 230.092 184.321Z" fill="black"/>
<path d="M160.434 88.062L162.789 95.6304L165.137 88.062H160.434Z" fill="#FF5C8A"/>
<path d="M182.039 69.9817H143.531C140.166 69.9817 137.438 72.7096 137.438 76.0747V84.2814C137.438 87.6465 140.166 90.3744 143.531 90.3744H182.039C185.405 90.3744 188.132 87.6465 188.132 84.2814V76.0747C188.132 72.7096 185.405 69.9817 182.039 69.9817Z" fill="#FF5C8A"/>
<path d="M149.354 80.1674L150.688 80.9193L150.34 81.5293L148.985 80.7349V82.2599H148.276V80.7349L146.921 81.5293L146.574 80.9193L147.921 80.1674L146.574 79.4581L146.921 78.8339L148.276 79.6283V78.082H148.985V79.5929L150.34 78.7984L150.688 79.4226L149.354 80.1674Z" fill="white"/>
<path d="M154.064 80.1674L155.398 80.9193L155.05 81.5293L153.695 80.7349V82.2599H153.029V80.7349L151.66 81.5293L151.312 80.9193L152.66 80.1674L151.312 79.4581L151.66 78.8339L153.014 79.6283V78.082H153.681V79.5929L155.036 78.7984L155.383 79.4226L154.064 80.1674Z" fill="white"/>
<path d="M158.753 80.1673L160.086 80.9192L159.739 81.5292L158.384 80.7348V82.2598H157.675V80.7348L156.32 81.5292L155.972 80.9192L157.313 80.1673L155.972 79.458L156.32 78.8338L157.675 79.6283V78.1174H158.384V79.6283L159.739 78.8338L160.086 79.458L158.753 80.1673Z" fill="white"/>
<path d="M163.484 80.1673L164.817 80.9192L164.47 81.5292L163.115 80.7348V82.2598H162.441V80.7348L161.086 81.5292L160.739 80.9192L162.079 80.1673L160.739 79.458L161.086 78.8338L162.441 79.6283V78.1174H163.115V79.6283L164.47 78.8338L164.817 79.458L163.484 80.1673Z" fill="white"/>
<path d="M168.194 80.1673L169.527 80.9192L169.18 81.5292L167.818 80.7348V82.2598H167.108V80.7348L165.846 81.5292L165.491 80.9192L166.839 80.1673L165.491 79.458L165.846 78.8338L167.201 79.6283V78.1174H167.91V79.6283L169.272 78.8338L169.619 79.458L168.194 80.1673Z" fill="white"/>
<path d="M172.896 80.1673L174.237 80.9192L173.889 81.5292L172.527 80.7348V82.2598H171.853V80.7348L170.492 81.5292L170.144 80.9192L171.492 80.1673L170.144 79.458L170.492 78.8338L171.853 79.6283V78.1174H172.527V79.6283L173.889 78.8338L174.237 79.458L172.896 80.1673Z" fill="white"/>
<path d="M177.606 80.1674L178.94 80.9193L178.592 81.5293L177.237 80.7349V82.2599H176.528V80.7349L175.173 81.5293L174.826 80.9193L176.173 80.1674L174.826 79.4581L175.173 78.8339L176.528 79.6283V78.082H177.237V79.5929L178.592 78.7984L178.94 79.4226L177.606 80.1674Z" fill="white"/>
<path d="M193.558 140.906L197.885 138.104L193.012 135.111C193.012 135.111 189.302 137.841 190.792 139.693L193.558 140.906Z" fill="#B55B52"/>
<path d="M200.105 133.501L195.041 132.351L193.012 135.111L197.885 138.104L200.105 133.501Z" fill="#B55B52"/>
<path d="M175.776 131.812C178.514 135.955 181.259 140.991 184.997 144.218C185.068 144.275 185.039 144.218 184.763 144.218C184.621 144.254 184.692 144.325 184.982 144.218C185.834 143.733 186.583 143.087 187.188 142.317C188.576 140.636 189.81 138.834 190.877 136.933C190.926 136.855 190.877 136.933 190.877 137.019C190.859 137.148 190.859 137.279 190.877 137.409C190.941 137.473 190.714 137.288 191.153 138.26C191.361 138.57 191.655 138.812 192 138.954C192.345 139.097 192.724 139.134 193.09 139.061C193.324 139.011 193.545 138.912 193.739 138.772C193.934 138.632 194.096 138.452 194.218 138.246C194.107 138.377 194.007 138.517 193.92 138.664L190.742 137.309C190.819 136.858 191.004 136.432 191.281 136.068C191.538 135.779 191.877 135.576 192.253 135.486C192.622 135.414 193.003 135.453 193.35 135.596C193.697 135.74 193.994 135.983 194.203 136.295C194.643 137.274 194.423 137.09 194.487 137.16C194.495 137.387 194.474 137.613 194.423 137.834C193.31 142.565 190.402 150.361 184.372 150.403C180.117 150.013 176.889 145.339 174.499 142.388C172.802 140.116 171.239 137.748 169.817 135.295L175.74 131.819L175.776 131.812Z" fill="#B55B52"/>
<path d="M173.591 128.698C176.428 129.635 182.181 142.707 182.181 142.707L172.406 147.346C172.406 147.346 170.42 137.075 170.811 133.763C171.055 131.781 172.05 129.969 173.591 128.698Z" fill="#FF5C8A"/>
<path opacity="0.7" d="M173.591 128.698C176.428 129.635 182.181 142.707 182.181 142.707L172.406 147.346C172.406 147.346 170.42 137.075 170.811 133.763C171.055 131.781 172.05 129.969 173.591 128.698Z" fill="white"/>
<path d="M185.082 280.257L180.103 281.668L178.918 273.916L178.28 269.773L183.259 268.362L184.11 273.916L185.082 280.257Z" fill="#B55B52"/>
<path d="M156.454 280.661L151.319 281.342L151.269 273.916L151.233 269.298L156.376 268.631L156.411 273.916L156.454 280.661Z" fill="#B55B52"/>
<path opacity="0.2" d="M156.376 268.631L156.411 273.916H151.269L151.233 269.298L156.376 268.631Z" fill="black"/>
<path opacity="0.2" d="M184.11 273.916H178.918L178.28 269.773L183.259 268.362L184.11 273.916Z" fill="black"/>
<path d="M184.997 279.477L179.322 279.328C179.219 279.324 179.118 279.356 179.035 279.418C178.953 279.48 178.894 279.568 178.868 279.668L177.684 284.222C177.646 284.332 177.637 284.449 177.655 284.563C177.674 284.678 177.72 284.786 177.79 284.878C177.86 284.971 177.951 285.045 178.057 285.093C178.162 285.142 178.277 285.164 178.393 285.158C180.436 285.158 183.358 285.158 185.947 285.208C188.947 285.293 190.856 285.144 194.374 285.208C196.502 285.265 197.161 283.144 196.282 282.924C192.26 281.931 189.636 282.13 186.21 279.888C185.851 279.642 185.431 279.5 184.997 279.477Z" fill="#263238"/>
<path d="M185.429 280.108C185.425 280.083 185.429 280.057 185.44 280.034C185.452 280.011 185.47 279.992 185.493 279.98C185.734 279.867 187.855 278.867 188.472 279.236C188.531 279.269 188.579 279.318 188.613 279.376C188.647 279.435 188.664 279.501 188.664 279.569C188.671 279.68 188.651 279.792 188.607 279.894C188.562 279.996 188.494 280.087 188.409 280.158C187.827 280.64 186.352 280.399 185.522 280.207C185.498 280.203 185.476 280.191 185.459 280.173C185.443 280.155 185.432 280.132 185.429 280.108ZM185.933 280.051C187.075 280.271 187.926 280.243 188.253 279.966C188.31 279.922 188.356 279.863 188.384 279.796C188.413 279.729 188.424 279.656 188.416 279.583C188.418 279.556 188.412 279.529 188.4 279.505C188.387 279.482 188.368 279.462 188.345 279.448H188.302C187.912 279.285 186.77 279.682 185.933 280.051Z" fill="#FF5C8A"/>
<path d="M185.472 280.186C185.455 280.175 185.441 280.159 185.434 280.14C185.426 280.12 185.425 280.1 185.429 280.08C185.504 279.349 185.81 278.66 186.302 278.115C186.399 278.034 186.513 277.974 186.636 277.941C186.758 277.908 186.886 277.902 187.011 277.923C187.345 277.966 187.437 278.136 187.458 278.278C187.529 278.86 186.252 279.945 185.614 280.207C185.586 280.214 185.557 280.214 185.529 280.207L185.472 280.186ZM186.954 278.164C186.865 278.152 186.775 278.159 186.688 278.183C186.601 278.208 186.521 278.25 186.451 278.306C186.058 278.743 185.81 279.291 185.742 279.874C186.394 279.512 187.267 278.661 187.217 278.306C187.217 278.306 187.217 278.228 187.111 278.193L186.954 278.164Z" fill="#FF5C8A"/>
<path d="M156.248 279.477L150.574 279.328C150.471 279.324 150.37 279.356 150.287 279.418C150.205 279.48 150.146 279.568 150.12 279.668L148.928 284.222C148.899 284.331 148.895 284.446 148.917 284.557C148.939 284.668 148.986 284.773 149.054 284.863C149.123 284.954 149.211 285.027 149.312 285.078C149.413 285.129 149.524 285.157 149.638 285.158C151.673 285.158 154.603 285.158 157.192 285.208C160.192 285.293 162.093 285.144 165.611 285.208C167.739 285.265 168.406 283.144 167.519 282.924C163.505 281.931 160.873 282.13 157.454 279.888C157.097 279.644 156.68 279.502 156.248 279.477Z" fill="#263238"/>
<path d="M156.625 280.108C156.621 280.082 156.626 280.055 156.639 280.032C156.652 280.009 156.672 279.991 156.696 279.98C156.937 279.867 159.051 278.867 159.668 279.236C159.726 279.269 159.775 279.318 159.808 279.376C159.842 279.435 159.86 279.501 159.859 279.569C159.867 279.68 159.848 279.791 159.805 279.893C159.762 279.995 159.696 280.086 159.611 280.158C159.022 280.64 157.547 280.399 156.717 280.207C156.694 280.201 156.673 280.188 156.657 280.171C156.64 280.153 156.629 280.132 156.625 280.108ZM157.135 280.051C158.27 280.271 159.129 280.243 159.455 279.966C159.512 279.921 159.556 279.862 159.585 279.795C159.613 279.728 159.625 279.655 159.618 279.583C159.618 279.556 159.611 279.529 159.597 279.505C159.583 279.482 159.564 279.462 159.54 279.448H159.497C159.143 279.285 158.001 279.682 157.164 280.051H157.135Z" fill="#FF5C8A"/>
<path d="M156.702 280.186C156.684 280.175 156.67 280.159 156.661 280.14C156.653 280.121 156.649 280.1 156.653 280.08C156.73 279.348 157.038 278.66 157.532 278.115C157.629 278.033 157.743 277.974 157.866 277.941C157.988 277.908 158.116 277.902 158.241 277.923C158.575 277.966 158.667 278.136 158.681 278.278C158.759 278.86 157.475 279.945 156.844 280.207C156.814 280.214 156.782 280.214 156.752 280.207L156.702 280.186ZM158.185 278.164C158.095 278.152 158.005 278.158 157.918 278.183C157.831 278.207 157.751 278.249 157.681 278.306C157.291 278.745 157.044 279.291 156.972 279.874C157.624 279.512 158.497 278.661 158.454 278.306C158.448 278.278 158.434 278.253 158.414 278.233C158.394 278.213 158.368 278.199 158.341 278.193C158.291 278.174 158.238 278.164 158.185 278.164Z" fill="#FF5C8A"/>
<path d="M145.864 167.81C143.14 179.599 147.808 272.355 147.808 272.355H156.83L160.689 195.04L174.875 272.355L184.522 271.646C178.216 211.766 172.648 176.017 172.648 176.017V171.498L145.864 167.81Z" fill="#263238"/>
<path d="M184.535 271.632L174.889 272.341L163.717 211.482L160.695 195.033L156.837 272.348H147.814C147.814 272.348 143.147 179.577 145.864 167.81L172.676 171.505V176.024C172.676 176.024 178.23 211.787 184.535 271.632Z" fill="#1C2D5E"/>
<path d="M145.275 127.94C146.22 133.505 146.749 139.134 146.857 144.779C146.949 148.715 146.857 152.46 146.722 155.851C146.368 163.802 145.602 169.817 145.637 171.881L172.704 172.364C179.159 144.062 173.612 128.699 173.612 128.699C171.514 128.116 169.382 127.661 167.229 127.337C166.756 127.275 166.283 127.218 165.81 127.166C161.982 126.875 158.141 126.804 154.305 126.954C153.596 126.954 152.837 127.017 152.12 127.074C148.503 127.379 145.275 127.94 145.275 127.94Z" fill="#FF5C8A"/>
<path d="M166.69 128.089C166.69 128.089 165.08 130.422 163.789 130.585C161.959 130.834 155.277 126.741 155.277 126.741C156.823 125.599 157.582 123.109 157.915 120.478C158.154 118.342 158.199 116.188 158.05 114.044L164.299 120.839C163.477 122.967 162.987 125.237 164.604 126.833C165.199 127.4 165.911 127.828 166.69 128.089Z" fill="#B55B52"/>
<path opacity="0.2" d="M164.59 126.812C161.837 125.31 159.53 123.108 157.901 120.428C158.14 118.292 158.185 116.139 158.036 113.995L164.285 120.79C163.462 122.939 163.008 125.251 164.59 126.812Z" fill="black"/>
<path d="M171.52 107.916C172.052 109.88 171.52 113.867 168.881 112.448C166.243 111.029 170.633 104.525 171.52 107.916Z" fill="#263238"/>
<path d="M157.419 109.937C156.901 114.902 156.347 117.811 158.426 120.74C161.561 125.138 168.051 123.826 170.044 119.08C171.846 114.824 172.385 107.377 167.867 104.653C166.864 104.05 165.725 103.712 164.556 103.669C163.387 103.627 162.227 103.881 161.183 104.409C160.139 104.937 159.246 105.721 158.588 106.688C157.93 107.655 157.527 108.773 157.419 109.937Z" fill="#B55B52"/>
<path d="M161.036 107.369L161.284 101.787C161.284 101.787 155.355 101.078 155.489 104.142C152.127 105.632 153.461 110.817 157.773 113.519C160.284 111.689 160.206 107.001 160.206 107.001C160.462 107.128 160.745 107.249 161.036 107.369Z" fill="#263238"/>
<path d="M154.83 113.732C154.921 114.348 155.133 114.94 155.455 115.473C155.776 116.007 156.2 116.471 156.702 116.839C158.05 117.818 159.32 116.74 159.433 115.165C159.54 113.746 158.965 111.526 157.376 111.171C157.026 111.102 156.664 111.121 156.322 111.226C155.98 111.33 155.67 111.517 155.418 111.771C155.166 112.024 154.981 112.335 154.878 112.678C154.775 113.02 154.759 113.382 154.83 113.732Z" fill="#B55B52"/>
<path d="M164.704 112.484C164.633 112.888 164.796 113.243 165.058 113.285C165.321 113.328 165.59 113.037 165.654 112.633C165.718 112.228 165.562 111.874 165.299 111.831C165.037 111.788 164.767 112.079 164.704 112.484Z" fill="#263238"/>
<path d="M169.257 113.193C169.193 113.597 169.356 113.959 169.619 113.994C169.881 114.03 170.151 113.746 170.215 113.342C170.278 112.938 170.122 112.583 169.86 112.54C169.597 112.498 169.328 112.796 169.257 113.193Z" fill="#263238"/>
<path d="M167.774 113.193C168.079 114.458 168.557 115.675 169.193 116.81C168.883 116.949 168.547 117.02 168.207 117.02C167.867 117.02 167.532 116.949 167.221 116.81L167.774 113.193Z" fill="#A02724"/>
<path d="M164.803 118.016C164.972 118.07 165.145 118.11 165.321 118.137C165.352 118.141 165.383 118.133 165.408 118.114C165.433 118.096 165.45 118.068 165.456 118.037C165.459 118.022 165.458 118.005 165.455 117.99C165.452 117.974 165.445 117.959 165.436 117.946C165.427 117.932 165.415 117.921 165.401 117.912C165.387 117.904 165.372 117.898 165.356 117.896C164.856 117.829 164.378 117.645 163.961 117.359C163.545 117.073 163.201 116.693 162.959 116.25C162.953 116.235 162.945 116.221 162.934 116.21C162.923 116.198 162.91 116.189 162.895 116.183C162.88 116.177 162.864 116.174 162.849 116.175C162.833 116.175 162.817 116.179 162.803 116.186C162.774 116.199 162.751 116.222 162.739 116.251C162.727 116.28 162.727 116.313 162.739 116.342C162.95 116.748 163.242 117.105 163.597 117.393C163.952 117.681 164.363 117.893 164.803 118.016Z" fill="#263238"/>
<path d="M163.54 110.795C163.58 110.809 163.624 110.811 163.665 110.801C163.707 110.791 163.744 110.769 163.774 110.739C163.988 110.525 164.249 110.364 164.535 110.268C164.822 110.172 165.127 110.144 165.427 110.185C165.457 110.192 165.488 110.193 165.519 110.188C165.55 110.183 165.579 110.172 165.605 110.156C165.632 110.139 165.655 110.118 165.673 110.092C165.691 110.067 165.704 110.038 165.71 110.008C165.717 109.978 165.718 109.946 165.713 109.916C165.708 109.885 165.697 109.856 165.681 109.83C165.664 109.803 165.643 109.78 165.617 109.762C165.592 109.744 165.563 109.731 165.533 109.724C165.157 109.66 164.771 109.688 164.408 109.806C164.045 109.923 163.715 110.126 163.448 110.398C163.403 110.443 163.377 110.505 163.377 110.568C163.377 110.632 163.403 110.693 163.448 110.739C163.474 110.764 163.506 110.783 163.54 110.795Z" fill="#263238"/>
<path d="M171.52 111.937C171.564 111.952 171.611 111.952 171.654 111.937C171.715 111.919 171.767 111.878 171.797 111.822C171.828 111.766 171.835 111.701 171.818 111.64C171.718 111.274 171.531 110.937 171.273 110.659C171.014 110.381 170.693 110.17 170.335 110.044C170.274 110.028 170.209 110.036 170.154 110.066C170.099 110.097 170.057 110.147 170.037 110.207C170.02 110.268 170.027 110.334 170.057 110.389C170.088 110.445 170.139 110.487 170.2 110.505C170.484 110.605 170.738 110.774 170.94 110.997C171.142 111.22 171.285 111.489 171.357 111.781C171.369 111.819 171.39 111.853 171.419 111.88C171.447 111.907 171.482 111.927 171.52 111.937Z" fill="#263238"/>
<path d="M155.49 104.142C155.49 104.142 152.425 101.099 162.824 101.376C173.222 101.652 174.953 107.483 170.187 108.838L169.974 107.887C169.155 108.309 168.256 108.552 167.336 108.598C166.416 108.645 165.497 108.494 164.64 108.157L165.392 107.689C165.392 107.689 158.291 108.412 155.49 104.142Z" fill="#263238"/>
<path d="M163.789 130.564C163.789 130.564 162.462 132.096 160.951 133.607C158.746 132.493 153.582 129.507 153.858 126.748C154.163 125.946 156.263 125.436 156.263 125.436C156.263 125.436 158.49 128.408 163.789 130.564Z" fill="#FF5C8A"/>
<path d="M163.789 130.564C164.874 131.439 165.829 132.463 166.626 133.607C168.25 132.557 167.434 127.422 166.839 126.854C165.98 126.385 165.016 126.141 164.037 126.145C164.358 126.846 164.504 127.615 164.46 128.385C164.417 129.155 164.187 129.903 163.789 130.564Z" fill="#FF5C8A"/>
<g opacity="0.5">
<path opacity="0.5" d="M163.789 130.564C163.789 130.564 162.462 132.096 160.951 133.607C158.746 132.493 153.582 129.507 153.858 126.748C154.163 125.946 156.263 125.436 156.263 125.436C156.263 125.436 158.49 128.408 163.789 130.564Z" fill="white"/>
<path opacity="0.5" d="M163.789 130.564C164.874 131.439 165.83 132.463 166.626 133.607C168.251 132.557 167.435 127.422 166.839 126.854C165.98 126.385 165.016 126.141 164.037 126.145C164.359 126.846 164.504 127.615 164.461 128.385C164.418 129.155 164.187 129.903 163.789 130.564Z" fill="white"/>
</g>
<path opacity="0.2" d="M163.717 211.482L160.696 195.033L161.277 186.33C161.277 186.33 165.413 201.424 163.717 211.482Z" fill="black"/>
<path d="M148.112 135.451C145.488 139.828 141.424 146.091 139.196 150.538C138.012 153.056 137.643 155.752 136.998 158.468C136.38 161.369 135.763 164.327 135.082 167.25L131.692 166.952C131.571 163.88 131.6 160.837 131.784 157.766C132.018 154.567 132.188 151.113 133.394 148.077C135.792 142.239 138.948 137.019 142.332 131.763L148.112 135.465V135.451Z" fill="#B55B52"/>
<path d="M145.275 127.939C141.466 128.925 134.635 142.615 134.635 142.615L142.728 147.857L150.027 140.764C150.446 138.196 150.289 135.567 149.566 133.068C148.382 128.798 145.275 127.939 145.275 127.939Z" fill="#FF5C8A"/>
<path opacity="0.7" d="M145.275 127.939C141.466 128.925 134.635 142.615 134.635 142.615L142.728 147.857L150.027 140.764C150.446 138.196 150.289 135.567 149.566 133.068C148.382 128.798 145.275 127.939 145.275 127.939Z" fill="white"/>
<path d="M148.146 170.139L204.373 110.515C204.676 110.194 205.039 109.935 205.442 109.755C205.844 109.574 206.279 109.474 206.72 109.461C207.162 109.448 207.601 109.522 208.014 109.679C208.427 109.836 208.804 110.073 209.125 110.376L210.483 111.655C211.131 112.267 211.511 113.112 211.537 114.003C211.563 114.894 211.234 115.759 210.622 116.408L154.396 176.032L148.146 170.139Z" fill="#263238"/>
<path opacity="0.6" d="M148.146 170.139L204.373 110.515C204.676 110.194 205.039 109.935 205.442 109.755C205.844 109.574 206.279 109.474 206.72 109.461C207.162 109.448 207.601 109.522 208.014 109.679C208.427 109.836 208.804 110.073 209.125 110.376L210.483 111.655C211.131 112.267 211.511 113.112 211.537 114.003C211.563 114.894 211.234 115.759 210.622 116.408L154.396 176.032L148.146 170.139Z" fill="white"/>
<path opacity="0.2" d="M209.539 110.774L210.482 111.661C210.803 111.963 211.062 112.325 211.242 112.727C211.423 113.13 211.523 113.563 211.536 114.004C211.55 114.445 211.476 114.884 211.319 115.296C211.163 115.708 210.926 116.085 210.624 116.406L154.397 176.038L153.46 175.151L209.688 115.519C209.99 115.198 210.225 114.821 210.381 114.408C210.537 113.996 210.611 113.557 210.597 113.116C210.583 112.675 210.482 112.242 210.301 111.84C210.119 111.438 209.86 111.076 209.539 110.774Z" fill="black"/>
<path d="M191.601 133.862L202.02 143.693L203.375 142.253L202.027 140.984L204.17 138.707L203.382 137.962L206.603 134.55L207.39 135.295L209.404 133.16L210.752 134.437L212.149 132.947L211.362 132.202L213.376 130.06L211.795 128.571L213.114 127.173L215.49 129.408L217.902 126.854L207.482 117.023L191.601 133.862Z" fill="#263238"/>
<path opacity="0.6" d="M191.601 133.862L202.02 143.693L203.375 142.253L202.027 140.984L204.17 138.707L203.382 137.962L206.603 134.55L207.39 135.295L209.404 133.16L210.752 134.437L212.149 132.947L211.362 132.202L213.376 130.06L211.795 128.571L213.114 127.173L215.49 129.408L217.902 126.854L207.482 117.023L191.601 133.862Z" fill="white"/>
<g opacity="0.2">
<path opacity="0.6" d="M202.436 141.376L201.083 142.811L202.022 143.697L203.375 142.262L202.436 141.376Z" fill="black"/>
<path opacity="0.6" d="M207.39 135.295L206.602 134.543L203.382 137.962L204.169 138.707L202.027 140.984L201.084 140.097L203.233 137.82L202.439 137.075L205.659 133.657L206.453 134.408L208.461 132.273L209.404 133.16L207.39 135.295Z" fill="black"/>
<path opacity="0.6" d="M210.418 131.309L212.44 129.174L213.383 130.06L211.362 132.203L212.156 132.947L210.752 134.437L209.815 133.55L211.213 132.061L210.418 131.309Z" fill="black"/>
<path opacity="0.6" d="M212.167 126.284L210.849 127.682L211.788 128.568L213.107 127.17L212.167 126.284Z" fill="black"/>
<path opacity="0.6" d="M216.96 125.973L214.546 128.532L215.486 129.418L217.899 126.858L216.96 125.973Z" fill="black"/>
</g>
<path d="M202.876 111.004L185.639 129.282C185.354 129.585 185.368 130.06 185.671 130.345L191.925 136.243C192.227 136.528 192.703 136.514 192.988 136.212L210.225 117.934C210.51 117.632 210.496 117.156 210.193 116.871L203.939 110.973C203.637 110.688 203.161 110.702 202.876 111.004Z" fill="#263238"/>
<path d="M154.723 195.31C153.415 196.698 151.847 197.814 150.107 198.595C148.367 199.377 146.491 199.808 144.585 199.864C142.678 199.919 140.78 199.599 138.997 198.922C137.215 198.244 135.583 197.221 134.196 195.913L129.486 191.473C128.098 190.164 126.982 188.596 126.201 186.856C125.419 185.116 124.989 183.24 124.933 181.334C124.877 179.428 125.197 177.529 125.874 175.746C126.552 173.964 127.575 172.332 128.883 170.945C130.192 169.552 131.764 168.431 133.507 167.646C135.251 166.862 137.132 166.429 139.043 166.373C140.954 166.317 142.857 166.639 144.644 167.32C146.43 168.001 148.065 169.028 149.453 170.342L154.156 174.782C155.541 176.093 156.655 177.664 157.433 179.404C158.211 181.145 158.639 183.022 158.691 184.929C158.744 186.835 158.421 188.733 157.74 190.514C157.059 192.295 156.034 193.925 154.723 195.31Z" fill="#263238"/>
<path d="M149.311 190.203C148.66 190.894 147.88 191.451 147.014 191.84C146.148 192.23 145.213 192.445 144.264 192.473C143.315 192.502 142.369 192.343 141.482 192.006C140.594 191.668 139.781 191.159 139.09 190.508L134.636 186.252C133.945 185.601 133.389 184.82 133 183.953C132.611 183.087 132.396 182.152 132.369 181.203C132.341 180.254 132.501 179.309 132.839 178.421C133.176 177.534 133.686 176.721 134.338 176.031C134.988 175.339 135.768 174.783 136.634 174.393C137.5 174.004 138.434 173.789 139.383 173.762C140.332 173.734 141.277 173.894 142.164 174.232C143.051 174.57 143.862 175.08 144.552 175.733L149.049 179.989C150.437 181.309 151.245 183.126 151.294 185.042C151.343 186.957 150.63 188.813 149.311 190.203Z" fill="white"/>
<path opacity="0.5" d="M202.876 111.004L185.639 129.282C185.354 129.585 185.368 130.06 185.671 130.345L191.925 136.243C192.227 136.528 192.703 136.514 192.988 136.212L210.225 117.934C210.51 117.632 210.496 117.156 210.193 116.871L203.939 110.973C203.637 110.688 203.161 110.702 202.876 111.004Z" fill="white"/>
<g opacity="0.5">
<path opacity="0.5" d="M154.723 195.31C153.415 196.698 151.847 197.814 150.107 198.595C148.367 199.377 146.491 199.808 144.585 199.864C142.678 199.919 140.78 199.599 138.997 198.922C137.215 198.244 135.583 197.221 134.196 195.913L129.486 191.473C128.098 190.164 126.982 188.596 126.201 186.856C125.419 185.116 124.989 183.24 124.933 181.334C124.877 179.428 125.197 177.529 125.874 175.746C126.552 173.964 127.575 172.332 128.883 170.945C130.192 169.552 131.764 168.431 133.507 167.646C135.251 166.862 137.132 166.429 139.043 166.373C140.954 166.317 142.857 166.639 144.644 167.32C146.43 168.001 148.065 169.028 149.453 170.342L154.156 174.782C155.541 176.093 156.655 177.664 157.433 179.404C158.211 181.145 158.639 183.022 158.691 184.929C158.744 186.835 158.421 188.733 157.74 190.514C157.059 192.295 156.034 193.925 154.723 195.31Z" fill="white"/>
<path opacity="0.5" d="M149.311 190.203C148.66 190.894 147.88 191.451 147.014 191.84C146.148 192.23 145.213 192.445 144.264 192.473C143.315 192.502 142.369 192.343 141.482 192.005C140.594 191.668 139.781 191.159 139.09 190.508L134.636 186.252C133.945 185.601 133.389 184.819 133 183.953C132.611 183.087 132.396 182.152 132.369 181.203C132.341 180.254 132.501 179.308 132.839 178.421C133.176 177.534 133.686 176.721 134.338 176.031C134.988 175.339 135.768 174.783 136.634 174.393C137.5 174.004 138.434 173.789 139.383 173.761C140.332 173.734 141.277 173.894 142.164 174.232C143.051 174.57 143.862 175.08 144.552 175.733L149.049 179.989C150.437 181.309 151.245 183.126 151.294 185.041C151.343 186.957 150.63 188.813 149.311 190.203Z" fill="white"/>
</g>
<path opacity="0.2" d="M208.312 115.094L210.198 116.867C210.269 116.937 210.326 117.021 210.364 117.113C210.403 117.204 210.423 117.303 210.423 117.403C210.423 117.502 210.403 117.601 210.364 117.693C210.326 117.785 210.269 117.868 210.198 117.938L192.962 136.21C192.893 136.281 192.81 136.337 192.719 136.376C192.627 136.414 192.529 136.434 192.43 136.434C192.331 136.434 192.233 136.414 192.142 136.376C192.05 136.337 191.968 136.281 191.898 136.21L190.019 134.437C190.159 134.576 190.349 134.654 190.547 134.654C190.745 134.654 190.935 134.576 191.075 134.437L208.312 116.158C208.382 116.089 208.439 116.006 208.477 115.915C208.515 115.823 208.535 115.725 208.535 115.626C208.535 115.527 208.515 115.429 208.477 115.337C208.439 115.246 208.382 115.163 208.312 115.094Z" fill="black"/>
<g opacity="0.2">
<path opacity="0.2" d="M143.147 174.421L144.566 175.747C143.156 174.529 141.331 173.901 139.471 173.995C137.61 174.089 135.857 174.897 134.577 176.251C133.297 177.605 132.589 179.4 132.6 181.263C132.611 183.126 133.34 184.913 134.636 186.252L133.217 184.919C131.822 183.602 131.007 181.785 130.952 179.867C130.897 177.95 131.606 176.089 132.923 174.694C134.239 173.299 136.057 172.484 137.974 172.429C139.892 172.374 141.752 173.083 143.147 174.399V174.421Z" fill="black"/>
<path opacity="0.2" d="M152.716 173.484L154.134 174.818C156.848 177.482 158.409 181.103 158.482 184.905C158.555 188.707 157.134 192.386 154.525 195.152C151.916 197.918 148.326 199.551 144.527 199.7C140.727 199.849 137.02 198.502 134.203 195.948L132.784 194.622C135.592 197.236 139.32 198.632 143.155 198.507C146.989 198.382 150.618 196.745 153.25 193.954C155.882 191.163 157.303 187.444 157.203 183.609C157.103 179.774 155.49 176.135 152.716 173.484Z" fill="black"/>
</g>
<g opacity="0.2">
<path opacity="0.2" d="M143.147 174.421L144.566 175.747C143.156 174.529 141.331 173.901 139.471 173.995C137.61 174.089 135.857 174.897 134.577 176.251C133.297 177.605 132.589 179.4 132.6 181.263C132.611 183.126 133.34 184.913 134.636 186.252L133.217 184.919C131.822 183.602 131.007 181.785 130.952 179.867C130.897 177.95 131.606 176.089 132.923 174.694C134.239 173.299 136.057 172.484 137.974 172.429C139.892 172.374 141.752 173.083 143.147 174.399V174.421Z" fill="black"/>
<path opacity="0.2" d="M143.147 174.421L144.566 175.747C143.156 174.529 141.331 173.901 139.471 173.995C137.61 174.089 135.857 174.897 134.577 176.251C133.297 177.605 132.589 179.4 132.6 181.263C132.611 183.126 133.34 184.913 134.636 186.252L133.217 184.919C131.822 183.602 131.007 181.785 130.952 179.867C130.897 177.95 131.606 176.089 132.923 174.694C134.239 173.299 136.057 172.484 137.974 172.429C139.892 172.374 141.752 173.083 143.147 174.399V174.421Z" fill="black"/>
</g>
<path d="M132.352 175.052L137.565 173.747L136.984 169.938L130.628 171.222L132.352 175.052Z" fill="#B55B52"/>
<path d="M131.841 166.235L130.628 171.2L137.012 169.917C137.012 169.917 137.097 165.455 134.728 165.164L131.841 166.235Z" fill="#B55B52"/>
</g>
<defs>
<clipPath id="clip0_3030_51570">
<rect width="328" height="328" fill="white" transform="translate(0.5 0.676514)"/>
</clipPath>
</defs>
</svg>
