<svg width="21" height="21" viewBox="0 0 21 21" fill="none" xmlns="http://www.w3.org/2000/svg">
<path d="M19.3447 19.3398V20.3398C19.897 20.3398 20.3447 19.8921 20.3447 19.3398H19.3447ZM1.34473 19.3398H0.344727C0.344727 19.8921 0.792442 20.3398 1.34473 20.3398L1.34473 19.3398ZM16.3447 10.3398V11.3398C16.897 11.3398 17.3447 10.8921 17.3447 10.3398H16.3447ZM4.34473 10.3398H3.34473C3.34473 10.8921 3.79244 11.3398 4.34473 11.3398V10.3398ZM2.84473 14.3398L3.39943 13.5078L2.84473 14.3398ZM17.8447 14.3398L18.3994 15.1719V15.1719L17.8447 14.3398ZM19.3447 14.8857C19.897 14.8857 20.3447 14.438 20.3447 13.8857C20.3447 13.3334 19.897 12.8857 19.3447 12.8857V14.8857ZM1.34473 12.8857C0.792442 12.8857 0.344727 13.3334 0.344727 13.8857C0.344727 14.438 0.792442 14.8857 1.34473 14.8857V12.8857ZM8.34473 4.33984C8.34473 3.78756 7.89701 3.33984 7.34473 3.33984C6.79244 3.33984 6.34473 3.78756 6.34473 4.33984H8.34473ZM6.34473 6.33984C6.34473 6.89213 6.79244 7.33984 7.34473 7.33984C7.89701 7.33984 8.34473 6.89213 8.34473 6.33984H6.34473ZM11.3447 4.33984C11.3447 3.78756 10.897 3.33984 10.3447 3.33984C9.79244 3.33984 9.34473 3.78756 9.34473 4.33984H11.3447ZM9.34473 6.33984C9.34473 6.89213 9.79244 7.33984 10.3447 7.33984C10.897 7.33984 11.3447 6.89213 11.3447 6.33984H9.34473ZM14.3447 4.33984C14.3447 3.78756 13.897 3.33984 13.3447 3.33984C12.7924 3.33984 12.3447 3.78756 12.3447 4.33984H14.3447ZM12.3447 6.33984C12.3447 6.89213 12.7924 7.33984 13.3447 7.33984C13.897 7.33984 14.3447 6.89213 14.3447 6.33984H12.3447ZM7.34473 0.339844C6.79244 0.339844 6.34473 0.787559 6.34473 1.33984C6.34473 1.89213 6.79244 2.33984 7.34473 2.33984V0.339844ZM7.35473 2.33984C7.90701 2.33984 8.35473 1.89213 8.35473 1.33984C8.35473 0.787559 7.90701 0.339844 7.35473 0.339844V2.33984ZM10.3447 0.339844C9.79244 0.339844 9.34473 0.787559 9.34473 1.33984C9.34473 1.89213 9.79244 2.33984 10.3447 2.33984V0.339844ZM10.3547 2.33984C10.907 2.33984 11.3547 1.89213 11.3547 1.33984C11.3547 0.787559 10.907 0.339844 10.3547 0.339844V2.33984ZM13.3447 0.339844C12.7924 0.339844 12.3447 0.787559 12.3447 1.33984C12.3447 1.89213 12.7924 2.33984 13.3447 2.33984V0.339844ZM13.3547 2.33984C13.907 2.33984 14.3547 1.89213 14.3547 1.33984C14.3547 0.787559 13.907 0.339844 13.3547 0.339844V2.33984ZM3.34473 11.3398H17.3447V9.33984H3.34473V11.3398ZM18.3447 12.3398V19.3398H20.3447V12.3398H18.3447ZM19.3447 18.3398H1.34473V20.3398H19.3447V18.3398ZM2.34473 19.3398V12.3398H0.344727V19.3398H2.34473ZM17.3447 11.3398C17.897 11.3398 18.3447 11.7876 18.3447 12.3398H20.3447C20.3447 10.683 19.0016 9.33984 17.3447 9.33984V11.3398ZM3.34473 9.33984C1.68787 9.33984 0.344727 10.683 0.344727 12.3398H2.34473C2.34473 11.7876 2.79244 11.3398 3.34473 11.3398V9.33984ZM6.34473 7.33984H14.3447V5.33984H6.34473V7.33984ZM15.3447 8.33984V10.3398H17.3447V8.33984H15.3447ZM16.3447 9.33984H4.34473V11.3398H16.3447V9.33984ZM5.34473 10.3398V8.33984H3.34473V10.3398H5.34473ZM14.3447 7.33984C14.897 7.33984 15.3447 7.78756 15.3447 8.33984H17.3447C17.3447 6.68299 16.0016 5.33984 14.3447 5.33984V7.33984ZM6.34473 5.33984C4.68787 5.33984 3.34473 6.68299 3.34473 8.33984H5.34473C5.34473 7.78756 5.79244 7.33984 6.34473 7.33984V5.33984ZM2.29003 15.1719C3.53425 16.0014 5.1552 16.0014 6.39943 15.1719L5.29003 13.5078C4.7176 13.8894 3.97185 13.8894 3.39943 13.5078L2.29003 15.1719ZM14.29 15.1719C15.5343 16.0014 17.1552 16.0014 18.3994 15.1719L17.29 13.5078C16.7176 13.8894 15.9719 13.8894 15.3994 13.5078L14.29 15.1719ZM8.29003 15.1719C9.53425 16.0014 11.1552 16.0014 12.3994 15.1719L11.29 13.5078C10.7176 13.8894 9.97185 13.8894 9.39943 13.5078L8.29003 15.1719ZM12.3994 15.1719C12.9719 14.7903 13.7176 14.7903 14.29 15.1719L15.3994 13.5078C14.1552 12.6783 12.5343 12.6783 11.29 13.5078L12.3994 15.1719ZM9.39943 13.5078C8.1552 12.6783 6.53425 12.6783 5.29003 13.5078L6.39943 15.1719C6.97185 14.7903 7.7176 14.7903 8.29003 15.1719L9.39943 13.5078ZM18.3994 15.1719C18.6857 14.981 19.0148 14.8857 19.3447 14.8857V12.8857C18.6288 12.8857 17.9121 13.0931 17.29 13.5078L18.3994 15.1719ZM3.39943 13.5078C2.77737 13.0931 2.06067 12.8857 1.34473 12.8857V14.8857C1.67462 14.8857 2.00376 14.981 2.29003 15.1719L3.39943 13.5078ZM6.34473 4.33984V6.33984H8.34473V4.33984H6.34473ZM9.34473 4.33984V6.33984H11.3447V4.33984H9.34473ZM12.3447 4.33984V6.33984H14.3447V4.33984H12.3447ZM7.34473 2.33984H7.35473V0.339844H7.34473V2.33984ZM10.3447 2.33984H10.3547V0.339844H10.3447V2.33984ZM13.3447 2.33984H13.3547V0.339844H13.3447V2.33984Z" fill="#1C2D5E"/>
</svg>
