<svg width="21" height="21" viewBox="0 0 21 21" fill="none" xmlns="http://www.w3.org/2000/svg">
<path d="M7.84277 17.8477V11.8477C7.84277 10.7431 6.94734 9.84766 5.84277 9.84766H3.84277C2.7382 9.84766 1.84277 10.7431 1.84277 11.8477V17.8477C1.84277 18.9522 2.7382 19.8477 3.84277 19.8477H5.84277C6.94734 19.8477 7.84277 18.9522 7.84277 17.8477ZM7.84277 17.8477V7.84766C7.84277 6.74309 8.7382 5.84766 9.84277 5.84766H11.8428C12.9473 5.84766 13.8428 6.74309 13.8428 7.84766V17.8477M7.84277 17.8477C7.84277 18.9522 8.7382 19.8477 9.84277 19.8477H11.8428C12.9473 19.8477 13.8428 18.9522 13.8428 17.8477M13.8428 17.8477V3.84766C13.8428 2.74309 14.7382 1.84766 15.8428 1.84766H17.8428C18.9473 1.84766 19.8428 2.74309 19.8428 3.84766V17.8477C19.8428 18.9522 18.9473 19.8477 17.8428 19.8477H15.8428C14.7382 19.8477 13.8428 18.9522 13.8428 17.8477Z" stroke="#1C2D5E" stroke-width="2" stroke-linecap="round" stroke-linejoin="round"/>
</svg>
