<svg width="21" height="21" viewBox="0 0 21 21" fill="none" xmlns="http://www.w3.org/2000/svg">
<path d="M0.842773 19.8477C0.842773 20.3999 1.29049 20.8477 1.84277 20.8477C2.39506 20.8477 2.84277 20.3999 2.84277 19.8477H0.842773ZM10.3428 1.84766L11.0499 1.14055C10.8623 0.953013 10.608 0.847656 10.3428 0.847656V1.84766ZM11.3428 2.84766L10.6357 3.55476C10.8232 3.7423 11.0776 3.84766 11.3428 3.84766V2.84766ZM19.8428 2.84766L20.7372 3.29487C20.8922 2.98488 20.8756 2.61674 20.6934 2.32193C20.5112 2.02711 20.1894 1.84766 19.8428 1.84766V2.84766ZM16.8428 8.84766L15.9483 8.40044C15.8076 8.68197 15.8076 9.01334 15.9483 9.29487L16.8428 8.84766ZM19.8428 14.8477V15.8477C20.1894 15.8477 20.5112 15.6682 20.6934 15.3734C20.8756 15.0786 20.8922 14.7104 20.7372 14.4004L19.8428 14.8477ZM11.3428 14.8477L10.6357 15.5548C10.8232 15.7423 11.0776 15.8477 11.3428 15.8477V14.8477ZM10.3428 13.8477L11.0499 13.1405C10.8623 12.953 10.608 12.8477 10.3428 12.8477V13.8477ZM11.8428 2.34766C11.8428 1.79537 11.3951 1.34766 10.8428 1.34766C10.2905 1.34766 9.84277 1.79537 9.84277 2.34766H11.8428ZM9.84277 7.84766C9.84277 8.39994 10.2905 8.84766 10.8428 8.84766C11.3951 8.84766 11.8428 8.39994 11.8428 7.84766H9.84277ZM2.84277 19.8477V15.8477H0.842773V19.8477H2.84277ZM2.84277 15.8477V3.84766H0.842773V15.8477H2.84277ZM3.84277 2.84766H10.3428V0.847656H3.84277V2.84766ZM9.63567 2.55476L10.6357 3.55476L12.0499 2.14055L11.0499 1.14055L9.63567 2.55476ZM11.3428 3.84766H19.8428V1.84766H11.3428V3.84766ZM18.9483 2.40044L15.9483 8.40044L17.7372 9.29487L20.7372 3.29487L18.9483 2.40044ZM15.9483 9.29487L18.9483 15.2949L20.7372 14.4004L17.7372 8.40044L15.9483 9.29487ZM19.8428 13.8477H11.3428V15.8477H19.8428V13.8477ZM12.0499 14.1405L11.0499 13.1405L9.63567 14.5548L10.6357 15.5548L12.0499 14.1405ZM10.3428 12.8477H3.84277V14.8477H10.3428V12.8477ZM3.84277 12.8477C2.18592 12.8477 0.842773 14.1908 0.842773 15.8477H2.84277C2.84277 15.2954 3.29049 14.8477 3.84277 14.8477V12.8477ZM2.84277 3.84766C2.84277 3.29537 3.29049 2.84766 3.84277 2.84766V0.847656C2.18592 0.847656 0.842773 2.1908 0.842773 3.84766H2.84277ZM9.84277 2.34766V7.84766H11.8428V2.34766H9.84277Z" fill="#1C2D5E"/>
</svg>
