<svg width="21" height="17" viewBox="0 0 21 17" fill="none" xmlns="http://www.w3.org/2000/svg">
<path d="M1.84277 5.84766C1.29049 5.84766 0.842773 6.29537 0.842773 6.84766C0.842773 7.39994 1.29049 7.84766 1.84277 7.84766V5.84766ZM19.8428 7.84766C20.3951 7.84766 20.8428 7.39994 20.8428 6.84766C20.8428 6.29537 20.3951 5.84766 19.8428 5.84766V7.84766ZM5.84277 10.8477C5.29049 10.8477 4.84277 11.2954 4.84277 11.8477C4.84277 12.3999 5.29049 12.8477 5.84277 12.8477V10.8477ZM6.84277 12.8477C7.39506 12.8477 7.84277 12.3999 7.84277 11.8477C7.84277 11.2954 7.39506 10.8477 6.84277 10.8477V12.8477ZM10.8428 10.8477C10.2905 10.8477 9.84277 11.2954 9.84277 11.8477C9.84277 12.3999 10.2905 12.8477 10.8428 12.8477V10.8477ZM11.8428 12.8477C12.3951 12.8477 12.8428 12.3999 12.8428 11.8477C12.8428 11.2954 12.3951 10.8477 11.8428 10.8477V12.8477ZM4.84277 2.84766H16.8428V0.847656H4.84277V2.84766ZM18.8428 4.84766V12.8477H20.8428V4.84766H18.8428ZM16.8428 14.8477H4.84277V16.8477H16.8428V14.8477ZM2.84277 12.8477V4.84766H0.842773V12.8477H2.84277ZM4.84277 14.8477C3.7382 14.8477 2.84277 13.9522 2.84277 12.8477H0.842773C0.842773 15.0568 2.63363 16.8477 4.84277 16.8477V14.8477ZM18.8428 12.8477C18.8428 13.9522 17.9473 14.8477 16.8428 14.8477V16.8477C19.0519 16.8477 20.8428 15.0568 20.8428 12.8477H18.8428ZM16.8428 2.84766C17.9473 2.84766 18.8428 3.74309 18.8428 4.84766H20.8428C20.8428 2.63852 19.0519 0.847656 16.8428 0.847656V2.84766ZM4.84277 0.847656C2.63363 0.847656 0.842773 2.63852 0.842773 4.84766H2.84277C2.84277 3.74309 3.7382 2.84766 4.84277 2.84766V0.847656ZM1.84277 7.84766H19.8428V5.84766H1.84277V7.84766ZM5.84277 12.8477H6.84277V10.8477H5.84277V12.8477ZM10.8428 12.8477H11.8428V10.8477H10.8428V12.8477Z" fill="#1C2D5E"/>
</svg>
