<svg width="21" height="21" viewBox="0 0 21 21" fill="none" xmlns="http://www.w3.org/2000/svg">
<path d="M1.8977 8.84766C1.34542 8.84766 0.897702 9.29537 0.897702 9.84766C0.897702 10.3999 1.34542 10.8477 1.8977 10.8477V8.84766ZM8.84277 19.7927C8.84277 20.345 9.29049 20.7927 9.84277 20.7927C10.3951 20.7927 10.8428 20.345 10.8428 19.7927H8.84277ZM7.84277 2.78318C7.84277 2.23089 7.39506 1.78318 6.84277 1.78318C6.29049 1.78318 5.84277 2.23089 5.84277 2.78318H7.84277ZM17.8428 6.84766V7.84766H17.8428L17.8428 6.84766ZM18.9073 7.84765C19.4595 7.84765 19.9073 7.39994 19.9073 6.84765C19.9073 6.29537 19.4595 5.84765 18.9073 5.84765L18.9073 7.84765ZM12.8428 19.3355C12.8428 19.8878 13.2905 20.3355 13.8428 20.3355C14.3951 20.3355 14.8428 19.8878 14.8428 19.3355H12.8428ZM18.9073 15.8477C19.4595 15.8477 19.9073 15.3999 19.9073 14.8477C19.9073 14.2954 19.4595 13.8477 18.9073 13.8477V15.8477ZM18.8428 10.8477C18.8428 15.2659 15.2611 18.8477 10.8428 18.8477V20.8477C16.3656 20.8477 20.8428 16.3705 20.8428 10.8477H18.8428ZM10.8428 18.8477C6.4245 18.8477 2.84277 15.2659 2.84277 10.8477H0.842773C0.842773 16.3705 5.31993 20.8477 10.8428 20.8477V18.8477ZM2.84277 10.8477C2.84277 6.42938 6.4245 2.84766 10.8428 2.84766V0.847656C5.31993 0.847656 0.842773 5.32481 0.842773 10.8477H2.84277ZM10.8428 2.84766C15.2611 2.84766 18.8428 6.42938 18.8428 10.8477H20.8428C20.8428 5.32481 16.3656 0.847656 10.8428 0.847656V2.84766ZM1.8977 10.8477H3.84277V8.84766H1.8977V10.8477ZM4.84277 11.8477V12.8477H6.84277V11.8477H4.84277ZM8.84277 16.8477V19.7927H10.8428V16.8477H8.84277ZM7.84277 15.8477C8.39506 15.8477 8.84277 16.2954 8.84277 16.8477H10.8428C10.8428 15.1908 9.49963 13.8477 7.84277 13.8477V15.8477ZM4.84277 12.8477C4.84277 14.5045 6.18592 15.8477 7.84277 15.8477V13.8477C7.29049 13.8477 6.84277 13.3999 6.84277 12.8477H4.84277ZM3.84277 10.8477C4.39506 10.8477 4.84277 11.2954 4.84277 11.8477H6.84277C6.84277 10.1908 5.49963 8.84766 3.84277 8.84766V10.8477ZM5.84277 2.78318V4.34766H7.84277V2.78318H5.84277ZM9.34277 7.84766H9.84277V5.84766H9.34277V7.84766ZM17.8428 7.84766L18.9073 7.84765L18.9073 5.84765L17.8428 5.84766L17.8428 7.84766ZM16.8428 8.84766C16.8428 8.29537 17.2905 7.84766 17.8428 7.84766V5.84766C16.1859 5.84766 14.8428 7.1908 14.8428 8.84766H16.8428ZM13.8428 11.8477C15.4996 11.8477 16.8428 10.5045 16.8428 8.84766H14.8428C14.8428 9.39994 14.3951 9.84766 13.8428 9.84766V11.8477ZM10.8428 8.84766C10.8428 10.5045 12.1859 11.8477 13.8428 11.8477V9.84766C13.2905 9.84766 12.8428 9.39994 12.8428 8.84766H10.8428ZM9.84277 7.84766C10.3951 7.84766 10.8428 8.29537 10.8428 8.84766H12.8428C12.8428 7.1908 11.4996 5.84766 9.84277 5.84766V7.84766ZM5.84277 4.34766C5.84277 6.28065 7.40978 7.84766 9.34277 7.84766V5.84766C8.51435 5.84766 7.84277 5.17608 7.84277 4.34766H5.84277ZM14.8428 19.3355V16.8477H12.8428V19.3355H14.8428ZM15.8428 15.8477H18.9073V13.8477H15.8428V15.8477ZM14.8428 16.8477C14.8428 16.2954 15.2905 15.8477 15.8428 15.8477V13.8477C14.1859 13.8477 12.8428 15.1908 12.8428 16.8477H14.8428Z" fill="#1C2D5E"/>
</svg>
