<svg width="328" height="302" viewBox="0 0 328 302" fill="none" xmlns="http://www.w3.org/2000/svg">
<path d="M166.544 261.111C240.592 261.111 300.619 257.606 300.619 253.283C300.619 248.96 240.592 245.455 166.544 245.455C92.4962 245.455 32.4688 248.96 32.4688 253.283C32.4688 257.606 92.4962 261.111 166.544 261.111Z" fill="#F5F5F5"/>
<path d="M266.517 232.61H148.312C146.805 232.61 145.583 233.831 145.583 235.338V249.525C145.583 251.032 146.805 252.253 148.312 252.253H266.517C268.024 252.253 269.245 251.032 269.245 249.525V235.338C269.245 233.831 268.024 232.61 266.517 232.61Z" fill="#FF5C8A"/>
<path opacity="0.5" d="M269.286 235.338V249.485C269.286 249.845 269.215 250.201 269.076 250.533C268.938 250.866 268.735 251.167 268.48 251.421C268.224 251.675 267.921 251.875 267.588 252.011C267.254 252.147 266.897 252.216 266.537 252.213H148.332C147.973 252.216 147.617 252.147 147.285 252.011C146.953 251.875 146.651 251.674 146.397 251.42C146.143 251.166 145.942 250.864 145.806 250.532C145.67 250.2 145.601 249.844 145.604 249.485V235.338C145.601 234.979 145.67 234.623 145.806 234.291C145.942 233.959 146.143 233.657 146.397 233.403C146.651 233.149 146.953 232.948 147.285 232.812C147.617 232.676 147.973 232.607 148.332 232.61H266.517C266.879 232.604 267.238 232.671 267.574 232.806C267.909 232.94 268.215 233.141 268.473 233.394C268.73 233.648 268.935 233.951 269.074 234.285C269.214 234.618 269.286 234.976 269.286 235.338Z" fill="white"/>
<path opacity="0.2" d="M252.916 251.02C252.651 251.021 252.397 250.917 252.209 250.732C252.02 250.547 251.911 250.295 251.906 250.03V234.833C251.911 234.568 252.02 234.316 252.209 234.131C252.397 233.946 252.651 233.842 252.916 233.842C253.179 233.842 253.431 233.947 253.616 234.132C253.802 234.318 253.906 234.57 253.906 234.833V250.03C253.906 250.293 253.802 250.545 253.616 250.73C253.431 250.916 253.179 251.02 252.916 251.02Z" fill="black"/>
<path opacity="0.2" d="M238.789 251.02C238.525 251.021 238.271 250.917 238.082 250.732C237.893 250.547 237.784 250.295 237.779 250.03V234.833C237.784 234.568 237.893 234.316 238.082 234.131C238.271 233.946 238.525 233.842 238.789 233.842C238.919 233.842 239.048 233.868 239.168 233.918C239.288 233.968 239.398 234.041 239.49 234.132C239.581 234.224 239.654 234.334 239.704 234.454C239.754 234.574 239.78 234.703 239.78 234.833V250.03C239.78 250.16 239.754 250.289 239.704 250.409C239.654 250.529 239.581 250.638 239.49 250.73C239.398 250.822 239.288 250.895 239.168 250.945C239.048 250.995 238.919 251.02 238.789 251.02Z" fill="black"/>
<path opacity="0.2" d="M223.127 251.02C222.865 251.02 222.613 250.916 222.427 250.73C222.242 250.545 222.137 250.293 222.137 250.03V234.833C222.137 234.57 222.242 234.318 222.427 234.132C222.613 233.947 222.865 233.842 223.127 233.842C223.392 233.842 223.646 233.946 223.835 234.131C224.024 234.316 224.133 234.568 224.138 234.833V250.03C224.133 250.295 224.024 250.547 223.835 250.732C223.646 250.917 223.392 251.021 223.127 251.02Z" fill="black"/>
<path opacity="0.2" d="M264.496 251.02C264.234 251.02 263.982 250.916 263.796 250.73C263.61 250.545 263.506 250.293 263.506 250.03V234.833C263.506 234.57 263.61 234.318 263.796 234.132C263.982 233.947 264.234 233.842 264.496 233.842C264.628 233.84 264.759 233.863 264.881 233.912C265.004 233.96 265.115 234.033 265.209 234.125C265.304 234.217 265.378 234.327 265.429 234.449C265.48 234.57 265.507 234.701 265.507 234.833V250.03C265.507 250.162 265.48 250.292 265.429 250.414C265.378 250.535 265.304 250.645 265.209 250.738C265.115 250.83 265.004 250.902 264.881 250.951C264.759 250.999 264.628 251.023 264.496 251.02Z" fill="black"/>
<path opacity="0.2" d="M161.933 233.842C162.195 233.842 162.447 233.947 162.633 234.132C162.819 234.318 162.923 234.57 162.923 234.833V250.03C162.923 250.293 162.819 250.545 162.633 250.73C162.447 250.916 162.195 251.02 161.933 251.02C161.801 251.023 161.67 250.999 161.548 250.951C161.425 250.902 161.314 250.83 161.22 250.738C161.125 250.645 161.051 250.535 161 250.414C160.949 250.292 160.922 250.162 160.922 250.03V234.833C160.922 234.701 160.949 234.57 161 234.449C161.051 234.327 161.125 234.217 161.22 234.125C161.314 234.033 161.425 233.96 161.548 233.912C161.67 233.863 161.801 233.84 161.933 233.842Z" fill="black"/>
<path opacity="0.2" d="M176.039 233.842C176.171 233.84 176.302 233.863 176.424 233.912C176.547 233.96 176.658 234.033 176.752 234.125C176.846 234.217 176.921 234.327 176.972 234.449C177.023 234.57 177.049 234.701 177.049 234.833V250.03C177.049 250.162 177.023 250.292 176.972 250.414C176.921 250.535 176.846 250.645 176.752 250.738C176.658 250.83 176.547 250.902 176.424 250.951C176.302 250.999 176.171 251.023 176.039 251.02C175.776 251.02 175.524 250.916 175.339 250.73C175.153 250.545 175.049 250.293 175.049 250.03V234.833C175.049 234.57 175.153 234.318 175.339 234.132C175.524 233.947 175.776 233.842 176.039 233.842Z" fill="black"/>
<path opacity="0.2" d="M191.701 233.842C191.966 233.842 192.22 233.946 192.409 234.131C192.598 234.316 192.707 234.568 192.712 234.833V250.03C192.707 250.295 192.598 250.547 192.409 250.732C192.22 250.917 191.966 251.021 191.701 251.02C191.439 251.02 191.187 250.916 191.001 250.73C190.816 250.545 190.711 250.293 190.711 250.03V234.833C190.711 234.57 190.816 234.318 191.001 234.132C191.187 233.947 191.439 233.842 191.701 233.842Z" fill="black"/>
<path opacity="0.2" d="M150.332 233.842C150.595 233.842 150.847 233.947 151.033 234.132C151.218 234.318 151.323 234.57 151.323 234.833V250.03C151.323 250.293 151.218 250.545 151.033 250.73C150.847 250.916 150.595 251.02 150.332 251.02C150.068 251.021 149.814 250.917 149.625 250.732C149.436 250.547 149.327 250.295 149.322 250.03V234.833C149.327 234.568 149.436 234.316 149.625 234.131C149.814 233.946 150.068 233.842 150.332 233.842Z" fill="black"/>
<path opacity="0.2" d="M207.425 251.02C207.293 251.023 207.162 250.999 207.039 250.951C206.917 250.902 206.805 250.83 206.711 250.738C206.617 250.645 206.542 250.535 206.491 250.414C206.44 250.292 206.414 250.162 206.414 250.03V234.833C206.414 234.701 206.44 234.57 206.491 234.449C206.542 234.327 206.617 234.217 206.711 234.125C206.805 234.033 206.917 233.96 207.039 233.912C207.162 233.863 207.293 233.84 207.425 233.842C207.687 233.842 207.939 233.947 208.125 234.132C208.31 234.318 208.415 234.57 208.415 234.833V250.03C208.415 250.293 208.31 250.545 208.125 250.73C207.939 250.916 207.687 251.02 207.425 251.02Z" fill="black"/>
<path d="M270.074 212.683H151.869C150.362 212.683 149.14 213.905 149.14 215.411V229.598C149.14 231.105 150.362 232.327 151.869 232.327H270.074C271.581 232.327 272.802 231.105 272.802 229.598V215.411C272.802 213.905 271.581 212.683 270.074 212.683Z" fill="#FF5C8A"/>
<path opacity="0.5" d="M270.074 212.683H151.889C150.382 212.683 149.16 213.905 149.16 215.411V229.598C149.16 231.105 150.382 232.327 151.889 232.327H270.074C271.581 232.327 272.802 231.105 272.802 229.598V215.411C272.802 213.905 271.581 212.683 270.074 212.683Z" fill="white"/>
<path opacity="0.2" d="M256.473 231.094C256.208 231.094 255.954 230.99 255.765 230.805C255.576 230.62 255.467 230.368 255.462 230.104V214.906C255.467 214.642 255.576 214.39 255.765 214.205C255.954 214.019 256.208 213.916 256.473 213.916C256.735 213.916 256.987 214.02 257.173 214.206C257.359 214.392 257.463 214.643 257.463 214.906V230.104C257.463 230.366 257.359 230.618 257.173 230.804C256.987 230.989 256.735 231.094 256.473 231.094Z" fill="black"/>
<path opacity="0.2" d="M242.346 231.094C242.082 231.094 241.828 230.99 241.639 230.805C241.45 230.62 241.341 230.368 241.336 230.104V214.906C241.341 214.642 241.45 214.39 241.639 214.205C241.828 214.019 242.082 213.916 242.346 213.916C242.476 213.916 242.605 213.941 242.725 213.991C242.846 214.041 242.955 214.114 243.047 214.206C243.139 214.298 243.212 214.407 243.261 214.527C243.311 214.647 243.337 214.776 243.337 214.906V230.104C243.337 230.234 243.311 230.362 243.261 230.483C243.212 230.603 243.139 230.712 243.047 230.804C242.955 230.896 242.846 230.969 242.725 231.018C242.605 231.068 242.476 231.094 242.346 231.094Z" fill="black"/>
<path opacity="0.2" d="M226.684 231.094C226.421 231.094 226.17 230.989 225.984 230.804C225.798 230.618 225.694 230.366 225.694 230.104V214.906C225.694 214.643 225.798 214.392 225.984 214.206C226.17 214.02 226.421 213.916 226.684 213.916C226.949 213.916 227.203 214.019 227.392 214.205C227.581 214.39 227.689 214.642 227.695 214.906V230.104C227.689 230.368 227.581 230.62 227.392 230.805C227.203 230.99 226.949 231.094 226.684 231.094Z" fill="black"/>
<path opacity="0.2" d="M268.053 231.094C267.79 231.094 267.538 230.99 267.353 230.804C267.167 230.618 267.062 230.366 267.062 230.104V214.906C267.062 214.644 267.167 214.392 267.353 214.206C267.538 214.02 267.79 213.916 268.053 213.916C268.185 213.913 268.315 213.937 268.438 213.985C268.56 214.034 268.672 214.107 268.766 214.199C268.86 214.291 268.935 214.401 268.986 214.523C269.037 214.644 269.063 214.774 269.063 214.906V230.104C269.063 230.235 269.037 230.366 268.986 230.487C268.935 230.609 268.86 230.719 268.766 230.811C268.672 230.903 268.56 230.976 268.438 231.025C268.315 231.073 268.185 231.097 268.053 231.094Z" fill="black"/>
<path opacity="0.2" d="M165.489 213.916C165.752 213.916 166.004 214.02 166.19 214.206C166.375 214.392 166.48 214.644 166.48 214.906V230.104C166.48 230.366 166.375 230.618 166.19 230.804C166.004 230.99 165.752 231.094 165.489 231.094C165.358 231.097 165.227 231.073 165.104 231.025C164.982 230.976 164.87 230.903 164.776 230.811C164.682 230.719 164.607 230.609 164.556 230.487C164.505 230.366 164.479 230.235 164.479 230.104V214.906C164.479 214.774 164.505 214.644 164.556 214.523C164.607 214.401 164.682 214.291 164.776 214.199C164.87 214.107 164.982 214.034 165.104 213.985C165.227 213.937 165.358 213.913 165.489 213.916Z" fill="black"/>
<path opacity="0.2" d="M179.596 213.916C179.728 213.913 179.859 213.937 179.981 213.985C180.104 214.034 180.215 214.107 180.309 214.199C180.403 214.291 180.478 214.401 180.529 214.523C180.58 214.644 180.606 214.774 180.606 214.906V230.104C180.606 230.235 180.58 230.366 180.529 230.487C180.478 230.609 180.403 230.719 180.309 230.811C180.215 230.903 180.104 230.976 179.981 231.025C179.859 231.073 179.728 231.097 179.596 231.094C179.333 231.094 179.081 230.99 178.896 230.804C178.71 230.618 178.606 230.366 178.606 230.104V214.906C178.606 214.644 178.71 214.392 178.896 214.206C179.081 214.02 179.333 213.916 179.596 213.916Z" fill="black"/>
<path opacity="0.2" d="M195.258 213.916C195.523 213.916 195.777 214.019 195.966 214.205C196.154 214.39 196.263 214.642 196.269 214.906V230.104C196.263 230.368 196.154 230.62 195.966 230.805C195.777 230.99 195.523 231.094 195.258 231.094C194.995 231.094 194.744 230.989 194.558 230.804C194.372 230.618 194.268 230.366 194.268 230.104V214.906C194.268 214.643 194.372 214.392 194.558 214.206C194.744 214.02 194.995 213.916 195.258 213.916Z" fill="black"/>
<path opacity="0.2" d="M153.889 213.916C154.152 213.916 154.404 214.02 154.589 214.206C154.775 214.392 154.879 214.643 154.879 214.906V230.104C154.879 230.366 154.775 230.618 154.589 230.804C154.404 230.989 154.152 231.094 153.889 231.094C153.625 231.094 153.371 230.99 153.182 230.805C152.993 230.62 152.884 230.368 152.879 230.104V214.906C152.884 214.642 152.993 214.39 153.182 214.205C153.371 214.019 153.625 213.916 153.889 213.916Z" fill="black"/>
<path opacity="0.2" d="M210.981 231.094C210.849 231.097 210.719 231.073 210.596 231.025C210.474 230.976 210.362 230.903 210.268 230.811C210.174 230.719 210.099 230.609 210.048 230.487C209.997 230.366 209.971 230.235 209.971 230.104V214.906C209.971 214.774 209.997 214.644 210.048 214.523C210.099 214.401 210.174 214.291 210.268 214.199C210.362 214.107 210.474 214.034 210.596 213.985C210.719 213.937 210.849 213.913 210.981 213.916C211.111 213.916 211.24 213.942 211.36 213.991C211.48 214.041 211.589 214.114 211.681 214.206C211.773 214.298 211.846 214.407 211.896 214.527C211.946 214.647 211.971 214.776 211.971 214.906V230.104C211.971 230.234 211.946 230.363 211.896 230.483C211.846 230.603 211.773 230.712 211.681 230.804C211.589 230.896 211.48 230.969 211.36 231.019C211.24 231.068 211.111 231.094 210.981 231.094Z" fill="black"/>
<path d="M273.631 192.756H155.426C153.919 192.756 152.697 193.978 152.697 195.485V209.672C152.697 211.179 153.919 212.4 155.426 212.4H273.631C275.138 212.4 276.359 211.179 276.359 209.672V195.485C276.359 193.978 275.138 192.756 273.631 192.756Z" fill="#FF5C8A"/>
<path opacity="0.5" d="M273.63 192.756H155.445C153.939 192.756 152.717 193.978 152.717 195.485V209.672C152.717 211.179 153.939 212.4 155.445 212.4H273.63C275.137 212.4 276.359 211.179 276.359 209.672V195.485C276.359 193.978 275.137 192.756 273.63 192.756Z" fill="white"/>
<path opacity="0.2" d="M260.03 211.248C259.764 211.243 259.51 211.135 259.321 210.947C259.133 210.758 259.025 210.504 259.02 210.238V195.081C259.025 194.816 259.134 194.564 259.323 194.379C259.511 194.194 259.765 194.09 260.03 194.09C260.293 194.09 260.545 194.195 260.73 194.38C260.916 194.566 261.02 194.818 261.02 195.081V210.278C261.01 210.536 260.902 210.78 260.718 210.96C260.534 211.14 260.288 211.243 260.03 211.248Z" fill="black"/>
<path opacity="0.2" d="M245.903 211.248C245.637 211.243 245.383 211.135 245.194 210.947C245.006 210.758 244.898 210.504 244.893 210.238V195.081C244.898 194.816 245.007 194.564 245.196 194.379C245.385 194.194 245.639 194.09 245.903 194.09C246.166 194.09 246.418 194.195 246.603 194.38C246.789 194.566 246.893 194.818 246.893 195.081V210.278C246.883 210.536 246.775 210.78 246.591 210.96C246.407 211.14 246.161 211.243 245.903 211.248Z" fill="black"/>
<path opacity="0.2" d="M230.241 211.248C229.976 211.243 229.724 211.134 229.539 210.945C229.354 210.756 229.25 210.502 229.25 210.238V195.081C229.25 194.818 229.355 194.566 229.541 194.38C229.726 194.195 229.978 194.09 230.241 194.09C230.505 194.09 230.759 194.194 230.948 194.379C231.137 194.564 231.246 194.816 231.251 195.081V210.278C231.236 210.537 231.123 210.781 230.936 210.961C230.749 211.141 230.5 211.244 230.241 211.248Z" fill="black"/>
<path opacity="0.2" d="M271.609 211.248C271.345 211.243 271.093 211.134 270.908 210.945C270.723 210.756 270.619 210.502 270.619 210.238V195.081C270.619 194.818 270.723 194.566 270.909 194.38C271.095 194.195 271.347 194.09 271.609 194.09C271.741 194.088 271.872 194.111 271.995 194.16C272.117 194.208 272.229 194.281 272.323 194.373C272.417 194.465 272.492 194.575 272.543 194.697C272.594 194.818 272.62 194.949 272.62 195.081V210.278C272.609 210.539 272.498 210.786 272.31 210.967C272.122 211.147 271.871 211.248 271.609 211.248Z" fill="black"/>
<path opacity="0.2" d="M169.047 193.989C169.309 193.989 169.561 194.094 169.747 194.28C169.933 194.465 170.037 194.717 170.037 194.98V210.177C170.037 210.442 169.933 210.696 169.748 210.885C169.563 211.074 169.311 211.182 169.047 211.188C168.779 211.188 168.522 211.081 168.332 210.892C168.143 210.702 168.036 210.445 168.036 210.177V195.081C168.022 194.941 168.037 194.799 168.082 194.666C168.127 194.532 168.199 194.41 168.295 194.307C168.39 194.203 168.507 194.122 168.636 194.067C168.766 194.012 168.906 193.986 169.047 193.989Z" fill="black"/>
<path opacity="0.2" d="M183.153 193.989C183.284 193.987 183.415 194.01 183.538 194.059C183.66 194.107 183.772 194.18 183.866 194.272C183.96 194.364 184.035 194.474 184.086 194.596C184.137 194.717 184.163 194.848 184.163 194.98V210.177C184.163 210.445 184.057 210.702 183.867 210.892C183.678 211.081 183.421 211.188 183.153 211.188C182.888 211.182 182.636 211.074 182.451 210.885C182.266 210.696 182.162 210.442 182.162 210.177V195.081C182.148 194.942 182.163 194.803 182.207 194.671C182.25 194.539 182.321 194.417 182.414 194.314C182.508 194.211 182.622 194.129 182.749 194.073C182.876 194.017 183.014 193.989 183.153 193.989Z" fill="black"/>
<path opacity="0.2" d="M198.815 193.989C199.08 193.989 199.334 194.093 199.523 194.278C199.712 194.463 199.82 194.715 199.826 194.98V210.177C199.821 210.444 199.712 210.698 199.524 210.886C199.336 211.074 199.082 211.183 198.815 211.188C198.551 211.182 198.299 211.074 198.114 210.885C197.929 210.696 197.825 210.442 197.825 210.177V195.081C197.811 194.942 197.826 194.803 197.869 194.671C197.913 194.539 197.983 194.417 198.077 194.314C198.17 194.211 198.284 194.129 198.411 194.073C198.539 194.017 198.676 193.989 198.815 193.989Z" fill="black"/>
<path opacity="0.2" d="M157.446 193.989C157.709 193.989 157.961 194.094 158.147 194.279C158.332 194.465 158.437 194.717 158.437 194.98V210.177C158.437 210.442 158.333 210.696 158.148 210.885C157.963 211.074 157.711 211.182 157.446 211.188C157.18 211.183 156.926 211.074 156.738 210.886C156.549 210.698 156.441 210.444 156.436 210.177V195.081C156.425 194.941 156.443 194.801 156.488 194.669C156.534 194.537 156.607 194.416 156.702 194.313C156.797 194.211 156.912 194.129 157.04 194.073C157.168 194.018 157.307 193.989 157.446 193.989Z" fill="black"/>
<path opacity="0.2" d="M214.538 211.248C214.27 211.248 214.013 211.142 213.823 210.952C213.634 210.763 213.527 210.506 213.527 210.238V195.081C213.527 194.949 213.554 194.818 213.605 194.697C213.656 194.575 213.73 194.465 213.824 194.373C213.919 194.281 214.03 194.208 214.153 194.16C214.275 194.111 214.406 194.088 214.538 194.09C214.668 194.09 214.797 194.116 214.917 194.166C215.037 194.215 215.146 194.288 215.238 194.38C215.33 194.472 215.403 194.581 215.453 194.702C215.502 194.822 215.528 194.95 215.528 195.081V210.278C215.518 210.536 215.41 210.779 215.226 210.96C215.041 211.14 214.795 211.243 214.538 211.248Z" fill="black"/>
<path d="M258.999 172.83H140.793C139.287 172.83 138.065 174.052 138.065 175.558V189.745C138.065 191.252 139.287 192.474 140.793 192.474H258.999C260.506 192.474 261.727 191.252 261.727 189.745V175.558C261.727 174.052 260.506 172.83 258.999 172.83Z" fill="#FF5C8A"/>
<path opacity="0.5" d="M258.999 172.83H140.793C139.287 172.83 138.065 174.052 138.065 175.558V189.766C138.065 191.272 139.287 192.494 140.793 192.494H258.999C260.506 192.494 261.727 191.272 261.727 189.766V175.558C261.727 174.052 260.506 172.83 258.999 172.83Z" fill="white"/>
<path opacity="0.2" d="M245.377 191.261C245.246 191.261 245.115 191.235 244.994 191.184C244.872 191.133 244.762 191.058 244.67 190.964C244.578 190.87 244.505 190.758 244.457 190.636C244.408 190.513 244.384 190.382 244.387 190.251V175.073C244.384 174.941 244.408 174.811 244.457 174.688C244.505 174.566 244.578 174.454 244.67 174.36C244.762 174.266 244.872 174.191 244.994 174.14C245.115 174.089 245.246 174.063 245.377 174.063C245.645 174.063 245.902 174.169 246.092 174.359C246.281 174.548 246.388 174.805 246.388 175.073V190.251C246.388 190.518 246.281 190.776 246.092 190.965C245.902 191.155 245.645 191.261 245.377 191.261Z" fill="black"/>
<path opacity="0.2" d="M231.251 191.261C231.119 191.261 230.989 191.235 230.868 191.184C230.746 191.133 230.636 191.058 230.544 190.964C230.452 190.87 230.379 190.758 230.33 190.636C230.282 190.513 230.258 190.382 230.261 190.251V175.073C230.258 174.941 230.282 174.811 230.33 174.688C230.379 174.566 230.452 174.454 230.544 174.36C230.636 174.266 230.746 174.191 230.868 174.14C230.989 174.089 231.119 174.063 231.251 174.063C231.519 174.063 231.776 174.169 231.966 174.359C232.155 174.548 232.262 174.805 232.262 175.073V190.251C232.262 190.518 232.155 190.776 231.966 190.965C231.776 191.155 231.519 191.261 231.251 191.261Z" fill="black"/>
<path opacity="0.2" d="M215.609 191.261C215.341 191.261 215.084 191.155 214.895 190.965C214.705 190.776 214.599 190.518 214.599 190.251V175.073C214.599 174.805 214.705 174.548 214.895 174.359C215.084 174.169 215.341 174.063 215.609 174.063C215.741 174.063 215.872 174.089 215.993 174.14C216.115 174.191 216.225 174.266 216.317 174.36C216.409 174.454 216.482 174.566 216.53 174.688C216.579 174.811 216.602 174.941 216.6 175.073V190.251C216.602 190.382 216.579 190.513 216.53 190.636C216.482 190.758 216.409 190.87 216.317 190.964C216.225 191.058 216.115 191.133 215.993 191.184C215.872 191.235 215.741 191.261 215.609 191.261Z" fill="black"/>
<path opacity="0.2" d="M256.978 191.261C256.71 191.261 256.453 191.155 256.263 190.965C256.074 190.776 255.967 190.518 255.967 190.251V175.073C255.967 174.805 256.074 174.548 256.263 174.359C256.453 174.169 256.71 174.063 256.978 174.063C257.11 174.063 257.24 174.089 257.361 174.14C257.483 174.191 257.593 174.266 257.685 174.36C257.777 174.454 257.85 174.566 257.899 174.688C257.947 174.811 257.971 174.941 257.968 175.073V190.251C257.971 190.382 257.947 190.513 257.899 190.636C257.85 190.758 257.777 190.87 257.685 190.964C257.593 191.058 257.483 191.133 257.361 191.184C257.24 191.235 257.11 191.261 256.978 191.261Z" fill="black"/>
<path opacity="0.2" d="M154.395 174.063C154.527 174.063 154.657 174.089 154.779 174.14C154.9 174.191 155.01 174.266 155.102 174.36C155.195 174.454 155.267 174.566 155.316 174.688C155.364 174.811 155.388 174.941 155.385 175.073V190.251C155.388 190.382 155.364 190.513 155.316 190.636C155.267 190.758 155.195 190.87 155.102 190.964C155.01 191.058 154.9 191.133 154.779 191.184C154.657 191.235 154.527 191.261 154.395 191.261C154.127 191.261 153.87 191.155 153.68 190.965C153.491 190.776 153.385 190.518 153.385 190.251V175.073C153.385 174.805 153.491 174.548 153.68 174.359C153.87 174.169 154.127 174.063 154.395 174.063Z" fill="black"/>
<path opacity="0.2" d="M168.521 174.063C168.653 174.063 168.783 174.089 168.905 174.14C169.026 174.191 169.136 174.266 169.229 174.36C169.321 174.454 169.393 174.566 169.442 174.688C169.491 174.811 169.514 174.941 169.511 175.073V190.251C169.514 190.382 169.491 190.513 169.442 190.636C169.393 190.758 169.321 190.87 169.229 190.964C169.136 191.058 169.026 191.133 168.905 191.184C168.783 191.235 168.653 191.261 168.521 191.261C168.253 191.261 167.996 191.155 167.807 190.965C167.617 190.776 167.511 190.518 167.511 190.251V175.073C167.511 174.805 167.617 174.548 167.807 174.359C167.996 174.169 168.253 174.063 168.521 174.063Z" fill="black"/>
<path opacity="0.2" d="M184.184 174.063C184.316 174.063 184.446 174.089 184.567 174.14C184.689 174.191 184.799 174.266 184.891 174.36C184.984 174.454 185.056 174.566 185.105 174.688C185.153 174.811 185.177 174.941 185.174 175.073V190.251C185.177 190.382 185.153 190.513 185.105 190.636C185.056 190.758 184.984 190.87 184.891 190.964C184.799 191.058 184.689 191.133 184.567 191.184C184.446 191.235 184.316 191.261 184.184 191.261C183.916 191.261 183.659 191.155 183.469 190.965C183.28 190.776 183.173 190.518 183.173 190.251V175.073C183.173 174.805 183.28 174.548 183.469 174.359C183.659 174.169 183.916 174.063 184.184 174.063Z" fill="black"/>
<path opacity="0.2" d="M142.794 174.063C143.062 174.063 143.319 174.169 143.509 174.359C143.698 174.548 143.805 174.805 143.805 175.073V190.251C143.805 190.518 143.698 190.776 143.509 190.965C143.319 191.155 143.062 191.261 142.794 191.261C142.663 191.261 142.532 191.235 142.411 191.184C142.289 191.133 142.179 191.058 142.087 190.964C141.995 190.87 141.922 190.758 141.874 190.636C141.825 190.513 141.801 190.382 141.804 190.251V175.073C141.801 174.941 141.825 174.811 141.874 174.688C141.922 174.566 141.995 174.454 142.087 174.36C142.179 174.266 142.289 174.191 142.411 174.14C142.532 174.089 142.663 174.063 142.794 174.063Z" fill="black"/>
<path opacity="0.2" d="M199.886 191.261C199.755 191.261 199.624 191.235 199.503 191.184C199.381 191.133 199.271 191.058 199.179 190.964C199.087 190.87 199.014 190.758 198.966 190.636C198.917 190.513 198.894 190.382 198.896 190.251V175.073C198.894 174.941 198.917 174.811 198.966 174.688C199.014 174.566 199.087 174.454 199.179 174.36C199.271 174.266 199.381 174.191 199.503 174.14C199.624 174.089 199.755 174.063 199.886 174.063C200.018 174.063 200.149 174.089 200.27 174.14C200.392 174.191 200.502 174.266 200.594 174.36C200.686 174.454 200.759 174.566 200.807 174.688C200.856 174.811 200.879 174.941 200.877 175.073V190.251C200.879 190.382 200.856 190.513 200.807 190.636C200.759 190.758 200.686 190.87 200.594 190.964C200.502 191.058 200.392 191.133 200.27 191.184C200.149 191.235 200.018 191.261 199.886 191.261Z" fill="black"/>
<path d="M264.577 152.924H146.372C144.865 152.924 143.643 154.145 143.643 155.652V169.839C143.643 171.346 144.865 172.567 146.372 172.567H264.577C266.084 172.567 267.305 171.346 267.305 169.839V155.652C267.305 154.145 266.084 152.924 264.577 152.924Z" fill="#FF5C8A"/>
<path opacity="0.5" d="M267.265 155.652V169.798C267.26 170.517 266.973 171.205 266.467 171.715C265.961 172.225 265.275 172.516 264.557 172.527H146.331C145.611 172.521 144.922 172.232 144.415 171.721C143.908 171.209 143.623 170.519 143.623 169.798V155.652C143.62 155.294 143.689 154.94 143.823 154.609C143.958 154.278 144.157 153.977 144.409 153.724C144.661 153.47 144.96 153.269 145.29 153.132C145.62 152.994 145.974 152.924 146.331 152.924H264.557C265.277 152.929 265.966 153.219 266.473 153.73C266.98 154.241 267.265 154.932 267.265 155.652Z" fill="white"/>
<path opacity="0.2" d="M250.956 171.334C250.824 171.334 250.694 171.308 250.572 171.257C250.451 171.206 250.341 171.131 250.248 171.037C250.156 170.943 250.084 170.832 250.035 170.709C249.986 170.587 249.963 170.456 249.966 170.324V155.147C249.965 154.882 250.069 154.628 250.254 154.439C250.439 154.25 250.691 154.141 250.956 154.136C251.222 154.141 251.476 154.249 251.665 154.438C251.853 154.626 251.961 154.88 251.966 155.147V170.324C251.966 170.592 251.86 170.849 251.67 171.038C251.481 171.228 251.224 171.334 250.956 171.334Z" fill="black"/>
<path opacity="0.2" d="M236.829 171.334C236.698 171.334 236.567 171.308 236.446 171.257C236.324 171.206 236.214 171.131 236.122 171.037C236.03 170.943 235.957 170.832 235.909 170.709C235.86 170.587 235.836 170.456 235.839 170.324V155.147C235.839 154.882 235.943 154.628 236.128 154.439C236.313 154.25 236.565 154.141 236.829 154.136C237.097 154.136 237.354 154.243 237.544 154.432C237.733 154.622 237.84 154.879 237.84 155.147V170.324C237.84 170.592 237.733 170.849 237.544 171.038C237.354 171.228 237.097 171.334 236.829 171.334Z" fill="black"/>
<path opacity="0.2" d="M221.187 171.334C220.919 171.334 220.662 171.228 220.472 171.038C220.283 170.849 220.177 170.592 220.177 170.324V155.147C220.177 154.879 220.283 154.622 220.472 154.432C220.662 154.243 220.919 154.136 221.187 154.136C221.451 154.141 221.703 154.25 221.888 154.439C222.074 154.628 222.177 154.882 222.177 155.147V170.324C222.18 170.456 222.156 170.587 222.108 170.709C222.059 170.832 221.987 170.943 221.894 171.037C221.802 171.131 221.692 171.206 221.571 171.257C221.449 171.308 221.319 171.334 221.187 171.334Z" fill="black"/>
<path opacity="0.2" d="M262.556 171.334C262.288 171.334 262.031 171.228 261.842 171.038C261.652 170.849 261.546 170.592 261.546 170.324V155.147C261.551 154.88 261.659 154.626 261.847 154.438C262.036 154.249 262.29 154.141 262.556 154.136C262.821 154.141 263.072 154.25 263.258 154.439C263.443 154.628 263.546 154.882 263.546 155.147V170.324C263.549 170.456 263.525 170.587 263.477 170.709C263.428 170.832 263.356 170.943 263.264 171.037C263.171 171.131 263.061 171.206 262.94 171.257C262.818 171.308 262.688 171.334 262.556 171.334Z" fill="black"/>
<path opacity="0.2" d="M159.973 154.136C160.237 154.141 160.489 154.25 160.674 154.439C160.859 154.628 160.963 154.882 160.963 155.147V170.324C160.966 170.456 160.942 170.587 160.893 170.709C160.845 170.832 160.772 170.943 160.68 171.037C160.588 171.131 160.478 171.206 160.356 171.257C160.235 171.308 160.104 171.334 159.973 171.334C159.705 171.334 159.448 171.228 159.258 171.038C159.069 170.849 158.962 170.592 158.962 170.324V155.147C158.967 154.88 159.075 154.626 159.264 154.438C159.452 154.249 159.706 154.141 159.973 154.136Z" fill="black"/>
<path opacity="0.2" d="M174.099 154.136C174.363 154.141 174.615 154.25 174.8 154.439C174.985 154.628 175.089 154.882 175.089 155.147V170.324C175.092 170.456 175.068 170.587 175.02 170.709C174.971 170.832 174.899 170.943 174.806 171.037C174.714 171.131 174.604 171.206 174.483 171.257C174.361 171.308 174.231 171.334 174.099 171.334C173.831 171.334 173.574 171.228 173.384 171.038C173.195 170.849 173.088 170.592 173.088 170.324V155.147C173.094 154.88 173.202 154.626 173.39 154.438C173.578 154.249 173.832 154.141 174.099 154.136Z" fill="black"/>
<path opacity="0.2" d="M189.761 154.136C190.026 154.141 190.278 154.25 190.463 154.439C190.648 154.628 190.752 154.882 190.752 155.147V170.324C190.754 170.456 190.731 170.587 190.682 170.709C190.634 170.832 190.561 170.943 190.469 171.037C190.377 171.131 190.267 171.206 190.145 171.257C190.024 171.308 189.893 171.334 189.761 171.334C189.493 171.334 189.236 171.228 189.047 171.038C188.857 170.849 188.751 170.592 188.751 170.324V155.147C188.751 154.879 188.857 154.622 189.047 154.432C189.236 154.243 189.493 154.136 189.761 154.136Z" fill="black"/>
<path opacity="0.2" d="M148.372 154.136C148.64 154.136 148.897 154.243 149.087 154.432C149.276 154.622 149.383 154.879 149.383 155.147V170.324C149.383 170.592 149.276 170.849 149.087 171.038C148.897 171.228 148.64 171.334 148.372 171.334C148.24 171.334 148.11 171.308 147.988 171.257C147.867 171.206 147.757 171.131 147.665 171.037C147.572 170.943 147.5 170.832 147.451 170.709C147.403 170.587 147.379 170.456 147.382 170.324V155.147C147.382 154.882 147.485 154.628 147.671 154.439C147.856 154.25 148.108 154.141 148.372 154.136Z" fill="black"/>
<path opacity="0.2" d="M205.464 171.334C205.332 171.334 205.202 171.308 205.08 171.257C204.959 171.206 204.849 171.131 204.757 171.037C204.664 170.943 204.592 170.832 204.543 170.709C204.495 170.587 204.471 170.456 204.474 170.324V155.147C204.474 154.882 204.577 154.628 204.763 154.439C204.948 154.25 205.2 154.141 205.464 154.136C205.73 154.141 205.985 154.249 206.173 154.438C206.361 154.626 206.469 154.88 206.475 155.147V170.324C206.475 170.592 206.368 170.849 206.179 171.038C205.989 171.228 205.732 171.334 205.464 171.334Z" fill="black"/>
<path opacity="0.2" d="M143.643 169.839V155.692C143.64 155.335 143.709 154.981 143.843 154.65C143.978 154.319 144.177 154.018 144.429 153.764C144.681 153.511 144.98 153.309 145.31 153.172C145.64 153.035 145.994 152.964 146.351 152.964H198.896L208.111 172.608H146.351C145.991 172.605 145.635 172.531 145.304 172.39C144.973 172.25 144.672 172.045 144.421 171.787C144.169 171.53 143.971 171.225 143.837 170.891C143.704 170.556 143.638 170.199 143.643 169.839Z" fill="black"/>
<path opacity="0.2" d="M217.387 192.494H140.793C140.07 192.494 139.376 192.206 138.864 191.695C138.353 191.183 138.065 190.489 138.065 189.765V175.619C138.065 174.895 138.353 174.201 138.864 173.69C139.376 173.178 140.07 172.891 140.793 172.891H208.172L217.387 192.494Z" fill="black"/>
<path opacity="0.2" d="M155.446 192.756H217.509L226.704 212.4H155.446C155.087 212.403 154.731 212.334 154.398 212.198C154.066 212.062 153.764 211.861 153.51 211.607C153.257 211.353 153.056 211.051 152.92 210.719C152.783 210.387 152.715 210.031 152.717 209.672V195.525C152.712 195.163 152.779 194.804 152.913 194.469C153.048 194.133 153.248 193.827 153.502 193.57C153.756 193.312 154.058 193.108 154.392 192.968C154.726 192.828 155.084 192.756 155.446 192.756Z" fill="black"/>
<path opacity="0.2" d="M151.868 212.683H226.846L236.081 232.327H151.868C151.511 232.327 151.157 232.256 150.827 232.119C150.498 231.981 150.198 231.78 149.946 231.526C149.695 231.273 149.496 230.972 149.361 230.641C149.226 230.31 149.158 229.956 149.16 229.598V215.452C149.152 215.091 149.216 214.732 149.349 214.397C149.481 214.061 149.679 213.756 149.932 213.498C150.184 213.24 150.485 213.035 150.818 212.895C151.15 212.755 151.508 212.683 151.868 212.683Z" fill="black"/>
<path opacity="0.2" d="M245.378 252.253H148.372C148.013 252.256 147.657 252.187 147.325 252.051C146.993 251.915 146.691 251.714 146.437 251.46C146.183 251.206 145.982 250.904 145.846 250.572C145.71 250.24 145.641 249.884 145.644 249.525V235.378C145.641 235.019 145.71 234.663 145.846 234.331C145.982 233.999 146.183 233.697 146.437 233.443C146.691 233.189 146.993 232.988 147.325 232.852C147.657 232.716 148.013 232.647 148.372 232.65H236.203L245.378 252.253Z" fill="black"/>
<path d="M185.639 232.61H67.4336C65.9268 232.61 64.7053 233.831 64.7053 235.338V249.525C64.7053 251.032 65.9268 252.253 67.4336 252.253H185.639C187.146 252.253 188.367 251.032 188.367 249.525V235.338C188.367 233.831 187.146 232.61 185.639 232.61Z" fill="#FF5C8A"/>
<path opacity="0.5" d="M185.639 232.61H67.4336C65.9268 232.61 64.7053 233.831 64.7053 235.338V249.525C64.7053 251.032 65.9268 252.253 67.4336 252.253H185.639C187.146 252.253 188.367 251.032 188.367 249.525V235.338C188.367 233.831 187.146 232.61 185.639 232.61Z" fill="white"/>
<path opacity="0.2" d="M172.017 251.02C171.755 251.02 171.503 250.916 171.317 250.73C171.131 250.545 171.027 250.293 171.027 250.03V234.833C171.027 234.57 171.131 234.318 171.317 234.132C171.503 233.947 171.755 233.842 172.017 233.842C172.282 233.842 172.536 233.946 172.725 234.131C172.914 234.316 173.023 234.568 173.028 234.833V250.03C173.023 250.295 172.914 250.547 172.725 250.732C172.536 250.917 172.282 251.021 172.017 251.02Z" fill="black"/>
<path opacity="0.2" d="M157.891 251.02C157.629 251.02 157.377 250.916 157.191 250.73C157.005 250.545 156.901 250.293 156.901 250.03V234.833C156.901 234.57 157.005 234.318 157.191 234.132C157.377 233.947 157.629 233.842 157.891 233.842C158.023 233.84 158.154 233.863 158.276 233.912C158.399 233.96 158.51 234.033 158.604 234.125C158.699 234.217 158.773 234.327 158.824 234.449C158.875 234.57 158.902 234.701 158.902 234.833V250.03C158.902 250.162 158.875 250.292 158.824 250.414C158.773 250.535 158.699 250.645 158.604 250.738C158.51 250.83 158.399 250.902 158.276 250.951C158.154 250.999 158.023 251.023 157.891 251.02Z" fill="black"/>
<path opacity="0.2" d="M142.249 251.02C142.117 251.023 141.986 250.999 141.864 250.951C141.741 250.902 141.63 250.83 141.535 250.738C141.441 250.645 141.367 250.535 141.316 250.414C141.265 250.292 141.238 250.162 141.238 250.03V234.833C141.238 234.701 141.265 234.57 141.316 234.449C141.367 234.327 141.441 234.217 141.535 234.125C141.63 234.033 141.741 233.96 141.864 233.912C141.986 233.863 142.117 233.84 142.249 233.842C142.511 233.842 142.763 233.947 142.949 234.132C143.135 234.318 143.239 234.57 143.239 234.833V250.03C143.239 250.293 143.135 250.545 142.949 250.73C142.763 250.916 142.511 251.02 142.249 251.02Z" fill="black"/>
<path opacity="0.2" d="M183.618 251.02C183.353 251.021 183.099 250.917 182.91 250.732C182.721 250.547 182.613 250.295 182.607 250.03V234.833C182.613 234.568 182.721 234.316 182.91 234.131C183.099 233.946 183.353 233.842 183.618 233.842C183.881 233.842 184.132 233.947 184.318 234.132C184.504 234.318 184.608 234.57 184.608 234.833V250.03C184.608 250.293 184.504 250.545 184.318 250.73C184.132 250.916 183.881 251.02 183.618 251.02Z" fill="black"/>
<path opacity="0.2" d="M81.034 233.842C81.2966 233.842 81.5485 233.947 81.7342 234.132C81.9199 234.318 82.0242 234.57 82.0242 234.833V250.03C82.0242 250.293 81.9199 250.545 81.7342 250.73C81.5485 250.916 81.2966 251.02 81.034 251.02C80.7713 251.02 80.5195 250.916 80.3337 250.73C80.148 250.545 80.0437 250.293 80.0437 250.03V234.833C80.0437 234.57 80.148 234.318 80.3337 234.132C80.5195 233.947 80.7713 233.842 81.034 233.842Z" fill="black"/>
<path opacity="0.2" d="M95.1606 233.842C95.4233 233.842 95.6751 233.947 95.8609 234.132C96.0466 234.318 96.1509 234.57 96.1509 234.833V250.03C96.1509 250.293 96.0466 250.545 95.8609 250.73C95.6751 250.916 95.4233 251.02 95.1606 251.02C94.8961 251.021 94.6421 250.917 94.4532 250.732C94.2642 250.547 94.1554 250.295 94.1501 250.03V234.833C94.1554 234.568 94.2642 234.316 94.4532 234.131C94.6421 233.946 94.8961 233.842 95.1606 233.842Z" fill="black"/>
<path opacity="0.2" d="M110.823 233.842C111.086 233.842 111.338 233.947 111.523 234.132C111.709 234.318 111.813 234.57 111.813 234.833V250.03C111.813 250.293 111.709 250.545 111.523 250.73C111.338 250.916 111.086 251.02 110.823 251.02C110.691 251.023 110.561 250.999 110.438 250.951C110.316 250.902 110.204 250.83 110.11 250.738C110.016 250.645 109.941 250.535 109.89 250.414C109.839 250.292 109.813 250.162 109.813 250.03V234.833C109.813 234.701 109.839 234.57 109.89 234.449C109.941 234.327 110.016 234.217 110.11 234.125C110.204 234.033 110.316 233.96 110.438 233.912C110.561 233.863 110.691 233.84 110.823 233.842Z" fill="black"/>
<path opacity="0.2" d="M69.4339 233.842C69.5656 233.84 69.6965 233.863 69.819 233.912C69.9415 233.96 70.0531 234.033 70.1472 234.125C70.2413 234.217 70.3161 234.327 70.3671 234.449C70.4181 234.57 70.4444 234.701 70.4443 234.833V250.03C70.4444 250.162 70.4181 250.292 70.3671 250.414C70.3161 250.535 70.2413 250.645 70.1472 250.738C70.0531 250.83 69.9415 250.902 69.819 250.951C69.6965 250.999 69.5656 251.023 69.4339 251.02C69.1712 251.02 68.9194 250.916 68.7336 250.73C68.5479 250.545 68.4436 250.293 68.4436 250.03V234.833C68.4436 234.57 68.5479 234.318 68.7336 234.132C68.9194 233.947 69.1712 233.842 69.4339 233.842Z" fill="black"/>
<path opacity="0.2" d="M126.526 251.02C126.263 251.02 126.011 250.916 125.825 250.73C125.64 250.545 125.535 250.293 125.535 250.03V234.833C125.535 234.57 125.64 234.318 125.825 234.132C126.011 233.947 126.263 233.842 126.526 233.842C126.79 233.842 127.044 233.946 127.233 234.131C127.422 234.316 127.531 234.568 127.536 234.833V250.03C127.531 250.295 127.422 250.547 127.233 250.732C127.044 250.917 126.79 251.021 126.526 251.02Z" fill="black"/>
<path d="M189.196 212.683H70.9902C69.4835 212.683 68.262 213.905 68.262 215.411V229.598C68.262 231.105 69.4835 232.327 70.9902 232.327H189.196C190.702 232.327 191.924 231.105 191.924 229.598V215.411C191.924 213.905 190.702 212.683 189.196 212.683Z" fill="#FF5C8A"/>
<path opacity="0.5" d="M189.196 212.683H70.9902C69.4835 212.683 68.262 213.905 68.262 215.411V229.598C68.262 231.105 69.4835 232.327 70.9902 232.327H189.196C190.702 232.327 191.924 231.105 191.924 229.598V215.411C191.924 213.905 190.702 212.683 189.196 212.683Z" fill="white"/>
<path opacity="0.2" d="M175.574 231.094C175.311 231.094 175.06 230.989 174.874 230.804C174.688 230.618 174.584 230.366 174.584 230.104V214.906C174.584 214.643 174.688 214.392 174.874 214.206C175.06 214.02 175.311 213.916 175.574 213.916C175.839 213.916 176.093 214.019 176.281 214.205C176.47 214.39 176.579 214.642 176.584 214.906V230.104C176.579 230.368 176.47 230.62 176.281 230.805C176.093 230.99 175.839 231.094 175.574 231.094Z" fill="black"/>
<path opacity="0.2" d="M161.448 231.094C161.185 231.094 160.933 230.99 160.748 230.804C160.562 230.618 160.458 230.366 160.458 230.104V214.906C160.458 214.644 160.562 214.392 160.748 214.206C160.933 214.02 161.185 213.916 161.448 213.916C161.58 213.913 161.71 213.937 161.833 213.985C161.955 214.034 162.067 214.107 162.161 214.199C162.255 214.291 162.33 214.401 162.381 214.523C162.432 214.644 162.458 214.774 162.458 214.906V230.104C162.458 230.235 162.432 230.366 162.381 230.487C162.33 230.609 162.255 230.719 162.161 230.811C162.067 230.903 161.955 230.976 161.833 231.025C161.71 231.073 161.58 231.097 161.448 231.094Z" fill="black"/>
<path opacity="0.2" d="M145.805 231.094C145.674 231.097 145.543 231.073 145.42 231.025C145.298 230.976 145.186 230.903 145.092 230.811C144.998 230.719 144.923 230.609 144.872 230.487C144.821 230.366 144.795 230.235 144.795 230.104V214.906C144.795 214.774 144.821 214.644 144.872 214.523C144.923 214.401 144.998 214.291 145.092 214.199C145.186 214.107 145.298 214.034 145.42 213.985C145.543 213.937 145.674 213.913 145.805 213.916C146.068 213.916 146.32 214.02 146.506 214.206C146.691 214.392 146.796 214.644 146.796 214.906V230.104C146.796 230.366 146.691 230.618 146.506 230.804C146.32 230.99 146.068 231.094 145.805 231.094Z" fill="black"/>
<path opacity="0.2" d="M187.175 231.094C186.91 231.094 186.656 230.99 186.467 230.805C186.278 230.62 186.169 230.368 186.164 230.104V214.906C186.169 214.642 186.278 214.39 186.467 214.205C186.656 214.019 186.91 213.916 187.175 213.916C187.437 213.916 187.689 214.02 187.875 214.206C188.06 214.392 188.165 214.643 188.165 214.906V230.104C188.165 230.366 188.06 230.618 187.875 230.804C187.689 230.989 187.437 231.094 187.175 231.094Z" fill="black"/>
<path opacity="0.2" d="M84.5913 213.916C84.854 213.916 85.1058 214.02 85.2916 214.206C85.4773 214.392 85.5816 214.643 85.5816 214.906V230.104C85.5816 230.366 85.4773 230.618 85.2916 230.804C85.1058 230.989 84.854 231.094 84.5913 231.094C84.3287 231.094 84.0768 230.989 83.8911 230.804C83.7054 230.618 83.6011 230.366 83.6011 230.104V214.906C83.6011 214.643 83.7054 214.392 83.8911 214.206C84.0768 214.02 84.3287 213.916 84.5913 213.916Z" fill="black"/>
<path opacity="0.2" d="M98.718 213.916C98.9806 213.916 99.2325 214.02 99.4182 214.206C99.6039 214.392 99.7083 214.643 99.7083 214.906V230.104C99.7083 230.366 99.6039 230.618 99.4182 230.804C99.2325 230.989 98.9806 231.094 98.718 231.094C98.4535 231.094 98.1995 230.99 98.0105 230.805C97.8216 230.62 97.7128 230.368 97.7075 230.104V214.906C97.7128 214.642 97.8216 214.39 98.0105 214.205C98.1995 214.019 98.4535 213.916 98.718 213.916Z" fill="black"/>
<path opacity="0.2" d="M114.38 213.916C114.642 213.916 114.894 214.02 115.08 214.206C115.266 214.392 115.37 214.644 115.37 214.906V230.104C115.37 230.366 115.266 230.618 115.08 230.804C114.894 230.99 114.642 231.094 114.38 231.094C114.248 231.097 114.117 231.073 113.995 231.025C113.872 230.976 113.761 230.903 113.667 230.811C113.572 230.719 113.498 230.609 113.447 230.487C113.396 230.366 113.369 230.235 113.369 230.104V214.906C113.369 214.774 113.396 214.644 113.447 214.523C113.498 214.401 113.572 214.291 113.667 214.199C113.761 214.107 113.872 214.034 113.995 213.985C114.117 213.937 114.248 213.913 114.38 213.916Z" fill="black"/>
<path opacity="0.2" d="M72.991 213.916C73.1227 213.913 73.2537 213.937 73.3762 213.985C73.4987 214.034 73.6102 214.107 73.7043 214.199C73.7984 214.291 73.8732 214.401 73.9242 214.523C73.9752 214.644 74.0015 214.774 74.0015 214.906V230.104C74.0015 230.235 73.9752 230.366 73.9242 230.487C73.8732 230.609 73.7984 230.719 73.7043 230.811C73.6102 230.903 73.4987 230.976 73.3762 231.025C73.2537 231.073 73.1227 231.097 72.991 231.094C72.7284 231.094 72.4765 230.99 72.2908 230.804C72.1051 230.618 72.0007 230.366 72.0007 230.104V214.906C72.0007 214.644 72.1051 214.392 72.2908 214.206C72.4765 214.02 72.7284 213.916 72.991 213.916Z" fill="black"/>
<path opacity="0.2" d="M130.083 231.094C129.82 231.094 129.569 230.989 129.383 230.804C129.197 230.618 129.093 230.366 129.093 230.104V214.906C129.093 214.643 129.197 214.392 129.383 214.206C129.569 214.02 129.82 213.916 130.083 213.916C130.348 213.916 130.602 214.019 130.791 214.205C130.979 214.39 131.088 214.642 131.094 214.906V230.104C131.088 230.368 130.979 230.62 130.791 230.805C130.602 230.99 130.348 231.094 130.083 231.094Z" fill="black"/>
<path d="M182.628 192.756H64.4224C62.9156 192.756 61.6941 193.978 61.6941 195.485V209.672C61.6941 211.179 62.9156 212.4 64.4224 212.4H182.628C184.134 212.4 185.356 211.179 185.356 209.672V195.485C185.356 193.978 184.134 192.756 182.628 192.756Z" fill="#FF5C8A"/>
<path opacity="0.5" d="M182.628 192.756H64.4224C62.9156 192.756 61.6941 193.978 61.6941 195.485V209.672C61.6941 211.179 62.9156 212.4 64.4224 212.4H182.628C184.134 212.4 185.356 211.179 185.356 209.672V195.485C185.356 193.978 184.134 192.756 182.628 192.756Z" fill="white"/>
<path opacity="0.2" d="M169.026 211.248C168.76 211.243 168.506 211.135 168.318 210.947C168.129 210.758 168.021 210.504 168.016 210.238V195.081C168.021 194.816 168.13 194.564 168.319 194.379C168.508 194.194 168.762 194.09 169.026 194.09C169.289 194.09 169.541 194.195 169.727 194.38C169.912 194.566 170.017 194.818 170.017 195.081V210.278C170.006 210.536 169.898 210.78 169.714 210.96C169.53 211.14 169.284 211.243 169.026 211.248Z" fill="black"/>
<path opacity="0.2" d="M154.9 211.248C154.636 211.243 154.384 211.134 154.199 210.945C154.014 210.756 153.91 210.502 153.91 210.238V195.081C153.91 194.951 153.936 194.822 153.985 194.702C154.035 194.582 154.108 194.472 154.2 194.38C154.292 194.288 154.401 194.216 154.521 194.166C154.641 194.116 154.77 194.09 154.9 194.09C155.163 194.09 155.415 194.195 155.6 194.38C155.786 194.566 155.89 194.818 155.89 195.081V210.278C155.88 210.536 155.772 210.78 155.588 210.96C155.404 211.14 155.158 211.243 154.9 211.248Z" fill="black"/>
<path opacity="0.2" d="M139.238 211.248C138.973 211.243 138.721 211.134 138.536 210.945C138.351 210.756 138.247 210.502 138.247 210.238V195.081C138.247 194.818 138.352 194.566 138.537 194.38C138.723 194.195 138.975 194.09 139.238 194.09C139.502 194.09 139.756 194.194 139.945 194.379C140.134 194.564 140.243 194.816 140.248 195.081V210.278C140.233 210.537 140.12 210.781 139.933 210.961C139.746 211.141 139.497 211.244 139.238 211.248Z" fill="black"/>
<path opacity="0.2" d="M180.626 211.248C180.358 211.248 180.101 211.142 179.912 210.952C179.722 210.763 179.616 210.506 179.616 210.238V195.081C179.616 194.949 179.642 194.818 179.693 194.697C179.744 194.575 179.819 194.465 179.913 194.373C180.007 194.281 180.119 194.208 180.241 194.16C180.364 194.111 180.495 194.088 180.626 194.09C180.889 194.09 181.141 194.195 181.327 194.38C181.512 194.566 181.617 194.818 181.617 195.081V210.278C181.606 210.536 181.498 210.779 181.314 210.96C181.13 211.14 180.884 211.243 180.626 211.248Z" fill="black"/>
<path opacity="0.2" d="M78.0435 193.989C78.3061 193.989 78.558 194.094 78.7437 194.28C78.9294 194.465 79.0338 194.717 79.0338 194.98V210.177C79.0338 210.442 78.9301 210.696 78.745 210.885C78.5598 211.074 78.308 211.182 78.0435 211.188C77.7755 211.188 77.5185 211.081 77.329 210.892C77.1395 210.702 77.033 210.445 77.033 210.177V195.081C77.0186 194.941 77.0342 194.799 77.0788 194.666C77.1233 194.532 77.1959 194.41 77.2915 194.307C77.3871 194.203 77.5036 194.122 77.6333 194.067C77.763 194.012 77.9028 193.986 78.0435 193.989Z" fill="black"/>
<path opacity="0.2" d="M92.1697 193.989C92.4324 193.989 92.6842 194.094 92.8699 194.28C93.0557 194.465 93.16 194.717 93.16 194.98V210.177C93.16 210.442 93.0564 210.696 92.8712 210.885C92.6861 211.074 92.4342 211.182 92.1697 211.188C91.9017 211.188 91.6447 211.081 91.4552 210.892C91.2657 210.702 91.1593 210.445 91.1593 210.177V195.081C91.1448 194.941 91.1605 194.799 91.205 194.666C91.2496 194.532 91.3221 194.41 91.4177 194.307C91.5133 194.203 91.6298 194.122 91.7595 194.067C91.8892 194.012 92.029 193.986 92.1697 193.989Z" fill="black"/>
<path opacity="0.2" d="M107.812 193.989C108.077 193.989 108.331 194.093 108.52 194.278C108.708 194.463 108.817 194.715 108.823 194.98V210.177C108.817 210.444 108.709 210.698 108.521 210.886C108.332 211.074 108.078 211.183 107.812 211.188C107.548 211.182 107.296 211.074 107.111 210.885C106.925 210.696 106.822 210.442 106.822 210.177V195.081C106.808 194.942 106.823 194.803 106.866 194.671C106.909 194.539 106.98 194.417 107.074 194.314C107.167 194.211 107.281 194.129 107.408 194.073C107.535 194.017 107.673 193.989 107.812 193.989Z" fill="black"/>
<path opacity="0.2" d="M66.4429 193.989C66.7056 193.989 66.9575 194.094 67.1432 194.279C67.3289 194.465 67.4332 194.717 67.4332 194.98V210.177C67.4333 210.442 67.3296 210.696 67.1444 210.885C66.9593 211.074 66.7074 211.182 66.4429 211.188C66.1785 211.182 65.9266 211.074 65.7415 210.885C65.5563 210.696 65.4526 210.442 65.4527 210.177V195.081C65.4385 194.942 65.4536 194.803 65.4969 194.671C65.5403 194.539 65.611 194.417 65.7044 194.314C65.7978 194.211 65.9119 194.129 66.0391 194.073C66.1664 194.017 66.3039 193.989 66.4429 193.989Z" fill="black"/>
<path opacity="0.2" d="M123.535 211.248C123.268 211.243 123.014 211.135 122.826 210.947C122.637 210.758 122.529 210.504 122.524 210.238V195.081C122.529 194.816 122.638 194.564 122.827 194.379C123.016 194.194 123.27 194.09 123.535 194.09C123.797 194.09 124.049 194.195 124.235 194.38C124.421 194.566 124.525 194.818 124.525 195.081V210.278C124.515 210.536 124.406 210.78 124.222 210.96C124.038 211.14 123.792 211.243 123.535 211.248Z" fill="black"/>
<path d="M182.142 172.83H63.937C62.4302 172.83 61.2087 174.052 61.2087 175.558V189.745C61.2087 191.252 62.4302 192.474 63.937 192.474H182.142C183.649 192.474 184.871 191.252 184.871 189.745V175.558C184.871 174.052 183.649 172.83 182.142 172.83Z" fill="#FF5C8A"/>
<path opacity="0.5" d="M182.142 172.83H63.937C62.4302 172.83 61.2087 174.052 61.2087 175.558V189.745C61.2087 191.252 62.4302 192.474 63.937 192.474H182.142C183.649 192.474 184.871 191.252 184.871 189.745V175.558C184.871 174.052 183.649 172.83 182.142 172.83Z" fill="white"/>
<path opacity="0.2" d="M168.541 191.261C168.273 191.261 168.016 191.155 167.827 190.965C167.637 190.776 167.531 190.518 167.531 190.251V175.073C167.531 174.805 167.637 174.548 167.827 174.359C168.016 174.169 168.273 174.063 168.541 174.063C168.673 174.063 168.804 174.089 168.925 174.14C169.047 174.191 169.157 174.266 169.249 174.36C169.341 174.454 169.414 174.566 169.462 174.688C169.511 174.811 169.534 174.941 169.532 175.073V190.251C169.534 190.382 169.511 190.513 169.462 190.636C169.414 190.758 169.341 190.87 169.249 190.964C169.157 191.058 169.047 191.133 168.925 191.184C168.804 191.235 168.673 191.261 168.541 191.261Z" fill="black"/>
<path opacity="0.2" d="M154.415 191.261C154.147 191.261 153.89 191.155 153.7 190.965C153.511 190.776 153.404 190.518 153.404 190.251V175.073C153.404 174.805 153.511 174.548 153.7 174.359C153.89 174.169 154.147 174.063 154.415 174.063C154.547 174.063 154.677 174.089 154.798 174.14C154.92 174.191 155.03 174.266 155.122 174.36C155.214 174.454 155.287 174.566 155.336 174.688C155.384 174.811 155.408 174.941 155.405 175.073V190.251C155.408 190.382 155.384 190.513 155.336 190.636C155.287 190.758 155.214 190.87 155.122 190.964C155.03 191.058 154.92 191.133 154.798 191.184C154.677 191.235 154.547 191.261 154.415 191.261Z" fill="black"/>
<path opacity="0.2" d="M138.753 191.261C138.621 191.261 138.49 191.235 138.369 191.184C138.248 191.133 138.137 191.058 138.045 190.964C137.953 190.87 137.88 190.758 137.832 190.636C137.783 190.513 137.76 190.382 137.762 190.251V175.073C137.76 174.941 137.783 174.811 137.832 174.688C137.88 174.566 137.953 174.454 138.045 174.36C138.137 174.266 138.248 174.191 138.369 174.14C138.49 174.089 138.621 174.063 138.753 174.063C139.021 174.063 139.278 174.169 139.467 174.359C139.657 174.548 139.763 174.805 139.763 175.073V190.251C139.763 190.518 139.657 190.776 139.467 190.965C139.278 191.155 139.021 191.261 138.753 191.261Z" fill="black"/>
<path opacity="0.2" d="M180.121 191.261C179.99 191.261 179.859 191.235 179.738 191.184C179.616 191.133 179.506 191.058 179.414 190.964C179.322 190.87 179.249 190.758 179.201 190.636C179.152 190.513 179.128 190.382 179.131 190.251V175.073C179.128 174.941 179.152 174.811 179.201 174.688C179.249 174.566 179.322 174.454 179.414 174.36C179.506 174.266 179.616 174.191 179.738 174.14C179.859 174.089 179.99 174.063 180.121 174.063C180.389 174.063 180.646 174.169 180.836 174.359C181.025 174.548 181.132 174.805 181.132 175.073V190.251C181.132 190.518 181.025 190.776 180.836 190.965C180.646 191.155 180.389 191.261 180.121 191.261Z" fill="black"/>
<path opacity="0.2" d="M77.5583 174.063C77.6901 174.063 77.8205 174.089 77.942 174.14C78.0635 174.191 78.1736 174.266 78.2658 174.36C78.358 174.454 78.4305 174.566 78.4791 174.688C78.5277 174.811 78.5513 174.941 78.5486 175.073V190.251C78.5513 190.382 78.5277 190.513 78.4791 190.636C78.4305 190.758 78.358 190.87 78.2658 190.964C78.1736 191.058 78.0635 191.133 77.942 191.184C77.8205 191.235 77.6901 191.261 77.5583 191.261C77.2903 191.261 77.0333 191.155 76.8438 190.965C76.6543 190.776 76.5479 190.518 76.5479 190.251V175.073C76.5479 174.805 76.6543 174.548 76.8438 174.359C77.0333 174.169 77.2903 174.063 77.5583 174.063Z" fill="black"/>
<path opacity="0.2" d="M91.6645 174.063C91.9325 174.063 92.1896 174.169 92.3791 174.359C92.5686 174.548 92.675 174.805 92.675 175.073V190.251C92.675 190.518 92.5686 190.776 92.3791 190.965C92.1896 191.155 91.9325 191.261 91.6645 191.261C91.5328 191.261 91.4023 191.235 91.2808 191.184C91.1594 191.133 91.0493 191.058 90.9571 190.964C90.8648 190.87 90.7923 190.758 90.7438 190.636C90.6952 190.513 90.6716 190.382 90.6743 190.251V175.073C90.6716 174.941 90.6952 174.811 90.7438 174.688C90.7923 174.566 90.8648 174.454 90.9571 174.36C91.0493 174.266 91.1594 174.191 91.2808 174.14C91.4023 174.089 91.5328 174.063 91.6645 174.063Z" fill="black"/>
<path opacity="0.2" d="M107.326 174.063C107.594 174.063 107.851 174.169 108.041 174.359C108.23 174.548 108.337 174.805 108.337 175.073V190.251C108.337 190.518 108.23 190.776 108.041 190.965C107.851 191.155 107.594 191.261 107.326 191.261C107.195 191.261 107.064 191.235 106.943 191.184C106.821 191.133 106.711 191.058 106.619 190.964C106.527 190.87 106.454 190.758 106.406 190.636C106.357 190.513 106.333 190.382 106.336 190.251V175.073C106.333 174.941 106.357 174.811 106.406 174.688C106.454 174.566 106.527 174.454 106.619 174.36C106.711 174.266 106.821 174.191 106.943 174.14C107.064 174.089 107.195 174.063 107.326 174.063Z" fill="black"/>
<path opacity="0.2" d="M65.958 174.063C66.0897 174.063 66.2202 174.089 66.3417 174.14C66.4632 174.191 66.5732 174.266 66.6655 174.36C66.7577 174.454 66.8302 174.566 66.8788 174.688C66.9273 174.811 66.9509 174.941 66.9482 175.073V190.251C66.9509 190.382 66.9273 190.513 66.8788 190.636C66.8302 190.758 66.7577 190.87 66.6655 190.964C66.5732 191.058 66.4632 191.133 66.3417 191.184C66.2202 191.235 66.0897 191.261 65.958 191.261C65.69 191.261 65.433 191.155 65.2435 190.965C65.054 190.776 64.9475 190.518 64.9475 190.251V175.073C64.9475 174.805 65.054 174.548 65.2435 174.359C65.433 174.169 65.69 174.063 65.958 174.063Z" fill="black"/>
<path opacity="0.2" d="M123.05 191.261C122.782 191.261 122.525 191.155 122.336 190.965C122.146 190.776 122.04 190.518 122.04 190.251V175.073C122.04 174.805 122.146 174.548 122.336 174.359C122.525 174.169 122.782 174.063 123.05 174.063C123.182 174.063 123.312 174.089 123.434 174.14C123.555 174.191 123.665 174.266 123.757 174.36C123.85 174.454 123.922 174.566 123.971 174.688C124.019 174.811 124.043 174.941 124.04 175.073V190.251C124.043 190.382 124.019 190.513 123.971 190.636C123.922 190.758 123.85 190.87 123.757 190.964C123.665 191.058 123.555 191.133 123.434 191.184C123.312 191.235 123.182 191.261 123.05 191.261Z" fill="black"/>
<path d="M187.72 152.924H69.5147C68.0079 152.924 66.7864 154.145 66.7864 155.652V169.839C66.7864 171.346 68.0079 172.567 69.5147 172.567H187.72C189.227 172.567 190.448 171.346 190.448 169.839V155.652C190.448 154.145 189.227 152.924 187.72 152.924Z" fill="#FF5C8A"/>
<path opacity="0.5" d="M187.72 152.924H69.5147C68.0079 152.924 66.7864 154.145 66.7864 155.652V169.839C66.7864 171.346 68.0079 172.567 69.5147 172.567H187.72C189.227 172.567 190.448 171.346 190.448 169.839V155.652C190.448 154.145 189.227 152.924 187.72 152.924Z" fill="white"/>
<path opacity="0.2" d="M174.119 171.334C173.851 171.334 173.594 171.228 173.405 171.038C173.215 170.849 173.109 170.592 173.109 170.324V155.147C173.114 154.88 173.222 154.626 173.41 154.438C173.599 154.249 173.853 154.141 174.119 154.136C174.384 154.141 174.635 154.25 174.821 154.439C175.006 154.628 175.109 154.882 175.109 155.147V170.324C175.112 170.456 175.088 170.587 175.04 170.709C174.991 170.832 174.919 170.943 174.827 171.037C174.734 171.131 174.624 171.206 174.503 171.257C174.381 171.308 174.251 171.334 174.119 171.334Z" fill="black"/>
<path opacity="0.2" d="M159.993 171.334C159.725 171.334 159.468 171.228 159.278 171.038C159.089 170.849 158.982 170.592 158.982 170.324V155.147C158.988 154.88 159.096 154.626 159.284 154.438C159.472 154.249 159.727 154.141 159.993 154.136C160.257 154.141 160.509 154.25 160.694 154.439C160.88 154.628 160.983 154.882 160.983 155.147V170.324C160.986 170.456 160.962 170.587 160.914 170.709C160.865 170.832 160.793 170.943 160.7 171.037C160.608 171.131 160.498 171.206 160.377 171.257C160.255 171.308 160.125 171.334 159.993 171.334Z" fill="black"/>
<path opacity="0.2" d="M144.33 171.334C144.199 171.334 144.068 171.308 143.947 171.257C143.825 171.206 143.715 171.131 143.623 171.037C143.531 170.943 143.458 170.832 143.41 170.709C143.361 170.587 143.337 170.456 143.34 170.324V155.147C143.34 154.882 143.444 154.628 143.629 154.439C143.814 154.25 144.066 154.141 144.33 154.136C144.597 154.141 144.851 154.249 145.039 154.438C145.227 154.626 145.336 154.88 145.341 155.147V170.324C145.341 170.592 145.234 170.849 145.045 171.038C144.855 171.228 144.598 171.334 144.33 171.334Z" fill="black"/>
<path opacity="0.2" d="M185.699 171.334C185.568 171.334 185.437 171.308 185.316 171.257C185.194 171.206 185.084 171.131 184.992 171.037C184.9 170.943 184.827 170.832 184.779 170.709C184.73 170.587 184.707 170.456 184.709 170.324V155.147C184.709 154.882 184.813 154.628 184.998 154.439C185.183 154.25 185.435 154.141 185.699 154.136C185.967 154.136 186.224 154.243 186.414 154.432C186.603 154.622 186.71 154.879 186.71 155.147V170.324C186.71 170.592 186.603 170.849 186.414 171.038C186.224 171.228 185.967 171.334 185.699 171.334Z" fill="black"/>
<path opacity="0.2" d="M83.136 154.136C83.4004 154.141 83.6523 154.25 83.8374 154.439C84.0226 154.628 84.1263 154.882 84.1262 155.147V170.324C84.1289 170.456 84.1053 170.587 84.0567 170.709C84.0082 170.832 83.9357 170.943 83.8434 171.037C83.7512 171.131 83.6411 171.206 83.5197 171.257C83.3982 171.308 83.2677 171.334 83.136 171.334C82.868 171.334 82.6109 171.228 82.4214 171.038C82.2319 170.849 82.1255 170.592 82.1255 170.324V155.147C82.1255 154.879 82.2319 154.622 82.4214 154.432C82.6109 154.243 82.868 154.136 83.136 154.136Z" fill="black"/>
<path opacity="0.2" d="M97.2422 154.136C97.5102 154.136 97.7672 154.243 97.9567 154.432C98.1462 154.622 98.2527 154.879 98.2527 155.147V170.324C98.2527 170.592 98.1462 170.849 97.9567 171.038C97.7672 171.228 97.5102 171.334 97.2422 171.334C97.1104 171.334 96.98 171.308 96.8585 171.257C96.737 171.206 96.6269 171.131 96.5347 171.037C96.4425 170.943 96.37 170.832 96.3214 170.709C96.2729 170.587 96.2492 170.456 96.2519 170.324V155.147C96.2519 154.882 96.3556 154.628 96.5407 154.439C96.7259 154.25 96.9777 154.141 97.2422 154.136Z" fill="black"/>
<path opacity="0.2" d="M112.905 154.136C113.171 154.141 113.425 154.249 113.614 154.438C113.802 154.626 113.91 154.88 113.915 155.147V170.324C113.915 170.592 113.809 170.849 113.619 171.038C113.43 171.228 113.173 171.334 112.905 171.334C112.773 171.334 112.643 171.308 112.521 171.257C112.4 171.206 112.29 171.131 112.197 171.037C112.105 170.943 112.033 170.832 111.984 170.709C111.935 170.587 111.912 170.456 111.915 170.324V155.147C111.914 154.882 112.018 154.628 112.203 154.439C112.388 154.25 112.64 154.141 112.905 154.136Z" fill="black"/>
<path opacity="0.2" d="M71.5356 154.136C71.8001 154.141 72.052 154.25 72.2371 154.439C72.4223 154.628 72.5259 154.882 72.5259 155.147V170.324C72.5286 170.456 72.5049 170.587 72.4564 170.709C72.4078 170.832 72.3353 170.943 72.2431 171.037C72.1509 171.131 72.0408 171.206 71.9193 171.257C71.7978 171.308 71.6674 171.334 71.5356 171.334C71.2676 171.334 71.0106 171.228 70.8211 171.038C70.6316 170.849 70.5251 170.592 70.5251 170.324V155.147C70.5303 154.88 70.6384 154.626 70.8268 154.438C71.0152 154.249 71.2692 154.141 71.5356 154.136Z" fill="black"/>
<path opacity="0.2" d="M128.628 171.334C128.36 171.334 128.103 171.228 127.913 171.038C127.724 170.849 127.617 170.592 127.617 170.324V155.147C127.617 154.879 127.724 154.622 127.913 154.432C128.103 154.243 128.36 154.136 128.628 154.136C128.892 154.141 129.144 154.25 129.329 154.439C129.514 154.628 129.618 154.882 129.618 155.147V170.324C129.621 170.456 129.597 170.587 129.548 170.709C129.5 170.832 129.427 170.943 129.335 171.037C129.243 171.131 129.133 171.206 129.011 171.257C128.89 171.308 128.759 171.334 128.628 171.334Z" fill="black"/>
<path d="M183.193 132.997H64.9881C63.4813 132.997 62.2598 134.219 62.2598 135.725V149.913C62.2598 151.419 63.4813 152.641 64.9881 152.641H183.193C184.7 152.641 185.922 151.419 185.922 149.913V135.725C185.922 134.219 184.7 132.997 183.193 132.997Z" fill="#FF5C8A"/>
<path opacity="0.5" d="M183.193 132.997H64.9881C63.4813 132.997 62.2598 134.219 62.2598 135.725V149.913C62.2598 151.419 63.4813 152.641 64.9881 152.641H183.193C184.7 152.641 185.922 151.419 185.922 149.913V135.725C185.922 134.219 184.7 132.997 183.193 132.997Z" fill="white"/>
<path opacity="0.2" d="M169.592 151.408C169.46 151.411 169.329 151.387 169.207 151.338C169.084 151.29 168.973 151.217 168.879 151.125C168.785 151.033 168.71 150.923 168.659 150.801C168.608 150.68 168.582 150.549 168.582 150.418V135.22C168.582 135.088 168.608 134.958 168.659 134.836C168.71 134.715 168.785 134.605 168.879 134.513C168.973 134.42 169.084 134.348 169.207 134.299C169.329 134.251 169.46 134.227 169.592 134.23C169.722 134.23 169.851 134.255 169.971 134.305C170.091 134.355 170.2 134.428 170.292 134.52C170.384 134.612 170.457 134.721 170.507 134.841C170.557 134.961 170.582 135.09 170.582 135.22V150.418C170.582 150.548 170.557 150.676 170.507 150.797C170.457 150.917 170.384 151.026 170.292 151.118C170.2 151.21 170.091 151.283 169.971 151.332C169.851 151.382 169.722 151.408 169.592 151.408Z" fill="black"/>
<path opacity="0.2" d="M155.466 151.408C155.334 151.411 155.203 151.387 155.081 151.338C154.958 151.29 154.847 151.217 154.753 151.125C154.658 151.033 154.584 150.923 154.533 150.801C154.482 150.68 154.455 150.549 154.455 150.418V135.22C154.455 135.088 154.482 134.958 154.533 134.836C154.584 134.715 154.658 134.605 154.753 134.513C154.847 134.42 154.958 134.348 155.081 134.299C155.203 134.251 155.334 134.227 155.466 134.23C155.728 134.23 155.98 134.334 156.166 134.52C156.352 134.706 156.456 134.957 156.456 135.22V150.418C156.456 150.68 156.352 150.932 156.166 151.118C155.98 151.304 155.728 151.408 155.466 151.408Z" fill="black"/>
<path opacity="0.2" d="M139.803 151.408C139.539 151.408 139.285 151.304 139.096 151.119C138.907 150.934 138.798 150.682 138.793 150.418V135.22C138.798 134.956 138.907 134.704 139.096 134.519C139.285 134.333 139.539 134.23 139.803 134.23C140.066 134.23 140.318 134.334 140.503 134.52C140.689 134.706 140.793 134.957 140.793 135.22V150.418C140.793 150.68 140.689 150.932 140.503 151.118C140.318 151.304 140.066 151.408 139.803 151.408Z" fill="black"/>
<path opacity="0.2" d="M181.172 151.408C181.042 151.408 180.913 151.382 180.793 151.332C180.673 151.283 180.564 151.21 180.472 151.118C180.38 151.026 180.307 150.917 180.257 150.797C180.207 150.676 180.182 150.548 180.182 150.418V135.22C180.182 135.09 180.207 134.961 180.257 134.841C180.307 134.721 180.38 134.612 180.472 134.52C180.564 134.428 180.673 134.355 180.793 134.305C180.913 134.255 181.042 134.23 181.172 134.23C181.437 134.23 181.691 134.333 181.88 134.519C182.069 134.704 182.177 134.956 182.183 135.22V150.418C182.177 150.682 182.069 150.934 181.88 151.119C181.691 151.304 181.437 151.408 181.172 151.408Z" fill="black"/>
<path opacity="0.2" d="M78.5891 134.23C78.8537 134.23 79.1077 134.333 79.2966 134.519C79.4855 134.704 79.5943 134.956 79.5996 135.22V150.418C79.5943 150.682 79.4855 150.934 79.2966 151.119C79.1077 151.304 78.8537 151.408 78.5891 151.408C78.3265 151.408 78.0746 151.304 77.8889 151.118C77.7032 150.932 77.5989 150.68 77.5989 150.418V135.22C77.5989 134.957 77.7032 134.706 77.8889 134.52C78.0746 134.334 78.3265 134.23 78.5891 134.23Z" fill="black"/>
<path opacity="0.2" d="M92.7154 134.23C92.9799 134.23 93.2339 134.333 93.4228 134.519C93.6118 134.704 93.7205 134.956 93.7258 135.22V150.418C93.7205 150.682 93.6118 150.934 93.4228 151.119C93.2339 151.304 92.9799 151.408 92.7154 151.408C92.4527 151.408 92.2008 151.304 92.0151 151.118C91.8294 150.932 91.7251 150.68 91.7251 150.418V135.22C91.7251 134.957 91.8294 134.706 92.0151 134.52C92.2008 134.334 92.4527 134.23 92.7154 134.23Z" fill="black"/>
<path opacity="0.2" d="M108.378 134.23C108.64 134.23 108.892 134.334 109.078 134.52C109.264 134.706 109.368 134.957 109.368 135.22V150.418C109.368 150.68 109.264 150.932 109.078 151.118C108.892 151.304 108.64 151.408 108.378 151.408C108.113 151.408 107.859 151.304 107.67 151.119C107.481 150.934 107.372 150.682 107.367 150.418V135.22C107.372 134.956 107.481 134.704 107.67 134.519C107.859 134.333 108.113 134.23 108.378 134.23Z" fill="black"/>
<path opacity="0.2" d="M67.009 134.23C67.2716 134.23 67.5235 134.334 67.7092 134.52C67.8949 134.706 67.9993 134.957 67.9993 135.22V150.418C67.9993 150.68 67.8949 150.932 67.7092 151.118C67.5235 151.304 67.2716 151.408 67.009 151.408C66.8773 151.411 66.7463 151.387 66.6238 151.338C66.5014 151.29 66.3898 151.217 66.2957 151.125C66.2016 151.033 66.1268 150.923 66.0758 150.801C66.0248 150.68 65.9985 150.549 65.9985 150.418V135.22C65.9985 135.088 66.0248 134.958 66.0758 134.836C66.1268 134.715 66.2016 134.605 66.2957 134.513C66.3898 134.42 66.5014 134.348 66.6238 134.299C66.7463 134.251 66.8773 134.227 67.009 134.23Z" fill="black"/>
<path opacity="0.2" d="M124.08 151.408C123.817 151.408 123.566 151.304 123.38 151.118C123.194 150.932 123.09 150.68 123.09 150.418V135.22C123.09 134.957 123.194 134.706 123.38 134.52C123.566 134.334 123.817 134.23 124.08 134.23C124.212 134.227 124.343 134.251 124.465 134.299C124.588 134.348 124.699 134.42 124.793 134.513C124.888 134.605 124.962 134.715 125.013 134.836C125.064 134.958 125.091 135.088 125.091 135.22V150.418C125.091 150.549 125.064 150.68 125.013 150.801C124.962 150.923 124.888 151.033 124.793 151.125C124.699 151.217 124.588 151.29 124.465 151.338C124.343 151.387 124.212 151.411 124.08 151.408Z" fill="black"/>
<path d="M188.771 113.071H70.5657C69.0589 113.071 67.8374 114.292 67.8374 115.799V129.986C67.8374 131.493 69.0589 132.714 70.5657 132.714H188.771C190.278 132.714 191.499 131.493 191.499 129.986V115.799C191.499 114.292 190.278 113.071 188.771 113.071Z" fill="#FF5C8A"/>
<path opacity="0.5" d="M188.771 113.071H70.5657C69.0589 113.071 67.8374 114.292 67.8374 115.799V129.986C67.8374 131.493 69.0589 132.714 70.5657 132.714H188.771C190.278 132.714 191.499 131.493 191.499 129.986V115.799C191.499 114.292 190.278 113.071 188.771 113.071Z" fill="white"/>
<path opacity="0.2" d="M175.17 131.481C175.038 131.484 174.907 131.461 174.784 131.412C174.662 131.363 174.55 131.291 174.456 131.199C174.362 131.106 174.287 130.996 174.236 130.875C174.185 130.753 174.159 130.623 174.159 130.491V115.294C174.159 115.162 174.185 115.031 174.236 114.91C174.287 114.789 174.362 114.678 174.456 114.586C174.55 114.494 174.662 114.421 174.784 114.373C174.907 114.324 175.038 114.301 175.17 114.303C175.432 114.303 175.684 114.408 175.87 114.593C176.056 114.779 176.16 115.031 176.16 115.294V130.41C176.171 130.547 176.154 130.685 176.109 130.814C176.064 130.944 175.993 131.063 175.9 131.163C175.807 131.264 175.694 131.344 175.568 131.399C175.443 131.454 175.307 131.482 175.17 131.481Z" fill="black"/>
<path opacity="0.2" d="M161.043 131.481C160.912 131.484 160.781 131.461 160.658 131.412C160.536 131.363 160.424 131.291 160.33 131.199C160.236 131.106 160.161 130.996 160.11 130.875C160.059 130.753 160.033 130.623 160.033 130.491V115.294C160.033 115.162 160.059 115.031 160.11 114.91C160.161 114.789 160.236 114.678 160.33 114.586C160.424 114.494 160.536 114.421 160.658 114.373C160.781 114.324 160.912 114.301 161.043 114.303C161.306 114.303 161.558 114.408 161.744 114.593C161.929 114.779 162.034 115.031 162.034 115.294V130.41C162.045 130.547 162.028 130.685 161.983 130.814C161.938 130.944 161.867 131.063 161.774 131.163C161.681 131.264 161.568 131.344 161.442 131.399C161.316 131.454 161.181 131.482 161.043 131.481Z" fill="black"/>
<path opacity="0.2" d="M145.381 131.481C145.119 131.481 144.867 131.377 144.681 131.191C144.495 131.006 144.391 130.754 144.391 130.491V115.293C144.391 115.031 144.495 114.779 144.681 114.593C144.867 114.408 145.119 114.303 145.381 114.303C145.644 114.303 145.896 114.408 146.081 114.593C146.267 114.779 146.371 115.031 146.371 115.293V130.41C146.383 130.547 146.365 130.684 146.321 130.814C146.276 130.944 146.205 131.063 146.112 131.163C146.018 131.264 145.905 131.344 145.78 131.399C145.654 131.454 145.518 131.482 145.381 131.481Z" fill="black"/>
<path opacity="0.2" d="M186.75 131.481C186.488 131.481 186.236 131.377 186.05 131.191C185.864 131.006 185.76 130.754 185.76 130.491V115.293C185.76 115.031 185.864 114.779 186.05 114.593C186.236 114.408 186.488 114.303 186.75 114.303C187.015 114.303 187.269 114.407 187.458 114.592C187.647 114.777 187.755 115.029 187.761 115.293V130.41C187.769 130.548 187.749 130.686 187.702 130.816C187.655 130.945 187.582 131.064 187.487 131.164C187.392 131.265 187.278 131.344 187.152 131.399C187.025 131.454 186.888 131.482 186.75 131.481Z" fill="black"/>
<path opacity="0.2" d="M84.1668 114.243C84.2985 114.24 84.4294 114.264 84.5519 114.312C84.6744 114.361 84.786 114.433 84.8801 114.526C84.9742 114.618 85.049 114.728 85.1 114.849C85.151 114.971 85.1773 115.101 85.1772 115.233V130.41C85.1773 130.542 85.151 130.673 85.1 130.794C85.049 130.916 84.9742 131.026 84.8801 131.118C84.786 131.21 84.6744 131.283 84.5519 131.331C84.4294 131.38 84.2985 131.403 84.1668 131.401C83.9041 131.401 83.6523 131.296 83.4666 131.111C83.2808 130.925 83.1765 130.673 83.1765 130.41V115.213C83.1818 114.954 83.2885 114.707 83.4736 114.526C83.6587 114.344 83.9076 114.243 84.1668 114.243Z" fill="black"/>
<path opacity="0.2" d="M98.293 114.243C98.5575 114.243 98.8115 114.346 99.0005 114.532C99.1894 114.717 99.2982 114.969 99.3035 115.233V130.41C99.2982 130.675 99.1894 130.927 99.0005 131.112C98.8115 131.297 98.5575 131.401 98.293 131.401C98.0304 131.401 97.7785 131.296 97.5928 131.111C97.4071 130.925 97.3027 130.673 97.3027 130.41V115.213C97.308 114.954 97.4147 114.707 97.5998 114.526C97.785 114.344 98.0338 114.243 98.293 114.243Z" fill="black"/>
<path opacity="0.2" d="M113.956 114.243C114.086 114.243 114.214 114.268 114.335 114.318C114.455 114.368 114.564 114.441 114.656 114.533C114.748 114.625 114.821 114.734 114.87 114.854C114.92 114.974 114.946 115.103 114.946 115.233V130.41C114.946 130.673 114.842 130.925 114.656 131.111C114.47 131.296 114.218 131.401 113.956 131.401C113.693 131.401 113.441 131.296 113.255 131.111C113.07 130.925 112.965 130.673 112.965 130.41V115.213C112.971 114.954 113.077 114.707 113.262 114.526C113.448 114.344 113.696 114.243 113.956 114.243Z" fill="black"/>
<path opacity="0.2" d="M72.5866 114.243C72.7167 114.243 72.8455 114.268 72.9656 114.318C73.0857 114.368 73.1949 114.441 73.2869 114.533C73.3788 114.625 73.4518 114.734 73.5015 114.854C73.5513 114.974 73.5769 115.103 73.5769 115.233V130.41C73.5769 130.673 73.4726 130.925 73.2869 131.111C73.1012 131.296 72.8493 131.401 72.5866 131.401C72.3221 131.401 72.0681 131.297 71.8792 131.112C71.6903 130.927 71.5815 130.675 71.5762 130.41V115.213C71.5866 114.952 71.6977 114.705 71.8861 114.524C72.0744 114.343 72.3255 114.243 72.5866 114.243Z" fill="black"/>
<path opacity="0.2" d="M129.658 131.481C129.396 131.481 129.144 131.377 128.958 131.191C128.773 131.006 128.668 130.754 128.668 130.491V115.294C128.668 115.031 128.773 114.779 128.958 114.593C129.144 114.408 129.396 114.303 129.658 114.303C129.79 114.301 129.921 114.324 130.044 114.373C130.166 114.421 130.278 114.494 130.372 114.586C130.466 114.678 130.541 114.789 130.592 114.91C130.643 115.031 130.669 115.162 130.669 115.294V130.41C130.68 130.549 130.662 130.688 130.617 130.819C130.571 130.95 130.498 131.07 130.402 131.171C130.307 131.272 130.192 131.352 130.063 131.405C129.935 131.459 129.797 131.485 129.658 131.481Z" fill="black"/>
<path d="M188.286 93.1439H70.0806C68.5738 93.1439 67.3523 94.3654 67.3523 95.8722V110.059C67.3523 111.566 68.5738 112.788 70.0806 112.788H188.286C189.793 112.788 191.014 111.566 191.014 110.059V95.8722C191.014 94.3654 189.793 93.1439 188.286 93.1439Z" fill="#FF5C8A"/>
<path opacity="0.5" d="M188.286 93.1439H70.0806C68.5738 93.1439 67.3523 94.3654 67.3523 95.8722V110.059C67.3523 111.566 68.5738 112.788 70.0806 112.788H188.286C189.793 112.788 191.014 111.566 191.014 110.059V95.8722C191.014 94.3654 189.793 93.1439 188.286 93.1439Z" fill="white"/>
<path opacity="0.2" d="M174.665 111.555C174.535 111.555 174.406 111.529 174.286 111.479C174.166 111.43 174.057 111.357 173.965 111.265C173.873 111.173 173.8 111.064 173.75 110.944C173.7 110.823 173.675 110.695 173.675 110.565V95.367C173.675 95.237 173.7 95.1082 173.75 94.988C173.8 94.8679 173.873 94.7587 173.965 94.6668C174.057 94.5748 174.166 94.5019 174.286 94.4522C174.406 94.4024 174.535 94.3768 174.665 94.3768C174.797 94.3741 174.928 94.3977 175.05 94.4462C175.172 94.4948 175.284 94.5673 175.378 94.6596C175.472 94.7518 175.547 94.8619 175.598 94.9834C175.649 95.1048 175.675 95.2353 175.675 95.367V110.565C175.675 110.696 175.649 110.827 175.598 110.948C175.547 111.07 175.472 111.18 175.378 111.272C175.284 111.364 175.172 111.437 175.05 111.485C174.928 111.534 174.797 111.558 174.665 111.555Z" fill="black"/>
<path opacity="0.2" d="M160.559 111.555C160.427 111.558 160.296 111.534 160.174 111.485C160.051 111.437 159.94 111.364 159.845 111.272C159.751 111.18 159.677 111.07 159.626 110.948C159.575 110.827 159.548 110.696 159.548 110.565V95.367C159.548 95.2353 159.575 95.1048 159.626 94.9834C159.677 94.8619 159.751 94.7518 159.845 94.6596C159.94 94.5673 160.051 94.4948 160.174 94.4462C160.296 94.3977 160.427 94.3741 160.559 94.3768C160.821 94.3768 161.073 94.4811 161.259 94.6668C161.445 94.8525 161.549 95.1044 161.549 95.367V110.565C161.549 110.827 161.445 111.079 161.259 111.265C161.073 111.451 160.821 111.555 160.559 111.555Z" fill="black"/>
<path opacity="0.2" d="M144.896 111.555C144.632 111.555 144.378 111.451 144.189 111.266C144 111.081 143.891 110.829 143.886 110.565V95.3671C143.891 95.1026 144 94.8507 144.189 94.6656C144.378 94.4804 144.632 94.3768 144.896 94.3768C145.159 94.3768 145.411 94.4811 145.596 94.6668C145.782 94.8525 145.886 95.1044 145.886 95.3671V110.565C145.886 110.827 145.782 111.079 145.596 111.265C145.411 111.451 145.159 111.555 144.896 111.555Z" fill="black"/>
<path opacity="0.2" d="M186.265 111.555C186.135 111.555 186.006 111.529 185.886 111.479C185.766 111.43 185.657 111.357 185.565 111.265C185.473 111.173 185.4 111.064 185.35 110.944C185.3 110.823 185.275 110.695 185.275 110.565V95.3671C185.275 95.237 185.3 95.1082 185.35 94.9881C185.4 94.8679 185.473 94.7588 185.565 94.6668C185.657 94.5749 185.766 94.502 185.886 94.4522C186.006 94.4024 186.135 94.3768 186.265 94.3768C186.529 94.3768 186.783 94.4804 186.972 94.6656C187.161 94.8507 187.27 95.1026 187.275 95.3671V110.565C187.27 110.829 187.161 111.081 186.972 111.266C186.783 111.451 186.529 111.555 186.265 111.555Z" fill="black"/>
<path opacity="0.2" d="M83.6814 94.3768C83.946 94.3768 84.2 94.4804 84.3889 94.6656C84.5778 94.8507 84.6866 95.1026 84.6919 95.3671V110.565C84.6866 110.829 84.5778 111.081 84.3889 111.266C84.2 111.451 83.946 111.555 83.6814 111.555C83.4188 111.555 83.1669 111.451 82.9812 111.265C82.7955 111.079 82.6912 110.827 82.6912 110.565V95.3671C82.6912 95.1044 82.7955 94.8525 82.9812 94.6668C83.1669 94.4811 83.4188 94.3768 83.6814 94.3768Z" fill="black"/>
<path opacity="0.2" d="M97.8084 94.3768C98.0729 94.3768 98.3269 94.4804 98.5158 94.6656C98.7048 94.8507 98.8136 95.1026 98.8189 95.3671V110.565C98.8136 110.829 98.7048 111.081 98.5158 111.266C98.3269 111.451 98.0729 111.555 97.8084 111.555C97.5457 111.555 97.2939 111.451 97.1082 111.265C96.9224 111.079 96.8181 110.827 96.8181 110.565V95.3671C96.8181 95.1044 96.9224 94.8525 97.1082 94.6668C97.2939 94.4811 97.5457 94.3768 97.8084 94.3768Z" fill="black"/>
<path opacity="0.2" d="M113.471 94.3768C113.733 94.3768 113.985 94.4811 114.171 94.6668C114.357 94.8525 114.461 95.1044 114.461 95.3671V110.565C114.461 110.827 114.357 111.079 114.171 111.265C113.985 111.451 113.733 111.555 113.471 111.555C113.206 111.555 112.952 111.451 112.763 111.266C112.574 111.081 112.465 110.829 112.46 110.565V95.3671C112.465 95.1026 112.574 94.8507 112.763 94.6656C112.952 94.4804 113.206 94.3768 113.471 94.3768Z" fill="black"/>
<path opacity="0.2" d="M72.1015 94.3768C72.3642 94.3768 72.616 94.4811 72.8018 94.6668C72.9875 94.8525 73.0918 95.1044 73.0918 95.367V110.565C73.0918 110.827 72.9875 111.079 72.8018 111.265C72.616 111.451 72.3642 111.555 72.1015 111.555C71.9698 111.558 71.8389 111.534 71.7164 111.485C71.5939 111.437 71.4823 111.364 71.3882 111.272C71.2941 111.18 71.2194 111.07 71.1683 110.948C71.1173 110.827 71.091 110.696 71.0911 110.565V95.367C71.091 95.2353 71.1173 95.1048 71.1683 94.9834C71.2194 94.8619 71.2941 94.7518 71.3882 94.6596C71.4823 94.5673 71.5939 94.4948 71.7164 94.4462C71.8389 94.3977 71.9698 94.3741 72.1015 94.3768Z" fill="black"/>
<path opacity="0.2" d="M129.173 111.555C128.91 111.555 128.659 111.451 128.473 111.265C128.287 111.079 128.183 110.827 128.183 110.565V95.367C128.183 95.1044 128.287 94.8525 128.473 94.6668C128.659 94.4811 128.91 94.3768 129.173 94.3768C129.305 94.3741 129.436 94.3977 129.558 94.4462C129.681 94.4948 129.792 94.5673 129.886 94.6596C129.981 94.7518 130.055 94.8619 130.106 94.9834C130.157 95.1048 130.184 95.2353 130.184 95.367V110.565C130.184 110.696 130.157 110.827 130.106 110.948C130.055 111.07 129.981 111.18 129.886 111.272C129.792 111.364 129.681 111.437 129.558 111.485C129.436 111.534 129.305 111.558 129.173 111.555Z" fill="black"/>
<path d="M130.877 230.86C136.911 205.297 121.079 179.683 95.5158 173.65C69.9528 167.616 44.3388 183.448 38.3053 209.011C32.2719 234.574 48.1038 260.188 73.6668 266.222C99.2299 272.255 124.844 256.423 130.877 230.86Z" fill="#FF5C8A"/>
<path d="M99.1192 238.024H70.0722C69.698 238.021 69.3366 237.887 69.0509 237.645C68.7652 237.404 68.5733 237.069 68.5086 236.701L63.3848 206.439C63.3436 206.212 63.3536 205.979 63.4139 205.756C63.4742 205.533 63.5835 205.327 63.7336 205.152C63.8808 204.976 64.0647 204.834 64.2725 204.736C64.4802 204.639 64.7068 204.588 64.9364 204.587H104.243C104.474 204.587 104.702 204.637 104.911 204.735C105.12 204.832 105.306 204.974 105.454 205.15C105.603 205.327 105.712 205.533 105.773 205.756C105.834 205.978 105.845 206.211 105.807 206.439L100.683 236.701C100.618 237.069 100.426 237.404 100.141 237.645C99.8549 237.887 99.4934 238.021 99.1192 238.024ZM71.4554 234.848H97.8202L102.403 207.762H66.8247L71.4554 234.848Z" fill="white"/>
<path d="M89.4239 238.024H79.8017C79.3957 238.021 79.0058 237.865 78.7109 237.586C78.4161 237.307 78.2385 236.926 78.2141 236.52L76.5061 206.259C76.4947 206.043 76.5273 205.828 76.6019 205.625C76.6766 205.423 76.7917 205.238 76.9403 205.081C77.0889 204.925 77.2678 204.8 77.4661 204.715C77.6645 204.63 77.878 204.586 78.0938 204.587H91.1439C91.3597 204.586 91.5733 204.63 91.7716 204.715C91.9699 204.8 92.1488 204.925 92.2974 205.081C92.446 205.238 92.5611 205.423 92.6358 205.625C92.7104 205.828 92.743 206.043 92.7316 206.259L91.0356 236.52C91.011 236.93 90.83 237.314 90.5301 237.594C90.2301 237.874 89.8341 238.028 89.4239 238.024ZM81.2812 234.848H87.9205L89.436 207.762H79.8138L81.2812 234.848Z" fill="white"/>
<path d="M102.245 217.95H66.9435C66.5448 217.916 66.1735 217.733 65.903 217.438C65.6325 217.143 65.4824 216.757 65.4824 216.357C65.4824 215.956 65.6325 215.571 65.903 215.275C66.1735 214.98 66.5448 214.798 66.9435 214.763H102.245C102.466 214.744 102.688 214.771 102.898 214.842C103.108 214.913 103.301 215.028 103.465 215.177C103.628 215.327 103.759 215.509 103.848 215.712C103.937 215.915 103.983 216.135 103.983 216.357C103.983 216.578 103.937 216.798 103.848 217.001C103.759 217.204 103.628 217.386 103.465 217.536C103.301 217.685 103.108 217.8 102.898 217.871C102.688 217.942 102.466 217.969 102.245 217.95Z" fill="white"/>
<path d="M100.358 228.053H68.833C68.412 228.053 68.0081 227.886 67.7104 227.588C67.4126 227.29 67.2454 226.886 67.2454 226.465C67.2454 226.044 67.4126 225.64 67.7104 225.343C68.0081 225.045 68.412 224.878 68.833 224.878H100.358C100.566 224.878 100.773 224.919 100.965 224.999C101.158 225.078 101.333 225.195 101.48 225.343C101.628 225.49 101.745 225.665 101.825 225.858C101.904 226.05 101.945 226.257 101.945 226.465C101.945 226.674 101.904 226.88 101.825 227.073C101.745 227.266 101.628 227.441 101.48 227.588C101.333 227.735 101.158 227.852 100.965 227.932C100.773 228.012 100.566 228.053 100.358 228.053Z" fill="white"/>
<path d="M100.827 249.979C99.8376 249.977 98.8714 249.682 98.0502 249.13C97.2289 248.579 96.5895 247.797 96.2126 246.882C95.8358 245.968 95.7384 244.962 95.9328 243.992C96.1272 243.023 96.6047 242.132 97.305 241.434C98.0052 240.735 98.8968 240.26 99.867 240.068C100.837 239.876 101.843 239.975 102.756 240.354C103.67 240.733 104.451 241.375 105 242.197C105.549 243.02 105.842 243.987 105.842 244.976C105.842 245.634 105.712 246.286 105.46 246.893C105.208 247.501 104.838 248.053 104.373 248.518C103.907 248.983 103.354 249.351 102.745 249.602C102.137 249.853 101.485 249.981 100.827 249.979ZM100.827 243.148C100.465 243.148 100.112 243.255 99.811 243.456C99.5104 243.657 99.2761 243.942 99.1377 244.276C98.9993 244.61 98.9631 244.978 99.0337 245.333C99.1042 245.687 99.2783 246.013 99.534 246.269C99.7897 246.524 100.115 246.698 100.47 246.769C100.825 246.84 101.192 246.803 101.526 246.665C101.86 246.527 102.146 246.292 102.347 245.992C102.548 245.691 102.655 245.338 102.655 244.976C102.636 244.503 102.436 244.055 102.095 243.725C101.755 243.396 101.3 243.211 100.827 243.208V243.148Z" fill="white"/>
<path d="M68.3514 249.979C67.3623 249.977 66.3961 249.682 65.5749 249.13C64.7536 248.579 64.1142 247.797 63.7373 246.882C63.3604 245.968 63.2631 244.962 63.4575 243.992C63.6519 243.023 64.1294 242.132 64.8296 241.434C65.5299 240.735 66.4214 240.26 67.3917 240.068C68.3619 239.876 69.3674 239.975 70.281 240.354C71.1946 240.733 71.9753 241.375 72.5245 242.197C73.0738 243.02 73.367 243.987 73.367 244.976C73.367 245.634 73.2371 246.286 72.9849 246.893C72.7327 247.501 72.3631 248.053 71.8972 248.518C71.4313 248.983 70.8783 249.351 70.2699 249.602C69.6614 249.853 69.0095 249.981 68.3514 249.979ZM68.3514 243.148C67.9898 243.148 67.6364 243.255 67.3357 243.456C67.0351 243.657 66.8007 243.942 66.6623 244.276C66.524 244.61 66.4878 244.978 66.5583 245.333C66.6289 245.687 66.803 246.013 67.0586 246.269C67.3143 246.524 67.6401 246.698 67.9947 246.769C68.3494 246.84 68.7169 246.803 69.051 246.665C69.3851 246.527 69.6706 246.292 69.8715 245.992C70.0724 245.691 70.1796 245.338 70.1796 244.976C70.164 244.502 69.9645 244.052 69.6233 243.722C69.2821 243.392 68.826 243.208 68.3514 243.208V243.148Z" fill="white"/>
<path d="M79.1055 194.352L84.6022 200.678L90.0989 194.352L87.3806 194.352L87.3806 187.616L81.8238 187.616L81.8238 194.352L79.1055 194.352Z" fill="white"/>
<path d="M104.254 207.763C103.875 207.762 103.509 207.625 103.221 207.377C102.934 207.13 102.745 206.787 102.688 206.412C102.632 206.037 102.711 205.654 102.912 205.333C103.114 205.011 103.423 204.773 103.785 204.66L112.205 202.05C112.408 201.974 112.624 201.94 112.84 201.951C113.057 201.962 113.269 202.017 113.463 202.113C113.657 202.208 113.83 202.343 113.97 202.508C114.111 202.673 114.216 202.865 114.279 203.073C114.343 203.28 114.363 203.498 114.339 203.713C114.315 203.929 114.247 204.137 114.139 204.325C114.031 204.513 113.886 204.677 113.713 204.807C113.54 204.937 113.341 205.03 113.131 205.081L104.711 207.691C104.563 207.736 104.409 207.76 104.254 207.763Z" fill="white"/>
</svg>
