<svg width="86" height="86" viewBox="0 0 86 86" fill="none" xmlns="http://www.w3.org/2000/svg">
<path d="M43 73.5403C61.4181 73.5403 76.349 72.6686 76.349 71.5933C76.349 70.518 61.4181 69.6462 43 69.6462C24.5818 69.6462 9.65088 70.518 9.65088 71.5933C9.65088 72.6686 24.5818 73.5403 43 73.5403Z" fill="#F5F5F5"/>
<path d="M35.6623 27.3772C33.4779 26.6118 34.3517 20.4594 29.0971 23.7652C27.9068 24.5152 26.462 29.4412 27.4596 30.5764C28.8546 32.1743 38.2406 28.2802 35.6623 27.3772Z" fill="#263238"/>
<path d="M29.5119 33.2184C29.4689 33.301 29.4414 33.344 29.407 33.4025L29.3072 33.5642C29.2401 33.6674 29.1679 33.7671 29.0957 33.8669C28.948 34.0636 28.7901 34.2525 28.6227 34.4328C28.2792 34.7986 27.8888 35.1173 27.4617 35.3805C27.0187 35.6546 26.5307 35.8479 26.0203 35.9515C25.7632 36.0035 25.5017 36.03 25.2394 36.0306C25.1087 36.0306 24.9797 36.0306 24.849 36.0169L24.6581 35.9945L24.5617 35.9825L24.4276 35.9584C24.1049 35.8785 23.8086 35.7161 23.5676 35.4871C23.3715 35.3027 23.1983 35.0954 23.0516 34.8696C22.7935 34.4669 22.5801 34.0372 22.4152 33.5882C22.0982 32.7388 21.8739 31.8577 21.7461 30.9601L22.4857 30.7881C22.7574 31.5843 23.0815 32.3617 23.4558 33.1152C23.6315 33.4675 23.8406 33.8021 24.0801 34.1146C24.1802 34.2455 24.2957 34.3639 24.4241 34.4672C24.5026 34.5348 24.5975 34.5805 24.6993 34.5996L24.9264 34.6116C25.0141 34.6116 25.0984 34.6116 25.1878 34.6013C25.3619 34.5888 25.5345 34.5612 25.7038 34.5188C26.0434 34.4278 26.3662 34.2833 26.6601 34.0905C26.9682 33.8873 27.2486 33.6451 27.4943 33.3698C27.6241 33.2325 27.7459 33.0877 27.859 32.9364C27.9157 32.8607 27.9708 32.7833 28.0224 32.7059L28.0981 32.5906L28.1583 32.4926L29.5119 33.2184Z" fill="#FF8B7B"/>
<path d="M29.9279 31.4312C28.3799 31.4312 27.1604 32.8622 27.1604 32.8622L29.0524 35.4078C29.0524 35.4078 30.578 33.9733 30.7414 33.1615C30.9031 32.3153 30.8567 31.426 29.9279 31.4312Z" fill="#1C2D5E"/>
<path d="M22.4115 31.1612L23.0858 30.0432L21.5223 30.0828C21.5223 30.0828 21.3985 30.8207 21.8113 31.2868L22.4115 31.1612Z" fill="#FF8B7B"/>
<path d="M23.0238 28.7344L21.8679 28.9803L21.5222 30.0829L23.0857 30.0433L23.0238 28.7344Z" fill="#FF8B7B"/>
<path d="M37.6849 70.004L36.2075 70.145L35.4541 66.7016L36.9316 66.5605L37.6849 70.004Z" fill="#FF8B7B"/>
<path d="M51.0977 65.5458L49.978 66.5417L47.3137 64.2696L48.4317 63.2737L51.0977 65.5458Z" fill="#FF8B7B"/>
<path d="M49.5735 66.3506L50.2237 64.8026C50.2345 64.7756 50.2548 64.7536 50.2808 64.7406C50.3068 64.7276 50.3367 64.7246 50.3647 64.7321L51.6668 65.0675C51.6991 65.0774 51.7291 65.0939 51.7547 65.1161C51.7802 65.1382 51.8009 65.1655 51.8153 65.1961C51.8297 65.2267 51.8376 65.26 51.8384 65.2939C51.8391 65.3277 51.8328 65.3613 51.8198 65.3926C51.5842 65.9292 51.4432 66.1769 51.1576 66.8597C50.9856 67.2794 50.6554 68.2357 50.4129 68.8154C50.1704 69.395 49.5838 69.1852 49.632 68.922C49.8522 67.7421 49.7163 67.1143 49.5632 66.6207C49.5347 66.5323 49.5383 66.4366 49.5735 66.3506V66.3506Z" fill="#1C2D5E"/>
<path d="M36.0219 69.6978H37.7986C37.8307 69.6981 37.8618 69.7088 37.8873 69.7284C37.9127 69.7479 37.9311 69.7752 37.9397 69.8061L38.3249 71.2114C38.3347 71.2446 38.3365 71.2797 38.3301 71.3138C38.3237 71.3479 38.3094 71.38 38.2883 71.4075C38.2672 71.435 38.2398 71.4571 38.2085 71.472C38.1773 71.487 38.1429 71.4943 38.1082 71.4935C37.4873 71.4831 37.1846 71.447 36.4037 71.447C35.9221 71.447 34.6837 71.4969 34.0163 71.4969C33.349 71.4969 33.2303 70.8399 33.5003 70.7797C34.7043 70.5148 35.3923 70.1467 35.7707 69.7958C35.8388 69.7321 35.9287 69.697 36.0219 69.6978V69.6978Z" fill="#1C2D5E"/>
<path opacity="0.2" d="M35.4541 66.7033L35.8428 68.4783H37.3513L36.9333 66.5623L35.4541 66.7033Z" fill="black"/>
<path opacity="0.2" d="M48.4334 63.2737L47.3137 64.2696L48.688 65.4409L49.8077 64.445L48.4334 63.2737Z" fill="black"/>
<path d="M28.4833 31.8458C28.4833 31.8458 27.8623 32.2793 31.5965 40.3633L37.4565 38.731C36.6945 36.3746 36.2817 34.904 36.0581 29.6924C35.1904 29.7508 34.3281 29.8727 33.4781 30.057C32.5745 30.2398 31.6853 30.4876 30.8173 30.7983C29.7045 31.2197 28.4833 31.8458 28.4833 31.8458Z" fill="#1C2D5E"/>
<path d="M32.3806 27.1348C32.4511 28.0378 32.7246 29.6528 33.4797 30.0588C33.5281 30.7221 33.4453 31.3884 33.236 32.0196C33.0268 32.6509 32.6952 33.2348 32.2602 33.7378C30.2272 32.6818 30.8189 30.8001 30.8189 30.8001C31.7098 30.3064 31.4879 29.6047 31.1353 28.9855L32.3806 27.1348Z" fill="#FF8B7B"/>
<path opacity="0.2" d="M32.6936 28.8513L31.6719 28.5073C31.6867 28.7087 31.738 28.9057 31.8232 29.0887C31.9952 29.4241 32.5646 29.5496 32.9705 29.5084C32.8542 29.3002 32.7614 29.0799 32.6936 28.8513V28.8513Z" fill="black"/>
<path d="M29.412 26.1903C29.8076 27.6231 29.9435 28.2371 30.8327 28.8288C32.1726 29.7163 33.8461 28.9182 33.8874 27.396C33.9253 26.02 33.2734 23.913 31.7305 23.6344C31.3905 23.5713 31.0401 23.5962 30.7124 23.7067C30.3847 23.8172 30.0908 24.0096 29.8584 24.2657C29.6261 24.5219 29.4631 24.8331 29.385 25.17C29.3068 25.5068 29.3161 25.8581 29.412 26.1903V26.1903Z" fill="#FF8B7B"/>
<path d="M31.5535 23.4006C31.4365 24.3742 30.7107 27.7213 29.3416 27.7007C28.2115 26.7151 28.7688 24.8592 29.1197 24.1041C29.4706 23.349 31.5535 23.4006 31.5535 23.4006Z" fill="#263238"/>
<path d="M30.9771 24.0903C31.6651 24.4567 33.0187 24.6167 32.8037 24.0577C32.5887 23.4987 32.6506 23.0257 31.7184 23.0463C30.7861 23.0669 30.9771 24.0903 30.9771 24.0903Z" fill="#263238"/>
<path d="M29.4671 27.5476C29.5111 27.683 29.5815 27.8083 29.6742 27.9163C29.7669 28.0244 29.8801 28.113 30.0072 28.1771C30.3512 28.3491 30.5903 28.0601 30.5559 27.7006C30.5249 27.3773 30.3099 26.8991 29.9384 26.8785C29.8572 26.8756 29.7765 26.893 29.7037 26.9291C29.6309 26.9652 29.5683 27.0189 29.5215 27.0854C29.4747 27.1518 29.4452 27.2289 29.4357 27.3096C29.4262 27.3903 29.437 27.4721 29.4671 27.5476V27.5476Z" fill="#FF8B7B"/>
<path d="M31.5965 40.3631C31.5965 40.3631 31.2525 52.2002 32.2071 56.6687C33.1926 61.3127 35.119 67.9622 35.119 67.9622L37.9261 67.8264C37.9261 67.8264 36.5673 59.3984 36.237 55.8036C35.783 50.85 35.893 39.1677 35.893 39.1677L31.5965 40.3631Z" fill="#FF5C8A"/>
<path opacity="0.4" d="M31.5965 40.3631C31.5965 40.3631 31.2525 52.2002 32.2071 56.6687C33.1926 61.3127 35.119 67.9622 35.119 67.9622L37.9261 67.8264C37.9261 67.8264 36.5673 59.3984 36.237 55.8036C35.783 50.85 35.893 39.1677 35.893 39.1677L31.5965 40.3631Z" fill="#FAFAFA"/>
<path opacity="0.2" d="M35.8793 43.621C35.4424 42.5253 35.0589 41.9216 35.0193 43.0138C34.9195 45.3238 35.322 47.964 35.9515 49.2729C35.9034 47.3155 35.8879 45.3169 35.8793 43.621Z" fill="black"/>
<path d="M38.122 67.9624L34.9211 68.1154L34.5444 66.9458L38.012 66.6758L38.122 67.9624Z" fill="#1C2D5E"/>
<path d="M33.1443 39.9316C33.1443 39.9316 36.7374 49.6014 39.1643 54.9403C41.1199 59.2541 48.0533 65.2792 48.0533 65.2792L49.6288 63.9479C49.6288 63.9479 44.6167 57.0783 43.2648 54.1439C38.9338 44.782 40.0638 40.8157 37.4598 38.7224L33.1443 39.9316Z" fill="#FF5C8A"/>
<path opacity="0.4" d="M33.1443 39.9316C33.1443 39.9316 36.7374 49.6014 39.1643 54.9403C41.1199 59.2541 48.0533 65.2792 48.0533 65.2792L49.6288 63.9479C49.6288 63.9479 44.6167 57.0783 43.2648 54.1439C38.9338 44.782 40.0638 40.8157 37.4598 38.7224L33.1443 39.9316Z" fill="#FAFAFA"/>
<path d="M49.756 63.9323L47.9948 65.4872L47.0986 64.8387L49.1747 63.0688L49.756 63.9323Z" fill="#1C2D5E"/>
<path d="M37.4478 38.356L37.8589 38.8067C37.8899 38.8428 37.8589 38.8978 37.7849 38.915L31.6411 40.635C31.5878 40.6505 31.5362 40.635 31.5241 40.6041L31.3246 40.0881C31.3108 40.052 31.3487 40.009 31.4072 39.9918L37.3395 38.3406C37.3573 38.3336 37.3767 38.3314 37.3957 38.3341C37.4146 38.3368 37.4326 38.3444 37.4478 38.356V38.356Z" fill="#FF5C8A"/>
<path d="M36.8357 39.2488L36.9956 39.2041C37.0266 39.1955 37.0455 39.1731 37.0386 39.1525L36.7737 38.492C36.7737 38.4731 36.7342 38.4645 36.7032 38.4731L36.5433 38.5178C36.5123 38.5264 36.4917 38.5488 36.5003 38.5694L36.7651 39.2299C36.772 39.2488 36.8081 39.2574 36.8357 39.2488Z" fill="#1C2D5E"/>
<path d="M32.1022 40.5662L32.2622 40.5214C32.2931 40.5128 32.3138 40.4905 32.3052 40.4698L32.0403 39.8094C32.0403 39.7905 32.0007 39.7819 31.9697 39.7905L31.8098 39.8352C31.7788 39.8438 31.7599 39.8661 31.7668 39.8868L32.0317 40.5472C32.0385 40.5662 32.0712 40.5748 32.1022 40.5662Z" fill="#1C2D5E"/>
<path d="M34.4687 39.904L34.6287 39.8593C34.6596 39.8593 34.6785 39.8284 34.6717 39.8077L34.3999 39.1507C34.3999 39.1318 34.3603 39.1232 34.3294 39.1318L34.1694 39.1765C34.1385 39.1765 34.1195 39.2074 34.1264 39.2281L34.3913 39.8886C34.3999 39.904 34.4377 39.9161 34.4687 39.904Z" fill="#1C2D5E"/>
<path d="M31.7048 26.1321C31.7288 26.2507 31.8131 26.3333 31.8888 26.3161C31.9645 26.2989 32.0092 26.1905 31.9851 26.0736C31.961 25.9566 31.8768 25.8723 31.7994 25.8878C31.722 25.9033 31.679 26.0134 31.7048 26.1321Z" fill="#1C2D5E"/>
<path d="M33.041 25.8498C33.065 25.9684 33.1476 26.051 33.225 26.0355C33.3024 26.02 33.3454 25.91 33.3196 25.7913C33.2938 25.6726 33.213 25.59 33.1356 25.6072C33.0582 25.6244 33.0238 25.7328 33.041 25.8498Z" fill="#1C2D5E"/>
<path d="M33.1028 25.6281L33.3694 25.4871C33.3694 25.4871 33.2696 25.7313 33.1028 25.6281Z" fill="#1C2D5E"/>
<path d="M32.7297 26.1284C32.8921 26.3759 33.0877 26.5999 33.3111 26.7941C33.2603 26.8509 33.1976 26.8958 33.1274 26.9256C33.0572 26.9553 32.9813 26.9691 32.9052 26.9661L32.7297 26.1284Z" fill="#FF5652"/>
<path d="M32.6009 27.5096C32.6066 27.5057 32.6109 27.5001 32.6134 27.4937C32.6158 27.4872 32.6163 27.4802 32.6147 27.4735C32.6141 27.4688 32.6126 27.4643 32.6101 27.4603C32.6076 27.4563 32.6043 27.4529 32.6004 27.4503C32.5965 27.4476 32.592 27.4459 32.5874 27.4452C32.5827 27.4444 32.578 27.4447 32.5734 27.446C32.4269 27.4799 32.2744 27.4789 32.1283 27.443C31.9822 27.4072 31.8465 27.3375 31.7323 27.2396C31.7294 27.235 31.7255 27.2312 31.7209 27.2283C31.7164 27.2255 31.7112 27.2237 31.7058 27.2231C31.7004 27.2225 31.695 27.2232 31.6899 27.225C31.6848 27.2267 31.6802 27.2297 31.6764 27.2335C31.6725 27.2373 31.6696 27.2419 31.6678 27.247C31.666 27.2521 31.6654 27.2576 31.666 27.2629C31.6666 27.2683 31.6684 27.2735 31.6712 27.2781C31.6741 27.2827 31.6779 27.2866 31.6825 27.2895C31.8039 27.3972 31.9496 27.474 32.1071 27.5132C32.2647 27.5525 32.4294 27.553 32.5872 27.5148L32.6009 27.5096Z" fill="#1C2D5E"/>
<path d="M31.2369 25.7743C31.2475 25.7678 31.2559 25.7582 31.261 25.7468C31.2967 25.6653 31.3512 25.5934 31.4199 25.5369C31.4887 25.4805 31.5697 25.441 31.6566 25.4217C31.6659 25.4205 31.6748 25.4174 31.6829 25.4127C31.6909 25.408 31.698 25.4018 31.7037 25.3944C31.7094 25.3869 31.7135 25.3785 31.7159 25.3694C31.7183 25.3604 31.7189 25.351 31.7177 25.3417C31.7164 25.3325 31.7134 25.3235 31.7087 25.3155C31.704 25.3074 31.6977 25.3003 31.6903 25.2946C31.6829 25.289 31.6744 25.2848 31.6654 25.2824C31.6564 25.28 31.6469 25.2794 31.6377 25.2807C31.527 25.3028 31.4233 25.3512 31.3353 25.4219C31.2473 25.4925 31.1775 25.5833 31.132 25.6866C31.1252 25.7007 31.1233 25.7167 31.1266 25.7321C31.1299 25.7474 31.1382 25.7612 31.1503 25.7713C31.1623 25.7814 31.1774 25.7871 31.1931 25.7877C31.2088 25.7882 31.2242 25.7835 31.2369 25.7743V25.7743Z" fill="#1C2D5E"/>
<path d="M33.5397 25.0966H33.5501C33.5634 25.0831 33.5709 25.0649 33.5709 25.0459C33.5709 25.0269 33.5634 25.0087 33.5501 24.9952C33.4708 24.9149 33.3737 24.8546 33.2667 24.819C33.1597 24.7834 33.0458 24.7737 32.9343 24.7905C32.9158 24.7946 32.8997 24.8059 32.8896 24.8218C32.8794 24.8378 32.876 24.8571 32.8801 24.8756C32.8842 24.8941 32.8955 24.9102 32.9115 24.9203C32.9274 24.9305 32.9468 24.9339 32.9653 24.9298C33.054 24.9175 33.1443 24.9267 33.2287 24.9567C33.3132 24.9866 33.3891 25.0364 33.4503 25.1018C33.4635 25.1114 33.4796 25.1162 33.4959 25.1152C33.5123 25.1143 33.5277 25.1077 33.5397 25.0966Z" fill="#1C2D5E"/>
<path d="M37.1106 31.0442C37.243 31.1973 37.4082 31.3761 37.563 31.543C37.7178 31.7098 37.8846 31.8749 38.0497 32.0366C38.3817 32.3583 38.7222 32.673 39.0817 32.9654C39.772 33.5497 40.5344 34.0427 41.3504 34.4326C42.1072 34.7766 43.0274 34.9228 43.951 34.9881C44.4154 35.0225 44.8867 35.0346 45.3597 35.026C45.8327 35.0174 46.3143 34.9985 46.7753 34.9623L46.9146 35.7088C45.9394 35.9592 44.94 36.1039 43.9338 36.1405C43.4171 36.1604 42.8997 36.1415 42.3858 36.0838C41.849 36.0256 41.3215 35.9008 40.8155 35.7123C40.3249 35.5237 39.8513 35.2935 39.3999 35.0243C38.9568 34.7617 38.5321 34.4692 38.1288 34.1488C37.7287 33.8341 37.3452 33.4989 36.9799 33.1443C36.7958 32.9723 36.6187 32.7848 36.4432 32.5991C36.2678 32.4133 36.0992 32.231 35.9272 32.0108L37.1106 31.0442Z" fill="#FF8B7B"/>
<path d="M46.5826 35.776L48.0635 35.5438L46.8423 34.3794C46.8423 34.3794 46.261 34.8507 46.261 35.4733L46.5826 35.776Z" fill="#FF8B7B"/>
<path d="M48.8618 34.3707L47.8315 33.7893L46.8408 34.3879L48.0637 35.5506L48.8618 34.3707Z" fill="#FF8B7B"/>
<path d="M36.0578 29.6924C36.6959 29.7079 37.9635 31.5328 37.9635 31.5328L36.1386 33.7946C36.1386 33.7946 35.0757 32.305 35.1066 31.4777C35.1479 30.616 35.3319 29.6752 36.0578 29.6924Z" fill="#1C2D5E"/>
<path d="M49.2918 67.1642C49.2739 67.1576 49.2567 67.1496 49.2402 67.1401C49.2207 67.1303 49.2043 67.1153 49.1927 67.0968C49.1812 67.0783 49.175 67.057 49.1748 67.0352C49.1748 66.8443 49.6151 66.5381 49.6667 66.5037C49.6723 66.5 49.6789 66.498 49.6856 66.498C49.6924 66.498 49.6989 66.5 49.7046 66.5037C49.7105 66.5075 49.7153 66.5129 49.7183 66.5193C49.7214 66.5257 49.7226 66.5328 49.7218 66.5398C49.6891 66.7359 49.6082 67.0782 49.4362 67.1573C49.4139 67.1682 49.3895 67.1744 49.3647 67.1755C49.3399 67.1767 49.3151 67.1729 49.2918 67.1642V67.1642ZM49.6358 66.6121C49.4638 66.7394 49.2436 66.9337 49.2453 67.0335C49.2453 67.0472 49.2453 67.0627 49.2763 67.0782C49.2945 67.092 49.316 67.1006 49.3387 67.1034C49.3614 67.1061 49.3843 67.1027 49.4053 67.0937C49.4999 67.0507 49.5824 66.8735 49.6358 66.6121V66.6121Z" fill="#FF5C8A"/>
<path d="M49.0715 66.7119C49.0577 66.707 49.0445 66.7006 49.032 66.693C49.0087 66.6767 48.9916 66.6531 48.9835 66.626C48.9754 66.5988 48.9767 66.5697 48.9873 66.5433C48.9944 66.5173 49.0073 66.4932 49.0248 66.4727C49.0423 66.4522 49.0642 66.4358 49.0887 66.4247C49.2848 66.3301 49.6839 66.4935 49.6993 66.5003C49.7052 66.5027 49.7103 66.5066 49.7142 66.5116C49.7181 66.5166 49.7206 66.5225 49.7215 66.5288C49.7224 66.5351 49.7216 66.5415 49.7192 66.5473C49.7168 66.5532 49.7129 66.5584 49.7079 66.5623C49.5201 66.6856 49.2947 66.7386 49.0715 66.7119V66.7119ZM49.5961 66.5399C49.4465 66.4736 49.2798 66.4562 49.1197 66.49C49.1037 66.4967 49.0894 66.507 49.0781 66.5201C49.0667 66.5333 49.0586 66.5489 49.0543 66.5657C49.0423 66.6087 49.0543 66.6259 49.0715 66.6345C49.1593 66.693 49.4482 66.6345 49.6082 66.5433L49.5961 66.5399Z" fill="#FF5C8A"/>
<path d="M35.2341 69.992C35.1137 70.0002 34.9936 69.9714 34.8901 69.9095C34.8631 69.8894 34.8411 69.8635 34.8256 69.8338C34.8101 69.804 34.8015 69.771 34.8006 69.7375C34.7987 69.7189 34.8018 69.7001 34.8096 69.6831C34.8175 69.6662 34.8299 69.6516 34.8453 69.6412C35.0053 69.5328 35.6108 69.8131 35.7312 69.863C35.7376 69.8665 35.7429 69.8718 35.7463 69.8783C35.7497 69.8849 35.751 69.8923 35.7501 69.8995C35.7491 69.9068 35.746 69.9137 35.7411 69.9191C35.7362 69.9246 35.7297 69.9284 35.7226 69.9301C35.5624 69.968 35.3986 69.9887 35.2341 69.992ZM34.9503 69.6859C34.9265 69.684 34.9027 69.6888 34.8815 69.6996C34.8729 69.6996 34.866 69.7134 34.8677 69.734C34.8678 69.7573 34.8735 69.7802 34.8843 69.8009C34.8951 69.8215 34.9106 69.8393 34.9296 69.8527C35.0345 69.9318 35.2736 69.9422 35.597 69.882C35.3928 69.7838 35.1746 69.7176 34.9503 69.6859V69.6859Z" fill="#FF5C8A"/>
<path d="M35.7124 69.9319H35.6986C35.4991 69.8493 35.0932 69.526 35.1172 69.3574C35.1172 69.3213 35.1465 69.2748 35.2376 69.2645C35.5816 69.2215 35.7399 69.8631 35.7536 69.8906C35.7552 69.8971 35.7549 69.904 35.7528 69.9104C35.7506 69.9167 35.7468 69.9224 35.7416 69.9267C35.7374 69.9296 35.7326 69.9315 35.7275 69.9324C35.7225 69.9333 35.7173 69.9331 35.7124 69.9319V69.9319ZM35.2703 69.3299H35.2462C35.2084 69.3299 35.1895 69.3454 35.186 69.3626C35.174 69.4589 35.4526 69.7152 35.6573 69.8287C35.604 69.6756 35.4836 69.3299 35.2703 69.3299Z" fill="#FF5C8A"/>
<path d="M31.7664 25.9015L32.033 25.7605C32.033 25.7605 31.9349 26.0133 31.7664 25.9015Z" fill="#1C2D5E"/>
<path d="M40.5797 42.0522C40.5797 42.0522 37.5233 44.548 38.6602 50.0416C39.331 53.2804 41.352 54.9282 43.1219 54.5687C44.8918 54.2092 46.1112 51.9044 45.4645 48.6605C44.3758 43.1599 40.5797 42.0522 40.5797 42.0522Z" fill="#FF5C8A"/>
<path opacity="0.2" d="M40.5797 42.0522C40.5797 42.0522 37.5233 44.548 38.6602 50.0416C39.331 53.2804 41.352 54.9282 43.1219 54.5687C44.8918 54.2092 46.1112 51.9044 45.4645 48.6605C44.3758 43.1599 40.5797 42.0522 40.5797 42.0522Z" fill="white"/>
<path d="M59.856 31.3952C59.856 31.3952 54.2436 30.1482 48.9804 36.3969C45.8844 40.0829 45.8139 43.8807 47.8194 45.5817C49.8249 47.2828 53.5625 46.6034 56.6929 42.9415C61.9939 36.7306 59.856 31.3952 59.856 31.3952Z" fill="#FF5C8A"/>
<path d="M52.4772 6.59277C52.4772 6.59277 51.2233 6.93677 50.8346 8.74449C50.6041 9.81089 50.9945 10.5763 51.5759 10.7036C52.1572 10.8309 52.8315 10.2994 53.0688 9.23641C53.4713 7.43213 52.4772 6.59277 52.4772 6.59277Z" fill="#FF5C8A"/>
<path d="M42.5355 62.1934C41.8151 59.6365 41.4766 56.9872 41.531 54.3313C41.5873 51.7551 41.9652 49.196 42.6559 46.7134C42.9901 45.4997 43.3862 44.3039 43.8427 43.1307C44.068 42.5476 44.3088 41.9731 44.56 41.4107C44.6804 41.1234 44.818 40.8465 44.9452 40.5644L45.1379 40.1551L45.3254 39.7595C46.3281 37.6525 47.2827 35.5317 48.1444 33.38C49.0121 31.2351 49.766 29.046 50.4028 26.8216C51.0411 24.604 51.4871 22.3356 51.7358 20.0414C51.9909 17.7444 51.919 15.4228 51.5225 13.1459C51.108 10.8372 50.2272 8.63728 48.9339 6.68042C50.4667 8.52163 51.608 10.6561 52.2879 12.9533C52.9692 15.2762 53.3166 17.6842 53.3199 20.105C53.3286 22.5258 53.1277 24.9428 52.7196 27.329C52.3194 29.7063 51.7918 32.0604 51.139 34.381C50.4991 36.6996 49.763 38.9855 48.9821 41.2438L48.8359 41.6669L48.7619 41.8785L48.6948 42.078C48.6088 42.3463 48.5125 42.6095 48.4334 42.8778C48.2614 43.4127 48.11 43.9477 47.969 44.486C47.685 45.5527 47.4553 46.6331 47.281 47.7231C46.9373 49.8489 46.8604 52.0093 47.0522 54.1541C47.2404 56.2221 47.7336 58.2507 48.516 60.1741L42.5355 62.1934Z" fill="#FF5C8A"/>
<path opacity="0.2" d="M42.5355 62.1934C41.8151 59.6365 41.4766 56.9872 41.531 54.3313C41.5873 51.7551 41.9652 49.196 42.6559 46.7134C42.9901 45.4997 43.3862 44.3039 43.8427 43.1307C44.068 42.5476 44.3088 41.9731 44.56 41.4107C44.6804 41.1234 44.818 40.8465 44.9452 40.5644L45.1379 40.1551L45.3254 39.7595C46.3281 37.6525 47.2827 35.5317 48.1444 33.38C49.0121 31.2351 49.766 29.046 50.4028 26.8216C51.0411 24.604 51.4871 22.3356 51.7358 20.0414C51.9909 17.7444 51.919 15.4228 51.5225 13.1459C51.108 10.8372 50.2272 8.63728 48.9339 6.68042C50.4667 8.52163 51.608 10.6561 52.2879 12.9533C52.9692 15.2762 53.3166 17.6842 53.3199 20.105C53.3286 22.5258 53.1277 24.9428 52.7196 27.329C52.3194 29.7063 51.7918 32.0604 51.139 34.381C50.4991 36.6996 49.763 38.9855 48.9821 41.2438L48.8359 41.6669L48.7619 41.8785L48.6948 42.078C48.6088 42.3463 48.5125 42.6095 48.4334 42.8778C48.2614 43.4127 48.11 43.9477 47.969 44.486C47.685 45.5527 47.4553 46.6331 47.281 47.7231C46.9373 49.8489 46.8604 52.0093 47.0522 54.1541C47.2404 56.2221 47.7336 58.2507 48.516 60.1741L42.5355 62.1934Z" fill="black"/>
<path d="M54.3913 56.0444L54.2193 58.0121L53.0738 70.7969C53.0545 71.0143 52.9544 71.2167 52.7933 71.3641C52.6322 71.5115 52.4218 71.5932 52.2035 71.5932H37.6764C37.4581 71.5928 37.2479 71.511 37.0869 71.3636C36.9259 71.2163 36.8258 71.0142 36.806 70.7969L35.6622 58.0121L35.4902 56.0444H54.3913Z" fill="#FF5C8A"/>
<path d="M54.1831 63.1541L53.7727 67.7437L53.944 67.759L54.3544 63.1694L54.1831 63.1541Z" fill="#FF5C8A"/>
<path d="M54.6942 60.5643L54.5962 61.6531L54.7682 61.6686L54.8662 60.5798L54.6942 60.5643Z" fill="#FF5C8A"/>
<path d="M42.0847 15.5403C42.0847 15.5403 38.8408 19.8592 42.1483 26.7839C44.0988 30.8672 47.3238 32.3928 49.5564 31.3368C51.7889 30.2807 52.6524 26.8183 50.7363 22.7213C47.4803 15.7725 42.0847 15.5403 42.0847 15.5403Z" fill="#FF5C8A"/>
<path opacity="0.2" d="M42.0847 15.5403C42.0847 15.5403 38.8408 19.8592 42.1483 26.7839C44.0988 30.8672 47.3238 32.3928 49.5564 31.3368C51.7889 30.2807 52.6524 26.8183 50.7363 22.7213C47.4803 15.7725 42.0847 15.5403 42.0847 15.5403Z" fill="black"/>
<path opacity="0.2" d="M54.3916 56.0444L54.2144 58.0121H35.6625L35.4854 56.0444H54.3916Z" fill="black"/>
<path d="M55.5146 53.6177H34.3603C34.1333 53.6177 33.9492 53.8017 33.9492 54.0288V56.6173C33.9492 56.8444 34.1333 57.0284 34.3603 57.0284H55.5146C55.7416 57.0284 55.9257 56.8444 55.9257 56.6173V54.0288C55.9257 53.8017 55.7416 53.6177 55.5146 53.6177Z" fill="#FF5C8A"/>
<path d="M63.714 25.3286C66.7532 23.0417 67.3631 18.724 65.0762 15.6848C62.7893 12.6456 58.4717 12.0357 55.4324 14.3226C52.3932 16.6095 51.7833 20.9272 54.0702 23.9664C56.3571 27.0056 60.6748 27.6155 63.714 25.3286Z" fill="#FF5C8A"/>
<path opacity="0.1" d="M65.0966 21.5326C65.33 20.6163 65.3293 19.6561 65.0946 18.7401C64.8599 17.8242 64.3987 16.9819 63.7535 16.2907C63.1083 15.5995 62.2997 15.0816 61.402 14.7845C60.5043 14.4874 59.5464 14.4207 58.6162 14.5905C57.686 14.7604 56.8135 15.1613 56.0787 15.7564C55.3439 16.3515 54.7705 17.1218 54.4112 17.9964C54.0518 18.871 53.9181 19.8219 54.0222 20.7617C54.1263 21.7015 54.465 22.6 55.0071 23.3747C54.3962 22.5901 53.9979 21.6611 53.8506 20.6776C53.7034 19.6941 53.8122 18.6893 54.1665 17.7601C54.5209 16.8309 55.1088 16.0088 55.8736 15.3731C56.6383 14.7374 57.554 14.3095 58.5323 14.1309C59.5106 13.9523 60.5184 14.0289 61.4585 14.3534C62.3985 14.6779 63.239 15.2392 63.8989 15.9832C64.5587 16.7272 65.0156 17.6288 65.2254 18.6009C65.4352 19.5729 65.3908 20.5827 65.0966 21.5326V21.5326Z" fill="black"/>
<path d="M61.6947 20.8223L61.0067 22.2791C60.9805 22.3345 60.9432 22.3839 60.897 22.4241C60.8508 22.4644 60.7968 22.4947 60.7384 22.513C60.6802 22.535 60.6181 22.5449 60.556 22.5419C60.4938 22.539 60.433 22.5233 60.3772 22.4958L59.0958 21.8904L58.6107 22.9224C58.5855 22.9784 58.549 23.0286 58.5034 23.0697C58.4578 23.1109 58.4041 23.1421 58.3458 23.1615C58.2886 23.1822 58.2278 23.1914 58.1669 23.1884C58.1061 23.1855 58.0465 23.1705 57.9915 23.1443C57.9345 23.1187 57.8831 23.0819 57.8406 23.0361C57.798 22.9903 57.7651 22.9364 57.7438 22.8777C57.7216 22.8202 57.7115 22.7587 57.7142 22.6972C57.7169 22.6356 57.7322 22.5752 57.7593 22.5199L58.2495 21.4879L56.9784 20.8876C56.8674 20.8344 56.7818 20.7395 56.7403 20.6236C56.6988 20.5077 56.7046 20.3801 56.7566 20.2684C56.8091 20.1572 56.9036 20.0714 57.0194 20.0298C57.1352 19.9882 57.2627 19.9942 57.374 20.0465L60.3479 21.4501L60.6334 20.8446L57.6733 19.4359C57.6174 19.4106 57.5671 19.3744 57.5255 19.3293C57.4838 19.2842 57.4516 19.2313 57.4308 19.1735C57.4099 19.1158 57.4009 19.0545 57.4041 18.9932C57.4074 18.9319 57.4229 18.8719 57.4497 18.8167L58.1377 17.365C58.1634 17.3094 58.1998 17.2595 58.245 17.2182C58.2902 17.1768 58.3431 17.1449 58.4008 17.1242C58.4584 17.1036 58.5196 17.0946 58.5807 17.0979C58.6419 17.1011 58.7018 17.1165 58.7569 17.1432L60.0177 17.7383L60.5027 16.7063C60.5287 16.6493 60.5661 16.5983 60.6125 16.5563C60.659 16.5144 60.7136 16.4824 60.773 16.4624C60.8323 16.4424 60.8951 16.4348 60.9575 16.4401C61.0199 16.4454 61.0805 16.4634 61.1357 16.493C61.1906 16.5178 61.2399 16.5537 61.2805 16.5984C61.321 16.6431 61.3519 16.6956 61.3713 16.7527C61.3928 16.8101 61.4024 16.8713 61.3994 16.9325C61.3965 16.9937 61.381 17.0537 61.3541 17.1088L60.8691 18.1408L62.1608 18.7497C62.2174 18.7755 62.2681 18.8126 62.3098 18.8587C62.3515 18.9049 62.3833 18.9591 62.4033 19.018C62.4264 19.0748 62.4374 19.1358 62.4356 19.1971C62.4338 19.2584 62.4193 19.3186 62.393 19.374C62.3376 19.4871 62.2403 19.574 62.1218 19.6164C62.0032 19.6588 61.8728 19.6533 61.7583 19.6011L58.7844 18.1975L58.5024 18.7978L61.4642 20.1962C61.521 20.222 61.5719 20.2591 61.6139 20.3052C61.6559 20.3513 61.6881 20.4055 61.7084 20.4645C61.7316 20.5217 61.7424 20.5832 61.74 20.6449C61.7377 20.7065 61.7222 20.767 61.6947 20.8223Z" fill="#FAFAFA"/>
</svg>
