<svg width="128" height="107" viewBox="0 0 128 107" fill="none" xmlns="http://www.w3.org/2000/svg">
<g opacity="0.8">
<path d="M57.9977 114.852C55.4373 121.074 40.3645 120.645 24.5734 114.134C8.78236 107.623 -1.95744 97.3004 0.602968 91.079C1.20542 89.6424 2.92007 84.2551 4.63473 83.5136C10.5202 81.0227 21.7234 86.6185 33.8534 91.6235C45.1493 96.2577 58.0672 99.2815 60.0715 105.41C61.2764 109.141 58.7276 113.08 57.9977 114.852Z" fill="#FF336D"/>
<path opacity="0.2" d="M60.0717 105.41C61.0333 110.288 58.9132 112.628 57.9979 114.853C57.0826 117.077 54.4064 118.537 50.6643 119.047C50.1964 119.126 49.7246 119.18 49.2508 119.209C46.3813 119.378 43.5019 119.226 40.6659 118.757C40.2604 118.757 39.855 118.63 39.4379 118.56C36.1088 117.962 32.8288 117.118 29.6249 116.034L28.4664 115.641C27.1804 115.189 25.8596 114.69 24.5389 114.146C23.2181 113.601 21.9669 112.987 20.7273 112.443L19.6614 111.933C16.7408 110.489 13.9262 108.84 11.2387 106.998L10.2887 106.326C7.94267 104.667 5.79321 102.747 3.88188 100.602C3.59224 100.278 3.32577 99.9653 3.07089 99.6409C0.580003 96.4896 -0.404778 93.4774 0.579993 91.0792C1.22878 89.5383 2.61906 84.2669 4.61177 83.5022C7.06268 82.8118 9.6567 82.8118 12.1076 83.5022L13.2662 83.7803C19.0589 85.2632 26.3578 88.5651 33.8073 91.6353C42.5891 95.2615 52.9814 99.0269 58.079 103.371C58.3823 103.627 58.6723 103.897 58.9479 104.182C59.3546 104.561 59.7304 104.972 60.0717 105.41Z" fill="#FF336D"/>
<g opacity="0.2">
<path opacity="0.2" d="M13.8456 82.784L13.3127 83.7572L3.90522 100.591C3.61558 100.267 3.34912 99.9538 3.09424 99.6294L12.1309 83.4792L12.8377 82.2279L13.8456 82.784Z" fill="#FF336D"/>
</g>
<g opacity="0.2">
<path opacity="0.2" d="M20.9591 89.6544L11.262 107.033L10.312 106.361L19.9512 89.1215L20.9591 89.6544Z" fill="#FF336D"/>
</g>
<g opacity="0.2">
<path opacity="0.2" d="M38.7895 99.6178L29.6254 116.035L28.4668 115.641L37.7352 99.0038L38.7895 99.6178Z" fill="#FF336D"/>
</g>
<g opacity="0.2">
<path opacity="0.2" d="M30.4939 94.9835L20.7504 112.443L19.6846 111.933L29.4859 94.3695L30.4939 94.9835Z" fill="#FF336D"/>
</g>
<g opacity="0.2">
<path opacity="0.2" d="M49.5985 102.792L40.6661 118.757C40.2606 118.757 39.8551 118.63 39.438 118.56L48.579 102.213L49.5985 102.792Z" fill="#FF336D"/>
</g>
<path d="M60.0023 109.431C57.4419 115.652 42.5545 115.409 26.7518 108.886C10.9492 102.364 0.220939 92.0525 2.79293 85.8311C5.36492 79.6097 20.2407 79.8646 36.0434 86.3756C51.8461 92.8867 62.5627 103.175 60.0023 109.431Z" fill="#FF336D"/>
<path opacity="0.2" d="M54.6269 107.172C52.8196 111.562 41.2109 110.948 28.7101 105.793C16.2093 100.637 7.54333 92.8866 9.35067 88.4957C11.158 84.1048 22.7667 84.7188 35.2791 89.8744C47.7915 95.0299 56.4459 102.781 54.6269 107.172Z" fill="#1C2D5E"/>
<path d="M137.845 58.6165C141.97 63.9343 134.115 76.8058 120.594 87.2675C107.074 97.7292 92.7892 101.9 88.6763 96.5359C87.7263 95.3079 83.8799 91.195 84.1116 89.2718C84.8878 82.9345 95.3032 76.0064 105.684 67.966C115.346 60.4818 124.371 50.7731 130.685 52.0823C134.52 52.928 136.675 57.1104 137.845 58.6165Z" fill="#FF336D"/>
<path opacity="0.2" d="M130.686 52.1285C135.401 53.7273 136.374 56.7628 137.845 58.6164C139.317 60.4701 139.259 63.5635 137.845 67.0739C137.683 67.5025 137.486 67.9312 137.278 68.3715C136.008 70.947 134.454 73.372 132.644 75.6008C132.4 75.9252 132.134 76.238 131.867 76.5624C129.688 79.161 127.318 81.593 124.777 83.8381L123.885 84.6144C122.854 85.5065 121.765 86.3985 120.641 87.2675C119.517 88.1364 118.393 88.9589 117.258 89.7352C116.945 89.9669 116.609 90.187 116.296 90.4071C113.589 92.223 110.755 93.8414 107.816 95.2499C107.457 95.4353 107.109 95.5859 106.773 95.7481C104.161 96.9563 101.421 97.8657 98.6053 98.4591C98.1882 98.5518 97.7827 98.6213 97.3772 98.6792C93.4034 99.2701 90.2984 98.6792 88.7112 96.5822C87.6917 95.2615 83.8105 91.4267 84.1465 89.3297C84.7525 86.8507 86.0409 84.5912 87.8655 82.807C88.1204 82.5174 88.3984 82.2278 88.6881 81.9265C92.8704 77.5935 99.3467 72.9477 105.719 68.0239C113.238 62.2311 121.672 55.0597 127.963 52.8121C128.343 52.6726 128.729 52.5527 129.122 52.4529C129.634 52.3068 130.157 52.1984 130.686 52.1285Z" fill="#FF336D"/>
<g opacity="0.2">
<path opacity="0.2" d="M88.0741 80.9766L88.6534 81.9266L98.5706 98.4591C98.1535 98.5518 97.748 98.6213 97.3425 98.6793L87.8308 82.7839L87.0894 81.6253L88.0741 80.9766Z" fill="#FF336D"/>
</g>
<g opacity="0.2">
<path opacity="0.2" d="M97.5623 78.2195L107.781 95.2502C107.422 95.4356 107.074 95.5862 106.738 95.7484L96.5659 78.8103L97.5623 78.2195Z" fill="#FF336D"/>
</g>
<g opacity="0.2">
<path opacity="0.2" d="M115.068 67.7229L124.742 83.85L123.85 84.6262L114.072 68.3138L115.068 67.7229Z" fill="#FF336D"/>
</g>
<g opacity="0.2">
<path opacity="0.2" d="M106.935 72.6002L117.223 89.7352C116.91 89.9669 116.574 90.1871 116.262 90.4072L105.927 73.1911L106.935 72.6002Z" fill="#FF336D"/>
</g>
<g opacity="0.2">
<path opacity="0.2" d="M123.201 59.9025L132.609 75.6009C132.366 75.9253 132.099 76.2381 131.833 76.5625L122.205 60.5049L123.201 59.9025Z" fill="#FF336D"/>
</g>
<path d="M117.088 82.7208C130.599 72.2554 138.214 59.4616 134.096 54.1451C129.978 48.8285 115.686 53.0025 102.175 63.4679C88.6636 73.9333 81.0487 86.7271 85.1667 92.0437C89.2847 97.3602 103.576 93.1862 117.088 82.7208Z" fill="#FF336D"/>
<path opacity="0.2" d="M115.412 79.4962C126.105 71.2132 132.414 61.4517 129.503 57.6932C126.592 53.9347 115.563 57.6025 104.869 65.8855C94.1754 74.1685 87.8663 83.9301 90.7775 87.6886C93.6887 91.4471 104.718 87.7792 115.412 79.4962Z" fill="#1C2D5E"/>
<path d="M81.922 33.7076C80.6013 41.3309 63.501 44.5517 44.13 41.076C24.759 37.6003 10.1497 28.6447 11.5052 21.0214C11.818 19.2489 12.3625 12.7957 14.1814 11.5097C20.1943 7.26942 34.1665 10.8146 49.0423 13.4561C62.9449 15.9238 78.1567 16.1208 81.922 22.5276C84.2044 26.4666 82.3044 31.5295 81.922 33.7076Z" fill="#FF336D"/>
<path opacity="0.2" d="M81.9223 22.5391C84.2394 27.799 82.3973 30.9387 81.9223 33.6728C81.4473 36.407 78.7942 38.6894 74.7161 40.1955C74.2179 40.3924 73.6966 40.5546 73.1636 40.7168C69.9738 41.6134 66.6943 42.1535 63.3854 42.3272C62.9104 42.3272 62.447 42.3272 61.9604 42.4083C58.0624 42.5517 54.1592 42.4084 50.2822 41.9797L48.9267 41.8059C47.3626 41.6089 45.7522 41.3772 44.1419 41.0876C42.5315 40.7979 40.9674 40.4735 39.4266 40.1144C38.9863 40.0217 38.5461 39.9059 38.1058 39.8016C34.4659 38.9028 30.8959 37.7412 27.4239 36.3259C26.9953 36.1637 26.5898 35.9784 26.1843 35.8162C23.1371 34.5191 20.2456 32.8829 17.5646 30.9387C17.1591 30.649 16.7884 30.3594 16.4061 30.0581C12.8146 27.127 10.9725 23.9757 11.4938 21.0446C11.8414 19.1446 12.1194 12.9347 14.1585 11.5329C16.1975 10.131 19.1171 9.69078 22.5928 9.6792H23.983C30.9344 9.91091 39.89 11.8457 49.031 13.4677C59.8055 15.3909 72.4222 17.0708 79.2113 20.7086C79.6095 20.9197 79.9962 21.1517 80.3698 21.4038C80.9161 21.7412 81.4352 22.1208 81.9223 22.5391Z" fill="#FF336D"/>
<g opacity="0.2">
<path opacity="0.2" d="M24.3654 8.49756L23.9946 9.71404L17.5531 30.9619C17.1476 30.6723 16.7769 30.3826 16.3945 30.0814L22.5812 9.70245L23.0678 8.11523L24.3654 8.49756Z" fill="#FF336D"/>
</g>
<g opacity="0.2">
<path opacity="0.2" d="M34.0505 14.4295L27.412 36.3146C26.9833 36.1524 26.5779 35.967 26.1724 35.8048L32.7761 14.024L34.0505 14.4295Z" fill="#FF336D"/>
</g>
<g opacity="0.2">
<path opacity="0.2" d="M56.561 21.2878L50.2701 42.0143L48.9146 41.8406L55.275 20.8939L56.561 21.2878Z" fill="#FF336D"/>
</g>
<g opacity="0.2">
<path opacity="0.2" d="M46.0994 18.1134L39.4145 40.1259C38.9742 40.0332 38.534 39.9173 38.0938 39.8131L44.8134 17.6963L46.0994 18.1134Z" fill="#FF336D"/>
</g>
<g opacity="0.2">
<path opacity="0.2" d="M69.502 22.1914L63.3733 42.3618C62.8983 42.3618 62.4348 42.3618 61.9482 42.4429L68.216 21.8091L69.502 22.1914Z" fill="#FF336D"/>
</g>
<path d="M82.8241 27.0518C84.1805 19.4293 69.5716 10.4548 50.1942 7.00664C30.8167 3.55848 14.0087 6.94243 12.6523 14.5649C11.2959 22.1873 25.9048 31.1619 45.2822 34.61C64.6596 38.0582 81.4677 34.6742 82.8241 27.0518Z" fill="#FF336D"/>
<path opacity="0.2" d="M76.2293 25.8866C77.1877 20.5005 65.5348 13.9223 50.2017 11.1938C34.8685 8.46531 21.6616 10.6198 20.7032 16.0059C19.7447 21.392 31.3977 27.9702 46.7308 30.6987C62.0639 33.4271 75.2708 31.2727 76.2293 25.8866Z" fill="#1C2D5E"/>
</g>
</svg>
