<svg width="117" height="121" viewBox="0 0 117 121" fill="none" xmlns="http://www.w3.org/2000/svg">
<path d="M58.6377 120.604C90.7624 120.604 116.805 119.084 116.805 117.208C116.805 115.333 90.7624 113.812 58.6377 113.812C26.513 113.812 0.470703 115.333 0.470703 117.208C0.470703 119.084 26.513 120.604 58.6377 120.604Z" fill="#F5F5F5"/>
<path d="M74.0361 37.6632L74.1422 35.0185C74.1422 35.0185 74.8504 34.3172 74.8504 33.8621C74.8504 33.4071 74.0362 30.8035 73.6803 30.6803C73.3245 30.5571 71.412 31.4638 71.3778 32.0488C71.3436 32.6339 72.37 34.7859 72.5479 34.9433L72.2639 37.7522L74.0361 37.6632Z" fill="#E4897B"/>
<path d="M102.854 34.0131L101.944 31.3958C101.556 31.1188 101.197 30.8048 100.87 30.4583C100.62 30.1162 102.012 27.6494 102.218 27.6494C102.892 27.901 103.525 28.254 104.093 28.6963C104.298 28.9427 103.21 30.9544 103.21 30.9544L104.561 33.2125L102.854 34.0131Z" fill="#E4897B"/>
<path d="M97.5609 33.5716C98.8165 33.6948 104.848 40.144 104.848 40.144L102.245 32.9113L104.297 32.21C104.297 32.21 109.382 40.3082 108.266 43.2813C107.151 46.2545 97.1914 39.4392 97.1914 39.4392L97.5609 33.5716Z" fill="#FF5C8A"/>
<path d="M78.2577 110.534L76.8516 108.697L79.2328 106.398L81.3985 104.311L83.4342 106.213L80.6971 108.502L78.2577 110.534Z" fill="#E4897B"/>
<path d="M76.77 108.132C76.9787 107.985 78.7201 110.595 78.7201 110.595C78.7201 110.595 78.3335 113.332 79.1204 115.074C79.9073 116.815 78.378 116.682 77.1053 115.019L73.9645 110.914C73.0613 109.719 74.6316 109.682 76.77 108.132Z" fill="#1C2D5E"/>
<path d="M78.6924 111.102C78.6924 111.102 79.8591 110.725 79.9959 111.355C80.1499 112.08 78.6924 111.102 78.6924 111.102ZM78.6924 111.102C78.6924 111.102 79.8693 111.978 79.558 112.375C79.0858 112.97 78.6924 111.102 78.6924 111.102Z" stroke="#FF5C8A" stroke-width="0.48312" stroke-linecap="round" stroke-linejoin="round"/>
<path opacity="0.2" d="M80.6977 108.502L79.2334 106.398L81.3991 104.311L83.4348 106.213L80.6977 108.502Z" fill="black"/>
<path d="M92.3301 113.445H90.0139L89.6341 110.223L89.292 107.267L92.0393 106.818L92.1933 110.329L92.3301 113.445Z" fill="#E4897B"/>
<path d="M89.5175 113.298C89.5175 113.042 92.6582 113.243 92.6582 113.243C92.6582 113.243 94.5879 115.204 96.4593 115.638C98.3308 116.073 97.2873 117.209 95.1866 117.209H90.0136C88.5253 117.209 89.4559 115.943 89.5175 113.298Z" fill="#1C2D5E"/>
<path d="M93.0449 113.572C93.0449 113.572 93.4555 112.416 94.0371 112.689C94.7214 113.008 93.0449 113.572 93.0449 113.572ZM93.0449 113.572C93.0449 113.572 94.4579 113.168 94.5811 113.654C94.7693 114.393 93.0449 113.572 93.0449 113.572Z" stroke="#FF5C8A" stroke-width="0.48312" stroke-linecap="round" stroke-linejoin="round"/>
<path opacity="0.2" d="M92.1933 110.401L89.6341 110.288L89.292 107.298L92.0393 106.836L92.1933 110.401Z" fill="black"/>
<path d="M98.1048 57.7666C98.1048 57.7666 104.947 73.9323 106.018 81.0316C107.089 88.1308 82.8013 107.14 82.8013 107.14L80.3174 104.498C80.3174 104.498 98.3888 85.9206 98.3888 82.7251C98.3888 79.5296 91.3409 64.9343 91.3409 64.9343C91.3409 64.9343 90.66 59.0462 98.1048 57.7666Z" fill="#FF5C8A"/>
<path opacity="0.6" d="M93.1542 98.2887C90.6737 100.574 88.2719 102.637 86.4073 104.197C84.2416 106.004 82.8013 107.133 82.8013 107.133L80.3174 104.492C80.3174 104.492 82.8013 101.943 85.9215 98.5658C88.378 95.9108 91.2348 92.7496 93.5921 89.9167C96.3291 86.6322 98.3819 83.796 98.3819 82.7319C98.3819 81.0452 96.4215 76.1938 94.5706 71.9787C92.9078 68.2153 91.334 64.9411 91.334 64.9411C91.287 64.2689 91.3529 63.5935 91.529 62.943C92.0046 61.1126 93.5066 58.5706 98.1014 57.7803C98.1014 57.7803 104.944 73.946 106.011 81.0452C106.607 84.901 99.6136 92.3424 93.1542 98.2887Z" fill="white"/>
<path opacity="0.2" d="M93.5927 89.917L93.1548 98.289C90.6743 100.574 88.2726 102.637 86.408 104.198C85.9793 102.353 85.8157 100.457 85.9221 98.5661C88.3786 95.9111 91.2354 92.7498 93.5927 89.917Z" fill="black"/>
<path opacity="0.2" d="M94.5775 71.9657C92.9147 68.2023 91.3409 64.9281 91.3409 64.9281C91.2938 64.2558 91.3597 63.5805 91.5359 62.93C91.772 62.7701 92.0352 62.6542 92.3126 62.5879C92.3126 62.5879 94.3346 65.78 94.5775 71.9657Z" fill="black"/>
<path d="M85.7814 20.6662C85.7814 20.6662 87.8581 18.0763 91.2555 18.6545C94.6529 19.2327 94.0644 25.5176 94.0644 25.5176C94.699 26.0608 95.1716 26.7685 95.4299 27.5629C95.6883 28.3573 95.7225 29.2075 95.5287 30.0201C94.865 32.8701 87.1157 34.5191 84.1528 32.5382C81.19 30.5572 83.4686 24.2723 84.9089 23.3827C86.3493 22.4932 85.7814 20.6662 85.7814 20.6662Z" fill="#1C2D5E"/>
<path d="M92.3778 62.6046L92.7918 85.3632V108.656H88.9154C79.6573 64.5205 86.0039 53.456 86.0039 53.456H86.0278C86.0278 53.4389 86.0278 53.4184 86.0484 53.4047C87.5366 50.0997 97.2874 52.5357 97.2874 52.5357C97.9888 55.2727 98.4198 60.8392 98.4198 60.8392L92.3778 62.6046Z" fill="#FF5C8A"/>
<path opacity="0.6" d="M92.3778 62.6046L92.7918 85.3632V108.656H88.9154C79.6573 64.5205 86.0039 53.456 86.0039 53.456H86.0278C86.0278 53.4389 86.0278 53.4184 86.0484 53.4047C87.5366 50.0997 97.2874 52.5357 97.2874 52.5357C97.9888 55.2727 98.4198 60.8392 98.4198 60.8392L92.3778 62.6046Z" fill="white"/>
<path d="M85.9492 51.7526V53.4085L97.2396 52.5429V50.5859L85.9492 51.7526Z" fill="#1C2D5E"/>
<path d="M89.7342 51.0681L89.1738 51.0967L89.3194 53.9498L89.8797 53.9212L89.7342 51.0681Z" fill="#FF5C8A"/>
<path d="M94.6312 50.9811L92.1641 51.2021L92.3317 53.073L94.7988 52.8519L94.6312 50.9811Z" fill="white"/>
<path d="M96.6346 50.3044L96.0742 50.333L96.2197 53.1861L96.7801 53.1575L96.6346 50.3044Z" fill="#FF5C8A"/>
<path opacity="0.6" d="M89.7342 51.0681L89.1738 51.0967L89.3194 53.9498L89.8797 53.9212L89.7342 51.0681Z" fill="white"/>
<path opacity="0.6" d="M96.6346 50.3044L96.0742 50.333L96.2197 53.1861L96.7801 53.1575L96.6346 50.3044Z" fill="white"/>
<path d="M97.2876 50.7844L85.9973 51.7594C85.7304 47.5615 85.4636 44.8552 82.9763 37.3899C82.7607 36.7364 82.5281 36.0419 82.2715 35.3097C83.8047 34.8202 85.3711 34.4418 86.9587 34.1773C88.6341 33.8797 90.3285 33.7014 92.0291 33.6436C94.2256 33.6436 96.7505 33.8728 96.7505 33.8728C96.7505 33.8728 97.1097 33.9583 97.3355 36.2882C97.5374 38.4573 97.7393 42.8298 97.2876 50.7844Z" fill="#FF5C8A"/>
<path opacity="0.3" d="M97.2876 50.7844L85.9973 51.7594C85.7304 47.5615 85.4636 44.8552 82.9763 37.3899C82.7607 36.7364 82.5281 36.0419 82.2715 35.3097C83.8047 34.8202 85.3711 34.4418 86.9587 34.1773C88.6341 33.8797 90.3285 33.7014 92.0291 33.6436C94.2256 33.6436 96.7505 33.8728 96.7505 33.8728C96.7505 33.8728 97.1097 33.9583 97.3355 36.2882C97.5374 38.4573 97.7393 42.8298 97.2876 50.7844Z" fill="black"/>
<path d="M91.0817 36.1236C88.2967 35.7815 87.4619 34.5772 87.4619 34.5772C89.2273 32.911 87.7596 30.0234 87.7596 30.0234L91.109 30.6495C91.0304 31.1166 90.987 31.589 90.979 32.0625C90.9517 34.0948 91.872 34.1153 91.872 34.1153C92.4741 35.2136 91.0817 36.1236 91.0817 36.1236Z" fill="#E4897B"/>
<path opacity="0.2" d="M91.1219 30.6496C91.0433 31.1166 90.9998 31.589 90.9919 32.0626C89.3771 31.6862 87.7725 30.0098 87.7725 30.0098L91.1219 30.6496Z" fill="black"/>
<path d="M88.1355 21.374C90.9752 20.6898 92.2411 22.007 93.1477 24.8809C94.2733 28.4733 94.0783 31.2616 90.3457 31.3232C85.265 31.4053 83.4244 22.4928 88.1355 21.374Z" fill="#E4897B"/>
<path d="M91.2764 25.1758C91.6042 25.546 91.9752 25.8756 92.3814 26.1577C92.3254 26.2962 92.2315 26.4162 92.1105 26.5039C91.9895 26.5916 91.8463 26.6436 91.6972 26.6538L91.2764 25.1758Z" fill="#DE5753"/>
<path d="M89.4835 25.3362C89.5451 25.5688 89.4835 25.7878 89.3158 25.8288C89.1482 25.8699 88.9737 25.7159 88.9258 25.4867C88.8779 25.2575 88.9258 25.0351 89.0934 24.994C89.2611 24.953 89.4253 25.1035 89.4835 25.3362Z" fill="#1C2D5E"/>
<path d="M89.0283 25.0179L89.4834 24.6758C89.4834 24.6758 89.3465 25.1753 89.0283 25.0179Z" fill="#1C2D5E"/>
<path d="M92.3539 24.5354C92.4155 24.7646 92.3368 24.987 92.1829 25.0281C92.0289 25.0691 91.8407 24.9117 91.7928 24.6859C91.7449 24.4601 91.8099 24.2343 91.9639 24.1933C92.1178 24.1522 92.2923 24.3027 92.3539 24.5354Z" fill="#1C2D5E"/>
<path d="M91.9023 24.2142L92.354 23.8721C92.354 23.8721 92.2137 24.375 91.9023 24.2142Z" fill="#1C2D5E"/>
<path d="M88.9904 23.3828C88.7595 23.4088 88.5377 23.4874 88.3419 23.6125C88.1462 23.7377 87.9818 23.9061 87.8613 24.1047" stroke="#1C2D5E" stroke-width="0.72468" stroke-linecap="round" stroke-linejoin="round"/>
<path d="M91.0264 22.7801C91.209 22.6856 91.4105 22.6334 91.6161 22.6275C91.8216 22.6216 92.0258 22.6621 92.2136 22.7459" stroke="#1C2D5E" stroke-width="0.72468" stroke-linecap="round" stroke-linejoin="round"/>
<path d="M91.5599 27.8507C91.502 28.2026 91.4688 28.5581 91.4606 28.9147L91.2759 28.9421C90.4308 29.055 89.9998 28.8257 89.7808 28.5418C89.6768 28.3989 89.6077 28.2337 89.5789 28.0594C89.5648 27.9607 89.5648 27.8604 89.5789 27.7617C90.1336 27.9255 90.7171 27.9675 91.2896 27.8849C91.447 27.8712 91.5599 27.8507 91.5599 27.8507Z" fill="#1C2D5E"/>
<path d="M91.2691 27.8849L91.2348 28.1996C90.4377 28.3023 89.8663 28.2681 89.5789 28.0594C89.5648 27.9607 89.5648 27.8604 89.5789 27.7617C90.1271 27.9225 90.7033 27.9645 91.2691 27.8849V27.8849Z" fill="white"/>
<path d="M91.2764 28.9391C90.4313 29.052 90.0002 28.8227 89.7812 28.5388C90.1015 28.5016 90.4258 28.5213 90.7392 28.5969C90.95 28.6511 91.1381 28.771 91.2764 28.9391V28.9391Z" fill="#DE5753"/>
<path d="M86.1685 26.886C86.1685 26.886 86.9417 24.2413 86.3156 22.4896C86.3156 22.4896 91.3929 18.8596 93.0248 24.5013C93.0248 24.5013 92.3748 19.3009 87.4686 20.3444C82.5624 21.3879 84.2765 28.5214 87.2975 30.0507C87.2975 30.0576 85.693 28.5453 86.1685 26.886Z" fill="#1C2D5E"/>
<path d="M86.7738 27.3824C86.6681 27.0613 86.4397 26.7951 86.1384 26.6419C85.8372 26.4887 85.4875 26.4609 85.1658 26.5647C84.3071 26.8657 84.3173 28.7714 86.6062 28.6893C86.9346 28.6756 87.0407 28.3266 86.7738 27.3824Z" fill="#E4897B"/>
<path d="M97.3321 36.2707C93.0897 38.3679 86.5892 37.8787 82.9626 37.3723C82.7471 36.7188 82.5144 36.0243 82.2578 35.2922C83.791 34.8027 85.3575 34.4242 86.945 34.1597C88.6204 33.8622 90.3148 33.6838 92.0154 33.626C94.2119 33.626 96.7368 33.8552 96.7368 33.8552C96.7368 33.8552 97.1063 33.9407 97.3321 36.2707Z" fill="#E4897B"/>
<path d="M84.6387 34.1494C84.6387 34.1494 87.6802 38.036 87.7726 42.2477C87.8649 46.4593 85.0561 65.889 85.0561 65.889L81.6689 64.931C81.6689 64.931 84.2281 49.9798 81.6689 35.5385L84.6387 34.1494Z" fill="#FF5C8A"/>
<path d="M94.0645 33.7285C94.0645 33.7285 95.303 37.7554 95.1387 40.6498C94.9745 43.5443 98.105 57.7941 98.105 57.7941L99.0151 59.9837L98.1153 51.1464C98.1153 51.1464 98.6593 38.1762 97.561 33.7285H94.0645Z" fill="#FF5C8A"/>
<path d="M88.1356 21.3747C88.1356 21.3747 89.1859 24.95 85.987 26.5683C82.1209 28.5253 82.4904 32.754 86.2607 33.2912C86.2607 33.2912 82.4528 32.908 81.7138 30.4207C80.9748 27.9334 83.0823 24.1049 83.0823 24.1049C83.0823 24.1049 81.9259 22.0008 85.0496 20.3415C86.8013 19.4177 88.1356 21.3747 88.1356 21.3747Z" fill="#1C2D5E"/>
<path d="M88.416 108.098L93.2606 107.387L92.8569 109.323L88.8574 109.86L88.416 108.098Z" fill="#FF5C8A"/>
<path d="M80.3173 103.599L83.5675 107.133L81.9424 108.063L79.4346 105.402L80.3173 103.599Z" fill="#FF5C8A"/>
<path d="M99.4365 28.1487C99.4365 28.1487 100.891 30.2528 102.249 31.0226C102.296 31.0481 102.35 31.0559 102.402 31.0446C102.454 31.0333 102.501 31.0036 102.533 30.961L103.693 29.5274C103.713 29.5003 103.726 29.4691 103.733 29.4361C103.739 29.403 103.738 29.369 103.73 29.3363C103.722 29.3037 103.707 29.2732 103.685 29.2471C103.664 29.221 103.637 29.1999 103.607 29.1853C103.036 28.9321 101.701 28.2821 100.932 27.372C99.9326 26.1814 99.4365 28.1487 99.4365 28.1487Z" fill="#FF5C8A"/>
<path opacity="0.3" d="M99.4365 28.1487C99.4365 28.1487 100.891 30.2528 102.249 31.0226C102.296 31.0481 102.35 31.0559 102.402 31.0446C102.454 31.0333 102.501 31.0036 102.533 30.961L103.693 29.5274C103.713 29.5003 103.726 29.4691 103.733 29.4361C103.739 29.403 103.738 29.369 103.73 29.3363C103.722 29.3037 103.707 29.2732 103.685 29.2471C103.664 29.221 103.637 29.1999 103.607 29.1853C103.036 28.9321 101.701 28.2821 100.932 27.372C99.9326 26.1814 99.4365 28.1487 99.4365 28.1487Z" fill="black"/>
<path d="M81.6687 35.5352C80.0983 36.2194 74.4839 46.2439 74.4839 46.2439L74.3745 36.7668L71.8393 36.4247C71.8393 36.4247 70.2963 49.8671 73.6012 50.6368C76.9062 51.4066 82.9688 41.8235 82.9688 41.8235L81.6687 35.5352Z" fill="#FF5C8A"/>
<path d="M87.7725 20.9502C87.7725 20.9502 89.2265 22.0005 88.1454 24.741" stroke="#1C2D5E" stroke-width="0.5" stroke-linecap="round" stroke-linejoin="round"/>
<path d="M93.7529 25.2949C93.7529 25.2949 97.7525 27.8849 95.1591 31.2206" stroke="#1C2D5E" stroke-width="0.5" stroke-linecap="round" stroke-linejoin="round"/>
<path d="M69.838 0.842773H12.3804C10.4153 0.842773 8.82227 2.43582 8.82227 4.40094V113.428C8.82227 115.393 10.4153 116.986 12.3804 116.986H69.838C71.8032 116.986 73.3962 115.393 73.3962 113.428V4.40094C73.3962 2.43582 71.8032 0.842773 69.838 0.842773Z" fill="#1C2D5E"/>
<path d="M71.2377 4.7358V112.89C71.2377 113.1 71.1961 113.308 71.1152 113.501C71.0342 113.694 70.9157 113.87 70.7663 114.017C70.617 114.164 70.4399 114.28 70.2454 114.358C70.0508 114.436 69.8427 114.474 69.6331 114.471H12.4561C12.2657 114.473 12.0768 114.437 11.9007 114.365C11.7246 114.293 11.5649 114.186 11.4311 114.05C11.2973 113.915 11.1921 113.754 11.1219 113.577C11.0517 113.4 11.0179 113.211 11.0226 113.02V4.60579C11.0157 4.43789 11.042 4.2703 11.1001 4.11261C11.1582 3.95493 11.2468 3.81026 11.3609 3.68692C11.4751 3.56358 11.6124 3.464 11.7651 3.39388C11.9178 3.32376 12.0829 3.28449 12.2508 3.27832H26.5451C26.745 3.28189 26.9394 3.34499 27.1033 3.45956C27.2673 3.57413 27.3933 3.73497 27.4654 3.92153L28.0573 5.37901C28.1304 5.56429 28.257 5.72368 28.4208 5.83697C28.5847 5.95026 28.7784 6.01235 28.9776 6.01537H53.3134C53.5118 6.01454 53.7053 5.95451 53.8693 5.84296C54.0333 5.73141 54.1602 5.57343 54.2338 5.38927L54.8154 3.92495C54.8899 3.73771 55.0179 3.57656 55.1834 3.46157C55.3489 3.34658 55.5445 3.28285 55.746 3.27832H69.835C70.2131 3.28906 70.5719 3.44778 70.8343 3.72034C71.0966 3.9929 71.2415 4.35753 71.2377 4.7358Z" fill="#FF5C8A"/>
<path opacity="0.2" d="M71.2376 10.292H11.0225V23.8062H71.2376V10.292Z" fill="white"/>
<path opacity="0.6" d="M17.8132 7.63379H18.5557V6.64161H17.8132V7.63379Z" fill="white"/>
<path opacity="0.6" d="M16.6023 7.6377H17.3447V6.31365H16.6023V7.6377Z" fill="white"/>
<path opacity="0.6" d="M15.3914 7.6377H16.1338V5.9852H15.3914V7.6377Z" fill="white"/>
<path opacity="0.6" d="M14.1765 7.63379H14.9189V5.64943H14.1765V7.63379Z" fill="white"/>
<path opacity="0.6" d="M64.579 6.28223H64.1377V7.27441H64.579V6.28223Z" fill="white"/>
<path opacity="0.6" d="M64.8769 7.6377H68.3906V5.92361H64.8769V7.6377Z" fill="white"/>
<path opacity="0.6" d="M39.7645 4.24674C40.2218 4.24674 40.5924 3.87605 40.5924 3.41878C40.5924 2.96151 40.2218 2.59082 39.7645 2.59082C39.3072 2.59082 38.9365 2.96151 38.9365 3.41878C38.9365 3.87605 39.3072 4.24674 39.7645 4.24674Z" fill="white"/>
<path opacity="0.6" d="M42.2657 3.41898C42.2657 3.52386 42.2346 3.62639 42.1763 3.7136C42.118 3.8008 42.0352 3.86877 41.9383 3.90891C41.8414 3.94905 41.7348 3.95955 41.6319 3.93909C41.5291 3.91863 41.4346 3.86812 41.3604 3.79396C41.2862 3.71979 41.2357 3.6253 41.2153 3.52243C41.1948 3.41956 41.2053 3.31294 41.2454 3.21604C41.2856 3.11914 41.3536 3.03632 41.4408 2.97804C41.528 2.91977 41.6305 2.88867 41.7354 2.88867C41.876 2.88867 42.0109 2.94454 42.1104 3.044C42.2098 3.14345 42.2657 3.27833 42.2657 3.41898V3.41898Z" fill="white"/>
<path opacity="0.2" d="M71.2371 93.9434V112.891C71.2371 113.1 71.1954 113.308 71.1145 113.501C71.0336 113.694 70.915 113.87 70.7657 114.017C70.6164 114.164 70.4393 114.28 70.2447 114.358C70.0502 114.436 69.8421 114.474 69.6325 114.471H12.4554C12.2651 114.474 12.0762 114.438 11.9001 114.365C11.724 114.293 11.5642 114.186 11.4304 114.051C11.2966 113.915 11.1915 113.754 11.1213 113.577C11.0511 113.4 11.0173 113.211 11.0219 113.021V93.9434H71.2371Z" fill="white"/>
<path d="M17.6357 57.7493L41.1094 38.0254L64.5796 57.7493L46.1764 82.4341L29.648 82.1022L17.6357 57.7493Z" fill="#FF5C8A"/>
<path d="M42.3646 74.9524L42.2346 74.8805C42.0021 74.7502 41.74 74.6817 41.4734 74.6817C41.2068 74.6817 40.9447 74.7502 40.7121 74.8805L40.0792 75.2398L17.5225 57.75V86.6191C17.5233 86.8201 17.5642 87.019 17.6427 87.2042C17.7212 87.3893 17.8357 87.557 17.9797 87.6974C18.1236 87.8378 18.294 87.9482 18.481 88.0221C18.668 88.096 18.8679 88.132 19.0689 88.1279H63.1491C63.9976 88.1279 64.3945 87.4744 64.3945 86.6191V57.75L42.3646 74.9524Z" fill="#FF5C8A"/>
<path d="M51.223 12.4033H32.1765C32.0197 12.4033 31.8926 12.5305 31.8926 12.6873V13.9429C31.8926 14.0997 32.0197 14.2269 32.1765 14.2269H51.223C51.3798 14.2269 51.507 14.0997 51.507 13.9429V12.6873C51.507 12.5305 51.3798 12.4033 51.223 12.4033Z" fill="#FF5C8A"/>
<path d="M67.0185 21.9832H58.236C57.9335 21.9823 57.6437 21.8615 57.4302 21.6473C57.2166 21.4331 57.0967 21.1429 57.0967 20.8405V20.8405C57.0967 20.5383 57.2167 20.2485 57.4304 20.0349C57.644 19.8212 57.9338 19.7012 58.236 19.7012H67.0185C67.3207 19.7012 67.6104 19.8212 67.8241 20.0349C68.0378 20.2485 68.1578 20.5383 68.1578 20.8405C68.1578 21.1429 68.0379 21.4331 67.8243 21.6473C67.6107 21.8615 67.321 21.9823 67.0185 21.9832V21.9832Z" fill="#FF5C8A"/>
<path d="M24.1399 96.7939H15.3574V105.118H24.1399V96.7939Z" fill="#FF5C8A"/>
<path d="M34.8206 96.7939H26.0381V105.118H34.8206V96.7939Z" fill="#FF5C8A"/>
<path d="M45.5052 96.7939H36.7227V105.118H45.5052V96.7939Z" fill="#FF5C8A"/>
<path d="M56.1907 96.7939H47.4082V105.118H56.1907V96.7939Z" fill="#FF5C8A"/>
<path d="M66.8714 96.7939H58.0889V105.118H66.8714V96.7939Z" fill="#FF5C8A"/>
<path d="M67.0185 110.992H58.236C57.9338 110.992 57.644 110.872 57.4304 110.658C57.2167 110.445 57.0967 110.155 57.0967 109.853C57.0967 109.55 57.2166 109.26 57.4302 109.046C57.6437 108.832 57.9335 108.711 58.236 108.71H67.0185C67.321 108.711 67.6107 108.832 67.8243 109.046C68.0379 109.26 68.1578 109.55 68.1578 109.853V109.853C68.1578 110.155 68.0378 110.445 67.8241 110.658C67.6104 110.872 67.3207 110.992 67.0185 110.992Z" fill="#FF5C8A"/>
<path opacity="0.1" d="M65.0653 0.883789L8.82227 80.9152V45.4601L40.1205 0.883789H65.0653Z" fill="white"/>
<path opacity="0.1" d="M32.5287 0.883869L8.96955 34.5291V4.42151C8.95103 3.9618 9.02598 3.50311 9.18986 3.0732C9.35375 2.64329 9.60316 2.25111 9.92301 1.92038C10.2429 1.58966 10.6265 1.32728 11.0507 1.14912C11.4749 0.970956 11.9308 0.880719 12.3909 0.883869H32.5287Z" fill="white"/>
<path d="M37.9002 51.2798C37.5966 52.0175 35.8093 51.9667 33.9369 51.1946C32.0644 50.4226 30.7909 49.1986 31.0946 48.4608C31.166 48.2905 31.3693 47.6517 31.5726 47.5638C32.2705 47.2684 33.5989 47.9319 35.0373 48.5254C36.3767 49.0749 37.9085 49.4335 38.1461 50.1602C38.289 50.6026 37.9868 51.0696 37.9002 51.2798Z" fill="#FF336D"/>
<path opacity="0.2" d="M38.1459 50.1612C38.2599 50.7395 38.0085 51.017 37.9 51.2808C37.7915 51.5446 37.4741 51.7176 37.0304 51.7781C36.9749 51.7875 36.919 51.7939 36.8628 51.7973C36.5225 51.8173 36.1811 51.7994 35.8448 51.7438C35.7967 51.7438 35.7487 51.7286 35.6992 51.7204C35.3045 51.6495 34.9155 51.5494 34.5356 51.4209L34.3982 51.3742C34.2457 51.3206 34.0891 51.2616 33.9325 51.197C33.7759 51.1324 33.6275 51.0596 33.4806 50.995L33.3542 50.9346C33.0079 50.7633 32.6741 50.5678 32.3554 50.3494L32.2428 50.2697C31.9646 50.0731 31.7097 49.8454 31.4831 49.591C31.4487 49.5526 31.4171 49.5155 31.3869 49.477C31.0916 49.1034 30.9748 48.7462 31.0916 48.4618C31.1685 48.2791 31.3333 47.654 31.5696 47.5634C31.8603 47.4815 32.1678 47.4815 32.4585 47.5634L32.5958 47.5963C33.2827 47.7722 34.1482 48.1637 35.0315 48.5277C36.0729 48.9577 37.3051 49.4042 37.9096 49.9194C37.9456 49.9497 37.98 49.9817 38.0126 50.0155C38.0609 50.0605 38.1054 50.1091 38.1459 50.1612V50.1612Z" fill="black"/>
<g opacity="0.2">
<path opacity="0.2" d="M32.6645 47.4781L32.6013 47.5934L31.4858 49.5895C31.4515 49.5511 31.4199 49.514 31.3896 49.4755L32.4612 47.5605L32.545 47.4121L32.6645 47.4781Z" fill="black"/>
</g>
<g opacity="0.2">
<path opacity="0.2" d="M33.5086 48.2927L32.3587 50.3533L32.2461 50.2737L33.3891 48.2295L33.5086 48.2927Z" fill="black"/>
</g>
<g opacity="0.2">
<path opacity="0.2" d="M35.6225 49.4742L34.5358 51.4208L34.3984 51.3741L35.4975 49.4014L35.6225 49.4742Z" fill="black"/>
</g>
<g opacity="0.2">
<path opacity="0.2" d="M34.6382 48.9244L33.4828 50.9946L33.3564 50.9342L34.5187 48.8516L34.6382 48.9244Z" fill="black"/>
</g>
<g opacity="0.2">
<path opacity="0.2" d="M36.904 49.8499L35.8448 51.743C35.7968 51.743 35.7487 51.7279 35.6992 51.7196L36.7831 49.7812L36.904 49.8499Z" fill="black"/>
</g>
<path d="M38.1374 50.6375C37.8338 51.3752 36.0685 51.3464 34.1947 50.5729C32.3209 49.7995 31.0488 48.5768 31.3537 47.8391C31.6587 47.1014 33.4227 47.1316 35.2965 47.9037C37.1703 48.6758 38.441 49.8957 38.1374 50.6375Z" fill="#FF336D"/>
<path opacity="0.2" d="M37.5005 50.3695C37.2862 50.8902 35.9097 50.8174 34.4274 50.206C32.9451 49.5947 31.9175 48.6756 32.1318 48.155C32.3461 47.6343 33.7226 47.7071 35.2063 48.3185C36.69 48.9298 37.7162 49.8489 37.5005 50.3695Z" fill="white"/>
<path d="M47.3679 44.6122C47.8569 45.2428 46.9255 46.7691 45.3223 48.0096C43.7191 49.2501 42.0253 49.7446 41.5376 49.1086C41.4249 48.963 40.9688 48.4753 40.9963 48.2472C41.0884 47.4958 42.3234 46.6743 43.5543 45.7209C44.7 44.8334 45.7702 43.6822 46.5189 43.8374C46.9736 43.9377 47.2291 44.4336 47.3679 44.6122Z" fill="#FF336D"/>
<path opacity="0.2" d="M46.5189 43.8428C47.0781 44.0324 47.1935 44.3923 47.3679 44.6121C47.5424 44.8319 47.5355 45.1987 47.3679 45.6149C47.3487 45.6658 47.3253 45.7166 47.3006 45.7688C47.1501 46.0742 46.9658 46.3618 46.7511 46.626C46.7222 46.6645 46.6907 46.7016 46.6591 46.7401C46.4007 47.0482 46.1197 47.3366 45.8183 47.6028L45.7125 47.6948C45.5903 47.8006 45.4611 47.9064 45.3279 48.0094C45.1946 48.1125 45.0614 48.21 44.9267 48.302C44.8896 48.3295 44.8498 48.3556 44.8127 48.3817C44.4917 48.597 44.1557 48.7889 43.8071 48.956C43.7645 48.9779 43.7233 48.9958 43.6835 49.015C43.3738 49.1583 43.0489 49.2661 42.715 49.3365C42.6655 49.3475 42.6174 49.3557 42.5693 49.3626C42.0981 49.4327 41.73 49.3626 41.5418 49.1139C41.4209 48.9573 40.9606 48.5026 41.0005 48.254C41.0723 47.96 41.2251 47.6921 41.4415 47.4805C41.4717 47.4462 41.5047 47.4118 41.539 47.3761C42.0349 46.8623 42.8029 46.3114 43.5584 45.7276C44.45 45.0407 45.4501 44.1903 46.1961 43.9238C46.2411 43.9073 46.287 43.8931 46.3335 43.8812C46.3943 43.8639 46.4563 43.8511 46.5189 43.8428V43.8428Z" fill="black"/>
<g opacity="0.2">
<path opacity="0.2" d="M41.4664 47.2637L41.5351 47.3763L42.711 49.3367C42.6616 49.3477 42.6135 49.3559 42.5654 49.3628L41.4375 47.478L41.3496 47.3406L41.4664 47.2637Z" fill="black"/>
</g>
<g opacity="0.2">
<path opacity="0.2" d="M42.5918 46.9365L43.8034 48.956C43.7609 48.9779 43.7196 48.9958 43.6798 49.015L42.4736 47.0066L42.5918 46.9365Z" fill="black"/>
</g>
<g opacity="0.2">
<path opacity="0.2" d="M44.667 45.6914L45.8141 47.6037L45.7083 47.6957L44.5488 45.7615L44.667 45.6914Z" fill="black"/>
</g>
<g opacity="0.2">
<path opacity="0.2" d="M43.7025 46.2705L44.9224 48.3023C44.8853 48.3298 44.8455 48.3559 44.8084 48.382L43.583 46.3406L43.7025 46.2705Z" fill="black"/>
</g>
<g opacity="0.2">
<path opacity="0.2" d="M45.6318 44.7646L46.7473 46.6261C46.7185 46.6646 46.6869 46.7017 46.6553 46.7401L45.5137 44.8361L45.6318 44.7646Z" fill="black"/>
</g>
<path d="M44.9065 47.4706C46.5086 46.2296 47.4116 44.7126 46.9233 44.0822C46.435 43.4517 44.7404 43.9467 43.1382 45.1876C41.5361 46.4286 40.6331 47.9456 41.1214 48.576C41.6097 49.2065 43.3044 48.7115 44.9065 47.4706Z" fill="#FF336D"/>
<path opacity="0.2" d="M44.7082 47.0875C45.9762 46.1053 46.7243 44.9478 46.3791 44.5022C46.0339 44.0565 44.7261 44.4914 43.4581 45.4736C42.1901 46.4557 41.4419 47.6132 41.7871 48.0589C42.1323 48.5046 43.4401 48.0697 44.7082 47.0875Z" fill="white"/>
<path d="M40.7371 41.6584C40.5805 42.5623 38.5528 42.9442 36.2558 42.5321C33.9589 42.1199 32.2266 41.058 32.3873 40.1541C32.4244 39.9439 32.489 39.1787 32.7046 39.0262C33.4176 38.5234 35.0744 38.9438 36.8383 39.257C38.4868 39.5496 40.2906 39.573 40.7371 40.3327C41.0077 40.7997 40.7824 41.4001 40.7371 41.6584Z" fill="#FF336D"/>
<path opacity="0.2" d="M40.7365 40.3345C41.0112 40.9582 40.7928 41.3304 40.7365 41.6547C40.6802 41.9789 40.3656 42.2495 39.882 42.4281C39.8229 42.4514 39.7611 42.4707 39.6979 42.4899C39.3197 42.5962 38.9308 42.6603 38.5385 42.6809C38.4821 42.6809 38.4272 42.6809 38.3695 42.6905C37.9073 42.7075 37.4444 42.6905 36.9847 42.6396L36.824 42.619C36.6385 42.5957 36.4476 42.5682 36.2566 42.5339C36.0657 42.4995 35.8802 42.4611 35.6975 42.4185C35.6453 42.4075 35.5931 42.3937 35.5409 42.3814C35.1093 42.2748 34.686 42.1371 34.2743 41.9692C34.2234 41.95 34.1754 41.928 34.1273 41.9088C33.7659 41.755 33.4231 41.561 33.1052 41.3304C33.0571 41.2961 33.0131 41.2618 32.9678 41.226C32.5419 40.8785 32.3235 40.5048 32.3853 40.1572C32.4265 39.9319 32.4595 39.1956 32.7013 39.0294C32.9431 38.8631 33.2893 38.8109 33.7014 38.8096H33.8663C34.6905 38.837 35.7524 39.0665 36.8364 39.2588C38.114 39.4868 39.61 39.686 40.415 40.1174C40.4622 40.1424 40.5081 40.1699 40.5524 40.1998C40.6172 40.2398 40.6787 40.2849 40.7365 40.3345Z" fill="black"/>
<g opacity="0.2">
<path opacity="0.2" d="M33.912 38.6694L33.868 38.8136L33.1042 41.3331C33.0561 41.2988 33.0121 41.2644 32.9668 41.2287L33.7004 38.8122L33.7581 38.624L33.912 38.6694Z" fill="black"/>
</g>
<g opacity="0.2">
<path opacity="0.2" d="M35.0601 39.3723L34.273 41.9674C34.2221 41.9481 34.1741 41.9261 34.126 41.9069L34.909 39.3242L35.0601 39.3723Z" fill="black"/>
</g>
<g opacity="0.2">
<path opacity="0.2" d="M37.7299 40.1854L36.984 42.6431L36.8232 42.6225L37.5774 40.1387L37.7299 40.1854Z" fill="black"/>
</g>
<g opacity="0.2">
<path opacity="0.2" d="M36.4893 39.8092L35.6966 42.4194C35.6444 42.4084 35.5922 42.3947 35.54 42.3823L36.3368 39.7598L36.4893 39.8092Z" fill="black"/>
</g>
<g opacity="0.2">
<path opacity="0.2" d="M39.2639 40.2924L38.5371 42.6841C38.4808 42.6841 38.4259 42.6841 38.3682 42.6938L39.1114 40.2471L39.2639 40.2924Z" fill="black"/>
</g>
<path d="M40.8434 40.8695C41.0042 39.9656 39.272 38.9015 36.9743 38.4926C34.6765 38.0837 32.6835 38.485 32.5227 39.3888C32.3618 40.2927 34.0941 41.3568 36.3918 41.7657C38.6895 42.1746 40.6826 41.7733 40.8434 40.8695Z" fill="#FF336D"/>
<path opacity="0.2" d="M40.0623 40.731C40.176 40.0924 38.7942 39.3123 36.9761 38.9888C35.1579 38.6653 33.5919 38.9207 33.4782 39.5594C33.3646 40.1981 34.7464 40.9781 36.5645 41.3016C38.3827 41.6252 39.9487 41.3697 40.0623 40.731Z" fill="white"/>
<path d="M55.9888 53.2444L41.8513 54.0687C41.3519 54.0981 40.8618 54.2172 40.4047 54.4204L25.0486 61.2892C24.7792 61.4077 24.5586 61.615 24.4236 61.8765C24.2885 62.138 24.2473 62.4379 24.3068 62.7262L26.8442 74.7261C26.8871 74.9193 26.9736 75.1002 27.0971 75.2549C27.2206 75.4095 27.3779 75.5339 27.5568 75.6185C27.7358 75.7031 27.9317 75.7456 28.1296 75.7429C28.3276 75.7401 28.5222 75.6921 28.6988 75.6026L43.8556 68.0358L57.8516 67.5674C58.0238 67.5628 58.1931 67.5215 58.3481 67.4464C58.5032 67.3713 58.6404 67.264 58.7508 67.1317C58.8611 66.9994 58.942 66.8451 58.9881 66.6791C59.0342 66.513 59.0443 66.3391 59.0179 66.1689L57.1455 54.6786C57.0479 54.0852 56.5973 53.2266 55.9888 53.2444Z" fill="#FF336D"/>
<path opacity="0.1" d="M55.9888 53.2444L41.8513 54.0687C41.3519 54.0981 40.8618 54.2172 40.4047 54.4204L25.0486 61.2892C24.7792 61.4077 24.5586 61.615 24.4236 61.8765C24.2885 62.138 24.2473 62.4379 24.3068 62.7262L26.8442 74.7261C26.8871 74.9193 26.9736 75.1002 27.0971 75.2549C27.2206 75.4095 27.3779 75.5339 27.5568 75.6185C27.7358 75.7031 27.9317 75.7456 28.1296 75.7429C28.3276 75.7401 28.5222 75.6921 28.6988 75.6026L43.8556 68.0358L57.8516 67.5674C58.0238 67.5628 58.1931 67.5215 58.3481 67.4464C58.5032 67.3713 58.6404 67.264 58.7508 67.1317C58.8611 66.9994 58.942 66.8451 58.9881 66.6791C59.0342 66.513 59.0443 66.3391 59.0179 66.1689L57.1455 54.6786C57.0479 54.0852 56.5973 53.2266 55.9888 53.2444Z" fill="black"/>
<path d="M56.0804 53.7327L42.1366 54.5185C41.6423 54.5455 41.1574 54.6643 40.7065 54.8688L25.5758 61.6992C25.3093 61.8196 25.0918 62.0274 24.9595 62.2882C24.8271 62.549 24.7876 62.8471 24.8477 63.1334L27.385 75.1388C27.4259 75.3308 27.5103 75.5109 27.6316 75.6653C27.753 75.8197 27.9081 75.9441 28.0851 76.0292C28.262 76.1142 28.4562 76.1575 28.6525 76.1559C28.8488 76.1542 29.0422 76.1075 29.2177 76.0194L44.1506 68.4952L57.9542 68.0584C58.1251 68.053 58.2929 68.0112 58.4463 67.9358C58.5998 67.8604 58.7354 67.7531 58.8441 67.6211C58.9528 67.4892 59.0321 67.3355 59.0767 67.1705C59.1213 67.0054 59.1302 66.8327 59.1027 66.664L57.2248 55.1751C57.1272 54.5762 56.6821 53.7162 56.0804 53.7327Z" fill="#FF336D"/>
<path opacity="0.2" d="M42.7041 56.6201L54.6683 55.8838" stroke="black" stroke-width="2" stroke-linecap="round" stroke-linejoin="round"/>
<path opacity="0.2" d="M41.2715 56.9297L43.4572 66.9692" stroke="black" stroke-width="2" stroke-linecap="round" stroke-linejoin="round"/>
<path opacity="0.2" d="M26.6982 65.9932L28.2396 73.7151C28.2396 73.7151 29.4211 70.6516 26.6982 65.9932Z" fill="#FAFAFA"/>
<path opacity="0.2" d="M26.9004 66.084C26.954 66.2214 40.5914 60.3691 40.5914 60.3691C40.6284 61.696 40.2966 63.007 39.6331 64.1566C38.9695 65.3062 38.0002 66.2492 36.8328 66.8808C32.7279 69.1819 26.9004 66.084 26.9004 66.084Z" fill="#FAFAFA"/>
<path d="M35.9589 66.3123C36.2851 66.3123 36.5496 66.0478 36.5496 65.7216C36.5496 65.3953 36.2851 65.1309 35.9589 65.1309C35.6326 65.1309 35.3682 65.3953 35.3682 65.7216C35.3682 66.0478 35.6326 66.3123 35.9589 66.3123Z" fill="#FF336D"/>
<path opacity="0.2" d="M40.5986 60.3691C40.5986 60.3691 42.2897 62.9147 41.8804 67.2504Z" fill="black"/>
<g opacity="0.2">
<path opacity="0.2" d="M26.0459 62.96L26.3605 62.8213" stroke="#FAFAFA" stroke-linecap="round" stroke-linejoin="round"/>
<path opacity="0.2" d="M27.0127 62.533L39.7476 56.9033" stroke="#FAFAFA" stroke-linecap="round" stroke-linejoin="round" stroke-dasharray="5.2 5.2"/>
<path opacity="0.2" d="M40.0752 56.7589L40.3884 56.6201" stroke="#FAFAFA" stroke-linecap="round" stroke-linejoin="round"/>
</g>
<path opacity="0.2" d="M43.1055 58.8774L55.0697 58.1396" stroke="black" stroke-width="2" stroke-linecap="round" stroke-linejoin="round"/>
<path opacity="0.2" d="M43.6436 61.6918L55.6077 60.9541" stroke="black" stroke-width="2" stroke-linecap="round" stroke-linejoin="round"/>
</svg>
