<svg width="344" height="344" viewBox="0 0 344 344" fill="none" xmlns="http://www.w3.org/2000/svg">
<path d="M172 293.852C245.673 293.852 305.396 290.365 305.396 286.064C305.396 281.762 245.673 278.275 172 278.275C98.3271 278.275 38.6035 281.762 38.6035 286.064C38.6035 290.365 98.3271 293.852 172 293.852Z" fill="#F5F5F5"/>
<path opacity="0.1" d="M135.536 226.146C133.721 226.99 131.785 227.545 129.798 227.79L131.862 228.148C131.27 228.458 130.678 229.091 130.087 229.4C130.822 229.636 131.593 229.736 132.364 229.696C132.213 229.985 131.889 230.343 131.738 230.632L133.974 229.999C134.97 229.436 136.133 229.246 137.256 229.462C136.858 229.48 136.464 229.373 136.129 229.158C135.794 228.942 135.533 228.628 135.384 228.258C135.109 227.501 134.889 226.648 135.536 226.146Z" fill="white"/>
<path d="M149.537 267.962C153.21 270.013 157.08 271.688 161.088 272.964" stroke="#FF5C8A" stroke-linecap="round" stroke-linejoin="round"/>
<path d="M145.092 265.245C145.78 265.699 146.468 266.139 147.156 266.566" stroke="#FF5C8A" stroke-linecap="round" stroke-linejoin="round"/>
<path d="M119.368 232.365C123.901 245.084 132.223 256.108 143.214 263.951" stroke="#FF5C8A" stroke-linecap="round" stroke-linejoin="round"/>
<path d="M108.704 215.543C108.718 215.401 108.767 215.263 108.846 215.144C108.926 215.024 109.032 214.925 109.158 214.855C109.23 214.808 109.312 214.78 109.398 214.774C109.484 214.768 109.569 214.784 109.647 214.821C110.465 215.22 110.878 218.185 110.926 218.529C110.928 218.561 110.922 218.592 110.907 218.62C110.893 218.648 110.871 218.671 110.844 218.688C110.817 218.707 110.784 218.718 110.751 218.718C110.718 218.718 110.685 218.707 110.658 218.688C110.154 218.206 109.694 217.681 109.282 217.119C108.917 216.674 108.713 216.119 108.704 215.543ZM109.488 215.131C109.46 215.114 109.428 215.105 109.396 215.105C109.363 215.105 109.331 215.114 109.303 215.131C109.22 215.175 109.149 215.239 109.096 215.317C109.043 215.395 109.01 215.484 109 215.578C108.959 216.114 109.523 217.043 110.548 218.103C110.314 216.913 109.929 215.344 109.454 215.131H109.488Z" fill="#FF5C8A"/>
<path d="M110.596 218.584C110.438 217.717 110.706 215.591 111.387 215.261C111.545 215.186 111.793 215.165 112.075 215.488L112.151 215.598C112.983 216.823 110.954 218.619 110.85 218.681C110.827 218.694 110.801 218.701 110.775 218.701C110.748 218.701 110.722 218.694 110.699 218.681C110.668 218.668 110.64 218.649 110.617 218.626L110.596 218.584ZM111.814 215.695C111.635 215.475 111.504 215.55 111.504 215.55C111.098 215.75 110.816 217.277 110.857 218.233C111.332 217.738 112.419 216.555 111.869 215.77L111.814 215.695Z" fill="#FF5C8A"/>
<path d="M124.156 215.867L121.067 210.81L110.417 220.648L113.513 225.705L124.156 215.867Z" fill="#FFC3BD"/>
<path d="M110.314 217.725C108.167 217.037 105.821 216.149 102.175 212.344C101.356 211.498 99.1338 213.115 100.592 215.475C102.051 217.835 104.39 221.261 105.408 222.974C107.122 225.726 107.644 226.902 108.965 229.125C108.991 229.175 109.023 229.221 109.062 229.262C109.147 229.366 109.252 229.451 109.371 229.513C109.49 229.576 109.62 229.614 109.753 229.627C109.887 229.639 110.022 229.624 110.15 229.584C110.278 229.544 110.397 229.479 110.5 229.393L114.985 225.465C115.081 225.381 115.145 225.266 115.164 225.14C115.182 225.013 115.156 224.885 115.089 224.777L111.201 218.447C110.993 218.115 110.681 217.861 110.314 217.725Z" fill="#263238"/>
<path opacity="0.2" d="M124.156 215.881L118.659 220.951L115.15 216.28L121.067 210.817L124.156 215.881Z" fill="black"/>
<path d="M215.571 180.793C195.006 200.676 169.853 179.506 153.933 192.283C139.327 203.999 120.4 220.436 120.4 220.436L115.24 213.335C115.24 213.335 132.24 195.055 146.337 182.272C159.905 169.978 204.233 166.771 204.233 166.771C204.233 166.771 211.443 175.488 215.571 180.793Z" fill="#FF5C8A"/>
<path opacity="0.3" d="M215.406 180.779C210.905 185.271 205.108 188.237 198.832 189.262C192.09 190.383 185.258 189.482 178.715 188.698C169.42 187.576 160.731 186.703 153.802 192.262C139.189 203.958 120.262 220.414 120.262 220.414L115.109 213.314C115.109 213.314 132.11 195.034 146.207 182.251C159.774 169.957 204.095 166.75 204.095 166.75C204.095 166.75 211.285 175.474 215.406 180.779Z" fill="white"/>
<path opacity="0.2" d="M200.091 187.487C199.883 188.211 199.428 188.839 198.805 189.262C192.062 190.383 185.23 189.482 178.688 188.698C190.163 186.531 200.483 183.937 200.483 183.937C200.483 183.937 201.818 181.178 200.091 187.487Z" fill="black"/>
<path d="M174.662 275.888C174.584 275.785 174.53 275.664 174.505 275.537C174.48 275.409 174.484 275.278 174.518 275.152C174.537 275.077 174.575 275.008 174.628 274.952C174.681 274.895 174.747 274.853 174.82 274.829C175.584 274.553 177.765 276.205 178.006 276.418C178.03 276.436 178.048 276.461 178.056 276.489C178.065 276.518 178.064 276.548 178.054 276.576C178.044 276.604 178.027 276.627 178.004 276.644C177.98 276.662 177.952 276.671 177.923 276.673C177.283 276.686 176.642 276.638 176.011 276.528C175.503 276.468 175.03 276.243 174.662 275.888ZM177.483 276.397C176.582 275.709 175.316 274.966 174.882 275.097C174.854 275.107 174.829 275.124 174.809 275.147C174.79 275.17 174.777 275.198 174.772 275.228C174.746 275.31 174.74 275.398 174.755 275.483C174.771 275.569 174.808 275.649 174.862 275.716C175.171 276.108 176.128 276.349 177.483 276.404V276.397Z" fill="#FF5C8A"/>
<path d="M177.834 276.707C177.146 276.246 175.977 274.677 176.211 274.038C176.266 273.886 176.41 273.714 176.809 273.749H176.919C178.247 274.003 178.061 276.501 178.061 276.59C178.06 276.614 178.053 276.638 178.039 276.659C178.026 276.679 178.008 276.696 177.986 276.707H177.834ZM176.816 274.01C176.561 274.01 176.513 274.106 176.513 274.106C176.348 274.498 177.16 275.696 177.8 276.274C177.8 275.654 177.731 274.21 176.878 274.017L176.816 274.01Z" fill="#FF5C8A"/>
<path d="M184.405 265.458L178.343 264.295L178.185 278.159L184.239 279.321L184.405 265.458Z" fill="#FFC3BD"/>
<path d="M177.105 276.294C175.213 277.071 172.117 277.25 167.342 276.713C166.276 276.597 165.677 279.032 168.078 279.844C170.479 280.656 175.901 283.139 177.634 283.724C180.462 284.681 181.494 285.176 183.723 285.967L183.861 286.001C183.982 286.024 184.106 286.023 184.227 285.998C184.348 285.972 184.462 285.923 184.564 285.854C184.665 285.784 184.752 285.695 184.819 285.592C184.886 285.488 184.932 285.373 184.955 285.252L184.907 278.97C184.925 278.853 184.902 278.733 184.84 278.632C184.778 278.531 184.682 278.456 184.569 278.42L178.15 276.259C177.808 276.15 177.439 276.162 177.105 276.294Z" fill="#263238"/>
<path opacity="0.2" d="M184.411 265.458L184.322 273.26L178.254 272.008L178.35 264.295L184.411 265.458Z" fill="black"/>
<path d="M185.436 270.996L177.18 268.753C177.18 268.753 174.8 243.091 177.545 223.345C178.233 218.13 181.377 211.402 185.381 204.542C189.698 197.32 194.418 190.346 199.52 183.655C204.666 176.823 208.677 172.083 208.677 172.083C208.677 172.083 215.302 173.603 221.543 175.412C223.73 204.377 194.236 204.866 190.349 225.712C186.764 244.832 185.436 270.996 185.436 270.996Z" fill="#FF5C8A"/>
<path opacity="0.3" d="M185.436 270.996L177.18 268.753C177.18 268.753 174.8 243.091 177.545 223.345C178.233 218.13 181.377 211.402 185.381 204.542C189.698 197.32 194.418 190.346 199.52 183.655C204.666 176.823 208.677 172.083 208.677 172.083C208.677 172.083 214.126 173.335 219.802 174.917C220.319 175.063 220.777 175.369 221.108 175.792C221.44 176.215 221.628 176.733 221.646 177.27C222.458 204.412 194.126 205.32 190.349 225.712C186.764 244.832 185.436 270.996 185.436 270.996Z" fill="white"/>
<path d="M176.279 264.839L186.386 267.453L186.104 271.478L176.155 269.036L176.279 264.839Z" fill="#FF5C8A"/>
<path d="M244.192 140.394L234.746 142.808L234.443 135.928C234.919 136.053 235.417 136.071 235.902 135.981C236.386 135.89 236.844 135.694 237.243 135.406L237.842 134.848C238.984 133.548 239.651 131.374 240.8 129.42L243.043 129.275L243.862 129.227L248.223 128.959C246.173 131.842 242.947 137.298 244.192 140.394Z" fill="#FFC2BC"/>
<path opacity="0.2" d="M245.375 131.168C244.911 132.285 244.364 133.366 243.738 134.401C242.596 135.777 239.218 135.963 237.202 135.475L237.243 135.426L237.842 134.869C238.984 133.569 239.651 131.395 240.8 129.441L243.043 129.296L245.375 131.168Z" fill="black"/>
<path d="M239.974 133.617C238.757 132.419 240.766 132.075 242.905 126.049C243.112 125.477 244.914 124.115 244.852 123.517C244.832 123.214 244.733 122.921 244.567 122.667C244.401 122.413 244.172 122.206 243.903 122.065C243.346 121.824 242.279 121.982 242.066 122.553C242.905 111.346 248.946 112.233 253.019 111.883C255.571 111.669 259.472 112.392 263.043 108.986C263.683 111.257 261.86 114.27 257.326 114.889C264.405 114.827 268.843 105.746 269.256 103.228C270.632 106.468 271.161 112.392 266.504 117.717C267.735 116.747 269.497 116.478 270.955 111.002C271.643 121.728 270.467 125.636 265.83 129.963C263.077 132.523 257.381 133.059 257.67 133.259C257.67 133.259 265.293 131.064 267.66 132.509C264.832 133.149 257.911 135.453 254.904 136.141C247.164 137.903 240.862 134.49 239.974 133.617Z" fill="#263238"/>
<path d="M239.974 133.617C238.757 132.419 240.766 132.075 242.905 126.049C243.112 125.477 244.914 124.115 244.852 123.517C244.832 123.214 244.733 122.921 244.567 122.667C244.401 122.413 244.172 122.206 243.903 122.065C243.346 121.824 242.279 121.982 242.066 122.553C242.905 111.346 248.946 112.233 253.019 111.883C255.571 111.669 259.472 112.392 263.043 108.986C263.683 111.257 261.86 114.27 257.326 114.889C264.405 114.827 268.843 105.746 269.256 103.228C270.632 106.468 271.161 112.392 266.504 117.717C267.735 116.747 269.497 116.478 270.955 111.002C271.643 121.728 270.467 125.636 265.83 129.963C263.077 132.523 257.381 133.059 257.67 133.259C257.67 133.259 265.293 131.064 267.66 132.509C264.832 133.149 257.911 135.453 254.904 136.141C247.164 137.903 240.862 134.49 239.974 133.617Z" fill="#263238"/>
<path d="M254.945 127.28C251.877 132.165 250.687 134.291 246.724 135.488C240.759 137.29 235.441 132.461 236.982 126.771C238.358 121.638 243.174 114.524 249.194 115.212C250.523 115.361 251.793 115.847 252.883 116.623C253.973 117.399 254.847 118.44 255.423 119.648C255.999 120.856 256.257 122.19 256.173 123.526C256.09 124.861 255.667 126.153 254.945 127.28Z" fill="#FFC2BC"/>
<path d="M243.792 116.417C245.327 115.859 247.232 114.993 247.515 117.518C248.739 116.83 250.755 117.903 251.815 118.832C252.327 119.318 252.73 119.907 252.998 120.561C253.266 121.214 253.393 121.917 253.369 122.622C253.369 123.998 250.487 128.457 250.507 130.878C250.817 130.913 252.571 130.624 252.413 132.089C254.209 130.163 256.039 128.106 257.126 125.718C258.213 123.331 258.461 120.386 257.091 118.15C256.31 116.955 255.238 115.977 253.975 115.309C252.407 114.366 250.603 113.888 248.774 113.933C247.815 113.972 246.876 114.214 246.017 114.642C245.159 115.07 244.4 115.675 243.792 116.417Z" fill="#263238"/>
<path opacity="0.2" d="M250.218 117.414C251.98 118.006 250.507 113.685 248.154 115.722C247.786 116.25 247.567 116.868 247.521 117.51L250.218 117.414Z" fill="black"/>
<path d="M260.752 125.216C259.114 127.28 255.798 127.618 253.548 126.207C251.299 124.797 250.108 122.017 250.225 119.362C250.274 118.771 250.274 118.177 250.225 117.587C250.202 117.29 250.116 117.001 249.971 116.741C249.826 116.481 249.626 116.256 249.386 116.08C249.139 115.916 248.839 115.851 248.547 115.9C248.254 115.948 247.991 116.106 247.811 116.341C248.017 115.467 248.939 115.165 249.833 115.13H249.895C251.257 115.13 252.572 115.628 253.592 116.531C254.612 117.433 255.267 118.677 255.434 120.029C255.604 121.094 256.034 122.101 256.686 122.96C257.732 124.274 259.08 125.32 260.752 125.216Z" fill="#263238"/>
<path opacity="0.1" d="M260.752 125.216C259.114 127.28 255.798 127.618 253.548 126.207C251.299 124.797 250.108 122.017 250.225 119.362C250.274 118.771 250.274 118.177 250.225 117.587C250.202 117.29 250.116 117.001 249.971 116.741C249.826 116.481 249.626 116.256 249.386 116.08C249.139 115.916 248.839 115.851 248.547 115.9C248.254 115.948 247.991 116.106 247.811 116.341C248.017 115.467 248.939 115.165 249.833 115.13H249.895C251.257 115.13 252.572 115.628 253.592 116.531C254.612 117.433 255.267 118.677 255.434 120.029C255.604 121.094 256.034 122.101 256.686 122.96C257.732 124.274 259.08 125.32 260.752 125.216Z" fill="white"/>
<path d="M254.119 133.121C253.65 133.413 253.128 133.61 252.582 133.7C252.037 133.789 251.479 133.77 250.941 133.644C249.51 133.293 249.51 131.841 250.507 130.892C251.505 129.943 253.259 129.151 254.395 129.991C254.788 130.301 255.043 130.754 255.103 131.252C255.164 131.749 255.025 132.251 254.718 132.646C254.554 132.845 254.35 133.007 254.119 133.121Z" fill="#FFC2BC"/>
<path d="M246.517 124.528C246.29 124.941 245.891 125.147 245.63 125.01C245.368 124.872 245.32 124.411 245.547 123.998C245.774 123.586 246.166 123.386 246.435 123.524C246.703 123.661 246.737 124.129 246.517 124.528Z" fill="#263238"/>
<path d="M241.564 129.097C241.344 129.502 240.945 129.709 240.676 129.571C240.408 129.434 240.367 128.973 240.594 128.567C240.821 128.161 241.213 127.948 241.481 128.085C241.749 128.223 241.791 128.656 241.564 129.097Z" fill="#263238"/>
<path d="M241.873 122.003C241.646 122.409 241.254 122.616 240.979 122.478C240.704 122.34 240.669 121.879 240.903 121.467C241.137 121.054 241.523 120.854 241.791 120.992C242.059 121.13 242.121 121.591 241.873 122.003Z" fill="#263238"/>
<path d="M241.901 121.088L241.062 120.29C241.062 120.29 241.158 121.274 241.901 121.088Z" fill="#263238"/>
<path d="M242.712 123.379C241.835 124.116 240.86 124.73 239.816 125.202C239.945 125.464 240.129 125.695 240.356 125.879C240.583 126.063 240.847 126.196 241.13 126.269L242.712 123.379Z" fill="#EC837E"/>
<path d="M248.898 122.01C248.867 121.999 248.841 121.979 248.82 121.954C248.799 121.928 248.786 121.898 248.781 121.866C248.742 121.565 248.631 121.277 248.459 121.027C248.287 120.777 248.058 120.572 247.79 120.428C247.743 120.404 247.706 120.363 247.687 120.314C247.667 120.264 247.668 120.209 247.687 120.16C247.693 120.135 247.703 120.113 247.718 120.093C247.732 120.073 247.75 120.056 247.772 120.043C247.793 120.03 247.816 120.022 247.841 120.018C247.865 120.014 247.89 120.016 247.914 120.022C248.24 120.191 248.52 120.437 248.731 120.737C248.941 121.038 249.077 121.385 249.125 121.749C249.137 121.801 249.129 121.855 249.104 121.902C249.078 121.949 249.037 121.985 248.987 122.003C248.974 122.01 248.959 122.015 248.943 122.016C248.928 122.017 248.912 122.015 248.898 122.01Z" fill="#263238"/>
<path d="M242.1 117.868C242.061 117.865 242.022 117.871 241.986 117.886C241.949 117.902 241.918 117.927 241.894 117.958C241.875 117.981 241.862 118.008 241.854 118.037C241.847 118.066 241.845 118.097 241.85 118.126C241.854 118.156 241.865 118.184 241.881 118.21C241.896 118.235 241.917 118.257 241.942 118.274C242.281 118.536 242.678 118.713 243.099 118.789C243.521 118.866 243.954 118.84 244.364 118.714C244.419 118.697 244.466 118.658 244.493 118.607C244.52 118.555 244.525 118.495 244.508 118.439C244.485 118.384 244.442 118.339 244.387 118.314C244.331 118.29 244.269 118.288 244.212 118.309C243.874 118.408 243.516 118.426 243.169 118.36C242.822 118.294 242.496 118.147 242.217 117.93C242.186 117.897 242.145 117.875 242.1 117.868Z" fill="#263238"/>
<path d="M246.538 123.613L245.705 122.815C245.705 122.815 245.795 123.84 246.538 123.613Z" fill="#263238"/>
<path d="M231.168 133.899L230.287 132.936L229.365 131.862C228.746 131.174 228.161 130.397 227.584 129.654C226.448 128.152 225.41 126.581 224.474 124.948C223.58 123.355 222.818 121.691 222.196 119.974C221.611 118.324 221.228 116.61 221.054 114.869L220.621 116.726C221.511 115.199 222.483 113.72 223.531 112.296C224.632 110.761 225.747 109.227 226.889 107.707L230.329 103.131C231.457 101.604 232.62 100.09 233.734 98.508C233.88 98.3076 233.984 98.0801 234.041 97.8388C234.097 97.5976 234.105 97.3474 234.063 97.1032C234.021 96.8589 233.931 96.6255 233.798 96.4166C233.665 96.2077 233.491 96.0275 233.287 95.8868C232.936 95.6359 232.512 95.5104 232.081 95.5304C231.651 95.5504 231.239 95.7147 230.913 95.9968C229.434 97.2834 228.031 98.6112 226.607 99.9391C225.182 101.267 223.855 102.691 222.479 104.067C221.103 105.443 219.795 106.895 218.495 108.381C217.105 109.92 215.825 111.555 214.663 113.273C214.347 113.75 214.182 114.31 214.188 114.882V115.109C214.233 117.471 214.598 119.816 215.275 122.079C215.916 124.277 216.783 126.403 217.862 128.422C218.902 130.412 220.093 132.319 221.426 134.126C222.114 135.027 222.802 135.894 223.538 136.754C223.903 137.181 224.226 137.6 224.653 138.02C225.079 138.44 225.382 138.797 225.912 139.3C226.627 140.016 227.595 140.423 228.608 140.433C229.62 140.443 230.596 140.056 231.326 139.355C231.681 139.007 231.963 138.593 232.156 138.135C232.349 137.677 232.448 137.185 232.448 136.689C232.448 136.192 232.349 135.7 232.156 135.242C231.963 134.785 231.681 134.37 231.326 134.023L231.168 133.899Z" fill="#FF5C8A"/>
<path opacity="0.2" d="M231.168 133.899L230.287 132.936L229.365 131.862C228.746 131.174 228.161 130.397 227.584 129.654C226.448 128.152 225.41 126.581 224.474 124.948C223.58 123.355 222.818 121.691 222.196 119.974C221.611 118.324 221.228 116.61 221.054 114.869L220.621 116.726C221.511 115.199 222.483 113.72 223.531 112.296C224.632 110.761 225.747 109.227 226.889 107.707L230.329 103.131C231.457 101.604 232.62 100.09 233.734 98.508C233.88 98.3076 233.984 98.0801 234.041 97.8388C234.097 97.5976 234.105 97.3474 234.063 97.1032C234.021 96.8589 233.931 96.6255 233.798 96.4166C233.665 96.2077 233.491 96.0275 233.287 95.8868C232.936 95.6359 232.512 95.5104 232.081 95.5304C231.651 95.5504 231.239 95.7147 230.913 95.9968C229.434 97.2834 228.031 98.6112 226.607 99.9391C225.182 101.267 223.855 102.691 222.479 104.067C221.103 105.443 219.795 106.895 218.495 108.381C217.105 109.92 215.825 111.555 214.663 113.273C214.347 113.75 214.182 114.31 214.188 114.882V115.109C214.233 117.471 214.598 119.816 215.275 122.079C215.916 124.277 216.783 126.403 217.862 128.422C218.902 130.412 220.093 132.319 221.426 134.126C222.114 135.027 222.802 135.894 223.538 136.754C223.903 137.181 224.226 137.6 224.653 138.02C225.079 138.44 225.382 138.797 225.912 139.3C226.627 140.016 227.595 140.423 228.608 140.433C229.62 140.443 230.596 140.056 231.326 139.355C231.681 139.007 231.963 138.593 232.156 138.135C232.349 137.677 232.448 137.185 232.448 136.689C232.448 136.192 232.349 135.7 232.156 135.242C231.963 134.785 231.681 134.37 231.326 134.023L231.168 133.899Z" fill="black"/>
<path d="M231.471 101.136L236.583 99.8978L233.831 93.3618C233.831 93.3618 229.861 94.4901 228.946 98.2604L231.471 101.136Z" fill="#FFC3BD"/>
<path d="M239.08 94.6965L237.958 93.2654C237.635 92.8549 237.178 92.5705 236.666 92.4612C236.155 92.3519 235.622 92.4246 235.158 92.6669L233.851 93.3549L236.603 99.8909L238.977 97.5723C239.347 97.1909 239.562 96.6856 239.582 96.1543C239.601 95.623 239.422 95.1035 239.08 94.6965Z" fill="#FFC3BD"/>
<path d="M213.019 146.097C214.113 142.925 216.493 140.71 218.874 138.907C219.899 138.13 220.649 137.208 221.467 136.616C229.723 130.672 236.755 136.093 243.483 141.143C250.363 146.324 254.388 147.019 241.419 157.256C230.115 166.2 221.983 180.084 221.983 180.084L200.119 167.06C200.119 167.06 209.297 156.795 213.019 146.097Z" fill="#FF5C8A"/>
<path d="M244.013 139.664C244.928 143.104 239.706 142.891 236.328 142.416C234.595 142.238 232.937 141.616 231.514 140.611C230.091 139.606 228.951 138.252 228.203 136.678C226.593 133.369 227.645 126.111 229.51 122.918C229.434 125.154 227.728 130.624 231.319 134.002C232.943 135.53 233.383 134.773 235.551 135.378" stroke="#263238" stroke-width="0.75" stroke-miterlimit="10"/>
<path d="M244.536 141.412L245.01 140.779C245.231 140.042 244.529 139.189 243.889 138.77C241.412 137.146 236.362 133.747 234.897 133.892C234.6 133.923 234.305 133.976 234.016 134.05C233.757 134.122 233.526 134.269 233.349 134.472C233.173 134.675 233.06 134.925 233.024 135.191C232.988 135.458 233.031 135.729 233.147 135.971C233.264 136.213 233.449 136.416 233.679 136.554L242.761 141.776C243.05 141.941 243.39 141.994 243.717 141.927C244.043 141.86 244.334 141.677 244.536 141.412Z" fill="#FF5C8A"/>
<g opacity="0.2">
<path opacity="0.2" d="M244.536 141.412L245.01 140.779C245.231 140.042 244.529 139.189 243.889 138.77C241.412 137.146 236.362 133.747 234.897 133.892C234.6 133.923 234.305 133.976 234.016 134.05C233.757 134.122 233.526 134.269 233.349 134.472C233.173 134.675 233.06 134.925 233.024 135.191C232.988 135.458 233.031 135.729 233.147 135.971C233.264 136.213 233.449 136.416 233.679 136.554L242.761 141.776C243.05 141.941 243.39 141.994 243.717 141.927C244.043 141.86 244.334 141.677 244.536 141.412Z" fill="white"/>
</g>
<path d="M242.795 149.984C244.095 151.525 255.179 161.68 258.261 163.971L258.461 164.116H258.55C259.648 164.756 260.87 165.155 262.135 165.285C265.01 165.705 279.699 163.29 281.227 162.533C281.655 162.336 281.995 161.987 282.182 161.554C282.369 161.121 282.389 160.634 282.239 160.187C282.089 159.74 281.779 159.364 281.369 159.132C280.958 158.9 280.476 158.827 280.016 158.928H279.954C278.454 159.203 264.894 159.41 263.249 158.715C262.916 158.657 262.6 158.523 262.327 158.323L262.609 158.522C259.892 156.114 249.799 146.193 248.602 144.934L248.554 144.879C248.218 144.495 247.81 144.181 247.352 143.955C246.895 143.73 246.397 143.597 245.888 143.565C245.379 143.533 244.869 143.602 244.387 143.768C243.904 143.935 243.46 144.195 243.079 144.534C242.698 144.873 242.388 145.284 242.167 145.744C241.946 146.204 241.818 146.703 241.791 147.212C241.764 147.722 241.838 148.231 242.009 148.712C242.18 149.192 242.445 149.634 242.788 150.012L242.795 149.984Z" fill="#FF5C8A"/>
<path d="M278.929 158.55L282.197 155.041L285.149 161.171C284.644 161.822 283.988 162.34 283.237 162.678C282.486 163.017 281.664 163.165 280.842 163.111C280.483 163.095 280.135 162.979 279.838 162.776C279.542 162.573 279.308 162.291 279.163 161.962L278.578 160.662C278.423 160.314 278.374 159.929 278.436 159.553C278.498 159.178 278.67 158.829 278.929 158.55Z" fill="#FFC3BD"/>
<path d="M287.281 155.165L288.1 157.009C288.317 157.486 288.357 158.025 288.214 158.529C288.07 159.033 287.752 159.47 287.315 159.761L285.148 161.199L282.197 155.069L284.364 154.092C284.894 153.85 285.497 153.827 286.043 154.028C286.59 154.229 287.034 154.638 287.281 155.165Z" fill="#FFC3BD"/>
<path d="M231.56 120.435C231.182 121.811 230.301 122.753 229.606 122.561C228.911 122.368 228.65 121.095 229.035 119.726C229.42 118.357 230.301 117.408 230.996 117.607C231.691 117.807 231.945 119.072 231.56 120.435Z" fill="#263238"/>
<path opacity="0.8" d="M231.56 120.435C231.182 121.811 230.301 122.753 229.606 122.561C228.911 122.368 228.65 121.095 229.035 119.726C229.42 118.357 230.301 117.408 230.996 117.607C231.691 117.807 231.945 119.072 231.56 120.435Z" fill="white"/>
<path d="M229.895 119.251L229.599 120.311L230.053 121.109L230.727 118.708L229.895 119.251Z" fill="#FF5C8A"/>
<path d="M231.147 119.602L230.851 120.661L230.053 121.109L230.727 118.708L231.147 119.602Z" fill="#FF5C8A"/>
<path d="M222.265 180.126L201.742 165.43C201.536 165.292 201.288 165.258 201.185 165.368L199.809 166.937C199.719 167.033 199.809 167.184 199.967 167.336L221.226 182.541C221.46 182.699 221.756 182.699 221.811 182.541L222.499 180.477C222.501 180.401 222.48 180.327 222.438 180.264C222.396 180.201 222.336 180.153 222.265 180.126Z" fill="#263238"/>
<path d="M117.208 209.709L123.406 219.864L120.868 221.323L114.235 212.475L117.208 209.709Z" fill="#FF5C8A"/>
<g clip-path="url(#clip0_3807_54520)">
<path d="M163.836 120.993C189.689 120.993 210.647 100.281 210.647 74.7308C210.647 49.181 189.689 28.4688 163.836 28.4688C137.983 28.4688 117.025 49.181 117.025 74.7308C117.025 100.281 137.983 120.993 163.836 120.993Z" fill="#EE6D66"/>
<g clip-path="url(#clip1_3807_54520)">
<path d="M167.945 76.0261L176.705 67.2663C177.121 66.8513 177.355 66.2881 177.355 65.7007C177.356 65.1133 177.123 64.5497 176.708 64.134C176.293 63.7183 175.73 63.4844 175.142 63.4839C174.555 63.4834 173.991 63.7162 173.575 64.1312L164.816 72.891L156.056 64.1312C155.64 63.7155 155.076 63.4819 154.488 63.4819C153.9 63.4819 153.337 63.7155 152.921 64.1312C152.505 64.547 152.271 65.1108 152.271 65.6988C152.271 66.2867 152.505 66.8506 152.921 67.2663L161.681 76.0261L152.921 84.7858C152.505 85.2016 152.271 85.7654 152.271 86.3534C152.271 86.9413 152.505 87.5052 152.921 87.9209C153.337 88.3366 153.9 88.5702 154.488 88.5702C155.076 88.5702 155.64 88.3366 156.056 87.9209L164.816 79.1611L173.575 87.9209C173.991 88.3366 174.555 88.5702 175.143 88.5702C175.731 88.5702 176.295 88.3366 176.71 87.9209C177.126 87.5052 177.36 86.9413 177.36 86.3534C177.36 85.7654 177.126 85.2016 176.71 84.7858L167.945 76.0261Z" fill="white"/>
</g>
</g>
<defs>
<clipPath id="clip0_3807_54520">
<rect width="105.572" height="92.5241" fill="white" transform="translate(111.503 28.4688)"/>
</clipPath>
<clipPath id="clip1_3807_54520">
<rect width="46" height="46" fill="white" transform="translate(140 50)"/>
</clipPath>
</defs>
</svg>
