<svg width="345" height="345" viewBox="0 0 345 345" fill="none" xmlns="http://www.w3.org/2000/svg">
<path d="M172.982 294.361C246.655 294.361 306.379 290.875 306.379 286.573C306.379 282.272 246.655 278.785 172.982 278.785C99.3095 278.785 39.5859 282.272 39.5859 286.573C39.5859 290.875 99.3095 294.361 172.982 294.361Z" fill="#F5F5F5"/>
<path opacity="0.1" d="M136.519 226.656C134.704 227.5 132.768 228.055 130.781 228.301L132.845 228.658C132.254 228.968 131.662 229.601 131.07 229.91C131.805 230.146 132.577 230.246 133.347 230.206C133.196 230.495 132.873 230.853 132.721 231.142L134.957 230.509C135.953 229.946 137.116 229.756 138.239 229.972C137.841 229.99 137.447 229.884 137.112 229.668C136.777 229.452 136.517 229.138 136.368 228.768C136.093 228.012 135.872 227.158 136.519 226.656Z" fill="white"/>
<path d="M150.52 268.473C154.193 270.523 158.063 272.199 162.071 273.474" stroke="#FF5C8A" stroke-linecap="round" stroke-linejoin="round"/>
<path d="M146.075 265.754C146.763 266.208 147.451 266.648 148.139 267.075" stroke="#FF5C8A" stroke-linecap="round" stroke-linejoin="round"/>
<path d="M120.351 232.875C124.884 245.594 133.206 256.617 144.197 264.461" stroke="#FF5C8A" stroke-linecap="round" stroke-linejoin="round"/>
<path d="M109.687 216.052C109.701 215.909 109.75 215.772 109.829 215.652C109.908 215.533 110.015 215.434 110.141 215.364C110.212 215.317 110.295 215.289 110.38 215.282C110.466 215.276 110.552 215.293 110.629 215.33C111.448 215.729 111.861 218.694 111.909 219.038C111.911 219.07 111.904 219.101 111.89 219.129C111.875 219.157 111.853 219.18 111.826 219.196C111.799 219.216 111.767 219.227 111.733 219.227C111.7 219.227 111.667 219.216 111.64 219.196C111.136 218.715 110.676 218.19 110.264 217.628C109.899 217.183 109.696 216.628 109.687 216.052V216.052ZM110.471 215.639C110.443 215.622 110.411 215.613 110.378 215.613C110.345 215.613 110.313 215.622 110.285 215.639C110.202 215.684 110.131 215.748 110.078 215.826C110.026 215.903 109.993 215.993 109.982 216.087C109.941 216.623 110.505 217.552 111.53 218.612C111.296 217.421 110.911 215.853 110.436 215.639H110.471Z" fill="#FF5C8A"/>
<path d="M111.579 219.096C111.421 218.23 111.689 216.104 112.37 215.773C112.529 215.698 112.776 215.677 113.058 216L113.134 216.111C113.967 217.335 111.937 219.131 111.834 219.193C111.811 219.206 111.785 219.213 111.758 219.213C111.732 219.213 111.705 219.206 111.682 219.193C111.652 219.18 111.623 219.161 111.6 219.138L111.579 219.096ZM112.797 216.207C112.618 215.987 112.487 216.062 112.487 216.062C112.082 216.262 111.799 217.789 111.841 218.746C112.315 218.25 113.402 217.067 112.852 216.283L112.797 216.207Z" fill="#FF5C8A"/>
<path d="M125.14 216.377L122.051 211.32L111.4 221.159L114.496 226.216L125.14 216.377Z" fill="#FFC3BD"/>
<path d="M111.297 218.237C109.15 217.549 106.804 216.661 103.158 212.857C102.339 212.01 100.117 213.627 101.575 215.987C103.034 218.347 105.373 221.773 106.391 223.486C108.104 226.238 108.627 227.415 109.948 229.637C109.974 229.687 110.006 229.733 110.045 229.775C110.13 229.878 110.235 229.963 110.354 230.026C110.473 230.088 110.603 230.127 110.736 230.139C110.87 230.151 111.005 230.137 111.133 230.096C111.261 230.056 111.38 229.991 111.482 229.905L115.968 225.977C116.064 225.893 116.128 225.778 116.146 225.652C116.165 225.526 116.139 225.397 116.071 225.289L112.184 218.959C111.976 218.627 111.664 218.373 111.297 218.237V218.237Z" fill="#263238"/>
<path opacity="0.2" d="M125.14 216.392L119.643 221.462L116.134 216.791L122.051 211.328L125.14 216.392Z" fill="black"/>
<path d="M216.554 181.303C195.989 201.186 170.836 180.016 154.916 192.792C140.31 204.509 121.383 220.945 121.383 220.945L116.223 213.845C116.223 213.845 133.223 195.565 147.32 182.782C160.888 170.487 205.215 167.281 205.215 167.281C205.215 167.281 212.426 175.998 216.554 181.303Z" fill="#FF5C8A"/>
<path opacity="0.3" d="M216.388 181.29C211.887 185.782 206.09 188.749 199.815 189.773C193.072 190.895 186.24 189.993 179.697 189.209C170.403 188.087 161.713 187.214 154.785 192.773C140.172 204.469 121.245 220.926 121.245 220.926L116.092 213.826C116.092 213.826 133.092 195.545 147.189 182.762C160.757 170.468 205.078 167.262 205.078 167.262C205.078 167.262 212.267 175.986 216.388 181.29Z" fill="white"/>
<path opacity="0.2" d="M201.074 187.998C200.866 188.722 200.41 189.35 199.787 189.773C193.045 190.895 186.213 189.993 179.67 189.209C191.146 187.042 201.466 184.448 201.466 184.448C201.466 184.448 202.8 181.689 201.074 187.998Z" fill="black"/>
<path d="M175.645 276.399C175.567 276.295 175.513 276.175 175.488 276.048C175.463 275.92 175.467 275.788 175.501 275.663C175.52 275.588 175.558 275.519 175.611 275.462C175.664 275.406 175.73 275.364 175.803 275.339C176.567 275.064 178.748 276.715 178.989 276.929C179.013 276.946 179.031 276.971 179.039 277C179.048 277.028 179.047 277.059 179.037 277.087C179.027 277.114 179.01 277.138 178.986 277.155C178.963 277.172 178.935 277.182 178.906 277.183C178.266 277.197 177.625 277.149 176.994 277.039C176.486 276.978 176.013 276.754 175.645 276.399V276.399ZM178.466 276.908C177.565 276.22 176.299 275.477 175.865 275.608C175.837 275.617 175.811 275.635 175.792 275.658C175.773 275.681 175.76 275.709 175.755 275.738C175.728 275.821 175.723 275.909 175.738 275.994C175.754 276.079 175.79 276.159 175.845 276.227C176.154 276.619 177.111 276.86 178.466 276.915V276.908Z" fill="#FF5C8A"/>
<path d="M178.817 277.217C178.129 276.756 176.96 275.187 177.194 274.547C177.249 274.396 177.393 274.224 177.792 274.258H177.902C179.23 274.513 179.044 277.01 179.044 277.1C179.043 277.124 179.036 277.148 179.022 277.169C179.009 277.189 178.99 277.206 178.969 277.217H178.817ZM177.799 274.52C177.544 274.52 177.496 274.616 177.496 274.616C177.331 275.008 178.143 276.205 178.783 276.783C178.783 276.164 178.714 274.719 177.861 274.527L177.799 274.52Z" fill="#FF5C8A"/>
<path d="M185.387 265.967L179.326 264.805L179.168 278.668L185.222 279.831L185.387 265.967Z" fill="#FFC3BD"/>
<path d="M178.088 276.804C176.196 277.581 173.1 277.76 168.325 277.223C167.259 277.106 166.66 279.542 169.061 280.354C171.463 281.165 176.884 283.649 178.618 284.234C181.446 285.19 182.478 285.686 184.707 286.477L184.844 286.511C184.965 286.534 185.09 286.533 185.21 286.507C185.331 286.482 185.445 286.433 185.547 286.364C185.649 286.294 185.736 286.205 185.803 286.101C185.87 285.998 185.916 285.882 185.938 285.761L185.89 279.48C185.909 279.363 185.885 279.243 185.823 279.142C185.762 279.041 185.666 278.966 185.553 278.929L179.134 276.769C178.792 276.66 178.422 276.672 178.088 276.804V276.804Z" fill="#263238"/>
<path opacity="0.2" d="M185.394 265.967L185.304 273.769L179.236 272.517L179.333 264.805L185.394 265.967Z" fill="black"/>
<path d="M186.42 271.508L178.164 269.265C178.164 269.265 175.783 243.602 178.528 223.857C179.216 218.642 182.361 211.913 186.365 205.054C190.681 197.831 195.401 190.857 200.503 184.166C205.649 177.334 209.66 172.594 209.66 172.594C209.66 172.594 216.286 174.114 222.526 175.924C224.714 204.888 195.219 205.377 191.332 226.223C187.748 245.343 186.42 271.508 186.42 271.508Z" fill="#FF5C8A"/>
<path opacity="0.3" d="M186.42 271.508L178.164 269.265C178.164 269.265 175.783 243.602 178.528 223.857C179.216 218.642 182.361 211.913 186.365 205.054C190.681 197.831 195.401 190.857 200.503 184.166C205.649 177.334 209.66 172.594 209.66 172.594C209.66 172.594 215.109 173.846 220.785 175.428C221.303 175.574 221.76 175.881 222.092 176.304C222.423 176.727 222.611 177.244 222.629 177.781C223.441 204.923 195.109 205.831 191.332 226.223C187.748 245.343 186.42 271.508 186.42 271.508Z" fill="white"/>
<path d="M177.263 265.348L187.369 267.962L187.087 271.987L177.139 269.544L177.263 265.348Z" fill="#FF5C8A"/>
<path d="M245.175 140.903L235.729 143.318L235.426 136.438C235.902 136.563 236.4 136.581 236.884 136.491C237.369 136.4 237.827 136.204 238.226 135.915L238.824 135.358C239.967 134.058 240.634 131.884 241.783 129.93L244.026 129.785L244.844 129.737L249.206 129.469C247.156 132.351 243.929 137.807 245.175 140.903Z" fill="#FFC2BC"/>
<path opacity="0.2" d="M246.358 131.676C245.894 132.793 245.347 133.874 244.721 134.91C243.578 136.286 240.2 136.471 238.185 135.983L238.226 135.935L238.824 135.377C239.967 134.077 240.634 131.903 241.783 129.949L244.026 129.805L246.358 131.676Z" fill="black"/>
<path d="M240.957 134.127C239.739 132.93 241.748 132.586 243.888 126.559C244.094 125.988 245.897 124.626 245.835 124.027C245.814 123.724 245.716 123.432 245.549 123.178C245.383 122.924 245.155 122.716 244.885 122.576C244.328 122.335 243.262 122.493 243.048 123.064C243.888 111.857 249.928 112.744 254.001 112.393C256.554 112.18 260.455 112.902 264.026 109.497C264.665 111.767 262.842 114.781 258.308 115.4C265.388 115.338 269.825 106.256 270.238 103.738C271.614 106.979 272.144 112.902 267.486 118.228C268.718 117.257 270.479 116.989 271.938 111.513C272.626 122.239 271.449 126.146 266.812 130.474C264.06 133.033 258.363 133.57 258.652 133.769C258.652 133.769 266.275 131.575 268.642 133.02C265.814 133.659 258.893 135.964 255.886 136.652C248.146 138.413 241.844 135.001 240.957 134.127Z" fill="#263238"/>
<path d="M240.957 134.127C239.739 132.93 241.748 132.586 243.888 126.559C244.094 125.988 245.897 124.626 245.835 124.027C245.814 123.724 245.716 123.432 245.549 123.178C245.383 122.924 245.155 122.716 244.885 122.576C244.328 122.335 243.262 122.493 243.048 123.064C243.888 111.857 249.928 112.744 254.001 112.393C256.554 112.18 260.455 112.902 264.026 109.497C264.665 111.767 262.842 114.781 258.308 115.4C265.388 115.338 269.825 106.256 270.238 103.738C271.614 106.979 272.144 112.902 267.486 118.228C268.718 117.257 270.479 116.989 271.938 111.513C272.626 122.239 271.449 126.146 266.812 130.474C264.06 133.033 258.363 133.57 258.652 133.769C258.652 133.769 266.275 131.575 268.642 133.02C265.814 133.659 258.893 135.964 255.886 136.652C248.146 138.413 241.844 135.001 240.957 134.127Z" fill="#263238"/>
<path d="M255.928 127.79C252.86 132.674 251.67 134.8 247.707 135.998C241.742 137.8 236.423 132.97 237.965 127.281C239.341 122.148 244.157 115.034 250.177 115.722C251.506 115.871 252.776 116.356 253.866 117.133C254.956 117.909 255.83 118.95 256.406 120.158C256.981 121.365 257.24 122.7 257.156 124.036C257.073 125.371 256.65 126.663 255.928 127.79V127.79Z" fill="#FFC2BC"/>
<path d="M244.775 116.928C246.31 116.371 248.215 115.504 248.497 118.029C249.722 117.341 251.738 118.414 252.797 119.343C253.31 119.829 253.713 120.418 253.981 121.072C254.249 121.725 254.375 122.428 254.352 123.134C254.352 124.51 251.47 128.968 251.49 131.39C251.8 131.424 253.554 131.135 253.396 132.601C255.192 130.674 257.022 128.617 258.109 126.23C259.196 123.842 259.444 120.898 258.074 118.662C257.293 117.466 256.221 116.488 254.958 115.82C253.39 114.877 251.586 114.4 249.756 114.444C248.798 114.483 247.859 114.725 247 115.153C246.142 115.581 245.383 116.186 244.775 116.928V116.928Z" fill="#263238"/>
<path opacity="0.2" d="M251.202 117.926C252.963 118.518 251.491 114.197 249.138 116.233C248.769 116.762 248.551 117.38 248.505 118.022L251.202 117.926Z" fill="black"/>
<path d="M261.735 125.727C260.098 127.791 256.782 128.128 254.532 126.717C252.282 125.307 251.092 122.528 251.209 119.872C251.257 119.281 251.257 118.687 251.209 118.097C251.186 117.8 251.099 117.512 250.954 117.252C250.809 116.991 250.61 116.766 250.369 116.59C250.123 116.426 249.823 116.361 249.53 116.41C249.238 116.459 248.975 116.616 248.794 116.852C249 115.978 249.922 115.675 250.817 115.641H250.879C252.241 115.641 253.555 116.139 254.576 117.041C255.596 117.943 256.251 119.187 256.417 120.539C256.587 121.604 257.017 122.611 257.669 123.47C258.715 124.784 260.063 125.83 261.735 125.727Z" fill="#263238"/>
<path opacity="0.1" d="M261.735 125.727C260.098 127.791 256.782 128.128 254.532 126.717C252.282 125.307 251.092 122.528 251.209 119.872C251.257 119.281 251.257 118.687 251.209 118.097C251.186 117.8 251.099 117.512 250.954 117.252C250.809 116.991 250.61 116.766 250.369 116.59C250.123 116.426 249.823 116.361 249.53 116.41C249.238 116.459 248.975 116.616 248.794 116.852C249 115.978 249.922 115.675 250.817 115.641H250.879C252.241 115.641 253.555 116.139 254.576 117.041C255.596 117.943 256.251 119.187 256.417 120.539C256.587 121.604 257.017 122.611 257.669 123.47C258.715 124.784 260.063 125.83 261.735 125.727Z" fill="white"/>
<path d="M255.102 133.63C254.633 133.922 254.111 134.119 253.565 134.208C253.02 134.298 252.462 134.279 251.924 134.153C250.493 133.802 250.493 132.35 251.49 131.401C252.488 130.451 254.242 129.66 255.378 130.499C255.771 130.81 256.026 131.263 256.086 131.761C256.147 132.258 256.008 132.759 255.701 133.155C255.537 133.354 255.333 133.516 255.102 133.63V133.63Z" fill="#FFC2BC"/>
<path d="M247.5 125.04C247.273 125.453 246.874 125.659 246.612 125.521C246.351 125.384 246.303 124.923 246.53 124.51C246.757 124.097 247.149 123.898 247.417 124.035C247.686 124.173 247.72 124.641 247.5 125.04Z" fill="#263238"/>
<path d="M242.546 129.608C242.326 130.014 241.927 130.22 241.659 130.083C241.39 129.945 241.349 129.484 241.576 129.078C241.803 128.672 242.195 128.459 242.464 128.596C242.732 128.734 242.773 129.167 242.546 129.608Z" fill="#263238"/>
<path d="M242.856 122.512C242.629 122.918 242.237 123.124 241.961 122.986C241.686 122.849 241.652 122.388 241.886 121.975C242.12 121.562 242.505 121.363 242.773 121.5C243.042 121.638 243.103 122.099 242.856 122.512Z" fill="#263238"/>
<path d="M242.883 121.599L242.044 120.801C242.044 120.801 242.14 121.785 242.883 121.599Z" fill="#263238"/>
<path d="M243.695 123.891C242.818 124.628 241.843 125.241 240.799 125.714C240.928 125.976 241.112 126.207 241.339 126.391C241.566 126.575 241.83 126.708 242.113 126.78L243.695 123.891Z" fill="#EC837E"/>
<path d="M249.881 122.521C249.85 122.51 249.823 122.49 249.803 122.465C249.782 122.44 249.769 122.409 249.764 122.377C249.725 122.076 249.614 121.788 249.442 121.538C249.27 121.288 249.04 121.083 248.773 120.939C248.726 120.915 248.689 120.875 248.669 120.825C248.65 120.775 248.651 120.72 248.67 120.671C248.676 120.647 248.686 120.624 248.7 120.604C248.715 120.584 248.733 120.567 248.754 120.554C248.776 120.541 248.799 120.533 248.824 120.529C248.848 120.526 248.873 120.527 248.897 120.533C249.223 120.703 249.503 120.948 249.714 121.248C249.924 121.549 250.06 121.896 250.108 122.26C250.119 122.312 250.112 122.366 250.087 122.413C250.061 122.46 250.02 122.496 249.97 122.515C249.956 122.522 249.941 122.526 249.926 122.527C249.911 122.528 249.895 122.526 249.881 122.521V122.521Z" fill="#263238"/>
<path d="M243.083 118.38C243.044 118.376 243.005 118.383 242.968 118.398C242.932 118.414 242.901 118.438 242.877 118.469C242.858 118.493 242.845 118.52 242.837 118.549C242.83 118.578 242.828 118.608 242.833 118.638C242.837 118.668 242.848 118.696 242.863 118.721C242.879 118.747 242.9 118.769 242.925 118.786V118.786C243.264 119.048 243.661 119.224 244.082 119.301C244.504 119.378 244.937 119.352 245.347 119.226C245.402 119.209 245.449 119.17 245.476 119.118C245.503 119.067 245.508 119.007 245.491 118.951V118.951C245.468 118.895 245.425 118.851 245.369 118.826C245.314 118.802 245.252 118.8 245.195 118.82V118.82C244.857 118.92 244.499 118.937 244.152 118.871C243.805 118.806 243.479 118.658 243.2 118.442C243.169 118.408 243.128 118.387 243.083 118.38V118.38Z" fill="#263238"/>
<path d="M247.521 124.122L246.688 123.324C246.688 123.324 246.778 124.349 247.521 124.122Z" fill="#263238"/>
<path d="M232.151 134.41L231.27 133.446L230.348 132.373C229.729 131.685 229.144 130.908 228.566 130.165C227.431 128.663 226.393 127.091 225.457 125.459C224.563 123.866 223.801 122.202 223.179 120.484C222.594 118.835 222.211 117.121 222.037 115.379L221.604 117.237C222.494 115.709 223.466 114.23 224.514 112.806C225.615 111.272 226.729 109.738 227.872 108.217L231.312 103.642C232.44 102.115 233.603 100.601 234.717 99.0188C234.863 98.8184 234.967 98.5908 235.023 98.3496C235.08 98.1083 235.088 97.8582 235.046 97.6139C235.004 97.3697 234.914 97.1362 234.781 96.9273C234.648 96.7184 234.474 96.5383 234.27 96.3975C233.919 96.1467 233.495 96.0212 233.064 96.0411C232.633 96.0611 232.222 96.2254 231.896 96.5076C230.417 97.7941 229.014 99.122 227.589 100.45C226.165 101.778 224.837 103.202 223.461 104.578C222.085 105.954 220.778 107.406 219.478 108.892C218.088 110.431 216.808 112.066 215.646 113.783C215.33 114.26 215.165 114.821 215.171 115.393V115.62C215.215 117.982 215.581 120.327 216.258 122.59C216.899 124.788 217.766 126.913 218.845 128.933C219.885 130.923 221.076 132.83 222.409 134.637C223.097 135.538 223.785 136.405 224.521 137.265C224.886 137.691 225.209 138.111 225.636 138.531C226.062 138.95 226.365 139.308 226.895 139.81C227.61 140.527 228.578 140.934 229.591 140.944C230.603 140.954 231.579 140.567 232.309 139.865C232.664 139.518 232.946 139.103 233.139 138.646C233.332 138.188 233.431 137.696 233.431 137.199C233.431 136.703 233.332 136.211 233.139 135.753C232.946 135.295 232.664 134.881 232.309 134.533L232.151 134.41Z" fill="#FF5C8A"/>
<path opacity="0.2" d="M232.151 134.41L231.27 133.446L230.348 132.373C229.729 131.685 229.144 130.908 228.566 130.165C227.431 128.663 226.393 127.091 225.457 125.459C224.563 123.866 223.801 122.202 223.179 120.484C222.594 118.835 222.211 117.121 222.037 115.379L221.604 117.237C222.494 115.709 223.466 114.23 224.514 112.806C225.615 111.272 226.729 109.738 227.872 108.217L231.312 103.642C232.44 102.115 233.603 100.601 234.717 99.0188C234.863 98.8184 234.967 98.5908 235.023 98.3496C235.08 98.1083 235.088 97.8582 235.046 97.6139C235.004 97.3697 234.914 97.1362 234.781 96.9273C234.648 96.7184 234.474 96.5383 234.27 96.3975C233.919 96.1467 233.495 96.0212 233.064 96.0411C232.633 96.0611 232.222 96.2254 231.896 96.5076C230.417 97.7941 229.014 99.122 227.589 100.45C226.165 101.778 224.837 103.202 223.461 104.578C222.085 105.954 220.778 107.406 219.478 108.892C218.088 110.431 216.808 112.066 215.646 113.783C215.33 114.26 215.165 114.821 215.171 115.393V115.62C215.215 117.982 215.581 120.327 216.258 122.59C216.899 124.788 217.766 126.913 218.845 128.933C219.885 130.923 221.076 132.83 222.409 134.637C223.097 135.538 223.785 136.405 224.521 137.265C224.886 137.691 225.209 138.111 225.636 138.531C226.062 138.95 226.365 139.308 226.895 139.81C227.61 140.527 228.578 140.934 229.591 140.944C230.603 140.954 231.579 140.567 232.309 139.865C232.664 139.518 232.946 139.103 233.139 138.646C233.332 138.188 233.431 137.696 233.431 137.199C233.431 136.703 233.332 136.211 233.139 135.753C232.946 135.295 232.664 134.881 232.309 134.533L232.151 134.41Z" fill="black"/>
<path d="M232.454 101.646L237.566 100.407L234.814 93.8711C234.814 93.8711 230.844 94.9994 229.929 98.7697L232.454 101.646Z" fill="#FFC3BD"/>
<path d="M240.063 95.2067L238.941 93.7757C238.618 93.3652 238.161 93.0807 237.649 92.9714C237.138 92.8621 236.605 92.9349 236.141 93.1771L234.834 93.8651L237.586 100.401L239.96 98.0826C240.33 97.7011 240.545 97.1958 240.564 96.6645C240.584 96.1332 240.405 95.6138 240.063 95.2067V95.2067Z" fill="#FFC3BD"/>
<path d="M214.002 146.605C215.095 143.434 217.476 141.218 219.856 139.416C220.882 138.638 221.631 137.716 222.45 137.125C230.706 131.18 237.738 136.602 244.466 141.652C251.346 146.832 255.371 147.527 242.402 157.765C231.098 166.709 222.966 180.592 222.966 180.592L201.102 167.569C201.102 167.569 210.279 157.304 214.002 146.605Z" fill="#FF5C8A"/>
<path d="M244.995 140.176C245.91 143.616 240.688 143.402 237.31 142.928C235.577 142.749 233.92 142.127 232.497 141.122C231.073 140.118 229.933 138.763 229.185 137.19C227.575 133.88 228.628 126.622 230.492 123.43C230.417 125.666 228.71 131.135 232.302 134.513C233.925 136.041 234.366 135.284 236.533 135.889" stroke="#263238" stroke-width="0.75" stroke-miterlimit="10"/>
<path d="M245.519 141.923L245.994 141.29C246.214 140.554 245.512 139.701 244.872 139.281C242.396 137.657 237.346 134.258 235.88 134.403C235.583 134.434 235.289 134.487 235 134.561C234.741 134.634 234.509 134.78 234.333 134.983C234.156 135.186 234.043 135.436 234.007 135.702C233.972 135.969 234.014 136.24 234.131 136.482C234.247 136.724 234.432 136.927 234.662 137.065L243.744 142.287C244.034 142.452 244.374 142.506 244.7 142.439C245.026 142.371 245.317 142.188 245.519 141.923Z" fill="#FF5C8A"/>
<g opacity="0.2">
<path opacity="0.2" d="M245.519 141.923L245.994 141.29C246.214 140.554 245.512 139.701 244.872 139.281C242.396 137.657 237.346 134.258 235.88 134.403C235.583 134.434 235.289 134.487 235 134.561C234.741 134.634 234.509 134.78 234.333 134.983C234.156 135.186 234.043 135.436 234.007 135.702C233.972 135.969 234.014 136.24 234.131 136.482C234.247 136.724 234.432 136.927 234.662 137.065L243.744 142.287C244.034 142.452 244.374 142.506 244.7 142.439C245.026 142.371 245.317 142.188 245.519 141.923Z" fill="white"/>
</g>
<path d="M243.778 150.493C245.078 152.035 256.162 162.189 259.244 164.48L259.444 164.625H259.533C260.631 165.265 261.853 165.664 263.118 165.795C265.993 166.214 280.682 163.799 282.21 163.043C282.638 162.845 282.978 162.496 283.165 162.063C283.352 161.63 283.372 161.144 283.222 160.697C283.072 160.25 282.762 159.874 282.351 159.641C281.941 159.409 281.459 159.336 280.999 159.437H280.937C279.437 159.713 265.876 159.919 264.232 159.224C263.899 159.166 263.583 159.032 263.31 158.832L263.592 159.032C260.875 156.624 250.782 146.703 249.585 145.443L249.536 145.388C249.201 145.004 248.793 144.69 248.335 144.464C247.878 144.239 247.38 144.106 246.871 144.074C246.362 144.042 245.852 144.111 245.369 144.277C244.887 144.444 244.443 144.704 244.062 145.043C243.681 145.382 243.371 145.794 243.15 146.253C242.929 146.713 242.801 147.212 242.774 147.721C242.747 148.231 242.821 148.74 242.992 149.221C243.163 149.702 243.428 150.143 243.771 150.521V150.521L243.778 150.493Z" fill="#FF5C8A"/>
<path d="M279.912 159.06L283.18 155.551L286.132 161.681C285.627 162.332 284.971 162.85 284.22 163.188C283.469 163.526 282.647 163.675 281.825 163.621C281.465 163.605 281.118 163.489 280.821 163.286C280.525 163.083 280.291 162.801 280.146 162.472L279.561 161.172C279.406 160.824 279.356 160.438 279.419 160.063C279.481 159.687 279.653 159.338 279.912 159.06V159.06Z" fill="#FFC3BD"/>
<path d="M288.264 155.675L289.083 157.519C289.3 157.996 289.34 158.535 289.197 159.039C289.053 159.543 288.734 159.98 288.298 160.271L286.131 161.709L283.18 155.579L285.347 154.602C285.876 154.36 286.48 154.337 287.026 154.538C287.572 154.739 288.017 155.148 288.264 155.675V155.675Z" fill="#FFC3BD"/>
<path d="M232.543 120.944C232.165 122.32 231.284 123.263 230.589 123.07C229.894 122.877 229.633 121.604 230.018 120.235C230.403 118.866 231.284 117.917 231.979 118.116C232.674 118.316 232.928 119.582 232.543 120.944Z" fill="#263238"/>
<path opacity="0.8" d="M232.543 120.944C232.165 122.32 231.284 123.263 230.589 123.07C229.894 122.877 229.633 121.604 230.018 120.235C230.403 118.866 231.284 117.917 231.979 118.116C232.674 118.316 232.928 119.582 232.543 120.944Z" fill="white"/>
<path d="M230.878 119.762L230.582 120.822L231.036 121.62L231.71 119.219L230.878 119.762Z" fill="#FF5C8A"/>
<path d="M232.13 120.113L231.834 121.173L231.036 121.62L231.71 119.219L232.13 120.113Z" fill="#FF5C8A"/>
<path d="M223.248 180.635L202.725 165.94C202.518 165.802 202.271 165.768 202.167 165.878L200.791 167.447C200.702 167.543 200.791 167.694 200.95 167.846L222.209 183.05C222.443 183.209 222.739 183.209 222.794 183.05L223.482 180.986C223.484 180.911 223.462 180.837 223.421 180.774C223.379 180.711 223.318 180.663 223.248 180.635V180.635Z" fill="#263238"/>
<path d="M118.191 210.219L124.39 220.374L121.851 221.832L115.219 212.985L118.191 210.219Z" fill="#FF5C8A"/>
<g clip-path="url(#clip0_11472_112364)">
<path d="M164.819 121.505C190.672 121.505 211.629 100.792 211.629 75.2425C211.629 49.6927 190.672 28.9805 164.819 28.9805C138.966 28.9805 118.008 49.6927 118.008 75.2425C118.008 100.792 138.966 121.505 164.819 121.505Z" fill="#EE6D66"/>
<g clip-path="url(#clip1_11472_112364)">
<path d="M168.929 76.5402L177.688 67.7805C178.104 67.3655 178.338 66.8023 178.338 66.2149C178.339 65.6275 178.106 65.0639 177.691 64.6482C177.276 64.2324 176.713 63.9986 176.126 63.9981C175.538 63.9975 174.975 64.2304 174.559 64.6454L165.799 73.4052L157.039 64.6454C156.624 64.2297 156.06 63.9961 155.472 63.9961C154.884 63.9961 154.32 64.2297 153.904 64.6454C153.488 65.0611 153.255 65.625 153.255 66.2129C153.255 66.8009 153.488 67.3647 153.904 67.7805L162.664 76.5402L153.904 85.3C153.488 85.7157 153.255 86.2796 153.255 86.8675C153.255 87.4555 153.488 88.0193 153.904 88.4351C154.32 88.8508 154.884 89.0843 155.472 89.0843C156.06 89.0843 156.624 88.8508 157.039 88.4351L165.799 79.6753L174.559 88.4351C174.975 88.8508 175.538 89.0843 176.126 89.0843C176.714 89.0843 177.278 88.8508 177.694 88.4351C178.11 88.0193 178.343 87.4555 178.343 86.8675C178.343 86.2796 178.11 85.7157 177.694 85.3L168.929 76.5402Z" fill="white"/>
</g>
</g>
<defs>
<clipPath id="clip0_11472_112364">
<rect width="105.572" height="92.5241" fill="white" transform="translate(112.486 28.9805)"/>
</clipPath>
<clipPath id="clip1_11472_112364">
<rect width="46" height="46" fill="white" transform="translate(140.982 50.5117)"/>
</clipPath>
</defs>
</svg>
