<svg width="150" height="151" viewBox="0 0 150 151" fill="none" xmlns="http://www.w3.org/2000/svg">
<path d="M75 128.681C107.125 128.681 133.167 127.161 133.167 125.285C133.167 123.41 107.125 121.889 75 121.889C42.8753 121.889 16.833 123.41 16.833 125.285C16.833 127.161 42.8753 128.681 75 128.681Z" fill="#F5F5F5"/>
<path d="M62.2015 48.1642C58.3915 46.8292 59.9155 36.0982 50.7505 41.8642C48.6745 43.1722 46.1545 51.7642 47.8945 53.7442C50.3275 56.5312 66.6985 49.7392 62.2015 48.1642Z" fill="#263238"/>
<path d="M51.4737 58.3523C51.3987 58.4963 51.3507 58.5713 51.2907 58.6733L51.1167 58.9553C50.9997 59.1353 50.8737 59.3093 50.7477 59.4833C50.4901 59.8265 50.2148 60.1559 49.9227 60.4703C49.3237 61.1084 48.6428 61.6642 47.8977 62.1233C47.1252 62.6013 46.274 62.9385 45.3837 63.1193C44.9354 63.21 44.4791 63.2562 44.0217 63.2573C43.7937 63.2573 43.5687 63.2573 43.3407 63.2333L43.0077 63.1943L42.8397 63.1733L42.6057 63.1313C42.0429 62.9919 41.526 62.7087 41.1057 62.3093C40.7637 61.9875 40.4616 61.626 40.2057 61.2323C39.7556 60.5298 39.3834 59.7804 39.0957 58.9973C38.5429 57.5157 38.1516 55.9788 37.9287 54.4133L39.2187 54.1133C39.6927 55.5021 40.2579 56.858 40.9107 58.1723C41.2173 58.7867 41.5819 59.3703 41.9997 59.9153C42.1743 60.1437 42.3757 60.3501 42.5997 60.5303C42.7366 60.6482 42.9022 60.7279 43.0797 60.7613L43.4757 60.7823C43.6287 60.7823 43.7757 60.7823 43.9317 60.7643C44.2353 60.7425 44.5365 60.6943 44.8317 60.6203C45.4239 60.4617 45.987 60.2095 46.4997 59.8733C47.037 59.5189 47.5261 59.0964 47.9547 58.6163C48.1811 58.3767 48.3934 58.1243 48.5907 57.8603C48.6897 57.7283 48.7857 57.5933 48.8757 57.4583L49.0077 57.2573L49.1127 57.0863L51.4737 58.3523Z" fill="#FF8B7B"/>
<path d="M52.1996 55.2354C49.4996 55.2354 47.3726 57.7314 47.3726 57.7314L50.6726 62.1714C50.6726 62.1714 53.3336 59.6694 53.6186 58.2534C53.9006 56.7774 53.8196 55.2264 52.1996 55.2354Z" fill="#1C2D5E"/>
<path d="M39.0897 54.764L40.2657 52.814L37.5387 52.883C37.5387 52.883 37.3227 54.17 38.0427 54.983L39.0897 54.764Z" fill="#FF8B7B"/>
<path d="M40.1576 50.5312L38.1416 50.9603L37.5386 52.8833L40.2656 52.8143L40.1576 50.5312Z" fill="#FF8B7B"/>
<path d="M65.7294 122.513L63.1524 122.759L61.8384 116.753L64.4154 116.507L65.7294 122.513Z" fill="#FF8B7B"/>
<path d="M89.1239 114.737L87.1709 116.474L82.5239 112.511L84.4739 110.774L89.1239 114.737Z" fill="#FF8B7B"/>
<path d="M86.4652 116.141L87.5992 113.441C87.618 113.394 87.6535 113.356 87.6988 113.333C87.7442 113.31 87.7963 113.305 87.8452 113.318L90.1162 113.903C90.1727 113.92 90.2249 113.949 90.2695 113.988C90.3141 114.027 90.3502 114.074 90.3753 114.127C90.4005 114.181 90.4142 114.239 90.4155 114.298C90.4169 114.357 90.4059 114.416 90.3832 114.47C89.9722 115.406 89.7262 115.838 89.2282 117.029C88.9282 117.761 88.3522 119.429 87.9292 120.44C87.5062 121.451 86.4832 121.085 86.5672 120.626C86.9512 118.568 86.7142 117.473 86.4472 116.612C86.3975 116.458 86.4039 116.291 86.4652 116.141Z" fill="#1C2D5E"/>
<path d="M62.8286 121.979H65.9276C65.9836 121.98 66.0378 121.998 66.0822 122.032C66.1266 122.067 66.1586 122.114 66.1736 122.168L66.8456 124.619C66.8626 124.677 66.8657 124.738 66.8546 124.798C66.8435 124.857 66.8185 124.913 66.7816 124.961C66.7448 125.009 66.6972 125.048 66.6426 125.074C66.588 125.1 66.5281 125.113 66.4676 125.111C65.3846 125.093 64.8566 125.03 63.4946 125.03C62.6546 125.03 60.4946 125.117 59.3306 125.117C58.1666 125.117 57.9596 123.971 58.4306 123.866C60.5306 123.404 61.7306 122.762 62.3906 122.15C62.5092 122.039 62.6661 121.978 62.8286 121.979Z" fill="#1C2D5E"/>
<path opacity="0.2" d="M61.8384 116.756L62.5164 119.852H65.1474L64.4184 116.51L61.8384 116.756Z" fill="black"/>
<path opacity="0.2" d="M84.4769 110.774L82.5239 112.511L84.9209 114.554L86.8739 112.817L84.4769 110.774Z" fill="black"/>
<path d="M49.6798 55.9581C49.6798 55.9581 48.5968 56.7141 55.1098 70.8141L65.3308 67.9671C64.0018 63.8571 63.2818 61.2921 62.8918 52.2021C61.3782 52.304 59.8742 52.5166 58.3918 52.8381C56.8157 53.157 55.2647 53.5891 53.7508 54.1311C51.8098 54.8661 49.6798 55.9581 49.6798 55.9581Z" fill="#1C2D5E"/>
<path d="M56.4775 47.7412C56.6005 49.3162 57.0775 52.1332 58.3945 52.8412C58.4788 53.9981 58.3344 55.1603 57.9695 56.2614C57.6045 57.3624 57.0262 58.3808 56.2675 59.2582C52.7215 57.4162 53.7535 54.1342 53.7535 54.1342C55.3075 53.2732 54.9205 52.0492 54.3055 50.9692L56.4775 47.7412Z" fill="#FF8B7B"/>
<path opacity="0.2" d="M57.0232 50.7353L55.2412 50.1353C55.267 50.4865 55.3565 50.8301 55.5052 51.1493C55.8052 51.7343 56.7982 51.9533 57.5062 51.8813C57.3035 51.5182 57.1415 51.1339 57.0232 50.7353Z" fill="black"/>
<path d="M51.2997 46.0941C51.9897 48.5931 52.2267 49.6641 53.7777 50.6961C56.1147 52.2441 59.0337 50.8521 59.1057 48.1971C59.1717 45.7971 58.0347 42.1221 55.3437 41.6361C54.7507 41.526 54.1394 41.5694 53.5679 41.7621C52.9964 41.9548 52.4836 42.2905 52.0784 42.7372C51.6732 43.1839 51.3889 43.7269 51.2526 44.3144C51.1163 44.9019 51.1325 45.5146 51.2997 46.0941Z" fill="#FF8B7B"/>
<path d="M55.0349 41.2284C54.8309 42.9264 53.5649 48.7644 51.1769 48.7284C49.2059 47.0094 50.1779 43.7724 50.7899 42.4554C51.4019 41.1384 55.0349 41.2284 55.0349 41.2284Z" fill="#263238"/>
<path d="M54.0296 42.431C55.2296 43.07 57.5906 43.349 57.2156 42.374C56.8406 41.399 56.9486 40.574 55.3226 40.61C53.6966 40.646 54.0296 42.431 54.0296 42.431Z" fill="#263238"/>
<path d="M51.396 48.461C51.4728 48.6971 51.5956 48.9157 51.7573 49.1042C51.9189 49.2926 52.1163 49.4472 52.338 49.559C52.938 49.859 53.355 49.355 53.295 48.728C53.241 48.164 52.866 47.33 52.218 47.294C52.0764 47.2889 51.9357 47.3192 51.8087 47.3823C51.6818 47.4453 51.5725 47.5389 51.4909 47.6548C51.4093 47.7707 51.3579 47.9051 51.3413 48.0459C51.3247 48.1867 51.3435 48.3293 51.396 48.461Z" fill="#FF8B7B"/>
<path d="M55.1101 70.814C55.1101 70.814 54.5101 91.46 56.1751 99.254C57.8941 107.354 61.2541 118.952 61.2541 118.952L66.1501 118.715C66.1501 118.715 63.7801 104.015 63.2041 97.745C62.4121 89.105 62.6041 68.729 62.6041 68.729L55.1101 70.814Z" fill="#FF5C8A"/>
<path opacity="0.4" d="M55.1101 70.814C55.1101 70.814 54.5101 91.46 56.1751 99.254C57.8941 107.354 61.2541 118.952 61.2541 118.952L66.1501 118.715C66.1501 118.715 63.7801 104.015 63.2041 97.745C62.4121 89.105 62.6041 68.729 62.6041 68.729L55.1101 70.814Z" fill="#FAFAFA"/>
<path opacity="0.2" d="M62.5796 76.4962C61.8176 74.5852 61.1486 73.5322 61.0796 75.4372C60.9056 79.4662 61.6076 84.0712 62.7056 86.3542C62.6216 82.9402 62.5946 79.4542 62.5796 76.4962Z" fill="black"/>
<path d="M66.492 118.952L60.909 119.219L60.252 117.179L66.3 116.708L66.492 118.952Z" fill="#1C2D5E"/>
<path d="M57.8096 70.0611C57.8096 70.0611 64.0766 86.9272 68.3096 96.2392C71.7206 103.763 83.8136 114.272 83.8136 114.272L86.5616 111.95C86.5616 111.95 77.8196 99.9682 75.4616 94.8502C67.9076 78.5212 69.8786 71.6031 65.3366 67.9521L57.8096 70.0611Z" fill="#FF5C8A"/>
<path opacity="0.4" d="M57.8096 70.0611C57.8096 70.0611 64.0766 86.9272 68.3096 96.2392C71.7206 103.763 83.8136 114.272 83.8136 114.272L86.5616 111.95C86.5616 111.95 77.8196 99.9682 75.4616 94.8502C67.9076 78.5212 69.8786 71.6031 65.3366 67.9521L57.8096 70.0611Z" fill="#FAFAFA"/>
<path d="M86.7834 111.923L83.7114 114.635L82.1484 113.504L85.7694 110.417L86.7834 111.923Z" fill="#1C2D5E"/>
<path d="M65.3158 67.3131L66.0328 68.0991C66.0868 68.1621 66.0328 68.2581 65.9038 68.2881L55.1878 71.2881C55.0948 71.3151 55.0048 71.2881 54.9838 71.2341L54.6358 70.3341C54.6118 70.2711 54.6778 70.1961 54.7798 70.1661L65.1268 67.2861C65.158 67.274 65.1917 67.2702 65.2248 67.2749C65.2579 67.2796 65.2893 67.2928 65.3158 67.3131Z" fill="#FF5C8A"/>
<path d="M64.2481 68.8701L64.5271 68.7921C64.5811 68.7771 64.6141 68.7381 64.6021 68.7021L64.1401 67.5501C64.1401 67.5171 64.0711 67.5021 64.0171 67.5171L63.7381 67.5951C63.6841 67.6101 63.6481 67.6491 63.6631 67.6851L64.1251 68.8371C64.1371 68.8701 64.2001 68.8851 64.2481 68.8701Z" fill="#1C2D5E"/>
<path d="M55.9918 71.1684L56.2708 71.0904C56.3248 71.0754 56.3608 71.0364 56.3458 71.0004L55.8838 69.8484C55.8838 69.8154 55.8148 69.8004 55.7608 69.8154L55.4818 69.8934C55.4278 69.9084 55.3948 69.9474 55.4068 69.9834L55.8688 71.1354C55.8808 71.1684 55.9378 71.1834 55.9918 71.1684Z" fill="#1C2D5E"/>
<path d="M60.1195 70.013L60.3985 69.935C60.4525 69.935 60.4855 69.881 60.4735 69.845L59.9995 68.699C59.9995 68.666 59.9305 68.651 59.8765 68.666L59.5975 68.744C59.5435 68.744 59.5105 68.798 59.5225 68.834L59.9845 69.986C59.9995 70.013 60.0655 70.034 60.1195 70.013Z" fill="#1C2D5E"/>
<path d="M55.2987 45.9922C55.3407 46.1992 55.4877 46.3432 55.6197 46.3132C55.7517 46.2832 55.8297 46.0942 55.7877 45.8902C55.7457 45.6862 55.5987 45.5392 55.4637 45.5662C55.3287 45.5932 55.2537 45.7852 55.2987 45.9922Z" fill="#1C2D5E"/>
<path d="M57.6296 45.5002C57.6716 45.7072 57.8156 45.8512 57.9506 45.8242C58.0856 45.7972 58.1606 45.6052 58.1156 45.3982C58.0706 45.1912 57.9296 45.0472 57.7946 45.0772C57.6596 45.1072 57.5996 45.2962 57.6296 45.5002Z" fill="#1C2D5E"/>
<path d="M57.7373 45.1132L58.2023 44.8672C58.2023 44.8672 58.0283 45.2932 57.7373 45.1132Z" fill="#1C2D5E"/>
<path d="M57.0864 45.9863C57.3696 46.418 57.7108 46.8087 58.1004 47.1473C58.0119 47.2465 57.9025 47.3249 57.7801 47.3767C57.6577 47.4286 57.5253 47.4527 57.3924 47.4473L57.0864 45.9863Z" fill="#FF5652"/>
<path d="M56.8621 48.3951C56.8719 48.3882 56.8795 48.3785 56.8837 48.3673C56.888 48.3561 56.8888 48.3438 56.8861 48.3321C56.8851 48.324 56.8823 48.3161 56.878 48.3091C56.8737 48.3021 56.8679 48.2961 56.8611 48.2916C56.8543 48.287 56.8465 48.284 56.8384 48.2827C56.8303 48.2814 56.822 48.2819 56.8141 48.2841C56.5584 48.3433 56.2925 48.3415 56.0376 48.279C55.7828 48.2165 55.5463 48.0949 55.3471 47.9241C55.342 47.9162 55.3352 47.9095 55.3272 47.9045C55.3192 47.8995 55.3102 47.8964 55.3008 47.8954C55.2914 47.8944 55.2819 47.8955 55.273 47.8986C55.2642 47.9017 55.2561 47.9068 55.2494 47.9135C55.2427 47.9201 55.2377 47.9282 55.2345 47.9371C55.2314 47.946 55.2303 47.9555 55.2313 47.9649C55.2324 47.9742 55.2355 47.9832 55.2404 47.9913C55.2454 47.9993 55.2521 48.0061 55.2601 48.0111C55.4719 48.1991 55.726 48.333 56.0008 48.4014C56.2756 48.4699 56.5628 48.4708 56.8381 48.4041L56.8621 48.3951Z" fill="#1C2D5E"/>
<path d="M54.4828 45.368C54.5013 45.3566 54.516 45.3398 54.5248 45.32C54.5872 45.1779 54.6821 45.0525 54.802 44.954C54.9219 44.8554 55.0633 44.7866 55.2148 44.753C55.231 44.7508 55.2465 44.7455 55.2606 44.7373C55.2747 44.7291 55.2871 44.7182 55.297 44.7053C55.3068 44.6923 55.3141 44.6775 55.3183 44.6618C55.3224 44.646 55.3235 44.6296 55.3213 44.6135C55.3191 44.5973 55.3138 44.5817 55.3056 44.5676C55.2974 44.5536 55.2866 44.5412 55.2736 44.5313C55.2607 44.5214 55.2459 44.5142 55.2301 44.51C55.2144 44.5058 55.198 44.5048 55.1818 44.507C54.9888 44.5456 54.8079 44.6301 54.6544 44.7533C54.5009 44.8765 54.3792 45.0349 54.2998 45.215C54.2879 45.2396 54.2846 45.2676 54.2904 45.2943C54.2961 45.3211 54.3107 45.3452 54.3317 45.3628C54.3527 45.3803 54.379 45.3904 54.4064 45.3913C54.4337 45.3923 54.4606 45.384 54.4828 45.368Z" fill="#1C2D5E"/>
<path d="M58.4992 44.1861H58.5172C58.5404 44.1626 58.5535 44.1308 58.5535 44.0976C58.5535 44.0645 58.5404 44.0327 58.5172 44.0091C58.3789 43.8692 58.2096 43.7639 58.023 43.7019C57.8363 43.6399 57.6377 43.6228 57.4432 43.6521C57.4109 43.6593 57.3829 43.679 57.3652 43.7068C57.3474 43.7347 57.3415 43.7684 57.3487 43.8006C57.3558 43.8329 57.3755 43.8609 57.4033 43.8786C57.4312 43.8964 57.4649 43.9023 57.4972 43.8951C57.6519 43.8737 57.8095 43.8898 57.9567 43.942C58.104 43.9942 58.2365 44.081 58.3432 44.1951C58.3662 44.2119 58.3943 44.2202 58.4228 44.2186C58.4512 44.217 58.4782 44.2055 58.4992 44.1861Z" fill="#1C2D5E"/>
<path d="M64.7276 54.5601C64.9586 54.8271 65.2466 55.1391 65.5166 55.4301C65.7866 55.7211 66.0776 56.0091 66.3656 56.2911C66.9446 56.8521 67.5386 57.4011 68.1656 57.9111C69.3695 58.9301 70.6994 59.7901 72.1226 60.4701C73.4426 61.0701 75.0476 61.3251 76.6586 61.4391C77.4686 61.4991 78.2906 61.5201 79.1156 61.5051C79.9406 61.4901 80.7806 61.4571 81.5846 61.3941L81.8276 62.6961C80.1266 63.1328 78.3836 63.3852 76.6286 63.449C75.7274 63.4837 74.8248 63.4506 73.9286 63.35C72.9922 63.2485 72.0721 63.0309 71.1896 62.7021C70.3339 62.3732 69.5079 61.9717 68.7206 61.5021C67.9477 61.0441 67.207 60.5339 66.5036 59.9751C65.8056 59.4262 65.1367 58.8415 64.4996 58.2231C64.1786 57.9231 63.8696 57.5961 63.5636 57.2721C63.2576 56.9481 62.9636 56.6301 62.6636 56.2461L64.7276 54.5601Z" fill="#FF8B7B"/>
<path d="M81.2485 62.813L83.8315 62.408L81.7015 60.377C81.7015 60.377 80.6875 61.199 80.6875 62.285L81.2485 62.813Z" fill="#FF8B7B"/>
<path d="M85.2237 60.3621L83.4267 59.3481L81.6987 60.3921L83.8317 62.4202L85.2237 60.3621Z" fill="#FF8B7B"/>
<path d="M62.8916 52.2021C64.0046 52.2291 66.2156 55.4121 66.2156 55.4121L63.0326 59.3571C63.0326 59.3571 61.1786 56.7591 61.2326 55.3161C61.3046 53.8131 61.6256 52.1721 62.8916 52.2021Z" fill="#1C2D5E"/>
<path d="M85.974 117.56C85.9429 117.549 85.9128 117.535 85.884 117.518C85.85 117.501 85.8214 117.475 85.8013 117.443C85.7812 117.411 85.7704 117.373 85.77 117.335C85.77 117.002 86.538 116.468 86.628 116.408C86.6378 116.402 86.6493 116.398 86.661 116.398C86.6727 116.398 86.6842 116.402 86.694 116.408C86.7044 116.415 86.7127 116.424 86.718 116.436C86.7233 116.447 86.7254 116.459 86.724 116.471C86.667 116.813 86.526 117.41 86.226 117.548C86.187 117.567 86.1446 117.578 86.1012 117.58C86.0579 117.582 86.0147 117.575 85.974 117.56ZM86.574 116.597C86.274 116.819 85.89 117.158 85.893 117.332C85.893 117.356 85.893 117.383 85.947 117.41C85.9788 117.434 86.0163 117.449 86.0559 117.454C86.0954 117.459 86.1355 117.453 86.172 117.437C86.337 117.362 86.481 117.053 86.574 116.597Z" fill="#FF5C8A"/>
<path d="M85.5894 116.771C85.5654 116.762 85.5422 116.751 85.5204 116.738C85.4799 116.71 85.4501 116.669 85.4359 116.621C85.4218 116.574 85.4241 116.523 85.4424 116.477C85.455 116.432 85.4773 116.39 85.5079 116.354C85.5385 116.318 85.5766 116.289 85.6194 116.27C85.9614 116.105 86.6574 116.39 86.6844 116.402C86.6947 116.406 86.7036 116.413 86.7104 116.422C86.7172 116.43 86.7215 116.441 86.7231 116.452C86.7246 116.463 86.7232 116.474 86.7191 116.484C86.7149 116.494 86.7081 116.503 86.6994 116.51C86.3718 116.725 85.9786 116.818 85.5894 116.771ZM86.5044 116.471C86.2434 116.355 85.9527 116.325 85.6734 116.384C85.6455 116.396 85.6207 116.414 85.6009 116.437C85.5811 116.459 85.5669 116.487 85.5594 116.516C85.5384 116.591 85.5594 116.621 85.5894 116.636C85.7424 116.738 86.2464 116.636 86.5254 116.477L86.5044 116.471Z" fill="#FF5C8A"/>
<path d="M61.4548 122.492C61.2448 122.506 61.0354 122.456 60.8548 122.348C60.8078 122.313 60.7693 122.268 60.7423 122.216C60.7152 122.164 60.7004 122.107 60.6988 122.048C60.6953 122.016 60.7008 121.983 60.7145 121.953C60.7282 121.924 60.7498 121.898 60.7768 121.88C61.0558 121.691 62.1118 122.18 62.3218 122.267C62.3331 122.273 62.3423 122.282 62.3482 122.294C62.3541 122.305 62.3564 122.318 62.3548 122.331C62.3532 122.343 62.3477 122.355 62.3391 122.365C62.3305 122.374 62.3192 122.381 62.3068 122.384C62.0274 122.45 61.7418 122.486 61.4548 122.492ZM60.9598 121.958C60.9183 121.955 60.8768 121.963 60.8398 121.982C60.8248 121.982 60.8128 122.006 60.8158 122.042C60.816 122.083 60.8259 122.123 60.8447 122.159C60.8635 122.195 60.8906 122.226 60.9238 122.249C61.1068 122.387 61.5238 122.405 62.0878 122.3C61.7316 122.129 61.3511 122.013 60.9598 121.958Z" fill="#FF5C8A"/>
<path d="M62.2888 122.387H62.2648C61.9168 122.243 61.2088 121.679 61.2508 121.385C61.2508 121.322 61.3018 121.241 61.4608 121.223C62.0608 121.148 62.3368 122.267 62.3608 122.315C62.3635 122.327 62.363 122.339 62.3593 122.35C62.3556 122.361 62.3488 122.371 62.3398 122.378C62.3324 122.383 62.3241 122.387 62.3153 122.388C62.3065 122.39 62.2975 122.39 62.2888 122.387ZM61.5178 121.337H61.4758C61.4098 121.337 61.3768 121.364 61.3708 121.394C61.3498 121.562 61.8358 122.009 62.1928 122.207C62.0998 121.94 61.8898 121.337 61.5178 121.337Z" fill="#FF5C8A"/>
<path d="M55.4062 45.5902L55.8713 45.3442C55.8713 45.3442 55.7002 45.7852 55.4062 45.5902Z" fill="#1C2D5E"/>
<path d="M70.7784 73.7603C70.7784 73.7603 65.4474 78.1133 67.4304 87.6953C68.6004 93.3443 72.1254 96.2183 75.2124 95.5913C78.2994 94.9643 80.4264 90.9443 79.2984 85.2863C77.3994 75.6923 70.7784 73.7603 70.7784 73.7603Z" fill="#FF5C8A"/>
<path opacity="0.2" d="M70.7784 73.7603C70.7784 73.7603 65.4474 78.1133 67.4304 87.6953C68.6004 93.3443 72.1254 96.2183 75.2124 95.5913C78.2994 94.9643 80.4264 90.9443 79.2984 85.2863C77.3994 75.6923 70.7784 73.7603 70.7784 73.7603Z" fill="white"/>
<path d="M104.4 55.1721C104.4 55.1721 94.6109 52.9971 85.4309 63.8961C80.0309 70.3251 79.9079 76.9491 83.4059 79.9161C86.9039 82.8831 93.4229 81.6981 98.8829 75.3111C108.129 64.4781 104.4 55.1721 104.4 55.1721Z" fill="#FF5C8A"/>
<path d="M91.5301 11.9121C91.5301 11.9121 89.3431 12.5121 88.6651 15.6651C88.2631 17.5251 88.9441 18.8601 89.9581 19.0821C90.9721 19.3041 92.1481 18.3771 92.5621 16.5231C93.2641 13.3761 91.5301 11.9121 91.5301 11.9121Z" fill="#FF5C8A"/>
<path d="M74.1896 108.89C72.9331 104.43 72.3427 99.8093 72.4376 95.1769C72.5357 90.6835 73.1948 86.2199 74.3996 81.8899C74.9824 79.773 75.6733 77.6872 76.4696 75.6409C76.8626 74.6239 77.2826 73.6219 77.7206 72.6409C77.9306 72.1399 78.1706 71.6569 78.3926 71.1649L78.7286 70.4509L79.0556 69.7609C80.8046 66.0859 82.4696 62.3869 83.9726 58.6339C85.486 54.8929 86.8008 51.0746 87.9116 47.1949C89.0249 43.3271 89.8028 39.3704 90.2366 35.3689C90.6815 31.3625 90.5562 27.3132 89.8646 23.3419C89.1416 19.3152 87.6053 15.4781 85.3496 12.0649C88.0231 15.2764 90.0136 18.9992 91.1996 23.0059C92.3878 27.0576 92.9939 31.2576 92.9996 35.4799C93.0146 39.7023 92.6643 43.918 91.9526 48.0799C91.2545 52.2264 90.3342 56.3323 89.1956 60.3799C88.0796 64.4239 86.7956 68.4109 85.4336 72.3499L85.1786 73.0879L85.0496 73.4569L84.9326 73.8049C84.7826 74.2729 84.6146 74.7319 84.4766 75.1999C84.1766 76.1329 83.9126 77.0659 83.6666 78.0049C83.1712 79.8654 82.7707 81.7498 82.4666 83.6509C81.8671 87.3587 81.733 91.1269 82.0676 94.8679C82.3957 98.4748 83.256 102.013 84.6206 105.368L74.1896 108.89Z" fill="#FF5C8A"/>
<path opacity="0.2" d="M74.1896 108.89C72.9331 104.43 72.3427 99.8093 72.4376 95.1769C72.5357 90.6835 73.1948 86.2199 74.3996 81.8899C74.9824 79.773 75.6733 77.6872 76.4696 75.6409C76.8626 74.6239 77.2826 73.6219 77.7206 72.6409C77.9306 72.1399 78.1706 71.6569 78.3926 71.1649L78.7286 70.4509L79.0556 69.7609C80.8046 66.0859 82.4696 62.3869 83.9726 58.6339C85.486 54.8929 86.8008 51.0746 87.9116 47.1949C89.0249 43.3271 89.8028 39.3704 90.2366 35.3689C90.6815 31.3625 90.5562 27.3132 89.8646 23.3419C89.1416 19.3152 87.6053 15.4781 85.3496 12.0649C88.0231 15.2764 90.0136 18.9992 91.1996 23.0059C92.3878 27.0576 92.9939 31.2576 92.9996 35.4799C93.0146 39.7023 92.6643 43.918 91.9526 48.0799C91.2545 52.2264 90.3342 56.3323 89.1956 60.3799C88.0796 64.4239 86.7956 68.4109 85.4336 72.3499L85.1786 73.0879L85.0496 73.4569L84.9326 73.8049C84.7826 74.2729 84.6146 74.7319 84.4766 75.1999C84.1766 76.1329 83.9126 77.0659 83.6666 78.0049C83.1712 79.8654 82.7707 81.7498 82.4666 83.6509C81.8671 87.3587 81.733 91.1269 82.0676 94.8679C82.3957 98.4748 83.256 102.013 84.6206 105.368L74.1896 108.89Z" fill="black"/>
<path d="M94.8689 98.165L94.5689 101.597L92.5709 123.896C92.5371 124.275 92.3626 124.628 92.0817 124.885C91.8007 125.142 91.4337 125.285 91.0529 125.285H65.7149C65.3342 125.284 64.9676 125.142 64.6868 124.885C64.406 124.628 64.2313 124.275 64.1969 123.896L62.2019 101.597L61.9019 98.165H94.8689Z" fill="#FF5C8A"/>
<path d="M94.5059 110.566L93.79 118.571L94.0888 118.598L94.8047 110.592L94.5059 110.566Z" fill="#FF5C8A"/>
<path d="M95.397 106.049L95.2261 107.948L95.5261 107.975L95.697 106.076L95.397 106.049Z" fill="#FF5C8A"/>
<path d="M73.4035 27.5181C73.4035 27.5181 67.7455 35.0511 73.5145 47.1291C76.9165 54.2511 82.5415 56.9121 86.4355 55.0701C90.3295 53.2281 91.8355 47.1891 88.4935 40.0431C82.8145 27.9231 73.4035 27.5181 73.4035 27.5181Z" fill="#FF5C8A"/>
<path opacity="0.2" d="M73.4035 27.5181C73.4035 27.5181 67.7455 35.0511 73.5145 47.1291C76.9165 54.2511 82.5415 56.9121 86.4355 55.0701C90.3295 53.2281 91.8355 47.1891 88.4935 40.0431C82.8145 27.9231 73.4035 27.5181 73.4035 27.5181Z" fill="black"/>
<path opacity="0.2" d="M94.8691 98.165L94.5601 101.597H62.2021L61.8931 98.165H94.8691Z" fill="black"/>
<path d="M96.8279 93.9321H59.9309C59.5349 93.9321 59.2139 94.2531 59.2139 94.6491V99.1641C59.2139 99.5601 59.5349 99.8811 59.9309 99.8811H96.8279C97.2239 99.8811 97.5449 99.5601 97.5449 99.1641V94.6491C97.5449 94.2531 97.2239 93.9321 96.8279 93.9321Z" fill="#FF5C8A"/>
<path d="M111.129 44.5909C116.43 40.6021 117.494 33.0713 113.505 27.7703C109.516 22.4694 101.986 21.4056 96.6847 25.3944C91.3837 29.3832 90.32 36.914 94.3087 42.215C98.2975 47.5159 105.828 48.5797 111.129 44.5909Z" fill="#FF5C8A"/>
<path opacity="0.1" d="M113.541 37.97C113.948 36.3718 113.947 34.6969 113.537 33.0993C113.128 31.5017 112.323 30.0326 111.198 28.8271C110.073 27.6215 108.662 26.7181 107.097 26.2C105.531 25.6818 103.86 25.5655 102.238 25.8617C100.615 26.1579 99.0934 26.8572 97.8119 27.8952C96.5303 28.9332 95.5301 30.2766 94.9034 31.8021C94.2766 33.3276 94.0433 34.9861 94.2249 36.6253C94.4066 38.2645 94.9973 39.8317 95.9428 41.183C94.8772 39.8144 94.1825 38.1942 93.9256 36.4787C93.6688 34.7633 93.8586 33.0107 94.4767 31.39C95.0947 29.7693 96.1202 28.3354 97.454 27.2266C98.7879 26.1178 100.385 25.3716 102.091 25.0601C103.798 24.7485 105.556 24.8822 107.195 25.4481C108.835 26.014 110.301 26.9931 111.452 28.2908C112.603 29.5885 113.399 31.161 113.765 32.8565C114.131 34.5519 114.054 36.3131 113.541 37.97Z" fill="black"/>
<path d="M107.607 36.7311L106.407 39.2721C106.362 39.3687 106.296 39.4548 106.216 39.5251C106.135 39.5953 106.041 39.6481 105.939 39.6801C105.838 39.7185 105.729 39.7357 105.621 39.7305C105.513 39.7253 105.406 39.698 105.309 39.6501L103.074 38.5941L102.228 40.3941C102.184 40.4918 102.12 40.5793 102.041 40.6511C101.961 40.7228 101.868 40.7773 101.766 40.8111C101.666 40.8473 101.56 40.8633 101.454 40.8582C101.348 40.853 101.244 40.8268 101.148 40.7811C101.049 40.7365 100.959 40.6724 100.885 40.5925C100.811 40.5126 100.753 40.4186 100.716 40.3161C100.677 40.2158 100.66 40.1086 100.664 40.0013C100.669 39.8939 100.696 39.7886 100.743 39.6921L101.598 37.8921L99.3811 36.8451C99.1875 36.7522 99.0382 36.5867 98.9658 36.3846C98.8933 36.1824 98.9035 35.9598 98.9941 35.7651C99.0858 35.5711 99.2507 35.4214 99.4526 35.3488C99.6545 35.2763 99.877 35.2868 100.071 35.3781L105.258 37.8261L105.756 36.7701L100.593 34.3131C100.496 34.2689 100.408 34.2057 100.335 34.1271C100.263 34.0485 100.206 33.9561 100.17 33.8554C100.134 33.7547 100.118 33.6478 100.124 33.5409C100.129 33.434 100.156 33.3293 100.203 33.2331L101.403 30.7011C101.448 30.6041 101.511 30.517 101.59 30.4449C101.669 30.3728 101.761 30.3171 101.862 30.281C101.962 30.245 102.069 30.2294 102.176 30.2351C102.283 30.2407 102.387 30.2676 102.483 30.3141L104.682 31.3521L105.528 29.5521C105.573 29.4527 105.639 29.3637 105.72 29.2905C105.801 29.2174 105.896 29.1616 105.999 29.1267C106.103 29.0919 106.213 29.0786 106.321 29.0878C106.43 29.097 106.536 29.1284 106.632 29.1801C106.728 29.2234 106.814 29.286 106.885 29.3639C106.955 29.4418 107.009 29.5334 107.043 29.6331C107.081 29.7332 107.097 29.8399 107.092 29.9467C107.087 30.0534 107.06 30.158 107.013 30.2541L106.167 32.0541L108.42 33.1161C108.519 33.1611 108.607 33.2258 108.68 33.3063C108.753 33.3868 108.808 33.4813 108.843 33.5841C108.883 33.6832 108.903 33.7896 108.899 33.8965C108.896 34.0034 108.871 34.1085 108.825 34.2051C108.729 34.4023 108.559 34.5539 108.352 34.6279C108.145 34.7019 107.918 34.6922 107.718 34.6011L102.531 32.1531L102.039 33.2001L107.205 35.6391C107.304 35.6841 107.393 35.7488 107.466 35.8292C107.54 35.9097 107.596 36.0042 107.631 36.1071C107.672 36.2068 107.69 36.3141 107.686 36.4217C107.682 36.5292 107.655 36.6347 107.607 36.7311Z" fill="#FAFAFA"/>
</svg>
