<svg width="150" height="150" viewBox="0 0 150 150" fill="none" xmlns="http://www.w3.org/2000/svg">
<path d="M75.0001 128.268C107.125 128.268 133.167 126.748 133.167 124.872C133.167 122.997 107.125 121.476 75.0001 121.476C42.8753 121.476 16.8331 122.997 16.8331 124.872C16.8331 126.748 42.8753 128.268 75.0001 128.268Z" fill="#F5F5F5"/>
<path d="M62.2018 47.7511C58.3918 46.4161 59.9158 35.6851 50.7508 41.4511C48.6748 42.7591 46.1548 51.3511 47.8948 53.3311C50.3278 56.1181 66.6988 49.3261 62.2018 47.7511Z" fill="#263238"/>
<path d="M51.4741 57.9392C51.3991 58.0832 51.3511 58.1582 51.2911 58.2602L51.1171 58.5422C51.0001 58.7222 50.8741 58.8962 50.7481 59.0702C50.4906 59.4134 50.2152 59.7428 49.9231 60.0572C49.3242 60.6953 48.6432 61.2511 47.8981 61.7102C47.1256 62.1882 46.2744 62.5254 45.3841 62.7062C44.9358 62.7969 44.4796 62.8431 44.0221 62.8442C43.7941 62.8442 43.5691 62.8442 43.3411 62.8202L43.0081 62.7812L42.8401 62.7602L42.6061 62.7182C42.0434 62.5788 41.5265 62.2956 41.1061 61.8962C40.7642 61.5745 40.462 61.2129 40.2061 60.8192C39.756 60.1168 39.3838 59.3673 39.0961 58.5842C38.5433 57.1026 38.1521 55.5657 37.9291 54.0002L39.2191 53.7002C39.6931 55.089 40.2583 56.445 40.9111 57.7592C41.2177 58.3736 41.5824 58.9573 42.0001 59.5022C42.1747 59.7306 42.3761 59.9371 42.6001 60.1172C42.737 60.2351 42.9026 60.3148 43.0801 60.3482L43.4761 60.3692C43.6291 60.3692 43.7761 60.3692 43.9321 60.3512C44.2358 60.3294 44.5369 60.2812 44.8321 60.2072C45.4244 60.0486 45.9875 59.7964 46.5001 59.4602C47.0374 59.1058 47.5265 58.6833 47.9551 58.2032C48.1815 57.9637 48.3939 57.7112 48.5911 57.4472C48.6901 57.3152 48.7861 57.1802 48.8761 57.0452L49.0081 56.8442L49.1131 56.6732L51.4741 57.9392Z" fill="#FF8B7B"/>
<path d="M52.1997 54.8223C49.4997 54.8223 47.3727 57.3183 47.3727 57.3183L50.6727 61.7583C50.6727 61.7583 53.3337 59.2563 53.6187 57.8403C53.9007 56.3643 53.8197 54.8133 52.1997 54.8223Z" fill="#263238"/>
<path d="M39.0899 54.3509L40.2659 52.4009L37.5389 52.4699C37.5389 52.4699 37.3229 53.7569 38.0429 54.5699L39.0899 54.3509Z" fill="#FF8B7B"/>
<path d="M40.1578 50.1182L38.1418 50.5472L37.5388 52.4702L40.2658 52.4012L40.1578 50.1182Z" fill="#FF8B7B"/>
<path d="M65.7296 122.1L63.1526 122.346L61.8386 116.34L64.4156 116.094L65.7296 122.1Z" fill="#FF8B7B"/>
<path d="M89.1239 114.324L87.1709 116.061L82.5239 112.098L84.4739 110.361L89.1239 114.324Z" fill="#FF8B7B"/>
<path d="M86.4655 115.728L87.5995 113.028C87.6184 112.981 87.6538 112.942 87.6991 112.92C87.7445 112.897 87.7966 112.892 87.8455 112.905L90.1165 113.49C90.173 113.507 90.2252 113.536 90.2698 113.575C90.3145 113.613 90.3505 113.661 90.3756 113.714C90.4008 113.768 90.4145 113.826 90.4158 113.885C90.4172 113.944 90.4062 114.003 90.3835 114.057C89.9725 114.993 89.7265 115.425 89.2285 116.616C88.9285 117.348 88.3525 119.016 87.9295 120.027C87.5065 121.038 86.4835 120.672 86.5675 120.213C86.9515 118.155 86.7145 117.06 86.4475 116.199C86.3978 116.045 86.4042 115.878 86.4655 115.728V115.728Z" fill="#263238"/>
<path d="M62.8289 121.566H65.9279C65.9838 121.567 66.0381 121.585 66.0824 121.619C66.1268 121.653 66.1589 121.701 66.1739 121.755L66.8459 124.206C66.8629 124.264 66.866 124.325 66.8548 124.385C66.8437 124.444 66.8187 124.5 66.7819 124.548C66.7451 124.596 66.6974 124.635 66.6428 124.661C66.5883 124.687 66.5283 124.699 66.4679 124.698C65.3849 124.68 64.8569 124.617 63.4949 124.617C62.6549 124.617 60.4949 124.704 59.3309 124.704C58.1669 124.704 57.9599 123.558 58.4309 123.453C60.5309 122.991 61.7309 122.349 62.3909 121.737C62.5095 121.626 62.6663 121.565 62.8289 121.566V121.566Z" fill="#263238"/>
<path opacity="0.2" d="M61.8386 116.343L62.5166 119.439H65.1476L64.4186 116.097L61.8386 116.343Z" fill="black"/>
<path opacity="0.2" d="M84.4769 110.361L82.5239 112.098L84.9209 114.141L86.8739 112.404L84.4769 110.361Z" fill="black"/>
<path d="M49.6799 55.5451C49.6799 55.5451 48.5969 56.3011 55.1099 70.4011L65.3309 67.5541C64.0019 63.4441 63.2819 60.8791 62.8919 51.7891C61.3784 51.891 59.8743 52.1035 58.3919 52.4251C56.8158 52.7439 55.2648 53.176 53.7509 53.7181C51.8099 54.4531 49.6799 55.5451 49.6799 55.5451Z" fill="#263238"/>
<path d="M56.4778 47.3281C56.6008 48.9031 57.0778 51.7201 58.3948 52.4281C58.4792 53.585 58.3348 54.7472 57.9698 55.8483C57.6049 56.9493 57.0265 57.9677 56.2678 58.8451C52.7218 57.0031 53.7538 53.7211 53.7538 53.7211C55.3078 52.8601 54.9208 51.6361 54.3058 50.5561L56.4778 47.3281Z" fill="#FF8B7B"/>
<path opacity="0.2" d="M57.0235 50.3222L55.2415 49.7222C55.2673 50.0734 55.3568 50.417 55.5055 50.7362C55.8055 51.3212 56.7985 51.5402 57.5065 51.4682C57.3038 51.1051 57.1418 50.7208 57.0235 50.3222V50.3222Z" fill="black"/>
<path d="M51.2999 45.681C51.9899 48.18 52.2269 49.251 53.7779 50.283C56.1149 51.831 59.0339 50.439 59.1059 47.784C59.1719 45.384 58.0349 41.709 55.3439 41.223C54.7509 41.1129 54.1396 41.1563 53.5681 41.349C52.9966 41.5417 52.4838 41.8774 52.0786 42.3241C51.6734 42.7709 51.3891 43.3138 51.2528 43.9013C51.1165 44.4889 51.1327 45.1015 51.2999 45.681V45.681Z" fill="#FF8B7B"/>
<path d="M55.0351 40.8153C54.8311 42.5133 53.5651 48.3513 51.1771 48.3153C49.2061 46.5963 50.1781 43.3593 50.7901 42.0423C51.4021 40.7253 55.0351 40.8153 55.0351 40.8153Z" fill="#263238"/>
<path d="M54.0296 42.0179C55.2296 42.6569 57.5906 42.9359 57.2156 41.9609C56.8406 40.9859 56.9486 40.1609 55.3226 40.1969C53.6966 40.2329 54.0296 42.0179 54.0296 42.0179Z" fill="#263238"/>
<path d="M51.3961 48.0479C51.4729 48.2841 51.5956 48.5027 51.7573 48.6911C51.919 48.8796 52.1164 49.0341 52.3381 49.1459C52.9381 49.4459 53.3551 48.9419 53.2951 48.3149C53.2411 47.7509 52.8661 46.9169 52.2181 46.8809C52.0764 46.8758 51.9358 46.9062 51.8088 46.9692C51.6818 47.0322 51.5726 47.1259 51.491 47.2417C51.4093 47.3576 51.3579 47.492 51.3413 47.6328C51.3248 47.7736 51.3436 47.9163 51.3961 48.0479V48.0479Z" fill="#FF8B7B"/>
<path d="M55.1102 70.4009C55.1102 70.4009 54.5102 91.0469 56.1752 98.8409C57.8942 106.941 61.2542 118.539 61.2542 118.539L66.1502 118.302C66.1502 118.302 63.7802 103.602 63.2042 97.3319C62.4122 88.6919 62.6042 68.3159 62.6042 68.3159L55.1102 70.4009Z" fill="#1C2D5E"/>
<path opacity="0.4" d="M55.1102 70.4009C55.1102 70.4009 54.5102 91.0469 56.1752 98.8409C57.8942 106.941 61.2542 118.539 61.2542 118.539L66.1502 118.302C66.1502 118.302 63.7802 103.602 63.2042 97.3319C62.4122 88.6919 62.6042 68.3159 62.6042 68.3159L55.1102 70.4009Z" fill="#FAFAFA"/>
<path opacity="0.2" d="M62.58 76.0831C61.818 74.1721 61.149 73.1191 61.08 75.0241C60.906 79.0531 61.608 83.6581 62.706 85.9411C62.622 82.5271 62.595 79.0411 62.58 76.0831Z" fill="black"/>
<path d="M66.4921 118.539L60.9091 118.806L60.2521 116.766L66.3001 116.295L66.4921 118.539Z" fill="#263238"/>
<path d="M57.8096 69.6481C57.8096 69.6481 64.0766 86.5141 68.3096 95.8261C71.7206 103.35 83.8136 113.859 83.8136 113.859L86.5616 111.537C86.5616 111.537 77.8196 99.5551 75.4616 94.4371C67.9076 78.1081 69.8786 71.1901 65.3366 67.5391L57.8096 69.6481Z" fill="#1C2D5E"/>
<path opacity="0.4" d="M57.8096 69.6481C57.8096 69.6481 64.0766 86.5141 68.3096 95.8261C71.7206 103.35 83.8136 113.859 83.8136 113.859L86.5616 111.537C86.5616 111.537 77.8196 99.5551 75.4616 94.4371C67.9076 78.1081 69.8786 71.1901 65.3366 67.5391L57.8096 69.6481Z" fill="#FAFAFA"/>
<path d="M86.7837 111.51L83.7117 114.222L82.1487 113.091L85.7697 110.004L86.7837 111.51Z" fill="#263238"/>
<path d="M65.3161 66.9L66.0331 67.686C66.0871 67.749 66.033 67.845 65.904 67.875L55.188 70.875C55.095 70.902 55.005 70.875 54.984 70.821L54.636 69.921C54.612 69.858 54.678 69.783 54.78 69.753L65.127 66.873C65.1582 66.861 65.192 66.8571 65.2251 66.8618C65.2582 66.8666 65.2895 66.8797 65.3161 66.9V66.9Z" fill="#1C2D5E"/>
<path d="M64.2482 68.457L64.5272 68.379C64.5812 68.364 64.6142 68.325 64.6022 68.289L64.1402 67.137C64.1402 67.104 64.0712 67.089 64.0172 67.104L63.7382 67.182C63.6842 67.197 63.6482 67.236 63.6632 67.272L64.1252 68.424C64.1372 68.457 64.2002 68.472 64.2482 68.457Z" fill="#263238"/>
<path d="M55.992 70.7553L56.271 70.6773C56.325 70.6623 56.361 70.6233 56.346 70.5873L55.884 69.4353C55.884 69.4023 55.815 69.3873 55.761 69.4023L55.482 69.4803C55.428 69.4953 55.395 69.5343 55.407 69.5703L55.869 70.7223C55.881 70.7553 55.938 70.7703 55.992 70.7553Z" fill="#263238"/>
<path d="M60.1197 69.5999L60.3987 69.5219C60.4527 69.5219 60.4857 69.4679 60.4737 69.4319L59.9997 68.2859C59.9997 68.2529 59.9307 68.2379 59.8767 68.2529L59.5977 68.3309C59.5437 68.3309 59.5107 68.3849 59.5227 68.4209L59.9847 69.5729C59.9997 69.5999 60.0657 69.6209 60.1197 69.5999Z" fill="#263238"/>
<path d="M55.2988 45.5791C55.3408 45.7861 55.4878 45.9301 55.6198 45.9001C55.7518 45.8701 55.8298 45.6811 55.7878 45.4771C55.7458 45.2731 55.5988 45.1261 55.4638 45.1531C55.3288 45.1801 55.2538 45.3721 55.2988 45.5791Z" fill="#263238"/>
<path d="M57.6296 45.0871C57.6716 45.2941 57.8156 45.4381 57.9506 45.4111C58.0856 45.3841 58.1606 45.1921 58.1156 44.9851C58.0706 44.7781 57.9296 44.6341 57.7946 44.6641C57.6596 44.6941 57.5996 44.8831 57.6296 45.0871Z" fill="#263238"/>
<path d="M57.7374 44.7001L58.2024 44.4541C58.2024 44.4541 58.0284 44.8801 57.7374 44.7001Z" fill="#263238"/>
<path d="M57.0867 45.5732C57.3698 46.0049 57.711 46.3956 58.1007 46.7342C58.0121 46.8334 57.9027 46.9118 57.7803 46.9637C57.6579 47.0155 57.5255 47.0396 57.3927 47.0342L57.0867 45.5732Z" fill="#FF5652"/>
<path d="M56.8621 47.982C56.872 47.9752 56.8795 47.9655 56.8838 47.9542C56.8881 47.943 56.8889 47.9307 56.8861 47.919C56.8851 47.9109 56.8824 47.903 56.8781 47.896C56.8738 47.889 56.868 47.883 56.8612 47.8785C56.8543 47.8739 56.8466 47.8709 56.8384 47.8696C56.8303 47.8683 56.822 47.8688 56.8141 47.871C56.5585 47.9302 56.2925 47.9284 56.0377 47.8659C55.7829 47.8034 55.5463 47.6818 55.3471 47.511C55.3421 47.5031 55.3353 47.4964 55.3273 47.4914C55.3192 47.4864 55.3102 47.4833 55.3008 47.4823C55.2915 47.4813 55.282 47.4824 55.2731 47.4855C55.2642 47.4886 55.2561 47.4937 55.2495 47.5004C55.2428 47.5071 55.2377 47.5151 55.2346 47.524C55.2315 47.5329 55.2304 47.5424 55.2314 47.5518C55.2324 47.5611 55.2355 47.5702 55.2405 47.5782C55.2455 47.5862 55.2522 47.593 55.2601 47.598C55.4719 47.786 55.7261 47.9199 56.0009 47.9883C56.2756 48.0568 56.5629 48.0577 56.8381 47.991L56.8621 47.982Z" fill="#263238"/>
<path d="M54.4829 44.9549C54.5014 44.9435 54.5161 44.9267 54.5249 44.9069C54.5873 44.7648 54.6822 44.6394 54.8021 44.5409C54.922 44.4424 55.0634 44.3735 55.2149 44.3399C55.2311 44.3377 55.2467 44.3324 55.2607 44.3242C55.2748 44.316 55.2872 44.3051 55.2971 44.2922C55.307 44.2792 55.3142 44.2645 55.3184 44.2487C55.3226 44.233 55.3236 44.2165 55.3214 44.2004C55.3193 44.1842 55.3139 44.1687 55.3058 44.1546C55.2976 44.1405 55.2867 44.1281 55.2737 44.1182C55.2608 44.1083 55.246 44.1011 55.2303 44.0969C55.2145 44.0927 55.1981 44.0917 55.1819 44.0939C54.9889 44.1325 54.808 44.217 54.6545 44.3402C54.501 44.4634 54.3794 44.6218 54.2999 44.8019C54.288 44.8265 54.2847 44.8545 54.2905 44.8812C54.2963 44.908 54.3108 44.9321 54.3318 44.9497C54.3528 44.9672 54.3791 44.9773 54.4065 44.9782C54.4339 44.9792 54.4608 44.971 54.4829 44.9549V44.9549Z" fill="#263238"/>
<path d="M58.4993 43.7731H58.5173C58.5406 43.7495 58.5537 43.7177 58.5537 43.6846C58.5537 43.6514 58.5406 43.6196 58.5173 43.5961C58.3791 43.4561 58.2098 43.3509 58.0231 43.2888C57.8365 43.2268 57.6378 43.2097 57.4434 43.2391C57.4111 43.2462 57.3831 43.2659 57.3653 43.2937C57.3476 43.3216 57.3417 43.3553 57.3488 43.3876C57.356 43.4198 57.3757 43.4478 57.4035 43.4656C57.4314 43.4833 57.4651 43.4892 57.4974 43.4821C57.6521 43.4606 57.8097 43.4767 57.9569 43.5289C58.1042 43.5811 58.2367 43.6679 58.3433 43.7821C58.3664 43.7989 58.3945 43.8072 58.423 43.8055C58.4514 43.8039 58.4784 43.7924 58.4993 43.7731Z" fill="#263238"/>
<path d="M64.7279 54.147C64.9589 54.414 65.2469 54.726 65.5169 55.017C65.7869 55.308 66.0779 55.596 66.3659 55.878C66.9449 56.439 67.5389 56.988 68.1659 57.498C69.3699 58.517 70.6998 59.377 72.1229 60.057C73.4429 60.657 75.0479 60.912 76.6589 61.026C77.4689 61.086 78.2909 61.107 79.1159 61.092C79.9409 61.077 80.7809 61.044 81.5849 60.981L81.8279 62.283C80.127 62.7197 78.3839 62.9721 76.6289 63.036C75.7277 63.0707 74.8252 63.0376 73.9289 62.937C72.9926 62.8355 72.0725 62.6178 71.1899 62.289C70.3342 61.9601 69.5082 61.5586 68.7209 61.089C67.948 60.631 67.2073 60.1208 66.5039 59.562C65.806 59.0132 65.1371 58.4284 64.4999 57.81C64.1789 57.51 63.8699 57.183 63.5639 56.859C63.2579 56.535 62.9639 56.217 62.6639 55.833L64.7279 54.147Z" fill="#FF8B7B"/>
<path d="M81.2488 62.3999L83.8318 61.9949L81.7018 59.9639C81.7018 59.9639 80.6878 60.7859 80.6878 61.8719L81.2488 62.3999Z" fill="#FF8B7B"/>
<path d="M85.2241 59.9491L83.4271 58.9351L81.6991 59.9791L83.8321 62.0071L85.2241 59.9491Z" fill="#FF8B7B"/>
<path d="M62.8916 51.789C64.0046 51.816 66.2156 54.999 66.2156 54.999L63.0326 58.944C63.0326 58.944 61.1786 56.346 61.2326 54.903C61.3046 53.4 61.6256 51.759 62.8916 51.789Z" fill="#263238"/>
<path d="M85.9741 117.147C85.943 117.136 85.9129 117.122 85.8841 117.105C85.8501 117.088 85.8215 117.062 85.8014 117.03C85.7813 116.997 85.7704 116.96 85.7701 116.922C85.7701 116.589 86.5381 116.055 86.6281 115.995C86.6379 115.989 86.6493 115.985 86.6611 115.985C86.6728 115.985 86.6843 115.989 86.6941 115.995C86.7045 116.002 86.7128 116.011 86.7181 116.022C86.7234 116.034 86.7255 116.046 86.7241 116.058C86.6671 116.4 86.5261 116.997 86.2261 117.135C86.1871 117.154 86.1446 117.165 86.1013 117.167C86.058 117.169 86.0147 117.162 85.9741 117.147V117.147ZM86.5741 116.184C86.2741 116.406 85.8901 116.745 85.8931 116.919C85.8931 116.943 85.8931 116.97 85.9471 116.997C85.9788 117.021 86.0164 117.036 86.0559 117.041C86.0955 117.046 86.1355 117.04 86.1721 117.024C86.3371 116.949 86.4811 116.64 86.5741 116.184V116.184Z" fill="#1C2D5E"/>
<path d="M85.5899 116.358C85.5658 116.349 85.5427 116.338 85.5209 116.325C85.4803 116.297 85.4505 116.255 85.4364 116.208C85.4222 116.161 85.4245 116.11 85.4429 116.064C85.4554 116.019 85.4777 115.976 85.5083 115.941C85.5389 115.905 85.577 115.876 85.6199 115.857C85.9619 115.692 86.6579 115.977 86.6849 115.989C86.6951 115.993 86.704 116 86.7108 116.009C86.7176 116.017 86.722 116.028 86.7235 116.039C86.725 116.05 86.7236 116.061 86.7195 116.071C86.7153 116.081 86.7086 116.09 86.6999 116.097C86.3722 116.312 85.9791 116.405 85.5899 116.358V116.358ZM86.5049 116.058C86.2439 115.942 85.9531 115.912 85.6739 115.971C85.6459 115.983 85.6211 116.001 85.6013 116.023C85.5815 116.046 85.5673 116.074 85.5599 116.103C85.5389 116.178 85.5599 116.208 85.5899 116.223C85.7429 116.325 86.2469 116.223 86.5259 116.064L86.5049 116.058Z" fill="#1C2D5E"/>
<path d="M61.4548 122.079C61.2448 122.093 61.0354 122.043 60.8548 121.935C60.8078 121.9 60.7693 121.855 60.7423 121.803C60.7152 121.751 60.7004 121.693 60.6988 121.635C60.6953 121.602 60.7008 121.57 60.7145 121.54C60.7282 121.511 60.7498 121.485 60.7768 121.467C61.0558 121.278 62.1118 121.767 62.3218 121.854C62.3331 121.86 62.3423 121.869 62.3482 121.881C62.3541 121.892 62.3564 121.905 62.3548 121.918C62.3532 121.93 62.3477 121.942 62.3391 121.952C62.3305 121.961 62.3192 121.968 62.3068 121.971C62.0274 122.037 61.7418 122.073 61.4548 122.079ZM60.9598 121.545C60.9183 121.542 60.8768 121.55 60.8398 121.569C60.8248 121.569 60.8128 121.593 60.8158 121.629C60.816 121.67 60.8259 121.709 60.8447 121.745C60.8635 121.781 60.8906 121.812 60.9238 121.836C61.1068 121.974 61.5238 121.992 62.0878 121.887C61.7316 121.716 61.3511 121.6 60.9598 121.545V121.545Z" fill="#1C2D5E"/>
<path d="M62.2891 121.974H62.2651C61.9171 121.83 61.2091 121.266 61.2511 120.972C61.2511 120.909 61.3021 120.828 61.4611 120.81C62.0611 120.735 62.3371 121.854 62.3611 121.902C62.3638 121.914 62.3632 121.926 62.3595 121.937C62.3558 121.948 62.3491 121.958 62.3401 121.965C62.3327 121.97 62.3243 121.974 62.3155 121.975C62.3067 121.977 62.2977 121.976 62.2891 121.974V121.974ZM61.5181 120.924H61.4761C61.4101 120.924 61.3771 120.951 61.3711 120.981C61.3501 121.149 61.8361 121.596 62.1931 121.794C62.1001 121.527 61.8901 120.924 61.5181 120.924Z" fill="#1C2D5E"/>
<path d="M55.4064 45.1771L55.8714 44.9312C55.8714 44.9312 55.7004 45.3721 55.4064 45.1771Z" fill="#263238"/>
<path d="M70.7785 73.3472C70.7785 73.3472 65.4475 77.7002 67.4305 87.2822C68.6005 92.9312 72.1255 95.8052 75.2125 95.1782C78.2995 94.5512 80.4265 90.5312 79.2985 84.8732C77.3995 75.2792 70.7785 73.3472 70.7785 73.3472Z" fill="#1C2D5E"/>
<path opacity="0.2" d="M70.7785 73.3472C70.7785 73.3472 65.4475 77.7002 67.4305 87.2822C68.6005 92.9312 72.1255 95.8052 75.2125 95.1782C78.2995 94.5512 80.4265 90.5312 79.2985 84.8732C77.3995 75.2792 70.7785 73.3472 70.7785 73.3472Z" fill="white"/>
<path d="M104.4 54.759C104.4 54.759 94.6108 52.584 85.4308 63.483C80.0308 69.912 79.9078 76.536 83.4058 79.503C86.9038 82.47 93.4228 81.285 98.8828 74.898C108.129 64.065 104.4 54.759 104.4 54.759Z" fill="#1C2D5E"/>
<path d="M91.5299 11.499C91.5299 11.499 89.3429 12.099 88.6648 15.252C88.2628 17.112 88.9438 18.447 89.9579 18.669C90.9719 18.891 92.1479 17.964 92.5619 16.11C93.2639 12.963 91.5299 11.499 91.5299 11.499Z" fill="#1C2D5E"/>
<path d="M74.1897 108.477C72.9332 104.017 72.3428 99.3962 72.4377 94.7639C72.5358 90.2704 73.1949 85.8069 74.3997 81.4769C74.9826 79.3599 75.6735 77.2741 76.4697 75.2279C76.8627 74.2109 77.2827 73.2089 77.7207 72.2279C77.9307 71.7269 78.1707 71.2439 78.3927 70.7519L78.7287 70.0379L79.0557 69.3479C80.8047 65.6729 82.4697 61.9739 83.9727 58.2209C85.4861 54.4798 86.8009 50.6615 87.9117 46.7819C89.025 42.914 89.8029 38.9573 90.2367 34.9559C90.6816 30.9494 90.5563 26.9001 89.8647 22.9289C89.1417 18.9021 87.6054 15.065 85.3497 11.6519C88.0232 14.8633 90.0137 18.5861 91.1997 22.5929C92.3879 26.6445 92.994 30.8446 92.9997 35.0669C93.0148 39.2892 92.6645 43.5049 91.9527 47.6669C91.2547 51.8133 90.3343 55.9192 89.1957 59.9669C88.0797 64.0109 86.7957 67.9979 85.4337 71.9369L85.1787 72.6749L85.0497 73.0439L84.9327 73.3919C84.7827 73.8599 84.6147 74.3189 84.4767 74.7869C84.1767 75.7199 83.9127 76.6529 83.6667 77.5919C83.1713 79.4523 82.7708 81.3367 82.4667 83.2378C81.8672 86.9457 81.7332 90.7138 82.0677 94.4549C82.3958 98.0617 83.2561 101.6 84.6207 104.955L74.1897 108.477Z" fill="#1C2D5E"/>
<path opacity="0.2" d="M74.1897 108.477C72.9332 104.017 72.3428 99.3962 72.4377 94.7639C72.5358 90.2704 73.1949 85.8069 74.3997 81.4769C74.9826 79.3599 75.6735 77.2741 76.4697 75.2279C76.8627 74.2109 77.2827 73.2089 77.7207 72.2279C77.9307 71.7269 78.1707 71.2439 78.3927 70.7519L78.7287 70.0379L79.0557 69.3479C80.8047 65.6729 82.4697 61.9739 83.9727 58.2209C85.4861 54.4798 86.8009 50.6615 87.9117 46.7819C89.025 42.914 89.8029 38.9573 90.2367 34.9559C90.6816 30.9494 90.5563 26.9001 89.8647 22.9289C89.1417 18.9021 87.6054 15.065 85.3497 11.6519C88.0232 14.8633 90.0137 18.5861 91.1997 22.5929C92.3879 26.6445 92.994 30.8446 92.9997 35.0669C93.0148 39.2892 92.6645 43.5049 91.9527 47.6669C91.2547 51.8133 90.3343 55.9192 89.1957 59.9669C88.0797 64.0109 86.7957 67.9979 85.4337 71.9369L85.1787 72.6749L85.0497 73.0439L84.9327 73.3919C84.7827 73.8599 84.6147 74.3189 84.4767 74.7869C84.1767 75.7199 83.9127 76.6529 83.6667 77.5919C83.1713 79.4523 82.7708 81.3367 82.4667 83.2378C81.8672 86.9457 81.7332 90.7138 82.0677 94.4549C82.3958 98.0617 83.2561 101.6 84.6207 104.955L74.1897 108.477Z" fill="black"/>
<path d="M94.8686 97.752L94.5686 101.184L92.5706 123.483C92.5369 123.862 92.3624 124.215 92.0814 124.472C91.8005 124.729 91.4334 124.872 91.0526 124.872H65.7146C65.334 124.871 64.9673 124.728 64.6865 124.472C64.4057 124.215 64.231 123.862 64.1966 123.483L62.2016 101.184L61.9016 97.752H94.8686Z" fill="#1C2D5E"/>
<path d="M94.5056 110.153L93.7898 118.158L94.0886 118.184L94.8045 110.179L94.5056 110.153Z" fill="#1C2D5E"/>
<path d="M95.397 105.636L95.2261 107.535L95.5261 107.562L95.697 105.663L95.397 105.636Z" fill="#1C2D5E"/>
<path d="M73.4036 27.105C73.4036 27.105 67.7456 34.638 73.5146 46.716C76.9166 53.838 82.5416 56.499 86.4356 54.657C90.3296 52.815 91.8356 46.776 88.4936 39.63C82.8146 27.51 73.4036 27.105 73.4036 27.105Z" fill="#1C2D5E"/>
<path opacity="0.2" d="M73.4036 27.105C73.4036 27.105 67.7456 34.638 73.5146 46.716C76.9166 53.838 82.5416 56.499 86.4356 54.657C90.3296 52.815 91.8356 46.776 88.4936 39.63C82.8146 27.51 73.4036 27.105 73.4036 27.105Z" fill="black"/>
<path opacity="0.2" d="M94.869 97.752L94.56 101.184H62.202L61.893 97.752H94.869Z" fill="black"/>
<path d="M96.8278 93.519H59.9308C59.5348 93.519 59.2138 93.84 59.2138 94.236V98.751C59.2138 99.147 59.5348 99.468 59.9308 99.468H96.8278C97.2238 99.468 97.5448 99.147 97.5448 98.751V94.236C97.5448 93.84 97.2238 93.519 96.8278 93.519Z" fill="#1C2D5E"/>
<path d="M111.129 44.1778C116.43 40.189 117.494 32.6582 113.505 27.3573C109.516 22.0563 101.986 20.9925 96.6846 24.9813C91.3836 28.9701 90.3198 36.5009 94.3086 41.8019C98.2974 47.1028 105.828 48.1666 111.129 44.1778Z" fill="#1C2D5E"/>
<path opacity="0.1" d="M113.541 37.5569C113.948 35.9587 113.947 34.2838 113.537 32.6862C113.128 31.0886 112.323 29.6195 111.198 28.414C110.073 27.2084 108.662 26.305 107.097 25.7869C105.531 25.2687 103.86 25.1524 102.238 25.4486C100.615 25.7448 99.0934 26.4441 97.8119 27.4821C96.5303 28.5201 95.5301 29.8636 94.9034 31.389C94.2766 32.9145 94.0433 34.573 94.2249 36.2122C94.4066 37.8514 94.9973 39.4186 95.9428 40.7699C94.8772 39.4013 94.1825 37.7811 93.9256 36.0657C93.6688 34.3502 93.8586 32.5976 94.4767 30.9769C95.0947 29.3563 96.1202 27.9223 97.454 26.8135C98.7879 25.7047 100.385 24.9585 102.091 24.647C103.798 24.3354 105.556 24.4691 107.195 25.035C108.835 25.6009 110.301 26.58 111.452 27.8777C112.603 29.1754 113.399 30.7479 113.765 32.4434C114.131 34.1389 114.054 35.9 113.541 37.5569V37.5569Z" fill="black"/>
<path d="M107.607 36.318L106.407 38.859C106.361 38.9556 106.296 39.0418 106.216 39.112C106.135 39.1822 106.041 39.235 105.939 39.267C105.838 39.3054 105.729 39.3226 105.621 39.3174C105.513 39.3123 105.406 39.2849 105.309 39.237L103.074 38.181L102.228 39.981C102.184 40.0787 102.12 40.1662 102.041 40.238C101.961 40.3098 101.868 40.3642 101.766 40.398C101.666 40.4342 101.56 40.4502 101.454 40.4451C101.348 40.4399 101.244 40.4137 101.148 40.368C101.049 40.3234 100.959 40.2593 100.885 40.1794C100.811 40.0995 100.753 40.0055 100.716 39.903C100.677 39.8027 100.66 39.6956 100.664 39.5882C100.669 39.4808 100.696 39.3755 100.743 39.279L101.598 37.479L99.3811 36.432C99.1874 36.3391 99.0382 36.1737 98.9657 35.9715C98.8933 35.7693 98.9035 35.5467 98.9941 35.352C99.0857 35.158 99.2506 35.0083 99.4525 34.9357C99.6544 34.8632 99.8769 34.8737 100.071 34.965L105.258 37.413L105.756 36.357L100.593 33.9C100.496 33.8558 100.408 33.7926 100.335 33.714C100.263 33.6354 100.206 33.543 100.17 33.4423C100.134 33.3417 100.118 33.2347 100.124 33.1278C100.129 33.0209 100.156 32.9163 100.203 32.82L101.403 30.288C101.448 30.191 101.511 30.1039 101.59 30.0318C101.669 29.9597 101.761 29.904 101.862 29.868C101.962 29.8319 102.069 29.8163 102.176 29.822C102.282 29.8276 102.387 29.8545 102.483 29.901L104.682 30.939L105.528 29.139C105.573 29.0396 105.639 28.9506 105.72 28.8774C105.801 28.8043 105.896 28.7485 105.999 28.7137C106.103 28.6788 106.212 28.6655 106.321 28.6747C106.43 28.6839 106.536 28.7153 106.632 28.767C106.728 28.8103 106.814 28.8729 106.885 28.9508C106.955 29.0287 107.009 29.1204 107.043 29.22C107.081 29.3201 107.097 29.4268 107.092 29.5336C107.087 29.6404 107.06 29.745 107.013 29.841L106.167 31.641L108.42 32.703C108.519 32.748 108.607 32.8128 108.68 32.8932C108.753 32.9737 108.808 33.0682 108.843 33.171C108.883 33.2701 108.902 33.3765 108.899 33.4834C108.896 33.5903 108.871 33.6954 108.825 33.792C108.728 33.9892 108.559 34.1409 108.352 34.2148C108.145 34.2888 107.918 34.2791 107.718 34.188L102.531 31.74L102.039 32.787L107.205 35.226C107.304 35.271 107.393 35.3357 107.466 35.4161C107.539 35.4966 107.596 35.5911 107.631 35.694C107.672 35.7938 107.69 35.901 107.686 36.0086C107.682 36.1162 107.655 36.2216 107.607 36.318V36.318Z" fill="#FAFAFA"/>
</svg>
