<svg width="179" height="113" viewBox="0 0 179 113" fill="none" xmlns="http://www.w3.org/2000/svg">
<path d="M207.711 185.8C207.161 185.449 202.261 182.316 199.669 180.147C196.587 177.509 193.747 174.599 191.184 171.454C188.09 167.749 185.229 163.856 182.616 159.797C176.882 150.851 147.507 108.228 123.897 73.9788L117.908 65.2861C101.776 41.5551 86.6588 19.2936 85.2674 17.1242C82.0692 12.1176 78.366 7.45234 74.216 3.20178C70.1531 -0.961877 65.5194 -4.52697 60.454 -7.38664C55.2862 -10.2999 49.4511 -11.8216 43.5194 -11.8028H4.74523C2.39348 -11.8028 0.67418 -9.87106 0.658691 -7.20846C0.658691 -4.99522 1.82812 -2.75355 3.60161 -1.63273L4.7065 -3.32689L3.60678 -1.63014C4.15664 -1.27892 9.05375 1.85626 11.6482 4.02301C14.7289 6.66213 17.5678 9.57134 20.131 12.7159C23.225 16.4209 26.0865 20.3141 28.699 24.3734C34.4118 33.2883 63.6628 75.7247 87.1648 109.825L93.412 118.881C109.534 142.6 124.648 164.851 126.05 167.043C129.249 172.05 132.953 176.715 137.104 180.966C141.166 185.13 145.8 188.695 150.866 191.554C156.033 194.468 161.867 195.989 167.798 195.97H206.575C208.926 195.97 210.643 194.039 210.659 191.376C210.669 189.165 209.487 186.924 207.711 185.8Z" fill="white" fill-opacity="0.1"/>
<path d="M145.46 59.1061L145.628 59.3515L152.27 68.9895C166.747 47.9289 179.118 29.8434 182.616 24.371C185.229 20.3127 188.091 16.4194 191.184 12.7134C193.747 9.56822 196.587 6.65902 199.669 4.02065C202.25 1.85391 207.155 -1.28126 207.71 -1.63248C209.486 -2.75589 210.669 -4.9898 210.656 -7.21078C210.64 -9.87338 208.924 -11.8051 206.572 -11.8051H167.795C161.864 -11.8241 156.03 -10.3024 150.863 -7.38896C145.798 -4.5293 141.164 -0.964219 137.101 3.19943C132.95 7.44992 129.246 12.1152 126.047 17.1219C125.629 17.7753 123.982 20.2209 121.478 23.9294C127.96 33.4848 135.134 44.0318 139.517 50.483L145.46 59.1061Z" fill="white" fill-opacity="0.1"/>
</svg>
