<svg width="152" height="163" viewBox="0 0 152 163" fill="none" xmlns="http://www.w3.org/2000/svg">
<path d="M31.086 40.9942L30.7114 40.8006C33.981 34.417 38.3718 28.6733 43.6742 23.8438L43.9604 24.1552C38.6943 28.9511 34.3334 34.6549 31.086 40.9942Z" fill="#FF5C8A"/>
<path d="M25.8164 56.0177L25.3955 55.9335C26.0047 52.9574 26.8405 50.0323 27.8955 47.1836L28.2911 47.3309C27.2446 50.1587 26.4172 53.0629 25.8164 56.0177Z" fill="#FF5C8A"/>
<path opacity="0.9" d="M117.394 101.492C135.982 82.9041 135.982 52.7678 117.394 34.1803C98.8067 15.5928 68.6704 15.5928 50.0829 34.1803C31.4954 52.7678 31.4954 82.9041 50.0829 101.492C68.6704 120.079 98.8067 120.079 117.394 101.492Z" fill="#FAFAFA"/>
<g opacity="0.4">
<path opacity="0.4" d="M50.0596 94.4559H38.8687L41.0319 89.1445H47.8963L50.0596 94.4559Z" fill="#1C2D5E"/>
<path opacity="0.2" d="M50.0596 94.4559H38.8687L41.0319 89.1445H47.8963L50.0596 94.4559Z" fill="#FAFAFA"/>
<path opacity="0.4" d="M67.0671 94.4559H50.0598L47.8965 89.1445H64.9039L67.0671 94.4559Z" fill="#1C2D5E"/>
<path opacity="0.3" d="M67.0671 94.4559H50.0598L47.8965 89.1445H64.9039L67.0671 94.4559Z" fill="#1C2D5E"/>
<path opacity="0.4" d="M64.3436 94.4559H53.1484L55.3117 89.1445H62.1803L64.3436 94.4559Z" fill="#1C2D5E"/>
<path opacity="0.2" d="M64.3436 94.4559H53.1484L55.3117 89.1445H62.1803L64.3436 94.4559Z" fill="#FAFAFA"/>
<path opacity="0.4" d="M81.3466 94.4559H64.3435L62.1802 89.1445H79.1834L81.3466 94.4559Z" fill="#1C2D5E"/>
<path opacity="0.3" d="M81.3466 94.4559H64.3435L62.1802 89.1445H79.1834L81.3466 94.4559Z" fill="#1C2D5E"/>
<path opacity="0.4" d="M78.6236 94.4559H67.4326L69.5959 89.1445H76.4603L78.6236 94.4559Z" fill="#1C2D5E"/>
<path opacity="0.2" d="M78.6236 94.4559H67.4326L69.5959 89.1445H76.4603L78.6236 94.4559Z" fill="#FAFAFA"/>
<path opacity="0.4" d="M95.6269 94.4559H78.6237L76.4604 89.1445H93.4678L95.6269 94.4559Z" fill="#1C2D5E"/>
<path opacity="0.3" d="M95.6269 94.4559H78.6237L76.4604 89.1445H93.4678L95.6269 94.4559Z" fill="#1C2D5E"/>
<path opacity="0.4" d="M92.9038 94.4559H81.7129L83.8762 89.1445H90.7406L92.9038 94.4559Z" fill="#1C2D5E"/>
<path opacity="0.2" d="M92.9038 94.4559H81.7129L83.8762 89.1445H90.7406L92.9038 94.4559Z" fill="#FAFAFA"/>
<path opacity="0.4" d="M109.912 94.4559H92.9045L90.7412 89.1445H107.749L109.912 94.4559Z" fill="#1C2D5E"/>
<path opacity="0.3" d="M109.912 94.4559H92.9045L90.7412 89.1445H107.749L109.912 94.4559Z" fill="#1C2D5E"/>
<path opacity="0.4" d="M107.189 94.4559H95.9937L98.1569 89.1445H105.026L107.189 94.4559Z" fill="#1C2D5E"/>
<path opacity="0.2" d="M107.189 94.4559H95.9937L98.1569 89.1445H105.026L107.189 94.4559Z" fill="#FAFAFA"/>
<path opacity="0.4" d="M116.263 94.4559C116.804 92.6967 117.295 90.9262 117.736 89.1445H105.025L107.189 94.4559H116.263Z" fill="#1C2D5E"/>
<path opacity="0.3" d="M116.263 94.4559C116.804 92.6967 117.295 90.9262 117.736 89.1445H105.025L107.189 94.4559H116.263Z" fill="#1C2D5E"/>
<path opacity="0.4" d="M117.736 89.1445H112.441L110.278 94.4559H116.263C116.807 92.6967 117.298 90.9262 117.736 89.1445Z" fill="#1C2D5E"/>
<path opacity="0.2" d="M117.736 89.1445H112.441L110.278 94.4559H116.263C116.807 92.6967 117.298 90.9262 117.736 89.1445Z" fill="#FAFAFA"/>
<path opacity="0.4" d="M54.4237 89.1437H43.2285L45.3918 83.8281H52.2604L54.4237 89.1437Z" fill="#1C2D5E"/>
<path opacity="0.2" d="M54.4237 89.1437H43.2285L45.3918 83.8281H52.2604L54.4237 89.1437Z" fill="#FAFAFA"/>
<path opacity="0.4" d="M71.4267 89.1437H54.4235L52.2603 83.8281H69.2634L71.4267 89.1437Z" fill="#1C2D5E"/>
<path opacity="0.3" d="M71.4267 89.1437H54.4235L52.2603 83.8281H69.2634L71.4267 89.1437Z" fill="#1C2D5E"/>
<path opacity="0.4" d="M68.7041 89.1437H57.5132L59.6765 83.8281H66.5409L68.7041 89.1437Z" fill="#1C2D5E"/>
<path opacity="0.2" d="M68.7041 89.1437H57.5132L59.6765 83.8281H66.5409L68.7041 89.1437Z" fill="#FAFAFA"/>
<path opacity="0.4" d="M85.707 89.1437H68.7038L66.5405 83.8281H83.5479L85.707 89.1437Z" fill="#1C2D5E"/>
<path opacity="0.3" d="M85.707 89.1437H68.7038L66.5405 83.8281H83.5479L85.707 89.1437Z" fill="#1C2D5E"/>
<path opacity="0.4" d="M82.9844 89.1437H71.7935L73.9567 83.8281H80.8211L82.9844 89.1437Z" fill="#1C2D5E"/>
<path opacity="0.2" d="M82.9844 89.1437H71.7935L73.9567 83.8281H80.8211L82.9844 89.1437Z" fill="#FAFAFA"/>
<path opacity="0.4" d="M99.9915 89.1437H82.9841L80.8208 83.8281H97.8282L99.9915 89.1437Z" fill="#1C2D5E"/>
<path opacity="0.3" d="M99.9915 89.1437H82.9841L80.8208 83.8281H97.8282L99.9915 89.1437Z" fill="#1C2D5E"/>
<path opacity="0.4" d="M97.2684 89.1437H86.0732L88.2365 83.8281H95.1051L97.2684 89.1437Z" fill="#1C2D5E"/>
<path opacity="0.2" d="M97.2684 89.1437H86.0732L88.2365 83.8281H95.1051L97.2684 89.1437Z" fill="#FAFAFA"/>
<path opacity="0.4" d="M114.272 89.1437H97.2687L95.1055 83.8281H112.109L114.272 89.1437Z" fill="#1C2D5E"/>
<path opacity="0.3" d="M114.272 89.1437H97.2687L95.1055 83.8281H112.109L114.272 89.1437Z" fill="#1C2D5E"/>
<path opacity="0.4" d="M111.548 89.1437H100.357L102.521 83.8281H109.385L111.548 89.1437Z" fill="#1C2D5E"/>
<path opacity="0.2" d="M111.548 89.1437H100.357L102.521 83.8281H109.385L111.548 89.1437Z" fill="#FAFAFA"/>
<path opacity="0.4" d="M117.736 89.1437C118.157 87.3803 118.556 85.6126 118.885 83.8281H109.407L111.57 89.1437H117.736Z" fill="#1C2D5E"/>
<path opacity="0.3" d="M117.736 89.1437C118.157 87.3803 118.556 85.6126 118.885 83.8281H109.407L111.57 89.1437H117.736Z" fill="#1C2D5E"/>
<path opacity="0.4" d="M118.884 83.8281H116.8L114.637 89.1437H117.735C118.168 87.3803 118.556 85.6126 118.884 83.8281Z" fill="#1C2D5E"/>
<path opacity="0.2" d="M118.884 83.8281H116.8L114.637 89.1437H117.735C118.168 87.3803 118.556 85.6126 118.884 83.8281Z" fill="#FAFAFA"/>
<path opacity="0.4" d="M58.1617 83.8309H46.9707L49.134 78.5195H55.9984L58.1617 83.8309Z" fill="#1C2D5E"/>
<path opacity="0.2" d="M58.1617 83.8309H46.9707L49.134 78.5195H55.9984L58.1617 83.8309Z" fill="#FAFAFA"/>
<path opacity="0.4" d="M75.1687 83.8309H58.1613L55.998 78.5195H73.0054L75.1687 83.8309Z" fill="#1C2D5E"/>
<path opacity="0.3" d="M75.1687 83.8309H58.1613L55.998 78.5195H73.0054L75.1687 83.8309Z" fill="#1C2D5E"/>
<path opacity="0.4" d="M72.4456 83.8309H61.2505L63.4138 78.5195H70.2782L72.4456 83.8309Z" fill="#1C2D5E"/>
<path opacity="0.2" d="M72.4456 83.8309H61.2505L63.4138 78.5195H70.2782L72.4456 83.8309Z" fill="#FAFAFA"/>
<path opacity="0.4" d="M89.4485 83.8309H72.4453L70.2778 78.5195H87.2852L89.4485 83.8309Z" fill="#1C2D5E"/>
<path opacity="0.3" d="M89.4485 83.8309H72.4453L70.2778 78.5195H87.2852L89.4485 83.8309Z" fill="#1C2D5E"/>
<path opacity="0.4" d="M86.7256 83.8309H75.5347L77.6979 78.5195H84.5623L86.7256 83.8309Z" fill="#1C2D5E"/>
<path opacity="0.2" d="M86.7256 83.8309H75.5347L77.6979 78.5195H84.5623L86.7256 83.8309Z" fill="#FAFAFA"/>
<path opacity="0.4" d="M103.729 83.8309H86.7258L84.5625 78.5195H101.566L103.729 83.8309Z" fill="#1C2D5E"/>
<path opacity="0.3" d="M103.729 83.8309H86.7258L84.5625 78.5195H101.566L103.729 83.8309Z" fill="#1C2D5E"/>
<path opacity="0.4" d="M101.006 83.8309H89.8149L91.9782 78.5195H98.8426L101.006 83.8309Z" fill="#1C2D5E"/>
<path opacity="0.2" d="M101.006 83.8309H89.8149L91.9782 78.5195H98.8426L101.006 83.8309Z" fill="#FAFAFA"/>
<path opacity="0.4" d="M118.013 83.8309H101.006L98.8423 78.5195H115.85L118.013 83.8309Z" fill="#1C2D5E"/>
<path opacity="0.3" d="M118.013 83.8309H101.006L98.8423 78.5195H115.85L118.013 83.8309Z" fill="#1C2D5E"/>
<path opacity="0.4" d="M115.29 83.8309H104.095L106.258 78.5195H113.127L115.29 83.8309Z" fill="#1C2D5E"/>
<path opacity="0.2" d="M115.29 83.8309H104.095L106.258 78.5195H113.127L115.29 83.8309Z" fill="#FAFAFA"/>
<path opacity="0.4" d="M118.885 83.8309C119.213 82.0717 119.494 80.3012 119.727 78.5195H113.127L115.299 83.8309H118.885Z" fill="#1C2D5E"/>
<path opacity="0.3" d="M118.885 83.8309C119.213 82.0717 119.494 80.3012 119.727 78.5195H113.127L115.299 83.8309H118.885Z" fill="#1C2D5E"/>
<path opacity="0.4" d="M119.259 81.668L118.379 83.8312H118.884C119.019 83.113 119.144 82.3919 119.259 81.668Z" fill="#1C2D5E"/>
<path opacity="0.2" d="M119.259 81.668L118.379 83.8312H118.884C119.019 83.113 119.144 82.3919 119.259 81.668Z" fill="#FAFAFA"/>
<path opacity="0.4" d="M62.521 78.5184H51.3301L53.4934 73.207H60.362L62.521 78.5184Z" fill="#1C2D5E"/>
<path opacity="0.2" d="M62.521 78.5184H51.3301L53.4934 73.207H60.362L62.521 78.5184Z" fill="#FAFAFA"/>
<path opacity="0.4" d="M79.5288 78.5184H62.5214L60.3623 73.207H77.3655L79.5288 78.5184Z" fill="#1C2D5E"/>
<path opacity="0.3" d="M79.5288 78.5184H62.5214L60.3623 73.207H77.3655L79.5288 78.5184Z" fill="#1C2D5E"/>
<path opacity="0.4" d="M76.8057 78.5184H65.6147L67.778 73.207H74.6424L76.8057 78.5184Z" fill="#1C2D5E"/>
<path opacity="0.2" d="M76.8057 78.5184H65.6147L67.778 73.207H74.6424L76.8057 78.5184Z" fill="#FAFAFA"/>
<path opacity="0.4" d="M93.809 78.5184H76.8059L74.6426 73.207H91.65L93.809 78.5184Z" fill="#1C2D5E"/>
<path opacity="0.3" d="M93.809 78.5184H76.8059L74.6426 73.207H91.65L93.809 78.5184Z" fill="#1C2D5E"/>
<path opacity="0.4" d="M91.086 78.5184H79.895L82.0583 73.207H88.9227L91.086 78.5184Z" fill="#1C2D5E"/>
<path opacity="0.2" d="M91.086 78.5184H79.895L82.0583 73.207H88.9227L91.086 78.5184Z" fill="#FAFAFA"/>
<path opacity="0.4" d="M108.093 78.5184H91.0856L88.9224 73.207H105.93L108.093 78.5184Z" fill="#1C2D5E"/>
<path opacity="0.3" d="M108.093 78.5184H91.0856L88.9224 73.207H105.93L108.093 78.5184Z" fill="#1C2D5E"/>
<path opacity="0.4" d="M105.37 78.5184H94.1753L96.3386 73.207H103.207L105.37 78.5184Z" fill="#1C2D5E"/>
<path opacity="0.2" d="M105.37 78.5184H94.1753L96.3386 73.207H103.207L105.37 78.5184Z" fill="#FAFAFA"/>
<path opacity="0.4" d="M119.709 78.5184C119.928 76.7536 120.089 74.9831 120.193 73.207H103.207L105.37 78.5184H119.709Z" fill="#1C2D5E"/>
<path opacity="0.3" d="M119.709 78.5184C119.928 76.7536 120.089 74.9831 120.193 73.207H103.207L105.37 78.5184H119.709Z" fill="#1C2D5E"/>
<path opacity="0.4" d="M119.65 78.5184H108.459L110.623 73.207H117.487L119.65 78.5184Z" fill="#1C2D5E"/>
<path opacity="0.2" d="M119.65 78.5184H108.459L110.623 73.207H117.487L119.65 78.5184Z" fill="#FAFAFA"/>
<path opacity="0.4" d="M119.71 78.5184C119.928 76.7536 120.09 74.9831 120.194 73.207H117.487L119.651 78.5184H119.71Z" fill="#1C2D5E"/>
<path opacity="0.3" d="M119.71 78.5184C119.928 76.7536 120.09 74.9831 120.194 73.207H117.487L119.651 78.5184H119.71Z" fill="#1C2D5E"/>
<path opacity="0.4" d="M60.0422 115.706H63.8637L61.7005 110.395H53.2241C55.6305 111.986 57.9101 113.762 60.0422 115.706Z" fill="#1C2D5E"/>
<path opacity="0.3" d="M60.0422 115.706H63.8637L61.7005 110.395H53.2241C55.6305 111.986 57.9101 113.762 60.0422 115.706Z" fill="#1C2D5E"/>
<path opacity="0.4" d="M60.0422 115.706H61.1407L58.9774 110.395H53.2241C55.6305 111.986 57.9101 113.762 60.0422 115.706Z" fill="#1C2D5E"/>
<path opacity="0.2" d="M60.0422 115.706H61.1407L58.9774 110.395H53.2241C55.6305 111.986 57.9101 113.762 60.0422 115.706Z" fill="#FAFAFA"/>
<path opacity="0.4" d="M78.1445 115.706H61.1413L58.978 110.395H75.9812L78.1445 115.706Z" fill="#1C2D5E"/>
<path opacity="0.3" d="M78.1445 115.706H61.1413L58.978 110.395H75.9812L78.1445 115.706Z" fill="#1C2D5E"/>
<path opacity="0.4" d="M75.4209 115.706H64.23L66.3933 110.395H73.2577L75.4209 115.706Z" fill="#1C2D5E"/>
<path opacity="0.2" d="M75.4209 115.706H64.23L66.3933 110.395H73.2577L75.4209 115.706Z" fill="#FAFAFA"/>
<path opacity="0.4" d="M92.4243 115.706H75.4211L73.2578 110.395H90.261L92.4243 115.706Z" fill="#1C2D5E"/>
<path opacity="0.3" d="M92.4243 115.706H75.4211L73.2578 110.395H90.261L92.4243 115.706Z" fill="#1C2D5E"/>
<path opacity="0.4" d="M89.7007 115.706H78.5098L80.673 110.395H87.5374L89.7007 115.706Z" fill="#1C2D5E"/>
<path opacity="0.2" d="M89.7007 115.706H78.5098L80.673 110.395H87.5374L89.7007 115.706Z" fill="#FAFAFA"/>
<path opacity="0.4" d="M106.616 115.479L104.546 110.395H87.5215L89.6848 115.706H106.364C106.461 115.634 106.536 115.554 106.616 115.479Z" fill="#1C2D5E"/>
<path opacity="0.3" d="M106.616 115.479L104.546 110.395H87.5215L89.6848 115.706H106.364C106.461 115.634 106.536 115.554 106.616 115.479Z" fill="#1C2D5E"/>
<path opacity="0.4" d="M103.986 115.706H92.7905L94.9538 110.395H101.822L103.986 115.706Z" fill="#1C2D5E"/>
<path opacity="0.2" d="M103.986 115.706H92.7905L94.9538 110.395H101.822L103.986 115.706Z" fill="#FAFAFA"/>
<path opacity="0.4" d="M106.38 115.706C107.947 114.161 109.246 112.366 110.223 110.395H101.831L103.994 115.706H106.38Z" fill="#1C2D5E"/>
<path opacity="0.3" d="M106.38 115.706C107.947 114.161 109.246 112.366 110.223 110.395H101.831L103.994 115.706H106.38Z" fill="#1C2D5E"/>
<path opacity="0.4" d="M110.223 110.395H109.238L107.605 114.401C108.618 113.163 109.496 111.82 110.223 110.395Z" fill="#1C2D5E"/>
<path opacity="0.2" d="M110.223 110.395H109.238L107.605 114.401C108.618 113.163 109.496 111.82 110.223 110.395Z" fill="#FAFAFA"/>
<path opacity="0.4" d="M46.8315 105.675C48.8559 107.388 51.0402 108.882 53.2245 110.393H53.9442L51.781 105.082H46.1455C46.3728 105.28 46.6001 105.482 46.8315 105.675Z" fill="#1C2D5E"/>
<path opacity="0.3" d="M46.8315 105.675C48.8559 107.388 51.0402 108.882 53.2245 110.393H53.9442L51.781 105.082H46.1455C46.3728 105.28 46.6001 105.482 46.8315 105.675Z" fill="#1C2D5E"/>
<path opacity="0.4" d="M46.8315 105.677C47.9847 106.653 49.1926 107.558 50.4216 108.433L49.0579 105.066H46.1455C46.3728 105.281 46.6001 105.483 46.8315 105.677Z" fill="#1C2D5E"/>
<path opacity="0.2" d="M46.8315 105.677C47.9847 106.653 49.1926 107.558 50.4216 108.433L49.0579 105.066H46.1455C46.3728 105.281 46.6001 105.483 46.8315 105.677Z" fill="#FAFAFA"/>
<path opacity="0.4" d="M53.224 110.393H68.2239L66.0564 105.082H49.0532L50.4168 108.449C51.347 109.097 52.2897 109.741 53.224 110.393Z" fill="#1C2D5E"/>
<path opacity="0.3" d="M53.224 110.393H68.2239L66.0564 105.082H49.0532L50.4168 108.449C51.347 109.097 52.2897 109.741 53.224 110.393Z" fill="#1C2D5E"/>
<path opacity="0.4" d="M65.5015 110.393H54.3105L56.4738 105.082H63.3382L65.5015 110.393Z" fill="#1C2D5E"/>
<path opacity="0.2" d="M65.5015 110.393H54.3105L56.4738 105.082H63.3382L65.5015 110.393Z" fill="#FAFAFA"/>
<path opacity="0.4" d="M82.5086 110.393H65.5012L63.3379 105.082H80.3453L82.5086 110.393Z" fill="#1C2D5E"/>
<path opacity="0.3" d="M82.5086 110.393H65.5012L63.3379 105.082H80.3453L82.5086 110.393Z" fill="#1C2D5E"/>
<path opacity="0.4" d="M79.7818 110.393H68.5908L70.7541 105.082H77.6185L79.7818 110.393Z" fill="#1C2D5E"/>
<path opacity="0.2" d="M79.7818 110.393H68.5908L70.7541 105.082H77.6185L79.7818 110.393Z" fill="#FAFAFA"/>
<path opacity="0.4" d="M96.7888 110.393H79.7814L77.6182 105.082H94.6255L96.7888 110.393Z" fill="#1C2D5E"/>
<path opacity="0.3" d="M96.7888 110.393H79.7814L77.6182 105.082H94.6255L96.7888 110.393Z" fill="#1C2D5E"/>
<path opacity="0.4" d="M94.0655 110.393H82.8745L85.0378 105.082H91.9022L94.0655 110.393Z" fill="#1C2D5E"/>
<path opacity="0.2" d="M94.0655 110.393H82.8745L85.0378 105.082H91.9022L94.0655 110.393Z" fill="#FAFAFA"/>
<path opacity="0.4" d="M110.69 109.468L108.906 105.082H91.9023L94.0656 110.393H110.223C110.387 110.086 110.538 109.779 110.69 109.468Z" fill="#1C2D5E"/>
<path opacity="0.3" d="M110.69 109.468L108.906 105.082H91.9023L94.0656 110.393H110.223C110.387 110.086 110.538 109.779 110.69 109.468Z" fill="#1C2D5E"/>
<path opacity="0.4" d="M108.346 110.393H97.1548L99.3181 105.082H106.182L108.346 110.393Z" fill="#1C2D5E"/>
<path opacity="0.2" d="M108.346 110.393H97.1548L99.3181 105.082H106.182L108.346 110.393Z" fill="#FAFAFA"/>
<path opacity="0.4" d="M110.223 110.393C111.103 108.671 111.879 106.898 112.546 105.082H106.183L108.346 110.393H110.223Z" fill="#1C2D5E"/>
<path opacity="0.3" d="M110.223 110.393C111.103 108.671 111.879 106.898 112.546 105.082H106.183L108.346 110.393H110.223Z" fill="#1C2D5E"/>
<path opacity="0.4" d="M46.1454 105.085H57.6814L55.535 99.7695H41.0444C42.5968 101.678 44.3028 103.455 46.1454 105.085Z" fill="#1C2D5E"/>
<path opacity="0.3" d="M46.1454 105.085H57.6814L55.535 99.7695H41.0444C42.5968 101.678 44.3028 103.455 46.1454 105.085Z" fill="#1C2D5E"/>
<path opacity="0.4" d="M46.1455 105.085H54.9585L52.7953 99.7695H45.9308L44.4199 103.477C44.9783 104.03 45.5535 104.566 46.1455 105.085Z" fill="#1C2D5E"/>
<path opacity="0.2" d="M46.1455 105.085H54.9585L52.7953 99.7695H45.9308L44.4199 103.477C44.9783 104.03 45.5535 104.566 46.1455 105.085Z" fill="#FAFAFA"/>
<path opacity="0.4" d="M71.9656 105.085H54.9582L52.7949 99.7695H69.8023L71.9656 105.085Z" fill="#1C2D5E"/>
<path opacity="0.3" d="M71.9656 105.085H54.9582L52.7949 99.7695H69.8023L71.9656 105.085Z" fill="#1C2D5E"/>
<path opacity="0.4" d="M69.2388 105.085H58.0479L60.2111 99.7695H67.0797L69.2388 105.085Z" fill="#1C2D5E"/>
<path opacity="0.2" d="M69.2388 105.085H58.0479L60.2111 99.7695H67.0797L69.2388 105.085Z" fill="#FAFAFA"/>
<path opacity="0.4" d="M86.246 105.085H69.2387L67.0796 99.7695H84.0828L86.246 105.085Z" fill="#1C2D5E"/>
<path opacity="0.3" d="M86.246 105.085H69.2387L67.0796 99.7695H84.0828L86.246 105.085Z" fill="#1C2D5E"/>
<path opacity="0.4" d="M83.523 105.085H72.332L74.4953 99.7695H81.3597L83.523 105.085Z" fill="#1C2D5E"/>
<path opacity="0.2" d="M83.523 105.085H72.332L74.4953 99.7695H81.3597L83.523 105.085Z" fill="#FAFAFA"/>
<path opacity="0.4" d="M100.526 105.085H83.5231L81.3599 99.7695H98.363L100.526 105.085Z" fill="#1C2D5E"/>
<path opacity="0.3" d="M100.526 105.085H83.5231L81.3599 99.7695H98.363L100.526 105.085Z" fill="#1C2D5E"/>
<path opacity="0.4" d="M97.8028 105.085H86.6118L88.7751 99.7695H95.6395L97.8028 105.085Z" fill="#1C2D5E"/>
<path opacity="0.2" d="M97.8028 105.085H86.6118L88.7751 99.7695H95.6395L97.8028 105.085Z" fill="#FAFAFA"/>
<path opacity="0.4" d="M113.615 102.143L112.651 99.7695H95.6396L97.8029 105.085H112.533C112.925 104.083 113.274 103.094 113.615 102.143Z" fill="#1C2D5E"/>
<path opacity="0.3" d="M113.615 102.143L112.651 99.7695H95.6396L97.8029 105.085H112.533C112.925 104.083 113.274 103.094 113.615 102.143Z" fill="#1C2D5E"/>
<path opacity="0.4" d="M112.088 105.085H100.893L103.056 99.7695H109.924L112.088 105.085Z" fill="#1C2D5E"/>
<path opacity="0.2" d="M112.088 105.085H100.893L103.056 99.7695H109.924L112.088 105.085Z" fill="#FAFAFA"/>
<path opacity="0.4" d="M112.546 105.085C113.241 103.246 113.847 101.449 114.436 99.8579C114.444 99.8279 114.454 99.7983 114.466 99.7695H109.924L112.088 105.085H112.546Z" fill="#1C2D5E"/>
<path opacity="0.3" d="M112.546 105.085C113.241 103.246 113.847 101.449 114.436 99.8579C114.444 99.8279 114.454 99.7983 114.466 99.7695H109.924L112.088 105.085H112.546Z" fill="#1C2D5E"/>
<path opacity="0.4" d="M41.0444 99.7684H45.0385L42.8752 94.457H37.2944C38.4198 96.3123 39.6728 98.087 41.0444 99.7684Z" fill="#1C2D5E"/>
<path opacity="0.2" d="M41.0444 99.7684H45.0385L42.8752 94.457H37.2944C38.4198 96.3123 39.6728 98.087 41.0444 99.7684Z" fill="#FAFAFA"/>
<path opacity="0.4" d="M62.0457 99.7684H45.0383L42.875 94.457H59.8824L62.0457 99.7684Z" fill="#1C2D5E"/>
<path opacity="0.3" d="M62.0457 99.7684H45.0383L42.875 94.457H59.8824L62.0457 99.7684Z" fill="#1C2D5E"/>
<path opacity="0.4" d="M59.3231 99.7684H48.1279L50.2912 94.457H57.1598L59.3231 99.7684Z" fill="#1C2D5E"/>
<path opacity="0.2" d="M59.3231 99.7684H48.1279L50.2912 94.457H57.1598L59.3231 99.7684Z" fill="#FAFAFA"/>
<path opacity="0.4" d="M76.3256 99.7684H59.3225L57.1592 94.457H74.1624L76.3256 99.7684Z" fill="#1C2D5E"/>
<path opacity="0.3" d="M76.3256 99.7684H59.3225L57.1592 94.457H74.1624L76.3256 99.7684Z" fill="#1C2D5E"/>
<path opacity="0.4" d="M73.6026 99.7684H62.4116L64.5749 94.457H71.4393L73.6026 99.7684Z" fill="#1C2D5E"/>
<path opacity="0.2" d="M73.6026 99.7684H62.4116L64.5749 94.457H71.4393L73.6026 99.7684Z" fill="#FAFAFA"/>
<path opacity="0.4" d="M90.6059 99.7684H73.6027L71.4395 94.457H88.4426L90.6059 99.7684Z" fill="#1C2D5E"/>
<path opacity="0.3" d="M90.6059 99.7684H73.6027L71.4395 94.457H88.4426L90.6059 99.7684Z" fill="#1C2D5E"/>
<path opacity="0.4" d="M87.8828 99.7684H76.6919L78.8552 94.457H85.7196L87.8828 99.7684Z" fill="#1C2D5E"/>
<path opacity="0.2" d="M87.8828 99.7684H76.6919L78.8552 94.457H85.7196L87.8828 99.7684Z" fill="#FAFAFA"/>
<path opacity="0.4" d="M104.891 99.7684H87.8835L85.7202 94.457H102.728L104.891 99.7684Z" fill="#1C2D5E"/>
<path opacity="0.3" d="M104.891 99.7684H87.8835L85.7202 94.457H102.728L104.891 99.7684Z" fill="#1C2D5E"/>
<path opacity="0.4" d="M102.168 99.7684H90.9727L93.1359 94.457H100.005L102.168 99.7684Z" fill="#1C2D5E"/>
<path opacity="0.2" d="M102.168 99.7684H90.9727L93.1359 94.457H100.005L102.168 99.7684Z" fill="#FAFAFA"/>
<path opacity="0.4" d="M114.457 99.7684C115.105 98.012 115.704 96.2415 116.254 94.457H100.004L102.168 99.7684H114.457Z" fill="#1C2D5E"/>
<path opacity="0.3" d="M114.457 99.7684C115.105 98.012 115.704 96.2415 116.254 94.457H100.004L102.168 99.7684H114.457Z" fill="#1C2D5E"/>
<path opacity="0.4" d="M115.383 97.159L114.285 94.457H107.42L105.257 99.7684H114.457C114.785 98.9056 115.088 98.0344 115.383 97.159Z" fill="#1C2D5E"/>
<path opacity="0.2" d="M115.383 97.159L114.285 94.457H107.42L105.257 99.7684H114.457C114.785 98.9056 115.088 98.0344 115.383 97.159Z" fill="#FAFAFA"/>
<path opacity="0.4" d="M116.262 94.457H114.284L115.383 97.159C115.691 96.264 115.985 95.3633 116.262 94.457Z" fill="#1C2D5E"/>
<path opacity="0.3" d="M116.262 94.457H114.284L115.383 97.159C115.691 96.264 115.985 95.3633 116.262 94.457Z" fill="#1C2D5E"/>
</g>
<path d="M83.8082 9.74609C72.3102 9.74609 61.0705 13.1556 51.5102 19.5436C41.95 25.9315 34.4987 35.0109 30.0986 45.6337C25.6985 56.2565 24.5473 67.9454 26.7904 79.2225C29.0336 90.4996 34.5704 100.858 42.7007 108.989C50.831 117.119 61.1896 122.656 72.4667 124.899C83.7437 127.142 95.4327 125.991 106.055 121.591C116.678 117.19 125.758 109.739 132.146 100.179C138.534 90.6187 141.943 79.3789 141.943 67.881C141.943 52.4626 135.818 37.6758 124.916 26.7734C114.013 15.871 99.2265 9.74609 83.8082 9.74609ZM83.7325 115.431C74.319 115.43 65.1172 112.638 57.2906 107.407C49.4639 102.177 43.3641 94.7432 39.7623 86.0461C36.1605 77.3489 35.2185 67.779 37.0555 58.5465C38.8925 49.314 43.4259 40.8336 50.0825 34.1775C56.7392 27.5215 65.22 22.9888 74.4527 21.1526C83.6853 19.3165 93.2551 20.2593 101.952 23.8618C110.649 27.4644 118.082 33.565 123.312 41.392C128.542 49.2191 131.333 58.4212 131.333 67.8347C131.333 74.0854 130.102 80.275 127.709 86.0499C125.317 91.8249 121.811 97.072 117.391 101.492C112.971 105.912 107.723 109.417 101.948 111.809C96.1729 114.201 89.9833 115.431 83.7325 115.431Z" fill="#FF5C8A"/>
<path opacity="0.4" d="M83.8079 123.026C114.212 123.026 138.942 98.2871 138.942 67.8919C138.942 37.4966 114.203 12.7578 83.8079 12.7578C53.4126 12.7578 28.6738 37.4924 28.6738 67.8919C28.6738 98.2914 53.4 123.026 83.8079 123.026ZM83.8079 13.1787C98.3129 13.1976 112.218 18.9681 122.475 29.2247C132.732 39.4813 138.502 53.3868 138.521 67.8919C138.521 98.0641 113.972 122.605 83.8079 122.605C53.6441 122.605 29.0947 98.0557 29.0947 67.8919C29.0947 37.7281 53.6315 13.1618 83.8079 13.1618V13.1787Z" fill="#FAFAFA"/>
<path d="M109.777 124.13C96.3344 122.106 86.124 96.9799 86.124 67.881C86.124 38.782 96.3344 13.656 109.777 11.6316L122.306 9.74609V126.016L109.777 124.13Z" fill="#FF5C8A"/>
<path opacity="0.3" d="M109.777 124.13C96.3344 122.106 86.124 96.9799 86.124 67.881C86.124 38.782 96.3344 13.656 109.777 11.6316L122.306 9.74609V126.016L109.777 124.13Z" fill="#1C2D5E"/>
<path d="M122.306 126.016C134.432 126.016 144.263 99.988 144.263 67.881C144.263 35.774 134.432 9.74609 122.306 9.74609C110.18 9.74609 100.349 35.774 100.349 67.881C100.349 99.988 110.18 126.016 122.306 126.016Z" fill="#FF5C8A"/>
<path opacity="0.2" d="M126.372 39.0352C119.638 39.0352 114.213 51.9517 114.213 67.8858C114.213 83.82 119.655 96.7323 126.372 96.7323C133.089 96.7323 138.531 83.82 138.531 67.8858C138.531 51.9517 133.089 39.0352 126.372 39.0352ZM136.052 67.8858C136.052 72.4691 135.312 76.6357 134.1 79.7628L130.589 67.6544L134.032 55.7984C135.295 58.9423 136.069 63.1931 136.069 67.8816L136.052 67.8858ZM128.649 50.3313C130.135 50.3313 131.511 51.3667 132.669 53.1469L129.525 64.0517L125.897 51.5939C126.617 50.824 127.612 50.3689 128.666 50.3271L128.649 50.3313ZM121.255 67.8858C121.255 61.9516 122.496 56.7117 124.394 53.5341L128.502 67.6544L124.335 82.0986C122.479 78.9169 121.271 73.7359 121.271 67.8816L121.255 67.8858ZM128.649 85.4404C128.11 85.4108 127.583 85.2743 127.097 85.0387C126.612 84.8032 126.178 84.4733 125.821 84.0683L129.541 71.2444L132.786 82.4564C131.608 84.3461 130.194 85.4361 128.666 85.4361L128.649 85.4404Z" fill="#FAFAFA"/>
<path opacity="0.4" d="M122.899 124.542C113.009 124.542 102.42 101.773 102.42 67.8806C102.42 33.9878 113.009 11.2188 122.899 11.2188C132.79 11.2188 143.383 33.9878 143.383 67.8806C143.383 101.773 132.794 124.542 122.899 124.542ZM122.899 11.6396C113.219 11.6396 102.841 34.2362 102.841 67.8806C102.841 101.525 113.194 124.121 122.899 124.121C132.605 124.121 142.962 101.521 142.962 67.8806C142.962 34.2404 132.588 11.6396 122.899 11.6396Z" fill="#FAFAFA"/>
<path d="M50.5 90.8716L36.7226 81.8145C34.535 80.3728 31.8868 79.8026 29.2997 80.2163C26.7126 80.63 24.3742 81.9975 22.7452 84.0494L10.5952 99.2467C8.96492 101.292 8.15634 103.872 8.32765 106.482C8.49896 109.092 9.63783 111.544 11.5215 113.359L23.3953 124.791C24.4464 125.806 25.6979 126.59 27.0696 127.093C28.4413 127.596 29.903 127.807 31.361 127.712C32.819 127.618 34.2412 127.219 35.5363 126.543C36.8315 125.867 37.9711 124.928 38.8821 123.785L52.9055 106.205C53.82 105.066 54.4868 103.748 54.8629 102.337C55.2391 100.925 55.3165 99.4502 55.0901 98.0069C54.8636 96.5636 54.3384 95.1835 53.5481 93.9548C52.7577 92.7262 51.7195 91.676 50.5 90.8716ZM22.3347 104.317C21.3473 103.529 20.6158 102.466 20.2328 101.262C19.8497 100.058 19.8323 98.768 20.1827 97.5542C20.5332 96.3404 21.2357 95.2579 22.2015 94.4435C23.1673 93.6291 24.353 93.1194 25.6085 92.9789C26.864 92.8384 28.1329 93.0735 29.2548 93.6543C30.3767 94.2351 31.3012 95.1357 31.9112 96.242C32.5212 97.3483 32.7894 98.6106 32.6819 99.8694C32.5744 101.128 32.0959 102.327 31.3071 103.314C30.7845 103.973 30.1367 104.523 29.401 104.931C28.6652 105.34 27.856 105.599 27.0199 105.693C26.1837 105.788 25.3371 105.716 24.5287 105.483C23.7203 105.249 22.966 104.858 22.3092 104.332L22.3347 104.317Z" fill="#FF5C8A"/>
<path d="M50.5 90.8716L36.7226 81.8145C34.535 80.3728 31.8868 79.8026 29.2997 80.2163C26.7126 80.63 24.3742 81.9975 22.7452 84.0494L10.5952 99.2467C8.96492 101.292 8.15634 103.872 8.32765 106.482C8.49896 109.092 9.63783 111.544 11.5215 113.359L23.3953 124.791C24.4464 125.806 25.6979 126.59 27.0696 127.093C28.4413 127.596 29.903 127.807 31.361 127.712C32.819 127.618 34.2412 127.219 35.5363 126.543C36.8315 125.867 37.9711 124.928 38.8821 123.785L52.9055 106.205C53.82 105.066 54.4868 103.748 54.8629 102.337C55.2391 100.925 55.3165 99.4502 55.0901 98.0069C54.8636 96.5636 54.3384 95.1835 53.5481 93.9548C52.7577 92.7262 51.7195 91.676 50.5 90.8716ZM22.3347 104.317C21.3473 103.529 20.6158 102.466 20.2328 101.262C19.8497 100.058 19.8323 98.768 20.1827 97.5542C20.5332 96.3404 21.2357 95.2579 22.2015 94.4435C23.1673 93.6291 24.353 93.1194 25.6085 92.9789C26.864 92.8384 28.1329 93.0735 29.2548 93.6543C30.3767 94.2351 31.3012 95.1357 31.9112 96.242C32.5212 97.3483 32.7894 98.6106 32.6819 99.8694C32.5744 101.128 32.0959 102.327 31.3071 103.314C30.7845 103.973 30.1367 104.523 29.401 104.931C28.6652 105.34 27.856 105.599 27.0199 105.693C26.1837 105.788 25.3371 105.716 24.5287 105.483C23.7203 105.249 22.966 104.858 22.3092 104.332L22.3347 104.317Z" fill="#FF5C8A"/>
<path opacity="0.1" d="M38.8817 123.787L52.9051 106.206C53.8197 105.067 54.4864 103.75 54.8626 102.338C55.2387 100.926 55.3161 99.4515 55.0897 98.0082C54.8633 96.5649 54.338 95.1848 53.5477 93.9561C52.7573 92.7275 51.7191 91.6773 50.4996 90.8729L46.446 88.2714L43.7337 86.5201L36.6494 81.8664C34.4738 80.4402 31.8457 79.8739 29.2759 80.2777C26.7061 80.6814 24.3782 82.0262 22.7448 84.0507L10.5948 99.248C8.96454 101.293 8.15596 103.873 8.32727 106.483C8.49857 109.093 9.63744 111.545 11.5211 113.36L23.3986 124.798C24.3387 125.704 25.4411 126.424 26.6479 126.92C27.5428 127.3 28.4881 127.548 29.4543 127.656C31.2253 127.868 33.0211 127.624 34.6711 126.947C36.3212 126.27 37.7706 125.182 38.8817 123.787ZM22.3216 104.326C21.3361 103.538 20.6064 102.475 20.2246 101.272C19.8427 100.069 19.8259 98.7796 20.1762 97.567C20.5264 96.3545 21.2281 95.2729 22.1927 94.4589C23.1572 93.6449 24.3413 93.1349 25.5954 92.9933C26.8496 92.8518 28.1176 93.085 29.2393 93.6635C30.361 94.2421 31.2861 95.14 31.8979 96.2439C32.5096 97.3479 32.7806 98.6083 32.6765 99.8662C32.5724 101.124 32.098 102.323 31.3131 103.311C30.7907 103.972 30.1428 104.523 29.4066 104.932C28.6704 105.341 27.8606 105.601 27.0237 105.696C26.1868 105.791 25.3393 105.72 24.5302 105.486C23.721 105.252 22.966 104.86 22.3088 104.333L22.3216 104.326Z" fill="white"/>
<path d="M49.3487 91.7069L36.4336 83.2152C34.3853 81.8677 31.9075 81.334 29.4861 81.7186C27.0647 82.1033 24.8743 83.3786 23.3444 85.2945L11.9669 99.561C10.4303 101.477 9.66509 103.898 9.82138 106.349C9.97766 108.8 11.0442 111.105 12.8117 112.81L23.9495 123.527C24.9352 124.476 26.1081 125.209 27.3932 125.679C28.6783 126.149 30.0473 126.345 31.4127 126.256C32.7781 126.166 34.1098 125.793 35.3226 125.16C36.5354 124.526 37.6027 123.647 38.4563 122.577L51.6274 106.084C52.4829 105.014 53.1058 103.777 53.4562 102.453C53.8066 101.129 53.8768 99.7456 53.6623 98.3925C53.4479 97.0394 52.9534 95.7459 52.2107 94.5947C51.4679 93.4435 50.4931 92.4599 49.3487 91.7069ZM21.3015 95.354C22.0897 94.3672 23.1528 93.6363 24.3563 93.2536C25.5599 92.871 26.8499 92.8538 28.0633 93.2042C29.2766 93.5546 30.3588 94.2568 31.1731 95.2222C31.9874 96.1876 32.4972 97.3727 32.638 98.6277C32.7789 99.8828 32.5444 101.151 31.9644 102.273C31.3843 103.395 30.4846 104.32 29.3791 104.93C28.2736 105.541 27.0119 105.81 25.7534 105.704C24.495 105.597 23.2963 105.12 22.309 104.333C21.6522 103.81 21.1051 103.163 20.6988 102.429C20.2926 101.694 20.0353 100.887 19.9417 100.052C19.8481 99.2184 19.92 98.374 20.1534 97.5677C20.3867 96.7615 20.7769 96.0092 21.3015 95.354Z" fill="#FF5C8A"/>
<path opacity="0.1" d="M49.3487 91.7069L36.4336 83.2152C34.3853 81.8677 31.9075 81.334 29.4861 81.7186C27.0647 82.1033 24.8743 83.3786 23.3444 85.2945L11.9669 99.561C10.4303 101.477 9.66509 103.898 9.82138 106.349C9.97766 108.8 11.0442 111.105 12.8117 112.81L23.9495 123.527C24.9352 124.476 26.1081 125.209 27.3932 125.679C28.6783 126.149 30.0473 126.345 31.4127 126.256C32.7781 126.166 34.1098 125.793 35.3226 125.16C36.5354 124.526 37.6027 123.647 38.4563 122.577L51.6274 106.084C52.4829 105.014 53.1058 103.777 53.4562 102.453C53.8066 101.129 53.8768 99.7456 53.6623 98.3925C53.4479 97.0394 52.9534 95.7459 52.2107 94.5947C51.4679 93.4435 50.4931 92.4599 49.3487 91.7069ZM21.3015 95.354C22.0897 94.3672 23.1528 93.6363 24.3563 93.2536C25.5599 92.871 26.8499 92.8538 28.0633 93.2042C29.2766 93.5546 30.3588 94.2568 31.1731 95.2222C31.9874 96.1876 32.4972 97.3727 32.638 98.6277C32.7789 99.8828 32.5444 101.151 31.9644 102.273C31.3843 103.395 30.4846 104.32 29.3791 104.93C28.2736 105.541 27.0119 105.81 25.7534 105.704C24.495 105.597 23.2963 105.12 22.309 104.333C21.6522 103.81 21.1051 103.163 20.6988 102.429C20.2926 101.694 20.0353 100.887 19.9417 100.052C19.8481 99.2184 19.92 98.374 20.1534 97.5677C20.3867 96.7615 20.7769 96.0092 21.3015 95.354Z" fill="#FF5C8A"/>
<path d="M89.3582 147.863L88.5103 147.868L88.0224 147.877L86.6347 147.904L84.0762 149.705C83.9696 149.784 83.8464 149.837 83.716 149.862C83.5758 149.89 83.4312 149.888 83.292 149.855C83.1528 149.823 83.0223 149.76 82.9093 149.673L78.0285 145.771C77.916 145.682 77.8251 145.569 77.7625 145.44C77.6999 145.312 77.6673 145.17 77.667 145.027C77.6615 144.935 77.6716 144.843 77.6968 144.755L78.9531 140.227L75.0222 137.087L73.8619 138.54L69.9411 135.402L68.0284 137.791L65.141 135.486C65.0261 135.393 64.9321 135.278 64.865 135.146C64.798 135.015 64.7595 134.871 64.752 134.724C64.7442 134.624 64.7527 134.525 64.7772 134.428L65.4004 131.78L61.4759 128.637L59.567 131.032L55.4353 127.735L53.5199 130.134C53.4457 130.228 53.3536 130.306 53.2489 130.364C53.1443 130.422 53.0293 130.458 52.9104 130.472C52.7916 130.485 52.6712 130.474 52.5564 130.441C52.4416 130.408 52.3346 130.352 52.2414 130.277L40.9375 121.246L50.9312 108.723L91.8347 141.398L91.8649 142.231L91.9951 145.005C92.018 145.368 91.9672 145.732 91.8456 146.074C91.724 146.417 91.5343 146.731 91.2878 146.998C91.0413 147.265 90.7432 147.48 90.4116 147.628C90.0799 147.777 89.7216 147.857 89.3582 147.863Z" fill="#FF5C8A"/>
<g opacity="0.1">
<path opacity="0.1" d="M89.3582 147.863L88.5103 147.868L88.0224 147.877L86.6347 147.904L84.0762 149.705C83.9696 149.784 83.8464 149.837 83.716 149.862C83.5758 149.89 83.4312 149.888 83.292 149.855C83.1528 149.823 83.0223 149.76 82.9093 149.673L78.0285 145.771C77.916 145.682 77.8251 145.569 77.7625 145.44C77.6999 145.312 77.6673 145.17 77.667 145.027C77.6615 144.935 77.6716 144.843 77.6968 144.755L78.9531 140.227L75.0222 137.087L73.8619 138.54L69.9411 135.402L68.0284 137.791L65.141 135.486C65.0261 135.393 64.9321 135.278 64.865 135.146C64.798 135.015 64.7595 134.871 64.752 134.724C64.7442 134.624 64.7527 134.525 64.7772 134.428L65.4004 131.78L61.4759 128.637L59.567 131.032L55.4353 127.735L53.5199 130.134C53.4457 130.228 53.3536 130.306 53.2489 130.364C53.1443 130.422 53.0293 130.458 52.9104 130.472C52.7916 130.485 52.6712 130.474 52.5564 130.441C52.4416 130.408 52.3346 130.352 52.2414 130.277L40.9375 121.246L50.9312 108.723L91.8347 141.398L91.8649 142.231L91.9951 145.005C92.018 145.368 91.9672 145.732 91.8456 146.074C91.724 146.417 91.5343 146.731 91.2878 146.998C91.0413 147.265 90.7432 147.48 90.4116 147.628C90.0799 147.777 89.7216 147.857 89.3582 147.863Z" fill="white"/>
</g>
<path d="M90.7176 146.859L46.9853 111.921L49.5439 108.692L91.2377 142L91.378 144.777C91.4284 145.836 91.3081 146.527 90.7176 146.859Z" fill="#FF5C8A"/>
<path opacity="0.1" d="M90.7176 146.859L46.9853 111.921L49.5439 108.692L91.2377 142L91.378 144.777C91.4284 145.836 91.3081 146.527 90.7176 146.859Z" fill="black"/>
<path d="M87.7278 147.426L86.495 147.56C86.476 147.566 86.4586 147.576 86.4439 147.589L83.921 149.377C83.8354 149.449 83.7383 149.505 83.6339 149.543C83.6156 149.548 83.5962 149.549 83.5776 149.545C83.5589 149.541 83.5416 149.532 83.5269 149.52L78.207 145.285C78.1913 145.276 78.1783 145.263 78.1692 145.247C78.1602 145.231 78.1554 145.214 78.1554 145.196C78.1567 145.122 78.169 145.049 78.1919 144.979L79.5312 140.021C79.533 139.999 79.5279 139.976 79.5167 139.957C79.5055 139.938 79.4888 139.922 79.4686 139.912L75.1425 136.456C75.1171 136.438 75.086 136.43 75.0551 136.434C75.0242 136.437 74.9958 136.452 74.9754 136.476L73.935 137.783C73.9255 137.795 73.9135 137.805 73.8999 137.813C73.8863 137.821 73.8712 137.826 73.8557 137.828C73.8401 137.829 73.8243 137.828 73.8093 137.824C73.7942 137.82 73.7801 137.812 73.7679 137.803L70.0837 134.869C70.0715 134.859 70.0574 134.852 70.0424 134.847C70.0273 134.843 70.0115 134.842 69.996 134.844C69.9804 134.845 69.9654 134.85 69.9517 134.858C69.9381 134.866 69.9262 134.876 69.9166 134.889L68.1276 137.138C68.1188 137.151 68.1071 137.162 68.0935 137.171C68.0798 137.179 68.0645 137.184 68.0486 137.186C68.0328 137.188 68.0166 137.187 68.0014 137.182C67.9862 137.177 67.9722 137.169 67.9605 137.158L65.2574 135.01C65.2417 135.001 65.2287 134.988 65.2197 134.972C65.2106 134.956 65.2059 134.939 65.2059 134.921C65.2053 134.843 65.2151 134.766 65.235 134.691L65.9319 131.567C65.9319 131.546 65.9265 131.526 65.9161 131.508C65.9058 131.49 65.8909 131.475 65.873 131.465L61.579 128.049C61.5673 128.039 61.5533 128.03 61.5381 128.025C61.5229 128.02 61.5068 128.019 61.4909 128.021C61.475 128.023 61.4597 128.028 61.4461 128.036C61.4324 128.045 61.4208 128.056 61.4119 128.069L59.5766 130.371C59.5677 130.384 59.5561 130.395 59.5424 130.404C59.5288 130.412 59.5135 130.418 59.4976 130.419C59.4817 130.421 59.4656 130.42 59.4504 130.415C59.4352 130.41 59.4212 130.402 59.4095 130.391L42.9296 117.272C42.907 117.252 42.8927 117.224 42.8896 117.195C42.8866 117.165 42.8951 117.135 42.9134 117.111L46.1975 112.884C46.2179 112.861 46.2463 112.846 46.2772 112.842C46.3081 112.838 46.3392 112.846 46.3646 112.864L89.3123 147.047C89.3305 147.062 89.3438 147.082 89.3505 147.105C89.3571 147.128 89.3569 147.152 89.3497 147.174C89.3425 147.197 89.3287 147.216 89.3102 147.231C89.2916 147.246 89.2691 147.254 89.2456 147.256L87.7278 147.426Z" fill="#FF5C8A"/>
<path opacity="0.1" d="M87.7278 147.426L86.495 147.56C86.476 147.566 86.4586 147.576 86.4439 147.589L83.921 149.377C83.8354 149.449 83.7383 149.505 83.6339 149.543C83.6156 149.548 83.5962 149.549 83.5776 149.545C83.5589 149.541 83.5416 149.532 83.5269 149.52L78.207 145.285C78.1913 145.276 78.1783 145.263 78.1692 145.247C78.1602 145.231 78.1554 145.214 78.1554 145.196C78.1567 145.122 78.169 145.049 78.1919 144.979L79.5312 140.021C79.533 139.999 79.5279 139.976 79.5167 139.957C79.5055 139.938 79.4888 139.922 79.4686 139.912L75.1425 136.456C75.1171 136.438 75.086 136.43 75.0551 136.434C75.0242 136.437 74.9958 136.452 74.9754 136.476L73.935 137.783C73.9255 137.795 73.9135 137.805 73.8999 137.813C73.8863 137.821 73.8712 137.826 73.8557 137.828C73.8401 137.829 73.8243 137.828 73.8093 137.824C73.7942 137.82 73.7801 137.812 73.7679 137.803L70.0837 134.869C70.0715 134.859 70.0574 134.852 70.0424 134.847C70.0273 134.843 70.0115 134.842 69.996 134.844C69.9804 134.845 69.9654 134.85 69.9517 134.858C69.9381 134.866 69.9262 134.876 69.9166 134.889L68.1276 137.138C68.1188 137.151 68.1071 137.162 68.0935 137.171C68.0798 137.179 68.0645 137.184 68.0486 137.186C68.0328 137.188 68.0166 137.187 68.0014 137.182C67.9862 137.177 67.9722 137.169 67.9605 137.158L65.2574 135.01C65.2417 135.001 65.2287 134.988 65.2197 134.972C65.2106 134.956 65.2059 134.939 65.2059 134.921C65.2053 134.843 65.2151 134.766 65.235 134.691L65.9319 131.567C65.9319 131.546 65.9265 131.526 65.9161 131.508C65.9058 131.49 65.8909 131.475 65.873 131.465L61.579 128.049C61.5673 128.039 61.5533 128.03 61.5381 128.025C61.5229 128.02 61.5068 128.019 61.4909 128.021C61.475 128.023 61.4597 128.028 61.4461 128.036C61.4324 128.045 61.4208 128.056 61.4119 128.069L59.5766 130.371C59.5677 130.384 59.5561 130.395 59.5424 130.404C59.5288 130.412 59.5135 130.418 59.4976 130.419C59.4817 130.421 59.4656 130.42 59.4504 130.415C59.4352 130.41 59.4212 130.402 59.4095 130.391L42.9296 117.272C42.907 117.252 42.8927 117.224 42.8896 117.195C42.8866 117.165 42.8951 117.135 42.9134 117.111L46.1975 112.884C46.2179 112.861 46.2463 112.846 46.2772 112.842C46.3081 112.838 46.3392 112.846 46.3646 112.864L89.3123 147.047C89.3305 147.062 89.3438 147.082 89.3505 147.105C89.3571 147.128 89.3569 147.152 89.3497 147.174C89.3425 147.197 89.3287 147.216 89.3102 147.231C89.2916 147.246 89.2691 147.254 89.2456 147.256L87.7278 147.426Z" fill="black"/>
<path opacity="0.3" d="M31.4436 93.2245C30.2055 92.2381 28.7028 91.6408 27.1254 91.508C25.548 91.3753 23.9666 91.7132 22.5811 92.4789C21.1956 93.2446 20.0681 94.4037 19.3412 95.81C18.6143 97.2162 18.3205 98.8064 18.497 100.379C18.6734 101.953 19.3122 103.438 20.3327 104.648C21.3531 105.859 22.7094 106.739 24.2301 107.179C25.7508 107.619 27.3677 107.598 28.8765 107.119C30.3854 106.64 31.7184 105.724 32.7071 104.488C33.3665 103.667 33.8571 102.723 34.1506 101.712C34.4441 100.7 34.5347 99.6403 34.4173 98.5936C34.2999 97.5469 33.9767 96.5337 33.4664 95.6122C32.9561 94.6908 32.2686 93.8794 31.4436 93.2245ZM22.2961 104.341C21.3087 103.553 20.5772 102.49 20.1941 101.286C19.8111 100.082 19.7936 98.7913 20.1441 97.5776C20.4945 96.3638 21.1971 95.2813 22.1629 94.4669C23.1287 93.6525 24.3143 93.1428 25.5698 93.0023C26.8253 92.8618 28.0943 93.0969 29.2162 93.6777C30.3381 94.2585 31.2625 95.1591 31.8725 96.2654C32.4826 97.3717 32.7508 98.634 32.6432 99.8928C32.5357 101.152 32.0573 102.35 31.2684 103.337C30.2106 104.654 28.6738 105.499 26.9945 105.686C25.3152 105.873 23.6303 105.386 22.3088 104.333L22.2961 104.341Z" fill="white"/>
<path opacity="0.1" d="M29.4649 127.659C28.5001 127.554 27.556 127.308 26.6621 126.93L43.7879 86.4812C43.7879 86.4812 45.9697 87.9178 46.5411 88.2003C46.5094 88.2234 46.483 88.2532 46.4638 88.2874C44.9067 90.4963 31.9085 122.021 29.4649 127.659Z" fill="white"/>
<path opacity="0.1" d="M24.8023 125.919C24.6574 125.815 18.7662 120.311 18.7662 120.311L24.3241 107.176C26.0955 107.651 27.9763 107.504 29.6521 106.759C31.3278 106.014 32.697 104.716 33.5306 103.082C34.3642 101.448 34.6118 99.5781 34.2319 97.7839C33.852 95.9897 32.8676 94.3803 31.4434 93.2247C31.1504 92.9833 30.836 92.7691 30.5041 92.5848L35.4236 80.9665C35.4236 80.9665 41.52 85.1615 42.3222 85.549C41.1904 86.432 25.0574 125.772 24.8023 125.919Z" fill="white"/>
<path opacity="0.1" d="M42.3789 74.3055C42.4177 74.283 42.4371 74.2718 42.4436 74.2681C42.5608 74.3815 42.5238 74.3771 42.3789 74.3055Z" fill="white"/>
</svg>
