<svg width="147" height="129" viewBox="0 0 147 129" fill="none" xmlns="http://www.w3.org/2000/svg">
<path d="M142.336 18.7969H21.9097V103.144H142.336V18.7969Z" fill="#F5F5F5"/>
<path d="M146.261 103.145H17.9834V107.877H146.261V103.145Z" fill="#FF5C8A"/>
<path d="M64.7484 46.1445H40.61C40.2426 46.1445 39.9448 47.1106 39.9448 48.3023V48.4004C39.9448 49.5921 40.2426 50.5582 40.61 50.5582H64.7484C65.1158 50.5582 65.4136 49.5921 65.4136 48.4004V48.3023C65.4136 47.1106 65.1158 46.1445 64.7484 46.1445Z" fill="#FF5C8A"/>
<path d="M94.2172 46.1445H70.0787C69.7114 46.1445 69.4136 47.1106 69.4136 48.3023V48.4004C69.4136 49.5921 69.7114 50.5582 70.0787 50.5582H94.2172C94.5845 50.5582 94.8823 49.5921 94.8823 48.4004V48.3023C94.8823 47.1106 94.5845 46.1445 94.2172 46.1445Z" fill="#FF5C8A"/>
<path d="M123.686 46.1445H99.5475C99.1801 46.1445 98.8823 47.1106 98.8823 48.3023V48.4004C98.8823 49.5921 99.1801 50.5582 99.5475 50.5582H123.686C124.053 50.5582 124.351 49.5921 124.351 48.4004V48.3023C124.351 47.1106 124.053 46.1445 123.686 46.1445Z" fill="#FF5C8A"/>
<path d="M64.7484 54.5586H40.61C40.2426 54.5586 39.9448 55.5247 39.9448 56.7164V56.8144C39.9448 58.0061 40.2426 58.9722 40.61 58.9722H64.7484C65.1158 58.9722 65.4136 58.0061 65.4136 56.8144V56.7164C65.4136 55.5247 65.1158 54.5586 64.7484 54.5586Z" fill="#FF5C8A"/>
<path d="M94.2172 54.5586H70.0787C69.7114 54.5586 69.4136 55.5247 69.4136 56.7164V56.8144C69.4136 58.0061 69.7114 58.9722 70.0787 58.9722H94.2172C94.5845 58.9722 94.8823 58.0061 94.8823 56.8144V56.7164C94.8823 55.5247 94.5845 54.5586 94.2172 54.5586Z" fill="#FF5C8A"/>
<path d="M123.686 54.5586H99.5475C99.1801 54.5586 98.8823 55.5247 98.8823 56.7164V56.8144C98.8823 58.0061 99.1801 58.9722 99.5475 58.9722H123.686C124.053 58.9722 124.351 58.0061 124.351 56.8144V56.7164C124.351 55.5247 124.053 54.5586 123.686 54.5586Z" fill="#FF5C8A"/>
<path d="M64.7484 62.9727H40.61C40.2426 62.9727 39.9448 63.9387 39.9448 65.1304V65.2285C39.9448 66.4202 40.2426 67.3863 40.61 67.3863H64.7484C65.1158 67.3863 65.4136 66.4202 65.4136 65.2285V65.1304C65.4136 63.9387 65.1158 62.9727 64.7484 62.9727Z" fill="#FF5C8A"/>
<path d="M94.2172 62.9727H70.0787C69.7114 62.9727 69.4136 63.9387 69.4136 65.1304V65.2285C69.4136 66.4202 69.7114 67.3863 70.0787 67.3863H94.2172C94.5845 67.3863 94.8823 66.4202 94.8823 65.2285V65.1304C94.8823 63.9387 94.5845 62.9727 94.2172 62.9727Z" fill="#FF5C8A"/>
<path d="M123.686 62.9727H99.5475C99.1801 62.9727 98.8823 63.9387 98.8823 65.1304V65.2285C98.8823 66.4202 99.1801 67.3863 99.5475 67.3863H123.686C124.053 67.3863 124.351 66.4202 124.351 65.2285V65.1304C124.351 63.9387 124.053 62.9727 123.686 62.9727Z" fill="#FF5C8A"/>
<path d="M64.7484 71.3867H40.61C40.2426 71.3867 39.9448 72.3528 39.9448 73.5445V73.6426C39.9448 74.8343 40.2426 75.8003 40.61 75.8003H64.7484C65.1158 75.8003 65.4136 74.8343 65.4136 73.6426V73.5445C65.4136 72.3528 65.1158 71.3867 64.7484 71.3867Z" fill="#FF5C8A"/>
<path d="M94.2172 71.3867H70.0787C69.7114 71.3867 69.4136 72.3528 69.4136 73.5445V73.6426C69.4136 74.8343 69.7114 75.8003 70.0787 75.8003H94.2172C94.5845 75.8003 94.8823 74.8343 94.8823 73.6426V73.5445C94.8823 72.3528 94.5845 71.3867 94.2172 71.3867Z" fill="#FF5C8A"/>
<path d="M123.686 71.3867H99.5475C99.1801 71.3867 98.8823 72.3528 98.8823 73.5445V73.6426C98.8823 74.8343 99.1801 75.8003 99.5475 75.8003H123.686C124.053 75.8003 124.351 74.8343 124.351 73.6426V73.5445C124.351 72.3528 124.053 71.3867 123.686 71.3867Z" fill="#FF5C8A"/>
<path d="M118.995 11.2344H117.617V11.584H118.995V11.2344Z" fill="#FF5C8A"/>
<path d="M124.914 11.2344H120.421V11.584H124.914V11.2344Z" fill="#FF5C8A"/>
<path d="M133.139 9.26768L132.268 19.2326C132.223 19.673 132.018 20.0816 131.692 20.3811C131.366 20.6807 130.941 20.8505 130.499 20.8584C130.29 20.8621 130.084 20.8214 129.892 20.7391C129.701 20.6568 129.529 20.5346 129.389 20.3809C129.248 20.2271 129.142 20.0452 129.077 19.8472C129.012 19.6492 128.99 19.4397 129.013 19.2326L129.876 9.26768C129.957 8.52446 129.878 7.77265 129.646 7.06211C129.414 6.35156 129.033 5.69853 128.529 5.14635C128.025 4.59416 127.409 4.15544 126.723 3.85929C126.037 3.56314 125.295 3.41633 124.548 3.4286H120.995C119.407 3.45866 117.884 4.0691 116.714 5.14476C115.544 6.22042 114.809 7.68694 114.646 9.26768L114.296 13.3376H111.044L111.394 9.26768C111.831 4.25376 116.268 0.176898 121.279 0.176898H124.845C126.009 0.157703 127.163 0.386231 128.232 0.847309C129.3 1.30839 130.258 1.99147 131.043 2.85122C131.827 3.71097 132.42 4.72771 132.781 5.83397C133.142 6.94023 133.264 8.1107 133.139 9.26768Z" fill="#FF5C8A"/>
<g opacity="0.5">
<path opacity="0.5" d="M133.138 9.26768L132.267 19.2326C132.222 19.673 132.017 20.0816 131.691 20.3811C131.365 20.6807 130.941 20.8505 130.498 20.8584C130.29 20.8621 130.083 20.8214 129.892 20.7391C129.701 20.6568 129.529 20.5346 129.388 20.3809C129.248 20.2271 129.142 20.0452 129.077 19.8472C129.012 19.6492 128.99 19.4397 129.012 19.2326L129.876 9.26768C129.956 8.52446 129.878 7.77265 129.645 7.06211C129.413 6.35156 129.032 5.69853 128.528 5.14635C128.025 4.59416 127.409 4.15544 126.723 3.85929C126.036 3.56314 125.295 3.41633 124.547 3.4286H120.995C119.406 3.45866 117.883 4.0691 116.713 5.14476C115.544 6.22042 114.808 7.68694 114.645 9.26768L114.296 13.3376H111.044L111.394 9.26768C111.831 4.25376 116.268 0.176898 121.278 0.176898H124.844C126.008 0.157703 127.162 0.386231 128.231 0.847309C129.3 1.30839 130.258 1.99147 131.042 2.85122C131.827 3.71097 132.419 4.72771 132.78 5.83397C133.142 6.94023 133.264 8.1107 133.138 9.26768Z" fill="white"/>
</g>
<path d="M133.372 14.8671L131.676 34.2864C131.615 34.8885 131.335 35.4471 130.889 35.8563C130.443 36.2655 129.862 36.4969 129.257 36.5066H109.838C109.553 36.5118 109.271 36.4563 109.01 36.3439C108.748 36.2315 108.514 36.0647 108.322 35.8546C108.13 35.6446 107.985 35.3961 107.897 35.1257C107.809 34.8553 107.779 34.5692 107.81 34.2864L109.509 14.8671C109.548 14.4799 109.678 14.1074 109.888 13.7799C110.098 13.4524 110.383 13.1792 110.719 12.9825C111.083 12.7593 111.501 12.6385 111.928 12.6328H131.344C131.741 12.6307 132.13 12.741 132.467 12.951C132.781 13.1547 133.032 13.4418 133.192 13.7803C133.352 14.1188 133.414 14.4951 133.372 14.8671Z" fill="#FF5C8A"/>
<path d="M113.18 23.3524L118.226 31.118L134.865 14.4784C134.891 14.4476 134.905 14.4085 134.904 14.3684C134.903 14.3282 134.888 14.2896 134.862 14.2596C134.835 14.2295 134.799 14.21 134.759 14.2046C134.719 14.1993 134.679 14.2083 134.645 14.2302L118.788 26.6601L115.792 21.8315L113.18 23.3524Z" fill="white"/>
<path d="M32.2566 74.819L23.3764 68.9813C21.9663 68.052 20.2594 67.6845 18.5919 67.9512C16.9244 68.2178 15.4172 69.0992 14.3672 70.4218L6.53591 80.2173C5.48509 81.5356 4.96392 83.1985 5.07434 84.8808C5.18476 86.563 5.91882 88.1436 7.13294 89.3132L14.7862 96.6817C15.4637 97.3359 16.2704 97.8413 17.1545 98.1656C18.0387 98.4898 18.9808 98.6258 19.9206 98.5648C20.8603 98.5038 21.777 98.2471 22.6118 97.8113C23.4466 97.3754 24.1811 96.7699 24.7683 96.0337L33.8071 84.7023C34.3966 83.968 34.8263 83.1187 35.0688 82.2088C35.3112 81.2989 35.3611 80.3484 35.2152 79.4181C35.0692 78.4879 34.7307 77.5983 34.2213 76.8064C33.7118 76.0144 33.0427 75.3375 32.2566 74.819ZM14.1026 83.4856C13.4662 82.9776 12.9947 82.2923 12.7478 81.5164C12.5009 80.7404 12.4897 79.9087 12.7156 79.1263C12.9414 78.344 13.3943 77.6462 14.0168 77.1213C14.6393 76.5964 15.4035 76.2679 16.2127 76.1773C17.022 76.0868 17.8399 76.2383 18.563 76.6127C19.2861 76.987 19.882 77.5675 20.2752 78.2805C20.6684 78.9936 20.8412 79.8073 20.7719 80.6186C20.7026 81.4299 20.3942 82.2025 19.8858 82.8385C19.549 83.2636 19.1314 83.618 18.6572 83.8812C18.183 84.1444 17.6614 84.3113 17.1225 84.3724C16.5835 84.4334 16.0378 84.3873 15.5168 84.2367C14.9957 84.0862 14.5095 83.8341 14.0862 83.4951L14.1026 83.4856Z" fill="#FF5C8A"/>
<path d="M32.2566 74.819L23.3764 68.9813C21.9663 68.052 20.2594 67.6845 18.5919 67.9512C16.9244 68.2178 15.4172 69.0992 14.3672 70.4218L6.53591 80.2173C5.48509 81.5356 4.96392 83.1985 5.07434 84.8808C5.18476 86.563 5.91882 88.1436 7.13294 89.3132L14.7862 96.6817C15.4637 97.3359 16.2704 97.8413 17.1545 98.1656C18.0387 98.4898 18.9808 98.6258 19.9206 98.5648C20.8603 98.5038 21.777 98.2471 22.6118 97.8113C23.4466 97.3754 24.1811 96.7699 24.7683 96.0337L33.8071 84.7023C34.3966 83.968 34.8263 83.1187 35.0688 82.2088C35.3112 81.2989 35.3611 80.3484 35.2152 79.4181C35.0692 78.4879 34.7307 77.5983 34.2213 76.8064C33.7118 76.0144 33.0427 75.3375 32.2566 74.819ZM14.1026 83.4856C13.4662 82.9776 12.9947 82.2923 12.7478 81.5164C12.5009 80.7404 12.4897 79.9087 12.7156 79.1263C12.9414 78.344 13.3943 77.6462 14.0168 77.1213C14.6393 76.5964 15.4035 76.2679 16.2127 76.1773C17.022 76.0868 17.8399 76.2383 18.563 76.6127C19.2861 76.987 19.882 77.5675 20.2752 78.2805C20.6684 78.9936 20.8412 79.8073 20.7719 80.6186C20.7026 81.4299 20.3942 82.2025 19.8858 82.8385C19.549 83.2636 19.1314 83.618 18.6572 83.8812C18.183 84.1444 17.6614 84.3113 17.1225 84.3724C16.5835 84.4334 16.0378 84.3873 15.5168 84.2367C14.9957 84.0862 14.5095 83.8341 14.0862 83.4951L14.1026 83.4856Z" fill="#FF5C8A"/>
<path opacity="0.1" d="M24.7684 96.0364L33.8071 84.705C34.3966 83.9707 34.8264 83.1215 35.0688 82.2116C35.3113 81.3017 35.3612 80.3512 35.2152 79.4209C35.0693 78.4906 34.7308 77.601 34.2213 76.8091C33.7119 76.0172 33.0427 75.3403 32.2567 74.8218L29.6439 73.145L27.8957 72.0162L23.3295 69.0166C21.9272 68.0974 20.2333 67.7324 18.5769 67.9926C16.9206 68.2528 15.4201 69.1196 14.3673 70.4246L6.53599 80.22C5.48517 81.5383 4.964 83.2013 5.07442 84.8835C5.18483 86.5658 5.9189 88.1463 7.13302 89.316L14.7887 96.6886C15.3946 97.2721 16.1052 97.736 16.883 98.0561C17.4598 98.3011 18.0692 98.4609 18.6919 98.5304C19.8334 98.6673 20.9909 98.51 22.0544 98.0734C23.1179 97.6369 24.0522 96.9357 24.7684 96.0364ZM14.0945 83.4931C13.4593 82.9848 12.989 82.2997 12.7429 81.5244C12.4967 80.749 12.4859 79.9181 12.7117 79.1365C12.9374 78.355 13.3897 77.6579 14.0114 77.1332C14.6331 76.6085 15.3963 76.2798 16.2046 76.1885C17.013 76.0973 17.8303 76.2476 18.5533 76.6205C19.2763 76.9934 19.8726 77.5722 20.2669 78.2837C20.6612 78.9953 20.8359 79.8077 20.7688 80.6184C20.7017 81.4292 20.3959 82.2018 19.89 82.8389C19.5533 83.2648 19.1356 83.6198 18.6612 83.8836C18.1867 84.1475 17.6647 84.3148 17.1252 84.3761C16.5858 84.4373 16.0396 84.3912 15.518 84.2405C14.9965 84.0898 14.5099 83.8374 14.0863 83.4978L14.0945 83.4931Z" fill="white"/>
<path d="M31.5149 75.3583L23.1905 69.8849C21.8702 69.0164 20.2732 68.6724 18.7125 68.9203C17.1517 69.1682 15.7399 69.9902 14.7538 71.2251L7.42045 80.4206C6.43002 81.6556 5.93679 83.2161 6.03752 84.796C6.13825 86.3759 6.82568 87.8611 7.96494 88.9603L15.1439 95.8681C15.7792 96.4798 16.5352 96.9521 17.3635 97.255C18.1918 97.5578 19.0742 97.6845 19.9542 97.6269C20.8343 97.5693 21.6926 97.3286 22.4744 96.9203C23.2561 96.512 23.9441 95.9451 24.4942 95.2558L32.9837 84.6253C33.5351 83.9356 33.9366 83.1384 34.1624 82.2847C34.3883 81.4311 34.4335 80.5397 34.2953 79.6675C34.1571 78.7953 33.8384 77.9616 33.3596 77.2196C32.8809 76.4776 32.2526 75.8437 31.5149 75.3583ZM13.437 77.709C13.9451 77.073 14.6303 76.6019 15.4061 76.3552C16.1818 76.1086 17.0133 76.0975 17.7954 76.3233C18.5774 76.5492 19.275 77.0018 19.7998 77.6241C20.3247 78.2463 20.6533 79.0102 20.744 79.8191C20.8348 80.6281 20.6837 81.4458 20.3098 82.1689C19.936 82.8919 19.3561 83.4879 18.6435 83.8815C17.931 84.2751 17.1177 84.4485 16.3066 84.38C15.4954 84.3114 14.7228 84.0039 14.0865 83.4963C13.6631 83.1594 13.3104 82.7423 13.0486 82.2689C12.7868 81.7955 12.6209 81.2751 12.5606 80.7374C12.5003 80.1998 12.5466 79.6556 12.697 79.1359C12.8474 78.6162 13.0989 78.1313 13.437 77.709Z" fill="#FF5C8A"/>
<path opacity="0.1" d="M31.5149 75.3583L23.1905 69.8849C21.8702 69.0164 20.2732 68.6724 18.7125 68.9203C17.1517 69.1682 15.7399 69.9902 14.7538 71.2251L7.42045 80.4206C6.43002 81.6556 5.93679 83.2161 6.03752 84.796C6.13825 86.3759 6.82568 87.8611 7.96494 88.9603L15.1439 95.8681C15.7792 96.4798 16.5352 96.9521 17.3635 97.255C18.1918 97.5578 19.0742 97.6845 19.9542 97.6269C20.8343 97.5693 21.6926 97.3286 22.4744 96.9203C23.2561 96.512 23.9441 95.9451 24.4942 95.2558L32.9837 84.6253C33.5351 83.9356 33.9366 83.1384 34.1624 82.2847C34.3883 81.4311 34.4335 80.5397 34.2953 79.6675C34.1571 78.7953 33.8384 77.9616 33.3596 77.2196C32.8809 76.4776 32.2526 75.8437 31.5149 75.3583ZM13.437 77.709C13.9451 77.073 14.6303 76.6019 15.4061 76.3552C16.1818 76.1086 17.0133 76.0975 17.7954 76.3233C18.5774 76.5492 19.275 77.0018 19.7998 77.6241C20.3247 78.2463 20.6533 79.0102 20.744 79.8191C20.8348 80.6281 20.6837 81.4458 20.3098 82.1689C19.936 82.8919 19.3561 83.4879 18.6435 83.8815C17.931 84.2751 17.1177 84.4485 16.3066 84.38C15.4954 84.3114 14.7228 84.0039 14.0865 83.4963C13.6631 83.1594 13.3104 82.7423 13.0486 82.2689C12.7868 81.7955 12.6209 81.2751 12.5606 80.7374C12.5003 80.1998 12.5466 79.6556 12.697 79.1359C12.8474 78.6162 13.0989 78.1313 13.437 77.709Z" fill="#FF5C8A"/>
<path d="M57.3025 111.555L56.756 111.558L56.4416 111.564L55.5471 111.581L53.898 112.742C53.8293 112.793 53.7499 112.827 53.6659 112.843C53.5755 112.861 53.4823 112.86 53.3926 112.839C53.3028 112.818 53.2187 112.778 53.1459 112.721L49.9999 110.206C49.9275 110.149 49.8689 110.076 49.8285 109.993C49.7882 109.91 49.7671 109.819 49.7669 109.727C49.7634 109.668 49.7699 109.608 49.7862 109.551L50.5959 106.633L48.0622 104.609L47.3144 105.545L44.7872 103.523L43.5544 105.063L41.6933 103.577C41.6192 103.517 41.5586 103.443 41.5154 103.358C41.4722 103.273 41.4474 103.181 41.4426 103.086C41.4375 103.022 41.443 102.957 41.4588 102.895L41.8605 101.189L39.331 99.1623L38.1005 100.706L35.4374 98.5813L34.2029 100.127C34.155 100.188 34.0957 100.238 34.0282 100.276C33.9608 100.313 33.8867 100.336 33.8101 100.345C33.7334 100.354 33.6559 100.347 33.5819 100.325C33.5079 100.304 33.4389 100.268 33.3789 100.219L26.0929 94.3987L32.5343 86.3267L58.8988 107.388L58.9182 107.925L59.0022 109.713C59.0169 109.947 58.9842 110.181 58.9058 110.402C58.8274 110.622 58.7051 110.825 58.5463 110.997C58.3874 111.169 58.1953 111.308 57.9815 111.403C57.7677 111.499 57.5368 111.551 57.3025 111.555Z" fill="#FF5C8A"/>
<g opacity="0.1">
<path opacity="0.1" d="M57.303 111.555L56.7565 111.558L56.4421 111.564L55.5476 111.581L53.8985 112.742C53.8298 112.793 53.7504 112.827 53.6663 112.843C53.576 112.861 53.4828 112.86 53.3931 112.839C53.3033 112.818 53.2192 112.778 53.1464 112.721L50.0004 110.206C49.928 110.149 49.8694 110.076 49.829 109.993C49.7887 109.91 49.7676 109.819 49.7674 109.727C49.7639 109.668 49.7704 109.608 49.7867 109.551L50.5964 106.633L48.0627 104.609L47.3149 105.545L44.7877 103.523L43.5549 105.063L41.6938 103.577C41.6197 103.517 41.5591 103.443 41.5159 103.358C41.4727 103.273 41.4479 103.181 41.4431 103.086C41.438 103.022 41.4435 102.957 41.4593 102.895L41.861 101.189L39.3315 99.1623L38.101 100.706L35.4379 98.5813L34.2034 100.127C34.1555 100.188 34.0962 100.238 34.0287 100.276C33.9613 100.313 33.8871 100.336 33.8105 100.345C33.7339 100.354 33.6564 100.347 33.5824 100.325C33.5084 100.304 33.4394 100.268 33.3793 100.219L26.0933 94.3987L32.5348 86.3267L58.8993 107.388L58.9187 107.925L59.0026 109.713C59.0174 109.947 58.9846 110.181 58.9063 110.402C58.8279 110.622 58.7056 110.825 58.5468 110.997C58.3879 111.169 58.1958 111.308 57.982 111.403C57.7682 111.499 57.5372 111.551 57.303 111.555Z" fill="white"/>
</g>
<path d="M58.1789 110.909L29.9912 88.3901L31.6403 86.3087L58.5141 107.777L58.6046 109.567C58.637 110.25 58.5595 110.695 58.1789 110.909Z" fill="#FF5C8A"/>
<path opacity="0.1" d="M58.1789 110.909L29.9912 88.3901L31.6403 86.3087L58.5141 107.777L58.6046 109.567C58.637 110.25 58.5595 110.695 58.1789 110.909Z" fill="black"/>
<path d="M56.252 111.275L55.4574 111.361C55.4452 111.365 55.434 111.372 55.4245 111.38L53.7983 112.533C53.7432 112.579 53.6806 112.615 53.6133 112.64C53.6014 112.643 53.589 112.643 53.577 112.641C53.565 112.638 53.5538 112.633 53.5443 112.625L50.1153 109.895C50.1052 109.889 50.0968 109.881 50.091 109.871C50.0852 109.861 50.0821 109.849 50.0821 109.837C50.0829 109.79 50.0908 109.743 50.1056 109.698L50.9689 106.502C50.97 106.488 50.9667 106.473 50.9595 106.461C50.9523 106.448 50.9415 106.438 50.9285 106.432L48.1401 104.204C48.1238 104.193 48.1037 104.188 48.0838 104.19C48.0639 104.192 48.0455 104.202 48.0324 104.217L47.3618 105.059C47.3557 105.067 47.348 105.074 47.3392 105.079C47.3304 105.084 47.3207 105.087 47.3107 105.088C47.3007 105.09 47.2905 105.089 47.2808 105.086C47.2711 105.083 47.262 105.079 47.2541 105.072L44.8795 103.181C44.8716 103.175 44.8625 103.17 44.8528 103.167C44.8431 103.165 44.8329 103.164 44.8229 103.165C44.8129 103.166 44.8032 103.169 44.7944 103.174C44.7856 103.179 44.7779 103.186 44.7718 103.194L43.6187 104.644C43.613 104.652 43.6054 104.66 43.5967 104.665C43.5879 104.67 43.578 104.674 43.5678 104.675C43.5575 104.676 43.5471 104.675 43.5373 104.672C43.5275 104.669 43.5185 104.664 43.5109 104.657L41.7687 103.272C41.7586 103.266 41.7502 103.258 41.7443 103.248C41.7385 103.238 41.7354 103.226 41.7354 103.215C41.7351 103.165 41.7414 103.115 41.7542 103.067L42.2034 101.053C42.2034 101.04 42.1999 101.027 42.1932 101.015C42.1866 101.004 42.177 100.994 42.1654 100.987L39.3978 98.7859C39.3902 98.7789 39.3812 98.7736 39.3714 98.7704C39.3616 98.7672 39.3512 98.7662 39.3409 98.7674C39.3307 98.7686 39.3208 98.7721 39.3121 98.7775C39.3033 98.7829 39.2958 98.7901 39.2901 98.7987L38.1071 100.282C38.1014 100.291 38.0938 100.298 38.0851 100.303C38.0763 100.309 38.0664 100.312 38.0562 100.313C38.0459 100.315 38.0356 100.314 38.0257 100.31C38.0159 100.307 38.0069 100.302 37.9994 100.295L27.3772 91.8391C27.3626 91.8264 27.3534 91.8086 27.3515 91.7893C27.3495 91.7701 27.355 91.7508 27.3668 91.7354L29.4835 89.0112C29.4967 88.996 29.515 88.9863 29.5349 88.9839C29.5548 88.9816 29.5749 88.9867 29.5913 88.9983L57.2733 111.031C57.285 111.041 57.2936 111.054 57.2979 111.068C57.3022 111.083 57.302 111.098 57.2974 111.113C57.2928 111.127 57.2839 111.14 57.2719 111.149C57.26 111.159 57.2455 111.164 57.2303 111.165L56.252 111.275Z" fill="#FF5C8A"/>
<path opacity="0.1" d="M56.252 111.275L55.4574 111.361C55.4452 111.365 55.434 111.372 55.4245 111.38L53.7983 112.533C53.7432 112.579 53.6806 112.615 53.6133 112.64C53.6014 112.643 53.589 112.643 53.577 112.641C53.565 112.638 53.5538 112.633 53.5443 112.625L50.1153 109.895C50.1052 109.889 50.0968 109.881 50.091 109.871C50.0852 109.861 50.0821 109.849 50.0821 109.837C50.0829 109.79 50.0908 109.743 50.1056 109.698L50.9689 106.502C50.97 106.488 50.9667 106.473 50.9595 106.461C50.9523 106.448 50.9415 106.438 50.9285 106.432L48.1401 104.204C48.1238 104.193 48.1037 104.188 48.0838 104.19C48.0639 104.192 48.0455 104.202 48.0324 104.217L47.3618 105.059C47.3557 105.067 47.348 105.074 47.3392 105.079C47.3304 105.084 47.3207 105.087 47.3107 105.088C47.3007 105.09 47.2905 105.089 47.2808 105.086C47.2711 105.083 47.262 105.079 47.2541 105.072L44.8795 103.181C44.8716 103.175 44.8625 103.17 44.8528 103.167C44.8431 103.165 44.8329 103.164 44.8229 103.165C44.8129 103.166 44.8032 103.169 44.7944 103.174C44.7856 103.179 44.7779 103.186 44.7718 103.194L43.6187 104.644C43.613 104.652 43.6054 104.66 43.5967 104.665C43.5879 104.67 43.578 104.674 43.5678 104.675C43.5575 104.676 43.5471 104.675 43.5373 104.672C43.5275 104.669 43.5185 104.664 43.5109 104.657L41.7687 103.272C41.7586 103.266 41.7502 103.258 41.7443 103.248C41.7385 103.238 41.7354 103.226 41.7354 103.215C41.7351 103.165 41.7414 103.115 41.7542 103.067L42.2034 101.053C42.2034 101.04 42.1999 101.027 42.1932 101.015C42.1866 101.004 42.177 100.994 42.1654 100.987L39.3978 98.7859C39.3902 98.7789 39.3812 98.7736 39.3714 98.7704C39.3616 98.7672 39.3512 98.7662 39.3409 98.7674C39.3307 98.7686 39.3208 98.7721 39.3121 98.7775C39.3033 98.7829 39.2958 98.7901 39.2901 98.7987L38.1071 100.282C38.1014 100.291 38.0938 100.298 38.0851 100.303C38.0763 100.309 38.0664 100.312 38.0562 100.313C38.0459 100.315 38.0356 100.314 38.0257 100.31C38.0159 100.307 38.0069 100.302 37.9994 100.295L27.3772 91.8391C27.3626 91.8264 27.3534 91.8086 27.3515 91.7893C27.3495 91.7701 27.355 91.7508 27.3668 91.7354L29.4835 89.0112C29.4967 88.996 29.515 88.9863 29.5349 88.9839C29.5548 88.9816 29.5749 88.9867 29.5913 88.9983L57.2733 111.031C57.285 111.041 57.2936 111.054 57.2979 111.068C57.3022 111.083 57.302 111.098 57.2974 111.113C57.2928 111.127 57.2839 111.14 57.2719 111.149C57.26 111.159 57.2455 111.164 57.2303 111.165L56.252 111.275Z" fill="black"/>
<path opacity="0.3" d="M19.9739 76.3353C19.1759 75.6995 18.2074 75.3145 17.1906 75.2289C16.1739 75.1434 15.1546 75.3611 14.2616 75.8547C13.3685 76.3482 12.6418 77.0954 12.1733 78.0018C11.7048 78.9081 11.5154 79.9331 11.6291 80.9471C11.7429 81.961 12.1546 82.9185 12.8123 83.6986C13.4701 84.4786 14.3443 85.0462 15.3244 85.3296C16.3046 85.613 17.3468 85.5995 18.3193 85.2908C19.2918 84.9821 20.151 84.3921 20.7883 83.5953C21.2134 83.0659 21.5295 82.4577 21.7187 81.8056C21.9079 81.1536 21.9663 80.4706 21.8906 79.796C21.815 79.1213 21.6067 78.4682 21.2777 77.8743C20.9488 77.2804 20.5057 76.7574 19.9739 76.3353ZM14.0779 83.5003C13.4414 82.9924 12.9699 82.3071 12.723 81.5311C12.4761 80.7552 12.4649 79.9234 12.6908 79.1411C12.9167 78.3587 13.3695 77.661 13.992 77.1361C14.6145 76.6111 15.3787 76.2826 16.188 76.1921C16.9972 76.1015 17.8151 76.253 18.5382 76.6274C19.2614 77.0018 19.8572 77.5822 20.2504 78.2953C20.6436 79.0083 20.8165 79.822 20.7472 80.6333C20.6778 81.4447 20.3695 82.2172 19.861 82.8533C19.1792 83.7025 18.1886 84.2469 17.1062 84.3673C16.0238 84.4876 14.9379 84.1742 14.0861 83.4956L14.0779 83.5003Z" fill="white"/>
<path opacity="0.1" d="M18.6987 98.5328C18.0769 98.4647 17.4683 98.3063 16.8922 98.0627L27.9306 71.9914C27.9306 71.9914 29.3369 72.9174 29.7052 73.0995C29.6847 73.1144 29.6678 73.1336 29.6554 73.1557C28.6518 74.5794 20.2737 94.8987 18.6987 98.5328Z" fill="white"/>
<path opacity="0.1" d="M15.6933 97.4112C15.5999 97.3444 11.8028 93.7967 11.8028 93.7967L15.3851 85.3305C16.5268 85.6367 17.7391 85.5417 18.8192 85.0614C19.8994 84.5811 20.7819 83.7445 21.3192 82.6915C21.8565 81.6386 22.016 80.4331 21.7712 79.2766C21.5263 78.1202 20.8918 77.0828 19.9739 76.338C19.785 76.1824 19.5823 76.0443 19.3684 75.9255L22.5393 68.437C22.5393 68.437 26.4688 71.1408 26.9858 71.3906C26.2563 71.9598 15.8578 97.3162 15.6933 97.4112Z" fill="white"/>
<path opacity="0.1" d="M27.0226 64.1397C27.0474 64.1254 27.0597 64.1183 27.0638 64.1159C27.1385 64.1882 27.1149 64.1853 27.0226 64.1397Z" fill="white"/>
</svg>
