<svg width="191" height="178" viewBox="0 0 191 178" fill="none" xmlns="http://www.w3.org/2000/svg">
<path d="M80.2065 55.4238H75.1367V56.7106H80.2065V55.4238Z" fill="#1C2D5E"/>
<path d="M101.991 55.4238H85.4561V56.7106H101.991V55.4238Z" fill="#1C2D5E"/>
<path d="M132.255 33.4594L129.051 70.1315C128.885 71.7522 128.131 73.2559 126.931 74.3583C125.731 75.4608 124.17 76.0856 122.541 76.1148C121.774 76.1284 121.013 75.9787 120.309 75.6757C119.605 75.3727 118.973 74.9233 118.456 74.3574C117.939 73.7915 117.548 73.122 117.309 72.3934C117.071 71.6648 116.99 70.8937 117.072 70.1315L120.25 33.4594C120.546 30.7242 120.257 27.9575 119.402 25.3426C118.547 22.7277 117.146 20.3244 115.292 18.2923C113.437 16.2602 111.172 14.6457 108.646 13.5558C106.12 12.4659 103.391 11.9257 100.64 11.9708H87.5669C81.7199 12.0814 76.1154 14.3279 71.8108 18.2865C67.5061 22.2451 64.7989 27.642 64.1997 33.4594L62.913 48.437H50.9463L52.233 33.4594C53.8415 15.0075 70.1702 0.00410848 88.6092 0.00410848H101.734C106.016 -0.0665319 110.265 0.774482 114.197 2.47131C118.129 4.16814 121.656 6.68197 124.542 9.84596C127.429 13.0099 129.609 16.7517 130.939 20.8229C132.269 24.8941 132.718 29.2015 132.255 33.4594Z" fill="#1C2D5E"/>
<g opacity="0.5">
<path opacity="0.5" d="M132.255 33.4594L129.051 70.1315C128.885 71.7522 128.131 73.2559 126.931 74.3583C125.731 75.4608 124.17 76.0856 122.541 76.1148C121.774 76.1284 121.013 75.9787 120.309 75.6757C119.605 75.3727 118.973 74.9233 118.456 74.3574C117.939 73.7915 117.548 73.122 117.309 72.3934C117.071 71.6648 116.99 70.8937 117.072 70.1315L120.25 33.4594C120.546 30.7242 120.257 27.9575 119.402 25.3426C118.547 22.7277 117.146 20.3244 115.292 18.2923C113.437 16.2602 111.172 14.6457 108.646 13.5558C106.12 12.4659 103.391 11.9257 100.64 11.9708H87.5669C81.7199 12.0814 76.1154 14.3279 71.8108 18.2865C67.5061 22.2451 64.7989 27.642 64.1997 33.4594L62.913 48.437H50.9463L52.233 33.4594C53.8415 15.0075 70.1702 0.00410848 88.6092 0.00410848H101.734C106.016 -0.0665319 110.265 0.774482 114.197 2.47131C118.129 4.16814 121.656 6.68197 124.542 9.84596C127.429 13.0099 129.609 16.7517 130.939 20.8229C132.269 24.8941 132.718 29.2015 132.255 33.4594Z" fill="white"/>
</g>
<path d="M133.117 68.7937L126.876 140.259C126.65 142.475 125.618 144.531 123.977 146.037C122.336 147.543 120.199 148.394 117.972 148.43H46.5065C45.4598 148.449 44.421 148.245 43.4593 147.831C42.4976 147.417 41.6351 146.804 40.9291 146.031C40.2231 145.258 39.6897 144.343 39.3646 143.348C39.0394 142.353 38.93 141.3 39.0434 140.259L45.297 68.7937C45.4408 67.3688 45.919 65.998 46.6926 64.7928C47.4662 63.5876 48.5135 62.5822 49.7491 61.8581C51.0905 61.0369 52.6285 60.5924 54.2012 60.5714H125.654C127.114 60.5634 128.546 60.9694 129.784 61.7423C130.94 62.4918 131.864 63.5486 132.453 64.7942C133.042 66.0397 133.272 67.4247 133.117 68.7937Z" fill="#1C2D5E"/>
<path d="M58.8076 100.011L77.3753 128.59L138.611 67.354C138.706 67.2404 138.757 67.0967 138.754 66.9489C138.752 66.8012 138.697 66.6591 138.599 66.5485C138.501 66.438 138.366 66.3663 138.22 66.3464C138.073 66.3266 137.925 66.3599 137.801 66.4404L79.447 112.184L68.4196 94.4141L58.8076 100.011Z" fill="#D7EB36"/>
<path d="M92.5437 27.9242C92.5675 28.2139 92.6064 28.5022 92.6601 28.788C93.0263 30.6579 93.9862 32.3597 95.397 33.6405C96.9956 35.1373 99.0981 35.979 101.288 35.9988H183.286C184.243 36.0182 185.195 35.8469 186.085 35.4952C186.976 35.1434 187.787 34.6181 188.473 33.9497C189.158 33.2814 189.704 32.4835 190.078 31.6023C190.452 30.7212 190.648 29.7744 190.652 28.8171C190.667 28.5293 190.667 28.2411 190.652 27.9533C190.424 25.7804 189.411 23.7654 187.803 22.286C186.195 20.8067 184.102 19.9646 181.918 19.9175H99.9002C98.872 19.8967 97.8512 20.0949 96.9055 20.4989C95.9598 20.9029 95.1109 21.5035 94.4151 22.2608C93.7193 23.018 93.1926 23.9147 92.87 24.8911C92.5473 25.8676 92.4361 26.9015 92.5437 27.9242Z" fill="#1C2D5E"/>
<path opacity="0.8" d="M92.5437 27.9242C92.5675 28.2139 92.6064 28.5022 92.6601 28.788C93.0263 30.6579 93.9862 32.3597 95.397 33.6405C96.9956 35.1373 99.0981 35.979 101.288 35.9988H183.286C184.243 36.0182 185.195 35.8469 186.085 35.4952C186.976 35.1434 187.787 34.6181 188.473 33.9497C189.158 33.2814 189.704 32.4835 190.078 31.6023C190.452 30.7212 190.648 29.7744 190.652 28.8171C190.667 28.5293 190.667 28.2411 190.652 27.9533C190.424 25.7804 189.411 23.7654 187.803 22.286C186.195 20.8067 184.102 19.9646 181.918 19.9175H99.9002C98.872 19.8967 97.8512 20.0949 96.9055 20.4989C95.9598 20.9029 95.1109 21.5035 94.4151 22.2608C93.7193 23.018 93.1926 23.9147 92.87 24.8911C92.5473 25.8676 92.4361 26.9015 92.5437 27.9242Z" fill="white"/>
<path d="M190.652 28.757C190.653 29.0169 190.633 29.2764 190.594 29.5334C190.305 27.4096 189.265 25.4594 187.663 24.0354C186.061 22.6114 184.003 21.8076 181.86 21.7693L94.6787 21.9634C95.3699 21.2911 96.1868 20.7617 97.0827 20.4053C97.9786 20.0489 98.936 19.8726 99.9001 19.8865H181.898C184.083 19.9336 186.175 20.7757 187.783 22.255C189.391 23.7344 190.404 25.7494 190.633 27.9223C190.653 28.2001 190.659 28.4786 190.652 28.757Z" fill="#1C2D5E"/>
<path opacity="0.5" d="M190.652 28.757C190.653 29.0169 190.633 29.2764 190.594 29.5334C190.305 27.4096 189.265 25.4594 187.663 24.0354C186.061 22.6114 184.003 21.8076 181.86 21.7693L94.6787 21.9634C95.3699 21.2911 96.1868 20.7617 97.0827 20.4053C97.9786 20.0489 98.936 19.8726 99.9001 19.8865H181.898C184.083 19.9336 186.175 20.7757 187.783 22.255C189.391 23.7344 190.404 25.7494 190.633 27.9223C190.653 28.2001 190.659 28.4786 190.652 28.757Z" fill="white"/>
<path d="M176.571 23.7692L176.92 27.6513L180.569 26.2926L181.433 28.2336L177.706 29.4758L180.385 32.7658L178.706 33.9984L176.095 30.5822L174.154 33.9984L172.32 32.7658L174.387 29.4758L170.505 28.2336L171.029 26.2926L174.96 27.6027L174.61 23.7207L176.571 23.7692Z" fill="#1C2D5E"/>
<path d="M154.103 23.7684L154.452 27.6505L158.101 26.2918L158.975 28.2328L155.219 29.5041L157.897 32.7942L156.228 34.0267L153.617 30.6105L151.676 34.0267L149.832 32.7942L151.909 29.5041L148.027 28.2619L148.551 26.3209L152.482 27.6311L152.142 23.749L154.103 23.7684Z" fill="#1C2D5E"/>
<path d="M131.684 23.7684L132.024 27.6505L135.673 26.2918L136.546 28.2328L132.81 29.475L135.489 32.7651L133.868 34.0267L131.257 30.6105L129.316 34.0267L127.482 32.7942L129.549 29.5041L125.667 28.2619L126.201 26.3209L130.083 27.6311L129.743 23.749L131.684 23.7684Z" fill="#1C2D5E"/>
<path d="M109.256 23.7692L109.596 27.6513L113.255 26.2926L114.118 28.2336L110.382 29.4758L113.07 32.7658L111.391 33.9984L108.781 30.5822L106.84 33.9984L105.005 32.7658L107.072 29.4758L103.19 28.2336L103.714 26.2926L107.597 27.6027L107.257 23.7207L109.256 23.7692Z" fill="#1C2D5E"/>
<path d="M163.614 16.084H159.79V17.0545H163.614V16.084Z" fill="#1C2D5E"/>
<path d="M180.045 16.084H167.574V17.0545H180.045V16.084Z" fill="#1C2D5E"/>
<path opacity="0.8" d="M48.1024 124.54L43.9681 171.807C43.8087 173.315 43.1049 174.714 41.9885 175.741C40.8722 176.768 39.4198 177.353 37.9032 177.386H5.08156C4.3712 177.39 3.66799 177.244 3.01783 176.958C2.36766 176.672 1.78513 176.252 1.30823 175.725C0.831331 175.199 0.470775 174.578 0.25008 173.902C0.0293851 173.227 -0.0464705 172.513 0.0274187 171.807L4.1617 124.53C4.31483 123.019 5.01668 121.617 6.13441 120.588C7.25213 119.56 8.70813 118.977 10.2267 118.95H43.0483C43.7596 118.946 44.4637 119.092 45.1147 119.379C45.7656 119.666 46.3487 120.087 46.8257 120.615C47.3028 121.142 47.6631 121.765 47.8831 122.441C48.1031 123.118 48.1778 123.833 48.1024 124.54Z" fill="#1C2D5E"/>
<path opacity="0.8" d="M48.1024 124.54L43.9681 171.807C43.8087 173.315 43.1049 174.714 41.9885 175.741C40.8722 176.768 39.4198 177.353 37.9032 177.386H5.08156C4.3712 177.39 3.66799 177.244 3.01783 176.958C2.36766 176.672 1.78513 176.252 1.30823 175.725C0.831331 175.199 0.470775 174.578 0.25008 173.902C0.0293851 173.227 -0.0464705 172.513 0.0274187 171.807L4.1617 124.53C4.31483 123.019 5.01668 121.617 6.13441 120.588C7.25213 119.56 8.70813 118.977 10.2267 118.95H43.0483C43.7596 118.946 44.4637 119.092 45.1147 119.379C45.7656 119.666 46.3487 120.087 46.8257 120.615C47.3028 121.142 47.6631 121.765 47.8831 122.441C48.1031 123.118 48.1778 123.833 48.1024 124.54Z" fill="white"/>
<path d="M7.15305 132.161H7.06208C6.79548 132.138 6.54892 132.01 6.37648 131.805C6.20405 131.601 6.11981 131.336 6.14223 131.069L6.52634 126.743C6.54912 126.491 6.66559 126.257 6.85275 126.086C7.0399 125.916 7.28412 125.822 7.53717 125.823H12.1061C12.3742 125.823 12.6313 125.93 12.8209 126.119C13.0104 126.309 13.1169 126.566 13.1169 126.834C13.1169 127.102 13.0104 127.359 12.8209 127.549C12.6313 127.738 12.3742 127.845 12.1061 127.845H8.46711L8.16387 131.241C8.1411 131.493 8.02463 131.728 7.83747 131.898C7.65032 132.068 7.40609 132.162 7.15305 132.161Z" fill="#1C2D5E"/>
<path d="M43.9076 132.161H43.8166C43.55 132.138 43.3035 132.01 43.131 131.805C42.9586 131.601 42.8744 131.336 42.8968 131.069L43.1798 127.845H39.7227C39.4547 127.845 39.1976 127.738 39.008 127.549C38.8184 127.359 38.7119 127.102 38.7119 126.834C38.7119 126.566 38.8184 126.309 39.008 126.119C39.1976 125.93 39.4547 125.823 39.7227 125.823H44.2715C44.4122 125.823 44.5516 125.852 44.6805 125.908C44.8095 125.964 44.9253 126.047 45.0204 126.151C45.1156 126.254 45.188 126.377 45.2331 126.51C45.2782 126.644 45.295 126.785 45.2823 126.925L44.8982 131.241C44.8758 131.49 44.7622 131.721 44.5793 131.891C44.3964 132.061 44.1571 132.157 43.9076 132.161Z" fill="#1C2D5E"/>
<path d="M8.89253 164.779H4.32361C4.18501 164.779 4.04795 164.75 3.92101 164.694C3.79407 164.639 3.67994 164.557 3.58569 164.456C3.49116 164.353 3.419 164.231 3.37377 164.099C3.32853 163.967 3.31119 163.827 3.32287 163.688L3.69687 159.361C3.71966 159.093 3.84801 158.845 4.05369 158.672C4.25937 158.498 4.52555 158.413 4.79364 158.436C5.06173 158.459 5.30976 158.587 5.48321 158.793C5.65667 158.999 5.74131 159.265 5.71852 159.533L5.43549 162.758H8.89253C9.16062 162.758 9.41771 162.864 9.60728 163.054C9.79684 163.243 9.90336 163.5 9.90336 163.768C9.90336 164.036 9.79684 164.294 9.60728 164.483C9.41771 164.673 9.16062 164.779 8.89253 164.779Z" fill="#1C2D5E"/>
<path d="M41.0463 164.779H36.4874C36.2193 164.779 35.9622 164.672 35.7726 164.483C35.5831 164.293 35.4766 164.036 35.4766 163.768C35.4766 163.5 35.5831 163.243 35.7726 163.053C35.9622 162.864 36.2193 162.757 36.4874 162.757H40.1264L40.4195 159.361C40.4427 159.094 40.5706 158.848 40.7753 158.675C40.9799 158.503 41.2446 158.419 41.5112 158.441C41.7778 158.464 42.0244 158.592 42.1968 158.797C42.3693 159.001 42.4535 159.266 42.4311 159.533L42.0571 163.859C42.0343 164.111 41.9178 164.345 41.7307 164.516C41.5435 164.686 41.2993 164.78 41.0463 164.779Z" fill="#1C2D5E"/>
<path d="M37.5679 148.483C39.8499 139.633 35.9328 130.972 28.8188 129.138C21.7047 127.303 14.0877 132.99 11.8057 141.839C9.52375 150.689 13.4409 159.349 20.5549 161.184C27.669 163.019 35.2859 157.332 37.5679 148.483Z" fill="white"/>
<path d="M28.6546 170.318H15.5645L16.7067 157.228H29.7969L28.6546 170.318Z" fill="white"/>
<path d="M43.9681 171.803C43.8087 173.312 43.1049 174.711 41.9885 175.738C40.8722 176.765 39.4198 177.35 37.9032 177.383H5.08156C4.3712 177.387 3.66799 177.241 3.01783 176.955C2.36766 176.669 1.78513 176.249 1.30823 175.722C0.831331 175.196 0.470775 174.574 0.25008 173.899C0.0293851 173.224 -0.0464705 172.51 0.0274187 171.803C0.0274187 171.803 15.109 167.032 16.9689 167.032H28.6237L43.9681 171.803Z" fill="white"/>
<path d="M50.0082 138.352L48.4785 156.919L49.4859 157.002L51.0156 138.435L50.0082 138.352Z" fill="#1C2D5E"/>
<path d="M51.072 129.855L50.7715 133.502L51.7789 133.585L52.0794 129.938L51.072 129.855Z" fill="#1C2D5E"/>
</svg>
