<svg width="177" height="172" viewBox="0 0 177 172" fill="none" xmlns="http://www.w3.org/2000/svg">
<path d="M74.105 56.1289H69.0352V57.4156H74.105V56.1289Z" fill="#FF5C8A"/>
<path d="M95.8901 56.1289H79.3555V57.4156H95.8901V56.1289Z" fill="#FF5C8A"/>
<path d="M126.155 34.1625L122.951 70.8346C122.784 72.4554 122.03 73.959 120.831 75.0614C119.631 76.1639 118.069 76.7887 116.44 76.8179C115.673 76.8315 114.913 76.6818 114.209 76.3788C113.504 76.0758 112.873 75.6264 112.355 75.0605C111.838 74.4946 111.447 73.8251 111.209 73.0965C110.97 72.3679 110.889 71.5969 110.971 70.8346L114.15 34.1625C114.446 31.4274 114.156 28.6606 113.302 26.0457C112.447 23.4308 111.046 21.0276 109.191 18.9955C107.337 16.9634 105.071 15.3488 102.545 14.2589C100.019 13.1691 97.2904 12.6288 94.5397 12.6739H81.4664C75.6193 12.7846 70.0148 15.031 65.7102 18.9896C61.4055 22.9482 58.6983 28.3452 58.0991 34.1625L56.8124 49.1402H44.8457L46.1324 34.1625C47.7409 15.7106 64.0696 0.707233 82.5086 0.707233H95.6334C99.9156 0.636593 104.164 1.47761 108.096 3.17444C112.029 4.87126 115.555 7.3851 118.442 10.5491C121.328 13.7131 123.509 17.4548 124.839 21.526C126.168 25.5972 126.617 29.9047 126.155 34.1625Z" fill="#FF5C8A"/>
<g opacity="0.5">
<path opacity="0.5" d="M126.155 34.1625L122.951 70.8346C122.784 72.4554 122.03 73.959 120.831 75.0614C119.631 76.1639 118.069 76.7887 116.44 76.8179C115.673 76.8315 114.913 76.6818 114.209 76.3788C113.504 76.0758 112.873 75.6264 112.355 75.0605C111.838 74.4946 111.447 73.8251 111.209 73.0965C110.97 72.3679 110.889 71.5969 110.971 70.8346L114.15 34.1625C114.446 31.4274 114.156 28.6606 113.302 26.0457C112.447 23.4308 111.046 21.0276 109.191 18.9955C107.337 16.9634 105.071 15.3488 102.545 14.2589C100.019 13.1691 97.2904 12.6288 94.5397 12.6739H81.4664C75.6193 12.7846 70.0148 15.031 65.7102 18.9896C61.4055 22.9482 58.6983 28.3452 58.0991 34.1625L56.8124 49.1402H44.8457L46.1324 34.1625C47.7409 15.7106 64.0696 0.707233 82.5086 0.707233H95.6334C99.9156 0.636593 104.164 1.47761 108.096 3.17444C112.029 4.87126 115.555 7.3851 118.442 10.5491C121.328 13.7131 123.509 17.4548 124.839 21.526C126.168 25.5972 126.617 29.9047 126.155 34.1625Z" fill="white"/>
</g>
<path d="M127.015 69.4958L120.775 140.961C120.548 143.177 119.517 145.233 117.875 146.739C116.234 148.245 114.098 149.097 111.871 149.132H40.4049C39.3582 149.151 38.3195 148.947 37.3578 148.533C36.3961 148.12 35.5336 147.506 34.8275 146.733C34.1215 145.96 33.5881 145.045 33.263 144.05C32.9379 143.055 32.8284 142.002 32.9419 140.961L39.1954 69.4958C39.3392 68.071 39.8174 66.7001 40.591 65.495C41.3647 64.2898 42.4119 63.2843 43.6475 62.5603C44.9889 61.739 46.5269 61.2945 48.0997 61.2736H119.552C121.012 61.2655 122.444 61.6715 123.683 62.4445C124.839 63.194 125.763 64.2508 126.352 65.4963C126.94 66.7419 127.17 68.1269 127.015 69.4958Z" fill="#FF5C8A"/>
<path d="M52.7051 100.714L71.2727 129.292L132.509 68.0561C132.603 67.9426 132.654 67.7989 132.652 67.6511C132.65 67.5033 132.594 67.3612 132.496 67.2507C132.398 67.1401 132.264 67.0684 132.117 67.0486C131.971 67.0287 131.822 67.0621 131.698 67.1425L73.3444 112.886L62.317 95.1163L52.7051 100.714Z" fill="white"/>
<path d="M78.0671 24.6879C78.091 24.9776 78.1299 25.2659 78.1836 25.5516C78.5498 27.4216 79.5096 29.1234 80.9204 30.4042C82.519 31.901 84.6215 32.7427 86.8114 32.7625H168.81C169.767 32.7818 170.718 32.6106 171.609 32.2588C172.499 31.9071 173.311 31.3817 173.996 30.7134C174.681 30.0451 175.227 29.2472 175.601 28.366C175.976 27.4848 176.171 26.5381 176.176 25.5807C176.19 25.293 176.19 25.0047 176.176 24.717C175.947 22.544 174.934 20.529 173.326 19.0497C171.718 17.5703 169.626 16.7282 167.441 16.6812H85.4236C84.3954 16.6604 83.3746 16.8586 82.4289 17.2626C81.4832 17.6666 80.6343 18.2672 79.9385 19.0244C79.2428 19.7817 78.7161 20.6783 78.3934 21.6548C78.0708 22.6312 77.9595 23.6651 78.0671 24.6879Z" fill="#1C2D5E"/>
<path opacity="0.8" d="M78.0671 24.6879C78.091 24.9776 78.1299 25.2659 78.1836 25.5516C78.5498 27.4216 79.5096 29.1234 80.9204 30.4042C82.519 31.901 84.6215 32.7427 86.8114 32.7625H168.81C169.767 32.7818 170.718 32.6106 171.609 32.2588C172.499 31.9071 173.311 31.3817 173.996 30.7134C174.681 30.0451 175.227 29.2472 175.601 28.366C175.976 27.4848 176.171 26.5381 176.176 25.5807C176.19 25.293 176.19 25.0047 176.176 24.717C175.947 22.544 174.934 20.529 173.326 19.0497C171.718 17.5703 169.626 16.7282 167.441 16.6812H85.4236C84.3954 16.6604 83.3746 16.8586 82.4289 17.2626C81.4832 17.6666 80.6343 18.2672 79.9385 19.0244C79.2428 19.7817 78.7161 20.6783 78.3934 21.6548C78.0708 22.6312 77.9595 23.6651 78.0671 24.6879Z" fill="white"/>
<path d="M176.177 25.5197C176.177 25.7796 176.158 26.0391 176.119 26.2961C175.829 24.1723 174.79 22.2221 173.188 20.7981C171.586 19.3741 169.527 18.5703 167.384 18.532L80.2031 18.7261C80.8943 18.0538 81.7112 17.5243 82.6071 17.168C83.503 16.8116 84.4604 16.6353 85.4245 16.6492H167.423C169.607 16.6963 171.7 17.5384 173.307 19.0177C174.915 20.4971 175.929 22.512 176.157 24.685C176.177 24.9627 176.184 25.2413 176.177 25.5197Z" fill="#1C2D5E"/>
<path opacity="0.5" d="M176.177 25.5197C176.177 25.7796 176.158 26.0391 176.119 26.2961C175.829 24.1723 174.79 22.2221 173.188 20.7981C171.586 19.3741 169.527 18.5703 167.384 18.532L80.2031 18.7261C80.8943 18.0538 81.7112 17.5243 82.6071 17.168C83.503 16.8116 84.4604 16.6353 85.4245 16.6492H167.423C169.607 16.6963 171.7 17.5384 173.307 19.0177C174.915 20.4971 175.929 22.512 176.157 24.685C176.177 24.9627 176.184 25.2413 176.177 25.5197Z" fill="white"/>
<path d="M162.095 20.5329L162.444 24.4149L166.093 23.0562L166.957 24.9972L163.23 26.2395L165.909 29.5295L164.23 30.7621L161.619 27.3459L159.678 30.7621L157.844 29.5295L159.911 26.2395L156.029 24.9972L156.553 23.0562L160.484 24.3664L160.135 20.4844L162.095 20.5329Z" fill="#1C2D5E"/>
<path d="M139.626 20.5311L139.976 24.4132L143.625 23.0545L144.498 24.9955L140.742 26.2668L143.421 29.5569L141.752 30.7894L139.141 27.3732L137.2 30.7894L135.356 29.5569L137.433 26.2668L133.551 25.0246L134.075 23.0836L138.005 24.3938L137.666 20.5117L139.626 20.5311Z" fill="#1C2D5E"/>
<path d="M117.207 20.5311L117.546 24.4132L121.195 23.0545L122.069 24.9955L118.332 26.2377L121.011 29.5277L119.39 30.7894L116.78 27.3732L114.839 30.7894L113.004 29.5569L115.071 26.2668L111.189 25.0246L111.723 23.0836L115.605 24.3938L115.266 20.5117L117.207 20.5311Z" fill="#1C2D5E"/>
<path d="M94.7786 20.5329L95.1182 24.4149L98.777 23.0562L99.6408 24.9972L95.9044 26.2395L98.5927 29.5295L96.9137 30.7621L94.303 27.3459L92.362 30.7621L90.5277 29.5295L92.5949 26.2395L88.7129 24.9972L89.237 23.0562L93.119 24.3664L92.7793 20.4844L94.7786 20.5329Z" fill="#1C2D5E"/>
<path d="M149.138 12.8477H145.314V13.8182H149.138V12.8477Z" fill="#1C2D5E"/>
<path d="M165.569 12.8477H153.098V13.8182H165.569V12.8477Z" fill="#1C2D5E"/>
<path opacity="0.8" d="M48.7294 118.352L44.5951 165.618C44.4357 167.127 43.7319 168.525 42.6155 169.552C41.4991 170.579 40.0467 171.164 38.5301 171.198H5.70851C4.99815 171.202 4.29495 171.056 3.64478 170.77C2.99462 170.483 2.41208 170.063 1.93518 169.537C1.45828 169.01 1.09773 168.389 0.877033 167.714C0.656338 167.039 0.580483 166.325 0.654372 165.618L4.78866 118.342C4.94178 116.831 5.64364 115.428 6.76136 114.4C7.87908 113.371 9.33508 112.789 10.8536 112.762H43.6752C44.3865 112.758 45.0907 112.904 45.7416 113.191C46.3926 113.478 46.9756 113.899 47.4527 114.426C47.9297 114.954 48.29 115.576 48.5101 116.253C48.7301 116.929 48.8048 117.644 48.7294 118.352Z" fill="#1C2D5E"/>
<path opacity="0.8" d="M48.7294 118.352L44.5951 165.618C44.4357 167.127 43.7319 168.525 42.6155 169.552C41.4991 170.579 40.0467 171.164 38.5301 171.198H5.70851C4.99815 171.202 4.29495 171.056 3.64478 170.77C2.99462 170.483 2.41208 170.063 1.93518 169.537C1.45828 169.01 1.09773 168.389 0.877033 167.714C0.656338 167.039 0.580483 166.325 0.654372 165.618L4.78866 118.342C4.94178 116.831 5.64364 115.428 6.76136 114.4C7.87908 113.371 9.33508 112.789 10.8536 112.762H43.6752C44.3865 112.758 45.0907 112.904 45.7416 113.191C46.3926 113.478 46.9756 113.899 47.4527 114.426C47.9297 114.954 48.29 115.576 48.5101 116.253C48.7301 116.929 48.8048 117.644 48.7294 118.352Z" fill="white"/>
<path d="M7.78 125.971H7.68903C7.42243 125.948 7.17587 125.82 7.00344 125.615C6.83101 125.41 6.74677 125.146 6.76918 124.879L7.1533 120.553C7.17607 120.301 7.29254 120.066 7.4797 119.896C7.66685 119.726 7.91108 119.632 8.16412 119.633H12.733C13.0011 119.633 13.2582 119.739 13.4478 119.929C13.6374 120.118 13.7439 120.376 13.7439 120.644C13.7439 120.912 13.6374 121.169 13.4478 121.358C13.2582 121.548 13.0011 121.654 12.733 121.654H9.09406L8.79083 125.051C8.76805 125.303 8.65158 125.537 8.46443 125.708C8.27727 125.878 8.03305 125.972 7.78 125.971Z" fill="#1C2D5E"/>
<path d="M44.5336 125.971H44.4426C44.176 125.948 43.9294 125.82 43.757 125.615C43.5846 125.41 43.5003 125.146 43.5227 124.879L43.8058 121.654H40.3487C40.0806 121.654 39.8235 121.548 39.634 121.358C39.4444 121.169 39.3379 120.912 39.3379 120.644C39.3379 120.376 39.4444 120.118 39.634 119.929C39.8235 119.739 40.0806 119.633 40.3487 119.633H44.8975C45.0382 119.632 45.1775 119.661 45.3065 119.717C45.4355 119.774 45.5513 119.857 45.6464 119.96C45.7416 120.064 45.814 120.186 45.8591 120.32C45.9042 120.453 45.921 120.594 45.9083 120.735L45.5242 125.051C45.5017 125.299 45.3882 125.531 45.2053 125.701C45.0224 125.871 44.7831 125.967 44.5336 125.971Z" fill="#1C2D5E"/>
<path d="M9.51851 158.593H4.94958C4.81098 158.592 4.67393 158.563 4.54699 158.508C4.42005 158.452 4.30592 158.371 4.21167 158.269C4.11714 158.166 4.04498 158.045 3.99975 157.913C3.95451 157.78 3.93717 157.64 3.94885 157.501L4.32285 153.175C4.34563 152.907 4.47399 152.659 4.67967 152.485C4.88535 152.312 5.15153 152.227 5.41962 152.25C5.6877 152.273 5.93574 152.401 6.10919 152.607C6.28264 152.812 6.36729 153.078 6.3445 153.346L6.06147 156.571H9.51851C9.78659 156.571 10.0437 156.678 10.2333 156.867C10.4228 157.057 10.5293 157.314 10.5293 157.582C10.5293 157.85 10.4228 158.107 10.2333 158.297C10.0437 158.486 9.78659 158.593 9.51851 158.593Z" fill="#1C2D5E"/>
<path d="M41.6732 158.591H37.1143C36.8463 158.591 36.5892 158.485 36.3996 158.295C36.21 158.106 36.1035 157.849 36.1035 157.581C36.1035 157.313 36.21 157.055 36.3996 156.866C36.5892 156.676 36.8463 156.57 37.1143 156.57H40.7534L41.0465 153.173C41.0696 152.907 41.1976 152.66 41.4022 152.488C41.6069 152.315 41.8715 152.231 42.1382 152.254C42.4048 152.277 42.6514 152.405 42.8238 152.609C42.9962 152.814 43.0805 153.079 43.058 153.345L42.684 157.672C42.6613 157.924 42.5448 158.158 42.3576 158.328C42.1705 158.499 41.9263 158.592 41.6732 158.591Z" fill="#1C2D5E"/>
<path d="M38.1949 142.292C40.4769 133.443 36.5598 124.782 29.4457 122.947C22.3317 121.113 14.7147 126.799 12.4327 135.649C10.1507 144.498 14.0679 153.159 21.1819 154.994C28.2959 156.828 35.9129 151.141 38.1949 142.292Z" fill="white"/>
<path d="M29.2816 164.129H16.1914L17.3336 151.039H30.4238L29.2816 164.129Z" fill="white"/>
<path d="M44.5951 165.615C44.4357 167.123 43.7319 168.522 42.6155 169.549C41.4991 170.576 40.0467 171.161 38.5301 171.195H5.70851C4.99815 171.199 4.29495 171.053 3.64478 170.766C2.99462 170.48 2.41208 170.06 1.93518 169.534C1.45828 169.007 1.09773 168.386 0.877033 167.711C0.656338 167.036 0.580483 166.321 0.654372 165.615C0.654372 165.615 15.7359 160.844 17.5958 160.844H29.2507L44.5951 165.615Z" fill="white"/>
<path d="M50.6352 132.164L49.1055 150.73L50.1129 150.813L51.6426 132.247L50.6352 132.164Z" fill="#1C2D5E"/>
<path d="M51.6989 123.666L51.3984 127.312L52.4059 127.396L52.7063 123.749L51.6989 123.666Z" fill="#1C2D5E"/>
</svg>
