<svg width="151" height="148" viewBox="0 0 151 148" fill="none" xmlns="http://www.w3.org/2000/svg">
<path d="M75.5 147.381C116.921 147.381 150.5 145.42 150.5 143.002C150.5 140.584 116.921 138.623 75.5 138.623C34.0786 138.623 0.5 140.584 0.5 143.002C0.5 145.42 34.0786 147.381 75.5 147.381Z" fill="#F5F5F5"/>
<path d="M141.182 38.3994H103.235C101.233 38.3994 99.6104 40.0221 99.6104 42.0238V52.3441C99.6104 54.3459 101.233 55.9686 103.235 55.9686H141.182C143.183 55.9686 144.806 54.3459 144.806 52.3441V42.0238C144.806 40.0221 143.183 38.3994 141.182 38.3994Z" fill="#FF5C8A"/>
<path d="M133.654 41.3626H104.012C103.662 41.3626 103.378 41.6466 103.378 41.997V42.6933C103.378 43.0436 103.662 43.3276 104.012 43.3276H133.654C134.004 43.3276 134.288 43.0436 134.288 42.6933V41.997C134.288 41.6466 134.004 41.3626 133.654 41.3626Z" fill="#FF5C8A"/>
<path d="M124.266 46.0969H104.012C103.662 46.0969 103.378 46.3809 103.378 46.7312V47.4275C103.378 47.7779 103.662 48.0619 104.012 48.0619H124.266C124.616 48.0619 124.9 47.7779 124.9 47.4275V46.7312C124.9 46.3809 124.616 46.0969 124.266 46.0969Z" fill="#FF5C8A"/>
<path d="M118.835 50.8318H104.012C103.662 50.8318 103.378 51.1158 103.378 51.4662V52.1624C103.378 52.5128 103.662 52.7968 104.012 52.7968H118.835C119.186 52.7968 119.47 52.5128 119.47 52.1624V51.4662C119.47 51.1158 119.186 50.8318 118.835 50.8318Z" fill="#FF5C8A"/>
<path d="M137.205 50.8318H122.382C122.032 50.8318 121.748 51.1158 121.748 51.4662V52.1624C121.748 52.5128 122.032 52.7968 122.382 52.7968H137.205C137.556 52.7968 137.84 52.5128 137.84 52.1624V51.4662C137.84 51.1158 137.556 50.8318 137.205 50.8318Z" fill="#FF5C8A"/>
<g opacity="0.5">
<path d="M133.654 41.3629H104.012C103.662 41.3629 103.378 41.6469 103.378 41.9972V42.6935C103.378 43.0439 103.662 43.3279 104.012 43.3279H133.654C134.004 43.3279 134.288 43.0439 134.288 42.6935V41.9972C134.288 41.6469 134.004 41.3629 133.654 41.3629Z" fill="white"/>
<path d="M124.266 46.0971H104.012C103.662 46.0971 103.378 46.3811 103.378 46.7315V47.4278C103.378 47.7781 103.662 48.0621 104.012 48.0621H124.266C124.616 48.0621 124.9 47.7781 124.9 47.4278V46.7315C124.9 46.3811 124.616 46.0971 124.266 46.0971Z" fill="white"/>
<path d="M118.835 50.832H104.012C103.662 50.832 103.378 51.1161 103.378 51.4664V52.1627C103.378 52.513 103.662 52.7971 104.012 52.7971H118.835C119.186 52.7971 119.47 52.513 119.47 52.1627V51.4664C119.47 51.1161 119.186 50.832 118.835 50.832Z" fill="white"/>
<path d="M137.205 50.832H122.382C122.032 50.832 121.748 51.1161 121.748 51.4664V52.1627C121.748 52.513 122.032 52.7971 122.382 52.7971H137.205C137.556 52.7971 137.84 52.513 137.84 52.1627V51.4664C137.84 51.1161 137.556 50.832 137.205 50.832Z" fill="white"/>
</g>
<path d="M110.785 34.3028H67.7133C64.778 34.3028 62.3984 36.6823 62.3984 39.6177V54.75C62.3984 57.6853 64.778 60.0648 67.7133 60.0648H110.785C113.721 60.0648 116.1 57.6853 116.1 54.75V39.6177C116.1 36.6823 113.721 34.3028 110.785 34.3028Z" fill="#FF5C8A"/>
<path d="M112.31 38.6468H68.8551C68.3402 38.6468 67.9229 39.0642 67.9229 39.579V40.5963C67.9229 41.1112 68.3402 41.5286 68.8551 41.5286H112.31C112.825 41.5286 113.242 41.1112 113.242 40.5963V39.579C113.242 39.0642 112.825 38.6468 112.31 38.6468Z" fill="#FF5C8A"/>
<path d="M98.5433 45.5901H68.8551C68.3402 45.5901 67.9229 46.0075 67.9229 46.5224V47.5397C67.9229 48.0546 68.3402 48.4719 68.8551 48.4719H98.5433C99.0582 48.4719 99.4755 48.0546 99.4755 47.5397V46.5224C99.4755 46.0075 99.0582 45.5901 98.5433 45.5901Z" fill="#FF5C8A"/>
<path d="M90.5826 52.5334H68.8551C68.3402 52.5334 67.9229 52.9508 67.9229 53.4657V54.483C67.9229 54.9979 68.3402 55.4152 68.8551 55.4152H90.5826C91.0975 55.4152 91.5148 54.9979 91.5148 54.483V53.4657C91.5148 52.9508 91.0975 52.5334 90.5826 52.5334Z" fill="#FF5C8A"/>
<path d="M113.892 52.5334H95.7887C95.2738 52.5334 94.8564 52.9508 94.8564 53.4657V54.483C94.8564 54.9979 95.2738 55.4152 95.7887 55.4152H113.892C114.407 55.4152 114.824 54.9979 114.824 54.483V53.4657C114.824 52.9508 114.407 52.5334 113.892 52.5334Z" fill="#FF5C8A"/>
<g opacity="0.5">
<path d="M112.31 38.6472H68.8551C68.3402 38.6472 67.9229 39.0645 67.9229 39.5794V40.5967C67.9229 41.1116 68.3402 41.5289 68.8551 41.5289H112.31C112.825 41.5289 113.242 41.1116 113.242 40.5967V39.5794C113.242 39.0645 112.825 38.6472 112.31 38.6472Z" fill="white"/>
<path d="M98.5433 45.5905H68.8551C68.3402 45.5905 67.9229 46.0078 67.9229 46.5227V47.54C67.9229 48.0549 68.3402 48.4722 68.8551 48.4722H98.5433C99.0582 48.4722 99.4755 48.0549 99.4755 47.54V46.5227C99.4755 46.0078 99.0582 45.5905 98.5433 45.5905Z" fill="white"/>
<path d="M90.5826 52.5338H68.8551C68.3402 52.5338 67.9229 52.9512 67.9229 53.466V54.4834C67.9229 54.9982 68.3402 55.4156 68.8551 55.4156H90.5826C91.0975 55.4156 91.5148 54.9982 91.5148 54.4834V53.466C91.5148 52.9512 91.0975 52.5338 90.5826 52.5338Z" fill="white"/>
<path d="M113.893 52.5338H95.7897C95.2748 52.5338 94.8574 52.9512 94.8574 53.466V54.4834C94.8574 54.9982 95.2748 55.4156 95.7897 55.4156H113.893C114.408 55.4156 114.825 54.9982 114.825 54.4834V53.466C114.825 52.9512 114.408 52.5338 113.893 52.5338Z" fill="white"/>
</g>
<path d="M84.0067 64.7344H63.2617C61.8902 64.7344 60.7783 65.8462 60.7783 67.2177V98.2946C60.7783 99.6662 61.8902 100.778 63.2617 100.778H84.0067C85.3782 100.778 86.4901 99.6662 86.4901 98.2946V67.2177C86.4901 65.8462 85.3782 64.7344 84.0067 64.7344Z" fill="#FF5C8A"/>
<path opacity="0.4" d="M84.0067 64.7344H63.2617C61.8902 64.7344 60.7783 65.8462 60.7783 67.2177V98.2946C60.7783 99.6662 61.8902 100.778 63.2617 100.778H84.0067C85.3782 100.778 86.4901 99.6662 86.4901 98.2946V67.2177C86.4901 65.8462 85.3782 64.7344 84.0067 64.7344Z" fill="#1C2D5E"/>
<path d="M83.0551 68.4933H64.2094C63.9573 68.4933 63.7529 68.6977 63.7529 68.9498V69.6345C63.7529 69.8865 63.9573 70.0909 64.2094 70.0909H83.0551C83.3072 70.0909 83.5115 69.8865 83.5115 69.6345V68.9498C83.5115 68.6977 83.3072 68.4933 83.0551 68.4933Z" fill="#FAFAFA"/>
<path d="M77.0556 72.3383H64.2094C63.9573 72.3383 63.7529 72.5426 63.7529 72.7947V73.4794C63.7529 73.7315 63.9573 73.9358 64.2094 73.9358H77.0556C77.3077 73.9358 77.512 73.7315 77.512 73.4794V72.7947C77.512 72.5426 77.3077 72.3383 77.0556 72.3383Z" fill="#FAFAFA"/>
<path d="M83.0551 76.1874H64.2094C63.9573 76.1874 63.7529 76.3917 63.7529 76.6438V77.3285C63.7529 77.5806 63.9573 77.7849 64.2094 77.7849H83.0551C83.3072 77.7849 83.5115 77.5806 83.5115 77.3285V76.6438C83.5115 76.3917 83.3072 76.1874 83.0551 76.1874Z" fill="#FAFAFA"/>
<path d="M71.2146 80.0323H64.2094C63.9573 80.0323 63.7529 80.2366 63.7529 80.4887V81.1734C63.7529 81.4255 63.9573 81.6298 64.2094 81.6298H71.2146C71.4667 81.6298 71.6711 81.4255 71.6711 81.1734V80.4887C71.6711 80.2366 71.4667 80.0323 71.2146 80.0323Z" fill="#FAFAFA"/>
<path d="M81.0164 80.0323H74.0111C73.759 80.0323 73.5547 80.2366 73.5547 80.4887V81.1734C73.5547 81.4255 73.759 81.6298 74.0111 81.6298H81.0164C81.2685 81.6298 81.4728 81.4255 81.4728 81.1734V80.4887C81.4728 80.2366 81.2685 80.0323 81.0164 80.0323Z" fill="#FAFAFA"/>
<path d="M83.0551 83.8813H64.2094C63.9573 83.8813 63.7529 84.0857 63.7529 84.3378V85.0225C63.7529 85.2746 63.9573 85.4789 64.2094 85.4789H83.0551C83.3072 85.4789 83.5115 85.2746 83.5115 85.0225V84.3378C83.5115 84.0857 83.3072 83.8813 83.0551 83.8813Z" fill="#FAFAFA"/>
<path d="M83.0551 87.7263H64.2094C63.9573 87.7263 63.7529 87.9307 63.7529 88.1828V88.8674C63.7529 89.1195 63.9573 89.3239 64.2094 89.3239H83.0551C83.3072 89.3239 83.5115 89.1195 83.5115 88.8674V88.1828C83.5115 87.9307 83.3072 87.7263 83.0551 87.7263Z" fill="#FAFAFA"/>
<path d="M79.713 91.5754H64.2094C63.9573 91.5754 63.7529 91.7797 63.7529 92.0318V92.7165C63.7529 92.9686 63.9573 93.1729 64.2094 93.1729H79.713C79.9651 93.1729 80.1695 92.9686 80.1695 92.7165V92.0318C80.1695 91.7797 79.9651 91.5754 79.713 91.5754Z" fill="#FAFAFA"/>
<path d="M71.4429 95.4203H64.2094C63.9573 95.4203 63.7529 95.6246 63.7529 95.8767V96.5614C63.7529 96.8135 63.9573 97.0178 64.2094 97.0178H71.4429C71.6949 97.0178 71.8993 96.8135 71.8993 96.5614V95.8767C71.8993 95.6246 71.6949 95.4203 71.4429 95.4203Z" fill="#FAFAFA"/>
<path d="M89.6191 64.5132H60.8438L73.5662 74.6363L93.0734 81.9858V67.9598C93.0713 67.045 92.7065 66.1684 92.0589 65.5222C91.4113 64.8761 90.5339 64.5132 89.6191 64.5132Z" fill="#FF5C8A"/>
<path opacity="0.4" d="M89.6191 64.5132H60.8438L73.5662 74.6363L93.0734 81.9858V67.9598C93.0713 67.045 92.7065 66.1684 92.0589 65.5222C91.4113 64.8761 90.5339 64.5132 89.6191 64.5132Z" fill="#1C2D5E"/>
<path d="M88.3623 69.7278H67.3078C66.9917 69.7278 66.7354 69.9842 66.7354 70.3003V71.368C66.7354 71.6841 66.9917 71.9404 67.3078 71.9404H88.3623C88.6785 71.9404 88.9348 71.6841 88.9348 71.368V70.3003C88.9348 69.9842 88.6785 69.7278 88.3623 69.7278Z" fill="#FAFAFA"/>
<path d="M139.383 91.9156V71.6773C139.383 70.1263 138.125 68.869 136.575 68.869H101.432C99.8812 68.869 98.6239 70.1263 98.6239 71.6773V91.9156C98.6239 93.4666 99.8812 94.7239 101.432 94.7239H136.575C138.125 94.7239 139.383 93.4666 139.383 91.9156Z" fill="#FF5C8A"/>
<path d="M145.801 85.5026V65.2643C145.801 63.7133 144.543 62.456 142.992 62.456H107.85C106.299 62.456 105.042 63.7133 105.042 65.2643V85.5026C105.042 87.0535 106.299 88.3109 107.85 88.3109H142.992C144.543 88.3109 145.801 87.0535 145.801 85.5026Z" fill="#FF5C8A"/>
<path opacity="0.5" d="M145.801 85.5026V65.2643C145.801 63.7133 144.543 62.456 142.992 62.456H107.85C106.299 62.456 105.042 63.7133 105.042 65.2643V85.5026C105.042 87.0535 106.299 88.3109 107.85 88.3109H142.992C144.543 88.3109 145.801 87.0535 145.801 85.5026Z" fill="white"/>
<path d="M142.234 78.5665V66.1071C142.234 65.4171 141.675 64.8577 140.985 64.8577H129.5C128.81 64.8577 128.251 65.4171 128.251 66.1071V78.5665C128.251 79.2566 128.81 79.8159 129.5 79.8159H140.985C141.675 79.8159 142.234 79.2566 142.234 78.5665Z" fill="#FF5C8A"/>
<path opacity="0.7" d="M142.234 78.5665V66.1071C142.234 65.4171 141.675 64.8577 140.985 64.8577H129.5C128.81 64.8577 128.251 65.4171 128.251 66.1071V78.5665C128.251 79.2566 128.81 79.8159 129.5 79.8159H140.985C141.675 79.8159 142.234 79.2566 142.234 78.5665Z" fill="white"/>
<path d="M126.062 84.5931V75.0464C126.062 74.5166 125.632 74.0871 125.102 74.0871H116.302C115.772 74.0871 115.343 74.5166 115.343 75.0464V84.5931C115.343 85.1229 115.772 85.5524 116.302 85.5524H125.102C125.632 85.5524 126.062 85.1229 126.062 84.5931Z" fill="#FF5C8A"/>
<path opacity="0.3" d="M126.062 84.5931V75.0464C126.062 74.5166 125.632 74.0871 125.102 74.0871H116.302C115.772 74.0871 115.343 74.5166 115.343 75.0464V84.5931C115.343 85.1229 115.772 85.5524 116.302 85.5524H125.102C125.632 85.5524 126.062 85.1229 126.062 84.5931Z" fill="white"/>
<path d="M120.7 24.0637V18.9074C120.7 17.3308 119.422 16.0527 117.845 16.0527L23.4118 16.0527C21.8352 16.0527 20.5571 17.3308 20.5571 18.9074V24.0637C20.5571 25.6403 21.8352 26.9184 23.4118 26.9184L117.845 26.9184C119.422 26.9184 120.7 25.6403 120.7 24.0637Z" fill="#FF5C8A"/>
<path opacity="0.5" d="M120.7 24.0637V18.9074C120.7 17.3308 119.422 16.0527 117.845 16.0527L23.4118 16.0527C21.8352 16.0527 20.5571 17.3308 20.5571 18.9074V24.0637C20.5571 25.6403 21.8352 26.9184 23.4118 26.9184L117.845 26.9184C119.422 26.9184 120.7 25.6403 120.7 24.0637Z" fill="white"/>
<path d="M102.833 28.737V24.9965H75.6591V28.737H102.833Z" fill="#FF5C8A"/>
<path opacity="0.5" d="M102.833 28.737V24.9965H75.6591V28.737H102.833Z" fill="white"/>
<path d="M130.443 8.01099V2.85471C130.443 1.2781 129.165 0 127.589 0L33.155 0C31.5783 0 30.3003 1.2781 30.3003 2.85471V8.01099C30.3003 9.5876 31.5783 10.8657 33.155 10.8657L127.589 10.8657C129.165 10.8657 130.443 9.5876 130.443 8.01099Z" fill="#FF5C8A"/>
<path d="M29.2215 57.1363C28.8811 57.91 28.5059 58.7455 28.1771 59.5617C27.8483 60.3779 27.5079 61.2173 27.2101 62.0528C26.5989 63.6816 26.1089 65.3533 25.744 67.0543L25.6318 67.6732L25.5932 67.9053C25.5932 67.9711 25.5932 68.0562 25.57 68.1336C25.5552 68.5102 25.563 68.8874 25.5932 69.2631C25.6667 70.0792 25.7982 70.9535 25.98 71.8277C26.3049 73.5799 26.7188 75.3864 27.1404 77.1657L25.1561 77.9394C24.231 76.2531 23.4433 74.4952 22.8003 72.6825C22.4616 71.7391 22.1876 70.7737 21.9803 69.793C21.8641 69.2504 21.7917 68.6993 21.7637 68.1452C21.7637 67.9904 21.7637 67.8434 21.7637 67.6771C21.7637 67.5108 21.7637 67.3251 21.7907 67.2168L21.8681 66.4432C21.9837 65.4468 22.1607 64.4585 22.3981 63.484C22.6147 62.517 22.8932 61.577 23.1717 60.6486C23.4502 59.7203 23.7983 58.8074 24.1658 57.91C24.3476 57.4613 24.5526 57.0164 24.7306 56.5716C24.9085 56.1267 25.1174 55.7012 25.3649 55.2255L29.2215 57.1363Z" fill="#E4897B"/>
<path d="M27.0358 76.644L28.5444 78.1178L25.2526 79.665C25.2526 79.665 24.4558 78.2686 25.0089 77.0076L27.0358 76.644Z" fill="#E4897B"/>
<path d="M29.7633 80.3109L26.982 81.4481L25.2568 79.6494L28.5448 78.1176L29.7633 80.3109Z" fill="#E4897B"/>
<path opacity="0.4" d="M86.1027 78.7247C80.6296 78.1102 75.4615 75.8867 71.2519 72.3355C67.0422 68.7842 63.98 64.0646 62.4523 58.7732C60.9246 53.4819 61 47.8563 62.669 42.6078C64.338 37.3593 67.5256 32.7234 71.8289 29.2863C76.1323 25.8492 81.358 23.7651 86.8456 23.2975C92.3333 22.8299 97.8363 23.9998 102.659 26.6593C107.482 29.3188 111.408 33.3485 113.941 38.239C116.474 43.1295 117.5 48.6612 116.889 54.1347C116.484 57.7713 115.366 61.2924 113.599 64.4967C111.832 67.7009 109.451 70.5256 106.591 72.8092C103.732 75.0928 100.451 76.7907 96.9357 77.8057C93.4201 78.8207 89.739 79.133 86.1027 78.7247Z" fill="#FAFAFA"/>
<path opacity="0.4" d="M106.365 29.1041L64.0083 62.9467C63.8304 62.5599 63.6563 62.1731 63.4938 61.7862C62.432 59.2604 61.7527 56.5904 61.4785 53.8642L98.0637 24.6324C101.067 25.6344 103.876 27.1471 106.365 29.1041Z" fill="#FAFAFA"/>
<path opacity="0.4" d="M116.14 43.9304L76.3168 75.7461C72.5336 73.774 69.2551 70.9574 66.7354 67.5147L110.217 32.7708C113.02 35.9879 115.047 39.806 116.14 43.9304Z" fill="#FAFAFA"/>
<path d="M57.8577 40.4031L57.4902 40.2793C58.1267 38.4013 58.9266 36.5828 59.8808 34.8446L60.2173 35.0302C59.2757 36.749 58.4862 38.5468 57.8577 40.4031ZM62.5537 31.3748L62.2403 31.1466C65.4193 26.8482 69.5797 23.3721 74.3748 21.0081L74.5489 21.3562C69.8082 23.6958 65.6955 27.1348 62.5537 31.3864V31.3748ZM104.945 21.8862C103.681 21.2082 102.373 20.615 101.03 20.1107L101.17 19.7471C102.526 20.2633 103.846 20.868 105.123 21.5574L104.945 21.8862Z" fill="#FF5C8A"/>
<path opacity="0.3" d="M57.8577 40.4031L57.4902 40.2793C58.1267 38.4013 58.9266 36.5828 59.8808 34.8446L60.2173 35.0302C59.2757 36.749 58.4862 38.5468 57.8577 40.4031ZM62.5537 31.3748L62.2403 31.1466C65.4193 26.8482 69.5797 23.3721 74.3748 21.0081L74.5489 21.3562C69.8082 23.6958 65.6955 27.1348 62.5537 31.3864V31.3748ZM104.945 21.8862C103.681 21.2082 102.373 20.615 101.03 20.1107L101.17 19.7471C102.526 20.2633 103.846 20.868 105.123 21.5574L104.945 21.8862Z" fill="#1C2D5E"/>
<path d="M118 36.8208C114.418 29.3921 108.115 23.6266 100.397 20.7195C92.6796 17.8125 84.1391 17.9869 76.5464 21.2065C68.9537 24.4261 62.8911 30.444 59.6155 38.0127C56.3399 45.5814 56.1024 54.1204 58.9524 61.8594C56.3685 62.7646 53.8155 63.7355 51.2779 64.7374C47.6186 66.1892 43.9929 67.7055 40.4006 69.2863C36.811 70.8761 33.2368 72.4969 29.6974 74.1912C27.9219 75.0228 26.1696 75.9009 24.4019 76.7519C23.4823 77.1471 22.6491 77.7187 21.9495 78.4346C21.5709 78.831 21.2375 79.2682 20.9553 79.7381C20.6111 80.294 20.3504 80.8974 20.1817 81.5291C19.8906 82.6674 20.0165 83.8723 20.5365 84.9258C21.0566 85.9794 21.9365 86.8121 23.0171 87.2733C23.6171 87.525 24.2502 87.6891 24.897 87.7607C25.4432 87.8226 25.9947 87.8226 26.541 87.7607C27.5336 87.6402 28.493 87.3261 29.3647 86.8362C31.117 85.9504 32.8809 85.0956 34.6216 84.1865C38.1029 82.411 41.5843 80.5582 45.0231 78.6782C48.4619 76.7983 51.9046 74.8294 55.2622 72.8102C57.5831 71.4061 59.9272 69.971 62.2249 68.4701C66.637 75.4354 73.5597 80.4363 81.5586 82.4364C89.5574 84.4366 98.0192 83.2827 105.19 79.214C112.362 75.1452 117.693 68.4735 120.079 60.5812C122.465 52.6889 121.724 44.1811 118.008 36.8208H118ZM100.415 73.7734C95.92 75.9923 90.8677 76.8284 85.8972 76.176C80.9267 75.5236 76.2612 73.4121 72.4907 70.1083C68.7203 66.8045 66.0141 62.4569 64.7144 57.6151C63.4147 52.7734 63.5799 47.655 65.189 42.9072C66.7981 38.1593 69.7789 33.9952 73.7546 30.9413C77.7302 27.8875 82.5221 26.0811 87.5243 25.7505C92.5265 25.4199 97.5144 26.58 101.857 29.0841C106.2 31.5882 109.703 35.3238 111.923 39.8186C113.397 42.8036 114.269 46.0499 114.489 49.3719C114.708 52.6939 114.271 56.0266 113.203 59.1797C112.134 62.3328 110.455 65.2445 108.261 67.7486C106.067 70.2526 103.401 72.2998 100.415 73.7734Z" fill="#FF5C8A"/>
<path opacity="0.3" d="M118 36.8208C114.418 29.3921 108.115 23.6266 100.397 20.7195C92.6796 17.8125 84.1391 17.9869 76.5464 21.2065C68.9537 24.4261 62.8911 30.444 59.6155 38.0127C56.3399 45.5814 56.1024 54.1204 58.9524 61.8594C56.3685 62.7646 53.8155 63.7355 51.2779 64.7374C47.6186 66.1892 43.9929 67.7055 40.4006 69.2863C36.811 70.8761 33.2368 72.4969 29.6974 74.1912C27.9219 75.0228 26.1696 75.9009 24.4019 76.7519C23.4823 77.1471 22.6491 77.7187 21.9495 78.4346C21.5709 78.831 21.2375 79.2682 20.9553 79.7381C20.6111 80.294 20.3504 80.8974 20.1817 81.5291C19.8906 82.6674 20.0165 83.8723 20.5365 84.9258C21.0566 85.9794 21.9365 86.8121 23.0171 87.2733C23.6171 87.525 24.2502 87.6891 24.897 87.7607C25.4432 87.8226 25.9947 87.8226 26.541 87.7607C27.5336 87.6402 28.493 87.3261 29.3647 86.8362C31.117 85.9504 32.8809 85.0956 34.6216 84.1865C38.1029 82.411 41.5843 80.5582 45.0231 78.6782C48.4619 76.7983 51.9046 74.8294 55.2622 72.8102C57.5831 71.4061 59.9272 69.971 62.2249 68.4701C66.637 75.4354 73.5597 80.4363 81.5586 82.4364C89.5574 84.4366 98.0192 83.2827 105.19 79.214C112.362 75.1452 117.693 68.4735 120.079 60.5812C122.465 52.6889 121.724 44.1811 118.008 36.8208H118ZM100.415 73.7734C95.92 75.9923 90.8677 76.8284 85.8972 76.176C80.9267 75.5236 76.2612 73.4121 72.4907 70.1083C68.7203 66.8045 66.0141 62.4569 64.7144 57.6151C63.4147 52.7734 63.5799 47.655 65.189 42.9072C66.7981 38.1593 69.7789 33.9952 73.7546 30.9413C77.7302 27.8875 82.5221 26.0811 87.5243 25.7505C92.5265 25.4199 97.5144 26.58 101.857 29.0841C106.2 31.5882 109.703 35.3238 111.923 39.8186C113.397 42.8036 114.269 46.0499 114.489 49.3719C114.708 52.6939 114.271 56.0266 113.203 59.1797C112.134 62.3328 110.455 65.2445 108.261 67.7486C106.067 70.2526 103.401 72.2998 100.415 73.7734Z" fill="#1C2D5E"/>
<path d="M39.9131 43.3234C39.9131 43.5517 40.033 43.7373 40.1839 43.7373C40.3347 43.7373 40.4546 43.5517 40.4546 43.3234C40.4546 43.0952 40.3347 42.9095 40.1839 42.9095C40.033 42.9095 39.9131 43.1107 39.9131 43.3234Z" fill="#1C2D5E"/>
<path d="M40.0215 43.7372C40.2953 44.4377 40.6636 45.0976 41.1162 45.6983C40.9597 45.8103 40.7806 45.8866 40.5915 45.9221C40.4024 45.9575 40.2079 45.9511 40.0215 45.9034V43.7372Z" fill="#DE5753"/>
<path d="M39.112 42.0511C39.0904 42.0511 39.0691 42.0462 39.0497 42.0369C39.0303 42.0275 39.0132 42.0138 38.9998 41.9969C38.9797 41.9674 38.9716 41.9313 38.9774 41.896C38.9832 41.8607 39.0023 41.829 39.0308 41.8074C39.2011 41.6782 39.4002 41.5921 39.611 41.5564C39.8218 41.5207 40.0381 41.5365 40.2415 41.6024C40.2598 41.6074 40.2768 41.6161 40.2915 41.6281C40.3062 41.64 40.3182 41.655 40.3267 41.6719C40.3353 41.6887 40.3402 41.7072 40.3411 41.7261C40.3421 41.745 40.3391 41.764 40.3323 41.7816C40.3255 41.7993 40.3151 41.8153 40.3017 41.8287C40.2883 41.8421 40.2723 41.8526 40.2546 41.8594C40.2369 41.8662 40.218 41.8692 40.1991 41.8682C40.1802 41.8673 40.1617 41.8624 40.1448 41.8538C39.9833 41.8043 39.8122 41.7942 39.6459 41.8245C39.4796 41.8548 39.3231 41.9245 39.1894 42.0279C39.1664 42.0431 39.1395 42.0512 39.112 42.0511Z" fill="#1C2D5E"/>
<path d="M32.0991 45.0444C32.486 47.1216 32.9115 50.9318 31.457 52.3205C31.457 52.3205 32.0257 54.4286 35.89 54.4286C40.1449 54.4286 37.9169 52.3205 37.9169 52.3205C35.596 51.7634 35.6617 50.046 36.064 48.4291L32.0991 45.0444Z" fill="#E4897B"/>
<path d="M29.7205 53.415C30.1809 52.6994 29.4072 50.9626 29.4072 50.9626C29.4072 50.9626 36.2462 49.2413 39.0428 51.8832C39.6231 52.4286 38.981 53.2332 38.981 53.2332L29.7205 53.415Z" fill="#FF5C8A"/>
<path opacity="0.1" d="M29.7205 53.415C30.1809 52.6994 29.4072 50.9626 29.4072 50.9626C29.4072 50.9626 36.2462 49.2413 39.0428 51.8832C39.6231 52.4286 38.981 53.2332 38.981 53.2332L29.7205 53.415Z" fill="#1C2D5E"/>
<path d="M18.4056 132.337C18.0459 132.337 17.4695 131.738 17.2993 131.514C17.292 131.503 17.2881 131.49 17.2881 131.477C17.2881 131.464 17.292 131.451 17.2993 131.44C17.3056 131.429 17.3146 131.42 17.3255 131.414C17.3364 131.408 17.3487 131.405 17.3612 131.405C17.4038 131.405 18.3515 131.49 18.6106 131.827C18.6388 131.862 18.6589 131.904 18.6696 131.948C18.6803 131.992 18.6813 132.038 18.6725 132.082C18.6691 132.14 18.648 132.195 18.612 132.24C18.5759 132.285 18.5268 132.318 18.4714 132.334L18.4056 132.337ZM17.5082 131.564C17.7906 131.889 18.2431 132.256 18.4366 132.21C18.4366 132.21 18.5139 132.19 18.5371 132.067C18.5422 132.041 18.5414 132.014 18.5347 131.989C18.528 131.963 18.5156 131.94 18.4984 131.92C18.2119 131.703 17.8671 131.576 17.5082 131.556V131.564Z" fill="#FF5C8A"/>
<path d="M17.5506 131.557C17.4812 131.564 17.4112 131.564 17.3417 131.557C17.3295 131.556 17.3178 131.551 17.3082 131.543C17.2985 131.536 17.2914 131.526 17.2876 131.514C17.2821 131.503 17.2793 131.491 17.2793 131.479C17.2793 131.467 17.2821 131.455 17.2876 131.444C17.3146 131.421 17.8833 130.829 18.3126 130.829C18.364 130.828 18.4151 130.838 18.4624 130.858C18.5097 130.878 18.5523 130.908 18.5873 130.945C18.6258 130.978 18.6521 131.022 18.662 131.071C18.6718 131.12 18.6646 131.172 18.6414 131.216C18.5293 131.433 17.9374 131.557 17.5506 131.557ZM17.5003 131.421C17.8871 131.421 18.448 131.301 18.5409 131.131C18.5409 131.131 18.5679 131.081 18.506 131.019C18.4835 130.994 18.4559 130.975 18.4252 130.962C18.3945 130.95 18.3613 130.944 18.3281 130.945C18.011 131.018 17.7228 131.184 17.5003 131.421Z" fill="#FF5C8A"/>
<path d="M43.9322 141.118C43.639 141.116 43.3466 141.089 43.058 141.037C43.0437 141.034 43.0308 141.026 43.0216 141.015C43.0124 141.004 43.0075 140.989 43.0077 140.975C43.0056 140.962 43.0073 140.948 43.0128 140.935C43.0183 140.923 43.0273 140.913 43.0387 140.905C43.0812 140.882 44.0715 140.313 44.5473 140.445C44.5914 140.455 44.633 140.474 44.6696 140.5C44.7062 140.527 44.7369 140.561 44.76 140.6C44.7903 140.643 44.8066 140.694 44.8066 140.747C44.8066 140.799 44.7903 140.851 44.76 140.894C44.6478 141.068 44.2958 141.118 43.9322 141.118ZM43.2785 140.936C43.8046 141.014 44.5241 141.01 44.6556 140.824C44.6749 140.801 44.6904 140.758 44.6556 140.677C44.626 140.629 44.5788 140.594 44.5241 140.58C44.2223 140.503 43.6228 140.758 43.2785 140.936Z" fill="#FF5C8A"/>
<path d="M43.0731 141.041C43.0605 141.045 43.0471 141.045 43.0345 141.041C43.0237 141.034 43.0154 141.024 43.0105 141.013C43.0057 141.001 43.0046 140.988 43.0074 140.975C43.0336 140.573 43.1881 140.189 43.4483 139.881C43.501 139.835 43.5628 139.802 43.6295 139.782C43.6963 139.763 43.7664 139.758 43.8352 139.769C44.0208 139.769 44.075 139.881 44.0866 139.954C44.1369 140.275 43.4599 140.89 43.1157 141.045L43.0731 141.041ZM43.7655 139.881C43.6804 139.88 43.598 139.91 43.5334 139.966C43.3147 140.21 43.1793 140.518 43.1466 140.844C43.4948 140.631 43.9589 140.151 43.9203 139.958C43.9203 139.958 43.9203 139.892 43.7887 139.881H43.7655Z" fill="#FF5C8A"/>
<path d="M39.9482 140.972H42.7914L43.0737 134.392H40.2306L39.9482 140.972Z" fill="#E4897B"/>
<path d="M14.6309 129.677L17.0059 131.232L22.2512 126.803L19.8722 125.244L14.6309 129.677Z" fill="#E4897B"/>
<path d="M17.3964 131.084L14.9285 129.061C14.8849 129.025 14.8302 129.005 14.7737 129.005C14.7173 129.005 14.6626 129.025 14.619 129.061L12.5844 130.658C12.5352 130.698 12.4955 130.747 12.4682 130.804C12.4409 130.86 12.4268 130.922 12.4268 130.985C12.4268 131.048 12.4409 131.11 12.4682 131.167C12.4955 131.223 12.5352 131.273 12.5844 131.312C13.4586 132.005 13.9189 132.299 15.0058 133.188C15.675 133.734 17.3267 135.405 18.259 136.159C19.1912 136.913 20.0461 136.101 19.7366 135.71C18.3479 133.95 17.8025 132.446 17.6439 131.513C17.6165 131.345 17.5285 131.192 17.3964 131.084Z" fill="#1C2D5E"/>
<path d="M42.772 140.643H39.6774C39.621 140.643 39.5663 140.662 39.5221 140.697C39.4779 140.732 39.4468 140.781 39.4337 140.836L38.8729 143.362C38.8588 143.423 38.8588 143.487 38.8729 143.548C38.8871 143.609 38.9149 143.667 38.9544 143.715C38.994 143.764 39.0441 143.803 39.101 143.83C39.1579 143.857 39.2201 143.87 39.2829 143.869C40.4008 143.85 42.0177 143.784 43.4257 143.784C45.0697 143.784 46.4932 143.873 48.4195 143.873C49.58 143.873 49.9126 142.693 49.4214 142.589C47.201 142.101 45.383 142.051 43.4644 140.863C43.2585 140.727 43.0188 140.651 42.772 140.643Z" fill="#1C2D5E"/>
<path d="M25.8565 53.1679C23.3924 54.3284 21.9883 62.1034 21.9883 62.1034L28.011 64.5055C28.8926 62.3529 29.6052 60.1349 30.1424 57.8716C30.9702 54.2897 28.3785 51.9688 25.8565 53.1679Z" fill="#1C2D5E"/>
<path d="M29.0509 57.5501C27.5617 59.0587 26.8809 62.014 26.583 63.9365L28.0258 64.5128C28.8824 62.4213 29.5806 60.2684 30.1146 58.0723C29.987 57.2523 29.6698 56.9235 29.0509 57.5501Z" fill="#203048"/>
<path d="M42.2876 53.1135C42.2876 53.1135 45.3126 56.5329 42.4578 77.6764H27.2598C27.1554 75.3555 28.6214 63.9637 26.3701 52.9704C28.0497 52.6447 29.7489 52.4302 31.4568 52.3282C33.6082 52.2005 35.7652 52.2005 37.9166 52.3282C39.3917 52.4767 40.8531 52.7392 42.2876 53.1135Z" fill="#1C2D5E"/>
<path d="M43.6769 61.322L41.1162 56.9084C40.6219 58.9677 40.42 61.0864 40.5166 63.202C40.5863 64.7183 41.9749 70.3349 43.2244 71.1549C43.5559 67.8881 43.707 64.6055 43.6769 61.322Z" fill="#203048"/>
<path d="M44.0326 56.1349C44.4195 58.0148 44.8063 59.9412 45.2202 61.8288C45.6341 63.7165 46.0634 65.6119 46.5624 67.4416C46.6901 67.8941 46.81 68.3583 46.9492 68.7915L47.0537 69.1242L47.104 69.2905V69.2712C47.0769 69.2364 47.0459 69.2325 47.0692 69.2712C47.2281 69.4448 47.4314 69.5719 47.6571 69.6387C48.0228 69.7748 48.3994 69.8796 48.7828 69.952C50.6116 70.2419 52.4633 70.3623 54.3142 70.3117L54.6817 72.416C54.1634 72.5824 53.6799 72.7023 53.1693 72.8222C52.6587 72.9421 52.1558 73.0427 51.6413 73.12C50.5769 73.2972 49.4977 73.3698 48.4191 73.3367C47.8196 73.3205 47.2234 73.2427 46.6398 73.1046C45.8977 72.9422 45.2005 72.6187 44.5974 72.1569C44.2035 71.8388 43.8784 71.444 43.642 70.9964C43.5801 70.8804 43.5259 70.7488 43.4756 70.6367L43.406 70.4549L43.2629 70.068C43.0656 69.5768 42.9031 69.0933 42.7252 68.6097C42.0715 66.6757 41.5261 64.7222 41.0464 62.7727C40.5668 60.8231 40.1529 58.8774 39.8086 56.8776L44.0326 56.1349Z" fill="#E4897B"/>
<path d="M38.4933 55.1873C37.6926 57.7829 40.938 65.5231 40.938 65.5231L47.4017 63.8985C47.4017 63.8985 47.1541 59.8756 45.6803 56.6843C43.46 51.8723 39.4526 52.0734 38.4933 55.1873Z" fill="#1C2D5E"/>
<path d="M54.2601 70.3115L57.4784 70.2302L55.9312 73.5801C55.9312 73.5801 54.6199 73.7541 53.5445 71.9864L52.4111 70.6325L53.7147 70.3733C53.8942 70.3356 54.0768 70.3149 54.2601 70.3115Z" fill="#E4897B"/>
<path d="M59.5087 70.853L57.6675 73.6303L55.9307 73.5801L57.4779 70.2302L59.5087 70.853Z" fill="#E4897B"/>
<path d="M43.0731 134.392L42.9261 137.784H40.083L40.23 134.392H43.0731Z" fill="#CE6F64"/>
<path d="M19.8718 125.244L22.2507 126.803L19.543 129.085L17.168 127.53L19.8718 125.244Z" fill="#CE6F64"/>
<path d="M32.2774 42.8321C32.4476 45.6443 32.4051 47.3037 33.8247 48.7465C35.9599 50.9243 39.4374 49.6362 40.1105 46.8124C40.7178 44.2827 40.3387 40.105 37.5846 38.9833C36.9769 38.738 36.3168 38.6511 35.6663 38.7308C35.0159 38.8105 34.3963 39.0541 33.8658 39.4389C33.3353 39.8236 32.9112 40.3368 32.6334 40.9303C32.3556 41.5239 32.2331 42.1783 32.2774 42.8321Z" fill="#E4897B"/>
<path d="M28.9656 42.3372C29.6658 44.9018 31.3136 47.857 33.445 48.0466C36.0908 48.2787 37.2861 45.5439 37.6342 42.7201C39.2202 41.6332 38.3885 40.4379 39.9783 40.287C42.0207 40.0936 41.367 36.357 38.6786 35.7574C38.6786 35.7574 39.5799 37.4401 37.6884 36.5891C35.8895 35.7341 33.891 35.3877 31.9093 35.5872C31.9093 35.5872 34.3231 36.7941 31.9635 37.3317C29.6039 37.8694 28.8999 39.3239 29.9868 40.2019C29.9868 40.2058 28.5053 40.6506 28.9656 42.3372Z" fill="#263238"/>
<path d="M36.0215 43.3005C36.0734 43.9996 36.3549 44.6618 36.8222 45.1843C37.4411 45.869 38.0871 45.4435 38.1954 44.6118C38.296 43.8653 38.091 42.6081 37.3328 42.229C36.5746 41.85 35.9712 42.4573 36.0215 43.3005Z" fill="#E4897B"/>
<path d="M37.066 77.6765C37.066 77.6765 39.8356 97.7329 37.654 105.771C34.1958 118.497 20.9744 129.239 20.9744 129.239L16.4912 126.299C16.4912 126.299 27.7515 117.229 29.1285 106.572C30.3663 97.0057 27.2602 85.436 27.2602 77.6726L37.066 77.6765Z" fill="#FF5C8A"/>
<path opacity="0.1" d="M37.066 77.6765C37.066 77.6765 39.8356 97.7329 37.654 105.771C34.1958 118.497 20.9744 129.239 20.9744 129.239L16.4912 126.299C16.4912 126.299 27.7515 117.229 29.1285 106.572C30.3663 97.0057 27.2602 85.436 27.2602 77.6726L37.066 77.6765Z" fill="#1C2D5E"/>
<path d="M38.2115 89.1418C37.4742 88.2971 36.6624 87.5203 35.7861 86.8209C36.258 93.331 36.6449 102.974 36.2155 109.825C36.7928 108.512 37.2737 107.158 37.6545 105.775C38.7182 101.849 38.606 95.0678 38.2115 89.1418Z" fill="#FF5C8A"/>
<path opacity="0.3" d="M38.2115 89.1418C37.4742 88.2971 36.6624 87.5203 35.7861 86.8209C36.258 93.331 36.6449 102.974 36.2155 109.825C36.7928 108.512 37.2737 107.158 37.6545 105.775C38.7182 101.849 38.606 95.0678 38.2115 89.1418Z" fill="#1C2D5E"/>
<path d="M22.7804 128.237C22.7997 128.237 21.0436 129.398 21.0436 129.398L16.1465 126.187L17.6938 124.907L22.7804 128.237Z" fill="#FF5C8A"/>
<path opacity="0.3" d="M22.7804 128.237C22.7997 128.237 21.0436 129.398 21.0436 129.398L16.1465 126.187L17.6938 124.907L22.7804 128.237Z" fill="#1C2D5E"/>
<path d="M42.4583 77.6768C42.4583 77.6768 46.7365 95.8185 47.0382 104.487C47.3786 114.204 43.9862 137.127 43.9862 137.127H39.1703C39.1703 137.127 38.5785 114.026 38.3658 105.176C38.1298 95.5245 32.4668 77.6768 32.4668 77.6768H42.4583Z" fill="#FF5C8A"/>
<path opacity="0.1" d="M42.4583 77.6768C42.4583 77.6768 46.7365 95.8185 47.0382 104.487C47.3786 114.204 43.9862 137.127 43.9862 137.127H39.1703C39.1703 137.127 38.5785 114.026 38.3658 105.176C38.1298 95.5245 32.4668 77.6768 32.4668 77.6768H42.4583Z" fill="#1C2D5E"/>
<path d="M44.9108 135.212C44.934 135.212 44.64 137.208 44.64 137.208H38.7836L38.625 135.425L44.9108 135.212Z" fill="#FF5C8A"/>
<path opacity="0.3" d="M44.9108 135.212C44.934 135.212 44.64 137.208 44.64 137.208H38.7836L38.625 135.425L44.9108 135.212Z" fill="#1C2D5E"/>
<path d="M116.503 60.2426C116.832 60.5521 117.091 60.8151 117.362 61.1091C117.633 61.4031 117.888 61.6893 118.136 61.9872C118.639 62.579 119.111 63.2018 119.567 63.8284C120.479 65.0854 121.29 66.4125 121.992 67.7972L122.136 68.0795C122.205 68.2162 122.264 68.3586 122.31 68.505C122.403 68.7881 122.46 69.0818 122.48 69.3792C122.505 69.9037 122.433 70.4283 122.267 70.9265C121.984 71.754 121.565 72.5282 121.025 73.2165C120.053 74.4648 118.907 75.5669 117.621 76.4889L116.658 75.3826C117.111 74.8527 117.583 74.2841 118.004 73.7155C118.433 73.1645 118.821 72.5827 119.165 71.9748C119.486 71.4443 119.723 70.8677 119.869 70.2651C119.919 70.0495 119.928 69.8264 119.896 69.6075C119.882 69.5338 119.859 69.4623 119.826 69.3947C119.812 69.365 119.795 69.3366 119.776 69.3096L119.652 69.1007C118.906 67.8843 118.097 66.7081 117.227 65.5768C116.797 65.0082 116.337 64.4628 115.873 63.9251C115.645 63.6543 115.409 63.3913 115.173 63.1283C114.937 62.8652 114.682 62.6022 114.477 62.3972L116.503 60.2426Z" fill="#E4897B"/>
<path d="M117.029 75.0572L114.14 74.5853L115.652 77.1151C115.652 77.1151 117.513 77.0494 118.043 75.9547L117.029 75.0572Z" fill="#E4897B"/>
<path d="M112.005 75.7535L113.382 77.8075L115.653 77.1151L114.14 74.5853L112.005 75.7535Z" fill="#E4897B"/>
<path d="M116.89 141.083C116.694 141.1 116.498 141.047 116.337 140.932C116.288 140.886 116.253 140.829 116.233 140.765C116.213 140.701 116.211 140.634 116.225 140.569C116.228 140.527 116.242 140.487 116.265 140.453C116.289 140.419 116.322 140.392 116.36 140.375C116.697 140.224 117.579 140.789 117.679 140.855C117.691 140.862 117.699 140.873 117.704 140.885C117.709 140.898 117.71 140.912 117.706 140.925C117.705 140.938 117.699 140.95 117.69 140.96C117.681 140.97 117.669 140.976 117.656 140.979C117.405 141.042 117.148 141.077 116.89 141.083ZM116.503 140.484C116.475 140.479 116.446 140.479 116.418 140.484C116.401 140.491 116.387 140.504 116.376 140.52C116.366 140.535 116.361 140.554 116.36 140.573C116.35 140.616 116.351 140.661 116.363 140.703C116.375 140.746 116.398 140.785 116.43 140.816C116.577 140.948 116.956 140.967 117.463 140.866C117.172 140.675 116.846 140.544 116.503 140.484Z" fill="#FF5C8A"/>
<path d="M117.664 140.975H117.629C117.355 140.816 116.825 140.201 116.89 139.865C116.903 139.812 116.932 139.764 116.974 139.729C117.016 139.694 117.068 139.674 117.122 139.671C117.175 139.664 117.228 139.668 117.278 139.684C117.328 139.7 117.374 139.728 117.413 139.764C117.73 140.043 117.734 140.878 117.734 140.925C117.733 140.936 117.729 140.948 117.723 140.958C117.717 140.968 117.709 140.976 117.699 140.983L117.664 140.975ZM117.169 139.814H117.138C117.053 139.814 117.033 139.861 117.026 139.896C116.987 140.093 117.316 140.565 117.591 140.785C117.597 140.461 117.504 140.142 117.324 139.872C117.3 139.851 117.273 139.834 117.243 139.824C117.213 139.814 117.181 139.811 117.15 139.814H117.169Z" fill="#FF5C8A"/>
<path d="M103.707 141.083C103.46 141.107 103.213 141.044 103.007 140.905C102.961 140.864 102.925 140.812 102.903 140.754C102.88 140.697 102.872 140.634 102.879 140.573C102.882 140.535 102.894 140.499 102.914 140.467C102.934 140.435 102.962 140.409 102.995 140.391C103.355 140.19 104.508 140.778 104.639 140.851C104.651 140.859 104.661 140.87 104.667 140.883C104.673 140.896 104.676 140.91 104.674 140.925C104.672 140.938 104.666 140.951 104.656 140.96C104.646 140.97 104.634 140.976 104.62 140.979C104.32 141.043 104.014 141.077 103.707 141.083ZM103.193 140.484C103.148 140.481 103.104 140.49 103.065 140.511C103.051 140.517 103.039 140.528 103.031 140.541C103.023 140.554 103.019 140.569 103.019 140.584C103.013 140.624 103.017 140.666 103.03 140.704C103.044 140.742 103.066 140.777 103.096 140.805C103.274 140.963 103.75 140.99 104.392 140.882C104.017 140.683 103.612 140.548 103.193 140.484Z" fill="#FF5C8A"/>
<path d="M104.608 140.975H104.577C104.233 140.82 103.548 140.201 103.603 139.865C103.603 139.787 103.672 139.691 103.862 139.671C103.931 139.664 104.001 139.671 104.068 139.691C104.134 139.712 104.196 139.746 104.249 139.791C104.612 140.093 104.682 140.874 104.682 140.909C104.683 140.921 104.682 140.933 104.677 140.944C104.672 140.955 104.664 140.964 104.655 140.971C104.64 140.977 104.624 140.979 104.608 140.975ZM103.916 139.814H103.873C103.75 139.814 103.742 139.876 103.738 139.892C103.707 140.089 104.171 140.58 104.512 140.793C104.478 140.462 104.343 140.15 104.125 139.9C104.066 139.85 103.993 139.82 103.916 139.814Z" fill="#FF5C8A"/>
<path d="M109.181 51.3494C109.068 53.0978 108.767 56.6488 110.109 57.6313C110.109 57.6313 109.865 59.4223 106.697 59.8401C103.216 60.2926 104.806 58.3276 104.806 58.3276C106.651 57.6236 106.415 56.2195 105.912 54.9352L109.181 51.3494Z" fill="#E4897B"/>
<path d="M101.974 48.2591C101.955 48.2591 101.936 48.255 101.918 48.247C101.901 48.2389 101.886 48.2272 101.873 48.2126C101.763 48.0814 101.623 47.9781 101.465 47.9109C101.307 47.8437 101.136 47.8145 100.964 47.8258C100.946 47.8291 100.928 47.8287 100.91 47.8246C100.892 47.8205 100.875 47.8128 100.86 47.8019C100.845 47.791 100.833 47.7773 100.823 47.7614C100.814 47.7456 100.808 47.728 100.806 47.7098C100.801 47.6734 100.811 47.6368 100.834 47.6078C100.856 47.5788 100.889 47.5599 100.926 47.5551C101.144 47.5366 101.364 47.5713 101.566 47.6562C101.768 47.741 101.946 47.8736 102.086 48.0424C102.103 48.0626 102.114 48.0871 102.117 48.1131C102.12 48.1391 102.116 48.1655 102.106 48.1894C102.095 48.2132 102.077 48.2335 102.055 48.2479C102.033 48.2623 102.008 48.2702 101.982 48.2707L101.974 48.2591Z" fill="#1C2D5E"/>
<path d="M101.371 49.9728C101.234 50.5277 101.021 51.0612 100.74 51.5588C100.869 51.6283 101.012 51.6685 101.159 51.6765C101.305 51.6845 101.451 51.6602 101.587 51.6052L101.371 49.9728Z" fill="#DE5753"/>
<path d="M101.526 49.5464C101.557 49.7785 101.46 49.9797 101.309 50.0029C101.158 50.0261 101.007 49.8482 100.98 49.6161C100.953 49.384 101.046 49.1828 101.197 49.1635C101.348 49.1442 101.499 49.2989 101.526 49.5464Z" fill="#1C2D5E"/>
<path d="M101.267 49.1676L100.69 49.0787C100.69 49.0787 101.031 49.4771 101.267 49.1676Z" fill="#1C2D5E"/>
<path d="M107.796 140.913H104.895L104.701 134.202H107.602L107.796 140.913Z" fill="#E4897B"/>
<path d="M120.967 140.913H118.066L117.134 134.202H120.035L120.967 140.913Z" fill="#E4897B"/>
<path d="M117.888 140.588H121.145C121.201 140.588 121.254 140.607 121.296 140.644C121.338 140.68 121.366 140.73 121.373 140.785L121.76 143.366C121.767 143.431 121.76 143.496 121.74 143.559C121.72 143.621 121.687 143.678 121.643 143.727C121.599 143.775 121.546 143.814 121.486 143.841C121.426 143.867 121.361 143.88 121.296 143.88C120.163 143.861 119.613 143.795 118.182 143.795C117.3 143.795 116.012 143.884 114.797 143.884C113.583 143.884 113.517 142.681 114.024 142.573C116.294 142.085 116.654 141.412 117.416 140.766C117.549 140.656 117.715 140.593 117.888 140.588Z" fill="#1C2D5E"/>
<path d="M104.798 140.588H108.051C108.107 140.588 108.161 140.607 108.204 140.643C108.247 140.68 108.275 140.73 108.283 140.785L108.67 143.366C108.677 143.431 108.67 143.496 108.65 143.559C108.63 143.621 108.597 143.678 108.553 143.727C108.509 143.775 108.456 143.814 108.396 143.841C108.336 143.867 108.271 143.88 108.206 143.88C107.072 143.861 106.523 143.795 105.092 143.795C104.21 143.795 102.384 143.884 101.169 143.884C99.9549 143.884 99.8891 142.681 100.396 142.573C102.666 142.085 103.56 141.412 104.326 140.766C104.459 140.656 104.625 140.593 104.798 140.588Z" fill="#1C2D5E"/>
<path d="M104.701 134.202L104.802 137.664H107.703L107.602 134.202H104.701Z" fill="#CE6F64"/>
<path d="M120.035 134.202H117.134L117.617 137.664H120.515L120.035 134.202Z" fill="#CE6F64"/>
<path d="M109.22 47.7285C109.417 50.5986 109.56 51.8094 108.314 53.4611C106.438 55.9406 102.872 55.5576 101.82 52.8035C100.872 50.324 100.71 46.0497 103.348 44.5488C103.928 44.2162 104.584 44.0374 105.253 44.0293C105.922 44.0213 106.581 44.1842 107.17 44.5027C107.758 44.8212 108.255 45.2848 108.614 45.8493C108.972 46.4138 109.181 47.0607 109.22 47.7285Z" fill="#E4897B"/>
<path d="M110.89 50.3941C112.499 51.2915 113.695 49.0789 113.695 49.0789C113.695 49.0789 110.809 49.3922 111.068 47.6747C111.408 45.3964 109.776 42.6268 105.684 42.9826C105.455 43.002 105.239 43.0291 105.026 43.0639C104.598 42.8608 104.113 42.8084 103.651 42.9151C103.189 43.0218 102.777 43.2814 102.481 43.6518C101.32 43.7485 99.7537 45.1333 100.817 46.963C100.892 46.7528 101.008 46.5595 101.158 46.3944C101.247 47.4659 102.183 49.1678 103.351 49.28C103.603 50.7461 102.628 52.4442 102.964 53.976C103.463 56.1847 107.188 56.6837 107.188 56.6837C107.06 56.4079 107.012 56.1013 107.05 55.7995C107.089 55.4977 107.212 55.2128 107.405 54.9778C109.935 56.1383 111.602 55.0049 111.602 55.0049C109.877 54.3628 110.399 53.2178 110.399 53.2178C110.995 53.4823 111.67 53.5055 112.282 53.2826C112.894 53.0597 113.397 52.608 113.683 52.0226C113.11 52.0498 112.541 51.9105 112.046 51.6215C111.55 51.3325 111.149 50.9062 110.89 50.3941Z" fill="#263238"/>
<path d="M104.361 49.7209C104.367 49.9963 104.32 50.2704 104.22 50.5273C104.121 50.7843 103.971 51.0189 103.78 51.2179C103.27 51.7478 102.643 51.3765 102.473 50.6995C102.322 50.0884 102.407 49.0788 103.073 48.8003C103.219 48.7427 103.377 48.7227 103.534 48.742C103.69 48.7613 103.839 48.8193 103.967 48.9108C104.095 49.0023 104.198 49.1243 104.267 49.2658C104.335 49.4073 104.368 49.5637 104.361 49.7209Z" fill="#E4897B"/>
<path d="M106.771 76.4616C106.771 76.4616 107.505 95.5549 109.254 106.765C110.662 115.824 116.917 136.991 116.917 136.991H120.87C120.87 136.991 117.609 116.547 116.894 107.593C115.083 84.929 119.783 80.0629 115.346 75.3437L106.771 76.4616Z" fill="#1C2D5E"/>
<path d="M110.075 82.4995C110.075 82.4995 108.288 82.1901 107.243 85.594C107.63 92.0423 108.291 100.599 109.255 106.765C109.467 108.138 109.792 109.793 110.191 111.608C109.436 100.715 110.075 82.4995 110.075 82.4995Z" fill="#161F33"/>
<path d="M103.688 76.8642C103.688 76.8642 100.431 97.9883 100.62 106.827C100.818 116.022 104.187 136.999 104.187 136.999H108.105C108.105 136.999 107.486 116.567 107.831 107.539C108.217 97.6943 112.236 75.754 112.236 75.754L103.688 76.8642Z" fill="#1C2D5E"/>
<path d="M121.443 137.176H116.186L115.776 135.412L121.405 135.451L121.443 137.176Z" fill="#FF5C8A"/>
<path opacity="0.2" d="M121.443 137.176H116.186L115.776 135.412L121.405 135.451L121.443 137.176Z" fill="#1C2D5E"/>
<path d="M115.149 57.6356C116.661 57.7825 118.959 62.0801 118.959 62.0801L115.141 65.0083C115.141 65.0083 111.981 62.2348 112.356 60.6759C112.747 59.0552 113.698 57.5002 115.149 57.6356Z" fill="#FF5C8A"/>
<path opacity="0.1" d="M115.149 57.6356C116.661 57.7825 118.959 62.0801 118.959 62.0801L115.141 65.0083C115.141 65.0083 111.981 62.2348 112.356 60.6759C112.747 59.0552 113.698 57.5002 115.149 57.6356Z" fill="#1C2D5E"/>
<path d="M114.008 59.4841C113.622 59.3802 113.223 59.3358 112.824 59.3526C112.621 59.7755 112.464 60.219 112.356 60.6755C111.969 62.2227 115.141 65.0078 115.141 65.0078L115.423 64.7912L114.008 59.4841Z" fill="#FF5C8A"/>
<path opacity="0.3" d="M114.008 59.4841C113.622 59.3802 113.223 59.3358 112.824 59.3526C112.621 59.7755 112.464 60.219 112.356 60.6755C111.969 62.2227 115.141 65.0078 115.141 65.0078L115.423 64.7912L114.008 59.4841Z" fill="#1C2D5E"/>
<path d="M102.392 63.6114C101.29 66.4004 100.129 69.2358 99.2046 72.0325C99.1427 72.2104 99.0925 72.3806 99.0383 72.5547L98.9068 72.984C98.8709 73.1105 98.8709 73.2444 98.9068 73.3708C99.1251 73.8544 99.4716 74.2691 99.9086 74.57C101.065 75.3998 102.325 76.0747 103.657 76.5776L103.309 78.001C101.671 77.785 100.086 77.2684 98.636 76.477C97.7434 76.0001 97.0164 75.2637 96.5511 74.365C96.2839 73.7905 96.1911 73.1504 96.2842 72.5237C96.293 72.447 96.3059 72.3708 96.3228 72.2955L96.3615 72.133L96.4273 71.839C96.4737 71.6418 96.5201 71.4522 96.5704 71.2588C96.9572 69.7116 97.4524 68.2416 97.9746 66.7833C98.4968 65.325 99.0422 63.8861 99.6572 62.451L102.392 63.6114Z" fill="#E4897B"/>
<path d="M100.044 59.6972C100.044 59.6972 98.7364 60.3586 103.688 76.8641L115.362 75.3401C114.542 70.6132 114.155 67.685 115.149 57.6354C113.475 57.5156 111.795 57.5156 110.12 57.6354C108.338 57.7391 106.566 57.9718 104.817 58.3317C102.578 58.8307 100.044 59.6972 100.044 59.6972Z" fill="#FF5C8A"/>
<path opacity="0.1" d="M100.044 59.6972C100.044 59.6972 98.7364 60.3586 103.688 76.8641L115.362 75.3401C114.542 70.6132 114.155 67.685 115.149 57.6354C113.475 57.5156 111.795 57.5156 110.12 57.6354C108.338 57.7391 106.566 57.9718 104.817 58.3317C102.578 58.8307 100.044 59.6972 100.044 59.6972Z" fill="#1C2D5E"/>
<path d="M115.447 74.632L116.116 75.6029C116.167 75.6803 116.082 75.7731 115.95 75.7924L103.707 77.3939C103.603 77.3939 103.506 77.3668 103.491 77.301L103.251 76.2682C103.231 76.1986 103.317 76.1251 103.433 76.1096L115.254 74.5624C115.289 74.5567 115.326 74.5601 115.359 74.5723C115.393 74.5844 115.423 74.605 115.447 74.632Z" fill="#FF5C8A"/>
<path opacity="0.2" d="M115.447 74.632L116.116 75.6029C116.167 75.6803 116.082 75.7731 115.95 75.7924L103.707 77.3939C103.603 77.3939 103.506 77.3668 103.491 77.301L103.251 76.2682C103.231 76.1986 103.317 76.1251 103.433 76.1096L115.254 74.5624C115.289 74.5567 115.326 74.5601 115.359 74.5723C115.393 74.5844 115.423 74.605 115.447 74.632Z" fill="#1C2D5E"/>
<path d="M114.032 76.1603L114.349 76.1178C114.411 76.1178 114.453 76.0714 114.445 76.0327L114.121 74.6943C114.108 74.6715 114.088 74.6536 114.064 74.6437C114.041 74.6338 114.014 74.6326 113.989 74.6401L113.672 74.6788C113.606 74.6788 113.564 74.7252 113.575 74.7678L113.9 76.1023C113.908 76.1449 113.97 76.1681 114.032 76.1603Z" fill="#1C2D5E"/>
<path d="M106.357 77.1501L106.674 77.1076C106.736 77.1076 106.782 77.0612 106.771 77.0225L106.446 75.6841C106.433 75.6615 106.413 75.6436 106.39 75.6332C106.366 75.6227 106.339 75.6202 106.314 75.6261L105.997 75.6686C105.935 75.6686 105.889 75.715 105.9 75.7537L106.225 77.0921C106.233 77.1501 106.295 77.1733 106.357 77.1501Z" fill="#1C2D5E"/>
<path d="M100.59 65.2982C100.911 66.7913 101.363 68.6828 102.025 71.0772L102.168 65.0081L100.59 65.2982Z" fill="#FF5C8A"/>
<path opacity="0.3" d="M100.59 65.2982C100.911 66.7913 101.363 68.6828 102.025 71.0772L102.168 65.0081L100.59 65.2982Z" fill="#1C2D5E"/>
<path d="M100.044 59.6973C98.5931 60.2814 97.3359 65.2443 97.3359 65.2443L102.326 67.6735C102.326 67.6735 104.736 61.6043 103.657 60.4207C102.577 59.237 101.715 59.0281 100.044 59.6973Z" fill="#FF5C8A"/>
<path opacity="0.1" d="M100.044 59.6973C98.5931 60.2814 97.3359 65.2443 97.3359 65.2443L102.326 67.6735C102.326 67.6735 104.736 61.6043 103.657 60.4207C102.577 59.237 101.715 59.0281 100.044 59.6973Z" fill="#1C2D5E"/>
<path d="M108.774 137.176H103.517L103.107 135.412L108.96 135.451L108.774 137.176Z" fill="#FF5C8A"/>
<path opacity="0.2" d="M108.774 137.176H103.517L103.107 135.412L108.96 135.451L108.774 137.176Z" fill="#1C2D5E"/>
<path d="M103.738 76.0982L103.317 75.9241C103.213 75.882 103.1 75.868 102.989 75.8836C102.878 75.8992 102.774 75.9438 102.686 76.0129C102.598 76.0821 102.53 76.1732 102.488 76.2772C102.447 76.3812 102.434 76.4942 102.45 76.6049L102.756 78.6202C102.77 78.7211 102.807 78.8174 102.864 78.9023C102.92 78.9872 102.995 79.0585 103.082 79.111C103.17 79.1636 103.267 79.1961 103.369 79.2062C103.47 79.2163 103.573 79.2038 103.669 79.1695C103.822 79.1138 103.966 79.0342 104.094 78.9336C104.234 78.8175 104.345 78.6703 104.417 78.5037C104.49 78.337 104.522 78.1557 104.512 77.9742L104.469 77.1387C104.462 76.9129 104.389 76.6942 104.259 76.5094C104.129 76.3246 103.948 76.1816 103.738 76.0982Z" fill="#E4897B"/>
</svg>
