<svg width="189" height="149" viewBox="0 0 189 149" fill="none" xmlns="http://www.w3.org/2000/svg">
<path d="M94.1458 148.002C145.981 148.002 188.003 145.549 188.003 142.522C188.003 139.496 145.981 137.043 94.1458 137.043C42.3101 137.043 0.289062 139.496 0.289062 142.522C0.289062 145.549 42.3101 148.002 94.1458 148.002Z" fill="#F5F5F5"/>
<path d="M104.443 114.906H16.3901C14 114.906 12.0625 116.843 12.0625 119.233V134.941C12.0625 137.332 14 139.269 16.3901 139.269H104.443C106.833 139.269 108.77 137.332 108.77 134.941V119.233C108.77 116.843 106.833 114.906 104.443 114.906Z" fill="#FF5C8A"/>
<path d="M105.462 115.928H17.4096C15.0196 115.928 13.082 117.866 13.082 120.256V135.964C13.082 138.354 15.0196 140.292 17.4096 140.292H105.462C107.852 140.292 109.79 138.354 109.79 135.964V120.256C109.79 117.866 107.852 115.928 105.462 115.928Z" fill="#FF5C8A"/>
<path opacity="0.6" d="M105.462 115.928H17.4096C15.0196 115.928 13.082 117.866 13.082 120.256V135.964C13.082 138.354 15.0196 140.292 17.4096 140.292H105.462C107.852 140.292 109.79 138.354 109.79 135.964V120.256C109.79 117.866 107.852 115.928 105.462 115.928Z" fill="#FAFAFA"/>
<path d="M106.486 116.949H18.4331C16.043 116.949 14.1055 118.887 14.1055 121.277V136.99C14.1055 139.38 16.043 141.318 18.4331 141.318H106.486C108.876 141.318 110.813 139.38 110.813 136.99V121.277C110.813 118.887 108.876 116.949 106.486 116.949Z" fill="#FF5C8A"/>
<path opacity="0.8" d="M106.486 116.949H18.4331C16.043 116.949 14.1055 118.887 14.1055 121.277V136.99C14.1055 139.38 16.043 141.318 18.4331 141.318H106.486C108.876 141.318 110.813 139.38 110.813 136.99V121.277C110.813 118.887 108.876 116.949 106.486 116.949Z" fill="#FAFAFA"/>
<path d="M87.1711 121.069H40.1629C39.6522 121.069 39.2383 121.483 39.2383 121.993V123.833C39.2383 124.344 39.6522 124.757 40.1629 124.757H87.1711C87.6817 124.757 88.0957 124.344 88.0957 123.833V121.993C88.0957 121.483 87.6817 121.069 87.1711 121.069Z" fill="#FF5C8A"/>
<path d="M61.22 127.289H40.1629C39.6522 127.289 39.2383 127.703 39.2383 128.214V130.053C39.2383 130.564 39.6522 130.978 40.1629 130.978H61.22C61.7306 130.978 62.1446 130.564 62.1446 130.053V128.214C62.1446 127.703 61.7306 127.289 61.22 127.289Z" fill="#FF5C8A"/>
<path d="M81.5526 127.289H65.3894C64.8788 127.289 64.4648 127.703 64.4648 128.214V130.053C64.4648 130.564 64.8788 130.978 65.3894 130.978H81.5526C82.0632 130.978 82.4772 130.564 82.4772 130.053V128.214C82.4772 127.703 82.0632 127.289 81.5526 127.289Z" fill="#FF5C8A"/>
<path d="M96.5669 133.509H39.7417C39.4637 133.509 39.2383 133.735 39.2383 134.013V134.395C39.2383 134.673 39.4637 134.899 39.7417 134.899H96.5669C96.845 134.899 97.0704 134.673 97.0704 134.395V134.013C97.0704 133.735 96.845 133.509 96.5669 133.509Z" fill="#FF5C8A"/>
<path opacity="0.5" d="M96.5669 133.509H39.7417C39.4637 133.509 39.2383 133.735 39.2383 134.013V134.395C39.2383 134.673 39.4637 134.899 39.7417 134.899H96.5669C96.845 134.899 97.0704 134.673 97.0704 134.395V134.013C97.0704 133.735 96.845 133.509 96.5669 133.509Z" fill="#FAFAFA"/>
<path d="M34.2993 131.151C35.4093 126.488 32.5289 121.808 27.8657 120.698C23.2025 119.588 18.5224 122.468 17.4123 127.131C16.3022 131.794 19.1826 136.475 23.8458 137.585C28.509 138.695 33.1892 135.814 34.2993 131.151Z" fill="#FF5C8A"/>
<path d="M33.016 129.134C33.016 130.551 32.5959 131.936 31.8086 133.114C31.0214 134.292 29.9025 135.21 28.5934 135.753C27.2843 136.295 25.8438 136.437 24.4541 136.16C23.0644 135.884 21.7878 135.202 20.7859 134.2C19.7839 133.198 19.1016 131.921 18.8252 130.531C18.5487 129.142 18.6906 127.701 19.2328 126.392C19.7751 125.083 20.6934 123.964 21.8715 123.177C23.0497 122.39 24.4348 121.97 25.8518 121.97C26.7949 121.961 27.7303 122.141 28.6033 122.498C29.4763 122.855 30.2694 123.382 30.9364 124.049C31.6033 124.716 32.1307 125.509 32.4878 126.382C32.8449 127.255 33.0244 128.191 33.016 129.134Z" fill="#FAFAFA"/>
<path d="M104.443 86.7136H16.3901C14 86.7136 12.0625 88.6512 12.0625 91.0412V106.749C12.0625 109.139 14 111.077 16.3901 111.077H104.443C106.833 111.077 108.77 109.139 108.77 106.749V91.0412C108.77 88.6512 106.833 86.7136 104.443 86.7136Z" fill="#FF5C8A"/>
<path d="M105.462 87.7346H17.4096C15.0196 87.7346 13.082 89.6722 13.082 92.0622V107.775C13.082 110.165 15.0196 112.103 17.4096 112.103H105.462C107.852 112.103 109.79 110.165 109.79 107.775V92.0622C109.79 89.6722 107.852 87.7346 105.462 87.7346Z" fill="#FF5C8A"/>
<path opacity="0.6" d="M105.462 87.7346H17.4096C15.0196 87.7346 13.082 89.6722 13.082 92.0622V107.775C13.082 110.165 15.0196 112.103 17.4096 112.103H105.462C107.852 112.103 109.79 110.165 109.79 107.775V92.0622C109.79 89.6722 107.852 87.7346 105.462 87.7346Z" fill="#FAFAFA"/>
<path d="M106.486 88.7573H18.4331C16.043 88.7573 14.1055 90.6948 14.1055 93.0849V108.793C14.1055 111.183 16.043 113.121 18.4331 113.121H106.486C108.876 113.121 110.813 111.183 110.813 108.793V93.0849C110.813 90.6948 108.876 88.7573 106.486 88.7573Z" fill="#FF5C8A"/>
<path opacity="0.8" d="M106.486 88.7573H18.4331C16.043 88.7573 14.1055 90.6948 14.1055 93.0849V108.793C14.1055 111.183 16.043 113.121 18.4331 113.121H106.486C108.876 113.121 110.813 111.183 110.813 108.793V93.0849C110.813 90.6948 108.876 88.7573 106.486 88.7573Z" fill="#FAFAFA"/>
<path d="M54.1719 92.877H40.1629C39.6522 92.877 39.2383 93.2909 39.2383 93.8015V95.641C39.2383 96.1516 39.6522 96.5656 40.1629 96.5656H54.1719C54.6825 96.5656 55.0965 96.1516 55.0965 95.641V93.8015C55.0965 93.2909 54.6825 92.877 54.1719 92.877Z" fill="#FF5C8A"/>
<path d="M68.8959 92.877H58.0769C57.5663 92.877 57.1523 93.2909 57.1523 93.8015V95.641C57.1523 96.1516 57.5663 96.5656 58.0769 96.5656H68.8959C69.4066 96.5656 69.8205 96.1516 69.8205 95.641V93.8015C69.8205 93.2909 69.4066 92.877 68.8959 92.877Z" fill="#FF5C8A"/>
<path d="M89.3494 99.0969H40.1629C39.6522 99.0969 39.2383 99.5109 39.2383 100.022V101.861C39.2383 102.372 39.6522 102.786 40.1629 102.786H89.3494C89.86 102.786 90.274 102.372 90.274 101.861V100.022C90.274 99.5109 89.86 99.0969 89.3494 99.0969Z" fill="#FF5C8A"/>
<path d="M74.0382 105.317H39.7417C39.4637 105.317 39.2383 105.543 39.2383 105.821V106.203C39.2383 106.481 39.4637 106.706 39.7417 106.706H74.0382C74.3163 106.706 74.5416 106.481 74.5416 106.203V105.821C74.5416 105.543 74.3163 105.317 74.0382 105.317Z" fill="#FF5C8A"/>
<path opacity="0.5" d="M74.0382 105.317H39.7417C39.4637 105.317 39.2383 105.543 39.2383 105.821V106.203C39.2383 106.481 39.4637 106.706 39.7417 106.706H74.0382C74.3163 106.706 74.5416 106.481 74.5416 106.203V105.821C74.5416 105.543 74.3163 105.317 74.0382 105.317Z" fill="#FAFAFA"/>
<path d="M34.2992 102.961C35.4093 98.2978 32.5289 93.6176 27.8657 92.5075C23.2025 91.3975 18.5224 94.2778 17.4123 98.941C16.3022 103.604 19.1826 108.284 23.8458 109.394C28.509 110.505 33.1892 107.624 34.2992 102.961Z" fill="#FF5C8A"/>
<path d="M33.016 100.94C33.016 102.357 32.5959 103.742 31.8086 104.92C31.0214 106.098 29.9025 107.017 28.5934 107.559C27.2843 108.101 25.8438 108.243 24.4541 107.967C23.0644 107.69 21.7878 107.008 20.7859 106.006C19.7839 105.004 19.1016 103.727 18.8252 102.338C18.5487 100.948 18.6906 99.5074 19.2328 98.1983C19.7751 96.8892 20.6934 95.7703 21.8715 94.9831C23.0497 94.1958 24.4348 93.7757 25.8518 93.7757C26.7949 93.7673 27.7303 93.9468 28.6033 94.3039C29.4763 94.661 30.2694 95.1884 30.9364 95.8553C31.6033 96.5223 32.1307 97.3154 32.4878 98.1884C32.8449 99.0614 33.0244 99.9968 33.016 100.94V100.94Z" fill="#FAFAFA"/>
<path d="M104.443 58.5217H16.3901C14 58.5217 12.0625 60.4593 12.0625 62.8493V78.5623C12.0625 80.9524 14 82.8899 16.3901 82.8899H104.443C106.833 82.8899 108.77 80.9524 108.77 78.5623V62.8493C108.77 60.4593 106.833 58.5217 104.443 58.5217Z" fill="#FF5C8A"/>
<path d="M105.462 59.5427H17.4096C15.0196 59.5427 13.082 61.4803 13.082 63.8703V79.5785C13.082 81.9685 15.0196 83.9061 17.4096 83.9061H105.462C107.852 83.9061 109.79 81.9685 109.79 79.5785V63.8703C109.79 61.4803 107.852 59.5427 105.462 59.5427Z" fill="#FF5C8A"/>
<path opacity="0.6" d="M105.462 59.5427H17.4096C15.0196 59.5427 13.082 61.4803 13.082 63.8703V79.5785C13.082 81.9685 15.0196 83.9061 17.4096 83.9061H105.462C107.852 83.9061 109.79 81.9685 109.79 79.5785V63.8703C109.79 61.4803 107.852 59.5427 105.462 59.5427Z" fill="#FAFAFA"/>
<path d="M106.486 60.5637H18.4331C16.043 60.5637 14.1055 62.5013 14.1055 64.8913V80.6043C14.1055 82.9944 16.043 84.9319 18.4331 84.9319H106.486C108.876 84.9319 110.813 82.9944 110.813 80.6043V64.8913C110.813 62.5013 108.876 60.5637 106.486 60.5637Z" fill="#FF5C8A"/>
<path opacity="0.8" d="M106.486 60.5637H18.4331C16.043 60.5637 14.1055 62.5013 14.1055 64.8913V80.6043C14.1055 82.9944 16.043 84.9319 18.4331 84.9319H106.486C108.876 84.9319 110.813 82.9944 110.813 80.6043V64.8913C110.813 62.5013 108.876 60.5637 106.486 60.5637Z" fill="#FAFAFA"/>
<path d="M86.8226 64.6831H40.1629C39.6522 64.6831 39.2383 65.0971 39.2383 65.6077V67.4472C39.2383 67.9578 39.6522 68.3717 40.1629 68.3717H86.8226C87.3332 68.3717 87.7471 67.9578 87.7471 67.4472V65.6077C87.7471 65.0971 87.3332 64.6831 86.8226 64.6831Z" fill="#FF5C8A"/>
<path d="M71.1144 70.9033H40.1629C39.6522 70.9033 39.2383 71.3173 39.2383 71.8279V73.6674C39.2383 74.178 39.6522 74.5919 40.1629 74.5919H71.1144C71.625 74.5919 72.039 74.178 72.039 73.6674V71.8279C72.039 71.3173 71.625 70.9033 71.1144 70.9033Z" fill="#FF5C8A"/>
<path d="M78.5773 70.9033H75.7019C75.1913 70.9033 74.7773 71.3173 74.7773 71.8279V73.6674C74.7773 74.178 75.1913 74.5919 75.7019 74.5919H78.5773C79.0879 74.5919 79.5019 74.178 79.5019 73.6674V71.8279C79.5019 71.3173 79.0879 70.9033 78.5773 70.9033Z" fill="#FF5C8A"/>
<path d="M64.7053 77.1235H39.7417C39.4637 77.1235 39.2383 77.3489 39.2383 77.627V78.0094C39.2383 78.2874 39.4637 78.5128 39.7417 78.5128H64.7053C64.9833 78.5128 65.2087 78.2874 65.2087 78.0094V77.627C65.2087 77.3489 64.9833 77.1235 64.7053 77.1235Z" fill="#FF5C8A"/>
<path opacity="0.5" d="M64.7053 77.1235H39.7417C39.4637 77.1235 39.2383 77.3489 39.2383 77.627V78.0094C39.2383 78.2874 39.4637 78.5128 39.7417 78.5128H64.7053C64.9833 78.5128 65.2087 78.2874 65.2087 78.0094V77.627C65.2087 77.3489 64.9833 77.1235 64.7053 77.1235Z" fill="#FAFAFA"/>
<path d="M96.9782 77.1235H68.355C68.077 77.1235 67.8516 77.3489 67.8516 77.627V78.0094C67.8516 78.2874 68.077 78.5128 68.355 78.5128H96.9782C97.2562 78.5128 97.4816 78.2874 97.4816 78.0094V77.627C97.4816 77.3489 97.2562 77.1235 96.9782 77.1235Z" fill="#FF5C8A"/>
<path opacity="0.5" d="M96.9782 77.1235H68.355C68.077 77.1235 67.8516 77.3489 67.8516 77.627V78.0094C67.8516 78.2874 68.077 78.5128 68.355 78.5128H96.9782C97.2562 78.5128 97.4816 78.2874 97.4816 78.0094V77.627C97.4816 77.3489 97.2562 77.1235 96.9782 77.1235Z" fill="#FAFAFA"/>
<path d="M31.9899 78.8831C35.3795 75.4936 35.3795 69.9981 31.9899 66.6086C28.6004 63.2191 23.1049 63.2191 19.7154 66.6086C16.3259 69.9981 16.3259 75.4936 19.7154 78.8831C23.1049 82.2726 28.6004 82.2726 31.9899 78.8831Z" fill="#FF5C8A"/>
<path d="M33.016 72.7481C33.016 74.165 32.5959 75.5501 31.8086 76.7283C31.0214 77.9065 29.9025 78.8247 28.5934 79.367C27.2843 79.9092 25.8438 80.0511 24.4541 79.7747C23.0644 79.4982 21.7878 78.8159 20.7859 77.814C19.7839 76.812 19.1016 75.5355 18.8252 74.1457C18.5487 72.756 18.6906 71.3155 19.2328 70.0064C19.7751 68.6973 20.6934 67.5784 21.8715 66.7912C23.0497 66.004 24.4348 65.5838 25.8518 65.5838C26.7949 65.5754 27.7303 65.755 28.6033 66.112C29.4763 66.4691 30.2694 66.9965 30.9364 67.6634C31.6033 68.3304 32.1307 69.1235 32.4878 69.9965C32.8449 70.8695 33.0244 71.8049 33.016 72.7481V72.7481Z" fill="#FAFAFA"/>
<path d="M36.223 0.442627H34.0156V0.926699H36.223V0.442627Z" fill="#FF5C8A"/>
<path d="M30.5191 0.442627H25.3008V0.926699H30.5191V0.442627Z" fill="#FF5C8A"/>
<path d="M104.443 2.13599H16.3901C14 2.13599 12.0625 4.07352 12.0625 6.46359V22.1766C12.0625 24.5666 14 26.5042 16.3901 26.5042H104.443C106.833 26.5042 108.77 24.5666 108.77 22.1766V6.46359C108.77 4.07352 106.833 2.13599 104.443 2.13599Z" fill="#FF5C8A"/>
<path d="M105.462 3.15869H17.4096C15.0196 3.15869 13.082 5.09623 13.082 7.4863V23.1993C13.082 25.5893 15.0196 27.5269 17.4096 27.5269H105.462C107.852 27.5269 109.79 25.5893 109.79 23.1993V7.4863C109.79 5.09623 107.852 3.15869 105.462 3.15869Z" fill="#FF5C8A"/>
<path opacity="0.6" d="M105.462 3.15869H17.4096C15.0196 3.15869 13.082 5.09623 13.082 7.4863V23.1993C13.082 25.5893 15.0196 27.5269 17.4096 27.5269H105.462C107.852 27.5269 109.79 25.5893 109.79 23.1993V7.4863C109.79 5.09623 107.852 3.15869 105.462 3.15869Z" fill="#FAFAFA"/>
<path d="M106.486 4.17969H18.4331C16.043 4.17969 14.1055 6.11722 14.1055 8.50729V24.2203C14.1055 26.6103 16.043 28.5479 18.4331 28.5479H106.486C108.876 28.5479 110.813 26.6103 110.813 24.2203V8.50729C110.813 6.11722 108.876 4.17969 106.486 4.17969Z" fill="#FF5C8A"/>
<path opacity="0.8" d="M106.486 4.17969H18.4331C16.043 4.17969 14.1055 6.11722 14.1055 8.50729V24.2203C14.1055 26.6103 16.043 28.5479 18.4331 28.5479H106.486C108.876 28.5479 110.813 26.6103 110.813 24.2203V8.50729C110.813 6.11722 108.876 4.17969 106.486 4.17969Z" fill="#FAFAFA"/>
<path d="M82.9742 8.29907H40.1629C39.6522 8.29907 39.2383 8.71301 39.2383 9.22364V11.0631C39.2383 11.5737 39.6522 11.9877 40.1629 11.9877H82.9742C83.4848 11.9877 83.8988 11.5737 83.8988 11.0631V9.22364C83.8988 8.71301 83.4848 8.29907 82.9742 8.29907Z" fill="#FF5C8A"/>
<path d="M97.7384 14.5193H40.1629C39.6522 14.5193 39.2383 14.9332 39.2383 15.4439V17.2833C39.2383 17.794 39.6522 18.2079 40.1629 18.2079H97.7384C98.249 18.2079 98.663 17.794 98.663 17.2833V15.4439C98.663 14.9332 98.249 14.5193 97.7384 14.5193Z" fill="#FF5C8A"/>
<path d="M55.4547 20.7395H39.7417C39.4637 20.7395 39.2383 20.9649 39.2383 21.2429V21.6254C39.2383 21.9034 39.4637 22.1288 39.7417 22.1288H55.4547C55.7327 22.1288 55.9581 21.9034 55.9581 21.6254V21.2429C55.9581 20.9649 55.7327 20.7395 55.4547 20.7395Z" fill="#FF5C8A"/>
<path opacity="0.5" d="M55.4547 20.7395H39.7417C39.4637 20.7395 39.2383 20.9649 39.2383 21.2429V21.6254C39.2383 21.9034 39.4637 22.1288 39.7417 22.1288H55.4547C55.7327 22.1288 55.9581 21.9034 55.9581 21.6254V21.2429C55.9581 20.9649 55.7327 20.7395 55.4547 20.7395Z" fill="#FAFAFA"/>
<path d="M34.2993 18.3782C35.4093 13.715 32.5289 9.03484 27.8657 7.92477C23.2025 6.8147 18.5224 9.69508 17.4123 14.3583C16.3022 19.0215 19.1826 23.7016 23.8458 24.8117C28.509 25.9218 33.1892 23.0414 34.2993 18.3782Z" fill="#FF5C8A"/>
<path d="M33.016 16.3638C33.016 17.7808 32.5959 19.1659 31.8086 20.3441C31.0214 21.5222 29.9025 22.4405 28.5934 22.9827C27.2843 23.525 25.8438 23.6668 24.4541 23.3904C23.0644 23.114 21.7878 22.4316 20.7859 21.4297C19.7839 20.4278 19.1016 19.1512 18.8252 17.7615C18.5487 16.3718 18.6906 14.9313 19.2328 13.6222C19.7751 12.3131 20.6934 11.1942 21.8715 10.4069C23.0497 9.61972 24.4348 9.19954 25.8518 9.19954C26.7938 9.19506 27.7275 9.3773 28.5987 9.73575C29.47 10.0942 30.2615 10.6217 30.9277 11.2879C31.5938 11.9541 32.1214 12.7456 32.4798 13.6169C32.8383 14.4881 33.0205 15.4217 33.016 16.3638V16.3638Z" fill="#FAFAFA"/>
<path d="M166.336 67.4297L163.16 69.0804L166.718 71.8444C166.718 71.8444 169.109 69.8404 168.17 68.4559L166.336 67.4297Z" fill="#E4897B"/>
<path d="M161.344 72.4437L164.379 74.5542L166.717 71.8434L163.159 69.0793L161.344 72.4437Z" fill="#E4897B"/>
<path d="M167.565 39.9771C168.001 40.5483 168.374 41.0614 168.751 41.6181C169.129 42.1747 169.487 42.7121 169.845 43.2639C170.552 44.3773 171.225 45.5197 171.844 46.6911C172.48 47.8747 173.055 49.0897 173.568 50.3314L173.95 51.2995L174.294 52.2676C174.415 52.5871 174.507 52.926 174.609 53.26L174.759 53.7441L174.792 53.8699L174.851 54.0781C174.888 54.2281 174.917 54.38 174.938 54.5331C175.05 55.4503 174.984 56.3807 174.744 57.273C174.565 57.9882 174.337 58.6901 174.062 59.3738C173.55 60.6273 172.955 61.845 172.28 63.0189C170.987 65.291 169.516 67.4568 167.88 69.4958L165.653 68.0436C166.723 65.812 167.769 63.5126 168.683 61.2665C169.132 60.1698 169.521 59.05 169.85 57.9119C170.002 57.4012 170.117 56.8803 170.194 56.3532C170.257 56.0108 170.257 55.6597 170.194 55.3173C170.194 55.3173 170.194 55.3173 170.194 55.3173C170.194 55.3173 170.194 55.3463 170.194 55.3173L170.155 55.2205L169.995 54.8187C169.894 54.5525 169.797 54.2911 169.671 54.0248L169.322 53.2309L168.94 52.4322C168.411 51.377 167.843 50.3281 167.236 49.2858C166.621 48.2498 165.987 47.2139 165.3 46.1974C164.612 45.1808 163.93 44.1498 163.281 43.2155L167.565 39.9771Z" fill="#E4897B"/>
<path d="M174.177 47.4077L166.204 52.9987C166.204 52.9987 165.72 51.9531 165.047 50.4283C164.5 49.2132 163.818 47.6981 163.14 46.1684C162.864 45.5488 162.593 44.9292 162.327 44.3241C160.482 40.1224 162.637 37.0969 166.422 37.6584C169.757 38.157 174.177 47.4077 174.177 47.4077Z" fill="#1C2D5E"/>
<path d="M165.43 41.5884C165.585 43.089 165.6 47.7313 165.048 50.4275C164.501 49.2125 163.818 47.6974 163.141 46.1677L165.43 41.5884Z" fill="#FF5C8A"/>
<path opacity="0.8" d="M165.43 41.5884C165.585 43.089 165.6 47.7313 165.048 50.4275C164.501 49.2125 163.818 47.6974 163.141 46.1677L165.43 41.5884Z" fill="#FF5C8A"/>
<g opacity="0.8">
<path d="M165.43 41.5891C165.585 43.0897 165.6 47.732 165.048 50.4283C164.501 49.2133 163.818 47.6981 163.141 46.1684L165.43 41.5891Z" fill="black"/>
<path opacity="0.8" d="M165.43 41.5891C165.585 43.0897 165.6 47.732 165.048 50.4283C164.501 49.2133 163.818 47.6981 163.141 46.1684L165.43 41.5891Z" fill="black"/>
</g>
<path d="M177.357 79.6557L92.267 57.0205C91.1619 56.7185 90.2202 55.9935 89.6458 55.0023C89.0714 54.0112 88.9105 52.8336 89.198 51.7247L93.2351 36.5442C93.5402 35.4418 94.2665 34.5036 95.2573 33.9321C96.2481 33.3606 97.4239 33.2017 98.5309 33.4897L183.621 56.1201C184.727 56.422 185.67 57.1478 186.244 58.14C186.819 59.1323 186.979 60.3111 186.69 61.4207L182.653 76.5721C182.354 77.6799 181.63 78.625 180.639 79.2024C179.647 79.7797 178.468 79.9426 177.357 79.6557V79.6557Z" fill="#FF5C8A"/>
<path opacity="0.8" d="M177.357 79.6557L92.267 57.0205C91.1619 56.7185 90.2202 55.9935 89.6458 55.0023C89.0714 54.0112 88.9105 52.8336 89.198 51.7247L93.2351 36.5442C93.5402 35.4418 94.2665 34.5036 95.2573 33.9321C96.2481 33.3606 97.4239 33.2017 98.5309 33.4897L183.621 56.1201C184.727 56.422 185.67 57.1478 186.244 58.14C186.819 59.1323 186.979 60.3111 186.69 61.4207L182.653 76.5721C182.354 77.6799 181.63 78.625 180.639 79.2024C179.647 79.7797 178.468 79.9426 177.357 79.6557V79.6557Z" fill="#FAFAFA"/>
<path d="M178.08 80.9289L92.9942 58.2695C91.8882 57.9686 90.9454 57.244 90.37 56.2527C89.7946 55.2615 89.633 54.0834 89.9203 52.9738L93.9623 37.7981C94.2632 36.6922 94.9878 35.7493 95.9791 35.1739C96.9704 34.5986 98.1485 34.437 99.2581 34.7243L184.343 57.3595C185.449 57.6604 186.392 58.385 186.968 59.3763C187.543 60.3675 187.705 61.5456 187.417 62.6552L183.38 77.8357C183.083 78.9463 182.36 79.8947 181.367 80.4741C180.374 81.0535 179.192 81.217 178.08 80.9289V80.9289Z" fill="#FF5C8A"/>
<path opacity="0.4" d="M178.08 80.9289L92.9942 58.2695C91.8882 57.9686 90.9454 57.244 90.37 56.2527C89.7946 55.2615 89.633 54.0834 89.9203 52.9738L93.9623 37.7981C94.2632 36.6922 94.9878 35.7493 95.9791 35.1739C96.9704 34.5986 98.1485 34.437 99.2581 34.7243L184.343 57.3595C185.449 57.6604 186.392 58.385 186.968 59.3763C187.543 60.3675 187.705 61.5456 187.417 62.6552L183.38 77.8357C183.083 78.9463 182.36 79.8947 181.367 80.4741C180.374 81.0535 179.192 81.217 178.08 80.9289V80.9289Z" fill="#FAFAFA"/>
<path d="M178.806 82.1587L93.7207 59.5235C92.6148 59.2226 91.6719 58.498 91.0966 57.5067C90.5212 56.5154 90.3596 55.3373 90.6469 54.2277L94.684 39.0472C94.9859 37.9411 95.7117 36.9986 96.704 36.424C97.6963 35.8495 98.875 35.6893 99.9846 35.9782L185.07 58.6086C186.182 58.9092 187.13 59.6383 187.706 60.6362C188.283 61.6342 188.44 62.8197 188.144 63.9334L184.102 79.109C183.796 80.2105 183.069 81.1476 182.078 81.7181C181.088 82.2886 179.912 82.4468 178.806 82.1587V82.1587Z" fill="#FF5C8A"/>
<path opacity="0.2" d="M178.806 82.1587L93.7207 59.5235C92.6148 59.2226 91.6719 58.498 91.0966 57.5067C90.5212 56.5154 90.3596 55.3373 90.6469 54.2277L94.684 39.0472C94.9859 37.9411 95.7117 36.9986 96.704 36.424C97.6963 35.8495 98.875 35.6893 99.9846 35.9782L185.07 58.6086C186.182 58.9092 187.13 59.6383 187.706 60.6362C188.283 61.6342 188.44 62.8197 188.144 63.9334L184.102 79.109C183.796 80.2105 183.069 81.1476 182.078 81.7181C181.088 82.2886 179.912 82.4468 178.806 82.1587V82.1587Z" fill="black"/>
<path d="M174.01 59.9482L119.909 45.5532C119.416 45.4219 118.909 45.7155 118.778 46.2089L118.305 47.9865C118.174 48.48 118.467 48.9865 118.961 49.1178L173.061 63.5128C173.555 63.6441 174.061 63.3505 174.192 62.8571L174.665 61.0794C174.797 60.586 174.503 60.0795 174.01 59.9482Z" fill="#FF5C8A"/>
<path opacity="0.7" d="M174.01 59.9482L119.909 45.5532C119.416 45.4219 118.909 45.7155 118.778 46.2089L118.305 47.9865C118.174 48.48 118.467 48.9865 118.961 49.1178L173.061 63.5128C173.555 63.6441 174.061 63.3505 174.192 62.8571L174.665 61.0794C174.797 60.586 174.503 60.0795 174.01 59.9482Z" fill="#FAFAFA"/>
<path d="M152.488 60.6546L118.315 51.562C117.822 51.4307 117.315 51.7242 117.184 52.2177L116.711 53.9953C116.58 54.4888 116.873 54.9953 117.367 55.1266L151.539 64.2192C152.033 64.3505 152.539 64.0569 152.671 63.5634L153.144 61.7858C153.275 61.2923 152.981 60.7859 152.488 60.6546Z" fill="#FF5C8A"/>
<path opacity="0.7" d="M152.488 60.6546L118.315 51.562C117.822 51.4307 117.315 51.7242 117.184 52.2177L116.711 53.9953C116.58 54.4888 116.873 54.9953 117.367 55.1266L151.539 64.2192C152.033 64.3505 152.539 64.0569 152.671 63.5634L153.144 61.7858C153.275 61.2923 152.981 60.7859 152.488 60.6546Z" fill="#FAFAFA"/>
<path d="M166.169 70.7283L116.307 57.461C116.038 57.3895 115.762 57.5494 115.691 57.818L115.593 58.1876C115.521 58.4563 115.681 58.7321 115.95 58.8036L165.812 72.0709C166.081 72.1424 166.356 71.9825 166.428 71.7138L166.526 71.3443C166.598 71.0756 166.438 70.7998 166.169 70.7283Z" fill="#FAFAFA"/>
<path d="M110.803 54.2576C113.535 50.327 112.563 44.9256 108.633 42.1933C104.702 39.461 99.3007 40.4324 96.5684 44.3631C93.8361 48.2938 94.8075 53.6952 98.7382 56.4275C102.669 59.1598 108.07 58.1883 110.803 54.2576Z" fill="#FF5C8A"/>
<path d="M110.943 51.4989C110.579 52.8681 109.816 54.0985 108.753 55.0345C107.689 55.9705 106.372 56.5701 104.967 56.7575C103.563 56.9449 102.134 56.7117 100.863 56.0873C99.5907 55.4629 98.5325 54.4754 97.8219 53.2497C97.1112 52.0239 96.7799 50.615 96.8699 49.201C96.96 47.787 97.4672 46.4315 98.3276 45.3057C99.188 44.18 100.363 43.3347 101.704 42.8767C103.044 42.4186 104.491 42.3684 105.86 42.7324C106.773 42.969 107.629 43.3843 108.38 43.9545C109.131 44.5246 109.761 45.2381 110.233 46.0536C110.706 46.8691 111.012 47.7704 111.134 48.7051C111.256 49.6399 111.191 50.5895 110.943 51.4989Z" fill="#FAFAFA"/>
<path d="M161.403 27.2551C160.498 29.7239 159.249 34.3129 160.759 36.2976C160.759 36.2976 159.651 38.7712 154.917 38.0112C149.708 37.1738 152.84 35.0293 152.84 35.0293C155.793 34.8066 156.054 32.6864 155.88 30.6243L161.403 27.2551Z" fill="#E4897B"/>
<path d="M151.75 35.8519C152.016 35.4017 151.779 33.6445 151.779 33.6445C151.779 33.6445 159.311 33.0879 161.945 34.2012C163.353 34.7966 161.945 37.3041 161.945 37.3041L151.75 35.8519Z" fill="#FF5C8A"/>
<path opacity="0.1" d="M151.75 35.8519C152.016 35.4017 151.779 33.6445 151.779 33.6445C151.779 33.6445 159.311 33.0879 161.945 34.2012C163.353 34.7966 161.945 37.3041 161.945 37.3041L151.75 35.8519Z" fill="black"/>
<path d="M152.717 22.9185C152.668 23.1993 152.484 23.4026 152.3 23.3736C152.116 23.3445 152.005 23.0928 152.048 22.812C152.092 22.5313 152.281 22.328 152.465 22.357C152.649 22.3861 152.746 22.6378 152.717 22.9185Z" fill="#1C2D5E"/>
<path d="M152.685 23.0586C152.213 23.863 151.632 24.5978 150.957 25.2418C151.125 25.413 151.329 25.5452 151.554 25.6289C151.779 25.7125 152.02 25.7456 152.259 25.7258L152.685 23.0586Z" fill="#DE5753"/>
<path d="M153.85 22.0465C153.819 22.0479 153.789 22.0405 153.762 22.025C153.736 22.0096 153.714 21.9868 153.7 21.9593C153.608 21.7708 153.472 21.6071 153.303 21.4817C153.135 21.3563 152.939 21.2727 152.732 21.2381C152.692 21.2287 152.658 21.2054 152.634 21.1724C152.61 21.1395 152.599 21.099 152.602 21.0585C152.606 21.018 152.624 20.9801 152.653 20.9517C152.682 20.9234 152.72 20.9064 152.761 20.9041C153.023 20.9442 153.272 21.0464 153.487 21.2022C153.701 21.358 153.876 21.5628 153.995 21.7996C154.016 21.8388 154.021 21.8846 154.008 21.9272C153.995 21.9697 153.967 22.0056 153.928 22.0271C153.904 22.0402 153.877 22.0469 153.85 22.0465V22.0465Z" fill="#1C2D5E"/>
<path d="M130.737 134.288L127.242 133.819L127.407 125.599L130.902 126.069L130.737 134.288Z" fill="#E4897B"/>
<path d="M156.828 138.151H153.299L150.555 129.98H154.079L156.828 138.151Z" fill="#E4897B"/>
<path d="M152.83 137.74H157.133C157.203 137.741 157.27 137.765 157.325 137.809C157.379 137.853 157.417 137.914 157.433 137.982L158.13 141.118C158.146 141.195 158.145 141.274 158.126 141.349C158.107 141.425 158.072 141.496 158.022 141.556C157.972 141.616 157.91 141.664 157.839 141.696C157.768 141.728 157.69 141.744 157.612 141.743C156.228 141.719 155.221 141.641 153.478 141.641C152.404 141.641 150.196 141.752 148.715 141.752C147.234 141.752 147.04 140.3 147.645 140.155C150.366 139.56 151.387 138.742 152.258 137.957C152.416 137.817 152.619 137.739 152.83 137.74V137.74Z" fill="#1C2D5E"/>
<path d="M127.122 133.02L130.941 133.533C131.01 133.543 131.074 133.576 131.121 133.627C131.169 133.678 131.197 133.744 131.202 133.814L131.473 137.013C131.48 137.091 131.469 137.168 131.442 137.241C131.414 137.313 131.37 137.378 131.314 137.431C131.258 137.484 131.19 137.524 131.116 137.547C131.042 137.57 130.964 137.577 130.888 137.565C129.513 137.352 127.538 137.004 125.805 136.771C123.781 136.496 122.416 136.345 120.059 136.026C118.607 135.832 118.423 134.327 119.042 134.274C121.855 134.046 123.685 134.312 126.241 133.175C126.514 133.043 126.819 132.989 127.122 133.02V133.02Z" fill="#1C2D5E"/>
<path d="M127.407 125.599L127.32 129.84L130.82 130.309L130.902 126.074L127.407 125.599Z" fill="#CE6F64"/>
<path d="M154.084 129.985H150.555L151.973 134.197H155.502L154.084 129.985Z" fill="#CE6F64"/>
<path d="M147.394 35.3834C147.394 35.3834 141.842 45.3795 143.11 65.5653L161.8 68.0873C162.318 65.2361 162.405 50.9947 166.999 37.8473C164.986 37.1679 162.931 36.6213 160.847 36.2111C158.222 35.6984 155.57 35.3395 152.903 35.1365C151.063 35.0748 149.221 35.1574 147.394 35.3834V35.3834Z" fill="#1C2D5E"/>
<path d="M149.544 40.4759C148.769 41.8168 147.946 43.1141 147.123 44.4308L144.621 48.3034C143.788 49.6007 142.917 50.8786 142.041 52.1759C141.605 52.8149 141.155 53.449 140.705 54.0832L140.022 55.0513C139.77 55.395 139.475 55.7871 139.194 56.1114C138.092 57.3716 136.876 58.5285 135.564 59.5677C134.3 60.5746 133.017 61.504 131.691 62.3753C129.073 64.1085 126.341 65.6642 123.515 67.0321L122.223 64.7328C124.643 62.9562 127.063 61.0829 129.368 59.1805C130.515 58.2123 131.638 57.2442 132.688 56.2325C133.712 55.2767 134.655 54.2372 135.506 53.1247C135.709 52.8585 135.864 52.6406 136.048 52.3357L136.643 51.3675L137.829 49.4312L140.201 45.5248L142.573 41.6038C143.381 40.3065 144.17 38.9898 144.993 37.707L149.544 40.4759Z" fill="#E4897B"/>
<path d="M151.266 39.6767C150.816 43.0168 144.973 50.9653 144.973 50.9653L136.836 44.0963C136.836 44.0963 141.091 39.3379 144.581 36.6222C148.071 33.9066 151.75 36.0075 151.266 39.6767Z" fill="#1C2D5E"/>
<path d="M123.975 63.7261L120.93 64.762L123.979 67.9423C123.979 67.9423 125.838 67.7197 125.669 65.1541L123.975 63.7261Z" fill="#E4897B"/>
<path d="M118.91 67.1809L122.391 68.8896L123.978 67.9409L120.929 64.7605L118.91 67.1809Z" fill="#E4897B"/>
<path d="M162.324 23.4699C161.559 26.8874 161.283 28.9253 159.26 30.4163C156.21 32.6575 152.207 30.4163 151.936 26.8196C151.689 23.6006 152.981 18.5565 156.583 17.7239C157.375 17.5369 158.202 17.5555 158.985 17.7781C159.768 18.0007 160.481 18.4198 161.056 18.9956C161.631 19.5714 162.05 20.2847 162.272 21.0679C162.493 21.851 162.511 22.6778 162.324 23.4699V23.4699Z" fill="#E4897B"/>
<path d="M167.051 23.354C167.006 23.091 166.905 22.8406 166.756 22.6194C166.606 22.3983 166.412 22.2114 166.185 22.0712C167.84 21.3451 167.012 20.5028 165.599 19.2733C163.774 17.6419 163.014 14.3406 163.096 13.6338C162.52 14.51 162.675 15.8025 163.164 16.9642C162.555 16.2934 162.064 15.5241 161.712 14.6891C160.298 11.1409 157.244 14.2438 154.296 14.3454C149.344 14.5148 153.265 11.9251 156.9 12.0025C151.483 10.3421 146.081 12.3994 146.962 16.0203C147.843 19.6412 153.904 15.0522 153.87 18.3923C153.87 19.07 154.61 19.738 155.709 20.2656C154.184 23.4024 157.902 29.705 160.066 29.9083C162.23 30.1116 166.02 26.3456 166.18 23.0829C166.485 23.1172 166.78 23.2092 167.051 23.354V23.354Z" fill="#263238"/>
<path d="M157.406 24.2502C157.19 25.1031 156.647 25.8368 155.895 26.293C154.888 26.8836 154.09 26.0607 154.114 24.9521C154.138 23.9598 154.695 22.4495 155.823 22.3091C156.07 22.2829 156.32 22.3188 156.55 22.4134C156.78 22.5081 156.982 22.6586 157.139 22.8513C157.297 23.044 157.403 23.2728 157.45 23.5171C157.496 23.7613 157.481 24.0133 157.406 24.2502V24.2502Z" fill="#E4897B"/>
<path d="M156.774 133.378H150.297C150.297 133.378 141.767 111.629 140.862 100.345C140.669 97.9248 141.056 94.7347 141.772 91.3027C142.992 85.4357 145.161 78.8184 146.903 73.8761C148.467 69.5194 149.721 66.4456 149.721 66.4456L161.789 68.0769C160.603 76.8338 151.028 90.7605 150.916 102.736C150.824 113.783 156.774 133.378 156.774 133.378Z" fill="#FF5C8A"/>
<path opacity="0.1" d="M156.774 133.378H150.297C150.297 133.378 141.767 111.629 140.862 100.345C140.669 97.9248 141.056 94.7347 141.772 91.3027C142.992 85.4357 145.161 78.8184 146.903 73.8761C148.467 69.5194 149.721 66.4456 149.721 66.4456L161.789 68.0769C160.603 76.8338 151.028 90.7605 150.916 102.736C150.824 113.783 156.774 133.378 156.774 133.378Z" fill="black"/>
<path d="M149.975 76.6255C149.554 82.478 145.052 88.7031 141.789 91.3026C143.009 85.4357 145.178 78.8184 146.92 73.876C147.835 73.7647 149.282 75.5703 149.975 76.6255Z" fill="#FF5C8A"/>
<path opacity="0.2" d="M149.975 76.6255C149.554 82.478 145.052 88.7031 141.789 91.3026C143.009 85.4357 145.178 78.8184 146.92 73.876C147.835 73.7647 149.282 75.5703 149.975 76.6255Z" fill="black"/>
<path d="M143.111 65.5652C143.111 65.5652 126.517 87.6631 125.457 98.3562C124.353 109.49 126.12 128.853 126.12 128.853L132.04 129.651C132.04 129.651 133.826 111.47 135.564 100.607C137.452 88.7764 155.411 76.5439 156.665 67.3853L143.111 65.5652Z" fill="#FF5C8A"/>
<path opacity="0.1" d="M143.111 65.5652C143.111 65.5652 126.517 87.6631 125.457 98.3562C124.353 109.49 126.12 128.853 126.12 128.853L132.04 129.651C132.04 129.651 133.826 111.47 135.564 100.607C137.452 88.7764 155.411 76.5439 156.665 67.3853L143.111 65.5652Z" fill="black"/>
<path d="M149.168 133.519H157.615V131.244L148.176 131.098L149.168 133.519Z" fill="#FF5C8A"/>
<path opacity="0.4" d="M149.168 133.519H157.615V131.244L148.176 131.098L149.168 133.519Z" fill="#FAFAFA"/>
<path d="M124.921 128.813L133.145 129.941L133.45 127.666L124.258 126.281L124.921 128.813Z" fill="#FF5C8A"/>
<path opacity="0.4" d="M124.921 128.813L133.145 129.941L133.45 127.666L124.258 126.281L124.921 128.813Z" fill="#FAFAFA"/>
<path d="M151.661 138.359C151.421 138.377 151.182 138.312 150.983 138.175C150.919 138.123 150.869 138.055 150.839 137.978C150.808 137.901 150.798 137.817 150.809 137.735C150.809 137.686 150.823 137.637 150.848 137.596C150.874 137.554 150.911 137.52 150.954 137.497C151.342 137.304 152.484 137.982 152.61 138.078C152.623 138.087 152.634 138.1 152.641 138.114C152.648 138.129 152.65 138.145 152.649 138.161C152.647 138.177 152.64 138.193 152.628 138.205C152.617 138.217 152.602 138.225 152.586 138.228C152.284 138.309 151.973 138.352 151.661 138.359ZM151.138 137.628C151.103 137.62 151.067 137.62 151.032 137.628C151.032 137.628 150.983 137.662 150.978 137.725C150.97 137.781 150.976 137.838 150.996 137.891C151.015 137.945 151.048 137.992 151.09 138.03C151.485 138.209 151.933 138.231 152.344 138.093C151.975 137.862 151.566 137.704 151.138 137.628V137.628Z" fill="#FF5C8A"/>
<path d="M152.568 138.234H152.53C152.162 138.035 151.46 137.266 151.533 136.869C151.545 136.807 151.578 136.752 151.627 136.712C151.675 136.672 151.736 136.651 151.799 136.651C151.862 136.642 151.926 136.646 151.987 136.665C152.048 136.683 152.105 136.715 152.152 136.757C152.564 137.091 152.636 138.108 152.636 138.151C152.639 138.167 152.637 138.183 152.63 138.197C152.623 138.21 152.611 138.222 152.598 138.229L152.568 138.234ZM151.857 136.781H151.818C151.712 136.781 151.702 136.844 151.697 136.864C151.654 137.096 152.104 137.682 152.467 137.958C152.44 137.557 152.295 137.173 152.051 136.854C151.994 136.814 151.926 136.795 151.857 136.801V136.781Z" fill="#FF5C8A"/>
<path d="M126.231 133.476C125.679 133.476 125.021 133.403 124.779 133.108C124.73 133.05 124.695 132.981 124.677 132.907C124.66 132.833 124.66 132.756 124.677 132.682C124.688 132.637 124.708 132.595 124.738 132.56C124.767 132.525 124.804 132.497 124.847 132.479C125.302 132.305 126.609 133.205 126.759 133.307C126.773 133.317 126.784 133.331 126.79 133.347C126.796 133.364 126.797 133.382 126.793 133.399C126.788 133.415 126.777 133.43 126.763 133.44C126.75 133.451 126.733 133.456 126.715 133.457C126.58 133.466 126.406 133.476 126.231 133.476ZM124.982 132.624C124.952 132.617 124.921 132.617 124.89 132.624C124.874 132.63 124.859 132.64 124.847 132.654C124.836 132.667 124.829 132.684 124.827 132.702C124.815 132.75 124.814 132.801 124.825 132.85C124.836 132.898 124.858 132.944 124.89 132.982C125.079 133.2 125.655 133.316 126.439 133.287C126.003 132.971 125.507 132.746 124.982 132.624Z" fill="#FF5C8A"/>
<path d="M126.693 133.46H126.649C126.252 133.213 125.521 132.347 125.637 131.96C125.662 131.872 125.739 131.766 125.952 131.766H125.976C126.06 131.77 126.142 131.79 126.217 131.826C126.293 131.862 126.361 131.912 126.417 131.974C126.683 132.397 126.808 132.894 126.775 133.392C126.776 133.407 126.772 133.422 126.764 133.435C126.756 133.448 126.745 133.458 126.731 133.465L126.693 133.46ZM125.952 131.921C125.816 131.921 125.802 131.974 125.797 131.993C125.725 132.226 126.213 132.894 126.61 133.213C126.623 132.809 126.512 132.41 126.291 132.071C126.251 132.025 126.202 131.988 126.147 131.962C126.092 131.936 126.032 131.922 125.971 131.921H125.952Z" fill="#FF5C8A"/>
</svg>
