<svg width="209" height="187" viewBox="0 0 209 187" fill="none" xmlns="http://www.w3.org/2000/svg">
<path d="M199.816 1.30368e-10H137.848C135.44 -1.28843e-05 133.129 0.954896 131.423 2.65548C129.716 4.35607 128.754 6.66365 128.746 9.07258V42.6091C128.754 45.0142 129.713 47.3184 131.415 49.0184C133.116 50.7183 135.421 51.6758 137.826 51.6817H144.1L141.681 61.5581C145.224 61.235 148.664 60.194 151.791 58.4986C154.918 56.8032 157.667 54.4889 159.871 51.6966H199.816C202.221 51.6907 204.526 50.7332 206.227 49.0332C207.929 47.3333 208.888 45.0291 208.896 42.624V9.07258C208.888 6.66751 207.929 4.36331 206.227 2.66335C204.526 0.963402 202.221 0.00588679 199.816 1.30368e-10Z" fill="#1C2D5E"/>
<path opacity="0.3" d="M199.816 1.30368e-10H137.848C135.44 -1.28843e-05 133.129 0.954896 131.423 2.65548C129.716 4.35607 128.754 6.66365 128.746 9.07258V42.6091C128.754 45.0142 129.713 47.3184 131.415 49.0184C133.116 50.7183 135.421 51.6758 137.826 51.6817H144.1L141.681 61.5581C145.224 61.235 148.664 60.194 151.791 58.4986C154.918 56.8032 157.667 54.4889 159.871 51.6966H199.816C202.221 51.6907 204.526 50.7332 206.227 49.0332C207.929 47.3333 208.888 45.0291 208.896 42.624V9.07258C208.888 6.66751 207.929 4.36331 206.227 2.66335C204.526 0.963402 202.221 0.00588679 199.816 1.30368e-10Z" fill="#1C2D5E"/>
<path d="M192.516 33.5062C196.749 33.5062 200.181 30.074 200.181 25.8402C200.181 21.6065 196.749 18.1743 192.516 18.1743C188.282 18.1743 184.85 21.6065 184.85 25.8402C184.85 30.074 188.282 33.5062 192.516 33.5062Z" fill="#1C2D5E"/>
<path d="M168.832 33.5062C173.066 33.5062 176.498 30.074 176.498 25.8402C176.498 21.6065 173.066 18.1743 168.832 18.1743C164.598 18.1743 161.166 21.6065 161.166 25.8402C161.166 30.074 164.598 33.5062 168.832 33.5062Z" fill="#1C2D5E"/>
<path d="M145.158 33.5062C149.392 33.5062 152.824 30.074 152.824 25.8402C152.824 21.6065 149.392 18.1743 145.158 18.1743C140.924 18.1743 137.492 21.6065 137.492 25.8402C137.492 30.074 140.924 33.5062 145.158 33.5062Z" fill="#1C2D5E"/>
<path d="M182.503 21.4318C184.914 21.4318 186.869 23.3866 186.869 25.7979C186.869 28.2093 184.914 30.1641 182.503 30.1641C180.091 30.1641 178.137 28.2093 178.137 25.7979C178.137 23.3866 180.091 21.4318 182.503 21.4318Z" fill="white"/>
<path d="M168.899 21.4318C171.403 21.4318 173.433 23.3866 173.433 25.7979C173.433 28.2093 171.403 30.1641 168.899 30.1641C166.395 30.1641 164.365 28.2093 164.365 25.7979C164.365 23.3866 166.395 21.4318 168.899 21.4318Z" fill="white"/>
<path d="M155.298 21.4318C157.709 21.4318 159.664 23.3866 159.664 25.7979C159.664 28.2093 157.709 30.1641 155.298 30.1641C152.886 30.1641 150.932 28.2093 150.932 25.7979C150.932 23.3866 152.886 21.4318 155.298 21.4318Z" fill="white"/>
<path d="M130.271 109.421C129.862 109.421 129.445 109.421 129.021 109.458C120.179 110.091 113.027 117.578 112.461 126.792C112.335 128.827 112.529 130.868 113.034 132.843C114.985 140.768 115.926 148.908 115.832 157.069V180.885C115.816 181.693 116.12 182.475 116.678 183.061C117.235 183.646 118.001 183.988 118.809 184.011H177.867V109.421H130.271Z" fill="#FF5C8A"/>
<path opacity="0.3" d="M130.271 109.421C129.862 109.421 129.445 109.421 129.021 109.458C120.179 110.091 113.027 117.578 112.461 126.792C112.335 128.827 112.529 130.868 113.034 132.843C114.985 140.768 115.926 148.908 115.832 157.069V180.885C115.816 181.693 116.12 182.475 116.678 183.061C117.235 183.646 118.001 183.988 118.809 184.011H177.867V109.421H130.271Z" fill="black"/>
<path d="M195.73 128.013C195.73 117.318 187.059 108.722 176.632 109.466C167.79 110.098 160.638 117.586 160.072 126.8C159.947 128.834 160.14 130.876 160.645 132.851C162.597 140.775 163.537 148.915 163.444 157.076V180.893C163.428 181.701 163.732 182.483 164.289 183.068C164.847 183.654 165.613 183.995 166.421 184.019H189.307C190.116 183.997 190.883 183.656 191.441 183.071C191.999 182.485 192.302 181.702 192.284 180.893V155.677C192.234 148.03 193.18 140.41 195.097 133.007C195.523 131.377 195.736 129.698 195.73 128.013Z" fill="#FF5C8A"/>
<path d="M153.292 138.707H78.002V183.973H153.292V138.707Z" fill="#FF5C8A"/>
<path opacity="0.3" d="M153.292 138.707H78.002V183.973H153.292V138.707Z" fill="black"/>
<path d="M38.0354 84.4878H121.17C124.825 84.4878 128.331 85.94 130.916 88.525C133.501 91.1099 134.953 94.6159 134.953 98.2716V148.941H24.2441V98.2716C24.2441 96.4608 24.6009 94.6678 25.2941 92.995C25.9872 91.3222 27.0032 89.8024 28.2839 88.5223C29.5647 87.2423 31.0851 86.2272 32.7583 85.5349C34.4314 84.8426 36.2246 84.4868 38.0354 84.4878Z" fill="#FF5C8A"/>
<path opacity="0.4" d="M38.0354 84.4878H121.17C124.825 84.4878 128.331 85.94 130.916 88.525C133.501 91.1099 134.953 94.6159 134.953 98.2716V148.941H24.2441V98.2716C24.2441 96.4608 24.6009 94.6678 25.2941 92.995C25.9872 91.3222 27.0032 89.8024 28.2839 88.5223C29.5647 87.2423 31.0851 86.2272 32.7583 85.5349C34.4314 84.8426 36.2246 84.4868 38.0354 84.4878Z" fill="black"/>
<path d="M54.3792 84.4878H125.442C128.922 84.4878 132.259 85.8702 134.72 88.3309C137.181 90.7917 138.563 94.1292 138.563 97.6092V148.963H41.2578V97.6092C41.2578 95.8861 41.5972 94.1798 42.2566 92.5878C42.916 90.9959 43.8825 89.5494 45.101 88.3309C46.3194 87.1125 47.7659 86.146 49.3579 85.4866C50.9498 84.8272 52.6561 84.4878 54.3792 84.4878Z" fill="#FF5C8A"/>
<path d="M82.3034 133.997H152.316C153.394 133.997 154.428 134.425 155.19 135.187C155.952 135.949 156.38 136.983 156.38 138.061V148.949C156.38 150.027 155.952 151.061 155.19 151.823C154.428 152.585 153.394 153.013 152.316 153.013H82.3034C81.9816 153.013 81.673 152.885 81.4455 152.658C81.218 152.43 81.0902 152.122 81.0902 151.8V135.24C81.0862 135.078 81.1147 134.917 81.1739 134.767C81.233 134.616 81.3218 134.479 81.4348 134.363C81.5479 134.247 81.683 134.155 81.8321 134.092C81.9813 134.029 82.1415 133.997 82.3034 133.997Z" fill="#FF5C8A"/>
<path opacity="0.4" d="M82.3034 133.997H152.316C153.394 133.997 154.428 134.425 155.19 135.187C155.952 135.949 156.38 136.983 156.38 138.061V148.949C156.38 150.027 155.952 151.061 155.19 151.823C154.428 152.585 153.394 153.013 152.316 153.013H82.3034C81.9816 153.013 81.673 152.885 81.4455 152.658C81.218 152.43 81.0902 152.122 81.0902 151.8V135.24C81.0862 135.078 81.1147 134.917 81.1739 134.767C81.233 134.616 81.3218 134.479 81.4348 134.363C81.5479 134.247 81.683 134.155 81.8321 134.092C81.9813 134.029 82.1415 133.997 82.3034 133.997Z" fill="black"/>
<path d="M16.9348 183.98H178.79V184.025C178.79 184.617 178.555 185.185 178.136 185.604C177.717 186.023 177.149 186.258 176.557 186.258H19.1527C18.5605 186.258 17.9926 186.023 17.5739 185.604C17.1552 185.185 16.9199 184.617 16.9199 184.025V183.98H16.9348Z" fill="#FF5C8A"/>
<path opacity="0.4" d="M16.9348 183.98H178.79V184.025C178.79 184.617 178.555 185.185 178.136 185.604C177.717 186.023 177.149 186.258 176.557 186.258H19.1527C18.5605 186.258 17.9926 186.023 17.5739 185.604C17.1552 185.185 16.9199 184.617 16.9199 184.025V183.98H16.9348Z" fill="black"/>
<path d="M113.653 76.9946L113.951 78.2078L114.293 79.5251C114.531 80.4034 114.784 81.289 115.037 82.1673C115.566 83.9386 116.139 85.71 116.734 87.4739C117.329 89.2378 117.947 91.0091 118.617 92.7582C118.952 93.6364 119.279 94.5146 119.622 95.3854L120.031 96.4348C120.113 96.6158 120.221 96.7839 120.351 96.9335C121.343 97.9388 122.553 98.7028 123.886 99.1663C125.524 99.8155 127.208 100.338 128.925 100.729C130.696 101.139 132.52 101.473 134.366 101.764C136.211 102.054 138.087 102.285 139.918 102.508L139.985 106.267C136 106.666 131.984 106.648 128.002 106.214C125.916 106.004 123.853 105.603 121.84 105.016C120.75 104.691 119.689 104.275 118.669 103.773C117.495 103.203 116.42 102.449 115.484 101.54C114.942 101.003 114.471 100.398 114.084 99.7393C113.98 99.5682 113.891 99.3821 113.794 99.196L113.616 98.8239L113.288 98.1615C112.856 97.2758 112.425 96.3827 112.023 95.4822C111.212 93.681 110.43 91.8725 109.723 90.0193C109.016 88.166 108.339 86.298 107.736 84.3852C107.446 83.4251 107.17 82.465 106.91 81.4825L106.53 79.994C106.411 79.473 106.314 79.0265 106.195 78.4013L113.653 76.9946Z" fill="#B55B52"/>
<path d="M111.278 69.0825C114.255 69.8267 116.369 82.1741 116.369 82.1741L108.115 87.7858C108.115 87.7858 100.196 75.3492 102.503 72.0595C104.93 68.6285 106.902 67.9735 111.278 69.0825Z" fill="#FF5C8A"/>
<path opacity="0.5" d="M111.278 69.0825C114.255 69.8267 116.369 82.1741 116.369 82.1741L108.115 87.7858C108.115 87.7858 100.196 75.3492 102.503 72.0595C104.93 68.6285 106.902 67.9735 111.278 69.0825Z" fill="#FAFAFA"/>
<path d="M111.545 73.5625L105.137 75.051L104.52 81.3177C105.607 83.5334 106.807 85.6921 108.114 87.7854L113.116 84.3841C112.907 81.5038 112.372 75.5125 111.545 73.5625Z" fill="#FF5C8A"/>
<path opacity="0.3" d="M111.545 73.5625L105.137 75.051L104.52 81.3177C105.607 83.5334 106.807 85.6921 108.114 87.7854L113.116 84.3841C112.907 81.5038 112.372 75.5125 111.545 73.5625Z" fill="#FAFAFA"/>
<path d="M138.861 102.44L144.019 97.23L144.696 104.591C144.696 104.591 140.826 107.203 138.154 105.796L138.861 102.44Z" fill="#B55B52"/>
<path d="M150.076 96.4326L150.307 102.625L144.695 104.575L144.018 97.2141L150.076 96.4326Z" fill="#B55B52"/>
<path d="M111.279 69.0816C111.279 69.0816 114.74 70.3022 107.804 112.949H78.286C78.7847 100.936 78.7996 93.5233 73.0762 68.8732C77.1985 68.0204 81.3774 67.4682 85.5798 67.221C90.0397 66.9009 94.5167 66.9009 98.9766 67.221C104.752 67.7494 111.279 69.0816 111.279 69.0816Z" fill="#FF5C8A"/>
<path opacity="0.5" d="M111.279 69.0816C111.279 69.0816 114.74 70.3022 107.804 112.949H78.286C78.7847 100.936 78.7996 93.5233 73.0762 68.8732C77.1985 68.0204 81.3774 67.4682 85.5798 67.221C90.0397 66.9009 94.5167 66.9009 98.9766 67.221C104.752 67.7494 111.279 69.0816 111.279 69.0816Z" fill="#FAFAFA"/>
<path d="M102.415 67.608C101.284 67.4592 100.122 67.3252 98.9912 67.221C94.5314 66.9009 90.0543 66.9009 85.5945 67.221C84.5599 67.2731 83.5328 67.3475 82.543 67.4443L82.7588 68.1216C82.8779 68.5011 85.8326 77.4918 96.483 82.2626L98.5223 83.178L99.9662 81.4662C101.608 79.6043 102.706 77.3259 103.138 74.8812C103.57 72.4364 103.32 69.9199 102.415 67.608Z" fill="#FF5C8A"/>
<path opacity="0.3" d="M102.415 67.608C101.284 67.4592 100.122 67.3252 98.9912 67.221C94.5314 66.9009 90.0543 66.9009 85.5945 67.221C84.5599 67.2731 83.5328 67.3475 82.543 67.4443L82.7588 68.1216C82.8779 68.5011 85.8326 77.4918 96.483 82.2626L98.5223 83.178L99.9662 81.4662C101.608 79.6043 102.706 77.3259 103.138 74.8812C103.57 72.4364 103.32 69.9199 102.415 67.608Z" fill="black"/>
<path d="M79.9981 80.3203L76.1875 83.5579C77.0062 87.8746 77.5495 91.4694 77.8993 94.6623C78.6138 91.4545 80.4224 82.7689 79.9981 80.3203Z" fill="#FF5C8A"/>
<path opacity="0.3" d="M79.9981 80.3203L76.1875 83.5579C77.0062 87.8746 77.5495 91.4694 77.8993 94.6623C78.6138 91.4545 80.4224 82.7689 79.9981 80.3203Z" fill="#FAFAFA"/>
<path d="M90.9378 30.2984C83.123 27.8497 78.769 36.2525 79.5208 46.7615C80.0641 54.2934 78.5458 57.5756 74.043 57.3524C76.1492 62.3017 102.697 69.7444 110.378 60.8951C108.22 59.7266 107.14 54.5242 108.718 49.8651C112.291 39.356 108.979 23.4883 90.9378 30.2984Z" fill="#263238"/>
<path d="M86.9182 52.1279C87.7592 56.4447 88.6077 64.3413 85.5859 67.2216C85.5859 67.2216 88.1388 75.2671 97.6877 79.5466C99.128 77.8658 100.023 75.7864 100.253 73.5848C100.483 71.3833 100.037 69.1638 98.9753 67.2216C94.1673 66.0754 94.2938 62.503 95.1274 59.1538L86.9182 52.1279Z" fill="#B55B52"/>
<path d="M90.2669 54.9937L95.1418 59.1541C94.9352 59.9321 94.7957 60.7264 94.725 61.5283C92.8867 61.2678 90.3636 59.2508 90.1701 57.3232C90.0615 56.5472 90.0942 55.758 90.2669 54.9937Z" fill="#9E4541"/>
<path d="M87.3206 40.0634C85.6311 47.0744 84.7677 50.0068 87.1568 54.6063C90.7516 61.5206 99.7349 62.049 103.486 55.7004C106.865 49.9696 109.061 39.468 103.166 34.6601C101.871 33.5939 100.325 32.8765 98.6744 32.5761C97.0241 32.2757 95.3243 32.4022 93.7366 32.9436C92.1489 33.485 90.726 34.4233 89.6031 35.6694C88.4801 36.9156 87.6944 38.4281 87.3206 40.0634Z" fill="#B55B52"/>
<path d="M86.0781 44.1786C86.0781 44.1786 100.591 39.6609 93.9524 32.0322C86.1377 33.9599 86.0781 36.2522 86.0781 36.2522V44.1786Z" fill="#263238"/>
<path d="M94.8748 36.3785C100.338 36.9441 105.771 40.1593 107.527 43.0768C108.54 38.1126 104.982 31.9129 101.022 31.0421C97.063 30.1713 92.2773 32.032 92.2773 32.032L94.8748 36.3785Z" fill="#263238"/>
<path d="M83.7098 44.7151C83.6857 46.1044 84.1913 47.4509 85.1239 48.481C86.3743 49.8356 87.8926 48.9499 88.2945 47.2753C88.6517 45.7868 88.4359 43.234 86.8059 42.5046C85.176 41.7752 83.7545 43.0181 83.7098 44.7151Z" fill="#B55B52"/>
<path d="M145.052 118.724C128.574 118.493 117.775 129.806 117.775 129.806C119.353 134.383 120.35 137.822 120.35 137.822C129.378 136.222 139.634 135.515 148.089 133.483C155.725 131.644 156.603 122.43 155.822 118.597C155.04 114.765 150.709 113.879 146.466 112.643C141.621 111.252 132.37 111.214 125.738 111.259C118.742 111.296 109.551 111.959 104.787 112.963C104.787 112.963 94.6729 112.643 87.1856 112.829C82.8093 112.204 85.3845 118.56 92.2912 123.941C95.8715 126.672 99.9692 128.647 104.336 129.746C108.702 130.845 113.247 131.045 117.693 130.335H117.745" fill="#1C2D5E"/>
<path d="M119.325 136.728L117.226 128.839C117.194 128.701 117.113 128.581 116.997 128.5C116.882 128.419 116.741 128.383 116.601 128.399L110.118 129.144C109.952 129.167 109.792 129.225 109.651 129.316C109.509 129.406 109.389 129.527 109.298 129.668C109.208 129.81 109.149 129.969 109.126 130.136C109.103 130.302 109.117 130.471 109.166 130.632C109.947 133.371 110.461 134.651 111.398 138.12C111.964 140.256 112.887 144.729 113.698 147.676C114.509 150.623 117.42 150.005 117.382 148.71C117.099 142.89 118.127 140.293 119.221 138.023C119.407 137.617 119.444 137.158 119.325 136.728Z" fill="#263238"/>
<path d="M120.194 141.38C120.022 141.378 119.854 141.327 119.71 141.231C118.84 140.665 118.587 138.589 118.512 137.405C118.51 137.38 118.516 137.355 118.528 137.333C118.541 137.311 118.561 137.294 118.584 137.285C118.607 137.275 118.633 137.272 118.657 137.278C118.682 137.284 118.704 137.297 118.721 137.316C118.966 137.584 121.125 139.98 120.894 140.948C120.873 141.032 120.83 141.109 120.77 141.172C120.71 141.235 120.635 141.28 120.552 141.305C120.439 141.355 120.317 141.38 120.194 141.38ZM118.78 137.747C118.929 139.467 119.316 140.68 119.844 141.022C119.936 141.083 120.04 141.12 120.15 141.131C120.259 141.141 120.369 141.124 120.47 141.082C120.515 141.069 120.556 141.044 120.589 141.01C120.621 140.976 120.644 140.934 120.656 140.888C120.812 140.256 119.517 138.596 118.78 137.747Z" fill="#FF5C8A"/>
<path d="M119.345 138.128L116.621 127.909L120.208 126.428L125.262 137.398L119.345 138.128Z" fill="#FF5C8A"/>
<path opacity="0.6" d="M119.345 138.128L116.621 127.909L120.208 126.428L125.262 137.398L119.345 138.128Z" fill="#FAFAFA"/>
<path d="M121.497 139.162C120.626 139.162 119.063 138.112 118.52 137.472C118.511 137.454 118.506 137.434 118.506 137.413C118.506 137.392 118.511 137.372 118.52 137.353C118.528 137.334 118.54 137.316 118.555 137.302C118.571 137.288 118.589 137.278 118.609 137.271C118.691 137.271 120.604 136.922 121.586 137.599C121.724 137.69 121.841 137.81 121.93 137.95C122.018 138.09 122.076 138.246 122.1 138.41C122.174 138.849 121.988 139.035 121.824 139.102C121.723 139.151 121.609 139.172 121.497 139.162ZM118.877 137.472C119.621 138.217 121.199 139.095 121.698 138.879C121.742 138.879 121.884 138.79 121.832 138.44C121.813 138.309 121.765 138.183 121.694 138.071C121.622 137.959 121.527 137.864 121.415 137.792C120.723 137.309 119.398 137.413 118.877 137.472Z" fill="#FF5C8A"/>
<path d="M83.9342 113.344C74.7723 112.168 61.2193 111.714 60.4452 121.263C59.6712 130.812 66.258 140.614 84.1724 141.142C102.087 141.67 105.957 137.168 106.597 133.327C107.416 128.475 108.83 127.239 104.55 125.044C100.271 122.848 99.4819 115.331 83.9342 113.344Z" fill="#1C2D5E"/>
<path d="M103.314 138.358L101.207 130.468C101.167 130.333 101.178 130.187 101.239 130.06C101.299 129.932 101.405 129.831 101.535 129.776L107.541 127.216C107.694 127.157 107.858 127.131 108.021 127.14C108.185 127.148 108.345 127.191 108.491 127.266C108.637 127.34 108.766 127.444 108.869 127.572C108.972 127.699 109.047 127.847 109.089 128.005C109.774 130.774 109.967 132.143 110.89 135.611C111.456 137.747 112.855 142.101 113.644 145.049C114.433 147.996 111.553 148.934 110.965 147.773C108.315 142.563 106.105 140.851 104.051 139.414C103.689 139.159 103.429 138.785 103.314 138.358Z" fill="#263238"/>
<path d="M104.424 142.958C104.356 142.959 104.288 142.946 104.225 142.919C104.162 142.892 104.106 142.852 104.059 142.802C103.375 142.058 104.059 138.932 104.134 138.575C104.139 138.549 104.151 138.526 104.17 138.509C104.189 138.491 104.213 138.481 104.238 138.478C104.263 138.474 104.288 138.479 104.309 138.491C104.331 138.503 104.348 138.522 104.357 138.545C104.886 139.609 105.697 141.522 105.221 142.46C105.154 142.592 105.057 142.706 104.936 142.792C104.815 142.877 104.675 142.932 104.528 142.951L104.424 142.958ZM104.298 138.976C104.082 140.085 103.784 142.162 104.231 142.631C104.263 142.666 104.304 142.693 104.35 142.707C104.396 142.722 104.444 142.724 104.491 142.713C104.6 142.699 104.704 142.658 104.793 142.594C104.883 142.531 104.956 142.446 105.005 142.348C105.399 141.581 104.692 139.84 104.298 138.962V138.976Z" fill="#FF5C8A"/>
<path d="M102.309 141.655C102.131 141.655 101.915 141.565 101.773 141.186C101.715 141.031 101.688 140.867 101.694 140.702C101.701 140.537 101.74 140.375 101.811 140.226C102.302 139.169 104.133 138.506 104.207 138.484C104.225 138.473 104.246 138.467 104.267 138.467C104.288 138.467 104.308 138.473 104.326 138.484C104.344 138.496 104.358 138.513 104.366 138.533C104.374 138.553 104.376 138.575 104.371 138.596C104.215 139.519 103.165 141.573 102.354 141.632L102.309 141.655ZM104.081 138.797C103.597 138.998 102.391 139.541 102.034 140.33C101.983 140.447 101.957 140.574 101.957 140.702C101.957 140.83 101.983 140.957 102.034 141.074C102.153 141.402 102.317 141.387 102.361 141.379C102.875 141.357 103.82 139.816 104.081 138.797Z" fill="#FF5C8A"/>
<path d="M103.65 138.262L101.939 128.69L97.7559 128.534L98.0759 140.718L103.65 138.262Z" fill="#FF5C8A"/>
<path opacity="0.6" d="M103.65 138.262L101.939 128.69L97.7559 128.534L98.0759 140.718L103.65 138.262Z" fill="#FAFAFA"/>
<path d="M97.1665 45.1836C96.9953 45.7418 97.1665 46.2851 97.5237 46.4042C97.881 46.5233 98.3275 46.1511 98.4987 45.593C98.6699 45.0348 98.4987 44.484 98.1415 44.3724C97.7842 44.2607 97.3451 44.6328 97.1665 45.1836Z" fill="#263238"/>
<path d="M103.5 47.1326C103.329 47.6983 103.5 48.2416 103.858 48.3532C104.215 48.4649 104.662 48.1002 104.833 47.542C105.004 46.9838 104.833 46.433 104.475 46.3214C104.118 46.2097 103.679 46.5744 103.5 47.1326Z" fill="#263238"/>
<path d="M104.305 46.3076H105.793C105.793 46.3076 104.759 47.171 104.305 46.3076Z" fill="#263238"/>
<path d="M101.537 47.5869C101.643 49.0185 101.946 50.4285 102.438 51.7771C102.089 51.8926 101.719 51.9305 101.354 51.8881C100.989 51.8456 100.637 51.7239 100.324 51.5315L101.537 47.5869Z" fill="#A02724"/>
<path d="M97.1897 52.7604C97.1828 52.7637 97.1751 52.7654 97.1674 52.7654C97.1597 52.7654 97.1521 52.7637 97.1451 52.7604C96.015 52.1528 95.1642 51.1312 94.7709 49.9099C94.7664 49.8962 94.7647 49.8818 94.7661 49.8674C94.7674 49.8531 94.7717 49.8392 94.7787 49.8266C94.7857 49.814 94.7953 49.803 94.8067 49.7943C94.8182 49.7856 94.8313 49.7793 94.8453 49.7759C94.8729 49.7689 94.9022 49.7727 94.9271 49.7865C94.952 49.8003 94.9707 49.8232 94.9793 49.8503C95.3597 51.0021 96.1558 51.9707 97.2121 52.5669C97.2331 52.579 97.2497 52.5977 97.2592 52.62C97.2687 52.6424 97.2707 52.6672 97.2648 52.6908C97.2589 52.7144 97.2455 52.7354 97.2265 52.7506C97.2076 52.7659 97.1843 52.7745 97.16 52.7753L97.1897 52.7604Z" fill="#263238"/>
<path d="M96.8538 41.4623C96.8062 41.4613 96.7601 41.4453 96.7223 41.4163C96.6845 41.3874 96.657 41.3471 96.6437 41.3014C96.6304 41.2557 96.632 41.2069 96.6484 41.1622C96.6648 41.1175 96.695 41.0792 96.7347 41.0529C97.1637 40.755 97.6577 40.5638 98.1755 40.4952C98.6932 40.4266 99.2199 40.4826 99.7117 40.6585C99.7645 40.6829 99.8061 40.7264 99.8282 40.7802C99.8503 40.8341 99.8512 40.8942 99.8308 40.9487C99.8195 40.9755 99.803 40.9997 99.7821 41.0199C99.7613 41.0401 99.7365 41.0559 99.7094 41.0663C99.6823 41.0767 99.6534 41.0815 99.6244 41.0805C99.5954 41.0795 99.5669 41.0727 99.5406 41.0604C99.1118 40.9137 98.6544 40.8703 98.2056 40.9336C97.7569 40.997 97.3294 41.1654 96.958 41.425C96.9269 41.446 96.8911 41.4588 96.8538 41.4623Z" fill="#263238"/>
<path d="M107.512 45.2284C107.472 45.2285 107.433 45.2174 107.398 45.1963C107.364 45.1753 107.337 45.1452 107.319 45.1093C107.114 44.705 106.818 44.3544 106.453 44.0855C106.089 43.8167 105.666 43.6371 105.22 43.5612C105.191 43.5594 105.162 43.5517 105.136 43.5386C105.11 43.5255 105.087 43.5072 105.068 43.485C105.05 43.4627 105.036 43.4369 105.027 43.4091C105.019 43.3813 105.016 43.352 105.019 43.323C105.026 43.2665 105.055 43.2149 105.099 43.1789C105.144 43.1429 105.2 43.1252 105.257 43.1295C105.779 43.206 106.274 43.4077 106.7 43.7175C107.127 44.0273 107.472 44.436 107.706 44.9083C107.732 44.9598 107.738 45.0197 107.721 45.0753C107.705 45.1308 107.667 45.1777 107.616 45.206C107.583 45.2206 107.548 45.2282 107.512 45.2284Z" fill="#263238"/>
<path d="M97.9707 44.3569H99.4592C99.4592 44.3569 98.4247 45.2277 97.9707 44.3569Z" fill="#263238"/>
<path d="M77.8463 111.215L77.6082 113.857C77.504 114.065 77.7496 114.274 78.092 114.274H107.952C108.212 114.274 108.436 114.14 108.451 113.976L108.718 111.334C108.718 111.148 108.51 110.992 108.212 110.992H78.3227C78.2307 110.984 78.1383 111.001 78.0547 111.04C77.9712 111.079 77.8993 111.139 77.8463 111.215Z" fill="#FF5C8A"/>
<path opacity="0.3" d="M77.8463 111.215L77.6082 113.857C77.504 114.065 77.7496 114.274 78.092 114.274H107.952C108.212 114.274 108.436 114.14 108.451 113.976L108.718 111.334C108.718 111.148 108.51 110.992 108.212 110.992H78.3227C78.2307 110.984 78.1383 111.001 78.0547 111.04C77.9712 111.079 77.8993 111.139 77.8463 111.215Z" fill="black"/>
<path d="M81.8572 114.557H81.0609C80.8971 114.557 80.778 114.475 80.7855 114.378L81.1651 110.94C81.1651 110.843 81.3139 110.761 81.4702 110.761H82.274C82.4303 110.761 82.5568 110.843 82.542 110.94L82.1698 114.378C82.1549 114.475 82.021 114.557 81.8572 114.557Z" fill="#263238"/>
<path d="M105.674 114.557H104.929C104.766 114.557 104.647 114.475 104.661 114.378L105.034 110.94C105.034 110.843 105.182 110.761 105.346 110.761H106.142C106.306 110.761 106.425 110.843 106.41 110.94L106.038 114.378C106.001 114.475 105.86 114.557 105.674 114.557Z" fill="#263238"/>
<path d="M93.7663 114.557H92.9625C92.8062 114.557 92.6797 114.475 92.6946 114.378L93.0667 110.94C93.0667 110.843 93.223 110.761 93.3793 110.761H94.1831C94.3394 110.761 94.4585 110.843 94.451 110.94L94.0714 114.378C94.0789 114.475 93.9375 114.557 93.7663 114.557Z" fill="#263238"/>
<path d="M160.689 92.5483H108.889L101.379 123.138H153.18L160.689 92.5483Z" fill="#FAFAFA"/>
<path d="M134.448 117.437L102.765 124.827L82.4316 119.126L82.64 117.437H134.448Z" fill="#FAFAFA"/>
<path d="M77.4656 79.4197C76.8405 81.4441 76.1706 83.5504 75.5752 85.6343C74.9798 87.7183 74.3472 89.7947 73.8038 91.8787C73.2605 93.9626 72.7395 96.0391 72.3153 98.0784C72.1218 99.0906 71.9432 100.103 71.8241 101.055C71.731 101.726 71.6863 102.403 71.6901 103.08C71.8634 103.627 72.1645 104.124 72.5684 104.531C73.171 105.189 73.8422 105.78 74.5704 106.295C76.217 107.485 77.9596 108.535 79.7803 109.436C83.6514 111.335 87.6272 113.012 91.6885 114.46L90.788 118.107C86.2676 117.364 81.8289 116.191 77.5326 114.601C75.2814 113.779 73.1113 112.75 71.0501 111.527C69.9177 110.837 68.8579 110.034 67.8869 109.131C66.66 108.018 65.7313 106.616 65.1853 105.052C65.0288 104.568 64.9216 104.069 64.8652 103.564V103.177V102.894V102.38C64.8652 101.71 64.8652 101.07 64.8652 100.445C64.9322 99.1948 65.0662 98.0114 65.2374 96.8504C65.5723 94.5134 65.9816 92.2657 66.5398 90.0478C67.098 87.8299 67.6116 85.6343 68.2293 83.4611C68.8471 81.2878 69.502 79.1518 70.2612 76.9785L77.4656 79.4197Z" fill="#B55B52"/>
<path d="M73.054 68.8736C70.0769 69.7741 65.6113 81.3772 65.6113 81.3772L77.0804 89.5641C77.0804 89.5641 82.2382 79.6431 80.9953 75.8176C79.663 71.8506 76.4329 67.8465 73.054 68.8736Z" fill="#FF5C8A"/>
<path opacity="0.5" d="M73.054 68.8736C70.0769 69.7741 65.6113 81.3772 65.6113 81.3772L77.0804 89.5641C77.0804 89.5641 82.2382 79.6431 80.9953 75.8176C79.663 71.8506 76.4329 67.8465 73.054 68.8736Z" fill="#FAFAFA"/>
<path d="M90.2463 114.69L97.1382 112.949L93.856 119.565C93.856 119.565 89.1969 119.766 87.6562 117.169L90.2463 114.69Z" fill="#B55B52"/>
<path d="M102.712 115.464L99.6607 120.86L93.8555 119.565L97.1377 112.949L102.712 115.464Z" fill="#B55B52"/>
<path d="M162.283 92.5483H110.482L102.973 123.138H154.773L162.283 92.5483Z" fill="#FF5C8A"/>
<path d="M154.773 123.138L154.564 124.828H102.764L102.972 123.138H154.773Z" fill="#FF5C8A"/>
<path d="M194.695 160.225H193.951V169.149H194.695V160.225Z" fill="#FF5C8A"/>
<path opacity="0.3" d="M194.695 160.225H193.951V169.149H194.695V160.225Z" fill="black"/>
<path d="M194.695 172.579H193.951V175.75H194.695V172.579Z" fill="#FF5C8A"/>
<path opacity="0.3" d="M194.695 172.579H193.951V175.75H194.695V172.579Z" fill="black"/>
<path d="M17.8509 109.421C17.4341 109.421 17.0173 109.421 16.5931 109.458C7.75119 110.091 0.598811 117.578 0.0406122 126.792C-0.0922093 128.827 0.10126 130.869 0.613693 132.843C2.56147 140.768 3.50171 148.908 3.41213 157.069V180.885C3.39413 181.694 3.69727 182.477 4.25521 183.063C4.81315 183.649 5.58046 183.99 6.38919 184.011H78.8805V109.421H17.8509Z" fill="#FF5C8A"/>
<path opacity="0.3" d="M17.8509 109.421C17.4341 109.421 17.0173 109.421 16.5931 109.458C7.75119 110.091 0.598811 117.578 0.0406122 126.792C-0.0922093 128.827 0.10126 130.869 0.613693 132.843C2.56147 140.768 3.50171 148.908 3.41213 157.069V180.885C3.39413 181.694 3.69727 182.477 4.25521 183.063C4.81315 183.649 5.58046 183.99 6.38919 184.011H78.8805V109.421H17.8509Z" fill="black"/>
<path d="M96.7432 128.013C96.7432 117.318 88.0651 108.722 77.638 109.466C68.7961 110.098 61.6437 117.586 61.0855 126.8C60.9527 128.834 61.1462 130.877 61.6586 132.851C63.6064 140.776 64.5466 148.916 64.4571 157.076V180.893C64.4391 181.702 64.7422 182.485 65.3001 183.071C65.8581 183.656 66.6254 183.997 67.4341 184.019H90.3202C91.1283 183.995 91.8945 183.654 92.452 183.068C93.0095 182.483 93.3133 181.701 93.2973 180.893V155.677C93.2307 148.033 94.1589 140.412 96.0585 133.007C96.5056 131.38 96.7359 129.7 96.7432 128.013Z" fill="#FF5C8A"/>
</svg>
