<svg width="154" height="156" viewBox="0 0 154 156" fill="none" xmlns="http://www.w3.org/2000/svg">
<path d="M117.879 42.3027C118.078 42.3046 118.275 42.2657 118.459 42.1883C118.642 42.1109 118.807 41.9967 118.945 41.8527C119.082 41.7088 119.188 41.5382 119.257 41.3515C119.325 41.1647 119.355 40.9659 119.343 40.7673L118.905 32.0116C118.881 31.5984 118.701 31.2096 118.402 30.9236C118.103 30.6376 117.706 30.4756 117.292 30.4703H116.107L115.034 8.68477C114.895 6.36045 113.884 4.17429 112.202 2.56394C110.52 0.953591 108.292 0.0378989 105.964 0.000186288H37.738C36.6176 -0.00736938 35.5075 0.214988 34.4764 0.653514C33.4453 1.09204 32.5151 1.73741 31.7434 2.54973C30.9716 3.36204 30.3747 4.32402 29.9895 5.3762C29.6044 6.42838 29.4391 7.5484 29.504 8.66699L30.5829 30.5533C30.2729 30.6661 30.0075 30.8758 29.826 31.1513C29.6445 31.4268 29.5565 31.7534 29.5751 32.0827L30.6125 53.0858C30.6361 53.4296 30.7615 53.7586 30.9726 54.0309C31.1837 54.3033 31.4711 54.5067 31.7981 54.6152L36.3568 147.3C36.5001 149.625 37.5168 151.811 39.2032 153.418C40.8896 155.025 43.121 155.936 45.4504 155.967H113.67C114.791 155.975 115.901 155.752 116.932 155.314C117.963 154.875 118.893 154.23 119.665 153.417C120.437 152.605 121.034 151.643 121.419 150.591C121.804 149.539 121.969 148.419 121.904 147.3L117.488 57.9646H118.674C118.873 57.9665 119.07 57.9276 119.253 57.8502C119.436 57.7728 119.602 57.6586 119.739 57.5146C119.876 57.3707 119.982 57.2001 120.051 57.0133C120.12 56.8266 120.149 56.6278 120.138 56.4292L119.705 47.6557C119.678 47.244 119.498 46.8575 119.199 46.573C118.9 46.2885 118.505 46.1269 118.093 46.1204H116.907L116.717 42.3027H117.879Z" fill="#FF5C8A"/>
<path d="M46.8905 155.967H115.11C116.231 155.974 117.341 155.752 118.373 155.314C119.404 154.875 120.335 154.23 121.107 153.418C121.879 152.605 122.477 151.644 122.863 150.591C123.248 149.539 123.414 148.419 123.35 147.3L116.498 8.67291C116.357 6.34719 115.342 4.16065 113.657 2.55206C111.971 0.943465 109.74 0.0318612 107.41 0.00018379H39.184C38.0633 -0.00732003 36.953 0.215026 35.9216 0.653489C34.8902 1.09195 33.9597 1.73722 33.1875 2.54943C32.4153 3.36165 31.8178 4.32356 31.4319 5.37576C31.0461 6.42796 30.88 7.5481 30.9441 8.66698L37.7969 147.294C37.9388 149.62 38.9549 151.807 40.6414 153.416C42.3279 155.024 44.5602 155.935 46.8905 155.967Z" fill="#FF5C8A"/>
<path opacity="0.4" d="M46.8905 155.967H115.11C116.231 155.974 117.341 155.752 118.373 155.314C119.404 154.875 120.335 154.23 121.107 153.418C121.879 152.605 122.477 151.644 122.863 150.591C123.248 149.539 123.414 148.419 123.35 147.3L116.498 8.67291C116.357 6.34719 115.342 4.16065 113.657 2.55206C111.971 0.943465 109.74 0.0318612 107.41 0.00018379H39.184C38.0633 -0.00732003 36.953 0.215026 35.9216 0.653489C34.8902 1.09195 33.9597 1.73722 33.1875 2.54943C32.4153 3.36165 31.8178 4.32356 31.4319 5.37576C31.0461 6.42796 30.88 7.5481 30.9441 8.66698L37.7969 147.294C37.9388 149.62 38.9549 151.807 40.6414 153.416C42.3279 155.024 44.5602 155.935 46.8905 155.967Z" fill="#FAFAFA"/>
<path d="M41.289 143.88H119.539C119.714 143.882 119.887 143.848 120.048 143.78C120.208 143.713 120.354 143.613 120.474 143.486C120.595 143.36 120.688 143.211 120.749 143.047C120.809 142.883 120.835 142.709 120.826 142.534L114.435 13.7359C114.413 13.3741 114.254 13.0342 113.991 12.7845C113.728 12.5349 113.381 12.394 113.018 12.3902H34.7682C34.5939 12.3883 34.4211 12.4222 34.2605 12.49C34.0999 12.5578 33.9551 12.658 33.8349 12.7842C33.7148 12.9105 33.6219 13.0602 33.5622 13.2239C33.5025 13.3876 33.4771 13.5619 33.4877 13.7359L39.8485 142.534C39.8712 142.9 40.0331 143.244 40.301 143.494C40.5689 143.744 40.9224 143.882 41.289 143.88Z" fill="white"/>
<path opacity="0.7" d="M81.7177 4.0137H65.2674C65.1294 4.01265 64.9927 4.03995 64.8657 4.0939C64.7387 4.14785 64.6241 4.22731 64.5291 4.32734C64.4341 4.42738 64.3606 4.54587 64.3132 4.67546C64.2658 4.80506 64.2456 4.94301 64.2537 5.08075C64.2702 5.36813 64.3949 5.63859 64.6028 5.83768C64.8107 6.03677 65.0863 6.1497 65.3741 6.15372H81.8244C81.9629 6.15483 82.1002 6.12737 82.2276 6.07306C82.355 6.01875 82.4699 5.93875 82.565 5.83806C82.6601 5.73738 82.7335 5.61817 82.7805 5.48786C82.8275 5.35756 82.8471 5.21897 82.8381 5.08075C82.8202 4.79443 82.6948 4.52543 82.4871 4.32758C82.2794 4.12973 82.0046 4.01762 81.7177 4.0137Z" fill="#FF5C8A"/>
<path opacity="0.6" d="M141.888 117.073H73.4904L68.5879 17.8613H136.986L141.888 117.073Z" fill="#FF5C8A"/>
<path d="M133.814 89.9464C133.783 89.9521 133.751 89.9521 133.719 89.9464C133.689 89.9358 133.663 89.9174 133.642 89.8931C133.619 89.8714 133.601 89.8451 133.589 89.816C133.584 89.7846 133.584 89.7525 133.589 89.7212C133.589 89.6551 133.615 89.5918 133.662 89.5451C133.709 89.4984 133.772 89.4722 133.838 89.4722C133.904 89.4722 133.967 89.4984 134.014 89.5451C134.061 89.5918 134.087 89.6551 134.087 89.7212C134.092 89.7525 134.092 89.7846 134.087 89.816C134.075 89.8451 134.057 89.8714 134.034 89.8931C134.013 89.9174 133.987 89.9358 133.957 89.9464C133.91 89.9606 133.861 89.9606 133.814 89.9464Z" fill="white"/>
<path d="M134.495 108.483C134.494 108.451 134.498 108.419 134.509 108.389C134.52 108.359 134.537 108.331 134.558 108.308C134.58 108.284 134.605 108.265 134.634 108.251C134.663 108.238 134.695 108.23 134.727 108.228C134.792 108.225 134.855 108.247 134.904 108.291C134.953 108.334 134.983 108.394 134.987 108.459C134.989 108.492 134.984 108.525 134.973 108.556C134.962 108.586 134.945 108.615 134.923 108.639C134.901 108.663 134.874 108.683 134.845 108.697C134.815 108.711 134.783 108.719 134.75 108.72C134.685 108.722 134.622 108.698 134.574 108.654C134.527 108.609 134.498 108.548 134.495 108.483ZM134.4 106.61C134.399 106.577 134.404 106.544 134.415 106.514C134.426 106.483 134.443 106.454 134.465 106.43C134.487 106.406 134.514 106.386 134.543 106.372C134.573 106.359 134.605 106.351 134.638 106.349C134.67 106.347 134.702 106.352 134.733 106.363C134.763 106.375 134.791 106.392 134.815 106.414C134.839 106.436 134.858 106.463 134.871 106.492C134.885 106.522 134.892 106.554 134.893 106.586C134.894 106.618 134.889 106.65 134.879 106.68C134.868 106.71 134.851 106.738 134.83 106.762C134.808 106.785 134.782 106.804 134.753 106.818C134.725 106.832 134.693 106.84 134.661 106.841C134.596 106.844 134.532 106.822 134.484 106.779C134.435 106.736 134.405 106.675 134.4 106.61ZM134.312 104.731C134.31 104.699 134.315 104.667 134.325 104.637C134.336 104.607 134.353 104.579 134.374 104.555C134.396 104.532 134.422 104.512 134.451 104.499C134.48 104.485 134.511 104.477 134.543 104.476C134.575 104.473 134.607 104.477 134.638 104.488C134.668 104.498 134.696 104.515 134.72 104.537C134.744 104.558 134.763 104.584 134.776 104.614C134.79 104.643 134.797 104.675 134.798 104.707C134.8 104.739 134.796 104.772 134.786 104.803C134.775 104.834 134.759 104.862 134.737 104.886C134.716 104.911 134.689 104.93 134.66 104.944C134.631 104.958 134.599 104.966 134.566 104.968C134.501 104.969 134.438 104.946 134.391 104.901C134.343 104.857 134.315 104.796 134.312 104.731ZM134.217 102.851C134.215 102.787 134.238 102.725 134.281 102.678C134.324 102.63 134.384 102.601 134.448 102.597C134.513 102.593 134.577 102.616 134.626 102.659C134.674 102.702 134.704 102.763 134.709 102.828C134.712 102.893 134.69 102.957 134.646 103.005C134.603 103.054 134.543 103.084 134.478 103.089C134.445 103.09 134.412 103.085 134.381 103.074C134.351 103.063 134.322 103.046 134.298 103.024C134.274 103.002 134.254 102.976 134.24 102.946C134.226 102.916 134.218 102.884 134.217 102.851ZM134.122 100.978C134.12 100.946 134.125 100.913 134.136 100.882C134.147 100.851 134.164 100.823 134.186 100.799C134.208 100.774 134.235 100.755 134.265 100.741C134.294 100.727 134.326 100.719 134.359 100.717C134.391 100.716 134.424 100.721 134.454 100.732C134.485 100.743 134.513 100.76 134.536 100.782C134.56 100.804 134.579 100.831 134.593 100.861C134.606 100.89 134.613 100.922 134.614 100.955C134.615 100.986 134.611 101.018 134.6 101.048C134.589 101.079 134.573 101.106 134.551 101.13C134.53 101.154 134.504 101.173 134.475 101.186C134.446 101.2 134.415 101.208 134.383 101.209C134.318 101.213 134.254 101.19 134.205 101.147C134.156 101.104 134.126 101.043 134.122 100.978ZM134.033 99.099C134.031 99.0671 134.036 99.0352 134.047 99.0051C134.058 98.975 134.074 98.9473 134.096 98.9236C134.117 98.8999 134.143 98.8807 134.172 98.8671C134.201 98.8535 134.232 98.8456 134.264 98.8441C134.297 98.8417 134.329 98.8458 134.36 98.8562C134.391 98.8666 134.419 98.8831 134.443 98.9046C134.468 98.9262 134.487 98.9524 134.501 98.9817C134.515 99.011 134.523 99.0429 134.525 99.0753C134.527 99.141 134.503 99.2048 134.459 99.2533C134.415 99.3019 134.353 99.3316 134.288 99.3362C134.223 99.3378 134.16 99.3139 134.112 99.2696C134.064 99.2252 134.036 99.164 134.033 99.099ZM133.938 97.2199C133.936 97.1548 133.96 97.0917 134.005 97.0441C134.049 96.9964 134.11 96.968 134.175 96.965C134.207 96.9634 134.239 96.9681 134.269 96.9788C134.299 96.9896 134.327 97.0062 134.351 97.0277C134.374 97.0491 134.394 97.0751 134.407 97.104C134.421 97.1329 134.429 97.1642 134.43 97.1961C134.433 97.2612 134.411 97.325 134.368 97.3738C134.325 97.4225 134.264 97.4524 134.199 97.457C134.166 97.4586 134.134 97.4537 134.103 97.4426C134.072 97.4316 134.044 97.4145 134.019 97.3925C133.995 97.3705 133.975 97.3439 133.962 97.3143C133.948 97.2846 133.94 97.2526 133.938 97.2199ZM133.849 95.3466C133.847 95.3142 133.851 95.2816 133.861 95.2508C133.872 95.22 133.888 95.1917 133.91 95.1673C133.931 95.143 133.957 95.1233 133.987 95.1093C134.016 95.0952 134.048 95.0872 134.08 95.0858C134.113 95.0842 134.145 95.0891 134.176 95.1002C134.206 95.1113 134.234 95.1285 134.258 95.1506C134.282 95.1727 134.301 95.1993 134.314 95.2289C134.327 95.2585 134.335 95.2904 134.335 95.3229C134.337 95.3548 134.332 95.3867 134.321 95.4168C134.311 95.4469 134.294 95.4746 134.273 95.4983C134.251 95.522 134.225 95.5412 134.196 95.5548C134.167 95.5685 134.136 95.5763 134.104 95.5778C134.072 95.5794 134.04 95.5747 134.01 95.5639C133.98 95.5531 133.952 95.5365 133.929 95.5151C133.905 95.4936 133.886 95.4677 133.872 95.4387C133.858 95.4098 133.851 95.3785 133.849 95.3466ZM133.754 93.4674C133.753 93.4355 133.757 93.4035 133.768 93.3734C133.779 93.3433 133.796 93.3157 133.817 93.292C133.839 93.2683 133.864 93.2491 133.893 93.2355C133.922 93.2218 133.954 93.214 133.986 93.2125C134.051 93.2092 134.114 93.2316 134.163 93.2748C134.212 93.3181 134.242 93.3787 134.246 93.4437C134.248 93.5093 134.224 93.5731 134.18 93.6217C134.136 93.6703 134.075 93.7 134.009 93.7045C133.944 93.7061 133.881 93.6822 133.833 93.6379C133.786 93.5936 133.757 93.5324 133.754 93.4674ZM133.659 91.5941C133.658 91.5614 133.663 91.5287 133.674 91.4979C133.685 91.4671 133.702 91.4388 133.724 91.4145C133.746 91.3903 133.773 91.3707 133.802 91.3567C133.832 91.3428 133.864 91.3348 133.897 91.3333C133.929 91.3317 133.96 91.3364 133.991 91.3472C134.021 91.3579 134.048 91.3745 134.072 91.396C134.096 91.4175 134.115 91.4434 134.129 91.4723C134.142 91.5013 134.15 91.5326 134.151 91.5645C134.155 91.6296 134.132 91.6934 134.089 91.7421C134.046 91.7909 133.985 91.8208 133.92 91.8253C133.855 91.8286 133.791 91.8062 133.743 91.763C133.694 91.7198 133.664 91.6591 133.659 91.5941Z" fill="white"/>
<path d="M134.833 110.6C134.801 110.6 134.769 110.593 134.739 110.58C134.709 110.567 134.683 110.547 134.661 110.523C134.638 110.501 134.619 110.474 134.607 110.445C134.595 110.415 134.589 110.383 134.59 110.351C134.585 110.32 134.585 110.288 134.59 110.256C134.601 110.226 134.619 110.2 134.644 110.179C134.665 110.156 134.691 110.138 134.721 110.126C134.782 110.102 134.849 110.102 134.91 110.126C134.941 110.138 134.969 110.156 134.993 110.179C135.014 110.202 135.03 110.228 135.041 110.256C135.049 110.287 135.049 110.32 135.041 110.351C135.04 110.415 135.014 110.477 134.97 110.523C134.946 110.546 134.918 110.564 134.887 110.576C134.87 110.587 134.852 110.595 134.833 110.6Z" fill="white"/>
<path d="M132.599 110.351C132.599 110.319 132.605 110.287 132.618 110.257C132.63 110.227 132.649 110.2 132.672 110.177C132.695 110.154 132.723 110.137 132.753 110.125C132.783 110.113 132.815 110.107 132.848 110.108C132.879 110.108 132.911 110.114 132.941 110.126C132.97 110.139 132.997 110.157 133.019 110.179C133.042 110.202 133.06 110.229 133.072 110.258C133.084 110.288 133.091 110.319 133.091 110.351C133.091 110.416 133.065 110.479 133.02 110.525C132.974 110.572 132.913 110.598 132.848 110.6C132.782 110.6 132.718 110.574 132.672 110.527C132.625 110.48 132.599 110.417 132.599 110.351ZM130.607 110.351C130.607 110.319 130.613 110.287 130.626 110.257C130.638 110.227 130.657 110.2 130.68 110.177C130.703 110.154 130.731 110.137 130.761 110.125C130.791 110.113 130.823 110.107 130.856 110.108C130.888 110.108 130.919 110.114 130.949 110.126C130.978 110.139 131.005 110.157 131.028 110.179C131.05 110.202 131.068 110.229 131.08 110.258C131.093 110.288 131.099 110.319 131.099 110.351C131.1 110.383 131.094 110.416 131.082 110.446C131.07 110.476 131.052 110.504 131.03 110.527C131.007 110.55 130.98 110.568 130.95 110.581C130.92 110.594 130.888 110.6 130.856 110.6C130.791 110.598 130.729 110.572 130.684 110.525C130.638 110.479 130.613 110.416 130.613 110.351H130.607ZM128.621 110.351C128.621 110.319 128.627 110.288 128.639 110.258C128.652 110.229 128.67 110.202 128.692 110.179C128.715 110.157 128.741 110.139 128.771 110.126C128.8 110.114 128.832 110.108 128.864 110.108C128.896 110.107 128.929 110.113 128.959 110.125C128.989 110.137 129.016 110.154 129.04 110.177C129.063 110.2 129.081 110.227 129.094 110.257C129.106 110.287 129.113 110.319 129.113 110.351C129.113 110.417 129.087 110.48 129.04 110.527C128.993 110.574 128.93 110.6 128.864 110.6C128.832 110.6 128.799 110.594 128.77 110.581C128.74 110.568 128.713 110.55 128.69 110.527C128.667 110.504 128.65 110.476 128.638 110.446C128.626 110.416 128.62 110.383 128.621 110.351ZM126.629 110.351C126.629 110.319 126.636 110.287 126.648 110.257C126.661 110.227 126.679 110.2 126.702 110.177C126.726 110.154 126.753 110.137 126.783 110.125C126.813 110.113 126.846 110.107 126.878 110.108C126.91 110.108 126.942 110.114 126.971 110.126C127.001 110.139 127.027 110.157 127.05 110.179C127.072 110.202 127.09 110.229 127.103 110.258C127.115 110.288 127.121 110.319 127.121 110.351C127.122 110.383 127.116 110.416 127.104 110.446C127.092 110.476 127.075 110.504 127.052 110.527C127.029 110.55 127.002 110.568 126.972 110.581C126.943 110.594 126.91 110.6 126.878 110.6C126.812 110.6 126.749 110.574 126.702 110.527C126.655 110.48 126.629 110.417 126.629 110.351ZM124.643 110.351C124.643 110.319 124.649 110.288 124.662 110.258C124.674 110.229 124.692 110.202 124.714 110.179C124.737 110.157 124.764 110.139 124.793 110.126C124.823 110.114 124.854 110.108 124.886 110.108C124.919 110.107 124.951 110.113 124.981 110.125C125.011 110.137 125.039 110.154 125.062 110.177C125.085 110.2 125.104 110.227 125.116 110.257C125.129 110.287 125.135 110.319 125.135 110.351C125.135 110.417 125.109 110.48 125.062 110.527C125.016 110.574 124.952 110.6 124.886 110.6C124.854 110.6 124.822 110.594 124.792 110.581C124.762 110.568 124.735 110.55 124.712 110.527C124.69 110.504 124.672 110.476 124.66 110.446C124.648 110.416 124.642 110.383 124.643 110.351ZM122.651 110.351C122.651 110.319 122.658 110.287 122.67 110.257C122.683 110.227 122.701 110.2 122.725 110.177C122.748 110.154 122.775 110.137 122.805 110.125C122.836 110.113 122.868 110.107 122.9 110.108C122.932 110.108 122.964 110.114 122.993 110.126C123.023 110.139 123.05 110.157 123.072 110.179C123.095 110.202 123.113 110.229 123.125 110.258C123.137 110.288 123.143 110.319 123.143 110.351C123.144 110.383 123.138 110.416 123.127 110.446C123.115 110.476 123.097 110.504 123.074 110.527C123.052 110.55 123.025 110.568 122.995 110.581C122.965 110.594 122.933 110.6 122.9 110.6C122.834 110.6 122.771 110.574 122.724 110.527C122.678 110.48 122.651 110.417 122.651 110.351ZM120.66 110.351C120.66 110.319 120.666 110.287 120.679 110.257C120.691 110.227 120.71 110.2 120.733 110.177C120.756 110.154 120.784 110.137 120.814 110.125C120.844 110.113 120.876 110.107 120.909 110.108C120.94 110.108 120.972 110.114 121.002 110.126C121.031 110.139 121.058 110.157 121.08 110.179C121.103 110.202 121.121 110.229 121.133 110.258C121.145 110.288 121.152 110.319 121.152 110.351C121.152 110.383 121.147 110.416 121.135 110.446C121.123 110.476 121.105 110.504 121.082 110.527C121.06 110.55 121.033 110.568 121.003 110.581C120.973 110.594 120.941 110.6 120.909 110.6C120.842 110.6 120.779 110.574 120.732 110.527C120.686 110.48 120.66 110.417 120.66 110.351ZM118.674 110.351C118.674 110.319 118.68 110.288 118.692 110.258C118.704 110.229 118.722 110.202 118.745 110.179C118.767 110.157 118.794 110.139 118.824 110.126C118.853 110.114 118.885 110.108 118.917 110.108C118.949 110.107 118.981 110.113 119.012 110.125C119.042 110.137 119.069 110.154 119.092 110.177C119.116 110.2 119.134 110.227 119.147 110.257C119.159 110.287 119.166 110.319 119.166 110.351C119.166 110.417 119.139 110.48 119.093 110.527C119.046 110.574 118.983 110.6 118.917 110.6C118.852 110.598 118.79 110.572 118.744 110.525C118.699 110.479 118.674 110.416 118.674 110.351ZM116.682 110.351C116.682 110.319 116.688 110.287 116.701 110.257C116.713 110.227 116.732 110.2 116.755 110.177C116.778 110.154 116.806 110.137 116.836 110.125C116.866 110.113 116.898 110.107 116.931 110.108C116.963 110.108 116.994 110.114 117.024 110.126C117.053 110.139 117.08 110.157 117.103 110.179C117.125 110.202 117.143 110.229 117.155 110.258C117.168 110.288 117.174 110.319 117.174 110.351C117.175 110.383 117.169 110.416 117.157 110.446C117.145 110.476 117.127 110.504 117.105 110.527C117.082 110.55 117.055 110.568 117.025 110.581C116.995 110.594 116.963 110.6 116.931 110.6C116.865 110.6 116.801 110.574 116.755 110.527C116.708 110.48 116.682 110.417 116.682 110.351ZM114.696 110.351C114.696 110.319 114.702 110.288 114.714 110.258C114.727 110.229 114.745 110.202 114.767 110.179C114.79 110.157 114.816 110.139 114.846 110.126C114.875 110.114 114.907 110.108 114.939 110.108C114.971 110.107 115.004 110.113 115.034 110.125C115.064 110.137 115.091 110.154 115.115 110.177C115.138 110.2 115.156 110.227 115.169 110.257C115.181 110.287 115.188 110.319 115.188 110.351C115.188 110.417 115.162 110.48 115.115 110.527C115.068 110.574 115.005 110.6 114.939 110.6C114.907 110.6 114.874 110.594 114.845 110.581C114.815 110.568 114.788 110.55 114.765 110.527C114.742 110.504 114.725 110.476 114.713 110.446C114.701 110.416 114.695 110.383 114.696 110.351ZM112.704 110.351C112.704 110.319 112.711 110.287 112.723 110.257C112.736 110.227 112.754 110.2 112.777 110.177C112.801 110.154 112.828 110.137 112.858 110.125C112.888 110.113 112.921 110.107 112.953 110.108C112.985 110.108 113.017 110.114 113.046 110.126C113.076 110.139 113.102 110.157 113.125 110.179C113.148 110.202 113.165 110.229 113.178 110.258C113.19 110.288 113.196 110.319 113.196 110.351C113.197 110.383 113.191 110.416 113.179 110.446C113.167 110.476 113.15 110.504 113.127 110.527C113.104 110.55 113.077 110.568 113.047 110.581C113.018 110.594 112.985 110.6 112.953 110.6C112.887 110.6 112.824 110.574 112.777 110.527C112.73 110.48 112.704 110.417 112.704 110.351Z" fill="white"/>
<path d="M110.961 110.599C110.929 110.599 110.897 110.591 110.867 110.578C110.838 110.565 110.811 110.546 110.789 110.522C110.765 110.502 110.746 110.475 110.736 110.445C110.73 110.414 110.73 110.382 110.736 110.35C110.735 110.318 110.74 110.286 110.753 110.257C110.765 110.227 110.783 110.2 110.807 110.179C110.84 110.143 110.884 110.118 110.932 110.108C110.979 110.099 111.029 110.105 111.074 110.125C111.104 110.136 111.13 110.154 111.151 110.179C111.175 110.2 111.194 110.227 111.207 110.256C111.221 110.286 111.228 110.318 111.228 110.35C111.233 110.382 111.233 110.414 111.228 110.445C111.202 110.503 111.155 110.55 111.097 110.576C111.055 110.596 111.008 110.605 110.961 110.599Z" fill="white"/>
<path opacity="0.5" d="M138.29 44.3004H69.8921L68.5879 17.8613H136.986L138.29 44.3004Z" fill="#FF5C8A"/>
<path d="M135.07 86.6683L134.91 84.9373C139.206 84.7729 143.269 82.9422 146.239 79.8332C147.986 78.0017 149.281 75.7869 150.021 73.3657L151.681 73.9585C150.87 76.6203 149.449 79.0562 147.531 81.0722C144.263 84.4868 139.793 86.494 135.07 86.6683Z" fill="#1C2D5E"/>
<g style="mix-blend-mode:multiply" opacity="0.5">
<path d="M145.018 55.1309C142.899 53.1018 140.329 51.6045 137.519 50.7619L137.939 49.1021C141.028 50.0303 143.854 51.6756 146.185 53.9038C148.873 56.4114 150.811 59.6174 151.782 63.1633C152.752 66.7091 152.717 70.455 151.681 73.982L150.021 73.3892C150.963 70.1813 150.993 66.7746 150.11 63.5502C149.226 60.3257 147.463 57.4106 145.018 55.1309Z" fill="#FF5C8A"/>
</g>
<path d="M120.345 81.0603C116.642 77.5643 114.398 72.7977 114.062 67.7163H115.793C116.13 72.5052 118.311 76.9768 121.875 80.1923C125.44 83.4078 130.112 85.117 134.91 84.961L135.071 86.692C132.363 86.7937 129.663 86.3472 127.133 85.3795C124.603 84.4117 122.294 82.9426 120.345 81.0603Z" fill="#FF5C8A"/>
<path opacity="0.7" d="M114.061 67.7166C113.883 65.1929 114.23 62.6596 115.081 60.277C115.932 57.8945 117.268 55.7144 119.005 53.8746C121.407 51.3991 124.449 49.6394 127.792 48.7916C131.135 47.9437 134.648 48.0411 137.939 49.0729L137.518 50.7327C134.521 49.7958 131.323 49.7109 128.281 50.4877C125.238 51.2645 122.472 52.8723 120.291 55.1313C118.715 56.8012 117.501 58.7793 116.727 60.9412C115.953 63.1031 115.634 65.4019 115.792 67.6929L114.061 67.7166Z" fill="white"/>
<path opacity="0.6" d="M144.015 77.9451C149.53 72.2925 149.186 63.0138 143.247 57.2206C137.308 51.4274 128.024 51.3135 122.51 56.9661C116.996 62.6188 117.34 71.8975 123.278 77.6906C129.217 83.4838 138.501 83.5978 144.015 77.9451Z" fill="white"/>
<path d="M97.5095 96.1414L97.219 97.327C94.2315 96.444 91.0203 96.7257 88.2321 98.1155C86.6138 98.9235 85.2069 100.099 84.124 101.548L83.1162 100.777C84.3044 99.1834 85.8494 97.8902 87.6275 97.001C90.6946 95.4765 94.2252 95.1694 97.5095 96.1414Z" fill="#1C2D5E"/>
<g style="mix-blend-mode:multiply" opacity="0.5">
<path d="M83.3475 114.874C84.345 116.727 85.767 118.317 87.4971 119.515L86.8213 120.523C84.9183 119.204 83.3526 117.456 82.2508 115.419C80.9839 113.15 80.3917 110.567 80.5439 107.973C80.6962 105.378 81.5867 102.882 83.1104 100.777L84.1182 101.547C82.7303 103.463 81.9202 105.736 81.7836 108.098C81.647 110.46 82.1897 112.811 83.3475 114.874Z" fill="#FF5C8A"/>
</g>
<path opacity="0.7" d="M106.355 103.279C108.095 106.433 108.542 110.141 107.6 113.618L106.414 113.238C107.273 110.072 106.866 106.697 105.282 103.825C104.44 102.258 103.295 100.874 101.913 99.7542C100.531 98.6346 98.9391 97.8016 97.2314 97.3038L97.5219 96.1182C99.3965 96.6643 101.143 97.579 102.66 98.8086C104.177 100.038 105.433 101.558 106.355 103.279Z" fill="white"/>
<path d="M107.6 113.617C107.126 115.354 106.291 116.972 105.149 118.364C104.007 119.756 102.584 120.892 100.973 121.697C98.7234 122.79 96.221 123.257 93.7288 123.049C91.2366 122.84 88.8467 121.963 86.8105 120.511L87.4863 119.503C89.339 120.824 91.5134 121.619 93.7805 121.807C96.0476 121.995 98.3234 121.568 100.368 120.57C101.834 119.839 103.129 118.807 104.169 117.542C105.209 116.276 105.97 114.805 106.403 113.226L107.6 113.617Z" fill="#FF5C8A"/>
<path opacity="0.6" d="M102.006 116.847C105.954 112.8 105.708 106.157 101.457 102.01C97.206 97.863 90.559 97.7821 86.6108 101.829C82.6626 105.877 82.9082 112.52 87.1594 116.667C91.4106 120.814 98.0576 120.895 102.006 116.847Z" fill="white"/>
<path d="M112.236 21.1934H109.889L103.99 29.9906L110.76 38.7878H113.108L106.338 29.9906L112.236 21.1934Z" fill="white"/>
<path d="M119.26 21.1934H121.607L128.383 29.9906L122.479 38.7878H120.125L126.03 29.9906L119.26 21.1934Z" fill="white"/>
<g opacity="0.6">
<path opacity="0.6" d="M59.3569 29.1543H44.3649C44.2202 29.1532 44.0768 29.1819 43.9436 29.2386C43.8104 29.2953 43.6903 29.3788 43.5908 29.4839C43.4913 29.589 43.4145 29.7134 43.3651 29.8495C43.3157 29.9855 43.2948 30.1303 43.3038 30.2747L43.8136 40.5836C43.8303 40.8866 43.9625 41.1717 44.1831 41.3801C44.4036 41.5885 44.6957 41.7045 44.9992 41.704H59.9912C60.1359 41.7051 60.2793 41.6764 60.4125 41.6197C60.5457 41.563 60.6658 41.4795 60.7653 41.3744C60.8648 41.2693 60.9417 41.1449 60.991 41.0089C61.0404 40.8728 61.0613 40.7281 61.0523 40.5836L60.5425 30.2747C60.5258 29.9717 60.3936 29.6867 60.173 29.4782C59.9525 29.2698 59.6604 29.1539 59.3569 29.1543ZM53.6956 38.7459H50.9806L51.1703 35.4677C50.9089 35.3046 50.6906 35.0811 50.5338 34.8159C50.377 34.5508 50.2862 34.2518 50.2692 33.9442C50.2554 33.7083 50.2902 33.4721 50.3714 33.2502C50.4527 33.0284 50.5786 32.8256 50.7415 32.6544C50.9043 32.4832 51.1006 32.3473 51.3182 32.2551C51.5357 32.1629 51.7699 32.1163 52.0061 32.1183C52.4972 32.1235 52.968 32.3149 53.3234 32.6538C53.6789 32.9927 53.8924 33.4539 53.9209 33.9442C53.9412 34.2414 53.8829 34.5386 53.7517 34.8061C53.6206 35.0736 53.4213 35.3017 53.174 35.4677L53.6956 38.7459Z" fill="#FF5C8A"/>
<path opacity="0.2" d="M50.2694 33.9446C50.2864 34.2522 50.3771 34.5512 50.5339 34.8163C50.6908 35.0815 50.9091 35.305 51.1704 35.4681L50.9807 38.7463H52.362L52.5042 41.7103H44.9875C44.684 41.7108 44.3919 41.5949 44.1714 41.3864C43.9508 41.178 43.8186 40.8929 43.8019 40.5899L43.2921 30.2811C43.2831 30.1366 43.304 29.9919 43.3534 29.8558C43.4027 29.7198 43.4796 29.5953 43.5791 29.4902C43.6786 29.3852 43.7987 29.3017 43.9319 29.245C44.065 29.1883 44.2085 29.1596 44.3532 29.1607H51.8522L51.9944 32.1247C51.7597 32.1243 51.5273 32.1719 51.3116 32.2645C51.0959 32.357 50.9013 32.4926 50.7398 32.663C50.5783 32.8334 50.4533 33.0349 50.3724 33.2553C50.2915 33.4757 50.2565 33.7102 50.2694 33.9446Z" fill="black"/>
<path opacity="0.6" d="M57.9812 28.4135C57.7149 28.4109 57.4596 28.3072 57.267 28.1233C57.0744 27.9395 56.9588 27.6893 56.9438 27.4235L56.8904 26.4157C56.8305 25.0481 56.2714 23.7498 55.3188 22.7666C54.3662 21.7835 53.0863 21.1836 51.7212 21.0805C51.0321 21.0372 50.3417 21.1409 49.6958 21.3846C49.0498 21.6283 48.463 22.0065 47.9742 22.4942C47.4855 22.9818 47.1059 23.5677 46.8607 24.2132C46.6155 24.8586 46.5103 25.5487 46.5519 26.2379L46.6112 27.4235C46.6186 27.5519 46.5994 27.6805 46.5548 27.8011C46.5103 27.9218 46.4414 28.032 46.3524 28.1249C46.2634 28.2178 46.1563 28.2913 46.0376 28.341C45.919 28.3906 45.7913 28.4153 45.6627 28.4135C45.3965 28.4109 45.1412 28.3072 44.9485 28.1233C44.7559 27.9395 44.6404 27.6893 44.6253 27.4235L44.5779 26.4394C44.5129 25.5279 44.6311 24.6125 44.9257 23.7474C45.2203 22.8823 45.6852 22.085 46.2931 21.4025C46.9009 20.7201 47.6393 20.1664 48.4647 19.774C49.2901 19.3817 50.1857 19.1587 51.0987 19.1183C53.0692 19.0671 54.9825 19.7835 56.4347 21.1163C57.8869 22.4491 58.7645 24.294 58.8823 26.2616L58.9356 27.4472C58.9405 27.5744 58.9193 27.7012 58.8732 27.8199C58.8271 27.9386 58.7572 28.0465 58.6678 28.1371C58.5783 28.2277 58.4712 28.2989 58.3531 28.3465C58.235 28.394 58.1085 28.4168 57.9812 28.4135Z" fill="#FF5C8A"/>
</g>
<path opacity="0.4" d="M64.5262 138.871H15.5665L11.3457 53.4062H60.3054L64.5262 138.871Z" fill="#FF5C8A"/>
<path opacity="0.3" d="M60.507 57.5025H11.5473L11.3457 53.4062H60.3054L60.507 57.5025Z" fill="#FF5C8A"/>
<path opacity="0.3" d="M64.5265 138.871H15.5668L15.3652 134.774H64.3249L64.5265 138.871Z" fill="#FF5C8A"/>
<path d="M26.5458 77.5927L24.7674 76.6798C24.5004 75.915 24.1589 75.1784 23.7477 74.4805L24.2279 72.625L20.3806 68.9615L18.5548 69.5543C17.837 69.1783 17.0846 68.8725 16.308 68.6414L15.3181 66.9341H10.1547L9.32481 68.6414C8.57799 68.8707 7.85686 69.1767 7.17293 69.5543L5.29374 68.9615L1.80805 72.625L2.46607 74.4805C2.12574 75.1847 1.85761 75.9215 1.66578 76.6798L0 77.5927L0.254906 82.7738L2.03332 83.6808C2.30417 84.444 2.64552 85.1802 3.05294 85.8801L2.56684 87.7356L6.41414 91.3991L8.23998 90.8063C8.95566 91.1823 9.7061 91.488 10.4808 91.7192L11.4589 93.4561H16.64L17.464 91.7429C18.2112 91.5147 18.9325 91.2087 19.6159 90.83L21.501 91.4228L24.9808 87.7593L24.3228 85.9038C24.6666 85.2011 24.9348 84.4639 25.123 83.7045L26.7948 82.7975L26.5458 77.5927ZM13.8598 89.5733C11.3335 89.5475 8.91114 88.5637 7.08228 86.8207C5.25343 85.0777 4.15443 82.7054 4.00736 80.1833C3.93324 78.9696 4.10981 77.7537 4.52608 76.6113C4.94236 75.4689 5.58941 74.4244 6.42693 73.5429C7.26446 72.6615 8.27451 71.9619 9.39418 71.4878C10.5139 71.0137 11.7191 70.7753 12.935 70.7873C15.4629 70.8131 17.8867 71.7975 19.7167 73.5416C21.5466 75.2858 22.6463 77.6595 22.7933 80.1833C22.8666 81.3969 22.6893 82.6127 22.2723 83.7548C21.8552 84.8969 21.2075 85.941 20.3694 86.8219C19.5314 87.7028 18.5209 88.4016 17.4009 88.875C16.281 89.3484 15.0756 89.5861 13.8598 89.5733Z" fill="#1C2D5E"/>
<path opacity="0.6" d="M13.0005 72.1029C11.955 72.0928 10.9187 72.2981 9.95597 72.7059C8.99328 73.1136 8.12483 73.7152 7.4047 74.4732C6.68457 75.2311 6.12817 76.1292 5.77014 77.1115C5.41212 78.0938 5.26013 79.1392 5.32364 80.1828C5.45292 82.3566 6.40358 84.4 7.98306 85.8992C9.56255 87.3983 11.6528 88.2411 13.8304 88.2568C14.8775 88.27 15.9162 88.0674 16.8816 87.6615C17.8469 87.2556 18.7183 86.6551 19.4414 85.8976C20.1645 85.14 20.7237 84.2416 21.0842 83.2584C21.4447 82.2752 21.5988 81.2282 21.5368 80.1828C21.4073 78.0034 20.4527 75.955 18.867 74.4542C17.2814 72.9533 15.1837 72.1126 13.0005 72.1029Z" fill="white"/>
<path d="M65.037 85.6011H37.2404C36.9662 85.5999 36.6947 85.6547 36.4426 85.7623C36.1904 85.8699 35.9629 86.028 35.7741 86.2268C35.5853 86.4256 35.4392 86.6609 35.3447 86.9183C35.2503 87.1756 35.2095 87.4496 35.2248 87.7233L35.9303 101.992C35.9633 102.563 36.212 103.099 36.6258 103.493C37.0397 103.887 37.5878 104.109 38.1592 104.114H54.8644L55.1727 110.297L61.0533 104.114H65.9558C66.2302 104.116 66.5021 104.062 66.7547 103.955C67.0072 103.848 67.2351 103.69 67.424 103.491C67.613 103.292 67.7591 103.056 67.8532 102.798C67.9474 102.54 67.9876 102.266 67.9713 101.992L67.2659 87.7352C67.2344 87.1631 66.9866 86.6244 66.5727 86.2281C66.1589 85.8319 65.6099 85.6077 65.037 85.6011Z" fill="#FF5C8A"/>
<path d="M27.5061 109.349H46.4759C46.8662 109.354 47.2401 109.507 47.5227 109.776C47.8052 110.046 47.9755 110.412 47.9994 110.802L48.4796 120.547C48.491 120.734 48.4638 120.921 48.3996 121.097C48.3355 121.273 48.2358 121.434 48.1067 121.57C47.9777 121.706 47.8221 121.813 47.6496 121.886C47.4771 121.959 47.2915 121.996 47.1043 121.994H35.7046L35.9121 126.22L31.4779 121.994H28.1286C27.7394 121.99 27.3662 121.838 27.0845 121.57C26.8028 121.301 26.6335 120.936 26.611 120.547L26.1308 110.802C26.1186 110.614 26.1452 110.426 26.2089 110.25C26.2727 110.073 26.3722 109.911 26.5014 109.775C26.6305 109.639 26.7864 109.531 26.9593 109.457C27.1322 109.384 27.3184 109.347 27.5061 109.349Z" fill="white"/>
</svg>
