<svg width="219" height="201" viewBox="0 0 219 201" fill="none" xmlns="http://www.w3.org/2000/svg">
<path d="M153.4 191.314H148.307V191.46H153.4V191.314Z" fill="#B0B6C7"/>
<path d="M91.2306 187.739H36.3232V187.885H91.2306V187.739Z" fill="#B0B6C7"/>
<path d="M85.499 0.316557L85.9913 1.31882C86.0201 1.37746 86.063 1.428 86.1162 1.46587C86.1695 1.50373 86.2313 1.52773 86.2961 1.53568L87.4039 1.69979C87.4771 1.71109 87.5458 1.74261 87.6022 1.7908C87.6585 1.83899 87.7003 1.90194 87.7228 1.97258C87.7454 2.04322 87.7478 2.11875 87.7297 2.19066C87.7117 2.26258 87.6739 2.32804 87.6207 2.37969L86.8236 3.16508C86.7766 3.20951 86.7413 3.26486 86.7209 3.32621C86.7004 3.38756 86.6955 3.45302 86.7064 3.51675L86.8939 4.61865C86.9081 4.69315 86.9006 4.77014 86.8725 4.84056C86.8444 4.91098 86.7968 4.97192 86.7352 5.01622C86.6737 5.06053 86.6008 5.08637 86.5251 5.09069C86.4494 5.09502 86.374 5.07766 86.3078 5.04065L85.3173 4.51901C85.26 4.49015 85.1968 4.47512 85.1327 4.47512C85.0685 4.47512 85.0053 4.49015 84.948 4.51901L83.9516 5.04065C83.8855 5.07766 83.8101 5.09502 83.7344 5.09069C83.6587 5.08637 83.5858 5.06053 83.5243 5.01622C83.4627 4.97192 83.4151 4.91098 83.387 4.84056C83.3589 4.77014 83.3514 4.69315 83.3655 4.61865L83.5589 3.51675C83.5684 3.45305 83.5627 3.38802 83.5423 3.32692C83.522 3.26583 83.4875 3.21038 83.4417 3.16508L82.6388 2.37969C82.5854 2.32766 82.5478 2.26173 82.53 2.18938C82.5123 2.11704 82.5152 2.04116 82.5384 1.97037C82.5616 1.89958 82.6041 1.83671 82.6612 1.78888C82.7183 1.74105 82.7877 1.71019 82.8615 1.69979L83.9692 1.53568C84.0337 1.52674 84.0951 1.50236 84.1482 1.46461C84.2013 1.42685 84.2444 1.37684 84.274 1.31882L84.7663 0.316557C84.7989 0.246901 84.8507 0.187979 84.9156 0.146699C84.9805 0.10542 85.0558 0.0834961 85.1327 0.0834961C85.2096 0.0834961 85.2849 0.10542 85.3498 0.146699C85.4146 0.187979 85.4664 0.246901 85.499 0.316557Z" fill="#B0B6C7"/>
<path d="M12.5214 82.8708L13.0196 83.879C13.0483 83.9365 13.0904 83.9863 13.1425 84.0241C13.1945 84.0619 13.2549 84.0865 13.3186 84.0958L14.4263 84.2599C14.5001 84.2703 14.5695 84.3012 14.6266 84.349C14.6837 84.3969 14.7262 84.4597 14.7494 84.5305C14.7726 84.6013 14.7755 84.6772 14.7578 84.7495C14.74 84.8219 14.7024 84.8878 14.649 84.9398L13.8461 85.7194C13.8001 85.7656 13.7659 85.8222 13.7465 85.8845C13.7271 85.9467 13.7231 86.0127 13.7347 86.0769L13.9223 87.1788C13.9364 87.2533 13.9289 87.3303 13.9008 87.4007C13.8727 87.4711 13.8251 87.5321 13.7635 87.5764C13.702 87.6207 13.6291 87.6465 13.5534 87.6508C13.4777 87.6552 13.4023 87.6378 13.3361 87.6008L12.3456 87.0792C12.2873 87.0502 12.2231 87.0352 12.1581 87.0352C12.093 87.0352 12.0288 87.0502 11.9705 87.0792L10.98 87.6008C10.9138 87.6378 10.8384 87.6552 10.7627 87.6508C10.687 87.6465 10.6141 87.6207 10.5526 87.5764C10.491 87.5321 10.4434 87.4711 10.4153 87.4007C10.3872 87.3303 10.3797 87.2533 10.3939 87.1788L10.5814 86.0769C10.593 86.0127 10.589 85.9467 10.5696 85.8845C10.5502 85.8222 10.5161 85.7656 10.47 85.7194L9.67293 84.9398C9.61961 84.8878 9.58195 84.8219 9.56421 84.7495C9.54646 84.6772 9.54935 84.6013 9.57254 84.5305C9.59573 84.4597 9.63829 84.3969 9.69541 84.349C9.75252 84.3012 9.82189 84.2703 9.89565 84.2599L11.0034 84.0958C11.067 84.0865 11.1275 84.0619 11.1795 84.0241C11.2316 83.9863 11.2737 83.9365 11.3023 83.879L11.8005 82.8708C11.8328 82.8025 11.8838 82.7447 11.9476 82.7043C12.0114 82.6638 12.0854 82.6423 12.161 82.6423C12.2366 82.6423 12.3106 82.6638 12.3744 82.7043C12.4382 82.7447 12.4892 82.8025 12.5214 82.8708Z" fill="#606C8E"/>
<path d="M3.31955 27.4829L3.81188 28.4851C3.84019 28.5435 3.88212 28.5942 3.93415 28.633C3.98618 28.6718 4.04676 28.6974 4.1108 28.7079L5.21856 28.8661C5.2923 28.8777 5.36138 28.9095 5.41816 28.958C5.47494 29.0065 5.5172 29.0697 5.54025 29.1407C5.56331 29.2117 5.56627 29.2877 5.5488 29.3602C5.53134 29.4328 5.49412 29.4991 5.44128 29.5519L4.63831 30.3314C4.59292 30.377 4.55871 30.4324 4.53837 30.4935C4.51803 30.5545 4.51211 30.6194 4.52108 30.6831L4.7145 31.7908C4.7286 31.8653 4.72116 31.9423 4.69304 32.0127C4.66493 32.0832 4.61731 32.1441 4.55578 32.1884C4.49424 32.2327 4.42134 32.2585 4.34564 32.2629C4.26993 32.2672 4.19457 32.2498 4.12838 32.2128L3.13785 31.6912C3.08045 31.6594 3.01591 31.6427 2.95029 31.6427C2.88467 31.6427 2.82013 31.6594 2.76273 31.6912L1.7722 32.2128C1.70601 32.2498 1.63065 32.2672 1.55494 32.2629C1.47924 32.2585 1.40634 32.2327 1.34481 32.1884C1.28327 32.1441 1.23565 32.0832 1.20754 32.0127C1.17942 31.9423 1.17198 31.8653 1.18608 31.7908L1.37364 30.6831C1.38565 30.6193 1.3812 30.5536 1.36068 30.492C1.34017 30.4305 1.30428 30.3752 1.25642 30.3314L0.459298 29.5519C0.404358 29.5005 0.365087 29.4346 0.346021 29.3618C0.326954 29.289 0.328873 29.2124 0.351557 29.1406C0.37424 29.0689 0.41676 29.0051 0.474202 28.9565C0.531644 28.9079 0.601663 28.8766 0.676162 28.8661L1.78392 28.7079C1.84868 28.6974 1.91005 28.6718 1.96302 28.633C2.01598 28.5943 2.05905 28.5437 2.0887 28.4851L2.58104 27.4829C2.61289 27.4116 2.66471 27.351 2.73024 27.3085C2.79576 27.266 2.87219 27.2434 2.95029 27.2434C3.02839 27.2434 3.10482 27.266 3.17034 27.3085C3.23587 27.351 3.28769 27.4116 3.31955 27.4829Z" fill="#606C8E"/>
<path d="M47.7295 52.6743L48.0225 53.2604C48.0405 53.2947 48.0664 53.3242 48.098 53.3466C48.1295 53.369 48.1659 53.3837 48.2042 53.3894L48.8665 53.4831C48.9106 53.4902 48.9519 53.5094 48.9857 53.5386C49.0195 53.5678 49.0445 53.6058 49.0579 53.6484C49.0713 53.691 49.0726 53.7365 49.0615 53.7798C49.0505 53.8231 49.0276 53.8624 48.9955 53.8934L48.5207 54.3623C48.4925 54.3889 48.4712 54.4221 48.459 54.4589C48.4467 54.4958 48.4437 54.5351 48.4504 54.5733L48.5618 55.2298C48.5711 55.274 48.5675 55.32 48.5513 55.3623C48.5351 55.4045 48.507 55.4411 48.4705 55.4678C48.4339 55.4944 48.3905 55.5099 48.3453 55.5124C48.3001 55.5149 48.2552 55.5043 48.216 55.4818L47.6298 55.1711C47.5953 55.1536 47.5572 55.1445 47.5185 55.1445C47.4798 55.1445 47.4416 55.1536 47.4071 55.1711L46.821 55.4818C46.7817 55.5043 46.7368 55.5149 46.6917 55.5124C46.6465 55.5099 46.603 55.4944 46.5665 55.4678C46.5299 55.4411 46.5019 55.4045 46.4857 55.3623C46.4695 55.32 46.4658 55.274 46.4752 55.2298L46.5866 54.5733C46.5932 54.5351 46.5903 54.4958 46.578 54.4589C46.5657 54.4221 46.5445 54.3889 46.5162 54.3623L46.0356 53.8934C46.0033 53.862 45.9806 53.8222 45.9698 53.7785C45.9591 53.7348 45.9609 53.6889 45.9749 53.6462C45.989 53.6034 46.0147 53.5655 46.0493 53.5367C46.0839 53.5078 46.1258 53.4893 46.1704 53.4831L46.8327 53.3894C46.871 53.3837 46.9074 53.369 46.939 53.3466C46.9706 53.3242 46.9964 53.2947 47.0144 53.2604L47.3075 52.6743C47.3294 52.6379 47.3603 52.6078 47.3973 52.5868C47.4342 52.5659 47.476 52.5549 47.5185 52.5549C47.561 52.5549 47.6027 52.5659 47.6397 52.5868C47.6767 52.6078 47.7076 52.6379 47.7295 52.6743Z" fill="#606C8E"/>
<path d="M29.7644 129.473L30.0575 130.059C30.0752 130.094 30.1008 130.124 30.1324 130.148C30.1639 130.171 30.2005 130.187 30.2392 130.194L30.9015 130.287C30.9461 130.293 30.9881 130.312 31.0226 130.341C31.0572 130.37 31.083 130.408 31.097 130.45C31.1111 130.493 31.1128 130.539 31.1021 130.583C31.0914 130.626 31.0686 130.666 31.0363 130.698L30.5557 131.161C30.5273 131.188 30.5062 131.223 30.4939 131.26C30.4817 131.298 30.4787 131.338 30.4854 131.378L30.6026 132.034C30.6103 132.078 30.6053 132.124 30.5882 132.166C30.571 132.208 30.5425 132.244 30.5058 132.27C30.4691 132.297 30.4257 132.312 30.3806 132.315C30.3355 132.318 30.2906 132.308 30.2509 132.286L29.6648 131.975C29.6303 131.958 29.5921 131.949 29.5534 131.949C29.5147 131.949 29.4766 131.958 29.4421 131.975L28.856 132.286C28.8165 132.306 28.7722 132.315 28.7281 132.311C28.684 132.307 28.6417 132.292 28.606 132.266C28.5702 132.24 28.5423 132.204 28.5254 132.163C28.5085 132.122 28.5032 132.078 28.5101 132.034L28.6215 131.378C28.6289 131.339 28.6269 131.299 28.6157 131.261C28.6044 131.223 28.5843 131.189 28.557 131.161L28.0764 130.698C28.0443 130.667 28.0214 130.627 28.0104 130.584C27.9993 130.541 28.0006 130.495 28.014 130.453C28.0274 130.41 28.0524 130.372 28.0862 130.343C28.12 130.314 28.1613 130.294 28.2054 130.287L28.8677 130.194C28.9067 130.188 28.9437 130.172 28.9754 130.149C29.0071 130.125 29.0325 130.094 29.0494 130.059L29.3483 129.473C29.3694 129.436 29.3997 129.406 29.4362 129.385C29.4728 129.364 29.5142 129.353 29.5564 129.353C29.5985 129.353 29.64 129.364 29.6765 129.385C29.713 129.406 29.7433 129.436 29.7644 129.473Z" fill="#B0B6C7"/>
<path d="M213.876 1.23063L214.169 1.81675C214.186 1.85196 214.211 1.88228 214.243 1.90485C214.275 1.92742 214.312 1.94149 214.351 1.94569L215.013 2.04533C215.057 2.05147 215.099 2.07002 215.134 2.09884C215.169 2.12767 215.194 2.16562 215.208 2.20838C215.222 2.25114 215.224 2.29698 215.213 2.34069C215.203 2.3844 215.18 2.42422 215.148 2.45561L214.667 2.91864C214.639 2.94555 214.618 2.97878 214.606 3.01552C214.594 3.05226 214.591 3.09141 214.597 3.12965L214.714 3.79196C214.722 3.83646 214.717 3.88223 214.699 3.92402C214.682 3.96582 214.654 4.00194 214.617 4.02825C214.58 4.05455 214.537 4.06998 214.492 4.07277C214.447 4.07555 214.402 4.06558 214.362 4.04399L213.776 3.73335C213.742 3.71584 213.703 3.70672 213.665 3.70672C213.626 3.70672 213.588 3.71584 213.553 3.73335L212.967 4.04399C212.928 4.06396 212.884 4.07264 212.839 4.06907C212.795 4.0655 212.753 4.04982 212.717 4.02375C212.682 3.99768 212.654 3.96225 212.637 3.92134C212.62 3.88044 212.615 3.83567 212.621 3.79196L212.733 3.12965C212.74 3.09188 212.737 3.05302 212.726 3.01631C212.715 2.9796 212.695 2.94611 212.668 2.91864L212.176 2.46148C212.144 2.43047 212.121 2.39112 212.11 2.34784C212.099 2.30456 212.1 2.25906 212.114 2.21645C212.127 2.17384 212.152 2.1358 212.186 2.10661C212.22 2.07742 212.261 2.05823 212.305 2.0512L212.967 1.95155C213.006 1.94791 213.044 1.93407 213.075 1.91143C213.107 1.8888 213.133 1.85817 213.149 1.82261L213.448 1.2365C213.466 1.19497 213.495 1.15951 213.533 1.13441C213.571 1.1093 213.615 1.09561 213.66 1.09499C213.705 1.09437 213.75 1.10685 213.788 1.13091C213.826 1.15498 213.857 1.18961 213.876 1.23063Z" fill="#B0B6C7"/>
<path d="M208.783 111.848L209.292 112.886C209.321 112.946 209.365 112.998 209.419 113.037C209.474 113.076 209.537 113.101 209.603 113.109L210.775 113.279C210.852 113.289 210.924 113.321 210.983 113.37C211.043 113.42 211.087 113.485 211.111 113.558C211.135 113.632 211.137 113.711 211.118 113.786C211.099 113.861 211.06 113.929 211.004 113.982L210.125 114.791C210.078 114.839 210.042 114.897 210.022 114.961C210.002 115.026 209.997 115.094 210.007 115.16L210.207 116.332C210.217 116.406 210.207 116.481 210.178 116.55C210.149 116.618 210.102 116.678 210.042 116.722C209.982 116.767 209.911 116.794 209.837 116.802C209.763 116.809 209.688 116.797 209.621 116.766L208.595 116.227C208.535 116.195 208.469 116.178 208.402 116.178C208.334 116.178 208.268 116.195 208.208 116.227L207.194 116.754C207.127 116.788 207.051 116.802 206.976 116.795C206.901 116.788 206.83 116.761 206.769 116.716C206.708 116.671 206.661 116.611 206.633 116.541C206.605 116.471 206.596 116.395 206.608 116.321L206.801 115.148C206.814 115.082 206.81 115.013 206.789 114.949C206.769 114.885 206.733 114.826 206.684 114.779L205.852 113.97C205.798 113.916 205.76 113.847 205.743 113.772C205.726 113.698 205.73 113.62 205.754 113.547C205.778 113.474 205.822 113.409 205.881 113.36C205.939 113.311 206.011 113.278 206.086 113.267L207.229 113.097C207.296 113.089 207.359 113.064 207.413 113.025C207.467 112.986 207.511 112.934 207.54 112.874L208.056 111.837C208.093 111.773 208.146 111.72 208.211 111.683C208.275 111.647 208.348 111.628 208.423 111.629C208.497 111.63 208.569 111.651 208.632 111.69C208.696 111.728 208.747 111.783 208.783 111.848Z" fill="#606C8E"/>
<path d="M145.997 14.7058C145.997 14.86 145.951 15.0107 145.865 15.1389C145.78 15.2671 145.658 15.367 145.515 15.426C145.373 15.485 145.216 15.5004 145.065 15.4704C144.914 15.4403 144.775 15.366 144.666 15.257C144.557 15.148 144.483 15.0091 144.452 14.8579C144.422 14.7067 144.438 14.5499 144.497 14.4075C144.556 14.265 144.656 14.1433 144.784 14.0576C144.912 13.972 145.063 13.9263 145.217 13.9263C145.424 13.9263 145.622 14.0084 145.768 14.1546C145.914 14.3008 145.997 14.4991 145.997 14.7058Z" fill="#606C8E"/>
<path d="M168.37 165.794C168.37 165.949 168.324 166.099 168.238 166.228C168.153 166.356 168.031 166.456 167.888 166.515C167.746 166.574 167.589 166.589 167.438 166.559C167.287 166.529 167.148 166.455 167.039 166.346C166.93 166.237 166.856 166.098 166.826 165.947C166.795 165.795 166.811 165.639 166.87 165.496C166.929 165.354 167.029 165.232 167.157 165.146C167.285 165.061 167.436 165.015 167.59 165.015C167.693 165.014 167.794 165.034 167.889 165.073C167.984 165.112 168.07 165.169 168.143 165.242C168.216 165.314 168.273 165.4 168.312 165.495C168.351 165.59 168.37 165.692 168.37 165.794Z" fill="#B0B6C7"/>
<path d="M37.0743 4.98783C37.0743 5.64743 36.8787 6.29222 36.5122 6.84065C36.1458 7.38909 35.6249 7.81655 35.0155 8.06896C34.4062 8.32138 33.7356 8.38743 33.0887 8.25875C32.4417 8.13007 31.8475 7.81244 31.3811 7.34603C30.9147 6.87962 30.5971 6.28538 30.4684 5.63846C30.3397 4.99153 30.4057 4.32097 30.6582 3.71158C30.9106 3.10219 31.338 2.58134 31.8865 2.21488C32.4349 1.84843 33.0797 1.65283 33.7393 1.65283C34.6238 1.65283 35.4721 2.00419 36.0975 2.62963C36.7229 3.25506 37.0743 4.10333 37.0743 4.98783Z" fill="#606C8E"/>
<path d="M68.6307 27.0261C70.6432 27.3797 72.683 27.5543 74.7263 27.5477C73.9265 28.4826 72.8981 29.1942 71.7415 29.6134C70.5848 30.0325 69.3393 30.1449 68.1263 29.9394C66.9133 29.734 65.7741 29.2179 64.82 28.4413C63.8658 27.6646 63.1291 26.6541 62.6816 25.5081C64.6167 26.1863 66.6073 26.6942 68.6307 27.0261Z" fill="#B0B6C7"/>
<path d="M69.6682 20.8717C67.3481 20.4562 64.9901 20.2911 62.6348 20.3793C63.2219 18.8371 64.326 17.5464 65.7586 16.7274C67.1913 15.9085 68.8637 15.6121 70.4906 15.8887C72.1174 16.1654 73.5978 16.998 74.6792 18.2445C75.7606 19.4911 76.3759 21.0742 76.4202 22.7238C74.2421 21.8672 71.9785 21.2463 69.6682 20.8717Z" fill="#B0B6C7"/>
<path d="M80.378 24.772C80.6045 23.4314 75.8383 21.5084 69.7324 20.4768C63.6265 19.4451 58.4931 19.6955 58.2666 21.0361C58.0401 22.3766 62.8063 24.2997 68.9121 25.3313C75.018 26.363 80.1515 26.1125 80.378 24.772Z" fill="#B0B6C7"/>
<path d="M213.43 75.0229C210.702 80.4855 206.924 85.3572 202.312 89.3594C197.701 93.3617 192.346 96.4162 186.553 98.3484C180.761 100.281 174.645 101.053 168.554 100.621C162.463 100.189 156.517 98.5606 151.056 95.83C150.106 95.3611 149.186 94.8629 148.307 94.3354C156.507 91.2941 163.905 86.4202 169.936 80.0854C175.966 73.7506 180.471 66.1223 183.105 57.7821C185.74 49.4419 186.435 40.6103 185.138 31.9606C183.84 23.311 180.585 15.0719 175.62 7.87158C183.2 8.49397 190.511 10.9653 196.915 15.0691C203.318 19.173 208.617 24.7842 212.349 31.4113C216.08 38.0384 218.13 45.4794 218.318 53.0825C218.507 60.6856 216.828 68.2189 213.43 75.0229Z" fill="#B0B6C7"/>
<path d="M192.166 20.2502C193.417 21.174 194.448 22.363 195.185 23.7319C195.923 25.1008 196.349 26.6158 196.433 28.1686C194.81 25.9256 192.848 23.9483 190.618 22.3075C188.398 20.659 185.939 19.3585 183.327 18.4508C184.842 18.0788 186.42 18.0472 187.948 18.3583C189.477 18.6694 190.917 19.3156 192.166 20.2502Z" fill="#606C8E"/>
<path d="M180.426 90.725C179.127 91.5818 177.654 92.1406 176.114 92.3615C174.574 92.5824 173.004 92.4599 171.517 92.0027C174.173 91.2491 176.696 90.0864 178.995 88.5564C181.31 87.0409 183.379 85.1811 185.132 83.041C184.964 84.5899 184.454 86.0822 183.64 87.4108C182.827 88.7393 181.729 89.8712 180.426 90.725Z" fill="#606C8E"/>
<path d="M196.445 46.4734C197.111 47.8795 197.457 49.416 197.457 50.9719C197.457 52.5277 197.111 54.0642 196.445 55.4703C196.082 52.7323 195.29 50.0682 194.101 47.5753C192.93 45.0717 191.385 42.7612 189.518 40.7236C191.025 41.1116 192.428 41.8283 193.626 42.8224C194.823 43.8165 195.786 45.0633 196.445 46.4734Z" fill="#606C8E"/>
<path d="M204 78.3869C203.024 79.5998 201.793 80.5819 200.394 81.2629C198.994 81.9438 197.461 82.3068 195.905 82.3256C198.206 80.7977 200.253 78.9189 201.972 76.7575C203.712 74.6088 205.115 72.2075 206.133 69.6362C206.445 71.1619 206.416 72.7377 206.047 74.2507C205.678 75.7637 204.979 77.1762 204 78.3869Z" fill="#606C8E"/>
<path d="M108.345 34.0124L107.935 33.69C109.781 31.3455 111.721 29.1417 113.702 27.0786L114.071 27.442C112.102 29.4876 110.174 31.7031 108.345 34.0124Z" fill="#FF5C8A"/>
<path d="M106.157 35.9378L104.267 38.321L104.671 38.6416L106.561 36.2583L106.157 35.9378Z" fill="#FF5C8A"/>
<path d="M146.824 61.2024C159.561 40.7294 161.295 20.5553 152.023 14.026C142.751 7.49663 124.341 15.925 109.354 34.8155L66.5264 88.8378L110.438 119.761L146.824 61.2024Z" fill="#FF5C8A"/>
<path opacity="0.1" d="M141.813 57.6738L104.536 115.623L99.9756 106.908L137.001 54.0399C147.469 39.0881 153.336 25.4257 153.359 17.8179C153.358 17.6709 153.409 17.5281 153.503 17.4151C153.597 17.3022 153.728 17.2262 153.873 17.2009C154.018 17.1756 154.167 17.2025 154.294 17.2769C154.421 17.3512 154.518 17.4682 154.566 17.6069C157.204 25.1971 152.632 40.8581 141.813 57.6738Z" fill="white"/>
<path d="M110.412 119.748C116.34 111.328 111.315 97.5808 99.1871 89.0417C87.0597 80.5026 72.4228 80.4055 66.4946 88.8248C60.5665 97.2441 65.5919 110.992 77.7193 119.531C89.8467 128.07 104.484 128.167 110.412 119.748Z" fill="#FF5C8A"/>
<path opacity="0.5" d="M110.412 119.748C116.34 111.328 111.315 97.5808 99.1871 89.0417C87.0597 80.5026 72.4228 80.4055 66.4946 88.8248C60.5665 97.2441 65.5919 110.992 77.7193 119.531C89.8467 128.07 104.484 128.167 110.412 119.748Z" fill="white"/>
<path opacity="0.1" d="M105.854 79.501C96.2187 72.7137 85.2877 70.7737 78.307 73.9446L67.4346 87.648C73.8818 80.4505 87.6614 80.9428 99.1845 89.0547C110.707 97.1665 115.824 109.997 111.206 118.478L120.332 103.825C121.117 96.1291 115.596 86.3585 105.854 79.501Z" fill="black"/>
<path opacity="0.2" d="M121.288 35.3198C118.615 39.5516 116.599 47.47 124.541 53.0557C132.482 58.6414 139.258 54.0873 142.335 50.1251L121.288 35.3198Z" fill="black"/>
<path d="M144.209 45.2486C143.301 52.8095 134.562 58.3248 125.389 51.8658C116.217 45.4068 118.461 35.3198 125.272 31.9379C129.469 29.8396 134.814 30.7657 138.471 33.3094C142.129 35.8532 144.772 40.5597 144.209 45.2486Z" fill="white"/>
<path d="M126.638 50.0782C123.068 47.5696 121.24 44.2874 121.498 40.8528C121.615 39.3704 122.114 37.9436 122.945 36.7111C123.777 35.4786 124.914 34.4824 126.245 33.8194C129.434 32.2251 133.947 32.7233 137.223 35.0268C140.499 37.3302 142.498 41.4213 142.059 44.9614C141.884 46.4339 141.332 47.8364 140.456 49.0327C139.58 50.2291 138.41 51.1788 137.059 51.7897C133.929 53.2081 130.207 52.5927 126.638 50.0782Z" fill="#FF5C8A"/>
<path opacity="0.3" d="M126.638 50.0782C123.068 47.5696 121.24 44.2874 121.498 40.8528C121.615 39.3704 122.114 37.9436 122.945 36.7111C123.777 35.4786 124.914 34.4824 126.245 33.8194C129.434 32.2251 133.947 32.7233 137.223 35.0268C140.499 37.3302 142.498 41.4213 142.059 44.9614C141.884 46.4339 141.332 47.8364 140.456 49.0327C139.58 50.2291 138.41 51.1788 137.059 51.7897C133.929 53.2081 130.207 52.5927 126.638 50.0782Z" fill="black"/>
<path d="M126.638 50.0779C123.068 47.5693 121.175 44.3808 121.316 41.1103C121.377 39.7198 121.821 38.3731 122.598 37.2189C123.376 36.0647 124.458 35.1477 125.723 34.5692C128.789 33.1508 133.214 33.7721 136.49 36.0814C139.767 38.3907 141.842 42.347 141.537 45.7113C141.419 47.1001 140.918 48.4291 140.09 49.5506C139.263 50.6721 138.14 51.5424 136.848 52.0648C133.841 53.3015 130.207 52.5923 126.638 50.0779Z" fill="#FF5C8A"/>
<path opacity="0.2" d="M126.638 50.0779C123.068 47.5693 121.175 44.3808 121.316 41.1103C121.377 39.7198 121.821 38.3731 122.598 37.2189C123.376 36.0647 124.458 35.1477 125.723 34.5692C128.789 33.1508 133.214 33.7721 136.49 36.0814C139.767 38.3907 141.842 42.347 141.537 45.7113C141.419 47.1001 140.918 48.4291 140.09 49.5506C139.263 50.6721 138.14 51.5424 136.848 52.0648C133.841 53.3015 130.207 52.5923 126.638 50.0779Z" fill="white"/>
<path opacity="0.3" d="M138.976 38.3965L122.477 45.6761C121.658 44.2971 121.252 42.7129 121.304 41.1103C121.336 40.3554 121.484 39.6099 121.744 38.9006L132.394 34.2117C134.978 34.8667 137.283 36.3386 138.964 38.4083L138.976 38.3965Z" fill="white"/>
<path opacity="0.3" d="M141.344 43.0912L126.205 49.7612C125.294 49.0934 124.464 48.3224 123.731 47.4636L140.201 40.1958C140.716 41.1027 141.101 42.0773 141.344 43.0912Z" fill="white"/>
<path opacity="0.1" d="M157.849 30.0387C157.345 25.9945 154.238 21.3173 149.327 17.8593C144.415 14.4012 138.97 13.0531 134.99 13.9381C141.76 11.1775 147.826 11.072 152.023 14.0261C156.219 16.9801 158.165 22.7357 157.849 30.0387Z" fill="black"/>
<path opacity="0.5" d="M99.1776 103.261C101.024 100.639 99.5285 96.4047 95.8363 93.805C92.144 91.2052 87.6537 91.224 85.8069 93.847C83.9601 96.4699 85.456 100.704 89.1482 103.303C92.8405 105.903 97.3307 105.884 99.1776 103.261Z" fill="#FF5C8A"/>
<path opacity="0.5" d="M81.7648 100.8C79.9185 103.42 75.4289 103.444 71.7364 100.841C68.0438 98.2388 66.5434 94.0071 68.3896 91.3872C70.2359 88.7672 74.7314 88.7438 78.4239 91.3461C82.1165 93.9485 83.5876 98.1802 81.7648 100.8Z" fill="#FF5C8A"/>
<path opacity="0.5" d="M107.385 118.859C105.539 121.485 101.049 121.502 97.3567 118.9C93.6642 116.297 92.1696 112.066 94.0158 109.446C95.8621 106.826 100.352 106.802 104.044 109.405C107.737 112.007 109.231 116.239 107.385 118.859Z" fill="#FF5C8A"/>
<path opacity="0.5" d="M89.9701 116.391C88.1238 119.011 83.6342 119.028 79.9417 116.432C76.2491 113.836 74.7545 109.598 76.6008 106.972C78.4471 104.346 82.9367 104.335 86.6292 106.931C90.3218 109.528 91.7929 113.765 89.9701 116.391Z" fill="#FF5C8A"/>
<path opacity="0.5" d="M99.1849 103.274C98.9896 103.551 98.7613 103.803 98.505 104.024C99.5307 101.41 97.9833 97.7821 94.6835 95.4611C91.3837 93.1401 87.4508 92.9057 85.335 94.7461C85.4593 94.4341 85.6186 94.1372 85.8097 93.861C87.656 91.2411 92.1515 91.2176 95.844 93.82C99.5365 96.4224 101.025 100.648 99.1849 103.274Z" fill="#FF5C8A"/>
<path opacity="0.5" d="M81.7649 100.801C81.5704 101.076 81.3442 101.328 81.0909 101.551C82.1166 98.9309 80.5751 95.3087 77.2694 92.9819C73.9637 90.655 70.0368 90.4264 67.9209 92.2727C68.044 91.9601 68.2033 91.663 68.3957 91.3876C70.2419 88.7618 74.7316 88.7442 78.4241 91.3466C82.1166 93.949 83.5878 98.1748 81.7649 100.801Z" fill="#FF5C8A"/>
<path opacity="0.5" d="M107.384 118.864C107.189 119.138 106.963 119.388 106.71 119.609C107.736 116.989 106.188 113.367 102.889 111.046C99.5888 108.725 95.6559 108.484 93.54 110.336C93.6618 110.021 93.8212 109.722 94.0148 109.445C95.8611 106.82 100.351 106.802 104.043 109.404C107.736 112.007 109.236 116.239 107.384 118.864Z" fill="#FF5C8A"/>
<path opacity="0.5" d="M89.971 116.391C89.7796 116.667 89.553 116.918 89.297 117.135C90.3227 114.521 88.7753 110.893 85.4755 108.572C82.1757 106.251 78.2428 106.017 76.127 107.863C76.2476 107.547 76.4071 107.248 76.6017 106.972C78.448 104.346 82.9376 104.335 86.6301 106.931C90.3227 109.528 91.7938 113.765 89.971 116.391Z" fill="#FF5C8A"/>
<path d="M95.5861 54.7609C95.5861 54.7609 87.6735 65.0296 80.7808 73.8683C79.802 75.1005 78.5195 76.0569 77.0593 76.6437C75.5991 77.2305 74.0114 77.4273 72.4521 77.215C66.4327 76.4706 56.627 80.7317 56.627 80.7317C56.627 80.7317 75.1775 50.2595 95.5861 54.7609Z" fill="#FF5C8A"/>
<path opacity="0.3" d="M95.5861 54.7609C95.5861 54.7609 87.6735 65.0296 80.7808 73.8683C79.802 75.1005 78.5195 76.0569 77.0593 76.6437C75.5991 77.2305 74.0114 77.4273 72.4521 77.215C66.4327 76.4706 56.627 80.7317 56.627 80.7317C56.627 80.7317 75.1775 50.2595 95.5861 54.7609Z" fill="black"/>
<path d="M132.692 80.896C132.692 80.896 125.723 91.8036 119.692 101.269C118.862 102.606 118.394 104.136 118.335 105.708C118.275 107.28 118.626 108.841 119.352 110.237C122.083 115.659 121.368 126.349 121.368 126.349C121.368 126.349 143.81 98.585 132.692 80.896Z" fill="#FF5C8A"/>
<path opacity="0.3" d="M132.692 80.896C132.692 80.896 125.723 91.8036 119.692 101.269C118.862 102.606 118.394 104.136 118.335 105.708C118.275 107.28 118.626 108.841 119.352 110.237C122.083 115.659 121.368 126.349 121.368 126.349C121.368 126.349 143.81 98.585 132.692 80.896Z" fill="black"/>
<path d="M158.26 159.312C165.58 141.401 133.93 136.325 121.405 140.82C108.879 145.316 96.1078 148.657 95.6155 136.671C95.1231 124.684 104.771 117.253 100.17 114.486C97.62 112.95 96.8932 115.658 95.6331 119.609C91.7764 131.712 69.9319 134.596 79.9838 152.115C90.0357 169.634 84.6727 165.83 67.7633 172.857C50.8538 179.885 59.5576 200.123 75.9161 200.123H174.43C219.585 200.123 176.834 113.695 158.26 159.312Z" fill="#FF5C8A"/>
<path opacity="0.6" d="M158.26 159.312C165.58 141.401 133.93 136.325 121.405 140.82C108.879 145.316 96.1078 148.657 95.6155 136.671C95.1231 124.684 104.771 117.253 100.17 114.486C97.62 112.95 96.8932 115.658 95.6331 119.609C91.7764 131.712 69.9319 134.596 79.9838 152.115C90.0357 169.634 84.6727 165.83 67.7633 172.857C50.8538 179.885 59.5576 200.123 75.9161 200.123H174.43C219.585 200.123 176.834 113.695 158.26 159.312Z" fill="white"/>
<path d="M75.0543 96.8794C73.7414 92.3194 66.6377 98.0516 59.6395 104.997C52.6413 111.943 49.189 127.797 42.4194 136.061C35.6498 144.325 16.2669 151.793 23.8454 164.23C35.0226 182.558 9.33317 200.141 39.7584 200.141H102.162C113.574 200.141 125.947 186.186 108.176 176.697C90.4047 167.207 63.7833 189.333 56.5975 168.227C53.034 157.753 65.9754 162.56 59.9794 145.41C53.9835 128.26 54.382 123.589 57.4357 115.946C64.8676 97.319 77.0764 103.807 75.0543 96.8794Z" fill="#FF5C8A"/>
<path opacity="0.6" d="M75.0543 96.8794C73.7414 92.3194 66.6377 98.0516 59.6395 104.997C52.6413 111.943 49.189 127.797 42.4194 136.061C35.6498 144.325 16.2669 151.793 23.8454 164.23C35.0226 182.558 9.33317 200.141 39.7584 200.141H102.162C113.574 200.141 125.947 186.186 108.176 176.697C90.4047 167.207 63.7833 189.333 56.5975 168.227C53.034 157.753 65.9754 162.56 59.9794 145.41C53.9835 128.26 54.382 123.589 57.4357 115.946C64.8676 97.319 77.0764 103.807 75.0543 96.8794Z" fill="white"/>
<path d="M87.989 98.9834C89.5363 96.1584 94.8465 97.8522 94.7293 101.551C94.6121 105.249 80.8618 110.096 83.4173 122.868C85.9727 135.639 110.519 136.553 116.281 149.348C122.042 162.143 99.723 163.937 106.381 171.937C113.04 179.938 133.589 161.563 148.23 166.287C162.871 171.011 177.501 200.124 150.645 200.124H67.8911C49.8973 200.124 36.7566 162.97 54.047 147.684C71.3374 132.398 57.3879 137.362 63.841 127.568C70.2941 117.774 82.0516 109.815 87.989 98.9834Z" fill="#FF5C8A"/>
<path opacity="0.8" d="M87.989 98.9834C89.5363 96.1584 94.8465 97.8522 94.7293 101.551C94.6121 105.249 80.8618 110.096 83.4173 122.868C85.9727 135.639 110.519 136.553 116.281 149.348C122.042 162.143 99.723 163.937 106.381 171.937C113.04 179.938 133.589 161.563 148.23 166.287C162.871 171.011 177.501 200.124 150.645 200.124H67.8911C49.8973 200.124 36.7566 162.97 54.047 147.684C71.3374 132.398 57.3879 137.362 63.841 127.568C70.2941 117.774 82.0516 109.815 87.989 98.9834Z" fill="white"/>
</svg>
