<svg width="336" height="117" viewBox="0 0 336 117" fill="none" xmlns="http://www.w3.org/2000/svg">
<mask id="mask0_1237:1673" style="mask-type:alpha" maskUnits="userSpaceOnUse" x="0" y="0" width="328" height="116">
<rect width="328" height="116" rx="8" fill="white"/>
</mask>
<g mask="url(#mask0_1237:1673)">
<path d="M269.489 94.4399C269.104 94.8046 269.087 95.413 269.452 95.7986C269.816 96.1841 270.425 96.2009 270.81 95.836L272.423 94.3094C272.808 93.9452 272.825 93.3381 272.461 92.9528C272.097 92.5669 271.489 92.5496 271.103 92.9141L269.489 94.4399Z" fill="#EEC1BB"/>
<path opacity="0.2" d="M271.103 92.9129C271.489 92.5489 272.097 92.5665 272.461 92.9522C272.825 93.3378 272.807 93.9453 272.422 94.3095L272.265 94.4581C271.879 94.8231 271.27 94.8054 270.906 94.4187C270.542 94.0327 270.56 93.4252 270.946 93.0613L271.103 92.9129Z" fill="black"/>
<path d="M-nan -nanL270.587 96.0256L268.648 94.9721C268.617 94.9531 268.58 94.9456 268.543 94.9508C268.506 94.956 268.473 94.9737 268.448 95.0007L267.395 96.216C267.372 96.2448 267.356 96.2778 267.346 96.313C267.337 96.3482 267.334 96.3849 267.339 96.421C267.344 96.4571 267.357 96.4918 267.376 96.5231C267.395 96.5543 267.42 96.5816 267.45 96.6032C267.464 96.6156 267.481 96.6253 267.498 96.6317C268.174 96.984 268.539 97.1426 269.382 97.5996C269.899 97.8788 272.082 98.8689 272.864 98.8689C273.646 98.8689 273.691 98.1454 273.368 98.0502C271.727 97.5583 271.055 96.8443 270.813 96.2668C270.766 96.1648 270.686 96.0803 270.587 96.0256L-nan -nanZ" fill="#263238"/>
<path d="M271.01 96.6061C271.12 96.6759 271.248 96.7103 271.379 96.7044C271.42 96.6973 271.459 96.6795 271.492 96.6527C271.505 96.642 271.516 96.6299 271.527 96.6169C271.557 96.5779 271.581 96.5303 271.581 96.4807C271.581 96.4312 271.549 96.387 271.507 96.3604C271.288 96.2207 270.699 96.2288 270.626 96.2316C270.618 96.2313 270.61 96.2337 270.604 96.2383C270.591 96.2473 270.585 96.2637 270.584 96.2792C270.584 96.2803 270.583 96.2813 270.583 96.2824C270.583 96.3 270.597 96.3137 270.611 96.3252C270.734 96.4311 270.868 96.5251 271.01 96.6061ZM-nan -nanL271.43 96.4189C271.449 96.4279 271.466 96.4409 271.479 96.4569C271.485 96.4652 271.488 96.4752 271.488 96.4855C271.488 96.5058 271.477 96.5244 271.467 96.5421C271.458 96.5577 271.446 96.5717 271.433 96.5835C271.422 96.5928 271.409 96.6005 271.396 96.6065C271.371 96.6182 271.342 96.6173 271.314 96.6128C271.255 96.603 271.197 96.588 271.14 96.5682C270.962 96.5052 271.037 96.3117 271.221 96.356C271.292 96.373 271.362 96.394 271.43 96.4189L-nan -nanZ" fill="#1C2D5E"/>
<path d="M-nan -nanL270.582 96.3152H270.605C270.824 96.3152 271.344 96.1597 271.399 95.9661C271.407 95.9332 271.404 95.8987 271.389 95.8681C271.36 95.8074 271.292 95.7717 271.226 95.7566C271.193 95.749 271.158 95.7479 271.125 95.7535C270.884 95.7893 270.648 96.1211 270.583 96.2251C270.571 96.2446 270.555 96.2661 270.561 96.2883C270.564 96.2996 270.572 96.3092 270.582 96.3152L-nan -nanZM271.267 95.849C271.267 95.8523 271.27 95.855 271.273 95.855H271.282C271.285 95.855 271.288 95.856 271.29 95.8579C271.334 95.8913 271.328 95.9156 271.325 95.9249C271.318 95.9488 271.297 95.9739 271.267 95.9991C271.088 96.1451 270.928 95.8598 271.157 95.8265C271.194 95.82 271.231 95.8262 271.264 95.8438C271.266 95.8449 271.267 95.8469 271.267 95.849Z" fill="#1C2D5E"/>
<path d="M247.776 97.6067C247.338 97.905 247.226 98.5009 247.523 98.9385C247.821 99.3772 248.419 99.4905 248.857 99.1914L250.703 97.9313C251.14 97.6329 251.253 97.037 250.956 96.5994C250.657 96.1607 250.06 96.0474 249.622 96.3465L247.776 97.6067Z" fill="#EEC1BB"/>
<path d="M248.332 99.6347L247.186 97.7719C247.168 97.7403 247.14 97.7157 247.105 97.7024C247.071 97.689 247.033 97.6878 246.998 97.6989L245.467 98.2384C245.399 98.2671 245.344 98.3213 245.317 98.3891C245.289 98.4569 245.289 98.5328 245.318 98.6002C245.326 98.6181 245.336 98.6351 245.348 98.6509C245.755 99.2856 245.994 99.6029 246.491 100.409C246.798 100.904 248.19 102.83 248.869 103.22C249.547 103.611 249.951 102.995 249.718 102.751C248.542 101.523 248.323 100.577 248.407 99.9583C248.42 99.8453 248.394 99.7311 248.332 99.6347Z" fill="#263238"/>
<path opacity="0.2" d="M249.622 96.3452C250.06 96.0468 250.657 96.1602 250.955 96.5986C251.253 97.0365 251.14 97.6329 250.702 97.931L250.517 98.0567C250.079 98.3551 249.482 98.2416 249.184 97.8033C248.886 97.3653 249 96.769 249.437 96.4709L249.622 96.3452Z" fill="black"/>
<path d="M248.407 100.342C248.467 100.457 248.562 100.55 248.679 100.608C248.718 100.622 248.761 100.626 248.802 100.619C248.844 100.611 248.882 100.593 248.915 100.567C248.935 100.553 248.952 100.534 248.964 100.512C248.975 100.489 248.98 100.465 248.979 100.44C248.952 100.218 248.412 99.9066 248.28 99.8382C248.266 99.8308 248.252 99.8203 248.236 99.8203C248.22 99.8203 248.208 99.8345 248.207 99.8503C248.207 99.8512 248.207 99.852 248.207 99.8529C248.207 99.8705 248.216 99.8868 248.221 99.9037C248.269 100.055 248.331 100.202 248.407 100.342ZM248.848 100.363C248.863 100.378 248.876 100.395 248.882 100.414C248.885 100.423 248.888 100.433 248.889 100.443C248.89 100.453 248.889 100.463 248.885 100.472C248.881 100.48 248.874 100.488 248.866 100.494C248.845 100.513 248.818 100.526 248.79 100.531C248.773 100.534 248.756 100.534 248.74 100.532C248.716 100.528 248.694 100.515 248.675 100.501C248.471 100.345 248.667 100.169 248.842 100.356C248.844 100.359 248.846 100.361 248.848 100.363Z" fill="#1C2D5E"/>
<path d="M-nan -nanL248.207 99.8887H248.222C248.225 99.8887 248.227 99.8894 248.23 99.8908C248.42 100.004 248.947 100.116 249.092 99.9743C249.115 99.9499 249.13 99.9185 249.132 99.8851C249.135 99.8517 249.127 99.8183 249.108 99.7903C249.092 99.7589 249.069 99.7311 249.041 99.7087C249.013 99.6864 248.981 99.6698 248.946 99.6602C248.715 99.5721 248.323 99.7562 248.227 99.8094C248.213 99.8173 248.197 99.8247 248.19 99.8395C248.187 99.8469 248.186 99.8553 248.187 99.8633C248.188 99.8688 248.19 99.8741 248.194 99.8785C248.197 99.883 248.202 99.8865 248.207 99.8887L-nan -nanZM249.011 99.8252C249.015 99.8252 249.018 99.8279 249.018 99.8313V99.8381C249.018 99.8401 249.018 99.842 249.019 99.8438C249.023 99.8535 249.026 99.8621 249.028 99.8697C249.035 99.9049 249.003 99.9392 248.969 99.95C248.948 99.9564 248.924 99.9608 248.897 99.9633C248.665 99.9851 248.657 99.7293 248.889 99.749C248.893 99.7494 248.897 99.7498 248.902 99.7502C248.914 99.7514 248.927 99.7541 248.938 99.7597C248.966 99.7736 248.99 99.7953 249.006 99.8221C249.007 99.824 249.009 99.8252 249.011 99.8252Z" fill="#1C2D5E"/>
<path d="M249.708 96.0257C249.538 96.156 249.502 96.391 249.619 96.57L249.793 96.8366C250.369 97.6939 251.509 97.9565 252.397 97.4305C255.085 95.839 260.339 92.7052 261.155 92.0417C261.696 91.6016 263.378 88.8133 264.951 86.084C266.83 82.8257 270.685 81.2299 274.205 82.5569C274.478 82.6597 274.745 82.7626 275.004 82.8645C276.661 83.5151 277.953 84.1338 277.934 84.4258C277.892 85.0704 273.599 89.9389 271.623 92.1492C271.113 92.7191 271.237 93.6092 271.883 94.0183C272.292 94.2773 272.809 94.2765 273.208 94.0025C275.683 92.3045 284.332 86.1345 284.033 83.0359C283.773 80.3407 277.093 77.3032 273.712 75.9325C272.557 75.4643 271.756 74.3757 271.706 73.1306C271.633 71.3393 270.039 69.9963 268.261 70.2278L264.918 70.6632L264.57 70.7076C264.221 70.7529 263.92 70.9765 263.784 71.3011C261.419 76.9444 258.695 87.8156 258.348 88.7383C258.029 89.5844 251.219 94.8617 249.708 96.0257Z" fill="#1C2D5E"/>
<path d="M249.745 96.4754C249.675 96.525 249.657 96.6203 249.704 96.6919C249.754 96.7674 249.853 96.789 249.926 96.7368C252.488 94.9186 259.196 90.0552 259.444 88.8016C259.696 87.5259 264.248 72.8494 264.92 70.6789C264.933 70.639 264.945 70.6036 264.954 70.5726C264.983 70.4837 264.932 70.392 264.842 70.3664C264.752 70.3408 264.658 70.3915 264.63 70.4808L264.555 70.7233C263.734 73.3635 259.386 87.4181 259.111 88.7413C258.939 89.6803 253.707 93.6649 249.745 96.4754Z" fill="white"/>
<path d="M287.643 59.7866C287.476 59.4295 287.652 59.0054 288.023 58.8721L289.446 58.3614C289.873 58.208 290.135 57.786 290.38 57.4039C290.59 57.1405 293.081 56.0965 293.071 56.4519C293.061 56.8073 293.278 57.7212 292.696 58.2321C292.419 58.4758 291.929 58.7757 291.46 58.9798C290.821 59.2583 289.849 59.3642 289.242 59.7083L288.579 60.0841C288.24 60.2765 287.809 60.1395 287.643 59.7866Z" fill="#EEC1BB"/>
<path d="M276.659 62.4919C276.404 63.6021 277.385 64.602 278.498 64.3639C278.863 64.286 279.247 64.2035 279.634 64.1198L282.079 63.5867C284.179 63.1107 288.925 60.956 289.089 60.3531C289.254 59.7502 288.689 58.4935 287.842 58.5633C287.197 58.6166 284.109 59.5755 282.678 60.0282C282.192 60.1819 281.688 60.2645 281.178 60.2712L279.372 60.2951C278.068 60.3124 276.947 61.2206 276.659 62.4919Z" fill="#1C2D5E"/>
<path d="M280.342 60.8261C280.867 60.853 281.393 60.853 281.918 60.8261C282.047 60.8039 282.458 60.6738 283.233 60.4262C284.795 59.9247 287.631 59.0196 288.68 58.9401C288.769 58.9334 288.841 58.8617 288.841 58.7728C288.841 58.6865 288.773 58.616 288.687 58.6216C287.608 58.6918 284.821 59.5818 283.126 60.1248C282.503 60.3215 281.967 60.4929 281.853 60.5151C281.54 60.5706 278.853 60.4884 277.017 60.4167C276.929 60.4133 276.856 60.4839 276.856 60.5722C276.856 60.6581 276.925 60.7282 277.011 60.7302C277.553 60.7429 279.118 60.8007 280.342 60.8261Z" fill="white"/>
<path d="M289.371 58.7293C289.289 58.4605 288.994 58.3192 288.733 58.423C288.463 58.5298 288.348 58.8481 288.487 59.1023L288.895 59.8491C289.006 60.0523 289.267 60.1173 289.461 59.99C289.608 59.8932 289.673 59.711 289.621 59.5427L289.371 58.7293Z" fill="#1C2D5E"/>
<path opacity="0.2" d="M289.371 58.7293C289.289 58.4605 288.994 58.3192 288.733 58.423C288.463 58.5298 288.348 58.8481 288.487 59.1023L288.895 59.8491C289.006 60.0523 289.267 60.1173 289.461 59.99C289.608 59.8932 289.673 59.711 289.621 59.5427L289.371 58.7293Z" fill="black"/>
<path opacity="0.2" d="M276.453 63.3913C276.294 64.0824 276.905 64.705 277.598 64.5578C277.776 64.5201 277.964 64.4801 278.161 64.4383C278.945 64.2711 279.303 63.4539 278.589 63.0878C278.261 62.9198 277.899 62.792 277.557 62.6955C277.06 62.5556 276.568 62.8881 276.453 63.3913Z" fill="black"/>
<path d="M-nan -nanL263.406 69.4772C263.389 69.6539 263.434 69.8309 263.533 69.9791C263.632 70.1274 263.78 70.238 263.952 70.2928C264.02 70.3152 264.09 70.328 264.162 70.3308H264.275L271.573 70.6672C271.749 70.676 271.924 70.6264 272.068 70.5263C272.213 70.4262 272.319 70.2815 272.37 70.1151C272.47 69.7903 272.591 69.4723 272.732 69.1631C273.386 67.7768 274.302 66.5246 275.43 65.4725C275.753 65.1552 276.121 64.8379 276.522 64.5205C276.859 64.2614 277.137 63.9347 277.336 63.5621C277.536 63.1896 277.652 62.7796 277.678 62.3595C277.712 61.7988 277.601 61.2388 277.355 60.7316C277.298 60.6172 277.234 60.506 277.164 60.3984C277.138 60.358 277.096 60.3307 277.048 60.3235C276.468 60.2358 272.6 59.6862 269.453 60.1147C268.176 60.2885 267.052 61.0151 266.293 62.0561C264.704 64.2361 263.705 66.7902 263.406 69.4772L-nan -nanZ" fill="#1C2D5E"/>
<path d="M263.955 70.2906C263.953 70.3859 263.959 70.4811 263.973 70.5751C263.987 70.6669 264.081 70.7195 264.17 70.6933C264.258 70.6673 264.306 70.574 264.295 70.4827C264.29 70.4317 264.288 70.3802 264.291 70.3287C264.275 68.3612 267.25 61.4593 267.8 61.1261C269.661 60.2268 275.173 60.5395 277.084 60.6812C277.215 60.6909 277.304 60.5542 277.235 60.4418C277.208 60.3968 277.162 60.3687 277.11 60.3647C275.17 60.2186 269.616 59.8957 267.651 60.8405C267.034 61.1515 263.975 67.99 263.955 70.2906Z" fill="white"/>
<path d="M271.859 71.0935C271.875 70.7568 271.615 70.4709 271.278 70.4552L264.132 70.1225C263.846 70.1091 263.588 70.2977 263.515 70.5753C263.415 70.9509 263.687 71.3226 264.076 71.3407L271.221 71.6738C271.558 71.6894 271.843 71.4298 271.859 71.0935Z" fill="#1C2D5E"/>
<path opacity="0.2" d="M271.859 71.0935C271.875 70.7568 271.615 70.4709 271.278 70.4552L264.132 70.1225C263.846 70.1091 263.588 70.2977 263.515 70.5753C263.415 70.9509 263.687 71.3226 264.076 71.3407L271.221 71.6738C271.558 71.6894 271.843 71.4298 271.859 71.0935Z" fill="black"/>
<path d="M274.071 61.3452C275.179 60.9239 274.402 59.4622 273.243 59.2109C272.52 59.0542 271.805 58.978 271.648 59.1048C271.062 59.5779 271.697 60.5013 272.356 60.8661C272.951 61.1955 273.665 61.4994 274.071 61.3452Z" fill="#1C2D5E"/>
<path opacity="0.4" d="M274.071 61.3452C275.179 60.9239 274.402 59.4622 273.243 59.2109C272.52 59.0542 271.805 58.978 271.648 59.1048C271.062 59.5779 271.697 60.5013 272.356 60.8661C272.951 61.1955 273.665 61.4994 274.071 61.3452Z" fill="black"/>
<path d="M272.12 59.459C271.756 59.9098 271.363 60.4959 271.725 60.9486C272.085 61.3976 272.722 61.7504 273.686 61.8232C273.933 61.8426 274.131 61.8315 274.289 61.8C274.826 61.6922 274.637 61.0583 274.51 60.5253C274.397 59.9509 274.707 59.367 275.092 58.8331C275.096 58.8275 275.098 58.8207 275.098 58.8139C275.098 58.8083 275.096 58.8029 275.094 58.798L274.129 57.0474C273.919 56.653 273.301 56.744 273.178 57.1735C272.942 57.9997 272.594 58.8737 272.12 59.459Z" fill="#EEC1BB"/>
<path opacity="0.2" d="M273.418 57.0521C273.297 57.6749 273.334 58.3173 273.525 58.9228C273.548 58.9933 273.572 59.063 273.598 59.1319C273.782 59.6136 274.715 59.3877 275.006 58.9621C275.036 58.9187 275.066 58.8756 275.097 58.8328C275.102 58.8263 275.104 58.8191 275.104 58.8111C275.104 58.8047 275.103 58.7976 275.1 58.792L274.515 57.7308C274.348 57.4279 273.502 56.7166 273.418 57.0521Z" fill="black"/>
<path d="M275.229 60.4377C275.108 60.2021 274.722 60.2016 274.496 60.3387C274.303 60.4553 274.079 60.5101 273.854 60.4954C273.356 60.4719 272.636 59.9492 272.156 59.5516C271.861 59.3064 271.429 59.2869 271.13 59.5282C270.806 59.7898 270.755 60.2615 271.039 60.5652C271.663 61.231 272.764 62.2452 273.66 62.2217C274.71 62.1941 275.195 61.3243 275.353 60.959C275.396 60.8584 275.386 60.7455 275.336 60.6478L275.229 60.4377Z" fill="#1C2D5E"/>
<path opacity="0.2" d="M275.229 60.4377C275.108 60.2021 274.722 60.2016 274.496 60.3387C274.303 60.4553 274.079 60.5101 273.854 60.4954C273.356 60.4719 272.636 59.9492 272.156 59.5516C271.861 59.3064 271.429 59.2869 271.13 59.5282C270.806 59.7898 270.755 60.2615 271.039 60.5652C271.663 61.231 272.764 62.2452 273.66 62.2217C274.71 62.1941 275.195 61.3243 275.353 60.959C275.396 60.8584 275.386 60.7455 275.336 60.6478L275.229 60.4377Z" fill="black"/>
<path d="M269.879 71.6146C269.963 71.6325 270.045 71.5817 270.067 71.4994L270.25 70.7991C270.301 70.6038 270.424 70.4377 270.549 70.2792C270.689 70.1018 270.78 69.8896 270.81 69.6633C270.933 69.2 271.133 68.4225 272.202 66.8803C273.745 64.6431 273.853 62.9721 273.832 62.4C273.828 62.2722 273.825 62.1449 273.839 62.0179L273.993 60.6736C274.003 60.5842 273.939 60.5036 273.849 60.4939C273.76 60.4843 273.68 60.5484 273.67 60.6373L273.494 62.2155V62.2346C273.494 62.2536 273.737 64.0878 271.931 66.7057C271.09 67.9237 270.769 68.6836 270.609 69.1906C270.526 69.4523 270.508 69.7392 270.369 69.9759C270.298 70.0951 270.203 70.1984 270.09 70.2789C270.058 70.2993 270.036 70.3306 270.027 70.3667L269.759 71.4199C269.737 71.5073 269.791 71.5957 269.879 71.6146Z" fill="#263238"/>
<path opacity="0.2" d="M268.608 67.7141C269.233 68.2843 270.435 68.6779 271.545 68.936C272.243 69.0983 272.935 68.7185 273.303 68.1036C273.414 67.919 273.529 67.7373 273.65 67.5588C274.261 66.652 273.313 65.2067 272.228 65.0742C271.786 65.0203 271.879 64.7987 271.678 64.4011C270.991 63.0388 270.201 61.8496 269.371 61.4595C268.479 61.0438 267.126 62.1735 267.013 63.1858C266.899 64.1981 267.261 66.4892 268.608 67.7141Z" fill="black"/>
<path d="M277.617 53.0031C277.541 52.7946 277.338 52.4649 277.348 52.2431C277.356 52.0692 277.327 51.8955 277.263 51.733C277.199 51.5705 277.102 51.4226 276.978 51.2985C276.854 51.1744 276.705 51.0767 276.541 51.0116C275.313 50.4086 272.018 51.1702 271.223 52.3951C270.784 53.0715 270.319 53.4508 269.99 53.6549C269.762 53.7962 269.624 54.1071 269.853 54.2474C269.892 54.2714 269.936 54.5676 269.904 54.6001C269.882 54.6223 269.861 54.6456 269.841 54.67C269.622 54.9384 269.871 55.2721 270.175 55.4378C270.21 55.4568 270.244 55.4765 270.278 55.4968C270.331 55.5288 270.383 55.5684 270.402 55.6276C270.483 55.8798 270.407 56.4897 270.768 56.4284C271.178 56.3586 271.091 56.3014 271.343 56.7457C271.595 57.19 272.612 58.0912 273.006 57.7263C273.349 57.4088 276.59 54.8407 277.426 54.1784C277.554 54.0774 277.642 53.936 277.66 53.7743C277.685 53.5526 277.7 53.2291 277.617 53.0031Z" fill="#263238"/>
<path d="M272.686 55.2107C272.935 56.7974 273.026 57.8224 273.753 58.6157C273.852 58.7243 273.96 58.8251 274.076 58.9172C275.61 60.1865 277.807 59.1488 278.081 57.2988C278.127 56.9623 278.145 56.6226 278.133 56.2833C278.085 54.7157 277.464 52.8625 275.936 52.4119C275.619 52.3153 275.285 52.2812 274.953 52.3115C274.622 52.3419 274.3 52.4361 274.006 52.5888C273.712 52.7415 273.452 52.9496 273.24 53.2013C273.028 53.453 272.868 53.7433 272.77 54.0557C272.652 54.4292 272.624 54.8245 272.686 55.2107Z" fill="#EEC1BB"/>
<path d="M275.536 55.4588C275.536 55.6079 275.643 55.719 275.74 55.7095C275.837 55.7 275.908 55.573 275.895 55.4239C275.882 55.2747 275.788 55.1668 275.691 55.1764C275.594 55.1859 275.523 55.3096 275.536 55.4588Z" fill="#263238"/>
<path d="M277.23 55.3037C277.23 55.4497 277.336 55.5639 277.433 55.5544C277.53 55.5449 277.598 55.4148 277.585 55.2688C277.572 55.1229 277.479 55.0086 277.382 55.0181C277.285 55.0277 277.217 55.1641 277.23 55.3037Z" fill="#263238"/>
<path d="M276.807 56.6351C276.783 56.3782 277.203 56.2366 277.37 56.4332C277.457 56.5355 277.449 56.6941 277.326 56.749C277.286 56.7671 277.244 56.7822 277.202 56.7942C277.138 56.8121 277.073 56.8229 277.007 56.8266C276.9 56.8326 276.817 56.7425 276.807 56.6351Z" fill="#D4827D"/>
<path d="M-nan -nanL274.867 54.8252C274.882 54.8322 274.898 54.8359 274.914 54.8359C274.947 54.8359 274.974 54.8151 275.001 54.7977C275.08 54.7472 275.168 54.7126 275.261 54.6961C275.37 54.6768 275.482 54.683 275.588 54.7141C275.61 54.7226 275.634 54.7224 275.656 54.7135C275.677 54.7046 275.695 54.6878 275.704 54.6665C275.713 54.6455 275.712 54.622 275.703 54.6012C275.694 54.5804 275.677 54.5639 275.656 54.5555L-nan -nanL275.656 54.5555C275.522 54.5131 275.379 54.5027 275.241 54.5254C275.102 54.548 274.971 54.6029 274.858 54.6856C274.848 54.6919 274.84 54.7001 274.833 54.7097C274.827 54.7192 274.823 54.73 274.821 54.7412C274.818 54.7524 274.819 54.764 274.821 54.7751C274.823 54.7851 274.827 54.7947 274.833 54.8032C274.834 54.8052 274.836 54.807 274.838 54.8085C274.846 54.8159 274.857 54.8215 274.867 54.8252L-nan -nanZ" fill="#263238"/>
<path d="M276.429 57.6078C276.43 57.6063 276.429 57.6045 276.427 57.6043C276.212 57.5816 276.005 57.5092 275.823 57.3928C275.64 57.2758 275.489 57.1178 275.381 56.9319C275.376 56.9204 275.376 56.9076 275.38 56.896C275.384 56.8843 275.392 56.8745 275.403 56.8684C275.409 56.8657 275.415 56.864 275.42 56.8635C275.426 56.8629 275.432 56.8636 275.438 56.8653C275.444 56.8671 275.449 56.87 275.454 56.8738C275.458 56.8776 275.462 56.8822 275.465 56.8875L-nan -nanL275.465 56.8875C275.564 57.0604 275.704 57.2079 275.872 57.3181C276.041 57.4284 276.233 57.4982 276.434 57.5221C276.44 57.5221 276.446 57.5233 276.452 57.5257C276.457 57.5282 276.462 57.5318 276.466 57.5364C276.47 57.5409 276.473 57.5462 276.475 57.552C276.476 57.5578 276.477 57.5638 276.476 57.5697L-nan -nanL276.476 57.5697C276.476 57.5756 276.474 57.5813 276.471 57.5865C276.469 57.5917 276.465 57.5964 276.46 57.6002C276.456 57.6041 276.451 57.607 276.445 57.6088C276.441 57.6103 276.436 57.6111 276.431 57.6111C276.429 57.6111 276.428 57.6093 276.429 57.6078Z" fill="#263238"/>
<path d="M-nan -nanL277.879 54.2634C277.893 54.2533 277.903 54.2388 277.908 54.2222C277.91 54.2111 277.909 54.1998 277.907 54.1889C277.904 54.178 277.899 54.1678 277.892 54.1589C277.885 54.1499 277.876 54.1425 277.866 54.137C277.856 54.1316 277.845 54.1281 277.834 54.127L-nan -nanL277.834 54.127C277.694 54.1084 277.552 54.1229 277.42 54.1693C277.287 54.2157 277.168 54.2926 277.071 54.3935C277.055 54.4096 277.046 54.4313 277.046 54.4538C277.046 54.4764 277.055 54.4981 277.071 54.5141L-nan -nanL277.071 54.5141C277.088 54.53 277.11 54.5389 277.133 54.5389C277.156 54.5389 277.178 54.53 277.194 54.5141L-nan -nanL277.194 54.5141C277.272 54.4362 277.368 54.3775 277.473 54.3428C277.564 54.3131 277.659 54.3016 277.753 54.3089C277.785 54.3113 277.82 54.3162 277.847 54.2986C277.86 54.2897 277.871 54.2776 277.879 54.2634L-nan -nanZ" fill="#263238"/>
<path d="M276.889 52.564C276.95 52.7748 276.765 52.9845 276.556 53.0518C276.275 53.1426 275.993 53.2754 275.697 53.2705C275.359 53.2649 275.02 53.2766 274.683 53.3054C274.514 53.3198 274.343 53.3435 274.194 53.425C274.098 53.4778 274.011 53.5454 273.935 53.6256C273.802 53.7675 273.711 53.9433 273.674 54.1331C273.579 54.4252 273.904 54.7106 273.9 55.0176C273.894 55.466 273.884 56.1199 273.878 56.4952C273.876 56.6117 273.846 56.7255 273.792 56.8287C273.528 57.3324 272.829 57.3656 272.592 56.8486C272.178 55.9472 271.947 54.9709 271.917 53.9745C271.852 52.0624 274.923 51.6885 276.133 51.6154C276.418 51.5982 276.668 51.7871 276.746 52.062L276.889 52.564Z" fill="#263238"/>
<path d="M-nan -nanL272.045 57.2836C272.185 57.464 272.36 57.6153 272.561 57.7286C272.761 57.8419 272.982 57.915 273.211 57.9437C273.825 58.0198 274.038 57.4582 273.793 56.9346C273.57 56.4745 272.982 55.862 272.404 56.0334C272.278 56.0709 272.163 56.1391 272.071 56.2315C271.979 56.3239 271.912 56.4376 271.876 56.5621C271.84 56.6867 271.837 56.818 271.867 56.9441C271.896 57.0702 271.957 57.187 272.045 57.2836L-nan -nanZ" fill="#EEC1BB"/>
<path d="M276.484 67.6869C276.539 67.3923 276.812 67.1904 277.11 67.2238L278.897 67.4242C279.451 67.4863 280.008 67.3602 280.492 67.0849C281.055 66.7652 281.772 66.3841 282.013 66.3713C282.429 66.3491 282.394 68.2308 281.906 68.5926C281.418 68.9544 280.223 69.0178 280.052 69.0083C279.677 68.9875 279.39 68.6297 279.017 68.5883L276.983 68.3625C276.652 68.3257 276.422 68.0146 276.484 67.6869Z" fill="#EEC1BB"/>
<path d="M270.176 67.741C271.013 68.0361 277.063 69.1976 277.39 68.7406L277.477 68.62L277.571 68.4709C277.878 67.9758 278.184 67.246 277.642 66.8049C276.996 66.2718 272.053 65.6974 271.723 65.288C271.394 64.8787 269.407 59.8014 267.559 60.5281C267.523 60.5433 267.488 60.5624 267.456 60.5852C267.317 60.6677 267.212 60.7958 267.159 60.947C266.519 62.5336 269.43 67.484 270.176 67.741Z" fill="#1C2D5E"/>
<path d="M-nan -nanL267.16 60.9462C267.251 61.4676 267.387 61.9804 267.567 62.4789C268.178 64.2465 269.479 66.9216 270.474 67.3753C271.747 67.9497 276.777 68.5272 277.491 68.6066C277.535 68.6066 277.572 68.5733 277.576 68.5295L277.585 68.4511C277.595 68.3685 277.531 68.2886 277.448 68.2794C276.525 68.1769 271.781 67.6064 270.607 67.0802C269.832 66.7311 268.575 64.3639 267.884 62.3679C267.69 61.8893 267.561 61.3885 267.499 60.878C267.482 60.7391 267.329 60.6637 267.248 60.7776C267.211 60.8291 267.181 60.8858 267.16 60.9462L-nan -nanZ" fill="white"/>
<path d="M278.611 67.6119C278.662 67.333 278.476 67.0661 278.197 67.0174C277.937 66.9722 277.685 67.1326 277.616 67.3873L277.414 68.1379C277.327 68.4582 277.546 68.7804 277.876 68.8183C278.16 68.851 278.42 68.6578 278.472 68.3766L278.611 67.6119Z" fill="#1C2D5E"/>
<path opacity="0.2" d="M278.611 67.6119C278.662 67.333 278.476 67.0661 278.197 67.0174C277.937 66.9722 277.685 67.1326 277.616 67.3873L277.414 68.1379C277.327 68.4582 277.546 68.7804 277.876 68.8183C278.16 68.851 278.42 68.6578 278.472 68.3766L278.611 67.6119Z" fill="black"/>
<path d="M250.849 98.5957C250.652 98.6871 250.418 98.6182 250.301 98.4347L249.122 96.5764C248.999 96.383 249.056 96.1267 249.249 96.0039C249.441 95.8825 249.694 95.9368 249.818 96.1259L251.029 97.9639C251.175 98.1852 251.09 98.4843 250.849 98.5957Z" fill="#1C2D5E"/>
<path opacity="0.2" d="M250.849 98.5957C250.652 98.6871 250.418 98.6182 250.301 98.4347L249.122 96.5764C248.999 96.383 249.056 96.1267 249.249 96.0039C249.441 95.8825 249.694 95.9368 249.818 96.1259L251.029 97.9639C251.175 98.1852 251.09 98.4843 250.849 98.5957Z" fill="black"/>
<path d="M272.818 94.815C272.654 94.9562 272.411 94.9546 272.25 94.8113L270.589 93.3392C270.419 93.1881 270.403 92.9273 270.554 92.7568C270.703 92.5883 270.96 92.5706 271.131 92.7171L272.817 94.1608C273.017 94.3326 273.018 94.6425 272.818 94.815Z" fill="#1C2D5E"/>
<path opacity="0.2" d="M272.818 94.815C272.654 94.9562 272.411 94.9546 272.25 94.8113L270.589 93.3392C270.419 93.1881 270.403 92.9273 270.554 92.7568C270.703 92.5883 270.96 92.5706 271.131 92.7171L272.817 94.1608C273.017 94.3326 273.018 94.6425 272.818 94.815Z" fill="black"/>
<path opacity="0.2" d="M269.488 78.769C268.837 79.5731 269.205 80.8029 270.187 81.1299C270.576 81.2595 271.001 81.4029 271.446 81.5555C273.092 82.1207 274.402 80.8252 273.07 79.7039C272.404 79.1436 271.69 78.7045 271.136 78.4033C270.573 78.097 269.891 78.2709 269.488 78.769Z" fill="black"/>
<path d="M307.367 37.9866C308.133 41.6264 313.372 47.2748 321.423 41.8771C323.387 40.5601 324.191 39.0021 324.275 37.4027C324.536 32.6088 318.397 27.4294 317.995 27.0948C317.992 27.0928 317.99 27.0927 317.987 27.0927C317.979 27.0927 317.973 27.0874 317.974 27.0796C317.999 26.8949 318.31 24.8088 320.017 24.554C320.177 24.5353 320.334 24.4958 320.483 24.4366C321.436 24.0244 320.063 22.9578 320.019 22.9238C320.017 22.9227 320.017 22.9224 320.015 22.9213C318.866 22.0461 317.717 23.7796 316.952 23.602C316.186 23.4243 315.288 22.1709 314.778 22.6723C314.267 23.1736 314.907 24.554 313.757 24.554C312.607 24.554 311.231 24.0526 310.849 24.554C310.779 24.6462 310.735 24.7794 310.709 24.9356C310.543 25.9502 311.333 26.6391 312.36 26.5956C313.376 26.5527 313.815 27.6213 313.108 28.3517C311.161 30.3608 307.674 34.3 307.348 37.0378C307.302 37.353 307.309 37.6734 307.367 37.9866Z" fill="#1C2D5E"/>
<path d="M313.122 36.9266C313.422 36.9667 313.65 37.2345 313.608 37.5348C313.564 37.8516 313.822 38.1309 314.141 38.1186C314.398 38.1086 314.612 37.913 314.641 37.658L314.658 37.5089C314.696 37.1812 314.959 36.9278 315.285 36.8783C316.096 36.7551 316.858 36.5289 317.422 36.2442C317.672 36.1182 317.742 35.8093 317.608 35.5638C317.459 35.2904 317.115 35.1969 316.832 35.3286C316.557 35.4572 316.273 35.5651 315.982 35.6517C315.408 35.8221 314.906 35.3151 314.973 34.7208C315.018 34.3196 315.317 33.9969 315.708 33.8995C316.795 33.6294 317.77 33.2252 317.808 32.2814C317.837 31.5587 317.194 30.9698 315.806 30.8391C315.597 30.8195 315.437 30.6371 315.461 30.4291C315.485 30.2115 315.311 30.0229 315.092 30.031L315.01 30.0341C314.803 30.0418 314.631 30.1971 314.602 30.4027L314.596 30.4452C314.564 30.6701 314.379 30.8403 314.154 30.8677C313.643 30.9297 313.14 31.0464 312.654 31.2156C312.445 31.2887 312.347 31.5237 312.429 31.7297C312.512 31.939 312.751 32.0386 312.964 31.965C313.11 31.9146 313.257 31.8692 313.406 31.8287C313.919 31.6893 314.364 32.1435 314.291 32.6695C314.244 33.0095 313.987 33.2804 313.653 33.3592C312.512 33.6283 311.397 34.0436 311.172 35.0961C310.987 35.9622 311.58 36.7208 313.122 36.9266ZM315.959 32.753C315.595 32.9447 315.214 32.5951 315.261 32.1865C315.298 31.8672 315.587 31.6153 315.892 31.7164C316.247 31.8341 316.392 32.0349 316.373 32.2782C316.359 32.4652 316.205 32.6235 315.959 32.753ZM312.694 35.1184C312.694 35.1141 312.694 35.1098 312.695 35.1056C312.735 34.893 312.887 34.7308 313.116 34.6C313.535 34.3601 313.99 34.785 313.923 35.2631C313.873 35.6164 313.552 35.893 313.212 35.7832C312.801 35.6504 312.648 35.4141 312.693 35.1309C312.693 35.1268 312.694 35.1225 312.694 35.1184Z" fill="white"/>
<path opacity="0.2" d="M312.832 25.0094C311.66 25.319 312.423 26.4265 313.608 26.6861C313.62 26.6889 313.632 26.6917 313.645 26.6946C314.155 26.814 314.695 27.0113 315.212 26.9264C316.385 26.7338 318.311 25.3002 319.363 24.7477C319.553 24.6483 319.767 24.5751 320.01 24.5389C320.258 24.5098 320.35 24.2203 320.151 24.0692C320.069 24.0068 319.979 23.9535 319.884 23.9106C318.592 23.3458 317.839 25.4179 316.944 25.1038C316.049 24.7896 315.41 23.7869 314.835 24.4691C314.532 24.828 313.693 24.7821 312.832 25.0094Z" fill="black"/>
<path opacity="0.2" d="M-nan -nanL307.367 37.9872C308.133 41.627 313.373 47.2754 321.423 41.8776C322.406 41.2189 323.098 40.4997 323.555 39.7453C323.995 39.0198 322.846 38.1559 321.998 38.1427C319.892 38.1109 315.515 35.9816 313.644 37.2986C311.984 38.4674 309.278 38.4664 307.825 37.473C307.616 37.33 307.302 37.4427 307.326 37.695C307.335 37.7929 307.348 37.8904 307.367 37.9872L-nan -nanZ" fill="black"/>
<path d="M-nan -nanL318.223 27.2873C318.223 27.2873 319.06 26.8113 317.464 26.3702C316.84 26.1977 316.061 26.2233 315.379 26.3682C314.123 26.6351 314.713 27.0512 315.993 26.9557C316.753 26.8991 317.515 27.0125 318.223 27.2873L-nan -nanZ" fill="#263238"/>
<path d="M313.157 26.9367C314.509 25.9344 316.029 29.4289 314.492 28.7432C314.284 28.6501 313.381 27.7948 313.161 27.7345C313.027 27.6981 312.931 27.6127 312.896 27.458C312.851 27.2591 312.96 27.083 313.157 26.9367ZM314.638 28.3291C314.638 28.334 314.64 28.339 314.645 28.3413C314.689 28.3641 314.74 28.3132 314.791 28.2244C314.959 27.9335 314.72 27.8183 314.622 28.1397C314.598 28.2202 314.596 28.2843 314.631 28.3161C314.635 28.3195 314.638 28.3241 314.638 28.3291ZM313.381 27.3202C313.381 27.3273 313.383 27.3345 313.388 27.3397C313.399 27.3524 313.416 27.3603 313.436 27.3642C313.679 27.4096 313.541 27.0531 313.388 27.2458C313.373 27.2637 313.369 27.2813 313.375 27.2985C313.378 27.3054 313.381 27.3128 313.381 27.3202Z" fill="#263238"/>
<path d="M314.919 27.0247C314.875 27.0044 314.825 27.0066 314.783 27.0312C314.473 27.2138 313.132 27.9806 312.278 28.1141C312.184 28.1289 312.092 28.1852 312.092 28.2805C312.092 28.316 312.097 28.3511 312.108 28.3848C312.117 28.4151 312.141 28.4252 312.171 28.4159C312.255 28.3901 312.451 28.3291 312.699 28.2445C312.898 28.1766 313.177 28.5512 312.979 28.479C312.922 28.4581 312.841 28.4511 312.799 28.4951C312.724 28.5725 312.782 28.74 312.886 28.7635C313.038 28.7974 313.275 28.804 313.605 28.6804C314.109 28.4916 314.748 27.5816 314.98 27.2314C315.028 27.1585 314.999 27.0614 314.919 27.0247Z" fill="#263238"/>
<path d="M336.744 115.923C341.52 115.923 345.232 111.764 344.693 107.019L342.599 88.6141C342.456 87.3538 342.015 86.1458 341.313 85.0895L340.421 83.7475C339.884 82.9405 339.499 82.0427 339.284 81.098L337.654 73.9552C337.599 73.7124 337.533 73.4752 337.456 73.2386C336.916 71.5861 334.667 64.6552 334.693 63.9821C334.721 63.2441 332.998 55.2615 332.877 54.7054C332.873 54.6834 332.868 54.6639 332.864 54.6419L331.105 46.182C330.99 45.63 330.818 45.0917 330.59 44.576L330.223 43.7478C329.021 41.027 326.408 39.1982 323.44 38.9999L322.553 38.9407C320.923 38.8318 319.298 39.2248 317.898 40.0668L317.643 40.2201C316.553 40.8752 315.323 41.2612 314.055 41.3461L307.064 41.814C304.972 41.954 303.019 42.9097 301.624 44.4753L298.892 47.5431C298.122 48.4074 297.549 49.4285 297.212 50.5358L296.524 52.7981C296.015 54.4706 294.973 55.9305 293.556 56.9544L292.87 57.4499C291.526 58.4212 290.511 59.8023 289.977 61.3721C289.236 63.5475 287.588 65.3221 285.466 66.204L283.607 66.9767C283.347 67.085 283.098 67.2199 282.865 67.3793C281.518 68.3012 280.847 69.9343 281.156 71.5369L282.725 79.6755C283.242 82.3555 282.357 85.114 280.377 86.9928L270.468 96.397C269.415 97.396 268.111 98.0899 266.694 98.4043L249.364 102.25C248.629 102.414 247.92 102.68 247.259 103.041L236.407 108.976C235.88 109.264 235.431 109.676 235.099 110.176C233.467 112.636 235.231 115.923 238.183 115.923H336.744Z" fill="#1C2D5E"/>
<path opacity="0.6" d="M235.1 110.18C233.469 112.637 235.231 115.921 238.18 115.921H336.744C341.52 115.921 345.232 111.762 344.693 107.016L342.599 88.6119C342.456 87.3517 342.015 86.1436 341.313 85.0873L340.421 83.7453C339.884 82.9383 339.499 82.0405 339.284 81.0958L337.654 73.953C337.599 73.7103 337.533 73.473 337.456 73.2364C336.916 71.5839 334.667 64.653 334.693 63.9799C334.721 63.2439 333.007 55.3042 332.878 54.708C332.873 54.682 332.868 54.6596 332.863 54.6335L331.404 47.5613L331.121 46.1816C331.006 45.6221 330.832 45.0766 330.601 44.5542L330.24 43.7361C329.037 41.0153 326.424 39.1865 323.456 38.9882L322.57 38.929C320.939 38.8201 319.315 39.2131 317.914 40.0551L317.659 40.2083C316.57 40.8634 315.34 41.2494 314.071 41.3343L307.077 41.8024C304.987 41.9423 303.035 42.8966 301.641 44.4601L298.894 47.5396C298.123 48.4048 297.549 49.4272 297.211 50.5361L296.524 52.7959C296.015 54.4684 294.973 55.9283 293.556 56.9522L292.87 57.4477C291.526 58.419 290.511 59.8001 289.977 61.3699C289.236 63.5453 287.588 65.3199 285.466 66.2018L283.607 66.9745C283.347 67.0828 283.098 67.2177 282.865 67.3771C281.519 68.299 280.847 69.9321 281.156 71.5347L282.725 79.6733C283.242 82.3533 282.357 85.1118 280.377 86.9906L270.468 96.395C269.415 97.3939 268.111 98.0877 266.694 98.4021L254.865 101.028L249.366 102.251C248.629 102.414 247.92 102.682 247.258 103.044L243.623 105.036L236.407 108.98C235.88 109.268 235.432 109.68 235.1 110.18Z" fill="white"/>
<path opacity="0.2" d="M244.687 112.644C242.78 113.111 243.099 115.922 245.062 115.922H336.744C341.52 115.922 345.232 111.764 344.693 107.018L342.381 86.6962L343.105 110.841C343.132 111.74 342.614 112.566 341.792 112.933L341.444 113.089C340.448 113.533 339.286 113.034 338.923 112.006L337.847 108.959C337.355 107.567 335.297 107.92 335.297 109.396C335.297 109.943 334.957 110.433 334.445 110.625L332.543 111.337C330.92 111.944 329.091 111.504 327.923 110.224L325.383 107.44L320.352 101.961C319.319 100.835 318.63 99.4368 318.366 97.9316L316.466 87.0914C316.298 86.1329 316.321 85.1506 316.533 84.201L316.789 83.0589C316.968 82.2616 316.887 81.4281 316.557 80.6803C314.889 76.8901 309.227 78.0812 309.227 82.2224V86.289C309.227 87.4096 308.825 88.493 308.095 89.3425L306.73 90.9298C305.481 92.3811 304.795 94.2319 304.795 96.1462V100.614L304.356 105.751C304.222 107.316 302.838 108.472 301.274 108.325C299.955 108.201 298.898 107.177 298.734 105.861L297.817 98.5402C297.605 96.8463 296.62 95.3463 295.15 94.4787L294.423 94.0497C294.115 93.8678 293.857 93.6123 293.671 93.3061C292.572 91.4874 289.783 92.1795 289.661 94.3013L289.149 103.241C289.111 103.901 288.922 104.544 288.597 105.12C287.308 107.398 284.306 108.017 282.222 106.433L274.63 100.665C274.106 100.267 273.535 99.9347 272.929 99.6764L269.753 98.3213C269.165 98.0707 268.514 98.0104 267.891 98.1488L266.871 98.3753C263.948 99.0241 266.238 101.289 266.714 104.245C266.798 104.746 266.088 107.246 264.992 108.589C264.326 109.406 262.038 110.773 260.35 111.718C259.101 112.418 257.674 112.716 256.245 112.635L254.718 112.548C252.378 112.416 250.214 111.264 248.798 109.397L248.424 108.906C248.032 108.388 247.566 107.931 247.041 107.548L244.643 105.796C244.014 105.337 243.178 105.282 242.495 105.656C240.67 106.653 241.378 109.427 243.458 109.427H244.301C245.202 109.427 245.933 110.157 245.933 111.059C245.933 111.811 245.417 112.466 244.687 112.644Z" fill="black"/>
<path opacity="0.2" d="M317.345 40.6114C318.736 39.667 320.645 40.2623 321.253 41.8305L323.31 47.1377C323.583 47.8414 323.742 48.5838 323.783 49.3373L324.389 60.6251C324.392 60.6873 324.401 60.749 324.415 60.8096C324.713 62.1012 322.867 62.6845 322.369 61.456L321.385 59.0289C321.351 58.9455 321.309 58.8658 321.258 58.7913L319.646 56.4108C318.332 54.4709 320.059 52.0806 319.474 49.8119C319.365 49.3905 317.681 46.2129 316.508 44.0266C315.872 42.8414 316.232 41.3666 317.345 40.6114Z" fill="black"/>
<path opacity="0.2" d="M295.91 54.8275C296.441 53.0829 298.92 53.1106 299.412 54.8665L300.896 60.1693C301.053 60.7301 301.351 61.2417 301.76 61.656L301.901 61.799C302.573 62.4787 302.992 63.3579 303.092 64.3082C303.568 68.8171 304.983 82.192 304.983 81.6349C304.983 81.125 302.75 71.5994 301.685 67.0868C301.324 65.5604 300.523 64.1808 299.379 63.1076L299.238 62.9751C298.247 62.0453 297.51 60.8786 297.095 59.5848L295.918 55.9153C295.805 55.562 295.802 55.1825 295.91 54.8275Z" fill="black"/>
<path opacity="0.2" d="M286.146 65.9147C287.583 65.3209 289.222 66.0688 289.714 67.5432L292.466 75.7769C292.498 75.8736 292.515 75.975 292.515 76.077V76.2483C292.515 77.223 291.189 77.5145 290.78 76.6296C290.702 76.4609 290.576 76.321 290.416 76.2257C289.659 75.7731 287.395 74.393 287.333 74.0285C287.292 73.7836 286.008 71.6532 284.885 69.8233C284.016 68.409 284.613 66.5486 286.146 65.9147Z" fill="black"/>
<path d="M243.502 113.278C244.981 114.004 243.85 115.921 242.202 115.921H238.856C236.878 115.921 235.701 112.098 237.506 112.906C238.779 113.478 239.726 110.349 241.134 111.091C241.632 111.351 241.389 112.189 241.703 112.526C242.22 113.081 242.875 112.973 243.502 113.278Z" fill="#263238"/>
<path d="M230.61 114.157C233.298 115.513 237.639 112.33 235.723 110.007C235.419 109.638 234.44 110.22 234.281 109.768C233.675 108.053 232.854 106.114 232.228 106.095C231.743 106.08 230.503 107.1 230.197 106.723C229.056 105.315 227.928 104.217 227.36 104.508C226.696 104.848 227.793 106.565 229.13 108.276C229.353 108.561 228.347 109.668 228.103 109.934C227.678 110.397 228.901 111.381 230.087 112.172C230.396 112.378 229.942 113.184 229.944 113.555C229.945 113.737 230.199 113.95 230.61 114.157Z" fill="#1C2D5E"/>
<path opacity="0.2" d="M230.61 114.157C233.298 115.513 237.639 112.33 235.723 110.007C235.419 109.638 234.44 110.22 234.281 109.768C233.675 108.053 232.854 106.114 232.228 106.095C231.743 106.08 230.503 107.1 230.197 106.723C229.056 105.315 227.928 104.217 227.36 104.508C226.696 104.848 227.793 106.565 229.13 108.276C229.353 108.561 228.347 109.668 228.103 109.934C227.678 110.397 228.901 111.381 230.087 112.172C230.396 112.378 229.942 113.184 229.944 113.555C229.945 113.737 230.199 113.95 230.61 114.157Z" fill="white"/>
<path d="M235.456 110.284C235.026 112.77 238.839 115.284 240.142 113.123C240.342 112.791 239.629 112.195 239.932 111.952C241.109 111.008 242.396 109.842 242.235 109.363C242.107 108.984 240.981 108.302 241.191 107.962C241.966 106.71 242.498 105.56 242.112 105.215C241.655 104.806 240.604 106.142 239.631 107.652C239.473 107.897 238.327 107.422 238.058 107.31C237.574 107.107 237.145 108.318 236.857 109.447C236.78 109.749 236.018 109.626 235.726 109.731C235.599 109.776 235.508 109.98 235.456 110.284Z" fill="#1C2D5E"/>
<path opacity="0.2" d="M235.456 110.284C235.026 112.77 238.839 115.284 240.142 113.123C240.342 112.791 239.629 112.195 239.932 111.952C241.109 111.008 242.396 109.842 242.235 109.363C242.107 108.984 240.981 108.302 241.191 107.962C241.966 106.71 242.498 105.56 242.112 105.215C241.655 104.806 240.604 106.142 239.631 107.652C239.473 107.897 238.327 107.422 238.058 107.31C237.574 107.107 237.145 108.318 236.857 109.447C236.78 109.749 236.018 109.626 235.726 109.731C235.599 109.776 235.508 109.98 235.456 110.284Z" fill="white"/>
<path d="M232.578 110.124C234.155 113.019 239.304 112.893 239.877 109.647C239.884 109.608 239.887 109.571 239.885 109.538C239.848 109.007 238.588 108.91 238.738 108.399C239.302 106.47 239.813 104.212 239.261 103.804C238.822 103.479 237.042 103.604 237.008 103.059C236.886 101.088 236.578 99.4109 235.885 99.3201C235.07 99.2132 234.949 101.456 235.047 103.843C235.064 104.25 233.431 104.605 233.033 104.692C232.349 104.842 232.813 106.492 233.371 107.95C233.52 108.339 232.59 108.787 232.348 109.126C232.227 109.295 232.326 109.662 232.578 110.124Z" fill="#1C2D5E"/>
<path opacity="0.4" d="M232.578 110.124C234.155 113.019 239.304 112.893 239.877 109.647C239.884 109.608 239.887 109.571 239.885 109.538C239.848 109.007 238.588 108.91 238.738 108.399C239.302 106.47 239.813 104.212 239.261 103.804C238.822 103.479 237.042 103.604 237.008 103.059C236.886 101.088 236.578 99.4109 235.885 99.3201C235.07 99.2132 234.949 101.456 235.047 103.843C235.064 104.25 233.431 104.605 233.033 104.692C232.349 104.842 232.813 106.492 233.371 107.95C233.52 108.339 232.59 108.787 232.348 109.126C232.227 109.295 232.326 109.662 232.578 110.124Z" fill="white"/>
<path d="M238.886 113.817C240.062 114.395 239.16 115.921 237.85 115.921H235.183C233.607 115.921 232.67 112.874 234.108 113.519C235.122 113.972 235.875 111.481 236.999 112.071C237.396 112.281 237.203 112.947 237.451 113.214C237.865 113.658 238.388 113.572 238.886 113.817Z" fill="#263238"/>
<path opacity="0.2" d="M238.886 113.817C240.062 114.395 239.16 115.921 237.85 115.921H235.183C233.607 115.921 232.67 112.874 234.108 113.519C235.122 113.972 235.875 111.481 236.999 112.071C237.396 112.281 237.203 112.947 237.451 113.214C237.865 113.658 238.388 113.572 238.886 113.817Z" fill="white"/>
<path d="M329.816 114.175C331.284 113.667 332.373 112.463 333.051 111.065C334.369 108.347 336.358 103.865 335.71 102.805C335.586 102.601 334.135 101.509 334.195 101.278C335.026 98.0691 335.782 94.3729 335.07 93.6908C334.499 93.1435 331.953 93.3977 331.928 92.6069C331.88 91.1337 331.723 90.0563 331.381 89.8702C330.61 89.4508 328.11 90.4105 327.801 89.5888C327.573 88.9824 327.323 88.6308 327.052 88.6643C326.69 88.7091 326.493 89.3357 326.404 90.2768C326.266 91.7523 323.357 91.6181 321.909 91.936C321.392 92.0495 321.482 93.0402 321.839 94.3256C322.1 95.2676 319.735 96.2457 319.044 96.9371C318.654 97.3274 318.894 98.1731 319.403 99.1444C319.875 100.044 318.081 101.785 317.425 102.56C317.125 102.916 317.314 103.381 317.751 103.87C318.91 105.169 317.192 107.283 317.668 108.958C318.381 111.466 322.165 112.096 324.245 113.669C325.452 114.581 327.232 115.069 329.816 114.175Z" fill="#1C2D5E"/>
<path opacity="0.2" d="M329.816 114.175C331.284 113.667 332.373 112.463 333.051 111.065C334.369 108.347 336.358 103.865 335.71 102.805C335.586 102.601 334.135 101.509 334.195 101.278C335.026 98.0691 335.782 94.3729 335.07 93.6908C334.499 93.1435 331.953 93.3977 331.928 92.6069C331.88 91.1337 331.723 90.0563 331.381 89.8702C330.61 89.4508 328.11 90.4105 327.801 89.5888C327.573 88.9824 327.323 88.6308 327.052 88.6643C326.69 88.7091 326.493 89.3357 326.404 90.2768C326.266 91.7523 323.357 91.6181 321.909 91.936C321.392 92.0495 321.482 93.0402 321.839 94.3256C322.1 95.2676 319.735 96.2457 319.044 96.9371C318.654 97.3274 318.894 98.1731 319.403 99.1444C319.875 100.044 318.081 101.785 317.425 102.56C317.125 102.916 317.314 103.381 317.751 103.87C318.91 105.169 317.192 107.283 317.668 108.958C318.381 111.466 322.165 112.096 324.245 113.669C325.452 114.581 327.232 115.069 329.816 114.175Z" fill="black"/>
<path d="M-nan -nanL324.739 114.095C324.772 114.095 324.805 114.085 324.833 114.066C324.867 114.041 324.889 114.004 324.896 113.962C324.903 113.921 324.893 113.878 324.868 113.844C321.521 109.306 317.383 104.353 312.053 102.017C312.033 102.009 312.012 102.004 311.991 102.004C311.97 102.004 311.949 102.007 311.929 102.015C311.909 102.023 311.891 102.034 311.876 102.049C311.86 102.063 311.848 102.081 311.84 102.1C311.823 102.138 311.822 102.181 311.837 102.22C311.852 102.259 311.882 102.291 311.92 102.309C317.18 104.61 321.289 109.525 324.606 114.028C324.621 114.049 324.641 114.066 324.664 114.078C324.687 114.089 324.713 114.095 324.739 114.095L-nan -nanZ" fill="#1C2D5E"/>
<path d="M-nan -nanL311.216 102.449C311.273 102.6 311.375 102.731 311.508 102.825C311.642 102.919 311.8 102.973 311.964 102.978C312.128 102.984 312.29 102.942 312.43 102.857C312.57 102.772 312.68 102.648 312.749 102.502C312.817 102.355 312.839 102.192 312.813 102.033C312.786 101.873 312.713 101.726 312.601 101.608C312.489 101.49 312.344 101.407 312.184 101.37C312.025 101.332 311.857 101.343 311.704 101.399C311.497 101.475 311.331 101.628 311.239 101.825C311.148 102.022 311.139 102.246 311.216 102.449L-nan -nanZ" fill="#1C2D5E"/>
<path d="M-nan -nanL316.05 107.684C316.099 107.813 316.186 107.924 316.3 108.003C316.414 108.083 316.549 108.128 316.689 108.132C316.829 108.136 316.967 108.099 317.085 108.027C317.204 107.954 317.298 107.849 317.355 107.724C317.413 107.598 317.432 107.459 317.409 107.324C317.386 107.189 317.323 107.063 317.228 106.962C317.132 106.862 317.009 106.792 316.872 106.761C316.736 106.729 316.594 106.738 316.463 106.786C316.376 106.818 316.296 106.867 316.228 106.93C316.159 106.992 316.105 107.067 316.066 107.151C316.028 107.234 316.006 107.324 316.004 107.416C316.001 107.507 316.016 107.599 316.05 107.684L-nan -nanZ" fill="#1C2D5E"/>
<path d="M318.272 104.708C318.338 104.881 318.472 105.021 318.643 105.098C318.814 105.174 319.009 105.181 319.185 105.116C319.361 105.051 319.504 104.92 319.582 104.752C319.659 104.584 319.666 104.393 319.6 104.22C319.534 104.047 319.401 103.907 319.23 103.83C319.059 103.754 318.864 103.747 318.688 103.812C318.512 103.877 318.369 104.008 318.291 104.176C318.213 104.344 318.206 104.535 318.272 104.708Z" fill="#1C2D5E"/>
<path d="M-nan -nanL317.833 109.722C317.865 109.808 317.914 109.887 317.978 109.954C318.041 110.021 318.117 110.075 318.202 110.113C318.286 110.151 318.378 110.172 318.471 110.175C318.564 110.179 318.656 110.164 318.744 110.132C318.831 110.1 318.911 110.051 318.979 109.989C319.047 109.926 319.102 109.851 319.14 109.768C319.218 109.6 319.225 109.408 319.159 109.235C319.093 109.062 318.96 108.922 318.788 108.846C318.617 108.769 318.422 108.763 318.246 108.827C318.07 108.892 317.928 109.023 317.851 109.191C317.773 109.359 317.767 109.55 317.833 109.722L-nan -nanZ" fill="#1C2D5E"/>
<path d="M-nan -nanL320.515 107.673C320.564 107.801 320.651 107.913 320.764 107.993C320.878 108.073 321.013 108.119 321.153 108.124C321.292 108.129 321.43 108.093 321.549 108.021C321.668 107.949 321.763 107.843 321.821 107.718C321.879 107.593 321.899 107.454 321.876 107.319C321.854 107.183 321.791 107.057 321.696 106.956C321.601 106.856 321.478 106.785 321.342 106.753C321.206 106.721 321.063 106.73 320.932 106.778C320.845 106.81 320.765 106.858 320.696 106.92C320.628 106.982 320.573 107.057 320.534 107.14C320.496 107.223 320.474 107.313 320.471 107.405C320.467 107.496 320.483 107.587 320.515 107.673L-nan -nanZ" fill="#1C2D5E"/>
<path d="M-nan -nanL314.612 102.072C314.662 102.2 314.749 102.311 314.862 102.391C314.976 102.471 315.111 102.516 315.25 102.52C315.39 102.525 315.528 102.489 315.647 102.416C315.765 102.344 315.86 102.239 315.917 102.114C315.975 101.989 315.994 101.85 315.972 101.715C315.95 101.579 315.887 101.454 315.792 101.353C315.697 101.252 315.574 101.182 315.438 101.15C315.302 101.118 315.16 101.126 315.029 101.174C314.941 101.206 314.861 101.254 314.792 101.317C314.724 101.379 314.669 101.454 314.63 101.538C314.591 101.621 314.57 101.711 314.567 101.803C314.564 101.895 314.579 101.986 314.612 102.072L-nan -nanZ" fill="#1C2D5E"/>
<path d="M313.205 105.511C313.204 105.511 313.205 105.51 313.206 105.51H313.226C314.987 105.309 316.087 103.501 315.455 101.844L315.426 101.768C315.42 101.747 315.41 101.726 315.396 101.709C315.382 101.691 315.364 101.677 315.344 101.666C315.324 101.656 315.302 101.65 315.279 101.649C315.256 101.647 315.234 101.651 315.212 101.659C315.191 101.666 315.172 101.679 315.156 101.694C315.139 101.71 315.127 101.729 315.119 101.75C315.11 101.771 315.107 101.793 315.108 101.815C315.109 101.838 315.115 101.859 315.125 101.879L315.157 101.962C315.713 103.424 314.741 105.018 313.187 105.195C313.166 105.197 313.145 105.202 313.126 105.211C313.107 105.22 313.09 105.233 313.076 105.249C313.062 105.264 313.051 105.282 313.044 105.302C313.037 105.322 313.034 105.343 313.035 105.364C313.037 105.384 313.042 105.405 313.051 105.424C313.061 105.442 313.074 105.459 313.09 105.473C313.105 105.487 313.124 105.497 313.144 105.504C313.163 105.511 313.184 105.514 313.204 105.513C313.205 105.513 313.206 105.512 313.205 105.511Z" fill="#1C2D5E"/>
<path d="M-nan -nanL316.768 107.726H316.784C318.151 107.546 319.159 106.36 319.116 104.982L319.1 104.467C319.096 104.426 319.077 104.387 319.046 104.359C319.015 104.331 318.975 104.315 318.932 104.314C318.911 104.315 318.89 104.32 318.871 104.329C318.852 104.338 318.834 104.35 318.82 104.365C318.806 104.381 318.794 104.399 318.787 104.418C318.78 104.438 318.776 104.459 318.777 104.479L318.793 104.998C318.83 106.211 317.945 107.257 316.742 107.421C316.721 107.423 316.7 107.43 316.682 107.44C316.663 107.45 316.647 107.464 316.634 107.481C316.621 107.498 316.612 107.517 316.606 107.537C316.601 107.557 316.6 107.578 316.603 107.599C316.611 107.635 316.632 107.668 316.662 107.691C316.692 107.714 316.73 107.727 316.768 107.726L-nan -nanZ" fill="#1C2D5E"/>
<path d="M319.072 109.653C320.321 109.688 321.349 108.678 321.337 107.429C321.335 107.388 321.317 107.349 321.287 107.32C321.257 107.291 321.217 107.274 321.175 107.273L-nan -nanL321.175 107.273C321.154 107.273 321.133 107.278 321.114 107.286C321.094 107.294 321.077 107.305 321.062 107.32C321.047 107.335 321.036 107.352 321.028 107.372C321.02 107.391 321.017 107.411 321.017 107.432C321.028 108.501 320.148 109.366 319.079 109.336L318.504 109.32C318.461 109.321 318.421 109.337 318.39 109.366C318.36 109.395 318.341 109.434 318.339 109.476C318.338 109.497 318.341 109.518 318.349 109.537C318.357 109.557 318.368 109.575 318.383 109.59C318.398 109.605 318.415 109.617 318.435 109.625C318.455 109.633 318.476 109.638 318.497 109.638L319.072 109.653Z" fill="#1C2D5E"/>
<path d="M314.867 114.563C313.768 114.479 313.703 115.916 314.806 115.916H338.424C340.321 115.916 339.749 113.805 339.24 111.978C338.998 111.109 339.011 110.506 337.841 109.757C336.672 109.008 335.076 108.535 334.63 107.707C334.184 106.879 332.811 105.543 332.336 105.152C331.862 104.762 326.182 107.567 326.115 107.631C326.047 107.694 324.47 110.737 323.931 111.42C323.391 112.102 319.676 111.271 318.788 111.988C318.086 112.555 316.071 113.838 315.258 114.35C315.034 114.492 315.131 114.583 314.867 114.563Z" fill="#263238"/>
<path opacity="0.2" d="M314.867 114.563C313.768 114.479 313.703 115.916 314.806 115.916H338.424C340.321 115.916 339.749 113.805 339.24 111.978C338.998 111.109 339.011 110.506 337.841 109.757C336.672 109.008 335.076 108.535 334.63 107.707C334.184 106.879 332.811 105.543 332.336 105.152C331.862 104.762 326.182 107.567 326.115 107.631C326.047 107.694 324.47 110.737 323.931 111.42C323.391 112.102 319.676 111.271 318.788 111.988C318.086 112.555 316.071 113.838 315.258 114.35C315.034 114.492 315.131 114.583 314.867 114.563Z" fill="white"/>
<path d="M301.635 112.614C301.612 110.899 300.499 108.68 300.342 106.971C300.324 106.767 300.31 106.547 300.302 106.31C300.251 104.733 300.733 103.727 301.428 103.159C302.413 102.355 303.432 100.365 304.699 100.465C304.781 100.471 306.135 100.134 306.167 100.059C306.441 99.397 306.852 98.8256 307.451 98.8242C307.934 98.8231 308.089 99.2594 308.084 99.8369C308.075 100.886 309.501 101.804 310.146 102.632C310.761 103.423 310.677 105.369 310.925 106.341C311.015 106.692 311.022 107.108 310.893 107.596C310.827 107.846 310.635 108.053 310.888 108.108C311.326 108.204 312.956 107.476 313.378 107.327C313.418 107.313 313.461 107.311 313.508 107.322C313.99 107.442 315.111 107.883 315.607 107.906C315.739 107.913 315.872 107.965 316.002 108.078C316.162 108.216 316.254 108.388 316.297 108.577C316.439 109.203 317.485 110.451 317.643 111.073C317.673 111.19 318.3 113.288 318.346 113.399C318.429 113.597 318.483 113.842 318.496 114.144C318.5 114.22 318.564 114.282 318.641 114.278C318.949 114.26 319.718 114.238 320.533 114.38C321.869 114.613 321.37 115.83 320.015 115.83H304.894C303.111 115.83 301.659 114.397 301.635 112.614Z" fill="#263238"/>
<path opacity="0.3" d="M301.635 112.614C301.612 110.899 300.499 108.68 300.342 106.971C300.324 106.767 300.31 106.547 300.302 106.31C300.251 104.733 300.733 103.727 301.428 103.159C302.413 102.355 303.432 100.365 304.699 100.465C304.781 100.471 306.135 100.134 306.167 100.059C306.441 99.397 306.852 98.8256 307.451 98.8242C307.934 98.8231 308.089 99.2594 308.084 99.8369C308.075 100.886 309.501 101.804 310.146 102.632C310.761 103.423 310.677 105.369 310.925 106.341C311.015 106.692 311.022 107.108 310.893 107.596C310.827 107.846 310.635 108.053 310.888 108.108C311.326 108.204 312.956 107.476 313.378 107.327C313.418 107.313 313.461 107.311 313.508 107.322C313.99 107.442 315.111 107.883 315.607 107.906C315.739 107.913 315.872 107.965 316.002 108.078C316.162 108.216 316.254 108.388 316.297 108.577C316.439 109.203 317.485 110.451 317.643 111.073C317.673 111.19 318.3 113.288 318.346 113.399C318.429 113.597 318.483 113.842 318.496 114.144C318.5 114.22 318.564 114.282 318.641 114.278C318.949 114.26 319.718 114.238 320.533 114.38C321.869 114.613 321.37 115.83 320.015 115.83H304.894C303.111 115.83 301.659 114.397 301.635 112.614Z" fill="white"/>
<path d="M305.341 105.892C306.618 110.947 302.798 115.853 297.585 115.853H277.872C277.234 115.853 276.769 115.25 276.932 114.633C277.014 114.322 277.244 114.072 277.547 113.964L277.824 113.866C278.79 113.523 279.151 112.346 278.544 111.52L277.88 110.617C277.375 109.931 277.279 109.026 277.629 108.249L278.125 107.148C278.584 106.129 279.617 105.491 280.734 105.538C282.457 105.609 283.816 104.09 283.554 102.387L283.233 100.299C283.131 99.6405 283.217 98.9668 283.478 98.3542L283.715 97.8019C284.065 96.9828 284.822 96.4098 285.705 96.2953C287.184 96.1038 288.173 94.6756 287.832 93.224L287.696 92.6441C287.554 92.0403 287.599 91.4075 287.826 90.8301L288.598 88.8615C288.894 88.105 289.624 87.6074 290.437 87.6074C291.139 87.6074 291.788 87.9802 292.143 88.5865L298.32 99.1607C298.609 99.6565 299.348 99.5785 299.528 99.0332C299.566 98.9198 299.633 98.8185 299.723 98.7399L300.03 98.4719C300.893 97.7181 302.195 97.7713 302.993 98.5931L303.209 98.8148C303.512 99.1271 303.728 99.5138 303.835 99.9359L305.341 105.892Z" fill="#1C2D5E"/>
<path opacity="0.2" d="M304.473 111.422C305.859 113.237 304.565 115.854 302.281 115.854H277.872C277.234 115.854 276.769 115.25 276.932 114.634C277.014 114.323 277.244 114.073 277.547 113.965L278.253 113.715C279.005 113.448 279.287 112.531 278.814 111.888L278.636 111.647C278.066 110.871 278.731 109.795 279.68 109.959C279.81 109.981 279.934 110.027 280.047 110.095L281.028 110.682C282.365 111.483 283.997 110.244 283.585 108.74C283.511 108.469 283.504 108.183 283.565 107.908L283.971 106.077C284.029 105.815 284.152 105.571 284.329 105.368L284.885 104.728C285.194 104.372 285.739 104.351 286.075 104.682L288.154 106.73C288.478 107.049 288.094 107.571 287.693 107.358C287.51 107.26 287.283 107.322 287.174 107.498L286.918 107.911C286.783 108.129 286.746 108.395 286.816 108.642L287.302 110.345C287.834 112.207 289.407 113.584 291.323 113.863L291.982 113.96C292.664 114.059 293.36 113.97 293.995 113.701C295.406 113.103 296.315 111.71 296.292 110.177L296.272 108.758C296.261 108.026 295.86 107.356 295.22 107.001L294.672 106.698C294.178 106.424 293.561 106.52 293.173 106.932C292.492 107.654 291.28 107.32 291.066 106.351L290.329 103.023C290.132 102.137 291.353 101.686 291.779 102.488C292.014 102.929 292.596 103.04 292.976 102.715L293.511 102.256C293.889 101.932 294.416 101.844 294.879 102.026L295.526 102.281C296.667 102.73 297.965 102.286 298.593 101.232L299.052 100.46C299.061 100.445 299.068 100.43 299.073 100.413C299.159 100.155 299.541 100.223 299.532 100.495L299.322 106.986C299.319 107.071 299.325 107.157 299.341 107.241L299.901 110.197C300.034 110.897 300.907 111.148 301.391 110.624C301.507 110.498 301.658 110.409 301.824 110.369L302.144 110.292C302.896 110.11 303.684 110.39 304.154 111.004L304.473 111.422Z" fill="black"/>
<path d="M304.753 113.76C307.01 115.375 311.207 113.883 310.341 111.246C310.191 110.789 309.066 110.978 309.083 110.498C309.147 108.686 309.091 106.597 308.519 106.359C308.066 106.17 306.539 106.673 306.39 106.205C305.845 104.498 305.199 103.085 304.565 103.151C303.823 103.227 304.213 105.211 304.828 107.279C304.933 107.63 303.577 108.312 303.247 108.472C302.674 108.751 303.451 110.099 304.268 111.257C304.482 111.561 303.77 112.156 303.635 112.502C303.54 112.745 304.016 113.231 304.753 113.76Z" fill="#263238"/>
<path opacity="0.2" d="M304.753 113.76C307.01 115.375 311.207 113.883 310.341 111.246C310.191 110.789 309.066 110.978 309.083 110.498C309.147 108.686 309.091 106.597 308.519 106.359C308.066 106.17 306.539 106.673 306.39 106.205C305.845 104.498 305.199 103.085 304.565 103.151C303.823 103.227 304.213 105.211 304.828 107.279C304.933 107.63 303.577 108.312 303.247 108.472C302.674 108.751 303.451 110.099 304.268 111.257C304.482 111.561 303.77 112.156 303.635 112.502C303.54 112.745 304.016 113.231 304.753 113.76Z" fill="white"/>
<path d="M309.903 111.602C308.708 113.85 311.299 117.271 313.317 115.719C313.624 115.482 313.167 114.677 313.536 114.559C314.986 114.097 316.628 113.465 316.654 112.964C316.674 112.562 315.862 111.537 316.184 111.295C317.377 110.397 318.308 109.506 318.072 109.045C317.792 108.501 316.318 109.376 314.853 110.439C314.615 110.612 313.735 109.754 313.52 109.553C313.14 109.199 312.294 110.18 311.612 111.13C311.434 111.379 310.77 110.989 310.464 110.984C310.307 110.982 310.106 111.22 309.903 111.602Z" fill="#263238"/>
<path opacity="0.2" d="M309.903 111.602C308.708 113.85 311.299 117.271 313.317 115.719C313.624 115.482 313.167 114.677 313.536 114.559C314.986 114.097 316.628 113.465 316.654 112.964C316.674 112.562 315.862 111.537 316.184 111.295C317.377 110.397 318.308 109.506 318.072 109.045C317.792 108.501 316.318 109.376 314.853 110.439C314.615 110.612 313.735 109.754 313.52 109.553C313.14 109.199 312.294 110.18 311.612 111.13C311.434 111.379 310.77 110.989 310.464 110.984C310.307 110.982 310.106 111.22 309.903 111.602Z" fill="white"/>
<path d="M307.248 110.282C307.208 113.786 311.457 115.066 314.053 112.714C314.237 112.548 314.359 112.403 314.395 112.289C314.557 111.785 313.42 111.245 313.744 110.826C314.98 109.226 316.289 107.299 315.923 106.723C315.634 106.268 313.939 105.73 314.106 105.216C314.715 103.341 315.04 101.673 314.424 101.341C313.695 100.948 312.753 103.015 311.966 105.289C311.835 105.669 310.173 105.41 309.775 105.352C309.075 105.251 308.902 106.955 308.889 108.512C308.885 108.927 307.851 109.015 307.504 109.243C307.339 109.352 307.254 109.74 307.248 110.282Z" fill="#263238"/>
<path opacity="0.4" d="M307.248 110.282C307.208 113.786 311.457 115.066 314.053 112.714C314.237 112.548 314.359 112.403 314.395 112.289C314.557 111.785 313.42 111.245 313.744 110.826C314.98 109.226 316.289 107.299 315.923 106.723C315.634 106.268 313.939 105.73 314.106 105.216C314.715 103.341 315.04 101.673 314.424 101.341C313.695 100.948 312.753 103.015 311.966 105.289C311.835 105.669 310.173 105.41 309.775 105.352C309.075 105.251 308.902 106.955 308.889 108.512C308.885 108.927 307.851 109.015 307.504 109.243C307.339 109.352 307.254 109.74 307.248 110.282Z" fill="white"/>
</g>
</svg>
