<svg width="304" height="227" viewBox="0 0 304 227" fill="none" xmlns="http://www.w3.org/2000/svg">
<path d="M76.979 88.1043C72.9601 88.1043 71.0692 84.0611 70.9902 83.8909C70.9214 83.7016 70.9262 83.4934 71.0038 83.3075C71.0814 83.1217 71.226 82.9718 71.4089 82.8876C71.5918 82.8034 71.7997 82.7911 71.9914 82.853C72.183 82.915 72.3443 83.0467 72.4433 83.2221C72.4433 83.2768 74.0423 86.5904 77.1006 86.5053C77.3016 86.5166 77.491 86.6031 77.6313 86.7475C77.7715 86.892 77.8523 87.0839 77.8577 87.2852C77.8631 87.4865 77.7926 87.6824 77.6602 87.8341C77.5278 87.9859 77.3433 88.0823 77.1431 88.1043H76.979Z" fill="#FF9100"/>
<path d="M129.504 31.9555C129.154 31.9571 128.805 31.9347 128.458 31.8887C128.354 31.8731 128.255 31.8372 128.165 31.7831C128.075 31.729 127.996 31.6577 127.934 31.5733C127.871 31.4889 127.826 31.3931 127.801 31.2912C127.776 31.1893 127.771 31.0835 127.786 30.9797C127.802 30.8759 127.838 30.7762 127.892 30.6863C127.946 30.5963 128.017 30.5179 128.102 30.4555C128.186 30.3931 128.282 30.348 128.384 30.3227C128.486 30.2973 128.591 30.2923 128.695 30.3079C128.732 30.3079 132.392 30.8247 133.997 28.2163C134.052 28.1269 134.123 28.0491 134.208 27.9875C134.293 27.9258 134.389 27.8814 134.491 27.8568C134.593 27.8323 134.698 27.828 134.802 27.8443C134.906 27.8606 135.005 27.8972 135.094 27.9519C135.184 28.0066 135.262 28.0783 135.323 28.1631C135.385 28.2478 135.429 28.3439 135.454 28.4458C135.478 28.5477 135.483 28.6535 135.466 28.757C135.45 28.8606 135.414 28.9599 135.359 29.0493C133.76 31.5786 130.993 31.9555 129.504 31.9555Z" fill="#FF9100"/>
<path opacity="0.6" d="M129.504 31.9555C129.154 31.9571 128.805 31.9347 128.458 31.8887C128.354 31.8731 128.255 31.8372 128.165 31.7831C128.075 31.729 127.996 31.6577 127.934 31.5733C127.871 31.4889 127.826 31.3931 127.801 31.2912C127.776 31.1893 127.771 31.0835 127.786 30.9797C127.802 30.8759 127.838 30.7762 127.892 30.6863C127.946 30.5963 128.017 30.5179 128.102 30.4555C128.186 30.3931 128.282 30.348 128.384 30.3227C128.486 30.2973 128.591 30.2923 128.695 30.3079C128.732 30.3079 132.392 30.8247 133.997 28.2163C134.052 28.1269 134.123 28.0491 134.208 27.9875C134.293 27.9258 134.389 27.8814 134.491 27.8568C134.593 27.8323 134.698 27.828 134.802 27.8443C134.906 27.8606 135.005 27.8972 135.094 27.9519C135.184 28.0066 135.262 28.0783 135.323 28.1631C135.385 28.2478 135.429 28.3439 135.454 28.4458C135.478 28.5477 135.483 28.6535 135.466 28.757C135.45 28.8606 135.414 28.9599 135.359 29.0493C133.76 31.5786 130.993 31.9555 129.504 31.9555Z" fill="white"/>
<path d="M39.2768 62.4041C37.7342 62.3516 36.2361 61.874 34.9478 61.024C34.8569 60.9657 34.7788 60.8896 34.7183 60.8003C34.6577 60.7109 34.6159 60.6102 34.5955 60.5042C34.575 60.3982 34.5763 60.2892 34.5993 60.1837C34.6223 60.0783 34.6665 59.9786 34.7292 59.8907C34.7919 59.8029 34.8718 59.7286 34.9641 59.6726C35.0563 59.6166 35.159 59.5799 35.2659 59.5647C35.3728 59.5496 35.4816 59.5564 35.5858 59.5846C35.69 59.6128 35.7873 59.6619 35.872 59.7289C35.9024 59.7289 38.9667 61.8022 41.5507 60.1545C41.6392 60.0902 41.7399 60.0446 41.8467 60.0206C41.9534 59.9966 42.064 59.9947 42.1715 60.015C42.279 60.0353 42.3813 60.0773 42.472 60.1386C42.5626 60.1998 42.6398 60.279 42.6988 60.3712C42.7578 60.4634 42.7972 60.5666 42.8148 60.6746C42.8324 60.7826 42.8277 60.8931 42.8011 60.9992C42.7744 61.1053 42.7263 61.2049 42.6598 61.2918C42.5932 61.3786 42.5096 61.4509 42.4141 61.5043C41.4774 62.1015 40.3876 62.4141 39.2768 62.4041Z" fill="#FF9100"/>
<path opacity="0.6" d="M39.2768 62.4041C37.7342 62.3516 36.2361 61.874 34.9478 61.024C34.8569 60.9657 34.7788 60.8896 34.7183 60.8003C34.6577 60.7109 34.6159 60.6102 34.5955 60.5042C34.575 60.3982 34.5763 60.2892 34.5993 60.1837C34.6223 60.0783 34.6665 59.9786 34.7292 59.8907C34.7919 59.8029 34.8718 59.7286 34.9641 59.6726C35.0563 59.6166 35.159 59.5799 35.2659 59.5647C35.3728 59.5496 35.4816 59.5564 35.5858 59.5846C35.69 59.6128 35.7873 59.6619 35.872 59.7289C35.9024 59.7289 38.9667 61.8022 41.5507 60.1545C41.6392 60.0902 41.7399 60.0446 41.8467 60.0206C41.9534 59.9966 42.064 59.9947 42.1715 60.015C42.279 60.0353 42.3813 60.0773 42.472 60.1386C42.5626 60.1998 42.6398 60.279 42.6988 60.3712C42.7578 60.4634 42.7972 60.5666 42.8148 60.6746C42.8324 60.7826 42.8277 60.8931 42.8011 60.9992C42.7744 61.1053 42.7263 61.2049 42.6598 61.2918C42.5932 61.3786 42.5096 61.4509 42.4141 61.5043C41.4774 62.1015 40.3876 62.4141 39.2768 62.4041Z" fill="white"/>
<path d="M247.839 41.0816C246.299 41.0401 244.8 40.5775 243.504 39.744C243.33 39.6239 243.21 39.4395 243.172 39.2314C243.134 39.0233 243.18 38.8086 243.3 38.6344C243.42 38.4603 243.605 38.341 243.813 38.3028C244.021 38.2646 244.236 38.3106 244.41 38.4307C244.44 38.4307 247.511 40.498 250.095 38.8564C250.183 38.8001 250.281 38.7617 250.384 38.7435C250.487 38.7252 250.593 38.7274 250.695 38.75C250.797 38.7726 250.894 38.8151 250.98 38.8751C251.066 38.935 251.139 39.0113 251.195 39.0996C251.251 39.1878 251.29 39.2862 251.308 39.3893C251.326 39.4923 251.324 39.598 251.301 39.7002C251.279 39.8023 251.236 39.8991 251.176 39.9849C251.116 40.0706 251.04 40.1437 250.952 40.2C250.022 40.7895 248.94 41.0958 247.839 41.0816Z" fill="#FF9100"/>
<path opacity="0.6" d="M247.839 41.0816C246.299 41.0401 244.8 40.5775 243.504 39.744C243.33 39.6239 243.21 39.4395 243.172 39.2314C243.134 39.0233 243.18 38.8086 243.3 38.6344C243.42 38.4603 243.605 38.341 243.813 38.3028C244.021 38.2646 244.236 38.3106 244.41 38.4307C244.44 38.4307 247.511 40.498 250.095 38.8564C250.183 38.8001 250.281 38.7617 250.384 38.7435C250.487 38.7252 250.593 38.7274 250.695 38.75C250.797 38.7726 250.894 38.8151 250.98 38.8751C251.066 38.935 251.139 39.0113 251.195 39.0996C251.251 39.1878 251.29 39.2862 251.308 39.3893C251.326 39.4923 251.324 39.598 251.301 39.7002C251.279 39.8023 251.236 39.8991 251.176 39.9849C251.116 40.0706 251.04 40.1437 250.952 40.2C250.022 40.7895 248.94 41.0958 247.839 41.0816Z" fill="white"/>
<path d="M150.06 103.882C146.333 103.882 144.303 100.27 144.211 100.106C144.109 99.9209 144.084 99.7023 144.143 99.4988C144.202 99.2953 144.339 99.1234 144.524 99.021C144.71 98.9186 144.928 98.8941 145.132 98.9528C145.335 99.0115 145.507 99.1487 145.61 99.3341C145.61 99.3828 147.434 102.569 150.474 102.259C150.677 102.252 150.875 102.322 151.029 102.456C151.182 102.589 151.279 102.776 151.3 102.978C151.321 103.181 151.264 103.383 151.141 103.546C151.018 103.708 150.838 103.817 150.638 103.852C150.455 103.87 150.255 103.882 150.06 103.882Z" fill="#FF9100"/>
<path opacity="0.6" d="M150.06 103.882C146.333 103.882 144.303 100.27 144.211 100.106C144.109 99.9209 144.084 99.7023 144.143 99.4988C144.202 99.2953 144.339 99.1234 144.524 99.021C144.71 98.9186 144.928 98.8941 145.132 98.9528C145.335 99.0115 145.507 99.1487 145.61 99.3341C145.61 99.3828 147.434 102.569 150.474 102.259C150.677 102.252 150.875 102.322 151.029 102.456C151.182 102.589 151.279 102.776 151.3 102.978C151.321 103.181 151.264 103.383 151.141 103.546C151.018 103.708 150.838 103.817 150.638 103.852C150.455 103.87 150.255 103.882 150.06 103.882Z" fill="white"/>
<path d="M48.0319 120.122C47.8383 120.12 47.6519 120.048 47.5076 119.919C47.3633 119.79 47.271 119.612 47.2479 119.42C47.2248 119.228 47.2725 119.034 47.3821 118.874C47.4917 118.715 47.6557 118.6 47.8435 118.553C47.8799 118.553 51.4489 117.611 51.9353 114.583C51.9521 114.479 51.989 114.38 52.0441 114.291C52.0992 114.202 52.1712 114.125 52.2562 114.063C52.3412 114.002 52.4374 113.958 52.5393 113.934C52.6413 113.91 52.7469 113.906 52.8503 113.923C52.9537 113.94 53.0528 113.977 53.1419 114.032C53.231 114.087 53.3084 114.159 53.3697 114.244C53.431 114.329 53.4749 114.425 53.499 114.527C53.523 114.629 53.5268 114.735 53.51 114.838C52.8595 118.918 48.415 120.055 48.2265 120.103C48.1624 120.115 48.0972 120.122 48.0319 120.122Z" fill="#FF9100"/>
<path opacity="0.6" d="M48.0319 120.122C47.8383 120.12 47.6519 120.048 47.5076 119.919C47.3633 119.79 47.271 119.612 47.2479 119.42C47.2248 119.228 47.2725 119.034 47.3821 118.874C47.4917 118.715 47.6557 118.6 47.8435 118.553C47.8799 118.553 51.4489 117.611 51.9353 114.583C51.9521 114.479 51.989 114.38 52.0441 114.291C52.0992 114.202 52.1712 114.125 52.2562 114.063C52.3412 114.002 52.4374 113.958 52.5393 113.934C52.6413 113.91 52.7469 113.906 52.8503 113.923C52.9537 113.94 53.0528 113.977 53.1419 114.032C53.231 114.087 53.3084 114.159 53.3697 114.244C53.431 114.329 53.4749 114.425 53.499 114.527C53.523 114.629 53.5268 114.735 53.51 114.838C52.8595 118.918 48.415 120.055 48.2265 120.103C48.1624 120.115 48.0972 120.122 48.0319 120.122Z" fill="black"/>
<path d="M225.568 64.7024C225.369 64.7092 225.175 64.6413 225.023 64.512C224.872 64.3828 224.775 64.2016 224.75 64.004C224.726 63.8065 224.776 63.607 224.892 63.4448C225.007 63.2826 225.179 63.1695 225.373 63.1277C225.41 63.1277 228.979 62.1914 229.465 59.1635C229.475 59.0539 229.508 58.9475 229.56 58.851C229.613 58.7545 229.685 58.6699 229.772 58.6024C229.859 58.5349 229.959 58.4861 230.066 58.4589C230.173 58.4317 230.284 58.4267 230.392 58.4442C230.501 58.4618 230.605 58.5015 230.698 58.5609C230.79 58.6203 230.87 58.6981 230.931 58.7895C230.992 58.8809 231.034 58.984 231.054 59.0923C231.074 59.2005 231.071 59.3117 231.046 59.4189C230.389 63.4986 225.945 64.6355 225.756 64.6781C225.695 64.6951 225.632 64.7033 225.568 64.7024Z" fill="#FF9100"/>
<path opacity="0.6" d="M225.568 64.7024C225.369 64.7092 225.175 64.6413 225.023 64.512C224.872 64.3828 224.775 64.2016 224.75 64.004C224.726 63.8065 224.776 63.607 224.892 63.4448C225.007 63.2826 225.179 63.1695 225.373 63.1277C225.41 63.1277 228.979 62.1914 229.465 59.1635C229.475 59.0539 229.508 58.9475 229.56 58.851C229.613 58.7545 229.685 58.6699 229.772 58.6024C229.859 58.5349 229.959 58.4861 230.066 58.4589C230.173 58.4317 230.284 58.4267 230.392 58.4442C230.501 58.4618 230.605 58.5015 230.698 58.5609C230.79 58.6203 230.87 58.6981 230.931 58.7895C230.992 58.8809 231.034 58.984 231.054 59.0923C231.074 59.2005 231.071 59.3117 231.046 59.4189C230.389 63.4986 225.945 64.6355 225.756 64.6781C225.695 64.6951 225.632 64.7033 225.568 64.7024Z" fill="black"/>
<path d="M258.236 95.0173H258.102C257.907 94.9808 253.396 94.154 252.466 90.1533C252.442 90.0503 252.438 89.9434 252.456 89.8391C252.473 89.7347 252.512 89.6349 252.568 89.5454C252.625 89.456 252.699 89.3787 252.786 89.3182C252.872 89.2576 252.97 89.2149 253.074 89.1927C253.177 89.1693 253.284 89.1666 253.388 89.1845C253.492 89.2025 253.591 89.2408 253.68 89.2973C253.77 89.3537 253.847 89.4273 253.908 89.5137C253.968 89.6001 254.012 89.6976 254.035 89.8007C254.728 92.7799 258.351 93.4487 258.388 93.4487C258.579 93.4896 258.749 93.5992 258.866 93.7567C258.982 93.9143 259.037 94.1089 259.019 94.3039C259.002 94.499 258.914 94.6811 258.772 94.8158C258.63 94.9506 258.444 95.0287 258.248 95.0356L258.236 95.0173Z" fill="#FF9100"/>
<path d="M243.984 124.329C242.592 124.351 241.238 123.874 240.166 122.985C240.077 122.921 240.001 122.84 239.945 122.746C239.889 122.651 239.853 122.546 239.839 122.437C239.825 122.328 239.834 122.218 239.865 122.112C239.896 122.007 239.948 121.909 240.019 121.825C240.09 121.741 240.177 121.672 240.276 121.624C240.374 121.575 240.481 121.547 240.591 121.542C240.701 121.536 240.81 121.554 240.913 121.593C241.016 121.632 241.109 121.692 241.187 121.769C243.54 123.727 246.842 122.085 246.878 122.067C247.067 121.97 247.286 121.953 247.488 122.018C247.69 122.083 247.858 122.225 247.955 122.414C248.051 122.602 248.069 122.822 248.004 123.024C247.939 123.225 247.797 123.393 247.608 123.49C246.475 124.029 245.239 124.315 243.984 124.329Z" fill="#FF9100"/>
<path d="M206.72 24.544C206.582 24.5451 206.445 24.5094 206.325 24.4407C206.161 24.3495 202.191 22.0512 202.677 17.9472C202.701 17.7368 202.808 17.5446 202.974 17.4129C203.14 17.2812 203.351 17.2208 203.562 17.245C203.772 17.2692 203.964 17.376 204.096 17.5419C204.228 17.7078 204.288 17.9192 204.264 18.1296C203.917 21.1696 207.103 23.0362 207.134 23.0544C207.288 23.1419 207.41 23.2787 207.478 23.4429C207.546 23.6072 207.557 23.7895 207.509 23.9608C207.462 24.1322 207.358 24.2827 207.215 24.3883C207.072 24.494 206.898 24.5488 206.72 24.544Z" fill="#FF9100"/>
<path d="M47.9044 27.7846C47.7998 27.789 47.6953 27.7727 47.597 27.7368C47.4987 27.7008 47.4084 27.6458 47.3314 27.575C47.2543 27.5041 47.1919 27.4188 47.1479 27.3238C47.1038 27.2289 47.0788 27.1262 47.0744 27.0216C47.07 26.917 47.0863 26.8125 47.1223 26.7142C47.1582 26.6159 47.2132 26.5256 47.2841 26.4486C47.3549 26.3715 47.4403 26.3091 47.5352 26.2651C47.6302 26.221 47.7329 26.196 47.8375 26.1916C50.8775 25.9241 52.0935 22.4342 52.0935 22.3977C52.1641 22.2037 52.3073 22.0447 52.4929 21.9542C52.6785 21.8637 52.892 21.8489 53.0883 21.9127C53.2847 21.9766 53.4485 22.1142 53.5454 22.2966C53.6422 22.4789 53.6644 22.6918 53.6074 22.8902C53.5527 23.0787 52.0935 27.4259 47.9773 27.7542L47.9044 27.7846Z" fill="#FF9100"/>
<path d="M107.227 51.8432C105.068 52.8524 103.165 57.7043 103.786 64.672C104.406 71.6396 89.9718 66.7513 88.008 74.558C84.4634 88.688 108.23 97.1817 118.359 88.688C124.628 83.4348 130.519 66.119 129.656 56.6707C128.732 46.511 112.972 39.6953 107.227 51.8432Z" fill="#263238"/>
<path d="M130.033 69.6698C130.3 69.5907 130.689 69.4752 131.024 69.3657L132.07 69.0131C132.769 68.7699 133.462 68.5024 134.149 68.2166C135.518 67.6547 136.853 67.0152 138.15 66.3014C140.689 64.9462 142.975 63.1606 144.904 61.024C146.625 58.9811 147.859 56.1965 148.826 53.3389C149.318 51.904 149.732 50.4266 150.085 48.9248C150.437 47.423 150.772 45.8848 151.027 44.4073L153.508 44.5593C153.512 47.8473 153.155 51.1258 152.444 54.336C152.082 55.9809 151.592 57.595 150.978 59.1635C150.342 60.8192 149.49 62.3832 148.443 63.8147C146.301 66.5605 143.646 68.8631 140.624 70.5939C139.168 71.4546 137.657 72.2183 136.101 72.88C135.322 73.2083 134.538 73.488 133.735 73.7859C133.34 73.9258 132.939 74.0595 132.519 74.1811C132.1 74.3027 131.729 74.4182 131.23 74.5398L130.033 69.6698Z" fill="#7F3E3B"/>
<path d="M153.496 45.3924L154.529 41.6775L150.425 41.9936C150.425 41.9936 150.133 44.4257 151.55 45.8909L153.496 45.3924Z" fill="#7F3E3B"/>
<path d="M155.143 37.3546L151.398 38.3335L150.425 41.9937L154.529 41.6775L155.143 37.3546Z" fill="#7F3E3B"/>
<path d="M125.388 70.6182C127.279 68.8976 132.076 67.5782 132.076 67.5782L137.335 75.4822C137.335 75.4822 131.334 79.489 128.787 78.5587C126.136 77.6346 123.625 72.2173 125.388 70.6182Z" fill="#FF9100"/>
<path d="M108.066 183.044L111.343 186.643L120.749 179.943L117.472 176.343L108.066 183.044Z" fill="#7F3E3B"/>
<path d="M89.5703 197.265L93.9662 199.447L100.429 189.969L96.0334 187.786L89.5703 197.265Z" fill="#7F3E3B"/>
<path d="M94.6653 198.906L91.2727 194.559C91.2156 194.483 91.1329 194.431 91.0399 194.412C90.947 194.393 90.8503 194.408 90.7681 194.456L86.9437 196.645C86.8491 196.702 86.7678 196.78 86.7052 196.871C86.6426 196.963 86.6002 197.066 86.5806 197.176C86.5611 197.285 86.5649 197.397 86.5919 197.504C86.6188 197.612 86.6683 197.713 86.737 197.8C87.953 199.295 88.6036 199.958 90.0993 201.873C91.0113 203.047 92.8717 205.783 94.1364 207.406C95.401 209.03 97.0791 207.868 96.696 207.078C94.9815 203.533 94.8721 201.43 94.9329 199.739C94.9451 199.439 94.8503 199.144 94.6653 198.906Z" fill="#263238"/>
<path d="M112.322 186.71L110.085 181.335C110.045 181.239 109.975 181.158 109.884 181.107C109.794 181.055 109.689 181.035 109.586 181.049L104.844 181.657C104.731 181.669 104.622 181.708 104.527 181.77C104.432 181.832 104.353 181.916 104.297 182.014C104.241 182.113 104.208 182.223 104.203 182.337C104.198 182.45 104.219 182.563 104.266 182.667C105.081 184.533 105.573 185.403 106.558 187.768C107.166 189.221 108.577 193.039 109.41 195.064C110.243 197.088 112.383 196.608 112.225 195.72C111.513 191.744 111.757 189.178 112.346 187.616C112.402 187.471 112.429 187.316 112.425 187.16C112.42 187.005 112.386 186.852 112.322 186.71Z" fill="#263238"/>
<path opacity="0.2" d="M120.742 179.943L115.897 183.396L112.23 180.076L117.465 176.343L120.742 179.943Z" fill="black"/>
<path opacity="0.2" d="M96.0337 187.786L100.43 189.969L97.0916 194.857L92.6958 192.668L96.0337 187.786Z" fill="black"/>
<path d="M132.009 71.2324C132.009 71.2324 132.155 71.0135 129.492 100.064L109.61 101.456C109.379 93.3454 109.987 87.618 106.199 70.9527C108.993 70.3902 111.823 70.0326 114.669 69.8826C117.682 69.6817 120.705 69.6979 123.716 69.9313C127.601 70.3021 132.009 71.2324 132.009 71.2324Z" fill="#FF9100"/>
<path d="M107.695 75.768C106.218 75.087 104.922 74.3574 103.579 73.5853C102.235 72.8131 100.964 71.9862 99.6998 71.1107C97.1257 69.3632 94.7325 67.3631 92.5558 65.1401L91.7532 64.2707L91.5465 64.0518C91.428 63.9156 91.3164 63.7736 91.2121 63.6262C91.0241 63.3581 90.8612 63.0731 90.7257 62.775C90.3231 61.8249 90.1163 60.8034 90.1177 59.7715C90.1312 58.129 90.3518 56.4948 90.7743 54.9075C91.5462 51.9369 92.6177 49.0523 93.9724 46.2982L96.295 47.1981C95.9362 48.5782 95.5958 50.0131 95.2918 51.4176C94.9878 52.8221 94.7324 54.2387 94.5622 55.6249C94.3648 56.9284 94.3118 58.2497 94.4041 59.5648C94.4345 60.02 94.5499 60.4654 94.7446 60.8781C94.7446 60.9206 94.8054 60.9693 94.8236 60.9753C94.8418 60.9814 94.8236 60.9753 94.8236 60.9753L95.0121 61.1517L95.7599 61.863C97.847 63.7532 100.084 65.4713 102.448 67.0006C103.634 67.7849 104.88 68.5024 106.096 69.2259C107.312 69.9494 108.619 70.6365 109.805 71.2384L107.695 75.768Z" fill="#7F3E3B"/>
<path d="M114.025 72.0653C111.769 68.922 107.337 68.9706 107.337 68.9706L101.992 76.8746C101.992 76.8746 107.957 80.9361 110.504 80.0301C113.204 79.0695 115.417 73.9988 114.025 72.0653Z" fill="#FF9100"/>
<path d="M123.716 69.9312L114.669 69.8826C113.282 70.4419 112.48 74.0474 121.661 77.0995C128.026 73.4819 124.64 70.2656 123.716 69.9312Z" fill="white"/>
<path d="M115.617 59.6986C116.171 62.6109 116.712 67.9492 114.669 69.8826C114.669 69.8826 115.459 72.8436 121.661 77.0996C126.008 72.7402 123.716 69.9312 123.716 69.9312C120.475 69.1348 120.573 66.7271 121.15 64.4592L115.617 59.6986Z" fill="#7F3E3B"/>
<path d="M134.368 88.615H134.271C133.95 88.5887 133.653 88.4363 133.445 88.1913C133.236 87.9463 133.133 87.6286 133.158 87.3078C133.377 84.5961 131.334 82.5472 128.987 80.1699C126.294 77.4522 123.236 74.3696 123.114 69.5725C123.106 69.25 123.226 68.9375 123.449 68.7037C123.671 68.47 123.977 68.3341 124.3 68.3261C124.622 68.318 124.935 68.4384 125.168 68.6607C125.402 68.8831 125.538 69.1892 125.546 69.5117C125.643 73.3421 128.221 75.9443 130.714 78.4614C133.207 80.9785 135.888 83.6781 135.578 87.5024C135.552 87.8056 135.414 88.0881 135.19 88.2941C134.966 88.5001 134.673 88.6146 134.368 88.615Z" fill="#263238"/>
<path d="M116.596 94.768C116.498 94.7677 116.4 94.7555 116.304 94.7315C115.992 94.6539 115.723 94.4554 115.556 94.1795C115.39 93.9036 115.339 93.573 115.417 93.2602C116.59 88.4935 115.052 84.7482 113.422 80.8083C111.963 77.2698 110.455 73.6096 111.185 69.3293C111.248 69.0194 111.429 68.7462 111.69 68.5677C111.951 68.3892 112.272 68.3194 112.583 68.3732C112.895 68.427 113.174 68.6001 113.36 68.8558C113.546 69.1115 113.625 69.4296 113.58 69.7427C112.972 73.3299 114.28 76.5159 115.666 79.8842C117.295 83.8301 119.138 88.305 117.776 93.8682C117.706 94.1273 117.552 94.3561 117.339 94.5188C117.126 94.6816 116.865 94.7692 116.596 94.768Z" fill="#263238"/>
<path opacity="0.2" d="M120.007 63.4561L117.575 63.7418C117.693 64.3966 117.928 65.0247 118.268 65.5962C118.749 66.3197 119.819 66.6359 120.877 66.6663C120.875 65.9141 120.978 65.1653 121.181 64.441L120.007 63.4561Z" fill="black"/>
<path d="M110.236 56.768C112.018 61.3037 112.668 63.2615 115.775 64.8787C120.445 67.3107 125.625 64.1431 125.236 59.1696C124.889 54.6887 122.038 48.025 116.912 47.648C115.784 47.56 114.651 47.7619 113.622 48.2345C112.593 48.707 111.702 49.4346 111.034 50.3482C110.365 51.2617 109.941 52.331 109.801 53.4545C109.662 54.5781 109.811 55.7187 110.236 56.768Z" fill="#7F3E3B"/>
<path d="M115.119 46.9914C118.578 49.1194 115.617 61.6381 109.762 60.9754C103.907 60.3127 110.005 43.848 115.119 46.9914Z" fill="#263238"/>
<path d="M114.991 47.04C112.383 48.7728 114.164 51.7885 122.956 50.0009C122.956 49.9949 119.32 44.1581 114.991 47.04Z" fill="#263238"/>
<path d="M110.869 61.176C111.253 62.0352 111.961 62.7081 112.839 63.0486C114.012 63.4864 114.699 62.4406 114.468 61.3037C114.255 60.264 113.392 58.7744 112.176 58.8352C111.91 58.8531 111.653 58.9371 111.428 59.0795C111.203 59.222 111.017 59.4184 110.888 59.651C110.758 59.8835 110.688 60.1448 110.685 60.4111C110.681 60.6774 110.745 60.9403 110.869 61.176Z" fill="#7F3E3B"/>
<path d="M129.504 100.064C129.504 100.064 140.144 134.799 141.001 149.743C141.889 165.29 118.803 183.737 118.803 183.737L113.058 177.432C113.058 177.432 131.814 161.502 129.243 149.962C125.686 134.057 114.912 101.085 114.912 101.085L129.504 100.064Z" fill="#263238"/>
<path opacity="0.2" d="M122.871 111.433C121.898 108.393 119.733 110.436 118.979 113.659C120.481 118.523 122.22 124.213 123.874 129.91C124.512 124.864 124.774 117.392 122.871 111.433Z" fill="black"/>
<path d="M111.501 177.128L118.791 184.649L121.904 182.928L114.2 174.544L111.501 177.128Z" fill="#FF9100"/>
<path d="M124.245 100.435C124.245 100.435 121.205 134.483 118.165 153.446C115.702 168.768 98.9763 193.793 98.9763 193.793L92.8477 190.941C92.8477 190.941 104.09 164.147 105.841 153.732C111.459 120.395 103.871 110.777 109.616 101.444L124.245 100.435Z" fill="#263238"/>
<path d="M92.416 191.008L99.329 194.401L101.597 191.586L93.5104 187.774L92.416 191.008Z" fill="#FF9100"/>
<path d="M109.233 100.313L108.461 102.137C108.4 102.277 108.571 102.411 108.802 102.392L129.656 100.933C129.832 100.933 129.978 100.824 129.978 100.708L130.033 98.8842C130.033 98.7626 129.875 98.6714 129.68 98.6836L109.543 100.094C109.476 100.097 109.411 100.118 109.356 100.157C109.301 100.196 109.258 100.25 109.233 100.313Z" fill="white"/>
<path d="M112.091 102.368L111.556 102.404C111.446 102.404 111.361 102.362 111.361 102.295L111.453 99.9664C111.453 99.8995 111.55 99.8326 111.653 99.8265L112.194 99.79C112.304 99.79 112.389 99.8326 112.383 99.8995L112.292 102.228C112.292 102.307 112.2 102.368 112.091 102.368Z" fill="#263238"/>
<path d="M128.154 101.249L127.613 101.286C127.504 101.286 127.419 101.243 127.425 101.176L127.516 98.8477C127.516 98.7808 127.607 98.72 127.716 98.7079L128.252 98.6714C128.361 98.6714 128.446 98.714 128.446 98.7808L128.355 101.116C128.349 101.182 128.288 101.243 128.154 101.249Z" fill="#263238"/>
<path d="M120.123 101.815L119.582 101.851C119.478 101.851 119.393 101.809 119.393 101.742L119.484 99.4071C119.484 99.3402 119.575 99.2794 119.685 99.2733L120.226 99.2368C120.329 99.2368 120.415 99.2794 120.415 99.3463L120.323 101.675C120.323 101.76 120.232 101.803 120.123 101.815Z" fill="#263238"/>
<path d="M117.563 55.0656C117.271 55.1629 117.149 55.6007 117.295 56.0506L118.359 55.7101C118.213 55.2602 117.855 54.944 117.563 55.0656Z" fill="#263238"/>
<path d="M122.208 53.5942C121.91 53.6915 121.788 54.1353 121.934 54.5853L123.004 54.2387C122.816 53.7888 122.469 53.503 122.208 53.5942Z" fill="#263238"/>
<path d="M122.056 53.6612L123.035 53.0045C123.035 53.0045 122.755 54.026 122.056 53.6612Z" fill="#263238"/>
<path d="M120.992 55.4304C121.603 56.1813 122.315 56.8442 123.108 57.4003C122.961 57.5998 122.772 57.7647 122.555 57.8834C122.337 58.0021 122.097 58.0717 121.849 58.0874L120.992 55.4304Z" fill="#630F0F"/>
<path d="M121.065 59.9783C121.083 59.9628 121.096 59.9425 121.102 59.9199C121.109 59.8972 121.108 59.8731 121.101 59.8506C121.092 59.8216 121.071 59.7976 121.044 59.784C121.016 59.7703 120.985 59.768 120.955 59.7776C120.49 59.9387 119.994 59.9884 119.506 59.923C119.018 59.8575 118.553 59.6786 118.147 59.4007C118.136 59.3898 118.123 59.3812 118.109 59.3754C118.095 59.3695 118.08 59.3665 118.064 59.3665C118.049 59.3665 118.034 59.3695 118.02 59.3754C118.006 59.3812 117.993 59.3898 117.982 59.4007C117.971 59.411 117.961 59.4236 117.955 59.4377C117.949 59.4519 117.945 59.4672 117.945 59.4828C117.945 59.4983 117.949 59.5136 117.955 59.5278C117.961 59.5419 117.971 59.5546 117.982 59.5648C118.417 59.8762 118.921 60.0775 119.45 60.1517C119.979 60.2258 120.519 60.1705 121.022 59.9904L121.065 59.9783Z" fill="#263238"/>
<path d="M116.025 54.792C116.056 54.7663 116.079 54.7326 116.092 54.6947C116.175 54.4117 116.326 54.1532 116.532 53.9414C116.737 53.7297 116.991 53.5709 117.271 53.4787C117.301 53.4715 117.329 53.4586 117.353 53.4406C117.378 53.4227 117.398 53.4001 117.414 53.3741C117.43 53.3481 117.441 53.3193 117.445 53.2893C117.45 53.2592 117.449 53.2286 117.441 53.199C117.434 53.1695 117.421 53.1416 117.403 53.1171C117.385 53.0925 117.363 53.0718 117.337 53.056C117.311 53.0402 117.282 53.0296 117.252 53.025C117.222 53.0203 117.191 53.0216 117.162 53.0288C116.809 53.1398 116.489 53.3334 116.226 53.5936C115.964 53.8538 115.768 54.173 115.654 54.5245C115.635 54.5825 115.639 54.6458 115.666 54.7005C115.694 54.7552 115.742 54.7969 115.8 54.8163C115.836 54.8331 115.876 54.8397 115.916 54.8355C115.955 54.8312 115.993 54.8161 116.025 54.792Z" fill="#263238"/>
<path d="M123.308 51.7885C123.321 51.7817 123.332 51.7711 123.339 51.7581C123.358 51.7343 123.373 51.7068 123.381 51.6773C123.39 51.6478 123.393 51.6169 123.389 51.5863C123.386 51.5557 123.377 51.5261 123.362 51.4992C123.347 51.4724 123.326 51.4488 123.302 51.4298C123.018 51.1945 122.681 51.0304 122.321 50.9511C121.96 50.8718 121.586 50.8796 121.229 50.9738C121.199 50.9834 121.172 50.9988 121.149 51.019C121.126 51.0393 121.106 51.0641 121.093 51.0919C121.079 51.1197 121.071 51.1499 121.07 51.1808C121.068 51.2117 121.072 51.2426 121.083 51.2717C121.104 51.3288 121.146 51.3757 121.2 51.4029C121.254 51.43 121.317 51.4353 121.375 51.4176C121.658 51.3449 121.954 51.3412 122.239 51.4068C122.523 51.4724 122.788 51.6054 123.01 51.7946C123.053 51.8289 123.106 51.8471 123.16 51.846C123.215 51.8449 123.267 51.8245 123.308 51.7885Z" fill="#263238"/>
<path d="M98.9519 48.0918C98.8043 48.0915 98.6594 48.0516 98.5324 47.9763L80.037 36.5824C79.8749 36.463 79.7636 36.287 79.7252 36.0893C79.6868 35.8916 79.7241 35.6867 79.8297 35.5153C79.9353 35.3438 80.1016 35.2183 80.2954 35.1637C80.4892 35.1091 80.6965 35.1294 80.8761 35.2205L99.3714 46.6144C99.5205 46.7048 99.6359 46.8417 99.6996 47.0041C99.7634 47.1664 99.7722 47.3452 99.7245 47.5129C99.6769 47.6807 99.5755 47.8282 99.4359 47.9328C99.2963 48.0374 99.1263 48.0932 98.9519 48.0918Z" fill="#FF9100"/>
<path d="M84.2262 37.841C85.2659 37.7984 86.336 37.7498 86.4758 36.8135C86.6156 35.8771 85.6124 35.5184 84.6518 35.1658L84.3904 35.0685C84.3904 34.9773 84.3478 34.8861 84.3235 34.801L84.5363 34.5639C85.2172 33.8099 85.9286 33.0317 85.3753 32.2899C84.822 31.5482 83.8736 31.9859 82.9433 32.4176L82.6576 32.5514C82.5785 32.4967 82.4995 32.4541 82.4144 32.4055C82.3292 32.3568 82.4144 32.2109 82.4144 32.1258C82.3657 31.0922 82.3171 30.0221 81.3868 29.8823C80.4566 29.7424 80.0918 30.7456 79.7392 31.7063C79.7088 31.7853 79.6784 31.8765 79.6419 31.9677L79.3683 32.0346L79.1373 31.8279C78.3833 31.1408 77.6051 30.4355 76.8633 30.9827C76.1216 31.5299 76.5593 32.4845 76.991 33.4147L77.1248 33.7005C77.0718 33.7768 77.023 33.8559 76.9789 33.9376H76.6992C75.6656 33.9863 74.5894 34.0349 74.4496 34.9712C74.3097 35.9075 75.319 36.2663 76.2736 36.6189L76.535 36.7162C76.535 36.8074 76.5776 36.8986 76.6019 36.9837C76.5289 37.0688 76.456 37.1539 76.3891 37.2208C75.7081 37.9747 75.0029 38.7469 75.5501 39.4947C76.0973 40.2426 77.0518 39.7927 77.982 39.3671L78.2739 39.2333L78.511 39.3792C78.511 39.4765 78.511 39.5738 78.511 39.6589C78.5597 40.6925 78.6083 41.7626 79.5385 41.9024C80.4688 42.0423 80.8396 41.0391 81.1923 40.0784C81.1923 40.0055 81.2531 39.9143 81.2835 39.817C81.376 39.8004 81.4674 39.7781 81.5571 39.7501L81.7942 39.9629C82.542 40.6439 83.3203 41.3552 84.0681 40.808C84.816 40.2608 84.366 39.3063 83.9344 38.376C83.8979 38.297 83.8492 38.1936 83.8067 38.0903L83.9526 37.8531L84.2262 37.841Z" fill="#FF9100"/>
<path opacity="0.7" d="M84.2262 37.841C85.2659 37.7984 86.336 37.7498 86.4758 36.8135C86.6156 35.8771 85.6124 35.5184 84.6518 35.1658L84.3904 35.0685C84.3904 34.9773 84.3478 34.8861 84.3235 34.801L84.5363 34.5639C85.2172 33.8099 85.9286 33.0317 85.3753 32.2899C84.822 31.5482 83.8736 31.9859 82.9433 32.4176L82.6576 32.5514C82.5785 32.4967 82.4995 32.4541 82.4144 32.4055C82.3292 32.3568 82.4144 32.2109 82.4144 32.1258C82.3657 31.0922 82.3171 30.0221 81.3868 29.8823C80.4566 29.7424 80.0918 30.7456 79.7392 31.7063C79.7088 31.7853 79.6784 31.8765 79.6419 31.9677L79.3683 32.0346L79.1373 31.8279C78.3833 31.1408 77.6051 30.4355 76.8633 30.9827C76.1216 31.5299 76.5593 32.4845 76.991 33.4147L77.1248 33.7005C77.0718 33.7768 77.023 33.8559 76.9789 33.9376H76.6992C75.6656 33.9863 74.5894 34.0349 74.4496 34.9712C74.3097 35.9075 75.319 36.2663 76.2736 36.6189L76.535 36.7162C76.535 36.8074 76.5776 36.8986 76.6019 36.9837C76.5289 37.0688 76.456 37.1539 76.3891 37.2208C75.7081 37.9747 75.0029 38.7469 75.5501 39.4947C76.0973 40.2426 77.0518 39.7927 77.982 39.3671L78.2739 39.2333L78.511 39.3792C78.511 39.4765 78.511 39.5738 78.511 39.6589C78.5597 40.6925 78.6083 41.7626 79.5385 41.9024C80.4688 42.0423 80.8396 41.0391 81.1923 40.0784C81.1923 40.0055 81.2531 39.9143 81.2835 39.817C81.376 39.8004 81.4674 39.7781 81.5571 39.7501L81.7942 39.9629C82.542 40.6439 83.3203 41.3552 84.0681 40.808C84.816 40.2608 84.366 39.3063 83.9344 38.376C83.8979 38.297 83.8492 38.1936 83.8067 38.0903L83.9526 37.8531L84.2262 37.841Z" fill="white"/>
<path d="M93.4314 48.2864L92.6714 43.4224L97.6327 45.8544C97.4457 46.6732 97.023 47.4194 96.4167 48.0006C96.1671 48.2847 95.8424 48.4926 95.4799 48.6001C95.1174 48.7077 94.7318 48.7106 94.3677 48.6086L93.4314 48.2864Z" fill="#7F3E3B"/>
<path d="M95.456 41.0391L97.9975 43.2704L97.6327 45.824L92.6714 43.4163L95.456 41.0391Z" fill="#7F3E3B"/>
<path d="M96.2586 201.235C96.3102 201.198 96.3589 201.157 96.4045 201.113C96.4566 201.066 96.4949 201.005 96.5153 200.938C96.5356 200.87 96.5373 200.799 96.52 200.73C96.3741 200.122 94.696 199.514 94.5075 199.472C94.4867 199.463 94.4636 199.461 94.4416 199.466C94.4196 199.472 94.4001 199.484 94.3859 199.502C94.3734 199.521 94.3667 199.543 94.3667 199.566C94.3667 199.589 94.3734 199.611 94.3859 199.63C94.6596 200.238 95.2068 201.235 95.8208 201.338C95.9746 201.361 96.1313 201.324 96.2586 201.235ZM94.696 199.788C95.3587 200.037 96.216 200.463 96.2951 200.785C96.3008 200.815 96.2981 200.847 96.2874 200.875C96.2767 200.904 96.2583 200.93 96.2343 200.949C96.188 201.008 96.1273 201.054 96.0581 201.083C95.9889 201.112 95.9135 201.122 95.8391 201.113C95.5047 201.052 95.0912 200.566 94.696 199.788Z" fill="#FF9100"/>
<path d="M96.5684 199.612C96.6081 199.588 96.6431 199.557 96.6717 199.52C96.731 199.449 96.7635 199.358 96.7635 199.265C96.7635 199.172 96.731 199.082 96.6717 199.01C96.6265 198.933 96.565 198.867 96.4914 198.816C96.4179 198.766 96.3341 198.732 96.2461 198.718C95.5469 198.59 94.4221 199.454 94.3796 199.49C94.3638 199.503 94.3516 199.52 94.3442 199.539C94.3368 199.558 94.3343 199.579 94.337 199.599C94.3404 199.619 94.3482 199.637 94.3598 199.653C94.3714 199.669 94.3865 199.682 94.4039 199.691C95.1111 199.928 95.8803 199.899 96.5684 199.612ZM94.7444 199.52C95.1607 199.181 95.6734 198.981 96.2097 198.949C96.2656 198.956 96.319 198.976 96.3656 199.008C96.4121 199.039 96.4504 199.082 96.4772 199.131C96.5562 199.259 96.5197 199.326 96.4772 199.368C96.2583 199.63 95.2612 199.678 94.7079 199.539L94.7444 199.52Z" fill="#FF9100"/>
<path d="M112.431 189.464C112.555 189.845 112.795 190.176 113.118 190.412C113.209 190.466 113.311 190.499 113.416 190.508C113.521 190.518 113.627 190.504 113.726 190.467C113.785 190.451 113.839 190.418 113.881 190.373C113.922 190.328 113.951 190.272 113.963 190.212C114.091 189.604 112.498 188.102 112.176 187.78C112.156 187.767 112.133 187.76 112.109 187.76C112.085 187.76 112.062 187.767 112.042 187.78C112.021 187.791 112.004 187.809 111.994 187.831C111.984 187.853 111.982 187.878 111.987 187.901C112.077 188.437 112.226 188.961 112.431 189.464ZM113.696 189.92C113.73 189.99 113.745 190.068 113.738 190.145C113.738 190.175 113.738 190.206 113.653 190.23C113.582 190.257 113.506 190.268 113.43 190.262C113.354 190.256 113.281 190.232 113.215 190.194C112.845 189.975 112.504 189.245 112.285 188.212C112.839 188.707 113.315 189.283 113.696 189.92Z" fill="#FF9100"/>
<path d="M112.012 187.944C112.01 187.956 112.01 187.968 112.012 187.981C112.51 188.485 114 189.3 114.48 189.02C114.584 188.959 114.693 188.826 114.608 188.534C114.298 187.415 112.176 187.768 112.073 187.786C112.051 187.789 112.031 187.798 112.015 187.812C111.999 187.826 111.987 187.844 111.981 187.865C111.982 187.894 111.993 187.922 112.012 187.944ZM114.383 188.522L114.413 188.595C114.413 188.716 114.413 188.789 114.413 188.82C114.134 188.978 113.009 188.455 112.413 187.981C112.912 187.926 114.116 187.877 114.383 188.522Z" fill="#FF9100"/>
<path d="M117.441 55.1324L118.42 54.4697C118.42 54.4697 118.141 55.4972 117.441 55.1324Z" fill="#263238"/>
<path d="M196.925 214.404L192.213 214.41L190.942 203.503L195.654 203.497L196.925 214.404Z" fill="#FFC3BD"/>
<path d="M237.485 194.158L233.916 197.24L225.836 189.804L229.399 186.722L237.485 194.158Z" fill="#FFC3BD"/>
<path d="M233.223 197.119L237.564 193.361C237.635 193.302 237.724 193.27 237.816 193.27C237.909 193.27 237.998 193.302 238.069 193.361L241.376 196C241.457 196.068 241.522 196.153 241.566 196.248C241.611 196.344 241.634 196.448 241.634 196.553C241.634 196.659 241.611 196.763 241.566 196.858C241.522 196.954 241.457 197.039 241.376 197.107C239.96 198.292 238.871 199.089 237.12 200.609C236.038 201.545 232.864 204.488 231.369 205.783C229.873 207.078 228.456 205.71 228.937 205.041C231.186 202.05 232.585 199.399 232.803 197.824C232.857 197.547 233.006 197.298 233.223 197.119Z" fill="#263238"/>
<path d="M192.244 213.863H197.394C197.487 213.863 197.578 213.896 197.651 213.954C197.723 214.013 197.774 214.094 197.795 214.185L198.731 218.374C198.754 218.475 198.754 218.58 198.731 218.681C198.707 218.782 198.662 218.876 198.597 218.957C198.532 219.038 198.449 219.103 198.356 219.147C198.262 219.191 198.16 219.214 198.056 219.213C196.196 219.183 193.515 219.08 191.18 219.08C188.456 219.08 186.857 219.153 183.659 219.159C181.726 219.159 181.184 217.207 181.993 217.031C185.678 216.216 187.927 216.21 191.113 214.24C191.448 214.011 191.839 213.881 192.244 213.863Z" fill="#263238"/>
<path d="M176.928 78.9661C175.98 78.6013 175.165 78.2669 174.314 77.8777C173.463 77.4886 172.642 77.1056 171.815 76.6982C170.165 75.8876 168.544 74.9837 166.951 73.9865C165.348 73.0041 163.806 71.9239 162.336 70.752C161.965 70.448 161.588 70.144 161.223 69.8339L160.141 68.8429C159.783 68.5145 159.442 68.1376 159.095 67.7849C158.919 67.5904 158.767 67.4505 158.566 67.2195C158.366 66.9885 158.171 66.7635 157.995 66.5325C157.33 65.6535 156.765 64.7032 156.311 63.6992C155.888 62.7824 155.529 61.8378 155.235 60.872C154.676 59.0483 154.269 57.1814 154.019 55.2905C153.539 51.6504 153.447 47.9696 153.745 44.3101H157.284C157.527 45.9577 157.782 47.6905 158.117 49.3565C158.451 51.0224 158.804 52.6883 159.235 54.2934C159.644 55.8613 160.16 57.3991 160.78 58.896C161.294 60.2195 162.019 61.4513 162.926 62.544L163.224 62.848C163.315 62.9453 163.497 63.0912 163.631 63.2128C163.923 63.4621 164.191 63.7235 164.501 63.9606C165.109 64.447 165.717 64.9273 166.398 65.3894C167.711 66.3014 169.097 67.1709 170.544 67.9856C171.991 68.8003 173.469 69.5725 174.97 70.3021C175.724 70.6729 176.484 71.0377 177.244 71.3782C178.004 71.7187 178.801 72.0774 179.482 72.3693L176.928 78.9661Z" fill="#FFC3BD"/>
<path d="M177.682 82.9788C174.999 81.3109 172.464 79.415 170.106 77.3122L171.985 67.7119C175.478 68.7056 179.03 69.4813 182.619 70.0345C188.547 70.8006 181.908 85.4959 177.682 82.9788Z" fill="#263238"/>
<path d="M157.405 45.1369L157.74 39.136L152.754 40.735C152.754 40.735 151.593 45.0336 154.827 46.1645L157.405 45.1369Z" fill="#FFC3BD"/>
<path d="M157.138 35.9075L153.021 37.622L152.754 40.735L157.74 39.136L157.138 35.9075Z" fill="#FFC3BD"/>
<path opacity="0.2" d="M190.949 203.503L191.599 209.127L196.311 209.121L195.661 203.497L190.949 203.503Z" fill="black"/>
<path opacity="0.2" d="M229.405 186.722L225.836 189.804L230.007 193.635L233.57 190.552L229.405 186.722Z" fill="black"/>
<path d="M200.737 69.84C200.748 69.5063 200.692 69.1739 200.574 68.8618C200.455 68.5497 200.276 68.2642 200.046 68.0217C199.817 67.7792 199.542 67.5846 199.237 67.449C198.932 67.3134 198.603 67.2395 198.269 67.2317C184.82 66.9824 176.071 70.752 175.469 70.9952C175.244 71.0858 175.047 71.2322 174.895 71.4205C174.742 71.6088 174.641 71.8328 174.6 72.0714C174.04 75.4397 172.453 89.5574 180.23 111.652L205.158 108.083C204.823 104.405 200.178 87.5267 200.737 69.84Z" fill="#263238"/>
<path d="M180.576 69.2988C179.099 71.2749 178.43 75.8288 183.324 79.1606C189.343 74.6675 192.444 69.8339 193.362 67.3168C189.043 67.5334 184.758 68.1977 180.576 69.2988Z" fill="white"/>
<path d="M179.457 71.1472C179.135 71.1472 178.825 71.019 178.597 70.791C178.369 70.563 178.241 70.2537 178.241 69.9312C178.241 68.928 179.111 68.0646 179.846 67.4992C182.315 65.6752 187.142 64.2828 193.222 66.04C193.521 66.1386 193.77 66.3491 193.917 66.6274C194.064 66.9058 194.097 67.2301 194.009 67.5324C193.922 67.8347 193.721 68.0913 193.448 68.2484C193.176 68.4054 192.853 68.4507 192.547 68.3747C185.495 66.3379 181.147 69.232 180.679 70.0649C180.646 70.3648 180.503 70.6416 180.277 70.8416C180.051 71.0416 179.759 71.1505 179.457 71.1472Z" fill="#FF9100"/>
<path d="M189.562 55.7587C189.38 59.2668 189.605 65.6143 192.317 67.5478C190.724 69.6575 188.602 72.1321 184.571 72.8556C182.139 73.2873 181.306 72.3875 181.202 71.2505C181.168 70.7021 181.289 70.1551 181.552 69.6722C181.814 69.1894 182.207 68.7903 182.686 68.5206C185.306 67.0006 184.784 64.5564 183.841 62.246L189.562 55.7587Z" fill="#FFC3BD"/>
<path d="M179.086 99.0422C178.949 99.0416 178.814 99.017 178.685 98.9693C178.381 98.8619 178.132 98.6383 177.993 98.3476C177.854 98.0569 177.836 97.7228 177.943 97.4189C178.112 96.9935 178.191 96.5376 178.174 96.0802C178.157 95.6228 178.046 95.1739 177.846 94.7619L177.718 94.4154C177.511 94.007 177.235 93.6369 176.904 93.321C176.192 92.7504 175.7 91.9513 175.511 91.0592C175.321 90.1672 175.446 89.2371 175.864 88.4266C176.014 88.0796 176.102 87.7093 176.125 87.3322C176.009 86.8991 175.822 86.4882 175.572 86.1162C175.07 85.3986 174.774 84.5577 174.715 83.6842C174.784 82.7706 175.115 81.8964 175.669 81.167C175.878 80.8905 176.043 80.5827 176.156 80.255C176.16 79.9168 176.094 79.5813 175.961 79.2701C175.669 78.5791 175.597 77.8148 175.755 77.0813C176.001 76.2542 176.509 75.529 177.202 75.0141C177.397 74.8661 177.568 74.6875 177.706 74.4851C177.793 74.1915 177.793 73.8789 177.706 73.5853C177.521 72.8811 177.62 72.1325 177.98 71.4998C178.405 70.831 178.363 70.6608 178.326 70.521C178.265 70.3077 178.238 70.086 178.247 69.8643C178.247 69.5418 178.375 69.2325 178.604 69.0045C178.832 68.7764 179.141 68.6483 179.463 68.6483C179.786 68.6483 180.095 68.7764 180.323 69.0045C180.551 69.2325 180.679 69.5418 180.679 69.8643V69.9008C180.85 70.5878 180.898 71.4086 180.071 72.7523C180.081 72.8951 180.1 73.0372 180.126 73.1779C180.309 73.8466 180.282 74.5555 180.048 75.2083C179.814 75.861 179.385 76.4258 178.819 76.8259C178.43 77.1664 178.211 77.3731 178.126 77.671C178.113 77.9519 178.17 78.2316 178.29 78.4858C178.548 79.136 178.65 79.8378 178.588 80.5347C178.453 81.2332 178.162 81.8921 177.737 82.4621C177.454 82.8177 177.259 83.2339 177.165 83.6781C177.263 84.1037 177.443 84.5063 177.694 84.8637C178.131 85.5169 178.427 86.2541 178.563 87.0282C178.597 87.76 178.471 88.4905 178.193 89.1683C177.995 89.6006 177.901 90.0734 177.919 90.5485C178.111 90.9702 178.386 91.3487 178.728 91.6611C179.29 92.2112 179.737 92.8687 180.041 93.5946L180.15 93.9107C180.749 95.27 180.786 96.8106 180.254 98.1971C180.175 98.444 180.019 98.6592 179.809 98.8112C179.599 98.9633 179.346 99.0442 179.086 99.0422Z" fill="#FF9100"/>
<path d="M200.513 69.6393C201.175 70.2473 201.729 70.758 202.288 71.3417C202.847 71.9254 203.394 72.4908 203.936 73.0745C205.018 74.2418 206.039 75.47 207.024 76.7225C209.076 79.3184 210.794 82.1618 212.138 85.1858C212.476 85.9947 212.772 86.8207 213.025 87.6604C213.153 88.086 213.262 88.5298 213.366 88.9798L213.402 89.1439L213.457 89.4297C213.493 89.6182 213.512 89.8188 213.53 90.0377C213.559 90.4432 213.547 90.8506 213.493 91.2537C213.403 91.9803 213.183 92.6847 212.843 93.333C212.558 93.8729 212.214 94.3787 211.815 94.8409C211.156 95.5935 210.397 96.2522 209.56 96.7986C208.13 97.7344 206.59 98.49 204.975 99.0482C204.209 99.3279 203.437 99.565 202.659 99.7657C201.881 99.9663 201.127 100.155 200.282 100.295L199.187 96.9324C199.795 96.5919 200.446 96.2332 201.06 95.8684C201.674 95.5036 202.276 95.1206 202.884 94.7375C204.014 94.0232 205.078 93.2093 206.064 92.3055C206.441 91.9414 206.774 91.5331 207.055 91.0895C207.267 90.743 207.249 90.5119 207.188 90.5849C207.184 90.6049 207.184 90.6257 207.188 90.6457L207.152 90.5362C207.061 90.2566 206.976 89.9708 206.854 89.679C206.629 89.0856 206.371 88.5051 206.082 87.9401C205.471 86.7392 204.776 85.5831 204.002 84.4806C203.23 83.3375 202.379 82.2188 201.479 81.1244C200.579 80.03 199.655 78.9538 198.676 77.8898C198.196 77.3609 197.704 76.8441 197.205 76.3334C196.706 75.8226 196.184 75.2876 195.74 74.862L200.513 69.6393Z" fill="#FFC3BD"/>
<path d="M198.944 67.335C201.692 67.7423 206.003 74.631 206.003 74.631L199.005 84.0124C199.005 84.0124 195.272 80.4556 194.183 77.3244C192.128 71.3174 193.545 66.5446 198.944 67.335Z" fill="#263238"/>
<path d="M195.277 90.9497C195.066 90.9474 194.859 90.8901 194.677 90.7835C194.495 90.6768 194.343 90.5246 194.238 90.3417C193.82 89.5241 193.639 88.6059 193.715 87.6908C193.747 87.3131 193.714 86.9326 193.618 86.566C193.374 86.1884 193.068 85.8553 192.712 85.5811C192.012 85.0602 191.467 84.358 191.137 83.5503C190.911 82.6626 190.952 81.7281 191.253 80.863C191.363 80.5335 191.423 80.189 191.429 79.8415C191.276 79.4244 191.054 79.0359 190.772 78.6924C190.146 78.0486 189.779 77.1963 189.742 76.2988C189.705 75.4013 190 74.5216 190.572 73.8284C190.737 73.5808 190.869 73.3131 190.967 73.0319C190.935 72.5705 190.824 72.118 190.638 71.6943C190.291 70.9772 190.172 70.1708 190.298 69.3839C190.525 68.2648 191.089 67.242 191.915 66.4534L191.994 66.3743C192.221 66.1588 192.523 66.0391 192.836 66.04C193.149 66.041 193.449 66.1626 193.675 66.3796C193.9 66.5966 194.033 66.8922 194.047 67.2049C194.06 67.5176 193.952 67.8233 193.745 68.0585L193.605 68.1983C193.109 68.6775 192.775 69.3006 192.651 69.9798C192.717 70.2849 192.808 70.5839 192.925 70.8735C193.243 71.6101 193.403 72.4057 193.393 73.2082C193.298 73.874 193.051 74.5088 192.669 75.0627C192.406 75.4216 192.233 75.8387 192.165 76.2787C192.308 76.6549 192.513 77.0043 192.773 77.3122C193.264 77.9224 193.622 78.6287 193.824 79.3855C193.917 80.0909 193.849 80.8082 193.624 81.4831C193.47 81.9111 193.414 82.3682 193.46 82.8207C193.69 83.1935 193.99 83.5194 194.341 83.7814C194.959 84.2675 195.471 84.8761 195.843 85.5689C196.106 86.2521 196.214 86.9851 196.159 87.7151C196.114 88.1886 196.174 88.6661 196.335 89.1135C196.5 89.3902 196.549 89.7209 196.47 90.0333C196.392 90.3456 196.192 90.6139 195.916 90.7795C195.723 90.894 195.502 90.953 195.277 90.9497Z" fill="#FF9100"/>
<path opacity="0.2" d="M187.228 58.4034L183.847 62.2399C184.102 62.8293 184.305 63.4395 184.455 64.0639C185.878 63.6444 187.647 61.7657 187.586 60.2214C187.577 59.5988 187.455 58.983 187.228 58.4034Z" fill="black"/>
<path d="M180.12 45.7814C178.618 48.3958 179.579 52.1167 179.579 52.1167C179.982 52.3787 180.447 52.5281 180.927 52.5494C181.407 52.5708 181.884 52.4634 182.309 52.2383L181.883 45.3071L180.12 45.7814Z" fill="#263238"/>
<path d="M191.958 52.4207C190.809 56.9564 190.365 59.6681 187.605 61.5833C183.452 64.4652 178.187 61.2914 177.962 56.5065C177.755 52.1957 179.67 45.5077 184.51 44.5349C185.575 44.3144 186.678 44.3699 187.715 44.6962C188.752 45.0225 189.688 45.6088 190.435 46.3992C191.181 47.1895 191.713 48.1578 191.98 49.2118C192.246 50.2658 192.239 51.3704 191.958 52.4207Z" fill="#FFC3BD"/>
<path d="M178.716 57.6982H178.551L168.246 55.5155C167.686 55.397 167.195 55.0607 166.883 54.5807C166.57 54.1007 166.461 53.5162 166.58 52.9558C166.698 52.3955 167.035 51.9052 167.515 51.5927C167.995 51.2803 168.579 51.1714 169.14 51.2899C169.242 51.3116 169.338 51.3531 169.424 51.4123C169.51 51.4715 169.583 51.547 169.64 51.6346C169.696 51.7222 169.735 51.8201 169.753 51.9227C169.772 52.0253 169.77 52.1305 169.748 52.2323C169.702 52.4374 169.578 52.6164 169.402 52.7303C169.225 52.8442 169.011 52.8837 168.805 52.8403C168.733 52.8227 168.657 52.8207 168.584 52.8343C168.511 52.8479 168.441 52.8769 168.38 52.9194C168.318 52.9593 168.265 53.011 168.223 53.0715C168.181 53.132 168.152 53.2001 168.136 53.272C168.11 53.4188 168.138 53.5702 168.215 53.6976C168.3 53.8188 168.425 53.9052 168.568 53.9408L178.874 56.1235C179.065 56.1652 179.235 56.2761 179.35 56.4349C179.465 56.5937 179.517 56.7894 179.496 56.9844C179.476 57.1793 179.385 57.36 179.239 57.4917C179.094 57.6234 178.906 57.6969 178.71 57.6982H178.716Z" fill="#FF9100"/>
<path d="M178.673 57.8806L177.427 57.6131L177.822 55.7891L179.038 56.0505C179.284 56.103 179.499 56.251 179.636 56.4619C179.772 56.6728 179.82 56.9294 179.768 57.1753C179.707 57.4088 179.561 57.6109 179.358 57.7416C179.155 57.8723 178.911 57.9219 178.673 57.8806Z" fill="white"/>
<path d="M189.143 49.9279C189.143 48.2012 187.842 46.9426 183.501 47.277C179.956 47.5446 178.229 45.8908 179.245 43.5865C182.114 45.0822 181.64 43.1244 187.112 42.8873C192.584 42.6502 194.171 44.7113 194.749 47.9154C198.099 52.8828 192.317 54.9439 192.317 54.9439L190.055 56.9199C189.586 57.0264 189.098 57.0053 188.64 56.8588C188.182 56.7123 187.772 56.4458 187.453 56.087C187.453 56.087 187.009 52.0559 189.143 49.9279Z" fill="#263238"/>
<path d="M183.331 42.03L183.191 42.103C183.061 42.1723 182.951 42.2746 182.873 42.3997C182.795 42.5248 182.751 42.6682 182.747 42.8155C182.742 42.9628 182.776 43.1088 182.845 43.2388C182.914 43.3689 183.017 43.4783 183.142 43.5561L195.837 51.4054C195.957 51.4786 196.092 51.5208 196.232 51.528C196.372 51.5353 196.512 51.5074 196.638 51.447C196.764 51.3865 196.873 51.2954 196.955 51.182C197.038 51.0685 197.09 50.9363 197.108 50.7974C197.167 50.4053 197.11 50.0044 196.944 49.6445C196.777 49.2846 196.509 48.9815 196.172 48.7728L185.349 42.0848C185.047 41.9004 184.701 41.7983 184.347 41.7887C183.993 41.7791 183.643 41.8623 183.331 42.03Z" fill="#FF9100"/>
<path d="M185.617 42.8691L188.863 38.1146C188.956 37.9791 189.097 37.8841 189.258 37.8491C189.418 37.814 189.586 37.8416 189.727 37.9261L198.689 43.2947C198.767 43.3406 198.835 43.4026 198.887 43.4768C198.94 43.5509 198.976 43.6354 198.993 43.7246C199.011 43.8138 199.009 43.9057 198.988 43.9941C198.966 44.0825 198.927 44.1653 198.871 44.2371L194.986 49.3686L185.617 42.8691Z" fill="#FF9100"/>
<path d="M185.617 42.8691L186.912 40.5526L196.919 47.1677L194.986 49.3686L185.617 42.8691Z" fill="#FF9100"/>
<path opacity="0.6" d="M185.617 42.8691L186.912 40.5526L196.919 47.1677L194.986 49.3686L185.617 42.8691Z" fill="white"/>
<path d="M192.536 57.9839C191.647 58.5907 190.556 58.8264 189.496 58.6406C188.115 58.3731 188.115 56.9747 189.07 55.9836C189.927 55.0899 191.684 54.1596 192.791 54.9318C193.897 55.7039 193.636 57.2239 192.536 57.9839Z" fill="#FFC3BD"/>
<path d="M189.83 208.044H197.807C197.807 208.044 196.554 179.675 194.834 165.095C194.311 160.657 194.876 154.577 194.931 147.786C195.004 139.231 195.399 129.91 195.788 122.596C196.202 114.893 196.548 109.342 196.548 109.342L180.229 111.67C180.229 111.67 178.612 152.06 181.148 166.214C183.786 180.915 189.83 208.044 189.83 208.044Z" fill="#FF9100"/>
<path opacity="0.2" d="M194.931 147.767C195.004 139.213 195.399 129.892 195.788 122.578L193.356 119.325C190.353 124.949 192.438 139.924 194.931 147.767Z" fill="black"/>
<path d="M188.006 110.539C188.006 110.539 198.141 150.564 202.957 163.508C208.228 177.675 227.641 194.237 227.641 194.237L232.548 188.838C232.548 188.838 222.279 172.829 214.709 157.428C211.092 137.431 205.182 108.083 205.182 108.083L188.006 110.539Z" fill="#FF9100"/>
<path d="M226.985 195.051L234.676 188.406L232.688 186.114L223.963 193.392L226.985 195.051Z" fill="#263238"/>
<path d="M188.827 208.227L198.336 208.215L198.33 205.144L187.708 204.998L188.827 208.227Z" fill="#263238"/>
<path d="M184.954 51.533C184.65 51.4418 184.291 51.7337 184.145 52.1897L185.227 52.5362C185.373 52.0802 185.252 51.6303 184.954 51.533Z" fill="#263238"/>
<path d="M180.212 50.6393C179.901 50.6393 179.604 50.9919 179.604 51.4722L180.734 51.5452C180.753 51.0649 180.528 50.6879 180.212 50.6393Z" fill="#263238"/>
<path d="M181.847 52.0255C181.185 53.0827 180.381 54.0441 179.458 54.8831C179.679 55.1133 179.949 55.2924 180.247 55.4079C180.545 55.5234 180.865 55.5726 181.184 55.5519L181.847 52.0255Z" fill="#ED847E"/>
<path d="M186.498 51.0466C186.536 51.0557 186.576 51.0557 186.614 51.0466C186.67 51.0285 186.717 50.989 186.744 50.9366C186.771 50.8843 186.777 50.8234 186.76 50.7669C186.665 50.4256 186.49 50.1121 186.249 49.8529C186.007 49.5936 185.707 49.3962 185.374 49.2773C185.346 49.2681 185.316 49.2648 185.287 49.2675C185.258 49.2703 185.229 49.2791 185.203 49.2934C185.178 49.3077 185.155 49.3271 185.137 49.3505C185.12 49.3739 185.107 49.4008 185.1 49.4293C185.092 49.4573 185.089 49.4866 185.092 49.5156C185.095 49.5446 185.104 49.5726 185.118 49.5981C185.133 49.6236 185.152 49.646 185.175 49.664C185.198 49.682 185.224 49.6953 185.252 49.703C185.516 49.8046 185.752 49.9681 185.941 50.1796C186.129 50.3911 186.264 50.6446 186.334 50.9189C186.35 50.9513 186.373 50.9796 186.402 51.0017C186.43 51.0239 186.463 51.0392 186.498 51.0466Z" fill="#263238"/>
<path d="M178.807 50.0009C178.843 50.0071 178.881 50.0042 178.916 49.9925C178.951 49.9809 178.982 49.9608 179.008 49.934C179.191 49.7229 179.421 49.5579 179.68 49.4523C179.939 49.3467 180.219 49.3034 180.497 49.326C180.556 49.3348 180.616 49.3198 180.664 49.2845C180.712 49.2492 180.744 49.1964 180.753 49.1376C180.761 49.0803 180.747 49.022 180.713 48.9753C180.679 48.9286 180.627 48.8973 180.57 48.8883C180.218 48.8535 179.862 48.9038 179.533 49.0349C179.204 49.1661 178.911 49.3744 178.679 49.6422C178.658 49.6626 178.641 49.6872 178.629 49.7143C178.618 49.7415 178.612 49.7707 178.612 49.8003C178.612 49.8298 178.618 49.8591 178.629 49.8862C178.641 49.9134 178.658 49.9379 178.679 49.9584C178.717 49.984 178.761 49.9987 178.807 50.0009Z" fill="#263238"/>
<path d="M232.554 198.785C232.864 198.502 233.141 198.186 233.381 197.842C233.393 197.824 233.4 197.803 233.4 197.781C233.4 197.76 233.393 197.739 233.381 197.721C233.372 197.7 233.356 197.684 233.336 197.674C233.316 197.664 233.294 197.661 233.272 197.666C233.077 197.666 231.344 197.952 231.119 198.505C231.095 198.566 231.086 198.632 231.095 198.697C231.103 198.762 231.128 198.824 231.168 198.876C231.226 198.97 231.306 199.047 231.402 199.101C231.497 199.156 231.605 199.185 231.715 199.186C232.033 199.153 232.329 199.011 232.554 198.785ZM233.041 197.933C232.536 198.584 232.05 198.961 231.721 198.961C231.647 198.959 231.574 198.938 231.51 198.9C231.446 198.861 231.393 198.807 231.357 198.742C231.342 198.72 231.335 198.695 231.335 198.669C231.335 198.643 231.342 198.618 231.357 198.596C231.442 198.31 232.348 198.055 233.041 197.933Z" fill="#FF9100"/>
<path d="M233.363 197.867C233.379 197.851 233.391 197.833 233.399 197.812C233.408 197.794 233.413 197.774 233.413 197.754C233.413 197.734 233.408 197.714 233.399 197.696C233.357 197.654 232.426 196.663 231.733 196.669C231.648 196.669 231.565 196.687 231.487 196.721C231.41 196.756 231.34 196.806 231.283 196.869C231.219 196.925 231.176 197.002 231.16 197.086C231.145 197.169 231.158 197.256 231.198 197.331C231.448 197.806 232.803 198 233.338 197.891L233.363 197.867ZM231.454 196.991C231.524 196.93 231.616 196.897 231.709 196.9C232.153 196.9 232.761 197.417 233.053 197.69C232.445 197.721 231.514 197.502 231.362 197.222C231.362 197.192 231.32 197.131 231.417 197.027L231.454 196.991Z" fill="#FF9100"/>
<path d="M191.781 214.52C191.801 214.513 191.818 214.501 191.831 214.485C191.844 214.468 191.852 214.449 191.854 214.428C191.86 214.406 191.857 214.382 191.847 214.361C191.837 214.34 191.82 214.323 191.8 214.313C191.581 214.203 189.69 213.243 189.118 213.565C189.064 213.594 189.017 213.637 188.984 213.689C188.951 213.741 188.932 213.801 188.93 213.863C188.917 213.964 188.93 214.066 188.967 214.161C189.005 214.255 189.065 214.339 189.143 214.404C189.66 214.86 191.009 214.672 191.769 214.52H191.781ZM189.264 213.741C189.623 213.62 190.651 214.009 191.398 214.349C190.359 214.526 189.574 214.483 189.289 214.222C189.238 214.178 189.199 214.122 189.175 214.06C189.152 213.997 189.145 213.929 189.155 213.863C189.155 213.839 189.162 213.815 189.175 213.795C189.188 213.774 189.206 213.758 189.228 213.748L189.264 213.741Z" fill="#FF9100"/>
<path d="M191.782 214.52H191.812C191.828 214.507 191.84 214.492 191.849 214.474C191.857 214.456 191.861 214.436 191.861 214.416C191.861 214.368 191.721 213.097 191.125 212.592C191.042 212.521 190.945 212.468 190.84 212.436C190.736 212.403 190.626 212.392 190.517 212.404C190.207 212.404 190.122 212.592 190.104 212.714C190.019 213.249 191.143 214.264 191.715 214.538C191.738 214.538 191.762 214.532 191.782 214.52ZM190.414 212.641H190.529C190.61 212.632 190.692 212.64 190.77 212.665C190.848 212.69 190.919 212.732 190.979 212.787C191.326 213.195 191.539 213.7 191.587 214.234C191.01 213.887 190.237 213.091 190.292 212.769C190.304 212.726 190.304 212.671 190.414 212.641Z" fill="#FF9100"/>
<path d="M199.759 96.6162L195.223 98.0511L198.743 101.553C198.743 101.553 202.854 99.7717 201.565 97.9599L199.759 96.6162Z" fill="#FFC3BD"/>
<path d="M193.356 102.052L196.585 104.01L198.743 101.553L195.223 98.0511L193.356 102.052Z" fill="#FFC3BD"/>
</svg>
