<svg width="246" height="231" viewBox="0 0 246 231" fill="none" xmlns="http://www.w3.org/2000/svg">
<path d="M46.4705 87.2779C42.0656 87.2779 39.9931 82.8463 39.9065 82.6597C39.831 82.4523 39.8364 82.224 39.9214 82.0203C40.0064 81.8166 40.1649 81.6523 40.3654 81.5601C40.5659 81.4678 40.7938 81.4542 41.0038 81.5222C41.2138 81.5901 41.3906 81.7344 41.4992 81.9266C41.4992 81.9866 43.2518 85.6185 46.6038 85.5252C46.8241 85.5376 47.0317 85.6324 47.1855 85.7908C47.3392 85.9491 47.4278 86.1595 47.4336 86.3801C47.4395 86.6007 47.3622 86.8154 47.2172 86.9817C47.0721 87.148 46.8698 87.2537 46.6504 87.2779H46.4705Z" fill="#FF5C8A"/>
<path d="M104.041 25.7355C103.657 25.7372 103.274 25.7127 102.894 25.6622C102.781 25.6452 102.671 25.6059 102.573 25.5466C102.474 25.4873 102.388 25.4091 102.32 25.3166C102.252 25.2241 102.202 25.119 102.174 25.0074C102.147 24.8957 102.141 24.7797 102.158 24.666C102.175 24.5522 102.215 24.4429 102.274 24.3443C102.333 24.2457 102.411 24.1598 102.504 24.0914C102.596 24.0231 102.701 23.9736 102.813 23.9458C102.925 23.918 103.041 23.9125 103.154 23.9296C103.194 23.9296 107.206 24.496 108.965 21.6372C109.025 21.5391 109.104 21.4539 109.197 21.3863C109.29 21.3187 109.395 21.27 109.507 21.2431C109.619 21.2162 109.734 21.2115 109.848 21.2294C109.961 21.2473 110.07 21.2873 110.168 21.3473C110.266 21.4072 110.352 21.4859 110.419 21.5788C110.487 21.6717 110.535 21.777 110.562 21.8887C110.589 22.0004 110.594 22.1163 110.576 22.2298C110.558 22.3433 110.518 22.4521 110.458 22.5501C108.706 25.3224 105.673 25.7355 104.041 25.7355Z" fill="#FF5C8A"/>
<path opacity="0.6" d="M104.041 25.7355C103.657 25.7372 103.274 25.7127 102.894 25.6622C102.781 25.6452 102.671 25.6059 102.573 25.5466C102.474 25.4873 102.388 25.4091 102.32 25.3166C102.252 25.2241 102.202 25.119 102.174 25.0074C102.147 24.8957 102.141 24.7797 102.158 24.666C102.175 24.5522 102.215 24.4429 102.274 24.3443C102.333 24.2457 102.411 24.1598 102.504 24.0914C102.596 24.0231 102.701 23.9736 102.813 23.9458C102.925 23.918 103.041 23.9125 103.154 23.9296C103.194 23.9296 107.206 24.496 108.965 21.6372C109.025 21.5391 109.104 21.4539 109.197 21.3863C109.29 21.3187 109.395 21.27 109.507 21.2431C109.619 21.2162 109.734 21.2115 109.848 21.2294C109.961 21.2473 110.07 21.2873 110.168 21.3473C110.266 21.4072 110.352 21.4859 110.419 21.5788C110.487 21.6717 110.535 21.777 110.562 21.8887C110.589 22.0004 110.594 22.1163 110.576 22.2298C110.558 22.3433 110.518 22.4521 110.458 22.5501C108.706 25.3224 105.673 25.7355 104.041 25.7355Z" fill="white"/>
<path d="M5.14677 59.11C3.45603 59.0524 1.81405 58.5289 0.401988 57.5973C0.302374 57.5334 0.216774 57.45 0.150387 57.3521C0.084 57.2542 0.038211 57.1438 0.015802 57.0276C-0.006607 56.9114 -0.00516825 56.7919 0.0200295 56.6763C0.0452273 56.5607 0.0936591 56.4515 0.162383 56.3552C0.231107 56.2588 0.31869 56.1775 0.419811 56.1161C0.520932 56.0547 0.633482 56.0145 0.750625 55.9979C0.867768 55.9813 0.987059 55.9887 1.10125 56.0196C1.21545 56.0506 1.32216 56.1044 1.41492 56.1778V56.1778C1.44824 56.1778 4.8069 58.4503 7.63911 56.6443C7.73611 56.5738 7.84651 56.5238 7.96353 56.4975C8.08054 56.4712 8.2017 56.4691 8.31956 56.4914C8.43742 56.5136 8.54948 56.5597 8.64887 56.6268C8.74825 56.694 8.83285 56.7807 8.89748 56.8818C8.96211 56.9828 9.00539 57.096 9.02467 57.2144C9.04395 57.3327 9.03881 57.4538 9.00958 57.5701C8.98035 57.6864 8.92765 57.7956 8.8547 57.8908C8.78175 57.986 8.69011 58.0652 8.5854 58.1237C7.55878 58.7783 6.36427 59.1209 5.14677 59.11Z" fill="#FF5C8A"/>
<path opacity="0.6" d="M5.14677 59.11C3.45603 59.0524 1.81405 58.5289 0.401988 57.5973C0.302374 57.5334 0.216774 57.45 0.150387 57.3521C0.084 57.2542 0.038211 57.1438 0.015802 57.0276C-0.006607 56.9114 -0.00516825 56.7919 0.0200295 56.6763C0.0452273 56.5607 0.0936591 56.4515 0.162383 56.3552C0.231107 56.2588 0.31869 56.1775 0.419811 56.1161C0.520932 56.0547 0.633482 56.0145 0.750625 55.9979C0.867768 55.9813 0.987059 55.9887 1.10125 56.0196C1.21545 56.0506 1.32216 56.1044 1.41492 56.1778V56.1778C1.44824 56.1778 4.8069 58.4503 7.63911 56.6443C7.73611 56.5738 7.84651 56.5238 7.96353 56.4975C8.08054 56.4712 8.2017 56.4691 8.31956 56.4914C8.43742 56.5136 8.54948 56.5597 8.64887 56.6268C8.74825 56.694 8.83285 56.7807 8.89748 56.8818C8.96211 56.9828 9.00539 57.096 9.02467 57.2144C9.04395 57.3327 9.03881 57.4538 9.00958 57.5701C8.98035 57.6864 8.92765 57.7956 8.8547 57.8908C8.78175 57.986 8.69011 58.0652 8.5854 58.1237C7.55878 58.7783 6.36427 59.1209 5.14677 59.11Z" fill="white"/>
<path d="M233.743 35.7379C232.055 35.6924 230.411 35.1853 228.991 34.2718C228.8 34.1401 228.67 33.938 228.628 33.7099C228.586 33.4819 228.636 33.2465 228.768 33.0556C228.9 32.8647 229.102 32.734 229.33 32.6921C229.558 32.6502 229.793 32.7007 229.984 32.8324V32.8324C230.017 32.8324 233.383 35.0981 236.215 33.2988C236.312 33.2371 236.42 33.1951 236.533 33.1751C236.645 33.1551 236.761 33.1576 236.873 33.1823C236.985 33.2071 237.091 33.2536 237.185 33.3194C237.279 33.3851 237.359 33.4687 237.421 33.5654C237.483 33.6621 237.525 33.77 237.545 33.883C237.565 33.9959 237.562 34.1117 237.538 34.2237C237.513 34.3357 237.466 34.4417 237.401 34.5357C237.335 34.6298 237.251 34.7099 237.155 34.7716C236.135 35.4177 234.95 35.7534 233.743 35.7379V35.7379Z" fill="#FF5C8A"/>
<path opacity="0.6" d="M233.743 35.7379C232.055 35.6924 230.411 35.1853 228.991 34.2718C228.8 34.1401 228.67 33.938 228.628 33.7099C228.586 33.4819 228.636 33.2465 228.768 33.0556C228.9 32.8647 229.102 32.734 229.33 32.6921C229.558 32.6502 229.793 32.7007 229.984 32.8324V32.8324C230.017 32.8324 233.383 35.0981 236.215 33.2988C236.312 33.2371 236.42 33.1951 236.533 33.1751C236.645 33.1551 236.761 33.1576 236.873 33.1823C236.985 33.2071 237.091 33.2536 237.185 33.3194C237.279 33.3851 237.359 33.4687 237.421 33.5654C237.483 33.6621 237.525 33.77 237.545 33.883C237.565 33.9959 237.562 34.1117 237.538 34.2237C237.513 34.3357 237.466 34.4417 237.401 34.5357C237.335 34.6298 237.251 34.7099 237.155 34.7716C236.135 35.4177 234.95 35.7534 233.743 35.7379V35.7379Z" fill="white"/>
<path d="M126.572 104.571C122.487 104.571 120.261 100.612 120.161 100.432C120.049 100.229 120.022 99.9896 120.086 99.7665C120.151 99.5435 120.301 99.3551 120.504 99.2429C120.708 99.1306 120.947 99.1037 121.17 99.1681C121.393 99.2325 121.582 99.3828 121.694 99.5861C121.694 99.6394 123.693 103.131 127.025 102.791C127.248 102.784 127.465 102.861 127.633 103.007C127.801 103.154 127.908 103.359 127.93 103.58C127.953 103.802 127.891 104.024 127.756 104.202C127.622 104.38 127.425 104.5 127.205 104.537C127.005 104.557 126.785 104.571 126.572 104.571Z" fill="#FF5C8A"/>
<path opacity="0.6" d="M126.572 104.571C122.487 104.571 120.261 100.612 120.161 100.432C120.049 100.229 120.022 99.9896 120.086 99.7665C120.151 99.5435 120.301 99.3551 120.504 99.2429C120.708 99.1306 120.947 99.1037 121.17 99.1681C121.393 99.2325 121.582 99.3828 121.694 99.5861C121.694 99.6394 123.693 103.131 127.025 102.791C127.248 102.784 127.465 102.861 127.633 103.007C127.801 103.154 127.908 103.359 127.93 103.58C127.953 103.802 127.891 104.024 127.756 104.202C127.622 104.38 127.425 104.5 127.205 104.537C127.005 104.557 126.785 104.571 126.572 104.571Z" fill="white"/>
<path d="M14.7428 122.371C14.5306 122.369 14.3263 122.29 14.1681 122.148C14.01 122.007 13.9088 121.813 13.8834 121.602C13.8581 121.391 13.9104 121.178 14.0306 121.003C14.1507 120.829 14.3305 120.703 14.5362 120.651V120.651C14.5762 120.651 18.488 119.618 19.0211 116.3C19.0395 116.186 19.08 116.078 19.1404 115.98C19.2007 115.882 19.2797 115.798 19.3728 115.731C19.466 115.663 19.5714 115.615 19.6831 115.589C19.7949 115.562 19.9107 115.558 20.024 115.577C20.1374 115.595 20.246 115.636 20.3436 115.696C20.4413 115.756 20.5261 115.835 20.5933 115.928C20.6604 116.022 20.7086 116.127 20.735 116.239C20.7613 116.35 20.7655 116.466 20.7471 116.58C20.034 121.051 15.1626 122.297 14.9561 122.351C14.8858 122.364 14.8144 122.371 14.7428 122.371Z" fill="#FF5C8A"/>
<path opacity="0.6" d="M14.7428 122.371C14.5306 122.369 14.3263 122.29 14.1681 122.148C14.01 122.007 13.9088 121.813 13.8834 121.602C13.8581 121.391 13.9104 121.178 14.0306 121.003C14.1507 120.829 14.3305 120.703 14.5362 120.651V120.651C14.5762 120.651 18.488 119.618 19.0211 116.3C19.0395 116.186 19.08 116.078 19.1404 115.98C19.2007 115.882 19.2797 115.798 19.3728 115.731C19.466 115.663 19.5714 115.615 19.6831 115.589C19.7949 115.562 19.9107 115.558 20.024 115.577C20.1374 115.595 20.246 115.636 20.3436 115.696C20.4413 115.756 20.5261 115.835 20.5933 115.928C20.6604 116.022 20.7086 116.127 20.735 116.239C20.7613 116.35 20.7655 116.466 20.7471 116.58C20.034 121.051 15.1626 122.297 14.9561 122.351C14.8858 122.364 14.8144 122.371 14.7428 122.371Z" fill="black"/>
<path d="M209.332 61.6284C209.114 61.6358 208.901 61.5614 208.735 61.4197C208.57 61.2781 208.463 61.0794 208.436 60.8629C208.409 60.6464 208.465 60.4278 208.591 60.25C208.717 60.0722 208.906 59.9482 209.119 59.9024C209.159 59.9024 213.071 58.8761 213.604 55.5575C213.615 55.4373 213.65 55.3207 213.708 55.2149C213.766 55.1091 213.845 55.0164 213.941 54.9424C214.036 54.8685 214.146 54.8149 214.262 54.7851C214.379 54.7553 214.501 54.7498 214.62 54.7691C214.739 54.7883 214.853 54.8318 214.955 54.8969C215.056 54.962 215.143 55.0474 215.211 55.1475C215.278 55.2477 215.324 55.3607 215.345 55.4793C215.367 55.598 215.364 55.7199 215.337 55.8373C214.617 60.3089 209.745 61.5551 209.539 61.6017C209.472 61.6204 209.402 61.6294 209.332 61.6284V61.6284Z" fill="#FF5C8A"/>
<path opacity="0.6" d="M209.332 61.6284C209.114 61.6358 208.901 61.5614 208.735 61.4197C208.57 61.2781 208.463 61.0794 208.436 60.8629C208.409 60.6464 208.465 60.4278 208.591 60.25C208.717 60.0722 208.906 59.9482 209.119 59.9024C209.159 59.9024 213.071 58.8761 213.604 55.5575C213.615 55.4373 213.65 55.3207 213.708 55.2149C213.766 55.1091 213.845 55.0164 213.941 54.9424C214.036 54.8685 214.146 54.8149 214.262 54.7851C214.379 54.7553 214.501 54.7498 214.62 54.7691C214.739 54.7883 214.853 54.8318 214.955 54.8969C215.056 54.962 215.143 55.0474 215.211 55.1475C215.278 55.2477 215.324 55.3607 215.345 55.4793C215.367 55.598 215.364 55.7199 215.337 55.8373C214.617 60.3089 209.745 61.5551 209.539 61.6017C209.472 61.6204 209.402 61.6294 209.332 61.6284V61.6284Z" fill="black"/>
<path d="M245.138 94.8551H244.991C244.778 94.8151 239.833 93.9088 238.814 89.5239C238.787 89.4109 238.783 89.2938 238.803 89.1794C238.822 89.065 238.864 88.9556 238.926 88.8576C238.988 88.7595 239.069 88.6749 239.164 88.6085C239.259 88.5421 239.367 88.4953 239.48 88.471C239.593 88.4454 239.71 88.4423 239.824 88.462C239.938 88.4817 240.047 88.5237 240.145 88.5856C240.243 88.6475 240.327 88.7281 240.394 88.8228C240.46 88.9175 240.508 89.0244 240.533 89.1374C241.293 92.4027 245.264 93.1358 245.304 93.1358C245.514 93.1807 245.7 93.3007 245.828 93.4734C245.955 93.6461 246.015 93.8594 245.997 94.0732C245.978 94.287 245.881 94.4865 245.726 94.6342C245.57 94.7819 245.366 94.8676 245.151 94.8751L245.138 94.8551Z" fill="#FF5C8A"/>
<path d="M229.518 126.983C227.992 127.007 226.507 126.484 225.333 125.51C225.235 125.44 225.152 125.351 225.09 125.247C225.029 125.144 224.989 125.029 224.974 124.909C224.959 124.79 224.969 124.669 225.003 124.553C225.037 124.438 225.094 124.33 225.172 124.238C225.249 124.146 225.345 124.071 225.453 124.017C225.56 123.964 225.678 123.933 225.799 123.928C225.919 123.922 226.039 123.941 226.151 123.984C226.264 124.027 226.366 124.093 226.452 124.177C229.031 126.323 232.65 124.524 232.69 124.504C232.896 124.398 233.137 124.378 233.358 124.449C233.579 124.521 233.763 124.677 233.869 124.884C233.975 125.09 233.995 125.331 233.924 125.552C233.852 125.773 233.696 125.957 233.489 126.063C232.248 126.654 230.892 126.968 229.518 126.983Z" fill="#FF5C8A"/>
<path d="M188.674 17.6123C188.522 17.6135 188.373 17.5744 188.241 17.499C188.061 17.3991 183.709 14.8801 184.242 10.3819C184.269 10.1512 184.386 9.94055 184.568 9.7962C184.749 9.65186 184.981 9.58566 185.212 9.61217C185.443 9.63869 185.653 9.75573 185.798 9.93757C185.942 10.1194 186.008 10.3511 185.982 10.5818C185.602 13.9138 189.094 15.9596 189.127 15.9796C189.297 16.0755 189.429 16.2254 189.504 16.4055C189.579 16.5855 189.591 16.7853 189.539 16.9731C189.487 17.1609 189.373 17.3259 189.216 17.4417C189.06 17.5575 188.869 17.6176 188.674 17.6123V17.6123Z" fill="#FF5C8A"/>
<path d="M14.603 21.1633C14.4884 21.1681 14.3739 21.1503 14.2662 21.1109C14.1584 21.0714 14.0595 21.0112 13.975 20.9335C13.8905 20.8559 13.8222 20.7623 13.7739 20.6582C13.7256 20.5542 13.6982 20.4416 13.6934 20.327C13.6886 20.2123 13.7064 20.0978 13.7458 19.9901C13.7852 19.8823 13.8455 19.7834 13.9232 19.6989C14.0008 19.6145 14.0944 19.5461 14.1984 19.4978C14.3025 19.4495 14.4151 19.4221 14.5297 19.4173C17.8617 19.1241 19.1945 15.299 19.1945 15.259C19.2719 15.0463 19.4289 14.872 19.6323 14.7729C19.8357 14.6737 20.0697 14.6574 20.2849 14.7274C20.5001 14.7974 20.6797 14.9482 20.7859 15.1481C20.892 15.348 20.9164 15.5813 20.8539 15.7988C20.7939 16.0053 19.1945 20.7701 14.683 21.13L14.603 21.1633Z" fill="#FF5C8A"/>
<path d="M79.6239 47.533C77.2581 48.6392 75.1723 53.9571 75.852 61.5941C76.5318 69.2311 60.7114 63.8732 58.5589 72.4298C54.6738 87.9169 80.7234 97.2266 91.8257 87.917C98.6963 82.1592 105.154 63.1801 104.207 52.8242C103.194 41.6887 85.9214 34.2183 79.6239 47.533Z" fill="#263238"/>
<path d="M104.62 67.0718C104.914 66.9852 105.34 66.8585 105.707 66.7386L106.853 66.3521C107.619 66.0855 108.379 65.7923 109.132 65.4791C110.632 64.8632 112.096 64.1623 113.517 63.3799C116.301 61.8946 118.806 59.9374 120.921 57.5956C122.806 55.3565 124.159 52.3043 125.219 49.1723C125.759 47.5995 126.212 45.9802 126.598 44.3342C126.985 42.6882 127.351 41.0022 127.631 39.3828L130.35 39.5494C130.355 43.1532 129.964 46.7467 129.184 50.2651C128.787 52.0681 128.25 53.8372 127.578 55.5564C126.881 57.3711 125.947 59.0853 124.799 60.6543C122.452 63.6639 119.541 66.1877 116.229 68.0847C114.633 69.0281 112.977 69.8651 111.271 70.5904C110.418 70.9503 109.558 71.2568 108.679 71.5833C108.246 71.7366 107.806 71.8832 107.346 72.0165C106.886 72.1498 106.48 72.2764 105.933 72.4097L104.62 67.0718Z" fill="#7F3E3B"/>
<path d="M130.337 40.4623L131.47 36.3906L126.972 36.7372C126.972 36.7372 126.652 39.4028 128.204 41.0088L130.337 40.4623Z" fill="#7F3E3B"/>
<path d="M132.143 31.6523L128.038 32.7253L126.971 36.737L131.47 36.3905L132.143 31.6523Z" fill="#7F3E3B"/>
<path d="M99.5292 68.1113C101.602 66.2254 106.86 64.7793 106.86 64.7793L112.624 73.4425C112.624 73.4425 106.047 77.8341 103.254 76.8145C100.349 75.8016 97.5967 69.8639 99.5292 68.1113Z" fill="#FF5C8A"/>
<path d="M80.5435 191.336L84.1354 195.281L94.4446 187.937L90.8527 183.992L80.5435 191.336Z" fill="#7F3E3B"/>
<path d="M60.2715 206.922L65.0896 209.315L72.1734 198.926L67.3553 196.533L60.2715 206.922Z" fill="#7F3E3B"/>
<path d="M65.8559 208.722L62.1374 203.957C62.0749 203.874 61.9841 203.817 61.8823 203.796C61.7804 203.775 61.6745 203.792 61.5843 203.844L57.3926 206.243C57.2889 206.306 57.1998 206.391 57.1312 206.491C57.0626 206.592 57.0161 206.705 56.9946 206.825C56.9732 206.945 56.9774 207.067 57.007 207.185C57.0365 207.303 57.0908 207.414 57.1661 207.509C58.4989 209.148 59.2119 209.875 60.8513 211.974C61.8509 213.26 63.8901 216.259 65.2762 218.038C66.6623 219.817 68.5015 218.545 68.0817 217.678C66.2025 213.793 66.0825 211.487 66.1492 209.635C66.1626 209.305 66.0587 208.982 65.8559 208.722Z" fill="#263238"/>
<path d="M85.2084 195.353L82.756 189.462C82.7127 189.356 82.6355 189.268 82.5365 189.212C82.4376 189.155 82.3225 189.133 82.2096 189.149L77.0117 189.815C76.8879 189.828 76.7691 189.871 76.665 189.939C76.5608 190.007 76.4742 190.098 76.4125 190.206C76.3507 190.314 76.3154 190.435 76.3095 190.56C76.3036 190.684 76.3273 190.808 76.3786 190.921C77.2716 192.967 77.8113 193.92 78.8909 196.512C79.5573 198.105 81.1034 202.29 82.0163 204.509C82.9293 206.728 85.275 206.202 85.1018 205.229C84.3221 200.871 84.5886 198.058 85.2351 196.346C85.2963 196.187 85.3255 196.017 85.3209 195.847C85.3163 195.676 85.2781 195.508 85.2084 195.353V195.353Z" fill="#263238"/>
<path opacity="0.2" d="M94.4378 187.937L89.1266 191.722L85.1082 188.084L90.8459 183.992L94.4378 187.937Z" fill="black"/>
<path opacity="0.2" d="M67.3556 196.533L72.1736 198.926L68.5151 204.283L63.697 201.884L67.3556 196.533Z" fill="black"/>
<path d="M106.787 68.7846C106.787 68.7846 106.946 68.5447 104.028 100.385L82.2363 101.911C81.9831 93.0216 82.6495 86.7441 78.4978 68.4781C81.5594 67.8615 84.662 67.4695 87.7808 67.3052C91.0831 67.0849 94.397 67.1027 97.6968 67.3585C101.955 67.765 106.787 68.7846 106.787 68.7846Z" fill="#FF5C8A"/>
<path d="M80.1368 73.7565C78.5174 73.0102 77.098 72.2105 75.6252 71.3642C74.1525 70.5178 72.7597 69.6115 71.3736 68.6519C68.5523 66.7365 65.9292 64.5443 63.5434 62.1078L62.6637 61.1549L62.4371 60.915C62.3073 60.7657 62.1849 60.61 62.0706 60.4485C61.8645 60.1546 61.6861 59.8423 61.5375 59.5155C61.0963 58.4742 60.8696 57.3545 60.8711 56.2235C60.8859 54.4233 61.1277 52.632 61.5908 50.8923C62.4368 47.6363 63.6113 44.4747 65.0961 41.4561L67.6417 42.4423C67.2486 43.9551 66.8754 45.5278 66.5422 47.0672C66.209 48.6065 65.9291 50.1593 65.7425 51.6787C65.5262 53.1073 65.4681 54.5555 65.5692 55.9969C65.6025 56.4959 65.7291 56.9841 65.9424 57.4364C65.9424 57.483 66.0091 57.5363 66.0291 57.543C66.049 57.5496 66.0291 57.543 66.0291 57.543L66.2356 57.7362L67.0553 58.5159C69.3429 60.5876 71.7943 62.4708 74.3857 64.147C75.6852 65.0067 77.0513 65.793 78.3841 66.5861C79.7169 67.3791 81.1497 68.1321 82.4492 68.7918L80.1368 73.7565Z" fill="#7F3E3B"/>
<path d="M87.0743 69.6967C84.602 66.2514 79.7439 66.3047 79.7439 66.3047L73.8862 74.968C73.8862 74.968 80.4236 79.4195 83.2158 78.4266C86.1747 77.3737 88.6004 71.8159 87.0743 69.6967Z" fill="#FF5C8A"/>
<path d="M97.6966 67.358L87.7805 67.3047C86.2611 67.9178 85.3815 71.8695 95.4442 75.2149C102.421 71.2498 98.7095 67.7245 97.6966 67.358Z" fill="white"/>
<path d="M88.8199 56.1426C89.4263 59.3346 90.0194 65.1856 87.7803 67.3048C87.7803 67.3048 88.6466 70.5502 95.4439 75.215C100.209 70.4369 97.6963 67.3581 97.6963 67.3581C94.1444 66.4851 94.251 63.8462 94.8841 61.3605L88.8199 56.1426Z" fill="#7F3E3B"/>
<path d="M109.372 87.8379H109.265C108.914 87.809 108.588 87.6419 108.36 87.3734C108.131 87.1048 108.018 86.7567 108.046 86.4051C108.286 83.4329 106.047 81.1872 103.474 78.5815C100.522 75.6027 97.1703 72.2241 97.037 66.9662C97.0282 66.6127 97.1601 66.2702 97.4038 66.014C97.6475 65.7578 97.983 65.6089 98.3365 65.6C98.69 65.5912 99.0325 65.7231 99.2887 65.9668C99.5449 66.2105 99.6938 66.546 99.7026 66.8995C99.8093 71.0978 102.635 73.95 105.367 76.7089C108.099 79.4678 111.038 82.4267 110.698 86.6183C110.67 86.9507 110.518 87.2603 110.272 87.4861C110.027 87.7119 109.706 87.8374 109.372 87.8379V87.8379Z" fill="#263238"/>
<path d="M89.893 94.5805C89.7851 94.5801 89.6777 94.5667 89.5731 94.5405C89.2303 94.4554 88.9354 94.2378 88.753 93.9354C88.5705 93.6331 88.5156 93.2707 88.6001 92.9278C89.8863 87.7032 88.2003 83.5982 86.4143 79.2799C84.815 75.4014 83.1623 71.3897 83.962 66.6982C84.031 66.3585 84.2297 66.0591 84.5159 65.8634C84.802 65.6678 85.1532 65.5913 85.4948 65.6503C85.8364 65.7092 86.1416 65.899 86.3456 66.1792C86.5496 66.4595 86.6364 66.8082 86.5876 67.1514C85.9212 71.0832 87.354 74.5751 88.8734 78.267C90.6593 82.5919 92.6785 87.4966 91.1858 93.5942C91.1093 93.8782 90.941 94.1289 90.7072 94.3073C90.4734 94.4857 90.1871 94.5818 89.893 94.5805Z" fill="#263238"/>
<path opacity="0.2" d="M93.6317 60.2617L90.9661 60.5749C91.0952 61.2926 91.3525 61.9811 91.7258 62.6075C92.2522 63.4005 93.4251 63.747 94.5846 63.7803C94.5833 62.9559 94.6954 62.1352 94.9178 61.3413L93.6317 60.2617Z" fill="black"/>
<path d="M82.9226 52.9302C84.8751 57.9015 85.5882 60.0473 88.9935 61.82C94.1115 64.4856 99.7892 61.0136 99.3627 55.5624C98.9829 50.6511 95.8574 43.3473 90.2397 42.9341C89.0025 42.8377 87.7612 43.059 86.6335 43.5769C85.5059 44.0948 84.5292 44.8923 83.7963 45.8936C83.0633 46.8949 82.5983 48.0669 82.4454 49.2984C82.2925 50.5299 82.4567 51.78 82.9226 52.9302V52.9302Z" fill="#7F3E3B"/>
<path d="M88.2736 42.2141C92.0654 44.5465 88.8201 58.2677 82.4026 57.5414C75.9852 56.815 82.6692 38.7688 88.2736 42.2141Z" fill="#263238"/>
<path d="M88.1338 42.2687C85.2749 44.168 87.2274 47.4733 96.8636 45.5141C96.8636 45.5074 92.8785 39.11 88.1338 42.2687Z" fill="#263238"/>
<path d="M83.6154 57.762C84.0368 58.7037 84.8127 59.4412 85.7745 59.8145C87.0607 60.2943 87.8137 59.1481 87.5605 57.9019C87.3273 56.7624 86.381 55.1297 85.0482 55.1963C84.7569 55.2159 84.4751 55.308 84.2285 55.4642C83.9818 55.6203 83.7781 55.8356 83.6358 56.0905C83.4934 56.3453 83.417 56.6317 83.4135 56.9236C83.4099 57.2155 83.4793 57.5037 83.6154 57.762V57.762Z" fill="#7F3E3B"/>
<path d="M104.041 100.385C104.041 100.385 115.703 138.456 116.642 154.836C117.615 171.876 92.3119 192.095 92.3119 192.095L86.0144 185.184C86.0144 185.184 106.573 167.725 103.754 155.076C99.8556 137.643 88.0469 101.504 88.0469 101.504L104.041 100.385Z" fill="#1C2D5E"/>
<path opacity="0.2" d="M96.7703 112.847C95.7041 109.515 93.3317 111.754 92.5054 115.286C94.1514 120.617 96.0573 126.855 97.8699 133.099C98.5696 127.568 98.8562 119.378 96.7703 112.847Z" fill="black"/>
<path d="M84.3086 184.852L92.2988 193.095L95.7107 191.209L87.2674 182.02L84.3086 184.852Z" fill="#FF5C8A"/>
<path d="M98.2765 100.791C98.2765 100.791 94.9445 138.109 91.6125 158.895C88.9136 175.688 70.5808 203.117 70.5808 203.117L63.8635 199.992C63.8635 199.992 76.1853 170.623 78.1045 159.208C84.2621 122.669 75.9454 112.126 82.2429 101.897L98.2765 100.791Z" fill="#1C2D5E"/>
<path d="M63.3901 200.066L70.9671 203.784L73.4528 200.699L64.5897 196.521L63.3901 200.066Z" fill="#FF5C8A"/>
<path d="M81.8226 100.657L80.9763 102.656C80.9096 102.81 81.0962 102.956 81.3494 102.936L104.207 101.337C104.4 101.337 104.56 101.217 104.56 101.09L104.62 99.0912C104.62 98.9579 104.447 98.858 104.234 98.8713L82.1625 100.417C82.0886 100.42 82.0171 100.444 81.9568 100.487C81.8964 100.529 81.8498 100.589 81.8226 100.657V100.657Z" fill="white"/>
<path d="M84.9552 102.911L84.3688 102.95C84.2488 102.95 84.1555 102.904 84.1555 102.831L84.2555 100.278C84.2555 100.205 84.3621 100.132 84.4754 100.125L85.0685 100.085C85.1884 100.085 85.2817 100.132 85.2751 100.205L85.1751 102.757C85.1751 102.844 85.0751 102.911 84.9552 102.911Z" fill="#263238"/>
<path d="M102.561 101.684L101.968 101.724C101.848 101.724 101.755 101.677 101.762 101.604L101.862 99.0517C101.862 98.9784 101.962 98.9117 102.082 98.8984L102.668 98.8584C102.788 98.8584 102.881 98.9051 102.881 98.9784L102.781 101.537C102.775 101.611 102.708 101.677 102.561 101.684Z" fill="#263238"/>
<path d="M93.7582 102.304L93.1651 102.344C93.0518 102.344 92.9585 102.297 92.9585 102.224L93.0585 99.6651C93.0585 99.5918 93.1584 99.5252 93.2784 99.5185L93.8715 99.4785C93.9848 99.4785 94.0781 99.5252 94.0781 99.5985L93.9781 102.151C93.9781 102.244 93.8781 102.291 93.7582 102.304Z" fill="#263238"/>
<path d="M90.9525 51.0639C90.6327 51.1705 90.4994 51.6503 90.6593 52.1435L91.8255 51.7703C91.6656 51.2771 91.2724 50.9306 90.9525 51.0639Z" fill="#263238"/>
<path d="M96.044 49.4522C95.7175 49.5588 95.5842 50.0453 95.7441 50.5384L96.917 50.1586C96.7104 49.6654 96.3306 49.3522 96.044 49.4522Z" fill="#263238"/>
<path d="M95.8774 49.5254L96.9503 48.8057C96.9503 48.8057 96.6438 49.9252 95.8774 49.5254Z" fill="#263238"/>
<path d="M94.7109 51.4648C95.3809 52.2879 96.1613 53.0144 97.03 53.624C96.869 53.8426 96.6621 54.0233 96.4238 54.1534C96.1855 54.2835 95.9215 54.3598 95.6506 54.377L94.7109 51.4648Z" fill="#630F0F"/>
<path d="M94.7913 56.4489C94.8108 56.432 94.825 56.4097 94.8321 56.3849C94.8392 56.36 94.8389 56.3337 94.8313 56.309C94.8207 56.2772 94.7979 56.2509 94.7679 56.2359C94.7379 56.2209 94.7032 56.2185 94.6714 56.229C94.1616 56.4055 93.6176 56.4601 93.0829 56.3883C92.5482 56.3166 92.0378 56.1205 91.5926 55.8158C91.5808 55.804 91.5668 55.7945 91.5514 55.7881C91.5359 55.7816 91.5194 55.7783 91.5026 55.7783C91.4859 55.7783 91.4693 55.7816 91.4539 55.7881C91.4385 55.7945 91.4245 55.804 91.4127 55.8158C91.3999 55.8271 91.3897 55.8409 91.3827 55.8565C91.3757 55.872 91.3721 55.8888 91.3721 55.9058C91.3721 55.9228 91.3757 55.9396 91.3827 55.9552C91.3897 55.9707 91.3999 55.9845 91.4127 55.9958C91.889 56.337 92.441 56.5577 93.0213 56.639C93.6016 56.7202 94.1929 56.6596 94.7447 56.4623L94.7913 56.4489Z" fill="#263238"/>
<path d="M89.2668 50.7649C89.3005 50.7368 89.3259 50.6999 89.3401 50.6583C89.4317 50.3482 89.5972 50.0649 89.8224 49.8327C90.0476 49.6006 90.3257 49.4265 90.6329 49.3255C90.6653 49.3176 90.6958 49.3035 90.7227 49.2838C90.7496 49.2641 90.7724 49.2394 90.7897 49.2109C90.807 49.1824 90.8186 49.1508 90.8237 49.1179C90.8288 49.085 90.8274 49.0514 90.8195 49.019C90.8116 48.9866 90.7975 48.9561 90.7778 48.9292C90.7581 48.9023 90.7334 48.8795 90.7049 48.8622C90.6764 48.8449 90.6448 48.8333 90.6119 48.8282C90.579 48.8231 90.5453 48.8245 90.513 48.8324C90.1267 48.954 89.7752 49.1663 89.4877 49.4515C89.2002 49.7367 88.9851 50.0865 88.8603 50.4717C88.8392 50.5354 88.8442 50.6048 88.8741 50.6647C88.9041 50.7247 88.9567 50.7703 89.0202 50.7916C89.0599 50.81 89.1038 50.8173 89.1472 50.8126C89.1907 50.8079 89.232 50.7914 89.2668 50.7649V50.7649Z" fill="#263238"/>
<path d="M97.2499 47.4734C97.2641 47.4659 97.2757 47.4543 97.2832 47.4401C97.3046 47.414 97.3205 47.3839 97.3301 47.3515C97.3396 47.3192 97.3426 47.2853 97.3389 47.2517C97.3352 47.2182 97.3248 47.1858 97.3084 47.1563C97.2919 47.1269 97.2698 47.101 97.2432 47.0802C96.9314 46.8223 96.5626 46.6424 96.1674 46.5555C95.7722 46.4686 95.362 46.4771 94.9708 46.5804C94.9385 46.5909 94.9087 46.6078 94.8831 46.63C94.8575 46.6522 94.8366 46.6794 94.8217 46.7099C94.8068 46.7403 94.7981 46.7735 94.7963 46.8073C94.7944 46.8412 94.7994 46.8751 94.8108 46.907C94.8336 46.9695 94.8794 47.0209 94.9389 47.0507C94.9984 47.0805 95.0671 47.0863 95.1307 47.0669C95.4408 46.9872 95.7654 46.9832 96.0774 47.0551C96.3893 47.127 96.6795 47.2727 96.9233 47.4801C96.9698 47.5177 97.0281 47.5376 97.0878 47.5364C97.1476 47.5352 97.205 47.5129 97.2499 47.4734V47.4734Z" fill="#263238"/>
<path d="M64.5029 43.6349L63.6699 38.3037L69.1078 40.9693C68.9029 41.8668 68.4395 42.6846 67.775 43.3217C67.5015 43.6331 67.1455 43.8609 66.7482 43.9788C66.3508 44.0967 65.9283 44.1 65.5292 43.9881L64.5029 43.6349Z" fill="#7F3E3B"/>
<path d="M66.722 35.6904L69.5076 38.1361L69.1078 40.935L63.6699 38.2961L66.722 35.6904Z" fill="#7F3E3B"/>
<path d="M67.6019 211.275C67.6585 211.234 67.7119 211.19 67.7619 211.142C67.819 211.09 67.861 211.023 67.8833 210.949C67.9056 210.875 67.9074 210.797 67.8885 210.722C67.7285 210.055 65.8893 209.389 65.6827 209.342C65.6599 209.332 65.6345 209.33 65.6104 209.336C65.5864 209.342 65.5649 209.356 65.5494 209.376C65.5357 209.396 65.5283 209.421 65.5283 209.446C65.5283 209.47 65.5357 209.495 65.5494 209.516C65.8493 210.182 66.4491 211.275 67.1221 211.388C67.2907 211.413 67.4624 211.373 67.6019 211.275ZM65.8893 209.689C66.6157 209.962 67.5553 210.428 67.6419 210.782C67.6481 210.815 67.6452 210.849 67.6335 210.881C67.6218 210.913 67.6016 210.94 67.5753 210.962C67.5245 211.026 67.458 211.077 67.3822 211.108C67.3063 211.14 67.2237 211.151 67.1421 211.142C66.7756 211.075 66.3224 210.542 65.8893 209.689Z" fill="#FF5C8A"/>
<path d="M67.9417 209.495C67.9852 209.469 68.0236 209.435 68.055 209.395C68.12 209.316 68.1556 209.217 68.1556 209.115C68.1556 209.013 68.12 208.914 68.055 208.835C68.0055 208.751 67.938 208.678 67.8574 208.623C67.7768 208.568 67.685 208.531 67.5886 208.515C66.8222 208.375 65.5893 209.321 65.5427 209.361C65.5254 209.376 65.5121 209.394 65.5039 209.415C65.4958 209.436 65.4931 209.459 65.4961 209.481C65.4998 209.503 65.5083 209.523 65.521 209.54C65.5337 209.557 65.5503 209.571 65.5694 209.581C66.3445 209.841 67.1876 209.81 67.9417 209.495V209.495ZM65.9425 209.395C66.3989 209.023 66.9608 208.803 67.5486 208.768C67.6099 208.776 67.6685 208.798 67.7195 208.833C67.7705 208.867 67.8124 208.914 67.8418 208.968C67.9284 209.108 67.8884 209.181 67.8418 209.228C67.6019 209.515 66.509 209.568 65.9026 209.415L65.9425 209.395Z" fill="#FF5C8A"/>
<path d="M85.3281 198.373C85.4636 198.79 85.7271 199.154 86.0811 199.412C86.1808 199.471 86.2923 199.507 86.4075 199.517C86.5228 199.528 86.6389 199.512 86.7475 199.472C86.8124 199.454 86.8709 199.418 86.9168 199.369C86.9626 199.32 86.994 199.259 87.0074 199.192C87.1473 198.526 85.4014 196.88 85.0482 196.527C85.0264 196.513 85.0009 196.505 84.9749 196.505C84.9488 196.505 84.9233 196.513 84.9016 196.527C84.8783 196.539 84.8598 196.559 84.8489 196.583C84.8381 196.607 84.8355 196.634 84.8416 196.66C84.9399 197.247 85.1031 197.822 85.3281 198.373ZM86.7142 198.873C86.752 198.949 86.7681 199.034 86.7608 199.119C86.7608 199.152 86.7608 199.186 86.6675 199.212C86.5897 199.242 86.5061 199.254 86.4231 199.247C86.34 199.24 86.2595 199.215 86.1877 199.172C85.7812 198.933 85.408 198.133 85.1681 197C85.7751 197.543 86.2963 198.174 86.7142 198.873V198.873Z" fill="#FF5C8A"/>
<path d="M84.8683 196.707C84.8664 196.72 84.8664 196.733 84.8683 196.746C85.4147 197.3 87.0474 198.193 87.5739 197.886C87.6872 197.819 87.8071 197.673 87.7138 197.353C87.374 196.127 85.0482 196.513 84.9349 196.533C84.9116 196.536 84.8897 196.546 84.8719 196.562C84.8542 196.577 84.8413 196.597 84.835 196.62C84.8353 196.652 84.8472 196.683 84.8683 196.707V196.707ZM87.4673 197.34L87.5006 197.42C87.5006 197.553 87.5006 197.633 87.5006 197.666C87.194 197.839 85.9612 197.266 85.3081 196.746C85.8546 196.687 87.174 196.633 87.4673 197.34Z" fill="#FF5C8A"/>
<path d="M90.8191 51.1385L91.892 50.4121C91.892 50.4121 91.5855 51.5383 90.8191 51.1385Z" fill="#263238"/>
<path d="M177.938 225.708L172.773 225.715L171.381 213.76L176.545 213.753L177.938 225.708Z" fill="#FFC3BD"/>
<path d="M222.393 203.517L218.482 206.896L209.625 198.746L213.53 195.367L222.393 203.517Z" fill="#FFC3BD"/>
<path d="M217.722 206.763L222.48 202.645C222.558 202.58 222.656 202.545 222.757 202.545C222.858 202.545 222.955 202.58 223.033 202.645L226.658 205.537C226.747 205.611 226.818 205.704 226.867 205.809C226.915 205.914 226.94 206.028 226.94 206.143C226.94 206.259 226.915 206.373 226.867 206.478C226.818 206.582 226.747 206.675 226.658 206.75C225.106 208.049 223.913 208.922 221.994 210.588C220.807 211.614 217.329 214.84 215.689 216.259C214.05 217.679 212.497 216.179 213.024 215.446C215.49 212.168 217.022 209.262 217.262 207.536C217.321 207.233 217.484 206.96 217.722 206.763Z" fill="#263238"/>
<path d="M172.807 225.115H178.451C178.553 225.116 178.653 225.151 178.733 225.215C178.812 225.279 178.868 225.369 178.891 225.468L179.917 230.06C179.942 230.171 179.942 230.286 179.916 230.396C179.891 230.507 179.841 230.61 179.77 230.699C179.698 230.787 179.608 230.858 179.506 230.907C179.403 230.956 179.291 230.98 179.177 230.98C177.138 230.946 174.199 230.833 171.64 230.833C168.655 230.833 166.902 230.913 163.397 230.92C161.278 230.92 160.685 228.78 161.571 228.587C165.609 227.694 168.075 227.688 171.567 225.528C171.934 225.278 172.363 225.135 172.807 225.115Z" fill="#263238"/>
<path d="M156.02 77.2603C154.98 76.8604 154.087 76.4939 153.154 76.0674C152.222 75.6409 151.322 75.2211 150.416 74.7746C148.607 73.8861 146.83 72.8953 145.084 71.8024C143.327 70.7256 141.638 69.5416 140.026 68.2572C139.62 67.924 139.207 67.5908 138.807 67.2509L137.621 66.1647C137.227 65.8048 136.854 65.3917 136.474 65.0051C136.281 64.7919 136.115 64.6386 135.895 64.3854C135.675 64.1322 135.461 63.8856 135.268 63.6324C134.54 62.6689 133.92 61.6274 133.422 60.5269C132.959 59.5221 132.565 58.4867 132.243 57.4282C131.63 55.4293 131.184 53.3831 130.91 51.3106C130.384 47.3208 130.284 43.2864 130.61 39.2754H134.489C134.755 41.0813 135.035 42.9806 135.402 44.8065C135.768 46.6325 136.155 48.4584 136.628 50.2177C137.075 51.9362 137.641 53.6217 138.32 55.2624C138.884 56.713 139.679 58.0631 140.673 59.2608L140.999 59.594C141.099 59.7006 141.299 59.8605 141.446 59.9938C141.766 60.267 142.059 60.5536 142.399 60.8135C143.065 61.3466 143.732 61.8731 144.478 62.3795C145.917 63.3791 147.437 64.3321 149.023 65.2251C150.609 66.118 152.228 66.9644 153.874 67.764C154.701 68.1706 155.534 68.5704 156.367 68.9436C157.2 69.3168 158.073 69.7099 158.819 70.0298L156.02 77.2603Z" fill="#FFC3BD"/>
<path d="M156.847 81.6591C153.906 79.831 151.128 77.753 148.543 75.4483L150.602 64.9258C154.431 66.0149 158.324 66.8651 162.258 67.4714C168.755 68.3111 161.478 84.418 156.847 81.6591Z" fill="#1C2D5E"/>
<path d="M134.622 40.1829L134.989 33.6055L129.524 35.3581C129.524 35.3581 128.251 40.0696 131.797 41.3091L134.622 40.1829Z" fill="#FFC3BD"/>
<path d="M134.329 30.0664L129.818 31.9457L129.525 35.3576L134.989 33.605L134.329 30.0664Z" fill="#FFC3BD"/>
<path opacity="0.2" d="M171.387 213.76L172.101 219.924L177.265 219.917L176.552 213.753L171.387 213.76Z" fill="black"/>
<path opacity="0.2" d="M213.537 195.367L209.625 198.746L214.197 202.944L218.102 199.566L213.537 195.367Z" fill="black"/>
<path d="M182.116 67.2576C182.128 66.8918 182.067 66.5274 181.937 66.1854C181.807 65.8433 181.611 65.5304 181.359 65.2646C181.107 64.9989 180.806 64.7855 180.471 64.6369C180.137 64.4883 179.777 64.4073 179.411 64.3987C164.67 64.1255 155.08 68.2572 154.421 68.5237C154.175 68.623 153.958 68.7835 153.791 68.9899C153.624 69.1963 153.513 69.4418 153.468 69.7033C152.855 73.3951 151.115 88.869 159.639 113.086L186.961 109.174C186.595 105.142 181.503 86.6432 182.116 67.2576Z" fill="#1C2D5E"/>
<path d="M160.019 66.6656C158.399 68.8314 157.666 73.8228 163.031 77.4747C169.628 72.55 173.027 67.2521 174.033 64.4932C169.299 64.7306 164.603 65.4587 160.019 66.6656V66.6656Z" fill="white"/>
<path d="M158.792 68.69C158.439 68.69 158.1 68.5496 157.85 68.2996C157.6 68.0497 157.459 67.7107 157.459 67.3572C157.459 66.2576 158.412 65.3113 159.219 64.6916C161.924 62.6924 167.216 61.1663 173.88 63.0922C174.207 63.2003 174.48 63.4311 174.641 63.7361C174.802 64.0412 174.838 64.3967 174.742 64.728C174.647 65.0593 174.426 65.3406 174.127 65.5128C173.828 65.6849 173.475 65.7345 173.14 65.6512C165.41 63.4188 160.645 66.5908 160.132 67.5038C160.095 67.8325 159.938 68.1359 159.691 68.3551C159.443 68.5743 159.123 68.6937 158.792 68.69V68.69Z" fill="#FF5C8A"/>
<path d="M169.868 51.8252C169.668 55.6703 169.915 62.6276 172.887 64.7467C171.141 67.0591 168.815 69.7714 164.397 70.5644C161.731 71.0376 160.818 70.0513 160.705 68.8051C160.667 68.204 160.8 67.6044 161.088 67.0752C161.375 66.546 161.806 66.1086 162.331 65.813C165.203 64.147 164.63 61.468 163.597 58.9357L169.868 51.8252Z" fill="#FFC3BD"/>
<path d="M158.386 99.2656C158.236 99.2649 158.087 99.2379 157.946 99.1856C157.613 99.0679 157.341 98.8228 157.188 98.5042C157.036 98.1855 157.016 97.8194 157.133 97.4863C157.318 97.02 157.404 96.5203 157.386 96.019C157.368 95.5176 157.245 95.0256 157.027 94.5741L156.887 94.1942C156.659 93.7466 156.357 93.341 155.994 92.9947C155.214 92.3693 154.675 91.4935 154.467 90.5158C154.259 89.538 154.396 88.5186 154.854 87.6302C155.018 87.2499 155.115 86.844 155.141 86.4307C155.014 85.956 154.809 85.5056 154.534 85.0979C153.984 84.3114 153.659 83.3898 153.595 82.4323C153.67 81.431 154.033 80.4728 154.641 79.6734C154.87 79.3702 155.05 79.0329 155.174 78.6738C155.179 78.303 155.106 77.9353 154.961 77.5942C154.64 76.8368 154.561 75.9991 154.734 75.1951C155.005 74.2886 155.561 73.4938 156.32 72.9294C156.535 72.7672 156.722 72.5714 156.873 72.3496C156.969 72.0277 156.969 71.6852 156.873 71.3633C156.671 70.5915 156.778 69.771 157.173 69.0776C157.64 68.3445 157.593 68.1579 157.553 68.0047C157.486 67.771 157.457 67.528 157.467 67.285C157.467 66.9315 157.607 66.5925 157.857 66.3425C158.107 66.0926 158.446 65.9521 158.799 65.9521C159.153 65.9521 159.492 66.0926 159.742 66.3425C159.992 66.5925 160.132 66.9315 160.132 67.285V67.3249C160.319 68.078 160.372 68.9776 159.466 70.4504C159.477 70.6069 159.497 70.7626 159.526 70.9168C159.727 71.6498 159.697 72.4268 159.441 73.1422C159.184 73.8576 158.714 74.4767 158.093 74.9153C157.666 75.2884 157.427 75.515 157.333 75.8416C157.32 76.1494 157.381 76.456 157.513 76.7345C157.796 77.4472 157.908 78.2165 157.84 78.9803C157.692 79.7459 157.373 80.4681 156.907 81.0928C156.598 81.4825 156.383 81.9388 156.28 82.4256C156.388 82.8921 156.585 83.3334 156.86 83.7251C157.339 84.4411 157.664 85.249 157.813 86.0975C157.85 86.8997 157.711 87.7002 157.407 88.4432C157.19 88.9171 157.087 89.4352 157.107 89.9559C157.317 90.4181 157.618 90.833 157.993 91.1754C158.61 91.7784 159.099 92.499 159.432 93.2946L159.552 93.6411C160.208 95.1309 160.249 96.8196 159.666 98.3393C159.579 98.6099 159.408 98.8457 159.178 99.0124C158.948 99.179 158.67 99.2677 158.386 99.2656Z" fill="#FF5C8A"/>
<path d="M181.87 67.0381C182.597 67.7045 183.203 68.2643 183.816 68.904C184.429 69.5438 185.029 70.1635 185.622 70.8033C186.808 72.0828 187.928 73.4289 189.007 74.8017C191.256 77.6469 193.139 80.7634 194.612 84.078C194.983 84.9646 195.308 85.8699 195.585 86.7902C195.725 87.2567 195.845 87.7432 195.958 88.2363L195.998 88.4162L196.058 88.7295C196.098 88.936 196.118 89.156 196.138 89.3959C196.17 89.8403 196.156 90.2869 196.098 90.7287C195.999 91.5251 195.758 92.2972 195.385 93.0078C195.073 93.5994 194.695 94.1539 194.259 94.6604C193.536 95.4853 192.705 96.2073 191.786 96.8062C190.219 97.8319 188.532 98.66 186.762 99.2719C185.922 99.5785 185.076 99.8384 184.223 100.058C183.37 100.278 182.543 100.485 181.617 100.638L180.417 96.9528C181.084 96.5797 181.797 96.1865 182.47 95.7866C183.143 95.3868 183.803 94.967 184.469 94.5471C185.708 93.7642 186.874 92.8721 187.954 91.8815C188.369 91.4824 188.733 91.0349 189.041 90.5487C189.274 90.1689 189.254 89.9156 189.187 89.9956C189.182 90.0176 189.182 90.0403 189.187 90.0623C189.187 90.0623 189.187 90.0623 189.187 90.0623L189.147 89.9423C189.047 89.6358 188.954 89.3226 188.821 89.0027C188.574 88.3523 188.291 87.7161 187.974 87.0968C187.305 85.7806 186.544 84.5134 185.695 83.3049C184.849 82.0521 183.916 80.8259 182.93 79.6264C181.943 78.4269 180.931 77.2474 179.858 76.0812C179.331 75.5014 178.791 74.9349 178.245 74.3752C177.698 73.8154 177.125 73.229 176.639 72.7625L181.87 67.0381Z" fill="#FFC3BD"/>
<path d="M180.151 64.513C183.163 64.9595 187.888 72.5099 187.888 72.5099L180.217 82.7924C180.217 82.7924 176.126 78.894 174.933 75.462C172.68 68.878 174.233 63.6467 180.151 64.513Z" fill="#1C2D5E"/>
<path d="M176.132 90.3961C175.901 90.3935 175.674 90.3307 175.474 90.2139C175.275 90.097 175.109 89.9302 174.993 89.7297C174.535 88.8336 174.336 87.8272 174.42 86.8242C174.455 86.4102 174.419 85.9931 174.313 85.5913C174.046 85.1775 173.71 84.8124 173.32 84.5118C172.553 83.9409 171.956 83.1713 171.594 82.286C171.347 81.313 171.391 80.2887 171.721 79.3405C171.842 78.9794 171.907 78.6018 171.914 78.2209C171.747 77.7637 171.503 77.338 171.194 76.9614C170.508 76.2558 170.106 75.3216 170.065 74.3379C170.025 73.3542 170.348 72.39 170.975 71.6302C171.155 71.3588 171.301 71.0654 171.408 70.7573C171.373 70.2515 171.251 69.7555 171.048 69.2912C170.667 68.5052 170.537 67.6213 170.675 66.7588C170.923 65.5322 171.542 64.4112 172.447 63.5468L172.534 63.4602C172.783 63.2239 173.113 63.0927 173.456 63.0938C173.799 63.0948 174.128 63.2281 174.376 63.4659C174.623 63.7037 174.769 64.0277 174.783 64.3705C174.798 64.7132 174.68 65.0483 174.453 65.3061L174.3 65.4594C173.755 65.9846 173.389 66.6675 173.254 67.4119C173.326 67.7463 173.426 68.074 173.554 68.3915C173.903 69.1988 174.078 70.0709 174.067 70.9505C173.963 71.6802 173.692 72.376 173.274 72.983C172.985 73.3764 172.795 73.8336 172.721 74.3158C172.878 74.7282 173.103 75.1112 173.387 75.4487C173.925 76.1175 174.318 76.8916 174.54 77.7211C174.642 78.4943 174.566 79.2804 174.32 80.0202C174.151 80.4893 174.089 80.9903 174.14 81.4863C174.393 81.8949 174.721 82.2521 175.106 82.5392C175.784 83.0721 176.344 83.7391 176.752 84.4984C177.041 85.2472 177.159 86.0507 177.099 86.8508C177.049 87.3698 177.115 87.8932 177.292 88.3836C177.473 88.6868 177.526 89.0493 177.44 89.3916C177.354 89.734 177.135 90.0281 176.832 90.2095C176.621 90.3351 176.378 90.3997 176.132 90.3961Z" fill="#FF5C8A"/>
<path opacity="0.2" d="M167.309 54.7236L163.604 58.9286C163.883 59.5746 164.106 60.2435 164.27 60.9278C165.83 60.468 167.769 58.4088 167.702 56.7162C167.692 56.0338 167.559 55.3588 167.309 54.7236Z" fill="black"/>
<path d="M159.519 40.888C157.873 43.7535 158.926 47.8319 158.926 47.8319C159.367 48.1189 159.877 48.2827 160.404 48.3061C160.93 48.3296 161.453 48.2118 161.918 47.9651L161.451 40.3682L159.519 40.888Z" fill="#263238"/>
<path d="M172.494 48.1654C171.234 53.1367 170.748 56.1089 167.722 58.208C163.171 61.3668 157.4 57.8882 157.153 52.6436C156.927 47.9188 159.026 40.5884 164.33 39.5222C165.497 39.2804 166.706 39.3413 167.843 39.6989C168.98 40.0566 170.006 40.6991 170.824 41.5654C171.642 42.4317 172.225 43.493 172.518 44.6482C172.81 45.8034 172.802 47.0142 172.494 48.1654V48.1654Z" fill="#FFC3BD"/>
<path d="M169.408 45.4335C169.408 43.5409 167.982 42.1615 163.224 42.528C159.339 42.8212 157.446 41.0086 158.559 38.4829C161.705 40.1223 161.185 37.9765 167.182 37.7166C173.18 37.4567 174.919 39.7158 175.552 43.2277C179.224 48.6722 172.887 50.9313 172.887 50.9313L170.408 53.0971C169.894 53.2139 169.359 53.1907 168.857 53.0302C168.355 52.8696 167.906 52.5775 167.556 52.1842C167.556 52.1842 167.069 47.7659 169.408 45.4335Z" fill="#263238"/>
<path d="M163.037 36.778L162.884 36.858C162.741 36.9339 162.621 37.0461 162.536 37.1832C162.45 37.3203 162.402 37.4775 162.397 37.6389C162.392 37.8004 162.429 37.9604 162.505 38.1029C162.581 38.2454 162.693 38.3654 162.831 38.4507L176.745 47.0539C176.876 47.1342 177.025 47.1804 177.178 47.1883C177.331 47.1963 177.484 47.1657 177.623 47.0995C177.761 47.0332 177.881 46.9334 177.971 46.809C178.061 46.6847 178.118 46.5398 178.138 46.3875V46.3875C178.203 45.9578 178.14 45.5184 177.958 45.1239C177.775 44.7294 177.481 44.3972 177.112 44.1684L165.25 36.838C164.918 36.6359 164.539 36.524 164.151 36.5135C163.763 36.503 163.379 36.5942 163.037 36.778V36.778Z" fill="#FF5C8A"/>
<path d="M165.543 37.6972L169.102 32.486C169.203 32.3375 169.358 32.2334 169.534 32.195C169.71 32.1566 169.893 32.1868 170.048 32.2794L179.871 38.1637C179.957 38.214 180.031 38.282 180.088 38.3632C180.146 38.4445 180.186 38.5371 180.205 38.6349C180.223 38.7327 180.221 38.8334 180.198 38.9302C180.175 39.0271 180.132 39.1179 180.071 39.1966L175.812 44.8211L165.543 37.6972Z" fill="#FF5C8A"/>
<path d="M165.543 37.6962L166.962 35.1572L177.931 42.4077L175.812 44.82L165.543 37.6962Z" fill="#FF5C8A"/>
<path opacity="0.6" d="M165.543 37.6962L166.962 35.1572L177.931 42.4077L175.812 44.82L165.543 37.6962Z" fill="white"/>
<path d="M173.127 54.2631C172.153 54.9282 170.957 55.1865 169.795 54.9828C168.282 54.6896 168.282 53.1569 169.328 52.0707C170.268 51.091 172.194 50.0714 173.407 50.9178C174.62 51.7641 174.333 53.4301 173.127 54.2631Z" fill="#FFC3BD"/>
<path d="M170.161 218.738H178.905C178.905 218.738 177.532 187.644 175.646 171.664C175.073 166.799 175.692 160.135 175.752 152.691C175.832 143.315 176.266 133.099 176.692 125.082C177.145 116.639 177.525 110.555 177.525 110.555L159.639 113.107C159.639 113.107 157.866 157.376 160.645 172.89C163.537 189.003 170.161 218.738 170.161 218.738Z" fill="#FF5C8A"/>
<path opacity="0.2" d="M175.752 152.67C175.832 143.294 176.265 133.078 176.692 125.061L174.026 121.496C170.734 127.66 173.02 144.074 175.752 152.67Z" fill="black"/>
<path d="M168.162 111.867C168.162 111.867 179.271 155.736 184.549 169.924C190.326 185.451 211.605 203.604 211.605 203.604L216.982 197.686C216.982 197.686 205.727 180.14 197.43 163.26C193.465 141.342 186.988 109.175 186.988 109.175L168.162 111.867Z" fill="#FF5C8A"/>
<path d="M210.885 204.497L219.315 197.214L217.136 194.701L207.573 202.678L210.885 204.497Z" fill="#263238"/>
<path d="M169.062 218.937L179.484 218.924L179.477 215.558L167.835 215.398L169.062 218.937Z" fill="#263238"/>
<path d="M164.817 47.1931C164.484 47.0931 164.091 47.413 163.931 47.9128L165.117 48.2926C165.277 47.7928 165.144 47.2997 164.817 47.1931Z" fill="#263238"/>
<path d="M159.619 46.2139C159.279 46.2139 158.952 46.6004 158.952 47.1268L160.192 47.2068C160.212 46.6804 159.965 46.2672 159.619 46.2139Z" fill="#263238"/>
<path d="M161.412 47.7324C160.686 48.8911 159.805 49.9449 158.793 50.8645C159.036 51.1168 159.331 51.3132 159.658 51.4397C159.985 51.5663 160.336 51.6202 160.685 51.5976L161.412 47.7324Z" fill="#ED847E"/>
<path d="M166.509 46.659C166.551 46.6689 166.594 46.6689 166.636 46.659C166.698 46.6391 166.749 46.5958 166.779 46.5385C166.809 46.4811 166.815 46.4143 166.796 46.3525C166.692 45.9784 166.5 45.6347 166.236 45.3506C165.971 45.0664 165.642 44.8501 165.277 44.7198C165.246 44.7097 165.214 44.706 165.182 44.709C165.149 44.7121 165.118 44.7217 165.09 44.7374C165.062 44.753 165.037 44.7743 165.018 44.8C164.998 44.8256 164.984 44.8551 164.977 44.8864C164.968 44.917 164.965 44.9492 164.968 44.9809C164.972 45.0127 164.981 45.0434 164.997 45.0714C165.013 45.0993 165.033 45.1239 165.059 45.1436C165.084 45.1633 165.113 45.1778 165.143 45.1863V45.1863C165.433 45.2977 165.692 45.4769 165.898 45.7087C166.105 45.9406 166.252 46.2184 166.33 46.5191C166.347 46.5545 166.372 46.5856 166.403 46.6098C166.435 46.6341 166.471 46.6509 166.509 46.659V46.659Z" fill="#263238"/>
<path d="M158.08 45.5135C158.119 45.5202 158.16 45.5171 158.199 45.5043C158.237 45.4915 158.272 45.4695 158.3 45.4402C158.5 45.2088 158.753 45.0279 159.036 44.9122C159.32 44.7964 159.627 44.749 159.932 44.7738C159.997 44.7834 160.062 44.767 160.115 44.7283C160.167 44.6896 160.202 44.6316 160.212 44.5672C160.222 44.5045 160.206 44.4405 160.169 44.3893C160.131 44.3381 160.075 44.3038 160.012 44.294C159.626 44.2558 159.236 44.3109 158.875 44.4547C158.515 44.5985 158.194 44.8268 157.94 45.1203C157.916 45.1427 157.898 45.1696 157.885 45.1994C157.872 45.2292 157.866 45.2612 157.866 45.2936C157.866 45.326 157.872 45.358 157.885 45.3878C157.898 45.4176 157.916 45.4445 157.94 45.4669C157.981 45.4949 158.03 45.5111 158.08 45.5135V45.5135Z" fill="#263238"/>
<path d="M216.989 208.589C217.328 208.279 217.632 207.933 217.896 207.556C217.909 207.536 217.916 207.513 217.916 207.489C217.916 207.466 217.909 207.443 217.896 207.423C217.885 207.401 217.868 207.383 217.846 207.372C217.824 207.361 217.799 207.358 217.776 207.363C217.562 207.363 215.663 207.676 215.417 208.282C215.389 208.349 215.38 208.422 215.389 208.493C215.399 208.564 215.426 208.632 215.47 208.689C215.533 208.792 215.621 208.877 215.726 208.936C215.831 208.996 215.949 209.028 216.07 209.029C216.418 208.993 216.743 208.838 216.989 208.589V208.589ZM217.522 207.656C216.969 208.369 216.436 208.782 216.076 208.782C215.995 208.78 215.915 208.757 215.845 208.715C215.775 208.673 215.717 208.613 215.676 208.542C215.661 208.519 215.653 208.491 215.653 208.462C215.653 208.434 215.661 208.406 215.676 208.382C215.77 208.069 216.763 207.789 217.522 207.656Z" fill="#FF5C8A"/>
<path d="M217.876 207.582C217.894 207.566 217.907 207.545 217.916 207.522C217.926 207.503 217.931 207.481 217.931 207.459C217.931 207.437 217.926 207.415 217.916 207.396C217.869 207.349 216.85 206.263 216.09 206.27C215.997 206.27 215.905 206.289 215.82 206.327C215.735 206.365 215.659 206.42 215.597 206.489C215.526 206.551 215.479 206.634 215.462 206.726C215.445 206.818 215.46 206.913 215.504 206.996C215.777 207.516 217.263 207.729 217.849 207.609L217.876 207.582ZM215.783 206.623C215.861 206.556 215.961 206.52 216.063 206.523C216.55 206.523 217.216 207.089 217.536 207.389C216.87 207.422 215.85 207.183 215.684 206.876C215.684 206.843 215.637 206.776 215.743 206.663L215.783 206.623Z" fill="#FF5C8A"/>
<path d="M172.3 225.835C172.322 225.828 172.341 225.814 172.355 225.797C172.369 225.779 172.378 225.758 172.38 225.735C172.386 225.71 172.383 225.684 172.372 225.661C172.361 225.639 172.343 225.62 172.32 225.609C172.081 225.489 170.008 224.436 169.382 224.789C169.322 224.82 169.271 224.867 169.235 224.924C169.198 224.982 169.178 225.048 169.175 225.115V225.115C169.161 225.226 169.175 225.338 169.216 225.442C169.257 225.545 169.323 225.637 169.408 225.709C169.975 226.208 171.454 226.002 172.287 225.835H172.3ZM169.542 224.982C169.935 224.849 171.061 225.275 171.881 225.649C170.741 225.842 169.881 225.795 169.568 225.509C169.512 225.461 169.47 225.4 169.444 225.331C169.418 225.262 169.411 225.188 169.422 225.115C169.422 225.089 169.429 225.063 169.443 225.041C169.457 225.018 169.478 225 169.502 224.989L169.542 224.982Z" fill="#FF5C8A"/>
<path d="M172.3 225.835H172.334C172.351 225.821 172.364 225.804 172.374 225.784C172.383 225.765 172.387 225.743 172.387 225.721C172.387 225.668 172.234 224.275 171.581 223.722C171.489 223.644 171.383 223.586 171.269 223.55C171.154 223.515 171.033 223.503 170.914 223.516V223.516C170.574 223.516 170.481 223.722 170.461 223.855C170.368 224.442 171.601 225.555 172.227 225.855C172.253 225.855 172.278 225.848 172.3 225.835V225.835ZM170.801 223.775H170.928C171.016 223.765 171.106 223.774 171.191 223.802C171.276 223.83 171.355 223.875 171.421 223.935C171.801 224.383 172.034 224.937 172.087 225.521C171.454 225.142 170.608 224.269 170.668 223.915C170.681 223.869 170.681 223.809 170.801 223.775Z" fill="#FF5C8A"/>
<path d="M181.043 96.6074L176.072 98.1801L179.93 102.019C179.93 102.019 184.435 100.066 183.022 98.0802L181.043 96.6074Z" fill="#FFC3BD"/>
<path d="M174.026 102.565L177.565 104.71L179.931 102.018L176.072 98.1797L174.026 102.565Z" fill="#FFC3BD"/>
</svg>
