<svg width="224" height="295" viewBox="0 0 224 295" fill="none" xmlns="http://www.w3.org/2000/svg">
<path d="M113.988 54.0436C112.632 47.1949 110.061 40.6776 106.41 34.8343L112.935 26.5271L99.0149 11.8565L91.1327 18.7333C85.5928 14.8755 79.4121 12.1536 72.9149 10.7104L71.9579 0.0100098H52.1914L51.2344 10.7104C44.7388 12.1396 38.5578 14.8492 33.0166 18.6967L25.1344 11.8198L11.2143 26.4904L17.7393 34.7976C14.0887 40.6409 11.5177 47.1582 10.1616 54.0069L0 55.0155V75.8019L10.1616 76.8105C11.5193 83.6587 14.0902 90.1756 17.7393 96.0198L11.1447 104.364L25.0648 119.034L32.947 112.157C38.4863 116.009 44.668 118.718 51.1648 120.144L52.1218 130.853H71.8535L72.8105 120.144C79.3095 118.717 85.4937 116.007 91.037 112.157L98.9192 119.034L112.839 104.364L106.314 96.0564C109.963 90.2123 112.534 83.6953 113.892 76.8472L124.054 75.8385V55.0522L113.988 54.0436ZM88.7576 65.4408C88.7576 71.0082 87.1912 76.4505 84.2563 81.0796C81.3215 85.7087 77.1501 89.3167 72.2697 91.4472C67.3892 93.5778 62.0189 94.1352 56.8379 93.0491C51.6568 91.9629 46.8977 89.282 43.1624 85.3452C39.4271 81.4085 36.8833 76.3928 35.8527 70.9324C34.8221 65.472 35.351 59.8121 37.3726 54.6686C39.3941 49.525 42.8175 45.1287 47.2098 42.0356C51.6021 38.9425 56.766 37.2916 62.0485 37.2916C65.5571 37.2892 69.0317 38.0156 72.2737 39.4292C75.5157 40.8429 78.4616 42.9161 80.9429 45.5304C83.4242 48.1446 85.3923 51.2487 86.7347 54.665C88.0771 58.0814 88.7675 61.7431 88.7663 65.4408H88.7576Z" fill="#E0E0E0"/>
<path d="M170.574 153.831L171.226 161.487H185.399L186.086 153.794C190.754 152.768 195.196 150.824 199.179 148.063L204.843 153.005L214.874 142.434L210.185 136.464C212.807 132.267 214.652 127.585 215.623 122.665L222.922 121.941V107.041L215.623 106.316C214.652 101.396 212.807 96.7143 210.185 92.5169L214.874 86.5478L204.843 75.985L199.179 80.9271C195.198 78.1597 190.755 76.212 186.086 75.1873L185.399 67.4944H171.226L170.539 75.1873C165.87 76.2137 161.428 78.1612 157.445 80.9271L151.782 75.985L141.759 86.5478L146.449 92.5169C143.824 96.7139 141.976 101.396 141.002 106.316L133.703 107.041V121.977L141.002 122.702C141.976 127.622 143.824 132.304 146.449 136.501L141.759 142.47L151.782 153.042L157.445 148.1C161.441 150.864 165.895 152.808 170.574 153.831ZM178.352 134.731C174.553 134.733 170.84 133.547 167.681 131.323C164.523 129.099 162.062 125.938 160.609 122.239C159.157 118.539 158.779 114.469 159.522 110.544C160.266 106.618 162.098 103.013 164.787 100.185C167.476 97.358 170.901 95.435 174.628 94.66C178.354 93.885 182.215 94.2929 185.722 95.832C189.228 97.3711 192.223 99.9722 194.326 103.306C196.428 106.64 197.546 110.556 197.535 114.559C197.521 119.913 195.494 125.042 191.899 128.823C188.303 132.604 183.431 134.729 178.352 134.731Z" fill="#E0E0E0"/>
<path d="M95.2966 258.451H112.175L112.992 249.282C118.555 248.07 123.849 245.755 128.592 242.46L135.334 248.346L147.253 235.757L141.642 228.66C144.764 223.663 146.961 218.088 148.114 212.229L156.814 211.367V193.579L148.114 192.717C146.959 186.862 144.763 181.29 141.642 176.296L147.218 169.19L135.282 156.609L128.592 162.487C123.851 159.198 118.565 156.881 113.01 155.656L112.192 146.487H95.314L94.4962 155.656C88.938 156.879 83.6486 159.197 78.9058 162.487L72.1632 156.609L60.2094 169.19L65.7948 176.296C62.6672 181.288 60.4677 186.86 59.3133 192.717L50.6133 193.579V211.367L59.3133 212.229C60.4663 218.09 62.6658 223.666 65.7948 228.66L60.2094 235.757L72.1458 248.337L78.8884 242.451C83.6274 245.748 88.9182 248.067 94.4788 249.282L95.2966 258.451ZM103.736 226.551C99.217 226.551 94.8 225.139 91.0429 222.494C87.2859 219.848 84.3576 216.087 82.6284 211.688C80.8993 207.288 80.4468 202.447 81.3283 197.776C82.2099 193.105 84.3858 188.815 87.5809 185.448C90.776 182.08 94.8468 179.787 99.2785 178.858C103.71 177.929 108.304 178.406 112.478 180.228C116.653 182.051 120.221 185.137 122.732 189.096C125.242 193.056 126.582 197.711 126.582 202.473C126.586 205.638 125.999 208.773 124.853 211.699C123.707 214.624 122.025 217.283 119.903 219.523C117.781 221.763 115.261 223.539 112.487 224.752C109.712 225.964 106.739 226.588 103.736 226.588V226.551Z" fill="#E0E0E0"/>
<path d="M189.631 225.91L188.761 224.076C187.36 221.268 184.958 219.16 182.084 218.216C179.21 217.273 176.098 217.57 173.431 219.042L169.36 221.288C166.696 222.769 164.698 225.301 163.803 228.331C162.908 231.361 163.188 234.641 164.583 237.453L165.453 239.241L162.617 240.819L172.84 261.339L202.69 244.835L192.467 224.305L189.631 225.91ZM183.402 241.607L185.185 245.192L183.027 246.393L181.244 242.808C180.832 242.791 180.432 242.662 180.083 242.432C179.733 242.202 179.447 241.879 179.252 241.497C179.086 241.201 178.979 240.872 178.937 240.53C178.895 240.189 178.92 239.842 179.009 239.511C179.099 239.18 179.251 238.871 179.457 238.604C179.663 238.337 179.919 238.117 180.208 237.957C180.497 237.797 180.814 237.701 181.14 237.674C181.465 237.647 181.793 237.691 182.102 237.801C182.411 237.912 182.696 238.088 182.939 238.318C183.182 238.548 183.378 238.828 183.515 239.141C183.703 239.526 183.792 239.957 183.772 240.39C183.752 240.823 183.624 241.243 183.402 241.607ZM185.142 228.422L169.925 236.839L169.055 235.005C168.283 233.446 168.129 231.628 168.626 229.948C169.123 228.269 170.232 226.866 171.709 226.047L175.772 223.801C177.246 222.983 178.967 222.814 180.56 223.329C182.152 223.844 183.487 225.003 184.272 226.551L185.142 228.422Z" fill="#F0F0F0"/>
<path d="M180.492 172.502C183.205 167.519 187.683 163.874 192.944 162.368C198.204 160.862 203.817 161.618 208.549 164.469L207.679 166.019L213.508 164.35L211.925 158.207L211.055 159.747C205.773 156.557 199.589 155.445 193.602 156.609C187.615 157.773 182.215 161.137 178.36 166.103C174.506 171.07 172.449 177.316 172.554 183.731C172.659 190.146 174.92 196.314 178.934 201.137L182.815 197.552C179.999 194.152 178.262 189.91 177.846 185.419C177.429 180.928 178.354 176.412 180.492 172.502Z" fill="#263238"/>
<path d="M217.9 165.735L213.985 169.228C217.116 173.116 218.845 178.042 218.869 183.141C218.893 188.24 217.21 193.184 214.117 197.104C211.023 201.024 206.716 203.669 201.955 204.572C197.193 205.476 192.282 204.581 188.085 202.045L188.955 200.495L183.1 202.237L184.684 208.38L185.554 206.831C190.808 209.981 196.947 211.081 202.893 209.937C208.84 208.793 214.215 205.478 218.074 200.575C221.934 195.671 224.032 189.492 224 183.121C223.968 176.751 221.808 170.595 217.9 165.735Z" fill="#263238"/>
<g opacity="0.6">
<path opacity="0.6" d="M180.492 172.502C183.205 167.519 187.683 163.874 192.944 162.368C198.204 160.862 203.817 161.618 208.549 164.469L207.679 166.019L213.508 164.35L211.925 158.207L211.055 159.747C205.773 156.557 199.589 155.445 193.602 156.609C187.615 157.773 182.215 161.137 178.36 166.103C174.506 171.07 172.449 177.316 172.554 183.731C172.659 190.146 174.92 196.314 178.934 201.137L182.815 197.552C179.999 194.152 178.262 189.91 177.846 185.419C177.429 180.928 178.354 176.412 180.492 172.502Z" fill="white"/>
<path opacity="0.6" d="M217.9 165.735L213.985 169.228C217.116 173.116 218.845 178.042 218.869 183.141C218.893 188.24 217.21 193.184 214.117 197.104C211.023 201.024 206.716 203.669 201.955 204.572C197.193 205.476 192.282 204.581 188.085 202.045L188.955 200.495L183.1 202.237L184.684 208.38L185.554 206.831C190.808 209.981 196.947 211.081 202.893 209.937C208.84 208.793 214.215 205.478 218.074 200.575C221.934 195.671 224.032 189.492 224 183.121C223.968 176.751 221.808 170.595 217.9 165.735Z" fill="white"/>
</g>
<path d="M194.604 157.574H188.932V139.236C188.932 135.863 187.66 132.628 185.397 130.243C183.134 127.858 180.065 126.519 176.865 126.519C173.664 126.519 170.595 127.858 168.332 130.243C166.069 132.628 164.798 135.863 164.798 139.236V157.574H159.125V139.236C159.125 134.278 160.994 129.522 164.321 126.016C167.648 122.51 172.16 120.54 176.865 120.54C181.57 120.54 186.082 122.51 189.408 126.016C192.735 129.522 194.604 134.278 194.604 139.236V157.574Z" fill="#263238"/>
<g opacity="0.3">
<path opacity="0.3" d="M194.604 157.574H188.932V139.236C188.932 135.863 187.66 132.628 185.397 130.243C183.134 127.858 180.065 126.519 176.865 126.519C173.664 126.519 170.595 127.858 168.332 130.243C166.069 132.628 164.798 135.863 164.798 139.236V157.574H159.125V139.236C159.125 134.278 160.994 129.522 164.321 126.016C167.648 122.51 172.16 120.54 176.865 120.54C181.57 120.54 186.082 122.51 189.408 126.016C192.735 129.522 194.604 134.278 194.604 139.236V157.574Z" fill="white"/>
</g>
<path d="M201.105 152.907V182.918C201.105 183.375 201.02 183.829 200.854 184.251C200.687 184.674 200.444 185.058 200.137 185.382C199.83 185.705 199.465 185.962 199.064 186.137C198.663 186.312 198.233 186.402 197.799 186.402H155.917C155.484 186.401 155.056 186.31 154.656 186.134C154.257 185.958 153.894 185.701 153.588 185.378C153.283 185.054 153.041 184.671 152.876 184.248C152.712 183.826 152.628 183.374 152.629 182.918V152.907C152.628 152.451 152.712 151.999 152.876 151.577C153.041 151.155 153.283 150.771 153.588 150.447C153.894 150.124 154.257 149.867 154.656 149.691C155.056 149.515 155.484 149.424 155.917 149.423H197.799C198.347 149.419 198.886 149.564 199.365 149.845C199.892 150.14 200.333 150.582 200.639 151.121C200.946 151.661 201.107 152.278 201.105 152.907Z" fill="#FF5C8A"/>
<path opacity="0.2" d="M199.365 149.845V179.25C199.365 179.707 199.28 180.16 199.113 180.582C198.947 181.004 198.703 181.388 198.396 181.711C198.089 182.034 197.725 182.289 197.324 182.463C196.923 182.638 196.493 182.727 196.059 182.725H154.177C153.636 182.727 153.104 182.585 152.629 182.313V152.907C152.628 152.451 152.712 151.999 152.876 151.577C153.041 151.155 153.283 150.771 153.588 150.447C153.894 150.124 154.257 149.867 154.656 149.691C155.056 149.515 155.484 149.424 155.917 149.423H197.799C198.347 149.419 198.886 149.564 199.365 149.845Z" fill="white"/>
<path opacity="0.5" d="M183.104 164.149C183.088 162.952 182.763 161.783 182.163 160.766C181.563 159.75 180.711 158.926 179.699 158.383C178.687 157.84 177.554 157.598 176.422 157.683C175.289 157.769 174.2 158.178 173.272 158.868C172.344 159.558 171.612 160.501 171.156 161.597C170.699 162.693 170.535 163.899 170.681 165.086C170.827 166.273 171.278 167.395 171.984 168.332C172.691 169.269 173.627 169.985 174.691 170.402L174.404 178.397H179.389L178.65 170.558C179.947 170.135 181.08 169.283 181.882 168.129C182.684 166.975 183.113 165.579 183.104 164.149Z" fill="black"/>
<path d="M97.666 39.7173L100.554 49.5007L103.434 39.7173H97.666Z" fill="#FF5C8A"/>
<path d="M124.165 16.3452H76.933C72.8056 16.3452 69.4597 19.8715 69.4597 24.2215V34.8301C69.4597 39.1801 72.8056 42.7064 76.933 42.7064H124.165C128.293 42.7064 131.639 39.1801 131.639 34.8301V24.2215C131.639 19.8715 128.293 16.3452 124.165 16.3452Z" fill="#FF5C8A"/>
<path d="M84.0759 29.5124L85.7115 30.4843L85.2852 31.2728L83.6235 30.2459V32.2173H82.7535V30.2459L81.0918 31.2728L80.6655 30.4843L82.3185 29.5124L80.6655 28.5955L81.0918 27.7886L82.7535 28.8155V26.8167H83.6235V28.7697L85.2852 27.7427L85.7115 28.5496L84.0759 29.5124Z" fill="white"/>
<path d="M89.8541 29.5124L91.4897 30.4843L91.0634 31.2728L89.4017 30.2459V32.2173H88.5839V30.2459L86.9048 31.2728L86.4785 30.4843L88.1315 29.5124L86.4785 28.5955L86.9048 27.7886L88.5665 28.8155V26.8167H89.3843V28.7697L91.046 27.7427L91.4723 28.5496L89.8541 29.5124Z" fill="white"/>
<path d="M95.6038 29.5122L97.2394 30.4841L96.8131 31.2726L95.1514 30.2457V32.2171H94.2814V30.2457L92.6197 31.2726L92.1934 30.4841L93.8377 29.5122L92.1934 28.5953L92.6197 27.7884L94.2814 28.8153V26.8623H95.1514V28.8153L96.8131 27.7884L97.2394 28.5953L95.6038 29.5122Z" fill="white"/>
<path d="M101.406 29.5122L103.042 30.4841L102.616 31.2726L100.954 30.2457V32.2171H100.128V30.2457L98.4658 31.2726L98.0396 30.4841L99.6839 29.5122L98.0396 28.5953L98.4658 27.7884L100.128 28.8153V26.8623H100.954V28.8153L102.616 27.7884L103.042 28.5953L101.406 29.5122Z" fill="white"/>
<path d="M107.184 29.5122L108.819 30.4841L108.393 31.2726L106.723 30.2457V32.2171H105.853V30.2457L104.304 31.2726L103.869 30.4841L105.522 29.5122L103.869 28.5953L104.304 27.7884L105.966 28.8153V26.8623H106.836V28.8153L108.506 27.7884L108.933 28.5953L107.184 29.5122Z" fill="white"/>
<path d="M112.95 29.5122L114.595 30.4841L114.168 31.2726L112.498 30.2457V32.2171H111.671V30.2457L110.001 31.2726L109.575 30.4841L111.228 29.5122L109.575 28.5953L110.001 27.7884L111.671 28.8153V26.8623H112.498V28.8153L114.168 27.7884L114.595 28.5953L112.95 29.5122Z" fill="white"/>
<path d="M118.726 29.5124L120.361 30.4843L119.935 31.2728L118.273 30.2459V32.2173H117.403V30.2459L115.742 31.2728L115.315 30.4843L116.968 29.5124L115.315 28.5955L115.742 27.7886L117.403 28.8155V26.8167H118.273V28.7697L119.935 27.7427L120.361 28.5496L118.726 29.5124Z" fill="white"/>
<path d="M138.294 108.027L143.601 104.405L137.625 100.535C137.625 100.535 133.074 104.066 134.901 106.459L138.294 108.027Z" fill="#B55B52"/>
<path d="M146.324 98.4544L140.112 96.969L137.624 100.536L143.6 104.405L146.324 98.4544Z" fill="#B55B52"/>
<path d="M116.482 96.2722C119.841 101.627 123.207 108.137 127.792 112.309C127.879 112.382 127.845 112.309 127.505 112.309C127.331 112.355 127.418 112.447 127.775 112.309C128.819 111.682 129.738 110.847 130.481 109.852C132.182 107.678 133.696 105.349 135.005 102.892C135.066 102.791 135.005 102.892 135.005 103.002C134.983 103.17 134.983 103.339 135.005 103.507C135.083 103.589 134.805 103.351 135.344 104.607C135.598 105.008 135.96 105.32 136.382 105.504C136.805 105.689 137.27 105.737 137.719 105.643C138.006 105.578 138.278 105.45 138.516 105.269C138.754 105.087 138.954 104.856 139.102 104.589C138.966 104.758 138.844 104.939 138.737 105.13L134.839 103.378C134.934 102.795 135.161 102.245 135.501 101.774C135.815 101.4 136.231 101.138 136.692 101.022C137.145 100.928 137.613 100.978 138.038 101.164C138.464 101.35 138.828 101.664 139.085 102.067C139.624 103.332 139.355 103.094 139.433 103.186C139.443 103.478 139.416 103.771 139.355 104.057C137.989 110.173 134.422 120.249 127.027 120.304C121.807 119.8 117.848 113.758 114.916 109.943C112.836 107.007 110.918 103.945 109.174 100.774L116.439 96.2814L116.482 96.2722Z" fill="#B55B52"/>
<path d="M113.803 92.2471C117.283 93.4574 124.338 110.356 124.338 110.356L112.35 116.353C112.35 116.353 109.914 103.076 110.392 98.7938C110.692 96.232 111.913 93.889 113.803 92.2471Z" fill="#FF5C8A"/>
<path opacity="0.7" d="M113.803 92.2471C117.283 93.4574 124.338 110.356 124.338 110.356L112.35 116.353C112.35 116.353 109.914 103.076 110.392 98.7938C110.692 96.232 111.913 93.889 113.803 92.2471Z" fill="white"/>
<path d="M127.896 288.163L121.789 289.988L120.336 279.966L119.553 274.611L125.66 272.787L126.704 279.966L127.896 288.163Z" fill="#B55B52"/>
<path d="M92.7865 288.686L86.4877 289.566L86.4268 279.966L86.3833 273.997L92.6908 273.135L92.7343 279.966L92.7865 288.686Z" fill="#B55B52"/>
<path opacity="0.2" d="M92.6908 273.135L92.7343 279.966H86.4268L86.3833 273.997L92.6908 273.135Z" fill="black"/>
<path opacity="0.2" d="M126.704 279.966H120.336L119.553 274.611L125.66 272.787L126.704 279.966Z" fill="black"/>
<path d="M127.793 287.155L120.833 286.962C120.706 286.958 120.582 286.999 120.481 287.079C120.38 287.159 120.307 287.273 120.276 287.402L118.823 293.289C118.777 293.431 118.765 293.582 118.788 293.73C118.811 293.878 118.868 294.018 118.953 294.137C119.039 294.257 119.152 294.352 119.28 294.415C119.409 294.478 119.551 294.507 119.693 294.499C122.199 294.499 125.783 294.499 128.959 294.563C132.639 294.673 134.979 294.481 139.294 294.563C141.904 294.637 142.713 291.895 141.634 291.611C136.702 290.327 133.483 290.584 129.28 287.687C128.84 287.369 128.326 287.185 127.793 287.155Z" fill="#263238"/>
<path d="M128.323 287.971C128.318 287.938 128.323 287.904 128.337 287.875C128.351 287.845 128.374 287.821 128.402 287.806C128.698 287.659 131.299 286.366 132.056 286.843C132.127 286.886 132.187 286.949 132.228 287.025C132.269 287.101 132.291 287.186 132.291 287.274C132.299 287.418 132.275 287.562 132.22 287.694C132.166 287.826 132.083 287.943 131.977 288.035C131.264 288.658 129.454 288.347 128.437 288.099C128.407 288.093 128.38 288.078 128.36 288.055C128.339 288.031 128.327 288.002 128.323 287.971ZM128.941 287.897C130.342 288.181 131.386 288.145 131.786 287.787C131.857 287.73 131.912 287.654 131.947 287.567C131.982 287.481 131.996 287.386 131.986 287.292C131.989 287.257 131.982 287.222 131.967 287.192C131.951 287.161 131.928 287.135 131.899 287.118H131.847C131.368 286.907 129.968 287.42 128.941 287.897Z" fill="#FF5C8A"/>
<path d="M128.377 288.072C128.356 288.057 128.339 288.036 128.33 288.012C128.321 287.987 128.319 287.96 128.325 287.934C128.416 286.989 128.791 286.099 129.395 285.394C129.514 285.289 129.654 285.213 129.804 285.17C129.954 285.127 130.111 285.119 130.265 285.147C130.674 285.202 130.787 285.422 130.813 285.605C130.9 286.357 129.334 287.76 128.551 288.099C128.517 288.108 128.481 288.108 128.446 288.099L128.377 288.072ZM130.195 285.458C130.086 285.443 129.975 285.451 129.868 285.483C129.762 285.514 129.663 285.568 129.577 285.642C129.095 286.206 128.791 286.914 128.707 287.668C129.508 287.201 130.578 286.1 130.517 285.642C130.517 285.642 130.517 285.541 130.387 285.495L130.195 285.458Z" fill="#FF5C8A"/>
<path d="M92.5316 287.155L85.5716 286.962C85.4452 286.958 85.3211 286.999 85.2199 287.079C85.1187 287.159 85.0464 287.273 85.0148 287.402L83.5532 293.289C83.5175 293.43 83.5128 293.579 83.5396 293.722C83.5664 293.866 83.6239 294.001 83.7078 294.118C83.7917 294.235 83.8997 294.33 84.0237 294.396C84.1477 294.462 84.2843 294.497 84.4232 294.499C86.9201 294.499 90.5132 294.499 93.6887 294.563C97.3688 294.673 99.7004 294.481 104.016 294.563C106.626 294.637 107.443 291.895 106.356 291.611C101.432 290.327 98.204 290.584 94.0106 287.687C93.5724 287.372 93.0612 287.188 92.5316 287.155Z" fill="#263238"/>
<path d="M92.993 287.971C92.9883 287.937 92.9944 287.902 93.0101 287.873C93.0258 287.843 93.0503 287.819 93.08 287.806C93.3758 287.659 95.9684 286.366 96.7253 286.843C96.797 286.886 96.8565 286.949 96.8978 287.025C96.939 287.101 96.9605 287.186 96.9602 287.274C96.9694 287.417 96.9467 287.56 96.8938 287.692C96.841 287.825 96.7594 287.942 96.6557 288.035C95.9336 288.658 94.124 288.347 93.1061 288.099C93.0777 288.091 93.052 288.075 93.032 288.052C93.012 288.029 92.9985 288.001 92.993 287.971ZM93.6194 287.897C95.0114 288.181 96.0641 288.145 96.4643 287.787C96.5338 287.729 96.5885 287.653 96.6235 287.566C96.6584 287.48 96.6724 287.386 96.6644 287.292C96.6643 287.257 96.6554 287.222 96.6386 287.192C96.6218 287.161 96.5977 287.136 96.5687 287.118H96.5165C96.0815 286.907 94.6808 287.42 93.6542 287.897H93.6194Z" fill="#FF5C8A"/>
<path d="M93.0902 288.071C93.0683 288.057 93.0509 288.037 93.0401 288.012C93.0292 287.988 93.0255 287.96 93.0293 287.934C93.1248 286.988 93.5025 286.099 94.1081 285.394C94.2273 285.288 94.3669 285.212 94.5171 285.169C94.6674 285.126 94.8247 285.118 94.9781 285.146C95.387 285.201 95.5001 285.421 95.5175 285.605C95.6132 286.357 94.0385 287.76 93.2642 288.099C93.2269 288.108 93.1883 288.108 93.1511 288.099L93.0902 288.071ZM94.9085 285.458C94.7991 285.442 94.6877 285.45 94.5814 285.482C94.4751 285.513 94.3761 285.568 94.2908 285.641C93.8125 286.208 93.5091 286.915 93.4208 287.668C94.2212 287.2 95.2913 286.1 95.2391 285.641C95.2316 285.606 95.2145 285.573 95.1898 285.547C95.1651 285.521 95.1339 285.503 95.0999 285.495C95.0387 285.47 94.9739 285.458 94.9085 285.458Z" fill="#FF5C8A"/>
<path d="M79.7987 142.805C76.4579 158.044 82.1825 277.949 82.1825 277.949H93.2489L97.9817 178.006L115.382 277.949L127.214 277.032C119.479 199.626 112.65 153.414 112.65 153.414V147.573L79.7987 142.805Z" fill="#263238"/>
<path d="M127.23 277.014L115.398 277.931L101.696 199.26L97.9897 177.996L93.2569 277.94H82.1904C82.1904 277.94 76.4658 158.017 79.7979 142.805L112.684 147.583V153.423C112.684 153.423 119.496 199.654 127.23 277.014Z" fill="#1C2D5E"/>
<path d="M79.0703 91.266C80.2292 98.4609 80.8777 105.737 81.0104 113.033C81.1235 118.122 81.0104 122.964 80.8451 127.346C80.4101 137.625 79.4705 145.4 79.514 148.069L112.713 148.692C120.63 112.107 113.827 92.2471 113.827 92.2471C111.253 91.4939 108.638 90.906 105.997 90.4866C105.417 90.4071 104.837 90.3338 104.257 90.2665C99.5619 89.8902 94.8504 89.7984 90.1454 89.9914C89.2754 89.9914 88.3445 90.074 87.4658 90.1473C83.0288 90.5416 79.0703 91.266 79.0703 91.266Z" fill="#FF5C8A"/>
<path d="M105.341 91.4583C105.341 91.4583 103.366 94.4749 101.783 94.6858C99.538 95.0068 91.3425 89.7162 91.3425 89.7162C93.2391 88.24 94.17 85.0216 94.5789 81.6199C94.8714 78.8586 94.9267 76.0752 94.7442 73.3035L102.409 82.0875C101.4 84.8382 100.799 87.7723 102.783 89.8354C103.512 90.5678 104.385 91.1219 105.341 91.4583Z" fill="#B55B52"/>
<path opacity="0.2" d="M102.765 89.8081C99.3883 87.8665 96.5583 85.0198 94.5605 81.5559C94.853 78.7946 94.9083 76.0112 94.7258 73.2395L102.391 82.0235C101.381 84.8017 100.825 87.7909 102.765 89.8081Z" fill="black"/>
<path d="M111.264 65.3814C111.916 67.9213 111.264 73.0743 108.027 71.2405C104.791 69.4067 110.176 60.9986 111.264 65.3814Z" fill="#263238"/>
<path d="M93.9689 67.9947C93.3338 74.4131 92.6552 78.1724 95.2043 81.9593C99.0497 87.6441 107.01 85.9478 109.455 79.8137C111.665 74.3123 112.326 64.6847 106.784 61.1638C105.554 60.3849 104.157 59.9475 102.724 59.8924C101.29 59.8373 99.8664 60.1664 98.5862 60.8488C97.306 61.5312 96.2109 62.5447 95.4034 63.7944C94.5959 65.0441 94.1023 66.4893 93.9689 67.9947Z" fill="#B55B52"/>
<path d="M98.4036 64.6753L98.7081 57.4593C98.7081 57.4593 91.4349 56.5423 91.6002 60.5034C87.4763 62.4289 89.112 69.1315 94.4016 72.625C97.4814 70.2593 97.3857 64.1986 97.3857 64.1986C97.6989 64.3636 98.0469 64.5195 98.4036 64.6753Z" fill="#263238"/>
<path d="M90.791 72.9002C90.9025 73.6966 91.163 74.4616 91.5572 75.1511C91.9515 75.8405 92.4718 76.4405 93.0879 76.9163C94.7409 78.1816 96.2982 76.7879 96.4374 74.7524C96.5679 72.9186 95.8632 70.0486 93.9144 69.5902C93.4845 69.501 93.0403 69.525 92.6213 69.6601C92.2024 69.7952 91.8215 70.0372 91.5126 70.3647C91.2036 70.6921 90.9761 71.0948 90.8502 71.5371C90.7244 71.9794 90.704 72.4476 90.791 72.9002Z" fill="#B55B52"/>
<path d="M102.904 71.2864C102.817 71.809 103.017 72.2675 103.339 72.3225C103.661 72.3775 103.991 72.0016 104.069 71.479C104.148 70.9563 103.956 70.4979 103.634 70.4428C103.313 70.3878 102.982 70.7638 102.904 71.2864Z" fill="#263238"/>
<path d="M108.486 72.203C108.407 72.7257 108.608 73.1933 108.929 73.2392C109.251 73.285 109.582 72.9182 109.66 72.3956C109.739 71.873 109.547 71.4145 109.225 71.3595C108.903 71.3045 108.573 71.6896 108.486 72.203Z" fill="#263238"/>
<path d="M106.672 72.2036C107.046 73.8391 107.632 75.4126 108.413 76.8799C108.032 77.0583 107.62 77.1505 107.203 77.1505C106.787 77.1505 106.375 77.0583 105.994 76.8799L106.672 72.2036Z" fill="#A02724"/>
<path d="M103.027 78.4383C103.234 78.5073 103.447 78.5594 103.662 78.5941C103.7 78.5995 103.738 78.5891 103.769 78.5651C103.8 78.5412 103.821 78.5056 103.827 78.4658C103.831 78.4453 103.831 78.4242 103.827 78.4038C103.822 78.3834 103.814 78.364 103.803 78.3469C103.792 78.3298 103.777 78.3153 103.76 78.3042C103.744 78.2931 103.725 78.2857 103.705 78.2824C103.091 78.1957 102.505 77.958 101.994 77.5885C101.483 77.219 101.062 76.728 100.765 76.1552C100.758 76.1358 100.748 76.1182 100.734 76.1033C100.721 76.0885 100.704 76.0768 100.686 76.069C100.668 76.0613 100.649 76.0576 100.63 76.0582C100.61 76.0588 100.591 76.0637 100.573 76.0726C100.538 76.0888 100.51 76.119 100.495 76.1567C100.481 76.1944 100.48 76.2366 100.495 76.2744C100.754 76.7984 101.112 77.2608 101.548 77.633C101.983 78.0052 102.487 78.2793 103.027 78.4383Z" fill="#263238"/>
<path d="M101.478 69.1041C101.528 69.1215 101.581 69.1238 101.632 69.1108C101.682 69.0979 101.729 69.0701 101.765 69.0307C102.028 68.7546 102.347 68.5464 102.699 68.4223C103.051 68.2982 103.425 68.2617 103.792 68.3155C103.83 68.3246 103.868 68.3258 103.906 68.3192C103.943 68.3125 103.979 68.2982 104.011 68.2769C104.044 68.2556 104.072 68.2278 104.094 68.1951C104.116 68.1624 104.132 68.1254 104.14 68.0863C104.149 68.0472 104.15 68.0066 104.144 67.967C104.138 67.9274 104.124 67.8895 104.104 67.8555C104.084 67.8214 104.057 67.7919 104.026 67.7685C103.995 67.7452 103.96 67.7286 103.923 67.7195C103.462 67.6369 102.988 67.673 102.543 67.8246C102.097 67.9763 101.693 68.2391 101.365 68.5906C101.31 68.649 101.279 68.7282 101.279 68.8107C101.279 68.8932 101.31 68.9723 101.365 69.0307C101.398 69.0632 101.436 69.0882 101.478 69.1041Z" fill="#263238"/>
<path d="M111.263 70.5804C111.317 70.5986 111.375 70.5986 111.429 70.5804C111.504 70.557 111.567 70.5034 111.604 70.4313C111.642 70.3591 111.65 70.2743 111.629 70.1953C111.506 69.7222 111.277 69.2874 110.96 68.9281C110.644 68.5688 110.249 68.2957 109.811 68.1322C109.736 68.1119 109.656 68.1223 109.588 68.1615C109.52 68.2007 109.469 68.2656 109.445 68.3431C109.424 68.4221 109.432 68.507 109.47 68.5791C109.507 68.6512 109.57 68.7048 109.645 68.7282C109.993 68.8574 110.305 69.0759 110.553 69.3641C110.8 69.6523 110.976 70.001 111.063 70.3787C111.079 70.4269 111.105 70.4706 111.14 70.5057C111.174 70.5409 111.217 70.5665 111.263 70.5804Z" fill="#263238"/>
<path d="M91.6008 60.5037C91.6008 60.5037 87.8424 56.5702 100.597 56.9278C113.351 57.2854 115.474 64.8224 109.627 66.5737L109.366 65.345C108.362 65.8906 107.259 66.2039 106.131 66.264C105.002 66.3241 103.875 66.1296 102.824 65.6934L103.746 65.0883C103.746 65.0883 95.0373 66.0235 91.6008 60.5037Z" fill="#263238"/>
<path d="M101.782 94.6581C101.782 94.6581 100.155 96.6386 98.3015 98.5916C95.5958 97.1521 89.2622 93.2919 89.6015 89.7251C89.9756 88.689 92.5508 88.0288 92.5508 88.0288C92.5508 88.0288 95.2826 91.8707 101.782 94.6581Z" fill="#FF5C8A"/>
<path d="M101.782 94.6585C103.113 95.7892 104.285 97.1136 105.262 98.592C107.254 97.235 106.254 90.5965 105.523 89.863C104.469 89.2564 103.287 88.941 102.086 88.9461C102.48 89.8525 102.659 90.8466 102.606 91.8421C102.553 92.8376 102.27 93.8043 101.782 94.6585Z" fill="#FF5C8A"/>
<g opacity="0.5">
<path opacity="0.5" d="M101.782 94.6581C101.782 94.6581 100.155 96.6386 98.302 98.5916C95.5963 97.1521 89.2627 93.2919 89.602 89.7251C89.9761 88.689 92.5513 88.0288 92.5513 88.0288C92.5513 88.0288 95.2831 91.8707 101.782 94.6581Z" fill="white"/>
<path opacity="0.5" d="M101.782 94.6582C103.113 95.7889 104.285 97.1134 105.262 98.5918C107.254 97.2347 106.254 90.5963 105.523 89.8628C104.469 89.2562 103.287 88.9407 102.086 88.9459C102.48 89.8522 102.659 90.8463 102.606 91.8418C102.553 92.8373 102.27 93.8041 101.782 94.6582Z" fill="white"/>
</g>
<path opacity="0.2" d="M101.693 199.26L97.9871 177.996L98.7005 166.746C98.7005 166.746 103.773 186.258 101.693 199.26Z" fill="black"/>
<path d="M82.5506 100.976C79.3316 106.633 74.3465 114.73 71.6147 120.479C70.1617 123.734 69.7093 127.218 68.9176 130.73C68.1607 134.48 67.4038 138.303 66.5686 142.081L62.41 141.696C62.2621 137.726 62.2969 133.792 62.5231 129.822C62.8102 125.687 63.019 121.221 64.498 117.297C67.4386 109.751 71.3101 103.002 75.4601 96.208L82.5506 100.994V100.976Z" fill="#B55B52"/>
<path d="M79.0769 91.2656C74.405 92.5401 66.0269 110.237 66.0269 110.237L75.9536 117.012L84.9059 107.843C85.4198 104.524 85.2266 101.126 84.3404 97.8949C82.8875 92.3751 79.0769 91.2656 79.0769 91.2656Z" fill="#FF5C8A"/>
<path opacity="0.7" d="M79.0769 91.2656C74.405 92.5401 66.0269 110.237 66.0269 110.237L75.9536 117.012L84.9059 107.843C85.4198 104.524 85.2266 101.126 84.3404 97.8949C82.8875 92.3751 79.0769 91.2656 79.0769 91.2656Z" fill="white"/>
<path d="M82.5928 145.816L151.557 68.7416C151.928 68.3264 152.374 67.9923 152.868 67.7586C153.362 67.5248 153.895 67.3958 154.436 67.3791C154.977 67.3624 155.517 67.4582 156.023 67.661C156.529 67.8639 156.992 68.1698 157.386 68.5614L159.051 70.2159C159.847 71.0067 160.312 72.0982 160.344 73.2504C160.376 74.4026 159.972 75.521 159.222 76.3596L90.2579 153.434L82.5928 145.816Z" fill="#263238"/>
<path opacity="0.6" d="M82.5928 145.816L151.557 68.7416C151.928 68.3264 152.374 67.9923 152.868 67.7586C153.362 67.5248 153.895 67.3958 154.436 67.3791C154.977 67.3624 155.517 67.4582 156.023 67.661C156.529 67.8639 156.992 68.1698 157.386 68.5614L159.051 70.2159C159.847 71.0067 160.312 72.0982 160.344 73.2504C160.376 74.4026 159.972 75.521 159.222 76.3596L90.2579 153.434L82.5928 145.816Z" fill="white"/>
<path opacity="0.2" d="M157.896 69.0767L159.053 70.2228C159.447 70.6134 159.764 71.0819 159.986 71.6017C160.208 72.1214 160.33 72.6822 160.346 73.2519C160.363 73.8216 160.272 74.389 160.08 74.9218C159.888 75.4546 159.598 75.9423 159.227 76.3569L90.2619 153.442L89.1135 152.296L158.079 75.2108C158.449 74.7955 158.738 74.3074 158.93 73.7743C159.121 73.2412 159.211 72.6735 159.194 72.1038C159.177 71.5341 159.053 70.9735 158.831 70.4541C158.608 69.9347 158.29 69.4666 157.896 69.0767Z" fill="black"/>
<path d="M135.896 98.922L148.676 111.63L150.338 109.769L148.685 108.128L151.312 105.185L150.346 104.222L154.296 99.8114L155.262 100.774L157.733 98.0143L159.386 99.6647L161.099 97.7392L160.134 96.7764L162.605 94.0074L160.664 92.0819L162.283 90.2755L165.197 93.1638L168.155 89.8629L155.375 77.1545L135.896 98.922Z" fill="#263238"/>
<path opacity="0.6" d="M135.896 98.922L148.676 111.63L150.338 109.769L148.685 108.128L151.312 105.185L150.346 104.222L154.296 99.8114L155.262 100.774L157.733 98.0143L159.386 99.6647L161.099 97.7392L160.134 96.7764L162.605 94.0074L160.664 92.0819L162.283 90.2755L165.197 93.1638L168.155 89.8629L155.375 77.1545L135.896 98.922Z" fill="white"/>
<g opacity="0.2">
<path opacity="0.6" d="M149.181 108.635L147.522 110.49L148.674 111.635L150.333 109.78L149.181 108.635Z" fill="black"/>
<path opacity="0.6" d="M155.256 100.774L154.291 99.8023L150.341 104.222L151.306 105.185L148.679 108.128L147.522 106.982L150.158 104.038L149.184 103.076L153.133 98.6562L154.108 99.6281L156.57 96.8682L157.727 98.0143L155.256 100.774Z" fill="black"/>
<path opacity="0.6" d="M158.974 95.6212L161.454 92.8613L162.611 94.0075L160.131 96.7765L161.106 97.7393L159.383 99.6648L158.235 98.5187L159.949 96.5932L158.974 95.6212Z" fill="black"/>
<path opacity="0.6" d="M161.118 89.1256L159.5 90.9333L160.652 92.0783L162.27 90.2705L161.118 89.1256Z" fill="black"/>
<path opacity="0.6" d="M166.997 88.723L164.037 92.0317L165.189 93.1766L168.149 89.8679L166.997 88.723Z" fill="black"/>
</g>
<path d="M149.726 69.3738L128.584 93.0019C128.235 93.3924 128.252 94.0075 128.622 94.3758L136.294 102C136.664 102.368 137.248 102.35 137.597 101.96L158.739 78.3317C159.088 77.9412 159.071 77.3261 158.701 76.9578L151.029 69.3335C150.659 68.9652 150.075 68.9833 149.726 69.3738Z" fill="#263238"/>
<path d="M90.662 178.354C89.0575 180.148 87.1334 181.591 84.9997 182.601C82.8659 183.611 80.5643 184.168 78.2263 184.241C75.8882 184.313 73.5595 183.899 71.3732 183.023C69.1869 182.147 67.1858 180.825 65.4841 179.134L59.7073 173.394C58.0053 171.703 56.6361 169.675 55.6777 167.426C54.7194 165.178 54.1909 162.752 54.1222 160.288C54.0535 157.824 54.4461 155.369 55.2775 153.065C56.109 150.761 57.3629 148.652 58.9678 146.859C60.5738 145.058 62.5012 143.609 64.6396 142.594C66.778 141.58 69.0854 141.021 71.4293 140.948C73.7733 140.876 76.1077 141.292 78.2989 142.172C80.49 143.053 82.4946 144.38 84.1979 146.079L89.966 151.819C91.6651 153.513 93.0308 155.543 93.9854 157.794C94.9399 160.044 95.4644 162.471 95.529 164.935C95.5937 167.399 95.1971 169.852 94.362 172.155C93.5269 174.457 92.2697 176.564 90.662 178.354Z" fill="#263238"/>
<path d="M84.0224 171.752C83.224 172.646 82.2663 173.366 81.2041 173.869C80.1418 174.373 78.9958 174.651 77.8315 174.687C76.6673 174.724 75.5076 174.519 74.4187 174.083C73.3298 173.647 72.3332 172.989 71.4857 172.147L66.022 166.645C65.1745 165.803 64.4927 164.793 64.0156 163.674C63.5385 162.554 63.2755 161.346 63.2416 160.119C63.2076 158.892 63.4034 157.67 63.8178 156.522C64.2322 155.375 64.8571 154.325 65.6566 153.433C66.4542 152.538 67.4114 151.819 68.4733 151.316C69.5352 150.812 70.6809 150.535 71.8448 150.499C73.0087 150.463 74.1678 150.67 75.2557 151.107C76.3437 151.545 77.339 152.204 78.1847 153.047L83.7005 158.549C85.4036 160.255 86.3942 162.605 86.4545 165.08C86.5149 167.556 85.6401 169.956 84.0224 171.752Z" fill="white"/>
<path opacity="0.5" d="M149.726 69.3738L128.584 93.0019C128.235 93.3924 128.252 94.0075 128.622 94.3758L136.294 102C136.664 102.368 137.248 102.35 137.597 101.96L158.739 78.3317C159.088 77.9412 159.071 77.3261 158.701 76.9578L151.029 69.3335C150.659 68.9652 150.075 68.9833 149.726 69.3738Z" fill="white"/>
<g opacity="0.5">
<path opacity="0.5" d="M90.6623 178.354C89.0578 180.148 87.1337 181.591 84.9999 182.601C82.8662 183.611 80.5646 184.168 78.2265 184.241C75.8884 184.313 73.5598 183.899 71.3734 183.023C69.1871 182.147 67.186 180.825 65.4844 179.134L59.7076 173.394C58.0056 171.703 56.6363 169.675 55.678 167.426C54.7197 165.178 54.1911 162.752 54.1224 160.288C54.0538 157.824 54.4463 155.369 55.2778 153.065C56.1092 150.761 57.3632 148.652 58.9681 146.859C60.574 145.058 62.5014 143.609 64.6399 142.594C66.7783 141.58 69.0856 141.021 71.4296 140.948C73.7735 140.876 76.108 141.292 78.2991 142.172C80.4902 143.053 82.4949 144.38 84.1981 146.079L89.9662 151.819C91.6653 153.513 93.0311 155.543 93.9856 157.794C94.9401 160.044 95.4647 162.471 95.5293 164.935C95.5939 167.399 95.1974 169.852 94.3623 172.155C93.5272 174.457 92.2699 176.564 90.6623 178.354Z" fill="white"/>
<path opacity="0.5" d="M84.0229 171.752C83.2245 172.646 82.2668 173.365 81.2046 173.869C80.1423 174.373 78.9963 174.651 77.832 174.687C76.6678 174.724 75.5081 174.518 74.4192 174.082C73.3303 173.646 72.3337 172.989 71.4861 172.146L66.0225 166.645C65.175 165.803 64.4932 164.793 64.0161 163.673C63.539 162.553 63.276 161.345 63.242 160.118C63.2081 158.891 63.4039 157.669 63.8183 156.522C64.2327 155.375 64.8576 154.325 65.6571 153.432C66.4547 152.538 67.4119 151.819 68.4738 151.316C69.5357 150.812 70.6814 150.535 71.8453 150.499C73.0092 150.463 74.1683 150.67 75.2562 151.107C76.3441 151.544 77.3395 152.204 78.1852 153.047L83.701 158.549C85.4041 160.255 86.3947 162.604 86.455 165.08C86.5154 167.556 85.6406 169.956 84.0229 171.752Z" fill="white"/>
</g>
<path opacity="0.2" d="M156.394 74.6609L158.708 76.9532C158.795 77.0436 158.864 77.1514 158.912 77.2702C158.959 77.3891 158.983 77.5166 158.983 77.6454C158.983 77.7743 158.959 77.9018 158.912 78.0207C158.864 78.1395 158.795 78.2473 158.708 78.3377L137.567 101.957C137.482 102.049 137.38 102.122 137.268 102.171C137.156 102.221 137.036 102.246 136.915 102.246C136.793 102.246 136.673 102.221 136.561 102.171C136.449 102.122 136.347 102.049 136.262 101.957L133.957 99.6651C134.129 99.8448 134.362 99.9456 134.605 99.9456C134.847 99.9456 135.08 99.8448 135.253 99.6651L156.394 76.0363C156.481 75.9466 156.55 75.8396 156.597 75.7215C156.644 75.6035 156.668 75.4767 156.668 75.3486C156.668 75.2205 156.644 75.0937 156.597 74.9756C156.55 74.8575 156.481 74.7505 156.394 74.6609Z" fill="black"/>
<g opacity="0.2">
<path opacity="0.2" d="M76.465 151.351L78.205 153.066C76.4762 151.491 74.2375 150.68 71.9552 150.801C69.6729 150.922 67.523 151.967 65.9532 153.717C64.3834 155.467 63.5147 157.788 63.5281 160.196C63.5414 162.605 64.4358 164.915 66.025 166.645L64.285 164.921C62.574 163.219 61.5748 160.87 61.5071 158.392C61.4394 155.913 62.3087 153.507 63.9239 151.704C65.5391 149.901 67.7678 148.848 70.1197 148.777C72.4716 148.705 74.7541 149.621 76.465 151.324V151.351Z" fill="black"/>
<path opacity="0.2" d="M88.2034 150.141L89.9434 151.865C93.2717 155.308 95.1861 159.99 95.2757 164.904C95.3653 169.819 93.6229 174.574 90.4226 178.15C87.2223 181.726 82.8193 183.837 78.1589 184.029C73.4985 184.221 68.9523 182.48 65.4964 179.179L63.7563 177.465C67.2008 180.843 71.7734 182.649 76.4763 182.487C81.1791 182.325 85.6304 180.21 88.8585 176.602C92.0866 172.994 93.8295 168.186 93.7068 163.229C93.584 158.271 91.6057 153.567 88.2034 150.141Z" fill="black"/>
</g>
<g opacity="0.2">
<path opacity="0.2" d="M76.465 151.351L78.205 153.066C76.4762 151.491 74.2375 150.68 71.9552 150.801C69.6729 150.922 67.523 151.967 65.9532 153.717C64.3834 155.467 63.5147 157.788 63.5281 160.196C63.5414 162.605 64.4358 164.915 66.025 166.645L64.285 164.921C62.574 163.219 61.5748 160.87 61.5071 158.392C61.4394 155.913 62.3087 153.507 63.9239 151.704C65.5391 149.901 67.7678 148.848 70.1197 148.777C72.4716 148.705 74.7541 149.621 76.465 151.324V151.351Z" fill="black"/>
<path opacity="0.2" d="M76.465 151.351L78.205 153.066C76.4762 151.491 74.2375 150.68 71.9552 150.801C69.6729 150.922 67.523 151.967 65.9532 153.717C64.3834 155.467 63.5147 157.788 63.5281 160.196C63.5414 162.605 64.4358 164.915 66.025 166.645L64.285 164.921C62.574 163.219 61.5748 160.87 61.5071 158.392C61.4394 155.913 62.3087 153.507 63.9239 151.704C65.5391 149.901 67.7678 148.848 70.1197 148.777C72.4716 148.705 74.7541 149.621 76.465 151.324V151.351Z" fill="black"/>
</g>
<path d="M63.2242 152.167L69.6187 150.48L68.9053 145.556L61.1101 147.216L63.2242 152.167Z" fill="#B55B52"/>
<path d="M62.5978 140.77L61.1101 147.188L68.9401 145.529C68.9401 145.529 69.0445 139.761 66.1387 139.385L62.5978 140.77Z" fill="#B55B52"/>
</svg>
