<svg width="288" height="333" viewBox="0 0 288 333" fill="none" xmlns="http://www.w3.org/2000/svg">
<path opacity="0.6" fill-rule="evenodd" clip-rule="evenodd" d="M236.312 41.8813C243.606 33.4477 242.683 20.6972 234.25 13.4022C225.816 6.10729 213.066 7.03035 205.771 15.464C198.476 23.8976 199.399 36.6481 207.832 43.9431C216.266 51.238 229.017 50.315 236.312 41.8813ZM220.972 22.5545C221.106 22.0203 221.468 21.6017 221.937 21.4381L227.397 19.5739C227.953 19.4043 228.489 19.5422 228.863 19.8662L233.311 23.7139C233.733 24.0784 233.906 24.635 233.812 25.1226L232.754 30.7939C232.619 31.328 232.257 31.7467 231.788 31.9103L226.328 33.7745C225.772 33.9441 225.237 33.8061 224.862 33.4821L223.317 32.1456L223.816 29.487L225.314 30.783C225.735 31.1475 226.311 31.239 226.78 31.0754L229.681 30.0877C230.19 29.8776 230.552 29.459 230.646 28.9713L231.166 26.0052C231.254 25.4305 231.04 24.9204 230.665 24.5964L228.324 22.5714C227.903 22.2069 227.327 22.1154 226.858 22.279L223.957 23.2667C223.448 23.4768 223.086 23.8954 222.992 24.383L222.277 28.2374L221.778 30.8961L221.064 34.7505C220.929 35.2846 220.567 35.7032 220.098 35.8668L214.638 37.731C214.082 37.9007 213.547 37.7627 213.172 37.4387L208.771 33.6316C208.396 33.3076 208.183 32.7975 208.317 32.2633L209.369 26.505C209.504 25.9709 209.866 25.5522 210.335 25.3886L215.754 23.5709C216.31 23.4013 216.846 23.5393 217.22 23.8633L218.812 25.2403L218.313 27.899L216.768 26.5624C216.347 26.1979 215.771 26.1065 215.302 26.2701L212.355 27.2172C211.845 27.4273 211.483 27.846 211.389 28.3336L210.829 31.3463C210.742 31.9209 210.955 32.431 211.33 32.755L213.671 34.7801C214.092 35.1446 214.668 35.236 215.137 35.0724L218.085 34.1253C218.594 33.9152 218.956 33.4965 219.05 33.0089L219.718 29.114L220.264 26.4959L220.972 22.5545Z" fill="#FF5C8A"/>
<path opacity="0.6" fill-rule="evenodd" clip-rule="evenodd" d="M280.647 231.605C276.711 241.349 265.621 246.058 255.877 242.121C246.132 238.185 241.424 227.095 245.36 217.351C249.297 207.606 260.387 202.898 270.131 206.834C279.876 210.771 284.584 221.861 280.647 231.605ZM260.959 229.527L254.776 221.444L254.779 221.444L254.777 221.441L268.346 211.244L268.343 211.25L268.348 211.245L271.026 228.006L271.021 228.006L271.022 228.007L260.96 229.527L260.96 229.528L260.959 229.527L260.959 229.527L260.959 229.527ZM257.658 237.703L257.655 237.709L254.156 222.98L260.341 231.061L260.34 231.063L260.343 231.062L270.41 229.546L257.657 237.71L257.658 237.703Z" fill="#FF5C8A"/>
<path opacity="0.6" fill-rule="evenodd" clip-rule="evenodd" d="M44.4894 106.362C39.5305 97.3273 28.1858 94.0216 19.1492 98.9814C10.1141 103.94 6.80922 115.286 11.7681 124.322C16.7275 133.357 28.0733 136.662 37.1084 131.703C46.1449 126.743 49.4492 115.399 44.4894 106.362ZM25.0887 128.957L25.0551 128.896L23.7475 126.513L23.3042 125.706L21.9853 123.303C21.9122 123.169 21.9012 123.15 21.7378 123.239L19.5188 124.457C19.3958 124.525 19.345 124.552 19.2553 124.389L18.1889 122.446L20.5611 121.144C20.6936 121.071 20.7452 121.043 20.6498 120.869L19.5947 118.947C19.5272 118.824 19.5107 118.794 19.3472 118.884L17.1282 120.102C17.0053 120.169 16.9545 120.197 16.8648 120.033L15.8772 118.234C15.8153 118.121 15.7988 118.091 15.9622 118.002L18.1606 116.795C18.3138 116.711 18.355 116.688 18.2483 116.494L15.2233 110.982C15.1336 110.819 15.111 110.778 15.3157 110.665L22.9843 106.457C23.553 106.173 24.1395 105.931 24.7419 105.731C25.9834 105.321 27.2874 105.129 28.5933 105.161C29.4621 105.187 30.3228 105.322 31.1559 105.564C31.7916 105.762 32.4065 106.017 32.9963 106.323C33.5876 106.638 34.143 107.016 34.6538 107.449C34.758 107.578 34.9479 107.599 35.0774 107.497L36.9077 106.492C37.0267 106.427 37.0854 106.395 37.1318 106.407C37.1769 106.42 37.2104 106.475 37.2765 106.583L38.197 108.26C38.2867 108.424 38.2482 108.498 38.084 108.588L36.6727 109.363C36.5298 109.441 36.4886 109.464 36.5999 109.642C36.9977 110.235 37.3408 110.86 37.6267 111.513C37.7221 111.687 37.7334 111.708 37.9285 111.601L39.5431 110.714C39.6243 110.75 39.6421 110.82 39.66 110.89C39.669 110.925 39.678 110.96 39.695 110.991C39.7704 111.104 39.8362 111.224 39.891 111.348L40.5702 112.586C40.6656 112.76 40.6431 112.839 40.4892 112.924L38.5566 113.984C38.4077 114.032 38.3239 114.19 38.3666 114.341C38.5631 115.79 38.4156 117.267 37.9363 118.649C37.7606 119.153 37.557 119.648 37.3248 120.129C37.2682 120.222 37.2123 120.315 37.1565 120.408C36.9361 120.775 36.7177 121.139 36.468 121.477C35.8864 122.249 35.2172 122.95 34.4753 123.568C33.7636 124.143 32.9985 124.646 32.1892 125.076L25.0926 128.971L25.0869 128.961L25.0887 128.957ZM32.4601 108.905C32.4523 108.848 32.4244 108.798 32.3817 108.762C32.1538 108.593 31.9125 108.444 31.6585 108.32C31.2536 108.092 30.8254 107.913 30.3796 107.785C30.1484 107.686 29.9056 107.617 29.6566 107.583C28.3582 107.315 27.0136 107.36 25.7357 107.712C25.0948 107.897 24.4781 108.156 23.8964 108.482L18.4055 111.496C18.2524 111.58 18.2653 111.652 18.3385 111.786L20.3306 115.415C20.4147 115.568 20.4373 115.61 20.6316 115.503L32.4313 109.027C32.4313 109.027 32.5223 108.95 32.5094 108.877L32.4601 108.905ZM29.134 116.425L35.3508 113.012C35.4833 112.94 35.5459 112.905 35.4601 112.726C35.1638 112.066 34.8147 111.43 34.4164 110.825C34.3489 110.702 34.2599 110.684 34.1266 110.758L21.7542 117.548C21.6011 117.632 21.5877 117.706 21.6665 117.849L22.6654 119.669C22.7289 119.785 22.7611 119.844 22.8068 119.857C22.8539 119.871 22.9151 119.838 23.0395 119.77L29.134 116.425ZM35.5059 115.695C35.6691 115.58 35.8443 115.484 36.0286 115.408L36.0294 115.41C36.1319 115.406 36.1453 115.6 36.1453 115.6C36.1922 117.176 35.7457 118.726 34.8687 120.038L34.7973 120.077C34.6382 120.347 34.4521 120.602 34.2423 120.834C33.6787 121.497 33.0219 122.072 32.292 122.543C32.0755 122.73 31.8349 122.885 31.5741 123.003L26.3387 125.877C26.134 125.989 26.1114 125.948 26.0217 125.784L24.074 122.236C23.9617 122.031 24.0132 122.003 24.1664 121.919L35.5059 115.695Z" fill="#FF5C8A"/>
<path opacity="0.6" d="M260.862 85.6614C259.031 86.4105 257.464 87.6857 256.358 89.3255C255.253 90.9653 254.658 92.8963 254.65 94.8741C254.641 96.8518 255.22 98.7877 256.312 100.437C257.403 102.086 258.96 103.374 260.784 104.139C262.608 104.903 264.618 105.11 266.559 104.732C268.501 104.355 270.286 103.41 271.691 102.017C273.095 100.624 274.055 98.8466 274.449 96.9084C274.843 94.9703 274.654 92.9588 273.904 91.1283C273.412 89.9151 272.685 88.8107 271.766 87.8782C270.847 86.9457 269.753 86.2034 268.547 85.6937C267.341 85.184 266.046 84.9169 264.737 84.9076C263.427 84.8982 262.129 85.1469 260.916 85.6393L260.862 85.6614ZM264.935 95.1657L265.301 98.8094L270.455 96.6999C270.489 96.6847 270.525 96.6764 270.562 96.6752C270.599 96.6741 270.636 96.6803 270.67 96.6933C270.705 96.7064 270.736 96.7262 270.763 96.7515C270.79 96.7768 270.812 96.8072 270.827 96.8408L270.862 96.926L271.046 98.6556C271.057 98.7368 271.039 98.8191 270.996 98.8889C270.953 98.9587 270.888 99.0119 270.811 99.0397L262.923 102.268L262.402 97.2228L261.106 98.2763L261.021 97.1079L262.316 96.0544L261.59 88.9739C261.58 88.8928 261.598 88.8109 261.641 88.7413C261.684 88.6717 261.748 88.6184 261.825 88.5898L263.819 87.7735C263.853 87.7584 263.889 87.75 263.926 87.7489C263.963 87.7477 264 87.7539 264.034 87.767C264.069 87.7801 264.1 87.7998 264.127 87.8251C264.154 87.8504 264.176 87.8808 264.191 87.9145L264.226 87.9996L264.84 93.9749L266.136 92.9214L266.262 94.1255L264.935 95.1657Z" fill="#FF5C8A"/>
<path opacity="0.6" fill-rule="evenodd" clip-rule="evenodd" d="M117.638 49.4096C116.407 57.262 109.044 62.63 101.191 61.3992C93.3388 60.1685 87.9709 52.805 89.2017 44.9525C90.4324 37.1001 97.7959 31.7321 105.648 32.9629C113.501 34.1937 118.869 41.5571 117.638 49.4096ZM104.903 37.7163L106.866 40.4771L100.056 45.4416L98.0842 42.7372L104.903 37.7163ZM109.859 44.5826L107.896 41.8219L96.9716 49.8356L98.9432 52.5401L109.859 44.5826ZM96.6923 43.7023L98.655 46.4631L95.9506 48.4346L93.979 45.7302L96.6923 43.7023ZM112.852 48.6882L110.889 45.9275L99.9647 53.9412L101.936 56.6457L112.852 48.6882Z" fill="#FF5C8A"/>
<path d="M152.34 167.175C149.758 165.507 148.744 161.596 148.464 157.49C148.294 154.369 148.422 151.239 148.845 148.143C148.924 147.352 149.039 146.589 149.176 145.87C149.291 145.144 149.444 144.424 149.636 143.713L126.188 134.035C128.763 137.918 130.726 150.35 130.179 154.348C129.582 158.835 129.403 165.133 127.073 166.758L152.34 167.175Z" fill="#FF5C8A"/>
<g opacity="0.7">
<path opacity="0.7" d="M152.339 167.175C149.758 165.507 148.744 161.596 148.464 157.49C148.294 154.369 148.421 151.239 148.845 148.143C148.924 147.352 149.039 146.589 149.175 145.87C149.29 145.144 149.444 144.424 149.636 143.713L126.188 134.035C128.762 137.918 130.725 150.35 130.179 154.348C129.582 158.835 129.402 165.133 127.072 166.758L152.339 167.175Z" fill="white"/>
</g>
<path d="M127.073 166.758C122.039 170.353 124.196 176.005 128.288 180.621C129.862 182.391 131.556 184.051 133.357 185.589C141.194 192.298 153.49 189.45 157.15 179.801C158.753 175.523 158.199 170.935 152.339 167.182L127.073 166.758Z" fill="#FFB573"/>
<path opacity="0.2" d="M148.464 157.49C148.294 154.369 148.421 151.24 148.845 148.143C148.924 147.352 149.039 146.59 149.176 145.871L131.049 142.391C134.853 146.158 140.166 153.866 148.464 157.49Z" fill="#1C2D5E"/>
<path d="M172.379 115.448C171.803 119.345 166.461 125.68 166.72 125.299C166.935 124.885 167.011 124.414 166.936 123.954C166.818 122.199 166.387 120.48 165.663 118.878C165.21 121.035 164.52 125.557 162.37 125.593C161.514 123.983 160.464 122.516 160.615 120.69C160.119 122.559 159.659 124.443 159.177 126.312C155.007 123.745 152.368 117.821 153.238 112.874C153.426 111.674 153.843 110.522 154.468 109.48C155.24 108.343 156.178 107.328 157.25 106.467C159.975 104.08 161.083 102.973 164.663 102.973C172.479 102.973 172.954 111.551 172.379 115.448Z" fill="#FF5C8A"/>
<path opacity="0.3" d="M172.379 115.448C171.803 119.345 166.461 125.68 166.72 125.299C166.935 124.885 167.011 124.414 166.936 123.954C166.818 122.199 166.387 120.48 165.663 118.878C165.21 121.035 164.52 125.557 162.37 125.593C161.514 123.983 160.464 122.516 160.615 120.69C160.119 122.559 159.659 124.443 159.177 126.312C155.007 123.745 152.368 117.821 153.238 112.874C153.426 111.674 153.843 110.522 154.468 109.48C155.24 108.343 156.178 107.328 157.25 106.467C159.975 104.08 161.083 102.973 164.663 102.973C172.479 102.973 172.954 111.551 172.379 115.448Z" fill="#1C2D5E"/>
<path d="M168.33 134.532C165.418 150.401 146.421 158.771 133.882 147.403C126.641 140.852 125.49 133.022 124.167 120.856C123.959 119.008 123.75 117.067 123.52 115.003C123.132 111.791 123.461 108.532 124.484 105.462C124.903 104.184 125.453 102.953 126.123 101.787C128.575 97.3773 132.496 93.9664 137.203 92.1482C141.91 90.33 147.106 90.2195 151.886 91.8361C167.604 97.1281 170.969 120.252 168.33 134.532Z" fill="#FF5C8A"/>
<path opacity="0.7" d="M168.33 134.532C165.418 150.401 146.421 158.771 133.882 147.403C126.641 140.852 125.49 133.022 124.167 120.856C123.959 119.008 123.75 117.067 123.52 115.003C123.132 111.791 123.461 108.532 124.484 105.462C124.903 104.184 125.453 102.953 126.123 101.787C128.575 97.3773 132.496 93.9664 137.203 92.1482C141.91 90.33 147.106 90.2195 151.886 91.8361C167.604 97.1281 170.969 120.252 168.33 134.532Z" fill="white"/>
<path d="M148.715 115.471C149.55 115.414 150.276 116.42 150.34 117.693C150.405 118.966 149.902 120.044 148.967 120.094C148.032 120.145 147.299 119.153 147.227 117.865C147.155 116.578 147.889 115.521 148.715 115.471Z" fill="#FF5C8A"/>
<path opacity="0.3" d="M148.715 115.471C149.55 115.414 150.276 116.42 150.34 117.693C150.405 118.966 149.902 120.044 148.967 120.094C148.032 120.145 147.299 119.153 147.227 117.865C147.155 116.578 147.889 115.521 148.715 115.471Z" fill="#1C2D5E"/>
<path d="M162.952 115.342C163.786 115.285 164.512 116.277 164.584 117.55C164.656 118.822 164.052 119.894 163.204 119.951C162.355 120.009 161.629 119.016 161.557 117.744C161.485 116.471 162.125 115.393 162.952 115.342Z" fill="#FF5C8A"/>
<path opacity="0.3" d="M162.952 115.342C163.786 115.285 164.512 116.277 164.584 117.55C164.656 118.822 164.052 119.894 163.204 119.951C162.355 120.009 161.629 119.016 161.557 117.744C161.485 116.471 162.125 115.393 162.952 115.342Z" fill="#1C2D5E"/>
<path d="M156.963 130.288C159.12 130.511 163.053 129.203 164.613 127.671C161.644 124.73 158.329 121.423 156.294 117.777L156.963 130.288Z" fill="#FF5C8A"/>
<path opacity="0.5" d="M156.963 130.288C159.12 130.511 163.053 129.203 164.613 127.671C161.644 124.73 158.329 121.423 156.294 117.777L156.963 130.288Z" fill="white"/>
<path d="M146.335 110.467C147.268 110.291 148.229 110.336 149.141 110.6C150.052 110.863 150.889 111.338 151.584 111.984C151.624 112.052 151.675 112.113 151.735 112.164C151.81 112.229 151.897 112.278 151.991 112.309C152.086 112.34 152.185 112.352 152.284 112.345C152.382 112.337 152.479 112.311 152.567 112.266C152.656 112.222 152.735 112.16 152.799 112.085C152.864 112.01 152.913 111.923 152.944 111.829C152.975 111.734 152.988 111.635 152.98 111.536C152.973 111.438 152.946 111.341 152.902 111.253C152.857 111.164 152.795 111.085 152.72 111.021C151.87 110.188 150.833 109.572 149.696 109.221C148.559 108.871 147.355 108.798 146.184 109.007C146.085 109.018 145.99 109.048 145.903 109.097C145.817 109.146 145.741 109.213 145.682 109.293C145.622 109.373 145.58 109.464 145.558 109.561C145.535 109.658 145.533 109.758 145.552 109.856C145.568 109.987 145.623 110.109 145.71 110.208C145.787 110.296 145.884 110.365 145.992 110.41C146.101 110.455 146.218 110.474 146.335 110.467Z" fill="#FF5C8A"/>
<path opacity="0.3" d="M146.335 110.467C147.268 110.291 148.229 110.336 149.141 110.6C150.052 110.863 150.889 111.338 151.584 111.984C151.624 112.052 151.675 112.113 151.735 112.164C151.81 112.229 151.897 112.278 151.991 112.309C152.086 112.34 152.185 112.352 152.284 112.345C152.382 112.337 152.479 112.311 152.567 112.266C152.656 112.222 152.735 112.16 152.799 112.085C152.864 112.01 152.913 111.923 152.944 111.829C152.975 111.734 152.988 111.635 152.98 111.536C152.973 111.438 152.946 111.341 152.902 111.253C152.857 111.164 152.795 111.085 152.72 111.021C151.87 110.188 150.833 109.572 149.696 109.221C148.559 108.871 147.355 108.798 146.184 109.007C146.085 109.018 145.99 109.048 145.903 109.097C145.817 109.146 145.741 109.213 145.682 109.293C145.622 109.373 145.58 109.464 145.558 109.561C145.535 109.658 145.533 109.758 145.552 109.856C145.568 109.987 145.623 110.109 145.71 110.208C145.787 110.296 145.884 110.365 145.992 110.41C146.101 110.455 146.218 110.474 146.335 110.467Z" fill="#1C2D5E"/>
<path d="M168.151 108.94C168.14 108.746 168.055 108.563 167.913 108.429C167.771 108.295 167.584 108.221 167.389 108.221C166.201 108.191 165.024 108.449 163.958 108.974C162.893 109.499 161.97 110.274 161.27 111.234C161.216 111.314 161.179 111.405 161.161 111.5C161.143 111.596 161.144 111.694 161.165 111.788C161.186 111.883 161.226 111.973 161.282 112.052C161.338 112.13 161.41 112.197 161.493 112.248H161.543C161.706 112.346 161.902 112.375 162.086 112.329C162.271 112.283 162.43 112.166 162.528 112.003C163.098 111.257 163.838 110.656 164.685 110.251C165.533 109.846 166.464 109.648 167.403 109.674C167.528 109.679 167.652 109.652 167.762 109.595C167.873 109.539 167.968 109.454 168.036 109.35C168.105 109.224 168.144 109.084 168.151 108.94Z" fill="#FF5C8A"/>
<path opacity="0.3" d="M168.151 108.94C168.14 108.746 168.055 108.563 167.913 108.429C167.771 108.295 167.584 108.221 167.389 108.221C166.201 108.191 165.024 108.449 163.958 108.974C162.893 109.499 161.97 110.274 161.27 111.234C161.216 111.314 161.179 111.405 161.161 111.5C161.143 111.596 161.144 111.694 161.165 111.788C161.186 111.883 161.226 111.973 161.282 112.052C161.338 112.13 161.41 112.197 161.493 112.248H161.543C161.706 112.346 161.902 112.375 162.086 112.329C162.271 112.283 162.43 112.166 162.528 112.003C163.098 111.257 163.838 110.656 164.685 110.251C165.533 109.846 166.464 109.648 167.403 109.674C167.528 109.679 167.652 109.652 167.762 109.595C167.873 109.539 167.968 109.454 168.036 109.35C168.105 109.224 168.144 109.084 168.151 108.94Z" fill="#1C2D5E"/>
<path d="M132.451 144.003C130.53 143.639 128.718 142.843 127.152 141.674C127.152 143.781 125.714 147.426 125.714 147.426C119.012 145.219 113.49 131.816 112.771 127.372C109.046 134.296 109.37 130.313 109.082 127.372C108.665 123.137 108.557 118.744 110.003 114.753C111.448 110.763 114.741 107.189 118.94 106.499C119.721 106.427 120.508 106.566 121.217 106.901C121.926 107.236 122.533 107.755 122.974 108.404C123.688 109.686 124.154 111.091 124.347 112.546C126.31 123.051 126.224 135.318 132.451 144.003Z" fill="#FF5C8A"/>
<path opacity="0.3" d="M132.451 144.003C130.53 143.639 128.718 142.843 127.152 141.674C127.152 143.781 125.714 147.426 125.714 147.426C119.012 145.219 113.49 131.816 112.771 127.372C109.046 134.296 109.37 130.313 109.082 127.372C108.665 123.137 108.557 118.744 110.003 114.753C111.448 110.763 114.741 107.189 118.94 106.499C119.721 106.427 120.508 106.566 121.217 106.901C121.926 107.236 122.533 107.755 122.974 108.404C123.688 109.686 124.154 111.091 124.347 112.546C126.31 123.051 126.224 135.318 132.451 144.003Z" fill="#1C2D5E"/>
<path d="M122.952 119.916C128.079 120.031 131.207 126.495 131.753 130.917C132.393 135.842 129.086 139.891 124.333 137.712C122.561 136.89 120.971 135.722 119.656 134.278C118.341 132.833 117.327 131.14 116.675 129.299C115.086 124.726 117.818 119.808 122.952 119.916Z" fill="#FF5C8A"/>
<path opacity="0.7" d="M122.952 119.916C128.079 120.031 131.207 126.495 131.753 130.917C132.393 135.842 129.086 139.891 124.333 137.712C122.561 136.89 120.971 135.722 119.656 134.278C118.341 132.833 117.327 131.14 116.675 129.299C115.086 124.726 117.818 119.808 122.952 119.916Z" fill="white"/>
<path d="M133.221 104.837C134.562 106.282 135.564 108.007 136.154 109.888C136.743 111.769 136.906 113.758 136.629 115.709C136.032 119.606 130.517 125.934 130.776 125.553C130.996 125.141 131.077 124.669 131.006 124.208C130.879 122.449 130.43 120.729 129.683 119.132C129.216 121.289 128.504 125.812 126.282 125.84C125.398 124.237 124.312 122.77 124.463 120.937C123.953 122.813 123.478 124.697 122.967 126.567C118.653 123.992 115.921 118.068 116.813 113.121C117.009 111.917 117.441 110.763 118.085 109.727C118.891 108.587 119.86 107.572 120.961 106.714C123.78 104.327 127.512 101.947 130.913 103.378C131.402 103.608 133.35 104.32 133.221 104.837Z" fill="#FF5C8A"/>
<path opacity="0.3" d="M133.221 104.837C134.562 106.282 135.564 108.007 136.154 109.888C136.743 111.769 136.906 113.758 136.629 115.709C136.032 119.606 130.517 125.934 130.776 125.553C130.996 125.141 131.077 124.669 131.006 124.208C130.879 122.449 130.43 120.729 129.683 119.132C129.216 121.289 128.504 125.812 126.282 125.84C125.398 124.237 124.312 122.77 124.463 120.937C123.953 122.813 123.478 124.697 122.967 126.567C118.653 123.992 115.921 118.068 116.813 113.121C117.009 111.917 117.441 110.763 118.085 109.727C118.891 108.587 119.86 107.572 120.961 106.714C123.78 104.327 127.512 101.947 130.913 103.378C131.402 103.608 133.35 104.32 133.221 104.837Z" fill="#1C2D5E"/>
<path d="M161.018 134.646C161.018 134.646 156.625 132.862 143.675 131.316C144.394 136.019 147.27 138.003 153.893 138.722C160.515 139.441 161.018 134.646 161.018 134.646Z" fill="#263238"/>
<path d="M160.428 134.482C160.23 134.998 159.902 135.454 159.474 135.804C159.047 136.155 158.536 136.388 157.991 136.481C154.167 136.02 150.397 135.181 146.738 133.979C146.119 133.838 145.552 133.523 145.104 133.073C144.656 132.622 144.345 132.054 144.207 131.434C149.696 131.952 155.126 132.973 160.428 134.482Z" fill="white"/>
<path d="M157.732 136.092C154.469 134.766 151.02 133.953 147.508 133.684C146.523 133.791 145.586 134.164 144.797 134.762C146.235 137.092 149.111 138.249 153.835 138.782C155.613 139.096 157.445 138.762 158.998 137.84C158.656 137.203 158.231 136.615 157.732 136.092Z" fill="white"/>
<path d="M169.467 165.672C168.912 170.885 166.962 175.853 163.822 180.052C163.592 180.362 163.355 180.671 163.103 180.973C156.114 189.824 143.553 192.571 133.105 187.919C129.802 186.488 126.631 184.77 123.629 182.785C117.704 178.801 112.591 173.265 110.183 166.765L128.554 164.399L141.115 162.781L149.701 163.658L169.467 165.672Z" fill="#FFB573"/>
<path d="M78.6314 177.45C77.9124 231.377 38.114 278.114 34.0083 331.919H231.533C211.898 289.856 199.593 244.747 195.15 198.539L192.095 166.758H91.0059C91.0059 166.758 78.7033 172.172 78.6314 177.45Z" fill="#FF5C8A"/>
<path opacity="0.6" d="M78.6314 177.45C77.9124 231.377 38.114 278.114 34.0083 331.919H231.533C211.898 289.856 199.593 244.747 195.15 198.539L192.095 166.758H91.0059C91.0059 166.758 78.7033 172.172 78.6314 177.45Z" fill="white"/>
<path opacity="0.2" d="M58.585 331.85C58.585 331.85 57.4346 276.319 75.8418 218.869C94.249 161.418 71.1393 236.097 74.7345 302.657C75.7555 321.848 80.7815 332.138 80.7815 332.138L58.585 331.85Z" fill="white"/>
<path opacity="0.2" d="M213.406 332.137C213.406 332.137 189.276 276.175 184.94 202.309C184.94 202.309 179.03 267.676 199.421 331.921L213.406 332.137Z" fill="white"/>
<path d="M206.957 157.54C207.055 157.492 207.155 157.451 207.259 157.418L207.144 157.468L206.957 157.54Z" fill="#FF5C8A"/>
<path d="M208.546 156.953L208.035 157.14L207.618 157.291H207.554L207.259 157.399C207.669 157.255 208.1 157.104 208.546 156.953Z" fill="#FF5C8A"/>
<path d="M260.115 159.813C260.115 179.544 224.71 191.961 208.913 196.484C193.928 201.517 184.94 202.272 184.94 202.272C184.387 197.059 173.083 166.464 173.083 166.464C173.083 166.464 179.842 163.588 184.689 164.02H184.811C190.483 164.468 196.157 163.168 201.068 160.295C202.854 159.264 204.714 158.367 206.633 157.613L206.957 157.491L207.144 157.419L207.554 157.261H207.619L208.036 157.11L208.546 156.923L209.143 156.729L209.323 156.671L209.51 156.614L209.646 156.578H209.697C211.094 156.173 212.513 155.847 213.946 155.6C218.151 154.78 222.506 155.282 226.414 157.038C227.157 157.402 227.978 157.575 228.804 157.541C229.63 157.507 230.435 157.267 231.145 156.844C231.864 156.384 232.173 155.887 231.483 155.499L197.876 117.06L208.122 111.43C208.122 111.43 260.115 138.904 260.115 159.813Z" fill="#FF5C8A"/>
<path d="M260.115 159.813C260.115 179.544 224.71 191.961 208.913 196.484C193.928 201.517 184.94 202.272 184.94 202.272C184.387 197.059 173.083 166.464 173.083 166.464C173.083 166.464 179.842 163.588 184.689 164.02H184.811C190.483 164.468 196.157 163.168 201.068 160.295C202.854 159.264 204.714 158.367 206.633 157.613L206.957 157.491L207.144 157.419L207.554 157.261H207.619L208.036 157.11L208.546 156.923L209.143 156.729L209.323 156.671L209.51 156.614L209.646 156.578H209.697C211.094 156.173 212.513 155.847 213.946 155.6C218.151 154.78 222.506 155.282 226.414 157.038C227.157 157.402 227.978 157.575 228.804 157.541C229.63 157.507 230.435 157.267 231.145 156.844C231.864 156.384 232.173 155.887 231.483 155.499L197.876 117.06L208.122 111.43C208.122 111.43 260.115 138.904 260.115 159.813Z" fill="#FF5C8A"/>
<g opacity="0.3">
<path opacity="0.3" d="M260.115 159.813C260.115 179.544 224.709 191.961 208.912 196.484C193.928 201.517 184.94 202.272 184.94 202.272C184.386 197.059 173.083 166.464 173.083 166.464C173.083 166.464 179.842 163.588 184.688 164.02H184.81C190.483 164.468 196.156 163.168 201.068 160.295C202.853 159.264 204.714 158.367 206.633 157.613L206.957 157.491L207.144 157.419L207.553 157.261H207.618L208.035 157.11L208.546 156.923L209.142 156.729L209.322 156.671L209.509 156.614L209.646 156.578H209.696C211.093 156.173 212.512 155.847 213.946 155.6C218.15 154.78 222.506 155.282 226.414 157.038C227.156 157.402 227.978 157.575 228.804 157.541C229.63 157.507 230.435 157.267 231.145 156.844C231.864 156.384 232.173 155.887 231.483 155.499L197.875 117.06L208.121 111.43C208.121 111.43 260.115 138.904 260.115 159.813Z" fill="white"/>
</g>
<path d="M200.644 118.06L186.321 112.387L177.692 100.883L190.088 98.1289L201.809 104.205L208.841 111.855C209.167 112.211 209.398 112.642 209.513 113.11C209.629 113.578 209.625 114.068 209.502 114.534C209.378 115 209.14 115.427 208.809 115.777C208.477 116.127 208.063 116.388 207.604 116.536L202.571 118.14C201.939 118.336 201.258 118.308 200.644 118.06Z" fill="#FF5C8A"/>
<path opacity="0.7" d="M200.644 118.06L186.321 112.387L177.692 100.883L190.088 98.1289L201.809 104.205L208.841 111.855C209.167 112.211 209.398 112.642 209.513 113.11C209.629 113.578 209.625 114.068 209.502 114.534C209.378 115 209.14 115.427 208.809 115.777C208.477 116.127 208.063 116.388 207.604 116.536L202.571 118.14C201.939 118.336 201.258 118.308 200.644 118.06Z" fill="white"/>
<path opacity="0.2" d="M191.268 186.582L192.706 201.128C192.706 201.128 213.91 196.21 225.896 190.724L216.268 191.249C208.303 191.795 200.33 190.295 193.108 186.891L191.268 186.582Z" fill="#1C2D5E"/>
<path d="M193.806 200.789C193.597 247.088 185.091 251.459 185.494 291.308C185.494 291.308 105.329 291.632 102.611 291.704C96.1399 238.078 89.5463 235.619 91.2864 194.44C90.4451 180.915 98.1172 169.022 105.832 167.477L141.13 162.781L175.082 166.376C183.711 167.613 191.512 174.415 193.806 200.789Z" fill="#FF5C8A"/>
<path opacity="0.3" d="M193.806 200.789C193.597 247.088 185.091 251.459 185.494 291.308C185.494 291.308 105.329 291.632 102.611 291.704C96.1399 238.078 89.5463 235.619 91.2864 194.44C90.4451 180.915 98.1172 169.022 105.832 167.477L141.13 162.781L175.082 166.376C183.711 167.613 191.512 174.415 193.806 200.789Z" fill="white"/>
<path d="M135.91 110.375C133.753 105.629 130.876 103.335 132.552 103.594C137.053 104.313 139.807 100.351 143.114 102.58C144.725 104.421 142.87 107.844 142.791 107.657C144.445 108.44 146.508 107.822 147.867 106.614C149.226 105.406 149.701 103.292 150.369 101.581C150.87 103.421 150.825 105.367 150.24 107.182C151.426 108.124 153.871 106.355 154.986 105.327C156.099 104.147 156.932 102.732 157.423 101.185C157.847 102.839 158.178 104.522 156.992 106.513C158.674 106.607 160.882 106.089 161.989 104.831C162.568 104.175 162.996 103.401 163.244 102.563C163.493 101.725 163.555 100.842 163.427 99.9774C163.808 100.826 163.866 104.292 163.111 104.874C165.987 103.932 168.654 100.337 168.503 97.3386C168.365 95.8343 167.866 94.3855 167.048 93.1151C166.231 91.8446 165.12 90.79 163.808 90.0404C162.521 89.2711 161.09 88.7677 159.738 88.1062C157.66 87.0852 144.459 77.2345 125.074 88.4657C113.044 95.4403 115.396 109.318 116.827 110.828C118.603 112.69 121.4 113.315 123.981 113.057C126.562 112.798 136.47 111.633 135.91 110.375Z" fill="#FF5C8A"/>
<path opacity="0.3" d="M135.91 110.375C133.753 105.629 130.876 103.335 132.552 103.594C137.053 104.313 139.807 100.351 143.114 102.58C144.725 104.421 142.87 107.844 142.791 107.657C144.445 108.44 146.508 107.822 147.867 106.614C149.226 105.406 149.701 103.292 150.369 101.581C150.87 103.421 150.825 105.367 150.24 107.182C151.426 108.124 153.871 106.355 154.986 105.327C156.099 104.147 156.932 102.732 157.423 101.185C157.847 102.839 158.178 104.522 156.992 106.513C158.674 106.607 160.882 106.089 161.989 104.831C162.568 104.175 162.996 103.401 163.244 102.563C163.493 101.725 163.555 100.842 163.427 99.9774C163.808 100.826 163.866 104.292 163.111 104.874C165.987 103.932 168.654 100.337 168.503 97.3386C168.365 95.8343 167.866 94.3855 167.048 93.1151C166.231 91.8446 165.12 90.79 163.808 90.0404C162.521 89.2711 161.09 88.7677 159.738 88.1062C157.66 87.0852 144.459 77.2345 125.074 88.4657C113.044 95.4403 115.396 109.318 116.827 110.828C118.603 112.69 121.4 113.315 123.981 113.057C126.562 112.798 136.47 111.633 135.91 110.375Z" fill="#1C2D5E"/>
<path d="M161.018 134.646C161.018 134.646 156.625 132.862 143.675 131.316C144.394 136.019 147.27 138.003 153.893 138.722C160.515 139.441 161.018 134.646 161.018 134.646Z" fill="#FF5C8A"/>
<path opacity="0.3" d="M161.018 134.646C161.018 134.646 156.625 132.862 143.675 131.316C144.394 136.019 147.27 138.003 153.893 138.722C160.515 139.441 161.018 134.646 161.018 134.646Z" fill="#1C2D5E"/>
<path d="M160.428 134.482C160.23 134.998 159.902 135.454 159.474 135.804C159.047 136.155 158.536 136.388 157.991 136.481C154.167 136.02 150.397 135.181 146.738 133.979C146.119 133.838 145.552 133.523 145.104 133.073C144.656 132.622 144.345 132.054 144.207 131.434C149.696 131.952 155.126 132.973 160.428 134.482Z" fill="white"/>
<path d="M157.732 136.092C154.469 134.766 151.02 133.953 147.508 133.684C146.523 133.791 145.586 134.164 144.797 134.762C146.235 137.092 149.111 138.249 153.835 138.782C155.613 139.096 157.445 138.762 158.998 137.84C158.656 137.203 158.231 136.615 157.732 136.092Z" fill="white"/>
<path d="M98.4626 271.285C98.4626 271.285 115.417 262.297 115.324 263.282C115.23 264.268 115.676 283.286 115.676 283.286L97.1899 282.862L98.4626 271.285Z" fill="#FF5C8A"/>
<path d="M115.31 263.281C115.31 263.281 130.92 263.792 130.833 265.525C130.747 267.257 129.065 281.804 129.065 281.804L115.662 283.292L115.31 263.281Z" fill="#FF5C8A"/>
<g opacity="0.7">
<path opacity="0.7" d="M130.819 265.526C130.732 267.266 129.057 281.798 129.057 281.798L115.654 283.286L97.168 282.862L98.4407 271.285C98.4407 271.285 115.395 262.297 115.302 263.282C115.309 263.282 130.919 263.829 130.819 265.526Z" fill="white"/>
</g>
<path d="M169.467 165.672C168.912 170.885 166.962 175.853 163.822 180.052C163.592 180.362 163.355 180.671 163.103 180.973C156.114 189.824 143.553 192.571 133.105 187.919C129.802 186.488 126.631 184.77 123.629 182.785C117.704 178.801 112.591 173.265 110.183 166.765L128.554 164.399L141.115 162.781L149.701 163.658L169.467 165.672Z" fill="#FF5C8A"/>
<path opacity="0.7" d="M169.467 165.672C168.912 170.885 166.962 175.853 163.822 180.052C163.592 180.362 163.355 180.671 163.103 180.973C156.114 189.824 143.553 192.571 133.105 187.919C129.802 186.488 126.631 184.77 123.629 182.785C117.704 178.801 112.591 173.265 110.183 166.765L128.554 164.399L141.115 162.781L149.701 163.658L169.467 165.672Z" fill="white"/>
<path opacity="0.2" d="M91.4009 212.367C91.4267 220.453 92.1484 228.522 93.558 236.484L99.5619 199.008L91.4009 212.367Z" fill="#1C2D5E"/>
<path d="M58.8581 239.482L99.016 267.855L97.1753 284.544C97.1753 284.544 36.9061 270.688 27.7816 251.886C23.5177 243.113 28.3208 232.385 35.7412 222.463C35.7446 222.451 35.7446 222.439 35.7412 222.427C44.5638 207.996 52.581 199.418 58.628 194.349C64.5586 189.523 69.7099 183.811 73.9002 177.415C84.3118 161.072 107.695 167.694 107.695 167.694C102.367 180.162 102.309 203.876 102.309 203.876C102.309 203.876 97.0818 207.816 91.3727 212.368C91.3152 216.214 88.9783 220.924 84.4628 226.245C78.5308 233.263 60.8858 237.26 58.8581 239.482Z" fill="#FF5C8A"/>
<path opacity="0.3" d="M58.8581 239.482L99.016 267.855L97.1753 284.544C97.1753 284.544 36.9061 270.688 27.7816 251.886C23.5177 243.113 28.3208 232.385 35.7412 222.463C35.7446 222.451 35.7446 222.439 35.7412 222.427C44.5638 207.996 52.581 199.418 58.628 194.349C64.5586 189.523 69.7099 183.811 73.9002 177.415C84.3118 161.072 107.695 167.694 107.695 167.694C102.367 180.162 102.309 203.876 102.309 203.876C102.309 203.876 97.0818 207.816 91.3727 212.368C91.3152 216.214 88.9783 220.924 84.4628 226.245C78.5308 233.263 60.8858 237.26 58.8581 239.482Z" fill="white"/>
<path d="M89.1941 162.863C101.89 173.422 116.315 181.707 131.833 187.353C131.833 182.485 130.28 172.649 127.518 166.551C126.735 164.84 125.742 163.121 124.139 162.136C122.536 161.151 120.184 161.159 118.991 162.618C114.432 159.397 106.933 159.246 102.511 162.618C99.088 161.432 94.2273 159.548 90.6609 160.188C87.0945 160.828 82.694 165.581 83.2261 169.169C86.5158 167.594 90.0825 166.68 93.724 166.479C92.7461 165.322 93.7024 166.515 89.1941 162.863Z" fill="#FF5C8A"/>
<path opacity="0.6" d="M89.1941 162.863C101.89 173.422 116.315 181.707 131.833 187.353C131.833 182.485 130.28 172.649 127.518 166.551C126.735 164.84 125.742 163.121 124.139 162.136C122.536 161.151 120.184 161.159 118.991 162.618C114.432 159.397 106.933 159.246 102.511 162.618C99.088 161.432 94.2273 159.548 90.6609 160.188C87.0945 160.828 82.694 165.581 83.2261 169.169C86.5158 167.594 90.0825 166.68 93.724 166.479C92.7461 165.322 93.7024 166.515 89.1941 162.863Z" fill="white"/>
<path d="M181.46 164.09C179.398 163.157 177.161 162.674 174.898 162.674C172.636 162.674 170.399 163.157 168.337 164.09C165.519 162.026 161.183 161.588 158.271 163.565C157.813 163.017 157.246 162.571 156.606 162.254C155.966 161.937 155.267 161.757 154.553 161.724C153.115 161.674 152.195 162.666 151.21 163.695C153.281 164.737 154.338 167.06 155.071 169.26C156.943 174.833 157.741 180.711 157.422 186.581C167.345 181.735 175.765 173.603 181.46 164.09Z" fill="#FF5C8A"/>
<path opacity="0.6" d="M181.46 164.09C179.398 163.157 177.161 162.674 174.898 162.674C172.636 162.674 170.399 163.157 168.337 164.09C165.519 162.026 161.183 161.588 158.271 163.565C157.813 163.017 157.246 162.571 156.606 162.254C155.966 161.937 155.267 161.757 154.553 161.724C153.115 161.674 152.195 162.666 151.21 163.695C153.281 164.737 154.338 167.06 155.071 169.26C156.943 174.833 157.741 180.711 157.422 186.581C167.345 181.735 175.765 173.603 181.46 164.09Z" fill="white"/>
<path opacity="0.5" d="M179.519 220.124C179.519 231.046 163.974 250.568 144.797 250.568C125.621 250.568 110.075 231.046 110.075 220.124C110.075 209.202 125.621 200.344 144.797 200.344C163.974 200.344 179.519 209.181 179.519 220.124Z" fill="white"/>
<path d="M174.852 221.066C174.852 230.061 162.046 246.146 146.249 246.146C130.452 246.146 117.653 230.032 117.653 221.066C117.653 212.1 130.452 204.766 146.249 204.766C162.046 204.766 174.852 212.057 174.852 221.066Z" fill="#FF5C8A"/>
<path opacity="0.5" d="M174.852 221.066C174.852 230.061 162.046 246.146 146.249 246.146C130.452 246.146 117.653 230.032 117.653 221.066C117.653 212.1 130.452 204.766 146.249 204.766C162.046 204.766 174.852 212.057 174.852 221.066Z" fill="white"/>
<path d="M185.508 291.707H102.611V305.232H185.508V291.707Z" fill="white"/>
<path d="M102.611 305.23L94.6802 331.921H188.19L185.515 305.23H102.611Z" fill="#FF5C8A"/>
<path opacity="0.2" d="M102.611 305.23L94.6802 331.921H188.19L185.515 305.23H102.611Z" fill="white"/>
<path d="M164.052 290.844H139.267V305.663H164.052V290.844Z" fill="#263238"/>
<path opacity="0.7" d="M164.052 290.844H139.267V305.663H164.052V290.844Z" fill="white"/>
<path opacity="0.7" d="M149.643 290.844L142.345 305.663H147.752L155.28 290.844H149.643Z" fill="white"/>
<path opacity="0.7" d="M157.596 290.844L150.298 305.663H154.159L161.687 290.844H157.596Z" fill="white"/>
<path opacity="0.2" d="M172.379 115.413C172.077 117.448 170.488 120.137 169.064 122.194C169.295 126.309 169.054 130.436 168.345 134.496C167.482 139.278 165.066 143.641 161.469 146.908C157.873 150.176 153.299 152.164 148.456 152.566C148.367 154.194 148.367 155.826 148.456 157.455C148.558 159.562 148.974 161.641 149.693 163.624L169.445 165.638C168.89 170.851 166.94 175.819 163.801 180.018C163.57 180.327 163.333 180.637 163.082 180.938C156.093 189.79 143.531 192.536 133.084 187.884C129.788 186.452 126.624 184.734 123.628 182.75C117.703 178.767 112.591 173.23 110.182 166.73L128.554 164.365C129.503 161.676 129.718 157.534 130.15 154.298C130.452 152.091 129.992 147.317 129.086 142.837C128.396 142.495 127.739 142.09 127.123 141.629C127.123 143.736 125.685 147.381 125.685 147.381C118.983 145.174 113.461 131.771 112.742 127.328C109.01 134.252 109.341 130.268 109.054 127.328C108.636 123.092 108.529 118.699 109.974 114.709C111.005 111.741 113.039 109.226 115.726 107.597C115.007 102.722 115.999 93.6553 124.987 88.4423C144.401 77.211 157.574 87.0618 159.652 88.0828C161.004 88.7443 162.427 89.2476 163.721 90.017C165.033 90.7665 166.145 91.8212 166.962 93.0917C167.779 94.3621 168.278 95.8108 168.417 97.3151C168.51 99.2709 167.417 101.471 165.85 103.031C172.522 103.887 172.925 111.739 172.379 115.413Z" fill="white"/>
<path opacity="0.2" d="M158.581 101.997L158.336 101.587C158.427 101.054 158.427 100.51 158.336 99.9766C158.525 100.633 158.608 101.315 158.581 101.997Z" fill="white"/>
<path d="M104.316 310.441C102.294 311.099 100.23 311.623 98.1391 312.008C97.8155 312.066 97.4991 312.123 97.1899 312.166C96.1761 312.317 95.227 312.411 94.3138 312.454C80.4006 313.173 80.041 301.553 79.6959 295.636C79.3533 287.722 79.5503 279.795 80.2855 271.908C81.249 260.928 83.0753 249.524 85.7286 240.989C89.5682 228.68 95.795 227.328 101.08 227.234C102.101 227.234 103.1 227.234 104.035 227.234C104.035 227.234 103.359 230.722 103.036 234.087L100.936 248.999L98.0168 269.693L97.5638 272.922V273.101L95.982 284.304L95.6153 286.885C95.4499 288.604 95.3276 291.027 97.2043 292.407C97.4688 292.612 97.7589 292.781 98.0672 292.911C99.2895 293.457 101.094 293.68 103.719 293.371L103.985 300.719L104.035 302.042L104.121 304.329L104.265 308.485L104.316 310.441Z" fill="#FFB573"/>
<path d="M72.6848 267.716C76.6682 272.267 79.8751 271.714 85.3829 272.577C90.8906 273.439 95.6362 273.137 101.202 272.627C102.33 257.146 104.236 241.709 104.078 226.242C99.5621 226.58 94.7303 226.393 91.0273 228.637C86.0947 231.635 85.7639 239.336 82.442 244.764C78.5161 251.178 73.4829 256.434 68.5 261.626C70.312 264.789 70.4198 265.091 72.6848 267.716Z" fill="#1C2D5E"/>
<path opacity="0.2" d="M100.936 248.992L93.2563 273.123H102.949L100.936 248.992Z" fill="#1C2D5E"/>
<path d="M175.125 276.503C174.241 280.458 173.184 284.333 172.106 289.273C171.875 290.33 171.638 291.43 171.387 292.609C171.063 294.249 170.739 295.989 170.43 297.887C170.085 300.044 169.747 302.345 169.424 304.905C169.136 307.119 168.87 309.507 168.618 312.095C168.51 313.224 168.395 314.389 168.295 315.611C168.093 317.991 167.899 320.529 167.727 323.24C167.554 325.951 167.396 328.956 167.252 332.106C164.908 332.048 95.6294 332.106 95.6294 332.106C96.0177 327.497 96.3484 323.161 96.6648 318.976C96.8302 316.654 96.9956 314.382 97.1322 312.138V312.088C97.1825 311.369 97.2256 310.722 97.2616 310.046C97.3695 308.335 97.4629 306.645 97.5492 304.962C97.7577 300.936 97.9159 296.952 98.0166 292.89C98.0166 292.717 98.0166 292.545 98.0166 292.372C98.0741 289.87 98.1101 287.339 98.1244 284.736C98.1244 280.997 98.1244 277.136 98.0453 273.08C98.0453 273.009 98.0453 272.937 98.0453 272.865C98.0453 271.815 98.0094 270.751 97.9806 269.672C97.8943 266.365 97.7793 262.913 97.6211 259.282C97.427 254.752 97.1753 249.935 96.8589 244.801C96.485 238.725 96.9165 230.65 101.037 227.221C101.444 226.878 101.891 226.583 102.367 226.343C103.074 225.985 103.834 225.742 104.617 225.624L126.368 222.238L133.954 221.059L145.128 223.216L169.646 228.033C169.94 228.09 170.23 228.162 170.516 228.249C172.101 228.712 173.49 229.682 174.471 231.01C177.002 234.397 177.527 240.357 177.024 248.382C177.649 262.252 176.679 269.5 175.125 276.503Z" fill="#FF5C8A"/>
<path d="M175.125 276.503C174.241 280.458 173.184 284.333 172.106 289.273C171.875 290.33 171.638 291.43 171.387 292.609C171.063 294.249 170.739 295.989 170.43 297.887C170.085 300.044 169.747 302.345 169.424 304.905C169.136 307.119 168.87 309.507 168.618 312.095C168.51 313.224 168.395 314.389 168.295 315.611C168.093 317.991 167.899 320.529 167.727 323.24C167.554 325.951 167.396 328.956 167.252 332.106C164.908 332.048 95.6294 332.106 95.6294 332.106C96.0177 327.497 96.3484 323.161 96.6648 318.976C96.8302 316.654 96.9956 314.382 97.1322 312.138V312.088C97.1825 311.369 97.2256 310.722 97.2616 310.046C97.3695 308.335 97.4629 306.645 97.5492 304.962C97.7577 300.936 97.9159 296.952 98.0166 292.89C98.0166 292.717 98.0166 292.545 98.0166 292.372C98.0741 289.87 98.1101 287.339 98.1244 284.736C98.1244 280.997 98.1244 277.136 98.0453 273.08C98.0453 273.009 98.0453 272.937 98.0453 272.865C98.0453 271.815 98.0094 270.751 97.9806 269.672C97.8943 266.365 97.7793 262.913 97.6211 259.282C97.427 254.752 97.1753 249.935 96.8589 244.801C96.485 238.725 96.9165 230.65 101.037 227.221C101.444 226.878 101.891 226.583 102.367 226.343C103.074 225.985 103.834 225.742 104.617 225.624L126.368 222.238L133.954 221.059L145.128 223.216L169.646 228.033C169.94 228.09 170.23 228.162 170.516 228.249C172.101 228.712 173.49 229.682 174.471 231.01C177.002 234.397 177.527 240.357 177.024 248.382C177.649 262.252 176.679 269.5 175.125 276.503Z" fill="#1C2D5E"/>
<path d="M146.141 224.507C150.498 227.614 148.65 232.496 145.098 236.486C137.699 244.791 129.998 247.372 129.998 247.372C129.883 247.322 110.779 233.517 124.246 224.881C126.475 223.443 127.345 220.057 127.59 216.512C127.738 213.804 127.63 211.088 127.266 208.401C127.201 207.725 127.094 207.064 126.978 206.438C126.863 205.812 126.734 205.18 126.583 204.597L146.91 196.242C144.681 199.593 142.984 210.335 143.459 213.794C143.976 217.662 144.127 223.076 146.141 224.507Z" fill="#FFB573"/>
<path opacity="0.2" d="M127.655 216.513C127.803 213.805 127.695 211.089 127.332 208.402C127.267 207.726 127.159 207.065 127.044 206.439L142.712 203.434C139.447 206.72 134.817 213.378 127.655 216.513Z" fill="#1C2D5E"/>
<path d="M106.422 181.029C106.932 184.394 111.699 189.866 111.455 189.535C111.264 189.181 111.196 188.774 111.261 188.377C111.369 186.855 111.757 185.366 112.404 183.984C112.799 185.868 113.418 189.736 115.338 189.787C116.1 188.399 117.042 187.133 116.912 185.551C117.358 187.169 117.761 188.794 118.199 190.412C120.098 189.182 121.606 187.436 122.549 185.38C123.491 183.323 123.828 181.041 123.52 178.8C123.351 177.757 122.98 176.758 122.427 175.859C121.74 174.866 120.909 173.982 119.961 173.234C117.531 171.171 114.432 169.481 111.333 170.358C105.48 172.026 105.911 177.664 106.422 181.029Z" fill="#263238"/>
<path d="M110.492 196.666C113.008 210.378 129.424 217.611 140.259 207.789C146.515 202.13 147.514 195.379 148.651 184.852C148.83 183.256 149.01 181.58 149.219 179.819C149.55 177.044 149.263 174.23 148.377 171.579C148.012 170.471 147.53 169.406 146.939 168.401C144.822 164.58 141.431 161.624 137.358 160.047C133.285 158.47 128.787 158.373 124.649 159.772C111.117 164.345 108.212 184.327 110.492 196.666Z" fill="#FFB573"/>
<path d="M123.808 177.218C123.708 177.182 123.62 177.117 123.557 177.031C123.456 176.896 123.414 176.726 123.438 176.559C123.462 176.392 123.551 176.241 123.686 176.14C124.493 175.522 125.439 175.111 126.441 174.94C127.443 174.77 128.472 174.846 129.438 175.162C129.515 175.194 129.585 175.24 129.644 175.299C129.703 175.357 129.75 175.427 129.782 175.504C129.814 175.581 129.831 175.663 129.831 175.746C129.831 175.83 129.815 175.912 129.783 175.989C129.718 176.147 129.593 176.273 129.436 176.34C129.279 176.407 129.102 176.41 128.942 176.348C128.176 176.097 127.36 176.037 126.565 176.174C125.771 176.31 125.022 176.639 124.383 177.132C124.303 177.195 124.208 177.236 124.107 177.251C124.006 177.266 123.903 177.255 123.808 177.218Z" fill="#263238"/>
<path d="M116.862 178.182C116.794 178.101 116.708 178.037 116.61 177.996C116.513 177.955 116.407 177.937 116.302 177.944C115.479 178.048 114.643 177.959 113.861 177.685C113.079 177.41 112.371 176.957 111.793 176.362C111.681 176.231 111.523 176.148 111.351 176.132C111.179 176.116 111.007 176.167 110.873 176.276C110.745 176.386 110.663 176.541 110.644 176.709C110.626 176.877 110.671 177.046 110.772 177.182C111.484 177.945 112.367 178.526 113.349 178.878C114.331 179.229 115.383 179.341 116.417 179.203C116.504 179.196 116.589 179.173 116.666 179.133C116.744 179.093 116.813 179.038 116.868 178.97C116.924 178.903 116.966 178.825 116.991 178.742C117.016 178.658 117.023 178.57 117.013 178.484C116.988 178.372 116.936 178.269 116.862 178.182Z" fill="#263238"/>
<path d="M119.314 192.683C117.343 192.701 115.424 192.044 113.878 190.821C115.985 188.728 118.344 186.377 119.789 183.781L119.314 192.683Z" fill="#ED893E"/>
<path d="M114.41 184.567C113.872 184.524 113.348 184.375 112.868 184.128C112.387 183.881 111.961 183.542 111.613 183.129C111.581 183.094 111.555 183.054 111.538 183.009C111.521 182.965 111.513 182.918 111.515 182.871C111.516 182.823 111.527 182.776 111.546 182.733C111.566 182.69 111.593 182.651 111.628 182.618C111.662 182.586 111.703 182.56 111.747 182.543C111.791 182.526 111.839 182.518 111.886 182.52C111.933 182.521 111.98 182.532 112.023 182.551C112.067 182.57 112.106 182.598 112.138 182.633C112.936 183.474 114.187 184.308 115.597 183.481C115.679 183.433 115.777 183.419 115.87 183.442C115.962 183.464 116.042 183.522 116.093 183.603C116.14 183.687 116.153 183.785 116.129 183.878C116.105 183.97 116.046 184.05 115.963 184.099C115.497 184.392 114.961 184.553 114.41 184.567Z" fill="#263238"/>
<path d="M126.922 196.006C125.909 196.782 124.751 197.349 123.516 197.671C122.282 197.993 120.995 198.065 119.732 197.882C119.646 197.873 119.567 197.832 119.511 197.766C119.454 197.701 119.425 197.616 119.43 197.53C119.431 197.489 119.441 197.449 119.459 197.413C119.476 197.376 119.5 197.343 119.53 197.315C119.56 197.288 119.595 197.267 119.634 197.253C119.672 197.239 119.713 197.233 119.753 197.235C121.13 197.43 122.534 197.305 123.855 196.871C125.177 196.437 126.381 195.706 127.375 194.733C127.434 194.676 127.512 194.645 127.594 194.645C127.676 194.645 127.755 194.676 127.813 194.733C127.87 194.796 127.901 194.878 127.901 194.963C127.901 195.048 127.87 195.13 127.813 195.193C127.545 195.485 127.248 195.756 126.922 196.006Z" fill="#263238"/>
<path d="M141.496 204.871C143.156 204.56 144.723 203.874 146.076 202.865C146.076 204.684 147.299 207.804 147.299 207.804C153.087 205.899 157.854 194.315 158.494 190.476C161.715 196.458 161.435 193.021 161.686 190.476C162.046 186.816 162.132 183.027 160.888 179.575C159.644 176.124 156.79 173.039 153.166 172.442C152.491 172.379 151.812 172.497 151.198 172.786C150.585 173.074 150.06 173.522 149.679 174.082C149.059 175.195 148.654 176.414 148.485 177.677C146.803 186.744 146.874 197.35 141.496 204.871Z" fill="#263238"/>
<path d="M149.708 184.021C145.278 184.114 142.568 189.701 142.1 193.526C141.547 197.776 144.408 201.277 148.514 199.394C150.045 198.683 151.418 197.674 152.554 196.426C153.69 195.177 154.566 193.715 155.129 192.124C156.495 188.191 154.137 183.942 149.708 184.021Z" fill="#FFB573"/>
<path opacity="0.2" d="M161.996 254.578C161.996 254.578 156.617 278.917 160.349 293.607C164.081 308.297 171.53 315.703 171.53 315.703L172.86 254.585L161.996 254.578Z" fill="#1C2D5E"/>
<path opacity="0.2" d="M171.53 315.702C170.473 315.955 169.368 315.93 168.323 315.63C168.122 318.01 167.928 320.549 167.755 323.259C163.477 325.553 144.401 318.816 127.669 312.093C123.98 310.612 120.407 309.123 117.135 307.735C115.97 307.254 114.856 306.772 113.785 306.297C111.563 305.348 109.535 304.464 107.766 303.687C106.328 303.062 105.063 302.501 104.013 302.026C101.82 301.056 100.562 300.48 100.562 300.48L103.963 300.703L130.818 302.443L137.757 302.896L139.152 302.976L147.744 303.529L153.612 303.903H153.914L159.608 304.27L164.246 304.565L169.423 304.895L171.501 305.032C171.501 305.032 171.616 306.47 171.652 308.879V308.965C171.702 310.755 171.681 313.049 171.53 315.702Z" fill="#1C2D5E"/>
<path d="M182.589 276.595C181.525 287.84 179.957 298.949 178.663 306.24C177.764 311.317 174.895 314.869 171.53 315.717C170.473 315.97 169.368 315.945 168.323 315.645C168.165 315.602 168.014 315.552 167.856 315.494L142.114 308.858L141.892 308.793L139.138 308.074L139.181 302.969V302.559V300.538L139.238 294.161L142.718 294.347L159.724 295.253C160.068 295.35 160.43 295.365 160.781 295.297C162.255 295.016 163.477 293.29 163.657 291.018L163.987 286.086L164.706 275.207L166.094 254.563L167.367 235.452C167.508 233.39 167.833 231.344 168.338 229.34C170.5 229.432 172.612 230.025 174.507 231.073C178.512 233.23 182.862 237.81 183.567 247.201C184.156 254.995 183.61 265.852 182.589 276.595Z" fill="#FFB573"/>
<path d="M151.707 310.708L113.929 303.417C112.899 303.093 111.807 303.021 110.744 303.208L100.102 305.034C98.9593 305.233 97.7848 305.134 96.6908 304.749C95.5969 304.364 94.62 303.705 93.8536 302.834L88.8204 297.125C88.2135 296.439 87.7512 295.638 87.4612 294.769C87.1712 293.9 87.0594 292.982 87.1326 292.069C87.2058 291.156 87.4624 290.267 87.8871 289.456C88.3117 288.644 88.8957 287.927 89.6041 287.346L91.4089 285.865C92.5812 284.902 94.0422 284.359 95.559 284.322C97.0758 284.286 98.5612 284.758 99.7784 285.664C101.008 286.578 102.511 287.05 104.042 287.001H104.668C106.089 286.957 107.489 287.36 108.669 288.153C109.849 288.947 110.751 290.09 111.247 291.423L111.837 292.998L142.633 294.177L151.707 310.708Z" fill="#FFB573"/>
<path opacity="0.1" d="M106.422 293.895C108.227 293.543 110.017 293.255 111.829 292.961L111.247 291.408C110.751 290.075 109.849 288.931 108.669 288.138C107.489 287.344 106.089 286.941 104.668 286.985H104.042C102.511 287.034 101.008 286.563 99.7783 285.648C98.5611 284.742 97.0757 284.27 95.5589 284.307C94.0421 284.343 92.5811 284.886 91.4088 285.849L89.604 287.331C88.4363 288.29 87.6205 289.61 87.2847 291.083C86.9489 292.556 87.1122 294.1 87.7489 295.47C91.1931 295.794 103.553 294.456 106.422 293.895Z" fill="#1C2D5E"/>
<path opacity="0.2" d="M163.549 302.962C162.281 303.5 160.977 303.945 159.644 304.292C157.135 305.011 153.676 305.917 149.643 306.924C147.241 307.521 144.609 308.146 141.906 308.794C137.39 309.872 132.559 311.001 127.712 312.101C115.064 314.977 102.546 317.731 96.7364 319.004C96.9018 316.681 97.0671 314.409 97.2038 312.166C96.1899 312.317 95.2408 312.41 94.3276 312.453V312.281L94.5505 310.692L97.2829 310.073L104.236 308.492L113.777 306.334L120.766 304.745L130.833 302.452L139.188 300.553L145.35 299.151L149.981 298.102C149.981 298.102 158.415 298.979 162.47 300.395C164.613 301.114 165.512 301.984 163.549 302.962Z" fill="#1C2D5E"/>
<path d="M84.1968 292.666L142.172 291.594C143.246 291.503 144.283 291.161 145.199 290.595L154.389 284.907C155.373 284.296 156.499 283.947 157.657 283.894C158.815 283.841 159.967 284.086 161.004 284.605L167.806 288.006C168.623 288.416 169.349 288.986 169.941 289.682C170.534 290.378 170.981 291.186 171.255 292.057C171.529 292.929 171.625 293.847 171.538 294.757C171.451 295.667 171.182 296.55 170.747 297.354L169.646 299.424C168.919 300.756 167.768 301.806 166.375 302.408C164.982 303.01 163.428 303.129 161.96 302.746C160.479 302.358 151.175 303.875 149.176 301.725L148.025 300.503L101.899 311.36C98.6294 312.131 95.2674 312.438 91.912 312.274L84.1968 292.666Z" fill="#FFB573"/>
<path d="M197.976 273.307C196.399 274.442 194.58 275.198 192.663 275.515C180.166 277.586 172.249 276.536 162.176 274.796C160.4 258.078 160.845 245.136 164.052 235.788C165.124 232.682 168.187 228.159 171.466 228.296C185.393 228.878 187.766 242.885 189.355 249.349C191.329 257.631 194.221 265.667 197.976 273.307Z" fill="#FF5C8A"/>
<path d="M197.976 273.307C196.399 274.442 194.58 275.198 192.663 275.515C180.166 277.586 172.249 276.536 162.176 274.796C160.4 258.078 160.845 245.136 164.052 235.788C165.124 232.682 168.187 228.159 171.466 228.296C185.393 228.878 187.766 242.885 189.355 249.349C191.329 257.631 194.221 265.667 197.976 273.307Z" fill="#1C2D5E"/>
<path d="M138.447 177.39C140.166 172.961 142.682 170.739 141.194 171.041C137.167 171.868 134.521 168.381 131.638 170.559C130.265 172.307 132.077 175.362 132.141 175.19C130.703 175.974 128.798 175.499 127.525 174.471C126.253 173.443 125.735 171.508 125.059 169.998C124.689 171.704 124.811 173.479 125.411 175.118C124.383 176.031 122.111 174.507 121.097 173.615C120.049 172.568 119.249 171.301 118.753 169.905C118.451 171.429 118.214 172.99 119.371 174.758C117.854 174.909 115.848 174.528 114.798 173.421C114.249 172.843 113.83 172.153 113.572 171.399C113.314 170.644 113.222 169.843 113.303 169.049C112.994 169.84 113.087 173.04 113.792 173.515C111.146 172.795 108.608 169.589 108.615 166.842C108.674 165.465 109.062 164.123 109.746 162.927C110.43 161.731 111.391 160.716 112.548 159.968C113.67 159.249 114.935 158.688 116.143 158.027C117.969 157.013 129.452 147.442 147.378 156.926C158.508 162.808 156.977 175.621 155.747 177.059C154.223 178.835 151.728 179.526 149.391 179.396C147.054 179.267 138.009 178.562 138.447 177.39Z" fill="#263238"/>
<path d="M140.835 171.006C139.672 172.257 138.804 173.752 138.294 175.382C137.783 177.012 137.644 178.735 137.887 180.425C138.397 183.791 143.172 189.27 142.92 188.932C142.729 188.578 142.661 188.171 142.726 187.774C142.835 186.252 143.222 184.763 143.869 183.381C144.272 185.265 144.883 189.133 146.81 189.183C147.572 187.796 148.507 186.53 148.378 184.948C148.823 186.566 149.226 188.191 149.672 189.809C151.569 188.577 153.077 186.832 154.019 184.775C154.961 182.719 155.299 180.437 154.993 178.196C154.821 177.154 154.448 176.155 153.893 175.256C153.198 174.27 152.36 173.395 151.405 172.66C148.974 170.596 145.753 168.54 142.776 169.784C142.402 169.949 140.72 170.56 140.835 171.006Z" fill="#263238"/>
<path d="M128.856 181.935C128.856 183.057 128.259 183.956 127.54 183.977C126.821 183.999 126.231 183.107 126.174 181.957C126.116 180.806 126.771 179.936 127.497 179.922C128.223 179.908 128.863 180.828 128.856 181.935Z" fill="#263238"/>
<path d="M18.154 285.696C18.5025 284.074 18.7427 282.431 18.873 280.777C19.592 275.219 22.8564 270.92 27.0052 270.078L30.0036 269.46C30.0036 269.46 25.3011 269.46 23.3382 268.087C19.1822 265.21 18.2259 256.582 18.2259 256.582C18.2259 256.582 17.061 265.21 12.8978 268.087C10.9349 269.46 6.23242 269.46 6.23242 269.46L9.23078 270.078C13.3868 270.92 16.6799 275.219 17.3702 280.777C17.5241 282.432 17.7859 284.075 18.154 285.696Z" fill="#FF5C8A"/>
<g opacity="0.7">
<path opacity="0.7" d="M18.154 285.696C18.5025 284.074 18.7427 282.431 18.873 280.777C19.592 275.219 22.8564 270.92 27.0052 270.078L30.0036 269.46C30.0036 269.46 25.3011 269.46 23.3382 268.087C19.1822 265.21 18.2259 256.582 18.2259 256.582C18.2259 256.582 17.061 265.21 12.8978 268.087C10.9349 269.46 6.23242 269.46 6.23242 269.46L9.23078 270.078C13.3868 270.92 16.6799 275.219 17.3702 280.777C17.5241 282.432 17.7859 284.075 18.154 285.696Z" fill="white"/>
</g>
<path d="M223.574 223.355C223.885 221.957 224.101 220.54 224.221 219.113C224.818 214.324 227.658 210.621 231.239 209.888L233.82 209.363C233.82 209.363 229.765 209.363 228.068 208.177C224.473 205.667 223.66 198.254 223.66 198.254C223.66 198.254 222.654 205.667 219.073 208.177C217.383 209.363 213.321 209.363 213.321 209.363L215.909 209.888C219.504 210.607 222.33 214.324 222.92 219.113C223.047 220.54 223.265 221.957 223.574 223.355Z" fill="#FF5C8A"/>
<g opacity="0.7">
<path opacity="0.7" d="M223.574 223.355C223.884 221.957 224.101 220.54 224.221 219.113C224.818 214.324 227.658 210.621 231.239 209.888L233.82 209.363C233.82 209.363 229.765 209.363 228.068 208.177C224.472 205.667 223.66 198.254 223.66 198.254C223.66 198.254 222.653 205.667 219.073 208.177C217.383 209.363 213.32 209.363 213.32 209.363L215.909 209.888C219.504 210.607 222.33 214.324 222.919 219.113C223.046 220.54 223.265 221.957 223.574 223.355Z" fill="white"/>
</g>
<path d="M79.5089 147.103C79.6527 147.045 80.041 144.227 80.4581 140.876C81.3281 133.837 85.4913 128.394 90.7618 127.322L94.5583 126.546C94.5583 126.546 88.5975 126.546 86.1168 124.806C80.8463 121.124 79.6455 110.238 79.6455 110.238C79.6455 110.238 78.2075 121.124 72.9082 124.806C70.4204 126.546 64.4668 126.546 64.4668 126.546L68.2633 127.322C73.5194 128.394 77.6898 133.837 78.5598 140.876C78.9769 144.256 79.3579 147.045 79.5089 147.103Z" fill="#FF5C8A"/>
<g opacity="0.7">
<path opacity="0.7" d="M79.5094 147.103C79.6532 147.045 80.0415 144.227 80.4585 140.876C81.3286 133.837 85.4918 128.394 90.7623 127.322L94.5587 126.546C94.5587 126.546 88.598 126.546 86.1173 124.806C80.8468 121.124 79.646 110.238 79.646 110.238C79.646 110.238 78.208 121.124 72.9087 124.806C70.4209 126.546 64.4673 126.546 64.4673 126.546L68.2638 127.322C73.5199 128.394 77.6903 133.837 78.5603 140.876C78.9773 144.256 79.3584 147.045 79.5094 147.103Z" fill="white"/>
</g>
<path d="M244.67 302.888C244.821 302.83 245.21 300.011 245.627 296.661C246.497 289.621 250.66 284.178 255.93 283.107L259.727 282.33C259.727 282.33 253.766 282.33 251.278 280.59C246.015 276.902 244.807 266.016 244.807 266.016C244.807 266.016 243.369 276.902 238.063 280.59C235.582 282.33 229.621 282.33 229.621 282.33L233.418 283.107C238.681 284.178 242.851 289.621 243.721 296.661C244.138 300.04 244.527 302.83 244.67 302.888Z" fill="#FF5C8A"/>
<g opacity="0.7">
<path opacity="0.7" d="M244.671 302.888C244.822 302.83 245.21 300.011 245.627 296.661C246.497 289.621 250.66 284.178 255.931 283.107L259.727 282.33C259.727 282.33 253.767 282.33 251.279 280.59C246.015 276.902 244.808 266.016 244.808 266.016C244.808 266.016 243.369 276.902 238.063 280.59C235.582 282.33 229.622 282.33 229.622 282.33L233.418 283.107C238.681 284.178 242.852 289.621 243.722 296.661C244.139 300.04 244.527 302.83 244.671 302.888Z" fill="white"/>
</g>
<path d="M184.143 148.786C184.373 147.748 184.534 146.696 184.624 145.636C185.063 142.084 187.17 139.33 189.83 138.784L191.75 138.396C191.75 138.396 188.737 138.396 187.486 137.519C184.818 135.656 184.207 130.148 184.207 130.148C184.207 130.148 183.488 135.656 180.806 137.519C179.548 138.396 176.535 138.396 176.535 138.396L178.455 138.784C181.115 139.33 183.222 142.084 183.661 145.636C183.755 146.695 183.916 147.747 184.143 148.786Z" fill="#FF5C8A"/>
<g opacity="0.7">
<path opacity="0.7" d="M184.143 148.786C184.373 147.748 184.534 146.696 184.624 145.636C185.063 142.084 187.17 139.33 189.83 138.784L191.75 138.396C191.75 138.396 188.737 138.396 187.486 137.519C184.818 135.656 184.207 130.148 184.207 130.148C184.207 130.148 183.488 135.656 180.806 137.519C179.548 138.396 176.535 138.396 176.535 138.396L178.455 138.784C181.115 139.33 183.222 142.084 183.661 145.636C183.755 146.695 183.916 147.747 184.143 148.786Z" fill="white"/>
</g>
<path d="M19.4848 193.029C19.7193 191.991 19.8803 190.939 19.9665 189.879C20.4052 186.327 22.5191 183.573 25.1723 183.027L27.0921 182.639C27.0921 182.639 24.0794 182.639 22.8283 181.761C20.1679 179.899 19.5567 174.398 19.5567 174.398C19.5567 174.398 18.8377 179.899 16.1485 181.761C14.8902 182.639 11.8774 182.639 11.8774 182.639L13.7973 183.027C16.4577 183.573 18.5644 186.327 19.003 189.879C19.0976 190.938 19.2585 191.99 19.4848 193.029Z" fill="#FF5C8A"/>
<g opacity="0.7">
<path opacity="0.7" d="M19.4838 193.029C19.7183 191.991 19.8793 190.939 19.9656 189.879C20.4042 186.327 22.5181 183.573 25.1714 183.027L27.0912 182.639C27.0912 182.639 24.0784 182.639 22.8273 181.761C20.1669 179.899 19.5557 174.398 19.5557 174.398C19.5557 174.398 18.8367 179.899 16.1475 181.761C14.8892 182.639 11.8765 182.639 11.8765 182.639L13.7963 183.027C16.4567 183.573 18.5635 186.327 19.0021 189.879C19.0966 190.938 19.2576 191.99 19.4838 193.029Z" fill="white"/>
</g>
</svg>