<svg width="221" height="219" viewBox="0 0 221 219" fill="none" xmlns="http://www.w3.org/2000/svg">
<path d="M127.325 205.7L122.182 204.176L124.333 191.853L129.483 193.37L127.325 205.7Z" fill="#FFB573"/>
<path d="M172.017 213.329H166.646L165.307 200.899H170.678L172.017 213.329Z" fill="#FFB573"/>
<path d="M166.203 212.71H172.75C172.856 212.707 172.96 212.742 173.043 212.809C173.127 212.875 173.184 212.969 173.206 213.073L174.267 217.846C174.293 217.962 174.292 218.082 174.265 218.198C174.237 218.314 174.184 218.422 174.108 218.514C174.032 218.606 173.937 218.679 173.829 218.729C173.721 218.779 173.602 218.803 173.483 218.8C171.346 218.764 169.836 218.643 167.186 218.643C165.555 218.643 160.633 218.814 158.382 218.814C156.131 218.814 155.832 216.585 156.751 216.385C160.889 215.481 164.009 214.248 165.334 213.037C165.573 212.824 165.883 212.707 166.203 212.71Z" fill="#263238"/>
<path d="M122.388 203.592L128.016 205.259C128.117 205.289 128.205 205.353 128.266 205.439C128.327 205.526 128.356 205.631 128.35 205.736L128.008 210.616C128.003 210.735 127.97 210.851 127.912 210.956C127.855 211.06 127.774 211.151 127.677 211.219C127.579 211.288 127.467 211.333 127.349 211.352C127.232 211.371 127.111 211.363 126.997 211.328C124.981 210.694 122.089 209.704 119.539 208.956C116.554 208.073 113.933 207.474 110.435 206.441C108.298 205.815 108.369 203.507 109.31 203.592C113.584 203.905 116.917 204.782 121.035 203.663C121.471 203.515 121.939 203.491 122.388 203.592Z" fill="#263238"/>
<path d="M159.793 49.4209C157.036 51.3798 154.272 53.1749 151.416 54.9272C148.559 56.6796 145.667 58.3251 142.654 59.8708L141.521 60.4478L141.208 60.6045L140.688 60.8467C140.335 60.9889 139.973 61.1079 139.605 61.2029C138.26 61.5348 136.854 61.5348 135.509 61.2029C133.479 60.6602 131.59 59.6886 129.967 58.3536C127.199 56.0978 124.824 53.3996 122.937 50.3683L126.049 47.811C128.337 49.836 130.818 51.6303 133.458 53.1678C134.491 53.7868 135.636 54.1981 136.827 54.3787C137.098 54.421 137.374 54.3761 137.618 54.2505C137.644 54.2356 137.669 54.2163 137.689 54.1935L137.725 54.1579L137.945 54.0226L138.964 53.3886C141.671 51.6861 144.378 49.9124 147.07 48.1173L155.163 42.7534L159.793 49.4209Z" fill="#FFB573"/>
<path d="M144.385 47.8182L150.226 60.4265C176.077 51.8785 168.113 32.0115 144.385 47.8182Z" fill="#1C2D5E"/>
<path opacity="0.2" d="M158.112 48.4595C154.795 51.686 152.36 55.7078 151.038 60.1418C156.295 58.3182 160.07 56.0102 162.549 53.6666L158.112 48.4595Z" fill="black"/>
<path d="M126.626 48.9937L124.724 43.5942L120.18 47.8682C120.504 48.6122 120.98 49.2797 121.579 49.8271C122.178 50.3744 122.886 50.7895 123.656 51.0453L126.626 48.9937Z" fill="#FFB573"/>
<path d="M121.648 42.1479L118.107 46.0729L120.18 47.8609L124.725 43.594L121.648 42.1479Z" fill="#FFB573"/>
<path opacity="0.2" d="M124.333 191.853L123.222 198.207L128.372 199.731L129.483 193.377L124.333 191.853Z" fill="black"/>
<path opacity="0.2" d="M170.678 200.899H165.307L165.998 207.31H171.369L170.678 200.899Z" fill="black"/>
<path d="M184.312 46.5151C184.704 46.6569 185.064 46.8755 185.37 47.1583C185.677 47.441 185.924 47.7821 186.098 48.1616C186.271 48.5411 186.366 48.9513 186.379 49.3682C186.391 49.7852 186.321 50.2004 186.171 50.5896C184.423 55.2253 182.946 59.9584 181.747 64.7651C180.728 68.8325 179.931 72.7361 179.29 76.2836C177.794 84.6036 177.153 91.0075 176.654 93.1374L148.467 87.5741C153.731 45.6959 157.763 42.0986 157.763 42.0986C160.064 41.9548 162.371 41.9548 164.672 42.0986C165.147 42.1271 165.639 42.1698 166.147 42.2268C170.183 42.7803 174.184 43.5676 178.128 44.5846C178.841 44.7698 179.631 44.9764 180.365 45.1972C181.811 45.646 183.179 46.109 184.312 46.5151Z" fill="#1C2D5E"/>
<path opacity="0.2" d="M179.197 54.436C178.599 58.7901 179.285 63.224 181.17 67.194C181.348 66.389 181.548 65.5841 181.747 64.772C182.517 61.7161 183.414 58.5676 184.468 55.4048L179.197 54.436Z" fill="black"/>
<path d="M179.617 30.8931L171.019 35.7227C171.183 38.8641 170.663 42.0696 166.161 42.2477C165.171 43.3874 164.181 46.0729 167.429 48.4593L166.717 50.6746C173.128 50.2045 176.782 46.7069 178.114 44.6127C175.949 41.5069 178.1 34.5972 179.617 30.8931Z" fill="#FFB573"/>
<path d="M158.439 89.7109C158.393 89.7038 158.352 89.679 158.324 89.6417C158.296 89.6044 158.284 89.5577 158.29 89.5114C161.374 65.634 167.194 48.5522 167.251 48.3812C167.268 48.3377 167.301 48.302 167.343 48.281C167.385 48.26 167.433 48.2551 167.479 48.2672C167.523 48.2834 167.56 48.3161 167.581 48.3585C167.602 48.4009 167.607 48.4498 167.593 48.4952C167.529 48.6661 161.723 65.7194 158.639 89.5542C158.637 89.578 158.63 89.6013 158.619 89.6224C158.608 89.6435 158.593 89.6621 158.574 89.6768C158.555 89.6916 158.533 89.7023 158.51 89.7081C158.487 89.714 158.463 89.7149 158.439 89.7109Z" fill="white"/>
<path d="M163.248 50.5322C164.563 49.6917 165.965 48.9967 167.429 48.4593C166.66 47.6401 166.19 43.7935 166.781 42.0127H165.357C165.357 42.0127 162.094 43.1738 163.248 50.5322Z" fill="white"/>
<path d="M172.408 52.8189C171.926 51.6257 171.125 50.5882 170.093 49.82C172.408 49.1076 176.368 47.1273 177.715 43.6084C178.263 44.0572 179.139 44.684 179.139 44.684C179.139 44.684 180.521 49.9696 172.408 52.8189Z" fill="white"/>
<path d="M168.248 52.3772C168.155 52.8188 167.863 53.175 167.6 53.175C167.336 53.175 167.187 52.8117 167.272 52.3701C167.358 51.9284 167.65 51.5723 167.92 51.5723C168.191 51.5723 168.334 51.9569 168.248 52.3772Z" fill="white"/>
<path opacity="0.2" d="M176.112 32.8667L171.026 35.716C171.074 36.4498 171.058 37.1863 170.977 37.9172C172.665 38.0026 175.251 36.6492 175.792 34.961C176.023 34.2877 176.132 33.5784 176.112 32.8667Z" fill="black"/>
<path d="M170.991 14.823C167.315 15.7134 165.563 23.2428 170.165 25.793C179.147 23.7699 181.355 12.3084 170.991 14.823Z" fill="#263238"/>
<path d="M182.488 24.8387C180.971 29.9461 180.351 33.0091 177.11 35.0678C172.252 38.1593 166.425 34.3056 166.361 28.8491C166.325 23.934 168.811 16.4046 174.36 15.5142C175.583 15.3133 176.837 15.4281 178.003 15.8478C179.168 16.2674 180.208 16.978 181.022 17.912C181.836 18.8461 182.398 19.9727 182.655 21.1849C182.911 22.3971 182.854 23.6548 182.488 24.8387Z" fill="#FFB573"/>
<path d="M183.507 17.765C178.285 16.5042 176.718 27.4813 181.313 30.0314C191.919 27.6308 189.006 19.0686 183.507 17.765Z" fill="#263238"/>
<path d="M182.246 14.6733C176.511 13.6048 172.985 8.97461 172.985 8.97461C172.985 8.97461 168.191 12.6787 169.559 15.5566C170.927 18.4344 177.352 21.6755 180.436 21.7966C180.436 21.7966 179.012 28.5781 185.116 24.76C193.301 19.6668 187.645 15.6848 182.246 14.6733Z" fill="#263238"/>
<path d="M187.082 21.7252C188.529 22.5162 189.648 23.7964 190.238 25.3368C190.686 21.3263 187.908 21.6184 187.082 21.7252Z" fill="#263238"/>
<path d="M173.683 18.4774C171.083 17.6781 168.855 15.9751 167.4 13.6763C167.985 20.2654 172.387 18.8977 173.683 18.4774Z" fill="#263238"/>
<path d="M171.133 29.7391C171.741 29.8914 172.377 29.8966 172.988 29.7541C173.599 29.6117 174.167 29.3257 174.645 28.9199C174.669 28.8937 174.682 28.8594 174.682 28.8238C174.682 28.7882 174.669 28.7539 174.645 28.7276C174.632 28.7149 174.617 28.7048 174.601 28.6979C174.584 28.6911 174.567 28.6875 174.549 28.6875C174.531 28.6875 174.513 28.6911 174.497 28.6979C174.48 28.7048 174.465 28.7149 174.453 28.7276C174.007 29.099 173.48 29.3602 172.914 29.4902C172.349 29.6201 171.76 29.6151 171.197 29.4756C171.165 29.4751 171.133 29.4857 171.108 29.5056C171.082 29.5256 171.064 29.5536 171.057 29.5852C171.049 29.6167 171.053 29.6499 171.067 29.6792C171.08 29.7085 171.104 29.7321 171.133 29.7463V29.7391Z" fill="#263238"/>
<path d="M182.958 30.1307C182.172 30.9871 181.09 31.5139 179.931 31.6052C178.471 31.6836 178.236 30.1806 179.055 28.9055C179.767 27.7373 181.448 26.2983 182.716 26.8326C183.984 27.3668 183.97 29.0408 182.958 30.1307Z" fill="#FFB573"/>
<path d="M121.641 196.447L130.367 199.026C130.367 199.026 139.093 169.321 144.514 150.907C145.938 146.028 148.147 139.161 150.761 131.881C154.059 122.706 157.991 112.833 161.168 105.111C164.509 96.9766 167.002 91.2351 167.002 91.2351L148.467 87.5737C148.467 87.5737 132.91 130.1 129.469 146.128C125.908 162.803 121.641 196.447 121.641 196.447Z" fill="#FF5C8A"/>
<path opacity="0.2" d="M150.761 131.881C154.059 122.706 157.991 112.833 161.168 105.112L159.743 100.688C154.422 105.617 151.031 122.478 150.761 131.881Z" fill="black"/>
<path d="M158.439 89.5537C158.439 89.5537 154.713 135.563 154.699 151.299C154.699 168.523 163.489 206.07 163.489 206.07H173.327C173.327 206.07 169.48 172.847 169.402 155.95C169.316 136.817 176.625 93.1439 176.625 93.1439L158.439 89.5537Z" fill="#FF5C8A"/>
<path d="M162.343 206.277H173.926V202.822L160.976 202.594L162.343 206.277Z" fill="#263238"/>
<path d="M121.034 196.489L130.879 199.403L132.367 196.019L121.148 192.686L121.034 196.489Z" fill="#263238"/>
<path d="M174.289 24.468C174.196 24.8883 173.89 25.1804 173.612 25.1162C173.334 25.0521 173.192 24.6603 173.292 24.2401C173.391 23.8198 173.69 23.5277 173.968 23.5918C174.246 23.6559 174.389 24.0477 174.289 24.468Z" fill="#263238"/>
<path d="M169.523 23.364C169.423 23.7914 169.124 24.0763 168.846 24.0122C168.569 23.9481 168.426 23.5563 168.526 23.136C168.626 22.7158 168.925 22.4237 169.196 22.4878C169.466 22.5519 169.616 22.9437 169.523 23.364Z" fill="#263238"/>
<path d="M170.991 23.9268C170.19 25.0997 169.231 26.1568 168.142 27.0682C168.726 27.9372 170.15 27.8232 170.15 27.8232L170.991 23.9268Z" fill="#ED893E"/>
<path d="M176.127 23.271C176.08 23.2673 176.035 23.2515 175.997 23.2253C175.958 23.1991 175.927 23.1633 175.906 23.1214C175.783 22.8215 175.589 22.5559 175.341 22.3475C175.093 22.139 174.798 21.9939 174.481 21.9247C174.415 21.9125 174.357 21.8752 174.319 21.8207C174.28 21.7661 174.264 21.6986 174.275 21.6326C174.285 21.5656 174.322 21.5056 174.376 21.4655C174.431 21.4254 174.5 21.4087 174.567 21.419C174.96 21.508 175.327 21.6894 175.637 21.9483C175.947 22.2072 176.19 22.5361 176.348 22.9077C176.374 22.9703 176.376 23.0408 176.352 23.1045C176.328 23.1682 176.281 23.2202 176.219 23.2497C176.189 23.2608 176.158 23.268 176.127 23.271Z" fill="#263238"/>
<path d="M167.856 21.2483C167.803 21.2447 167.751 21.2276 167.706 21.1985C167.655 21.1542 167.622 21.0917 167.616 21.024C167.609 20.9563 167.629 20.8886 167.671 20.8352C167.921 20.5104 168.246 20.2513 168.618 20.0801C168.99 19.9088 169.399 19.8306 169.808 19.8521C169.844 19.8508 169.881 19.8573 169.915 19.8712C169.948 19.8851 169.979 19.9061 170.004 19.9327C170.029 19.9594 170.048 19.9911 170.06 20.0257C170.072 20.0604 170.076 20.0971 170.072 20.1336C170.069 20.17 170.058 20.2052 170.039 20.2369C170.021 20.2685 169.996 20.2959 169.966 20.3172C169.936 20.3384 169.902 20.3531 169.866 20.3601C169.831 20.3671 169.794 20.3664 169.758 20.3579C169.439 20.3506 169.123 20.4192 168.836 20.5578C168.548 20.6965 168.298 20.9014 168.105 21.1557C168.076 21.1925 168.038 21.2205 167.994 21.2369C167.95 21.2532 167.902 21.2571 167.856 21.2483Z" fill="#263238"/>
<path d="M164.43 213.657C164.064 213.686 163.699 213.587 163.397 213.379C163.301 213.298 163.226 213.195 163.18 213.078C163.134 212.961 163.118 212.834 163.134 212.71C163.133 212.636 163.153 212.563 163.191 212.499C163.228 212.435 163.282 212.382 163.347 212.346C163.946 212.04 165.677 213.109 165.869 213.23C165.891 213.243 165.908 213.262 165.918 213.285C165.928 213.308 165.931 213.333 165.926 213.358C165.923 213.383 165.912 213.406 165.896 213.425C165.879 213.444 165.857 213.458 165.833 213.465C165.374 213.58 164.903 213.644 164.43 213.657ZM163.632 212.546C163.578 212.533 163.522 212.533 163.468 212.546C163.441 212.56 163.418 212.581 163.403 212.608C163.388 212.634 163.381 212.665 163.383 212.695C163.373 212.781 163.385 212.868 163.416 212.949C163.447 213.029 163.496 213.101 163.561 213.159C164.16 213.429 164.84 213.463 165.463 213.251C164.904 212.898 164.283 212.656 163.632 212.539V212.546Z" fill="#FF5C8A"/>
<path d="M165.805 213.458H165.741C165.185 213.159 164.109 211.976 164.223 211.378C164.244 211.285 164.296 211.203 164.369 211.143C164.443 211.084 164.535 211.051 164.629 211.05C164.726 211.036 164.825 211.043 164.918 211.071C165.012 211.1 165.098 211.148 165.171 211.214C165.798 211.72 165.926 213.273 165.933 213.351C165.934 213.368 165.931 213.386 165.925 213.402C165.919 213.419 165.91 213.434 165.898 213.446C165.886 213.459 165.871 213.469 165.855 213.476C165.839 213.483 165.822 213.486 165.805 213.486V213.458ZM164.722 211.278H164.665C164.494 211.278 164.48 211.371 164.48 211.406C164.408 211.762 165.092 212.646 165.648 213.066C165.608 212.455 165.387 211.87 165.014 211.385C164.931 211.318 164.828 211.281 164.722 211.278Z" fill="#FF5C8A"/>
<path d="M121.676 204.155C120.799 204.076 119.261 203.841 118.826 203.172C118.765 203.075 118.727 202.965 118.718 202.851C118.708 202.737 118.725 202.622 118.769 202.516C118.792 202.45 118.831 202.391 118.883 202.344C118.936 202.298 119 202.266 119.068 202.253C119.781 202.096 121.554 203.749 121.754 203.934C121.769 203.956 121.776 203.982 121.776 204.009C121.776 204.035 121.769 204.061 121.754 204.083C121.748 204.101 121.737 204.116 121.723 204.129C121.71 204.141 121.693 204.15 121.676 204.155ZM119.161 202.495H119.125C119.099 202.501 119.074 202.514 119.054 202.533C119.034 202.552 119.019 202.575 119.011 202.602C118.975 202.67 118.955 202.745 118.955 202.823C118.955 202.9 118.975 202.976 119.011 203.043C119.246 203.414 120.08 203.713 121.269 203.863C120.593 203.221 119.581 202.452 119.161 202.495Z" fill="#FF5C8A"/>
<path d="M121.675 204.155C121.646 204.167 121.612 204.167 121.583 204.155C121.048 203.692 120.158 202.217 120.407 201.661C120.471 201.526 120.621 201.391 120.963 201.455C121.088 201.476 121.207 201.523 121.312 201.593C121.418 201.663 121.508 201.754 121.576 201.861C122.074 202.573 121.804 203.998 121.789 204.083C121.786 204.105 121.777 204.125 121.763 204.141C121.75 204.157 121.731 204.17 121.711 204.176L121.675 204.155ZM120.771 201.661C120.743 201.662 120.716 201.669 120.693 201.683C120.669 201.696 120.649 201.716 120.635 201.74C120.479 202.075 121.056 203.164 121.576 203.763C121.695 203.16 121.623 202.535 121.369 201.975C121.264 201.82 121.103 201.713 120.92 201.676C120.871 201.665 120.821 201.66 120.771 201.661Z" fill="#FF5C8A"/>
<path d="M185.508 47.9678C185.921 48.3809 186.221 48.6801 186.534 49.0292C186.847 49.3782 187.154 49.7415 187.453 50.0692C188.051 50.7815 188.635 51.4938 189.198 52.2062C190.323 53.6579 191.367 55.1703 192.325 56.7366C193.299 58.3286 194.167 59.9823 194.925 61.6874C195.71 63.4365 196.335 65.2532 196.792 67.1153L196.963 67.8277L197.126 68.6611C197.198 69.2096 197.269 69.7581 197.29 70.2924C197.338 71.3265 197.302 72.3627 197.183 73.391C196.956 75.2982 196.523 77.1753 195.894 78.99C194.692 82.4382 193.014 85.7014 190.908 88.6849L187.346 86.7402L188.115 84.4465C188.372 83.67 188.586 82.8793 188.828 82.1029C189.26 80.5664 189.614 79.0092 189.889 77.4371C190.157 75.9633 190.292 74.4686 190.295 72.9707C190.295 72.2975 190.237 71.6256 190.124 70.962C190.079 70.6573 190.017 70.3553 189.939 70.0573L189.818 69.6441L189.647 69.1384C188.612 66.2803 187.222 63.5639 185.508 61.0534C184.639 59.7569 183.706 58.4818 182.73 57.2424C182.255 56.6155 181.757 56.0029 181.234 55.4046L180.522 54.5213L179.81 53.7163L185.508 47.9678Z" fill="#FFB573"/>
<path d="M177.537 55.7395C179.211 60.4623 181.163 64.0525 183.912 66.6952L194.22 56.8721C184.795 38.4725 174.979 48.5378 177.537 55.7395Z" fill="#1C2D5E"/>
<path d="M188.037 85.8926L184.013 89.5682L190.324 92.2466C190.324 92.2466 193.059 88.3573 191.157 86.6762L188.037 85.8926Z" fill="#FFB573"/>
<path d="M183.235 93.9848L188.556 95.9509L190.323 92.2467L184.012 89.5684L183.235 93.9848Z" fill="#FFB573"/>
<path d="M90.3615 27.0825L42.3287 38.8788L39.5933 33.0661C39.479 32.8206 39.283 32.6224 39.0387 32.5055C38.7944 32.3886 38.5171 32.3601 38.2541 32.4251L12.4106 38.7791C12.1472 38.8433 11.9143 38.997 11.7519 39.2141C11.5894 39.4311 11.5075 39.6979 11.5202 39.9687L11.7909 46.3797L1.38366 48.937C0.916294 49.0516 0.513522 49.3471 0.263775 49.7584C0.014028 50.1698 -0.0622796 50.6634 0.0515996 51.131L13.8353 107.135C13.9499 107.602 14.2454 108.005 14.6567 108.255C15.0681 108.504 15.5617 108.581 16.0293 108.467L105.014 86.5981C105.246 86.5422 105.465 86.441 105.657 86.3003C105.85 86.1596 106.013 85.9822 106.137 85.7782C106.26 85.5743 106.343 85.348 106.379 85.1121C106.415 84.8763 106.404 84.6357 106.346 84.4042L92.584 28.4075C92.5284 28.1727 92.4262 27.9514 92.2834 27.7568C92.1407 27.5622 91.9604 27.3983 91.7531 27.2747C91.5458 27.1511 91.3158 27.0705 91.0768 27.0375C90.8377 27.0044 90.5945 27.0198 90.3615 27.0825Z" fill="#FF5C8A"/>
<path opacity="0.3" d="M90.3615 27.0825L42.3287 38.8788L39.5933 33.0661C39.479 32.8206 39.283 32.6224 39.0387 32.5055C38.7944 32.3886 38.5171 32.3601 38.2541 32.4251L12.4106 38.7791C12.1472 38.8433 11.9143 38.997 11.7519 39.2141C11.5894 39.4311 11.5075 39.6979 11.5202 39.9687L11.7909 46.3797L1.38366 48.937C0.916294 49.0516 0.513522 49.3471 0.263775 49.7584C0.014028 50.1698 -0.0622796 50.6634 0.0515996 51.131L13.8353 107.135C13.9499 107.602 14.2454 108.005 14.6567 108.255C15.0681 108.504 15.5617 108.581 16.0293 108.467L105.014 86.5981C105.246 86.5422 105.465 86.441 105.657 86.3003C105.85 86.1596 106.013 85.9822 106.137 85.7782C106.26 85.5743 106.343 85.348 106.379 85.1121C106.415 84.8763 106.404 84.6357 106.346 84.4042L92.584 28.4075C92.5284 28.1727 92.4262 27.9514 92.2834 27.7568C92.1407 27.5622 91.9604 27.3983 91.7531 27.2747C91.5458 27.1511 91.3158 27.0705 91.0768 27.0375C90.8377 27.0044 90.5945 27.0198 90.3615 27.0825Z" fill="white"/>
<path d="M36.6146 35.039L15.1152 40.3237L15.8175 43.1806L37.3169 37.8959L36.6146 35.039Z" fill="white"/>
<path d="M126.092 47.1492L73.5003 49.8205L71.9118 43.5947C71.8447 43.332 71.689 43.1006 71.4709 42.9397C71.2528 42.7787 70.9858 42.698 70.7151 42.7114L44.1236 44.0648C43.8527 44.0782 43.5949 44.1848 43.3936 44.3665C43.1924 44.5483 43.0602 44.794 43.0195 45.0621L42.0721 51.4161L34.5925 51.8008C34.3542 51.8117 34.1204 51.8697 33.9046 51.9714C33.6887 52.073 33.4952 52.2163 33.3349 52.3931C33.1747 52.5699 33.051 52.7766 32.971 53.0014C32.891 53.2261 32.8562 53.4645 32.8687 53.7027L35.8035 111.288C35.8275 111.769 36.0412 112.22 36.3978 112.543C36.7544 112.867 37.2247 113.035 37.7054 113.012L129.233 108.36C129.714 108.336 130.166 108.122 130.489 107.766C130.812 107.409 130.98 106.939 130.957 106.458L128.022 48.866C128.011 48.6257 127.951 48.3902 127.847 48.1732C127.743 47.9563 127.597 47.7622 127.418 47.6023C127.238 47.4425 127.028 47.3201 126.8 47.2423C126.573 47.1645 126.332 47.1328 126.092 47.1492Z" fill="#FF5C8A"/>
<path opacity="0.2" d="M126.092 47.1492L73.5003 49.8205L71.9118 43.5947C71.8447 43.332 71.689 43.1006 71.4709 42.9397C71.2528 42.7787 70.9858 42.698 70.7151 42.7114L44.1236 44.0648C43.8527 44.0782 43.5949 44.1848 43.3936 44.3665C43.1924 44.5483 43.0602 44.794 43.0195 45.0621L42.0721 51.4161L34.5925 51.8008C34.3542 51.8117 34.1204 51.8697 33.9046 51.9714C33.6887 52.073 33.4952 52.2163 33.3349 52.3931C33.1747 52.5699 33.051 52.7766 32.971 53.0014C32.891 53.2261 32.8562 53.4645 32.8687 53.7027L35.8035 111.288C35.8275 111.769 36.0412 112.22 36.3978 112.543C36.7544 112.867 37.2247 113.035 37.7054 113.012L129.233 108.36C129.714 108.336 130.166 108.122 130.489 107.766C130.812 107.409 130.98 106.939 130.957 106.458L128.022 48.866C128.011 48.6257 127.951 48.3902 127.847 48.1732C127.743 47.9563 127.597 47.7622 127.418 47.6023C127.238 47.4425 127.028 47.3201 126.8 47.2423C126.573 47.1645 126.332 47.1328 126.092 47.1492Z" fill="white"/>
<path d="M68.5767 44.9883L46.4658 46.1123L46.6152 49.0504L68.726 47.9265L68.5767 44.9883Z" fill="white"/>
<path d="M92.8613 64.2877L38.5885 77.6012L35.8603 71.7886C35.7359 71.5468 35.5319 71.3553 35.2828 71.2463C35.0337 71.1373 34.7546 71.1175 34.4926 71.1902L8.63483 77.5442C8.37143 77.6084 8.13856 77.7622 7.97611 77.9792C7.81366 78.1963 7.73174 78.463 7.74441 78.7338L8.0151 85.1449L3.86218 86.1493C3.39481 86.2639 2.99204 86.5594 2.7423 86.9707C2.49255 87.3821 2.41623 87.8757 2.53011 88.3433L16.2924 144.34C16.4087 144.808 16.7055 145.211 17.118 145.46C17.5305 145.71 18.0251 145.786 18.4935 145.672L107.464 123.803C107.93 123.687 108.331 123.391 108.58 122.98C108.828 122.569 108.903 122.076 108.789 121.609L95.0411 65.6198C94.9246 65.1565 94.6311 64.7574 94.2234 64.5083C93.8158 64.2592 93.3267 64.18 92.8613 64.2877Z" fill="#FF5C8A"/>
<path opacity="0.1" d="M92.8613 64.2877L38.5885 77.6012L35.8603 71.7886C35.7359 71.5468 35.5319 71.3553 35.2828 71.2463C35.0337 71.1373 34.7546 71.1175 34.4926 71.1902L8.63483 77.5442C8.37143 77.6084 8.13856 77.7622 7.97611 77.9792C7.81366 78.1963 7.73174 78.463 7.74441 78.7338L8.0151 85.1449L3.86218 86.1493C3.39481 86.2639 2.99204 86.5594 2.7423 86.9707C2.49255 87.3821 2.41623 87.8757 2.53011 88.3433L16.2924 144.34C16.4087 144.808 16.7055 145.211 17.118 145.46C17.5305 145.71 18.0251 145.786 18.4935 145.672L107.464 123.803C107.93 123.687 108.331 123.391 108.58 122.98C108.828 122.569 108.903 122.076 108.789 121.609L95.0411 65.6198C94.9246 65.1565 94.6311 64.7574 94.2234 64.5083C93.8158 64.2592 93.3267 64.18 92.8613 64.2877Z" fill="white"/>
<path d="M32.8519 73.7953L11.3525 79.0801L12.0548 81.937L33.5542 76.6522L32.8519 73.7953Z" fill="white"/>
<path d="M94.1168 82.8914L5.15164 104.76C4.17744 104.999 3.58182 105.983 3.82129 106.957L17.584 162.947C17.8235 163.921 18.8074 164.517 19.7816 164.277L108.747 142.409C109.721 142.17 110.317 141.186 110.077 140.211L96.3143 84.2217C96.0748 83.2475 95.091 82.6519 94.1168 82.8914Z" fill="#FF5C8A"/>
<path d="M36.0034 98.8002L7.61684 105.774C7.45006 105.81 7.27735 105.81 7.11071 105.773C6.94408 105.736 6.78752 105.663 6.65194 105.559C6.51635 105.455 6.40498 105.323 6.32558 105.172C6.24618 105.021 6.20066 104.855 6.19217 104.684L5.91436 98.095C5.9017 97.8242 5.98361 97.5574 6.14606 97.3404C6.30852 97.1233 6.54139 96.9696 6.80478 96.9054L32.6625 90.5513C32.9265 90.4874 33.2043 90.5162 33.4495 90.6329C33.6947 90.7497 33.8922 90.9473 34.0089 91.1925L36.8155 97.1547C36.8887 97.3145 36.9254 97.4886 36.9228 97.6643C36.9203 97.84 36.8786 98.013 36.8009 98.1706C36.7231 98.3282 36.6111 98.4665 36.4732 98.5754C36.3353 98.6843 36.1748 98.7611 36.0034 98.8002Z" fill="#FF5C8A"/>
<path d="M30.9711 93.1664L9.47168 98.4512L10.1739 101.308L31.6733 96.0233L30.9711 93.1664Z" fill="white"/>
</svg>
