<svg width="245" height="206" viewBox="0 0 245 206" fill="none" xmlns="http://www.w3.org/2000/svg">
<path d="M122.662 205.974C190.178 205.974 244.911 202.778 244.911 198.837C244.911 194.895 190.178 191.699 122.662 191.699C55.1451 191.699 0.412109 194.895 0.412109 198.837C0.412109 202.778 55.1451 205.974 122.662 205.974Z" fill="#F5F5F5"/>
<path d="M176.046 65.2227H88.613C84.4343 65.2227 81.0469 68.6101 81.0469 72.7888V187.479C81.0469 191.657 84.4343 195.045 88.613 195.045H176.046C180.224 195.045 183.612 191.657 183.612 187.479V72.7888C183.612 68.6101 180.224 65.2227 176.046 65.2227Z" fill="#1C2D5E"/>
<path d="M181.935 65.2227H94.5017C90.323 65.2227 86.9355 68.6101 86.9355 72.7888V187.479C86.9355 191.657 90.323 195.045 94.5017 195.045H181.935C186.113 195.045 189.501 191.657 189.501 187.479V72.7888C189.501 68.6101 186.113 65.2227 181.935 65.2227Z" fill="#FF5C8A"/>
<path d="M104.856 195.051H96.344C96.0828 195.051 95.8711 195.262 95.8711 195.524V196.892C95.8711 197.153 96.0828 197.365 96.344 197.365H104.856C105.117 197.365 105.329 197.153 105.329 196.892V195.524C105.329 195.262 105.117 195.051 104.856 195.051Z" fill="#1C2D5E"/>
<path d="M180.088 195.051H171.576C171.315 195.051 171.104 195.262 171.104 195.524V196.892C171.104 197.153 171.315 197.365 171.576 197.365H180.088C180.349 197.365 180.561 197.153 180.561 196.892V195.524C180.561 195.262 180.349 195.051 180.088 195.051Z" fill="#1C2D5E"/>
<path opacity="0.2" d="M181.935 65.2227H94.5017C90.323 65.2227 86.9355 68.6101 86.9355 72.7888V187.479C86.9355 191.657 90.323 195.045 94.5017 195.045H181.935C186.113 195.045 189.501 191.657 189.501 187.479V72.7888C189.501 68.6101 186.113 65.2227 181.935 65.2227Z" fill="black"/>
<g style="mix-blend-mode:color-dodge" opacity="0.4">
<path d="M171.632 180.078H104.798C104.033 180.077 103.299 179.772 102.758 179.231C102.217 178.689 101.912 177.956 101.91 177.191V83.0933C101.91 82.3268 102.214 81.5917 102.756 81.0491C103.297 80.5065 104.031 80.2009 104.798 80.1992H171.632C172.398 80.2009 173.133 80.5065 173.674 81.0491C174.216 81.5917 174.52 82.3268 174.52 83.0933V177.191C174.518 177.956 174.213 178.689 173.672 179.231C173.131 179.772 172.397 180.077 171.632 180.078ZM104.798 80.5145C104.115 80.5161 103.461 80.7886 102.978 81.272C102.496 81.7554 102.225 82.4104 102.225 83.0933V177.191C102.225 177.528 102.292 177.863 102.421 178.175C102.551 178.487 102.74 178.771 102.979 179.01C103.218 179.248 103.501 179.438 103.813 179.567C104.126 179.697 104.46 179.763 104.798 179.763H171.632C172.314 179.763 172.969 179.492 173.451 179.01C173.933 178.527 174.204 177.873 174.204 177.191V83.0933C174.204 82.4104 173.934 81.7554 173.451 81.272C172.969 80.7886 172.315 80.5161 171.632 80.5145H104.798Z" fill="#E6E6E6"/>
</g>
<path d="M173.107 177.19V83.0863C173.107 82.2749 172.45 81.6172 171.638 81.6172H104.798C103.987 81.6172 103.329 82.2749 103.329 83.0863V177.19C103.329 178.001 103.987 178.659 104.798 178.659H171.638C172.45 178.659 173.107 178.001 173.107 177.19Z" fill="#FF5C8A"/>
<path opacity="0.1" d="M173.107 177.19V83.0863C173.107 82.2749 172.45 81.6172 171.638 81.6172H104.798C103.987 81.6172 103.329 82.2749 103.329 83.0863V177.19C103.329 178.001 103.987 178.659 104.798 178.659H171.638C172.45 178.659 173.107 178.001 173.107 177.19Z" fill="white"/>
<path d="M191.701 91.9883H191.07V97.3098H191.701V91.9883Z" fill="#FF5C8A"/>
<path d="M191.701 72.7891H191.07V86.3829H191.701V72.7891Z" fill="#FF5C8A"/>
<path opacity="0.1" d="M138.215 153.473C150.09 153.473 159.716 143.847 159.716 131.973C159.716 120.099 150.09 110.473 138.215 110.473C126.341 110.473 116.715 120.099 116.715 131.973C116.715 143.847 126.341 153.473 138.215 153.473Z" fill="black"/>
<path d="M138.215 100.047C141.116 100.047 143.467 97.6958 143.467 94.7951C143.467 91.8944 141.116 89.543 138.215 89.543C135.314 89.543 132.963 91.8944 132.963 94.7951C132.963 97.6958 135.314 100.047 138.215 100.047Z" fill="#FF5C8A"/>
<path opacity="0.6" d="M138.184 100.032C141.084 100.032 143.436 97.6802 143.436 94.7795C143.436 91.8788 141.084 89.5273 138.184 89.5273C135.283 89.5273 132.932 91.8788 132.932 94.7795C132.932 97.6802 135.283 100.032 138.184 100.032Z" fill="white"/>
<path d="M138.215 98.942C137.395 98.942 136.592 98.6987 135.91 98.2429C135.228 97.787 134.696 97.139 134.382 96.381C134.068 95.6229 133.986 94.7887 134.146 93.9839C134.306 93.1791 134.701 92.4399 135.282 91.8597C135.862 91.2795 136.601 90.8843 137.406 90.7242C138.211 90.5642 139.045 90.6463 139.803 90.9603C140.561 91.2744 141.209 91.8061 141.665 92.4884C142.121 93.1706 142.364 93.9727 142.364 94.7933C142.362 95.8931 141.925 96.9474 141.147 97.7251C140.369 98.5027 139.315 98.9404 138.215 98.942ZM138.215 90.9598C137.457 90.9598 136.716 91.1846 136.085 91.6059C135.455 92.0271 134.964 92.6258 134.673 93.3263C134.383 94.0268 134.307 94.7975 134.455 95.5412C134.603 96.2848 134.968 96.9679 135.504 97.504C136.041 98.0401 136.724 98.4052 137.467 98.5531C138.211 98.7011 138.982 98.6251 139.682 98.335C140.383 98.0448 140.981 97.5535 141.403 96.9231C141.824 96.2927 142.049 95.5515 142.049 94.7933C142.047 93.7771 141.643 92.803 140.924 92.0844C140.205 91.3659 139.231 90.9615 138.215 90.9598Z" fill="#FF5C8A"/>
<path d="M103.241 93.9727H100.902C100.387 93.9727 99.9688 94.3905 99.9688 94.9058V107.705C99.9688 108.221 100.387 108.638 100.902 108.638H103.241C103.756 108.638 104.174 108.221 104.174 107.705V94.9058C104.174 94.3905 103.756 93.9727 103.241 93.9727Z" fill="#FF5C8A"/>
<path opacity="0.6" d="M103.241 93.9727H100.902C100.387 93.9727 99.9688 94.3905 99.9688 94.9058V107.705C99.9688 108.221 100.387 108.638 100.902 108.638H103.241C103.756 108.638 104.174 108.221 104.174 107.705V94.9058C104.174 94.3905 103.756 93.9727 103.241 93.9727Z" fill="white"/>
<path d="M103.241 151.633H100.902C100.387 151.633 99.9688 152.051 99.9688 152.566V165.365C99.9688 165.881 100.387 166.298 100.902 166.298H103.241C103.756 166.298 104.174 165.881 104.174 165.365V152.566C104.174 152.051 103.756 151.633 103.241 151.633Z" fill="#FF5C8A"/>
<path opacity="0.6" d="M103.241 151.633H100.902C100.387 151.633 99.9688 152.051 99.9688 152.566V165.365C99.9688 165.881 100.387 166.298 100.902 166.298H103.241C103.756 166.298 104.174 165.881 104.174 165.365V152.566C104.174 152.051 103.756 151.633 103.241 151.633Z" fill="white"/>
<path d="M138.215 151.641C150.09 151.641 159.716 142.015 159.716 130.141C159.716 118.267 150.09 108.641 138.215 108.641C126.341 108.641 116.715 118.267 116.715 130.141C116.715 142.015 126.341 151.641 138.215 151.641Z" fill="#FF5C8A"/>
<path opacity="0.6" d="M138.215 151.641C150.09 151.641 159.716 142.015 159.716 130.141C159.716 118.267 150.09 108.641 138.215 108.641C126.341 108.641 116.715 118.267 116.715 130.141C116.715 142.015 126.341 151.641 138.215 151.641Z" fill="white"/>
<path d="M127.579 118.604L126.688 119.496L148.863 141.672L149.755 140.78L127.579 118.604Z" fill="#FF5C8A"/>
<path d="M148.863 118.605L126.688 140.781L127.579 141.673L149.755 119.497L148.863 118.605Z" fill="#FF5C8A"/>
<path opacity="0.2" d="M148.789 118.531L126.613 140.707L127.505 141.599L149.681 119.423L148.789 118.531Z" fill="black"/>
<path opacity="0.2" d="M127.509 118.534L126.617 119.426L148.793 141.602L149.685 140.71L127.509 118.534Z" fill="black"/>
<path d="M138.152 146.39C134.924 146.391 131.767 145.435 129.082 143.642C126.396 141.849 124.303 139.3 123.067 136.317C121.83 133.335 121.506 130.052 122.135 126.885C122.764 123.718 124.319 120.809 126.601 118.526C128.884 116.242 131.793 114.687 134.959 114.056C138.126 113.426 141.408 113.749 144.392 114.984C147.375 116.22 149.925 118.312 151.719 120.996C153.513 123.681 154.47 126.837 154.47 130.066C154.467 134.393 152.747 138.543 149.687 141.603C146.628 144.663 142.48 146.385 138.152 146.39ZM138.152 115.003C135.173 115.002 132.26 115.884 129.782 117.539C127.304 119.193 125.373 121.545 124.232 124.297C123.091 127.05 122.791 130.079 123.372 133.001C123.952 135.923 125.387 138.608 127.493 140.715C129.599 142.822 132.283 144.257 135.205 144.839C138.127 145.421 141.156 145.123 143.909 143.983C146.662 142.843 149.015 140.912 150.67 138.435C152.325 135.958 153.209 133.046 153.209 130.066C153.206 126.073 151.619 122.245 148.796 119.421C145.973 116.597 142.145 115.008 138.152 115.003Z" fill="#FF5C8A"/>
<path d="M142.976 134.895C145.642 132.228 145.642 127.905 142.976 125.238C140.309 122.571 135.985 122.571 133.319 125.238C130.652 127.905 130.652 132.228 133.319 134.895C135.985 137.562 140.309 137.561 142.976 134.895Z" fill="#FF5C8A"/>
<path opacity="0.2" d="M138.152 146.39C134.924 146.391 131.767 145.435 129.082 143.642C126.396 141.849 124.303 139.3 123.067 136.317C121.83 133.335 121.506 130.052 122.135 126.885C122.764 123.718 124.319 120.809 126.601 118.526C128.884 116.242 131.793 114.687 134.959 114.056C138.126 113.426 141.408 113.749 144.392 114.984C147.375 116.22 149.925 118.312 151.719 120.996C153.513 123.681 154.47 126.837 154.47 130.066C154.467 134.393 152.747 138.543 149.687 141.603C146.628 144.663 142.48 146.385 138.152 146.39ZM138.152 115.003C135.173 115.002 132.26 115.884 129.782 117.539C127.304 119.193 125.373 121.545 124.232 124.297C123.091 127.05 122.791 130.079 123.372 133.001C123.952 135.923 125.387 138.608 127.493 140.715C129.599 142.822 132.283 144.257 135.205 144.839C138.127 145.421 141.156 145.123 143.909 143.983C146.662 142.843 149.015 140.912 150.67 138.435C152.325 135.958 153.209 133.046 153.209 130.066C153.206 126.073 151.619 122.245 148.796 119.421C145.973 116.597 142.145 115.008 138.152 115.003Z" fill="black"/>
<path opacity="0.2" d="M142.976 134.895C145.642 132.228 145.642 127.905 142.976 125.238C140.309 122.571 135.985 122.571 133.319 125.238C130.652 127.905 130.652 132.228 133.319 134.895C135.985 137.562 140.309 137.561 142.976 134.895Z" fill="black"/>
<path d="M85.4621 39.0117C86.9816 42.5363 88.5515 46.105 90.1404 49.6169C91.7293 53.1288 93.356 56.6345 95.0962 59.9825C95.5439 60.8022 95.9727 61.6533 96.4392 62.4289L96.7797 63.0215L96.9562 63.3179C96.9386 63.2937 96.9173 63.2725 96.8932 63.2548C96.8175 63.2107 96.8932 63.299 97.0445 63.4062C97.6231 63.7178 98.2496 63.9308 98.8982 64.0367C99.7323 64.1921 100.574 64.3015 101.42 64.3645C103.205 64.4843 105.09 64.4843 106.981 64.4276L109.844 64.3078L112.694 64.1186L113.431 67.5486C109.537 68.8491 105.496 69.6582 101.401 69.9572C100.297 70.0282 99.1881 70.0177 98.0849 69.9256C96.7831 69.8376 95.5049 69.5351 94.3018 69.0303C93.4685 68.6661 92.7194 68.1337 92.1013 67.4666C91.9163 67.2689 91.7456 67.0582 91.5906 66.8361L91.3699 66.5083L90.9412 65.8778C90.3422 65.0077 89.8378 64.1376 89.2956 63.2611C87.2527 59.7618 85.4242 56.2183 83.7092 52.6434C81.9942 49.0684 80.3991 45.4618 78.8984 41.7607L85.4621 39.0117Z" fill="#7F3E3B"/>
<path d="M77.0897 38.5334C75.6585 42.72 84.0695 55.0339 84.0695 55.0339L92.1274 50.5699C90.7592 46.7284 89.1438 42.9796 87.2914 39.3468C84.4478 34.019 78.6597 33.937 77.0897 38.5334Z" fill="#FF5C8A"/>
<path opacity="0.5" d="M77.0897 38.5334C75.6585 42.72 84.0695 55.0339 84.0695 55.0339L92.1274 50.5699C90.7592 46.7284 89.1438 42.9796 87.2914 39.3468C84.4478 34.019 78.6597 33.937 77.0897 38.5334Z" fill="white"/>
<path d="M76.9685 39.0587C78.7718 38.1949 80.8525 38.92 83.034 42.3751C85.2156 45.8303 87.0819 51.5995 87.29 53.2451L84.0681 55.0295C84.0681 55.0295 76.3002 43.6551 76.9685 39.0587Z" fill="#FF5C8A"/>
<path opacity="0.4" d="M76.9685 39.0587C78.7718 38.1949 80.8525 38.92 83.034 42.3751C85.2156 45.8303 87.0819 51.5995 87.29 53.2451L84.0681 55.0295C84.0681 55.0295 76.3002 43.6551 76.9685 39.0587Z" fill="white"/>
<path d="M82.5297 35.3292C82.5297 35.3292 88.5322 49.4463 84.2006 75.7323H59.2072C58.8982 71.8925 60.6636 53.1726 56.332 35.0896C59.08 34.5544 61.8603 34.2005 64.6548 34.0303C68.1932 33.8284 71.7404 33.8284 75.2789 34.0303C77.7254 34.2777 80.1494 34.7119 82.5297 35.3292Z" fill="#FF5C8A"/>
<path opacity="0.5" d="M82.5297 35.3292C82.5297 35.3292 88.5322 49.4463 84.2006 75.7323H59.2072C58.8982 71.8925 60.6636 53.1726 56.332 35.0896C59.08 34.5544 61.8603 34.2005 64.6548 34.0303C68.1932 33.8284 71.7404 33.8284 75.2789 34.0303C77.7254 34.2777 80.1494 34.7119 82.5297 35.3292Z" fill="white"/>
<path d="M61.9187 39.5565C62.4357 42.5325 61.7484 49.6446 59.1949 57.8791C58.995 50.8241 58.1743 43.8004 56.7422 36.8894V36.8516C58.3815 36.6876 61.4206 36.7633 61.9187 39.5565Z" fill="#FF5C8A"/>
<path opacity="0.4" d="M61.9187 39.5565C62.4357 42.5325 61.7484 49.6446 59.1949 57.8791C58.995 50.8241 58.1743 43.8004 56.7422 36.8894V36.8516C58.3815 36.6876 61.4206 36.7633 61.9187 39.5565Z" fill="white"/>
<path d="M50.3496 187.732L54.057 191.049L61.1124 183.703L57.405 180.387L50.3496 187.732Z" fill="#7F3E3B"/>
<path d="M55.0777 189.717L50.5758 186.703C50.5023 186.645 50.4112 186.613 50.3173 186.613C50.2235 186.613 50.1324 186.645 50.0588 186.703L46.6162 190.177C46.5491 190.254 46.4995 190.344 46.4711 190.442C46.4426 190.539 46.436 190.642 46.4516 190.742C46.4673 190.843 46.5048 190.939 46.5616 191.023C46.6184 191.107 46.693 191.178 46.7802 191.23C49.6553 193.443 51.7297 195.114 53.369 196.955C55.2605 199.105 56.282 199.414 60.6955 199.414C62.7384 199.414 63.8922 197.693 63.06 197.428C55.7082 195.102 57.6754 194.087 55.8847 190.676C55.7032 190.292 55.4251 189.961 55.0777 189.717Z" fill="#1C2D5E"/>
<path d="M61.1048 183.703L57.473 187.493L53.7656 184.17L57.3974 180.387L61.1048 183.703Z" fill="#5E2B2B"/>
<path d="M63.6531 183.809H68.3252L68.01 189.389H63.3379L63.6531 183.809Z" fill="#5E2B2B"/>
<path d="M84.2002 75.7338C84.2002 75.7338 89.1245 109.819 90.8016 128.369C92.1509 143.255 59.9634 187.637 59.9634 187.637L53.7402 181.779C53.7402 181.779 77.2457 141.988 75.4361 125.418C73.6896 109.371 67.7439 75.7148 67.7439 75.7148L84.2002 75.7338Z" fill="#1C2D5E"/>
<path d="M63.041 194.628H67.7194L68.3247 183.809H63.6526L63.041 194.628Z" fill="#7F3E3B"/>
<path d="M67.9649 194.094H62.7127C62.6251 194.091 62.5397 194.122 62.4748 194.181C62.4099 194.24 62.3708 194.322 62.3659 194.409L62.1074 198.564C62.1066 198.673 62.1272 198.78 62.1679 198.881C62.2086 198.981 62.2688 199.073 62.3449 199.15C62.421 199.228 62.5116 199.289 62.6115 199.331C62.7114 199.374 62.8186 199.396 62.9271 199.397C64.7556 199.365 65.632 199.258 67.9712 199.258C69.3898 199.258 75.4301 199.409 77.3973 199.409C79.3645 199.409 79.2888 197.467 78.4692 197.291C74.7429 196.503 70.1212 195.399 68.7972 194.378C68.5604 194.191 68.2666 194.091 67.9649 194.094Z" fill="#1C2D5E"/>
<path d="M111.709 64.3352L116.003 62.6328L117.05 67.0464C117.05 67.0464 112.151 68.5092 111.375 67.0968L111.709 64.3352Z" fill="#7F3E3B"/>
<path d="M119.642 63.5218L120.903 65.9367L117.051 67.0338L116.004 62.6328L119.642 63.5218Z" fill="#7F3E3B"/>
<path d="M76.3131 34.1219L75.2917 34.0147C71.7532 33.8128 68.2061 33.8128 64.6676 34.0147L64.0371 34.0525L64.0939 34.2228C64.1443 34.3552 65.317 37.4762 72.0446 37.4762C74.9765 37.4762 76.5086 36.9907 76.8617 35.9378C76.9338 35.6135 76.9212 35.2761 76.8251 34.958C76.729 34.64 76.5527 34.352 76.3131 34.1219Z" fill="#E6E6E6"/>
<path d="M65.2848 22.0664C66.0729 25.4838 66.962 31.751 64.6543 34.0461C64.6543 34.0461 65.6505 36.8771 72.006 36.8771C78.9921 36.8771 75.2784 34.0461 75.2784 34.0461C71.4323 33.1382 71.4386 30.3072 72.006 27.6527L65.2848 22.0664Z" fill="#7F3E3B"/>
<path d="M68.0403 24.3398L72.0188 27.6311C71.8756 28.2527 71.787 28.8856 71.754 29.5226C70.2912 29.3146 68.2358 27.7131 68.0277 26.1872C67.9164 25.5761 67.9206 24.9494 68.0403 24.3398Z" fill="#5E2B2B"/>
<path d="M75.2731 11.8958C77.3979 13.2703 77.7006 19.8781 74.5922 20.8239C71.4838 21.7696 71.2505 9.29814 75.2731 11.8958Z" fill="#1C2D5E"/>
<path d="M63.8105 18.4823C65.2355 22.8959 65.8408 25.563 68.7159 27.3725C69.6434 27.9687 70.7162 28.2998 71.8184 28.3303C72.9205 28.3607 74.01 28.0891 74.969 27.5451C75.9279 27.001 76.7199 26.205 77.2591 25.2434C77.7984 24.2817 78.0645 23.1908 78.0285 22.0889C77.9718 17.8455 75.6515 11.3134 70.765 10.4938C69.7119 10.2905 68.6238 10.3674 67.6098 10.7169C66.5957 11.0664 65.6913 11.6762 64.9871 12.4852C64.2828 13.2941 63.8034 14.2739 63.5969 15.3264C63.3905 16.379 63.4641 17.4672 63.8105 18.4823Z" fill="#7F3E3B"/>
<path d="M58.7164 14.3287C60.2423 17.0966 64.0758 23.4017 65.9169 22.7712C67.7579 22.1407 67.7642 17.0966 65.3998 13.9C65.3998 13.9 84.1323 15.7915 84.5106 5.14847C84.8952 -5.74044 75.8726 4.79538 67.9345 7.84075C59.2965 11.1825 55.1288 7.81553 58.7164 14.3287Z" fill="#263238"/>
<path d="M59.5169 10.4688C59.4813 10.4615 59.4492 10.4422 59.4262 10.414C59.4032 10.3859 59.3906 10.3506 59.3906 10.3143C59.3906 10.2779 59.4032 10.2427 59.4262 10.2145C59.4492 10.1864 59.4813 10.167 59.5169 10.1598C59.8006 10.0968 60.1096 10.04 60.4437 9.97696C62.9557 9.56696 65.405 8.83808 67.7324 7.80801C70.0968 6.74875 72.5747 4.93288 74.7689 3.33139C76.1628 2.26722 77.6152 1.28208 79.1194 0.380599C79.1565 0.36205 79.1993 0.358244 79.239 0.369944C79.2788 0.381643 79.3127 0.407977 79.3338 0.443649C79.3438 0.461853 79.3501 0.481851 79.3523 0.502494C79.3546 0.523137 79.3527 0.544023 79.3468 0.563943C79.341 0.583863 79.3312 0.602429 79.3182 0.618575C79.3051 0.63472 79.289 0.648126 79.2708 0.658025C77.7771 1.55333 76.3352 2.53218 74.9518 3.5899C72.7513 5.1977 70.2545 7.01987 67.8585 8.09805C65.5112 9.13774 63.0406 9.87298 60.5068 10.2859C60.1726 10.349 59.8763 10.4057 59.5799 10.4688H59.5169Z" fill="#1C2D5E"/>
<path d="M63.0286 23.8744C63.8742 24.6962 65.0022 25.1632 66.1812 25.1795C67.7448 25.1795 68.0727 23.7041 67.2341 22.4683C66.4901 21.3586 64.7877 20.022 63.4132 20.6209C62.0387 21.2199 61.9946 22.8593 63.0286 23.8744Z" fill="#7F3E3B"/>
<path opacity="0.2" d="M75.4431 125.438C74.5415 117.172 72.5238 104.222 70.7899 93.6165C71.6979 91.8385 74.2451 88.2383 74.2451 88.2383C76.5276 96.126 81.4897 125.861 74.4091 166.018C67.0321 177.909 59.9704 187.657 59.9704 187.657L58.9805 172.323C65.8215 159.499 76.6978 136.895 75.4431 125.438Z" fill="black"/>
<path d="M70.9928 18.2364C71.0874 18.6021 71.3585 18.8669 71.6233 18.8039C71.8881 18.7408 71.9827 18.4067 71.8881 18.041C71.7935 17.6753 71.5224 17.4105 71.2576 17.4798C70.9928 17.5492 70.8982 17.8707 70.9928 18.2364Z" fill="#1C2D5E"/>
<path d="M75.1539 17.3245C75.2485 17.6902 75.5196 17.955 75.7844 17.892C76.0492 17.8289 76.1438 17.5011 76.0492 17.1354C75.9546 16.7697 75.6898 16.5048 75.4187 16.5679C75.1476 16.631 75.0593 16.9588 75.1539 17.3245Z" fill="#1C2D5E"/>
<path d="M73.8789 17.7969C74.6055 18.8197 75.4641 19.7419 76.4325 20.5396C76.2219 20.7736 75.9626 20.9586 75.6728 21.0817C75.3831 21.2048 75.0699 21.2629 74.7553 21.2521L73.8789 17.7969Z" fill="#630F0F"/>
<path d="M73.1664 22.5814C72.3985 22.5891 71.6533 22.3205 71.0668 21.8248C71.0564 21.8149 71.0482 21.803 71.0424 21.7898C71.0366 21.7767 71.0335 21.7626 71.0332 21.7482C71.0329 21.7339 71.0355 21.7196 71.0407 21.7062C71.0459 21.6929 71.0537 21.6807 71.0636 21.6703C71.0736 21.66 71.0855 21.6517 71.0986 21.6459C71.1117 21.6402 71.1259 21.637 71.1402 21.6367C71.1546 21.6364 71.1688 21.639 71.1822 21.6442C71.1956 21.6494 71.2078 21.6572 71.2181 21.6672C71.5873 21.9671 72.0196 22.1797 72.4825 22.2889C72.9455 22.3981 73.4272 22.4011 73.8915 22.2977C73.9056 22.2944 73.9201 22.2939 73.9344 22.2962C73.9487 22.2985 73.9624 22.3036 73.9747 22.3112C73.987 22.3188 73.9976 22.3288 74.0061 22.3405C74.0145 22.3523 74.0206 22.3656 74.0239 22.3796C74.0272 22.3937 74.0277 22.4083 74.0254 22.4226C74.0231 22.4369 74.0179 22.4505 74.0103 22.4628C74.0027 22.4751 73.9928 22.4858 73.981 22.4942C73.9693 22.5027 73.956 22.5087 73.9419 22.512C73.6868 22.564 73.4267 22.5873 73.1664 22.5814Z" fill="#1C2D5E"/>
<path d="M69.3394 17.185C69.3103 17.1909 69.2802 17.1909 69.2511 17.185C69.2241 17.1741 69.1996 17.1577 69.1791 17.137C69.1586 17.1163 69.1426 17.0916 69.1319 17.0644C69.1213 17.0373 69.1163 17.0082 69.1173 16.9791C69.1183 16.95 69.1252 16.9213 69.1376 16.895C69.2722 16.5755 69.4826 16.2937 69.7507 16.0739C70.0188 15.8542 70.3364 15.7032 70.6761 15.6339C70.7341 15.6282 70.7923 15.6445 70.8389 15.6795C70.8856 15.7145 70.9175 15.7657 70.9283 15.8231C70.9327 15.8521 70.9313 15.8817 70.9242 15.9102C70.917 15.9387 70.9043 15.9655 70.8867 15.9889C70.8691 16.0124 70.8469 16.0322 70.8216 16.047C70.7963 16.0618 70.7682 16.0714 70.7391 16.0753C70.4724 16.1354 70.2242 16.2591 70.0156 16.4359C69.807 16.6126 69.6442 16.8372 69.5411 17.0904C69.5194 17.1232 69.4891 17.1493 69.4535 17.166C69.4179 17.1827 69.3784 17.1892 69.3394 17.185Z" fill="#1C2D5E"/>
<path d="M76.5595 15.5151C76.5267 15.5154 76.4944 15.5081 76.4648 15.4939C76.4353 15.4797 76.4095 15.4589 76.3892 15.4332C76.2118 15.2126 75.9872 15.0346 75.7318 14.9124C75.4765 14.7901 75.1969 14.7268 74.9139 14.727C74.8556 14.7306 74.7983 14.7116 74.7537 14.6741C74.7091 14.6365 74.6806 14.5832 74.6743 14.5252C74.6707 14.467 74.6896 14.4097 74.7272 14.365C74.7648 14.3204 74.8181 14.292 74.876 14.2856C75.2305 14.2784 75.5818 14.3526 75.9032 14.5023C76.2245 14.652 76.5073 14.8734 76.7297 15.1494C76.7666 15.1957 76.784 15.2546 76.7781 15.3135C76.7722 15.3724 76.7435 15.4266 76.6982 15.4647C76.6591 15.4969 76.6101 15.5147 76.5595 15.5151Z" fill="#1C2D5E"/>
<path d="M59.573 60.3983C58.3172 59.9754 57.1119 59.415 55.9791 58.7274C55.7324 58.5705 55.504 58.3865 55.2982 58.1789C55.5882 56.8233 55.9665 55.4614 56.3763 54.0932C56.7861 52.725 57.2906 51.3253 57.8139 49.9444C58.3372 48.5636 58.8921 47.1891 59.4721 45.8272C59.7622 45.1463 60.0585 44.4653 60.3611 43.7907L61.2691 41.8298L54.964 38.6016C54.5478 39.3897 54.2074 40.0833 53.8669 40.8336C53.5264 41.5839 53.2364 42.309 52.8959 43.053C52.2738 44.5494 51.7063 46.0647 51.1935 47.5989C50.1247 50.731 49.3748 53.963 48.9552 57.2457V57.416V57.7438C48.9394 57.9706 48.9394 58.1981 48.9552 58.4248C48.9807 58.8825 49.0611 59.3356 49.1948 59.7741C49.4434 60.5471 49.8467 61.2615 50.3802 61.8737C51.1649 62.7284 52.1067 63.4241 53.1544 63.9228C54.7681 64.684 56.4745 65.2309 58.23 65.5496C61.427 66.157 64.6811 66.4107 67.9336 66.3062L68.2236 62.8068C65.2961 62.1714 62.4077 61.3672 59.573 60.3983Z" fill="#7F3E3B"/>
<path d="M69.6235 194.902C69.1985 194.892 68.7758 194.837 68.3625 194.738C68.3435 194.731 68.3262 194.721 68.312 194.706C68.2978 194.692 68.287 194.675 68.2805 194.656C68.2775 194.636 68.2801 194.615 68.2878 194.596C68.2956 194.577 68.3083 194.561 68.3246 194.549C68.476 194.442 69.8 193.54 70.3675 193.767C70.4319 193.792 70.4889 193.832 70.533 193.885C70.5772 193.938 70.607 194.002 70.6197 194.07C70.6473 194.171 70.6491 194.278 70.6249 194.38C70.6007 194.483 70.5512 194.578 70.481 194.656C70.2347 194.84 69.9297 194.927 69.6235 194.902ZM68.6651 194.587C69.5037 194.751 70.1279 194.725 70.3486 194.511C70.3939 194.457 70.4246 194.392 70.4379 194.322C70.4511 194.253 70.4464 194.181 70.4242 194.114C70.4185 194.081 70.4045 194.049 70.3836 194.023C70.3627 193.996 70.3355 193.976 70.3044 193.962C69.9703 193.83 69.138 194.271 68.6651 194.587Z" fill="#FF5C8A"/>
<path d="M68.4008 194.736C68.3845 194.742 68.3667 194.742 68.3504 194.736C68.3346 194.729 68.3211 194.717 68.3112 194.703C68.3012 194.689 68.2952 194.672 68.2936 194.654C68.2936 194.598 68.1864 193.255 68.6593 192.801C68.7184 192.743 68.79 192.699 68.8687 192.672C68.9474 192.646 69.0311 192.638 69.1133 192.649C69.2056 192.653 69.2941 192.687 69.3649 192.746C69.4357 192.806 69.4847 192.887 69.5042 192.977C69.6114 193.488 68.9178 194.459 68.4513 194.736H68.4008ZM69.0313 192.845C68.9881 192.844 68.9451 192.852 68.905 192.868C68.865 192.885 68.8286 192.909 68.798 192.94C68.5384 193.392 68.4301 193.916 68.4891 194.434C68.8737 194.106 69.3718 193.362 69.2961 193.009C69.2961 192.94 69.2457 192.864 69.0818 192.845H69.0313Z" fill="#FF5C8A"/>
<path d="M58.1102 192.248C57.2764 192.12 56.4804 191.812 55.7773 191.346C55.7566 191.336 55.7401 191.319 55.7308 191.299C55.7215 191.278 55.7201 191.254 55.7268 191.232C55.7328 191.211 55.745 191.192 55.7618 191.177C55.7786 191.163 55.7993 191.153 55.8214 191.15C56.0736 191.15 58.2867 190.987 58.7028 191.491C58.7401 191.532 58.766 191.582 58.7782 191.636C58.7903 191.69 58.7883 191.747 58.7722 191.8C58.7528 191.887 58.7129 191.967 58.6559 192.035C58.5988 192.103 58.5263 192.157 58.4443 192.191C58.3372 192.23 58.224 192.249 58.1102 192.248ZM56.1871 191.34C57.2022 191.901 58.003 192.147 58.3624 191.97C58.4143 191.949 58.4604 191.916 58.4967 191.873C58.5329 191.83 58.5582 191.779 58.5704 191.724C58.5815 191.705 58.5873 191.683 58.5873 191.661C58.5873 191.639 58.5815 191.617 58.5704 191.598C58.3119 191.346 57.0887 191.302 56.1871 191.34Z" fill="#FF5C8A"/>
<path d="M55.8286 191.363C55.8109 191.363 55.7935 191.358 55.7781 191.349C55.7627 191.34 55.7497 191.328 55.7403 191.313C55.7326 191.297 55.7285 191.28 55.7285 191.262C55.7285 191.245 55.7326 191.228 55.7403 191.212C55.7782 191.136 56.6168 189.428 57.6949 189.951C57.9913 190.096 58.0165 190.266 57.9913 190.386C57.8841 190.897 56.4843 191.357 55.8412 191.376L55.8286 191.363ZM57.2851 190.058C56.705 190.058 56.2069 190.796 56.0241 191.136C56.6987 191.054 57.7327 190.632 57.7958 190.329C57.7958 190.266 57.7454 190.197 57.6067 190.128C57.5067 190.079 57.3963 190.055 57.2851 190.058Z" fill="#FF5C8A"/>
<path d="M67.4981 62.76L71.3379 61.707L71.8612 66.5557C71.8612 66.5557 68.0781 67.6906 67.1387 65.7045L67.4981 62.76Z" fill="#7F3E3B"/>
<path d="M67.4238 62.8599C68.2278 61.9879 68.6989 60.8605 68.7542 59.6758L69.7378 60.2117C69.7378 60.2117 69.9333 62.387 69.5486 63.0112C69.164 63.6354 67.4238 62.8599 67.4238 62.8599Z" fill="#7F3E3B"/>
<path d="M73.1353 62.1862L72.902 66.5557H71.8617L71.332 61.707L73.1353 62.1862Z" fill="#7F3E3B"/>
<path d="M53.3691 181.445L60.3489 188.015L62.5998 185.6L54.6112 178.324L53.3691 181.445Z" fill="#FF5C8A"/>
<path opacity="0.1" d="M53.3691 181.445L60.3489 188.015L62.5998 185.6L54.6112 178.324L53.3691 181.445Z" fill="black"/>
<path d="M75.3164 75.7329C75.3164 75.7329 75.7577 111.451 75.0011 124.837C74.1752 139.49 70.0138 188.046 70.0138 188.046H61.4515C61.4515 188.046 61.71 140.675 61.193 126.167C60.6318 110.405 59.1816 75.7266 59.1816 75.7266L75.3164 75.7329Z" fill="#1C2D5E"/>
<path d="M61.1117 188.046H70.3613L70.872 184.793L60.6641 185.304L61.1117 188.046Z" fill="#FF5C8A"/>
<path opacity="0.1" d="M61.1117 188.046H70.3613L70.872 184.793L60.6641 185.304L61.1117 188.046Z" fill="black"/>
<path d="M56.3328 35.0904C51.9192 35.7209 47.3984 51.9313 47.3984 51.9313L58.0351 55.9792C58.0351 55.9792 60.7085 49.0436 62.537 43.6023C64.4537 37.934 61.0553 34.3968 56.3328 35.0904Z" fill="#FF5C8A"/>
<path opacity="0.5" d="M56.3328 35.0904C51.9192 35.7209 47.3984 51.9313 47.3984 51.9313L58.0351 55.9792C58.0351 55.9792 60.7085 49.0436 62.537 43.6023C64.4537 37.934 61.0553 34.3968 56.3328 35.0904Z" fill="white"/>
</svg>
