<svg width="150" height="167" viewBox="0 0 150 167" fill="none" xmlns="http://www.w3.org/2000/svg">
<path d="M59.6963 58.2479C58.3891 61.4242 50.6938 61.2054 42.6318 57.8812C34.5698 54.557 29.0866 49.2868 30.3938 46.1105C30.7014 45.3771 31.5768 42.6267 32.4522 42.2481C35.457 40.9764 41.1767 43.8333 47.3696 46.3885C53.1366 48.7545 59.7317 50.2983 60.755 53.4273C61.3702 55.3319 60.0689 57.3429 59.6963 58.2479Z" fill="#1C2D5E"/>
<path opacity="0.2" d="M60.7548 53.4269C61.2458 55.9171 60.1634 57.1119 59.6961 58.2476C59.2288 59.3832 57.8625 60.1285 55.952 60.3888C55.7131 60.4294 55.4722 60.457 55.2303 60.4716C53.7653 60.5577 52.2953 60.4803 50.8474 60.2409C50.6404 60.2409 50.4334 60.1758 50.2204 60.1403C48.5208 59.8353 46.8462 59.4042 45.2105 58.8509L44.619 58.6498C43.9625 58.4191 43.2882 58.1648 42.6139 57.8868C41.9396 57.6088 41.3008 57.2953 40.6679 57.0173L40.1237 56.757C38.6326 56.0197 37.1957 55.1777 35.8236 54.2373L35.3385 53.8942C34.1408 53.0476 33.0434 52.0673 32.0676 50.9723C31.9197 50.8066 31.7837 50.6469 31.6536 50.4813C30.3819 48.8725 29.8791 47.3346 30.3819 46.1102C30.7131 45.3235 31.4229 42.6322 32.4402 42.2419C33.6915 41.8893 35.0159 41.8893 36.2672 42.2419L36.8587 42.3838C39.8161 43.1409 43.5425 44.8267 47.3458 46.3941C51.8293 48.2455 57.1349 50.1678 59.7375 52.3859C59.8923 52.5162 60.0404 52.6544 60.1811 52.8C60.3888 52.9933 60.5806 53.203 60.7548 53.4269V53.4269Z" fill="black"/>
<g opacity="0.2">
<path opacity="0.2" d="M37.1541 41.8746L36.882 42.3715L32.0791 50.9658C31.9312 50.8002 31.7952 50.6405 31.665 50.4749L36.2786 42.2295L36.6395 41.5907L37.1541 41.8746Z" fill="black"/>
</g>
<g opacity="0.2">
<path opacity="0.2" d="M40.7864 45.3823L35.8356 54.2546L35.3506 53.9116L40.2718 45.1102L40.7864 45.3823Z" fill="black"/>
</g>
<g opacity="0.2">
<path opacity="0.2" d="M49.8903 50.4684L45.2116 58.8498L44.6201 58.6487L49.352 50.1549L49.8903 50.4684Z" fill="black"/>
</g>
<g opacity="0.2">
<path opacity="0.2" d="M45.6543 48.1035L40.6799 57.0172L40.1357 56.757L45.1398 47.79L45.6543 48.1035Z" fill="black"/>
</g>
<g opacity="0.2">
<path opacity="0.2" d="M55.4071 52.0896L50.8467 60.2404C50.6397 60.2404 50.4327 60.1753 50.2197 60.1398L54.8866 51.7939L55.4071 52.0896Z" fill="black"/>
</g>
<path d="M60.7201 55.4798C59.4129 58.6561 51.8122 58.5319 43.7443 55.2018C35.6764 51.8717 30.1992 46.6074 31.5123 43.4311C32.8254 40.2548 40.4201 40.385 48.4881 43.7091C56.556 47.0333 62.0273 52.2857 60.7201 55.4798Z" fill="#1C2D5E"/>
<path opacity="0.2" d="M57.9744 54.3263C57.0517 56.568 51.125 56.2545 44.7428 53.6224C38.3606 50.9903 33.9363 47.0332 34.859 44.7915C35.7817 42.5497 41.7084 42.8632 48.0965 45.4954C54.4846 48.1275 58.903 52.0845 57.9744 54.3263Z" fill="white"/>
<path d="M100.461 29.5369C102.567 32.2518 98.5568 38.8233 91.6541 44.1644C84.7514 49.5056 77.4583 51.6349 75.3585 48.8963C74.8735 48.2693 72.9098 46.1696 73.0281 45.1877C73.4244 41.9522 78.7419 38.4151 84.0416 34.3102C88.9746 30.4892 93.5823 25.5325 96.806 26.2009C98.7638 26.6327 99.864 28.7679 100.461 29.5369Z" fill="#1C2D5E"/>
<path opacity="0.2" d="M96.8068 26.2246C99.2141 27.0409 99.711 28.5906 100.462 29.5369C101.213 30.4833 101.184 32.0626 100.462 33.8548C100.379 34.0737 100.279 34.2925 100.172 34.5173C99.5243 35.8322 98.7307 37.0703 97.8064 38.2082C97.6822 38.3738 97.5461 38.5335 97.4101 38.6991C96.2977 40.0258 95.0877 41.2674 93.7902 42.4137L93.3347 42.81C92.8083 43.2654 92.2523 43.7209 91.6786 44.1645C91.1048 44.6081 90.5311 45.0281 89.9514 45.4244C89.7917 45.5427 89.6202 45.655 89.4605 45.7674C88.0785 46.6945 86.6315 47.5208 85.1308 48.2398C84.9474 48.3345 84.77 48.4114 84.5984 48.4942C83.2649 49.111 81.8661 49.5753 80.4284 49.8783C80.2155 49.9256 80.0085 49.9611 79.8014 49.9907C77.7726 50.2923 76.1874 49.9907 75.3771 48.9201C74.8566 48.2458 72.8751 46.2879 73.0466 45.2173C73.356 43.9517 74.0138 42.7981 74.9453 41.8873C75.0754 41.7394 75.2174 41.5915 75.3653 41.4377C77.5005 39.2256 80.807 36.8537 84.0602 34.3398C87.8989 31.3824 92.205 27.7211 95.4168 26.5736C95.6107 26.5024 95.8081 26.4412 96.0083 26.3902C96.27 26.3156 96.5369 26.2603 96.8068 26.2246V26.2246Z" fill="black"/>
<g opacity="0.2">
<path opacity="0.2" d="M75.0506 40.9534L75.3464 41.4384L80.4095 49.8789C80.1966 49.9263 79.9895 49.9617 79.7825 49.9913L74.9264 41.8761L74.5479 41.2846L75.0506 40.9534Z" fill="black"/>
</g>
<g opacity="0.2">
<path opacity="0.2" d="M79.8959 39.5451L85.1128 48.24C84.9295 48.3346 84.752 48.4115 84.5805 48.4943L79.3872 39.8467L79.8959 39.5451Z" fill="black"/>
</g>
<g opacity="0.2">
<path opacity="0.2" d="M88.8334 34.1855L93.7723 42.4191L93.3169 42.8154L88.3247 34.4872L88.8334 34.1855Z" fill="black"/>
</g>
<g opacity="0.2">
<path opacity="0.2" d="M84.6816 36.6758L89.934 45.4239C89.7743 45.5422 89.6028 45.6546 89.4431 45.767L84.167 36.9774L84.6816 36.6758Z" fill="black"/>
</g>
<g opacity="0.2">
<path opacity="0.2" d="M92.9857 30.1932L97.7886 38.2079C97.6644 38.3735 97.5284 38.5332 97.3923 38.6988L92.4771 30.5007L92.9857 30.1932Z" fill="black"/>
</g>
<path d="M89.8634 41.8427C96.7615 36.4997 100.649 29.9679 98.5468 27.2536C96.4444 24.5393 89.1481 26.6703 82.2499 32.0133C75.3518 37.3564 71.4641 43.8881 73.5665 46.6024C75.6689 49.3168 82.9653 47.1858 89.8634 41.8427Z" fill="#1C2D5E"/>
<path opacity="0.2" d="M89.0081 40.1971C94.4677 35.9683 97.6887 30.9846 96.2024 29.0657C94.7161 27.1469 89.0854 29.0195 83.6257 33.2483C78.1661 37.4771 74.9451 42.4608 76.4314 44.3796C77.9177 46.2985 83.5484 44.4259 89.0081 40.1971Z" fill="white"/>
<path d="M71.9103 16.8204C71.236 20.7124 62.5056 22.3567 52.6159 20.5823C42.7262 18.8078 35.2675 14.2356 35.9596 10.3436C36.1193 9.4386 36.3973 6.14401 37.3259 5.48745C40.3957 3.3226 47.5291 5.13256 55.1238 6.48115C62.2217 7.74103 69.988 7.84158 71.9103 11.1125C73.0755 13.1236 72.1055 15.7084 71.9103 16.8204Z" fill="#1C2D5E"/>
<path opacity="0.2" d="M71.9103 11.1181C73.0933 13.8035 72.1528 15.4064 71.9103 16.8024C71.6678 18.1983 70.3133 19.3635 68.2312 20.1324C67.9769 20.233 67.7107 20.3158 67.4386 20.3986C65.8101 20.8563 64.1358 21.1321 62.4465 21.2208C62.2039 21.2208 61.9674 21.2208 61.7189 21.2622C59.7288 21.3354 57.7361 21.2622 55.7567 21.0433L55.0647 20.9546C54.2662 20.8541 53.444 20.7358 52.6218 20.5879C51.7996 20.44 51.0011 20.2744 50.2145 20.091C49.9897 20.0437 49.7649 19.9846 49.5402 19.9313C47.6818 19.4725 45.8592 18.8794 44.0866 18.1569C43.8678 18.0741 43.6607 17.9794 43.4537 17.8966C41.898 17.2344 40.4218 16.3991 39.053 15.4064C38.846 15.2586 38.6567 15.1107 38.4616 14.9569C36.6279 13.4604 35.6875 11.8516 35.9536 10.3551C36.1311 9.38508 36.273 6.2147 37.3141 5.49899C38.3551 4.78329 39.8456 4.55853 41.6201 4.55261H42.3299C45.8788 4.67091 50.451 5.6587 55.1179 6.48678C60.6188 7.46865 67.0601 8.32631 70.5262 10.1836C70.7295 10.2913 70.9269 10.4098 71.1177 10.5385C71.3966 10.7108 71.6616 10.9046 71.9103 11.1181Z" fill="black"/>
<g opacity="0.2">
<path opacity="0.2" d="M42.5236 3.94919L42.3343 4.57025L39.0456 15.4182C38.8386 15.2703 38.6493 15.1224 38.4541 14.9686L41.6127 4.56434L41.8611 3.754L42.5236 3.94919Z" fill="black"/>
</g>
<g opacity="0.2">
<path opacity="0.2" d="M47.4704 6.97744L44.0811 18.1507C43.8623 18.0679 43.6553 17.9732 43.4482 17.8904L46.8197 6.77042L47.4704 6.97744Z" fill="black"/>
</g>
<g opacity="0.2">
<path opacity="0.2" d="M58.9624 10.4795L55.7506 21.0612L55.0586 20.9725L58.3059 10.2784L58.9624 10.4795Z" fill="black"/>
</g>
<g opacity="0.2">
<path opacity="0.2" d="M53.6214 8.85811L50.2085 20.0964C49.9837 20.0491 49.7589 19.9899 49.5342 19.9367L52.9648 8.64517L53.6214 8.85811Z" fill="black"/>
</g>
<g opacity="0.2">
<path opacity="0.2" d="M65.5699 10.94L62.4409 21.2378C62.1984 21.2378 61.9618 21.2378 61.7134 21.2792L64.9133 10.7448L65.5699 10.94Z" fill="black"/>
</g>
<path d="M72.3715 13.4215C73.064 9.52989 65.6056 4.94803 55.7126 3.18761C45.8196 1.42718 37.2384 3.15483 36.5459 7.04641C35.8534 10.938 43.3118 15.5199 53.2048 17.2803C63.0978 19.0407 71.679 17.3131 72.3715 13.4215Z" fill="#1C2D5E"/>
<path opacity="0.2" d="M69.0049 12.8264C69.4942 10.0765 63.5449 6.71808 55.7167 5.32508C47.8885 3.93207 41.1458 5.03201 40.6565 7.78184C40.1672 10.5317 46.1165 13.8901 53.9447 15.2831C61.7729 16.6761 68.5156 15.5762 69.0049 12.8264Z" fill="white"/>
<path d="M136.524 67.4933L75.6534 71.0423C73.5031 71.1689 71.3933 71.6818 69.425 72.5565L3.30827 102.131C2.1482 102.641 1.1982 103.533 0.616891 104.659C0.0355806 105.786 -0.141852 107.077 0.114225 108.318L11.039 159.985C11.2237 160.817 11.5962 161.595 12.128 162.261C12.6599 162.927 13.3369 163.463 14.1075 163.827C14.878 164.191 15.7216 164.374 16.5738 164.362C17.4259 164.35 18.2641 164.144 19.0241 163.758L84.2832 131.179L144.544 129.162C145.286 129.142 146.014 128.965 146.682 128.641C147.35 128.318 147.941 127.856 148.416 127.286C148.891 126.716 149.239 126.052 149.437 125.337C149.636 124.623 149.68 123.874 149.566 123.141L141.504 73.6685C141.084 71.1133 139.144 67.4164 136.524 67.4933Z" fill="#1C2D5E"/>
<path opacity="0.1" d="M136.524 67.4933L75.6534 71.0423C73.5031 71.1689 71.3933 71.6818 69.425 72.5565L3.30827 102.131C2.1482 102.641 1.1982 103.533 0.616891 104.659C0.0355806 105.786 -0.141852 107.077 0.114225 108.318L11.039 159.985C11.2237 160.817 11.5962 161.595 12.128 162.261C12.6599 162.927 13.3369 163.463 14.1075 163.827C14.878 164.191 15.7216 164.374 16.5738 164.362C17.4259 164.35 18.2641 164.144 19.0241 163.758L84.2832 131.179L144.544 129.162C145.286 129.142 146.014 128.965 146.682 128.641C147.35 128.318 147.941 127.856 148.416 127.286C148.891 126.716 149.239 126.052 149.437 125.337C149.636 124.623 149.68 123.874 149.566 123.141L141.504 73.6685C141.084 71.1133 139.144 67.4164 136.524 67.4933Z" fill="black"/>
<path d="M136.92 69.594L76.8839 72.9773C74.7557 73.094 72.6677 73.6055 70.7265 74.4857L5.57988 103.895C4.43239 104.413 3.49625 105.308 2.92622 106.431C2.3562 107.554 2.18643 108.837 2.44499 110.07L13.3698 161.76C13.5458 162.587 13.909 163.362 14.4315 164.027C14.954 164.691 15.6219 165.227 16.3838 165.594C17.1458 165.96 17.9816 166.146 18.827 166.139C19.6723 166.132 20.5047 165.931 21.2603 165.551L85.5552 133.156L144.988 131.275C145.724 131.251 146.446 131.071 147.107 130.747C147.768 130.422 148.351 129.96 148.819 129.392C149.287 128.824 149.629 128.162 149.821 127.452C150.013 126.741 150.051 125.998 149.933 125.271L141.847 75.8047C141.427 73.2258 139.511 69.523 136.92 69.594Z" fill="#1C2D5E"/>
<path opacity="0.2" d="M79.3271 82.0279L130.84 78.8575" stroke="black" stroke-width="2" stroke-linecap="round" stroke-linejoin="round"/>
<path opacity="0.2" d="M73.1562 83.3574L82.5669 126.583" stroke="black" stroke-width="2" stroke-linecap="round" stroke-linejoin="round"/>
<path opacity="0.2" d="M10.4131 122.384L17.0496 155.632C17.0496 155.632 22.1364 142.441 10.4131 122.384Z" fill="#FAFAFA"/>
<path opacity="0.2" d="M11.2827 122.775C11.5134 123.367 70.2306 98.1691 70.2306 98.1691C70.3897 103.882 68.9613 109.527 66.1044 114.476C63.2474 119.426 59.0738 123.486 54.0474 126.206C36.3737 136.113 11.2827 122.775 11.2827 122.775Z" fill="#FAFAFA"/>
<path d="M50.2846 123.757C51.6893 123.757 52.828 122.618 52.828 121.213C52.828 119.809 51.6893 118.67 50.2846 118.67C48.8799 118.67 47.7412 119.809 47.7412 121.213C47.7412 122.618 48.8799 123.757 50.2846 123.757Z" fill="#1C2D5E"/>
<path opacity="0.2" d="M70.2598 98.1691C70.2598 98.1691 77.541 109.129 75.7784 127.797Z" fill="black"/>
<g opacity="0.2">
<path opacity="0.2" d="M7.604 109.325L8.95852 108.728" stroke="#FAFAFA" stroke-linecap="round" stroke-linejoin="round"/>
<path opacity="0.2" d="M11.7681 107.486L66.5992 83.2465" stroke="#FAFAFA" stroke-linecap="round" stroke-linejoin="round" stroke-dasharray="5.2 5.2"/>
<path opacity="0.2" d="M68.0063 82.6251L69.3549 82.0277" stroke="#FAFAFA" stroke-linecap="round" stroke-linejoin="round"/>
</g>
<path opacity="0.2" d="M81.0537 91.7455L132.567 88.5692" stroke="black" stroke-width="2" stroke-linecap="round" stroke-linejoin="round"/>
<path opacity="0.2" d="M83.3721 103.865L134.885 100.689" stroke="black" stroke-width="2" stroke-linecap="round" stroke-linejoin="round"/>
<path d="M40.1443 151.335C40.1658 151.597 40.2008 151.857 40.2493 152.114C40.5794 153.8 41.4449 155.335 42.717 156.489C44.1584 157.839 46.0541 158.598 48.0286 158.616H121.963C122.826 158.633 123.684 158.479 124.487 158.162C125.29 157.845 126.022 157.371 126.64 156.768C127.258 156.166 127.75 155.446 128.087 154.652C128.425 153.857 128.601 153.004 128.605 152.14C128.618 151.881 128.618 151.621 128.605 151.362C128.399 149.402 127.485 147.585 126.036 146.252C124.586 144.918 122.699 144.158 120.729 144.116H46.7773C45.8503 144.097 44.9298 144.276 44.0771 144.64C43.2244 145.005 42.459 145.546 41.8317 146.229C41.2043 146.912 40.7294 147.72 40.4385 148.601C40.1476 149.481 40.0473 150.413 40.1443 151.335V151.335Z" fill="#1C2D5E"/>
<path opacity="0.8" d="M40.1443 151.335C40.1658 151.597 40.2008 151.857 40.2493 152.114C40.5794 153.8 41.4449 155.335 42.717 156.489C44.1584 157.839 46.0541 158.598 48.0286 158.616H121.963C122.826 158.633 123.684 158.479 124.487 158.162C125.29 157.845 126.022 157.371 126.64 156.768C127.258 156.166 127.75 155.446 128.087 154.652C128.425 153.857 128.601 153.004 128.605 152.14C128.618 151.881 128.618 151.621 128.605 151.362C128.399 149.402 127.485 147.585 126.036 146.252C124.586 144.918 122.699 144.158 120.729 144.116H46.7773C45.8503 144.097 44.9298 144.276 44.0771 144.64C43.2244 145.005 42.459 145.546 41.8317 146.229C41.2043 146.912 40.7294 147.72 40.4385 148.601C40.1476 149.481 40.0473 150.413 40.1443 151.335V151.335Z" fill="white"/>
<path d="M128.605 152.086C128.605 152.32 128.588 152.554 128.553 152.786C128.292 150.871 127.354 149.113 125.91 147.829C124.465 146.545 122.609 145.82 120.677 145.785L42.0693 145.96C42.6925 145.354 43.4291 144.877 44.2369 144.555C45.0447 144.234 45.9079 144.075 46.7772 144.088H120.712C122.681 144.13 124.568 144.889 126.018 146.223C127.468 147.557 128.381 149.374 128.587 151.333C128.605 151.584 128.611 151.835 128.605 152.086V152.086Z" fill="#1C2D5E"/>
<path opacity="0.5" d="M128.605 152.086C128.605 152.32 128.588 152.554 128.553 152.786C128.292 150.871 127.354 149.113 125.91 147.829C124.465 146.545 122.609 145.82 120.677 145.785L42.0693 145.96C42.6925 145.354 43.4291 144.877 44.2369 144.555C45.0447 144.234 45.9079 144.075 46.7772 144.088H120.712C122.681 144.13 124.568 144.889 126.018 146.223C127.468 147.557 128.381 149.374 128.587 151.333C128.605 151.584 128.611 151.835 128.605 152.086V152.086Z" fill="white"/>
<path d="M115.908 147.589L116.223 151.09L119.513 149.864L120.292 151.615L116.932 152.735L119.347 155.701L117.833 156.812L115.479 153.732L113.729 156.812L112.075 155.701L113.939 152.735L110.438 151.615L110.911 149.864L114.455 151.046L114.14 147.545L115.908 147.589Z" fill="#1C2D5E"/>
<path d="M95.6498 147.588L95.9648 151.088L99.2551 149.863L100.043 151.613L96.6561 152.76L99.0713 155.726L97.5662 156.838L95.2123 153.757L93.4621 156.838L91.7995 155.726L93.6722 152.76L90.1719 151.64L90.6444 149.889L94.1884 151.071L93.8822 147.571L95.6498 147.588Z" fill="#1C2D5E"/>
<path d="M75.4352 147.588L75.7415 151.088L79.0317 149.863L79.8193 151.613L76.4503 152.733L78.8655 155.7L77.4041 156.838L75.0502 153.757L73.3 156.838L71.6461 155.726L73.51 152.76L70.0098 151.64L70.4911 149.889L73.9913 151.071L73.6851 147.571L75.4352 147.588Z" fill="#1C2D5E"/>
<path d="M55.2133 147.589L55.5196 151.09L58.8186 149.864L59.5974 151.615L56.2284 152.735L58.6523 155.701L57.1385 156.812L54.7845 153.732L53.0344 156.812L51.3805 155.701L53.2444 152.735L49.7441 151.615L50.2167 149.864L53.7169 151.046L53.4107 147.545L55.2133 147.589Z" fill="#1C2D5E"/>
<path d="M104.225 140.659H100.777V141.534H104.225V140.659Z" fill="#1C2D5E"/>
<path d="M119.041 140.659H107.796V141.534H119.041V140.659Z" fill="#1C2D5E"/>
</svg>
