<svg width="151" height="127" viewBox="0 0 151 127" fill="none" xmlns="http://www.w3.org/2000/svg">
<path d="M142.24 17.1211H21.8145V101.468H142.24V17.1211Z" fill="#F5F5F5"/>
<path d="M146.167 101.469H17.8887V106.201H146.167V101.469Z" fill="#FF5C8A"/>
<path d="M64.6532 44.4688H40.5148C40.1474 44.4688 39.8496 45.4348 39.8496 46.6265V46.7246C39.8496 47.9163 40.1474 48.8824 40.5148 48.8824H64.6532C65.0206 48.8824 65.3184 47.9163 65.3184 46.7246V46.6265C65.3184 45.4348 65.0206 44.4688 64.6532 44.4688Z" fill="#FF5C8A"/>
<path d="M94.122 44.4688H69.9835C69.6162 44.4688 69.3184 45.4348 69.3184 46.6265V46.7246C69.3184 47.9163 69.6162 48.8824 69.9835 48.8824H94.122C94.4893 48.8824 94.7871 47.9163 94.7871 46.7246V46.6265C94.7871 45.4348 94.4893 44.4688 94.122 44.4688Z" fill="#FF5C8A"/>
<path d="M123.591 44.4688H99.4523C99.0849 44.4688 98.7871 45.4348 98.7871 46.6265V46.7246C98.7871 47.9163 99.0849 48.8824 99.4523 48.8824H123.591C123.958 48.8824 124.256 47.9163 124.256 46.7246V46.6265C124.256 45.4348 123.958 44.4688 123.591 44.4688Z" fill="#FF5C8A"/>
<path d="M64.6532 52.8828H40.5148C40.1474 52.8828 39.8496 53.8489 39.8496 55.0406V55.1387C39.8496 56.3304 40.1474 57.2964 40.5148 57.2964H64.6532C65.0206 57.2964 65.3184 56.3304 65.3184 55.1387V55.0406C65.3184 53.8489 65.0206 52.8828 64.6532 52.8828Z" fill="#FF5C8A"/>
<path d="M94.122 52.8828H69.9835C69.6162 52.8828 69.3184 53.8489 69.3184 55.0406V55.1387C69.3184 56.3304 69.6162 57.2964 69.9835 57.2964H94.122C94.4893 57.2964 94.7871 56.3304 94.7871 55.1387V55.0406C94.7871 53.8489 94.4893 52.8828 94.122 52.8828Z" fill="#FF5C8A"/>
<path d="M123.591 52.8828H99.4523C99.0849 52.8828 98.7871 53.8489 98.7871 55.0406V55.1387C98.7871 56.3304 99.0849 57.2964 99.4523 57.2964H123.591C123.958 57.2964 124.256 56.3304 124.256 55.1387V55.0406C124.256 53.8489 123.958 52.8828 123.591 52.8828Z" fill="#FF5C8A"/>
<path d="M64.6532 61.2969H40.5148C40.1474 61.2969 39.8496 62.2629 39.8496 63.4546V63.5527C39.8496 64.7444 40.1474 65.7105 40.5148 65.7105H64.6532C65.0206 65.7105 65.3184 64.7444 65.3184 63.5527V63.4546C65.3184 62.2629 65.0206 61.2969 64.6532 61.2969Z" fill="#FF5C8A"/>
<path d="M94.122 61.2969H69.9835C69.6162 61.2969 69.3184 62.2629 69.3184 63.4546V63.5527C69.3184 64.7444 69.6162 65.7105 69.9835 65.7105H94.122C94.4893 65.7105 94.7871 64.7444 94.7871 63.5527V63.4546C94.7871 62.2629 94.4893 61.2969 94.122 61.2969Z" fill="#FF5C8A"/>
<path d="M123.591 61.2969H99.4523C99.0849 61.2969 98.7871 62.2629 98.7871 63.4546V63.5527C98.7871 64.7444 99.0849 65.7105 99.4523 65.7105H123.591C123.958 65.7105 124.256 64.7444 124.256 63.5527V63.4546C124.256 62.2629 123.958 61.2969 123.591 61.2969Z" fill="#FF5C8A"/>
<path d="M64.6532 69.7109H40.5148C40.1474 69.7109 39.8496 70.677 39.8496 71.8687V71.9668C39.8496 73.1585 40.1474 74.1246 40.5148 74.1246H64.6532C65.0206 74.1246 65.3184 73.1585 65.3184 71.9668V71.8687C65.3184 70.677 65.0206 69.7109 64.6532 69.7109Z" fill="#FF5C8A"/>
<path d="M94.122 69.7109H69.9835C69.6162 69.7109 69.3184 70.677 69.3184 71.8687V71.9668C69.3184 73.1585 69.6162 74.1246 69.9835 74.1246H94.122C94.4893 74.1246 94.7871 73.1585 94.7871 71.9668V71.8687C94.7871 70.677 94.4893 69.7109 94.122 69.7109Z" fill="#FF5C8A"/>
<path d="M123.591 69.7109H99.4523C99.0849 69.7109 98.7871 70.677 98.7871 71.8687V71.9668C98.7871 73.1585 99.0849 74.1246 99.4523 74.1246H123.591C123.958 74.1246 124.256 73.1585 124.256 71.9668V71.8687C124.256 70.677 123.958 69.7109 123.591 69.7109Z" fill="#FF5C8A"/>
<path d="M32.1629 73.1393L23.2826 67.3016C21.8726 66.3723 20.1657 66.0048 18.4982 66.2715C16.8306 66.5381 15.3234 67.4195 14.2734 68.7421L6.44216 78.5376C5.39134 79.8559 4.87017 81.5188 4.98059 83.2011C5.09101 84.8833 5.82507 86.4639 7.03919 87.6335L14.6925 95.0021C15.3699 95.6562 16.1766 96.1616 17.0608 96.4859C17.9449 96.8102 18.8871 96.9461 19.8268 96.8851C20.7666 96.8241 21.6832 96.5674 22.518 96.1316C23.3528 95.6957 24.0873 95.0902 24.6745 94.354L33.7133 83.0226C34.3028 82.2883 34.7326 81.439 34.975 80.5291C35.2175 79.6192 35.2673 78.6687 35.1214 77.7385C34.9755 76.8082 34.6369 75.9186 34.1275 75.1267C33.6181 74.3347 32.9489 73.6578 32.1629 73.1393ZM14.0089 81.8059C13.3724 81.2979 12.901 80.6126 12.6541 79.8367C12.4072 79.0607 12.3959 78.229 12.6218 77.4467C12.8477 76.6643 13.3005 75.9666 13.923 75.4416C14.5455 74.9167 15.3097 74.5882 16.119 74.4976C16.9282 74.4071 17.7461 74.5586 18.4692 74.933C19.1924 75.3073 19.7882 75.8878 20.1814 76.6009C20.5746 77.3139 20.7475 78.1276 20.6782 78.9389C20.6089 79.7502 20.3005 80.5228 19.792 81.1588C19.4552 81.5839 19.0377 81.9383 18.5634 82.2015C18.0892 82.4647 17.5676 82.6317 17.0287 82.6927C16.4898 82.7537 15.9441 82.7076 15.423 82.557C14.902 82.4065 14.4158 82.1544 13.9924 81.8154L14.0089 81.8059Z" fill="#FF5C8A"/>
<path d="M32.1629 73.1393L23.2826 67.3016C21.8726 66.3723 20.1657 66.0048 18.4982 66.2715C16.8306 66.5381 15.3234 67.4195 14.2734 68.7421L6.44216 78.5376C5.39134 79.8559 4.87017 81.5188 4.98059 83.2011C5.09101 84.8833 5.82507 86.4639 7.03919 87.6335L14.6925 95.0021C15.3699 95.6562 16.1766 96.1616 17.0608 96.4859C17.9449 96.8102 18.8871 96.9461 19.8268 96.8851C20.7666 96.8241 21.6832 96.5674 22.518 96.1316C23.3528 95.6957 24.0873 95.0902 24.6745 94.354L33.7133 83.0226C34.3028 82.2883 34.7326 81.439 34.975 80.5291C35.2175 79.6192 35.2673 78.6687 35.1214 77.7385C34.9755 76.8082 34.6369 75.9186 34.1275 75.1267C33.6181 74.3347 32.9489 73.6578 32.1629 73.1393ZM14.0089 81.8059C13.3724 81.2979 12.901 80.6126 12.6541 79.8367C12.4072 79.0607 12.3959 78.229 12.6218 77.4467C12.8477 76.6643 13.3005 75.9666 13.923 75.4416C14.5455 74.9167 15.3097 74.5882 16.119 74.4976C16.9282 74.4071 17.7461 74.5586 18.4692 74.933C19.1924 75.3073 19.7882 75.8878 20.1814 76.6009C20.5746 77.3139 20.7475 78.1276 20.6782 78.9389C20.6089 79.7502 20.3005 80.5228 19.792 81.1588C19.4552 81.5839 19.0377 81.9383 18.5634 82.2015C18.0892 82.4647 17.5676 82.6317 17.0287 82.6927C16.4898 82.7537 15.9441 82.7076 15.423 82.557C14.902 82.4065 14.4158 82.1544 13.9924 81.8154L14.0089 81.8059Z" fill="#FF5C8A"/>
<path opacity="0.1" d="M24.6746 94.3567L33.7134 83.0253C34.3029 82.291 34.7326 81.4418 34.9751 80.5319C35.2176 79.622 35.2674 78.6715 35.1215 77.7412C34.9755 76.8109 34.637 75.9214 34.1276 75.1294C33.6181 74.3375 32.949 73.6606 32.163 73.1421L29.5502 71.4653L27.802 70.3365L23.2357 67.3369C21.8335 66.4177 20.1395 66.0527 18.4832 66.3129C16.8268 66.5731 15.3264 67.44 14.2735 68.7449L6.44224 78.5403C5.39142 79.8586 4.87025 81.5216 4.98067 83.2038C5.09108 84.8861 5.82515 86.4666 7.03927 87.6363L14.6949 95.0089C15.3009 95.5924 16.0114 96.0563 16.7893 96.3765C17.3661 96.6214 17.9754 96.7812 18.5982 96.8507C19.7396 96.9876 20.8971 96.8303 21.9607 96.3938C23.0242 95.9572 23.9584 95.256 24.6746 94.3567ZM14.0007 81.8134C13.3656 81.3051 12.8952 80.62 12.6491 79.8447C12.403 79.0693 12.3921 78.2384 12.6179 77.4568C12.8437 76.6753 13.296 75.9782 13.9176 75.4535C14.5393 74.9288 15.3025 74.6001 16.1109 74.5088C16.9193 74.4176 17.7365 74.5679 18.4595 74.9408C19.1825 75.3137 19.7788 75.8925 20.1732 76.604C20.5675 77.3156 20.7421 78.128 20.675 78.9387C20.6079 79.7495 20.3021 80.5221 19.7962 81.1592C19.4595 81.5851 19.0419 81.9401 18.5674 82.204C18.0929 82.4678 17.5709 82.6351 17.0315 82.6964C16.4921 82.7576 15.9458 82.7115 15.4243 82.5608C14.9027 82.4101 14.4161 82.1577 13.9925 81.8181L14.0007 81.8134Z" fill="white"/>
<path d="M31.4207 73.6786L23.0962 68.2052C21.776 67.3367 20.1789 66.9927 18.6182 67.2406C17.0575 67.4886 15.6457 68.3106 14.6596 69.5455L7.32621 78.7409C6.33578 79.9759 5.84255 81.5365 5.94328 83.1163C6.04402 84.6962 6.73144 86.1814 7.8707 87.2807L15.0496 94.1884C15.685 94.8001 16.441 95.2725 17.2693 95.5753C18.0976 95.8782 18.98 96.0048 19.86 95.9472C20.7401 95.8896 21.5984 95.6489 22.3801 95.2406C23.1619 94.8324 23.8498 94.2654 24.4 93.5761L32.8895 82.9456C33.4409 82.2559 33.8424 81.4587 34.0682 80.605C34.294 79.7514 34.3393 78.86 34.2011 77.9878C34.0628 77.1156 33.7442 76.2819 33.2654 75.5399C32.7867 74.7979 32.1584 74.164 31.4207 73.6786ZM13.3428 76.0293C13.8509 75.3933 14.5361 74.9222 15.3118 74.6756C16.0876 74.4289 16.9191 74.4178 17.7011 74.6437C18.4832 74.8695 19.1808 75.3221 19.7056 75.9444C20.2305 76.5666 20.559 77.3305 20.6498 78.1394C20.7406 78.9484 20.5895 79.7661 20.2156 80.4892C19.8417 81.2122 19.2618 81.8082 18.5493 82.2018C17.8367 82.5954 17.0235 82.7688 16.2123 82.7003C15.4012 82.6317 14.6286 82.3242 13.9922 81.8166C13.5689 81.4797 13.2162 81.0626 12.9544 80.5892C12.6925 80.1158 12.5267 79.5954 12.4664 79.0577C12.406 78.5201 12.4524 77.9759 12.6028 77.4562C12.7532 76.9365 13.0047 76.4516 13.3428 76.0293Z" fill="#FF5C8A"/>
<path opacity="0.1" d="M31.4207 73.6786L23.0962 68.2052C21.776 67.3367 20.1789 66.9927 18.6182 67.2406C17.0575 67.4886 15.6457 68.3106 14.6596 69.5455L7.32621 78.7409C6.33578 79.9759 5.84255 81.5365 5.94328 83.1163C6.04402 84.6962 6.73144 86.1814 7.8707 87.2807L15.0496 94.1884C15.685 94.8001 16.441 95.2725 17.2693 95.5753C18.0976 95.8782 18.98 96.0048 19.86 95.9472C20.7401 95.8896 21.5984 95.6489 22.3801 95.2406C23.1619 94.8324 23.8498 94.2654 24.4 93.5761L32.8895 82.9456C33.4409 82.2559 33.8424 81.4587 34.0682 80.605C34.294 79.7514 34.3393 78.86 34.2011 77.9878C34.0628 77.1156 33.7442 76.2819 33.2654 75.5399C32.7867 74.7979 32.1584 74.164 31.4207 73.6786ZM13.3428 76.0293C13.8509 75.3933 14.5361 74.9222 15.3118 74.6756C16.0876 74.4289 16.9191 74.4178 17.7011 74.6437C18.4832 74.8695 19.1808 75.3221 19.7056 75.9444C20.2305 76.5666 20.559 77.3305 20.6498 78.1394C20.7406 78.9484 20.5895 79.7661 20.2156 80.4892C19.8417 81.2122 19.2618 81.8082 18.5493 82.2018C17.8367 82.5954 17.0235 82.7688 16.2123 82.7003C15.4012 82.6317 14.6286 82.3242 13.9922 81.8166C13.5689 81.4797 13.2162 81.0626 12.9544 80.5892C12.6925 80.1158 12.5267 79.5954 12.4664 79.0577C12.406 78.5201 12.4524 77.9759 12.6028 77.4562C12.7532 76.9365 13.0047 76.4516 13.3428 76.0293Z" fill="#FF5C8A"/>
<path d="M57.2083 109.875L56.6618 109.878L56.3473 109.884L55.4529 109.902L53.8038 111.062C53.735 111.113 53.6557 111.148 53.5716 111.163C53.4813 111.182 53.3881 111.18 53.2983 111.159C53.2086 111.138 53.1245 111.098 53.0517 111.041L49.9057 108.527C49.8332 108.469 49.7746 108.397 49.7343 108.314C49.694 108.231 49.6729 108.139 49.6727 108.047C49.6692 107.988 49.6757 107.929 49.6919 107.872L50.5017 104.953L47.968 102.929L47.2201 103.866L44.693 101.843L43.4601 103.383L41.5991 101.897C41.525 101.838 41.4644 101.763 41.4212 101.678C41.378 101.594 41.3532 101.501 41.3484 101.406C41.3433 101.342 41.3488 101.278 41.3646 101.216L41.7663 99.509L39.2367 97.4826L38.0063 99.0263L35.3432 96.9016L34.1087 98.4477C34.0608 98.5081 34.0014 98.5585 33.934 98.5958C33.8666 98.6332 33.7924 98.6568 33.7158 98.6654C33.6392 98.6739 33.5617 98.6672 33.4876 98.6456C33.4136 98.6241 33.3446 98.5881 33.2846 98.5397L25.9986 92.719L32.4401 84.647L58.8045 105.708L58.824 106.245L58.9079 108.033C58.9227 108.267 58.8899 108.501 58.8116 108.722C58.7332 108.943 58.6109 109.145 58.452 109.318C58.2932 109.49 58.101 109.628 57.8873 109.724C57.6735 109.82 57.4425 109.871 57.2083 109.875Z" fill="#FF5C8A"/>
<g opacity="0.1">
<path opacity="0.1" d="M57.2093 109.875L56.6628 109.878L56.3483 109.884L55.4538 109.902L53.8048 111.062C53.736 111.113 53.6566 111.148 53.5726 111.163C53.4823 111.182 53.389 111.18 53.2993 111.159C53.2096 111.138 53.1254 111.098 53.0526 111.041L49.9067 108.527C49.8342 108.469 49.7756 108.397 49.7353 108.314C49.6949 108.231 49.6739 108.139 49.6737 108.047C49.6702 107.988 49.6767 107.929 49.6929 107.872L50.5026 104.953L47.969 102.929L47.2211 103.866L44.6939 101.843L43.4611 103.383L41.6 101.897C41.526 101.838 41.4654 101.763 41.4222 101.678C41.379 101.594 41.3541 101.501 41.3493 101.406C41.3443 101.342 41.3497 101.278 41.3656 101.216L41.7673 99.509L39.2377 97.4826L38.0073 99.0263L35.3442 96.9016L34.1097 98.4477C34.0618 98.5081 34.0024 98.5585 33.935 98.5958C33.8676 98.6332 33.7934 98.6568 33.7168 98.6654C33.6402 98.6739 33.5626 98.6672 33.4886 98.6456C33.4146 98.6241 33.3456 98.5881 33.2856 98.5397L25.9996 92.719L32.4411 84.647L58.8055 105.708L58.825 106.245L58.9089 108.033C58.9237 108.267 58.8909 108.501 58.8125 108.722C58.7342 108.943 58.6119 109.145 58.453 109.318C58.2941 109.49 58.102 109.628 57.8882 109.724C57.6745 109.82 57.4435 109.871 57.2093 109.875Z" fill="white"/>
</g>
<path d="M58.0846 109.23L29.8969 86.7104L31.546 84.629L58.4199 106.098L58.5103 107.887C58.5428 108.57 58.4653 109.015 58.0846 109.23Z" fill="#FF5C8A"/>
<path opacity="0.1" d="M58.0846 109.23L29.8969 86.7104L31.546 84.629L58.4199 106.098L58.5103 107.887C58.5428 108.57 58.4653 109.015 58.0846 109.23Z" fill="black"/>
<path d="M56.1583 109.596L55.3636 109.682C55.3514 109.685 55.3402 109.692 55.3307 109.701L53.7046 110.853C53.6494 110.899 53.5868 110.935 53.5195 110.96C53.5077 110.963 53.4952 110.964 53.4832 110.961C53.4712 110.958 53.46 110.953 53.4506 110.945L50.0216 108.215C50.0115 108.21 50.0031 108.201 49.9972 108.191C49.9914 108.181 49.9883 108.169 49.9883 108.158C49.9892 108.11 49.9971 108.063 50.0119 108.018L50.8751 104.822C50.8762 104.808 50.873 104.794 50.8658 104.781C50.8586 104.769 50.8478 104.759 50.8348 104.752L48.0464 102.525C48.03 102.513 48.0099 102.508 47.99 102.51C47.9701 102.513 47.9518 102.522 47.9386 102.538L47.2681 103.38C47.2619 103.388 47.2542 103.394 47.2454 103.399C47.2367 103.404 47.227 103.408 47.2169 103.409C47.2069 103.41 47.1967 103.409 47.187 103.406C47.1773 103.404 47.1683 103.399 47.1604 103.393L44.7857 101.502C44.7779 101.495 44.7688 101.491 44.7591 101.488C44.7494 101.485 44.7392 101.484 44.7292 101.485C44.7191 101.487 44.7094 101.49 44.7007 101.495C44.6919 101.5 44.6842 101.506 44.678 101.514L43.5249 102.964C43.5192 102.973 43.5117 102.98 43.5029 102.985C43.4941 102.991 43.4843 102.994 43.474 102.995C43.4638 102.997 43.4534 102.996 43.4436 102.992C43.4338 102.989 43.4248 102.984 43.4172 102.977L41.6749 101.593C41.6648 101.587 41.6564 101.578 41.6506 101.568C41.6448 101.558 41.6417 101.547 41.6417 101.535C41.6413 101.485 41.6476 101.435 41.6605 101.387L42.1097 99.3734C42.1097 99.36 42.1062 99.3469 42.0995 99.3354C42.0928 99.3238 42.0832 99.3142 42.0717 99.3076L39.304 97.1062C39.2964 97.0992 39.2874 97.0939 39.2776 97.0907C39.2678 97.0875 39.2574 97.0865 39.2472 97.0877C39.2369 97.0889 39.2271 97.0924 39.2183 97.0978C39.2095 97.1032 39.202 97.1104 39.1963 97.119L38.0133 98.6025C38.0076 98.6111 38.0001 98.6183 37.9913 98.6237C37.9825 98.6291 37.9727 98.6326 37.9624 98.6338C37.9522 98.635 37.9418 98.634 37.932 98.6308C37.9222 98.6276 37.9132 98.6223 37.9056 98.6153L27.2835 90.1594C27.2689 90.1467 27.2597 90.1289 27.2577 90.1096C27.2558 90.0904 27.2612 90.0711 27.273 90.0558L29.3898 87.3315C29.4029 87.3163 29.4213 87.3066 29.4412 87.3042C29.4611 87.3019 29.4812 87.307 29.4975 87.3186L57.1795 109.351C57.1913 109.361 57.1998 109.374 57.2041 109.388C57.2084 109.403 57.2083 109.419 57.2036 109.433C57.199 109.448 57.1901 109.46 57.1782 109.47C57.1662 109.479 57.1517 109.485 57.1365 109.486L56.1583 109.596Z" fill="#FF5C8A"/>
<path opacity="0.1" d="M56.1583 109.596L55.3636 109.682C55.3514 109.685 55.3402 109.692 55.3307 109.701L53.7046 110.853C53.6494 110.899 53.5868 110.935 53.5195 110.96C53.5077 110.963 53.4952 110.964 53.4832 110.961C53.4712 110.958 53.46 110.953 53.4506 110.945L50.0216 108.215C50.0115 108.21 50.0031 108.201 49.9972 108.191C49.9914 108.181 49.9883 108.169 49.9883 108.158C49.9892 108.11 49.9971 108.063 50.0119 108.018L50.8751 104.822C50.8762 104.808 50.873 104.794 50.8658 104.781C50.8586 104.769 50.8478 104.759 50.8348 104.752L48.0464 102.525C48.03 102.513 48.0099 102.508 47.99 102.51C47.9701 102.513 47.9518 102.522 47.9386 102.538L47.2681 103.38C47.2619 103.388 47.2542 103.394 47.2454 103.399C47.2367 103.404 47.227 103.408 47.2169 103.409C47.2069 103.41 47.1967 103.409 47.187 103.406C47.1773 103.404 47.1683 103.399 47.1604 103.393L44.7857 101.502C44.7779 101.495 44.7688 101.491 44.7591 101.488C44.7494 101.485 44.7392 101.484 44.7292 101.485C44.7191 101.487 44.7094 101.49 44.7007 101.495C44.6919 101.5 44.6842 101.506 44.678 101.514L43.5249 102.964C43.5192 102.973 43.5117 102.98 43.5029 102.985C43.4941 102.991 43.4843 102.994 43.474 102.995C43.4638 102.997 43.4534 102.996 43.4436 102.992C43.4338 102.989 43.4248 102.984 43.4172 102.977L41.6749 101.593C41.6648 101.587 41.6564 101.578 41.6506 101.568C41.6448 101.558 41.6417 101.547 41.6417 101.535C41.6413 101.485 41.6476 101.435 41.6605 101.387L42.1097 99.3734C42.1097 99.36 42.1062 99.3469 42.0995 99.3354C42.0928 99.3238 42.0832 99.3142 42.0717 99.3076L39.304 97.1062C39.2964 97.0992 39.2874 97.0939 39.2776 97.0907C39.2678 97.0875 39.2574 97.0865 39.2472 97.0877C39.2369 97.0889 39.2271 97.0924 39.2183 97.0978C39.2095 97.1032 39.202 97.1104 39.1963 97.119L38.0133 98.6025C38.0076 98.6111 38.0001 98.6183 37.9913 98.6237C37.9825 98.6291 37.9727 98.6326 37.9624 98.6338C37.9522 98.635 37.9418 98.634 37.932 98.6308C37.9222 98.6276 37.9132 98.6223 37.9056 98.6153L27.2835 90.1594C27.2689 90.1467 27.2597 90.1289 27.2577 90.1096C27.2558 90.0904 27.2612 90.0711 27.273 90.0558L29.3898 87.3315C29.4029 87.3163 29.4213 87.3066 29.4412 87.3042C29.4611 87.3019 29.4812 87.307 29.4975 87.3186L57.1795 109.351C57.1913 109.361 57.1998 109.374 57.2041 109.388C57.2084 109.403 57.2083 109.419 57.2036 109.433C57.199 109.448 57.1901 109.46 57.1782 109.47C57.1662 109.479 57.1517 109.485 57.1365 109.486L56.1583 109.596Z" fill="black"/>
<path opacity="0.3" d="M19.8802 74.6556C19.0822 74.0198 18.1136 73.6348 17.0969 73.5493C16.0801 73.4637 15.0608 73.6815 14.1678 74.175C13.2748 74.6685 12.5481 75.4157 12.0795 76.3221C11.611 77.2285 11.4216 78.2534 11.5354 79.2674C11.6491 80.2813 12.0609 81.2388 12.7186 82.0189C13.3763 82.7989 14.2505 83.3665 15.2307 83.6499C16.2109 83.9333 17.2531 83.9198 18.2256 83.6111C19.1981 83.3024 20.0573 82.7124 20.6946 81.9156C21.1196 81.3862 21.4358 80.778 21.625 80.126C21.8141 79.4739 21.8726 78.7909 21.7969 78.1163C21.7212 77.4416 21.5129 76.7885 21.184 76.1946C20.855 75.6007 20.4119 75.0777 19.8802 74.6556ZM13.9841 81.8206C13.3477 81.3127 12.8762 80.6274 12.6293 79.8514C12.3824 79.0755 12.3712 78.2437 12.5971 77.4614C12.8229 76.6791 13.2758 75.9813 13.8983 75.4564C14.5208 74.9314 15.285 74.6029 16.0942 74.5124C16.9035 74.4218 17.7214 74.5733 18.4445 74.9477C19.1676 75.3221 19.7635 75.9025 20.1566 76.6156C20.5498 77.3287 20.7227 78.1423 20.6534 78.9536C20.5841 79.765 20.2757 80.5375 19.7673 81.1736C19.0854 82.0228 18.0949 82.5672 17.0125 82.6876C15.9301 82.808 14.8441 82.4945 13.9923 81.8159L13.9841 81.8206Z" fill="white"/>
<path opacity="0.1" d="M18.6044 96.8531C17.9826 96.785 17.3741 96.6266 16.7979 96.383L27.8364 70.3117C27.8364 70.3117 29.2427 71.2377 29.611 71.4198C29.5905 71.4347 29.5735 71.4539 29.5612 71.476C28.5575 72.8997 20.1795 93.219 18.6044 96.8531Z" fill="white"/>
<path opacity="0.1" d="M15.599 95.7315C15.5057 95.6648 11.7085 92.117 11.7085 92.117L15.2909 83.6508C16.4326 83.957 17.6449 83.8621 18.725 83.3817C19.8051 82.9014 20.6876 82.0648 21.2249 81.0119C21.7622 79.9589 21.9218 78.7534 21.6769 77.597C21.4321 76.4405 20.7976 75.4031 19.8796 74.6583C19.6908 74.5027 19.4881 74.3646 19.2742 74.2458L22.4451 66.7573C22.4451 66.7573 26.3745 69.4611 26.8915 69.7109C26.1621 70.2801 15.7635 95.6365 15.599 95.7315Z" fill="white"/>
<path opacity="0.1" d="M26.9289 62.46C26.9536 62.4458 26.966 62.4386 26.9701 62.4362C27.0448 62.5085 27.0211 62.5057 26.9289 62.46Z" fill="white"/>
<path d="M128 2.82154L112.407 25.4519C111.92 26.1588 111.622 26.9788 111.543 27.8335C111.464 28.6882 111.605 29.549 111.953 30.3335C112.302 31.1181 112.846 31.8 113.533 32.3142C114.22 32.8284 115.028 33.1576 115.879 33.2702L144.542 37.0864C145.444 37.2065 146.361 37.0792 147.195 36.7182C148.03 36.3572 148.751 35.7761 149.281 35.037C149.811 34.2979 150.13 33.4286 150.204 32.5222C150.278 31.6158 150.104 30.7064 149.701 29.8912L136.631 3.43535C136.243 2.6516 135.657 1.98289 134.931 1.49556C134.204 1.00823 133.364 0.719209 132.491 0.65717C131.619 0.595132 130.746 0.762234 129.958 1.14189C129.17 1.52155 128.495 2.10058 128 2.82154Z" fill="#FF5C8A"/>
<path d="M116.558 31.2488C116.04 31.1784 115.548 30.9811 115.125 30.6745C114.702 30.3678 114.362 29.9613 114.134 29.4911C113.899 29.0467 113.789 28.5471 113.814 28.045C113.84 27.543 114.001 27.0572 114.28 26.6391L129.913 3.94049C130.196 3.5356 130.587 3.21849 131.041 3.0255C131.496 2.83251 131.995 2.77144 132.483 2.84927C133.001 2.91913 133.493 3.11624 133.916 3.42298C134.34 3.72972 134.68 4.13652 134.907 4.607L148.002 31.1279C148.237 31.5724 148.347 32.072 148.322 32.574C148.296 33.076 148.135 33.5618 147.856 33.98C147.574 34.3857 147.183 34.7036 146.729 34.8972C146.274 35.0908 145.774 35.1522 145.286 35.0743L116.558 31.2488Z" fill="white"/>
<path d="M131.152 10.8726L132.978 11.1144C133.549 11.195 134.071 11.4828 134.443 11.9231C134.815 12.3633 135.012 12.9252 134.997 13.5015L134.873 15.8823C134.87 15.9687 134.86 16.0547 134.845 16.1396L133.546 23.3162C133.453 23.8109 133.17 24.2496 132.759 24.5391C132.347 24.8287 131.839 24.946 131.342 24.8663C130.814 24.7913 130.328 24.54 129.961 24.1533C129.595 23.7666 129.37 23.2672 129.323 22.7365L128.8 15.3212C128.793 15.2356 128.793 15.1496 128.8 15.0639L128.92 12.68C128.934 12.4091 129.004 12.1441 129.126 11.9023C129.249 11.6605 129.421 11.4473 129.632 11.2766C129.843 11.106 130.087 10.9818 130.349 10.9122C130.611 10.8426 130.885 10.8291 131.152 10.8726ZM131.007 26.8565L131.503 26.9216C132.014 26.9937 132.48 27.2513 132.814 27.6451C133.147 28.039 133.324 28.5417 133.31 29.0575C133.299 29.3008 133.237 29.5389 133.128 29.7564C133.018 29.9739 132.864 30.1658 132.675 30.3195C132.486 30.4732 132.267 30.5852 132.032 30.6482C131.797 30.7112 131.551 30.7238 131.311 30.6851L130.815 30.6169C130.304 30.5454 129.837 30.2885 129.504 29.8952C129.171 29.5018 128.994 28.9995 129.007 28.484C129.018 28.2406 129.08 28.0022 129.189 27.7845C129.298 27.5668 129.452 27.3747 129.641 27.2209C129.83 27.0671 130.05 26.9551 130.285 26.8923C130.52 26.8295 130.766 26.8173 131.007 26.8565Z" fill="#FF5C8A"/>
</svg>
