<svg width="328" height="329" viewBox="0 0 328 329" fill="none" xmlns="http://www.w3.org/2000/svg">
<rect width="328" height="328" transform="translate(0 0.0117188)" fill="white"/>
<path d="M223.001 67.6229C173.634 63.257 86.9686 93.1841 56.8666 131.837C28.5071 168.228 39.299 222.81 89.5014 227.869C147.309 233.699 212.675 205.741 252.889 167.846C289.611 133.242 282.978 72.9023 223.001 67.6229Z" fill="#FF5C8A"/>
<path opacity="0.9" d="M223.001 67.6229C173.634 63.257 86.9686 93.1841 56.8666 131.837C28.5071 168.228 39.299 222.81 89.5014 227.869C147.309 233.699 212.675 205.741 252.889 167.846C289.611 133.242 282.978 72.9023 223.001 67.6229Z" fill="white"/>
<path d="M163.943 284.345C233.308 284.345 289.54 281.062 289.54 277.012C289.54 272.963 233.308 269.68 163.943 269.68C94.5782 269.68 38.3467 272.963 38.3467 277.012C38.3467 281.062 94.5782 284.345 163.943 284.345Z" fill="#F5F5F5"/>
<path d="M212.883 91.9295C209.793 95.8161 204.766 92.4089 205.867 88.8267C206.541 86.6307 214.845 89.4421 212.883 91.9295Z" fill="#1C2D5E"/>
<path d="M224.498 93.7498C222.691 92.7199 216.077 92.7782 214.224 92.7782C212.372 92.7782 209.042 92.3765 208.155 93.264C207.267 94.1514 208.958 98.6664 208.958 98.6664C208.958 98.6664 216.971 102.203 219.892 102.203C222.814 102.203 226.61 94.9547 224.498 93.7498Z" fill="#FF5C8A"/>
<path opacity="0.6" d="M224.498 93.7498C222.691 92.7199 216.077 92.7782 214.224 92.7782C212.372 92.7782 209.042 92.3765 208.155 93.264C207.267 94.1514 208.958 98.6664 208.958 98.6664C208.958 98.6664 216.971 102.203 219.892 102.203C222.814 102.203 226.61 94.9547 224.498 93.7498Z" fill="black"/>
<path d="M204.96 266.406H198.871C198.758 266.411 198.649 266.457 198.567 266.535C198.484 266.614 198.434 266.72 198.424 266.834L197.582 272.437C197.556 272.567 197.558 272.701 197.587 272.83C197.617 272.959 197.673 273.08 197.752 273.186C197.832 273.292 197.933 273.38 198.049 273.444C198.164 273.508 198.293 273.547 198.424 273.558C200.549 273.512 201.579 273.37 204.254 273.37C205.9 273.37 210.35 273.571 212.624 273.571C214.897 273.571 215.092 270.98 214.146 270.714C209.929 269.652 207.254 268.188 205.854 266.795C205.739 266.674 205.6 266.577 205.447 266.51C205.293 266.444 205.128 266.408 204.96 266.406Z" fill="#1C2D5E"/>
<path d="M222.722 147.688C222.722 147.688 217.754 184.611 216.653 199.237C215.603 213.093 214.062 244.491 211.723 254.298C211.536 255.007 211.113 255.631 210.525 256.069C209.937 256.507 209.217 256.732 208.484 256.708L199.117 256.578C198.663 256.596 198.209 256.516 197.788 256.344C197.367 256.172 196.988 255.911 196.676 255.579C196.365 255.247 196.128 254.852 195.983 254.421C195.838 253.99 195.786 253.533 195.833 253.08C197.42 242.068 199.584 213.611 199.96 200.52C200.452 183.496 198.709 160.5 204.002 147.694L222.722 147.688Z" fill="#FF5C8A"/>
<path d="M201.955 256.908C201.421 256.913 200.892 256.803 200.405 256.585C199.918 256.367 199.483 256.046 199.131 255.645C198.821 255.295 198.59 254.882 198.455 254.435C198.32 253.988 198.283 253.517 198.347 253.054C199.966 241.841 202.11 212.963 202.467 200.39C202.59 196.315 202.577 191.969 202.564 187.363C202.532 172.62 202.493 157.378 206.541 147.59L207.15 147.842C203.147 157.507 203.186 173.371 203.225 187.357C203.225 191.962 203.225 196.315 203.127 200.403C202.765 212.989 200.621 241.912 199.001 253.144C198.951 253.518 198.983 253.899 199.095 254.259C199.206 254.619 199.396 254.951 199.649 255.23C199.94 255.559 200.298 255.821 200.699 256C201.101 256.179 201.535 256.27 201.974 256.267L201.955 256.908Z" fill="white"/>
<path d="M198.197 268.347L205.718 269.299L208.49 256.7L199.124 256.57L198.197 268.347Z" fill="#1C2D5E"/>
<path d="M249.599 265.31L243.769 266.942C243.718 266.959 243.671 266.985 243.63 267.021C243.59 267.057 243.558 267.1 243.535 267.149C243.513 267.197 243.501 267.25 243.5 267.304C243.498 267.357 243.508 267.411 243.529 267.46L245.135 272.863C245.213 273.134 245.389 273.366 245.628 273.515C245.868 273.663 246.154 273.717 246.431 273.666C248.452 273.057 249.372 272.649 251.937 271.93C253.511 271.489 257.858 270.479 260.034 269.864C262.211 269.248 261.271 266.787 260.267 266.819C255.765 266.974 252.572 266.34 250.635 265.426C250.316 265.259 249.946 265.218 249.599 265.31Z" fill="#1C2D5E"/>
<path d="M236.533 172.66C237.639 173.014 238.607 173.702 239.304 174.631C240 175.56 240.39 176.682 240.42 177.842C240.627 180.913 242.24 184.488 242.078 186.762C241.916 189.036 239.183 190.539 239.183 190.539L236.533 172.66Z" fill="#FF5C8A"/>
<path opacity="0.1" d="M236.533 172.66C237.639 173.014 238.607 173.702 239.304 174.631C240 175.56 240.39 176.682 240.42 177.842C240.627 180.913 242.24 184.488 242.078 186.762C241.916 189.036 239.183 190.539 239.183 190.539L236.533 172.66Z" fill="black"/>
<path d="M233.009 147.688C233.009 147.688 239.189 186.418 242.078 201.738C244.669 215.218 246.878 241.556 250.194 253.346C250.583 254.712 249.754 255.989 248.251 256.41L239.228 258.826C237.284 259.37 235.03 258.295 234.389 256.539C230.567 246.129 229.42 220.154 226.421 204.925C221.122 190.33 214.25 147.688 214.25 147.688H233.009Z" fill="#FF5C8A"/>
<path d="M243.489 267.497L250.433 266.642L248.296 256.414L239.279 258.83L243.489 267.497Z" fill="#1C2D5E"/>
<path d="M200.562 100.661C198.489 101.47 197.064 103.997 197.537 106.044C201.845 124.583 197.447 149.444 201.048 156.214C213.317 158.248 225.016 159.252 234.564 156.214C238.243 133.6 233.32 109.626 231.791 104.262C231.422 102.967 230.237 102.144 228.896 101.619C224.238 99.8186 205.9 98.5878 200.562 100.661Z" fill="#FF5C8A"/>
<path opacity="0.4" d="M200.562 100.661C198.489 101.47 197.064 103.997 197.537 106.044C201.845 124.583 197.447 149.444 201.048 156.214C213.317 158.248 225.016 159.252 234.564 156.214C238.243 133.6 233.32 109.626 231.791 104.262C231.422 102.967 230.237 102.144 228.896 101.619C224.238 99.8186 205.9 98.5878 200.562 100.661Z" fill="black"/>
<path d="M211.555 89.9297C211.937 93.5637 211.691 98.0787 207.875 100.553C207.875 100.553 209.255 104.226 218.369 104.116C226.693 104.012 223.111 100.365 223.111 100.365C217.799 99.4584 218.888 94.4252 220.287 91.5815L211.555 89.9297Z" fill="#FF8B7B"/>
<path opacity="0.2" d="M220.299 91.5932C219.464 93.2645 218.751 95.6807 219.386 97.5851C218.581 97.5069 217.789 97.3284 217.028 97.0539C214.12 96.011 212.87 94.3333 211.691 91.8264C211.691 91.1787 211.626 90.5309 211.561 89.9414L220.299 91.5932Z" fill="black"/>
<path d="M219.296 77.1674C223.642 77.4588 222.185 81.624 220.773 82.9973C219.36 84.3706 216.543 76.986 219.296 77.1674Z" fill="#1C2D5E"/>
<path d="M221.466 79.7553C225.469 81.3488 222.632 84.8403 220.818 85.7083C219.004 86.5764 218.926 78.7383 221.466 79.7553Z" fill="#1C2D5E"/>
<path d="M207.273 85.2634C208.964 90.1088 209.689 93.0367 213.012 94.98C218.006 97.9727 223.772 94.4165 223.642 89.2667C223.519 84.6286 220.779 77.4837 215.163 76.5574C209.547 75.6311 205.589 80.4116 207.273 85.2634Z" fill="#FF8B7B"/>
<path d="M208.355 88.3872C210.57 88.4325 209.773 83.626 209.145 82.771C211.412 82.3694 219.853 79.435 219.885 78.2366C219.918 77.0382 218.097 74.9977 215.409 75.2244C212.721 75.4512 205.55 77.8155 205.239 80.1346C204.928 82.4536 204.39 87.2277 208.355 88.3872Z" fill="#1C2D5E"/>
<path d="M220.507 77.3418C221.395 81.3126 216.698 81.1442 214.898 80.2503C213.097 79.3564 219.944 74.796 220.507 77.3418Z" fill="#1C2D5E"/>
<path d="M207.209 89.6486C202.966 88.7223 205.11 84.8292 206.742 83.6762C208.375 82.5231 209.897 90.2446 207.209 89.6486Z" fill="#1C2D5E"/>
<path d="M218.862 90.3811C217.847 90.4718 216.837 90.1704 216.037 89.539C216.026 89.5281 216.017 89.515 216.011 89.5006C216.005 89.4861 216.001 89.4705 216.001 89.4548C216.001 89.439 216.005 89.4235 216.011 89.409C216.017 89.3945 216.026 89.3815 216.037 89.3706C216.062 89.3483 216.095 89.3359 216.128 89.3359C216.162 89.3359 216.194 89.3483 216.219 89.3706C216.656 89.7008 217.157 89.9349 217.691 90.0577C218.224 90.1805 218.778 90.1892 219.315 90.0831C219.348 90.0767 219.381 90.0824 219.41 90.0991C219.439 90.1158 219.46 90.1424 219.471 90.1738C219.476 90.2056 219.469 90.2383 219.451 90.2649C219.433 90.2916 219.405 90.31 219.373 90.3163C219.204 90.3469 219.033 90.3685 218.862 90.3811Z" fill="#1C2D5E"/>
<path d="M206.8 90.1572C207.742 91.0198 208.969 91.5043 210.246 91.5176C211.93 91.5176 212.254 90.0082 211.347 88.7321C210.538 87.5856 208.679 86.1993 207.195 86.7888C205.712 87.3783 205.666 89.1014 206.8 90.1572Z" fill="#FF8B7B"/>
<path opacity="0.2" d="M219.917 104.859C221.051 110.845 222.93 135.778 221.932 154.155C224.251 131.198 219.917 104.859 219.917 104.859Z" fill="black"/>
<path d="M215.512 85.0245C215.622 85.4261 215.94 85.6722 216.212 85.6722C216.484 85.6722 216.626 85.2447 216.51 84.8431C216.393 84.4415 216.089 84.1953 215.81 84.1953C215.532 84.1953 215.402 84.6293 215.512 85.0245Z" fill="#1C2D5E"/>
<path d="M220.3 84.0596C220.41 84.4548 220.728 84.7074 221 84.7074C221.272 84.7074 221.414 84.2799 221.298 83.8782C221.181 83.4766 220.877 83.2305 220.598 83.2305C220.32 83.2305 220.171 83.658 220.3 84.0596Z" fill="#1C2D5E"/>
<path d="M218.823 84.4688C219.594 85.4894 220.496 86.4041 221.505 87.1894C221.283 87.4212 221.013 87.6029 220.715 87.7224C220.417 87.8419 220.096 87.8965 219.775 87.8825L218.823 84.4688Z" fill="#FF5652"/>
<path d="M214.301 84.6703C214.337 84.6609 214.369 84.643 214.396 84.6182C214.423 84.5934 214.444 84.5624 214.456 84.5278C214.558 84.2372 214.729 83.9759 214.955 83.767C215.181 83.558 215.454 83.4078 215.752 83.3294C215.783 83.3242 215.813 83.3125 215.84 83.2949C215.867 83.2773 215.889 83.2543 215.906 83.2274C215.923 83.2005 215.935 83.1703 215.939 83.1388C215.944 83.1072 215.942 83.0751 215.933 83.0444C215.912 82.9798 215.869 82.925 215.81 82.8904C215.752 82.8558 215.683 82.8438 215.616 82.8565C215.242 82.9543 214.899 83.1425 214.615 83.4046C214.331 83.6667 214.117 83.9946 213.99 84.3594C213.972 84.4212 213.979 84.4878 214.009 84.5447C214.039 84.6016 214.091 84.6444 214.152 84.6638C214.2 84.6786 214.252 84.6808 214.301 84.6703Z" fill="#1C2D5E"/>
<path d="M222.243 82.5281C222.275 82.5091 222.302 82.4824 222.321 82.4503C222.338 82.4231 222.348 82.3927 222.352 82.361C222.357 82.3294 222.354 82.2972 222.345 82.2666C222.336 82.2361 222.32 82.2078 222.299 82.1836C222.278 82.1595 222.253 82.14 222.224 82.1264C221.87 81.9184 221.475 81.7903 221.067 81.7511C220.658 81.712 220.246 81.7627 219.859 81.8997C219.83 81.9114 219.804 81.9291 219.783 81.9516C219.761 81.9741 219.745 82.001 219.734 82.0304C219.724 82.0598 219.72 82.091 219.722 82.1221C219.725 82.1532 219.734 82.1834 219.749 82.2107C219.782 82.2705 219.837 82.3156 219.901 82.3372C219.966 82.3588 220.037 82.3553 220.099 82.3272C220.407 82.2234 220.734 82.1875 221.057 82.2222C221.38 82.2569 221.692 82.3612 221.971 82.5281C222.012 82.5519 222.059 82.5645 222.107 82.5645C222.155 82.5645 222.202 82.5519 222.243 82.5281Z" fill="#1C2D5E"/>
<path d="M218.589 105.012L219.464 101.313C219.464 101.313 217.566 95.6905 216.296 95.4508C214.471 95.5177 212.664 95.0686 211.082 94.1552C209.89 93.5787 209.618 93.1577 209.067 93.0411C208.93 93.0083 208.787 93.0029 208.648 93.0252C208.508 93.0475 208.375 93.0971 208.254 93.1711C208.134 93.2451 208.029 93.342 207.947 93.4564C207.864 93.5708 207.804 93.7004 207.772 93.8378C207.346 95.8506 207.052 97.8889 206.891 99.9399C208.957 102.978 212.351 104.429 218.589 105.012Z" fill="#FF5C8A"/>
<path opacity="0.4" d="M218.589 105.012L219.464 101.313C219.464 101.313 217.566 95.6905 216.296 95.4508C214.471 95.5177 212.664 95.0686 211.082 94.1552C209.89 93.5787 209.618 93.1577 209.067 93.0411C208.93 93.0083 208.787 93.0029 208.648 93.0252C208.508 93.0475 208.375 93.0971 208.254 93.1711C208.134 93.2451 208.029 93.342 207.947 93.4564C207.864 93.5708 207.804 93.7004 207.772 93.8378C207.346 95.8506 207.052 97.8889 206.891 99.9399C208.957 102.978 212.351 104.429 218.589 105.012Z" fill="black"/>
<path d="M218.589 105.008L219.464 101.309C219.464 101.309 222.055 97.1889 222.243 95.4205C224.186 94.3647 221.459 93.4772 224.141 93.6456C225.255 93.7169 225.274 95.712 225.274 95.712C225.165 97.6657 224.949 99.612 224.627 101.542C223.642 103.79 221.686 104.807 218.589 105.008Z" fill="#FF5C8A"/>
<path opacity="0.4" d="M218.589 105.008L219.464 101.309C219.464 101.309 222.055 97.1889 222.243 95.4205C224.186 94.3647 221.459 93.4772 224.141 93.6456C225.255 93.7169 225.274 95.712 225.274 95.712C225.165 97.6657 224.949 99.612 224.627 101.542C223.642 103.79 221.686 104.807 218.589 105.008Z" fill="black"/>
<path d="M202.628 100.511C202.547 100.471 202.478 100.408 202.432 100.329C202.387 100.251 202.365 100.16 202.371 100.069C202.376 99.9784 202.408 99.8912 202.464 99.8188C202.519 99.7463 202.594 99.6919 202.68 99.6623C203.879 99.1894 205.764 98.5546 206.975 98.723C208.86 98.9951 214.748 110.927 216.692 120.715C218.635 130.503 217.223 145.33 216.517 148.174C208.096 148.245 200.193 146.412 198.379 145.356C198.094 141.567 198.975 121.557 198.975 121.557C198.975 121.557 206.956 113.622 206.159 107.053C205.641 102.752 203.82 101.126 202.628 100.511Z" fill="#FF5C8A"/>
<path opacity="0.6" d="M202.628 100.511C202.547 100.471 202.478 100.408 202.432 100.329C202.387 100.251 202.365 100.16 202.371 100.069C202.376 99.9784 202.408 99.8912 202.464 99.8188C202.519 99.7463 202.594 99.6919 202.68 99.6623C203.879 99.1894 205.764 98.5546 206.975 98.723C208.86 98.9951 214.748 110.927 216.692 120.715C218.635 130.503 217.223 145.33 216.517 148.174C208.096 148.245 200.193 146.412 198.379 145.356C198.094 141.567 198.975 121.557 198.975 121.557C198.975 121.557 206.956 113.622 206.159 107.053C205.641 102.752 203.82 101.126 202.628 100.511Z" fill="white"/>
<path d="M195.788 152.192L197.083 155.502C197.394 156.271 197.44 157.121 197.213 157.918L196.649 159.862C196.528 160.238 196.274 160.558 195.934 160.761C195.594 160.964 195.192 161.035 194.803 160.963L192.283 160.548C191.887 160.492 191.528 160.281 191.286 159.963C191.043 159.644 190.936 159.242 190.988 158.845L191.435 155.949C191.435 155.949 189.99 151.965 193.048 150.242L195.788 152.192Z" fill="#FF5C8A"/>
<path opacity="0.3" d="M195.788 152.192L197.083 155.502C197.394 156.271 197.44 157.121 197.213 157.918L196.649 159.862C196.528 160.238 196.274 160.558 195.934 160.761C195.594 160.964 195.192 161.035 194.803 160.963L192.283 160.548C191.887 160.492 191.528 160.281 191.286 159.963C191.043 159.644 190.936 159.242 190.988 158.845L191.435 155.949C191.435 155.949 189.99 151.965 193.048 150.242L195.788 152.192Z" fill="white"/>
<path d="M196.831 149.766C197.012 150.349 197.068 150.964 196.995 151.57C196.921 152.177 196.719 152.76 196.403 153.283C195.559 153.714 194.624 153.939 193.676 153.939C192.728 153.939 191.793 153.714 190.949 153.283C190.714 152.908 190.597 152.47 190.614 152.028C190.632 151.585 190.782 151.158 191.046 150.802L196.831 149.766Z" fill="#FF5C8A"/>
<path d="M198.366 102.488L200.05 103.473C201.924 104.501 203.328 106.213 203.969 108.252C204.61 110.291 204.439 112.499 203.49 114.414C200.543 120.244 196.818 128.056 196.805 129.999C196.805 134.391 197.66 145.28 197.22 150.534C196.099 152.134 191.325 152.814 190.314 151.972C187.393 144.846 187.315 131.826 187.769 127.9C188.792 118.955 198.366 102.488 198.366 102.488Z" fill="#FF5C8A"/>
<path opacity="0.4" d="M198.366 102.488L200.05 103.473C201.924 104.501 203.328 106.213 203.969 108.252C204.61 110.291 204.439 112.499 203.49 114.414C200.543 120.244 196.818 128.056 196.805 129.999C196.805 134.391 197.66 145.28 197.22 150.534C196.099 152.134 191.325 152.814 190.314 151.972C187.393 144.846 187.315 131.826 187.769 127.9C188.792 118.955 198.366 102.488 198.366 102.488Z" fill="black"/>
<path d="M247.357 148.86L250.123 151.283C250.756 151.837 251.197 152.579 251.38 153.401L251.807 155.403C251.879 155.784 251.8 156.179 251.588 156.503C251.375 156.828 251.045 157.058 250.667 157.145L248.212 157.793C247.816 157.908 247.392 157.871 247.023 157.689C246.653 157.507 246.366 157.192 246.217 156.808L245.252 154.029C245.252 154.029 242.065 151.037 244.001 148.238L247.357 148.86Z" fill="#FF5C8A"/>
<path opacity="0.3" d="M247.357 148.86L250.123 151.283C250.756 151.837 251.197 152.579 251.38 153.401L251.807 155.403C251.879 155.784 251.8 156.179 251.588 156.503C251.375 156.828 251.045 157.058 250.667 157.145L248.212 157.793C247.816 157.908 247.392 157.871 247.023 157.689C246.653 157.507 246.366 157.192 246.217 156.808L245.252 154.029C245.252 154.029 242.065 151.037 244.001 148.238L247.357 148.86Z" fill="white"/>
<path d="M247.143 146.254C247.584 146.686 247.927 147.207 248.15 147.782C248.374 148.358 248.472 148.974 248.439 149.59C247.868 150.334 247.122 150.927 246.268 151.315C245.414 151.704 244.478 151.876 243.542 151.818C243.156 151.591 242.846 151.254 242.652 150.851C242.458 150.447 242.389 149.994 242.454 149.551L247.143 146.254Z" fill="#FF5C8A"/>
<path d="M222.709 102.161H224.692C229.356 102.122 233.314 105.335 233.922 109.642C234.829 116.062 236.196 124.483 237.317 126.135C239.837 129.84 245.777 141.901 247.856 146.799C247.61 148.69 243.652 151.262 242.343 150.931C236.339 145.697 230.386 132.437 228.488 128.907C224.186 120.842 222.709 102.161 222.709 102.161Z" fill="#FF5C8A"/>
<path opacity="0.4" d="M222.709 102.161H224.692C229.356 102.122 233.314 105.335 233.922 109.642C234.829 116.062 236.196 124.483 237.317 126.135C239.837 129.84 245.777 141.901 247.856 146.799C247.61 148.69 243.652 151.262 242.343 150.931C236.339 145.697 230.386 132.437 228.488 128.907C224.186 120.842 222.709 102.161 222.709 102.161Z" fill="black"/>
<path d="M225.637 101.407C226.563 106.447 228.843 127.538 225.274 148.17C228.643 148.552 232.055 148.257 235.308 147.302C235.741 147.191 236.125 146.94 236.401 146.589C236.678 146.238 236.831 145.805 236.837 145.358C236.72 140.176 236.254 122.622 235.36 115.321C234.304 106.706 232.076 102.767 230.489 101.919C229.214 101.353 227.88 100.931 226.511 100.662C226.402 100.632 226.287 100.629 226.176 100.653C226.065 100.677 225.962 100.729 225.876 100.802C225.79 100.876 225.723 100.969 225.681 101.075C225.639 101.18 225.624 101.294 225.637 101.407Z" fill="#FF5C8A"/>
<path opacity="0.6" d="M225.637 101.407C226.563 106.447 228.843 127.538 225.274 148.17C228.643 148.552 232.055 148.257 235.308 147.302C235.741 147.191 236.125 146.94 236.401 146.589C236.678 146.238 236.831 145.805 236.837 145.358C236.72 140.176 236.254 122.622 235.36 115.321C234.304 106.706 232.076 102.767 230.489 101.919C229.214 101.353 227.88 100.931 226.511 100.662C226.402 100.632 226.287 100.629 226.176 100.653C226.065 100.677 225.962 100.729 225.876 100.802C225.79 100.876 225.723 100.969 225.681 101.075C225.639 101.18 225.624 101.294 225.637 101.407Z" fill="white"/>
<path d="M218.9 76.4875C221.491 75.6843 225.087 75.49 223.435 77.2843C221.783 79.0786 220.196 76.2349 215.985 80.7175C211.775 85.2001 207.305 84.1377 207.305 84.1377C207.305 84.1377 212.014 78.5928 218.9 76.4875Z" fill="#FF5C8A"/>
<path d="M219.885 76.5591C219.302 75.3218 215.195 72.355 213.323 72.4393C209.961 72.5947 205.349 76.1316 203.729 77.8935C201.961 79.8368 203.146 82.9008 205.265 85.4336C211.393 82.687 219.885 76.5591 219.885 76.5591Z" fill="#FF5C8A"/>
<path opacity="0.2" d="M219.885 76.5591C219.302 75.3218 215.195 72.355 213.323 72.4393C209.961 72.5947 205.349 76.1316 203.729 77.8935C201.961 79.8368 203.146 82.9008 205.265 85.4336C211.393 82.687 219.885 76.5591 219.885 76.5591Z" fill="white"/>
<path d="M107.917 79.2825C109.737 78.1683 116.39 78.2331 118.282 78.2331C120.173 78.2331 123.503 77.7926 124.41 78.7578C125.316 79.723 123.6 84.5878 123.6 84.5878C123.6 84.5878 115.509 88.4161 112.588 88.4161C109.666 88.4161 105.793 80.5781 107.917 79.2825Z" fill="#FF5C8A"/>
<path opacity="0.4" d="M107.917 79.2825C109.737 78.1683 116.39 78.2331 118.282 78.2331C120.173 78.2331 123.503 77.7926 124.41 78.7578C125.316 79.723 123.6 84.5878 123.6 84.5878C123.6 84.5878 115.509 88.4161 112.588 88.4161C109.666 88.4161 105.793 80.5781 107.917 79.2825Z" fill="black"/>
<path d="M130.907 266.066H137.048C137.167 266.076 137.279 266.128 137.363 266.214C137.446 266.3 137.495 266.413 137.501 266.533L138.343 272.596C138.374 272.731 138.377 272.872 138.35 273.008C138.324 273.144 138.269 273.274 138.19 273.388C138.111 273.502 138.009 273.598 137.89 273.67C137.771 273.742 137.639 273.789 137.501 273.807C135.357 273.762 134.321 273.606 131.62 273.606C129.955 273.606 125.472 273.82 123.198 273.82C120.925 273.82 120.711 270.989 121.663 270.73C125.919 269.584 128.614 267.997 130.026 266.487C130.137 266.361 130.272 266.259 130.423 266.187C130.575 266.114 130.739 266.074 130.907 266.066Z" fill="#1C2D5E"/>
<path d="M109.705 137.626C109.705 137.626 115.535 178.08 117.478 193.84C119.312 208.739 121.708 242.365 124.086 252.969C124.255 253.702 124.667 254.357 125.255 254.827C125.842 255.298 126.572 255.556 127.324 255.56L136.775 255.424C137.252 255.424 137.722 255.323 138.156 255.126C138.59 254.93 138.977 254.643 139.29 254.284C139.604 253.926 139.837 253.505 139.974 253.049C140.111 252.593 140.149 252.113 140.086 251.641C138.486 239.741 135.448 208.454 134.333 194.326C132.889 175.961 133.899 151.463 128.562 137.613L109.705 137.626Z" fill="#FF5C8A"/>
<path d="M133.932 255.784V255.098C134.359 255.098 134.781 255.007 135.17 254.83C135.559 254.654 135.905 254.396 136.187 254.075C136.468 253.753 136.677 253.375 136.799 252.966C136.922 252.557 136.956 252.127 136.899 251.704C135.279 239.61 132.209 207.888 131.147 194.376C130.732 189.135 130.499 183.513 130.305 177.534C129.76 162.81 129.197 147.587 125.401 137.734L126.049 137.488C129.883 147.445 130.454 162.751 130.998 177.514C131.218 183.454 131.425 189.07 131.84 194.298C132.902 207.804 135.966 239.506 137.585 251.593C137.657 252.114 137.616 252.643 137.465 253.146C137.314 253.649 137.057 254.114 136.712 254.51C136.366 254.905 135.94 255.222 135.461 255.438C134.983 255.655 134.464 255.766 133.939 255.765L133.932 255.784Z" fill="white"/>
<path d="M137.721 268.186L130.136 269.209L127.337 255.574L136.788 255.438L137.721 268.186Z" fill="#1C2D5E"/>
<path d="M99.3144 266.066H105.455C105.512 266.07 105.567 266.086 105.618 266.112C105.669 266.137 105.714 266.173 105.751 266.216C105.788 266.26 105.815 266.31 105.833 266.365C105.85 266.419 105.856 266.476 105.85 266.533L105.98 272.596C106.001 272.885 105.91 273.172 105.727 273.397C105.545 273.622 105.283 273.768 104.995 273.807C102.858 273.762 101.841 273.606 99.1654 273.606C97.5006 273.606 92.9921 273.82 90.699 273.82C88.4059 273.82 88.5419 270.989 89.5265 270.73C93.9184 269.584 96.801 267.997 98.3881 266.487C98.633 266.236 98.9637 266.086 99.3144 266.066Z" fill="#1C2D5E"/>
<path d="M98.0456 163.383C97.0275 163.831 96.1712 164.58 95.5921 165.53C95.013 166.48 94.7389 167.584 94.8067 168.695C94.8067 171.726 93.55 175.321 93.835 177.55C94.1201 179.778 96.7176 181.093 96.7176 181.093L98.0456 163.383Z" fill="#FF5C8A"/>
<path opacity="0.1" d="M98.0456 163.383C97.0275 163.831 96.1712 164.58 95.5921 165.53C95.013 166.48 94.7389 167.584 94.8067 168.695C94.8067 171.726 93.55 175.321 93.835 177.55C94.1201 179.778 96.7176 181.093 96.7176 181.093L98.0456 163.383Z" fill="black"/>
<path d="M99.3341 137.626C99.3341 137.626 95.6418 180.379 94.6896 197.163C93.8475 211.952 93.6726 239.793 94.1713 252.969C94.1838 253.325 94.2669 253.674 94.4157 253.998C94.5645 254.322 94.7762 254.612 95.0383 254.853C95.3005 255.095 95.608 255.281 95.9429 255.402C96.2778 255.524 96.6334 255.577 96.9892 255.56L106.46 255.424C107.469 255.391 108.431 254.987 109.16 254.289C109.889 253.591 110.335 252.648 110.411 251.641C110.826 239.741 109.705 215.424 110.754 198.705C114.188 182.394 118.204 137.613 118.204 137.613L99.3341 137.626Z" fill="#FF5C8A"/>
<path d="M105.883 268.186L98.1812 269.209L96.9893 255.574L106.453 255.438L105.883 268.186Z" fill="#1C2D5E"/>
<path d="M132.059 86.757C133.125 87.2735 133.997 88.1191 134.545 89.169C135.093 90.2188 135.289 91.4172 135.104 92.587C130.757 112.668 135.195 139.531 131.561 146.87C119.195 149.073 107.379 150.161 97.7599 146.87C94.0547 122.404 99.0166 96.4607 100.558 90.6566C100.934 89.238 102.132 88.37 103.48 87.8064C108.176 85.8243 126.67 84.4639 132.059 86.757Z" fill="#FF5C8A"/>
<path opacity="0.2" d="M132.059 86.757C133.125 87.2735 133.997 88.1191 134.545 89.169C135.093 90.2188 135.289 91.4172 135.104 92.587C130.757 112.668 135.195 139.531 131.561 146.87C119.195 149.073 107.379 150.161 97.7599 146.87C94.0547 122.404 99.0166 96.4607 100.558 90.6566C100.934 89.238 102.132 88.37 103.48 87.8064C108.176 85.8243 126.67 84.4639 132.059 86.757Z" fill="black"/>
<path d="M120.97 75.1172C120.588 79.0556 120.828 83.9398 124.682 86.6151C124.682 86.6151 123.283 90.5925 114.097 90.5018C105.676 90.3917 109.31 86.4467 109.31 86.4467C114.667 85.4686 113.579 80.0208 112.16 76.9439L120.97 75.1172Z" fill="#B55B52"/>
<path opacity="0.2" d="M112.16 76.9115C112.995 78.7188 113.714 81.3358 113.08 83.3892C113.893 83.3033 114.693 83.1117 115.457 82.8192C118.391 81.6921 119.648 79.8718 120.84 77.1642C120.84 76.4646 120.905 75.7779 120.969 75.1172L112.16 76.9115Z" fill="black"/>
<path d="M108.13 72.5083C108.33 73.14 108.657 73.7243 109.09 74.2255C109.523 74.7267 110.054 75.1343 110.65 75.4233C112.257 76.1747 113.423 74.7755 113.28 73.0589C113.151 71.5237 112.16 69.2824 110.404 69.25C110.015 69.253 109.632 69.3491 109.288 69.5304C108.944 69.7116 108.648 69.9727 108.426 70.2917C108.203 70.6108 108.06 70.9785 108.009 71.3642C107.957 71.7498 107.999 72.1421 108.13 72.5083Z" fill="#B55B52"/>
<path opacity="0.2" d="M108.13 72.5083C108.33 73.14 108.657 73.7243 109.09 74.2255C109.523 74.7267 110.054 75.1343 110.65 75.4233C112.257 76.1747 113.423 74.7755 113.28 73.0589C113.151 71.5237 112.16 69.2824 110.404 69.25C110.015 69.253 109.632 69.3491 109.288 69.5304C108.944 69.7116 108.648 69.9727 108.426 70.2917C108.203 70.6108 108.06 70.9785 108.009 71.3642C107.957 71.7498 107.999 72.1421 108.13 72.5083Z" fill="black"/>
<path d="M113.359 60.998C111.551 62.2935 110.444 65.8109 111.869 67.3008C113.294 68.7907 115.639 59.3915 113.359 60.998Z" fill="#1C2D5E"/>
<path d="M125.284 70.0644C123.587 75.3114 122.848 78.4855 119.499 80.6037C114.466 83.8426 108.649 79.9948 108.785 74.4175C108.882 69.3972 111.668 61.6693 117.303 60.6717C122.939 59.6742 127.02 64.824 125.284 70.0644Z" fill="#B55B52"/>
<path d="M124.196 73.456C121.961 73.5078 122.771 68.2738 123.399 67.3864C121.112 66.9459 112.601 63.7718 112.568 62.4892C112.536 61.2066 114.369 58.9718 117.103 59.2503C119.836 59.5289 127.046 62.0487 127.357 64.5621C127.668 67.0754 128.199 72.1993 124.196 73.456Z" fill="#1C2D5E"/>
<path d="M113.598 75.6144C114.11 75.6581 114.625 75.5999 115.114 75.4431C115.604 75.2863 116.057 75.0341 116.448 74.701C116.472 74.6779 116.486 74.6461 116.487 74.6126C116.487 74.5792 116.475 74.547 116.451 74.5229C116.428 74.4989 116.396 74.485 116.363 74.4844C116.33 74.4838 116.297 74.4965 116.273 74.5197C115.844 74.8741 115.34 75.1274 114.8 75.2608C114.259 75.3942 113.696 75.4044 113.151 75.2905C113.134 75.2867 113.117 75.2862 113.1 75.289C113.084 75.2918 113.068 75.2979 113.053 75.3069C113.039 75.3159 113.026 75.3277 113.016 75.3416C113.006 75.3554 112.999 75.3711 112.996 75.3877C112.992 75.4043 112.991 75.4215 112.994 75.4382C112.997 75.455 113.003 75.4711 113.012 75.4855C113.021 75.5 113.033 75.5125 113.047 75.5224C113.06 75.5323 113.076 75.5393 113.093 75.5432C113.26 75.5755 113.428 75.5993 113.598 75.6144Z" fill="#1C2D5E"/>
<path d="M126.12 75.3919C125.138 76.3628 123.821 76.9194 122.441 76.9465C120.64 76.9465 120.296 75.217 121.262 73.753C122.13 72.4575 124.118 70.8445 125.705 71.5376C127.292 72.2307 127.331 74.1676 126.12 75.3919Z" fill="#B55B52"/>
<path opacity="0.2" d="M112.536 91.2812C111.396 97.759 109.498 124.732 110.508 144.619C108.163 119.783 112.536 91.2812 112.536 91.2812Z" fill="black"/>
<path d="M116.973 69.8183C116.863 70.2524 116.545 70.5568 116.267 70.4661C115.988 70.3754 115.859 70.0062 115.969 69.5722C116.079 69.1382 116.396 68.8402 116.675 68.9244C116.953 69.0086 117.089 69.3843 116.973 69.8183Z" fill="#1C2D5E"/>
<path d="M112.166 68.7715C112.056 69.2055 111.739 69.5035 111.46 69.4192C111.182 69.335 111.046 68.9593 111.162 68.5253C111.279 68.0913 111.59 67.7933 111.869 67.8775C112.147 67.9618 112.283 68.3375 112.166 68.7715Z" fill="#1C2D5E"/>
<path d="M113.644 69.207C112.873 70.3026 111.962 71.2934 110.936 72.1544C111.152 72.402 111.42 72.598 111.722 72.728C112.023 72.8581 112.35 72.9188 112.679 72.9058L113.644 69.207Z" fill="#A02724"/>
<path d="M118.204 69.4371C118.166 69.4248 118.132 69.4037 118.104 69.3756C118.076 69.3474 118.055 69.313 118.042 69.2752C117.95 68.9694 117.783 68.6911 117.557 68.4652C117.331 68.2392 117.053 68.0724 116.747 67.9796C116.714 67.9714 116.684 67.9567 116.657 67.9365C116.63 67.9164 116.608 67.8911 116.591 67.8622C116.574 67.8332 116.563 67.8012 116.559 67.768C116.554 67.7348 116.557 67.701 116.565 67.6687C116.584 67.6021 116.627 67.5449 116.686 67.5088C116.745 67.4727 116.815 67.4604 116.883 67.4744C117.272 67.5829 117.627 67.7884 117.915 68.0716C118.202 68.3549 118.414 68.7066 118.528 69.0938C118.543 69.1403 118.544 69.1898 118.533 69.2371C118.522 69.2845 118.498 69.3279 118.464 69.363C118.431 69.3981 118.388 69.4234 118.341 69.4365C118.294 69.4495 118.245 69.4497 118.198 69.4371H118.204Z" fill="#1C2D5E"/>
<path d="M110.178 67.1085C110.144 67.0888 110.117 67.0595 110.1 67.0242C110.083 66.995 110.072 66.9627 110.068 66.9291C110.063 66.8955 110.066 66.8614 110.075 66.8288C110.084 66.7961 110.099 66.7656 110.12 66.7391C110.141 66.7126 110.168 66.6906 110.197 66.6744C110.548 66.4499 110.946 66.3107 111.36 66.268C111.774 66.2252 112.192 66.2801 112.581 66.4283C112.612 66.4412 112.64 66.4606 112.663 66.4853C112.686 66.51 112.703 66.5394 112.714 66.5714C112.724 66.6034 112.728 66.6373 112.724 66.6707C112.72 66.7042 112.709 66.7364 112.691 66.7651C112.66 66.8272 112.607 66.8752 112.542 66.8993C112.477 66.9234 112.405 66.9217 112.341 66.8947C112.033 66.7798 111.701 66.7393 111.373 66.7764C111.046 66.8136 110.732 66.9273 110.456 67.1085C110.415 67.1342 110.366 67.1479 110.317 67.1479C110.268 67.1479 110.22 67.1342 110.178 67.1085Z" fill="#1C2D5E"/>
<path d="M113.877 91.4349L112.99 87.4381C112.99 87.4381 114.933 81.3491 116.19 81.0965C118.04 81.1687 119.871 80.6908 121.45 79.7232C122.648 79.0754 122.927 78.6414 123.477 78.5118C123.619 78.4818 123.766 78.4805 123.909 78.5081C124.052 78.5356 124.187 78.5915 124.308 78.6724C124.429 78.7534 124.532 78.8576 124.612 78.9791C124.692 79.1006 124.746 79.2369 124.773 79.3799C125.204 81.5597 125.501 83.7642 125.66 85.9807C123.594 89.2389 120.161 90.8066 113.877 91.4349Z" fill="#FF5C8A"/>
<path opacity="0.2" d="M113.877 91.4349L112.99 87.4381C112.99 87.4381 114.933 81.3491 116.19 81.0965C118.04 81.1687 119.871 80.6908 121.45 79.7232C122.648 79.0754 122.927 78.6414 123.477 78.5118C123.619 78.4818 123.766 78.4805 123.909 78.5081C124.052 78.5356 124.187 78.5915 124.308 78.6724C124.429 78.7534 124.532 78.8576 124.612 78.9791C124.692 79.1006 124.746 79.2369 124.773 79.3799C125.204 81.5597 125.501 83.7642 125.66 85.9807C123.594 89.2389 120.161 90.8066 113.877 91.4349Z" fill="black"/>
<path d="M113.876 91.4335L112.989 87.4368C112.989 87.4368 110.365 82.9801 110.19 81.0627C108.247 79.9226 110.981 78.9574 108.247 79.1194C107.126 79.1906 107.107 81.3542 107.107 81.3542C107.213 83.4671 107.429 85.5731 107.755 87.6635C108.778 90.1186 110.747 91.2198 113.876 91.4335Z" fill="#FF5C8A"/>
<path opacity="0.2" d="M113.876 91.4335L112.989 87.4368C112.989 87.4368 110.365 82.9801 110.19 81.0627C108.247 79.9226 110.981 78.9574 108.247 79.1194C107.126 79.1906 107.107 81.3542 107.107 81.3542C107.213 83.4671 107.429 85.5731 107.755 87.6635C108.778 90.1186 110.747 91.2198 113.876 91.4335Z" fill="black"/>
<path d="M129.974 86.5675C130.058 86.5209 130.128 86.4514 130.174 86.3672C130.22 86.283 130.242 86.1874 130.237 86.0914C130.231 85.9954 130.199 85.9028 130.143 85.8243C130.088 85.7459 130.011 85.6847 129.922 85.6477C128.711 85.136 126.813 84.4493 125.589 84.6372C123.684 84.9222 117.738 97.8323 115.808 108.423C113.877 119.014 115.27 135.092 115.982 138.137C124.468 138.214 132.449 136.232 134.288 135.092C134.58 130.985 133.686 109.337 133.686 109.337C133.686 109.337 125.608 100.728 126.412 93.6412C126.936 88.9967 128.776 87.2283 129.974 86.5675Z" fill="#FF5C8A"/>
<path opacity="0.7" d="M129.974 86.5675C130.058 86.5209 130.128 86.4514 130.174 86.3672C130.22 86.283 130.242 86.1874 130.237 86.0914C130.231 85.9954 130.199 85.9028 130.143 85.8243C130.088 85.7459 130.011 85.6847 129.922 85.6477C128.711 85.136 126.813 84.4493 125.589 84.6372C123.684 84.9222 117.738 97.8323 115.808 108.423C113.877 119.014 115.27 135.092 115.982 138.137C124.468 138.214 132.449 136.232 134.288 135.092C134.58 130.985 133.686 109.337 133.686 109.337C133.686 109.337 125.608 100.728 126.412 93.6412C126.936 88.9967 128.776 87.2283 129.974 86.5675Z" fill="white"/>
<path d="M132.377 139.609L128.672 140.568C127.805 140.788 127.03 141.275 126.456 141.961L125.038 143.651C124.773 143.964 124.635 144.364 124.652 144.774C124.669 145.183 124.839 145.571 125.128 145.86L126.955 147.681C127.255 147.981 127.66 148.154 128.084 148.161C128.509 148.168 128.919 148.01 129.229 147.719L131.554 145.549C131.554 145.549 135.927 144.254 135.681 140.672L132.377 139.609Z" fill="#FF5C8A"/>
<path opacity="0.3" d="M132.377 139.609L128.672 140.568C127.805 140.788 127.03 141.275 126.456 141.961L125.038 143.651C124.773 143.964 124.635 144.364 124.652 144.774C124.669 145.183 124.839 145.571 125.128 145.86L126.955 147.681C127.255 147.981 127.66 148.154 128.084 148.161C128.509 148.168 128.919 148.01 129.229 147.719L131.554 145.549C131.554 145.549 135.927 144.254 135.681 140.672L132.377 139.609Z" fill="white"/>
<path d="M132.299 137.262C131.831 137.889 131.552 138.638 131.496 139.419C131.785 140.291 132.316 141.064 133.027 141.647C133.738 142.229 134.6 142.598 135.512 142.709C135.953 142.53 136.335 142.228 136.612 141.841C136.889 141.454 137.052 140.996 137.08 140.52L132.299 137.262Z" fill="#FF5C8A"/>
<path d="M134.269 88.6992L126.411 95.3778C126.411 95.3778 139.554 114.947 138.764 118.354C137.689 122.979 134.34 131.919 132.086 137.14C132.28 139.193 135.804 141.888 137.132 141.564C143.357 136.09 149.303 120.55 148.792 116.301C147.613 106.655 134.269 88.6992 134.269 88.6992Z" fill="#FF5C8A"/>
<path opacity="0.2" d="M134.269 88.6992L126.411 95.3778C126.411 95.3778 139.554 114.947 138.764 118.354C137.689 122.979 134.34 131.919 132.086 137.14C132.28 139.193 135.804 141.888 137.132 141.564C143.357 136.09 149.303 120.55 148.792 116.301C147.613 106.655 134.269 88.6992 134.269 88.6992Z" fill="black"/>
<path d="M59.367 103.573L56.1929 101.429C55.451 100.931 54.5729 100.675 53.6796 100.697L51.4707 100.755C51.0615 100.764 50.6708 100.927 50.3766 101.212C50.0824 101.496 49.9064 101.881 49.8836 102.29L49.7282 104.881C49.7066 105.306 49.8516 105.722 50.1323 106.041C50.4129 106.361 50.8071 106.558 51.231 106.591L54.3792 106.883C54.3792 106.883 58.2658 109.299 60.7662 106.734L59.367 103.573Z" fill="#FF5C8A"/>
<path opacity="0.3" d="M59.367 103.573L56.1929 101.429C55.451 100.931 54.5729 100.675 53.6796 100.697L51.4707 100.755C51.0615 100.764 50.6708 100.927 50.3766 101.212C50.0824 101.496 49.9064 101.881 49.8836 102.29L49.7282 104.881C49.7066 105.306 49.8516 105.722 50.1323 106.041C50.4129 106.361 50.8071 106.558 51.231 106.591L54.3792 106.883C54.3792 106.883 58.2658 109.299 60.7662 106.734L59.367 103.573Z" fill="white"/>
<path d="M61.472 103.504C60.7638 103.17 59.9747 103.046 59.1983 103.148C58.4004 103.606 57.749 104.282 57.3201 105.096C56.8912 105.91 56.7024 106.829 56.7757 107.747C57.0417 108.142 57.4139 108.453 57.8495 108.646C58.285 108.838 58.766 108.904 59.2372 108.835L61.472 103.504Z" fill="#FF5C8A"/>
<path d="M109.446 95.7192L101.329 89.3516C101.329 89.3516 84.7853 106.142 81.2938 106.051C76.5457 105.928 67.1206 104.432 61.5368 103.266C59.5935 103.868 57.6501 107.858 58.2072 109.096C64.821 114.09 81.2355 116.811 85.2841 115.457C94.5214 112.38 109.446 95.7192 109.446 95.7192Z" fill="#FF5C8A"/>
<path opacity="0.2" d="M109.446 95.7192L101.329 89.3516C101.329 89.3516 84.7853 106.142 81.2938 106.051C76.5457 105.928 67.1206 104.432 61.5368 103.266C59.5935 103.868 57.6501 107.858 58.2072 109.096C64.821 114.09 81.2355 116.811 85.2841 115.457C94.5214 112.38 109.446 95.7192 109.446 95.7192Z" fill="black"/>
<path d="M106.771 87.5386C105.831 92.9928 103.532 115.814 107.133 138.143C103.733 138.558 100.283 138.24 97.0153 137.21C96.5593 137.074 96.1608 136.792 95.882 136.406C95.6032 136.021 95.4596 135.554 95.4736 135.079C95.5902 129.462 96.0566 110.463 96.9635 102.58C98.0258 93.2649 100.274 88.9766 101.874 88.0827C103.151 87.4688 104.497 87.0099 105.883 86.7159C106 86.6875 106.121 86.6885 106.237 86.7187C106.353 86.7488 106.46 86.8073 106.548 86.8888C106.636 86.9702 106.702 87.0722 106.741 87.1856C106.78 87.299 106.79 87.4203 106.771 87.5386Z" fill="#FF5C8A"/>
<path opacity="0.7" d="M106.771 87.5386C105.831 92.9928 103.532 115.814 107.133 138.143C103.733 138.558 100.283 138.24 97.0153 137.21C96.5593 137.074 96.1608 136.792 95.882 136.406C95.6032 136.021 95.4596 135.554 95.4736 135.079C95.5902 129.462 96.0566 110.463 96.9635 102.58C98.0258 93.2649 100.274 88.9766 101.874 88.0827C103.151 87.4688 104.497 87.0099 105.883 86.7159C106 86.6875 106.121 86.6885 106.237 86.7187C106.353 86.7488 106.46 86.8073 106.548 86.8888C106.636 86.9702 106.702 87.0722 106.741 87.1856C106.78 87.299 106.79 87.4203 106.771 87.5386Z" fill="white"/>
<path d="M59.652 82.9796C59.4089 81.2109 58.6641 79.5488 57.5057 78.1903C56.3473 76.8318 54.8239 75.8337 53.1158 75.3143C51.4077 74.7948 49.5865 74.7758 47.8679 75.2594C46.1493 75.7429 44.6052 76.7089 43.4187 78.0429C42.2321 79.3769 41.4527 81.023 41.1727 82.7862C40.8927 84.5495 41.1239 86.356 41.839 87.992C42.554 89.6279 43.7228 91.0246 45.2071 92.0168C46.6914 93.0089 48.4289 93.5549 50.2139 93.5901C52.222 99.1285 51.3605 108.813 51.8074 111.669C52.3256 115.005 54.5929 114.52 54.5929 114.52C54.5929 114.52 56.9119 114.371 56.5362 111.022C56.1864 108.146 52.7273 99.0638 53.1483 93.1885C55.2685 92.537 57.0875 91.1518 58.2792 89.2811C59.4709 87.4104 59.9576 85.1765 59.652 82.9796Z" fill="#FF5C8A"/>
<path opacity="0.7" d="M59.652 82.9796C59.4089 81.2109 58.6641 79.5488 57.5057 78.1903C56.3473 76.8318 54.8239 75.8337 53.1158 75.3143C51.4077 74.7948 49.5865 74.7758 47.8679 75.2594C46.1493 75.7429 44.6052 76.7089 43.4187 78.0429C42.2321 79.3769 41.4527 81.023 41.1727 82.7862C40.8927 84.5495 41.1239 86.356 41.839 87.992C42.554 89.6279 43.7228 91.0246 45.2071 92.0168C46.6914 93.0089 48.4289 93.5549 50.2139 93.5901C52.222 99.1285 51.3605 108.813 51.8074 111.669C52.3256 115.005 54.5929 114.52 54.5929 114.52C54.5929 114.52 56.9119 114.371 56.5362 111.022C56.1864 108.146 52.7273 99.0638 53.1483 93.1885C55.2685 92.537 57.0875 91.1518 58.2792 89.2811C59.4709 87.4104 59.9576 85.1765 59.652 82.9796Z" fill="white"/>
<path d="M55.0844 84.5147C55.2235 81.9211 53.2338 79.7058 50.6402 79.5667C48.0467 79.4276 45.8314 81.4174 45.6923 84.011C45.5532 86.6045 47.5429 88.8198 50.1365 88.9589C52.7301 89.098 54.9453 87.1083 55.0844 84.5147Z" fill="#FF5C8A"/>
<path d="M111.882 63.826C109.116 63.6187 105.566 64.2859 107.626 65.7693C109.686 67.2527 110.528 63.8843 115.807 67.5701C121.087 71.256 125.2 69.0535 125.2 69.0535C125.2 69.0535 119.169 64.3831 111.882 63.826Z" fill="#FF5C8A"/>
<path d="M110.936 64.1373C111.182 62.6993 114.434 58.5924 116.28 58.2231C119.616 57.5754 125.051 60.1665 127.091 61.624C129.333 63.2239 128.97 66.7349 127.558 69.909C120.84 68.5163 110.936 64.1373 110.936 64.1373Z" fill="#FF5C8A"/>
<path opacity="0.1" d="M110.936 64.1373C111.182 62.6993 114.434 58.5924 116.28 58.2231C119.616 57.5754 125.051 60.1665 127.091 61.624C129.333 63.2239 128.97 66.7349 127.558 69.909C120.84 68.5163 110.936 64.1373 110.936 64.1373Z" fill="white"/>
<path d="M83.7612 277.014H78.5078V172.49C78.5078 171.802 78.7808 171.143 79.2667 170.657C79.7526 170.171 80.4117 169.898 81.0989 169.898C81.7902 169.897 82.4543 170.168 82.9468 170.653C83.4393 171.138 83.7203 171.798 83.7289 172.49L83.7612 277.014Z" fill="#001966"/>
<path opacity="0.7" d="M83.7612 277.014H78.5078V172.49C78.5078 171.802 78.7808 171.143 79.2667 170.657C79.7526 170.171 80.4117 169.898 81.0989 169.898C81.7902 169.897 82.4543 170.168 82.9468 170.653C83.4393 171.138 83.7203 171.798 83.7289 172.49L83.7612 277.014Z" fill="white"/>
<path d="M245.478 169.863C245.823 169.863 246.164 169.931 246.482 170.063C246.8 170.195 247.09 170.388 247.333 170.632C247.577 170.875 247.77 171.165 247.902 171.483C248.034 171.801 248.102 172.142 248.102 172.487V277.011H242.848V172.487C242.848 172.142 242.916 171.8 243.048 171.481C243.181 171.163 243.375 170.873 243.619 170.629C243.863 170.386 244.153 170.193 244.472 170.061C244.791 169.93 245.133 169.862 245.478 169.863Z" fill="#001966"/>
<path opacity="0.7" d="M245.478 169.863C245.823 169.863 246.164 169.931 246.482 170.063C246.8 170.195 247.09 170.388 247.333 170.632C247.577 170.875 247.77 171.165 247.902 171.483C248.034 171.801 248.102 172.142 248.102 172.487V277.011H242.848V172.487C242.848 172.142 242.916 171.8 243.048 171.481C243.181 171.163 243.375 170.873 243.619 170.629C243.863 170.386 244.153 170.193 244.472 170.061C244.791 169.93 245.133 169.862 245.478 169.863Z" fill="white"/>
<path d="M253.355 179.621H73.2549V205.273H253.355V179.621Z" fill="#001966"/>
<path opacity="0.3" d="M253.355 179.621H73.2549V205.273H253.355V179.621Z" fill="white"/>
<path d="M253.355 205.273H254.631V179.622H253.355V205.273Z" fill="#001966"/>
<g opacity="0.6">
<path d="M102.042 205.273H83.7617L92.9471 179.621H111.234L102.042 205.273Z" fill="white"/>
<path d="M134.949 205.273H116.662L125.854 179.621H144.134L134.949 205.273Z" fill="white"/>
<path d="M167.849 205.273H149.569L158.761 179.621H177.041L167.849 205.273Z" fill="white"/>
<path d="M200.756 205.273H182.476L191.661 179.621H209.948L200.756 205.273Z" fill="white"/>
<path d="M233.663 205.273H215.376L224.568 179.621H242.848L233.663 205.273Z" fill="white"/>
</g>
<path opacity="0.5" d="M83.7612 205.273H78.5078V207.787H83.7612V205.273Z" fill="#001966"/>
<path opacity="0.5" d="M248.102 205.273H242.848V207.787H248.102V205.273Z" fill="#001966"/>
<path d="M192.484 171.141C191.604 169.753 190.626 168.43 189.556 167.183L190.048 166.762C191.137 168.034 192.133 169.382 193.028 170.797L192.484 171.141Z" fill="#001966"/>
<path d="M186.544 164.075C183.371 161.172 179.682 158.889 175.668 157.345L175.901 156.742C179.991 158.315 183.75 160.64 186.985 163.596L186.544 164.075Z" fill="#001966"/>
<path d="M163.302 222.489C181.476 222.489 196.209 207.757 196.209 189.583C196.209 171.409 181.476 156.676 163.302 156.676C145.128 156.676 130.396 171.409 130.396 189.583C130.396 207.757 145.128 222.489 163.302 222.489Z" fill="#EE6D66"/>
<path d="M163.296 158.578C169.429 158.577 175.425 160.394 180.525 163.801C185.625 167.208 189.601 172.05 191.949 177.716C194.297 183.382 194.912 189.617 193.716 195.633C192.52 201.648 189.567 207.174 185.231 211.511C180.894 215.849 175.369 218.803 169.354 220C163.339 221.197 157.103 220.583 151.437 218.236C145.77 215.889 140.927 211.915 137.52 206.815C134.112 201.716 132.293 195.72 132.293 189.587C132.302 181.367 135.571 173.485 141.383 167.672C147.195 161.859 155.075 158.588 163.296 158.578ZM163.296 157.82C157.018 157.82 150.881 159.682 145.661 163.17C140.442 166.657 136.373 171.615 133.971 177.414C131.568 183.214 130.94 189.596 132.165 195.753C133.389 201.911 136.412 207.566 140.851 212.005C145.29 216.444 150.946 219.467 157.103 220.692C163.26 221.917 169.642 221.288 175.442 218.886C181.242 216.483 186.199 212.415 189.687 207.195C193.175 201.976 195.036 195.839 195.036 189.561C195.036 181.143 191.692 173.07 185.74 167.117C179.787 161.164 171.714 157.82 163.296 157.82Z" fill="white"/>
<path d="M182.573 183.617H144.037C143.343 183.617 142.78 184.18 142.78 184.874V194.286C142.78 194.98 143.343 195.543 144.037 195.543H182.573C183.267 195.543 183.83 194.98 183.83 194.286V184.874C183.83 184.18 183.267 183.617 182.573 183.617Z" fill="white"/>
</svg>
