<svg width="328" height="328" viewBox="0 0 328 328" fill="none" xmlns="http://www.w3.org/2000/svg">
<g clip-path="url(#clip0_10429_109424)">
<path d="M164.095 279.868C234.381 279.868 291.359 276.713 291.359 272.823C291.359 268.932 234.381 265.777 164.095 265.777C93.8083 265.777 36.8301 268.932 36.8301 272.823C36.8301 276.713 93.8083 279.868 164.095 279.868Z" fill="#F5F5F5"/>
<path d="M328.187 251.762H0V251.917H328.187V251.762Z" fill="#EBEBEB"/>
<path d="M88.702 261.777H66.9629V261.933H88.702V261.777Z" fill="#EBEBEB"/>
<path d="M140.917 257.066H112.332V257.222H140.917V257.066Z" fill="#EBEBEB"/>
<path d="M66.3072 256H34.4336V256.156H66.3072V256Z" fill="#EBEBEB"/>
<path d="M185.032 258.105H162.525V258.261H185.032V258.105Z" fill="#EBEBEB"/>
<path d="M222.753 258.105H190.873V258.261H222.753V258.105Z" fill="#EBEBEB"/>
<path d="M275.874 260.73H214.385V260.886H275.874V260.73Z" fill="#EBEBEB"/>
<path d="M155.561 224.006H28.8214C27.8285 224.004 26.8769 223.629 26.1755 222.962C25.474 222.296 25.0801 221.393 25.0801 220.452V51.5226C25.0887 50.5866 25.4865 49.6916 26.187 49.032C26.8875 48.3725 27.8342 48.0016 28.8214 48H155.561C156.555 48 157.508 48.3744 158.211 49.0409C158.914 49.7073 159.309 50.6112 159.309 51.5537V220.452C159.309 221.394 158.914 222.298 158.211 222.965C157.508 223.631 156.555 224.006 155.561 224.006ZM28.8214 48.1245C27.8721 48.1261 26.9622 48.4849 26.2915 49.122C25.6208 49.7591 25.2442 50.6224 25.2442 51.5226V220.452C25.2442 221.352 25.6208 222.215 26.2915 222.852C26.9622 223.49 27.8721 223.848 28.8214 223.85H155.561C156.51 223.847 157.42 223.488 158.091 222.851C158.762 222.214 159.141 221.352 159.145 220.452V51.5226C159.141 50.6224 158.762 49.7599 158.091 49.1234C157.42 48.4868 156.51 48.1278 155.561 48.1245H28.8214Z" fill="#EBEBEB"/>
<path d="M297.541 224.006H170.795C169.802 224.002 168.851 223.627 168.148 222.961C167.446 222.295 167.05 221.393 167.047 220.452V51.5226C167.057 50.586 167.456 49.691 168.158 49.0316C168.86 48.3722 169.807 48.0016 170.795 48H297.541C298.527 48.0032 299.472 48.3748 300.171 49.0342C300.87 49.6936 301.267 50.5877 301.276 51.5226V220.452C301.276 220.918 301.18 221.379 300.993 221.81C300.806 222.241 300.531 222.632 300.184 222.962C299.838 223.292 299.426 223.554 298.972 223.733C298.518 223.912 298.032 224.005 297.541 224.006ZM170.795 48.1245C169.845 48.1278 168.936 48.4868 168.264 49.1234C167.593 49.7599 167.214 50.6224 167.211 51.5226V220.452C167.214 221.352 167.593 222.214 168.264 222.851C168.936 223.488 169.845 223.847 170.795 223.85H297.541C298.49 223.847 299.4 223.488 300.071 222.851C300.742 222.214 301.121 221.352 301.125 220.452V51.5226C301.121 50.6224 300.742 49.7599 300.071 49.1234C299.4 48.4868 298.49 48.1278 297.541 48.1245H170.795Z" fill="#EBEBEB"/>
<path d="M144.416 109.762H80.2422V251.761H144.416V109.762Z" fill="#E0E0E0"/>
<path d="M134.701 109.762H70.5273V251.761H134.701V109.762Z" fill="#F0F0F0"/>
<path d="M128.965 217.875H76.75V243.579H128.965V217.875Z" fill="#E0E0E0"/>
<path d="M128.965 184.164H76.75V209.874H128.965V184.164Z" fill="#E0E0E0"/>
<path d="M128.965 150.453H76.75V176.163H128.965V150.453Z" fill="#E0E0E0"/>
<path d="M128.965 116.746H76.75V142.456H128.965V116.746Z" fill="#E0E0E0"/>
<path opacity="0.05" d="M87.659 116.746H76.75V142.456H87.659V116.746Z" fill="#1C2D5E"/>
<path opacity="0.05" d="M87.659 150.453H76.75V176.163H87.659V150.453Z" fill="#1C2D5E"/>
<path opacity="0.05" d="M87.659 184.164H76.75V209.874H87.659V184.164Z" fill="#1C2D5E"/>
<path opacity="0.05" d="M87.659 217.875H76.75V243.579H87.659V217.875Z" fill="#1C2D5E"/>
<path d="M85.2306 62.793H39.3828V106.265H85.2306V62.793Z" fill="#E0E0E0"/>
<path d="M82.8283 62.793H36.9805V106.265H82.8283V62.793Z" fill="#EBEBEB"/>
<path d="M77.5577 67.7969H42.2578V101.268H77.5577V67.7969Z" fill="#F5F5F5"/>
<path d="M43.4262 67.7969H42.2578V101.268H43.4262V67.7969Z" fill="#E0E0E0"/>
<path d="M65.2405 89.2711C68.0081 86.7138 68.0653 82.5135 65.3683 79.8893C62.6714 77.2652 58.2415 77.2109 55.474 79.7682C52.7064 82.3254 52.6492 86.5257 55.3462 89.1499C58.0431 91.774 62.473 91.8283 65.2405 89.2711Z" fill="#FAFAFA"/>
<path d="M36.8613 241.24C36.8613 241.24 33.2446 238.283 30.7438 231.518C28.2431 224.753 22.4473 216.998 22.4473 216.998C22.4473 216.998 30.0284 220.397 32.6998 226.863C32.6998 226.863 29.418 213.756 22.4473 208.964C22.4473 208.964 34.9184 212.773 38.0493 225.102C38.0493 225.102 40.13 215.312 36.7365 205.584C36.7365 205.584 43.1231 213.196 43.8713 222.637C43.8713 222.637 44.7574 206.287 50.4351 201.477C50.4351 201.477 48.6497 216.276 50.4351 223.745C50.4351 223.745 52.9621 210.638 64.2584 208.808C64.2584 208.808 56.9726 217.123 57.2745 224.448C58.5452 221.918 60.4873 219.744 62.9104 218.139C65.3336 216.534 68.1548 215.553 71.0978 215.293C71.0978 215.293 63.0112 220.664 62.2827 229.402C61.5541 238.14 61.5344 240.816 56.6313 242.086C51.7281 243.356 36.8613 241.24 36.8613 241.24Z" fill="#F5F5F5"/>
<path d="M29.0176 233.242V250.27C29.0176 250.27 31.328 256.369 46.1687 257.154C61.0093 257.938 64.475 250.426 64.475 250.426V233.242H29.0176Z" fill="#E6E6E6"/>
<path d="M292.481 185.094H199.506V252.278H292.481V185.094Z" fill="#E0E0E0"/>
<path d="M269.331 185.094H176.355V252.278H269.331V185.094Z" fill="#EBEBEB"/>
<path d="M264.703 191.312H179.676V216.201H264.703V191.312Z" stroke="#E0E0E0" stroke-miterlimit="10"/>
<path d="M264.703 220.348H179.676V245.236H264.703V220.348Z" stroke="#E0E0E0" stroke-miterlimit="10"/>
<path d="M222.189 206.014C223.505 206.014 224.572 205.003 224.572 203.755C224.572 202.508 223.505 201.496 222.189 201.496C220.873 201.496 219.807 202.508 219.807 203.755C219.807 205.003 220.873 206.014 222.189 206.014Z" fill="#E0E0E0"/>
<path d="M222.189 236.944C223.505 236.944 224.572 235.933 224.572 234.685C224.572 233.437 223.505 232.426 222.189 232.426C220.873 232.426 219.807 233.437 219.807 234.685C219.807 235.933 220.873 236.944 222.189 236.944Z" fill="#E0E0E0"/>
<path d="M295.94 181.512H172.26V185.097H295.94V181.512Z" fill="#E0E0E0"/>
<path opacity="0.05" d="M295.94 181.512H272.842V185.097H295.94V181.512Z" fill="#1C2D5E"/>
<path d="M294.601 81.3086H191.629V136.513H294.601V81.3086Z" fill="#E0E0E0"/>
<path d="M291.91 81.3086H188.938V136.513H291.91V81.3086Z" fill="#F0F0F0"/>
<path d="M287.578 85.4805H192.955V132.612H287.578V85.4805Z" fill="#F5F5F5"/>
<path d="M193.986 85.4805H192.955V132.612H193.986V85.4805Z" fill="#E0E0E0"/>
<path d="M282.552 100.412L270.588 96.1523L266.917 105.422L278.881 109.682L282.552 100.412Z" fill="#FAFAFA"/>
<path d="M271.49 98.4761C271.74 98.4761 271.943 98.2838 271.943 98.0466C271.943 97.8095 271.74 97.6172 271.49 97.6172C271.24 97.6172 271.037 97.8095 271.037 98.0466C271.037 98.2838 271.24 98.4761 271.49 98.4761Z" fill="#E6E6E6"/>
<path d="M225.005 112.559L250.459 114.986L248.904 124.583L224.395 121.801L225.005 112.559Z" fill="#FAFAFA"/>
<path d="M249.126 116.746C249.126 116.831 249.1 116.914 249.05 116.984C249 117.055 248.93 117.11 248.847 117.143C248.764 117.175 248.673 117.184 248.585 117.167C248.497 117.15 248.417 117.11 248.353 117.049C248.29 116.989 248.247 116.913 248.229 116.83C248.212 116.746 248.221 116.66 248.255 116.582C248.289 116.503 248.348 116.436 248.422 116.389C248.496 116.342 248.584 116.316 248.674 116.316C248.794 116.316 248.909 116.362 248.994 116.442C249.079 116.523 249.126 116.632 249.126 116.746Z" fill="#E6E6E6"/>
<path d="M238.92 181.51L244.545 154.25H270.885L265.411 181.51H238.92Z" fill="#EBEBEB"/>
<path d="M242.932 178.094L247.146 157.668H266.883L262.78 178.094H242.932Z" fill="#FAFAFA"/>
<path d="M248.163 157.668L244.08 178.094H242.932L247.146 157.668H248.163Z" fill="#E6E6E6"/>
<path d="M270.886 154.25H271.976L266.882 181.51H265.412L270.886 154.25Z" fill="#E6E6E6"/>
<path d="M270.112 164.195L273.847 181.51H266.883L270.112 164.195Z" fill="#E0E0E0"/>
<path d="M212.797 76.1797V150.733C212.798 151.944 212.547 153.143 212.059 154.262C211.57 155.381 210.855 156.398 209.952 157.255C209.049 158.111 207.977 158.791 206.797 159.254C205.618 159.718 204.353 159.957 203.076 159.957H195.271V76.1797H212.797Z" fill="#FF5C8A"/>
<path opacity="0.8" d="M212.797 76.1797V150.733C212.798 151.944 212.547 153.143 212.059 154.262C211.57 155.381 210.855 156.398 209.952 157.255C209.049 158.111 207.977 158.791 206.797 159.254C205.618 159.718 204.353 159.957 203.076 159.957H195.271V76.1797H212.797Z" fill="white"/>
<path d="M212.797 70.5165V150.733C212.797 151.944 212.547 153.144 212.058 154.263C211.57 155.382 210.854 156.398 209.952 157.255C209.049 158.112 207.977 158.791 206.797 159.255C205.617 159.718 204.353 159.957 203.076 159.957H65.6767C63.0968 159.957 60.6226 158.985 58.7983 157.255C56.9741 155.526 55.9492 153.18 55.9492 150.733V70.5165C55.9484 69.305 56.1994 68.1052 56.6879 66.9858C57.1765 65.8664 57.893 64.8493 58.7964 63.9926C59.6999 63.136 60.7726 62.4566 61.9531 61.9934C63.1337 61.5302 64.399 61.2922 65.6767 61.293H203.076C204.353 61.293 205.617 61.5316 206.797 61.9952C207.977 62.4588 209.049 63.1383 209.952 63.9948C210.854 64.8514 211.57 65.8682 212.058 66.9873C212.547 68.1063 212.797 69.3055 212.797 70.5165Z" fill="white" stroke="#FF5C8A" stroke-miterlimit="10"/>
<path d="M212.351 67.7469H56.3965C57.018 65.8748 58.2532 64.2395 59.9224 63.0788C61.5915 61.918 63.6077 61.2925 65.6776 61.293H203.077C205.145 61.2938 207.16 61.92 208.828 63.0806C210.496 64.2412 211.73 65.8758 212.351 67.7469Z" fill="#FF5C8A"/>
<path d="M75.7729 65.8288C76.5342 65.8288 77.1513 65.2436 77.1513 64.5218C77.1513 63.8 76.5342 63.2148 75.7729 63.2148C75.0117 63.2148 74.3945 63.8 74.3945 64.5218C74.3945 65.2436 75.0117 65.8288 75.7729 65.8288Z" fill="white"/>
<path d="M80.6948 65.8288C81.4561 65.8288 82.0732 65.2436 82.0732 64.5218C82.0732 63.8 81.4561 63.2148 80.6948 63.2148C79.9335 63.2148 79.3164 63.8 79.3164 64.5218C79.3164 65.2436 79.9335 65.8288 80.6948 65.8288Z" fill="white"/>
<path d="M86.9906 64.5241C86.9906 64.7841 86.9092 65.0383 86.7567 65.2544C86.6043 65.4705 86.3876 65.6388 86.1341 65.738C85.8807 65.8372 85.6019 65.8628 85.333 65.8116C85.0642 65.7605 84.8174 65.6348 84.624 65.4505C84.4306 65.2662 84.2992 65.0316 84.2465 64.7765C84.1938 64.5214 84.2222 64.2571 84.328 64.0173C84.4338 63.7774 84.6124 63.5728 84.841 63.4292C85.0696 63.2857 85.338 63.2097 85.6122 63.211C85.7938 63.211 85.9736 63.245 86.1412 63.311C86.3089 63.3771 86.4611 63.4739 86.5892 63.596C86.7173 63.718 86.8187 63.8628 86.8876 64.0221C86.9565 64.1814 86.9915 64.352 86.9906 64.5241Z" fill="white"/>
<path d="M212.797 70.5156V76.1792H55.9238V70.5156C55.9237 69.5763 56.0742 68.6425 56.3702 67.7461H212.325C212.63 68.6412 212.789 69.5751 212.797 70.5156Z" fill="#FF5C8A"/>
<path opacity="0.5" d="M212.797 70.5156V76.1792H55.9238V70.5156C55.9237 69.5763 56.0742 68.6425 56.3702 67.7461H212.325C212.63 68.6412 212.789 69.5751 212.797 70.5156Z" fill="white"/>
<path d="M74.3999 76.1797V159.957H65.4601C63.3577 159.973 61.304 159.356 59.5949 158.195C57.8857 157.035 56.6092 155.389 55.9492 153.496V76.1797H74.3999Z" fill="#FF5C8A"/>
<path opacity="0.1" d="M74.3999 76.1797V159.957H65.4601C63.3577 159.973 61.304 159.356 59.5949 158.195C57.8857 157.035 56.6092 155.389 55.9492 153.496V76.1797H74.3999Z" fill="#1C2D5E"/>
<path opacity="0.1" d="M189.122 82.1172H80.6953V151.505H189.122V82.1172Z" fill="#FF5C8A"/>
<path opacity="0.2" d="M63.4396 85.6133H58.7793V90.0321H63.4396V85.6133Z" fill="#1C2D5E"/>
<path opacity="0.2" d="M70.4962 85.6133H65.8359V90.0321H70.4962V85.6133Z" fill="#1C2D5E"/>
<path d="M145.754 116.533C149.725 111.654 152.318 105.25 151.78 98.9951C151.274 93.1262 146.279 89.5476 140.215 90.9541C137.655 91.5765 135.311 92.759 132.948 93.873C129.01 95.7401 124.862 97.3334 120.477 97.8375C116.093 98.3416 111.754 97.8375 107.481 99.4245C100.044 102.175 97.9768 111.187 100.845 117.722C103.392 123.523 109.457 128.004 115.909 129.248" stroke="#1C2D5E" stroke-linecap="round" stroke-linejoin="round"/>
<path opacity="0.2" d="M63.4396 92.6211H58.7793V97.0399H63.4396V92.6211Z" fill="#1C2D5E"/>
<path opacity="0.2" d="M70.4962 92.6211H65.8359V97.0399H70.4962V92.6211Z" fill="#1C2D5E"/>
<path opacity="0.2" d="M63.4396 99.6328H58.7793V104.052H63.4396V99.6328Z" fill="#1C2D5E"/>
<path opacity="0.2" d="M70.4962 99.6328H65.8359V104.052H70.4962V99.6328Z" fill="#1C2D5E"/>
<path opacity="0.2" d="M63.4396 106.641H58.7793V111.059H63.4396V106.641Z" fill="#1C2D5E"/>
<path opacity="0.2" d="M70.4962 106.641H65.8359V111.059H70.4962V106.641Z" fill="#1C2D5E"/>
<path opacity="0.2" d="M63.4396 113.641H58.7793V118.059H63.4396V113.641Z" fill="#1C2D5E"/>
<path opacity="0.2" d="M70.4962 113.641H65.8359V118.059H70.4962V113.641Z" fill="#1C2D5E"/>
<path opacity="0.2" d="M63.4396 120.648H58.7793V125.067H63.4396V120.648Z" fill="#1C2D5E"/>
<path opacity="0.2" d="M70.4962 120.648H65.8359V125.067H70.4962V120.648Z" fill="#1C2D5E"/>
<path d="M63.2879 127.457C63.2879 127.557 63.2566 127.655 63.1979 127.738C63.1391 127.821 63.0557 127.886 62.9582 127.924C62.8607 127.962 62.7534 127.971 62.6501 127.951C62.5468 127.931 62.4521 127.883 62.378 127.811C62.3039 127.74 62.2538 127.65 62.234 127.552C62.2143 127.454 62.2257 127.352 62.267 127.26C62.3082 127.168 62.3774 127.09 62.4657 127.035C62.554 126.98 62.6574 126.952 62.7628 126.953C62.8324 126.953 62.9012 126.966 62.9653 126.992C63.0295 127.017 63.0876 127.054 63.1365 127.101C63.1853 127.148 63.2239 127.204 63.2499 127.265C63.2759 127.326 63.2888 127.391 63.2879 127.457Z" fill="#1C2D5E"/>
<path d="M65.1981 127.457C65.1981 127.557 65.1669 127.654 65.1085 127.737C65.0501 127.82 64.967 127.885 64.8699 127.923C64.7727 127.961 64.6658 127.971 64.5627 127.952C64.4596 127.932 64.3648 127.884 64.2905 127.814C64.2161 127.743 64.1655 127.653 64.145 127.556C64.1245 127.458 64.135 127.356 64.1752 127.264C64.2155 127.172 64.2836 127.094 64.3711 127.038C64.4585 126.983 64.5613 126.953 64.6664 126.953C64.7365 126.952 64.806 126.965 64.8709 126.99C64.9358 127.015 64.9948 127.052 65.0443 127.099C65.0939 127.146 65.133 127.202 65.1594 127.263C65.1858 127.325 65.199 127.391 65.1981 127.457Z" fill="#1C2D5E"/>
<path d="M67.1024 127.457C67.1024 127.557 67.071 127.655 67.0123 127.738C66.9536 127.821 66.8702 127.886 66.7726 127.924C66.6751 127.962 66.5679 127.971 66.4646 127.951C66.3613 127.931 66.2665 127.883 66.1925 127.811C66.1184 127.74 66.0683 127.65 66.0485 127.552C66.0287 127.454 66.0402 127.352 66.0814 127.26C66.1227 127.168 66.1919 127.09 66.2801 127.035C66.3684 126.98 66.4719 126.952 66.5773 126.953C66.6468 126.953 66.7156 126.966 66.7798 126.992C66.8439 127.017 66.9021 127.054 66.9509 127.101C66.9998 127.148 67.0383 127.204 67.0643 127.265C67.0903 127.326 67.1033 127.391 67.1024 127.457Z" fill="#1C2D5E"/>
<path d="M131.998 122.732L131.165 123.286L130.666 119.832L133.705 121.587L132.95 122.073L134.125 123.716L133.2 124.438L131.998 122.732Z" fill="#1C2D5E"/>
<path d="M195.667 160.705C195.667 160.705 192.319 176.028 190.055 179.942C187.79 183.857 174.807 183.677 174.807 183.677L159.776 182.967C159.776 182.967 156.915 174.086 169.169 178.691C169.169 178.691 179.507 176.824 183.452 173.712L187.587 157.637L195.667 160.705Z" fill="#FF8B7B"/>
<path d="M240.398 274.933H236.388L225.505 218.801L225.131 216.866L229.003 216.188L229.509 218.801L240.398 274.933Z" fill="#FF5C8A"/>
<path opacity="0.5" d="M240.398 274.933H236.388L225.505 218.801L225.131 216.866L229.003 216.188L229.509 218.801L240.398 274.933Z" fill="white"/>
<path d="M223.104 274.934H219.146L213.711 218.803L213.133 212.828L213.002 211.502L216.921 211.16L217.085 212.828L217.662 218.803L223.104 274.934Z" fill="#FF5C8A"/>
<path opacity="0.5" d="M223.104 274.934H219.146L213.711 218.803L213.133 212.828L213.002 211.502L216.921 211.16L217.085 212.828L217.662 218.803L223.104 274.934Z" fill="white"/>
<path d="M182.63 213.534L182.21 218.799L177.707 274.931H173.756L178.252 218.799L178.698 213.254L182.63 213.534Z" fill="#FF5C8A"/>
<path opacity="0.5" d="M182.63 213.534L182.21 218.799L177.707 274.931H173.756L178.252 218.799L178.698 213.254L182.63 213.534Z" fill="white"/>
<path d="M171.215 213.704L170.329 218.801L160.569 274.932H156.578L166.345 218.801L167.336 213.094L171.215 213.704Z" fill="#FF5C8A"/>
<path opacity="0.5" d="M171.215 213.704L170.329 218.801L160.569 274.932H156.578L166.345 218.801L167.336 213.094L171.215 213.704Z" fill="white"/>
<path d="M235.587 211.95L235.226 212.828L233.5 216.967C233.278 217.51 232.887 217.976 232.38 218.304C231.872 218.632 231.272 218.806 230.658 218.803H165.637C165.006 218.804 164.39 218.62 163.874 218.277C163.357 217.934 162.964 217.448 162.749 216.886L161.22 212.828L160.859 211.863C160.693 211.426 160.641 210.957 160.707 210.496C160.774 210.036 160.956 209.597 161.238 209.217C161.521 208.838 161.896 208.528 162.331 208.315C162.767 208.102 163.25 207.991 163.74 207.992H232.745C233.243 207.992 233.734 208.107 234.174 208.327C234.615 208.548 234.992 208.867 235.272 209.258C235.552 209.648 235.727 210.097 235.782 210.567C235.837 211.036 235.77 211.511 235.587 211.95Z" fill="#FF5C8A"/>
<path opacity="0.3" d="M235.225 212.828L233.499 216.967C233.277 217.51 232.886 217.976 232.379 218.304C231.871 218.632 231.271 218.806 230.657 218.803H165.636C165.005 218.804 164.389 218.621 163.872 218.277C163.356 217.934 162.963 217.448 162.748 216.886L161.219 212.828H235.225Z" fill="#1C2D5E"/>
<path d="M169.379 248.612L172.451 241.996C172.629 241.611 172.949 241.3 173.351 241.121C173.753 240.942 174.21 240.908 174.636 241.025L179.494 242.332C179.748 242.401 179.983 242.521 180.184 242.684C180.385 242.847 180.546 243.049 180.658 243.276C180.769 243.503 180.828 243.751 180.83 244.001C180.832 244.252 180.777 244.5 180.669 244.728C179.356 247.542 176.862 252.782 176.074 254.655C175.004 257.263 174.105 260.406 172.674 261.283C172.586 261.338 172.494 261.386 172.398 261.427C172.097 261.544 171.768 261.583 171.445 261.538C171.123 261.494 170.819 261.368 170.565 261.174C170.311 260.98 170.118 260.725 170.004 260.435C169.89 260.146 169.86 259.832 169.917 259.528C170.298 257.338 170.711 253.242 169.32 249.938C169.235 249.724 169.197 249.497 169.207 249.269C169.217 249.041 169.275 248.818 169.379 248.612Z" fill="#1C2D5E"/>
<path d="M195.902 185.731C195.902 185.731 162.722 181.436 152.699 190.373C152.699 190.373 146.49 198.408 149.476 214.135C151.43 223.842 155.673 233.003 161.888 240.935L170.599 233.914C170.599 233.914 162.847 215.81 165.472 204.607L177.523 203.929L194.806 192.726L196.617 188.083L195.902 185.731Z" fill="#1C2D5E"/>
<path d="M162.69 244.093L159.441 240.352L171.348 231.066L173.599 233.288L162.69 244.093Z" fill="#FF5C8A"/>
<path d="M228.518 185.385C228.518 185.385 229.437 194.347 226.437 200.907C223.437 207.467 212.837 209.869 205.689 209.434C198.541 208.998 189.319 208.438 185.4 209.483C185.4 209.483 180.327 236.762 171.564 256.653L160.957 255.781C160.957 255.781 166.72 217.282 167.645 208.338C168.571 199.395 168.105 198.063 173.868 193.694C179.631 189.325 209.148 183.419 228.518 185.385Z" fill="#1C2D5E"/>
<path d="M168.867 260.258L167.863 264.422L159.441 267.216L161.89 258.348L168.867 260.258Z" fill="#FF8B7B"/>
<path d="M159.329 266.952L166.483 264.432C166.9 264.286 167.358 264.288 167.774 264.438C168.189 264.588 168.532 264.876 168.741 265.247L171.131 269.461C171.26 269.682 171.337 269.928 171.357 270.181C171.376 270.434 171.336 270.688 171.241 270.925C171.146 271.162 170.998 271.377 170.807 271.554C170.615 271.731 170.385 271.866 170.133 271.95C167.081 273.002 161.39 274.969 159.441 275.753C156.723 276.848 153.717 278.423 152.056 278.056C151.954 278.035 151.853 278.008 151.754 277.975C151.455 277.85 151.197 277.652 151.006 277.401C150.815 277.15 150.699 276.855 150.67 276.546C150.64 276.238 150.698 275.928 150.838 275.648C150.978 275.368 151.195 275.129 151.466 274.956C153.389 273.711 156.776 271.122 158.305 267.874C158.401 267.662 158.541 267.472 158.717 267.313C158.893 267.155 159.101 267.032 159.329 266.952Z" fill="#1C2D5E"/>
<path d="M195.666 187.788C195.666 187.788 191.347 160.703 190.415 154.112C189.483 147.521 190.415 144.154 193.04 141.994C195.666 139.835 207.704 135.223 215.784 136.468C223.864 137.712 227.808 144.129 228.911 151.404L227.034 152.294C227.034 152.294 229.436 177.538 228.563 186.269L195.666 187.788Z" fill="#FF5C8A"/>
<path d="M193.035 141.977C193.035 141.977 186.648 147.323 186.648 157.654L196.606 161.27L193.035 141.977Z" fill="#FF5C8A"/>
<path d="M227.185 152.195C227.185 152.195 230.802 164.319 229.81 169.329C228.819 174.339 219.82 181.061 207.31 183.301C207.31 183.301 201.75 184.222 198.547 181.72L193.684 180.401L195.075 176.312C198.782 176.374 202.432 177.187 205.781 178.696C205.781 178.696 217.733 173.555 221.488 169.603C221.488 169.603 221.068 161.562 218.987 155.911L227.185 152.195Z" fill="#FF8B7B"/>
<path d="M173.041 256.656L159.08 254.664L158.574 258.828L171.242 261.28L173.041 256.656Z" fill="#FF5C8A"/>
<path d="M186.037 125.287C185.173 127.679 185.281 130.291 186.339 132.612C185.848 130.761 185.939 128.813 186.602 127.011C187.258 125.305 188.341 123.805 189.182 122.187C190.022 120.569 190.593 118.683 190.035 116.959C189.917 116.617 189.654 116.219 189.28 116.275C188.906 116.331 188.827 116.63 188.722 116.897C188.36 117.606 188.083 118.352 187.895 119.119C187.803 119.71 187.895 120.295 187.803 120.899C187.495 122.418 186.582 123.799 186.037 125.287Z" fill="#1C2D5E"/>
<path d="M189.903 120.039C189.399 120.22 188.958 120.531 188.631 120.937C188.304 121.343 188.103 121.827 188.052 122.336C187.073 121.738 186.346 120.835 185.994 119.783C185.643 118.731 185.691 117.595 186.129 116.573C187.645 112.839 189.699 107.542 195.817 108.314C201.934 109.086 214.76 110.803 210.165 123.761C205.57 136.719 201.015 120.892 201.015 120.892L189.903 120.039Z" fill="#1C2D5E"/>
<path d="M203.287 144.256C197.714 143.926 200.077 139.37 200.333 137.684C200.401 136.948 200.232 136.21 199.848 135.568C199.588 135.09 199.271 134.644 198.902 134.236C196.461 134.236 193.756 133.925 191.82 132.369C189.654 130.657 188.794 127.464 188.44 124.931C188.162 122.588 188.113 120.225 188.295 117.874C188.295 117.525 188.348 117.183 188.361 116.841C188.446 115.49 188.538 114.146 188.591 112.826C188.591 112.826 193.993 111.7 198.817 112.745C202.388 113.517 204.895 116.33 205.978 120.755C206.377 122.441 206.577 124.163 206.575 125.89C206.674 133.246 209.713 134.534 210.901 136.694C212.089 138.854 208.873 144.567 203.287 144.256Z" fill="#FF8B7B"/>
<path d="M193.329 126.521L192.016 121.785L191.117 126.764C191.117 126.764 191.846 127.33 193.329 126.521Z" fill="#FF5652"/>
<path d="M197.189 127.332C197.189 127.332 196.368 129 193.756 129.292" stroke="#1C2D5E" stroke-width="0.5" stroke-linecap="round" stroke-linejoin="round"/>
<path d="M196.913 119.311C196.557 118.939 196.089 118.68 195.573 118.569C195.056 118.457 194.516 118.499 194.025 118.688" stroke="#1C2D5E" stroke-width="0.75" stroke-linecap="round" stroke-linejoin="round"/>
<path d="M194.838 121.631C194.884 122.11 195.18 122.477 195.495 122.452C195.81 122.428 196.033 122.017 195.994 121.538C195.954 121.058 195.652 120.691 195.337 120.716C195.022 120.741 194.799 121.152 194.838 121.631Z" fill="#1C2D5E"/>
<path d="M189.037 122.987C189.083 123.466 189.378 123.833 189.693 123.809C190.009 123.784 190.232 123.373 190.192 122.894C190.153 122.414 189.851 122.041 189.536 122.072C189.221 122.103 189.037 122.508 189.037 122.987Z" fill="#1C2D5E"/>
<path d="M188.197 116.915C190.302 116.459 192.279 115.578 193.993 114.333C195.923 120.382 204.141 120.6 206.195 120.6C205.119 116.175 202.533 113.1 198.975 112.329C194.157 111.283 188.473 112.49 188.473 112.49C188.42 113.816 188.276 115.571 188.197 116.915Z" fill="#1C2D5E"/>
<path d="M195.338 120.715L193.992 120.473C193.992 120.473 194.34 121.4 195.338 120.715Z" fill="#1C2D5E"/>
<path d="M189.805 122.1L188.459 121.863C188.459 121.863 188.807 122.784 189.805 122.1Z" fill="#1C2D5E"/>
<path d="M207.567 109.28C208.236 106.65 206.42 103.979 203.509 103.313C200.598 102.646 197.696 104.238 197.026 106.868C196.357 109.497 198.174 112.169 201.085 112.835C203.995 113.501 206.898 111.91 207.567 109.28Z" fill="#1C2D5E"/>
<path d="M192.234 115.214L191.145 116.571C191.145 116.571 194.026 116.098 194.663 114.231C195.299 112.364 192.897 113.826 192.897 113.826L192.234 115.214Z" fill="#1C2D5E"/>
<path opacity="0.1" d="M202.585 132.754C201.879 133.855 200.948 134.812 199.848 135.567C199.588 135.09 199.271 134.643 198.902 134.235C200.201 133.919 201.442 133.419 202.585 132.754Z" fill="#1C2D5E"/>
<path d="M187.803 120.858C187.953 120.415 188.263 120.037 188.678 119.79C189.094 119.543 189.588 119.443 190.074 119.508" stroke="#1C2D5E" stroke-width="0.75" stroke-linecap="round" stroke-linejoin="round"/>
<path d="M204.514 121.357C204.693 121.103 204.898 120.866 205.124 120.648C205.892 119.907 207.146 118.936 208.307 119.478C209.712 120.1 209.417 121.998 209.023 123.143C208.706 124.168 207.981 125.036 207.001 125.564C205.616 126.243 203.555 125.882 203.568 124.114C203.59 123.127 203.919 122.168 204.514 121.357Z" fill="#FF8B7B"/>
<path d="M205.978 119.321C205.978 119.321 203.681 122.993 204.62 126.242C205.558 129.491 205.04 131.022 204.39 132.746C204.39 132.746 204.646 127.81 203.569 126.03C201.928 123.31 204.226 119.309 204.226 119.309L205.978 119.321Z" fill="#1C2D5E"/>
<path d="M197.104 108.37C197.104 108.37 203.05 109.042 206.628 111.357C206.628 111.326 203.523 107.411 197.104 108.37Z" fill="#FF5C8A"/>
<path d="M123.688 181.509H161.101C161.481 181.51 161.856 181.428 162.197 181.27C162.539 181.112 162.838 180.883 163.072 180.599C163.307 180.315 163.469 179.985 163.549 179.633C163.628 179.28 163.621 178.915 163.529 178.566L156.874 153.416C156.739 152.902 156.427 152.446 155.986 152.12C155.546 151.794 155.004 151.617 154.445 151.617H117.032C116.652 151.617 116.277 151.699 115.935 151.856C115.594 152.014 115.294 152.244 115.06 152.527C114.826 152.811 114.663 153.142 114.584 153.494C114.505 153.847 114.512 154.211 114.603 154.561L121.22 179.711C121.356 180.231 121.674 180.692 122.122 181.019C122.571 181.345 123.122 181.518 123.688 181.509Z" fill="#1C2D5E"/>
<path d="M185.237 181.42H159.809V179.553H183.937C184.285 179.553 184.619 179.684 184.866 179.917C185.112 180.151 185.25 180.467 185.25 180.797V181.457L185.237 181.42Z" fill="#1C2D5E"/>
<path opacity="0.3" d="M123.688 181.509H161.101C161.481 181.51 161.856 181.428 162.197 181.27C162.539 181.112 162.838 180.883 163.072 180.599C163.307 180.315 163.469 179.985 163.549 179.633C163.628 179.28 163.621 178.915 163.529 178.566L156.874 153.416C156.739 152.902 156.427 152.446 155.986 152.12C155.546 151.794 155.004 151.617 154.445 151.617H117.032C116.652 151.617 116.277 151.699 115.935 151.856C115.594 152.014 115.294 152.244 115.06 152.527C114.826 152.811 114.663 153.142 114.584 153.494C114.505 153.847 114.512 154.211 114.603 154.561L121.22 179.711C121.356 180.231 121.674 180.692 122.122 181.019C122.571 181.345 123.122 181.518 123.688 181.509Z" fill="#1C2D5E"/>
<path d="M121.725 181.509H159.139C159.519 181.51 159.894 181.428 160.235 181.27C160.577 181.112 160.876 180.883 161.11 180.599C161.344 180.315 161.507 179.985 161.586 179.633C161.666 179.28 161.659 178.915 161.567 178.566L154.905 153.416C154.77 152.902 154.458 152.446 154.018 152.12C153.578 151.794 153.035 151.617 152.477 151.617H115.063C114.683 151.617 114.308 151.699 113.967 151.856C113.625 152.014 113.326 152.244 113.092 152.527C112.857 152.811 112.695 153.142 112.615 153.494C112.536 153.847 112.543 154.211 112.635 154.561L119.251 179.711C119.389 180.232 119.708 180.693 120.157 181.019C120.607 181.346 121.159 181.519 121.725 181.509Z" fill="#1C2D5E"/>
<path opacity="0.2" d="M121.725 181.509H159.139C159.519 181.51 159.894 181.428 160.235 181.27C160.577 181.112 160.876 180.883 161.11 180.599C161.344 180.315 161.507 179.985 161.586 179.633C161.666 179.28 161.659 178.915 161.567 178.566L154.905 153.416C154.77 152.902 154.458 152.446 154.018 152.12C153.578 151.794 153.035 151.617 152.477 151.617H115.063C114.683 151.617 114.308 151.699 113.967 151.856C113.625 152.014 113.326 152.244 113.092 152.527C112.857 152.811 112.695 153.142 112.615 153.494C112.536 153.847 112.543 154.211 112.635 154.561L119.251 179.711C119.389 180.232 119.708 180.693 120.157 181.019C120.607 181.346 121.159 181.519 121.725 181.509Z" fill="white"/>
<path opacity="0.3" d="M138.765 165.823C139.283 167.921 138.24 169.956 136.428 170.36C134.617 170.765 132.713 169.396 132.188 167.298C131.663 165.201 132.713 163.166 134.525 162.761C136.336 162.357 138.24 163.757 138.765 165.823Z" fill="#1C2D5E"/>
<path d="M112.647 183.695L98.8439 264.864H95.7852L109.667 183.234L112.647 183.695Z" fill="#FF5C8A"/>
<path opacity="0.5" d="M112.647 183.695L98.8439 264.864H95.7852L109.667 183.234L112.647 183.695Z" fill="white"/>
<path d="M132.956 264.863H129.89L116.553 183.688L119.539 183.246L132.956 264.863Z" fill="#FF5C8A"/>
<path opacity="0.5" d="M132.956 264.863H129.89L116.553 183.688L119.539 183.246L132.956 264.863Z" fill="white"/>
<path d="M164.804 183.695L151.001 264.864H147.936L161.818 183.234L164.804 183.695Z" fill="#FF5C8A"/>
<path opacity="0.5" d="M164.804 183.695L151.001 264.864H147.936L161.818 183.234L164.804 183.695Z" fill="white"/>
<path d="M210.874 264.863H207.815L194.471 183.688L197.457 183.246L210.874 264.863Z" fill="#FF5C8A"/>
<path opacity="0.5" d="M210.874 264.863H207.815L194.471 183.688L197.457 183.246L210.874 264.863Z" fill="white"/>
<path d="M214.635 180.926H87.791V184.704H214.635V180.926Z" fill="#FF5C8A"/>
<path opacity="0.3" d="M214.695 180.926H163.57V184.704H214.695V180.926Z" fill="#1C2D5E"/>
<path d="M210.086 180.924H189.135C189.135 180.63 189.258 180.349 189.477 180.141C189.696 179.933 189.993 179.816 190.303 179.816H208.911C209.222 179.816 209.52 179.933 209.74 180.141C209.96 180.348 210.085 180.63 210.086 180.924Z" fill="#1C2D5E"/>
<path d="M202.479 170.34L199.656 176.763C199.138 176.663 198.672 176.595 198.344 176.551L201.284 169.861C201.351 169.708 201.48 169.587 201.641 169.524C201.802 169.461 201.983 169.461 202.144 169.524C202.305 169.588 202.433 169.71 202.499 169.862C202.566 170.015 202.566 170.187 202.499 170.34H202.479Z" fill="#1C2D5E"/>
<path d="M204.474 165.309C208.099 165.309 211.038 162.082 211.038 158.102C211.038 154.121 208.099 150.895 204.474 150.895C200.849 150.895 197.91 154.121 197.91 158.102C197.91 162.082 200.849 165.309 204.474 165.309Z" fill="#1C2D5E"/>
<path d="M218.987 155.885L218.541 154.385L228.59 149.637L228.931 151.435L218.987 155.885Z" fill="#1C2D5E"/>
<path opacity="0.1" d="M218.542 154.384L215.496 150.059L220.334 160.776L218.542 154.384Z" fill="#1C2D5E"/>
<path d="M191.184 159.298L190.908 157.674L186.648 156.137V157.674L191.184 159.298Z" fill="#1C2D5E"/>
<path opacity="0.1" d="M191.184 159.297C191.098 158.985 190.055 152.195 190.055 152.195V158.892L191.184 159.297Z" fill="#1C2D5E"/>
<path d="M199.67 138.828C199.67 138.828 196.796 144.914 203.569 144.721C210.343 144.529 212.05 139.786 212.391 136.257L210.277 135.566C210.277 135.566 209.057 140.545 204.475 141.535C199.894 142.524 200.274 137.994 200.274 137.994L199.67 138.828Z" fill="#1C2D5E"/>
<path opacity="0.1" d="M161.18 260.904L168.328 262.497L168.735 260.798L161.593 259.41L161.18 260.904Z" fill="#1C2D5E"/>
</g>
<defs>
<clipPath id="clip0_10429_109424">
<rect width="328" height="328" fill="white"/>
</clipPath>
</defs>
</svg>
