<svg width="328" height="245" viewBox="0 0 328 245" fill="none" xmlns="http://www.w3.org/2000/svg">
<path d="M328 214.773H0V214.937H328V214.773Z" fill="#E0E0E0"/>
<path d="M71.7794 222.641H33.8823V222.805H71.7794V222.641Z" fill="#E0E0E0"/>
<path d="M154.593 219.078H137.327V219.242H154.593V219.078Z" fill="#E0E0E0"/>
<path d="M194.543 218.992H160.904V219.156H194.543V218.992Z" fill="#E0E0E0"/>
<path d="M258.575 220.961H250.382V221.125H258.575V220.961Z" fill="#E0E0E0"/>
<path d="M222.089 220.961H189.407V221.125H222.089V220.961Z" fill="#E0E0E0"/>
<path d="M84.6238 222.641H78.1294V222.805H84.6238V222.641Z" fill="#E0E0E0"/>
<path d="M292.3 220.961H263.928V221.125H292.3V220.961Z" fill="#E0E0E0"/>
<path d="M155.472 185.517H28.8051C27.8128 185.515 26.8618 185.12 26.1607 184.417C25.4597 183.715 25.0659 182.763 25.0659 181.771V3.71296C25.0746 2.72635 25.4721 1.78299 26.1722 1.08779C26.8723 0.392589 27.8185 0.00169011 28.8051 0H155.472C156.466 0 157.418 0.394642 158.121 1.09711C158.823 1.79957 159.218 2.75232 159.218 3.74576V181.771C159.218 182.764 158.823 183.717 158.121 184.42C157.418 185.122 156.466 185.517 155.472 185.517ZM28.8051 0.131201C27.8563 0.132938 26.947 0.511067 26.2767 1.18259C25.6064 1.85411 25.2299 2.76415 25.2299 3.71296V181.771C25.2299 182.72 25.6064 183.63 26.2767 184.301C26.947 184.973 27.8563 185.351 28.8051 185.353H155.472C156.422 185.351 157.332 184.973 158.003 184.302C158.674 183.63 159.052 182.72 159.054 181.771V3.71296C159.052 2.76355 158.674 1.85352 158.003 1.18219C157.332 0.510854 156.422 0.132935 155.472 0.131201H28.8051Z" fill="#E0E0E0"/>
<path d="M297.372 185.517H170.698C169.705 185.515 168.753 185.12 168.051 184.418C167.349 183.716 166.954 182.764 166.952 181.771V3.71296C166.963 2.72575 167.362 1.7824 168.063 1.08738C168.764 0.392359 169.711 0.00167168 170.698 0H297.372C298.357 0.00341415 299.301 0.395075 300 1.09009C300.699 1.78511 301.096 2.72749 301.104 3.71296V181.771C301.104 182.762 300.711 183.713 300.012 184.415C299.312 185.117 298.363 185.513 297.372 185.517ZM170.698 0.131201C169.748 0.132935 168.838 0.510854 168.167 1.18219C167.496 1.85352 167.118 2.76355 167.116 3.71296V181.771C167.118 182.72 167.496 183.63 168.167 184.302C168.838 184.973 169.748 185.351 170.698 185.353H297.372C298.321 185.351 299.231 184.973 299.902 184.302C300.574 183.63 300.952 182.72 300.953 181.771V3.71296C300.952 2.76355 300.574 1.85352 299.902 1.18219C299.231 0.510854 298.321 0.132935 297.372 0.131201H170.698Z" fill="#E0E0E0"/>
<path d="M50.2629 53.6685C47.4028 47.4889 49.6725 43.0938 56.6589 43.0938C61.0476 43.0938 66.4989 44.8256 71.7469 47.6398C72.3505 46.0326 74.0298 45.0749 76.7391 45.0749C81.5082 45.0749 88.0879 48.0465 93.2441 52.2449C94.834 51.1849 96.7059 50.6272 98.6167 50.6443C103.209 50.4541 108.706 52.1662 113.514 54.9477C113.797 54.6804 114.13 54.4721 114.494 54.3347C114.857 54.1973 115.245 54.1336 115.633 54.1473C118.257 54.0424 121.819 55.7677 123.591 57.9981C123.702 58.1424 123.794 58.2736 123.892 58.4113H48.8722C48.7239 57.5671 48.7722 56.7 49.0134 55.8774C49.2546 55.0548 49.6822 54.2989 50.2629 53.6685Z" fill="#F5F5F5"/>
<path d="M135.346 24.2726C135.577 24.2462 135.809 24.2331 136.041 24.2333C135.825 21.8192 137.078 20.2973 139.748 20.2973C141.676 20.2973 144.038 21.1041 146.452 22.4686C145.763 17.7848 147.967 14.7344 152.973 14.7344C157.007 14.7344 162.111 16.7024 167.155 19.9824C167.595 18.1456 169.084 17.0435 171.583 17.0435C175.966 17.0435 182.204 20.4416 187.203 25.2435C188.53 24.0511 190.254 23.3962 192.038 23.4067C196.216 23.1902 201.399 25.1451 205.997 28.3333C206.216 28.0378 206.504 27.8 206.835 27.64C207.167 27.4801 207.532 27.4028 207.9 27.4149C210.182 27.3033 213.331 29.0549 215.155 31.4099H131.672C129.711 27.8085 131.272 24.6859 135.346 24.2726Z" fill="#F5F5F5"/>
<path d="M247.312 14.0435C245.475 10.1075 246.938 7.25391 251.419 7.25391C254.233 7.25391 257.723 8.36255 261.121 10.1731C261.501 9.14319 262.584 8.51999 264.322 8.51999C267.386 8.51999 271.604 10.4355 274.91 13.112C275.932 12.4335 277.134 12.077 278.36 12.0886C281.286 11.964 284.835 13.0595 287.918 14.8504C288.099 14.6777 288.312 14.5429 288.545 14.4539C288.778 14.3649 289.027 14.3235 289.276 14.3321C290.253 14.3674 291.212 14.6054 292.092 15.0312C292.971 15.457 293.753 16.0611 294.387 16.8053L294.583 17.0677H245.023C243.455 15.6769 245.186 14.1091 247.312 14.0435Z" fill="#F5F5F5"/>
<path d="M80.8258 143.348H58.4824V214.773H80.8258V143.348Z" fill="#EBEBEB"/>
<path d="M73.5245 214.773H110.162L110.162 118.492H73.5245L73.5245 214.773Z" fill="#F5F5F5"/>
<path d="M129.18 118.492H110.162V214.773H129.18V118.492Z" fill="#EBEBEB"/>
<path d="M78.4511 118.492H110.162V108.921H78.4511V118.492Z" fill="#F5F5F5"/>
<path d="M78.4511 118.492H110.162V116.341H78.4511V118.492Z" fill="#EBEBEB"/>
<path d="M124.246 108.922H110.162V118.493H124.246V108.922Z" fill="#EBEBEB"/>
<path d="M83.3774 108.922H110.155V99.3508H83.3774V108.922Z" fill="#F5F5F5"/>
<path d="M83.3774 108.922H110.155V106.77H83.3774V108.922Z" fill="#EBEBEB"/>
<path d="M119.32 99.3516H110.162V108.923H119.32V99.3516Z" fill="#EBEBEB"/>
<path d="M102.238 85.9805H100.46V99.3563H102.238V85.9805Z" fill="#EBEBEB"/>
<path d="M123.105 214.773H149.863V135.233H123.105L123.105 214.773Z" fill="#F5F5F5"/>
<path d="M163.751 135.234H149.863V214.774H163.751V135.234Z" fill="#EBEBEB"/>
<path d="M156.804 157.957L177.094 175.354V214.773H156.804V157.957Z" fill="#F5F5F5"/>
<path d="M187.629 175.348H177.1V214.767H187.629V175.348Z" fill="#EBEBEB"/>
<path d="M187.629 175.354H177.094L156.804 157.957H167.339L187.629 175.354Z" fill="#EBEBEB"/>
<path d="M282.736 214.776C283.017 213.2 283.687 211.719 284.685 210.467C285.682 209.215 286.976 208.232 288.45 207.605C287.156 209.762 286.569 212.269 286.77 214.776H282.736Z" fill="#EBEBEB"/>
<path d="M93.4999 214.776C93.2185 213.2 92.5487 211.719 91.551 210.467C90.5534 209.215 89.2594 208.232 87.7861 207.605C89.0795 209.762 89.6667 212.269 89.4655 214.776H93.4999Z" fill="#EBEBEB"/>
<path d="M46.6479 214.775C46.6479 214.775 46.3265 206.378 42.8169 203.938C44.2535 207.368 43.9518 214.775 43.9518 214.775H46.6479Z" fill="#EBEBEB"/>
<path d="M45.3296 214.774C45.3296 214.774 45.651 209.952 49.1606 208.555C47.724 210.523 48.0389 214.774 48.0389 214.774H45.3296Z" fill="#EBEBEB"/>
<path d="M96.5041 214.775C96.5041 214.775 96.1498 206.824 89.7866 203.938C92.6337 208.018 92.4697 214.775 92.4697 214.775H96.5041Z" fill="#EBEBEB"/>
<path d="M253.406 204.015H237.328C237.154 204.015 236.987 203.946 236.864 203.823C236.741 203.7 236.672 203.533 236.672 203.359V187.301C236.672 187.127 236.741 186.96 236.864 186.837C236.987 186.714 237.154 186.645 237.328 186.645H253.406C253.58 186.645 253.747 186.714 253.87 186.837C253.993 186.96 254.062 187.127 254.062 187.301V203.359C254.062 203.533 253.993 203.7 253.87 203.823C253.747 203.946 253.58 204.015 253.406 204.015ZM237.984 202.703H252.75V187.957H237.984V202.703Z" fill="#E0E0E0"/>
<path d="M253.406 187.956H237.328C237.154 187.956 236.987 187.887 236.864 187.764C236.741 187.641 236.672 187.474 236.672 187.3V171.215C236.672 171.041 236.741 170.874 236.864 170.751C236.987 170.628 237.154 170.559 237.328 170.559H253.406C253.58 170.559 253.747 170.628 253.87 170.751C253.993 170.874 254.062 171.041 254.062 171.215V187.3C254.062 187.474 253.993 187.641 253.87 187.764C253.747 187.887 253.58 187.956 253.406 187.956ZM237.984 186.644H252.75V171.871H237.984V186.644Z" fill="#E0E0E0"/>
<path d="M253.406 204.017C253.233 204.015 253.068 203.944 252.947 203.82L236.862 187.742C236.738 187.618 236.669 187.451 236.669 187.276C236.669 187.101 236.738 186.934 236.862 186.81C236.985 186.687 237.153 186.617 237.328 186.617C237.502 186.617 237.67 186.687 237.793 186.81L253.872 202.921C253.994 203.044 254.063 203.211 254.063 203.384C254.063 203.557 253.994 203.724 253.872 203.846C253.745 203.962 253.578 204.023 253.406 204.017Z" fill="#E0E0E0"/>
<path d="M253.406 187.957C253.234 187.956 253.069 187.888 252.947 187.767L236.862 171.681C236.739 171.559 236.671 171.392 236.671 171.219C236.671 171.046 236.739 170.879 236.862 170.757C236.923 170.695 236.995 170.646 237.075 170.613C237.155 170.58 237.241 170.562 237.327 170.562C237.414 170.562 237.5 170.58 237.58 170.613C237.66 170.646 237.732 170.695 237.793 170.757L253.872 186.835C253.964 186.927 254.027 187.044 254.053 187.172C254.079 187.3 254.066 187.432 254.016 187.552C253.966 187.673 253.881 187.775 253.772 187.848C253.664 187.92 253.536 187.958 253.406 187.957Z" fill="#E0E0E0"/>
<path d="M253.406 171.871H237.328C237.154 171.871 236.987 171.802 236.864 171.679C236.741 171.556 236.672 171.389 236.672 171.215V155.136C236.672 154.962 236.741 154.796 236.864 154.673C236.987 154.55 237.154 154.48 237.328 154.48H253.406C253.58 154.48 253.747 154.55 253.87 154.673C253.993 154.796 254.062 154.962 254.062 155.136V171.215C254.062 171.389 253.993 171.556 253.87 171.679C253.747 171.802 253.58 171.871 253.406 171.871ZM237.984 170.559H252.75V155.792H237.984V170.559Z" fill="#E0E0E0"/>
<path d="M253.406 155.795H237.328C237.154 155.795 236.987 155.726 236.864 155.603C236.741 155.48 236.672 155.313 236.672 155.139V139.074C236.672 138.9 236.741 138.733 236.864 138.61C236.987 138.487 237.154 138.418 237.328 138.418H253.406C253.58 138.418 253.747 138.487 253.87 138.61C253.993 138.733 254.062 138.9 254.062 139.074V155.159C254.057 155.33 253.986 155.491 253.863 155.61C253.741 155.729 253.577 155.795 253.406 155.795ZM237.984 154.483H252.75V139.73H237.984V154.483Z" fill="#E0E0E0"/>
<path d="M253.406 171.871C253.234 171.87 253.069 171.802 252.947 171.681L236.862 155.596C236.739 155.473 236.671 155.306 236.671 155.133C236.671 154.96 236.739 154.794 236.862 154.671C236.923 154.609 236.995 154.56 237.075 154.527C237.155 154.494 237.241 154.477 237.327 154.477C237.414 154.477 237.5 154.494 237.58 154.527C237.66 154.56 237.732 154.609 237.793 154.671L253.872 170.756C253.994 170.879 254.063 171.045 254.063 171.218C254.063 171.392 253.994 171.558 253.872 171.681C253.81 171.741 253.738 171.79 253.658 171.822C253.578 171.855 253.492 171.871 253.406 171.871Z" fill="#E0E0E0"/>
<path d="M253.406 155.794C253.233 155.792 253.068 155.721 252.947 155.598L236.862 139.519C236.738 139.395 236.669 139.228 236.669 139.053C236.669 138.879 236.738 138.711 236.862 138.587C236.985 138.464 237.153 138.395 237.328 138.395C237.502 138.395 237.67 138.464 237.793 138.587L253.872 154.673C253.994 154.795 254.063 154.962 254.063 155.135C254.063 155.308 253.994 155.475 253.872 155.598C253.811 155.66 253.739 155.709 253.659 155.743C253.579 155.776 253.493 155.794 253.406 155.794Z" fill="#E0E0E0"/>
<path d="M253.406 139.729H237.328C237.154 139.729 236.987 139.66 236.864 139.537C236.741 139.414 236.672 139.247 236.672 139.073V122.969C236.672 122.795 236.741 122.628 236.864 122.505C236.987 122.382 237.154 122.312 237.328 122.312H253.406C253.58 122.312 253.747 122.382 253.87 122.505C253.993 122.628 254.062 122.795 254.062 122.969V139.073C254.062 139.247 253.993 139.414 253.87 139.537C253.747 139.66 253.58 139.729 253.406 139.729ZM237.984 138.417H252.75V123.625H237.984V138.417Z" fill="#E0E0E0"/>
<path d="M253.406 123.625H237.328C237.154 123.625 236.987 123.556 236.864 123.433C236.741 123.31 236.672 123.143 236.672 122.969V106.89C236.672 106.716 236.741 106.55 236.864 106.427C236.987 106.303 237.154 106.234 237.328 106.234H253.406C253.58 106.234 253.747 106.303 253.87 106.427C253.993 106.55 254.062 106.716 254.062 106.89V122.969C254.062 123.143 253.993 123.31 253.87 123.433C253.747 123.556 253.58 123.625 253.406 123.625ZM237.984 122.313H252.75V107.546H237.984V122.313Z" fill="#E0E0E0"/>
<path d="M253.406 139.726C253.234 139.726 253.069 139.657 252.947 139.536L236.862 123.451C236.739 123.328 236.671 123.162 236.671 122.989C236.671 122.815 236.739 122.649 236.862 122.526C236.923 122.465 236.995 122.416 237.075 122.382C237.155 122.349 237.241 122.332 237.327 122.332C237.414 122.332 237.5 122.349 237.58 122.382C237.66 122.416 237.732 122.465 237.793 122.526L253.872 138.585C253.964 138.677 254.027 138.794 254.053 138.922C254.079 139.049 254.066 139.182 254.016 139.302C253.966 139.423 253.881 139.525 253.772 139.597C253.664 139.669 253.536 139.707 253.406 139.707V139.726Z" fill="#E0E0E0"/>
<path d="M237.328 69.8973H221.242C221.068 69.8973 220.902 69.8282 220.779 69.7051C220.656 69.5821 220.586 69.4153 220.586 69.2413V53.1365C220.586 52.9625 220.656 52.7956 220.779 52.6726C220.902 52.5496 221.068 52.4805 221.242 52.4805H237.328C237.502 52.4805 237.668 52.5496 237.791 52.6726C237.914 52.7956 237.984 52.9625 237.984 53.1365V69.215C237.987 69.3034 237.973 69.3915 237.941 69.4741C237.91 69.5568 237.862 69.6322 237.801 69.6959C237.74 69.7597 237.666 69.8104 237.585 69.845C237.503 69.8795 237.416 69.8973 237.328 69.8973ZM221.898 68.5853H236.672V53.7925H221.898V68.5853Z" fill="#E0E0E0"/>
<path d="M253.406 69.8974H237.328C237.154 69.8974 236.987 69.8283 236.864 69.7053C236.741 69.5822 236.672 69.4154 236.672 69.2414C236.672 69.0674 236.741 68.9006 236.864 68.7775C236.987 68.6545 237.154 68.5854 237.328 68.5854H252.75V37.0974C252.75 36.9234 252.82 36.7566 252.943 36.6335C253.066 36.5105 253.232 36.4414 253.406 36.4414C253.58 36.4414 253.747 36.5105 253.87 36.6335C253.993 36.7566 254.062 36.9234 254.062 37.0974V69.2414C254.062 69.4154 253.993 69.5822 253.87 69.7053C253.747 69.8283 253.58 69.8974 253.406 69.8974Z" fill="#E0E0E0"/>
<path d="M237.328 69.895C237.215 69.8958 237.105 69.8677 237.006 69.8134C236.908 69.7591 236.825 69.6805 236.766 69.585C236.706 69.4895 236.673 69.3804 236.668 69.2681C236.663 69.1558 236.687 69.0442 236.737 68.9438L252.822 36.7998C252.901 36.6453 253.038 36.5282 253.202 36.4741C253.367 36.4201 253.546 36.4334 253.701 36.5112C253.857 36.5887 253.976 36.7248 254.031 36.8896C254.086 37.0544 254.074 37.2345 253.997 37.3902L237.911 69.5342C237.857 69.6424 237.774 69.7334 237.67 69.7971C237.567 69.8608 237.449 69.8947 237.328 69.895Z" fill="#E0E0E0"/>
<path d="M221.242 69.8973H205.164C204.99 69.8973 204.823 69.8282 204.7 69.7051C204.577 69.5821 204.508 69.4153 204.508 69.2413V53.1365C204.508 52.9625 204.577 52.7956 204.7 52.6726C204.823 52.5496 204.99 52.4805 205.164 52.4805H221.242C221.416 52.4805 221.583 52.5496 221.706 52.6726C221.829 52.7956 221.898 52.9625 221.898 53.1365V69.215C221.902 69.3034 221.888 69.3915 221.856 69.4741C221.825 69.5568 221.777 69.6322 221.716 69.6959C221.654 69.7597 221.581 69.8104 221.5 69.845C221.418 69.8795 221.331 69.8973 221.242 69.8973ZM205.82 68.5853H220.586V53.7925H205.82V68.5853Z" fill="#E0E0E0"/>
<path d="M221.242 69.8983C221.114 69.8965 220.989 69.857 220.883 69.7848C220.777 69.7126 220.694 69.6108 220.645 69.4921C220.596 69.3734 220.583 69.2429 220.608 69.1169C220.632 68.9908 220.693 68.8748 220.783 68.7831L236.862 52.698C236.923 52.6365 236.995 52.5877 237.075 52.5544C237.155 52.5211 237.241 52.5039 237.328 52.5039C237.414 52.5039 237.5 52.5211 237.58 52.5544C237.66 52.5877 237.732 52.6365 237.793 52.698C237.916 52.8209 237.984 52.9871 237.984 53.1604C237.984 53.3337 237.916 53.5 237.793 53.6229L221.728 69.708C221.664 69.7712 221.588 69.8207 221.505 69.8535C221.421 69.8862 221.332 69.9014 221.242 69.8983Z" fill="#E0E0E0"/>
<path d="M269.491 69.8973H253.406C253.232 69.8973 253.065 69.8282 252.942 69.7051C252.819 69.5821 252.75 69.4153 252.75 69.2413V53.1365C252.75 52.9625 252.819 52.7956 252.942 52.6726C253.065 52.5496 253.232 52.4805 253.406 52.4805H269.491C269.665 52.4805 269.832 52.5496 269.955 52.6726C270.078 52.7956 270.147 52.9625 270.147 53.1365V69.215C270.151 69.3034 270.136 69.3915 270.105 69.4741C270.074 69.5568 270.026 69.6322 269.965 69.6959C269.903 69.7597 269.83 69.8104 269.748 69.845C269.667 69.8795 269.58 69.8973 269.491 69.8973ZM254.062 68.5853H268.835V53.7925H254.062V68.5853Z" fill="#E0E0E0"/>
<path d="M253.406 69.8983C253.278 69.8965 253.153 69.857 253.046 69.7848C252.94 69.7126 252.858 69.6108 252.809 69.4921C252.76 69.3734 252.747 69.2429 252.771 69.1169C252.796 68.9908 252.857 68.8748 252.947 68.7831L269.025 52.698C269.086 52.6365 269.159 52.5877 269.239 52.5544C269.319 52.5211 269.405 52.5039 269.491 52.5039C269.578 52.5039 269.664 52.5211 269.743 52.5544C269.823 52.5877 269.896 52.6365 269.957 52.698C270.079 52.8209 270.148 52.9871 270.148 53.1604C270.148 53.3337 270.079 53.5 269.957 53.6229L253.872 69.708C253.811 69.7688 253.738 69.8169 253.658 69.8496C253.578 69.8822 253.492 69.8988 253.406 69.8983Z" fill="#E0E0E0"/>
<path d="M156.915 69.8972C156.829 69.8977 156.743 69.8812 156.663 69.8485C156.584 69.8159 156.511 69.7678 156.45 69.707C156.327 69.5841 156.259 69.4178 156.259 69.2445C156.259 69.0712 156.327 68.9049 156.45 68.782L172.528 52.6969C172.617 52.6031 172.735 52.5409 172.863 52.5198L253.282 36.4346C253.387 36.4135 253.496 36.4187 253.599 36.4495C253.702 36.4804 253.796 36.5361 253.872 36.6118L286.016 68.7558C286.085 68.8146 286.141 68.8869 286.18 68.9683C286.219 69.0497 286.241 69.1384 286.245 69.2287C286.248 69.3191 286.233 69.4091 286.2 69.4933C286.167 69.5775 286.117 69.654 286.053 69.7179C285.989 69.7818 285.913 69.8318 285.829 69.8648C285.745 69.8978 285.654 69.913 285.564 69.9095C285.474 69.9061 285.385 69.8839 285.304 69.8445C285.222 69.8052 285.15 69.7494 285.091 69.6807L253.216 37.7926L173.322 53.7924L157.375 69.7332C157.248 69.8448 157.084 69.9036 156.915 69.8972Z" fill="#E0E0E0"/>
<path d="M205.164 69.8971C205.078 69.8976 204.992 69.8811 204.912 69.8484C204.832 69.8158 204.759 69.7677 204.698 69.7069C204.576 69.584 204.507 69.4177 204.507 69.2444C204.507 69.0711 204.576 68.9048 204.698 68.7819L220.783 52.6968C220.909 52.5893 221.07 52.5332 221.235 52.5396C221.4 52.5459 221.557 52.6144 221.674 52.7312C221.791 52.848 221.859 53.0046 221.865 53.1697C221.872 53.3348 221.816 53.4963 221.708 53.6218L205.623 69.7069C205.501 69.8281 205.336 69.8964 205.164 69.8971Z" fill="#E0E0E0"/>
<path d="M205.164 69.8973H189.079C188.905 69.8973 188.738 69.8282 188.615 69.7051C188.492 69.5821 188.423 69.4153 188.423 69.2413V53.1365C188.423 52.9625 188.492 52.7956 188.615 52.6726C188.738 52.5496 188.905 52.4805 189.079 52.4805H205.164C205.338 52.4805 205.505 52.5496 205.628 52.6726C205.751 52.7956 205.82 52.9625 205.82 53.1365V69.215C205.824 69.3034 205.809 69.3915 205.778 69.4741C205.746 69.5568 205.699 69.6322 205.637 69.6959C205.576 69.7597 205.503 69.8104 205.421 69.845C205.34 69.8795 205.252 69.8973 205.164 69.8973ZM189.735 68.5853H204.508V53.7925H189.735V68.5853Z" fill="#E0E0E0"/>
<path d="M189.079 69.8973H172.994C172.82 69.8973 172.653 69.8282 172.53 69.7051C172.407 69.5821 172.338 69.4153 172.338 69.2413V53.1365C172.338 52.9625 172.407 52.7956 172.53 52.6726C172.653 52.5496 172.82 52.4805 172.994 52.4805H189.079C189.253 52.4805 189.42 52.5496 189.543 52.6726C189.666 52.7956 189.735 52.9625 189.735 53.1365V69.215C189.739 69.3034 189.724 69.3915 189.693 69.4741C189.661 69.5568 189.614 69.6322 189.552 69.6959C189.491 69.7597 189.418 69.8104 189.336 69.845C189.255 69.8795 189.167 69.8973 189.079 69.8973ZM173.65 68.5853H188.423V53.7925H173.65V68.5853Z" fill="#E0E0E0"/>
<path d="M189.079 69.8971C188.993 69.8976 188.907 69.8811 188.827 69.8484C188.747 69.8158 188.674 69.7677 188.613 69.7069C188.491 69.584 188.422 69.4177 188.422 69.2444C188.422 69.0711 188.491 68.9048 188.613 68.7819L204.672 52.6968C204.797 52.5893 204.959 52.5332 205.124 52.5396C205.289 52.5459 205.446 52.6144 205.563 52.7312C205.679 52.848 205.748 53.0046 205.754 53.1697C205.761 53.3348 205.704 53.4963 205.597 53.6218L189.518 69.7069C189.401 69.8234 189.244 69.8914 189.079 69.8971Z" fill="#E0E0E0"/>
<path d="M172.994 69.8983C172.866 69.8965 172.74 69.857 172.634 69.7848C172.528 69.7126 172.445 69.6108 172.397 69.4921C172.348 69.3734 172.335 69.2429 172.359 69.1169C172.384 68.9908 172.445 68.8748 172.535 68.7831L188.613 52.698C188.674 52.6365 188.747 52.5877 188.827 52.5544C188.907 52.5211 188.992 52.5039 189.079 52.5039C189.166 52.5039 189.251 52.5211 189.331 52.5544C189.411 52.5877 189.484 52.6365 189.545 52.698C189.667 52.8209 189.736 52.9871 189.736 53.1604C189.736 53.3337 189.667 53.5 189.545 53.6229L173.46 69.708C173.398 69.7688 173.326 69.8169 173.246 69.8496C173.166 69.8822 173.08 69.8988 172.994 69.8983Z" fill="#E0E0E0"/>
<path d="M172.994 69.8973H156.915C156.741 69.8973 156.574 69.8282 156.451 69.7051C156.328 69.5821 156.259 69.4153 156.259 69.2413C156.259 69.0673 156.328 68.9004 156.451 68.7774C156.574 68.6544 156.741 68.5853 156.915 68.5853H172.338V53.1365C172.338 52.9625 172.407 52.7956 172.53 52.6726C172.653 52.5496 172.82 52.4805 172.994 52.4805C173.168 52.4805 173.335 52.5496 173.458 52.6726C173.581 52.7956 173.65 52.9625 173.65 53.1365V69.215C173.653 69.3034 173.639 69.3915 173.608 69.4741C173.576 69.5568 173.529 69.6322 173.467 69.6959C173.406 69.7597 173.332 69.8104 173.251 69.845C173.17 69.8795 173.082 69.8973 172.994 69.8973Z" fill="#E0E0E0"/>
<path d="M253.406 123.624C253.234 123.623 253.069 123.555 252.947 123.433L236.862 107.355C236.801 107.294 236.752 107.221 236.719 107.141C236.686 107.061 236.669 106.976 236.669 106.889C236.669 106.803 236.686 106.717 236.719 106.637C236.752 106.557 236.801 106.485 236.862 106.423C236.923 106.362 236.996 106.314 237.076 106.281C237.155 106.248 237.241 106.23 237.328 106.23C237.414 106.23 237.5 106.248 237.58 106.281C237.66 106.314 237.732 106.362 237.793 106.423L253.872 122.509C253.994 122.631 254.063 122.798 254.063 122.971C254.063 123.144 253.994 123.311 253.872 123.433C253.811 123.494 253.738 123.542 253.658 123.575C253.578 123.608 253.493 123.624 253.406 123.624Z" fill="#E0E0E0"/>
<path d="M253.406 107.546H237.328C237.154 107.546 236.987 107.476 236.864 107.353C236.741 107.23 236.672 107.064 236.672 106.89V90.8044C236.672 90.6305 236.741 90.4636 236.864 90.3406C236.987 90.2176 237.154 90.1484 237.328 90.1484H253.406C253.58 90.1484 253.747 90.2176 253.87 90.3406C253.993 90.4636 254.062 90.6305 254.062 90.8044V106.89C254.062 107.064 253.993 107.23 253.87 107.353C253.747 107.476 253.58 107.546 253.406 107.546ZM237.984 106.234H252.75V91.4604H237.984V106.234Z" fill="#E0E0E0"/>
<path d="M253.406 91.4609H237.328C237.154 91.4609 236.987 91.3918 236.864 91.2687C236.741 91.1457 236.672 90.9789 236.672 90.8049V74.7263C236.672 74.5523 236.741 74.3855 236.864 74.2624C236.987 74.1394 237.154 74.0703 237.328 74.0703H253.406C253.58 74.0703 253.747 74.1394 253.87 74.2624C253.993 74.3855 254.062 74.5523 254.062 74.7263V90.8049C254.062 90.9789 253.993 91.1457 253.87 91.2687C253.747 91.3918 253.58 91.4609 253.406 91.4609ZM237.984 90.1489H252.75V75.3823H237.984V90.1489Z" fill="#E0E0E0"/>
<path d="M253.406 107.544C253.234 107.544 253.069 107.475 252.947 107.354L236.862 91.269C236.801 91.2078 236.752 91.1352 236.719 91.0553C236.686 90.9754 236.669 90.8897 236.669 90.8032C236.669 90.7167 236.686 90.6311 236.719 90.5511C236.752 90.4712 236.801 90.3986 236.862 90.3375C236.923 90.2763 236.996 90.2278 237.076 90.1947C237.155 90.1616 237.241 90.1445 237.328 90.1445C237.414 90.1445 237.5 90.1616 237.58 90.1947C237.66 90.2278 237.732 90.2763 237.793 90.3375L253.872 106.423C253.964 106.514 254.028 106.632 254.053 106.759C254.079 106.887 254.066 107.02 254.016 107.14C253.966 107.26 253.881 107.363 253.773 107.435C253.664 107.507 253.536 107.545 253.406 107.544Z" fill="#E0E0E0"/>
<path d="M253.406 91.4608C253.234 91.46 253.069 91.3917 252.947 91.2705L236.862 75.1854C236.739 75.0625 236.671 74.8962 236.671 74.7229C236.671 74.5496 236.739 74.3834 236.862 74.2604C236.923 74.199 236.995 74.1502 237.075 74.1169C237.155 74.0836 237.241 74.0664 237.327 74.0664C237.414 74.0664 237.5 74.0836 237.58 74.1169C237.66 74.1502 237.732 74.199 237.793 74.2604L253.872 90.339C253.964 90.4308 254.027 90.548 254.053 90.6757C254.079 90.8035 254.066 90.936 254.016 91.0563C253.966 91.1767 253.881 91.2794 253.772 91.3514C253.664 91.4235 253.536 91.4615 253.406 91.4608Z" fill="#E0E0E0"/>
<path d="M285.576 69.2422H156.915L172.994 74.7263H285.576V69.2422Z" fill="#E0E0E0"/>
<path d="M285.576 75.3822H172.994C172.922 75.3818 172.851 75.3685 172.784 75.3428L156.699 69.8652C156.549 69.8163 156.423 69.7154 156.341 69.5809C156.26 69.4465 156.23 69.2873 156.256 69.1325C156.282 68.9776 156.363 68.8373 156.484 68.737C156.605 68.6368 156.758 68.5832 156.915 68.586H285.576C285.75 68.586 285.917 68.6552 286.04 68.7782C286.163 68.9012 286.232 69.0681 286.232 69.242V74.7262C286.232 74.9002 286.163 75.067 286.04 75.1901C285.917 75.3131 285.75 75.3822 285.576 75.3822ZM173.105 74.0702H284.92V69.898H160.871L173.105 74.0702Z" fill="#E0E0E0"/>
<path d="M225.421 97.2852H237.328V71.9832H225.421V97.2852Z" fill="#E0E0E0"/>
<path d="M225.415 71.9844H219.878V97.2863H225.415V71.9844Z" fill="#F5F5F5"/>
<path d="M239.099 214.77H262.544V203.381H239.099V214.77Z" fill="#E0E0E0"/>
<path d="M239.099 203.387H228.189V214.775H239.099V203.387Z" fill="#F5F5F5"/>
<path d="M269.491 97.5091C269.317 97.5091 269.151 97.44 269.028 97.3169C268.905 97.1939 268.835 97.0271 268.835 96.8531V71.9841C268.835 71.8101 268.905 71.6433 269.028 71.5203C269.151 71.3972 269.317 71.3281 269.491 71.3281C269.665 71.3281 269.832 71.3972 269.955 71.5203C270.078 71.6433 270.147 71.8101 270.147 71.9841V96.8531C270.147 97.0271 270.078 97.1939 269.955 97.3169C269.832 97.44 269.665 97.5091 269.491 97.5091Z" fill="#E0E0E0"/>
<path d="M269.491 100.525C269.063 100.525 268.645 100.398 268.289 100.16C267.933 99.9222 267.655 99.5841 267.491 99.1885C267.328 98.793 267.285 98.3577 267.368 97.9378C267.452 97.5178 267.658 97.1321 267.961 96.8294C268.263 96.5266 268.649 96.3204 269.069 96.2369C269.489 96.1534 269.924 96.1963 270.32 96.3601C270.715 96.5239 271.054 96.8014 271.291 97.1574C271.529 97.5134 271.656 97.932 271.656 98.3601C271.656 98.6444 271.6 98.9259 271.491 99.1885C271.383 99.4512 271.223 99.6898 271.022 99.8909C270.821 100.092 270.583 100.251 270.32 100.36C270.057 100.469 269.776 100.525 269.491 100.525ZM269.491 97.5073C269.323 97.5073 269.158 97.5573 269.018 97.651C268.877 97.7447 268.768 97.8779 268.704 98.0338C268.639 98.1896 268.622 98.3611 268.655 98.5265C268.688 98.6919 268.769 98.8439 268.888 98.9631C269.008 99.0824 269.16 99.1636 269.325 99.1965C269.491 99.2294 269.662 99.2125 269.818 99.148C269.974 99.0834 270.107 98.9741 270.201 98.8339C270.294 98.6937 270.344 98.5288 270.344 98.3601C270.344 98.2481 270.322 98.1372 270.279 98.0338C270.236 97.9303 270.174 97.8363 270.094 97.7571C270.015 97.6779 269.921 97.6151 269.818 97.5722C269.714 97.5294 269.603 97.5073 269.491 97.5073Z" fill="#E0E0E0"/>
<path d="M175.014 110.563C174.84 110.563 174.674 110.494 174.551 110.371C174.428 110.248 174.358 110.081 174.358 109.907V71.9841C174.358 71.8101 174.428 71.6433 174.551 71.5203C174.674 71.3972 174.84 71.3281 175.014 71.3281C175.188 71.3281 175.355 71.3972 175.478 71.5203C175.601 71.6433 175.67 71.8101 175.67 71.9841V109.907C175.67 110.081 175.601 110.248 175.478 110.371C175.355 110.494 175.188 110.563 175.014 110.563Z" fill="#E0E0E0"/>
<path d="M181.174 114.49C181.018 114.492 180.866 114.439 180.745 114.339C180.625 114.239 180.545 114.1 180.518 113.946C180.033 113.185 175.762 110.666 174.981 110.561C174.247 110.659 169.976 113.185 169.491 113.946C169.476 114.12 169.393 114.281 169.259 114.393C169.126 114.506 168.953 114.561 168.779 114.546C168.605 114.531 168.444 114.448 168.331 114.314C168.219 114.181 168.164 114.008 168.179 113.834C168.179 112.358 174.129 109.242 174.988 109.242C175.847 109.242 181.804 112.352 181.804 113.834C181.804 114.004 181.738 114.167 181.621 114.289C181.504 114.411 181.343 114.483 181.174 114.49Z" fill="#E0E0E0"/>
<path d="M188.272 161.906L197.896 152.282L195.842 148.346C196.02 147.953 196.184 147.559 196.334 147.153L200.552 145.841V132.248L196.334 130.936C196.177 130.536 196.02 130.136 195.842 129.742L197.889 125.806L188.272 116.202L184.336 118.249C183.943 118.072 183.549 117.908 183.149 117.757L181.837 113.539H168.212L166.9 117.757C166.5 117.908 166.106 118.072 165.712 118.249L161.776 116.202L152.192 125.819L154.245 129.755C154.062 130.149 153.904 130.549 153.747 130.949L149.529 132.261V145.867L153.747 147.179C153.904 147.585 154.062 147.979 154.239 148.373L152.192 152.309L161.816 161.932L165.752 159.879C166.145 160.056 166.545 160.22 166.946 160.371L168.258 164.589H181.87L183.182 160.371C183.582 160.22 183.975 160.056 184.369 159.879L188.272 161.906ZM182.204 146.208C180.788 147.625 178.983 148.59 177.018 148.981C175.053 149.373 173.017 149.172 171.165 148.406C169.314 147.639 167.732 146.341 166.619 144.675C165.506 143.01 164.912 141.051 164.912 139.048C164.912 137.044 165.506 135.086 166.619 133.42C167.732 131.754 169.314 130.456 171.165 129.689C173.017 128.923 175.053 128.723 177.018 129.114C178.983 129.505 180.788 130.47 182.204 131.887C183.144 132.829 183.889 133.946 184.396 135.176C184.904 136.405 185.164 137.723 185.161 139.053C185.159 140.383 184.894 141.7 184.382 142.928C183.87 144.155 183.121 145.27 182.178 146.208H182.204Z" fill="#E0E0E0"/>
<path d="M164 244.399C234.246 244.399 291.192 241.074 291.192 236.973C291.192 232.872 234.246 229.547 164 229.547C93.7538 229.547 36.8081 232.872 36.8081 236.973C36.8081 241.074 93.7538 244.399 164 244.399Z" fill="#F5F5F5"/>
<path d="M115.384 70.9453H107.197C106.823 70.9457 106.455 71.044 106.131 71.2304C105.806 71.4168 105.536 71.6849 105.347 72.008L101.254 79.0994C101.067 79.4247 100.968 79.7934 100.968 80.1687C100.968 80.5439 101.067 80.9126 101.254 81.238L105.347 88.3228C105.534 88.648 105.804 88.9181 106.129 89.1059C106.453 89.2936 106.822 89.3923 107.197 89.392H115.384C115.759 89.3923 116.128 89.2936 116.453 89.1059C116.777 88.9181 117.047 88.648 117.234 88.3228L121.327 81.238C121.514 80.9126 121.613 80.5439 121.613 80.1687C121.613 79.7934 121.514 79.4247 121.327 79.0994L117.234 72.008C117.045 71.6849 116.775 71.4168 116.45 71.2304C116.126 71.044 115.758 70.9457 115.384 70.9453Z" fill="#FF5C8A"/>
<path opacity="0.5" d="M115.384 70.9453H107.197C106.823 70.9457 106.455 71.044 106.131 71.2304C105.806 71.4168 105.536 71.6849 105.347 72.008L101.254 79.0994C101.067 79.4247 100.968 79.7934 100.968 80.1687C100.968 80.5439 101.067 80.9126 101.254 81.238L105.347 88.3228C105.534 88.648 105.804 88.9181 106.129 89.1059C106.453 89.2936 106.822 89.3923 107.197 89.392H115.384C115.759 89.3923 116.128 89.2936 116.453 89.1059C116.777 88.9181 117.047 88.648 117.234 88.3228L121.327 81.238C121.514 80.9126 121.613 80.5439 121.613 80.1687C121.613 79.7934 121.514 79.4247 121.327 79.0994L117.234 72.008C117.045 71.6849 116.775 71.4168 116.45 71.2304C116.126 71.044 115.758 70.9457 115.384 70.9453Z" fill="white"/>
<path d="M62.976 47.449L62.5103 46.9832L66.4463 43.0472L66.912 43.5129L62.976 47.449ZM69.7525 40.6725L69.2867 40.2067L77.513 31.9805L77.9787 32.4397L69.7525 40.6725Z" fill="#FF5C8A"/>
<path opacity="0.5" d="M62.976 47.449L62.5103 46.9832L66.4463 43.0472L66.912 43.5129L62.976 47.449ZM69.7525 40.6725L69.2867 40.2067L77.513 31.9805L77.9787 32.4397L69.7525 40.6725Z" fill="white"/>
<path d="M166.952 95.0147V65.3241L157.768 62.4443C157.44 61.5653 157.079 60.6993 156.699 59.8203L161.166 51.2923L140.174 30.3003L131.646 34.7742C130.787 34.3872 129.927 34.0264 129.022 33.6918L126.142 24.5078H96.4321L93.5588 33.6918C92.6732 34.0264 91.8139 34.3872 90.9348 34.7742L82.4068 30.3003L61.4148 51.2923L65.8887 59.8203C65.5017 60.6797 65.1409 61.539 64.8129 62.4443L55.6289 65.3241V95.0147L64.8129 97.888C65.1475 98.767 65.5083 99.6329 65.8887 100.512L61.4148 109.04L82.4068 130.032L90.9348 125.558C91.7876 125.945 92.647 126.306 93.5588 126.64L96.4321 135.824H126.123L129.003 126.64C129.882 126.306 130.741 125.945 131.627 125.558L140.155 130.032L161.146 109.04L156.673 100.512C157.053 99.6592 157.42 98.7933 157.748 97.888L166.952 95.0147ZM133.385 80.1629C133.385 84.5326 132.089 88.8043 129.661 92.4377C127.233 96.071 123.783 98.9029 119.746 100.575C115.708 102.247 111.266 102.685 106.98 101.832C102.694 100.98 98.7575 98.8756 95.6676 95.7857C92.5777 92.6958 90.4735 88.759 89.621 84.4732C88.7685 80.1874 89.206 75.745 90.8782 71.7078C92.5505 67.6706 95.3823 64.22 99.0157 61.7923C102.649 59.3646 106.921 58.0688 111.291 58.0688C117.15 58.0705 122.768 60.3988 126.911 64.5419C131.055 68.685 133.383 74.3037 133.385 80.1629Z" fill="#FF5C8A"/>
<path opacity="0.5" d="M166.952 95.0147V65.3241L157.768 62.4443C157.44 61.5653 157.079 60.6993 156.699 59.8203L161.166 51.2923L140.174 30.3003L131.646 34.7742C130.787 34.3872 129.927 34.0264 129.022 33.6918L126.142 24.5078H96.4321L93.5588 33.6918C92.6732 34.0264 91.8139 34.3872 90.9348 34.7742L82.4068 30.3003L61.4148 51.2923L65.8887 59.8203C65.5017 60.6797 65.1409 61.539 64.8129 62.4443L55.6289 65.3241V95.0147L64.8129 97.888C65.1475 98.767 65.5083 99.6329 65.8887 100.512L61.4148 109.04L82.4068 130.032L90.9348 125.558C91.7876 125.945 92.647 126.306 93.5588 126.64L96.4321 135.824H126.123L129.003 126.64C129.882 126.306 130.741 125.945 131.627 125.558L140.155 130.032L161.146 109.04L156.673 100.512C157.053 99.6592 157.42 98.7933 157.748 97.888L166.952 95.0147ZM133.385 80.1629C133.385 84.5326 132.089 88.8043 129.661 92.4377C127.233 96.071 123.783 98.9029 119.746 100.575C115.708 102.247 111.266 102.685 106.98 101.832C102.694 100.98 98.7575 98.8756 95.6676 95.7857C92.5777 92.6958 90.4735 88.759 89.621 84.4732C88.7685 80.1874 89.206 75.745 90.8782 71.7078C92.5505 67.6706 95.3823 64.22 99.0157 61.7923C102.649 59.3646 106.921 58.0688 111.291 58.0688C117.15 58.0705 122.768 60.3988 126.911 64.5419C131.055 68.685 133.383 74.3037 133.385 80.1629Z" fill="white"/>
<path d="M124.693 134.028H97.895C97.8596 134.028 97.825 134.016 97.7966 133.995C97.7683 133.974 97.7475 133.944 97.7376 133.91L95.1136 125.631C95.1006 125.589 95.1046 125.544 95.1249 125.505C95.1452 125.466 95.1801 125.437 95.2218 125.424C95.2636 125.411 95.3088 125.415 95.3476 125.436C95.3863 125.456 95.4154 125.491 95.4285 125.533L97.9803 133.7H124.535L127.264 125.08C127.272 125.056 127.285 125.035 127.302 125.017C127.319 124.998 127.34 124.984 127.363 124.975L128.261 124.64C129.022 124.352 129.829 124.017 130.741 123.61L131.613 123.217C131.653 123.199 131.699 123.199 131.739 123.215C131.78 123.231 131.813 123.262 131.83 123.302C131.847 123.342 131.848 123.387 131.832 123.428C131.816 123.469 131.785 123.501 131.745 123.519L130.872 123.906C129.96 124.319 129.14 124.653 128.379 124.942L127.553 125.257L124.85 133.91C124.839 133.943 124.818 133.973 124.79 133.994C124.762 134.015 124.728 134.027 124.693 134.028ZM139.781 127.776C139.737 127.775 139.696 127.758 139.663 127.73C139.647 127.715 139.634 127.696 139.625 127.676C139.617 127.656 139.612 127.634 139.612 127.612C139.612 127.59 139.617 127.568 139.625 127.548C139.634 127.528 139.647 127.509 139.663 127.494L158.529 108.634L154.337 100.631C154.326 100.608 154.32 100.584 154.32 100.559C154.32 100.533 154.326 100.509 154.337 100.486L154.731 99.614C155.124 98.7284 155.459 97.9149 155.754 97.1408L156.089 96.2421C156.098 96.2191 156.112 96.1983 156.13 96.1813C156.149 96.1643 156.17 96.1515 156.194 96.1437L164.82 93.4476V66.9124L156.292 64.249C156.269 64.2455 156.246 64.237 156.226 64.224C156.206 64.211 156.189 64.1938 156.177 64.1736C156.164 64.1534 156.156 64.1307 156.153 64.1071C156.15 64.0835 156.153 64.0595 156.16 64.0369C156.167 64.0142 156.179 63.9934 156.195 63.9759C156.211 63.9583 156.231 63.9445 156.253 63.9353C156.275 63.9262 156.299 63.9219 156.322 63.9229C156.346 63.9238 156.369 63.9299 156.391 63.9407L165.01 66.6303C165.043 66.6422 165.071 66.6636 165.091 66.6917C165.11 66.7198 165.121 66.7533 165.122 66.7877V93.5853C165.122 93.62 165.112 93.6539 165.092 93.6822C165.072 93.7105 165.043 93.7317 165.01 93.7428L156.371 96.4324L156.063 97.2589C155.767 98.0396 155.407 98.853 155.026 99.7517L154.672 100.552L158.877 108.588C158.898 108.615 158.909 108.649 158.909 108.683C158.909 108.718 158.898 108.751 158.877 108.778L139.932 127.73C139.891 127.763 139.839 127.78 139.787 127.776H139.781ZM82.7939 127.776C82.7505 127.775 82.7088 127.758 82.6758 127.73L63.7306 108.778C63.7117 108.75 63.7016 108.717 63.7016 108.683C63.7016 108.649 63.7117 108.616 63.7306 108.588L67.9749 100.48C67.9958 100.442 68.0306 100.413 68.072 100.399C68.1135 100.386 68.1586 100.389 68.1979 100.408C68.2169 100.418 68.2337 100.432 68.2473 100.449C68.2609 100.466 68.271 100.485 68.2771 100.506C68.2832 100.526 68.2851 100.548 68.2828 100.57C68.2805 100.591 68.2739 100.612 68.2635 100.631L64.0782 108.634L82.9382 127.494C82.9541 127.509 82.9667 127.528 82.9754 127.548C82.984 127.568 82.9884 127.59 82.9884 127.612C82.9884 127.634 82.984 127.656 82.9754 127.676C82.9667 127.696 82.9541 127.715 82.9382 127.73C82.9196 127.747 82.8978 127.759 82.8741 127.767C82.8504 127.775 82.8254 127.778 82.8005 127.776H82.7939ZM93.9459 124.831H93.8869C93.2309 124.575 92.5159 124.273 91.7221 123.919C91.6989 123.913 91.6772 123.902 91.6586 123.887C91.6399 123.872 91.6249 123.853 91.6144 123.832C91.6039 123.81 91.5982 123.787 91.5978 123.763C91.5973 123.739 91.6021 123.715 91.6119 123.693C91.6216 123.671 91.636 123.652 91.654 123.636C91.6721 123.62 91.6934 123.609 91.7164 123.602C91.7394 123.595 91.7636 123.594 91.7872 123.598C91.8109 123.601 91.8334 123.61 91.8533 123.624C92.6405 123.971 93.3424 124.28 94.005 124.522C94.0254 124.53 94.044 124.542 94.0598 124.557C94.0755 124.573 94.088 124.591 94.0966 124.611C94.1052 124.631 94.1096 124.653 94.1096 124.675C94.1097 124.697 94.1053 124.719 94.0968 124.739C94.083 124.77 94.0596 124.795 94.03 124.812C94.0005 124.828 93.9664 124.835 93.9328 124.831H93.9459ZM111.304 104.403C104.874 104.391 98.7124 101.828 94.1705 97.2774C89.6285 92.7269 87.0776 86.5601 87.0776 80.1308C87.0776 80.0873 87.0949 80.0455 87.1256 80.0148C87.1564 79.984 87.1981 79.9668 87.2416 79.9668C87.2851 79.9668 87.3268 79.984 87.3576 80.0148C87.3883 80.0455 87.4056 80.0873 87.4056 80.1308C87.4056 84.8573 88.8072 89.4778 91.4332 93.4078C94.0591 97.3378 97.7915 100.401 102.158 102.21C106.525 104.018 111.33 104.492 115.966 103.57C120.602 102.648 124.86 100.371 128.202 97.0293C131.544 93.687 133.82 89.4288 134.743 84.793C135.665 80.1573 135.191 75.3522 133.383 70.9854C131.574 66.6186 128.511 62.8862 124.581 60.2602C120.651 57.6343 116.03 56.2327 111.304 56.2327C111.26 56.2327 111.218 56.2154 111.188 56.1846C111.157 56.1539 111.14 56.1122 111.14 56.0687C111.14 56.0252 111.157 55.9835 111.188 55.9527C111.218 55.922 111.26 55.9047 111.304 55.9047C117.731 55.9047 123.894 58.4577 128.439 63.0022C132.983 67.5467 135.536 73.7104 135.536 80.1373C135.536 86.5642 132.983 92.7279 128.439 97.2724C123.894 101.817 117.731 104.37 111.304 104.37V104.403ZM66.6957 97.3639C66.6615 97.3625 66.6284 97.3512 66.6004 97.3314C66.5725 97.3116 66.5509 97.2842 66.5382 97.2524L66.2299 96.4324L57.5642 93.7231C57.5313 93.712 57.5028 93.6908 57.4828 93.6625C57.4628 93.6342 57.4522 93.6003 57.4526 93.5656V66.768C57.4532 66.7336 57.4641 66.7001 57.484 66.672C57.5039 66.6439 57.5319 66.6225 57.5642 66.6106L65.8494 64.026C65.8912 64.0133 65.9363 64.0171 65.9753 64.0366C66.0144 64.0561 66.0445 64.0899 66.0594 64.1309C66.0701 64.1735 66.0647 64.2186 66.0441 64.2574C66.0234 64.2962 65.9892 64.3259 65.9478 64.3408L57.761 66.9124V93.4672L66.3874 96.1634C66.4105 96.1707 66.4315 96.1834 66.4486 96.2006C66.4657 96.2177 66.4785 96.2387 66.4858 96.2618L66.8269 97.1605C66.842 97.2006 66.8409 97.245 66.8237 97.2842C66.8065 97.3234 66.7747 97.3544 66.7351 97.3704L66.6957 97.3639ZM66.6957 63.2519H66.6367C66.5965 63.2345 66.5646 63.2023 66.5475 63.162C66.5304 63.1217 66.5294 63.0764 66.5448 63.0354C66.8597 62.1957 67.2008 61.3954 67.5616 60.582C67.5801 60.543 67.6132 60.5129 67.6537 60.4982C67.6942 60.4835 67.7389 60.4853 67.7781 60.5032C67.7979 60.5118 67.8159 60.5242 67.831 60.5397C67.846 60.5553 67.8578 60.5736 67.8658 60.5937C67.8737 60.6138 67.8776 60.6353 67.8772 60.657C67.8767 60.6786 67.8721 60.6999 67.8634 60.7197C67.496 61.52 67.168 62.3204 66.8531 63.1535C66.8416 63.1892 66.8187 63.2201 66.7879 63.2414C66.757 63.2628 66.72 63.2734 66.6826 63.2715L66.6957 63.2519ZM154.724 59.5061H154.646C154.627 59.4958 154.61 59.4819 154.596 59.4651C154.583 59.4483 154.573 59.4289 154.566 59.4082C154.56 59.3875 154.558 59.3658 154.561 59.3443C154.563 59.3228 154.57 59.302 154.58 59.2831L158.516 51.7063L155.367 48.5444C155.348 48.5303 155.333 48.5123 155.322 48.4917C155.31 48.471 155.304 48.4482 155.302 48.4248C155.3 48.4013 155.304 48.3778 155.312 48.3558C155.32 48.3338 155.333 48.3138 155.35 48.2972C155.366 48.2806 155.386 48.2677 155.408 48.2595C155.43 48.2513 155.454 48.2479 155.477 48.2496C155.501 48.2512 155.523 48.2579 155.544 48.2692C155.565 48.2804 155.583 48.296 155.597 48.3147L158.877 51.5947C158.898 51.6221 158.909 51.6555 158.909 51.6899C158.909 51.7242 158.898 51.7576 158.877 51.785L154.856 59.4667C154.838 59.4878 154.816 59.5042 154.791 59.5145C154.766 59.5248 154.738 59.5287 154.711 59.5258L154.724 59.5061ZM63.8486 51.8244C63.8049 51.8248 63.7626 51.8083 63.7306 51.7784C63.702 51.747 63.6862 51.7061 63.6862 51.6636C63.6862 51.6212 63.702 51.5802 63.7306 51.5488L82.6562 32.6101C82.6831 32.5883 82.7166 32.5764 82.7513 32.5764C82.7859 32.5764 82.8195 32.5883 82.8464 32.6101L90.8824 36.8151L91.6827 36.4608C92.4568 36.1132 93.1653 35.8048 93.8475 35.549C93.8677 35.5405 93.8894 35.5361 93.9114 35.5362C93.9333 35.5362 93.955 35.5406 93.9752 35.5492C93.9954 35.5578 94.0136 35.5703 94.0289 35.586C94.0441 35.6018 94.0561 35.6204 94.064 35.6408C94.0788 35.6817 94.0767 35.7268 94.0583 35.7662C94.0398 35.8055 94.0065 35.836 93.9656 35.8508C93.3096 36.1197 92.588 36.4149 91.8205 36.756L90.948 37.1496C90.9252 37.1594 90.9007 37.1644 90.8758 37.1644C90.851 37.1644 90.8265 37.1594 90.8037 37.1496L82.8005 32.9578L63.9667 51.8244C63.9289 51.8397 63.8865 51.8397 63.8486 51.8244ZM152.75 45.8416C152.706 45.8421 152.664 45.8256 152.632 45.7957L139.728 32.925L131.725 37.1168C131.704 37.1283 131.68 37.1343 131.656 37.1343C131.632 37.1343 131.608 37.1283 131.587 37.1168L130.715 36.7232C129.816 36.3231 129.003 35.9885 128.235 35.6933L127.336 35.3588C127.313 35.3495 127.293 35.3353 127.276 35.3172C127.259 35.299 127.246 35.2774 127.238 35.2538L124.542 26.634H98.0131L95.6909 34.0533C95.685 34.0739 95.6749 34.0931 95.6613 34.1096C95.6477 34.1262 95.6309 34.1398 95.6118 34.1496C95.5928 34.1594 95.5719 34.1653 95.5506 34.1668C95.5292 34.1682 95.5077 34.1654 95.4875 34.1583C95.447 34.1447 95.4133 34.1159 95.3937 34.0779C95.3741 34.0399 95.3701 33.9958 95.3826 33.9549L97.7442 26.424C97.7553 26.3912 97.7765 26.3627 97.8048 26.3427C97.833 26.3226 97.867 26.3121 97.9016 26.3125H124.699C124.734 26.313 124.767 26.324 124.795 26.3439C124.823 26.3638 124.845 26.3917 124.857 26.424L127.559 35.0832L128.386 35.3981C129.16 35.6868 129.973 36.0541 130.879 36.4346L131.679 36.7888L139.728 32.5839C139.756 32.5631 139.789 32.5519 139.823 32.5519C139.858 32.5519 139.891 32.5631 139.918 32.5839L152.848 45.5727C152.864 45.588 152.877 45.6063 152.885 45.6266C152.894 45.6469 152.898 45.6687 152.898 45.6908C152.898 45.7128 152.894 45.7346 152.885 45.7549C152.877 45.7752 152.864 45.7935 152.848 45.8088C152.821 45.8345 152.787 45.8506 152.75 45.8548V45.8416Z" fill="#FAFAFA"/>
<path d="M205.551 85.5352C207.604 88.1592 209.526 90.7832 211.402 93.4924C213.278 96.2017 215.063 98.97 216.749 101.856C217.175 102.571 217.582 103.319 217.995 104.054C218.591 105.167 218.943 106.395 219.025 107.655C219.132 109.568 218.946 111.486 218.474 113.343C217.658 116.681 216.419 119.902 214.787 122.927L211.409 121.615C212.08 118.586 212.564 115.519 212.859 112.431C212.989 111.097 212.945 109.752 212.727 108.43C212.674 108.062 212.537 107.712 212.327 107.406C211.894 106.75 211.474 106.094 211.015 105.438C209.238 102.814 207.355 100.249 205.459 97.6712L199.758 89.9435L205.551 85.5352Z" fill="#FF8B7B"/>
<path d="M211.173 121.234L209.428 124.356L215.515 125.255C215.515 125.255 216.171 122.631 214.643 120.82L211.173 121.234Z" fill="#FF8B7B"/>
<path d="M208.51 128.512L213.581 129.024L215.516 125.258L209.428 124.359L208.51 128.512Z" fill="#FF8B7B"/>
<path d="M225.008 147.14L226.819 137.504C227.029 136.386 227.674 135.397 228.612 134.754C229.55 134.111 230.705 133.866 231.824 134.073L247.023 136.92C246.116 133.883 244.504 131.104 242.317 128.81C240.131 126.516 237.432 124.771 234.443 123.72C231.453 122.668 228.257 122.338 225.116 122.758C221.974 123.178 218.977 124.335 216.368 126.135L147.41 85.3189C147.768 81.0036 146.722 76.688 144.428 73.0154C142.134 69.3428 138.714 66.5099 134.679 64.9389C130.644 63.3679 126.209 63.1429 122.036 64.2975C117.862 65.4522 114.174 67.9245 111.52 71.3461L126.719 74.1932C127.836 74.408 128.822 75.0553 129.464 75.994C130.105 76.9327 130.349 78.0868 130.144 79.205L128.333 88.8482C128.121 89.9653 127.476 90.9532 126.538 91.596C125.6 92.2389 124.446 92.4844 123.328 92.2791L108.128 89.4255C109.039 92.4807 110.664 95.2753 112.869 97.5782C115.073 99.8811 117.795 101.626 120.807 102.669C123.82 103.712 127.038 104.023 130.194 103.576C133.351 103.129 136.356 101.937 138.96 100.099L207.781 140.836C207.384 145.161 208.4 149.497 210.675 153.196C212.95 156.895 216.363 159.757 220.402 161.353C224.441 162.949 228.888 163.193 233.077 162.049C237.266 160.905 240.972 158.433 243.638 155.006L228.439 152.152C227.321 151.939 226.333 151.292 225.691 150.353C225.048 149.414 224.802 148.259 225.008 147.14Z" fill="#FF5C8A"/>
<path d="M207.833 125.888L151.922 92.7963C150.906 92.1947 149.594 92.531 148.992 93.5474L146.714 97.3975C146.112 98.4139 146.448 99.7255 147.465 100.327L203.376 133.419C204.392 134.021 205.704 133.684 206.305 132.668L208.584 128.818C209.186 127.802 208.849 126.49 207.833 125.888Z" fill="#FF5C8A"/>
<path opacity="0.2" d="M207.833 125.888L151.922 92.7963C150.906 92.1947 149.594 92.531 148.992 93.5474L146.714 97.3975C146.112 98.4139 146.448 99.7255 147.465 100.327L203.376 133.419C204.392 134.021 205.704 133.684 206.305 132.668L208.584 128.818C209.186 127.802 208.849 126.49 207.833 125.888Z" fill="white"/>
<path d="M182.197 65.1475C182.132 65.5346 181.882 65.8035 181.633 65.8035C181.384 65.8035 181.226 65.4165 181.285 65.036C181.344 64.6555 181.6 64.38 181.85 64.4128C182.099 64.4456 182.256 64.767 182.197 65.1475Z" fill="#263238"/>
<path d="M181.915 65.8164C181.274 66.9186 180.483 67.9273 179.567 68.8143C179.799 69.0469 180.078 69.2261 180.387 69.3394C180.695 69.4527 181.024 69.4974 181.351 69.4703L181.915 65.8164Z" fill="#FF5652"/>
<path d="M183.922 63.2363C183.893 63.2366 183.864 63.2309 183.837 63.2197C183.81 63.2084 183.785 63.1917 183.765 63.1707C183.568 62.963 183.324 62.8053 183.053 62.7106C182.783 62.616 182.494 62.587 182.21 62.6262C182.181 62.633 182.15 62.6337 182.12 62.6284C182.09 62.6231 182.061 62.6119 182.035 62.5954C182.01 62.5789 181.988 62.5575 181.97 62.5324C181.953 62.5073 181.941 62.479 181.935 62.4491C181.928 62.4198 181.927 62.3894 181.933 62.3598C181.938 62.3302 181.949 62.302 181.966 62.2768C181.983 62.2517 182.004 62.2302 182.029 62.2136C182.054 62.197 182.082 62.1856 182.112 62.1801C182.468 62.1236 182.833 62.1536 183.176 62.2678C183.519 62.382 183.829 62.5769 184.08 62.8361C184.121 62.8809 184.144 62.9394 184.144 63.0001C184.144 63.0609 184.121 63.1194 184.08 63.1641C184.037 63.2058 183.982 63.2313 183.922 63.2363Z" fill="#263238"/>
<path d="M195.009 69.3789C194.353 72.9082 193.631 79.3698 196.098 81.7183C196.098 81.7183 195.134 85.2935 188.58 85.2935C181.364 85.2935 185.136 81.7183 185.136 81.7183C189.072 80.7802 188.967 77.861 188.285 75.1583L195.009 69.3789Z" fill="#FF8B7B"/>
<path d="M199.424 84.3694C199.344 84.2533 199.285 84.1247 199.247 83.9889C198.696 81.8963 196.38 80.2629 193.376 80.1776C190.207 80.0989 186.632 80.4793 184.52 82.2243C183.588 82.9918 184.618 84.1136 184.618 84.1136L199.424 84.3694Z" fill="#FF5C8A"/>
<path opacity="0.5" d="M199.424 84.3694C199.344 84.2533 199.285 84.1247 199.247 83.9889C198.696 81.8963 196.38 80.2629 193.376 80.1776C190.207 80.0989 186.632 80.4793 184.52 82.2243C183.588 82.9918 184.618 84.1136 184.618 84.1136L199.424 84.3694Z" fill="white"/>
<path d="M222.587 216.369H222.541C222.445 216.355 222.355 216.312 222.284 216.245C222.214 216.178 222.166 216.09 222.148 215.995C222.125 215.92 222.118 215.842 222.128 215.765C222.138 215.688 222.165 215.614 222.207 215.549C222.574 214.925 224.175 214.597 224.221 214.584C224.243 214.58 224.265 214.582 224.286 214.59C224.307 214.598 224.325 214.612 224.339 214.63C224.35 214.649 224.355 214.671 224.355 214.693C224.355 214.714 224.35 214.736 224.339 214.755C224.096 215.168 223.197 216.369 222.587 216.369ZM223.997 214.866C223.473 215.004 222.62 215.286 222.403 215.66C222.383 215.7 222.372 215.743 222.372 215.788C222.372 215.833 222.383 215.877 222.403 215.916C222.462 216.119 222.567 216.132 222.594 216.139C222.889 216.178 223.584 215.47 223.997 214.866Z" fill="#FF5C8A"/>
<path d="M223.46 214.892C222.863 214.892 222.194 214.781 221.99 214.492C221.943 214.421 221.92 214.335 221.928 214.249C221.935 214.163 221.971 214.083 222.03 214.02C222.083 213.951 222.149 213.894 222.225 213.851C222.3 213.808 222.383 213.781 222.469 213.771C223.191 213.692 224.273 214.564 224.319 214.604C224.336 214.616 224.349 214.634 224.356 214.653C224.364 214.673 224.365 214.694 224.361 214.715C224.357 214.735 224.347 214.754 224.333 214.769C224.319 214.784 224.3 214.795 224.28 214.801C224.012 214.868 223.736 214.899 223.46 214.892ZM222.581 213.994H222.496C222.44 213.997 222.385 214.013 222.337 214.04C222.288 214.068 222.246 214.105 222.213 214.151C222.122 214.269 222.161 214.328 222.181 214.348C222.364 214.617 223.368 214.722 223.978 214.623C223.574 214.298 223.093 214.081 222.581 213.994Z" fill="#FF5C8A"/>
<path d="M174.942 232.297C174.326 232.297 173.729 232.212 173.525 231.936C173.474 231.863 173.446 231.776 173.446 231.687C173.446 231.598 173.474 231.51 173.525 231.437C173.565 231.37 173.619 231.312 173.682 231.266C173.745 231.22 173.816 231.186 173.893 231.169C174.693 230.952 176.379 231.91 176.451 231.956C176.471 231.968 176.487 231.985 176.496 232.006C176.506 232.028 176.508 232.051 176.503 232.074C176.499 232.096 176.488 232.117 176.471 232.133C176.455 232.15 176.434 232.161 176.412 232.166C175.926 232.251 175.435 232.295 174.942 232.297ZM174.175 231.365C174.103 231.355 174.03 231.355 173.958 231.365C173.912 231.374 173.868 231.393 173.83 231.42C173.791 231.447 173.759 231.482 173.735 231.523C173.65 231.667 173.683 231.739 173.735 231.779C173.958 232.087 175.178 232.093 176.077 231.969C175.488 231.646 174.842 231.441 174.175 231.365Z" fill="#FF5C8A"/>
<path d="M176.398 232.166H176.352C175.769 231.904 174.614 230.854 174.706 230.316C174.706 230.185 174.817 230.027 175.132 229.995C175.249 229.98 175.368 229.99 175.481 230.024C175.594 230.058 175.698 230.115 175.788 230.191C176.405 230.697 176.53 231.995 176.536 232.048C176.539 232.068 176.536 232.088 176.528 232.107C176.52 232.125 176.507 232.141 176.49 232.153C176.462 232.169 176.429 232.174 176.398 232.166ZM175.224 230.198H175.152C174.949 230.198 174.935 230.296 174.929 230.323C174.876 230.651 175.664 231.471 176.241 231.825C176.181 231.275 175.952 230.757 175.585 230.342C175.482 230.26 175.355 230.214 175.224 230.211V230.198Z" fill="#FF5C8A"/>
<path d="M181.699 232.053H176.877L176.398 220.895H181.22L181.699 232.053Z" fill="#FF8B7B"/>
<path d="M228.557 211.265L224.647 214.085L215.424 206.974L219.334 204.16L228.557 211.265Z" fill="#FF8B7B"/>
<path d="M224.09 214.045L227.842 210.109C227.908 210.04 227.995 209.996 228.089 209.984C228.184 209.972 228.279 209.993 228.36 210.043L232.112 212.32C232.202 212.376 232.278 212.452 232.335 212.542C232.392 212.632 232.428 212.734 232.44 212.839C232.453 212.945 232.442 213.052 232.408 213.153C232.374 213.253 232.318 213.345 232.244 213.422C230.932 214.766 230.19 215.35 228.544 217.069C227.527 218.125 224.772 221.838 223.368 223.301C221.964 224.764 220.344 223.563 220.783 222.842C222.751 219.601 223.709 216.387 223.762 214.786C223.781 214.508 223.897 214.246 224.09 214.045Z" fill="#263238"/>
<path d="M176.91 231.496H182.158C182.254 231.495 182.347 231.527 182.423 231.587C182.498 231.647 182.55 231.73 182.571 231.824L183.523 236.108C183.545 236.211 183.544 236.318 183.52 236.421C183.495 236.524 183.448 236.62 183.381 236.702C183.314 236.784 183.23 236.85 183.134 236.895C183.038 236.94 182.933 236.962 182.827 236.961C180.931 236.961 178.189 236.823 175.801 236.823C173.007 236.823 170.599 236.974 167.326 236.974C165.358 236.974 164.8 234.973 165.627 234.789C169.399 233.969 172.475 233.877 175.736 231.87C176.084 231.638 176.491 231.508 176.91 231.496Z" fill="#263238"/>
<path d="M198.807 91.8903C199.463 93.1039 200.205 94.2781 200.92 95.3737C202.153 97.2695 203.347 98.9095 204.2 100.038C204.967 101.055 205.459 101.652 205.459 101.652L215.168 95.0325C215.168 95.0325 209.264 83.5394 204.718 82.8047C200.041 82.0634 195.757 86.4455 198.807 91.8903Z" fill="#FF5C8A"/>
<path opacity="0.5" d="M198.807 91.8903C199.463 93.1039 200.205 94.2781 200.92 95.3737C202.153 97.2695 203.347 98.9095 204.2 100.038C204.967 101.055 205.459 101.652 205.459 101.652L215.168 95.0325C215.168 95.0325 209.264 83.5394 204.718 82.8047C200.041 82.0634 195.757 86.4455 198.807 91.8903Z" fill="black"/>
<path d="M200.919 95.3768C202.153 97.2726 203.347 98.9126 204.199 100.041C204.101 97.7843 203.635 94.1369 201.884 91.3555C201.247 91.9852 200.992 93.6121 200.919 95.3768Z" fill="#FF5C8A"/>
<path opacity="0.6" d="M200.919 95.3768C202.153 97.2726 203.347 98.9126 204.199 100.041C204.101 97.7843 203.635 94.1369 201.884 91.3555C201.247 91.9852 200.992 93.6121 200.919 95.3768Z" fill="black"/>
<path d="M175.355 98.7656C175.355 100.406 175.395 102.21 175.487 104.197C175.723 109.603 176.313 116.34 177.455 124.71H203.229C203.406 120.774 200.92 101.449 204.738 82.8051C201.886 82.2568 199.003 81.893 196.105 81.7161C192.456 81.5061 188.798 81.5061 185.15 81.7161C182.649 81.9633 180.171 82.402 177.737 83.0281C177.737 83.0281 175.349 85.7374 175.355 98.7656Z" fill="#FF5C8A"/>
<path opacity="0.5" d="M175.355 98.7656C175.355 100.406 175.395 102.21 175.487 104.197C175.723 109.603 176.313 116.34 177.455 124.71H203.229C203.406 120.774 200.92 101.449 204.738 82.8051C201.886 82.2568 199.003 81.893 196.105 81.7161C192.456 81.5061 188.798 81.5061 185.15 81.7161C182.649 81.9633 180.171 82.402 177.737 83.0281C177.737 83.0281 175.349 85.7374 175.355 98.7656Z" fill="black"/>
<path d="M175.355 98.7677C175.355 100.408 175.395 102.212 175.487 104.199C178.511 101.247 178.714 95.2188 178.714 95.2188L175.355 98.7677Z" fill="#FF5C8A"/>
<path opacity="0.6" d="M175.355 98.7677C175.355 100.408 175.395 102.212 175.487 104.199C178.511 101.247 178.714 95.2188 178.714 95.2188L175.355 98.7677Z" fill="black"/>
<path d="M180.728 91.2822C180.232 92.1118 179.684 92.9094 179.088 93.67C178.543 94.3785 177.999 95.0476 177.441 95.7102C176.333 97.0222 175.145 98.2882 173.938 99.515C171.465 102.026 168.727 104.261 165.771 106.18C164.975 106.678 164.154 107.133 163.311 107.544L162.976 107.702L162.812 107.781L162.609 107.866C162.285 108.003 161.952 108.117 161.612 108.207L161.133 108.332L160.674 108.41C160.381 108.461 160.085 108.494 159.788 108.509C157.814 108.574 155.843 108.296 153.963 107.689C150.64 106.655 147.473 105.174 144.549 103.287L146.104 100.007C149.087 100.9 152.127 101.593 155.203 102.08C156.504 102.299 157.832 102.316 159.139 102.132C159.25 102.114 159.36 102.086 159.467 102.047L159.611 102.008L159.716 101.962C159.801 101.962 159.821 101.896 159.873 101.877L160.267 101.647C160.871 101.296 161.456 100.913 162.019 100.499C164.44 98.6775 166.69 96.6399 168.743 94.4113C169.812 93.2895 170.842 92.1153 171.845 90.9476C172.344 90.3572 172.829 89.7668 173.282 89.1698C173.735 88.5729 174.201 87.9628 174.469 87.543L180.728 91.2822Z" fill="#FF8B7B"/>
<path d="M146.813 100.891L143.612 97.0859L141.434 102.649C141.434 102.649 144.195 103.961 146.347 103.2L146.813 100.891Z" fill="#FF8B7B"/>
<path d="M138.915 96.2539L138.022 100.695L141.434 102.643L143.612 97.0805L138.915 96.2539Z" fill="#FF8B7B"/>
<path d="M184.592 88.672C184.021 93.264 173.604 102.94 173.604 102.94L164.223 95.501C166.581 92.0155 169.338 88.8167 172.436 85.9693C179.232 80.0784 185.281 83.1879 184.592 88.672Z" fill="#FF5C8A"/>
<path opacity="0.5" d="M184.592 88.672C184.021 93.264 173.604 102.94 173.604 102.94L164.223 95.501C166.581 92.0155 169.338 88.8167 172.436 85.9693C179.232 80.0784 185.281 83.1879 184.592 88.672Z" fill="black"/>
<path d="M176.464 119.665C185.825 119.665 187.964 109.078 188.456 104.532C187.273 96.843 184.534 89.4767 180.406 82.8835C180.356 82.8029 180.325 82.711 180.318 82.616C180.311 82.5209 180.327 82.4255 180.365 82.3381C180.403 82.2508 180.462 82.1741 180.537 82.1148C180.612 82.0555 180.7 82.0154 180.793 81.9979L182.847 81.6174C182.964 81.5983 183.083 81.6135 183.192 81.6612C183.3 81.709 183.392 81.7872 183.457 81.8864C189.092 90.9064 190.935 98.5554 191.532 102.491H193.212C194.93 98.7522 198.715 90.2307 198.407 82.2472C198.401 82.1616 198.415 82.0758 198.446 81.996C198.478 81.9163 198.527 81.8445 198.59 81.7861C198.653 81.7277 198.728 81.684 198.81 81.6582C198.892 81.6324 198.978 81.6252 199.063 81.6371L201.267 81.8536C201.409 81.8632 201.542 81.9247 201.641 82.0263C201.741 82.128 201.799 82.2627 201.805 82.4046C202.127 90.0995 197.777 100.773 196.105 104.164C196.675 116.72 203.662 118.891 203.662 118.891C203.834 122.013 203.695 125.145 203.248 128.239C188.456 130.64 181.082 129.177 176.864 127.432C177.192 124.277 176.602 122.066 176.464 119.665Z" fill="#FF5C8A"/>
<path opacity="0.3" d="M176.464 119.665C185.825 119.665 187.964 109.078 188.456 104.532C187.273 96.843 184.534 89.4767 180.406 82.8835C180.356 82.8029 180.325 82.711 180.318 82.616C180.311 82.5209 180.327 82.4255 180.365 82.3381C180.403 82.2508 180.462 82.1741 180.537 82.1148C180.612 82.0555 180.7 82.0154 180.793 81.9979L182.847 81.6174C182.964 81.5983 183.083 81.6135 183.192 81.6612C183.3 81.709 183.392 81.7872 183.457 81.8864C189.092 90.9064 190.935 98.5554 191.532 102.491H193.212C194.93 98.7522 198.715 90.2307 198.407 82.2472C198.401 82.1616 198.415 82.0758 198.446 81.996C198.478 81.9163 198.527 81.8445 198.59 81.7861C198.653 81.7277 198.728 81.684 198.81 81.6582C198.892 81.6324 198.978 81.6252 199.063 81.6371L201.267 81.8536C201.409 81.8632 201.542 81.9247 201.641 82.0263C201.741 82.128 201.799 82.2627 201.805 82.4046C202.127 90.0995 197.777 100.773 196.105 104.164C196.675 116.72 203.662 118.891 203.662 118.891C203.834 122.013 203.695 125.145 203.248 128.239C188.456 130.64 181.082 129.177 176.864 127.432C177.192 124.277 176.602 122.066 176.464 119.665Z" fill="black"/>
<path d="M176.398 220.895L176.648 226.648H181.469L181.22 220.895H176.398Z" fill="#FF5652"/>
<path d="M219.34 204.16L215.43 206.981L220.186 210.641L224.096 207.821L219.34 204.16Z" fill="#FF5652"/>
<path d="M195.134 66.3414C194.104 71.0121 193.736 73.8001 190.975 75.8468C186.822 78.93 181.338 75.8468 180.951 70.9727C180.603 66.5775 182.342 59.6764 187.255 58.5087C188.337 58.2585 189.464 58.2867 190.531 58.5909C191.599 58.895 192.572 59.4651 193.359 60.2477C194.146 61.0303 194.722 61.9999 195.032 63.0656C195.343 64.1314 195.378 65.2585 195.134 66.3414Z" fill="#FF8B7B"/>
<path d="M199.299 59.0917C203.399 59.2032 201.713 61.3615 199.66 62.5489C199.66 62.5489 202.028 63.6837 200.808 66.393C198.958 70.5061 195.416 75.026 191.801 74.7767C187.301 74.4684 186.022 69.5746 186.186 64.7464C183.811 62.5095 183.411 61.2762 183.043 58.5866C182.302 53.2533 185.648 50.321 199.299 59.0917Z" fill="#263238"/>
<path d="M194.019 50.1038C196.826 50.8238 199.232 52.629 200.708 55.1225C202.184 57.616 202.61 60.5937 201.891 63.4009L180.708 57.9955C181.064 56.6029 181.69 55.294 182.551 54.1435C183.412 52.9931 184.492 52.0237 185.728 51.2908C186.964 50.5579 188.333 50.0758 189.755 49.8721C191.178 49.6684 192.627 49.7472 194.019 50.1038Z" fill="#FF5C8A"/>
<path opacity="0.5" d="M194.019 50.1038C196.826 50.8238 199.232 52.629 200.708 55.1225C202.184 57.616 202.61 60.5937 201.891 63.4009L180.708 57.9955C181.064 56.6029 181.69 55.294 182.551 54.1435C183.412 52.9931 184.492 52.0237 185.728 51.2908C186.964 50.5579 188.333 50.0758 189.755 49.8721C191.178 49.6684 192.627 49.7472 194.019 50.1038Z" fill="white"/>
<path d="M198.204 63.4151C198.057 63.4173 197.912 63.3853 197.78 63.3218C197.648 63.2583 197.533 63.1649 197.443 63.0491C197.353 62.9333 197.292 62.7982 197.263 62.6546C197.235 62.5109 197.24 62.3625 197.279 62.2212C197.573 61.0298 197.614 59.7898 197.398 58.5816C197.182 57.3735 196.715 56.2243 196.026 55.2086C194.552 52.9907 192.296 51.4096 189.708 50.7806C189.462 50.718 189.251 50.5601 189.121 50.3417C188.991 50.1234 188.954 49.8624 189.016 49.6162C189.079 49.37 189.237 49.1588 189.455 49.029C189.674 48.8992 189.935 48.8615 190.181 48.9241C193.235 49.6744 195.893 51.5483 197.626 54.1721C198.461 55.4087 199.027 56.8068 199.286 58.2759C199.546 59.7449 199.495 61.2522 199.135 62.7001C199.081 62.9058 198.961 63.0877 198.792 63.2171C198.623 63.3466 198.416 63.4163 198.204 63.4151Z" fill="#FF5C8A"/>
<path opacity="0.3" d="M198.204 63.4151C198.057 63.4173 197.912 63.3853 197.78 63.3218C197.648 63.2583 197.533 63.1649 197.443 63.0491C197.353 62.9333 197.292 62.7982 197.263 62.6546C197.235 62.5109 197.24 62.3625 197.279 62.2212C197.573 61.0298 197.614 59.7898 197.398 58.5816C197.182 57.3735 196.715 56.2243 196.026 55.2086C194.552 52.9907 192.296 51.4096 189.708 50.7806C189.462 50.718 189.251 50.5601 189.121 50.3417C188.991 50.1234 188.954 49.8624 189.016 49.6162C189.079 49.37 189.237 49.1588 189.455 49.029C189.674 48.8992 189.935 48.8615 190.181 48.9241C193.235 49.6744 195.893 51.5483 197.626 54.1721C198.461 55.4087 199.027 56.8068 199.286 58.2759C199.546 59.7449 199.495 61.2522 199.135 62.7001C199.081 62.9058 198.961 63.0877 198.792 63.2171C198.623 63.3466 198.416 63.4163 198.204 63.4151Z" fill="white"/>
<path d="M177.776 58.2773L202.704 64.6405C202.963 64.7062 203.238 64.6665 203.468 64.53C203.698 64.3935 203.864 64.1714 203.931 63.9124C203.997 63.6523 203.957 63.3768 203.821 63.1458C203.684 62.9148 203.462 62.747 203.203 62.6791L178.275 56.3159C178.014 56.2502 177.737 56.2907 177.506 56.4284C177.275 56.5661 177.108 56.7899 177.041 57.0506C177.009 57.1794 177.002 57.3133 177.022 57.4447C177.041 57.5761 177.086 57.7024 177.154 57.8163C177.223 57.9302 177.313 58.0296 177.419 58.1087C177.526 58.1878 177.647 58.2451 177.776 58.2773Z" fill="#FF5C8A"/>
<path opacity="0.3" d="M177.776 58.2773L202.704 64.6405C202.963 64.7062 203.238 64.6665 203.468 64.53C203.698 64.3935 203.864 64.1714 203.931 63.9124C203.997 63.6523 203.957 63.3768 203.821 63.1458C203.684 62.9148 203.462 62.747 203.203 62.6791L178.275 56.3159C178.014 56.2502 177.737 56.2907 177.506 56.4284C177.275 56.5661 177.108 56.7899 177.041 57.0506C177.009 57.1794 177.002 57.3133 177.022 57.4447C177.041 57.5761 177.086 57.7024 177.154 57.8163C177.223 57.9302 177.313 58.0296 177.419 58.1087C177.526 58.1878 177.647 58.2451 177.776 58.2773Z" fill="white"/>
<path d="M188.646 65.902C188.524 67.0841 188.011 68.1919 187.19 69.0508C186.101 70.1725 185.025 69.4181 184.887 68.0012C184.762 66.7285 185.182 64.6097 186.488 64.0193C187.793 63.4289 188.784 64.4785 188.646 65.902Z" fill="#FF8B7B"/>
<path d="M186.586 124.711C186.586 124.711 186.028 159.007 190.338 172.455C197.167 193.755 217.792 211.008 217.792 211.008L225.165 205.688C225.165 205.688 207.991 191.111 204.843 173.183C202.015 157.065 203.216 137.89 203.216 124.724L186.586 124.711Z" fill="#FF5C8A"/>
<path opacity="0.3" d="M186.586 124.711C186.586 124.711 186.028 159.007 190.338 172.455C197.167 193.755 217.792 211.008 217.792 211.008L225.165 205.688C225.165 205.688 207.991 191.111 204.843 173.183C202.015 157.065 203.216 137.89 203.216 124.724L186.586 124.711Z" fill="black"/>
<path d="M191.395 130.604C192.306 136.783 189.085 153.99 187.97 159.625C186.803 149.09 186.586 136.593 186.566 129.771C188.928 128.17 190.975 127.757 191.395 130.604Z" fill="#FF5C8A"/>
<path opacity="0.4" d="M191.395 130.604C192.306 136.783 189.085 153.99 187.97 159.625C186.803 149.09 186.586 136.593 186.566 129.771C188.928 128.17 190.975 127.757 191.395 130.604Z" fill="black"/>
<path d="M214.636 209.452C214.604 209.452 217.667 211.256 217.667 211.256L225.716 205.444L223.04 203.391L214.636 209.452Z" fill="#FF5C8A"/>
<path opacity="0.4" d="M214.636 209.452C214.604 209.452 217.667 211.256 217.667 211.256L225.716 205.444L223.04 203.391L214.636 209.452Z" fill="white"/>
<path d="M177.441 124.711C177.441 124.711 170.179 155.477 169.668 170.172C169.097 186.657 174.85 225.532 174.85 225.532H183.024C183.024 225.532 184.034 186.355 184.395 171.339C184.789 154.972 194.399 124.711 194.399 124.711H177.441Z" fill="#FF5C8A"/>
<path opacity="0.3" d="M177.441 124.711C177.441 124.711 170.179 155.477 169.668 170.172C169.097 186.657 174.85 225.532 174.85 225.532H183.024C183.024 225.532 184.034 186.355 184.395 171.339C184.789 154.972 194.399 124.711 194.399 124.711H177.441Z" fill="black"/>
<path d="M173.276 222.277C173.243 222.277 173.742 225.669 173.742 225.669H183.68L183.949 222.645L173.276 222.277Z" fill="#FF5C8A"/>
<path opacity="0.4" d="M173.276 222.277C173.243 222.277 173.742 225.669 173.742 225.669H183.68L183.949 222.645L173.276 222.277Z" fill="white"/>
</svg>
