<svg width="328" height="264" viewBox="0 0 328 264" fill="none" xmlns="http://www.w3.org/2000/svg">
<path d="M340 231.145H-13V231.321H340V231.145Z" fill="#EBEBEB"/>
<path d="M47.4193 242.504H24.0366V242.68H47.4193V242.504Z" fill="#EBEBEB"/>
<path d="M113.96 244.426H82.543V244.602H113.96V244.426Z" fill="#EBEBEB"/>
<path d="M97.842 235.953H48.1255V236.13H97.842V235.953Z" fill="#EBEBEB"/>
<path d="M304.629 237.137H295.67V237.313H304.629V237.137Z" fill="#EBEBEB"/>
<path d="M289.38 237.137H263.378V237.313H289.38V237.137Z" fill="#EBEBEB"/>
<path d="M204.681 240.117H182.71V240.294H204.681V240.117Z" fill="#EBEBEB"/>
<path d="M154.322 199.657H18.0003C16.9323 199.655 15.9088 199.229 15.1543 198.474C14.3998 197.718 13.9761 196.693 13.9761 195.626V3.99596C13.9854 2.93415 14.4132 1.91889 15.1667 1.1707C15.9202 0.422511 16.9384 0.00181893 18.0003 0H154.322C155.391 0 156.416 0.424721 157.172 1.18073C157.928 1.93674 158.353 2.9621 158.353 4.03126V195.626C158.353 196.695 157.928 197.72 157.172 198.476C156.416 199.232 155.391 199.657 154.322 199.657ZM18.0003 0.141201C16.9792 0.143071 16.0005 0.55002 15.2791 1.27272C14.5577 1.99543 14.1526 2.97484 14.1526 3.99596V195.626C14.1526 196.647 14.5577 197.626 15.2791 198.349C16.0005 199.071 16.9792 199.478 18.0003 199.48H154.322C155.344 199.478 156.323 199.072 157.045 198.349C157.768 197.627 158.175 196.647 158.177 195.626V3.99596C158.175 2.97419 157.768 1.9948 157.045 1.27229C156.323 0.549791 155.344 0.143067 154.322 0.141201H18.0003Z" fill="#EBEBEB"/>
<path d="M307.037 199.657H170.708C169.64 199.655 168.616 199.23 167.86 198.474C167.104 197.718 166.679 196.694 166.677 195.626V3.99596C166.688 2.93351 167.118 1.91826 167.872 1.17026C168.627 0.422265 169.646 0.00179909 170.708 0H307.037C308.098 0.00367437 309.114 0.425188 309.866 1.17318C310.618 1.92117 311.045 2.93537 311.054 3.99596V195.626C311.054 196.692 310.631 197.715 309.879 198.471C309.126 199.227 308.104 199.653 307.037 199.657ZM170.708 0.141201C169.687 0.143067 168.707 0.549791 167.985 1.27229C167.262 1.9948 166.856 2.97419 166.854 3.99596V195.626C166.856 196.647 167.262 197.627 167.985 198.349C168.707 199.072 169.687 199.478 170.708 199.48H307.037C308.059 199.478 309.038 199.072 309.761 198.349C310.483 197.627 310.89 196.647 310.892 195.626V3.99596C310.89 2.97419 310.483 1.9948 309.761 1.27229C309.038 0.549791 308.059 0.143067 307.037 0.141201H170.708Z" fill="#EBEBEB"/>
<path d="M47.2217 137.121H24.0366V231.146H47.2217V137.121Z" fill="#E6E6E6"/>
<path d="M47.2216 220.223L205.493 220.223V137.126H47.2216V220.223Z" fill="#F5F5F5"/>
<path d="M201.553 231.145H205.493V137.119H201.553V231.145Z" fill="#F5F5F5"/>
<path d="M47.2217 231.145H51.1611L51.1611 137.119H47.2217L47.2217 231.145Z" fill="#F5F5F5"/>
<path d="M201.553 231.137V141.059H175.459V231.137H201.553Z" fill="#E6E6E6"/>
<path d="M175.46 211.935V141.066H51.1616V211.935H175.46Z" fill="#E0E0E0"/>
<path d="M203.686 163.693V139.852H49.8552V163.693H203.686Z" fill="#F5F5F5"/>
<path d="M201.553 160.558V141.68H51.1682V160.558H201.553Z" fill="#E6E6E6"/>
<path d="M187.645 145.753V142.004C187.645 141.014 186.842 140.211 185.852 140.211H66.8696C65.8792 140.211 65.0764 141.014 65.0764 142.004V145.753C65.0764 146.743 65.8792 147.546 66.8696 147.546H185.852C186.842 147.546 187.645 146.743 187.645 145.753Z" fill="#F5F5F5"/>
<path d="M153.044 121.539C152.991 122.199 153.134 122.86 153.456 123.438C153.777 124.016 154.263 124.486 154.852 124.788C155.441 125.09 156.106 125.211 156.764 125.135C157.421 125.059 158.042 124.79 158.546 124.361C159.05 123.933 159.416 123.365 159.598 122.728C159.779 122.092 159.768 121.416 159.565 120.786C159.362 120.156 158.977 119.6 158.459 119.189C157.94 118.777 157.312 118.529 156.652 118.475C155.768 118.405 154.891 118.688 154.215 119.262C153.539 119.837 153.118 120.655 153.044 121.539Z" fill="#E0E0E0"/>
<path d="M158.509 123.282C158.454 123.942 158.596 124.603 158.916 125.182C159.237 125.761 159.723 126.232 160.311 126.535C160.9 126.838 161.565 126.96 162.223 126.885C162.881 126.81 163.502 126.541 164.007 126.113C164.512 125.685 164.879 125.117 165.061 124.48C165.243 123.844 165.232 123.168 165.03 122.537C164.827 121.907 164.442 121.351 163.924 120.939C163.405 120.527 162.776 120.279 162.116 120.225C161.234 120.156 160.359 120.439 159.684 121.012C159.008 121.584 158.586 122.4 158.509 123.282Z" fill="#E0E0E0"/>
<path d="M164.368 123.966C164.314 124.625 164.457 125.286 164.779 125.864C165.101 126.443 165.587 126.913 166.176 127.215C166.765 127.517 167.43 127.637 168.088 127.561C168.745 127.485 169.365 127.216 169.87 126.788C170.374 126.359 170.74 125.791 170.922 125.154C171.103 124.518 171.092 123.842 170.889 123.212C170.686 122.582 170.301 122.026 169.783 121.615C169.264 121.204 168.635 120.956 167.976 120.902C167.538 120.866 167.097 120.917 166.678 121.052C166.26 121.186 165.872 121.402 165.537 121.686C165.202 121.971 164.926 122.319 164.726 122.71C164.525 123.101 164.404 123.528 164.368 123.966Z" fill="#E0E0E0"/>
<path d="M146.831 123.282C146.776 123.942 146.918 124.604 147.239 125.183C147.56 125.762 148.046 126.233 148.634 126.536C149.223 126.839 149.888 126.961 150.546 126.886C151.204 126.81 151.825 126.542 152.33 126.114C152.835 125.686 153.202 125.118 153.384 124.481C153.566 123.844 153.555 123.168 153.353 122.538C153.15 121.907 152.765 121.351 152.247 120.94C151.728 120.528 151.099 120.279 150.439 120.225C149.556 120.155 148.681 120.437 148.005 121.01C147.329 121.583 146.907 122.4 146.831 123.282Z" fill="#E0E0E0"/>
<path d="M169.19 123.282C169.135 123.942 169.277 124.603 169.598 125.182C169.919 125.761 170.404 126.232 170.993 126.535C171.582 126.838 172.247 126.96 172.905 126.885C173.563 126.81 174.183 126.541 174.689 126.113C175.194 125.685 175.56 125.117 175.743 124.48C175.925 123.844 175.914 123.168 175.711 122.537C175.509 121.907 175.124 121.351 174.606 120.939C174.087 120.527 173.458 120.279 172.798 120.225C171.915 120.156 171.041 120.439 170.366 121.012C169.69 121.584 169.268 122.4 169.19 123.282Z" fill="#E0E0E0"/>
<path d="M142.32 121.284C142.265 121.943 142.407 122.605 142.727 123.184C143.048 123.763 143.534 124.234 144.122 124.537C144.711 124.84 145.376 124.962 146.034 124.887C146.692 124.812 147.313 124.543 147.818 124.115C148.323 123.687 148.69 123.119 148.872 122.482C149.054 121.846 149.043 121.169 148.841 120.539C148.638 119.908 148.254 119.352 147.735 118.941C147.216 118.529 146.587 118.281 145.927 118.227C145.49 118.19 145.049 118.24 144.631 118.374C144.212 118.507 143.824 118.723 143.489 119.006C143.154 119.29 142.878 119.638 142.678 120.028C142.477 120.419 142.355 120.846 142.32 121.284Z" fill="#E0E0E0"/>
<path d="M137.597 122.525C137.541 123.184 137.683 123.846 138.004 124.425C138.325 125.004 138.811 125.475 139.399 125.778C139.988 126.081 140.653 126.203 141.311 126.128C141.969 126.053 142.59 125.784 143.095 125.356C143.6 124.928 143.967 124.36 144.149 123.723C144.331 123.087 144.32 122.41 144.118 121.78C143.915 121.15 143.53 120.593 143.012 120.182C142.493 119.77 141.864 119.522 141.204 119.468C140.321 119.397 139.446 119.679 138.77 120.252C138.094 120.825 137.672 121.642 137.597 122.525Z" fill="#E0E0E0"/>
<path d="M133.777 123.422C133.777 123.422 134.349 137.118 156.369 137.118C178.389 137.118 178.961 123.422 178.961 123.422H133.777Z" fill="#F0F0F0"/>
<path d="M47.2642 113.609H80.1849L81.2934 137.119H48.3726L47.2642 113.609Z" fill="#E0E0E0"/>
<path d="M82.8253 109.379H49.9116L53.2651 137.118H86.1859L82.8253 109.379Z" fill="#EBEBEB"/>
<path d="M78.9495 113.016H54.6631L57.1411 133.483H81.4275L78.9495 113.016Z" fill="#FAFAFA"/>
<path d="M219.634 227.98H297.245V20.7059H219.634L219.634 227.98Z" fill="#F5F5F5"/>
<path d="M290.58 223.745H226.334C225.69 223.745 225.072 223.489 224.617 223.033C224.161 222.578 223.905 221.96 223.905 221.316V27.3708C223.907 26.7279 224.164 26.112 224.619 25.6581C225.074 25.2041 225.691 24.9492 226.334 24.9492H290.58C291.223 24.9492 291.839 25.2041 292.295 25.6581C292.75 26.112 293.007 26.7279 293.009 27.3708V221.316C293.007 221.96 292.75 222.576 292.295 223.031C291.84 223.486 291.223 223.743 290.58 223.745ZM226.334 25.2599C225.772 25.2599 225.233 25.483 224.836 25.8802C224.439 26.2774 224.216 26.8161 224.216 27.3779V221.316C224.216 221.878 224.439 222.417 224.836 222.814C225.233 223.211 225.772 223.434 226.334 223.434H290.58C291.142 223.434 291.68 223.211 292.078 222.814C292.475 222.417 292.698 221.878 292.698 221.316V27.3708C292.698 26.8091 292.475 26.2704 292.078 25.8732C291.68 25.4759 291.142 25.2528 290.58 25.2528L226.334 25.2599Z" fill="#E0E0E0"/>
<path d="M219.634 231.143H228.085L230.457 227.98H219.634V231.143Z" fill="#F5F5F5"/>
<path d="M289.902 231.143H281.451L279.079 227.98H289.902V231.143Z" fill="#E0E0E0"/>
<path d="M297.245 231.143H288.801L286.429 227.98H297.245V231.143Z" fill="#F5F5F5"/>
<path d="M219.641 20.707H212.101V231.144H219.641V20.707Z" fill="#E0E0E0"/>
<path d="M258.443 223.745C258.422 223.745 258.401 223.74 258.382 223.732C258.363 223.724 258.345 223.712 258.331 223.697C258.316 223.682 258.305 223.664 258.297 223.644C258.29 223.624 258.287 223.603 258.288 223.582V25.1045C258.288 25.0633 258.304 25.0238 258.333 24.9947C258.362 24.9656 258.402 24.9492 258.443 24.9492C258.484 24.9492 258.524 24.9656 258.553 24.9947C258.582 25.0238 258.598 25.0633 258.598 25.1045V223.582C258.599 223.603 258.596 223.624 258.589 223.644C258.581 223.664 258.57 223.682 258.555 223.697C258.541 223.712 258.524 223.724 258.504 223.732C258.485 223.74 258.464 223.745 258.443 223.745Z" fill="#E0E0E0"/>
<path d="M181.362 15.4453H61.6738V87.6197H181.362V15.4453Z" fill="#E0E0E0"/>
<path d="M184.101 15.4453H62.8735V87.6197H184.101V15.4453Z" fill="#F5F5F5"/>
<path d="M66.8062 20.7154V82.3633H180.176V20.7154L66.8062 20.7154Z" fill="white"/>
<path d="M130.449 42.0874C131.073 38.2425 128.462 34.6196 124.617 33.9955C120.773 33.3714 117.15 35.9823 116.526 39.8272C115.901 43.6721 118.512 47.295 122.357 47.9191C126.202 48.5432 129.825 45.9323 130.449 42.0874Z" fill="#F5F5F5"/>
<path d="M130.458 63.2553C131.082 59.4104 128.471 55.7876 124.626 55.1635C120.781 54.5393 117.158 57.1503 116.534 60.9952C115.91 64.8401 118.521 68.463 122.366 69.0871C126.211 69.7112 129.834 67.1002 130.458 63.2553Z" fill="#F5F5F5"/>
<path d="M163.5 263.027C239.1 263.027 300.386 259.449 300.386 255.035C300.386 250.621 239.1 247.043 163.5 247.043C87.8999 247.043 26.6138 250.621 26.6138 255.035C26.6138 259.449 87.8999 263.027 163.5 263.027Z" fill="#F5F5F5"/>
<path d="M217.502 240.781L223.418 239.129L221.166 224.988L215.25 226.64L217.502 240.781Z" fill="#FFC3BD"/>
<path d="M169.458 249.804H175.601L176.921 235.578H170.779L169.458 249.804Z" fill="#FFC3BD"/>
<path d="M175.989 249.09H168.505C168.382 249.089 168.263 249.131 168.168 249.208C168.073 249.285 168.007 249.393 167.983 249.513L166.768 254.971C166.74 255.104 166.741 255.241 166.773 255.374C166.805 255.506 166.867 255.629 166.953 255.734C167.039 255.839 167.148 255.924 167.271 255.981C167.394 256.038 167.529 256.067 167.665 256.065C170.072 256.023 171.83 255.882 174.866 255.882C176.737 255.882 182.364 256.072 184.941 256.072C187.518 256.072 187.857 253.524 186.805 253.298C182.067 252.26 178.502 250.834 176.991 249.471C176.715 249.225 176.358 249.089 175.989 249.09Z" fill="#FF5C8A"/>
<path d="M223.185 238.451L216.718 240.258C216.601 240.29 216.498 240.362 216.427 240.461C216.357 240.56 216.322 240.68 216.33 240.802L216.626 246.386C216.633 246.521 216.671 246.653 216.737 246.772C216.802 246.891 216.894 246.993 217.005 247.071C217.115 247.149 217.242 247.201 217.376 247.223C217.51 247.245 217.647 247.237 217.777 247.198C220.093 246.492 223.425 245.433 226.355 244.614C229.779 243.661 231.24 243.343 235.258 242.228C237.686 241.522 237.679 238.903 236.599 238.966C231.657 239.241 229.426 239.863 224.738 238.514C224.237 238.348 223.698 238.326 223.185 238.451Z" fill="#FF5C8A"/>
<path d="M188.316 53.9081C188.245 53.9081 188.358 53.9081 188.401 53.9081L188.598 53.9434L189.05 54.021C189.361 54.0705 189.693 54.134 190.024 54.1693C190.695 54.254 191.394 54.3034 192.1 54.3317C193.529 54.3808 194.96 54.3525 196.386 54.247C197.092 54.1622 197.84 54.1128 198.56 53.9857C199.28 53.8587 200.014 53.7669 200.742 53.6257C201.469 53.4845 202.154 53.2939 202.916 53.1456C203.678 52.9973 204.328 52.7502 205.083 52.5596L203.036 57.8899C202.456 56.6327 201.776 55.424 201.003 54.2752C200.192 53.0757 199.308 51.9275 198.355 50.837C197.395 49.7215 196.35 48.6413 195.263 47.5964C194.719 47.0811 194.169 46.5516 193.597 46.0574C193.025 45.5632 192.411 45.0548 191.895 44.6454L191.761 44.5324C191.423 44.199 191.207 43.7616 191.147 43.2904C191.087 42.8193 191.188 42.3418 191.432 41.9345C191.676 41.5273 192.051 41.214 192.494 41.045C192.938 40.8759 193.426 40.8609 193.879 41.0024C194.696 41.3251 195.494 41.6904 196.273 42.0967C197.028 42.4921 197.783 42.8945 198.518 43.3393C199.998 44.2309 201.414 45.2265 202.754 46.3186C204.121 47.4349 205.396 48.6603 206.566 49.9827C207.764 51.3354 208.828 52.8014 209.743 54.3599C209.985 54.7756 210.143 55.2349 210.207 55.7117C210.272 56.1884 210.241 56.6731 210.118 57.1381C209.995 57.6031 209.781 58.0391 209.489 58.4214C209.197 58.8036 208.832 59.1244 208.416 59.3655C208.252 59.4634 208.079 59.5461 207.9 59.6126L207.674 59.7043C206.841 60.015 206.015 60.3539 205.175 60.6504C204.335 60.9469 203.481 61.2222 202.605 61.4411C200.861 61.9289 199.085 62.2946 197.289 62.5354C195.461 62.7693 193.618 62.8614 191.775 62.8107C190.843 62.7754 189.904 62.6978 188.951 62.5778C188.471 62.5142 187.991 62.4436 187.497 62.3448L186.749 62.1824L186.346 62.0836L185.838 61.9353C185.25 61.8269 184.692 61.5952 184.2 61.2556C183.708 60.9159 183.293 60.476 182.983 59.9647C182.673 59.4533 182.475 58.8822 182.402 58.2889C182.329 57.6955 182.382 57.0934 182.558 56.522C182.734 55.9507 183.029 55.4231 183.424 54.9739C183.818 54.5248 184.303 54.1642 184.847 53.916C185.391 53.6677 185.981 53.5374 186.579 53.5336C187.177 53.5298 187.769 53.6526 188.316 53.894V53.9081Z" fill="#FF5C8A"/>
<path opacity="0.2" d="M221.166 224.988L222.324 232.281L216.408 233.933L215.243 226.64L221.166 224.988Z" fill="#1C2D5E"/>
<path opacity="0.2" d="M170.779 235.582H176.921L176.236 242.91H170.094L170.779 235.582Z" fill="#1C2D5E"/>
<path d="M195.355 59.2616C198.129 66.9641 199.287 80.3004 200.89 106.069L168.371 110.778C167.545 106.43 167.143 86.8309 161.509 66.6888C161.169 65.4963 161.078 64.2465 161.243 63.0175C161.408 61.7885 161.825 60.6068 162.468 59.5465C163.111 58.4861 163.966 57.5698 164.979 56.8551C165.993 56.1404 167.143 55.6425 168.357 55.3928C174.394 54.2204 180.517 53.5404 186.664 53.3595C188.549 53.3031 190.404 53.8432 191.965 54.903C193.526 55.9628 194.712 57.4882 195.355 59.2616Z" fill="#38499F"/>
<path d="M195.771 41.1168L194.098 37.375L188.605 40.1566C188.747 41.1617 189.14 42.1148 189.748 42.927C190.357 43.7393 191.161 44.3843 192.086 44.8021C192.469 44.9567 192.885 45.01 193.294 44.9568C193.704 44.9036 194.092 44.7458 194.423 44.4985L194.981 44.0891C195.432 43.7584 195.757 43.2832 195.901 42.7425C196.044 42.2017 195.999 41.628 195.771 41.1168Z" fill="#FFC3BD"/>
<path d="M192.637 33.3516L187.991 36.0626L188.605 40.1574L194.105 37.3758L192.637 33.3516Z" fill="#FFC3BD"/>
<path d="M169.063 40.2422C170.398 44.0546 172.149 50.7475 170.708 54.6163C170.54 55.0668 170.531 55.5611 170.681 56.0179C170.831 56.4746 171.132 56.8667 171.534 57.1297C174.44 59.2265 178.018 60.1745 181.581 59.7913C186.149 59.2971 186.113 56.812 184.948 55.04C184.794 54.8046 184.592 54.6036 184.357 54.4493C184.121 54.2951 183.856 54.1909 183.579 54.1433C179.089 53.3808 178.249 49.6602 178.594 46.2573L169.063 40.2422Z" fill="#FFC3BD"/>
<path opacity="0.2" d="M172.946 42.7109L178.594 46.2409C178.524 47.0749 178.524 47.9133 178.594 48.7472C176.66 48.7472 173.991 47.5047 172.946 45.5349C172.283 44.3347 172.48 42.9298 172.946 42.7109Z" fill="#1C2D5E"/>
<path d="M178.326 34.2751C173.991 31.6911 171.612 26.3467 171.972 25.1606C172.332 23.9745 179.145 21.8848 180.077 22.379C184.73 24.7229 181.807 31.1545 181.807 31.1545L183.424 33.2725L178.326 34.2751Z" fill="#FF5C8A"/>
<path d="M166.465 34.0609C168.11 39.9348 168.781 43.4507 172.445 45.8511C177.952 49.4728 184.708 45.1451 184.843 38.9181C184.963 33.2701 182.244 24.6428 175.912 23.5344C174.517 23.2827 173.081 23.392 171.74 23.8519C170.399 24.3119 169.198 25.1071 168.252 26.1621C167.305 27.217 166.644 28.4966 166.331 29.8791C166.018 31.2617 166.065 32.7012 166.465 34.0609Z" fill="#FFC3BD"/>
<path d="M166.14 38.2633C162.081 35.2698 158.911 30.4973 159.44 29.3888C160.852 26.4519 165.865 24.2986 169.063 25.8588C173.758 28.111 169.924 35.531 169.924 35.531L171.336 37.8185L166.14 38.2633Z" fill="#FF5C8A"/>
<path d="M167.63 28.0124C173.201 28.4925 181.263 23.5858 181.913 19.3921C179.901 18.2414 176.667 19.6745 176.667 19.6745C176.667 19.6745 177.86 16.8505 177.373 15.375C175.17 15.4668 170.631 17.9872 169.988 19.138C170.036 18.4365 169.89 17.7353 169.565 17.1118C167.673 17.1118 154.943 23.8117 161.58 28.4078C166.698 29.3185 167.63 28.0124 167.63 28.0124Z" fill="#FF5C8A"/>
<path d="M164.756 40.2405C165.831 41.3315 167.292 41.9554 168.823 41.9773C170.856 41.9773 171.336 40.0358 170.32 38.3979C169.409 36.9294 167.249 35.1503 165.427 35.9269C163.606 36.7035 163.45 38.878 164.756 40.2405Z" fill="#FFC3BD"/>
<path d="M224.499 230.076L214.48 232.865C214.48 232.865 204.596 197.565 201.363 178.693C200.389 172.954 198.264 165.018 195.715 156.546C192.446 145.871 188.549 134.364 185.386 125.355C182.04 115.866 179.526 109.167 179.526 109.167L200.918 106.074C200.918 106.074 210.901 148.088 214.332 166.515C217.926 185.676 224.499 230.076 224.499 230.076Z" fill="#FF5C8A"/>
<path opacity="0.2" d="M195.701 156.547C192.446 145.872 188.549 134.365 185.386 125.356L187.264 120.414C193.046 126.323 195.976 145.823 195.701 156.547Z" fill="#1C2D5E"/>
<path d="M190.688 107.551C190.688 107.551 188.683 160.797 187.419 178.751C186.007 198.406 179.194 240.695 179.194 240.695H167.948C167.948 240.695 169.854 201.555 171.965 182.457C174.372 160.698 168.378 110.784 168.378 110.784L190.688 107.551Z" fill="#FF5C8A"/>
<path d="M180.098 241.562H166.854V237.602L181.665 237.348L180.098 241.562Z" fill="#38499F"/>
<path d="M225.296 230.184L213.358 233.516L212.285 229.661L224.901 225.934L225.296 230.184Z" fill="#38499F"/>
<path d="M176.145 33.7745C176.251 34.2616 176.59 34.6005 176.907 34.5299C177.225 34.4593 177.394 34.0145 177.289 33.5274C177.183 33.0402 176.844 32.7084 176.526 32.779C176.208 32.8496 176.039 33.2944 176.145 33.7745Z" fill="#FF5C8A"/>
<path d="M179.526 40.2393C179.625 40.7264 179.971 41.0653 180.289 40.9947C180.606 40.9241 180.776 40.4793 180.67 39.9922C180.564 39.5051 180.225 39.1732 179.907 39.2438C179.59 39.3144 179.42 39.7804 179.526 40.2393Z" fill="#FF5C8A"/>
<path d="M181.616 32.5937C181.722 33.0738 182.061 33.4127 182.378 33.3421C182.696 33.2715 182.866 32.8267 182.76 32.3466C182.654 31.8665 182.315 31.5206 181.997 31.5912C181.68 31.6618 181.51 32.1066 181.616 32.5937Z" fill="#FF5C8A"/>
<path d="M179.625 33.2148C180.523 34.5689 181.604 35.7924 182.837 36.8507C182.131 37.8391 180.613 37.7897 180.613 37.7897L179.625 33.2148Z" fill="#ED847E"/>
<path d="M173.772 31.9084C173.723 31.9184 173.673 31.9184 173.624 31.9084C173.556 31.8734 173.503 31.814 173.477 31.7419C173.451 31.6699 173.453 31.5907 173.483 31.5201C173.67 31.0982 173.954 30.7267 174.313 30.4359C174.671 30.145 175.093 29.9432 175.544 29.8468C175.582 29.8413 175.621 29.8432 175.658 29.8527C175.696 29.8621 175.731 29.8787 175.762 29.9017C175.792 29.9246 175.818 29.9534 175.838 29.9864C175.858 30.0194 175.871 30.0559 175.876 30.0939C175.882 30.1319 175.88 30.1707 175.87 30.2079C175.861 30.2452 175.844 30.2802 175.821 30.311C175.798 30.3418 175.77 30.3678 175.737 30.3875C175.704 30.4072 175.667 30.4202 175.629 30.4258C175.273 30.5055 174.94 30.6687 174.659 30.9019C174.378 31.1351 174.157 31.4316 174.012 31.7672C173.988 31.809 173.952 31.8438 173.91 31.8685C173.869 31.8932 173.821 31.9069 173.772 31.9084Z" fill="#FF5C8A"/>
<path d="M183.268 29.9246C183.22 29.9293 183.171 29.9214 183.126 29.9016C183.082 29.8818 183.043 29.8508 183.014 29.8117C182.799 29.5202 182.518 29.2834 182.194 29.1203C181.87 28.9572 181.513 28.8724 181.15 28.8727C181.073 28.8792 180.997 28.855 180.938 28.8054C180.879 28.7557 180.843 28.6847 180.836 28.6079C180.829 28.5312 180.854 28.4549 180.903 28.396C180.953 28.3371 181.024 28.3003 181.101 28.2938C181.564 28.2829 182.023 28.3829 182.439 28.5856C182.855 28.7883 183.217 29.0876 183.494 29.4587C183.518 29.4881 183.535 29.522 183.546 29.5584C183.556 29.5947 183.559 29.6328 183.555 29.6703C183.55 29.7079 183.538 29.7441 183.519 29.7769C183.5 29.8096 183.475 29.8383 183.445 29.8611C183.395 29.9023 183.333 29.9248 183.268 29.9246Z" fill="#FF5C8A"/>
<path d="M161.989 28.6828C161.911 28.716 161.825 28.7295 161.74 28.7221C161.655 28.7148 161.574 28.6867 161.502 28.6404C160.975 28.2668 160.366 28.0239 159.727 27.9318C159.087 27.8398 158.435 27.9012 157.824 28.1109C157.76 28.1435 157.691 28.1623 157.62 28.1663C157.549 28.1702 157.478 28.1592 157.411 28.1339C157.345 28.1086 157.284 28.0696 157.234 28.0194C157.183 27.9693 157.144 27.909 157.118 27.8427C157.086 27.7791 157.068 27.7098 157.065 27.639C157.062 27.5682 157.073 27.4974 157.098 27.4312C157.123 27.3649 157.162 27.3046 157.211 27.2539C157.261 27.2032 157.32 27.1633 157.386 27.1367C158.154 26.8612 158.978 26.7732 159.787 26.88C160.596 26.9869 161.368 27.2854 162.039 27.7509C162.094 27.7879 162.142 27.8355 162.179 27.8911C162.217 27.9466 162.243 28.009 162.256 28.0746C162.269 28.1402 162.269 28.2077 162.256 28.2733C162.243 28.3389 162.217 28.4013 162.18 28.4569C162.141 28.5499 162.074 28.6287 161.989 28.6828Z" fill="#FF5C8A"/>
<path d="M178.022 250.163C177.482 250.151 176.944 250.078 176.42 249.944C176.391 249.938 176.364 249.924 176.344 249.902C176.324 249.881 176.311 249.853 176.307 249.824C176.303 249.797 176.306 249.769 176.318 249.744C176.329 249.719 176.347 249.697 176.37 249.683C176.596 249.542 178.58 248.32 179.258 248.673C179.333 248.711 179.396 248.77 179.44 248.843C179.484 248.915 179.506 248.998 179.505 249.083C179.523 249.225 179.505 249.37 179.453 249.504C179.401 249.639 179.317 249.758 179.209 249.852C178.859 250.085 178.441 250.194 178.022 250.163ZM176.836 249.739C177.881 249.951 178.686 249.909 179.018 249.626C179.092 249.562 179.149 249.481 179.183 249.39C179.218 249.299 179.229 249.2 179.216 249.104C179.216 248.991 179.166 248.948 179.124 248.927C178.771 248.751 177.62 249.273 176.836 249.739Z" fill="#38499F"/>
<path d="M176.448 249.921C176.423 249.926 176.396 249.926 176.371 249.921C176.349 249.906 176.331 249.886 176.32 249.863C176.309 249.839 176.304 249.813 176.307 249.787C176.307 249.716 176.455 247.944 177.175 247.358C177.259 247.286 177.357 247.233 177.463 247.201C177.569 247.169 177.68 247.16 177.79 247.174C177.9 247.172 178.007 247.21 178.092 247.28C178.178 247.349 178.236 247.447 178.256 247.556C178.383 248.262 177.154 249.582 176.519 249.928C176.495 249.933 176.47 249.93 176.448 249.921ZM177.691 247.429C177.568 247.429 177.45 247.474 177.359 247.556C176.935 248.112 176.689 248.784 176.653 249.483C177.281 249.003 178.065 247.986 177.987 247.577C177.987 247.541 177.987 247.457 177.775 247.429H177.712H177.691Z" fill="#38499F"/>
<path d="M223.99 239.105C223.964 239.104 223.938 239.095 223.917 239.08C223.896 239.065 223.879 239.044 223.87 239.02C223.856 238.992 223.852 238.96 223.858 238.929C223.865 238.899 223.881 238.871 223.905 238.851C224.131 238.639 226.171 236.768 227.004 236.973C227.082 236.989 227.154 237.025 227.212 237.079C227.271 237.132 227.314 237.2 227.336 237.276C227.387 237.398 227.407 237.531 227.395 237.663C227.382 237.794 227.338 237.921 227.266 238.032C226.779 238.787 225.021 239.027 224.011 239.105H223.99ZM226.877 237.241C226.39 237.241 225.239 238.067 224.42 238.773C225.79 238.625 226.75 238.3 227.026 237.876C227.071 237.802 227.098 237.718 227.106 237.631C227.113 237.544 227.1 237.456 227.068 237.375C227.059 237.344 227.042 237.317 227.018 237.296C226.994 237.275 226.965 237.26 226.934 237.255L226.877 237.241Z" fill="#38499F"/>
<path d="M223.99 239.105H223.955C223.931 239.095 223.91 239.079 223.893 239.059C223.876 239.04 223.863 239.017 223.856 238.992C223.856 238.921 223.56 237.283 224.139 236.457C224.218 236.336 224.322 236.233 224.444 236.154C224.565 236.075 224.702 236.022 224.845 235.999C225.24 235.935 225.402 236.097 225.473 236.246C225.769 236.888 224.71 238.561 224.061 239.07C224.041 239.088 224.017 239.1 223.99 239.105ZM225.049 236.281C225 236.275 224.95 236.275 224.901 236.281C224.795 236.297 224.694 236.336 224.604 236.395C224.514 236.453 224.437 236.53 224.379 236.62C224.079 237.256 223.986 237.969 224.11 238.66C224.71 238.018 225.395 236.747 225.219 236.359C225.202 236.329 225.178 236.304 225.148 236.288C225.118 236.271 225.083 236.264 225.049 236.267V236.281Z" fill="#38499F"/>
<path d="M184.475 52.7801L182.562 46.8638L188.591 45.5859C188.591 45.5859 189.904 49.0453 188.231 51.7705L184.475 52.7801Z" fill="#FFC3BD"/>
<path d="M182.188 42.9883L187.483 42.0352L188.563 45.5863L182.534 46.8642L182.188 42.9883Z" fill="#FFC3BD"/>
<path d="M169.776 60.7146L170.136 61.0323L170.581 61.4136C170.892 61.6748 171.203 61.936 171.527 62.1902C172.17 62.6914 172.84 63.1786 173.532 63.6022C174.884 64.5249 176.3 65.3506 177.768 66.0732C179.212 66.7724 180.715 67.3441 182.259 67.7817C183.771 68.2007 185.323 68.461 186.89 68.5583L183.268 71.3046C183.72 69.8973 184.009 68.4429 184.129 66.9698C184.292 65.3672 184.384 63.6869 184.398 61.9854C184.412 60.284 184.398 58.5613 184.348 56.8246C184.299 55.0878 184.221 53.2946 184.144 51.6214V51.5366C184.17 51.0585 184.357 50.6033 184.676 50.2455C184.994 49.8877 185.424 49.6483 185.896 49.5664C186.368 49.4845 186.854 49.5649 187.274 49.7945C187.694 50.0241 188.024 50.3893 188.21 50.8306C188.81 52.6168 189.248 54.3606 189.686 56.1539C190.123 57.9471 190.434 59.7545 190.695 61.6042C190.96 63.4761 191.113 65.3621 191.154 67.2522C191.22 69.3387 191.013 71.4248 190.54 73.4579C190.349 74.2159 189.916 74.8911 189.307 75.3815C188.698 75.8718 187.947 76.1507 187.165 76.176H186.897C184.722 76.2537 182.546 76.0664 180.416 75.6183C178.319 75.1908 176.274 74.5399 174.316 73.6768C172.389 72.8458 170.541 71.8415 168.795 70.6763C167.927 70.0903 167.087 69.4761 166.261 68.8266C165.851 68.5018 165.442 68.17 165.039 67.817L164.439 67.2663C164.227 67.0616 164.065 66.9133 163.775 66.6239C163.121 65.8268 162.78 64.8182 162.816 63.7874C162.852 62.7566 163.263 61.7743 163.971 61.0249C164.68 60.2755 165.638 59.8104 166.665 59.7169C167.692 59.6234 168.718 59.9079 169.551 60.517L169.776 60.7146Z" fill="#FF5C8A"/>
<path d="M123.145 51.2113C120.398 53.3293 120.208 57.523 120.271 60.0152C120.335 62.5073 120.469 60.0152 118.965 64.4277C117.461 68.8402 118.633 73.7892 125.129 72.5114C131.624 71.2335 134.97 72.702 139.319 73.7186C143.668 74.7353 152.479 69.765 149.606 64.7312C146.732 59.6975 145.461 56.4428 146.93 54.5931C148.398 52.7434 151.392 46.234 146.097 44.8997C140.802 43.5654 143.329 41.0096 137.032 40.9461C130.734 40.8826 118.612 44.6455 123.145 51.2113Z" fill="#FF5C8A"/>
<path d="M155.395 88.7018V89.1113V89.6125C155.395 89.9443 155.395 90.3185 155.444 90.6292C155.487 91.3352 155.565 92.0059 155.656 92.6836C155.827 94.0316 156.099 95.3649 156.468 96.6725C156.811 97.9305 157.284 99.1491 157.88 100.308C158.028 100.584 158.177 100.866 158.346 101.127C158.424 101.262 158.501 101.403 158.593 101.53L158.727 101.72L158.791 101.819C158.791 101.819 158.869 101.932 158.791 101.819C158.438 101.448 157.975 101.2 157.471 101.113C157.159 101.048 156.837 101.048 156.525 101.113C156.345 101.151 156.171 101.216 156.009 101.304C155.798 101.431 155.79 101.473 155.805 101.466L155.946 101.339C156.333 100.903 156.675 100.43 156.969 99.9272C157.322 99.3483 157.675 98.7058 158.007 98.0633C158.713 96.7643 159.328 95.3876 159.963 94.0109C161.22 91.2434 162.455 88.3629 163.669 85.5742L166.973 86.5556C166.389 89.6742 165.637 92.7591 164.721 95.7971C164.269 97.3291 163.747 98.847 163.161 100.386C162.865 101.156 162.533 101.918 162.151 102.709C161.743 103.589 161.249 104.426 160.676 105.208C160.48 105.46 160.265 105.696 160.033 105.914C159.698 106.252 159.315 106.54 158.897 106.768C158.565 106.948 158.212 107.083 157.845 107.171C157.612 107.22 157.376 107.25 157.139 107.263C156.869 107.268 156.6 107.249 156.334 107.206C155.442 107.038 154.635 106.569 154.047 105.879L153.531 105.265C153.376 105.088 153.242 104.904 153.101 104.714C152.811 104.347 152.557 103.966 152.303 103.584C151.332 102.058 150.543 100.423 149.952 98.7129C149.379 97.056 148.961 95.3496 148.702 93.6156C148.575 92.7542 148.49 91.8929 148.434 91.0316C148.434 90.5939 148.385 90.1632 148.377 89.7184V89.0477V88.2994L155.395 88.7018Z" fill="#FFB573"/>
<path d="M151.66 80.7715C157.859 85.5229 156.602 92.9006 156.602 92.9006L147.784 96.5859C147.784 96.5859 143.096 88.1139 144.48 84.831C145.934 81.3928 148.165 78.0957 151.66 80.7715Z" fill="#FF5C8A"/>
<path opacity="0.2" d="M151.039 95.2365L147.791 96.592C147.791 96.592 144.805 91.1699 144.304 87.3222C145.01 86.4185 146.372 85.9526 147.947 87.3222C149.147 88.4871 150.552 91.9465 151.039 95.2365Z" fill="#1C2D5E"/>
<path d="M157.216 93.0356C157.281 93.2416 157.261 93.4647 157.162 93.6564C157.063 93.8481 156.892 93.9929 156.687 94.0593L148.314 96.7633C148.107 96.828 147.883 96.8087 147.69 96.7096C147.497 96.6106 147.351 96.4397 147.283 96.2338C147.219 96.0278 147.238 95.8047 147.337 95.613C147.436 95.4213 147.607 95.2765 147.812 95.2101L156.186 92.4849C156.289 92.4534 156.398 92.4426 156.507 92.4532C156.615 92.4638 156.719 92.4955 156.815 92.5467C156.911 92.5978 156.996 92.6673 157.064 92.7512C157.133 92.8351 157.185 92.9317 157.216 93.0356Z" fill="#38499F"/>
<path d="M163.197 87.2311L164.432 82.2891L169.763 84.7883C169.763 84.7883 169.141 89.1655 165.527 90.1327L163.197 87.2311Z" fill="#FFB573"/>
<path d="M166.154 78.9844L170.108 80.0646L169.762 84.7736L164.432 82.2743L166.154 78.9844Z" fill="#FFB573"/>
<path d="M120.674 249.632L127.07 250.239L129.767 235.392L123.371 234.777L120.674 249.632Z" fill="#FFB573"/>
<path d="M82.2603 232.703L87.8377 235.901L95.1095 222.741L89.5391 219.543L82.2603 232.703Z" fill="#FFB573"/>
<path d="M88.8544 234.141L83.9618 228.783C83.9211 228.731 83.8706 228.687 83.813 228.655C83.7554 228.622 83.692 228.601 83.6264 228.593C83.5608 228.586 83.4943 228.591 83.4307 228.609C83.3671 228.627 83.3076 228.657 83.2558 228.698L78.455 231.96C78.3375 232.046 78.2395 232.156 78.1675 232.283C78.0955 232.41 78.051 232.551 78.037 232.696C78.023 232.841 78.0398 232.988 78.0863 233.126C78.1328 233.264 78.2079 233.391 78.3067 233.499C80.0435 235.334 80.9754 236.139 83.1287 238.497C84.4489 239.944 87.167 243.347 88.9956 245.352C90.8241 247.357 92.8997 245.656 92.3208 244.646C89.7086 240.177 89.3486 237.424 89.2568 235.2C89.2505 234.811 89.1081 234.436 88.8544 234.141Z" fill="#FF5C8A"/>
<path d="M127.684 248.312H120.024C119.888 248.314 119.756 248.361 119.649 248.445C119.542 248.529 119.465 248.647 119.431 248.778L117.963 254.864C117.928 255.01 117.928 255.162 117.961 255.309C117.994 255.455 118.06 255.592 118.154 255.709C118.248 255.826 118.367 255.92 118.503 255.984C118.639 256.048 118.787 256.08 118.937 256.078C121.634 256.078 122.919 256.078 126.286 256.078H136.587C139.411 256.078 139.884 253.255 138.705 252.993C133.474 251.843 130.424 250.254 128.772 248.757C128.478 248.478 128.09 248.319 127.684 248.312Z" fill="#FF5C8A"/>
<path opacity="0.2" d="M129.76 235.392L128.377 243.052H121.867L123.364 234.785L129.76 235.392Z" fill="#1C2D5E"/>
<path opacity="0.2" d="M89.5323 219.543L95.1097 222.748L91.3608 229.526L85.7764 226.328L89.5323 219.543Z" fill="#1C2D5E"/>
<path d="M149.782 79.8464C149.782 79.8464 152.606 81.0819 143.181 118.323L117.059 116.064C118.414 105.474 119 98.9014 115.802 76.6271C119.527 76.1862 123.278 76.0163 127.028 76.1188C131.003 76.1806 134.969 76.525 138.895 77.1495C142.568 77.8629 146.201 78.763 149.782 79.8464Z" fill="#FF5C8A"/>
<path opacity="0.2" d="M120.095 86.4844C121.225 88.8707 120.801 96.8555 118.097 99.6513C118.012 96.4319 117.758 92.7254 117.257 88.1505C117.569 87.6726 117.988 87.2735 118.48 86.9845C118.973 86.6954 119.525 86.5243 120.095 86.4844Z" fill="#1C2D5E"/>
<path d="M129.336 62.832C129.76 66.715 129.901 73.775 127.006 76.0907C127.006 76.0907 130.099 79.2465 136.347 82.7271C140.893 79.5854 138.874 77.1215 138.874 77.1215C134.709 75.7095 135.09 72.5819 136.05 69.6802L129.336 62.832Z" fill="#FFB573"/>
<path opacity="0.2" d="M132.09 65.6562L136.086 69.7087C135.842 70.3833 135.658 71.0778 135.535 71.7843C133.933 71.4031 131.603 69.7369 131.582 68.0143C131.611 67.2045 131.783 66.4062 132.09 65.6562Z" fill="#1C2D5E"/>
<path d="M125.92 56.7907C127.543 62.9964 128.094 65.6581 131.899 68.2561C137.625 72.1674 144.89 68.8209 145.158 62.2551C145.398 56.3459 142.708 47.1962 136.072 45.9042C134.609 45.6117 133.096 45.6981 131.676 46.1552C130.256 46.6124 128.977 47.425 127.959 48.5159C126.942 49.6068 126.221 50.9398 125.864 52.3881C125.507 53.8364 125.526 55.3519 125.92 56.7907Z" fill="#FFB573"/>
<path d="M125.411 62.0481C125.697 62.5916 126.088 63.0734 126.56 63.4659C127.033 63.8584 127.578 64.1539 128.165 64.3356C129.739 64.8086 130.558 63.4107 130.149 61.9069C129.781 60.5585 128.518 58.6805 126.922 58.8641C126.577 58.9145 126.25 59.0492 125.97 59.2564C125.689 59.4636 125.464 59.7369 125.315 60.0518C125.165 60.3668 125.096 60.7138 125.113 61.0621C125.13 61.4103 125.232 61.749 125.411 62.0481Z" fill="#FFB573"/>
<path d="M128.842 44.3293C127.734 46.2355 130.501 49.7655 136.319 49.4266C140.703 49.1725 146.203 53.8815 145.758 48.7912C145.384 44.1599 134.363 41.943 128.842 44.3293Z" fill="#FF5C8A"/>
<path d="M132.027 45.7241C135.063 48.0468 133.043 52.2899 131.582 54.1961C130.121 56.1023 127.868 57.8885 129.612 60.7125C131.356 63.5365 132.549 71.3025 126.986 69.9399C121.423 68.5773 121.677 59.3005 123.293 55.015C124.91 50.7296 128.412 42.9636 132.027 45.7241Z" fill="#FF5C8A"/>
<path d="M143.181 118.323C143.181 118.323 149.775 157.669 145.419 181.722C142.051 200.318 131.024 240.828 131.024 240.828L119.876 240.546C119.876 240.546 127.522 201.377 129.76 185.972C133.579 159.624 124.013 116.664 124.013 116.664L143.181 118.323Z" fill="#38499F"/>
<path opacity="0.2" d="M132.98 126.223L127.402 135.012C129.083 145.441 130.149 155.96 130.593 166.514C138.437 152.493 134.724 133.65 132.98 126.223Z" fill="#1C2D5E"/>
<path d="M132.627 241.406L118.853 241.053L119.65 236.824L133.7 237.488L132.627 241.406Z" fill="#FF5C8A"/>
<path d="M137.463 117.902C137.463 117.902 132.273 159.394 121.027 182.049C111.941 200.349 93.8388 228.645 93.8388 228.645L86.334 223.866C86.334 223.866 97.8771 191.707 104.626 179.55C121.182 149.75 107.655 127.002 117.038 116.066L137.463 117.902Z" fill="#38499F"/>
<path d="M94.6434 229.328L85.063 223.588L86.8068 219.465L97.0156 225.741L94.6434 229.328Z" fill="#FF5C8A"/>
<path d="M116.777 114.489L115.4 116.727C115.287 116.903 115.492 117.108 115.788 117.136L143.21 119.501C143.442 119.501 143.647 119.424 143.675 119.283L144.113 116.96C144.113 116.798 143.951 116.642 143.697 116.621L117.222 114.369C117.143 114.35 117.062 114.351 116.984 114.372C116.906 114.393 116.835 114.433 116.777 114.489Z" fill="#38499F"/>
<path opacity="0.2" d="M116.777 114.489L115.4 116.727C115.287 116.903 115.492 117.108 115.788 117.136L143.21 119.501C143.442 119.501 143.647 119.424 143.675 119.283L144.113 116.96C144.113 116.798 143.951 116.642 143.697 116.621L117.222 114.369C117.143 114.35 117.062 114.351 116.984 114.372C116.906 114.393 116.835 114.433 116.777 114.489Z" fill="#1C2D5E"/>
<path d="M120.081 117.758L119.375 117.701C119.234 117.701 119.135 117.603 119.149 117.518L119.749 114.503C119.749 114.419 119.897 114.355 120.038 114.369L120.744 114.426C120.886 114.426 120.984 114.524 120.97 114.609L120.37 117.624C120.349 117.709 120.222 117.772 120.081 117.758Z" fill="#38499F"/>
<path d="M141.19 119.588L140.484 119.524C140.343 119.524 140.244 119.433 140.258 119.341L140.851 116.333C140.851 116.241 140.999 116.185 141.141 116.192L141.847 116.256C141.988 116.256 142.087 116.347 142.073 116.439L141.472 119.447C141.465 119.538 141.331 119.602 141.19 119.588Z" fill="#38499F"/>
<path d="M130.636 118.675L129.93 118.612C129.789 118.612 129.683 118.52 129.704 118.428L130.297 115.413C130.297 115.329 130.445 115.265 130.586 115.279L131.292 115.343C131.434 115.343 131.539 115.435 131.518 115.519L130.925 118.534C130.904 118.605 130.777 118.682 130.636 118.675Z" fill="#38499F"/>
<path d="M136.425 56.5757C136.523 57.084 136.876 57.4441 137.215 57.3805C137.554 57.317 137.738 56.851 137.632 56.3357C137.526 55.8203 137.18 55.4673 136.848 55.5308C136.516 55.5944 136.326 56.0603 136.425 56.5757Z" fill="#FF5C8A"/>
<path d="M140.604 62.9739C140.703 63.4893 141.056 63.8494 141.388 63.7858C141.72 63.7223 141.91 63.2492 141.812 62.7409C141.713 62.2326 141.36 61.8655 141.028 61.929C140.696 61.9926 140.498 62.4656 140.604 62.9739Z" fill="#FF5C8A"/>
<path d="M142.207 55.439C142.306 55.9473 142.659 56.3074 142.991 56.2438C143.322 56.1803 143.513 55.7143 143.414 55.1989C143.315 54.6836 142.962 54.3306 142.631 54.3941C142.299 54.4576 142.101 54.9236 142.207 55.439Z" fill="#FF5C8A"/>
<path d="M142.49 54.4524L143.648 53.8594C143.648 53.8594 143.203 54.9396 142.49 54.4524Z" fill="#FF5C8A"/>
<path d="M140.202 56.7109C140.886 57.7891 141.715 58.7679 142.666 59.6197C142.444 59.8582 142.172 60.045 141.869 60.167C141.566 60.289 141.241 60.3431 140.915 60.3257L140.202 56.7109Z" fill="#ED893E"/>
<path d="M132.951 54.5928C132.907 54.591 132.863 54.5789 132.824 54.5575C132.795 54.5401 132.77 54.5171 132.75 54.4899C132.73 54.4626 132.716 54.4317 132.708 54.3988C132.7 54.3659 132.699 54.3318 132.704 54.2985C132.709 54.2651 132.722 54.2331 132.739 54.2045C132.975 53.7897 133.308 53.4377 133.708 53.1785C134.109 52.9192 134.566 52.7602 135.041 52.7148C135.108 52.7147 135.172 52.7403 135.221 52.7863C135.27 52.8323 135.299 52.8951 135.302 52.9619C135.304 53.0282 135.28 53.0926 135.235 53.1414C135.191 53.1902 135.128 53.2195 135.062 53.2232C134.67 53.267 134.295 53.4031 133.966 53.6203C133.637 53.8376 133.364 54.1297 133.17 54.4728C133.147 54.5099 133.115 54.5405 133.076 54.5615C133.038 54.5825 132.995 54.5933 132.951 54.5928Z" fill="#FF5C8A"/>
<path d="M143.809 52.5463C143.765 52.5445 143.721 52.5324 143.682 52.511C143.345 52.3103 142.965 52.1922 142.574 52.1665C142.183 52.1407 141.791 52.208 141.43 52.3628C141.401 52.3788 141.368 52.3887 141.335 52.392C141.301 52.3953 141.267 52.392 141.235 52.3821C141.203 52.3723 141.173 52.3561 141.147 52.3346C141.121 52.3131 141.1 52.2867 141.084 52.2569C141.054 52.1958 141.049 52.1256 141.071 52.061C141.092 51.9964 141.137 51.9426 141.197 51.9109C141.633 51.7171 142.109 51.6301 142.586 51.6572C143.062 51.6842 143.525 51.8244 143.936 52.0662C143.988 52.0927 144.029 52.136 144.053 52.189C144.076 52.242 144.081 52.3014 144.066 52.3574C144.051 52.4135 144.018 52.4628 143.971 52.4972C143.924 52.5315 143.867 52.5489 143.809 52.5463Z" fill="#FF5C8A"/>
<path d="M119.636 86.2136C118.224 89.0023 116.734 91.9181 115.4 94.7562C114.765 96.1682 114.143 97.5802 113.677 98.9569C113.471 99.5509 113.302 100.157 113.169 100.771C113.12 100.997 113.127 101.188 113.091 101.068V101.004L113.049 100.884L112.971 100.715C112.971 100.665 112.971 100.715 112.971 100.715C112.983 100.749 112.997 100.782 113.014 100.814C113.056 100.913 113.127 101.04 113.473 101.202C113.951 101.385 114.457 101.486 114.969 101.499C116.376 101.533 117.782 101.397 119.156 101.096C122.234 100.428 125.257 99.5289 128.2 98.4062L129.824 101.456C126.943 103.376 123.837 104.934 120.575 106.095C118.8 106.739 116.945 107.136 115.061 107.274C113.928 107.347 112.791 107.235 111.694 106.942C111.034 106.757 110.402 106.484 109.816 106.13C109.173 105.729 108.601 105.226 108.121 104.64C107.885 104.348 107.675 104.036 107.493 103.708C107.434 103.621 107.382 103.528 107.338 103.433C107.265 103.286 107.201 103.135 107.147 102.981C107.098 102.847 107.055 102.706 107.013 102.572L106.928 102.205C106.799 101.492 106.771 100.765 106.843 100.044C106.94 99.0335 107.129 98.0338 107.408 97.0578C107.881 95.3529 108.459 93.6789 109.138 92.0452C110.42 88.8976 111.896 85.8325 113.557 82.8672L119.636 86.2136Z" fill="#FFB573"/>
<path d="M127.042 99.5444L129.612 94.3906L133.092 98.8879C133.092 98.8879 130.974 102.022 128.277 101.917L127.042 99.5444Z" fill="#FFB573"/>
<path d="M132.344 92.9023L135.655 96.5524L133.071 98.8892L129.591 94.3991L132.344 92.9023Z" fill="#FFB573"/>
<path d="M115.782 76.628C109.957 77.9552 109.604 88.4676 109.604 88.4676L116.226 94.3274C116.226 94.3274 122.58 86.6814 122.248 82.5089C121.952 78.9578 119.82 75.7031 115.782 76.628Z" fill="#FF5C8A"/>
<path d="M116.981 94.6394C116.848 94.8104 116.652 94.9218 116.437 94.9496C116.221 94.9773 116.004 94.9191 115.831 94.7876L108.877 89.3938C108.708 89.2601 108.598 89.0658 108.57 88.8521C108.542 88.6384 108.599 88.4224 108.728 88.2501C108.863 88.0801 109.059 87.9701 109.275 87.9437C109.49 87.9172 109.707 87.9766 109.879 88.1089L116.833 93.4956C117.002 93.6293 117.112 93.8237 117.14 94.0374C117.168 94.251 117.111 94.4671 116.981 94.6394Z" fill="#38499F"/>
<path d="M90.8455 237.213C90.7635 237.224 90.6804 237.224 90.5984 237.213C89.7935 237.142 88.9746 235.878 88.558 235.095C88.5441 235.074 88.5366 235.049 88.5366 235.024C88.5366 234.999 88.5441 234.974 88.558 234.954C88.5737 234.934 88.5948 234.92 88.6187 234.912C88.6426 234.905 88.6681 234.904 88.6922 234.911C88.9463 234.975 91.1914 235.568 91.4456 236.323C91.472 236.407 91.4761 236.495 91.4575 236.581C91.4389 236.666 91.3983 236.745 91.3397 236.81C91.2283 236.999 91.053 237.142 90.8455 237.213ZM88.9322 235.285C89.5394 236.309 90.1607 236.93 90.6196 236.973C90.723 236.98 90.8266 236.96 90.9196 236.914C91.0126 236.868 91.0918 236.798 91.1491 236.712C91.1811 236.68 91.204 236.64 91.2152 236.597C91.2264 236.553 91.2255 236.508 91.2126 236.464C91.0573 235.956 89.7088 235.476 88.9322 235.25V235.285Z" fill="#38499F"/>
<path d="M90.6975 235.16C90.0168 235.316 89.3095 235.316 88.6289 235.16C88.6081 235.153 88.5893 235.141 88.5745 235.125C88.5596 235.109 88.5492 235.089 88.5442 235.068C88.54 235.046 88.5418 235.023 88.5492 235.002C88.5567 234.981 88.5695 234.963 88.5865 234.948C88.643 234.892 89.9985 233.649 90.9375 233.748C91.0501 233.759 91.159 233.794 91.2566 233.851C91.3542 233.909 91.438 233.986 91.5023 234.08C91.575 234.171 91.6147 234.284 91.6147 234.401C91.6147 234.518 91.575 234.631 91.5023 234.722C91.2879 234.95 91.0057 235.104 90.6975 235.16ZM88.9395 234.983C89.6879 235.11 91.0575 234.983 91.3329 234.574C91.3823 234.51 91.4176 234.411 91.2976 234.235C91.2527 234.172 91.1948 234.119 91.1278 234.08C91.0609 234.041 90.9863 234.017 90.9093 234.009C90.2809 233.938 89.3702 234.651 88.9395 234.983Z" fill="#38499F"/>
<path d="M131.13 249.553C130.416 249.538 129.706 249.449 129.012 249.285C128.989 249.284 128.968 249.276 128.949 249.264C128.931 249.252 128.916 249.234 128.906 249.214C128.903 249.188 128.907 249.162 128.918 249.138C128.93 249.115 128.947 249.095 128.969 249.08C129.28 248.932 132.019 247.668 132.739 248.127C132.804 248.168 132.855 248.226 132.889 248.295C132.923 248.363 132.937 248.44 132.93 248.515C132.929 248.652 132.896 248.787 132.835 248.909C132.774 249.032 132.686 249.139 132.577 249.221C132.14 249.477 131.635 249.593 131.13 249.553ZM129.456 249.116C130.289 249.271 131.821 249.476 132.436 248.996C132.518 248.934 132.585 248.854 132.63 248.762C132.675 248.67 132.698 248.569 132.697 248.466C132.703 248.433 132.699 248.399 132.685 248.369C132.671 248.339 132.648 248.313 132.619 248.297C132.224 248.035 130.6 248.607 129.456 249.116Z" fill="#38499F"/>
<path d="M129.054 249.295C129.026 249.301 128.997 249.301 128.969 249.295C128.953 249.278 128.94 249.258 128.933 249.236C128.926 249.214 128.923 249.191 128.927 249.168C128.927 249.048 129.492 246.308 131.01 246.485C131.384 246.527 131.497 246.718 131.518 246.866C131.638 247.572 129.929 248.984 129.103 249.309L129.054 249.295ZM130.875 246.697C129.915 246.697 129.4 248.292 129.238 248.935C130.127 248.462 131.356 247.318 131.271 246.873C131.271 246.838 131.271 246.739 130.981 246.704L130.875 246.697Z" fill="#38499F"/>
<path d="M136.707 55.5891L137.865 54.9961C137.865 54.9961 137.42 56.0763 136.707 55.5891Z" fill="#FF5C8A"/>
<path d="M226.39 5.14741C228.553 5.141 230.691 5.60029 232.66 6.49406C234.629 7.38783 236.382 8.69511 237.8 10.327C239.219 11.9589 240.269 13.8771 240.88 15.9512C241.491 18.0253 241.648 20.2067 241.341 22.347C241.034 24.4872 240.269 26.5362 239.099 28.3546C237.929 30.1729 236.381 31.718 234.561 32.8848C232.74 34.0515 230.69 34.8126 228.549 35.1161C226.409 35.4197 224.227 35.2587 222.154 34.6441L207.717 30.4081L211.953 15.9704C212.88 12.8588 214.783 10.128 217.382 8.1816C219.981 6.23516 223.137 5.17631 226.383 5.16153L226.39 5.14741ZM226.383 4.45553C222.984 4.45766 219.676 5.55868 216.953 7.59437C214.23 9.63007 212.239 12.4914 211.275 15.7515L206.827 30.867L221.943 35.3148C223.928 35.8998 226.008 36.0881 228.066 35.869C230.124 35.6499 232.118 35.0276 233.936 34.0376C235.753 33.0477 237.357 31.7095 238.658 30.0995C239.958 28.4895 240.928 26.6392 241.513 24.6542C242.098 22.6692 242.286 20.5884 242.067 18.5306C241.848 16.4729 241.226 14.4784 240.236 12.6611C239.246 10.8439 237.908 9.23937 236.298 7.93926C234.688 6.63915 232.837 5.66889 230.852 5.08387C229.403 4.65736 227.901 4.441 226.39 4.44141L226.383 4.45553Z" fill="#38499F"/>
<path d="M227.308 24.0041L222.868 22.698L223.002 22.2532C223.163 21.6229 223.433 21.0256 223.8 20.4882C224.105 20.0669 224.486 19.7056 224.922 19.4222C225.852 18.8875 226.817 18.4158 227.81 18.0102C228.593 17.6784 229.045 17.3042 229.172 16.8735C229.238 16.6934 229.264 16.5013 229.249 16.3102C229.235 16.119 229.18 15.9332 229.088 15.7651C228.844 15.4036 228.469 15.1505 228.043 15.0591C227.79 14.9766 227.522 14.9473 227.258 14.9728C226.993 14.9983 226.736 15.0781 226.504 15.2074C225.912 15.635 225.478 16.2453 225.268 16.9441L220.898 15.052C221.428 13.5433 222.5 12.2854 223.906 11.522C225.254 10.816 227.026 10.816 229.208 11.4303C230.673 11.7889 231.997 12.5812 233.006 13.7036C233.546 14.2947 233.922 15.0169 234.097 15.7985C234.271 16.58 234.238 17.3936 234.001 18.1584C233.8 18.835 233.417 19.4432 232.893 19.9164C232.02 20.6074 231.036 21.1468 229.984 21.5119C229.282 21.7477 228.627 22.1063 228.05 22.5709C227.684 22.9775 227.429 23.4709 227.308 24.0041ZM222.366 23.8276L227.125 25.2396L225.889 29.4333L221.131 28.0213L222.366 23.8276Z" fill="#38499F"/>
<path d="M88.3957 12.7099C92.7217 12.7014 96.923 14.1581 100.315 16.8426C103.708 19.5272 106.091 23.2814 107.076 27.4935L111.517 46.1955L92.8152 50.6362C91.3555 50.982 89.8605 51.1573 88.3604 51.1587C83.6525 51.1509 79.1112 49.4159 75.5974 46.2827C72.0837 43.1494 69.8418 38.8357 69.2969 34.1595C68.7519 29.4833 69.9419 24.7697 72.641 20.9124C75.3402 17.0551 79.3609 14.3224 83.9408 13.2323C85.4006 12.8865 86.8955 12.7112 88.3957 12.7099ZM88.3957 12.0039C86.8407 12.0046 85.2911 12.1871 83.7784 12.5475C81.2309 13.1516 78.8274 14.252 76.7054 15.7856C74.5833 17.3192 72.7844 19.256 71.4114 21.4854C70.0384 23.7147 69.1182 26.1928 68.7036 28.7779C68.2889 31.3631 68.3879 34.0046 68.9948 36.5515C69.5955 39.101 70.6938 41.5067 72.2265 43.6307C73.7592 45.7546 75.6963 47.555 77.9265 48.9286C80.1567 50.3021 82.6362 51.2218 85.2227 51.6348C87.8092 52.0478 90.4518 51.9459 92.9988 51.3352L112.386 46.732L107.782 27.3453C106.749 22.9793 104.273 19.0895 100.755 16.3054C97.237 13.5213 92.8822 12.0057 88.3957 12.0039Z" fill="#38499F"/>
<path d="M91.756 35.5106L86.0657 36.8591L85.9245 36.2943C85.7123 35.4985 85.6359 34.6727 85.6986 33.8515C85.7746 33.1921 85.9734 32.5528 86.2845 31.9665C86.979 30.8072 87.7478 29.6941 88.5861 28.6342C89.2427 27.7799 89.5039 27.081 89.3698 26.5162C89.3301 26.2763 89.2388 26.048 89.1023 25.8469C88.9658 25.6458 88.7872 25.4767 88.579 25.3513C88.0845 25.1162 87.519 25.0783 86.9976 25.2454C86.6688 25.3128 86.3574 25.4473 86.0829 25.6404C85.8084 25.8336 85.5766 26.0812 85.402 26.3679C85.014 27.201 84.9075 28.1376 85.0984 29.0366L79.1116 29.7002C78.7614 27.7329 79.1458 25.7054 80.1917 24.0028C81.2366 22.379 83.157 21.2353 85.9527 20.5716C87.7877 20.0443 89.7391 20.0837 91.5513 20.6846C92.5118 20.9932 93.3758 21.5458 94.0589 22.2883C94.742 23.0307 95.2207 23.9377 95.4484 24.9206C95.6463 25.7908 95.6048 26.6984 95.3284 27.5469C94.8023 28.8526 94.0601 30.0603 93.1327 31.1193C92.513 31.8202 92.0229 32.6258 91.6854 33.4985C91.5372 34.1643 91.5615 34.8569 91.756 35.5106ZM86.2281 38.4193L92.3279 37.0073L93.6058 42.3588L87.5059 43.7708L86.2281 38.4193Z" fill="#38499F"/>
</svg>
