<svg width="33" height="33" viewBox="0 0 33 33" fill="none" xmlns="http://www.w3.org/2000/svg">
<path d="M31.8752 20.9008C32.3872 20.6936 32.6342 20.1106 32.4269 19.5987C32.2197 19.0867 31.6367 18.8397 31.1248 19.047L31.8752 20.9008ZM1.87522 19.047C1.36328 18.8397 0.780288 19.0867 0.573062 19.5987C0.365837 20.1106 0.612851 20.6936 1.12478 20.9008L1.87522 19.047ZM22.1667 7.88151C22.1667 8.43379 22.6144 8.88151 23.1667 8.88151C23.719 8.88151 24.1667 8.43379 24.1667 7.88151H22.1667ZM8.83333 7.88151C8.83333 8.43379 9.28105 8.88151 9.83333 8.88151C10.3856 8.88151 10.8333 8.43379 10.8333 7.88151H8.83333ZM16.5 16.8815C15.9477 16.8815 15.5 17.3292 15.5 17.8815C15.5 18.4338 15.9477 18.8815 16.5 18.8815V16.8815ZM16.5167 18.8815C17.069 18.8815 17.5167 18.4338 17.5167 17.8815C17.5167 17.3292 17.069 16.8815 16.5167 16.8815V18.8815ZM4.83333 8.88151H28.1667V6.88151H4.83333V8.88151ZM30.5 11.2148V27.8815H32.5V11.2148H30.5ZM28.1667 30.2148H4.83333V32.2148H28.1667V30.2148ZM2.5 27.8815V11.2148H0.5V27.8815H2.5ZM4.83333 30.2148C3.54467 30.2148 2.5 29.1702 2.5 27.8815H0.5C0.5 30.2747 2.4401 32.2148 4.83333 32.2148V30.2148ZM30.5 27.8815C30.5 29.1702 29.4553 30.2148 28.1667 30.2148V32.2148C30.5599 32.2148 32.5 30.2747 32.5 27.8815H30.5ZM28.1667 8.88151C29.4553 8.88151 30.5 9.92618 30.5 11.2148H32.5C32.5 8.82161 30.5599 6.88151 28.1667 6.88151V8.88151ZM4.83333 6.88151C2.4401 6.88151 0.5 8.82161 0.5 11.2148H2.5C2.5 9.92618 3.54467 8.88151 4.83333 8.88151V6.88151ZM31.1248 19.047C26.6098 20.8746 21.6737 21.8815 16.5 21.8815V23.8815C21.9353 23.8815 27.1259 22.8233 31.8752 20.9008L31.1248 19.047ZM16.5 21.8815C11.3263 21.8815 6.39019 20.8746 1.87522 19.047L1.12478 20.9008C5.87413 22.8233 11.0647 23.8815 16.5 23.8815V21.8815ZM13.1667 2.21484H19.8333V0.214844H13.1667V2.21484ZM22.1667 4.54818V7.88151H24.1667V4.54818H22.1667ZM10.8333 7.88151V4.54818H8.83333V7.88151H10.8333ZM19.8333 2.21484C21.122 2.21484 22.1667 3.25951 22.1667 4.54818H24.1667C24.1667 2.15494 22.2266 0.214844 19.8333 0.214844V2.21484ZM13.1667 0.214844C10.7734 0.214844 8.83333 2.15494 8.83333 4.54818H10.8333C10.8333 3.25951 11.878 2.21484 13.1667 2.21484V0.214844ZM16.5 18.8815H16.5167V16.8815H16.5V18.8815Z" fill="#1C2D5E"/>
</svg>
