<svg width="21" height="21" viewBox="0 0 21 21" fill="none" xmlns="http://www.w3.org/2000/svg">
<path d="M6.67157 8.7652L7.37868 9.47231L6.67157 8.7652ZM11.6213 9.47231C12.0118 9.86283 12.645 9.86283 13.0355 9.47231C13.4261 9.08178 13.4261 8.44862 13.0355 8.05809L11.6213 9.47231ZM8.32843 18.4221L7.62132 17.7149H7.62132L8.32843 18.4221ZM2.67157 18.4221L1.96447 19.1292H1.96447L2.67157 18.4221ZM2.67157 12.7652L3.37868 13.4723L2.67157 12.7652ZM10.1371 18.0276C10.5276 17.6371 10.5276 17.0039 10.1371 16.6134C9.74657 16.2229 9.11341 16.2229 8.72288 16.6134L10.1371 18.0276ZM12.6716 2.7652L11.9645 2.05809V2.05809L12.6716 2.7652ZM18.3284 2.7652L17.6213 3.47231V3.47231L18.3284 2.7652ZM18.3284 8.42205L17.6213 7.71495V7.71495L18.3284 8.42205ZM14.3284 12.4221L13.6213 11.7149L14.3284 12.4221ZM9.37868 11.7149C8.98815 11.3244 8.35499 11.3244 7.96447 11.7149C7.57394 12.1055 7.57394 12.7386 7.96447 13.1292L9.37868 11.7149ZM10.8649 3.1577C10.4743 3.54823 10.4743 4.18139 10.8649 4.57192C11.2554 4.96244 11.8885 4.96244 12.2791 4.57192L10.8649 3.1577ZM7.37868 9.47231C8.55025 8.30073 10.4497 8.30073 11.6213 9.47231L13.0355 8.05809C11.0829 6.10547 7.91709 6.10547 5.96447 8.05809L7.37868 9.47231ZM7.62132 17.7149C6.44975 18.8865 4.55025 18.8865 3.37868 17.7149L1.96447 19.1292C3.91709 21.0818 7.08291 21.0818 9.03553 19.1292L7.62132 17.7149ZM3.37868 17.7149C2.20711 16.5434 2.20711 14.6439 3.37868 13.4723L1.96447 12.0581C0.0118446 14.0107 0.0118448 17.1765 1.96447 19.1292L3.37868 17.7149ZM3.37868 13.4723L7.37868 9.47231L5.96447 8.05809L1.96447 12.0581L3.37868 13.4723ZM8.72288 16.6134L7.62132 17.7149L9.03553 19.1292L10.1371 18.0276L8.72288 16.6134ZM13.3787 3.47231C14.5503 2.30073 16.4497 2.30073 17.6213 3.47231L19.0355 2.05809C17.0829 0.105473 13.9171 0.105473 11.9645 2.05809L13.3787 3.47231ZM17.6213 3.47231C18.7929 4.64388 18.7929 6.54338 17.6213 7.71495L19.0355 9.12916C20.9882 7.17654 20.9882 4.01072 19.0355 2.05809L17.6213 3.47231ZM13.6213 11.7149C12.4497 12.8865 10.5503 12.8865 9.37868 11.7149L7.96447 13.1292C9.91709 15.0818 13.0829 15.0818 15.0355 13.1292L13.6213 11.7149ZM17.6213 7.71495L13.6213 11.7149L15.0355 13.1292L19.0355 9.12916L17.6213 7.71495ZM12.2791 4.57192L13.3787 3.47231L11.9645 2.05809L10.8649 3.1577L12.2791 4.57192Z" fill="#4A75F7"/>
</svg>
