<svg width="25" height="25" viewBox="0 0 25 25" fill="none" xmlns="http://www.w3.org/2000/svg">
<path d="M10.1915 12.1425C9.80096 11.752 9.16779 11.752 8.77727 12.1425C8.38674 12.533 8.38674 13.1662 8.77727 13.5567L10.1915 12.1425ZM11.4844 14.8496L10.7773 15.5567C11.1678 15.9472 11.801 15.9472 12.1915 15.5567L11.4844 14.8496ZM16.1915 11.5567C16.582 11.1662 16.582 10.533 16.1915 10.1425C15.801 9.75198 15.1678 9.75198 14.7773 10.1425L16.1915 11.5567ZM20.4844 12.8496C20.4844 17.2679 16.9027 20.8496 12.4844 20.8496V22.8496C18.0072 22.8496 22.4844 18.3725 22.4844 12.8496H20.4844ZM12.4844 20.8496C8.0661 20.8496 4.48438 17.2679 4.48438 12.8496H2.48438C2.48438 18.3725 6.96153 22.8496 12.4844 22.8496V20.8496ZM4.48438 12.8496C4.48438 8.43133 8.0661 4.84961 12.4844 4.84961V2.84961C6.96153 2.84961 2.48438 7.32676 2.48438 12.8496H4.48438ZM12.4844 4.84961C16.9027 4.84961 20.4844 8.43133 20.4844 12.8496H22.4844C22.4844 7.32676 18.0072 2.84961 12.4844 2.84961V4.84961ZM8.77727 13.5567L10.7773 15.5567L12.1915 14.1425L10.1915 12.1425L8.77727 13.5567ZM12.1915 15.5567L16.1915 11.5567L14.7773 10.1425L10.7773 14.1425L12.1915 15.5567Z" fill="currentColor"/>
</svg>