<svg width="37" height="37" viewBox="0 0 37 37" fill="none" xmlns="http://www.w3.org/2000/svg">
<path d="M36.5 18.2656C36.5 28.2067 28.4411 36.2656 18.5 36.2656C8.55888 36.2656 0.5 28.2067 0.5 18.2656C0.5 8.3245 8.55888 0.265625 18.5 0.265625C28.4411 0.265625 36.5 8.3245 36.5 18.2656Z" fill="#DCEFE4"/>
<path d="M15.5 18.2656L17.5 20.2656L21.5 16.2656M27.5 18.2656C27.5 23.2362 23.4706 27.2656 18.5 27.2656C13.5294 27.2656 9.5 23.2362 9.5 18.2656C9.5 13.2951 13.5294 9.26562 18.5 9.26562C23.4706 9.26562 27.5 13.2951 27.5 18.2656Z" stroke="#27AE60" stroke-width="2" stroke-linecap="round" stroke-linejoin="round"/>
</svg>
