<svg width="33" height="32" viewBox="0 0 33 32" fill="none" xmlns="http://www.w3.org/2000/svg">
<path d="M10.1193 12.9526L10.8264 13.6597L10.1193 12.9526ZM18.8403 13.6597C19.2308 14.0503 19.864 14.0503 20.2545 13.6597C20.645 13.2692 20.645 12.636 20.2545 12.2455L18.8403 13.6597ZM12.8807 29.0474L12.1736 28.3403H12.1736L12.8807 29.0474ZM3.45262 29.0474L2.74551 29.7545H2.74551L3.45262 29.0474ZM3.45262 19.6193L4.15973 20.3264L3.45262 19.6193ZM15.4238 27.9185C15.8143 27.528 15.8143 26.8949 15.4238 26.5043C15.0332 26.1138 14.4001 26.1138 14.0095 26.5043L15.4238 27.9185ZM20.1193 2.95262L19.4122 2.24551L20.1193 2.95262ZM29.5474 2.95262L28.8403 3.65973L29.5474 2.95262ZM29.5474 12.3807L28.8403 11.6736L29.5474 12.3807ZM22.8807 19.0474L22.1736 18.3403L22.8807 19.0474ZM14.1597 18.3403C13.7692 17.9497 13.136 17.9497 12.7455 18.3403C12.355 18.7308 12.355 19.364 12.7455 19.7545L14.1597 18.3403ZM17.5795 4.0782C17.189 4.46872 17.189 5.10189 17.5795 5.49241C17.97 5.88294 18.6032 5.88294 18.9937 5.49241L17.5795 4.0782ZM10.8264 13.6597C13.0394 11.4468 16.6273 11.4468 18.8403 13.6597L20.2545 12.2455C17.2605 9.25149 12.4062 9.25149 9.41218 12.2455L10.8264 13.6597ZM12.1736 28.3403C9.96063 30.5532 6.3727 30.5532 4.15973 28.3403L2.74551 29.7545C5.73953 32.7485 10.5938 32.7485 13.5878 29.7545L12.1736 28.3403ZM4.15973 28.3403C1.94676 26.1273 1.94676 22.5394 4.15973 20.3264L2.74551 18.9122C-0.248505 21.9062 -0.248505 26.7605 2.74551 29.7545L4.15973 28.3403ZM4.15973 20.3264L10.8264 13.6597L9.41218 12.2455L2.74551 18.9122L4.15973 20.3264ZM14.0095 26.5043L12.1736 28.3403L13.5878 29.7545L15.4238 27.9185L14.0095 26.5043ZM20.8264 3.65973C23.0394 1.44676 26.6273 1.44676 28.8403 3.65973L30.2545 2.24551C27.2605 -0.748505 22.4062 -0.748505 19.4122 2.24551L20.8264 3.65973ZM28.8403 3.65973C31.0532 5.8727 31.0532 9.46063 28.8403 11.6736L30.2545 13.0878C33.2485 10.0938 33.2485 5.23953 30.2545 2.24551L28.8403 3.65973ZM22.1736 18.3403C19.9606 20.5532 16.3727 20.5532 14.1597 18.3403L12.7455 19.7545C15.7395 22.7485 20.5938 22.7485 23.5878 19.7545L22.1736 18.3403ZM28.8403 11.6736L22.1736 18.3403L23.5878 19.7545L30.2545 13.0878L28.8403 11.6736ZM18.9937 5.49241L20.8264 3.65973L19.4122 2.24551L17.5795 4.0782L18.9937 5.49241Z" fill="#1C2D5E"/>
</svg>
