<svg width="17" height="17" viewBox="0 0 17 17" fill="none" xmlns="http://www.w3.org/2000/svg">
<path d="M9.60938 6.24349C9.60938 5.69121 9.16166 5.24349 8.60938 5.24349C8.05709 5.24349 7.60938 5.69121 7.60938 6.24349H9.60938ZM8.60938 8.91016H7.60938C7.60938 9.17537 7.71473 9.42973 7.90227 9.61726L8.60938 8.91016ZM9.90227 11.6173C10.2928 12.0078 10.926 12.0078 11.3165 11.6173C11.707 11.2267 11.707 10.5936 11.3165 10.203L9.90227 11.6173ZM13.6094 8.91016C13.6094 11.6716 11.3708 13.9102 8.60938 13.9102V15.9102C12.4754 15.9102 15.6094 12.7761 15.6094 8.91016H13.6094ZM8.60938 13.9102C5.84795 13.9102 3.60938 11.6716 3.60938 8.91016H1.60938C1.60938 12.7761 4.74338 15.9102 8.60938 15.9102V13.9102ZM3.60938 8.91016C3.60938 6.14873 5.84795 3.91016 8.60938 3.91016V1.91016C4.74338 1.91016 1.60938 5.04416 1.60938 8.91016H3.60938ZM8.60938 3.91016C11.3708 3.91016 13.6094 6.14873 13.6094 8.91016H15.6094C15.6094 5.04416 12.4754 1.91016 8.60938 1.91016V3.91016ZM7.60938 6.24349V8.91016H9.60938V6.24349H7.60938ZM7.90227 9.61726L9.90227 11.6173L11.3165 10.203L9.31648 8.20305L7.90227 9.61726Z" fill="#606C8E"/>
</svg>
