<svg width="18" height="20" viewBox="0 0 18 20" fill="none" xmlns="http://www.w3.org/2000/svg">
<path d="M2 15V5H0V15H2ZM9 18C6.91244 18 5.07196 17.5748 3.79036 16.934C2.44895 16.2633 2 15.5217 2 15H0C0 16.6874 1.34191 17.9458 2.89593 18.7229C4.50977 19.5298 6.66928 20 9 20V18ZM16 15C16 15.5217 15.5511 16.2633 14.2096 16.934C12.928 17.5748 11.0876 18 9 18V20C11.3307 20 13.4902 19.5298 15.1041 18.7229C16.6581 17.9458 18 16.6874 18 15H16ZM16 5V15H18V5H16ZM16 5C16 5.52174 15.5511 6.26329 14.2096 6.934C12.928 7.5748 11.0876 8 9 8V10C11.3307 10 13.4902 9.52977 15.1041 8.72285C16.6581 7.94584 18 6.6874 18 5H16ZM9 8C6.91244 8 5.07196 7.5748 3.79036 6.934C2.44895 6.26329 2 5.52174 2 5H0C0 6.6874 1.34191 7.94584 2.89593 8.72285C4.50977 9.52977 6.66928 10 9 10V8ZM2 5C2 4.47826 2.44895 3.73671 3.79036 3.066C5.07196 2.4252 6.91244 2 9 2V0C6.66928 0 4.50977 0.470229 2.89593 1.27715C1.34191 2.05416 0 3.3126 0 5H2ZM9 2C11.0876 2 12.928 2.4252 14.2096 3.066C15.5511 3.73671 16 4.47826 16 5H18C18 3.3126 16.6581 2.05416 15.1041 1.27715C13.4902 0.470229 11.3307 0 9 0V2ZM16 10C16 10.5217 15.5511 11.2633 14.2096 11.934C12.928 12.5748 11.0876 13 9 13V15C11.3307 15 13.4902 14.5298 15.1041 13.7229C16.6581 12.9458 18 11.6874 18 10H16ZM9 13C6.91244 13 5.07196 12.5748 3.79036 11.934C2.44895 11.2633 2 10.5217 2 10H0C0 11.6874 1.34191 12.9458 2.89593 13.7229C4.50977 14.5298 6.66928 15 9 15V13Z" fill="#1C2D5E"/>
</svg>
