<svg width="22" height="23" viewBox="0 0 22 23" fill="none" xmlns="http://www.w3.org/2000/svg">
<path fill-rule="evenodd" clip-rule="evenodd" d="M6.465 0.870687C7.638 0.816687 8.012 0.804688 11 0.804688C13.988 0.804688 14.362 0.817687 15.534 0.870687C16.706 0.923687 17.506 1.11069 18.206 1.38169C18.939 1.65869 19.604 2.09169 20.154 2.65169C20.714 3.20069 21.146 3.86469 21.422 4.59869C21.694 5.29869 21.88 6.09869 21.934 7.26869C21.988 8.44369 22 8.81769 22 11.8047C22 14.7927 21.987 15.1667 21.934 16.3397C21.881 17.5097 21.694 18.3097 21.422 19.0097C21.146 19.7438 20.7133 20.4089 20.154 20.9587C19.604 21.5187 18.939 21.9507 18.206 22.2267C17.506 22.4987 16.706 22.6847 15.536 22.7387C14.362 22.7927 13.988 22.8047 11 22.8047C8.012 22.8047 7.638 22.7917 6.465 22.7387C5.295 22.6857 4.495 22.4987 3.795 22.2267C3.06092 21.9507 2.39582 21.5179 1.846 20.9587C1.28638 20.4094 0.853315 19.7446 0.577 19.0107C0.306 18.3107 0.12 17.5107 0.066 16.3407C0.012 15.1657 0 14.7917 0 11.8047C0 8.81669 0.013 8.44269 0.066 7.27069C0.119 6.09869 0.306 5.29869 0.577 4.59869C0.853723 3.86477 1.28712 3.2 1.847 2.65069C2.39604 2.09119 3.06047 1.65813 3.794 1.38169C4.494 1.11069 5.294 0.924687 6.464 0.870687H6.465ZM15.445 2.85069C14.285 2.79769 13.937 2.78669 11 2.78669C8.063 2.78669 7.715 2.79769 6.555 2.85069C5.482 2.89969 4.9 3.07869 4.512 3.22969C3.999 3.42969 3.632 3.66669 3.247 4.05169C2.88205 4.40674 2.60118 4.83897 2.425 5.31669C2.274 5.70469 2.095 6.28669 2.046 7.35969C1.993 8.51969 1.982 8.86769 1.982 11.8047C1.982 14.7417 1.993 15.0897 2.046 16.2497C2.095 17.3227 2.274 17.9047 2.425 18.2927C2.601 18.7697 2.882 19.2027 3.247 19.5577C3.602 19.9227 4.035 20.2037 4.512 20.3797C4.9 20.5307 5.482 20.7097 6.555 20.7587C7.715 20.8117 8.062 20.8227 11 20.8227C13.938 20.8227 14.285 20.8117 15.445 20.7587C16.518 20.7097 17.1 20.5307 17.488 20.3797C18.001 20.1797 18.368 19.9427 18.753 19.5577C19.118 19.2027 19.399 18.7697 19.575 18.2927C19.726 17.9047 19.905 17.3227 19.954 16.2497C20.007 15.0897 20.018 14.7417 20.018 11.8047C20.018 8.86769 20.007 8.51969 19.954 7.35969C19.905 6.28669 19.726 5.70469 19.575 5.31669C19.375 4.80369 19.138 4.43669 18.753 4.05169C18.3979 3.68676 17.9657 3.4059 17.488 3.22969C17.1 3.07869 16.518 2.89969 15.445 2.85069ZM9.595 15.1957C10.3797 15.5223 11.2534 15.5664 12.0669 15.3204C12.8805 15.0744 13.5834 14.5536 14.0556 13.8469C14.5278 13.1403 14.7401 12.2916 14.656 11.4458C14.572 10.6 14.197 9.80966 13.595 9.20969C13.2112 8.82616 12.7472 8.5325 12.2363 8.34983C11.7255 8.16717 11.1804 8.10005 10.6405 8.1533C10.1006 8.20656 9.57915 8.37886 9.1138 8.65782C8.64845 8.93677 8.25074 9.31543 7.9493 9.76654C7.64786 10.2176 7.45019 10.73 7.37052 11.2666C7.29084 11.8033 7.33115 12.351 7.48854 12.8702C7.64593 13.3894 7.91648 13.8673 8.28072 14.2694C8.64496 14.6715 9.09382 14.9879 9.595 15.1957ZM7.002 7.80669C7.52702 7.28166 8.15032 6.86519 8.8363 6.58105C9.52228 6.29691 10.2575 6.15066 11 6.15066C11.7425 6.15066 12.4777 6.29691 13.1637 6.58105C13.8497 6.86519 14.473 7.28166 14.998 7.80669C15.523 8.33171 15.9395 8.95501 16.2236 9.64099C16.5078 10.327 16.654 11.0622 16.654 11.8047C16.654 12.5472 16.5078 13.2824 16.2236 13.9684C15.9395 14.6544 15.523 15.2777 14.998 15.8027C13.9377 16.863 12.4995 17.4587 11 17.4587C9.50046 17.4587 8.06234 16.863 7.002 15.8027C5.94166 14.7424 5.34597 13.3042 5.34597 11.8047C5.34597 10.3051 5.94166 8.86702 7.002 7.80669ZM17.908 6.99269C18.0381 6.86996 18.1423 6.72237 18.2143 6.55866C18.2863 6.39495 18.3248 6.21846 18.3274 6.03962C18.33 5.86078 18.2967 5.68324 18.2295 5.5175C18.1622 5.35176 18.0624 5.2012 17.936 5.07473C17.8095 4.94826 17.6589 4.84844 17.4932 4.78121C17.3275 4.71397 17.1499 4.68066 16.9711 4.68327C16.7922 4.68588 16.6157 4.72434 16.452 4.79638C16.2883 4.86843 16.1407 4.97258 16.018 5.10269C15.7793 5.35572 15.6486 5.69181 15.6537 6.03962C15.6588 6.38743 15.7992 6.71957 16.0452 6.96553C16.2911 7.21149 16.6233 7.35192 16.9711 7.35699C17.3189 7.36206 17.655 7.23138 17.908 6.99269Z" fill="#4A75F7"/>
</svg>
