<svg width="33" height="31" viewBox="0 0 33 31" fill="none" xmlns="http://www.w3.org/2000/svg">
<path d="M3.16667 1.55078V0.550781H2.16667V1.55078H3.16667ZM29.8333 1.55078H30.8333V0.550781H29.8333V1.55078ZM7.45956 14.177C7.06904 14.5675 7.06904 15.2007 7.45956 15.5912C7.85008 15.9817 8.48325 15.9817 8.87377 15.5912L7.45956 14.177ZM13.1667 9.88411L13.8738 9.17701C13.6862 8.98947 13.4319 8.88411 13.1667 8.88411C12.9014 8.88411 12.6471 8.98947 12.4596 9.17701L13.1667 9.88411ZM18.1667 14.8841L17.4596 15.5912C17.6471 15.7788 17.9014 15.8841 18.1667 15.8841C18.4319 15.8841 18.6862 15.7788 18.8738 15.5912L18.1667 14.8841ZM25.5404 8.92455C25.931 8.53403 25.931 7.90087 25.5404 7.51034C25.1499 7.11982 24.5167 7.11982 24.1262 7.51034L25.5404 8.92455ZM9.12623 29.177C8.7357 29.5675 8.7357 30.2007 9.12623 30.5912C9.51675 30.9817 10.1499 30.9817 10.5404 30.5912L9.12623 29.177ZM16.5 23.2174L17.2071 22.5103C17.0196 22.3228 16.7652 22.2174 16.5 22.2174C16.2348 22.2174 15.9804 22.3228 15.7929 22.5103L16.5 23.2174ZM22.4596 30.5912C22.8501 30.9817 23.4832 30.9817 23.8738 30.5912C24.2643 30.2007 24.2643 29.5675 23.8738 29.177L22.4596 30.5912ZM1.5 0.550781C0.947715 0.550781 0.5 0.998496 0.5 1.55078C0.5 2.10307 0.947715 2.55078 1.5 2.55078V0.550781ZM31.5 2.55078C32.0523 2.55078 32.5 2.10307 32.5 1.55078C32.5 0.998496 32.0523 0.550781 31.5 0.550781V2.55078ZM3.16667 2.55078H29.8333V0.550781H3.16667V2.55078ZM28.8333 1.55078V21.5508H30.8333V1.55078H28.8333ZM28.1667 22.2174H4.83333V24.2174H28.1667V22.2174ZM4.16667 21.5508V1.55078H2.16667V21.5508H4.16667ZM4.83333 22.2174C4.46514 22.2174 4.16667 21.919 4.16667 21.5508H2.16667C2.16667 23.0235 3.36057 24.2174 4.83333 24.2174V22.2174ZM28.8333 21.5508C28.8333 21.919 28.5349 22.2174 28.1667 22.2174V24.2174C29.6394 24.2174 30.8333 23.0235 30.8333 21.5508H28.8333ZM8.87377 15.5912L13.8738 10.5912L12.4596 9.17701L7.45956 14.177L8.87377 15.5912ZM12.4596 10.5912L17.4596 15.5912L18.8738 14.177L13.8738 9.17701L12.4596 10.5912ZM18.8738 15.5912L25.5404 8.92455L24.1262 7.51034L17.4596 14.177L18.8738 15.5912ZM10.5404 30.5912L17.2071 23.9246L15.7929 22.5103L9.12623 29.177L10.5404 30.5912ZM15.7929 23.9246L22.4596 30.5912L23.8738 29.177L17.2071 22.5103L15.7929 23.9246ZM1.5 2.55078H31.5V0.550781H1.5V2.55078Z" fill="#1C2D5E"/>
</svg>
