<svg width="20" height="20" viewBox="0 0 20 20" fill="none" xmlns="http://www.w3.org/2000/svg">
<path d="M2.27273 0C1.02812 0 0 1.02812 0 2.27273V17.7273C0 18.9719 1.02812 20 2.27273 20H17.7273C18.9719 20 20 18.9719 20 17.7273V2.27273C20 1.02812 18.9719 0 17.7273 0H2.27273ZM2.27273 1.81818H17.7273C17.9881 1.81818 18.1818 2.01188 18.1818 2.27273V17.7273C18.1818 17.9881 17.9881 18.1818 17.7273 18.1818H2.27273C2.01188 18.1818 1.81818 17.9881 1.81818 17.7273V2.27273C1.81818 2.01188 2.01188 1.81818 2.27273 1.81818ZM4.94318 3.38068C4.07955 3.38068 3.38068 4.08045 3.38068 4.94318C3.38068 5.80591 4.07864 6.50568 4.94318 6.50568C5.805 6.50568 6.50568 5.80591 6.50568 4.94318C6.50568 4.08136 5.805 3.38068 4.94318 3.38068ZM13.1534 7.52841C11.8489 7.52841 10.9832 8.24227 10.625 8.92045H10.5682V7.72727H8.01136V16.3636H10.6818V12.1023C10.6818 10.9768 10.9057 9.88636 12.3011 9.88636C13.6766 9.88636 13.6932 11.1582 13.6932 12.1591V16.3636H16.3636V11.6193C16.3636 9.29568 15.8689 7.52841 13.1534 7.52841ZM3.63636 7.72727V16.3636H6.33523V7.72727H3.63636Z" fill="#4A75F7"/>
</svg>
