<svg width="20" height="17" viewBox="0 0 20 17" fill="none" xmlns="http://www.w3.org/2000/svg">
<path d="M1.5547 3.97264C1.09517 3.66628 0.474302 3.79046 0.16795 4.24999C-0.138403 4.70952 -0.0142289 5.33039 0.4453 5.63674L1.5547 3.97264ZM8.8906 10.0651L8.3359 10.8971H8.3359L8.8906 10.0651ZM11.1094 10.0651L10.5547 9.23304L11.1094 10.0651ZM19.5547 5.63674C20.0142 5.33039 20.1384 4.70952 19.8321 4.24999C19.5257 3.79046 18.9048 3.66628 18.4453 3.97264L19.5547 5.63674ZM3 2.80469H17V0.804688H3V2.80469ZM18 3.80469V13.8047H20V3.80469H18ZM17 14.8047H3V16.8047H17V14.8047ZM2 13.8047V3.80469H0V13.8047H2ZM3 14.8047C2.44772 14.8047 2 14.357 2 13.8047H0C0 15.4615 1.34315 16.8047 3 16.8047V14.8047ZM18 13.8047C18 14.357 17.5523 14.8047 17 14.8047V16.8047C18.6569 16.8047 20 15.4615 20 13.8047H18ZM17 2.80469C17.5523 2.80469 18 3.2524 18 3.80469H20C20 2.14783 18.6569 0.804688 17 0.804688V2.80469ZM3 0.804688C1.34315 0.804688 0 2.14783 0 3.80469H2C2 3.2524 2.44772 2.80469 3 2.80469V0.804688ZM0.4453 5.63674L8.3359 10.8971L9.4453 9.23304L1.5547 3.97264L0.4453 5.63674ZM11.6641 10.8971L19.5547 5.63674L18.4453 3.97264L10.5547 9.23304L11.6641 10.8971ZM8.3359 10.8971C9.3436 11.5689 10.6564 11.5689 11.6641 10.8971L10.5547 9.23304C10.2188 9.45697 9.7812 9.45697 9.4453 9.23304L8.3359 10.8971Z" fill="#4A75F7"/>
</svg>
