<svg width="33" height="33" viewBox="0 0 33 33" fill="none" xmlns="http://www.w3.org/2000/svg">
<path d="M20.0758 12.5968C20.4377 13.0139 21.0693 13.0587 21.4865 12.6967C21.9036 12.3348 21.9483 11.7032 21.5864 11.286L20.0758 12.5968ZM12.9242 21.286C12.5623 20.8689 11.9307 20.8242 11.5136 21.1861C11.0964 21.5481 11.0517 22.1796 11.4136 22.5968L12.9242 21.286ZM17.5 8.60807C17.5 8.05579 17.0523 7.60807 16.5 7.60807C15.9477 7.60807 15.5 8.05579 15.5 8.60807H17.5ZM15.5 25.2747C15.5 25.827 15.9477 26.2747 16.5 26.2747C17.0523 26.2747 17.5 25.827 17.5 25.2748L15.5 25.2747ZM30.5 16.9414C30.5 24.6734 24.232 30.9414 16.5 30.9414V32.9414C25.3366 32.9414 32.5 25.778 32.5 16.9414H30.5ZM16.5 30.9414C8.76801 30.9414 2.5 24.6734 2.5 16.9414H0.5C0.5 25.778 7.66344 32.9414 16.5 32.9414V30.9414ZM2.5 16.9414C2.5 9.20942 8.76801 2.94141 16.5 2.94141V0.941406C7.66344 0.941406 0.5 8.10485 0.5 16.9414H2.5ZM16.5 2.94141C24.232 2.94141 30.5 9.20942 30.5 16.9414H32.5C32.5 8.10485 25.3366 0.941406 16.5 0.941406V2.94141ZM16.5 15.9414C15.2892 15.9414 14.2382 15.6124 13.5192 15.133C12.7931 14.649 12.5 14.0902 12.5 13.6081H10.5C10.5 14.9669 11.3262 16.0747 12.4098 16.7971C13.5004 17.5242 14.9494 17.9414 16.5 17.9414V15.9414ZM12.5 13.6081C12.5 13.126 12.7931 12.5671 13.5192 12.0831C14.2382 11.6037 15.2892 11.2747 16.5 11.2747V9.27474C14.9494 9.27474 13.5004 9.69194 12.4098 10.419C11.3262 11.1414 10.5 12.2492 10.5 13.6081H12.5ZM16.5 11.2747C18.1441 11.2747 19.4497 11.8752 20.0758 12.5968L21.5864 11.286C20.4835 10.015 18.5574 9.27474 16.5 9.27474V11.2747ZM16.5 17.9414C17.7108 17.9414 18.7618 18.2704 19.4809 18.7498C20.2069 19.2338 20.5 19.7927 20.5 20.2747H22.5C22.5 18.9159 21.6739 17.8081 20.5902 17.0857C19.4996 16.3586 18.0506 15.9414 16.5 15.9414V17.9414ZM15.5 8.60807V10.2747H17.5V8.60807H15.5ZM15.5 23.6081L15.5 25.2747L17.5 25.2748L17.5 23.6081L15.5 23.6081ZM16.5 22.6081C14.856 22.6081 13.5504 22.0076 12.9242 21.286L11.4136 22.5968C12.5166 23.8678 14.4427 24.6081 16.5 24.6081L16.5 22.6081ZM20.5 20.2747C20.5 20.7568 20.2069 21.3157 19.4809 21.7997C18.7618 22.2791 17.7109 22.6081 16.5 22.6081V24.6081C18.0506 24.6081 19.4997 24.1909 20.5903 23.4638C21.6739 22.7414 22.5 21.6336 22.5 20.2747H20.5ZM15.5 10.2747L15.5 23.6081L17.5 23.6081L17.5 10.2747L15.5 10.2747Z" fill="#1C2D5E"/>
</svg>
