<svg width="25" height="25" viewBox="0 0 25 25" fill="none" xmlns="http://www.w3.org/2000/svg">
<path d="M17.7644 14.5386V20.5386M14.7644 17.5386H20.7644M6.7644 10.5386H8.7644C9.86897 10.5386 10.7644 9.64314 10.7644 8.53857V6.53857C10.7644 5.434 9.86897 4.53857 8.7644 4.53857H6.7644C5.65983 4.53857 4.7644 5.434 4.7644 6.53857V8.53857C4.7644 9.64314 5.65983 10.5386 6.7644 10.5386ZM16.7644 10.5386H18.7644C19.869 10.5386 20.7644 9.64314 20.7644 8.53857V6.53857C20.7644 5.434 19.869 4.53857 18.7644 4.53857H16.7644C15.6598 4.53857 14.7644 5.434 14.7644 6.53857V8.53857C14.7644 9.64314 15.6598 10.5386 16.7644 10.5386ZM6.7644 20.5386H8.7644C9.86897 20.5386 10.7644 19.6431 10.7644 18.5386V16.5386C10.7644 15.434 9.86897 14.5386 8.7644 14.5386H6.7644C5.65983 14.5386 4.7644 15.434 4.7644 16.5386V18.5386C4.7644 19.6431 5.65983 20.5386 6.7644 20.5386Z" stroke="#4A75F7" stroke-width="2" stroke-linecap="round" stroke-linejoin="round"/>
</svg>
