<svg width="33" height="32" viewBox="0 0 33 32" fill="none" xmlns="http://www.w3.org/2000/svg">
<path d="M14.8333 1.03125H15.8333C15.8333 0.746904 15.7123 0.476004 15.5005 0.286309C15.2886 0.0966132 15.0061 0.00606215 14.7235 0.0373046L14.8333 1.03125ZM31.4085 17.6064L32.4024 17.7162C32.4336 17.4336 32.3431 17.1511 32.1534 16.9392C31.9637 16.7274 31.6928 16.6064 31.4085 16.6064V17.6064ZM14.8333 17.6064H13.8333C13.8333 18.1586 14.281 18.6064 14.8333 18.6064V17.6064ZM30.6464 10.9397V11.9397C30.971 11.9397 31.2754 11.7821 31.4628 11.5171C31.6503 11.252 31.6974 10.9125 31.5892 10.6064L30.6464 10.9397ZM21.5 10.9397H20.5C20.5 11.492 20.9477 11.9397 21.5 11.9397V10.9397ZM21.5 1.79353L21.8332 0.850693C21.5272 0.742515 21.1877 0.789632 20.9226 0.977063C20.6576 1.16449 20.5 1.46891 20.5 1.79353H21.5ZM2.5 15.9397C2.5 8.73418 7.94435 2.79888 14.9432 2.0252L14.7235 0.0373046C6.72249 0.921767 0.5 7.70338 0.5 15.9397H2.5ZM16.5 29.9397C8.76801 29.9397 2.5 23.6717 2.5 15.9397H0.5C0.5 24.7763 7.66344 31.9397 16.5 31.9397V29.9397ZM30.4145 17.4965C29.6408 24.4954 23.7055 29.9397 16.5 29.9397V31.9397C24.7363 31.9397 31.5179 25.7172 32.4024 17.7162L30.4145 17.4965ZM31.4085 16.6064H14.8333V18.6064H31.4085V16.6064ZM15.8333 17.6064V1.03125H13.8333V17.6064H15.8333ZM30.6464 9.9397H21.5V11.9397H30.6464V9.9397ZM22.5 10.9397V1.79353H20.5V10.9397H22.5ZM21.1668 2.73637C25.1439 4.14208 28.2977 7.29589 29.7035 11.273L31.5892 10.6064C29.982 6.05967 26.3801 2.45776 21.8332 0.850693L21.1668 2.73637Z" fill="#1C2D5E"/>
</svg>
