<svg width="18" height="20" viewBox="0 0 18 20" fill="none" xmlns="http://www.w3.org/2000/svg">
<path d="M13 9V10H14V9H13ZM5 9H4V10H5V9ZM10 13C10 12.4477 9.55229 12 9 12C8.44772 12 8 12.4477 8 13H10ZM8 15C8 15.5523 8.44772 16 9 16C9.55229 16 10 15.5523 10 15H8ZM3 10H15V8H3V10ZM16 11V17H18V11H16ZM15 18H3V20H15V18ZM2 17V11H0V17H2ZM3 18C2.44772 18 2 17.5523 2 17H0C0 18.6569 1.34315 20 3 20V18ZM16 17C16 17.5523 15.5523 18 15 18V20C16.6569 20 18 18.6569 18 17H16ZM15 10C15.5523 10 16 10.4477 16 11H18C18 9.34315 16.6569 8 15 8V10ZM3 8C1.34315 8 0 9.34315 0 11H2C2 10.4477 2.44772 10 3 10V8ZM12 5V9H14V5H12ZM13 8H5V10H13V8ZM6 9V5H4V9H6ZM9 2C10.6569 2 12 3.34315 12 5H14C14 2.23858 11.7614 0 9 0V2ZM9 0C6.23858 0 4 2.23858 4 5H6C6 3.34315 7.34315 2 9 2V0ZM8 13V15H10V13H8Z" fill="#1C2D5E"/>
</svg>
