<svg width="23" height="20" viewBox="0 0 23 20" fill="none" xmlns="http://www.w3.org/2000/svg">
<path d="M22.9906 1.75335C22.9906 1.57684 22.9438 1.40349 22.8551 1.2509C22.7664 1.09831 22.6389 0.971924 22.4855 0.884572C22.3321 0.79722 22.1584 0.752019 21.9819 0.75356C21.8054 0.755102 21.6325 0.803331 21.4806 0.893348C20.8951 1.24216 20.2645 1.5093 19.6066 1.68735C18.6676 0.881622 17.4699 0.440758 16.2326 0.445348C14.8754 0.446975 13.5718 0.97598 12.5973 1.92067C11.6228 2.86536 11.0535 4.15179 11.0096 5.50835C8.33342 5.08167 5.9079 3.68488 4.19562 1.58435C4.09245 1.45932 3.96075 1.3609 3.81161 1.29739C3.66248 1.23387 3.50026 1.2071 3.33862 1.21935C3.17702 1.23272 3.02111 1.28523 2.88434 1.37235C2.74757 1.45946 2.63407 1.57855 2.55362 1.71935C2.14115 2.43925 1.90426 3.24628 1.86222 4.0749C1.82017 4.90353 1.97414 5.73039 2.31162 6.48835L2.30962 6.48935C2.15761 6.58276 2.03215 6.71367 1.9453 6.86952C1.85844 7.02537 1.8131 7.20093 1.81362 7.37935C1.81202 7.52614 1.82104 7.67286 1.84062 7.81835C1.94275 9.0764 2.50026 10.254 3.40862 11.1303C3.34698 11.2479 3.3094 11.3765 3.29807 11.5087C3.28673 11.6409 3.30188 11.7741 3.34262 11.9003C3.7386 13.1345 4.58088 14.1765 5.70462 14.8223C4.56279 15.2638 3.32992 15.4176 2.11462 15.2703C1.8898 15.2424 1.66214 15.2916 1.46893 15.4099C1.27573 15.5283 1.12843 15.7087 1.05116 15.9217C0.973897 16.1346 0.971241 16.3675 1.04363 16.5822C1.11602 16.7969 1.25917 16.9806 1.44962 17.1033C3.53983 18.4494 5.9735 19.1649 8.45962 19.1643C11.2789 19.1961 14.0296 18.2952 16.2839 16.6019C18.5382 14.9086 20.1697 12.5178 20.9246 9.80135C21.2776 8.61811 21.4578 7.3901 21.4596 6.15535L21.4586 5.95535C21.9808 5.39215 22.3853 4.73038 22.6483 4.00882C22.9114 3.28727 23.0278 2.52046 22.9906 1.75335ZM19.6846 4.96535C19.5193 5.16056 19.4355 5.41197 19.4506 5.66735C19.4606 5.83235 19.4596 5.99835 19.4596 6.15535C19.4575 7.19853 19.3046 8.23592 19.0056 9.23535C18.3893 11.547 17.015 13.5849 15.1029 15.0227C13.1908 16.4605 10.8515 17.215 8.45962 17.1653C7.60075 17.1655 6.74486 17.0644 5.90962 16.8643C6.97493 16.5208 7.97098 15.9913 8.85162 15.3003C9.01401 15.1727 9.13288 14.9978 9.19189 14.7999C9.2509 14.6019 9.24716 14.3906 9.18118 14.1948C9.1152 13.9991 8.99022 13.8286 8.82341 13.7067C8.65661 13.5849 8.45616 13.5177 8.24962 13.5143C7.41835 13.5013 6.62459 13.1661 6.03562 12.5793C6.18496 12.5513 6.33329 12.5163 6.48062 12.4743C6.69665 12.4129 6.88571 12.2806 7.01736 12.0986C7.14901 11.9167 7.21557 11.6957 7.20633 11.4713C7.1971 11.2469 7.11259 11.0322 6.96643 10.8617C6.82027 10.6911 6.62097 10.5748 6.40062 10.5313C5.91812 10.436 5.46409 10.2307 5.07385 9.93137C4.68362 9.63202 4.36769 9.24669 4.15062 8.80535C4.33138 8.83005 4.51329 8.8454 4.69562 8.85135C4.91231 8.85491 5.12449 8.78937 5.30142 8.66423C5.47834 8.53909 5.61082 8.36085 5.67962 8.15535C5.74567 7.94811 5.74236 7.72499 5.67017 7.51981C5.59799 7.31463 5.46088 7.13858 5.27962 7.01835C4.83956 6.72541 4.47903 6.32789 4.23034 5.86139C3.98164 5.3949 3.85255 4.87399 3.85462 4.34535C3.85462 4.27935 3.85662 4.21235 3.86062 4.14735C6.10209 6.23798 9.00954 7.47037 12.0706 7.62735C12.2252 7.63322 12.3791 7.60385 12.5206 7.54148C12.6621 7.47912 12.7877 7.38537 12.8876 7.26735C12.9867 7.1486 13.0568 7.0085 13.0925 6.85806C13.1283 6.70763 13.1287 6.55095 13.0936 6.40035C13.0364 6.16156 13.0072 5.9169 13.0066 5.67135C13.0077 4.81608 13.3479 3.99615 13.9527 3.39139C14.5574 2.78663 15.3774 2.44641 16.2326 2.44535C16.6728 2.44405 17.1084 2.53402 17.512 2.70958C17.9156 2.88514 18.2785 3.14248 18.5776 3.46535C18.693 3.58947 18.8381 3.68201 18.9994 3.73417C19.1606 3.78634 19.3324 3.79638 19.4986 3.76335C19.9094 3.6835 20.3144 3.57592 20.7106 3.44135C20.4404 3.99417 20.0952 4.50702 19.6846 4.96535Z" fill="#4A75F7"/>
</svg>
