<svg width="11" height="20" viewBox="0 0 11 20" fill="none" xmlns="http://www.w3.org/2000/svg">
<path d="M9.92805 15.7071C10.3186 15.3166 10.3186 14.6834 9.92805 14.2929C9.53753 13.9024 8.90436 13.9024 8.51384 14.2929L9.92805 15.7071ZM5.22095 19L4.51384 19.7071C4.70138 19.8946 4.95573 20 5.22095 20C5.48616 20 5.74052 19.8946 5.92805 19.7071L5.22095 19ZM1.92805 14.2929C1.53753 13.9024 0.904365 13.9024 0.513841 14.2929C0.123316 14.6834 0.123316 15.3166 0.51384 15.7071L1.92805 14.2929ZM6.22095 1C6.22095 0.447715 5.77323 5.96046e-08 5.22095 0C4.66866 0 4.22095 0.447715 4.22095 1L6.22095 1ZM8.51384 14.2929L4.51384 18.2929L5.92805 19.7071L9.92805 15.7071L8.51384 14.2929ZM5.92805 18.2929L1.92805 14.2929L0.51384 15.7071L4.51384 19.7071L5.92805 18.2929ZM6.22095 19L6.22095 1L4.22095 1L4.22095 19H6.22095Z" fill="#4A75F7"/>
</svg>
