<svg width="20" height="21" viewBox="0 0 20 21" fill="currentColor" xmlns="http://www.w3.org/2000/svg">
<path d="M19.3009 9.16872L16.9654 7.587L17.5005 4.8141C17.602 4.29858 17.438 3.76743 17.067 3.3925C16.6921 3.02148 16.1609 2.85745 15.6532 2.95899L12.8842 3.49404L11.3064 1.15466C10.7167 0.283734 9.27944 0.283734 8.68971 1.15466L7.11189 3.49404L4.34681 2.95899C3.82738 2.86136 3.30014 3.02148 2.92912 3.39641C2.55809 3.77133 2.39406 4.29858 2.49561 4.8141L3.03066 7.587L0.695177 9.16872C0.257762 9.46553 0 9.95372 0 10.481C0 11.0082 0.261668 11.4964 0.695177 11.7893L3.03066 13.371L2.49561 16.1439C2.39406 16.6594 2.55809 17.1906 2.92912 17.5616C3.30014 17.9326 3.82347 18.0967 4.34681 17.9951L7.11189 17.4601L8.68971 19.7995C8.98262 20.2369 9.47471 20.4985 9.99805 20.4985C10.5214 20.4985 11.0135 20.2369 11.3064 19.8034L12.8842 17.464L15.6532 17.999C16.1765 18.1045 16.6999 17.9365 17.0709 17.5655C17.4419 17.1945 17.602 16.6633 17.5044 16.1478L16.9693 13.3749L19.3048 11.7932C19.7383 11.5003 20 11.0082 20 10.4849C19.9961 9.95372 19.7383 9.46553 19.3009 9.16872ZM14.8916 12.5118L15.579 16.0736L12.025 15.3863L9.99805 18.3896L7.9711 15.3823L4.42101 16.0697L5.10838 12.5079L2.10896 10.4771L5.10838 8.4462L4.42101 4.8844L7.97501 5.57176L9.99805 2.57235L12.025 5.57567L15.579 4.8883L14.8916 8.4462L17.891 10.4771L14.8916 12.5118ZM9.99805 6.43878C7.7602 6.43878 5.93634 8.26264 5.93634 10.5005C5.93634 12.7383 7.7602 14.5622 9.99805 14.5622C12.2359 14.5622 14.0598 12.7383 14.0598 10.5005C14.0598 8.26264 12.2359 6.43878 9.99805 6.43878ZM9.99805 12.6876C8.79125 12.6876 7.81098 11.7073 7.81098 10.5005C7.81098 9.29369 8.79125 8.31342 9.99805 8.31342C11.2048 8.31342 12.1851 9.29369 12.1851 10.5005C12.1851 11.7073 11.2048 12.6876 9.99805 12.6876Z" fill="currentColor"/>
</svg>
