<svg width="25" height="25" viewBox="0 0 25 25" fill="none" xmlns="http://www.w3.org/2000/svg">
<circle cx="12.0231" cy="12.2661" r="12" fill="#E1E9FE"/>
<path d="M8.64934 8.22567C8.25881 8.6162 8.25881 9.24936 8.64934 9.63989C9.03986 10.0304 9.67303 10.0304 10.0636 9.63989L8.64934 8.22567ZM12.0231 6.26611L12.7302 5.55901C12.3397 5.16848 11.7065 5.16848 11.316 5.55901L12.0231 6.26611ZM13.9827 9.63989C14.3732 10.0304 15.0064 10.0304 15.3969 9.63989C15.7874 9.24936 15.7874 8.6162 15.3969 8.22567L13.9827 9.63989ZM11.0231 18.2661C11.0231 18.8184 11.4708 19.2661 12.0231 19.2661C12.5754 19.2661 13.0231 18.8184 13.0231 18.2661H11.0231ZM10.0636 9.63989L12.7302 6.97322L11.316 5.55901L8.64934 8.22567L10.0636 9.63989ZM11.316 6.97322L13.9827 9.63989L15.3969 8.22567L12.7302 5.55901L11.316 6.97322ZM11.0231 6.26611L11.0231 18.2661H13.0231L13.0231 6.26611L11.0231 6.26611Z" fill="#4A75F7"/>
</svg>
