<svg width="16" height="17" viewBox="0 0 16 17" fill="none" xmlns="http://www.w3.org/2000/svg">
<path d="M11.0412 12.4397H15.0143C14.6806 8.03703 12.7851 5.3024 10.3538 3.68488L11.4608 1.2687C11.4942 1.19203 11.5081 1.10826 11.5012 1.02489C11.4944 0.941518 11.4669 0.861161 11.4213 0.791022C11.3757 0.720883 11.3134 0.663156 11.24 0.623016C11.1666 0.582876 11.0844 0.561579 11.0008 0.561035H4.07069C3.98704 0.561579 3.90483 0.582876 3.83143 0.623016C3.75804 0.663156 3.69576 0.720883 3.65016 0.791022C3.60457 0.861161 3.5771 0.941518 3.57022 1.02489C3.56333 1.10826 3.57724 1.19203 3.61071 1.2687L4.21728 2.58294H9.3327L8.87777 3.59389H7.94264C8.22823 4.36184 8.43816 5.15583 8.56943 5.96458C8.65446 6.46625 8.70848 6.97269 8.73118 7.48101L7.93253 8.04208C7.9347 7.38827 7.88058 6.73548 7.77078 6.09095C7.6311 5.23314 7.39016 4.39493 7.053 3.59389H6.54752C6.08104 4.18331 5.66187 4.80868 5.29394 5.46416C4.99728 6.02642 4.74545 6.61122 4.54078 7.2131L3.84828 6.75312C4.05042 6.17139 4.2989 5.60682 4.59133 5.06483C4.88681 4.55659 5.21084 4.06549 5.56184 3.59389H4.67726L4.7177 3.67982C2.03867 5.46416 0.00160417 8.59811 0.00160417 13.8298C-0.00522642 13.9398 0.00980191 14.05 0.0458209 14.1541C0.0818398 14.2583 0.138135 14.3542 0.211456 14.4365C0.284776 14.5187 0.373667 14.5856 0.472994 14.6333C0.572321 14.681 0.680114 14.7086 0.790147 14.7144H4.83396C4.66032 14.5337 4.54043 14.3082 4.48772 14.0632C4.43501 13.8181 4.45156 13.5633 4.53552 13.3272C4.61948 13.091 4.76753 12.8829 4.96308 12.7262C5.15864 12.5695 5.39397 12.4703 5.64272 12.4397C5.52167 12.2344 5.45714 12.0007 5.45569 11.7624C5.45569 11.4004 5.59948 11.0533 5.85543 10.7973C6.11138 10.5414 6.45852 10.3976 6.82048 10.3976H9.85334C10.2153 10.3976 10.5624 10.5414 10.8184 10.7973C11.0743 11.0533 11.2181 11.4004 11.2181 11.7624C11.2207 11.9999 11.1596 12.2338 11.0412 12.4397Z" fill="#828282"/>
<path d="M9.37816 13.7034C9.37816 13.5694 9.3249 13.4408 9.23011 13.346C9.13531 13.2512 9.00674 13.1979 8.87268 13.1979H5.83982C5.70576 13.1979 5.57719 13.2512 5.4824 13.346C5.3876 13.4408 5.33435 13.5694 5.33435 13.7034C5.33435 13.8375 5.3876 13.9661 5.4824 14.0608C5.57719 14.1556 5.70576 14.2089 5.83982 14.2089H8.87268C9.00674 14.2089 9.13531 14.1556 9.23011 14.0608C9.3249 13.9661 9.37816 13.8375 9.37816 13.7034Z" fill="#828282"/>
<path d="M9.85334 11.176H6.82049C6.68643 11.176 6.55786 11.2293 6.46306 11.3241C6.36827 11.4189 6.31501 11.5475 6.31501 11.6815C6.31501 11.8156 6.36827 11.9441 6.46306 12.0389C6.55786 12.1337 6.68643 12.187 6.82049 12.187H9.85334C9.9874 12.187 10.116 12.1337 10.2108 12.0389C10.3056 11.9441 10.3588 11.8156 10.3588 11.6815C10.3588 11.5475 10.3056 11.4189 10.2108 11.3241C10.116 11.2293 9.9874 11.176 9.85334 11.176Z" fill="#828282"/>
<path d="M9.58041 15.2198H6.54756C6.4135 15.2198 6.28493 15.2731 6.19013 15.3679C6.09534 15.4627 6.04208 15.5913 6.04208 15.7253C6.04208 15.8594 6.09534 15.988 6.19013 16.0828C6.28493 16.1775 6.4135 16.2308 6.54756 16.2308H9.58041C9.71448 16.2308 9.84305 16.1775 9.93784 16.0828C10.0326 15.988 10.0859 15.8594 10.0859 15.7253C10.0859 15.5913 10.0326 15.4627 9.93784 15.3679C9.84305 15.2731 9.71448 15.2198 9.58041 15.2198Z" fill="#828282"/>
<path d="M14.989 15.2198H11.4507C11.3167 15.2198 11.1881 15.2731 11.0933 15.3679C10.9985 15.4627 10.9452 15.5913 10.9452 15.7253C10.9452 15.8594 10.9985 15.988 11.0933 16.0828C11.1881 16.1775 11.3167 16.2308 11.4507 16.2308H14.989C15.1231 16.2308 15.2517 16.1775 15.3465 16.0828C15.4413 15.988 15.4945 15.8594 15.4945 15.7253C15.4945 15.5913 15.4413 15.4627 15.3465 15.3679C15.2517 15.2731 15.1231 15.2198 14.989 15.2198Z" fill="#828282"/>
<path d="M15.4945 13.1979H11.9562C11.8221 13.1979 11.6936 13.2512 11.5988 13.346C11.504 13.4408 11.4507 13.5694 11.4507 13.7034C11.4507 13.8375 11.504 13.9661 11.5988 14.0608C11.6936 14.1556 11.8221 14.2089 11.9562 14.2089H15.4945C15.6286 14.2089 15.7572 14.1556 15.8519 14.0608C15.9467 13.9661 16 13.8375 16 13.7034C16 13.5694 15.9467 13.4408 15.8519 13.346C15.7572 13.2512 15.6286 13.1979 15.4945 13.1979Z" fill="#828282"/>
</svg>
