<svg width="20" height="21" viewBox="0 0 20 21" fill="none" xmlns="http://www.w3.org/2000/svg">
<path d="M6.99963 10.5L8.99963 12.5L12.9996 8.5M5.83437 3.19705C6.55191 3.13979 7.23309 2.85763 7.78095 2.39075C9.05944 1.30123 10.9398 1.30123 12.2183 2.39075C12.7662 2.85763 13.4474 3.13979 14.1649 3.19705C15.8393 3.33067 17.169 4.66031 17.3026 6.33474C17.3598 7.05227 17.642 7.73346 18.1089 8.28132C19.1984 9.5598 19.1984 11.4402 18.1089 12.7187C17.642 13.2665 17.3598 13.9477 17.3026 14.6653C17.169 16.3397 15.8393 17.6693 14.1649 17.803C13.4474 17.8602 12.7662 18.1424 12.2183 18.6093C10.9398 19.6988 9.05944 19.6988 7.78095 18.6093C7.23309 18.1424 6.55191 17.8602 5.83437 17.803C4.15994 17.6693 2.8303 16.3397 2.69668 14.6653C2.63942 13.9477 2.35727 13.2665 1.89038 12.7187C0.800862 11.4402 0.800862 9.5598 1.89038 8.28132C2.35727 7.73346 2.63942 7.05227 2.69668 6.33474C2.8303 4.66031 4.15994 3.33067 5.83437 3.19705Z" stroke="currentColor" stroke-width="2" stroke-linecap="round" stroke-linejoin="round"/>
</svg>
