<svg width="16" height="12" viewBox="0 0 16 12" fill="none" xmlns="http://www.w3.org/2000/svg">
<path d="M7 1.34085C5.9428 0.825678 4.75516 0.536621 3.5 0.536621C2.24484 0.536621 1.0572 0.825678 0 1.34085V11.3409C1.0572 10.8257 2.24484 10.5366 3.5 10.5366C5.1686 10.5366 6.71789 11.0475 8 11.9213C9.28211 11.0475 10.8314 10.5366 12.5 10.5366C13.7552 10.5366 14.9428 10.8257 16 11.3409V1.34085C14.9428 0.825678 13.7552 0.536621 12.5 0.536621C11.2448 0.536621 10.0572 0.825678 9 1.34085V8.53662C9 9.08891 8.55229 9.53662 8 9.53662C7.44772 9.53662 7 9.08891 7 8.53662V1.34085Z" fill="#828282"/>
</svg>
