<svg width="37" height="37" viewBox="0 0 37 37" fill="none" xmlns="http://www.w3.org/2000/svg">
<path d="M36.9375 18.5312C36.9375 28.4724 28.8786 36.5312 18.9375 36.5312C8.99638 36.5312 0.9375 28.4724 0.9375 18.5312C0.9375 8.59013 8.99638 0.53125 18.9375 0.53125C28.8786 0.53125 36.9375 8.59013 36.9375 18.5312Z" fill="#E1E9FE"/>
<path d="M25.9375 27.5312L25.4903 28.4257C25.8003 28.5807 26.1684 28.5641 26.4632 28.3819C26.758 28.1997 26.9375 27.8778 26.9375 27.5312H25.9375ZM11.9375 27.5312H10.9375C10.9375 27.8778 11.117 28.1997 11.4118 28.3819C11.7066 28.5641 12.0747 28.5807 12.3847 28.4257L11.9375 27.5312ZM18.9375 24.0312L19.3847 23.1368C19.1032 22.9961 18.7718 22.9961 18.4903 23.1368L18.9375 24.0312ZM13.9375 10.5312H23.9375V8.53125H13.9375V10.5312ZM24.9375 11.5312V27.5312H26.9375V11.5312H24.9375ZM12.9375 27.5312V11.5312H10.9375V27.5312H12.9375ZM26.3847 26.6368L19.3847 23.1368L18.4903 24.9257L25.4903 28.4257L26.3847 26.6368ZM18.4903 23.1368L11.4903 26.6368L12.3847 28.4257L19.3847 24.9257L18.4903 23.1368ZM23.9375 10.5312C24.4898 10.5312 24.9375 10.979 24.9375 11.5312H26.9375C26.9375 9.8744 25.5944 8.53125 23.9375 8.53125V10.5312ZM13.9375 8.53125C12.2806 8.53125 10.9375 9.8744 10.9375 11.5312H12.9375C12.9375 10.979 13.3852 10.5312 13.9375 10.5312V8.53125Z" fill="#4A75F7"/>
</svg>
