<svg width="20" height="13" viewBox="0 0 20 13" fill="currentColor" xmlns="http://www.w3.org/2000/svg">
<path d="M16.225 2.49688L14.7375 1.00938C14.4083 0.683069 13.9635 0.499996 13.5 0.5H6.4125C5.95 0.5 5.50313 0.684375 5.175 1.00938L3.6875 2.49688H0V10.4875H2C2.55 10.4875 2.99375 10.0437 2.99688 9.49687H3.28125L5.925 11.8844C6.89062 12.6687 8.23125 12.6875 9.225 12.0031C9.61563 12.3406 10.0375 12.5 10.5094 12.5C11.0781 12.5 11.6125 12.2688 12.0344 11.75C12.725 12.0219 13.5406 11.8313 14.0344 11.225L14.8531 10.2156C15.0281 10 15.1375 9.75313 15.1938 9.49687H17.0031C17.0062 10.0437 17.4531 10.4875 18 10.4875H20V2.49688H16.225ZM1.5 9.4875C1.225 9.4875 1 9.2625 1 8.9875C1 8.7125 1.225 8.4875 1.5 8.4875C1.775 8.4875 2 8.7125 2 8.9875C2 9.26562 1.775 9.4875 1.5 9.4875ZM13.6875 9.27188L12.8719 10.2781C12.7844 10.3844 12.6281 10.4031 12.5188 10.3156L11.7719 9.70938L10.8344 10.85C10.6469 11.0781 10.3656 11 10.2719 10.925L9.12187 9.94063L8.63437 10.5406C8.2 11.075 7.40938 11.1562 6.90625 10.7469L3.86562 7.99687H3V3.99375H4.30937L6.2375 2.06875C6.3 2.04375 6.35313 2.02188 6.41563 1.99688H8.1875L6.97813 3.10625C6.05938 3.94687 6.00625 5.36562 6.84062 6.27187C7.30312 6.77812 8.75313 7.55938 10.0125 6.40938L10.2688 6.175L13.65 8.91875C13.7562 9.00625 13.7719 9.16563 13.6875 9.27188ZM17 7.99687H14.8375C14.7656 7.90937 14.6844 7.82813 14.5969 7.75625L11.3875 5.15L11.7781 4.79375C11.9812 4.60625 11.9969 4.29063 11.8094 4.0875L11.4688 3.72188C11.2812 3.51875 10.9656 3.50625 10.7625 3.69063L9.0375 5.27187C8.74063 5.54375 8.23438 5.56562 7.95625 5.27187C7.66563 4.9625 7.69063 4.4875 7.99375 4.2125L10.0437 2.33437C10.275 2.12187 10.575 2.00625 10.8875 2.00625L13.5031 2C13.5688 2 13.6313 2.025 13.675 2.07188L15.6031 3.99687H17V7.99687ZM18.5 9.4875C18.225 9.4875 18 9.2625 18 8.9875C18 8.7125 18.225 8.4875 18.5 8.4875C18.775 8.4875 19 8.7125 19 8.9875C19 9.26562 18.775 9.4875 18.5 9.4875Z" fill="currentColor"/>
</svg>
