<?xml version="1.0" encoding="UTF-8" standalone="no"?>
<svg
   xmlns:dc="http://purl.org/dc/elements/1.1/"
   xmlns:cc="http://creativecommons.org/ns#"
   xmlns:rdf="http://www.w3.org/1999/02/22-rdf-syntax-ns#"
   xmlns:svg="http://www.w3.org/2000/svg"
   xmlns="http://www.w3.org/2000/svg"
   xmlns:sodipodi="http://sodipodi.sourceforge.net/DTD/sodipodi-0.dtd"
   xmlns:inkscape="http://www.inkscape.org/namespaces/inkscape"
   width="16"
   height="19.835"
   viewBox="0 0 16 19.835"
   version="1.1"
   id="svg3807"
   sodipodi:docname="ux-bookmark-outline.svg"
   inkscape:version="0.92.3 (2405546, 2018-03-11)">
  <metadata
     id="metadata3811">
    <rdf:RDF>
      <cc:Work
         rdf:about="">
        <dc:format>image/svg+xml</dc:format>
        <dc:type
           rdf:resource="http://purl.org/dc/dcmitype/StillImage" />
        <dc:title></dc:title>
      </cc:Work>
    </rdf:RDF>
  </metadata>
  <sodipodi:namedview
     pagecolor="#ffffff"
     bordercolor="#666666"
     borderopacity="1"
     objecttolerance="10"
     gridtolerance="10"
     guidetolerance="10"
     inkscape:pageopacity="0"
     inkscape:pageshadow="2"
     inkscape:window-width="1920"
     inkscape:window-height="1025"
     id="namedview3809"
     showgrid="false"
     inkscape:zoom="40.937738"
     inkscape:cx="8"
     inkscape:cy="9.9174995"
     inkscape:window-x="1920"
     inkscape:window-y="25"
     inkscape:window-maximized="1"
     inkscape:current-layer="svg3807" />
  <defs
     id="defs3803" />
  <path
     class="a"
     d="M17,2.08H7a3,3,0,0,0-3,3V20.72a1.2,1.2,0,0,0,1.84,1L12,17.86l6.16,3.87a1.2,1.2,0,0,0,1.84-1V5.08A3,3,0,0,0,17,2.08Zm1,17.19L12.64,15.9a1.19,1.19,0,0,0-1.28,0L6,19.27V5.08a1,1,0,0,1,1-1H17a1,1,0,0,1,1,1Z"
     transform="translate(-4 -2.08)"
     id="path3805" />
  <path
     style="stroke-width:0.02442734"
     d="m 2.0055311,10.050609 c 0,-5.1367374 0.00756,-7.1430408 0.027259,-7.2365986 0.075548,-0.3587512 0.33336,-0.6469229 0.6724758,-0.7516651 0.1589442,-0.049093 0.2059519,-0.049533 5.2953159,-0.049533 4.6479122,0 5.1475322,0.00373 5.2676262,0.039307 0.377424,0.1118148 0.651397,0.4298366 0.708112,0.8219613 0.02338,0.1616293 0.03298,14.2836824 0.0097,14.2836824 -0.0073,0 -1.213734,-0.754848 -2.6809,-1.67744 C 9.8379623,14.557731 8.5880882,13.777206 8.5276305,13.745824 8.2605786,13.607203 7.8878328,13.588782 7.587263,13.699351 c -0.08935,0.03287 -1.2039012,0.719047 -2.8525428,1.756179 -1.4882417,0.936228 -2.7111353,1.702233 -2.7175415,1.702233 -0.00641,0 -0.011648,-3.198219 -0.011648,-7.107154 z"
     id="path3813"
     inkscape:connector-curvature="0" />
  <path
     style="stroke-width:0.02442734"
     d=""
     id="path3815"
     inkscape:connector-curvature="0" />
  <path
     style="stroke-width:0.02442734"
     d="M 0.99179651,19.796501 C 0.53886462,19.69651 0.20778907,19.401142 0.06020527,18.965386 0.01618265,18.835405 0.01470295,18.568104 0.01470295,10.745586 V 2.6601372 L 0.07104105,2.4052716 C 0.21220028,1.7666873 0.50143505,1.2569543 0.97290399,0.81587312 1.4388942,0.37991754 2.0293972,0.10580868 2.6555,0.03481959 2.829049,0.01514218 4.3803093,0.00981465 8.1612204,0.01591116 c 4.8791306,0.0078673 5.2765966,0.01156143 5.4350826,0.05051454 0.645043,0.15853936 1.155071,0.44447089 1.567741,0.87890569 0.390587,0.41118671 0.648475,0.91060531 0.764689,1.48087531 0.04878,0.2393539 0.04924,0.3169317 0.04924,8.3271473 0,7.866936 -0.0013,8.089563 -0.04628,8.234237 -0.1185,0.380742 -0.432845,0.677252 -0.845015,0.797073 -0.199712,0.05806 -0.509637,0.03967 -0.708762,-0.04205 -0.08057,-0.03307 -1.542475,-0.937803 -3.248669,-2.010524 -1.7061935,-1.072722 -3.1140583,-1.950403 -3.1285884,-1.950403 -0.01453,0 -1.4270869,0.877929 -3.1390149,1.950952 -2.0347504,1.275366 -3.1663534,1.970583 -3.2678349,2.007642 -0.1726876,0.06306 -0.4526038,0.0892 -0.60200929,0.05622 z M 4.7169657,15.49812 c 1.4173963,-0.890635 2.5880765,-1.630802 2.6015115,-1.644815 0.050886,-0.05308 -0.716892,0.418043 -2.3328108,1.431443 -0.6650343,0.417067 -1.59938,1.002716 -2.0763238,1.301442 l -0.8671705,0.543139 -0.016641,-3.839196 c -0.00915,-2.111558 -0.00915,-5.3453875 0,-7.1862889 L 2.0421721,2.7567507 2.121161,2.5963357 C 2.2175838,2.400515 2.4141445,2.2071119 2.6100432,2.1153071 l 0.1405217,-0.065853 2.2106742,-0.021648 c 1.2846029,-0.01258 3.4849052,-0.01258 5.2524599,0 l 3.041785,0.021648 0.160761,0.079176 c 0.200396,0.098696 0.365011,0.2705975 0.468668,0.4894112 l 0.0778,0.1642331 0.01261,3.6152461 0.01261,3.6152465 -3.96e-4,-3.6396738 -3.95e-4,-3.6396735 -0.07635,-0.1587777 C 13.814279,2.3739524 13.698559,2.2418067 13.531892,2.1419666 13.256201,1.9768171 13.647414,1.9871535 7.9396872,1.9942121 L 2.7749922,2.000599 2.634484,2.0573347 C 2.3612751,2.1676535 2.1309488,2.4096784 2.0345598,2.6877298 1.9962739,2.7981727 1.9928623,3.3230175 1.9869683,10.009215 l -0.00635,7.202514 0.079631,-0.04714 c 0.043797,-0.02593 1.239319,-0.775838 2.6567154,-1.666473 z m 9.2764133,-1.631941 -0.006,-3.340439 -0.01234,3.302501 -0.01235,3.3025 -1.172512,-0.734678 C 12.145319,15.991989 10.928015,15.229432 10.08508,14.701492 9.2421446,14.173551 8.4891719,13.716626 8.4118068,13.686102 c -0.1864133,-0.07355 -0.5874066,-0.08028 -0.7815937,-0.01311 -0.070376,0.02434 -0.1339407,0.05394 -0.1412555,0.06577 -0.00731,0.01184 0.048701,1.95e-4 0.1244795,-0.02588 0.3266632,-0.112389 0.6607332,-0.07895 0.9752618,0.09763 0.094045,0.0528 1.3471677,0.837549 2.7847161,1.743894 1.437549,0.906346 2.616474,1.648872 2.619833,1.650059 0.0034,0.0012 0.0034,-1.50104 1.22e-4,-3.338281 z m -6.5405514,-0.09332 c 0,-0.0067 -0.021985,-4.47e-4 -0.048855,0.01393 -0.02687,0.01438 -0.048855,0.03164 -0.048855,0.03836 0,0.0067 0.021985,4.47e-4 0.048855,-0.01393 0.02687,-0.01438 0.048855,-0.03164 0.048855,-0.03836 z"
     id="path3817"
     inkscape:connector-curvature="0" />
  <path
     style="stroke-width:0.02442734"
     d="M 0.96761745,19.793175 C 0.57409969,19.713161 0.22336153,19.403334 0.06977141,19.000055 L 0.01470295,18.855463 0.00750336,10.928791 C 0.00261994,5.5521978 0.00851279,2.9156767 0.02582074,2.7334192 0.09383763,2.0171829 0.38083002,1.4084304 0.89098935,0.898271 1.3274191,0.46184127 1.813958,0.1974986 2.4219539,0.06647869 2.6181541,0.02419865 2.8958409,0.0219846 8.0024427,0.0219846 c 5.0648763,0 5.3856283,0.0025062 5.5759163,0.04356759 1.226834,0.26473377 2.128953,1.18540711 2.361212,2.40977731 0.03443,0.1814848 0.0384,1.0378458 0.0384,8.2807355 0,8.908698 0.0127,8.184112 -0.148371,8.467949 -0.280205,0.493787 -0.939221,0.729168 -1.451685,0.5185 -0.08057,-0.03312 -1.432598,-0.867845 -3.004498,-1.854937 -2.9612232,-1.859533 -3.3614361,-2.109959 -3.3719906,-2.109959 -0.011253,0 -0.9567979,0.58932 -3.6508688,2.275441 -1.7378987,1.087687 -2.6962759,1.673498 -2.783716,1.701555 -0.1667918,0.05352 -0.4393879,0.07106 -0.59922215,0.03856 z M 4.558188,15.596139 c 1.3300686,-0.836241 2.4292988,-1.532241 2.4427338,-1.546666 0.013435,-0.01443 -0.019542,-6.43e-4 -0.073282,0.03063 -0.1046166,0.06087 -2.8112579,1.750612 -4.1037929,2.56197 l -0.7816748,0.490677 -0.01937,-4.011896 c -0.010654,-2.206543 -0.010654,-5.4408957 0,-7.1874504 L 2.0421721,2.7578465 2.108345,2.6166267 C 2.2008838,2.4191393 2.4107975,2.2064029 2.598832,2.1195439 l 0.1517329,-0.07009 2.2106742,-0.021629 c 1.2830901,-0.012554 3.4869896,-0.012554 5.2524659,0 l 3.041792,0.021629 0.160754,0.079176 c 0.20039,0.098697 0.365008,0.270604 0.468662,0.4894112 l 0.0778,0.1642331 0.01273,2.7358619 0.01273,2.735862 -5.15e-4,-2.7608152 -5.16e-4,-2.760815 -0.08127,-0.1650826 C 13.736236,2.2227459 13.479948,2.0499773 13.080144,2.0106521 12.930374,1.9959205 10.933057,1.9895255 7.807024,1.9937687 L 2.7749922,2.000599 2.6505577,2.0517665 C 2.3657205,2.1688912 2.1525174,2.3851358 2.047376,2.6635529 l -0.054059,0.1431483 -0.00731,7.2030828 -0.00731,7.203083 0.080596,-0.04814 c 0.044328,-0.02648 1.1688339,-0.732343 2.4989025,-1.568584 z m 9.435276,-0.410884 -0.0059,-1.996935 -0.01243,1.972377 -0.01243,1.972376 -2.186246,-1.37074 C 8.9788562,14.008278 8.5422886,13.739588 8.3932802,13.68012 8.2261776,13.61343 7.8153828,13.61021 7.6283434,13.67412 c -0.071404,0.0244 -0.1242135,0.04997 -0.1173538,0.05683 0.00686,0.0069 0.064049,-0.0051 0.1270866,-0.02658 0.2646292,-0.09017 0.5744925,-0.07365 0.8322668,0.04436 0.097867,0.04481 3.764927,2.335785 5.333593,3.332139 0.08733,0.05547 0.167022,0.100953 0.177098,0.101081 0.01008,1.22e-4 0.01567,-0.898389 0.01243,-1.996703 z m -6.8215508,-1.239245 0.048855,-0.03978 -0.048855,0.02399 c -0.02687,0.01319 -0.070839,0.04188 -0.097709,0.06376 l -0.048855,0.03978 0.048855,-0.02398 c 0.02687,-0.01319 0.070839,-0.04189 0.097709,-0.06376 z"
     id="path3819"
     inkscape:connector-curvature="0" />
  <path
     style="stroke-width:0.02442734"
     d="M 0.93686321,19.784852 C 0.72117889,19.735804 0.55272467,19.638125 0.3667333,19.454259 0.17950192,19.269168 0.06752189,19.058608 0.02854176,18.818348 -0.00616905,18.604402 -0.00695159,3.0266946 0.0277319,2.6967782 0.10068159,2.0028663 0.37335281,1.4288957 0.86965981,0.92452736 1.3887178,0.39703847 1.9587852,0.11374733 2.6614017,0.03413349 2.827073,0.01536117 4.4615661,0.00984436 8.1612204,0.01557024 c 5.8491706,0.0090526 5.3372256,-0.00581497 5.8342586,0.16943534 0.269795,0.0951281 0.405759,0.16354753 0.663414,0.3338417 0.662027,0.43756027 1.134036,1.15761002 1.281335,1.95467652 0.03355,0.1815386 0.03774,1.1017744 0.03774,8.2844012 0,7.962007 -7.01e-4,8.082449 -0.04798,8.235422 -0.118167,0.382354 -0.425332,0.670932 -0.842271,0.791305 -0.184349,0.05322 -0.507347,0.03847 -0.688977,-0.03146 -0.136502,-0.05256 -0.09159,-0.02478 -3.721506,-2.301393 -1.3636559,-0.855257 -2.521404,-1.580474 -2.5727735,-1.611593 -0.073132,-0.0443 -0.1049354,-0.05128 -0.146564,-0.03216 -0.029241,0.01343 -1.4491875,0.897239 -3.1554371,1.964022 -2.038565,1.274552 -3.147995,1.954301 -3.2356218,1.982469 -0.1856328,0.05967 -0.4458256,0.07219 -0.62997639,0.03032 z M 4.5093333,15.623883 c 2.0548114,-1.29183 2.5456055,-1.605704 2.3450245,-1.499698 -0.02687,0.0142 -1.1206042,0.696724 -2.4305202,1.516718 l -2.3816655,1.4909 -0.020741,-3.889287 c -0.011407,-2.139108 -0.011407,-5.3735051 0,-7.1875479 L 2.0421721,2.756708 2.1202126,2.598241 C 2.2166804,2.4023557 2.3869315,2.2277166 2.5795735,2.1270407 l 0.1465641,-0.076595 1.0748029,-0.01616 c 1.3564051,-0.020395 6.1094965,-0.020459 8.0243805,-1.08e-4 l 1.453427,0.015446 0.12912,0.067946 c 0.229891,0.1209735 0.403796,0.3109259 0.507913,0.5547809 0.04455,0.1043521 0.04759,0.2064833 0.05987,2.0152554 L 13.98859,6.5929387 13.987864,4.6626425 13.987139,2.7323461 13.90865,2.5729357 C 13.806902,2.3662858 13.63646,2.194651 13.442825,2.1038505 13.321974,2.0471804 13.236296,2.0274848 13.039774,2.0111983 12.90251,1.9998224 10.563821,1.9900358 7.8426904,1.9894501 2.4446684,1.9882884 2.7465324,1.9806963 2.5023558,2.1237633 2.3498913,2.2130946 2.1834343,2.3918323 2.0965527,2.5595054 L 2.0190946,2.7089919 2.0025381,3.4540257 C 1.993432,3.8637943 1.984884,7.1266565 1.9835426,10.704831 l -0.00244,6.505771 0.091602,-0.05622 c 0.050381,-0.03092 1.1468636,-0.719645 2.4366271,-1.5305 z m 9.4842777,0.391902 -0.0057,-1.166406 -0.01258,1.141912 -0.01258,1.141912 -1.23358,-0.772489 C 10.029202,14.669971 8.9681597,14.007574 8.7230492,13.859763 8.4631756,13.703048 8.3027563,13.638044 8.1878724,13.642902 c -0.041964,0.0018 -0.027702,0.0097 0.042324,0.02346 0.058089,0.01143 0.1658613,0.04837 0.2394939,0.08208 0.1135363,0.05198 2.5011537,1.54171 4.8456987,3.023429 0.356028,0.225005 0.655569,0.409375 0.665645,0.409711 0.01008,3.37e-4 0.01574,-0.524271 0.01258,-1.165794 z M 6.9771409,14.060208 c -0.00752,-0.0075 -0.027231,-1.5e-5 -0.043801,0.01668 -0.023945,0.02413 -0.021139,0.02693 0.013674,0.01367 0.024091,-0.0092 0.037648,-0.02283 0.030127,-0.03035 z m 0.638981,-0.348733 c 0.037821,-0.01455 0.1127346,-0.03626 0.1664748,-0.04824 0.09764,-0.02177 0.097627,-0.02177 -0.019129,-0.01054 -0.064261,0.0062 -0.1467035,0.02745 -0.183205,0.04726 -0.078778,0.04276 -0.060545,0.04861 0.035859,0.01151 z m 0.4538319,-0.08844 c -0.030044,-0.0058 -0.085006,-0.0059 -0.1221367,-3.32e-4 -0.037131,0.0056 -0.012549,0.01036 0.054626,0.01054 0.067175,1.95e-4 0.097555,-0.0044 0.067511,-0.01021 z"
     id="path3821"
     inkscape:connector-curvature="0" />
  <path
     style="stroke-width:0.02442734"
     d="m 2.891487,2.0203121 c 0.023767,-0.00619 0.056744,-0.00579 0.073282,9.052e-4 0.016538,0.00669 -0.00291,0.011759 -0.043213,0.011261 C 2.881251,2.0319805 2.86772,2.0265083 2.891487,2.0203121 Z"
     id="path3823"
     inkscape:connector-curvature="0" />
  <path
     style="stroke-width:0.02442734"
     d="m 2.9780445,2.0205534 c 0.017633,-0.00706 0.038702,-0.00619 0.046819,0.00193 0.00812,0.00812 -0.00631,0.01389 -0.032061,0.01283 -0.028456,-0.00117 -0.034245,-0.00696 -0.014758,-0.014758 z"
     id="path3825"
     inkscape:connector-curvature="0" />
  <path
     style="stroke-width:0.02442734"
     d="M 0.92517487,19.782359 C 0.70899949,19.729956 0.54280243,19.632944 0.36711246,19.456609 0.17434246,19.263132 0.06328886,19.051045 0.02675653,18.806608 0.00925075,18.689477 0.00350624,16.111864 0.00851945,10.62345 L 0.01583789,2.6112825 0.06778424,2.3914365 C 0.21277425,1.7778134 0.46120464,1.3274482 0.89098935,0.89909491 1.2560681,0.53523211 1.6248996,0.304667 2.0795629,0.15608994 c 0.4666651,-0.15249908 0.2173729,-0.146319 5.9022282,-0.146319 3.4045099,0 5.2469479,0.00862014 5.3830929,0.02518566 0.624159,0.07594445 1.203035,0.34644271 1.662397,0.77680808 0.441293,0.41343642 0.697185,0.84565192 0.884625,1.49417612 l 0.05295,0.183205 0.0069,8.1709452 c 0.0069,8.075438 0.0064,8.1728 -0.04128,8.329722 -0.118916,0.391562 -0.466097,0.710411 -0.878004,0.806354 -0.18966,0.04418 -0.495868,0.01978 -0.675563,-0.05382 -0.08004,-0.03278 -0.794075,-0.466542 -1.586742,-0.963906 -0.792667,-0.497364 -2.183193,-1.370193 -3.0900582,-1.939621 -0.906865,-0.569428 -1.67083,-1.035373 -1.6977001,-1.035433 -0.02687,-4.9e-5 -1.4429053,0.871476 -3.1467451,1.936748 -1.7038399,1.065273 -3.1458967,1.957437 -3.2045709,1.982587 -0.2253114,0.09658 -0.4854071,0.117947 -0.72595183,0.05964 z M 4.3434958,15.726846 c 1.2734939,-0.80044 2.3264356,-1.467491 2.3398706,-1.482336 0.013435,-0.01484 -0.00305,-0.01025 -0.036641,0.0102 -0.063897,0.03891 -2.7082617,1.692658 -3.9083742,2.444237 L 2.0421721,17.134934 2.0273783,15.015063 C 2.0080429,12.244396 2.0078476,7.149371 2.0269825,4.6876063 L 2.0421721,2.7334192 2.1243,2.5819946 C 2.2309331,2.3853883 2.3922061,2.2238316 2.5775842,2.127913 L 2.7261376,2.051048 4.0085728,2.030357 C 4.7139123,2.018977 7.0717611,2.013495 9.248237,2.018176 c 2.176476,0.00468 3.825321,0.00138 3.664101,-0.00733 C 12.496485,1.9883785 3.241807,1.9872684 2.9430812,2.009652 2.7432956,2.0246219 2.6694984,2.0415335 2.5581735,2.0978588 2.392361,2.1817523 2.183517,2.3940082 2.0877582,2.5759591 l -0.070013,0.1330328 -0.015322,1.514495 C 1.976698,6.7663408 1.9784302,17.18219 2.0045783,17.18219 c 0.012911,0 1.0654239,-0.654905 2.3389175,-1.455344 z m 9.6502472,0.618708 -0.0056,-0.836637 -0.01271,0.813004 -0.01271,0.813004 -0.891597,-0.558074 c -3.9687192,-2.484124 -4.4299218,-2.77061 -4.3847078,-2.723658 0.013435,0.01395 1.0192307,0.649762 2.2351018,1.412914 1.215871,0.763151 2.397543,1.505797 2.625939,1.650324 0.228395,0.144527 0.423509,0.263448 0.433585,0.264268 0.01008,8.21e-4 0.0158,-0.374995 0.01271,-0.835145 z M 8.6497672,13.823783 c 0,-0.02929 -0.299965,-0.159282 -0.3950878,-0.171218 -0.1045399,-0.01312 -0.1042993,-0.01287 0.022442,0.02331 0.070463,0.02011 0.1803863,0.06378 0.2442734,0.09703 0.1306366,0.068 0.1283722,0.0671 0.1283722,0.05088 z M 7.770383,13.664653 c 0.049092,-0.01572 0.051488,-0.0197 0.012214,-0.02027 -0.02687,-3.96e-4 -0.070839,0.0087 -0.097709,0.02027 -0.062246,0.02675 0.00197,0.02675 0.085496,0 z m 0.2620851,-0.03918 c -0.00812,-0.0081 -0.029186,-0.009 -0.046819,-0.0019 -0.019486,0.0078 -0.013698,0.01359 0.014758,0.01476 0.02575,0.0011 0.040178,-0.0047 0.032061,-0.01283 z m 5.9619179,-9.9393826 -0.0072,-0.9526662 -0.06892,-0.1404 c -0.09764,-0.1989071 -0.282731,-0.3919245 -0.461472,-0.4812423 -0.08204,-0.040995 -0.165371,-0.074537 -0.185183,-0.074537 -0.01981,0 0.04165,0.038857 0.136582,0.086349 0.203266,0.10169 0.382709,0.2841672 0.485645,0.4938569 l 0.06892,0.1404 0.01174,1.1725123 c 0.0065,0.6448818 0.01521,1.0680854 0.01946,0.9404526 0.0042,-0.1276329 0.0045,-0.6607596 4.76e-4,-1.184726 z"
     id="path3827"
     inkscape:connector-curvature="0" />
  <path
     style="stroke-width:0.02442734"
     d="M 0.95780171,19.793922 C 0.50736735,19.705462 0.08821931,19.260767 0.02505224,18.804322 0.01047466,18.698984 0.00443131,15.621563 0.00896289,10.611236 L 0.01622053,2.5868552 0.06837145,2.3792228 C 0.2188732,1.7800189 0.44904429,1.3531139 0.84267576,0.94309817 1.2891038,0.47808833 1.8321255,0.17972098 2.4574368,0.05585559 2.7118476,0.00546039 13.292331,0.00536803 13.547449,0.05575886 c 0.912726,0.18028161 1.704712,0.77641459 2.112579,1.59015254 0.141981,0.2832685 0.262685,0.651718 0.295335,0.9015137 0.01583,0.1211063 0.02188,3.0110322 0.01735,8.2836569 l -0.007,8.097663 -0.05665,0.140287 c -0.122007,0.302122 -0.398541,0.570114 -0.707526,0.685673 -0.188915,0.07065 -0.59146,0.07472 -0.783241,0.0079 -0.07206,-0.0251 -0.794953,-0.461838 -1.612204,-0.974015 -4.0007309,-2.507285 -4.6626959,-2.920891 -4.7325923,-2.956995 -0.093954,-0.04853 0.2206649,-0.235987 -3.4435226,2.05172 -1.5710995,0.980904 -2.8932176,1.802293 -2.9380399,1.82531 -0.1806754,0.09278 -0.5044652,0.13039 -0.73417449,0.08528 z M 2.4374455,16.921878 c 2.1506205,-1.347703 3.7620002,-2.363695 3.7818015,-2.384464 0.037339,-0.03917 -0.030481,0.0028 -2.1740331,1.34464 l -2.0030418,1.253899 -0.00714,-0.263903 c -0.00393,-0.145146 -0.015835,-2.517324 -0.026465,-5.271507 l -0.019327,-5.0076043 -0.00374,5.2396643 c -0.00205,2.881815 0.00282,5.264134 0.010841,5.294042 0.017478,0.0652 -0.01025,0.07807 0.4410982,-0.204767 z M 13.961085,17.13657 c -0.01254,-0.01121 -0.226157,-0.146358 -0.474705,-0.300334 -0.248548,-0.153976 -1.347778,-0.840639 -2.442734,-1.525918 -2.1148004,-1.32355 -2.0774998,-1.300494 -2.0396824,-1.26075 0.013435,0.01412 0.8378577,0.536371 1.8320504,1.160559 0.994193,0.624187 2.104415,1.321893 2.467161,1.550458 0.362746,0.228564 0.664302,0.411249 0.670123,0.405967 0.0058,-0.0053 3.25e-4,-0.01877 -0.01221,-0.02998 z m 0.03208,-0.876512 c -0.0043,-0.157862 -0.0077,-0.0287 -0.0077,0.287021 0,0.315724 0.0035,0.444883 0.0077,0.287022 0.0043,-0.157862 0.0043,-0.416181 0,-0.574043 z m -7.5662896,-1.85209 c 0,-0.0067 -0.021985,-4.47e-4 -0.048855,0.01393 -0.02687,0.01438 -0.048855,0.03164 -0.048855,0.03836 0,0.0067 0.021985,4.47e-4 0.048855,-0.01393 0.02687,-0.01438 0.048855,-0.03164 0.048855,-0.03836 z m 2.5404432,-0.388259 c 0,-0.0062 -0.024733,-0.02334 -0.054961,-0.03799 -0.052778,-0.02558 -0.053078,-0.02513 -0.00754,0.01135 0.049838,0.03993 0.062506,0.04533 0.062506,0.02663 z M 8.6497672,13.822394 c 0,-0.01998 -0.2999005,-0.157785 -0.3419827,-0.157142 -0.020153,3.08e-4 0.023817,0.02556 0.097709,0.05611 0.073893,0.03055 0.156335,0.06843 0.1832051,0.08417 0.056959,0.03337 0.061068,0.0345 0.061068,0.01686 z M 7.7149127,13.674322 c -0.00812,-0.0081 -0.029186,-0.009 -0.046819,-0.0019 -0.019486,0.0078 -0.013698,0.01359 0.014758,0.01476 0.02575,0.0011 0.040178,-0.0047 0.032061,-0.01283 z m 0.5374014,-0.02443 c -0.00812,-0.0081 -0.029186,-0.009 -0.046819,-0.0019 -0.019486,0.0078 -0.013698,0.01359 0.014758,0.01476 0.02575,0.0011 0.040178,-0.0047 0.032061,-0.01283 z M 2.0238391,3.5578419 c -0.00374,-0.4265624 -0.00681,-0.077557 -0.00681,0.775568 0,0.8531248 0.00306,1.2021304 0.00681,0.775568 0.00374,-0.4265624 0.00374,-1.1245736 0,-1.551136 z M 13.993206,3.2647138 c -0.004,-0.2250368 -0.0073,-0.040916 -0.0073,0.409158 0,0.4500737 0.0033,0.6341947 0.0073,0.4091579 0.004,-0.2250369 0.004,-0.593279 0,-0.8183159 z m -0.09205,-0.6910433 c -0.12745,-0.2524777 -0.36387,-0.463483 -0.585766,-0.5227982 -0.03359,-0.00898 0.01016,0.022909 0.09722,0.070862 0.08706,0.047952 0.210024,0.1381439 0.273256,0.2004255 0.110998,0.1093281 0.261118,0.3687789 0.267961,0.4631117 0.0027,0.037397 0.0052,0.036109 0.01364,-0.00699 0.0057,-0.029063 -0.02417,-0.1211403 -0.06631,-0.2046154 z M 2.3220454,2.3139611 c 0.066726,-0.066726 0.1849438,-0.1533104 0.262706,-0.1924097 l 0.1413862,-0.07109 1.1602986,-0.019882 c 0.6381642,-0.010935 2.9025785,-0.016658 5.0320317,-0.012718 2.1294531,0.00394 3.7398261,4.106e-4 3.5786051,-0.00784 -0.419575,-0.021483 -8.8290243,-0.02142 -9.3556707,7.08e-5 -0.4154785,0.016954 -0.4469795,0.021695 -0.572023,0.086098 C 2.4965973,2.1336762 2.3798046,2.2184854 2.3098399,2.2846551 2.1842788,2.4034047 2.0299584,2.6511734 2.0299584,2.734017 c 0,0.023436 0.038423,-0.034191 0.085384,-0.1280608 0.046961,-0.093869 0.1399775,-0.2252656 0.2067035,-0.2919916 z"
     id="path3829"
     inkscape:connector-curvature="0" />
  <path
     style="stroke-width:0.02442734"
     d="M 0.9551555,19.793681 C 0.5113483,19.707647 0.09484795,19.269384 0.02498324,18.814906 0.00977834,18.715996 0.00375603,15.751995 0.00831488,10.611236 L 0.0154526,2.5624278 0.06828383,2.3670091 C 0.2348306,1.7509653 0.45402048,1.3479306 0.84267576,0.94309817 1.3266,0.43903146 1.9532655,0.11659553 2.6040009,0.03684999 2.907374,-3.2742209e-4 13.047605,-0.00123682 13.380503,0.03588353 c 0.613102,0.06836498 1.212453,0.35698639 1.686615,0.81220128 0.413624,0.39709539 0.669186,0.83338379 0.839652,1.43342859 l 0.05898,0.2076324 v 8.2320132 8.232013 l -0.06819,0.145619 c -0.140264,0.299546 -0.376548,0.526377 -0.679036,0.651869 -0.178942,0.07424 -0.603306,0.08055 -0.80038,0.0119 -0.07366,-0.02566 -0.948834,-0.557965 -2.003042,-1.218314 -2.114742,-1.324659 -4.1490719,-2.596458 -4.2812001,-2.676471 -0.048608,-0.02943 -0.1065051,-0.05352 -0.1286595,-0.05352 -0.056827,0 -0.5226459,0.28685 -4.2653783,2.626612 -0.9203,0.575324 -1.7705813,1.103951 -1.8895141,1.174728 -0.3087829,0.183755 -0.5837605,0.238456 -0.8952025,0.178082 z m 2.845785,-3.729754 c 0.8867124,-0.556087 1.6231966,-1.022738 1.6366317,-1.037002 0.035641,-0.03784 0.098772,-0.07684 -1.7192057,1.061909 -0.9186931,0.57545 -1.6740903,1.042534 -1.6786607,1.037964 -0.00457,-0.0046 -0.017809,-1.804959 -0.029419,-4.000863 l -0.021109,-3.992553 -0.00404,3.800805 c -0.00222,2.090443 0.0031,3.90131 0.011816,4.024147 l 0.015853,0.223342 0.087963,-0.05334 c 0.04838,-0.02934 0.8134549,-0.508322 1.7001673,-1.064408 z m 10.1366745,1.060649 c -0.04206,-0.02897 -4.1503064,-2.60102 -4.3107542,-2.698835 -0.033588,-0.02048 -0.050076,-0.02528 -0.036641,-0.01067 0.036956,0.04018 4.3444822,2.742407 4.3718222,2.742559 0.01306,7.3e-5 0.0021,-0.0148 -0.02443,-0.03305 z m -8.3290515,-2.201472 0.048855,-0.03978 -0.048855,0.02399 c -0.02687,0.01319 -0.070839,0.04188 -0.097709,0.06376 l -0.048855,0.03978 0.048855,-0.02398 c 0.02687,-0.01319 0.070839,-0.04189 0.097709,-0.06376 z m 0.1954187,-0.122137 0.048855,-0.03978 -0.048855,0.02398 c -0.02687,0.01319 -0.070839,0.04189 -0.097709,0.06376 l -0.048855,0.03978 0.048855,-0.02398 c 0.02687,-0.01319 0.070839,-0.04189 0.097709,-0.06376 z M 6.036042,14.652242 c 0,-0.0067 -0.021985,-4.47e-4 -0.048855,0.01393 -0.02687,0.01438 -0.048855,0.03164 -0.048855,0.03836 0,0.0067 0.021985,4.47e-4 0.048855,-0.01393 0.02687,-0.01438 0.048855,-0.03164 0.048855,-0.03836 z m 0.3908374,-0.244274 c 0,-0.0067 -0.021985,-4.47e-4 -0.048855,0.01393 -0.02687,0.01438 -0.048855,0.03164 -0.048855,0.03836 0,0.0067 0.021985,4.47e-4 0.048855,-0.01393 0.02687,-0.01438 0.048855,-0.03164 0.048855,-0.03836 z m 3.0900583,-0.0497 c -0.06257,-0.04823 -0.1343503,-0.08775 -0.1343503,-0.07397 0,0.01242 0.1528621,0.112535 0.1709913,0.111993 0.00672,-1.95e-4 -0.00977,-0.01731 -0.036641,-0.03802 z M 9.321519,14.236129 c -0.06257,-0.04823 -0.1343503,-0.08775 -0.1343503,-0.07397 0,0.01242 0.1528621,0.112536 0.1709913,0.111993 0.00672,-1.95e-4 -0.00977,-0.01731 -0.036641,-0.03802 z M 8.6009125,13.7995 c 0,-0.01481 -0.1868254,-0.1108 -0.212766,-0.109315 -0.010611,6.05e-4 0.030172,0.02759 0.090629,0.05996 0.1231502,0.06594 0.1221367,0.06553 0.1221367,0.04935 z M 2.0238077,3.7899016 c -0.00405,-0.2183193 -0.00736,-0.039694 -0.00736,0.3969443 0,0.4366386 0.00331,0.6152636 0.00736,0.3969442 0.00405,-0.2183193 0.00405,-0.5755691 0,-0.7938885 z M 13.912384,2.5949348 c -0.123332,-0.2456912 -0.36102,-0.4712801 -0.54814,-0.5202371 -0.03359,-0.00879 -6.11e-4,0.018151 0.07328,0.059865 0.234881,0.1325931 0.44868,0.3866916 0.50388,0.5988567 0.01217,0.046765 0.02219,0.058527 0.0277,0.032507 0.0048,-0.022426 -0.02078,-0.099372 -0.05673,-0.1709913 z M 2.3319034,2.3018782 C 2.3983268,2.2364944 2.5196987,2.1504837 2.601619,2.1107434 2.6835392,2.0710032 2.7364591,2.0382075 2.7192188,2.0378642 2.657634,2.0366379 2.4531801,2.1569825 2.3341986,2.2644929 2.2128634,2.3741299 2.0726999,2.582417 2.0432991,2.6967782 2.0346642,2.7303658 2.0688945,2.6820016 2.1193665,2.5893023 2.1698385,2.496603 2.2654801,2.3672621 2.3319034,2.3018782 Z m 9.4689906,-0.298541 c 0.116169,-0.014518 -7.5142323,-0.00842 -8.2686543,0.00661 -0.4164861,0.0083 1.25984,0.011921 3.7251692,0.00806 2.4653292,-0.00387 4.5098971,-0.010463 4.5434851,-0.014661 z"
     id="path3831"
     inkscape:connector-curvature="0" />
  <path
     style="stroke-width:0.02442734"
     d=""
     id="path3833"
     inkscape:connector-curvature="0" />
  <path
     style="stroke-width:0.02442734"
     d="M 0.90904465,19.783388 C 0.45712735,19.656172 0.09290023,19.257148 0.02501919,18.814906 0.00985875,18.716136 0.00390213,15.740287 0.00857384,10.599022 L 0.01589864,2.5380005 0.07839534,2.3181544 C 0.25926791,1.681895 0.49802042,1.2726873 0.93447197,0.85089 1.1974864,0.59670654 1.4021192,0.45348863 1.715778,0.30407168 2.0186193,0.15980782 2.3058898,0.07338255 2.6040009,0.03684999 2.907374,-3.2742209e-4 13.047605,-0.00123682 13.380503,0.03588353 c 0.613009,0.06835456 1.198084,0.3478227 1.671653,0.79848462 0.428592,0.40786055 0.694839,0.85765075 0.856617,1.44714525 l 0.05698,0.2076324 v 8.2332792 8.233279 l -0.09372,0.189634 c -0.304702,0.616527 -1.054546,0.861341 -1.634914,0.533778 C 14.118356,19.612086 13.459465,19.200617 9.5545878,16.754933 8.7423231,16.246199 8.0550243,15.82562 8.027257,15.820312 7.962688,15.807972 7.8286464,15.889582 4.4871047,17.975863 2.98359,18.914576 1.6884299,19.708874 1.6089713,19.740969 c -0.1876747,0.0758 -0.511592,0.09544 -0.69992665,0.04242 z M 3.116975,16.49158 c 0.5777065,-0.36156 1.0613678,-0.668977 1.0748029,-0.683149 0.034522,-0.03641 0.067499,-0.05661 -1.0964265,0.671301 -0.5761642,0.360327 -1.0510517,0.65166 -1.0553053,0.647406 -0.00425,-0.0043 -0.017432,-1.392377 -0.029287,-3.08472 l -0.021553,-3.076986 -0.004,2.467162 c -0.00436,2.689394 0.01131,3.757537 0.054756,3.732016 0.014651,-0.0086 0.499307,-0.311469 1.0770129,-0.67303 z m 10.855917,0.657122 c -0.0092,-0.0082 -2.759914,-1.730842 -2.904818,-1.819159 -0.03359,-0.02047 -0.05008,-0.02526 -0.03664,-0.01064 0.01343,0.01462 0.650988,0.419072 1.416785,0.898783 0.765797,0.479711 1.414343,0.886897 1.441213,0.904858 0.04313,0.02883 0.110008,0.04979 0.08346,0.02616 z m -9.6101227,-1.443924 0.048855,-0.03978 -0.048855,0.02399 c -0.02687,0.01319 -0.070839,0.04188 -0.097709,0.06376 l -0.048855,0.03978 0.048855,-0.02398 c 0.02687,-0.01319 0.070839,-0.04189 0.097709,-0.06376 z m 0.1954187,-0.122136 0.048855,-0.03978 -0.048855,0.02398 c -0.02687,0.01319 -0.070839,0.04189 -0.097709,0.06376 l -0.048855,0.03978 0.048855,-0.02398 c 0.02687,-0.01319 0.070839,-0.04188 0.097709,-0.06376 z m 0.1954187,-0.122137 0.048855,-0.03978 -0.048855,0.02399 c -0.02687,0.01319 -0.070839,0.04188 -0.097709,0.06376 l -0.048855,0.03978 0.048855,-0.02398 c 0.02687,-0.01319 0.070839,-0.04189 0.097709,-0.06376 z m 0.1954187,-0.122137 0.048855,-0.03978 -0.048855,0.02398 c -0.02687,0.01319 -0.070839,0.04188 -0.097709,0.06376 l -0.048855,0.03978 0.048855,-0.02398 c 0.02687,-0.01319 0.070839,-0.04189 0.097709,-0.06376 z m 6.0091256,-0.07629 c -0.06257,-0.04823 -0.134351,-0.08775 -0.134351,-0.07397 0,0.01242 0.152862,0.112535 0.170992,0.111993 0.0067,-1.96e-4 -0.0098,-0.01731 -0.03664,-0.03802 z m -5.7770659,-0.07243 c 0,-0.0067 -0.021985,-4.47e-4 -0.048855,0.01393 -0.02687,0.01438 -0.048855,0.03164 -0.048855,0.03836 0,0.0067 0.021985,4.47e-4 0.048855,-0.01393 0.02687,-0.01438 0.048855,-0.03164 0.048855,-0.03836 z m 5.6182879,-0.02052 c 0,-0.0088 -0.242916,-0.16622 -0.341983,-0.221599 -0.09178,-0.05131 0.01814,0.03231 0.166059,0.12631 0.17154,0.109018 0.175924,0.111393 0.175924,0.09529 z M 5.5719225,14.94537 c 0,-0.0067 -0.021985,-4.47e-4 -0.048855,0.01393 -0.02687,0.01438 -0.048855,0.03164 -0.048855,0.03836 0,0.0067 0.021985,4.47e-4 0.048855,-0.01393 0.02687,-0.01438 0.048855,-0.03164 0.048855,-0.03836 z m 4.7893715,-0.05728 c -0.07382,-0.05674 -0.218087,-0.140007 -0.184818,-0.106671 0.03277,0.03284 0.21569,0.153598 0.231623,0.152914 0.007,-2.98e-4 -0.01411,-0.02111 -0.04681,-0.04624 z m -0.2581,-0.163413 c -0.06257,-0.04823 -0.1343505,-0.08775 -0.1343505,-0.07397 0,0.01242 0.1528625,0.112535 0.1709915,0.111993 0.0067,-1.95e-4 -0.0098,-0.01731 -0.03664,-0.03802 z m -4.067152,-0.07243 c 0,-0.0067 -0.021985,-4.47e-4 -0.048855,0.01393 -0.02687,0.01438 -0.048855,0.03164 -0.048855,0.03836 0,0.0067 0.021985,4.47e-4 0.048855,-0.01393 0.02687,-0.01438 0.048855,-0.03164 0.048855,-0.03836 z m 3.8717332,-0.0497 c -0.06257,-0.04823 -0.1343504,-0.08775 -0.1343504,-0.07397 0,0.01242 0.1528621,0.112536 0.1709914,0.111993 0.00672,-1.95e-4 -0.00977,-0.01731 -0.036641,-0.03802 z M 9.5169377,14.358266 c -0.06257,-0.04823 -0.1343503,-0.08775 -0.1343503,-0.07397 0,0.01242 0.1528621,0.112535 0.1709913,0.111993 0.00672,-1.95e-4 -0.00977,-0.01731 -0.036641,-0.03802 z M 2.0230272,4.1196707 c -0.0056,-0.036946 -0.010176,-0.00672 -0.010176,0.067175 0,0.073893 0.00458,0.1041215 0.010176,0.067175 0.0056,-0.036946 0.0056,-0.097404 0,-0.13435 z M 13.928415,2.6353168 c -0.07798,-0.1762779 -0.213212,-0.3446864 -0.362821,-0.4518192 -0.07481,-0.053572 -0.147826,-0.097403 -0.162253,-0.097403 -0.01443,0 0.02942,0.037475 0.09743,0.083277 0.171324,0.1153762 0.337011,0.3070403 0.402947,0.4661212 0.03054,0.073683 0.05997,0.1295208 0.06541,0.1240847 0.0054,-0.00544 -0.01288,-0.061353 -0.04071,-0.1242604 z M 2.3130412,2.3172276 C 2.3688661,2.259788 2.4736581,2.1788921 2.5459119,2.1374589 2.618166,2.0960257 2.6652468,2.0620227 2.6505359,2.0618966 2.5939817,2.061412 2.32785,2.2553047 2.2447678,2.3575226 2.1332987,2.4946657 2.0544143,2.6256245 2.055128,2.6723509 c 3.078e-4,0.020153 0.035627,-0.028008 0.078487,-0.1070233 0.04286,-0.079015 0.1236018,-0.1906604 0.1794262,-0.2481 z M 9.5596856,1.9944959 c -0.7960259,-0.00357 -2.0986138,-0.00357 -2.8946397,0 -0.7960259,0.00357 -0.1447319,0.0065 1.4473199,0.0065 1.5920518,0 2.2433452,-0.00292 1.4473198,-0.0065 z"
     id="path3835"
     inkscape:connector-curvature="0" />
  <path
     style="stroke-width:0.02442734"
     d="M 0.90904465,19.783388 C 0.45711799,19.656169 0.09285964,19.257103 0.02503734,18.814906 0.00991003,18.716277 0.00372141,15.728536 0.00799415,10.586809 L 0.01470295,2.5135732 0.0955921,2.2448724 C 0.19063275,1.9291627 0.34635992,1.5892705 0.50596048,1.349197 0.65888275,1.1191691 0.99623029,0.76751531 1.2360699,0.58812514 1.6087899,0.30934586 2.145551,0.09303155 2.6040009,0.03684999 2.907374,-3.2742209e-4 13.047605,-0.00123682 13.380503,0.03588353 c 0.318175,0.03547857 0.603241,0.12125459 0.927333,0.27903257 0.59688,0.29058047 1.104467,0.7991203 1.389946,1.3925549 0.107382,0.2232188 0.225439,0.5871081 0.256523,0.7906851 0.01642,0.1075421 0.0225,2.9003063 0.01809,8.3097669 l -0.0066,8.147786 -0.09372,0.189632 c -0.156718,0.317096 -0.439088,0.553426 -0.761611,0.637432 -0.265133,0.06906 -0.601749,0.03934 -0.81794,-0.07222 -0.09611,-0.04959 -1.214145,-0.746232 -4.116006,-2.56465 C 9.0882379,16.463972 8.1515511,15.883387 8.0949496,15.855715 l -0.1029119,-0.05031 -0.3856349,0.232923 c -0.2120992,0.128108 -1.3804383,0.853624 -2.5963091,1.612258 -1.2158708,0.758634 -2.4470086,1.526567 -2.7358619,1.706518 -0.2888533,0.179951 -0.5892099,0.353067 -0.6674592,0.384702 -0.1853943,0.07495 -0.5103843,0.09432 -0.69772795,0.04158 z M 2.2912749,17.008172 c 0.1316942,-0.08227 0.2504363,-0.160979 0.2638713,-0.1749 0.02856,-0.02959 -0.1024759,0.04651 -0.3384545,0.196562 -0.092105,0.05857 -0.1710854,0.102864 -0.1755126,0.09844 -0.00443,-0.0044 -0.018766,-1.134558 -0.031865,-2.511402 l -0.023815,-2.503352 0.00742,2.495822 c 0.00662,2.228537 0.012825,2.548424 0.049421,2.548424 0.00522,0 0.1172444,-0.06732 0.2489386,-0.149591 z m 11.6816171,0.140494 c -0.0079,-0.007 -1.133799,-0.711237 -1.463605,-0.915405 -0.03359,-0.02079 -0.05218,-0.02739 -0.04131,-0.01466 0.02797,0.03276 1.465547,0.935764 1.492703,0.937628 0.01232,8.45e-4 0.01781,-0.0026 0.01221,-0.0076 z m -11.2467544,-0.417939 0.048855,-0.03978 -0.048855,0.02398 c -0.02687,0.01319 -0.070839,0.04189 -0.097709,0.06376 l -0.048855,0.03978 0.048855,-0.02398 c 0.02687,-0.01319 0.070839,-0.04189 0.097709,-0.06376 z m 0.1954187,-0.122137 0.048855,-0.03978 -0.048855,0.02398 c -0.02687,0.01319 -0.070839,0.04189 -0.097709,0.06376 l -0.048855,0.03978 0.048855,-0.02398 c 0.02687,-0.01319 0.070839,-0.04189 0.097709,-0.06376 z m 0.1954187,-0.122137 0.048855,-0.03978 -0.048855,0.02398 c -0.02687,0.01319 -0.070839,0.04189 -0.097709,0.06376 l -0.048855,0.03978 0.048855,-0.02398 c 0.02687,-0.01319 0.070839,-0.04189 0.097709,-0.06376 z m 0.2992349,-0.182256 c 0.070534,-0.04337 0.1282435,-0.08407 0.1282435,-0.09042 0,-0.01327 -0.00771,-0.0089 -0.2137392,0.120003 -0.083969,0.05255 -0.1526709,0.101321 -0.1526709,0.108379 0,0.0071 0.024733,-0.0034 0.054961,-0.02313 0.030229,-0.01978 0.1126711,-0.07145 0.1832051,-0.114827 z m 0.349703,-0.225887 0.059455,-0.04828 -0.074895,0.04129 c -0.041193,0.02271 -0.1016503,0.06302 -0.1343504,0.08957 l -0.059455,0.04828 0.074895,-0.04129 c 0.041193,-0.02271 0.1016502,-0.06302 0.1343504,-0.08957 z m 8.6334511,0.08758 c -0.06257,-0.04822 -0.134351,-0.08775 -0.134351,-0.07397 0,0.01242 0.152862,0.112535 0.170992,0.111993 0.0067,-1.95e-4 -0.0098,-0.01731 -0.03664,-0.03802 z m -0.195419,-0.122137 c -0.06257,-0.04823 -0.13435,-0.08775 -0.13435,-0.07397 0,0.01242 0.152862,0.112536 0.170991,0.111993 0.0067,-1.95e-4 -0.0098,-0.01731 -0.03664,-0.03802 z m -8.2320132,-0.0947 0.048855,-0.03978 -0.048855,0.02398 c -0.02687,0.01319 -0.070839,0.04189 -0.097709,0.06376 l -0.048855,0.03978 0.048855,-0.02398 c 0.02687,-0.01319 0.070839,-0.04189 0.097709,-0.06376 z m 8.0732352,0.0017 c 0,-0.0086 -0.182928,-0.12786 -0.390837,-0.254785 -0.146899,-0.08968 0.0065,0.02722 0.183205,0.139637 0.202794,0.128996 0.207632,0.13168 0.207632,0.115148 z M 4.1307095,15.84918 c 0,-0.0067 -0.021985,-4.47e-4 -0.048855,0.01393 -0.02687,0.01438 -0.048855,0.03164 -0.048855,0.03836 0,0.0067 0.021985,4.47e-4 0.048855,-0.01393 0.02687,-0.01438 0.048855,-0.03164 0.048855,-0.03836 z m 0.2320598,-0.144402 0.048855,-0.03978 -0.048855,0.02398 c -0.02687,0.01319 -0.070839,0.04189 -0.097709,0.06376 l -0.048855,0.03978 0.048855,-0.02398 c 0.02687,-0.01319 0.070839,-0.04189 0.097709,-0.06376 z m 0.1954187,-0.122137 0.048855,-0.03978 -0.048855,0.02398 c -0.02687,0.01319 -0.070839,0.04189 -0.097709,0.06376 l -0.048855,0.03978 0.048855,-0.02398 c 0.02687,-0.01319 0.070839,-0.04189 0.097709,-0.06376 z m 6.986219,0.04585 c -0.06257,-0.04823 -0.134351,-0.08775 -0.134351,-0.07397 0,0.01242 0.152863,0.112535 0.170992,0.111993 0.0067,-1.95e-4 -0.0098,-0.01731 -0.03664,-0.03802 z m -6.7908003,-0.167983 0.048855,-0.03978 -0.048855,0.02398 c -0.02687,0.01319 -0.070839,0.04189 -0.097709,0.06376 l -0.048855,0.03978 0.048855,-0.02399 c 0.02687,-0.01319 0.070839,-0.04189 0.097709,-0.06376 z m 6.5953813,0.04585 c -0.06257,-0.04822 -0.13435,-0.08775 -0.13435,-0.07397 0,0.01242 0.152862,0.112536 0.170991,0.111993 0.0067,-1.95e-4 -0.0098,-0.01731 -0.03664,-0.03802 z m -0.195419,-0.122137 c -0.06257,-0.04823 -0.13435,-0.08775 -0.13435,-0.07397 0,0.01242 0.152862,0.112535 0.170991,0.111993 0.0067,-1.96e-4 -0.0098,-0.01731 -0.03664,-0.03802 z M 4.9856664,15.31178 c 0,-0.0067 -0.021985,-4.47e-4 -0.048855,0.01393 -0.02687,0.01438 -0.048855,0.03164 -0.048855,0.03836 0,0.0067 0.021985,4.47e-4 0.048855,-0.01393 0.02687,-0.01438 0.048855,-0.03164 0.048855,-0.03836 z m 5.9724846,-0.0497 C 10.895581,15.21385 10.8238,15.17433 10.8238,15.18811 c 0,0.01242 0.152862,0.112535 0.170992,0.111993 0.0067,-1.96e-4 -0.0098,-0.01731 -0.03664,-0.03802 z M 5.1810851,15.18965 c 0,-0.0067 -0.021985,-4.47e-4 -0.048855,0.01393 -0.02687,0.01438 -0.048855,0.03164 -0.048855,0.03836 0,0.0067 0.021985,4.47e-4 0.048855,-0.01393 0.02687,-0.01438 0.048855,-0.03164 0.048855,-0.03836 z m 5.5816469,-0.0497 c -0.06257,-0.04822 -0.13435,-0.08775 -0.13435,-0.07397 0,0.01242 0.152862,0.112535 0.170991,0.111993 0.0067,-1.95e-4 -0.0098,-0.01731 -0.03664,-0.03802 z m -0.23206,-0.143137 c 0,-0.0062 -0.02473,-0.02334 -0.05496,-0.03799 -0.05278,-0.02558 -0.05308,-0.02513 -0.0075,0.01135 0.04984,0.03993 0.06251,0.04533 0.06251,0.02664 z m -0.195418,-0.122137 c 0,-0.0062 -0.02473,-0.02334 -0.05496,-0.03799 -0.05278,-0.02558 -0.05308,-0.02513 -0.0075,0.01135 0.04984,0.03993 0.06251,0.04533 0.06251,0.02663 z m -0.195419,-0.122137 c 0,-0.0062 -0.02473,-0.02334 -0.05496,-0.03799 -0.05278,-0.02558 -0.05308,-0.02513 -0.0075,0.01135 0.04984,0.03993 0.06251,0.04533 0.06251,0.02663 z M 9.9444162,14.630393 c 0,-0.0062 -0.024733,-0.02334 -0.054961,-0.03799 -0.052779,-0.02558 -0.053078,-0.02513 -0.00754,0.01135 0.049838,0.03993 0.062506,0.04533 0.062506,0.02664 z M 9.5535787,14.386119 c 0,-0.0062 -0.024733,-0.02334 -0.054961,-0.03799 -0.052778,-0.02558 -0.053078,-0.02513 -0.00754,0.01135 0.049838,0.03993 0.062506,0.04533 0.062506,0.02663 z M 13.948389,2.6784577 c -0.07597,-0.2014811 -0.28849,-0.4569312 -0.440631,-0.5296365 -0.08057,-0.038502 -0.08105,-0.038418 -0.02138,0.00368 0.161353,0.1138363 0.323573,0.2940137 0.394591,0.4382708 0.07978,0.1620481 0.110549,0.2020698 0.06742,0.087681 z M 2.3840403,2.2466159 C 2.432104,2.209956 2.517746,2.1534777 2.5743558,2.1211087 2.6309657,2.0887396 2.6647951,2.0621235 2.6495322,2.0619616 2.594855,2.061382 2.3214326,2.2631435 2.2416346,2.3629541 2.1510381,2.4762711 2.0543857,2.6305728 2.0543857,2.6618896 c 0,0.011227 0.05451,-0.062619 0.1211331,-0.1641031 C 2.2421419,2.3963026 2.3359766,2.2832758 2.3840403,2.2466159 Z M 8.289464,1.9946752 c -0.097404,-0.00464 -0.2567924,-0.00464 -0.3541964,0 -0.097404,0.00464 -0.01771,0.00843 0.1770982,0.00843 0.194808,0 0.2745022,-0.00379 0.1770982,-0.00843 z"
     id="path3837"
     inkscape:connector-curvature="0" />
  <path
     style="stroke-width:0.02442734"
     d=""
     id="path3839"
     inkscape:connector-curvature="0" />
  <path
     style="stroke-width:0.02442734"
     d="M 0.90904465,19.783388 C 0.45710869,19.656167 0.09281935,19.257058 0.02505536,18.814906 0.00995225,18.71636 0.00375449,15.724208 0.00801217,10.586809 L 0.01470295,2.5135732 0.09604421,2.2448724 C 0.2563497,1.7153231 0.48277185,1.317978 0.8324773,0.95251603 1.1048709,0.66784935 1.3694943,0.47256038 1.7001893,0.31215496 2.0122601,0.16078332 2.2946839,0.0747558 2.6040009,0.03684999 2.907374,-3.2742209e-4 13.047605,-0.00123682 13.380503,0.03588353 c 0.317678,0.03542319 0.603153,0.12121265 0.925458,0.27811401 0.779951,0.37968783 1.328136,1.04196516 1.591653,1.92292066 l 0.06814,0.2278003 v 8.2564405 8.25644 l -0.09739,0.182356 c -0.170111,0.318518 -0.446614,0.542856 -0.771812,0.626202 -0.227711,0.05836 -0.55507,0.03787 -0.738801,-0.04624 -0.07596,-0.03477 -1.502041,-0.916339 -3.169071,-1.95903 -1.6670297,-1.042696 -3.068381,-1.91365 -3.1141138,-1.935459 l -0.08315,-0.03965 -0.3364692,0.203444 c -0.1850581,0.111894 -1.4411956,0.892444 -2.7914168,1.734556 -1.3502211,0.842112 -2.6033436,1.623225 -2.7847166,1.735808 -0.181373,0.112582 -0.3937912,0.23058 -0.4720405,0.262217 -0.1853924,0.07496 -0.5103788,0.09433 -0.69772795,0.04159 z m 1.26747775,-2.71284 c 0,-0.0067 -0.021985,-4.47e-4 -0.048855,0.01393 -0.02687,0.01438 -0.048855,0.03164 -0.048855,0.03836 0,0.0067 0.021985,4.47e-4 0.048855,-0.01393 0.02687,-0.01438 0.048855,-0.03164 0.048855,-0.03836 z m 11.7006956,0.028 c 0,-0.0057 -0.156641,-0.108133 -0.34809,-0.227637 -0.397349,-0.248029 -0.428891,-0.266627 -0.401785,-0.236919 0.01723,0.01889 0.728113,0.472026 0.743768,0.474102 0.0034,4.45e-4 0.0061,-0.0038 0.0061,-0.0095 z M 2.023819,15.858571 c -0.00402,-0.232615 -0.00731,-0.0492 -0.00732,0.407594 -8.8e-6,0.456791 0.00328,0.647112 0.00731,0.422935 0.00403,-0.224176 0.00403,-0.597915 1.6e-5,-0.830529 z M 2.3353001,16.975 2.3841551,16.93522 2.3353001,16.9592 c -0.02687,0.01319 -0.070839,0.04189 -0.097709,0.06376 l -0.048855,0.03978 0.048855,-0.02398 c 0.02687,-0.01319 0.070839,-0.04189 0.097709,-0.06376 z m 0.1954187,-0.122137 0.048855,-0.03978 -0.048855,0.02398 c -0.02687,0.01319 -0.070839,0.04189 -0.097709,0.06376 l -0.048855,0.03978 0.048855,-0.02399 c 0.02687,-0.01319 0.070839,-0.04188 0.097709,-0.06376 z m 0.1954188,-0.122136 0.048855,-0.03978 -0.048855,0.02398 c -0.02687,0.01319 -0.070839,0.04189 -0.097709,0.06376 l -0.048855,0.03978 0.048855,-0.02398 c 0.02687,-0.01319 0.070839,-0.04189 0.097709,-0.06376 z m 0.1954187,-0.122137 0.048855,-0.03978 -0.048855,0.02398 c -0.02687,0.01319 -0.070839,0.04189 -0.097709,0.06376 l -0.048855,0.03978 0.048855,-0.02398 c 0.02687,-0.01319 0.070839,-0.04189 0.097709,-0.06376 z M 13.048302,16.57358 c -0.07382,-0.05674 -0.218088,-0.140008 -0.184819,-0.106672 0.03277,0.03284 0.21569,0.153598 0.231623,0.152914 0.007,-2.98e-4 -0.0141,-0.02111 -0.0468,-0.04624 z M 3.116975,16.48646 3.16583,16.44668 3.116975,16.47066 c -0.02687,0.01319 -0.070839,0.04189 -0.097709,0.06376 L 2.970411,16.5742 3.019266,16.55022 c 0.02687,-0.01319 0.070839,-0.04189 0.097709,-0.06376 z m 0.1954187,-0.122136 0.048855,-0.03978 -0.048855,0.02398 c -0.02687,0.01319 -0.070839,0.04189 -0.097709,0.06376 l -0.048855,0.03978 0.048855,-0.02398 c 0.02687,-0.01319 0.070839,-0.04189 0.097709,-0.06376 z m 9.4778073,0.04584 c -0.06257,-0.04822 -0.13435,-0.08775 -0.13435,-0.07397 0,0.01242 0.152862,0.112535 0.170991,0.111993 0.0067,-1.96e-4 -0.0098,-0.01731 -0.03664,-0.03802 z m -0.195419,-0.122137 c -0.06257,-0.04822 -0.13435,-0.08775 -0.13435,-0.07397 0,0.01242 0.152862,0.112535 0.170991,0.111993 0.0067,-1.96e-4 -0.0098,-0.01731 -0.03664,-0.03802 z m -9.0503286,-0.07243 c 0,-0.0067 -0.021985,-4.47e-4 -0.048855,0.01393 -0.02687,0.01438 -0.048855,0.03164 -0.048855,0.03836 0,0.0067 0.021985,4.47e-4 0.048855,-0.01393 0.02687,-0.01438 0.048855,-0.03164 0.048855,-0.03836 z m 8.8549106,-0.0497 c -0.06257,-0.04822 -0.134351,-0.08775 -0.134351,-0.07397 0,0.01242 0.152862,0.112535 0.170992,0.111993 0.0067,-1.95e-4 -0.0098,-0.01731 -0.03664,-0.03802 z m -8.6594919,-0.07243 c 0,-0.0067 -0.021985,-4.47e-4 -0.048855,0.01393 -0.02687,0.01438 -0.048855,0.03164 -0.048855,0.03836 0,0.0067 0.021985,4.47e-4 0.048855,-0.01393 0.02687,-0.01438 0.048855,-0.03164 0.048855,-0.03836 z m 8.4640729,-0.0497 c -0.06257,-0.04823 -0.13435,-0.08775 -0.13435,-0.07397 0,0.01242 0.152862,0.112536 0.170991,0.111993 0.0067,-1.95e-4 -0.0098,-0.01731 -0.03664,-0.03802 z m -8.2686542,-0.07243 c 0,-0.0067 -0.021985,-4.47e-4 -0.048855,0.01393 -0.02687,0.01438 -0.048855,0.03164 -0.048855,0.03836 0,0.0067 0.021985,4.47e-4 0.048855,-0.01393 0.02687,-0.01438 0.048855,-0.03164 0.048855,-0.03836 z M 4.1307095,15.8492 c 0,-0.0067 -0.021985,-4.47e-4 -0.048855,0.01393 -0.02687,0.01438 -0.048855,0.03164 -0.048855,0.03836 0,0.0067 0.021985,4.47e-4 0.048855,-0.01393 0.02687,-0.01438 0.048855,-0.03164 0.048855,-0.03836 z m 7.8411755,0.05143 c 0,-0.0062 -0.02473,-0.02334 -0.05496,-0.03799 -0.05278,-0.02558 -0.05308,-0.02513 -0.0075,0.01135 0.04984,0.03993 0.06251,0.04533 0.06251,0.02663 z m -0.195418,-0.122137 c 0,-0.0062 -0.02473,-0.02334 -0.05496,-0.03799 -0.05278,-0.02558 -0.05308,-0.02513 -0.0075,0.01135 0.04984,0.03993 0.06251,0.04533 0.06251,0.02663 z m -0.195419,-0.122136 c 0,-0.0062 -0.02473,-0.02334 -0.05496,-0.03799 -0.05278,-0.02558 -0.05308,-0.02512 -0.0075,0.01135 0.04984,0.03993 0.06251,0.04533 0.06251,0.02663 z M 11.385629,15.53422 c 0,-0.0062 -0.02473,-0.02334 -0.05496,-0.03799 -0.05278,-0.02558 -0.05308,-0.02513 -0.0075,0.01135 0.04984,0.03993 0.06251,0.04533 0.06251,0.02663 z M 4.9856664,15.31178 c 0,-0.0067 -0.021985,-4.47e-4 -0.048855,0.01393 -0.02687,0.01438 -0.048855,0.03164 -0.048855,0.03836 0,0.0067 0.021985,4.47e-4 0.048855,-0.01393 0.02687,-0.01438 0.048855,-0.03164 0.048855,-0.03836 z m 5.9724846,-0.0497 C 10.895581,15.21385 10.8238,15.17433 10.8238,15.18811 c 0,0.01242 0.152862,0.112535 0.170992,0.111993 0.0067,-1.96e-4 -0.0098,-0.01731 -0.03664,-0.03802 z M 5.1810851,15.18965 c 0,-0.0067 -0.021985,-4.47e-4 -0.048855,0.01393 -0.02687,0.01438 -0.048855,0.03164 -0.048855,0.03836 0,0.0067 0.021985,4.47e-4 0.048855,-0.01393 0.02687,-0.01438 0.048855,-0.03164 0.048855,-0.03836 z m 5.5450059,-0.0707 c 0,-0.0062 -0.02473,-0.02334 -0.05496,-0.03799 -0.05278,-0.02558 -0.05308,-0.02513 -0.0075,0.01135 0.04984,0.03993 0.06251,0.04533 0.06251,0.02663 z m -0.390837,-0.244273 c 0,-0.0062 -0.02473,-0.02334 -0.05496,-0.03799 -0.05278,-0.02558 -0.05308,-0.02513 -0.0075,0.01135 0.04984,0.03993 0.06251,0.04533 0.06251,0.02663 z M 1.9979421,14.574572 c -0.00614,-0.02351 -0.011171,-0.0043 -0.011171,0.04275 0,0.04702 0.00503,0.06626 0.011171,0.04275 0.00614,-0.02351 0.00614,-0.06198 0,-0.08549 z m 0.00121,-0.46412 c -0.00485,-0.07725 -0.00881,-0.01405 -0.00881,0.140457 0,0.154503 0.00397,0.217709 0.00881,0.140458 0.00485,-0.07725 0.00485,-0.203663 0,-0.280915 z M 13.900293,2.5719911 c -0.0559,-0.1095788 -0.29353,-0.3743337 -0.375215,-0.4180502 -0.02594,-0.013884 0.02484,0.042116 0.112849,0.124445 0.09035,0.084521 0.190312,0.2075492 0.229602,0.2825922 0.03827,0.073096 0.07336,0.1291236 0.07798,0.1245049 0.0046,-0.00462 -0.01573,-0.05569 -0.04522,-0.1134919 z M 2.1545525,2.5135732 c 0.01677,-0.03245 0.00848,-0.028348 -0.024702,0.012214 -0.027473,0.033588 -0.050027,0.072061 -0.05012,0.085496 -1.808e-4,0.026139 0.033644,-0.018033 0.074822,-0.097709 z M 2.2742318,2.3547955 c 0.042563,-0.05374 0.071891,-0.097709 0.065174,-0.097709 -0.00672,0 -0.047038,0.043969 -0.089601,0.097709 -0.042563,0.05374 -0.071891,0.097709 -0.065174,0.097709 0.00672,0 0.047038,-0.043969 0.089601,-0.097709 z M 2.6406419,2.0677802 c 0.00672,-0.00756 -0.034765,0.01212 -0.092182,0.043745 -0.057417,0.031624 -0.1232601,0.078344 -0.1463166,0.1038213 -0.023057,0.025477 0.018425,0.00579 0.092182,-0.043745 0.073757,-0.049537 0.1395994,-0.096256 0.1463166,-0.1038213 z"
     id="path3841"
     inkscape:connector-curvature="0" />
  <path
     style="stroke-width:0.02442734"
     d="M 0.90414684,19.786713 C 0.45978775,19.657566 0.09182509,19.250786 0.0250736,18.814906 0.0099946,18.716441 0.00378785,15.715505 0.00803041,10.574595 L 0.01470295,2.4891458 0.09580396,2.2326588 C 0.1946849,1.9199415 0.35266066,1.5799807 0.50807533,1.3454587 0.66004745,1.1161314 0.99098872,0.77212612 1.2360699,0.58872613 1.6129574,0.30669235 2.1607174,0.08616054 2.613111,0.03432024 c 0.2866805,-0.03285104 10.491983,-0.03285104 10.778663,0 0.448557,0.05140062 0.99798,0.27277604 1.378306,0.55535222 0.257899,0.19161413 0.602932,0.56244954 0.765076,0.82228994 0.159187,0.2551014 0.305336,0.602566 0.384177,0.9133672 l 0.05864,0.231149 v 8.1894114 8.189411 l -0.09915,0.198101 c -0.163097,0.325859 -0.412834,0.542604 -0.740003,0.642246 -0.236177,0.07193 -0.580643,0.05602 -0.781887,-0.03611 -0.07721,-0.03535 -1.483591,-0.904159 -3.125295,-1.930693 C 9.5899281,16.782307 8.1908542,15.911404 8.1225786,15.8735 L 7.9984413,15.80458 7.7195275,15.97186 c -0.1534025,0.092 -1.4990591,0.927571 -2.9903482,1.856814 -3.2818048,2.04494 -2.9797347,1.860136 -3.1402775,1.921202 -0.1684097,0.06406 -0.5250685,0.08324 -0.68475496,0.03683 z M 2.1765224,17.070548 c 0,-0.0067 -0.021985,-4.47e-4 -0.048855,0.01393 -0.02687,0.01438 -0.048855,0.03164 -0.048855,0.03836 0,0.0067 0.021985,4.47e-4 0.048855,-0.01393 0.02687,-0.01438 0.048855,-0.03164 0.048855,-0.03836 z m 0.1587777,-0.09555 0.048855,-0.03978 -0.048855,0.02398 c -0.02687,0.01319 -0.070839,0.04189 -0.097709,0.06376 l -0.048855,0.03978 0.048855,-0.02398 c 0.02687,-0.01319 0.070839,-0.04189 0.097709,-0.06376 z m 11.4686359,0.0737 c 0,-0.0062 -0.02473,-0.02334 -0.05496,-0.03799 -0.05278,-0.02558 -0.05308,-0.02513 -0.0075,0.01135 0.04984,0.03993 0.06251,0.04533 0.06251,0.02663 z m -0.158778,-0.101135 c -0.06257,-0.04822 -0.13435,-0.08775 -0.13435,-0.07397 0,0.01242 0.152862,0.112535 0.170991,0.111993 0.0067,-1.95e-4 -0.0098,-0.01731 -0.03664,-0.03802 z m -0.23206,-0.143138 c 0,-0.0062 -0.02473,-0.02334 -0.05496,-0.03799 -0.05278,-0.02558 -0.05308,-0.02512 -0.0075,0.01135 0.04984,0.03993 0.06251,0.04533 0.06251,0.02663 z M 2.0237234,16.175722 c -0.00454,-0.111477 -0.00827,-0.02681 -0.0083,0.188152 -3.17e-5,0.214961 0.00368,0.306169 0.00825,0.202686 0.00457,-0.103484 0.00459,-0.279361 5.62e-5,-0.390838 z M 13.21768,16.682289 c 0,-0.0062 -0.02473,-0.02334 -0.05496,-0.03799 -0.05278,-0.02558 -0.05308,-0.02513 -0.0075,0.01135 0.04984,0.03993 0.06251,0.04533 0.06251,0.02663 z M 2.9581973,16.582001 c 0,-0.0067 -0.021985,-4.47e-4 -0.048855,0.01393 -0.02687,0.01438 -0.048855,0.03164 -0.048855,0.03836 0,0.0067 0.021985,4.47e-4 0.048855,-0.01393 0.02687,-0.01438 0.048855,-0.03164 0.048855,-0.03836 z m 10.0640637,-0.02185 c 0,-0.0062 -0.02473,-0.02334 -0.05496,-0.03799 -0.05278,-0.02558 -0.05308,-0.02513 -0.0075,0.01135 0.04984,0.03993 0.06251,0.04533 0.06251,0.02663 z m -0.195419,-0.122136 c 0,-0.0062 -0.02473,-0.02334 -0.05496,-0.03799 -0.05278,-0.02558 -0.05308,-0.02513 -0.0075,0.01135 0.04984,0.03993 0.06251,0.04533 0.06251,0.02664 z M 3.5444534,16.215591 c 0,-0.0067 -0.021985,-4.47e-4 -0.048855,0.01393 -0.02687,0.01438 -0.048855,0.03164 -0.048855,0.03836 0,0.0067 0.021985,4.47e-4 0.048855,-0.01393 0.02687,-0.01438 0.048855,-0.03164 0.048855,-0.03836 z m 8.8549106,-0.0497 c -0.06257,-0.04822 -0.134351,-0.08775 -0.134351,-0.07397 0,0.01242 0.152862,0.112535 0.170992,0.111993 0.0067,-1.95e-4 -0.0098,-0.01731 -0.03664,-0.03802 z m -8.6594919,-0.07243 c 0,-0.0067 -0.021985,-4.47e-4 -0.048855,0.01393 -0.02687,0.01438 -0.048855,0.03164 -0.048855,0.03836 0,0.0067 0.021985,4.47e-4 0.048855,-0.01393 0.02687,-0.01438 0.048855,-0.03164 0.048855,-0.03836 z m 8.4274319,-0.0707 c 0,-0.0062 -0.02473,-0.02334 -0.05496,-0.03799 -0.05278,-0.02558 -0.05308,-0.02512 -0.0075,0.01136 0.04984,0.03993 0.06251,0.04533 0.06251,0.02663 z m -0.195419,-0.122137 c 0,-0.0062 -0.02473,-0.02334 -0.05496,-0.03799 -0.05278,-0.02558 -0.05308,-0.02513 -0.0075,0.01135 0.04984,0.03993 0.06251,0.04533 0.06251,0.02663 z m -0.195418,-0.122137 c 0,-0.0062 -0.02473,-0.02334 -0.05496,-0.03799 -0.05278,-0.02558 -0.05308,-0.02513 -0.0075,0.01135 0.04984,0.03993 0.06251,0.04533 0.06251,0.02663 z M 13.926072,2.628165 c 0,-0.010867 -0.01667,-0.041096 -0.03704,-0.067175 -0.03434,-0.043969 -0.03495,-0.042532 -0.0083,0.019759 0.02876,0.067212 0.04533,0.084544 0.04533,0.047417 z M 2.1473775,2.5129268 c -0.00752,-0.00752 -0.02118,0.00604 -0.030353,0.030127 -0.013256,0.034814 -0.010451,0.037619 0.013674,0.013674 0.016694,-0.01657 0.024199,-0.03628 0.016679,-0.043801 z M 2.2284929,2.409757 c 0.030384,-0.038743 0.02952,-0.039607 -0.00922,-0.00922 -0.023511,0.018439 -0.042748,0.037675 -0.042748,0.042748 0,0.020105 0.020059,0.00716 0.05197,-0.033525 z M 13.803936,2.421052 c 0,-0.00386 -0.05771,-0.061573 -0.128244,-0.1282436 L 13.547449,2.17159 13.668667,2.2998335 c 0.112638,0.1191662 0.135269,0.139446 0.135269,0.1212185 z M 2.301775,2.3120476 c 0.030384,-0.038743 0.02952,-0.039607 -0.00922,-0.00922 -0.023511,0.018439 -0.042748,0.037675 -0.042748,0.042748 0,0.020105 0.020059,0.00716 0.05197,-0.033525 z M 2.6046472,2.0908123 c -0.00752,-0.00752 -0.027231,-1.55e-5 -0.043801,0.016679 -0.023945,0.024125 -0.021139,0.026931 0.013674,0.013674 0.024091,-0.00917 0.037648,-0.022832 0.030127,-0.030353 z"
     id="path3843"
     inkscape:connector-curvature="0" />
  <path
     style="stroke-width:0.02442734"
     d="M 0.92163047,19.794861 C 0.74066932,19.749231 0.49918568,19.600919 0.34584934,19.441235 0.17191921,19.260105 0.05969535,19.040983 0.02507373,18.814906 0.00999453,18.716439 0.00378799,15.711157 0.00803054,10.562381 L 0.01470295,2.4647185 0.11704074,2.1662736 C 0.23783966,1.8139909 0.41929145,1.4520995 0.58591629,1.2311379 0.74097285,1.025517 1.1207821,0.65888899 1.3158516,0.52653495 1.6824138,0.27782375 2.1991642,0.08175488 2.613111,0.03432024 c 0.2866805,-0.03285104 10.491983,-0.03285104 10.778663,0 0.296805,0.03401121 0.600219,0.12683463 0.914187,0.2796773 0.771471,0.37555946 1.318003,1.03035826 1.591231,1.90644756 l 0.06856,0.219846 0.0062,8.2506619 0.0062,8.250661 -0.08344,0.16569 c -0.175444,0.348385 -0.42213,0.56707 -0.753068,0.66759 -0.237847,0.07224 -0.582681,0.05718 -0.782209,-0.03416 -0.07577,-0.03469 -1.51127,-0.921073 -3.189994,-1.969739 -1.6787232,-1.048667 -3.0800515,-1.919346 -3.1140624,-1.934843 -0.075634,-0.03446 -0.00282,-0.07786 -2.8866082,1.720536 -3.2739192,2.041692 -3.4294127,2.137018 -3.5751433,2.191756 -0.1579256,0.05932 -0.5213898,0.08442 -0.67209763,0.04642 z M 2.1765224,17.070548 c 0,-0.0067 -0.021985,-4.47e-4 -0.048855,0.01393 -0.02687,0.01438 -0.048855,0.03164 -0.048855,0.03836 0,0.0067 0.021985,4.47e-4 0.048855,-0.01393 0.02687,-0.01438 0.048855,-0.03164 0.048855,-0.03836 z m 11.6274136,-0.02185 c 0,-0.0062 -0.02473,-0.02334 -0.05496,-0.03799 -0.05278,-0.02558 -0.05308,-0.02513 -0.0075,0.01135 0.04984,0.03993 0.06251,0.04533 0.06251,0.02663 z m -0.195419,-0.122137 c 0,-0.0062 -0.02473,-0.02334 -0.05496,-0.03799 -0.05278,-0.02558 -0.05308,-0.02513 -0.0075,0.01135 0.04984,0.03993 0.06251,0.04533 0.06251,0.02663 z m -0.195419,-0.122136 c 0,-0.0062 -0.02473,-0.02334 -0.05496,-0.03799 -0.05278,-0.02558 -0.05308,-0.02512 -0.0075,0.01135 0.04984,0.03993 0.06251,0.04533 0.06251,0.02663 z M 2.0217088,16.345554 c -0.00678,-0.01679 -0.012321,-0.0031 -0.012321,0.03053 0,0.03359 0.00554,0.04733 0.012321,0.03053 0.00678,-0.01679 0.00678,-0.04427 0,-0.06107 z m 1.7181633,-0.252099 c 0,-0.0067 -0.021985,-4.47e-4 -0.048855,0.01393 -0.02687,0.01438 -0.048855,0.03164 -0.048855,0.03836 0,0.0067 0.021985,4.47e-4 0.048855,-0.01393 0.02687,-0.01438 0.048855,-0.03164 0.048855,-0.03836 z M 13.926072,2.628165 c 0,-0.010867 -0.01667,-0.041096 -0.03704,-0.067175 -0.03434,-0.043969 -0.03495,-0.042532 -0.0083,0.019759 0.02876,0.067212 0.04533,0.084544 0.04533,0.047417 z M 13.779508,2.3944275 c 0,-0.00507 -0.01924,-0.024309 -0.04275,-0.042748 -0.03874,-0.030384 -0.03961,-0.02952 -0.0092,0.00922 0.03191,0.04069 0.05197,0.05363 0.05197,0.033525 z M 13.657372,2.2722908 c 0,-0.00507 -0.01924,-0.024309 -0.04275,-0.042748 -0.03874,-0.030384 -0.03961,-0.02952 -0.0092,0.00922 0.03191,0.04069 0.05197,0.05363 0.05197,0.033525 z"
     id="path3845"
     inkscape:connector-curvature="0" />
  <path
     style="stroke-width:0.02442734"
     d="M 0.92163047,19.794861 C 0.50184018,19.689008 0.10542369,19.266903 0.02690468,18.842154 0.01048647,18.75334 0.00429703,15.984309 0.00845159,10.586617 L 0.01470295,2.4647185 0.11811489,2.1641824 C 0.24019812,1.8093838 0.4194067,1.4519467 0.58591629,1.2311379 0.74013141,1.0266328 1.1204391,0.65912132 1.3131628,0.52836089 1.6286591,0.31430105 2.0715487,0.1286367 2.4452232,0.05378835 2.5727556,0.02824316 3.6663417,0.0219846 8.0024427,0.0219846 c 5.8833743,0 5.5210693,-0.0085399 5.9480573,0.14020263 0.47082,0.16401147 0.868141,0.42027204 1.215803,0.78415638 0.331874,0.34736019 0.541385,0.70569209 0.717662,1.22743759 l 0.08179,0.2420826 0.0062,8.2628752 0.0062,8.262876 -0.08344,0.16569 c -0.175444,0.348384 -0.42213,0.567069 -0.753068,0.667589 -0.140946,0.04281 -0.212436,0.04971 -0.414338,0.03999 -0.224783,-0.01082 -0.258735,-0.01934 -0.431065,-0.108073 C 14.193456,19.65383 12.850659,18.82407 11.312347,17.862898 9.7740355,16.901726 8.4034959,16.046969 8.2667035,15.963439 L 8.0179902,15.811565 7.9125071,15.86534 c -0.1368434,0.06976 -0.7551709,0.451984 -3.4153875,2.111236 -2.6670084,1.663489 -2.7761632,1.729999 -2.9234848,1.781333 -0.1404756,0.04895 -0.5192893,0.07042 -0.65200433,0.03695 z M 2.1641358,17.08476 c 0.00856,-0.01385 -0.00125,-0.01794 -0.022986,-0.0096 -0.042318,0.01624 -0.050061,0.03375 -0.014924,0.03375 0.012642,0 0.029702,-0.01087 0.03791,-0.02415 z M 13.904676,2.5925548 c -0.02412,-0.023945 -0.02693,-0.021139 -0.01367,0.013674 0.0092,0.024091 0.02283,0.037648 0.03035,0.030127 0.0075,-0.00752 1.5e-5,-0.027231 -0.01668,-0.043801 z"
     id="path3847"
     inkscape:connector-curvature="0" />
</svg>
