<svg xmlns="http://www.w3.org/2000/svg" width="19.25" height="22" viewBox="0 0 19.25 22"><defs><style>.a{fill:#fff;}</style></defs><path class="a" d="M18.879,15.567c-.83-.892-2.383-2.234-2.383-6.63A6.785,6.785,0,0,0,11,2.27v-.9a1.374,1.374,0,1,0-2.748,0v.9a6.785,6.785,0,0,0-5.5,6.667c0,4.4-1.553,5.738-2.383,6.63A1.343,1.343,0,0,0,0,16.5a1.376,1.376,0,0,0,1.379,1.375H17.87A1.376,1.376,0,0,0,19.249,16.5a1.342,1.342,0,0,0-.37-.933ZM2.9,15.813c.912-1.2,1.909-3.194,1.913-6.85,0-.009,0-.016,0-.025a4.813,4.813,0,0,1,9.625,0c0,.009,0,.016,0,.025,0,3.657,1,5.649,1.913,6.85ZM9.624,22a2.75,2.75,0,0,0,2.749-2.75h-5.5A2.75,2.75,0,0,0,9.624,22Z" transform="translate(0.001)"/></svg>