<svg width="18" height="20" viewBox="0 0 18 20" fill="none" xmlns="http://www.w3.org/2000/svg">
<path d="M17.7922 13.3L15.936 11.4438V8.28125C15.9338 6.57403 15.3008 4.92782 14.1588 3.65886C13.0167 2.38989 11.446 1.58765 9.74848 1.40625V0.03125H8.37348V1.40625C6.68062 1.59923 5.11686 2.40491 3.97706 3.67135C2.83727 4.93779 2.2002 6.57749 2.18598 8.28125V11.4438L0.32973 13.3C0.262628 13.3606 0.209444 13.4349 0.173839 13.518C0.138234 13.6011 0.121054 13.6909 0.12348 13.7812V15.8438C0.117403 15.9356 0.131021 16.0277 0.163422 16.1139C0.195823 16.2 0.246259 16.2783 0.311353 16.3434C0.376447 16.4085 0.454697 16.4589 0.540863 16.4913C0.627029 16.5237 0.719124 16.5373 0.81098 16.5312H5.62348C5.62348 17.4429 5.98564 18.3173 6.6303 18.9619C7.27496 19.6066 8.1493 19.9688 9.06098 19.9688C9.97266 19.9688 10.847 19.6066 11.4917 18.9619C12.1363 18.3173 12.4985 17.4429 12.4985 16.5312H17.311C17.4028 16.5373 17.4949 16.5237 17.5811 16.4913C17.6673 16.4589 17.7455 16.4085 17.8106 16.3434C17.8757 16.2783 17.9261 16.2 17.9585 16.1139C17.9909 16.0277 18.0046 15.9356 17.9985 15.8438V13.7812C18.0009 13.6909 17.9837 13.6011 17.9481 13.518C17.9125 13.4349 17.8593 13.3606 17.7922 13.3ZM9.06098 18.5938C8.51397 18.5938 7.98937 18.3765 7.60257 17.9897C7.21578 17.6029 6.99848 17.0783 6.99848 16.5312H11.1235C11.1235 17.0783 10.9062 17.6029 10.5194 17.9897C10.1326 18.3765 9.60799 18.5938 9.06098 18.5938ZM16.6235 15.1562H1.49848V14.0562L3.35473 12.2C3.42183 12.1394 3.47502 12.0651 3.51062 11.982C3.54623 11.8989 3.56341 11.8091 3.56098 11.7188V8.28125C3.56098 6.82256 4.14044 5.42361 5.17189 4.39216C6.20334 3.36071 7.60229 2.78125 9.06098 2.78125C10.5197 2.78125 11.9186 3.36071 12.9501 4.39216C13.9815 5.42361 14.561 6.82256 14.561 8.28125V11.7188C14.5586 11.8091 14.5757 11.8989 14.6113 11.982C14.6469 12.0651 14.7001 12.1394 14.7672 12.2L16.6235 14.0562V15.1562Z" fill="white"/>
</svg>
