<svg width="18" height="15" viewBox="0 0 18 18" fill="inherit" xmlns="http://www.w3.org/2000/svg">
<path d="M16.9948 11.5315C15.8595 16.0851 11.2475 18.8564 6.69329 17.7208C2.14105 16.5856 -0.630196 11.9732 0.505539 7.41999C1.64028 2.86587 6.25235 0.0944239 10.8051 1.22966C15.3589 2.3649 18.13 6.97776 16.9946 11.5316L16.9947 11.5315H16.9948Z" fill="white"/>
<path d="M12.5087 8.2499C12.6779 7.11873 11.8167 6.51069 10.6391 6.10506L11.0211 4.5728L10.0884 4.34038L9.7165 5.8323C9.47129 5.77115 9.21947 5.71352 8.96919 5.65639L9.34378 4.15463L8.41163 3.92221L8.0294 5.45397C7.82648 5.40777 7.62718 5.36211 7.43382 5.314L7.4349 5.30918L6.14863 4.98798L5.90052 5.9842C5.90052 5.9842 6.59253 6.14283 6.57794 6.15259C6.95565 6.24686 7.02395 6.49689 7.01261 6.69507L6.57744 8.44068C6.60345 8.44729 6.63719 8.45684 6.67442 8.4718C6.6433 8.46407 6.61018 8.45564 6.57582 8.44741L5.96587 10.8928C5.91971 11.0075 5.80255 11.1797 5.53847 11.1143C5.54782 11.1279 4.86055 10.9451 4.86055 10.9451L4.39746 12.0128L5.61126 12.3154C5.83707 12.372 6.05835 12.4313 6.27627 12.487L5.89029 14.0368L6.82195 14.2693L7.20418 12.7359C7.4587 12.805 7.7057 12.8687 7.94751 12.9288L7.56656 14.4549L8.49934 14.6873L8.88527 13.1404C10.4758 13.4414 11.6717 13.3201 12.1751 11.8815C12.5807 10.7232 12.1549 10.0551 11.3181 9.61946C11.9276 9.4789 12.3867 9.07806 12.5091 8.25002L12.5088 8.24981L12.5087 8.2499ZM10.3776 11.2382C10.0894 12.3965 8.13925 11.7704 7.50698 11.6134L8.01917 9.56009C8.6514 9.71792 10.6789 10.0303 10.3777 11.2382H10.3776ZM10.6661 8.23311C10.4032 9.28666 8.78003 8.75141 8.2535 8.62016L8.71787 6.75798C9.2444 6.88922 10.94 7.13419 10.6662 8.23311H10.6661Z" fill="#FFA733"/>
</svg>
