<svg width="37" height="37" viewBox="0 0 37 37" fill="none" xmlns="http://www.w3.org/2000/svg">
<path d="M36.9414 18.1418C36.9414 28.083 28.8825 36.1418 18.9414 36.1418C9.00028 36.1418 0.941406 28.083 0.941406 18.1418C0.941406 8.20072 9.00028 0.141846 18.9414 0.141846C28.8825 0.141846 36.9414 8.20072 36.9414 18.1418Z" fill="#E1E9FE"/>
<path d="M18.1917 9.83429C17.8262 10.2484 17.8656 10.8803 18.2797 11.2458C18.6937 11.6112 19.3257 11.5718 19.6911 11.1578L18.1917 9.83429ZM19.6911 15.1259C19.3257 14.7119 18.6937 14.6725 18.2797 15.0379C17.8656 15.4034 17.8262 16.0353 18.1917 16.4494L19.6911 15.1259ZM9.94141 27.1418H8.94141C8.94141 27.6941 9.38912 28.1418 9.94141 28.1418V27.1418ZM27.9414 27.1418V28.1418C28.4937 28.1418 28.9414 27.6941 28.9414 27.1418H27.9414ZM18.4407 20.0789C17.9626 20.3555 17.7993 20.9672 18.0758 21.4453C18.3523 21.9233 18.9641 22.0867 19.4421 21.8101L18.4407 20.0789ZM18.9414 13.1418C18.9414 14.7987 17.5983 16.1418 15.9414 16.1418V18.1418C18.7028 18.1418 20.9414 15.9033 20.9414 13.1418H18.9414ZM15.9414 16.1418C14.2846 16.1418 12.9414 14.7987 12.9414 13.1418H10.9414C10.9414 15.9033 13.18 18.1418 15.9414 18.1418V16.1418ZM12.9414 13.1418C12.9414 11.485 14.2846 10.1418 15.9414 10.1418V8.14185C13.18 8.14185 10.9414 10.3804 10.9414 13.1418H12.9414ZM15.9414 10.1418C17.5983 10.1418 18.9414 11.485 18.9414 13.1418H20.9414C20.9414 10.3804 18.7028 8.14185 15.9414 8.14185V10.1418ZM19.6911 11.1578C20.2423 10.5333 21.0455 10.1418 21.9414 10.1418V8.14185C20.4479 8.14185 19.1064 8.79792 18.1917 9.83429L19.6911 11.1578ZM21.9414 10.1418C23.5983 10.1418 24.9414 11.485 24.9414 13.1418H26.9414C26.9414 10.3804 24.7028 8.14185 21.9414 8.14185V10.1418ZM24.9414 13.1418C24.9414 14.7987 23.5983 16.1418 21.9414 16.1418V18.1418C24.7028 18.1418 26.9414 15.9033 26.9414 13.1418H24.9414ZM21.9414 16.1418C21.0455 16.1418 20.2423 15.7504 19.6911 15.1259L18.1917 16.4494C19.1064 17.4858 20.4479 18.1418 21.9414 18.1418V16.1418ZM10.9414 26.1418C10.9414 23.3804 13.18 21.1418 15.9414 21.1418V19.1418C12.0754 19.1418 8.94141 22.2759 8.94141 26.1418H10.9414ZM15.9414 21.1418C18.7028 21.1418 20.9414 23.3804 20.9414 26.1418H22.9414C22.9414 22.2759 19.8074 19.1418 15.9414 19.1418V21.1418ZM8.94141 26.1418V27.1418H10.9414V26.1418H8.94141ZM9.94141 28.1418H21.9414V26.1418H9.94141V28.1418ZM22.9414 27.1418V26.1418H20.9414V27.1418H22.9414ZM21.9414 28.1418H27.9414V26.1418H21.9414V28.1418ZM28.9414 27.1418V26.1418H26.9414V27.1418H28.9414ZM28.9414 26.1418C28.9414 22.2759 25.8074 19.1418 21.9414 19.1418V21.1418C24.7028 21.1418 26.9414 23.3804 26.9414 26.1418H28.9414ZM21.9414 19.1418C20.6681 19.1418 19.4713 19.4827 18.4407 20.0789L19.4421 21.8101C20.1765 21.3853 21.029 21.1418 21.9414 21.1418V19.1418Z" fill="#4A75F7"/>
</svg>
