<svg width="37" height="36" viewBox="0 0 37 36" fill="none" xmlns="http://www.w3.org/2000/svg">
<path d="M36.6367 18C36.6367 27.9411 28.5778 36 18.6367 36C8.69559 36 0.636719 27.9411 0.636719 18C0.636719 8.05888 8.69559 0 18.6367 0C28.5778 0 36.6367 8.05888 36.6367 18Z" fill="#E1E9FE"/>
<path d="M29.6367 27V28C30.189 28 30.6367 27.5523 30.6367 27H29.6367ZM9.63672 27H8.63672C8.63672 27.5523 9.08443 28 9.63672 28V27ZM24.2805 23.1429L23.3521 23.5145L24.2805 23.1429ZM21.6367 14C21.6367 15.1046 20.7413 16 19.6367 16V18C21.8459 18 23.6367 16.2091 23.6367 14H21.6367ZM19.6367 16C18.5321 16 17.6367 15.1046 17.6367 14H15.6367C15.6367 16.2091 17.4276 18 19.6367 18V16ZM17.6367 14C17.6367 12.8954 18.5321 12 19.6367 12V10C17.4276 10 15.6367 11.7909 15.6367 14H17.6367ZM19.6367 12C20.7413 12 21.6367 12.8954 21.6367 14H23.6367C23.6367 11.7909 21.8459 10 19.6367 10V12ZM27.6367 17C27.6367 17.5523 27.189 18 26.6367 18V20C28.2936 20 29.6367 18.6569 29.6367 17H27.6367ZM26.6367 18C26.0844 18 25.6367 17.5523 25.6367 17H23.6367C23.6367 18.6569 24.9799 20 26.6367 20V18ZM25.6367 17C25.6367 16.4477 26.0844 16 26.6367 16V14C24.9799 14 23.6367 15.3431 23.6367 17H25.6367ZM26.6367 16C27.189 16 27.6367 16.4477 27.6367 17H29.6367C29.6367 15.3431 28.2936 14 26.6367 14V16ZM13.6367 17C13.6367 17.5523 13.189 18 12.6367 18V20C14.2936 20 15.6367 18.6569 15.6367 17H13.6367ZM12.6367 18C12.0844 18 11.6367 17.5523 11.6367 17H9.63672C9.63672 18.6569 10.9799 20 12.6367 20V18ZM11.6367 17C11.6367 16.4477 12.0844 16 12.6367 16V14C10.9799 14 9.63672 15.3431 9.63672 17H11.6367ZM12.6367 16C13.189 16 13.6367 16.4477 13.6367 17H15.6367C15.6367 15.3431 14.2936 14 12.6367 14V16ZM26.6367 23C27.7413 23 28.6367 23.8954 28.6367 25H30.6367C30.6367 22.7909 28.8459 21 26.6367 21V23ZM28.6367 25V27H30.6367V25H28.6367ZM29.6367 26H24.6367V28H29.6367V26ZM10.6367 25C10.6367 23.8954 11.5321 23 12.6367 23V21C10.4276 21 8.63672 22.7909 8.63672 25H10.6367ZM14.6367 26H9.63672V28H14.6367V26ZM10.6367 27V25H8.63672V27H10.6367ZM13.6367 25V27H15.6367V25H13.6367ZM14.6367 28H24.6367V26H14.6367V28ZM25.6367 27V25H23.6367V27H25.6367ZM15.6367 25C15.6367 24.4732 15.738 23.9725 15.9214 23.5145L14.0646 22.7713C13.7882 23.4616 13.6367 24.2143 13.6367 25H15.6367ZM15.9214 23.5145C16.5119 22.0392 17.9541 21 19.6367 21V19C17.1089 19 14.9486 20.5628 14.0646 22.7713L15.9214 23.5145ZM12.6367 23C13.2733 23 13.8401 23.2963 14.208 23.7624L15.7779 22.5234C15.0471 21.5973 13.9114 21 12.6367 21V23ZM19.6367 21C21.3193 21 22.7616 22.0392 23.3521 23.5145L25.2089 22.7713C24.3249 20.5628 22.1645 19 19.6367 19V21ZM23.3521 23.5145C23.5354 23.9725 23.6367 24.4732 23.6367 25H25.6367C25.6367 24.2143 25.4852 23.4616 25.2089 22.7713L23.3521 23.5145ZM25.0654 23.7624C25.4334 23.2963 26.0001 23 26.6367 23V21C25.3621 21 24.2264 21.5973 23.4955 22.5234L25.0654 23.7624Z" fill="#4A75F7"/>
</svg>
