<svg width="16" height="13" viewBox="0 0 16 13" fill="none" xmlns="http://www.w3.org/2000/svg">
<path fill-rule="evenodd" clip-rule="evenodd" d="M2 0.62207C0.895431 0.62207 0 1.5175 0 2.62207V6.62207C0 7.72664 0.895431 8.62207 2 8.62207L2 2.62207H12C12 1.5175 11.1046 0.62207 10 0.62207H2ZM4 6.62207C4 5.5175 4.89543 4.62207 6 4.62207H14C15.1046 4.62207 16 5.5175 16 6.62207V10.6221C16 11.7266 15.1046 12.6221 14 12.6221H6C4.89543 12.6221 4 11.7266 4 10.6221V6.62207ZM10 10.6221C11.1046 10.6221 12 9.72664 12 8.62207C12 7.5175 11.1046 6.62207 10 6.62207C8.89543 6.62207 8 7.5175 8 8.62207C8 9.72664 8.89543 10.6221 10 10.6221Z" fill="#828282"/>
</svg>
