<svg width="37" height="36" viewBox="0 0 37 36" fill="none" xmlns="http://www.w3.org/2000/svg">
<path d="M36.5 18C36.5 27.9411 28.4411 36 18.5 36C8.55888 36 0.5 27.9411 0.5 18C0.5 8.05888 8.55888 0 18.5 0C28.4411 0 36.5 8.05888 36.5 18Z" fill="#E1E9FE"/>
<path d="M6.75 15.5H29.25M11.75 21.75H13M18 21.75H19.25M10.5 26.75H25.5C27.5711 26.75 29.25 25.0711 29.25 23V13C29.25 10.9289 27.5711 9.25 25.5 9.25H10.5C8.42893 9.25 6.75 10.9289 6.75 13V23C6.75 25.0711 8.42893 26.75 10.5 26.75Z" stroke="#4A75F7" stroke-width="2" stroke-linecap="round" stroke-linejoin="round"/>
</svg>
