<svg width="37" height="37" viewBox="0 0 37 37" fill="none" xmlns="http://www.w3.org/2000/svg">
<path d="M36.6367 18.7188C36.6367 28.6599 28.5778 36.7188 18.6367 36.7188C8.69559 36.7188 0.636719 28.6599 0.636719 18.7188C0.636719 8.77763 8.69559 0.71875 18.6367 0.71875C28.5778 0.71875 36.6367 8.77763 36.6367 18.7188Z" fill="#E1E9FE"/>
<path d="M12.6367 22.7188C12.6367 23.271 13.0844 23.7188 13.6367 23.7188C14.189 23.7188 14.6367 23.271 14.6367 22.7188H12.6367ZM13.6367 10.7188L14.3438 10.0116C13.9533 9.62112 13.3201 9.62112 12.9296 10.0116L13.6367 10.7188ZM8.92961 14.0116C8.53909 14.4022 8.53909 15.0353 8.92961 15.4259C9.32014 15.8164 9.9533 15.8164 10.3438 15.4259L8.92961 14.0116ZM16.9296 15.4259C17.3201 15.8164 17.9533 15.8164 18.3438 15.4259C18.7344 15.0353 18.7344 14.4022 18.3438 14.0116L16.9296 15.4259ZM24.6367 14.7188C24.6367 14.1665 24.189 13.7188 23.6367 13.7188C23.0844 13.7188 22.6367 14.1665 22.6367 14.7188H24.6367ZM23.6367 26.7188L22.9296 27.4259C23.3201 27.8164 23.9533 27.8164 24.3438 27.4259L23.6367 26.7188ZM28.3438 23.4259C28.7344 23.0353 28.7344 22.4022 28.3438 22.0116C27.9533 21.6211 27.3201 21.6211 26.9296 22.0116L28.3438 23.4259ZM20.3438 22.0116C19.9533 21.6211 19.3201 21.6211 18.9296 22.0116C18.5391 22.4022 18.5391 23.0353 18.9296 23.4259L20.3438 22.0116ZM14.6367 22.7188V10.7188H12.6367V22.7188H14.6367ZM10.3438 15.4259L14.3438 11.4259L12.9296 10.0116L8.92961 14.0116L10.3438 15.4259ZM12.9296 11.4259L16.9296 15.4259L18.3438 14.0116L14.3438 10.0116L12.9296 11.4259ZM22.6367 14.7188V26.7188H24.6367V14.7188H22.6367ZM26.9296 22.0116L22.9296 26.0116L24.3438 27.4259L28.3438 23.4259L26.9296 22.0116ZM24.3438 26.0116L20.3438 22.0116L18.9296 23.4259L22.9296 27.4259L24.3438 26.0116Z" fill="#4A75F7"/>
</svg>
