<svg width="16" height="17" viewBox="0 0 16 17" fill="none" xmlns="http://www.w3.org/2000/svg">
<path fill-rule="evenodd" clip-rule="evenodd" d="M9.48922 1.78081C9.1102 0.21955 6.8898 0.219549 6.51078 1.7808C6.26594 2.78936 5.11045 3.26797 4.22416 2.72795C2.85218 1.89199 1.28212 3.46204 2.11809 4.83403C2.65811 5.72031 2.17949 6.8758 1.17094 7.12064C-0.390314 7.49967 -0.390313 9.72006 1.17094 10.0991C2.17949 10.3439 2.65811 11.4994 2.11809 12.3857C1.28212 13.7577 2.85218 15.3277 4.22417 14.4918C5.11045 13.9518 6.26594 14.4304 6.51078 15.4389C6.8898 17.0002 9.1102 17.0002 9.48922 15.4389C9.73407 14.4304 10.8896 13.9518 11.7758 14.4918C13.1478 15.3277 14.7179 13.7577 13.8819 12.3857C13.3419 11.4994 13.8205 10.3439 14.8291 10.0991C16.3903 9.72006 16.3903 7.49967 14.8291 7.12064C13.8205 6.8758 13.3419 5.72031 13.8819 4.83403C14.7179 3.46204 13.1478 1.89199 11.7758 2.72795C10.8896 3.26797 9.73407 2.78936 9.48922 1.78081ZM8 11.6099C9.65685 11.6099 11 10.2667 11 8.60986C11 6.95301 9.65685 5.60986 8 5.60986C6.34315 5.60986 5 6.95301 5 8.60986C5 10.2667 6.34315 11.6099 8 11.6099Z" fill="#828282"/>
</svg>
