<svg width="36" height="37" viewBox="0 0 36 37" fill="none" xmlns="http://www.w3.org/2000/svg">
<path d="M36 18.2656C36 28.2067 27.9411 36.2656 18 36.2656C8.05888 36.2656 0 28.2067 0 18.2656C0 8.3245 8.05888 0.265625 18 0.265625C27.9411 0.265625 36 8.3245 36 18.2656Z" fill="#E1E9FE"/>
<path d="M18.5 24.6656C20.9853 24.6656 23 23.2329 23 21.4656C23 19.6983 20.9853 18.2656 18.5 18.2656C16.0147 18.2656 14 16.8329 14 15.0656C14 13.2983 16.0147 11.8656 18.5 11.8656M18.5 24.6656C16.8344 24.6656 15.3801 24.0221 14.602 23.0656M18.5 24.6656L18.5 26.2656M18.5 24.6656L18.5 11.8656M18.5 11.8656L18.5 10.2656M18.5 11.8656C20.1656 11.8656 21.6199 12.5092 22.398 13.4656" stroke="#4A75F7" stroke-width="2" stroke-linecap="round"/>
</svg>
