<svg width="37" height="37" viewBox="0 0 37 37" fill="none" xmlns="http://www.w3.org/2000/svg">
<path d="M36.6367 18.4375C36.6367 28.3786 28.5778 36.4375 18.6367 36.4375C8.69559 36.4375 0.636719 28.3786 0.636719 18.4375C0.636719 8.49638 8.69559 0.4375 18.6367 0.4375C28.5778 0.4375 36.6367 8.49638 36.6367 18.4375Z" fill="#E1E9FE"/>
<path d="M21.0839 17.3319C21.5779 17.0849 21.7781 16.4843 21.5311 15.9903C21.2842 15.4963 20.6835 15.2961 20.1895 15.5431L21.0839 17.3319ZM26.6367 13.4375H27.6367C27.6367 13.0587 27.4227 12.7125 27.0839 12.5431L26.6367 13.4375ZM24.1895 13.5431C23.6955 13.7901 23.4953 14.3907 23.7423 14.8847C23.9893 15.3787 24.59 15.5789 25.0839 15.3319L24.1895 13.5431ZM25.0839 11.5431C24.59 11.2961 23.9893 11.4963 23.7423 11.9903C23.4953 12.4843 23.6955 13.0849 24.1895 13.3319L25.0839 11.5431ZM18.6367 9.4375L19.0839 8.54307C18.8024 8.40231 18.471 8.40231 18.1895 8.54307L18.6367 9.4375ZM20.1895 11.3319C20.6835 11.5789 21.2842 11.3787 21.5311 10.8847C21.7781 10.3907 21.5779 9.79006 21.0839 9.54307L20.1895 11.3319ZM16.1895 9.54307C15.6955 9.79006 15.4953 10.3907 15.7423 10.8847C15.9893 11.3787 16.59 11.5789 17.0839 11.3319L16.1895 9.54307ZM10.6367 13.4375L10.1895 12.5431C9.85072 12.7125 9.63672 13.0587 9.63672 13.4375H10.6367ZM13.0839 13.3319C13.5779 13.0849 13.7781 12.4843 13.5311 11.9903C13.2842 11.4963 12.6835 11.2961 12.1895 11.5431L13.0839 13.3319ZM12.1895 15.3319C12.6835 15.5789 13.2842 15.3787 13.5311 14.8847C13.7781 14.3907 13.5779 13.7901 13.0839 13.5431L12.1895 15.3319ZM17.0839 15.5431C16.59 15.2961 15.9893 15.4963 15.7423 15.9903C15.4953 16.4843 15.6955 17.0849 16.1895 17.3319L17.0839 15.5431ZM18.6367 27.4375L18.1895 28.3319C18.471 28.4727 18.8024 28.4727 19.0839 28.3319L18.6367 27.4375ZM17.0839 25.5431C16.59 25.2961 15.9893 25.4963 15.7423 25.9903C15.4953 26.4843 15.6955 27.0849 16.1895 27.3319L17.0839 25.5431ZM12.1895 25.3319C12.6835 25.5789 13.2842 25.3787 13.5311 24.8847C13.7781 24.3907 13.5779 23.7901 13.0839 23.5431L12.1895 25.3319ZM10.6367 23.4375H9.63672C9.63672 23.8163 9.85072 24.1625 10.1895 24.3319L10.6367 23.4375ZM26.6367 23.4375L27.0839 24.3319C27.4227 24.1625 27.6367 23.8163 27.6367 23.4375H26.6367ZM24.1895 23.5431C23.6955 23.7901 23.4953 24.3907 23.7423 24.8847C23.9893 25.3787 24.59 25.5789 25.0839 25.3319L24.1895 23.5431ZM21.0839 27.3319C21.5779 27.0849 21.7781 26.4843 21.5311 25.9903C21.2842 25.4963 20.6835 25.2961 20.1895 25.5431L21.0839 27.3319ZM25.6367 15.9375C25.6367 16.4898 26.0844 16.9375 26.6367 16.9375C27.189 16.9375 27.6367 16.4898 27.6367 15.9375H25.6367ZM27.6367 20.9375C27.6367 20.3852 27.189 19.9375 26.6367 19.9375C26.0844 19.9375 25.6367 20.3852 25.6367 20.9375H27.6367ZM9.63672 15.9375C9.63672 16.4898 10.0844 16.9375 10.6367 16.9375C11.189 16.9375 11.6367 16.4898 11.6367 15.9375H9.63672ZM11.6367 20.9375C11.6367 20.3852 11.189 19.9375 10.6367 19.9375C10.0844 19.9375 9.63672 20.3852 9.63672 20.9375H11.6367ZM17.6367 19.9375C17.6367 20.4898 18.0844 20.9375 18.6367 20.9375C19.189 20.9375 19.6367 20.4898 19.6367 19.9375H17.6367ZM19.6367 24.9375C19.6367 24.3852 19.189 23.9375 18.6367 23.9375C18.0844 23.9375 17.6367 24.3852 17.6367 24.9375H19.6367ZM20.1895 15.5431L18.1895 16.5431L19.0839 18.3319L21.0839 17.3319L20.1895 15.5431ZM26.1895 12.5431L24.1895 13.5431L25.0839 15.3319L27.0839 14.3319L26.1895 12.5431ZM24.1895 13.3319L26.1895 14.3319L27.0839 12.5431L25.0839 11.5431L24.1895 13.3319ZM18.1895 10.3319L20.1895 11.3319L21.0839 9.54307L19.0839 8.54307L18.1895 10.3319ZM17.0839 11.3319L19.0839 10.3319L18.1895 8.54307L16.1895 9.54307L17.0839 11.3319ZM11.0839 14.3319L13.0839 13.3319L12.1895 11.5431L10.1895 12.5431L11.0839 14.3319ZM13.0839 13.5431L11.0839 12.5431L10.1895 14.3319L12.1895 15.3319L13.0839 13.5431ZM19.0839 16.5431L17.0839 15.5431L16.1895 17.3319L18.1895 18.3319L19.0839 16.5431ZM19.0839 26.5431L17.0839 25.5431L16.1895 27.3319L18.1895 28.3319L19.0839 26.5431ZM13.0839 23.5431L11.0839 22.5431L10.1895 24.3319L12.1895 25.3319L13.0839 23.5431ZM26.1895 22.5431L24.1895 23.5431L25.0839 25.3319L27.0839 24.3319L26.1895 22.5431ZM20.1895 25.5431L18.1895 26.5431L19.0839 28.3319L21.0839 27.3319L20.1895 25.5431ZM27.6367 15.9375V13.4375H25.6367V15.9375H27.6367ZM27.6367 23.4375V20.9375H25.6367V23.4375H27.6367ZM11.6367 15.9375V13.4375H9.63672V15.9375H11.6367ZM11.6367 23.4375V20.9375H9.63672V23.4375H11.6367ZM17.6367 17.4375V19.9375H19.6367V17.4375H17.6367ZM17.6367 24.9375V27.4375H19.6367V24.9375H17.6367Z" fill="#4A75F7"/>
</svg>
