<svg width="41" height="41" viewBox="0 0 41 41" fill="none" xmlns="http://www.w3.org/2000/svg">
<g filter="url(#filter0_d_10749_12151)">
<circle cx="20.5537" cy="18.0312" r="12" transform="rotate(-90 20.5537 18.0312)" fill="#E1E9FE"/>
<rect width="16" height="16" transform="translate(12.5537 26.0312) rotate(-90)" fill="#E1E9FE"/>
<path d="M24.5942 14.6588C24.2036 14.2683 23.5705 14.2683 23.1799 14.6588C22.7894 15.0493 22.7894 15.6825 23.1799 16.073L24.5942 14.6588ZM26.5537 18.0326L27.2608 18.7397C27.4484 18.5521 27.5537 18.2978 27.5537 18.0326C27.5537 17.7673 27.4484 17.513 27.2608 17.3254L26.5537 18.0326ZM23.1799 19.9921C22.7894 20.3826 22.7894 21.0158 23.1799 21.4063C23.5705 21.7968 24.2036 21.7968 24.5942 21.4063L23.1799 19.9921ZM14.5537 17.0326C14.0014 17.0326 13.5537 17.4803 13.5537 18.0326C13.5537 18.5848 14.0014 19.0326 14.5537 19.0326L14.5537 17.0326ZM23.1799 16.073L25.8466 18.7397L27.2608 17.3254L24.5942 14.6588L23.1799 16.073ZM25.8466 17.3254L23.1799 19.9921L24.5942 21.4063L27.2608 18.7397L25.8466 17.3254ZM26.5537 17.0326L14.5537 17.0326L14.5537 19.0326L26.5537 19.0326L26.5537 17.0326Z" fill="#4A75F7"/>
</g>
<defs>
<filter id="filter0_d_10749_12151" x="0.553711" y="0.03125" width="40" height="40" filterUnits="userSpaceOnUse" color-interpolation-filters="sRGB">
<feFlood flood-opacity="0" result="BackgroundImageFix"/>
<feColorMatrix in="SourceAlpha" type="matrix" values="0 0 0 0 0 0 0 0 0 0 0 0 0 0 0 0 0 0 127 0" result="hardAlpha"/>
<feOffset dy="2"/>
<feGaussianBlur stdDeviation="4"/>
<feComposite in2="hardAlpha" operator="out"/>
<feColorMatrix type="matrix" values="0 0 0 0 0.109804 0 0 0 0 0.176471 0 0 0 0 0.368627 0 0 0 0.05 0"/>
<feBlend mode="normal" in2="BackgroundImageFix" result="effect1_dropShadow_10749_12151"/>
<feBlend mode="normal" in="SourceGraphic" in2="effect1_dropShadow_10749_12151" result="shape"/>
</filter>
</defs>
</svg>
