<svg width="37" height="37" viewBox="0 0 37 37" fill="none" xmlns="http://www.w3.org/2000/svg">
<path d="M36.9414 18.7043C36.9414 28.6455 28.8825 36.7043 18.9414 36.7043C9.00028 36.7043 0.941406 28.6455 0.941406 18.7043C0.941406 8.76322 9.00028 0.704346 18.9414 0.704346C28.8825 0.704346 36.9414 8.76322 36.9414 18.7043Z" fill="#E1E9FE"/>
<path d="M16.3192 22.8733C15.9707 22.4449 15.3408 22.3801 14.9124 22.7286C14.484 23.0771 14.4192 23.707 14.7677 24.1354L16.3192 22.8733ZM22.5636 14.5354C22.9121 14.9638 23.542 15.0286 23.9704 14.6801C24.3988 14.3316 24.4636 13.7017 24.1151 13.2733L22.5636 14.5354ZM18.4414 26.7043C18.4414 27.2566 18.8891 27.7043 19.4414 27.7043C19.9937 27.7043 20.4414 27.2566 20.4414 26.7043L18.4414 26.7043ZM20.4414 10.7044C20.4414 10.1521 19.9937 9.70436 19.4414 9.70435C18.8892 9.70434 18.4414 10.152 18.4414 10.7043L20.4414 10.7044ZM19.4414 19.7043C20.5006 19.7043 21.4176 20.0112 22.0439 20.4566C22.6723 20.9035 22.9414 21.4295 22.9414 21.9043L24.9414 21.9043C24.9414 20.6119 24.2031 19.5379 23.2029 18.8267C22.2005 18.1138 20.8675 17.7043 19.4414 17.7043L19.4414 19.7043ZM22.9414 21.9043C22.9414 22.3792 22.6723 22.9052 22.0439 23.3521C21.4176 23.7975 20.5006 24.1043 19.4414 24.1043L19.4414 26.1043C20.8675 26.1043 22.2005 25.6948 23.2029 24.982C24.2031 24.2708 24.9414 23.1968 24.9414 21.9043L22.9414 21.9043ZM19.4414 24.1043C18.0039 24.1043 16.8657 23.5452 16.3192 22.8733L14.7677 24.1354C15.7773 25.3765 17.5477 26.1043 19.4414 26.1043L19.4414 24.1043ZM19.4414 17.7043C18.3822 17.7043 17.4653 17.3975 16.839 16.9521C16.2105 16.5052 15.9414 15.9792 15.9414 15.5043L13.9414 15.5043C13.9414 16.7968 14.6797 17.8708 15.6799 18.582C16.6823 19.2948 18.0154 19.7043 19.4414 19.7043L19.4414 17.7043ZM20.4414 26.7043L20.4414 25.1043L18.4414 25.1043L18.4414 26.7043L20.4414 26.7043ZM20.4414 12.3044L20.4414 10.7044L18.4414 10.7043L18.4414 12.3043L20.4414 12.3044ZM19.4414 13.3043C20.8789 13.3044 22.0171 13.8635 22.5636 14.5354L24.1151 13.2733C23.1055 12.0322 21.3351 11.3044 19.4414 11.3043L19.4414 13.3043ZM15.9414 15.5043C15.9414 15.0295 16.2105 14.5035 16.8389 14.0566C17.4652 13.6112 18.3822 13.3043 19.4414 13.3043L19.4414 11.3043C18.0153 11.3043 16.6823 11.7138 15.6799 12.4267C14.6797 13.1379 13.9414 14.2119 13.9414 15.5043L15.9414 15.5043ZM20.4414 25.1043L20.4414 12.3043L18.4414 12.3043L18.4414 25.1043L20.4414 25.1043Z" fill="#4A75F7"/>
</svg>
