<svg width="17" height="16" viewBox="0 0 17 16" fill="none" xmlns="http://www.w3.org/2000/svg">
<path d="M9.5 5.33333C9.5 4.78105 9.05228 4.33333 8.5 4.33333C7.94772 4.33333 7.5 4.78105 7.5 5.33333H9.5ZM8.5 8H7.5C7.5 8.26522 7.60536 8.51957 7.79289 8.70711L8.5 8ZM9.79289 10.7071C10.1834 11.0976 10.8166 11.0976 11.2071 10.7071C11.5976 10.3166 11.5976 9.68342 11.2071 9.29289L9.79289 10.7071ZM13.5 8C13.5 10.7614 11.2614 13 8.5 13V15C12.366 15 15.5 11.866 15.5 8H13.5ZM8.5 13C5.73858 13 3.5 10.7614 3.5 8H1.5C1.5 11.866 4.63401 15 8.5 15V13ZM3.5 8C3.5 5.23858 5.73858 3 8.5 3V1C4.63401 1 1.5 4.13401 1.5 8H3.5ZM8.5 3C11.2614 3 13.5 5.23858 13.5 8H15.5C15.5 4.13401 12.366 1 8.5 1V3ZM7.5 5.33333V8H9.5V5.33333H7.5ZM7.79289 8.70711L9.79289 10.7071L11.2071 9.29289L9.20711 7.29289L7.79289 8.70711Z" fill="#606C8E"/>
</svg>
