<svg width="17" height="21" viewBox="0 0 17 21" fill="none" xmlns="http://www.w3.org/2000/svg">
<path d="M9.77483 1.80461L9.06772 2.51172L9.06772 2.51172L9.77483 1.80461ZM15.189 7.21883L15.8961 6.51172L15.189 7.21883ZM13.4819 18.5117H3.48193V20.5117H13.4819V18.5117ZM2.48193 17.5117V3.51172H0.481934V17.5117H2.48193ZM3.48193 2.51172H9.06772V0.511719H3.48193V2.51172ZM14.4819 7.92593V17.5117H16.4819V7.92593H14.4819ZM9.06772 2.51172L14.4819 7.92593L15.8961 6.51172L10.4819 1.09751L9.06772 2.51172ZM16.4819 7.92593C16.4819 7.3955 16.2712 6.88679 15.8961 6.51172L14.4819 7.92593H14.4819H16.4819ZM9.06772 2.51172V2.51172L10.4819 1.09751C10.1069 0.722432 9.59815 0.511719 9.06772 0.511719V2.51172ZM3.48193 18.5117C2.92965 18.5117 2.48193 18.064 2.48193 17.5117H0.481934C0.481934 19.1686 1.82508 20.5117 3.48193 20.5117V18.5117ZM13.4819 20.5117C15.1388 20.5117 16.4819 19.1686 16.4819 17.5117H14.4819C14.4819 18.064 14.0342 18.5117 13.4819 18.5117V20.5117ZM2.48193 3.51172C2.48193 2.95943 2.92965 2.51172 3.48193 2.51172V0.511719C1.82508 0.511719 0.481934 1.85486 0.481934 3.51172H2.48193Z" fill="#1C2D5E"/>
</svg>
