<svg width="25" height="25" viewBox="0 0 25 25" fill="none" xmlns="http://www.w3.org/2000/svg">
<path d="M12.5078 17.7266C11.9555 17.7266 11.5078 18.1743 11.5078 18.7266C11.5078 19.2788 11.9555 19.7266 12.5078 19.7266V17.7266ZM12.5178 19.7266C13.0701 19.7266 13.5178 19.2788 13.5178 18.7266C13.5178 18.1743 13.0701 17.7266 12.5178 17.7266V19.7266ZM8.50781 4.72656H16.5078V2.72656H8.50781V4.72656ZM17.5078 5.72656V19.7266H19.5078V5.72656H17.5078ZM16.5078 20.7266H8.50781V22.7266H16.5078V20.7266ZM7.50781 19.7266V5.72656H5.50781V19.7266H7.50781ZM8.50781 20.7266C7.95553 20.7266 7.50781 20.2788 7.50781 19.7266H5.50781C5.50781 21.3834 6.85096 22.7266 8.50781 22.7266V20.7266ZM17.5078 19.7266C17.5078 20.2788 17.0601 20.7266 16.5078 20.7266V22.7266C18.1647 22.7266 19.5078 21.3834 19.5078 19.7266H17.5078ZM16.5078 4.72656C17.0601 4.72656 17.5078 5.17428 17.5078 5.72656H19.5078C19.5078 4.06971 18.1647 2.72656 16.5078 2.72656V4.72656ZM8.50781 2.72656C6.85096 2.72656 5.50781 4.06971 5.50781 5.72656H7.50781C7.50781 5.17428 7.95553 4.72656 8.50781 4.72656V2.72656ZM12.5078 19.7266H12.5178V17.7266H12.5078V19.7266Z" fill="#606C8E"/>
</svg>
