<svg width="16" height="20" viewBox="0 0 16 20" fill="none" xmlns="http://www.w3.org/2000/svg">
<path d="M15.1466 12.5404C15.5372 12.1499 15.5372 11.5168 15.1466 11.1262C14.7561 10.7357 14.123 10.7357 13.7324 11.1262L15.1466 12.5404ZM8.02287 18.25L7.31576 18.9571C7.5033 19.1446 7.75765 19.25 8.02287 19.25C8.28808 19.25 8.54244 19.1446 8.72997 18.9571L8.02287 18.25ZM2.31331 11.1262C1.92278 10.7357 1.28962 10.7357 0.899094 11.1262C0.50857 11.5168 0.50857 12.1499 0.899094 12.5404L2.31331 11.1262ZM9.02287 1.75C9.02287 1.19772 8.57515 0.75 8.02287 0.75C7.47058 0.75 7.02287 1.19772 7.02287 1.75L9.02287 1.75ZM13.7324 11.1262L7.31576 17.5429L8.72997 18.9571L15.1466 12.5404L13.7324 11.1262ZM8.72997 17.5429L2.31331 11.1262L0.899094 12.5404L7.31576 18.9571L8.72997 17.5429ZM9.02287 18.25L9.02287 1.75L7.02287 1.75L7.02287 18.25H9.02287Z" fill="#1C2D5E"/>
</svg>
