<svg width="20" height="18" viewBox="0 0 20 18" fill="none" xmlns="http://www.w3.org/2000/svg">
<path d="M9.84004 12.7207C9.85904 12.745 9.88332 12.7646 9.91103 12.7781C9.93875 12.7916 9.96917 12.7986 10 12.7986C10.0308 12.7986 10.0613 12.7916 10.089 12.7781C10.1167 12.7646 10.141 12.745 10.16 12.7207L13.0037 9.12285C13.1078 8.99082 13.0139 8.79531 12.8438 8.79531H10.9623V0.203125C10.9623 0.0914062 10.8709 0 10.7592 0H9.23574C9.12402 0 9.03262 0.0914062 9.03262 0.203125V8.79277H7.15625C6.98613 8.79277 6.89219 8.98828 6.99629 9.12031L9.84004 12.7207ZM19.293 11.832H17.7695C17.6578 11.832 17.5664 11.9234 17.5664 12.0352V15.9453H2.43359V12.0352C2.43359 11.9234 2.34219 11.832 2.23047 11.832H0.707031C0.595312 11.832 0.503906 11.9234 0.503906 12.0352V17.0625C0.503906 17.5119 0.866992 17.875 1.31641 17.875H18.6836C19.133 17.875 19.4961 17.5119 19.4961 17.0625V12.0352C19.4961 11.9234 19.4047 11.832 19.293 11.832Z" fill="#505050"/>
</svg>
