<svg width="16" height="16" viewBox="0 0 16 16" fill="none" xmlns="http://www.w3.org/2000/svg">
<path d="M0.140625 14.8477C0.140625 15.3999 0.58834 15.8477 1.14062 15.8477C1.69291 15.8477 2.14062 15.3999 2.14062 14.8477H0.140625ZM7.51562 1.34766L8.22273 0.640549C8.0352 0.453013 7.78084 0.347656 7.51562 0.347656V1.34766ZM8.26562 2.09766L7.55852 2.80476C7.74605 2.9923 8.00041 3.09766 8.26562 3.09766V2.09766ZM14.6406 2.09766L15.5351 2.54487C15.69 2.23488 15.6735 1.86674 15.4913 1.57193C15.3091 1.27711 14.9872 1.09766 14.6406 1.09766V2.09766ZM12.3906 6.59766L11.4962 6.15044C11.3554 6.43197 11.3554 6.76334 11.4962 7.04487L12.3906 6.59766ZM14.6406 11.0977V12.0977C14.9872 12.0977 15.3091 11.9182 15.4913 11.6234C15.6735 11.3286 15.69 10.9604 15.5351 10.6504L14.6406 11.0977ZM8.26562 11.0977L7.55852 11.8048C7.74605 11.9923 8.00041 12.0977 8.26562 12.0977V11.0977ZM7.51562 10.3477L8.22273 9.64055C8.0352 9.45301 7.78084 9.34766 7.51562 9.34766V10.3477ZM8.89062 1.72266C8.89062 1.17037 8.44291 0.722656 7.89062 0.722656C7.33834 0.722656 6.89062 1.17037 6.89062 1.72266H8.89062ZM6.89062 5.84766C6.89062 6.39994 7.33834 6.84766 7.89062 6.84766C8.44291 6.84766 8.89062 6.39994 8.89062 5.84766H6.89062ZM2.14062 14.8477V11.8477H0.140625V14.8477H2.14062ZM2.14062 11.8477V2.84766H0.140625V11.8477H2.14062ZM2.64062 2.34766H7.51562V0.347656H2.64062V2.34766ZM6.80852 2.05476L7.55852 2.80476L8.97273 1.39055L8.22273 0.640549L6.80852 2.05476ZM8.26562 3.09766H14.6406V1.09766H8.26562V3.09766ZM13.7462 1.65044L11.4962 6.15044L13.2851 7.04487L15.5351 2.54487L13.7462 1.65044ZM11.4962 7.04487L13.7462 11.5449L15.5351 10.6504L13.2851 6.15044L11.4962 7.04487ZM14.6406 10.0977H8.26562V12.0977H14.6406V10.0977ZM8.97273 10.3905L8.22273 9.64055L6.80852 11.0548L7.55852 11.8048L8.97273 10.3905ZM7.51562 9.34766H2.64062V11.3477H7.51562V9.34766ZM2.64062 9.34766C1.25991 9.34766 0.140625 10.4669 0.140625 11.8477H2.14062C2.14062 11.5715 2.36448 11.3477 2.64062 11.3477V9.34766ZM2.14062 2.84766C2.14062 2.57151 2.36448 2.34766 2.64062 2.34766V0.347656C1.25991 0.347656 0.140625 1.46694 0.140625 2.84766H2.14062ZM6.89062 1.72266V5.84766H8.89062V1.72266H6.89062Z" fill="#FF5C8A"/>
</svg>
