<svg width="16" height="15" viewBox="0 0 16 15" fill="none" xmlns="http://www.w3.org/2000/svg">
<path d="M5 0.512207C4.44772 0.512207 4 0.959922 4 1.51221C4 2.06449 4.44772 2.51221 5 2.51221H11C11.5523 2.51221 12 2.06449 12 1.51221C12 0.959922 11.5523 0.512207 11 0.512207H5Z" fill="#828282"/>
<path d="M2 4.51221C2 3.95992 2.44772 3.51221 3 3.51221H13C13.5523 3.51221 14 3.95992 14 4.51221C14 5.06449 13.5523 5.51221 13 5.51221H3C2.44772 5.51221 2 5.06449 2 4.51221Z" fill="#828282"/>
<path d="M0 8.51221C0 7.40764 0.895431 6.51221 2 6.51221H14C15.1046 6.51221 16 7.40764 16 8.51221V12.5122C16 13.6168 15.1046 14.5122 14 14.5122H2C0.895431 14.5122 0 13.6168 0 12.5122V8.51221Z" fill="#828282"/>
</svg>
