<svg width="19" height="19" viewBox="0 0 19 19" fill="none" xmlns="http://www.w3.org/2000/svg">
<path d="M4.40032 11.1847L3.69321 11.8918H3.69321L4.40032 11.1847ZM6.81453 13.599L6.10742 14.3061L6.10742 14.3061L6.81453 13.599ZM13.8145 11.1847L14.5216 11.8918L13.8145 11.1847ZM3.10742 2.89185H15.1074V0.891846H3.10742V2.89185ZM15.1074 16.8918H3.10742V18.8918H15.1074V16.8918ZM3.10742 16.8918C2.55514 16.8918 2.10742 16.4441 2.10742 15.8918H0.107422C0.107422 17.5487 1.45057 18.8918 3.10742 18.8918V16.8918ZM16.1074 15.8918C16.1074 16.4441 15.6597 16.8918 15.1074 16.8918V18.8918C16.7643 18.8918 18.1074 17.5487 18.1074 15.8918H16.1074ZM15.1074 2.89185C15.6597 2.89185 16.1074 3.33956 16.1074 3.89185H18.1074C18.1074 2.23499 16.7643 0.891846 15.1074 0.891846V2.89185ZM3.10742 0.891846C1.45057 0.891846 0.107422 2.23499 0.107422 3.89185H2.10742C2.10742 3.33956 2.55514 2.89185 3.10742 2.89185V0.891846ZM3.69321 11.8918L6.10742 14.3061L7.52164 12.8918L5.10742 10.4776L3.69321 11.8918ZM7.52164 14.8918H10.6932V12.8918H7.52164V14.8918ZM12.1074 14.3061L14.5216 11.8918L13.1074 10.4776L10.6932 12.8918L12.1074 14.3061ZM14.5216 11.8918V9.89185C13.9912 9.89185 13.4825 10.1026 13.1074 10.4776L14.5216 11.8918ZM10.6932 14.8918C11.2236 14.8918 11.7323 14.6811 12.1074 14.3061L10.6932 12.8918V14.8918ZM6.10742 14.3061C6.48249 14.6811 6.9912 14.8918 7.52164 14.8918V12.8918L7.52163 12.8918L6.10742 14.3061ZM3.69321 11.8918H3.69321L5.10742 10.4776C4.73235 10.1026 4.22364 9.89185 3.69321 9.89185V11.8918ZM16.1074 3.89185V10.8918H18.1074V3.89185H16.1074ZM16.1074 10.8918V15.8918H18.1074V10.8918H16.1074ZM14.5216 11.8918H17.1074V9.89185H14.5216V11.8918ZM2.10742 15.8918V10.8918H0.107422V15.8918H2.10742ZM2.10742 10.8918V3.89185H0.107422V10.8918H2.10742ZM3.69321 9.89185H1.10742V11.8918H3.69321V9.89185Z" fill="#606C8E"/>
</svg>
