<svg width="37" height="37" viewBox="0 0 37 37" fill="none" xmlns="http://www.w3.org/2000/svg">
<path d="M36.9844 18.5781C36.9844 28.5192 28.9255 36.5781 18.9844 36.5781C9.04325 36.5781 0.984375 28.5192 0.984375 18.5781C0.984375 8.637 9.04325 0.578125 18.9844 0.578125C28.9255 0.578125 36.9844 8.637 36.9844 18.5781Z" fill="#E1E9FE"/>
<path d="M14.0681 13.6619L14.2502 14.6452C14.6574 14.5698 14.976 14.2512 15.0514 13.844L14.0681 13.6619ZM14.9844 24.5781C15.5367 24.5781 15.9844 24.1304 15.9844 23.5781C15.9844 23.0258 15.5367 22.5781 14.9844 22.5781V24.5781ZM22.9844 22.5781C22.4321 22.5781 21.9844 23.0258 21.9844 23.5781C21.9844 24.1304 22.4321 24.5781 22.9844 24.5781V22.5781ZM23.9006 13.6619L22.9173 13.844C22.9927 14.2512 23.3113 14.5698 23.7185 14.6452L23.9006 13.6619ZM15.2773 17.871C14.8867 18.2615 14.8867 18.8947 15.2773 19.2852C15.6678 19.6758 16.301 19.6758 16.6915 19.2852L15.2773 17.871ZM18.9844 15.5781L19.6915 14.871C19.301 14.4805 18.6678 14.4805 18.2773 14.871L18.9844 15.5781ZM21.2773 19.2852C21.6678 19.6758 22.301 19.6758 22.6915 19.2852C23.082 18.8947 23.082 18.2615 22.6915 17.871L21.2773 19.2852ZM17.9844 27.5781C17.9844 28.1304 18.4321 28.5781 18.9844 28.5781C19.5367 28.5781 19.9844 28.1304 19.9844 27.5781H17.9844ZM15.0514 13.844C15.3956 11.9855 17.0267 10.5781 18.9844 10.5781V8.57812C16.0451 8.57812 13.6014 10.6906 13.0849 13.4798L15.0514 13.844ZM10.9844 18.5781C10.9844 16.6204 12.3918 14.9893 14.2502 14.6452L13.886 12.6786C11.0968 13.1952 8.98438 15.6389 8.98438 18.5781H10.9844ZM14.9844 22.5781C12.7752 22.5781 10.9844 20.7873 10.9844 18.5781H8.98438C8.98438 21.8918 11.6707 24.5781 14.9844 24.5781V22.5781ZM26.9844 18.5781C26.9844 20.7873 25.1935 22.5781 22.9844 22.5781V24.5781C26.2981 24.5781 28.9844 21.8918 28.9844 18.5781H26.9844ZM23.7185 14.6452C25.577 14.9893 26.9844 16.6204 26.9844 18.5781H28.9844C28.9844 15.6389 26.8719 13.1952 24.0827 12.6786L23.7185 14.6452ZM18.9844 10.5781C20.9421 10.5781 22.5732 11.9855 22.9173 13.844L24.8839 13.4798C24.3673 10.6906 21.9236 8.57812 18.9844 8.57812V10.5781ZM16.6915 19.2852L19.6915 16.2852L18.2773 14.871L15.2773 17.871L16.6915 19.2852ZM18.2773 16.2852L21.2773 19.2852L22.6915 17.871L19.6915 14.871L18.2773 16.2852ZM17.9844 15.5781V27.5781H19.9844V15.5781H17.9844Z" fill="#4A75F7"/>
</svg>
