<svg width="17" height="16" viewBox="0 0 17 16" fill="none" xmlns="http://www.w3.org/2000/svg">
<path fill-rule="evenodd" clip-rule="evenodd" d="M16.5 8C16.5 12.4183 12.9183 16 8.5 16C4.08172 16 0.5 12.4183 0.5 8C0.5 3.58172 4.08172 0 8.5 0C12.9183 0 16.5 3.58172 16.5 8ZM9.5 4C9.5 4.55228 9.05228 5 8.5 5C7.94772 5 7.5 4.55228 7.5 4C7.5 3.44772 7.94772 3 8.5 3C9.05228 3 9.5 3.44772 9.5 4ZM7.5 7C6.94772 7 6.5 7.44772 6.5 8C6.5 8.55229 6.94772 9 7.5 9V12C7.5 12.5523 7.94772 13 8.5 13H9.5C10.0523 13 10.5 12.5523 10.5 12C10.5 11.4477 10.0523 11 9.5 11V8C9.5 7.44772 9.05228 7 8.5 7H7.5Z" fill="#1E40AF"/>
</svg>
