<svg width="16" height="17" viewBox="0 0 16 17" fill="none" xmlns="http://www.w3.org/2000/svg">
<path fill-rule="evenodd" clip-rule="evenodd" d="M16 6.57324C16 9.88695 13.3137 12.5732 10 12.5732C9.39383 12.5732 8.80865 12.4834 8.25707 12.3162L6 14.5732H4V16.5732H0V12.5732L4.25707 8.31617C4.08989 7.76459 4 7.17941 4 6.57324C4 3.25953 6.68629 0.573242 10 0.573242C13.3137 0.573242 16 3.25953 16 6.57324ZM10 2.57324C9.44771 2.57324 9 3.02096 9 3.57324C9 4.12553 9.44771 4.57324 10 4.57324C11.1046 4.57324 12 5.46867 12 6.57324C12 7.12553 12.4477 7.57324 13 7.57324C13.5523 7.57324 14 7.12553 14 6.57324C14 4.3641 12.2091 2.57324 10 2.57324Z" fill="#828282"/>
</svg>
