<svg width="21" height="21" viewBox="0 0 21 21" fill="none" xmlns="http://www.w3.org/2000/svg">
<path d="M13.2578 5.06177C14.3624 5.06177 15.2578 5.9572 15.2578 7.06177M19.2578 7.06177C19.2578 10.3755 16.5715 13.0618 13.2578 13.0618C12.6516 13.0618 12.0665 12.9719 11.5149 12.8047L9.25781 15.0618H7.25781V17.0618H5.25781V19.0618H2.25781C1.70553 19.0618 1.25781 18.6141 1.25781 18.0618V15.476C1.25781 15.2108 1.36317 14.9564 1.55071 14.7689L7.51488 8.8047C7.3477 8.25312 7.25781 7.66794 7.25781 7.06177C7.25781 3.74806 9.9441 1.06177 13.2578 1.06177C16.5715 1.06177 19.2578 3.74806 19.2578 7.06177Z" stroke="#1C2D5E" stroke-width="2" stroke-linecap="round" stroke-linejoin="round"/>
</svg>
