<svg width="24" height="25" viewBox="0 0 24 25" fill="none" xmlns="http://www.w3.org/2000/svg">
<path d="M15 7.5C16.1046 7.5 17 8.39543 17 9.5M21 9.5C21 12.8137 18.3137 15.5 15 15.5C14.3938 15.5 13.8087 15.4101 13.2571 15.2429L11 17.5H9V19.5H7V21.5H4C3.44772 21.5 3 21.0523 3 20.5V17.9142C3 17.649 3.10536 17.3946 3.29289 17.2071L9.25707 11.2429C9.08989 10.6914 9 10.1062 9 9.5C9 6.18629 11.6863 3.5 15 3.5C18.3137 3.5 21 6.18629 21 9.5Z" stroke="#1C2D5E" stroke-width="2" stroke-linecap="round" stroke-linejoin="round"/>
</svg>
