<svg width="16" height="15" viewBox="0 0 16 15" fill="none" xmlns="http://www.w3.org/2000/svg">
<path fill-rule="evenodd" clip-rule="evenodd" d="M1 0.146484C1.55229 0.146484 2 0.594199 2 1.14648L2 13.1465C2 13.6988 1.55228 14.1465 0.999999 14.1465C0.447714 14.1465 -5.92389e-07 13.6988 -5.68248e-07 13.1465L-4.37114e-08 1.14648C-1.95703e-08 0.594199 0.447716 0.146484 1 0.146484ZM8.70711 3.43938C9.09763 3.8299 9.09763 4.46307 8.70711 4.85359L7.41421 6.14648L15 6.14648C15.5523 6.14648 16 6.5942 16 7.14648C16 7.69877 15.5523 8.14648 15 8.14648L7.41421 8.14648L8.70711 9.43938C9.09763 9.8299 9.09763 10.4631 8.70711 10.8536C8.31658 11.2441 7.68342 11.2441 7.29289 10.8536L4.29289 7.85359C4.10536 7.66605 4 7.4117 4 7.14648C4 6.88127 4.10536 6.62691 4.29289 6.43938L7.29289 3.43938C7.68342 3.04885 8.31658 3.04885 8.70711 3.43938Z" fill="#828282"/>
</svg>
