<svg width="37" height="36" viewBox="0 0 37 36" fill="none" xmlns="http://www.w3.org/2000/svg">
<path d="M36.5 18C36.5 27.9411 28.4411 36 18.5 36C8.55888 36 0.5 27.9411 0.5 18C0.5 8.05888 8.55888 0 18.5 0C28.4411 0 36.5 8.05888 36.5 18Z" fill="#E1E9FE"/>
<path d="M22.2841 16.2242V20.2642L20.8135 18.7936L18.7936 16.7736L16.7736 14.7536L12.8779 10.8579H10.8579V25.1421H13.7159V23.8158L14.7536 24.8535L15.0422 25.1421L16.7736 26.8735L17.8946 28H8V8H14.0599L18.7936 12.7336L20.8135 14.7536L22.2841 16.2242Z" fill="#4A75F7"/>
<path d="M27.9999 8V28H21.9345L20.8135 26.8735L19.0821 25.1421L18.7935 24.8535L13.7158 19.7758V15.7358L14.7536 16.7736L18.7935 20.8135L20.8135 22.8335L23.122 25.1421H25.142V10.8579H22.2841V12.1842L20.9578 10.8579L20.8135 10.7137L18.7935 8.69367L18.0998 8H27.9999Z" fill="#4A75F7"/>
</svg>
