<svg width="16" height="17" viewBox="0 0 16 17" fill="none" xmlns="http://www.w3.org/2000/svg">
<path fill-rule="evenodd" clip-rule="evenodd" d="M2.08296 7.63428H4.02863C4.11783 6.08788 4.41228 4.66335 4.86644 3.51656C3.41752 4.40562 2.37513 5.89276 2.08296 7.63428ZM8 0.634277C3.58172 0.634277 0 4.216 0 8.63428C0 13.0526 3.58172 16.6343 8 16.6343C12.4183 16.6343 16 13.0526 16 8.63428C16 4.216 12.4183 0.634277 8 0.634277ZM8 2.63428C7.92395 2.63428 7.76787 2.666 7.5347 2.89612C7.29723 3.13048 7.03751 3.51918 6.79782 4.07845C6.40914 4.98538 6.12491 6.21986 6.03237 7.63428H9.96763C9.87509 6.21986 9.59086 4.98538 9.20218 4.07845C8.96249 3.51918 8.70277 3.13048 8.4653 2.89612C8.23213 2.666 8.07605 2.63428 8 2.63428ZM11.9714 7.63428C11.8822 6.08789 11.5877 4.66335 11.1336 3.51656C12.5825 4.40562 13.6249 5.89276 13.917 7.63428H11.9714ZM9.96763 9.63428H6.03237C6.12491 11.0487 6.40914 12.2832 6.79782 13.1901C7.03751 13.7494 7.29723 14.1381 7.5347 14.3724C7.76787 14.6026 7.92395 14.6343 8 14.6343C8.07605 14.6343 8.23213 14.6026 8.4653 14.3724C8.70277 14.1381 8.96249 13.7494 9.20218 13.1901C9.59086 12.2832 9.87509 11.0487 9.96763 9.63428ZM11.1336 13.752C11.5877 12.6052 11.8822 11.1807 11.9714 9.63428H13.917C13.6249 11.3758 12.5825 12.8629 11.1336 13.752ZM4.86644 13.752C4.41228 12.6052 4.11783 11.1807 4.02863 9.63428H2.08296C2.37513 11.3758 3.41752 12.8629 4.86644 13.752Z" fill="#828282"/>
</svg>
