<svg width="21" height="21" viewBox="0 0 21 21" fill="none" xmlns="http://www.w3.org/2000/svg">
<path d="M18.75 10.5977C18.75 15.0159 15.1683 18.5977 10.75 18.5977V20.5977C16.2728 20.5977 20.75 16.1205 20.75 10.5977H18.75ZM10.75 18.5977C6.33172 18.5977 2.75 15.0159 2.75 10.5977H0.75C0.75 16.1205 5.22715 20.5977 10.75 20.5977V18.5977ZM2.75 10.5977C2.75 6.17938 6.33172 2.59766 10.75 2.59766V0.597656C5.22715 0.597656 0.75 5.07481 0.75 10.5977H2.75ZM10.75 2.59766C15.1683 2.59766 18.75 6.17938 18.75 10.5977H20.75C20.75 5.07481 16.2728 0.597656 10.75 0.597656V2.59766ZM13.75 10.5977C13.75 12.2545 12.4069 13.5977 10.75 13.5977V15.5977C13.5114 15.5977 15.75 13.3591 15.75 10.5977H13.75ZM10.75 13.5977C9.09315 13.5977 7.75 12.2545 7.75 10.5977H5.75C5.75 13.3591 7.98858 15.5977 10.75 15.5977V13.5977ZM7.75 10.5977C7.75 8.9408 9.09315 7.59766 10.75 7.59766V5.59766C7.98858 5.59766 5.75 7.83623 5.75 10.5977H7.75ZM10.75 7.59766C12.4069 7.59766 13.75 8.9408 13.75 10.5977H15.75C15.75 7.83623 13.5114 5.59766 10.75 5.59766V7.59766ZM16.4069 3.52659L12.8713 7.06212L14.2855 8.47634L17.8211 4.9408L16.4069 3.52659ZM12.8713 14.1332L16.4069 17.6687L17.8211 16.2545L14.2855 12.719L12.8713 14.1332ZM8.62868 7.06212L5.09315 3.52659L3.67893 4.9408L7.21447 8.47634L8.62868 7.06212ZM7.21447 12.719L3.67893 16.2545L5.09315 17.6687L8.62868 14.1332L7.21447 12.719Z" fill="#4A75F7"/>
</svg>
