<svg width="19" height="21" viewBox="0 0 19 21" fill="none" xmlns="http://www.w3.org/2000/svg">
<path d="M13.2031 9.26318V10.2632H14.2031V9.26318H13.2031ZM5.20312 9.26318H4.20312V10.2632H5.20312V9.26318ZM10.2031 13.2632C10.2031 12.7109 9.75541 12.2632 9.20312 12.2632C8.65084 12.2632 8.20312 12.7109 8.20312 13.2632H10.2031ZM8.20312 15.2632C8.20312 15.8155 8.65084 16.2632 9.20312 16.2632C9.75541 16.2632 10.2031 15.8155 10.2031 15.2632H8.20312ZM3.20312 10.2632H15.2031V8.26318H3.20312V10.2632ZM16.2031 11.2632V17.2632H18.2031V11.2632H16.2031ZM15.2031 18.2632H3.20312V20.2632H15.2031V18.2632ZM2.20312 17.2632V11.2632H0.203125V17.2632H2.20312ZM3.20312 18.2632C2.65084 18.2632 2.20312 17.8155 2.20312 17.2632H0.203125C0.203125 18.92 1.54627 20.2632 3.20312 20.2632V18.2632ZM16.2031 17.2632C16.2031 17.8155 15.7554 18.2632 15.2031 18.2632V20.2632C16.86 20.2632 18.2031 18.92 18.2031 17.2632H16.2031ZM15.2031 10.2632C15.7554 10.2632 16.2031 10.7109 16.2031 11.2632H18.2031C18.2031 9.60633 16.86 8.26318 15.2031 8.26318V10.2632ZM3.20312 8.26318C1.54627 8.26318 0.203125 9.60633 0.203125 11.2632H2.20312C2.20312 10.7109 2.65084 10.2632 3.20312 10.2632V8.26318ZM12.2031 5.26318V9.26318H14.2031V5.26318H12.2031ZM13.2031 8.26318H5.20312V10.2632H13.2031V8.26318ZM6.20312 9.26318V5.26318H4.20312V9.26318H6.20312ZM9.20312 2.26318C10.86 2.26318 12.2031 3.60633 12.2031 5.26318H14.2031C14.2031 2.50176 11.9645 0.263184 9.20312 0.263184V2.26318ZM9.20312 0.263184C6.4417 0.263184 4.20312 2.50176 4.20312 5.26318H6.20312C6.20312 3.60633 7.54627 2.26318 9.20312 2.26318V0.263184ZM8.20312 13.2632V15.2632H10.2031V13.2632H8.20312Z" fill="#1C2D5E"/>
</svg>
