<svg width="14" height="17" viewBox="0 0 14 17" fill="none" xmlns="http://www.w3.org/2000/svg">
<path fill-rule="evenodd" clip-rule="evenodd" d="M2 7.03711V5.03711C2 2.27569 4.23858 0.0371094 7 0.0371094C9.76142 0.0371094 12 2.27569 12 5.03711V7.03711C13.1046 7.03711 14 7.93254 14 9.03711V14.0371C14 15.1417 13.1046 16.0371 12 16.0371H2C0.89543 16.0371 0 15.1417 0 14.0371V9.03711C0 7.93254 0.895431 7.03711 2 7.03711ZM10 5.03711V7.03711H4V5.03711C4 3.38026 5.34315 2.03711 7 2.03711C8.65685 2.03711 10 3.38026 10 5.03711Z" fill="#828282"/>
</svg>
