<svg width="18" height="17" viewBox="0 0 18 17" fill="none" xmlns="http://www.w3.org/2000/svg">
<path d="M10.7065 6.42209C10.9779 6.73494 11.4516 6.7685 11.7645 6.49703C12.0773 6.22556 12.1109 5.75188 11.8394 5.43902L10.7065 6.42209ZM7.46022 10.4946C7.18875 10.1817 6.71507 10.1482 6.40221 10.4196C6.08936 10.6911 6.0558 11.1648 6.32727 11.4776L7.46022 10.4946ZM9.83333 4.24537C9.83333 3.83116 9.49755 3.49537 9.08333 3.49537C8.66912 3.49537 8.33333 3.83116 8.33333 4.24537H9.83333ZM8.33333 12.6713C8.33332 13.0855 8.6691 13.4213 9.08332 13.4213C9.49753 13.4213 9.83332 13.0855 9.83333 12.6713L8.33333 12.6713ZM15.9167 8.45833C15.9167 12.2323 12.8573 15.2917 9.08333 15.2917V16.7917C13.6857 16.7917 17.4167 13.0607 17.4167 8.45833H15.9167ZM9.08333 15.2917C5.30939 15.2917 2.25 12.2323 2.25 8.45833H0.75C0.75 13.0607 4.48096 16.7917 9.08333 16.7917V15.2917ZM2.25 8.45833C2.25 4.68439 5.30939 1.625 9.08333 1.625V0.125C4.48096 0.125 0.75 3.85596 0.75 8.45833H2.25ZM9.08333 1.625C12.8573 1.625 15.9167 4.68439 15.9167 8.45833H17.4167C17.4167 3.85596 13.6857 0.125 9.08333 0.125V1.625ZM9.08333 7.70833C8.51272 7.70833 8.03006 7.55279 7.71195 7.34072C7.3886 7.12515 7.30556 6.90971 7.30556 6.77315H5.80556C5.80556 7.56729 6.28837 8.19444 6.8799 8.58879C7.47667 8.98664 8.25789 9.20833 9.08333 9.20833V7.70833ZM7.30556 6.77315C7.30556 6.63658 7.3886 6.42115 7.71195 6.20558C8.03006 5.99351 8.51272 5.83796 9.08333 5.83796V4.33796C8.25789 4.33796 7.47667 4.55966 6.8799 4.9575C6.28837 5.35185 5.80556 5.97901 5.80556 6.77315H7.30556ZM9.08333 5.83796C9.86399 5.83796 10.4482 6.12444 10.7065 6.42209L11.8394 5.43902C11.2236 4.72927 10.174 4.33796 9.08333 4.33796V5.83796ZM9.08333 9.20833C9.65394 9.20833 10.1366 9.36388 10.4547 9.57595C10.7781 9.79152 10.8611 10.007 10.8611 10.1435H12.3611C12.3611 9.34937 11.8783 8.72222 11.2868 8.32787C10.69 7.93003 9.90878 7.70833 9.08333 7.70833V9.20833ZM8.33333 4.24537V5.08796H9.83333V4.24537H8.33333ZM8.33335 11.8287L8.33333 12.6713L9.83333 12.6713L9.83335 11.8287L8.33335 11.8287ZM9.08335 11.0787C8.3027 11.0787 7.71849 10.7922 7.46022 10.4946L6.32727 11.4776C6.94312 12.1874 7.99274 12.5787 9.08335 12.5787L9.08335 11.0787ZM10.8611 10.1435C10.8611 10.2801 10.7781 10.4955 10.4547 10.7111C10.1366 10.9232 9.65396 11.0787 9.08335 11.0787V12.5787C9.90879 12.5787 10.69 12.357 11.2868 11.9592C11.8783 11.5648 12.3611 10.9377 12.3611 10.1435H10.8611ZM8.33333 5.08796L8.33335 11.8287L9.83335 11.8287L9.83333 5.08796L8.33333 5.08796Z" fill="currentColor"/>
</svg>
