<svg width="26" height="26" viewBox="0 0 26 26" fill="none" xmlns="http://www.w3.org/2000/svg">
<path d="M4.03208 5.95841L1.08301 3.25008M1.08301 3.25008L4.03208 0.541748M1.08301 3.25008L8.66634 3.25008" stroke="#FF8006" stroke-linecap="round" stroke-linejoin="round"/>
<path d="M21.9669 25.4584L24.916 22.7501M24.916 22.7501L21.9669 20.0417M24.916 22.7501L17.3327 22.7501" stroke="#FF8006" stroke-linecap="round" stroke-linejoin="round"/>
<path d="M15.7065 10.4221C15.9779 10.7349 16.4516 10.7685 16.7645 10.497C17.0773 10.2256 17.1109 9.75188 16.8394 9.43902L15.7065 10.4221ZM12.4602 14.4946C12.1888 14.1817 11.7151 14.1482 11.4022 14.4196C11.0894 14.6911 11.0558 15.1648 11.3273 15.4776L12.4602 14.4946ZM14.8333 8.24537C14.8333 7.83116 14.4975 7.49537 14.0833 7.49537C13.6691 7.49537 13.3333 7.83116 13.3333 8.24537H14.8333ZM13.3333 16.6713C13.3333 17.0855 13.6691 17.4213 14.0833 17.4213C14.4975 17.4213 14.8333 17.0855 14.8333 16.6713L13.3333 16.6713ZM20.9167 12.4583C20.9167 16.2323 17.8573 19.2917 14.0833 19.2917V20.7917C18.6857 20.7917 22.4167 17.0607 22.4167 12.4583H20.9167ZM14.0833 19.2917C10.3094 19.2917 7.25 16.2323 7.25 12.4583H5.75C5.75 17.0607 9.48096 20.7917 14.0833 20.7917V19.2917ZM7.25 12.4583C7.25 8.68439 10.3094 5.625 14.0833 5.625V4.125C9.48096 4.125 5.75 7.85596 5.75 12.4583H7.25ZM14.0833 5.625C17.8573 5.625 20.9167 8.68439 20.9167 12.4583H22.4167C22.4167 7.85596 18.6857 4.125 14.0833 4.125V5.625ZM14.0833 11.7083C13.5127 11.7083 13.0301 11.5528 12.7119 11.3407C12.3886 11.1251 12.3056 10.9097 12.3056 10.7731H10.8056C10.8056 11.5673 11.2884 12.1944 11.8799 12.5888C12.4767 12.9866 13.2579 13.2083 14.0833 13.2083V11.7083ZM12.3056 10.7731C12.3056 10.6366 12.3886 10.4211 12.7119 10.2056C13.0301 9.99351 13.5127 9.83796 14.0833 9.83796V8.33796C13.2579 8.33796 12.4767 8.55966 11.8799 8.9575C11.2884 9.35185 10.8056 9.97901 10.8056 10.7731H12.3056ZM14.0833 9.83796C14.864 9.83796 15.4482 10.1244 15.7065 10.4221L16.8394 9.43902C16.2236 8.72927 15.174 8.33796 14.0833 8.33796V9.83796ZM14.0833 13.2083C14.6539 13.2083 15.1366 13.3639 15.4547 13.576C15.7781 13.7915 15.8611 14.007 15.8611 14.1435H17.3611C17.3611 13.3494 16.8783 12.7222 16.2868 12.3279C15.69 11.93 14.9088 11.7083 14.0833 11.7083V13.2083ZM13.3333 8.24537V9.08796H14.8333V8.24537H13.3333ZM13.3334 15.8287L13.3333 16.6713L14.8333 16.6713L14.8334 15.8287L13.3334 15.8287ZM14.0834 15.0787C13.3027 15.0787 12.7185 14.7922 12.4602 14.4946L11.3273 15.4776C11.9431 16.1874 12.9927 16.5787 14.0833 16.5787L14.0834 15.0787ZM15.8611 14.1435C15.8611 14.2801 15.7781 14.4955 15.4547 14.7111C15.1366 14.9232 14.654 15.0787 14.0834 15.0787V16.5787C14.9088 16.5787 15.69 16.357 16.2868 15.9592C16.8783 15.5648 17.3611 14.9377 17.3611 14.1435H15.8611ZM13.3333 9.08796L13.3334 15.8287L14.8334 15.8287L14.8333 9.08796L13.3333 9.08796Z" fill="#FF8006"/>
</svg>
