<svg width="16" height="11" viewBox="0 0 16 11" fill="none" xmlns="http://www.w3.org/2000/svg">
<path fill-rule="evenodd" clip-rule="evenodd" d="M10 2.5C9.44772 2.5 9.00001 2.05228 9.00001 1.5C9.00001 0.947715 9.44772 0.5 10 0.5H15C15.5523 0.5 16 0.947715 16 1.5V6.5C16 7.05228 15.5523 7.5 15 7.5C14.4477 7.5 14 7.05228 14 6.5V3.91421L9.70711 8.20711C9.31659 8.59763 8.68342 8.59763 8.2929 8.20711L6 5.91421L1.70711 10.2071C1.31658 10.5976 0.683418 10.5976 0.292893 10.2071C-0.0976312 9.81658 -0.0976312 9.18342 0.292893 8.79289L5.2929 3.79289C5.68342 3.40237 6.31659 3.40237 6.70711 3.79289L9.00001 6.08579L12.5858 2.5H10Z" fill="#828282"/>
</svg>
