<svg width="14" height="17" viewBox="0 0 14 17" fill="none" xmlns="http://www.w3.org/2000/svg">
<path d="M7.00003 0.597656C3.68632 0.597656 1.00003 3.28395 1.00003 6.59766V10.1834L0.292922 10.8905C0.00692448 11.1765 -0.0786313 11.6067 0.0761497 11.9803C0.230931 12.354 0.595567 12.5977 1.00003 12.5977H13C13.4045 12.5977 13.7691 12.354 13.9239 11.9803C14.0787 11.6067 13.9931 11.1765 13.7071 10.8905L13 10.1834V6.59766C13 3.28395 10.3137 0.597656 7.00003 0.597656Z" fill="#828282"/>
<path d="M7 16.5977C5.34315 16.5977 4 15.2545 4 13.5977H10C10 15.2545 8.65685 16.5977 7 16.5977Z" fill="#828282"/>
</svg>
