<svg width="13" height="14" viewBox="0 0 13 14" fill="none" xmlns="http://www.w3.org/2000/svg">
<path d="M10.875 1.25H8.2625C8 0.525 7.3125 0 6.5 0C5.6875 0 5 0.525 4.7375 1.25H2.125C1.4375 1.25 0.875 1.8125 0.875 2.5V12.5C0.875 13.1875 1.4375 13.75 2.125 13.75H10.875C11.5625 13.75 12.125 13.1875 12.125 12.5V2.5C12.125 1.8125 11.5625 1.25 10.875 1.25ZM6.5 1.25C6.84375 1.25 7.125 1.53125 7.125 1.875C7.125 2.21875 6.84375 2.5 6.5 2.5C6.15625 2.5 5.875 2.21875 5.875 1.875C5.875 1.53125 6.15625 1.25 6.5 1.25ZM10.875 12.5H2.125V2.5H3.375V4.375H9.625V2.5H10.875V12.5Z" fill="currentColor"/>
</svg>
