<svg width="21" height="21" viewBox="0 0 21 21" fill="none" xmlns="http://www.w3.org/2000/svg">
<path d="M19.5587 8.73048L17.2232 7.14876L17.7583 4.37587C17.8598 3.86034 17.6958 3.3292 17.3248 2.95427C16.9499 2.58325 16.4187 2.41922 15.911 2.52076L13.142 3.05581L11.5642 0.716425C10.9745 -0.154499 9.53725 -0.154499 8.94752 0.716425L7.36971 3.05581L4.60462 2.52076C4.08519 2.42312 3.55795 2.58325 3.18693 2.95817C2.81591 3.3331 2.65188 3.86034 2.75342 4.37587L3.28847 7.14876L0.952989 8.73048C0.515575 9.0273 0.257812 9.51549 0.257812 10.0427C0.257812 10.57 0.51948 11.0582 0.952989 11.3511L3.28847 12.9328L2.75342 15.7057C2.65188 16.2212 2.81591 16.7524 3.18693 17.1234C3.55795 17.4944 4.08128 17.6584 4.60462 17.5569L7.36971 17.0218L8.94752 19.3612C9.24043 19.7986 9.73252 20.0603 10.2559 20.0603C10.7792 20.0603 11.2713 19.7986 11.5642 19.3651L13.142 17.0257L15.911 17.5608C16.4343 17.6662 16.9577 17.4983 17.3287 17.1273C17.6997 16.7563 17.8598 16.2251 17.7622 15.7096L17.2272 12.9367L19.5626 11.355C19.9961 11.0621 20.2578 10.57 20.2578 10.0466C20.2539 9.51549 19.9961 9.0273 19.5587 8.73048ZM15.1494 12.0736L15.8368 15.6354L12.2828 14.948L10.2559 17.9513L8.22891 14.9441L4.67882 15.6315L5.36619 12.0697L2.36678 10.0388L5.36619 8.00797L4.67882 4.44617L8.23282 5.13353L10.2559 2.13412L12.2828 5.13744L15.8368 4.45007L15.1494 8.00797L18.1489 10.0388L15.1494 12.0736ZM10.2559 6.00055C8.01802 6.00055 6.19415 7.82441 6.19415 10.0623C6.19415 12.3001 8.01802 14.124 10.2559 14.124C12.4937 14.124 14.3176 12.3001 14.3176 10.0623C14.3176 7.82441 12.4937 6.00055 10.2559 6.00055ZM10.2559 12.2493C9.04906 12.2493 8.06879 11.2691 8.06879 10.0623C8.06879 8.85546 9.04906 7.87518 10.2559 7.87518C11.4627 7.87518 12.4429 8.85546 12.4429 10.0623C12.4429 11.2691 11.4627 12.2493 10.2559 12.2493Z" fill="#1C2D5E"/>
</svg>
