<svg width="17" height="16" viewBox="0 0 17 16" fill="none" xmlns="http://www.w3.org/2000/svg">
<path d="M9.16285 8.6044L8.97445 7.62231H8.97445L9.16285 8.6044ZM5.08053 5.5737C4.84509 6.07329 5.05922 6.66914 5.55881 6.90458C6.0584 7.14002 6.65425 6.92589 6.88969 6.4263L5.08053 5.5737ZM7.50004 9.33333C7.50004 9.88562 7.94775 10.3333 8.50004 10.3333C9.05232 10.3333 9.50004 9.88562 9.50004 9.33333H7.50004ZM8.5 10.3333C7.94772 10.3333 7.5 10.781 7.5 11.3333C7.5 11.8856 7.94772 12.3333 8.5 12.3333V10.3333ZM8.50667 12.3333C9.05895 12.3333 9.50667 11.8856 9.50667 11.3333C9.50667 10.781 9.05895 10.3333 8.50667 10.3333V12.3333ZM13.5 8C13.5 10.7614 11.2614 13 8.5 13V15C12.366 15 15.5 11.866 15.5 8H13.5ZM8.5 13C5.73858 13 3.5 10.7614 3.5 8H1.5C1.5 11.866 4.63401 15 8.5 15V13ZM3.5 8C3.5 5.23858 5.73858 3 8.5 3V1C4.63401 1 1.5 4.13401 1.5 8H3.5ZM8.5 3C11.2614 3 13.5 5.23858 13.5 8H15.5C15.5 4.13401 12.366 1 8.5 1V3ZM10.1667 6.66667C10.1667 6.92972 9.87135 7.45025 8.97445 7.62231L9.35125 9.58649C10.7586 9.31652 12.1667 8.26953 12.1667 6.66667H10.1667ZM8.50004 5.66667C9.04097 5.66667 9.4922 5.83236 9.78565 6.05245C10.0788 6.27231 10.1667 6.49971 10.1667 6.66667H12.1667C12.1667 5.72905 11.6577 4.95645 10.9857 4.45245C10.314 3.94869 9.43186 3.66667 8.50004 3.66667V5.66667ZM6.88969 6.4263C7.04599 6.09463 7.60886 5.66667 8.50004 5.66667V3.66667C7.06905 3.66667 5.65637 4.35178 5.08053 5.5737L6.88969 6.4263ZM8.97445 7.62231C8.25907 7.75954 7.50004 8.37533 7.50004 9.33333H9.50004C9.50004 9.43449 9.45598 9.50837 9.42271 9.54358C9.39402 9.57395 9.36902 9.58308 9.35125 9.58649L8.97445 7.62231ZM8.5 12.3333H8.50667V10.3333H8.5V12.3333Z" fill="#606C8E"/>
</svg>
