<svg width="18" height="16" viewBox="0 0 18 16" fill="none" xmlns="http://www.w3.org/2000/svg">
<path d="M12 3.58545C12 5.2423 10.6569 6.58545 9 6.58545C7.34315 6.58545 6 5.2423 6 3.58545C6 1.92859 7.34315 0.585449 9 0.585449C10.6569 0.585449 12 1.92859 12 3.58545Z" fill="#828282"/>
<path d="M17 5.58545C17 6.69002 16.1046 7.58545 15 7.58545C13.8954 7.58545 13 6.69002 13 5.58545C13 4.48088 13.8954 3.58545 15 3.58545C16.1046 3.58545 17 4.48088 17 5.58545Z" fill="#828282"/>
<path d="M13 12.5854C13 10.3763 11.2091 8.58545 9 8.58545C6.79086 8.58545 5 10.3763 5 12.5854V15.5854H13V12.5854Z" fill="#828282"/>
<path d="M5 5.58545C5 6.69002 4.10457 7.58545 3 7.58545C1.89543 7.58545 1 6.69002 1 5.58545C1 4.48088 1.89543 3.58545 3 3.58545C4.10457 3.58545 5 4.48088 5 5.58545Z" fill="#828282"/>
<path d="M15 15.5854V12.5854C15 11.5313 14.7282 10.5407 14.2507 9.67977C14.4902 9.6182 14.7413 9.58545 15 9.58545C16.6569 9.58545 18 10.9286 18 12.5854V15.5854H15Z" fill="#828282"/>
<path d="M3.74926 9.67977C3.27185 10.5407 3 11.5313 3 12.5854V15.5854H0V12.5854C0 10.9286 1.34315 9.58545 3 9.58545C3.25871 9.58545 3.50977 9.6182 3.74926 9.67977Z" fill="#828282"/>
</svg>
