<svg width="37" height="37" viewBox="0 0 37 37" fill="none" xmlns="http://www.w3.org/2000/svg">
<path d="M36.9414 18.4231C36.9414 28.3642 28.8825 36.4231 18.9414 36.4231C9.00028 36.4231 0.941406 28.3642 0.941406 18.4231C0.941406 8.48197 9.00028 0.423096 18.9414 0.423096C28.8825 0.423096 36.9414 8.48197 36.9414 18.4231Z" fill="#E1E9FE"/>
<path d="M9.94141 8.4231C9.38912 8.4231 8.94141 8.87081 8.94141 9.4231C8.94141 9.97538 9.38912 10.4231 9.94141 10.4231V8.4231ZM11.9414 9.4231L12.922 9.22698C12.8285 8.75956 12.4181 8.4231 11.9414 8.4231V9.4231ZM23.9414 19.4231V20.4231C24.3202 20.4231 24.6664 20.2091 24.8358 19.8703L23.9414 19.4231ZM27.9414 11.4231L28.8358 11.8703C28.9908 11.5603 28.9743 11.1922 28.7921 10.8974C28.6098 10.6025 28.288 10.4231 27.9414 10.4231V11.4231ZM11.6485 21.716L10.9414 21.0089H10.9414L11.6485 21.716ZM9.94141 10.4231H11.9414V8.4231H9.94141V10.4231ZM13.9414 20.4231H23.9414V18.4231H13.9414V20.4231ZM24.8358 19.8703L28.8358 11.8703L27.047 10.9759L23.047 18.9759L24.8358 19.8703ZM10.9608 9.61921L11.3608 11.6192L13.322 11.227L12.922 9.22698L10.9608 9.61921ZM11.3608 11.6192L12.9608 19.6192L14.922 19.227L13.322 11.227L11.3608 11.6192ZM12.3414 12.4231H27.9414V10.4231H12.3414V12.4231ZM24.9414 25.4231C24.9414 25.9754 24.4937 26.4231 23.9414 26.4231V28.4231C25.5983 28.4231 26.9414 27.08 26.9414 25.4231H24.9414ZM23.9414 26.4231C23.3891 26.4231 22.9414 25.9754 22.9414 25.4231H20.9414C20.9414 27.08 22.2846 28.4231 23.9414 28.4231V26.4231ZM22.9414 25.4231C22.9414 24.8708 23.3891 24.4231 23.9414 24.4231V22.4231C22.2846 22.4231 20.9414 23.7662 20.9414 25.4231H22.9414ZM23.9414 24.4231C24.4937 24.4231 24.9414 24.8708 24.9414 25.4231H26.9414C26.9414 23.7662 25.5983 22.4231 23.9414 22.4231V24.4231ZM14.9414 25.4231C14.9414 25.9754 14.4937 26.4231 13.9414 26.4231V28.4231C15.5983 28.4231 16.9414 27.08 16.9414 25.4231H14.9414ZM13.9414 26.4231C13.3891 26.4231 12.9414 25.9754 12.9414 25.4231H10.9414C10.9414 27.08 12.2846 28.4231 13.9414 28.4231V26.4231ZM12.9414 25.4231C12.9414 24.8708 13.3891 24.4231 13.9414 24.4231V22.4231C12.2846 22.4231 10.9414 23.7662 10.9414 25.4231H12.9414ZM13.9414 24.4231C14.4937 24.4231 14.9414 24.8708 14.9414 25.4231H16.9414C16.9414 23.7662 15.5983 22.4231 13.9414 22.4231V24.4231ZM12.3556 24.4231H23.9414V22.4231H12.3556V24.4231ZM12.3556 22.4231L14.6485 20.1302L13.2343 18.716L10.9414 21.0089L12.3556 22.4231ZM12.3556 22.4231L12.3556 22.4231L10.9414 21.0089C9.68148 22.2688 10.5738 24.4231 12.3556 24.4231V22.4231Z" fill="#4A75F7"/>
</svg>
