<svg width="16" height="17" viewBox="0 0 16 17" fill="none" xmlns="http://www.w3.org/2000/svg">
<path fill-rule="evenodd" clip-rule="evenodd" d="M16 8.54883C16 12.9671 12.4183 16.5488 8 16.5488C3.58172 16.5488 0 12.9671 0 8.54883C0 4.13055 3.58172 0.548828 8 0.548828C12.4183 0.548828 16 4.13055 16 8.54883ZM14 8.54883C14 9.54144 13.759 10.4778 13.3322 11.3024L11.8076 9.77785C11.9325 9.39063 12 8.97761 12 8.54883C12 8.22019 11.9604 7.90081 11.8856 7.59521L13.4484 6.03243C13.8024 6.79771 14 7.6502 14 8.54883ZM8.83457 12.4616L10.4156 14.0427C9.67657 14.3682 8.85938 14.5488 8 14.5488C7.10137 14.5488 6.24889 14.3513 5.4836 13.9972L7.04638 12.4345C7.35198 12.5092 7.67136 12.5488 8 12.5488C8.2862 12.5488 8.56539 12.5188 8.83457 12.4616ZM4.15807 9.66591C4.05516 9.31138 4 8.93655 4 8.54883C4 8.21691 4.04043 7.89443 4.11663 7.58605L4.0378 7.66487L2.50611 6.13318C2.18068 6.87226 2 7.68944 2 8.54883C2 9.50269 2.22258 10.4046 2.61864 11.2053L4.15807 9.66591ZM5.24639 3.2166C6.07107 2.78987 7.00739 2.54883 8 2.54883C8.95386 2.54883 9.85573 2.77141 10.6565 3.16747L9.11708 4.7069C8.76255 4.60399 8.38772 4.54883 8 4.54883C7.57122 4.54883 7.1582 4.61629 6.77097 4.74119L5.24639 3.2166ZM10 8.54883C10 9.6534 9.10457 10.5488 8 10.5488C6.89543 10.5488 6 9.6534 6 8.54883C6 7.44426 6.89543 6.54883 8 6.54883C9.10457 6.54883 10 7.44426 10 8.54883Z" fill="#828282"/>
</svg>
