<svg width="19" height="17" viewBox="0 0 19 17" fill="none" xmlns="http://www.w3.org/2000/svg">
<path d="M16.9421 0.0290527H2.82369C1.2669 0.0290527 0 1.29595 0 2.85274V14.1475C0 15.7043 1.2669 16.9712 2.82369 16.9712H16.9421C17.9803 16.9712 18.8246 16.1269 18.8246 15.0887V1.91151C18.8246 0.873336 17.9803 0.0290527 16.9421 0.0290527ZM2.82369 15.0887C2.30413 15.0887 1.88246 14.6661 1.88246 14.1475V2.85274C1.88246 2.33412 2.30413 1.91151 2.82369 1.91151H16.9421V4.7352H11.2948C10.2566 4.7352 9.4123 5.57949 9.4123 6.61766V10.3826C9.4123 11.4208 10.2566 12.265 11.2948 12.265H16.9431V15.0887H2.82369ZM16.9421 6.61766V10.3826H11.2948V6.61766H16.9421Z" fill="#1C2D5E"/>
</svg>
