<svg width="20" height="20" viewBox="0 0 20 20" fill="currentColor" xmlns="http://www.w3.org/2000/svg">
<path d="M10 20C15.5229 20 20 15.5229 20 10C20 4.47714 15.5229 0 10 0C4.47714 0 0 4.47714 0 10C0 15.5229 4.47714 20 10 20ZM5.83073 16.9065L7.9844 14.7528C9.2669 15.2974 10.7315 15.298 12.0156 14.7528L14.1693 16.9065C11.6202 18.4516 8.3798 18.4516 5.83073 16.9065ZM13.2258 10C13.2258 11.7787 11.7787 13.2258 10 13.2258C8.22129 13.2258 6.77419 11.7787 6.77419 10C6.77419 8.22129 8.22129 6.77419 10 6.77419C11.7787 6.77419 13.2258 8.22129 13.2258 10ZM16.9065 14.1693L14.7528 12.0156C15.2973 10.7331 15.298 9.26851 14.7528 7.9844L16.9065 5.83073C18.4516 8.3798 18.4516 11.6202 16.9065 14.1693ZM14.1692 3.09355L12.0156 5.24722C10.7331 4.70266 9.26847 4.70198 7.9844 5.24722L5.83073 3.09355C8.3798 1.54843 11.6202 1.54843 14.1692 3.09355ZM3.09355 5.83073L5.24722 7.9844C4.70262 9.2669 4.70198 10.7315 5.24722 12.0156L3.09355 14.1693C1.54843 11.6202 1.54843 8.3798 3.09355 5.83073Z" fill="currentColor"/>
</svg>
