<svg width="21" height="21" viewBox="0 0 21 21" fill="none" xmlns="http://www.w3.org/2000/svg">
<path d="M18.2578 10.0618C18.2578 14.48 14.6761 18.0618 10.2578 18.0618V20.0618C15.7807 20.0618 20.2578 15.5846 20.2578 10.0618H18.2578ZM10.2578 18.0618C5.83953 18.0618 2.25781 14.48 2.25781 10.0618H0.257812C0.257812 15.5846 4.73496 20.0618 10.2578 20.0618V18.0618ZM2.25781 10.0618C2.25781 5.64349 5.83953 2.06177 10.2578 2.06177V0.0617676C4.73496 0.0617676 0.257812 4.53892 0.257812 10.0618H2.25781ZM10.2578 2.06177C14.6761 2.06177 18.2578 5.64349 18.2578 10.0618H20.2578C20.2578 4.53892 15.7807 0.0617676 10.2578 0.0617676V2.06177ZM13.2578 10.0618C13.2578 11.7186 11.9147 13.0618 10.2578 13.0618V15.0618C13.0192 15.0618 15.2578 12.8232 15.2578 10.0618H13.2578ZM10.2578 13.0618C8.60096 13.0618 7.25781 11.7186 7.25781 10.0618H5.25781C5.25781 12.8232 7.49639 15.0618 10.2578 15.0618V13.0618ZM7.25781 10.0618C7.25781 8.40491 8.60096 7.06177 10.2578 7.06177V5.06177C7.49639 5.06177 5.25781 7.30034 5.25781 10.0618H7.25781ZM10.2578 7.06177C11.9147 7.06177 13.2578 8.40491 13.2578 10.0618H15.2578C15.2578 7.30034 13.0192 5.06177 10.2578 5.06177V7.06177ZM15.9147 2.9907L12.3791 6.52623L13.7933 7.94045L17.3289 4.40491L15.9147 2.9907ZM12.3791 13.5973L15.9147 17.1328L17.3289 15.7186L13.7933 12.1831L12.3791 13.5973ZM8.13649 6.52623L4.60096 2.9907L3.18674 4.40491L6.72228 7.94045L8.13649 6.52623ZM6.72228 12.1831L3.18674 15.7186L4.60096 17.1328L8.13649 13.5973L6.72228 12.1831Z" fill="#1C2D5E"/>
</svg>
