<svg width="19" height="19" viewBox="0 0 19 19" fill="none" xmlns="http://www.w3.org/2000/svg">
<path d="M5.04289 11.0507L4.33579 11.7578H4.33579L5.04289 11.0507ZM7.45711 13.4649L6.75 14.172L6.75 14.172L7.45711 13.4649ZM14.4571 11.0507L15.1642 11.7578L14.4571 11.0507ZM3.75 2.75781H15.75V0.757812H3.75V2.75781ZM15.75 16.7578H3.75V18.7578H15.75V16.7578ZM3.75 16.7578C3.19772 16.7578 2.75 16.3101 2.75 15.7578H0.75C0.75 17.4147 2.09315 18.7578 3.75 18.7578V16.7578ZM16.75 15.7578C16.75 16.3101 16.3023 16.7578 15.75 16.7578V18.7578C17.4069 18.7578 18.75 17.4147 18.75 15.7578H16.75ZM15.75 2.75781C16.3023 2.75781 16.75 3.20553 16.75 3.75781H18.75C18.75 2.10096 17.4069 0.757812 15.75 0.757812V2.75781ZM3.75 0.757812C2.09315 0.757812 0.75 2.10096 0.75 3.75781H2.75C2.75 3.20553 3.19772 2.75781 3.75 2.75781V0.757812ZM4.33579 11.7578L6.75 14.172L8.16421 12.7578L5.75 10.3436L4.33579 11.7578ZM8.16421 14.7578H11.3358V12.7578H8.16421V14.7578ZM12.75 14.172L15.1642 11.7578L13.75 10.3436L11.3358 12.7578L12.75 14.172ZM15.1642 11.7578V9.75781C14.6338 9.75781 14.1251 9.96853 13.75 10.3436L15.1642 11.7578ZM11.3358 14.7578C11.8662 14.7578 12.3749 14.5471 12.75 14.172L11.3358 12.7578V14.7578ZM6.75 14.172C7.12507 14.5471 7.63378 14.7578 8.16421 14.7578V12.7578L8.16421 12.7578L6.75 14.172ZM4.33579 11.7578H4.33579L5.75 10.3436C5.37493 9.96853 4.86622 9.75781 4.33579 9.75781V11.7578ZM16.75 3.75781V10.7578H18.75V3.75781H16.75ZM16.75 10.7578V15.7578H18.75V10.7578H16.75ZM15.1642 11.7578H17.75V9.75781H15.1642V11.7578ZM2.75 15.7578V10.7578H0.75V15.7578H2.75ZM2.75 10.7578V3.75781H0.75V10.7578H2.75ZM4.33579 9.75781H1.75V11.7578H4.33579V9.75781Z" fill="#606C8E"/>
</svg>
