<svg width="20" height="18" viewBox="0 0 20 18" fill="inherit" xmlns="http://www.w3.org/2000/svg">
<g clip-path="url(#clip0)">
<path fill-rule="evenodd" clip-rule="evenodd" d="M3.71492 1.0588L0.0986077 8.54348C0.0848466 8.57132 0.0804858 8.60276 0.086163 8.63322C0.0918402 8.66368 0.107258 8.69154 0.130161 8.71275L9.89695 17.9344C9.9247 17.9607 9.96165 17.9753 10.0001 17.9753C10.0385 17.9753 10.0755 17.9607 10.1032 17.9344L19.87 8.71332C19.8929 8.69212 19.9083 8.66425 19.914 8.63379C19.9197 8.60334 19.9153 8.57189 19.9016 8.54405L16.2852 1.05938C16.2736 1.03424 16.2548 1.01295 16.2312 0.99804C16.2076 0.983134 16.1801 0.975246 16.152 0.975319H3.84931C3.82113 0.974973 3.79344 0.982671 3.76959 0.997484C3.74575 1.0123 3.72676 1.03359 3.71492 1.0588Z" fill="white"/>
<path fill-rule="evenodd" clip-rule="evenodd" d="M11.2545 9.31201C11.1844 9.31719 10.8222 9.33849 10.0141 9.33849C9.37131 9.33849 8.91496 9.31949 8.75486 9.31201C6.27095 9.20434 4.41692 8.77829 4.41692 8.26818C4.41692 7.75807 6.27095 7.3326 8.75486 7.22321V8.88768C8.9173 8.8992 9.38241 8.92626 10.0252 8.92626C10.7964 8.92626 11.1827 8.89459 11.2522 8.88826V7.22436C13.7309 7.33317 15.5808 7.75923 15.5808 8.26818C15.5808 8.77714 13.7315 9.20319 11.2522 9.31143L11.2545 9.31201ZM11.2545 7.05221V5.56276H14.7137V3.29145H5.29573V5.56276H8.75427V7.05164C5.94314 7.17888 3.8291 7.72756 3.8291 8.38506C3.8291 9.04256 5.94314 9.59067 8.75427 9.71848V14.4914H11.254V9.71676C14.0587 9.58952 16.1692 9.04141 16.1692 8.38448C16.1692 7.72756 14.0604 7.17945 11.254 7.05164L11.2545 7.05221Z" fill="inherit"/>
</g>
<defs>
<clipPath id="clip0">
<rect width="19.8333" height="17" fill="white" transform="translate(0.083252 0.975315)"/>
</clipPath>
</defs>
</svg>
