<svg width="37" height="37" viewBox="0 0 37 37" fill="none" xmlns="http://www.w3.org/2000/svg">
<path d="M36.9375 18.5312C36.9375 28.4724 28.8786 36.5312 18.9375 36.5312C8.99638 36.5312 0.9375 28.4724 0.9375 18.5312C0.9375 8.59013 8.99638 0.53125 18.9375 0.53125C28.8786 0.53125 36.9375 8.59013 36.9375 18.5312Z" fill="#E1E9FE"/>
<path d="M20.2304 9.82414L19.5233 10.5312L19.5233 10.5312L20.2304 9.82414ZM25.6446 15.2384L26.3517 14.5313L25.6446 15.2384ZM23.9375 26.5312H13.9375V28.5312H23.9375V26.5312ZM12.9375 25.5312V11.5312H10.9375V25.5312H12.9375ZM13.9375 10.5312H19.5233V8.53125H13.9375V10.5312ZM24.9375 15.9455V25.5312H26.9375V15.9455H24.9375ZM19.5233 10.5312L24.9375 15.9455L26.3517 14.5313L20.9375 9.11704L19.5233 10.5312ZM26.9375 15.9455C26.9375 15.415 26.7268 14.9063 26.3517 14.5313L24.9375 15.9455H24.9375H26.9375ZM19.5233 10.5312V10.5312L20.9375 9.11704C20.5624 8.74196 20.0537 8.53125 19.5233 8.53125V10.5312ZM13.9375 26.5312C13.3852 26.5312 12.9375 26.0835 12.9375 25.5312H10.9375C10.9375 27.1881 12.2806 28.5312 13.9375 28.5312V26.5312ZM23.9375 28.5312C25.5944 28.5312 26.9375 27.1881 26.9375 25.5312H24.9375C24.9375 26.0835 24.4898 26.5312 23.9375 26.5312V28.5312ZM12.9375 11.5312C12.9375 10.979 13.3852 10.5312 13.9375 10.5312V8.53125C12.2806 8.53125 10.9375 9.8744 10.9375 11.5312H12.9375Z" fill="#4A75F7"/>
</svg>
