<svg width="16" height="20" viewBox="0 0 16 20" fill="none" xmlns="http://www.w3.org/2000/svg">
<path d="M0.876145 7.45956C0.485621 7.85008 0.485621 8.48325 0.876145 8.87377C1.26667 9.2643 1.89983 9.2643 2.29036 8.87377L0.876145 7.45956ZM7.99992 1.75L8.70702 1.04289C8.51949 0.855357 8.26513 0.75 7.99992 0.75C7.7347 0.75 7.48035 0.855357 7.29281 1.04289L7.99992 1.75ZM13.7095 8.87377C14.1 9.2643 14.7332 9.2643 15.1237 8.87377C15.5142 8.48325 15.5142 7.85008 15.1237 7.45956L13.7095 8.87377ZM6.99992 18.25C6.99992 18.8023 7.44763 19.25 7.99992 19.25C8.5522 19.25 8.99992 18.8023 8.99992 18.25H6.99992ZM2.29036 8.87377L8.70702 2.45711L7.29281 1.04289L0.876145 7.45956L2.29036 8.87377ZM7.29281 2.45711L13.7095 8.87377L15.1237 7.45956L8.70702 1.04289L7.29281 2.45711ZM6.99992 1.75L6.99992 18.25H8.99992L8.99992 1.75L6.99992 1.75Z" fill="#1C2D5E"/>
</svg>
