<svg width="23" height="23" viewBox="0 0 23 23" fill="none" xmlns="http://www.w3.org/2000/svg">
<rect width="22" height="22" transform="translate(0.654297 0.738281)" fill="#D7EB36"/>
<path d="M6.07096 15.4062C6.07096 15.9585 6.51868 16.4062 7.07096 16.4062C7.62325 16.4062 8.07096 15.9585 8.07096 15.4062H6.07096ZM7.07096 4.40625L7.77807 3.69914C7.38755 3.30862 6.75438 3.30862 6.36386 3.69914L7.07096 4.40625ZM2.69719 7.36581C2.30667 7.75633 2.30667 8.3895 2.69719 8.78002C3.08771 9.17055 3.72088 9.17055 4.1114 8.78002L2.69719 7.36581ZM10.0305 8.78002C10.421 9.17055 11.0542 9.17055 11.4447 8.78002C11.8353 8.3895 11.8353 7.75633 11.4447 7.36581L10.0305 8.78002ZM17.2376 8.07292C17.2376 7.52063 16.7899 7.07292 16.2376 7.07292C15.6853 7.07292 15.2376 7.52063 15.2376 8.07292H17.2376ZM16.2376 19.0729L15.5305 19.78C15.921 20.1705 16.5542 20.1705 16.9447 19.78L16.2376 19.0729ZM20.6114 16.1134C21.0019 15.7228 21.0019 15.0897 20.6114 14.6991C20.2209 14.3086 19.5877 14.3086 19.1972 14.6991L20.6114 16.1134ZM13.2781 14.6991C12.8875 14.3086 12.2544 14.3086 11.8639 14.6991C11.4733 15.0897 11.4733 15.7228 11.8639 16.1134L13.2781 14.6991ZM8.07096 15.4062V4.40625H6.07096V15.4062H8.07096ZM4.1114 8.78002L7.77807 5.11336L6.36386 3.69914L2.69719 7.36581L4.1114 8.78002ZM6.36386 5.11336L10.0305 8.78002L11.4447 7.36581L7.77807 3.69914L6.36386 5.11336ZM15.2376 8.07292V19.0729H17.2376V8.07292H15.2376ZM19.1972 14.6991L15.5305 18.3658L16.9447 19.78L20.6114 16.1134L19.1972 14.6991ZM16.9447 18.3658L13.2781 14.6991L11.8639 16.1134L15.5305 19.78L16.9447 18.3658Z" fill="#1C2D5E"/>
</svg>
