<svg width="20" height="17" viewBox="0 0 20 17" fill="none" xmlns="http://www.w3.org/2000/svg">
<path d="M4.36393 12.1666C4.36393 12.7189 4.81165 13.1666 5.36393 13.1666C5.91622 13.1666 6.36393 12.7189 6.36393 12.1666H4.36393ZM5.36393 1.16663L6.07104 0.459519C5.68051 0.0689949 5.04735 0.0689949 4.65683 0.459519L5.36393 1.16663ZM0.990159 4.12619C0.599635 4.51671 0.599635 5.14988 0.990159 5.5404C1.38068 5.93092 2.01385 5.93092 2.40437 5.5404L0.990159 4.12619ZM8.32349 5.5404C8.71402 5.93092 9.34718 5.93092 9.73771 5.5404C10.1282 5.14988 10.1282 4.51671 9.73771 4.12619L8.32349 5.5404ZM15.5306 4.83329C15.5306 4.28101 15.0829 3.83329 14.5306 3.83329C13.9783 3.83329 13.5306 4.28101 13.5306 4.83329H15.5306ZM14.5306 15.8333L13.8235 16.5404C14.214 16.9309 14.8472 16.9309 15.2377 16.5404L14.5306 15.8333ZM18.9044 12.8737C19.2949 12.4832 19.2949 11.85 18.9044 11.4595C18.5138 11.069 17.8807 11.069 17.4902 11.4595L18.9044 12.8737ZM11.571 11.4595C11.1805 11.069 10.5473 11.069 10.1568 11.4595C9.7663 11.85 9.7663 12.4832 10.1568 12.8737L11.571 11.4595ZM6.36393 12.1666V1.16663H4.36393V12.1666H6.36393ZM2.40437 5.5404L6.07104 1.87373L4.65683 0.459519L0.990159 4.12619L2.40437 5.5404ZM4.65683 1.87373L8.32349 5.5404L9.73771 4.12619L6.07104 0.459519L4.65683 1.87373ZM13.5306 4.83329V15.8333H15.5306V4.83329H13.5306ZM17.4902 11.4595L13.8235 15.1262L15.2377 16.5404L18.9044 12.8737L17.4902 11.4595ZM15.2377 15.1262L11.571 11.4595L10.1568 12.8737L13.8235 16.5404L15.2377 15.1262Z" fill="#1C2D5E"/>
</svg>
