<svg width="25" height="25" viewBox="0 0 25 25" fill="none" xmlns="http://www.w3.org/2000/svg">
<path fill-rule="evenodd" clip-rule="evenodd" d="M10.6274 6.19529C8.50653 6.55096 6.7089 7.47608 5.33315 8.91977C5.09653 9.16813 4.90287 9.43804 4.90287 9.51961C4.90287 9.67667 6.46959 11.2712 6.66722 11.3151C6.72783 11.3287 7.02079 11.1076 7.31809 10.824C8.3033 9.88418 8.98971 9.45795 10.0498 9.1275C11.3783 8.71354 12.7536 8.72619 14.0657 9.16454C15.1296 9.51998 15.9484 10.0389 16.7606 10.8722C16.9692 11.0862 17.1993 11.2532 17.2857 11.2532C17.3815 11.2532 17.7418 10.9498 18.2426 10.4476C18.8578 9.83038 19.0457 9.59564 19.0457 9.4441C19.0457 9.29242 18.8972 9.1073 18.4084 8.65001C17.0919 7.41824 15.6054 6.64457 13.8451 6.27491C13.0479 6.10752 11.3944 6.06658 10.6274 6.19529ZM2.65798 11.6106C2.43873 11.6764 1.01172 13.1542 1.01172 13.3155C1.01172 13.4213 1.62667 14.0801 2.90117 15.3396C6.89238 19.2841 7.18594 19.5593 7.40182 19.5593C7.56547 19.5593 8.0152 19.1558 9.77857 17.4267C10.9747 16.2537 11.9771 15.294 12.006 15.294C12.035 15.294 13.0396 16.2537 14.2384 17.4267C16.0218 19.1716 16.4553 19.5593 16.6231 19.5593C16.7877 19.5593 17.0808 19.3118 18.1053 18.3071C21.7877 14.6964 23.0117 13.4521 23.0117 13.3195C23.0117 13.1616 21.5754 11.6606 21.3738 11.6078C21.3044 11.5897 21.1706 11.6033 21.0765 11.6382C20.9823 11.673 19.9459 12.6464 18.7734 13.8011L16.6415 15.9008L15.3929 14.7047C14.7062 14.0469 13.7571 13.1156 13.2838 12.6351C12.8105 12.1547 12.3229 11.7177 12.2003 11.6641C11.8933 11.5298 11.743 11.6209 10.9641 12.4131C10.6143 12.769 9.66415 13.7003 8.85277 14.4826L7.37758 15.9052L5.21492 13.7776C4.02549 12.6075 2.9888 11.6336 2.91128 11.6135C2.83368 11.5934 2.71971 11.592 2.65798 11.6106Z" fill="white"/>
<circle cx="20.0117" cy="4.83936" r="4" fill="#27AE60"/>
</svg>
