<svg width="22" height="14" viewBox="0 0 22 14" fill="none" xmlns="http://www.w3.org/2000/svg">
<path fill-rule="evenodd" clip-rule="evenodd" d="M9.61565 0.415019C7.49482 0.770685 5.69718 1.69581 4.32143 3.1395C4.08482 3.38786 3.89116 3.65777 3.89116 3.73933C3.89116 3.8964 5.45787 5.49088 5.6555 5.53488C5.71611 5.54842 6.00907 5.32737 6.30637 5.04377C7.29158 4.10391 7.97799 3.67767 9.03811 3.34723C10.3666 2.93327 11.7419 2.94591 13.054 3.38427C14.1179 3.73971 14.9367 4.25858 15.7489 5.09188C15.9575 5.3059 16.1876 5.47292 16.2739 5.47292C16.3698 5.47292 16.7301 5.16956 17.2309 4.6673C17.8461 4.0501 18.034 3.81536 18.034 3.66383C18.034 3.51215 17.8855 3.32702 17.3967 2.86974C16.0802 1.63796 14.5937 0.864297 12.8333 0.494637C12.0362 0.327243 10.3827 0.286312 9.61565 0.415019ZM1.64626 5.8303C1.42701 5.89615 0 7.37397 0 7.53523C0 7.64104 0.614952 8.29984 1.88946 9.55937C5.88066 13.5038 6.17422 13.779 6.3901 13.779C6.55376 13.779 7.00348 13.3755 8.76685 11.6464C9.96301 10.4734 10.9654 9.51373 10.9943 9.51373C11.0233 9.51373 12.0279 10.4734 13.2266 11.6464C15.0101 13.3913 15.4436 13.779 15.6114 13.779C15.776 13.779 16.0691 13.5315 17.0936 12.5268C20.776 8.91614 22 7.67187 22 7.53919C22 7.3813 20.5636 5.88029 20.3621 5.82754C20.2927 5.80943 20.1589 5.82305 20.0647 5.85792C19.9706 5.89271 18.9342 6.8661 17.7617 8.02087L15.6298 10.1205L14.3812 8.92444C13.6945 8.26661 12.7454 7.33528 12.2721 6.85487C11.7988 6.37447 11.3112 5.93746 11.1886 5.88381C10.8816 5.74956 10.7313 5.84063 9.95238 6.63285C9.60255 6.98875 8.65244 7.92 7.84105 8.70235L6.36586 10.1249L4.2032 7.99738C3.01378 6.82719 1.97708 5.85335 1.89956 5.83322C1.82196 5.81309 1.70799 5.81175 1.64626 5.8303Z" fill="white"/>
</svg>
