<svg  viewBox="0 -5 29 30" fill="none" xmlns="http://www.w3.org/2000/svg">
<path d="M22.2504 0.474976H4.25039C2.26559 0.474976 0.650391 2.26964 0.650391 4.47498V20.475C0.650391 22.6803 2.26559 24.475 4.25039 24.475H22.2504C23.574 24.475 24.6504 23.279 24.6504 21.8083V3.14164C24.6504 1.67098 23.574 0.474976 22.2504 0.474976ZM4.25039 21.8083C3.58799 21.8083 3.05039 21.2096 3.05039 20.475V4.47498C3.05039 3.74031 3.58799 3.14164 4.25039 3.14164H22.2504V7.14164H15.0504C13.7268 7.14164 12.6504 8.33764 12.6504 9.80831V15.1416C12.6504 16.6123 13.7268 17.8083 15.0504 17.8083H22.2516V21.8083H4.25039ZM22.2504 9.80831V15.1416H15.0504V9.80831H22.2504Z"   fill="currentcolor" />
</svg>
