<svg width="20" height="18" viewBox="0 0 20 18" fill="none" xmlns="http://www.w3.org/2000/svg">
<path d="M4 13C4 13.5523 4.44772 14 5 14C5.55228 14 6 13.5523 6 13H4ZM5 1L5.70711 0.292893C5.31658 -0.0976311 4.68342 -0.0976311 4.29289 0.292893L5 1ZM0.292893 4.29289C-0.0976311 4.68342 -0.0976311 5.31658 0.292893 5.70711C0.683417 6.09763 1.31658 6.09763 1.70711 5.70711L0.292893 4.29289ZM8.29289 5.70711C8.68342 6.09763 9.31658 6.09763 9.70711 5.70711C10.0976 5.31658 10.0976 4.68342 9.70711 4.29289L8.29289 5.70711ZM16 5C16 4.44772 15.5523 4 15 4C14.4477 4 14 4.44772 14 5H16ZM15 17L14.2929 17.7071C14.6834 18.0976 15.3166 18.0976 15.7071 17.7071L15 17ZM19.7071 13.7071C20.0976 13.3166 20.0976 12.6834 19.7071 12.2929C19.3166 11.9024 18.6834 11.9024 18.2929 12.2929L19.7071 13.7071ZM11.7071 12.2929C11.3166 11.9024 10.6834 11.9024 10.2929 12.2929C9.90237 12.6834 9.90237 13.3166 10.2929 13.7071L11.7071 12.2929ZM6 13V1H4V13H6ZM1.70711 5.70711L5.70711 1.70711L4.29289 0.292893L0.292893 4.29289L1.70711 5.70711ZM4.29289 1.70711L8.29289 5.70711L9.70711 4.29289L5.70711 0.292893L4.29289 1.70711ZM14 5V17H16V5H14ZM18.2929 12.2929L14.2929 16.2929L15.7071 17.7071L19.7071 13.7071L18.2929 12.2929ZM15.7071 16.2929L11.7071 12.2929L10.2929 13.7071L14.2929 17.7071L15.7071 16.2929Z" fill="#1C2D5E"/>
</svg>
