<svg width="37" height="37" viewBox="0 0 37 37" fill="none" xmlns="http://www.w3.org/2000/svg">
<path d="M36.7031 18.7632C36.7031 28.7043 28.6442 36.7632 18.7031 36.7632C8.762 36.7632 0.703125 28.7043 0.703125 18.7632C0.703125 8.82206 8.762 0.763184 18.7031 0.763184C28.6442 0.763184 36.7031 8.82206 36.7031 18.7632Z" fill="white"/>
<path d="M26.6453 10.7632H12.5268C10.97 10.7632 9.70312 12.0301 9.70312 13.5869V24.8816C9.70312 26.4384 10.97 27.7053 12.5268 27.7053H26.6453C27.6834 27.7053 28.5277 26.861 28.5277 25.8229V12.6456C28.5277 11.6075 27.6834 10.7632 26.6453 10.7632ZM12.5268 25.8229C12.0073 25.8229 11.5856 25.4002 11.5856 24.8816V13.5869C11.5856 13.0683 12.0073 12.6456 12.5268 12.6456H26.6453V15.4693H20.9979C19.9597 15.4693 19.1154 16.3136 19.1154 17.3518V21.1167C19.1154 22.1549 19.9597 22.9992 20.9979 22.9992H26.6462V25.8229H12.5268ZM26.6453 17.3518V21.1167H20.9979V17.3518H26.6453Z" fill="#4A75F7"/>
</svg>
