<svg width="21" height="20" viewBox="0 0 21 20" fill="none" xmlns="http://www.w3.org/2000/svg">
<path fill-rule="evenodd" clip-rule="evenodd" d="M8.75706 3.09882C9.52167 1.73952 11.4788 1.73952 12.2434 3.09882L17.8237 13.0194C18.5736 14.3526 17.6102 15.9999 16.0805 15.9999H4.9199C3.39025 15.9999 2.42682 14.3526 3.17675 13.0194L8.75706 3.09882ZM11.5001 13C11.5001 13.5523 11.0524 14 10.5001 14C9.94784 14 9.50012 13.5523 9.50012 13C9.50012 12.4477 9.94784 12 10.5001 12C11.0524 12 11.5001 12.4477 11.5001 13ZM10.5001 5C9.94784 5 9.50012 5.44772 9.50012 6V9C9.50012 9.55228 9.94784 10 10.5001 10C11.0524 10 11.5001 9.55228 11.5001 9V6C11.5001 5.44772 11.0524 5 10.5001 5Z" fill="#BC5B11"/>
</svg>
