<svg width="25" height="25" viewBox="0 0 25 25" fill="none" xmlns="http://www.w3.org/2000/svg">
<circle cx="12.0231" cy="12.2661" r="12" fill="#E1E9FE"/>
<path d="M15.3969 16.3066C15.7874 15.916 15.7874 15.2829 15.3969 14.8923C15.0064 14.5018 14.3732 14.5018 13.9827 14.8923L15.3969 16.3066ZM12.0231 18.2661L11.316 18.9732C11.5035 19.1608 11.7579 19.2661 12.0231 19.2661C12.2883 19.2661 12.5427 19.1608 12.7302 18.9732L12.0231 18.2661ZM10.0636 14.8923C9.67303 14.5018 9.03986 14.5018 8.64934 14.8923C8.25881 15.2829 8.25881 15.916 8.64934 16.3066L10.0636 14.8923ZM13.0231 6.26611C13.0231 5.71383 12.5754 5.26611 12.0231 5.26611C11.4708 5.26611 11.0231 5.71383 11.0231 6.26611L13.0231 6.26611ZM13.9827 14.8923L11.316 17.559L12.7302 18.9732L15.3969 16.3066L13.9827 14.8923ZM12.7302 17.559L10.0636 14.8923L8.64934 16.3066L11.316 18.9732L12.7302 17.559ZM13.0231 18.2661L13.0231 6.26611L11.0231 6.26611L11.0231 18.2661H13.0231Z" fill="#4A75F7"/>
</svg>
