<svg width="36" height="37" viewBox="0 0 36 37" fill="none" xmlns="http://www.w3.org/2000/svg">
<path d="M36 18.5C36 28.4411 27.9411 36.5 18 36.5C8.05888 36.5 0 28.4411 0 18.5C0 8.55888 8.05888 0.5 18 0.5C27.9411 0.5 36 8.55888 36 18.5Z" fill="#E1E9FE"/>
<path d="M25.9421 10.5H11.8237C10.2669 10.5 9 11.7669 9 13.3237V24.6184C9 26.1752 10.2669 27.4421 11.8237 27.4421H25.9421C26.9803 27.4421 27.8246 26.5979 27.8246 25.5597V12.3825C27.8246 11.3443 26.9803 10.5 25.9421 10.5ZM11.8237 25.5597C11.3041 25.5597 10.8825 25.1371 10.8825 24.6184V13.3237C10.8825 12.8051 11.3041 12.3825 11.8237 12.3825H25.9421V15.2061H20.2948C19.2566 15.2061 18.4123 16.0504 18.4123 17.0886V20.8535C18.4123 21.8917 19.2566 22.736 20.2948 22.736H25.9431V25.5597H11.8237ZM25.9421 17.0886V20.8535H20.2948V17.0886H25.9421Z" fill="#4A75F7"/>
</svg>
