<svg width="37" height="37" viewBox="0 0 37 37" fill="none" xmlns="http://www.w3.org/2000/svg">
<path d="M36.9844 18.5781C36.9844 28.5192 28.9255 36.5781 18.9844 36.5781C9.04325 36.5781 0.984375 28.5192 0.984375 18.5781C0.984375 8.637 9.04325 0.578125 18.9844 0.578125C28.9255 0.578125 36.9844 8.637 36.9844 18.5781Z" fill="#E1E9FE"/>
<path d="M26.9844 9.57812H11.9844C10.3304 9.57812 8.98438 10.9241 8.98438 12.5781V24.5781C8.98438 26.2321 10.3304 27.5781 11.9844 27.5781H26.9844C28.0874 27.5781 28.9844 26.6811 28.9844 25.5781V11.5781C28.9844 10.4751 28.0874 9.57812 26.9844 9.57812ZM11.9844 25.5781C11.4324 25.5781 10.9844 25.1291 10.9844 24.5781V12.5781C10.9844 12.0271 11.4324 11.5781 11.9844 11.5781H26.9844V14.5781H20.9844C19.8814 14.5781 18.9844 15.4751 18.9844 16.5781V20.5781C18.9844 21.6811 19.8814 22.5781 20.9844 22.5781H26.9854V25.5781H11.9844ZM26.9844 16.5781V20.5781H20.9844V16.5781H26.9844Z" fill="#4A75F7"/>
</svg>
