<svg width="20" height="21" viewBox="0 0 20 21" fill="currentColor" xmlns="http://www.w3.org/2000/svg">
<path d="M10 4.37097C7.8629 4.37097 6.12903 6.10484 6.12903 8.24194C6.12903 10.379 7.8629 12.1129 10 12.1129C12.1371 12.1129 13.871 10.379 13.871 8.24194C13.871 6.10484 12.1371 4.37097 10 4.37097ZM10 10.1774C8.93145 10.1774 8.06452 9.31048 8.06452 8.24194C8.06452 7.17339 8.93145 6.30645 10 6.30645C11.0685 6.30645 11.9355 7.17339 11.9355 8.24194C11.9355 9.31048 11.0685 10.1774 10 10.1774ZM10 0.5C4.47581 0.5 0 4.97581 0 10.5C0 16.0242 4.47581 20.5 10 20.5C15.5242 20.5 20 16.0242 20 10.5C20 4.97581 15.5242 0.5 10 0.5ZM10 18.5645C7.99597 18.5645 6.16532 17.8266 4.75403 16.6129C5.35484 15.6855 6.38306 15.0565 7.56048 15.0202C8.39919 15.2782 9.19758 15.4073 10 15.4073C10.8024 15.4073 11.6008 15.2823 12.4395 15.0202C13.6169 15.0605 14.6452 15.6855 15.246 16.6129C13.8347 17.8266 12.004 18.5645 10 18.5645ZM16.5605 15.1734C15.5766 13.9073 14.0565 13.0806 12.3226 13.0806C11.9113 13.0806 11.2742 13.4677 10 13.4677C8.72984 13.4677 8.08871 13.0806 7.67742 13.0806C5.94758 13.0806 4.42742 13.9073 3.43952 15.1734C2.49597 13.8548 1.93548 12.2419 1.93548 10.5C1.93548 6.05242 5.55242 2.43548 10 2.43548C14.4476 2.43548 18.0645 6.05242 18.0645 10.5C18.0645 12.2419 17.504 13.8548 16.5605 15.1734Z" fill="currentColor"/>
</svg>
