<svg width="19" height="19" viewBox="0 0 19 19" fill="none" xmlns="http://www.w3.org/2000/svg">
<path d="M14.8523 11.0654V17.0654M11.8523 14.0654H17.8523M3.85229 7.06543H5.85229C6.95686 7.06543 7.85229 6.17 7.85229 5.06543V3.06543C7.85229 1.96086 6.95686 1.06543 5.85229 1.06543H3.85229C2.74773 1.06543 1.85229 1.96086 1.85229 3.06543V5.06543C1.85229 6.17 2.74773 7.06543 3.85229 7.06543ZM13.8523 7.06543H15.8523C16.9569 7.06543 17.8523 6.17 17.8523 5.06543V3.06543C17.8523 1.96086 16.9569 1.06543 15.8523 1.06543H13.8523C12.7477 1.06543 11.8523 1.96086 11.8523 3.06543V5.06543C11.8523 6.17 12.7477 7.06543 13.8523 7.06543ZM3.85229 17.0654H5.85229C6.95686 17.0654 7.85229 16.17 7.85229 15.0654V13.0654C7.85229 11.9609 6.95686 11.0654 5.85229 11.0654H3.85229C2.74773 11.0654 1.85229 11.9609 1.85229 13.0654V15.0654C1.85229 16.17 2.74773 17.0654 3.85229 17.0654Z" stroke="#1C2D5E" stroke-width="2" stroke-linecap="round" stroke-linejoin="round"/>
</svg>
