<svg width="20" height="20" viewBox="0 0 20 20" fill="none" xmlns="http://www.w3.org/2000/svg">
<path d="M3 10H17V8H3V10ZM18 11V17H20V11H18ZM17 18H3V20H17V18ZM2 17V11H0V17H2ZM3 18C2.44772 18 2 17.5523 2 17H0C0 18.6569 1.34315 20 3 20V18ZM18 17C18 17.5523 17.5523 18 17 18V20C18.6569 20 20 18.6569 20 17H18ZM17 10C17.5523 10 18 10.4477 18 11H20C20 9.34315 18.6569 8 17 8V10ZM3 8C1.34315 8 0 9.34315 0 11H2C2 10.4477 2.44772 10 3 10V8ZM7 2H13V0H7V2ZM2 7V9H4V7H2ZM16 7V9H18V7H16ZM4 3V5H6V3H4ZM5 6H15V4H5V6ZM14 3V5H16V3H14ZM13 2C13.5523 2 14 2.44772 14 3H16C16 1.34315 14.6569 0 13 0V2ZM7 0C5.34315 0 4 1.34315 4 3H6C6 2.44772 6.44772 2 7 2V0ZM18 7C18 5.34315 16.6569 4 15 4V6C15.5523 6 16 6.44772 16 7H18ZM4 7C4 6.44772 4.44772 6 5 6V4C3.34315 4 2 5.34315 2 7H4Z" fill="#1C2D5E"/>
</svg>
