<svg width="22" height="17" viewBox="0 0 22 17" fill="none" xmlns="http://www.w3.org/2000/svg">
<path d="M4.53152 1.74997C7.30352 1.61197 9.45902 1.54297 10.999 1.54297C12.539 1.54297 14.6955 1.61197 17.4685 1.75047C18.1942 1.78668 18.882 2.085 19.4043 2.59003C19.9266 3.09505 20.2479 3.77246 20.3085 4.49647C20.4355 6.01347 20.4985 7.34947 20.4985 8.50497C20.4985 9.67447 20.4335 11.029 20.304 12.569C20.2437 13.2847 19.9285 13.955 19.4159 14.458C18.9033 14.9611 18.2272 15.2636 17.5105 15.3105C15.1395 15.4655 12.969 15.543 10.999 15.543C9.02902 15.543 6.85902 15.4655 4.49002 15.3105C3.77356 15.2636 3.09766 14.9614 2.58507 14.4586C2.07249 13.9558 1.75722 13.2859 1.69652 12.5705C1.56452 11.019 1.49902 9.66347 1.49902 8.50497C1.49902 7.35997 1.56302 6.02347 1.69152 4.49497C1.75236 3.77114 2.07376 3.09397 2.59605 2.58915C3.11834 2.08433 3.80605 1.78616 4.53152 1.74997V1.74997Z" stroke="#4A75F7" stroke-width="2" stroke-linejoin="round"/>
<path d="M9.5 6.34681V10.7448C9.49997 10.8223 9.52093 10.8983 9.56065 10.9648C9.60038 11.0313 9.65738 11.0857 9.7256 11.1224C9.79382 11.1591 9.8707 11.1766 9.94808 11.173C10.0254 11.1695 10.1004 11.1451 10.165 11.1023L13.4635 8.92231C13.5225 8.88345 13.5709 8.83062 13.6045 8.76852C13.6381 8.70642 13.6558 8.63698 13.6561 8.56637C13.6564 8.49576 13.6393 8.42617 13.6062 8.36379C13.5731 8.30141 13.5251 8.24817 13.4665 8.20881L10.1675 5.99081C10.103 5.94749 10.028 5.9225 9.95041 5.91853C9.87283 5.91456 9.79564 5.93175 9.72707 5.96826C9.65851 6.00478 9.60117 6.05924 9.56117 6.12583C9.52117 6.19242 9.50003 6.26863 9.5 6.34631V6.34681Z" stroke="#4A75F7" stroke-width="2" stroke-linejoin="round"/>
</svg>
