<svg width="361" height="381"  viewBox="0 0 361 381" fill="none" xmlns="http://www.w3.org/2000/svg">
<g clip-path="url(#clip0_10402_107679)">
<rect width="360" height="380" transform="translate(0.673828 0.722656)" fill="#1C2D5E"/>
<path d="M278.565 312.189C258.17 285.883 248.731 260.094 223.935 298.044C212.773 286.312 202.974 274.579 195.83 263.513C157.202 203.643 118.366 240.507 86.825 281.171C55.2842 321.835 18.8242 395.174 18.8242 395.174H347.124C347.124 395.174 299.079 338.653 278.565 312.189Z" fill="#F5F5F5"/>
<path d="M208.58 333.323C198.016 313.594 193.16 294.237 180.212 323.272C167.902 350.886 136.361 395.175 136.361 395.175H243.868C243.868 395.175 219.128 353.044 208.58 333.323Z" fill="#B0B6C7"/>
<path d="M34.1093 162.79C34.9043 162.763 35.6852 163.003 36.3258 163.473C41.1972 161.093 46.85 159.665 51.5779 159.832C53.5232 159.811 55.4425 160.277 57.1589 161.188C62.3493 157.626 69.0386 155.104 73.9658 155.104C76.7643 155.104 78.5422 155.897 79.212 157.285C84.5857 154.905 90.1428 153.43 94.6794 153.43C101.903 153.43 104.39 157.158 101.648 162.394C105.052 162.481 107.922 164.552 105.475 166.408H25.7139C25.8095 166.289 25.9052 166.178 26.0168 166.059C28.2038 163.993 31.0942 162.826 34.1093 162.79V162.79Z" fill="#FAFAFA"/>
<path d="M160.001 208.736C160.235 208.727 160.468 208.766 160.686 208.85C160.904 208.935 161.102 209.064 161.268 209.228C164.218 207.515 167.583 206.459 170.333 206.578C171.474 206.57 172.589 206.917 173.523 207.57V207.57C176.712 204.984 180.698 203.144 183.616 203.144C185.211 203.144 186.255 203.738 186.582 204.73C189.827 202.993 193.144 201.922 195.799 201.922C199.084 201.922 200.583 203.564 200.24 206.087C201.595 205.397 203.081 204.999 204.601 204.92C206.355 204.92 207.208 205.714 207.12 207.054C207.274 207.047 207.429 207.047 207.583 207.054C210.262 207.269 211.362 208.95 210.142 210.87H155.312C156.532 209.573 158.217 208.806 160.001 208.736V208.736Z" fill="#FAFAFA"/>
<path d="M43.6434 210.466C43.8042 210.459 43.9647 210.486 44.1144 210.545C44.2641 210.603 44.3997 210.693 44.5125 210.807C46.3984 209.642 48.5673 209.008 50.7871 208.975C51.5819 208.966 52.3595 209.205 53.0115 209.657C55.2121 207.872 57.9946 206.603 59.9878 206.603C61.128 206.603 61.8136 207.007 62.0448 207.697C63.988 206.56 66.1731 205.894 68.4231 205.754C70.6954 205.754 71.7399 206.888 71.5007 208.634C72.437 208.158 73.4645 207.888 74.5144 207.84C75.7263 207.84 76.3163 208.419 76.2525 209.316H76.5714C78.4291 209.466 79.1786 210.625 78.3414 211.949H40.3984C41.2426 211.051 42.408 210.518 43.6434 210.466V210.466Z" fill="#FAFAFA"/>
<path d="M284.583 218.849C284.818 218.838 285.053 218.877 285.272 218.963C285.49 219.049 285.688 219.181 285.851 219.349C288.809 217.628 292.174 216.573 294.924 216.692C296.066 216.681 297.181 217.028 298.113 217.683V217.683C301.303 215.097 305.289 213.265 308.199 213.265C309.842 213.265 310.846 213.852 311.173 214.851C314.418 213.114 317.735 212.043 320.382 212.043C323.667 212.043 325.165 213.685 324.831 216.208C326.185 215.517 327.672 215.12 329.192 215.042C330.946 215.042 331.799 215.875 331.711 217.176H332.166C334.852 217.398 335.945 219.071 334.733 220.991H279.903C281.119 219.692 282.801 218.923 284.583 218.849V218.849Z" fill="#FAFAFA"/>
<path d="M259.605 217.172H231.245L172.126 408.933C171.669 410.426 171.57 412.006 171.837 413.545C172.104 415.083 172.729 416.538 173.663 417.793C174.597 419.048 175.814 420.067 177.215 420.77C178.617 421.473 180.164 421.839 181.733 421.84H309.124C310.695 421.84 312.245 421.473 313.648 420.77C315.051 420.066 316.268 419.045 317.202 417.788C318.137 416.532 318.762 415.074 319.027 413.534C319.293 411.993 319.192 410.412 318.732 408.917L259.605 217.172Z" fill="#FF5C8A"/>
<path opacity="0.2" d="M259.605 217.172H245.429L227.45 421.84H309.124C310.696 421.84 312.245 421.473 313.648 420.77C315.051 420.066 316.268 419.045 317.203 417.788C318.137 416.532 318.762 415.074 319.028 413.534C319.293 411.993 319.192 410.412 318.732 408.917L259.605 217.172Z" fill="#263238"/>
<path opacity="0.2" d="M259.605 217.172H252.947L273.238 421.84H309.116C310.687 421.84 312.237 421.473 313.64 420.77C315.043 420.066 316.26 419.045 317.195 417.788C318.129 416.532 318.754 415.074 319.02 413.534C319.285 411.993 319.184 410.412 318.724 408.917L259.605 217.172Z" fill="#263238"/>
<path opacity="0.2" d="M231.245 217.172H238.078L189.18 421.84H181.733C180.162 421.84 178.613 421.473 177.21 420.77C175.807 420.066 174.589 419.045 173.655 417.788C172.721 416.532 172.096 415.074 171.83 413.534C171.565 411.993 171.666 410.412 172.126 408.917L231.245 217.172Z" fill="white"/>
<path d="M245.205 209.547C249.345 209.545 253.37 210.902 256.657 213.408C259.943 215.913 262.307 219.427 263.383 223.406L272.536 257.279L270.104 267.988L260.792 259.214L251.966 279.38L243.929 265.362L233.947 279.38L229.61 258.358L220.536 270.32L218.384 256.486L226.995 223.517C228.051 219.513 230.41 215.97 233.705 213.442C237 210.914 241.044 209.545 245.205 209.547V209.547Z" fill="#FF5C8A"/>
<path opacity="0.7" d="M245.205 209.547C249.345 209.545 253.37 210.902 256.657 213.408C259.943 215.913 262.307 219.427 263.383 223.406L272.536 257.279L270.104 267.988L260.792 259.214L251.966 279.38L243.929 265.362L233.947 279.38L229.61 258.358L220.536 270.32L218.384 256.486L226.995 223.517C228.051 219.513 230.41 215.97 233.705 213.442C237 210.914 241.044 209.545 245.205 209.547V209.547Z" fill="white"/>
<path d="M227.451 422.63C227.298 422.63 227.149 422.587 227.02 422.505C226.891 422.424 226.789 422.307 226.725 422.17L213.211 393.04C213.141 392.888 213.121 392.718 213.154 392.555C213.187 392.391 213.271 392.241 213.394 392.128L266.015 343.087L233.327 279.719C233.249 279.565 233.221 279.39 233.247 279.22L244.68 211.529C244.715 211.318 244.832 211.13 245.007 211.006C245.181 210.882 245.397 210.831 245.609 210.866C245.82 210.901 246.009 211.018 246.134 211.191C246.259 211.364 246.309 211.58 246.275 211.79L234.881 279.22L267.714 342.889C267.792 343.041 267.819 343.214 267.79 343.383C267.761 343.552 267.679 343.707 267.554 343.825L214.933 392.882L228.2 421.511C228.29 421.702 228.3 421.92 228.228 422.118C228.156 422.315 228.009 422.477 227.817 422.566C227.701 422.614 227.576 422.636 227.451 422.63V422.63Z" fill="white"/>
<path d="M274.852 345.097C275.881 340.76 273.181 336.415 268.823 335.391C264.464 334.368 260.097 337.054 259.069 341.39C258.04 345.727 260.739 350.072 265.098 351.095C269.456 352.119 273.823 349.433 274.852 345.097Z" fill="#FF5C8A"/>
<path d="M266.972 352.117C265.211 352.117 263.489 351.597 262.024 350.623C260.56 349.65 259.418 348.266 258.744 346.646C258.07 345.027 257.894 343.246 258.238 341.527C258.581 339.808 259.429 338.229 260.675 336.99C261.92 335.751 263.507 334.907 265.235 334.565C266.962 334.223 268.753 334.398 270.38 335.069C272.008 335.74 273.398 336.875 274.377 338.333C275.356 339.79 275.878 341.503 275.878 343.256C275.876 345.605 274.937 347.858 273.267 349.519C271.597 351.18 269.333 352.114 266.972 352.117ZM266.972 335.989C265.526 335.989 264.112 336.416 262.909 337.216C261.707 338.015 260.77 339.152 260.217 340.482C259.664 341.811 259.519 343.274 259.802 344.686C260.085 346.097 260.782 347.393 261.805 348.41C262.828 349.427 264.132 350.119 265.551 350.399C266.969 350.679 268.44 350.534 269.775 349.982C271.111 349.43 272.253 348.496 273.055 347.299C273.857 346.102 274.285 344.695 274.283 343.256C274.281 341.328 273.51 339.479 272.139 338.117C270.768 336.754 268.91 335.989 266.972 335.989Z" fill="white"/>
<path d="M234.02 287.424C238.498 287.424 242.128 283.812 242.128 279.357C242.128 274.901 238.498 271.289 234.02 271.289C229.541 271.289 225.911 274.901 225.911 279.357C225.911 283.812 229.541 287.424 234.02 287.424Z" fill="#FF5C8A"/>
<path d="M234.02 288.218C232.259 288.218 230.537 287.698 229.072 286.725C227.608 285.751 226.466 284.367 225.792 282.748C225.118 281.129 224.942 279.347 225.285 277.628C225.629 275.91 226.477 274.331 227.723 273.091C228.968 271.852 230.555 271.008 232.283 270.666C234.01 270.324 235.801 270.5 237.428 271.171C239.055 271.841 240.446 272.977 241.425 274.434C242.403 275.891 242.926 277.605 242.926 279.357C242.924 281.707 241.985 283.959 240.315 285.62C238.645 287.282 236.381 288.216 234.02 288.218V288.218ZM234.02 272.083C232.574 272.083 231.16 272.509 229.958 273.309C228.756 274.108 227.819 275.244 227.265 276.573C226.712 277.903 226.567 279.365 226.849 280.776C227.131 282.187 227.828 283.484 228.85 284.501C229.873 285.518 231.175 286.211 232.594 286.492C234.012 286.772 235.482 286.628 236.818 286.078C238.154 285.527 239.296 284.595 240.099 283.399C240.902 282.202 241.331 280.796 241.331 279.357C241.329 277.428 240.558 275.579 239.187 274.216C237.817 272.852 235.958 272.085 234.02 272.083V272.083Z" fill="white"/>
<path d="M253.783 212.165C254.499 207.754 251.486 203.6 247.053 202.887C242.619 202.174 238.445 205.172 237.728 209.583C237.012 213.994 240.025 218.148 244.458 218.861C248.891 219.574 253.066 216.576 253.783 212.165Z" fill="#FF5C8A"/>
<path d="M245.453 220.519C243.691 220.519 241.969 219.999 240.504 219.025C239.039 218.051 237.898 216.667 237.224 215.047C236.55 213.427 236.374 211.645 236.719 209.926C237.063 208.207 237.912 206.628 239.158 205.389C240.404 204.15 241.992 203.307 243.72 202.966C245.448 202.625 247.239 202.802 248.866 203.474C250.493 204.146 251.884 205.283 252.861 206.741C253.839 208.199 254.36 209.913 254.358 211.666C254.354 214.014 253.414 216.264 251.745 217.924C250.075 219.584 247.813 220.517 245.453 220.519V220.519ZM245.453 204.391C244.007 204.391 242.593 204.818 241.391 205.617C240.188 206.417 239.251 207.553 238.698 208.882C238.145 210.211 238 211.674 238.282 213.085C238.564 214.496 239.26 215.792 240.283 216.81C241.305 217.827 242.608 218.52 244.026 218.8C245.444 219.081 246.915 218.937 248.25 218.387C249.586 217.836 250.728 216.904 251.532 215.707C252.335 214.511 252.764 213.105 252.764 211.666C252.762 209.737 251.991 207.888 250.62 206.524C249.249 205.161 247.391 204.393 245.453 204.391V204.391Z" fill="white"/>
<path d="M213.273 190.089C220.449 192.516 227.561 187.709 234.713 190.089V177.967C227.537 175.587 220.417 180.395 213.273 177.967V190.089Z" fill="#1C2D5E"/>
<path d="M245.656 211.857C245.397 211.857 245.149 211.755 244.966 211.573C244.783 211.391 244.68 211.144 244.68 210.886V167.245C244.68 166.987 244.783 166.74 244.966 166.558C245.149 166.376 245.397 166.273 245.656 166.273C245.915 166.273 246.163 166.376 246.346 166.558C246.529 166.74 246.632 166.987 246.632 167.245V210.886C246.632 211.144 246.529 211.391 246.346 211.573C246.163 211.755 245.915 211.857 245.656 211.857Z" fill="#D7EB36"/>
<path d="M219.41 182.072C228.194 185.043 236.91 179.158 245.655 182.072V167.243C236.871 164.271 228.165 170.156 219.41 167.243V182.072Z" fill="#D7EB36"/>
<path d="M107.897 262.884L110.377 266.85L103.257 267.755C103.405 266.447 103.631 265.149 103.935 263.868C104.041 263.402 104.328 262.997 104.732 262.738C105.136 262.48 105.625 262.39 106.095 262.487L107.897 262.884Z" fill="#7F3E3B"/>
<path d="M109.787 273.214L104.245 271.524L103.257 267.764L110.377 266.859L109.787 273.214Z" fill="#7F3E3B"/>
<path d="M128.667 218.468C129.512 218.206 130.533 217.857 131.473 217.532C132.414 217.206 133.387 216.849 134.336 216.484C136.225 215.739 138.099 214.969 139.917 214.105C143.403 212.588 146.631 210.54 149.484 208.036C150.07 207.483 150.604 206.877 151.079 206.227L151.238 205.997C151.278 205.997 151.446 205.593 151.119 206.33C150.966 206.754 150.911 207.207 150.959 207.655C150.959 207.734 150.959 207.814 150.959 207.893L150.999 208.06C151.014 208.111 151.033 208.162 151.055 208.21V208.306C151.159 208.536 151.19 208.52 151.174 208.48C151.116 208.379 151.052 208.281 150.983 208.187C150.445 207.525 149.848 206.914 149.197 206.362C148.472 205.727 147.706 205.077 146.909 204.442C143.72 201.904 140.204 199.413 136.799 196.914L138.872 193.051C143.004 194.622 147.003 196.519 150.832 198.723C151.804 199.294 152.785 199.881 153.758 200.563C154.829 201.288 155.833 202.109 156.755 203.014C157.496 203.73 158.082 204.589 158.478 205.537L158.581 205.815L158.685 206.164C158.685 206.283 158.741 206.386 158.773 206.521C158.805 206.656 158.812 206.814 158.828 206.957C158.9 207.671 158.813 208.391 158.573 209.067C158.444 209.432 158.273 209.781 158.063 210.106L157.8 210.551C157.109 211.683 156.307 212.746 155.408 213.724C151.884 217.468 147.85 219.903 143.784 221.998C141.753 223.022 139.672 223.943 137.549 224.758C136.486 225.171 135.423 225.56 134.36 225.925C133.275 226.305 132.255 226.615 131.043 226.956L128.667 218.468Z" fill="#7F3E3B"/>
<path d="M131.903 191.576L127.661 194.337L133.736 195.725L135.291 191.457L131.903 191.576Z" fill="#7F3E3B"/>
<path d="M140.498 193.702L135.292 191.457L133.697 195.717C133.697 195.717 137.835 200.032 140.458 197.153L140.498 193.702Z" fill="#7F3E3B"/>
<path d="M109.499 226.047C107.537 229.585 105.552 233.242 103.662 236.851C101.773 240.461 99.9152 244.126 98.3685 247.759C97.9698 248.671 97.5712 249.568 97.2762 250.464L97.1566 250.765C97.1606 250.736 97.1606 250.707 97.1566 250.678C97.1566 250.623 97.1566 250.607 97.1566 250.615C97.1145 250.746 97.1145 250.888 97.1566 251.019C97.3382 251.69 97.6262 252.327 98.0097 252.907C98.474 253.668 98.9852 254.399 99.5405 255.097C102.094 258.154 104.868 261.023 107.84 263.68L105.385 267.305C101.416 265.306 97.7383 262.779 94.4538 259.793C93.5688 258.974 92.7453 258.091 91.9902 257.151C91.1033 256.061 90.3808 254.848 89.8455 253.55C89.5004 252.705 89.2958 251.81 89.2395 250.9C89.2061 250.37 89.2328 249.838 89.3192 249.314C89.3621 249.027 89.4233 248.744 89.5026 248.465L89.6382 248.021C89.9571 246.934 90.2999 245.863 90.6667 244.848C92.148 240.794 93.846 236.822 95.7534 232.948C97.6509 229.109 99.6202 225.396 101.821 221.684L109.499 226.047Z" fill="#7F3E3B"/>
<path d="M115.089 200.637C114.57 205.999 115.336 211.187 114.132 215.844C114.132 215.844 115.471 220.167 123.428 220.167C132.198 220.167 127.415 215.844 127.415 215.844C122.591 214.71 122.583 211.187 123.285 207.871L115.089 200.637Z" fill="#7F3E3B"/>
<path d="M113.04 217.325C112.362 215.961 111.605 214.39 113.04 213.898C114.635 213.359 123.181 212.812 126.187 213.827C126.987 214.042 127.671 214.558 128.095 215.265C128.519 215.973 128.65 216.817 128.46 217.619L113.04 217.325Z" fill="#1C2D5E"/>
<path d="M104.484 217.008C99.094 218.476 92.7236 233.302 92.7236 233.302L105.098 240.259C105.098 240.259 107.992 235.008 110.846 228.503C113.836 221.688 113.477 214.573 104.484 217.008Z" fill="#1C2D5E"/>
<path d="M139.495 243.195C139.495 249.7 139.056 257.792 138.084 267.835H106.75C106.368 263.313 108.241 242.172 103.784 220.817C103.681 220.337 103.677 219.842 103.774 219.361C103.871 218.88 104.066 218.424 104.347 218.021C104.628 217.618 104.989 217.276 105.408 217.018C105.827 216.759 106.294 216.589 106.782 216.517C108.68 216.239 111.056 215.954 113.392 215.843C117.826 215.589 122.272 215.589 126.706 215.843C128.542 216.012 130.368 216.277 132.176 216.636C133.425 216.875 134.584 217.455 135.521 218.311C136.459 219.167 137.139 220.265 137.486 221.483C138.513 225.543 139.112 229.699 139.272 233.882C139.431 236.563 139.519 239.641 139.495 243.195Z" fill="#1C2D5E"/>
<path d="M125.406 228.274C130.285 230.963 141.503 227.893 141.503 227.893L140.921 212.781C136.854 213.291 132.878 214.358 129.105 215.954C121.467 219.032 119.905 225.244 125.406 228.274Z" fill="#1C2D5E"/>
<path d="M131.816 214.613C131.816 214.613 129.552 215.407 128.714 215.652C125.709 218.937 123.835 226.068 123.835 226.068L127.662 231.098C126.211 223.649 131.816 214.613 131.816 214.613Z" fill="#FF5C8A"/>
<path opacity="0.2" d="M131.816 214.613C131.816 214.613 129.552 215.407 128.714 215.652C125.709 218.937 123.835 226.068 123.835 226.068L127.662 231.098C126.211 223.649 131.816 214.613 131.816 214.613Z" fill="black"/>
<path d="M139.502 252.027C136.512 254.319 130.572 248.988 130.572 248.988L130.748 251.693C136.193 256.223 139.414 253.978 139.414 253.978C139.536 253.335 139.566 252.678 139.502 252.027V252.027Z" fill="#FF5C8A"/>
<path opacity="0.2" d="M139.502 252.027C136.512 254.319 130.572 248.988 130.572 248.988L130.748 251.693C136.193 256.223 139.414 253.978 139.414 253.978C139.536 253.335 139.566 252.678 139.502 252.027V252.027Z" fill="black"/>
<path d="M111.644 215.652C110.748 215.718 109.86 215.862 108.989 216.081C107.645 219.493 107.342 223.224 108.12 226.806L111.564 225.267C111.564 225.267 110.448 220.079 111.644 215.652Z" fill="#FF5C8A"/>
<path opacity="0.2" d="M111.644 215.652C110.748 215.718 109.86 215.862 108.989 216.081C107.645 219.493 107.342 223.224 108.12 226.806L111.564 225.267C111.564 225.267 110.448 220.079 111.644 215.652Z" fill="black"/>
<path d="M107.602 226.094C109.475 223.183 123.858 223.508 126.968 225.896C130.077 228.284 133.832 254.32 129.232 257.231C124.632 260.142 103.408 261.53 103.256 255.644C103.105 249.758 107.937 239.525 107.362 236.145C106.788 232.766 105.058 230.061 107.602 226.094Z" fill="#FF5C8A"/>
<path opacity="0.4" d="M107.802 235.182C107.802 235.182 113.048 237.213 124.146 234.746C121.986 235.873 110.584 238.435 107.802 235.182Z" fill="#263238"/>
<path opacity="0.4" d="M114.139 234.424C114.203 234.907 113.932 235.304 113.525 235.304C113.304 235.276 113.098 235.173 112.943 235.013C112.788 234.853 112.692 234.645 112.672 234.424C112.609 233.94 112.88 233.543 113.278 233.543C113.502 233.569 113.709 233.671 113.866 233.831C114.022 233.992 114.119 234.201 114.139 234.424V234.424Z" fill="#263238"/>
<path opacity="0.4" d="M126.361 257.628H126.305C126.279 257.621 126.255 257.61 126.234 257.594C126.213 257.578 126.196 257.557 126.183 257.534C126.17 257.511 126.163 257.486 126.16 257.459C126.158 257.433 126.161 257.407 126.17 257.382C127.86 251.829 127.653 244.261 125.548 234.781C124.671 230.815 125.667 227.039 126.194 226.253C126.208 226.231 126.227 226.213 126.249 226.198C126.271 226.183 126.296 226.173 126.322 226.168C126.347 226.163 126.374 226.163 126.4 226.168C126.426 226.173 126.451 226.183 126.473 226.198C126.495 226.212 126.513 226.231 126.528 226.253C126.543 226.275 126.553 226.299 126.558 226.325C126.563 226.351 126.564 226.377 126.558 226.403C126.553 226.429 126.543 226.453 126.528 226.475C125.986 227.269 125.125 231.061 125.93 234.694C128.059 244.213 128.267 251.916 126.552 257.493C126.538 257.532 126.512 257.566 126.478 257.59C126.444 257.614 126.403 257.627 126.361 257.628V257.628Z" fill="#263238"/>
<path d="M126.967 267.833C126.967 267.833 122.048 312.36 119.042 329.019C115.758 347.264 98.7355 404.643 98.7355 404.643L88.2432 402.421C88.2432 402.421 99.9633 348.771 101.542 330.677C103.248 311.043 106.748 267.801 106.748 267.801L126.967 267.833Z" fill="#FF5C8A"/>
<path opacity="0.2" d="M123.381 283.699C115.759 285.198 117.672 313.717 119.171 328.385C120.981 318.016 123.453 298.065 125.119 283.905C124.58 283.643 123.967 283.57 123.381 283.699V283.699Z" fill="black"/>
<path d="M138.082 267.836C138.082 267.836 140.578 311.411 140.634 329.181C140.681 347.664 136.543 408.192 136.543 408.192H126.625C126.625 408.192 123.954 348.743 122.806 330.593C121.554 310.761 117.488 267.836 117.488 267.836H138.082Z" fill="#FF5C8A"/>
<path d="M128.388 195.084C128.452 195.552 128.755 195.877 129.066 195.877C129.377 195.877 129.568 195.449 129.504 194.981C129.44 194.513 129.129 194.188 128.826 194.188C128.523 194.188 128.324 194.616 128.388 195.084Z" fill="#263238"/>
<path d="M128.714 195.906C129.48 197.276 130.426 198.538 131.528 199.658C131.233 199.92 130.884 200.114 130.505 200.227C130.126 200.339 129.727 200.367 129.336 200.309L128.714 195.906Z" fill="#630F0F"/>
<path d="M128.579 192.042C128.621 192.026 128.658 192 128.688 191.967C128.719 191.934 128.741 191.895 128.755 191.852C128.764 191.817 128.767 191.78 128.762 191.743C128.757 191.707 128.745 191.672 128.726 191.64C128.708 191.608 128.683 191.581 128.654 191.558C128.625 191.536 128.591 191.52 128.555 191.511C128.131 191.429 127.693 191.448 127.277 191.567C126.861 191.685 126.48 191.9 126.163 192.193C126.131 192.216 126.103 192.245 126.083 192.279C126.063 192.313 126.05 192.351 126.046 192.391C126.041 192.43 126.045 192.47 126.058 192.508C126.07 192.545 126.091 192.58 126.118 192.609C126.145 192.638 126.178 192.661 126.214 192.677C126.251 192.692 126.291 192.7 126.331 192.698C126.37 192.697 126.41 192.688 126.445 192.67C126.481 192.653 126.513 192.628 126.538 192.598C126.788 192.361 127.092 192.188 127.424 192.093C127.755 191.997 128.105 191.983 128.444 192.05C128.489 192.058 128.535 192.055 128.579 192.042V192.042Z" fill="#263238"/>
<path d="M112.57 195.692C113.742 201.38 114.164 204.751 117.465 207.393C118.534 208.263 119.822 208.826 121.189 209.02C122.557 209.213 123.951 209.031 125.222 208.493C126.493 207.954 127.591 207.08 128.398 205.964C129.205 204.849 129.689 203.535 129.799 202.165C130.309 196.898 128.308 188.489 122.337 186.783C121.056 186.381 119.691 186.321 118.379 186.61C117.068 186.899 115.856 187.526 114.866 188.43C113.876 189.333 113.142 190.479 112.739 191.754C112.336 193.029 112.278 194.387 112.57 195.692V195.692Z" fill="#7F3E3B"/>
<path d="M124.863 196.542C123.891 199.541 118.485 205.268 116.563 205.713C114.642 206.157 109.388 201.635 108.917 199.271C107.004 199.057 104.931 195.257 107.833 193.766C105.68 192.679 106.239 187.007 110.616 187.42C107.953 184.865 111.15 180.542 114.786 181.692C115.655 179.487 120.566 178.075 123.396 181.47C125.605 180.232 129.472 182.723 129.185 186.452C129.035 187.606 128.554 188.692 127.798 189.58C127.043 190.468 126.046 191.12 124.927 191.457C125.876 192.576 124.863 196.542 124.863 196.542Z" fill="#263238"/>
<path d="M121.97 195.749C122.296 197.173 123.069 198.457 124.178 199.414C125.653 200.668 126.833 199.644 126.801 197.923C126.801 196.336 125.964 193.861 124.306 193.266C122.648 192.671 121.603 194.044 121.97 195.749Z" fill="#7F3E3B"/>
</g>
<defs>
<clipPath id="clip0_10402_107679">
<rect width="360" height="380" stroke-width="0.00000" transform="translate(0.673828 0.722656)"/>
</clipPath>
</defs>
</svg>
