<svg width="365" height="261" viewBox="0 0 365 261" fill="none" xmlns="http://www.w3.org/2000/svg">
<g clip-path="url(#clip0_101_89)">
<rect width="364" height="260" transform="translate(0.231445 0.425781)" fill="#1C2D5E"/>
<path d="M281.21 206.522C260.589 185.149 251.044 164.195 225.973 195.03C214.687 185.497 204.78 175.964 197.557 166.973C158.499 118.329 119.231 148.281 87.34 181.321C55.4488 214.36 18.5836 273.948 18.5836 273.948H350.531C350.531 273.948 301.953 228.024 281.21 206.522Z" fill="#F5F5F5"/>
<path d="M210.447 223.694C199.765 207.664 194.856 191.937 181.764 215.527C169.317 237.964 137.426 273.949 137.426 273.949H246.127C246.127 273.949 221.112 239.717 210.447 223.694Z" fill="#B0B6C7"/>
<path d="M34.0384 85.1364C34.8421 85.1141 35.6318 85.3094 36.2794 85.6907C41.205 83.7571 46.9206 82.5969 51.7011 82.7322C53.6679 82.7152 55.6085 83.0943 57.3441 83.8344C62.5921 80.9404 69.3557 78.8908 74.3377 78.8908C77.1673 78.8908 78.965 79.5353 79.6421 80.6632C85.0756 78.7296 90.6944 77.5308 95.2814 77.5308C102.585 77.5308 105.1 80.5601 102.327 84.8141C105.769 84.885 108.672 86.5673 106.197 88.0755H25.5496C25.6464 87.9788 25.7431 87.8886 25.856 87.7919C28.0672 86.1136 30.9897 85.1652 34.0384 85.1364Z" fill="#FAFAFA"/>
<path d="M161.328 122.468C161.564 122.461 161.8 122.492 162.021 122.561C162.242 122.63 162.442 122.734 162.61 122.868C165.592 121.476 168.994 120.619 171.776 120.715C172.929 120.709 174.056 120.99 175 121.521V121.521C178.225 119.42 182.256 117.924 185.206 117.924C186.818 117.924 187.874 118.408 188.205 119.214C191.486 117.802 194.839 116.932 197.524 116.932C200.845 116.932 202.361 118.266 202.014 120.316C203.384 119.755 204.887 119.432 206.424 119.368C208.197 119.368 209.06 120.013 208.971 121.102C209.127 121.096 209.283 121.096 209.439 121.102C212.147 121.276 213.26 122.643 212.027 124.202H156.588C157.821 123.148 159.524 122.525 161.328 122.468V122.468Z" fill="#FAFAFA"/>
<path d="M43.6785 123.873C43.8411 123.867 44.0034 123.889 44.1548 123.937C44.3061 123.985 44.4433 124.057 44.5572 124.15C46.4642 123.203 48.6571 122.688 50.9016 122.661C51.7052 122.654 52.4915 122.848 53.1508 123.215C55.3757 121.765 58.1892 120.734 60.2046 120.734C61.3574 120.734 62.0507 121.063 62.2844 121.623C64.2492 120.699 66.4586 120.158 68.7336 120.044C71.0311 120.044 72.0872 120.966 71.8453 122.384C72.792 121.998 73.831 121.778 74.8926 121.739C76.1179 121.739 76.7145 122.21 76.65 122.938H76.9724C78.8508 123.061 79.6085 124.002 78.7621 125.078H40.3975C41.251 124.348 42.4294 123.915 43.6785 123.873V123.873Z" fill="#FAFAFA"/>
<path d="M287.296 130.686C287.533 130.676 287.771 130.708 287.992 130.778C288.213 130.848 288.412 130.955 288.578 131.092C291.568 129.693 294.97 128.836 297.752 128.932C298.906 128.924 300.034 129.206 300.976 129.738V129.738C304.201 127.637 308.231 126.148 311.174 126.148C312.835 126.148 313.85 126.625 314.181 127.437C317.462 126.025 320.815 125.155 323.492 125.155C326.813 125.155 328.329 126.49 327.99 128.539C329.36 127.978 330.863 127.655 332.4 127.592C334.173 127.592 335.036 128.268 334.947 129.326H335.407C338.123 129.506 339.228 130.866 338.003 132.426H282.564C283.793 131.37 285.493 130.745 287.296 130.686V130.686Z" fill="#FAFAFA"/>
<path d="M262.039 129.32H233.364L173.588 285.126C173.126 286.339 173.026 287.623 173.296 288.873C173.566 290.123 174.198 291.305 175.142 292.325C176.087 293.344 177.317 294.172 178.734 294.743C180.151 295.314 181.715 295.612 183.302 295.612H312.108C313.697 295.613 315.263 295.315 316.682 294.743C318.101 294.172 319.332 293.342 320.276 292.321C321.221 291.3 321.853 290.116 322.122 288.864C322.39 287.612 322.288 286.327 321.822 285.113L262.039 129.32Z" fill="#FF5C8A"/>
<path opacity="0.2" d="M262.039 129.32H247.706L229.528 295.612H312.109C313.698 295.613 315.264 295.315 316.683 294.743C318.102 294.172 319.333 293.342 320.277 292.321C321.222 291.3 321.854 290.116 322.123 288.864C322.391 287.612 322.289 286.327 321.823 285.113L262.039 129.32Z" fill="#263238"/>
<path opacity="0.2" d="M262.039 129.32H255.307L275.824 295.612H312.101C313.689 295.613 315.256 295.315 316.674 294.743C318.093 294.172 319.324 293.342 320.269 292.321C321.213 291.3 321.845 290.116 322.114 288.864C322.382 287.612 322.28 286.327 321.815 285.113L262.039 129.32Z" fill="#263238"/>
<path opacity="0.2" d="M233.364 129.32H240.273L190.832 295.612H183.303C181.714 295.613 180.148 295.315 178.729 294.743C177.31 294.172 176.079 293.342 175.135 292.321C174.19 291.3 173.558 290.116 173.289 288.864C173.021 287.612 173.123 286.327 173.589 285.113L233.364 129.32Z" fill="white"/>
<path d="M247.48 123.124C251.666 123.123 255.736 124.226 259.059 126.261C262.382 128.297 264.772 131.152 265.86 134.385L275.114 161.907L272.656 170.608L263.24 163.479L254.316 179.864L246.19 168.474L236.097 179.864L231.711 162.783L222.537 172.503L220.361 161.262L229.067 134.475C230.135 131.221 232.521 128.343 235.852 126.289C239.184 124.235 243.273 123.122 247.48 123.124V123.124Z" fill="#FF5C8A"/>
<path opacity="0.7" d="M247.48 123.124C251.666 123.123 255.736 124.226 259.059 126.261C262.382 128.297 264.772 131.152 265.86 134.385L275.114 161.907L272.656 170.608L263.24 163.479L254.316 179.864L246.19 168.474L236.097 179.864L231.711 162.783L222.537 172.503L220.361 161.262L229.067 134.475C230.135 131.221 232.521 128.343 235.852 126.289C239.184 124.235 243.273 123.122 247.48 123.124V123.124Z" fill="white"/>
<path d="M229.528 296.257C229.373 296.257 229.222 296.222 229.092 296.156C228.962 296.089 228.859 295.995 228.794 295.883L215.13 272.215C215.059 272.092 215.039 271.954 215.072 271.821C215.106 271.687 215.191 271.566 215.315 271.474L268.521 231.628L235.469 180.142C235.39 180.017 235.362 179.875 235.388 179.736L246.948 124.737C246.984 124.566 247.102 124.413 247.279 124.312C247.455 124.211 247.674 124.171 247.888 124.199C248.101 124.227 248.292 124.322 248.419 124.463C248.545 124.604 248.596 124.779 248.561 124.95L237.041 179.736L270.238 231.467C270.317 231.591 270.344 231.732 270.315 231.869C270.286 232.006 270.203 232.132 270.077 232.228L216.871 272.086L230.285 295.348C230.376 295.503 230.386 295.68 230.314 295.841C230.241 296.001 230.092 296.132 229.898 296.205C229.781 296.244 229.654 296.262 229.528 296.257V296.257Z" fill="white"/>
<path d="M277.456 233.259C278.496 229.736 275.767 226.205 271.36 225.373C266.953 224.542 262.538 226.724 261.498 230.247C260.457 233.771 263.187 237.301 267.594 238.133C272 238.965 276.416 236.782 277.456 233.259Z" fill="#FF5C8A"/>
<path d="M269.488 238.962C267.707 238.962 265.966 238.54 264.486 237.749C263.005 236.958 261.851 235.834 261.169 234.518C260.488 233.202 260.309 231.755 260.657 230.358C261.004 228.962 261.862 227.679 263.121 226.672C264.38 225.665 265.985 224.979 267.732 224.702C269.478 224.424 271.289 224.566 272.934 225.111C274.58 225.656 275.986 226.579 276.976 227.763C277.965 228.947 278.493 230.339 278.493 231.763C278.491 233.672 277.542 235.502 275.853 236.852C274.165 238.202 271.876 238.961 269.488 238.962ZM269.488 225.859C268.026 225.859 266.596 226.206 265.381 226.855C264.165 227.505 263.217 228.429 262.658 229.509C262.099 230.589 261.953 231.778 262.239 232.925C262.525 234.071 263.229 235.125 264.264 235.951C265.299 236.777 266.617 237.34 268.051 237.567C269.486 237.794 270.972 237.676 272.323 237.228C273.674 236.78 274.828 236.021 275.639 235.048C276.45 234.075 276.882 232.932 276.881 231.763C276.879 230.196 276.099 228.695 274.713 227.588C273.327 226.481 271.448 225.859 269.488 225.859Z" fill="white"/>
<path d="M236.17 186.4C240.698 186.4 244.368 183.466 244.368 179.845C244.368 176.225 240.698 173.29 236.17 173.29C231.642 173.29 227.971 176.225 227.971 179.845C227.971 183.466 231.642 186.4 236.17 186.4Z" fill="#FF5C8A"/>
<path d="M236.171 187.045C234.39 187.045 232.649 186.623 231.168 185.831C229.687 185.04 228.533 183.916 227.851 182.6C227.17 181.285 226.991 179.837 227.339 178.441C227.686 177.044 228.544 175.761 229.803 174.754C231.063 173.747 232.667 173.062 234.414 172.784C236.161 172.506 237.971 172.649 239.616 173.194C241.262 173.739 242.668 174.661 243.658 175.845C244.647 177.029 245.175 178.421 245.175 179.845C245.173 181.754 244.224 183.584 242.535 184.934C240.847 186.284 238.558 187.043 236.171 187.045V187.045ZM236.171 173.935C234.708 173.935 233.279 174.281 232.064 174.931C230.848 175.58 229.9 176.503 229.341 177.583C228.781 178.663 228.635 179.852 228.92 180.998C229.205 182.145 229.91 183.198 230.943 184.025C231.977 184.851 233.294 185.414 234.728 185.642C236.162 185.87 237.649 185.753 238.999 185.306C240.35 184.858 241.505 184.101 242.317 183.129C243.129 182.157 243.563 181.014 243.563 179.845C243.561 178.278 242.781 176.776 241.395 175.668C240.009 174.56 238.13 173.936 236.171 173.935V173.935Z" fill="white"/>
<path d="M256.153 125.251C256.877 121.667 253.831 118.292 249.348 117.713C244.865 117.134 240.644 119.57 239.92 123.154C239.195 126.738 242.242 130.113 246.724 130.692C251.207 131.271 255.428 128.835 256.153 125.251Z" fill="#FF5C8A"/>
<path d="M247.73 132.04C245.949 132.04 244.208 131.617 242.727 130.826C241.246 130.034 240.092 128.91 239.41 127.594C238.729 126.278 238.551 124.83 238.899 123.433C239.247 122.036 240.106 120.754 241.366 119.747C242.626 118.74 244.231 118.055 245.979 117.778C247.726 117.501 249.537 117.644 251.182 118.19C252.827 118.736 254.233 119.66 255.221 120.845C256.21 122.03 256.737 123.422 256.735 124.846C256.731 126.754 255.78 128.583 254.092 129.931C252.404 131.28 250.116 132.038 247.73 132.04V132.04ZM247.73 118.936C246.268 118.936 244.839 119.283 243.623 119.932C242.408 120.582 241.46 121.505 240.901 122.585C240.341 123.665 240.195 124.853 240.48 126C240.765 127.146 241.469 128.199 242.503 129.026C243.537 129.852 244.854 130.415 246.288 130.643C247.722 130.871 249.208 130.754 250.559 130.307C251.91 129.86 253.065 129.102 253.877 128.13C254.689 127.158 255.123 126.015 255.123 124.846C255.121 123.279 254.341 121.777 252.955 120.669C251.569 119.561 249.69 118.938 247.73 118.936V118.936Z" fill="white"/>
<path d="M215.193 107.315C222.449 109.287 229.64 105.381 236.871 107.315V97.4665C229.615 95.5328 222.417 99.4388 215.193 97.4665V107.315Z" fill="#1C2D5E"/>
<path d="M247.935 125.002C247.673 125.002 247.422 124.919 247.237 124.771C247.052 124.623 246.948 124.423 246.948 124.213V88.7548C246.948 88.5455 247.052 88.3448 247.237 88.1969C247.422 88.0489 247.673 87.9658 247.935 87.9658C248.197 87.9658 248.448 88.0489 248.633 88.1969C248.818 88.3448 248.922 88.5455 248.922 88.7548V124.213C248.922 124.423 248.818 124.623 248.633 124.771C248.448 124.919 248.197 125.002 247.935 125.002Z" fill="#D7EB36"/>
<path d="M221.398 100.803C230.28 103.217 239.092 98.4355 247.934 100.803V88.7542C239.053 86.3398 230.25 91.1213 221.398 88.7542V100.803Z" fill="#D7EB36"/>
<path d="M108.646 166.464L111.153 169.686L103.954 170.421C104.103 169.358 104.332 168.304 104.639 167.263C104.747 166.884 105.037 166.555 105.445 166.345C105.854 166.136 106.349 166.062 106.824 166.141L108.646 166.464Z" fill="#7F3E3B"/>
<path d="M110.556 174.856L104.954 173.483L103.954 170.428L111.153 169.693L110.556 174.856Z" fill="#7F3E3B"/>
<path d="M129.646 130.376C130.501 130.163 131.533 129.88 132.484 129.615C133.435 129.351 134.419 129.061 135.378 128.764C137.289 128.159 139.183 127.533 141.021 126.831C144.546 125.598 147.81 123.935 150.695 121.9C151.287 121.451 151.827 120.959 152.307 120.431L152.468 120.244C152.509 120.244 152.678 119.915 152.348 120.514C152.193 120.859 152.138 121.227 152.186 121.591C152.186 121.655 152.186 121.72 152.186 121.784L152.227 121.919C152.242 121.961 152.261 122.002 152.283 122.042V122.119C152.388 122.306 152.42 122.293 152.404 122.261C152.345 122.179 152.28 122.099 152.21 122.023C151.667 121.485 151.062 120.989 150.405 120.54C149.671 120.024 148.897 119.496 148.091 118.98C144.866 116.918 141.311 114.894 137.869 112.864L139.965 109.725C144.143 111.001 148.186 112.543 152.057 114.333C153.041 114.797 154.032 115.274 155.016 115.828C156.1 116.418 157.114 117.084 158.047 117.82C158.795 118.402 159.388 119.099 159.788 119.87L159.893 120.095L159.998 120.379C159.998 120.476 160.054 120.559 160.087 120.669C160.119 120.779 160.127 120.908 160.143 121.024C160.216 121.603 160.128 122.189 159.885 122.738C159.754 123.034 159.581 123.318 159.369 123.582L159.103 123.943C158.404 124.864 157.594 125.727 156.685 126.521C153.121 129.564 149.042 131.542 144.931 133.244C142.878 134.076 140.774 134.825 138.627 135.487C137.552 135.822 136.477 136.138 135.402 136.435C134.306 136.744 133.274 136.995 132.049 137.272L129.646 130.376Z" fill="#7F3E3B"/>
<path d="M132.918 108.526L128.629 110.769L134.772 111.897L136.344 108.429L132.918 108.526Z" fill="#7F3E3B"/>
<path d="M141.609 110.253L136.344 108.429L134.732 111.891C134.732 111.891 138.916 115.397 141.568 113.057L141.609 110.253Z" fill="#7F3E3B"/>
<path d="M110.265 136.532C108.282 139.407 106.275 142.378 104.364 145.311C102.454 148.243 100.575 151.221 99.0113 154.173C98.6083 154.914 98.2052 155.643 97.9069 156.371L97.786 156.616C97.7901 156.593 97.7901 156.569 97.786 156.545C97.786 156.5 97.786 156.487 97.786 156.494C97.7434 156.601 97.7434 156.715 97.786 156.822C97.9696 157.367 98.2608 157.885 98.6486 158.356C99.118 158.974 99.6349 159.568 100.196 160.135C102.779 162.619 105.583 164.95 108.588 167.109L106.105 170.055C102.092 168.43 98.3741 166.377 95.0531 163.951C94.1583 163.285 93.3257 162.568 92.5621 161.805C91.6654 160.919 90.9349 159.933 90.3936 158.878C90.0448 158.192 89.8378 157.465 89.7809 156.726C89.7471 156.295 89.7742 155.862 89.8615 155.437C89.9048 155.204 89.9668 154.973 90.047 154.747L90.184 154.386C90.5065 153.503 90.8531 152.633 91.2239 151.808C92.7218 148.514 94.4386 145.287 96.3672 142.14C98.2858 139.02 100.277 136.004 102.502 132.987L110.265 136.532Z" fill="#7F3E3B"/>
<path d="M115.917 115.887C115.393 120.244 116.167 124.459 114.949 128.243C114.949 128.243 116.304 131.755 124.349 131.755C133.217 131.755 128.38 128.243 128.38 128.243C123.503 127.321 123.494 124.459 124.204 121.765L115.917 115.887Z" fill="#7F3E3B"/>
<path d="M113.845 129.448C113.16 128.339 112.394 127.063 113.845 126.663C115.458 126.225 124.099 125.78 127.139 126.605C127.947 126.78 128.639 127.199 129.067 127.774C129.496 128.349 129.628 129.035 129.436 129.686L113.845 129.448Z" fill="#1C2D5E"/>
<path d="M105.195 129.189C99.7452 130.382 93.304 142.428 93.304 142.428L105.815 148.081C105.815 148.081 108.742 143.814 111.628 138.529C114.651 132.992 114.288 127.21 105.195 129.189Z" fill="#1C2D5E"/>
<path d="M140.594 150.466C140.594 155.752 140.151 162.326 139.167 170.486H107.486C107.099 166.812 108.993 149.635 104.487 132.284C104.382 131.894 104.379 131.491 104.477 131.101C104.575 130.71 104.772 130.339 105.056 130.012C105.34 129.684 105.705 129.407 106.129 129.197C106.552 128.987 107.025 128.848 107.518 128.79C109.437 128.565 111.839 128.333 114.201 128.242C118.685 128.036 123.18 128.036 127.664 128.242C129.52 128.38 131.366 128.595 133.194 128.887C134.457 129.081 135.629 129.552 136.577 130.248C137.525 130.943 138.212 131.835 138.563 132.825C139.602 136.124 140.207 139.5 140.369 142.899C140.53 145.078 140.619 147.579 140.594 150.466Z" fill="#1C2D5E"/>
<path d="M126.349 138.342C131.282 140.527 142.625 138.033 142.625 138.033L142.037 125.754C137.924 126.168 133.904 127.036 130.089 128.332C122.366 130.833 120.786 135.88 126.349 138.342Z" fill="#1C2D5E"/>
<path d="M132.83 127.244C132.83 127.244 130.541 127.888 129.694 128.088C126.655 130.757 124.761 136.551 124.761 136.551L128.63 140.637C127.163 134.585 132.83 127.244 132.83 127.244Z" fill="#FF5C8A"/>
<path opacity="0.2" d="M132.83 127.244C132.83 127.244 130.541 127.888 129.694 128.088C126.655 130.757 124.761 136.551 124.761 136.551L128.63 140.637C127.163 134.585 132.83 127.244 132.83 127.244Z" fill="black"/>
<path d="M140.601 157.64C137.578 159.503 131.572 155.172 131.572 155.172L131.75 157.37C137.256 161.05 140.513 159.226 140.513 159.226C140.636 158.703 140.666 158.169 140.601 157.64V157.64Z" fill="#FF5C8A"/>
<path opacity="0.2" d="M140.601 157.64C137.578 159.503 131.572 155.172 131.572 155.172L131.75 157.37C137.256 161.05 140.513 159.226 140.513 159.226C140.636 158.703 140.666 158.169 140.601 157.64V157.64Z" fill="black"/>
<path d="M112.434 128.088C111.528 128.141 110.63 128.258 109.75 128.436C108.39 131.208 108.085 134.239 108.871 137.15L112.353 135.9C112.353 135.9 111.225 131.684 112.434 128.088Z" fill="#FF5C8A"/>
<path opacity="0.2" d="M112.434 128.088C111.528 128.141 110.63 128.258 109.75 128.436C108.39 131.208 108.085 134.239 108.871 137.15L112.353 135.9C112.353 135.9 111.225 131.684 112.434 128.088Z" fill="black"/>
<path d="M108.347 136.571C110.241 134.205 124.784 134.469 127.928 136.41C131.072 138.35 134.869 159.504 130.217 161.869C125.566 164.235 104.106 165.362 103.953 160.58C103.8 155.797 108.685 147.483 108.105 144.737C107.524 141.991 105.775 139.793 108.347 136.571Z" fill="#FF5C8A"/>
<path opacity="0.4" d="M108.55 143.956C108.55 143.956 113.854 145.606 125.076 143.602C122.891 144.517 111.363 146.599 108.55 143.956Z" fill="#263238"/>
<path opacity="0.4" d="M114.957 143.338C115.022 143.732 114.748 144.054 114.336 144.054C114.112 144.031 113.904 143.948 113.747 143.818C113.591 143.687 113.494 143.518 113.474 143.338C113.409 142.945 113.683 142.623 114.086 142.623C114.312 142.644 114.522 142.727 114.68 142.857C114.839 142.988 114.937 143.157 114.957 143.338V143.338Z" fill="#263238"/>
<path opacity="0.4" d="M127.315 162.191H127.258C127.232 162.186 127.208 162.177 127.187 162.164C127.165 162.15 127.148 162.134 127.135 162.115C127.122 162.096 127.114 162.076 127.112 162.054C127.109 162.033 127.113 162.012 127.121 161.991C128.83 157.479 128.621 151.331 126.492 143.628C125.606 140.405 126.613 137.337 127.145 136.699C127.16 136.682 127.179 136.666 127.202 136.654C127.224 136.643 127.249 136.634 127.275 136.63C127.301 136.626 127.328 136.626 127.354 136.63C127.38 136.634 127.405 136.642 127.428 136.654C127.45 136.666 127.469 136.681 127.484 136.699C127.499 136.717 127.509 136.737 127.514 136.758C127.519 136.779 127.52 136.8 127.514 136.821C127.509 136.842 127.499 136.862 127.484 136.88C126.936 137.524 126.065 140.605 126.879 143.557C129.032 151.292 129.241 157.55 127.508 162.082C127.494 162.113 127.467 162.141 127.433 162.16C127.398 162.18 127.357 162.191 127.315 162.191V162.191Z" fill="#263238"/>
<path d="M127.928 170.485C127.928 170.485 122.954 206.664 119.915 220.199C116.594 235.024 99.3823 281.644 99.3823 281.644L88.7734 279.839C88.7734 279.839 100.624 236.248 102.22 221.546C103.945 205.594 107.484 170.46 107.484 170.46L127.928 170.485Z" fill="#FF5C8A"/>
<path opacity="0.2" d="M124.302 183.377C116.595 184.595 118.53 207.766 120.046 219.684C121.876 211.26 124.375 195.049 126.06 183.544C125.514 183.331 124.895 183.272 124.302 183.377V183.377Z" fill="black"/>
<path d="M139.166 170.486C139.166 170.486 141.69 205.89 141.746 220.328C141.794 235.346 137.61 284.525 137.61 284.525H127.582C127.582 284.525 124.881 236.223 123.721 221.475C122.455 205.362 118.344 170.486 118.344 170.486H139.166Z" fill="#FF5C8A"/>
<path d="M129.364 111.375C129.429 111.755 129.735 112.02 130.049 112.02C130.364 112.02 130.557 111.671 130.493 111.291C130.428 110.911 130.114 110.647 129.808 110.647C129.501 110.647 129.3 110.995 129.364 111.375Z" fill="#263238"/>
<path d="M129.693 112.046C130.468 113.159 131.425 114.184 132.539 115.094C132.241 115.307 131.887 115.465 131.504 115.556C131.121 115.647 130.718 115.67 130.322 115.623L129.693 112.046Z" fill="#630F0F"/>
<path d="M129.557 108.906C129.599 108.892 129.637 108.871 129.668 108.844C129.698 108.818 129.721 108.786 129.735 108.751C129.744 108.722 129.747 108.692 129.742 108.663C129.737 108.633 129.725 108.605 129.706 108.579C129.687 108.553 129.662 108.531 129.633 108.513C129.603 108.495 129.569 108.481 129.533 108.474C129.104 108.407 128.661 108.423 128.241 108.519C127.82 108.616 127.435 108.79 127.115 109.028C127.082 109.047 127.054 109.071 127.033 109.098C127.013 109.126 127 109.157 126.995 109.189C126.991 109.221 126.995 109.253 127.008 109.284C127.021 109.314 127.041 109.343 127.068 109.366C127.096 109.39 127.129 109.409 127.166 109.421C127.203 109.434 127.243 109.44 127.284 109.439C127.324 109.438 127.363 109.43 127.4 109.416C127.436 109.402 127.468 109.382 127.494 109.357C127.747 109.165 128.054 109.024 128.389 108.947C128.724 108.869 129.078 108.857 129.42 108.912C129.466 108.918 129.513 108.916 129.557 108.906V108.906Z" fill="#263238"/>
<path d="M113.37 111.871C114.555 116.492 114.983 119.231 118.32 121.378C119.401 122.085 120.703 122.542 122.086 122.7C123.468 122.857 124.878 122.709 126.163 122.271C127.448 121.834 128.559 121.123 129.374 120.217C130.19 119.311 130.68 118.243 130.791 117.13C131.307 112.85 129.284 106.018 123.246 104.633C121.95 104.305 120.57 104.257 119.244 104.492C117.918 104.726 116.693 105.236 115.692 105.97C114.691 106.704 113.949 107.636 113.541 108.672C113.134 109.707 113.075 110.811 113.37 111.871V111.871Z" fill="#7F3E3B"/>
<path d="M125.8 112.561C124.817 114.997 119.351 119.651 117.408 120.012C115.466 120.373 110.153 116.699 109.677 114.778C107.743 114.604 105.647 111.517 108.581 110.305C106.405 109.422 106.969 104.813 111.395 105.149C108.702 103.073 111.935 99.5604 115.611 100.495C116.489 98.7031 121.455 97.5559 124.317 100.315C126.55 99.309 130.46 101.333 130.17 104.362C130.019 105.3 129.532 106.182 128.768 106.904C128.005 107.625 126.996 108.155 125.865 108.429C126.824 109.338 125.8 112.561 125.8 112.561Z" fill="#263238"/>
<path d="M122.875 111.916C123.204 113.073 123.986 114.116 125.108 114.894C126.599 115.912 127.792 115.08 127.76 113.682C127.76 112.393 126.913 110.382 125.237 109.898C123.56 109.415 122.504 110.53 122.875 111.916Z" fill="#7F3E3B"/>
</g>
<defs>
<clipPath id="clip0_101_89">
<rect width="364" height="260" fill="white" transform="translate(0.231445 0.425781)"/>
</clipPath>
</defs>
</svg>
