<svg width="37" height="37" viewBox="0 0 37 37" fill="none" xmlns="http://www.w3.org/2000/svg">
<path d="M36.6787 18.3906C36.6787 28.3317 28.6198 36.3906 18.6787 36.3906C8.73759 36.3906 0.678711 28.3317 0.678711 18.3906C0.678711 8.4495 8.73759 0.390625 18.6787 0.390625C28.6198 0.390625 36.6787 8.4495 36.6787 18.3906Z" fill="#E1E9FE"/>
<path d="M19.9716 9.68352L19.2645 10.3906L19.2645 10.3906L19.9716 9.68352ZM25.3858 15.0977L26.0929 14.3906L25.3858 15.0977ZM15.6787 17.3906C15.1264 17.3906 14.6787 17.8383 14.6787 18.3906C14.6787 18.9429 15.1264 19.3906 15.6787 19.3906V17.3906ZM21.6787 19.3906C22.231 19.3906 22.6787 18.9429 22.6787 18.3906C22.6787 17.8383 22.231 17.3906 21.6787 17.3906V19.3906ZM15.6787 21.3906C15.1264 21.3906 14.6787 21.8383 14.6787 22.3906C14.6787 22.9429 15.1264 23.3906 15.6787 23.3906V21.3906ZM21.6787 23.3906C22.231 23.3906 22.6787 22.9429 22.6787 22.3906C22.6787 21.8383 22.231 21.3906 21.6787 21.3906V23.3906ZM23.6787 26.3906H13.6787V28.3906H23.6787V26.3906ZM12.6787 25.3906V11.3906H10.6787V25.3906H12.6787ZM13.6787 10.3906H19.2645V8.39062H13.6787V10.3906ZM24.6787 15.8048V25.3906H26.6787V15.8048H24.6787ZM19.2645 10.3906L24.6787 15.8048L26.0929 14.3906L20.6787 8.97641L19.2645 10.3906ZM26.6787 15.8048C26.6787 15.2744 26.468 14.7657 26.0929 14.3906L24.6787 15.8048L24.6787 15.8048H26.6787ZM19.2645 10.3906V10.3906L20.6787 8.97641C20.3036 8.60134 19.7949 8.39062 19.2645 8.39062V10.3906ZM13.6787 26.3906C13.1264 26.3906 12.6787 25.9429 12.6787 25.3906H10.6787C10.6787 27.0475 12.0219 28.3906 13.6787 28.3906V26.3906ZM23.6787 28.3906C25.3356 28.3906 26.6787 27.0475 26.6787 25.3906H24.6787C24.6787 25.9429 24.231 26.3906 23.6787 26.3906V28.3906ZM12.6787 11.3906C12.6787 10.8383 13.1264 10.3906 13.6787 10.3906V8.39062C12.0219 8.39062 10.6787 9.73377 10.6787 11.3906H12.6787ZM15.6787 19.3906H21.6787V17.3906H15.6787V19.3906ZM15.6787 23.3906H21.6787V21.3906H15.6787V23.3906Z" fill="#4A75F7"/>
</svg>
