<svg width="37" height="37" viewBox="0 0 37 37" fill="none" xmlns="http://www.w3.org/2000/svg">
<path d="M36.6787 18.3906C36.6787 28.3317 28.6198 36.3906 18.6787 36.3906C8.73759 36.3906 0.678711 28.3317 0.678711 18.3906C0.678711 8.4495 8.73759 0.390625 18.6787 0.390625C28.6198 0.390625 36.6787 8.4495 36.6787 18.3906Z" fill="#E1E9FE"/>
<path d="M8.67871 27.3906C8.67871 27.9429 9.12643 28.3906 9.67871 28.3906C10.231 28.3906 10.6787 27.9429 10.6787 27.3906H8.67871ZM18.1787 9.39062L18.8858 8.68352C18.6983 8.49598 18.4439 8.39062 18.1787 8.39062V9.39062ZM19.1787 10.3906L18.4716 11.0977C18.6591 11.2853 18.9135 11.3906 19.1787 11.3906V10.3906ZM27.6787 10.3906L28.5731 10.8378C28.7281 10.5279 28.7116 10.1597 28.5294 9.86489C28.3472 9.57008 28.0253 9.39062 27.6787 9.39062V10.3906ZM24.6787 16.3906L23.7843 15.9434C23.6435 16.2249 23.6435 16.5563 23.7843 16.8378L24.6787 16.3906ZM27.6787 22.3906V23.3906C28.0253 23.3906 28.3472 23.2112 28.5294 22.9164C28.7116 22.6215 28.7281 22.2534 28.5731 21.9434L27.6787 22.3906ZM19.1787 22.3906L18.4716 23.0977C18.6591 23.2853 18.9135 23.3906 19.1787 23.3906V22.3906ZM18.1787 21.3906L18.8858 20.6835C18.6983 20.496 18.4439 20.3906 18.1787 20.3906V21.3906ZM19.6787 9.89062C19.6787 9.33834 19.231 8.89062 18.6787 8.89062C18.1264 8.89062 17.6787 9.33834 17.6787 9.89062H19.6787ZM17.6787 15.3906C17.6787 15.9429 18.1264 16.3906 18.6787 16.3906C19.231 16.3906 19.6787 15.9429 19.6787 15.3906H17.6787ZM10.6787 27.3906V23.3906H8.67871V27.3906H10.6787ZM10.6787 23.3906V11.3906H8.67871V23.3906H10.6787ZM11.6787 10.3906H18.1787V8.39062H11.6787V10.3906ZM17.4716 10.0977L18.4716 11.0977L19.8858 9.68352L18.8858 8.68352L17.4716 10.0977ZM19.1787 11.3906H27.6787V9.39062H19.1787V11.3906ZM26.7843 9.94341L23.7843 15.9434L25.5731 16.8378L28.5731 10.8378L26.7843 9.94341ZM23.7843 16.8378L26.7843 22.8378L28.5731 21.9434L25.5731 15.9434L23.7843 16.8378ZM27.6787 21.3906H19.1787V23.3906H27.6787V21.3906ZM19.8858 21.6835L18.8858 20.6835L17.4716 22.0977L18.4716 23.0977L19.8858 21.6835ZM18.1787 20.3906H11.6787V22.3906H18.1787V20.3906ZM11.6787 20.3906C10.0219 20.3906 8.67871 21.7338 8.67871 23.3906H10.6787C10.6787 22.8383 11.1264 22.3906 11.6787 22.3906V20.3906ZM10.6787 11.3906C10.6787 10.8383 11.1264 10.3906 11.6787 10.3906V8.39062C10.0219 8.39062 8.67871 9.73377 8.67871 11.3906H10.6787ZM17.6787 9.89062V15.3906H19.6787V9.89062H17.6787Z" fill="#4A75F7"/>
</svg>
