<svg width="37" height="37" viewBox="0 0 37 37" fill="none" xmlns="http://www.w3.org/2000/svg">
<path d="M36.6787 18.3906C36.6787 28.3317 28.6198 36.3906 18.6787 36.3906C8.73759 36.3906 0.678711 28.3317 0.678711 18.3906C0.678711 8.4495 8.73759 0.390625 18.6787 0.390625C28.6198 0.390625 36.6787 8.4495 36.6787 18.3906Z" fill="#E1E9FE"/>
<path d="M15.1431 21.9262L14.436 22.6333L14.436 22.6333L15.1431 21.9262ZM22.2142 21.9262L22.9213 22.6333V22.6333L22.2142 21.9262ZM15.6902 22.4733L16.3973 21.7662L16.3973 21.7662L15.6902 22.4733ZM16.6787 24.8596H15.6787H16.6787ZM21.6671 22.4733L20.96 21.7662V21.7662L21.6671 22.4733ZM20.6787 24.8596H21.6787H20.6787ZM18.6787 27.3906L18.6787 26.3906H18.6787L18.6787 27.3906ZM16.3422 22.3906C15.7899 22.3906 15.3422 22.8383 15.3422 23.3906C15.3422 23.9429 15.7899 24.3906 16.3422 24.3906V22.3906ZM21.0151 24.3906C21.5674 24.3906 22.0151 23.9429 22.0151 23.3906C22.0151 22.8383 21.5674 22.3906 21.0151 22.3906V24.3906ZM19.6787 9.39062C19.6787 8.83834 19.2309 8.39062 18.6787 8.39062C18.1264 8.39062 17.6787 8.83834 17.6787 9.39062H19.6787ZM17.6787 10.3906C17.6787 10.9429 18.1264 11.3906 18.6787 11.3906C19.2309 11.3906 19.6787 10.9429 19.6787 10.3906H17.6787ZM25.7497 12.7338C26.1402 12.3432 26.1402 11.7101 25.7497 11.3196C25.3592 10.929 24.726 10.929 24.3355 11.3196L25.7497 12.7338ZM23.6284 12.0267C23.2379 12.4172 23.2379 13.0504 23.6284 13.4409C24.0189 13.8314 24.6521 13.8314 25.0426 13.4409L23.6284 12.0267ZM27.6787 19.3906C28.231 19.3906 28.6787 18.9429 28.6787 18.3906C28.6787 17.8383 28.231 17.3906 27.6787 17.3906V19.3906ZM26.6787 17.3906C26.1264 17.3906 25.6787 17.8383 25.6787 18.3906C25.6787 18.9429 26.1264 19.3906 26.6787 19.3906V17.3906ZM10.6787 19.3906C11.231 19.3906 11.6787 18.9429 11.6787 18.3906C11.6787 17.8383 11.231 17.3906 10.6787 17.3906V19.3906ZM9.67871 17.3906C9.12643 17.3906 8.67871 17.8383 8.67871 18.3906C8.67871 18.9429 9.12643 19.3906 9.67871 19.3906V17.3906ZM12.3147 13.4409C12.7052 13.8314 13.3384 13.8314 13.7289 13.4409C14.1194 13.0504 14.1194 12.4172 13.7289 12.0267L12.3147 13.4409ZM13.0218 11.3196C12.6313 10.929 11.9981 10.929 11.6076 11.3196C11.2171 11.7101 11.2171 12.3432 11.6076 12.7338L13.0218 11.3196ZM15.8502 21.2191C14.2881 19.657 14.2881 17.1243 15.8502 15.5622L14.436 14.148C12.0929 16.4912 12.0929 20.2901 14.436 22.6333L15.8502 21.2191ZM15.8502 15.5622C17.4123 14.0001 19.945 14.0001 21.5071 15.5622L22.9213 14.148C20.5782 11.8049 16.7792 11.8049 14.436 14.148L15.8502 15.5622ZM21.5071 15.5622C23.0692 17.1243 23.0692 19.657 21.5071 21.2191L22.9213 22.6333C25.2644 20.2901 25.2644 16.4912 22.9213 14.148L21.5071 15.5622ZM14.436 22.6333L14.9831 23.1804L16.3973 21.7662L15.8502 21.2191L14.436 22.6333ZM15.6787 24.8596V25.3906H17.6787V24.8596H15.6787ZM21.5071 21.2191L20.96 21.7662L22.3742 23.1804L22.9213 22.6333L21.5071 21.2191ZM19.6787 24.8596V25.3906H21.6787V24.8596H19.6787ZM19.6787 25.3906C19.6787 25.9429 19.2309 26.3906 18.6787 26.3906L18.6787 28.3906C20.3355 28.3906 21.6787 27.0475 21.6787 25.3906H19.6787ZM20.96 21.7662C20.1396 22.5866 19.6787 23.6993 19.6787 24.8596H21.6787C21.6787 24.2298 21.9289 23.6257 22.3742 23.1804L20.96 21.7662ZM15.6787 25.3906C15.6787 27.0475 17.0218 28.3906 18.6787 28.3906L18.6787 26.3906C18.1264 26.3906 17.6787 25.9429 17.6787 25.3906H15.6787ZM14.9831 23.1804C15.4285 23.6257 15.6787 24.2298 15.6787 24.8596H17.6787C17.6787 23.6993 17.2178 22.5866 16.3973 21.7662L14.9831 23.1804ZM16.3422 24.3906H21.0151V22.3906H16.3422V24.3906ZM17.6787 9.39062V10.3906H19.6787V9.39062H17.6787ZM24.3355 11.3196L23.6284 12.0267L25.0426 13.4409L25.7497 12.7338L24.3355 11.3196ZM27.6787 17.3906H26.6787V19.3906H27.6787V17.3906ZM10.6787 17.3906H9.67871V19.3906H10.6787V17.3906ZM13.7289 12.0267L13.0218 11.3196L11.6076 12.7338L12.3147 13.4409L13.7289 12.0267Z" fill="#4A75F7"/>
</svg>
