<svg width="328" height="329" viewBox="0 0 328 329" fill="none" xmlns="http://www.w3.org/2000/svg">
<path d="M185.898 145.289L185.16 145.421L184.469 145.522C184.026 145.585 183.583 145.631 183.148 145.678C182.255 145.756 181.385 145.81 180.499 145.849C178.723 145.905 176.944 145.832 175.178 145.631C173.365 145.437 171.574 145.079 169.826 144.559C168.011 144.03 166.266 143.284 164.629 142.337L164.396 142.198C163.914 141.924 163.524 141.513 163.277 141.017C162.588 139.589 161.994 138.118 161.498 136.612C161.001 135.198 160.574 133.777 160.154 132.371C159.377 129.528 158.601 126.7 158.072 123.826C157.98 123.379 158.054 122.915 158.278 122.519C158.503 122.122 158.864 121.821 159.295 121.671C159.725 121.521 160.195 121.533 160.617 121.703C161.04 121.874 161.386 122.192 161.591 122.598C162.951 125.17 164.186 127.772 165.476 130.367L167.34 134.204C167.658 134.833 167.969 135.447 168.288 136.053L168.769 136.915C168.932 137.187 169.072 137.428 169.235 137.692L167.876 136.371C170.419 137.461 173.137 138.087 175.901 138.22C177.356 138.32 178.816 138.338 180.274 138.275C181.012 138.275 181.742 138.213 182.449 138.15L183.537 138.042L184.065 137.979L184.523 137.917H184.756C185.742 137.766 186.748 138.012 187.552 138.602C188.356 139.192 188.893 140.078 189.044 141.063C189.196 142.049 188.95 143.055 188.36 143.859C187.769 144.663 186.884 145.2 185.898 145.352V145.289Z" fill="#FF887B"/>
<path d="M161.902 125.61L163.052 121.679L157.567 120.902C157.567 120.902 156.791 124.01 158.981 126.13L161.902 125.61Z" fill="#FF887B"/>
<path d="M160.605 117.928L159.012 118.138C158.633 118.189 158.284 118.374 158.028 118.658C157.772 118.943 157.625 119.309 157.614 119.692L157.575 120.935L163.06 121.711L162.36 119.14C162.278 118.752 162.05 118.411 161.723 118.185C161.397 117.96 160.997 117.868 160.605 117.928Z" fill="#FF887B"/>
<path d="M182.76 143.351C184.096 147.872 187.6 156.868 196.852 172.389C203.067 173.165 216.412 165.397 220.934 161.194C219.504 157.722 215.721 146.505 208.24 132.133C208.082 131.554 207.811 131.012 207.443 130.537C207.075 130.063 206.617 129.666 206.096 129.369C205.574 129.071 204.999 128.88 204.403 128.805C203.807 128.73 203.203 128.774 202.624 128.933L202.461 128.987C201.202 129.391 199.85 129.865 198.538 130.393C195.035 131.785 191.614 133.375 188.291 135.155C187.048 135.932 185.837 136.709 184.834 137.408C183.915 138.061 183.222 138.984 182.85 140.049C182.478 141.113 182.447 142.267 182.76 143.351Z" fill="#1C2D5E"/>
<path d="M192.836 123.468C194.016 126.746 195.896 130.327 198.444 131.065C196.891 133.799 195.811 138.165 193.978 141.164C193.791 141.478 193.538 141.748 193.236 141.955C192.934 142.162 192.592 142.301 192.231 142.362C191.87 142.423 191.501 142.406 191.148 142.31C190.795 142.214 190.467 142.043 190.187 141.808C187.856 139.742 187.654 136.293 187.654 136.293C190.179 133.458 189.099 131.127 187.196 128.913L190.42 123.102C190.917 122.046 192.408 122.271 192.836 123.468Z" fill="#FF887B"/>
<path opacity="0.2" d="M192.836 123.469C192.393 122.242 190.917 122.055 190.42 123.112L187.188 128.938C188.098 129.873 188.746 131.03 189.068 132.294C190.183 131.944 191.198 131.331 192.028 130.507C193.118 129.458 193.868 128.104 194.179 126.623C193.668 125.6 193.219 124.547 192.836 123.469Z" fill="#1C2D5E"/>
<path d="M194.203 116.103C195.578 120.857 196.619 123.583 194.832 126.916C192.152 131.942 184.935 132.16 181.999 127.934C179.365 124.158 177.594 116.996 182.053 113.298C186.512 109.601 192.836 111.341 194.203 116.103Z" fill="#FF887B"/>
<path d="M185.658 119.421C185.72 119.848 185.541 120.198 185.254 120.276C184.967 120.353 184.695 119.996 184.632 119.561C184.57 119.126 184.749 118.745 185.029 118.706C185.308 118.667 185.658 118.986 185.658 119.421Z" fill="#1C2D5E"/>
<path d="M181.175 121.092C181.237 121.527 181.066 121.869 180.786 121.954C180.507 122.04 180.219 121.674 180.157 121.239C180.095 120.804 180.266 120.416 180.553 120.385C180.841 120.354 181.128 120.672 181.175 121.092Z" fill="#1C2D5E"/>
<path d="M187.001 117.468C186.957 117.484 186.909 117.486 186.864 117.475C186.818 117.464 186.777 117.44 186.745 117.406C186.523 117.171 186.247 116.993 185.942 116.886C185.636 116.779 185.31 116.747 184.989 116.792C184.957 116.8 184.923 116.802 184.89 116.796C184.856 116.791 184.825 116.778 184.796 116.76C184.768 116.742 184.744 116.718 184.725 116.69C184.706 116.663 184.693 116.631 184.686 116.598C184.678 116.565 184.677 116.531 184.682 116.497C184.688 116.463 184.7 116.431 184.718 116.402C184.736 116.373 184.76 116.348 184.788 116.328C184.816 116.309 184.847 116.295 184.881 116.287C185.286 116.229 185.7 116.27 186.086 116.405C186.473 116.54 186.821 116.766 187.102 117.064C187.149 117.113 187.176 117.179 187.176 117.247C187.176 117.315 187.149 117.38 187.102 117.429L187.001 117.468Z" fill="#1C2D5E"/>
<path d="M178.852 119.573C178.807 119.586 178.759 119.586 178.714 119.574C178.668 119.562 178.627 119.539 178.593 119.505C178.56 119.472 178.536 119.431 178.525 119.385C178.513 119.34 178.513 119.292 178.526 119.246C178.638 118.854 178.842 118.494 179.12 118.195C179.398 117.897 179.743 117.669 180.126 117.53C180.159 117.52 180.193 117.517 180.227 117.521C180.261 117.525 180.293 117.536 180.323 117.552C180.353 117.569 180.379 117.591 180.4 117.618C180.421 117.645 180.436 117.676 180.445 117.708C180.455 117.74 180.459 117.774 180.456 117.808C180.452 117.842 180.442 117.874 180.425 117.904C180.408 117.933 180.385 117.958 180.358 117.978C180.331 117.998 180.299 118.012 180.266 118.019C179.964 118.13 179.692 118.311 179.473 118.547C179.255 118.784 179.095 119.068 179.008 119.378C178.999 119.421 178.98 119.46 178.953 119.494C178.926 119.527 178.892 119.554 178.852 119.573Z" fill="#1C2D5E"/>
<path d="M182.363 121.27C182.163 122.485 181.794 123.667 181.268 124.781C181.555 124.911 181.866 124.978 182.181 124.978C182.496 124.978 182.807 124.911 183.094 124.781L182.363 121.27Z" fill="#FF5652"/>
<path opacity="0.2" d="M190.746 115.434L193.387 121.982C193.662 120.501 194.188 119.077 194.94 117.772C194.378 116.836 193.94 115.83 193.635 114.781C192.688 115.053 191.717 115.193 190.746 115.434Z" fill="#1C2D5E"/>
<path d="M196.533 119.209C196.313 120.206 195.725 121.083 194.886 121.664C193.807 122.355 193.022 121.291 193.076 119.908C193.139 118.665 193.76 116.801 194.949 116.708C196.137 116.615 196.79 117.92 196.533 119.209Z" fill="#FF887B"/>
<path d="M182.838 126.446C184.735 125.151 186.738 124.021 188.827 123.066C188.874 124.581 188.346 126.088 186.015 127.215C183.685 128.341 182.838 126.446 182.838 126.446Z" fill="#1C2D5E"/>
<path d="M186.644 125.696C185.73 126.084 184.947 126.729 184.391 127.552C184.954 127.596 185.517 127.477 186.015 127.21C186.925 126.822 187.704 126.18 188.26 125.361C187.7 125.315 187.139 125.431 186.644 125.696Z" fill="#FF5652"/>
<path d="M183.032 126.302C183.155 126.436 183.314 126.533 183.49 126.581C183.666 126.629 183.852 126.627 184.026 126.574C185.378 125.897 186.677 125.118 187.91 124.244C188.113 124.129 188.286 123.968 188.414 123.773C188.543 123.579 188.623 123.357 188.648 123.125C186.705 124.054 184.829 125.116 183.032 126.302Z" fill="#FAFAFA"/>
<path opacity="0.2" d="M204.356 167.163C204.511 167.419 204.752 167.559 204.947 167.458C205.045 167.382 205.111 167.272 205.131 167.149C205.152 167.027 205.124 166.901 205.055 166.798C204.923 166.526 204.659 166.394 204.465 166.495C204.364 166.571 204.297 166.683 204.276 166.807C204.256 166.931 204.285 167.059 204.356 167.163Z" fill="#1C2D5E"/>
<path d="M196.852 172.391L197.45 178.567L209.988 191.571C209.988 191.571 223.675 174.566 226.099 172.756L220.467 160.156C220.467 160.156 203.167 165.105 196.852 172.391Z" fill="#FF5C8A"/>
<path opacity="0.3" d="M226.107 172.757C223.668 174.567 209.988 191.571 209.988 191.571L197.457 178.575L197.1 174.986L199.617 173.378C205.008 169.642 218.447 164.88 222.036 163.637L226.107 172.757Z" fill="white"/>
<path d="M200.549 177.153C200.549 177.153 169.662 189.668 171.674 199.231C173.686 208.793 190.186 233.085 195.103 241.731L201.932 238.359C201.932 238.359 192.05 210.968 186.294 201.848C186.294 201.848 230.97 190.973 220.879 171.109L200.549 177.153Z" fill="#FF5C8A"/>
<path opacity="0.2" d="M200.549 177.153C200.549 177.153 169.662 189.668 171.674 199.231C173.686 208.793 190.186 233.085 195.103 241.731L201.932 238.359C201.932 238.359 192.05 210.968 186.294 201.848C186.294 201.848 230.97 190.973 220.879 171.109L200.549 177.153Z" fill="white"/>
<path d="M200.417 238.09L204.013 246.596L199.391 248.134L195.725 240.591L200.417 238.09Z" fill="#FFB573"/>
<path d="M196.828 249.303C196.278 249.512 195.67 249.512 195.119 249.303C195.042 249.236 194.987 249.146 194.962 249.046C194.937 248.946 194.943 248.841 194.98 248.744C195.031 248.57 195.148 248.422 195.306 248.332C196.145 247.835 198.328 248.402 198.413 248.426C198.441 248.434 198.465 248.45 198.483 248.472C198.501 248.494 198.512 248.521 198.514 248.55C198.517 248.577 198.51 248.605 198.496 248.628C198.483 248.652 198.462 248.671 198.436 248.682C197.921 248.939 197.383 249.147 196.828 249.303ZM195.679 248.488C195.597 248.506 195.518 248.538 195.446 248.581C195.395 248.604 195.351 248.639 195.316 248.682C195.281 248.725 195.256 248.776 195.244 248.83C195.189 249.016 195.244 249.086 195.29 249.117C195.64 249.404 197.007 249.039 197.986 248.643C197.233 248.447 196.451 248.395 195.679 248.488Z" fill="#FF5C8A"/>
<path d="M198.429 248.709C198.42 248.713 198.411 248.715 198.402 248.715C198.392 248.715 198.383 248.713 198.375 248.709C197.644 248.601 196.044 247.777 195.974 247.156C195.974 247 195.974 246.791 196.355 246.658C196.477 246.605 196.61 246.578 196.743 246.578C196.877 246.578 197.009 246.605 197.132 246.658C197.978 247.039 198.522 248.461 198.545 248.523C198.557 248.543 198.563 248.566 198.563 248.589C198.563 248.612 198.557 248.635 198.545 248.655C198.533 248.674 198.516 248.69 198.495 248.7C198.475 248.709 198.452 248.713 198.429 248.709ZM196.533 246.876H196.464C196.23 246.961 196.246 247.055 196.246 247.094C196.308 247.474 197.411 248.158 198.196 248.375C197.963 247.778 197.554 247.266 197.023 246.907C196.87 246.836 196.696 246.822 196.533 246.868V246.876Z" fill="#FF5C8A"/>
<path d="M198.794 247.798L204.713 246.19C204.822 246.16 204.937 246.168 205.041 246.213C205.144 246.258 205.229 246.338 205.28 246.438L207.657 250.96C207.709 251.054 207.741 251.158 207.752 251.266C207.763 251.373 207.753 251.481 207.722 251.585C207.691 251.688 207.64 251.784 207.571 251.868C207.503 251.951 207.418 252.02 207.323 252.07L207.16 252.14C205.016 252.684 203.089 253.08 200.433 253.803C197.325 254.657 198.188 254.813 194.521 255.869C192.307 256.498 191.212 254.082 192.121 253.702C196.284 251.993 196.378 250.594 197.628 248.575C197.905 248.178 198.321 247.901 198.794 247.798Z" fill="#1C2D5E"/>
<path opacity="0.1" d="M198.794 247.798L204.713 246.19C204.822 246.16 204.937 246.168 205.041 246.213C205.144 246.258 205.229 246.338 205.28 246.438L207.657 250.96C207.709 251.054 207.741 251.158 207.752 251.266C207.763 251.373 207.753 251.481 207.722 251.585C207.691 251.688 207.64 251.784 207.571 251.868C207.503 251.951 207.418 252.02 207.323 252.07L207.16 252.14C205.016 252.684 203.089 253.08 200.433 253.803C197.325 254.657 198.188 254.813 194.521 255.869C192.307 256.498 191.212 254.082 192.121 253.702C196.284 251.993 196.378 250.594 197.628 248.575C197.905 248.178 198.321 247.901 198.794 247.798Z" fill="#1C2D5E"/>
<path opacity="0.2" d="M200.985 239.426L202.329 242.611L197.699 244.646L196.479 242.145L200.985 239.426Z" fill="#1C2D5E"/>
<path d="M202.67 235.828L204.083 239.308L195.181 244.21L192.835 241.079L202.67 235.828Z" fill="#FF5C8A"/>
<path d="M222.168 166.324C219.131 167.785 197.682 177.627 190.318 188.075C182.596 199.029 186.682 203.767 191.266 215.024C195.849 226.28 202.141 246.516 202.141 246.516L209.273 244.535C209.273 244.535 207.719 219.055 200.984 199.976C201.069 199.976 240.035 188.254 222.168 166.324Z" fill="#FF5C8A"/>
<path opacity="0.3" d="M222.168 166.324C219.131 167.785 197.682 177.627 190.318 188.075C182.596 199.029 186.682 203.767 191.266 215.024C195.849 226.28 202.141 246.516 202.141 246.516L209.273 244.535C209.273 244.535 207.719 219.055 200.984 199.976C201.069 199.976 240.035 188.254 222.168 166.324Z" fill="white"/>
<path d="M208.318 243.332L209.413 253.066L204.255 253.244L202.787 244.474L208.318 243.332Z" fill="#FFB573"/>
<path d="M202.266 255.234C201.795 255.645 201.189 255.866 200.565 255.856C200.463 255.818 200.375 255.748 200.315 255.658C200.255 255.567 200.226 255.459 200.231 255.351C200.223 255.256 200.234 255.16 200.264 255.069C200.293 254.979 200.34 254.895 200.402 254.822C201.07 254.046 203.455 253.82 203.563 253.813C203.592 253.812 203.621 253.82 203.646 253.835C203.67 253.85 203.69 253.872 203.703 253.898C203.719 253.921 203.727 253.948 203.727 253.976C203.727 254.003 203.719 254.03 203.703 254.053C203.261 254.49 202.78 254.885 202.266 255.234ZM200.829 254.822C200.752 254.87 200.683 254.93 200.627 255.001C200.584 255.042 200.552 255.091 200.531 255.147C200.511 255.202 200.504 255.261 200.511 255.32C200.511 255.529 200.604 255.576 200.666 255.591C201.109 255.755 202.352 254.908 203.191 254.162C202.369 254.232 201.568 254.456 200.829 254.822Z" fill="#FF5C8A"/>
<path d="M203.656 254.105H203.602C202.825 254.245 200.922 254.004 200.642 253.375C200.564 253.235 200.549 253.002 200.852 252.753C200.958 252.661 201.081 252.592 201.215 252.549C201.348 252.506 201.489 252.491 201.629 252.505C202.607 252.582 203.648 253.818 203.703 253.872C203.716 253.893 203.723 253.917 203.723 253.942C203.723 253.967 203.716 253.991 203.703 254.012C203.703 254.03 203.699 254.048 203.691 254.064C203.683 254.081 203.671 254.095 203.656 254.105ZM201.077 252.948L201.007 252.986C200.813 253.15 200.86 253.243 200.867 253.282C201.069 253.631 202.421 253.926 203.275 253.872C202.833 253.354 202.242 252.984 201.582 252.815C201.403 252.8 201.225 252.847 201.077 252.948Z" fill="#FF5C8A"/>
<path d="M203.695 253.019L209.055 249.314C209.153 249.247 209.271 249.216 209.39 249.224C209.508 249.232 209.62 249.281 209.708 249.36L213.693 253.05C213.863 253.206 213.964 253.423 213.974 253.653C213.984 253.883 213.902 254.108 213.747 254.278C213.704 254.323 213.658 254.365 213.607 254.402C211.658 255.707 209.863 256.787 207.463 258.449C204.627 260.415 205.583 260.259 202.281 262.613C200.293 264.027 198.343 261.999 199.12 261.3C202.677 258.108 202.266 256.639 202.802 254.216C202.95 253.725 203.266 253.301 203.695 253.019Z" fill="#1C2D5E"/>
<path opacity="0.2" d="M208.489 244.863L208.901 248.514L203.571 249.19L203.09 246.277L208.489 244.863Z" fill="#1C2D5E"/>
<path d="M211.223 242.648L211.433 246.401L201.419 248.133L200.223 244.412L211.223 242.648Z" fill="#FF5C8A"/>
<path d="M203.432 128.946L204.286 128.17L205.172 127.393C205.77 126.849 206.345 126.297 206.919 125.722C208.077 124.596 209.211 123.392 210.283 122.266C211.355 121.139 212.388 119.935 213.344 118.646C214.277 117.433 215.138 116.168 215.923 114.855L215.783 115.158C216.141 114.377 216.402 113.555 216.56 112.711C216.785 111.74 216.956 110.668 217.104 109.603C217.251 108.539 217.399 107.436 217.539 106.333C217.679 105.23 217.795 104.103 217.943 103.016V102.954C218.031 102.54 218.253 102.167 218.575 101.892C218.896 101.617 219.3 101.456 219.722 101.433C220.145 101.41 220.563 101.526 220.912 101.765C221.262 102.003 221.523 102.35 221.656 102.752C221.945 103.899 222.176 105.061 222.347 106.232C222.534 107.397 222.658 108.562 222.751 109.782C222.839 111.01 222.857 112.242 222.806 113.472C222.77 114.897 222.531 116.309 222.099 117.667L222.06 117.776L221.959 117.97C221.155 119.657 220.228 121.282 219.186 122.833C218.166 124.34 217.066 125.793 215.892 127.183C214.734 128.566 213.515 129.879 212.256 131.137C211.619 131.766 210.967 132.372 210.306 132.978C209.646 133.584 209.001 134.159 208.217 134.788C207.841 135.109 207.406 135.353 206.937 135.505C206.467 135.658 205.972 135.717 205.48 135.678C204.987 135.64 204.508 135.505 204.067 135.28C203.627 135.056 203.236 134.748 202.915 134.372C202.594 133.997 202.35 133.562 202.198 133.093C202.045 132.623 201.986 132.128 202.025 131.635C202.063 131.143 202.198 130.663 202.423 130.223C202.647 129.783 202.955 129.391 203.331 129.071L203.432 128.946Z" fill="#FF887B"/>
<path d="M218.145 103.517L216.482 99.7883L221.811 98.2734C221.811 98.2734 223.008 101.249 221.089 103.618L218.145 103.517Z" fill="#FF887B"/>
<path d="M218.284 95.5712L220.118 95.6567C220.482 95.6741 220.83 95.8151 221.104 96.0566C221.378 96.298 221.562 96.6254 221.625 96.985L221.85 98.2746L216.521 99.7894L216.606 97.1171C216.613 96.9059 216.662 96.6981 216.749 96.5057C216.837 96.3133 216.961 96.14 217.116 95.9957C217.27 95.8514 217.451 95.739 217.649 95.6648C217.847 95.5906 218.058 95.5562 218.269 95.5634L218.284 95.5712Z" fill="#FF887B"/>
<path d="M187.832 113.501C187.901 114.328 188.236 115.11 188.788 115.731C189.961 117.005 191.732 115.832 193.386 115.311C193.565 115.272 193.729 115.183 193.86 115.055C194.124 114.736 193.86 114.278 193.658 113.921C193.041 112.85 192.175 111.944 191.134 111.28C188.764 110.021 187.653 111.683 187.832 113.501Z" fill="#1C2D5E"/>
<path d="M181.253 116.23C178.379 116.067 175.537 115.545 172.793 114.676L176.118 113.969C174.975 113.392 174.107 112.387 173.702 111.172C175.185 111.759 176.814 111.87 178.363 111.491L176.429 110.038C178.641 109.649 180.879 109.418 183.125 109.347L181.571 107.84L186.543 109.277C186.325 108.826 186.108 108.368 185.898 107.91C187.623 108.135 190.683 108.958 191.53 110.691C191.688 110.917 191.783 111.182 191.804 111.457C191.826 111.732 191.774 112.008 191.654 112.256C191.534 112.505 191.349 112.716 191.12 112.87C190.891 113.024 190.625 113.113 190.349 113.13C188.943 113.402 187.467 113.052 186.046 113.324C185.14 113.499 184.272 113.833 183.482 114.311C183.109 114.513 181.478 116.237 181.253 116.23Z" fill="#1C2D5E"/>
<path d="M203.338 129.034C203.338 129.034 199.252 131.567 204.721 139.133C210.19 146.699 209.195 133.951 209.195 133.951C209.195 133.951 208.442 128.187 203.338 129.034Z" fill="#FF887B"/>
<path opacity="0.2" d="M222.036 163.636C218.447 164.879 205.008 169.641 199.617 173.378L197.1 174.986L196.844 172.391C203.167 165.105 220.475 160.156 220.475 160.156L222.036 163.636Z" fill="#1C2D5E"/>
<path d="M102.234 118.579C101.738 117.559 100.949 116.712 99.9673 116.145C98.9855 115.579 97.8566 115.32 96.7262 115.401C96.3089 115.422 95.9021 115.539 95.5377 115.743C95.3579 115.847 95.2056 115.991 95.0934 116.166C94.9812 116.34 94.9125 116.539 94.8929 116.745C94.8775 116.953 94.9361 117.16 95.0583 117.329C95.1805 117.499 95.3586 117.619 95.561 117.67C94.3819 117.769 93.2418 118.14 92.2297 118.753C91.2177 119.366 90.3612 120.205 89.727 121.204C89.3984 121.651 89.2539 122.207 89.323 122.758C89.4473 123.286 90.0999 123.698 90.5427 123.418C90.1269 123.494 89.7325 123.659 89.3866 123.902C89.0406 124.145 88.7513 124.459 88.5385 124.824C88.146 125.506 87.9173 126.269 87.8704 127.054C87.7713 127.562 87.8684 128.09 88.1423 128.53C88.3254 128.726 88.5562 128.871 88.8121 128.951C89.0681 129.032 89.3404 129.044 89.6027 128.988C90.1258 128.864 90.6229 128.648 91.0709 128.351C90.843 128.438 90.6444 128.587 90.4985 128.783C90.3527 128.978 90.2656 129.211 90.2475 129.454C90.1096 130.198 90.174 130.965 90.4339 131.676C90.568 132.029 90.7986 132.337 91.0994 132.565C91.4002 132.793 91.7592 132.932 92.1352 132.965C92.321 132.97 92.5057 132.936 92.6777 132.866C92.8497 132.795 93.0053 132.69 93.1345 132.556C93.2637 132.423 93.3638 132.264 93.4285 132.089C93.4931 131.915 93.5209 131.729 93.5101 131.544C93.5956 132.072 93.3936 132.662 93.4402 133.191C93.4634 133.725 93.6239 134.244 93.9063 134.698C94.0501 134.922 94.2512 135.104 94.4889 135.224C94.7266 135.344 94.9922 135.399 95.258 135.381C95.5464 135.314 95.8131 135.174 96.0331 134.976C96.2531 134.778 96.4194 134.527 96.5165 134.247C96.7573 133.711 96.8583 133.121 97.0991 132.577C96.9355 133.754 96.9591 134.95 97.169 136.119C97.2778 136.508 97.4487 136.943 97.8371 137.067C98.0493 137.095 98.2649 137.064 98.4607 136.977C98.6565 136.891 98.825 136.753 98.9479 136.578C99.7706 135.684 100.24 134.522 100.269 133.307C100.346 129.835 102.304 126.549 102.894 123.123C103.133 121.576 102.903 119.993 102.234 118.579Z" fill="#1C2D5E"/>
<path d="M119.697 144.494H119.992H120.373C120.629 144.494 120.893 144.448 121.15 144.401C121.686 144.331 122.237 144.238 122.797 144.137C123.897 143.937 124.986 143.677 126.059 143.36C127.155 143.034 128.234 142.638 129.314 142.234C129.858 141.985 130.386 141.799 130.914 141.558L132.142 141.006C132.304 140.915 132.428 140.769 132.491 140.595C132.469 139.098 132.3 137.607 131.986 136.143C131.497 133.813 131.039 130.597 130.208 128.375H132.616C134.024 130.534 135.162 132.859 136.003 135.297C136.463 136.609 136.74 137.979 136.826 139.367C136.874 140.199 136.787 141.033 136.57 141.837C136.297 142.855 135.716 143.764 134.907 144.44C134.696 144.611 134.473 144.767 134.239 144.906L133.773 145.17L132.926 145.636C132.359 145.947 131.769 146.219 131.194 146.506C130.012 147.059 128.801 147.546 127.566 147.967C126.318 148.387 125.047 148.737 123.76 149.015C123.092 149.155 122.447 149.256 121.771 149.334C121.437 149.38 121.088 149.412 120.738 149.435H120.21C120.008 149.435 119.868 149.435 119.573 149.435L119.697 144.494Z" fill="#FFB573"/>
<path d="M130.34 128.693L127.543 123.449L132.43 124.11C132.43 124.11 133.657 126.999 132.624 128.374L130.34 128.693Z" fill="#FFB573"/>
<path d="M128.864 119.813H130.417C130.748 119.808 131.07 119.92 131.327 120.129C131.584 120.338 131.76 120.63 131.823 120.955L132.437 124.132L127.559 123.479L127.504 121.281C127.495 121.095 127.523 120.908 127.586 120.733C127.65 120.558 127.748 120.397 127.875 120.26C128.001 120.124 128.154 120.014 128.324 119.937C128.494 119.86 128.677 119.818 128.864 119.813Z" fill="#FFB573"/>
<path d="M131.474 124.228L131.606 123.451C131.673 123.051 131.686 122.643 131.645 122.24L131.342 121.851C131.195 121.836 131.046 121.87 130.92 121.947C130.794 122.024 130.696 122.141 130.643 122.278L130.417 122.846L128.864 125.324L129.812 126.1L131.365 126.209L131.559 125.984C131.757 125.729 131.857 125.412 131.841 125.09C131.825 124.768 131.695 124.463 131.474 124.228Z" fill="#FFB573"/>
<path d="M112.426 145.435C113.35 143.586 131.917 139.555 131.917 139.555L134.364 146.702C134.364 146.702 116.201 152.714 114.384 150.749C112.566 148.783 111.082 148.131 112.426 145.435Z" fill="#FF5C8A"/>
<path opacity="0.3" d="M112.426 145.435C113.35 143.586 131.917 139.555 131.917 139.555L134.364 146.702C134.364 146.702 116.201 152.714 114.384 150.749C112.566 148.783 111.082 148.131 112.426 145.435Z" fill="white"/>
<path opacity="0.1" d="M116.714 146.383L116.877 151.821C118.874 151.277 130.977 147.882 130.977 147.882L116.714 146.383Z" fill="#1C2D5E"/>
<path d="M131.109 136.172L130.658 139.792L134.364 146.698C134.364 146.698 137.898 145.362 138.092 142.363C138.287 139.365 131.109 136.172 131.109 136.172Z" fill="#FF5C8A"/>
<path opacity="0.5" d="M131.109 136.172L130.658 139.792L134.364 146.698C134.364 146.698 137.898 145.362 138.092 142.363C138.287 139.365 131.109 136.172 131.109 136.172Z" fill="white"/>
<path d="M133.983 272.064L138.745 271.194L137.137 260.047L132.383 260.917L133.983 272.064Z" fill="#FFB573"/>
<path d="M60.7127 208.199L59.4775 212.883L69.8948 217.374L72.0544 212.619L60.7127 208.199Z" fill="#FFB573"/>
<path d="M142.318 271.193C142.73 271.128 143.108 270.926 143.39 270.619C143.448 270.531 143.483 270.431 143.494 270.327C143.505 270.223 143.49 270.118 143.452 270.02C143.432 269.961 143.397 269.907 143.351 269.863C143.305 269.82 143.249 269.789 143.188 269.772C142.528 269.601 140.857 271.038 140.718 271.201C140.703 271.22 140.695 271.243 140.695 271.267C140.695 271.291 140.703 271.314 140.718 271.333C140.726 271.354 140.741 271.372 140.761 271.383C140.781 271.395 140.804 271.399 140.826 271.395C141.329 271.377 141.829 271.309 142.318 271.193ZM142.893 270.02C142.964 270.001 143.039 270.001 143.11 270.02C143.136 270.026 143.159 270.039 143.178 270.056C143.197 270.074 143.211 270.097 143.219 270.121C143.246 270.184 143.256 270.253 143.25 270.321C143.243 270.389 143.219 270.454 143.18 270.51C142.963 270.836 142.201 271.077 141.114 271.17C141.641 270.688 142.248 270.301 142.908 270.028L142.893 270.02Z" fill="#FF5C8A"/>
<path d="M140.827 271.387C141.332 270.991 142.178 269.694 141.953 269.181C141.906 269.096 141.831 269.029 141.74 268.992C141.65 268.956 141.549 268.951 141.456 268.979C141.342 268.988 141.231 269.022 141.132 269.078C141.033 269.135 140.947 269.212 140.881 269.305C140.596 269.927 140.509 270.621 140.632 271.294C140.634 271.315 140.641 271.334 140.652 271.352C140.662 271.37 140.677 271.384 140.695 271.395C140.714 271.409 140.738 271.415 140.762 271.414C140.786 271.412 140.809 271.403 140.827 271.387ZM141.44 269.197H141.502C141.712 269.197 141.743 269.243 141.751 269.267C141.891 269.577 141.339 270.564 140.85 271.046C140.755 270.498 140.836 269.935 141.083 269.437C141.172 269.322 141.303 269.247 141.448 269.228L141.44 269.197Z" fill="#FF5C8A"/>
<path d="M137.983 269.398L133.835 270.766C133.745 270.793 133.668 270.852 133.62 270.933C133.571 271.013 133.554 271.108 133.571 271.201L134.239 277.314C134.261 277.415 134.303 277.511 134.362 277.596C134.422 277.68 134.497 277.752 134.585 277.807C134.673 277.862 134.77 277.899 134.872 277.916C134.974 277.933 135.079 277.929 135.179 277.905C135.207 277.909 135.236 277.909 135.265 277.905C137.059 277.291 137.898 276.903 140.182 276.165C141.58 275.714 146.078 274.984 147.857 273.997C149.636 273.011 148.758 271.193 147.927 271.449C146.491 271.791 144.998 271.82 143.55 271.536C142.101 271.252 140.73 270.661 139.529 269.802C139.044 269.57 138.52 269.433 137.983 269.398Z" fill="#1C2D5E"/>
<path d="M61.6912 213.505L63.9052 209.745C63.9563 209.666 63.9759 209.57 63.96 209.476C63.9442 209.383 63.8942 209.299 63.8197 209.241L59.2908 205.077C59.2075 205.016 59.1129 204.972 59.0124 204.947C58.9119 204.923 58.8076 204.919 58.7056 204.936C58.6036 204.953 58.5059 204.989 58.4183 205.044C58.3307 205.099 58.255 205.171 58.1955 205.255L58.1489 205.325C57.2011 206.972 56.8283 207.811 55.5931 209.878C54.8163 211.136 51.9342 214.647 51.2429 216.558C50.5515 218.469 52.4159 219.262 52.8742 218.524C54.3424 216.154 57.6129 214.438 60.2774 214.228C60.5881 214.127 61.5436 213.769 61.6912 213.505Z" fill="#1C2D5E"/>
<path opacity="0.2" d="M137.137 260.047L137.968 265.795L133.206 266.665L132.375 260.917L137.137 260.047Z" fill="#1C2D5E"/>
<path opacity="0.2" d="M75.2549 213.781L73.0331 218.8L66.3291 215.84L68.0381 211.055L75.2549 213.781Z" fill="#1C2D5E"/>
<path d="M88.3208 160.279C85.027 163.169 81.8731 167.045 82.3703 171.396C83.4501 168.288 87.2099 166.929 90.4959 167.131C93.7819 167.333 96.8892 168.638 100.144 169.081C101.698 169.283 103.376 169.228 104.448 168.148C105.52 167.069 105.543 165.212 105.318 163.643C104.9 160.788 104.035 158.017 102.754 155.432C102.082 153.884 101.01 152.543 99.647 151.548C97.7981 150.343 97.13 150.67 96.1124 152.324C94.1781 155.595 91.1018 157.84 88.3208 160.279Z" fill="#FF5C8A"/>
<path opacity="0.1" d="M88.3208 160.279C85.027 163.169 81.8731 167.045 82.3703 171.396C83.4501 168.288 87.2099 166.929 90.4959 167.131C93.7819 167.333 96.8892 168.638 100.144 169.081C101.698 169.283 103.376 169.228 104.448 168.148C105.52 167.069 105.543 165.212 105.318 163.643C104.9 160.788 104.035 158.017 102.754 155.432C102.082 153.884 101.01 152.543 99.647 151.548C97.7981 150.343 97.13 150.67 96.1124 152.324C94.1781 155.595 91.1018 157.84 88.3208 160.279Z" fill="white"/>
<path d="M120.746 150.102C121.772 157.008 120.14 158.725 117.328 172.708L99.1892 172.755C99.4844 165.219 99.4534 159.129 96.2373 144.307C96.0961 143.659 96.2169 142.982 96.5736 142.423C96.9302 141.864 97.4935 141.469 98.1405 141.324C98.3166 141.286 98.4964 141.268 98.6765 141.27C100.176 141.27 109.241 141.27 112.201 141.93C113.806 142.32 115.383 142.813 116.924 143.406C117.856 143.724 119.729 147.205 120.746 150.102Z" fill="#FF5C8A"/>
<path d="M97.6814 141.268C97.6814 141.268 95.6772 141.696 97.0289 148.019C98.3805 154.342 97.4794 133.64 115.626 143.816C120.132 146.341 120.341 149.122 120.341 149.122C120.341 149.122 122.594 145.238 117.436 142.301C112.278 139.365 104.253 139.986 97.6814 141.268Z" fill="#FF5C8A"/>
<path opacity="0.3" d="M97.6814 141.268C97.6814 141.268 95.6772 141.696 97.0289 148.019C98.3805 154.342 97.4794 133.64 115.626 143.816C120.132 146.341 120.341 149.122 120.341 149.122C120.341 149.122 122.594 145.238 117.436 142.301C112.278 139.365 104.253 139.986 97.6814 141.268Z" fill="white"/>
<path d="M137.929 262.244L131.544 263.674C131.544 263.674 123.682 229.493 120.435 219.301C120.35 219.037 120.264 218.773 120.194 218.524C116.963 208.892 110.624 194.318 106.507 185.167C104.231 180.095 102.623 176.684 102.623 176.684L103.671 176.405L111.859 172.723L117.973 173.647C117.973 173.647 133.836 198.669 137.494 212.349C144.618 235.894 137.929 262.244 137.929 262.244Z" fill="#FF5C8A"/>
<path opacity="0.3" d="M137.929 262.244L131.544 263.674C131.544 263.674 123.682 229.493 120.435 219.301C120.35 219.037 120.264 218.773 120.194 218.524C116.963 208.892 110.624 194.318 106.507 185.167C104.231 180.095 102.623 176.684 102.623 176.684L103.671 176.405L111.859 172.723L117.973 173.647C117.973 173.647 133.836 198.669 137.494 212.349C144.618 235.894 137.929 262.244 137.929 262.244Z" fill="white"/>
<path d="M130.775 265.656L139.763 263.652L139.809 260.762L129.664 262.68L130.775 265.656Z" fill="#FF5C8A"/>
<path opacity="0.2" d="M120.404 219.305C120.319 219.041 120.233 218.777 120.163 218.528C116.932 208.895 110.593 194.322 106.476 185.171L103.687 176.424L103.143 174.746L104.083 176.3L118.066 199.807C122.735 208.056 123.426 215.794 120.404 219.305Z" fill="#1C2D5E"/>
<path d="M113.412 173.398C113.412 173.398 121.507 225.189 104.673 231.023C95.7937 234.387 88.3206 230.736 79.4648 226.821C74.3533 224.552 67.96 218.431 67.96 218.431L70.4147 211.735C74.8308 210.547 79.4494 210.314 83.9626 211.051C92.5932 212.395 92.9583 214.834 96.0268 212.993C102.474 197.053 91.3658 184.46 98.9166 173.375L113.412 173.398Z" fill="#FF5C8A"/>
<path opacity="0.3" d="M113.412 173.398C113.412 173.398 121.507 225.189 104.673 231.023C95.7937 234.387 88.3206 230.736 79.4648 226.821C74.3533 224.552 67.96 218.431 67.96 218.431L70.4147 211.735C74.8308 210.547 79.4494 210.314 83.9626 211.051C92.5932 212.395 92.9583 214.834 96.0268 212.993C102.474 197.053 91.3658 184.46 98.9166 173.375L113.412 173.398Z" fill="white"/>
<path d="M70.9115 210.469L67.6255 219.146L70.0492 220.995L73.9489 210.671L70.9115 210.469Z" fill="#FF5C8A"/>
<path d="M69.5609 163.672C68.7374 164.884 64.5814 164.061 64.5814 164.061L63.6958 158.91L68.7996 160.961L69.5609 163.672Z" fill="#FFB573"/>
<path d="M63.6952 158.91L65.513 163.991L62.4057 164.449C62.2415 164.459 62.079 164.411 61.9468 164.313C61.8147 164.215 61.7214 164.073 61.6833 163.913L60.5879 160.106C60.5689 160.017 60.5848 159.924 60.6325 159.846C60.6802 159.768 60.756 159.711 60.8443 159.687L63.6952 158.91Z" fill="#FFB573"/>
<path d="M97.0989 143.289L86.8447 157.412L67.9756 161.125V164.232C67.9756 164.232 85.7028 165.545 89.6724 163.222C93.642 160.9 100.338 146.855 100.338 146.855L97.0989 143.289Z" fill="#FFB573"/>
<path d="M87.2797 164.456L84.4365 156.929L85.0891 156.983C85.6163 157.03 86.1457 156.923 86.6131 156.674C87.0806 156.426 87.466 156.048 87.7225 155.585C89.8821 151.701 95.4908 141.913 97.0444 141.423C99.2972 140.755 101.402 143.381 100.307 148.205C99.5303 151.809 96.5317 155.577 93.471 160.354C90.791 164.588 87.2797 164.456 87.2797 164.456Z" fill="#FF5C8A"/>
<path opacity="0.3" d="M87.2797 164.456L84.4365 156.929L85.0891 156.983C85.6163 157.03 86.1457 156.923 86.6131 156.674C87.0806 156.426 87.466 156.048 87.7225 155.585C89.8821 151.701 95.4908 141.913 97.0444 141.423C99.2972 140.755 101.402 143.381 100.307 148.205C99.5303 151.809 96.5317 155.577 93.471 160.354C90.791 164.588 87.2797 164.456 87.2797 164.456Z" fill="white"/>
<path d="M59.5393 215.979V216.041C59.5793 216.145 59.6452 216.238 59.7308 216.31C59.8164 216.382 59.9189 216.431 60.0287 216.452C60.0937 216.476 60.164 216.48 60.2314 216.465C60.2988 216.45 60.3605 216.416 60.4094 216.367C60.8677 215.955 60.5803 214.2 60.5492 214.036C60.5464 214.014 60.5367 213.993 60.5214 213.976C60.5061 213.959 60.4859 213.948 60.4637 213.943C60.4456 213.934 60.4257 213.93 60.4055 213.93C60.3853 213.93 60.3653 213.934 60.3472 213.943C59.9821 214.487 59.3995 215.427 59.5393 215.979ZM60.3783 214.347C60.4793 215.039 60.5181 215.986 60.2695 216.204C60.2424 216.219 60.2116 216.228 60.1802 216.228C60.1488 216.228 60.118 216.219 60.0909 216.204C60.0181 216.192 59.9496 216.162 59.8923 216.115C59.835 216.069 59.791 216.008 59.7646 215.94C59.7585 215.348 59.9779 214.776 60.3783 214.339V214.347Z" fill="#FF5C8A"/>
<path d="M60.371 214.251C60.5108 214.842 61.0624 215.805 61.5518 215.952C61.6413 215.971 61.7346 215.96 61.8165 215.919C61.8983 215.878 61.9639 215.81 62.0023 215.727C62.0388 215.647 62.0577 215.559 62.0577 215.471C62.0577 215.382 62.0388 215.295 62.0023 215.214C61.7771 214.546 60.4953 213.987 60.4487 213.964C60.4307 213.954 60.4107 213.949 60.3904 213.949C60.3701 213.949 60.3501 213.954 60.3322 213.964C60.3183 213.999 60.3183 214.038 60.3322 214.072C60.3419 214.133 60.3548 214.192 60.371 214.251ZM61.847 215.315C61.8701 215.414 61.8534 215.517 61.8004 215.603C61.7304 215.727 61.6605 215.727 61.6062 215.719C61.2721 215.649 60.7672 214.834 60.604 214.259C61.0158 214.469 61.6994 214.873 61.8314 215.277C61.8273 215.289 61.8273 215.303 61.8314 215.315H61.847Z" fill="#FF5C8A"/>
<path d="M99.1185 171.832L98.6213 173.603C98.5514 173.735 98.7146 173.875 98.9398 173.875H117.661C117.733 173.885 117.806 173.87 117.868 173.834C117.93 173.797 117.978 173.74 118.003 173.673L118.174 171.909C118.174 171.785 118.034 171.684 117.832 171.684H99.437C99.3759 171.681 99.3149 171.692 99.2593 171.718C99.2038 171.744 99.1554 171.783 99.1185 171.832Z" fill="#FF5C8A"/>
<path d="M99.1185 171.832L98.6213 173.603C98.5514 173.735 98.7146 173.875 98.9398 173.875H117.661C117.733 173.885 117.806 173.87 117.868 173.834C117.93 173.797 117.978 173.74 118.003 173.673L118.174 171.909C118.174 171.785 118.034 171.684 117.832 171.684H99.437C99.3759 171.681 99.3149 171.692 99.2593 171.718C99.2038 171.744 99.1554 171.783 99.1185 171.832Z" fill="#1C2D5E"/>
<path d="M102.692 174.036H102.148C102.047 174.036 101.962 173.982 101.977 173.92L102.218 171.589C102.218 171.527 102.319 171.473 102.428 171.473H102.972C103.073 171.473 103.158 171.527 103.15 171.597L102.902 173.889C102.894 173.974 102.801 174.036 102.692 174.036Z" fill="#FF5C8A"/>
<path d="M116.209 174.037H115.665C115.564 174.037 115.479 173.983 115.487 173.913L115.735 171.621C115.735 171.551 115.836 171.497 115.937 171.505H116.481C116.582 171.505 116.668 171.559 116.66 171.629L116.411 173.921C116.411 173.983 116.318 174.037 116.209 174.037Z" fill="#FF5C8A"/>
<path d="M110.026 174.021H109.482C109.373 174.021 109.288 173.966 109.304 173.904L109.544 171.613C109.544 171.543 109.645 171.488 109.746 171.488H110.29C110.391 171.488 110.477 171.543 110.469 171.605L110.228 173.896C110.22 173.966 110.135 174.021 110.026 174.021Z" fill="#FF5C8A"/>
<path d="M104.813 131.637C105.388 134.596 105.955 139.933 103.951 141.541C103.951 141.541 104.728 144.571 110.119 145.379C116.046 146.28 112.931 142.901 112.931 142.901C109.707 141.619 109.824 139.288 110.344 137.144L104.813 131.637Z" fill="#FFB573"/>
<path d="M109.839 141.937L113.117 142.714C113.401 142.775 113.665 142.905 113.887 143.092C114.109 143.279 114.282 143.517 114.391 143.786C115.028 145.34 115.308 147.67 112.527 148.307C112.527 148.307 106.133 149.597 102.428 144.26C102.238 143.977 102.131 143.647 102.119 143.306C102.107 142.966 102.189 142.628 102.358 142.332C102.527 142.036 102.774 141.793 103.073 141.63C103.373 141.467 103.711 141.39 104.051 141.409C105.473 141.463 107.369 141.627 109.839 141.937Z" fill="#FFB573"/>
<path opacity="0.2" d="M107.066 133.891L110.336 137.146C110.202 137.655 110.111 138.175 110.064 138.699C108.837 138.334 106.848 136.975 106.716 135.67C106.709 135.059 106.828 134.453 107.066 133.891Z" fill="#1C2D5E"/>
<path d="M101.193 127.899C102.645 132.49 103.158 134.471 106.133 136.281C110.577 138.992 115.921 136.211 115.852 131.278C115.805 126.843 113.451 120.084 108.402 119.362C107.293 119.195 106.161 119.316 105.112 119.711C104.063 120.106 103.133 120.764 102.41 121.621C101.687 122.477 101.196 123.505 100.983 124.605C100.77 125.706 100.842 126.842 101.193 127.907V127.899Z" fill="#FFB573"/>
<path d="M112.146 127.184C112.661 127.993 113.286 128.728 114.003 129.366C113.833 129.544 113.627 129.683 113.4 129.774C113.172 129.865 112.927 129.906 112.682 129.895L112.146 127.184Z" fill="#ED893E"/>
<path d="M111.633 132.352C111.817 132.331 111.998 132.297 112.177 132.251C112.192 132.249 112.205 132.243 112.218 132.235C112.23 132.227 112.24 132.216 112.248 132.204C112.256 132.191 112.262 132.178 112.264 132.163C112.267 132.149 112.266 132.134 112.263 132.119C112.254 132.091 112.235 132.066 112.209 132.05C112.183 132.035 112.153 132.029 112.123 132.034C111.654 132.164 111.16 132.181 110.683 132.082C110.206 131.984 109.76 131.773 109.381 131.467C109.359 131.446 109.33 131.434 109.299 131.434C109.269 131.434 109.239 131.446 109.217 131.467C109.206 131.477 109.197 131.49 109.19 131.504C109.184 131.518 109.181 131.533 109.181 131.548C109.181 131.564 109.184 131.579 109.19 131.593C109.197 131.607 109.206 131.62 109.217 131.63C109.551 131.907 109.937 132.114 110.352 132.238C110.767 132.362 111.203 132.401 111.633 132.352Z" fill="#1C2D5E"/>
<path d="M99.6164 118.733C99.0169 119.12 98.5191 119.645 98.1649 120.264C97.8107 120.883 97.6105 121.578 97.5811 122.291C97.5633 122.556 97.6058 122.822 97.7054 123.068C97.7601 123.192 97.8462 123.299 97.9552 123.38C98.0642 123.46 98.1923 123.511 98.3269 123.526C98.7386 123.526 99.0493 123.161 99.2746 122.812L100.323 121.204C100.76 120.675 101.128 120.093 101.419 119.471C101.76 118.407 100.253 118.329 99.6164 118.733Z" fill="#FF5C8A"/>
<path d="M100.129 119.822C97.2466 123.147 95.957 132.368 104.401 134.939C105.807 133.828 103.531 131.832 102.56 129.222C101.931 127.536 105.147 124.39 106.405 123.1C107.664 121.811 108.806 119.954 110.585 120.249C111.032 120.398 111.513 120.411 111.967 120.288C113.374 119.651 112.69 118.812 111.967 118.222C110.854 117.399 109.527 116.914 108.145 116.824C106.667 116.653 105.17 116.836 103.776 117.357C102.382 117.879 101.132 118.723 100.129 119.822Z" fill="#1C2D5E"/>
<path d="M100.68 131.761C101.212 132.528 102.024 133.055 102.941 133.229C104.152 133.439 104.619 132.328 104.199 131.24C103.811 130.269 102.708 128.98 101.527 129.252C101.324 129.3 101.133 129.39 100.965 129.514C100.798 129.638 100.657 129.794 100.551 129.974C100.445 130.154 100.376 130.353 100.349 130.56C100.322 130.767 100.337 130.977 100.393 131.178C100.449 131.39 100.546 131.588 100.68 131.761Z" fill="#FFB573"/>
<path d="M108.923 118.99C109.575 120.66 111.471 120.435 112.869 122.183C113.731 123.255 115.425 119.922 113.125 118.602C110.826 117.281 107.889 116.372 108.923 118.99Z" fill="#1C2D5E"/>
<path d="M106.926 126.045C106.974 126.048 107.021 126.037 107.063 126.014C107.104 125.99 107.138 125.955 107.159 125.912C107.351 125.59 107.61 125.312 107.918 125.097C108.226 124.883 108.577 124.737 108.946 124.67C108.976 124.664 109.005 124.652 109.03 124.636C109.056 124.619 109.078 124.597 109.096 124.572C109.113 124.547 109.125 124.519 109.131 124.489C109.138 124.459 109.138 124.428 109.132 124.398C109.127 124.369 109.116 124.341 109.099 124.316C109.083 124.291 109.062 124.27 109.037 124.254C109.013 124.237 108.985 124.225 108.956 124.219C108.927 124.213 108.897 124.213 108.868 124.219C108.423 124.301 108.002 124.479 107.633 124.74C107.264 125.002 106.956 125.341 106.732 125.734C106.708 125.79 106.707 125.852 106.729 125.909C106.751 125.965 106.794 126.011 106.849 126.037H106.926V126.045Z" fill="#1C2D5E"/>
<path d="M113.98 124.05C114.02 124.053 114.059 124.045 114.095 124.027C114.131 124.01 114.161 123.982 114.182 123.949C114.199 123.924 114.211 123.896 114.218 123.866C114.224 123.836 114.224 123.806 114.218 123.776C114.213 123.746 114.201 123.718 114.184 123.693C114.167 123.668 114.145 123.647 114.12 123.63C113.819 123.423 113.473 123.291 113.111 123.245C112.749 123.199 112.381 123.24 112.038 123.366C111.981 123.39 111.937 123.435 111.913 123.492C111.89 123.549 111.89 123.612 111.913 123.669C111.925 123.697 111.943 123.722 111.964 123.743C111.986 123.764 112.012 123.781 112.04 123.792C112.068 123.802 112.099 123.808 112.129 123.806C112.159 123.805 112.189 123.798 112.216 123.785C112.489 123.69 112.781 123.661 113.067 123.7C113.353 123.739 113.626 123.845 113.863 124.011C113.899 124.032 113.939 124.045 113.98 124.05Z" fill="#1C2D5E"/>
<path d="M80.677 155.953L84.4369 157.002L88.0025 164.374C87.1912 165.113 86.1397 165.532 85.0428 165.555C83.9459 165.578 82.8778 165.202 82.0365 164.498C79.7137 162.611 80.677 155.953 80.677 155.953Z" fill="#FF5C8A"/>
<g opacity="0.5">
<path opacity="0.5" d="M80.6765 155.953L84.4364 157.002L88.002 164.374C87.1907 165.113 86.1392 165.532 85.0423 165.555C83.9454 165.578 82.8773 165.202 82.036 164.498C79.7133 162.611 80.6765 155.953 80.6765 155.953Z" fill="white"/>
</g>
<path d="M113.762 125.924C114.019 125.87 114.291 126.165 114.36 126.569C114.43 126.973 114.275 127.346 114.019 127.385C113.762 127.424 113.483 127.136 113.413 126.732C113.343 126.328 113.498 125.924 113.762 125.924Z" fill="#1C2D5E"/>
<path d="M114.562 125.492L113.645 125.943C114.189 126.331 114.562 125.492 114.562 125.492Z" fill="#1C2D5E"/>
<path d="M109.218 126.813C109.474 126.767 109.746 127.062 109.816 127.466C109.886 127.87 109.731 128.243 109.474 128.243C109.218 128.243 108.938 128.002 108.868 127.598C108.798 127.194 108.954 126.868 109.218 126.813Z" fill="#1C2D5E"/>
<path d="M110.018 126.418L109.101 126.869C109.653 127.265 110.018 126.418 110.018 126.418Z" fill="#1C2D5E"/>
<path d="M107.827 134.59C107.37 134.588 106.932 134.407 106.607 134.085C106.359 133.81 106.178 133.48 106.078 133.123C105.978 132.766 105.963 132.391 106.032 132.026C106.114 131.594 106.269 131.179 106.491 130.799C106.273 130.788 106.06 130.733 105.864 130.638C105.668 130.543 105.493 130.411 105.349 130.247C105.12 129.964 104.96 129.631 104.883 129.275C104.806 128.919 104.814 128.549 104.906 128.197C105.033 127.739 105.235 127.306 105.504 126.915C105.174 126.799 104.898 126.567 104.727 126.262C104.481 125.766 104.423 125.198 104.564 124.662C104.701 123.968 104.978 123.31 105.379 122.728C105.78 122.145 106.296 121.651 106.895 121.275C106.983 121.222 107.088 121.206 107.188 121.229C107.288 121.252 107.375 121.313 107.431 121.399C107.458 121.443 107.476 121.491 107.484 121.541C107.493 121.592 107.491 121.643 107.48 121.693C107.468 121.743 107.447 121.79 107.417 121.832C107.387 121.873 107.35 121.908 107.306 121.935C106.798 122.254 106.36 122.674 106.019 123.168C105.678 123.662 105.442 124.221 105.325 124.81C105.223 125.165 105.25 125.545 105.403 125.882C105.527 126.107 105.838 126.286 106.048 126.177C106.123 126.138 106.209 126.126 106.292 126.141C106.375 126.157 106.45 126.199 106.506 126.262C106.563 126.323 106.599 126.4 106.609 126.483C106.619 126.565 106.602 126.648 106.56 126.721L106.289 127.163C106.024 127.528 105.817 127.932 105.675 128.36C105.608 128.594 105.597 128.84 105.643 129.079C105.689 129.317 105.79 129.542 105.939 129.735C106.071 129.885 106.252 129.983 106.45 130.012C106.648 130.04 106.85 129.997 107.019 129.89C107.088 129.834 107.174 129.803 107.264 129.803C107.353 129.803 107.439 129.834 107.508 129.89C107.579 129.945 107.63 130.023 107.651 130.11C107.672 130.198 107.663 130.29 107.625 130.372C107.555 130.527 107.462 130.69 107.368 130.853C107.119 131.258 106.933 131.698 106.817 132.158C106.765 132.403 106.771 132.657 106.832 132.899C106.894 133.142 107.011 133.367 107.174 133.557C107.318 133.709 107.511 133.805 107.72 133.827C107.928 133.848 108.137 133.794 108.308 133.673C108.344 133.637 108.386 133.608 108.433 133.589C108.479 133.569 108.53 133.559 108.58 133.559C108.631 133.559 108.681 133.569 108.728 133.589C108.774 133.608 108.817 133.637 108.852 133.673C108.889 133.709 108.917 133.752 108.937 133.8C108.957 133.847 108.967 133.898 108.967 133.949C108.967 134 108.957 134.051 108.937 134.098C108.917 134.146 108.889 134.189 108.852 134.225C108.571 134.475 108.203 134.606 107.827 134.59Z" fill="#1C2D5E"/>
<path d="M118.726 129.353C118.685 129.361 118.643 129.361 118.602 129.353C118.528 129.33 118.463 129.285 118.415 129.224C118.368 129.163 118.341 129.088 118.338 129.011V128.824C118.335 128.773 118.342 128.722 118.358 128.674C118.375 128.625 118.401 128.581 118.435 128.543C118.469 128.504 118.51 128.473 118.556 128.451C118.602 128.429 118.652 128.416 118.703 128.413C118.957 128.119 119.157 127.782 119.293 127.418C119.377 127.217 119.405 126.998 119.377 126.783C119.348 126.567 119.263 126.363 119.13 126.191C118.999 126.042 118.835 125.926 118.652 125.849C118.47 125.772 118.272 125.738 118.074 125.748C117.975 125.753 117.878 125.72 117.801 125.657C117.725 125.594 117.675 125.504 117.662 125.406C117.652 125.309 117.678 125.212 117.736 125.133C117.793 125.054 117.877 125 117.973 124.979C118.121 124.933 118.248 124.836 118.332 124.705C118.416 124.574 118.451 124.418 118.431 124.264C118.396 124.087 118.315 123.922 118.197 123.786C118.078 123.649 117.926 123.547 117.755 123.488C117.405 123.341 117.014 123.324 116.652 123.441C116.578 123.468 116.498 123.471 116.422 123.451C116.346 123.431 116.279 123.387 116.228 123.327C116.178 123.266 116.148 123.192 116.142 123.114C116.136 123.035 116.154 122.957 116.194 122.889C116.486 122.411 116.694 121.885 116.807 121.336C116.85 121.111 116.835 120.878 116.763 120.661C116.691 120.443 116.565 120.248 116.396 120.093C116.041 119.896 115.634 119.814 115.23 119.86C113.999 119.909 112.79 120.202 111.673 120.722C111.627 120.744 111.578 120.758 111.528 120.761C111.477 120.764 111.427 120.757 111.379 120.74C111.331 120.724 111.287 120.698 111.25 120.664C111.212 120.63 111.182 120.589 111.16 120.543C111.138 120.497 111.125 120.447 111.122 120.395C111.119 120.344 111.127 120.293 111.144 120.244C111.162 120.196 111.188 120.151 111.223 120.113C111.258 120.075 111.3 120.045 111.346 120.023C112.564 119.449 113.885 119.129 115.23 119.083C115.806 119.027 116.385 119.16 116.877 119.464C117.163 119.7 117.38 120.008 117.507 120.356C117.634 120.704 117.666 121.08 117.6 121.444C117.537 121.833 117.417 122.21 117.242 122.563C117.51 122.579 117.772 122.639 118.019 122.742C118.324 122.85 118.594 123.038 118.8 123.287C119.007 123.536 119.142 123.836 119.192 124.156C119.233 124.496 119.154 124.839 118.967 125.127C119.237 125.248 119.48 125.423 119.682 125.639C119.913 125.914 120.067 126.245 120.127 126.599C120.187 126.953 120.151 127.316 120.024 127.651C119.789 128.225 119.452 128.752 119.029 129.205C118.992 129.25 118.946 129.286 118.893 129.311C118.841 129.337 118.784 129.351 118.726 129.353Z" fill="#1C2D5E"/>
<path d="M124.684 111.814C125.228 111.356 125.787 110.913 126.362 110.501C126.937 110.09 127.52 109.725 128.118 109.328C128.716 108.932 129.33 108.598 129.951 108.264C130.573 107.93 131.218 107.619 131.862 107.332C131.427 107.752 131.016 108.179 130.619 108.622L130.037 109.282L129.485 109.958C128.895 110.3 128.32 110.665 127.761 111.045C127.201 111.426 126.65 111.822 126.122 112.249C125.593 112.677 125.081 113.112 124.568 113.57C124.055 114.028 123.62 114.518 123.193 115.023C123.379 114.487 123.589 113.943 123.838 113.407L124.024 113.003L124.234 112.607C124.389 112.335 124.537 112.078 124.684 111.814Z" fill="#FF5C8A"/>
<g opacity="0.2">
<path opacity="0.2" d="M124.684 111.818C125.228 111.36 125.787 110.917 126.362 110.505C126.937 110.094 127.52 109.729 128.118 109.332C128.716 108.936 129.33 108.602 129.951 108.268C130.573 107.934 131.218 107.623 131.862 107.336C131.427 107.755 131.016 108.183 130.619 108.625L130.037 109.286L129.485 109.962C128.895 110.303 128.32 110.669 127.761 111.049C127.201 111.43 126.65 111.826 126.122 112.253C125.593 112.681 125.081 113.116 124.568 113.574C124.055 114.032 123.62 114.522 123.193 115.027C123.379 114.491 123.589 113.947 123.838 113.411L124.024 113.007L124.234 112.611C124.389 112.339 124.537 112.082 124.684 111.818Z" fill="#1C2D5E"/>
</g>
<path d="M227.358 137.949C227.344 138.414 227.227 138.871 227.016 139.285C226.799 139.759 226.457 140.163 226.239 140.629C226.66 141.189 227.216 141.633 227.855 141.919C228.111 141.835 228.339 141.684 228.517 141.482C228.694 141.28 228.815 141.033 228.865 140.769C228.995 140.193 228.944 139.59 228.717 139.045C228.647 138.812 228.267 138.578 228.08 138.439C227.829 138.288 227.585 138.125 227.35 137.949H227.358Z" fill="#FF5C8A"/>
<path d="M207.759 68.0742C206.85 68.2762 206.275 69.2006 205.824 69.9619C205.374 70.7232 204.853 71.7331 205.102 72.6575C205.187 72.9527 206.803 74.3665 207.067 74.2112C207.673 73.8771 207.922 72.5099 208.256 71.8807C208.66 71.1038 209.468 70.3736 209.6 69.5502C209.639 69.2861 208.046 67.9965 207.759 68.0898V68.0742Z" fill="#FF5C8A"/>
<path d="M170.758 111.168C170.084 111.588 169.558 112.207 169.251 112.939C168.791 113.608 168.523 114.39 168.474 115.2C168.935 115.795 169.532 116.272 170.214 116.59C170.679 115.979 171.048 115.3 171.31 114.578C171.786 113.948 172.168 113.252 172.444 112.512C172.013 111.921 171.43 111.457 170.758 111.168Z" fill="#FF5C8A"/>
<path d="M253.7 135.651C253.502 135.947 253.404 136.298 253.42 136.653C253.344 137.034 253.371 137.428 253.498 137.795C253.63 138.106 254.166 138.425 254.414 138.619C254.515 138.697 255.114 139.24 255.238 139.147C255.51 138.961 255.362 138.324 255.347 138.013C255.336 137.588 255.263 137.166 255.129 136.762C255.075 136.599 253.785 135.55 253.7 135.651Z" fill="#FF5C8A"/>
<g opacity="0.2">
<path opacity="0.2" d="M253.7 135.651C253.502 135.947 253.404 136.298 253.42 136.653C253.344 137.034 253.371 137.428 253.498 137.795C253.63 138.106 254.166 138.425 254.414 138.619C254.515 138.697 255.114 139.24 255.238 139.147C255.51 138.961 255.362 138.324 255.347 138.013C255.336 137.588 255.263 137.166 255.129 136.762C255.075 136.599 253.785 135.55 253.7 135.651Z" fill="#1C2D5E"/>
</g>
<path d="M253.824 115.203C253.103 116.432 252.775 117.853 252.884 119.274C252.946 119.608 254.492 120.478 254.438 120.54C254.624 119.887 254.57 119.157 254.702 118.481C254.846 117.785 255.062 117.105 255.347 116.454C255.455 116.197 253.793 115.211 253.793 115.203H253.824Z" fill="#FF5C8A"/>
<path d="M211.379 113.219C211.383 113.245 211.383 113.271 211.379 113.296C211.383 113.271 211.383 113.244 211.379 113.219Z" fill="#FF5C8A"/>
<path d="M210.586 112.845L210.943 112.9C210.469 112.721 209.871 112.721 210.586 112.845Z" fill="#FF5C8A"/>
<path d="M177.066 94.3154C177.338 94.261 177.617 94.2066 177.889 94.1367C177.617 94.1911 177.338 94.2377 177.058 94.2765L177.066 94.3154Z" fill="#FF5C8A"/>
<path d="M178.1 97.7932L178.379 97.8632C178.271 97.7777 178.154 97.7156 178.1 97.7932Z" fill="#FF5C8A"/>
<path d="M174.634 93.0623V93.1167L175.287 93.0234C175.069 93.0467 174.852 93.0545 174.634 93.0623Z" fill="#FF5C8A"/>
<path d="M177.113 92.6133C176.526 92.8163 175.919 92.9543 175.303 93.025L174.65 93.1182C174.671 93.5474 174.731 93.9739 174.829 94.3922C175.579 94.4085 176.33 94.3695 177.074 94.2757C177.045 93.7214 177.058 93.1656 177.113 92.6133Z" fill="#FF5C8A"/>
<path d="M177.113 92.5974C177.269 91.2127 177.528 89.8416 177.889 88.4958C178.598 85.6048 179.732 82.8351 181.253 80.2769C182.698 77.8454 184.562 75.0877 187.18 73.8137C187.781 73.5176 188.427 73.3258 189.091 73.2466C189.445 73.2118 189.802 73.2118 190.156 73.2466H190.303C190.053 72.9325 189.774 72.6413 189.472 72.3766C188.806 72.1156 188.098 71.9761 187.382 71.9648C184.12 71.9648 181.781 74.6837 180.041 77.123C178.183 79.7445 176.758 82.6481 175.823 85.7225C175.358 87.246 175.018 88.8048 174.805 90.3834C174.669 91.2568 174.614 92.1411 174.642 93.0247C174.86 93.0247 175.077 93.0247 175.295 93.0247C175.909 92.9175 176.516 92.7748 177.113 92.5974Z" fill="#FF5C8A"/>
<path d="M174.635 93.1189C173.862 93.2149 173.082 93.246 172.304 93.2122C171.219 93.1917 170.145 92.9895 169.127 92.614C168.556 92.4733 167.998 92.2862 167.457 92.0547C169.559 93.397 171.961 94.1976 174.448 94.3852H174.829C174.726 93.9698 174.661 93.546 174.635 93.1189Z" fill="#FF5C8A"/>
<path opacity="0.2" d="M174.635 93.1189C173.862 93.2149 173.082 93.246 172.304 93.2122C171.219 93.1917 170.145 92.9895 169.127 92.614C168.556 92.4733 167.998 92.2862 167.457 92.0547C169.559 93.397 171.961 94.1976 174.448 94.3852H174.829C174.726 93.9698 174.661 93.546 174.635 93.1189Z" fill="#1C2D5E"/>
<path d="M177.058 94.2773C176.314 94.3712 175.563 94.4101 174.813 94.3939C174.813 94.4483 174.813 94.4949 174.852 94.5492C175.595 94.5262 176.335 94.4483 177.066 94.3162L177.058 94.2773Z" fill="#FF5C8A"/>
<path d="M190.498 73.2803C190.431 73.2281 190.371 73.1682 190.319 73.1016C191.096 73.4279 191.321 73.5289 190.894 73.4046C190.763 73.3687 190.631 73.3402 190.498 73.3191C190.645 73.4543 190.782 73.5996 190.909 73.7542C191.124 74.0519 191.289 74.3824 191.399 74.733C191.617 75.4362 191.678 76.1787 191.577 76.9081C191.236 79.7979 189.356 82.4469 187.647 84.6763C185.858 87.1491 183.614 89.2582 181.036 90.891C179.861 91.598 178.607 92.1638 177.299 92.5767L177.097 92.6544C177.055 93.2077 177.055 93.7635 177.097 94.3168C177.377 94.3168 177.657 94.2313 177.928 94.177C178.2 94.1226 178.581 94.0138 178.899 93.9128C178.581 94.0138 178.255 94.0993 177.928 94.177C183.157 93.1826 187.553 89.3917 190.63 85.0803C192.346 82.6877 194.63 79.4405 193.923 76.3177C193.752 75.6813 193.445 75.0897 193.022 74.584C192.6 74.0783 192.072 73.6706 191.476 73.389C190.845 73.017 190.185 72.6949 189.503 72.4258C189.798 72.6789 190.071 72.957 190.319 73.257L190.498 73.2803Z" fill="#FF5C8A"/>
<path opacity="0.2" d="M190.498 73.2803C190.431 73.2281 190.371 73.1682 190.319 73.1016C191.096 73.4279 191.321 73.5289 190.894 73.4046C190.763 73.3687 190.631 73.3402 190.498 73.3191C190.645 73.4543 190.782 73.5996 190.909 73.7542C191.124 74.0519 191.289 74.3824 191.399 74.733C191.617 75.4362 191.678 76.1787 191.577 76.9081C191.236 79.7979 189.356 82.4469 187.647 84.6763C185.858 87.1491 183.614 89.2582 181.036 90.891C179.861 91.598 178.607 92.1638 177.299 92.5767L177.097 92.6544C177.055 93.2077 177.055 93.7635 177.097 94.3168C177.377 94.3168 177.657 94.2313 177.928 94.177C178.2 94.1226 178.581 94.0138 178.899 93.9128C178.581 94.0138 178.255 94.0993 177.928 94.177C183.157 93.1826 187.553 89.3917 190.63 85.0803C192.346 82.6877 194.63 79.4405 193.923 76.3177C193.752 75.6813 193.445 75.0897 193.022 74.584C192.6 74.0783 192.072 73.6706 191.476 73.389C190.845 73.017 190.185 72.6949 189.503 72.4258C189.798 72.6789 190.071 72.957 190.319 73.257L190.498 73.2803Z" fill="#1C2D5E"/>
<path d="M168.125 92.0808C167.006 91.2714 166.052 90.2564 165.313 89.09C164.557 87.9131 164.059 86.5892 163.852 85.2059C163.852 85.0039 163.161 84.7476 162.998 84.6621C162.834 84.5766 162.058 84.2814 162.058 84.2892C162.188 85.6542 162.613 86.9747 163.302 88.1601C163.991 89.3455 164.929 90.3677 166.051 91.1564C166.493 91.4826 166.952 91.8011 167.433 92.0886C167.974 92.3201 168.532 92.5072 169.103 92.6479C168.756 92.4981 168.427 92.3077 168.125 92.0808Z" fill="#FF5C8A"/>
<path d="M175.287 93.025C175.903 92.9543 176.51 92.8163 177.097 92.6133C176.502 92.7852 175.897 92.9227 175.287 93.025Z" fill="#FF5C8A"/>
<path d="M190.901 73.3655C191.328 73.4898 191.134 73.3655 190.326 73.0625C190.373 73.1422 190.431 73.2154 190.497 73.28C190.633 73.3008 190.768 73.3293 190.901 73.3655Z" fill="#FF5C8A"/>
<path d="M177.112 92.6011L177.314 92.5234L177.112 92.6011Z" fill="#FF5C8A"/>
<path d="M210.873 112.4C210.687 111.689 210.687 110.943 210.873 110.233C211.28 108.792 211.861 107.406 212.606 106.108C213.337 104.716 213.892 103.239 214.26 101.711C214.709 99.8478 214.448 97.8847 213.53 96.203C212.649 95.3307 211.617 94.6253 210.485 94.1211C210.658 94.31 210.819 94.5098 210.966 94.7193C212.986 97.6246 211.79 101.408 210.415 104.298C209.421 106.403 206.935 110.077 209.04 112.175C209.694 112.493 210.398 112.695 211.122 112.773C211.018 112.664 210.934 112.538 210.873 112.4Z" fill="#FF5C8A"/>
<path d="M230.271 111.939C230.287 111.959 230.305 111.978 230.325 111.994H230.395C230.799 112.048 230.03 111.675 230.271 111.939Z" fill="#FF5C8A"/>
<path d="M233.611 113.894C233.402 113.692 233.192 113.497 232.967 113.319C230.799 111.499 228.095 110.44 225.268 110.305C222.161 110.305 219.24 111.423 216.28 112.223C214.637 112.734 212.92 112.97 211.2 112.923C211.273 113.012 211.333 113.112 211.379 113.218C211.383 113.244 211.383 113.27 211.379 113.295C211.382 113.27 211.382 113.244 211.379 113.218C211.331 113.138 211.268 113.069 211.193 113.014C211.119 112.96 211.034 112.921 210.944 112.899L210.586 112.845C209.872 112.713 210.47 112.713 210.944 112.899H211.122H211.2C211.2 112.845 211.13 112.798 211.099 112.752C210.376 112.674 209.671 112.472 209.017 112.154C209.146 112.285 209.287 112.404 209.437 112.511C210.708 113.482 212.226 114.077 213.818 114.228C215.572 114.234 217.317 113.972 218.992 113.451C222.27 112.55 225.61 111.198 229.09 111.695C229.479 111.757 229.945 111.959 230.333 111.99C230.313 111.974 230.295 111.956 230.279 111.936C230.038 111.641 230.807 112.014 230.403 111.998H230.333C230.443 112.095 230.56 112.183 230.683 112.262C231.755 112.612 232.75 113.166 233.611 113.894Z" fill="#FF5C8A"/>
<path opacity="0.2" d="M233.611 113.894C233.402 113.692 233.192 113.497 232.967 113.319C230.799 111.499 228.095 110.44 225.268 110.305C222.161 110.305 219.24 111.423 216.28 112.223C214.637 112.734 212.92 112.97 211.2 112.923C211.273 113.012 211.333 113.112 211.379 113.218C211.383 113.244 211.383 113.27 211.379 113.295C211.382 113.27 211.382 113.244 211.379 113.218C211.331 113.138 211.268 113.069 211.193 113.014C211.119 112.96 211.034 112.921 210.944 112.899L210.586 112.845C209.872 112.713 210.47 112.713 210.944 112.899H211.122H211.2C211.2 112.845 211.13 112.798 211.099 112.752C210.376 112.674 209.671 112.472 209.017 112.154C209.146 112.285 209.287 112.404 209.437 112.511C210.708 113.482 212.226 114.077 213.818 114.228C215.572 114.234 217.317 113.972 218.992 113.451C222.27 112.55 225.61 111.198 229.09 111.695C229.479 111.757 229.945 111.959 230.333 111.99C230.313 111.974 230.295 111.956 230.279 111.936C230.038 111.641 230.807 112.014 230.403 111.998H230.333C230.443 112.095 230.56 112.183 230.683 112.262C231.755 112.612 232.75 113.166 233.611 113.894Z" fill="#1C2D5E"/>
<path d="M210.943 112.898C211.033 112.92 211.118 112.959 211.193 113.014C211.267 113.068 211.33 113.137 211.378 113.217C211.332 113.111 211.272 113.011 211.199 112.922H211.122L210.943 112.898Z" fill="#FF5C8A"/>
<path d="M245.357 134.006C245.318 134.006 243.275 132.507 242.98 132.794C242.58 133.183 242.08 133.452 241.535 133.571C241.179 133.653 240.811 133.676 240.447 133.641H240.385C240.772 134.041 241.19 134.41 241.636 134.744L242.149 134.884C242.712 135.047 243.31 135.051 243.876 134.896C244.442 134.741 244.954 134.433 245.357 134.006Z" fill="#FF5C8A"/>
<path opacity="0.2" d="M245.357 134.006C245.318 134.006 243.275 132.507 242.98 132.794C242.58 133.183 242.08 133.452 241.535 133.571C241.179 133.653 240.811 133.676 240.447 133.641H240.385C240.772 134.041 241.19 134.41 241.636 134.744L242.149 134.884C242.712 135.047 243.31 135.051 243.876 134.896C244.442 134.741 244.954 134.433 245.357 134.006Z" fill="#1C2D5E"/>
<path d="M240.269 133.64C240.393 133.772 240.509 133.904 240.626 134.052C239.476 133.547 239.173 133.376 239.709 133.531C239.836 133.572 239.966 133.6 240.098 133.617H240.269C239.876 133.232 239.534 132.798 239.251 132.327C238.885 131.607 238.609 130.846 238.427 130.059C237.651 126.796 237.651 123.394 236.874 120.123C236.371 117.779 235.238 115.617 233.596 113.87C232.729 113.152 231.732 112.609 230.659 112.27L230.729 112.332C231.302 112.835 231.81 113.406 232.244 114.033C233.106 115.306 233.744 116.717 234.132 118.204C235.118 121.77 234.908 125.553 235.872 129.08C236.19 130.516 236.957 131.814 238.062 132.786C239.125 133.627 240.33 134.271 241.62 134.689C241.175 134.355 240.757 133.986 240.37 133.586L240.269 133.64Z" fill="#FF5C8A"/>
<path d="M239.709 133.53C239.173 133.375 239.476 133.53 240.626 134.051C240.509 133.903 240.393 133.771 240.269 133.639H240.098C239.965 133.615 239.835 133.578 239.709 133.53Z" fill="#FF5C8A"/>
<path d="M178.379 97.8667L178.099 97.7968C178.154 97.7191 178.27 97.7968 178.379 97.8667L178.542 97.9055C178.441 97.7424 178.255 97.6103 178.138 97.455C177.474 96.5527 177.105 95.4675 177.082 94.3477C176.35 94.4798 175.61 94.5577 174.868 94.5807C174.957 94.9167 175.082 95.2422 175.241 95.5517C175.804 96.5384 176.648 97.3358 177.664 97.8434C177.973 97.9525 178.29 98.0356 178.612 98.092C178.541 98.0106 178.463 97.9352 178.379 97.8667Z" fill="#FF5C8A"/>
<path d="M213.507 96.2024C213.11 95.5313 212.581 94.9474 211.953 94.4856C209.863 92.931 207.348 92.0503 204.744 91.9609C201.707 91.9978 198.687 92.4207 195.756 93.2194C192.419 94.0507 189.16 95.1683 186.015 96.5598C184.418 97.3518 182.701 97.8766 180.934 98.1134C180.632 98.1328 180.328 98.1328 180.025 98.1134C179.561 98.1459 179.093 98.1198 178.635 98.0357C178.635 98.0823 178.635 98.0357 178.588 98.0357C178.266 97.9794 177.949 97.8963 177.641 97.7871C177.843 97.9037 178.052 98.0124 178.262 98.1212C179.538 98.8604 180.964 99.3037 182.434 99.4185C185.945 99.535 189.254 97.3521 192.447 96.1791C195.991 94.8745 199.666 93.9577 203.408 93.4447C204.889 93.2041 206.393 93.1337 207.89 93.2349C208.583 93.2854 209.268 93.4104 209.933 93.6078L209.794 93.4991L210.05 93.6156C210.376 93.7632 210.384 93.771 210.05 93.6544L209.933 93.6156L210.128 93.7787L210.454 94.105C211.59 94.613 212.625 95.3238 213.507 96.2024Z" fill="#FF5C8A"/>
<path opacity="0.2" d="M213.507 96.2024C213.11 95.5313 212.581 94.9474 211.953 94.4856C209.863 92.931 207.348 92.0503 204.744 91.9609C201.707 91.9978 198.687 92.4207 195.756 93.2194C192.419 94.0507 189.16 95.1683 186.015 96.5598C184.418 97.3518 182.701 97.8766 180.934 98.1134C180.632 98.1328 180.328 98.1328 180.025 98.1134C179.561 98.1459 179.093 98.1198 178.635 98.0357C178.635 98.0823 178.635 98.0357 178.588 98.0357C178.266 97.9794 177.949 97.8963 177.641 97.7871C177.843 97.9037 178.052 98.0124 178.262 98.1212C179.538 98.8604 180.964 99.3037 182.434 99.4185C185.945 99.535 189.254 97.3521 192.447 96.1791C195.991 94.8745 199.666 93.9577 203.408 93.4447C204.889 93.2041 206.393 93.1337 207.89 93.2349C208.583 93.2854 209.268 93.4104 209.933 93.6078L209.794 93.4991L210.05 93.6156C210.376 93.7632 210.384 93.771 210.05 93.6544L209.933 93.6156L210.128 93.7787L210.454 94.105C211.59 94.613 212.625 95.3238 213.507 96.2024Z" fill="#1C2D5E"/>
<path d="M178.596 98.0614H178.666L178.565 97.8982L178.402 97.8594C178.471 97.922 178.536 97.9895 178.596 98.0614Z" fill="#FF5C8A"/>
<path d="M178.666 98.0664H178.619C178.666 98.0975 178.666 98.113 178.666 98.0664Z" fill="#FF5C8A"/>
<path d="M210.081 93.6788C210.392 93.7953 210.384 93.7876 210.081 93.64L209.825 93.5234L209.965 93.6322L210.081 93.6788Z" fill="#FF5C8A"/>
<path d="M180.034 98.1432C179.753 98.1366 179.473 98.1106 179.195 98.0655C179.117 98.0655 178.814 97.9723 178.542 97.9023L178.643 98.0655C179.102 98.1495 179.569 98.1756 180.034 98.1432Z" fill="#FF5C8A"/>
<path d="M249.101 83.3845C249.225 83.3845 249.466 82.9572 249.178 83.2524C249.139 83.3301 249.116 83.3845 249.101 83.3845Z" fill="#FF5C8A"/>
<path d="M250.522 77.445C250.228 77.8145 250.007 78.2362 249.87 78.6879C249.792 79.5891 249.87 80.4902 249.683 81.3913C249.645 81.6243 249.598 81.8496 249.544 82.0749C249.464 82.6766 249.329 83.2695 249.14 83.8461C249.876 82.7458 250.474 81.5586 250.919 80.3115C251.253 79.2939 251.695 77.5771 251.198 76.5672C251.183 76.5361 250.546 77.4217 250.522 77.445Z" fill="#FF5C8A"/>
<path opacity="0.2" d="M250.522 77.445C250.228 77.8145 250.007 78.2362 249.87 78.6879C249.792 79.5891 249.87 80.4902 249.683 81.3913C249.645 81.6243 249.598 81.8496 249.544 82.0749C249.464 82.6766 249.329 83.2695 249.14 83.8461C249.876 82.7458 250.474 81.5586 250.919 80.3115C251.253 79.2939 251.695 77.5771 251.198 76.5672C251.183 76.5361 250.546 77.4217 250.522 77.445Z" fill="#1C2D5E"/>
<path d="M249.358 82.7578C249.358 82.7578 249.264 83.0763 249.195 83.255C249.482 82.9598 249.241 83.3871 249.117 83.3871C249.117 83.3871 249.156 83.3327 249.195 83.255L249.047 83.4104C247.816 84.7609 246.239 85.7494 244.487 86.2691C244.176 86.3701 243.873 87.0459 243.71 87.31C243.632 87.4343 243.197 88.4675 243.135 88.4753C245.683 88.0014 247.602 86.2147 248.977 84.1095C249.039 84.0241 249.094 83.9308 249.148 83.8454C249.337 83.2688 249.473 82.6759 249.552 82.0742C249.482 82.3073 249.42 82.5325 249.358 82.7578Z" fill="#FF5C8A"/>
<path d="M146.242 120.16C146.319 120.269 146.809 120.215 146.397 120.16C146.312 120.168 146.249 120.176 146.242 120.16Z" fill="#FF5C8A"/>
<path d="M151.928 117.929C151.46 117.891 150.989 117.949 150.545 118.1C149.768 118.551 149.046 119.11 148.214 119.498L147.57 119.77C147.034 120.052 146.472 120.281 145.892 120.454C147.205 120.427 148.51 120.236 149.776 119.887C150.801 119.576 152.479 118.978 153.007 117.968C153.031 117.937 151.959 117.929 151.928 117.929Z" fill="#FF5C8A"/>
<path opacity="0.2" d="M151.928 117.929C151.46 117.891 150.989 117.949 150.545 118.1C149.768 118.551 149.046 119.11 148.214 119.498L147.57 119.77C147.034 120.052 146.472 120.281 145.892 120.454C147.205 120.427 148.51 120.236 149.776 119.887C150.801 119.576 152.479 118.978 153.007 117.968C153.031 117.937 151.959 117.929 151.928 117.929Z" fill="#1C2D5E"/>
<path d="M146.902 120.006C146.863 120.006 146.583 120.107 146.397 120.146C146.809 120.216 146.319 120.271 146.241 120.146C146.241 120.146 146.311 120.146 146.397 120.146H146.187C144.373 119.911 142.659 119.183 141.231 118.041C140.967 117.847 140.237 117.987 139.934 118.041C139.794 118.041 138.691 118.282 138.652 118.235C140.501 120.053 143.064 120.605 145.581 120.527H145.892C146.472 120.354 147.034 120.125 147.57 119.843C147.352 119.859 147.127 119.937 146.902 120.006Z" fill="#FF5C8A"/>
<path d="M243.228 107.964C243.228 107.863 243.173 107.769 243.15 107.676C242.995 107.428 243.026 107.529 243.228 107.964Z" fill="#FF5C8A"/>
<path d="M246.313 111.997V111.865C246.251 111.686 246.251 111.733 246.313 111.997Z" fill="#FF5C8A"/>
<path d="M243.019 106.769C242.988 106.344 243.003 105.917 243.065 105.495C243.221 104.532 243.596 103.618 244.161 102.823C244.447 102.417 244.778 102.044 245.147 101.712C245.522 101.345 245.877 100.959 246.211 100.554C246.129 100.02 245.913 99.5145 245.582 99.0862C245.304 99.0826 245.027 99.1192 244.759 99.1949C244.559 99.2874 244.373 99.4077 244.207 99.5523C243.83 99.8607 243.491 100.213 243.197 100.601C242.66 101.309 242.291 102.13 242.118 103.001C241.876 104.756 242.203 106.542 243.05 108.097C243.019 107.707 243.019 107.315 243.05 106.924C243.036 106.873 243.026 106.821 243.019 106.769Z" fill="#FF5C8A"/>
<path d="M246.312 112C246.316 112.046 246.316 112.093 246.312 112.14V111.992V112Z" fill="#FF5C8A"/>
<path d="M247.267 114.275C247.207 113.135 246.86 112.028 246.258 111.059C246.295 111.316 246.313 111.575 246.312 111.835C246.312 111.835 246.312 111.905 246.312 111.952C246.397 112.177 246.39 112.232 246.312 112.123V112.232C246.314 112.558 246.28 112.884 246.211 113.203C246.109 113.641 245.95 114.064 245.737 114.461C245.127 115.477 244.414 116.427 243.609 117.297C243.391 117.568 244.471 119.122 244.385 119.169C245.877 117.965 247.299 116.318 247.267 114.275Z" fill="#FF5C8A"/>
<path d="M247.267 114.275C247.207 113.135 246.86 112.028 246.258 111.059C246.295 111.316 246.313 111.575 246.312 111.835C246.312 111.835 246.312 111.905 246.312 111.952C246.397 112.177 246.39 112.232 246.312 112.123V112.232C246.314 112.558 246.28 112.884 246.211 113.203C246.109 113.641 245.95 114.064 245.737 114.461C245.127 115.477 244.414 116.427 243.609 117.297C243.391 117.568 244.471 119.122 244.385 119.169C245.877 117.965 247.299 116.318 247.267 114.275Z" fill="#FF5C8A"/>
<path d="M246.344 111.98C246.344 111.933 246.344 111.894 246.344 111.863V111.995V112.143C246.421 112.259 246.429 112.205 246.344 111.98Z" fill="#FF5C8A"/>
<path d="M246.312 111.867C246.313 111.607 246.295 111.347 246.257 111.09C245.972 110.606 245.625 110.162 245.224 109.769C244.859 109.42 244.447 109.117 244.082 108.767C243.717 108.417 243.484 107.936 243.15 107.679C243.15 107.773 243.197 107.866 243.228 107.967C243.026 107.532 242.995 107.431 243.142 107.672C243.096 107.431 243.057 107.198 243.034 106.957C243.002 107.347 243.002 107.74 243.034 108.13C243.359 108.915 243.791 109.652 244.315 110.321C244.602 110.662 244.922 110.974 245.271 111.253C245.496 111.447 245.737 111.618 245.954 111.82L246.172 112.014C246.205 112.063 246.242 112.11 246.281 112.154C246.285 112.107 246.285 112.061 246.281 112.014C246.25 111.735 246.25 111.688 246.312 111.867Z" fill="#FF5C8A"/>
<path opacity="0.2" d="M246.312 111.867C246.313 111.607 246.295 111.347 246.257 111.09C245.972 110.606 245.625 110.162 245.224 109.769C244.859 109.42 244.447 109.117 244.082 108.767C243.717 108.417 243.484 107.936 243.15 107.679C243.15 107.773 243.197 107.866 243.228 107.967C243.026 107.532 242.995 107.431 243.142 107.672C243.096 107.431 243.057 107.198 243.034 106.957C243.002 107.347 243.002 107.74 243.034 108.13C243.359 108.915 243.791 109.652 244.315 110.321C244.602 110.662 244.922 110.974 245.271 111.253C245.496 111.447 245.737 111.618 245.954 111.82L246.172 112.014C246.205 112.063 246.242 112.11 246.281 112.154C246.285 112.107 246.285 112.061 246.281 112.014C246.25 111.735 246.25 111.688 246.312 111.867Z" fill="#1C2D5E"/>
<path d="M233.083 51.8856C230.813 52.69 228.708 53.898 226.868 55.4513C225.979 56.1366 225.194 56.9478 224.538 57.8594C223.955 58.7839 224.32 59.5063 224.856 60.3453C225.049 60.664 225.262 60.9701 225.493 61.2619V60.99C225.514 60.7252 225.569 60.4641 225.656 60.2132H225.571C225.646 60.0203 225.745 59.8376 225.866 59.6694C226.891 58.2879 228.138 57.0857 229.556 56.1116C230.971 55.0375 232.497 54.1181 234.108 53.3694C234.108 53.3694 233.285 51.8079 233.083 51.8856Z" fill="#FF5C8A"/>
<path d="M239.002 60.8122V60.7656C239.002 60.7812 239.002 60.7967 239.002 60.8122Z" fill="#FF5C8A"/>
<path d="M239.36 60.1141C239.344 60.1464 239.331 60.1802 239.321 60.2151C239.3 60.2691 239.274 60.3211 239.244 60.3705C239.181 60.5067 239.105 60.6367 239.018 60.7589V60.8055C238.675 60.7229 238.323 60.6786 237.97 60.6734C236.667 60.7056 235.369 60.8328 234.085 61.0541C232.796 61.225 231.514 61.427 230.248 61.6678C229.106 61.8775 227.692 62.4446 226.535 62.064C226.1 61.917 225.717 61.6472 225.432 61.2871V61.0152C225.453 60.7504 225.507 60.4893 225.595 60.2384C226.247 60.279 226.902 60.2054 227.529 60.0209C229.223 59.6739 230.924 59.3813 232.633 59.1431C234.134 58.8283 235.669 58.7056 237.201 58.778C237.637 58.827 238.057 58.9723 238.431 59.2034C238.804 59.4344 239.121 59.7455 239.36 60.1141Z" fill="#FF5C8A"/>
<path opacity="0.2" d="M239.36 60.1141C239.344 60.1464 239.331 60.1802 239.321 60.2151C239.3 60.2691 239.274 60.3211 239.244 60.3705C239.181 60.5067 239.105 60.6367 239.018 60.7589V60.8055C238.675 60.7229 238.323 60.6786 237.97 60.6734C236.667 60.7056 235.369 60.8328 234.085 61.0541C232.796 61.225 231.514 61.427 230.248 61.6678C229.106 61.8775 227.692 62.4446 226.535 62.064C226.1 61.917 225.717 61.6472 225.432 61.2871V61.0152C225.453 60.7504 225.507 60.4893 225.595 60.2384C226.247 60.279 226.902 60.2054 227.529 60.0209C229.223 59.6739 230.924 59.3813 232.633 59.1431C234.134 58.8283 235.669 58.7056 237.201 58.778C237.637 58.827 238.057 58.9723 238.431 59.2034C238.804 59.4344 239.121 59.7455 239.36 60.1141Z" fill="#1C2D5E"/>
<path d="M239.336 63.7253C237.872 64.7123 236.349 65.6098 234.776 66.4132C233.223 67.3298 231.622 68.2698 230.045 69.202C229.202 69.594 228.43 70.1244 227.762 70.7712H227.808C227.681 70.9549 227.596 71.1638 227.557 71.3836C227.518 71.6035 227.527 71.8291 227.583 72.0452C227.615 72.1633 227.66 72.2778 227.715 72.387C227.38 72.1066 227.096 71.7701 226.876 71.3926C226.387 70.6158 225.851 69.9167 226.41 69.0622C227.071 68.2971 227.897 67.6916 228.826 67.291C231.312 65.8668 233.785 64.4297 236.245 62.9796C237.115 62.4591 238.622 61.8454 239.002 60.7812C239.001 60.7631 239.001 60.7449 239.002 60.7268C239.089 60.6046 239.165 60.4746 239.228 60.3384C239.258 60.289 239.284 60.237 239.305 60.183C239.315 60.1481 239.328 60.1143 239.344 60.082C239.453 60.2374 239.554 60.3928 239.663 60.5637C240.047 61.0264 240.28 61.5958 240.331 62.195C240.283 62.506 240.169 62.8032 239.998 63.067C239.826 63.3308 239.601 63.5552 239.336 63.7253Z" fill="#FF5C8A"/>
<path d="M241.224 72.8601C239.706 74.5034 237.807 75.7469 235.693 76.4801C235.46 76.5655 234.474 74.6934 234.52 74.6701C235.735 74.0689 236.899 73.37 238 72.5804C238.546 72.174 239.065 71.7329 239.554 71.2598C239.823 71.0356 240.058 70.774 240.253 70.483C240.295 70.4046 240.327 70.321 240.346 70.2344C240.436 70.2531 240.524 70.2764 240.61 70.3043C240.72 70.3435 240.824 70.3956 240.921 70.4597C241.123 70.6073 241.216 70.6539 241.209 70.5839L241.473 70.7782C241.671 71.1027 241.755 71.4845 241.709 71.8622C241.664 72.2399 241.493 72.5914 241.224 72.8601Z" fill="#FF5C8A"/>
<path d="M241.472 70.771L241.208 70.5768C241.021 70.4603 240.82 70.3664 240.61 70.2972L240.346 70.2195C240.075 70.1651 239.798 70.1494 239.523 70.1729C238.832 70.2558 238.151 70.4014 237.487 70.6079L233.223 71.711C231.857 72.1392 230.466 72.4842 229.059 72.7442C228.827 72.7876 228.589 72.7832 228.359 72.7311C228.129 72.679 227.913 72.5803 227.723 72.4412C227.667 72.332 227.623 72.2175 227.591 72.0994C227.534 71.8833 227.525 71.6577 227.564 71.4378C227.603 71.218 227.689 71.0091 227.816 70.8254C228.546 70.6845 229.265 70.4924 229.968 70.2506L233.58 69.3106C234.807 68.9921 236.027 68.6503 237.262 68.3629C237.68 68.2128 238.124 68.1539 238.567 68.19C239.009 68.2262 239.438 68.3567 239.826 68.5726C240.535 69.1689 241.101 69.9177 241.48 70.7633L241.472 70.771Z" fill="#FF5C8A"/>
<path opacity="0.2" d="M241.472 70.771L241.208 70.5768C241.021 70.4603 240.82 70.3664 240.61 70.2972L240.346 70.2195C240.075 70.1651 239.798 70.1494 239.523 70.1729C238.832 70.2558 238.151 70.4014 237.487 70.6079L233.223 71.711C231.857 72.1392 230.466 72.4842 229.059 72.7442C228.827 72.7876 228.589 72.7832 228.359 72.7311C228.129 72.679 227.913 72.5803 227.723 72.4412C227.667 72.332 227.623 72.2175 227.591 72.0994C227.534 71.8833 227.525 71.6577 227.564 71.4378C227.603 71.218 227.689 71.0091 227.816 70.8254C228.546 70.6845 229.265 70.4924 229.968 70.2506L233.58 69.3106C234.807 68.9921 236.027 68.6503 237.262 68.3629C237.68 68.2128 238.124 68.1539 238.567 68.19C239.009 68.2262 239.438 68.3567 239.826 68.5726C240.535 69.1689 241.101 69.9177 241.48 70.7633L241.472 70.771Z" fill="#1C2D5E"/>
<path d="M240.61 70.273C240.524 70.2452 240.435 70.2218 240.346 70.2031L240.61 70.273Z" fill="#FF5C8A"/>
<path d="M240.921 70.4288C240.824 70.3648 240.72 70.3126 240.61 70.2734C240.82 70.3427 241.021 70.4366 241.209 70.5531C241.216 70.623 241.123 70.5764 240.921 70.4288Z" fill="#FF5C8A"/>
<path d="M133.439 86.0676C132.454 87.5553 131.751 89.2117 131.365 90.9538C131.142 91.7442 131.045 92.5647 131.077 93.3853C131.155 94.1621 131.714 94.3874 132.421 94.5971C132.688 94.6845 132.96 94.752 133.237 94.7991C133.191 94.7535 133.15 94.7042 133.113 94.6515C132.994 94.4957 132.9 94.3228 132.833 94.1388H132.779C132.729 93.999 132.703 93.8521 132.701 93.7038C132.669 92.4543 132.853 91.2086 133.245 90.0216C133.595 88.7591 134.079 87.5377 134.69 86.3783C134.69 86.3783 133.524 85.9355 133.439 86.0676Z" fill="#FF5C8A"/>
<path d="M141.037 87.6343V87.7043C141.041 87.7456 141.041 87.7872 141.037 87.8285C141.061 87.9334 141.076 88.0398 141.084 88.147C140.84 88.2597 140.611 88.4005 140.4 88.5665C139.64 89.187 138.926 89.862 138.264 90.5863C137.572 91.2777 136.904 91.9923 136.252 92.7226C135.599 93.4528 135.079 94.3384 134.216 94.6802C133.887 94.8057 133.528 94.8327 133.183 94.7579C133.138 94.7123 133.096 94.6629 133.059 94.6103C132.94 94.4544 132.846 94.2816 132.779 94.0975C133.187 93.8144 133.544 93.4652 133.836 93.0644C134.69 92.0856 135.568 91.1223 136.485 90.1901C137.242 89.3128 138.103 88.5303 139.048 87.8596C139.342 87.6767 139.673 87.5616 140.017 87.5226C140.361 87.4837 140.71 87.5218 141.037 87.6343Z" fill="#FF5C8A"/>
<path opacity="0.2" d="M141.037 87.6343V87.7043C141.041 87.7456 141.041 87.7872 141.037 87.8285C141.061 87.9334 141.076 88.0398 141.084 88.147C140.84 88.2597 140.611 88.4005 140.4 88.5665C139.64 89.187 138.926 89.862 138.264 90.5863C137.572 91.2777 136.904 91.9923 136.252 92.7226C135.599 93.4528 135.079 94.3384 134.216 94.6802C133.887 94.8057 133.528 94.8327 133.183 94.7579C133.138 94.7123 133.096 94.6629 133.059 94.6103C132.94 94.4544 132.846 94.2816 132.779 94.0975C133.187 93.8144 133.544 93.4652 133.836 93.0644C134.69 92.0856 135.568 91.1223 136.485 90.1901C137.242 89.3128 138.103 88.5303 139.048 87.8596C139.342 87.6767 139.673 87.5616 140.017 87.5226C140.361 87.4837 140.71 87.5218 141.037 87.6343Z" fill="#1C2D5E"/>
<path d="M148.113 93.7505C147.962 95.3871 147.404 96.96 146.49 98.326C146.389 98.4814 144.936 97.922 144.936 97.891C145.378 96.9953 145.747 96.0652 146.039 95.1099C146.179 94.6336 146.285 94.1482 146.358 93.6573C146.409 93.4017 146.422 93.1399 146.396 92.8804C146.384 92.8193 146.366 92.7594 146.342 92.7018L146.529 92.6163C146.621 92.576 146.717 92.5447 146.816 92.5231C147.01 92.5231 147.08 92.5231 147.049 92.4609H147.29C147.559 92.5418 147.79 92.7164 147.941 92.953C148.092 93.1896 148.153 93.4726 148.113 93.7505Z" fill="#FF5C8A"/>
<path d="M147.267 92.4707H147.026C146.859 92.4919 146.694 92.5336 146.537 92.595C146.469 92.6169 146.404 92.6455 146.343 92.6804C146.156 92.7784 145.984 92.9012 145.83 93.0455C145.454 93.4085 145.113 93.8065 144.812 94.2341L142.777 96.8442C142.157 97.7222 141.485 98.5627 140.765 99.3611C140.52 99.6318 140.181 99.7986 139.817 99.8272L139.584 99.7029C139.457 99.6138 139.35 99.4983 139.271 99.3643C139.192 99.2303 139.142 99.0809 139.126 98.9261C139.495 98.5072 139.835 98.0633 140.144 97.5977L141.868 95.3916C142.451 94.6147 143.026 93.8379 143.632 93.1387C143.817 92.8578 144.057 92.6169 144.337 92.4301C144.618 92.2434 144.932 92.1145 145.263 92.0512C145.957 92.042 146.644 92.188 147.275 92.4784L147.267 92.4707Z" fill="#FF5C8A"/>
<path opacity="0.2" d="M147.267 92.4707H147.026C146.859 92.4919 146.694 92.5336 146.537 92.595C146.469 92.6169 146.404 92.6455 146.343 92.6804C146.156 92.7784 145.984 92.9012 145.83 93.0455C145.454 93.4085 145.113 93.8065 144.812 94.2341L142.777 96.8442C142.157 97.7222 141.485 98.5627 140.765 99.3611C140.52 99.6318 140.181 99.7986 139.817 99.8272L139.584 99.7029C139.457 99.6138 139.35 99.4983 139.271 99.3643C139.192 99.2303 139.142 99.0809 139.126 98.9261C139.495 98.5072 139.835 98.0633 140.144 97.5977L141.868 95.3916C142.451 94.6147 143.026 93.8379 143.632 93.1387C143.817 92.8578 144.057 92.6169 144.337 92.4301C144.618 92.2434 144.932 92.1145 145.263 92.0512C145.957 92.042 146.644 92.188 147.275 92.4784L147.267 92.4707Z" fill="#1C2D5E"/>
<path d="M146.537 92.6133L146.35 92.6987C146.409 92.6643 146.472 92.6357 146.537 92.6133Z" fill="#FF5C8A"/>
<path d="M146.816 92.5231C146.729 92.5365 146.643 92.5573 146.56 92.5852C146.717 92.5239 146.881 92.4821 147.049 92.4609C147.049 92.4609 146.987 92.5231 146.816 92.5231Z" fill="#FF5C8A"/>
<path d="M269.78 100.523C270.363 100.966 270.992 101.362 271.606 101.743C272.771 102.458 273.758 103.064 274.364 104.345C275.498 106.777 274.783 109.581 274.503 112.114C274.465 112.432 276.166 113.17 276.15 113.217C276.927 110.925 277.284 108.121 276.352 105.821C275.837 104.666 275.008 103.679 273.96 102.97L273.338 102.605L269.78 100.523Z" fill="#FF5C8A"/>
<path opacity="0.2" d="M269.78 100.523C270.363 100.966 270.992 101.362 271.606 101.743C272.771 102.458 273.758 103.064 274.364 104.345C275.498 106.777 274.783 109.581 274.503 112.114C274.465 112.432 276.166 113.17 276.15 113.217C276.927 110.925 277.284 108.121 276.352 105.821C275.837 104.666 275.008 103.679 273.96 102.97L273.338 102.605L269.78 100.523Z" fill="#1C2D5E"/>
<path d="M268.538 94.6728C268.654 91.7519 269.975 89.1184 270.814 86.3685C270.868 86.1898 269.462 85.3897 269.423 85.4441C266.829 89.3903 264.848 95.6982 268.693 99.5823C269.03 99.9241 269.393 100.238 269.781 100.522L273.338 102.596L273.96 102.962C273.102 102.353 272.213 101.79 271.295 101.276C269.136 99.994 268.444 97.011 268.538 94.6728Z" fill="#FF5C8A"/>
</svg>
