<svg width="40" height="40" viewBox="0 0 40 40" fill="none" xmlns="http://www.w3.org/2000/svg">
<path d="M19.7031 38.7632C29.9204 38.7632 38.2031 30.4805 38.2031 20.2632C38.2031 10.0459 29.9204 1.76318 19.7031 1.76318C9.48586 1.76318 1.20312 10.0459 1.20312 20.2632C1.20312 30.4805 9.48586 38.7632 19.7031 38.7632Z" fill="#D7EB36" stroke="white" stroke-width="2"/>
<mask id="mask0_2809_1301" style="mask-type:alpha" maskUnits="userSpaceOnUse" x="0" y="0" width="40" height="40">
<path d="M19.7031 38.7632C29.9204 38.7632 38.2031 30.4805 38.2031 20.2632C38.2031 10.0459 29.9204 1.76318 19.7031 1.76318C9.48586 1.76318 1.20312 10.0459 1.20312 20.2632C1.20312 30.4805 9.48586 38.7632 19.7031 38.7632Z" fill="#D7EB36" stroke="white" stroke-width="2"/>
</mask>
<g mask="url(#mask0_2809_1301)">
<path d="M18.0714 45.8948C20.4914 38.7753 22.4082 30.3755 22.4082 30.3755L15.5009 29.9413C15.5009 29.9413 14.4845 40.8426 13.9541 45.8701C13.4015 51.0951 11.687 62.8918 11.687 62.8918L14.8027 63.5233C14.8027 63.5233 17.7137 52.4099 18.0714 45.8948Z" fill="#263238"/>
<path opacity="0.2" d="M19.2119 34.3313L20.887 36.4035C20.4602 38.0021 19.9619 39.8004 19.4068 41.6383C19.0951 39.2155 19.0298 36.7673 19.2119 34.3313Z" fill="black"/>
<path d="M25.3048 45.7506C24.7127 38.2586 25.2135 34.2178 24.3427 30.4977L18.0718 30.1079C18.0718 30.1079 20.0206 41.1177 21.0987 46.0984C22.1767 51.0791 24.1996 63.1744 24.1996 63.1744L27.2882 63.2139C27.2882 63.2139 26.7874 51.5947 25.3048 45.7506Z" fill="#263238"/>
<path d="M17.9265 18.7201C17.6601 19.2135 17.3863 19.6279 17.0976 20.072C16.809 20.516 16.5006 20.9354 16.1676 21.3523C15.8294 21.7804 15.4661 22.1882 15.0797 22.5734C14.6526 23.0105 14.1699 23.3895 13.644 23.7008L13.5675 23.7452C13.4337 23.8218 13.2857 23.87 13.1325 23.887C12.9793 23.904 12.8242 23.8893 12.6769 23.8439C12.1697 23.6808 11.6835 23.458 11.2289 23.1803C10.8087 22.926 10.4087 22.6398 10.0324 22.3242C9.66694 22.0206 9.32011 21.6952 8.99383 21.3498C8.66579 21.0069 8.36087 20.6427 8.08107 20.2594C7.98407 20.1288 7.93626 19.9682 7.94609 19.8058C7.95591 19.6434 8.02273 19.4897 8.13478 19.3718C8.24682 19.2539 8.3969 19.1792 8.55857 19.1611C8.72023 19.143 8.88311 19.1825 9.0185 19.2727L9.0555 19.2973C9.39594 19.5169 9.76351 19.7636 10.1212 19.9807C10.4789 20.1978 10.8415 20.4149 11.2042 20.6073C11.5539 20.7979 11.9138 20.9692 12.2822 21.1204C12.6126 21.2571 12.9554 21.3612 13.306 21.4312L12.339 21.5743C12.6392 21.3319 12.9151 21.0609 13.1629 20.7652C13.4417 20.4346 13.718 20.072 13.9869 19.697C14.2558 19.322 14.5197 18.9322 14.7763 18.5375C15.0328 18.1428 15.2919 17.7259 15.5163 17.3534L15.5336 17.3263C15.724 17.022 16.0254 16.8038 16.3739 16.7178C16.7224 16.6319 17.0907 16.6849 17.4007 16.8658C17.7108 17.0466 17.9383 17.341 18.035 17.6867C18.1318 18.0323 18.0902 18.4021 17.9191 18.7176L17.9265 18.7201Z" fill="#1C2D5E"/>
<path d="M15.2594 29.9797C15.1913 30.2976 15.1804 30.6251 15.2274 30.9468C15.2306 30.9652 15.2377 30.9826 15.2484 30.998C15.259 31.0133 15.2729 31.0261 15.289 31.0356C15.5111 31.1762 16.557 31.7214 19.4828 31.8817C22.4826 32.0495 24.1699 31.7164 24.6066 31.6128C24.6383 31.6057 24.6664 31.5873 24.6855 31.5609C24.7046 31.5346 24.7134 31.5021 24.7102 31.4697L24.6337 30.5841C24.6313 30.5514 24.6169 30.5207 24.5932 30.4979C24.5695 30.4751 24.5382 30.4619 24.5054 30.4608L15.4 29.8712C15.3675 29.8694 15.3353 29.8793 15.3095 29.8992C15.2837 29.9192 15.2659 29.9478 15.2594 29.9797Z" fill="#1C2D5E"/>
<path opacity="0.2" d="M15.2594 29.9797C15.1913 30.2976 15.1804 30.6251 15.2274 30.9468C15.2306 30.9652 15.2377 30.9826 15.2484 30.998C15.259 31.0133 15.2729 31.0261 15.289 31.0356C15.5111 31.1762 16.557 31.7214 19.4828 31.8817C22.4826 32.0495 24.1699 31.7164 24.6066 31.6128C24.6383 31.6057 24.6664 31.5873 24.6855 31.5609C24.7046 31.5346 24.7134 31.5021 24.7102 31.4697L24.6337 30.5841C24.6313 30.5514 24.6169 30.5207 24.5932 30.4979C24.5695 30.4751 24.5382 30.4619 24.5054 30.4608L15.4 29.8712C15.3675 29.8694 15.3353 29.8793 15.3095 29.8992C15.2837 29.9192 15.2659 29.9478 15.2594 29.9797Z" fill="black"/>
<path opacity="0.9" d="M20.0892 32.8127C20.0602 32.812 20.0316 32.8053 20.0054 32.793C19.5687 32.6228 19.3862 32.0924 19.3985 31.6434C19.411 31.4245 19.4398 31.2068 19.4848 30.9922C19.53 30.781 19.5581 30.5665 19.5687 30.3508C19.5687 30.0473 19.475 29.6576 19.1691 29.5515C19.1536 29.5482 19.1377 29.5482 19.1222 29.5515C19.0803 29.5515 19.0679 29.6477 19.0778 29.7291C19.1542 30.3179 19.1839 30.9118 19.1666 31.5053C19.1815 31.8545 19.1023 32.2013 18.9372 32.5093C18.9104 32.5675 18.8652 32.6152 18.8086 32.6451C18.7519 32.675 18.687 32.6853 18.6239 32.6746C18.579 32.6614 18.5388 32.6358 18.5079 32.6006C18.3732 32.4439 18.2799 32.2558 18.2368 32.0536C18.1937 31.8514 18.2021 31.6417 18.2612 31.4436C18.2933 31.2981 18.3353 31.1525 18.3772 31.0119C18.4528 30.7871 18.5033 30.5546 18.5277 30.3187C18.5499 29.9733 18.4142 29.5441 18.0664 29.4207C18.0442 29.4207 18.0368 29.4207 18.0343 29.4207C18.0256 29.4402 18.0206 29.4611 18.0195 29.4824C17.9899 29.8453 17.9899 30.2099 18.0195 30.5728C18.0576 30.9831 18.0576 31.396 18.0195 31.8062C18.007 31.953 17.9569 32.094 17.8739 32.2158C17.8247 32.282 17.7553 32.3306 17.6761 32.3542C17.597 32.3777 17.5123 32.3751 17.4348 32.3465C17.2202 32.2454 17.2153 31.9444 17.2153 31.8531C17.2153 31.7076 17.2153 31.562 17.2153 31.414C17.244 30.9465 17.2066 30.4773 17.1043 30.0202C17.1043 29.9659 17.05 29.8451 16.976 29.8401C16.902 29.8352 16.8872 29.8845 16.8724 29.9289C16.8587 29.9948 16.8587 30.0628 16.8724 30.1287C16.9036 30.5853 16.9102 31.0431 16.8921 31.5003C16.9008 31.5911 16.8863 31.6826 16.8501 31.7663C16.8138 31.85 16.757 31.9231 16.6849 31.9789C16.6047 32.0155 16.5145 32.0234 16.4292 32.0014C16.3438 31.9794 16.2687 31.9288 16.2162 31.8581C16.124 31.7302 16.0701 31.5787 16.0608 31.4214C16.0336 31.2241 16.0238 31.0193 16.0114 30.8219C16.0193 30.4222 15.9515 30.0247 15.8116 29.6502C15.6311 30.3049 15.5974 30.9914 15.7129 31.6607C15.7147 31.6691 15.7148 31.6778 15.7131 31.6863C15.7115 31.6948 15.7081 31.7028 15.7033 31.7099C15.6984 31.7171 15.6922 31.7232 15.685 31.7279C15.6777 31.7325 15.6696 31.7357 15.6611 31.7372C15.6527 31.7393 15.6438 31.7397 15.6352 31.7382C15.6266 31.7367 15.6184 31.7334 15.6112 31.7285C15.604 31.7236 15.5979 31.7172 15.5933 31.7098C15.5887 31.7024 15.5858 31.694 15.5846 31.6854C15.4544 30.9401 15.5052 30.1744 15.7327 29.4528C15.7364 29.4409 15.7436 29.4304 15.7532 29.4225C15.7628 29.4147 15.7746 29.4097 15.7869 29.4084C15.7996 29.4068 15.8125 29.4089 15.8239 29.4146C15.8353 29.4204 15.8448 29.4294 15.8511 29.4405C16.0578 29.8683 16.1585 30.3396 16.1446 30.8145C16.1446 31.0094 16.1644 31.2117 16.1915 31.4041C16.1995 31.5365 16.243 31.6643 16.3173 31.7742C16.351 31.8204 16.399 31.8542 16.4539 31.8702C16.5088 31.8863 16.5675 31.8838 16.6208 31.863C16.7318 31.8013 16.754 31.6336 16.7589 31.4929C16.7778 31.0415 16.772 30.5894 16.7416 30.1386C16.7305 30.0561 16.7363 29.9721 16.7589 29.8919C16.7752 29.8399 16.8082 29.7948 16.8528 29.7636C16.8975 29.7323 16.9512 29.7167 17.0056 29.7192C17.1191 29.7192 17.2079 29.8229 17.2523 29.9931C17.3571 30.4632 17.3961 30.9455 17.3682 31.4263C17.3682 31.5719 17.3682 31.7174 17.3682 31.8605C17.3682 32.0751 17.4176 32.1985 17.5138 32.2429C17.5639 32.2595 17.618 32.2596 17.6682 32.2432C17.7184 32.2268 17.762 32.1947 17.7925 32.1516C17.8613 32.0478 17.9021 31.928 17.9109 31.8038C17.9492 31.4026 17.9492 30.9987 17.9109 30.5975C17.8813 30.2272 17.8813 29.8552 17.9109 29.4849C17.9109 29.3911 17.9578 29.3319 18.0195 29.3122C18.0571 29.2994 18.0978 29.2994 18.1354 29.3122C18.5499 29.4602 18.7102 29.9511 18.6831 30.3434C18.6592 30.5895 18.607 30.832 18.5277 31.0662C18.4882 31.2043 18.4463 31.3474 18.4167 31.488C18.3723 31.6977 18.3057 32.2281 18.6214 32.5241C18.6376 32.5426 18.6579 32.5569 18.6806 32.5661C18.7398 32.5833 18.8064 32.5167 18.8459 32.455C18.9967 32.1672 19.069 31.8447 19.0556 31.5201C19.0705 30.9332 19.0408 30.346 18.9668 29.7636C18.9446 29.5836 19.0013 29.4577 19.1197 29.438C19.1574 29.4344 19.1954 29.4394 19.2307 29.4528C19.6057 29.5836 19.7241 30.0325 19.7241 30.3804C19.7138 30.6035 19.6858 30.8254 19.6403 31.044C19.5963 31.252 19.5682 31.4632 19.5564 31.6755C19.5564 32.0776 19.6995 32.5488 20.0769 32.6968C20.1065 32.7091 20.1139 32.6968 20.1164 32.6968C20.126 32.6869 20.1336 32.6752 20.1386 32.6623C20.2287 32.416 20.2714 32.1548 20.2644 31.8926C20.2644 31.4979 20.2644 31.0982 20.2471 30.7035V30.5777C20.2151 30.2751 20.2151 29.97 20.2471 29.6674C20.2495 29.637 20.2593 29.6076 20.2756 29.5818C20.292 29.556 20.3144 29.5346 20.3409 29.5194C20.3636 29.5122 20.3877 29.5098 20.4115 29.5123C20.4353 29.5149 20.4583 29.5223 20.479 29.5342C20.649 29.6264 20.795 29.7572 20.9051 29.9162C21.0153 30.0752 21.0865 30.2579 21.113 30.4494C21.155 30.6898 21.1765 30.9332 21.1771 31.1772C21.1771 31.3005 21.1771 31.4239 21.1944 31.5472C21.197 31.8993 21.3188 32.2402 21.5398 32.5143C21.5916 32.571 21.6705 32.6253 21.7248 32.5981C21.7515 32.5817 21.7735 32.5588 21.7889 32.5315C22.0073 32.1816 22.1076 31.7709 22.0751 31.3597C22.0608 31.0742 22.0278 30.7899 21.9764 30.5087C21.9567 30.3754 21.9345 30.2422 21.9172 30.1065C21.8851 29.8599 21.9567 29.6798 22.1121 29.6378C22.1661 29.6277 22.2218 29.6315 22.274 29.6488C22.3262 29.666 22.3732 29.6962 22.4106 29.7365C22.5257 29.8611 22.6123 30.0093 22.6642 30.1708C22.7162 30.3322 22.7324 30.5031 22.7116 30.6715C22.7116 30.7997 22.6992 30.9305 22.6894 31.0588C22.6622 31.4708 22.6301 31.8951 22.8176 32.2454C22.8793 32.3613 22.9928 32.46 23.0865 32.423C23.1803 32.386 23.1951 32.2848 23.1852 32.1047L23.1038 30.6887C23.0861 30.5521 23.0979 30.4134 23.1383 30.2817C23.162 30.2088 23.2067 30.1446 23.2669 30.0972C23.3271 30.0498 23.3999 30.0213 23.4763 30.0153C23.5567 30.02 23.6339 30.0483 23.6983 30.0967C23.8444 30.2103 23.963 30.3553 24.0455 30.521C24.1279 30.6867 24.172 30.8688 24.1744 31.0538C24.1868 31.155 24.1942 31.2586 24.2016 31.3622C24.207 31.6039 24.2452 31.8437 24.315 32.0751C24.3378 32.1433 24.3842 32.201 24.4458 32.238C24.4537 32.2423 24.4627 32.2445 24.4717 32.2445C24.4807 32.2445 24.4896 32.2423 24.4976 32.238C24.5133 32.2302 24.5315 32.229 24.5481 32.2345C24.5647 32.2401 24.5785 32.2519 24.5864 32.2676C24.5906 32.2753 24.5931 32.2838 24.5939 32.2925C24.5947 32.3013 24.5936 32.3101 24.5908 32.3184C24.5881 32.3267 24.5836 32.3344 24.5778 32.3409C24.5719 32.3474 24.5648 32.3527 24.5568 32.3564C24.5317 32.3679 24.5043 32.3739 24.4766 32.3739C24.449 32.3739 24.4216 32.3679 24.3965 32.3564C24.3473 32.3314 24.3038 32.2966 24.2686 32.2542C24.2334 32.2117 24.2072 32.1626 24.1917 32.1097C24.1182 31.8696 24.0776 31.6206 24.0708 31.3696C24.0708 31.2709 24.056 31.1698 24.0437 31.0686C24.0413 30.903 24.0027 30.74 23.9307 30.5908C23.8587 30.4417 23.7549 30.3101 23.6268 30.2052C23.582 30.1726 23.5291 30.153 23.4738 30.1485C23.4236 30.1527 23.3758 30.1722 23.337 30.2044C23.2982 30.2366 23.2702 30.28 23.2567 30.3286C23.2254 30.4434 23.2162 30.5631 23.2296 30.6813L23.311 32.0875C23.3258 32.3342 23.2641 32.4896 23.1309 32.5463C22.9558 32.6179 22.7831 32.4723 22.6968 32.2996C22.5321 31.9019 22.4825 31.466 22.5537 31.0415C22.5537 30.9132 22.5709 30.7948 22.5759 30.6591C22.5952 30.5097 22.582 30.3579 22.5373 30.214C22.4926 30.0701 22.4174 29.9375 22.3168 29.8253C22.2944 29.8018 22.2671 29.7835 22.2369 29.7715C22.2066 29.7596 22.1742 29.7544 22.1417 29.7562C22.0406 29.7809 22.0258 29.9462 22.043 30.0794C22.0603 30.2126 22.0825 30.3458 22.1022 30.4791C22.1535 30.7654 22.1873 31.0545 22.2034 31.3449C22.2369 31.7844 22.1279 32.223 21.8925 32.5957C21.8736 32.6402 21.842 32.6781 21.8016 32.7048C21.7613 32.7314 21.714 32.7457 21.6656 32.7457C21.6172 32.7457 21.5699 32.7314 21.5296 32.7048C21.4892 32.6781 21.4576 32.6402 21.4386 32.5957C21.1956 32.3 21.0615 31.9299 21.0587 31.5472C21.0587 31.4214 21.0439 31.3005 21.0415 31.1723C21.0411 30.9356 21.0197 30.6995 20.9773 30.4667C20.9541 30.2957 20.8918 30.1324 20.7951 29.9894C20.6984 29.8465 20.5699 29.7279 20.4198 29.6428C20.4084 29.6407 20.3967 29.6407 20.3853 29.6428C20.379 29.6569 20.3749 29.6719 20.3729 29.6872C20.342 29.9799 20.342 30.2751 20.3729 30.5679V30.6961C20.3951 31.0958 20.4001 31.4979 20.3902 31.8951C20.3982 32.1743 20.3521 32.4524 20.2545 32.7141C20.2376 32.7585 20.2051 32.7953 20.1632 32.8177C20.1387 32.8242 20.1127 32.8224 20.0892 32.8127Z" fill="#1C2D5E"/>
<path d="M24.2881 15.5244C22.5689 15.1552 20.8166 14.9618 19.0582 14.9471C18.1473 14.9483 17.2682 15.2825 16.5867 15.8868C15.9051 16.4912 15.468 17.3239 15.3578 18.2281C15.0273 21.0527 15.0199 25.3008 15.0643 30.1088C17.213 30.9969 21.0687 31.209 24.7321 30.7206C25.2798 28.007 24.5619 23.4259 25.857 18.0012C25.9198 17.7354 25.9289 17.4597 25.8837 17.1903C25.8385 16.921 25.7399 16.6633 25.5938 16.4326C25.4476 16.2019 25.2568 16.0027 25.0326 15.8467C24.8084 15.6908 24.5552 15.5812 24.2881 15.5244Z" fill="#1C2D5E"/>
<path opacity="0.2" d="M24.2709 18.6095C24.132 19.3203 24.1364 20.0517 24.2838 20.7609C24.4313 21.47 24.7187 22.1425 25.1294 22.7391C25.2075 21.664 25.3409 20.5936 25.5291 19.5321L24.2709 18.6095Z" fill="black"/>
<path d="M22.7318 11.1405C22.4555 12.2013 22.1323 14.0663 22.638 15.0876C22.6883 15.1873 22.7032 15.3012 22.6804 15.4105C22.6575 15.5199 22.5982 15.6182 22.5122 15.6895C21.8634 16.1829 21.3207 16.2939 20.1563 16.1607C19.4755 16.0817 18.6318 15.7413 18.9549 15.2306C19.024 15.1221 19.172 15.1147 19.2559 15.0185C19.8036 14.3968 19.8973 13.6321 19.7246 12.7119L22.7318 11.1405Z" fill="#FFC3BD"/>
<path opacity="0.2" d="M19.7246 12.7088C19.7791 12.9808 19.8047 13.2578 19.8011 13.5352C20.3191 13.5623 21.0222 13.3354 21.2615 12.9481C21.461 12.565 21.5802 12.1453 21.6118 11.7146L19.7246 12.7088Z" fill="black"/>
<path d="M23.1737 9.33928C22.927 10.965 22.8703 11.9295 21.9699 12.6893C20.6155 13.8315 18.6617 12.8867 18.4126 11.2092C18.1905 9.70685 18.6272 7.29914 20.2874 6.80329C20.6555 6.69271 21.0456 6.67762 21.4211 6.75942C21.7966 6.84123 22.1451 7.01725 22.4338 7.27091C22.7225 7.52457 22.9419 7.84752 23.0713 8.20937C23.2008 8.57122 23.236 8.96006 23.1737 9.33928Z" fill="#FFC3BD"/>
<path d="M23.0944 10.7299C21.8314 10.7546 22.2952 9.8147 22.2754 9.18811C22.0065 9.32872 21.0938 8.86 21.338 8.26794C20.8542 8.50712 20.3142 8.60949 19.7764 8.56398C19.0068 8.46777 18.8711 8.20874 18.7897 7.85844C18.7083 7.50814 18.7576 7.21704 19.7764 6.80013C20.7953 6.38323 22.1496 6.84207 22.1496 6.84207C22.1496 6.84207 23.8765 6.1168 24.2958 7.93738C24.8928 8.52204 24.4118 10.7201 23.0944 10.7299Z" fill="#263238"/>
<path d="M23.5976 10.9624C23.3616 11.2119 23.0398 11.3626 22.6971 11.3842C22.2654 11.399 22.2037 10.9574 22.4504 10.5775C22.6749 10.2346 23.1683 9.81774 23.5408 9.98302C23.9133 10.1483 23.901 10.6442 23.5976 10.9624Z" fill="#FFC3BD"/>
<path d="M20.7363 9.46549C20.7363 9.5987 20.645 9.69984 20.5586 9.68998C20.4723 9.68011 20.4106 9.56663 20.423 9.44329C20.4353 9.31994 20.5142 9.19659 20.6006 9.2188C20.6869 9.241 20.7486 9.33227 20.7363 9.46549Z" fill="#263238"/>
<path d="M19.1596 9.35935C19.1596 9.49256 19.0683 9.60604 18.982 9.5863C18.8956 9.56657 18.834 9.46296 18.8463 9.33961C18.8586 9.21626 18.9376 9.10525 19.0239 9.11265C19.1103 9.12006 19.1719 9.21873 19.1596 9.35935Z" fill="#263238"/>
<path d="M19.7391 9.38293C19.5429 9.77445 19.2939 10.1372 18.999 10.461C19.0837 10.5345 19.1834 10.5887 19.2912 10.6198C19.399 10.6509 19.5123 10.6582 19.6232 10.6411L19.7391 9.38293Z" fill="#ED847E"/>
<path d="M19.9469 11.2731C20.0957 11.2847 20.2454 11.2657 20.3867 11.2173C20.5279 11.169 20.6578 11.0922 20.7684 10.9918C20.7759 10.9843 20.7801 10.9741 20.7801 10.9635C20.7801 10.9528 20.7759 10.9426 20.7684 10.9351C20.7608 10.9276 20.7506 10.9233 20.74 10.9233C20.7293 10.9233 20.7191 10.9276 20.7116 10.9351C20.5882 11.0469 20.4399 11.1276 20.279 11.1705C20.1181 11.2134 19.9492 11.2173 19.7865 11.1818C19.7817 11.1807 19.7766 11.1806 19.7717 11.1815C19.7668 11.1825 19.7622 11.1844 19.758 11.1871C19.7539 11.1899 19.7503 11.1935 19.7476 11.1976C19.7449 11.2018 19.743 11.2065 19.7421 11.2114C19.7399 11.2215 19.7418 11.2321 19.7473 11.2409C19.7528 11.2497 19.7616 11.2559 19.7717 11.2583C19.8296 11.2677 19.8882 11.2727 19.9469 11.2731Z" fill="#263238"/>
<path d="M21.1186 9.19895C21.1315 9.20252 21.1451 9.20252 21.158 9.19895C21.1769 9.19033 21.1916 9.17463 21.199 9.15524C21.2064 9.13585 21.2059 9.11433 21.1975 9.09534C21.1495 8.97967 21.0749 8.87695 20.9797 8.79551C20.8846 8.71408 20.7715 8.65622 20.6498 8.62663C20.6393 8.62405 20.6282 8.62369 20.6175 8.62559C20.6068 8.62748 20.5965 8.63157 20.5874 8.63762C20.5784 8.64366 20.5706 8.65152 20.5647 8.6607C20.5589 8.66988 20.5549 8.68018 20.5532 8.69095C20.5515 8.70173 20.5521 8.71274 20.5548 8.72329C20.5576 8.73384 20.5625 8.74371 20.5692 8.75227C20.576 8.76082 20.5845 8.76789 20.5941 8.77301C20.6037 8.77814 20.6143 8.78121 20.6252 8.78204C20.721 8.80688 20.8096 8.8537 20.8841 8.91879C20.9586 8.98389 21.0169 9.06545 21.0544 9.15701C21.0607 9.16887 21.0698 9.17895 21.0811 9.18629C21.0923 9.19362 21.1052 9.19798 21.1186 9.19895Z" fill="#263238"/>
<path d="M18.5206 8.89047C18.5331 8.89155 18.5456 8.88965 18.5572 8.88493C18.5688 8.88021 18.5791 8.87281 18.5872 8.86334C18.6465 8.78451 18.7238 8.721 18.8126 8.67809C18.9015 8.63518 18.9993 8.61412 19.0979 8.61665C19.1184 8.61873 19.139 8.61267 19.1552 8.59975C19.1713 8.58684 19.1817 8.5681 19.1842 8.54757C19.1856 8.52675 19.179 8.50619 19.1657 8.49012C19.1524 8.47406 19.1334 8.46371 19.1127 8.46123C18.9884 8.45562 18.8647 8.48031 18.7521 8.53317C18.6395 8.58603 18.5414 8.66548 18.4663 8.76466C18.4599 8.77256 18.4552 8.78165 18.4523 8.79142C18.4494 8.80118 18.4486 8.81142 18.4497 8.82152C18.4509 8.83163 18.454 8.84141 18.459 8.85028C18.464 8.85916 18.4707 8.86695 18.4787 8.87321C18.4903 8.88352 18.5051 8.8896 18.5206 8.89047Z" fill="#263238"/>
<path d="M25.5465 16.3029C26.2165 17.2951 26.8237 18.3283 27.3646 19.3964C27.6359 19.9367 27.895 20.4893 28.1219 21.0715C28.3778 21.6921 28.5648 22.3391 28.6794 23.0006C28.6942 23.0919 28.7066 23.1881 28.714 23.2892L28.7288 23.4422V23.6074C28.7288 23.6592 28.7288 23.7209 28.7288 23.7678V23.9084C28.7288 23.9997 28.7164 24.0934 28.7041 24.1822C28.6624 24.5299 28.5906 24.8732 28.4895 25.2085C28.3082 25.8304 28.0601 26.4309 27.7494 26.9994C27.1527 28.0788 26.4069 29.0687 25.5341 29.94C25.4183 30.0562 25.2648 30.1272 25.1012 30.1402C24.9377 30.1532 24.7749 30.1074 24.6421 30.0109C24.5094 29.9145 24.4155 29.7738 24.3773 29.6143C24.3391 29.4547 24.3592 29.2868 24.4339 29.1407L24.4586 29.0939L24.836 28.3686C24.9618 28.1219 25.0827 27.8752 25.1912 27.6285C25.4182 27.1351 25.6303 26.6417 25.8005 26.1336C25.9713 25.6579 26.1009 25.1685 26.1879 24.6707C26.2242 24.448 26.2432 24.2228 26.2446 23.9972C26.2483 23.9447 26.2483 23.8919 26.2446 23.8393V23.7727C26.2461 23.7555 26.2461 23.7382 26.2446 23.7209V23.6691L26.2323 23.6074C26.224 23.5617 26.2133 23.5164 26.2002 23.4718C26.0705 23.0088 25.9004 22.5581 25.692 22.1248C25.4651 21.6512 25.2208 21.1677 24.9519 20.6891C24.4265 19.7344 23.8394 18.76 23.2646 17.8423L23.2498 17.8201C23.0692 17.5135 23.0138 17.1491 23.0953 16.8027C23.1767 16.4563 23.3886 16.1548 23.6869 15.9608C23.9852 15.7668 24.3468 15.6954 24.6965 15.7614C25.0461 15.8275 25.3567 16.0258 25.5637 16.3153L25.5465 16.3029Z" fill="#1C2D5E"/>
<path d="M24.7619 28.7904L23.2324 29.4836L24.5448 31.0106C24.5448 31.0106 25.8523 30.2138 25.5316 29.4515L24.7619 28.7904Z" fill="#FFC3BD"/>
<path d="M22.606 31.1091L23.1561 31.568C23.2613 31.657 23.3946 31.7059 23.5323 31.7059C23.6701 31.7059 23.8034 31.657 23.9086 31.568L24.545 31.0179L23.2326 29.4908L22.5394 30.2877C22.4895 30.3458 22.4515 30.4133 22.4278 30.4861C22.4041 30.559 22.3951 30.6359 22.4013 30.7123C22.4075 30.7887 22.4288 30.8631 22.4639 30.9312C22.4991 30.9993 22.5474 31.0598 22.606 31.1091Z" fill="#FFC3BD"/>
<path d="M6.43307 19.8901L6.51201 18.9946C6.52019 18.9024 6.56136 18.8162 6.62797 18.7518C6.69459 18.6875 6.78217 18.6493 6.87465 18.6443C7.15532 18.6313 7.43529 18.6819 7.69366 18.7923L8.84324 19.2857L8.88025 20.3095C8.52502 21.0496 7.0572 20.6228 7.0572 20.6228L6.93632 20.5932C6.78251 20.555 6.64735 20.4633 6.55511 20.3344C6.46288 20.2055 6.41961 20.048 6.43307 19.8901Z" fill="#FFC3BD"/>
<path d="M18.881 13.9798C18.7256 14.1352 18.9131 14.7001 18.691 15.122C18.469 15.5438 18.8909 16.126 19.8036 16.2642C20.7164 16.4023 22.4259 16.5355 23.055 15.8695C23.6841 15.2034 23.2795 14.113 22.981 13.8639C22.6825 13.6147 22.5148 13.9379 21.7747 13.9477C21.0346 13.9576 19.4237 13.442 18.881 13.9798Z" fill="#1C2D5E"/>
<path opacity="0.2" d="M18.881 13.9798C18.7256 14.1352 18.9131 14.7001 18.691 15.122C18.469 15.5438 18.8909 16.126 19.8036 16.2642C20.7164 16.4023 22.4259 16.5355 23.055 15.8695C23.6841 15.2034 23.2795 14.113 22.981 13.8639C22.6825 13.6147 22.5148 13.9379 21.7747 13.9477C21.0346 13.9576 19.4237 13.442 18.881 13.9798Z" fill="black"/>
<path opacity="0.9" d="M19.9886 17.0853H19.9442C19.8943 17.0664 19.8519 17.0318 19.8233 16.9867C19.6309 16.7005 19.6901 16.3181 19.7616 15.9826L20.0823 14.4482C20.1647 14.1925 20.1716 13.9184 20.1021 13.6588C20.0749 13.5897 20.0355 13.5429 20.0009 13.5429C19.9664 13.5429 19.9368 13.5626 19.885 13.6588C19.662 14.1281 19.525 14.6336 19.4804 15.1513C19.437 15.4997 19.3678 15.8444 19.2732 16.1825C19.2545 16.2793 19.2154 16.371 19.1584 16.4514C19.1014 16.5318 19.0278 16.5991 18.9426 16.6487C18.934 16.6524 18.9248 16.6543 18.9155 16.6543C18.9062 16.6543 18.8969 16.6524 18.8883 16.6487C18.8718 16.6398 18.8594 16.6247 18.8538 16.6068C18.8109 16.4097 18.8058 16.2063 18.839 16.0073C18.8895 15.1412 19.0622 14.2866 19.3521 13.4689C19.3592 13.453 19.3721 13.4405 19.3883 13.434C19.4044 13.4276 19.4224 13.4277 19.4385 13.4343C19.4468 13.4373 19.4544 13.442 19.4608 13.448C19.4672 13.454 19.4723 13.4613 19.4758 13.4694C19.4792 13.4775 19.481 13.4863 19.481 13.4951C19.4809 13.5039 19.479 13.5126 19.4755 13.5207C19.1894 14.3264 19.0191 15.1686 18.9698 16.0221C18.9501 16.1753 18.9501 16.3303 18.9698 16.4834C19.0606 16.3884 19.1244 16.2709 19.1548 16.143C19.2461 15.8111 19.3137 15.4731 19.3571 15.1316C19.4053 14.5986 19.5472 14.0783 19.7764 13.5947C19.8011 13.5478 19.8726 13.4072 20.0231 13.4121C20.1169 13.4121 20.1983 13.4861 20.2451 13.6119C20.3288 13.8937 20.3288 14.1936 20.2451 14.4754L19.922 16.0098C19.8578 16.3181 19.8011 16.6684 19.9639 16.9127C19.9754 16.9328 19.9926 16.9491 20.0133 16.9595C20.0429 16.9595 20.0848 16.9176 20.1193 16.8411C20.3551 16.2475 20.507 15.624 20.5708 14.9885C20.6078 14.7418 20.6473 14.468 20.6966 14.2089C20.7607 13.871 20.889 13.4022 21.2467 13.2222C21.2549 13.2186 21.2637 13.2167 21.2726 13.2167C21.2815 13.2167 21.2904 13.2186 21.2985 13.2222C21.3069 13.2245 21.3148 13.2286 21.3216 13.2341C21.3284 13.2396 21.3339 13.2465 21.338 13.2542C21.432 13.4619 21.4799 13.6874 21.4786 13.9154C21.4765 14.3536 21.4269 14.7904 21.3306 15.2179C21.209 15.7147 21.1665 16.2275 21.2048 16.7375C21.2171 16.8263 21.2467 16.9373 21.3133 16.962C21.3445 16.9729 21.3784 16.9729 21.4095 16.962C21.484 16.93 21.5501 16.8814 21.6027 16.8198C21.6553 16.7582 21.693 16.6853 21.713 16.6068C21.7627 16.4313 21.781 16.2484 21.7672 16.0665C21.7672 15.8198 21.7376 15.5731 21.7179 15.3264C21.6221 14.681 21.648 14.0233 21.7944 13.3874C21.8363 13.2419 21.9054 13.163 21.9991 13.1531C22.0929 13.1432 22.1915 13.2246 22.2458 13.3751C22.3202 13.6037 22.3658 13.8407 22.3815 14.0807C22.3988 14.2953 22.4111 14.5148 22.421 14.727C22.4555 15.4029 22.49 16.1035 22.7787 16.7005C22.8107 16.7647 22.8601 16.851 22.9242 16.8633C22.9884 16.8757 23.0796 16.7795 23.1018 16.7474C23.2555 16.4901 23.3041 16.1835 23.2375 15.8914C23.1811 15.6368 23.0984 15.3888 22.9908 15.1513L22.9316 15.0033C22.7314 14.4954 22.5819 13.9691 22.4851 13.4319C22.4383 13.2506 22.4383 13.0605 22.4851 12.8793C22.5102 12.7822 22.5707 12.6981 22.6547 12.6433C22.7387 12.5885 22.8401 12.5671 22.939 12.5832C22.9474 12.5855 22.9552 12.5894 22.962 12.5948C22.9688 12.6002 22.9745 12.6068 22.9786 12.6144C22.9828 12.6221 22.9853 12.6304 22.9862 12.6391C22.987 12.6477 22.9861 12.6564 22.9834 12.6646C22.9812 12.673 22.9772 12.6808 22.9719 12.6876C22.9665 12.6944 22.9598 12.7001 22.9522 12.7042C22.9446 12.7084 22.9362 12.711 22.9276 12.7118C22.919 12.7126 22.9103 12.7117 22.902 12.709C22.7836 12.6745 22.6553 12.7905 22.6084 12.9212C22.5677 13.0831 22.5677 13.2526 22.6084 13.4146C22.7039 13.9441 22.8509 14.463 23.0476 14.9638L23.1068 15.1094C23.2133 15.3524 23.2959 15.6052 23.3535 15.8642C23.4268 16.1917 23.3702 16.5348 23.1956 16.8214C23.1653 16.8769 23.1196 16.9226 23.0641 16.9528C23.0085 16.983 22.9453 16.9965 22.8823 16.9916C22.8258 16.9744 22.774 16.9443 22.7312 16.9036C22.6884 16.8629 22.6557 16.8128 22.6356 16.7572C22.3346 16.1405 22.2976 15.4276 22.2631 14.7393C22.2631 14.5272 22.2433 14.3076 22.2236 14.0979C22.2111 13.8687 22.168 13.6422 22.0953 13.4245C22.0707 13.3578 22.0287 13.2912 21.9893 13.2912C21.9547 13.2912 21.9202 13.3455 21.8955 13.4319C21.7542 14.051 21.73 14.691 21.824 15.319C21.8462 15.5657 21.8659 15.8272 21.8758 16.0788C21.8888 16.2758 21.8679 16.4736 21.8141 16.6635C21.7881 16.7621 21.7396 16.8532 21.6724 16.9299C21.6052 17.0065 21.5211 17.0665 21.4268 17.1051C21.3669 17.126 21.3017 17.126 21.2418 17.1051C21.1382 17.0656 21.074 16.9546 21.0494 16.7745C21.0082 16.2506 21.0507 15.7235 21.1752 15.213C21.2704 14.7945 21.3192 14.3668 21.3207 13.9376C21.3214 13.754 21.2888 13.5718 21.2245 13.3998C20.9605 13.5799 20.8569 13.9746 20.8002 14.2657C20.7533 14.5124 20.7139 14.7837 20.6769 15.0378C20.6122 15.6862 20.4569 16.3222 20.2155 16.9275C20.1514 17.0163 20.0725 17.0853 19.9886 17.0853Z" fill="#1C2D5E"/>
<path d="M25.3216 30.6109C25.4302 30.6109 25.5831 30.2803 25.815 30.1816C26.0469 30.083 26.1283 29.6611 25.8915 29.2442C25.6547 28.8273 25.1514 28.0996 24.7049 28.1464C24.2584 28.1933 23.9648 28.8322 23.9648 29.0592C23.9648 29.2862 24.14 29.2097 24.3817 29.4934C24.6235 29.7771 24.9467 30.6356 25.3216 30.6109Z" fill="#1C2D5E"/>
<path opacity="0.2" d="M25.3216 30.6109C25.4302 30.6109 25.5831 30.2803 25.815 30.1816C26.0469 30.083 26.1283 29.6611 25.8915 29.2442C25.6547 28.8273 25.1514 28.0996 24.7049 28.1464C24.2584 28.1933 23.9648 28.8322 23.9648 29.0592C23.9648 29.2862 24.14 29.2097 24.3817 29.4934C24.6235 29.7771 24.9467 30.6356 25.3216 30.6109Z" fill="black"/>
<path opacity="0.9" d="M25.2701 31.0207C25.2571 31.0209 25.2443 31.0172 25.2334 31.0102C25.2224 31.0032 25.2137 30.9931 25.2084 30.9812C25.2048 30.9733 25.2028 30.9648 25.2026 30.9561C25.2024 30.9474 25.2039 30.9387 25.2072 30.9307C25.2104 30.9226 25.2152 30.9152 25.2214 30.9091C25.2276 30.9029 25.2349 30.8981 25.243 30.8949C25.6654 30.6753 26.0428 30.3782 26.3555 30.0191C26.4152 29.9636 26.4674 29.9005 26.511 29.8317C26.4514 29.8309 26.3932 29.85 26.3457 29.8859C26.1855 29.9884 26.0359 30.1066 25.8992 30.2387C25.6888 30.4614 25.4283 30.6305 25.1394 30.7321C25.1046 30.7455 25.0666 30.7479 25.0305 30.7391C24.9943 30.7303 24.9617 30.7106 24.9371 30.6827C24.9158 30.6503 24.9022 30.6135 24.897 30.5751C24.8919 30.5367 24.8955 30.4976 24.9075 30.4607C24.966 30.2903 25.0809 30.145 25.2331 30.0487L25.9263 29.5159C26.0031 29.4712 26.0688 29.4099 26.1188 29.3365C26.1687 29.2631 26.2016 29.1794 26.2149 29.0916C26.2195 29.0763 26.2195 29.06 26.2149 29.0447C26.2149 29.0274 26.1656 29.0447 26.1557 29.0447C25.8357 29.1919 25.5455 29.3968 25.2997 29.6491C25.1912 29.7478 25.0777 29.8489 24.9642 29.9427C24.8834 30.0296 24.7791 30.0912 24.6639 30.1201C24.5488 30.149 24.4277 30.1439 24.3154 30.1055C24.3025 30.0997 24.2918 30.0898 24.2851 30.0773C24.2784 30.0648 24.2761 30.0504 24.2784 30.0364C24.3071 29.8928 24.3669 29.7573 24.4536 29.6392C24.6074 29.4384 24.7884 29.2599 24.9913 29.1089C25.2278 28.9416 25.4283 28.7285 25.5809 28.4823C25.5968 28.4605 25.6074 28.4354 25.6121 28.4089C25.6168 28.3824 25.6154 28.3552 25.6081 28.3293C25.5983 28.309 25.5829 28.2918 25.5637 28.28C25.529 28.258 25.4888 28.2464 25.4477 28.2464C25.4067 28.2464 25.3665 28.258 25.3318 28.28C25.25 28.3362 25.1804 28.4084 25.127 28.4921C25.0432 28.6105 24.9617 28.7388 24.8803 28.8671C24.7052 29.2113 24.4517 29.5096 24.1403 29.7379C24.0243 29.807 23.9552 29.765 23.9232 29.7379C23.8956 29.7038 23.8777 29.6629 23.8712 29.6196C23.8647 29.5762 23.8699 29.5319 23.8862 29.4912C23.9305 29.3467 23.9944 29.2089 24.0761 29.0817C24.1452 28.9707 24.2167 28.8646 24.2883 28.7561C24.5431 28.4317 24.7233 28.0552 24.8162 27.6534C24.8335 27.6047 24.8335 27.5516 24.8162 27.5029C24.8045 27.4878 24.7889 27.4764 24.771 27.4698C24.7531 27.4633 24.7337 27.4619 24.7151 27.4659C24.6381 27.4853 24.5669 27.5231 24.5077 27.5759C24.4484 27.6287 24.4028 27.6951 24.3746 27.7693C24.3107 27.9186 24.2619 28.074 24.2291 28.2331L24.2019 28.3342C24.118 28.6742 23.9998 29.0048 23.8492 29.321C23.8068 29.4304 23.7319 29.5243 23.6345 29.5899C23.5741 29.6202 23.5045 29.6263 23.4397 29.6072C23.4055 29.5966 23.3738 29.5791 23.3466 29.5557C23.3195 29.5324 23.2974 29.5037 23.2818 29.4715C23.2739 29.4561 23.2723 29.4382 23.2773 29.4216C23.2824 29.405 23.2937 29.391 23.3089 29.3827C23.3166 29.3785 23.3251 29.3759 23.3339 29.3752C23.3426 29.3744 23.3514 29.3755 23.3597 29.3782C23.3681 29.381 23.3757 29.3855 23.3823 29.3913C23.3888 29.3972 23.3941 29.4043 23.3977 29.4123C23.4061 29.4283 23.4176 29.4425 23.4316 29.454C23.4456 29.4654 23.4618 29.4739 23.4791 29.4789C23.5092 29.4912 23.5428 29.4912 23.5729 29.4789C23.6444 29.4255 23.6992 29.3527 23.7308 29.2692C23.878 28.9629 23.9929 28.6421 24.0737 28.312L24.1008 28.2109C24.1348 28.0413 24.1869 27.8759 24.2562 27.7175C24.2926 27.6228 24.352 27.5387 24.4291 27.4728C24.5062 27.4069 24.5986 27.3613 24.6978 27.3401C24.7417 27.3329 24.7868 27.3386 24.8275 27.3565C24.8683 27.3745 24.9029 27.4039 24.9272 27.4412C24.9667 27.5172 24.9764 27.6052 24.9543 27.6879C24.8577 28.1072 24.6708 28.5003 24.4067 28.84C24.3352 28.946 24.2636 29.0521 24.197 29.1607C24.1213 29.2771 24.0615 29.4032 24.0194 29.5356C24.0106 29.5541 24.0061 29.5744 24.0061 29.5948C24.0061 29.6153 24.0106 29.6355 24.0194 29.654C24.0194 29.654 24.0613 29.654 24.0737 29.6392C24.3638 29.4192 24.6007 29.1368 24.7669 28.8128C24.8458 28.6845 24.9272 28.5661 25.0136 28.4304C25.0767 28.3311 25.1609 28.2469 25.2602 28.1838C25.3158 28.1482 25.3805 28.1292 25.4465 28.1292C25.5125 28.1292 25.5771 28.1482 25.6327 28.1838C25.6706 28.2092 25.7012 28.2441 25.7216 28.2849C25.7384 28.3294 25.7443 28.3773 25.7387 28.4245C25.7331 28.4717 25.7162 28.5169 25.6895 28.5563C25.5288 28.8182 25.3174 29.0455 25.0678 29.2248C24.8742 29.3649 24.7008 29.5309 24.5522 29.7182C24.4894 29.8054 24.4426 29.9032 24.4141 30.0068C24.5424 30.0463 24.6855 29.992 24.8729 29.8415C24.9864 29.7527 25.0974 29.6516 25.206 29.5529C25.4619 29.2884 25.7658 29.0749 26.1015 28.9238C26.1397 28.9037 26.1842 28.8988 26.2259 28.9103C26.2676 28.9217 26.3034 28.9486 26.3259 28.9855C26.3426 29.0217 26.3494 29.0617 26.3457 29.1014C26.3323 29.2084 26.2947 29.3109 26.2357 29.4011C26.1767 29.4913 26.0979 29.5668 26.0053 29.622L25.3096 30.1573C25.1806 30.2351 25.0829 30.3555 25.0333 30.4977C25.0261 30.514 25.0224 30.5317 25.0224 30.5495C25.0224 30.5674 25.0261 30.585 25.0333 30.6013C25.0333 30.6013 25.0481 30.6211 25.0999 30.6013C25.3676 30.5057 25.6087 30.3476 25.803 30.14C25.9474 30.0024 26.1043 29.8785 26.2717 29.77C26.3222 29.7327 26.382 29.7098 26.4445 29.7037C26.5071 29.6976 26.5701 29.7086 26.6269 29.7354C26.6401 29.7432 26.6501 29.7554 26.6551 29.7699C26.6601 29.7844 26.6597 29.8002 26.6541 29.8144C26.6063 29.9284 26.5339 30.0303 26.4419 30.1129C26.1168 30.4833 25.7252 30.7895 25.2874 31.0158C25.282 31.0186 25.2761 31.0203 25.2701 31.0207Z" fill="#1C2D5E"/>
<path d="M7.8313 20.9285C7.87324 21.0272 8.23094 21.0617 8.40116 21.2443C8.57137 21.4268 8.99815 21.3627 9.30898 20.9976C9.61981 20.6325 10.1354 19.9171 9.93558 19.5174C9.73576 19.1178 9.04009 19.0635 8.82793 19.14C8.61578 19.2165 8.74652 19.3571 8.5615 19.6827C8.37649 20.0083 7.67835 20.5831 7.8313 20.9285Z" fill="#1C2D5E"/>
<path opacity="0.2" d="M7.8313 20.9285C7.87324 21.0272 8.23094 21.0617 8.40116 21.2443C8.57137 21.4268 8.99815 21.3627 9.30898 20.9976C9.61981 20.6325 10.1354 19.9171 9.93558 19.5174C9.73576 19.1178 9.04009 19.0635 8.82793 19.14C8.61578 19.2165 8.74652 19.3571 8.5615 19.6827C8.37649 20.0083 7.67835 20.5831 7.8313 20.9285Z" fill="black"/>
<path opacity="0.9" d="M9.03741 21.9158C8.91388 21.91 8.79327 21.8763 8.68464 21.8172C8.22884 21.638 7.81051 21.3753 7.45118 21.0426C7.44096 21.0295 7.43597 21.0131 7.43719 20.9966C7.43841 20.9801 7.44575 20.9646 7.45777 20.9532C7.4698 20.9418 7.48565 20.9352 7.50222 20.9349C7.5188 20.9345 7.5349 20.9404 7.54739 20.9513C7.89851 21.2703 8.3059 21.5213 8.74878 21.6914C8.82165 21.7298 8.89978 21.7572 8.98067 21.7728C8.95887 21.7177 8.92107 21.6704 8.87213 21.6371C8.71832 21.521 8.55299 21.4209 8.37874 21.3386C8.09896 21.2163 7.85211 21.0294 7.6584 20.7934C7.634 20.7653 7.6188 20.7303 7.61483 20.6933C7.61086 20.6562 7.61832 20.6189 7.6362 20.5862C7.65866 20.5546 7.68823 20.5288 7.72251 20.5108C7.7568 20.4928 7.79484 20.4831 7.83356 20.4826C8.01177 20.479 8.18584 20.5365 8.32694 20.6454L9.06701 21.1166C9.1348 21.1728 9.21423 21.2132 9.29955 21.235C9.38488 21.2567 9.47397 21.2593 9.56039 21.2424C9.57599 21.24 9.59056 21.2331 9.60233 21.2226C9.61713 21.2054 9.59 21.1733 9.58259 21.1659C9.33577 20.9145 9.04366 20.7119 8.72165 20.5689C8.5909 20.4998 8.45769 20.4283 8.33187 20.3518C8.22255 20.306 8.12891 20.2293 8.06234 20.1312C7.99577 20.0331 7.95914 19.9178 7.9569 19.7992C7.95849 19.7853 7.96429 19.7721 7.97355 19.7615C7.98281 19.751 7.99507 19.7435 8.00871 19.74C8.15301 19.7173 8.30057 19.7275 8.44042 19.7696C8.68231 19.8446 8.91237 19.9534 9.12375 20.0928C9.36237 20.2579 9.63161 20.3737 9.91563 20.4332C9.94151 20.4406 9.96873 20.442 9.99523 20.4373C10.0217 20.4326 10.0468 20.4219 10.0686 20.4061C10.0842 20.3908 10.0945 20.3709 10.0982 20.3494C10.1078 20.3089 10.1057 20.2666 10.0921 20.2273C10.0786 20.188 10.0542 20.1533 10.0217 20.1273C9.94229 20.0694 9.85148 20.0291 9.75528 20.0089C9.61466 19.9695 9.46418 19.9374 9.31864 19.9078C8.93599 19.861 8.56945 19.7259 8.24799 19.5131C8.14438 19.4292 8.15919 19.3478 8.17892 19.3083C8.20169 19.2709 8.23404 19.2401 8.27263 19.2193C8.31122 19.1985 8.35466 19.1884 8.39848 19.1899C8.54913 19.181 8.70029 19.1934 8.84746 19.2269C8.97574 19.2541 9.09415 19.2861 9.22736 19.3157C9.61919 19.4438 10.0344 19.4842 10.4435 19.4341C10.4946 19.4292 10.5429 19.4086 10.5817 19.3749C10.592 19.3587 10.5975 19.3399 10.5975 19.3207C10.5975 19.3014 10.592 19.2826 10.5817 19.2664C10.538 19.2003 10.4787 19.1462 10.4089 19.1087C10.3392 19.0713 10.2612 19.0517 10.1821 19.0518C10.0173 19.0418 9.8519 19.0492 9.68867 19.074H9.58753C9.23979 19.1097 8.8893 19.1097 8.54156 19.074C8.42417 19.0714 8.31044 19.0326 8.21593 18.963C8.19053 18.9407 8.16998 18.9134 8.15555 18.8829C8.14112 18.8523 8.13312 18.8191 8.13205 18.7853C8.12966 18.7135 8.15532 18.6436 8.20359 18.5905C8.21606 18.5781 8.23291 18.5712 8.25046 18.5712C8.26802 18.5712 8.28486 18.5781 8.29734 18.5905C8.30338 18.5964 8.30817 18.6035 8.31145 18.6114C8.31472 18.6192 8.31641 18.6276 8.31641 18.6361C8.31641 18.6446 8.31472 18.653 8.31145 18.6608C8.30817 18.6687 8.30338 18.6758 8.29734 18.6817C8.28407 18.6948 8.27386 18.7106 8.26746 18.7281C8.26106 18.7456 8.25863 18.7643 8.26033 18.7829C8.26047 18.7986 8.26383 18.8142 8.27019 18.8286C8.27655 18.843 8.28579 18.856 8.29734 18.8667C8.37132 18.9137 8.45647 18.9401 8.54403 18.9432C8.88194 18.9777 9.22248 18.9777 9.56039 18.9432H9.664C9.83395 18.9195 10.0059 18.9129 10.1771 18.9235C10.2766 18.9267 10.3738 18.9545 10.4599 19.0044C10.546 19.0544 10.6183 19.1249 10.6705 19.2096C10.6921 19.2478 10.7023 19.2914 10.6996 19.3352C10.697 19.379 10.6817 19.421 10.6557 19.4563C10.5982 19.5181 10.5201 19.5567 10.4361 19.5649C10.0089 19.6184 9.57515 19.5771 9.16569 19.444C9.03987 19.4144 8.919 19.3823 8.79318 19.3577C8.65747 19.3259 8.51794 19.3134 8.37874 19.3207C8.32447 19.3207 8.28007 19.3429 8.2702 19.3651C8.26033 19.3873 8.28993 19.4021 8.30227 19.4095C8.60721 19.6093 8.9542 19.7359 9.31617 19.7795C9.46172 19.8091 9.61466 19.8412 9.76021 19.8806C9.87574 19.9064 9.98431 19.9569 10.0784 20.0287C10.1305 20.0694 10.1695 20.1246 10.1906 20.1873C10.2116 20.25 10.2138 20.3175 10.1969 20.3814C10.1862 20.4258 10.1641 20.4666 10.1327 20.4998C10.0966 20.5309 10.0535 20.5528 10.0072 20.564C9.96091 20.5751 9.91261 20.5751 9.86629 20.564C9.56524 20.5032 9.27981 20.3814 9.02754 20.2063C8.82571 20.0733 8.60657 19.9688 8.37628 19.8954C8.27312 19.865 8.16519 19.8542 8.05805 19.8634C8.05805 19.9966 8.16412 20.1101 8.36887 20.2383C8.49222 20.3148 8.61557 20.3839 8.75371 20.453C9.10151 20.6016 9.41731 20.816 9.68374 21.0845C9.71549 21.1138 9.73493 21.154 9.73814 21.197C9.74135 21.2401 9.72808 21.2828 9.70101 21.3164C9.67228 21.3431 9.63761 21.3625 9.59986 21.3731C9.49466 21.397 9.38542 21.3967 9.28033 21.3723C9.17523 21.348 9.07701 21.3002 8.993 21.2325L8.25293 20.7613C8.13547 20.6672 7.98902 20.6166 7.83849 20.6183C7.82043 20.6182 7.80255 20.6219 7.78599 20.6291C7.76943 20.6364 7.75455 20.6469 7.74228 20.6602C7.74228 20.6602 7.72994 20.6799 7.75955 20.7243C7.94286 20.9397 8.17446 21.1088 8.43548 21.2177C8.60939 21.3074 8.77456 21.4131 8.92886 21.5335C8.98148 21.5678 9.02375 21.6157 9.05113 21.6722C9.07851 21.7287 9.08998 21.7916 9.08428 21.8542C9.08191 21.8694 9.07411 21.8833 9.06233 21.8933C9.05055 21.9032 9.03557 21.9086 9.02014 21.9084L9.03741 21.9158Z" fill="#1C2D5E"/>
<path d="M24.2683 15.3637C23.4049 15.0751 22.9165 15.0553 22.6254 15.8694C21.9593 17.7221 21.5991 23.0531 21.5991 24.7256C21.5991 25.8382 24.7272 26.2058 25.1737 25.8382C25.6671 25.4238 25.2304 17.6357 25.6103 16.3529C25.6324 16.2839 25.6367 16.2104 25.6229 16.1393C25.6091 16.0682 25.5776 16.0017 25.5314 15.9459C25.3069 15.6844 24.8776 15.566 24.2683 15.3637Z" fill="#263238"/>
<path opacity="0.7" d="M25.7684 17.7407C25.7547 17.7407 25.7414 17.7354 25.7314 17.7259C25.1221 17.2474 23.4421 16.754 21.9274 16.7836C21.9113 16.783 21.8959 16.7763 21.8845 16.7648C21.8731 16.7534 21.8664 16.7381 21.8658 16.7219C21.8654 16.7139 21.8667 16.706 21.8696 16.6985C21.8724 16.691 21.8767 16.6842 21.8822 16.6784C21.8877 16.6727 21.8944 16.6681 21.9017 16.665C21.9091 16.6618 21.917 16.6602 21.925 16.6602C23.3237 16.6331 25.1048 17.0771 25.8079 17.6297C25.8186 17.6415 25.8246 17.6569 25.8246 17.6729C25.8246 17.6889 25.8186 17.7043 25.8079 17.7161C25.7985 17.7291 25.7843 17.738 25.7684 17.7407Z" fill="black"/>
<path opacity="0.7" d="M26.7063 21.0098C26.6918 21.0096 26.6778 21.0044 26.6668 20.995C26.0797 20.5287 25.5493 20.2549 24.1087 19.9169C23.1405 19.6826 22.1419 19.5994 21.1484 19.6702C21.1402 19.6713 21.1319 19.6706 21.124 19.6682C21.1161 19.6659 21.1088 19.6619 21.1025 19.6566C21.0963 19.6512 21.0912 19.6446 21.0876 19.6372C21.084 19.6298 21.082 19.6217 21.0818 19.6135C21.0811 19.6054 21.082 19.5972 21.0845 19.5895C21.087 19.5817 21.091 19.5746 21.0963 19.5684C21.1015 19.5622 21.108 19.5571 21.1152 19.5534C21.1225 19.5497 21.1304 19.5475 21.1385 19.5469C22.1427 19.4766 23.1517 19.5598 24.1309 19.7936C25.5937 20.1315 26.1365 20.4202 26.7384 20.8963C26.7443 20.9018 26.749 20.9085 26.7522 20.9159C26.7554 20.9233 26.7571 20.9314 26.7571 20.9395C26.7571 20.9475 26.7554 20.9555 26.7522 20.963C26.749 20.9704 26.7443 20.9771 26.7384 20.9826C26.731 20.995 26.7197 21.0046 26.7063 21.0098Z" fill="black"/>
<path opacity="0.7" d="M26.3508 23.6861C26.3388 23.6896 26.3259 23.6896 26.3138 23.6861C25.8747 23.3629 23.8247 22.6993 20.5832 22.7931C20.5669 22.7931 20.5512 22.7866 20.5396 22.775C20.528 22.7634 20.5215 22.7477 20.5215 22.7314C20.5212 22.7234 20.5225 22.7154 20.5253 22.708C20.5281 22.7005 20.5325 22.6937 20.538 22.6879C20.5435 22.6822 20.5502 22.6776 20.5575 22.6744C20.5649 22.6713 20.5728 22.6697 20.5807 22.6697C23.8469 22.5686 25.9364 23.2568 26.3854 23.5874C26.392 23.5918 26.3976 23.5976 26.4019 23.6042C26.4063 23.6109 26.4092 23.6184 26.4106 23.6262C26.412 23.634 26.4118 23.6421 26.41 23.6498C26.4082 23.6575 26.4049 23.6648 26.4002 23.6713C26.3934 23.677 26.3856 23.6813 26.3771 23.6838C26.3686 23.6864 26.3596 23.6872 26.3508 23.6861Z" fill="black"/>
<path d="M24.35 19.0226C24.3179 19.0621 24.2341 19.0522 24.197 19.0843C24.16 19.1164 24.1625 19.2052 24.123 19.2323C24.0836 19.2594 24.0046 19.22 23.9578 19.2323C23.9109 19.2446 23.8887 19.3359 23.8393 19.3458C23.79 19.3556 23.7333 19.2964 23.6839 19.2989C23.6346 19.3014 23.5803 19.3704 23.5335 19.363C23.4866 19.3556 23.4496 19.2792 23.4027 19.2619C23.3558 19.2446 23.2843 19.2915 23.2399 19.2619C23.1955 19.2323 23.1955 19.1534 23.156 19.1213C23.1165 19.0892 23.0327 19.1015 23.0006 19.0621C22.9685 19.0226 23.0006 18.9437 22.9735 18.8993C22.9463 18.8549 22.8649 18.8376 22.8476 18.7883C22.8304 18.7389 22.8896 18.6748 22.8797 18.6254C22.8698 18.5761 22.8008 18.5292 22.8008 18.4799C22.8008 18.4305 22.8773 18.3861 22.8847 18.3368C22.8921 18.2875 22.8402 18.2209 22.8575 18.1715C22.8748 18.1222 22.9587 18.1074 22.9833 18.063C23.008 18.0186 22.9833 17.9396 23.008 17.8977C23.0327 17.8558 23.1239 17.8706 23.1609 17.836C23.198 17.8015 23.193 17.7176 23.235 17.6905C23.2769 17.6633 23.3534 17.6905 23.3978 17.6905C23.4422 17.6905 23.4693 17.5893 23.5162 17.5795C23.5631 17.5696 23.6247 17.6288 23.6741 17.6263C23.7234 17.6239 23.7752 17.5548 23.8245 17.5622C23.8739 17.5696 23.906 17.6461 23.9553 17.6633C24.0046 17.6806 24.0737 17.6337 24.1181 17.6633C24.1625 17.6929 24.1625 17.7719 24.202 17.804C24.2415 17.836 24.3253 17.8237 24.3574 17.8607C24.3895 17.8977 24.3574 17.9816 24.3845 18.026C24.4117 18.0704 24.4931 18.0876 24.5079 18.137C24.5227 18.1863 24.4684 18.248 24.4758 18.2998C24.4832 18.3516 24.5572 18.3935 24.5572 18.4454C24.5572 18.4972 24.4807 18.5391 24.4733 18.5884C24.4659 18.6378 24.5177 18.7044 24.5005 18.7512C24.4832 18.7981 24.3993 18.8179 24.3747 18.8623C24.35 18.9067 24.3821 18.9831 24.35 19.0226Z" fill="white"/>
<path d="M16.9885 15.2008C16.394 15.4746 15.9228 15.7682 15.7131 16.5452C15.1186 18.7334 14.7263 22.9074 14.5537 24.5627C14.381 26.218 16.8232 25.2436 17.134 24.8094C17.4449 24.3752 17.2722 19.7966 18.5303 15.2452C18.5541 15.1856 18.5653 15.1218 18.5632 15.0576C18.5611 14.9935 18.5457 14.9305 18.518 14.8727C18.3823 14.7 17.5337 14.9467 16.9885 15.2008Z" fill="#263238"/>
<path opacity="0.7" d="M14.6944 17.8524C14.6768 17.8523 14.6599 17.8452 14.6475 17.8327C14.6362 17.8212 14.6299 17.8057 14.6299 17.7895C14.6299 17.7734 14.6362 17.7579 14.6475 17.7463C15.3629 17.0951 17.1514 16.4019 18.5502 16.2341C18.5581 16.2331 18.5662 16.2337 18.574 16.2359C18.5817 16.2381 18.5889 16.2419 18.5951 16.2469C18.6014 16.252 18.6065 16.2583 18.6102 16.2654C18.6139 16.2726 18.6162 16.2804 18.6168 16.2884C18.6189 16.3044 18.6147 16.3206 18.605 16.3335C18.5953 16.3464 18.5809 16.355 18.565 16.3575C17.0453 16.54 15.358 17.2702 14.7314 17.8376C14.7209 17.8462 14.7079 17.8514 14.6944 17.8524Z" fill="black"/>
<path opacity="0.7" d="M13.6631 21.2566C13.6543 21.257 13.6456 21.2554 13.6375 21.252C13.6294 21.2486 13.6221 21.2434 13.6163 21.2369C13.605 21.2253 13.5986 21.2098 13.5986 21.1937C13.5986 21.1776 13.605 21.1621 13.6163 21.1505C14.2281 20.5881 14.7806 20.2254 16.2485 19.6852C17.2102 19.3215 18.22 19.1004 19.2458 19.029C19.2624 19.0283 19.2786 19.0341 19.291 19.0451C19.3034 19.0562 19.3111 19.0716 19.3124 19.0882C19.3127 19.0963 19.3114 19.1044 19.3086 19.112C19.3058 19.1196 19.3016 19.1266 19.2961 19.1325C19.2906 19.1385 19.2839 19.1433 19.2766 19.1467C19.2692 19.1501 19.2613 19.152 19.2532 19.1523C18.2402 19.2228 17.243 19.4405 16.2929 19.7987C14.8423 20.334 14.2996 20.6917 13.7001 21.2418C13.6896 21.2504 13.6767 21.2556 13.6631 21.2566Z" fill="black"/>
<path opacity="0.7" d="M13.944 23.8959C13.935 23.8959 13.9262 23.8938 13.9181 23.89C13.91 23.8862 13.9028 23.8806 13.8971 23.8737C13.8912 23.8682 13.8865 23.8615 13.8833 23.8541C13.8801 23.8467 13.8784 23.8386 13.8784 23.8305C13.8784 23.8225 13.8801 23.8145 13.8833 23.807C13.8865 23.7996 13.8912 23.7929 13.8971 23.7874C14.3535 23.3951 16.4578 22.4158 19.7215 22.0605C19.7295 22.0595 19.7376 22.0601 19.7453 22.0623C19.753 22.0645 19.7602 22.0683 19.7665 22.0734C19.7727 22.0784 19.7778 22.0847 19.7815 22.0919C19.7853 22.099 19.7875 22.1068 19.7881 22.1148C19.7895 22.1228 19.7892 22.1311 19.7871 22.139C19.7851 22.1469 19.7814 22.1542 19.7762 22.1605C19.7711 22.1669 19.7646 22.172 19.7573 22.1756C19.75 22.1792 19.742 22.1812 19.7338 22.1814C16.4997 22.5317 14.425 23.4938 13.976 23.8787C13.9675 23.8878 13.9563 23.8939 13.944 23.8959Z" fill="black"/>
<path d="M19.0581 7.42487C19.2625 6.99649 19.571 6.62618 19.9554 6.34779C20.3398 6.06939 20.7878 5.8918 21.2586 5.83125C23.2617 5.55249 24.6827 6.81801 24.8183 8.45851C24.9269 9.80544 24.1893 9.77831 24.1893 9.77831C22.6376 8.50045 20.9527 7.42981 19.0581 7.42487Z" fill="#1C2D5E"/>
<path d="M18.8782 7.22545C18.4613 7.76817 18.3355 8.21222 18.6167 8.36023C18.8979 8.50825 20.3756 7.9754 21.6362 8.6538C23.0942 9.43581 23.7183 10.8345 23.9156 10.7408C24.1302 10.6509 24.3129 10.4987 24.44 10.3039C24.5671 10.1091 24.6328 9.88056 24.6286 9.64796C24.5447 9.05344 23.1682 7.83725 22.1247 7.34386C21.0812 6.85048 19.1964 6.81101 18.8782 7.22545Z" fill="#1C2D5E"/>
<path opacity="0.2" d="M18.8782 7.22545C18.4613 7.76817 18.3355 8.21222 18.6167 8.36023C18.8979 8.50825 20.3756 7.9754 21.6362 8.6538C23.0942 9.43581 23.7183 10.8345 23.9156 10.7408C24.1302 10.6509 24.3129 10.4987 24.44 10.3039C24.5671 10.1091 24.6328 9.88056 24.6286 9.64796C24.5447 9.05344 23.1682 7.83725 22.1247 7.34386C21.0812 6.85048 19.1964 6.81101 18.8782 7.22545Z" fill="black"/>
<path d="M2.54004 67.5234L5.10563 38.9146L5.49787 38.7789L7.74769 14.6427L8.45323 14.3516L7.1729 27.2831L7.1877 29.9967L6.95828 32.7745L6.70419 33.068L5.12043 48.6071L5.34985 49.2707L3.00875 67.6122L2.54004 67.5234Z" fill="#1C2D5E"/>
<path opacity="0.4" d="M2.54004 67.5234L5.10563 38.9146L5.49787 38.7789L7.74769 14.6427L8.45323 14.3516L7.1729 27.2831L7.1877 29.9967L6.95828 32.7745L6.70419 33.068L5.12043 48.6071L5.34985 49.2707L3.00875 67.6122L2.54004 67.5234Z" fill="black"/>
<path d="M8.69778 19.2291C8.69778 18.5828 8.25373 18.5729 7.76035 18.0549C7.70361 17.9957 7.51366 18.0943 7.53833 18.2349C7.54738 18.3225 7.57387 18.4073 7.61624 18.4844C7.65861 18.5615 7.716 18.6294 7.78502 18.6839C7.70608 18.8714 7.63454 19.5942 8.07118 20.0013C8.24451 19.9566 8.39892 19.8574 8.51171 19.7184C8.6245 19.5794 8.68972 19.4079 8.69778 19.2291Z" fill="#FFC3BD"/>
</g>
</svg>
