<svg width="65" height="65" viewBox="0 0 65 65" fill="none" xmlns="http://www.w3.org/2000/svg">
<path d="M63.2031 32.2632C63.2031 49.384 49.324 63.2632 32.2031 63.2632C15.0823 63.2632 1.20312 49.384 1.20312 32.2632C1.20312 15.1424 15.0823 1.26318 32.2031 1.26318C49.324 1.26318 63.2031 15.1424 63.2031 32.2632Z" fill="url(#paint0_linear_2843_1887)" stroke="#1C2D5E" stroke-width="2"/>
<mask id="mask0_2843_1887" style="mask-type:alpha" maskUnits="userSpaceOnUse" x="0" y="0" width="65" height="65">
<path d="M64.2031 32.2632C64.2031 49.9363 49.8762 64.2632 32.2031 64.2632C14.53 64.2632 0.203125 49.9363 0.203125 32.2632C0.203125 14.5901 14.53 0.263184 32.2031 0.263184C49.8762 0.263184 64.2031 14.5901 64.2031 32.2632Z" fill="#4A75F7"/>
</mask>
<g mask="url(#mask0_2843_1887)">
<path d="M46.5255 29.085C46.5255 29.085 47.2755 22.2157 47.9989 21.9104C48.7224 21.6051 52.3926 22.6538 53.7068 23.5099C54.4576 23.9598 55.0191 24.6675 55.2864 25.501V27.6514L57.3173 30.2731L54.7886 33.273L50.7533 30.8704C50.7533 30.8704 46.4459 29.7554 46.5255 29.085Z" fill="#E4897B"/>
<path d="M47.4868 32.8886L59.1945 37.7336L52.9557 33.2669L57.8671 28.3024C57.8671 28.3024 71.6854 34.2757 71.4066 40.9127C71.1279 47.5497 61.4113 47.8019 48.0244 46.2223L47.4868 32.8886Z" fill="#1C2D5E"/>
<path opacity="0.1" d="M71.3795 40.926C71.1472 46.4944 64.2447 47.563 54.1233 46.8396C52.1985 46.7002 50.141 46.4944 48.0106 46.2422L47.8048 40.9326L47.4995 32.935L59.2072 37.78L52.9551 33.2669L57.8665 28.3024C57.8665 28.3024 71.6583 34.289 71.3795 40.926Z" fill="black"/>
<path opacity="0.2" d="M54.1114 46.8196C52.1867 46.6802 50.1292 46.4744 47.9987 46.2222L47.793 40.9126C50.5296 42.0751 52.7675 44.1672 54.1114 46.8196V46.8196Z" fill="black"/>
<path d="M24.5629 14.9352C24.4435 14.9816 18.5896 14.8224 17.2622 19.8997C15.9348 24.977 20.2157 27.6982 19.5918 32.7091C18.9679 37.7201 16.8706 42.1337 17.9193 44.085C18.9679 46.0362 25.22 47.1114 26.6735 40.6735C28.127 34.2356 21.9878 23.6695 24.5496 20.5302C27.1115 17.3909 24.5629 14.9352 24.5629 14.9352Z" fill="#263238"/>
<path d="M44.5991 46.0434C44.5991 46.0434 43.8557 30.3534 28.8163 30.5194C13.7768 30.6853 10.7968 39.9838 14.4604 47.1517C15.4312 52.8612 16.0606 58.6235 16.3453 64.408C16.5975 72.3724 13.2259 79.1687 26.1814 80.0448C39.1368 80.9209 46.1721 77.7285 46.5106 76.0626C46.849 74.3967 45.2429 52.5078 44.5991 46.0434Z" fill="#263238"/>
<path opacity="0.2" d="M44.5991 46.0434C44.5991 46.0434 43.8557 30.3534 28.8163 30.5194C13.7768 30.6853 10.7968 39.9838 14.4604 47.1517C15.4312 52.8612 16.0606 58.6235 16.3453 64.408C16.5975 72.3724 13.2259 79.1687 26.1814 80.0448C39.1368 80.9209 46.1721 77.7285 46.5106 76.0626C46.849 74.3967 45.2429 52.5078 44.5991 46.0434Z" fill="white"/>
<path d="M47.7459 65.523L26.3415 67.3748C25.8371 59.4103 25.3327 54.2866 20.6204 40.1099C20.2089 38.8666 19.7664 37.5392 19.293 36.1277C22.196 35.2041 25.1615 34.4899 28.1667 33.9906C31.3424 33.4272 34.5538 33.0879 37.7771 32.9751C41.9451 32.9751 46.7238 33.4131 46.7238 33.4131C46.7238 33.4131 47.3875 33.5724 47.8322 37.986C48.2237 42.1674 48.602 50.4504 47.7459 65.523Z" fill="#263238"/>
<path opacity="0.2" d="M47.7459 65.5227L26.3481 67.3745C26.1286 61.9134 25.3277 56.4913 23.9588 51.2001C23.4079 49.0629 22.7177 46.6603 21.8416 43.8993C21.4699 42.7179 21.0651 41.4702 20.6204 40.1361C20.1757 38.8021 19.7708 37.5743 19.293 36.1539C22.1979 35.2275 25.1656 34.511 28.1733 34.0102C31.3489 33.4462 34.5603 33.1068 37.7837 32.9947C41.9451 32.9615 46.7304 33.4328 46.7304 33.4328C46.7304 33.4328 47.3941 33.5987 47.8388 38.0057C48.2237 42.1604 48.6087 50.4501 47.7459 65.5227Z" fill="white"/>
<path d="M26.6869 91.917L15.7026 89.6604L23.0034 68.3689L20.541 55.4399L19.1074 47.6879L17.05 36.8961C17.05 36.8961 22.5122 34.0223 26.282 33.8696C26.2489 33.8696 32.1624 55.3006 26.6869 91.917Z" fill="#1C2D5E"/>
<path d="M40.1182 32.2251C40.1182 32.2251 44.1667 48.4393 46.0915 59.3705C48.0162 70.3017 49.1777 88.0491 49.1777 88.0491L52.9276 86.1907L49.1777 66.3195C49.1777 66.3195 50.2529 38.079 47.4853 32.9021L40.1182 32.2251Z" fill="#1C2D5E"/>
<path d="M40.1182 32.2245C40.1182 32.2245 48.0826 44.4234 49.3303 60.1332L49.994 56.589C49.994 56.589 49.41 43.2021 42.2022 31.9524L40.1182 32.2245Z" fill="#263238"/>
<path opacity="0.1" d="M40.1182 32.2245C40.1182 32.2245 48.0826 44.4234 49.3303 60.1332L49.994 56.589C49.994 56.589 49.41 43.2021 42.2022 31.9524L40.1182 32.2245Z" fill="white"/>
<path d="M26.2485 32.8883C26.2485 32.8883 27.4033 53.1312 22.0804 63.485L21.2773 61.9717C21.2773 61.9717 25.5051 50.0981 23.1423 33.8706L26.2485 32.8883Z" fill="#263238"/>
<path opacity="0.1" d="M26.2485 32.8883C26.2485 32.8883 27.4033 53.1312 22.0804 63.485L21.2773 61.9717C21.2773 61.9717 25.5051 50.0981 23.1423 33.8706L26.2485 32.8883Z" fill="white"/>
<path d="M42.0324 40.183C42.0324 40.183 42.8089 32.3049 42.4837 31.2231C42.1585 30.1412 26.7805 30.181 24.3248 32.2252C21.8691 34.2694 27.7362 42.0414 27.7362 42.0414C27.7362 42.0414 28.1544 34.9332 28.3535 34.4686C28.5526 34.004 36.7095 33.0947 37.9772 33.4531C39.2448 33.8115 42.0324 40.183 42.0324 40.183Z" fill="#1C2D5E"/>
<path opacity="0.2" d="M42.0324 40.183C42.0324 40.183 42.8089 32.3049 42.4837 31.2231C42.1585 30.1412 26.7805 30.181 24.3248 32.2252C21.8691 34.2694 27.7362 42.0414 27.7362 42.0414C27.7362 42.0414 28.1544 34.9332 28.3535 34.4686C28.5526 34.004 36.7095 33.0947 37.9772 33.4531C39.2448 33.8115 42.0324 40.183 42.0324 40.183Z" fill="black"/>
<path d="M36.0121 37.7328C30.7025 37.0691 29.1494 34.7993 29.1494 34.7993C31.3064 32.7683 30.9149 29.7684 30.364 27.8968C30.1928 27.3035 29.9708 26.7262 29.7003 26.1711L36.0519 27.3592C35.9055 28.2369 35.8235 29.1242 35.8063 30.014C35.7827 30.6826 35.8429 31.3515 35.9855 32.0051C36.417 33.9033 37.4988 33.9298 37.4988 33.9298C38.6271 36.0072 36.0121 37.7328 36.0121 37.7328Z" fill="#E4897B"/>
<path opacity="0.2" d="M35.8186 30.0339C35.7949 30.7025 35.8551 31.3714 35.9977 32.0251C33.4757 31.6932 31.5642 29.6756 30.3629 27.9234C30.1918 27.3301 29.9697 26.7528 29.6992 26.1978L36.0508 27.3858C35.9092 28.2617 35.8316 29.1468 35.8186 30.0339V30.0339Z" fill="black"/>
<path d="M40.6836 17.3446C40.6836 17.3446 41.8118 14.0991 39.0309 10.0438C36.25 5.98863 30.4028 5.10591 26.1949 10.0438C26.1949 10.0438 23.9052 10.1832 22.5247 14.1256C21.1442 18.068 22.8034 25.4749 29.3608 26.9882C35.9182 28.5014 40.6836 17.3446 40.6836 17.3446Z" fill="#263238"/>
<path d="M31.7188 10.627C37.1545 9.59824 39.4509 12.1734 40.9044 17.6954C42.723 24.5979 42.1124 29.861 35.0373 29.642C25.4203 29.3633 22.6858 12.3261 31.7188 10.627Z" fill="#E4897B"/>
<path d="M37.3179 18.061C37.9011 18.7886 38.5695 19.4437 39.3087 20.0121C39.1903 20.2672 39.0037 20.4846 38.7695 20.6404C38.5352 20.7961 38.2626 20.8841 37.9815 20.8947L37.3179 18.061Z" fill="#DE5753"/>
<path d="M33.9154 18.2404C34.0083 18.6851 33.849 19.0965 33.5504 19.1629C33.2518 19.2292 32.9399 18.9173 32.8403 18.4992C32.7408 18.0812 32.9133 17.6432 33.2053 17.5768C33.4973 17.5105 33.8225 17.7958 33.9154 18.2404Z" fill="#263238"/>
<path d="M33.0835 17.6032L33.9727 17.0126C33.9727 17.0126 33.6608 17.9284 33.0835 17.6032Z" fill="#263238"/>
<path d="M39.4154 16.9725C39.5083 17.4171 39.3424 17.8285 39.0504 17.8883C38.7584 17.948 38.4399 17.6427 38.3403 17.2247C38.2408 16.8066 38.4133 16.3752 38.7053 16.3089C38.9973 16.2425 39.3225 16.5279 39.4154 16.9725Z" fill="#263238"/>
<path d="M38.5869 16.3286L39.4762 15.7446C39.4762 15.7446 39.1643 16.6604 38.5869 16.3286Z" fill="#263238"/>
<path d="M33.1524 14.5032C32.7131 14.5306 32.286 14.6585 31.904 14.8771C31.522 15.0957 31.1954 15.3992 30.9492 15.764" stroke="#263238" stroke-width="0.707962" stroke-linecap="round" stroke-linejoin="round"/>
<path d="M37.0273 13.5285C37.3806 13.3644 37.7664 13.2821 38.156 13.2879C38.5455 13.2936 38.9287 13.3872 39.277 13.5617" stroke="#263238" stroke-width="0.707962" stroke-linecap="round" stroke-linejoin="round"/>
<path d="M27.5016 20.9016C27.5016 20.9016 29.194 15.957 28.1653 12.5854C28.1653 12.5854 38.1208 6.15414 40.6894 16.9791C40.6894 16.9791 39.9128 7.08332 30.5347 8.62975C21.1566 10.1762 23.7517 23.8285 29.36 26.9877C29.36 26.9877 26.453 23.9878 27.5016 20.9016Z" fill="#263238"/>
<path d="M28.6024 21.8773C28.4288 21.2596 28.0185 20.7354 27.4605 20.4185C26.9026 20.1017 26.2422 20.0178 25.6228 20.1851C23.977 20.6894 23.831 24.2928 28.1711 24.3327C28.7949 24.3327 29.0205 23.6691 28.6024 21.8773Z" fill="#E4897B"/>
<path d="M40.8883 21.3196C40.8883 21.3196 40.0986 21.6049 40.1185 22.2088C40.1318 22.6402 41.5718 22.7663 40.8883 21.3196Z" fill="#263238"/>
<path d="M28.16 12.5853C28.16 12.5853 33.4697 10.2491 37.7837 14.5034C37.7837 14.5034 35.3015 9.9836 28.8171 11.6296C28.8171 11.6296 27.6224 11.9017 28.16 12.5853Z" fill="#263238"/>
<path d="M28.1587 12.5852C28.7229 13.514 29.0896 14.5492 29.2357 15.626C29.3819 16.7029 29.3045 17.7983 29.0082 18.8439" stroke="#263238" stroke-width="0.5" stroke-linecap="round" stroke-linejoin="round"/>
<path d="M42.5296 21.8637L40.8704 21.1204L39.543 24.0274L41.2022 24.7707C41.4238 24.8682 41.6224 25.0115 41.7848 25.191C41.9472 25.3706 42.0698 25.5825 42.1447 25.8127V25.8127C42.2195 26.043 42.3422 26.2549 42.5046 26.4344C42.667 26.614 42.8655 26.7572 43.0871 26.8547L56.3612 32.8281C56.4714 32.8778 56.5903 32.9052 56.7111 32.9088C56.832 32.9123 56.9523 32.8919 57.0652 32.8487C57.1781 32.8055 57.2814 32.7404 57.369 32.6571C57.4566 32.5739 57.5269 32.474 57.5758 32.3635L59.0558 29.045C59.1055 28.9348 59.133 28.8158 59.1365 28.695C59.1401 28.5742 59.1197 28.4538 59.0765 28.3409C59.0333 28.228 58.9682 28.1248 58.8849 28.0371C58.8016 27.9495 58.7018 27.8793 58.5912 27.8304L45.2774 21.8571C45.057 21.7588 44.8184 21.708 44.5771 21.708C44.3359 21.708 44.0973 21.7588 43.8769 21.8571V21.8571C43.6638 21.9467 43.4351 21.9934 43.2039 21.9945C42.9728 21.9957 42.7436 21.9512 42.5296 21.8637V21.8637Z" fill="#1C2D5E"/>
<path opacity="0.7" d="M49.5184 23.7424L45.3371 21.8708C45.1167 21.7725 44.8782 21.7217 44.6369 21.7217C44.3956 21.7217 44.157 21.7725 43.9367 21.8708C43.7148 21.9676 43.4753 22.0176 43.2331 22.0176C42.991 22.0176 42.7515 21.9676 42.5296 21.8708L40.8704 21.1274L39.543 24.0345L41.2022 24.7778C41.4238 24.8753 41.6224 25.0186 41.7848 25.1981C41.9472 25.3777 42.0698 25.5896 42.1447 25.8198C42.2195 26.0501 42.3422 26.2619 42.5046 26.4415C42.667 26.6211 42.8655 26.7643 43.0871 26.8618L47.2618 28.7335L49.5184 23.7424Z" fill="white"/>
<path opacity="0.7" d="M52.5117 31.0633L56.4209 32.8089C56.5311 32.8586 56.65 32.886 56.7709 32.8896C56.8917 32.8931 57.0121 32.8727 57.125 32.8295C57.2379 32.7864 57.3411 32.7212 57.4287 32.638C57.5164 32.5547 57.5866 32.4549 57.6355 32.3443L59.1155 29.0258C59.2142 28.803 59.2207 28.5503 59.1336 28.3227C59.0466 28.0952 58.8731 27.9113 58.651 27.8112L54.7418 26.0657L52.5117 31.0633Z" fill="white"/>
<path opacity="0.2" d="M20.5457 55.4409L19.1055 47.6888L20.2869 46.5273C20.2869 46.5273 22.424 50.8812 20.5457 55.4409Z" fill="black"/>
<path d="M17.8867 55.3546L21.2782 53.0449C21.2782 53.0449 24.9751 46.5273 26.2494 46.5273C27.5237 46.5273 28.2405 52.4077 28.0414 52.8391C27.8422 53.2706 24.4175 56.2838 23.7538 56.2439L19.7119 59.7881L17.8867 55.3546Z" fill="#E4897B"/>
<path d="M17.0164 36.8977C14.116 37.0902 2.96585 61.229 5.32863 67.2488C7.69141 73.2686 21.9743 59.5897 21.9743 59.5897L20.169 53.4504L15.7023 56.0057C17.0054 53.9846 18.4399 52.0512 19.9964 50.2182C19.9964 50.2182 20.6203 45.2006 19.9964 41.5237C19.3726 37.8468 17.0164 36.8977 17.0164 36.8977Z" fill="#1C2D5E"/>
<path opacity="0.1" d="M17.0164 36.8977C14.116 37.0902 2.96585 61.229 5.32863 67.2488C7.69141 73.2686 21.9743 59.5897 21.9743 59.5897L20.169 53.4504L15.7023 56.0057C17.0054 53.9846 18.4399 52.0512 19.9964 50.2182C19.9964 50.2182 20.6203 45.2006 19.9964 41.5237C19.3726 37.8468 17.0164 36.8977 17.0164 36.8977Z" fill="black"/>
</g>
<defs>
<linearGradient id="paint0_linear_2843_1887" x1="32.2031" y1="0.263184" x2="32.2031" y2="64.2632" gradientUnits="userSpaceOnUse">
<stop stop-color="#D7EB36"/>
<stop offset="1" stop-color="#CCE124"/>
</linearGradient>
</defs>
</svg>
