<svg width="16" height="17" viewBox="0 0 16 17" fill="none" xmlns="http://www.w3.org/2000/svg">
<path fill-rule="evenodd" clip-rule="evenodd" d="M8 16.2856C12.4183 16.2856 16 12.7039 16 8.28564C16 3.86737 12.4183 0.285645 8 0.285645C3.58172 0.285645 0 3.86737 0 8.28564C0 12.7039 3.58172 16.2856 8 16.2856ZM6.70711 5.57854C6.31658 5.18801 5.68342 5.18801 5.29289 5.57854C4.90237 5.96906 4.90237 6.60223 5.29289 6.99275L6.58579 8.28564L5.29289 9.57854C4.90237 9.96906 4.90237 10.6022 5.29289 10.9928C5.68342 11.3833 6.31658 11.3833 6.70711 10.9928L8 9.69986L9.29289 10.9928C9.68342 11.3833 10.3166 11.3833 10.7071 10.9928C11.0976 10.6022 11.0976 9.96906 10.7071 9.57854L9.41421 8.28564L10.7071 6.99275C11.0976 6.60223 11.0976 5.96906 10.7071 5.57854C10.3166 5.18801 9.68342 5.18801 9.29289 5.57854L8 6.87143L6.70711 5.57854Z" fill="#F87171"/>
</svg>
