<svg width="16" height="17" viewBox="0 0 16 17" fill="none" xmlns="http://www.w3.org/2000/svg">
<path fill-rule="evenodd" clip-rule="evenodd" d="M8 16.4286C12.4183 16.4286 16 12.8469 16 8.42859C16 4.01031 12.4183 0.428589 8 0.428589C3.58172 0.428589 0 4.01031 0 8.42859C0 12.8469 3.58172 16.4286 8 16.4286ZM11.7071 7.1357C12.0976 6.74517 12.0976 6.11201 11.7071 5.72148C11.3166 5.33096 10.6834 5.33096 10.2929 5.72148L7 9.01437L5.70711 7.72148C5.31658 7.33096 4.68342 7.33096 4.29289 7.72148C3.90237 8.11201 3.90237 8.74517 4.29289 9.1357L6.29289 11.1357C6.68342 11.5262 7.31658 11.5262 7.70711 11.1357L11.7071 7.1357Z" fill="#34D399"/>
</svg>