<svg width="16" height="17" viewBox="0 0 16 17" fill="none" xmlns="http://www.w3.org/2000/svg">
<path fill-rule="evenodd" clip-rule="evenodd" d="M8 16.2858C12.4183 16.2858 16 12.704 16 8.28577C16 3.86749 12.4183 0.285767 8 0.285767C3.58172 0.285767 0 3.86749 0 8.28577C0 12.704 3.58172 16.2858 8 16.2858ZM9 4.28577C9 3.73348 8.55229 3.28577 8 3.28577C7.44772 3.28577 7 3.73348 7 4.28577V8.28577C7 8.55098 7.10536 8.80534 7.29289 8.99287L10.1213 11.8213C10.5118 12.2118 11.145 12.2118 11.5355 11.8213C11.9261 11.4308 11.9261 10.7976 11.5355 10.4071L9 7.87155V4.28577Z" fill="#FBBF24"/>
</svg>
