<svg width="225" height="245" viewBox="0 0 225 245" fill="none" xmlns="http://www.w3.org/2000/svg">
<path d="M89.7714 202.625C80.7624 211.289 89.2514 193.577 105.651 179.797C122.05 166.017 105.911 156.969 86.8984 170.749C67.8859 184.529 81.4319 166.563 95.3484 153.797C109.265 141.031 97.2009 130.163 77.2719 143.397C57.3429 156.631 97.9614 115.395 68.0679 112.002C44.3104 109.304 73.2094 154.297 52.1689 142.974C31.1284 131.651 24.1474 141.024 37.3619 153.823C50.5764 166.621 63.1084 184.542 44.8694 170.775C26.6304 157.008 9.97744 166.049 25.6034 179.823C41.2294 193.596 41.8079 204.874 33.2734 196.209C24.7389 187.545 17.3614 187.493 19.2789 199.505C19.7469 202.488 21.4109 205.511 24.0564 208.377C24.8064 209.115 25.7 209.691 26.6817 210.068C27.6635 210.446 28.7124 210.619 29.7634 210.574H105.547C108.152 207.352 109.974 203.57 110.87 199.524C113.431 187.467 98.7869 193.967 89.7714 202.625Z" fill="#FF5C8A"/>
<path opacity="0.8" d="M89.7714 202.625C80.7624 211.289 89.2514 193.577 105.651 179.797C122.05 166.017 105.911 156.969 86.8984 170.749C67.8859 184.529 81.4319 166.563 95.3484 153.797C109.265 141.031 97.2009 130.163 77.2719 143.397C57.3429 156.631 97.9614 115.395 68.0679 112.002C44.3104 109.304 73.2094 154.297 52.1689 142.974C31.1284 131.651 24.1474 141.024 37.3619 153.823C50.5764 166.621 63.1084 184.542 44.8694 170.775C26.6304 157.008 9.97744 166.049 25.6034 179.823C41.2294 193.596 41.8079 204.874 33.2734 196.209C24.7389 187.545 17.3614 187.493 19.2789 199.505C19.7469 202.488 21.4109 205.511 24.0564 208.377C24.8064 209.115 25.7 209.691 26.6817 210.068C27.6635 210.446 28.7124 210.619 29.7634 210.574H105.547C108.152 207.352 109.974 203.57 110.87 199.524C113.431 187.467 98.7869 193.967 89.7714 202.625Z" fill="white"/>
<path d="M224.243 205.42C223.82 197.49 214.408 201.78 209.52 207.493C204.632 213.207 207.408 201.52 216.67 192.426C225.933 183.333 212.478 177.359 201.311 186.453C190.144 195.546 196.533 183.69 204.203 175.266C211.873 166.842 201.012 159.666 189.071 168.389C177.131 177.112 198.724 149.903 176.357 147.661C158.58 145.88 188.213 175.578 170.754 168.11C153.295 160.641 150.026 166.81 162.083 175.26C174.141 183.71 186.673 195.533 170.787 186.446C154.901 177.359 144.533 183.333 158.528 192.42C172.522 201.507 175.103 208.956 167.244 203.236C159.386 197.516 154.017 197.483 157.709 205.413C158.625 207.363 160.413 209.372 162.909 211.263C164.229 212.225 165.825 212.736 167.459 212.719H222.501C223.79 210.512 224.396 207.972 224.243 205.42Z" fill="#FF5C8A"/>
<path opacity="0.7" d="M224.243 205.42C223.82 197.49 214.408 201.78 209.52 207.493C204.632 213.207 207.408 201.52 216.67 192.426C225.933 183.333 212.478 177.359 201.311 186.453C190.144 195.546 196.533 183.69 204.203 175.266C211.873 166.842 201.012 159.666 189.071 168.389C177.131 177.112 198.724 149.903 176.357 147.661C158.58 145.88 188.213 175.578 170.754 168.11C153.295 160.641 150.026 166.81 162.083 175.26C174.141 183.71 186.673 195.533 170.787 186.446C154.901 177.359 144.533 183.333 158.528 192.42C172.522 201.507 175.103 208.956 167.244 203.236C159.386 197.516 154.017 197.483 157.709 205.413C158.625 207.363 160.413 209.372 162.909 211.263C164.229 212.225 165.825 212.736 167.459 212.719H222.501C223.79 210.512 224.396 207.972 224.243 205.42Z" fill="white"/>
<path d="M134.193 216.717L143.404 117.767H154.33L156.391 216.717H134.193Z" fill="#FF5C8A"/>
<path d="M152.236 157.319C160.302 155.655 170.481 139.262 170.481 139.262C170.481 139.262 171.827 139.002 173.367 140.562C171.32 147.602 151.469 174.109 151.469 174.109L152.236 157.319Z" fill="#FF5C8A"/>
<path d="M143.766 133.1C137.481 133.1 131.683 123.63 131.683 123.63C131.295 123.561 130.897 123.584 130.52 123.697C130.143 123.809 129.798 124.009 129.512 124.28C130.363 129.48 142.869 145.132 142.869 145.132L143.766 133.1Z" fill="#FF5C8A"/>
<path opacity="0.1" d="M129.512 124.293C130.74 123.331 131.052 123.604 131.052 123.604C131.052 123.604 135.245 134.004 141.693 134.368L143.402 117.761L149.675 121.011L150.975 190.171L153.159 216.723H143.539L144.839 184.431L142.161 187.863L137.611 216.723H134.237L140.893 142.565C137.279 137.911 130.149 128.161 129.512 124.293Z" fill="black"/>
<path d="M154.687 126.269C155.336 123.338 159.093 121.674 163.065 122.558C163.881 122.737 164.67 123.023 165.411 123.409C166.531 122.712 167.781 122.248 169.084 122.046C170.388 121.844 171.719 121.908 172.997 122.233C175.227 122.687 177.244 123.869 178.73 125.593C180.129 125.437 181.543 125.516 182.916 125.827C188.116 126.991 191.678 131.066 190.82 134.927C189.962 138.788 185.028 140.979 179.802 139.815C179.406 139.731 179.022 139.62 178.645 139.503C176.624 142.688 171.781 144.287 166.705 143.156C160.64 141.811 156.539 137.085 157.534 132.6C157.58 132.38 157.639 132.163 157.709 131.95C155.486 130.579 154.219 128.388 154.687 126.269Z" fill="#FF5C8A"/>
<path opacity="0.4" d="M154.687 126.269C155.336 123.338 159.093 121.674 163.065 122.558C163.881 122.737 164.67 123.023 165.411 123.409C166.531 122.712 167.781 122.248 169.084 122.046C170.388 121.844 171.719 121.908 172.997 122.233C175.227 122.687 177.244 123.869 178.73 125.593C180.129 125.437 181.543 125.516 182.916 125.827C188.116 126.991 191.678 131.066 190.82 134.927C189.962 138.788 185.028 140.979 179.802 139.815C179.406 139.731 179.022 139.62 178.645 139.503C176.624 142.688 171.781 144.287 166.705 143.156C160.64 141.811 156.539 137.085 157.534 132.6C157.58 132.38 157.639 132.163 157.709 131.95C155.486 130.579 154.219 128.388 154.687 126.269Z" fill="black"/>
<path d="M124.404 119.867C124.619 119.867 124.82 119.867 125.054 119.899C125.704 118.073 127.96 116.727 130.638 116.727C133.829 116.727 136.423 118.638 136.423 121.004C136.429 121.114 136.429 121.225 136.423 121.336C137.723 121.791 138.581 122.746 138.581 123.864C138.581 125.411 136.884 126.666 134.791 126.666C134.353 126.668 133.916 126.614 133.491 126.503C133.006 126.976 132.429 127.347 131.797 127.593C131.165 127.839 130.49 127.954 129.812 127.933C128.643 127.954 127.499 127.586 126.562 126.887C125.878 127.12 125.16 127.238 124.437 127.238C121.681 127.238 119.451 125.593 119.451 123.552C119.451 121.511 121.648 119.867 124.404 119.867Z" fill="#FF5C8A"/>
<path opacity="0.4" d="M124.404 119.867C124.619 119.867 124.82 119.867 125.054 119.899C125.704 118.073 127.96 116.727 130.638 116.727C133.829 116.727 136.423 118.638 136.423 121.004C136.429 121.114 136.429 121.225 136.423 121.336C137.723 121.791 138.581 122.746 138.581 123.864C138.581 125.411 136.884 126.666 134.791 126.666C134.353 126.668 133.916 126.614 133.491 126.503C133.006 126.976 132.429 127.347 131.797 127.593C131.165 127.839 130.49 127.954 129.812 127.933C128.643 127.954 127.499 127.586 126.562 126.887C125.878 127.12 125.16 127.238 124.437 127.238C121.681 127.238 119.451 125.593 119.451 123.552C119.451 121.511 121.648 119.867 124.404 119.867Z" fill="black"/>
<path d="M193.986 120.361C194.636 113.061 186.517 106.1 175.916 104.8C175.11 104.702 174.317 104.644 173.53 104.618C171.58 97.7666 163.293 91.8841 152.99 90.6296C149.15 90.1288 145.249 90.3805 141.505 91.3706C140.855 90.8636 140.166 90.3696 139.444 89.9016C130.76 84.3246 120.406 84.5066 116.324 90.3111C112.723 95.4201 115.193 103.194 121.758 108.784C120.947 109.86 120.452 111.141 120.328 112.483C119.86 118.034 126.009 123.325 134.069 124.313C135.718 124.511 137.385 124.511 139.035 124.313C141.856 127.79 146.867 130.462 152.743 131.177C157.69 131.781 162.266 130.878 165.594 128.954C168.152 130.12 170.875 130.883 173.667 131.216C184.281 132.548 193.381 127.68 193.986 120.361Z" fill="#FF5C8A"/>
<path opacity="0.2" d="M193.986 120.361C194.636 113.061 186.517 106.1 175.916 104.8C175.11 104.702 174.317 104.644 173.53 104.618C171.58 97.7666 163.293 91.8841 152.99 90.6296C149.15 90.1288 145.249 90.3805 141.505 91.3706C140.855 90.8636 140.166 90.3696 139.444 89.9016C130.76 84.3246 120.406 84.5066 116.324 90.3111C112.723 95.4201 115.193 103.194 121.758 108.784C120.947 109.86 120.452 111.141 120.328 112.483C119.86 118.034 126.009 123.325 134.069 124.313C135.718 124.511 137.385 124.511 139.035 124.313C141.856 127.79 146.867 130.462 152.743 131.177C157.69 131.781 162.266 130.878 165.594 128.954C168.152 130.12 170.875 130.883 173.667 131.216C184.281 132.548 193.381 127.68 193.986 120.361Z" fill="black"/>
<path d="M129.032 91.481C129.032 91.481 126.705 95.2119 129.682 97.1424C131.95 95.1924 129.032 91.481 129.032 91.481Z" fill="#FF5C8A"/>
<path d="M113.432 99.4762C113.432 99.4762 115.863 103.142 118.846 101.251C117.982 98.3842 113.432 99.4762 113.432 99.4762Z" fill="#FF5C8A"/>
<path d="M168.832 94.2563C168.832 94.2563 171.62 97.6688 168.929 99.9568C166.44 98.3123 168.832 94.2563 168.832 94.2563Z" fill="#FF5C8A"/>
<path d="M147.036 92.3521C147.036 92.3521 146.133 95.9595 149.019 96.7395C150.325 94.588 147.036 92.3521 147.036 92.3521Z" fill="#FF5C8A"/>
<path d="M180.082 112.957C180.082 112.957 177.56 110.221 175.324 112.203C176.41 114.511 180.082 112.957 180.082 112.957Z" fill="#FF5C8A"/>
<path d="M141.934 102.57C141.934 102.57 140.887 106.145 143.734 107.042C145.132 104.936 141.934 102.57 141.934 102.57Z" fill="#FF5C8A"/>
<path d="M146.959 116.396C146.959 116.396 145.561 119.847 148.311 121.024C149.903 119.061 146.959 116.396 146.959 116.396Z" fill="#FF5C8A"/>
<path d="M158.963 105.092C158.963 105.092 155.473 103.792 154.381 106.581C156.383 108.121 158.963 105.092 158.963 105.092Z" fill="#FF5C8A"/>
<path d="M195.643 116.402C195.643 116.402 192.698 114.127 190.826 116.454C192.276 118.515 195.643 116.402 195.643 116.402Z" fill="#FF5C8A"/>
<path d="M180.882 128.537C180.882 128.537 180.824 124.819 177.834 124.813C177.132 127.231 180.882 128.537 180.882 128.537Z" fill="#FF5C8A"/>
<path d="M165.684 116.617C165.684 116.617 161.96 116.727 161.992 119.711C164.417 120.393 165.684 116.617 165.684 116.617Z" fill="#FF5C8A"/>
<path d="M131.326 111.781C131.326 111.781 131.547 115.499 134.531 115.375C135.135 112.925 131.326 111.781 131.326 111.781Z" fill="#FF5C8A"/>
<path opacity="0.5" d="M195.643 116.402C194.892 115.851 194.008 115.51 193.082 115.414C190.703 110.156 184.053 105.82 175.915 104.826C175.109 104.728 174.316 104.67 173.53 104.644C172.824 102.363 171.588 100.283 169.922 98.5725C170.663 96.499 168.83 94.2565 168.83 94.2565C168.404 95.0198 168.091 95.8408 167.901 96.694C163.59 93.3319 158.426 91.2405 152.99 90.6555C149.15 90.1547 145.249 90.4064 141.504 91.3965C140.854 90.8895 140.165 90.3955 139.444 89.9275C130.76 84.3505 120.405 84.5325 116.323 90.337C114.542 92.859 114.25 96.0375 115.192 99.2745C114.596 99.2833 114.001 99.3508 113.418 99.476C114.084 100.437 115.014 101.184 116.096 101.628C117.458 104.392 119.387 106.84 121.757 108.81C120.947 109.886 120.451 111.167 120.327 112.509C120.1 115.187 121.419 117.8 123.74 119.899C121.302 120.14 119.417 121.68 119.417 123.552C119.417 125.587 121.647 127.238 124.403 127.238C125.126 127.238 125.844 127.12 126.528 126.887C127.466 127.586 128.609 127.954 129.778 127.933C130.151 127.934 130.523 127.901 130.89 127.836L131.052 128.148V128.193C131.169 128.414 131.293 128.635 131.416 128.843L131.533 129.051L131.852 129.61L131.969 129.805C132.112 130.059 132.261 130.306 132.417 130.559L132.469 130.637C132.606 130.871 132.755 131.105 132.898 131.339L133.035 131.554L133.425 132.165C133.47 132.23 133.509 132.295 133.548 132.36L134.068 133.153L134.133 133.244L134.601 133.952L134.757 134.18L135.173 134.791L135.31 134.992L135.856 135.779L135.934 135.889L136.408 136.539L136.564 136.76L136.993 137.365L137.117 137.534L137.656 138.281L137.754 138.418C137.903 138.619 138.046 138.821 138.196 139.016L138.352 139.23L138.735 139.75L138.872 139.939L139.359 140.589L139.47 140.738L139.84 141.232L139.983 141.421L140.315 141.863C140.36 141.915 140.399 141.973 140.438 142.025C140.568 142.194 140.698 142.357 140.815 142.519L134.192 216.717H156.389L155.388 168.76C160.426 161.824 168.902 149.832 172.178 143.338C175.018 142.864 177.378 141.492 178.645 139.503C179.022 139.62 179.406 139.731 179.802 139.815C185.002 140.979 189.962 138.795 190.82 134.927C191.32 132.678 190.319 130.377 188.369 128.583C191.619 126.633 193.699 123.76 193.985 120.387C194.074 119.321 193.982 118.249 193.712 117.215C194.391 117.036 195.041 116.763 195.643 116.402ZM142.408 127.452L141.849 132.854C138.599 131.937 135.674 128.954 133.795 126.594C134.106 126.657 134.421 126.69 134.738 126.692C136.584 126.692 138.118 125.717 138.456 124.43L139.034 124.378C140.009 125.548 141.145 126.575 142.408 127.426V127.452ZM155.128 156.202L154.608 131.398C155.382 131.437 156.136 131.43 156.87 131.398C157.139 131.614 157.419 131.815 157.709 132.002C157.639 132.215 157.58 132.432 157.533 132.652C156.539 137.137 160.64 141.863 166.705 143.208C167.043 143.286 167.355 143.345 167.712 143.397C164.742 147.459 159.828 153.556 155.128 156.176V156.202Z" fill="white"/>
<path d="M129.818 36.2959C129.818 36.2959 133.185 41.3205 137.267 38.6945C136.097 34.7684 129.818 36.2959 129.818 36.2959Z" fill="#FF5C8A"/>
<path d="M29.0039 214.155L41.8609 75.9849H57.1229L59.9959 214.155H29.0039Z" fill="#FF5C8A"/>
<path d="M54.1969 131.215C65.4614 128.888 79.6769 106.002 79.6769 106.002C79.6769 106.002 81.5554 105.644 83.7004 107.789C80.8404 117.624 53.1504 154.635 53.1504 154.635L54.1969 131.215Z" fill="#FF5C8A"/>
<path d="M42.3737 97.4025C33.5987 97.435 25.4737 84.175 25.4737 84.175C25.4737 84.175 24.1737 83.759 22.4512 85.1045C23.6407 92.3715 41.0932 114.218 41.0932 114.218L42.3737 97.4025Z" fill="#FF5C8A"/>
<path opacity="0.1" d="M22.4707 85.1044C24.1867 83.7589 24.6222 84.1359 24.6222 84.1359C24.6222 84.1359 30.4722 98.6959 39.4747 99.1639L41.8602 75.9849L50.6287 80.5349L52.4227 177.105L55.4777 214.188H42.0552L43.8427 169.091L40.1052 173.894L33.7092 214.194H29.0032L38.2982 110.61C33.3127 104.11 23.3612 90.5319 22.4707 85.1044Z" fill="black"/>
<path d="M57.6225 87.8607C58.539 83.7592 63.7715 81.4322 69.3225 82.6607C70.4517 82.9183 71.5438 83.318 72.5725 83.8502C75.2115 82.0302 79.1115 81.3152 83.161 82.2122C86.2779 82.8426 89.0957 84.494 91.169 86.9052C93.1235 86.6862 95.1008 86.7961 97.019 87.2302C104.312 88.8552 109.258 94.5427 108.069 99.9377C106.879 105.333 99.9765 108.388 92.6835 106.763C92.1369 106.645 91.5967 106.5 91.065 106.327C88.244 110.773 81.484 113.009 74.3925 111.43C65.9425 109.545 60.1965 102.98 61.5875 96.6877C61.6525 96.3887 61.7435 96.0962 61.8345 95.8102C58.734 93.8797 56.966 90.8182 57.6225 87.8607Z" fill="#FF5C8A"/>
<path opacity="0.4" d="M57.6225 87.8607C58.539 83.7592 63.7715 81.4322 69.3225 82.6607C70.4517 82.9183 71.5438 83.318 72.5725 83.8502C75.2115 82.0302 79.1115 81.3152 83.161 82.2122C86.2779 82.8426 89.0957 84.494 91.169 86.9052C93.1235 86.6862 95.1008 86.7961 97.019 87.2302C104.312 88.8552 109.258 94.5427 108.069 99.9377C106.879 105.333 99.9765 108.388 92.6835 106.763C92.1369 106.645 91.5967 106.5 91.065 106.327C88.244 110.773 81.484 113.009 74.3925 111.43C65.9425 109.545 60.1965 102.98 61.5875 96.6877C61.6525 96.3887 61.7435 96.0962 61.8345 95.8102C58.734 93.8797 56.966 90.8182 57.6225 87.8607Z" fill="black"/>
<path d="M15.3339 78.9166C15.6329 78.9166 15.9189 78.9166 16.2049 78.9621C17.1279 76.4141 20.2609 74.5356 24.0049 74.5356C28.4704 74.5356 32.0844 77.2071 32.0844 80.5026C32.0835 80.6592 32.0727 80.8155 32.0519 80.9706C33.8329 81.6206 35.0679 82.9206 35.0679 84.5001C35.0679 86.6646 32.6954 88.4001 29.7704 88.4001C29.1691 88.4002 28.5703 88.3215 27.9894 88.1661C27.3152 88.8309 26.513 89.3517 25.6314 89.697C24.7498 90.0423 23.8072 90.2048 22.8609 90.1746C21.2229 90.2061 19.6213 89.6891 18.3109 88.7056C17.3563 89.0396 16.3518 89.2088 15.3404 89.2061C11.4989 89.2061 8.37891 86.8986 8.37891 84.0516C8.37891 81.2046 11.4924 78.9166 15.3339 78.9166Z" fill="#FF5C8A"/>
<path opacity="0.4" d="M15.3339 78.9166C15.6329 78.9166 15.9189 78.9166 16.2049 78.9621C17.1279 76.4141 20.2609 74.5356 24.0049 74.5356C28.4704 74.5356 32.0844 77.2071 32.0844 80.5026C32.0835 80.6592 32.0727 80.8155 32.0519 80.9706C33.8329 81.6206 35.0679 82.9206 35.0679 84.5001C35.0679 86.6646 32.6954 88.4001 29.7704 88.4001C29.1691 88.4002 28.5703 88.3215 27.9894 88.1661C27.3152 88.8309 26.513 89.3517 25.6314 89.697C24.7498 90.0423 23.8072 90.2048 22.8609 90.1746C21.2229 90.2061 19.6213 89.6891 18.3109 88.7056C17.3563 89.0396 16.3518 89.2088 15.3404 89.2061C11.4989 89.2061 8.37891 86.8986 8.37891 84.0516C8.37891 81.2046 11.4924 78.9166 15.3339 78.9166Z" fill="black"/>
<path d="M112.496 79.6445C113.367 69.4525 102.096 59.7285 87.2632 57.9215C86.1387 57.785 85.0337 57.7005 83.9352 57.6615C81.1662 48.0935 69.6352 39.8905 55.2507 38.1615C49.8887 37.465 44.4424 37.8183 39.2152 39.2015C38.2987 38.4865 37.3432 37.804 36.3357 37.154C24.2067 29.354 9.75724 29.6075 4.05024 37.7195C-0.967765 44.8695 2.47073 55.705 11.6422 63.518C10.5066 65.0174 9.81514 66.8057 9.64674 68.679C8.99674 76.427 17.5767 83.8175 28.8282 85.1955C31.1316 85.4749 33.4603 85.4749 35.7637 85.1955C39.7092 90.051 46.7032 93.7755 54.9062 94.7765C61.8092 95.6215 68.2052 94.367 72.8462 91.676C76.42 93.3042 80.2242 94.3698 84.1237 94.835C98.9307 96.629 111.632 89.8105 112.496 79.6445Z" fill="#FF5C8A"/>
<path opacity="0.2" d="M112.496 79.6445C113.367 69.4525 102.096 59.7285 87.2632 57.9215C86.1387 57.785 85.0337 57.7005 83.9352 57.6615C81.1662 48.0935 69.6352 39.8905 55.2507 38.1615C49.8887 37.465 44.4424 37.8183 39.2152 39.2015C38.2987 38.4865 37.3432 37.804 36.3357 37.154C24.2067 29.354 9.75724 29.6075 4.05024 37.7195C-0.967765 44.8695 2.47073 55.705 11.6422 63.518C10.5066 65.0174 9.81514 66.8057 9.64674 68.679C8.99674 76.427 17.5767 83.8175 28.8282 85.1955C31.1316 85.4749 33.4603 85.4749 35.7637 85.1955C39.7092 90.051 46.7032 93.7755 54.9062 94.7765C61.8092 95.6215 68.2052 94.367 72.8462 91.676C76.42 93.3042 80.2242 94.3698 84.1237 94.835C98.9307 96.629 111.632 89.8105 112.496 79.6445Z" fill="black"/>
<path d="M21.8329 39.2798C21.8329 39.2798 18.583 44.4798 22.7104 47.1903C25.8694 44.4668 21.8329 39.2798 21.8329 39.2798Z" fill="#FF5C8A"/>
<path d="M0 50.4466C0 50.4466 3.393 55.5686 7.5595 52.9231C6.3895 48.9256 0 50.4466 0 50.4466Z" fill="#FF5C8A"/>
<path d="M77.3691 43.1602C77.3691 43.1602 81.2691 47.9247 77.5056 51.1227C74.0281 48.8217 77.3691 43.1602 77.3691 43.1602Z" fill="#FF5C8A"/>
<path d="M46.937 40.4951C46.937 40.4951 45.6825 45.5391 49.706 46.6311C51.5325 43.6216 46.937 40.4951 46.937 40.4951Z" fill="#FF5C8A"/>
<path d="M93.087 69.2705C93.087 69.2705 89.5575 65.4485 86.4375 68.2175C87.952 71.396 93.087 69.2705 93.087 69.2705Z" fill="#FF5C8A"/>
<path d="M39.8134 54.7754C39.8134 54.7754 38.3509 59.7609 42.3289 61.0089C44.2789 58.0774 39.8134 54.7754 39.8134 54.7754Z" fill="#FF5C8A"/>
<path d="M46.8269 74.0742C46.8269 74.0742 44.8769 78.8907 48.7184 80.5352C50.9479 77.8052 46.8269 74.0742 46.8269 74.0742Z" fill="#FF5C8A"/>
<path d="M63.5959 58.2923C63.5959 58.2923 58.7209 56.4853 57.1934 60.3658C59.9884 62.5108 63.5959 58.2923 63.5959 58.2923Z" fill="#FF5C8A"/>
<path d="M114.81 74.0869C114.81 74.0869 110.702 70.9019 108.082 74.1519C110.104 77.0379 114.81 74.0869 114.81 74.0869Z" fill="#FF5C8A"/>
<path d="M94.1978 91.0325C94.1978 91.0325 94.1133 85.8325 89.9403 85.8325C88.9523 89.206 94.1978 91.0325 94.1978 91.0325Z" fill="#FF5C8A"/>
<path d="M72.9757 74.3862C72.9757 74.3862 67.7757 74.5357 67.8147 78.7022C71.1817 79.6512 72.9757 74.3862 72.9757 74.3862Z" fill="#FF5C8A"/>
<path d="M25.0312 67.626C25.0312 67.626 25.3432 72.826 29.5097 72.6505C30.3157 69.225 25.0312 67.626 25.0312 67.626Z" fill="#FF5C8A"/>
<path opacity="0.3" d="M114.81 74.0871C113.762 73.3122 112.525 72.834 111.228 72.7026C107.913 65.3576 98.6245 59.3061 87.2625 57.9216C86.138 57.7851 85.0331 57.7006 83.9345 57.6616C82.9457 54.4854 81.217 51.5893 78.8905 49.2116C79.9305 46.3191 77.3695 43.1861 77.3695 43.1861C76.7723 44.2519 76.3344 45.3994 76.0695 46.5921C70.8175 42.2956 63.505 39.1626 55.2695 38.1421C49.9075 37.4456 44.4612 37.7988 39.234 39.1821C38.3175 38.4671 37.362 37.7846 36.3545 37.1346C24.2255 29.3346 9.77603 29.5946 4.06903 37.7001C1.59253 41.2231 1.17653 45.6561 2.49604 50.1801C1.66342 50.1927 0.834013 50.2863 0.0195312 50.4596C0.947087 51.8025 2.24586 52.846 3.75703 53.4626C5.65449 57.3187 8.34063 60.7334 11.6415 63.4856C10.5059 64.9849 9.81444 66.7732 9.64604 68.6466C9.32754 72.3841 11.167 76.0306 14.4105 78.9686C11.0045 79.3066 8.37203 81.4581 8.37203 84.0646C8.37203 86.9116 11.492 89.2191 15.3335 89.2191C16.3449 89.2217 17.3494 89.0525 18.304 88.7186C19.6142 89.7024 21.2159 90.2195 22.854 90.1876C23.3751 90.1872 23.8951 90.1393 24.4075 90.0446L24.635 90.4801L24.674 90.5516C24.83 90.8506 25.0055 91.1626 25.1745 91.4746L25.3435 91.767C25.4865 92.0205 25.636 92.2806 25.792 92.5406L25.948 92.8201L26.598 93.8666L26.663 93.9771L27.274 94.9585L27.4625 95.2576C27.638 95.5436 27.82 95.8231 28.002 96.1091L28.1775 96.382L28.9055 97.4871L28.99 97.6171C29.2045 97.9486 29.4255 98.2671 29.64 98.605L29.8545 98.9235L30.4395 99.7815L30.628 100.055L31.3885 101.153L31.499 101.309L32.149 102.258C32.227 102.356 32.2985 102.46 32.37 102.564L32.968 103.402L33.1435 103.643C33.397 103.994 33.644 104.345 33.8975 104.689L34.0275 104.871C34.2355 105.157 34.437 105.437 34.645 105.71L34.866 106.015L35.399 106.743L35.594 107.003L36.244 107.907L36.4 108.115L36.92 108.81L37.1215 109.077L37.583 109.688C37.6415 109.759 37.7 109.837 37.752 109.915L38.2785 110.604L29.003 214.156H59.995L58.604 147.206C65.6305 137.527 77.454 120.783 82.0495 111.716C86.008 111.066 89.3036 109.116 91.0716 106.36C91.5981 106.529 92.1376 106.672 92.69 106.795C99.983 108.42 106.873 105.365 108.076 99.9701C108.778 96.8241 107.38 93.5871 104.657 91.1041C109.161 88.3611 112.099 84.3766 112.496 79.6641C112.618 78.1779 112.49 76.6817 112.119 75.2376C113.064 74.9777 113.969 74.5906 114.81 74.0871ZM40.4755 89.4725L39.6955 97.0125C35.1845 95.7125 31.07 91.5331 28.444 88.2701C28.8717 88.3595 29.3071 88.4074 29.744 88.4131C32.344 88.4131 34.463 87.0546 34.944 85.2541C35.2105 85.2541 35.4835 85.2151 35.75 85.1826C37.1162 86.8271 38.7069 88.2713 40.4755 89.4725ZM58.2335 129.623L57.5315 95.0106C58.604 95.0626 59.657 95.0561 60.6905 95.0106C61.0621 95.315 61.4529 95.595 61.8605 95.8491C61.7695 96.1351 61.6785 96.4276 61.6135 96.7266C60.2225 102.986 65.9555 109.584 74.4185 111.469C74.8865 111.573 75.3545 111.657 75.8225 111.729C71.6625 117.449 64.805 125.957 58.2335 129.623Z" fill="white"/>
<path d="M136.255 66.5249C154.621 66.5249 169.51 51.7503 169.51 33.5249C169.51 15.2995 154.621 0.524902 136.255 0.524902C117.889 0.524902 103 15.2995 103 33.5249C103 51.7503 117.889 66.5249 136.255 66.5249Z" fill="#EE6D66"/>
<g clip-path="url(#clip0_3989_59100)">
<path d="M139.172 34.4486L145.395 28.2C145.69 27.9039 145.856 27.5022 145.857 27.0832C145.857 26.6642 145.692 26.2622 145.397 25.9656C145.102 25.6691 144.702 25.5023 144.285 25.5019C143.867 25.5015 143.467 25.6676 143.172 25.9636L136.949 32.2122L130.726 25.9636C130.43 25.6671 130.03 25.5005 129.612 25.5005C129.194 25.5005 128.794 25.6671 128.498 25.9636C128.203 26.2602 128.037 26.6624 128.037 27.0818C128.037 27.5012 128.203 27.9034 128.498 28.2L134.721 34.4486L128.498 40.6971C128.203 40.9937 128.037 41.3959 128.037 41.8153C128.037 42.2347 128.203 42.6369 128.498 42.9335C128.794 43.23 129.194 43.3966 129.612 43.3966C130.03 43.3966 130.43 43.23 130.726 42.9335L136.949 36.6849L143.172 42.9335C143.467 43.23 143.868 43.3966 144.285 43.3966C144.703 43.3966 145.104 43.23 145.399 42.9335C145.694 42.6369 145.86 42.2347 145.86 41.8153C145.86 41.3959 145.694 40.9937 145.399 40.6971L139.172 34.4486Z" fill="white"/>
</g>
<path d="M113.374 239.005L117.387 238.073L115.818 228.688L111.805 229.619L113.374 239.005Z" fill="#CE7A63"/>
<path d="M117.492 237.558L112.985 238.606C112.908 238.621 112.84 238.665 112.796 238.729C112.751 238.793 112.733 238.872 112.746 238.949L113.328 242.559C113.349 242.652 113.387 242.74 113.442 242.818C113.496 242.897 113.566 242.963 113.646 243.015C113.726 243.066 113.816 243.102 113.91 243.118C114.004 243.135 114.1 243.133 114.193 243.113C115.757 242.725 116.483 242.459 118.468 242.004C119.687 241.721 124.904 240.64 126.584 240.252C128.264 239.864 127.848 238.212 127.1 238.223C123.745 238.295 119.571 238.284 118.229 237.669C118.002 237.552 117.743 237.513 117.492 237.558Z" fill="#263238"/>
<path opacity="0.2" d="M111.805 229.624L115.818 228.688L116.628 233.527L112.609 234.459L111.805 229.624Z" fill="black"/>
<path d="M105.778 136.431C105.778 136.431 111.067 169.888 112.619 181.558C114.321 194.337 117.913 231.714 117.913 231.714L110.64 233.743C110.64 233.743 103.749 197.519 100.91 185.095C97.8277 171.612 91.0918 136.453 91.0918 136.453L105.778 136.431Z" fill="#FF5C8A"/>
<path d="M105.778 136.431C105.778 136.431 111.067 169.888 112.619 181.558C114.321 194.337 117.913 231.714 117.913 231.714L110.64 233.743C110.64 233.743 103.749 197.519 100.91 185.095C97.8277 171.612 91.0918 136.453 91.0918 136.453L105.778 136.431Z" fill="#1C2D5E"/>
<path opacity="0.3" d="M97.1518 148.184C99.9238 155.275 99.7685 169.295 98.5766 174.241C96.9134 166.13 94.9841 156.428 93.5039 148.883C94.0472 146.942 95.4609 143.871 97.1518 148.184Z" fill="black"/>
<path d="M110.456 233.866L118.245 231.72L118.118 228.555L109.342 231.582L110.456 233.866Z" fill="#FF5C8A"/>
<path d="M119.071 237.929C118.706 238.002 118.335 238.038 117.963 238.034C117.943 238.034 117.925 238.028 117.909 238.017C117.893 238.007 117.881 237.991 117.874 237.973C117.866 237.958 117.861 237.941 117.861 237.923C117.861 237.906 117.866 237.889 117.874 237.873C117.985 237.751 118.944 236.715 119.482 236.792C119.542 236.802 119.599 236.827 119.648 236.865C119.696 236.903 119.734 236.952 119.759 237.008C119.811 237.091 119.839 237.188 119.839 237.286C119.839 237.384 119.811 237.48 119.759 237.563C119.581 237.764 119.337 237.894 119.071 237.929ZM118.195 237.834C118.944 237.834 119.471 237.668 119.615 237.441C119.646 237.388 119.662 237.328 119.662 237.266C119.662 237.205 119.646 237.145 119.615 237.092C119.605 237.063 119.587 237.037 119.564 237.017C119.54 236.998 119.512 236.985 119.482 236.981C119.188 236.942 118.595 237.435 118.195 237.834Z" fill="#FF5C8A"/>
<path d="M117.991 238.029H117.946C117.93 238.026 117.916 238.019 117.904 238.008C117.892 237.997 117.884 237.983 117.88 237.968C117.88 237.918 117.514 236.787 117.83 236.305C117.87 236.242 117.924 236.19 117.987 236.152C118.051 236.114 118.122 236.09 118.196 236.083C118.276 236.065 118.361 236.076 118.434 236.114C118.508 236.151 118.567 236.212 118.6 236.288C118.789 236.704 118.379 237.674 118.046 238.007L117.991 238.029ZM118.173 236.282C118.136 236.29 118.101 236.306 118.069 236.328C118.038 236.35 118.011 236.378 117.991 236.41C117.85 236.842 117.85 237.308 117.991 237.74C118.297 237.351 118.446 236.86 118.406 236.366C118.406 236.316 118.334 236.26 118.196 236.271L118.173 236.282Z" fill="#FF5C8A"/>
<path d="M105.999 104.625C106.642 105.518 107.174 106.333 107.718 107.209C108.261 108.085 108.771 108.939 109.253 109.826C110.245 111.602 111.145 113.428 111.948 115.298C112.347 116.234 112.741 117.182 113.084 118.153C113.267 118.635 113.422 119.128 113.583 119.622C113.661 119.882 113.75 120.082 113.822 120.387C113.894 120.692 113.966 120.986 114.016 121.329C114.08 121.731 114.115 122.137 114.121 122.543C114.121 122.856 114.091 123.168 114.032 123.475C113.923 124.026 113.679 124.542 113.323 124.977C113.068 125.278 112.755 125.525 112.402 125.703C112.099 125.86 111.771 125.961 111.432 126.003C111.018 126.052 110.597 126.018 110.196 125.903C109.768 125.787 109.364 125.6 108.998 125.349C108.494 125 108.034 124.59 107.629 124.129C107.254 123.712 106.911 123.267 106.603 122.798L108.655 120.492C109.42 120.825 110.209 121.1 111.016 121.313C111.149 121.313 111.277 121.313 111.177 121.246C111.019 121.176 110.843 121.155 110.673 121.185C110.453 121.21 110.239 121.271 110.041 121.368C109.778 121.502 109.546 121.69 109.359 121.919C109.173 122.148 109.037 122.414 108.96 122.699C108.921 122.843 108.915 122.893 108.893 122.898C108.871 122.904 108.821 122.798 108.754 122.676L108.527 122.216C108.444 122.061 108.35 121.812 108.261 121.612C108.078 121.191 107.912 120.769 107.707 120.354C107.33 119.516 106.936 118.69 106.515 117.853C105.672 116.19 104.768 114.566 103.826 112.952C103.349 112.149 102.867 111.345 102.373 110.552C101.88 109.759 101.37 108.944 100.904 108.24L105.999 104.625Z" fill="#CE7A63"/>
<path d="M104.453 100.883C100.373 99.9349 97.8949 102.546 99.1146 107.652C99.8715 110.573 100.797 113.448 101.887 116.262C102.125 116.894 102.347 117.459 102.53 117.925L111.788 112.747C110.79 108.694 107.181 101.52 104.453 100.883Z" fill="#FF5C8A"/>
<path opacity="0.3" d="M104.624 105.723C102.162 103.505 104.679 112.442 105.733 116.145L108.455 114.626C108.167 112.06 106.514 107.414 104.624 105.723Z" fill="black"/>
<path d="M82.9473 240.767H87.0553L87.6651 231.249H83.5571L82.9473 240.767Z" fill="#CE7A63"/>
<path d="M87.2777 240.29H82.6596C82.621 240.289 82.5825 240.295 82.5463 240.308C82.5101 240.322 82.4769 240.342 82.4486 240.368C82.4202 240.395 82.3974 240.426 82.3813 240.461C82.3652 240.496 82.3561 240.534 82.3547 240.573L82.0997 244.226C82.0982 244.321 82.1156 244.415 82.1509 244.504C82.1862 244.592 82.2387 244.672 82.3052 244.739C82.3718 244.807 82.4511 244.861 82.5386 244.897C82.6261 244.934 82.72 244.953 82.8149 244.953C84.4226 244.925 85.1877 244.831 87.2223 244.831C88.4697 244.831 93.7807 244.964 95.5049 244.964C97.2291 244.964 97.1958 243.256 96.464 243.101C93.1931 242.408 89.1349 241.438 87.9818 240.545C87.7838 240.381 87.5349 240.291 87.2777 240.29Z" fill="#263238"/>
<path opacity="0.2" d="M83.5582 231.249H87.6662L87.3502 236.155H83.2422L83.5582 231.249Z" fill="black"/>
<path d="M97.7562 136.431C97.7562 136.431 97.8948 167.632 97.1353 179.396C96.3037 192.286 89.1243 234.974 89.1243 234.974H81.5957C81.5957 234.974 85.3379 193.322 84.983 180.566C84.6005 166.706 83.7966 136.431 83.7966 136.431H97.7562Z" fill="#FF5C8A"/>
<path d="M97.7562 136.431C97.7562 136.431 97.8948 167.632 97.1353 179.396C96.3037 192.286 89.1243 234.974 89.1243 234.974H81.5957C81.5957 234.974 85.3379 193.322 84.983 180.566C84.6005 166.706 83.7966 136.431 83.7966 136.431H97.7562Z" fill="#1C2D5E"/>
<path d="M81.2914 234.974H89.4298L89.9011 232.113L80.9199 232.562L81.2914 234.974Z" fill="#FF5C8A"/>
<path d="M88.7307 241.006C88.357 240.997 87.9853 240.949 87.6219 240.862C87.6044 240.856 87.5886 240.846 87.576 240.832C87.5634 240.818 87.5544 240.802 87.5498 240.784C87.5471 240.766 87.5499 240.747 87.5578 240.73C87.5657 240.713 87.5783 240.699 87.5942 240.69C87.7217 240.596 88.8915 239.803 89.396 239.997C89.4522 240.02 89.5017 240.057 89.5396 240.104C89.5774 240.152 89.6024 240.208 89.6122 240.268C89.6375 240.359 89.6396 240.454 89.6182 240.545C89.5969 240.636 89.5529 240.72 89.4902 240.79C89.2721 240.952 89.0018 241.029 88.7307 241.006ZM87.8991 240.723C88.6309 240.867 89.1742 240.845 89.3682 240.651C89.4091 240.606 89.4372 240.551 89.4499 240.492C89.4625 240.432 89.4592 240.37 89.4403 240.313C89.4361 240.283 89.4243 240.254 89.4058 240.23C89.3874 240.205 89.363 240.186 89.335 240.174C89.0578 240.069 88.3759 240.396 87.8991 240.723Z" fill="#FF5C8A"/>
<path d="M87.6548 240.861H87.6104C87.5968 240.853 87.5852 240.842 87.5765 240.828C87.5679 240.815 87.5624 240.8 87.5605 240.784C87.5605 240.734 87.4718 239.553 87.8932 239.154C87.9449 239.101 88.0087 239.061 88.0792 239.038C88.1497 239.015 88.2247 239.009 88.2979 239.021C88.379 239.024 88.4569 239.054 88.5191 239.106C88.5813 239.158 88.6244 239.23 88.6416 239.309C88.7358 239.758 88.1149 240.617 87.7047 240.861H87.6548ZM88.2092 239.198C88.1711 239.197 88.1332 239.204 88.0979 239.218C88.0626 239.233 88.0307 239.254 88.004 239.281C87.7746 239.675 87.6756 240.131 87.7213 240.584C88.1085 240.273 88.3639 239.828 88.4365 239.337C88.4365 239.281 88.3921 239.215 88.2535 239.198H88.2092Z" fill="#FF5C8A"/>
<path d="M105.778 136.431H83.7964C83.6578 134.468 84.1623 128.081 83.8851 119.948C83.7272 113.924 83.0464 107.926 81.8505 102.019C81.7562 101.576 81.6564 101.138 81.5566 100.694C81.5566 100.694 82.6654 100.467 84.2676 100.234C85.5982 100.04 87.2613 99.8406 88.8912 99.763C92.0026 99.5855 95.1215 99.5855 98.2328 99.763C99.6686 99.8961 101.071 100.134 102.186 100.351C103.616 100.639 104.459 100.905 104.459 100.905C104.459 100.905 109.77 113.318 105.778 136.431Z" fill="#FF5C8A"/>
<path d="M106.077 119.755C105.695 119.09 105.187 118.506 104.58 118.036C104.171 117.801 103.78 117.536 103.411 117.243C103.373 117.215 103.328 117.197 103.281 117.191C103.234 117.185 103.186 117.192 103.142 117.21C103.098 117.229 103.06 117.259 103.031 117.296C103.003 117.334 102.984 117.379 102.978 117.426C102.934 117.748 103.067 118.274 103.854 119.04C103.915 120.054 105.407 121.174 105.407 121.174L106.077 119.755Z" fill="#CE7A63"/>
<path opacity="0.3" d="M102.722 122.205H98.1543L101.314 113.196H105.883L102.722 122.205Z" fill="black"/>
<path d="M103.033 122.205H98.4648L101.625 113.196H106.193L103.033 122.205Z" fill="#263238"/>
<path opacity="0.3" d="M83.8842 119.949C83.7263 113.925 83.0455 107.926 81.8496 102.02C83.3187 101.892 85.8301 102.02 86.2293 104.409C86.6506 106.959 86.0353 112.958 83.8842 119.949Z" fill="black"/>
<path d="M85.8533 105.907L83.5137 113.912L82.355 117.909L81.8007 119.905L81.5235 120.897L81.3904 121.396V121.457C81.3904 121.49 81.3904 121.457 81.3904 121.457C81.393 121.422 81.393 121.387 81.3904 121.352C81.4009 121.249 81.4009 121.145 81.3904 121.041C81.3506 120.778 81.2541 120.527 81.1077 120.304C81.019 120.171 80.9038 120.058 80.7695 119.971C80.6253 119.894 80.7196 119.971 80.8748 120.044C81.3514 120.211 81.8466 120.319 82.3495 120.365C83.6383 120.502 84.9345 120.557 86.2302 120.531C88.919 120.498 91.7243 120.343 94.4685 120.154L95.0783 123.181C92.3105 124.064 89.4783 124.729 86.6072 125.172C85.0982 125.413 83.5727 125.535 82.0446 125.538C81.139 125.538 80.2365 125.432 79.3558 125.222C78.7091 125.07 78.0963 124.799 77.5485 124.423C77.1226 124.127 76.7591 123.751 76.4785 123.314C76.13 122.802 75.9112 122.212 75.8409 121.596C75.8134 121.317 75.8134 121.037 75.8409 120.759C75.8409 120.637 75.8409 120.515 75.8908 120.393L75.9296 120.171L76.0294 119.617L76.2235 118.558C76.3565 117.854 76.5007 117.15 76.6559 116.451C76.9553 115.054 77.2657 113.679 77.615 112.276C78.2969 109.505 79.0564 106.788 79.9323 104.049L85.8533 105.907Z" fill="#CE7A63"/>
<path d="M81.5508 100.69C78.8121 101.327 75.7408 108.54 74.6597 112.592C74.4768 113.285 74.3326 113.879 74.2218 114.333C74.0776 114.932 74 115.292 74 115.292L83.1863 117.909C83.3748 117.454 83.6076 116.889 83.8516 116.246C84.9943 113.435 85.9717 110.561 86.7787 107.636C88.0816 102.541 85.6422 99.7471 81.5508 100.69Z" fill="#FF5C8A"/>
<path d="M97.7837 99.7304C95.0728 99.0873 94.6126 97.4075 94.8067 95.5614C94.8535 95.0988 94.9294 94.6396 95.034 94.1865L91.6522 91.3591L89.1685 89.2856C89.8393 92.296 90.5766 97.7789 88.5254 99.7858C91.2452 102.05 94.2612 103.932 97.4899 105.38C100.7 103.023 97.7837 99.7304 97.7837 99.7304Z" fill="#CE7A63"/>
<path opacity="0.2" d="M95.0341 94.1863C94.9296 94.6394 94.8537 95.0986 94.8068 95.5612C93.5428 95.3062 91.6302 94.1752 91.4805 92.7449C91.4881 92.2767 91.5533 91.8112 91.6745 91.3589L95.0341 94.1863Z" fill="black"/>
<path d="M101.371 79.739C102.552 81.6129 100.323 87.0071 97.49 86.619C94.6571 86.231 99.1421 76.1798 101.371 79.739Z" fill="#263238"/>
<path d="M89.418 83.2144C88.9191 87.2781 88.4146 89.6231 90.039 92.0846C90.5634 92.9006 91.3008 93.5578 92.1716 93.9851C93.0424 94.4124 94.0134 94.5936 94.9797 94.5091C95.946 94.4247 96.8708 94.0777 97.6543 93.5058C98.4377 92.9339 99.0499 92.1587 99.4248 91.2641C100.949 87.8435 101.515 81.7785 97.9224 79.3447C97.1505 78.7995 96.2493 78.466 95.3085 78.3774C94.3677 78.2887 93.42 78.448 92.5599 78.8394C91.6998 79.2308 90.9571 79.8406 90.4059 80.6082C89.8547 81.3757 89.5141 82.2743 89.418 83.2144Z" fill="#CE7A63"/>
<path d="M88.9471 86.3305C91.0261 86.0699 92.5285 82.605 92.1016 80.9861C93.6317 82.0949 105.778 83.5031 103.927 75.5808C100.462 75.5808 86.0033 74.9322 88.4038 78.0534C86.7406 78.0534 85.1662 79.5614 86.2971 83.0429C87.4392 86.6243 88.9471 86.3305 88.9471 86.3305Z" fill="#263238"/>
<path d="M87.1665 86.8629C87.5191 87.8085 88.1893 88.6022 89.0625 89.1082C90.1713 89.7236 90.8366 88.709 90.6038 87.445C90.3986 86.2974 89.567 84.5954 88.3862 84.5123C87.2053 84.4291 86.723 85.6654 87.1665 86.8629Z" fill="#CE7A63"/>
<path d="M95.2384 85.6323C95.1774 85.9594 95.2994 86.2587 95.51 86.3031C95.7207 86.3474 95.9424 86.1201 96.0034 85.793C96.0644 85.466 95.9424 85.1666 95.7318 85.1222C95.5211 85.0779 95.2994 85.3052 95.2384 85.6323Z" fill="#263238"/>
<path d="M98.8985 86.4138C98.8375 86.7409 98.9595 87.0458 99.1702 87.0902C99.3808 87.1345 99.6026 86.9072 99.6636 86.5802C99.7246 86.2531 99.6026 85.9537 99.3919 85.9093C99.1813 85.865 98.9595 86.0923 98.8985 86.4138Z" fill="#263238"/>
<path d="M97.6999 86.3306C97.9021 87.4118 98.247 88.4614 98.7256 89.4518C98.473 89.5633 98.1989 89.6177 97.9229 89.611C97.6469 89.6043 97.3757 89.5367 97.1289 89.413L97.6999 86.3306Z" fill="#BA4D3C"/>
<path d="M95.6426 90.0114C95.2799 89.8895 94.9456 89.6955 94.6598 89.4411C94.374 89.1867 94.1426 88.8772 93.9794 88.5311C93.9719 88.5187 93.9671 88.5048 93.9655 88.4903C93.9638 88.4758 93.9654 88.4612 93.97 88.4474C93.9747 88.4336 93.9823 88.421 93.9923 88.4105C94.0023 88.3999 94.0145 88.3917 94.0281 88.3863C94.0416 88.381 94.0561 88.3787 94.0707 88.3796C94.0852 88.3805 94.0993 88.3845 94.1121 88.3914C94.1249 88.3984 94.1361 88.408 94.1447 88.4197C94.1534 88.4314 94.1594 88.4448 94.1624 88.4591C94.3457 88.8326 94.6126 89.1589 94.9424 89.4127C95.2722 89.6665 95.6559 89.841 96.0639 89.9226C96.077 89.9246 96.0895 89.9292 96.1006 89.9363C96.1118 89.9433 96.1213 89.9526 96.1286 89.9636C96.1359 89.9746 96.1409 89.987 96.1431 90C96.1453 90.013 96.1448 90.0263 96.1415 90.0391C96.135 90.0637 96.1193 90.0848 96.0977 90.0982C96.076 90.1116 96.0501 90.1162 96.0251 90.1111C95.8957 90.0856 95.768 90.0523 95.6426 90.0114Z" fill="#263238"/>
<path d="M94.3295 84.1962C94.2977 84.1851 94.2693 84.1659 94.2472 84.1406C94.225 84.1152 94.2098 84.0846 94.2031 84.0516C94.1964 84.0186 94.1984 83.9844 94.2089 83.9524C94.2194 83.9204 94.238 83.8917 94.263 83.8691C94.4869 83.6581 94.7592 83.5053 95.0559 83.4241C95.3527 83.3429 95.6648 83.3358 95.965 83.4034C96.0145 83.4188 96.0561 83.4529 96.0809 83.4984C96.1058 83.5439 96.1119 83.5973 96.098 83.6473C96.0815 83.696 96.0472 83.7368 96.002 83.7614C95.9568 83.7861 95.904 83.7928 95.8541 83.7804C95.6184 83.7306 95.3741 83.7389 95.1423 83.8046C94.9105 83.8703 94.6982 83.9913 94.5236 84.1573C94.4977 84.1806 94.466 84.1965 94.4319 84.2033C94.3977 84.2102 94.3624 84.2077 94.3295 84.1962Z" fill="#263238"/>
<path d="M100.7 85.4821C100.67 85.4733 100.643 85.4569 100.622 85.4346C100.601 85.4122 100.585 85.3846 100.578 85.3546C100.521 85.1119 100.409 84.8858 100.25 84.6935C100.091 84.5012 99.8905 84.348 99.6632 84.2458C99.6387 84.2378 99.6161 84.2248 99.5967 84.2077C99.5774 84.1906 99.5618 84.1697 99.5509 84.1463C99.54 84.1229 99.534 84.0975 99.5333 84.0717C99.5326 84.0459 99.5372 84.0202 99.5468 83.9963C99.5632 83.948 99.5981 83.9081 99.6437 83.8852C99.6894 83.8624 99.7422 83.8585 99.7907 83.8743C100.077 83.9963 100.331 84.1837 100.533 84.4215C100.734 84.6593 100.877 84.9408 100.949 85.2437C100.963 85.2929 100.957 85.3456 100.932 85.3902C100.907 85.4349 100.865 85.4679 100.816 85.4821C100.779 85.4961 100.737 85.4961 100.7 85.4821Z" fill="#263238"/>
<path d="M93.7362 120.303L98.127 118.03L97.3731 123.158C97.3731 123.158 93.764 124.151 93.4258 122.249L93.7362 120.303Z" fill="#CE7A63"/>
<path d="M96.7305 118.752C97.2219 118.154 97.8243 117.657 98.5045 117.288C98.9959 117.066 99.4655 116.799 99.9071 116.49C99.9488 116.468 99.9956 116.457 100.043 116.458C100.09 116.46 100.136 116.473 100.176 116.498C100.217 116.522 100.25 116.557 100.273 116.599C100.295 116.64 100.307 116.687 100.306 116.734C100.222 117.082 100.066 117.41 99.8499 117.696C99.6334 117.982 99.3604 118.221 99.0478 118.397C98.815 119.389 97.1518 120.26 97.1518 120.26L96.7305 118.752Z" fill="#CE7A63"/>
<path d="M101.719 118.74L101.104 121.939C101.078 122.076 101.011 122.202 100.912 122.301C100.813 122.4 100.687 122.467 100.549 122.493L97.334 123.158L98.1157 118.075L101.004 117.925C101.109 117.918 101.214 117.935 101.311 117.975C101.408 118.015 101.494 118.077 101.563 118.155C101.632 118.234 101.683 118.328 101.71 118.429C101.737 118.531 101.74 118.637 101.719 118.74Z" fill="#CE7A63"/>
<path d="M93.3984 122.249L93.7366 120.303L98.1274 118.03" fill="#CE7A63"/>
<path d="M108.023 120.725L104.525 118.607L104.27 123.158C104.27 123.158 107.956 124.572 108.328 122.671L108.023 120.725Z" fill="#CE7A63"/>
<path d="M102.917 118.657L102.64 122.243C102.632 122.342 102.658 122.44 102.712 122.522C102.766 122.604 102.846 122.666 102.939 122.698L104.264 123.158L104.519 118.607L103.51 118.263C103.445 118.241 103.376 118.234 103.308 118.242C103.24 118.251 103.174 118.276 103.117 118.314C103.06 118.352 103.012 118.402 102.977 118.462C102.943 118.521 102.922 118.588 102.917 118.657Z" fill="#CE7A63"/>
<defs>
<clipPath id="clip0_3989_59100">
<rect width="32.679" height="32.8131" fill="white" transform="translate(119.32 15.8833)"/>
</clipPath>
</defs>
</svg>
