<svg width="237" height="174" viewBox="0 0 237 174" fill="none" xmlns="http://www.w3.org/2000/svg">
<path d="M50.6307 168.035H24.1445V173.233H50.6307V168.035Z" fill="#FF5C8A"/>
<path opacity="0.2" d="M50.629 168.035H44.793V173.233H50.629V168.035Z" fill="black"/>
<path opacity="0.2" d="M41.9931 173.233H44.1172V168.035H41.9931V173.233Z" fill="black"/>
<path opacity="0.2" d="M39.2704 173.233H40.7227V168.035H39.2704V173.233Z" fill="black"/>
<path opacity="0.2" d="M36.602 173.233H37.3281V168.035H36.602V173.233Z" fill="black"/>
<path opacity="0.2" d="M32.2117 173.233H32.5781V168.035H32.2117V173.233Z" fill="black"/>
<path d="M49.3846 162.864H22.8984V168.062H49.3846V162.864Z" fill="#FF5C8A"/>
<path opacity="0.2" d="M49.3829 162.864H43.5469V168.062H49.3829V162.864Z" fill="black"/>
<path opacity="0.2" d="M40.7431 168.062H42.8672V162.864H40.7431V168.062Z" fill="black"/>
<path opacity="0.2" d="M38.0243 168.062H39.4766V162.864H38.0243V168.062Z" fill="black"/>
<path opacity="0.2" d="M35.3559 168.062H36.082V162.864H35.3559V168.062Z" fill="black"/>
<path opacity="0.2" d="M30.9656 168.062H31.332V162.864H30.9656V168.062Z" fill="black"/>
<path d="M51.7518 157.693H25.2656V162.892H51.7518V157.693Z" fill="#FF5C8A"/>
<path opacity="0.2" d="M51.7501 157.693H45.9141V162.892H51.7501V157.693Z" fill="black"/>
<path opacity="0.2" d="M43.1142 162.891H45.2383V157.693H43.1142V162.891Z" fill="black"/>
<path opacity="0.2" d="M40.3915 162.891H41.8438V157.693H40.3915V162.891Z" fill="black"/>
<path opacity="0.2" d="M37.7231 162.891H38.4492V157.693H37.7231V162.891Z" fill="black"/>
<path opacity="0.2" d="M33.3328 162.891H33.6992V157.693H33.3328V162.891Z" fill="black"/>
<path d="M50.6307 152.522H24.1445V157.72H50.6307V152.522Z" fill="#FF5C8A"/>
<path opacity="0.2" d="M50.629 152.522H44.793V157.72H50.629V152.522Z" fill="black"/>
<path opacity="0.2" d="M41.9931 157.72H44.1172V152.522H41.9931V157.72Z" fill="black"/>
<path opacity="0.2" d="M39.2704 157.72H40.7227V152.522H39.2704V157.72Z" fill="black"/>
<path opacity="0.2" d="M36.602 157.72H37.3281V152.522H36.602V157.72Z" fill="black"/>
<path opacity="0.2" d="M32.2117 157.72H32.5781V152.522H32.2117V157.72Z" fill="black"/>
<path d="M49.951 147.351H23.4648V152.549H49.951V147.351Z" fill="#FF5C8A"/>
<path opacity="0.2" d="M49.9532 147.351H44.1172V152.549H49.9532V147.351Z" fill="black"/>
<path opacity="0.2" d="M41.3135 152.549H43.4375V147.351H41.3135V152.549Z" fill="black"/>
<path opacity="0.2" d="M38.5907 152.549H40.043V147.351H38.5907V152.549Z" fill="black"/>
<path opacity="0.2" d="M35.9262 152.549H36.6523V147.351H35.9262V152.549Z" fill="black"/>
<path opacity="0.2" d="M31.5359 152.549H31.9023V147.351H31.5359V152.549Z" fill="black"/>
<path d="M50.6307 142.18H24.1445V147.378H50.6307V142.18Z" fill="#FF5C8A"/>
<path opacity="0.2" d="M50.629 142.18H44.793V147.378H50.629V142.18Z" fill="black"/>
<path opacity="0.2" d="M41.9931 147.378H44.1172V142.18H41.9931V147.378Z" fill="black"/>
<path opacity="0.2" d="M39.2704 147.378H40.7227V142.18H39.2704V147.378Z" fill="black"/>
<path opacity="0.2" d="M36.602 147.378H37.3281V142.18H36.602V147.378Z" fill="black"/>
<path opacity="0.2" d="M32.2117 147.378H32.5781V142.18H32.2117V147.378Z" fill="black"/>
<path d="M50.6307 137.009H24.1445V142.207H50.6307V137.009Z" fill="#FF5C8A"/>
<path opacity="0.2" d="M50.629 137.009H44.793V142.207H50.629V137.009Z" fill="black"/>
<path opacity="0.2" d="M41.9931 142.208H44.1172V137.009H41.9931V142.208Z" fill="black"/>
<path opacity="0.2" d="M39.2704 142.208H40.7227V137.009H39.2704V142.208Z" fill="black"/>
<path opacity="0.2" d="M36.602 142.208H37.3281V137.009H36.602V142.208Z" fill="black"/>
<path opacity="0.2" d="M32.2117 142.208H32.5781V137.009H32.2117V142.208Z" fill="black"/>
<path d="M49.2753 131.838H22.7891V137.036H49.2753V131.838Z" fill="#FF5C8A"/>
<path opacity="0.2" d="M49.2736 131.838H43.4375V137.036H49.2736V131.838Z" fill="black"/>
<path opacity="0.2" d="M40.6338 137.036H42.7578V131.838H40.6338V137.036Z" fill="black"/>
<path opacity="0.2" d="M37.915 137.036H39.3672V131.838H37.915V137.036Z" fill="black"/>
<path opacity="0.2" d="M35.2465 137.036H35.9727V131.838H35.2465V137.036Z" fill="black"/>
<path opacity="0.2" d="M30.8562 137.036H31.2227V131.838H30.8562V137.036Z" fill="black"/>
<path d="M50.6307 126.667H24.1445V131.865H50.6307V126.667Z" fill="#FF5C8A"/>
<path opacity="0.2" d="M50.629 126.667H44.793V131.865H50.629V126.667Z" fill="black"/>
<path opacity="0.2" d="M41.9931 131.865H44.1172V126.667H41.9931V131.865Z" fill="black"/>
<path opacity="0.2" d="M39.2704 131.865H40.7227V126.667H39.2704V131.865Z" fill="black"/>
<path opacity="0.2" d="M36.602 131.865H37.3281V126.667H36.602V131.865Z" fill="black"/>
<path opacity="0.2" d="M32.2117 131.865H32.5781V126.667H32.2117V131.865Z" fill="black"/>
<path d="M51.9901 121.496H25.5039V126.694H51.9901V121.496Z" fill="#FF5C8A"/>
<path opacity="0.2" d="M51.9884 121.496H46.1523V126.694H51.9884V121.496Z" fill="black"/>
<path opacity="0.2" d="M43.3486 126.694H45.4727V121.496H43.3486V126.694Z" fill="black"/>
<path opacity="0.2" d="M40.6259 126.694H42.0781V121.496H40.6259V126.694Z" fill="black"/>
<path opacity="0.2" d="M37.9614 126.694H38.6875V121.496H37.9614V126.694Z" fill="black"/>
<path opacity="0.2" d="M33.571 126.694H33.9375V121.496H33.571V126.694Z" fill="black"/>
<path d="M28.5213 168.035H2.03516V173.233H28.5213V168.035Z" fill="#FF5C8A"/>
<path opacity="0.2" d="M28.5275 168.035H22.6914V173.233H28.5275V168.035Z" fill="black"/>
<path opacity="0.2" d="M19.8916 173.233H22.0156V168.035H19.8916V173.233Z" fill="black"/>
<path opacity="0.2" d="M17.1689 173.233H18.6211V168.035H17.1689V173.233Z" fill="black"/>
<path opacity="0.2" d="M14.5004 173.233H15.2266V168.035H14.5004V173.233Z" fill="black"/>
<path opacity="0.2" d="M10.1062 173.233H10.4727V168.035H10.1062V173.233Z" fill="black"/>
<path d="M27.1659 162.864H0.679688V168.062H27.1659V162.864Z" fill="#FF5C8A"/>
<path opacity="0.2" d="M27.172 162.864H21.3359V168.062H27.172V162.864Z" fill="black"/>
<path opacity="0.2" d="M18.5322 168.062H20.6562V162.864H18.5322V168.062Z" fill="black"/>
<path opacity="0.2" d="M15.8134 168.062H17.2656V162.864H15.8134V168.062Z" fill="black"/>
<path opacity="0.2" d="M13.145 168.062H13.8711V162.864H13.145V168.062Z" fill="black"/>
<path opacity="0.2" d="M8.74684 168.062H9.11328V162.864H8.74684V168.062Z" fill="black"/>
<path d="M28.5213 157.693H2.03516V162.892H28.5213V157.693Z" fill="#FF5C8A"/>
<path opacity="0.2" d="M28.5275 157.693H22.6914V162.892H28.5275V157.693Z" fill="black"/>
<path opacity="0.2" d="M19.8916 162.891H22.0156V157.693H19.8916V162.891Z" fill="black"/>
<path opacity="0.2" d="M17.1689 162.891H18.6211V157.693H17.1689V162.891Z" fill="black"/>
<path opacity="0.2" d="M14.5004 162.891H15.2266V157.693H14.5004V162.891Z" fill="black"/>
<path opacity="0.2" d="M10.1062 162.891H10.4727V157.693H10.1062V162.891Z" fill="black"/>
<path d="M27.8456 152.522H1.35938V157.72H27.8456V152.522Z" fill="#FF5C8A"/>
<path opacity="0.2" d="M27.8517 152.522H22.0156V157.72H27.8517V152.522Z" fill="black"/>
<path opacity="0.2" d="M19.2119 157.72H21.3359V152.522H19.2119V157.72Z" fill="black"/>
<path opacity="0.2" d="M16.4892 157.72H17.9414V152.522H16.4892V157.72Z" fill="black"/>
<path opacity="0.2" d="M13.8247 157.72H14.5508V152.522H13.8247V157.72Z" fill="black"/>
<path opacity="0.2" d="M9.42652 157.72H9.79297V152.522H9.42652V157.72Z" fill="black"/>
<path d="M28.5213 147.351H2.03516V152.549H28.5213V147.351Z" fill="#FF5C8A"/>
<path opacity="0.2" d="M28.5275 147.351H22.6914V152.549H28.5275V147.351Z" fill="black"/>
<path opacity="0.2" d="M19.8916 152.549H22.0156V147.351H19.8916V152.549Z" fill="black"/>
<path opacity="0.2" d="M17.1689 152.549H18.6211V147.351H17.1689V152.549Z" fill="black"/>
<path opacity="0.2" d="M14.5004 152.549H15.2266V147.351H14.5004V152.549Z" fill="black"/>
<path opacity="0.2" d="M10.1062 152.549H10.4727V147.351H10.1062V152.549Z" fill="black"/>
<path d="M26.4862 142.18H0V147.378H26.4862V142.18Z" fill="#FF5C8A"/>
<path opacity="0.2" d="M26.4923 142.18H20.6562V147.378H26.4923V142.18Z" fill="black"/>
<path opacity="0.2" d="M17.8525 147.378H19.9766V142.18H17.8525V147.378Z" fill="black"/>
<path opacity="0.2" d="M15.1337 147.378H16.5859V142.18H15.1337V147.378Z" fill="black"/>
<path opacity="0.2" d="M12.4653 147.378H13.1914V142.18H12.4653V147.378Z" fill="black"/>
<path opacity="0.2" d="M8.06715 147.378H8.43359V142.18H8.06715V147.378Z" fill="black"/>
<path d="M161.67 136.989L165.158 173.233H143.144L132.137 147.48C132.137 147.48 147.711 134.621 161.67 136.989Z" fill="#FF5C8A"/>
<path d="M203.818 126.185L209.925 173.206H187.932L174.746 142.356C174.746 142.356 182.075 126.043 203.818 126.185Z" fill="#FF5C8A"/>
<path opacity="0.2" d="M161.67 136.989L165.158 173.233H143.144L132.137 147.48C132.137 147.48 147.711 134.621 161.67 136.989Z" fill="white"/>
<path opacity="0.2" d="M203.818 126.185L209.925 173.206H187.932L174.746 142.356C174.746 142.356 182.075 126.043 203.818 126.185Z" fill="white"/>
<path opacity="0.2" d="M165.158 173.233H143.144L132.137 147.48C132.137 147.48 147.711 134.62 161.67 136.995L164.045 161.704L165.158 173.233Z" fill="black"/>
<path opacity="0.2" d="M209.946 173.233H187.932L174.746 142.384C174.746 142.384 182.075 126.043 203.818 126.212L205.392 138.346L209.946 173.233Z" fill="black"/>
<path opacity="0.2" d="M164.045 161.704C157.194 164.553 150.116 166.823 142.886 168.49L143.144 173.24L132.137 147.487C132.137 147.487 147.711 134.627 161.67 137.002L164.045 161.704Z" fill="black"/>
<path opacity="0.2" d="M183.181 152.481L187.932 173.233L174.746 142.384C174.746 142.384 182.075 126.043 203.818 126.212L205.392 138.346C198.273 143.491 190.857 148.211 183.181 152.481Z" fill="black"/>
<path d="M139.141 153.174C175.199 153.174 204.43 129.882 204.43 101.151C204.43 72.4201 175.199 49.1289 139.141 49.1289C103.083 49.1289 73.8516 72.4201 73.8516 101.151C73.8516 129.882 103.083 153.174 139.141 153.174Z" fill="#FF5C8A"/>
<path opacity="0.2" d="M204.431 101.151C204.431 102.441 204.37 103.723 204.255 104.992C203.169 116.827 197.116 127.542 187.751 135.889C175.8 146.503 158.448 153.18 139.142 153.18C103.087 153.18 73.8594 129.884 73.8594 101.151C73.8594 100.581 73.8594 100.018 73.9001 99.4547C75.0198 71.5095 103.8 49.1289 139.142 49.1289C155.34 49.1289 170.154 53.8249 181.562 61.6018C195.561 71.1498 204.431 85.326 204.431 101.151Z" fill="white"/>
<path opacity="0.2" d="M192.071 131.614C192.396 131.254 192.749 130.895 193.034 130.528L193.713 129.714C194.005 129.361 194.296 129.001 194.575 128.635L195.253 127.78C195.525 127.413 195.783 127.047 196.047 126.68C196.312 126.314 196.461 126.097 196.665 125.798C196.868 125.5 197.174 125.018 197.418 124.631C197.662 124.244 197.791 124.061 197.968 123.769C198.327 123.179 198.646 122.582 198.999 121.978C199.182 121.638 199.359 121.299 199.535 120.953C199.712 120.607 199.976 120.105 200.18 119.67C200.384 119.236 200.485 118.992 200.635 118.673C200.784 118.354 200.981 117.899 201.144 117.512C201.306 117.126 201.415 116.834 201.551 116.461C201.686 116.087 201.849 115.687 201.985 115.3C202.121 114.913 202.229 114.622 202.345 114.235C202.46 113.848 202.596 113.434 202.718 113.034C202.84 112.633 202.922 112.355 203.01 111.975C203.098 111.595 203.227 111.127 203.329 110.699C203.43 110.272 203.485 110.021 203.553 109.688C203.654 109.206 203.736 108.718 203.824 108.229C203.872 107.944 203.926 107.652 203.973 107.367C204.089 106.587 204.184 105.8 204.258 105.012C204.374 103.743 204.435 102.461 204.435 101.171C204.435 85.3463 195.565 71.1701 181.566 61.622C173.762 58.5615 161.886 71.2515 160.766 89.3365C159.837 104.66 166.976 120.261 177.555 129.551C164.6 142.648 141.819 150.126 116.738 144.216C90.1296 137.939 75.0169 113.576 73.904 99.475C73.904 100.038 73.8633 100.601 73.8633 101.171C73.8633 129.904 103.091 153.201 139.146 153.201C158.452 153.201 175.791 146.516 187.748 135.903L187.829 135.821C187.938 135.733 188.04 135.631 188.141 135.536C188.657 135.068 189.166 134.6 189.655 134.118L190.272 133.501C190.652 133.12 191.025 132.74 191.392 132.354C191.623 132.096 191.819 131.845 192.071 131.614Z" fill="black"/>
<path opacity="0.2" d="M166.572 55.4061L162.5 56.2747L158.069 57.2248C142.963 51.3752 125.4 52.997 117.175 54.2525C114.413 54.68 112.697 55.06 112.473 55.1143L120.365 51.9723C147.923 46.0277 166.572 55.4061 166.572 55.4061Z" fill="black"/>
<path opacity="0.2" d="M162.507 56.2883L158.076 57.2384C142.963 51.3752 125.401 52.9971 117.176 54.2525L120.379 52.9767C140.249 48.9458 155.538 53.445 162.507 56.2883Z" fill="black"/>
<path d="M195.125 67.1462C195.125 67.1462 200.133 57.537 216.42 54.4697C216.42 54.4697 218.931 54.9923 216.42 57.4013C216.42 57.4013 216.956 70.4103 214.812 77.0811C212.667 83.7518 195.125 67.1462 195.125 67.1462Z" fill="#FF5C8A"/>
<path opacity="0.2" d="M216.42 57.4013C216.42 57.4013 216.956 70.4103 214.812 77.081C214.733 77.3216 214.621 77.55 214.479 77.7596C214.225 78.1183 213.873 78.3961 213.465 78.5598C213.057 78.7235 212.61 78.7661 212.178 78.6825C212.521 78.1834 212.788 77.637 212.972 77.0606C213.067 76.7892 213.162 76.4838 213.244 76.1581C215.958 65.8296 212.307 60.6586 212.307 60.6586L214.051 58.5549C204.429 61.7919 202.237 71.0549 202.237 71.0549L202.393 71.3399C203.128 72.6337 203.93 73.8886 204.795 75.0995C201.402 72.6622 198.171 70.0054 195.125 67.1461C195.125 67.1461 200.133 57.5302 216.42 54.4629C216.42 54.4629 217.567 54.7004 217.533 55.603C217.396 56.319 217 56.9594 216.42 57.4013Z" fill="white"/>
<path opacity="0.2" d="M216.422 57.4011C216.422 57.4011 216.958 70.4101 214.814 77.0808C214.735 77.3214 214.623 77.5498 214.481 77.7594L212.975 77.013C209.758 75.3911 205.659 73.2467 202.395 71.2923C200.305 70.0228 198.439 68.4179 196.871 66.542C198.466 65.273 203.447 65.273 203.447 65.273C207.878 59.7762 217.535 55.5688 217.535 55.5688C217.406 56.2972 217.009 56.9509 216.422 57.4011Z" fill="black"/>
<path d="M227.937 92.8854L223.77 93.3673C220.689 77.3181 208.291 65.3135 193.463 65.3135C176.308 65.3135 162.41 81.3558 162.41 101.151C162.41 120.946 176.308 136.988 193.463 136.988C204.83 136.988 214.765 129.938 220.18 119.412C220.18 119.412 236.318 111.893 236.928 108.453L227.937 92.8854Z" fill="#FF5C8A"/>
<path opacity="0.2" d="M236.928 108.453C236.318 111.893 220.18 119.412 220.18 119.412C214.751 129.931 204.83 136.988 193.463 136.988C176.308 136.988 162.41 120.939 162.41 101.144V100.907C162.471 90.1642 166.631 80.5482 173.173 74.0132C176.995 70.128 181.816 67.3754 187.105 66.0599C189.187 65.5579 191.322 65.305 193.463 65.3066C207.036 65.3066 218.538 75.3365 222.773 89.3091C223.177 90.6476 223.51 92.0068 223.77 93.3808L227.937 92.899L236.928 108.453Z" fill="white"/>
<path opacity="0.2" d="M187.877 75.1874C186.018 80.2227 176.619 75.8321 173.172 74.0202C176.993 70.135 181.815 67.3824 187.104 66.0669C188.203 68.5031 189.106 71.8962 187.877 75.1874Z" fill="black"/>
<path opacity="0.2" d="M223.768 93.3677C223.768 93.3677 217.539 93.1031 214.051 98.6473C214.051 98.6473 216.67 91.1012 222.771 89.3164C223.175 90.6482 223.508 92.0005 223.768 93.3677Z" fill="black"/>
<path opacity="0.2" d="M220.18 119.399C214.751 129.918 204.83 136.975 193.463 136.975C176.308 136.975 162.41 120.926 162.41 101.131V100.894C164.717 113.638 172.888 126.063 185.055 130.752C200.358 136.663 207.205 127.665 207.205 127.665C205.6 127.222 204.144 126.355 202.989 125.155C201.834 123.955 201.024 122.466 200.643 120.845C208.413 123.797 220.18 119.399 220.18 119.399Z" fill="black"/>
<path d="M227.936 92.8857C231.288 92.8857 237.735 103.214 236.927 108.453C236.12 113.692 217.193 114.9 215.307 109.81C213.983 106.241 224.04 92.8857 227.936 92.8857Z" fill="#FF5C8A"/>
<path opacity="0.6" d="M227.936 92.8857C231.288 92.8857 237.735 103.214 236.927 108.453C236.12 113.692 217.193 114.9 215.307 109.81C213.983 106.241 224.04 92.8857 227.936 92.8857Z" fill="white"/>
<path opacity="0.3" d="M225.927 106.506C225.513 108.216 224.454 109.424 223.565 109.22C222.676 109.016 222.296 107.449 222.71 105.746C223.124 104.042 224.176 102.827 225.065 103.031C225.954 103.235 226.341 104.768 225.927 106.506Z" fill="black"/>
<path opacity="0.3" d="M232.232 109.096C233.144 109.027 233.776 107.553 233.644 105.804C233.511 104.056 232.665 102.694 231.753 102.763C230.841 102.832 230.209 104.306 230.341 106.055C230.474 107.804 231.32 109.165 232.232 109.096Z" fill="black"/>
<path d="M198.46 98.6471C198.46 100.622 197.483 102.223 196.275 102.223C195.067 102.223 194.09 100.622 194.09 98.6471C194.09 96.6723 195.067 95.0708 196.275 95.0708C197.483 95.0708 198.46 96.6723 198.46 98.6471Z" fill="#263238"/>
<path d="M166.576 85.2108C166.576 85.2108 165.945 65.7347 178.35 54.7412C178.35 54.7412 180.772 53.9065 179.856 57.2588C179.856 57.2588 186.995 68.1505 188.583 74.9909C190.171 81.8313 166.576 85.2108 166.576 85.2108Z" fill="#FF5C8A"/>
<path opacity="0.2" d="M166.576 85.2108C166.576 85.2108 165.945 65.7347 178.35 54.7412C178.35 54.7412 180.772 53.9065 179.856 57.2588C179.856 57.2588 186.995 68.1505 188.583 74.9909C190.171 81.8313 166.576 85.2108 166.576 85.2108Z" fill="white"/>
<path d="M178.561 59.6812C178.561 59.6812 173.377 70.6 173.811 81.1524C173.811 81.1524 182.531 79.3609 185.89 72.9209C185.863 72.9209 183.61 65.11 178.561 59.6812Z" fill="#FF5C8A"/>
<path d="M126.132 136.989L122.637 173.233H144.651L155.658 147.48C155.658 147.48 140.091 134.621 126.132 136.989Z" fill="#FF5C8A"/>
<path d="M83.9825 126.185L77.875 173.206H99.8891L110.896 147.453C110.896 147.453 105.725 126.043 83.9825 126.185Z" fill="#FF5C8A"/>
<path opacity="0.2" d="M155.658 147.48L144.651 173.233H122.637L126.132 136.996C131.73 136.046 137.58 137.538 142.588 139.676C147.26 141.709 151.652 144.332 155.658 147.48Z" fill="white"/>
<path opacity="0.2" d="M110.869 147.48L99.8618 173.233H77.8477L83.9552 126.212C91.4199 126.151 96.9234 128.641 100.92 131.933C108.65 138.237 110.869 147.48 110.869 147.48Z" fill="white"/>
<path opacity="0.2" d="M110.869 147.48L99.8618 173.233H77.8477L83.9552 126.212L79.9242 170.722H96.8148L107.069 145.539C107.069 145.539 106.39 139.357 100.961 131.967C108.65 138.237 110.869 147.48 110.869 147.48Z" fill="black"/>
<path opacity="0.2" d="M155.658 147.48L144.651 173.233H122.637L126.132 136.995L124.252 170.722H142.072L148.98 148.579C148.98 148.579 147.956 144.358 142.588 139.662C147.26 141.699 151.653 144.327 155.658 147.48Z" fill="black"/>
<path d="M72.5073 26.5112C68.1574 27.8209 66.3998 43.8565 63.8618 49.998C61.3238 56.1394 56.0781 68.3205 56.0781 68.3205L58.114 70.4445C58.114 70.4445 67.1123 55.5151 68.2931 53.2824C69.4739 51.0498 74.7874 34.2813 74.7874 34.2813L72.5073 26.5112Z" fill="#E4897B"/>
<path d="M72.5083 26.5112C69.9024 27.2373 68.837 27.2781 65.1182 46.0892L57.0156 64.7306L60.8498 67.1465C60.8498 67.1465 69.1424 52.7667 71.0289 49.1293C72.9155 45.492 75.1413 31.1054 75.1413 31.1054L72.5083 26.5112Z" fill="#FF5C8A"/>
<path opacity="0.4" d="M75.1596 31.1119C75.1596 31.1119 74.3724 36.2354 73.3342 41.135C72.6556 44.4466 71.8073 47.6632 71.0472 49.129C70.6061 49.9773 69.819 51.4024 68.8689 53.0989C68.3532 54.0218 67.7831 55.0262 67.1995 56.0577C64.2408 61.2558 60.8477 67.1462 60.8477 67.1462L57 64.7235L65.1162 46.1092C68.835 27.3049 69.9004 27.2574 72.5063 26.5381L75.1596 31.1119Z" fill="white"/>
<path opacity="0.2" d="M73.3348 41.1353C72.6562 44.4469 71.8079 47.6635 71.0479 49.1293C70.6068 49.9776 69.8196 51.4027 68.8696 53.0992C67.6549 44.2773 70.5797 35.5571 70.5797 35.5571C71.7537 36.5208 72.6698 38.5702 73.3348 41.1353Z" fill="black"/>
<path d="M60.5501 45.8989H58.0324C50.8459 45.8989 45.0234 52.7258 45.0234 61.1473C45.0234 69.5689 50.8459 76.3889 58.0324 76.3889H60.5501C67.7298 76.3889 73.559 69.5621 73.559 61.1473C73.559 52.7325 67.7298 45.8989 60.5501 45.8989Z" fill="#FF5C8A"/>
<path opacity="0.2" d="M60.5501 45.8989H58.0324C50.8459 45.8989 45.0234 52.7258 45.0234 61.1473C45.0234 69.5689 50.8459 76.3889 58.0324 76.3889H60.5501C67.7298 76.3889 73.559 69.5621 73.559 61.1473C73.559 52.7325 67.7298 45.8989 60.5501 45.8989Z" fill="black"/>
<path d="M60.5519 76.3957C67.7366 76.3957 73.5609 69.5688 73.5609 61.1473C73.5609 52.7259 67.7366 45.8989 60.5519 45.8989C53.3673 45.8989 47.543 52.7259 47.543 61.1473C47.543 69.5688 53.3673 76.3957 60.5519 76.3957Z" fill="#FF5C8A"/>
<path opacity="0.2" d="M60.5489 73.7558C66.4893 73.7558 71.3049 68.1107 71.3049 61.1472C71.3049 54.1836 66.4893 48.5386 60.5489 48.5386C54.6086 48.5386 49.793 54.1836 49.793 61.1472C49.793 68.1107 54.6086 73.7558 60.5489 73.7558Z" fill="black"/>
<path d="M61.2952 67.7503V69.82H60.0058V67.7842C58.5827 67.7224 57.2222 67.182 56.1445 66.2505L56.8571 64.3843C57.7299 65.1765 58.8332 65.6688 60.0058 65.7891V62.0974C58.255 61.602 56.382 60.937 56.382 58.3718C56.382 56.4921 57.5492 54.8499 60.0058 54.5716V52.4883H61.2952V54.5241C62.446 54.5884 63.5547 54.9791 64.4914 55.6506L63.8128 57.5168C63.0525 56.9884 62.1784 56.6466 61.2613 56.5192V60.2448C63.0053 60.747 64.9122 61.3917 64.9122 63.9568C64.919 65.8298 63.7653 67.4517 61.2952 67.7503ZM60.0058 59.8512V56.5667C59.5744 56.5877 59.1677 56.7745 58.8705 57.088C58.5734 57.4016 58.4088 57.8177 58.4111 58.2497C58.4111 59.1319 59.0897 59.5391 60.0058 59.8512ZM62.9306 64.1129C62.9306 63.2103 62.252 62.7896 61.2952 62.4707V65.7416C62.442 65.538 62.9306 64.9069 62.9306 64.1129Z" fill="#FF5C8A"/>
<path d="M89.1533 126.016L87.4296 129.314C87.4296 129.314 85.9503 128.526 83.5955 127.237C82.9169 126.871 82.1772 126.464 81.3764 126.016C79.1506 124.794 76.4768 123.301 73.6538 121.706L71.808 120.648C62.0156 115.036 51.2461 108.433 51.2461 106.58C51.2461 104.544 57.5572 92.3972 62.606 83.0053C65.9991 76.7349 68.7882 71.686 68.7882 71.686L80.7792 79.0286C80.7792 79.0286 76.7076 84.4914 72.507 90.5039C67.6278 97.514 62.6128 105.271 63.7597 106.044C64.6351 106.628 69.0936 110.116 74.0271 114.018L74.9228 114.696C77.583 116.8 80.3517 118.978 82.6997 120.865L84.6134 122.378L89.1533 126.016Z" fill="#E4897B"/>
<path opacity="0.2" d="M80.7781 79.0286C80.7781 79.0286 75.1524 86.6291 70.9654 92.6415L61.4648 85.1293C64.8579 78.859 68.8074 71.686 68.8074 71.686L80.7781 79.0286Z" fill="black"/>
<path opacity="0.2" d="M84.5984 122.406L83.5804 127.237C80.6353 125.629 76.3193 123.247 71.793 120.648C72.5598 118.314 73.442 115.687 74.012 114.018C77.7104 116.923 81.6668 120.078 84.5984 122.406Z" fill="black"/>
<path d="M94.4395 85.1294L92.1322 92.1734L91.6571 93.6188L88.1352 104.341L87.7348 105.569L85.4071 112.647L82.6927 120.892L81.4441 124.699C81.4441 125.134 81.4033 125.575 81.3694 126.016C80.1818 144.223 70.7016 168.029 70.7016 168.029L67.3086 167.106C68.5097 152.8 71.0817 136.134 73.64 121.707C74.0676 119.311 74.4883 116.956 74.909 114.724C75.1465 113.461 75.3773 112.22 75.5876 111.012C76.0762 108.453 76.5377 106.031 76.9924 103.778C77.2095 102.705 77.4131 101.681 77.6099 100.683C78.1053 98.2266 78.5532 96.0347 78.9671 94.1549C79.3811 92.2752 79.6797 90.7211 79.9375 89.5336C80.3108 87.7963 80.5212 86.8191 80.5212 86.8191L94.4395 85.1294Z" fill="#E4897B"/>
<path d="M85.0755 122.487C84.6344 122.487 84.8991 127.916 84.8991 127.916C84.8991 127.916 88.2242 131.309 88.9368 134.526C89.6493 137.742 91.6105 135.991 91.6512 132.381C91.6919 128.771 91.7462 126.023 91.787 123.464C91.8277 120.906 89.629 122.446 85.0755 122.487Z" fill="#263238"/>
<path d="M86.0993 131.228C86.0272 131.305 85.9332 131.357 85.8301 131.379C85.727 131.401 85.6196 131.391 85.5225 131.35C85.4449 131.328 85.3724 131.291 85.3095 131.241C85.2465 131.191 85.1943 131.129 85.1561 131.058C85.0082 130.671 84.9706 130.25 85.0475 129.843C84.8032 130.278 84.5114 130.658 84.2264 130.671C84.0431 130.671 83.8938 130.556 83.7785 130.312C83.7314 130.205 83.707 130.089 83.707 129.972C83.707 129.855 83.7314 129.74 83.7785 129.633C84.0974 128.907 85.3596 128.472 85.4139 128.452C85.4488 128.438 85.4876 128.438 85.5225 128.452H85.5564C85.5595 128.468 85.5595 128.484 85.5564 128.5C85.9114 129.203 86.141 129.963 86.235 130.746C86.2455 130.917 86.1977 131.087 86.0993 131.228ZM85.4207 130.922C85.4398 130.96 85.4666 130.993 85.4993 131.02C85.532 131.047 85.57 131.067 85.6107 131.078C85.8211 131.133 85.8754 131.078 85.8957 131.078C86.1061 130.827 85.8211 129.836 85.5021 129.043C85.2963 129.653 85.2634 130.308 85.4071 130.936L85.4207 130.922ZM84.0635 130.189C84.0635 130.264 84.1653 130.393 84.2399 130.386C84.4842 130.386 84.9185 129.613 85.2307 128.819C84.7498 128.984 84.3371 129.304 84.0567 129.728C84.022 129.795 84.0035 129.869 84.0024 129.945C83.997 130.029 84.0109 130.112 84.0431 130.189H84.0635Z" fill="#FF5C8A"/>
<path d="M71.7073 166.495C71.7073 166.054 66.2784 166.4 66.2784 166.4C66.2784 166.4 62.9532 169.793 59.7298 170.539C56.5064 171.286 58.3047 173.254 61.9081 173.254H70.8319C73.3835 173.233 71.7819 171.048 71.7073 166.495Z" fill="#263238"/>
<path d="M62.9451 167.655C62.867 167.584 62.8128 167.49 62.7898 167.387C62.7667 167.284 62.7759 167.176 62.8161 167.079C62.8349 167.001 62.87 166.928 62.9191 166.865C62.9683 166.801 63.0303 166.749 63.1011 166.712C63.486 166.556 63.9062 166.51 64.3159 166.576C63.8748 166.346 63.4879 166.061 63.4744 165.776C63.4744 165.592 63.583 165.436 63.8273 165.321C63.9342 165.274 64.0497 165.25 64.1666 165.25C64.2834 165.25 64.3989 165.274 64.5059 165.321C65.2388 165.626 65.6934 166.889 65.7138 166.943C65.7274 166.978 65.7274 167.016 65.7138 167.051C65.7013 167.068 65.6851 167.082 65.6663 167.092C64.9647 167.446 64.207 167.676 63.4269 167.771C63.2579 167.787 63.0883 167.747 62.9451 167.655ZM63.2436 166.977C63.2059 166.996 63.1725 167.023 63.1456 167.055C63.1188 167.088 63.099 167.126 63.0876 167.167C63.0333 167.377 63.0876 167.431 63.0876 167.452C63.3454 167.662 64.3362 167.364 65.1234 167.024C64.5141 166.834 63.8651 166.811 63.2436 166.956V166.977ZM63.9223 165.62C63.8476 165.653 63.7255 165.728 63.7322 165.803C63.7322 166.04 64.5194 166.481 65.3134 166.766C65.1401 166.29 64.8161 165.882 64.3905 165.606C64.3212 165.578 64.2478 165.562 64.1733 165.558C64.0981 165.55 64.022 165.557 63.9494 165.579L63.9223 165.62Z" fill="#FF5C8A"/>
<path opacity="0.7" d="M75.5327 89.0313L74.7523 89.7642L63.0938 81.8583L64.5663 78.2617C64.546 79.5274 64.7316 80.788 65.116 81.9941C65.7539 83.5006 73.4765 87.8844 75.5327 89.0313Z" fill="white"/>
<path opacity="0.2" d="M94.4403 85.1294L91.6579 93.612C85.2858 95.1253 81.6417 94.1685 78.9883 94.1481C79.3751 92.2752 79.7008 90.7144 79.9587 89.5268C80.3319 87.7896 80.5423 86.8124 80.5423 86.8124L94.4403 85.1294Z" fill="black"/>
<path d="M94.2708 89.9003C94.1282 91.02 93.9518 92.1668 93.7482 93.334L78.1809 92.7844V86.5344L72.9895 92.255L61.4531 82.8902L69.4743 66.2914L70.5058 55.834L91.4545 58.0598C91.4545 58.0598 96.8155 70.6073 94.2708 89.9003Z" fill="#1C2D5E"/>
<path d="M91.2368 55.0876L70.0234 53.2554V56.8859L91.739 58.8064L91.2368 55.0876Z" fill="black"/>
<path d="M75.9414 54.8633V56.5462C75.9403 56.8756 76.0633 57.1932 76.2859 57.436C76.5085 57.6787 76.8143 57.8286 77.1425 57.8559L79.7891 58.0934H79.9045C80.2329 58.0895 80.5488 57.9665 80.7935 57.7474C80.9262 57.6226 81.0325 57.4723 81.1059 57.3056C81.1794 57.1389 81.2185 56.9591 81.221 56.7769V55.0804C81.2221 54.7511 81.0991 54.4334 80.8765 54.1907C80.6539 53.9479 80.3481 53.798 80.0199 53.7707L77.3665 53.54C77.1842 53.5243 77.0006 53.547 76.8277 53.6066C76.6547 53.6662 76.4961 53.7614 76.3621 53.8861C76.2298 54.0122 76.1243 54.1638 76.052 54.3317C75.9797 54.4996 75.9421 54.6804 75.9414 54.8633ZM76.62 56.5462V55.9898L77.3597 56.044C77.4185 56.0485 77.4776 56.0413 77.5337 56.0229C77.5897 56.0045 77.6416 55.9753 77.6864 55.9368C77.7311 55.8984 77.7678 55.8515 77.7944 55.7989C77.8211 55.7463 77.8371 55.6889 77.8415 55.6301C77.846 55.5713 77.8388 55.5122 77.8204 55.4561C77.802 55.4001 77.7728 55.3482 77.7343 55.3034C77.6959 55.2587 77.649 55.222 77.5964 55.1954C77.5438 55.1687 77.4864 55.1527 77.4276 55.1483L76.6879 55.0872H76.5861V54.8361C76.5841 54.747 76.6013 54.6585 76.6364 54.5765C76.6715 54.4946 76.7238 54.4211 76.7897 54.3611C76.9071 54.2558 77.0595 54.1978 77.2172 54.1982H77.2783L79.9249 54.4289C80.0839 54.4409 80.2324 54.5127 80.3407 54.6298C80.449 54.7469 80.5089 54.9006 80.5085 55.0601V56.7566C80.5082 56.845 80.4893 56.9324 80.453 57.0131C80.4168 57.0937 80.364 57.1659 80.2981 57.2248C80.2345 57.2854 80.1584 57.3313 80.0752 57.3595C79.992 57.3876 79.9036 57.3972 79.8163 57.3877L77.1629 57.157C77.0152 57.1348 76.88 57.0615 76.7808 56.9499C76.6816 56.8383 76.6247 56.6955 76.62 56.5462Z" fill="white"/>
<path d="M72.5074 26.5109C72.5074 26.5109 85.5164 25.5337 94.9559 29.429L91.2371 55.0873L71.1095 53.255C71.1095 53.255 70.5802 34.1385 72.5074 26.5109Z" fill="#FF5C8A"/>
<path d="M86.8585 27.7868C86.8585 27.7868 85.7184 30.2502 81.0564 31.6413C81.0564 31.6413 78.4844 30.2841 79.2173 28.0311C79.2173 28.0311 80.7035 27.7733 80.2895 24.2173C80.2895 24.1223 80.276 24.0205 80.2488 23.912C80.1143 23.0215 79.9262 22.14 79.6856 21.2722L85.2434 19.2363C85.2434 19.2363 83.8455 23.7762 85.8542 26.701C86.128 27.1149 86.4672 27.4816 86.8585 27.7868Z" fill="#E4897B"/>
<path opacity="0.2" d="M85.8561 26.6805C83.7497 26.604 81.755 25.7137 80.2915 24.1968C80.2915 24.1018 80.2779 24 80.2507 23.8914C80.1162 23.001 79.9282 22.1195 79.6875 21.2517L85.2453 19.2158C85.2453 19.2158 83.8474 23.7489 85.8561 26.6805Z" fill="black"/>
<path d="M79.8083 6.26809C79.8083 6.26809 78.2882 -1.31877 70.4706 0.20132C62.653 1.72141 66.2972 12.4163 67.8919 15.7347C69.4866 19.0531 69.7106 21.8422 67.8173 23.342C67.8173 23.342 70.396 24.0816 71.76 22.3105C71.76 22.3105 71.6853 23.9459 70.776 24.6313C70.776 24.6313 78.6343 21.8219 76.6392 12.6403C74.6441 3.45864 79.8083 6.26809 79.8083 6.26809Z" fill="#263238"/>
<path d="M88.1558 5.6643C88.1558 5.6643 92.0985 5.81359 93.1571 9.15236C94.2158 12.4911 93.3811 16.2235 87.5043 20.2069C81.6275 24.1904 76.694 20.2748 74.4207 17.5603C72.1473 14.8459 73.2806 5.64394 79.8088 4.55137C86.3371 3.45881 88.1558 5.6643 88.1558 5.6643Z" fill="#263238"/>
<path d="M84.3901 6.74986C89.3982 7.47597 90.6197 10.3872 90.2397 15.5718C89.7647 22.0797 87.6813 26.4296 81.6213 24.1766C73.3966 21.0889 76.0839 5.54193 84.3901 6.74986Z" fill="#E4897B"/>
<path d="M87.0412 14.8389C87.3366 15.6442 87.7261 16.4118 88.2016 17.1258C88.0242 17.3108 87.7993 17.4435 87.5516 17.5093C87.3038 17.5752 87.0427 17.5716 86.7969 17.499L87.0412 14.8389Z" fill="#DE5753"/>
<path d="M84.0443 13.9909C83.9968 14.398 83.7322 14.7102 83.4539 14.6695C83.1757 14.6288 82.9993 14.2759 83.0468 13.8619C83.0943 13.448 83.3589 13.1426 83.6372 13.1833C83.9154 13.224 84.0918 13.5769 84.0443 13.9909Z" fill="#263238"/>
<path d="M83.5195 13.1896L84.456 12.9453C84.456 12.9453 83.9199 13.6443 83.5195 13.1896Z" fill="#263238"/>
<path d="M89.181 14.5202C89.1335 14.9341 88.8689 15.2395 88.5907 15.1988C88.3124 15.1581 88.136 14.8052 88.1835 14.3912C88.231 13.9773 88.4956 13.6719 88.7739 13.7126C89.0521 13.7533 89.2286 14.1062 89.181 14.5202Z" fill="#263238"/>
<path d="M88.6719 13.7194L89.6084 13.4751C89.6084 13.4751 89.0587 14.1741 88.6719 13.7194Z" fill="#263238"/>
<path d="M82.2098 11.2085C82.1436 11.2072 82.0804 11.1805 82.0334 11.1338C81.9894 11.0883 81.9648 11.0275 81.9648 10.9642C81.9648 10.9009 81.9894 10.8401 82.0334 10.7945C82.3847 10.5227 82.7942 10.3359 83.2298 10.2487C83.6655 10.1616 84.1153 10.1766 84.5442 10.2924C84.6039 10.3126 84.6537 10.3546 84.6839 10.4099C84.7141 10.4652 84.7224 10.5298 84.7071 10.591C84.6992 10.6213 84.6854 10.6499 84.6664 10.6749C84.6474 10.6999 84.6237 10.7209 84.5966 10.7366C84.5694 10.7524 84.5394 10.7627 84.5083 10.7668C84.4772 10.7709 84.4456 10.7688 84.4153 10.7606C84.0686 10.6691 83.7058 10.6563 83.3535 10.7232C83.0012 10.7901 82.6684 10.9351 82.3794 11.1474C82.3328 11.1887 82.2721 11.2105 82.2098 11.2085Z" fill="#263238"/>
<path d="M90.0954 11.7783C90.0355 11.7786 89.9775 11.7569 89.9325 11.7173C89.7111 11.4886 89.4415 11.3121 89.1434 11.2006C88.8452 11.0891 88.526 11.0454 88.2089 11.0726C88.1781 11.0795 88.1463 11.0803 88.1152 11.0748C88.0841 11.0694 88.0545 11.0578 88.0279 11.0407C88.0014 11.0237 87.9785 11.0015 87.9607 10.9755C87.9428 10.9495 87.9303 10.9202 87.9238 10.8893C87.9169 10.8586 87.9161 10.8267 87.9216 10.7957C87.927 10.7646 87.9386 10.7349 87.9557 10.7084C87.9727 10.6819 87.9949 10.659 88.0209 10.6411C88.0469 10.6233 88.0762 10.6107 88.1071 10.6043C88.4982 10.5603 88.8942 10.6051 89.2655 10.7355C89.6368 10.866 89.9739 11.0786 90.2515 11.3576C90.2896 11.389 90.3169 11.4314 90.3297 11.4791C90.3426 11.5267 90.3403 11.5772 90.3231 11.6235C90.3059 11.6697 90.2748 11.7095 90.234 11.7373C90.1932 11.765 90.1447 11.7794 90.0954 11.7783Z" fill="#263238"/>
<path d="M77.7065 14.3843C77.7065 14.3843 80.6381 10.6113 80.7467 7.38785C80.7467 7.38785 91.2448 4.76841 90.2812 14.9069C90.2812 14.9069 92.541 6.08491 83.9701 4.66661C75.3992 3.24831 73.6145 15.8162 77.5165 20.2068C77.5165 20.2068 75.8878 16.7459 77.7065 14.3843Z" fill="#263238"/>
<path d="M78.3695 15.5719C78.4051 14.9919 78.2119 14.421 77.8312 13.982C77.4505 13.5429 76.9128 13.2707 76.3336 13.2239C74.7525 13.1696 73.5581 16.2505 77.3041 17.5738C77.813 17.7502 78.1998 17.248 78.3695 15.5719Z" fill="#E4897B"/>
<path d="M85.6302 20.356C84.9964 20.3858 84.3703 20.2068 83.848 19.8464C83.3258 19.4859 82.9363 18.9641 82.7394 18.3609C82.7224 18.2997 82.7299 18.2343 82.7603 18.1786C82.7907 18.1228 82.8416 18.0811 82.9022 18.0623C82.9325 18.0529 82.9644 18.0498 82.9959 18.053C83.0274 18.0561 83.058 18.0656 83.0859 18.0808C83.1137 18.0959 83.1382 18.1165 83.1579 18.1413C83.1777 18.1661 83.1923 18.1946 83.2008 18.2251C83.3741 18.7429 83.7168 19.1873 84.1735 19.4865C84.6303 19.7856 85.1745 19.9222 85.7185 19.8742C85.7502 19.8714 85.7822 19.875 85.8125 19.8849C85.8428 19.8947 85.8708 19.9105 85.8949 19.9314C85.919 19.9523 85.9386 19.9779 85.9526 20.0065C85.9666 20.0351 85.9746 20.0663 85.9763 20.0981C85.9802 20.1608 85.9598 20.2225 85.9194 20.2705C85.8789 20.3185 85.8216 20.3491 85.7592 20.356H85.6302Z" fill="#263238"/>
<path d="M87.5044 3.66887C87.5044 3.66887 90.7074 2.39986 90.5717 5.28396C90.436 8.16806 78.2888 15.2935 72.1406 14.8388C72.1406 14.8388 73.81 14.4045 74.3461 13.6784C73.5614 12.1416 73.3559 10.3738 73.7671 8.69793C74.1782 7.0221 75.1787 5.55016 76.5855 4.55106C82.9713 -0.484234 87.5044 3.66887 87.5044 3.66887Z" fill="#263238"/>
<path d="M80.699 15.0084C80.662 15.0104 80.6254 15.0001 80.5948 14.9793C80.5642 14.9585 80.5412 14.9282 80.5294 14.8931C80.5219 14.8726 80.5186 14.8508 80.5197 14.8291C80.5208 14.8073 80.5263 14.786 80.5358 14.7663C80.5453 14.7467 80.5586 14.7292 80.575 14.7149C80.5914 14.7005 80.6105 14.6895 80.6312 14.6827C88.8288 11.8665 89.4124 5.96932 89.4531 5.91504C89.4566 5.87124 89.4769 5.83049 89.5098 5.80138C89.5427 5.77227 89.5857 5.75705 89.6296 5.75895C89.6734 5.76408 89.7135 5.78608 89.7414 5.82029C89.7692 5.8545 89.7827 5.89822 89.7789 5.94217C89.7789 6.00325 89.1817 12.104 80.7737 14.9948L80.699 15.0084Z" fill="#263238"/>
<path d="M94.9543 29.4292C97.5534 30.5014 106.945 42.9132 106.816 47.7517C106.687 52.5902 95.4022 61.1814 95.4022 61.1814L99.8335 65.3481C99.8335 65.3481 96.074 67.8522 95.6736 67.7164C95.2732 67.5807 92.2331 62.1518 91.7377 61.1814C91.2423 60.211 93.5496 58.8402 93.5496 58.8402C93.5496 58.8402 102.921 49.6179 103.05 47.1884C103.179 44.759 93.5496 37.3825 93.5496 37.3825L94.9543 29.4292Z" fill="#E4897B"/>
<path d="M77.0818 30.5485C77.3329 32.2451 72.7251 54.2999 72.7251 54.2999L69.332 53.6213C69.332 53.6213 69.9767 31.6818 72.5283 26.5176L75.1817 26.6872L77.0818 30.5485Z" fill="#FF5C8A"/>
<path d="M86.4793 31.1053C85.122 32.8764 86.8593 56.5871 86.8593 56.5871L93.0754 56.0306L94.9551 29.4291C94.9551 29.4291 94.1001 28.3705 90.5441 27.3525L86.4793 31.1053Z" fill="#FF5C8A"/>
<path opacity="0.4" d="M77.0818 30.5485C77.3329 32.2451 72.7251 54.2999 72.7251 54.2999L69.332 53.6213C69.332 53.6213 69.9767 31.6818 72.5283 26.5176L75.1817 26.6872L77.0818 30.5485Z" fill="white"/>
<path opacity="0.4" d="M94.9542 29.4291L94.4995 35.8488L93.9566 43.5375L93.0744 56.0307L86.8583 56.5872C86.8583 56.5872 85.1143 32.8765 86.4783 31.1121L90.55 27.3594C94.0991 28.3705 94.9542 29.4291 94.9542 29.4291Z" fill="white"/>
<path d="M86.4805 31.1054C86.4805 31.1054 90.3553 24.5297 91.7397 25.2015C93.1241 25.8733 92.9205 26.6809 92.9205 26.6809C92.9205 26.6809 94.1963 26.8098 94.332 27.3595C94.4677 27.9092 91.9026 30.5965 86.4805 31.1054Z" fill="#FF5C8A"/>
<path d="M77.0792 30.549C77.0792 30.549 77.0792 24.5297 76.2106 24.204C75.342 23.8783 74.7855 25.6766 74.7855 25.6766C74.7855 25.6766 74.1747 24.3194 73.3401 25.6766C72.5054 27.0338 77.0792 30.549 77.0792 30.549Z" fill="#FF5C8A"/>
<path opacity="0.2" d="M86.4805 31.1054C86.4805 31.1054 90.3553 24.5297 91.7397 25.2015C93.1241 25.8733 92.9205 26.6809 92.9205 26.6809C92.9205 26.6809 94.1963 26.8098 94.332 27.3595C94.4677 27.9092 91.9026 30.5965 86.4805 31.1054Z" fill="white"/>
<path opacity="0.2" d="M77.0792 30.549C77.0792 30.549 77.0792 24.5297 76.2106 24.204C75.342 23.8783 74.7855 25.6766 74.7855 25.6766C74.7855 25.6766 74.1747 24.3194 73.3401 25.6766C72.5054 27.0338 77.0792 30.549 77.0792 30.549Z" fill="white"/>
<path opacity="0.2" d="M94.5023 35.8486L93.9595 43.5373C93.3203 40.7785 93.1392 37.9333 93.4234 35.1157L94.5023 35.8486Z" fill="black"/>
<path d="M94.9555 29.4292C96.8353 30.1892 107.578 42.0921 107.394 47.0731C107.211 52.0541 97.8939 59.6545 97.8939 59.6545L94.3176 57.198C94.3176 57.198 101.918 47.6974 101.558 45.3766C101.199 43.0557 94.3176 38.1833 94.3176 38.1833C94.3176 38.1833 92.9604 37.05 93.5304 33.5619C94.1005 30.0739 94.9555 29.4292 94.9555 29.4292Z" fill="#FF5C8A"/>
<path opacity="0.4" d="M94.9555 29.4292C96.8353 30.1892 107.578 42.0921 107.394 47.0731C107.211 52.0541 97.8939 59.6545 97.8939 59.6545L94.3176 57.198C94.3176 57.198 101.918 47.6974 101.558 45.3766C101.199 43.0557 94.3176 38.1833 94.3176 38.1833C94.3176 38.1833 92.9604 37.05 93.5304 33.5619C94.1005 30.0739 94.9555 29.4292 94.9555 29.4292Z" fill="white"/>
<path d="M48.0384 70.9058L50.4881 71.6862L52.6393 75.0181C52.6393 75.0181 50.7189 75.9207 49.796 75.3778C48.8731 74.8349 47.5498 73.4098 47.543 72.8737C47.6351 72.2015 47.8013 71.5415 48.0384 70.9058Z" fill="#E4897B"/>
</svg>
