<svg width="232" height="224" viewBox="0 0 232 224" fill="none" xmlns="http://www.w3.org/2000/svg">
<path d="M116 223.125C179.685 223.125 231.311 220.111 231.311 216.392C231.311 212.674 179.685 209.66 116 209.66C52.3152 209.66 0.688477 212.674 0.688477 216.392C0.688477 220.111 52.3152 223.125 116 223.125Z" fill="#F5F5F5"/>
<path d="M131.724 70.4347L132.11 70.7618C132.253 70.8867 132.413 71.0056 132.568 71.1246C132.877 71.3684 133.163 71.6123 133.52 71.8442C134.162 72.314 134.846 72.7422 135.53 73.1705C136.909 74.0208 138.355 74.7587 139.853 75.3769C141.345 76.0126 142.882 76.5373 144.451 76.947C144.843 77.054 145.248 77.1254 145.64 77.2146L146.235 77.3454C146.36 77.3454 146.235 77.3454 146.235 77.3752C146.154 77.3942 146.077 77.4285 146.009 77.4763C145.955 77.5298 145.955 77.5298 145.979 77.5179C146.097 77.3435 146.189 77.1533 146.253 76.9529C146.464 76.2667 146.593 75.5581 146.639 74.8416C146.711 74.0625 146.734 73.2418 146.728 72.4151C146.728 70.7559 146.598 69.0609 146.467 67.36C146.336 65.6591 146.128 63.9522 145.908 62.2394C145.688 60.5266 145.444 58.8138 145.188 57.1247L147.424 56.6133C148.409 60.0077 149.203 63.4546 149.803 66.9377C150.115 68.7091 150.331 70.4958 150.451 72.2903C150.521 73.2163 150.543 74.1453 150.517 75.0736C150.509 76.0983 150.379 77.1184 150.13 78.1126C149.962 78.7484 149.689 79.3515 149.321 79.8968C149.064 80.2686 148.744 80.5926 148.376 80.8543C147.953 81.1567 147.467 81.3599 146.954 81.449C146.513 81.5233 146.063 81.5233 145.622 81.449L144.938 81.336C144.48 81.2587 144.017 81.1993 143.565 81.0982C141.741 80.736 139.951 80.2228 138.212 79.5638C136.474 78.8969 134.793 78.0894 133.187 77.1492C132.384 76.6674 131.599 76.1619 130.837 75.6088C130.457 75.3353 130.082 75.0141 129.707 74.7524C129.523 74.5978 129.339 74.4491 129.154 74.2826C128.97 74.1161 128.797 73.9793 128.56 73.7533L131.724 70.4347Z" fill="#E4897B"/>
<path d="M125.259 67.7292C131.801 66.8431 137.058 72.1183 137.058 72.1183L131.075 81.3485C131.075 81.3485 124.664 77.2449 123.534 74.4496C122.368 71.5414 121.91 68.1634 125.259 67.7292Z" fill="#FF5C8A"/>
<path opacity="0.6" d="M125.259 67.7292C131.801 66.8431 137.058 72.1183 137.058 72.1183L131.075 81.3485C131.075 81.3485 124.664 77.2449 123.534 74.4496C122.368 71.5414 121.91 68.1634 125.259 67.7292Z" fill="#FAFAFA"/>
<path d="M145.241 57.9283L143.07 53.5749L148.762 53.5273C148.762 53.5273 148.875 56.5664 147.436 58.2852L145.241 57.9283Z" fill="#E4897B"/>
<path d="M144.081 48.8945L148.316 49.6498L148.762 53.5274L143.07 53.575L144.081 48.8945Z" fill="#E4897B"/>
<path d="M102.123 211.415L107.452 211.927L111.139 199.414L105.81 198.896L102.123 211.415Z" fill="#E4897B"/>
<path d="M68.2422 192.906L72.1912 196.617L80.7195 187.244L76.7706 183.533L68.2422 192.906Z" fill="#E4897B"/>
<path d="M74.018 194.839L71.0444 189.487C70.9939 189.395 70.9119 189.324 70.8135 189.288C70.7151 189.252 70.607 189.253 70.5091 189.29L65.9357 191.027C65.8225 191.075 65.7207 191.147 65.6369 191.238C65.5532 191.328 65.4893 191.435 65.4495 191.552C65.4097 191.668 65.3949 191.792 65.4059 191.915C65.4169 192.037 65.4535 192.156 65.5134 192.264C66.578 194.108 67.1906 194.946 68.4871 197.295C69.2899 198.746 70.866 202.053 71.9662 204.063C73.0665 206.073 75.1064 205.068 74.8268 204.141C73.5541 199.978 73.798 197.64 74.1548 195.814C74.2264 195.483 74.1779 195.138 74.018 194.839V194.839Z" fill="#1C2D5E"/>
<path d="M108.077 210.303H101.619C101.503 210.304 101.391 210.343 101.3 210.414C101.209 210.485 101.143 210.584 101.113 210.695L99.7037 215.804C99.6705 215.925 99.6658 216.052 99.6901 216.175C99.7145 216.298 99.7671 216.414 99.8438 216.513C99.9205 216.612 100.019 216.692 100.132 216.747C100.245 216.801 100.369 216.829 100.495 216.827C102.772 216.827 103.849 216.827 106.692 216.827H115.369C117.748 216.827 118.223 214.448 117.248 214.222C112.871 213.259 110.343 211.92 108.993 210.654C108.743 210.426 108.416 210.3 108.077 210.303V210.303Z" fill="#1C2D5E"/>
<path d="M111.141 199.414L109.238 205.867H103.755L105.807 198.902L111.141 199.414Z" fill="#CE6F64"/>
<path d="M76.7651 183.539L80.7201 187.244L76.3191 192.073L72.3701 188.368L76.7651 183.539Z" fill="#CE6F64"/>
<path d="M131.705 64.0362C131.664 59.7126 127.75 58.202 127.75 58.202C127.75 58.202 132.645 48.9361 130.129 42.7867C127.614 36.6372 119.323 35.5548 116.694 38.4273C112.073 38.2311 110.604 44.8682 110.604 44.8682C110.604 44.8682 106.739 45.5165 105.698 48.3295C104.657 51.1426 107.827 54.3125 107.827 54.3125C107.827 54.3125 103.414 54.9072 101.791 58.3031C100.167 61.699 101.166 66.207 106.043 70.0965C113.132 75.7464 126.162 68.6573 126.162 68.6573C126.162 68.6573 131.753 69.0081 131.705 64.0362Z" fill="#1C2D5E"/>
<path d="M130.867 68.3364C130.867 68.3364 133.246 69.3772 125.301 100.761L103.296 98.8518C104.438 89.931 104.931 84.3881 102.237 65.6185C105.377 65.2473 108.539 65.1061 111.699 65.1963C115.05 65.2468 118.393 65.535 121.703 66.0586C124.794 66.6644 127.852 67.4246 130.867 68.3364V68.3364Z" fill="#FF5C8A"/>
<path opacity="0.6" d="M130.867 68.3364C130.867 68.3364 133.246 69.3772 125.301 100.761L103.296 98.8518C104.438 89.931 104.931 84.3881 102.237 65.6185C105.377 65.2473 108.539 65.1061 111.699 65.1963C115.05 65.2468 118.393 65.535 121.703 66.0586C124.794 66.6644 127.852 67.4246 130.867 68.3364V68.3364Z" fill="#FAFAFA"/>
<path d="M125.164 66.8011C124.022 66.5276 122.785 66.2659 121.655 66.0577C118.345 65.532 115.002 65.2419 111.651 65.1894C110.504 65.1478 109.356 65.1478 108.279 65.1894L109.017 66.593C109.148 66.8428 112.288 72.7008 118.253 76.0253L119.894 76.9412L121.423 75.8529C125.277 73.0993 125.848 69.519 125.164 66.8011Z" fill="#FAFAFA"/>
<path d="M113.619 54.0156C113.97 57.2926 114.089 63.2458 111.656 65.1965C111.656 65.1965 114.44 70.4836 119.709 73.4156C124.371 70.097 121.66 66.0588 121.66 66.0588C118.145 64.8694 118.466 62.2407 119.281 59.7904L113.619 54.0156Z" fill="#E4897B"/>
<path d="M115.933 56.3691L119.299 59.7888C119.094 60.3571 118.939 60.9421 118.835 61.5373C117.485 61.2221 115.523 59.8126 115.499 58.3615C115.526 57.6771 115.673 57.0027 115.933 56.3691V56.3691Z" fill="#CE6F64"/>
<path d="M113.477 46.5802C112.829 51.9327 112.443 54.1986 114.625 57.4161C117.908 62.2453 124.64 61.8646 126.871 56.8214C128.881 52.2658 129.6 44.2608 124.789 41.1979C123.734 40.5189 122.523 40.1205 121.271 40.0404C120.019 39.9603 118.768 40.2012 117.635 40.7402C116.502 41.2792 115.526 42.0985 114.798 43.1205C114.071 44.1425 113.616 45.3333 113.477 46.5802V46.5802Z" fill="#E4897B"/>
<path d="M117.629 39.9844C121.762 41.0549 117.676 53.6274 111.087 49.9817C111.087 49.9817 111.384 44.6708 113.216 42.4168C114.324 41.0739 115.902 40.204 117.629 39.9844Z" fill="#1C2D5E"/>
<path d="M117.188 40.6819C118.973 43.5842 132.205 49.0854 127.757 42.8407C123.308 36.5961 117.188 40.6819 117.188 40.6819Z" fill="#1C2D5E"/>
<path d="M111.777 51.2144C111.702 52.2571 112.042 53.2871 112.722 54.081C113.638 55.1218 114.845 54.4913 115.226 53.2305C115.565 52.1005 115.5 50.1974 114.28 49.6146C114.011 49.4959 113.717 49.4456 113.424 49.4681C113.131 49.4906 112.848 49.5853 112.6 49.7436C112.352 49.9019 112.147 50.1191 112.004 50.3757C111.86 50.6323 111.782 50.9204 111.777 51.2144Z" fill="#E4897B"/>
<path d="M125.275 100.761C125.275 100.761 132.727 133.732 127.755 156.974C124.425 172.544 112.405 203.993 112.405 203.993L103.009 203.756C103.009 203.756 112.102 170.748 113.987 157.771C117.205 135.564 109.146 99.3633 109.146 99.3633L125.275 100.761Z" fill="#1C2D5E"/>
<path d="M116.684 107.416L111.985 114.826C113.401 123.613 114.299 132.476 114.674 141.369C121.281 129.54 118.153 113.678 116.684 107.416Z" fill="#1C2D5E"/>
<path d="M113.18 204.481L101.571 204.183L102.243 200.621L114.917 201.222L113.18 204.481Z" fill="#FF5C8A"/>
<path opacity="0.6" d="M113.18 204.481L101.571 204.183L102.243 200.621L114.917 201.222L113.18 204.481Z" fill="#FAFAFA"/>
<path d="M120.459 100.404C120.459 100.404 116.088 135.374 106.608 154.464C98.9542 169.862 78.5313 191.867 78.5313 191.867L73.3096 186.484C73.3096 186.484 87.1072 162.63 92.7987 152.383C106.751 127.267 95.3442 108.105 103.254 98.8574L120.459 100.404Z" fill="#1C2D5E"/>
<path d="M79.0557 192.556L72.3115 185.984L74.5536 182.939L81.8985 190.534L79.0557 192.556Z" fill="#FF5C8A"/>
<path opacity="0.6" d="M79.0557 192.556L72.3115 185.984L74.5536 182.939L81.8985 190.534L79.0557 192.556Z" fill="#FAFAFA"/>
<path d="M103.027 97.531L101.867 99.4163C101.772 99.565 101.945 99.7374 102.194 99.7553L125.3 101.754C125.502 101.754 125.674 101.688 125.698 101.563L126.067 99.6125C126.067 99.4758 125.93 99.3449 125.71 99.3271L103.402 97.3942C103.333 97.3827 103.262 97.3892 103.196 97.4132C103.131 97.4372 103.072 97.4778 103.027 97.531V97.531Z" fill="#FF5C8A"/>
<path opacity="0.3" d="M103.027 97.531L101.867 99.4163C101.772 99.565 101.945 99.7374 102.194 99.7553L125.3 101.754C125.502 101.754 125.674 101.688 125.698 101.563L126.067 99.6125C126.067 99.4758 125.93 99.3449 125.71 99.3271L103.402 97.3942C103.333 97.3827 103.262 97.3892 103.196 97.4132C103.131 97.4372 103.072 97.4778 103.027 97.531V97.531Z" fill="black"/>
<path d="M105.812 100.278L105.217 100.225C105.098 100.225 105.015 100.147 105.027 100.07L105.532 97.5366C105.532 97.4593 105.657 97.4058 105.776 97.4177L106.371 97.4712C106.49 97.4712 106.573 97.5485 106.561 97.6258L106.061 100.159C106.038 100.243 105.93 100.278 105.812 100.278Z" fill="#1C2D5E"/>
<path d="M123.606 101.825L123.011 101.772C122.892 101.772 122.809 101.694 122.82 101.617L123.326 99.0775C123.326 99.0062 123.451 98.9527 123.57 98.9646L124.165 99.0181C124.283 99.0181 124.367 99.0954 124.355 99.1668L123.855 101.706C123.831 101.784 123.73 101.831 123.606 101.825Z" fill="#1C2D5E"/>
<path d="M114.709 101.052L114.114 101.004C113.995 101.004 113.912 100.921 113.924 100.849L114.43 98.31C114.43 98.2386 114.554 98.1851 114.673 98.197L115.268 98.2446C115.387 98.2446 115.47 98.3278 115.458 98.3992L114.959 100.939C114.935 101.01 114.81 101.064 114.709 101.052Z" fill="#1C2D5E"/>
<path d="M121.25 49.5362C121.173 49.9644 121.34 50.3569 121.619 50.4105C121.899 50.464 122.214 50.1547 122.273 49.7206C122.333 49.2864 122.19 48.8939 121.905 48.8463C121.619 48.7988 121.351 49.1318 121.25 49.5362Z" fill="#1C2D5E"/>
<path d="M126.109 50.4292C126.031 50.8574 126.198 51.2499 126.478 51.3034C126.757 51.3569 127.072 51.0477 127.132 50.6135C127.191 50.1794 127.048 49.7869 126.763 49.7393C126.478 49.6917 126.216 49.995 126.109 50.4292Z" fill="#1C2D5E"/>
<path d="M126.663 49.7262L127.751 49.6191C127.751 49.6191 127.073 50.3209 126.663 49.7262Z" fill="#1C2D5E"/>
<path d="M124.705 50.916C124.913 51.9714 125.263 52.9938 125.746 53.9551C125.497 54.0715 125.225 54.1318 124.949 54.1318C124.674 54.1318 124.402 54.0715 124.152 53.9551L124.705 50.916Z" fill="#DE5753"/>
<path d="M122.345 55.3829C121.765 55.293 121.214 55.0651 120.74 54.7184C120.266 54.3717 119.883 53.9164 119.621 53.3906C119.611 53.3645 119.612 53.3356 119.623 53.3101C119.634 53.2846 119.655 53.2644 119.681 53.2538C119.693 53.2479 119.707 53.2447 119.72 53.2442C119.734 53.2437 119.748 53.2461 119.761 53.2511C119.773 53.2561 119.785 53.2637 119.795 53.2733C119.805 53.283 119.812 53.2946 119.817 53.3073C120.068 53.7974 120.431 54.2215 120.876 54.5449C121.322 54.8684 121.837 55.0822 122.381 55.1688C122.409 55.1688 122.436 55.1801 122.456 55.2002C122.476 55.2202 122.488 55.2475 122.488 55.2758C122.488 55.3042 122.476 55.3315 122.456 55.3515C122.436 55.3716 122.409 55.3829 122.381 55.3829H122.345Z" fill="#1C2D5E"/>
<path d="M120.09 46.1585C120.045 46.1594 120 46.1457 119.963 46.1196C119.926 46.0934 119.898 46.0561 119.883 46.0131C119.869 45.97 119.868 45.9234 119.882 45.8801C119.896 45.8367 119.923 45.7988 119.959 45.7719C120.273 45.5196 120.642 45.3462 121.036 45.2665C121.431 45.1868 121.839 45.2031 122.225 45.314C122.252 45.3233 122.276 45.3378 122.297 45.3566C122.318 45.3754 122.335 45.3982 122.347 45.4236C122.36 45.449 122.367 45.4766 122.368 45.5047C122.37 45.5329 122.366 45.561 122.356 45.5876C122.347 45.6141 122.332 45.6386 122.313 45.6596C122.295 45.6805 122.272 45.6976 122.246 45.7098C122.221 45.7219 122.194 45.7289 122.165 45.7304C122.137 45.7319 122.109 45.7278 122.083 45.7184C121.763 45.6307 121.428 45.6205 121.104 45.6888C120.78 45.7571 120.478 45.9018 120.221 46.1109C120.183 46.1395 120.138 46.156 120.09 46.1585V46.1585Z" fill="#1C2D5E"/>
<path d="M128.892 48.7864C128.861 48.7863 128.829 48.7793 128.801 48.7659C128.772 48.7526 128.746 48.7332 128.726 48.7091C128.523 48.4471 128.261 48.2368 127.961 48.0952C127.661 47.9536 127.332 47.8848 127.001 47.8943C126.945 47.8994 126.888 47.8824 126.844 47.847C126.8 47.8115 126.771 47.7603 126.763 47.704C126.76 47.6762 126.762 47.648 126.77 47.6211C126.778 47.5942 126.791 47.5692 126.809 47.5475C126.827 47.5259 126.849 47.508 126.874 47.4951C126.898 47.4821 126.926 47.4743 126.953 47.4721C127.356 47.4513 127.758 47.5281 128.124 47.6958C128.491 47.8636 128.811 48.1173 129.059 48.4355C129.098 48.4764 129.119 48.5307 129.119 48.5872C129.119 48.6436 129.098 48.6979 129.059 48.7388C129.011 48.775 128.952 48.792 128.892 48.7864Z" fill="#1C2D5E"/>
<path d="M103.86 73.5156C102.966 75.2903 101.973 77.0137 100.887 78.6778C99.8161 80.3193 98.6861 81.925 97.4669 83.4713C96.235 85.0231 94.9145 86.5025 93.512 87.902C92.7864 88.586 92.0787 89.2818 91.2996 89.9241L90.7049 90.4118L90.5621 90.5307L90.3718 90.6794C90.2464 90.7817 90.1153 90.877 89.9793 90.9649C89.4386 91.3353 88.8505 91.6314 88.2308 91.8451C87.0638 92.2257 85.8308 92.3613 84.6089 92.2435C83.5144 92.1341 82.4366 91.8965 81.3974 91.5358C79.4725 90.8642 77.637 89.9594 75.9319 88.8417C72.6512 86.7136 69.6295 84.2108 66.9277 81.3838L68.5097 79.7245C69.9311 80.8664 71.4298 82.0023 72.9642 83.0312C74.4671 84.084 76.0321 85.0452 77.6506 85.9097C79.1916 86.7562 80.8185 87.4361 82.5036 87.9377C84.1094 88.3837 85.7211 88.4611 86.8332 87.9972C87.4616 87.7239 88.0235 87.3182 88.4806 86.8077C89.1407 86.213 89.7533 85.5529 90.3778 84.9106C91.597 83.5843 92.7269 82.1629 93.8391 80.7475C94.9512 79.332 95.9563 77.7738 96.9317 76.2275C97.4253 75.4544 97.8951 74.6694 98.359 73.8843C98.8229 73.0993 99.2689 72.2726 99.6555 71.5352L103.86 73.5156Z" fill="#E4897B"/>
<path d="M70.014 80.4319L67.8968 76.0547L64.376 80.527C64.376 80.527 66.7073 82.4718 68.9732 82.4004L70.014 80.4319Z" fill="#E4897B"/>
<path d="M65.5831 74.7773L63.5908 78.5895L64.3759 80.5283L67.8966 76.056L65.5831 74.7773Z" fill="#E4897B"/>
<path d="M102.189 65.6171C99.4886 66.0929 95.7002 73.8422 95.7002 73.8422L103.116 80.5448C103.116 80.5448 107.922 74.092 107.636 70.5712C107.393 67.5678 105.626 65.0105 102.189 65.6171Z" fill="#FF5C8A"/>
<path opacity="0.6" d="M102.189 65.6171C99.4886 66.0929 95.7002 73.8422 95.7002 73.8422L103.116 80.5448C103.116 80.5448 107.922 74.092 107.636 70.5712C107.393 67.5678 105.626 65.0105 102.189 65.6171Z" fill="#FAFAFA"/>
<path d="M75.0582 197.713C74.9873 197.714 74.9168 197.702 74.8501 197.678C74.2018 197.464 73.7795 196.268 73.5833 195.572C73.5774 195.552 73.5777 195.531 73.5841 195.51C73.5904 195.49 73.6026 195.473 73.619 195.459C73.6371 195.449 73.6576 195.443 73.6784 195.443C73.6993 195.443 73.7198 195.449 73.7379 195.459C73.9342 195.56 75.6589 196.488 75.7124 197.166C75.7205 197.241 75.7075 197.316 75.6749 197.383C75.6423 197.45 75.5914 197.507 75.528 197.547C75.3941 197.653 75.2289 197.711 75.0582 197.713V197.713ZM73.8688 195.763C74.1661 196.72 74.5527 197.351 74.9214 197.475C75.0055 197.501 75.0947 197.503 75.1802 197.484C75.2657 197.464 75.3446 197.422 75.4091 197.362C75.4416 197.343 75.4678 197.315 75.4847 197.281C75.5016 197.248 75.5084 197.21 75.5043 197.172C75.4686 196.756 74.4575 196.096 73.8628 195.763H73.8688Z" fill="#FF5C8A"/>
<path d="M75.3247 196.029C74.7368 196.027 74.1571 195.89 73.6298 195.631C73.6131 195.622 73.5992 195.61 73.5897 195.594C73.5802 195.578 73.5755 195.56 73.5762 195.541C73.5764 195.521 73.582 195.502 73.5925 195.485C73.603 195.469 73.618 195.455 73.6357 195.446C73.6892 195.446 75.0571 194.667 75.7946 194.929C75.8853 194.958 75.9682 195.008 76.0371 195.074C76.1061 195.14 76.1594 195.22 76.193 195.309C76.24 195.395 76.2562 195.495 76.2389 195.591C76.2216 195.687 76.1718 195.775 76.0979 195.839C75.8678 195.985 75.5963 196.052 75.3247 196.029V196.029ZM73.9212 195.541C74.5159 195.791 75.6399 195.946 75.9611 195.672C76.0146 195.631 76.0622 195.553 75.9968 195.387C75.9732 195.326 75.9363 195.272 75.889 195.228C75.8416 195.184 75.785 195.15 75.7232 195.131C75.2177 194.953 74.3078 195.351 73.9212 195.541Z" fill="#FF5C8A"/>
<path d="M110.944 211.35C110.343 211.336 109.745 211.261 109.159 211.124C109.137 211.119 109.117 211.107 109.102 211.09C109.087 211.073 109.078 211.052 109.076 211.029C109.073 211.007 109.077 210.985 109.088 210.965C109.099 210.946 109.115 210.931 109.136 210.922C109.403 210.797 111.741 209.732 112.335 210.113C112.388 210.15 112.431 210.2 112.458 210.259C112.485 210.317 112.496 210.382 112.49 210.446C112.483 210.563 112.45 210.676 112.395 210.779C112.34 210.882 112.262 210.971 112.169 211.041C111.801 211.265 111.374 211.373 110.944 211.35V211.35ZM109.552 210.981C110.248 211.112 111.532 211.279 112.062 210.88C112.132 210.828 112.189 210.761 112.23 210.684C112.272 210.607 112.295 210.521 112.3 210.434C112.303 210.407 112.299 210.38 112.289 210.355C112.279 210.33 112.262 210.308 112.24 210.291C111.907 210.065 110.521 210.553 109.552 210.981Z" fill="#FF5C8A"/>
<path d="M109.208 211.124C109.185 211.133 109.159 211.133 109.137 211.124C109.122 211.111 109.111 211.094 109.104 211.075C109.098 211.056 109.097 211.036 109.101 211.017C109.101 210.922 109.66 208.608 110.927 208.757C111.248 208.793 111.331 208.953 111.349 209.078C111.432 209.673 109.951 210.862 109.25 211.142L109.208 211.124ZM110.814 208.941C109.999 208.941 109.529 210.285 109.369 210.827C110.136 210.422 111.188 209.459 111.153 209.084C111.153 209.054 111.153 208.971 110.921 208.947L110.814 208.941Z" fill="#FF5C8A"/>
<path d="M121.779 48.8474L122.868 48.7344C122.868 48.7344 122.19 49.448 121.779 48.8474Z" fill="#1C2D5E"/>
<path opacity="0.6" d="M77.0389 14.9531L59.6074 127.636L157.69 142.789L175.121 30.1008L77.0389 14.9531ZM117.337 79.0468C112.836 78.35 108.641 76.3336 105.286 73.2526C101.93 70.1717 99.5635 66.1646 98.4856 61.7384C97.4077 57.3122 97.6669 52.6658 99.2303 48.3869C100.794 44.108 103.591 40.389 107.269 37.7004C110.946 35.0117 115.339 33.4743 119.89 33.2825C124.442 33.0907 128.948 34.2533 132.838 36.6231C136.729 38.9928 139.829 42.4633 141.747 46.5955C143.665 50.7277 144.314 55.3359 143.612 59.8371C142.672 65.8672 139.377 71.2775 134.45 74.8794C129.524 78.4813 123.369 79.9802 117.337 79.0468Z" fill="#FF5C8A"/>
<g style="mix-blend-mode:multiply" opacity="0.3">
<path d="M154.727 138.513H154.579L56.3477 123.294V123.146L73.8267 10.332H73.9694L172.2 25.5511V25.6998L154.727 138.513ZM56.6867 123.05L154.477 138.174L171.861 25.7711L74.0705 10.671L56.6867 123.05Z" fill="#FF5C8A"/>
</g>
<path d="M120.87 80.2118C119.641 80.2104 118.415 80.115 117.201 79.9263V79.9263C111.099 78.9745 105.604 75.6966 101.867 70.7804C98.1306 65.8642 96.4433 59.6919 97.1592 53.5584C97.8751 47.425 100.939 41.8073 105.707 37.8839C110.476 33.9605 116.578 32.0364 122.735 32.5154C128.891 32.9943 134.623 35.839 138.727 40.4527C142.832 45.0664 144.99 51.0903 144.748 57.2607C144.507 63.431 141.885 69.2681 137.433 73.5473C132.981 77.8264 127.045 80.215 120.87 80.2118ZM117.474 78.166C121.799 78.8342 126.226 78.2049 130.193 76.3578C134.161 74.5107 137.491 71.5286 139.764 67.7887C142.037 64.0487 143.15 59.7187 142.962 55.3463C142.775 50.9739 141.295 46.7553 138.71 43.2239C136.124 39.6925 132.55 37.0069 128.439 35.5067C124.328 34.0065 119.864 33.759 115.612 34.7955C111.36 35.832 107.511 38.106 104.551 41.33C101.591 44.5539 99.6541 48.5831 98.9841 52.9079C98.0936 58.7083 99.5401 64.625 103.006 69.3602C106.473 74.0953 111.676 77.2622 117.474 78.166V78.166Z" fill="#FAFAFA"/>
<path d="M98.3915 86.0186L76.7861 82.6777L76.0354 87.5325L97.6408 90.8733L98.3915 86.0186Z" fill="#FF5C8A"/>
<path opacity="0.6" d="M98.3915 86.0186L76.7861 82.6777L76.0354 87.5325L97.6408 90.8733L98.3915 86.0186Z" fill="#FAFAFA"/>
<path d="M115.854 88.7192L101.237 86.459L100.487 91.3137L115.104 93.574L115.854 88.7192Z" fill="#FF5C8A"/>
<path opacity="0.6" d="M115.854 88.7192L101.237 86.459L100.487 91.3137L115.104 93.574L115.854 88.7192Z" fill="#FAFAFA"/>
<path d="M153.389 104.597L75.2607 92.5156L74.5101 97.3704L152.638 109.451L153.389 104.597Z" fill="#FAFAFA"/>
<path d="M113.152 108.676L74.2334 102.779L73.4965 107.643L112.415 113.539L113.152 108.676Z" fill="#FAFAFA"/>
<path d="M145.156 113.892L119.166 109.873L118.415 114.728L144.405 118.747L145.156 113.892Z" fill="#FAFAFA"/>
<path d="M134.531 122.822L72.0713 113.164L71.3206 118.019L133.78 127.677L134.531 122.822Z" fill="#FAFAFA"/>
<path d="M176.167 142.789H175.573C175.575 141.313 175.393 139.842 175.031 138.411L175.626 138.269C175.994 139.747 176.176 141.265 176.167 142.789V142.789ZM173.836 135.105C172.527 132.366 170.549 130.002 168.085 128.23L168.43 127.748C170.975 129.575 173.02 132.013 174.377 134.837L173.836 135.105Z" fill="#FF5C8A"/>
<path opacity="0.6" d="M176.167 142.789H175.573C175.575 141.313 175.393 139.842 175.031 138.411L175.626 138.269C175.994 139.747 176.176 141.265 176.167 142.789V142.789ZM173.836 135.105C172.527 132.366 170.549 130.002 168.085 128.23L168.43 127.748C170.975 129.575 173.02 132.013 174.377 134.837L173.836 135.105Z" fill="#FAFAFA"/>
<path d="M157.69 126.393C154.447 126.393 151.277 127.354 148.58 129.156C145.884 130.958 143.782 133.518 142.541 136.514C141.3 139.511 140.975 142.807 141.608 145.988C142.241 149.169 143.802 152.09 146.095 154.383C148.389 156.676 151.31 158.238 154.491 158.871C157.671 159.503 160.968 159.179 163.964 157.938C166.96 156.697 169.521 154.595 171.323 151.899C173.125 149.202 174.086 146.032 174.086 142.789C174.086 138.441 172.359 134.27 169.284 131.195C166.209 128.12 162.038 126.393 157.69 126.393ZM157.69 157.063C154.867 157.063 152.107 156.225 149.76 154.657C147.412 153.089 145.583 150.86 144.503 148.251C143.422 145.643 143.14 142.773 143.69 140.005C144.241 137.236 145.601 134.693 147.597 132.696C149.593 130.7 152.136 129.341 154.905 128.79C157.674 128.239 160.544 128.522 163.152 129.602C165.76 130.683 167.989 132.512 169.557 134.859C171.126 137.207 171.963 139.966 171.963 142.789C171.963 146.575 170.459 150.205 167.782 152.882C165.106 155.559 161.475 157.063 157.69 157.063Z" fill="#FF5C8A"/>
<path opacity="0.6" d="M157.69 126.393C154.447 126.393 151.277 127.354 148.58 129.156C145.884 130.958 143.782 133.518 142.541 136.514C141.3 139.511 140.975 142.807 141.608 145.988C142.241 149.169 143.802 152.09 146.095 154.383C148.389 156.676 151.31 158.238 154.491 158.871C157.671 159.503 160.968 159.179 163.964 157.938C166.96 156.697 169.521 154.595 171.323 151.899C173.125 149.202 174.086 146.032 174.086 142.789C174.086 138.441 172.359 134.27 169.284 131.195C166.209 128.12 162.038 126.393 157.69 126.393ZM157.69 157.063C154.867 157.063 152.107 156.225 149.76 154.657C147.412 153.089 145.583 150.86 144.503 148.251C143.422 145.643 143.14 142.773 143.69 140.005C144.241 137.236 145.601 134.693 147.597 132.696C149.593 130.7 152.136 129.341 154.905 128.79C157.674 128.239 160.544 128.522 163.152 129.602C165.76 130.683 167.989 132.512 169.557 134.859C171.126 137.207 171.963 139.966 171.963 142.789C171.963 146.575 170.459 150.205 167.782 152.882C165.106 155.559 161.475 157.063 157.69 157.063Z" fill="#FAFAFA"/>
<path d="M157.688 157.056C165.568 157.056 171.956 150.669 171.956 142.789C171.956 134.909 165.568 128.521 157.688 128.521C149.809 128.521 143.421 134.909 143.421 142.789C143.421 150.669 149.809 157.056 157.688 157.056Z" fill="#FF5C8A"/>
<path d="M157.688 157.056C165.568 157.056 171.956 150.669 171.956 142.789C171.956 134.909 165.568 128.521 157.688 128.521C149.809 128.521 143.421 134.909 143.421 142.789C143.421 150.669 149.809 157.056 157.688 157.056Z" fill="#1C2D5E"/>
<path d="M155.47 151.818L147.097 143.444L149.202 141.345L155.47 147.613L166.181 136.902L168.281 139.008L155.47 151.818Z" fill="#FAFAFA"/>
</svg>
