<svg width="121" height="207" viewBox="0 0 121 207" fill="none" xmlns="http://www.w3.org/2000/svg">
  <path d="M75.9647 60.5832L76.3513 60.9102C76.494 61.0351 76.6546 61.1541 76.8092 61.273C77.1185 61.5169 77.404 61.7607 77.7608 61.9927C78.4031 62.4625 79.087 62.8907 79.771 63.3189C81.1506 64.1693 82.5965 64.9071 84.0946 65.5253C85.5864 66.161 87.1229 66.6858 88.6919 67.0954C89.0844 67.2025 89.4888 67.2738 89.8813 67.363L90.476 67.4939C90.6009 67.4939 90.476 67.4939 90.476 67.5236C90.395 67.5426 90.3183 67.5769 90.25 67.6247C90.1965 67.6782 90.1965 67.6782 90.2203 67.6663C90.3379 67.492 90.43 67.3017 90.4939 67.1013C90.7049 66.4151 90.8347 65.7065 90.8805 64.9901C90.9518 64.211 90.9756 63.3903 90.9697 62.5636C90.9697 60.9043 90.8388 59.2093 90.708 57.5084C90.5772 55.8075 90.369 54.1006 90.1489 52.3878C89.9289 50.675 89.685 48.9622 89.4293 47.2732L91.6655 46.7617C92.6504 50.1561 93.4446 53.603 94.0444 57.0862C94.3559 58.8575 94.5723 60.6442 94.6926 62.4387C94.7625 63.3647 94.7843 64.2937 94.7581 65.222C94.7497 66.2467 94.62 67.2669 94.3715 68.2611C94.2035 68.8968 93.9301 69.4999 93.5627 70.0452C93.3056 70.417 92.9856 70.741 92.6171 71.0027C92.1939 71.3051 91.7081 71.5083 91.1957 71.5975C90.7547 71.6718 90.3044 71.6718 89.8635 71.5975L89.1795 71.4845C88.7216 71.4072 88.2577 71.3477 87.8057 71.2466C85.9821 70.8844 84.1917 70.3712 82.4532 69.7122C80.7152 69.0453 79.0344 68.2378 77.4277 67.2976C76.6249 66.8159 75.8398 66.3104 75.0786 65.7573C74.698 65.4837 74.3233 65.1625 73.9486 64.9009C73.7642 64.7462 73.5799 64.5975 73.3955 64.431C73.2111 64.2645 73.0387 64.1277 72.8008 63.9017L75.9647 60.5832Z" fill="#E4897B"/>
  <path d="M69.4997 57.8777C76.0417 56.9915 81.2991 62.2667 81.2991 62.2667L75.3161 71.4969C75.3161 71.4969 68.905 67.3933 67.775 64.5981C66.6094 61.6899 66.1514 58.3118 69.4997 57.8777Z" fill="#FF5C8A"/>
  <path opacity="0.6" d="M69.4997 57.8777C76.0417 56.9915 81.2991 62.2667 81.2991 62.2667L75.3161 71.4969C75.3161 71.4969 68.905 67.3933 67.775 64.5981C66.6094 61.6899 66.1514 58.3118 69.4997 57.8777Z" fill="#FAFAFA"/>
  <path d="M89.4813 48.0768L87.3105 43.7234L93.0021 43.6758C93.0021 43.6758 93.1151 46.7148 91.6758 48.4336L89.4813 48.0768Z" fill="#E4897B"/>
  <path d="M88.3216 39.043L92.556 39.7983L93.0021 43.6759L87.3105 43.7235L88.3216 39.043Z" fill="#E4897B"/>
  <path d="M46.3633 201.562L51.692 202.073L55.3793 189.56L50.0506 189.043L46.3633 201.562Z" fill="#E4897B"/>
  <path d="M12.4824 183.056L16.4314 186.768L24.9598 177.395L21.0108 173.684L12.4824 183.056Z" fill="#E4897B"/>
  <path d="M18.2583 184.988L15.2846 179.635C15.2341 179.543 15.1521 179.473 15.0537 179.437C14.9554 179.401 14.8472 179.401 14.7494 179.439L10.1759 181.175C10.0627 181.224 9.9609 181.296 9.87715 181.386C9.79341 181.476 9.72957 181.583 9.68977 181.7C9.64996 181.817 9.63509 181.94 9.6461 182.063C9.65711 182.186 9.69375 182.305 9.75367 182.412C10.8182 184.256 11.4308 185.095 12.7273 187.444C13.5302 188.895 15.1062 192.202 16.2065 194.212C17.3067 196.222 19.3466 195.217 19.0671 194.289C17.7944 190.126 18.0382 187.789 18.395 185.963C18.4666 185.632 18.4181 185.286 18.2583 184.988Z" fill="#263238"/>
  <path d="M52.3167 200.453H45.858C45.7424 200.454 45.6304 200.493 45.5391 200.564C45.4479 200.635 45.3823 200.734 45.3524 200.846L43.9429 205.954C43.9097 206.075 43.9051 206.202 43.9294 206.325C43.9537 206.448 44.0063 206.564 44.083 206.663C44.1598 206.763 44.2585 206.843 44.3715 206.897C44.4844 206.952 44.6085 206.979 44.7339 206.977C47.0117 206.977 48.0882 206.977 50.931 206.977H59.608C61.9869 206.977 62.4627 204.598 61.4874 204.372C57.1102 203.409 54.5826 202.071 53.2326 200.804C52.9824 200.576 52.6553 200.451 52.3167 200.453Z" fill="#263238"/>
  <path d="M55.3806 189.562L53.4775 196.015H47.9941L50.0459 189.051L55.3806 189.562Z" fill="#CE6F64"/>
  <path d="M21.0044 173.688L24.9593 177.393L20.5584 182.222L16.6094 178.517L21.0044 173.688Z" fill="#CE6F64"/>
  <path d="M75.9455 54.1827C75.9038 49.8591 71.9906 48.3485 71.9906 48.3485C71.9906 48.3485 76.8852 39.0826 74.3695 32.9332C71.8538 26.7837 63.5633 25.7013 60.9346 28.5738C56.3136 28.3775 54.8446 35.0147 54.8446 35.0147C54.8446 35.0147 50.9789 35.6629 49.9381 38.476C48.8973 41.289 52.0672 44.4589 52.0672 44.4589C52.0672 44.4589 47.6544 45.0537 46.0308 48.4496C44.4072 51.8454 45.4063 56.3535 50.283 60.243C57.3722 65.8929 70.4026 58.8037 70.4026 58.8037C70.4026 58.8037 75.9931 59.1546 75.9455 54.1827Z" fill="#263238"/>
  <path d="M75.1086 58.4829C75.1086 58.4829 77.4875 59.5237 69.542 90.9074L47.5371 88.9983C48.679 80.0774 49.1726 74.5346 46.4785 55.765C49.618 55.3937 52.7805 55.2526 55.9406 55.3428C59.2912 55.3933 62.6341 55.6814 65.9439 56.2051C69.0349 56.8109 72.0937 57.5711 75.1086 58.4829Z" fill="#FF5C8A"/>
  <path opacity="0.6" d="M75.1086 58.4829C75.1086 58.4829 77.4875 59.5237 69.542 90.9074L47.5371 88.9983C48.679 80.0774 49.1726 74.5346 46.4785 55.765C49.618 55.3937 52.7805 55.2526 55.9406 55.3428C59.2912 55.3933 62.6341 55.6814 65.9439 56.2051C69.0349 56.8109 72.0937 57.5711 75.1086 58.4829Z" fill="#FAFAFA"/>
  <path d="M69.4038 56.9515C68.2619 56.678 67.0249 56.4163 65.8949 56.2081C62.5852 55.6824 59.2424 55.3923 55.8916 55.3398C54.7438 55.2982 53.596 55.2982 52.5195 55.3398L53.257 56.7434C53.3878 56.9932 56.528 62.8512 62.4931 66.1757L64.1345 67.0916L65.663 66.0033C69.5168 63.2497 70.0877 59.6694 69.4038 56.9515Z" fill="#FAFAFA"/>
  <path d="M57.8591 44.1641C58.21 47.441 58.3289 53.3942 55.8965 55.3449C55.8965 55.3449 58.6798 60.632 63.9491 63.564C68.6117 60.2455 65.8998 56.2073 65.8998 56.2073C62.3849 55.0178 62.7061 52.3891 63.5209 49.9388L57.8591 44.1641Z" fill="#E4897B"/>
  <path d="M60.1744 46.5195L63.5405 49.9392C63.3355 50.5075 63.1802 51.0925 63.0766 51.6877C61.7266 51.3725 59.764 49.963 59.7402 48.5119C59.7672 47.8275 59.9142 47.1531 60.1744 46.5195Z" fill="#CE6F64"/>
  <path d="M57.7166 36.7306C57.0684 42.0831 56.6818 44.349 58.8644 47.5665C62.1473 52.3957 68.8796 52.015 71.1099 46.9718C73.12 42.4162 73.8396 34.4112 69.0283 31.3483C67.9734 30.6693 66.7626 30.2709 65.5107 30.1908C64.2587 30.1107 63.007 30.3516 61.8742 30.8906C60.7414 31.4296 59.7649 32.2489 59.0374 33.2709C58.3098 34.2929 57.8552 35.4837 57.7166 36.7306Z" fill="#E4897B"/>
  <path d="M61.8682 30.1328C66.0015 31.2033 61.9157 43.7758 55.3262 40.1302C55.3262 40.1302 55.6235 34.8193 57.4553 32.5652C58.5631 31.2224 60.1412 30.3525 61.8682 30.1328Z" fill="#263238"/>
  <path d="M61.4297 30.8284C63.2139 33.7306 76.4465 39.2319 71.998 32.9872C67.5494 26.7426 61.4297 30.8284 61.4297 30.8284Z" fill="#263238"/>
  <path d="M56.0159 41.3609C55.9417 42.4036 56.2814 43.4336 56.9615 44.2275C57.8774 45.2682 59.0847 44.6378 59.4653 43.377C59.8043 42.247 59.7389 40.3439 58.5197 39.7611C58.2506 39.6424 57.9564 39.5921 57.6632 39.6146C57.37 39.6371 57.0869 39.7318 56.8391 39.8901C56.5913 40.0484 56.3865 40.2655 56.2429 40.5221C56.0993 40.7787 56.0213 41.0669 56.0159 41.3609Z" fill="#E4897B"/>
  <path d="M69.5165 90.9093C69.5165 90.9093 76.9685 123.881 71.9965 147.123C68.6661 162.693 56.6467 194.142 56.6467 194.142L47.25 193.904C47.25 193.904 56.3434 160.897 58.2286 147.92C61.4461 125.713 53.3876 89.5117 53.3876 89.5117L69.5165 90.9093Z" fill="#263238"/>
  <path d="M60.9249 97.5625L56.2266 104.973C57.6426 113.76 58.5403 122.623 58.9147 131.515C65.5221 119.686 62.3939 103.825 60.9249 97.5625Z" fill="#263238"/>
  <path d="M57.4215 194.629L45.8125 194.332L46.4845 190.77L59.1581 191.37L57.4215 194.629Z" fill="#FF5C8A"/>
  <path opacity="0.6" d="M57.4215 194.629L45.8125 194.332L46.4845 190.77L59.1581 191.37L57.4215 194.629Z" fill="#FAFAFA"/>
  <path d="M64.6987 90.5502C64.6987 90.5502 60.3275 125.52 50.8475 144.611C43.1934 160.008 22.7705 182.013 22.7705 182.013L17.5488 176.631C17.5488 176.631 31.3465 152.776 37.038 142.529C50.9903 117.414 39.5834 98.2519 47.4933 89.0039L64.6987 90.5502Z" fill="#263238"/>
  <path d="M23.2969 182.703L16.5527 176.131L18.7949 173.086L26.1397 180.681L23.2969 182.703Z" fill="#FF5C8A"/>
  <path opacity="0.6" d="M23.2969 182.703L16.5527 176.131L18.7949 173.086L26.1397 180.681L23.2969 182.703Z" fill="#FAFAFA"/>
  <path d="M47.2683 87.6775L46.1086 89.5628C46.0134 89.7114 46.1859 89.8839 46.4357 89.9018L69.5408 91.9C69.743 91.9 69.9155 91.8346 69.9393 91.7097L70.308 89.759C70.308 89.6222 70.1712 89.4914 69.9512 89.4736L47.643 87.5407C47.574 87.5292 47.5033 87.5357 47.4376 87.5597C47.3719 87.5837 47.3136 87.6242 47.2683 87.6775Z" fill="#FF5C8A"/>
  <path opacity="0.3" d="M47.2683 87.6775L46.1086 89.5628C46.0134 89.7114 46.1859 89.8839 46.4357 89.9018L69.5408 91.9C69.743 91.9 69.9155 91.8346 69.9393 91.7097L70.308 89.759C70.308 89.6222 70.1712 89.4914 69.9512 89.4736L47.643 87.5407C47.574 87.5292 47.5033 87.5357 47.4376 87.5597C47.3719 87.5837 47.3136 87.6242 47.2683 87.6775Z" fill="black"/>
  <path d="M50.0518 90.4287L49.4571 90.3752C49.3381 90.3752 49.2549 90.2978 49.2668 90.2205L49.7723 87.687C49.7723 87.6097 49.8972 87.5562 50.0161 87.5681L50.6108 87.6216C50.7298 87.6216 50.813 87.6989 50.8011 87.7762L50.3016 90.3097C50.2778 90.393 50.1707 90.4287 50.0518 90.4287Z" fill="#263238"/>
  <path d="M67.8467 91.9717L67.252 91.9181C67.133 91.9181 67.0498 91.8408 67.0617 91.7635L67.5672 89.224C67.5672 89.1527 67.6921 89.0991 67.811 89.111L68.4058 89.1646C68.5247 89.1646 68.608 89.2419 68.5961 89.3132L68.0965 91.8527C68.0727 91.93 67.9716 91.9776 67.8467 91.9717Z" fill="#263238"/>
  <path d="M58.9483 91.2001L58.3536 91.1525C58.2346 91.1525 58.1513 91.0693 58.1632 90.9979L58.6688 88.4584C58.6688 88.387 58.7937 88.3335 58.9126 88.3454L59.5073 88.393C59.6263 88.393 59.7095 88.4762 59.6976 88.5476L59.1981 91.0871C59.1743 91.1585 59.0494 91.212 58.9483 91.2001Z" fill="#263238"/>
  <path d="M65.4916 39.6866C65.4143 40.1148 65.5808 40.5073 65.8603 40.5609C66.1399 40.6144 66.4551 40.3051 66.5145 39.871C66.574 39.4368 66.4313 39.0443 66.1458 38.9967C65.8603 38.9491 65.5927 39.2822 65.4916 39.6866Z" fill="#263238"/>
  <path d="M70.349 40.5776C70.2717 41.0058 70.4382 41.3983 70.7177 41.4518C70.9973 41.5054 71.3125 41.1961 71.372 40.762C71.4314 40.3278 71.2887 39.9353 71.0032 39.8877C70.7178 39.8401 70.4561 40.1434 70.349 40.5776Z" fill="#263238"/>
  <path d="M70.9043 39.8766L71.9927 39.7695C71.9927 39.7695 71.3147 40.4713 70.9043 39.8766Z" fill="#263238"/>
  <path d="M68.9457 41.0664C69.1536 42.1218 69.5037 43.1442 69.9865 44.1055C69.7369 44.2219 69.4649 44.2822 69.1895 44.2822C68.9141 44.2822 68.6421 44.2219 68.3926 44.1055L68.9457 41.0664Z" fill="#DE5753"/>
  <path d="M66.5843 45.5294C66.0039 45.4395 65.4537 45.2116 64.9797 44.8649C64.5057 44.5182 64.1219 44.0629 63.8604 43.537C63.8506 43.511 63.8513 43.4821 63.8624 43.4566C63.8735 43.4311 63.8941 43.4108 63.9199 43.4003C63.9323 43.3944 63.9458 43.3911 63.9596 43.3907C63.9733 43.3902 63.987 43.3926 63.9998 43.3976C64.0126 43.4026 64.0242 43.4102 64.034 43.4198C64.0438 43.4295 64.0515 43.441 64.0567 43.4538C64.3073 43.9439 64.67 44.368 65.1154 44.6914C65.5608 45.0149 66.0763 45.2286 66.6199 45.3153C66.6483 45.3153 66.6755 45.3266 66.6956 45.3466C66.7157 45.3667 66.727 45.3939 66.727 45.4223C66.727 45.4507 66.7157 45.4779 66.6956 45.498C66.6755 45.5181 66.6483 45.5294 66.6199 45.5294H66.5843Z" fill="#263238"/>
  <path d="M64.3314 36.305C64.286 36.3058 64.2414 36.2922 64.2042 36.2661C64.1671 36.2399 64.1392 36.2026 64.1246 36.1596C64.11 36.1165 64.1095 36.0699 64.1232 36.0266C64.1368 35.9832 64.1639 35.9453 64.2006 35.9184C64.5139 35.6661 64.8833 35.4927 65.2777 35.413C65.672 35.3333 66.0797 35.3496 66.4665 35.4605C66.4931 35.4698 66.5175 35.4843 66.5385 35.5031C66.5595 35.5219 66.5765 35.5447 66.5887 35.5701C66.6008 35.5955 66.6079 35.6231 66.6093 35.6512C66.6108 35.6793 66.6067 35.7075 66.5973 35.734C66.588 35.7606 66.5735 35.7851 66.5547 35.8061C66.5359 35.827 66.5131 35.8441 66.4877 35.8562C66.4623 35.8684 66.4347 35.8754 66.4066 35.8769C66.3785 35.8784 66.3503 35.8743 66.3237 35.8649C66.0046 35.7772 65.6692 35.767 65.3454 35.8353C65.0216 35.9036 64.7188 36.0483 64.4623 36.2574C64.4244 36.286 64.3788 36.3025 64.3314 36.305Z" fill="#263238"/>
  <path d="M73.1325 38.9348C73.1008 38.9347 73.0695 38.9277 73.0408 38.9144C73.0121 38.901 72.9865 38.8816 72.966 38.8575C72.7629 38.5955 72.5009 38.3852 72.2012 38.2436C71.9015 38.102 71.5726 38.0332 71.2413 38.0428C71.1847 38.0478 71.1284 38.0309 71.0841 37.9954C71.0397 37.96 71.0108 37.9087 71.0034 37.8524C71.0001 37.8246 71.0025 37.7964 71.0103 37.7695C71.0182 37.7427 71.0314 37.7176 71.0492 37.696C71.067 37.6743 71.0889 37.6565 71.1137 37.6435C71.1386 37.6305 71.1658 37.6227 71.1937 37.6205C71.5963 37.5998 71.9979 37.6765 72.3644 37.8443C72.731 38.012 73.0516 38.2658 73.299 38.584C73.3379 38.6249 73.3596 38.6792 73.3596 38.7356C73.3596 38.7921 73.3379 38.8464 73.299 38.8873C73.2515 38.9235 73.192 38.9405 73.1325 38.9348Z" fill="#263238"/>
  <path d="M48.1004 63.664C47.206 65.4387 46.2132 67.1621 45.1268 68.8263C44.0563 70.4677 42.9263 72.0735 41.7071 73.6198C40.4752 75.1715 39.1547 76.6509 37.7522 78.0505C37.0267 78.7344 36.3189 79.4302 35.5398 80.0725L34.9451 80.5602L34.8024 80.6791L34.6121 80.8278C34.4866 80.9302 34.3556 81.0255 34.2195 81.1133C33.6788 81.4838 33.0907 81.7798 32.471 81.9935C31.304 82.3741 30.071 82.5097 28.8492 82.392C27.7547 82.2825 26.6768 82.045 25.6377 81.6842C23.7127 81.0126 21.8772 80.1079 20.1721 78.9901C16.8915 76.862 13.8697 74.3592 11.168 71.5323L12.7499 69.873C14.1713 71.0148 15.67 72.1508 17.2044 73.1797C18.7073 74.2324 20.2723 75.1936 21.8909 76.0581C23.4319 76.9046 25.0587 77.5845 26.7438 78.0861C28.3496 78.5322 29.9613 78.6095 31.0734 78.1456C31.7018 77.8724 32.2638 77.4667 32.7208 76.9562C33.381 76.3614 33.9935 75.7013 34.618 75.059C35.8372 73.7327 36.9672 72.3114 38.0793 70.8959C39.1915 69.4805 40.1965 67.9223 41.1719 66.376C41.6655 65.6028 42.1353 64.8178 42.5992 64.0328C43.0631 63.2477 43.5092 62.4211 43.8957 61.6836L48.1004 63.664Z" fill="#E4897B"/>
  <path d="M14.2552 70.5803L12.138 66.2031L8.61719 70.6755C8.61719 70.6755 10.9485 72.6202 13.2144 72.5489L14.2552 70.5803Z" fill="#E4897B"/>
  <path d="M9.82436 64.9258L7.83203 68.738L8.61707 70.6768L12.1378 66.2044L9.82436 64.9258Z" fill="#E4897B"/>
  <path d="M46.4299 55.7656C43.7298 56.2413 39.9414 63.9906 39.9414 63.9906L47.3576 70.6932C47.3576 70.6932 52.163 64.2404 51.8776 60.7196C51.6337 57.7163 49.8674 55.1589 46.4299 55.7656Z" fill="#FF5C8A"/>
  <path opacity="0.6" d="M46.4299 55.7656C43.7298 56.2413 39.9414 63.9906 39.9414 63.9906L47.3576 70.6932C47.3576 70.6932 52.163 64.2404 51.8776 60.7196C51.6337 57.7163 49.8674 55.1589 46.4299 55.7656Z" fill="#FAFAFA"/>
  <path d="M19.2975 187.86C19.2265 187.86 19.156 187.848 19.0893 187.824C18.4411 187.61 18.0188 186.415 17.8225 185.719C17.8167 185.699 17.817 185.677 17.8233 185.657C17.8297 185.637 17.8418 185.619 17.8582 185.606C17.8763 185.595 17.8968 185.59 17.9177 185.59C17.9386 185.59 17.9591 185.595 17.9772 185.606C18.1734 185.707 19.8981 186.635 19.9517 187.313C19.9598 187.387 19.9468 187.462 19.9141 187.529C19.8815 187.597 19.8307 187.654 19.7673 187.693C19.6334 187.799 19.4682 187.858 19.2975 187.86ZM18.108 185.909C18.4054 186.867 18.7919 187.497 19.1607 187.622C19.2448 187.647 19.334 187.65 19.4195 187.63C19.505 187.61 19.5839 187.568 19.6484 187.509C19.6808 187.49 19.7071 187.462 19.724 187.428C19.7408 187.394 19.7476 187.356 19.7435 187.319C19.7078 186.902 18.6968 186.242 18.1021 185.909H18.108Z" fill="#FF5C8A"/>
  <path d="M19.565 186.177C18.977 186.175 18.3973 186.039 17.87 185.779C17.8534 185.771 17.8395 185.758 17.83 185.742C17.8205 185.726 17.8158 185.708 17.8165 185.69C17.8166 185.67 17.8222 185.651 17.8327 185.634C17.8432 185.617 17.8582 185.603 17.876 185.595C17.9295 185.595 19.2973 184.815 20.0348 185.077C20.1255 185.107 20.2084 185.156 20.2774 185.222C20.3463 185.288 20.3996 185.369 20.4333 185.458C20.4803 185.544 20.4965 185.643 20.4791 185.739C20.4618 185.836 20.4121 185.923 20.3381 185.987C20.1081 186.133 19.8365 186.2 19.565 186.177ZM18.1614 185.69C18.7561 185.94 19.8802 186.094 20.2013 185.821C20.2548 185.779 20.3024 185.702 20.237 185.535C20.2134 185.475 20.1766 185.42 20.1292 185.376C20.0819 185.332 20.0252 185.299 19.9634 185.279C19.4579 185.101 18.548 185.499 18.1614 185.69Z" fill="#FF5C8A"/>
  <path d="M55.1849 201.499C54.584 201.485 53.9861 201.409 53.4007 201.273C53.3785 201.268 53.3585 201.256 53.3435 201.239C53.3286 201.221 53.3194 201.2 53.3174 201.177C53.3143 201.155 53.3184 201.133 53.3291 201.114C53.3399 201.094 53.3567 201.079 53.3769 201.07C53.6445 200.945 55.9818 199.881 56.5765 200.261C56.6296 200.298 56.6719 200.348 56.6991 200.407C56.7263 200.466 56.7374 200.53 56.7312 200.595C56.7241 200.711 56.6917 200.825 56.6362 200.927C56.5808 201.03 56.5036 201.119 56.41 201.189C56.0421 201.413 55.6151 201.521 55.1849 201.499ZM53.7932 201.13C54.4891 201.261 55.7737 201.427 56.303 201.029C56.373 200.976 56.4305 200.909 56.4717 200.832C56.5128 200.755 56.5364 200.67 56.5409 200.583C56.5443 200.556 56.5407 200.528 56.5303 200.503C56.5198 200.478 56.503 200.456 56.4814 200.44C56.1483 200.214 54.7626 200.702 53.7932 201.13Z" fill="#FF5C8A"/>
  <path d="M53.4472 201.272C53.4243 201.282 53.3987 201.282 53.3759 201.272C53.361 201.259 53.35 201.242 53.3437 201.224C53.3374 201.205 53.3362 201.185 53.3402 201.165C53.3402 201.07 53.8992 198.757 55.166 198.905C55.4871 198.941 55.5704 199.102 55.5882 199.226C55.6715 199.821 54.1906 201.011 53.4888 201.29L53.4472 201.272ZM55.053 199.09C54.2382 199.09 53.7684 200.434 53.6078 200.975C54.375 200.571 55.4277 199.607 55.392 199.232C55.392 199.203 55.392 199.119 55.16 199.096L55.053 199.09Z" fill="#FF5C8A"/>
  <path d="M66.0195 38.9958L67.1079 38.8828C67.1079 38.8828 66.4299 39.5965 66.0195 38.9958Z" fill="#263238"/>
  <path opacity="0.6" d="M21.2791 5.10156L3.84766 117.784L101.93 132.938L119.361 20.2492L21.2791 5.10156ZM61.5777 69.1952C57.0758 68.4984 52.8816 66.482 49.5259 63.4011C46.1702 60.3201 43.8037 56.3131 42.7258 51.8869C41.648 47.4607 41.9071 42.8142 43.4706 38.5354C45.034 34.2565 47.8315 30.5375 51.509 27.8488C55.1865 25.1602 59.5789 23.6227 64.1304 23.431C68.6819 23.2392 73.188 24.4017 77.0787 26.7715C80.9694 29.1413 84.0697 32.6118 85.9875 36.744C87.9054 40.8762 88.5545 45.4844 87.8527 49.9855C86.9126 56.0156 83.6172 61.4259 78.6906 65.0278C73.7639 68.6297 67.6089 70.1286 61.5777 69.1952Z" fill="#FF5C8A"/>
  <g style="mix-blend-mode:multiply" opacity="0.3">
    <path d="M98.9675 128.662H98.8188L0.587891 113.443V113.294L18.0669 0.480469H18.2096L116.441 15.6995V15.8482L98.9675 128.662ZM0.926889 113.199L98.7177 128.323L116.102 15.9196L18.3107 0.819463L0.926889 113.199Z" fill="#FF5C8A"/>
  </g>
  <path d="M65.1103 70.3622C63.8817 70.3608 62.6549 70.2654 61.4408 70.0767C55.3396 69.1249 49.8441 65.8469 46.1075 60.9308C42.3709 56.0146 40.6835 49.8422 41.3994 43.7088C42.1154 37.5754 45.179 31.9577 49.9474 28.0343C54.7159 24.1109 60.8186 22.1868 66.975 22.6657C73.1315 23.1447 78.8632 25.9894 82.9675 30.6031C87.0718 35.2168 89.2298 41.2407 88.9885 47.4111C88.7473 53.5814 86.1256 59.4185 81.6736 63.6977C77.2217 67.9768 71.2854 70.3654 65.1103 70.3622ZM61.7144 68.3163C66.0396 68.9846 70.4657 68.3553 74.4333 66.5082C78.4009 64.6611 81.7317 61.679 84.0046 57.939C86.2775 54.1991 87.3904 49.8691 87.2027 45.4967C87.0149 41.1242 85.5349 36.9056 82.9498 33.3743C80.3647 29.8429 76.7905 27.1573 72.6792 25.6571C68.5679 24.1569 64.1041 23.9094 59.8521 24.9459C55.6002 25.9824 51.751 28.2564 48.7913 31.4804C45.8317 34.7043 43.8944 38.7334 43.2244 43.0583C42.3338 48.8587 43.7804 54.7754 47.2467 59.5106C50.7131 64.2457 55.9161 67.4126 61.7144 68.3163Z" fill="#FAFAFA"/>
  <path d="M42.6327 76.165L21.0273 72.8242L20.2767 77.679L41.882 81.0198L42.6327 76.165Z" fill="#FF5C8A"/>
  <path opacity="0.6" d="M42.6327 76.165L21.0273 72.8242L20.2767 77.679L41.882 81.0198L42.6327 76.165Z" fill="#FAFAFA"/>
  <path d="M60.0937 78.8696L45.4766 76.6094L44.7259 81.4641L59.343 83.7244L60.0937 78.8696Z" fill="#FF5C8A"/>
  <path opacity="0.6" d="M60.0937 78.8696L45.4766 76.6094L44.7259 81.4641L59.343 83.7244L60.0937 78.8696Z" fill="#FAFAFA"/>
  <path d="M97.6284 94.745L19.5 82.6641L18.7493 87.5188L96.8777 99.5998L97.6284 94.745Z" fill="#FAFAFA"/>
  <path d="M57.3929 98.8225L18.4746 92.9258L17.7377 97.7891L56.656 103.686L57.3929 98.8225Z" fill="#FAFAFA"/>
  <path d="M89.3962 104.042L63.4062 100.023L62.6556 104.878L88.6455 108.897L89.3962 104.042Z" fill="#FAFAFA"/>
  <path d="M78.7698 112.971L16.3105 103.312L15.5599 108.167L78.0191 117.825L78.7698 112.971Z" fill="#FAFAFA"/>
  <path d="M120.409 132.939H119.814C119.816 131.463 119.634 129.993 119.273 128.562L119.867 128.419C120.235 129.897 120.417 131.416 120.409 132.939ZM118.077 125.255C116.769 122.517 114.791 120.152 112.326 118.38L112.671 117.898C115.216 119.726 117.261 122.164 118.618 124.988L118.077 125.255Z" fill="#FF5C8A"/>
  <path opacity="0.6" d="M120.409 132.939H119.814C119.816 131.463 119.634 129.993 119.273 128.562L119.867 128.419C120.235 129.897 120.417 131.416 120.409 132.939ZM118.077 125.255C116.769 122.517 114.791 120.152 112.326 118.38L112.671 117.898C115.216 119.726 117.261 122.164 118.618 124.988L118.077 125.255Z" fill="#FAFAFA"/>
  <path d="M101.93 116.543C98.6869 116.543 95.5168 117.505 92.8203 119.306C90.1239 121.108 88.0223 123.669 86.7813 126.665C85.5403 129.661 85.2156 132.958 85.8483 136.138C86.4809 139.319 88.0426 142.241 90.3357 144.534C92.6288 146.827 95.5504 148.388 98.731 149.021C101.912 149.654 105.208 149.329 108.205 148.088C111.201 146.847 113.761 144.745 115.563 142.049C117.365 139.353 118.326 136.183 118.326 132.94C118.326 128.591 116.599 124.42 113.524 121.345C110.449 118.27 106.278 116.543 101.93 116.543ZM101.93 147.213C99.1068 147.213 96.3472 146.376 93.9999 144.807C91.6527 143.239 89.8232 141.01 88.7429 138.402C87.6626 135.794 87.3799 132.924 87.9306 130.155C88.4814 127.386 89.8408 124.843 91.837 122.847C93.8331 120.851 96.3764 119.491 99.1452 118.94C101.914 118.39 104.784 118.672 107.392 119.753C110 120.833 112.229 122.662 113.798 125.01C115.366 127.357 116.203 130.117 116.203 132.94C116.203 136.725 114.699 140.356 112.023 143.032C109.346 145.709 105.715 147.213 101.93 147.213Z" fill="#FF5C8A"/>
  <path opacity="0.6" d="M101.93 116.543C98.6869 116.543 95.5168 117.505 92.8203 119.306C90.1239 121.108 88.0223 123.669 86.7813 126.665C85.5403 129.661 85.2156 132.958 85.8483 136.138C86.4809 139.319 88.0426 142.241 90.3357 144.534C92.6288 146.827 95.5504 148.388 98.731 149.021C101.912 149.654 105.208 149.329 108.205 148.088C111.201 146.847 113.761 144.745 115.563 142.049C117.365 139.353 118.326 136.183 118.326 132.94C118.326 128.591 116.599 124.42 113.524 121.345C110.449 118.27 106.278 116.543 101.93 116.543ZM101.93 147.213C99.1068 147.213 96.3472 146.376 93.9999 144.807C91.6527 143.239 89.8232 141.01 88.7429 138.402C87.6626 135.794 87.3799 132.924 87.9306 130.155C88.4814 127.386 89.8408 124.843 91.837 122.847C93.8331 120.851 96.3764 119.491 99.1452 118.94C101.914 118.39 104.784 118.672 107.392 119.753C110 120.833 112.229 122.662 113.798 125.01C115.366 127.357 116.203 130.117 116.203 132.94C116.203 136.725 114.699 140.356 112.023 143.032C109.346 145.709 105.715 147.213 101.93 147.213Z" fill="#FAFAFA"/>
  <path d="M101.928 147.207C109.807 147.207 116.195 140.819 116.195 132.939C116.195 125.06 109.807 118.672 101.928 118.672C94.0479 118.672 87.6602 125.06 87.6602 132.939C87.6602 140.819 94.0479 147.207 101.928 147.207Z" fill="#FF5C8A"/>
  <path d="M101.928 147.207C109.807 147.207 116.195 140.819 116.195 132.939C116.195 125.06 109.807 118.672 101.928 118.672C94.0479 118.672 87.6602 125.06 87.6602 132.939C87.6602 140.819 94.0479 147.207 101.928 147.207Z" fill="#D7EB36"/>
  <path d="M99.7116 141.967L91.3379 133.593L93.4432 131.493L99.7116 137.762L110.423 127.051L112.522 129.156L99.7116 141.967Z" fill="#FAFAFA"/>
</svg>
