<svg width="177" height="208" viewBox="0 0 177 208" fill="none" xmlns="http://www.w3.org/2000/svg">
<path d="M115.374 23.795C111.663 18.7731 112.522 14.3882 115.374 11.2341C118.93 7.27593 124.737 7.30685 128.609 9.32922C134.67 12.4896 135.974 26.3369 125.85 28.2913C122.258 27.0372 118.757 25.5348 115.374 23.795Z" fill="#263238"/>
<path d="M127.426 10.2012C131.137 8.01807 130.104 3.7816 133.456 1.54277C138.119 -1.54954 148.169 -0.207471 145.027 7.5233C141.885 15.2541 153.067 15.6994 149.82 23.3807C146.573 31.0619 137.142 35.7499 134.717 24.6176C132.905 16.2745 140.605 5.52567 134.39 6.68219C130.512 7.39961 129.219 11.3887 129.219 11.3887L127.426 10.2012Z" fill="#263238"/>
<path d="M118.204 42.943C117.697 44.3469 117.147 45.621 116.559 46.9383C115.972 48.2556 115.322 49.5234 114.642 50.7913C113.272 53.4519 111.552 55.9168 109.527 58.1201C108.948 58.737 108.313 59.2981 107.629 59.7961C106.952 60.276 106.232 60.6902 105.476 61.033C104.085 61.6555 102.635 62.1362 101.147 62.4678C98.3287 63.1188 95.4429 63.4323 92.5505 63.4017C92.226 63.3964 91.9144 63.2736 91.6734 63.0562C91.4324 62.8387 91.2784 62.5413 91.2399 62.219C91.2014 61.8967 91.2811 61.5714 91.464 61.3033C91.647 61.0352 91.921 60.8425 92.2351 60.7609H92.2969C94.8842 60.156 97.4311 59.3896 99.9226 58.4664C101.094 58.03 102.227 57.4984 103.312 56.8769C103.795 56.6001 104.254 56.2836 104.685 55.9307C105.101 55.5821 105.486 55.1971 105.835 54.7804C106.632 53.8391 107.35 52.8338 107.981 51.7746C108.649 50.68 109.292 49.5482 109.886 48.3669C111.061 46.0291 112.174 43.5306 113.133 41.1309V41.0938C113.387 40.427 113.896 39.8886 114.547 39.5969C115.198 39.3052 115.939 39.2841 116.606 39.5384C117.272 39.7926 117.811 40.3013 118.103 40.9526C118.394 41.6038 118.415 42.3443 118.161 43.011L118.204 42.943Z" fill="#B55B52"/>
<path d="M117.403 38.3654C112.294 38.9468 109.48 46.6095 109.48 46.6095L114.713 53.9816C114.713 53.9816 120.897 46.9744 121.435 43.845C121.973 40.6228 121.176 37.9263 117.403 38.3654Z" fill="#1C2D5E"/>
<path opacity="0.2" d="M114.607 43.0543C116.32 41.9782 118.188 42.5719 119.778 44.5695C120.106 45.1428 120.327 45.7718 120.427 46.4249C118.881 49.2265 114.706 53.9763 114.706 53.9763L112.313 50.6057C112.133 48.6143 113.5 43.716 114.607 43.0543Z" fill="#38499F"/>
<path d="M93.4855 61.0321L89.6325 58.9541L89.5273 63.976C89.5273 63.976 92.1001 64.5326 93.8009 63.1596L93.4855 61.0321Z" fill="#B55B52"/>
<path d="M85.7695 59.1273L86.4437 63.2277L89.5545 63.976L89.6597 58.9541L85.7695 59.1273Z" fill="#B55B52"/>
<path d="M105.188 50.092L101.811 47.3213L78.8047 81.8871L82.2124 84.6578C86.0963 87.8367 94.3899 82.6787 100.766 73.1297C107.143 63.5806 109.072 53.2709 105.188 50.092Z" fill="#FF5C8A"/>
<path opacity="0.1" d="M105.188 50.092L101.811 47.3213L78.8047 81.8871L82.2124 84.6578C86.0963 87.8367 94.3899 82.6787 100.766 73.1297C107.143 63.5806 109.072 53.2709 105.188 50.092Z" fill="#38499F"/>
<path d="M97.9411 69.4338C104.079 59.7323 105.638 49.7063 101.424 47.04C97.2097 44.3738 88.8176 50.0771 82.6799 59.7786C76.5421 69.4801 74.9828 79.5061 79.197 82.1723C83.4113 84.8386 91.8034 79.1353 97.9411 69.4338Z" fill="#FF5C8A"/>
<path d="M86.0406 70.2721L89.1329 65.6089C88.8188 64.6528 88.8037 63.6237 89.0896 62.6588C89.4436 61.4423 89.993 60.2914 90.7161 59.2511C91.3684 58.1999 92.2217 57.2878 93.2271 56.567C94.0868 55.998 94.8227 55.8619 95.4226 56.1588L96.1772 55.0332L96.8327 55.5713L96.0906 56.703C96.292 57.0181 96.4267 57.371 96.4862 57.7402C96.5458 58.1093 96.529 58.4867 96.4369 58.8491C96.1962 59.9405 95.7784 60.9851 95.2 61.9414L93.8085 61.3724C94.2413 60.7127 94.4575 59.9344 94.4269 59.146L91.5263 63.4752C91.9256 64.4561 92.0078 65.5375 91.7613 66.5675C90.9733 69.0398 89.466 71.2211 87.4321 72.8325C86.4921 73.484 85.6571 73.6716 84.9273 73.3953L84.179 74.5209L83.5234 73.9829L84.2347 72.9129C84.0132 72.5451 83.8708 72.1351 83.8165 71.7092C83.7622 71.2833 83.7972 70.8507 83.9193 70.4391C84.2538 69.0601 84.8049 67.7429 85.552 66.5366L86.9745 67.2169C86.6593 67.773 86.4063 68.362 86.2199 68.9733C86.0855 69.3926 86.0249 69.8321 86.0406 70.2721ZM93.8208 58.5584C93.476 58.5922 93.151 58.7352 92.8931 58.9666C92.1756 59.5599 91.645 60.3482 91.3655 61.2364C91.2379 61.6142 91.2019 62.017 91.2604 62.4114L93.8208 58.5584ZM86.5972 70.9277C86.7873 70.9565 86.9814 70.9427 87.1654 70.887C87.3494 70.8314 87.5187 70.7354 87.6609 70.6061C88.5453 69.9173 89.1937 68.9707 89.5163 67.8972C89.6398 67.4672 89.6291 67.0097 89.4854 66.5861L86.5972 70.9277Z" fill="white"/>
<path opacity="0.1" d="M100.796 58.7938C101.254 55.7634 100.796 53.3328 99.3611 52.1392C96.2007 49.5478 89.4657 53.7534 84.2644 61.5274C82.078 64.7294 80.4646 68.2869 79.4961 72.0413C80.028 68.4913 81.7906 64.1188 84.5798 59.9194C89.7564 52.1454 96.5162 47.946 99.6765 50.5312C101.383 51.9227 101.693 55.0212 100.796 58.7938Z" fill="#38499F"/>
<path d="M145.635 174.093L140.44 174.588L137.793 162.485L142.988 161.99L145.635 174.093Z" fill="#B55B52"/>
<path d="M174.573 166.61L169.743 168.503L165.086 157.024L169.916 155.132L174.573 166.61Z" fill="#B55B52"/>
<path d="M168.34 166.128L173.634 163.493C173.725 163.448 173.829 163.437 173.928 163.462C174.026 163.487 174.113 163.546 174.172 163.629L176.856 167.519C176.924 167.62 176.969 167.734 176.989 167.854C177.009 167.974 177.003 168.097 176.971 168.214C176.94 168.331 176.883 168.441 176.806 168.534C176.728 168.628 176.631 168.703 176.522 168.756C174.666 169.647 173.85 170.086 171.519 171.23C170.084 171.941 166.886 173.617 164.907 174.601C162.928 175.584 161.852 173.679 162.588 173.092C165.884 170.463 166.973 168.478 167.696 166.814C167.824 166.517 168.051 166.274 168.34 166.128Z" fill="#1C2D5E"/>
<path d="M139.427 171.892H145.673C145.785 171.892 145.893 171.929 145.982 171.997C146.07 172.066 146.133 172.161 146.162 172.269L147.523 177.217C147.557 177.333 147.563 177.456 147.54 177.576C147.518 177.695 147.468 177.808 147.393 177.904C147.319 178.001 147.224 178.078 147.114 178.131C147.004 178.183 146.884 178.209 146.762 178.206C144.579 178.169 143.534 178.206 140.788 178.206H132.401C130.119 178.206 129.618 175.893 130.546 175.689C134.782 174.749 137.225 173.456 138.53 172.226C138.774 172.002 139.096 171.882 139.427 171.892Z" fill="#1C2D5E"/>
<path opacity="0.2" d="M137.801 162.491L139.161 168.725H144.468L142.996 161.99L137.801 162.491Z" fill="#38499F"/>
<path opacity="0.2" d="M169.916 155.138L165.086 157.03L167.492 162.943L172.316 161.05L169.916 155.138Z" fill="#38499F"/>
<path d="M133.259 33.1397C137.39 32.6635 140.062 34.6302 140.247 38.7553C140.791 53.2954 142.399 56.6413 144.83 64.1617L124.229 69.8949C116.907 54.0375 114.334 46.5603 113.517 43.0413C113.348 42.2234 113.45 41.3725 113.81 40.6186C114.17 39.8646 114.766 39.2493 115.509 38.8667C120.993 35.8121 127.024 33.8661 133.259 33.1397Z" fill="#1C2D5E"/>
<path d="M126.995 23.3921C127.242 26.5648 128.065 32.0506 130.706 33.5039C130.706 33.5039 130.316 35.4645 123.488 42.0016C119.277 38.4516 121.429 36.0706 121.429 36.0706C124.564 34.3327 123.828 32.0691 122.591 29.8859L126.995 23.3921Z" fill="#B55B52"/>
<path opacity="0.2" d="M126.518 24.1045C126.969 25.9076 127.032 27.7857 126.704 29.615C126.469 30.8519 125.12 31.792 123.611 32.33C123.405 31.4708 123.067 30.6488 122.609 29.8933L126.518 24.1045Z" fill="#38499F"/>
<path d="M128.208 17.4002C129.216 22.5272 129.754 24.6733 127.886 27.914C125.072 32.8123 118.554 32.9359 116.03 28.2109C113.761 23.9621 112.487 16.2931 116.902 12.9906C117.874 12.2587 119.016 11.7874 120.22 11.6214C121.425 11.4554 122.652 11.6003 123.785 12.0421C124.918 12.484 125.919 13.2083 126.693 14.1461C127.467 15.0839 127.989 16.2041 128.208 17.4002Z" fill="#B55B52"/>
<path d="M130.884 20.5229C130.959 21.0172 130.936 21.5216 130.815 22.0067C130.694 22.4919 130.478 22.9482 130.179 23.3493C129.375 24.4192 128.163 23.8997 127.705 22.7308C127.297 21.667 127.217 19.824 128.355 19.1808C128.604 19.0443 128.883 18.9717 129.167 18.9698C129.451 18.9678 129.731 19.0364 129.981 19.1695C130.232 19.3026 130.446 19.496 130.604 19.7322C130.761 19.9685 130.858 20.2402 130.884 20.5229Z" fill="#B55B52"/>
<path d="M123.711 14.685C123.519 16.6455 125.09 19.9975 128.04 20.7768C131.095 17.2639 129.079 12.4461 126.271 12.3472C123.464 12.2482 123.711 14.685 123.711 14.685Z" fill="#263238"/>
<path d="M119.591 9.34199C115.082 9.54608 110.246 11.5561 111.922 18.6189C115.855 17.7964 126.802 16.5718 127.643 13.764C126.536 10.1584 122.547 9.20593 119.591 9.34199Z" fill="#263238"/>
<path d="M124.233 69.8953C124.233 69.8953 123.033 111.505 126.379 127.208C129.848 143.548 137.684 166.901 137.684 166.901L145.044 166.425C145.044 166.425 140.288 135.891 138.859 123.293C136.843 105.927 139.348 65.6836 139.348 65.6836L124.233 69.8953Z" fill="#FF5C8A"/>
<path opacity="0.2" d="M134.594 82.9073C134.928 79.1347 137.773 79.8583 138.41 84.9668C138.131 93.0068 137.933 102.339 138.094 110.509C135.027 104.516 133.833 91.4915 134.594 82.9073Z" fill="#38499F"/>
<path d="M145.976 166.9L137.114 167.5L135.883 163.344L145.475 162.33L145.976 166.9Z" fill="#1C2D5E"/>
<path d="M131.496 67.8724C131.496 67.8724 137.767 102.754 146.284 121.524C153.161 136.682 165.623 161.105 165.623 161.105L172.383 158.576C172.383 158.576 161.813 130.85 157.991 120.188C148.473 93.5942 153.662 77.4524 144.83 64.1616L131.496 67.8724Z" fill="#FF5C8A"/>
<path d="M173.183 159.22L165.384 161.935L163.164 157.939L172.447 155.639L173.183 159.22Z" fill="#1C2D5E"/>
<path d="M144.799 62.8885L146.246 64.4779C146.357 64.6016 146.246 64.7933 145.986 64.8552L124.383 70.8728C124.198 70.9223 124.018 70.8728 123.975 70.7615L123.276 68.968C123.227 68.8443 123.357 68.6897 123.561 68.634L144.421 62.8266C144.484 62.8024 144.552 62.7954 144.618 62.8062C144.685 62.8171 144.747 62.8455 144.799 62.8885Z" fill="#1C2D5E"/>
<path d="M142.647 65.9802L143.21 65.8194C143.321 65.7884 143.389 65.708 143.359 65.64L142.431 63.3208C142.431 63.2527 142.295 63.2218 142.183 63.2527L141.621 63.4074C141.509 63.4074 141.441 63.5187 141.466 63.5867L142.4 65.9121C142.425 65.9802 142.536 66.0111 142.647 65.9802Z" fill="#FF5C8A"/>
<path d="M126.011 70.6063L126.573 70.4517C126.678 70.4517 126.753 70.3404 126.722 70.2723L125.794 67.9531C125.794 67.8851 125.652 67.8541 125.541 67.8851L124.984 68.0397C124.873 68.0397 124.805 68.151 124.829 68.219L125.757 70.5444C125.788 70.6125 125.899 70.6372 126.011 70.6063Z" fill="#FF5C8A"/>
<path d="M134.331 68.2936L134.894 68.139C135.005 68.1081 135.073 68.0277 135.042 67.9597L134.114 65.6342C134.114 65.5662 133.972 65.5353 133.861 65.5662L133.304 65.7208C133.193 65.7208 133.125 65.8383 133.15 65.9064L134.083 68.2256C134.108 68.2936 134.22 68.3246 134.331 68.2936Z" fill="#FF5C8A"/>
<path d="M120.921 20.8325C121.026 21.2469 120.921 21.6365 120.63 21.7045C120.34 21.7726 120.055 21.5005 119.95 21.0861C119.845 20.6717 119.95 20.2883 120.241 20.214C120.531 20.1398 120.816 20.4058 120.921 20.8325Z" fill="#263238"/>
<path d="M116.276 22.0322C116.388 22.4404 116.276 22.83 115.986 22.9042C115.695 22.9784 115.411 22.6939 115.305 22.2858C115.2 21.8776 115.305 21.4818 115.596 21.4137C115.887 21.3457 116.171 21.6178 116.276 22.0322Z" fill="#263238"/>
<path d="M115.722 21.4079L114.664 21.377C114.664 21.377 115.369 22.0202 115.722 21.4079Z" fill="#263238"/>
<path d="M117.693 22.415C117.572 23.4478 117.31 24.4591 116.914 25.4208C117.162 25.5158 117.428 25.5551 117.693 25.5359C117.958 25.5166 118.216 25.4393 118.448 25.3094L117.693 22.415Z" fill="#A02724"/>
<path d="M120.264 26.5531C120.24 26.549 120.218 26.538 120.201 26.5215C120.183 26.505 120.171 26.4838 120.165 26.4604C120.16 26.4449 120.159 26.4287 120.161 26.4127C120.163 26.3967 120.168 26.3812 120.176 26.3673C120.184 26.3534 120.195 26.3413 120.208 26.3318C120.221 26.3222 120.236 26.3155 120.252 26.3119C120.766 26.1901 121.244 25.9485 121.647 25.6067C122.05 25.2649 122.367 24.8326 122.571 24.3452C122.576 24.3291 122.584 24.3142 122.595 24.3013C122.606 24.2884 122.619 24.2779 122.634 24.2704C122.649 24.2629 122.666 24.2585 122.682 24.2575C122.699 24.2566 122.716 24.259 122.732 24.2648C122.762 24.276 122.787 24.2981 122.802 24.3266C122.817 24.3552 122.82 24.3883 122.812 24.4194C122.599 24.9461 122.263 25.4143 121.833 25.7854C121.403 26.1565 120.891 26.4197 120.338 26.5531C120.314 26.5603 120.288 26.5603 120.264 26.5531Z" fill="#263238"/>
<path d="M121.83 18.977C121.786 18.9713 121.745 18.9519 121.712 18.9214C121.472 18.7203 121.188 18.5795 120.882 18.5107C120.577 18.4418 120.259 18.4469 119.956 18.5255C119.893 18.5452 119.824 18.5393 119.765 18.5093C119.707 18.4793 119.662 18.4274 119.64 18.3647C119.629 18.3339 119.624 18.3011 119.625 18.2682C119.627 18.2354 119.635 18.2032 119.65 18.1736C119.664 18.1441 119.684 18.1178 119.709 18.0964C119.735 18.0751 119.764 18.059 119.795 18.0493C120.178 17.9454 120.58 17.935 120.967 18.019C121.355 18.1029 121.716 18.2788 122.022 18.5317C122.063 18.5669 122.092 18.6143 122.104 18.6672C122.117 18.72 122.112 18.7754 122.09 18.8252C122.069 18.8751 122.032 18.9167 121.985 18.944C121.938 18.9713 121.884 18.9829 121.83 18.977Z" fill="#263238"/>
<path d="M113.511 20.4492H113.461C113.43 20.4387 113.402 20.4222 113.377 20.4007C113.353 20.3792 113.333 20.353 113.318 20.3237C113.304 20.2943 113.295 20.2625 113.293 20.2299C113.291 20.1973 113.296 20.1646 113.307 20.1337C113.427 19.756 113.637 19.4127 113.918 19.1328C114.198 18.853 114.543 18.6448 114.921 18.5257C114.952 18.5174 114.986 18.5154 115.018 18.5199C115.05 18.5245 115.082 18.5354 115.11 18.5521C115.138 18.5688 115.163 18.5909 115.182 18.6171C115.202 18.6434 115.216 18.6733 115.224 18.7051C115.239 18.7698 115.228 18.8379 115.193 18.8945C115.158 18.9512 115.103 18.992 115.038 19.0081C114.745 19.1085 114.479 19.2776 114.264 19.5014C114.049 19.7251 113.89 19.9971 113.801 20.2945C113.78 20.3515 113.739 20.3987 113.686 20.4272C113.632 20.4557 113.57 20.4635 113.511 20.4492Z" fill="#263238"/>
<path d="M137.72 42.8741C136.112 46.189 134.442 49.4421 132.679 52.6767C131.801 54.2971 130.923 55.9174 129.989 57.5131C129.055 59.1087 128.133 60.7105 127.026 62.3123C126.773 62.7081 126.457 63.1287 126.16 63.5493L126.049 63.6977L125.994 63.7781L125.901 63.8956C125.771 64.0564 125.641 64.1925 125.511 64.3285C125.275 64.5682 125.02 64.7894 124.75 64.9903C123.86 65.6416 122.892 66.1797 121.868 66.5921C120.063 67.3213 118.201 67.9045 116.302 68.3361C112.667 69.1765 108.975 69.7532 105.257 70.0617L104.836 67.427C106.561 66.9693 108.318 66.4869 110.043 65.986C111.769 65.485 113.482 64.9532 115.152 64.3718C116.778 63.8241 118.367 63.1713 119.908 62.4175C120.558 62.0971 121.17 61.705 121.732 61.2486C121.824 61.1721 121.909 61.0872 121.986 60.995C122.008 60.9675 122.029 60.9386 122.048 60.9084L122.184 60.6981C122.4 60.358 122.623 60.0364 122.846 59.6529C123.724 58.1748 124.59 56.5916 125.431 55.0083L127.935 50.2029L132.883 40.5054L137.72 42.8741Z" fill="#B55B52"/>
<path d="M106.529 67.4524L102.887 66.0547L103.196 71.1941C103.196 71.1941 106.059 71.1941 107.383 69.4315L106.529 67.4524Z" fill="#B55B52"/>
<path d="M100.021 66.2031L99.2422 69.9819L103.194 71.1941L102.885 66.0547L100.021 66.2031Z" fill="#B55B52"/>
<path d="M133.237 35.7996C131.202 36.7335 128.84 45.1879 128.84 45.1879L137.653 46.1898C137.653 46.1898 139.36 42.0832 139.014 39.9742C138.494 36.6036 135.556 34.7359 133.237 35.7996Z" fill="#1C2D5E"/>
<path d="M165.706 167.637C165.672 167.578 165.645 167.516 165.625 167.451C165.597 167.382 165.587 167.306 165.598 167.232C165.609 167.158 165.64 167.088 165.687 167.03C166.114 166.511 168.006 166.721 168.217 166.746C168.241 166.748 168.264 166.757 168.283 166.772C168.302 166.788 168.315 166.809 168.322 166.833C168.33 166.855 168.33 166.88 168.324 166.903C168.317 166.927 168.303 166.947 168.285 166.962C167.747 167.414 166.745 168.137 166.101 167.952C166.017 167.93 165.938 167.891 165.87 167.837C165.802 167.782 165.746 167.714 165.706 167.637ZM167.889 166.962C167.128 166.901 166.108 166.913 165.879 167.185C165.861 167.214 165.852 167.247 165.852 167.281C165.852 167.315 165.861 167.348 165.879 167.377C165.897 167.455 165.935 167.528 165.989 167.587C166.043 167.647 166.112 167.691 166.188 167.717C166.528 167.816 167.159 167.538 167.901 166.962H167.889Z" fill="#FF5C8A"/>
<path d="M166.168 165.93C166.144 165.885 166.126 165.837 166.113 165.788C166.087 165.692 166.094 165.591 166.134 165.5C166.173 165.409 166.242 165.334 166.329 165.287C166.41 165.234 166.5 165.2 166.596 165.186C166.691 165.172 166.788 165.179 166.88 165.207C167.616 165.404 168.296 166.759 168.327 166.815C168.338 166.833 168.343 166.855 168.343 166.876C168.343 166.898 168.338 166.919 168.327 166.938C168.314 166.956 168.298 166.971 168.278 166.98C168.259 166.99 168.237 166.995 168.215 166.994C167.429 166.893 166.703 166.516 166.168 165.93ZM167.968 166.679C167.715 166.233 167.245 165.559 166.812 165.442C166.755 165.423 166.695 165.418 166.636 165.427C166.577 165.435 166.521 165.457 166.471 165.491C166.335 165.578 166.335 165.658 166.354 165.714C166.447 166.072 167.362 166.573 167.987 166.703L167.968 166.679Z" fill="#FF5C8A"/>
<path d="M136.637 172.919C136.205 172.954 135.772 172.852 135.401 172.628C135.303 172.557 135.223 172.464 135.168 172.357C135.113 172.249 135.085 172.13 135.085 172.009C135.076 171.944 135.086 171.877 135.114 171.817C135.141 171.757 135.185 171.706 135.24 171.669C135.803 171.286 137.93 172.251 138.332 172.449C138.356 172.46 138.376 172.478 138.39 172.502C138.403 172.525 138.409 172.552 138.406 172.578C138.403 172.604 138.391 172.628 138.374 172.647C138.356 172.666 138.333 172.679 138.307 172.684C137.76 172.82 137.201 172.899 136.637 172.919ZM135.642 171.842C135.556 171.837 135.47 171.857 135.394 171.898C135.394 171.898 135.345 171.941 135.351 172.016C135.353 172.097 135.373 172.176 135.411 172.248C135.448 172.32 135.502 172.382 135.567 172.43C135.932 172.708 136.804 172.745 137.918 172.535C137.205 172.19 136.444 171.957 135.66 171.842H135.642Z" fill="#FF5C8A"/>
<path d="M138.338 172.708H138.289C137.584 172.424 136.161 171.28 136.242 170.692C136.242 170.562 136.347 170.402 136.668 170.364C137.905 170.216 138.437 172.473 138.462 172.566C138.466 172.589 138.464 172.612 138.456 172.634C138.449 172.655 138.436 172.675 138.419 172.69C138.394 172.705 138.366 172.711 138.338 172.708ZM136.786 170.593H136.699C136.569 170.593 136.501 170.649 136.489 170.711C136.446 171.051 137.429 171.948 138.146 172.344C137.979 171.805 137.534 170.593 136.786 170.593Z" fill="#FF5C8A"/>
<path d="M120.365 20.2144H119.301C119.301 20.2144 120.012 20.8328 120.365 20.2144Z" fill="#263238"/>
<path d="M122.794 178.212H156.636C156.869 178.212 157.092 178.305 157.257 178.47C157.422 178.634 157.514 178.858 157.514 179.091V181.948H121.922V179.091C121.922 178.859 122.014 178.636 122.177 178.472C122.34 178.307 122.562 178.214 122.794 178.212Z" fill="#1C2D5E"/>
<path d="M157.815 191.404H122.223V195.134H157.815V191.404Z" fill="#1C2D5E"/>
<path opacity="0.5" d="M157.818 191.404H134.285V195.134H157.818V191.404Z" fill="#38499F"/>
<path d="M137.712 181.941L133.711 206.989C133.677 207.195 133.572 207.382 133.413 207.518C133.255 207.654 133.053 207.729 132.845 207.731H130.884C130.758 207.731 130.632 207.703 130.517 207.65C130.402 207.597 130.3 207.519 130.218 207.423C130.136 207.327 130.075 207.214 130.041 207.092C130.006 206.97 129.999 206.842 130.018 206.717L133.983 181.917L137.712 181.941Z" fill="#1C2D5E"/>
<path opacity="0.5" d="M137.71 181.942L137.407 183.847H133.672L133.981 181.942H137.71Z" fill="#38499F"/>
<path d="M125.653 181.941L121.652 206.989C121.618 207.195 121.513 207.382 121.355 207.518C121.196 207.654 120.995 207.729 120.786 207.731H118.826C118.699 207.731 118.574 207.703 118.459 207.65C118.344 207.597 118.242 207.519 118.16 207.423C118.077 207.327 118.017 207.214 117.982 207.092C117.948 206.97 117.94 206.842 117.96 206.717L121.924 181.917L125.653 181.941Z" fill="#1C2D5E"/>
<path d="M161.474 206.743L157.515 181.942H153.805L157.788 206.99C157.82 207.197 157.925 207.385 158.084 207.521C158.242 207.657 158.444 207.732 158.653 207.732H160.608C160.732 207.731 160.855 207.704 160.968 207.653C161.081 207.601 161.182 207.526 161.263 207.432C161.345 207.339 161.406 207.229 161.443 207.11C161.479 206.991 161.489 206.866 161.474 206.743Z" fill="#1C2D5E"/>
<path opacity="0.5" d="M157.816 183.847L157.513 181.942H153.777L154.08 183.847H157.816Z" fill="#38499F"/>
<path d="M149.415 206.743L145.457 181.942H141.746L145.729 206.99C145.761 207.197 145.866 207.385 146.025 207.521C146.184 207.657 146.386 207.732 146.595 207.732H148.549C148.673 207.731 148.796 207.704 148.909 207.653C149.022 207.601 149.123 207.526 149.205 207.432C149.287 207.339 149.348 207.229 149.384 207.11C149.42 206.991 149.431 206.866 149.415 206.743Z" fill="#1C2D5E"/>
<path opacity="0.5" d="M149.415 206.743L145.457 181.942H141.746L145.729 206.99C145.761 207.197 145.866 207.385 146.025 207.521C146.184 207.657 146.386 207.732 146.595 207.732H148.549C148.673 207.731 148.796 207.704 148.909 207.653C149.022 207.601 149.123 207.526 149.205 207.432C149.287 207.339 149.348 207.229 149.384 207.11C149.42 206.991 149.431 206.866 149.415 206.743Z" fill="#38499F"/>
<path opacity="0.5" d="M133.98 178.212H156.635C156.868 178.212 157.091 178.305 157.256 178.47C157.42 178.634 157.513 178.858 157.513 179.091V181.948H134.011V178.237L133.98 178.212Z" fill="#38499F"/>
<path d="M29.5059 204.349L34.4597 195.258L16.7408 179.728L15.3555 204.349H29.5059Z" fill="#FF5C8A"/>
<path opacity="0.1" d="M29.5059 204.349L34.4597 195.258L16.7408 179.728L15.3555 204.349H29.5059Z" fill="black"/>
<path d="M90.5703 100.751C100.509 93.9484 108.833 94.6472 111.598 96.6325C114.363 98.6177 105.58 113.696 105.58 113.696C102.296 112.742 99.2556 111.092 96.6656 108.858C94.0756 106.625 91.9968 103.86 90.5703 100.751Z" fill="#FF5C8A"/>
<path opacity="0.2" d="M95.3047 107.585C100.902 102.087 106.61 100.324 108.156 101.246C109.702 102.167 104.736 112.768 104.736 112.768C104.736 112.768 98.0259 113.733 95.3047 107.585Z" fill="black"/>
<path d="M4.21905 122.076L3.65625 121.791C5.21003 118.734 7.03784 115.823 9.11726 113.096L9.61822 113.479C7.56511 116.178 5.75815 119.055 4.21905 122.076Z" fill="#FF5C8A"/>
<path d="M1.27471 129.064L0.65625 128.86C1.12628 127.481 1.65816 126.102 2.23951 124.766L2.82087 125.02C2.26425 126.331 1.73856 127.691 1.27471 129.064Z" fill="#FF5C8A"/>
<path d="M116.914 146.227C116.914 176.933 93.7959 201.82 60.4237 201.82C27.0515 201.82 0 176.933 0 146.227C0 115.52 27.0515 90.6333 60.4237 90.6333C93.7959 90.6333 116.914 115.52 116.914 146.227Z" fill="#FF5C8A"/>
<path opacity="0.1" d="M52.3713 195.933L49.9531 200.992C51.7013 201.276 53.4763 201.482 55.2781 201.61L52.3713 195.933Z" fill="black"/>
<path d="M48.7091 207.758L55.6607 195.258L33.4269 187.132L30.582 207.758H48.7091Z" fill="#FF5C8A"/>
<path d="M81.0941 207.758L75.0703 195.258L96.2403 187.132L97.6442 207.758H81.0941Z" fill="#FF5C8A"/>
<path opacity="0.2" d="M96.3016 154.261C96.3016 162.573 88.9542 169.308 79.9185 169.308C70.8828 169.308 63.5664 162.573 63.5664 154.261C63.5664 145.949 70.889 139.214 79.9185 139.214C88.9481 139.214 96.3016 145.949 96.3016 154.261Z" fill="black"/>
<path opacity="0.2" d="M74.4878 159.184C76.0215 159.184 77.2647 156.869 77.2647 154.014C77.2647 151.158 76.0215 148.843 74.4878 148.843C72.9542 148.843 71.7109 151.158 71.7109 154.014C71.7109 156.869 72.9542 159.184 74.4878 159.184Z" fill="black"/>
<path opacity="0.4" d="M54.6262 126.195C55.424 128.626 54.6881 131.279 52.9873 132.114C51.2865 132.949 49.2765 131.65 48.4602 129.22C47.6438 126.789 48.3921 124.136 50.0929 123.301C51.7937 122.466 53.8284 123.759 54.6262 126.195Z" fill="black"/>
<path opacity="0.4" d="M97.6724 126.306C97.054 128.737 97.8147 131.359 99.3485 132.157C100.882 132.954 102.614 131.631 103.22 129.194C103.826 126.757 103.078 124.141 101.544 123.344C100.01 122.546 98.2909 123.869 97.6724 126.306Z" fill="black"/>
<path opacity="0.2" d="M89.2613 159.184C90.7949 159.184 92.0382 156.869 92.0382 154.014C92.0382 151.158 90.7949 148.843 89.2613 148.843C87.7276 148.843 86.4844 151.158 86.4844 154.014C86.4844 156.869 87.7276 159.184 89.2613 159.184Z" fill="black"/>
<path d="M42.7599 100.244C31.9925 91.3262 22.3507 90.6336 19.0234 92.2539C15.696 93.8743 24.3483 111.358 24.3483 111.358C24.3483 111.358 36.1609 110.666 42.7599 100.244Z" fill="#FF5C8A"/>
<path opacity="0.2" d="M36.7024 106.664C30.7961 99.8609 24.4135 97.0283 22.552 97.7334C20.6904 98.4384 25.4093 110.511 25.4093 110.511C25.4093 110.511 33.0163 112.7 36.7024 106.664Z" fill="black"/>
<path opacity="0.4" d="M64.505 95.4695H73.6026C73.6026 95.4695 71.6235 93.2925 64.907 92.6308C61.1033 92.3219 57.2752 92.5299 53.5273 93.2493C53.5273 93.2493 61.0231 93.0823 64.505 95.4695Z" fill="black"/>
</svg>
