<svg width="32" height="33" viewBox="0 0 32 33" fill="none" xmlns="http://www.w3.org/2000/svg">
<g clip-path="url(#clip0_11918_69026)">
<path d="M16 32.7297C24.8366 32.7297 32 25.5654 32 16.7279C32 7.89033 24.8366 0.726074 16 0.726074C7.16344 0.726074 0 7.89033 0 16.7279C0 25.5654 7.16344 32.7297 16 32.7297Z" fill="#EAEEF2"/>
<path d="M17.1043 22.1071L10.8145 28.3975L9.02091 26.4662L13.3796 22.1071L8.85547 17.5825L10.7865 15.6512L17.1043 22.1071ZM20.7733 18.4928L22.7043 16.5617L18.1797 12.0371L22.5382 7.67784L20.7451 5.74658L14.4278 12.0371L20.7728 18.4928H20.7733ZM11.5865 14.9063L17.9313 21.3623L19.8624 19.4315L13.5176 13.0853L11.5865 14.9063Z" fill="#0CB0C9"/>
</g>
<defs>
<clipPath id="clip0_11918_69026">
<rect width="32" height="32.0036" fill="white" transform="translate(0 0.726074)"/>
</clipPath>
</defs>
</svg>
