<svg width="33" height="33" viewBox="0 0 33 33" fill="none" xmlns="http://www.w3.org/2000/svg">
<path d="M32.2179 16.2445C32.2179 25.0345 25.0924 32.1602 16.3024 32.1602C7.51237 32.1602 0.386719 25.0345 0.386719 16.2445C0.386719 7.45451 7.51237 0.328857 16.3024 0.328857C25.0923 0.328857 32.2179 7.45451 32.2179 16.2445Z" fill="#EDF0F4"/>
<path fill-rule="evenodd" clip-rule="evenodd" d="M17.3717 8.36543C17.5855 7.95937 17.0943 7.46772 16.6919 7.67965C16.3646 7.8114 16.2815 8.29 16.5363 8.53215C16.7768 8.78445 17.2475 8.69643 17.3717 8.36543ZM12.8929 8.54456C12.9179 8.27547 12.6085 8.04927 12.364 8.1509C12.0238 8.24247 11.986 8.78372 12.3161 8.91286C12.5653 9.0517 12.9189 8.83668 12.8929 8.54456ZM21.2281 8.92106C20.8461 8.87444 20.7856 8.26782 21.1534 8.14567C21.4386 8.00516 21.7003 8.26866 21.742 8.54176C21.6822 8.77495 21.4889 8.98847 21.2281 8.92106ZM14.2776 10.6187C14.3405 10.1392 13.7574 9.75041 13.3487 10.0115C12.966 10.2092 12.9134 10.7989 13.2607 11.056C13.6199 11.3832 14.2564 11.1028 14.2776 10.6187ZM19.5868 10.2885C19.7691 9.81393 20.5079 9.79957 20.7154 10.2616C20.9205 10.6211 20.6682 11.0663 20.3028 11.1886C19.8187 11.2799 19.3589 10.7513 19.5868 10.2885ZM16.9184 10.4219C16.5345 10.4497 16.1667 10.7537 16.1707 11.1616C16.1488 11.4949 16.3845 11.7672 16.6645 11.906C16.6927 11.9077 16.7212 11.91 16.7499 11.9123L16.75 11.9123L16.75 11.9123L16.75 11.9123C16.9081 11.925 17.0723 11.9382 17.2147 11.8577C17.5824 11.6934 17.7632 11.2005 17.5596 10.8425C17.4504 10.5831 17.1729 10.4735 16.9184 10.4219ZM9.73449 11.756C10.1078 11.5242 10.6114 11.9473 10.4701 12.3569C10.3923 12.7112 9.92076 12.8553 9.65122 12.6291C9.3635 12.4172 9.4091 11.9076 9.73449 11.756ZM24.3569 12.1957C24.3946 11.7918 23.872 11.5069 23.5553 11.7553C23.2302 11.9569 23.2656 12.4949 23.6118 12.6521C23.9262 12.8418 24.3781 12.564 24.3569 12.1957ZM17.9807 12.4886C18.5034 12.2989 19.1241 12.5259 19.422 12.9966C19.815 13.572 19.6059 14.4482 18.9961 14.7784C18.3642 15.1689 17.4416 14.8379 17.2083 14.1252C16.9433 13.4871 17.3293 12.6886 17.9807 12.4886ZM16.5525 13.1054C16.2727 12.5069 15.4931 12.2752 14.9139 12.5513C14.2966 12.8299 14.0125 13.6514 14.3324 14.2562C14.6176 14.8817 15.4491 15.138 16.0385 14.7999C16.6272 14.4991 16.8817 13.6879 16.5525 13.1054ZM11.8436 13.6117C11.8876 13.2347 12.2397 12.9894 12.5949 12.964C12.9776 13.0107 13.2833 13.3109 13.3249 13.7021C13.2998 14.0895 13.0035 14.468 12.5972 14.4657C12.1501 14.5046 11.7582 14.0553 11.8436 13.6117ZM21.9885 13.7016C22.0089 13.169 21.3717 12.7761 20.9127 13.046C20.42 13.2807 20.3829 14.0569 20.8577 14.3325C21.3147 14.6635 22.02 14.2658 21.9885 13.7016ZM13.6662 15.0348C14.2029 14.8856 14.8167 15.1412 15.0799 15.6396C15.3683 16.1412 15.2504 16.8381 14.8026 17.206C14.2281 17.7457 13.1687 17.529 12.863 16.7925C12.5117 16.1173 12.9384 15.2125 13.6662 15.0348ZM20.8977 15.5646C20.6172 15.0844 20.0041 14.8812 19.4823 15.032C18.7491 15.2348 18.3609 16.1745 18.7467 16.8394C19.065 17.4822 19.9609 17.698 20.5393 17.2869C21.0915 16.9329 21.2686 16.1138 20.8977 15.5646ZM10.2136 15.6586C10.6772 15.4814 11.1912 15.9983 11.0034 16.4626C10.8886 16.8856 10.2984 17.042 9.9935 16.7301C9.63673 16.4372 9.76882 15.7856 10.2136 15.6586ZM23.4432 15.5792C23.0493 15.6007 22.7682 15.9444 22.7816 16.3324C22.8586 16.5134 22.9521 16.7023 23.1344 16.7959C23.5234 17.0126 24.0735 16.6991 24.0444 16.238C24.0695 15.8888 23.7608 15.63 23.4432 15.5792ZM7.93398 15.8864C8.21293 15.7634 8.55798 16.0076 8.49429 16.3205C8.47934 16.6748 7.96149 16.811 7.77124 16.515C7.60315 16.3094 7.70376 15.9924 7.93398 15.8864ZM26.1119 16.0714C26.0341 15.8396 25.719 15.738 25.5225 15.8793C25.1957 16.0554 25.3238 16.665 25.7198 16.6286C26.0019 16.6714 26.2439 16.3245 26.1119 16.0714ZM15.1814 17.5801C15.9155 17.3873 16.7045 18.0056 16.7091 18.769C16.757 19.5405 15.9799 20.2246 15.2285 20.0464C14.6477 19.9519 14.192 19.3868 14.2108 18.794C14.2092 18.227 14.6328 17.7 15.1814 17.5801ZM19.634 18.7786C19.6458 17.9975 18.8332 17.3682 18.0882 17.5785C17.6465 17.6894 17.2725 18.0571 17.1749 18.5093C16.9816 19.1879 17.4925 19.9562 18.1848 20.0467C18.9205 20.1969 19.6733 19.5358 19.634 18.7786ZM12.4833 18.0484C12.9988 17.9596 13.4822 18.5405 13.2731 19.035C13.1206 19.5619 12.3615 19.7048 12.0258 19.2744C11.6321 18.8611 11.926 18.1055 12.4833 18.0484ZM21.9971 18.7828C22.0324 18.2788 21.4682 17.8772 21.0085 18.0717C20.4529 18.25 20.3602 19.1056 20.8694 19.3963C21.3189 19.7201 22.0155 19.3376 21.9971 18.7828ZM23.3912 20.4858C23.2112 20.1469 23.5382 19.6977 23.9107 19.7604C24.0859 19.7574 24.2113 19.889 24.3248 20.0079L24.3446 20.0287L24.3488 20.063C24.3729 20.2563 24.4005 20.4779 24.2448 20.6239C24.0207 20.9104 23.513 20.8287 23.3912 20.4858ZM10.5041 20.381C10.5824 19.9698 10.0813 19.6206 9.73312 19.8548C9.40146 20.0255 9.38964 20.5588 9.71023 20.7461C10.0089 20.9525 10.4624 20.7446 10.5041 20.381ZM16.6118 20.616C17.0676 20.4128 17.6483 20.8137 17.6051 21.3208C17.6389 21.8812 16.9207 22.2692 16.475 21.9327C15.98 21.6438 16.0625 20.7937 16.6118 20.616ZM14.2996 21.9556C14.335 21.5168 13.814 21.1604 13.4257 21.3667C13.1522 21.47 13.0407 21.7748 13.0359 22.0484C13.1294 22.2995 13.3196 22.5636 13.6112 22.5699C13.9632 22.6232 14.3114 22.316 14.2996 21.9556ZM19.8791 21.3731C20.2783 21.1239 20.8457 21.4818 20.8079 21.9512C20.8182 22.4417 20.1769 22.7559 19.8052 22.4337C19.4453 22.1811 19.4892 21.5739 19.8791 21.3731ZM21.3215 23.5153C21.0332 23.5772 20.8241 23.9042 21.0017 24.1756C21.184 24.4908 21.7161 24.378 21.7499 24.0106C21.7986 23.7391 21.5534 23.5629 21.3215 23.5153ZM12.0927 23.9399C12.1634 23.7248 12.3347 23.511 12.5854 23.5669C12.9509 23.5931 13.0593 24.1495 12.7395 24.321C12.4518 24.5169 12.1181 24.2486 12.0927 23.9399ZM17.1372 23.8827C16.8684 23.7137 16.4605 23.8685 16.3906 24.1867C16.2627 24.5082 16.5697 24.8968 16.9101 24.8565C17.0932 24.8613 17.2346 24.7295 17.3447 24.5978C17.3661 24.5089 17.3879 24.42 17.4122 24.3311L17.4107 24.3255C17.3655 24.1561 17.3128 23.9589 17.1372 23.8827Z" fill="#3CC8C8"/>
</svg>
