<svg width="33" height="33" viewBox="0 0 33 33" fill="none" xmlns="http://www.w3.org/2000/svg">
<circle cx="16.3047" cy="16.4778" r="16" fill="#EDF0F4"/>
<path fill-rule="evenodd" clip-rule="evenodd" d="M17.262 5.22739C16.7077 4.26991 15.8258 4.26991 15.2715 5.22739L5.20533 22.9534C4.651 23.9235 5.10455 24.692 6.21321 24.692H11.2652C12.2857 24.629 13.2053 24.0872 13.7597 23.2305L19.8447 12.6857C20.2857 11.7786 20.2857 10.7077 19.8447 9.80062L18.0305 6.61321L17.262 5.22739ZM23.9524 16.8935C23.3981 15.9361 22.5036 15.9361 21.9493 16.8935L18.4343 22.9534C17.8926 23.9109 18.3461 24.692 19.4422 24.692H26.3965C27.5052 24.692 27.9587 23.9109 27.4044 22.9534L23.9524 16.8935Z" fill="#E84142"/>
</svg>
