<svg width="32" height="33" viewBox="0 0 32 33" fill="none" xmlns="http://www.w3.org/2000/svg">
<path fill-rule="evenodd" clip-rule="evenodd" d="M16 0.923096C24.8352 0.923096 32 8.0879 32 16.9231C32 25.7583 24.8352 32.9231 16 32.9231C7.1648 32.9231 0 25.7583 0 16.9231C0 8.0879 7.1648 0.923096 16 0.923096Z" fill="#EAEEF2"/>
<path fill-rule="evenodd" clip-rule="evenodd" d="M8.70553 11.5087C8.70553 11.5087 6.98393 10.1327 6.86553 13.5311C6.74713 16.1647 6.75033 21.2783 7.96953 23.6943C8.48473 24.6031 9.17273 24.3247 10.4527 23.4191C11.5663 22.5967 15.5951 18.8847 17.3007 17.2559C19.0063 15.6271 22.4655 10.9551 23.1855 14.1295C23.4703 15.4639 23.8223 16.5967 23.5535 19.5567C23.4703 20.4687 23.0799 21.1599 21.3007 19.9247C19.9567 19.0607 18.6799 18.1327 18.6799 18.1327C18.6799 18.1327 18.4335 17.6911 17.8511 18.4079C17.3935 18.9807 17.1631 19.1215 17.8959 19.5567C18.6319 19.9919 22.3535 22.5583 23.7807 22.9583C24.9583 23.3007 25.6303 23.2943 25.6655 20.9807C25.6591 19.1439 25.5535 13.8863 24.8847 11.6463C24.3791 10.2511 23.6367 9.61745 22.0335 11.1855C20.4303 12.7535 15.3743 17.6559 12.6095 19.8767C10.7759 21.2527 9.99193 22.4943 9.30073 20.1999C8.81433 18.4623 8.18393 13.0543 10.1743 14.0847C11.4191 14.6799 12.0399 14.6767 11.5535 15.0511C11.0671 15.4223 9.66873 16.7055 9.66873 16.7055C9.66873 16.7055 9.23673 17.0543 9.43833 17.8095C9.63993 18.3375 9.63993 18.5999 10.7247 17.5791C11.8095 16.5583 12.6095 15.7871 12.6095 15.7871C12.6095 15.7871 12.7823 15.5151 13.2975 16.0175C13.8127 16.5199 13.8959 16.6607 13.8959 16.6607C13.8959 16.6607 14.0335 17.0351 14.5839 16.3855C15.1375 15.7359 15.4927 15.3391 14.4463 14.7311C13.4031 14.1167 8.70553 11.5087 8.70553 11.5087Z" fill="#0055D5"/>
</svg>
