<svg width="33" height="33" viewBox="0 0 33 33" fill="none" xmlns="http://www.w3.org/2000/svg">
<g clip-path="url(#clip0_11918_69039)">
<circle cx="16.3047" cy="15.9565" r="16" fill="#EDF0F4"/>
<path d="M11.6437 14.0416L16.3047 9.38056L20.9679 14.0436L23.6799 11.3316L16.3047 3.95654L8.93189 11.3294L11.6437 14.0416ZM4.30469 15.9566L7.01678 13.2441L9.72869 15.956L7.01659 18.6681L4.30469 15.9566ZM11.6437 17.8719L16.3047 22.5326L20.9678 17.8697L23.6812 20.5803L23.6799 20.5817L16.3047 27.9566L8.93189 20.5838L8.92805 20.58L11.6437 17.8719ZM22.8807 15.9577L25.5928 13.2456L28.3047 15.9576L25.5927 18.6697L22.8807 15.9577Z" fill="#F3BA2F"/>
<path d="M19.0547 15.9551H19.0559L16.3042 13.2031L14.2702 15.2365L14.0365 15.4703L13.5546 15.9523L13.5508 15.956L13.5546 15.96L16.3042 18.7099L19.0561 15.958L19.0574 15.9564L19.0549 15.9551" fill="#F3BA2F"/>
</g>
<defs>
<clipPath id="clip0_11918_69039">
<rect width="32" height="32" fill="white" transform="translate(0.304688 0.244141)"/>
</clipPath>
</defs>
</svg>
