<svg width="32" height="33" viewBox="0 0 32 33" fill="none" xmlns="http://www.w3.org/2000/svg">
<path d="M16 0.203125C24.8374 0.203125 32 7.3672 32 16.2031C32 25.0405 24.8374 32.2031 16 32.2031C7.16407 32.2031 0 25.0398 0 16.2031C0 7.3672 7.16407 0.203125 16 0.203125Z" fill="#ECEFF3"/>
<path fill-rule="evenodd" clip-rule="evenodd" d="M24.9531 13.8681C25.327 11.3646 23.4209 10.0188 20.8145 9.12099L21.66 5.72969L19.5951 5.21523L18.772 8.51717C18.2299 8.38194 17.6725 8.25435 17.1186 8.12794L17.9477 4.80425L15.8845 4.28979L15.0385 7.67992C14.5893 7.57762 14.1483 7.47649 13.7203 7.37007L13.7226 7.35949L10.8758 6.64866L10.3266 8.85347C10.3266 8.85347 11.8582 9.20448 11.8259 9.22623C12.662 9.43496 12.8137 9.98822 12.7878 10.4268L11.8247 14.2903C11.8823 14.305 11.957 14.3261 12.0393 14.359L11.8218 14.305L10.4713 19.717C10.369 19.971 10.1097 20.352 9.52525 20.2074C9.54583 20.2374 8.0248 19.8329 8.0248 19.8329L7 22.1964L9.68694 22.8661C9.99007 22.9421 10.2895 23.0202 10.5857 23.0975L10.5864 23.0976C10.7782 23.1477 10.9688 23.1974 11.158 23.2459L10.3037 26.6766L12.3656 27.1911L13.2123 23.7974C13.775 23.9503 14.3218 24.0914 14.8568 24.2243L14.0137 27.6021L16.078 28.1165L16.9323 24.6929C20.4523 25.359 23.0999 25.0903 24.2129 21.9072C25.1107 19.3437 24.1688 17.865 22.3167 16.9002C23.6655 16.588 24.6815 15.7008 24.9525 13.8681H24.9531ZM20.2358 20.482C19.6498 22.8348 15.9663 21.8613 14.2824 21.4162L14.282 21.4161C14.1314 21.3763 13.9968 21.3408 13.8818 21.3122L15.0154 16.7679C15.156 16.803 15.3278 16.8415 15.5224 16.8852L15.5225 16.8852C17.2645 17.2761 20.8346 18.0773 20.2364 20.482H20.2358ZM15.8725 14.7765C17.2776 15.1513 20.3401 15.9684 20.8737 13.8311C21.4191 11.6445 18.4411 10.9855 16.9866 10.6636C16.8231 10.6275 16.6789 10.5955 16.561 10.5662L15.5333 14.6877C15.6306 14.712 15.7447 14.7424 15.8725 14.7765Z" fill="#F7931A"/>
</svg>
