<svg width="33" height="33" viewBox="0 0 33 33" fill="none" xmlns="http://www.w3.org/2000/svg">
<path fill-rule="evenodd" clip-rule="evenodd" d="M16.3047 32.2441C7.50469 32.2441 0.304688 25.0443 0.304688 16.1645C0.384688 7.36465 7.50469 0.164803 16.3847 0.244801C25.1847 0.324799 32.3047 7.44465 32.3047 16.4045C32.2247 25.1243 25.1047 32.2441 16.3047 32.2441Z" fill="#EDF0F4"/>
<path fill-rule="evenodd" clip-rule="evenodd" d="M10.2866 9.82756C9.99594 8.31089 11.1587 6.91089 12.6704 6.91089C14.0076 6.91089 15.1123 8.01922 15.1123 9.36089V12.3942C15.4611 12.3942 15.8099 12.3359 16.1588 12.3359C16.5076 12.3359 16.7983 12.3359 17.1472 12.3942V9.36089C17.1472 8.01922 18.2518 6.91089 19.589 6.91089C21.1007 6.91089 22.2635 8.31089 22.0309 9.82756L21.3914 13.3859C23.6588 14.3776 25.403 16.1276 25.403 18.2859V19.6276C25.403 21.4359 24.2402 22.9526 22.5542 23.9442C20.8681 24.9942 18.6588 25.5776 16.1588 25.5776C13.6588 25.5776 11.4494 24.9942 9.76338 23.9442C8.13546 22.9526 6.97266 21.4359 6.97266 19.6276V18.2859C6.97266 16.1276 8.65872 14.3776 10.9262 13.3859L10.2866 9.82756ZM20.5194 13.8526L21.2753 9.65257C21.4497 8.60257 20.6939 7.6109 19.5892 7.6109C18.659 7.6109 17.9031 8.36924 17.9031 9.30257V13.1526C17.6706 13.0942 17.3799 13.0942 17.1473 13.0942C16.7985 13.0942 16.5078 13.0359 16.1589 13.0359C15.8101 13.0359 15.4613 13.0359 15.1124 13.0942C14.8799 13.0942 14.5892 13.1526 14.3566 13.1526V9.3609C14.3566 8.42757 13.6008 7.66924 12.6705 7.66924C11.624 7.66924 10.8101 8.6609 11.0426 9.7109L11.7984 13.9109C9.35657 14.8442 7.72865 16.4776 7.72865 18.3442V19.6859C7.72865 22.5442 11.5077 24.8776 16.1589 24.8776C20.8101 24.8776 24.5892 22.5442 24.5892 19.6859V18.3442C24.6474 16.4192 23.0195 14.7859 20.5194 13.8526Z" fill="#633001"/>
<path d="M24.6378 19.6113C24.6378 22.5058 20.8377 24.8687 16.1607 24.8687C11.4837 24.8687 7.68359 22.5058 7.68359 19.6113V18.2527H24.6963V19.6113H24.6378Z" fill="#FEDC90"/>
<path fill-rule="evenodd" clip-rule="evenodd" d="M10.9688 9.65698C10.7341 8.60932 11.5554 7.61987 12.6114 7.61987C13.55 7.61987 14.3127 8.37651 14.3127 9.30776V13.1492C14.8993 13.091 15.486 13.0328 16.1313 13.0328C16.7179 13.0328 17.3045 13.091 17.8912 13.1492V9.30776C17.8912 8.37651 18.6538 7.61987 19.5925 7.61987C20.6484 7.61987 21.4697 8.60932 21.2937 9.65698L20.5311 13.8476C22.995 14.7788 24.6963 16.4085 24.6963 18.271C24.6963 21.123 20.8831 23.4511 16.1899 23.4511C11.4968 23.4511 7.68359 21.123 7.68359 18.271C7.68359 16.4085 9.3262 14.7788 11.7901 13.8476L10.9688 9.65698Z" fill="#D1884F"/>
<path d="M13.8239 18.0164C13.8239 18.7843 13.4104 19.4341 12.8787 19.4341C12.3471 19.4341 11.9336 18.7843 11.9336 18.0164C11.9336 17.2484 12.3471 16.5986 12.8787 16.5986C13.4104 16.5986 13.8239 17.2484 13.8239 18.0164Z" fill="#633001"/>
<path d="M20.4411 18.0164C20.4411 18.7843 20.0276 19.4341 19.4959 19.4341C18.9643 19.4341 18.5508 18.7843 18.5508 18.0164C18.5508 17.2484 18.9643 16.5986 19.4959 16.5986C20.0276 16.5986 20.4411 17.2484 20.4411 18.0164Z" fill="#633001"/>
</svg>
