<svg width="32" height="33" viewBox="0 0 32 33" fill="none" xmlns="http://www.w3.org/2000/svg">
<path d="M16 32.9231C24.8368 32.9231 32 25.7599 32 16.9231C32 8.0863 24.8368 0.923096 16 0.923096C7.1632 0.923096 0 8.0863 0 16.9231C0 25.7599 7.1632 32.9231 16 32.9231Z" fill="#EDF0F4"/>
<path fill-rule="evenodd" clip-rule="evenodd" d="M9.24386 22.288C8.76546 21.9952 8.47266 21.4752 8.47266 20.9152V17.7888C8.47266 17.4176 8.77506 17.1168 9.14626 17.1184C9.26466 17.1184 9.38146 17.1504 9.48386 17.2096L16.5383 21.3232C16.9511 21.5632 17.2055 22.0048 17.2055 22.4832V25.7216C17.2071 26.1664 16.8471 26.528 16.4023 26.528C16.2535 26.528 16.1063 26.4864 15.9799 26.4096L9.24386 22.288ZM19.759 16.3536C20.1718 16.5936 20.4246 17.0368 20.4262 17.5136V24.0864C20.4262 24.28 20.3222 24.4592 20.1526 24.5536L18.6086 25.4224C18.5894 25.4336 18.5686 25.4416 18.5462 25.448V21.7984C18.5462 21.3264 18.2982 20.888 17.8918 20.6448L11.6966 16.9392V12.8192C11.6966 12.448 11.999 12.1472 12.3702 12.1488C12.4886 12.1488 12.6054 12.1808 12.7078 12.24L19.759 16.3536ZM22.8471 11.4992C23.2615 11.7392 23.5159 12.1824 23.5159 12.6608V22.2608C23.5143 22.4576 23.4055 22.6384 23.2327 22.7328L21.7687 23.5232V16.84C21.7687 16.368 21.5207 15.9312 21.1175 15.688L14.7847 11.8896V7.98239C14.7847 7.86399 14.8167 7.74719 14.8743 7.64479C15.0615 7.32479 15.4727 7.21599 15.7927 7.40159L22.8471 11.4992Z" fill="#00D395"/>
</svg>
