<svg width="33" height="33" viewBox="0 0 33 33" fill="none" xmlns="http://www.w3.org/2000/svg">
<path d="M16.3867 0.337891C25.2241 0.337891 32.3867 7.50196 32.3867 16.3379C32.3867 25.1753 25.2241 32.3379 16.3867 32.3379C7.55079 32.3379 0.386719 25.1745 0.386719 16.3379C0.386719 7.50196 7.55079 0.337891 16.3867 0.337891Z" fill="#ECEFF3"/>
<path fill-rule="evenodd" clip-rule="evenodd" d="M8.48815 25.2565V25.3163L8.48527 25.3184V25.3285H15.4254C16.2109 25.3393 16.9936 25.2767 17.7654 25.1384C18.5783 24.9793 19.3703 24.7287 20.1256 24.3889C20.4531 24.2372 20.7673 24.0539 21.0843 23.8689C21.1646 23.8221 21.245 23.7752 21.3259 23.7286C21.6988 23.463 22.056 23.175 22.3958 22.869C23.3261 22.028 24.0461 20.9789 24.4961 19.8089C24.5263 19.6779 24.6545 19.5936 24.7862 19.6188H26.6762C26.8267 19.6188 26.8764 19.5684 26.8764 19.3985V18.1882C26.8865 18.0723 26.8865 17.9549 26.8764 17.839C26.8764 17.8087 26.8842 17.7785 26.892 17.7483C26.9075 17.6882 26.9229 17.6282 26.8764 17.5683H25.2974C25.1066 17.5683 25.1066 17.5481 25.1066 17.3782C25.1614 16.7691 25.1614 16.1578 25.1066 15.5486C25.0966 15.3686 25.1369 15.3686 25.2766 15.3686H26.6568C26.8174 15.3686 26.8771 15.3283 26.8771 15.1685V13.5283C26.8722 13.4197 26.8696 13.3646 26.8408 13.3367C26.8112 13.308 26.7538 13.308 26.6374 13.308H24.8474C24.7078 13.3317 24.5738 13.2374 24.5486 13.0977C24.3434 12.5613 24.0821 12.048 23.7674 11.5677C23.4506 11.094 23.0935 10.649 22.6975 10.2379C22.1712 9.71226 21.58 9.25578 20.9378 8.87778C19.9694 8.31545 18.9103 7.92161 17.8079 7.71784C17.273 7.6192 16.7322 7.55944 16.1879 7.53784H8.68831C8.48815 7.53784 8.48815 7.57816 8.48815 7.738V13.128C8.48815 13.3181 8.44783 13.3181 8.29806 13.3181H6.14812C5.98828 13.3181 5.98828 13.3476 5.98828 13.4577V15.2174C5.98828 15.3773 6.03796 15.3773 6.1582 15.3773H8.3283C8.48815 15.3773 8.48815 15.4068 8.48815 15.527V17.407C8.48815 17.5769 8.43775 17.5769 8.30814 17.5769H5.98828V19.477C5.98828 19.6368 6.03796 19.6368 6.1582 19.6368H8.3283C8.48815 19.6368 8.48815 19.6563 8.48815 19.7866V22.1367V22.9266V25.2565ZM22.2993 13.1467C22.3166 13.1913 22.3166 13.241 22.2993 13.2864H22.3475C22.3274 13.3461 22.2273 13.3663 22.2273 13.3663H10.6877C10.4977 13.3663 10.4977 13.326 10.4977 13.1762V9.62658C10.4977 9.49626 10.5178 9.4365 10.6676 9.4365H16.0374C16.6091 9.43146 17.1793 9.49122 17.7373 9.6165C18.8433 9.87858 19.8721 10.3999 20.7376 11.1364C20.9104 11.2653 21.0645 11.4172 21.1977 11.5864C21.4799 11.8665 21.7276 12.1783 21.9378 12.5167C22.0775 12.7147 22.1978 12.9257 22.2993 13.1467ZM22.7774 17.5661H16.6976H10.7374C10.6158 17.5661 10.5559 17.5661 10.5264 17.5361C10.4977 17.507 10.4977 17.4496 10.4977 17.3364V15.5566C10.4977 15.4162 10.538 15.3665 10.6877 15.3665H22.7875C22.9178 15.3665 22.9775 15.4162 22.9775 15.5364C23.0272 16.1556 23.0272 16.7777 22.9775 17.3962C22.9682 17.5661 22.907 17.5661 22.7774 17.5661ZM22.2986 19.6462C22.1287 19.6275 21.9573 19.6275 21.7874 19.6462H10.6978C10.5481 19.6462 10.4977 19.6462 10.4977 19.8464V23.3168C10.4977 23.4766 10.4977 23.517 10.6978 23.517H15.8178C16.0626 23.5357 16.3074 23.5184 16.5472 23.4673C17.2902 23.414 18.021 23.2527 18.718 22.987C18.9714 22.8992 19.2162 22.7847 19.4473 22.6472H19.5172C20.7174 22.0229 21.6923 21.0423 22.3072 19.8384C22.3072 19.8384 22.3771 19.6872 22.2986 19.6476V19.6462Z" fill="#F5AC37"/>
</svg>
