<svg width="32" height="33" viewBox="0 0 32 33" fill="none" xmlns="http://www.w3.org/2000/svg">
<circle cx="16" cy="16.6914" r="16" fill="#EDF0F4"/>
<path d="M22.476 8.90587C23.0176 8.97357 23.5818 9.0187 24.1234 9.10897C25.1841 9.31207 25.5451 9.85368 25.3646 10.9369C25.3195 11.3431 25.0035 11.659 24.5973 11.7267C24.3491 11.7719 24.0783 11.7944 23.83 11.7719C20.3096 11.7719 16.8117 11.7944 13.2913 11.7944C12.7722 11.7944 12.2306 11.8396 11.7116 11.9298C9.97391 12.2006 9.2969 12.9228 9.1615 14.683C9.0938 15.4954 9.0938 15.4954 9.92878 15.4954H23.9203C24.0557 15.4954 24.1911 15.4954 24.3265 15.4954C24.5522 15.4954 24.7553 15.5631 24.9584 15.676C25.5903 16.0822 25.4323 16.7366 25.4097 17.3234C25.3872 17.7973 25.0938 18.0681 24.5973 18.1583C24.3942 18.2035 24.1911 18.2035 23.9655 18.2035C19.1812 18.2035 14.397 18.2035 9.61284 18.2035C9.0938 18.2035 9.0938 18.2035 9.13893 18.7225C9.1615 19.1964 9.20663 19.6703 9.31947 20.1442C9.54514 21.0018 10.0642 21.5434 10.9443 21.7916C11.8921 22.0624 12.8851 22.1076 13.8554 22.1301C17.2631 22.1301 20.6932 22.1301 24.1234 22.1301C24.5522 22.1301 24.9584 22.1753 25.2292 22.5815C25.658 23.2585 25.4323 24.1386 24.7553 24.5674C24.665 24.6351 24.5748 24.6802 24.4619 24.7028C23.7172 24.951 22.9499 24.9961 22.1601 25.0187C18.933 25.0864 15.7285 25.0864 12.524 25.0187C11.531 24.9961 10.5381 24.8833 9.56771 24.6802C7.28844 24.2063 6.13752 23.0328 5.75388 20.731C5.66362 20.2119 5.61848 19.6703 5.55078 19.1287V14.9313C5.59592 14.5251 5.64105 14.0963 5.68618 13.6901C5.97955 11.0949 7.15304 9.80855 9.70311 9.22181C10.6058 9.0187 11.5536 8.97357 12.4563 8.8833L22.476 8.90587Z" fill="#7866D5"/>
<path fill-rule="evenodd" clip-rule="evenodd" d="M12.5014 25.4249C14.1036 25.4474 15.7059 25.47 17.3307 25.47C18.146 25.47 18.9612 25.4643 19.7736 25.4587C20.5804 25.453 21.3843 25.4474 22.1826 25.4474C22.9048 25.4249 23.7623 25.3797 24.5973 25.1089C24.7327 25.0638 24.8681 24.9961 24.9809 24.9284C25.4097 24.6576 25.7031 24.2514 25.8159 23.7775C25.9287 23.3036 25.861 22.8071 25.5902 22.3783C25.184 21.7239 24.4844 21.7239 24.1459 21.7239H21.8892C19.2489 21.7239 16.5409 21.7239 13.878 21.7013C13.0204 21.7013 12.0275 21.6562 11.0571 21.3854C10.3349 21.1823 9.90617 20.7535 9.72563 20.0539C9.6128 19.6026 9.56766 19.1512 9.54509 18.6773V18.6548V18.5871H9.63536H23.9654C24.1911 18.5871 24.4167 18.5871 24.665 18.5419C25.3646 18.4065 25.7482 17.9778 25.7933 17.3459C25.7933 17.312 25.799 17.2725 25.8046 17.233C25.8103 17.1936 25.8159 17.1541 25.8159 17.1202L25.8168 17.109C25.8619 16.5684 25.9235 15.8305 25.1615 15.3374C24.9132 15.202 24.6198 15.1117 24.3265 15.1117H9.92873H9.54509C9.54509 15.0579 9.55023 14.9989 9.55561 14.9372C9.56149 14.8697 9.56766 14.7989 9.56766 14.7281C9.70306 13.1484 10.2221 12.5842 11.7792 12.336C12.2757 12.2457 12.7947 12.2006 13.2912 12.2006C16.7891 12.2006 20.3096 12.178 23.8074 12.1555C24.1008 12.1555 24.3716 12.1329 24.6424 12.0878C25.2517 11.9975 25.7031 11.5236 25.7708 10.9594C25.9964 9.65053 25.5 8.92839 24.2136 8.68015C23.9117 8.61305 23.6221 8.58336 23.3358 8.55399C23.237 8.54386 23.1386 8.53377 23.0402 8.52218C22.8822 8.52218 22.7017 8.49962 22.5437 8.47705H22.5211H12.4788H12.4337L11.7567 8.54475C11.0571 8.61245 10.3575 8.68015 9.63536 8.83812C6.90476 9.44743 5.59587 10.8692 5.27993 13.6449C5.2693 13.7725 5.25366 13.9001 5.23773 14.03C5.21985 14.1759 5.2016 14.3247 5.18967 14.4799L5.14453 14.8861V19.1287V19.1738C5.1671 19.3543 5.18966 19.5123 5.21223 19.6703L5.21223 19.6703C5.2348 20.0314 5.27993 20.415 5.34763 20.7986C5.75384 23.2359 7.01759 24.5448 9.47739 25.0638C10.4703 25.2895 11.4859 25.4023 12.5014 25.4249ZM6.00205 19.58C6.00205 19.422 5.97948 19.2641 5.95691 19.1061V14.9763L6.00205 14.5927C6.01398 14.4375 6.03223 14.2887 6.05011 14.1428C6.06604 14.0129 6.08168 13.8853 6.09231 13.7577C6.36312 11.3205 7.4012 10.1696 9.77073 9.58281C10.3514 9.44732 10.9155 9.39484 11.5057 9.33992C11.6036 9.33082 11.7022 9.32164 11.8018 9.31201L12.4788 9.24431H22.4534C22.6114 9.24431 22.7919 9.26688 22.9499 9.28944C23.3109 9.31201 23.672 9.35714 24.0331 9.42484C24.8906 9.60538 25.1163 9.89875 24.9583 10.8014C24.9358 11.0271 24.7552 11.2076 24.5296 11.2302C24.3039 11.2753 24.0782 11.2753 23.83 11.2753C22.0697 11.2753 20.3152 11.281 18.5606 11.2866C16.806 11.2923 15.0514 11.2979 13.2912 11.2979C12.727 11.3205 12.1854 11.3656 11.6438 11.4559C9.7256 11.7492 8.91319 12.6294 8.75522 14.5701C8.75285 14.6199 8.75023 14.6679 8.74771 14.7142C8.72616 15.1094 8.71121 15.3837 8.91319 15.5856C9.13886 15.8113 9.43223 15.8113 9.9287 15.8113H24.3716C24.507 15.8113 24.665 15.8564 24.7778 15.9241C25.0937 16.1272 25.0937 16.398 25.0486 16.9622C25.0486 17.0074 25.0429 17.0468 25.0373 17.0863C25.0317 17.1258 25.026 17.1653 25.026 17.2105C25.0035 17.4361 24.9132 17.5941 24.5521 17.6618C24.3716 17.7069 24.1685 17.7069 23.9879 17.7069H9.63533C9.31939 17.7069 9.07116 17.7069 8.89062 17.91C8.71573 18.1068 8.73144 18.3247 8.75311 18.6254C8.75381 18.6351 8.75451 18.6449 8.75522 18.6547V18.6773C8.75522 19.1738 8.82292 19.6928 8.93576 20.1893C9.18399 21.2048 9.81587 21.8593 10.8314 22.1301C11.892 22.446 12.9527 22.4911 13.8554 22.4911C16.5183 22.5137 19.2489 22.5137 21.8666 22.5137H24.1233C24.5521 22.5137 24.7327 22.5814 24.8681 22.7845C25.026 23.0327 25.0712 23.3035 25.0035 23.5744C24.9358 23.8452 24.7552 24.0708 24.5296 24.2288C24.4957 24.2401 24.4618 24.257 24.428 24.2739C24.3941 24.2909 24.3603 24.3078 24.3264 24.3191C23.6043 24.5447 22.8145 24.5899 22.16 24.6124C18.9555 24.6801 15.7059 24.6801 12.5239 24.6124C11.5535 24.5899 10.5831 24.477 9.63533 24.2739C7.51403 23.8226 6.49852 22.7845 6.13745 20.6632L6.00205 19.58Z" fill="#7866D5"/>
</svg>
