<svg width="32" height="33" viewBox="0 0 32 33" fill="none" xmlns="http://www.w3.org/2000/svg">
<g clip-path="url(#clip0_11918_69011)">
<ellipse cx="15.668" cy="16.6754" rx="16" ry="16.0018" fill="#EDF0F4"/>
<path d="M16.036 4.67407L15.875 5.22111V21.0936L16.036 21.2543L23.4029 16.8992L16.036 4.67407Z" fill="#343434"/>
<path d="M16.035 4.67407L8.66797 16.8992L16.035 21.2543V13.5502V4.67407Z" fill="#8C8C8C"/>
<path d="M16.0361 22.647L15.9453 22.7577V28.4118L16.0361 28.6767L23.4074 18.2942L16.0361 22.647Z" fill="#3C3C3B"/>
<path d="M16.035 28.6767V22.647L8.66797 18.2942L16.035 28.6767Z" fill="#8C8C8C"/>
<path d="M16.0352 21.2568L23.402 16.9017L16.0352 13.5527V21.2568Z" fill="#141414"/>
<path d="M8.66797 16.9017L16.035 21.2568V13.5527L8.66797 16.9017Z" fill="#393939"/>
</g>
<defs>
<clipPath id="clip0_11918_69011">
<rect width="32" height="32.0036" fill="white" transform="translate(0 0.673584)"/>
</clipPath>
</defs>
</svg>
