<svg width="33" height="33" viewBox="0 0 33 33" fill="none" xmlns="http://www.w3.org/2000/svg">
<circle cx="16.3867" cy="16.3379" r="16" fill="#EDF0F4"/>
<path d="M21.1887 13.1245C20.8476 12.9283 20.4089 12.9283 20.019 13.1245L17.2897 14.7435L15.4376 15.7738L12.757 17.3928C12.4159 17.589 11.9772 17.589 11.5873 17.3928L9.49159 16.1172C9.15042 15.9209 8.90673 15.5285 8.90673 15.0869V12.6339C8.90673 12.2414 9.10169 11.8489 9.49159 11.6036L11.5873 10.3771C11.9285 10.1809 12.3671 10.1809 12.757 10.3771L14.8528 11.6527C15.1939 11.8489 15.4376 12.2414 15.4376 12.683V14.302L17.2897 13.2226V11.5546C17.2897 11.1621 17.0947 10.7696 16.7048 10.5243L12.8058 8.21847C12.4646 8.02223 12.026 8.02223 11.6361 8.21847L7.63954 10.5734C7.24964 10.7696 7.05469 11.1621 7.05469 11.5546V16.1662C7.05469 16.5587 7.24964 16.9512 7.63954 17.1965L11.5873 19.5023C11.9285 19.6986 12.3671 19.6986 12.757 19.5023L15.4376 17.9324L17.2897 16.8531L19.9703 15.2832C20.3114 15.0869 20.7501 15.0869 21.14 15.2832L23.2357 16.5097C23.5769 16.7059 23.8206 17.0984 23.8206 17.5399V19.9929C23.8206 20.3854 23.6256 20.7779 23.2357 21.0232L21.1887 22.2497C20.8476 22.446 20.4089 22.446 20.019 22.2497L17.9233 21.0232C17.5821 20.827 17.3384 20.4345 17.3384 19.9929V18.423L15.4864 19.5023V21.1213C15.4864 21.5138 15.6813 21.9063 16.0712 22.1516L20.019 24.4574C20.3602 24.6537 20.7988 24.6537 21.1887 24.4574L25.1365 22.1516C25.4777 21.9554 25.7214 21.5629 25.7214 21.1213V16.4606C25.7214 16.0681 25.5264 15.6756 25.1365 15.4303L21.1887 13.1245Z" fill="#8247E5"/>
</svg>
