<svg width="33" height="33" viewBox="0 0 33 33" fill="none" xmlns="http://www.w3.org/2000/svg">
<path d="M16.3867 32.7441C25.2235 32.7441 32.3867 25.5809 32.3867 16.7441C32.3867 7.90734 25.2235 0.744141 16.3867 0.744141C7.54992 0.744141 0.386719 7.90734 0.386719 16.7441C0.386719 25.5809 7.54992 32.7441 16.3867 32.7441Z" fill="#EDF0F4"/>
<path d="M14.4386 14.4144V7.31152C14.4386 7.31152 12.1367 8.45588 12.1367 10.8893C12.1367 13.3227 14.4386 14.4144 14.4386 14.4144Z" fill="#006E3C"/>
<path d="M14.4375 7.31152C14.4375 7.31152 16.7394 8.45588 16.7394 10.8893C16.7394 13.3227 14.4375 14.4144 14.4375 14.4144V7.31152Z" fill="#00B43C"/>
<path d="M19.791 17.7423L22.9479 15.9534C22.9479 15.9534 21.8561 15.2168 20.7775 15.835C19.6989 16.4532 19.791 17.7423 19.791 17.7423Z" fill="#006E3C"/>
<path d="M22.9498 15.9534C22.9498 15.9534 23.0156 17.2687 21.937 17.8738C20.8584 18.492 19.793 17.7423 19.793 17.7423L22.9498 15.9534Z" fill="#00B43C"/>
<path fill-rule="evenodd" clip-rule="evenodd" d="M23.1009 15.6612L23.1065 15.664L23.2907 15.7824V15.9797C23.2907 16.0323 23.2249 17.545 22.1068 18.1895C21.7648 18.3868 21.4097 18.4526 21.0809 18.4526C20.5416 18.4526 20.0549 18.2684 19.8181 18.15L19.3972 18.3868C19.4104 18.4657 19.4235 18.5578 19.4235 18.6499C19.4235 19.176 19.0684 19.6101 18.5948 19.7548V22.0435C19.0684 22.175 19.4235 22.6222 19.4235 23.1484C19.4235 23.7929 18.8974 24.3059 18.266 24.3059C17.924 24.3059 17.6215 24.1612 17.411 23.9244L15.5564 24.9899C15.5827 25.0819 15.5958 25.174 15.5958 25.2661C15.5958 25.8975 15.0697 26.4105 14.4383 26.4105C13.7938 26.4105 13.2808 25.8975 13.2808 25.2661C13.2808 25.174 13.294 25.0819 13.3203 24.9899L11.4656 23.9244C11.2552 24.1612 10.9526 24.3059 10.6106 24.3059C9.96611 24.3059 9.45312 23.7797 9.45312 23.1484C9.45312 22.6222 9.80827 22.1882 10.2818 22.0435V19.7548C9.80827 19.6232 9.45312 19.176 9.45312 18.6499C9.45312 18.0053 9.97927 17.4924 10.6106 17.4924C10.9263 17.4924 11.2025 17.6239 11.413 17.8212L13.3203 16.7163C13.294 16.6242 13.2808 16.5321 13.2808 16.4401C13.2808 15.9139 13.6228 15.4667 14.1095 15.3352V14.6512C13.557 14.2829 11.7945 12.9938 11.7945 10.9287C11.7945 8.53479 14.1621 7.04844 14.2673 6.98267L14.4383 6.87744L14.6093 6.98267C14.7145 7.04844 17.0822 8.53479 17.0822 10.9287C17.0822 12.9938 15.3196 14.296 14.7672 14.6512V15.3352C15.2407 15.4667 15.5958 15.9139 15.5958 16.4401C15.5958 16.5321 15.5827 16.6242 15.5564 16.7163L17.4505 17.8212C17.6609 17.6107 17.9372 17.4924 18.2528 17.4924C18.5685 17.4924 18.8448 17.6239 19.0552 17.8212L19.4761 17.5844C19.5156 17.1504 19.6866 16.1112 20.5942 15.5851C21.6995 14.9424 22.9933 15.606 23.1009 15.6612ZM18.266 19.1498C18.3844 19.1498 18.4896 19.1104 18.5817 19.0446C18.6738 18.9657 18.7395 18.8604 18.7527 18.7026C18.7659 18.6763 18.7659 18.65 18.7659 18.6237C18.7659 18.4132 18.6343 18.2291 18.4502 18.1502C18.3976 18.1238 18.3186 18.1107 18.2529 18.1107C18.1871 18.1107 18.1213 18.1238 18.0687 18.1502C17.8977 18.2159 17.7793 18.3738 17.753 18.5579V18.6237V18.7026C17.7793 18.8341 17.8451 18.9525 17.9503 19.0314C17.9898 19.0709 18.0293 19.0972 18.0819 19.1104C18.1476 19.1367 18.2003 19.1498 18.266 19.1498ZM18.7659 23.1484C18.7659 23.4377 18.5291 23.6613 18.2529 23.6613C18.1608 23.6613 18.0556 23.635 17.9898 23.5824C17.8451 23.4904 17.7399 23.3325 17.7399 23.1484V23.1352C17.7399 23.0826 17.7531 23.03 17.7662 22.9774C17.7925 22.8853 17.8583 22.8064 17.9372 22.7406C18.003 22.688 18.0819 22.6485 18.1608 22.6354C18.1726 22.6354 18.1845 22.6327 18.1975 22.6298L18.1975 22.6298C18.2134 22.6262 18.2312 22.6222 18.2529 22.6222C18.3713 22.6222 18.4897 22.6617 18.5686 22.7274C18.7001 22.8327 18.7659 22.9774 18.7659 23.1484ZM17.5162 22.2672C17.6346 22.162 17.7793 22.0831 17.9371 22.0436V19.7549C17.753 19.7023 17.5951 19.6102 17.4636 19.4787L15.5432 20.5967C15.5826 20.6888 15.5958 20.8072 15.5958 20.9124C15.5958 20.9813 15.5857 21.0402 15.5744 21.1065L15.5695 21.136L17.5162 22.2672ZM14.4382 25.7791C14.1751 25.7791 13.9646 25.595 13.9252 25.345V25.2661C13.9252 25.0557 14.0567 24.8715 14.2409 24.7926C14.3066 24.7663 14.3724 24.7531 14.4382 24.7531C14.5039 24.7531 14.5697 24.7663 14.6355 24.7926C14.8196 24.8715 14.9511 25.0557 14.9511 25.2661V25.345C14.9117 25.5818 14.6881 25.7791 14.4382 25.7791ZM11.3605 22.2672L13.3072 21.136C13.294 21.0702 13.2809 20.9913 13.2809 20.9124C13.2809 20.794 13.3072 20.6888 13.3335 20.5836L11.4131 19.4787C11.2815 19.6102 11.1237 19.7023 10.9395 19.7549V22.0436C11.0974 22.0831 11.2421 22.162 11.3605 22.2672ZM11.1367 23.1484C11.1367 23.3326 11.0447 23.4904 10.8868 23.5825C10.8079 23.6351 10.7158 23.6614 10.6237 23.6614C10.3344 23.6614 10.1108 23.4247 10.1108 23.1484C10.1108 22.9906 10.1897 22.8327 10.3081 22.7407C10.4001 22.6749 10.5054 22.6354 10.6237 22.6354C10.6501 22.6354 10.6895 22.6354 10.7158 22.6486C10.8079 22.6617 10.8737 22.7012 10.9394 22.7538C11.0184 22.8064 11.071 22.8985 11.1104 22.9906C11.1236 23.0432 11.1367 23.0958 11.1367 23.1484ZM10.6106 18.137C10.3344 18.137 10.0976 18.3607 10.0976 18.65C10.0976 18.8079 10.1766 18.9526 10.2818 19.0841C10.3607 19.1499 10.4791 19.1893 10.5975 19.1893C10.6632 19.1893 10.729 19.1762 10.7816 19.1499C10.8342 19.1236 10.8737 19.0973 10.9131 19.0709C11.0184 18.992 11.0973 18.8736 11.1105 18.7421V18.6632V18.5843C11.0841 18.4001 10.9658 18.2423 10.7948 18.1765C10.7422 18.1502 10.6764 18.137 10.6106 18.137ZM14.1225 16.0324C14.2146 15.9666 14.3198 15.9272 14.4382 15.9272C14.5566 15.9272 14.6749 15.9666 14.7539 16.0324C14.8591 16.1113 14.9249 16.2297 14.938 16.3612V16.4402C14.938 16.598 14.8591 16.7558 14.7407 16.8479C14.7013 16.8742 14.6618 16.9005 14.6092 16.9268C14.5566 16.9531 14.4908 16.9663 14.425 16.9663C14.3593 16.9663 14.2935 16.9531 14.2409 16.9268C14.1883 16.9137 14.1488 16.8874 14.1093 16.8479C13.991 16.7558 13.912 16.6112 13.912 16.4402V16.3612C13.9515 16.2297 14.0173 16.1113 14.1225 16.0324ZM14.7539 21.3068C14.8722 21.2148 14.9512 21.0832 14.9512 20.9254C14.9512 20.9254 14.9512 20.9122 14.9249 20.8991C14.9249 20.8465 14.9249 20.7938 14.9117 20.7544C14.8854 20.6492 14.8196 20.5571 14.7407 20.4913C14.6881 20.4519 14.6223 20.4124 14.5566 20.3992C14.5171 20.3861 14.4776 20.3861 14.425 20.3861C14.3724 20.3861 14.333 20.3861 14.2935 20.3992C14.2146 20.4124 14.1488 20.4519 14.0962 20.4913C14.0173 20.5702 13.9515 20.6623 13.9252 20.7675C13.912 20.807 13.912 20.8465 13.912 20.8991V20.9122C13.912 21.0701 13.991 21.2148 14.1093 21.3068C14.1357 21.3331 14.162 21.3463 14.1883 21.3594C14.254 21.3989 14.333 21.4252 14.425 21.4252C14.5171 21.4252 14.596 21.3989 14.6749 21.3594C14.6881 21.3529 14.7013 21.343 14.7144 21.3331L14.7144 21.3331C14.7276 21.3233 14.7407 21.3134 14.7539 21.3068ZM17.1347 18.3737C17.1084 18.4658 17.0953 18.5578 17.0953 18.6499C17.0953 18.742 17.1084 18.8472 17.1347 18.9393L15.2012 20.0573C15.0696 19.939 14.9249 19.86 14.754 19.8074V17.545C14.9381 17.4924 15.0959 17.4003 15.2275 17.2688L17.1347 18.3737ZM14.4384 7.65352C13.9254 8.02182 12.4391 9.2451 12.4391 10.9419C12.4391 12.3625 13.4782 13.3885 14.1227 13.8751V11.1918C14.1227 11.0208 14.2543 10.8761 14.4384 10.8761C14.6094 10.8761 14.7541 11.0208 14.7541 11.1918V13.8751C15.3855 13.3885 16.4378 12.3625 16.4378 10.9419C16.4378 9.2451 14.9514 8.02182 14.4384 7.65352ZM13.636 17.2688C13.7676 17.4003 13.9386 17.4924 14.1096 17.545V19.8074C13.9386 19.86 13.7939 19.939 13.6623 20.0442L11.7156 18.9261C11.7419 18.8341 11.7551 18.742 11.7551 18.6499C11.7551 18.5578 11.7419 18.4658 11.7156 18.3737L13.636 17.2688ZM11.7682 23.1483C11.7682 23.2141 11.7682 23.2799 11.7551 23.3456L13.636 24.4374C13.7807 24.3058 13.9386 24.2138 14.1227 24.1612V22.0171C13.9254 21.9514 13.7413 21.8461 13.6097 21.7014L11.7156 22.7932C11.7551 22.9116 11.7682 23.03 11.7682 23.1483ZM15.2406 24.4374C15.1091 24.3058 14.9381 24.2138 14.754 24.1612V22.0171C14.9513 21.9645 15.1354 21.8461 15.2669 21.7014L17.161 22.7932C17.1216 22.8984 17.1084 23.0168 17.1084 23.1483C17.1084 23.2141 17.1084 23.2799 17.1216 23.3456L15.2406 24.4374ZM20.502 17.729C20.8703 17.8211 21.3439 17.8606 21.7648 17.6238C22.383 17.2687 22.554 16.5057 22.6066 16.1506C22.2646 16.0059 21.5149 15.7823 20.9098 16.1375C20.4889 16.3874 20.2784 16.8214 20.1863 17.1766L20.8177 16.8083C20.9756 16.7162 21.1597 16.7688 21.2518 16.9267C21.3439 17.0845 21.2912 17.2687 21.1334 17.3607L20.502 17.729Z" fill="black"/>
</svg>
