<svg width="33" height="33" viewBox="0 0 33 33" fill="none" xmlns="http://www.w3.org/2000/svg">
<circle cx="16.3867" cy="16.7441" r="16" fill="#EDF0F4"/>
<path fill-rule="evenodd" clip-rule="evenodd" d="M13.9978 7.744H15.5563C15.5853 7.74185 15.6082 7.71886 15.6104 7.68995V6.13144C15.6082 6.10253 15.5853 6.07954 15.5563 6.07739H13.9978C13.9689 6.07954 13.9459 6.10253 13.9438 6.13144V7.68995C13.9433 7.70444 13.9488 7.71848 13.9591 7.72873C13.9693 7.73898 13.9833 7.74451 13.9978 7.744ZM15.5562 10.6087H13.9977C13.9688 10.6065 13.9458 10.5836 13.9437 10.5546V8.99613C13.9458 8.96722 13.9688 8.94423 13.9977 8.94208H15.5562C15.5851 8.94423 15.6081 8.96722 15.6103 8.99613V10.5546C15.6081 10.5836 15.5851 10.6065 15.5562 10.6087ZM15.5562 13.4645H10.7365C10.7221 13.465 10.708 13.4595 10.6978 13.4493C10.6875 13.439 10.682 13.425 10.6825 13.4105V11.852C10.6846 11.8231 10.7076 11.8001 10.7365 11.7979H15.5562C15.5851 11.8001 15.6081 11.8231 15.6103 11.852V13.4105C15.6081 13.4394 15.5851 13.4624 15.5562 13.4645ZM7.33131 17.5184H5.7728C5.74389 17.5205 5.7209 17.5435 5.71875 17.5724V19.1309C5.7209 19.1599 5.74389 19.1828 5.7728 19.185H7.33131C7.36022 19.1828 7.38321 19.1599 7.38536 19.1309V17.5724C7.38321 17.5435 7.36022 17.5205 7.33131 17.5184ZM11.4933 17.5184H13.0518C13.0807 17.5205 13.1037 17.5435 13.1058 17.5724V22.3921C13.1037 22.421 13.0807 22.444 13.0518 22.4461H11.4933C11.4644 22.444 11.4414 22.421 11.4392 22.3921V17.5724C11.4414 17.5435 11.4644 17.5205 11.4933 17.5184ZM22.583 15.9598H24.1415C24.1704 15.9577 24.1934 15.9347 24.1955 15.9058V14.3472C24.1934 14.3183 24.1704 14.2953 24.1415 14.2932H22.583C22.5541 14.2953 22.5311 14.3183 22.5289 14.3472V15.9058C22.5268 15.9206 22.5318 15.9357 22.5424 15.9463C22.5531 15.9569 22.5681 15.9619 22.583 15.9598ZM21.2768 15.96H19.7183C19.7038 15.9605 19.6898 15.955 19.6795 15.9448C19.6693 15.9345 19.6637 15.9205 19.6643 15.906V11.0863C19.6664 11.0574 19.6894 11.0344 19.7183 11.0323H21.2768C21.3057 11.0344 21.3287 11.0574 21.3309 11.0863V15.906C21.3287 15.9349 21.3057 15.9579 21.2768 15.96ZM8.6376 17.5184H10.1961C10.2237 17.5233 10.2453 17.5449 10.2502 17.5724V19.1309C10.248 19.1599 10.225 19.1828 10.1961 19.185H8.6376C8.60868 19.1828 8.58569 19.1599 8.58354 19.1309V17.5724C8.58569 17.5435 8.60868 17.5205 8.6376 17.5184ZM22.0425 20.0229H17.2229C17.1939 20.0251 17.171 20.0481 17.1688 20.077V21.6355C17.171 21.6644 17.1939 21.6874 17.2229 21.6895H22.0425C22.0714 21.6874 22.0944 21.6644 22.0966 21.6355V20.077C22.0948 20.0479 22.0716 20.0247 22.0425 20.0229ZM18.502 17.185H25.3306C25.3451 17.1845 25.3591 17.1901 25.3694 17.2003C25.3796 17.2106 25.3852 17.2246 25.3846 17.2391V18.7525C25.3825 18.7815 25.3595 18.8044 25.3306 18.8066H18.502C18.4731 18.8044 18.4501 18.7815 18.448 18.7525V17.2391C18.4501 17.2102 18.4731 17.1872 18.502 17.185ZM18.7724 22.8786H17.2139C17.1849 22.8808 17.1619 22.9038 17.1598 22.9327V24.4912C17.1619 24.5201 17.1849 24.5431 17.2139 24.5452H18.7724C18.8013 24.5431 18.8243 24.5201 18.8264 24.4912V22.9327C18.8269 22.9182 18.8214 22.9041 18.8111 22.8939C18.8009 22.8836 18.7868 22.8781 18.7724 22.8786ZM14.268 14.6807C14.2969 14.6828 14.3199 14.7058 14.3221 14.7347V16.2482C14.3199 16.2771 14.2969 16.3001 14.268 16.3022H7.43942C7.41051 16.3001 7.38752 16.2771 7.38537 16.2482V14.7347C7.38752 14.7058 7.41051 14.6828 7.43942 14.6807H14.268ZM26.9973 14.3024H25.4388C25.4098 14.3045 25.3869 14.3275 25.3847 14.3564V15.9149C25.3869 15.9438 25.4098 15.9668 25.4388 15.969H26.9973C27.0262 15.9668 27.0492 15.9438 27.0513 15.9149V14.3564C27.0535 14.3415 27.0485 14.3265 27.0378 14.3159C27.0272 14.3052 27.0122 14.3002 26.9973 14.3024ZM14.3762 18.8066H15.8896C15.9186 18.8087 15.9415 18.8317 15.9437 18.8606V25.6892C15.9415 25.7182 15.9186 25.7411 15.8896 25.7433H14.3762C14.3473 25.7411 14.3243 25.7182 14.3221 25.6892V18.8606C14.3243 18.8317 14.3473 18.8087 14.3762 18.8066ZM18.448 14.6357V7.79807C18.4459 7.76915 18.4229 7.74616 18.394 7.74401H16.8805C16.8516 7.74616 16.8286 7.76915 16.8265 7.79807V14.6357C16.8286 14.6646 16.8516 14.6876 16.8805 14.6897H18.394C18.4229 14.6876 18.4459 14.6646 18.448 14.6357ZM17.2139 25.7434H18.7724C18.7872 25.7412 18.8023 25.7462 18.8129 25.7569C18.8235 25.7675 18.8285 25.7825 18.8264 25.7974V27.3559C18.8243 27.3848 18.8013 27.4078 18.7724 27.41H17.2139C17.1849 27.4078 17.1619 27.3848 17.1598 27.3559V25.7974C17.1619 25.7685 17.1849 25.7455 17.2139 25.7434Z" fill="#149DD9"/>
</svg>
