<svg width="33" height="33" viewBox="0 0 33 33" fill="none" xmlns="http://www.w3.org/2000/svg">
<g clip-path="url(#clip0_11918_73718)">
<circle cx="16.3867" cy="16.3379" r="16" fill="#EDF0F4"/>
<path d="M10.8624 6.33789H22.3518C22.3763 6.33789 22.3997 6.34841 22.4159 6.36678L24.0772 8.06514C24.26 8.25201 24.3623 8.503 24.3623 8.76439V11.3676C24.3623 11.9199 23.9146 12.3676 23.3623 12.3676H19.4055C18.8533 12.3676 18.4055 11.9199 18.4055 11.3676V11.3472C18.4055 10.795 17.9578 10.3472 17.4055 10.3472H15.4356C14.8834 10.3472 14.4356 10.795 14.4356 11.3472V13.3382C14.4356 13.8904 14.8834 14.3382 15.4356 14.3382H21.924C22.1892 14.3382 22.4436 14.4435 22.6311 14.6311L24.0099 16.0099C24.1975 16.1974 24.3028 16.4518 24.3028 16.717V23.9014C24.3028 24.1666 24.1975 24.421 24.0099 24.6085L22.5734 26.045C22.3859 26.2325 22.1316 26.3379 21.8663 26.3379H10.9478C10.6826 26.3379 10.4282 26.2325 10.2407 26.045L8.70696 24.5113C8.51942 24.3237 8.41406 24.0694 8.41406 23.8042V21.3306C8.41406 20.7783 8.86178 20.3306 9.41406 20.3306H13.4747C14.0228 20.3306 14.4672 20.7749 14.4672 21.3231C14.4672 21.8712 14.9115 22.3155 15.4596 22.3155H17.3057C17.858 22.3155 18.3057 21.8678 18.3057 21.3155V19.3949C18.3057 18.8426 17.858 18.3949 17.3057 18.3949H10.8624C10.5972 18.3949 10.3428 18.2896 10.1553 18.102L8.70696 16.6537C8.51942 16.4662 8.41406 16.2118 8.41406 15.9466V8.78621C8.41406 8.521 8.51942 8.26664 8.70696 8.07911L10.1553 6.63078C10.3428 6.44325 10.5972 6.33789 10.8624 6.33789Z" fill="#0097F8"/>
</g>
<defs>
<clipPath id="clip0_11918_73718">
<rect width="32" height="32" fill="white" transform="translate(0.386719 0.337891)"/>
</clipPath>
</defs>
</svg>
