<svg width="32" height="33" viewBox="0 0 32 33" fill="none" xmlns="http://www.w3.org/2000/svg">
<circle cx="16" cy="16.6914" r="16" fill="#EDF0F4"/>
<path d="M9.66892 8.42456L26.131 19.5398L22.0597 25.4912L5.59766 14.2885L9.66892 8.42456Z" fill="url(#paint0_linear_11918_73628)"/>
<path d="M26.3098 19.5624C24.9027 21.6165 20.1537 20.8127 15.6686 17.5976C11.0955 14.4718 8.63305 10.2743 9.95221 8.22024C11.3593 6.16615 16.1083 6.96993 20.5934 10.185C25.1665 13.2215 27.6289 17.5083 26.3098 19.5624Z" fill="url(#paint1_linear_11918_73628)"/>
<path d="M22.0425 25.4364C20.6309 27.4771 15.8667 26.6786 11.3672 23.4845C6.86765 20.2904 4.30911 16.209 5.72072 14.0796C7.13233 12.0389 11.8965 12.8374 16.396 16.0315C20.8955 19.2257 23.3659 23.3958 22.0425 25.4364Z" fill="url(#paint2_linear_11918_73628)"/>
<path d="M26.0648 19.4697L21.9913 25.4658C20.5745 27.4939 15.7926 26.6121 11.2764 23.5259C10.3908 22.9086 9.59386 22.2914 8.79688 21.586C9.41675 21.4978 10.2137 21.1451 11.0107 20.2633C12.4276 18.7642 13.136 18.4115 13.7559 18.4997C14.3757 18.4997 15.0842 19.117 16.2354 20.616C17.3866 22.115 18.9805 22.5559 19.9546 21.7623C20.0432 21.6741 20.1317 21.6741 20.2203 21.586C21.0173 20.9687 21.2829 20.7042 22.7883 17.8825C23.1425 17.177 24.3823 16.0307 26.0648 16.5598C26.5076 17.7061 26.5076 18.6761 26.0648 19.4697Z" fill="#0E0F23"/>
<path fill-rule="evenodd" clip-rule="evenodd" d="M25.3202 19.2483C24.0883 21.019 19.7764 20.1336 15.6406 17.212C11.4167 14.2903 8.95283 10.5718 10.1848 8.80112C11.4167 7.03041 15.7286 7.91576 19.8644 10.8374C24.0003 13.7591 26.4642 17.4776 25.3202 19.2483ZM21.4485 16.5922C20.8325 17.4776 18.7206 17.0349 16.6086 15.6183C14.5847 14.2018 13.3527 12.3425 13.9687 11.4572C14.5847 10.5718 16.6966 11.0145 18.8085 12.4311C20.8325 13.8476 22.0644 15.7069 21.4485 16.5922Z" fill="white"/>
<path d="M9.30031 10.1291C9.30031 10.0553 9.22031 9.98138 9.14031 10.0553C9.06031 10.1291 8.98031 10.1291 8.98031 10.203C9.06031 10.4247 9.14031 10.5724 9.14031 10.7202C9.14031 10.7941 9.22031 10.8679 9.30031 10.7941C9.38031 10.7941 9.46031 10.7202 9.38031 10.6463C9.38031 10.4985 9.38031 10.3508 9.30031 10.1291Z" fill="white"/>
<path d="M9.85861 11.4839C9.85861 11.3948 9.77163 11.3057 9.68464 11.3948C9.59766 11.4839 9.59766 11.4839 9.59766 11.5729C10.5545 13.7993 12.5552 16.2039 15.1647 17.985C15.2517 18.0741 15.3387 17.985 15.4257 17.985C15.5126 17.8959 15.4257 17.8069 15.4257 17.7178C12.7291 15.9367 10.8154 13.6212 9.85861 11.4839Z" fill="white"/>
<path d="M20.4297 20.318C20.3477 20.318 20.2656 20.318 20.2656 20.398C20.2656 20.478 20.2656 20.558 20.3477 20.558C20.5938 20.638 20.922 20.718 21.1682 20.798C21.2502 20.798 21.3323 20.798 21.3323 20.718C21.3323 20.638 21.3323 20.558 21.2502 20.558C21.0041 20.478 20.6759 20.398 20.4297 20.318Z" fill="white"/>
<path d="M22.0386 20.608C21.9529 20.608 21.8672 20.688 21.8672 20.768C21.8672 20.848 21.9529 20.928 22.0386 20.928C22.7243 21.008 23.4958 21.088 24.0958 21.008C24.1815 21.008 24.2672 20.928 24.2672 20.848C24.2672 20.768 24.1815 20.688 24.0958 20.688C23.41 20.768 22.7243 20.688 22.0386 20.608Z" fill="white"/>
<defs>
<linearGradient id="paint0_linear_11918_73628" x1="6.22555" y1="8.20091" x2="8.521" y2="19.4837" gradientUnits="userSpaceOnUse">
<stop stop-color="#03B8FF"/>
<stop offset="1" stop-color="#FA52A0"/>
</linearGradient>
<linearGradient id="paint1_linear_11918_73628" x1="8.73069" y1="7.11002" x2="10.8287" y2="18.6308" gradientUnits="userSpaceOnUse">
<stop stop-color="#03B8FF"/>
<stop offset="1" stop-color="#FA52A0"/>
</linearGradient>
<linearGradient id="paint2_linear_11918_73628" x1="3.1829" y1="8.70062" x2="5.28832" y2="20.1501" gradientUnits="userSpaceOnUse">
<stop stop-color="#03B8FF"/>
<stop offset="1" stop-color="#FA52A0"/>
</linearGradient>
</defs>
</svg>
