<svg width="32" height="33" viewBox="0 0 32 33" fill="none" xmlns="http://www.w3.org/2000/svg">
<path d="M29.5804 20.3085L29.5627 20.3796C27.6626 27.8378 20.09 32.3679 12.612 30.5034C5.11395 28.6335 0.549003 21.0361 2.41977 13.536L2.4199 13.5355C4.28905 6.0339 11.8861 1.46899 19.3849 3.33884L19.385 3.33887C26.8859 5.20877 31.4507 12.8071 29.5804 20.3085Z" fill="url(#paint0_linear_11918_69024)" stroke="#EAEEF2" stroke-width="4"/>
<path d="M13.4763 10.8027C13.2596 10.7718 13.2493 10.7614 13.3525 10.7511C13.5485 10.7202 14.0024 10.7614 14.3222 10.8336C15.0649 11.009 15.7354 11.4629 16.4472 12.2572L16.6329 12.4739L16.9011 12.4326C18.0461 12.2469 19.2221 12.3913 20.2021 12.8452C20.4703 12.969 20.8933 13.2166 20.9449 13.2785C20.9655 13.2991 20.9965 13.4332 21.0171 13.5673C21.0893 14.0522 21.0583 14.4132 20.9036 14.6917C20.8211 14.8465 20.8211 14.8877 20.8727 15.0218C20.9139 15.125 21.0377 15.1972 21.1512 15.1972C21.3988 15.1972 21.6567 14.8052 21.7804 14.2585L21.832 14.0418L21.9249 14.145C22.451 14.733 22.8636 15.5479 22.9255 16.1256L22.9461 16.2804L22.8533 16.1463C22.6986 15.909 22.5541 15.7543 22.3581 15.6202C22.0074 15.3829 21.636 15.3107 20.656 15.2591C19.7689 15.2075 19.2634 15.1353 18.7682 14.9703C17.9224 14.6917 17.4891 14.3307 16.4885 13C16.0449 12.412 15.7664 12.0922 15.4878 11.824C14.8792 11.236 14.2706 10.9265 13.4763 10.8027Z" fill="#FF007A"/>
<path d="M21.1628 12.1126C21.1834 11.7206 21.235 11.4627 21.3484 11.2254C21.3897 11.1326 21.431 11.05 21.4413 11.05C21.4516 11.05 21.431 11.1223 21.4 11.2048C21.3175 11.4317 21.3072 11.7515 21.3588 12.1126C21.431 12.5768 21.4619 12.6387 21.9571 13.1441C22.184 13.3814 22.4522 13.6806 22.5554 13.8044L22.7308 14.0313L22.5554 13.8663C22.3388 13.6599 21.8436 13.2679 21.7301 13.2164C21.6579 13.1751 21.6476 13.1751 21.596 13.2267C21.5548 13.2679 21.5444 13.3298 21.5444 13.629C21.5341 14.0932 21.4722 14.382 21.3175 14.6812C21.235 14.8359 21.2247 14.805 21.2969 14.6296C21.3484 14.4955 21.3588 14.4336 21.3588 13.99C21.3588 13.0926 21.2556 12.8759 20.6263 12.5149C20.4716 12.422 20.2034 12.2879 20.0487 12.2157C19.8836 12.1435 19.7598 12.0816 19.7701 12.0816C19.7908 12.061 20.3994 12.2364 20.6367 12.3395C20.9977 12.4839 21.0596 12.4943 21.1009 12.4839C21.1318 12.453 21.1524 12.3705 21.1628 12.1126Z" fill="#FF007A"/>
<path d="M13.9007 13.6499C13.4674 13.0515 13.1889 12.1231 13.2508 11.432L13.2714 11.2153L13.3746 11.236C13.5602 11.2669 13.88 11.3907 14.0348 11.4835C14.4474 11.7311 14.6331 12.0715 14.8085 12.9174C14.86 13.165 14.9322 13.4539 14.9632 13.5467C15.0148 13.7014 15.2108 14.0625 15.3758 14.2894C15.4893 14.4545 15.4171 14.537 15.1592 14.5164C14.7672 14.4751 14.2411 14.1141 13.9007 13.6499Z" fill="#FF007A"/>
<path d="M20.6357 18.1373C18.5932 17.312 17.8711 16.6002 17.8711 15.3933C17.8711 15.2179 17.8814 15.0735 17.8814 15.0735C17.8917 15.0735 17.9639 15.1354 18.0568 15.2076C18.4694 15.5377 18.9336 15.6821 20.2231 15.8678C20.9761 15.9813 21.4094 16.0638 21.8014 16.1979C23.0496 16.6105 23.8233 17.4564 24.009 18.6015C24.0605 18.9316 24.0296 19.5608 23.9471 19.8909C23.8749 20.1488 23.6686 20.6234 23.617 20.6337C23.6067 20.6337 23.586 20.5821 23.586 20.4996C23.5654 20.0663 23.3488 19.6537 22.9877 19.3339C22.5544 18.9625 21.9974 18.684 20.6357 18.1373Z" fill="#FF007A"/>
<path d="M19.1937 18.4776C19.1731 18.3229 19.1215 18.1269 19.0906 18.0444L19.039 17.8896L19.1318 18.0031C19.266 18.1579 19.3691 18.3435 19.462 18.6014C19.5342 18.7974 19.5342 18.8593 19.5342 19.1791C19.5342 19.4886 19.5238 19.5608 19.462 19.7362C19.3588 20.0147 19.235 20.2107 19.0287 20.4273C18.6573 20.809 18.1725 21.0153 17.4813 21.1082C17.3575 21.1185 17.0068 21.1494 16.6973 21.1701C15.9236 21.2113 15.4079 21.2939 14.9436 21.4589C14.8818 21.4795 14.8199 21.5002 14.8095 21.4898C14.7889 21.4692 15.1087 21.2835 15.3666 21.1597C15.7276 20.9844 16.099 20.8915 16.914 20.7471C17.3163 20.6852 17.7289 20.6027 17.8321 20.5614C18.8533 20.2416 19.3588 19.4473 19.1937 18.4776Z" fill="#FF007A"/>
<path d="M20.1287 20.1386C19.8605 19.5506 19.7986 18.9935 19.943 18.4674C19.9636 18.4158 19.9843 18.3643 20.0049 18.3643C20.0255 18.3643 20.0874 18.3952 20.1493 18.4365C20.2731 18.519 20.531 18.6634 21.1912 19.0245C22.0268 19.4784 22.5013 19.8291 22.8314 20.2314C23.1203 20.5821 23.2956 20.9845 23.3782 21.4796C23.4297 21.7581 23.3988 22.4287 23.3266 22.7072C23.0996 23.584 22.5838 24.2855 21.8308 24.6878C21.7173 24.7497 21.6245 24.791 21.6142 24.791C21.6038 24.791 21.6451 24.6878 21.707 24.564C21.9546 24.0379 21.9855 23.5325 21.7998 22.9651C21.6864 22.6144 21.4491 22.1914 20.9746 21.4796C20.4072 20.6544 20.2731 20.4377 20.1287 20.1386Z" fill="#FF007A"/>
<path d="M12.4471 23.295C13.2105 22.6554 14.1492 22.2015 15.0157 22.0571C15.3871 21.9952 16.006 22.0158 16.3465 22.1087C16.8932 22.2531 17.3884 22.5626 17.6462 22.9443C17.8938 23.3156 18.0073 23.6354 18.1208 24.3472C18.162 24.6257 18.2136 24.9146 18.2239 24.9765C18.3065 25.3478 18.4715 25.6367 18.6778 25.7914C18.9976 26.0287 19.5547 26.039 20.1014 25.8327C20.1942 25.8017 20.2768 25.7708 20.2768 25.7811C20.2974 25.8017 20.0189 25.9874 19.8332 26.0803C19.5753 26.2144 19.369 26.2556 19.0905 26.2556C18.5953 26.2556 18.1723 25.9977 17.8319 25.4819C17.7597 25.3788 17.6153 25.0796 17.4915 24.8011C17.1305 23.9655 16.9448 23.7179 16.5218 23.4394C16.1505 23.2022 15.6759 23.1506 15.3149 23.3259C14.8404 23.5529 14.7166 24.1615 15.0467 24.5329C15.1808 24.6876 15.4284 24.8114 15.6347 24.8424C16.0164 24.8939 16.3465 24.5948 16.3465 24.2131C16.3465 23.9655 16.2536 23.8211 16.006 23.7076C15.6759 23.5632 15.3149 23.7283 15.3252 24.048C15.3252 24.1822 15.3871 24.2647 15.5212 24.3266C15.6037 24.3678 15.6037 24.3678 15.5418 24.3575C15.2427 24.2956 15.1705 23.9243 15.4077 23.687C15.6966 23.3982 16.3052 23.5219 16.5115 23.9243C16.594 24.0893 16.6044 24.4194 16.5321 24.6257C16.3568 25.0796 15.8616 25.3169 15.3561 25.1828C15.0157 25.0899 14.8713 24.9971 14.4587 24.5742C13.7366 23.8314 13.458 23.687 12.4265 23.5323L12.2305 23.5013L12.4471 23.295Z" fill="#FF007A"/>
<path fill-rule="evenodd" clip-rule="evenodd" d="M7.01916 6.697C9.42273 9.61636 13.1261 14.1553 13.3118 14.4029C13.4665 14.6092 13.4046 14.8052 13.1467 14.9496C13.0023 15.0321 12.7031 15.1147 12.5587 15.1147C12.3937 15.1147 12.1977 15.0321 12.0636 14.898C11.9707 14.8052 11.5684 14.2172 10.6606 12.8039C9.96947 11.7208 9.38147 10.8233 9.37116 10.813C9.32989 10.7924 9.32989 10.7924 10.5884 13.0412C11.3827 14.4544 11.6406 14.9599 11.6406 15.0218C11.6406 15.1559 11.5994 15.2281 11.4343 15.4138C11.1558 15.7233 11.032 16.074 10.9392 16.8064C10.836 17.6214 10.5575 18.1991 9.76315 19.1791C9.29895 19.7567 9.22674 19.8599 9.11326 20.0972C8.96884 20.386 8.92758 20.5511 8.90695 20.9224C8.88632 21.3144 8.92758 21.562 9.04105 21.9334C9.14421 22.2635 9.25768 22.4801 9.53621 22.9031C9.77347 23.2744 9.91789 23.5529 9.91789 23.6561C9.91789 23.7386 9.93852 23.7386 10.3099 23.6561C11.197 23.4498 11.9295 23.0991 12.3318 22.6658C12.5794 22.3976 12.6413 22.2532 12.6413 21.8818C12.6413 21.6445 12.6309 21.593 12.569 21.4485C12.4659 21.2216 12.2699 21.0359 11.8469 20.7471C11.2899 20.3654 11.0526 20.0559 10.9907 19.6433C10.9392 19.2925 11.001 19.0553 11.3105 18.4054C11.6303 17.7349 11.7128 17.4563 11.7644 16.7755C11.7954 16.3422 11.8469 16.1669 11.9707 16.0328C12.1048 15.8883 12.2183 15.8368 12.5381 15.7955C13.0642 15.7233 13.4046 15.5892 13.6728 15.3313C13.9101 15.1147 14.0132 14.898 14.0236 14.5782L14.0339 14.341L13.8998 14.1966C13.4149 13.6395 6.69937 6.25342 6.66843 6.25342C6.65811 6.25342 6.82316 6.44942 7.01916 6.697ZM10.1861 21.3659C10.2996 21.1699 10.2377 20.9224 10.052 20.7986C9.87661 20.6851 9.6084 20.7367 9.6084 20.8914C9.6084 20.9327 9.62904 20.9739 9.69093 20.9946C9.78377 21.0462 9.79409 21.0977 9.72188 21.2112C9.64967 21.3247 9.64967 21.4278 9.74251 21.5C9.88693 21.6135 10.0829 21.5516 10.1861 21.3659Z" fill="#FF007A"/>
<path fill-rule="evenodd" clip-rule="evenodd" d="M14.3632 15.9398C14.1157 16.012 13.8784 16.2802 13.8062 16.5484C13.7649 16.7134 13.7856 17.0126 13.8578 17.1054C13.9712 17.2499 14.0744 17.2911 14.3632 17.2911C14.9306 17.2911 15.4154 17.0436 15.467 16.7444C15.5186 16.4968 15.302 16.1564 15.0028 16.0017C14.8481 15.9191 14.5283 15.8882 14.3632 15.9398ZM15.0235 16.4554C15.106 16.3316 15.0751 16.1975 14.9204 16.1046C14.6418 15.9293 14.2189 16.0737 14.2189 16.3419C14.2189 16.476 14.4355 16.6204 14.6418 16.6204C14.7759 16.6204 14.9616 16.5379 15.0235 16.4554Z" fill="#FF007A"/>
<defs>
<linearGradient id="paint0_linear_11918_69024" x1="0" y1="0.919434" x2="0" y2="32.923" gradientUnits="userSpaceOnUse">
<stop stop-color="#FEF3F9"/>
<stop offset="1" stop-color="#FDE5F2"/>
</linearGradient>
</defs>
</svg>
