<svg width="33" height="33" viewBox="0 0 33 33" fill="none" xmlns="http://www.w3.org/2000/svg">
<path d="M16.3867 0.337891C25.2241 0.337891 32.3867 7.50196 32.3867 16.3379C32.3867 25.1753 25.2241 32.3379 16.3867 32.3379C7.55079 32.3379 0.386719 25.1745 0.386719 16.3379C0.386719 7.50196 7.55079 0.337891 16.3867 0.337891Z" fill="#ECEFF3"/>
<path d="M20.5893 18.563C20.5893 16.3381 19.2542 15.5752 16.5842 15.2574C14.6771 15.003 14.2956 14.4945 14.2956 13.6045C14.2956 12.7145 14.9314 12.1424 16.2028 12.1424C17.3471 12.1424 17.9829 12.5239 18.3007 13.4774C18.3334 13.5696 18.3937 13.6494 18.4733 13.7062C18.5529 13.7631 18.648 13.7941 18.7457 13.7952H19.7625C19.8213 13.7967 19.8799 13.7862 19.9345 13.7643C19.9892 13.7425 20.0388 13.7097 20.0804 13.6681C20.122 13.6265 20.1548 13.5769 20.1766 13.5222C20.1985 13.4676 20.209 13.4091 20.2076 13.3502V13.2866C20.0845 12.5977 19.7374 11.9687 19.22 11.4974C18.7027 11.026 18.0442 10.7388 17.3468 10.6802V9.15473C17.3468 8.90036 17.1561 8.70965 16.8383 8.646H15.8848C15.6304 8.646 15.4397 8.83671 15.376 9.15473V10.6168C13.4689 10.8712 12.2614 12.1423 12.2614 13.7319C12.2614 15.8298 13.5328 16.6561 16.2028 16.9741C17.9829 17.2919 18.555 17.6733 18.555 18.6905C18.555 19.7078 17.6646 20.407 16.4571 20.407C14.8039 20.407 14.2317 19.7073 14.041 18.7537C14.0219 18.6487 13.9673 18.5535 13.8863 18.4841C13.8053 18.4146 13.7028 18.3752 13.5962 18.3723H12.5153C12.4565 18.3709 12.398 18.3814 12.3433 18.4033C12.2887 18.4251 12.2391 18.4579 12.1975 18.4995C12.1559 18.5411 12.1232 18.5907 12.1013 18.6454C12.0795 18.7 12.069 18.7585 12.0704 18.8174V18.881C12.3246 20.4702 13.3418 21.6145 15.4397 21.9325V23.4582C15.4397 23.7123 15.6304 23.9031 15.9482 23.9667H16.9018C17.1561 23.9667 17.3468 23.776 17.4105 23.4582V21.9327C19.3177 21.6148 20.589 20.2798 20.589 18.5634L20.5893 18.563Z" fill="#2775CA"/>
<path d="M13.1514 25.2379C8.19278 23.458 5.64982 17.9273 7.49357 13.0321C7.96261 11.731 8.71283 10.5494 9.69078 9.57144C10.6687 8.59349 11.8503 7.84327 13.1514 7.37423C13.2733 7.32119 13.3756 7.23141 13.4439 7.11742C13.5123 7.00343 13.5434 6.87093 13.5328 6.73843V5.8485C13.5415 5.73195 13.5076 5.6162 13.4375 5.52271C13.3674 5.42921 13.2657 5.3643 13.1514 5.34C13.0618 5.33055 12.9717 5.35301 12.897 5.40342C10.5826 6.13892 8.56226 7.59187 7.12848 9.55194C5.6947 11.512 4.92188 13.8775 4.92188 16.306C4.92188 18.7345 5.6947 21.1 7.12848 23.0601C8.56226 25.0201 10.5826 26.4731 12.897 27.2086C12.9499 27.2393 13.0093 27.257 13.0703 27.2603C13.1313 27.2636 13.1922 27.2523 13.2481 27.2275C13.3039 27.2027 13.3531 27.165 13.3915 27.1175C13.4299 27.07 13.4566 27.014 13.4692 26.9542C13.5328 26.8908 13.5328 26.8272 13.5328 26.7001V25.81C13.5328 25.6193 13.3421 25.3653 13.1514 25.2379ZM19.8901 5.40342C19.8373 5.37273 19.7779 5.35502 19.7169 5.35173C19.6559 5.34844 19.5949 5.35967 19.5391 5.38449C19.4832 5.40932 19.4341 5.44703 19.3957 5.49454C19.3572 5.54205 19.3306 5.59799 19.318 5.65779C19.2543 5.72144 19.2543 5.78485 19.2543 5.91215V6.80208C19.2652 6.93012 19.3053 7.05396 19.3714 7.16416C19.4375 7.27435 19.5279 7.36798 19.6358 7.43788C24.5944 9.21774 27.1373 14.7485 25.2936 19.6437C24.8245 20.9448 24.0743 22.1264 23.0964 23.1043C22.1184 24.0823 20.9368 24.8325 19.6358 25.3015C19.5139 25.3546 19.4116 25.4444 19.3432 25.5584C19.2748 25.6723 19.2438 25.8048 19.2543 25.9373V26.8273C19.2457 26.9438 19.2795 27.0596 19.3497 27.1531C19.4198 27.2466 19.5214 27.3115 19.6358 27.3358C19.7254 27.3452 19.8154 27.3228 19.8901 27.2724C22.2034 26.5264 24.2205 25.066 25.6513 23.1012C27.0822 21.1365 27.853 18.7685 27.853 16.338C27.853 13.9074 27.0822 11.5394 25.6513 9.57465C24.2205 7.60987 22.2034 6.14949 19.8901 5.40354V5.40342Z" fill="#2775CA"/>
</svg>