<svg width="32" height="33" viewBox="0 0 32 33" fill="none" xmlns="http://www.w3.org/2000/svg">
<g clip-path="url(#clip0_11918_69030)">
<ellipse cx="15.668" cy="16.6825" rx="16" ry="16.0018" fill="#EDF0F4"/>
<path fill-rule="evenodd" clip-rule="evenodd" d="M8.06215 6.79929L3.68596 17.3674C3.66931 17.4067 3.66403 17.4511 3.6709 17.4941C3.67777 17.5371 3.69643 17.5765 3.72414 17.6064L15.5432 30.6272C15.5767 30.6642 15.6215 30.6849 15.668 30.6849C15.7145 30.6849 15.7592 30.6642 15.7928 30.6272L27.6118 17.6072C27.6395 17.5773 27.6582 17.538 27.665 17.495C27.6719 17.4519 27.6666 17.4075 27.65 17.3682L23.2738 6.8001C23.2597 6.76461 23.237 6.73454 23.2084 6.71349C23.1798 6.69245 23.1465 6.68131 23.1126 6.68141H8.22478C8.19067 6.68092 8.15716 6.69179 8.1283 6.71271C8.09945 6.73363 8.07647 6.76369 8.06215 6.79929Z" fill="#50AF95"/>
<path fill-rule="evenodd" clip-rule="evenodd" d="M17.7982 19.1827C17.7134 19.19 17.275 19.2201 16.2971 19.2201C15.5193 19.2201 14.967 19.1933 14.7733 19.1827C11.7674 19.0307 9.52383 18.4291 9.52383 17.7089C9.52383 16.9886 11.7674 16.3879 14.7733 16.2334V18.5836C14.9698 18.5999 15.5327 18.6381 16.3105 18.6381C17.2438 18.6381 17.7112 18.5934 17.7954 18.5844V16.235C20.7949 16.3887 23.0335 16.9902 23.0335 17.7089C23.0335 18.4275 20.7956 19.0291 17.7954 19.1819L17.7982 19.1827ZM17.7982 15.992V13.8889H21.9842V10.6819H10.5873V13.8889H14.7726V15.9912C11.3708 16.1708 8.8125 16.9455 8.8125 17.8739C8.8125 18.8023 11.3708 19.5762 14.7726 19.7567V26.4959H17.7975V19.7542C21.1915 19.5746 23.7455 18.8007 23.7455 17.8731C23.7455 16.9455 21.1937 16.1716 17.7975 15.9912L17.7982 15.992Z" fill="white"/>
</g>
<defs>
<clipPath id="clip0_11918_69030">
<rect width="32" height="32.0036" fill="white" transform="translate(0 0.680664)"/>
</clipPath>
</defs>
</svg>
