<svg width="33" height="33" viewBox="0 0 33 33" fill="none" xmlns="http://www.w3.org/2000/svg">
<g clip-path="url(#clip0_11918_73723)">
<circle cx="16.3867" cy="16.3379" r="16" fill="#EDF0F4"/>
<path d="M11.9022 26.338C17.0343 26.338 17.0343 26.2615 17.9046 26.0033C19.0413 25.6657 14.6938 22.656 11.9022 22.656C9.11051 22.656 6.84766 23.4801 6.84766 24.4968C6.84766 25.5134 9.1104 26.338 11.9022 26.338Z" fill="black"/>
<path d="M23.5577 10.6826L23.7936 10.937L23.5873 11.2158C16.894 20.2657 13.0382 24.3633 11.4022 23.8136C10.4058 23.4789 9.40642 22.4721 8.40716 21.0102C8.05585 20.4965 7.72609 19.9553 7.42603 19.4169C7.22624 19.0584 7.05713 18.7313 6.96941 18.5472C6.8776 18.3673 6.81137 18.1756 6.77262 17.9774L6.76812 17.9546C6.75246 17.8738 6.74667 17.8484 6.7353 17.8044C6.27555 16.073 6.33563 14.2445 6.90805 12.547C7.48046 10.8495 8.5399 9.35802 9.95426 8.25856C11.3686 7.15909 13.0753 6.50027 14.8616 6.36424C16.6479 6.22821 18.4346 6.62099 19.9992 7.49361L20.0339 7.51506C21.1375 8.28361 22.3121 9.33945 23.5577 10.6826ZM19.5728 8.21394C18.1512 7.42674 16.5296 7.07473 14.9096 7.20166C13.2895 7.3286 11.7425 7.92888 10.4609 8.92788C9.17924 9.92689 8.21947 11.2805 7.70091 12.8206C7.18235 14.3606 7.12786 16.0191 7.54421 17.5899C7.56233 17.6581 7.57048 17.6966 7.58968 17.7954L7.59365 17.8157C7.61898 17.9453 7.66316 18.0706 7.7248 18.1874C7.80491 18.3554 7.96587 18.6666 8.15708 19.0099C8.44545 19.5275 8.76223 20.0471 9.098 20.5383C10.0008 21.859 10.8963 22.761 11.6687 23.0206C12.699 23.3666 16.5775 19.261 22.707 10.999C21.5942 9.8242 20.5495 8.89583 19.5728 8.21394Z" fill="black"/>
<path d="M19.5708 8.21405C18.1492 7.42689 16.5276 7.0749 14.9076 7.20185C13.2876 7.32881 11.7406 7.92909 10.459 8.92809C9.17736 9.92708 8.21761 11.2807 7.69905 12.8207C7.18049 14.3608 7.12599 16.0192 7.54232 17.59C7.56044 17.6582 7.56859 17.6967 7.58779 17.7955L7.59176 17.8158C7.61711 17.9454 7.66129 18.0705 7.72291 18.1873C7.80302 18.3553 7.96398 18.6665 8.15519 19.0098C8.44356 19.5274 8.76034 20.047 9.09611 20.5382C9.99895 21.8589 10.8944 22.7609 11.6668 23.0205C12.6971 23.3665 16.5756 19.2609 22.7051 10.9989C21.5922 9.82417 20.5475 8.89588 19.5708 8.21405Z" fill="#EC1C79"/>
<path d="M17.2268 26.2541C15.4228 26.2541 13.6593 25.7192 12.1593 24.7169C10.6593 23.7147 9.49017 22.2901 8.79979 20.6234C8.10942 18.9567 7.92879 17.1227 8.28074 15.3533C8.63269 13.584 9.50141 11.9587 10.777 10.6831C12.0527 9.40741 13.678 8.53869 15.4473 8.18674C17.2167 7.83479 19.0507 8.01543 20.7174 8.7058C22.3841 9.39617 23.8087 10.5653 24.8109 12.0653C25.8132 13.5653 26.3481 15.3288 26.3481 17.1328C26.3481 19.5519 25.3871 21.872 23.6766 23.5826C21.966 25.2931 19.6459 26.2541 17.2268 26.2541ZM17.2268 25.4177C18.8653 25.4177 20.467 24.9318 21.8293 24.0215C23.1917 23.1112 24.2535 21.8173 24.8805 20.3036C25.5075 18.7898 25.6716 17.1241 25.352 15.5171C25.0323 13.9101 24.2433 12.4339 23.0848 11.2753C21.9262 10.1167 20.4501 9.3277 18.8431 9.00802C17.2361 8.68833 15.5704 8.85235 14.0566 9.47934C12.5428 10.1063 11.2489 11.1681 10.3386 12.5304C9.42825 13.8928 8.94232 15.4944 8.94226 17.1329C8.94226 18.2209 9.15655 19.2981 9.57289 20.3033C9.98922 21.3084 10.5995 22.2217 11.3688 22.9909C12.138 23.7602 13.0513 24.3704 14.0565 24.7868C15.0616 25.2031 16.1389 25.4174 17.2268 25.4174V25.4177Z" fill="black"/>
<path d="M17.2258 25.4175C18.8643 25.4175 20.4661 24.9316 21.8284 24.0213C23.1908 23.111 24.2526 21.8172 24.8797 20.3034C25.5067 18.7896 25.6708 17.1239 25.3511 15.5169C25.0315 13.9099 24.2425 12.4337 23.0839 11.2751C21.9253 10.1165 20.4491 9.3275 18.8421 9.00783C17.2351 8.68816 15.5694 8.85221 14.0556 9.47922C12.5418 10.1062 11.248 11.1681 10.3376 12.5304C9.42732 13.8928 8.94143 15.4945 8.94141 17.133C8.94139 18.2209 9.15567 19.2982 9.57199 20.3033C9.98832 21.3084 10.5985 22.2217 11.3678 22.991C12.1371 23.7603 13.0504 24.3706 14.0555 24.7869C15.0606 25.2032 16.1379 25.4175 17.2258 25.4175Z" fill="white"/>
<path fill-rule="evenodd" clip-rule="evenodd" d="M11.0302 18.8299L9.93359 15.5262H10.8942L11.4659 17.4243L12.0986 15.5171H12.8815L13.5142 17.4243L14.0859 15.5262H15.0278L13.9309 18.8299H13.139L12.4783 16.9414L11.8222 18.8299H11.0302ZM15.3883 18.8064V15.5262H18.0264V16.2994H16.2881V16.7961H17.8628V17.5131H16.2881V18.0333H18.0501V18.8065L15.3883 18.8064ZM19.3153 18.8064V16.3229H18.3313V15.5262H21.2086V16.3229H20.2245V18.8065L19.3153 18.8064ZM21.6069 18.8064V15.5262H22.516V16.754H23.6828V15.5262H24.5919V18.8065H23.6828V17.56H22.516V18.8065L21.6069 18.8064Z" fill="black"/>
<path d="M6.97318 14.5397C6.86467 14.4826 6.78284 14.3853 6.74524 14.2686C6.70764 14.1519 6.71727 14.0251 6.77206 13.9155C6.82685 13.8058 6.92243 13.7219 7.03832 13.6819C7.1542 13.6419 7.28116 13.6489 7.39195 13.7014L8.73083 14.3709C8.78658 14.398 8.8364 14.4359 8.87741 14.4823C8.91842 14.5288 8.9498 14.583 8.96974 14.6417C8.98967 14.7004 8.99776 14.7624 8.99355 14.8243C8.98933 14.8861 8.97289 14.9465 8.94517 15.0019C8.91745 15.0574 8.87901 15.1068 8.83207 15.1473C8.78513 15.1877 8.73063 15.2185 8.67172 15.2378C8.6128 15.2571 8.55065 15.2644 8.48886 15.2595C8.42707 15.2546 8.36687 15.2375 8.31174 15.2092L6.97318 14.5397Z" fill="black"/>
<path d="M6.82083 16.7595C6.76414 16.7342 6.71304 16.6979 6.67049 16.6528C6.62794 16.6076 6.59478 16.5544 6.57294 16.4963C6.5511 16.4382 6.54102 16.3764 6.54328 16.3144C6.54554 16.2524 6.56009 16.1914 6.5861 16.1351C6.6121 16.0787 6.64904 16.0281 6.69476 15.9861C6.74049 15.9442 6.79409 15.9117 6.85247 15.8906C6.91084 15.8696 6.97281 15.8603 7.0348 15.8634C7.09678 15.8664 7.15754 15.8818 7.21354 15.9085L8.55242 16.5264C8.6091 16.5517 8.6602 16.588 8.70276 16.6331C8.74531 16.6783 8.77847 16.7315 8.80031 16.7896C8.82214 16.8477 8.83223 16.9095 8.82997 16.9715C8.82771 17.0336 8.81315 17.0945 8.78715 17.1509C8.76115 17.2072 8.72421 17.2578 8.67848 17.2998C8.63276 17.3417 8.57915 17.3742 8.52078 17.3953C8.46241 17.4164 8.40043 17.4256 8.33845 17.4226C8.27647 17.4195 8.21571 17.4041 8.15971 17.3774L6.82083 16.7595Z" fill="black"/>
</g>
<defs>
<clipPath id="clip0_11918_73723">
<rect width="32" height="32" fill="white" transform="translate(0.386719 0.337891)"/>
</clipPath>
</defs>
</svg>
