<svg width="32" height="33" viewBox="0 0 32 33" fill="none" xmlns="http://www.w3.org/2000/svg">
<circle cx="16" cy="16.6914" r="16" fill="#EDF0F4"/>
<path d="M23.4108 14.8365L20.4328 16.1643L12.5327 20.1855L20.4328 23.9838V17.7054L23.4108 16.3634V25.6387L20.4328 26.9665L8.80078 21.3994V18.4404L16.8526 14.4904L8.80078 10.6209V7.61925L11.8262 6.2915L23.4108 11.8681V14.8365Z" fill="#49C1BF"/>
<path d="M8.80078 7.61925L20.4328 13.1958L23.4108 11.8681L11.8262 6.2915L8.80078 7.61925Z" fill="#077A8F"/>
<path d="M20.4336 13.1832L23.4116 11.8555V14.8239L20.4336 16.1517V13.1832V13.1832Z" fill="#298E97"/>
<path d="M8.80078 7.62183V10.6235L16.8526 14.4929L8.80078 18.443V21.402L20.4328 26.969V23.9911L12.5327 20.188L20.4328 16.1668V13.1984L8.80078 7.62183Z" fill="#49C1BF"/>
<path d="M20.4336 26.947L23.4116 25.6193V16.344L20.4336 17.686V26.947Z" fill="#298E97"/>
</svg>
