<svg width="270" height="261" viewBox="0 0 270 261" fill="none" xmlns="http://www.w3.org/2000/svg">
<path d="M135 260.716C209.048 260.716 269.075 257.212 269.075 252.888C269.075 248.565 209.048 245.061 135 245.061C60.9523 245.061 0.92482 248.565 0.92482 252.888C0.92482 257.212 60.9523 260.716 135 260.716Z" fill="#F5F5F5"/>
<path d="M177.756 247.607L182.472 246.3L179.913 235.236L175.19 236.549L177.756 247.607Z" fill="#FF8B7B"/>
<path d="M121.357 247.454L126.197 248.215L128.334 237.172H123.438L121.357 247.454Z" fill="#FF8B7B"/>
<path d="M126.626 247.71L121.191 246.853C121.095 246.837 120.997 246.854 120.912 246.902C120.828 246.95 120.763 247.025 120.727 247.116L119.095 251.265C119.05 251.365 119.029 251.475 119.034 251.585C119.04 251.696 119.072 251.803 119.127 251.899C119.183 251.994 119.26 252.075 119.353 252.134C119.446 252.193 119.552 252.23 119.662 252.24C121.564 252.502 122.505 252.537 124.897 252.931C126.37 253.166 127.774 253.526 134.267 253.526C136.279 253.526 136.59 251.5 135.754 251.313C131.978 250.49 128.389 249.404 127.366 248.146C127.181 247.915 126.918 247.76 126.626 247.71Z" fill="#263238"/>
<path d="M182.292 245.76L177.133 247.192C177.04 247.219 176.959 247.277 176.903 247.356C176.846 247.435 176.818 247.53 176.822 247.627L177.057 252.081C177.058 252.189 177.085 252.296 177.135 252.392C177.185 252.489 177.257 252.572 177.345 252.635C177.434 252.698 177.535 252.74 177.643 252.757C177.75 252.773 177.86 252.764 177.963 252.731C179.816 252.184 182.472 251.348 184.809 250.656C187.54 249.902 189.94 249.398 193.148 248.506C195.085 247.966 195.078 245.864 194.22 245.905C190.299 246.127 187.264 246.874 183.53 245.788C183.127 245.665 182.699 245.656 182.292 245.76Z" fill="#263238"/>
<path d="M179.913 235.243L181.234 240.941L176.511 242.247L175.19 236.549L179.913 235.243Z" fill="#EA7063"/>
<path d="M123.438 237.172H128.334L127.2 243.022H122.249L123.438 237.172Z" fill="#EA7063"/>
<path d="M162.881 81.6116C162.881 81.6116 168.662 96.4028 163.172 123.945H136.964C136.784 119.921 139.315 100.31 135.436 81.3627C138.331 80.8019 141.26 80.4323 144.204 80.2563C147.912 80.0383 151.629 80.0383 155.337 80.2563C157.883 80.511 160.406 80.9642 162.881 81.6116Z" fill="#FF5C8A"/>
<path d="M162.881 81.6116C162.881 81.6116 168.662 96.4028 163.172 123.945H136.964C136.784 119.921 139.315 100.31 135.436 81.3627C138.331 80.8019 141.26 80.4323 144.204 80.2563C147.912 80.0383 151.629 80.0383 155.337 80.2563C157.883 80.511 160.406 80.9642 162.881 81.6116Z" fill="#1C2D5E"/>
<path d="M176.608 107.681C176.504 107.293 176.37 106.914 176.207 106.547L175.971 105.973L175.508 104.825L174.575 102.516L172.694 97.8274C171.435 94.7157 170.135 91.6039 168.787 88.5475L161.644 91.5348C162.902 94.688 164.244 97.7583 165.668 100.87C166.36 102.412 167.099 103.94 167.846 105.475C168.22 106.243 168.593 107.011 168.987 107.771L169.534 108.843L169.381 108.898C168.001 109.382 166.573 109.718 165.122 109.901C162.003 110.357 158.656 110.593 155.392 110.765L155.053 114.589C158.506 115.291 162.02 115.652 165.544 115.668C167.465 115.695 169.383 115.491 171.255 115.06C171.814 114.918 172.362 114.736 172.894 114.513C173.565 114.233 174.193 113.861 174.761 113.407C175.581 112.748 176.197 111.871 176.538 110.876C176.868 109.84 176.892 108.731 176.608 107.681Z" fill="#FF8B7B"/>
<path d="M157.066 84.9655C155.42 89.3496 163.78 102.253 163.78 102.253L173.572 96.9354C172.101 92.9229 170.204 89.0793 167.915 85.4703C164.451 80.3048 158.878 80.1526 157.066 84.9655Z" fill="#FF5C8A"/>
<path d="M157.066 84.9655C155.42 89.3496 163.78 102.253 163.78 102.253L173.572 96.9354C172.101 92.9229 170.204 89.0793 167.915 85.4703C164.451 80.3048 158.878 80.1526 157.066 84.9655Z" fill="#1C2D5E"/>
<path d="M147.371 108.089L146.915 113.241L151.568 113.856L152.35 108.207L147.371 108.089Z" fill="#FF8B7B"/>
<path d="M156.042 111.063L152.35 108.2L151.568 113.85C151.568 113.85 154.881 116.242 157.163 114.009L156.042 111.063Z" fill="#FF8B7B"/>
<path d="M145.317 67.7125C146.009 71.3014 146.7 77.8638 144.218 80.2564C144.218 80.2564 145.656 83.8867 152.315 83.8867C158.4 83.8867 155.351 80.2564 155.351 80.2564C151.354 79.3021 151.651 74.2403 152.585 70.5339L145.317 67.7125Z" fill="#FF8B7B"/>
<path d="M145.953 72.7121L148.353 70.9695C148.484 71.336 150.531 72.7121 150.22 73.4451C149.176 75.9206 147.24 76.7988 145.836 76.3632C145.987 75.1524 146.027 73.9301 145.953 72.7121Z" fill="#EA7063"/>
<path d="M144.999 60.1959L140.892 57.4299C138.955 59.0826 138.617 63.529 141.078 66.3226C146.002 65.4029 144.999 60.1959 144.999 60.1959Z" fill="#263238"/>
<path d="M153.823 61.8693C153.823 67.0071 154.127 70.0152 151.748 72.8157C148.125 77.027 141.652 75.1046 140.089 70.0497C138.706 65.5204 138.872 57.8793 143.747 55.5282C144.819 55.0078 146.005 54.7689 147.195 54.8341C148.384 54.8994 149.538 55.2666 150.546 55.9011C151.554 56.5356 152.384 57.4166 152.957 58.4608C153.531 59.505 153.828 60.678 153.823 61.8693Z" fill="#FF8B7B"/>
<path d="M154.805 58.6539L149.902 57.8656C148.844 60.1752 150.42 64.3519 153.83 65.8455C157.916 62.9481 154.805 58.6539 154.805 58.6539Z" fill="#263238"/>
<path d="M144.356 59.1517C142.247 59.3799 135.069 59.1863 138.693 51.9048C138.693 52.783 139.516 55.1756 141.569 52.5963C143.298 50.418 147.143 53.35 146.756 51.2133C146.756 51.2133 148.139 51.9048 147.447 52.7622C146.756 53.6197 151.99 50.9712 154.943 52.6792C153.442 52.8314 153.276 54.9059 155.462 56.3027C157.536 57.6304 156.035 61.0464 153.387 60.4033C150.739 59.7602 149.611 58.5778 144.356 59.1517Z" fill="#263238"/>
<path d="M156.181 65.9008C155.926 67.0039 155.252 67.9642 154.3 68.5769C153.041 69.3791 152.011 68.3488 152.032 66.9243C152.032 65.645 152.723 63.688 154.148 63.4668C155.572 63.2455 156.485 64.5455 156.181 65.9008Z" fill="#FF8B7B"/>
<path d="M163.172 123.945C163.172 123.945 172.95 162.898 174.927 177.71C177.002 193.109 181.96 238.769 181.96 238.769L174.305 241.224C174.305 241.224 163.372 196.373 160.433 181.402C157.204 165.076 145.953 123.945 145.953 123.945H163.172Z" fill="#FF5C8A"/>
<path opacity="0.6" d="M163.172 123.945C163.172 123.945 172.95 162.898 174.927 177.71C177.002 193.109 181.96 238.769 181.96 238.769L174.305 241.224C174.305 241.224 163.372 196.373 160.433 181.402C157.204 165.076 145.953 123.945 145.953 123.945H163.172Z" fill="#FAFAFA"/>
<path d="M173.918 241.763L182.506 239.073L182.389 235.886L173.012 238.942L173.918 241.763Z" fill="#FF5C8A"/>
<path opacity="0.2" d="M173.918 241.763L182.506 239.073L182.389 235.886L173.012 238.942L173.918 241.763Z" fill="black"/>
<path d="M151.416 126.822L149.134 135.742C151.25 143.708 154.085 154.51 156.478 164.225C156.705 151.573 154.998 138.959 151.416 126.822Z" fill="#FF5C8A"/>
<path opacity="0.4" d="M151.416 126.822L149.134 135.742C151.25 143.708 154.085 154.51 156.478 164.225C156.705 151.573 154.998 138.959 151.416 126.822Z" fill="#FAFAFA"/>
<path d="M153.885 123.945C153.885 123.945 151.658 163.976 148.609 177.993C145.262 193.351 129.357 241.888 129.357 241.888H120.368C120.368 241.888 132.006 194.589 133.907 179.39C135.982 162.891 136.971 123.945 136.971 123.945H153.885Z" fill="#FF5C8A"/>
<path opacity="0.6" d="M153.885 123.945C153.885 123.945 151.658 163.976 148.609 177.993C145.262 193.351 129.357 241.888 129.357 241.888H120.368C120.368 241.888 132.006 194.589 133.907 179.39C135.982 162.891 136.971 123.945 136.971 123.945H153.885Z" fill="#FAFAFA"/>
<path d="M119.718 242.026H130L130.941 239.267H119.718V242.026Z" fill="#FF5C8A"/>
<path opacity="0.2" d="M119.718 242.026H130L130.941 239.267H119.718V242.026Z" fill="black"/>
<path d="M123.991 236.591C123.98 236.589 123.97 236.585 123.96 236.58C123.951 236.574 123.943 236.566 123.936 236.557C123.93 236.548 123.925 236.538 123.923 236.527C123.92 236.516 123.92 236.505 123.922 236.494C123.998 236.038 134.82 193.621 136.528 179.936C138.388 165.117 138.969 129.643 139.011 129.318C139.014 129.297 139.025 129.278 139.041 129.264C139.058 129.25 139.079 129.242 139.101 129.242C139.112 129.243 139.123 129.246 139.134 129.252C139.144 129.257 139.153 129.265 139.16 129.274C139.167 129.283 139.172 129.293 139.175 129.305C139.178 129.316 139.179 129.328 139.177 129.339C139.135 129.664 138.554 165.138 136.694 179.957C134.986 193.614 124.164 236.065 124.088 236.522C124.086 236.533 124.083 236.543 124.077 236.553C124.071 236.562 124.063 236.57 124.054 236.577C124.045 236.583 124.035 236.588 124.024 236.59C124.013 236.593 124.002 236.593 123.991 236.591Z" fill="#FF5C8A"/>
<path opacity="0.4" d="M123.991 236.591C123.98 236.589 123.97 236.585 123.96 236.58C123.951 236.574 123.943 236.566 123.936 236.557C123.93 236.548 123.925 236.538 123.923 236.527C123.92 236.516 123.92 236.505 123.922 236.494C123.998 236.038 134.82 193.621 136.528 179.936C138.388 165.117 138.969 129.643 139.011 129.318C139.014 129.297 139.025 129.278 139.041 129.264C139.058 129.25 139.079 129.242 139.101 129.242C139.112 129.243 139.123 129.246 139.134 129.252C139.144 129.257 139.153 129.265 139.16 129.274C139.167 129.283 139.172 129.293 139.175 129.305C139.178 129.316 139.179 129.328 139.177 129.339C139.135 129.664 138.554 165.138 136.694 179.957C134.986 193.614 124.164 236.065 124.088 236.522C124.086 236.533 124.083 236.543 124.077 236.553C124.071 236.562 124.063 236.57 124.054 236.577C124.045 236.583 124.035 236.588 124.024 236.59C124.013 236.593 124.002 236.593 123.991 236.591Z" fill="#FAFAFA"/>
<path d="M146.154 63.847C146.154 64.2619 145.981 64.6146 145.711 64.6353C145.442 64.6561 145.193 64.3311 145.165 63.9093C145.137 63.4874 145.338 63.1417 145.608 63.1279C145.877 63.114 146.126 63.4321 146.154 63.847Z" fill="#263238"/>
<path d="M141.445 64.1582C141.445 64.58 141.272 64.9327 141.002 64.9465C140.733 64.9604 140.484 64.6423 140.456 64.255C140.428 63.8678 140.629 63.4875 140.898 63.4667C141.168 63.446 141.417 63.7433 141.445 64.1582Z" fill="#263238"/>
<path d="M142.952 64.2688C142.54 65.5757 141.951 66.8203 141.203 67.9683C141.501 68.1519 141.835 68.2681 142.183 68.3087C142.531 68.3493 142.883 68.3134 143.215 68.2034L142.952 64.2688Z" fill="#FF5652"/>
<path d="M144.508 69.2753C144.476 69.2773 144.445 69.2669 144.42 69.2463C144.396 69.2257 144.38 69.1965 144.377 69.1647C144.375 69.1481 144.376 69.1313 144.381 69.1154C144.386 69.0995 144.395 69.0849 144.406 69.0724C144.417 69.06 144.431 69.0501 144.446 69.0433C144.461 69.0366 144.478 69.0332 144.494 69.0333C145.013 69.0098 145.519 68.8641 145.971 68.6082C146.422 68.3522 146.807 67.9932 147.094 67.5604C147.11 67.5324 147.137 67.5117 147.168 67.5027C147.198 67.4936 147.232 67.497 147.26 67.512C147.275 67.5192 147.288 67.5294 147.298 67.5418C147.309 67.5543 147.316 67.5688 147.321 67.5843C147.325 67.5999 147.327 67.6163 147.325 67.6324C147.322 67.6485 147.317 67.664 147.309 67.6779C147.004 68.1492 146.591 68.5404 146.103 68.8184C145.616 69.0964 145.069 69.2531 144.508 69.2753Z" fill="#263238"/>
<path d="M147.468 62.2359C147.43 62.2358 147.392 62.2278 147.358 62.2123C147.323 62.1968 147.292 62.1742 147.267 62.146C147.07 61.9128 146.821 61.7289 146.54 61.6088C146.259 61.4888 145.954 61.4359 145.649 61.4545C145.617 61.4604 145.584 61.4596 145.553 61.4522C145.521 61.4447 145.491 61.4308 145.465 61.4113C145.439 61.3919 145.418 61.3672 145.402 61.3389C145.386 61.3106 145.376 61.2793 145.372 61.247C145.365 61.183 145.382 61.1184 145.42 61.0668C145.459 61.0152 145.516 60.9807 145.58 60.9704C145.971 60.9394 146.363 61.003 146.725 61.1559C147.086 61.3088 147.405 61.5464 147.654 61.8486C147.677 61.8712 147.696 61.8981 147.708 61.9277C147.721 61.9574 147.727 61.9893 147.727 62.0215C147.727 62.0537 147.721 62.0856 147.708 62.1153C147.696 62.1449 147.677 62.1718 147.654 62.1944C147.599 62.23 147.533 62.2447 147.468 62.2359Z" fill="#263238"/>
<path d="M139.218 62.63C139.182 62.6373 139.144 62.6373 139.107 62.63C139.049 62.6004 139.005 62.5489 138.984 62.4868C138.963 62.4246 138.968 62.3568 138.997 62.2981C139.158 61.9443 139.402 61.6343 139.707 61.3937C140.013 61.1531 140.371 60.989 140.753 60.9151C140.785 60.911 140.817 60.9132 140.848 60.9216C140.879 60.93 140.908 60.9444 140.934 60.964C140.959 60.9835 140.98 61.0079 140.996 61.0357C141.012 61.0635 141.022 61.0942 141.026 61.126C141.03 61.1578 141.028 61.19 141.02 61.221C141.012 61.2519 140.997 61.2809 140.978 61.3062C140.958 61.3316 140.934 61.3529 140.906 61.3688C140.878 61.3847 140.847 61.395 140.816 61.3991C140.514 61.4636 140.232 61.5979 139.992 61.7912C139.751 61.9846 139.56 62.2316 139.432 62.5124C139.411 62.5498 139.38 62.5805 139.342 62.6013C139.304 62.622 139.261 62.632 139.218 62.63Z" fill="#263238"/>
<path d="M138.043 89.4464C136.715 93.1321 135.346 96.8317 133.97 100.51C132.594 104.189 131.204 107.889 129.98 111.429C128.901 114.831 128.113 118.711 127.324 122.493C126.536 126.276 125.748 130.197 124.925 134.041L121.101 133.668C121.101 129.657 121.211 125.681 121.516 121.677C121.682 119.686 121.848 117.68 122.117 115.661C122.364 113.581 122.732 111.517 123.217 109.479C123.729 107.439 124.296 105.524 124.89 103.608C125.485 101.693 126.093 99.7982 126.73 97.9104C128.002 94.1348 129.344 90.4145 130.789 86.7012L138.043 89.4464Z" fill="#FF8B7B"/>
<path d="M135.449 81.3628C130.816 82.0543 125.506 98.0902 125.506 98.0902L135.242 103.622C135.242 103.622 139.522 96.0157 141.638 90.3177C143.879 84.3362 140.421 80.6367 135.449 81.3628Z" fill="#FF5C8A"/>
<path d="M135.449 81.3628C130.816 82.0543 125.506 98.0902 125.506 98.0902L135.242 103.622C135.242 103.622 139.522 96.0157 141.638 90.3177C143.879 84.3362 140.421 80.6367 135.449 81.3628Z" fill="#1C2D5E"/>
<path d="M128.092 248.81C128.417 248.886 128.758 248.849 129.06 248.706C129.159 248.647 129.242 248.565 129.302 248.466C129.361 248.367 129.394 248.254 129.399 248.139C129.409 248.073 129.4 248.005 129.375 247.943C129.349 247.881 129.307 247.827 129.254 247.786C128.763 247.427 127.048 248.139 126.854 248.222C126.834 248.232 126.818 248.246 126.806 248.265C126.793 248.283 126.786 248.304 126.785 248.326C126.785 248.349 126.792 248.371 126.804 248.391C126.816 248.41 126.833 248.426 126.854 248.436C127.252 248.606 127.667 248.732 128.092 248.81ZM128.97 247.918C129.022 247.925 129.072 247.944 129.115 247.973C129.115 247.973 129.171 248.028 129.164 248.118C129.163 248.197 129.142 248.275 129.104 248.344C129.065 248.413 129.009 248.471 128.942 248.512C128.364 248.673 127.745 248.607 127.214 248.326C127.768 248.079 128.364 247.941 128.97 247.918Z" fill="#FF5C8A"/>
<path d="M126.882 248.443H126.937C127.483 248.25 128.617 247.344 128.597 246.791C128.594 246.703 128.561 246.619 128.503 246.553C128.445 246.487 128.365 246.444 128.279 246.431C128.194 246.406 128.106 246.4 128.019 246.412C127.932 246.423 127.848 246.454 127.774 246.5C127.138 246.874 126.799 248.25 126.785 248.305C126.782 248.326 126.783 248.347 126.789 248.368C126.795 248.388 126.806 248.407 126.82 248.422L126.882 248.443ZM128.168 246.638H128.216C128.362 246.68 128.369 246.756 128.369 246.784C128.369 247.109 127.636 247.814 127.075 248.111C127.2 247.566 127.484 247.07 127.891 246.687C127.932 246.661 127.977 246.643 128.025 246.635C128.072 246.627 128.121 246.628 128.168 246.638Z" fill="#FF5C8A"/>
<path d="M184.484 246.037C184.897 245.963 185.272 245.75 185.549 245.435C185.607 245.346 185.643 245.244 185.652 245.138C185.662 245.032 185.645 244.925 185.604 244.827C185.585 244.767 185.55 244.714 185.504 244.671C185.458 244.629 185.402 244.599 185.341 244.585C184.65 244.419 183.045 245.912 182.866 246.078C182.852 246.097 182.844 246.12 182.844 246.144C182.844 246.168 182.852 246.191 182.866 246.21C182.873 246.233 182.888 246.253 182.908 246.266C182.928 246.28 182.952 246.287 182.976 246.286C183.485 246.247 183.99 246.164 184.484 246.037ZM185.065 244.827C185.137 244.807 185.214 244.807 185.286 244.827C185.311 244.834 185.333 244.847 185.351 244.865C185.369 244.883 185.383 244.906 185.39 244.93C185.421 244.991 185.437 245.059 185.437 245.127C185.437 245.196 185.421 245.263 185.39 245.325C185.168 245.663 184.401 245.926 183.315 246.016C183.828 245.525 184.419 245.123 185.065 244.827Z" fill="#FF5C8A"/>
<path d="M182.969 246.279H183.018C183.516 245.864 184.359 244.529 184.124 244.018C184.069 243.9 183.938 243.769 183.626 243.824C183.512 243.84 183.402 243.881 183.304 243.943C183.206 244.005 183.123 244.087 183.059 244.184C182.77 244.818 182.688 245.526 182.824 246.21C182.838 246.248 182.865 246.28 182.9 246.3L182.969 246.279ZM183.592 244.045H183.661C183.868 244.011 183.903 244.087 183.917 244.108C184.055 244.419 183.509 245.428 183.025 245.94C182.929 245.389 183.007 244.821 183.246 244.315C183.325 244.187 183.448 244.091 183.592 244.045Z" fill="#FF5C8A"/>
<path d="M125.084 133.488L124.143 137.243L119.953 134.705C119.953 134.705 120.561 130.667 123.756 130.598L125.084 133.488Z" fill="#FF8B7B"/>
<path d="M120.907 139.041L117.795 137.222L119.953 134.733L124.143 137.264L120.907 139.041Z" fill="#FF8B7B"/>
<path d="M75.1247 254.106H126.185C127.164 254.115 128.133 253.921 129.033 253.536C129.932 253.15 130.741 252.581 131.409 251.866C132.076 251.15 132.587 250.303 132.909 249.379C133.232 248.455 133.358 247.474 133.28 246.499L123.198 102.667C123.016 100.614 122.081 98.7021 120.573 97.2978C119.065 95.8935 117.091 95.0965 115.031 95.0602H63.9985C63.0197 95.0494 62.0494 95.2427 61.1495 95.628C60.2497 96.0133 59.4401 96.582 58.7724 97.2978C58.1048 98.0136 57.5938 98.8608 57.272 99.7853C56.9502 100.71 56.8248 101.691 56.9037 102.667L66.9581 246.499C67.1404 248.551 68.0754 250.464 69.5831 251.868C71.0908 253.272 73.0647 254.069 75.1247 254.106Z" fill="#FF5C8A"/>
<path opacity="0.3" d="M75.1247 254.106H126.185C127.164 254.115 128.133 253.921 129.033 253.536C129.932 253.15 130.741 252.581 131.409 251.866C132.076 251.15 132.587 250.303 132.909 249.379C133.232 248.455 133.358 247.474 133.28 246.499L123.198 102.667C123.016 100.614 122.081 98.7021 120.573 97.2978C119.065 95.8935 117.091 95.0965 115.031 95.0602H63.9985C63.0197 95.0494 62.0494 95.2427 61.1495 95.628C60.2497 96.0133 59.4401 96.582 58.7724 97.2978C58.1048 98.0136 57.5938 98.8608 57.272 99.7853C56.9502 100.71 56.8248 101.691 56.9037 102.667L66.9581 246.499C67.1404 248.551 68.0754 250.464 69.5831 251.868C71.0908 253.272 73.0647 254.069 75.1247 254.106Z" fill="#FAFAFA"/>
<path d="M80.6291 254.106H131.696C132.675 254.115 133.645 253.921 134.544 253.536C135.443 253.15 136.253 252.581 136.92 251.866C137.588 251.15 138.099 250.303 138.421 249.379C138.743 248.455 138.869 247.474 138.791 246.499L128.73 102.667C128.551 100.614 127.618 98.7013 126.111 97.2966C124.604 95.8919 122.63 95.0952 120.57 95.0602H69.5098C68.531 95.0494 67.5607 95.2427 66.6608 95.628C65.761 96.0133 64.9514 96.582 64.2837 97.2978C63.6161 98.0136 63.105 98.8608 62.7833 99.7853C62.4615 100.71 62.3361 101.691 62.415 102.667L72.4694 246.499C72.6501 248.551 73.5837 250.463 75.0902 251.867C76.5968 253.272 78.5698 254.069 80.6291 254.106Z" fill="#FF5C8A"/>
<path opacity="0.6" d="M80.6291 254.106H131.696C132.675 254.115 133.645 253.921 134.544 253.536C135.443 253.15 136.253 252.581 136.92 251.866C137.588 251.15 138.099 250.303 138.421 249.379C138.743 248.455 138.869 247.474 138.791 246.499L128.73 102.667C128.551 100.614 127.618 98.7013 126.111 97.2966C124.604 95.8919 122.63 95.0952 120.57 95.0602H69.5098C68.531 95.0494 67.5607 95.2427 66.6608 95.628C65.761 96.0133 64.9514 96.582 64.2837 97.2978C63.6161 98.0136 63.105 98.8608 62.7833 99.7853C62.4615 100.71 62.3361 101.691 62.415 102.667L72.4694 246.499C72.6501 248.551 73.5837 250.463 75.0902 251.867C76.5968 253.272 78.5698 254.069 80.6291 254.106Z" fill="#FAFAFA"/>
<path d="M74.3296 245.842H136.751C136.885 245.842 137.016 245.815 137.139 245.762C137.261 245.709 137.371 245.632 137.462 245.534C137.552 245.437 137.622 245.322 137.667 245.196C137.711 245.071 137.729 244.938 137.719 244.805L127.921 104.693C127.905 104.447 127.796 104.216 127.616 104.048C127.436 103.88 127.199 103.786 126.953 103.787H64.531C64.3975 103.787 64.2655 103.815 64.1433 103.869C64.0211 103.923 63.9112 104.001 63.8204 104.099C63.7297 104.197 63.66 104.312 63.6157 104.438C63.5714 104.564 63.5534 104.698 63.5629 104.831L73.3615 244.936C73.3773 245.182 73.4862 245.412 73.6661 245.581C73.846 245.749 74.0832 245.842 74.3296 245.842Z" fill="#FAFAFA"/>
<path d="M70.1114 166.79L74.6822 155.387C75.2285 154.038 77.1785 154.038 78.202 155.387L86.7973 166.79C87.8138 168.173 87.1361 169.839 85.5734 169.839H82.5861C85.6771 179.88 95.0331 187.86 105.302 189.201C106.172 189.324 106.984 189.713 107.625 190.314C108.266 190.916 108.706 191.701 108.884 192.562C108.992 193.018 108.983 193.494 108.857 193.946C108.731 194.397 108.492 194.809 108.163 195.143C107.834 195.477 107.425 195.722 106.976 195.855C106.526 195.987 106.05 196.004 105.592 195.902C91.9352 194.132 79.4951 183.323 75.761 169.853H72.4072C70.8444 169.839 69.5651 168.145 70.1114 166.79Z" fill="#FF5C8A"/>
<path d="M99.8321 141.218C99.7241 140.762 99.7334 140.287 99.8592 139.836C99.985 139.385 100.223 138.974 100.551 138.64C100.879 138.306 101.287 138.061 101.736 137.928C102.184 137.795 102.66 137.777 103.117 137.878C116.774 139.648 129.214 150.456 132.948 163.927H136.336C137.899 163.927 139.178 165.621 138.632 166.969L134.061 178.372C133.522 179.755 131.565 179.755 130.542 178.372L121.912 166.976C120.895 165.628 121.573 163.934 123.136 163.934H126.13C123.032 153.893 113.683 145.913 103.407 144.572C102.539 144.448 101.73 144.059 101.09 143.459C100.45 142.859 100.011 142.077 99.8321 141.218Z" fill="#FF5C8A"/>
<g opacity="0.3">
<path opacity="0.3" d="M70.1114 166.79L74.6822 155.387C75.2285 154.038 77.1785 154.038 78.202 155.387L86.7973 166.79C87.8138 168.173 87.1361 169.839 85.5734 169.839H82.5861C85.6771 179.88 95.0331 187.86 105.302 189.201C106.172 189.324 106.984 189.713 107.625 190.314C108.266 190.916 108.706 191.701 108.884 192.562C108.992 193.018 108.983 193.494 108.857 193.946C108.731 194.397 108.492 194.809 108.163 195.143C107.834 195.477 107.425 195.722 106.976 195.855C106.526 195.987 106.05 196.004 105.592 195.902C91.9352 194.132 79.4951 183.323 75.761 169.853H72.4072C70.8444 169.839 69.5651 168.145 70.1114 166.79Z" fill="black"/>
<path opacity="0.3" d="M99.8321 141.218C99.7241 140.762 99.7334 140.287 99.8592 139.836C99.985 139.385 100.223 138.974 100.551 138.64C100.88 138.306 101.287 138.061 101.736 137.928C102.184 137.795 102.66 137.778 103.117 137.878C116.774 139.648 129.214 150.456 132.948 163.927H136.336C137.899 163.927 139.179 165.621 138.632 166.969L134.061 178.372C133.522 179.755 131.565 179.755 130.542 178.372L121.912 166.976C120.895 165.628 121.573 163.934 123.136 163.934H126.13C123.032 153.893 113.683 145.913 103.407 144.572C102.539 144.448 101.73 144.06 101.09 143.459C100.45 142.859 100.011 142.077 99.8321 141.218Z" fill="black"/>
</g>
<path d="M84.5361 99.0571C84.5603 99.3813 84.7051 99.6847 84.9419 99.9074C85.1787 100.13 85.4903 100.256 85.8154 100.26C85.9704 100.263 86.1241 100.233 86.2667 100.172C86.4094 100.111 86.5376 100.021 86.6432 99.908C86.7489 99.7946 86.8294 99.6602 86.8798 99.5136C86.9302 99.3671 86.9492 99.2115 86.9356 99.0571C86.9148 98.728 86.771 98.4187 86.5328 98.1907C86.2945 97.9626 85.9792 97.8326 85.6494 97.8263C85.4921 97.8232 85.336 97.8538 85.1916 97.9162C85.0471 97.9786 84.9178 98.0713 84.8123 98.188C84.7067 98.3047 84.6275 98.4426 84.5798 98.5926C84.5322 98.7425 84.5173 98.9009 84.5361 99.0571Z" fill="#FF5C8A"/>
<path opacity="0.4" d="M84.5361 99.0571C84.5603 99.3813 84.7051 99.6847 84.9419 99.9074C85.1787 100.13 85.4903 100.256 85.8154 100.26C85.9704 100.263 86.1241 100.233 86.2667 100.172C86.4094 100.111 86.5376 100.021 86.6432 99.908C86.7489 99.7946 86.8294 99.6602 86.8798 99.5136C86.9302 99.3671 86.9492 99.2115 86.9356 99.0571C86.9148 98.728 86.771 98.4187 86.5328 98.1907C86.2945 97.9626 85.9792 97.8326 85.6494 97.8263C85.4921 97.8232 85.336 97.8538 85.1916 97.9162C85.0471 97.9786 84.9178 98.0713 84.8123 98.188C84.7067 98.3047 84.6275 98.4426 84.5798 98.5926C84.5322 98.7425 84.5173 98.9009 84.5361 99.0571Z" fill="#FAFAFA"/>
<path d="M90.6974 100.26H103.988C104.142 100.261 104.295 100.229 104.436 100.168C104.577 100.106 104.704 100.016 104.809 99.9031C104.913 99.79 104.993 99.6564 105.044 99.5108C105.094 99.3652 105.114 99.2107 105.101 99.0571C105.082 98.7309 104.942 98.4236 104.708 98.1957C104.474 97.9679 104.163 97.8361 103.836 97.8262H90.5591C90.4044 97.8248 90.2511 97.8555 90.109 97.9166C89.9669 97.9777 89.8391 98.0677 89.7337 98.1809C89.6283 98.2941 89.5476 98.428 89.4969 98.5741C89.4461 98.7202 89.4263 98.8753 89.4388 99.0294C89.4606 99.3534 89.601 99.6581 89.8331 99.8851C90.0653 100.112 90.373 100.246 90.6974 100.26Z" fill="#FF5C8A"/>
<path opacity="0.4" d="M90.6974 100.26H103.988C104.142 100.261 104.295 100.229 104.436 100.168C104.577 100.106 104.704 100.016 104.809 99.9031C104.913 99.79 104.993 99.6564 105.044 99.5108C105.094 99.3652 105.114 99.2107 105.101 99.0571C105.082 98.7309 104.942 98.4236 104.708 98.1957C104.474 97.9679 104.163 97.8361 103.836 97.8262H90.5591C90.4044 97.8248 90.2511 97.8555 90.109 97.9166C89.9669 97.9777 89.8391 98.0677 89.7337 98.1809C89.6283 98.2941 89.5476 98.428 89.4969 98.5741C89.4461 98.7202 89.4263 98.8753 89.4388 99.0294C89.4606 99.3534 89.601 99.6581 89.8331 99.8851C90.0653 100.112 90.373 100.246 90.6974 100.26Z" fill="#FAFAFA"/>
</svg>
