<svg width="329" height="207" viewBox="0 0 329 207" fill="none" xmlns="http://www.w3.org/2000/svg">
<rect width="328" height="206" transform="translate(0.292969 0.485596)" fill="#E1E9FE"/>
<g clip-path="url(#clip0_1448_13930)">
<path d="M236.596 14.2085L113.39 14.2085C104.748 14.2085 97.7422 21.2141 97.7422 29.856V311.512C97.7422 320.153 104.748 327.159 113.39 327.159H236.596C245.238 327.159 252.244 320.153 252.244 311.512V29.856C252.244 21.2141 245.238 14.2085 236.596 14.2085Z" fill="#263238"/>
<path d="M251.265 69.2029H249.176C247.552 69.2029 246.236 70.5188 246.236 72.1422V110.08C246.236 111.703 247.552 113.019 249.176 113.019H251.265C252.888 113.019 254.204 111.703 254.204 110.08V72.1422C254.204 70.5188 252.888 69.2029 251.265 69.2029Z" fill="#263238"/>
<path d="M98.0601 69.2029H95.6539C94.1181 69.2029 92.873 70.4479 92.873 71.9837V87.8185C92.873 89.3543 94.1181 90.5994 95.6539 90.5994H98.0601C99.5959 90.5994 100.841 89.3543 100.841 87.8185V71.9837C100.841 70.4479 99.5959 69.2029 98.0601 69.2029Z" fill="#263238"/>
<path d="M98.0601 97.489H95.6539C94.1181 97.489 92.873 98.734 92.873 100.27V116.105C92.873 117.64 94.1181 118.885 95.6539 118.885H98.0601C99.5959 118.885 100.841 117.64 100.841 116.105V100.27C100.841 98.734 99.5959 97.489 98.0601 97.489Z" fill="#263238"/>
<path d="M233.991 14.2063L110.784 14.2063C102.142 14.2063 95.1367 21.2119 95.1367 29.8538V311.509C95.1367 320.151 102.142 327.157 110.784 327.157H233.991C242.632 327.157 249.638 320.151 249.638 311.509V29.8538C249.638 21.2119 242.632 14.2063 233.991 14.2063Z" fill="#FF5C8A"/>
<path opacity="0.9" d="M243.729 32.5647L101.043 32.5647C98.9577 32.5647 97.2676 34.2548 97.2676 36.3397V305.561C97.2676 307.646 98.9577 309.336 101.043 309.336H243.729C245.814 309.336 247.504 307.646 247.504 305.561V36.3397C247.504 34.2548 245.814 32.5647 243.729 32.5647Z" fill="white"/>
<path opacity="0.2" d="M157.537 21.4402H187.247C187.758 21.444 188.247 21.6486 188.608 22.0098C188.97 22.3711 189.174 22.86 189.178 23.3709C189.174 23.8818 188.97 24.3707 188.608 24.732C188.247 25.0932 187.758 25.2979 187.247 25.3016H157.537C157.035 25.2866 156.559 25.0766 156.209 24.7162C155.859 24.3557 155.664 23.8731 155.664 23.3709C155.667 22.8698 155.864 22.3892 156.213 22.0296C156.562 21.6699 157.036 21.4587 157.537 21.4402Z" fill="black"/>
<path d="M266.891 111.467L267.309 56.2797L255.305 48.6049L223.218 48.3559C222.879 48.3528 222.542 48.4167 222.227 48.5438C221.913 48.6709 221.626 48.8588 221.384 49.0968C221.142 49.3347 220.949 49.618 220.817 49.9304C220.685 50.2429 220.615 50.5784 220.612 50.9178L220.157 111.107C220.152 111.792 220.419 112.451 220.9 112.939C221.38 113.427 222.034 113.705 222.719 113.712L264.287 114.023C264.971 114.029 265.629 113.763 266.117 113.284C266.606 112.804 266.884 112.151 266.891 111.467Z" fill="white"/>
<path d="M221.917 114.215C221.233 114.035 220.627 113.632 220.196 113.07C219.765 112.509 219.533 111.819 219.536 111.111L220.004 50.9195C220.007 50.5005 220.093 50.0863 220.256 49.7005C220.42 49.3147 220.658 48.9648 220.956 48.671C221.255 48.3772 221.609 48.1451 221.997 47.9881C222.386 47.8311 222.801 47.7522 223.22 47.7559L255.308 47.9991C255.423 47.9961 255.535 48.0256 255.633 48.0844L267.637 55.7591C267.724 55.8143 267.796 55.8911 267.844 55.9821C267.893 56.0731 267.918 56.1751 267.916 56.2784L267.499 111.46C267.49 112.305 267.146 113.112 266.544 113.705C265.941 114.297 265.128 114.628 264.283 114.623L222.717 114.307C222.448 114.31 222.179 114.279 221.917 114.215ZM255.096 49.2073L223.204 48.9721C222.682 48.9693 222.179 49.1734 221.807 49.5399C221.434 49.9064 221.222 50.4055 221.216 50.9281L220.761 111.117C220.759 111.375 220.809 111.631 220.907 111.869C221.005 112.107 221.149 112.324 221.332 112.506C221.513 112.692 221.73 112.839 221.969 112.941C222.209 113.042 222.466 113.094 222.726 113.095L264.293 113.406C264.551 113.407 264.807 113.358 265.045 113.26C265.284 113.162 265.5 113.017 265.682 112.835C265.868 112.653 266.016 112.436 266.117 112.197C266.218 111.958 266.27 111.701 266.271 111.441L266.688 56.5879L255.096 49.2073Z" fill="#FF5C8A"/>
<path d="M267.309 56.2798L255.305 48.605L260.046 57.1849C260.37 57.7734 260.91 58.2124 261.553 58.4089C262.195 58.6053 262.889 58.5437 263.486 58.2372L267.309 56.2798Z" fill="#E0E0E0"/>
<path d="M261.493 59.0274C261.076 58.9172 260.685 58.7231 260.345 58.4569C260.005 58.1908 259.722 57.8582 259.515 57.4794L254.775 48.8936C254.712 48.7785 254.688 48.6457 254.708 48.5157C254.727 48.3858 254.789 48.2659 254.884 48.1745C254.978 48.0831 255.1 48.0253 255.23 48.0099C255.361 47.9946 255.493 48.0226 255.606 48.0896L267.61 55.7644C267.701 55.8217 267.775 55.9025 267.824 55.9982C267.873 56.0939 267.895 56.201 267.888 56.3083C267.887 56.4194 267.854 56.5279 267.795 56.6216C267.735 56.7153 267.651 56.7907 267.551 56.8391L263.736 58.7676C263.046 59.1271 262.247 59.2196 261.493 59.0274ZM256.98 50.408L260.565 56.925C260.811 57.3769 261.225 57.7141 261.717 57.8643C262.209 58.0144 262.741 57.9654 263.197 57.7279L266.065 56.2446L256.98 50.408Z" fill="#FF5C8A"/>
<path d="M241.94 92.8219L249.721 88.4101L249.698 91.2788C251.692 90.9946 253.504 89.9633 254.766 88.3937C256.028 86.8241 256.646 84.8336 256.495 82.8252C256.345 80.8168 255.436 78.9407 253.954 77.5769C252.472 76.2131 250.527 75.4635 248.514 75.48L248.537 72.4879C251.324 72.5064 253.999 73.589 256.014 75.5142C258.029 77.4394 259.233 80.0618 259.379 82.845C259.524 85.6282 258.602 88.3619 256.799 90.4872C254.995 92.6124 252.449 93.9685 249.679 94.2782L249.657 97.3329L241.94 92.8219Z" fill="#FF5C8A"/>
<path d="M245.532 73.8301L237.755 78.2492L237.777 75.3805C235.783 75.6647 233.972 76.696 232.71 78.2656C231.448 79.8352 230.83 81.8258 230.98 83.8342C231.131 85.8425 232.039 87.7186 233.521 89.0824C235.003 90.4462 236.948 91.1958 238.962 91.1793L238.94 94.1657C236.159 94.1399 233.492 93.0547 231.483 91.131C229.474 89.2074 228.274 86.5902 228.127 83.8125C227.981 81.0349 228.899 78.306 230.694 76.1817C232.49 74.0574 235.028 72.6977 237.791 72.3796L237.82 69.3206L245.532 73.8301Z" fill="#FF5C8A"/>
<path d="M91.2723 86.5325C92.3105 91.3358 93.4227 100.151 90.0859 103.48C92.7718 106.001 96.2652 108.901 102.024 108.918C107.783 108.934 106.704 105.029 105.147 102.994C99.7255 101.882 99.7914 97.8858 100.665 94.1041L91.2723 86.5325Z" fill="#FF8B7B"/>
<path d="M89.2135 112.543C87.162 116.662 85.0941 120.897 83.0755 125.083C81.057 129.268 79.1208 133.486 77.4153 137.688C77.1929 138.207 76.9951 138.735 76.7974 139.254L76.3113 140.547C76.1119 141.175 76.0337 141.835 76.0806 142.492C76.2498 144.441 76.6907 146.357 77.3906 148.185C78.9992 152.376 80.9531 156.427 83.232 160.296L79.3515 163.435C75.775 159.876 72.7235 155.825 70.2886 151.406C68.9353 148.956 67.9839 146.305 67.4709 143.554C67.1716 141.862 67.1967 140.129 67.545 138.446L67.7098 137.746C67.7757 137.507 67.8087 137.416 67.8581 137.252L68.13 136.353C68.3113 135.752 68.4843 135.151 68.682 134.566C70.2309 129.861 72.0518 125.379 73.9879 120.955C75.9241 116.531 78.0332 112.205 80.3072 107.904L89.2135 112.543Z" fill="#FF8B7B"/>
<path d="M82.0451 103.916C75.9895 105.811 72.3066 118.746 72.3066 118.746L84.7722 129.209C87.1651 124.527 89.2512 119.694 91.0174 114.742C93.9504 106.305 89.3696 101.642 82.0451 103.916Z" fill="#FF5C8A"/>
<g opacity="0.2">
<path opacity="0.2" d="M82.0451 103.915C75.9895 105.81 72.3066 118.745 72.3066 118.745L84.7722 129.209C87.1651 124.527 89.2512 119.694 91.0174 114.741C93.9504 106.304 89.3696 101.641 82.0451 103.915Z" fill="black"/>
</g>
<path d="M81.8639 158.804L86.8073 163.36L80.1008 167.554C80.1008 167.554 76.0802 162.882 78.1399 160.353L81.8639 158.804Z" fill="#FF8B7B"/>
<path d="M87.3189 170.355L84.7071 171.418C84.1961 171.621 83.6294 171.636 83.1086 171.459C82.5877 171.282 82.1468 170.926 81.8647 170.454L80.1016 167.554L86.841 163.352L88.4888 167.266C88.6178 167.545 88.6897 167.847 88.7006 168.154C88.7114 168.462 88.6609 168.768 88.552 169.056C88.4431 169.343 88.2779 169.606 88.0662 169.83C87.8545 170.053 87.6004 170.231 87.3189 170.355Z" fill="#FF8B7B"/>
<path d="M113.065 103.347C103.261 101.699 91.3064 101.172 82.1693 103.775C80.9664 104.128 79.9463 104.931 79.3228 106.019C78.6992 107.106 78.5206 108.393 78.8243 109.609C84.3279 133.419 82.7378 157.469 83.2734 162.561L118.635 161.992C120.382 132.876 118.388 114.807 117.284 107.615C117.116 106.551 116.619 105.567 115.862 104.802C115.105 104.036 114.127 103.527 113.065 103.347Z" fill="#FF5C8A"/>
<path d="M115.677 106.718C118.775 109.676 121.963 112.691 125.135 115.599C126.728 117.066 128.326 118.491 129.93 119.875C131.52 121.26 133.152 122.603 134.725 123.74C135.4 124.245 136.107 124.704 136.843 125.115L137.041 125.223H137.139H137.189H137.049H136.826C136.587 125.223 136.67 125.297 136.826 125.264C137.52 125.095 138.182 124.817 138.787 124.44C139.642 123.998 140.472 123.511 141.275 122.982C144.671 120.462 147.932 117.767 151.047 114.907L154.919 118.013C153.741 119.996 152.439 121.903 151.022 123.723C149.6 125.601 148.041 127.372 146.359 129.021C145.463 129.909 144.508 130.735 143.5 131.492C142.304 132.411 140.983 133.154 139.578 133.7C138.548 134.08 137.454 134.259 136.357 134.228C136.006 134.214 135.657 134.179 135.31 134.121L134.775 133.997L134.429 133.898L133.745 133.676L133.176 133.445C131.925 132.901 130.718 132.259 129.568 131.525C125.678 128.971 121.975 126.144 118.486 123.064C115.067 120.09 111.813 117.066 108.6 113.828L115.677 106.718Z" fill="#FF8B7B"/>
<path d="M104.629 109.387C103.748 115.673 118.636 127.661 118.636 127.661L126.652 115.368C126.652 115.368 125.004 112.229 119.064 106.66C112.967 100.942 105.602 102.466 104.629 109.387Z" fill="#FF5C8A"/>
<path d="M150.207 115.812L154.771 109.798L159.83 115.442C159.83 115.442 156.93 120.558 152.259 119.182L150.207 115.812Z" fill="#FF8B7B"/>
<path d="M161.33 107.689L162.656 110.985C162.771 111.258 162.806 111.558 162.756 111.85C162.706 112.141 162.575 112.413 162.376 112.633L159.83 115.459L154.771 109.815L159.105 106.973C159.293 106.851 159.505 106.772 159.727 106.743C159.949 106.714 160.175 106.734 160.388 106.803C160.601 106.871 160.796 106.986 160.959 107.14C161.122 107.293 161.248 107.481 161.33 107.689Z" fill="#FF8B7B"/>
<path d="M107.767 80.6494C107.767 81.185 108.097 81.6052 108.443 81.5969C108.789 81.5887 109.053 81.1438 109.028 80.6082C109.003 80.0727 108.698 79.6525 108.352 79.6608C108.006 79.669 107.743 80.1139 107.767 80.6494Z" fill="#1C2D5E"/>
<path d="M108.113 81.0452C108.828 82.6535 109.757 84.1583 110.873 85.5189C110.52 85.7922 110.111 85.9841 109.675 86.0809C109.24 86.1778 108.788 86.1772 108.352 86.0792L108.113 81.0452Z" fill="#FF5652"/>
<path d="M106.672 77.9063C106.723 77.9118 106.773 77.9041 106.82 77.8838C106.866 77.8636 106.906 77.8316 106.936 77.7909C107.167 77.4774 107.47 77.2249 107.821 77.0555C108.171 76.8861 108.557 76.8048 108.946 76.8187C108.987 76.8221 109.029 76.8173 109.068 76.8046C109.107 76.7919 109.144 76.7716 109.175 76.7448C109.207 76.718 109.232 76.6853 109.251 76.6485C109.27 76.6117 109.281 76.5715 109.284 76.5304C109.287 76.447 109.257 76.3657 109.202 76.303C109.147 76.2403 109.07 76.2009 108.987 76.1926C108.497 76.1694 108.008 76.2669 107.565 76.4766C107.121 76.6864 106.735 77.0019 106.442 77.3954C106.408 77.4414 106.387 77.4955 106.381 77.5523C106.375 77.609 106.384 77.6664 106.407 77.7184C106.431 77.7704 106.468 77.8153 106.514 77.8483C106.561 77.8813 106.615 77.9013 106.672 77.9063Z" fill="#1C2D5E"/>
<path d="M89.8063 79.2556C90.5149 85.7891 90.6302 89.645 94.0576 92.8911C99.2729 97.7851 107.24 94.5389 108.468 87.9478C109.596 82.0239 108.245 72.2937 101.72 69.9373C100.298 69.3929 98.7597 69.2255 97.2541 69.4516C95.7485 69.6776 94.3271 70.2893 93.1279 71.2273C91.9287 72.1652 90.9925 73.3975 90.4105 74.8043C89.8285 76.2111 89.6203 77.7446 89.8063 79.2556Z" fill="#FF8B7B"/>
<path d="M102.915 82.9635C103.739 85.4846 102 90.8811 101.457 92.5289C100.913 94.1767 98.6143 95.6268 94.5854 95.2478C93.8839 95.2008 93.1992 95.0125 92.5723 94.6941C91.9455 94.3758 91.3894 93.9339 90.9377 93.3952C90.4859 92.8565 90.1478 92.232 89.9435 91.5593C89.7393 90.8865 89.6731 90.1794 89.7491 89.4805C87.953 89.2086 86.0251 85.9212 86.124 83.639C86.2229 81.3569 82.8284 78.984 82.4164 76.7595C82.0045 74.535 83.8747 71.4454 86.3464 73.0025C84.7481 71.3547 84.608 67.2353 89.5102 66.4114C93.4237 65.7934 97.4691 67.8779 100.493 66.6915C103.516 65.5051 107.521 64.7224 108.402 67.1446C110.05 66.1807 112.522 68.1086 111.698 71.0829C110.874 74.0571 104.835 75.7955 104.835 75.7955C104.835 75.7955 107.084 81.637 102.915 82.9635Z" fill="#263238"/>
<path d="M86.7174 74.3132C86.5964 74.3134 86.4768 74.2869 86.3672 74.2357C86.2575 74.1844 86.1605 74.1096 86.083 74.0166C84.5835 72.204 82.5897 67.9362 85.7205 64.7642C85.8749 64.6108 86.0837 64.5247 86.3014 64.5247C86.519 64.5247 86.7279 64.6108 86.8822 64.7642C86.9594 64.8408 87.0207 64.932 87.0626 65.0324C87.1044 65.1328 87.1259 65.2404 87.1259 65.3492C87.1259 65.458 87.1044 65.5657 87.0626 65.6661C87.0207 65.7665 86.9594 65.8576 86.8822 65.9342C84.0151 68.8343 87.2035 72.8137 87.3436 72.9785C87.4414 73.099 87.5031 73.2447 87.5217 73.3988C87.5403 73.5529 87.515 73.7091 87.4487 73.8495C87.3824 73.9898 87.2778 74.1086 87.147 74.1921C87.0162 74.2756 86.8644 74.3204 86.7092 74.3215L86.7174 74.3132Z" fill="#263238"/>
<path d="M87.4496 75.1864C87.3259 75.1858 87.2038 75.1574 87.0926 75.1032C86.9813 75.049 86.8837 74.9704 86.807 74.8733C86.6669 74.7086 83.4372 70.7539 80.0016 72.9784C79.8169 73.0964 79.593 73.1362 79.379 73.0891C79.165 73.0419 78.9785 72.9117 78.8605 72.7271C78.7425 72.5424 78.7027 72.3185 78.7498 72.1045C78.7969 71.8905 78.9271 71.704 79.1118 71.586C82.8605 69.1802 86.6257 72.0144 88.0923 73.8435C88.1602 73.9283 88.2108 74.0256 88.241 74.13C88.2711 74.2344 88.2804 74.3438 88.2681 74.4517C88.2559 74.5597 88.2224 74.6642 88.1696 74.7592C88.1168 74.8542 88.0457 74.9378 87.9604 75.0052C87.8155 75.1215 87.6355 75.1853 87.4496 75.1864Z" fill="#263238"/>
<path d="M99.4296 83.6478C99.9323 85.0289 100.955 86.1585 102.28 86.795C104.043 87.6189 105.23 86.1524 104.991 84.3233C104.785 82.6755 103.607 80.2862 101.695 80.2039C99.7838 80.1215 98.8364 81.9505 99.4296 83.6478Z" fill="#FF8B7B"/>
<path d="M74.6722 225.771C79.7639 196.325 78.9729 169.202 83.2737 162.562L106.639 162.183C106.639 162.183 94.9977 209.507 89.5435 228.984C83.8834 249.227 66.7957 290.867 66.7957 290.867L56.5547 287.703C56.5547 287.703 66.6474 248.296 74.6722 225.771Z" fill="#1C2D5E"/>
<path opacity="0.2" d="M97.1971 181.421C92.1795 188.012 92.5173 206.468 93.0776 215.909C95.0549 208.379 97.2548 199.778 99.2898 191.695L97.1971 181.421Z" fill="black"/>
<path d="M97.9129 227.632C96.8995 196.777 90.4236 179.088 91.0168 162.437L118.609 161.992C118.609 161.992 115.849 209.91 113.831 230.029C111.738 250.948 105.287 299.088 105.287 299.088L94.0817 299.261C94.0817 299.261 95.1363 253.881 97.9129 227.632Z" fill="#1C2D5E"/>
<path opacity="0.3" d="M103.319 297.885C103.292 297.883 103.266 297.876 103.241 297.863C103.217 297.851 103.196 297.834 103.178 297.813C103.16 297.793 103.147 297.769 103.139 297.743C103.13 297.717 103.127 297.69 103.13 297.663C103.879 289.984 105.255 278.581 106.722 266.519C108.312 253.337 109.968 239.71 110.899 230.012C112.679 211.483 115.57 172.191 115.653 167.726C114.608 167.518 113.629 167.058 112.802 166.386C111.975 165.714 111.324 164.85 110.907 163.87C110.898 163.844 110.895 163.816 110.896 163.789C110.898 163.762 110.905 163.735 110.918 163.71C110.93 163.686 110.947 163.664 110.968 163.646C110.989 163.628 111.013 163.615 111.039 163.606C111.064 163.597 111.09 163.593 111.117 163.594C111.143 163.596 111.169 163.602 111.193 163.614C111.217 163.626 111.238 163.642 111.255 163.662C111.273 163.681 111.286 163.705 111.294 163.73C111.699 164.669 112.332 165.493 113.137 166.125C113.941 166.757 114.891 167.177 115.9 167.347C115.948 167.356 115.991 167.382 116.023 167.419C116.054 167.457 116.072 167.504 116.073 167.553C116.073 171.071 113.115 211.219 111.311 230.054C110.372 239.759 108.724 253.386 107.126 266.56C105.667 278.631 104.291 290.025 103.542 297.704C103.54 297.731 103.532 297.757 103.52 297.78C103.507 297.804 103.49 297.825 103.469 297.842C103.448 297.859 103.424 297.872 103.399 297.879C103.373 297.886 103.346 297.888 103.319 297.885Z" fill="white"/>
</g>
<defs>
<clipPath id="clip0_1448_13930">
<rect width="218" height="206" fill="white" transform="translate(55.5371 0.47583)"/>
</clipPath>
</defs>
</svg>
