<svg width="65" height="65" viewBox="0 0 65 65" fill="none" xmlns="http://www.w3.org/2000/svg">
<g filter="url(#filter0_d_1448_14040)">
<circle cx="32.293" cy="30.5249" r="24" transform="rotate(-90 32.293 30.5249)" fill="#E1E9FE"/>
<path d="M24.1263 35.8579C24.1263 36.6863 24.7979 37.3579 25.6263 37.3579C26.4547 37.3579 27.1263 36.6863 27.1263 35.8579H24.1263ZM25.6263 19.8579L26.687 18.7972C26.1012 18.2115 25.1514 18.2115 24.5656 18.7972L25.6263 19.8579ZM19.2323 24.1306C18.6465 24.7164 18.6465 25.6661 19.2323 26.2519C19.8181 26.8377 20.7678 26.8377 21.3536 26.2519L19.2323 24.1306ZM29.899 26.2519C30.4848 26.8377 31.4345 26.8377 32.0203 26.2519C32.6061 25.6661 32.6061 24.7164 32.0203 24.1306L29.899 26.2519ZM40.4596 25.1912C40.4596 24.3628 39.7881 23.6912 38.9596 23.6912C38.1312 23.6912 37.4596 24.3628 37.4596 25.1912H40.4596ZM38.9596 41.1912L37.899 42.2519C38.4848 42.8377 39.4345 42.8377 40.0203 42.2519L38.9596 41.1912ZM45.3536 36.9186C45.9394 36.3328 45.9394 35.383 45.3536 34.7972C44.7678 34.2115 43.8181 34.2115 43.2323 34.7972L45.3536 36.9186ZM34.687 34.7972C34.1012 34.2115 33.1514 34.2115 32.5656 34.7972C31.9799 35.383 31.9799 36.3328 32.5656 36.9186L34.687 34.7972ZM27.1263 35.8579V19.8579H24.1263V35.8579H27.1263ZM21.3536 26.2519L26.687 20.9186L24.5656 18.7972L19.2323 24.1306L21.3536 26.2519ZM24.5656 20.9186L29.899 26.2519L32.0203 24.1306L26.687 18.7972L24.5656 20.9186ZM37.4596 25.1912V41.1912H40.4596V25.1912H37.4596ZM43.2323 34.7972L37.899 40.1306L40.0203 42.2519L45.3536 36.9186L43.2323 34.7972ZM40.0203 40.1306L34.687 34.7972L32.5656 36.9186L37.899 42.2519L40.0203 40.1306Z" fill="#4A75F7"/>
</g>
<defs>
<filter id="filter0_d_1448_14040" x="0.292969" y="0.524902" width="64" height="64" filterUnits="userSpaceOnUse" color-interpolation-filters="sRGB">
<feFlood flood-opacity="0" result="BackgroundImageFix"/>
<feColorMatrix in="SourceAlpha" type="matrix" values="0 0 0 0 0 0 0 0 0 0 0 0 0 0 0 0 0 0 127 0" result="hardAlpha"/>
<feOffset dy="2"/>
<feGaussianBlur stdDeviation="4"/>
<feComposite in2="hardAlpha" operator="out"/>
<feColorMatrix type="matrix" values="0 0 0 0 0.109804 0 0 0 0 0.176471 0 0 0 0 0.368627 0 0 0 0.05 0"/>
<feBlend mode="normal" in2="BackgroundImageFix" result="effect1_dropShadow_1448_14040"/>
<feBlend mode="normal" in="SourceGraphic" in2="effect1_dropShadow_1448_14040" result="shape"/>
</filter>
</defs>
</svg>
