<svg width="299" height="225" viewBox="0 0 299 225" fill="none" xmlns="http://www.w3.org/2000/svg">
<path fill-rule="evenodd" clip-rule="evenodd" d="M190.421 34.9792C216.211 29.2061 240.104 36.0556 252.946 55.62C265.788 75.1844 262.429 106.229 259.647 119.933C256.865 133.636 249.808 146.187 241.05 157.084C224.782 177.323 202.798 192.81 178.221 201.171C153.645 209.531 126.962 211.245 101.35 207.016C86.9831 204.643 42.0415 193.02 32.3403 157.944C22.6391 122.869 16.4994 92.8898 37.5075 80.7121C58.5157 68.5344 73.0673 77.6935 83.4674 82.1976C132.055 103.24 164.631 40.7524 190.421 34.9792Z" fill="#FF9100"/>
<path fill-rule="evenodd" clip-rule="evenodd" d="M219.943 53.4458C224.08 53.1263 228.539 53.333 231.911 55.752C235.282 58.171 236.813 63.4828 234.045 66.5738C237.175 65.3502 240.853 67.4255 242.421 70.3979C243.989 73.3702 243.907 76.9314 243.435 80.2586C242.267 88.4985 238.908 96.4177 233.795 102.985C233.56 103.677 233.325 104.369 233.091 105.061C239.134 106.619 262.731 115.783 256.355 138.375C249.979 160.967 222.134 169.566 219.284 172.27C214.316 176.982 206.734 177.305 199.889 177.088C183.061 176.554 166.284 174.415 149.86 170.71C148.464 170.395 146.695 170.203 145.89 171.387C140.064 179.953 127.881 180.719 117.548 179.973C104.276 179.015 91.08 177.002 78.1258 173.959C70.7778 172.233 62.975 169.83 58.3974 163.829C53.061 156.832 53.6772 147.132 54.5432 138.375C51.0357 140.325 45.2182 141.382 37.0909 141.544C32.3057 140.568 29.3208 138.833 28.1363 136.34C22.7194 124.939 20.8618 110.247 27.6074 99.0092C28.4177 97.6592 29.3526 96.3289 30.6721 95.4699C32.071 94.5591 33.7764 94.2597 35.4391 94.1124C41.9973 93.5316 48.7262 95.0624 54.3876 98.4232C54.3371 80.0225 54.2865 61.6217 54.236 43.221C54.2331 42.1672 54.2477 41.0491 54.8095 40.1576C55.6221 38.8681 57.2866 38.4685 58.7848 38.1888C72.4136 35.6446 86.1969 33.9287 100.033 33.0538C104.554 32.768 110.742 34.0262 110.762 38.5562C110.841 55.9042 110.92 73.2523 110.999 90.6004C111.017 94.7295 111.283 94.3842 113.217 93.1877C112.001 93.3137 112.273 91.2511 113.194 90.4477C116.634 87.4486 121.648 87.3382 126.212 87.385C136.42 87.4894 146.628 87.5939 156.836 87.6984C166.727 87.7996 178.589 89.0539 183.067 97.8738C182.937 95.2526 185.313 92.779 187.937 92.8031C190.799 92.8293 193.193 90.3465 194.028 87.609C194.863 84.8715 194.495 81.9301 194.119 79.0927C189.504 74.6241 188.296 67.0281 191.297 61.3484C194.298 55.6686 201.254 52.3858 207.546 53.6796C211.61 54.5154 215.806 53.7653 219.943 53.4458ZM101.49 138.543C101.354 142.195 101.21 145.897 100.135 149.39L101.49 138.543ZM97.2606 93.7175C98.2107 93.9955 99.3863 94.838 98.8875 95.6931C103.015 96.1055 101.783 95.9144 101.968 91.0506C102.157 86.1152 102.172 80.6581 98.9412 76.9226C96.0821 73.6172 91.4193 72.5834 87.0648 72.2116C81.9822 71.7777 76.845 71.9862 71.8143 72.8306C69.3597 73.2426 66.7009 73.9524 65.2765 75.9935C64.4792 77.1358 64.1859 78.5465 63.9517 79.9197C63.0305 85.321 62.7428 90.8302 63.0964 96.2981C73.6782 91.3748 86.0593 90.4396 97.2606 93.7175ZM189.095 129.979C189.354 129.718 189.746 129.654 190.11 129.604C191.564 129.404 193.018 129.204 194.473 129.004C191.135 127.497 189.113 123.916 188.508 120.305C187.904 116.693 188.494 113 189.09 109.387C186.955 111.763 187.109 115.347 187.389 118.529C188.001 125.492 188.837 130.24 189.095 129.979ZM161.639 164.279C161.925 163.349 162.898 162.85 163.611 162.187C164.895 160.995 165.371 159.192 165.79 157.491C167.236 151.612 168.692 145.662 168.673 139.609C168.67 138.326 168.604 137.008 169.029 135.798C169.454 134.588 170.518 133.494 171.8 133.487C173.153 133.481 173.476 131.605 173.355 130.258C172.938 125.614 172.521 120.969 172.104 116.325C171.971 114.841 171.835 113.344 171.385 111.925C169.721 106.676 163.307 103.502 158.125 105.363C157.49 105.591 157.321 106.392 157.249 107.062C156.451 114.491 155.653 121.92 154.856 129.349C154.714 130.669 156.418 131.511 157.705 131.184C158.991 130.857 159.974 129.852 161.086 129.128C162.199 128.404 163.767 127.987 164.788 128.834C165.943 129.793 167.652 128.728 168.655 127.612C169.658 126.496 170.964 125.151 172.39 125.617C170.717 127.217 169.044 128.818 167.371 130.418C166.816 130.949 166.327 132.009 167.028 132.322C168.95 131.64 170.688 130.446 172.013 128.895C172.626 128.875 172.655 129.837 172.313 130.346C171.025 132.263 167.993 132.69 167.212 134.863C165.39 139.937 159.708 143.307 154.382 142.472C153.29 142.301 152.745 143.738 152.614 144.836C152.09 149.214 151.565 153.591 151.041 157.969C150.921 158.976 150.808 160.041 151.223 160.967C151.914 162.512 153.765 163.096 155.406 163.512C157.574 164.061 159.767 164.613 161.984 164.853C162.917 164.954 162.913 164.612 161.639 164.279ZM75.2462 156.253C78.3447 157.291 81.6243 157.643 84.8736 157.988C86.2516 158.134 87.719 158.265 88.9552 157.639C90.4103 156.902 91.1856 155.305 91.8115 153.798C95.3016 145.398 97.2942 136.378 97.6676 127.29C97.7207 125.998 96.0673 125.428 94.7776 125.341C84.4819 124.65 74.6357 129.176 65.3114 133.596C64.8645 133.808 64.3862 134.049 64.1654 134.492C64.0007 134.822 64.0093 135.208 64.0216 135.577C64.1886 140.598 64.3993 145.799 66.6449 150.293C67.2513 151.506 68.0228 152.674 69.115 153.479C69.7766 153.967 70.5338 154.306 71.2847 154.64C72.5877 155.22 73.8937 155.8 75.2462 156.253ZM141.849 137.67C143.222 130.29 144.189 122.834 144.745 115.348C144.936 112.787 145.075 110.183 144.521 107.676C143.968 105.168 142.632 102.73 140.448 101.379C139.103 100.546 137.528 100.172 135.97 99.8942C133.127 99.3871 130.235 99.157 127.348 99.2082C124.8 99.2535 122.125 99.564 120.046 101.036C119.358 101.523 118.733 102.16 118.482 102.965C118.231 103.769 118.442 104.757 119.14 105.23C120.903 106.424 121.622 108.658 121.953 110.762C122.283 112.867 122.363 115.07 123.321 116.972C123.816 117.952 124.525 118.808 125.268 119.616C129.3 124 134.558 127.242 140.285 128.876C141.291 129.164 142.572 129.786 142.359 130.811C145.527 132.808 141.797 137.953 141.849 137.67ZM133.121 159.438C134.287 158.73 135.078 157.55 135.774 156.377C138.727 151.398 140.664 145.818 141.43 140.08C130.808 140.032 120.249 136.024 112.269 129.011C111.996 130.107 112.049 131.254 112.086 132.383C112.319 139.431 111.901 146.5 110.838 153.471C110.585 155.133 111.578 156.795 112.943 157.776C114.307 158.757 115.989 159.179 117.639 159.497C121.36 160.214 125.163 160.508 128.95 160.371C130.39 160.319 131.89 160.186 133.121 159.438ZM200.153 98.6465C199.534 97.1544 199.069 95.472 197.785 94.4923C196.5 93.5126 194.081 93.9919 194.006 95.6057C195.277 95.3716 196.249 96.941 196.032 98.2154C195.816 99.4899 194.889 100.503 194.153 101.566C193.136 103.034 192.44 104.696 191.752 106.345C190.115 110.266 189.478 114.601 189.917 118.828C190.175 121.316 190.857 123.873 192.54 125.724C194.223 127.576 197.107 128.502 199.325 127.343C201.229 126.348 202.179 124.153 202.616 122.049C203.053 119.945 203.131 117.742 203.956 115.758C205.478 112.098 209.232 109.886 212.945 108.498C207.363 107.739 202.312 103.85 200.153 98.6465ZM184.716 102.606C184.965 103.566 185.308 104.501 185.741 105.393C186 104.136 186.417 102.912 186.978 101.758C186.411 101.693 185.839 101.662 185.268 101.665C185.129 101.666 184.982 101.671 184.865 101.746C184.601 101.913 184.638 102.304 184.716 102.606ZM117.43 101.619C117.078 101.901 116.872 102.51 117.243 102.767C117.812 102.198 118.38 101.629 118.948 101.06C118.831 100.914 118.66 100.813 118.476 100.779C118.25 101.17 117.781 101.336 117.43 101.619Z" fill="white"/>
<path d="M215.833 97.5423C217.047 97.5423 218.031 96.5582 218.031 95.3443C218.031 94.1303 217.047 93.1462 215.833 93.1462C214.619 93.1462 213.635 94.1303 213.635 95.3443C213.635 96.5582 214.619 97.5423 215.833 97.5423Z" fill="#FFB61D"/>
<path d="M203.244 95.3443C203.906 95.3443 204.443 94.8075 204.443 94.1453C204.443 93.4832 203.906 92.9464 203.244 92.9464C202.582 92.9464 202.045 93.4832 202.045 94.1453C202.045 94.8075 202.582 95.3443 203.244 95.3443Z" fill="#FFB61D"/>
<path fill-rule="evenodd" clip-rule="evenodd" d="M89.7159 63.8031C93.3126 63.826 96.9094 63.8488 100.506 63.8716C100.674 63.8727 100.855 63.8777 100.991 63.9773C101.269 64.181 101.158 64.658 100.872 64.85C100.587 65.042 100.216 65.0338 99.8723 65.0219C96.707 64.912 93.5323 65.0764 90.3954 65.5126C89.9183 65.5789 89.4151 65.6486 88.9689 65.4673C88.5227 65.2859 88.1813 64.7517 88.3867 64.316C88.6013 63.8608 89.2127 63.7999 89.7159 63.8031ZM77.6883 63.4499C77.9162 63.6771 77.807 64.0942 77.5538 64.2928C77.3006 64.4914 76.9615 64.5312 76.6413 64.5636C73.4527 64.8865 70.264 65.2093 67.0753 65.5322C66.6982 65.5704 66.3084 65.6073 65.9476 65.4912C65.5867 65.3751 65.2603 65.0631 65.2518 64.6842C65.243 64.2933 65.575 63.9613 65.9456 63.8365C66.3162 63.7118 66.7188 63.7467 67.1086 63.7774C70.3758 64.0344 73.6747 63.8862 76.9057 63.3372C77.1763 63.2912 77.4939 63.2561 77.6883 63.4499ZM77.2417 57.3292C77.4799 57.5214 77.3951 57.9336 77.1561 58.1248C76.917 58.3161 76.5916 58.3478 76.2864 58.3719L66.0462 59.1798C65.6629 59.21 65.2657 59.2386 64.9041 59.1077C64.5425 58.9769 64.2254 58.6401 64.2461 58.2561C64.2671 57.8671 64.6264 57.5653 65.005 57.4735C65.3835 57.3816 65.7799 57.4502 66.1653 57.5072C69.6408 58.0209 73.1749 57.5525 76.6738 57.2344C76.87 57.2165 77.0883 57.2054 77.2417 57.3292ZM91.5431 55.3003C93.6798 55.5733 95.846 55.6148 97.9916 55.4239C98.8445 55.348 99.8757 55.3124 100.36 56.0184C99.785 56.4835 98.9945 56.5495 98.2562 56.596C95.8095 56.7502 93.3628 56.9044 90.916 57.0586C90.3579 57.0938 89.6623 57.0516 89.4324 56.5417C89.2261 56.0842 89.5891 55.5341 90.0555 55.3488C90.5219 55.1635 91.0452 55.2367 91.5431 55.3003ZM73.084 52.6843C73.0866 53.0539 72.6235 53.2134 72.2578 53.267L66.8803 54.0552C66.4965 54.1114 66.0999 54.1671 65.7251 54.067C65.3503 53.9669 64.9999 53.6687 64.9648 53.2824C64.9219 52.8094 65.366 52.4102 65.8296 52.3072C66.2932 52.2042 66.7735 52.3119 67.2445 52.3726C68.8688 52.5819 70.5074 52.2249 72.1441 52.1687C72.5446 52.1549 73.0811 52.2836 73.084 52.6843ZM99.0311 51.3972C99.4472 51.4437 99.8741 51.6919 99.9853 52.0955C99.2465 52.6544 98.2698 52.7561 97.347 52.8379C95.7674 52.9779 94.1878 53.1179 92.6082 53.2579C92.0517 53.3072 91.4953 53.3565 90.9388 53.4058C90.5319 53.4419 90.1087 53.4759 89.7266 53.3315C89.3445 53.1871 89.0181 52.808 89.075 52.4035C89.1646 51.766 90.0012 51.6006 90.6447 51.6144C93.0325 51.6657 95.4503 52.0261 97.7897 51.5454C98.1998 51.4611 98.615 51.3507 99.0311 51.3972ZM101.128 45.3676C89.4242 46.9458 77.4241 46.1285 65.8808 48.6252C65.1962 48.7733 64.2408 48.7806 64.0637 48.1029C64.0796 47.3044 65.1124 47.0162 65.9091 46.9594C77.1384 46.1586 88.3677 45.3577 99.597 44.5568C100.256 44.5099 101.18 44.7091 101.128 45.3676Z" fill="#E7EAEE"/>
<path fill-rule="evenodd" clip-rule="evenodd" d="M59.9572 166.694C60.0795 168.11 58.1276 168.589 56.7063 168.595C49.3196 168.624 41.9403 169.994 35.0355 172.619C33.9817 173.019 32.8539 173.524 32.341 174.527C31.6619 175.857 32.4031 177.558 33.6046 178.444C34.806 179.33 36.3396 179.6 37.8129 179.84C76.1096 186.076 114.976 188.809 153.768 187.995L154.392 187.981C158.866 187.878 163.432 187.637 167.531 185.866C164.138 183.488 160.745 181.11 157.351 178.731C163.225 177.558 169.286 178.394 175.246 178.982C188.889 180.329 202.662 180.357 216.31 179.064C215.349 180.6 213.237 180.813 211.426 180.852C194.258 181.221 177.07 180.611 159.971 179.026C162.202 180.494 164.433 181.962 166.664 183.43C167.472 183.962 168.367 184.638 168.413 185.604C168.483 187.057 166.699 187.782 165.264 188.019C160.502 188.805 155.659 188.931 150.833 189.001C113.148 189.552 75.4151 186.855 38.1907 180.951C36.3743 180.663 34.4923 180.341 32.9778 179.298C31.4633 178.255 30.4308 176.271 31.0672 174.546C31.7002 172.829 33.6262 172.023 35.3651 171.455C43.3226 168.856 51.6047 167.253 59.9572 166.694ZM110.762 38.5582C110.841 55.9063 110.92 73.2543 110.999 90.6024C111.017 94.7315 111.831 99.9565 115.824 101.008C121.342 98.4607 127.561 97.4544 133.6 98.1318C137.057 98.5195 140.648 99.5647 142.988 102.139C146.199 105.669 146.203 110.987 145.859 115.746C145.16 125.394 143.784 134.993 141.744 144.449C143.365 144.347 145.018 144.997 146.135 146.176C144.415 146.963 142.366 146.996 140.621 146.265C141.819 152.759 136.528 159.166 130.192 161.027C123.856 162.887 116.98 161.133 111.021 158.285C110.463 160.461 113.374 161.74 115.596 162.069C121.238 162.902 126.88 163.736 132.522 164.57C125.555 164.78 118.564 164.209 111.722 162.873C110.463 164.657 113.315 166.459 115.472 166.808C121.19 167.733 126.909 168.659 132.628 169.584C126.169 169.541 119.712 169.11 113.304 168.295C117.379 171.971 122.942 173.948 128.423 173.667C125.331 174.684 121.896 174.623 118.843 173.496C122.663 178.612 130.478 179.56 136.186 176.699C141.894 173.837 145.62 167.983 147.443 161.864C149.267 155.745 149.444 149.278 149.767 142.902C150.363 131.131 151.503 119.377 153.564 107.773C154.953 99.9586 158.364 90.6413 166.223 89.5373C152.221 88.892 138.206 88.544 124.189 88.4936C119.93 88.4782 114.64 89.175 113.217 93.1897C112.001 93.3157 112.273 91.2531 113.194 90.4498C116.634 87.4506 121.648 87.3403 126.212 87.387L156.836 87.7004C166.727 87.8017 178.589 89.056 183.067 97.8759C182.937 95.2546 185.313 92.781 187.937 92.8051C190.799 92.8314 193.193 90.3486 194.028 87.611C194.864 84.8735 194.495 81.9321 194.119 79.0947C189.504 74.6262 188.296 67.0301 191.297 61.3504C192.146 59.7439 193.4 55.9134 200.404 53.4479C205.073 51.8042 209.688 51.9849 214.25 53.9901C222.817 52.3335 228.703 52.9215 231.911 55.754C236.721 60.0028 236.813 63.4848 234.045 66.5758C237.175 65.3523 240.853 67.4276 242.421 70.3999C243.989 73.3722 243.907 76.9335 243.435 80.2607C242.267 88.5006 238.908 96.4197 233.795 102.987L233.091 105.063C245.458 108.252 255.463 119.183 257.547 131.784C253.435 122.516 247.868 112.701 238.278 109.411C236.114 111.681 233.889 114.049 232.873 117.016C231.856 119.983 232.405 123.732 234.982 125.519C233.364 125.894 231.745 126.27 230.127 126.645C230.665 127.6 231.204 128.556 231.743 129.512C225.627 134.161 224.923 142.955 224.961 150.638C224.998 158.32 224.858 166.984 219.284 172.272C214.316 176.984 206.734 177.307 199.89 177.09C183.061 176.556 166.284 174.417 149.86 170.712C148.464 170.397 146.695 170.205 145.89 171.389C140.064 179.955 127.881 180.721 117.548 179.975C104.276 179.017 91.08 177.004 78.1258 173.961C70.7778 172.235 62.975 169.832 58.3975 163.831C53.061 156.834 53.6773 147.134 54.5432 138.377C49.2819 141.302 43.0447 142.435 37.0909 141.546C43.3668 137.443 46.4102 129.593 46.4674 122.095C46.5245 114.597 44.0218 107.33 41.2374 100.368C35.1024 103.926 31.8746 111.427 32.3546 118.503C32.8346 125.579 36.5889 132.147 41.6261 137.139C35.4166 133.22 31.3078 126.161 30.9677 118.826C30.6276 111.491 34.0655 104.081 39.8857 99.6047C38.9557 96.4242 34.1575 96.0355 31.6427 98.1934C29.1279 100.351 28.3386 103.854 27.6917 107.104C26.4965 113.109 25.2962 119.254 26.1647 125.315C27.0332 131.376 30.3812 137.443 35.9916 139.896C33.3697 141.786 29.8775 139.065 28.1363 136.342C21.0751 125.3 20.8618 110.249 27.6074 99.0112C28.4177 97.6613 29.3526 96.331 30.6721 95.4719C32.071 94.5611 33.7764 94.2617 35.4391 94.1145C41.9973 93.5336 48.7262 95.0644 54.3876 98.4252C54.3371 80.0245 54.2865 61.6238 54.236 43.223C54.2331 42.1693 54.2478 41.0511 54.8095 40.1596C55.6221 38.8702 57.2866 38.4705 58.7848 38.1908C72.4136 35.6466 86.1969 33.9308 100.034 33.0559C104.554 32.77 110.742 34.0282 110.762 38.5582ZM101.521 34.1645C86.8512 34.8551 72.2343 36.6685 57.8404 39.5838C57.2278 39.7079 56.5791 39.8528 56.1338 40.2914C55.5273 40.8889 55.4804 41.8356 55.4724 42.687C55.3005 61.0091 55.3732 79.3335 55.6904 97.6537C57.4519 97.2145 59.2134 96.7753 60.9749 96.3361C60.2863 92.5768 59.5948 88.7667 59.8892 84.9563C60.1836 81.1458 61.582 77.2705 64.4581 74.7537C67.5709 72.0298 71.9149 71.2601 76.0411 70.9704C80.009 70.6918 84.001 70.7563 87.9578 71.1631C91.997 71.5783 96.2519 72.4752 99.166 75.3028C103.375 79.3874 103.443 86.0048 103.225 91.8661C102.647 107.426 102.069 122.985 101.49 138.545C101.354 142.197 101.21 145.899 100.135 149.392C99.0606 152.885 96.927 156.205 93.6991 157.92C90.5316 159.602 86.7413 159.554 83.1778 159.149C79.7755 158.763 76.406 158.088 73.117 157.135C71.1192 156.556 69.1201 155.86 67.4223 154.658C61.804 150.682 61.1397 142.749 61.0033 135.867C58.846 135.478 56.737 137.119 55.8463 139.123C54.9555 141.126 54.995 143.402 55.0503 145.593C55.1883 151.06 55.4014 156.799 58.192 161.502C62.4976 168.757 71.5414 171.438 79.7986 173.17C94.4548 176.246 109.335 178.251 124.283 179.166C117.612 175.768 111.697 169.953 110.29 162.6C109.908 160.603 109.867 158.558 109.827 156.525C109.049 116.769 108.27 77.0132 107.491 37.2573C107.442 34.7431 104.033 34.0463 101.521 34.1645ZM158.389 99.4362C158.018 100.341 157.748 101.345 157.996 102.291C158.243 103.238 159.162 104.064 160.127 103.903C164.448 103.184 169.106 105.312 171.391 109.05C173.275 112.135 173.537 115.908 173.749 119.516L175.682 152.385C175.889 155.898 175.991 159.763 173.808 162.522C170.975 166.102 165.657 166.222 161.113 165.777C157.365 165.41 153.421 164.787 150.51 162.396C150.613 163.788 150.208 165.211 149.387 166.34C148.373 167.733 150.009 169.565 151.601 170.224C153.545 171.028 155.659 171.308 157.745 171.579C167.301 172.82 176.863 174.016 186.43 175.167C193.794 176.054 201.276 176.912 208.597 175.722C203.965 174.423 199.534 172.414 195.503 169.788C193.493 168.478 191.548 166.981 190.177 165.011C187.938 161.796 187.467 157.711 187.094 153.811C185.986 142.214 185.162 130.59 184.622 118.953C184.223 110.37 181.471 101.908 176.744 94.7322C175.899 93.4491 174.865 92.1177 173.371 91.7605C167.429 90.3402 160.707 93.7841 158.389 99.4362ZM131.145 173.713C131.649 173.799 132.167 173.912 132.582 174.21C132.998 174.508 133.287 175.037 133.159 175.532C133.032 176.027 132.378 176.353 131.966 176.051C131.51 175.718 130.904 175.706 130.362 175.553C129.819 175.399 129.25 174.949 129.347 174.393C129.471 173.689 130.44 173.594 131.145 173.713ZM110.221 173.922C110.846 174.052 111.578 174.498 111.45 175.124C111.337 175.676 110.655 175.859 110.096 175.934C109.471 176.018 108.803 176.095 108.235 175.82C107.667 175.545 107.298 174.769 107.671 174.259C107.922 173.916 108.392 173.824 108.818 173.807C109.288 173.788 109.76 173.827 110.221 173.922ZM147.631 166.968C147.037 167.396 146.63 168.027 146.211 168.627C144.302 171.362 141.882 173.74 139.114 175.601C139.183 175.894 139.623 175.82 139.884 175.669C143.089 173.812 145.377 170.744 147.572 167.76C147.752 167.516 147.9 167.107 147.631 166.968ZM176.292 93.0766C178.002 95.0959 179.725 97.1344 180.976 99.4661C182.333 101.994 183.095 104.795 183.708 107.598C187.14 123.275 186.224 139.573 188.448 155.467C188.849 158.334 189.38 161.263 190.872 163.745C192.62 166.652 195.521 168.668 198.477 170.333C200.867 171.68 203.362 172.863 205.988 173.66C210.162 174.929 215.177 175.018 218.377 172.052C220.174 170.387 221.119 168.01 221.858 165.674C225.022 155.661 225.37 144.773 222.852 134.578C222.915 140.676 223.707 146.759 223.526 152.854C223.344 158.949 222.093 165.226 218.51 170.16C217.8 171.137 216.978 172.075 215.905 172.631C214.493 173.363 212.814 173.348 211.235 173.156C208.477 172.819 205.78 171.985 203.313 170.707C201.439 169.737 199.705 168.517 198.024 167.239C196.071 165.754 194.154 164.154 192.786 162.118C191.429 160.099 190.674 157.741 190.074 155.385C185.696 138.177 188.826 119.616 183.631 102.637C182.407 98.6357 180.281 94.3424 176.292 93.0766ZM71.8465 168.777C81.9533 170.337 92.0601 171.897 102.167 173.457C101.911 174.126 100.987 174.149 100.277 174.055C91.6337 172.9 82.9901 171.745 74.3466 170.591C73.3695 170.46 72.3923 170.329 71.4152 170.199C70.9514 170.137 70.3755 169.969 70.3169 169.505C70.2342 168.851 71.1947 168.677 71.8465 168.777ZM189.09 109.389C186.955 111.765 187.109 115.349 187.389 118.531C188.001 125.494 188.613 132.458 189.225 139.422C189.254 139.748 189.288 140.091 189.479 140.357C189.792 140.791 190.397 140.866 190.93 140.904C198.197 141.416 205.463 141.928 212.729 142.44C212.186 143.299 210.961 143.311 209.948 143.233C203.107 142.705 196.239 142.534 189.38 142.721C189.262 146.238 189.78 149.776 190.902 153.111C191.389 154.557 193.262 154.865 194.786 154.927C200.598 155.162 206.41 155.397 212.223 155.633C212.49 156.235 211.551 156.611 210.892 156.603C204.918 156.535 198.944 156.466 192.969 156.397C192.151 156.388 191.855 157.547 192.163 158.305C192.969 160.286 195.535 160.713 197.67 160.846L211.027 161.683C211.331 161.702 211.395 162.181 211.172 162.39C210.95 162.599 210.61 162.605 210.305 162.599L194.666 162.267C198.71 167.079 204.381 170.499 210.525 171.829C211.848 172.116 213.252 172.304 214.538 171.879C216.077 171.371 217.212 170.064 218.1 168.709C222.812 161.52 222.499 152.271 222.017 143.689L221.471 133.962C221.662 133.7 222.054 133.609 222.34 133.76C222.451 133.284 221.83 133.001 221.349 132.912C210.719 130.96 199.812 129.004 189.173 130.911C188.833 130.771 188.837 130.242 189.095 129.981C189.354 129.72 189.746 129.656 190.11 129.606C191.564 129.406 193.018 129.206 194.473 129.006C191.135 127.499 189.113 123.918 188.508 120.307C187.904 116.695 188.494 113.002 189.09 109.389ZM136.846 168.522C137.793 168.698 138.886 168.988 139.256 169.877C138.202 170.595 136.817 170.522 135.546 170.42C135.196 170.392 134.814 170.35 134.568 170.099C134.133 169.656 134.457 168.839 135.017 168.57C135.576 168.3 136.236 168.408 136.846 168.522ZM64.7379 162.024C75.6268 165.446 86.9106 167.609 98.2929 168.457C99.1758 168.523 100.363 168.943 100.193 169.812C88.1552 168.451 76.1909 166.439 64.3698 163.788C63.6155 163.619 62.6477 163.081 62.9286 162.361C63.1754 161.728 64.0898 161.82 64.7379 162.024ZM104.621 167.305C105.177 167.304 105.714 167.494 106.234 167.692C106.498 167.793 106.789 167.922 106.891 168.186C107.11 168.748 106.335 169.149 105.742 169.257C105.343 169.329 104.944 169.402 104.544 169.474C104.208 169.535 103.845 169.593 103.535 169.448C103.032 169.212 102.901 168.486 103.19 168.011C103.478 167.535 104.065 167.306 104.621 167.305ZM155.897 166.105C160.713 167.021 165.647 167.073 170.549 167.122C170.929 167.125 171.031 167.722 170.76 167.988C170.489 168.254 170.066 168.265 169.687 168.258C165.11 168.168 160.528 167.685 155.964 168.045C155.467 168.084 154.952 168.131 154.485 167.956C154.018 167.781 153.621 167.31 153.709 166.82C153.786 166.397 154.198 166.101 154.619 166.019C155.041 165.937 155.475 166.024 155.897 166.105ZM166.778 90.5972C161.324 91.4115 156.743 96.2654 156.244 101.757C155.779 106.886 154.363 111.873 153.355 116.924C150.119 133.142 151.101 149.95 148.24 166.238C149.285 164.335 149.566 162.121 149.83 159.966L156.767 103.149C156.952 101.637 157.141 100.108 157.684 98.6849C159.168 94.7961 163.004 92.3533 166.778 90.5972ZM141.982 164.184C142.279 164.279 142.583 164.402 142.781 164.643C142.979 164.884 143.029 165.273 142.813 165.497C142.649 165.666 142.394 165.697 142.159 165.718C141.393 165.785 140.626 165.853 139.86 165.921C139.446 165.957 139.018 165.992 138.624 165.862C138.23 165.731 137.874 165.389 137.863 164.974C137.843 164.271 138.711 163.917 139.413 163.871C140.279 163.815 141.155 163.921 141.982 164.184ZM158.125 105.365C157.49 105.593 157.321 106.394 157.249 107.064L154.856 129.351C154.714 130.671 156.418 131.513 157.705 131.186C158.991 130.86 159.974 129.854 161.086 129.13C162.199 128.406 163.767 127.989 164.788 128.837C165.943 129.795 167.652 128.73 168.655 127.614C169.658 126.498 170.964 125.153 172.39 125.619C170.717 127.219 169.044 128.82 167.371 130.42C166.816 130.951 166.327 132.011 167.028 132.324C168.95 131.642 170.688 130.448 172.013 128.897C172.626 128.877 172.655 129.839 172.313 130.348C171.025 132.265 167.993 132.692 167.212 134.865C165.39 139.939 159.708 143.309 154.382 142.474C153.29 142.303 152.745 143.74 152.614 144.838C152.09 149.216 151.565 153.593 151.041 157.971C150.921 158.978 150.808 160.043 151.223 160.969C151.914 162.514 153.765 163.098 155.406 163.514C158.487 164.294 161.619 165.081 164.796 164.968C167.973 164.856 171.258 163.72 173.27 161.259C172.713 160.535 171.472 161.463 170.66 161.044C169.867 160.635 170.288 159.272 171.14 159.004C171.992 158.736 172.892 159.161 173.684 159.576C174.181 158.606 174.692 157.567 174.59 156.482C174.487 155.397 173.491 154.324 172.429 154.568C171.731 154.728 171.446 153.518 172.009 153.075C172.572 152.632 173.381 152.776 174.078 152.942C174.116 150.323 174.155 147.704 174.194 145.085C174.202 144.55 174.203 143.989 173.95 143.518C173.696 143.048 173.096 142.718 172.614 142.95C171.958 143.267 171.389 142.149 171.828 141.568C172.267 140.986 173.096 140.911 173.824 140.886C173.881 138.56 173.73 136.229 173.376 133.93C170.634 135.303 170.155 138.928 169.879 141.981C169.348 147.838 168.282 153.645 166.696 159.308C166.341 160.576 165.941 161.873 165.111 162.896C164.281 163.919 162.914 164.614 161.639 164.281C161.925 163.351 162.898 162.852 163.611 162.189C164.895 160.997 165.371 159.194 165.79 157.493C167.236 151.614 168.692 145.664 168.673 139.611L168.671 139.205C168.661 138.052 168.649 136.883 169.029 135.8C169.454 134.59 170.518 133.496 171.8 133.49C173.153 133.483 173.476 131.607 173.355 130.26C172.938 125.616 172.521 120.971 172.104 116.327C171.971 114.844 171.835 113.346 171.385 111.927C169.721 106.678 163.307 103.504 158.125 105.365ZM178.531 162.008C179.167 162.179 179.784 162.833 179.52 163.435C179.267 164.011 178.475 164.043 177.849 163.984C177.543 163.955 177.217 163.918 176.978 163.724C176.559 163.386 176.618 162.667 177.011 162.297C177.403 161.928 178.011 161.869 178.531 162.008ZM102.147 161.365C102.565 161.455 103.001 161.577 103.302 161.881C103.602 162.186 103.702 162.728 103.403 163.035C103.159 163.285 102.765 163.289 102.416 163.277C101.913 163.26 101.411 163.242 100.909 163.224C100.618 163.214 100.307 163.197 100.073 163.023C99.574 162.652 99.793 161.783 100.329 161.467C100.865 161.152 101.539 161.233 102.147 161.365ZM63.442 156.807C66.2542 158.115 69.3437 158.685 72.399 159.218C78.5839 160.295 84.7875 161.266 91.0059 162.128C91.876 162.249 92.8398 162.42 93.37 163.121C90.962 163.285 88.5552 162.884 86.1749 162.484C78.328 161.167 70.4811 159.849 62.6342 158.531C61.8117 158.393 60.7497 157.936 60.9099 157.118C61.0998 156.148 62.5456 156.39 63.442 156.807ZM112.269 129.013C111.996 130.109 112.049 131.256 112.086 132.385C112.319 139.433 111.901 146.502 110.838 153.473C110.585 155.135 111.578 156.797 112.943 157.778C114.307 158.759 115.989 159.181 117.639 159.499C121.36 160.216 125.163 160.51 128.95 160.373C130.39 160.321 131.89 160.188 133.121 159.44C134.287 158.732 135.078 157.553 135.774 156.379C138.727 151.4 140.664 145.82 141.43 140.082C130.808 140.034 120.249 136.026 112.269 129.013ZM140.052 156.956C140.778 157.195 141.503 157.435 142.228 157.674C142.47 157.754 142.729 157.846 142.873 158.057C143.115 158.413 142.88 158.933 142.505 159.144C142.13 159.355 141.674 159.344 141.244 159.326C140.461 159.295 139.596 159.229 139.05 158.668C138.503 158.106 138.691 156.895 139.473 156.844C139.67 156.831 139.864 156.894 140.052 156.956ZM178.07 157.061C178.501 157.13 178.956 157.21 179.289 157.493C179.621 157.776 179.758 158.338 179.451 158.649C179.328 158.774 179.157 158.839 178.991 158.897C178.348 159.12 177.635 159.299 177.001 159.055C176.366 158.812 175.933 157.973 176.332 157.422C176.699 156.917 177.453 156.963 178.07 157.061ZM65.3114 133.598C64.8645 133.81 64.3862 134.051 64.1654 134.494C64.0007 134.824 64.0094 135.21 64.0216 135.579C64.1887 140.6 64.3993 145.801 66.6449 150.295C67.2514 151.508 68.0228 152.677 69.115 153.481C69.7766 153.969 70.5339 154.308 71.2847 154.642C72.5877 155.222 73.8937 155.802 75.2462 156.255C78.3447 157.293 81.6243 157.645 84.8737 157.99C86.2516 158.136 87.7191 158.267 88.9552 157.641C90.4103 156.904 91.1857 155.307 91.8115 153.8C95.3016 145.4 97.2942 136.38 97.6677 127.292C97.7207 126 96.0673 125.43 94.7776 125.343C84.482 124.652 74.6357 129.178 65.3114 133.598ZM99.2664 126.927C99.0023 127.275 98.9694 127.74 98.9433 128.175C98.3272 138.454 95.769 148.612 91.4436 157.957C95.5646 155.871 98.6351 151.821 99.5305 147.29C99.8383 145.732 99.9013 144.138 99.9634 142.551C100.159 137.548 100.355 132.545 100.551 127.541C100.561 127.277 100.563 126.987 100.396 126.784C100.118 126.447 99.5306 126.58 99.2664 126.927ZM100.973 151.962C101.496 151.991 101.988 152.208 102.496 152.334C102.951 152.447 103.089 153.096 102.834 153.49C102.58 153.884 102.09 154.056 101.626 154.121C101.141 154.189 100.619 154.163 100.203 153.907C99.7855 153.65 99.5149 153.114 99.6815 152.654C99.8596 152.161 100.45 151.934 100.973 151.962ZM178.37 150.603C178.859 150.705 179.278 151.007 179.681 151.303C179.899 151.463 180.132 151.643 180.203 151.904C180.294 152.238 180.074 152.597 179.771 152.764C179.468 152.93 179.104 152.942 178.759 152.914C178.269 152.875 177.763 152.754 177.394 152.43C177.024 152.106 176.836 151.537 177.066 151.103C177.3 150.662 177.881 150.502 178.37 150.603ZM62.0528 135.06C61.9191 135.298 61.946 135.591 61.9769 135.862L62.7034 142.259C63.0976 145.73 63.6138 149.471 66.0401 151.984C66.4446 151.792 66.2163 151.184 65.9613 150.816C63.996 147.98 63.6175 144.374 63.2988 140.938C63.112 138.924 62.9251 136.91 62.7383 134.896C62.5504 134.698 62.1865 134.821 62.0528 135.06ZM191.428 148.162C198.093 148.327 204.759 148.492 211.424 148.656C212.445 148.681 213.468 148.707 214.477 148.858C214.267 149.587 213.308 149.724 212.55 149.717C205.865 149.654 199.159 149.24 192.51 149.935C191.942 149.995 191.328 150.053 190.835 149.764C190.342 149.476 190.121 148.684 190.574 148.336C190.809 148.156 191.131 148.155 191.428 148.162ZM173.114 146.853C173.261 146.901 173.411 146.952 173.53 147.049C173.929 147.373 173.781 148.066 173.373 148.379C172.966 148.692 172.416 148.728 171.903 148.741C171.368 148.754 170.744 148.712 170.44 148.272C170.057 147.72 170.512 146.904 171.145 146.68C171.778 146.457 172.476 146.644 173.114 146.853ZM177.987 145.506C178.609 145.573 179.214 145.791 179.735 146.135C180.134 146.399 180.055 147.061 179.692 147.371C179.329 147.682 178.811 147.726 178.334 147.709C177.851 147.691 177.347 147.618 176.956 147.334C176.566 147.049 176.333 146.5 176.542 146.064C176.781 145.567 177.439 145.447 177.987 145.506ZM110.838 130.294C110.475 135.526 110.312 140.771 110.351 146.015C110.352 146.237 110.503 146.551 110.692 146.436C111.094 142.028 111.291 137.602 111.283 133.176C111.281 132.195 111.261 131.179 110.838 130.294ZM103.713 143.715C104.284 143.758 104.789 144.09 105.255 144.425C105.399 144.527 105.546 144.637 105.627 144.795C105.793 145.12 105.593 145.54 105.281 145.731C104.969 145.921 104.583 145.936 104.217 145.919C103.386 145.88 102.341 145.428 102.434 144.601C102.498 144.031 103.141 143.672 103.713 143.715ZM179.372 140.191C179.929 140.419 180.501 141.016 180.214 141.544C180.019 141.902 179.545 141.979 179.138 141.984C178.665 141.988 178.191 141.95 177.725 141.868C177.07 141.754 176.97 140.723 177.478 140.295C177.987 139.866 178.757 139.938 179.372 140.191ZM244.234 129.954C244.464 130.338 244.468 130.811 244.465 131.258C244.445 134.424 244.426 137.59 244.407 140.756C244.404 141.14 244.353 141.606 244.004 141.767C243.702 141.907 243.33 141.711 243.163 141.424C242.995 141.137 242.98 140.789 242.974 140.457C242.925 137.631 243.24 134.737 242.44 132.026C242.202 131.22 241.917 130.214 242.539 129.65C243.025 129.209 243.898 129.391 244.234 129.954ZM162.845 129.588C160.445 131.077 157.921 132.608 155.104 132.81C154.592 132.847 154.361 133.459 154.26 133.963C153.805 136.229 153.554 138.536 153.511 140.847C153.508 140.989 153.509 141.141 153.591 141.256C153.721 141.439 153.986 141.447 154.21 141.435C156.408 141.32 158.635 141.091 160.676 140.268C162.717 139.445 164.574 137.955 165.405 135.918C166.237 133.88 165.837 131.282 164.139 129.883C163.773 129.582 163.247 129.338 162.845 129.588ZM144.474 138.499C145.245 138.701 146.016 138.903 146.787 139.106C147.075 139.182 147.395 139.282 147.533 139.546C147.695 139.857 147.506 140.258 147.213 140.451C146.919 140.643 146.554 140.679 146.204 140.71C145.65 140.759 145.079 140.807 144.548 140.643C144.016 140.48 143.526 140.051 143.465 139.498C143.404 138.945 143.936 138.357 144.474 138.499ZM37.5233 96.312C40.4088 97.4806 42.5808 100.009 43.9279 102.815C45.275 105.622 45.8884 108.716 46.4229 111.783C47.3077 116.86 48.0123 122.041 47.3671 127.153C46.722 132.265 44.585 137.363 40.6234 140.657C43.5092 140.811 46.9548 140.697 48.5215 138.269C49.2245 137.179 50.7377 136.697 51.9417 137.179C51.1848 136.524 51.7562 135.306 52.3179 134.478C54.6198 131.085 56.1991 127.186 56.7635 123.125C57.8578 115.251 55.1065 107.271 51.0241 100.45C48.3753 96.0238 42.197 94.1304 37.5233 96.312ZM105.941 137.1C106.536 137.335 106.398 138.319 105.841 138.635C105.285 138.951 104.591 138.809 103.971 138.651C103.682 138.577 103.375 138.491 103.178 138.266C102.72 137.742 103.246 136.855 103.925 136.698C104.604 136.542 105.293 136.845 105.941 137.1ZM127.348 99.2103C124.8 99.2555 122.125 99.566 120.046 101.038C119.358 101.525 118.733 102.162 118.482 102.967C118.231 103.771 118.442 104.759 119.14 105.232C120.903 106.426 121.622 108.66 121.953 110.765C122.283 112.869 122.363 115.072 123.321 116.974C123.816 117.954 124.525 118.81 125.268 119.618C129.3 124.002 134.558 127.244 140.285 128.878C141.291 129.166 142.572 129.788 142.359 130.813C134.121 129.085 126.608 124.113 121.797 117.205C120.335 121.695 117.452 125.71 113.664 128.529C121.052 134.816 130.613 138.499 140.309 138.795C140.748 138.808 141.245 138.791 141.542 138.467C141.736 138.254 141.797 137.955 141.849 137.672C143.222 130.292 144.189 122.836 144.745 115.35C144.936 112.789 145.075 110.185 144.521 107.678C143.968 105.17 142.632 102.732 140.448 101.381C139.103 100.548 137.528 100.174 135.97 99.8962C133.127 99.3891 130.235 99.159 127.348 99.2103ZM177.97 135.128C178.638 135.129 179.481 135.324 179.598 135.981C179.715 136.637 178.968 137.125 178.308 137.209C177.825 137.271 177.3 137.212 176.917 136.912C176.533 136.611 176.355 136.023 176.621 135.615C176.894 135.197 177.471 135.128 177.97 135.128ZM227.328 121.967C226.102 126.717 225.386 131.581 224.673 136.434C224.637 136.676 224.617 136.962 224.799 137.124C226.71 134.749 228.463 132.248 230.043 129.641C230.199 129.384 230.353 129.047 230.178 128.803C229.782 128.249 229.386 127.696 228.99 127.142C228.696 126.731 228.393 126.19 228.652 125.756C228.862 125.403 229.332 125.329 229.741 125.291L233.099 124.982C233.063 124.774 232.936 124.595 232.813 124.423C231.914 123.172 230.933 121.857 229.494 121.308C228.696 121.004 227.541 121.141 227.328 121.967ZM71.8143 72.8326C69.3597 73.2446 66.7009 73.9545 65.2765 75.9955C64.4793 77.1378 64.186 78.5485 63.9518 79.9217C63.0305 85.3231 62.7428 90.8322 63.0964 96.3002C73.6782 91.3768 86.0593 90.4416 97.2607 93.7195C98.2108 93.9975 99.3863 94.84 98.8876 95.6952C90.485 92.5872 81.126 92.1237 72.4575 94.3862C69.6525 95.1183 66.9267 96.1251 64.1377 96.9159C59.993 98.0911 55.7122 98.7859 51.4086 98.9819C59.2467 109.624 60.2609 124.863 53.9024 136.45C57.8586 135.701 61.5758 134.039 65.2236 132.334C70.6698 129.789 76.0925 127.105 81.8778 125.471C87.6631 123.837 93.9181 123.303 99.6565 125.094C100.328 125.304 100.698 124.335 100.725 123.632L101.968 91.0527C102.157 86.1172 102.172 80.6601 98.9412 76.9246C96.0821 73.6192 91.4193 72.5854 87.0648 72.2136C81.9822 71.7797 76.8451 71.9882 71.8143 72.8326ZM147.626 133.302C147.787 133.407 147.953 133.539 147.99 133.727C148.067 134.109 147.602 134.352 147.228 134.458C146.683 134.613 146.123 134.767 145.561 134.708C144.998 134.649 144.426 134.326 144.241 133.791C144.056 133.257 144.428 132.555 144.993 132.545C145.92 132.528 146.85 132.795 147.626 133.302ZM227.443 112.801C225.396 113.949 222.951 114.368 220.638 113.968C220.934 114.793 222.231 115.081 222.237 115.957C222.241 116.49 221.739 116.866 221.453 117.316C221.233 117.663 221.138 118.072 221.05 118.474C220.226 122.246 219.753 126.095 219.639 129.955C219.62 130.62 219.785 131.498 220.446 131.571C221.816 131.721 223.107 132.489 223.892 133.622C224.535 129.575 225.178 125.528 225.821 121.481C225.97 120.542 226.096 119.493 225.545 118.718C224.788 117.651 225.447 116.189 226.111 115.062L227.443 112.801ZM105.565 130.293C106.264 130.432 107.059 131.036 106.794 131.697C106.631 132.105 106.138 132.269 105.7 132.293C105.262 132.316 104.806 132.251 104.395 132.407C103.912 132.59 103.343 132.162 103.284 131.649C103.226 131.136 103.582 130.637 104.047 130.412C104.512 130.186 105.058 130.192 105.565 130.293ZM177.962 129.668C178.402 129.729 178.867 129.826 179.187 130.134C179.508 130.442 179.596 131.029 179.255 131.314C179.142 131.408 179 131.458 178.861 131.505C178.255 131.712 177.608 131.914 176.987 131.761C176.367 131.607 175.827 130.949 176.042 130.346C176.289 129.652 177.231 129.567 177.962 129.668ZM218.055 121.348C217.589 121.461 217.249 121.85 216.941 122.218L215.089 124.436C214.727 124.87 215.364 125.474 215.927 125.521C216.489 125.568 217.147 125.436 217.547 125.834C217.967 126.251 217.794 126.978 217.45 127.46C217.107 127.942 216.619 128.335 216.412 128.889C216.101 129.717 216.615 130.755 217.462 131.01C217.922 131.149 218.567 130.936 218.571 130.455C218.595 127.648 218.759 124.841 219.063 122.05C219.115 121.573 218.521 121.236 218.055 121.348ZM124.073 122.743C124.428 122.979 124.657 123.356 124.894 123.71C126.926 126.753 130.325 128.844 133.957 129.286C134.797 129.389 135.788 129.491 136.209 130.225C135.418 131.008 134.128 130.913 133.043 130.66C129.198 129.766 125.675 127.544 123.21 124.46C122.817 123.968 122.458 123.22 122.896 122.768C123.193 122.463 123.718 122.507 124.073 122.743ZM216.058 109.298C213.342 109.965 210.63 110.907 208.43 112.632C206.229 114.357 204.592 116.978 204.609 119.774C204.631 123.32 202.889 126.834 200.053 128.963L204.827 129.525C205.386 129.591 206.013 129.639 206.451 129.285C207.091 128.767 206.927 127.773 206.765 126.966C206.604 126.158 206.639 125.091 207.407 124.794C208.361 124.426 209.15 125.749 209.006 126.761C208.862 127.774 208.274 128.748 208.458 129.754C210.719 130.074 212.988 130.345 215.261 130.564C214.809 130.193 214.759 129.49 214.988 128.951C215.217 128.413 215.661 128.001 216.093 127.606C216.553 127.185 215.89 126.444 215.27 126.377C214.65 126.311 213.921 126.46 213.484 126.015C212.941 125.462 213.349 124.536 213.812 123.914C214.711 122.709 215.826 121.255 215.247 119.867C213.836 116.482 214.147 112.428 216.058 109.298ZM111.918 100.048C111.54 109.315 111.591 118.6 112.073 127.863C115.613 125.942 118.2 122.562 119.804 118.868C120.783 116.614 121.438 114.129 121.047 111.703C120.755 109.894 119.898 108.223 118.903 106.685C117.136 103.956 114.83 101.493 111.918 100.048ZM194.006 95.6077C195.277 95.3736 196.249 96.943 196.032 98.2175C195.816 99.4919 194.889 100.505 194.153 101.568C193.136 103.036 192.44 104.698 191.752 106.347C190.115 110.268 189.478 114.603 189.917 118.83C190.175 121.318 190.857 123.875 192.54 125.726C194.223 127.578 197.107 128.504 199.325 127.345C201.229 126.35 202.179 124.155 202.616 122.051C203.053 119.947 203.131 117.744 203.956 115.76C205.478 112.1 209.232 109.888 212.945 108.5C207.363 107.742 202.312 103.852 200.153 98.6486C199.534 97.1564 199.069 95.474 197.785 94.4943C196.5 93.5146 194.081 93.9939 194.006 95.6077ZM146.82 125.461C147.213 125.537 147.598 125.651 147.968 125.802C148.579 126.05 149.236 126.737 148.843 127.267C148.628 127.557 148.216 127.592 147.855 127.601C147.198 127.618 146.49 127.62 145.953 127.24C145.417 126.861 145.231 125.943 145.772 125.57C146.069 125.365 146.466 125.393 146.82 125.461ZM176.415 123.897C176.946 123.942 177.475 124.016 177.999 124.118C178.258 124.168 178.537 124.239 178.7 124.446C178.947 124.761 178.792 125.255 178.48 125.505C178.167 125.755 177.752 125.826 177.357 125.887C176.753 125.982 176.109 126.072 175.552 125.82C174.995 125.569 174.615 124.832 174.955 124.325C175.252 123.882 175.884 123.852 176.415 123.897ZM24.4834 121.038C24.0332 121.033 23.8775 121.634 23.8912 122.084C23.9304 123.378 24.1921 124.664 24.6614 125.869C24.7921 126.002 24.9438 125.724 24.9255 125.539L24.4834 121.038ZM110.982 124.368C110.701 124.52 110.594 124.924 110.763 125.195L110.77 125.205L110.764 125.212C110.756 125.221 110.748 125.231 110.74 125.244C110.627 125.415 110.785 125.687 110.989 125.672C111.128 125.252 111.125 124.786 110.982 124.368ZM105.131 122.537C105.741 122.672 106.402 123.178 106.25 123.783C106.15 124.184 105.728 124.419 105.324 124.509C104.921 124.598 104.494 124.592 104.109 124.742C103.619 124.933 103.029 124.537 102.928 124.021C102.827 123.505 103.143 122.967 103.599 122.705C104.055 122.444 104.618 122.424 105.131 122.537ZM108.657 37.1739C108.692 65.072 109.333 92.9693 110.579 120.84L110.71 123.721L110.73 122.794C110.765 120.628 110.734 118.461 110.702 116.294C110.33 90.9001 109.958 65.5059 109.586 40.1116C109.571 39.0484 109.487 37.8382 108.657 37.1739ZM148.56 118.458C148.901 118.56 149.244 118.715 149.466 118.995C149.687 119.274 149.751 119.704 149.532 119.985C149.319 120.258 148.935 120.309 148.591 120.34L147.123 120.47C146.883 120.491 146.625 120.509 146.417 120.388C146.248 120.291 146.137 120.113 146.085 119.926C145.931 119.36 146.313 118.747 146.842 118.495C147.371 118.243 147.998 118.29 148.56 118.458ZM30.331 96.6198C28.805 98.1192 28.0112 100.192 27.2779 102.202C25.2344 107.802 23.2924 113.746 24.3007 119.622C24.6125 119.679 24.7611 119.255 24.7842 118.938C25.1987 113.27 26.3314 107.655 28.1467 102.269C28.8393 100.214 29.6723 98.127 31.2109 96.5988C31.1899 96.2266 30.5969 96.3585 30.331 96.6198ZM217.935 108.871C217.669 108.936 217.497 109.187 217.357 109.423C216.044 111.651 215.426 114.283 215.61 116.863C215.685 117.928 216.028 119.155 217.023 119.543C217.832 118.767 218.64 117.99 219.449 117.214C219.578 117.09 219.709 116.963 219.78 116.799C219.958 116.391 219.704 115.935 219.471 115.555C218.318 113.68 217.453 111.302 218.413 109.321C218.532 109.075 218.201 108.805 217.935 108.871ZM234.742 106.466C234.613 106.534 234.513 106.645 234.416 106.754C232.029 109.455 229.723 112.227 227.503 115.067C227.039 115.66 226.555 116.329 226.601 117.08C226.641 117.748 227.111 118.33 227.681 118.681C228.25 119.033 228.914 119.193 229.565 119.348C229.739 119.389 229.928 119.43 230.092 119.357C230.243 119.29 230.338 119.143 230.425 119.002C231.784 116.811 233.163 114.576 233.805 112.078C233.942 111.546 234.403 111.174 234.772 110.766C235.498 109.965 235.922 108.899 235.947 107.818C235.955 107.453 235.912 107.067 235.7 106.768C235.489 106.47 235.066 106.297 234.742 106.466ZM176.591 117.156C176.92 117.237 177.283 117.362 177.431 117.667C177.691 118.205 177.08 118.766 176.51 118.942C176.067 119.079 175.574 119.126 175.15 118.941C174.726 118.755 174.404 118.288 174.5 117.835C174.671 117.031 175.793 116.958 176.591 117.156ZM105.676 115.982C105.831 116.121 105.975 116.284 106.034 116.484C106.153 116.887 105.872 117.331 105.486 117.496C105.101 117.662 104.65 117.598 104.262 117.439C103.853 117.272 103.454 116.953 103.402 116.515C103.343 116.013 103.797 115.551 104.297 115.479C104.797 115.406 105.3 115.644 105.676 115.982ZM149.927 111.57C150.326 111.733 150.367 112.337 150.092 112.668C149.817 113 149.358 113.11 148.929 113.146C148.5 113.182 148.055 113.166 147.654 113.324C147.038 113.565 146.367 112.82 146.514 112.175C146.661 111.529 147.354 111.128 148.015 111.097C148.677 111.066 149.314 111.321 149.927 111.57ZM175.907 110.6C176.473 110.627 177.032 110.776 177.537 111.032C177.756 111.144 177.983 111.298 178.045 111.535C178.174 112.025 177.559 112.361 177.063 112.456C176.622 112.541 176.175 112.591 175.727 112.607C175.174 112.626 174.506 112.519 174.286 112.011C174.114 111.617 174.323 111.133 174.673 110.884C175.024 110.634 175.478 110.579 175.907 110.6ZM212.378 74.4684C209.078 75.0009 205.762 75.4423 202.438 75.7919C200.029 76.0451 197.761 77.4115 196.411 79.422C196.134 79.8351 195.943 80.4942 196.371 80.7474C197.583 79.3494 199.228 78.3322 201.02 77.8725C201.661 77.7082 202.362 77.6186 202.966 77.8877C203.57 78.1569 204.002 78.8978 203.728 79.5C203.309 80.4246 201.97 80.166 200.956 80.1042C198.138 79.9323 195.7 83.1583 196.635 85.8229C197.291 83.2792 200.923 82.1749 202.958 83.8355C204.994 85.4962 204.745 89.1432 202.568 90.6134C201.849 91.0992 200.925 91.438 200.596 92.2416C200.315 92.9306 200.586 93.7086 200.856 94.4022C201.28 95.4907 201.704 96.5792 202.127 97.6677C203.016 99.9498 203.96 102.315 205.758 103.978C207.141 105.256 208.935 106.016 210.764 106.462C217.361 108.07 224.787 105.511 228.993 100.181C229.33 99.7542 230.1 100.159 230.16 100.7C230.22 101.241 229.85 101.727 229.484 102.13C227.601 104.203 225.227 105.827 222.613 106.832C221.377 107.307 219.908 107.82 219.528 109.089C219.214 110.139 219.876 111.299 220.826 111.846C221.776 112.392 222.935 112.439 224.025 112.319C226.198 112.082 228.301 111.231 230.029 109.891C230.552 109.485 231.059 109.01 231.292 108.389C231.512 107.801 231.462 107.152 231.409 106.526L231.362 105.989C231.158 103.657 230.894 101.298 229.944 99.1657C229.487 98.14 228.875 97.179 228.538 96.1076C228.123 94.7864 228.148 93.3689 227.869 92.0124C227.59 90.6559 226.883 89.2469 225.592 88.7469C225.933 87.8802 226.784 87.3348 227.335 86.5839C227.886 85.833 227.967 84.5212 227.1 84.182C226.685 84.0198 226.213 84.1595 225.817 84.3649C224.151 85.2303 223.252 87.3478 223.787 89.1476C224.136 90.3221 222.28 91.1101 221.281 90.4007C220.282 89.6912 220.036 88.3403 219.839 87.1309C219.076 82.4428 217.543 77.3889 213.539 74.8334C213.189 74.6101 212.788 74.4022 212.378 74.4684ZM105.326 107.723C105.852 107.893 106.377 108.366 106.268 108.909C106.164 109.422 105.574 109.662 105.059 109.75C104.327 109.875 103.373 109.732 103.168 109.018C102.972 108.34 103.682 107.69 104.384 107.616C104.701 107.582 105.023 107.624 105.326 107.723ZM189.746 97.958C189.255 98.4232 189.016 99.0872 188.793 99.7255C188.29 101.166 187.78 102.648 187.838 104.172C187.875 105.153 187.306 106.037 186.9 106.931C186.493 107.825 186.273 108.97 186.91 109.717C188.431 108.438 188.796 106.284 189.131 104.325C189.531 101.982 190.075 99.5539 191.59 97.7229C191.06 97.3033 190.236 97.4929 189.746 97.958ZM149.654 104.487C150.046 104.613 150.489 104.864 150.494 105.276C150.499 105.776 149.884 106.006 149.391 106.096C149.145 106.142 148.898 106.187 148.651 106.232C148.022 106.347 147.349 106.457 146.764 106.198C146.18 105.94 145.79 105.151 146.172 104.638C146.419 104.306 146.873 104.216 147.285 104.19C148.084 104.141 148.892 104.242 149.654 104.487ZM92.4776 97.2608C93.1656 97.5899 93.9353 98.2382 93.6805 98.957C86.5927 97.4117 79.0206 98.176 72.3846 101.106C69.3986 102.425 66.5957 104.169 63.5053 105.22C62.4481 105.579 61.2939 105.855 60.2258 105.529C59.1577 105.203 58.267 104.07 58.5794 102.998C58.8727 101.991 59.9933 101.513 60.9863 101.177C65.88 99.5201 70.859 98.1151 75.8969 96.9692C81.3938 95.7188 87.3921 94.8284 92.4776 97.2608ZM194.249 97.1759C193.743 97.1739 193.317 97.5452 192.984 97.9265C192.177 98.8513 191.603 99.9607 191.176 101.112C190.646 102.542 190.333 104.052 190.25 105.575C191.715 103.053 193.282 100.591 194.945 98.196C195.234 97.7803 194.755 97.178 194.249 97.1759ZM185.268 101.667C185.129 101.668 184.982 101.673 184.865 101.748C184.601 101.915 184.638 102.306 184.716 102.608C184.965 103.568 185.308 104.503 185.741 105.395C186 104.138 186.417 102.914 186.978 101.76C186.411 101.695 185.839 101.664 185.268 101.667ZM74.204 98.4276C70.0087 99.717 65.8134 101.006 61.618 102.296C61.1169 102.45 60.5354 102.688 60.4286 103.201C60.7697 103.699 61.4194 103.91 62.0221 103.881C62.6247 103.852 63.1968 103.62 63.7553 103.392C68.0116 101.653 72.2678 99.914 76.524 98.1749C75.7639 97.9625 74.9585 98.1957 74.204 98.4276ZM118.476 100.781C118.25 101.172 117.781 101.338 117.43 101.621C117.078 101.904 116.872 102.512 117.243 102.769C117.812 102.2 118.38 101.631 118.948 101.062C118.831 100.916 118.66 100.815 118.476 100.781ZM162.741 100.478C165.79 100.796 168.868 100.958 171.922 100.695C172.713 100.627 173.658 100.595 174.127 101.235C173.535 101.838 172.604 101.911 171.76 101.947C168.589 102.083 165.418 102.218 162.248 102.354C161.629 102.381 160.846 102.302 160.645 101.716C160.487 101.255 160.846 100.747 161.297 100.562C161.748 100.377 162.256 100.428 162.741 100.478ZM209.887 97.1463C210.625 98.0439 210.894 99.3065 210.587 100.427C210.511 100.704 210.401 100.975 210.224 101.201C209.76 101.793 208.903 101.968 208.172 101.793C207.441 101.617 206.814 101.152 206.256 100.647C205.68 100.128 205.14 99.5356 204.864 98.8112C204.588 98.0867 204.62 97.2054 205.11 96.6045C205.514 96.1093 206.166 95.8717 206.804 95.8251C207.962 95.7403 209.149 96.2488 209.887 97.1463ZM107.086 99.233C107.377 99.4684 107.328 99.9574 107.079 100.237C106.83 100.517 106.451 100.637 106.088 100.728C105.658 100.835 105.207 100.918 104.777 100.816C104.346 100.714 103.943 100.38 103.89 99.9408C103.813 99.3037 104.48 98.8052 105.114 98.7053C105.806 98.5961 106.541 98.7928 107.086 99.233ZM206.511 97.3577C206.188 97.776 206.4 98.5307 206.924 98.6022C207.529 98.6849 207.999 99.3204 207.902 99.9232C207.825 100.396 208.402 100.792 208.86 100.65C209.318 100.508 209.583 99.9944 209.572 99.5153C209.562 99.0361 209.334 98.5893 209.074 98.1862C208.788 97.7418 208.439 97.3102 207.957 97.0938C207.474 96.8774 206.834 96.9395 206.511 97.3577ZM204.9 54.3979C200.504 55.2031 196.148 57.1234 193.313 60.5782C190.477 64.033 189.497 69.2035 191.713 73.0845C192.497 74.4559 193.693 75.6519 195.197 76.1347C196.7 76.6174 198.519 76.2622 199.523 75.0424C200.661 73.6588 202.958 74.9858 204.671 74.4606C207.041 73.7341 209.503 73.3126 211.979 73.2096C212.566 73.1852 213.172 73.1816 213.72 73.394C214.314 73.6247 214.784 74.0869 215.236 74.5371C216.803 76.0986 218.403 77.7053 219.331 79.7137C220.802 82.8986 220.438 86.7821 222.297 89.7577C222.514 87.8918 222.731 86.0259 222.948 84.16C223.029 83.4676 223.119 82.7486 223.493 82.1605C223.867 81.5725 224.615 81.1598 225.271 81.3978C226.426 81.8176 227.63 82.2684 228.459 83.1762C229.288 84.0839 229.596 85.5968 228.798 86.5328C228.028 87.4373 228.902 88.7446 229.311 89.8601C230.02 91.7928 229.186 94.0012 229.744 95.9829C230.205 97.6246 231.539 98.8503 232.813 99.9837C233.186 100.315 233.62 100.668 234.117 100.623C234.532 100.585 234.867 100.275 235.151 99.9693C236.844 98.1442 238.004 95.8297 238.452 93.3808C238.633 92.3926 238.289 90.953 237.294 91.088C237.566 88.7173 239.745 87.1022 241.025 85.0882C242.406 82.916 242.732 80.245 242.795 77.672C242.858 75.0861 242.606 72.2758 240.882 70.3467C238.812 68.0291 234.789 67.8559 232.527 69.987C231.964 70.5183 231.22 71.2204 230.548 70.836C231.075 69.8903 231.602 68.9446 232.129 67.9989C232.988 66.4577 233.866 64.8605 234.04 63.1047C234.385 59.6405 231.748 56.3604 228.487 55.1421C225.225 53.9239 221.543 54.429 218.272 55.6205C217.452 55.9192 216.484 56.5606 216.706 57.4044C216.835 57.893 217.33 58.188 217.584 58.625C217.742 58.8973 217.726 58.9846 217.547 59.205C217.439 59.3381 217.244 59.7235 217.069 59.6484C215.215 57.5004 213.209 55.2516 210.49 54.4393C208.687 53.9009 206.75 54.059 204.9 54.3979ZM183.836 98.6972C183.604 98.5598 183.16 98.4696 183.204 98.7356C183.329 99.3862 183.915 99.8701 184.547 100.069C185.179 100.268 185.858 100.234 186.519 100.199C186.778 100.185 187.054 100.165 187.26 100.008C187.433 99.8758 187.527 99.6685 187.615 99.4699C187.766 99.1295 187.916 98.7891 188.067 98.4487C186.837 97.6485 185.098 99.4451 183.836 98.6972ZM148.327 96.4748C148.845 96.5136 149.358 96.6038 149.857 96.7437C150.29 96.865 150.787 97.1183 150.809 97.5672C150.837 98.1581 150.068 98.3994 149.479 98.4504C148.879 98.5022 148.279 98.554 147.679 98.6058C147.242 98.6436 146.748 98.6629 146.427 98.3643C145.995 97.9632 146.169 97.1852 146.637 96.8266C147.104 96.4679 147.74 96.4308 148.327 96.4748ZM162.355 96.3463C165.224 96.7303 168.131 96.8229 171.019 96.6222C171.358 96.5986 171.727 96.5788 172.005 96.7724C172.284 96.9661 172.354 97.4654 172.049 97.6157C171.957 97.6612 171.851 97.666 171.748 97.6698C168.257 97.8016 164.766 97.9333 161.275 98.065C160.957 98.0771 160.607 98.0788 160.362 97.875C159.924 97.5102 160.175 96.7299 160.678 96.4604C161.18 96.191 161.79 96.2707 162.355 96.3463ZM190.209 93.5031C189.094 93.5631 187.96 93.6665 186.931 94.0987C185.902 94.5309 184.979 95.344 184.672 96.417C184.61 96.6347 184.586 96.9028 184.753 97.0558C184.883 97.1749 185.079 97.1766 185.255 97.1697C187.107 97.0969 188.95 96.8212 190.742 96.3491C191.632 96.1144 192.706 95.5482 192.586 94.635C192.522 94.1542 192.107 93.7785 191.649 93.6193C191.191 93.46 190.693 93.477 190.209 93.5031ZM61.6379 93.3687C61.4602 94.3092 61.4168 95.275 61.5093 96.2276C61.7395 96.4762 62.0426 95.9909 62.0231 95.6526C61.9786 94.8803 61.8492 94.1129 61.6379 93.3687ZM121.249 92.2184C127.667 92.5084 134.084 92.7985 140.501 93.0885C141.1 93.1156 141.896 93.345 141.86 93.9435C141.094 94.4353 140.106 94.3336 139.202 94.2282C133.482 93.5617 127.695 93.4696 121.956 93.9538C121.461 93.9956 120.935 94.036 120.493 93.8087C120.05 93.5815 119.765 92.9756 120.052 92.5697C120.304 92.2146 120.815 92.1988 121.249 92.2184ZM105.689 91.5454C105.971 91.5881 106.265 91.6618 106.47 91.8605C106.939 92.3149 106.65 93.1785 106.086 93.5076C105.522 93.8368 104.824 93.7906 104.173 93.7344C103.459 93.6727 103.228 92.6019 103.696 92.0601C104.165 91.5183 104.98 91.4384 105.689 91.5454ZM128.259 89.1718C138.717 89.7144 149.175 90.2569 159.634 90.7995C160.194 90.8285 160.935 91.044 160.906 91.6042C159.181 91.9148 157.395 91.8802 155.684 91.5031L157.204 92.8107C156.479 93.2674 155.707 93.7391 154.851 93.7581C153.995 93.7771 153.063 93.1458 153.087 92.2898C153.52 92.0898 153.954 91.8899 154.387 91.6899C145.938 90.9661 137.451 90.702 128.973 90.8992C128.484 90.9105 127.962 90.9149 127.549 90.6526C127.136 90.3904 126.927 89.7528 127.269 89.4029C127.513 89.1526 127.909 89.1537 128.259 89.1718ZM195.978 90.5704C195.601 90.591 195.282 90.8412 194.99 91.0803C194.643 91.3636 194.297 91.6469 193.951 91.9302C193.588 92.227 193.195 92.5813 193.174 93.0494C193.162 93.3035 193.356 93.6051 193.604 93.548C193.673 93.532 193.733 93.4901 193.791 93.4492C194.616 92.8674 195.441 92.2857 196.265 91.704C196.434 91.5853 196.613 91.4509 196.668 91.2523C196.768 90.8883 196.355 90.5498 195.978 90.5704ZM208.807 87.5231C208.84 88.3715 208.419 89.1664 208.269 90.0021C208.12 90.8378 208.405 91.9019 209.231 92.0975C209.475 92.1552 209.545 92.504 209.408 92.7132C209.27 92.9224 209.01 93.0126 208.764 93.0574C207.998 93.1964 207.092 92.9507 206.74 92.2569C206.564 91.9095 206.551 91.5054 206.541 91.1161C206.514 90.0737 206.487 89.0314 206.46 87.989C206.442 87.2764 206.522 86.3988 207.174 86.1112C207.951 85.7686 208.775 86.6748 208.807 87.5231ZM197.431 92.2517C197.28 92.322 197.178 92.4849 197.179 92.6514L197.142 92.6611C197.225 92.8469 197.527 92.8759 197.644 92.7095C197.762 92.5431 197.634 92.2689 197.431 92.2517ZM195.988 86.8037C195.642 86.8125 195.255 86.8754 195.051 87.1546C194.832 87.4531 194.921 87.8911 195.145 88.1852C195.37 88.4793 195.701 88.6685 196.01 88.8723C197.311 89.7306 198.35 90.981 198.956 92.4174C199.368 91.8753 199.779 91.3333 200.191 90.7913C200.499 90.3865 200.823 89.9235 200.758 89.4193C200.711 89.0551 200.467 88.7487 200.207 88.489C199.106 87.3882 197.544 86.7641 195.988 86.8037ZM63.3466 78.4179C62.8629 78.4575 62.6122 79.0006 62.4602 79.4615C62.2285 80.1636 61.9968 80.8658 61.7651 81.568C61.512 82.3352 61.257 83.1109 61.1876 83.9158C61.1416 84.4492 61.178 84.9858 61.2145 85.52C61.3283 87.188 61.4421 88.8561 61.5559 90.5242C61.5779 90.8466 61.8232 91.2919 62.0899 91.1093C61.9792 86.8485 62.4024 82.5742 63.3466 78.4179ZM200.152 84.5514C199.713 84.7186 199.246 85.0125 199.183 85.4781C199.119 85.9436 199.804 86.3757 200.07 85.9882C200.41 85.4939 201.258 85.752 201.538 86.2819C201.818 86.8119 201.736 87.4493 201.732 88.0489C201.728 88.6485 201.866 89.3364 202.388 89.6301C202.476 88.828 202.564 88.0259 202.651 87.2239C202.759 86.2337 202.753 85.0056 201.883 84.5211C201.362 84.231 200.709 84.3392 200.152 84.5514ZM214.25 84.0983C214.963 84.13 215.724 84.3784 216.113 84.9758C216.503 85.5733 216.296 86.5519 215.609 86.7443C214.629 87.0189 213.713 85.6377 212.755 85.9806C212.155 86.1951 211.785 87.0378 211.161 86.9169C210.773 86.842 210.558 86.3778 210.636 85.9907C210.713 85.6036 211.002 85.2937 211.311 85.0486C212.135 84.3954 213.199 84.0514 214.25 84.0983ZM105.124 83.3928C105.811 83.5038 106.484 84.2558 106.121 84.8501C106.02 85.0169 105.855 85.1355 105.682 85.2265C105.253 85.4519 104.725 85.5286 104.282 85.3319C103.84 85.1352 103.529 84.6249 103.649 84.1559C103.799 83.5665 104.524 83.2957 105.124 83.3928ZM215.367 79.4818C215.84 79.9313 216.208 80.7778 215.679 81.1592C215.119 81.5626 214.449 80.8816 213.913 80.4466C213.314 79.9605 212.503 79.7459 211.743 79.8724C211.256 79.9533 210.798 80.1647 210.31 80.2356C209.822 80.3065 209.254 80.1944 208.988 79.7793C208.709 79.3439 208.886 78.7276 209.27 78.3813C209.655 78.035 210.189 77.9083 210.704 77.8612C212.393 77.7066 214.138 78.3129 215.367 79.4818ZM105.1 78.1041C105.522 78.3515 105.749 78.9346 105.515 79.3635C105.205 79.9303 104.391 79.9226 103.764 79.7668C103.538 79.7107 103.301 79.6367 103.151 79.4583C102.795 79.0327 103.195 78.3651 103.693 78.1194C104.131 77.903 104.679 77.8568 105.1 78.1041Z" fill="#00160A"/>
</svg>
