<?xml version="1.0" encoding="utf-8"?>
<!-- Generator: Adobe Illustrator 23.0.5, SVG Export Plug-In . SVG Version: 6.00 Build 0)  -->
<svg version="1.1" id="Capa_1" xmlns="http://www.w3.org/2000/svg" xmlns:xlink="http://www.w3.org/1999/xlink" x="0px" y="0px"
	 viewBox="0 0 133.2 221.1" style="enable-background:new 0 0 133.2 221.1;" xml:space="preserve">
<style type="text/css">
	.st0{fill-rule:evenodd;clip-rule:evenodd;fill:#070308;}
	.st1{fill-rule:evenodd;clip-rule:evenodd;fill:#497636;}
	.st2{fill-rule:evenodd;clip-rule:evenodd;fill:#229042;}
	.st3{fill-rule:evenodd;clip-rule:evenodd;fill:#289042;}
	.st4{fill-rule:evenodd;clip-rule:evenodd;fill:#FFFFFF;}
</style>
<g>
	<path class="st0" d="M53.1,1.4h0.8c1.4,0.8,2.6,2,3.8,3.1c5.9,5.3,11.4,11.2,15.8,17.8c5,7.4,8.6,16.1,8.5,25.2
		c0.1,6.1-1.5,12.1-4.3,17.4c-5.2,10-13.7,17.9-22.6,24.5c0,5.3,0.3,10.5,0.1,15.8c3.7,1.1,6.8,4,7.8,7.7c0.6,2.2,0.4,4.5,0,6.6
		c7.1,4.1,14.1,8.2,21.2,12.3c2.6-2.7,6.5-4,10.2-3.2c1.8,0.2,3.3,1.2,4.9,2.1c1.3-1.2,2.4-2.6,3.6-3.9c-0.6-5.8-0.6-12.2,2.8-17.2
		c2.7-4.2,7.4-6.7,12.2-7.5c3.4-0.7,6.9-0.6,10.3-0.5c1.1,0.1,2.4,0.1,3.1,1.1c0.8,1.1,0.5,2.5,0.6,3.8c0.1,5.7-0.5,11.7-3.5,16.7
		c-2.1,3.5-5.6,6-9.6,7c-4.1,1.1-8.4,1.1-12.5,0.4c-1.4,1.4-2.7,2.8-4.1,4.3c0.8,2.1,1.2,4.4,0.7,6.6c-0.7,4.3-4.2,7.8-8.3,8.8
		c0,8.1,0,16.2,0,24.4c2.4,0.6,4.6,1.9,6,3.8c2.6,3.1,3.2,7.7,1.6,11.4c-1,2.3-2.8,4.2-5,5.5c-2.4,1.3-5.3,1.5-8,1
		c-2.1-0.5-3.9-1.7-5.4-3.1c-7,4.1-14.1,8.1-21.1,12.2c0.9,3.8,0.2,8.1-2.7,11c-3.8,4-10.7,4.5-14.9,0.9c-3.6-2.7-5-7.6-3.8-11.9
		c-7.1-4.1-14.1-8.1-21.2-12.2c-2.1,2.1-4.9,3.5-7.9,3.5c-5.8,0.4-11.2-4.7-11.3-10.5C0.9,181,4.8,176,9.8,174.7
		c0-8.1,0-16.2,0-24.4c-3.4-0.9-6.3-3.4-7.7-6.6c-1.3-3.3-1.1-7.2,0.9-10.2c1.3-1.8,2.9-3.5,5-4.4c4.2-1.7,9.4-0.8,12.5,2.6
		c7.1-4.1,14.2-8.2,21.3-12.3c-0.7-2.6-0.8-5.4,0.3-7.9c1.5-3.2,4.5-5.8,8-6.6c0-5.5,0-10.9,0-16.4c-8.6-6.5-16.7-14.1-21.7-23.8
		c-3.9-7.1-5.1-15.6-3.8-23.5c1.6-9.1,6.4-17.3,12.1-24.5c4.5-5.5,9.6-10.5,15-15.1C52.1,1.5,52.6,1.5,53.1,1.4z"/>
	<path class="st1" d="M53,7.2c1.5,1,2.8,2.5,4.1,3.7c7.5,7.4,14.5,15.9,17.9,26c2.1,6.2,2.4,13,0.4,19.3
		C72,67.2,63.8,75.7,55.1,82.7c0-1.2,0-2.4,0-3.5c0.4-9.2,0.1-18.4,0.2-27.6c0-1.1,0.1-2.2-0.3-3.2c-0.4-1-1.5-1.3-2.4-1.6
		c0.1-13,0-26,0-39C52.7,7.6,52.9,7.3,53,7.2z"/>
	<path class="st2" d="M33.6,30.9c4.6-8.9,11.5-16.6,19-23.1c0,13,0,26,0,39c-1,0.3-2.1,0.7-2.4,1.8c-0.4,1.6-0.2,3.2-0.2,4.8
		c0,8.6,0.1,17.2-0.1,25.8c0,0.9,0,1.7-0.1,2.6c-2.2-1.4-4-3.3-6-5.1c-6.6-6.4-12.3-14.2-14.1-23.4C28.2,45.6,30,37.7,33.6,30.9z"/>
	<path class="st3" d="M112,110.8c4.1-3.5,9.8-4.1,15-3.8c-2.8,2.8-5.6,5.6-8.6,8.3c-1.1-0.6-2.7-0.9-3.6,0.1
		c-2.3,2.2-4.5,4.5-6.8,6.6C108.1,118,108.8,113.5,112,110.8z"/>
	<path class="st1" d="M127,106.9l0.2-0.2c0,4.7-0.2,9.9-3,13.9c-2.8,4-8,5.6-12.8,5.3c2.3-2.5,4.9-4.7,7.2-7.2
		c0.9-1,0.5-2.5-0.1-3.5C121.4,112.6,124.2,109.7,127,106.9z"/>
	<path class="st4" d="M51.3,110.2c3.3-0.9,7,1.7,7.2,5.1c0.5,3.3-2.3,6.6-5.6,6.6c-3.4,0.3-6.5-2.8-6.2-6.2
		C46.8,113.2,48.8,110.9,51.3,110.2z M12,133.6c1.9-0.2,3.8,0.5,5,2c2,1.9,2.1,5.4,0.3,7.5c-1.6,2.1-4.6,3-7,1.9
		c-2-0.9-3.5-2.8-3.6-5C6.3,136.9,8.9,133.8,12,133.6z M92.1,133.6c3.3-0.4,6.5,2.4,6.4,5.7c0.2,3-2.2,5.8-5.2,6.1
		c-2.9,0.4-6-1.7-6.5-4.7C85.9,137.4,88.6,133.7,92.1,133.6z M50.5,157c1.9-0.6,4.1-0.4,5.7,0.8c2.5,1.9,3.1,6,1,8.4
		c-2.3,3.2-7.7,2.9-9.7-0.5C45.5,162.8,47.1,158.2,50.5,157z M10.9,179.9c1.6-0.3,3.4-0.3,4.8,0.6c1.6,1.1,2.9,2.9,2.9,4.9
		c0.3,3.3-2.8,6.3-6,6.1c-3.2,0.1-6-2.9-5.8-6.1C6.8,183,8.5,180.7,10.9,179.9z M90.6,180c1.8-0.6,3.8-0.4,5.3,0.7
		c1.7,1.2,2.8,3.4,2.6,5.5c-0.2,3-3,5.5-6,5.3c-2.6,0.1-5-1.8-5.7-4.3C86,184.4,87.7,180.9,90.6,180z M51.3,202.8
		c2.7-0.6,5.8,0.9,6.8,3.6c1.1,2.7,0,6.3-2.8,7.6c-3,1.6-7,0.1-8.2-3.1C45.6,207.6,47.9,203.6,51.3,202.8z"/>
	<path class="st4" d="M44.3,124.2c-7.1,4.1-14.1,8.2-21.1,12.2c0.6,2.1,0.6,4.3,0,6.4c7.1,4.1,14.2,8.1,21.2,12.2
		c1.5-1.6,3.4-2.6,5.5-3.2c0-8.3,0.1-16.6,0-24.8c-1.6-0.5-3.3-1.2-4.6-2.3C45,124.5,44.7,123.9,44.3,124.2L44.3,124.2z"/>
	<path class="st4" d="M60.3,124c-1.5,1.4-3.2,2.4-5.2,2.9c0,8.3-0.1,16.6-0.1,24.9c2.1,0.5,4,1.6,5.5,3.2c7-4.1,14.1-8.1,21.1-12.1
		c-0.3-1.6-0.6-3.3-0.2-4.9c0.1-0.7,0.6-1.6-0.3-1.9C74.2,132.1,67.2,128,60.3,124z"/>
	<path class="st4" d="M15,150.5c0,8.1,0,16.2,0,24.4c2.2,0.5,4.1,1.7,5.6,3.3c7.1-4.1,14.1-8.2,21.2-12.3c-0.6-2.1-0.6-4.3,0-6.5
		c-7.1-4.1-14.1-8.1-21.2-12.2C19,148.8,17.1,149.9,15,150.5L15,150.5z"/>
	<path class="st4" d="M63.1,159.5c0.5,2.1,0.4,4.3,0,6.4c7.1,4.1,14.1,8.2,21.1,12.3c1.5-1.5,3.5-2.7,5.6-3.3c0-8.1,0-16.3,0-24.4
		c-2.1-0.6-4-1.7-5.5-3.2C77.2,151.4,70.2,155.4,63.1,159.5z"/>
	<path class="st4" d="M23.2,182.6c0.5,2.1,0.5,4.2,0,6.3c7.1,4.1,14.1,8.1,21.2,12.2c1.5-1.5,3.3-2.7,5.4-3.2c0-8.1,0.1-16.3,0-24.4
		c-2.1-0.5-4-1.7-5.5-3.2C37.3,174.4,30.2,178.5,23.2,182.6z"/>
	<path class="st4" d="M55,173.5c0.1,8.1,0,16.2,0,24.3c2.1,0.6,4,1.7,5.6,3.2c6.7-3.9,13.5-7.8,20.3-11.7c0.3-0.3,1.1-0.4,0.8-1
		c-0.4-1.9-0.4-3.9,0.1-5.8c-7-4.1-14.1-8.2-21.1-12.3C59,171.9,57.1,173,55,173.5z"/>
</g>
</svg>
