<svg width="277" height="170" viewBox="0 0 277 170" fill="none" xmlns="http://www.w3.org/2000/svg">
<rect x="16.918" y="16.115" width="32" height="14" rx="4" fill="#FF5C8A"/>
<rect x="64.918" y="16.115" width="195.549" height="14" rx="4" fill="#FF5C8A"/>
<g clip-path="url(#clip0_5079_32307)">
<rect x="16.918" y="45.115" width="73" height="82" rx="8" fill="#E1E9FE"/>
<path d="M46.8114 65.8032C47.309 63.4517 50.0588 60.7719 58.92 61.853C67.7812 62.934 70.9594 63.9436 73.2672 71.4554C75.7891 79.5492 78.7055 88.6162 74.3867 95.6149C70.0679 102.614 60.0671 105.344 52.7588 108.105C45.4506 110.866 33.1726 122.441 33.1726 122.441C33.1726 122.441 24.4163 68.4634 46.8114 65.8032Z" fill="#1C2D5E"/>
<path d="M35.3201 120.389C33.6041 123.184 31.8145 125.876 30.0319 128.613C28.2493 131.35 26.3855 134.008 24.5251 136.689C22.6648 139.369 20.7802 142.042 18.8068 144.66C16.8333 147.278 14.8451 149.875 12.7467 152.502L13.0543 152.051C12.6244 152.739 12.0961 153.36 11.4862 153.894C10.9847 154.316 10.4443 154.689 9.87223 155.009C8.95225 155.515 7.97309 155.905 6.95717 156.169C5.28224 156.606 3.5685 156.876 1.84067 156.977C-1.27106 157.167 -4.39269 157.123 -7.49778 156.845C-10.5218 156.588 -13.4981 156.197 -16.4626 155.736C-19.4271 155.274 -22.3628 154.705 -25.2671 153.97C-25.8799 153.819 -26.4074 153.43 -26.7336 152.89C-27.0599 152.349 -27.1583 151.702 -27.0071 151.089C-26.8786 150.552 -26.5657 150.077 -26.1229 149.747C-25.68 149.417 -25.1355 149.253 -24.5841 149.284C-21.7268 149.429 -18.8006 149.575 -15.9221 149.637C-13.0436 149.699 -10.1669 149.75 -7.32432 149.657C-4.57048 149.616 -1.82202 149.401 0.904591 149.012C2.10515 148.847 3.28659 148.565 4.43188 148.168C4.82653 148.03 5.20585 147.851 5.56384 147.634C5.63194 147.597 5.69045 147.545 5.73473 147.481C5.73473 147.481 5.65637 147.493 5.57682 147.643L5.8844 147.193C7.77009 144.601 9.54382 142.026 11.3311 139.391L16.6529 131.379L27.1874 115.247C27.8655 114.173 28.9423 113.413 30.1807 113.134C31.4192 112.854 32.7179 113.078 33.7912 113.757C34.8645 114.435 35.6245 115.511 35.9039 116.75C36.1833 117.988 35.9593 119.287 35.2812 120.36L35.3201 120.389Z" fill="#FF8B7B"/>
<path d="M38.3824 111.169C32.0398 108.83 28.2886 112.856 24.5139 115.713C24.1225 121.936 32.5173 136.421 32.5173 136.421C32.5173 136.421 49.9298 115.336 38.3824 111.169Z" fill="#FF5C8A"/>
<path d="M28.2752 117.004C27.8708 123.79 27.5545 142.987 31.2127 172.499L70.9509 174.029C70.8988 159.513 69.689 145.576 76.6142 117.986C76.8055 117.226 76.8386 116.433 76.7114 115.659C76.5843 114.885 76.2996 114.145 75.8751 113.485C75.4505 112.825 74.8951 112.26 74.2431 111.823C73.5912 111.386 72.8566 111.088 72.0848 110.947C69.4666 110.457 66.2148 109.964 62.7876 109.669C57.0551 109.043 51.2855 108.823 45.5219 109.011C41.7942 109.213 37.8006 109.665 34.7511 110.063C33.0352 110.292 31.452 111.109 30.2711 112.375C29.0902 113.641 28.3849 115.277 28.2752 117.004Z" fill="#FF5C8A"/>
<path d="M45.5245 108.988L62.7902 109.647C62.7902 109.647 60.8148 115.954 48.6447 122.452C41.997 113.483 45.5245 108.988 45.5245 108.988Z" fill="white"/>
<path d="M61.8269 90.1392C60.5175 95.6598 59.054 105.764 62.7905 109.646C59.2535 113.536 54.8481 116.536 49.9327 118.402C48.3968 117.397 47.1711 115.983 46.3926 114.32C45.6142 112.658 45.3137 110.811 45.5248 108.987C51.776 107.747 51.7943 103.149 50.8908 98.7944L61.8269 90.1392Z" fill="#FF8B7B"/>
<path opacity="0.2" d="M57.3601 93.6745L50.8814 98.7817C51.1116 99.7962 51.2503 100.829 51.2956 101.869C53.6489 101.617 57.0282 99.1474 57.3753 96.6755C57.554 95.6827 57.5488 94.6655 57.3601 93.6745Z" fill="#1C2D5E"/>
<path d="M68.0722 80.1804C65.545 89.1286 64.6659 92.9654 59.0806 96.6253C50.6685 102.143 40.2327 97.0893 40.0205 87.5596C39.8358 78.992 43.9883 65.7931 53.6331 64.1033C55.7648 63.7142 57.9607 63.8778 60.0113 64.5784C62.0619 65.2791 63.8988 66.4934 65.3467 68.1056C66.7947 69.7178 67.8054 71.6741 68.2826 73.7879C68.7597 75.9017 68.6872 78.1025 68.0722 80.1804Z" fill="#FF8B7B"/>
<path d="M62.4119 71.789C60.5907 77.087 62.5621 84.3629 65.3349 84.9507C68.1077 85.5386 72.1696 75.4131 72.1696 75.4131L62.4119 71.789Z" fill="#1C2D5E"/>
<path d="M47.4576 66.1083C52.6081 71.4305 69.0741 81.0487 70.4609 75.6695C71.8477 70.2902 65.3066 64.5118 59.8585 63.4927C54.4104 62.4736 49.6144 63.825 47.4576 66.1083Z" fill="#1C2D5E"/>
<path d="M54.277 80.0797C54.1373 80.8262 53.6035 81.3375 53.1175 81.2235C52.6314 81.1095 52.3763 80.4391 52.5361 79.708C52.696 78.9768 53.2096 78.4502 53.6977 78.5531C54.1858 78.6559 54.4389 79.3374 54.277 80.0797Z" fill="#1C2D5E"/>
<path d="M45.9274 78.27C46.0878 77.5298 45.826 76.8448 45.3427 76.7401C44.8594 76.6354 44.3375 77.1506 44.1771 77.8908C44.0167 78.6311 44.2785 79.3161 44.7618 79.4208C45.2452 79.5255 45.767 79.0103 45.9274 78.27Z" fill="#1C2D5E"/>
<path d="M45.5538 76.8334L43.8887 75.9338C43.8887 75.9338 44.5021 77.5246 45.5538 76.8334Z" fill="#1C2D5E"/>
<path d="M47.8634 80.022C46.8413 81.5628 45.6108 82.9546 44.207 84.158C44.5255 84.5104 44.9171 84.7889 45.3545 84.9743C45.7918 85.1597 46.2643 85.2474 46.7391 85.2313L47.8634 80.022Z" fill="#FF5652"/>
<path d="M48.8518 88.4858C48.4274 88.4695 48.0051 88.4175 47.5894 88.3303C47.5342 88.3145 47.4865 88.2792 47.4553 88.231C47.424 88.1827 47.4113 88.1248 47.4194 88.0679C47.4247 88.0392 47.4359 88.0118 47.4522 87.9875C47.4684 87.9631 47.4895 87.9424 47.514 87.9265C47.5386 87.9106 47.5661 87.8998 47.595 87.8949C47.6238 87.89 47.6534 87.891 47.6818 87.8979C48.5957 88.1169 49.5482 88.1176 50.4624 87.8999C51.3765 87.6823 52.2266 87.2524 52.9437 86.6452C52.9642 86.6248 52.9885 86.6086 53.0152 86.5976C53.0419 86.5866 53.0706 86.581 53.0995 86.581C53.1284 86.5811 53.157 86.5868 53.1836 86.5979C53.2103 86.609 53.2346 86.6253 53.255 86.6457C53.2754 86.6662 53.2915 86.6905 53.3025 86.7172C53.3135 86.7439 53.3192 86.7726 53.3191 86.8015C53.3191 86.8304 53.3133 86.859 53.3022 86.8857C53.2911 86.9123 53.2748 86.9366 53.2544 86.957C52.0434 88.0229 50.4628 88.5718 48.8518 88.4858Z" fill="#1C2D5E"/>
<path d="M69.1282 85.3716C68.7568 86.1818 68.2281 86.91 67.5727 87.514C66.9173 88.1179 66.1484 88.5855 65.3106 88.8894C63.0731 89.6932 61.7793 87.733 62.2609 85.5284C62.6897 83.5446 64.3797 80.7358 66.7046 80.8824C67.2103 80.9224 67.6979 81.0885 68.123 81.3654C68.548 81.6422 68.897 82.0212 69.138 82.4676C69.379 82.9139 69.5043 83.4136 69.5026 83.9208C69.5009 84.4281 69.3722 84.9269 69.1282 85.3716Z" fill="#FF8B7B"/>
<path d="M58.1128 76.8294C58.0527 76.8256 57.9942 76.8081 57.9419 76.7784C57.8895 76.7486 57.8446 76.7073 57.8106 76.6576C57.4932 76.1981 57.0712 75.8206 56.5794 75.5562C56.0876 75.2918 55.5399 75.148 54.9817 75.1367C54.8739 75.1251 54.774 75.0753 54.6998 74.9963C54.6256 74.9174 54.5822 74.8144 54.5774 74.7062C54.5725 74.598 54.6066 74.4916 54.6734 74.4063C54.7402 74.321 54.8354 74.2625 54.9416 74.2413C55.645 74.2517 56.336 74.4285 56.958 74.7573C57.5799 75.0861 58.1152 75.5575 58.5198 76.133C58.5539 76.1803 58.578 76.234 58.5907 76.2908C58.6034 76.3477 58.6044 76.4066 58.5937 76.4639C58.583 76.5212 58.5608 76.5757 58.5284 76.6241C58.496 76.6726 58.4541 76.714 58.4052 76.7457C58.3644 76.7782 58.3175 76.8023 58.2674 76.8167C58.2172 76.8311 58.1647 76.8354 58.1128 76.8294Z" fill="#1C2D5E"/>
<path d="M44.5969 73.5756C44.5443 73.5557 44.4963 73.5252 44.4561 73.4859C44.4158 73.4466 44.3841 73.3995 44.3629 73.3473C44.3381 73.2947 44.3243 73.2376 44.3222 73.1794C44.3202 73.1213 44.3299 73.0634 44.3508 73.0091C44.3717 72.9548 44.4034 72.9053 44.444 72.8637C44.4846 72.822 44.5332 72.7889 44.5869 72.7665C45.2226 72.4633 45.9219 72.3172 46.6259 72.3405C47.3299 72.3638 48.018 72.5559 48.6322 72.9006C48.7303 72.9648 48.7989 73.0654 48.8228 73.1801C48.8468 73.2949 48.8242 73.4145 48.7599 73.5126C48.729 73.5623 48.6885 73.6054 48.6408 73.6394C48.5931 73.6734 48.5391 73.6975 48.4819 73.7104C48.4248 73.7233 48.3657 73.7248 48.308 73.7146C48.2503 73.7045 48.1952 73.683 48.1459 73.6514C47.6576 73.3825 47.1118 73.2349 46.5545 73.221C45.9973 73.207 45.4448 73.3272 44.9437 73.5713C44.8333 73.6186 44.7085 73.6202 44.5969 73.5756Z" fill="#1C2D5E"/>
<path d="M53.9094 78.593L52.2422 77.7046C52.2422 77.7046 52.8493 79.3287 53.9094 78.593Z" fill="#1C2D5E"/>
<path d="M76.5261 115.732C77.213 116.622 78.0684 117.658 78.8584 118.613C79.6484 119.568 80.5122 120.56 81.3732 121.505C83.0861 123.382 84.8144 125.239 86.6477 126.966C90.1082 130.389 94.0544 133.284 98.3591 135.556C98.6098 135.696 98.88 135.792 99.1349 135.909L99.5172 136.084C99.6398 136.107 99.5172 136.084 99.5172 136.084L99.3613 136.055C98.9156 135.972 98.711 136.141 98.8419 136.12C99.562 135.807 100.214 135.358 100.762 134.795C102.485 133.099 104.044 131.244 105.419 129.255C106.95 127.235 108.378 125.023 109.753 122.79C111.128 120.556 112.531 118.293 113.851 116.049C114.145 115.535 114.621 115.15 115.185 114.968C115.749 114.786 116.36 114.821 116.9 115.066C117.439 115.312 117.868 115.749 118.102 116.293C118.336 116.838 118.359 117.45 118.165 118.01C116.399 123.251 114.183 128.331 111.543 133.191C110.142 135.793 108.463 138.235 106.537 140.476C105.304 141.927 103.788 143.111 102.081 143.955C100.692 144.593 99.1427 144.793 97.6374 144.531C97.4155 144.507 97.1958 144.466 96.9801 144.408L96.469 144.243L95.9195 144.037C95.5644 143.901 95.1828 143.784 94.8429 143.628C92.0828 142.483 89.4522 141.047 86.9955 139.346C84.6187 137.726 82.3596 135.939 80.2352 134C78.1254 132.116 76.1156 130.124 74.2141 128.03C73.263 126.991 72.3428 125.931 71.4534 124.85C70.5081 123.739 69.7105 122.702 68.7943 121.435C68.1046 120.415 67.8341 119.168 68.039 117.953C68.2438 116.739 68.9082 115.65 69.8945 114.912C70.8808 114.174 72.1132 113.844 73.3362 113.99C74.5592 114.137 75.679 114.748 76.4634 115.698L76.5261 115.732Z" fill="#FF8B7B"/>
<path d="M71.6634 110.845C78.4211 111.706 80.3111 115.657 82.3627 119.915C79.8864 125.633 70.7335 134.495 70.7335 134.495C70.7335 134.495 59.4864 109.305 71.6634 110.845Z" fill="#FF5C8A"/>
</g>
<rect x="97.918" y="45.115" width="121.804" height="12" rx="4" fill="#FF5C8A"/>
<rect x="97.918" y="65.115" width="73.8722" height="12" rx="4" fill="#FF5C8A"/>
<rect x="97.918" y="85.115" width="93.6621" height="12" rx="4" fill="#FF5C8A"/>
<rect x="97.918" y="105.115" width="121.804" height="12" rx="4" fill="#FF5C8A"/>
<rect x="16.918" y="135.115" width="121.804" height="14" rx="4" fill="#FF5C8A"/>
<rect x="191.918" y="135.115" width="4" height="24" rx="2" fill="#FF5C8A"/>
<rect x="196.918" y="135.115" width="4" height="24" rx="2" fill="#FF5C8A"/>
<rect x="201.918" y="135.115" width="4" height="24" rx="2" fill="#FF5C8A"/>
<rect x="206.918" y="135.115" width="4" height="24" rx="2" fill="#FF5C8A"/>
<rect x="211.918" y="135.115" width="4" height="24" rx="2" fill="#FF5C8A"/>
<rect x="216.918" y="135.115" width="4" height="24" rx="2" fill="#FF5C8A"/>
<rect x="221.918" y="135.115" width="4" height="24" rx="2" fill="#FF5C8A"/>
<rect x="226.918" y="135.115" width="4" height="24" rx="2" fill="#FF5C8A"/>
<rect x="231.918" y="135.115" width="4" height="24" rx="2" fill="#FF5C8A"/>
<rect x="236.918" y="135.115" width="4" height="24" rx="2" fill="#FF5C8A"/>
<rect x="241.918" y="135.115" width="4" height="24" rx="2" fill="#FF5C8A"/>
<rect x="246.918" y="135.115" width="4" height="24" rx="2" fill="#FF5C8A"/>
<rect x="251.918" y="135.115" width="4" height="24" rx="2" fill="#FF5C8A"/>
<rect x="256.918" y="135.115" width="4" height="24" rx="2" fill="#FF5C8A"/>
<rect x="1.91797" y="1.11499" width="274" height="167" rx="7" stroke="#FF5C8A" stroke-width="2"/>
<defs>
<clipPath id="clip0_5079_32307">
<rect x="16.918" y="45.115" width="73" height="82" rx="8" fill="white"/>
</clipPath>
</defs>
</svg>
