<svg width="105" height="78" viewBox="0 0 105 78" fill="none" xmlns="http://www.w3.org/2000/svg">
<path d="M100.875 58.5496H51.4532C50.8232 58.5496 50.3125 59.0603 50.3125 59.6903V65.6219C50.3125 66.2519 50.8232 66.7626 51.4532 66.7626H100.875C101.505 66.7626 102.016 66.2519 102.016 65.6219V59.6903C102.016 59.0603 101.505 58.5496 100.875 58.5496Z" fill="#FF5C8A"/>
<path opacity="0.5" d="M102.033 59.6902V65.6049C102.033 65.7554 102.004 65.9044 101.946 66.0434C101.888 66.1823 101.803 66.3085 101.696 66.4145C101.589 66.5206 101.463 66.6044 101.323 66.6612C101.184 66.7181 101.035 66.7467 100.884 66.7456H51.462C51.3119 66.7467 51.1631 66.718 51.0242 66.6611C50.8853 66.6042 50.7591 66.5202 50.6529 66.414C50.5468 66.3079 50.4628 66.1817 50.4059 66.0428C50.3489 65.9039 50.3202 65.755 50.3213 65.6049V59.6902C50.3202 59.54 50.3489 59.3912 50.4059 59.2523C50.4628 59.1134 50.5468 58.9872 50.6529 58.881C50.7591 58.7749 50.8853 58.6909 51.0242 58.634C51.1631 58.577 51.3119 58.5483 51.462 58.5494H100.876C101.027 58.5472 101.177 58.575 101.317 58.6314C101.458 58.6877 101.586 58.7713 101.693 58.8775C101.801 58.9836 101.887 59.1102 101.945 59.2497C102.003 59.3892 102.033 59.5389 102.033 59.6902V59.6902Z" fill="white"/>
<path opacity="0.2" d="M95.1891 66.2472C95.0785 66.2472 94.9723 66.2038 94.8933 66.1264C94.8143 66.049 94.7688 65.9437 94.7666 65.8331V59.479C94.7688 59.3684 94.8143 59.2631 94.8933 59.1857C94.9723 59.1083 95.0785 59.0649 95.1891 59.0649V59.0649C95.2989 59.0649 95.4042 59.1086 95.4819 59.1862C95.5595 59.2639 95.6031 59.3692 95.6031 59.479V65.8331C95.6031 65.9429 95.5595 66.0482 95.4819 66.1259C95.4042 66.2035 95.2989 66.2472 95.1891 66.2472Z" fill="black"/>
<path opacity="0.2" d="M89.2828 66.2472C89.1722 66.2472 89.066 66.2038 88.987 66.1264C88.908 66.049 88.8626 65.9437 88.8604 65.8331V59.479C88.8626 59.3684 88.908 59.2631 88.987 59.1857C89.066 59.1083 89.1722 59.0649 89.2828 59.0649V59.0649C89.3372 59.0649 89.391 59.0756 89.4413 59.0965C89.4915 59.1173 89.5372 59.1478 89.5756 59.1862C89.614 59.2247 89.6445 59.2703 89.6654 59.3205C89.6862 59.3708 89.6969 59.4246 89.6969 59.479V65.8331C89.6969 65.8875 89.6862 65.9413 89.6654 65.9916C89.6445 66.0418 89.614 66.0874 89.5756 66.1259C89.5372 66.1643 89.4915 66.1948 89.4413 66.2157C89.391 66.2365 89.3372 66.2472 89.2828 66.2472Z" fill="black"/>
<path opacity="0.2" d="M82.7344 66.2472C82.6245 66.2472 82.5192 66.2035 82.4416 66.1259C82.3639 66.0482 82.3203 65.9429 82.3203 65.8331V59.479C82.3203 59.3692 82.3639 59.2639 82.4416 59.1862C82.5192 59.1086 82.6245 59.0649 82.7344 59.0649C82.845 59.0649 82.9512 59.1083 83.0301 59.1857C83.1091 59.2631 83.1546 59.3684 83.1568 59.479V65.8331C83.1546 65.9437 83.1091 66.049 83.0301 66.1264C82.9512 66.2038 82.845 66.2472 82.7344 66.2472V66.2472Z" fill="black"/>
<path opacity="0.2" d="M100.03 66.2473C99.9204 66.2473 99.8151 66.2036 99.7375 66.126C99.6598 66.0483 99.6162 65.943 99.6162 65.8332V59.4791C99.6162 59.3693 99.6598 59.2639 99.7375 59.1863C99.8151 59.1087 99.9204 59.065 100.03 59.065C100.085 59.0639 100.14 59.0738 100.191 59.0941C100.242 59.1144 100.289 59.1447 100.328 59.1833C100.368 59.2218 100.399 59.2678 100.42 59.3186C100.442 59.3694 100.453 59.424 100.453 59.4791V65.8332C100.453 65.8883 100.442 65.9429 100.42 65.9936C100.399 66.0444 100.368 66.0905 100.328 66.129C100.289 66.1676 100.242 66.1979 100.191 66.2182C100.14 66.2385 100.085 66.2484 100.03 66.2473Z" fill="black"/>
<path opacity="0.2" d="M57.1481 59.065C57.2579 59.065 57.3632 59.1087 57.4408 59.1863C57.5185 59.2639 57.5621 59.3693 57.5621 59.4791V65.8332C57.5621 65.943 57.5185 66.0483 57.4408 66.126C57.3632 66.2036 57.2579 66.2473 57.1481 66.2473C57.093 66.2484 57.0382 66.2385 56.987 66.2182C56.9358 66.1979 56.8892 66.1676 56.8498 66.129C56.8105 66.0905 56.7792 66.0444 56.7579 65.9936C56.7365 65.9429 56.7256 65.8883 56.7256 65.8332V59.4791C56.7256 59.424 56.7365 59.3694 56.7579 59.3186C56.7792 59.2678 56.8105 59.2218 56.8498 59.1833C56.8892 59.1447 56.9358 59.1144 56.987 59.0941C57.0382 59.0738 57.093 59.0639 57.1481 59.065V59.065Z" fill="black"/>
<path opacity="0.2" d="M63.0459 59.065C63.101 59.0639 63.1557 59.0738 63.2069 59.0941C63.2581 59.1144 63.3048 59.1447 63.3441 59.1833C63.3835 59.2218 63.4147 59.2678 63.436 59.3186C63.4574 59.3694 63.4684 59.424 63.4684 59.4791V65.8332C63.4684 65.8883 63.4574 65.9429 63.436 65.9936C63.4147 66.0444 63.3835 66.0905 63.3441 66.129C63.3048 66.1676 63.2581 66.1979 63.2069 66.2182C63.1557 66.2385 63.101 66.2484 63.0459 66.2473V66.2473C62.9361 66.2473 62.8308 66.2036 62.7531 66.126C62.6755 66.0483 62.6318 65.943 62.6318 65.8332V59.4791C62.6318 59.3693 62.6755 59.2639 62.7531 59.1863C62.8308 59.1087 62.9361 59.065 63.0459 59.065Z" fill="black"/>
<path opacity="0.2" d="M69.5947 59.0649C69.7053 59.0649 69.8115 59.1083 69.8905 59.1857C69.9695 59.2631 70.015 59.3684 70.0172 59.479V65.8331C70.015 65.9437 69.9695 66.049 69.8905 66.1264C69.8115 66.2038 69.7053 66.2472 69.5947 66.2472V66.2472C69.4849 66.2472 69.3796 66.2035 69.3019 66.1259C69.2243 66.0482 69.1807 65.9429 69.1807 65.8331V59.479C69.1807 59.3692 69.2243 59.2639 69.3019 59.1862C69.3796 59.1086 69.4849 59.0649 69.5947 59.0649Z" fill="black"/>
<path opacity="0.2" d="M52.2985 59.0649C52.4083 59.0649 52.5136 59.1086 52.5912 59.1862C52.6689 59.2639 52.7125 59.3692 52.7125 59.479V65.8331C52.7125 65.9429 52.6689 66.0482 52.5912 66.1259C52.5136 66.2035 52.4083 66.2472 52.2985 66.2472C52.1879 66.2472 52.0817 66.2038 52.0027 66.1264C51.9237 66.049 51.8782 65.9437 51.876 65.8331V59.479C51.8782 59.3684 51.9237 59.2631 52.0027 59.1857C52.0817 59.1083 52.1879 59.0649 52.2985 59.0649V59.0649Z" fill="black"/>
<path opacity="0.2" d="M76.1686 66.2473C76.1135 66.2484 76.0588 66.2385 76.0075 66.2182C75.9563 66.1979 75.9097 66.1676 75.8703 66.129C75.831 66.0905 75.7997 66.0444 75.7784 65.9936C75.7571 65.9429 75.7461 65.8883 75.7461 65.8332V59.4791C75.7461 59.424 75.7571 59.3694 75.7784 59.3186C75.7997 59.2678 75.831 59.2218 75.8703 59.1833C75.9097 59.1447 75.9563 59.1144 76.0075 59.0941C76.0588 59.0738 76.1135 59.0639 76.1686 59.065C76.2784 59.065 76.3837 59.1087 76.4613 59.1863C76.539 59.2639 76.5826 59.3693 76.5826 59.4791V65.8332C76.5826 65.943 76.539 66.0483 76.4613 66.126C76.3837 66.2036 76.2784 66.2473 76.1686 66.2473Z" fill="black"/>
<path d="M102.363 50.218H52.9405C52.3105 50.218 51.7998 50.7287 51.7998 51.3587V57.2904C51.7998 57.9204 52.3105 58.4311 52.9405 58.4311H102.363C102.993 58.4311 103.503 57.9204 103.503 57.2904V51.3587C103.503 50.7287 102.993 50.218 102.363 50.218Z" fill="#FF5C8A"/>
<path opacity="0.5" d="M102.363 50.218H52.9493C52.3193 50.218 51.8086 50.7287 51.8086 51.3587V57.2904C51.8086 57.9204 52.3193 58.4311 52.9493 58.4311H102.363C102.993 58.4311 103.504 57.9204 103.504 57.2904V51.3587C103.504 50.7287 102.993 50.218 102.363 50.218Z" fill="white"/>
<path opacity="0.2" d="M96.6764 57.9159C96.5658 57.9159 96.4596 57.8725 96.3806 57.7951C96.3016 57.7177 96.2561 57.6124 96.2539 57.5018V51.1477C96.2561 51.0371 96.3016 50.9318 96.3806 50.8544C96.4596 50.777 96.5658 50.7336 96.6764 50.7336V50.7336C96.7862 50.7336 96.8915 50.7773 96.9692 50.8549C97.0468 50.9326 97.0904 51.0379 97.0904 51.1477V57.5018C97.0904 57.6116 97.0468 57.7169 96.9692 57.7946C96.8915 57.8722 96.7862 57.9159 96.6764 57.9159Z" fill="black"/>
<path opacity="0.2" d="M90.7692 57.9159C90.6586 57.9159 90.5524 57.8725 90.4734 57.7951C90.3944 57.7177 90.3489 57.6124 90.3467 57.5018V51.1477C90.3489 51.0371 90.3944 50.9318 90.4734 50.8544C90.5524 50.777 90.6586 50.7336 90.7692 50.7336V50.7336C90.8235 50.7336 90.8774 50.7443 90.9276 50.7652C90.9778 50.786 91.0235 50.8165 91.0619 50.8549C91.1004 50.8934 91.1309 50.939 91.1517 50.9892C91.1725 51.0395 91.1832 51.0933 91.1832 51.1477V57.5018C91.1832 57.5562 91.1725 57.61 91.1517 57.6603C91.1309 57.7105 91.1004 57.7561 91.0619 57.7946C91.0235 57.833 90.9778 57.8635 90.9276 57.8844C90.8774 57.9052 90.8235 57.9159 90.7692 57.9159Z" fill="black"/>
<path opacity="0.2" d="M84.2207 57.9159C84.1109 57.9159 84.0056 57.8722 83.9279 57.7946C83.8503 57.7169 83.8066 57.6116 83.8066 57.5018V51.1477C83.8066 51.0379 83.8503 50.9326 83.9279 50.8549C84.0056 50.7773 84.1109 50.7336 84.2207 50.7336C84.3313 50.7336 84.4375 50.777 84.5165 50.8544C84.5955 50.9318 84.641 51.0371 84.6432 51.1477V57.5018C84.641 57.6124 84.5955 57.7177 84.5165 57.7951C84.4375 57.8725 84.3313 57.9159 84.2207 57.9159V57.9159Z" fill="black"/>
<path opacity="0.2" d="M101.518 57.9157C101.408 57.9157 101.302 57.8721 101.225 57.7944C101.147 57.7168 101.104 57.6115 101.104 57.5017V51.1475C101.104 51.0377 101.147 50.9324 101.225 50.8548C101.302 50.7771 101.408 50.7335 101.518 50.7335C101.573 50.7324 101.627 50.7422 101.679 50.7625C101.73 50.7828 101.776 50.8132 101.816 50.8517C101.855 50.8903 101.886 50.9363 101.908 50.9871C101.929 51.0379 101.94 51.0924 101.94 51.1475V57.5017C101.94 57.5567 101.929 57.6113 101.908 57.6621C101.886 57.7129 101.855 57.7589 101.816 57.7975C101.776 57.836 101.73 57.8663 101.679 57.8866C101.627 57.907 101.573 57.9168 101.518 57.9157V57.9157Z" fill="black"/>
<path opacity="0.2" d="M58.6354 50.7335C58.7452 50.7335 58.8505 50.7771 58.9281 50.8548C59.0058 50.9324 59.0494 51.0377 59.0494 51.1475V57.5017C59.0494 57.6115 59.0058 57.7168 58.9281 57.7944C58.8505 57.8721 58.7452 57.9157 58.6354 57.9157C58.5803 57.9168 58.5256 57.907 58.4743 57.8866C58.4231 57.8663 58.3765 57.836 58.3371 57.7975C58.2978 57.7589 58.2665 57.7129 58.2452 57.6621C58.2239 57.6113 58.2129 57.5567 58.2129 57.5017V51.1475C58.2129 51.0924 58.2239 51.0379 58.2452 50.9871C58.2665 50.9363 58.2978 50.8903 58.3371 50.8517C58.3765 50.8132 58.4231 50.7828 58.4743 50.7625C58.5256 50.7422 58.5803 50.7324 58.6354 50.7335V50.7335Z" fill="black"/>
<path opacity="0.2" d="M64.5332 50.7335C64.5882 50.7324 64.643 50.7422 64.6942 50.7625C64.7454 50.7828 64.7921 50.8132 64.8314 50.8517C64.8708 50.8903 64.902 50.9363 64.9234 50.9871C64.9447 51.0379 64.9557 51.0924 64.9557 51.1475V57.5017C64.9557 57.5567 64.9447 57.6113 64.9234 57.6621C64.902 57.7129 64.8708 57.7589 64.8314 57.7975C64.7921 57.836 64.7454 57.8663 64.6942 57.8866C64.643 57.907 64.5882 57.9168 64.5332 57.9157V57.9157C64.4234 57.9157 64.318 57.8721 64.2404 57.7944C64.1628 57.7168 64.1191 57.6115 64.1191 57.5017V51.1475C64.1191 51.0377 64.1628 50.9324 64.2404 50.8548C64.318 50.7771 64.4234 50.7335 64.5332 50.7335Z" fill="black"/>
<path opacity="0.2" d="M71.082 50.7336C71.1926 50.7336 71.2988 50.777 71.3778 50.8544C71.4568 50.9318 71.5023 51.0371 71.5045 51.1477V57.5018C71.5023 57.6124 71.4568 57.7177 71.3778 57.7951C71.2988 57.8725 71.1926 57.9159 71.082 57.9159V57.9159C70.9722 57.9159 70.8669 57.8722 70.7892 57.7946C70.7116 57.7169 70.668 57.6116 70.668 57.5018V51.1477C70.668 51.0379 70.7116 50.9326 70.7892 50.8549C70.8669 50.7773 70.9722 50.7336 71.082 50.7336Z" fill="black"/>
<path opacity="0.2" d="M53.7858 50.7336C53.8956 50.7336 54.0009 50.7773 54.0785 50.8549C54.1562 50.9326 54.1998 51.0379 54.1998 51.1477V57.5018C54.1998 57.6116 54.1562 57.7169 54.0785 57.7946C54.0009 57.8722 53.8956 57.9159 53.7858 57.9159C53.6752 57.9159 53.569 57.8725 53.49 57.7951C53.411 57.7177 53.3655 57.6124 53.3633 57.5018V51.1477C53.3655 51.0371 53.411 50.9318 53.49 50.8544C53.569 50.777 53.6752 50.7336 53.7858 50.7336V50.7336Z" fill="black"/>
<path opacity="0.2" d="M77.6559 57.9157C77.6008 57.9168 77.5461 57.907 77.4948 57.8866C77.4436 57.8663 77.397 57.836 77.3576 57.7975C77.3183 57.7589 77.287 57.7129 77.2657 57.6621C77.2444 57.6113 77.2334 57.5567 77.2334 57.5017V51.1475C77.2334 51.0924 77.2444 51.0379 77.2657 50.9871C77.287 50.9363 77.3183 50.8903 77.3576 50.8517C77.397 50.8132 77.4436 50.7828 77.4948 50.7625C77.5461 50.7422 77.6008 50.7324 77.6559 50.7335C77.7103 50.7335 77.7641 50.7442 77.8143 50.765C77.8646 50.7858 77.9102 50.8163 77.9486 50.8548C77.9871 50.8932 78.0176 50.9388 78.0384 50.9891C78.0592 51.0393 78.0699 51.0931 78.0699 51.1475V57.5017C78.0699 57.556 78.0592 57.6099 78.0384 57.6601C78.0176 57.7103 77.9871 57.756 77.9486 57.7944C77.9102 57.8329 77.8646 57.8634 77.8143 57.8842C77.7641 57.905 77.7103 57.9157 77.6559 57.9157Z" fill="black"/>
<path d="M103.85 41.8867H54.4278C53.7978 41.8867 53.2871 42.3974 53.2871 43.0274V48.9591C53.2871 49.5891 53.7978 50.0998 54.4278 50.0998H103.85C104.48 50.0998 104.991 49.5891 104.991 48.9591V43.0274C104.991 42.3974 104.48 41.8867 103.85 41.8867Z" fill="#FF5C8A"/>
<path opacity="0.5" d="M103.849 41.8867H54.4356C53.8056 41.8867 53.2949 42.3974 53.2949 43.0274V48.9591C53.2949 49.5891 53.8056 50.0998 54.4356 50.0998H103.849C104.479 50.0998 104.99 49.5891 104.99 48.9591V43.0274C104.99 42.3974 104.479 41.8867 103.849 41.8867Z" fill="white"/>
<path opacity="0.2" d="M98.1627 49.6181C98.0513 49.6159 97.9451 49.5707 97.8664 49.492C97.7876 49.4132 97.7424 49.307 97.7402 49.1956V42.8584C97.7424 42.7478 97.7879 42.6425 97.8669 42.5651C97.9459 42.4877 98.0521 42.4443 98.1627 42.4443V42.4443C98.2725 42.4443 98.3778 42.4879 98.4555 42.5656C98.5331 42.6432 98.5768 42.7486 98.5768 42.8584V49.2125C98.5725 49.3202 98.5272 49.4221 98.4502 49.4975C98.3733 49.5729 98.2704 49.616 98.1627 49.6181Z" fill="black"/>
<path opacity="0.2" d="M92.2565 49.6181C92.1451 49.6159 92.0389 49.5707 91.9601 49.492C91.8814 49.4132 91.8361 49.307 91.834 49.1956V42.8584C91.8362 42.7478 91.8817 42.6425 91.9607 42.5651C92.0397 42.4877 92.1459 42.4443 92.2565 42.4443V42.4443C92.3663 42.4443 92.4716 42.4879 92.5492 42.5656C92.6269 42.6432 92.6705 42.7486 92.6705 42.8584V49.2125C92.6662 49.3202 92.621 49.4221 92.544 49.4975C92.467 49.5729 92.3642 49.616 92.2565 49.6181Z" fill="black"/>
<path opacity="0.2" d="M85.708 49.6181C85.5974 49.6159 85.4921 49.5704 85.4147 49.4914C85.3373 49.4124 85.2939 49.3062 85.2939 49.1956V42.8584C85.2939 42.7486 85.3376 42.6432 85.4152 42.5656C85.4929 42.4879 85.5982 42.4443 85.708 42.4443C85.8186 42.4443 85.9248 42.4877 86.0038 42.5651C86.0828 42.6425 86.1282 42.7478 86.1305 42.8584V49.2125C86.1241 49.3209 86.077 49.4229 85.9987 49.4981C85.9204 49.5733 85.8165 49.6162 85.708 49.6181V49.6181Z" fill="black"/>
<path opacity="0.2" d="M103.005 49.6182C102.894 49.616 102.789 49.5705 102.712 49.4915C102.634 49.4125 102.591 49.3063 102.591 49.1957V42.8584C102.591 42.7486 102.634 42.6433 102.712 42.5657C102.79 42.488 102.895 42.4444 103.005 42.4444C103.06 42.4433 103.115 42.4532 103.166 42.4735C103.217 42.4938 103.264 42.5241 103.303 42.5627C103.342 42.6012 103.374 42.6472 103.395 42.698C103.416 42.7488 103.427 42.8034 103.427 42.8584V49.2126C103.423 49.3217 103.377 49.4249 103.298 49.5005C103.219 49.5761 103.114 49.6183 103.005 49.6182Z" fill="black"/>
<path opacity="0.2" d="M60.1229 42.4022C60.2327 42.4022 60.338 42.4459 60.4157 42.5235C60.4933 42.6012 60.5369 42.7065 60.5369 42.8163V49.1704C60.537 49.281 60.4936 49.3872 60.4162 49.4662C60.3388 49.5452 60.2335 49.5907 60.1229 49.5929C60.0109 49.5929 59.9034 49.5484 59.8242 49.4692C59.7449 49.3899 59.7004 49.2825 59.7004 49.1704V42.8585C59.6944 42.8 59.7009 42.7408 59.7196 42.685C59.7382 42.6292 59.7685 42.578 59.8085 42.5349C59.8485 42.4917 59.8972 42.4575 59.9514 42.4346C60.0056 42.4118 60.0641 42.4007 60.1229 42.4022V42.4022Z" fill="black"/>
<path opacity="0.2" d="M66.0207 42.4022C66.0758 42.4011 66.1305 42.4109 66.1817 42.4312C66.2329 42.4516 66.2796 42.4819 66.3189 42.5204C66.3583 42.559 66.3895 42.605 66.4109 42.6558C66.4322 42.7066 66.4432 42.7611 66.4432 42.8162V49.1704C66.4432 49.2824 66.3987 49.3899 66.3194 49.4691C66.2402 49.5484 66.1327 49.5929 66.0207 49.5929C65.9101 49.5907 65.8048 49.5452 65.7274 49.4662C65.65 49.3872 65.6066 49.281 65.6067 49.1704V42.8585C65.6007 42.8007 65.607 42.7422 65.6252 42.687C65.6433 42.6318 65.6729 42.581 65.7119 42.538C65.751 42.495 65.7986 42.4606 65.8518 42.4372C65.905 42.4138 65.9626 42.4019 66.0207 42.4022V42.4022Z" fill="black"/>
<path opacity="0.2" d="M72.5685 42.4021C72.6791 42.4021 72.7853 42.4455 72.8643 42.5229C72.9433 42.6003 72.9888 42.7056 72.991 42.8162V49.1703C72.9889 49.2817 72.9437 49.3879 72.8649 49.4666C72.7861 49.5454 72.6799 49.5906 72.5685 49.5928C72.458 49.5906 72.3527 49.5451 72.2752 49.4661C72.1978 49.3871 72.1545 49.2809 72.1545 49.1703V42.8584C72.1486 42.8006 72.1549 42.7422 72.173 42.6869C72.1912 42.6317 72.2207 42.581 72.2598 42.5379C72.2988 42.4949 72.3465 42.4605 72.3997 42.4371C72.4529 42.4138 72.5104 42.4018 72.5685 42.4021V42.4021Z" fill="black"/>
<path opacity="0.2" d="M55.2725 42.4021C55.3823 42.4021 55.4876 42.4457 55.5652 42.5234C55.6429 42.601 55.6865 42.7063 55.6865 42.8162V49.1703C55.6865 49.2809 55.6432 49.3871 55.5658 49.4661C55.4884 49.5451 55.3831 49.5906 55.2725 49.5928C55.1611 49.5906 55.0549 49.5454 54.9761 49.4666C54.8974 49.3879 54.8522 49.2817 54.85 49.1703V42.8584C54.8453 42.8001 54.8528 42.7415 54.8719 42.6863C54.891 42.6311 54.9214 42.5804 54.9611 42.5376C55.0008 42.4947 55.049 42.4605 55.1026 42.4372C55.1562 42.4139 55.214 42.4019 55.2725 42.4021V42.4021Z" fill="black"/>
<path opacity="0.2" d="M79.1432 49.6182C79.0311 49.6182 78.9237 49.5737 78.8444 49.4944C78.7652 49.4152 78.7207 49.3078 78.7207 49.1957V42.8584C78.7207 42.8034 78.7317 42.7488 78.753 42.698C78.7743 42.6472 78.8056 42.6012 78.8449 42.5627C78.8843 42.5241 78.9309 42.4938 78.9821 42.4735C79.0334 42.4532 79.0881 42.4433 79.1432 42.4444C79.1976 42.4444 79.2514 42.4551 79.3016 42.4759C79.3519 42.4967 79.3975 42.5272 79.436 42.5657C79.4744 42.6041 79.5049 42.6498 79.5257 42.7C79.5465 42.7502 79.5572 42.8041 79.5572 42.8584V49.2126C79.5529 49.3202 79.5077 49.4222 79.4307 49.4976C79.3538 49.573 79.2509 49.6161 79.1432 49.6182Z" fill="black"/>
<path d="M97.7318 33.5554H48.3097C47.6797 33.5554 47.1689 34.0661 47.1689 34.6961V40.6278C47.1689 41.2578 47.6797 41.7685 48.3097 41.7685H97.7318C98.3618 41.7685 98.8725 41.2578 98.8725 40.6278V34.6961C98.8725 34.0661 98.3618 33.5554 97.7318 33.5554Z" fill="#FF5C8A"/>
<path opacity="0.5" d="M97.7318 33.5554H48.3097C47.6797 33.5554 47.1689 34.0661 47.1689 34.6961V40.6363C47.1689 41.2662 47.6797 41.777 48.3097 41.777H97.7318C98.3618 41.777 98.8725 41.2662 98.8725 40.6363V34.6961C98.8725 34.0661 98.3618 33.5554 97.7318 33.5554Z" fill="white"/>
<path opacity="0.2" d="M92.0372 41.2615C91.9821 41.2615 91.9275 41.2505 91.8768 41.2292C91.826 41.2078 91.7799 41.1766 91.7414 41.1372C91.7028 41.0979 91.6725 41.0512 91.6522 41C91.6319 40.9488 91.622 40.8941 91.6231 40.839V34.4933C91.622 34.4382 91.6319 34.3835 91.6522 34.3322C91.6725 34.281 91.7028 34.2344 91.7414 34.195C91.7799 34.1557 91.826 34.1244 91.8768 34.1031C91.9275 34.0818 91.9821 34.0708 92.0372 34.0708V34.0708C92.1492 34.0708 92.2567 34.1153 92.3359 34.1945C92.4152 34.2738 92.4597 34.3812 92.4597 34.4933V40.839C92.4597 40.951 92.4152 41.0585 92.3359 41.1377C92.2567 41.217 92.1492 41.2615 92.0372 41.2615Z" fill="black"/>
<path opacity="0.2" d="M86.1309 41.2615C86.0758 41.2615 86.0213 41.2505 85.9705 41.2292C85.9197 41.2078 85.8737 41.1766 85.8351 41.1372C85.7966 41.0979 85.7662 41.0512 85.7459 41C85.7256 40.9488 85.7158 40.8941 85.7169 40.839V34.4933C85.7158 34.4382 85.7256 34.3835 85.7459 34.3322C85.7662 34.281 85.7966 34.2344 85.8351 34.195C85.8737 34.1557 85.9197 34.1244 85.9705 34.1031C86.0213 34.0818 86.0758 34.0708 86.1309 34.0708V34.0708C86.243 34.0708 86.3504 34.1153 86.4297 34.1945C86.5089 34.2738 86.5534 34.3812 86.5534 34.4933V40.839C86.5534 40.951 86.5089 41.0585 86.4297 41.1377C86.3504 41.217 86.243 41.2615 86.1309 41.2615Z" fill="black"/>
<path opacity="0.2" d="M79.5905 41.2615C79.4784 41.2615 79.3709 41.217 79.2917 41.1377C79.2125 41.0585 79.168 40.951 79.168 40.839V34.4933C79.168 34.3812 79.2125 34.2738 79.2917 34.1945C79.3709 34.1153 79.4784 34.0708 79.5905 34.0708C79.6455 34.0708 79.7001 34.0818 79.7509 34.1031C79.8017 34.1244 79.8477 34.1557 79.8862 34.195C79.9248 34.2344 79.9551 34.281 79.9754 34.3322C79.9957 34.3835 80.0056 34.4382 80.0045 34.4933V40.839C80.0056 40.8941 79.9957 40.9488 79.9754 41C79.9551 41.0512 79.9248 41.0979 79.8862 41.1372C79.8477 41.1766 79.8017 41.2078 79.7509 41.2292C79.7001 41.2505 79.6455 41.2615 79.5905 41.2615V41.2615Z" fill="black"/>
<path opacity="0.2" d="M96.8873 41.2615C96.7753 41.2615 96.6678 41.217 96.5886 41.1377C96.5093 41.0585 96.4648 40.951 96.4648 40.839V34.4933C96.4648 34.3812 96.5093 34.2738 96.5886 34.1945C96.6678 34.1153 96.7753 34.0708 96.8873 34.0708C96.9424 34.0708 96.997 34.0818 97.0477 34.1031C97.0985 34.1244 97.1446 34.1557 97.1831 34.195C97.2217 34.2344 97.252 34.281 97.2723 34.3322C97.2926 34.3835 97.3025 34.4382 97.3014 34.4933V40.839C97.3025 40.8941 97.2926 40.9488 97.2723 41C97.252 41.0512 97.2217 41.0979 97.1831 41.1372C97.1446 41.1766 97.0985 41.2078 97.0477 41.2292C96.997 41.2505 96.9424 41.2615 96.8873 41.2615V41.2615Z" fill="black"/>
<path opacity="0.2" d="M53.9967 34.0708C54.0518 34.0708 54.1063 34.0818 54.1571 34.1031C54.2079 34.1244 54.2539 34.1557 54.2925 34.195C54.3311 34.2344 54.3614 34.281 54.3817 34.3322C54.402 34.3835 54.4119 34.4382 54.4107 34.4933V40.839C54.4119 40.8941 54.402 40.9488 54.3817 41C54.3614 41.0512 54.3311 41.0979 54.2925 41.1372C54.2539 41.1766 54.2079 41.2078 54.1571 41.2292C54.1063 41.2505 54.0518 41.2615 53.9967 41.2615V41.2615C53.8847 41.2615 53.7772 41.217 53.698 41.1377C53.6187 41.0585 53.5742 40.951 53.5742 40.839V34.4933C53.5742 34.3812 53.6187 34.2738 53.698 34.1945C53.7772 34.1153 53.8847 34.0708 53.9967 34.0708Z" fill="black"/>
<path opacity="0.2" d="M59.903 34.0708C59.958 34.0708 60.0126 34.0818 60.0634 34.1031C60.1142 34.1244 60.1602 34.1557 60.1987 34.195C60.2373 34.2344 60.2676 34.281 60.2879 34.3322C60.3082 34.3835 60.3181 34.4382 60.317 34.4933V40.839C60.3181 40.8941 60.3082 40.9488 60.2879 41C60.2676 41.0512 60.2373 41.0979 60.1987 41.1372C60.1602 41.1766 60.1142 41.2078 60.0634 41.2292C60.0126 41.2505 59.958 41.2615 59.903 41.2615V41.2615C59.7909 41.2615 59.6834 41.217 59.6042 41.1377C59.525 41.0585 59.4805 40.951 59.4805 40.839V34.4933C59.4805 34.3812 59.525 34.2738 59.6042 34.1945C59.6834 34.1153 59.7909 34.0708 59.903 34.0708Z" fill="black"/>
<path opacity="0.2" d="M66.4518 34.0708C66.5069 34.0708 66.5614 34.0818 66.6122 34.1031C66.663 34.1244 66.709 34.1557 66.7476 34.195C66.7861 34.2344 66.8165 34.281 66.8368 34.3322C66.8571 34.3835 66.8669 34.4382 66.8658 34.4933V40.839C66.8669 40.8941 66.8571 40.9488 66.8368 41C66.8165 41.0512 66.7861 41.0979 66.7476 41.1372C66.709 41.1766 66.663 41.2078 66.6122 41.2292C66.5614 41.2505 66.5069 41.2615 66.4518 41.2615C66.3397 41.2615 66.2323 41.217 66.153 41.1377C66.0738 41.0585 66.0293 40.951 66.0293 40.839V34.4933C66.0293 34.3812 66.0738 34.2738 66.153 34.1945C66.2323 34.1153 66.3397 34.0708 66.4518 34.0708Z" fill="black"/>
<path opacity="0.2" d="M49.1465 34.0708C49.2586 34.0708 49.3661 34.1153 49.4453 34.1945C49.5245 34.2738 49.569 34.3812 49.569 34.4933V40.839C49.569 40.951 49.5245 41.0585 49.4453 41.1377C49.3661 41.217 49.2586 41.2615 49.1465 41.2615C49.0915 41.2615 49.0369 41.2505 48.9861 41.2292C48.9353 41.2078 48.8893 41.1766 48.8508 41.1372C48.8122 41.0979 48.7819 41.0512 48.7616 41C48.7413 40.9488 48.7314 40.8941 48.7325 40.839V34.4933C48.7314 34.4382 48.7413 34.3835 48.7616 34.3322C48.7819 34.281 48.8122 34.2344 48.8508 34.195C48.8893 34.1557 48.9353 34.1244 48.9861 34.1031C49.0369 34.0818 49.0915 34.0708 49.1465 34.0708V34.0708Z" fill="black"/>
<path opacity="0.2" d="M73.0167 41.2615C72.9616 41.2615 72.907 41.2505 72.8562 41.2292C72.8055 41.2078 72.7594 41.1766 72.7209 41.1372C72.6823 41.0979 72.652 41.0512 72.6317 41C72.6114 40.9488 72.6015 40.8941 72.6026 40.839V34.4933C72.6015 34.4382 72.6114 34.3835 72.6317 34.3322C72.652 34.281 72.6823 34.2344 72.7209 34.195C72.7594 34.1557 72.8055 34.1244 72.8562 34.1031C72.907 34.0818 72.9616 34.0708 73.0167 34.0708V34.0708C73.0718 34.0708 73.1263 34.0818 73.1771 34.1031C73.2279 34.1244 73.2739 34.1557 73.3125 34.195C73.351 34.2344 73.3813 34.281 73.4016 34.3322C73.4219 34.3835 73.4318 34.4382 73.4307 34.4933V40.839C73.4318 40.8941 73.4219 40.9488 73.4016 41C73.3813 41.0512 73.351 41.0979 73.3125 41.1372C73.2739 41.1766 73.2279 41.2078 73.1771 41.2292C73.1263 41.2505 73.0718 41.2615 73.0167 41.2615V41.2615Z" fill="black"/>
<path d="M100.064 25.2324H50.6417C50.0117 25.2324 49.501 25.7431 49.501 26.3731V32.3048C49.501 32.9348 50.0117 33.4455 50.6417 33.4455H100.064C100.694 33.4455 101.205 32.9348 101.205 32.3048V26.3731C101.205 25.7431 100.694 25.2324 100.064 25.2324Z" fill="#FF5C8A"/>
<path opacity="0.5" d="M101.188 26.3731V32.2879C101.186 32.5883 101.066 32.8759 100.855 33.0891C100.643 33.3023 100.356 33.4242 100.056 33.4286H50.6255C50.3244 33.4264 50.0364 33.3052 49.8243 33.0915C49.6122 32.8778 49.4932 32.589 49.4932 32.2879V26.3731C49.4921 26.2237 49.5205 26.0756 49.5769 25.9372C49.6333 25.7989 49.7166 25.6731 49.8218 25.567C49.9271 25.461 50.0523 25.3768 50.1902 25.3194C50.3281 25.262 50.4761 25.2324 50.6255 25.2324H100.056C100.357 25.2347 100.645 25.3558 100.857 25.5695C101.069 25.7832 101.188 26.072 101.188 26.3731V26.3731Z" fill="white"/>
<path opacity="0.2" d="M94.3692 32.9302C94.3141 32.9302 94.2596 32.9192 94.2088 32.8979C94.158 32.8765 94.112 32.8453 94.0734 32.8059C94.0348 32.7666 94.0045 32.7199 93.9842 32.6687C93.9639 32.6175 93.954 32.5628 93.9552 32.5077V26.162C93.9551 26.0514 93.9985 25.9452 94.0759 25.8662C94.1533 25.7872 94.2586 25.7417 94.3692 25.7395C94.4806 25.7417 94.5868 25.7869 94.6655 25.8656C94.7443 25.9444 94.7895 26.0506 94.7917 26.162V32.5077C94.7917 32.6198 94.7472 32.7272 94.6679 32.8064C94.5887 32.8857 94.4812 32.9302 94.3692 32.9302Z" fill="black"/>
<path opacity="0.2" d="M88.463 32.9302C88.4079 32.9302 88.3533 32.9192 88.3025 32.8979C88.2517 32.8765 88.2057 32.8453 88.1672 32.8059C88.1286 32.7666 88.0983 32.7199 88.078 32.6687C88.0577 32.6175 88.0478 32.5628 88.0489 32.5077V26.162C88.0489 26.0514 88.0922 25.9452 88.1697 25.8662C88.2471 25.7872 88.3524 25.7417 88.463 25.7395C88.575 25.7395 88.6825 25.784 88.7617 25.8633C88.8409 25.9425 88.8854 26.0499 88.8854 26.162V32.5077C88.8854 32.6198 88.8409 32.7272 88.7617 32.8064C88.6825 32.8857 88.575 32.9302 88.463 32.9302Z" fill="black"/>
<path opacity="0.2" d="M81.9225 32.9302C81.8104 32.9302 81.703 32.8857 81.6237 32.8064C81.5445 32.7272 81.5 32.6198 81.5 32.5077V26.162C81.5 26.0499 81.5445 25.9425 81.6237 25.8633C81.703 25.784 81.8104 25.7395 81.9225 25.7395C82.0331 25.7417 82.1384 25.7872 82.2158 25.8662C82.2932 25.9452 82.3365 26.0514 82.3365 26.162V32.5077C82.3376 32.5628 82.3278 32.6175 82.3075 32.6687C82.2872 32.7199 82.2568 32.7666 82.2183 32.8059C82.1797 32.8453 82.1337 32.8765 82.0829 32.8979C82.0321 32.9192 81.9776 32.9302 81.9225 32.9302V32.9302Z" fill="black"/>
<path opacity="0.2" d="M99.2194 32.9302C99.1073 32.9302 98.9999 32.8857 98.9206 32.8064C98.8414 32.7272 98.7969 32.6198 98.7969 32.5077V26.162C98.799 26.0506 98.8442 25.9444 98.923 25.8656C99.0018 25.7869 99.108 25.7417 99.2194 25.7395C99.3299 25.7417 99.4352 25.7872 99.5127 25.8662C99.5901 25.9452 99.6334 26.0514 99.6334 26.162V32.5077C99.6345 32.5628 99.6246 32.6175 99.6043 32.6687C99.584 32.7199 99.5537 32.7666 99.5152 32.8059C99.4766 32.8453 99.4306 32.8765 99.3798 32.8979C99.329 32.9192 99.2744 32.9302 99.2194 32.9302V32.9302Z" fill="black"/>
<path opacity="0.2" d="M56.3287 25.7395C56.4393 25.7417 56.5446 25.7872 56.622 25.8662C56.6994 25.9452 56.7428 26.0514 56.7428 26.162V32.5077C56.7439 32.5628 56.734 32.6175 56.7137 32.6687C56.6934 32.7199 56.6631 32.7666 56.6245 32.8059C56.586 32.8453 56.5399 32.8765 56.4892 32.8979C56.4384 32.9192 56.3838 32.9302 56.3287 32.9302V32.9302C56.2167 32.9302 56.1092 32.8857 56.03 32.8064C55.9508 32.7272 55.9062 32.6198 55.9062 32.5077V26.162C55.9084 26.0506 55.9536 25.9444 56.0324 25.8656C56.1112 25.7869 56.2174 25.7417 56.3287 25.7395Z" fill="black"/>
<path opacity="0.2" d="M62.235 25.7395C62.3456 25.7417 62.4509 25.7872 62.5283 25.8662C62.6057 25.9452 62.649 26.0514 62.649 26.162V32.5077C62.6501 32.5628 62.6403 32.6175 62.62 32.6687C62.5997 32.7199 62.5693 32.7666 62.5308 32.8059C62.4922 32.8453 62.4462 32.8765 62.3954 32.8979C62.3446 32.9192 62.2901 32.9302 62.235 32.9302C62.1229 32.9302 62.0155 32.8857 61.9362 32.8064C61.857 32.7272 61.8125 32.6198 61.8125 32.5077V26.162C61.8147 26.0506 61.8599 25.9444 61.9386 25.8656C62.0174 25.7869 62.1236 25.7417 62.235 25.7395Z" fill="black"/>
<path opacity="0.2" d="M68.7838 25.7395C68.8944 25.7417 68.9997 25.7872 69.0771 25.8662C69.1545 25.9452 69.1979 26.0514 69.1979 26.162V32.5077C69.199 32.5628 69.1891 32.6175 69.1688 32.6687C69.1485 32.7199 69.1182 32.7666 69.0796 32.8059C69.041 32.8453 68.995 32.8765 68.9442 32.8979C68.8935 32.9192 68.8389 32.9302 68.7838 32.9302V32.9302C68.6718 32.9302 68.5643 32.8857 68.4851 32.8064C68.4058 32.7272 68.3613 32.6198 68.3613 32.5077V26.162C68.3613 26.0499 68.4058 25.9425 68.4851 25.8633C68.5643 25.784 68.6718 25.7395 68.7838 25.7395Z" fill="black"/>
<path opacity="0.2" d="M51.4786 25.7395C51.5906 25.7395 51.6981 25.784 51.7773 25.8633C51.8565 25.9425 51.9011 26.0499 51.9011 26.162V32.5077C51.9011 32.6198 51.8565 32.7272 51.7773 32.8064C51.6981 32.8857 51.5906 32.9302 51.4786 32.9302C51.4235 32.9302 51.3689 32.9192 51.3182 32.8979C51.2674 32.8765 51.2213 32.8453 51.1828 32.8059C51.1442 32.7666 51.1139 32.7199 51.0936 32.6687C51.0733 32.6175 51.0634 32.5628 51.0645 32.5077V26.162C51.0645 26.0514 51.1079 25.9452 51.1853 25.8662C51.2627 25.7872 51.368 25.7417 51.4786 25.7395Z" fill="black"/>
<path opacity="0.2" d="M75.3487 32.9302C75.2936 32.9302 75.2391 32.9192 75.1883 32.8979C75.1375 32.8765 75.0915 32.8453 75.0529 32.8059C75.0143 32.7666 74.984 32.7199 74.9637 32.6687C74.9434 32.6175 74.9335 32.5628 74.9347 32.5077V26.162C74.9346 26.0514 74.978 25.9452 75.0554 25.8662C75.1328 25.7872 75.2381 25.7417 75.3487 25.7395C75.4601 25.7417 75.5663 25.7869 75.645 25.8656C75.7238 25.9444 75.769 26.0506 75.7712 26.162V32.5077C75.7712 32.6198 75.7267 32.7272 75.6474 32.8064C75.5682 32.8857 75.4607 32.9302 75.3487 32.9302Z" fill="black"/>
<path opacity="0.2" d="M49.5011 32.3048V26.39C49.5 26.2406 49.5284 26.0924 49.5848 25.9541C49.6413 25.8157 49.7245 25.6899 49.8297 25.5839C49.935 25.4778 50.0602 25.3937 50.1981 25.3362C50.336 25.2788 50.484 25.2493 50.6334 25.2493H72.6025L76.4556 33.4624H50.6334C50.4828 33.4613 50.334 33.4304 50.1955 33.3715C50.057 33.3126 49.9315 33.2269 49.8262 33.1193C49.721 33.0117 49.638 32.8843 49.5822 32.7445C49.5264 32.6047 49.4989 32.4553 49.5011 32.3048Z" fill="black"/>
<path opacity="0.2" d="M80.3339 41.777H48.3097C48.0071 41.777 47.717 41.6568 47.5031 41.4429C47.2891 41.229 47.1689 40.9388 47.1689 40.6363V34.7215C47.1689 34.419 47.2891 34.1288 47.5031 33.9149C47.717 33.701 48.0071 33.5808 48.3097 33.5808H76.4809L80.3339 41.777Z" fill="black"/>
<path opacity="0.2" d="M54.4357 41.8867H80.3847L84.2293 50.0998H54.4357C54.2856 50.1009 54.1368 50.0722 53.9979 50.0153C53.859 49.9583 53.7328 49.8743 53.6266 49.7682C53.5205 49.662 53.4365 49.5359 53.3796 49.3969C53.3227 49.258 53.2939 49.1092 53.295 48.9591V43.0443C53.2928 42.8931 53.3206 42.743 53.377 42.6026C53.4333 42.4622 53.517 42.3345 53.6231 42.2268C53.7293 42.119 53.8558 42.0335 53.9953 41.9751C54.1348 41.9168 54.2845 41.8867 54.4357 41.8867V41.8867Z" fill="black"/>
<path opacity="0.2" d="M52.9402 50.218H84.2885L88.15 58.4311H52.9402C52.7908 58.4311 52.6428 58.4016 52.5049 58.3441C52.367 58.2867 52.2418 58.2025 52.1365 58.0965C52.0313 57.9905 51.9481 57.8646 51.8917 57.7263C51.8353 57.5879 51.8068 57.4398 51.8079 57.2904V51.3756C51.8045 51.2248 51.8313 51.0749 51.8867 50.9345C51.9421 50.7942 52.025 50.6664 52.1304 50.5586C52.2359 50.4507 52.3619 50.365 52.5009 50.3066C52.64 50.2481 52.7893 50.218 52.9402 50.218Z" fill="black"/>
<path opacity="0.2" d="M92.0371 66.7626H51.4786C51.3285 66.7638 51.1797 66.735 51.0408 66.6781C50.9019 66.6212 50.7757 66.5372 50.6695 66.431C50.5634 66.3249 50.4794 66.1987 50.4225 66.0598C50.3655 65.9209 50.3368 65.772 50.3379 65.6219V59.7071C50.3368 59.557 50.3655 59.4082 50.4225 59.2693C50.4794 59.1304 50.5634 59.0042 50.6695 58.8981C50.7757 58.7919 50.9019 58.7079 51.0408 58.651C51.1797 58.5941 51.3285 58.5653 51.4786 58.5664H88.2009L92.0371 66.7626Z" fill="black"/>
<path d="M67.0599 58.5496H17.6378C17.0078 58.5496 16.4971 59.0603 16.4971 59.6903V65.6219C16.4971 66.2519 17.0078 66.7626 17.6378 66.7626H67.0599C67.6899 66.7626 68.2006 66.2519 68.2006 65.6219V59.6903C68.2006 59.0603 67.6899 58.5496 67.0599 58.5496Z" fill="#FF5C8A"/>
<path opacity="0.5" d="M67.0599 58.5496H17.6378C17.0078 58.5496 16.4971 59.0603 16.4971 59.6903V65.6219C16.4971 66.2519 17.0078 66.7626 17.6378 66.7626H67.0599C67.6899 66.7626 68.2006 66.2519 68.2006 65.6219V59.6903C68.2006 59.0603 67.6899 58.5496 67.0599 58.5496Z" fill="white"/>
<path opacity="0.2" d="M61.3652 66.2472C61.2554 66.2472 61.1501 66.2035 61.0724 66.1259C60.9948 66.0482 60.9512 65.9429 60.9512 65.8331V59.479C60.9512 59.3692 60.9948 59.2639 61.0724 59.1862C61.1501 59.1086 61.2554 59.0649 61.3652 59.0649C61.4758 59.0649 61.582 59.1083 61.661 59.1857C61.74 59.2631 61.7855 59.3684 61.7877 59.479V65.8331C61.7855 65.9437 61.74 66.049 61.661 66.1264C61.582 66.2038 61.4758 66.2472 61.3652 66.2472V66.2472Z" fill="black"/>
<path opacity="0.2" d="M55.458 66.2473C55.3482 66.2473 55.2429 66.2036 55.1652 66.126C55.0876 66.0483 55.0439 65.943 55.0439 65.8332V59.4791C55.0439 59.3693 55.0876 59.2639 55.1652 59.1863C55.2429 59.1087 55.3482 59.065 55.458 59.065C55.5131 59.0639 55.5678 59.0738 55.619 59.0941C55.6702 59.1144 55.7169 59.1447 55.7562 59.1833C55.7956 59.2218 55.8268 59.2678 55.8482 59.3186C55.8695 59.3694 55.8805 59.424 55.8805 59.4791V65.8332C55.8805 65.8883 55.8695 65.9429 55.8482 65.9936C55.8268 66.0444 55.7956 66.0905 55.7562 66.129C55.7169 66.1676 55.6702 66.1979 55.619 66.2182C55.5678 66.2385 55.5131 66.2484 55.458 66.2473V66.2473Z" fill="black"/>
<path opacity="0.2" d="M48.9186 66.2473C48.8635 66.2484 48.8087 66.2385 48.7575 66.2182C48.7063 66.1979 48.6597 66.1676 48.6203 66.129C48.581 66.0905 48.5497 66.0444 48.5284 65.9936C48.5071 65.9429 48.4961 65.8883 48.4961 65.8332V59.4791C48.4961 59.424 48.5071 59.3694 48.5284 59.3186C48.5497 59.2678 48.581 59.2218 48.6203 59.1833C48.6597 59.1447 48.7063 59.1144 48.7575 59.0941C48.8087 59.0738 48.8635 59.0639 48.9186 59.065C49.0284 59.065 49.1337 59.1087 49.2113 59.1863C49.289 59.2639 49.3326 59.3693 49.3326 59.4791V65.8332C49.3326 65.943 49.289 66.0483 49.2113 66.126C49.1337 66.2036 49.0284 66.2473 48.9186 66.2473Z" fill="black"/>
<path opacity="0.2" d="M66.2145 66.2472C66.1039 66.2472 65.9977 66.2038 65.9187 66.1264C65.8397 66.049 65.7942 65.9437 65.792 65.8331V59.479C65.7942 59.3684 65.8397 59.2631 65.9187 59.1857C65.9977 59.1083 66.1039 59.0649 66.2145 59.0649V59.0649C66.3243 59.0649 66.4296 59.1086 66.5072 59.1862C66.5849 59.2639 66.6285 59.3692 66.6285 59.479V65.8331C66.6285 65.9429 66.5849 66.0482 66.5072 66.1259C66.4296 66.2035 66.3243 66.2472 66.2145 66.2472Z" fill="black"/>
<path opacity="0.2" d="M23.3242 59.0649C23.434 59.0649 23.5393 59.1086 23.617 59.1862C23.6946 59.2639 23.7382 59.3692 23.7382 59.479V65.8331C23.7382 65.9429 23.6946 66.0482 23.617 66.1259C23.5393 66.2035 23.434 66.2472 23.3242 66.2472C23.2144 66.2472 23.1091 66.2035 23.0314 66.1259C22.9538 66.0482 22.9102 65.9429 22.9102 65.8331V59.479C22.9102 59.3692 22.9538 59.2639 23.0314 59.1862C23.1091 59.1086 23.2144 59.0649 23.3242 59.0649Z" fill="black"/>
<path opacity="0.2" d="M29.2311 59.0649C29.3409 59.0649 29.4462 59.1086 29.5238 59.1862C29.6015 59.2639 29.6451 59.3692 29.6451 59.479V65.8331C29.6451 65.9429 29.6015 66.0482 29.5238 66.1259C29.4462 66.2035 29.3409 66.2472 29.2311 66.2472C29.1205 66.2472 29.0143 66.2038 28.9353 66.1264C28.8563 66.049 28.8108 65.9437 28.8086 65.8331V59.479C28.8108 59.3684 28.8563 59.2631 28.9353 59.1857C29.0143 59.1083 29.1205 59.0649 29.2311 59.0649V59.0649Z" fill="black"/>
<path opacity="0.2" d="M35.7789 59.065C35.8887 59.065 35.9941 59.1087 36.0717 59.1863C36.1493 59.2639 36.193 59.3693 36.193 59.4791V65.8332C36.193 65.943 36.1493 66.0483 36.0717 66.126C35.9941 66.2036 35.8887 66.2473 35.7789 66.2473C35.7239 66.2484 35.6691 66.2385 35.6179 66.2182C35.5667 66.1979 35.52 66.1676 35.4807 66.129C35.4413 66.0905 35.4101 66.0444 35.3888 65.9936C35.3674 65.9429 35.3564 65.8883 35.3564 65.8332V59.4791C35.3564 59.424 35.3674 59.3694 35.3888 59.3186C35.4101 59.2678 35.4413 59.2218 35.4807 59.1833C35.52 59.1447 35.5667 59.1144 35.6179 59.0941C35.6691 59.0738 35.7239 59.0639 35.7789 59.065Z" fill="black"/>
<path opacity="0.2" d="M18.4746 59.065C18.5297 59.0639 18.5844 59.0738 18.6356 59.0941C18.6868 59.1144 18.7335 59.1447 18.7728 59.1833C18.8122 59.2218 18.8434 59.2678 18.8648 59.3186C18.8861 59.3694 18.8971 59.424 18.8971 59.4791V65.8332C18.8971 65.8883 18.8861 65.9429 18.8648 65.9936C18.8434 66.0444 18.8122 66.0905 18.7728 66.129C18.7335 66.1676 18.6868 66.1979 18.6356 66.2182C18.5844 66.2385 18.5297 66.2484 18.4746 66.2473C18.3648 66.2473 18.2595 66.2036 18.1818 66.126C18.1042 66.0483 18.0605 65.943 18.0605 65.8332V59.4791C18.0605 59.3693 18.1042 59.2639 18.1818 59.1863C18.2595 59.1087 18.3648 59.065 18.4746 59.065Z" fill="black"/>
<path opacity="0.2" d="M42.3447 66.2472C42.2349 66.2472 42.1296 66.2035 42.0519 66.1259C41.9743 66.0482 41.9307 65.9429 41.9307 65.8331V59.479C41.9307 59.3692 41.9743 59.2639 42.0519 59.1862C42.1296 59.1086 42.2349 59.0649 42.3447 59.0649C42.4553 59.0649 42.5615 59.1083 42.6405 59.1857C42.7195 59.2631 42.765 59.3684 42.7672 59.479V65.8331C42.765 65.9437 42.7195 66.049 42.6405 66.1264C42.5615 66.2038 42.4553 66.2472 42.3447 66.2472V66.2472Z" fill="black"/>
<path d="M68.5472 50.218H19.1251C18.4951 50.218 17.9844 50.7287 17.9844 51.3587V57.2904C17.9844 57.9204 18.4951 58.4311 19.1251 58.4311H68.5472C69.1772 58.4311 69.6879 57.9204 69.6879 57.2904V51.3587C69.6879 50.7287 69.1772 50.218 68.5472 50.218Z" fill="#FF5C8A"/>
<path opacity="0.5" d="M68.5472 50.218H19.1251C18.4951 50.218 17.9844 50.7287 17.9844 51.3587V57.2904C17.9844 57.9204 18.4951 58.4311 19.1251 58.4311H68.5472C69.1772 58.4311 69.6879 57.9204 69.6879 57.2904V51.3587C69.6879 50.7287 69.1772 50.218 68.5472 50.218Z" fill="white"/>
<path opacity="0.2" d="M62.8515 57.9159C62.7417 57.9159 62.6364 57.8722 62.5588 57.7946C62.4811 57.7169 62.4375 57.6116 62.4375 57.5018V51.1477C62.4375 51.0379 62.4811 50.9326 62.5588 50.8549C62.6364 50.7773 62.7417 50.7336 62.8515 50.7336C62.9621 50.7336 63.0683 50.777 63.1473 50.8544C63.2263 50.9318 63.2718 51.0371 63.274 51.1477V57.5018C63.2718 57.6124 63.2263 57.7177 63.1473 57.7951C63.0683 57.8725 62.9621 57.9159 62.8515 57.9159V57.9159Z" fill="black"/>
<path opacity="0.2" d="M56.9453 57.9157C56.8355 57.9157 56.7302 57.8721 56.6525 57.7944C56.5749 57.7168 56.5312 57.6115 56.5312 57.5017V51.1475C56.5312 51.0377 56.5749 50.9324 56.6525 50.8548C56.7302 50.7771 56.8355 50.7335 56.9453 50.7335C57.0004 50.7324 57.0551 50.7422 57.1063 50.7625C57.1575 50.7828 57.2042 50.8132 57.2435 50.8517C57.2829 50.8903 57.3141 50.9363 57.3355 50.9871C57.3568 51.0379 57.3678 51.0924 57.3678 51.1475V57.5017C57.3678 57.5567 57.3568 57.6113 57.3355 57.6621C57.3141 57.7129 57.2829 57.7589 57.2435 57.7975C57.2042 57.836 57.1575 57.8663 57.1063 57.8866C57.0551 57.907 57.0004 57.9168 56.9453 57.9157V57.9157Z" fill="black"/>
<path opacity="0.2" d="M50.4059 57.9157C50.3508 57.9168 50.2961 57.907 50.2448 57.8866C50.1936 57.8663 50.147 57.836 50.1076 57.7975C50.0683 57.7589 50.037 57.7129 50.0157 57.6621C49.9944 57.6113 49.9834 57.5567 49.9834 57.5017V51.1475C49.9834 51.0924 49.9944 51.0379 50.0157 50.9871C50.037 50.9363 50.0683 50.8903 50.1076 50.8517C50.147 50.8132 50.1936 50.7828 50.2448 50.7625C50.2961 50.7422 50.3508 50.7324 50.4059 50.7335C50.5157 50.7335 50.621 50.7771 50.6986 50.8548C50.7763 50.9324 50.8199 51.0377 50.8199 51.1475V57.5017C50.8199 57.6115 50.7763 57.7168 50.6986 57.7944C50.621 57.8721 50.5157 57.9157 50.4059 57.9157Z" fill="black"/>
<path opacity="0.2" d="M67.7018 57.9159C67.5912 57.9159 67.485 57.8725 67.406 57.7951C67.327 57.7177 67.2815 57.6124 67.2793 57.5018V51.1477C67.2815 51.0371 67.327 50.9318 67.406 50.8544C67.485 50.777 67.5912 50.7336 67.7018 50.7336V50.7336C67.8116 50.7336 67.9169 50.7773 67.9945 50.8549C68.0722 50.9326 68.1158 51.0379 68.1158 51.1477V57.5018C68.1158 57.6116 68.0722 57.7169 67.9945 57.7946C67.9169 57.8722 67.8116 57.9159 67.7018 57.9159Z" fill="black"/>
<path opacity="0.2" d="M24.8115 50.7336C24.9213 50.7336 25.0266 50.7773 25.1043 50.8549C25.1819 50.9326 25.2255 51.0379 25.2255 51.1477V57.5018C25.2255 57.6116 25.1819 57.7169 25.1043 57.7946C25.0266 57.8722 24.9213 57.9159 24.8115 57.9159C24.7017 57.9159 24.5964 57.8722 24.5187 57.7946C24.4411 57.7169 24.3975 57.6116 24.3975 57.5018V51.1477C24.3975 51.0379 24.4411 50.9326 24.5187 50.8549C24.5964 50.7773 24.7017 50.7336 24.8115 50.7336Z" fill="black"/>
<path opacity="0.2" d="M30.7174 50.7336C30.8272 50.7336 30.9325 50.7773 31.0102 50.8549C31.0878 50.9326 31.1314 51.0379 31.1314 51.1477V57.5018C31.1314 57.6116 31.0878 57.7169 31.0102 57.7946C30.9325 57.8722 30.8272 57.9159 30.7174 57.9159V57.9159C30.6068 57.9159 30.5006 57.8725 30.4216 57.7951C30.3426 57.7177 30.2971 57.6124 30.2949 57.5018V51.1477C30.2971 51.0371 30.3426 50.9318 30.4216 50.8544C30.5006 50.777 30.6068 50.7336 30.7174 50.7336V50.7336Z" fill="black"/>
<path opacity="0.2" d="M37.2662 50.7335C37.376 50.7335 37.4814 50.7771 37.559 50.8548C37.6366 50.9324 37.6803 51.0377 37.6803 51.1475V57.5017C37.6803 57.6115 37.6366 57.7168 37.559 57.7944C37.4814 57.8721 37.376 57.9157 37.2662 57.9157C37.2112 57.9168 37.1564 57.907 37.1052 57.8866C37.054 57.8663 37.0073 57.836 36.968 57.7975C36.9286 57.7589 36.8974 57.7129 36.8761 57.6621C36.8547 57.6113 36.8437 57.5567 36.8438 57.5017V51.1475C36.8437 51.0924 36.8547 51.0379 36.8761 50.9871C36.8974 50.9363 36.9286 50.8903 36.968 50.8517C37.0073 50.8132 37.054 50.7828 37.1052 50.7625C37.1564 50.7422 37.2112 50.7324 37.2662 50.7335Z" fill="black"/>
<path opacity="0.2" d="M19.9609 50.7335C20.016 50.7324 20.0707 50.7422 20.1219 50.7625C20.1732 50.7828 20.2198 50.8132 20.2592 50.8517C20.2985 50.8903 20.3298 50.9363 20.3511 50.9871C20.3724 51.0379 20.3834 51.0924 20.3834 51.1475V57.5017C20.3834 57.5567 20.3724 57.6113 20.3511 57.6621C20.3298 57.7129 20.2985 57.7589 20.2592 57.7975C20.2198 57.836 20.1732 57.8663 20.1219 57.8866C20.0707 57.907 20.016 57.9168 19.9609 57.9157C19.8511 57.9157 19.7458 57.8721 19.6681 57.7944C19.5905 57.7168 19.5469 57.6115 19.5469 57.5017V51.1475C19.5469 51.0377 19.5905 50.9324 19.6681 50.8548C19.7458 50.7771 19.8511 50.7335 19.9609 50.7335Z" fill="black"/>
<path opacity="0.2" d="M43.832 57.9159C43.7222 57.9159 43.6169 57.8722 43.5392 57.7946C43.4616 57.7169 43.418 57.6116 43.418 57.5018V51.1477C43.418 51.0379 43.4616 50.9326 43.5392 50.8549C43.6169 50.7773 43.7222 50.7336 43.832 50.7336C43.9426 50.7336 44.0488 50.777 44.1278 50.8544C44.2068 50.9318 44.2523 51.0371 44.2545 51.1477V57.5018C44.2523 57.6124 44.2068 57.7177 44.1278 57.7951C44.0488 57.8725 43.9426 57.9159 43.832 57.9159V57.9159Z" fill="black"/>
<path d="M65.8011 41.8867H16.379C15.749 41.8867 15.2383 42.3974 15.2383 43.0274V48.9591C15.2383 49.5891 15.749 50.0998 16.379 50.0998H65.8011C66.4311 50.0998 66.9419 49.5891 66.9419 48.9591V43.0274C66.9419 42.3974 66.4311 41.8867 65.8011 41.8867Z" fill="#FF5C8A"/>
<path opacity="0.5" d="M65.8011 41.8867H16.379C15.749 41.8867 15.2383 42.3974 15.2383 43.0274V48.9591C15.2383 49.5891 15.749 50.0998 16.379 50.0998H65.8011C66.4311 50.0998 66.9419 49.5891 66.9419 48.9591V43.0274C66.9419 42.3974 66.4311 41.8867 65.8011 41.8867Z" fill="white"/>
<path opacity="0.2" d="M60.1139 49.6181C60.0025 49.6159 59.8963 49.5707 59.8175 49.492C59.7388 49.4132 59.6936 49.307 59.6914 49.1956V42.8584C59.6936 42.7478 59.7391 42.6425 59.8181 42.5651C59.8971 42.4877 60.0033 42.4443 60.1139 42.4443V42.4443C60.2237 42.4443 60.329 42.4879 60.4067 42.5656C60.4843 42.6432 60.5279 42.7486 60.5279 42.8584V49.2125C60.5236 49.3202 60.4784 49.4221 60.4014 49.4975C60.3245 49.5729 60.2216 49.616 60.1139 49.6181Z" fill="black"/>
<path opacity="0.2" d="M54.208 49.6181C54.0974 49.6159 53.9921 49.5704 53.9147 49.4914C53.8373 49.4124 53.7939 49.3062 53.7939 49.1956V42.8584C53.7939 42.804 53.8046 42.7502 53.8255 42.6999C53.8463 42.6497 53.8768 42.604 53.9152 42.5656C53.9537 42.5271 53.9993 42.4967 54.0495 42.4758C54.0998 42.455 54.1536 42.4443 54.208 42.4443C54.3178 42.4443 54.4231 42.4879 54.5007 42.5656C54.5784 42.6432 54.622 42.7486 54.622 42.8584V49.2125C54.6177 49.3202 54.5725 49.4221 54.4955 49.4975C54.4185 49.5729 54.3157 49.616 54.208 49.6181Z" fill="black"/>
<path opacity="0.2" d="M47.6591 49.6181C47.5486 49.6159 47.4433 49.5704 47.3659 49.4914C47.2884 49.4124 47.2451 49.3062 47.2451 49.1956V42.8584C47.2451 42.7486 47.2887 42.6432 47.3664 42.5656C47.444 42.4879 47.5493 42.4443 47.6591 42.4443C47.7698 42.4443 47.8759 42.4877 47.9549 42.5651C48.0339 42.6425 48.0794 42.7478 48.0816 42.8584V49.2125C48.0753 49.3209 48.0282 49.4229 47.9499 49.4981C47.8715 49.5733 47.7677 49.6162 47.6591 49.6181V49.6181Z" fill="black"/>
<path opacity="0.2" d="M64.9645 49.6182C64.8524 49.6182 64.745 49.5737 64.6657 49.4944C64.5865 49.4152 64.542 49.3078 64.542 49.1957V42.8584C64.542 42.8034 64.553 42.7488 64.5743 42.698C64.5956 42.6472 64.6269 42.6012 64.6662 42.5627C64.7056 42.5241 64.7522 42.4938 64.8034 42.4735C64.8546 42.4532 64.9094 42.4433 64.9645 42.4444C65.0743 42.4444 65.1796 42.488 65.2572 42.5657C65.3349 42.6433 65.3785 42.7486 65.3785 42.8584V49.2126C65.3742 49.3202 65.329 49.4222 65.252 49.4976C65.175 49.573 65.0722 49.6161 64.9645 49.6182Z" fill="black"/>
<path opacity="0.2" d="M22.0741 42.4022C22.1839 42.4022 22.2892 42.4459 22.3668 42.5235C22.4445 42.6012 22.4881 42.7065 22.4881 42.8163V49.1704C22.4881 49.281 22.4448 49.3872 22.3674 49.4662C22.29 49.5452 22.1847 49.5907 22.0741 49.5929C21.962 49.5929 21.8546 49.5484 21.7753 49.4692C21.6961 49.3899 21.6516 49.2825 21.6516 49.1704V42.8585C21.6456 42.8 21.6521 42.7408 21.6707 42.685C21.6893 42.6292 21.7197 42.578 21.7596 42.5349C21.7996 42.4917 21.8483 42.4575 21.9026 42.4346C21.9568 42.4118 22.0153 42.4007 22.0741 42.4022V42.4022Z" fill="black"/>
<path opacity="0.2" d="M27.9803 42.4022C28.0901 42.4022 28.1954 42.4459 28.2731 42.5235C28.3507 42.6012 28.3944 42.7065 28.3944 42.8163V49.1704C28.3944 49.281 28.351 49.3872 28.2736 49.4662C28.1962 49.5452 28.0909 49.5907 27.9803 49.5929C27.8683 49.5929 27.7608 49.5484 27.6816 49.4692C27.6024 49.3899 27.5578 49.2825 27.5578 49.1704V42.8585C27.5518 42.8 27.5583 42.7408 27.577 42.685C27.5956 42.6292 27.6259 42.578 27.6659 42.5349C27.7059 42.4917 27.7546 42.4575 27.8088 42.4346C27.863 42.4118 27.9215 42.4007 27.9803 42.4022V42.4022Z" fill="black"/>
<path opacity="0.2" d="M34.5197 42.4021C34.6303 42.4021 34.7365 42.4455 34.8155 42.5229C34.8945 42.6003 34.94 42.7056 34.9422 42.8162V49.1703C34.94 49.2817 34.8948 49.3879 34.8161 49.4666C34.7373 49.5454 34.6311 49.5906 34.5197 49.5928C34.4091 49.5906 34.3038 49.5451 34.2264 49.4661C34.149 49.3871 34.1057 49.2809 34.1057 49.1703V42.8584C34.0997 42.8006 34.1061 42.7422 34.1242 42.6869C34.1423 42.6317 34.1719 42.581 34.2109 42.5379C34.25 42.4949 34.2977 42.4605 34.3509 42.4371C34.4041 42.4138 34.4616 42.4018 34.5197 42.4021V42.4021Z" fill="black"/>
<path opacity="0.2" d="M17.2238 42.4021C17.3336 42.4021 17.4389 42.4457 17.5166 42.5234C17.5942 42.601 17.6379 42.7063 17.6379 42.8162V49.1703C17.6379 49.2809 17.5945 49.3871 17.5171 49.4661C17.4397 49.5451 17.3344 49.5906 17.2238 49.5928C17.1132 49.5906 17.0079 49.5451 16.9305 49.4661C16.8531 49.3871 16.8098 49.2809 16.8098 49.1703V42.8584C16.8038 42.8006 16.8102 42.7422 16.8283 42.6869C16.8464 42.6317 16.876 42.581 16.915 42.5379C16.9541 42.4949 17.0018 42.4605 17.055 42.4371C17.1082 42.4138 17.1657 42.4018 17.2238 42.4021V42.4021Z" fill="black"/>
<path opacity="0.2" d="M41.0944 49.6181C40.983 49.6159 40.8768 49.5707 40.798 49.492C40.7192 49.4132 40.674 49.307 40.6719 49.1956V42.8584C40.6741 42.7478 40.7196 42.6425 40.7986 42.5651C40.8776 42.4877 40.9838 42.4443 41.0944 42.4443V42.4443C41.2042 42.4443 41.3095 42.4879 41.3871 42.5656C41.4648 42.6432 41.5084 42.7486 41.5084 42.8584V49.2125C41.5041 49.3202 41.4589 49.4221 41.3819 49.4975C41.3049 49.5729 41.2021 49.616 41.0944 49.6181Z" fill="black"/>
<path d="M65.598 33.5554H16.1759C15.5459 33.5554 15.0352 34.0661 15.0352 34.6961V40.6278C15.0352 41.2578 15.5459 41.7685 16.1759 41.7685H65.598C66.228 41.7685 66.7387 41.2578 66.7387 40.6278V34.6961C66.7387 34.0661 66.228 33.5554 65.598 33.5554Z" fill="#FF5C8A"/>
<path opacity="0.5" d="M65.598 33.5554H16.1759C15.5459 33.5554 15.0352 34.0661 15.0352 34.6961V40.6278C15.0352 41.2578 15.5459 41.7685 16.1759 41.7685H65.598C66.228 41.7685 66.7387 41.2578 66.7387 40.6278V34.6961C66.7387 34.0661 66.228 33.5554 65.598 33.5554Z" fill="white"/>
<path opacity="0.2" d="M59.9117 41.2615C59.7997 41.2615 59.6922 41.217 59.613 41.1377C59.5338 41.0585 59.4893 40.951 59.4893 40.839V34.4933C59.4893 34.3812 59.5338 34.2738 59.613 34.1945C59.6922 34.1153 59.7997 34.0708 59.9117 34.0708C59.9668 34.0708 60.0214 34.0818 60.0722 34.1031C60.123 34.1244 60.169 34.1557 60.2075 34.195C60.2461 34.2344 60.2764 34.281 60.2967 34.3322C60.317 34.3835 60.3269 34.4382 60.3258 34.4933V40.839C60.3269 40.8941 60.317 40.9488 60.2967 41C60.2764 41.0512 60.2461 41.0979 60.2075 41.1372C60.169 41.1766 60.123 41.2078 60.0722 41.2292C60.0214 41.2505 59.9668 41.2615 59.9117 41.2615V41.2615Z" fill="black"/>
<path opacity="0.2" d="M54.0055 41.2615C53.8934 41.2615 53.786 41.217 53.7067 41.1377C53.6275 41.0585 53.583 40.951 53.583 40.839V34.4933C53.583 34.3812 53.6275 34.2738 53.7067 34.1945C53.786 34.1153 53.8934 34.0708 54.0055 34.0708C54.0606 34.0708 54.1151 34.0818 54.1659 34.1031C54.2167 34.1244 54.2627 34.1557 54.3013 34.195C54.3398 34.2344 54.3702 34.281 54.3905 34.3322C54.4108 34.3835 54.4206 34.4382 54.4195 34.4933V40.839C54.4206 40.8941 54.4108 40.9488 54.3905 41C54.3702 41.0512 54.3398 41.0979 54.3013 41.1372C54.2627 41.1766 54.2167 41.2078 54.1659 41.2292C54.1151 41.2505 54.0606 41.2615 54.0055 41.2615Z" fill="black"/>
<path opacity="0.2" d="M47.4561 41.2615C47.401 41.2615 47.3465 41.2505 47.2957 41.2292C47.2449 41.2078 47.1989 41.1766 47.1603 41.1372C47.1218 41.0979 47.0914 41.0512 47.0711 41C47.0508 40.9488 47.041 40.8941 47.0421 40.839V34.4933C47.041 34.4382 47.0508 34.3835 47.0711 34.3322C47.0914 34.281 47.1218 34.2344 47.1603 34.195C47.1989 34.1557 47.2449 34.1244 47.2957 34.1031C47.3465 34.0818 47.401 34.0708 47.4561 34.0708V34.0708C47.5682 34.0708 47.6756 34.1153 47.7549 34.1945C47.8341 34.2738 47.8786 34.3812 47.8786 34.4933V40.839C47.8786 40.951 47.8341 41.0585 47.7549 41.1377C47.6756 41.217 47.5682 41.2615 47.4561 41.2615Z" fill="black"/>
<path opacity="0.2" d="M64.753 41.2615C64.6979 41.2615 64.6434 41.2505 64.5926 41.2292C64.5418 41.2078 64.4958 41.1766 64.4572 41.1372C64.4186 41.0979 64.3883 41.0512 64.368 41C64.3477 40.9488 64.3378 40.8941 64.339 40.839V34.4933C64.3378 34.4382 64.3477 34.3835 64.368 34.3322C64.3883 34.281 64.4186 34.2344 64.4572 34.195C64.4958 34.1557 64.5418 34.1244 64.5926 34.1031C64.6434 34.0818 64.6979 34.0708 64.753 34.0708V34.0708C64.865 34.0708 64.9725 34.1153 65.0517 34.1945C65.131 34.2738 65.1755 34.3812 65.1755 34.4933V40.839C65.1755 40.951 65.131 41.0585 65.0517 41.1377C64.9725 41.217 64.865 41.2615 64.753 41.2615Z" fill="black"/>
<path opacity="0.2" d="M21.8707 34.0708C21.9258 34.0708 21.9804 34.0818 22.0311 34.1031C22.0819 34.1244 22.128 34.1557 22.1665 34.195C22.2051 34.2344 22.2354 34.281 22.2557 34.3322C22.276 34.3835 22.2859 34.4382 22.2848 34.4933V40.839C22.2859 40.8941 22.276 40.9488 22.2557 41C22.2354 41.0512 22.2051 41.0979 22.1665 41.1372C22.128 41.1766 22.0819 41.2078 22.0311 41.2292C21.9804 41.2505 21.9258 41.2615 21.8707 41.2615V41.2615C21.7587 41.2615 21.6512 41.217 21.572 41.1377C21.4928 41.0585 21.4482 40.951 21.4482 40.839V34.4933C21.4482 34.3812 21.4928 34.2738 21.572 34.1945C21.6512 34.1153 21.7587 34.0708 21.8707 34.0708Z" fill="black"/>
<path opacity="0.2" d="M27.7686 34.0708C27.8807 34.0708 27.9881 34.1153 28.0674 34.1945C28.1466 34.2738 28.1911 34.3812 28.1911 34.4933V40.839C28.1911 40.951 28.1466 41.0585 28.0674 41.1377C27.9881 41.217 27.8807 41.2615 27.7686 41.2615C27.7135 41.2615 27.659 41.2505 27.6082 41.2292C27.5574 41.2078 27.5114 41.1766 27.4728 41.1372C27.4343 41.0979 27.4039 41.0512 27.3836 41C27.3633 40.9488 27.3535 40.8941 27.3546 40.839V34.4933C27.3535 34.4382 27.3633 34.3835 27.3836 34.3322C27.4039 34.281 27.4343 34.2344 27.4728 34.195C27.5114 34.1557 27.5574 34.1244 27.6082 34.1031C27.659 34.0818 27.7135 34.0708 27.7686 34.0708V34.0708Z" fill="black"/>
<path opacity="0.2" d="M34.3174 34.0708C34.4295 34.0708 34.5369 34.1153 34.6162 34.1945C34.6954 34.2738 34.7399 34.3812 34.7399 34.4933V40.839C34.7399 40.951 34.6954 41.0585 34.6162 41.1377C34.5369 41.217 34.4295 41.2615 34.3174 41.2615C34.2623 41.2615 34.2078 41.2505 34.157 41.2292C34.1062 41.2078 34.0602 41.1766 34.0216 41.1372C33.9831 41.0979 33.9528 41.0512 33.9325 41C33.9122 40.9488 33.9023 40.8941 33.9034 40.839V34.4933C33.9023 34.4382 33.9122 34.3835 33.9325 34.3322C33.9528 34.281 33.9831 34.2344 34.0216 34.195C34.0602 34.1557 34.1062 34.1244 34.157 34.1031C34.2078 34.0818 34.2623 34.0708 34.3174 34.0708V34.0708Z" fill="black"/>
<path opacity="0.2" d="M17.0211 34.0708C17.0762 34.0708 17.1307 34.0818 17.1815 34.1031C17.2323 34.1244 17.2784 34.1557 17.3169 34.195C17.3555 34.2344 17.3858 34.281 17.4061 34.3322C17.4264 34.3835 17.4363 34.4382 17.4351 34.4933V40.839C17.4363 40.8941 17.4264 40.9488 17.4061 41C17.3858 41.0512 17.3555 41.0979 17.3169 41.1372C17.2784 41.1766 17.2323 41.2078 17.1815 41.2292C17.1307 41.2505 17.0762 41.2615 17.0211 41.2615V41.2615C16.9091 41.2615 16.8016 41.217 16.7224 41.1377C16.6431 41.0585 16.5986 40.951 16.5986 40.839V34.4933C16.5986 34.3812 16.6431 34.2738 16.7224 34.1945C16.8016 34.1153 16.9091 34.0708 17.0211 34.0708Z" fill="black"/>
<path opacity="0.2" d="M40.8912 41.2615C40.7792 41.2615 40.6717 41.217 40.5925 41.1377C40.5133 41.0585 40.4688 40.951 40.4688 40.839V34.4933C40.4688 34.3812 40.5133 34.2738 40.5925 34.1945C40.6717 34.1153 40.7792 34.0708 40.8912 34.0708C40.9463 34.0708 41.0009 34.0818 41.0517 34.1031C41.1024 34.1244 41.1485 34.1557 41.187 34.195C41.2256 34.2344 41.2559 34.281 41.2762 34.3322C41.2965 34.3835 41.3064 34.4382 41.3053 34.4933V40.839C41.3064 40.8941 41.2965 40.9488 41.2762 41C41.2559 41.0512 41.2256 41.0979 41.187 41.1372C41.1485 41.1766 41.1024 41.2078 41.0517 41.2292C41.0009 41.2505 40.9463 41.2615 40.8912 41.2615V41.2615Z" fill="black"/>
<path d="M67.93 25.2324H18.5079C17.8779 25.2324 17.3672 25.7431 17.3672 26.3731V32.3048C17.3672 32.9348 17.8779 33.4455 18.5079 33.4455H67.93C68.56 33.4455 69.0708 32.9348 69.0708 32.3048V26.3731C69.0708 25.7431 68.56 25.2324 67.93 25.2324Z" fill="#FF5C8A"/>
<path opacity="0.5" d="M67.93 25.2324H18.5079C17.8779 25.2324 17.3672 25.7431 17.3672 26.3731V32.3048C17.3672 32.9348 17.8779 33.4455 18.5079 33.4455H67.93C68.56 33.4455 69.0708 32.9348 69.0708 32.3048V26.3731C69.0708 25.7431 68.56 25.2324 67.93 25.2324Z" fill="white"/>
<path opacity="0.2" d="M62.2438 32.9302C62.1317 32.9302 62.0243 32.8857 61.945 32.8064C61.8658 32.7272 61.8213 32.6198 61.8213 32.5077V26.162C61.8235 26.0506 61.8687 25.9444 61.9474 25.8656C62.0262 25.7869 62.1324 25.7417 62.2438 25.7395C62.3544 25.7417 62.4597 25.7872 62.5371 25.8662C62.6145 25.9452 62.6578 26.0514 62.6578 26.162V32.5077C62.6589 32.5628 62.6491 32.6175 62.6288 32.6687C62.6084 32.7199 62.5781 32.7666 62.5396 32.8059C62.501 32.8453 62.455 32.8765 62.4042 32.8979C62.3534 32.9192 62.2989 32.9302 62.2438 32.9302V32.9302Z" fill="black"/>
<path opacity="0.2" d="M56.3375 32.9302C56.2255 32.9302 56.118 32.8857 56.0388 32.8064C55.9596 32.7272 55.915 32.6198 55.915 32.5077V26.162C55.9172 26.0506 55.9624 25.9444 56.0412 25.8656C56.1199 25.7869 56.2262 25.7417 56.3375 25.7395C56.4481 25.7417 56.5534 25.7872 56.6308 25.8662C56.7082 25.9452 56.7516 26.0514 56.7516 26.162V32.5077C56.7527 32.5628 56.7428 32.6175 56.7225 32.6687C56.7022 32.7199 56.6719 32.7666 56.6333 32.8059C56.5948 32.8453 56.5487 32.8765 56.4979 32.8979C56.4471 32.9192 56.3926 32.9302 56.3375 32.9302V32.9302Z" fill="black"/>
<path opacity="0.2" d="M49.7891 32.9302C49.734 32.9302 49.6795 32.9192 49.6287 32.8979C49.5779 32.8765 49.5319 32.8453 49.4933 32.8059C49.4548 32.7666 49.4244 32.7199 49.4041 32.6687C49.3838 32.6175 49.374 32.5628 49.3751 32.5077V26.162C49.3751 26.0514 49.4184 25.9452 49.4958 25.8662C49.5732 25.7872 49.6785 25.7417 49.7891 25.7395C49.9005 25.7417 50.0067 25.7869 50.0855 25.8656C50.1642 25.9444 50.2094 26.0506 50.2116 26.162V32.5077C50.2116 32.6198 50.1671 32.7272 50.0879 32.8064C50.0086 32.8857 49.9012 32.9302 49.7891 32.9302Z" fill="black"/>
<path opacity="0.2" d="M67.085 32.9302C67.0299 32.9302 66.9754 32.9192 66.9246 32.8979C66.8738 32.8765 66.8278 32.8453 66.7892 32.8059C66.7507 32.7666 66.7203 32.7199 66.7 32.6687C66.6797 32.6175 66.6699 32.5628 66.671 32.5077V26.162C66.671 26.0514 66.7143 25.9452 66.7917 25.8662C66.8691 25.7872 66.9744 25.7417 67.085 25.7395C67.1971 25.7395 67.3045 25.784 67.3838 25.8633C67.463 25.9425 67.5075 26.0499 67.5075 26.162V32.5077C67.5075 32.6198 67.463 32.7272 67.3838 32.8064C67.3045 32.8857 67.1971 32.9302 67.085 32.9302Z" fill="black"/>
<path opacity="0.2" d="M24.2028 25.7395C24.3133 25.7417 24.4186 25.7872 24.4961 25.8662C24.5735 25.9452 24.6168 26.0514 24.6168 26.162V32.5077C24.6179 32.5628 24.608 32.6175 24.5877 32.6687C24.5674 32.7199 24.5371 32.7666 24.4986 32.8059C24.46 32.8453 24.414 32.8765 24.3632 32.8979C24.3124 32.9192 24.2578 32.9302 24.2028 32.9302V32.9302C24.0907 32.9302 23.9832 32.8857 23.904 32.8064C23.8248 32.7272 23.7803 32.6198 23.7803 32.5077V26.162C23.7803 26.0499 23.8248 25.9425 23.904 25.8633C23.9832 25.784 24.0907 25.7395 24.2028 25.7395Z" fill="black"/>
<path opacity="0.2" d="M30.1006 25.7395C30.2127 25.7395 30.3202 25.784 30.3994 25.8633C30.4786 25.9425 30.5231 26.0499 30.5231 26.162V32.5077C30.5231 32.6198 30.4786 32.7272 30.3994 32.8064C30.3202 32.8857 30.2127 32.9302 30.1006 32.9302C30.0456 32.9302 29.991 32.9192 29.9402 32.8979C29.8894 32.8765 29.8434 32.8453 29.8049 32.8059C29.7663 32.7666 29.736 32.7199 29.7157 32.6687C29.6954 32.6175 29.6855 32.5628 29.6866 32.5077V26.162C29.6866 26.0514 29.7299 25.9452 29.8074 25.8662C29.8848 25.7872 29.9901 25.7417 30.1006 25.7395Z" fill="black"/>
<path opacity="0.2" d="M36.6495 25.7395C36.7608 25.7417 36.8671 25.7869 36.9458 25.8656C37.0246 25.9444 37.0698 26.0506 37.072 26.162V32.5077C37.072 32.6198 37.0274 32.7272 36.9482 32.8064C36.869 32.8857 36.7615 32.9302 36.6495 32.9302C36.5944 32.9302 36.5398 32.9192 36.4891 32.8979C36.4383 32.8765 36.3922 32.8453 36.3537 32.8059C36.3151 32.7666 36.2848 32.7199 36.2645 32.6687C36.2442 32.6175 36.2343 32.5628 36.2354 32.5077V26.162C36.2354 26.0514 36.2788 25.9452 36.3562 25.8662C36.4336 25.7872 36.5389 25.7417 36.6495 25.7395Z" fill="black"/>
<path opacity="0.2" d="M19.3531 25.7395C19.4637 25.7417 19.569 25.7872 19.6464 25.8662C19.7239 25.9452 19.7672 26.0514 19.7672 26.162V32.5077C19.7683 32.5628 19.7584 32.6175 19.7381 32.6687C19.7178 32.7199 19.6875 32.7666 19.6489 32.8059C19.6104 32.8453 19.5644 32.8765 19.5136 32.8979C19.4628 32.9192 19.4082 32.9302 19.3531 32.9302C19.2411 32.9302 19.1336 32.8857 19.0544 32.8064C18.9752 32.7272 18.9307 32.6198 18.9307 32.5077V26.162C18.9328 26.0506 18.978 25.9444 19.0568 25.8656C19.1356 25.7869 19.2418 25.7417 19.3531 25.7395Z" fill="black"/>
<path opacity="0.2" d="M43.2233 32.9302C43.1112 32.9302 43.0038 32.8857 42.9245 32.8064C42.8453 32.7272 42.8008 32.6198 42.8008 32.5077V26.162C42.8008 26.0499 42.8453 25.9425 42.9245 25.8633C43.0038 25.784 43.1112 25.7395 43.2233 25.7395C43.3338 25.7417 43.4391 25.7872 43.5166 25.8662C43.594 25.9452 43.6373 26.0514 43.6373 26.162V32.5077C43.6384 32.5628 43.6285 32.6175 43.6082 32.6687C43.5879 32.7199 43.5576 32.7666 43.5191 32.8059C43.4805 32.8453 43.4345 32.8765 43.3837 32.8979C43.3329 32.9192 43.2784 32.9302 43.2233 32.9302V32.9302Z" fill="black"/>
<path d="M66.0375 16.9011H16.6153C15.9853 16.9011 15.4746 17.4118 15.4746 18.0418V23.9735C15.4746 24.6035 15.9853 25.1142 16.6153 25.1142H66.0375C66.6675 25.1142 67.1782 24.6035 67.1782 23.9735V18.0418C67.1782 17.4118 66.6675 16.9011 66.0375 16.9011Z" fill="#FF5C8A"/>
<path opacity="0.5" d="M66.0375 16.9011H16.6153C15.9853 16.9011 15.4746 17.4118 15.4746 18.0418V23.9735C15.4746 24.6035 15.9853 25.1142 16.6153 25.1142H66.0375C66.6675 25.1142 67.1782 24.6035 67.1782 23.9735V18.0418C67.1782 17.4118 66.6675 16.9011 66.0375 16.9011Z" fill="white"/>
<path opacity="0.2" d="M60.3512 24.5988C60.2961 24.5999 60.2414 24.5901 60.1902 24.5698C60.1389 24.5495 60.0923 24.5191 60.0529 24.4806C60.0136 24.442 59.9824 24.396 59.961 24.3452C59.9397 24.2944 59.9287 24.2399 59.9287 24.1848V17.8306C59.9287 17.7755 59.9397 17.721 59.961 17.6702C59.9824 17.6194 60.0136 17.5734 60.0529 17.5348C60.0923 17.4963 60.1389 17.4659 60.1902 17.4456C60.2414 17.4253 60.2961 17.4155 60.3512 17.4166C60.4056 17.4166 60.4594 17.4273 60.5096 17.4481C60.5599 17.4689 60.6055 17.4994 60.644 17.5378C60.6824 17.5763 60.7129 17.6219 60.7337 17.6722C60.7545 17.7224 60.7652 17.7762 60.7652 17.8306V24.1848C60.7652 24.2391 60.7545 24.293 60.7337 24.3432C60.7129 24.3935 60.6824 24.4391 60.644 24.4775C60.6055 24.516 60.5599 24.5465 60.5096 24.5673C60.4594 24.5881 60.4056 24.5988 60.3512 24.5988Z" fill="black"/>
<path opacity="0.2" d="M54.444 24.5988C54.3889 24.5999 54.3341 24.5901 54.2829 24.5698C54.2317 24.5495 54.1851 24.5191 54.1457 24.4806C54.1064 24.442 54.0751 24.396 54.0538 24.3452C54.0325 24.2944 54.0215 24.2399 54.0215 24.1848V17.8306C54.0215 17.7755 54.0325 17.721 54.0538 17.6702C54.0751 17.6194 54.1064 17.5734 54.1457 17.5348C54.1851 17.4963 54.2317 17.4659 54.2829 17.4456C54.3341 17.4253 54.3889 17.4155 54.444 17.4166V17.4166C54.5538 17.4166 54.6591 17.4602 54.7367 17.5378C54.8144 17.6155 54.858 17.7208 54.858 17.8306V24.1848C54.858 24.2946 54.8144 24.3999 54.7367 24.4775C54.6591 24.5552 54.5538 24.5988 54.444 24.5988Z" fill="black"/>
<path opacity="0.2" d="M47.8961 24.5987C47.7855 24.5988 47.6793 24.5554 47.6003 24.478C47.5213 24.4006 47.4758 24.2953 47.4736 24.1847V17.8305C47.4758 17.72 47.5213 17.6146 47.6003 17.5372C47.6793 17.4598 47.7855 17.4165 47.8961 17.4165V17.4165C48.0059 17.4165 48.1112 17.4601 48.1889 17.5378C48.2665 17.6154 48.3101 17.7207 48.3101 17.8305V24.1847C48.3101 24.2945 48.2665 24.3998 48.1889 24.4775C48.1112 24.5551 48.0059 24.5987 47.8961 24.5987Z" fill="black"/>
<path opacity="0.2" d="M65.1923 24.5987C65.138 24.5987 65.0841 24.588 65.0339 24.5672C64.9837 24.5464 64.938 24.5159 64.8996 24.4775C64.8611 24.439 64.8306 24.3934 64.8098 24.3431C64.789 24.2929 64.7783 24.239 64.7783 24.1847V17.8305C64.7783 17.7762 64.789 17.7223 64.8098 17.6721C64.8306 17.6218 64.8611 17.5762 64.8996 17.5378C64.938 17.4993 64.9837 17.4688 65.0339 17.448C65.0841 17.4272 65.138 17.4165 65.1923 17.4165C65.3029 17.4165 65.4091 17.4598 65.4881 17.5372C65.5671 17.6146 65.6126 17.72 65.6148 17.8305V24.1847C65.6126 24.2953 65.5671 24.4006 65.4881 24.478C65.4091 24.5554 65.3029 24.5988 65.1923 24.5987V24.5987Z" fill="black"/>
<path opacity="0.2" d="M22.3017 17.4165C22.4123 17.4165 22.5185 17.4598 22.5975 17.5372C22.6765 17.6146 22.722 17.72 22.7242 17.8305V24.1847C22.722 24.2953 22.6765 24.4006 22.5975 24.478C22.5185 24.5554 22.4123 24.5988 22.3017 24.5987V24.5987C22.1919 24.5987 22.0866 24.5551 22.009 24.4775C21.9313 24.3998 21.8877 24.2945 21.8877 24.1847V17.8305C21.8877 17.7207 21.9313 17.6154 22.009 17.5378C22.0866 17.4601 22.1919 17.4165 22.3017 17.4165Z" fill="black"/>
<path opacity="0.2" d="M28.208 17.4165C28.3186 17.4165 28.4248 17.4598 28.5038 17.5372C28.5828 17.6146 28.6282 17.72 28.6305 17.8305V24.1847C28.6282 24.2953 28.5828 24.4006 28.5038 24.478C28.4248 24.5554 28.3186 24.5988 28.208 24.5987V24.5987C28.0982 24.5987 27.9929 24.5551 27.9152 24.4775C27.8376 24.3998 27.7939 24.2945 27.7939 24.1847V17.8305C27.7939 17.7207 27.8376 17.6154 27.9152 17.5378C27.9929 17.4601 28.0982 17.4165 28.208 17.4165Z" fill="black"/>
<path opacity="0.2" d="M34.7565 17.4165C34.8663 17.4165 34.9716 17.4601 35.0492 17.5378C35.1269 17.6154 35.1705 17.7207 35.1705 17.8305V24.1847C35.1705 24.2945 35.1269 24.3998 35.0492 24.4775C34.9716 24.5551 34.8663 24.5987 34.7565 24.5987C34.6459 24.5988 34.5397 24.5554 34.4607 24.478C34.3817 24.4006 34.3362 24.2953 34.334 24.1847V17.8305C34.3362 17.72 34.3817 17.6146 34.4607 17.5372C34.5397 17.4598 34.6459 17.4165 34.7565 17.4165V17.4165Z" fill="black"/>
<path opacity="0.2" d="M17.4606 17.4166C17.5704 17.4166 17.6757 17.4602 17.7533 17.5378C17.831 17.6155 17.8746 17.7208 17.8746 17.8306V24.1848C17.8746 24.2946 17.831 24.3999 17.7533 24.4775C17.6757 24.5552 17.5704 24.5988 17.4606 24.5988V24.5988C17.4055 24.5999 17.3507 24.5901 17.2995 24.5698C17.2483 24.5495 17.2017 24.5191 17.1623 24.4806C17.123 24.442 17.0917 24.396 17.0704 24.3452C17.0491 24.2944 17.0381 24.2399 17.0381 24.1848V17.8306C17.0381 17.7755 17.0491 17.721 17.0704 17.6702C17.0917 17.6194 17.123 17.5734 17.1623 17.5348C17.2017 17.4963 17.2483 17.4659 17.2995 17.4456C17.3507 17.4253 17.4055 17.4155 17.4606 17.4166V17.4166Z" fill="black"/>
<path opacity="0.2" d="M41.3222 24.5988C41.2124 24.5988 41.1071 24.5552 41.0295 24.4775C40.9518 24.3999 40.9082 24.2946 40.9082 24.1848V17.8306C40.9082 17.7208 40.9518 17.6155 41.0295 17.5378C41.1071 17.4602 41.2124 17.4166 41.3222 17.4166C41.3773 17.4155 41.4321 17.4253 41.4833 17.4456C41.5345 17.4659 41.5811 17.4963 41.6205 17.5348C41.6598 17.5734 41.6911 17.6194 41.7124 17.6702C41.7337 17.721 41.7447 17.7755 41.7447 17.8306V24.1848C41.7447 24.2399 41.7337 24.2944 41.7124 24.3452C41.6911 24.396 41.6598 24.442 41.6205 24.4806C41.5811 24.5191 41.5345 24.5495 41.4833 24.5698C41.4321 24.5901 41.3773 24.5999 41.3222 24.5988Z" fill="black"/>
<path d="M68.3695 8.56958H18.9473C18.3174 8.56958 17.8066 9.08027 17.8066 9.71027V15.642C17.8066 16.2719 18.3174 16.7827 18.9473 16.7827H68.3695C68.9995 16.7827 69.5102 16.2719 69.5102 15.642V9.71027C69.5102 9.08027 68.9995 8.56958 68.3695 8.56958Z" fill="#FF5C8A"/>
<path opacity="0.5" d="M68.3695 8.56958H18.9473C18.3174 8.56958 17.8066 9.08027 17.8066 9.71027V15.642C17.8066 16.2719 18.3174 16.7827 18.9473 16.7827H68.3695C68.9995 16.7827 69.5102 16.2719 69.5102 15.642V9.71027C69.5102 9.08027 68.9995 8.56958 68.3695 8.56958Z" fill="white"/>
<path opacity="0.2" d="M62.6832 16.2673C62.6281 16.2684 62.5734 16.2585 62.5222 16.2382C62.471 16.2179 62.4243 16.1876 62.385 16.149C62.3456 16.1105 62.3144 16.0645 62.2931 16.0137C62.2717 15.9629 62.2607 15.9083 62.2607 15.8532V9.49907C62.2607 9.44398 62.2717 9.38945 62.2931 9.33866C62.3144 9.28786 62.3456 9.24184 62.385 9.20328C62.4243 9.16472 62.471 9.13441 62.5222 9.11411C62.5734 9.09381 62.6281 9.08392 62.6832 9.08505C62.793 9.08505 62.8984 9.12867 62.976 9.20632C63.0537 9.28397 63.0973 9.38926 63.0973 9.49907V15.8194C63.1019 15.8766 63.0947 15.9341 63.076 15.9883C63.0573 16.0425 63.0276 16.0922 62.9886 16.1343C62.9497 16.1764 62.9025 16.21 62.8499 16.2328C62.7973 16.2557 62.7406 16.2675 62.6832 16.2673V16.2673Z" fill="black"/>
<path opacity="0.2" d="M56.777 16.2673C56.7219 16.2684 56.6672 16.2585 56.6159 16.2382C56.5647 16.2179 56.5181 16.1876 56.4787 16.149C56.4394 16.1105 56.4081 16.0645 56.3868 16.0137C56.3655 15.9629 56.3545 15.9083 56.3545 15.8532V9.49907C56.3545 9.44398 56.3655 9.38945 56.3868 9.33866C56.4081 9.28786 56.4394 9.24184 56.4787 9.20328C56.5181 9.16472 56.5647 9.13441 56.6159 9.11411C56.6672 9.09381 56.7219 9.08392 56.777 9.08505C56.8868 9.08505 56.9921 9.12867 57.0697 9.20632C57.1474 9.28397 57.191 9.38926 57.191 9.49907V15.8194C57.1957 15.8766 57.1885 15.9341 57.1698 15.9883C57.1511 16.0425 57.1213 16.0922 57.0824 16.1343C57.0434 16.1764 56.9962 16.21 56.9436 16.2328C56.8911 16.2557 56.8343 16.2675 56.777 16.2673V16.2673Z" fill="black"/>
<path opacity="0.2" d="M50.2285 16.2674C50.1187 16.2674 50.0134 16.2238 49.9357 16.1462C49.8581 16.0685 49.8145 15.9632 49.8145 15.8534V9.49923C49.8145 9.38942 49.8581 9.28412 49.9357 9.20648C50.0134 9.12883 50.1187 9.08521 50.2285 9.08521C50.3383 9.08521 50.4436 9.12883 50.5213 9.20648C50.5989 9.28412 50.6425 9.38942 50.6425 9.49923V15.8196C50.6472 15.8767 50.64 15.9342 50.6213 15.9884C50.6026 16.0426 50.5728 16.0924 50.5339 16.1345C50.495 16.1766 50.4477 16.2101 50.3951 16.233C50.3426 16.2559 50.2858 16.2676 50.2285 16.2674V16.2674Z" fill="black"/>
<path opacity="0.2" d="M67.5244 16.2674C67.4146 16.2674 67.3093 16.2238 67.2316 16.1462C67.154 16.0685 67.1104 15.9632 67.1104 15.8534V9.49923C67.1104 9.38942 67.154 9.28412 67.2316 9.20648C67.3093 9.12883 67.4146 9.08521 67.5244 9.08521C67.635 9.08518 67.7412 9.12852 67.8202 9.20594C67.8992 9.28335 67.9447 9.38865 67.9469 9.49923V15.8196C67.9503 15.8772 67.942 15.9348 67.9223 15.9891C67.9026 16.0433 67.872 16.0929 67.8325 16.1349C67.7929 16.1768 67.7451 16.2102 67.6921 16.233C67.6392 16.2558 67.5821 16.2675 67.5244 16.2674Z" fill="black"/>
<path opacity="0.2" d="M24.6338 9.05966C24.6888 9.05853 24.7436 9.06841 24.7948 9.08872C24.846 9.10902 24.8927 9.13933 24.932 9.17789C24.9714 9.21645 25.0026 9.26247 25.0239 9.31327C25.0453 9.36406 25.0563 9.41859 25.0562 9.47368V15.8194C25.0563 15.8745 25.0453 15.929 25.0239 15.9798C25.0026 16.0306 24.9714 16.0766 24.932 16.1152C24.8927 16.1538 24.846 16.1841 24.7948 16.2044C24.7436 16.2247 24.6888 16.2345 24.6338 16.2334C24.524 16.2334 24.4186 16.1898 24.341 16.1122C24.2633 16.0345 24.2197 15.9292 24.2197 15.8194V9.46525C24.2219 9.35691 24.2665 9.25374 24.3439 9.17791C24.4213 9.10208 24.5254 9.05963 24.6338 9.05966Z" fill="black"/>
<path opacity="0.2" d="M30.54 9.05981C30.6506 9.05979 30.7568 9.10313 30.8358 9.18055C30.9148 9.25796 30.9603 9.36326 30.9625 9.47384V15.8196C30.9603 15.9301 30.9148 16.0354 30.8358 16.1128C30.7568 16.1903 30.6506 16.2336 30.54 16.2336V16.2336C30.4302 16.2336 30.3249 16.19 30.2472 16.1123C30.1696 16.0347 30.126 15.9294 30.126 15.8196V9.46541C30.1282 9.35707 30.1728 9.2539 30.2502 9.17807C30.3276 9.10224 30.4316 9.05979 30.54 9.05981Z" fill="black"/>
<path opacity="0.2" d="M37.0888 9.05981C37.1432 9.05981 37.197 9.07052 37.2473 9.09133C37.2975 9.11213 37.3432 9.14264 37.3816 9.18109C37.42 9.21953 37.4506 9.26518 37.4714 9.31541C37.4922 9.36564 37.5029 9.41947 37.5029 9.47384V15.8196C37.5029 15.9294 37.4592 16.0347 37.3816 16.1123C37.304 16.19 37.1986 16.2336 37.0888 16.2336C36.979 16.2336 36.8737 16.19 36.7961 16.1123C36.7184 16.0347 36.6748 15.9294 36.6748 15.8196V9.46541C36.677 9.35707 36.7216 9.2539 36.799 9.17807C36.8764 9.10224 36.9805 9.05979 37.0888 9.05981Z" fill="black"/>
<path opacity="0.2" d="M19.7926 9.05981C19.847 9.05981 19.9008 9.07052 19.951 9.09133C20.0013 9.11213 20.0469 9.14264 20.0854 9.18109C20.1238 9.21953 20.1543 9.26518 20.1751 9.31541C20.1959 9.36564 20.2066 9.41947 20.2066 9.47384V15.8196C20.2066 15.9294 20.163 16.0347 20.0854 16.1123C20.0077 16.19 19.9024 16.2336 19.7926 16.2336C19.682 16.2336 19.5758 16.1903 19.4968 16.1128C19.4178 16.0354 19.3723 15.9301 19.3701 15.8196V9.46541C19.3745 9.35631 19.4209 9.25314 19.4997 9.17753C19.5784 9.10192 19.6834 9.05973 19.7926 9.05981Z" fill="black"/>
<path opacity="0.2" d="M43.6543 16.2673C43.5445 16.2673 43.4391 16.2236 43.3615 16.146C43.2839 16.0684 43.2402 15.9631 43.2402 15.8532V9.49907C43.2402 9.38926 43.2839 9.28397 43.3615 9.20632C43.4391 9.12867 43.5445 9.08505 43.6543 9.08505C43.7094 9.08392 43.7641 9.09381 43.8153 9.11411C43.8665 9.13441 43.9132 9.16472 43.9525 9.20328C43.9919 9.24184 44.0231 9.28786 44.0444 9.33866C44.0658 9.38945 44.0768 9.44398 44.0768 9.49907V15.8194C44.0815 15.8773 44.074 15.9355 44.0548 15.9903C44.0356 16.0451 44.0051 16.0952 43.9653 16.1375C43.9254 16.1797 43.8772 16.2131 43.8236 16.2355C43.77 16.2578 43.7123 16.2687 43.6543 16.2673V16.2673Z" fill="black"/>
<path d="M68.1664 0.238281H18.7442C18.1142 0.238281 17.6035 0.748998 17.6035 1.37899V7.31066C17.6035 7.94065 18.1142 8.45137 18.7442 8.45137H68.1664C68.7964 8.45137 69.3071 7.94065 69.3071 7.31066V1.37899C69.3071 0.748998 68.7964 0.238281 68.1664 0.238281Z" fill="#FF5C8A"/>
<path opacity="0.5" d="M68.1664 0.238281H18.7442C18.1142 0.238281 17.6035 0.748998 17.6035 1.37899V7.31066C17.6035 7.94065 18.1142 8.45137 18.7442 8.45137H68.1664C68.7964 8.45137 69.3071 7.94065 69.3071 7.31066V1.37899C69.3071 0.748998 68.7964 0.238281 68.1664 0.238281Z" fill="white"/>
<path opacity="0.2" d="M62.4716 7.93597C62.4173 7.93597 62.3634 7.92524 62.3132 7.90444C62.263 7.88363 62.2173 7.85315 62.1789 7.8147C62.1404 7.77625 62.1099 7.73061 62.0891 7.68038C62.0683 7.63015 62.0576 7.57629 62.0576 7.52192V1.16777C62.0576 1.1134 62.0683 1.05955 62.0891 1.00932C62.1099 0.959084 62.1404 0.913443 62.1789 0.874996C62.2173 0.836549 62.263 0.806067 62.3132 0.785259C62.3634 0.764452 62.4173 0.753749 62.4716 0.753749V0.753749C62.5267 0.752624 62.5815 0.762481 62.6327 0.782784C62.6839 0.803087 62.7305 0.83342 62.7699 0.871979C62.8092 0.910538 62.8405 0.956566 62.8618 1.00736C62.8832 1.05815 62.8941 1.11268 62.8941 1.16777V7.52192C62.8941 7.57701 62.8832 7.63155 62.8618 7.68234C62.8405 7.73313 62.8092 7.77916 62.7699 7.81772C62.7305 7.85628 62.6839 7.88661 62.6327 7.90691C62.5815 7.92721 62.5267 7.9371 62.4716 7.93597Z" fill="black"/>
<path opacity="0.2" d="M56.5739 7.93597C56.5188 7.9371 56.464 7.92721 56.4128 7.90691C56.3616 7.88661 56.315 7.85628 56.2756 7.81772C56.2363 7.77916 56.205 7.73313 56.1837 7.68234C56.1623 7.63155 56.1514 7.57701 56.1514 7.52192V1.16777C56.1514 1.11268 56.1623 1.05815 56.1837 1.00736C56.205 0.956566 56.2363 0.910538 56.2756 0.871979C56.315 0.83342 56.3616 0.803087 56.4128 0.782784C56.464 0.762481 56.5188 0.752624 56.5739 0.753749V0.753749C56.6837 0.753749 56.789 0.79735 56.8666 0.874996C56.9443 0.952642 56.9879 1.05797 56.9879 1.16777V7.52192C56.9879 7.63173 56.9443 7.73705 56.8666 7.8147C56.789 7.89235 56.6837 7.93597 56.5739 7.93597Z" fill="black"/>
<path opacity="0.2" d="M50.025 7.93589C49.9144 7.93591 49.8082 7.89254 49.7292 7.81513C49.6502 7.73772 49.6048 7.63241 49.6025 7.52184V1.16769C49.6048 1.05711 49.6502 0.951807 49.7292 0.874394C49.8082 0.796981 49.9144 0.75364 50.025 0.753662V0.753662C50.1348 0.753662 50.2401 0.797263 50.3178 0.87491C50.3954 0.952556 50.4391 1.05788 50.4391 1.16769V7.52184C50.4391 7.63164 50.3954 7.73697 50.3178 7.81461C50.2401 7.89226 50.1348 7.93589 50.025 7.93589Z" fill="black"/>
<path opacity="0.2" d="M67.3213 7.93589C67.2669 7.93589 67.2131 7.92516 67.1628 7.90435C67.1126 7.88354 67.0669 7.85306 67.0285 7.81461C66.9901 7.77617 66.9596 7.73053 66.9388 7.68029C66.9179 7.63006 66.9072 7.57621 66.9072 7.52184V1.16769C66.9072 1.11332 66.9179 1.05946 66.9388 1.00923C66.9596 0.958998 66.9901 0.913356 67.0285 0.87491C67.0669 0.836463 67.1126 0.80598 67.1628 0.785173C67.2131 0.764366 67.2669 0.753662 67.3213 0.753662C67.4319 0.75364 67.5381 0.796981 67.6171 0.874394C67.6961 0.951807 67.7415 1.05711 67.7437 1.16769V7.52184C67.7415 7.63241 67.6961 7.73772 67.6171 7.81513C67.5381 7.89254 67.4319 7.93591 67.3213 7.93589V7.93589Z" fill="black"/>
<path opacity="0.2" d="M24.4316 0.753662C24.5422 0.75364 24.6484 0.796981 24.7274 0.874394C24.8064 0.951807 24.8519 1.05711 24.8541 1.16769V7.52184C24.8519 7.63241 24.8064 7.73772 24.7274 7.81513C24.6484 7.89254 24.5422 7.93591 24.4316 7.93589V7.93589C24.3218 7.93589 24.2165 7.89226 24.1388 7.81461C24.0612 7.73697 24.0176 7.63164 24.0176 7.52184V1.16769C24.0176 1.05788 24.0612 0.952556 24.1388 0.87491C24.2165 0.797263 24.3218 0.753662 24.4316 0.753662Z" fill="black"/>
<path opacity="0.2" d="M30.3379 0.753662C30.4485 0.75364 30.5547 0.796981 30.6336 0.874394C30.7126 0.951807 30.7581 1.05711 30.7603 1.16769V7.52184C30.7581 7.63241 30.7126 7.73772 30.6336 7.81513C30.5547 7.89254 30.4485 7.93591 30.3379 7.93589V7.93589C30.2281 7.93589 30.1227 7.89226 30.0451 7.81461C29.9674 7.73697 29.9238 7.63164 29.9238 7.52184V1.16769C29.9238 1.05788 29.9674 0.952556 30.0451 0.87491C30.1227 0.797263 30.2281 0.753662 30.3379 0.753662Z" fill="black"/>
<path opacity="0.2" d="M36.8864 0.753662C36.9962 0.753662 37.1015 0.797263 37.1791 0.87491C37.2568 0.952556 37.3004 1.05788 37.3004 1.16769V7.52184C37.3004 7.63164 37.2568 7.73697 37.1791 7.81461C37.1015 7.89226 36.9962 7.93589 36.8864 7.93589V7.93589C36.7758 7.93591 36.6695 7.89254 36.5906 7.81513C36.5116 7.73772 36.4661 7.63241 36.4639 7.52184V1.16769C36.4661 1.05711 36.5116 0.951807 36.5906 0.874394C36.6695 0.796981 36.7758 0.75364 36.8864 0.753662V0.753662Z" fill="black"/>
<path opacity="0.2" d="M19.5895 0.753749C19.6993 0.753749 19.8046 0.79735 19.8822 0.874996C19.9599 0.952642 20.0035 1.05797 20.0035 1.16777V7.52192C20.0035 7.63173 19.9599 7.73705 19.8822 7.8147C19.8046 7.89235 19.6993 7.93597 19.5895 7.93597C19.5344 7.9371 19.4796 7.92721 19.4284 7.90691C19.3772 7.88661 19.3306 7.85628 19.2912 7.81772C19.2519 7.77916 19.2206 7.73313 19.1993 7.68234C19.178 7.63155 19.167 7.57701 19.167 7.52192V1.16777C19.167 1.11268 19.178 1.05815 19.1993 1.00736C19.2206 0.956566 19.2519 0.910538 19.2912 0.871979C19.3306 0.83342 19.3772 0.803087 19.4284 0.782784C19.4796 0.762481 19.5344 0.752624 19.5895 0.753749Z" fill="black"/>
<path opacity="0.2" d="M43.4511 7.93597C43.3413 7.93597 43.236 7.89235 43.1584 7.8147C43.0807 7.73705 43.0371 7.63173 43.0371 7.52192V1.16777C43.0371 1.05797 43.0807 0.952642 43.1584 0.874996C43.236 0.79735 43.3413 0.753749 43.4511 0.753749C43.5062 0.752624 43.561 0.762481 43.6122 0.782784C43.6634 0.803087 43.71 0.83342 43.7494 0.871979C43.7887 0.910538 43.82 0.956566 43.8413 1.00736C43.8627 1.05815 43.8736 1.11268 43.8736 1.16777V7.52192C43.8736 7.57701 43.8627 7.63155 43.8413 7.68234C43.82 7.73313 43.7887 7.77916 43.7494 7.81772C43.71 7.85628 43.6634 7.88661 43.6122 7.90691C43.561 7.92721 43.5062 7.9371 43.4511 7.93597Z" fill="black"/>
<path d="M44.1639 57.8182C46.6865 47.1302 40.0671 36.4208 29.3791 33.8982C18.6911 31.3756 7.98178 37.995 5.45918 48.683C2.93658 59.371 9.55596 70.0804 20.244 72.603C30.932 75.1256 41.6413 68.5062 44.1639 57.8182Z" fill="#FF5C8A"/>
<path d="M30.8857 60.8132H18.741C18.5846 60.812 18.4335 60.7561 18.314 60.655C18.1946 60.5539 18.1143 60.4142 18.0873 60.26L15.945 47.6074C15.9278 47.5126 15.9319 47.415 15.9572 47.3219C15.9824 47.2289 16.0281 47.1426 16.0908 47.0694C16.1524 46.9957 16.2293 46.9364 16.3161 46.8956C16.403 46.8547 16.4977 46.8334 16.5937 46.833H33.028C33.1245 46.8331 33.2198 46.8543 33.3072 46.8949C33.3947 46.9356 33.4723 46.9949 33.5345 47.0686C33.5967 47.1423 33.6421 47.2287 33.6676 47.3218C33.693 47.4148 33.6978 47.5123 33.6818 47.6074L31.5395 60.26C31.5124 60.4142 31.4322 60.5539 31.3127 60.655C31.1933 60.7561 31.0422 60.812 30.8857 60.8132ZM19.3193 59.4856H30.3426L32.2586 48.1606H17.3833L19.3193 59.4856Z" fill="white"/>
<path d="M26.8326 60.8132H22.8095C22.6397 60.8123 22.4767 60.7468 22.3534 60.63C22.2302 60.5133 22.1559 60.3541 22.1457 60.1846L21.4316 47.532C21.4268 47.4419 21.4404 47.3518 21.4717 47.2672C21.5029 47.1825 21.551 47.1051 21.6131 47.0397C21.6752 46.9743 21.7501 46.9222 21.833 46.8867C21.9159 46.8511 22.0052 46.8329 22.0954 46.833H27.5517C27.6419 46.8329 27.7312 46.8511 27.8142 46.8867C27.8971 46.9222 27.9719 46.9743 28.034 47.0397C28.0961 47.1051 28.1443 47.1825 28.1755 47.2672C28.2067 47.3518 28.2203 47.4419 28.2155 47.532L27.5064 60.1846C27.4961 60.3558 27.4205 60.5165 27.2951 60.6335C27.1696 60.7505 27.0041 60.8148 26.8326 60.8132V60.8132ZM23.4281 59.4856H26.204L26.8376 48.1606H22.8145L23.4281 59.4856Z" fill="white"/>
<path d="M32.1929 52.4204H17.4332C17.2664 52.4059 17.1112 52.3294 16.9981 52.206C16.885 52.0827 16.8223 51.9214 16.8223 51.754C16.8223 51.5867 16.885 51.4254 16.9981 51.302C17.1112 51.1787 17.2664 51.1022 17.4332 51.0877H32.1929C32.2852 51.0797 32.3783 51.0909 32.466 51.1208C32.5538 51.1506 32.6344 51.1984 32.7028 51.261C32.7711 51.3237 32.8257 51.3999 32.863 51.4848C32.9004 51.5696 32.9196 51.6613 32.9196 51.754C32.9196 51.8468 32.9004 51.9385 32.863 52.0233C32.8257 52.1082 32.7711 52.1844 32.7028 52.247C32.6344 52.3097 32.5538 52.3575 32.466 52.3873C32.3783 52.4171 32.2852 52.4284 32.1929 52.4204Z" fill="white"/>
<path d="M31.404 56.6443H18.2234C18.0473 56.6443 17.8785 56.5743 17.754 56.4498C17.6295 56.3253 17.5596 56.1565 17.5596 55.9804C17.5596 55.8044 17.6295 55.6356 17.754 55.5111C17.8785 55.3866 18.0473 55.3167 18.2234 55.3167H31.404C31.4912 55.3167 31.5775 55.3338 31.658 55.3672C31.7386 55.4005 31.8118 55.4494 31.8734 55.5111C31.935 55.5727 31.9839 55.6459 32.0173 55.7264C32.0507 55.807 32.0678 55.8933 32.0678 55.9804C32.0678 56.0676 32.0507 56.1539 32.0173 56.2345C31.9839 56.315 31.935 56.3882 31.8734 56.4498C31.8118 56.5115 31.7386 56.5604 31.658 56.5937C31.5775 56.6271 31.4912 56.6443 31.404 56.6443V56.6443Z" fill="white"/>
<path d="M31.5997 65.8119C31.1861 65.8109 30.7822 65.6874 30.4388 65.4569C30.0954 65.2265 29.8281 64.8994 29.6705 64.517C29.5129 64.1347 29.4722 63.7142 29.5535 63.3087C29.6348 62.9032 29.8344 62.531 30.1272 62.2389C30.42 61.9468 30.7927 61.7481 31.1984 61.6678C31.6041 61.5874 32.0245 61.6292 32.4064 61.7877C32.7884 61.9461 33.1148 62.2143 33.3445 62.5582C33.5741 62.9021 33.6967 63.3064 33.6967 63.7199C33.6967 63.9951 33.6424 64.2675 33.537 64.5217C33.4315 64.7758 33.277 65.0066 33.0822 65.201C32.8874 65.3953 32.6562 65.5493 32.4018 65.6541C32.1474 65.759 31.8748 65.8126 31.5997 65.8119V65.8119ZM31.5997 62.9555C31.4485 62.9555 31.3007 63.0004 31.175 63.0844C31.0493 63.1684 30.9513 63.2877 30.8935 63.4274C30.8356 63.5671 30.8205 63.7208 30.85 63.8691C30.8795 64.0173 30.9523 64.1535 31.0592 64.2604C31.1661 64.3673 31.3023 64.4401 31.4505 64.4696C31.5988 64.4991 31.7525 64.484 31.8922 64.4261C32.0319 64.3683 32.1512 64.2703 32.2352 64.1446C32.3192 64.0189 32.3641 63.8711 32.3641 63.7199C32.3563 63.522 32.2725 63.3347 32.1301 63.197C31.9877 63.0593 31.7977 62.9818 31.5997 62.9807V62.9555Z" fill="white"/>
<path d="M18.0215 65.8119C17.608 65.8109 17.204 65.6874 16.8607 65.4569C16.5173 65.2265 16.2499 64.8994 16.0924 64.517C15.9348 64.1347 15.8941 63.7142 15.9754 63.3087C16.0567 62.9032 16.2563 62.531 16.5491 62.2389C16.8419 61.9468 17.2146 61.7481 17.6203 61.6678C18.026 61.5874 18.4463 61.6292 18.8283 61.7877C19.2103 61.9461 19.5367 62.2143 19.7664 62.5582C19.996 62.9021 20.1186 63.3064 20.1186 63.7199C20.1186 63.9951 20.0643 64.2675 19.9589 64.5217C19.8534 64.7758 19.6989 65.0066 19.5041 65.201C19.3093 65.3953 19.0781 65.5493 18.8237 65.6541C18.5693 65.759 18.2967 65.8126 18.0215 65.8119V65.8119ZM18.0215 62.9555C17.8704 62.9555 17.7226 63.0004 17.5969 63.0844C17.4712 63.1684 17.3732 63.2877 17.3153 63.4274C17.2575 63.5671 17.2424 63.7208 17.2719 63.8691C17.3013 64.0173 17.3741 64.1535 17.481 64.2604C17.5879 64.3673 17.7241 64.4401 17.8724 64.4696C18.0207 64.4991 18.1744 64.484 18.3141 64.4261C18.4537 64.3683 18.5731 64.2703 18.6571 64.1446C18.7411 64.0189 18.7859 63.8711 18.7859 63.7199C18.7794 63.5216 18.696 63.3336 18.5533 63.1956C18.4107 63.0576 18.22 62.9806 18.0215 62.9807V62.9555Z" fill="white"/>
<path d="M22.5179 42.5538L24.8161 45.199L27.1143 42.5538L25.9777 42.5538L25.9777 39.7376L23.6544 39.7376L23.6544 42.5538L22.5179 42.5538Z" fill="white"/>
<path d="M33.0322 48.1608C32.8736 48.1604 32.7205 48.1032 32.6004 47.9997C32.4803 47.8961 32.4013 47.753 32.3776 47.5962C32.3539 47.4394 32.3871 47.2793 32.4712 47.1449C32.5553 47.0105 32.6847 46.9106 32.8361 46.8633L36.3563 45.7721C36.4411 45.7403 36.5316 45.7263 36.6221 45.7308C36.7126 45.7353 36.8012 45.7584 36.8825 45.7984C36.9637 45.8385 37.0359 45.8948 37.0946 45.9638C37.1533 46.0328 37.1972 46.1132 37.2237 46.1998C37.2502 46.2865 37.2587 46.3776 37.2486 46.4677C37.2385 46.5577 37.2101 46.6447 37.1651 46.7234C37.1201 46.802 37.0595 46.8706 36.987 46.925C36.9145 46.9793 36.8316 47.0182 36.7435 47.0393L33.2233 48.1306C33.1613 48.1496 33.097 48.1598 33.0322 48.1608V48.1608Z" fill="white"/>
</svg>
