<svg width="328" height="302" viewBox="0 0 328 302" fill="none" xmlns="http://www.w3.org/2000/svg">
<path d="M166.544 261.111C240.592 261.111 300.619 257.606 300.619 253.283C300.619 248.96 240.592 245.455 166.544 245.455C92.4962 245.455 32.4688 248.96 32.4688 253.283C32.4688 257.606 92.4962 261.111 166.544 261.111Z" fill="#F5F5F5"/>
<path d="M141.638 242.421C132.629 251.086 141.118 233.373 157.517 219.593C173.917 205.813 157.777 196.765 138.765 210.545C119.752 224.325 133.298 206.359 147.215 193.593C161.131 180.827 149.067 169.959 129.138 183.193C109.209 196.427 149.828 155.191 119.934 151.798C96.1769 149.101 125.076 194.094 104.035 182.771C82.9949 171.448 76.0139 180.821 89.2284 193.619C102.443 206.418 114.975 224.338 96.7359 210.571C78.4969 196.804 61.8439 205.846 77.4699 219.619C93.0959 233.393 93.6744 244.67 85.1399 236.006C76.6054 227.341 69.2279 227.289 71.1454 239.301C71.6134 242.285 73.2774 245.307 75.9229 248.174C76.6729 248.912 77.5664 249.487 78.5482 249.865C79.5299 250.243 80.5789 250.415 81.6299 250.371H157.413C160.018 247.149 161.84 243.366 162.737 239.321C165.298 227.263 150.653 233.763 141.638 242.421Z" fill="#FF5C8A"/>
<path opacity="0.8" d="M141.638 242.421C132.629 251.086 141.118 233.373 157.517 219.593C173.917 205.813 157.777 196.765 138.765 210.545C119.752 224.325 133.298 206.359 147.215 193.593C161.131 180.827 149.067 169.959 129.138 183.193C109.209 196.427 149.828 155.191 119.934 151.798C96.1769 149.101 125.076 194.094 104.035 182.771C82.9949 171.448 76.0139 180.821 89.2284 193.619C102.443 206.418 114.975 224.338 96.7359 210.571C78.4969 196.804 61.8439 205.846 77.4699 219.619C93.0959 233.393 93.6744 244.67 85.1399 236.006C76.6054 227.341 69.2279 227.289 71.1454 239.301C71.6134 242.285 73.2774 245.307 75.9229 248.174C76.6729 248.912 77.5664 249.487 78.5482 249.865C79.5299 250.243 80.5789 250.415 81.6299 250.371H157.413C160.018 247.149 161.84 243.366 162.737 239.321C165.298 227.263 150.653 233.763 141.638 242.421Z" fill="white"/>
<path d="M276.11 245.216C275.687 237.286 266.275 241.576 261.387 247.29C256.499 253.003 259.275 241.316 268.537 232.223C277.8 223.129 264.345 217.156 253.178 226.249C242.011 235.343 248.4 223.487 256.07 215.063C263.74 206.639 252.879 199.463 240.938 208.186C228.998 216.909 250.591 189.7 228.224 187.457C210.447 185.676 240.08 215.375 222.621 207.906C205.162 200.438 201.893 206.606 213.95 215.056C226.008 223.506 238.54 235.33 222.654 226.243C206.768 217.156 196.4 223.129 210.395 232.216C224.389 241.303 226.97 248.752 219.111 243.032C211.253 237.312 205.884 237.28 209.576 245.21C210.492 247.16 212.28 249.168 214.776 251.06C216.096 252.022 217.692 252.533 219.326 252.516H274.368C275.657 250.308 276.263 247.768 276.11 245.216Z" fill="#FF5C8A"/>
<path opacity="0.7" d="M276.11 245.216C275.687 237.286 266.275 241.576 261.387 247.29C256.499 253.003 259.275 241.316 268.537 232.223C277.8 223.129 264.345 217.156 253.178 226.249C242.011 235.343 248.4 223.487 256.07 215.063C263.74 206.639 252.879 199.463 240.938 208.186C228.998 216.909 250.591 189.7 228.224 187.457C210.447 185.676 240.08 215.375 222.621 207.906C205.162 200.438 201.893 206.606 213.95 215.056C226.008 223.506 238.54 235.33 222.654 226.243C206.768 217.156 196.4 223.129 210.395 232.216C224.389 241.303 226.97 248.752 219.111 243.032C211.253 237.312 205.884 237.28 209.576 245.21C210.492 247.16 212.28 249.168 214.776 251.06C216.096 252.022 217.692 252.533 219.326 252.516H274.368C275.657 250.308 276.263 247.768 276.11 245.216Z" fill="white"/>
<path d="M186.059 256.513L195.27 157.564H206.196L208.257 256.513H186.059Z" fill="#FF5C8A"/>
<path d="M204.103 197.116C212.169 195.452 222.348 179.059 222.348 179.059C222.348 179.059 223.694 178.799 225.234 180.359C223.187 187.399 203.336 213.906 203.336 213.906L204.103 197.116Z" fill="#FF5C8A"/>
<path d="M195.633 172.897C189.348 172.897 183.55 163.427 183.55 163.427C183.162 163.358 182.764 163.381 182.387 163.494C182.01 163.607 181.665 163.806 181.379 164.077C182.23 169.277 194.736 184.929 194.736 184.929L195.633 172.897Z" fill="#FF5C8A"/>
<path opacity="0.1" d="M181.379 164.09C182.607 163.128 182.919 163.401 182.919 163.401C182.919 163.401 187.112 173.801 193.56 174.165L195.269 157.557L201.542 160.807L202.842 229.967L205.026 256.52H195.406L196.706 224.228L194.028 227.66L189.478 256.52H186.104L192.76 182.361C189.146 177.707 182.016 167.957 181.379 164.09Z" fill="black"/>
<path d="M206.553 166.066C207.203 163.134 210.96 161.47 214.932 162.354C215.748 162.534 216.537 162.82 217.278 163.206C218.398 162.509 219.648 162.045 220.951 161.843C222.255 161.641 223.586 161.704 224.864 162.029C227.094 162.484 229.111 163.666 230.597 165.39C231.996 165.234 233.41 165.313 234.783 165.624C239.983 166.787 243.545 170.863 242.687 174.724C241.829 178.585 236.895 180.775 231.669 179.612C231.273 179.527 230.889 179.417 230.512 179.3C228.491 182.485 223.648 184.084 218.572 182.953C212.507 181.607 208.406 176.882 209.4 172.397C209.447 172.177 209.506 171.96 209.576 171.747C207.353 170.375 206.085 168.185 206.553 166.066Z" fill="#FF5C8A"/>
<path opacity="0.4" d="M206.553 166.066C207.203 163.134 210.96 161.47 214.932 162.354C215.748 162.534 216.537 162.82 217.278 163.206C218.398 162.509 219.648 162.045 220.951 161.843C222.255 161.641 223.586 161.704 224.864 162.029C227.094 162.484 229.111 163.666 230.597 165.39C231.996 165.234 233.41 165.313 234.783 165.624C239.983 166.787 243.545 170.863 242.687 174.724C241.829 178.585 236.895 180.775 231.669 179.612C231.273 179.527 230.889 179.417 230.512 179.3C228.491 182.485 223.648 184.084 218.572 182.953C212.507 181.607 208.406 176.882 209.4 172.397C209.447 172.177 209.506 171.96 209.576 171.747C207.353 170.375 206.085 168.185 206.553 166.066Z" fill="black"/>
<path d="M176.27 159.663C176.484 159.663 176.686 159.663 176.92 159.696C177.57 157.869 179.825 156.524 182.503 156.524C185.695 156.524 188.288 158.435 188.288 160.801C188.295 160.911 188.295 161.022 188.288 161.132C189.588 161.587 190.446 162.543 190.446 163.661C190.446 165.208 188.75 166.462 186.657 166.462C186.218 166.465 185.781 166.411 185.357 166.3C184.871 166.773 184.295 167.144 183.663 167.39C183.031 167.635 182.356 167.751 181.678 167.73C180.508 167.751 179.365 167.383 178.428 166.683C177.744 166.917 177.025 167.035 176.302 167.034C173.546 167.034 171.317 165.39 171.317 163.349C171.317 161.308 173.514 159.663 176.27 159.663Z" fill="#FF5C8A"/>
<path opacity="0.4" d="M176.27 159.663C176.484 159.663 176.686 159.663 176.92 159.696C177.57 157.869 179.825 156.524 182.503 156.524C185.695 156.524 188.288 158.435 188.288 160.801C188.295 160.911 188.295 161.022 188.288 161.132C189.588 161.587 190.446 162.543 190.446 163.661C190.446 165.208 188.75 166.462 186.657 166.462C186.218 166.465 185.781 166.411 185.357 166.3C184.871 166.773 184.295 167.144 183.663 167.39C183.031 167.635 182.356 167.751 181.678 167.73C180.508 167.751 179.365 167.383 178.428 166.683C177.744 166.917 177.025 167.035 176.302 167.034C173.546 167.034 171.317 165.39 171.317 163.349C171.317 161.308 173.514 159.663 176.27 159.663Z" fill="black"/>
<path d="M245.852 160.157C246.502 152.858 238.384 145.896 227.782 144.596C226.976 144.499 226.183 144.44 225.397 144.414C223.447 137.563 215.159 131.681 204.857 130.426C201.017 129.926 197.115 130.177 193.371 131.167C192.721 130.66 192.032 130.166 191.311 129.698C182.627 124.121 172.272 124.303 168.19 130.108C164.589 135.217 167.059 142.991 173.624 148.581C172.813 149.657 172.318 150.938 172.194 152.279C171.726 157.83 177.875 163.121 185.935 164.109C187.585 164.308 189.252 164.308 190.901 164.109C193.722 167.587 198.734 170.258 204.61 170.973C209.556 171.578 214.132 170.674 217.46 168.75C220.019 169.916 222.742 170.68 225.533 171.012C236.148 172.345 245.248 167.476 245.852 160.157Z" fill="#FF5C8A"/>
<path opacity="0.2" d="M245.852 160.157C246.502 152.858 238.384 145.896 227.782 144.596C226.976 144.499 226.183 144.44 225.397 144.414C223.447 137.563 215.159 131.681 204.857 130.426C201.017 129.926 197.115 130.177 193.371 131.167C192.721 130.66 192.032 130.166 191.311 129.698C182.627 124.121 172.272 124.303 168.19 130.108C164.589 135.217 167.059 142.991 173.624 148.581C172.813 149.657 172.318 150.938 172.194 152.279C171.726 157.83 177.875 163.121 185.935 164.109C187.585 164.308 189.252 164.308 190.901 164.109C193.722 167.587 198.734 170.258 204.61 170.973C209.556 171.578 214.132 170.674 217.46 168.75C220.019 169.916 222.742 170.68 225.533 171.012C236.148 172.345 245.248 167.476 245.852 160.157Z" fill="black"/>
<path d="M180.898 131.278C180.898 131.278 178.571 135.009 181.548 136.939C183.817 134.989 180.898 131.278 180.898 131.278Z" fill="#FF5C8A"/>
<path d="M165.298 139.273C165.298 139.273 167.729 142.939 170.712 141.047C169.848 138.181 165.298 139.273 165.298 139.273Z" fill="#FF5C8A"/>
<path d="M220.697 134.053C220.697 134.053 223.486 137.466 220.795 139.754C218.305 138.109 220.697 134.053 220.697 134.053Z" fill="#FF5C8A"/>
<path d="M198.903 132.149C198.903 132.149 197.999 135.756 200.885 136.536C202.192 134.385 198.903 132.149 198.903 132.149Z" fill="#FF5C8A"/>
<path d="M231.949 152.754C231.949 152.754 229.427 150.017 227.191 152C228.276 154.307 231.949 152.754 231.949 152.754Z" fill="#FF5C8A"/>
<path d="M193.8 142.367C193.8 142.367 192.754 145.942 195.601 146.839C196.998 144.733 193.8 142.367 193.8 142.367Z" fill="#FF5C8A"/>
<path d="M198.825 156.193C198.825 156.193 197.427 159.644 200.177 160.821C201.769 158.858 198.825 156.193 198.825 156.193Z" fill="#FF5C8A"/>
<path d="M210.831 144.889C210.831 144.889 207.34 143.589 206.248 146.377C208.25 147.918 210.831 144.889 210.831 144.889Z" fill="#FF5C8A"/>
<path d="M247.51 156.199C247.51 156.199 244.565 153.924 242.693 156.251C244.143 158.312 247.51 156.199 247.51 156.199Z" fill="#FF5C8A"/>
<path d="M232.748 168.334C232.748 168.334 232.69 164.616 229.7 164.61C228.998 167.028 232.748 168.334 232.748 168.334Z" fill="#FF5C8A"/>
<path d="M217.551 156.413C217.551 156.413 213.827 156.524 213.859 159.507C216.284 160.19 217.551 156.413 217.551 156.413Z" fill="#FF5C8A"/>
<path d="M183.192 151.577C183.192 151.577 183.413 155.295 186.397 155.172C187.001 152.721 183.192 151.577 183.192 151.577Z" fill="#FF5C8A"/>
<path opacity="0.5" d="M247.51 156.199C246.759 155.648 245.875 155.307 244.949 155.211C242.57 149.952 235.92 145.617 227.782 144.622C226.976 144.525 226.183 144.466 225.397 144.44C224.691 142.16 223.455 140.08 221.789 138.369C222.53 136.296 220.697 134.053 220.697 134.053C220.271 134.817 219.958 135.638 219.768 136.491C215.457 133.129 210.293 131.037 204.857 130.452C201.017 129.952 197.116 130.203 193.371 131.193C192.721 130.686 192.032 130.192 191.311 129.724C182.627 124.147 172.272 124.329 168.19 130.134C166.409 132.656 166.117 135.834 167.059 139.071C166.463 139.08 165.868 139.148 165.285 139.273C165.951 140.234 166.881 140.981 167.963 141.424C169.325 144.189 171.254 146.637 173.624 148.607C172.813 149.683 172.318 150.964 172.194 152.305C171.967 154.983 173.286 157.596 175.607 159.696C173.169 159.936 171.284 161.477 171.284 163.349C171.284 165.383 173.514 167.034 176.27 167.034C176.993 167.035 177.711 166.917 178.395 166.683C179.333 167.383 180.476 167.751 181.645 167.73C182.018 167.731 182.39 167.698 182.757 167.632L182.919 167.944V167.99C183.036 168.211 183.16 168.432 183.283 168.64L183.4 168.848L183.719 169.407L183.836 169.602C183.979 169.855 184.128 170.102 184.284 170.356L184.336 170.434C184.473 170.668 184.622 170.902 184.765 171.136L184.902 171.35L185.292 171.961C185.337 172.026 185.376 172.091 185.415 172.156L185.935 172.949L186 173.04L186.468 173.749L186.624 173.976L187.04 174.587L187.177 174.789L187.723 175.575L187.801 175.686L188.275 176.336L188.431 176.557L188.86 177.161L188.984 177.33L189.523 178.078L189.621 178.214C189.77 178.416 189.913 178.617 190.063 178.812L190.219 179.027L190.602 179.547L190.739 179.735L191.226 180.385L191.337 180.535L191.707 181.029L191.85 181.217L192.182 181.659C192.227 181.711 192.266 181.77 192.305 181.822C192.435 181.991 192.565 182.153 192.682 182.316L186.059 256.513H208.256L207.255 208.556C212.293 201.621 220.769 189.628 224.045 183.135C226.885 182.66 229.245 181.289 230.512 179.3C230.889 179.417 231.273 179.527 231.669 179.612C236.869 180.775 241.829 178.591 242.687 174.724C243.187 172.475 242.186 170.174 240.236 168.38C243.486 166.43 245.566 163.557 245.852 160.183C245.941 159.118 245.849 158.046 245.579 157.011C246.258 156.833 246.908 156.56 247.51 156.199ZM194.275 167.249L193.716 172.65C190.466 171.734 187.541 168.75 185.662 166.391C185.973 166.454 186.288 166.487 186.605 166.488C188.451 166.488 189.985 165.513 190.323 164.226L190.901 164.174C191.876 165.345 193.012 166.372 194.275 167.223V167.249ZM206.995 195.998L206.475 171.194C207.249 171.233 208.003 171.227 208.737 171.194C209.006 171.41 209.286 171.612 209.576 171.799C209.506 172.012 209.447 172.229 209.4 172.449C208.406 176.934 212.507 181.659 218.572 183.005C218.91 183.083 219.222 183.141 219.579 183.193C216.609 187.256 211.695 193.353 206.995 195.972V195.998Z" fill="white"/>
<path d="M181.685 76.0929C181.685 76.0929 185.052 81.1175 189.134 78.4915C187.964 74.5654 181.685 76.0929 181.685 76.0929Z" fill="#FF5C8A"/>
<path d="M80.8694 253.952L93.7264 115.782H108.988L111.861 253.952H80.8694Z" fill="#FF5C8A"/>
<path d="M106.063 171.012C117.328 168.685 131.543 145.799 131.543 145.799C131.543 145.799 133.422 145.441 135.567 147.586C132.707 157.421 105.017 194.432 105.017 194.432L106.063 171.012Z" fill="#FF5C8A"/>
<path d="M94.2399 137.199C85.4649 137.232 77.3399 123.972 77.3399 123.972C77.3399 123.972 76.0399 123.556 74.3174 124.901C75.5069 132.168 92.9594 154.015 92.9594 154.015L94.2399 137.199Z" fill="#FF5C8A"/>
<path opacity="0.1" d="M74.3369 124.901C76.0529 123.556 76.4884 123.933 76.4884 123.933C76.4884 123.933 82.3384 138.493 91.3409 138.961L93.7264 115.782L102.495 120.332L104.289 216.902L107.344 253.985H93.9214L95.7089 208.888L91.9714 213.691L85.5754 253.992H80.8694L90.1644 150.407C85.1789 143.907 75.2274 130.329 74.3369 124.901Z" fill="black"/>
<path d="M109.489 127.657C110.405 123.556 115.638 121.229 121.189 122.457C122.318 122.715 123.41 123.115 124.439 123.647C127.078 121.827 130.978 121.112 135.027 122.009C138.144 122.639 140.962 124.291 143.035 126.702C144.99 126.483 146.967 126.593 148.885 127.027C156.178 128.652 161.125 134.339 159.935 139.734C158.746 145.129 151.843 148.184 144.55 146.559C144.003 146.442 143.463 146.297 142.931 146.124C140.11 150.57 133.35 152.806 126.259 151.227C117.809 149.342 112.063 142.776 113.454 136.484C113.519 136.185 113.61 135.893 113.701 135.607C110.6 133.676 108.832 130.615 109.489 127.657Z" fill="#FF5C8A"/>
<path opacity="0.4" d="M109.489 127.657C110.405 123.556 115.638 121.229 121.189 122.457C122.318 122.715 123.41 123.115 124.439 123.647C127.078 121.827 130.978 121.112 135.027 122.009C138.144 122.639 140.962 124.291 143.035 126.702C144.99 126.483 146.967 126.593 148.885 127.027C156.178 128.652 161.125 134.339 159.935 139.734C158.746 145.129 151.843 148.184 144.55 146.559C144.003 146.442 143.463 146.297 142.931 146.124C140.11 150.57 133.35 152.806 126.259 151.227C117.809 149.342 112.063 142.776 113.454 136.484C113.519 136.185 113.61 135.893 113.701 135.607C110.6 133.676 108.832 130.615 109.489 127.657Z" fill="black"/>
<path d="M67.1999 118.713C67.4989 118.713 67.7849 118.713 68.0709 118.759C68.9939 116.211 72.1269 114.332 75.8709 114.332C80.3364 114.332 83.9504 117.004 83.9504 120.299C83.9495 120.456 83.9386 120.612 83.9179 120.767C85.6989 121.417 86.9339 122.717 86.9339 124.297C86.9339 126.461 84.5614 128.197 81.6364 128.197C81.035 128.197 80.4363 128.118 79.8554 127.963C79.1812 128.628 78.379 129.148 77.4974 129.494C76.6158 129.839 75.6732 130.002 74.7269 129.971C73.0888 130.003 71.4873 129.486 70.1769 128.502C69.2222 128.836 68.2177 129.006 67.2064 129.003C63.3649 129.003 60.2449 126.695 60.2449 123.848C60.2449 121.001 63.3584 118.713 67.1999 118.713Z" fill="#FF5C8A"/>
<path opacity="0.4" d="M67.1999 118.713C67.4989 118.713 67.7849 118.713 68.0709 118.759C68.9939 116.211 72.1269 114.332 75.8709 114.332C80.3364 114.332 83.9504 117.004 83.9504 120.299C83.9495 120.456 83.9386 120.612 83.9179 120.767C85.6989 121.417 86.9339 122.717 86.9339 124.297C86.9339 126.461 84.5614 128.197 81.6364 128.197C81.035 128.197 80.4363 128.118 79.8554 127.963C79.1812 128.628 78.379 129.148 77.4974 129.494C76.6158 129.839 75.6732 130.002 74.7269 129.971C73.0888 130.003 71.4873 129.486 70.1769 128.502C69.2222 128.836 68.2177 129.006 67.2064 129.003C63.3649 129.003 60.2449 126.695 60.2449 123.848C60.2449 121.001 63.3584 118.713 67.1999 118.713Z" fill="black"/>
<path d="M164.362 119.441C165.233 109.249 153.962 99.5254 139.129 97.7184C138.004 97.5819 136.899 97.4974 135.801 97.4584C133.032 87.8904 121.501 79.6874 107.116 77.9584C101.754 77.2619 96.3081 77.6152 91.081 78.9984C90.1645 78.2834 89.209 77.6009 88.2015 76.9509C76.0725 69.1509 61.623 69.4044 55.916 77.5164C50.898 84.6664 54.3365 95.5019 63.508 103.315C62.3723 104.814 61.6809 106.603 61.5125 108.476C60.8625 116.224 69.4425 123.614 80.694 124.992C82.9974 125.272 85.3261 125.272 87.6295 124.992C91.575 129.848 98.569 133.572 106.772 134.573C113.675 135.418 120.071 134.164 124.712 131.473C128.286 133.101 132.09 134.167 135.989 134.632C150.796 136.426 163.497 129.607 164.362 119.441Z" fill="#FF5C8A"/>
<path opacity="0.2" d="M164.362 119.441C165.233 109.249 153.962 99.5254 139.129 97.7184C138.004 97.5819 136.899 97.4974 135.801 97.4584C133.032 87.8904 121.501 79.6874 107.116 77.9584C101.754 77.2619 96.3081 77.6152 91.081 78.9984C90.1645 78.2834 89.209 77.6009 88.2015 76.9509C76.0725 69.1509 61.623 69.4044 55.916 77.5164C50.898 84.6664 54.3365 95.5019 63.508 103.315C62.3723 104.814 61.6809 106.603 61.5125 108.476C60.8625 116.224 69.4425 123.614 80.694 124.992C82.9974 125.272 85.3261 125.272 87.6295 124.992C91.575 129.848 98.569 133.572 106.772 134.573C113.675 135.418 120.071 134.164 124.712 131.473C128.286 133.101 132.09 134.167 135.989 134.632C150.796 136.426 163.497 129.607 164.362 119.441Z" fill="black"/>
<path d="M73.6999 79.0764C73.6999 79.0764 70.4499 84.2764 74.5774 86.9869C77.7364 84.2634 73.6999 79.0764 73.6999 79.0764Z" fill="#FF5C8A"/>
<path d="M51.8665 90.2434C51.8665 90.2434 55.2595 95.3654 59.426 92.7199C58.256 88.7224 51.8665 90.2434 51.8665 90.2434Z" fill="#FF5C8A"/>
<path d="M129.236 82.9569C129.236 82.9569 133.136 87.7214 129.373 90.9194C125.895 88.6184 129.236 82.9569 129.236 82.9569Z" fill="#FF5C8A"/>
<path d="M98.803 80.2919C98.803 80.2919 97.5485 85.3359 101.572 86.4279C103.398 83.4184 98.803 80.2919 98.803 80.2919Z" fill="#FF5C8A"/>
<path d="M144.953 109.067C144.953 109.067 141.423 105.245 138.303 108.014C139.818 111.193 144.953 109.067 144.953 109.067Z" fill="#FF5C8A"/>
<path d="M91.6788 94.5724C91.6788 94.5724 90.2163 99.5579 94.1944 100.806C96.1444 97.8744 91.6788 94.5724 91.6788 94.5724Z" fill="#FF5C8A"/>
<path d="M98.6924 113.871C98.6924 113.871 96.7424 118.687 100.584 120.332C102.813 117.602 98.6924 113.871 98.6924 113.871Z" fill="#FF5C8A"/>
<path d="M115.463 98.0889C115.463 98.0889 110.588 96.2819 109.06 100.162C111.855 102.307 115.463 98.0889 115.463 98.0889Z" fill="#FF5C8A"/>
<path d="M166.676 113.884C166.676 113.884 162.568 110.699 159.948 113.949C161.97 116.835 166.676 113.884 166.676 113.884Z" fill="#FF5C8A"/>
<path d="M146.065 130.829C146.065 130.829 145.98 125.629 141.807 125.629C140.819 129.003 146.065 130.829 146.065 130.829Z" fill="#FF5C8A"/>
<path d="M124.842 114.183C124.842 114.183 119.642 114.332 119.681 118.499C123.048 119.448 124.842 114.183 124.842 114.183Z" fill="#FF5C8A"/>
<path d="M76.8979 107.423C76.8979 107.423 77.2099 112.623 81.3764 112.447C82.1824 109.022 76.8979 107.423 76.8979 107.423Z" fill="#FF5C8A"/>
<path opacity="0.3" d="M166.676 113.884C165.628 113.109 164.391 112.631 163.094 112.499C159.78 105.154 150.491 99.1029 139.129 97.7184C138.005 97.5819 136.9 97.4974 135.801 97.4584C134.812 94.2822 133.083 91.3862 130.757 89.0084C131.797 86.1159 129.236 82.9829 129.236 82.9829C128.639 84.0488 128.201 85.1962 127.936 86.3889C122.684 82.0924 115.372 78.9594 107.136 77.9389C101.774 77.2425 96.3277 77.5957 91.1005 78.9789C90.184 78.2639 89.2285 77.5814 88.221 76.9314C76.092 69.1314 61.6425 69.3914 55.9355 77.4969C53.459 81.0199 53.043 85.4529 54.3625 89.9769C53.5299 89.9896 52.7005 90.0832 51.886 90.2564C52.8135 91.5993 54.1123 92.6429 55.6235 93.2594C57.5209 97.1156 60.2071 100.53 63.508 103.282C62.3723 104.782 61.6809 106.57 61.5125 108.443C61.194 112.181 63.0335 115.827 66.277 118.765C62.871 119.103 60.2385 121.255 60.2385 123.861C60.2385 126.708 63.3585 129.016 67.2 129.016C68.2114 129.019 69.2158 128.849 70.1705 128.515C71.4806 129.499 73.0824 130.016 74.7205 129.984C75.2416 129.984 75.7616 129.936 76.274 129.841L76.5015 130.277L76.5405 130.348C76.6965 130.647 76.872 130.959 77.041 131.271L77.21 131.564C77.353 131.817 77.5025 132.077 77.6585 132.337L77.8145 132.617L78.4645 133.663L78.5295 133.774L79.1405 134.755L79.329 135.054C79.5045 135.34 79.6865 135.62 79.8685 135.906L80.044 136.179L80.772 137.284L80.8565 137.414C81.071 137.745 81.292 138.064 81.5065 138.402L81.721 138.72L82.306 139.578L82.4945 139.851L83.255 140.95L83.3655 141.106L84.0155 142.055C84.0935 142.152 84.165 142.256 84.2365 142.36L84.8345 143.199L85.01 143.439C85.2635 143.79 85.5105 144.141 85.764 144.486L85.894 144.668C86.102 144.954 86.3035 145.233 86.5115 145.506L86.7325 145.812L87.2655 146.54L87.4605 146.8L88.1105 147.703L88.2665 147.911L88.7865 148.607L88.988 148.873L89.4495 149.484C89.508 149.556 89.5665 149.634 89.6185 149.712L90.145 150.401L80.8695 253.952H111.861L110.47 187.002C117.497 177.324 129.321 160.58 133.916 151.512C137.875 150.862 141.17 148.912 142.938 146.156C143.465 146.325 144.004 146.468 144.557 146.592C151.85 148.217 158.74 145.162 159.942 139.767C160.644 136.621 159.247 133.384 156.523 130.901C161.028 128.158 163.966 124.173 164.362 119.461C164.484 117.975 164.357 116.479 163.985 115.034C164.93 114.775 165.835 114.388 166.676 113.884ZM92.342 129.269L91.562 136.809C87.051 135.509 82.9365 131.33 80.3105 128.067C80.7382 128.156 81.1736 128.204 81.6105 128.21C84.2105 128.21 86.3295 126.851 86.8105 125.051C87.077 125.051 87.35 125.012 87.6165 124.979C88.9826 126.624 90.5734 128.068 92.342 129.269ZM110.1 169.42L109.398 134.807C110.47 134.859 111.523 134.853 112.557 134.807C112.929 135.112 113.319 135.392 113.727 135.646C113.636 135.932 113.545 136.224 113.48 136.523C112.089 142.783 117.822 149.38 126.285 151.265C126.753 151.369 127.221 151.454 127.689 151.525C123.529 157.245 116.672 165.754 110.1 169.42Z" fill="white"/>
<path d="M188.121 106.322C206.488 106.322 221.376 91.5474 221.376 73.322C221.376 55.0966 206.488 40.322 188.121 40.322C169.755 40.322 154.866 55.0966 154.866 73.322C154.866 91.5474 169.755 106.322 188.121 106.322Z" fill="#EE6D66"/>
<g clip-path="url(#clip0_4791_30221)">
<path d="M191.04 74.2457L197.263 67.9971C197.559 67.7011 197.725 67.2994 197.725 66.8803C197.726 66.4613 197.56 66.0593 197.265 65.7627C196.97 65.4662 196.57 65.2994 196.153 65.299C195.736 65.2986 195.335 65.4647 195.04 65.7608L188.817 72.0093L182.594 65.7608C182.299 65.4642 181.898 65.2976 181.48 65.2976C181.063 65.2976 180.662 65.4642 180.367 65.7608C180.071 66.0573 179.906 66.4595 179.906 66.8789C179.906 67.2983 180.071 67.7005 180.367 67.9971L186.59 74.2457L180.367 80.4943C180.071 80.7908 179.906 81.193 179.906 81.6124C179.906 82.0318 180.071 82.434 180.367 82.7306C180.662 83.0271 181.063 83.1937 181.48 83.1937C181.898 83.1937 182.299 83.0271 182.594 82.7306L188.817 76.482L195.04 82.7306C195.335 83.0271 195.736 83.1937 196.154 83.1937C196.571 83.1937 196.972 83.0271 197.267 82.7306C197.563 82.434 197.729 82.0318 197.729 81.6124C197.729 81.193 197.563 80.7908 197.267 80.4943L191.04 74.2457Z" fill="white"/>
</g>
<path d="M165.239 278.802L169.253 277.87L167.684 268.484L163.67 269.416L165.239 278.802Z" fill="#CE7A63"/>
<path d="M169.359 277.355L164.851 278.403C164.775 278.418 164.707 278.462 164.662 278.526C164.618 278.59 164.6 278.669 164.613 278.746L165.195 282.356C165.216 282.449 165.254 282.537 165.309 282.615C165.363 282.694 165.432 282.76 165.513 282.812C165.593 282.863 165.683 282.899 165.777 282.915C165.871 282.932 165.967 282.93 166.06 282.91C167.623 282.522 168.35 282.256 170.334 281.801C171.554 281.518 176.771 280.437 178.451 280.049C180.13 279.661 179.715 278.009 178.966 278.02C175.612 278.092 171.438 278.081 170.096 277.466C169.869 277.349 169.61 277.31 169.359 277.355Z" fill="#263238"/>
<path opacity="0.2" d="M163.67 269.421L167.684 268.484L168.494 273.324L164.474 274.256L163.67 269.421Z" fill="black"/>
<path d="M157.644 176.228C157.644 176.228 162.933 209.685 164.485 221.355C166.187 234.134 169.78 271.511 169.78 271.511L162.506 273.54C162.506 273.54 155.615 237.316 152.777 224.892C149.694 211.41 142.958 176.25 142.958 176.25L157.644 176.228Z" fill="#FF5C8A"/>
<path d="M157.644 176.228C157.644 176.228 162.933 209.685 164.485 221.355C166.187 234.134 169.78 271.511 169.78 271.511L162.506 273.54C162.506 273.54 155.615 237.316 152.777 224.892C149.694 211.41 142.958 176.25 142.958 176.25L157.644 176.228Z" fill="#1C2D5E"/>
<path opacity="0.3" d="M149.018 187.981C151.789 195.072 151.634 209.092 150.442 214.038C148.779 205.927 146.85 196.225 145.37 188.68C145.913 186.739 147.327 183.668 149.018 187.981Z" fill="black"/>
<path d="M162.323 273.663L170.112 271.517L169.985 268.352L161.209 271.379L162.323 273.663Z" fill="#FF5C8A"/>
<path d="M170.939 277.726C170.574 277.8 170.202 277.835 169.83 277.831C169.811 277.831 169.792 277.826 169.776 277.815C169.76 277.804 169.748 277.788 169.741 277.77C169.733 277.755 169.729 277.738 169.729 277.72C169.729 277.703 169.733 277.686 169.741 277.671C169.852 277.549 170.811 276.512 171.349 276.589C171.409 276.599 171.467 276.624 171.515 276.662C171.564 276.7 171.602 276.749 171.626 276.806C171.678 276.889 171.706 276.985 171.706 277.083C171.706 277.181 171.678 277.277 171.626 277.36C171.449 277.561 171.204 277.691 170.939 277.726ZM170.063 277.632C170.811 277.632 171.338 277.465 171.482 277.238C171.513 277.185 171.53 277.125 171.53 277.063C171.53 277.002 171.513 276.942 171.482 276.889C171.472 276.86 171.454 276.834 171.431 276.815C171.407 276.795 171.379 276.782 171.349 276.778C171.055 276.739 170.462 277.233 170.063 277.632Z" fill="#FF5C8A"/>
<path d="M169.858 277.826H169.813C169.798 277.823 169.783 277.816 169.771 277.805C169.759 277.794 169.751 277.78 169.747 277.765C169.747 277.715 169.381 276.584 169.697 276.102C169.737 276.039 169.791 275.987 169.855 275.949C169.918 275.911 169.989 275.887 170.063 275.88C170.144 275.862 170.228 275.873 170.302 275.911C170.375 275.948 170.434 276.009 170.468 276.085C170.656 276.501 170.246 277.471 169.913 277.804L169.858 277.826ZM170.041 276.079C170.003 276.087 169.968 276.103 169.936 276.125C169.905 276.147 169.878 276.175 169.858 276.207C169.717 276.639 169.717 277.105 169.858 277.537C170.165 277.148 170.313 276.657 170.274 276.163C170.274 276.113 170.201 276.057 170.063 276.068L170.041 276.079Z" fill="#FF5C8A"/>
<path d="M157.866 144.423C158.509 145.315 159.041 146.13 159.584 147.006C160.128 147.882 160.638 148.736 161.12 149.623C162.112 151.399 163.011 153.226 163.814 155.095C164.214 156.032 164.607 156.98 164.951 157.95C165.134 158.432 165.289 158.926 165.45 159.419C165.528 159.68 165.616 159.879 165.688 160.184C165.76 160.489 165.832 160.783 165.882 161.127C165.947 161.528 165.982 161.934 165.988 162.341C165.987 162.653 165.958 162.965 165.899 163.272C165.79 163.824 165.546 164.34 165.189 164.774C164.934 165.076 164.621 165.323 164.269 165.501C163.966 165.657 163.637 165.759 163.299 165.8C162.884 165.849 162.464 165.815 162.063 165.7C161.635 165.584 161.23 165.397 160.865 165.146C160.361 164.797 159.901 164.387 159.496 163.926C159.121 163.509 158.778 163.064 158.47 162.596L160.521 160.289C161.287 160.623 162.076 160.897 162.883 161.11C163.016 161.11 163.144 161.11 163.044 161.043C162.886 160.973 162.71 160.952 162.539 160.982C162.32 161.007 162.106 161.069 161.907 161.165C161.644 161.3 161.412 161.487 161.226 161.716C161.04 161.945 160.904 162.211 160.826 162.496C160.788 162.64 160.782 162.69 160.76 162.695C160.738 162.701 160.688 162.596 160.621 162.474L160.394 162.014C160.311 161.858 160.216 161.609 160.128 161.409C159.945 160.988 159.779 160.567 159.573 160.151C159.196 159.314 158.803 158.488 158.381 157.651C157.539 155.987 156.635 154.363 155.693 152.75C155.216 151.946 154.734 151.142 154.24 150.349C153.747 149.556 153.237 148.741 152.771 148.037L157.866 144.423Z" fill="#CE7A63"/>
<path d="M156.319 140.68C152.239 139.732 149.76 142.343 150.98 147.449C151.737 150.37 152.663 153.245 153.752 156.059C153.99 156.691 154.212 157.256 154.395 157.722L163.653 152.544C162.656 148.491 159.046 141.318 156.319 140.68Z" fill="#FF5C8A"/>
<path opacity="0.3" d="M156.491 145.52C154.029 143.302 156.546 152.239 157.6 155.943L160.322 154.424C160.033 151.857 158.381 147.211 156.491 145.52Z" fill="black"/>
<path d="M134.814 280.565H138.923L139.532 271.046H135.424L134.814 280.565Z" fill="#CE7A63"/>
<path d="M139.144 280.087H134.526C134.487 280.086 134.449 280.092 134.413 280.106C134.376 280.119 134.343 280.139 134.315 280.166C134.286 280.192 134.264 280.224 134.247 280.259C134.231 280.294 134.222 280.332 134.221 280.37L133.966 284.024C133.964 284.119 133.982 284.213 134.017 284.301C134.052 284.389 134.105 284.469 134.171 284.537C134.238 284.604 134.317 284.658 134.405 284.694C134.492 284.731 134.586 284.75 134.681 284.75C136.289 284.722 137.054 284.628 139.088 284.628C140.336 284.628 145.647 284.761 147.371 284.761C149.095 284.761 149.062 283.053 148.33 282.898C145.059 282.205 141.001 281.235 139.848 280.343C139.65 280.178 139.401 280.088 139.144 280.087Z" fill="#263238"/>
<path opacity="0.2" d="M135.424 271.046H139.532L139.216 275.952H135.108L135.424 271.046Z" fill="black"/>
<path d="M149.622 176.228C149.622 176.228 149.761 207.429 149.001 219.193C148.17 232.083 140.99 274.771 140.99 274.771H133.462C133.462 274.771 137.204 233.119 136.849 220.363C136.466 206.503 135.663 176.228 135.663 176.228H149.622Z" fill="#FF5C8A"/>
<path d="M149.622 176.228C149.622 176.228 149.761 207.429 149.001 219.193C148.17 232.083 140.99 274.771 140.99 274.771H133.462C133.462 274.771 137.204 233.119 136.849 220.363C136.466 206.503 135.663 176.228 135.663 176.228H149.622Z" fill="#1C2D5E"/>
<path d="M133.157 274.771H141.296L141.767 271.91L132.786 272.359L133.157 274.771Z" fill="#FF5C8A"/>
<path d="M140.597 280.803C140.223 280.795 139.851 280.746 139.488 280.659C139.47 280.653 139.455 280.643 139.442 280.629C139.429 280.616 139.42 280.599 139.416 280.581C139.413 280.563 139.416 280.544 139.424 280.528C139.432 280.511 139.444 280.497 139.46 280.487C139.588 280.393 140.757 279.6 141.262 279.794C141.318 279.817 141.368 279.854 141.406 279.902C141.443 279.949 141.468 280.006 141.478 280.066C141.503 280.156 141.506 280.251 141.484 280.342C141.463 280.433 141.419 280.517 141.356 280.587C141.138 280.75 140.868 280.827 140.597 280.803ZM139.765 280.52C140.497 280.665 141.04 280.642 141.234 280.448C141.275 280.403 141.303 280.348 141.316 280.289C141.329 280.23 141.325 280.168 141.306 280.11C141.302 280.08 141.29 280.051 141.272 280.027C141.253 280.003 141.229 279.984 141.201 279.972C140.924 279.866 140.242 280.193 139.765 280.52Z" fill="#FF5C8A"/>
<path d="M139.521 280.658H139.477C139.463 280.65 139.452 280.639 139.443 280.625C139.435 280.612 139.429 280.597 139.427 280.581C139.427 280.531 139.339 279.35 139.76 278.951C139.812 278.898 139.875 278.858 139.946 278.835C140.016 278.812 140.091 278.806 140.165 278.818C140.246 278.821 140.324 278.851 140.386 278.903C140.448 278.955 140.491 279.027 140.508 279.106C140.603 279.555 139.982 280.415 139.571 280.658H139.521ZM140.076 278.995C140.038 278.994 140 279.001 139.965 279.016C139.929 279.03 139.897 279.051 139.871 279.078C139.641 279.472 139.542 279.928 139.588 280.381C139.975 280.071 140.231 279.625 140.303 279.134C140.303 279.078 140.259 279.012 140.12 278.995H140.076Z" fill="#FF5C8A"/>
<path d="M157.644 176.228H135.662C135.524 174.265 136.028 167.879 135.751 159.746C135.593 153.722 134.912 147.723 133.716 141.817C133.622 141.373 133.522 140.935 133.423 140.492C133.423 140.492 134.531 140.264 136.134 140.032C137.464 139.837 139.127 139.638 140.757 139.56C143.869 139.383 146.987 139.383 150.099 139.56C151.535 139.693 152.937 139.932 154.052 140.148C155.482 140.436 156.325 140.702 156.325 140.702C156.325 140.702 161.636 153.115 157.644 176.228Z" fill="#FF5C8A"/>
<path d="M157.943 159.552C157.561 158.887 157.053 158.303 156.446 157.833C156.037 157.599 155.646 157.334 155.277 157.041C155.239 157.012 155.194 156.994 155.147 156.988C155.099 156.983 155.052 156.989 155.008 157.008C154.964 157.026 154.926 157.056 154.897 157.094C154.869 157.132 154.85 157.176 154.844 157.224C154.8 157.545 154.933 158.072 155.72 158.837C155.781 159.851 157.272 160.971 157.272 160.971L157.943 159.552Z" fill="#CE7A63"/>
<path opacity="0.3" d="M154.589 162.002H150.021L153.181 152.993H157.749L154.589 162.002Z" fill="black"/>
<path d="M154.9 162.002H150.332L153.492 152.993H158.06L154.9 162.002Z" fill="#263238"/>
<path opacity="0.3" d="M135.751 159.746C135.593 153.722 134.913 147.723 133.717 141.817C135.186 141.689 137.697 141.817 138.096 144.206C138.518 146.757 137.902 152.755 135.751 159.746Z" fill="black"/>
<path d="M137.72 145.704L135.38 153.709L134.221 157.706L133.667 159.702L133.39 160.694L133.257 161.193V161.254C133.257 161.287 133.257 161.254 133.257 161.254C133.259 161.219 133.259 161.184 133.257 161.149C133.267 161.046 133.267 160.942 133.257 160.838C133.217 160.575 133.121 160.324 132.974 160.101C132.885 159.968 132.77 159.855 132.636 159.768C132.492 159.691 132.586 159.768 132.741 159.841C133.218 160.008 133.713 160.116 134.216 160.162C135.505 160.299 136.801 160.354 138.097 160.328C140.785 160.295 143.591 160.14 146.335 159.951L146.945 162.978C144.177 163.861 141.345 164.526 138.474 164.969C136.965 165.21 135.439 165.332 133.911 165.335C133.005 165.335 132.103 165.229 131.222 165.019C130.576 164.867 129.963 164.596 129.415 164.22C128.989 163.924 128.626 163.548 128.345 163.111C127.996 162.599 127.778 162.009 127.707 161.393C127.68 161.114 127.68 160.834 127.707 160.556C127.707 160.434 127.707 160.312 127.757 160.19L127.796 159.968L127.896 159.414L128.09 158.355C128.223 157.651 128.367 156.947 128.522 156.248C128.822 154.851 129.132 153.476 129.481 152.073C130.163 149.302 130.923 146.585 131.799 143.846L137.72 145.704Z" fill="#CE7A63"/>
<path d="M133.417 140.487C130.679 141.124 127.607 148.337 126.526 152.389C126.343 153.082 126.199 153.676 126.088 154.13C125.944 154.729 125.866 155.089 125.866 155.089L135.053 157.706C135.241 157.251 135.474 156.686 135.718 156.043C136.861 153.232 137.838 150.358 138.645 147.433C139.948 142.338 137.509 139.544 133.417 140.487Z" fill="#FF5C8A"/>
<path d="M149.65 139.528C146.939 138.884 146.479 137.205 146.673 135.358C146.72 134.896 146.796 134.437 146.9 133.984L143.519 131.156L141.035 129.083C141.706 132.093 142.443 137.576 140.392 139.583C143.112 141.847 146.128 143.729 149.356 145.177C152.566 142.821 149.65 139.528 149.65 139.528Z" fill="#CE7A63"/>
<path opacity="0.2" d="M146.9 133.983C146.796 134.436 146.72 134.896 146.673 135.358C145.409 135.103 143.496 133.972 143.347 132.542C143.354 132.074 143.42 131.608 143.541 131.156L146.9 133.983Z" fill="black"/>
<path d="M153.237 119.536C154.418 121.41 152.189 126.804 149.356 126.416C146.523 126.028 151.008 115.977 153.237 119.536Z" fill="#263238"/>
<path d="M141.284 123.012C140.786 127.075 140.281 129.421 141.905 131.882C142.43 132.698 143.167 133.355 144.038 133.782C144.909 134.21 145.88 134.391 146.846 134.307C147.812 134.222 148.737 133.875 149.521 133.303C150.304 132.731 150.916 131.956 151.291 131.062C152.816 127.641 153.381 121.576 149.789 119.142C149.017 118.597 148.116 118.263 147.175 118.175C146.234 118.086 145.286 118.245 144.426 118.637C143.566 119.028 142.824 119.638 142.272 120.406C141.721 121.173 141.381 122.072 141.284 123.012Z" fill="#CE7A63"/>
<path d="M140.813 126.128C142.892 125.867 144.394 122.402 143.967 120.783C145.497 121.892 157.644 123.3 155.793 115.378C152.328 115.378 137.869 114.729 140.27 117.851C138.606 117.851 137.032 119.358 138.163 122.84C139.305 126.421 140.813 126.128 140.813 126.128Z" fill="#263238"/>
<path d="M139.033 126.66C139.386 127.606 140.056 128.399 140.929 128.905C142.038 129.521 142.704 128.506 142.471 127.242C142.266 126.095 141.434 124.393 140.253 124.309C139.072 124.226 138.59 125.463 139.033 126.66Z" fill="#CE7A63"/>
<path d="M147.105 125.429C147.044 125.756 147.166 126.056 147.377 126.1C147.588 126.144 147.809 125.917 147.87 125.59C147.931 125.263 147.809 124.964 147.599 124.919C147.388 124.875 147.166 125.102 147.105 125.429Z" fill="#263238"/>
<path d="M150.764 126.211C150.704 126.538 150.825 126.843 151.036 126.887C151.247 126.932 151.469 126.704 151.53 126.377C151.591 126.05 151.469 125.751 151.258 125.707C151.047 125.662 150.825 125.89 150.764 126.211Z" fill="#263238"/>
<path d="M149.567 126.128C149.769 127.209 150.114 128.259 150.592 129.249C150.34 129.361 150.066 129.415 149.79 129.408C149.514 129.402 149.242 129.334 148.996 129.21L149.567 126.128Z" fill="#BA4D3C"/>
<path d="M147.51 129.809C147.147 129.687 146.813 129.493 146.527 129.238C146.241 128.984 146.01 128.675 145.847 128.328C145.839 128.316 145.834 128.302 145.833 128.288C145.831 128.273 145.833 128.259 145.837 128.245C145.842 128.231 145.849 128.218 145.859 128.208C145.87 128.197 145.882 128.189 145.895 128.184C145.909 128.178 145.923 128.176 145.938 128.177C145.952 128.178 145.967 128.182 145.979 128.189C145.992 128.196 146.003 128.205 146.012 128.217C146.021 128.229 146.027 128.242 146.03 128.256C146.213 128.63 146.48 128.956 146.81 129.21C147.139 129.464 147.523 129.638 147.931 129.72C147.944 129.722 147.957 129.727 147.968 129.734C147.979 129.741 147.988 129.75 147.996 129.761C148.003 129.772 148.008 129.784 148.01 129.797C148.013 129.81 148.012 129.824 148.009 129.836C148.002 129.861 147.986 129.882 147.965 129.896C147.943 129.909 147.917 129.914 147.892 129.909C147.763 129.883 147.635 129.85 147.51 129.809Z" fill="#263238"/>
<path d="M146.196 123.993C146.164 123.982 146.136 123.963 146.114 123.938C146.091 123.912 146.076 123.882 146.07 123.849C146.063 123.816 146.065 123.781 146.075 123.749C146.086 123.718 146.104 123.689 146.129 123.666C146.353 123.455 146.626 123.302 146.922 123.221C147.219 123.14 147.531 123.133 147.831 123.2C147.881 123.216 147.923 123.25 147.947 123.296C147.972 123.341 147.978 123.394 147.964 123.444C147.948 123.493 147.914 123.534 147.868 123.559C147.823 123.583 147.77 123.59 147.721 123.577C147.485 123.528 147.241 123.536 147.009 123.602C146.777 123.667 146.565 123.788 146.39 123.954C146.364 123.978 146.332 123.994 146.298 124C146.264 124.007 146.229 124.005 146.196 123.993Z" fill="#263238"/>
<path d="M152.566 125.279C152.536 125.27 152.509 125.254 152.488 125.232C152.466 125.209 152.451 125.182 152.444 125.152C152.387 124.909 152.274 124.683 152.116 124.49C151.957 124.298 151.756 124.145 151.529 124.043C151.504 124.035 151.482 124.022 151.462 124.005C151.443 123.988 151.428 123.967 151.417 123.943C151.406 123.92 151.4 123.895 151.399 123.869C151.398 123.843 151.403 123.817 151.413 123.793C151.429 123.745 151.464 123.705 151.509 123.682C151.555 123.659 151.608 123.655 151.656 123.671C151.943 123.793 152.197 123.981 152.398 124.218C152.6 124.456 152.742 124.738 152.815 125.041C152.829 125.09 152.823 125.143 152.798 125.187C152.773 125.232 152.731 125.265 152.682 125.279C152.645 125.293 152.603 125.293 152.566 125.279Z" fill="#263238"/>
<path d="M145.603 160.101L149.993 157.828L149.24 162.956C149.24 162.956 145.63 163.948 145.292 162.046L145.603 160.101Z" fill="#CE7A63"/>
<path d="M148.597 158.549C149.088 157.951 149.691 157.454 150.371 157.085C150.862 156.863 151.332 156.596 151.773 156.287C151.815 156.265 151.862 156.254 151.909 156.255C151.956 156.256 152.002 156.27 152.043 156.295C152.083 156.319 152.116 156.354 152.139 156.395C152.162 156.437 152.173 156.483 152.173 156.531C152.088 156.879 151.933 157.207 151.716 157.493C151.5 157.779 151.227 158.018 150.914 158.194C150.681 159.186 149.018 160.057 149.018 160.057L148.597 158.549Z" fill="#CE7A63"/>
<path d="M153.586 158.537L152.971 161.736C152.945 161.873 152.878 161.999 152.779 162.098C152.68 162.197 152.554 162.264 152.417 162.29L149.201 162.956L149.983 157.872L152.871 157.722C152.976 157.715 153.081 157.732 153.178 157.772C153.275 157.812 153.361 157.874 153.43 157.953C153.5 158.032 153.55 158.125 153.577 158.227C153.604 158.328 153.607 158.434 153.586 158.537Z" fill="#CE7A63"/>
<path d="M145.265 162.046L145.603 160.101L149.994 157.828" fill="#CE7A63"/>
<path d="M159.89 160.522L156.391 158.404L156.136 162.956C156.136 162.956 159.823 164.369 160.195 162.468L159.89 160.522Z" fill="#CE7A63"/>
<path d="M154.783 158.454L154.506 162.041C154.499 162.139 154.524 162.237 154.578 162.319C154.632 162.402 154.712 162.464 154.806 162.495L156.131 162.956L156.386 158.404L155.377 158.06C155.312 158.038 155.242 158.031 155.174 158.04C155.106 158.049 155.04 158.073 154.983 158.111C154.926 158.149 154.878 158.2 154.843 158.259C154.809 158.319 154.788 158.385 154.783 158.454Z" fill="#CE7A63"/>
<defs>
<clipPath id="clip0_4791_30221">
<rect width="32.679" height="32.8131" fill="white" transform="translate(171.188 55.6804)"/>
</clipPath>
</defs>
</svg>
