<svg width="329" height="207" viewBox="0 0 329 207" fill="none" xmlns="http://www.w3.org/2000/svg">
<rect width="328" height="206" transform="translate(0.421875 0.919922)" fill="#E1E9FE"/>
<g clip-path="url(#clip0_6971_45134)">
<path d="M252.737 30.8076H234.852V236.999H252.737C256.724 236.999 260.549 235.415 263.369 232.595C266.189 229.775 267.773 225.95 267.773 221.963V45.8441C267.773 41.8561 266.189 38.0316 263.369 35.2117C260.549 32.3918 256.724 30.8076 252.737 30.8076Z" fill="#1C2D5E"/>
<path d="M265.625 51.4915C265.61 51.293 265.636 51.0936 265.702 50.9057C265.767 50.7177 265.871 50.5454 266.006 50.3994C266.142 50.2534 266.306 50.1369 266.488 50.0573C266.67 49.9776 266.867 49.9365 267.066 49.9365C267.265 49.9365 267.462 49.9776 267.645 50.0573C267.827 50.1369 267.991 50.2534 268.126 50.3994C268.262 50.5454 268.365 50.7177 268.431 50.9057C268.496 51.0936 268.522 51.293 268.507 51.4915V65.2999C268.48 65.6632 268.316 66.0025 268.049 66.2502C267.781 66.4978 267.431 66.6353 267.066 66.6353C266.702 66.6353 266.351 66.4978 266.084 66.2502C265.817 66.0025 265.653 65.6632 265.625 65.2999V51.4915Z" fill="#FF5C8A"/>
<path opacity="0.3" d="M265.625 51.4915C265.61 51.293 265.636 51.0936 265.702 50.9057C265.767 50.7177 265.871 50.5454 266.006 50.3994C266.142 50.2534 266.306 50.1369 266.488 50.0573C266.67 49.9776 266.867 49.9365 267.066 49.9365C267.265 49.9365 267.462 49.9776 267.645 50.0573C267.827 50.1369 267.991 50.2534 268.126 50.3994C268.262 50.5454 268.365 50.7177 268.431 50.9057C268.496 51.0936 268.522 51.293 268.507 51.4915V65.2999C268.48 65.6632 268.316 66.0025 268.049 66.2502C267.781 66.4978 267.431 66.6353 267.066 66.6353C266.702 66.6353 266.351 66.4978 266.084 66.2502C265.817 66.0025 265.653 65.6632 265.625 65.2999V51.4915Z" fill="white"/>
<path d="M249.076 236.999H131.558C127.57 236.999 123.745 235.415 120.926 232.595C118.106 229.775 116.521 225.95 116.521 221.963V45.8441C116.521 41.8561 118.106 38.0316 120.926 35.2117C123.745 32.3918 127.57 30.8076 131.558 30.8076H249.076C253.064 30.8076 256.889 32.3918 259.708 35.2117C262.528 38.0316 264.113 41.8561 264.113 45.8441V221.979C264.108 225.964 262.522 229.785 259.703 232.601C256.883 235.417 253.061 236.999 249.076 236.999Z" fill="#FF5C8A"/>
<path opacity="0.6" d="M121.14 222.247L258.59 222.247V45.5689L121.14 45.5689L121.14 222.247Z" fill="white"/>
<path opacity="0.2" d="M187.193 38.9612C187.192 39.4923 187.348 40.0119 187.642 40.4541C187.936 40.8964 188.355 41.2414 188.845 41.4454C189.335 41.6494 189.875 41.7032 190.396 41.6C190.917 41.4968 191.395 41.2412 191.771 40.8657C192.146 40.4902 192.402 40.0116 192.505 39.4907C192.608 38.9697 192.555 38.4299 192.351 37.9396C192.147 37.4492 191.802 37.0305 191.359 36.7365C190.917 36.4425 190.398 36.2864 189.867 36.2881C189.158 36.2903 188.48 36.5726 187.979 37.0735C187.478 37.5743 187.196 38.253 187.193 38.9612Z" fill="#1C2D5E"/>
<path d="M211.352 76.5513C211.186 77.7915 211.291 79.0527 211.659 80.2484C212.027 81.4442 212.649 82.5461 213.484 83.4786C214.318 84.4111 215.344 85.152 216.491 85.6506C217.639 86.1491 218.88 86.3934 220.131 86.3668C222.82 86.3139 225.4 85.2916 227.395 83.4882C229.39 81.6847 230.667 79.2214 230.991 76.5513L232.01 66.7275H212.387L211.352 76.5513Z" fill="#FF5C8A"/>
<path d="M172.107 76.5513C171.94 77.7917 172.044 79.0535 172.411 80.2499C172.779 81.4462 173.401 82.5488 174.235 83.4816C175.07 84.4144 176.096 85.1553 177.244 85.6534C178.393 86.1515 179.635 86.3949 180.886 86.3668C183.575 86.3121 186.153 85.2893 188.148 83.4862C190.143 81.683 191.421 79.2207 191.746 76.5513L192.757 66.7275H173.134L172.107 76.5513Z" fill="#FF5C8A"/>
<path d="M132.853 76.5513C132.688 77.7915 132.793 79.0527 133.161 80.2484C133.529 81.4442 134.151 82.5461 134.986 83.4786C135.82 84.4111 136.846 85.152 137.993 85.6506C139.141 86.1491 140.382 86.3934 141.633 86.3668C144.322 86.3139 146.902 85.2916 148.897 83.4882C150.892 81.6847 152.169 79.2214 152.493 76.5513L153.512 66.7275H133.889L132.853 76.5513Z" fill="#FF5C8A"/>
<path d="M230.973 76.5513C230.809 77.7919 230.915 79.0533 231.284 80.249C231.654 81.4447 232.277 82.5465 233.111 83.4788C233.946 84.4111 234.973 85.1519 236.12 85.6504C237.268 86.1489 238.51 86.3933 239.761 86.3668C242.449 86.3104 245.027 85.287 247.022 83.4842C249.016 81.6814 250.294 79.22 250.621 76.5513L251.632 66.7275H232.009L230.973 76.5513Z" fill="#FF5C8A"/>
<path d="M191.728 76.5513C191.563 77.7915 191.668 79.0527 192.036 80.2484C192.404 81.4442 193.026 82.5461 193.861 83.4786C194.695 84.4111 195.721 85.152 196.868 85.6506C198.016 86.1491 199.257 86.3934 200.508 86.3668C203.197 86.3139 205.777 85.2916 207.772 83.4882C209.767 81.6847 211.044 79.2214 211.368 76.5513L212.387 66.7275H192.756L191.728 76.5513Z" fill="#FF5C8A"/>
<path d="M152.477 76.5513C152.311 77.7915 152.416 79.0527 152.784 80.2484C153.152 81.4442 153.774 82.5461 154.609 83.4786C155.443 84.4111 156.469 85.152 157.616 85.6506C158.764 86.1491 160.005 86.3934 161.256 86.3668C163.944 86.3104 166.522 85.287 168.516 83.4842C170.511 81.6814 171.789 79.22 172.116 76.5513L173.135 66.7275H153.512L152.477 76.5513Z" fill="#FF5C8A"/>
<path d="M113.23 76.5513C113.065 77.7915 113.17 79.0527 113.538 80.2484C113.906 81.4442 114.528 82.5461 115.362 83.4786C116.197 84.4111 117.223 85.152 118.37 85.6506C119.517 86.1491 120.759 86.3934 122.01 86.3668C124.699 86.3139 127.279 85.2916 129.274 83.4882C131.269 81.6847 132.546 79.2214 132.87 76.5513L133.889 66.7275H114.258L113.23 76.5513Z" fill="#FF5C8A"/>
<g opacity="0.9">
<path d="M230.973 76.5513C230.809 77.7919 230.915 79.0533 231.284 80.249C231.654 81.4447 232.277 82.5465 233.111 83.4788C233.946 84.4111 234.973 85.1519 236.12 85.6504C237.268 86.1489 238.51 86.3933 239.761 86.3668C242.449 86.3104 245.027 85.287 247.022 83.4842C249.016 81.6814 250.294 79.22 250.621 76.5513L251.632 66.7275H232.009L230.973 76.5513Z" fill="white"/>
<path d="M191.728 76.5513C191.563 77.7915 191.668 79.0527 192.036 80.2484C192.404 81.4442 193.026 82.5461 193.861 83.4786C194.695 84.4111 195.721 85.152 196.868 85.6506C198.016 86.1491 199.257 86.3934 200.508 86.3668C203.197 86.3139 205.777 85.2916 207.772 83.4882C209.767 81.6847 211.044 79.2214 211.368 76.5513L212.387 66.7275H192.756L191.728 76.5513Z" fill="white"/>
<path d="M152.477 76.5513C152.311 77.7915 152.416 79.0527 152.784 80.2484C153.152 81.4442 153.774 82.5461 154.609 83.4786C155.443 84.4111 156.469 85.152 157.616 85.6506C158.764 86.1491 160.005 86.3934 161.256 86.3668C163.944 86.3104 166.522 85.287 168.516 83.4842C170.511 81.6814 171.789 79.22 172.116 76.5513L173.135 66.7275H153.512L152.477 76.5513Z" fill="white"/>
<path d="M113.23 76.5513C113.065 77.7915 113.17 79.0527 113.538 80.2484C113.906 81.4442 114.528 82.5461 115.362 83.4786C116.197 84.4111 117.223 85.152 118.37 85.6506C119.517 86.1491 120.759 86.3934 122.01 86.3668C124.699 86.3139 127.279 85.2916 129.274 83.4882C131.269 81.6847 132.546 79.2214 132.87 76.5513L133.889 66.7275H114.258L113.23 76.5513Z" fill="white"/>
</g>
<path d="M114.258 66.7369H251.708L258.232 45.5605H120.782L114.258 66.7369Z" fill="#FF5C8A"/>
<path opacity="0.2" d="M114.258 66.7369H251.708L258.232 45.5605H120.782L114.258 66.7369Z" fill="#1C2D5E"/>
<path opacity="0.2" d="M182.758 89.2651H138.384C135.828 89.2651 133.756 91.3371 133.756 93.893V138.267C133.756 140.823 135.828 142.895 138.384 142.895H182.758C185.314 142.895 187.386 140.823 187.386 138.267V93.893C187.386 91.3371 185.314 89.2651 182.758 89.2651Z" fill="#1C2D5E"/>
<path d="M180.611 87.1191H136.237C133.681 87.1191 131.609 89.1911 131.609 91.747V136.121C131.609 138.677 133.681 140.749 136.237 140.749H180.611C183.167 140.749 185.239 138.677 185.239 136.121V91.747C185.239 89.1911 183.167 87.1191 180.611 87.1191Z" fill="#FF5C8A"/>
<path d="M140.096 99.6991L137.682 101.37C137.568 101.447 137.434 101.488 137.297 101.486C137.159 101.484 137.026 101.44 136.915 101.36C136.803 101.279 136.719 101.167 136.674 101.037C136.629 100.907 136.625 100.767 136.663 100.635L137.498 97.8195C137.539 97.6891 137.539 97.5491 137.497 97.4189C137.455 97.2887 137.374 97.1748 137.264 97.0928L134.917 95.3135C134.809 95.2288 134.729 95.1127 134.689 94.9812C134.649 94.8496 134.651 94.7089 134.694 94.5783C134.737 94.4476 134.819 94.3334 134.929 94.2512C135.039 94.169 135.172 94.1228 135.31 94.1189L138.25 94.0604C138.386 94.0582 138.518 94.0146 138.628 93.9355C138.739 93.8564 138.822 93.7456 138.868 93.6177L139.837 90.8276C139.881 90.6959 139.965 90.5812 140.077 90.5C140.19 90.4187 140.325 90.375 140.464 90.375C140.602 90.375 140.738 90.4187 140.85 90.5C140.963 90.5812 141.047 90.6959 141.09 90.8276L142.059 93.6177C142.105 93.7443 142.187 93.8542 142.296 93.9332C142.405 94.0122 142.535 94.0565 142.669 94.0604L145.618 94.1189C145.755 94.1244 145.886 94.1718 145.995 94.2546C146.104 94.3374 146.185 94.4517 146.227 94.582C146.269 94.7123 146.27 94.8523 146.23 94.9831C146.189 95.1139 146.11 95.2293 146.002 95.3135L143.655 97.0928C143.548 97.177 143.469 97.2911 143.427 97.4206C143.386 97.55 143.383 97.6889 143.421 97.8195L144.256 100.635C144.297 100.766 144.296 100.908 144.252 101.038C144.209 101.169 144.126 101.283 144.014 101.364C143.903 101.446 143.769 101.49 143.631 101.491C143.493 101.492 143.358 101.449 143.245 101.37L140.823 99.6991C140.715 99.629 140.588 99.5917 140.46 99.5917C140.331 99.5917 140.204 99.629 140.096 99.6991Z" fill="white"/>
<path d="M162.868 148.577H134.115C132.731 148.577 131.609 149.699 131.609 151.083V152.512C131.609 153.896 132.731 155.018 134.115 155.018H162.868C164.253 155.018 165.375 153.896 165.375 152.512V151.083C165.375 149.699 164.253 148.577 162.868 148.577Z" fill="#1C2D5E"/>
<path opacity="0.4" d="M162.868 148.577H134.115C132.731 148.577 131.609 149.699 131.609 151.083V152.512C131.609 153.896 132.731 155.018 134.115 155.018H162.868C164.253 155.018 165.375 153.896 165.375 152.512V151.083C165.375 149.699 164.253 148.577 162.868 148.577Z" fill="white"/>
<path d="M183.71 148.577H177.069C175.685 148.577 174.562 149.699 174.562 151.083V152.512C174.562 153.896 175.685 155.018 177.069 155.018H183.71C185.094 155.018 186.216 153.896 186.216 152.512V151.083C186.216 149.699 185.094 148.577 183.71 148.577Z" fill="#FF5C8A"/>
<path opacity="0.2" d="M242.946 96.4585H209.298C206.742 96.4585 204.67 98.5305 204.67 101.086V134.735C204.67 137.291 206.742 139.362 209.298 139.362H242.946C245.502 139.362 247.574 137.291 247.574 134.735V101.086C247.574 98.5305 245.502 96.4585 242.946 96.4585Z" fill="#1C2D5E"/>
<path d="M241.233 94.7461H207.585C205.029 94.7461 202.957 96.8181 202.957 99.374V133.022C202.957 135.578 205.029 137.65 207.585 137.65H241.233C243.789 137.65 245.861 135.578 245.861 133.022V99.374C245.861 96.8181 243.789 94.7461 241.233 94.7461Z" fill="#FF5C8A"/>
<path opacity="0.8" d="M241.233 94.7461H207.585C205.029 94.7461 202.957 96.8181 202.957 99.374V133.022C202.957 135.578 205.029 137.65 207.585 137.65H241.233C243.789 137.65 245.861 135.578 245.861 133.022V99.374C245.861 96.8181 243.789 94.7461 241.233 94.7461Z" fill="white"/>
<path d="M210.14 106.249L208.16 107.661C208.068 107.727 207.957 107.763 207.843 107.763C207.73 107.763 207.619 107.727 207.526 107.66C207.434 107.594 207.365 107.5 207.329 107.392C207.293 107.285 207.291 107.168 207.325 107.059L208.027 104.746C208.058 104.639 208.057 104.525 208.022 104.419C207.988 104.313 207.923 104.22 207.834 104.152L205.905 102.649C205.814 102.581 205.747 102.486 205.713 102.378C205.679 102.27 205.679 102.154 205.714 102.047C205.749 101.939 205.817 101.845 205.908 101.778C205.999 101.71 206.109 101.673 206.222 101.671L208.636 101.621C208.749 101.619 208.858 101.583 208.949 101.517C209.04 101.452 209.109 101.36 209.146 101.254L209.94 98.9649C209.976 98.8577 210.045 98.7647 210.138 98.6989C210.23 98.633 210.34 98.5977 210.453 98.5977C210.567 98.5977 210.677 98.633 210.769 98.6989C210.861 98.7647 210.93 98.8577 210.967 98.9649L211.761 101.254C211.798 101.36 211.867 101.452 211.958 101.517C212.049 101.583 212.158 101.619 212.27 101.621L214.684 101.671C214.798 101.673 214.908 101.71 214.999 101.778C215.09 101.845 215.158 101.939 215.193 102.047C215.228 102.154 215.228 102.27 215.194 102.378C215.16 102.486 215.092 102.581 215.002 102.649L213.072 104.111C212.984 104.179 212.918 104.272 212.884 104.377C212.85 104.483 212.848 104.597 212.88 104.704L213.582 107.018C213.615 107.126 213.614 107.243 213.578 107.351C213.542 107.458 213.473 107.552 213.38 107.619C213.288 107.685 213.177 107.721 213.063 107.721C212.95 107.721 212.839 107.685 212.746 107.619L210.767 106.241C210.674 106.177 210.564 106.144 210.452 106.146C210.34 106.147 210.231 106.183 210.14 106.249Z" fill="#FF5C8A"/>
<path d="M227.466 143.907H205.463C204.079 143.907 202.957 145.029 202.957 146.413V146.555C202.957 147.939 204.079 149.061 205.463 149.061H227.466C228.85 149.061 229.973 147.939 229.973 146.555V146.413C229.973 145.029 228.85 143.907 227.466 143.907Z" fill="#1C2D5E"/>
<path opacity="0.4" d="M227.466 143.907H205.463C204.079 143.907 202.957 145.029 202.957 146.413V146.555C202.957 147.939 204.079 149.061 205.463 149.061H227.466C228.85 149.061 229.973 147.939 229.973 146.555V146.413C229.973 145.029 228.85 143.907 227.466 143.907Z" fill="white"/>
<path d="M244.131 143.907H239.821C238.436 143.907 237.314 145.029 237.314 146.413V146.555C237.314 147.939 238.436 149.061 239.821 149.061H244.131C245.515 149.061 246.637 147.939 246.637 146.555V146.413C246.637 145.029 245.515 143.907 244.131 143.907Z" fill="#FF5C8A"/>
<path opacity="0.2" d="M242.946 162.276H209.298C206.742 162.276 204.67 164.348 204.67 166.904V200.552C204.67 203.108 206.742 205.18 209.298 205.18H242.946C245.502 205.18 247.574 203.108 247.574 200.552V166.904C247.574 164.348 245.502 162.276 242.946 162.276Z" fill="#1C2D5E"/>
<path d="M241.233 160.556H207.585C205.029 160.556 202.957 162.628 202.957 165.184V198.832C202.957 201.388 205.029 203.46 207.585 203.46H241.233C243.789 203.46 245.861 201.388 245.861 198.832V165.184C245.861 162.628 243.789 160.556 241.233 160.556Z" fill="#FF5C8A"/>
<path opacity="0.8" d="M241.233 160.556H207.585C205.029 160.556 202.957 162.628 202.957 165.184V198.832C202.957 201.388 205.029 203.46 207.585 203.46H241.233C243.789 203.46 245.861 201.388 245.861 198.832V165.184C245.861 162.628 243.789 160.556 241.233 160.556Z" fill="white"/>
<path d="M210.141 171.281L208.161 172.659C208.069 172.726 207.958 172.761 207.844 172.761C207.73 172.761 207.62 172.725 207.527 172.659C207.435 172.592 207.366 172.499 207.33 172.391C207.294 172.283 207.292 172.166 207.326 172.058L208.028 169.744C208.059 169.637 208.058 169.523 208.023 169.418C207.989 169.312 207.924 169.219 207.835 169.151L205.906 167.689C205.817 167.619 205.751 167.524 205.718 167.416C205.685 167.308 205.685 167.193 205.72 167.085C205.755 166.977 205.821 166.883 205.911 166.815C206.001 166.747 206.11 166.708 206.223 166.703L208.637 166.661C208.75 166.659 208.859 166.623 208.95 166.557C209.041 166.492 209.109 166.4 209.147 166.294L209.94 164.005C209.977 163.898 210.046 163.805 210.138 163.739C210.231 163.673 210.341 163.638 210.454 163.638C210.567 163.638 210.678 163.673 210.77 163.739C210.862 163.805 210.931 163.898 210.968 164.005L211.762 166.294C211.799 166.4 211.868 166.492 211.959 166.557C212.05 166.623 212.159 166.659 212.271 166.661L214.685 166.703C214.798 166.708 214.907 166.747 214.997 166.815C215.087 166.883 215.154 166.977 215.189 167.085C215.223 167.193 215.224 167.308 215.191 167.416C215.157 167.524 215.092 167.619 215.003 167.689L213.073 169.151C212.985 169.219 212.919 169.312 212.885 169.418C212.851 169.523 212.849 169.637 212.881 169.744L213.583 172.058C213.616 172.166 213.615 172.283 213.579 172.391C213.543 172.499 213.473 172.592 213.381 172.659C213.289 172.725 213.178 172.761 213.064 172.761C212.951 172.761 212.84 172.726 212.747 172.659L210.767 171.281C210.676 171.216 210.566 171.181 210.454 171.181C210.342 171.181 210.233 171.216 210.141 171.281Z" fill="#FF5C8A"/>
<path opacity="0.2" d="M175.507 162.276H141.858C139.302 162.276 137.23 164.348 137.23 166.904V200.552C137.23 203.108 139.302 205.18 141.858 205.18H175.507C178.062 205.18 180.134 203.108 180.134 200.552V166.904C180.134 164.348 178.062 162.276 175.507 162.276Z" fill="#1C2D5E"/>
<path d="M173.794 160.556H140.145C137.59 160.556 135.518 162.628 135.518 165.184V198.832C135.518 201.388 137.59 203.46 140.145 203.46H173.794C176.35 203.46 178.422 201.388 178.422 198.832V165.184C178.422 162.628 176.35 160.556 173.794 160.556Z" fill="#FF5C8A"/>
<path opacity="0.8" d="M173.794 160.556H140.145C137.59 160.556 135.518 162.628 135.518 165.184V198.832C135.518 201.388 137.59 203.46 140.145 203.46H173.794C176.35 203.46 178.422 201.388 178.422 198.832V165.184C178.422 162.628 176.35 160.556 173.794 160.556Z" fill="white"/>
<path d="M141.641 171.281L139.661 172.659C139.569 172.726 139.458 172.761 139.344 172.761C139.23 172.761 139.12 172.725 139.027 172.659C138.935 172.592 138.866 172.499 138.83 172.391C138.794 172.283 138.792 172.166 138.826 172.058L139.528 169.744C139.562 169.637 139.561 169.523 139.527 169.416C139.492 169.31 139.425 169.217 139.335 169.151L137.406 167.689C137.317 167.619 137.251 167.524 137.218 167.416C137.185 167.308 137.185 167.193 137.22 167.085C137.255 166.977 137.321 166.883 137.411 166.815C137.501 166.747 137.61 166.708 137.723 166.703L140.146 166.661C140.256 166.658 140.364 166.62 140.453 166.555C140.542 166.489 140.61 166.398 140.647 166.294L141.44 164.005C141.477 163.898 141.546 163.805 141.638 163.739C141.731 163.673 141.841 163.638 141.954 163.638C142.067 163.638 142.178 163.673 142.27 163.739C142.362 163.805 142.431 163.898 142.468 164.005L143.262 166.294C143.299 166.4 143.368 166.492 143.459 166.557C143.55 166.623 143.659 166.659 143.771 166.661L146.185 166.703C146.298 166.708 146.407 166.747 146.497 166.815C146.587 166.883 146.654 166.977 146.689 167.085C146.723 167.193 146.724 167.308 146.691 167.416C146.657 167.524 146.592 167.619 146.503 167.689L144.581 169.151C144.491 169.217 144.424 169.31 144.39 169.416C144.355 169.523 144.355 169.637 144.389 169.744L145.083 172.058C145.116 172.166 145.115 172.283 145.079 172.391C145.043 172.499 144.973 172.592 144.881 172.659C144.789 172.725 144.678 172.761 144.564 172.761C144.451 172.761 144.34 172.726 144.247 172.659L142.267 171.281C142.176 171.216 142.066 171.181 141.954 171.181C141.842 171.181 141.733 171.216 141.641 171.281Z" fill="#FF5C8A"/>
<path d="M170.303 128.284C178.228 122.321 179.818 111.063 173.855 103.138C167.892 95.2133 156.633 93.6231 148.708 99.5862C140.784 105.549 139.193 116.808 145.157 124.732C151.12 132.657 162.378 134.248 170.303 128.284Z" fill="#FF336D"/>
<path opacity="0.1" d="M173.904 118.357C174.511 115.969 174.51 113.467 173.898 111.081C173.286 108.694 172.085 106.5 170.404 104.699C168.723 102.898 166.616 101.548 164.277 100.774C161.939 99.9993 159.443 99.8252 157.019 100.267C154.595 100.709 152.322 101.753 150.407 103.303C148.492 104.854 146.997 106.86 146.06 109.139C145.123 111.417 144.774 113.894 145.044 116.343C145.315 118.792 146.196 121.134 147.608 123.153C146.019 121.108 144.983 118.688 144.602 116.126C144.22 113.565 144.505 110.948 145.43 108.529C146.354 106.11 147.886 103.97 149.878 102.315C151.87 100.66 154.255 99.5466 156.803 99.082C159.351 98.6173 161.975 98.8171 164.423 99.662C166.871 100.507 169.06 101.969 170.779 103.906C172.498 105.843 173.688 108.19 174.235 110.722C174.783 113.253 174.668 115.883 173.904 118.357Z" fill="#1C2D5E"/>
<path d="M165.035 116.506L163.25 120.307C163.106 120.593 162.857 120.813 162.555 120.92C162.404 120.984 162.242 121.017 162.078 121.017C161.914 121.017 161.752 120.984 161.601 120.92L158.263 119.34L157.01 122.065C156.941 122.208 156.844 122.337 156.725 122.442C156.605 122.547 156.466 122.627 156.315 122.678C156.169 122.741 156.011 122.774 155.851 122.774C155.692 122.774 155.534 122.741 155.388 122.678C155.24 122.612 155.106 122.516 154.996 122.397C154.886 122.277 154.801 122.136 154.748 121.983C154.681 121.838 154.646 121.68 154.646 121.52C154.646 121.36 154.681 121.202 154.748 121.056L156.015 118.331L152.704 116.764C152.488 116.662 152.308 116.497 152.185 116.292C152.063 116.087 152.003 115.85 152.015 115.611C152.027 115.372 152.109 115.142 152.251 114.95C152.393 114.758 152.588 114.611 152.813 114.53C152.958 114.463 153.116 114.428 153.276 114.428C153.436 114.428 153.594 114.463 153.74 114.53L161.492 118.195L162.242 116.615L154.584 112.895C154.438 112.831 154.307 112.738 154.199 112.621C154.091 112.503 154.009 112.365 153.958 112.214C153.89 112.069 153.856 111.91 153.856 111.751C153.856 111.591 153.89 111.432 153.958 111.287L155.742 107.5C155.809 107.353 155.905 107.222 156.025 107.114C156.144 107.006 156.285 106.924 156.437 106.873C156.734 106.75 157.067 106.75 157.364 106.873L160.647 108.426L161.915 105.701C161.977 105.557 162.069 105.427 162.184 105.319C162.299 105.211 162.434 105.128 162.582 105.074C162.741 105.015 162.911 104.99 163.08 105.002C163.249 105.014 163.414 105.062 163.563 105.142C163.707 105.207 163.836 105.301 163.942 105.418C164.047 105.535 164.127 105.674 164.176 105.824C164.299 106.12 164.299 106.454 164.176 106.75L162.909 109.475L166.274 111.069C166.423 111.136 166.556 111.232 166.666 111.351C166.776 111.47 166.861 111.611 166.915 111.764C166.979 111.91 167.012 112.068 167.012 112.227C167.012 112.387 166.979 112.545 166.915 112.691C166.848 112.839 166.753 112.972 166.633 113.082C166.514 113.192 166.373 113.277 166.22 113.331C165.914 113.454 165.572 113.454 165.266 113.331L157.514 109.666L156.778 111.233L164.503 114.884C164.652 114.951 164.785 115.047 164.895 115.166C165.005 115.285 165.09 115.426 165.144 115.579C165.191 115.733 165.205 115.894 165.187 116.054C165.168 116.213 165.116 116.367 165.035 116.506Z" fill="#FAFAFA"/>
<path d="M95.346 73.6873C95.1371 76.018 96.3317 77.8641 98.0024 77.8641C99.6731 77.8641 101.193 75.9762 101.402 73.6873C101.611 71.3984 100.417 69.4688 98.7375 69.4688C97.0585 69.4688 95.5465 71.3567 95.346 73.6873Z" fill="#FF5C8A"/>
<path d="M97.3592 62.209C97.3592 62.209 99.3807 63.1028 98.7041 64.8487C98.7041 64.8487 101.569 68.6914 98.7041 69.4682L95.6133 62.9525L97.3592 62.209Z" fill="#1C2D5E"/>
<path opacity="0.5" d="M94.3267 73.6873C94.1262 76.018 95.3207 77.8641 96.9914 77.8641C98.6622 77.8641 100.183 75.9762 100.383 73.6873C100.583 71.3984 99.3973 69.4688 97.7266 69.4688C96.0558 69.4688 94.5355 71.3567 94.3267 73.6873Z" fill="#1C2D5E"/>
<path d="M108.276 142.354C108.276 142.354 116.221 190.195 118.568 206.885C121.141 225.155 131.265 278.601 131.265 278.601L120.89 281.466C120.89 281.466 106.071 229.674 101.869 211.914C97.308 192.634 87.2754 142.354 87.2754 142.354H108.276Z" fill="#1C2D5E"/>
<path opacity="0.5" d="M95.5372 161.959C99.597 172.1 100.056 189.333 98.4108 196.392C95.9047 184.797 93.0645 170.922 90.8926 160.137C91.6528 157.381 93.0729 155.81 95.5372 161.959Z" fill="#1C2D5E"/>
<path d="M110.332 94.0366C111.886 97.3781 113.59 100.845 115.344 104.103C116.221 105.773 117.148 107.344 118.109 108.864C118.989 110.3 119.987 111.661 121.091 112.932C121.463 113.356 121.88 113.737 122.336 114.069C122.395 114.119 122.428 114.127 122.403 114.127C122.378 114.127 122.47 114.127 122.511 114.194C122.772 114.256 123.038 114.295 123.305 114.311C124.985 114.351 126.665 114.216 128.317 113.91C131.918 113.308 135.702 112.406 139.394 111.521L141.065 115.53C137.547 117.567 133.833 119.247 129.98 120.543C127.861 121.28 125.658 121.748 123.422 121.938C122.715 121.986 122.004 121.969 121.3 121.887C120.856 121.828 120.418 121.733 119.989 121.603C119.549 121.475 119.121 121.307 118.711 121.102C117.481 120.464 116.355 119.644 115.369 118.671C113.785 117.118 112.356 115.414 111.1 113.584C109.881 111.863 108.803 110.117 107.759 108.363C106.715 106.609 105.771 104.829 104.885 103.017C104 101.204 103.123 99.4414 102.312 97.5034L110.332 94.0366Z" fill="#CE7A63"/>
<path d="M119.88 108.33L110.591 115.263C110.591 115.263 110.232 114.87 109.639 114.194L108.018 112.256C104.41 107.862 99.1301 99.8339 99.0883 95.8994C99.0298 90.0519 105.111 89.2165 111.936 95.1726C114.885 97.7622 116.422 102.056 117.917 104.712C118.41 105.59 118.828 106.383 119.154 106.951L119.88 108.33Z" fill="#FF5C8A"/>
<path d="M97.7512 142.053C97.7512 142.053 94.4098 186.97 91.9622 203.794C89.3057 222.222 78.7385 283.262 78.7385 283.262H67.9707C67.9707 283.262 73.5008 223.709 74.4531 205.465C75.4806 185.667 77.4687 142.053 77.4687 142.053H97.7512Z" fill="#1C2D5E"/>
<path opacity="0.3" d="M99.0295 96.5757C101.126 95.189 102.663 98.7811 106.807 101.813C108.653 103.167 112.713 111.988 112.378 113.934L110.582 115.263C110.582 115.263 98.9793 102.415 99.0295 96.5757Z" fill="#1C2D5E"/>
<path d="M138.416 111.73L143.679 107.469L145.918 113.576C145.918 113.576 140.346 116.783 139.017 115.246L138.416 111.73Z" fill="#CE7A63"/>
<path d="M149.652 108.463L150.112 113.116L145.918 113.576L143.68 107.469L149.652 108.463Z" fill="#CE7A63"/>
<path d="M108.278 142.353H76.8431C76.6259 139.547 77.2775 130.416 76.793 118.788C76.4919 110.168 75.4466 101.591 73.6688 93.1508C73.5267 92.5159 73.3847 91.8894 73.2344 91.2545C73.2344 91.2545 74.8216 90.9288 77.1104 90.5946C79.0067 90.3189 81.3791 90.0349 83.7098 89.9263C88.1613 89.671 92.6239 89.671 97.0755 89.9263C99.1305 90.1101 101.135 90.4526 102.739 90.7617C104.786 91.171 105.989 91.5302 105.989 91.5302C105.989 91.5302 113.724 109.332 108.278 142.353Z" fill="#FF5C8A"/>
<path opacity="0.3" d="M76.7922 118.788C76.4911 110.168 75.4458 101.591 73.668 93.1508C75.7647 92.9671 79.3568 93.1508 79.9499 96.5674C80.5931 100.218 79.7911 108.789 76.7922 118.788Z" fill="#1C2D5E"/>
<path d="M79.2476 99.0986L74.4359 111.002L72.1304 116.934C71.412 118.888 70.6852 120.901 70.2174 122.631C69.7863 124.557 69.4849 126.511 69.3152 128.478C69.1147 130.575 68.8892 132.697 68.7305 134.835C68.3713 139.112 68.012 143.431 67.6027 147.733L63.2589 147.825C62.6908 143.456 62.3149 139.112 62.1061 134.718C62.0142 132.521 61.9306 130.316 61.9557 128.077C61.914 125.712 62.0733 123.348 62.4319 121.01C62.8873 118.723 63.473 116.464 64.1861 114.244C64.846 112.105 65.5561 110.017 66.2996 107.945C67.7865 103.768 69.3737 99.7502 71.1279 95.6987L79.2476 99.0986Z" fill="#CE7A63"/>
<path d="M81.0275 101.956C79.5669 106.029 77.8653 110.013 75.9318 113.885C75.5141 114.762 75.0965 115.555 74.8124 116.165C74.2528 117.268 73.9019 117.928 73.9019 117.928L61.998 111.337C61.998 111.337 62.1484 110.836 62.4157 109.992C62.6246 109.357 62.8919 108.53 63.2511 107.569C65.2309 101.914 69.2824 91.8311 73.2754 91.2547C79.1647 90.3943 83.425 94.83 81.0275 101.956Z" fill="#FF5C8A"/>
<path d="M91.6614 93.5519C84.1432 93.4182 83.1992 89.9515 83.1992 89.9515C86.1063 87.0862 84.9869 79.2422 84.0346 74.915L87.6099 77.8806L92.48 81.9237C92.3376 82.5712 92.2344 83.2268 92.171 83.8868C91.912 86.5265 92.5886 88.8989 96.473 89.8512C96.473 89.8512 101.084 92.9003 94.2426 93.4516L91.6614 93.5519Z" fill="#CE7A63"/>
<path opacity="0.2" d="M92.4389 81.9486C92.2965 82.5961 92.1933 83.2517 92.1299 83.9117C90.3171 83.5525 87.8862 81.6144 87.6356 79.7349C87.5501 79.1206 87.5277 78.4992 87.5688 77.8804L92.4389 81.9486Z" fill="#1C2D5E"/>
<path d="M82.5229 68.7493C83.7676 74.4631 84.1936 77.863 87.5351 80.4443C88.6227 81.3031 89.9243 81.8482 91.2993 82.0207C92.6743 82.1933 94.0702 81.9867 95.3363 81.4234C96.6024 80.86 97.6904 79.9613 98.4827 78.8243C99.275 77.6874 99.7414 76.3555 99.8315 74.9727C100.283 69.6515 98.1608 61.1977 92.163 59.5771C90.8697 59.1994 89.5 59.1679 88.1908 59.4858C86.8816 59.8037 85.6789 60.4597 84.7028 61.3884C83.7268 62.3171 83.0118 63.4858 82.6292 64.7775C82.2466 66.0693 82.21 67.4389 82.5229 68.7493Z" fill="#CE7A63"/>
<path d="M81.2038 74.7148C82.1274 75.8301 83.4083 76.5915 84.8293 76.87C86.6336 77.1791 87.043 75.5084 86.1241 73.8961C85.2887 72.4426 83.3674 70.5547 81.7635 70.964C80.1596 71.3734 80.0343 73.3114 81.2038 74.7148Z" fill="#CE7A63"/>
<path d="M91.5371 69.318C91.6123 69.7858 91.9214 70.1534 92.2305 70.0949C92.5395 70.0364 92.7233 69.6522 92.6565 69.1844C92.5897 68.7166 92.2722 68.349 91.9632 68.3991C91.6541 68.4492 91.4703 68.8502 91.5371 69.318Z" fill="#1C2D5E"/>
<path d="M96.8574 68.6832C96.9326 69.151 97.2417 69.5186 97.5508 69.4685C97.8599 69.4184 98.0436 69.0174 97.9768 68.5496C97.91 68.0818 97.5925 67.7142 97.2835 67.7643C96.9744 67.8145 96.7906 68.2154 96.8574 68.6832Z" fill="#1C2D5E"/>
<path d="M95.2031 69.1172C95.9888 70.4857 96.9522 71.7441 98.0684 72.8596C97.7772 73.1264 97.4311 73.326 97.0544 73.4443C96.6776 73.5627 96.2795 73.5969 95.8881 73.5446L95.2031 69.1172Z" fill="#BA4D3C"/>
<path d="M94.1602 75.0824C93.6104 75.0895 93.0649 74.9851 92.5567 74.7755C92.0484 74.5659 91.5879 74.2554 91.203 73.8628C91.1862 73.8501 91.1724 73.8338 91.1626 73.8152C91.1529 73.7965 91.1474 73.7759 91.1466 73.7548C91.1458 73.7337 91.1497 73.7128 91.158 73.6934C91.1663 73.674 91.1789 73.6567 91.1947 73.6428C91.2105 73.6289 91.2292 73.6187 91.2495 73.6129C91.2698 73.6071 91.2911 73.6059 91.3119 73.6094C91.3326 73.6128 91.3524 73.6209 91.3697 73.6329C91.387 73.645 91.4014 73.6607 91.4118 73.679C91.8369 74.0983 92.3522 74.4148 92.9182 74.6044C93.4843 74.7941 94.0863 74.8519 94.6781 74.7734C94.699 74.7682 94.7208 74.7678 94.7419 74.7723C94.763 74.7768 94.7828 74.7861 94.7998 74.7993C94.8168 74.8126 94.8305 74.8296 94.8399 74.849C94.8494 74.8684 94.8543 74.8896 94.8543 74.9112C94.8543 74.9327 94.8494 74.954 94.8399 74.9734C94.8305 74.9928 94.8168 75.0098 94.7998 75.023C94.7828 75.0363 94.763 75.0456 94.7419 75.0501C94.7208 75.0546 94.699 75.0542 94.6781 75.049C94.5063 75.0707 94.3333 75.0819 94.1602 75.0824Z" fill="#1C2D5E"/>
<path d="M89.6325 67.7979C89.5888 67.8105 89.5425 67.8105 89.4989 67.7979C89.4669 67.7805 89.4388 67.7569 89.416 67.7285C89.3933 67.7001 89.3764 67.6675 89.3663 67.6326C89.3562 67.5976 89.3531 67.561 89.3572 67.5249C89.3613 67.4888 89.3726 67.4538 89.3903 67.422C89.594 67.0337 89.8905 66.7017 90.2533 66.4554C90.6162 66.2092 91.0342 66.0563 91.4703 66.0103C91.5362 66.0217 91.596 66.056 91.6391 66.1072C91.6822 66.1584 91.7058 66.2232 91.7058 66.2901C91.7058 66.357 91.6822 66.4218 91.6391 66.473C91.596 66.5242 91.5362 66.5585 91.4703 66.5699C91.1292 66.6095 90.803 66.7323 90.5204 66.9275C90.2378 67.1227 90.0075 67.3843 89.8497 67.6893C89.8238 67.7223 89.7909 67.7492 89.7533 67.768C89.7157 67.7868 89.6745 67.797 89.6325 67.7979Z" fill="#1C2D5E"/>
<path d="M98.8634 66.5868C98.8192 66.5868 98.7756 66.5762 98.7364 66.5558C98.6971 66.5355 98.6633 66.506 98.6379 66.4698C98.4448 66.1692 98.1857 65.9167 97.8802 65.7314C97.5748 65.5461 97.2311 65.4329 96.8753 65.4006C96.8391 65.4006 96.8032 65.3935 96.7698 65.3796C96.7363 65.3658 96.7059 65.3454 96.6803 65.3198C96.6547 65.2942 96.6344 65.2639 96.6206 65.2304C96.6067 65.197 96.5996 65.1611 96.5996 65.1249C96.5996 65.088 96.607 65.0515 96.6214 65.0175C96.6357 64.9834 96.6568 64.9527 96.6833 64.927C96.7098 64.9013 96.7411 64.8811 96.7756 64.8678C96.81 64.8544 96.8467 64.8481 96.8836 64.8492C97.3287 64.8786 97.7608 65.0117 98.1452 65.238C98.5296 65.4643 98.8557 65.7774 99.0973 66.1524C99.137 66.2152 99.1513 66.2907 99.1373 66.3636C99.1234 66.4365 99.0822 66.5014 99.0221 66.545C98.9734 66.5716 98.9189 66.5859 98.8634 66.5868Z" fill="#1C2D5E"/>
<path d="M63.4433 146.263L60.8203 151.592L68.1631 150.607C68.1631 150.607 69.6333 145.478 66.9268 144.935L63.4433 146.263Z" fill="#CE7A63"/>
<path d="M62.8669 156.738L68.8899 155.635L68.1631 150.606L60.8203 151.592L62.8669 156.738Z" fill="#CE7A63"/>
<path d="M85.781 57.3056C85.781 57.3056 82.6985 50.3053 80.4347 56.1528C80.4347 56.1528 75.4226 52.6109 75.4226 57.5395C75.4226 57.5395 71.1288 58.6505 74.3533 61.9251C74.3533 61.9251 70.636 64.1973 74.3533 66.8871C74.3533 66.8871 72.7411 70.9888 76.4668 71.3396C76.4668 71.3396 76.4668 76.6525 79.6662 73.687C79.6662 73.687 80.4347 79.8268 83.9182 76.4102L84.3358 73.0688C84.3358 73.0688 87.0424 71.1892 85.096 65.0577C85.096 65.0577 93.6 66.6699 92.0629 64.0887C92.0629 64.0887 99.5811 64.7152 98.6706 61.7246C98.6706 61.7246 102.388 59.8367 100.701 58.308C100.701 58.308 102.923 49.8041 97.8352 52.5608C97.8352 52.5608 95.822 47.1059 93.4496 52.0094C93.4496 52.0094 90.9435 51.3411 90.5426 54.3401C90.5426 54.3401 89.4065 53.5047 89.0306 56.1528L85.781 57.3056Z" fill="#263238"/>
<path d="M81.002 70.722V64.5904C81.0009 62.777 81.5848 61.0116 82.6668 59.5564C83.7488 58.1012 85.2713 57.0337 87.0082 56.5125L89.0632 56.1533C87.2813 56.6857 85.7189 57.7789 84.6082 59.2704C83.4974 60.7619 82.8977 62.5721 82.8982 64.4317V70.722H81.002Z" fill="#FF5C8A"/>
<path d="M85.7558 73.6873C85.9647 76.018 84.7701 77.8641 83.0994 77.8641C81.4287 77.8641 79.9083 75.9762 79.6995 73.6873C79.4906 71.3984 80.6852 69.4688 82.3643 69.4688C84.0433 69.4688 85.5553 71.3567 85.7558 73.6873Z" fill="#FF5C8A"/>
<path opacity="0.5" d="M85.7558 73.6873C85.9647 76.018 84.7701 77.8641 83.0994 77.8641C81.4287 77.8641 79.9083 75.9762 79.6995 73.6873C79.4906 71.3984 80.6852 69.4688 82.3643 69.4688C84.0433 69.4688 85.5553 71.3567 85.7558 73.6873Z" fill="#1C2D5E"/>
<path d="M84.7445 73.6873C84.9449 76.018 83.7587 77.8641 82.088 77.8641C80.4173 77.8641 78.8886 75.9762 78.6881 73.6873C78.4876 71.3984 79.6738 69.4688 81.3445 69.4688C83.0153 69.4688 84.544 71.3567 84.7445 73.6873Z" fill="#FF5C8A"/>
<g opacity="0.5">
<path d="M79.0312 74.3052C79.3403 75.5081 80.1924 76.4103 81.1196 76.4103C82.0469 76.4103 82.7402 75.5081 82.8321 74.3052H79.0312Z" fill="white"/>
<path d="M82.7311 73.069C82.422 71.866 81.57 70.9639 80.6427 70.9639C79.7155 70.9639 79.0221 71.866 78.9219 73.069H82.7311Z" fill="white"/>
</g>
</g>
<defs>
<clipPath id="clip0_6971_45134">
<rect width="218" height="206" fill="white" transform="translate(55.666 0.910156)"/>
</clipPath>
</defs>
</svg>
