<svg width="65" height="65" viewBox="0 0 65 65" fill="none" xmlns="http://www.w3.org/2000/svg">
<g filter="url(#filter0_d_6971_45295)">
<circle cx="32.4219" cy="30.959" r="24" transform="rotate(-90 32.4219 30.959)" fill="#E1E9FE"/>
<path d="M28.6437 36.9941C28.121 36.3515 27.1762 36.2543 26.5335 36.7771C25.8909 37.2998 25.7937 38.2446 26.3165 38.8872L28.6437 36.9941ZM37.656 24.9236C38.1788 25.5663 39.1235 25.6634 39.7662 25.1407C40.4088 24.6179 40.506 23.6731 39.9832 23.0305L37.656 24.9236ZM31.6499 42.5952C31.6499 43.4236 32.3215 44.0952 33.1499 44.0952C33.9783 44.0952 34.6499 43.4236 34.6499 42.5952L31.6499 42.5952ZM34.6499 19.3225C34.6499 18.4941 33.9783 17.8225 33.1499 17.8225C32.3215 17.8225 31.6499 18.494 31.6499 19.3225L34.6499 19.3225ZM33.1499 32.4589C34.6822 32.4589 36.0065 32.9028 36.9089 33.5446C37.8146 34.1886 38.1953 34.9412 38.1953 35.6134L41.1953 35.6134C41.1953 33.7149 40.1108 32.1403 38.6475 31.0997C37.1809 30.0568 35.2325 29.4589 33.1499 29.4589L33.1499 32.4589ZM38.1953 35.6134C38.1953 36.2856 37.8146 37.0382 36.9089 37.6822C36.0065 38.324 34.6822 38.7679 33.1499 38.7679L33.1499 41.7679C35.2325 41.7679 37.1809 41.17 38.6475 40.1271C40.1108 39.0865 41.1953 37.5119 41.1953 35.6134L38.1953 35.6134ZM33.1499 38.7679C31.0693 38.7679 29.4282 37.9584 28.6437 36.9941L26.3165 38.8872C27.7955 40.7054 30.385 41.7679 33.1499 41.7679L33.1499 38.7679ZM33.1499 29.4589C31.6175 29.4589 30.2933 29.0149 29.3908 28.3731C28.4851 27.7291 28.1044 26.9765 28.1044 26.3043L25.1044 26.3043C25.1044 28.2028 26.189 29.7774 27.6523 30.818C29.1188 31.8609 31.0673 32.4589 33.1499 32.4589L33.1499 29.4589ZM34.6499 42.5952L34.6499 40.2679L31.6499 40.2679L31.6499 42.5952L34.6499 42.5952ZM34.6498 21.6498L34.6499 19.3225L31.6499 19.3225L31.6498 21.6497L34.6498 21.6498ZM33.1498 23.1498C35.2304 23.1498 36.8715 23.9593 37.656 24.9236L39.9832 23.0305C38.5042 21.2123 35.9147 20.1498 33.1498 20.1498L33.1498 23.1498ZM28.1044 26.3043C28.1044 25.6321 28.4851 24.8795 29.3908 24.2355C30.2932 23.5938 31.6175 23.1498 33.1498 23.1498L33.1498 20.1498C31.0672 20.1498 29.1188 20.7477 27.6522 21.7906C26.1889 22.8312 25.1044 24.4058 25.1044 26.3043L28.1044 26.3043ZM34.6499 40.2679L34.6498 21.6498L31.6498 21.6498L31.6499 40.2679L34.6499 40.2679Z" fill="#4A75F7"/>
</g>
<defs>
<filter id="filter0_d_6971_45295" x="0.421875" y="0.958984" width="64" height="64" filterUnits="userSpaceOnUse" color-interpolation-filters="sRGB">
<feFlood flood-opacity="0" result="BackgroundImageFix"/>
<feColorMatrix in="SourceAlpha" type="matrix" values="0 0 0 0 0 0 0 0 0 0 0 0 0 0 0 0 0 0 127 0" result="hardAlpha"/>
<feOffset dy="2"/>
<feGaussianBlur stdDeviation="4"/>
<feComposite in2="hardAlpha" operator="out"/>
<feColorMatrix type="matrix" values="0 0 0 0 0.109804 0 0 0 0 0.176471 0 0 0 0 0.368627 0 0 0 0.05 0"/>
<feBlend mode="normal" in2="BackgroundImageFix" result="effect1_dropShadow_6971_45295"/>
<feBlend mode="normal" in="SourceGraphic" in2="effect1_dropShadow_6971_45295" result="shape"/>
</filter>
</defs>
</svg>
