<svg width="19" height="21" viewBox="0 0 19 21" fill="none" xmlns="http://www.w3.org/2000/svg">
<path d="M12.9023 1.70305L13.6094 0.995943L13.6094 0.995942L12.9023 1.70305ZM17.3165 6.11726L18.0236 5.41016L17.3165 6.11726ZM7.60938 2.41016H12.1952V0.410156H7.60938V2.41016ZM16.6094 6.82437V13.4102H18.6094V6.82437H16.6094ZM12.1952 2.41016L16.6094 6.82437L18.0236 5.41016L13.6094 0.995943L12.1952 2.41016ZM18.6094 6.82437C18.6094 6.29394 18.3987 5.78523 18.0236 5.41016L16.6094 6.82437H16.6094H18.6094ZM12.1952 2.41016L12.1952 2.41016L13.6094 0.995942C13.2343 0.620871 12.7256 0.410156 12.1952 0.410156V2.41016ZM7.60938 14.4102C7.05709 14.4102 6.60938 13.9624 6.60938 13.4102H4.60938C4.60938 15.067 5.95252 16.4102 7.60938 16.4102V14.4102ZM15.6094 16.4102C17.2662 16.4102 18.6094 15.067 18.6094 13.4102H16.6094C16.6094 13.9624 16.1617 14.4102 15.6094 14.4102V16.4102ZM6.60938 3.41016C6.60938 2.85787 7.05709 2.41016 7.60938 2.41016V0.410156C5.95252 0.410156 4.60938 1.7533 4.60938 3.41016H6.60938ZM3.60938 20.4102H11.6094V18.4102H3.60938V20.4102ZM0.609375 7.41016V17.4102H2.60938V7.41016H0.609375ZM3.60938 18.4102C3.05709 18.4102 2.60938 17.9624 2.60938 17.4102H0.609375C0.609375 19.067 1.95252 20.4102 3.60938 20.4102V18.4102ZM6.60938 13.4102V5.41016H4.60938V13.4102H6.60938ZM6.60938 5.41016V3.41016H4.60938V5.41016H6.60938ZM3.60938 6.41016H5.60938V4.41016H3.60938V6.41016ZM15.6094 14.4102H13.6094V16.4102H15.6094V14.4102ZM13.6094 14.4102H7.60938V16.4102H13.6094V14.4102ZM14.6094 17.4102V15.4102H12.6094V17.4102H14.6094ZM2.60938 7.41016C2.60938 6.85787 3.05709 6.41016 3.60938 6.41016V4.41016C1.95252 4.41016 0.609375 5.7533 0.609375 7.41016H2.60938ZM11.6094 20.4102C13.2662 20.4102 14.6094 19.067 14.6094 17.4102H12.6094C12.6094 17.9624 12.1617 18.4102 11.6094 18.4102V20.4102Z" fill="#4A75F7"/>
</svg>
