<svg width="21" height="20" viewBox="0 0 21 20" fill="none" xmlns="http://www.w3.org/2000/svg">
<mask id="mask0_3029_86286" style="mask-type:alpha" maskUnits="userSpaceOnUse" x="0" y="0" width="21" height="20">
<circle cx="10.6428" cy="10" r="10" fill="#D9D9D9"/>
</mask>
<g mask="url(#mask0_3029_86286)">
<g clip-path="url(#clip0_3029_86286)">
<path d="M-2.40112 0H24.5989V20H-2.40112V0Z" fill="white"/>
<path d="M8.82075 2.22086H24.5989V4.44586H8.82075V2.22086ZM8.82075 6.66669H24.5989V8.88752H8.82075V6.66669ZM-2.40112 11.1125H24.5989V13.3334H-2.40112V11.1125ZM-2.40112 15.5542H24.5989V17.7792H-2.40112V15.5542Z" fill="#0038A8"/>
<path d="M2.96737 6.64056L3.33978 7.18979C1.8095 8.28355 2.74375 8.93034 1.6593 9.28044C2.33379 8.63033 1.5531 8.57554 2.12138 7.22051" fill="#FCD116"/>
<path d="M2.96737 6.64056L3.33978 7.18979C1.8095 8.28355 2.74375 8.93034 1.6593 9.28044C2.33379 8.63033 1.5531 8.57554 2.12138 7.22051" stroke="black" stroke-width="0.146667" stroke-miterlimit="20" stroke-linecap="square"/>
<path d="M2.70126 6.79628C1.85696 8.17067 2.41068 8.92637 1.65941 9.28048" stroke="black" stroke-width="0.146667" stroke-miterlimit="20"/>
<path d="M3.22224 5.55417H3.96473L3.22224 9.5875L2.47974 5.55417H3.22224V9.5875Z" fill="#FCD116"/>
<path d="M3.22224 5.55417H3.96473L3.22224 9.5875L2.47974 5.55417H3.22224ZM3.22224 5.55417V9.5875" stroke="black" stroke-width="0.146667" stroke-miterlimit="20"/>
<path d="M2.26438 6.14452L2.13449 6.79297C0.269347 6.49766 0.466901 7.60747 -0.550578 7.09767C0.391802 7.10902 -0.121 6.52506 1.25096 5.96379" fill="#FCD116"/>
<path d="M2.26438 6.14452L2.13449 6.79297C0.269347 6.49766 0.466901 7.60747 -0.550578 7.09767C0.391802 7.10902 -0.121 6.52506 1.25096 5.96379" stroke="black" stroke-width="0.146667" stroke-miterlimit="20" stroke-linecap="square"/>
<path d="M1.96469 6.06866C0.383686 6.45086 0.234187 7.37192 -0.550569 7.09765" stroke="black" stroke-width="0.146667" stroke-miterlimit="20"/>
<path d="M3.22229 5.55416L3.74732 6.0727L0.334648 8.40615L2.69727 5.03561L3.22229 5.55416L0.334648 8.40615Z" fill="#FCD116"/>
<path d="M3.22229 5.55416L3.74732 6.0727L0.334648 8.40615L2.69727 5.03561L3.22229 5.55416ZM3.22229 5.55416L0.334648 8.40615" stroke="black" stroke-width="0.146667" stroke-miterlimit="20"/>
<path d="M2.12234 5.30257L1.56625 5.67038C0.458813 4.15899 -0.19606 5.08172 -0.550541 4.01065C0.107698 4.67681 0.16318 3.90576 1.53514 4.46703" fill="#FCD116"/>
<path d="M2.12234 5.30257L1.56625 5.67038C0.458813 4.15899 -0.19606 5.08172 -0.550541 4.01065C0.107698 4.67681 0.16318 3.90576 1.53514 4.46703" stroke="black" stroke-width="0.146667" stroke-miterlimit="20" stroke-linecap="square"/>
<path d="M1.965 5.03967C0.573422 4.20579 -0.191718 4.75267 -0.550261 4.01067" stroke="black" stroke-width="0.146667" stroke-miterlimit="20"/>
<path d="M3.22241 5.55416V6.2875L-0.861333 5.55416L3.22241 4.82083V5.55416H-0.861333Z" fill="#FCD116"/>
<path d="M3.22241 5.55416V6.2875L-0.861333 5.55416L3.22241 4.82083V5.55416ZM3.22241 5.55416H-0.861333" stroke="black" stroke-width="0.146667" stroke-miterlimit="20"/>
<path d="M2.62443 4.60894L1.96788 4.48066C2.26687 2.63854 1.14319 2.83366 1.65936 1.82874C1.64787 2.75949 2.23913 2.25302 2.80742 3.60804" fill="#FCD116"/>
<path d="M2.62443 4.60894L1.96788 4.48066C2.26687 2.63854 1.14319 2.83366 1.65936 1.82874C1.64787 2.75949 2.23913 2.25302 2.80742 3.60804" stroke="black" stroke-width="0.146667" stroke-miterlimit="20" stroke-linecap="square"/>
<path d="M2.70108 4.31297C2.3141 2.75149 1.38153 2.60383 1.65923 1.82876" stroke="black" stroke-width="0.146667" stroke-miterlimit="20"/>
<path d="M3.22229 5.55504L2.69726 6.07359L0.334645 2.70305L3.74731 5.0365L3.22229 5.55504L0.334645 2.70305Z" fill="#FCD116"/>
<path d="M3.22229 5.55504L2.69726 6.07359L0.334645 2.70305L3.74731 5.0365L3.22229 5.55504ZM3.22229 5.55504L0.334645 2.70305" stroke="black" stroke-width="0.146667" stroke-miterlimit="20"/>
<path d="M3.47697 4.46775L3.10456 3.91852C4.63484 2.82475 3.70058 2.17797 4.78503 1.82786C4.11054 2.47797 4.89124 2.53277 4.32295 3.88779" fill="#FCD116"/>
<path d="M3.47697 4.46775L3.10456 3.91852C4.63484 2.82475 3.70058 2.17797 4.78503 1.82786C4.11054 2.47797 4.89124 2.53277 4.32295 3.88779" stroke="black" stroke-width="0.146667" stroke-miterlimit="20" stroke-linecap="square"/>
<path d="M3.74307 4.31203C4.58737 2.93763 4.03366 2.18194 4.78493 1.82782" stroke="black" stroke-width="0.146667" stroke-miterlimit="20"/>
<path d="M3.22234 5.55417H2.47985L3.22234 1.52084L3.96484 5.55417H3.22234V1.52084Z" fill="#FCD116"/>
<path d="M3.22234 5.55417H2.47985L3.22234 1.52084L3.96484 5.55417H3.22234ZM3.22234 5.55417V1.52084" stroke="black" stroke-width="0.146667" stroke-miterlimit="20"/>
<path d="M4.17996 4.96382L4.30984 4.31537C6.17499 4.61068 5.97744 3.50087 6.99491 4.01066C6.05253 3.99931 6.56534 4.58328 5.19338 5.14455" fill="#FCD116"/>
<path d="M4.17996 4.96382L4.30984 4.31537C6.17499 4.61068 5.97744 3.50087 6.99491 4.01066C6.05253 3.99931 6.56534 4.58328 5.19338 5.14455" stroke="black" stroke-width="0.146667" stroke-miterlimit="20" stroke-linecap="square"/>
<path d="M4.47965 5.03968C6.06065 4.65748 6.21015 3.73642 6.99491 4.01069" stroke="black" stroke-width="0.146667" stroke-miterlimit="20"/>
<path d="M3.22204 5.55415L2.69702 5.0356L6.10969 2.70215L3.74707 6.07269L3.22204 5.55415L6.10969 2.70215Z" fill="#FCD116"/>
<path d="M3.22204 5.55415L2.69702 5.0356L6.10969 2.70215L3.74707 6.07269L3.22204 5.55415ZM3.22204 5.55415L6.10969 2.70215" stroke="black" stroke-width="0.146667" stroke-miterlimit="20"/>
<path d="M4.32224 5.8058L4.87833 5.43798C5.98577 6.94937 6.64064 6.02665 6.99512 7.09772C6.33688 6.43155 6.2814 7.20261 4.90944 6.64134" fill="#FCD116"/>
<path d="M4.32224 5.8058L4.87833 5.43798C5.98577 6.94937 6.64064 6.02665 6.99512 7.09772C6.33688 6.43155 6.2814 7.20261 4.90944 6.64134" stroke="black" stroke-width="0.146667" stroke-miterlimit="20" stroke-linecap="square"/>
<path d="M4.47983 6.06867C5.8714 6.90255 6.63654 6.35567 6.99509 7.09766" stroke="black" stroke-width="0.146667" stroke-miterlimit="20"/>
<path d="M3.22217 5.55417V4.82084L7.30591 5.55417L3.22217 6.28751V5.55417H7.30591Z" fill="#FCD116"/>
<path d="M3.22217 5.55417V4.82084L7.30591 5.55417L3.22217 6.28751V5.55417ZM3.22217 5.55417H7.30591" stroke="black" stroke-width="0.146667" stroke-miterlimit="20"/>
<path d="M3.82015 6.50031L4.4767 6.62859C4.17771 8.47071 5.30139 8.27559 4.78522 9.28051C4.79671 8.34976 4.20545 8.85624 3.63716 7.50121" fill="#FCD116"/>
<path d="M3.82015 6.50031L4.4767 6.62859C4.17771 8.47071 5.30139 8.27559 4.78522 9.28051C4.79671 8.34976 4.20545 8.85624 3.63716 7.50121" stroke="black" stroke-width="0.146667" stroke-miterlimit="20" stroke-linecap="square"/>
<path d="M3.74325 6.79628C4.13024 8.35777 5.06281 8.50542 4.78511 9.28049" stroke="black" stroke-width="0.146667" stroke-miterlimit="20"/>
<path d="M3.22254 5.55418L3.74756 5.03563L6.11018 8.40617L2.69751 6.07272L3.22254 5.55418L6.11018 8.40617Z" fill="#FCD116"/>
<path d="M3.22254 5.55418L3.74756 5.03563L6.11018 8.40617L2.69751 6.07272L3.22254 5.55418ZM3.22254 5.55418L6.11018 8.40617" stroke="black" stroke-width="0.146667" stroke-miterlimit="20"/>
<path d="M3.22233 6.89863C3.97413 6.89863 4.58358 6.29671 4.58358 5.55419C4.58358 4.81167 3.97413 4.20975 3.22233 4.20975C2.47054 4.20975 1.86108 4.81167 1.86108 5.55419C1.86108 6.29671 2.47054 6.89863 3.22233 6.89863Z" fill="#FCD116" stroke="black" stroke-width="0.146667" stroke-miterlimit="20"/>
<path d="M4.22491 5.01641C4.13829 5.11419 4.08879 4.94308 3.77942 4.94308C3.47005 4.94308 3.42055 5.12641 3.37105 5.08975C3.32155 5.05308 3.63092 4.83308 3.72992 4.82086C3.82892 4.80864 4.11354 4.90641 4.22491 5.01641ZM3.86604 5.12641C3.95267 5.19974 3.87842 5.35863 3.79179 5.35863C3.70517 5.35863 3.5443 5.21197 3.61854 5.11419" fill="black"/>
<path d="M3.45752 5.23642C3.46989 5.08975 3.59364 5.06531 3.79164 5.06531C3.98964 5.06531 4.07626 5.21197 4.15051 5.24864C4.06389 5.24864 3.98964 5.12642 3.79164 5.12642C3.59364 5.12642 3.59364 5.12642 3.45752 5.24864M3.49464 5.27308C3.54414 5.19975 3.60602 5.34642 3.74214 5.34642C3.87826 5.34642 3.95251 5.30975 4.03914 5.24864C4.12576 5.18753 3.91539 5.3953 3.77927 5.3953C3.64314 5.3953 3.45752 5.32197 3.49464 5.27308Z" fill="black"/>
<path d="M3.91527 5.34636C4.07614 5.2608 3.97714 5.13858 3.91527 5.11414C3.94002 5.13858 4.03902 5.2608 3.91527 5.34636ZM3.22227 6.07968C3.29652 6.07968 3.32127 6.05524 3.42027 6.05524C3.51927 6.05524 3.75439 6.18968 3.89052 6.14079C3.6059 6.25079 3.71727 6.17746 3.22227 6.17746H3.1604M3.94002 6.25079C3.89052 6.16523 3.90289 6.18968 3.80389 6.05524C3.90289 6.12857 3.92764 6.16523 3.94002 6.25079ZM3.22227 6.37301C3.53165 6.37301 3.48215 6.3119 3.89052 6.14079C3.59352 6.17746 3.53165 6.27523 3.22227 6.27523H3.1604M3.22227 5.92079C3.3089 5.92079 3.33365 5.85968 3.43265 5.85968C3.53165 5.85968 3.66777 5.89635 3.72964 5.94524C3.74202 5.95746 3.69252 5.84746 3.59352 5.83524C3.49452 5.82302 3.53165 5.66413 3.42027 5.63969C3.42027 5.68857 3.4574 5.67635 3.46977 5.74968C3.46977 5.81079 3.3584 5.81079 3.33365 5.74968C3.3584 5.84746 3.28415 5.84746 3.22227 5.84746" fill="black"/>
<path d="M2.21991 5.01641C2.30654 5.11419 2.35604 4.94308 2.66541 4.94308C2.97478 4.94308 3.02428 5.12641 3.07378 5.08975C3.12328 5.05308 2.8139 4.83308 2.71491 4.82086C2.61591 4.80864 2.33129 4.90641 2.21991 5.01641ZM2.57878 5.12641C2.49216 5.19974 2.56641 5.35863 2.65303 5.35863C2.73966 5.35863 2.90053 5.21197 2.82628 5.11419" fill="black"/>
<path d="M2.98706 5.23642C2.97469 5.08975 2.85094 5.06531 2.65294 5.06531C2.45494 5.06531 2.36832 5.21197 2.29407 5.24864C2.38069 5.24864 2.45494 5.12642 2.65294 5.12642C2.85094 5.12642 2.85094 5.12642 2.98706 5.24864M2.94994 5.27308C2.90044 5.19975 2.83856 5.34642 2.70244 5.34642C2.56632 5.34642 2.49207 5.30975 2.40544 5.24864C2.31882 5.18753 2.52919 5.3953 2.66531 5.3953C2.80144 5.3953 2.98706 5.32197 2.94994 5.27308Z" fill="black"/>
<path d="M2.52931 5.34636C2.36844 5.2608 2.46744 5.13858 2.52931 5.11414C2.50456 5.13858 2.40556 5.2608 2.52931 5.34636ZM3.22231 6.07968C3.14806 6.07968 3.12331 6.05524 3.02431 6.05524C2.92531 6.05524 2.69019 6.18968 2.55406 6.14079C2.83868 6.25079 2.72731 6.17746 3.22231 6.17746H3.28418M2.50456 6.25079C2.55406 6.16523 2.54169 6.18968 2.64069 6.05524C2.54169 6.12857 2.51694 6.16523 2.50456 6.25079ZM3.22231 6.37301C2.91293 6.37301 2.96243 6.3119 2.55406 6.14079C2.85106 6.17746 2.91293 6.27523 3.22231 6.27523H3.28418M3.22231 5.92079C3.13568 5.92079 3.11093 5.85968 3.01193 5.85968C2.91293 5.85968 2.77681 5.89635 2.71494 5.94524C2.70256 5.95746 2.75206 5.84746 2.85106 5.83524C2.95006 5.82302 2.91293 5.66413 3.02431 5.63969C3.02431 5.68857 2.98718 5.67635 2.97481 5.74968C2.97481 5.81079 3.08618 5.81079 3.11093 5.74968C3.08618 5.84746 3.16043 5.84746 3.22231 5.84746" fill="black"/>
<path d="M3.22214 6.48306C3.16027 6.48306 2.9994 6.51973 3.22214 6.51973C3.44489 6.51973 3.28402 6.48306 3.22214 6.48306Z" fill="black"/>
</g>
</g>
<defs>
<clipPath id="clip0_3029_86286">
<rect width="27" height="20" fill="white" transform="translate(-2.40112)"/>
</clipPath>
</defs>
</svg>