<svg width="21" height="21" viewBox="0 0 21 21" fill="none" xmlns="http://www.w3.org/2000/svg">
<mask id="mask0_3029_86225" style="mask-type:alpha" maskUnits="userSpaceOnUse" x="0" y="0" width="21" height="21">
<circle cx="10.3298" cy="10.6951" r="10" fill="#D9D9D9"/>
</mask>
<g mask="url(#mask0_3029_86225)">
<g clip-path="url(#clip0_3029_86225)">
<path d="M-4.72412 -0.795471H25.3835V21.5065H-4.72412V-0.795471Z" fill="#CF142B"/>
<path d="M-4.72412 -0.795471H25.3835V14.0725H-4.72412V-0.795471Z" fill="#00247D"/>
<path d="M-4.72412 -0.795471H25.3835V6.63852H-4.72412V-0.795471Z" fill="#FFCC00"/>
<path d="M11.671 7.31067L11.2352 8.14348L11.7209 8.39692L11.671 7.31067Z" fill="white"/>
<path d="M11.6713 7.31088L11.7879 8.23842L11.2424 8.31504L11.6713 7.31088Z" fill="white"/>
<path d="M12.4381 8.09693L11.5042 7.94635L11.4091 8.48413L12.4381 8.09693Z" fill="white"/>
<path d="M12.4384 8.09717L11.5823 8.49768L11.3418 8.00675L12.4384 8.09717Z" fill="white"/>
<path d="M10.6763 7.79186L11.3385 8.45607L11.7371 8.07231L10.6763 7.79186Z" fill="white"/>
<path d="M10.6762 7.79203L11.6056 7.96134L11.5055 8.50139L10.6762 7.79203Z" fill="white"/>
<path d="M11.9189 9.0625L11.7754 8.13827L11.2284 8.21517L11.9189 9.0625Z" fill="white"/>
<path d="M11.9187 9.06259L11.2688 8.38195L11.667 8.00414L11.9187 9.06259Z" fill="white"/>
<path d="M10.8293 8.87224L11.6749 8.45382L11.4301 7.96285L10.8293 8.87224Z" fill="white"/>
<path d="M10.8294 8.87227L11.2823 8.0522L11.7706 8.31096L10.8294 8.87227Z" fill="white"/>
<path d="M14.1881 8.21613L13.4915 8.85128L13.8611 9.25511L14.1881 8.21613Z" fill="white"/>
<path d="M14.1881 8.21624L13.9786 9.12863L13.4391 9.01495L14.1881 8.21624Z" fill="white"/>
<path d="M14.6367 9.21391L13.8136 8.75634L13.5374 9.23282L14.6367 9.21391Z" fill="white"/>
<path d="M14.6367 9.21386L13.6949 9.30374L13.6403 8.75832L14.6367 9.21386Z" fill="white"/>
<path d="M13.0881 8.33179L13.481 9.18091L13.9869 8.95559L13.0881 8.33179Z" fill="white"/>
<path d="M13.0881 8.33175L13.9019 8.80648L13.6222 9.28001L13.0881 8.33175Z" fill="white"/>
<path d="M13.8146 9.94552L14.0025 9.02937L13.4598 8.91814L13.8146 9.94552Z" fill="white"/>
<path d="M13.8145 9.94547L13.4398 9.08827L13.9474 8.86701L13.8145 9.94547Z" fill="white"/>
<path d="M12.8571 9.39989L13.7972 9.29104L13.738 8.74803L12.8571 9.39989Z" fill="white"/>
<path d="M12.857 9.39983L13.5679 8.78216L13.9366 9.18895L12.857 9.39983Z" fill="white"/>
<path d="M16.2403 9.91768L15.3668 10.2783L15.5751 10.784L16.2403 9.91768Z" fill="white"/>
<path d="M16.2402 9.9177L15.7291 10.7048L15.2611 10.4143L16.2402 9.9177Z" fill="white"/>
<path d="M16.3167 11.0074L15.7009 10.2984L15.2777 10.6516L16.3167 11.0074Z" fill="white"/>
<path d="M16.3168 11.0074L15.4014 10.7718L15.5374 10.2414L16.3168 11.0074Z" fill="white"/>
<path d="M15.167 9.65398L15.2429 10.5855L15.7952 10.5451L15.167 9.65398Z" fill="white"/>
<path d="M15.167 9.65395L15.7669 10.3761L15.3412 10.7265L15.167 9.65395Z" fill="white"/>
<path d="M15.2918 11.4171L15.7843 10.6186L15.3145 10.3306L15.2918 11.4171Z" fill="white"/>
<path d="M15.2915 11.4171L15.2367 10.484L15.7885 10.4473L15.2915 11.4171Z" fill="white"/>
<path d="M14.5806 10.5805L15.5014 10.7954L15.634 10.2651L14.5806 10.5805Z" fill="white"/>
<path d="M14.5808 10.5804L15.4626 10.2399L15.668 10.7467L14.5808 10.5804Z" fill="white"/>
<path d="M17.5798 12.2096L16.6344 12.2532L16.6552 12.7992L17.5798 12.2096Z" fill="white"/>
<path d="M17.5799 12.2096L16.8273 12.7768L16.4882 12.3454L17.5799 12.2096Z" fill="white"/>
<path d="M17.2747 13.2597L16.9415 12.3852L16.4218 12.5742L17.2747 13.2597Z" fill="white"/>
<path d="M17.2746 13.2597L16.4962 12.7288L16.8075 12.2764L17.2746 13.2597Z" fill="white"/>
<path d="M16.6631 11.5991L16.4115 12.5003L16.9446 12.6489L16.6631 11.5991Z" fill="white"/>
<path d="M16.6631 11.5991L16.9765 12.4804L16.4551 12.6661L16.6631 11.5991Z" fill="white"/>
<path d="M16.1693 13.2982L16.9084 12.7141L16.5667 12.2847L16.1693 13.2982Z" fill="white"/>
<path d="M16.1694 13.2982L16.4409 12.4026L16.9721 12.5546L16.1694 13.2982Z" fill="white"/>
<path d="M15.7913 12.2718L16.5814 12.7855L16.8897 12.3309L15.7913 12.2718Z" fill="white"/>
<path d="M15.7912 12.2717L16.7372 12.2492L16.7545 12.7958L15.7912 12.2717Z" fill="white"/>
<path d="M3.0814 12.2115L3.82986 12.7774L4.17151 12.3414L3.0814 12.2115Z" fill="white"/>
<path d="M3.0812 12.2117L4.02566 12.2498L4.00143 12.7991L3.0812 12.2117Z" fill="white"/>
<path d="M3.99967 11.5975L3.68442 12.4831L4.19885 12.6661L3.99967 11.5975Z" fill="white"/>
<path d="M4.00009 11.5976L4.24325 12.4998L3.7153 12.6519L4.00009 11.5976Z" fill="white"/>
<path d="M3.38371 13.2612L4.16297 12.7261L3.85556 12.2761L3.38371 13.2612Z" fill="white"/>
<path d="M3.38317 13.2611L3.72097 12.3857L4.23789 12.5711L3.38317 13.2611Z" fill="white"/>
<path d="M4.8686 12.2709L3.92244 12.2495L3.9044 12.7954L4.8686 12.2709Z" fill="white"/>
<path d="M4.8687 12.2713L4.07771 12.7853L3.77002 12.3317L4.8687 12.2713Z" fill="white"/>
<path d="M4.4897 13.2977L4.2197 12.4024L3.68753 12.5554L4.4897 13.2977Z" fill="white"/>
<path d="M4.48979 13.2977L3.75095 12.7148L4.09396 12.2847L4.48979 13.2977Z" fill="white"/>
<path d="M4.4208 9.91906L4.92851 10.7054L5.39863 10.4118L4.4208 9.91906Z" fill="white"/>
<path d="M4.42051 9.91911L5.29324 10.2761L5.08196 10.784L4.42051 9.91911Z" fill="white"/>
<path d="M5.49373 9.65289L4.89302 10.3777L5.31564 10.7264L5.49373 9.65289Z" fill="white"/>
<path d="M5.49407 9.65299L5.4145 10.585L4.86432 10.5469L5.49407 9.65299Z" fill="white"/>
<path d="M4.34157 11.0088L5.25764 10.7698L5.12402 10.2415L4.34157 11.0088Z" fill="white"/>
<path d="M4.34154 11.0086L4.96028 10.2989L5.38168 10.6493L4.34154 11.0086Z" fill="white"/>
<path d="M6.07807 10.5786L5.19898 10.2392L4.99191 10.7502L6.07807 10.5786Z" fill="white"/>
<path d="M6.07794 10.5785L5.15772 10.7986L5.02742 10.2652L6.07794 10.5785Z" fill="white"/>
<path d="M5.36676 11.4164L5.42461 10.4838L4.87089 10.4487L5.36676 11.4164Z" fill="white"/>
<path d="M5.36688 11.4164L4.87505 10.6199L5.34739 10.3307L5.36688 11.4164Z" fill="white"/>
<path d="M6.4725 8.21711L6.67896 9.12894L7.22036 9.01314L6.4725 8.21711Z" fill="white"/>
<path d="M6.47257 8.21709L7.16847 8.8497L6.79627 9.25509L6.47257 8.21709Z" fill="white"/>
<path d="M7.57256 8.33088L6.75828 8.80785L7.03599 9.28001L7.57256 8.33088Z" fill="white"/>
<path d="M7.57246 8.3309L7.17723 9.1805L6.67273 8.95708L7.57246 8.3309Z" fill="white"/>
<path d="M6.02211 9.21518L6.96435 9.30155L7.02093 8.7582L6.02211 9.21518Z" fill="white"/>
<path d="M6.02211 9.21514L6.84742 8.75681L7.12232 9.23041L6.02211 9.21514Z" fill="white"/>
<path d="M7.80204 9.39944L7.09206 8.78205L6.7228 9.18979L7.80204 9.39944Z" fill="white"/>
<path d="M7.80196 9.39954L6.86209 9.29182L6.92199 8.74812L7.80196 9.39954Z" fill="white"/>
<path d="M6.84381 9.94606L7.21916 9.08764L6.71343 8.86715L6.84381 9.94606Z" fill="white"/>
<path d="M6.84393 9.94602L6.65829 9.02961L7.19959 8.91736L6.84393 9.94602Z" fill="white"/>
<path d="M8.99011 7.312L8.86832 8.2389L9.41695 8.31293L8.99011 7.312Z" fill="white"/>
<path d="M8.99011 7.312L9.42479 8.14178L8.93482 8.39707L8.99011 7.312Z" fill="white"/>
<path d="M9.98416 7.79055L9.05406 7.96369L9.15153 8.5014L9.98416 7.79055Z" fill="white"/>
<path d="M9.9841 7.79057L9.3187 8.45563L8.92206 8.07509L9.9841 7.79057Z" fill="white"/>
<path d="M8.22182 8.09789L9.07656 8.49795L9.31785 8.00536L8.22182 8.09789Z" fill="white"/>
<path d="M8.22179 8.09788L9.15542 7.94531L9.24945 8.48431L8.22179 8.09788Z" fill="white"/>
<path d="M9.82959 8.87179L9.37648 8.0517L8.8883 8.31028L9.82959 8.87179Z" fill="white"/>
<path d="M9.82983 8.87207L8.98415 8.45345L9.2288 7.9626L9.82983 8.87207Z" fill="white"/>
<path d="M8.74041 9.06211L9.39022 8.38212L8.99136 8.00394L8.74041 9.06211Z" fill="white"/>
<path d="M8.74054 9.06205L8.88334 8.13796L9.43081 8.21539L8.74054 9.06205Z" fill="white"/>
</g>
</g>
<defs>
<clipPath id="clip0_3029_86225">
<rect width="30.1077" height="22.302" fill="white" transform="translate(-4.72412 -0.795471)"/>
</clipPath>
</defs>
</svg>
