<svg width="328" height="328" viewBox="0 0 328 328" fill="none" xmlns="http://www.w3.org/2000/svg">
<rect width="328" height="328" fill="white"/>
<path d="M169.299 247.004L224.704 249.412L216.714 68.4083L161.302 66L169.299 247.004Z" fill="#FF5C8A"/>
<path opacity="0.6" d="M169.299 247.004L224.704 249.412L216.714 68.4083L161.302 66L169.299 247.004Z" fill="#BBC0CF"/>
<path d="M114.446 257.163L169.299 247.004L161.302 66L106.449 76.1589L114.446 257.163Z" fill="#FF5C8A"/>
<path opacity="0.6" d="M114.446 257.163L169.299 247.004L161.302 66L106.449 76.1589L114.446 257.163Z" fill="#BBC0CF"/>
<path d="M59.0346 254.755L114.446 257.163L106.449 76.1593L51.0378 73.751L59.0346 254.755Z" fill="#FF5C8A"/>
<path opacity="0.6" d="M59.0346 254.755L114.446 257.163L106.449 76.1593L51.0378 73.751L59.0346 254.755Z" fill="#BBC0CF"/>
<path d="M76.9666 71.5342L76.9397 72.1523L87.9996 72.6333L88.0265 72.0152L76.9666 71.5342Z" fill="#FF5C8A"/>
<path d="M52.0297 153.493L51.4116 153.521L51.5996 157.774L52.2177 157.747L52.0297 153.493Z" fill="#FF5C8A"/>
<path d="M52.3688 160.884L51.7507 160.911L52.1736 170.482L52.7917 170.455L52.3688 160.884Z" fill="#FF5C8A"/>
<path opacity="0.6" d="M82.9781 134.331C91.1681 134.331 97.8073 127.692 97.8073 119.502C97.8073 111.312 91.1681 104.673 82.9781 104.673C74.7882 104.673 68.1489 111.312 68.1489 119.502C68.1489 127.692 74.7882 134.331 82.9781 134.331Z" fill="#FF5C8A"/>
<path opacity="0.2" d="M157.736 192.882C161.59 188.629 161.266 182.057 157.013 178.203C152.76 174.35 146.189 174.673 142.335 178.926C138.481 183.179 138.805 189.751 143.058 193.605C147.311 197.458 153.883 197.135 157.736 192.882Z" fill="#FF5C8A"/>
<path d="M220.273 191.373L185.179 173.118L198.658 132.761L213.494 144.903L218.63 138.629L165.108 94.8269L128.73 71.8945L124.405 78.747L145.122 91.8065L106.296 127.965L55.8279 165.3L60.6445 171.787L75.7532 160.61L93.8356 253.331L101.786 251.781L82.9715 155.295L95.5188 145.981L107.98 154.629L164.263 171.308L175.187 177.003L163.597 200.933L147.431 245.208L155.042 247.989L171.082 204.08L182.392 180.748L216.541 198.538L220.273 191.373ZM111.506 147.245L102.378 140.918L111.266 134.345L111.446 134.205L152.181 96.2839L160.331 101.427L191.918 127.273L177.881 169.305L167.316 163.804L111.506 147.245Z" fill="#FF5C8A"/>
<g style="mix-blend-mode:multiply" opacity="0.3">
<path d="M114.965 257.163L169.818 247.004L161.821 66L106.968 76.1589L114.965 257.163Z" fill="#263238"/>
</g>
<path opacity="0.1" d="M82.9781 134.331C91.1681 134.331 97.8073 127.692 97.8073 119.502C97.8073 111.312 91.1681 104.673 82.9781 104.673C74.7882 104.673 68.1489 111.312 68.1489 119.502C68.1489 127.692 74.7882 134.331 82.9781 134.331Z" fill="#BBC0CF"/>
<path opacity="0.7" d="M220.273 191.373L185.179 173.118L198.658 132.761L213.494 144.903L218.63 138.629L165.108 94.8269L128.73 71.8945L124.405 78.747L145.122 91.8065L106.296 127.965L55.8279 165.3L60.6445 171.787L75.7532 160.61L93.8356 253.331L101.786 251.781L82.9715 155.295L95.5188 145.981L107.98 154.629L164.263 171.308L175.187 177.003L163.597 200.933L147.431 245.208L155.042 247.989L171.082 204.08L182.392 180.748L216.541 198.538L220.273 191.373ZM111.506 147.245L102.378 140.918L111.266 134.345L111.446 134.205L152.181 96.2839L160.331 101.427L191.918 127.273L177.881 169.305L167.316 163.804L111.506 147.245Z" fill="#BBC0CF"/>
<path d="M217.645 68.668L161.222 66.2197L106.363 76.372L50 73.9237L58.0965 257.283L114.526 259.738L169.385 249.579L225.755 252.034L217.645 68.668ZM169.745 241.496L168.826 241.456L167.922 241.629L113.974 251.608L65.867 249.512L58.4824 82.3928L106.01 84.4552L106.935 84.4951L107.84 84.3288L161.788 74.3495L209.881 76.4385L217.286 243.551L169.745 241.496Z" fill="#FF5C8A"/>
<path opacity="0.7" d="M217.645 68.668L161.222 66.2197L106.363 76.372L50 73.9237L58.0965 257.283L114.526 259.738L169.385 249.579L225.755 252.034L217.645 68.668ZM169.745 241.496L168.826 241.456L167.922 241.629L113.974 251.608L65.867 249.512L58.4824 82.3928L106.01 84.4552L106.935 84.4951L107.84 84.3288L161.788 74.3495L209.881 76.4385L217.286 243.551L169.745 241.496Z" fill="#BBC0CF"/>
<path opacity="0.7" d="M76.9666 71.5342L76.9397 72.1523L87.9996 72.6333L88.0265 72.0152L76.9666 71.5342Z" fill="#BBC0CF"/>
<path opacity="0.7" d="M52.0297 153.493L51.4116 153.521L51.5996 157.774L52.2177 157.747L52.0297 153.493Z" fill="#BBC0CF"/>
<path opacity="0.7" d="M52.3688 160.884L51.7507 160.911L52.1736 170.482L52.7917 170.455L52.3688 160.884Z" fill="#BBC0CF"/>
<path d="M214.036 103.926C208.687 107.63 204.888 113.172 203.361 119.496C201.835 125.82 202.688 132.484 205.757 138.221C208.826 143.957 213.898 148.363 220.007 150.602C226.115 152.84 232.834 152.754 238.883 150.359L248.256 153.242L248.814 143.446C253.171 138.618 255.601 132.356 255.641 125.852C255.681 119.348 253.328 113.057 249.031 108.175C244.733 103.293 238.79 100.162 232.334 99.3779C225.877 98.5934 219.358 100.21 214.016 103.921L214.036 103.926Z" fill="#FF5C8A"/>
<path d="M230.81 145.68C241.827 144.751 250.005 135.067 249.076 124.05C248.147 113.034 238.463 104.856 227.446 105.785C216.429 106.714 208.251 116.398 209.18 127.414C210.109 138.431 219.793 146.609 230.81 145.68Z" fill="#FF5C8A"/>
<path opacity="0.3" d="M230.81 145.68C241.827 144.751 250.005 135.067 249.076 124.05C248.147 113.034 238.463 104.856 227.446 105.785C216.429 106.714 208.251 116.398 209.18 127.414C210.109 138.431 219.793 146.609 230.81 145.68Z" fill="#1C2D5E"/>
<path d="M240.558 255.607H235.674L235.189 244.29H240.072L240.558 255.607Z" fill="#E4897B"/>
<path d="M265.659 108.159C266.084 108.997 266.437 109.743 266.776 110.541C267.116 111.339 267.442 112.118 267.781 112.909C268.446 114.499 269.005 116.116 269.524 117.759C270.043 119.402 270.529 121.086 270.901 122.789C271.107 123.634 271.254 124.512 271.427 125.383C271.6 126.255 271.699 127.14 271.773 128.045L271.839 128.71V128.883V129.136C271.859 129.39 271.859 129.646 271.839 129.901C271.761 130.85 271.448 131.764 270.928 132.562C270.185 133.649 269.193 134.544 268.034 135.17C266.361 136.079 264.57 136.751 262.712 137.166C259.346 137.955 255.903 138.368 252.446 138.396L251.98 134.757C255.04 133.96 258.054 132.996 261.008 131.87C262.309 131.371 263.546 130.722 264.694 129.934C265.14 129.608 265.439 129.215 265.359 129.202C265.273 129.303 265.222 129.429 265.213 129.561C265.21 129.61 265.21 129.659 265.213 129.708C265.213 129.708 265.213 129.748 265.213 129.708V129.641V129.502L265.107 128.956C264.509 125.945 263.668 122.989 262.592 120.114C262.06 118.637 261.481 117.167 260.889 115.704C260.297 114.24 259.645 112.756 259.046 111.412L265.659 108.159Z" fill="#E4897B"/>
<path d="M264.794 104.593C269.038 106.589 271.447 119.961 271.447 119.961L261.088 124.092C259.576 120.389 258.352 116.575 257.429 112.683C256.005 106.522 260.463 102.53 264.794 104.593Z" fill="#FF5C8A"/>
<path opacity="0.7" d="M264.794 104.593C269.038 106.589 271.447 119.961 271.447 119.961L261.088 124.092C259.576 120.389 258.352 116.575 257.429 112.683C256.005 106.522 260.463 102.53 264.794 104.593Z" fill="white"/>
<path d="M277.254 255.607H272.365L268.998 244.29H273.888L277.254 255.607Z" fill="#E4897B"/>
<path d="M235.189 244.29L235.435 250.125H240.325L240.079 244.29H235.189Z" fill="#CE6F64"/>
<path d="M273.888 244.29H268.998L270.735 250.125H275.625L273.888 244.29Z" fill="#CE6F64"/>
<path d="M245.514 146.746C245.514 146.746 241.462 181.101 244.503 195.072C247.829 210.374 268.806 249 268.806 249H277.76C277.76 249 261.068 211.631 259.166 196.443C257.103 179.977 262.386 160.092 262.386 146.739L245.514 146.746Z" fill="#FF5C8A"/>
<path d="M245.514 146.746C245.514 146.746 241.462 181.101 244.503 195.072C247.829 210.374 268.806 249 268.806 249H277.76C277.76 249 261.068 211.631 259.166 196.443C257.103 179.977 262.386 160.092 262.386 146.739L245.514 146.746Z" fill="#1C2D5E"/>
<path d="M252.952 134.531L249.539 133.307L249.645 139.554C249.645 139.554 252.406 139.733 253.936 137.937L252.952 134.531Z" fill="#E4897B"/>
<path d="M245.228 133.081L245.56 138.237L249.645 139.548L249.539 133.307L245.228 133.081Z" fill="#E4897B"/>
<path d="M239.992 89.9567C240.072 90.3426 239.932 90.6952 239.679 90.7484C239.427 90.8017 239.16 90.5289 239.081 90.143C239.001 89.7572 239.14 89.3979 239.393 89.3513C239.646 89.3048 239.906 89.5509 239.992 89.9567Z" fill="#263238"/>
<path d="M239.965 90.6689C239.741 91.9437 239.342 93.1816 238.781 94.348C239.081 94.4873 239.408 94.5595 239.739 94.5595C240.07 94.5595 240.397 94.4873 240.697 94.348L239.965 90.6689Z" fill="#DE5753"/>
<path d="M238.994 87.5687C238.956 87.5677 238.918 87.5575 238.884 87.5389C238.851 87.5204 238.822 87.4941 238.801 87.4622C238.784 87.4367 238.773 87.4079 238.767 87.3778C238.762 87.3477 238.762 87.3167 238.769 87.2869C238.776 87.257 238.789 87.2288 238.807 87.2041C238.825 87.1793 238.848 87.1585 238.874 87.1429C239.195 86.9644 239.554 86.8658 239.921 86.8554C240.288 86.845 240.653 86.923 240.983 87.083C241.038 87.109 241.081 87.1557 241.102 87.2129C241.123 87.2701 241.121 87.3334 241.096 87.389C241.084 87.417 241.066 87.4421 241.044 87.4631C241.022 87.484 240.996 87.5002 240.967 87.5108C240.939 87.5213 240.908 87.526 240.878 87.5245C240.847 87.523 240.818 87.5154 240.79 87.5021C240.529 87.3742 240.242 87.3105 239.951 87.3163C239.661 87.322 239.376 87.3972 239.12 87.5354C239.082 87.5566 239.038 87.568 238.994 87.5687V87.5687Z" fill="#263238"/>
<path d="M254.063 90.6221C253.357 94.1946 252.659 100.748 255.16 103.136C255.16 103.136 254.182 106.762 247.543 106.762C240.225 106.762 244.05 103.136 244.05 103.136C248.042 102.178 247.935 99.2242 247.237 96.4433L254.063 90.6221Z" fill="#E4897B"/>
<path d="M242.606 103.815L243.418 102.358C243.418 102.358 256.058 100.049 256.411 102.617C256.445 103.159 256.389 103.703 256.245 104.227L242.606 103.815Z" fill="#FF5C8A"/>
<path d="M270.316 255.858C270.108 255.885 269.896 255.87 269.694 255.814C269.492 255.758 269.303 255.662 269.138 255.532C269.079 255.454 269.047 255.358 269.047 255.259C269.047 255.161 269.079 255.065 269.138 254.987C269.175 254.918 269.226 254.858 269.288 254.811C269.35 254.764 269.421 254.731 269.497 254.714C270.216 254.541 271.56 255.472 271.62 255.512C271.639 255.524 271.654 255.542 271.662 255.563C271.671 255.584 271.674 255.607 271.67 255.629C271.665 255.651 271.654 255.671 271.638 255.687C271.622 255.703 271.602 255.714 271.58 255.718C271.164 255.808 270.741 255.855 270.316 255.858V255.858ZM269.704 254.927C269.655 254.92 269.606 254.92 269.557 254.927C269.513 254.936 269.471 254.954 269.434 254.98C269.398 255.007 269.367 255.041 269.344 255.08C269.238 255.273 269.304 255.352 269.344 255.379C269.551 255.652 270.549 255.658 271.28 255.539C270.805 255.226 270.267 255.024 269.704 254.947V254.927Z" fill="#FF5C8A"/>
<path d="M271.56 255.725C271.542 255.732 271.523 255.732 271.506 255.725C271.001 255.452 270.023 254.394 270.123 253.835C270.141 253.75 270.188 253.674 270.256 253.62C270.324 253.565 270.408 253.536 270.495 253.536C270.583 253.527 270.671 253.535 270.756 253.56C270.84 253.585 270.919 253.627 270.987 253.682C271.553 254.148 271.653 255.559 271.653 255.618C271.655 255.639 271.652 255.661 271.642 255.68C271.633 255.699 271.618 255.714 271.6 255.725C271.586 255.728 271.573 255.728 271.56 255.725V255.725ZM270.575 253.729H270.508C270.355 253.729 270.342 253.815 270.335 253.849C270.276 254.168 270.901 254.98 271.4 255.359C271.366 254.803 271.167 254.27 270.828 253.829C270.755 253.774 270.666 253.743 270.575 253.742V253.729Z" fill="#FF5C8A"/>
<path d="M233.712 255.859C233.08 255.859 232.474 255.772 232.275 255.486C232.223 255.412 232.195 255.324 232.195 255.233C232.195 255.143 232.223 255.055 232.275 254.981C232.315 254.914 232.368 254.857 232.431 254.811C232.494 254.765 232.565 254.732 232.641 254.715C233.459 254.488 235.162 255.466 235.235 255.506C235.257 255.517 235.274 255.535 235.285 255.556C235.296 255.578 235.299 255.602 235.295 255.626C235.291 255.649 235.28 255.671 235.263 255.688C235.247 255.704 235.225 255.715 235.202 255.719C234.71 255.808 234.212 255.855 233.712 255.859V255.859ZM232.933 254.908C232.86 254.9 232.787 254.9 232.714 254.908C232.666 254.918 232.62 254.938 232.58 254.967C232.54 254.996 232.507 255.032 232.481 255.074C232.401 255.214 232.434 255.287 232.481 255.327C232.707 255.646 233.945 255.653 234.856 255.52C234.26 255.194 233.608 254.986 232.933 254.908V254.908Z" fill="#FF5C8A"/>
<path d="M235.188 255.726H235.135C234.55 255.46 233.379 254.395 233.472 253.85C233.472 253.723 233.585 253.557 233.898 253.531C234.017 253.514 234.137 253.523 234.252 253.558C234.367 253.592 234.473 253.651 234.563 253.73C235.182 254.236 235.315 255.553 235.322 255.606C235.323 255.626 235.32 255.647 235.312 255.665C235.304 255.684 235.291 255.7 235.275 255.713C235.248 255.726 235.218 255.731 235.188 255.726V255.726ZM233.991 253.73H233.918C233.712 253.73 233.698 253.837 233.692 253.863C233.638 254.196 234.43 255.021 235.022 255.387C234.958 254.828 234.726 254.301 234.357 253.876C234.251 253.797 234.123 253.75 233.991 253.743V253.73Z" fill="#FF5C8A"/>
<path d="M270.568 255.613H277.161C277.271 255.609 277.379 255.64 277.469 255.702C277.559 255.765 277.626 255.855 277.66 255.959L278.811 260.436C278.831 260.554 278.822 260.675 278.787 260.789C278.752 260.903 278.69 261.008 278.608 261.094C278.525 261.18 278.424 261.247 278.311 261.287C278.199 261.328 278.079 261.341 277.96 261.327C275.665 261.327 274.547 261.181 271.66 261.181C269.883 261.181 266.218 261.341 263.769 261.341C261.321 261.341 260.988 259.252 261.993 259.059C266.504 258.207 268.2 257.063 269.644 255.925C269.909 255.723 270.234 255.613 270.568 255.613V255.613Z" fill="#263238"/>
<path d="M235.708 255.041H241.03C241.126 255.04 241.22 255.073 241.295 255.134C241.37 255.194 241.422 255.279 241.442 255.374L242.414 259.718C242.438 259.823 242.438 259.933 242.413 260.038C242.389 260.143 242.341 260.242 242.273 260.325C242.205 260.409 242.119 260.477 242.021 260.523C241.923 260.568 241.816 260.591 241.708 260.589C239.779 260.556 236.998 260.443 234.583 260.443C231.749 260.443 229.307 260.596 225.988 260.596C223.992 260.596 223.426 258.567 224.265 258.387C228.09 257.549 231.21 257.463 234.517 255.42C234.87 255.185 235.283 255.053 235.708 255.041V255.041Z" fill="#263238"/>
<path d="M242.201 111.659C239.892 114.366 237.544 116.981 235.149 119.642C232.754 122.303 230.305 124.831 227.797 127.379L225.934 129.255L225.648 129.535C225.488 129.692 225.319 129.841 225.143 129.981C224.816 130.234 224.466 130.457 224.098 130.646C223.468 130.977 222.797 131.223 222.102 131.378C220.001 131.801 217.84 131.829 215.729 131.458C212.041 130.857 208.446 129.776 205.038 128.244L206.129 124.738C209.456 125.286 212.817 125.602 216.188 125.683C216.957 125.687 217.725 125.649 218.49 125.57C219.123 125.513 219.747 125.376 220.346 125.164C220.518 125.099 220.682 125.011 220.832 124.904C220.865 124.871 220.885 124.851 220.878 124.838L220.945 124.765L221.051 124.638L222.768 122.642L229.66 114.659C231.969 111.998 234.317 109.337 236.646 106.742L242.201 111.659Z" fill="#E4897B"/>
<path opacity="0.2" d="M260.489 113.388L257.402 112.723C258.326 116.615 259.549 120.429 261.061 124.132L265.339 122.423C264.461 120.127 262.239 116.754 260.489 113.388Z" fill="#FF5C8A"/>
<path d="M234.25 115.643C234.111 118.211 234.084 121.344 234.25 125.163L238.794 114.079L234.25 115.643Z" fill="#FF5C8A"/>
<path d="M206.788 125.084L203.069 121.512L201.02 127.499C201.02 127.499 202.443 129.269 205.883 128.344L206.788 125.084Z" fill="#E4897B"/>
<path d="M200.248 120.273L198.804 125.509L201.02 127.512L203.069 121.511L200.248 120.273Z" fill="#E4897B"/>
<path d="M252.719 86.5235C253.384 91.3335 254.016 94.1078 252.107 97.0284C249.239 101.419 242.946 100.421 240.857 95.9107C238.981 91.8524 238.196 84.674 242.48 81.8532C243.417 81.2261 244.499 80.8491 245.623 80.7579C246.747 80.6668 247.876 80.8647 248.902 81.3327C249.928 81.8007 250.817 82.5233 251.485 83.4318C252.153 84.3404 252.578 85.4046 252.719 86.5235V86.5235Z" fill="#E4897B"/>
<path d="M258.014 83.9692C258.081 80.8623 255.859 78.6003 254.728 78.933C253.397 73.3645 243.884 76.192 243.884 76.192C243.884 76.192 246.099 73.0319 241.801 73.0186C237.504 73.0053 238.708 76.4448 238.708 76.4448C238.708 76.4448 236.093 73.8835 234.39 76.6577C232.687 79.4319 236.386 80.3966 236.386 80.3966C236.386 80.3966 233.299 79.6847 232.893 83.723C232.487 87.7613 237.983 84.5413 237.983 84.5413C238.914 86.2578 240.012 86.5971 241.076 86.4573C241.64 86.3931 242.208 86.5274 242.682 86.837C243.157 87.1467 243.509 87.6124 243.678 88.1538C245.214 92.8108 248.155 97.0088 252.539 95.7248C256.045 94.6869 257.915 88.5131 258.014 83.9692Z" fill="#263238"/>
<path d="M246.558 88.58C246.705 89.7778 246.455 90.9907 245.847 92.0328C245.028 93.3634 243.797 92.891 243.332 91.5272C242.913 90.2964 242.833 88.1143 243.997 87.2228C245.161 86.3313 246.365 87.1429 246.558 88.58Z" fill="#E4897B"/>
<path opacity="0.3" d="M247.962 158.555C247.15 156.173 245.64 158.635 244.07 162.606C243.518 170.483 243.112 179.904 243.565 187.421C245.381 178.154 249.752 163.804 247.962 158.555Z" fill="black"/>
<path d="M236.246 146.746C236.246 146.746 225.602 177.422 226.121 192.331C226.673 207.833 233.618 248.994 233.618 248.994H241.901C241.901 248.994 240.677 208.737 241.043 193.509C241.449 176.91 253.431 146.746 253.431 146.746H236.246Z" fill="#FF5C8A"/>
<path d="M236.246 146.746C236.246 146.746 225.602 177.422 226.121 192.331C226.673 207.833 233.618 248.994 233.618 248.994H241.901C241.901 248.994 240.677 208.737 241.043 193.509C241.449 176.91 253.431 146.746 253.431 146.746H236.246Z" fill="#1C2D5E"/>
<path d="M266.404 245.853C266.364 245.853 268.3 249.132 268.3 249.132H278.372L277.381 245.853H266.404Z" fill="#FF5C8A"/>
<path d="M232.022 245.699C231.982 245.699 232.487 249.132 232.487 249.132H242.567L242.839 246.065L232.022 245.699Z" fill="#FF5C8A"/>
<path d="M236.532 104.5C236.532 104.5 231.33 110.381 236.246 146.745H262.385C262.565 142.754 260.044 123.161 263.916 104.254C261.025 103.694 258.1 103.325 255.16 103.149C251.46 102.929 247.75 102.929 244.05 103.149C241.513 103.404 239 103.856 236.532 104.5V104.5Z" fill="#FF5C8A"/>
<path opacity="0.7" d="M236.532 104.5C236.532 104.5 231.33 110.381 236.246 146.745H262.385C262.565 142.754 260.044 123.161 263.916 104.254C261.025 103.694 258.1 103.325 255.16 103.149C251.46 102.929 247.75 102.929 244.05 103.149C241.513 103.404 239 103.856 236.532 104.5V104.5Z" fill="white"/>
<path d="M241.742 108.824C241.682 113.481 232.534 124.877 232.534 124.877L223.659 118.165C223.659 118.165 226.48 111.751 230.977 107.7C236.705 102.504 241.808 103.355 241.742 108.824Z" fill="#FF5C8A"/>
<path opacity="0.7" d="M241.742 108.824C241.682 113.481 232.534 124.877 232.534 124.877L223.659 118.165C223.659 118.165 226.48 111.751 230.977 107.7C236.705 102.504 241.808 103.355 241.742 108.824Z" fill="white"/>
</svg>
