<svg width="329" height="104" viewBox="0 0 329 104" fill="none" xmlns="http://www.w3.org/2000/svg">
<rect width="328" height="104" transform="translate(0.636719)" fill="white"/>
<path d="M154.136 87.031H177.732C178.184 87.0355 178.632 86.9458 179.047 86.7676C179.463 86.5894 179.837 86.3266 180.145 85.9959C180.454 85.6652 180.69 85.2739 180.839 84.847C180.988 84.42 181.046 83.9667 181.01 83.5159L176.351 17.0492C176.267 16.1008 175.835 15.2171 175.138 14.5682C174.441 13.9192 173.529 13.5509 172.577 13.5341H148.994C148.542 13.5291 148.094 13.6185 147.678 13.7965C147.262 13.9745 146.888 14.2373 146.579 14.5681C146.271 14.8989 146.035 15.2904 145.886 15.7176C145.737 16.1448 145.679 16.5983 145.716 17.0492L150.362 83.5159C150.446 84.4643 150.878 85.348 151.575 85.997C152.272 86.6459 153.184 87.0142 154.136 87.031Z" fill="#FF5C8A"/>
<path opacity="0.3" d="M154.136 87.031H177.732C178.184 87.0355 178.632 86.9458 179.047 86.7676C179.463 86.5894 179.837 86.3266 180.145 85.9959C180.454 85.6652 180.69 85.2739 180.839 84.847C180.988 84.42 181.046 83.9667 181.01 83.5159L176.351 17.0492C176.267 16.1008 175.835 15.2171 175.138 14.5682C174.441 13.9192 173.529 13.5509 172.577 13.5341H148.994C148.542 13.5291 148.094 13.6185 147.678 13.7965C147.262 13.9745 146.888 14.2373 146.579 14.5681C146.271 14.8989 146.035 15.2904 145.886 15.7176C145.737 16.1448 145.679 16.5983 145.716 17.0492L150.362 83.5159C150.446 84.4643 150.878 85.348 151.575 85.997C152.272 86.6459 153.184 87.0142 154.136 87.031Z" fill="#FAFAFA"/>
<path d="M156.68 87.031H180.278C180.731 87.0355 181.179 86.9458 181.594 86.7676C182.01 86.5894 182.384 86.3266 182.692 85.9959C183.001 85.6652 183.237 85.2739 183.386 84.847C183.535 84.42 183.593 83.9667 183.557 83.5159L178.908 17.0492C178.825 16.1008 178.394 15.2167 177.697 14.5676C177.001 13.9185 176.089 13.5503 175.137 13.5341H151.541C151.089 13.5291 150.64 13.6185 150.225 13.7965C149.809 13.9745 149.435 14.2373 149.126 14.5681C148.818 14.8989 148.581 15.2904 148.433 15.7176C148.284 16.1448 148.226 16.5983 148.263 17.0492L152.909 83.5159C152.992 84.464 153.424 85.3477 154.12 85.9967C154.816 86.6457 155.728 87.0141 156.68 87.031Z" fill="#FF5C8A"/>
<path opacity="0.6" d="M156.68 87.031H180.278C180.731 87.0355 181.179 86.9458 181.594 86.7676C182.01 86.5894 182.384 86.3266 182.692 85.9959C183.001 85.6652 183.237 85.2739 183.386 84.847C183.535 84.42 183.593 83.9667 183.557 83.5159L178.908 17.0492C178.825 16.1008 178.394 15.2167 177.697 14.5676C177.001 13.9185 176.089 13.5503 175.137 13.5341H151.541C151.089 13.5291 150.64 13.6185 150.225 13.7965C149.809 13.9745 149.435 14.2373 149.126 14.5681C148.818 14.8989 148.581 15.2904 148.433 15.7176C148.284 16.1448 148.226 16.5983 148.263 17.0492L152.909 83.5159C152.992 84.464 153.424 85.3477 154.12 85.9967C154.816 86.6457 155.728 87.0141 156.68 87.031Z" fill="#FAFAFA"/>
<path d="M153.768 83.2121H182.613C182.675 83.2123 182.736 83.1997 182.792 83.1753C182.849 83.1508 182.9 83.115 182.942 83.07C182.984 83.025 183.016 82.9718 183.036 82.9138C183.057 82.8558 183.065 82.7942 183.061 82.7328L178.533 17.9853C178.525 17.8717 178.475 17.7651 178.392 17.6874C178.309 17.6096 178.199 17.5664 178.085 17.5667H149.24C149.178 17.5669 149.117 17.5799 149.06 17.6047C149.004 17.6295 148.953 17.6656 148.911 17.7109C148.869 17.7561 148.837 17.8095 148.817 17.8677C148.796 17.9259 148.788 17.9876 148.792 18.0492L153.32 82.7935C153.328 82.9071 153.378 83.0136 153.461 83.0914C153.544 83.1692 153.654 83.2123 153.768 83.2121Z" fill="#FAFAFA"/>
<path d="M151.819 46.6811L153.931 41.4117C154.184 40.7886 155.085 40.7886 155.558 41.4117L159.53 46.6811C160 47.3202 159.686 48.0903 158.964 48.0903H157.584C159.012 52.7302 163.336 56.4178 168.081 57.0378C168.483 57.0945 168.858 57.2742 169.155 57.5522C169.451 57.8302 169.654 58.1929 169.736 58.5908C169.786 58.8015 169.782 59.0216 169.724 59.2303C169.666 59.439 169.555 59.6294 169.403 59.7837C169.251 59.938 169.062 60.0511 168.855 60.1125C168.647 60.1738 168.427 60.1812 168.215 60.1342C161.904 59.3161 156.155 54.3216 154.43 48.0967H152.88C152.158 48.0903 151.567 47.3074 151.819 46.6811Z" fill="#FF5C8A"/>
<path d="M165.554 34.864C165.504 34.6535 165.508 34.4338 165.567 34.2255C165.625 34.0171 165.735 33.8269 165.886 33.6727C166.038 33.5185 166.226 33.4053 166.434 33.3437C166.641 33.2821 166.861 33.2741 167.072 33.3205C173.383 34.1386 179.132 39.1332 180.857 45.358H182.423C183.145 45.358 183.737 46.1409 183.484 46.764L181.372 52.0335C181.123 52.6726 180.218 52.6726 179.745 52.0335L175.757 46.7672C175.288 46.1441 175.601 45.3612 176.323 45.3612H177.707C176.275 40.7213 171.955 37.0337 167.206 36.4138C166.805 36.3566 166.431 36.1771 166.135 35.8998C165.84 35.6225 165.637 35.2608 165.554 34.864Z" fill="#FF5C8A"/>
<g opacity="0.3">
<path opacity="0.3" d="M151.819 46.6811L153.931 41.4117C154.184 40.7886 155.085 40.7886 155.558 41.4117L159.53 46.6811C160 47.3202 159.686 48.0903 158.964 48.0903H157.584C159.012 52.7302 163.336 56.4178 168.081 57.0378C168.483 57.0945 168.858 57.2742 169.155 57.5522C169.451 57.8302 169.654 58.1929 169.736 58.5908C169.786 58.8015 169.782 59.0216 169.724 59.2303C169.666 59.439 169.555 59.6294 169.403 59.7837C169.251 59.938 169.062 60.0511 168.855 60.1125C168.647 60.1738 168.427 60.1812 168.215 60.1342C161.904 59.3161 156.155 54.3216 154.43 48.0967H152.88C152.158 48.0903 151.567 47.3074 151.819 46.6811Z" fill="black"/>
<path opacity="0.3" d="M165.554 34.864C165.504 34.6535 165.508 34.4338 165.567 34.2255C165.625 34.0171 165.735 33.8269 165.886 33.6727C166.038 33.5185 166.226 33.4053 166.434 33.3437C166.641 33.2821 166.861 33.2741 167.072 33.3205C173.383 34.1386 179.132 39.1332 180.857 45.358H182.423C183.145 45.358 183.737 46.1409 183.484 46.764L181.372 52.0335C181.123 52.6726 180.218 52.6726 179.745 52.0335L175.757 46.7672C175.288 46.1441 175.601 45.3612 176.323 45.3612H177.707C176.275 40.7213 171.955 37.0337 167.206 36.4138C166.805 36.3566 166.431 36.1771 166.135 35.8998C165.84 35.6225 165.637 35.2608 165.554 34.864Z" fill="black"/>
</g>
<path d="M158.484 15.3809C158.495 15.5307 158.562 15.6709 158.672 15.7738C158.781 15.8768 158.925 15.935 159.075 15.9369C159.147 15.9381 159.218 15.9242 159.284 15.8962C159.35 15.8681 159.409 15.8265 159.458 15.7741C159.507 15.7217 159.544 15.6596 159.567 15.5919C159.59 15.5241 159.599 15.4523 159.593 15.3809C159.583 15.2288 159.517 15.0859 159.407 14.9805C159.297 14.8751 159.151 14.815 158.999 14.8121C158.926 14.8107 158.854 14.8249 158.787 14.8537C158.72 14.8825 158.661 14.9254 158.612 14.9793C158.563 15.0332 158.526 15.0969 158.504 15.1662C158.482 15.2355 158.475 15.3087 158.484 15.3809Z" fill="#FF5C8A"/>
<path opacity="0.4" d="M158.484 15.3809C158.495 15.5307 158.562 15.6709 158.672 15.7738C158.781 15.8768 158.925 15.935 159.075 15.9369C159.147 15.9381 159.218 15.9242 159.284 15.8962C159.35 15.8681 159.409 15.8265 159.458 15.7741C159.507 15.7217 159.544 15.6596 159.567 15.5919C159.59 15.5241 159.599 15.4523 159.593 15.3809C159.583 15.2288 159.517 15.0859 159.407 14.9805C159.297 14.8751 159.151 14.815 158.999 14.8121C158.926 14.8107 158.854 14.8249 158.787 14.8537C158.72 14.8825 158.661 14.9254 158.612 14.9793C158.563 15.0332 158.526 15.0969 158.504 15.1662C158.482 15.2355 158.475 15.3087 158.484 15.3809Z" fill="#FAFAFA"/>
<path d="M161.331 15.9369H167.473C167.544 15.9371 167.615 15.9225 167.68 15.8941C167.745 15.8657 167.804 15.8241 167.852 15.7718C167.901 15.7195 167.938 15.6578 167.961 15.5905C167.984 15.5232 167.993 15.4518 167.988 15.3808C167.979 15.2301 167.914 15.0881 167.806 14.9828C167.697 14.8775 167.554 14.8166 167.403 14.812H161.267C161.196 14.8114 161.125 14.8256 161.059 14.8538C160.994 14.882 160.935 14.9236 160.886 14.9759C160.837 15.0282 160.8 15.0901 160.777 15.1576C160.753 15.2252 160.744 15.2968 160.75 15.3681C160.76 15.5178 160.825 15.6585 160.932 15.7635C161.039 15.8684 161.181 15.9301 161.331 15.9369Z" fill="#FF5C8A"/>
<path opacity="0.4" d="M161.331 15.9369H167.473C167.544 15.9371 167.615 15.9225 167.68 15.8941C167.745 15.8657 167.804 15.8241 167.852 15.7718C167.901 15.7195 167.938 15.6578 167.961 15.5905C167.984 15.5232 167.993 15.4518 167.988 15.3808C167.979 15.2301 167.914 15.0881 167.806 14.9828C167.697 14.8775 167.554 14.8166 167.403 14.812H161.267C161.196 14.8114 161.125 14.8256 161.059 14.8538C160.994 14.882 160.935 14.9236 160.886 14.9759C160.837 15.0282 160.8 15.0901 160.777 15.1576C160.753 15.2252 160.744 15.2968 160.75 15.3681C160.76 15.5178 160.825 15.6585 160.932 15.7635C161.039 15.8684 161.181 15.9301 161.331 15.9369Z" fill="#FAFAFA"/>
</svg>
