<svg width="32" height="33" viewBox="0 0 32 33" fill="none" xmlns="http://www.w3.org/2000/svg">
<circle cx="16" cy="16.5" r="16" fill="#DCEFE4"/>
<path d="M16.8889 11.0554C16.3366 11.0554 15.8889 11.5031 15.8889 12.0554C15.8889 12.6077 16.3366 13.0554 16.8889 13.0554V11.0554ZM24 12.0554L25 12.0554C25 11.5031 24.5523 11.0554 24 11.0554V12.0554ZM23 19.1665C23 19.7188 23.4477 20.1665 24 20.1665C24.5523 20.1665 25 19.7188 25 19.1665H23ZM7.29289 20.2372C6.90237 20.6277 6.90237 21.2609 7.29289 21.6514C7.68342 22.0419 8.31658 22.0419 8.70711 21.6514L7.29289 20.2372ZM13.3333 15.611L14.0404 14.9039C13.6499 14.5133 13.0168 14.5133 12.6262 14.9039L13.3333 15.611ZM16.8889 19.1665L16.1818 19.8736C16.5723 20.2642 17.2055 20.2642 17.596 19.8736L16.8889 19.1665ZM16.8889 13.0554L24 13.0554V11.0554H16.8889V13.0554ZM23 12.0554V19.1665H25V12.0554L23 12.0554ZM8.70711 21.6514L14.0404 16.3181L12.6262 14.9039L7.29289 20.2372L8.70711 21.6514ZM12.6262 16.3181L16.1818 19.8736L17.596 18.4594L14.0404 14.9039L12.6262 16.3181ZM17.596 19.8736L24.7071 12.7625L23.2929 11.3483L16.1818 18.4594L17.596 19.8736Z" fill="#27AE60"/>
</svg>
