<svg width="140" height="143" viewBox="0 0 140 143" fill="none" xmlns="http://www.w3.org/2000/svg">
<g opacity="0.8">
<path opacity="0.7" d="M109.427 113.597H58.7813C57.0993 113.607 55.4333 113.271 53.8864 112.611C52.3396 111.95 50.945 110.979 49.789 109.757C48.6331 108.535 47.7405 107.089 47.1666 105.508C46.5927 103.927 46.3497 102.245 46.4528 100.566L50.7842 17.8988C51.1417 10.7318 57.3101 4.86754 64.4812 4.86754H115.127C116.81 4.8548 118.479 5.18845 120.028 5.84777C121.577 6.50709 122.974 7.47798 124.133 8.70012C125.291 9.92225 126.185 11.3695 126.76 12.952C127.336 14.5344 127.579 16.2182 127.476 17.8988L123.14 100.566C122.766 107.733 116.594 113.597 109.427 113.597Z" fill="#FF5C8A"/>
<path d="M79.5172 0.105469H76.3652V0.51642H79.5172V0.105469Z" fill="#FF5C8A"/>
<path d="M73.673 0.105469H62.7129V0.51642H73.673V0.105469Z" fill="#FF5C8A"/>
<path d="M45.3094 28.2934L45.1445 31.4082L45.5549 31.4299L45.7198 28.3152L45.3094 28.2934Z" fill="#FF5C8A"/>
<path opacity="0.6" d="M106.511 110.689H55.8494C54.1678 110.699 52.5021 110.363 50.9556 109.703C49.409 109.042 48.0146 108.071 46.8587 106.85C45.7028 105.629 44.8101 104.183 44.236 102.602C43.6618 101.022 43.4184 99.3401 43.5209 97.6617L47.8564 14.9906C48.2304 7.82361 54.4028 1.95934 61.5698 1.95934H112.211C113.895 1.94659 115.563 2.28025 117.113 2.93957C118.662 3.59888 120.059 4.56977 121.217 5.79191C122.375 7.01404 123.27 8.46131 123.845 10.0438C124.42 11.6262 124.664 13.31 124.56 14.9906L120.229 97.6617C119.851 104.825 113.678 110.689 106.511 110.689Z" fill="#FF5C8A"/>
<path d="M65.3391 98.9878C53.2982 98.9878 42.219 94.2989 34.1397 85.7881C26.0604 77.2773 21.9344 65.9145 22.5673 53.8489C23.0081 45.8417 25.491 38.0805 29.7795 31.3042C33.9785 24.662 39.7119 19.126 46.497 15.162C46.522 15.1517 46.55 15.1517 46.575 15.162C46.6023 15.1698 46.6257 15.1873 46.6408 15.2113L50.7873 23.1221C50.9352 23.0399 51.0832 22.9577 51.2352 22.8797L51.3955 22.7893C51.4209 22.7811 51.4482 22.7811 51.4736 22.7893C51.4871 22.7932 51.4995 22.8001 51.5102 22.8093C51.5208 22.8185 51.5294 22.8299 51.5352 22.8427L52.6694 25.0002C52.6813 25.0237 52.6837 25.051 52.676 25.0762C52.6684 25.1014 52.6513 25.1228 52.6284 25.1358C42.0792 31.0329 35.1383 42.0423 34.5218 53.8736C34.0534 62.7419 37.0738 71.0801 43.0244 77.3471C45.977 80.4504 49.5364 82.9132 53.4813 84.5824C57.4262 86.2515 61.6722 87.0914 65.9555 87.0497C65.9695 87.0494 65.9834 87.0521 65.9962 87.0578C66.009 87.0635 66.0203 87.072 66.0295 87.0826C66.0396 87.0919 66.0474 87.1034 66.0524 87.1162C66.0574 87.1291 66.0594 87.1428 66.0582 87.1565L65.4418 98.9098C65.4369 98.9329 65.4238 98.9536 65.405 98.9679C65.3861 98.9823 65.3627 98.9893 65.3391 98.9878ZM46.5052 15.3962C32.6849 23.492 23.5905 38.2205 22.7686 53.8572C22.1399 65.8693 26.233 77.1581 34.2753 85.6442C42.3176 94.1304 53.2818 98.7577 65.2322 98.7947L65.8363 87.2511C61.5436 87.2775 57.2908 86.4249 53.3401 84.7456C49.3893 83.0663 45.8241 80.596 42.8641 77.4869C36.8766 71.1747 33.8232 62.783 34.304 53.8613C34.9246 41.993 41.8655 30.9425 52.427 25.0002L51.3914 23.0235L51.3174 23.0646C51.1407 23.1591 50.9599 23.2536 50.7873 23.3564C50.7609 23.3669 50.7315 23.3669 50.7051 23.3564C50.679 23.3484 50.657 23.3308 50.6435 23.3071L46.5052 15.3962Z" fill="#FF5C8A"/>
<path d="M68.2653 103.274C68.2359 103.274 68.2078 103.262 68.1872 103.241C68.1781 103.231 68.1713 103.218 68.1671 103.205C68.1628 103.191 68.1613 103.177 68.1625 103.163L68.82 90.5924C68.8221 90.5666 68.8338 90.5425 68.8529 90.525C68.8719 90.5075 68.8969 90.4978 68.9228 90.4979C88.5046 90.4979 105.271 74.5653 106.299 54.9794C106.301 54.9536 106.313 54.9295 106.332 54.912C106.351 54.8945 106.376 54.8848 106.402 54.8849H109.393C109.407 54.8843 109.42 54.8864 109.432 54.8911C109.445 54.8959 109.456 54.903 109.466 54.9122C109.475 54.9215 109.483 54.9325 109.488 54.9448C109.493 54.957 109.496 54.9702 109.496 54.9835C109.521 56.0026 109.496 57.0382 109.459 58.0451H118.701C118.715 58.0447 118.729 58.0475 118.742 58.0532C118.755 58.0589 118.766 58.0673 118.775 58.0779C118.794 58.1011 118.804 58.1302 118.804 58.1601C117.347 69.9913 111.808 80.9436 103.143 89.1294C93.6785 98.1169 80.9678 103.274 68.2653 103.274ZM69.0214 90.7034L68.3721 103.069C80.9883 103.04 93.6045 97.9073 102.999 88.9774C111.603 80.8545 117.114 69.9914 118.586 58.2505H109.352C109.337 58.2506 109.322 58.2468 109.308 58.2397C109.294 58.2325 109.283 58.2221 109.274 58.2094C109.264 58.2003 109.256 58.1888 109.251 58.176C109.246 58.1631 109.244 58.1492 109.245 58.1355C109.299 57.1245 109.311 56.0807 109.291 55.0821H106.496C105.419 74.7009 88.6361 90.6499 69.0214 90.7034Z" fill="#FF5C8A"/>
<path d="M109.394 55.0896C109.367 55.0886 109.341 55.0774 109.322 55.0584C109.303 55.0393 109.292 55.0138 109.291 54.9869C108.769 34.2215 92.031 17.956 71.167 17.956C64.2966 17.9723 57.5375 19.6921 51.4948 22.9614C51.483 22.9685 51.47 22.9731 51.4564 22.9749C51.4428 22.9766 51.429 22.9756 51.4158 22.9717C51.4027 22.9678 51.3905 22.9613 51.38 22.9524C51.3696 22.9436 51.3611 22.9327 51.355 22.9203C51.3429 22.8962 51.3405 22.8683 51.3481 22.8424C51.3557 22.8165 51.3729 22.7944 51.3961 22.7806C57.4692 19.4951 64.2622 17.7668 71.167 17.7506C81.1783 17.635 90.8286 21.4858 98.0103 28.4618C105.192 35.4378 109.321 44.9723 109.496 54.9827C109.497 54.9962 109.495 55.0097 109.49 55.0224C109.486 55.0351 109.478 55.0467 109.469 55.0566C109.46 55.0665 109.449 55.0746 109.437 55.0802C109.425 55.0859 109.411 55.0891 109.398 55.0896H109.394Z" fill="#FF5C8A"/>
<path d="M123.576 58.2502H118.702C118.674 58.2502 118.648 58.2393 118.629 58.2201C118.61 58.2008 118.599 58.1747 118.599 58.1474C118.599 58.1202 118.61 58.094 118.629 58.0748C118.648 58.0555 118.674 58.0447 118.702 58.0447H123.477C123.981 48.6501 121.956 39.2923 117.613 30.9466C111.247 18.8358 100.386 9.98805 87.0256 6.02648C72.8149 1.81012 57.6877 3.56077 44.4181 10.9579L46.6414 15.1907C46.6531 15.2153 46.655 15.2436 46.6466 15.2695C46.6382 15.2955 46.6201 15.3173 46.5962 15.3304C46.5841 15.3368 46.5708 15.3406 46.5572 15.3418C46.5435 15.343 46.5298 15.3414 46.5168 15.3372C46.5038 15.333 46.4918 15.3262 46.4814 15.3173C46.471 15.3084 46.4625 15.2975 46.4564 15.2852L44.1921 10.9661C44.1857 10.9546 44.1817 10.9418 44.1802 10.9287C44.1788 10.9155 44.1801 10.9023 44.1839 10.8896C44.1878 10.877 44.1941 10.8652 44.2026 10.855C44.211 10.8449 44.2214 10.8365 44.2332 10.8305C50.8533 7.10224 58.1607 4.755 65.7136 3.93063C72.8921 3.13045 80.1581 3.77601 87.0831 5.82922C100.497 9.80723 111.403 18.692 117.793 30.852C122.17 39.2588 124.202 48.6885 123.678 58.1515C123.677 58.1781 123.666 58.2031 123.647 58.2215C123.628 58.2399 123.602 58.2502 123.576 58.2502Z" fill="#FF5C8A"/>
<path d="M50.747 23.3561H50.7183C50.6922 23.3482 50.6701 23.3305 50.6566 23.3068L46.4567 15.3015C46.4442 15.277 46.4419 15.2485 46.4504 15.2223C46.4588 15.1961 46.4774 15.1743 46.5019 15.1618C46.5264 15.1492 46.5549 15.147 46.5811 15.1554C46.6073 15.1639 46.6291 15.1825 46.6416 15.207L50.7881 23.1178C50.9361 23.0356 51.084 22.9534 51.2361 22.8753L51.3963 22.7849C51.4084 22.7786 51.4217 22.7747 51.4353 22.7735C51.4489 22.7724 51.4627 22.7739 51.4757 22.7781C51.4887 22.7823 51.5007 22.7891 51.5111 22.798C51.5215 22.807 51.53 22.8179 51.536 22.8301C51.5425 22.8417 51.5465 22.8544 51.5479 22.8675C51.5493 22.8807 51.5481 22.894 51.5442 22.9066C51.5404 22.9193 51.5341 22.931 51.5256 22.9412C51.5171 22.9513 51.5067 22.9597 51.4949 22.9657L51.3306 23.0561C51.1539 23.1507 50.973 23.2452 50.8004 23.3479C50.7835 23.3549 50.7652 23.3577 50.747 23.3561Z" fill="#FF5C8A"/>
<g opacity="0.3">
<path opacity="0.3" d="M65.3391 98.9878C53.2982 98.9878 42.219 94.2989 34.1397 85.7881C26.0604 77.2773 21.9344 65.9145 22.5673 53.8489C23.0081 45.8417 25.491 38.0805 29.7795 31.3042C33.9785 24.662 39.7119 19.126 46.497 15.162C46.522 15.1517 46.55 15.1517 46.575 15.162C46.6023 15.1698 46.6257 15.1873 46.6408 15.2113L50.7873 23.1221C50.9352 23.0399 51.0832 22.9577 51.2352 22.8797L51.3955 22.7893C51.4209 22.7811 51.4482 22.7811 51.4736 22.7893C51.4871 22.7932 51.4995 22.8001 51.5102 22.8093C51.5208 22.8185 51.5294 22.8299 51.5352 22.8427L52.6694 25.0002C52.6813 25.0237 52.6837 25.051 52.676 25.0762C52.6684 25.1014 52.6513 25.1228 52.6284 25.1358C42.0792 31.0329 35.1383 42.0423 34.5218 53.8736C34.0534 62.7419 37.0738 71.0801 43.0244 77.3471C45.977 80.4504 49.5364 82.9132 53.4813 84.5824C57.4262 86.2515 61.6722 87.0914 65.9555 87.0497C65.9695 87.0494 65.9834 87.0521 65.9962 87.0578C66.009 87.0635 66.0203 87.072 66.0295 87.0826C66.0396 87.0919 66.0474 87.1034 66.0524 87.1162C66.0574 87.1291 66.0594 87.1428 66.0582 87.1565L65.4418 98.9098C65.4369 98.9329 65.4238 98.9536 65.405 98.9679C65.3861 98.9823 65.3627 98.9893 65.3391 98.9878ZM46.5052 15.3962C32.6849 23.492 23.5905 38.2205 22.7686 53.8572C22.1399 65.8693 26.233 77.1581 34.2753 85.6442C42.3176 94.1304 53.2818 98.7577 65.2322 98.7947L65.8363 87.2511C61.5436 87.2775 57.2908 86.4249 53.3401 84.7456C49.3893 83.0663 45.8241 80.596 42.8641 77.4869C36.8766 71.1747 33.8232 62.783 34.304 53.8613C34.9246 41.993 41.8655 30.9425 52.427 25.0002L51.3914 23.0235L51.3174 23.0646C51.1407 23.1591 50.9599 23.2536 50.7873 23.3564C50.7609 23.3669 50.7315 23.3669 50.7051 23.3564C50.679 23.3484 50.657 23.3308 50.6435 23.3071L46.5052 15.3962Z" fill="white"/>
<path opacity="0.3" d="M68.2653 103.274C68.2359 103.274 68.2078 103.262 68.1872 103.241C68.1781 103.231 68.1713 103.218 68.1671 103.205C68.1628 103.191 68.1613 103.177 68.1625 103.163L68.82 90.5924C68.8221 90.5666 68.8338 90.5425 68.8529 90.525C68.8719 90.5075 68.8969 90.4978 68.9228 90.4979C88.5046 90.4979 105.271 74.5653 106.299 54.9794C106.301 54.9536 106.313 54.9295 106.332 54.912C106.351 54.8945 106.376 54.8848 106.402 54.8849H109.393C109.407 54.8843 109.42 54.8864 109.432 54.8911C109.445 54.8959 109.456 54.903 109.466 54.9122C109.475 54.9215 109.483 54.9325 109.488 54.9448C109.493 54.957 109.496 54.9702 109.496 54.9835C109.521 56.0026 109.496 57.0382 109.459 58.0451H118.701C118.715 58.0447 118.729 58.0475 118.742 58.0532C118.755 58.0589 118.766 58.0673 118.775 58.0779C118.794 58.1011 118.804 58.1302 118.804 58.1601C117.347 69.9913 111.808 80.9436 103.143 89.1294C93.6785 98.1169 80.9678 103.274 68.2653 103.274ZM69.0214 90.7034L68.3721 103.069C80.9883 103.04 93.6045 97.9073 102.999 88.9774C111.603 80.8545 117.114 69.9914 118.586 58.2505H109.352C109.337 58.2506 109.322 58.2468 109.308 58.2397C109.294 58.2325 109.283 58.2221 109.274 58.2094C109.264 58.2003 109.256 58.1888 109.251 58.176C109.246 58.1631 109.244 58.1492 109.245 58.1355C109.299 57.1245 109.311 56.0807 109.291 55.0821H106.496C105.419 74.7009 88.6361 90.6499 69.0214 90.7034Z" fill="white"/>
<path opacity="0.3" d="M109.394 55.0896C109.367 55.0886 109.341 55.0774 109.322 55.0584C109.303 55.0393 109.292 55.0138 109.291 54.9869C108.769 34.2215 92.031 17.956 71.167 17.956C64.2966 17.9723 57.5375 19.6921 51.4948 22.9614C51.483 22.9685 51.47 22.9731 51.4564 22.9749C51.4428 22.9766 51.429 22.9756 51.4158 22.9717C51.4027 22.9678 51.3905 22.9613 51.38 22.9524C51.3696 22.9436 51.3611 22.9327 51.355 22.9203C51.3429 22.8962 51.3405 22.8683 51.3481 22.8424C51.3557 22.8165 51.3729 22.7944 51.3961 22.7806C57.4692 19.4951 64.2622 17.7668 71.167 17.7506C81.1783 17.635 90.8286 21.4858 98.0103 28.4618C105.192 35.4378 109.321 44.9723 109.496 54.9827C109.497 54.9962 109.495 55.0097 109.49 55.0224C109.486 55.0351 109.478 55.0467 109.469 55.0566C109.46 55.0665 109.449 55.0746 109.437 55.0802C109.425 55.0859 109.411 55.0891 109.398 55.0896H109.394Z" fill="white"/>
<path opacity="0.3" d="M123.576 58.2502H118.702C118.674 58.2502 118.648 58.2393 118.629 58.2201C118.61 58.2008 118.599 58.1747 118.599 58.1474C118.599 58.1202 118.61 58.094 118.629 58.0748C118.648 58.0555 118.674 58.0447 118.702 58.0447H123.477C123.981 48.6501 121.956 39.2923 117.613 30.9466C111.247 18.8358 100.386 9.98805 87.0256 6.02648C72.8149 1.81012 57.6877 3.56077 44.4181 10.9579L46.6414 15.1907C46.6531 15.2153 46.655 15.2436 46.6466 15.2695C46.6382 15.2955 46.6201 15.3173 46.5962 15.3304C46.5841 15.3368 46.5708 15.3406 46.5572 15.3418C46.5435 15.343 46.5298 15.3414 46.5168 15.3372C46.5038 15.333 46.4918 15.3262 46.4814 15.3173C46.471 15.3084 46.4625 15.2975 46.4564 15.2852L44.1921 10.9661C44.1857 10.9546 44.1817 10.9418 44.1802 10.9287C44.1788 10.9155 44.1801 10.9023 44.1839 10.8896C44.1878 10.877 44.1941 10.8652 44.2026 10.855C44.211 10.8449 44.2214 10.8365 44.2332 10.8305C50.8533 7.10224 58.1607 4.755 65.7136 3.93063C72.8921 3.13045 80.1581 3.77601 87.0831 5.82922C100.497 9.80723 111.403 18.692 117.793 30.852C122.17 39.2588 124.202 48.6885 123.678 58.1515C123.677 58.1781 123.666 58.2031 123.647 58.2215C123.628 58.2399 123.602 58.2502 123.576 58.2502Z" fill="white"/>
<path opacity="0.3" d="M50.747 23.3561H50.7183C50.6922 23.3482 50.6701 23.3305 50.6566 23.3068L46.4567 15.3015C46.4442 15.277 46.4419 15.2485 46.4504 15.2223C46.4588 15.1961 46.4774 15.1743 46.5019 15.1618C46.5264 15.1492 46.5549 15.147 46.5811 15.1554C46.6073 15.1639 46.6291 15.1825 46.6416 15.207L50.7881 23.1178C50.9361 23.0356 51.084 22.9534 51.2361 22.8753L51.3963 22.7849C51.4084 22.7786 51.4217 22.7747 51.4353 22.7735C51.4489 22.7724 51.4627 22.7739 51.4757 22.7781C51.4887 22.7823 51.5007 22.7891 51.5111 22.798C51.5215 22.807 51.53 22.8179 51.536 22.8301C51.5425 22.8417 51.5465 22.8544 51.5479 22.8675C51.5493 22.8807 51.5481 22.894 51.5442 22.9066C51.5404 22.9193 51.5341 22.931 51.5256 22.9412C51.5171 22.9513 51.5067 22.9597 51.4949 22.9657L51.3306 23.0561C51.1539 23.1507 50.973 23.2452 50.8004 23.3479C50.7835 23.3549 50.7652 23.3577 50.747 23.3561Z" fill="white"/>
</g>
<path d="M68.5189 81.917L68.108 89.4662C52.1261 89.4662 39.8428 76.5048 40.6811 60.527C41.2441 49.8176 47.5563 40.4603 56.4699 35.459L59.9054 41.9972C56.5583 43.8536 53.7338 46.5247 51.6937 49.7631C49.6535 53.0014 48.4637 56.7023 48.2344 60.5229C47.6303 72.3377 56.7082 81.917 68.5189 81.917Z" fill="#FF5C8A"/>
<path opacity="0.6" d="M68.5189 81.917L68.108 89.4662C52.1261 89.4662 39.8428 76.5048 40.6811 60.527C41.2441 49.8176 47.5563 40.4603 56.4699 35.459L59.9054 41.9972C56.5583 43.8536 53.7338 46.5247 51.6937 49.7631C49.6535 53.0014 48.4637 56.7023 48.2344 60.5229C47.6303 72.3377 56.7082 81.917 68.5189 81.917Z" fill="#1C2D5E"/>
<path d="M102.592 61.2559C102.075 69.5787 98.4273 77.3974 92.3822 83.1414C86.337 88.8854 78.3423 92.1292 70.0039 92.221L70.4149 84.1417C83.0516 84.1417 93.8391 73.8926 94.5007 61.2559H102.592Z" fill="#FF5C8A"/>
<path opacity="0.3" d="M102.592 61.2559C102.075 69.5787 98.4273 77.3974 92.3822 83.1414C86.337 88.8854 78.3423 92.1292 70.0039 92.221L70.4149 84.1417C83.0516 84.1417 93.8391 73.8926 94.5007 61.2559H102.592Z" fill="#1C2D5E"/>
<path d="M105.547 63.2892H96.4071C97.155 48.9758 86.1662 37.3993 71.8692 37.3993C67.2625 37.3977 62.7343 38.5914 58.727 40.8636L54.5723 32.9446C71.7213 23.3366 93.0126 29.131 101.758 45.7745C104.57 51.1668 105.879 57.2167 105.547 63.2892Z" fill="#FAFAFA"/>
<path d="M104.547 86.0898H96.1309L95.2227 103.424H103.639L104.547 86.0898Z" fill="#FAFAFA"/>
<path d="M116.56 80.3594H108.144L106.936 103.422H115.352L116.56 80.3594Z" fill="#FF5C8A"/>
<path opacity="0.6" d="M116.56 80.3594H108.144L106.936 103.422H115.352L116.56 80.3594Z" fill="#1C2D5E"/>
<path d="M127.969 86.0898H119.553L118.645 103.424H127.061L127.969 86.0898Z" fill="#FF5C8A"/>
<path opacity="0.3" d="M127.969 86.0898H119.553L118.645 103.424H127.061L127.969 86.0898Z" fill="#1C2D5E"/>
<path d="M126.981 104.898H95.1445L95.1651 104.504H127.001L126.981 104.898Z" fill="#263238"/>
<path opacity="0.8" d="M131.284 31.5606H94.5859L95.6708 10.8281H132.373L131.284 31.5606Z" fill="#FAFAFA"/>
<path d="M95.2476 18.9071L94.5859 31.5603H131.284L132.106 15.8496C126.015 15.8496 122.403 22.7824 114.87 22.7824C107.338 22.7824 105.271 18.9071 95.2476 18.9071Z" fill="#FF5C8A"/>
<path opacity="0.1" d="M95.2476 18.9071L94.5859 31.5603H131.284L132.106 15.8496C126.015 15.8496 122.403 22.7824 114.87 22.7824C107.338 22.7824 105.271 18.9071 95.2476 18.9071Z" fill="#1C2D5E"/>
<path d="M94.9323 24.956C103.18 24.956 106.143 20.4355 110.774 20.4355C115.406 20.4355 117.432 25.1902 123.202 25.1902C129.218 25.1902 131.832 21.4506 131.832 21.4506L131.301 31.5682H94.6035L94.9323 24.956Z" fill="#FF5C8A"/>
<path opacity="0.5" d="M94.9323 24.956C103.18 24.956 106.143 20.4355 110.774 20.4355C115.406 20.4355 117.432 25.1902 123.202 25.1902C129.218 25.1902 131.832 21.4506 131.832 21.4506L131.301 31.5682H94.6035L94.9323 24.956Z" fill="#1C2D5E"/>
</g>
<path d="M22.3515 40.8684C21.809 41.5958 21.2049 42.4054 20.6584 43.1985C20.1118 43.9917 19.5611 44.8012 19.0433 45.6149C18.0075 47.1985 17.1005 48.8627 16.3311 50.5915L16.1954 50.9039L16.1297 51.06C16.1003 51.1246 16.0849 51.1946 16.0845 51.2655C16.0739 51.6006 16.1113 51.9355 16.1954 52.26C16.4148 53.1253 16.7133 53.9686 17.0872 54.7791C17.9013 56.5547 18.8037 58.2883 19.7913 59.9736L18.0118 61.379C16.5105 59.8804 15.1716 58.2275 14.0174 56.4476C13.3964 55.4897 12.881 54.4673 12.4804 53.3983C12.243 52.7573 12.095 52.0866 12.0407 51.4052C12.0103 50.9703 12.0407 50.5332 12.1311 50.1066C12.1558 49.9874 12.1928 49.86 12.2298 49.7409L12.2955 49.5395L12.427 49.1286C12.5955 48.5902 12.801 48.0847 12.9982 47.5711C13.1955 47.0574 13.4092 46.5642 13.6681 46.0834C14.1201 45.1012 14.642 44.1684 15.1722 43.2478C15.7023 42.3273 16.2776 41.4397 16.8776 40.5726C17.1776 40.1369 17.4858 39.7096 17.7982 39.2822C18.1105 38.8548 18.4228 38.4603 18.7927 38L22.3515 40.8684Z" fill="#E58A7B"/>
<path d="M19.146 59.3281L21.3528 59.7062L19.3926 63.0267C19.3926 63.0267 17.8556 62.287 17.5762 60.8528L19.146 59.3281Z" fill="#E58A7B"/>
<path d="M23.7363 60.8947L21.9898 63.5659L19.3926 63.0275L21.3528 59.707L23.7363 60.8947Z" fill="#E58A7B"/>
<path d="M33.7324 24.7581C33.7324 25.0005 33.8598 25.1978 34.0201 25.1978C34.1804 25.1978 34.3078 25.0005 34.3078 24.7581C34.3078 24.5156 34.1804 24.3184 34.0201 24.3184C33.8598 24.3184 33.7324 24.5115 33.7324 24.7581Z" fill="#263238"/>
<path d="M33.8379 25.1992C34.1288 25.9435 34.5201 26.6445 35.0009 27.2827C34.8346 27.4017 34.6444 27.4828 34.4435 27.5204C34.2426 27.558 34.0359 27.5513 33.8379 27.5005V25.1992Z" fill="#DF5753"/>
<path d="M32.8685 23.41C32.8456 23.4107 32.8229 23.4053 32.8028 23.3945C32.7826 23.3837 32.7656 23.3678 32.7534 23.3484C32.7418 23.3336 32.7334 23.3165 32.7288 23.2983C32.7242 23.2801 32.7234 23.2611 32.7265 23.2425C32.7295 23.224 32.7365 23.2063 32.7468 23.1905C32.7571 23.1748 32.7705 23.1614 32.7863 23.1511C32.9668 23.0129 33.1781 22.9204 33.4021 22.8818C33.6261 22.8431 33.8562 22.8594 34.0726 22.9292C34.1071 22.9438 34.1346 22.9713 34.1492 23.0058C34.1638 23.0403 34.1643 23.0792 34.1506 23.1141C34.1447 23.1318 34.1353 23.1481 34.1228 23.1619C34.1103 23.1758 34.0951 23.1869 34.0781 23.1946C34.0612 23.2023 34.0428 23.2065 34.0242 23.2068C34.0055 23.2071 33.987 23.2035 33.9698 23.1963C33.7975 23.1437 33.6151 23.133 33.4378 23.1652C33.2605 23.1973 33.0935 23.2714 32.9507 23.3813C32.9275 23.4002 32.8984 23.4104 32.8685 23.41Z" fill="#263238"/>
<path d="M25.8695 27.5645C26.3051 29.7754 26.7366 33.8191 25.1914 35.2945C25.1914 35.2945 25.7955 37.5341 29.9009 37.5341C34.4214 37.5341 32.0543 35.2945 32.0543 35.2945C29.5886 34.7068 29.6543 32.8781 30.0858 31.1644L25.8695 27.5645Z" fill="#E58A7B"/>
<path d="M24.6165 36.065C24.2918 35.3582 23.9384 34.5445 24.674 34.2897C25.4959 34.0102 29.9218 33.7267 31.4506 34.2486C31.6522 34.3045 31.8408 34.3998 32.0054 34.5291C32.1699 34.6584 32.3072 34.819 32.4093 35.0017C32.5113 35.1844 32.5761 35.3855 32.5999 35.5934C32.6237 35.8014 32.606 36.0119 32.5478 36.2129L24.6165 36.065Z" fill="#FF5C8A"/>
<path d="M15.0958 139.168C14.8305 139.166 14.5661 139.137 14.3068 139.081C14.2935 139.079 14.2812 139.073 14.2716 139.063C14.2621 139.053 14.2557 139.041 14.2534 139.028C14.2506 139.014 14.2519 139 14.257 138.987C14.2621 138.974 14.2708 138.962 14.2821 138.954C14.3191 138.929 15.1533 138.362 15.5931 138.461C15.6402 138.471 15.6846 138.491 15.723 138.52C15.7614 138.549 15.7928 138.586 15.815 138.629C15.8502 138.679 15.8691 138.739 15.8691 138.8C15.8691 138.861 15.8502 138.92 15.815 138.97C15.7142 139.049 15.5987 139.107 15.4752 139.141C15.3517 139.175 15.2228 139.184 15.0958 139.168ZM14.5082 138.979C14.9602 139.052 15.5766 139.052 15.704 138.88C15.704 138.88 15.7574 138.814 15.704 138.699C15.6907 138.674 15.672 138.652 15.6493 138.635C15.6265 138.618 15.6003 138.606 15.5725 138.6C15.1872 138.62 14.8166 138.755 14.5082 138.987V138.979Z" fill="#FF5C8A"/>
<path d="M14.3419 139.095C14.3299 139.099 14.3169 139.099 14.3049 139.095C14.2935 139.088 14.2843 139.078 14.2784 139.067C14.2726 139.055 14.2703 139.042 14.272 139.029C14.272 138.992 14.346 138.121 14.683 137.833C14.7252 137.799 14.7738 137.773 14.826 137.757C14.8782 137.742 14.9329 137.737 14.9871 137.743C15.0414 137.743 15.0941 137.761 15.1361 137.796C15.178 137.83 15.2067 137.878 15.2172 137.932C15.2789 138.269 14.6748 138.926 14.3624 139.099L14.3419 139.095ZM14.9501 137.862C14.8899 137.863 14.8318 137.885 14.7857 137.923C14.5756 138.196 14.4511 138.525 14.4282 138.869C14.7405 138.634 15.1268 138.137 15.0898 137.936C15.0898 137.936 15.0898 137.874 14.983 137.862H14.9501Z" fill="#FF5C8A"/>
<path d="M33.2214 139.168C32.9112 139.168 32.6016 139.139 32.2968 139.082C32.2821 139.08 32.2685 139.074 32.258 139.063C32.2476 139.053 32.241 139.039 32.2392 139.024C32.2369 139.01 32.2388 138.996 32.2447 138.982C32.2505 138.969 32.26 138.958 32.2721 138.95C32.3173 138.926 33.3735 138.326 33.8748 138.461C33.9222 138.472 33.9669 138.492 34.0058 138.521C34.0448 138.55 34.0771 138.587 34.1008 138.63C34.1336 138.675 34.1512 138.73 34.1512 138.786C34.1512 138.842 34.1336 138.897 34.1008 138.942C33.9817 139.123 33.6077 139.168 33.2214 139.168ZM32.5269 138.979C33.094 139.057 33.8543 139.045 33.994 138.856C33.994 138.831 34.0269 138.79 33.994 138.7C33.979 138.674 33.9587 138.652 33.9347 138.635C33.9106 138.618 33.8832 138.607 33.8543 138.601C33.5091 138.519 32.8351 138.823 32.5269 138.987V138.979Z" fill="#FF5C8A"/>
<path d="M32.3087 139.094C32.2953 139.098 32.281 139.098 32.2676 139.094C32.2573 139.087 32.2492 139.077 32.2441 139.065C32.2391 139.054 32.2372 139.041 32.2388 139.028C32.2655 138.6 32.4299 138.192 32.7073 137.865C32.7624 137.816 32.8279 137.779 32.8989 137.757C32.97 137.736 33.0449 137.731 33.1183 137.742C33.3155 137.763 33.3731 137.861 33.3854 137.943C33.4388 138.284 32.7197 138.938 32.3539 139.098L32.3087 139.094ZM33.0443 137.861C32.9531 137.86 32.8649 137.894 32.7977 137.956C32.5662 138.214 32.4223 138.539 32.3868 138.884C32.7566 138.663 33.2498 138.149 33.2087 137.943C33.2087 137.943 33.2087 137.878 33.069 137.861H33.0443Z" fill="#FF5C8A"/>
<path d="M28.9883 139.02H32.0088L32.3088 132.029H29.2883L28.9883 139.02Z" fill="#E58A7B"/>
<path d="M10.8613 139.02H13.8818L15.3982 132.029H12.3818L10.8613 139.02Z" fill="#E58A7B"/>
<path d="M14.0963 138.67H10.7059C10.6454 138.67 10.5868 138.691 10.5398 138.729C10.4927 138.768 10.46 138.82 10.447 138.88L9.85112 141.563C9.83751 141.628 9.83881 141.696 9.85494 141.761C9.87106 141.825 9.90158 141.886 9.94424 141.937C9.98689 141.988 10.0406 142.03 10.1013 142.057C10.162 142.085 10.2282 142.099 10.295 142.097C11.4785 142.077 12.0538 142.007 13.5456 142.007C14.462 142.007 16.3524 142.105 17.6222 142.105C18.8921 142.105 19.0523 140.873 18.5345 140.737C16.2085 140.227 15.3332 139.525 14.5853 138.859C14.4521 138.736 14.2773 138.669 14.0963 138.67Z" fill="#263238"/>
<path d="M31.9886 138.67H28.701C28.6405 138.67 28.5819 138.691 28.5349 138.729C28.4878 138.767 28.4551 138.82 28.4421 138.879L27.8462 141.563C27.832 141.628 27.8325 141.695 27.8479 141.759C27.8632 141.824 27.893 141.884 27.9349 141.935C27.9768 141.987 28.0297 142.028 28.0898 142.056C28.1499 142.084 28.2155 142.098 28.2818 142.097C29.4695 142.077 31.1873 142.007 32.6831 142.007C34.4297 142.007 35.942 142.105 37.9885 142.105C39.2214 142.105 39.5748 140.873 39.057 140.737C36.694 140.219 34.7666 140.166 32.7242 138.908C32.5067 138.76 32.2515 138.678 31.9886 138.67Z" fill="#263238"/>
<path d="M35.9797 37.0176C37.7468 37.8888 39.5837 38.7806 41.396 39.6148C43.2083 40.449 45.0412 41.2586 46.8617 41.9531L47.5397 42.1956L47.7123 42.2572H47.7534C47.7534 42.2572 47.7534 42.2572 47.774 42.2778C48.0198 42.3032 48.2683 42.2737 48.5014 42.1915C49.3187 41.9188 50.0998 41.5476 50.8273 41.086C52.4883 40.0427 54.0844 38.8996 55.6067 37.6628L57.2711 39.1997C56.003 40.9541 54.528 42.5492 52.878 43.9503C51.9726 44.7322 50.9595 45.3799 49.8698 45.8736C49.1557 46.1969 48.3811 46.365 47.5973 46.3667C47.3489 46.362 47.1014 46.3359 46.8576 46.2886L46.6603 46.2434L46.5247 46.2064L46.3274 46.153L45.5384 45.9352C43.5043 45.3262 41.5066 44.6017 39.555 43.7654C37.6153 42.9435 35.7495 42.0641 33.8633 41.0654L35.9797 37.0176Z" fill="#E58A7B"/>
<path d="M19.7889 35.9786C16.9575 36.6279 13.7109 44.3415 13.7109 44.3415L19.3944 48.2373C20.8092 46.21 22.0649 44.0763 23.1505 41.8552C24.8272 38.3252 22.682 35.317 19.7889 35.9786Z" fill="#1C2D5E"/>
<path d="M21.8146 40.8965L19.127 48.0511L19.3941 48.2361C19.3941 48.2361 20.5571 46.5923 21.8146 44.4019V40.8965Z" fill="#FF5C8A"/>
<path d="M21.8146 40.8965L19.127 48.0511L19.3941 48.2361C19.3941 48.2361 20.5571 46.5923 21.8146 44.4019V40.8965Z" fill="#1C2D5E"/>
<path d="M36.6977 36.1343C36.6977 36.1343 39.9114 39.763 36.8786 62.2297H20.7282C20.6172 59.764 22.1747 47.6574 19.7871 35.9781C21.5719 35.6345 23.377 35.4066 25.1911 35.296C27.4769 35.1644 29.7683 35.1644 32.054 35.296C33.6214 35.4539 35.1741 35.7342 36.6977 36.1343Z" fill="#1C2D5E"/>
<path d="M38.112 43.0465L34.2285 42.2246C34.286 42.2945 36.6942 45.315 38.1695 47.193C38.1983 45.5903 38.1778 44.2383 38.112 43.0465Z" fill="#FF5C8A"/>
<path d="M38.112 43.0465L34.2285 42.2246C34.286 42.2945 36.6942 45.315 38.1695 47.193C38.1983 45.5903 38.1778 44.2383 38.112 43.0465Z" fill="#1C2D5E"/>
<path d="M31.6356 40.1534C32.5233 42.8986 41.4984 45.9067 41.4984 45.9067L44.1696 39.574C41.9174 38.2083 39.5258 37.0869 37.0355 36.2288C33.3945 35.07 30.6576 37.1412 31.6356 40.1534Z" fill="#1C2D5E"/>
<path d="M55.3516 38.0733L56.2351 35.0117L59.7487 36.6021C59.7487 36.6021 58.972 38.9774 56.8474 39.5445L55.3516 38.0733Z" fill="#E58A7B"/>
<path d="M58.3384 32.4609L60.7261 34.8157L59.748 36.5869L56.2344 34.9965L58.3384 32.4609Z" fill="#E58A7B"/>
<path d="M32.3095 132.033L32.1533 135.633H29.1328L29.289 132.033H32.3095Z" fill="#CF6F64"/>
<path d="M12.3785 132.033H15.399L14.6181 135.633H11.5977L12.3785 132.033Z" fill="#CF6F64"/>
<path d="M25.6111 24.241C25.7919 27.2327 25.7467 28.9916 27.2549 30.5286C29.5275 32.8381 33.2178 31.4655 33.9329 28.4738C34.574 25.7862 34.1671 21.3479 31.2371 20.1562C30.5926 19.8913 29.8911 19.7958 29.1993 19.8785C28.5074 19.9613 27.8483 20.2196 27.2845 20.629C26.7206 21.0384 26.2709 21.5852 25.978 22.2174C25.6851 22.8496 25.5588 23.5462 25.6111 24.241Z" fill="#E58A7B"/>
<path d="M31.4222 22.252C33.6783 22.9178 35.5687 19.7164 35.2194 21.9808C34.87 24.2451 37.3316 23.9986 37.3316 23.9986C37.3316 23.9986 35.4002 23.2671 37.6974 21.3603C40.5042 19.0302 36.518 17.6001 34.7714 18.8658C32.4208 20.5753 31.9605 17.559 28.9318 16.7494C26.877 16.2069 24.3497 17.4973 24.3045 18.9808C24.247 20.7931 22.6894 19.3343 22.5744 22.0301C22.4963 23.789 24.5922 29.5875 26.8524 29.7848C30.2551 30.0847 31.3975 25.7698 31.4222 22.252Z" fill="#263238"/>
<path d="M29.6469 25.1119C29.808 25.8422 30.2069 26.4984 30.7811 26.9776C31.5414 27.594 32.1496 27.0433 32.1331 26.1557C32.1126 25.3543 31.6975 24.068 30.8428 23.7968C29.988 23.5256 29.4538 24.2365 29.6469 25.1119Z" fill="#E58A7B"/>
<path d="M24.9623 20.6656C24.5937 20.1064 24.3703 19.4641 24.3122 18.7968C24.254 18.1295 24.3631 17.4583 24.6295 16.8438C24.6295 16.8438 21.4158 19.2643 24.9623 20.6656Z" fill="#263238"/>
<path d="M22.3887 20.3707C22.7072 20.2359 23.0546 20.1836 23.3987 20.2188C23.7428 20.254 24.0725 20.3755 24.3571 20.5721C24.3571 20.5721 23.4448 18.7105 22.3887 20.3707Z" fill="#263238"/>
<path d="M31.1507 62.2293C31.1507 62.2293 27.7234 85.3001 25.8494 93.963C23.7947 103.415 16.0318 134.959 16.0318 134.959H10.4922C10.4922 134.959 15.6126 104.171 16.8085 94.7849C18.0825 84.6138 20.7495 62.2129 20.7495 62.2129L31.1507 62.2293Z" fill="#FF5C8A"/>
<path d="M16.9063 132.9C16.931 132.9 16.3351 135.025 16.3351 135.025H10.1133L10.2283 133.131L16.9063 132.9Z" fill="#FF5C8A"/>
<path opacity="0.2" d="M16.9063 132.9C16.931 132.9 16.3351 135.025 16.3351 135.025H10.1133L10.2283 133.131L16.9063 132.9Z" fill="#1C2D5E"/>
<path d="M28.9851 70.4479C25.0235 71.2246 25.4427 85.9983 25.9194 93.5968C27.0824 88.2092 28.7262 77.8902 29.8769 70.5383C29.5985 70.4076 29.284 70.3758 28.9851 70.4479Z" fill="#FF5C8A"/>
<path opacity="0.2" d="M28.9851 70.4479C25.0235 71.2246 25.4427 85.9983 25.9194 93.5968C27.0824 88.2092 28.7262 77.8902 29.8769 70.5383C29.5985 70.4076 29.284 70.3758 28.9851 70.4479Z" fill="#1C2D5E"/>
<path d="M36.8801 62.2285C36.8801 62.2285 37.291 84.7979 36.9664 94.0074C36.6253 103.583 33.2678 134.938 33.2678 134.938H28.1679C28.1679 134.938 27.9789 104.141 27.757 94.7389C27.5104 84.4856 26.2734 62.2285 26.2734 62.2285H36.8801Z" fill="#FF5C8A"/>
<path d="M32.2153 131.265C32.2015 131.263 32.1889 131.256 32.1799 131.245C32.1708 131.235 32.1659 131.221 32.166 131.207C33.0701 122.528 35.1947 101.533 35.4536 94.0039C35.729 86.2904 35.4783 69.0633 35.3961 63.9634C35.3961 63.9569 35.3974 63.9505 35.3999 63.9445C35.4023 63.9385 35.406 63.9331 35.4105 63.9285C35.4151 63.9239 35.4206 63.9203 35.4265 63.9178C35.4325 63.9153 35.4389 63.9141 35.4454 63.9141C35.4589 63.914 35.4719 63.9191 35.4818 63.9282C35.4917 63.9374 35.4978 63.9499 35.4988 63.9634C35.581 69.0592 35.8317 86.2903 35.5564 94.008C35.2892 101.541 33.1646 122.54 32.2688 131.22C32.2682 131.226 32.2664 131.232 32.2635 131.238C32.2605 131.244 32.2564 131.249 32.2515 131.253C32.2465 131.258 32.2407 131.261 32.2345 131.263C32.2283 131.265 32.2218 131.265 32.2153 131.265Z" fill="#FF5C8A"/>
<path opacity="0.2" d="M32.2153 131.265C32.2015 131.263 32.1889 131.256 32.1799 131.245C32.1708 131.235 32.1659 131.221 32.166 131.207C33.0701 122.528 35.1947 101.533 35.4536 94.0039C35.729 86.2904 35.4783 69.0633 35.3961 63.9634C35.3961 63.9569 35.3974 63.9505 35.3999 63.9445C35.4023 63.9385 35.406 63.9331 35.4105 63.9285C35.4151 63.9239 35.4206 63.9203 35.4265 63.9178C35.4325 63.9153 35.4389 63.9141 35.4454 63.9141C35.4589 63.914 35.4719 63.9191 35.4818 63.9282C35.4917 63.9374 35.4978 63.9499 35.4988 63.9634C35.581 69.0592 35.8317 86.2903 35.5564 94.008C35.2892 101.541 33.1646 122.54 32.2688 131.22C32.2682 131.226 32.2664 131.232 32.2635 131.238C32.2605 131.244 32.2564 131.249 32.2515 131.253C32.2465 131.258 32.2407 131.261 32.2345 131.263C32.2283 131.265 32.2218 131.265 32.2153 131.265Z" fill="#1C2D5E"/>
<path d="M34.2619 132.9C34.2866 132.9 33.9743 135.025 33.9743 135.025H27.7525L27.584 133.131L34.2619 132.9Z" fill="#FF5C8A"/>
<path opacity="0.2" d="M34.2619 132.9C34.2866 132.9 33.9743 135.025 33.9743 135.025H27.7525L27.584 133.131L34.2619 132.9Z" fill="#1C2D5E"/>
</svg>
