<svg width="49" height="49" viewBox="0 0 49 49" fill="none" xmlns="http://www.w3.org/2000/svg">
<circle cx="24.3086" cy="24.4983" r="24" transform="rotate(-90 24.3086 24.4983)" fill="#E1E9FE"/>
<path d="M17.9149 16.7707C17.3291 17.3565 17.3291 18.3063 17.9149 18.892C18.5007 19.4778 19.4505 19.4778 20.0362 18.892L17.9149 16.7707ZM24.3089 12.498L25.3696 11.4374C24.7838 10.8516 23.834 10.8516 23.2483 11.4374L24.3089 12.498ZM28.5816 18.892C29.1674 19.4778 30.1171 19.4778 30.7029 18.892C31.2887 18.3063 31.2887 17.3565 30.7029 16.7707L28.5816 18.892ZM22.8089 36.498C22.8089 37.3265 23.4805 37.998 24.3089 37.998C25.1373 37.998 25.8089 37.3265 25.8089 36.498H22.8089ZM20.0362 18.892L25.3696 13.5587L23.2483 11.4374L17.9149 16.7707L20.0362 18.892ZM23.2483 13.5587L28.5816 18.892L30.7029 16.7707L25.3696 11.4374L23.2483 13.5587ZM22.8089 12.498V36.498H25.8089V12.498H22.8089Z" fill="#4A75F7"/>
</svg>
