<svg width="64" height="60" viewBox="0 0 64 60" fill="none" xmlns="http://www.w3.org/2000/svg">
<path d="M50.4957 59.0801V56.5889L50.2713 56.3644C50.1995 56.2926 50.1254 56.2208 50.0334 56.1265H33.7326L33.5194 56.351L33.2568 56.6091V59.1003L33.5194 59.3562L33.7326 59.5806H50.0244L50.2489 59.3562L50.4957 59.1138V59.0801Z" fill="#FF5C8A"/>
<path d="M51.9321 55.6531V53.1619L51.6964 52.9375L51.4608 52.6861H35.169L34.9446 52.8993L34.6842 53.1574V55.6464L34.9446 55.9045L35.169 56.1177H51.4608L51.6852 55.8933L51.9321 55.6486V55.6531Z" fill="#FF5C8A"/>
<path d="M50.4957 52.237V49.7368L50.2713 49.5124L50.0334 49.2745H33.7326L33.5194 49.4877L33.2568 49.7458V52.237L33.5194 52.4951L33.7326 52.7083H50.0244L50.2489 52.4839L50.4957 52.2393V52.237Z" fill="#FF5C8A"/>
<path d="M49.1536 48.8036V46.3079L48.9157 46.0834L48.6778 45.8455H32.3905L32.1773 46.0587L31.917 46.3168V48.8058L32.1773 49.0617L32.3905 49.2861H48.6823L48.9067 49.0617C48.9808 48.9876 49.0549 48.9136 49.1536 48.8193V48.8036Z" fill="#FF5C8A"/>
<path d="M52.5089 45.376V42.8848L52.2733 42.6603L52.0331 42.4224H35.7459L35.5214 42.6356L35.2611 42.8937V45.3827L35.5214 45.6408L35.7459 45.854H52.0354L52.2598 45.6296L52.5067 45.385L52.5089 45.376Z" fill="#FF5C8A"/>
<path d="M49.8247 41.9514V39.4602L49.6002 39.2358L49.3534 38.9956H33.0616L32.8484 39.22L32.588 39.4781V41.9671L32.8484 42.2252L33.0616 42.4384H49.3534L49.5778 42.214L49.8224 41.9694L49.8247 41.9514Z" fill="#FF5C8A"/>
<path d="M51.3486 38.5262V36.0305L51.1107 35.806L50.8728 35.5704H34.5945L34.3701 35.7813L34.1097 36.0394V38.5239L34.3701 38.7798L34.5945 39.0042H50.8863L51.1107 38.7798C51.1848 38.7057 51.2588 38.6317 51.3576 38.5374L51.3486 38.5262Z" fill="#FF5C8A"/>
<path d="M27.6796 59.0801V56.5889L27.444 56.3644L27.2061 56.1265H10.9166L10.7033 56.351L10.443 56.6091V59.1003L10.7033 59.3562L10.9166 59.5806H27.2083L27.4328 59.3562L27.6796 59.1138V59.0801Z" fill="#FF5C8A"/>
<path d="M29.116 55.6531V53.1619L28.8916 52.9375L28.6447 52.6861H12.3552L12.1307 52.8993L11.8704 53.1574V55.6464L12.1307 55.9045L12.3552 56.1177H28.6447L28.8691 55.8933L29.116 55.6486V55.6531Z" fill="#FF5C8A"/>
<path d="M27.6796 52.237V49.7368L27.444 49.5124L27.2061 49.2745H10.9166L10.7033 49.4877C10.6225 49.5662 10.544 49.6426 10.443 49.7458V52.237L10.7033 52.4951L10.9166 52.7083H27.2083L27.4328 52.4839L27.6796 52.2393V52.237Z" fill="#FF5C8A"/>
<path d="M26.3375 48.8036V46.3079L26.0996 46.0834L25.8617 45.8455H9.57443L9.35 46.0587L9.08966 46.3168V48.8058L9.35 49.0617L9.57443 49.2861H25.8662L26.0906 49.0617L26.3375 48.8193V48.8036Z" fill="#FF5C8A"/>
<path d="M29.6928 45.376V42.8848L29.4684 42.6603L29.2283 42.4224H12.9298L12.7053 42.6356L12.445 42.8937V45.3827L12.7053 45.6408L12.9298 45.854H29.2193L29.4437 45.6296L29.6906 45.385L29.6928 45.376Z" fill="#FF5C8A"/>
<path d="M33.8426 41.9514V39.4601L33.607 39.2357C33.5352 39.1639 33.4611 39.0921 33.3691 38.9978H17.0706L16.8461 39.2222L16.5858 39.4803V41.9693C16.689 42.0703 16.7676 42.1466 16.8461 42.2274L17.0706 42.4406H33.3623L33.5868 42.2162L33.8337 41.9716L33.8426 41.9514Z" fill="#FF5C8A"/>
<path d="M35.3666 38.526V36.0348L35.1309 35.8104L34.893 35.5747H18.6035L18.3903 35.7857L18.1322 36.0303V38.5238L18.3925 38.7796L18.6169 39.0041H34.9087L35.1331 38.7796L35.38 38.5373L35.3666 38.526Z" fill="#FF5C8A"/>
<g opacity="0.25">
<path opacity="0.25" d="M27.6796 59.0805V56.5893L27.444 56.3649L27.2061 56.127H10.9165L10.7033 56.3514L10.443 56.6095V59.1007L10.7033 59.3566L10.9165 59.581H27.2083L27.4327 59.3566L27.6796 59.1142V59.0805Z" fill="#1C2D5E"/>
</g>
<g opacity="0.25">
<path opacity="0.25" d="M29.116 55.6531V53.1619L28.8916 52.9375L28.6447 52.6861H12.3552L12.1307 52.8993L11.8704 53.1574V55.6464L12.1307 55.9045L12.3552 56.1177H28.6447L28.8691 55.8933L29.116 55.6486V55.6531Z" fill="#1C2D5E"/>
</g>
<g opacity="0.1">
<path opacity="0.1" d="M27.6796 52.2368V49.7366L27.444 49.5122L27.2061 49.2743H10.9165L10.7033 49.4875C10.6225 49.5661 10.544 49.6424 10.443 49.7456V52.2368L10.7033 52.4949L10.9165 52.7082H27.2083L27.4327 52.4837L27.6796 52.2391V52.2368Z" fill="#1C2D5E"/>
</g>
<g opacity="0.25">
<path opacity="0.25" d="M26.3375 48.8036V46.3079L26.0996 46.0834L25.8617 45.8455H9.57443L9.35 46.0587L9.08966 46.3168V48.8058L9.35 49.0617L9.57443 49.2861H25.8662L26.0906 49.0617L26.3375 48.8193V48.8036Z" fill="#1C2D5E"/>
</g>
<g opacity="0.1">
<path opacity="0.1" d="M29.6928 45.376V42.8848L29.4684 42.6603L29.2282 42.4224H12.9297L12.7053 42.6356L12.4449 42.8937V45.3827L12.7053 45.6408L12.9297 45.854H29.2192L29.4437 45.6296L29.6906 45.385L29.6928 45.376Z" fill="#1C2D5E"/>
</g>
<g opacity="0.25">
<path opacity="0.25" d="M33.8426 41.9514V39.4601L33.607 39.2357C33.5352 39.1639 33.4611 39.0921 33.3691 38.9978H17.0706L16.8461 39.2222L16.5858 39.4803V41.9693C16.689 42.0703 16.7676 42.1466 16.8461 42.2274L17.0706 42.4406H33.3623L33.5868 42.2162L33.8337 41.9716L33.8426 41.9514Z" fill="#1C2D5E"/>
</g>
<g opacity="0.1">
<path opacity="0.1" d="M35.3665 38.5262V36.035L35.1309 35.8105L34.893 35.5749H18.6035L18.3902 35.7859L18.1321 36.0305V38.524L18.3925 38.7798L18.6169 39.0043H34.9087L35.1331 38.7798L35.38 38.5374L35.3665 38.5262Z" fill="#1C2D5E"/>
</g>
<g opacity="0.2">
<path opacity="0.2" d="M50.4958 59.0805V56.5893L50.2713 56.3649C50.1995 56.293 50.1255 56.2212 50.0334 56.127H33.7327L33.5195 56.3514L33.2569 56.6095V59.1007L33.5195 59.3566L33.7327 59.581H50.0245L50.2489 59.3566L50.4958 59.1142V59.0805Z" fill="#1C2D5E"/>
</g>
<g opacity="0.2">
<path opacity="0.2" d="M51.9321 55.6531V53.1619L51.6965 52.9375L51.4608 52.6861H35.169L34.9446 52.8993L34.6843 53.1574V55.6464L34.9446 55.9045L35.169 56.1177H51.4608L51.6852 55.8933L51.9321 55.6486V55.6531Z" fill="#1C2D5E"/>
</g>
<g opacity="0.3">
<path opacity="0.3" d="M50.4958 52.2368V49.7366L50.2713 49.5122L50.0334 49.2743H33.7327L33.5195 49.4875L33.2569 49.7456V52.2368L33.5195 52.4949L33.7327 52.7082H50.0245L50.2489 52.4837L50.4958 52.2391V52.2368Z" fill="#1C2D5E"/>
</g>
<g opacity="0.2">
<path opacity="0.2" d="M49.1536 48.8036V46.3079L48.9157 46.0834L48.6778 45.8455H32.3905L32.1773 46.0587L31.917 46.3168V48.8058L32.1773 49.0617L32.3905 49.2861H48.6823L48.9067 49.0617C48.9808 48.9876 49.0549 48.9136 49.1536 48.8193V48.8036Z" fill="#1C2D5E"/>
</g>
<g opacity="0.3">
<path opacity="0.3" d="M52.5089 45.376V42.8848L52.2733 42.6603L52.0331 42.4224H35.7459L35.5214 42.6356L35.2611 42.8937V45.3827L35.5214 45.6408L35.7459 45.854H52.0354L52.2598 45.6296L52.5067 45.385L52.5089 45.376Z" fill="#1C2D5E"/>
</g>
<g opacity="0.2">
<path opacity="0.2" d="M49.8247 41.9514V39.4602L49.6002 39.2358L49.3534 38.9956H33.0616L32.8484 39.22L32.588 39.4781V41.9671L32.8484 42.2252L33.0616 42.4384H49.3534L49.5778 42.214L49.8224 41.9694L49.8247 41.9514Z" fill="#1C2D5E"/>
</g>
<g opacity="0.3">
<path opacity="0.3" d="M51.3486 38.5264V36.0307L51.1107 35.8062L50.8728 35.5706H34.5945L34.3701 35.7815L34.1097 36.0396V38.5241L34.3701 38.78L34.5945 39.0044H50.8863L51.1107 38.78C51.1848 38.7059 51.2588 38.6319 51.3576 38.5376L51.3486 38.5264Z" fill="#1C2D5E"/>
</g>
<path d="M38.457 29.183V31.672L37.9835 32.1455H21.6917L21.2181 31.672V29.183L21.6917 28.7094H37.9835C38.1698 28.8957 38.2752 28.9967 38.457 29.183Z" fill="#FF5C8A"/>
<g opacity="0.3">
<path opacity="0.3" d="M38.457 29.183V31.672L37.9835 32.1455H21.6917L21.2181 31.672V29.183L21.6917 28.7094H37.9835C38.1697 28.8957 38.2752 28.9967 38.457 29.183Z" fill="white"/>
</g>
<g opacity="0.3">
<path opacity="0.3" d="M38.457 30.0788H21.2181V31.3244H38.457V30.0788Z" fill="white"/>
</g>
<g opacity="0.1">
<path opacity="0.1" d="M21.6939 32.1459H37.9812L38.4593 31.6746H21.2181L21.6939 32.1459Z" fill="#1C2D5E"/>
</g>
<g opacity="0.3">
<path opacity="0.3" d="M37.9812 28.7094H21.6939L21.2181 29.1807H38.4593L37.9812 28.7094Z" fill="white"/>
</g>
<g style="mix-blend-mode:screen" opacity="0.1">
<g style="mix-blend-mode:screen" opacity="0.1">
<path d="M32.2312 28.7094H28.9252V32.1455H32.2312V28.7094Z" fill="white"/>
</g>
</g>
<g style="mix-blend-mode:screen" opacity="0.1">
<g style="mix-blend-mode:screen" opacity="0.1">
<path d="M35.3396 28.7094H33.6878V32.1455H35.3396V28.7094Z" fill="white"/>
</g>
</g>
<path d="M41.4285 32.6085V35.0974L40.955 35.571H24.6632L24.1919 35.0974V32.6085C24.3759 32.4222 24.4792 32.3212 24.6655 32.1349H40.9572C41.1413 32.3212 41.249 32.4222 41.4285 32.6085Z" fill="#FF5C8A"/>
<g opacity="0.3">
<path opacity="0.3" d="M41.4285 32.6085V35.0974L40.955 35.571H24.6632L24.1919 35.0974V32.6085C24.3759 32.4222 24.4792 32.3212 24.6655 32.1349H40.9572C41.1413 32.3212 41.249 32.4222 41.4285 32.6085Z" fill="white"/>
</g>
<g opacity="0.3">
<path opacity="0.3" d="M41.4285 33.5038H24.1897V34.7495H41.4285V33.5038Z" fill="white"/>
</g>
<g opacity="0.1">
<path opacity="0.1" d="M24.6654 35.57H40.9527L41.4285 35.0987H24.1919L24.6654 35.57Z" fill="#1C2D5E"/>
</g>
<g opacity="0.3">
<path opacity="0.3" d="M40.9527 32.1349H24.6655L24.1874 32.6062H41.4285L40.9527 32.1349Z" fill="white"/>
</g>
<g style="mix-blend-mode:screen" opacity="0.1">
<g style="mix-blend-mode:screen" opacity="0.1">
<path d="M35.2027 32.1349H31.8968V35.571H35.2027V32.1349Z" fill="white"/>
</g>
</g>
<g style="mix-blend-mode:screen" opacity="0.1">
<g style="mix-blend-mode:screen" opacity="0.1">
<path d="M38.3089 32.1349H36.6571V35.571H38.3089V32.1349Z" fill="white"/>
</g>
</g>
<path d="M40.2794 36.0331V38.5243L39.8059 38.9956H23.5186L23.045 38.5221V36.0331L23.5186 35.5595H39.8104L40.2794 36.0331Z" fill="#FF5C8A"/>
<g opacity="0.3">
<path opacity="0.3" d="M40.2794 36.0329V38.5241L39.8059 38.9954H23.5186L23.045 38.5219V36.0329L23.5186 35.5593H39.8104L40.2794 36.0329Z" fill="white"/>
</g>
<g opacity="0.3">
<path opacity="0.3" d="M40.2794 36.9285H23.0405V38.1741H40.2794V36.9285Z" fill="white"/>
</g>
<g opacity="0.1">
<path opacity="0.1" d="M23.5186 38.9957H39.8059L40.2817 38.5244H23.0405L23.5186 38.9957Z" fill="#1C2D5E"/>
</g>
<g opacity="0.3">
<path opacity="0.3" d="M39.8036 35.5593H23.5186L23.0428 36.0306H40.2817L39.8036 35.5593Z" fill="white"/>
</g>
<g style="mix-blend-mode:screen" opacity="0.1">
<g style="mix-blend-mode:screen" opacity="0.1">
<path d="M34.0536 35.5593H30.7477V38.9954H34.0536V35.5593Z" fill="white"/>
</g>
</g>
<g style="mix-blend-mode:screen" opacity="0.1">
<g style="mix-blend-mode:screen" opacity="0.1">
<path d="M37.1598 35.5593H35.5079V38.9954H37.1598V35.5593Z" fill="white"/>
</g>
</g>
<path d="M38.7465 39.4599V41.9489L38.273 42.4224H21.9812L21.4987 41.9489V39.4599L21.9722 38.9863H38.264L38.7465 39.4599Z" fill="#FF5C8A"/>
<g opacity="0.3">
<path opacity="0.3" d="M38.7465 39.4597V41.9487L38.273 42.4223H21.9812L21.4987 41.9487V39.4597L21.9722 38.9861H38.264L38.7465 39.4597Z" fill="white"/>
</g>
<g opacity="0.3">
<path opacity="0.3" d="M38.7465 40.3551H21.5077V41.6007H38.7465V40.3551Z" fill="white"/>
</g>
<g opacity="0.1">
<path opacity="0.1" d="M21.9835 42.423H38.2707L38.7465 41.9517H21.4987L21.9835 42.423Z" fill="#1C2D5E"/>
</g>
<g opacity="0.3">
<path opacity="0.3" d="M38.2707 38.9956H21.9835L21.4987 39.4557H38.7398L38.2707 38.9956Z" fill="white"/>
</g>
<g style="mix-blend-mode:screen" opacity="0.1">
<g style="mix-blend-mode:screen" opacity="0.1">
<path d="M32.5207 38.9861H29.2148V42.4223H32.5207V38.9861Z" fill="white"/>
</g>
</g>
<g style="mix-blend-mode:screen" opacity="0.1">
<g style="mix-blend-mode:screen" opacity="0.1">
<path d="M35.6269 38.9861H33.975V42.4223H35.6269V38.9861Z" fill="white"/>
</g>
</g>
<path d="M41.4285 42.8851V45.3741L40.955 45.8477H24.6632L24.1919 45.3741V42.8851L24.6655 42.4116H40.9572L41.4285 42.8851Z" fill="#FF5C8A"/>
<g opacity="0.3">
<path opacity="0.3" d="M41.4285 42.8847V45.3737L40.955 45.8473H24.6632L24.1919 45.3737V42.8847L24.6654 42.4112H40.9572L41.4285 42.8847Z" fill="white"/>
</g>
<g opacity="0.3">
<path opacity="0.3" d="M41.4285 43.7809H24.1896V45.0266H41.4285V43.7809Z" fill="white"/>
</g>
<g opacity="0.1">
<path opacity="0.1" d="M24.6655 45.8475H40.9527L41.4285 45.3762H24.1919L24.6655 45.8475Z" fill="#1C2D5E"/>
</g>
<g opacity="0.3">
<path opacity="0.3" d="M40.9527 42.4112H24.6655L24.1874 42.8825H41.4285L40.9527 42.4112Z" fill="white"/>
</g>
<g style="mix-blend-mode:screen" opacity="0.1">
<g style="mix-blend-mode:screen" opacity="0.1">
<path d="M35.2027 42.4112H31.8968V45.8473H35.2027V42.4112Z" fill="white"/>
</g>
</g>
<g style="mix-blend-mode:screen" opacity="0.1">
<g style="mix-blend-mode:screen" opacity="0.1">
<path d="M38.3089 42.4112H36.6571V45.8473H38.3089V42.4112Z" fill="white"/>
</g>
</g>
<path d="M38.0755 46.3098V48.7988L37.5997 49.2746H21.3102L20.8366 48.7988V46.3098C21.0184 46.1235 21.1239 46.0225 21.3102 45.8362H37.5997C37.786 46.0225 37.8825 46.1235 38.0755 46.3098Z" fill="#FF5C8A"/>
<g opacity="0.3">
<path opacity="0.3" d="M38.0755 46.31V48.799L37.5997 49.2748H21.3102L20.8366 48.799V46.31C21.0184 46.1237 21.1239 46.0227 21.3102 45.8364H37.5997C37.786 46.0227 37.8825 46.1237 38.0755 46.31Z" fill="white"/>
</g>
<g opacity="0.3">
<path opacity="0.3" d="M38.0755 47.205H20.8366V48.4506H38.0755V47.205Z" fill="white"/>
</g>
<g opacity="0.1">
<path opacity="0.1" d="M21.3101 49.2722H37.5997L38.0755 48.8008H20.8254L21.3101 49.2722Z" fill="#1C2D5E"/>
</g>
<g opacity="0.3">
<path opacity="0.3" d="M37.5997 45.8364H21.3102L20.8344 46.3077H38.0755L37.5997 45.8364Z" fill="white"/>
</g>
<g style="mix-blend-mode:screen" opacity="0.1">
<g style="mix-blend-mode:screen" opacity="0.1">
<path d="M31.8474 45.8364H28.5415V49.2725H31.8474V45.8364Z" fill="white"/>
</g>
</g>
<g style="mix-blend-mode:screen" opacity="0.1">
<g style="mix-blend-mode:screen" opacity="0.1">
<path d="M34.9558 45.8364H33.304V49.2725H34.9558V45.8364Z" fill="white"/>
</g>
</g>
<path d="M39.4154 49.7366V52.2368L38.9418 52.7104H22.65L22.172 52.2368V49.7366C22.356 49.5503 22.4593 49.4493 22.6456 49.2631H38.9373C39.1281 49.4493 39.2291 49.5436 39.4154 49.7366Z" fill="#FF5C8A"/>
<g opacity="0.3">
<path opacity="0.3" d="M39.4154 49.7368V52.237L38.9418 52.7106H22.65L22.172 52.237V49.7368C22.356 49.5505 22.4593 49.4495 22.6455 49.2632H38.9373C39.1281 49.4495 39.2291 49.5438 39.4154 49.7368Z" fill="white"/>
</g>
<g opacity="0.3">
<path opacity="0.3" d="M39.4154 50.6322H22.1765V51.8778H39.4154V50.6322Z" fill="white"/>
</g>
<g opacity="0.1">
<path opacity="0.1" d="M22.6523 52.6973H38.9396L39.4176 52.2283H22.172L22.6523 52.6973Z" fill="#1C2D5E"/>
</g>
<g opacity="0.3">
<path opacity="0.3" d="M38.9396 49.2632H22.6523L22.172 49.7323H39.4131L38.9396 49.2632Z" fill="white"/>
</g>
<g style="mix-blend-mode:screen" opacity="0.1">
<g style="mix-blend-mode:screen" opacity="0.1">
<path d="M33.1895 49.2632H29.8836V52.6994H33.1895V49.2632Z" fill="white"/>
</g>
</g>
<g style="mix-blend-mode:screen" opacity="0.1">
<g style="mix-blend-mode:screen" opacity="0.1">
<path d="M36.2979 49.2632H34.6461V52.6994H36.2979V49.2632Z" fill="white"/>
</g>
</g>
<path d="M43.2689 53.1618V55.6508L42.7954 56.1244H26.4991L26.0255 55.6508V53.1618L26.4991 52.6883H42.7909L43.2689 53.1618Z" fill="#FF5C8A"/>
<g opacity="0.3">
<path opacity="0.3" d="M43.2689 53.1618V55.6508L42.7954 56.1244H26.4991L26.0255 55.6508V53.1618L26.4991 52.6883H42.7909L43.2689 53.1618Z" fill="white"/>
</g>
<g opacity="0.3">
<path opacity="0.3" d="M43.2644 54.0569H26.0255V55.3025H43.2644V54.0569Z" fill="white"/>
</g>
<g opacity="0.1">
<path opacity="0.1" d="M26.5013 56.124H42.7886L43.2667 55.6527H26.0255L26.5013 56.124Z" fill="#1C2D5E"/>
</g>
<g opacity="0.3">
<path opacity="0.3" d="M42.7886 52.6861H26.5013L26.0255 53.1574H43.2689L42.7886 52.6861Z" fill="white"/>
</g>
<g style="mix-blend-mode:screen" opacity="0.1">
<g style="mix-blend-mode:screen" opacity="0.1">
<path d="M37.0386 52.6883H33.7326V56.1244H37.0386V52.6883Z" fill="white"/>
</g>
</g>
<g style="mix-blend-mode:screen" opacity="0.1">
<g style="mix-blend-mode:screen" opacity="0.1">
<path d="M40.147 52.6883H38.4952V56.1244H40.147V52.6883Z" fill="white"/>
</g>
</g>
<path d="M39.4154 56.5865V59.0755L38.9418 59.549H22.65L22.172 59.0755V56.5865C22.356 56.4002 22.4615 56.2992 22.6456 56.1129H38.9373C39.1281 56.2992 39.2291 56.4002 39.4154 56.5865Z" fill="#FF5C8A"/>
<g opacity="0.3">
<path opacity="0.3" d="M39.4154 56.5865V59.0755L38.9418 59.549H22.65L22.172 59.0755V56.5865C22.356 56.4002 22.4615 56.2992 22.6455 56.1129H38.9373C39.1281 56.2992 39.2291 56.4002 39.4154 56.5865Z" fill="white"/>
</g>
<g opacity="0.3">
<path opacity="0.3" d="M39.4154 57.4825H22.1765V58.7281H39.4154V57.4825Z" fill="white"/>
</g>
<g opacity="0.1">
<path opacity="0.1" d="M22.6523 59.5486H38.9395L39.4176 59.0773H22.172L22.6523 59.5486Z" fill="#1C2D5E"/>
</g>
<g opacity="0.3">
<path opacity="0.3" d="M38.9396 56.1129H22.6523L22.1765 56.5842H39.4176L38.9396 56.1129Z" fill="white"/>
</g>
<g style="mix-blend-mode:screen" opacity="0.1">
<g style="mix-blend-mode:screen" opacity="0.1">
<path d="M33.1895 56.1129H29.8836V59.549H33.1895V56.1129Z" fill="white"/>
</g>
</g>
<g style="mix-blend-mode:screen" opacity="0.1">
<g style="mix-blend-mode:screen" opacity="0.1">
<path d="M36.2979 56.1129H34.6461V59.549H36.2979V56.1129Z" fill="white"/>
</g>
</g>
<path d="M18.4261 46.3098V48.7988L17.9526 49.2746H1.66082L1.18726 48.7988V46.3098L1.66082 45.8362H17.9526L18.4261 46.3098Z" fill="#FF5C8A"/>
<g opacity="0.3">
<path opacity="0.3" d="M18.4262 46.31V48.799L17.9526 49.2748H1.66085L1.18729 48.799V46.31L1.66085 45.8364H17.9526L18.4262 46.31Z" fill="white"/>
</g>
<g opacity="0.3">
<path opacity="0.3" d="M18.4262 47.205H1.18729V48.4506H18.4262V47.205Z" fill="white"/>
</g>
<g opacity="0.1">
<path opacity="0.1" d="M1.66307 49.2722H17.9504L18.4262 48.8008H1.18502L1.66307 49.2722Z" fill="#1C2D5E"/>
</g>
<g opacity="0.3">
<path opacity="0.3" d="M17.9504 45.8364H1.66307L1.18502 46.3077H18.4262L17.9504 45.8364Z" fill="white"/>
</g>
<g style="mix-blend-mode:screen" opacity="0.1">
<g style="mix-blend-mode:screen" opacity="0.1">
<path d="M12.2003 45.8364H8.89439V49.2725H12.2003V45.8364Z" fill="white"/>
</g>
</g>
<g style="mix-blend-mode:screen" opacity="0.1">
<g style="mix-blend-mode:screen" opacity="0.1">
<path d="M15.3065 45.8364H13.6547V49.2725H15.3065V45.8364Z" fill="white"/>
</g>
</g>
<path d="M19.766 49.7366V52.2368L19.2925 52.7104H3.00297L2.52941 52.2368V49.7366C2.7112 49.5503 2.81668 49.4493 3.00297 49.2631H19.2925C19.4788 49.4493 19.5843 49.5436 19.766 49.7366Z" fill="#FF5C8A"/>
<g opacity="0.3">
<path opacity="0.3" d="M19.766 49.7368V52.237L19.2925 52.7106H3.00295L2.52939 52.237V49.7368C2.71118 49.5505 2.81667 49.4495 3.00295 49.2632H19.2925C19.4788 49.4495 19.5842 49.5438 19.766 49.7368Z" fill="white"/>
</g>
<g opacity="0.3">
<path opacity="0.3" d="M19.7683 50.6322H2.52939V51.8778H19.7683V50.6322Z" fill="white"/>
</g>
<g opacity="0.1">
<path opacity="0.1" d="M3.00296 52.6973H19.2925L19.7683 52.2283H2.52715L3.00296 52.6973Z" fill="#1C2D5E"/>
</g>
<g opacity="0.3">
<path opacity="0.3" d="M19.2925 49.2632H3.00296L2.52715 49.7323H19.7683C19.582 49.5438 19.4788 49.4473 19.2925 49.2632Z" fill="white"/>
</g>
<g style="mix-blend-mode:screen" opacity="0.1">
<g style="mix-blend-mode:screen" opacity="0.1">
<path d="M13.5402 49.2632H10.2343V52.6994H13.5402V49.2632Z" fill="white"/>
</g>
</g>
<g style="mix-blend-mode:screen" opacity="0.1">
<g style="mix-blend-mode:screen" opacity="0.1">
<path d="M16.6486 49.2632H14.9968V52.6994H16.6486V49.2632Z" fill="white"/>
</g>
</g>
<path d="M21.0902 53.1618V55.6508L20.6167 56.1244H4.32488L3.85133 55.6508V53.1618L4.32488 52.6883H20.6167L21.0902 53.1618Z" fill="#FF5C8A"/>
<g opacity="0.3">
<path opacity="0.3" d="M21.0902 53.1618V55.6508L20.6167 56.1244H4.3249L3.85134 55.6508V53.1618L4.3249 52.6883H20.6167L21.0902 53.1618Z" fill="white"/>
</g>
<g opacity="0.3">
<path opacity="0.3" d="M21.0902 54.0569H3.85134V55.3025H21.0902V54.0569Z" fill="white"/>
</g>
<g opacity="0.1">
<path opacity="0.1" d="M4.32712 56.124H20.6144L21.0902 55.6527H3.84907L4.32712 56.124Z" fill="#1C2D5E"/>
</g>
<g opacity="0.3">
<path opacity="0.3" d="M20.6144 52.6861H4.32712L3.84907 53.1574H21.0902L20.6144 52.6861Z" fill="white"/>
</g>
<g style="mix-blend-mode:screen" opacity="0.1">
<g style="mix-blend-mode:screen" opacity="0.1">
<path d="M14.8644 52.6883H11.5584V56.1244H14.8644V52.6883Z" fill="white"/>
</g>
</g>
<g style="mix-blend-mode:screen" opacity="0.1">
<g style="mix-blend-mode:screen" opacity="0.1">
<path d="M17.9705 52.6883H16.3187V56.1244H17.9705V52.6883Z" fill="white"/>
</g>
</g>
<path d="M17.2344 56.5865V59.0755L16.7608 59.549H0.475813L0.00225449 59.0755V56.5865L0.475813 56.1129H16.7676L17.2344 56.5865Z" fill="#FF5C8A"/>
<g opacity="0.3">
<path opacity="0.3" d="M17.2344 56.5865V59.0755L16.7608 59.549H0.475802L0.00224304 59.0755V56.5865L0.475802 56.1129H16.7676L17.2344 56.5865Z" fill="white"/>
</g>
<g opacity="0.3">
<path opacity="0.3" d="M17.2411 57.4825H0.00225449V58.7281H17.2411V57.4825Z" fill="white"/>
</g>
<g opacity="0.1">
<path opacity="0.1" d="M0.478041 59.5486H16.7653L17.2411 59.0773H-3.8147e-06L0.478041 59.5486Z" fill="#1C2D5E"/>
</g>
<g opacity="0.3">
<path opacity="0.3" d="M16.7653 56.1129H0.47806L1.52588e-05 56.5842H17.2344L16.7653 56.1129Z" fill="white"/>
</g>
<g style="mix-blend-mode:screen" opacity="0.1">
<g style="mix-blend-mode:screen" opacity="0.1">
<path d="M11.0153 56.1129H7.70937V59.549H11.0153V56.1129Z" fill="white"/>
</g>
</g>
<g style="mix-blend-mode:screen" opacity="0.1">
<g style="mix-blend-mode:screen" opacity="0.1">
<path d="M14.1215 56.1129H12.4696V59.549H14.1215V56.1129Z" fill="white"/>
</g>
</g>
<path d="M61.318 39.4599V41.9489L60.8445 42.4224H44.5527L44.0791 41.9489V39.4599L44.5527 38.9863H60.8445L61.318 39.4599Z" fill="#FF5C8A"/>
<g opacity="0.3">
<path opacity="0.3" d="M61.318 39.4597V41.9487L60.8445 42.4223H44.5527L44.0791 41.9487V39.4597L44.5527 38.9861H60.8445L61.318 39.4597Z" fill="white"/>
</g>
<g opacity="0.3">
<path opacity="0.3" d="M61.318 40.3551H44.0791V41.6007H61.318V40.3551Z" fill="white"/>
</g>
<g opacity="0.1">
<path opacity="0.1" d="M44.555 42.423H60.8422L61.318 41.9517H44.0791L44.555 42.423Z" fill="#1C2D5E"/>
</g>
<g opacity="0.3">
<path opacity="0.3" d="M60.8422 38.9956H44.555L44.0791 39.4647H61.318L60.8422 38.9956Z" fill="white"/>
</g>
<g style="mix-blend-mode:screen" opacity="0.1">
<g style="mix-blend-mode:screen" opacity="0.1">
<path d="M55.0922 38.9861H51.7862V42.4223H55.0922V38.9861Z" fill="white"/>
</g>
</g>
<g style="mix-blend-mode:screen" opacity="0.1">
<g style="mix-blend-mode:screen" opacity="0.1">
<path d="M58.1984 38.9861H56.5465V42.4223H58.1984V38.9861Z" fill="white"/>
</g>
</g>
<path d="M64 42.8851V45.3741L63.5265 45.8477H47.2347L46.7611 45.3741V42.8851L47.2347 42.4116H63.5265L64 42.8851Z" fill="#FF5C8A"/>
<g opacity="0.3">
<path opacity="0.3" d="M64 42.8847V45.3737L63.5265 45.8473H47.2347L46.7611 45.3737V42.8847L47.2347 42.4112H63.5265L64 42.8847Z" fill="white"/>
</g>
<g opacity="0.3">
<path opacity="0.3" d="M64 43.7809H46.7611V45.0266H64V43.7809Z" fill="white"/>
</g>
<g opacity="0.1">
<path opacity="0.1" d="M47.2369 45.8475H63.5242L64 45.3762H46.7611L47.2369 45.8475Z" fill="#1C2D5E"/>
</g>
<g opacity="0.3">
<path opacity="0.3" d="M63.5242 42.4112H47.2369L46.7611 42.8825H64L63.5242 42.4112Z" fill="white"/>
</g>
<g style="mix-blend-mode:screen" opacity="0.1">
<g style="mix-blend-mode:screen" opacity="0.1">
<path d="M57.7741 42.4112H54.4682V45.8473H57.7741V42.4112Z" fill="white"/>
</g>
</g>
<g style="mix-blend-mode:screen" opacity="0.1">
<g style="mix-blend-mode:screen" opacity="0.1">
<path d="M60.8803 42.4112H59.2285V45.8473H60.8803V42.4112Z" fill="white"/>
</g>
</g>
<path d="M60.6469 46.3098V48.7988L60.1711 49.2746H43.8816L43.4081 48.7988V46.3098C43.5899 46.1235 43.6953 46.0225 43.8816 45.8362H60.1711C60.3574 46.0225 60.4629 46.1235 60.6469 46.3098Z" fill="#FF5C8A"/>
<g opacity="0.3">
<path opacity="0.3" d="M60.6469 46.31V48.799L60.1711 49.2748H43.8816L43.4081 48.799V46.31C43.5899 46.1237 43.6953 46.0227 43.8816 45.8364H60.1711C60.3574 46.0227 60.4629 46.1237 60.6469 46.31Z" fill="white"/>
</g>
<g opacity="0.3">
<path opacity="0.3" d="M60.6469 47.205H43.4081V48.4506H60.6469V47.205Z" fill="white"/>
</g>
<g opacity="0.1">
<path opacity="0.1" d="M43.8816 49.2722H60.1711L60.6469 48.8008H43.4058L43.8816 49.2722Z" fill="#1C2D5E"/>
</g>
<g opacity="0.3">
<path opacity="0.3" d="M60.1711 45.8364H43.8816L43.4058 46.3077H60.6469L60.1711 45.8364Z" fill="white"/>
</g>
<g style="mix-blend-mode:screen" opacity="0.1">
<g style="mix-blend-mode:screen" opacity="0.1">
<path d="M54.4188 45.8364H51.1129V49.2725H54.4188V45.8364Z" fill="white"/>
</g>
</g>
<g style="mix-blend-mode:screen" opacity="0.1">
<g style="mix-blend-mode:screen" opacity="0.1">
<path d="M57.5273 45.8364H55.8755V49.2725H57.5273V45.8364Z" fill="white"/>
</g>
</g>
<path d="M61.9868 49.7366V52.2368L61.5133 52.7104H45.2215L44.748 52.2368V49.7366L45.2215 49.2631H61.5133C61.6996 49.4493 61.805 49.5436 61.9868 49.7366Z" fill="#FF5C8A"/>
<g opacity="0.3">
<path opacity="0.3" d="M61.9868 49.7368V52.237L61.5133 52.7106H45.2215L44.748 52.237V49.7368L45.2215 49.2632H61.5133C61.6996 49.4495 61.805 49.5438 61.9868 49.7368Z" fill="white"/>
</g>
<g opacity="0.3">
<path opacity="0.3" d="M61.9868 50.6322H44.748V51.8778H61.9868V50.6322Z" fill="white"/>
</g>
<g opacity="0.1">
<path opacity="0.1" d="M45.2238 52.6973H61.511L61.9891 52.2283H44.748L45.2238 52.6973Z" fill="#1C2D5E"/>
</g>
<g opacity="0.3">
<path opacity="0.3" d="M61.511 49.2632H45.2238L44.748 49.7323H61.9891L61.511 49.2632Z" fill="white"/>
</g>
<g style="mix-blend-mode:screen" opacity="0.1">
<g style="mix-blend-mode:screen" opacity="0.1">
<path d="M55.761 49.2632H52.4551V52.6994H55.761V49.2632Z" fill="white"/>
</g>
</g>
<g style="mix-blend-mode:screen" opacity="0.1">
<g style="mix-blend-mode:screen" opacity="0.1">
<path d="M58.8694 49.2632H57.2176V52.6994H58.8694V49.2632Z" fill="white"/>
</g>
</g>
<path d="M63.4434 53.1618V55.6508L62.9699 56.1244H46.6803L46.2045 55.6508V53.1618C46.3886 52.9756 46.4941 52.8746 46.6803 52.6883H62.9699C63.1561 52.8746 63.2616 52.9756 63.4434 53.1618Z" fill="#FF5C8A"/>
<g opacity="0.3">
<path opacity="0.3" d="M63.4434 53.1618V55.6508L62.9698 56.1244H46.6803L46.2045 55.6508V53.1618C46.3885 52.9756 46.494 52.8746 46.6803 52.6883H62.9698C63.1561 52.8746 63.2616 52.9756 63.4434 53.1618Z" fill="white"/>
</g>
<g opacity="0.3">
<path opacity="0.3" d="M63.4434 54.0569H46.2045V55.3025H63.4434V54.0569Z" fill="white"/>
</g>
<g opacity="0.1">
<path opacity="0.1" d="M46.6803 56.124H62.9676L63.4456 55.6527H46.2045L46.6803 56.124Z" fill="#1C2D5E"/>
</g>
<g opacity="0.3">
<path opacity="0.3" d="M62.9676 52.6861H46.6803L46.2045 53.1574H63.4456L62.9676 52.6861Z" fill="white"/>
</g>
<g style="mix-blend-mode:screen" opacity="0.1">
<g style="mix-blend-mode:screen" opacity="0.1">
<path d="M57.2176 52.6883H53.9117V56.1244H57.2176V52.6883Z" fill="white"/>
</g>
</g>
<g style="mix-blend-mode:screen" opacity="0.1">
<g style="mix-blend-mode:screen" opacity="0.1">
<path d="M60.326 52.6883H58.6742V56.1244H60.326V52.6883Z" fill="white"/>
</g>
</g>
<path d="M61.9868 56.5865V59.0755L61.5133 59.549H45.2238L44.748 59.0755V56.5865C44.932 56.4002 45.0375 56.2992 45.2238 56.1129H61.5133C61.6996 56.2992 61.805 56.4002 61.9868 56.5865Z" fill="#FF5C8A"/>
<g opacity="0.3">
<path opacity="0.3" d="M61.9868 56.5865V59.0755L61.5133 59.549H45.2238L44.748 59.0755V56.5865C44.932 56.4002 45.0375 56.2992 45.2238 56.1129H61.5133C61.6996 56.2992 61.805 56.4002 61.9868 56.5865Z" fill="white"/>
</g>
<g opacity="0.3">
<path opacity="0.3" d="M61.9868 57.4825H44.748V58.7281H61.9868V57.4825Z" fill="white"/>
</g>
<g opacity="0.1">
<path opacity="0.1" d="M45.2238 59.5486H61.511L61.9891 59.0773H44.748L45.2238 59.5486Z" fill="#1C2D5E"/>
</g>
<g opacity="0.3">
<path opacity="0.3" d="M61.511 56.1129H45.2238L44.748 56.5842H61.9891L61.511 56.1129Z" fill="white"/>
</g>
<g style="mix-blend-mode:screen" opacity="0.1">
<g style="mix-blend-mode:screen" opacity="0.1">
<path d="M55.761 56.1129H52.4551V59.549H55.761V56.1129Z" fill="white"/>
</g>
</g>
<g style="mix-blend-mode:screen" opacity="0.1">
<g style="mix-blend-mode:screen" opacity="0.1">
<path d="M58.8694 56.1129H57.2176V59.549H58.8694V56.1129Z" fill="white"/>
</g>
</g>
<path d="M50.103 29.7352C50.103 29.7352 49.5352 30.7518 50.4441 32.1366C50.9805 32.9536 51.7144 33.187 52.161 32.8952C52.6077 32.6034 52.693 31.8381 52.161 31.0189C51.2656 29.6274 50.103 29.7352 50.103 29.7352Z" fill="#FF5C8A"/>
<path opacity="0.2" d="M50.103 29.7352C50.103 29.7352 49.5352 30.7518 50.4441 32.1366C50.9805 32.9536 51.7144 33.187 52.161 32.8952C52.6077 32.6034 52.693 31.8381 52.161 31.0189C51.2656 29.6274 50.103 29.7352 50.103 29.7352Z" fill="white"/>
<path d="M58.1557 24.8985C58.1557 24.8985 56.1874 24.4631 54.3403 26.6513C53.2541 27.9418 53.2316 29.2727 53.9341 29.8697C54.6366 30.4667 55.954 30.2266 57.0425 28.9451C58.9076 26.7681 58.1557 24.8985 58.1557 24.8985Z" fill="#FF5C8A"/>
<path d="M55.5725 16.2108C55.5725 16.2108 55.1348 16.3319 54.9979 16.9649C54.9171 17.3374 55.054 17.6067 55.256 17.6382C55.458 17.6696 55.7049 17.4968 55.7812 17.1242C55.8297 16.967 55.836 16.7998 55.7994 16.6395C55.7627 16.4791 55.6845 16.3312 55.5725 16.2108Z" fill="#FF5C8A"/>
<path d="M52.0892 35.6894C51.837 34.7938 51.719 33.8658 51.7391 32.9356C51.7588 32.0332 51.8907 31.1368 52.1319 30.267C52.2508 29.8406 52.39 29.4209 52.5493 29.0124C52.6279 28.8082 52.7109 28.6085 52.8007 28.4087C52.8433 28.3077 52.8904 28.2112 52.9353 28.1125L53.0027 27.9688L53.0677 27.8297C53.4201 27.0913 53.7545 26.3484 54.0553 25.5853C54.3591 24.8343 54.6235 24.0679 54.8475 23.2893C55.0711 22.512 55.2273 21.7168 55.3143 20.9126C55.4034 20.108 55.3777 19.2949 55.238 18.4976C55.0956 17.6897 54.7902 16.9192 54.3403 16.2331C54.8767 16.8785 55.2768 17.626 55.5163 18.4303C55.7527 19.245 55.8728 20.089 55.8732 20.9373C55.8767 21.7848 55.8069 22.6311 55.6645 23.4666C55.5238 24.2989 55.3388 25.123 55.1101 25.9354C54.8857 26.7479 54.6276 27.5491 54.3538 28.3414L54.3021 28.4895L54.2775 28.5636L54.255 28.6331C54.2236 28.7252 54.1899 28.8194 54.163 28.9137C54.1046 29.1 54.0485 29.2885 53.9992 29.477C53.9004 29.8518 53.8196 30.2311 53.759 30.6104C53.6392 31.3523 53.612 32.1062 53.6782 32.8548C53.7445 33.5788 53.9177 34.289 54.1922 34.9622L52.0892 35.6894Z" fill="#FF5C8A"/>
<path opacity="0.2" d="M52.0892 35.6894C51.837 34.7938 51.719 33.8658 51.7391 32.9356C51.7588 32.0332 51.8907 31.1368 52.1319 30.267C52.2508 29.8406 52.39 29.4209 52.5493 29.0124C52.6279 28.8082 52.7109 28.6085 52.8007 28.4087C52.8433 28.3077 52.8904 28.2112 52.9353 28.1125L53.0027 27.9688L53.0677 27.8297C53.4201 27.0913 53.7545 26.3484 54.0553 25.5853C54.3591 24.8343 54.6235 24.0679 54.8475 23.2893C55.0711 22.512 55.2273 21.7168 55.3143 20.9126C55.4034 20.108 55.3777 19.2949 55.238 18.4976C55.0956 17.6897 54.7902 16.9192 54.3403 16.2331C54.8767 16.8785 55.2768 17.626 55.5163 18.4303C55.7527 19.245 55.8728 20.089 55.8732 20.9373C55.8767 21.7848 55.8069 22.6311 55.6645 23.4666C55.5238 24.2989 55.3388 25.123 55.1101 25.9354C54.8857 26.7479 54.6276 27.5491 54.3538 28.3414L54.3021 28.4895L54.2775 28.5636L54.255 28.6331C54.2236 28.7252 54.1899 28.8194 54.163 28.9137C54.1046 29.1 54.0485 29.2885 53.9992 29.477C53.9004 29.8518 53.8196 30.2311 53.759 30.6104C53.6392 31.3523 53.612 32.1062 53.6782 32.8548C53.7445 33.5788 53.9177 34.289 54.1922 34.9622L52.0892 35.6894Z" fill="#1C2D5E"/>
<path d="M56.2435 33.5348L56.1807 34.2238L55.7812 38.7125C55.7735 38.7883 55.7381 38.8586 55.6817 38.91C55.6254 38.9613 55.5522 38.9901 55.476 38.9908H50.388C50.3115 38.9911 50.2377 38.9627 50.1812 38.9111C50.1246 38.8596 50.0895 38.7887 50.0828 38.7125L49.681 34.2238L49.6204 33.5348H56.2435Z" fill="#FF5C8A"/>
<path d="M56.1681 36.025L56.0244 37.6323L56.0847 37.6377L56.2284 36.0304L56.1681 36.025Z" fill="#FF5C8A"/>
<path d="M56.2454 35.1723L56.2114 35.5524L56.2718 35.5578L56.3057 35.1777L56.2454 35.1723Z" fill="#FF5C8A"/>
<path d="M53.1261 20.4772C53.1261 20.4772 52.3316 21.5366 53.1419 23.2333C53.6199 24.2343 54.4099 24.6068 54.9575 24.3555C55.5052 24.1041 55.7184 23.249 55.2471 22.2435C54.4481 20.5356 53.1261 20.4772 53.1261 20.4772Z" fill="#FF5C8A"/>
<path opacity="0.2" d="M53.1261 20.4772C53.1261 20.4772 52.3316 21.5366 53.1419 23.2333C53.6199 24.2343 54.4099 24.6068 54.9575 24.3555C55.5052 24.1041 55.7184 23.249 55.2471 22.2435C54.4481 20.5356 53.1261 20.4772 53.1261 20.4772Z" fill="#1C2D5E"/>
<path opacity="0.2" d="M56.2435 33.5348L56.1807 34.2238H49.681L49.6204 33.5348H56.2435Z" fill="#1C2D5E"/>
<path d="M56.6363 32.6843H49.2254C49.1461 32.6843 49.0818 32.7486 49.0818 32.8279V33.7346C49.0818 33.814 49.1461 33.8783 49.2254 33.8783H56.6363C56.7156 33.8783 56.7799 33.814 56.7799 33.7346V32.8279C56.7799 32.7486 56.7156 32.6843 56.6363 32.6843Z" fill="#FF5C8A"/>
<path d="M59.5104 22.7797C60.5751 21.9785 60.7888 20.4659 59.9876 19.4012C59.1864 18.3364 57.6738 18.1228 56.6091 18.9239C55.5443 19.7251 55.3307 21.2377 56.1319 22.3024C56.933 23.3672 58.4456 23.5808 59.5104 22.7797Z" fill="#FF5C8A"/>
<path opacity="0.1" d="M59.9938 21.4444C60.0751 21.1238 60.0745 20.7879 59.9921 20.4675C59.9098 20.1472 59.7483 19.8526 59.5225 19.611C59.2967 19.3693 59.0138 19.1881 58.6998 19.0842C58.3857 18.9803 58.0507 18.9569 57.7253 19.0162C57.3998 19.0755 57.0945 19.2156 56.8374 19.4236C56.5802 19.6316 56.3793 19.9009 56.2533 20.2067C56.1273 20.5125 56.08 20.8451 56.116 21.1739C56.1519 21.5027 56.2698 21.8172 56.459 22.0886C56.2481 21.814 56.1113 21.4898 56.0618 21.1472C56.0122 20.8045 56.0516 20.4549 56.176 20.1319C56.3005 19.8088 56.5059 19.5232 56.7726 19.3024C57.0392 19.0816 57.3582 18.933 57.6988 18.8709C58.0394 18.8089 58.3902 18.8354 58.7176 18.9479C59.045 19.0605 59.338 19.2553 59.5684 19.5137C59.7988 19.7721 59.959 20.0854 60.0335 20.4235C60.108 20.7616 60.0943 21.1131 59.9938 21.4444Z" fill="#1C2D5E"/>
<path d="M58.8021 21.1952L58.562 21.7136C58.5525 21.733 58.5393 21.7503 58.5231 21.7645C58.5069 21.7788 58.4881 21.7897 58.4677 21.7966C58.4479 21.8056 58.4265 21.8102 58.4048 21.8102C58.3832 21.8102 58.3618 21.8056 58.342 21.7966L57.8931 21.5857L57.7226 21.9448C57.7032 21.9849 57.6687 22.0157 57.6266 22.0305C57.5845 22.0452 57.5383 22.0426 57.4981 22.0233C57.4585 22.0043 57.4279 21.9704 57.4128 21.9291C57.4044 21.9092 57.4001 21.8878 57.4001 21.8662C57.4001 21.8446 57.4044 21.8233 57.4128 21.8034L57.5834 21.4398L57.1345 21.2311C57.1153 21.222 57.098 21.2093 57.0837 21.1935C57.0694 21.1777 57.0585 21.1592 57.0515 21.139C57.0431 21.1192 57.0388 21.0978 57.0388 21.0762C57.0388 21.0546 57.0431 21.0332 57.0515 21.0134C57.0605 20.9941 57.0733 20.9768 57.0891 20.9625C57.1049 20.9483 57.1234 20.9373 57.1435 20.9303C57.1633 20.9214 57.1847 20.9168 57.2064 20.9168C57.228 20.9168 57.2495 20.9214 57.2692 20.9303L58.3106 21.4218L58.4116 21.2086L57.3724 20.7193C57.3523 20.71 57.3343 20.6967 57.3195 20.6802C57.3047 20.6638 57.2934 20.6444 57.2863 20.6235C57.2791 20.6025 57.2763 20.5803 57.278 20.5582C57.2797 20.5361 57.2859 20.5146 57.2961 20.4949L57.534 19.9877C57.5431 19.9678 57.5561 19.9499 57.5723 19.9352C57.5885 19.9206 57.6076 19.9094 57.6283 19.9024C57.6477 19.8935 57.6687 19.8889 57.69 19.8889C57.7113 19.8889 57.7324 19.8935 57.7517 19.9024L58.2006 20.1111L58.3712 19.752C58.3794 19.7323 58.3916 19.7146 58.407 19.6999C58.4225 19.6852 58.4409 19.6739 58.461 19.6667C58.4818 19.6575 58.5044 19.6528 58.5272 19.6528C58.55 19.6528 58.5725 19.6575 58.5934 19.6667C58.6125 19.6756 58.6296 19.6883 58.6436 19.7042C58.6575 19.72 58.6679 19.7386 58.6742 19.7588C58.683 19.7781 58.6876 19.7992 58.6876 19.8205C58.6876 19.8418 58.683 19.8628 58.6742 19.8822L58.5058 20.2435L58.9547 20.468C58.9952 20.487 59.0267 20.5212 59.0422 20.5632C59.0577 20.6052 59.0561 20.6516 59.0378 20.6924C59.0282 20.7123 59.0147 20.7301 58.9981 20.7448C58.9815 20.7594 58.9622 20.7706 58.9412 20.7777C58.9214 20.7861 58.9 20.7904 58.8784 20.7904C58.8568 20.7904 58.8354 20.7861 58.8156 20.7777L57.7742 20.2839L57.6732 20.4949L58.7123 20.9864C58.7321 20.9951 58.7499 21.0077 58.7645 21.0236C58.7792 21.0394 58.7905 21.0581 58.7976 21.0784C58.8136 21.1154 58.8152 21.1571 58.8021 21.1952Z" fill="#FAFAFA"/>
<path d="M52.7594 28.8754C53.527 28.2979 53.681 27.2074 53.1034 26.4398C52.5258 25.6722 51.4353 25.5181 50.6678 26.0957C49.9002 26.6733 49.7461 27.7638 50.3237 28.5314C50.9013 29.299 51.9918 29.453 52.7594 28.8754Z" fill="#FF5C8A"/>
<path opacity="0.1" d="M53.1104 27.9128C53.1693 27.6814 53.1691 27.4389 53.1098 27.2076C53.0505 26.9763 52.9341 26.7636 52.7711 26.589C52.6082 26.4144 52.404 26.2836 52.1773 26.2085C51.9506 26.1334 51.7087 26.1165 51.4738 26.1593C51.2389 26.2022 51.0184 26.3033 50.8328 26.4535C50.6472 26.6037 50.5022 26.7982 50.4114 27.019C50.3205 27.2398 50.2865 27.4799 50.3126 27.7173C50.3388 27.9547 50.4241 28.1817 50.5608 28.3774C50.4068 28.1791 50.3064 27.9445 50.2695 27.6961C50.2325 27.4477 50.2602 27.194 50.3498 26.9595C50.4394 26.7249 50.588 26.5174 50.7812 26.357C50.9744 26.1966 51.2056 26.0886 51.4527 26.0436C51.6997 25.9986 51.9542 26.018 52.1916 26.1C52.4289 26.182 52.6411 26.3237 52.8077 26.5116C52.9744 26.6995 53.0897 26.9271 53.1427 27.1725C53.1958 27.418 53.1846 27.673 53.1104 27.9128Z" fill="#1C2D5E"/>
<path d="M52.2463 27.7333L52.0735 28.1014C52.067 28.1153 52.0576 28.1276 52.046 28.1377C52.0344 28.1477 52.0208 28.1553 52.0062 28.1597C51.9916 28.1659 51.976 28.169 51.9602 28.169C51.9444 28.169 51.9287 28.1659 51.9142 28.1597L51.5955 27.9982L51.472 28.2585C51.4656 28.2727 51.4563 28.2855 51.4447 28.2959C51.4331 28.3063 51.4195 28.3142 51.4047 28.3191C51.3758 28.3304 51.3438 28.3304 51.3149 28.3191C51.287 28.3043 51.2649 28.2806 51.2521 28.2518C51.246 28.2372 51.2428 28.2216 51.2428 28.2058C51.2428 28.19 51.246 28.1743 51.2521 28.1597L51.3755 27.8994L51.0546 27.7468C51.0406 27.7405 51.0281 27.7315 51.0177 27.7204C51.0073 27.7092 50.9992 27.696 50.994 27.6817C50.9879 27.6675 50.9848 27.6522 50.9848 27.6368C50.9848 27.6214 50.9879 27.6061 50.994 27.5919C51 27.5772 51.0091 27.564 51.0207 27.5531C51.0324 27.5423 51.0462 27.5341 51.0613 27.5291C51.0755 27.523 51.0908 27.5199 51.1062 27.5199C51.1216 27.5199 51.1369 27.523 51.1511 27.5291L51.9029 27.8837L51.9748 27.7288L51.2251 27.3765C51.2109 27.3701 51.1982 27.3608 51.1877 27.3492C51.1773 27.3376 51.1694 27.324 51.1645 27.3091C51.1585 27.2949 51.1554 27.2797 51.1554 27.2643C51.1554 27.2488 51.1585 27.2336 51.1645 27.2194L51.3374 26.8535C51.3509 26.8252 51.3751 26.8035 51.4047 26.7929C51.4189 26.7869 51.4341 26.7838 51.4496 26.7838C51.465 26.7838 51.4803 26.7869 51.4945 26.7929L51.8132 26.9433L51.9366 26.683C51.9425 26.6688 51.9514 26.6561 51.9626 26.6456C51.9738 26.6352 51.9871 26.6273 52.0017 26.6224C52.0165 26.6158 52.0326 26.6124 52.0488 26.6124C52.065 26.6124 52.0811 26.6158 52.0959 26.6224C52.1235 26.6359 52.1446 26.6598 52.1547 26.6887C52.1647 26.7177 52.163 26.7495 52.1498 26.7772L52.0286 27.0376L52.3541 27.1924C52.3685 27.1988 52.3816 27.2081 52.3924 27.2196C52.4032 27.2312 52.4115 27.2449 52.4169 27.2598C52.4222 27.2743 52.4246 27.2898 52.4238 27.3053C52.4231 27.3208 52.4192 27.336 52.4125 27.35C52.4059 27.364 52.3965 27.3766 52.3849 27.3869C52.3733 27.3972 52.3598 27.4051 52.3451 27.4101C52.3306 27.4168 52.3149 27.4202 52.2991 27.4202C52.2832 27.4202 52.2675 27.4168 52.2531 27.4101L51.5012 27.0555L51.4294 27.2081L52.179 27.5627C52.1932 27.5691 52.2059 27.5784 52.2164 27.59C52.2268 27.6016 52.2347 27.6153 52.2396 27.6301C52.2495 27.6453 52.2553 27.6627 52.2565 27.6808C52.2577 27.6989 52.2542 27.717 52.2463 27.7333Z" fill="#FAFAFA"/>
<path d="M26.6607 16.3806C26.6607 16.3806 25.6597 18.01 27.0557 20.3442C27.8771 21.7199 29.0756 22.1396 29.8185 21.7042C30.5614 21.2688 30.7611 20.0097 29.9487 18.6272C28.5617 16.2841 26.6607 16.3806 26.6607 16.3806Z" fill="#FF5C8A"/>
<path opacity="0.2" d="M26.6607 16.3806C26.6607 16.3806 25.6597 18.01 27.0557 20.3442C27.8771 21.7199 29.0756 22.1396 29.8185 21.7042C30.5614 21.2688 30.7611 20.0097 29.9487 18.6272C28.5617 16.2841 26.6607 16.3806 26.6607 16.3806Z" fill="white"/>
<path d="M36.39 12.0626C36.39 12.0626 33.9795 11.5284 31.7217 14.2104C30.3886 15.7927 30.3616 17.4243 31.2235 18.156C32.0853 18.8877 33.6923 18.6049 35.0389 17.0203C37.3124 14.3518 36.39 12.0626 36.39 12.0626Z" fill="#FF5C8A"/>
<path d="M33.5329 0.225647C33.5329 0.225647 32.7721 0.436617 32.5342 1.53411C32.395 2.18048 32.6329 2.64506 32.983 2.72361C33.3332 2.80217 33.7461 2.47674 33.8808 1.82587C34.1366 0.735116 33.5329 0.225647 33.5329 0.225647Z" fill="#FF5C8A"/>
<path d="M29.0891 24.7137C28.7808 23.6188 28.6356 22.4844 28.6582 21.3472C28.6825 20.2406 28.8446 19.1414 29.1407 18.0749C29.2843 17.552 29.4572 17.038 29.6502 16.5375C29.7474 16.2877 29.8507 16.0408 29.9599 15.7969C30.0115 15.6735 30.0699 15.5545 30.1237 15.4333L30.2068 15.2583L30.2876 15.0877C30.7185 14.1899 31.127 13.272 31.4973 12.3496C31.8709 11.4288 32.1945 10.4885 32.4668 9.53291C32.7427 8.579 32.9342 7.60269 33.0391 6.61525C33.1496 5.62921 33.1194 4.63248 32.9494 3.65494C32.7684 2.66342 32.3865 1.7194 31.8272 0.88092C32.4852 1.67165 32.9754 2.58797 33.2681 3.57415C33.5582 4.57176 33.7056 5.60546 33.7057 6.64442C33.7093 7.68299 33.6237 8.71995 33.4499 9.74388C33.2797 10.7651 33.055 11.7766 32.7766 12.7738C32.5027 13.768 32.1863 14.751 31.8519 15.7206L31.789 15.9024L31.7576 15.9922L31.7284 16.0797C31.6903 16.1941 31.6499 16.3041 31.6162 16.4231C31.5444 16.6475 31.4771 16.8719 31.4165 17.1121C31.2936 17.5703 31.1955 18.0348 31.1225 18.5036C30.9747 19.4161 30.9415 20.3434 31.0237 21.2641C31.1036 22.1517 31.3154 23.0224 31.6521 23.8474L29.0891 24.7137Z" fill="#FF5C8A"/>
<path opacity="0.2" d="M29.0891 24.7137C28.7808 23.6188 28.6356 22.4844 28.6582 21.3472C28.6825 20.2406 28.8446 19.1414 29.1407 18.0749C29.2843 17.552 29.4572 17.038 29.6502 16.5375C29.7474 16.2877 29.8507 16.0408 29.9599 15.7969C30.0115 15.6735 30.0699 15.5545 30.1237 15.4333L30.2068 15.2583L30.2876 15.0877C30.7185 14.1899 31.127 13.272 31.4973 12.3496C31.8709 11.4288 32.1945 10.4885 32.4668 9.53291C32.7427 8.579 32.9342 7.60269 33.0391 6.61525C33.1496 5.62921 33.1194 4.63248 32.9494 3.65494C32.7684 2.66342 32.3865 1.7194 31.8272 0.88092C32.4852 1.67165 32.9754 2.58797 33.2681 3.57415C33.5582 4.57176 33.7056 5.60546 33.7057 6.64442C33.7093 7.68299 33.6237 8.71995 33.4499 9.74388C33.2797 10.7651 33.055 11.7766 32.7766 12.7738C32.5027 13.768 32.1863 14.751 31.8519 15.7206L31.789 15.9024L31.7576 15.9922L31.7284 16.0797C31.6903 16.1941 31.6499 16.3041 31.6162 16.4231C31.5444 16.6475 31.4771 16.8719 31.4165 17.1121C31.2936 17.5703 31.1955 18.0348 31.1225 18.5036C30.9747 19.4161 30.9415 20.3434 31.0237 21.2641C31.1036 22.1517 31.3154 23.0224 31.6521 23.8474L29.0891 24.7137Z" fill="#1C2D5E"/>
<path d="M34.1793 22.0744L34.103 22.9183L33.6182 28.408C33.6098 28.501 33.5669 28.5876 33.498 28.6507C33.4291 28.7138 33.3391 28.7489 33.2456 28.7491H27.0041C26.9102 28.7495 26.8197 28.7147 26.7503 28.6515C26.6809 28.5883 26.6377 28.5014 26.6293 28.408L26.1378 22.9183L26.0614 22.0744H34.1793Z" fill="#FF5C8A"/>
<path d="M34.0897 25.125L33.9134 27.0967L33.9871 27.1033L34.1634 25.1316L34.0897 25.125Z" fill="#FF5C8A"/>
<path d="M34.1828 24.0854L34.1412 24.5504L34.2149 24.557L34.2565 24.092L34.1828 24.0854Z" fill="#FF5C8A"/>
<path d="M30.9721 2.72333C30.9721 2.72333 30.1596 3.80286 30.9878 5.5355C31.4748 6.55893 32.2828 6.94047 32.8417 6.67564C33.4005 6.4108 33.6182 5.55346 33.1379 4.51881C32.321 2.78168 30.9721 2.72333 30.9721 2.72333Z" fill="#FF5C8A"/>
<path opacity="0.2" d="M30.9721 2.72333C30.9721 2.72333 30.1596 3.80286 30.9878 5.5355C31.4748 6.55893 32.2828 6.94047 32.8417 6.67564C33.4005 6.4108 33.6182 5.55346 33.1379 4.51881C32.321 2.78168 30.9721 2.72333 30.9721 2.72333Z" fill="#1C2D5E"/>
<path opacity="0.2" d="M34.1793 22.0744L34.103 22.9183H26.1378L26.0614 22.0744H34.1793Z" fill="#1C2D5E"/>
<path d="M34.6596 21.0308H25.5789C25.481 21.0308 25.4016 21.1101 25.4016 21.2081V22.319C25.4016 22.4169 25.481 22.4963 25.5789 22.4963H34.6596C34.7575 22.4963 34.8369 22.4169 34.8369 22.319V21.2081C34.8369 21.1101 34.7575 21.0308 34.6596 21.0308Z" fill="#FF5C8A"/>
<path d="M38.2275 9.60867C39.5329 8.6264 39.7949 6.77186 38.8126 5.46645C37.8304 4.16104 35.9758 3.89909 34.6704 4.88136C33.365 5.86363 33.1031 7.71815 34.0853 9.02356C35.0676 10.329 36.9221 10.5909 38.2275 9.60867Z" fill="#FF5C8A"/>
<path opacity="0.1" d="M38.8206 7.97337C38.9207 7.58009 38.9204 7.16796 38.8197 6.77484C38.719 6.38172 38.521 6.02021 38.2441 5.72354C37.9672 5.42687 37.6202 5.20455 37.2349 5.077C36.8497 4.94945 36.4386 4.92077 36.0393 4.99358C35.6401 5.06639 35.2655 5.23837 34.9501 5.49371C34.6347 5.74906 34.3885 6.07958 34.2341 6.4549C34.0798 6.83022 34.0223 7.23832 34.0668 7.64169C34.1113 8.04506 34.2565 8.43077 34.489 8.76339C34.2273 8.42654 34.0567 8.02791 33.9939 7.60597C33.9311 7.18403 33.978 6.75301 34.1303 6.3545C34.2825 5.95599 34.5349 5.60345 34.863 5.33087C35.1912 5.05829 35.584 4.87488 36.0037 4.79834C36.4234 4.7218 36.8557 4.7547 37.2589 4.89389C37.6622 5.03307 38.0228 5.27383 38.3059 5.59294C38.589 5.91204 38.7851 6.29873 38.8753 6.71569C38.9654 7.13265 38.9466 7.5658 38.8206 7.97337Z" fill="#1C2D5E"/>
<path d="M37.3595 7.66812L37.0655 8.2943C37.0418 8.34149 37.0008 8.37769 36.9511 8.39529C36.9262 8.40579 36.8995 8.41119 36.8725 8.41119C36.8455 8.41119 36.8188 8.40579 36.7939 8.39529L36.2441 8.13495L36.0376 8.58382C36.0263 8.60748 36.0103 8.62861 35.9906 8.64597C35.971 8.66332 35.948 8.67653 35.9231 8.68481C35.8991 8.69532 35.8731 8.70074 35.8468 8.70074C35.8206 8.70074 35.7946 8.69532 35.7705 8.68481C35.746 8.67399 35.724 8.65824 35.7059 8.63855C35.6877 8.61886 35.6738 8.59565 35.665 8.57035C35.654 8.54644 35.6482 8.5204 35.6482 8.49405C35.6482 8.46769 35.654 8.44165 35.665 8.41774L35.8738 7.96886L35.3284 7.71077C35.2928 7.69381 35.2631 7.66672 35.2429 7.63292C35.2227 7.59911 35.213 7.56009 35.2149 7.52075C35.2168 7.48142 35.2303 7.44353 35.2537 7.41185C35.2771 7.38017 35.3093 7.35611 35.3463 7.34269C35.3703 7.33163 35.3963 7.3259 35.4226 7.3259C35.449 7.3259 35.475 7.33163 35.499 7.34269L36.776 7.94642L36.8994 7.68608L35.6381 7.07337C35.614 7.06289 35.5924 7.04749 35.5746 7.02816C35.5569 7.00884 35.5433 6.98602 35.5349 6.96115C35.5238 6.93723 35.5181 6.91119 35.5181 6.88484C35.5181 6.85849 35.5238 6.83245 35.5349 6.80853L35.8289 6.1846C35.8398 6.16045 35.8557 6.13883 35.8754 6.12106C35.895 6.1033 35.9182 6.08979 35.9433 6.08137C35.9922 6.06117 36.0471 6.06117 36.096 6.08137L36.6368 6.33722L36.8456 5.88835C36.8559 5.86457 36.871 5.84315 36.8899 5.8254C36.9088 5.80765 36.9312 5.79394 36.9555 5.78511C36.9817 5.77531 37.0097 5.77124 37.0376 5.77317C37.0654 5.77511 37.0926 5.78301 37.1171 5.79633C37.1409 5.80695 37.1621 5.82242 37.1795 5.84175C37.1969 5.86108 37.2101 5.88383 37.2181 5.90855C37.2383 5.95742 37.2383 6.0123 37.2181 6.06116L37.0094 6.51003L37.5638 6.77262C37.5882 6.78356 37.6101 6.79935 37.6283 6.81903C37.6464 6.8387 37.6603 6.86186 37.6692 6.88709C37.6797 6.91116 37.6852 6.93713 37.6852 6.9634C37.6852 6.98966 37.6797 7.01563 37.6692 7.0397C37.6583 7.06412 37.6425 7.08607 37.6228 7.1042C37.6032 7.12233 37.58 7.13628 37.5548 7.14519C37.5044 7.16541 37.4481 7.16541 37.3977 7.14519L36.1206 6.54146L35.9994 6.79956L37.272 7.40104C37.2964 7.41198 37.3184 7.42777 37.3365 7.44745C37.3546 7.46712 37.3686 7.49028 37.3775 7.51551C37.3852 7.5408 37.3876 7.56743 37.3845 7.5937C37.3815 7.61998 37.3729 7.64532 37.3595 7.66812Z" fill="#FAFAFA"/>
<path d="M30.7666 13.4819C32.0721 12.4996 32.334 10.6451 31.3517 9.33969C30.3695 8.03428 28.5149 7.77232 27.2095 8.75459C25.9041 9.73686 25.6422 11.5914 26.6244 12.8968C27.6067 14.2022 29.4612 14.4642 30.7666 13.4819Z" fill="#FF5C8A"/>
<path opacity="0.1" d="M31.3604 11.8382C31.4602 11.4449 31.4596 11.0328 31.3586 10.6398C31.2576 10.2468 31.0595 9.88545 30.7825 9.58897C30.5054 9.2925 30.1583 9.0704 29.773 8.94307C29.3877 8.81575 28.9766 8.78728 28.5774 8.86029C28.1783 8.9333 27.8039 9.10544 27.4886 9.3609C27.1733 9.61636 26.9273 9.94694 26.7731 10.3223C26.6189 10.6976 26.5615 11.1057 26.6062 11.509C26.6509 11.9123 26.7962 12.298 27.0288 12.6305C26.7659 12.2936 26.5943 11.8946 26.5307 11.4721C26.467 11.0495 26.5134 10.6177 26.6654 10.2184C26.8174 9.81898 27.0698 9.46556 27.3983 9.19223C27.7267 8.91891 28.1201 8.73492 28.5404 8.65804C28.9608 8.58116 29.3938 8.61398 29.7978 8.75335C30.2017 8.89272 30.5629 9.13392 30.8464 9.45364C31.1299 9.77336 31.3261 10.1608 31.4162 10.5785C31.5062 10.9962 31.487 11.4301 31.3604 11.8382Z" fill="#1C2D5E"/>
<path d="M29.8993 11.5418L29.603 12.168C29.5919 12.1918 29.576 12.2131 29.5564 12.2305C29.5367 12.2478 29.5136 12.261 29.4886 12.269C29.4641 12.2796 29.4378 12.285 29.4111 12.285C29.3845 12.285 29.3582 12.2796 29.3337 12.269L28.7838 12.0109L28.5751 12.4598C28.5641 12.4835 28.5484 12.5047 28.529 12.5223C28.5097 12.5399 28.487 12.5535 28.4624 12.5623C28.4378 12.571 28.4116 12.5748 28.3855 12.5734C28.3594 12.572 28.3338 12.5654 28.3103 12.554C28.2854 12.5438 28.2631 12.5283 28.2449 12.5085C28.2266 12.4887 28.213 12.4652 28.2048 12.4396C28.1937 12.4157 28.188 12.3896 28.188 12.3633C28.188 12.3369 28.1937 12.3109 28.2048 12.287L28.4135 11.8381L27.8682 11.58C27.8443 11.5692 27.8229 11.5537 27.8051 11.5344C27.7874 11.5151 27.7737 11.4924 27.7649 11.4678C27.7447 11.4189 27.7447 11.364 27.7649 11.3152C27.7878 11.2672 27.8286 11.2301 27.8786 11.212C27.9286 11.194 27.9837 11.1964 28.032 11.2187L29.309 11.8224L29.4302 11.562L28.1711 10.9403C28.1473 10.9295 28.1259 10.914 28.1081 10.8947C28.0904 10.8755 28.0767 10.8528 28.0679 10.8281C28.0574 10.8041 28.052 10.7781 28.052 10.7518C28.052 10.7256 28.0574 10.6996 28.0679 10.6755L28.3619 10.0516C28.373 10.0276 28.3887 10.0061 28.4082 9.9883C28.4278 9.97051 28.4506 9.95682 28.4755 9.94803C28.5004 9.93924 28.5269 9.93554 28.5532 9.93713C28.5796 9.93873 28.6053 9.94559 28.629 9.95732L29.1699 10.2109L29.3786 9.76206C29.389 9.73828 29.404 9.71686 29.423 9.69911C29.4419 9.68136 29.4642 9.66765 29.4886 9.65882C29.514 9.64743 29.5415 9.64154 29.5694 9.64154C29.5972 9.64154 29.6248 9.64743 29.6502 9.65882C29.6972 9.68157 29.7335 9.72186 29.7512 9.77104C29.7617 9.79511 29.7671 9.82109 29.7671 9.84735C29.7671 9.87361 29.7617 9.89959 29.7512 9.92366L29.5447 10.3725L30.099 10.6351C30.123 10.6464 30.1444 10.6623 30.1621 10.682C30.1799 10.7016 30.1935 10.7246 30.2023 10.7496C30.2129 10.7736 30.2184 10.7996 30.2184 10.8259C30.2184 10.8522 30.2129 10.8782 30.2023 10.9022C30.1912 10.9269 30.1751 10.9491 30.155 10.9672C30.1349 10.9854 30.1113 10.9992 30.0856 11.0077C30.036 11.028 29.9803 11.028 29.9307 11.0077L28.6537 10.4039L28.5325 10.662L29.805 11.2635C29.8294 11.2741 29.8512 11.2898 29.869 11.3096C29.8869 11.3293 29.9002 11.3527 29.9083 11.378C29.9191 11.4043 29.9239 11.4326 29.9223 11.4609C29.9207 11.4893 29.9129 11.5169 29.8993 11.5418Z" fill="#FAFAFA"/>
<path d="M8.79115 37.4916C8.79115 37.4916 7.95849 38.1649 8.26822 39.6709C8.45001 40.5552 9.00212 41.0041 9.48466 40.9075C9.96719 40.811 10.3016 40.1804 10.1243 39.2939C9.82804 37.7924 8.79115 37.4916 8.79115 37.4916Z" fill="#FF5C8A"/>
<path opacity="0.2" d="M8.79115 37.4916C8.79115 37.4916 7.95849 38.1649 8.26822 39.6709C8.45001 40.5552 9.00212 41.0041 9.48466 40.9075C9.96719 40.811 10.3016 40.1804 10.1243 39.2939C9.82804 37.7924 8.79115 37.4916 8.79115 37.4916Z" fill="white"/>
<path d="M13.9734 34.4773C13.9734 34.4773 12.5774 34.1676 11.2801 35.7207C10.5103 36.6364 10.4946 37.579 10.9929 38.001C11.4911 38.4229 12.418 38.2546 13.1946 37.3456C14.5053 35.8037 13.9734 34.4773 13.9734 34.4773Z" fill="#FF5C8A"/>
<path d="M12.4786 28.5348C12.4786 28.5348 12.0141 28.6627 11.8682 29.3338C11.7829 29.731 11.9288 30.0071 12.1442 30.0632C12.3597 30.1193 12.6111 29.9128 12.6986 29.5178C12.849 28.8467 12.4786 28.5348 12.4786 28.5348Z" fill="#FF5C8A"/>
<path d="M9.32531 42.9879C9.12935 42.29 9.03709 41.567 9.0515 40.8423C9.06689 40.1387 9.17018 39.4397 9.35898 38.7618C9.45014 38.4311 9.55801 38.1052 9.68217 37.7855C9.74501 37.6254 9.8101 37.4683 9.87743 37.3142C9.91109 37.2356 9.94925 37.1593 9.98291 37.0897L10.0368 36.9775L10.0884 36.8698C10.36 36.2952 10.6203 35.7162 10.856 35.1281C11.094 34.5412 11.3 33.9419 11.4732 33.3327C11.6477 32.7271 11.7693 32.1076 11.8367 31.4811C11.9071 30.8546 11.8875 30.2212 11.7784 29.6003C11.6653 28.9703 11.4248 28.37 11.0714 27.8362C11.4901 28.3388 11.8017 28.9215 11.9871 29.5487C12.1718 30.1831 12.2655 30.8405 12.2654 31.5013C12.2689 32.1616 12.2148 32.8209 12.1038 33.4718C11.9933 34.1201 11.8487 34.7621 11.6707 35.3952C11.4956 36.0281 11.2959 36.6521 11.0826 37.2693L11.0422 37.386L11.022 37.4421L11.0041 37.4982C10.9817 37.57 10.9547 37.6418 10.9323 37.7226C10.8874 37.8685 10.8447 38.0144 10.8066 38.1603C10.7288 38.4516 10.6658 38.7468 10.6181 39.0445C10.5243 39.6247 10.5039 40.2144 10.5575 40.7996C10.6077 41.3642 10.7424 41.9179 10.957 42.4425L9.32531 42.9879Z" fill="#FF5C8A"/>
<path opacity="0.2" d="M9.32531 42.9879C9.12935 42.29 9.03709 41.567 9.0515 40.8423C9.06689 40.1387 9.17018 39.4397 9.35898 38.7618C9.45014 38.4311 9.55801 38.1052 9.68217 37.7855C9.74501 37.6254 9.8101 37.4683 9.87743 37.3142C9.91109 37.2356 9.94925 37.1593 9.98291 37.0897L10.0368 36.9775L10.0884 36.8698C10.36 36.2952 10.6203 35.7162 10.856 35.1281C11.094 34.5412 11.3 33.9419 11.4732 33.3327C11.6477 32.7271 11.7693 32.1076 11.8367 31.4811C11.9071 30.8546 11.8875 30.2212 11.7784 29.6003C11.6653 28.9703 11.4248 28.37 11.0714 27.8362C11.4901 28.3388 11.8017 28.9215 11.9871 29.5487C12.1718 30.1831 12.2655 30.8405 12.2654 31.5013C12.2689 32.1616 12.2148 32.8209 12.1038 33.4718C11.9933 34.1201 11.8487 34.7621 11.6707 35.3952C11.4956 36.0281 11.2959 36.6521 11.0826 37.2693L11.0422 37.386L11.022 37.4421L11.0041 37.4982C10.9817 37.57 10.9547 37.6418 10.9323 37.7226C10.8874 37.8685 10.8447 38.0144 10.8066 38.1603C10.7288 38.4516 10.6658 38.7468 10.6181 39.0445C10.5243 39.6247 10.5039 40.2144 10.5575 40.7996C10.6077 41.3642 10.7424 41.9179 10.957 42.4425L9.32531 42.9879Z" fill="#1C2D5E"/>
<path d="M13.6098 40.3842L13.5492 41.0732L13.1474 45.5619C13.1407 45.6381 13.1056 45.709 13.0491 45.7606C12.9925 45.8121 12.9187 45.8405 12.8422 45.8402H7.75427C7.67806 45.8395 7.6048 45.8108 7.54849 45.7594C7.49217 45.7081 7.45676 45.6378 7.44903 45.5619L7.04954 41.0732L6.9867 40.3842H13.6098Z" fill="#FF5C8A"/>
<path d="M13.5366 42.8734L13.3929 44.4807L13.4533 44.4861L13.597 42.8788L13.5366 42.8734Z" fill="#FF5C8A"/>
<path d="M13.6137 42.0229L13.5798 42.403L13.6401 42.4084L13.6741 42.0283L13.6137 42.0229Z" fill="#FF5C8A"/>
<path d="M9.91557 29.8676C9.91557 29.8676 9.19738 30.826 9.93128 32.3633C10.3644 33.2611 11.0804 33.609 11.5741 33.3733C12.0679 33.1376 12.2632 32.3723 11.8367 31.4611C11.1141 29.9192 9.91557 29.8676 9.91557 29.8676Z" fill="#FF5C8A"/>
<path opacity="0.2" d="M9.91557 29.8676C9.91557 29.8676 9.19738 30.826 9.93128 32.3633C10.3644 33.2611 11.0804 33.609 11.5741 33.3733C12.0679 33.1376 12.2632 32.3723 11.8367 31.4611C11.1141 29.9192 9.91557 29.8676 9.91557 29.8676Z" fill="#1C2D5E"/>
<path opacity="0.2" d="M13.6098 40.3842L13.5492 41.0732H7.04954L6.9867 40.3842H13.6098Z" fill="#1C2D5E"/>
<path d="M14.0026 39.5337H6.59169C6.51236 39.5337 6.44806 39.598 6.44806 39.6773V40.584C6.44806 40.6634 6.51236 40.7277 6.59169 40.7277H14.0026C14.0819 40.7277 14.1462 40.6634 14.1462 40.584V39.6773C14.1462 39.598 14.0819 39.5337 14.0026 39.5337Z" fill="#FF5C8A"/>
<path d="M13.1766 33.3035C13.7741 33.3035 14.2584 32.8191 14.2584 32.2217C14.2584 31.6242 13.7741 31.1399 13.1766 31.1399C12.5792 31.1399 12.0948 31.6242 12.0948 32.2217C12.0948 32.8191 12.5792 33.3035 13.1766 33.3035Z" fill="#FF5C8A"/>
<path opacity="0.1" d="M14.0452 32.4866C14.0821 32.3426 14.0821 32.1916 14.0453 32.0475C14.0085 31.9035 13.9361 31.771 13.8347 31.6622C13.7333 31.5535 13.6062 31.472 13.465 31.4253C13.3239 31.3785 13.1733 31.3681 13.027 31.3948C12.8807 31.4215 12.7436 31.4846 12.6281 31.5782C12.5126 31.6718 12.4225 31.793 12.3661 31.9306C12.3097 32.0681 12.2888 32.2177 12.3053 32.3654C12.3219 32.5132 12.3753 32.6544 12.4607 32.7761C12.3698 32.6536 12.3116 32.5099 12.2916 32.3587C12.2717 32.2074 12.2906 32.0536 12.3466 31.9116C12.4026 31.7697 12.4938 31.6444 12.6117 31.5476C12.7296 31.4507 12.8702 31.3855 13.0203 31.3581C13.1704 31.3306 13.325 31.3419 13.4695 31.3908C13.614 31.4397 13.7437 31.5247 13.8462 31.6376C13.9488 31.7506 14.0209 31.8878 14.0557 32.0363C14.0905 32.1849 14.0869 32.3398 14.0452 32.4866Z" fill="#1C2D5E"/>
<path d="M13.511 32.3794L13.4033 32.6038C13.399 32.6124 13.3931 32.6201 13.3857 32.6262C13.3784 32.6324 13.3699 32.637 13.3607 32.6397C13.3518 32.6436 13.3423 32.6456 13.3326 32.6456C13.3229 32.6456 13.3134 32.6436 13.3045 32.6397L13.1026 32.5455L13.0262 32.7048C13.0225 32.714 13.0167 32.7222 13.0093 32.7288C13.002 32.7354 12.9931 32.7403 12.9836 32.743C12.9751 32.7468 12.966 32.7488 12.9567 32.7488C12.9474 32.7488 12.9382 32.7468 12.9297 32.743C12.9203 32.7392 12.9118 32.7335 12.9048 32.7261C12.8978 32.7188 12.8926 32.7099 12.8893 32.7003C12.8826 32.6822 12.8826 32.6623 12.8893 32.6442L12.9701 32.4871L12.7704 32.3928C12.7529 32.3848 12.7392 32.3704 12.7322 32.3524C12.7283 32.3436 12.7263 32.3341 12.7263 32.3244C12.7263 32.3147 12.7283 32.3052 12.7322 32.2963C12.736 32.2871 12.7417 32.2789 12.7491 32.2723C12.7565 32.2657 12.7653 32.2609 12.7749 32.2582C12.7833 32.2543 12.7925 32.2524 12.8018 32.2524C12.8111 32.2524 12.8203 32.2543 12.8287 32.2582L13.2978 32.4826L13.3427 32.3884L12.8759 32.1639C12.8584 32.1559 12.8447 32.1414 12.8377 32.1235C12.8338 32.1147 12.8318 32.1051 12.8318 32.0955C12.8318 32.0858 12.8338 32.0763 12.8377 32.0674L12.9454 31.843C12.9491 31.8341 12.9546 31.8261 12.9615 31.8195C12.9685 31.813 12.9768 31.8079 12.9858 31.8048C12.9947 31.8009 13.0042 31.7989 13.0139 31.7989C13.0236 31.7989 13.0331 31.8009 13.042 31.8048L13.2395 31.8968L13.3158 31.7352C13.3246 31.7189 13.3389 31.7062 13.3562 31.6993C13.3653 31.695 13.3752 31.6927 13.3853 31.6927C13.3954 31.6927 13.4054 31.695 13.4145 31.6993C13.4235 31.7035 13.4315 31.7094 13.438 31.7167C13.4446 31.724 13.4496 31.7326 13.4527 31.742C13.4594 31.7601 13.4594 31.78 13.4527 31.7981L13.3764 31.9574L13.5784 32.054C13.5873 32.0581 13.5953 32.064 13.6019 32.0713C13.6084 32.0786 13.6134 32.0873 13.6165 32.0966C13.6204 32.1054 13.6224 32.115 13.6224 32.1246C13.6224 32.1343 13.6204 32.1439 13.6165 32.1527C13.6076 32.1703 13.5924 32.1839 13.5739 32.1909C13.5558 32.1976 13.5359 32.1976 13.5178 32.1909L13.0509 31.9664L13.006 32.0607L13.4706 32.2851C13.4798 32.2889 13.488 32.2946 13.4946 32.302C13.5013 32.3094 13.5061 32.3182 13.5088 32.3278C13.5161 32.344 13.5169 32.3625 13.511 32.3794Z" fill="#FAFAFA"/>
<path d="M9.61933 36.5693C10.2168 36.5693 10.7011 36.085 10.7011 35.4875C10.7011 34.8901 10.2168 34.4058 9.61933 34.4058C9.02188 34.4058 8.53755 34.8901 8.53755 35.4875C8.53755 36.085 9.02188 36.5693 9.61933 36.5693Z" fill="#FF5C8A"/>
<path opacity="0.1" d="M10.4856 35.7562C10.5225 35.6122 10.5225 35.4612 10.4857 35.3172C10.449 35.1731 10.3765 35.0406 10.2751 34.9319C10.1737 34.8232 10.0466 34.7417 9.90547 34.6949C9.76433 34.6482 9.6137 34.6377 9.46744 34.6644C9.32119 34.6912 9.184 34.7542 9.06851 34.8479C8.95301 34.9415 8.86292 35.0627 8.80652 35.2002C8.75013 35.3378 8.72923 35.4873 8.74577 35.6351C8.7623 35.7828 8.81572 35.9241 8.90113 36.0458C8.81022 35.9232 8.75204 35.7796 8.73207 35.6283C8.71211 35.4771 8.73102 35.3232 8.78703 35.1813C8.84303 35.0394 8.93428 34.9141 9.05216 34.8172C9.17003 34.7204 9.31065 34.6551 9.46073 34.6277C9.61081 34.6003 9.76541 34.6116 9.90992 34.6605C10.0544 34.7094 10.1841 34.7943 10.2867 34.9073C10.3892 35.0202 10.4613 35.1574 10.4962 35.306C10.531 35.4545 10.5273 35.6095 10.4856 35.7562Z" fill="#1C2D5E"/>
<path d="M9.9515 35.6445L9.84377 35.8689C9.83965 35.8779 9.83374 35.8859 9.82641 35.8925C9.81907 35.899 9.81047 35.904 9.80112 35.9071C9.79228 35.911 9.78273 35.913 9.77307 35.913C9.76341 35.913 9.75386 35.911 9.74502 35.9071L9.54302 35.8128L9.46671 35.9744C9.46308 35.9833 9.4576 35.9913 9.45064 35.9979C9.44367 36.0045 9.43538 36.0095 9.42632 36.0126C9.40821 36.0193 9.38831 36.0193 9.37021 36.0126C9.35273 36.0046 9.33904 35.9901 9.33205 35.9722C9.32816 35.9633 9.32615 35.9538 9.32615 35.9441C9.32615 35.9345 9.32816 35.9249 9.33205 35.9161L9.40836 35.7522L9.20861 35.658C9.20024 35.654 9.19274 35.6483 9.18657 35.6414C9.18041 35.6345 9.17569 35.6264 9.1727 35.6176C9.16818 35.6089 9.16582 35.5993 9.16582 35.5895C9.16582 35.5798 9.16818 35.5701 9.1727 35.5615C9.18071 35.544 9.19519 35.5303 9.2131 35.5233C9.2312 35.5166 9.25111 35.5166 9.26921 35.5233L9.73604 35.7478L9.78092 35.6512L9.31634 35.4268C9.29886 35.4188 9.28518 35.4043 9.27819 35.3864C9.27429 35.3776 9.27228 35.368 9.27228 35.3584C9.27228 35.3487 9.27429 35.3391 9.27819 35.3303L9.38592 35.1059C9.39017 35.0973 9.39615 35.0896 9.40349 35.0835C9.41082 35.0773 9.41936 35.0727 9.42856 35.07C9.43702 35.0661 9.4462 35.0641 9.45549 35.0641C9.46478 35.0641 9.47397 35.0661 9.48243 35.07L9.68217 35.1642L9.75848 35.0026C9.76184 34.9936 9.76723 34.9855 9.77423 34.9788C9.78124 34.9722 9.78967 34.9673 9.79888 34.9645C9.80798 34.9601 9.81795 34.9578 9.82806 34.9578C9.83816 34.9578 9.84813 34.9601 9.85723 34.9645C9.86576 34.9682 9.87338 34.9738 9.87958 34.9808C9.88577 34.9877 9.8904 34.996 9.89314 35.0049C9.89704 35.0137 9.89905 35.0233 9.89905 35.0329C9.89905 35.0426 9.89704 35.0521 9.89314 35.061L9.81683 35.2226L10.0211 35.3168C10.0387 35.3257 10.0523 35.341 10.0592 35.3595C10.0631 35.3683 10.0651 35.3779 10.0651 35.3875C10.0651 35.3972 10.0631 35.4067 10.0592 35.4156C10.0551 35.4245 10.0492 35.4325 10.0419 35.4391C10.0345 35.4457 10.0259 35.4506 10.0166 35.4537C9.9979 35.4615 9.97691 35.4615 9.95823 35.4537L9.4914 35.2293L9.44876 35.3236L9.91334 35.548C9.92221 35.5516 9.9302 35.5571 9.93678 35.5641C9.94336 35.5711 9.94838 35.5793 9.9515 35.5884C9.95539 35.5972 9.9574 35.6068 9.9574 35.6165C9.9574 35.6261 9.95539 35.6357 9.9515 35.6445Z" fill="#FAFAFA"/>
</svg>
