<svg width="329" height="329" viewBox="0 0 329 329" fill="none" xmlns="http://www.w3.org/2000/svg">
<path d="M140.796 102.787C139.346 106.309 130.812 106.067 121.87 102.38C112.929 98.6931 106.848 92.8482 108.298 89.3254C108.639 88.512 109.61 85.4616 110.581 85.0418C113.913 83.6314 120.257 86.7999 127.125 89.6338C133.521 92.2578 140.835 93.9699 141.97 97.4402C142.652 99.5525 141.209 101.783 140.796 102.787Z" fill="#FF5C8A"/>
<path opacity="0.2" d="M141.97 97.4384C142.515 100.2 141.314 101.525 140.796 102.785C140.278 104.044 138.762 104.871 136.644 105.16C136.379 105.205 136.111 105.235 135.843 105.251C134.218 105.347 132.588 105.261 130.982 104.996C130.753 104.996 130.523 104.923 130.287 104.884C128.402 104.546 126.545 104.068 124.731 103.454L124.075 103.231C123.346 102.975 122.599 102.693 121.851 102.385C121.103 102.076 120.394 101.729 119.693 101.42L119.089 101.132C117.435 100.314 115.842 99.3801 114.32 98.3371L113.782 97.9567C112.454 97.0177 111.237 95.9305 110.154 94.716C109.99 94.5323 109.839 94.3552 109.695 94.1715C108.285 92.3872 107.727 90.6816 108.285 89.3237C108.652 88.4512 109.439 85.4664 110.568 85.0335C111.955 84.6425 113.424 84.6425 114.812 85.0335L115.468 85.1909C118.748 86.0306 122.881 87.9002 127.099 89.6386C132.071 91.6919 137.956 93.8239 140.842 96.2839C141.014 96.4284 141.178 96.5817 141.334 96.7431C141.564 96.9575 141.777 97.19 141.97 97.4384Z" fill="black"/>
<g opacity="0.2">
<path opacity="0.2" d="M115.796 84.6274L115.494 85.1784L110.167 94.7101C110.003 94.5264 109.852 94.3493 109.708 94.1656L114.825 85.021L115.225 84.3125L115.796 84.6274Z" fill="black"/>
</g>
<g opacity="0.2">
<path opacity="0.2" d="M119.823 88.5186L114.332 98.3586L113.794 97.9781L119.252 88.2168L119.823 88.5186Z" fill="black"/>
</g>
<g opacity="0.2">
<path opacity="0.2" d="M129.92 94.1602L124.731 103.456L124.075 103.233L129.323 93.8125L129.92 94.1602Z" fill="black"/>
</g>
<g opacity="0.2">
<path opacity="0.2" d="M125.222 91.5352L119.705 101.421L119.102 101.132L124.651 91.1875L125.222 91.5352Z" fill="black"/>
</g>
<g opacity="0.2">
<path opacity="0.2" d="M136.039 95.9569L130.981 104.997C130.752 104.997 130.522 104.924 130.286 104.885L135.462 95.6289L136.039 95.9569Z" fill="black"/>
</g>
<path d="M141.931 99.7155C140.481 103.238 132.052 103.101 123.104 99.4072C114.156 95.7139 108.082 89.8755 109.538 86.3528C110.994 82.8301 119.417 82.9744 128.365 86.6611C137.313 90.3479 143.381 96.1731 141.931 99.7155Z" fill="#FF5C8A"/>
<path opacity="0.2" d="M138.887 98.4366C137.863 100.923 131.29 100.575 124.212 97.656C117.134 94.7368 112.227 90.3481 113.25 87.8619C114.274 85.3756 120.847 85.7233 127.931 88.6425C135.016 91.5617 139.917 95.9504 138.887 98.4366Z" fill="white"/>
<path d="M186.007 70.9433C188.342 73.9544 183.895 81.2425 176.239 87.1662C168.584 93.0899 160.495 95.4515 158.166 92.4142C157.629 91.7189 155.451 89.3901 155.582 88.3011C156.021 84.7128 161.919 80.7899 167.797 76.2373C173.268 71.9995 178.378 66.5022 181.953 67.2435C184.124 67.7224 185.345 70.0905 186.007 70.9433Z" fill="#FF5C8A"/>
<path opacity="0.2" d="M181.954 67.2695C184.623 68.1748 185.174 69.8935 186.008 70.9431C186.841 71.9927 186.808 73.7443 186.008 75.7319C185.916 75.9747 185.804 76.2174 185.686 76.4666C184.967 77.925 184.087 79.2981 183.062 80.5601C182.924 80.7438 182.774 80.9209 182.623 81.1046C181.389 82.5759 180.047 83.953 178.608 85.2242L178.103 85.6638C177.519 86.1689 176.902 86.674 176.266 87.166C175.63 87.658 174.993 88.1238 174.35 88.5633C174.173 88.6945 173.983 88.8191 173.806 88.9438C172.273 89.9719 170.668 90.8883 169.004 91.6858C168.801 91.7908 168.604 91.8761 168.414 91.9679C166.935 92.652 165.383 93.167 163.789 93.503C163.553 93.5554 163.323 93.5948 163.093 93.6276C160.843 93.9622 159.085 93.6276 158.187 92.4402C157.609 91.6924 155.412 89.521 155.602 88.3337C155.945 86.9301 156.675 85.6506 157.708 84.6404C157.852 84.4764 158.009 84.3124 158.173 84.1418C160.542 81.6884 164.209 79.0578 167.817 76.2698C172.074 72.9899 176.85 68.9292 180.412 67.6566C180.627 67.5776 180.846 67.5097 181.068 67.4532C181.358 67.3705 181.654 67.3091 181.954 67.2695Z" fill="black"/>
<g opacity="0.2">
<path opacity="0.2" d="M157.826 83.6035L158.154 84.1414L163.769 93.5025C163.533 93.555 163.303 93.5944 163.074 93.6272L157.688 84.6269L157.268 83.9709L157.826 83.6035Z" fill="black"/>
</g>
<g opacity="0.2">
<path opacity="0.2" d="M163.198 82.043L168.984 91.6862C168.781 91.7911 168.584 91.8764 168.394 91.9683L162.634 82.3775L163.198 82.043Z" fill="black"/>
</g>
<g opacity="0.2">
<path opacity="0.2" d="M173.111 76.0996L178.588 85.2311L178.083 85.6706L172.546 76.4342L173.111 76.0996Z" fill="black"/>
</g>
<g opacity="0.2">
<path opacity="0.2" d="M168.506 78.8613L174.331 88.5636C174.154 88.6948 173.964 88.8194 173.787 88.9441L167.935 79.1959L168.506 78.8613Z" fill="black"/>
</g>
<g opacity="0.2">
<path opacity="0.2" d="M177.716 71.6719L183.043 80.5607C182.905 80.7444 182.754 80.9215 182.603 81.1052L177.152 72.013L177.716 71.6719Z" fill="black"/>
</g>
<path d="M174.254 84.5918C181.905 78.6661 186.216 71.4219 183.885 68.4116C181.553 65.4012 173.461 67.7646 165.81 73.6904C158.16 79.6161 153.848 86.8603 156.18 89.8706C158.512 92.881 166.604 90.5176 174.254 84.5918Z" fill="#FF5C8A"/>
<path opacity="0.2" d="M173.305 82.7655C179.36 78.0754 182.932 72.5482 181.284 70.42C179.636 68.2919 173.391 70.3687 167.336 75.0587C161.281 79.7488 157.708 85.276 159.357 87.4041C161.005 89.5323 167.25 87.4555 173.305 82.7655Z" fill="white"/>
<path d="M154.342 56.839C153.595 61.1554 143.912 62.9791 132.944 61.0111C121.975 59.0431 113.703 53.9723 114.471 49.6558C114.648 48.6521 114.956 44.9982 115.986 44.27C119.391 41.8691 127.302 43.8764 135.725 45.3721C143.597 46.7694 152.21 46.8809 154.342 50.5086C155.635 52.739 154.559 55.6057 154.342 56.839Z" fill="#FF5C8A"/>
<path opacity="0.2" d="M154.342 50.516C155.654 53.4942 154.611 55.272 154.342 56.8201C154.073 58.3683 152.57 59.6606 150.261 60.5134C149.979 60.6249 149.684 60.7168 149.382 60.8086C147.576 61.3163 145.719 61.6221 143.846 61.7205C143.577 61.7205 143.314 61.7205 143.039 61.7664C140.832 61.8475 138.621 61.7664 136.426 61.5237L135.659 61.4253C134.773 61.3137 133.861 61.1825 132.949 61.0185C132.038 60.8545 131.152 60.6709 130.28 60.4675C130.03 60.415 129.781 60.3494 129.532 60.2904C127.471 59.7814 125.449 59.1237 123.483 58.3224C123.241 58.2305 123.011 58.1256 122.781 58.0337C121.056 57.2993 119.419 56.3729 117.901 55.272C117.671 55.108 117.461 54.944 117.245 54.7734C115.211 53.1137 114.168 51.3294 114.463 49.6697C114.66 48.5939 114.818 45.0777 115.972 44.284C117.127 43.4902 118.78 43.2409 120.748 43.2344H121.535C125.471 43.3656 130.542 44.4611 135.718 45.3795C141.819 46.4685 148.962 47.4197 152.807 49.4795C153.032 49.599 153.251 49.7304 153.463 49.8731C153.772 50.0642 154.066 50.2791 154.342 50.516Z" fill="black"/>
<g opacity="0.2">
<path opacity="0.2" d="M121.752 42.5641L121.542 43.2529L117.895 55.284C117.665 55.12 117.455 54.956 117.239 54.7854L120.742 43.2464L121.017 42.3477L121.752 42.5641Z" fill="black"/>
</g>
<g opacity="0.2">
<path opacity="0.2" d="M127.237 45.923L123.478 58.3148C123.236 58.223 123.006 58.118 122.776 58.0262L126.516 45.6934L127.237 45.923Z" fill="black"/>
</g>
<g opacity="0.2">
<path opacity="0.2" d="M139.982 49.807L136.42 61.5429L135.652 61.4445L139.254 49.584L139.982 49.807Z" fill="black"/>
</g>
<g opacity="0.2">
<path opacity="0.2" d="M134.058 48.0096L130.273 60.4736C130.024 60.4211 129.775 60.3555 129.525 60.2965L133.33 47.7734L134.058 48.0096Z" fill="black"/>
</g>
<g opacity="0.2">
<path opacity="0.2" d="M147.309 50.318L143.839 61.739C143.57 61.739 143.308 61.739 143.032 61.7849L146.581 50.1016L147.309 50.318Z" fill="black"/>
</g>
<path d="M154.854 53.07C155.622 48.754 147.35 43.6724 136.378 41.72C125.406 39.7675 115.889 41.6836 115.121 45.9996C114.353 50.3156 122.625 55.3972 133.596 57.3496C144.568 59.3021 154.086 57.386 154.854 53.07Z" fill="#FF5C8A"/>
<path opacity="0.2" d="M151.12 52.4105C151.663 49.3608 145.065 45.6361 136.383 44.0911C127.701 42.5462 120.223 43.7661 119.68 46.8158C119.137 49.8656 125.735 53.5903 134.417 55.1352C143.099 56.6802 150.577 55.4603 151.12 52.4105Z" fill="white"/>
<path d="M211.611 167.042L144.102 170.978C141.717 171.119 139.377 171.688 137.194 172.658L63.8663 205.458C62.5798 206.023 61.5261 207.013 60.8814 208.262C60.2367 209.511 60.0399 210.943 60.3239 212.319L72.4403 269.621C72.6451 270.544 73.0582 271.407 73.6481 272.146C74.2379 272.885 74.9888 273.479 75.8433 273.882C76.6979 274.286 77.6335 274.489 78.5786 274.476C79.5237 274.463 80.4533 274.234 81.2963 273.806L153.673 237.674L220.506 235.437C221.328 235.415 222.137 235.218 222.877 234.859C223.617 234.501 224.273 233.988 224.8 233.356C225.327 232.725 225.713 231.988 225.933 231.195C226.153 230.402 226.202 229.572 226.075 228.759L217.134 173.891C216.668 171.057 214.517 166.957 211.611 167.042Z" fill="#FF5C8A"/>
<path opacity="0.1" d="M211.611 167.042L144.102 170.978C141.717 171.119 139.377 171.688 137.194 172.658L63.8663 205.458C62.5798 206.023 61.5261 207.013 60.8814 208.262C60.2367 209.511 60.0399 210.943 60.3239 212.319L72.4403 269.621C72.6451 270.544 73.0582 271.407 73.6481 272.146C74.2379 272.885 74.9888 273.479 75.8433 273.882C76.6979 274.286 77.6335 274.489 78.5786 274.476C79.5237 274.463 80.4533 274.234 81.2963 273.806L153.673 237.674L220.506 235.437C221.328 235.415 222.137 235.218 222.877 234.859C223.617 234.501 224.273 233.988 224.8 233.356C225.327 232.725 225.713 231.988 225.933 231.195C226.153 230.402 226.202 229.572 226.075 228.759L217.134 173.891C216.668 171.057 214.517 166.957 211.611 167.042Z" fill="black"/>
<path d="M76.1068 129.731L40.6792 162.389L104.255 231.358L139.683 198.701L76.1068 129.731Z" fill="#FF5C8A"/>
<path opacity="0.5" d="M139.674 198.706L104.244 231.362L40.6772 162.397L63.9259 140.965L76.1078 129.734L78.1348 131.939L139.674 198.706Z" fill="#FAFAFA"/>
<path d="M76.3345 133.948L45.0742 162.764L104.542 227.276L135.802 198.46L76.3345 133.948Z" stroke="#FF5C8A" stroke-miterlimit="10"/>
<path d="M97.4719 188.25C101.057 184.945 100.604 178.62 96.4589 174.124C92.3139 169.627 86.0471 168.661 82.4615 171.967C78.8759 175.272 79.3294 181.596 83.4744 186.093C87.6194 190.59 93.8863 191.555 97.4719 188.25Z" fill="#FF5C8A"/>
<path opacity="0.1" d="M103.869 203.37L91.2805 207.72L63.9253 140.965L76.1072 129.734L78.1343 131.939L103.869 203.37Z" fill="black"/>
<path d="M106.322 102.71L61.0244 119.135L92.9987 207.318L138.296 190.894L106.322 102.71Z" fill="#FF5C8A"/>
<path opacity="0.5" d="M106.322 102.71L61.0244 119.135L92.9987 207.318L138.296 190.894L106.322 102.71Z" fill="#FAFAFA"/>
<path d="M104.899 106.687L64.9302 121.18L94.8383 203.665L134.807 189.173L104.899 106.687Z" stroke="#FF5C8A" stroke-miterlimit="10"/>
<path d="M103.412 164.933C107.996 163.271 110.023 157.263 107.938 151.514C105.853 145.764 100.447 142.451 95.8625 144.113C91.278 145.776 89.2515 151.784 91.3361 157.533C93.4207 163.282 98.8271 166.596 103.412 164.933Z" fill="#FF5C8A"/>
<path d="M212.051 169.37L145.467 173.123C143.106 173.252 140.791 173.819 138.638 174.795L66.3858 207.412C65.1132 207.987 64.0749 208.979 63.4427 210.224C62.8105 211.47 62.6223 212.894 62.909 214.26L75.0253 271.588C75.2205 272.505 75.6233 273.365 76.2028 274.102C76.7823 274.839 77.523 275.434 78.3681 275.84C79.2132 276.246 80.1401 276.453 81.0777 276.445C82.0152 276.437 82.9384 276.214 83.7764 275.793L155.084 239.864L220.998 237.778C221.814 237.752 222.616 237.553 223.348 237.193C224.081 236.832 224.729 236.32 225.248 235.69C225.767 235.06 226.145 234.326 226.358 233.538C226.571 232.75 226.614 231.925 226.483 231.12L217.515 176.258C217.049 173.398 214.924 169.292 212.051 169.37Z" fill="#FF5C8A"/>
<path opacity="0.2" d="M148.176 183.159L205.307 179.643" stroke="black" stroke-width="2" stroke-linecap="round" stroke-linejoin="round"/>
<path opacity="0.2" d="M141.333 184.635L151.77 232.575" stroke="black" stroke-width="2" stroke-linecap="round" stroke-linejoin="round"/>
<path opacity="0.2" d="M71.7456 227.918L79.1059 264.792C79.1059 264.792 84.7475 250.163 71.7456 227.918Z" fill="#FAFAFA"/>
<path opacity="0.2" d="M72.7104 228.352C72.9663 229.008 138.087 201.062 138.087 201.062C138.264 207.398 136.68 213.659 133.511 219.148C130.343 224.638 125.714 229.141 120.139 232.157C100.538 243.145 72.7104 228.352 72.7104 228.352Z" fill="#FAFAFA"/>
<path d="M115.967 229.44C117.525 229.44 118.788 228.178 118.788 226.62C118.788 225.062 117.525 223.799 115.967 223.799C114.409 223.799 113.146 225.062 113.146 226.62C113.146 228.178 114.409 229.44 115.967 229.44Z" fill="#FF5C8A"/>
<path opacity="0.2" d="M138.12 201.062C138.12 201.062 146.195 213.218 144.24 233.922L138.12 201.062Z" fill="black"/>
<g opacity="0.2">
<path opacity="0.2" d="M68.6294 213.434L70.1316 212.771" stroke="#FAFAFA" stroke-linecap="round" stroke-linejoin="round"/>
<path opacity="0.2" d="M73.248 211.395L134.059 184.512" stroke="#FAFAFA" stroke-linecap="round" stroke-linejoin="round" stroke-dasharray="5.2 5.2"/>
<path opacity="0.2" d="M135.62 183.823L137.115 183.16" stroke="#FAFAFA" stroke-linecap="round" stroke-linejoin="round"/>
</g>
<path opacity="0.2" d="M150.092 193.937L207.223 190.414" stroke="black" stroke-width="2" stroke-linecap="round" stroke-linejoin="round"/>
<path opacity="0.2" d="M152.663 207.378L209.794 203.855" stroke="black" stroke-width="2" stroke-linecap="round" stroke-linejoin="round"/>
<path d="M197.271 111.891C197.271 111.891 195.834 127.195 190.147 128.514C186.625 129.274 182.953 128.907 179.651 127.464L175.026 123.909L172.77 131.781C172.77 131.781 175.236 135.133 180.386 132.81C180.386 132.81 189.57 136.851 194.647 132.81C199.725 128.77 201.351 117.683 201.351 117.683L197.271 111.891Z" fill="#B97964"/>
<path d="M201.843 104.478C201.843 104.478 197.874 97.7149 199.678 85.4543C201.482 73.1936 211.762 71.6783 215.731 72.5639C219.699 73.4495 222.947 77.2608 225.649 84.5162C228.352 91.7715 229.349 93.6608 233.856 92.3882C238.363 91.1155 250.354 87.1402 253.693 90.676C254.654 91.6419 255.361 92.8294 255.754 94.1337C256.146 95.4381 256.211 96.819 255.943 98.1544C255.943 98.1544 272.625 94.1003 271.182 108.978C269.739 123.857 245.664 137.744 222.763 123.043C199.862 108.342 201.843 104.478 201.843 104.478Z" fill="#263238"/>
<path d="M201.659 140.487C201.659 140.487 197.126 179.473 197.277 197.756C197.428 216.039 203.922 259.125 203.922 259.125H211.932C211.932 259.125 210.876 224.672 211.027 212.883C211.178 201.095 213.29 181.592 213.29 181.592C213.29 181.592 215.855 199.12 218.879 205.313C221.903 211.506 238.677 233.423 250.315 240.225L255.753 235.233C255.753 235.233 243.663 220.276 239.13 212.87C234.597 205.464 230.523 203.365 228.857 189.589C227.191 175.813 230.071 153.778 225.236 140.48L201.659 140.487Z" fill="#1C2D5E"/>
<path opacity="0.2" d="M213.291 181.59L209.808 156.879C209.808 156.879 207.059 171.731 212.471 189.869L213.291 181.59Z" fill="black"/>
<path d="M205.569 261.307L205.838 268.963L211.211 269.409L211.48 268.694V260.77L205.569 261.307Z" fill="#B97964"/>
<path d="M203.018 258.395L203.51 261.262L212.733 261.485L213.317 258.041L203.018 258.395Z" fill="#FF5C8A"/>
<path d="M247.79 240.755L256.338 232.791L258.22 235.789L250.88 242.506L247.79 240.755Z" fill="#FF5C8A"/>
<path d="M251.909 240.756L257.551 245.505L261.172 241.248L256.541 236.459L251.909 240.756Z" fill="#B97964"/>
<path d="M262.268 240.92L265.679 243.02C265.834 243.115 265.967 243.244 266.067 243.396C266.168 243.549 266.234 243.721 266.261 243.902C266.288 244.083 266.275 244.267 266.223 244.442C266.171 244.617 266.082 244.779 265.961 244.915C263.488 247.71 257.171 254.808 256.541 255.307C255.76 255.963 254.815 254.86 254.573 253.876C254.573 253.876 256.364 251.502 256.541 249.98C256.615 248.805 256.615 247.626 256.541 246.451C256.527 246.156 256.625 245.868 256.816 245.644L260.628 241.17C260.824 240.937 261.099 240.783 261.401 240.737C261.702 240.691 262.01 240.756 262.268 240.92Z" fill="#263238"/>
<path d="M212.523 269.62L213.231 273.556C213.264 273.736 213.257 273.921 213.21 274.098C213.164 274.275 213.079 274.439 212.962 274.58C212.845 274.721 212.699 274.834 212.533 274.912C212.368 274.99 212.188 275.031 212.005 275.032C208.272 275.032 198.773 275.071 197.979 274.94C196.989 274.776 197.166 273.359 197.75 272.533C197.75 272.533 200.708 272.283 201.948 271.385C202.87 270.661 203.747 269.881 204.572 269.049C204.783 268.843 205.064 268.723 205.359 268.715L211.231 268.577C211.535 268.566 211.834 268.665 212.072 268.857C212.309 269.049 212.469 269.32 212.523 269.62Z" fill="#263238"/>
<path d="M226.096 118.864L234.283 113.118C234.283 113.118 232.105 104.406 228.877 103.973C225.65 103.54 209.63 100.49 199.443 103.973C199.443 103.973 195.782 105.016 194.654 115.296L199.01 116.686C199.01 116.686 200.571 135.933 201.535 138.899H224.784C224.784 138.899 225.046 122.348 226.096 118.864Z" fill="#FF5C8A"/>
<path d="M227.861 117.625C227.861 117.625 230.964 126.481 231.515 131.244C231.515 131.244 224.141 128.305 222.239 126.96L220.796 121.778L215.915 119.396L214.465 123.332L218.539 128.383C218.539 128.383 229.645 138.774 235.274 136.4C240.902 134.025 233.05 114.004 233.05 114.004L227.861 117.625Z" fill="#B97964"/>
<path d="M207.033 78.8491C207.033 78.8491 204.192 84.5169 204.409 89.1286C204.625 93.7403 206.954 95.623 211.382 96.2724C211.382 96.2724 213.271 102.176 208.312 102.773C207.931 102.819 207.8 104.322 207.827 104.564C207.958 105.522 208.909 106.047 209.795 106.27C210.727 106.476 211.68 106.582 212.635 106.585C213.638 106.619 214.636 106.425 215.553 106.017C216.47 105.609 217.283 104.998 217.929 104.23C218.034 104.105 219.031 102.832 219.031 102.832C219.031 102.832 216.663 101.658 217.496 93.9699C218.626 93.2342 219.494 92.1594 219.976 90.8998C220.428 90.6596 220.828 90.3318 221.153 89.9353C221.477 89.5388 221.719 89.0817 221.865 88.5907C222.219 87.0556 220.861 84.9302 218.382 87.0556C218.382 87.0556 213.711 84.694 211.94 76.4219C210.626 77.7635 208.896 78.6193 207.033 78.8491Z" fill="#B97964"/>
<path d="M208.364 87.8686L208.764 84.8379L206.619 87.2126C206.84 87.4482 207.112 87.6298 207.415 87.7435C207.717 87.8573 208.042 87.9001 208.364 87.8686Z" fill="#A24E3F"/>
<path d="M209.61 90.0865C209.61 90.0865 211.874 90.4341 212.963 88.9844" stroke="#222221" stroke-width="0.75" stroke-linecap="round" stroke-linejoin="round"/>
<path d="M211.874 80.5935C212.388 80.4474 212.931 80.4429 213.448 80.5803C213.964 80.7177 214.433 80.9919 214.806 81.3741" stroke="#222221" stroke-linecap="round" stroke-linejoin="round"/>
<path d="M207.957 79.9376C207.957 79.9376 206.645 79.7343 206.062 80.4756" stroke="#222221" stroke-linecap="round" stroke-linejoin="round"/>
<path d="M212.786 84.5816C212.727 85.0408 212.431 85.3753 212.13 85.336C211.828 85.2966 211.625 84.8964 211.684 84.4372C211.743 83.978 212.038 83.6435 212.34 83.6828C212.641 83.7222 212.845 84.1224 212.786 84.5816Z" fill="#222221"/>
<path d="M207.549 83.5655C207.608 83.1092 207.408 82.7072 207.103 82.6675C206.798 82.6278 206.502 82.9656 206.443 83.4219C206.383 83.8782 206.583 84.2802 206.888 84.3199C207.194 84.3595 207.489 84.0218 207.549 83.5655Z" fill="#222221"/>
<path d="M212.346 83.6831L211.31 83.2305C211.323 83.3439 211.366 83.4518 211.434 83.5435C211.503 83.6352 211.594 83.7075 211.698 83.7533C211.803 83.799 211.918 83.8166 212.032 83.8043C212.145 83.792 212.254 83.7502 212.346 83.6831Z" fill="#222221"/>
<path d="M207.203 82.7124L206.167 82.2598C206.18 82.3732 206.223 82.4811 206.291 82.5728C206.36 82.6645 206.451 82.7368 206.555 82.7826C206.66 82.8283 206.775 82.8459 206.888 82.8336C207.002 82.8213 207.11 82.7795 207.203 82.7124Z" fill="#222221"/>
<path d="M200.722 137.875V140.61L225.912 140.82L225.236 137.566L200.722 137.875Z" fill="#FF5C8A"/>
<path opacity="0.4" d="M200.722 137.875V140.61L225.912 140.82L225.236 137.566L200.722 137.875Z" fill="white"/>
<path d="M201.03 124.598L187.176 172.788C186.715 174.401 185.781 175.84 184.495 176.918C183.209 177.996 181.629 178.664 179.96 178.836C178.897 178.938 177.825 178.84 176.798 178.547L150.315 170.931C148.174 170.313 146.366 168.872 145.286 166.923C144.206 164.974 143.944 162.676 144.555 160.534L158.417 112.331C159.036 110.193 160.477 108.387 162.425 107.31C164.373 106.233 166.668 105.972 168.808 106.584L195.31 114.194C197.446 114.818 199.248 116.264 200.32 118.214C201.392 120.164 201.648 122.46 201.03 124.598Z" fill="#FF5C8A"/>
<path opacity="0.2" d="M201.03 124.598L187.176 172.788C186.715 174.401 185.781 175.84 184.495 176.918C183.209 177.996 181.629 178.664 179.96 178.836C178.897 178.938 177.825 178.84 176.798 178.547L150.315 170.931C148.174 170.313 146.366 168.872 145.286 166.923C144.206 164.974 143.944 162.676 144.555 160.534L158.417 112.331C159.036 110.193 160.477 108.387 162.425 107.31C164.373 106.233 166.668 105.972 168.808 106.584L195.31 114.194C197.446 114.818 199.248 116.264 200.32 118.214C201.392 120.164 201.648 122.46 201.03 124.598Z" fill="black"/>
<path d="M198.728 125.169L184.873 173.365C184.523 174.592 183.897 175.722 183.043 176.671C182.189 177.619 181.13 178.359 179.947 178.836C178.884 178.938 177.812 178.84 176.785 178.547L150.315 170.931C148.174 170.313 146.366 168.872 145.286 166.923C144.206 164.974 143.944 162.676 144.555 160.534L158.417 112.331C158.767 111.106 159.394 109.977 160.248 109.031C161.101 108.085 162.16 107.347 163.343 106.873C164.406 106.765 165.48 106.863 166.505 107.161L192.955 114.804C195.092 115.418 196.899 116.852 197.981 118.795C199.062 120.737 199.331 123.029 198.728 125.169Z" fill="#FF5C8A"/>
<path opacity="0.5" d="M198.728 125.169L184.873 173.365C184.523 174.592 183.897 175.722 183.043 176.671C182.189 177.619 181.13 178.359 179.947 178.836C178.884 178.938 177.812 178.84 176.785 178.547L150.315 170.931C148.174 170.313 146.366 168.872 145.286 166.923C144.206 164.974 143.944 162.676 144.555 160.534L158.417 112.331C158.767 111.106 159.394 109.977 160.248 109.031C161.101 108.085 162.16 107.347 163.343 106.873C164.406 106.765 165.48 106.863 166.505 107.161L192.955 114.804C195.092 115.418 196.899 116.852 197.981 118.795C199.062 120.737 199.331 123.029 198.728 125.169Z" fill="#FAFAFA"/>
<path d="M161.481 129.268L158.646 128.469L148.442 164.673L151.277 165.472L161.481 129.268Z" fill="#FAFAFA"/>
<path d="M155.346 166.621L152.512 165.801L162.713 129.609L165.54 130.423L155.346 166.621Z" fill="#FAFAFA"/>
<path d="M159.467 167.802L156.633 166.988L166.834 130.797L169.668 131.61L159.467 167.802Z" fill="#FAFAFA"/>
<path opacity="0.5" d="M186.165 136.354L183.33 135.555L173.126 171.759L175.961 172.558L186.165 136.354Z" fill="black"/>
<path d="M185.805 126.121L184.427 131.034L182.748 130.562C181.935 130.331 181.246 129.787 180.833 129.049C180.419 128.311 180.316 127.44 180.544 126.626L181.462 123.346L184.854 124.317C185.219 124.43 185.524 124.684 185.703 125.022C185.881 125.36 185.918 125.755 185.805 126.121Z" fill="#FAFAFA"/>
<path d="M184.998 123.712L181.606 122.741L182.623 119.147C182.737 118.743 182.929 118.366 183.188 118.037C183.447 117.708 183.769 117.433 184.134 117.229C184.5 117.024 184.902 116.893 185.318 116.844C185.734 116.795 186.156 116.828 186.559 116.942L188.304 117.434L186.782 122.728C186.732 122.911 186.645 123.082 186.528 123.232C186.41 123.381 186.264 123.505 186.097 123.596C185.931 123.688 185.748 123.746 185.559 123.765C185.371 123.785 185.18 123.767 184.998 123.712Z" fill="#FAFAFA"/>
<path d="M188.212 125.3L191.623 126.277L190.718 129.485C190.606 129.889 190.415 130.267 190.156 130.597C189.897 130.927 189.575 131.203 189.209 131.408C188.843 131.613 188.441 131.743 188.024 131.791C187.607 131.84 187.185 131.805 186.782 131.689L185.011 131.191L186.421 126.284C186.473 126.101 186.561 125.93 186.679 125.782C186.798 125.633 186.945 125.509 187.111 125.418C187.278 125.326 187.461 125.269 187.65 125.248C187.839 125.228 188.03 125.246 188.212 125.3Z" fill="#FAFAFA"/>
<path d="M192.831 122.019L191.801 125.666L188.389 124.689C188.024 124.582 187.716 124.335 187.532 124.003C187.347 123.67 187.302 123.277 187.405 122.911L188.927 117.617L190.626 118.096C191.029 118.209 191.405 118.4 191.733 118.658C192.062 118.916 192.336 119.237 192.541 119.601C192.746 119.965 192.877 120.366 192.926 120.781C192.976 121.196 192.943 121.617 192.831 122.019Z" fill="#FAFAFA"/>
</svg>
