<svg width="328" height="329" viewBox="0 0 328 329" fill="none" xmlns="http://www.w3.org/2000/svg">
<path d="M328 251.802H0V251.966H328V251.802Z" fill="#EBEBEB"/>
<path d="M295.133 262.357H273.406V262.521H295.133V262.357Z" fill="#EBEBEB"/>
<path d="M217.279 264.141H211.578V264.305H217.279V264.141Z" fill="#EBEBEB"/>
<path d="M272.753 256.269H260.164V256.433H272.753V256.269Z" fill="#EBEBEB"/>
<path d="M62.7467 257.371H34.4141V257.535H62.7467V257.371Z" fill="#EBEBEB"/>
<path d="M72.7423 257.371H68.5898V257.535H72.7423V257.371Z" fill="#EBEBEB"/>
<path d="M147.7 260.14H86.2461V260.304H147.7V260.14Z" fill="#EBEBEB"/>
<path d="M155.473 222.544H28.8056C27.8133 222.542 26.8622 222.147 26.1612 221.445C25.4601 220.742 25.0664 219.791 25.0664 218.798V40.7403C25.075 39.7537 25.4726 38.8103 26.1727 38.1151C26.8728 37.4199 27.819 37.029 28.8056 37.0273H155.473C156.466 37.0273 157.419 37.422 158.121 38.1245C158.824 38.8269 159.218 39.7797 159.218 40.7731V218.798C159.218 219.792 158.824 220.745 158.121 221.447C157.419 222.149 156.466 222.544 155.473 222.544ZM28.8056 37.1585C27.8568 37.1603 26.9475 37.5384 26.2772 38.2099C25.6069 38.8815 25.2304 39.7915 25.2304 40.7403V218.798C25.2304 219.747 25.6069 220.657 26.2772 221.329C26.9475 222 27.8568 222.378 28.8056 222.38H155.473C156.422 222.378 157.332 222 158.003 221.329C158.675 220.658 159.053 219.748 159.054 218.798V40.7403C159.053 39.7909 158.675 38.8809 158.003 38.2095C157.332 37.5382 156.422 37.1603 155.473 37.1585H28.8056Z" fill="#EBEBEB"/>
<path d="M297.372 222.544H170.699C169.706 222.542 168.754 222.147 168.052 221.445C167.35 220.743 166.955 219.791 166.953 218.798V40.7403C166.963 39.7531 167.362 38.8097 168.064 38.1147C168.765 37.4197 169.712 37.029 170.699 37.0273H297.372C298.358 37.0308 299.302 37.4224 300.001 38.1174C300.7 38.8125 301.096 39.7548 301.105 40.7403V218.798C301.105 219.79 300.712 220.74 300.013 221.442C299.313 222.144 298.364 222.541 297.372 222.544ZM170.699 37.1585C169.749 37.1603 168.839 37.5382 168.168 38.2095C167.497 38.8809 167.119 39.7909 167.117 40.7403V218.798C167.119 219.748 167.497 220.658 168.168 221.329C168.839 222 169.749 222.378 170.699 222.38H297.372C298.322 222.378 299.232 222 299.903 221.329C300.575 220.658 300.952 219.748 300.954 218.798V40.7403C300.952 39.7909 300.575 38.8809 299.903 38.2095C299.232 37.5382 298.322 37.1603 297.372 37.1585H170.699Z" fill="#EBEBEB"/>
<path d="M41.2374 250.818C40.87 250.529 39.9976 248.666 39.4072 238.164C39.4072 237.777 39.3612 237.39 39.3416 237.009C39.768 234.382 40.492 231.811 41.4998 229.347C40.5313 230.702 39.7522 232.183 39.1841 233.749C38.8102 225.372 38.843 218.818 39.2628 214.633C40.3124 204.209 41.6572 196.436 43.7564 192.5C42.0312 194.29 39.3481 202.556 37.754 212.527C37.5113 205.869 35.2284 196.606 33.864 193.556C35.1492 199.429 35.8914 205.409 36.0812 211.419C36.0812 212.672 36.0353 214.39 35.9369 216.43C35.3191 214.431 34.46 212.515 33.3785 210.723C34.5364 214.11 35.3023 217.619 35.6614 221.18C35.3334 226.697 34.9136 233.349 34.8545 239.39C34.7561 249.945 33.7984 250.542 33.431 250.818C33.1924 251.089 33.0678 251.441 33.0833 251.802H41.6113C41.6211 251.437 41.4868 251.084 41.2374 250.818Z" fill="#F0F0F0"/>
<path d="M192.269 139.482C213.103 134.135 234.253 142.847 234.686 157.194C235.118 171.54 222.386 188.964 221.185 199.748C219.985 210.533 224.354 231.505 205.986 228.579C187.618 225.654 174.399 194.317 171.69 169.946C168.981 145.576 180.185 142.584 192.269 139.482Z" fill="#F5F5F5"/>
<path d="M213.121 250.227C212.295 249.755 210.163 248.817 209.933 231.826C209.933 230.226 209.867 228.592 209.808 226.952C210.4 225.3 211.092 223.685 211.881 222.118C211.086 222.981 210.364 223.909 209.723 224.893C209.375 217.204 208.7 209.326 208.129 202.516C208.966 196.678 210.69 191.002 213.239 185.683C211.612 187.363 209.382 190.872 207.526 194.867C207.296 191.587 207.158 188.806 207.198 186.799C207.362 178.789 209.474 166.167 212.137 158.04C209.002 163.084 203.708 178.69 203.412 189.455C199.424 174.787 191.86 165.885 184.336 162.402C191.932 168.857 197.718 175.201 200.08 191.974C200.709 197.373 200.952 202.81 200.808 208.243C198.381 205.731 195.77 203.717 194.084 202.956C196.682 205.536 198.919 208.456 200.736 211.635C200.598 217.053 200.27 223.154 199.745 229.852C198.433 246.75 196.465 249.748 195.639 250.221C195.387 250.398 195.184 250.636 195.048 250.912C194.912 251.188 194.846 251.494 194.858 251.802H213.882C213.895 251.497 213.832 251.194 213.699 250.919C213.567 250.644 213.368 250.407 213.121 250.227Z" fill="#E0E0E0"/>
<path d="M142.306 58.3603C128.943 59.0163 119.228 81.7401 118.362 101C117.496 120.26 100.814 143.312 108.476 164.973C116.138 186.634 131.889 186.549 144.556 178.33C157.223 170.11 183.26 196.219 192.936 175.502C207.591 144.224 179.232 122.32 177.153 88.9102C175.073 55.5001 150.88 57.9535 142.306 58.3603Z" fill="#E0E0E0"/>
<path d="M140.988 249.119C142.3 248.319 145.423 243.215 147.548 214.548C147.627 213.492 147.699 212.442 147.771 211.399C146.295 204.472 143.304 196.088 140.07 190.459C142.353 192.552 145.587 197.151 148.342 202.484C149.654 179.609 149.549 161.7 148.047 150.273C144.308 121.802 139.519 100.548 132.027 89.8159C138.174 94.7162 147.771 117.289 153.446 144.52C154.318 126.329 162.446 101.027 167.314 92.6958C163.069 106.472 159.704 127.91 159.442 141.502C159.376 144.913 159.599 149.61 159.966 155.193C162.931 148.397 166.487 142.44 169.091 139.593C165.287 147.465 162.059 159.168 160.931 168.149C162.111 183.237 163.601 201.402 163.811 217.9C164.171 246.725 167.576 248.319 168.895 249.119C170.213 249.919 170.141 251.802 170.141 251.802H139.729C139.729 251.802 139.67 249.919 140.988 249.119Z" fill="#F0F0F0"/>
<path d="M266.728 96.8546C277.427 97.3728 285.214 115.583 285.91 131.012C286.605 146.442 299.961 164.908 293.821 182.253C287.681 199.597 275.072 199.545 264.957 192.959C254.841 186.372 233.981 207.286 226.207 190.695C214.465 165.636 237.182 148.095 238.848 121.343C240.514 94.5914 259.84 96.5266 266.728 96.8546Z" fill="#E0E0E0"/>
<path d="M267.787 249.65C266.731 248.994 264.232 244.933 262.539 221.96C262.474 221.114 262.415 220.274 262.356 219.441C263.543 213.891 265.938 207.174 268.529 202.667C266.699 204.34 264.107 208.027 261.897 212.297C260.84 193.975 260.932 179.628 262.139 170.477C265.131 147.675 268.975 130.645 274.971 122.051C270.044 125.987 262.375 144.054 257.81 165.872C257.114 151.296 250.594 131.032 246.704 124.36C250.102 135.407 252.804 152.568 253.014 163.451C253.067 166.187 252.89 169.946 252.595 174.42C250.22 168.975 247.347 164.206 245.287 161.923C248.337 168.234 250.915 177.601 251.847 184.798C250.902 196.875 249.715 211.431 249.544 224.643C249.249 247.734 246.527 249.014 245.47 249.65C244.414 250.286 244.473 251.802 244.473 251.802H268.811C268.811 251.802 268.844 250.293 267.787 249.65Z" fill="#F0F0F0"/>
<path d="M228.318 251.087C228.863 250.877 230.142 249.519 231.014 241.903C231.014 241.621 231.08 241.345 231.106 241.07C230.409 239.027 229.335 237.133 227.938 235.487C229.238 236.367 230.387 237.45 231.342 238.695C231.887 232.601 231.841 227.832 231.224 224.781C229.683 217.205 227.708 211.537 224.625 208.683C227.157 209.995 231.1 215.998 233.442 223.253C233.802 218.405 237.148 211.668 239.155 209.477C237.316 213.584 236.217 217.983 235.908 222.472C235.908 223.691 235.98 224.909 236.125 226.12C237.145 224.543 238.412 223.141 239.877 221.967C238.256 224.248 237.116 226.835 236.525 229.57C237.01 233.591 237.62 238.433 237.706 242.821C237.856 250.503 239.26 250.93 239.798 251.139C239.948 251.19 240.077 251.286 240.169 251.415C240.261 251.543 240.31 251.697 240.31 251.854H227.807C227.795 251.688 227.839 251.522 227.931 251.383C228.024 251.245 228.16 251.14 228.318 251.087Z" fill="#F5F5F5"/>
<path d="M81.1796 105.494C57.5636 98.5274 33.5475 109.876 33.0292 128.559C32.511 147.242 46.9758 169.953 48.3534 183.991C49.731 198.03 44.7388 225.358 65.5996 221.514C86.4604 217.67 101.457 176.874 104.533 145.13C107.61 113.386 94.89 109.535 81.1796 105.494Z" fill="#F5F5F5"/>
<path d="M57.5033 249.742C58.4414 249.132 60.862 247.905 61.1244 225.778C61.1244 223.685 61.1966 221.567 61.2622 219.421C60.5967 217.282 59.8127 215.182 58.9137 213.13C59.8278 214.275 60.6461 215.493 61.3606 216.771C61.7542 206.754 62.5217 196.494 63.1646 187.619C62.3643 180.724 60.0683 171.743 57.3656 165.695C59.2155 167.886 61.7476 172.458 63.8534 177.674C64.1158 173.39 64.2732 169.802 64.2273 167.178C64.0371 156.741 61.6427 140.282 58.6251 129.713C62.1806 136.273 68.1896 156.609 68.5241 170.635C73.0177 151.506 81.6441 139.927 90.1721 135.388C81.5457 143.798 74.9792 152.057 72.3224 173.908C71.6004 180.942 71.3155 188.014 71.4696 195.084C74.2248 191.804 77.1964 189.18 79.1054 188.196C76.1078 191.631 73.5656 195.439 71.5417 199.525C71.7057 206.577 72.0796 214.521 72.6766 223.246C74.1788 245.261 76.3961 249.171 77.3342 249.781C78.2723 250.391 78.2198 251.841 78.2198 251.841H56.6177C56.6177 251.841 56.5652 250.352 57.5033 249.742Z" fill="#E0E0E0"/>
<path d="M113.211 250.601C113.618 250.24 114.575 247.977 115.225 235.133C115.225 234.654 115.271 234.188 115.297 233.722C114.83 230.524 114.034 227.383 112.922 224.348C113.994 226.028 114.851 227.835 115.474 229.727C115.881 219.494 115.842 211.477 115.382 206.361C114.228 193.621 112.758 184.109 110.449 179.307C112.345 181.498 115.291 191.601 117.009 203.789C117.278 195.648 119.778 184.326 121.28 180.599C119.868 187.799 119.056 195.104 118.853 202.438C118.853 203.966 118.899 206.065 119.017 208.565C119.682 206.139 120.621 203.797 121.818 201.585C120.543 205.746 119.703 210.029 119.312 214.364C119.673 221.114 120.132 229.248 120.197 236.628C120.309 249.532 121.359 250.24 121.759 250.601C122.026 250.943 122.164 251.368 122.146 251.802H112.831C112.811 251.369 112.946 250.944 113.211 250.601Z" fill="#E6E6E6"/>
<path d="M164 294.547C234.247 294.547 291.192 291.222 291.192 287.121C291.192 283.02 234.247 279.695 164 279.695C93.7543 279.695 36.8086 283.02 36.8086 287.121C36.8086 291.222 93.7543 294.547 164 294.547Z" fill="#F5F5F5"/>
<path d="M150.65 97.5497C151.221 98.2057 151.903 98.9995 152.552 99.7211C153.202 100.443 153.864 101.171 154.52 101.892C155.832 103.309 157.243 104.7 158.64 106.012C159.972 107.288 161.369 108.495 162.825 109.627C163.438 110.101 164.078 110.539 164.741 110.939C165.023 111.109 165.233 111.201 165.344 111.273C165.456 111.345 165.344 111.273 165.344 111.273C165.344 111.273 165.259 111.273 165.226 111.273C165.023 111.273 164.957 111.273 164.964 111.306C165.147 111.327 165.333 111.306 165.508 111.247C165.849 111.158 166.184 111.051 166.512 110.926C167.319 110.613 168.11 110.258 168.88 109.863C170.514 109.03 172.16 108.039 173.846 106.996C177.126 104.917 180.472 102.562 183.575 100.154L183.62 100.121C184.413 99.5606 185.387 99.3185 186.349 99.4431C187.311 99.5677 188.191 100.05 188.815 100.794C189.438 101.537 189.758 102.489 189.712 103.458C189.666 104.427 189.257 105.344 188.567 106.025C186.966 107.468 185.405 108.807 183.784 110.165C182.164 111.523 180.504 112.841 178.838 114.14C177.172 115.439 175.388 116.698 173.472 117.899C172.508 118.496 171.504 119.08 170.376 119.637C169.773 119.931 169.155 120.193 168.526 120.424C167.737 120.732 166.916 120.952 166.079 121.08C165.489 121.169 164.89 121.191 164.295 121.146C164.131 121.146 163.901 121.113 163.79 121.094L163.416 121.028C163.173 120.982 162.897 120.936 162.681 120.884C161.91 120.688 161.156 120.434 160.424 120.123C159.252 119.613 158.114 119.026 157.02 118.365C155.094 117.198 153.232 115.928 151.444 114.56C149.699 113.248 148.032 111.89 146.392 110.519C145.575 109.837 144.761 109.146 143.952 108.446C143.139 107.731 142.371 107.055 141.518 106.275C140.287 105.137 139.559 103.556 139.493 101.882C139.461 101.052 139.592 100.224 139.879 99.4458C140.166 98.6671 140.604 97.9526 141.167 97.3431C141.731 96.7336 142.409 96.2411 143.163 95.8936C143.916 95.5461 144.731 95.3505 145.56 95.3179C147.235 95.252 148.868 95.8543 150.099 96.9922C150.289 97.1562 150.486 97.3792 150.65 97.5497Z" fill="#1C2D5E"/>
<path d="M186.422 99.741L188.692 98.2715C189.846 97.5252 191.141 97.0229 192.496 96.7955L194.287 96.5003C194.568 96.4547 194.856 96.4656 195.133 96.5322C195.41 96.5989 195.67 96.72 195.9 96.8885C196.13 97.0571 196.323 97.2696 196.47 97.5138C196.617 97.7581 196.713 98.029 196.754 98.3109L197.128 100.935C197.201 101.438 197.093 101.951 196.822 102.381C196.552 102.811 196.137 103.131 195.652 103.283L192.7 104.215C192.7 104.215 190.076 105.835 187.878 105.442C187.543 105.375 187.229 105.225 186.968 105.005C186.706 104.785 186.505 104.501 186.382 104.182L185.648 102.28C185.462 101.832 185.438 101.335 185.579 100.871C185.72 100.408 186.018 100.009 186.422 99.741Z" fill="#FF8B7B"/>
<path d="M133.39 209.024C128.608 182.509 120.316 147.852 120.316 147.852L145.71 150.082C145.71 150.082 149.968 192.965 148.944 211.556C147.888 230.889 141.859 269.94 141.859 269.94H130.15C130.15 269.94 130.36 226.382 133.39 209.024Z" fill="#FF5C8A"/>
<path opacity="0.2" d="M128.773 173.921C133.87 180.901 133.778 192.197 132.243 202.877C130.492 193.693 128.445 183.912 126.542 175.214C126.392 174.203 126.241 173.246 126.09 172.281L128.773 173.921Z" fill="black"/>
<path d="M130.137 287.121H148.36C148.45 287.121 148.539 287.103 148.621 287.067C148.703 287.032 148.777 286.98 148.839 286.915C148.9 286.85 148.948 286.773 148.978 286.688C149.009 286.604 149.022 286.515 149.016 286.425L148.931 285.408C148.912 285.23 148.828 285.064 148.695 284.943C148.562 284.823 148.389 284.755 148.21 284.752H130.74C130.548 284.76 130.363 284.827 130.212 284.944C130.06 285.062 129.949 285.224 129.894 285.408L129.618 286.425C129.591 286.506 129.583 286.592 129.596 286.677C129.609 286.761 129.643 286.841 129.694 286.91C129.745 286.978 129.812 287.033 129.889 287.07C129.966 287.107 130.051 287.124 130.137 287.121Z" fill="#1C2D5E"/>
<path d="M131.074 278.934L129.992 284.385C129.967 284.517 129.973 284.653 130.007 284.782C130.041 284.912 130.104 285.032 130.191 285.134C130.278 285.237 130.386 285.318 130.508 285.374C130.63 285.429 130.763 285.457 130.897 285.455C132.629 285.455 133.449 285.179 136.473 285.133C140.009 285.081 142.961 285.52 147.107 285.455C149.619 285.415 149.855 281.715 147.966 281.197C144.991 280.42 142.165 279.157 139.602 277.458C140.074 275.49 140.914 269.704 140.914 269.704L131.199 269.481C131.199 269.481 131.428 276.08 131.074 278.934Z" fill="#1C2D5E"/>
<path opacity="0.2" d="M131.074 278.934L129.992 284.385C129.967 284.517 129.973 284.653 130.007 284.782C130.041 284.912 130.104 285.032 130.191 285.134C130.278 285.237 130.386 285.318 130.508 285.374C130.63 285.429 130.763 285.457 130.897 285.455C132.629 285.455 133.449 285.179 136.473 285.133C140.009 285.081 142.961 285.52 147.107 285.455C149.619 285.415 149.855 281.715 147.966 281.197C144.991 280.42 142.165 279.157 139.602 277.458C140.074 275.49 140.914 269.704 140.914 269.704L131.199 269.481C131.199 269.481 131.428 276.08 131.074 278.934Z" fill="white"/>
<path d="M81.8084 283.959L99.809 286.747C99.9939 286.775 100.183 286.731 100.336 286.624C100.489 286.516 100.594 286.353 100.629 286.169L100.806 285.172C100.819 285.087 100.815 285 100.795 284.916C100.774 284.832 100.737 284.753 100.686 284.684C100.635 284.614 100.57 284.556 100.496 284.511C100.422 284.467 100.34 284.437 100.255 284.424L83.0089 281.754C82.8115 281.733 82.6122 281.769 82.4344 281.857C82.2566 281.946 82.1077 282.083 82.0052 282.253L81.4738 283.204C81.4232 283.271 81.3915 283.351 81.382 283.435C81.3724 283.518 81.3854 283.603 81.4195 283.68C81.4536 283.757 81.5076 283.823 81.576 283.872C81.6444 283.921 81.7246 283.951 81.8084 283.959Z" fill="#1C2D5E"/>
<path d="M84.8452 276.146L82.3721 281.276C82.3087 281.391 82.2748 281.521 82.2735 281.653C82.2721 281.784 82.3033 281.914 82.3643 282.031C82.4254 282.148 82.5143 282.248 82.6232 282.322C82.7321 282.396 82.8577 282.443 82.9888 282.457C84.6944 282.726 85.5734 282.581 88.5779 283.001C92.0875 283.487 94.8886 284.366 99.0017 284.969C101.495 285.31 102.682 281.748 100.97 280.961C98.2633 279.77 95.7908 278.106 93.6684 276.048C94.6459 274.191 96.9484 268.707 96.9484 268.707L87.4496 267.008C87.4496 267.008 85.9342 273.424 84.8452 276.146Z" fill="#1C2D5E"/>
<path opacity="0.2" d="M84.8452 276.146L82.3721 281.276C82.3087 281.391 82.2748 281.521 82.2735 281.653C82.2721 281.784 82.3033 281.914 82.3643 282.031C82.4254 282.148 82.5143 282.248 82.6232 282.322C82.7321 282.396 82.8577 282.443 82.9888 282.457C84.6944 282.726 85.5734 282.581 88.5779 283.001C92.0875 283.487 94.8886 284.366 99.0017 284.969C101.495 285.31 102.682 281.748 100.97 280.961C98.2633 279.77 95.7908 278.106 93.6684 276.048C94.6459 274.191 96.9484 268.707 96.9484 268.707L87.4496 267.008C87.4496 267.008 85.9342 273.424 84.8452 276.146Z" fill="white"/>
<path d="M142.128 271.495L129.828 271.685L129.133 267.703L142.843 267.277L142.128 271.495Z" fill="#1C2D5E"/>
<path d="M105.944 208.243C111.291 180.77 106.987 160.185 113.16 147.235L137.544 149.38C137.544 149.38 127.468 190.59 122.069 208.899C116.46 227.923 97.7181 268.549 97.7181 268.549L86.4414 266.942C86.4414 266.942 98.0264 229.504 105.944 208.243Z" fill="#FF5C8A"/>
<path d="M97.9333 270.642L85.7383 268.949L85.9285 264.948L99.5733 266.634L97.9333 270.642Z" fill="#1C2D5E"/>
<path d="M146.057 94.4272C143.958 92.6888 141.249 90.3665 139.091 90.2681C136.932 90.1697 130.655 90.4387 128.227 89.4613C127.02 89.0382 125.739 88.8688 124.463 88.9636C123.188 89.0584 121.946 89.4154 120.815 90.0123C118.847 91.0816 119.109 92.3149 120.303 94.9126C119.109 97.3005 121.451 104.713 126.653 105.737C131.855 106.76 151.535 98.9405 146.057 94.4272Z" fill="#1C2D5E"/>
<path d="M119.252 93.1019C128.316 92.2156 137.463 92.7446 146.364 94.6698C147.753 94.9787 148.996 95.7497 149.89 96.8567C150.784 97.9637 151.275 99.3413 151.284 100.764C151.284 107.239 150.779 120.3 147.466 140.222C147.007 142.965 147.781 147.852 145.728 150.062C141.904 152.457 117.185 150.338 113.158 147.209C111.885 140.098 115.493 121.225 113.597 99.9112C113.453 98.2602 113.966 96.6189 115.024 95.3439C116.083 94.0689 117.602 93.2633 119.252 93.1019Z" fill="#1C2D5E"/>
<path opacity="0.1" d="M141.977 142.158C136.64 142.393 131.295 141.952 126.069 140.846C124.679 140.544 124.101 138.734 124.967 137.494C126.281 135.505 127.292 133.332 127.965 131.045C128.071 130.645 128.303 130.29 128.627 130.032C128.951 129.775 129.349 129.628 129.763 129.615C132.236 129.615 137.471 129.753 141.38 130.737C141.813 130.863 142.193 131.129 142.458 131.493C142.724 131.858 142.862 132.3 142.85 132.751C142.838 135.007 143.125 137.255 143.703 139.436C143.8 139.728 143.831 140.039 143.794 140.345C143.757 140.652 143.651 140.946 143.486 141.206C143.321 141.467 143.1 141.688 142.839 141.852C142.578 142.017 142.284 142.121 141.977 142.158Z" fill="white"/>
<path opacity="0.2" d="M114.144 110.007L117.811 106.354C118.054 108.413 116.361 116.79 114.059 120.09C114.144 116.876 114.203 113.504 114.144 110.007Z" fill="black"/>
<path d="M128.974 78.165C129.466 82.2257 129.682 89.317 127.006 92.7151C126.894 92.8536 126.814 93.0151 126.772 93.1879C126.73 93.3608 126.727 93.5408 126.763 93.7151C126.799 93.8893 126.872 94.0535 126.979 94.1959C127.086 94.3383 127.222 94.4554 127.379 94.5388C130.2 96.0048 133.32 96.8016 136.498 96.8676C137.777 96.9533 139.057 96.7282 140.231 96.2116C140.443 96.0971 140.617 95.9221 140.73 95.7088C140.843 95.4954 140.89 95.2533 140.866 95.0131C140.841 94.7728 140.746 94.5453 140.592 94.3593C140.438 94.1733 140.232 94.0371 140.001 93.9681C135.848 92.3543 136.334 88.9628 137.488 85.7943L128.974 78.165Z" fill="#FF8B7B"/>
<path opacity="0.2" d="M132.454 81.2876L137.511 85.814C137.215 86.6001 136.996 87.4129 136.855 88.2412C134.828 87.8804 132.191 85.6697 132.152 83.682C132.095 82.8718 132.198 82.0584 132.454 81.2876Z" fill="black"/>
<path d="M143.623 65.2354C145.263 67.4854 146.024 73.8552 144.312 76.3349C142.672 72.8449 140.605 66.2522 143.623 65.2354Z" fill="#1C2D5E"/>
<path d="M127.918 71.4609C128.056 77.5158 127.833 81.0713 130.772 84.2661C135.193 89.068 142.77 86.5227 144.45 80.5269C145.958 75.1345 145.479 66.1342 139.641 63.5561C138.349 62.9851 136.933 62.7511 135.526 62.876C134.12 63.0009 132.767 63.4806 131.596 64.2703C130.425 65.06 129.473 66.1339 128.83 67.3914C128.187 68.649 127.873 70.0492 127.918 71.4609Z" fill="#FF8B7B"/>
<path d="M130.687 68.3511C131.494 73.0415 129.506 73.3236 131.494 76.1575C130.725 77.3649 129.511 78.2206 128.115 78.5388C128.115 78.5388 124.015 78.5388 124.015 75.5015C123.94 75.7067 123.823 75.8941 123.671 76.0521C123.52 76.2101 123.338 76.3353 123.136 76.4199C123.136 76.4199 122.658 71.1719 124.908 69.9124C126.856 71.4474 130.687 68.3511 130.687 68.3511Z" fill="#1C2D5E"/>
<path d="M144.045 63.3855C145.731 67.1313 140.45 69.2895 138.194 69.9455C139.663 68.0628 139.368 67.1903 139.368 67.1903C139.368 67.1903 137.4 69.775 131.988 70.5097C132.468 69.2436 133.218 68.0974 134.186 67.151C134.186 67.151 131.293 70.818 125.323 71.0476C123.408 70.1489 121.879 64.3171 127.239 64.2121C132.086 59.8431 141.375 57.4422 144.045 63.3855Z" fill="#1C2D5E"/>
<path d="M124.414 68.8496C122.354 70.2403 123.102 71.3096 122.164 72.064C123.542 72.392 124.749 70.4896 124.749 70.4896L124.414 68.8496Z" fill="#1C2D5E"/>
<path d="M125.762 77.8831C126.426 79.0915 127.527 79.9999 128.839 80.4218C130.499 80.9072 131.181 79.2541 130.59 77.5288C130.059 75.9807 128.557 73.8552 126.95 74.1308C125.342 74.4063 124.896 76.348 125.762 77.8831Z" fill="#FF8B7B"/>
<path d="M136.512 73.1599C136.512 73.6519 136.741 74.0586 137.063 74.0718C137.384 74.0849 137.66 73.6913 137.679 73.1993C137.699 72.7073 137.45 72.3005 137.128 72.2874C136.807 72.2743 136.531 72.6679 136.512 73.1599Z" fill="#1C2D5E"/>
<path d="M142.605 73.2124C142.605 73.7044 142.829 74.1111 143.15 74.1243C143.471 74.1374 143.753 73.7372 143.767 73.2452C143.78 72.7532 143.544 72.3465 143.222 72.3399C142.901 72.3334 142.619 72.7204 142.605 73.2124Z" fill="#1C2D5E"/>
<path d="M140.802 73.7632C140.802 73.7632 141.819 76.6365 143 78.0469C142.094 78.8341 140.625 78.4142 140.625 78.4142L140.802 73.7632Z" fill="#FF5652"/>
<path d="M138.951 80.507C138.398 80.4992 137.854 80.3789 137.349 80.1533C136.845 79.9277 136.392 79.6016 136.018 79.195C135.992 79.1679 135.977 79.1314 135.977 79.0933C135.977 79.0552 135.992 79.0186 136.018 78.9916C136.031 78.9775 136.047 78.9662 136.065 78.9585C136.082 78.9508 136.101 78.9468 136.12 78.9468C136.139 78.9468 136.158 78.9508 136.176 78.9585C136.193 78.9662 136.209 78.9775 136.222 78.9916C136.643 79.4354 137.164 79.7732 137.741 79.9773C138.317 80.1814 138.935 80.246 139.541 80.1658C139.578 80.1621 139.616 80.173 139.645 80.1963C139.675 80.2195 139.694 80.2533 139.699 80.2905C139.702 80.3295 139.691 80.3684 139.666 80.3991C139.642 80.4297 139.606 80.4495 139.567 80.4545C139.363 80.4837 139.157 80.5012 138.951 80.507Z" fill="#1C2D5E"/>
<path d="M137.583 70.3256C137.628 70.3455 137.665 70.3802 137.688 70.424C137.708 70.4562 137.722 70.492 137.727 70.5294C137.733 70.5668 137.732 70.605 137.722 70.6417C137.713 70.6784 137.697 70.7129 137.674 70.7432C137.651 70.7734 137.623 70.7987 137.59 70.8176C137.202 71.0618 136.762 71.2101 136.306 71.25C135.849 71.2899 135.39 71.2204 134.966 71.0472C134.897 71.0133 134.845 70.9535 134.82 70.8809C134.795 70.8083 134.801 70.7289 134.835 70.6602C134.868 70.5915 134.928 70.539 135.001 70.5144C135.073 70.4898 135.153 70.4951 135.222 70.529C135.562 70.6626 135.929 70.7138 136.292 70.6785C136.656 70.6431 137.006 70.5222 137.314 70.3256C137.356 70.3032 137.402 70.2915 137.449 70.2915C137.496 70.2915 137.542 70.3032 137.583 70.3256Z" fill="#1C2D5E"/>
<path d="M145.06 70.0439C145.013 70.0496 144.966 70.0443 144.921 70.0284C144.877 70.0124 144.837 69.9863 144.804 69.952C144.57 69.6757 144.274 69.4594 143.94 69.3213C143.605 69.1832 143.243 69.1273 142.882 69.1583C142.806 69.1695 142.729 69.1503 142.668 69.1048C142.606 69.0593 142.565 68.9912 142.554 68.9155C142.543 68.8391 142.562 68.7612 142.607 68.6987C142.652 68.6361 142.721 68.5939 142.797 68.581C143.253 68.5371 143.712 68.6037 144.137 68.7749C144.562 68.9462 144.939 69.2172 145.237 69.565C145.272 69.6041 145.296 69.652 145.306 69.7036C145.316 69.7552 145.311 69.8086 145.293 69.8578C145.275 69.9071 145.243 69.9505 145.202 69.9832C145.161 70.016 145.112 70.037 145.06 70.0439Z" fill="#1C2D5E"/>
<path d="M122.912 105.002C122.61 105.218 122.203 105.533 121.843 105.815L120.734 106.707C119.993 107.304 119.258 107.921 118.536 108.544C117.087 109.791 115.696 111.089 114.371 112.415C113.072 113.707 111.839 115.064 110.678 116.482C109.632 117.742 108.715 119.105 107.942 120.549C107.798 120.864 107.653 121.205 107.542 121.448C107.43 121.69 107.319 122.104 107.22 122.458C107.025 123.26 106.878 124.072 106.781 124.892C106.573 126.719 106.483 128.557 106.512 130.396C106.512 132.298 106.623 134.233 106.774 136.168C106.925 138.104 107.174 140.104 107.43 141.928V142.02C107.594 143.011 107.365 144.026 106.791 144.851C106.218 145.675 105.346 146.244 104.36 146.435C103.374 146.627 102.352 146.426 101.512 145.876C100.672 145.326 100.079 144.469 99.8601 143.489C99.3484 141.344 98.9548 139.337 98.5874 137.244C98.2201 135.152 97.8986 133.059 97.6756 130.907C97.4316 128.701 97.3287 126.481 97.3673 124.262C97.3944 123.057 97.4929 121.854 97.6625 120.66C97.7543 120.004 97.8724 119.348 98.0364 118.692C98.2045 118.027 98.4059 117.37 98.6399 116.724C99.5153 114.462 100.635 112.302 101.979 110.283C103.196 108.418 104.51 106.618 105.915 104.89C107.293 103.191 108.723 101.577 110.179 99.9965C110.905 99.2049 111.646 98.4243 112.403 97.6546L113.544 96.5C113.944 96.113 114.299 95.7587 114.771 95.3192L114.882 95.2208C116.119 94.1229 117.737 93.5533 119.389 93.634C121.041 93.7147 122.595 94.4393 123.719 95.6525C124.843 96.8657 125.447 98.471 125.402 100.124C125.356 101.777 124.665 103.347 123.476 104.497C123.297 104.675 123.109 104.844 122.912 105.002Z" fill="#1C2D5E"/>
<path d="M101.121 144.106C101.237 143.78 101.434 143.489 101.693 143.259C101.952 143.03 102.266 142.87 102.604 142.794L104.572 142.328C105.045 142.216 105.542 142.273 105.978 142.488C106.414 142.704 106.761 143.065 106.959 143.509L107.327 144.323C108.387 146.684 108.945 149.239 108.967 151.827C108.968 152.113 108.913 152.395 108.805 152.659C108.696 152.923 108.536 153.163 108.334 153.364C108.132 153.566 107.892 153.725 107.628 153.833C107.364 153.941 107.081 153.995 106.795 153.992H104.171C103.663 153.988 103.173 153.803 102.79 153.47C102.406 153.137 102.154 152.678 102.079 152.175L101.613 149.112C101.613 149.112 100.406 146.199 101.121 144.106Z" fill="#FF8B7B"/>
<path opacity="0.3" d="M81.475 283.204L81.9998 282.26C82.0828 282.125 82.1949 282.011 82.3278 281.925C82.2899 281.819 82.2738 281.706 82.2806 281.593C82.2874 281.48 82.3168 281.37 82.3671 281.269L84.8468 276.139C85.6553 273.833 86.3429 271.485 86.9066 269.107L85.739 268.95L85.9292 264.941L86.9788 265.073C89.2945 257.096 99.0558 226.723 105.944 208.243C111.29 180.77 106.987 160.185 113.16 147.235C112.314 142.486 113.645 132.456 114.058 119.959C114.058 119.381 114.058 118.785 114.104 118.194V117.322V116.154C114.104 115.498 114.104 114.796 114.104 114.101V112.651C112.865 113.91 111.677 115.196 110.634 116.495C109.583 117.753 108.664 119.116 107.892 120.562C107.748 120.877 107.603 121.179 107.492 121.461C107.38 121.743 107.269 122.117 107.17 122.471C106.978 123.274 106.831 124.086 106.731 124.905C106.524 126.732 106.432 128.57 106.455 130.409C106.455 132.305 106.574 134.246 106.724 136.188C106.875 138.13 107.125 140.124 107.38 141.941V142.053C107.477 142.742 107.386 143.444 107.118 144.086L107.243 144.369C108.293 146.707 108.849 149.237 108.876 151.801C108.879 152.087 108.824 152.37 108.716 152.634C108.608 152.898 108.448 153.138 108.246 153.34C108.043 153.542 107.803 153.701 107.538 153.808C107.274 153.916 106.99 153.969 106.705 153.966H104.081C103.572 153.963 103.081 153.779 102.697 153.445C102.314 153.112 102.062 152.652 101.988 152.149L101.522 149.092C101.047 147.896 100.811 146.619 100.827 145.333C100.327 144.836 99.9764 144.209 99.8167 143.522C99.305 141.377 98.918 139.37 98.5375 137.271C98.157 135.171 97.8815 133.098 97.6322 130.947C97.3951 128.738 97.2922 126.516 97.3239 124.295C97.351 123.09 97.4496 121.887 97.6191 120.693C97.711 120.064 97.8356 119.408 97.993 118.725C98.1636 118.03 98.3735 117.413 98.5966 116.757C99.4697 114.495 100.587 112.335 101.929 110.316C103.145 108.452 104.459 106.654 105.865 104.93C107.243 103.224 108.673 101.61 110.122 100.029C110.857 99.2357 111.592 98.4551 112.353 97.6876L113.494 96.533C113.894 96.146 114.249 95.7917 114.721 95.3522L114.859 95.2276C115.04 95.0585 115.233 94.9029 115.436 94.7618C115.521 94.6962 115.626 94.6372 115.725 94.5716C116.698 93.7526 117.896 93.2472 119.162 93.1218H119.47C119.031 91.6983 119.267 90.8258 120.723 90.0517C122.803 88.9497 125.932 88.4839 128.405 89.6188C129.052 87.1789 129.33 84.656 129.232 82.1338C128.957 81.5546 128.737 80.9505 128.576 80.3298C127.459 79.897 126.516 79.1085 125.893 78.0863C125.348 77.9086 124.873 77.5627 124.537 77.0983C124.201 76.6339 124.021 76.0748 124.023 75.5017C123.947 75.7068 123.83 75.8943 123.679 76.0523C123.528 76.2103 123.346 76.3355 123.144 76.4201C123.015 74.8352 123.171 73.24 123.603 71.71C123.402 71.8646 123.172 71.9764 122.926 72.0385C122.68 72.1005 122.424 72.1115 122.173 72.0708C123.013 71.4148 122.501 70.4504 123.905 69.2368C123.105 67.2032 123.459 64.2709 127.238 64.2053C132.092 59.8429 141.381 57.442 144.051 63.3788C144.323 63.9571 144.417 64.6034 144.32 65.2353C143.39 65.1339 142.45 65.2141 141.551 65.4714C136.303 66.954 134.034 69.8404 132.512 74.8325C130.99 79.8247 130.426 86.588 132.794 88.1296C133.986 88.8112 135.368 89.0852 136.73 88.9103C136.73 89.1399 136.697 89.3564 136.697 89.5663C136.697 89.7986 136.71 90.0308 136.736 90.2616C137.701 90.2616 138.534 90.2616 139.085 90.2616C141.243 90.3469 143.946 92.6692 146.052 94.4076C146.137 94.4863 146.209 94.565 146.281 94.6437H146.36C147.652 94.9382 148.821 95.6257 149.706 96.6117C150.047 96.8769 150.36 97.1782 150.637 97.5105C151.838 98.9209 153.215 100.43 154.573 101.853C155.931 103.277 157.295 104.661 158.693 105.973C160.025 107.251 161.422 108.46 162.878 109.594C163.491 110.064 164.128 110.502 164.787 110.906C165.069 111.077 165.286 111.168 165.397 111.241H165.561C165.85 111.162 166.217 111.057 166.571 110.919C167.376 110.603 168.164 110.246 168.933 109.85C170.566 109.023 172.213 108.033 173.899 106.99C177.179 104.91 180.524 102.555 183.627 100.148L183.68 100.108C184.131 99.7643 184.652 99.5238 185.206 99.4036C185.761 99.2835 186.335 99.2866 186.888 99.4129L188.711 98.2386C189.86 97.4917 191.151 96.9913 192.503 96.7692L194.3 96.4674C194.504 96.4493 194.707 96.5073 194.87 96.6301C195.034 96.7529 195.146 96.9318 195.185 97.1324C195.224 97.333 195.187 97.541 195.082 97.7162C194.977 97.8914 194.811 98.0214 194.615 98.0812C189.052 99.7343 181.915 103.578 176.608 107.613C171.301 111.647 166.007 115.288 163.377 119.237C163.077 119.698 162.626 120.04 162.102 120.204C161.577 120.368 161.012 120.344 160.503 120.136H160.451C159.277 119.634 158.139 119.051 157.046 118.391C155.123 117.218 153.262 115.946 151.47 114.58C151.214 114.389 150.972 114.193 150.729 114.002C150.676 114.599 150.63 115.209 150.585 115.833C145.291 112.933 134.972 111.857 130.052 112.349C124.902 112.867 121.458 114.363 119.858 119.624C118.257 124.885 116.578 147.616 119.234 152.726C124.876 163.563 135.884 161.083 139.57 172.275C143.834 185.178 142.818 201.578 140.738 220.038C139.236 233.329 137.137 260.166 135.962 265.958C134.788 271.751 132.682 280.39 136.618 282.017C139.242 283.119 145.56 284.162 149.141 283.611C149.061 284.076 148.847 284.507 148.525 284.851C148.626 284.905 148.712 284.983 148.776 285.078C148.84 285.172 148.88 285.282 148.892 285.395L148.977 286.412C148.983 286.502 148.97 286.591 148.939 286.675C148.909 286.76 148.861 286.837 148.8 286.902C148.738 286.967 148.664 287.019 148.582 287.054C148.5 287.09 148.411 287.108 148.321 287.108H130.137C130.052 287.112 129.967 287.095 129.889 287.058C129.812 287.021 129.745 286.966 129.695 286.897C129.644 286.828 129.611 286.748 129.599 286.663C129.587 286.579 129.596 286.493 129.625 286.412L129.894 285.395C129.935 285.252 130.014 285.122 130.124 285.022C129.997 284.828 129.95 284.593 129.993 284.366L131.075 278.921C131.272 276.503 131.335 274.077 131.265 271.652H129.822L129.127 267.664L130.176 267.631C130.262 258.447 130.773 223.961 133.384 208.991C133.023 206.971 132.643 204.904 132.243 202.812C131.114 196.908 129.855 190.735 128.602 184.778C126.273 193.778 123.905 202.641 122.042 208.866C117.194 225.319 102.434 258.217 98.6294 266.483L99.5543 266.588L97.9078 270.603L96.1694 270.36C95.415 272.131 94.2538 274.794 93.6306 275.975C95.7488 278.039 98.2223 279.704 100.932 280.889C102.244 281.486 101.877 283.657 100.558 284.543C100.642 284.614 100.706 284.706 100.745 284.809C100.784 284.912 100.797 285.024 100.781 285.133L100.604 286.137C100.57 286.319 100.467 286.48 100.317 286.588C100.166 286.696 99.9801 286.741 99.797 286.714L81.7833 283.919C81.7081 283.905 81.6376 283.872 81.578 283.824C81.5183 283.775 81.4713 283.713 81.4409 283.643C81.4106 283.573 81.3978 283.496 81.4038 283.42C81.4097 283.343 81.4341 283.269 81.475 283.204ZM165.377 111.332C165.34 111.329 165.303 111.329 165.266 111.332C165.056 111.332 164.997 111.332 165.003 111.365C165.01 111.398 165.167 111.352 165.377 111.306V111.332Z" fill="black"/>
<path opacity="0.09" d="M192.737 179.419C217.214 179.419 237.057 159.576 237.057 135.099C237.057 110.622 217.214 90.7798 192.737 90.7798C168.26 90.7798 148.418 110.622 148.418 135.099C148.418 159.576 168.26 179.419 192.737 179.419Z" fill="#FF5C8A"/>
<path opacity="0.09" d="M192.736 165.249C209.387 165.249 222.885 151.75 222.885 135.099C222.885 118.448 209.387 104.949 192.736 104.949C176.084 104.949 162.586 118.448 162.586 135.099C162.586 151.75 176.084 165.249 192.736 165.249Z" fill="#FF5C8A"/>
<path d="M192.739 114.527C194.757 114.527 196.694 115.329 198.122 116.756C199.55 118.183 200.353 120.118 200.355 122.137H185.129C185.129 120.119 185.931 118.183 187.358 116.756C188.785 115.329 190.72 114.527 192.739 114.527Z" fill="#FF5C8A"/>
<path d="M184.189 124.767H201.291C201.422 124.771 201.552 124.735 201.663 124.664C201.773 124.593 201.86 124.49 201.912 124.369C201.963 124.248 201.977 124.115 201.952 123.986C201.927 123.856 201.863 123.738 201.77 123.646L200.353 122.137H185.127L183.678 123.619C183.57 123.711 183.496 123.835 183.465 123.973C183.434 124.111 183.449 124.255 183.506 124.384C183.564 124.513 183.661 124.62 183.784 124.689C183.907 124.758 184.049 124.785 184.189 124.767Z" fill="#FF5C8A"/>
<path d="M192.739 153.546C192.661 153.548 192.583 153.537 192.509 153.513L178.431 149.4C177.127 149.016 176.027 148.133 175.369 146.944C174.71 145.754 174.548 144.353 174.915 143.043L180.695 122.576C181.001 121.495 181.652 120.543 182.548 119.865C183.444 119.187 184.537 118.819 185.661 118.817H199.817C200.942 118.819 202.035 119.186 202.933 119.864C203.83 120.543 204.482 121.495 204.79 122.576L210.569 143.043C210.935 144.353 210.77 145.755 210.111 146.944C209.452 148.134 208.351 149.016 207.046 149.4L192.975 153.513C192.899 153.537 192.819 153.548 192.739 153.546ZM185.647 120.464C184.884 120.468 184.142 120.72 183.532 121.181C182.923 121.642 182.48 122.288 182.269 123.022L176.49 143.49C176.24 144.381 176.351 145.335 176.799 146.145C177.247 146.956 177.996 147.557 178.884 147.819L192.726 151.86L206.574 147.819C207.461 147.555 208.209 146.954 208.657 146.144C209.105 145.334 209.216 144.381 208.968 143.49L203.189 123.022C202.977 122.287 202.533 121.64 201.923 121.179C201.312 120.718 200.569 120.467 199.804 120.464H185.647Z" fill="#FF5C8A"/>
<path opacity="0.2" d="M183.023 133.833C183.023 140.058 187.379 146.376 192.745 146.376C198.111 146.376 202.467 140.058 202.467 133.833C202.467 127.608 198.111 123.816 192.739 123.816C187.366 123.816 183.023 127.601 183.023 133.833Z" fill="#FF5C8A"/>
<path opacity="0.1" d="M192.739 114.527C194.757 114.527 196.694 115.328 198.122 116.755C199.55 118.182 200.353 120.118 200.355 122.136H185.129C185.129 120.118 185.931 118.183 187.358 116.756C188.785 115.329 190.72 114.527 192.739 114.527Z" fill="black"/>
<path opacity="0.2" d="M201.773 123.645L200.356 122.143H185.131L183.707 123.645" fill="black"/>
<path opacity="0.3" d="M183.68 123.619H201.747C201.84 123.712 201.904 123.83 201.929 123.959C201.954 124.088 201.94 124.222 201.888 124.343C201.837 124.464 201.75 124.566 201.639 124.637C201.529 124.708 201.399 124.744 201.268 124.741H184.192C184.058 124.752 183.924 124.721 183.808 124.652C183.692 124.584 183.599 124.482 183.544 124.359C183.488 124.237 183.471 124.1 183.495 123.968C183.52 123.835 183.584 123.714 183.68 123.619Z" fill="white"/>
<path d="M185.563 126.814H199.923C199.998 126.814 200.072 126.797 200.139 126.764C200.207 126.732 200.266 126.684 200.313 126.626C200.359 126.567 200.392 126.499 200.409 126.426C200.425 126.353 200.425 126.277 200.409 126.204L200.081 124.767H185.406L185.071 126.204C185.054 126.277 185.054 126.354 185.071 126.427C185.088 126.501 185.122 126.57 185.169 126.628C185.216 126.687 185.277 126.734 185.345 126.766C185.413 126.799 185.488 126.815 185.563 126.814Z" fill="#FF5C8A"/>
<path opacity="0.3" d="M184.789 148.718H200.697L198.742 146.094H186.737L184.789 148.718Z" fill="white"/>
<path d="M181.781 157.574H203.698L202.832 155.829C202.698 155.565 202.494 155.343 202.241 155.188C201.989 155.033 201.698 154.95 201.402 154.95H184.077C183.781 154.949 183.49 155.03 183.237 155.186C182.984 155.341 182.78 155.564 182.647 155.829L181.781 157.574Z" fill="#FF5C8A"/>
<path d="M198.23 144.041H187.248C187.196 144.041 187.145 144.052 187.098 144.074C187.051 144.096 187.009 144.129 186.976 144.169C186.943 144.209 186.919 144.256 186.906 144.306C186.893 144.357 186.891 144.409 186.901 144.46L187.202 146.094H198.276L198.577 144.46C198.587 144.409 198.585 144.357 198.572 144.306C198.559 144.256 198.535 144.209 198.502 144.169C198.469 144.129 198.427 144.096 198.38 144.074C198.333 144.052 198.282 144.041 198.23 144.041Z" fill="#FF5C8A"/>
<path opacity="0.1" d="M184.781 154.943H200.695V148.711H184.781V154.943Z" fill="black"/>
<path d="M185.908 142.886C185.829 142.887 185.751 142.864 185.685 142.821C185.618 142.778 185.566 142.716 185.534 142.643C185.51 142.595 185.496 142.542 185.493 142.488C185.49 142.434 185.498 142.38 185.516 142.329C185.534 142.278 185.563 142.232 185.6 142.192C185.637 142.152 185.681 142.121 185.731 142.099C193.813 138.334 201.081 128.979 201.153 128.854C201.221 128.769 201.319 128.713 201.427 128.699C201.535 128.686 201.644 128.716 201.731 128.782C201.774 128.814 201.811 128.855 201.839 128.902C201.867 128.949 201.885 129 201.892 129.054C201.899 129.108 201.896 129.163 201.882 129.215C201.867 129.268 201.843 129.317 201.809 129.359C201.731 129.458 194.344 138.99 186.065 142.847C186.016 142.87 185.963 142.884 185.908 142.886Z" fill="#FF5C8A"/>
<path d="M199.573 142.886C199.512 142.885 199.452 142.872 199.396 142.846C191.131 138.989 183.744 129.457 183.652 129.359C183.586 129.273 183.556 129.164 183.57 129.056C183.583 128.947 183.639 128.849 183.724 128.782C183.812 128.715 183.922 128.685 184.031 128.698C184.14 128.712 184.24 128.768 184.308 128.854C184.38 128.952 191.649 138.333 199.731 142.099C199.78 142.121 199.824 142.153 199.86 142.193C199.897 142.232 199.925 142.279 199.943 142.33C199.961 142.38 199.969 142.434 199.967 142.488C199.964 142.542 199.951 142.594 199.928 142.643C199.897 142.712 199.847 142.771 199.785 142.814C199.722 142.857 199.649 142.882 199.573 142.886Z" fill="#FF5C8A"/>
<path d="M202.646 119.847C202.278 119.847 201.919 119.738 201.614 119.534C201.309 119.33 201.071 119.04 200.93 118.701C200.79 118.362 200.753 117.989 200.825 117.629C200.896 117.268 201.073 116.938 201.333 116.678C201.592 116.418 201.923 116.242 202.283 116.17C202.643 116.098 203.017 116.135 203.356 116.276C203.695 116.416 203.985 116.654 204.189 116.959C204.393 117.265 204.502 117.624 204.502 117.991C204.502 118.483 204.306 118.955 203.958 119.303C203.61 119.652 203.138 119.847 202.646 119.847ZM202.646 116.961C202.442 116.961 202.243 117.021 202.073 117.134C201.904 117.248 201.772 117.408 201.694 117.597C201.616 117.785 201.596 117.992 201.635 118.192C201.675 118.391 201.773 118.575 201.917 118.719C202.061 118.863 202.245 118.961 202.445 119.001C202.644 119.041 202.851 119.02 203.04 118.942C203.228 118.864 203.389 118.732 203.502 118.563C203.615 118.394 203.675 118.194 203.675 117.991C203.675 117.718 203.567 117.456 203.374 117.263C203.181 117.069 202.919 116.961 202.646 116.961Z" fill="#FF5C8A"/>
<path d="M182.834 119.847C182.467 119.846 182.109 119.736 181.805 119.531C181.5 119.326 181.263 119.036 181.124 118.697C180.984 118.357 180.948 117.984 181.021 117.625C181.093 117.265 181.271 116.935 181.53 116.676C181.79 116.417 182.121 116.241 182.481 116.169C182.841 116.098 183.214 116.136 183.553 116.276C183.892 116.417 184.181 116.655 184.385 116.96C184.589 117.265 184.697 117.624 184.697 117.991C184.697 118.235 184.649 118.477 184.555 118.703C184.462 118.928 184.324 119.133 184.151 119.306C183.978 119.478 183.773 119.615 183.547 119.708C183.321 119.801 183.079 119.848 182.834 119.847ZM182.834 116.961C182.631 116.962 182.432 117.024 182.264 117.138C182.095 117.252 181.964 117.413 181.887 117.601C181.811 117.789 181.791 117.996 181.832 118.196C181.872 118.395 181.971 118.578 182.115 118.721C182.259 118.865 182.443 118.962 182.642 119.001C182.842 119.041 183.049 119.02 183.236 118.942C183.424 118.863 183.585 118.731 183.698 118.562C183.811 118.393 183.871 118.194 183.871 117.991C183.871 117.855 183.844 117.72 183.792 117.595C183.74 117.47 183.663 117.356 183.567 117.26C183.47 117.164 183.356 117.089 183.23 117.037C183.105 116.986 182.97 116.96 182.834 116.961Z" fill="#FF5C8A"/>
<path d="M202.645 116.961C202.547 116.961 202.452 116.925 202.378 116.862C202.303 116.798 202.254 116.71 202.238 116.613L200.185 104.031C200.149 103.807 200.046 103.599 199.889 103.434C199.732 103.27 199.529 103.158 199.306 103.113L194.248 102.024C193.256 101.807 192.229 101.807 191.237 102.024L186.173 103.113C185.951 103.16 185.748 103.272 185.592 103.436C185.435 103.6 185.331 103.807 185.294 104.031L183.247 116.613C183.23 116.722 183.17 116.819 183.081 116.884C182.991 116.948 182.88 116.975 182.771 116.958C182.663 116.94 182.565 116.88 182.501 116.791C182.436 116.702 182.41 116.591 182.427 116.482L184.48 103.9C184.546 103.513 184.726 103.154 184.997 102.87C185.268 102.586 185.619 102.389 186.002 102.306L191.06 101.217C192.167 100.975 193.312 100.975 194.419 101.217L199.483 102.306C199.866 102.39 200.214 102.587 200.484 102.871C200.754 103.155 200.933 103.514 200.998 103.9L203.052 116.482C203.069 116.59 203.042 116.7 202.979 116.788C202.915 116.877 202.818 116.937 202.711 116.954L202.645 116.961Z" fill="#FF5C8A"/>
<path d="M184.789 148.718H200.697L198.742 146.094H186.737L184.789 148.718Z" fill="#FF5C8A"/>
<path d="M184.781 154.943H200.695V148.711H184.781V154.943Z" fill="#FF5C8A"/>
</svg>
