<svg width="329" height="329" viewBox="0 0 329 329" fill="none" xmlns="http://www.w3.org/2000/svg">
<path d="M192.124 95.4508C188.413 90.4289 189.272 86.044 192.124 82.8898C195.68 78.9317 201.487 78.9626 205.359 80.985C211.42 84.1453 212.724 97.9927 202.6 99.947C199.008 98.6929 195.507 97.1906 192.124 95.4508Z" fill="#263238"/>
<path d="M204.178 81.8575C207.889 79.6743 206.856 75.4379 210.208 73.199C214.871 70.1067 224.921 71.4488 221.779 79.1795C218.637 86.9103 229.819 87.3556 226.572 95.0369C223.325 102.718 213.894 107.406 211.469 96.2738C209.657 87.9308 217.357 77.1819 211.142 78.3384C207.264 79.0559 205.971 83.0449 205.971 83.0449L204.178 81.8575Z" fill="#263238"/>
<path d="M194.956 114.599C194.449 116.003 193.899 117.277 193.311 118.594C192.724 119.911 192.074 121.179 191.394 122.447C190.024 125.108 188.304 127.573 186.279 129.776C185.7 130.393 185.065 130.954 184.381 131.452C183.704 131.932 182.983 132.346 182.228 132.689C180.837 133.311 179.387 133.792 177.899 134.124C175.081 134.775 172.195 135.088 169.302 135.057C168.978 135.052 168.666 134.929 168.425 134.712C168.184 134.494 168.03 134.197 167.992 133.875C167.953 133.552 168.033 133.227 168.216 132.959C168.399 132.691 168.673 132.498 168.987 132.417H169.049C171.636 131.812 174.183 131.045 176.675 130.122C177.846 129.686 178.979 129.154 180.064 128.533C180.547 128.256 181.006 127.939 181.437 127.586C181.853 127.238 182.238 126.853 182.587 126.436C183.384 125.495 184.101 124.49 184.733 123.43C185.401 122.336 186.044 121.204 186.638 120.023C187.813 117.685 188.926 115.186 189.885 112.787V112.75C190.139 112.083 190.648 111.544 191.299 111.253C191.95 110.961 192.691 110.94 193.358 111.194C194.024 111.448 194.563 111.957 194.854 112.608C195.146 113.26 195.167 114 194.913 114.667L194.956 114.599Z" fill="#B55B52"/>
<path d="M194.154 110.022C189.045 110.603 186.231 118.266 186.231 118.266L191.464 125.638C191.464 125.638 197.648 118.631 198.186 115.501C198.724 112.279 197.927 109.583 194.154 110.022Z" fill="#1C2D5E"/>
<path opacity="0.2" d="M191.357 114.711C193.07 113.635 194.938 114.229 196.528 116.226C196.856 116.8 197.077 117.429 197.177 118.082C195.631 120.883 191.456 125.633 191.456 125.633L189.063 122.262C188.883 120.271 190.25 115.373 191.357 114.711Z" fill="#38499F"/>
<path d="M170.237 132.687L166.384 130.609L166.279 135.631C166.279 135.631 168.852 136.188 170.553 134.815L170.237 132.687Z" fill="#B55B52"/>
<path d="M162.521 130.783L163.195 134.883L166.305 135.631L166.411 130.609L162.521 130.783Z" fill="#B55B52"/>
<path d="M181.939 121.747L178.562 118.977L155.556 153.542L158.963 156.313C162.847 159.492 171.141 154.334 177.517 144.785C183.894 135.236 185.823 124.926 181.939 121.747Z" fill="#FF5C8A"/>
<path opacity="0.1" d="M181.939 121.747L178.562 118.977L155.556 153.542L158.963 156.313C162.847 159.492 171.141 154.334 177.517 144.785C183.894 135.236 185.823 124.926 181.939 121.747Z" fill="#38499F"/>
<path d="M174.692 141.089C180.83 131.388 182.389 121.362 178.175 118.695C173.961 116.029 165.569 121.732 159.431 131.434C153.293 141.135 151.734 151.161 155.948 153.828C160.162 156.494 168.554 150.791 174.692 141.089Z" fill="#FF5C8A"/>
<path d="M162.791 141.928L165.883 137.265C165.569 136.309 165.554 135.28 165.84 134.315C166.194 133.099 166.743 131.948 167.466 130.907C168.118 129.856 168.972 128.944 169.977 128.223C170.837 127.654 171.573 127.518 172.173 127.815L172.927 126.689L173.583 127.228L172.841 128.359C173.042 128.674 173.177 129.027 173.236 129.396C173.296 129.766 173.279 130.143 173.187 130.505C172.946 131.597 172.528 132.641 171.95 133.598L170.558 133.029C170.991 132.369 171.207 131.591 171.177 130.802L168.276 135.131C168.676 136.112 168.758 137.194 168.511 138.224C167.723 140.696 166.216 142.877 164.182 144.489C163.242 145.14 162.407 145.328 161.677 145.052L160.929 146.177L160.273 145.639L160.985 144.569C160.763 144.201 160.621 143.791 160.567 143.365C160.512 142.94 160.547 142.507 160.669 142.095C161.004 140.716 161.555 139.399 162.302 138.193L163.724 138.873C163.409 139.429 163.156 140.018 162.97 140.63C162.836 141.049 162.775 141.488 162.791 141.928ZM170.571 130.215C170.226 130.248 169.901 130.391 169.643 130.623C168.926 131.216 168.395 132.004 168.116 132.893C167.988 133.27 167.952 133.673 168.01 134.068L170.571 130.215ZM163.347 142.584C163.537 142.613 163.731 142.599 163.915 142.543C164.099 142.488 164.269 142.392 164.411 142.262C165.295 141.574 165.944 140.627 166.266 139.553C166.39 139.123 166.379 138.666 166.235 138.242L163.347 142.584Z" fill="white"/>
<path opacity="0.1" d="M177.548 130.449C178.006 127.419 177.548 124.988 176.113 123.794C172.953 121.203 166.218 125.409 161.016 133.183C158.83 136.385 157.217 139.942 156.248 143.697C156.78 140.147 158.543 135.774 161.332 131.575C166.508 123.801 173.268 119.601 176.428 122.186C178.135 123.578 178.445 126.676 177.548 130.449Z" fill="#38499F"/>
<path d="M222.387 245.75L217.192 246.245L214.545 234.141L219.74 233.646L222.387 245.75Z" fill="#B55B52"/>
<path d="M251.324 238.268L246.494 240.16L241.837 228.682L246.667 226.789L251.324 238.268Z" fill="#B55B52"/>
<path d="M245.091 237.785L250.385 235.15C250.476 235.105 250.58 235.094 250.679 235.118C250.777 235.143 250.864 235.203 250.923 235.286L253.607 239.176C253.675 239.277 253.72 239.391 253.74 239.511C253.76 239.631 253.754 239.753 253.722 239.871C253.691 239.988 253.634 240.097 253.557 240.191C253.479 240.284 253.382 240.36 253.273 240.413C251.417 241.304 250.601 241.743 248.269 242.887C246.835 243.598 243.637 245.274 241.658 246.257C239.679 247.241 238.603 245.336 239.339 244.748C242.635 242.12 243.724 240.135 244.447 238.471C244.575 238.174 244.802 237.931 245.091 237.785Z" fill="#1C2D5E"/>
<path d="M216.177 243.547H222.423C222.535 243.548 222.643 243.585 222.732 243.653C222.82 243.721 222.883 243.817 222.912 243.925L224.273 248.872C224.307 248.989 224.313 249.112 224.29 249.232C224.268 249.351 224.218 249.464 224.143 249.56C224.069 249.657 223.974 249.734 223.864 249.787C223.754 249.839 223.634 249.865 223.512 249.862C221.329 249.825 220.284 249.862 217.538 249.862H209.151C206.869 249.862 206.368 247.549 207.296 247.345C211.532 246.405 213.975 245.112 215.28 243.881C215.524 243.658 215.846 243.538 216.177 243.547Z" fill="#1C2D5E"/>
<path opacity="0.2" d="M214.551 234.147L215.911 240.382H221.218L219.746 233.646L214.551 234.147Z" fill="#38499F"/>
<path opacity="0.2" d="M246.667 226.793L241.837 228.685L244.243 234.598L249.067 232.705L246.667 226.793Z" fill="#38499F"/>
<path d="M210.011 104.796C214.142 104.32 216.814 106.287 216.999 110.412C217.543 124.952 219.151 128.298 221.582 135.818L200.981 141.552C193.658 125.694 191.086 118.217 190.269 114.698C190.099 113.88 190.202 113.029 190.562 112.275C190.922 111.521 191.518 110.906 192.261 110.523C197.745 107.469 203.776 105.523 210.011 104.796Z" fill="#1C2D5E"/>
<path d="M203.745 95.0488C203.992 98.2215 204.815 103.707 207.456 105.161C207.456 105.161 207.066 107.121 200.238 113.658C196.027 110.108 198.179 107.727 198.179 107.727C201.314 105.989 200.578 103.726 199.341 101.543L203.745 95.0488Z" fill="#B55B52"/>
<path opacity="0.2" d="M203.27 95.7617C203.721 97.5648 203.784 99.4429 203.456 101.272C203.221 102.509 201.872 103.449 200.363 103.987C200.157 103.128 199.819 102.306 199.361 101.551L203.27 95.7617Z" fill="#38499F"/>
<path d="M204.959 89.0564C205.967 94.1835 206.505 96.3295 204.637 99.5703C201.823 104.469 195.305 104.592 192.781 99.8671C190.512 95.6183 189.238 87.9494 193.653 84.6468C194.625 83.915 195.767 83.4437 196.971 83.2777C198.176 83.1117 199.403 83.2565 200.536 83.6984C201.669 84.1403 202.67 84.8645 203.444 85.8023C204.218 86.7401 204.74 87.8603 204.959 89.0564Z" fill="#B55B52"/>
<path d="M207.635 92.1801C207.71 92.6744 207.687 93.1788 207.566 93.664C207.445 94.1491 207.229 94.6055 206.93 95.0065C206.126 96.0764 204.914 95.5569 204.456 94.388C204.048 93.3243 203.968 91.4813 205.106 90.8381C205.355 90.7015 205.634 90.629 205.918 90.627C206.201 90.625 206.481 90.6937 206.732 90.8268C206.983 90.9599 207.197 91.1532 207.355 91.3895C207.512 91.6257 207.609 91.8974 207.635 92.1801Z" fill="#B55B52"/>
<path d="M200.461 86.3407C200.269 88.3012 201.84 91.6533 204.79 92.4326C207.845 88.9197 205.829 84.1019 203.021 84.0029C200.214 83.904 200.461 86.3407 200.461 86.3407Z" fill="#263238"/>
<path d="M196.342 80.9987C191.833 81.2028 186.997 83.2128 188.673 90.2757C192.606 89.4531 203.553 88.2285 204.394 85.4207C203.287 81.8151 199.298 80.8627 196.342 80.9987Z" fill="#263238"/>
<path d="M200.983 141.552C200.983 141.552 199.783 183.162 203.129 198.864C206.598 215.204 214.434 238.557 214.434 238.557L221.794 238.081C221.794 238.081 217.038 207.548 215.609 194.95C213.593 177.583 216.098 137.34 216.098 137.34L200.983 141.552Z" fill="#FF5C8A"/>
<path opacity="0.2" d="M211.345 154.564C211.679 150.791 214.524 151.515 215.161 156.624C214.882 164.664 214.684 173.996 214.845 182.166C211.778 176.173 210.584 163.148 211.345 154.564Z" fill="#38499F"/>
<path d="M222.726 238.557L213.864 239.157L212.633 235.001L222.225 233.986L222.726 238.557Z" fill="#1C2D5E"/>
<path d="M208.248 139.529C208.248 139.529 214.519 174.41 223.035 193.181C229.913 208.339 242.375 232.762 242.375 232.762L249.135 230.233C249.135 230.233 238.565 202.507 234.743 191.845C225.225 165.251 230.414 149.109 221.582 135.818L208.248 139.529Z" fill="#FF5C8A"/>
<path d="M249.933 230.876L242.134 233.591L239.914 229.596L249.197 227.295L249.933 230.876Z" fill="#1C2D5E"/>
<path d="M221.551 134.544L222.998 136.134C223.109 136.257 222.998 136.449 222.738 136.511L201.135 142.529C200.95 142.578 200.77 142.529 200.727 142.417L200.028 140.624C199.979 140.5 200.109 140.345 200.313 140.29L221.173 134.482C221.236 134.458 221.304 134.451 221.37 134.462C221.437 134.473 221.499 134.501 221.551 134.544Z" fill="#1C2D5E"/>
<path d="M219.399 137.636L219.962 137.475C220.073 137.444 220.141 137.364 220.11 137.296L219.183 134.977C219.183 134.908 219.047 134.878 218.935 134.908L218.373 135.063C218.261 135.063 218.193 135.174 218.218 135.242L219.152 137.568C219.177 137.636 219.288 137.667 219.399 137.636Z" fill="#FF5C8A"/>
<path d="M202.762 142.263L203.324 142.108C203.429 142.108 203.504 141.997 203.473 141.929L202.545 139.609C202.545 139.541 202.403 139.51 202.291 139.541L201.735 139.696C201.624 139.696 201.556 139.807 201.58 139.875L202.508 142.201C202.539 142.269 202.65 142.293 202.762 142.263Z" fill="#FF5C8A"/>
<path d="M211.081 139.95L211.644 139.796C211.755 139.765 211.823 139.684 211.792 139.616L210.864 137.291C210.864 137.223 210.722 137.192 210.611 137.223L210.054 137.378C209.943 137.378 209.875 137.495 209.9 137.563L210.833 139.882C210.858 139.95 210.97 139.981 211.081 139.95Z" fill="#FF5C8A"/>
<path d="M197.672 92.4883C197.777 92.9026 197.672 93.2923 197.381 93.3603C197.091 93.4283 196.806 93.1562 196.701 92.7418C196.596 92.3275 196.701 91.944 196.992 91.8698C197.282 91.7956 197.567 92.0615 197.672 92.4883Z" fill="#263238"/>
<path d="M193.026 93.6894C193.138 94.0976 193.026 94.4872 192.736 94.5614C192.445 94.6357 192.161 94.3512 192.055 93.943C191.95 93.5348 192.055 93.139 192.346 93.071C192.637 93.0029 192.921 93.2751 193.026 93.6894Z" fill="#263238"/>
<path d="M192.472 93.0641L191.414 93.0332C191.414 93.0332 192.119 93.6764 192.472 93.0641Z" fill="#263238"/>
<path d="M194.443 94.0723C194.322 95.1051 194.06 96.1164 193.664 97.078C193.912 97.173 194.178 97.2123 194.443 97.1931C194.708 97.1739 194.966 97.0966 195.198 96.9667L194.443 94.0723Z" fill="#A02724"/>
<path d="M197.016 98.2099C196.992 98.2057 196.97 98.1947 196.953 98.1783C196.935 98.1618 196.923 98.1405 196.917 98.1171C196.912 98.1017 196.911 98.0854 196.913 98.0694C196.915 98.0534 196.92 98.038 196.928 98.0241C196.936 98.0101 196.947 97.998 196.96 97.9885C196.973 97.979 196.988 97.9722 197.004 97.9687C197.518 97.8469 197.996 97.6052 198.399 97.2634C198.802 96.9216 199.119 96.4894 199.323 96.002C199.328 95.9858 199.336 95.9709 199.347 95.958C199.358 95.9452 199.371 95.9346 199.386 95.9271C199.401 95.9196 199.417 95.9152 199.434 95.9143C199.451 95.9133 199.468 95.9158 199.484 95.9216C199.514 95.9328 199.539 95.9548 199.554 95.9834C199.569 96.0119 199.572 96.045 199.564 96.0762C199.351 96.6028 199.015 97.0711 198.585 97.4421C198.155 97.8132 197.642 98.0764 197.09 98.2099C197.066 98.2171 197.04 98.2171 197.016 98.2099Z" fill="#263238"/>
<path d="M198.582 90.6333C198.538 90.6276 198.497 90.6081 198.464 90.5776C198.224 90.3766 197.939 90.2357 197.634 90.1669C197.328 90.0981 197.011 90.1032 196.708 90.1818C196.645 90.2014 196.576 90.1956 196.517 90.1656C196.458 90.1355 196.414 90.0836 196.392 90.021C196.381 89.9902 196.376 89.9574 196.377 89.9245C196.379 89.8916 196.387 89.8594 196.402 89.8299C196.416 89.8003 196.436 89.7741 196.461 89.7527C196.486 89.7313 196.516 89.7153 196.547 89.7056C196.93 89.6017 197.332 89.5913 197.719 89.6752C198.107 89.7592 198.468 89.935 198.773 90.188C198.815 90.2231 198.844 90.2706 198.856 90.3234C198.869 90.3762 198.864 90.4316 198.842 90.4815C198.821 90.5313 198.784 90.5729 198.737 90.6003C198.69 90.6276 198.636 90.6392 198.582 90.6333Z" fill="#263238"/>
<path d="M190.264 92.1054H190.214C190.183 92.095 190.155 92.0785 190.13 92.057C190.106 92.0354 190.086 92.0092 190.071 91.9799C190.057 91.9506 190.048 91.9187 190.046 91.8861C190.044 91.8535 190.049 91.8208 190.06 91.79C190.18 91.4122 190.39 91.0689 190.671 90.7891C190.951 90.5093 191.296 90.301 191.674 90.182C191.705 90.1736 191.738 90.1717 191.771 90.1762C191.803 90.1807 191.835 90.1916 191.863 90.2083C191.891 90.225 191.916 90.2471 191.935 90.2734C191.955 90.2997 191.969 90.3296 191.977 90.3613C191.992 90.4261 191.981 90.4941 191.946 90.5508C191.911 90.6075 191.856 90.6483 191.791 90.6644C191.497 90.7648 191.232 90.9339 191.017 91.1576C190.802 91.3814 190.643 91.6533 190.554 91.9508C190.533 92.0077 190.492 92.055 190.438 92.0835C190.385 92.112 190.323 92.1198 190.264 92.1054Z" fill="#263238"/>
<path d="M214.471 114.531C212.863 117.846 211.193 121.099 209.43 124.333C208.552 125.954 207.674 127.574 206.74 129.17C205.806 130.765 204.884 132.367 203.777 133.969C203.524 134.365 203.208 134.785 202.911 135.206L202.8 135.354L202.744 135.435L202.652 135.552C202.522 135.713 202.392 135.849 202.262 135.985C202.026 136.225 201.771 136.446 201.501 136.647C200.611 137.298 199.643 137.836 198.619 138.249C196.814 138.978 194.952 139.561 193.053 139.993C189.418 140.833 185.726 141.41 182.007 141.718L181.587 139.084C183.312 138.626 185.069 138.144 186.794 137.643C188.52 137.142 190.233 136.61 191.903 136.029C193.529 135.481 195.118 134.828 196.659 134.074C197.309 133.754 197.921 133.362 198.483 132.905C198.575 132.829 198.66 132.744 198.737 132.652C198.759 132.624 198.78 132.595 198.799 132.565L198.935 132.355C199.151 132.015 199.374 131.693 199.597 131.31C200.475 129.832 201.341 128.248 202.182 126.665L204.686 121.86L209.634 112.162L214.471 114.531Z" fill="#B55B52"/>
<path d="M183.28 139.109L179.638 137.711L179.947 142.85C179.947 142.85 182.81 142.85 184.134 141.088L183.28 139.109Z" fill="#B55B52"/>
<path d="M176.772 137.859L175.993 141.638L179.945 142.85L179.636 137.711L176.772 137.859Z" fill="#B55B52"/>
<path d="M209.986 107.455C207.951 108.389 205.589 116.843 205.589 116.843L214.402 117.845C214.402 117.845 216.109 113.738 215.763 111.63C215.243 108.259 212.305 106.391 209.986 107.455Z" fill="#1C2D5E"/>
<path d="M242.455 239.293C242.421 239.235 242.394 239.173 242.374 239.108C242.346 239.039 242.336 238.963 242.347 238.889C242.358 238.815 242.389 238.745 242.436 238.687C242.863 238.168 244.755 238.378 244.966 238.403C244.99 238.404 245.013 238.414 245.032 238.429C245.051 238.445 245.064 238.466 245.071 238.489C245.079 238.512 245.079 238.537 245.073 238.56C245.066 238.583 245.052 238.604 245.034 238.619C244.496 239.071 243.494 239.794 242.851 239.609C242.766 239.587 242.687 239.548 242.619 239.493C242.551 239.439 242.495 239.371 242.455 239.293ZM244.638 238.619C243.877 238.557 242.857 238.57 242.628 238.842C242.61 238.871 242.601 238.904 242.601 238.938C242.601 238.971 242.61 239.005 242.628 239.034C242.646 239.112 242.684 239.184 242.738 239.244C242.792 239.304 242.861 239.348 242.937 239.374C243.277 239.473 243.908 239.194 244.65 238.619H244.638Z" fill="#FF5C8A"/>
<path d="M242.917 237.587C242.894 237.542 242.875 237.494 242.862 237.445C242.836 237.349 242.843 237.247 242.883 237.156C242.922 237.066 242.991 236.991 243.078 236.944C243.159 236.891 243.25 236.857 243.345 236.843C243.44 236.829 243.537 236.836 243.629 236.863C244.365 237.061 245.045 238.416 245.076 238.471C245.087 238.49 245.092 238.511 245.092 238.533C245.092 238.555 245.087 238.576 245.076 238.595C245.063 238.613 245.047 238.627 245.027 238.637C245.008 238.647 244.986 238.651 244.965 238.651C244.178 238.55 243.452 238.173 242.917 237.587ZM244.717 238.335C244.464 237.89 243.994 237.216 243.561 237.098C243.504 237.08 243.444 237.075 243.385 237.084C243.326 237.092 243.27 237.114 243.22 237.148C243.084 237.234 243.084 237.315 243.103 237.37C243.196 237.729 244.111 238.23 244.736 238.36L244.717 238.335Z" fill="#FF5C8A"/>
<path d="M213.387 244.575C212.955 244.61 212.522 244.508 212.151 244.284C212.053 244.213 211.973 244.121 211.918 244.013C211.863 243.905 211.835 243.786 211.835 243.666C211.826 243.6 211.836 243.534 211.864 243.473C211.891 243.413 211.935 243.362 211.99 243.326C212.553 242.942 214.68 243.907 215.082 244.105C215.106 244.116 215.126 244.135 215.14 244.158C215.153 244.181 215.159 244.208 215.156 244.235C215.153 244.26 215.141 244.284 215.124 244.303C215.106 244.322 215.083 244.335 215.057 244.34C214.51 244.476 213.951 244.555 213.387 244.575ZM212.392 243.499C212.306 243.494 212.22 243.513 212.144 243.554C212.144 243.554 212.095 243.598 212.101 243.672C212.103 243.753 212.123 243.833 212.161 243.904C212.198 243.976 212.252 244.039 212.317 244.086C212.682 244.365 213.554 244.402 214.668 244.191C213.955 243.846 213.194 243.613 212.41 243.499H212.392Z" fill="#FF5C8A"/>
<path d="M215.087 244.365H215.038C214.333 244.08 212.91 242.936 212.991 242.348C212.991 242.219 213.096 242.058 213.417 242.021C214.654 241.872 215.186 244.13 215.211 244.222C215.215 244.245 215.213 244.268 215.205 244.29C215.198 244.311 215.185 244.331 215.168 244.346C215.144 244.361 215.115 244.367 215.087 244.365ZM213.535 242.25H213.448C213.318 242.25 213.25 242.305 213.238 242.367C213.195 242.707 214.178 243.604 214.895 244C214.728 243.462 214.283 242.25 213.535 242.25Z" fill="#FF5C8A"/>
<path d="M197.116 91.8711H196.052C196.052 91.8711 196.763 92.4896 197.116 91.8711Z" fill="#263238"/>
<path d="M199.546 249.869H233.388C233.621 249.869 233.844 249.962 234.009 250.126C234.174 250.291 234.266 250.514 234.266 250.747V253.605H198.674V250.747C198.674 250.516 198.766 250.293 198.929 250.129C199.092 249.964 199.314 249.871 199.546 249.869Z" fill="#1C2D5E"/>
<path d="M234.568 263.061H198.976V266.79H234.568V263.061Z" fill="#1C2D5E"/>
<path opacity="0.5" d="M234.57 263.061H211.037V266.79H234.57V263.061Z" fill="#38499F"/>
<path d="M214.463 253.597L210.462 278.645C210.428 278.851 210.323 279.038 210.164 279.174C210.006 279.31 209.804 279.385 209.596 279.387H207.635C207.509 279.387 207.383 279.359 207.268 279.306C207.153 279.253 207.051 279.175 206.969 279.079C206.887 278.982 206.826 278.869 206.792 278.748C206.757 278.626 206.75 278.498 206.769 278.373L210.734 253.572L214.463 253.597Z" fill="#1C2D5E"/>
<path opacity="0.5" d="M214.462 253.598L214.159 255.503H210.424L210.733 253.598H214.462Z" fill="#38499F"/>
<path d="M202.403 253.597L198.402 278.645C198.368 278.851 198.263 279.038 198.105 279.174C197.946 279.31 197.745 279.385 197.536 279.387H195.576C195.449 279.387 195.324 279.359 195.209 279.306C195.094 279.253 194.992 279.175 194.91 279.079C194.827 278.982 194.767 278.869 194.732 278.748C194.698 278.626 194.69 278.498 194.71 278.373L198.674 253.572L202.403 253.597Z" fill="#1C2D5E"/>
<path d="M238.224 278.398L234.265 253.598H230.555L234.538 278.645C234.57 278.852 234.675 279.04 234.834 279.176C234.992 279.312 235.194 279.387 235.403 279.388H237.358C237.482 279.387 237.605 279.36 237.718 279.308C237.831 279.256 237.932 279.181 238.013 279.088C238.095 278.994 238.156 278.884 238.193 278.765C238.229 278.646 238.239 278.521 238.224 278.398Z" fill="#1C2D5E"/>
<path opacity="0.5" d="M234.568 255.503L234.265 253.598H230.529L230.832 255.503H234.568Z" fill="#38499F"/>
<path d="M226.166 278.398L222.208 253.598H218.497L222.48 278.645C222.512 278.852 222.617 279.04 222.776 279.176C222.935 279.312 223.137 279.387 223.346 279.388H225.3C225.424 279.387 225.547 279.36 225.66 279.308C225.773 279.256 225.874 279.181 225.956 279.088C226.038 278.994 226.099 278.884 226.135 278.765C226.171 278.646 226.182 278.521 226.166 278.398Z" fill="#1C2D5E"/>
<path opacity="0.5" d="M226.166 278.398L222.208 253.598H218.497L222.48 278.645C222.512 278.852 222.617 279.04 222.776 279.176C222.935 279.312 223.137 279.387 223.346 279.388H225.3C225.424 279.387 225.547 279.36 225.66 279.308C225.773 279.256 225.874 279.181 225.956 279.088C226.038 278.994 226.099 278.884 226.135 278.765C226.171 278.646 226.182 278.521 226.166 278.398Z" fill="#38499F"/>
<path opacity="0.5" d="M210.733 249.869H233.388C233.621 249.869 233.844 249.962 234.009 250.126C234.173 250.291 234.266 250.514 234.266 250.747V253.605H210.764V249.894L210.733 249.869Z" fill="#38499F"/>
<path d="M106.259 276.006L111.213 266.914L93.4938 251.385L92.1084 276.006H106.259Z" fill="#FF5C8A"/>
<path opacity="0.1" d="M106.259 276.006L111.213 266.914L93.4938 251.385L92.1084 276.006H106.259Z" fill="black"/>
<path d="M167.324 172.406C177.263 165.603 185.587 166.302 188.352 168.287C191.116 170.273 182.334 185.351 182.334 185.351C179.05 184.397 176.01 182.747 173.42 180.513C170.83 178.28 168.751 175.515 167.324 172.406Z" fill="#FF5C8A"/>
<path opacity="0.2" d="M172.057 179.241C177.654 173.743 183.362 171.981 184.908 172.902C186.454 173.824 181.488 184.424 181.488 184.424C181.488 184.424 174.778 185.389 172.057 179.241Z" fill="black"/>
<path d="M80.97 193.732L80.4072 193.448C81.961 190.39 83.7888 187.479 85.8682 184.752L86.3692 185.135C84.3161 187.834 82.5091 190.711 80.97 193.732Z" fill="#FF5C8A"/>
<path d="M78.0276 200.72L77.4092 200.516C77.8792 199.137 78.4111 197.758 78.9924 196.422L79.5738 196.675C79.0172 197.987 78.4915 199.347 78.0276 200.72Z" fill="#FF5C8A"/>
<path d="M193.666 217.883C193.666 248.589 170.548 273.476 137.176 273.476C103.803 273.476 76.752 248.589 76.752 217.883C76.752 187.176 103.803 162.289 137.176 162.289C170.548 162.289 193.666 187.176 193.666 217.883Z" fill="#FF5C8A"/>
<path opacity="0.1" d="M129.124 267.588L126.706 272.647C128.454 272.931 130.229 273.138 132.031 273.265L129.124 267.588Z" fill="black"/>
<path d="M125.463 279.413L132.415 266.914L110.181 258.787L107.336 279.413H125.463Z" fill="#FF5C8A"/>
<path d="M157.846 279.413L151.822 266.914L172.992 258.787L174.396 279.413H157.846Z" fill="#FF5C8A"/>
<path opacity="0.2" d="M173.053 225.916C173.053 234.228 165.705 240.963 156.67 240.963C147.634 240.963 140.317 234.228 140.317 225.916C140.317 217.604 147.64 210.869 156.67 210.869C165.699 210.869 173.053 217.604 173.053 225.916Z" fill="black"/>
<path opacity="0.2" d="M151.239 230.841C152.772 230.841 154.016 228.526 154.016 225.67C154.016 222.815 152.772 220.5 151.239 220.5C149.705 220.5 148.462 222.815 148.462 225.67C148.462 228.526 149.705 230.841 151.239 230.841Z" fill="black"/>
<path opacity="0.4" d="M131.38 197.851C132.178 200.282 131.442 202.935 129.741 203.77C128.04 204.605 126.03 203.306 125.214 200.876C124.398 198.445 125.146 195.792 126.847 194.957C128.548 194.122 130.582 195.415 131.38 197.851Z" fill="black"/>
<path opacity="0.4" d="M174.426 197.962C173.808 200.393 174.569 203.015 176.102 203.813C177.636 204.611 179.368 203.287 179.974 200.85C180.58 198.414 179.832 195.798 178.298 195C176.764 194.202 175.045 195.526 174.426 197.962Z" fill="black"/>
<path opacity="0.2" d="M166.014 230.841C167.548 230.841 168.791 228.526 168.791 225.67C168.791 222.815 167.548 220.5 166.014 220.5C164.481 220.5 163.237 222.815 163.237 225.67C163.237 228.526 164.481 230.841 166.014 230.841Z" fill="black"/>
<path d="M119.512 171.9C108.744 162.982 99.1026 162.289 95.7753 163.91C92.448 165.53 101.1 183.014 101.1 183.014C101.1 183.014 112.913 182.321 119.512 171.9Z" fill="#FF5C8A"/>
<path opacity="0.2" d="M113.453 178.319C107.547 171.516 101.165 168.683 99.3029 169.388C97.4414 170.093 102.16 182.166 102.16 182.166C102.16 182.166 109.767 184.355 113.453 178.319Z" fill="black"/>
<path opacity="0.4" d="M141.259 167.126H150.357C150.357 167.126 148.377 164.949 141.661 164.287C137.857 163.978 134.029 164.186 130.281 164.906C130.281 164.906 137.777 164.739 141.259 167.126Z" fill="black"/>
</svg>
