<svg width="250" height="168" viewBox="0 0 250 168" fill="none" xmlns="http://www.w3.org/2000/svg">
<path d="M52.954 129.179C52.9032 128.918 48.0019 103.49 43.2165 100.104C38.569 96.8272 34.5159 101.33 34.3709 101.555L33.8271 101.083C33.8707 101.025 38.4602 95.8991 43.6298 99.5534C48.6617 103.099 53.4615 128.019 53.6645 129.077L52.954 129.179Z" fill="#FF5C8A"/>
<path d="M51.1344 131.276C51.1344 131.102 49.3218 113.621 43.6881 108.256C42.325 106.958 40.991 106.45 39.7221 106.748C36.7059 107.436 34.8425 112.316 34.828 112.367L34.1465 112.113C34.2262 111.895 36.1621 106.82 39.5554 106.037C41.078 105.689 42.6368 106.255 44.1884 107.726C49.9888 113.28 51.7869 130.478 51.8595 131.203L51.1344 131.276Z" fill="#FF5C8A"/>
<path d="M47.7558 102.891C47.7558 102.891 51.033 102.231 51.6638 105.066C52.2946 107.901 46.2114 116.891 46.2114 116.891C46.2114 116.891 40.6865 115.825 40.6865 108.56C40.6865 101.295 46.6682 101.274 47.7558 102.891Z" fill="#FF5C8A"/>
<path opacity="0.2" d="M47.7558 102.891C47.7558 102.891 51.033 102.231 51.6638 105.066C52.2946 107.901 46.2114 116.891 46.2114 116.891C46.2114 116.891 40.6865 115.825 40.6865 108.56C40.6865 101.295 46.6682 101.274 47.7558 102.891Z" fill="white"/>
<path d="M39.2941 108.37C39.2941 108.37 40.6137 106.92 38.8809 106.564C37.148 106.209 29.1507 107.696 30.318 115.671C30.318 115.671 39.9177 115.751 40.5992 112.532C41.2808 109.312 39.2941 108.37 39.2941 108.37Z" fill="#FF5C8A"/>
<path opacity="0.2" d="M39.2941 108.37C39.2941 108.37 40.6137 106.92 38.8809 106.564C37.148 106.209 29.1507 107.696 30.318 115.671C30.318 115.671 39.9177 115.751 40.5992 112.532C41.2808 109.312 39.2941 108.37 39.2941 108.37Z" fill="white"/>
<path d="M51.6202 94.7035C51.6202 94.7035 51.2505 93.2534 52.5411 93.6304C53.8316 94.0075 58.7402 97.8792 55.0715 102.853C55.0715 102.853 48.546 99.4453 49.2711 97.0527C49.9961 94.66 51.6202 94.7035 51.6202 94.7035Z" fill="#FF5C8A"/>
<path opacity="0.2" d="M51.6202 94.7035C51.6202 94.7035 51.2505 93.2534 52.5411 93.6304C53.8316 94.0075 58.7402 97.8792 55.0715 102.853C55.0715 102.853 48.546 99.4453 49.2711 97.0527C49.9961 94.66 51.6202 94.7035 51.6202 94.7035Z" fill="white"/>
<path d="M172.232 134.395L171.507 134.2C171.594 133.902 179.961 104.125 195.093 96.1055L195.433 96.7435C180.599 104.625 172.312 134.098 172.232 134.395Z" fill="#FF5C8A"/>
<path d="M172.37 131.028L171.71 130.724C171.862 130.412 186.298 98.8578 181.324 88.8376L181.969 88.5186C187.103 98.8433 172.972 129.723 172.37 131.028Z" fill="#FF5C8A"/>
<path d="M171.804 133.313L171.079 133.103C171.572 131.464 183.166 92.9567 190.583 88.2222L190.974 88.8312C183.811 93.4208 171.92 132.914 171.804 133.313Z" fill="#FF5C8A"/>
<path d="M183.935 90.0774C183.935 90.0774 186.11 90.6502 186.422 89.3524C186.734 88.0545 180.078 81.7321 173.371 85.2051C173.371 85.2051 174.386 91.484 178.678 93.1806C182.971 94.8773 183.935 90.0774 183.935 90.0774Z" fill="#FF5C8A"/>
<path opacity="0.2" d="M183.935 90.0774C183.935 90.0774 186.11 90.6502 186.422 89.3524C186.734 88.0545 180.078 81.7321 173.371 85.2051C173.371 85.2051 174.386 91.484 178.678 93.1806C182.971 94.8773 183.935 90.0774 183.935 90.0774Z" fill="white"/>
<path d="M188.988 88.4906C188.988 88.4906 186.755 88.6791 186.675 87.316C186.596 85.9529 194.252 80.9138 200.227 85.5034C200.227 85.5034 198.124 91.5068 193.6 92.4566C189.075 93.4064 188.988 88.4906 188.988 88.4906Z" fill="#FF5C8A"/>
<path opacity="0.2" d="M188.988 88.4906C188.988 88.4906 186.755 88.6791 186.675 87.316C186.596 85.9529 194.252 80.9138 200.227 85.5034C200.227 85.5034 198.124 91.5068 193.6 92.4566C189.075 93.4064 188.988 88.4906 188.988 88.4906Z" fill="white"/>
<path d="M196.072 94.5156C196.072 94.5156 195.086 92.8117 196.848 92.8407C198.609 92.8697 206.143 95.9439 203.337 103.492C203.337 103.492 193.911 101.57 193.911 98.2858C193.911 95.0013 196.072 94.5156 196.072 94.5156Z" fill="#FF5C8A"/>
<path opacity="0.2" d="M196.072 94.5156C196.072 94.5156 195.086 92.8117 196.848 92.8407C198.609 92.8697 206.143 95.9439 203.337 103.492C203.337 103.492 193.911 101.57 193.911 98.2858C193.911 95.0013 196.072 94.5156 196.072 94.5156Z" fill="white"/>
<path d="M189.075 98.7798C189.075 98.7798 189.489 97.3297 190.417 98.3157C191.345 99.3018 193.658 105.088 188.002 107.567C188.002 107.567 184.051 101.361 185.863 99.5918C187.676 97.8227 189.075 98.7798 189.075 98.7798Z" fill="#FF5C8A"/>
<path opacity="0.2" d="M189.075 98.7798C189.075 98.7798 189.489 97.3297 190.417 98.3157C191.345 99.3018 193.658 105.088 188.002 107.567C188.002 107.567 184.051 101.361 185.863 99.5918C187.676 97.8227 189.075 98.7798 189.075 98.7798Z" fill="white"/>
<path d="M36.4669 99.2712C36.4669 99.2712 37.1919 97.9371 35.8361 98.0023C34.4802 98.0676 28.7813 100.591 31.1088 106.311C31.1088 106.311 38.2722 104.622 38.1925 102.106C38.1127 99.5902 36.4669 99.2712 36.4669 99.2712Z" fill="#FF5C8A"/>
<path opacity="0.2" d="M36.4669 99.2712C36.4669 99.2712 37.1919 97.9371 35.8361 98.0023C34.4802 98.0676 28.7813 100.591 31.1088 106.311C31.1088 106.311 38.2722 104.622 38.1925 102.106C38.1127 99.5902 36.4669 99.2712 36.4669 99.2712Z" fill="white"/>
<path d="M163.895 148.686C163.895 148.686 159.109 148.497 158.638 138.847C158.167 129.196 166.614 126.622 173.074 127.804C173.074 127.804 172.124 120.931 176.329 121.184C180.535 121.438 180.245 126.028 180.245 126.028C180.245 126.028 181.695 116.283 187.415 116.276C193.136 116.269 187.415 127.804 187.415 127.804C187.415 127.804 195.355 124.991 198.291 127.804C201.227 130.617 194.666 133.909 194.666 133.909C194.666 133.909 204.954 136.382 200.655 144.256C200.655 144.256 207.825 145.082 209.834 148.606C209.834 148.606 209.261 141.493 211.842 141.972C214.423 142.45 213.843 148.686 213.843 148.686C213.843 148.686 218.15 141.834 221.877 144.256C225.604 146.677 220.158 152.478 220.158 152.478C220.158 152.478 227.329 149.911 228.475 153.311C229.62 156.712 224.458 157.988 224.458 157.988C224.458 157.988 231.919 156.712 231.919 163.027C231.919 163.027 246.26 162.012 249.704 167.682H164.185L163.895 148.686Z" fill="#FF5C8A"/>
<path opacity="0.4" d="M163.895 148.686C163.895 148.686 159.109 148.497 158.638 138.847C158.167 129.196 166.614 126.622 173.074 127.804C173.074 127.804 172.124 120.931 176.329 121.184C180.535 121.438 180.245 126.028 180.245 126.028C180.245 126.028 181.695 116.283 187.415 116.276C193.136 116.269 187.415 127.804 187.415 127.804C187.415 127.804 195.355 124.991 198.291 127.804C201.227 130.617 194.666 133.909 194.666 133.909C194.666 133.909 204.954 136.382 200.655 144.256C200.655 144.256 207.825 145.082 209.834 148.606C209.834 148.606 209.261 141.493 211.842 141.972C214.423 142.45 213.843 148.686 213.843 148.686C213.843 148.686 218.15 141.834 221.877 144.256C225.604 146.677 220.158 152.478 220.158 152.478C220.158 152.478 227.329 149.911 228.475 153.311C229.62 156.712 224.458 157.988 224.458 157.988C224.458 157.988 231.919 156.712 231.919 163.027C231.919 163.027 246.26 162.012 249.704 167.682H164.185L163.895 148.686Z" fill="white"/>
<path d="M64.1129 148.686C64.1129 148.686 67.6439 148.497 67.9919 138.847C68.3399 129.196 62.1263 126.622 57.3409 127.804C57.3409 127.804 58.066 120.931 54.941 121.184C51.816 121.438 52.0408 126.028 52.0408 126.028C52.0408 126.028 50.9822 116.283 46.7479 116.276C42.5137 116.269 46.7479 127.804 46.7479 127.804C46.7479 127.804 40.8968 124.991 38.7724 127.804C36.648 130.617 41.4623 133.909 41.4623 133.909C41.4623 133.909 33.8711 136.382 37.0468 144.256C37.0468 144.256 31.7539 145.082 30.2748 148.606C30.2748 148.606 30.6953 141.493 28.8247 141.972C26.9541 142.45 27.3746 148.686 27.3746 148.686C27.3746 148.686 24.2062 141.834 21.451 144.256C18.6958 146.677 22.7198 152.478 22.7198 152.478C22.7198 152.478 17.4342 149.911 16.5859 153.311C15.7376 156.712 19.5513 157.988 19.5513 157.988C19.5513 157.988 14.0482 156.712 14.0482 163.027C14.0482 163.027 3.46973 162.012 0.924805 167.682H64.0041L64.1129 148.686Z" fill="#FF5C8A"/>
<path opacity="0.4" d="M64.1129 148.686C64.1129 148.686 67.6439 148.497 67.9919 138.847C68.3399 129.196 62.1263 126.622 57.3409 127.804C57.3409 127.804 58.066 120.931 54.941 121.184C51.816 121.438 52.0408 126.028 52.0408 126.028C52.0408 126.028 50.9822 116.283 46.7479 116.276C42.5137 116.269 46.7479 127.804 46.7479 127.804C46.7479 127.804 40.8968 124.991 38.7724 127.804C36.648 130.617 41.4623 133.909 41.4623 133.909C41.4623 133.909 33.8711 136.382 37.0468 144.256C37.0468 144.256 31.7539 145.082 30.2748 148.606C30.2748 148.606 30.6953 141.493 28.8247 141.972C26.9541 142.45 27.3746 148.686 27.3746 148.686C27.3746 148.686 24.2062 141.834 21.451 144.256C18.6958 146.677 22.7198 152.478 22.7198 152.478C22.7198 152.478 17.4342 149.911 16.5859 153.311C15.7376 156.712 19.5513 157.988 19.5513 157.988C19.5513 157.988 14.0482 156.712 14.0482 163.027C14.0482 163.027 3.46973 162.012 0.924805 167.682H64.0041L64.1129 148.686Z" fill="white"/>
<path d="M32.6307 166.073C32.6307 166.073 47.2477 156.596 44.4925 155.001C41.7373 153.406 31.9492 162.861 31.9492 162.861C31.9492 162.861 42.7234 147.098 40.0625 143.937C37.4015 140.776 30.2308 156.785 30.2308 156.785C30.2308 156.785 35.1031 138.485 31.6809 136.483C28.2587 134.482 26.9753 154.827 26.9753 154.827C26.9753 154.827 25.6412 132.778 19.3261 133.076C13.0109 133.373 22.2263 154.827 22.2263 154.827C22.2263 154.827 13.3154 142.059 10.1542 145.684C6.99296 149.31 20.1889 159.46 20.1889 159.46C20.1889 159.46 10.3209 154.827 9.69014 158.278C9.05935 161.73 20.5659 165.377 20.5659 165.377C20.5659 165.377 16.8536 166.443 15.9981 167.682H35.7267C35.7267 167.682 36.0385 166.74 32.6307 166.073Z" fill="#FF5C8A"/>
<path opacity="0.6" d="M32.6307 166.073C32.6307 166.073 47.2477 156.596 44.4925 155.001C41.7373 153.406 31.9492 162.861 31.9492 162.861C31.9492 162.861 42.7234 147.098 40.0625 143.937C37.4015 140.776 30.2308 156.785 30.2308 156.785C30.2308 156.785 35.1031 138.485 31.6809 136.483C28.2587 134.482 26.9753 154.827 26.9753 154.827C26.9753 154.827 25.6412 132.778 19.3261 133.076C13.0109 133.373 22.2263 154.827 22.2263 154.827C22.2263 154.827 13.3154 142.059 10.1542 145.684C6.99296 149.31 20.1889 159.46 20.1889 159.46C20.1889 159.46 10.3209 154.827 9.69014 158.278C9.05935 161.73 20.5659 165.377 20.5659 165.377C20.5659 165.377 16.8536 166.443 15.9981 167.682H35.7267C35.7267 167.682 36.0385 166.74 32.6307 166.073Z" fill="white"/>
<path d="M39.9473 167.682C39.9473 167.682 56.7684 105.785 59.8281 103.494C62.8878 101.202 80.3398 94.7422 80.3398 94.7422C80.3398 94.7422 122.791 101.833 129.172 101.13C135.552 100.427 156.057 96.4823 159 101.13C161.944 105.777 173.552 133.706 173.552 133.706L189.859 140.587L200.19 167.682H39.9473Z" fill="#FF5C8A"/>
<path opacity="0.6" d="M200.19 167.68H39.9541C39.9541 167.68 56.6955 106.051 59.8132 103.498C60.9018 102.786 62.0491 102.167 63.2427 101.65C69.3041 98.8292 80.3249 94.7544 80.3249 94.7544C80.3249 94.7544 122.777 101.845 129.157 101.142C135.537 100.439 156.042 96.4873 158.986 101.142C159.609 102.135 160.631 104.18 161.849 106.79C166.359 116.397 173.552 133.697 173.552 133.697L189.858 140.585L200.19 167.68Z" fill="white"/>
<path opacity="0.1" d="M161.864 106.778L155.535 113.042L139.04 109.149L120.377 113.028L121.573 120.242L114.78 128.334L117.194 120.242L111.923 111.36C111.923 111.36 90.4469 112.665 84.8423 111.36C81.3258 110.541 70.6893 105.364 63.2793 101.637C69.3407 98.817 80.3615 94.7422 80.3615 94.7422C80.3615 94.7422 122.813 101.833 129.194 101.13C135.574 100.427 156.078 96.4751 159.022 101.13C159.624 102.123 160.646 104.168 161.864 106.778Z" fill="#1C2D5E"/>
<path opacity="0.1" d="M200.19 167.68H39.9541C39.9541 167.68 56.6955 106.051 59.8132 103.499L49.4885 151.526L54.6509 159.502L67.3392 149.873L77.1202 155.268L90.6206 152.541L91.9619 146.016L111.089 133.436L99.0819 144.559L103.309 157.247L121.689 160.415H141.99L150.35 154.825L147.551 143.442L143.324 136.844L164.75 136.793L155.629 142.441L158.993 152.469L169.31 157.254L181.303 149.851L186.189 163.975L200.19 167.68Z" fill="#1C2D5E"/>
<path d="M178.772 167.679H205.331C205.331 167.679 200.045 159.587 197.791 160.617C194.854 161.951 192.679 154.621 189.431 156.354C188.285 156.97 188.851 158.928 188.126 159.718C186.937 161.023 185.421 160.769 183.986 161.487C181.165 162.894 180.165 164.75 178.772 167.679Z" fill="#FF5C8A"/>
<path opacity="0.2" d="M178.772 167.679H205.331C205.331 167.679 200.045 159.587 197.791 160.617C194.854 161.951 192.679 154.621 189.431 156.354C188.285 156.97 188.851 158.928 188.126 159.718C186.937 161.023 185.421 160.769 183.986 161.487C181.165 162.894 180.165 164.75 178.772 167.679Z" fill="#1C2D5E"/>
<path d="M202.431 165.427C202.431 165.427 200.683 155.312 201.887 153.826C203.09 152.34 203.301 159.344 203.301 159.344C203.301 159.344 207.346 144.727 209.935 144.654C212.523 144.582 206.904 157.335 206.904 157.335C206.904 157.335 217.968 139.253 221.18 140.935C224.392 142.617 209.58 158.648 209.58 158.648C209.58 158.648 217.671 151.68 219.455 153.652C221.238 155.624 210.471 161.628 210.471 161.628C210.471 161.628 215.221 160.562 215.213 162.142C215.206 163.723 207.18 166.326 202.431 165.427Z" fill="#FF5C8A"/>
<path opacity="0.2" d="M202.431 165.427C202.431 165.427 200.683 155.312 201.887 153.826C203.09 152.34 203.301 159.344 203.301 159.344C203.301 159.344 207.346 144.727 209.935 144.654C212.523 144.582 206.904 157.335 206.904 157.335C206.904 157.335 217.968 139.253 221.18 140.935C224.392 142.617 209.58 158.648 209.58 158.648C209.58 158.648 217.671 151.68 219.455 153.652C221.238 155.624 210.471 161.628 210.471 161.628C210.471 161.628 215.221 160.562 215.213 162.142C215.206 163.723 207.18 166.326 202.431 165.427Z" fill="white"/>
<path d="M200.835 163.983C200.835 163.983 192.519 162.475 191.714 161.126C190.909 159.777 196.376 161.59 196.376 161.59C196.376 161.59 186.226 154.34 186.885 152.309C187.545 150.279 195.825 158.262 195.825 158.262C195.825 158.262 184.949 144.602 187.175 142.586C189.401 140.571 197.609 156.551 197.609 156.551C197.609 156.551 194.506 148.322 196.528 147.495C198.551 146.669 200.154 156.703 200.154 156.703C200.154 156.703 200.668 152.73 201.887 153.179C203.105 153.629 202.873 160.56 200.835 163.983Z" fill="#FF5C8A"/>
<path opacity="0.2" d="M200.835 163.983C200.835 163.983 192.519 162.475 191.714 161.126C190.909 159.777 196.376 161.59 196.376 161.59C196.376 161.59 186.226 154.34 186.885 152.309C187.545 150.279 195.825 158.262 195.825 158.262C195.825 158.262 184.949 144.602 187.175 142.586C189.401 140.571 197.609 156.551 197.609 156.551C197.609 156.551 194.506 148.322 196.528 147.495C198.551 146.669 200.154 156.703 200.154 156.703C200.154 156.703 200.668 152.73 201.887 153.179C203.105 153.629 202.873 160.56 200.835 163.983Z" fill="white"/>
<path d="M200.212 162.876C200.212 162.876 192.178 154.835 192.323 152.725C192.468 150.615 197.123 156.814 197.123 156.814C197.123 156.814 191.46 141.001 193.759 139.283C196.057 137.564 199.066 152.725 199.066 152.725C199.066 152.725 197.544 129.292 201.531 128.799C205.519 128.306 202.343 152.218 202.343 152.218C202.343 152.218 205.244 140.755 208.1 141.393C210.957 142.031 205.055 154.349 205.055 154.349C205.055 154.349 208.68 150.354 209.674 151.79C210.667 153.225 205.084 160.628 200.212 162.876Z" fill="#FF5C8A"/>
<path opacity="0.1" d="M200.212 162.876C200.212 162.876 192.178 154.835 192.323 152.725C192.468 150.615 197.123 156.814 197.123 156.814C197.123 156.814 191.46 141.001 193.759 139.283C196.057 137.564 199.066 152.725 199.066 152.725C199.066 152.725 197.544 129.292 201.531 128.799C205.519 128.306 202.343 152.218 202.343 152.218C202.343 152.218 205.244 140.755 208.1 141.393C210.957 142.031 205.055 154.349 205.055 154.349C205.055 154.349 208.68 150.354 209.674 151.79C210.667 153.225 205.084 160.628 200.212 162.876Z" fill="white"/>
<path d="M190.475 167.681H211.639C211.639 167.681 207.426 161.235 205.628 162.055C203.293 163.12 201.561 157.276 198.972 158.661C198.059 159.147 198.501 160.706 197.928 161.337C196.978 162.381 195.753 162.178 194.629 162.751C192.403 163.867 191.584 165.346 190.475 167.681Z" fill="#FF5C8A"/>
<path d="M58.2692 167.679H31.7324C31.7324 167.679 37.0253 159.587 39.2802 160.617C42.1804 161.951 44.3555 154.621 47.6328 156.354C48.7783 156.97 48.2201 158.928 48.9451 159.718C50.1342 161.023 51.6495 160.769 53.0851 161.487C55.9056 162.894 56.9061 164.75 58.2692 167.679Z" fill="#FF5C8A"/>
<path opacity="0.2" d="M58.2692 167.679H31.7324C31.7324 167.679 37.0253 159.587 39.2802 160.617C42.1804 161.951 44.3555 154.621 47.6328 156.354C48.7783 156.97 48.2201 158.928 48.9451 159.718C50.1342 161.023 51.6495 160.769 53.0851 161.487C55.9056 162.894 56.9061 164.75 58.2692 167.679Z" fill="#1C2D5E"/>
<path d="M34.64 165.427C34.64 165.427 36.3801 155.312 35.1766 153.826C33.973 152.34 33.7265 159.344 33.7265 159.344C33.7265 159.344 29.7169 144.727 27.1285 144.676C24.5401 144.625 30.2027 157.357 30.2027 157.357C30.2027 157.357 19.1167 139.252 15.9192 140.935C12.7218 142.617 27.52 158.648 27.52 158.648C27.52 158.648 19.4212 151.68 17.6376 153.652C15.854 155.624 26.6282 161.627 26.6282 161.627C26.6282 161.627 21.8791 160.562 21.8864 162.142C21.8936 163.723 29.8837 166.326 34.64 165.427Z" fill="#FF5C8A"/>
<path opacity="0.2" d="M34.64 165.427C34.64 165.427 36.3801 155.312 35.1766 153.826C33.973 152.34 33.7265 159.344 33.7265 159.344C33.7265 159.344 29.7169 144.727 27.1285 144.676C24.5401 144.625 30.2027 157.357 30.2027 157.357C30.2027 157.357 19.1167 139.252 15.9192 140.935C12.7218 142.617 27.52 158.648 27.52 158.648C27.52 158.648 19.4212 151.68 17.6376 153.652C15.854 155.624 26.6282 161.627 26.6282 161.627C26.6282 161.627 21.8791 160.562 21.8864 162.142C21.8936 163.723 29.8837 166.326 34.64 165.427Z" fill="white"/>
<path d="M42.7894 165.905C42.7894 165.905 49.1191 160.301 49.1119 158.727C49.1046 157.154 45.3633 161.548 45.3633 161.548C45.3633 161.548 50.2937 150.07 48.6696 148.693C47.0455 147.315 44.109 158.452 44.109 158.452C44.109 158.452 46.2842 141.138 43.384 140.565C40.4838 139.992 41.7019 157.908 41.7019 157.908C41.7019 157.908 40.085 149.265 37.9316 149.613C35.7782 149.961 39.592 159.365 39.592 159.365C39.592 159.365 37.0905 156.233 36.2785 157.255C35.4664 158.278 39.2802 164.027 42.7894 165.905Z" fill="#FF5C8A"/>
<path opacity="0.2" d="M42.7894 165.905C42.7894 165.905 49.1191 160.301 49.1119 158.727C49.1046 157.154 45.3633 161.548 45.3633 161.548C45.3633 161.548 50.2937 150.07 48.6696 148.693C47.0455 147.315 44.109 158.452 44.109 158.452C44.109 158.452 46.2842 141.138 43.384 140.565C40.4838 139.992 41.7019 157.908 41.7019 157.908C41.7019 157.908 40.085 149.265 37.9316 149.613C35.7782 149.961 39.592 159.365 39.592 159.365C39.592 159.365 37.0905 156.233 36.2785 157.255C35.4664 158.278 39.2802 164.027 42.7894 165.905Z" fill="white"/>
<path d="M46.5953 167.681H25.4238C25.4238 167.681 29.6436 161.235 31.4417 162.055C33.7764 163.12 35.5093 157.276 38.0977 158.661C39.0113 159.147 38.5617 160.706 39.1345 161.337C40.0843 162.381 41.3097 162.178 42.4407 162.751C44.6884 163.867 45.486 165.346 46.5953 167.681Z" fill="#FF5C8A"/>
<path d="M96.6019 28.6647C96.6019 28.6647 72.2257 24.8655 67.5999 26.8594C62.9741 28.8533 61.4152 36.024 61.4152 36.024C61.4152 36.024 60.5814 37.4741 63.1046 37.6626C63.1046 37.6626 52.7872 63.3656 56.0499 68.2887C59.3126 73.2118 92.1719 75.1839 96.6527 72.7695C101.133 70.3551 111.77 30.4991 96.6019 28.6647Z" fill="#1C2D5E"/>
<path d="M110.958 53.1855C110.958 53.1855 114.185 60.6753 114.91 61.7194C115.635 62.7634 131.695 70.1444 131.695 70.1444C132.996 69.9627 134.316 69.9627 135.617 70.1444C137.596 70.4562 140.323 71.29 140.569 71.5945C140.816 71.8991 137.589 76.5902 137.589 76.5902C137.589 76.5902 131.173 76.9889 130.339 74.4512C130.339 74.4512 114.25 68.4768 112.379 66.9107C110.509 65.3446 105.303 56.093 105.303 56.093L110.958 53.1855Z" fill="#E4897B"/>
<path d="M106.34 36.7861C109.356 38.5843 114.076 57.9431 115.091 60.2415C116.106 62.5399 128.432 68.13 128.432 68.13L122.965 73.3649C122.965 73.3649 110.472 67.8183 108.921 66.2666C107.369 64.715 101.134 48.6262 101.134 48.6262L106.34 36.7861Z" fill="#FF5C8A"/>
<path d="M105.339 81.0274C105.339 81.0274 156.179 73.7262 158.862 84.8774C161.697 96.674 120.876 104.628 96.5074 105.462C72.1385 106.295 65.091 100.937 69.0063 70.7897L101.924 70.71L105.339 81.0274Z" fill="#1C2D5E"/>
<path opacity="0.2" d="M105.339 81.0274C105.339 81.0274 156.179 73.7262 158.862 84.8774C161.697 96.674 120.876 104.628 96.5074 105.462C72.1385 106.295 65.091 100.937 69.0063 70.7897L101.924 70.71L105.339 81.0274Z" fill="#1C2D5E"/>
<path d="M151.256 98.3146C151.23 98.334 151.198 98.3445 151.165 98.3445C151.133 98.3445 151.101 98.334 151.075 98.3146C151.051 98.2984 151.033 98.2742 151.025 98.2464C151.017 98.2185 151.019 98.1888 151.031 98.1623C151.111 97.8941 151.916 95.5449 152.735 95.2984C152.822 95.2778 152.912 95.2804 152.997 95.3059C153.083 95.3313 153.16 95.3788 153.221 95.4434C153.335 95.5375 153.422 95.6604 153.473 95.7993C153.524 95.9381 153.537 96.0881 153.511 96.2337C153.379 96.672 153.113 97.0576 152.75 97.3358C152.286 97.7114 151.785 98.0394 151.256 98.3146ZM151.459 97.8651C152.22 97.5313 152.837 96.9375 153.199 96.1902C153.22 96.0907 153.213 95.9872 153.177 95.892C153.141 95.7969 153.078 95.7141 152.996 95.6537C152.973 95.6254 152.942 95.6048 152.907 95.5945C152.872 95.5841 152.835 95.5845 152.8 95.5956C152.732 95.6244 152.668 95.6636 152.612 95.7117C152.102 96.3547 151.711 97.0841 151.459 97.8651Z" fill="#FF5C8A"/>
<path d="M151.213 98.3516C151.186 98.3598 151.157 98.3602 151.13 98.3524C151.103 98.3447 151.079 98.3293 151.061 98.3081C150.981 98.2355 149.857 96.8145 150.038 95.8574C150.088 95.6183 150.228 95.4078 150.43 95.2701C150.515 95.1863 150.626 95.1341 150.745 95.1222C150.863 95.1103 150.983 95.1395 151.082 95.2048C151.67 95.6254 151.597 97.525 151.307 98.2501V98.3226L151.213 98.3516ZM150.568 95.5601C150.467 95.6497 150.399 95.7692 150.372 95.9009C150.256 96.5099 150.821 97.4235 151.097 97.8585C151.285 97.0465 151.227 95.6834 150.879 95.4731C150.843 95.4731 150.771 95.3934 150.597 95.5166L150.539 95.5601H150.568Z" fill="#FF5C8A"/>
<path d="M133.645 104.287L144.303 104.294L149.414 104.302L150.023 98.9144L145.296 98.2836L133.739 96.7393L133.645 104.287Z" fill="#E4897B"/>
<path d="M148.9 98.2692L147.602 104.41C147.586 104.491 147.587 104.574 147.604 104.654C147.621 104.734 147.653 104.811 147.7 104.878C147.746 104.946 147.806 105.003 147.875 105.047C147.944 105.092 148.022 105.122 148.102 105.135L151.162 105.687C151.162 105.687 155.23 106.723 156.375 105.991C159.71 103.859 162.901 90.3372 161.567 89.3149C161.074 88.9524 160.211 89.5034 159.783 89.9457C158.413 91.345 155.491 95.2458 154.331 96.4059C152.982 97.7545 150.582 97.7907 149.531 97.74C149.379 97.7349 149.23 97.7861 149.114 97.8838C148.998 97.9815 148.921 98.1188 148.9 98.2692Z" fill="#1C2D5E"/>
<path opacity="0.2" d="M133.645 104.287L144.303 104.294L145.296 98.2836L133.739 96.7393L133.645 104.287Z" fill="#1C2D5E"/>
<path d="M93.3975 80.6597V82.0083C93.3989 82.457 93.5728 82.8879 93.8832 83.2119C94.1937 83.5358 94.6169 83.7279 95.0651 83.7484H144.651C145.113 83.733 145.552 83.5463 145.883 83.2245C146.214 82.9027 146.414 82.4691 146.442 82.0083V80.6597H93.3975Z" fill="#1C2D5E"/>
<path opacity="0.2" d="M93.3975 80.6597V82.0083C93.3989 82.457 93.5728 82.8879 93.8832 83.2119C94.1937 83.5358 94.6169 83.7279 95.0651 83.7484H144.651C145.113 83.733 145.552 83.5463 145.883 83.2245C146.214 82.9027 146.414 82.4691 146.442 82.0083V80.6597H93.3975Z" fill="white"/>
<path opacity="0.2" d="M111.922 80.6597V82.0083C111.925 82.4576 112.101 82.8886 112.412 83.2123C112.724 83.5361 113.148 83.728 113.597 83.7484H144.672C145.134 83.733 145.573 83.5463 145.904 83.2245C146.235 82.9027 146.435 82.4691 146.463 82.0083V80.6597H111.922Z" fill="white"/>
<path d="M113.576 82.5073H146.333C146.859 82.4813 147.366 82.301 147.79 81.989C148.214 81.677 148.537 81.247 148.719 80.7527L156.23 57.1886C156.318 56.9852 156.352 56.7628 156.33 56.5424C156.308 56.322 156.231 56.1108 156.104 55.9288C155.978 55.7467 155.808 55.5998 155.609 55.5018C155.41 55.4038 155.19 55.358 154.969 55.3687H122.211C121.68 55.4069 121.172 55.5995 120.75 55.9229C120.327 56.2463 120.008 56.6863 119.833 57.1886L112.321 80.7237C112.234 80.9245 112.199 81.1444 112.221 81.3624C112.243 81.5803 112.321 81.7889 112.447 81.9681C112.573 82.1473 112.743 82.291 112.941 82.3855C113.138 82.4799 113.357 82.5219 113.576 82.5073Z" fill="#1C2D5E"/>
<path opacity="0.2" d="M113.576 82.5073H146.333C146.859 82.4813 147.366 82.301 147.79 81.989C148.214 81.677 148.537 81.247 148.719 80.7527L156.23 57.1886C156.318 56.9852 156.352 56.7628 156.33 56.5424C156.308 56.322 156.231 56.1108 156.104 55.9288C155.978 55.7467 155.808 55.5998 155.609 55.5018C155.41 55.4038 155.19 55.358 154.969 55.3687H122.211C121.68 55.4069 121.172 55.5995 120.75 55.9229C120.327 56.2463 120.008 56.6863 119.833 57.1886L112.321 80.7237C112.234 80.9245 112.199 81.1444 112.221 81.3624C112.243 81.5803 112.321 81.7889 112.447 81.9681C112.573 82.1473 112.743 82.291 112.941 82.3855C113.138 82.4799 113.357 82.5219 113.576 82.5073Z" fill="white"/>
<path opacity="0.2" d="M114.822 82.5073H146.347C146.873 82.4813 147.38 82.301 147.804 81.989C148.228 81.677 148.551 81.247 148.733 80.7527L156.244 57.1886C156.332 56.9852 156.366 56.7628 156.344 56.5424C156.322 56.322 156.244 56.1108 156.118 55.9288C155.992 55.7467 155.821 55.5998 155.623 55.5018C155.424 55.4038 155.204 55.358 154.983 55.3687H123.443C122.912 55.4069 122.404 55.5995 121.982 55.9229C121.559 56.2463 121.24 56.6863 121.065 57.1886L113.553 80.7237C113.465 80.9257 113.43 81.1471 113.453 81.3663C113.476 81.5856 113.555 81.7952 113.683 81.9749C113.81 82.1545 113.982 82.2979 114.182 82.3912C114.382 82.4846 114.602 82.5246 114.822 82.5073Z" fill="white"/>
<path opacity="0.2" d="M133.978 69.9931C133.572 71.5592 134.355 72.8353 135.726 72.8353C137.096 72.8353 138.524 71.5592 138.93 69.9931C139.336 68.427 138.553 67.1509 137.19 67.1509C135.827 67.1509 134.399 68.4487 133.978 69.9931Z" fill="white"/>
<path opacity="0.2" d="M148.9 98.2692L147.602 104.41C147.586 104.491 147.587 104.574 147.604 104.654C147.621 104.734 147.653 104.811 147.7 104.878C147.746 104.946 147.806 105.003 147.875 105.047C147.944 105.092 148.022 105.122 148.102 105.135L151.162 105.687C151.162 105.687 155.23 106.723 156.375 105.991C159.71 103.859 162.901 90.3372 161.567 89.3149C161.074 88.9524 160.211 89.5034 159.783 89.9457C158.413 91.345 155.491 95.2458 154.331 96.4059C152.982 97.7545 150.582 97.7907 149.531 97.74C149.379 97.7349 149.23 97.7861 149.114 97.8838C148.998 97.9815 148.921 98.1188 148.9 98.2692Z" fill="white"/>
<path d="M78.7587 75.0623L68.4775 75.1928L68.6733 71.8503L78.7587 71.6328V75.0623Z" fill="#1C2D5E"/>
<path d="M99.0449 71.1893L102.119 71.124L103.221 74.7348L99.0449 74.7928V71.1893Z" fill="#1C2D5E"/>
<path d="M97.7328 71.2183V74.8073L80.3389 75.0393V71.5953L97.7328 71.2183Z" fill="#1C2D5E"/>
<path d="M87.7131 74.1849L87.6623 72.7856C87.6423 72.426 87.7638 72.0728 88.001 71.8018C88.2382 71.5307 88.5721 71.3634 88.9311 71.3355L92.0779 71.205C92.253 71.1985 92.4277 71.2279 92.591 71.2915C92.7544 71.3551 92.903 71.4515 93.0277 71.5747C93.2913 71.8365 93.4444 72.1895 93.4554 72.5608L93.5062 73.9529C93.5243 74.3132 93.401 74.6663 93.1627 74.9372C92.9244 75.208 92.5898 75.3751 92.2301 75.403L89.0906 75.5335H89.0326C88.6818 75.5206 88.3493 75.3734 88.1038 75.1225C87.8582 74.8716 87.7184 74.536 87.7131 74.1849ZM92.2084 74.8157C92.4168 74.7954 92.6091 74.6948 92.7444 74.535C92.8798 74.3753 92.9476 74.1691 92.9334 73.9602L92.8827 72.5681C92.8721 72.3522 92.7817 72.1481 92.6289 71.9953C92.5575 71.9223 92.4716 71.8652 92.3766 71.8277C92.2816 71.7902 92.1798 71.7732 92.0779 71.7778L88.9311 71.9083C88.722 71.9268 88.5286 72.0269 88.3928 72.1871C88.2571 72.3473 88.19 72.5545 88.2061 72.7638L88.2568 74.1632C88.2568 74.2682 88.2777 74.3722 88.3183 74.469C88.359 74.5658 88.4185 74.6536 88.4934 74.7272C88.5683 74.8008 88.6572 74.8587 88.7548 74.8975C88.8523 74.9364 88.9566 74.9554 89.0616 74.9535L92.2084 74.8157Z" fill="white"/>
<path d="M88.2492 73.7275H89.8298C89.9254 73.7256 90.0166 73.6869 90.0841 73.6193C90.1517 73.5517 90.1905 73.4605 90.1924 73.365C90.1924 73.2688 90.1542 73.1766 90.0862 73.1086C90.0182 73.0406 89.926 73.0024 89.8298 73.0024H88.2492C88.1531 73.0024 88.0609 73.0406 87.9929 73.1086C87.9249 73.1766 87.8867 73.2688 87.8867 73.365C87.8886 73.4605 87.9274 73.5517 87.995 73.6193C88.0625 73.6869 88.1537 73.7256 88.2492 73.7275Z" fill="white"/>
<path d="M106.339 36.7853C106.339 36.7853 102.373 61.8648 104.034 70.8626L67.3535 71.9285C67.3535 71.9285 71.7038 46.0224 77.468 36.2488C77.468 36.2198 87.0459 20.2252 106.339 36.7853Z" fill="#FF5C8A"/>
<path opacity="0.6" d="M106.339 36.7853C106.339 36.7853 102.373 61.8648 104.034 70.8626L67.3535 71.9285C67.3535 71.9285 71.7038 46.0224 77.468 36.2488C77.468 36.2198 87.0459 20.2252 106.339 36.7853Z" fill="white"/>
<path d="M84.8203 31.2021C84.8203 31.2021 90.9035 37.1475 94.42 36.176C97.9365 35.2044 99.2561 33.4135 99.2561 33.4135C99.2561 33.4135 96.4284 32.1737 96.7401 31.4994C96.7764 31.4269 96.8634 31.2891 96.9866 31.0861C98.038 29.491 101.765 24.4011 101.765 24.4011L93.7892 19.9131C93.7892 19.9131 93.1366 21.4575 92.3391 23.2991C91.2588 25.7497 89.9102 28.7152 89.4389 29.2662C88.6123 30.2378 84.8203 31.2021 84.8203 31.2021Z" fill="#E4897B"/>
<path opacity="0.2" d="M92.3027 23.2991C92.803 26.1268 94.0356 29.4547 96.9865 31.0861C98.0379 29.491 101.765 24.4011 101.765 24.4011L93.7891 19.9131C93.7891 19.9131 93.1075 21.4575 92.3027 23.2991Z" fill="#1C2D5E"/>
<path d="M90.7001 17.7925C90.255 19.199 90.0372 20.6676 90.0548 22.1428C90.207 23.9409 88.2059 24.5427 87.9521 23.4551C87.9521 23.4551 87.9884 26.1016 89.7068 25.7028C89.7068 25.7028 89.7068 27.5371 91.2439 27.5661C92.5511 25.7626 93.2288 23.5792 93.1725 21.3525C92.9332 17.865 90.7001 17.7925 90.7001 17.7925Z" fill="#1C2D5E"/>
<path d="M104.483 8.97371C101.873 10.054 102.308 16.1154 106.658 21.2996C109.319 19.0084 110.53 13.7155 109.899 11.6274C108.884 8.28491 106.753 8.03839 104.483 8.97371Z" fill="#1C2D5E"/>
<path d="M108.297 23.7262C108.063 24.4189 107.787 25.0968 107.47 25.7563C104.897 30.9984 97.4938 32.0207 94.2165 26.8366L94.1803 26.7859C92.0051 23.2912 92.8245 20.0357 93.7308 14.3875C93.9297 13.0747 94.46 11.8343 95.2718 10.7836C96.0835 9.7328 97.1497 8.90635 98.3697 8.38234C99.5898 7.85834 100.923 7.65409 102.244 7.78888C103.565 7.92367 104.83 8.39306 105.919 9.15268C110.189 12.1616 109.936 18.9046 108.297 23.7262Z" fill="#E4897B"/>
<path d="M101.685 17.7907C101.583 18.2474 101.743 18.668 102.033 18.7332C102.323 18.7985 102.649 18.4867 102.758 18.0082C102.867 17.5297 102.707 17.1309 102.41 17.0656C102.113 17.0004 101.815 17.3701 101.685 17.7907Z" fill="#1C2D5E"/>
<path d="M106.847 18.9708C106.745 19.4203 106.905 19.8409 107.202 19.9061C107.5 19.9714 107.819 19.6668 107.927 19.1811C108.036 18.6953 107.869 18.3037 107.572 18.2385C107.275 18.1732 106.934 18.514 106.847 18.9708Z" fill="#1C2D5E"/>
<path d="M105.1 18.8047C105.332 20.307 105.769 21.7706 106.397 23.155C106.038 23.3066 105.65 23.3774 105.26 23.3624C104.871 23.3473 104.489 23.2468 104.143 23.068L105.1 18.8047Z" fill="#DE5753"/>
<path d="M100.641 15.8696C100.581 15.862 100.526 15.8367 100.481 15.7971C100.431 15.7444 100.402 15.6743 100.402 15.6013C100.402 15.5284 100.431 15.4582 100.481 15.4056C100.805 15.117 101.193 14.9109 101.614 14.8048C102.034 14.6988 102.474 14.6959 102.895 14.7965C102.929 14.805 102.96 14.8199 102.988 14.8406C103.015 14.8612 103.039 14.8871 103.056 14.9168C103.074 14.9464 103.085 14.9793 103.09 15.0134C103.095 15.0475 103.093 15.0822 103.084 15.1155C103.062 15.1846 103.015 15.2427 102.951 15.2778C102.888 15.3129 102.813 15.3223 102.743 15.3041C102.41 15.229 102.063 15.2353 101.732 15.3223C101.402 15.4094 101.097 15.5747 100.844 15.8043C100.816 15.8282 100.784 15.8462 100.749 15.8574C100.714 15.8686 100.677 15.8728 100.641 15.8696Z" fill="#1C2D5E"/>
<path d="M109.566 17.7887C109.516 17.7745 109.471 17.7477 109.434 17.7109C109.397 17.6741 109.37 17.6285 109.356 17.5784C109.287 17.244 109.14 16.9306 108.927 16.6635C108.714 16.3965 108.441 16.1833 108.131 16.0413C108.063 16.0167 108.007 15.9664 107.976 15.9013C107.945 15.8363 107.941 15.7616 107.964 15.6933C107.989 15.6254 108.039 15.57 108.104 15.5388C108.169 15.5076 108.244 15.5032 108.312 15.5265C108.71 15.6985 109.06 15.9634 109.334 16.2991C109.608 16.6347 109.797 17.0312 109.885 17.4551C109.894 17.4894 109.896 17.5251 109.891 17.56C109.886 17.595 109.874 17.6287 109.855 17.659C109.837 17.6893 109.813 17.7157 109.785 17.7367C109.756 17.7577 109.724 17.7729 109.69 17.7814C109.649 17.7922 109.608 17.7947 109.566 17.7887Z" fill="#1C2D5E"/>
<path d="M103.069 25.8526C102.3 25.7771 101.567 25.4888 100.952 25.0201C100.337 24.5514 99.8653 23.9208 99.5888 23.1989C99.5753 23.1479 99.5821 23.0937 99.6078 23.0477C99.6335 23.0017 99.6761 22.9675 99.7266 22.9524C99.7785 22.9386 99.8337 22.9452 99.8809 22.9708C99.928 22.9964 99.9636 23.0391 99.9804 23.0901C99.9804 23.1699 100.575 25.0115 103.134 25.4538C103.186 25.4643 103.232 25.4941 103.263 25.5371C103.294 25.5801 103.308 25.6332 103.301 25.6858C103.292 25.7386 103.263 25.7857 103.219 25.8169C103.176 25.8481 103.122 25.8609 103.069 25.8526Z" fill="#1C2D5E"/>
<path d="M109.391 13.4882C109.391 13.4882 111.074 12.1976 111.008 10.6895C110.95 9.73687 110.648 8.81524 110.13 8.01377C109.611 7.2123 108.895 6.55811 108.05 6.11446C106.447 5.18626 104.631 4.68684 102.779 4.66436C96.355 4.28734 92.8603 6.21598 91.7582 9.64546C91.0767 10.8635 91.0912 13.1257 91.7002 15.2428C91.7036 15.2547 91.7036 15.2672 91.7002 15.2791C92.0295 16.4874 92.5991 17.6168 93.3751 18.5998C97.2904 15.2066 98.7477 12.7994 98.1314 11.2043C98.2619 11.1681 100.205 9.42795 101.068 9.38444C102.315 9.31919 104.613 10.501 106.477 11.6103C107.499 12.2121 108.55 11.2478 108.55 11.2478L109.391 13.4882Z" fill="#1C2D5E"/>
<path d="M90.0617 18.2756C90.102 18.9872 90.2822 19.6839 90.5919 20.3259C90.9017 20.9678 91.335 21.5424 91.867 22.0168C93.3171 23.2639 94.8397 22.1763 95.1225 20.4C95.3835 18.7976 94.9485 16.2092 93.1794 15.6436C91.4102 15.0781 89.9602 16.5137 90.0617 18.2756Z" fill="#E4897B"/>
<path d="M90.0551 22.0892C90.0551 22.0892 92.4332 12.8448 98.3134 9.4008C104.194 5.95681 110.291 8.36398 110.291 8.36398C110.228 7.43687 110.094 6.51587 109.892 5.60879C109.718 5.31877 106.804 4.3182 106.804 4.3182C106.804 4.3182 105.143 1.87479 102.838 1.09173C100.532 0.308679 93.6441 0.0839172 91.2369 2.09231C88.8297 4.10069 87.2419 8.18997 88.257 8.26247C89.272 8.33498 90.0478 8.33498 90.0478 8.33498C90.0478 8.33498 88.1482 14.8967 88.9603 15.8827C88.9675 15.8755 87.5609 20.4433 90.0551 22.0892Z" fill="#FF5C8A"/>
<path d="M101.852 106.784C101.871 106.758 101.896 106.738 101.925 106.725C101.955 106.712 101.987 106.707 102.018 106.711C102.047 106.715 102.072 106.728 102.091 106.75C102.11 106.771 102.12 106.799 102.12 106.827C102.178 107.103 102.555 109.553 101.946 110.155C101.879 110.213 101.799 110.253 101.713 110.27C101.626 110.288 101.537 110.283 101.453 110.257C101.308 110.227 101.173 110.159 101.064 110.059C100.954 109.96 100.873 109.833 100.829 109.691C100.742 109.243 100.798 108.779 100.989 108.364C101.222 107.809 101.511 107.28 101.852 106.784ZM101.852 107.284C101.346 107.937 101.089 108.75 101.127 109.575C101.154 109.673 101.208 109.76 101.284 109.827C101.36 109.894 101.454 109.938 101.554 109.952C101.587 109.967 101.623 109.971 101.658 109.965C101.693 109.958 101.725 109.941 101.75 109.916C101.802 109.862 101.842 109.798 101.866 109.727C102.017 108.92 102.02 108.092 101.873 107.284H101.852Z" fill="#FF5C8A"/>
<path d="M118.078 94.7832L107.971 98.1402L103.113 99.757L104.237 105.057L108.928 104.165L120.377 101.976L118.078 94.7832Z" fill="#E4897B"/>
<path d="M105.549 105.333L104.824 99.0975C104.815 99.0126 104.789 98.9303 104.747 98.8559C104.705 98.7814 104.649 98.7163 104.581 98.6647C104.513 98.613 104.435 98.5759 104.352 98.5556C104.269 98.5352 104.183 98.5321 104.098 98.5465L101.046 98.996C101.046 98.996 96.8625 99.3005 96.0069 100.352C93.5127 103.433 94.7381 117.274 96.3477 117.797C96.935 117.985 97.573 117.187 97.8413 116.636C98.6969 114.875 100.241 110.249 100.966 108.784C101.822 107.08 104.084 106.283 105.099 106C105.241 105.961 105.365 105.872 105.448 105.75C105.53 105.627 105.566 105.48 105.549 105.333Z" fill="#1C2D5E"/>
<path d="M101.873 106.74C101.896 106.722 101.924 106.712 101.953 106.712C101.982 106.712 102.01 106.722 102.033 106.74C102.127 106.74 103.787 107.465 104.07 108.429C104.11 108.548 104.125 108.674 104.112 108.799C104.1 108.924 104.061 109.045 103.998 109.154C103.961 109.266 103.887 109.362 103.788 109.427C103.689 109.491 103.571 109.52 103.454 109.509C102.729 109.415 101.917 107.697 101.837 106.928V106.848C101.834 106.829 101.836 106.809 101.843 106.79C101.849 106.771 101.859 106.754 101.873 106.74ZM103.744 108.915C103.788 108.788 103.788 108.65 103.744 108.523C103.57 107.929 102.642 107.385 102.171 107.146C102.381 107.95 103.055 109.103 103.476 109.154C103.519 109.154 103.606 109.154 103.7 108.98L103.737 108.915H103.744Z" fill="#FF5C8A"/>
<path opacity="0.2" d="M118.078 94.7832L107.971 98.1402L108.928 104.165L120.376 101.976L118.078 94.7832Z" fill="#1C2D5E"/>
<path d="M110.683 105.099L113.568 105.367L111.843 95.3975L108.529 97.1376L110.683 105.099Z" fill="#FF5C8A"/>
<path opacity="0.6" d="M110.683 105.099L113.568 105.367L111.843 95.3975L108.529 97.1376L110.683 105.099Z" fill="white"/>
<path opacity="0.2" d="M105.549 105.333L104.824 99.0975C104.815 99.0126 104.789 98.9303 104.747 98.8559C104.705 98.7814 104.649 98.7163 104.581 98.6647C104.513 98.613 104.435 98.5759 104.352 98.5556C104.269 98.5352 104.183 98.5321 104.098 98.5465L101.046 98.996C101.046 98.996 96.8625 99.3005 96.0069 100.352C93.5127 103.433 94.7381 117.274 96.3477 117.797C96.935 117.985 97.573 117.187 97.8413 116.636C98.6969 114.875 100.241 110.249 100.966 108.784C101.822 107.08 104.084 106.283 105.099 106C105.241 105.961 105.365 105.872 105.448 105.75C105.53 105.627 105.566 105.48 105.549 105.333Z" fill="white"/>
<path d="M143.331 97.4997C143.331 97.4997 96.029 79.127 81.5498 82.1939C67.0705 85.2609 66.9908 92.8449 74.2993 99.9141C81.6078 106.983 92.614 104.264 92.614 104.264C92.614 104.264 83.9932 99.1021 84.595 95.9119C85.1968 92.7217 90.6781 100.016 90.6781 100.016C90.6781 100.016 119.26 107.005 142.882 105.164L143.331 97.4997Z" fill="#1C2D5E"/>
<path d="M143.904 96.7332L141.251 95.5151L139.721 105.47L143.418 104.868L143.904 96.7332Z" fill="#FF5C8A"/>
<path opacity="0.6" d="M143.904 96.7332L141.251 95.5151L139.721 105.47L143.418 104.868L143.904 96.7332Z" fill="white"/>
<path d="M81.8185 29.2749C81.8185 29.2749 88.2207 46.6761 87.8872 50.5841C87.5537 54.4921 74.365 83.7696 74.365 83.7696L63.4893 88.1199C63.4893 88.1199 65.7297 45.1172 81.8185 29.2749Z" fill="#FF5C8A"/>
<path opacity="0.2" d="M81.8185 29.2749C81.8185 29.2749 88.2207 46.6761 87.8872 50.5841C87.5537 54.4921 74.365 83.7696 74.365 83.7696L63.4893 88.1199C63.4893 88.1199 65.7297 45.1172 81.8185 29.2749Z" fill="#1C2D5E"/>
<path d="M104.925 79.7879C104.925 79.7879 101.503 71.6746 100.408 67.1792C99.3133 62.6839 103.142 39.5911 101.082 31.8403L106.339 36.7852L104.113 65.6421L104.925 79.7879Z" fill="#FF5C8A"/>
<path opacity="0.2" d="M104.925 79.7879C104.925 79.7879 101.503 71.6746 100.408 67.1792C99.3133 62.6839 103.142 39.5911 101.082 31.8403L106.339 36.7852L104.113 65.6421L104.925 79.7879Z" fill="#1C2D5E"/>
<path d="M66.1138 67.1816C66.1138 67.1816 88.8006 71.5319 85.2116 30.0881L81.5211 29.769C81.5211 29.769 83.7687 45.5171 79.6287 55.8201C75.4887 66.123 65.7295 65.6445 65.7295 65.6445L66.1138 67.1816Z" fill="#1C2D5E"/>
<path d="M87.7567 48.7654L80.1436 31.0887L77.8452 34.1266C77.8452 34.1266 77.4392 29.8416 78.7733 28.5945C80.1074 27.3474 83.8487 28.9063 85.2988 29.276C86.7489 29.6458 87.7567 48.7654 87.7567 48.7654Z" fill="#FF5C8A"/>
<path d="M99.7559 32.1157C99.7559 32.1157 102.692 40.8163 102.214 54.4328C101.735 68.0492 104.186 66.9181 104.186 66.9181L104.534 65.6348C104.534 65.6348 103.164 65.4753 103.272 60.8857C103.381 56.2961 103.997 37.7711 102.214 32.906L99.7559 32.1157Z" fill="#1C2D5E"/>
<path d="M101.293 48.2426C101.293 48.2426 102.018 35.1917 98.3496 31.3707C98.3496 31.3707 101.098 30.3411 102.214 31.3707C103.331 32.4002 103.606 42.3407 101.417 48.7719" fill="#FF5C8A"/>
<path d="M82.8698 53.5786C82.8698 53.5786 86.1905 61.2859 86.9373 62.359C87.6841 63.4321 104.208 71.0596 104.208 71.0596C105.548 70.8735 106.907 70.8735 108.246 71.0596C110.284 71.3786 113.09 72.2342 113.322 72.5604C113.554 72.8867 110.255 77.701 110.255 77.701C110.255 77.701 103.65 78.1071 102.83 75.5259C102.83 75.5259 86.2702 69.3775 84.3489 67.7678C82.4275 66.1582 77.1201 56.5731 77.1201 56.5731L82.8698 53.5786Z" fill="#E4897B"/>
<path d="M78.7589 36.2847C82.2971 36.2847 87.2637 57.8839 88.1845 60.8131C89.1053 63.7423 103.78 69.9922 103.78 69.9922L99.1183 75.5099C99.1183 75.5099 83.2542 69.782 81.3908 67.15C79.5274 64.5181 73.8793 49.5313 73.6183 46.0656C73.3573 42.5999 76.3952 36.2774 78.7589 36.2847Z" fill="#FF5C8A"/>
</svg>
