<svg width="32" height="33" viewBox="0 0 32 33" fill="none" xmlns="http://www.w3.org/2000/svg">
<circle cx="16" cy="16.7661" r="16" fill="#DCEFE4"/>
<path d="M16.8889 11.3215C16.3366 11.3215 15.8889 11.7692 15.8889 12.3215C15.8889 12.8738 16.3366 13.3215 16.8889 13.3215V11.3215ZM24 12.3215L25 12.3215C25 11.7692 24.5523 11.3215 24 11.3215V12.3215ZM23 19.4326C23 19.9849 23.4477 20.4326 24 20.4326C24.5523 20.4326 25 19.9849 25 19.4326H23ZM7.29289 20.5033C6.90237 20.8938 6.90237 21.527 7.29289 21.9175C7.68342 22.3081 8.31658 22.3081 8.70711 21.9175L7.29289 20.5033ZM13.3333 15.8771L14.0404 15.17C13.6499 14.7795 13.0168 14.7795 12.6262 15.17L13.3333 15.8771ZM16.8889 19.4326L16.1818 20.1398C16.5723 20.5303 17.2055 20.5303 17.596 20.1398L16.8889 19.4326ZM16.8889 13.3215L24 13.3215V11.3215H16.8889V13.3215ZM23 12.3215V19.4326H25V12.3215L23 12.3215ZM8.70711 21.9175L14.0404 16.5842L12.6262 15.17L7.29289 20.5033L8.70711 21.9175ZM12.6262 16.5842L16.1818 20.1398L17.596 18.7255L14.0404 15.17L12.6262 16.5842ZM17.596 20.1398L24.7071 13.0286L23.2929 11.6144L16.1818 18.7255L17.596 20.1398Z" fill="#27AE60"/>
</svg>
