<svg width="329" height="329" viewBox="0 0 329 329" fill="none" xmlns="http://www.w3.org/2000/svg">
<path d="M142.603 254.537C133.594 263.201 142.083 245.489 158.483 231.709C174.882 217.929 158.743 208.881 139.73 222.661C120.718 236.441 134.264 218.475 148.18 205.709C162.097 192.943 150.033 182.075 130.104 195.309C110.175 208.543 150.793 167.307 120.9 163.914C97.1425 161.216 126.041 206.209 105.001 194.886C83.9605 183.563 76.9795 192.936 90.194 205.735C103.408 218.533 115.94 236.454 97.7015 222.687C79.4625 208.92 62.8095 217.961 78.4355 231.735C94.0615 245.508 94.64 256.786 86.1055 248.121C77.571 239.457 70.1935 239.405 72.111 251.417C72.579 254.4 74.243 257.423 76.8885 260.289C77.6384 261.027 78.532 261.603 79.5137 261.981C80.4955 262.359 81.5444 262.531 82.5955 262.486H158.379C160.984 259.264 162.806 255.482 163.702 251.436C166.263 239.379 151.619 245.879 142.603 254.537Z" fill="#FF5C8A"/>
<path opacity="0.8" d="M142.603 254.537C133.594 263.201 142.083 245.489 158.483 231.709C174.882 217.929 158.743 208.881 139.73 222.661C120.718 236.441 134.264 218.475 148.18 205.709C162.097 192.943 150.033 182.075 130.104 195.309C110.175 208.543 150.793 167.307 120.9 163.914C97.1425 161.216 126.041 206.209 105.001 194.886C83.9605 183.563 76.9795 192.936 90.194 205.735C103.408 218.533 115.94 236.454 97.7015 222.687C79.4625 208.92 62.8095 217.961 78.4355 231.735C94.0615 245.508 94.64 256.786 86.1055 248.121C77.571 239.457 70.1935 239.405 72.111 251.417C72.579 254.4 74.243 257.423 76.8885 260.289C77.6384 261.027 78.532 261.603 79.5137 261.981C80.4955 262.359 81.5444 262.531 82.5955 262.486H158.379C160.984 259.264 162.806 255.482 163.702 251.436C166.263 239.379 151.619 245.879 142.603 254.537Z" fill="white"/>
<path d="M277.075 257.328C276.652 249.398 267.24 253.688 262.352 259.402C257.464 265.115 260.24 253.428 269.502 244.335C278.765 235.241 265.31 229.268 254.143 238.361C242.976 247.455 249.365 235.599 257.035 227.175C264.705 218.751 253.844 211.575 241.903 220.298C229.963 229.021 251.556 201.812 229.189 199.569C211.412 197.788 241.045 227.487 223.586 220.018C206.127 212.55 202.858 218.718 214.915 227.168C226.973 235.618 239.505 247.442 223.619 238.355C207.733 229.268 197.365 235.241 211.36 244.328C225.354 253.415 227.935 260.864 220.076 255.144C212.218 249.424 206.849 249.392 210.541 257.322C211.457 259.272 213.245 261.28 215.741 263.172C217.061 264.134 218.657 264.645 220.291 264.628H275.333C276.622 262.42 277.228 259.88 277.075 257.328Z" fill="#FF5C8A"/>
<path opacity="0.7" d="M277.075 257.328C276.652 249.398 267.24 253.688 262.352 259.402C257.464 265.115 260.24 253.428 269.502 244.335C278.765 235.241 265.31 229.268 254.143 238.361C242.976 247.455 249.365 235.599 257.035 227.175C264.705 218.751 253.844 211.575 241.903 220.298C229.963 229.021 251.556 201.812 229.189 199.569C211.412 197.788 241.045 227.487 223.586 220.018C206.127 212.55 202.858 218.718 214.915 227.168C226.973 235.618 239.505 247.442 223.619 238.355C207.733 229.268 197.365 235.241 211.36 244.328C225.354 253.415 227.935 260.864 220.076 255.144C212.218 249.424 206.849 249.392 210.541 257.322C211.457 259.272 213.245 261.28 215.741 263.172C217.061 264.134 218.657 264.645 220.291 264.628H275.333C276.622 262.42 277.228 259.88 277.075 257.328Z" fill="white"/>
<path d="M187.025 268.625L196.236 169.676H207.162L209.223 268.625H187.025Z" fill="#FF5C8A"/>
<path d="M205.068 209.229C213.134 207.565 223.313 191.173 223.313 191.173C223.313 191.173 224.659 190.913 226.199 192.472C224.152 199.512 204.301 226.019 204.301 226.019L205.068 209.229Z" fill="#FF5C8A"/>
<path d="M196.598 185.01C190.313 185.01 184.515 175.539 184.515 175.539C184.127 175.47 183.729 175.493 183.352 175.606C182.975 175.719 182.63 175.918 182.344 176.189C183.195 181.389 195.701 197.041 195.701 197.041L196.598 185.01Z" fill="#FF5C8A"/>
<path opacity="0.1" d="M182.344 176.204C183.572 175.242 183.884 175.515 183.884 175.515C183.884 175.515 188.077 185.915 194.525 186.279L196.234 169.672L202.507 172.922L203.807 242.082L205.991 268.634H196.371L197.671 236.342L194.993 239.774L190.443 268.634H187.069L193.725 194.476C190.111 189.822 182.981 180.072 182.344 176.204Z" fill="black"/>
<path d="M207.519 178.178C208.169 175.247 211.926 173.583 215.897 174.467C216.713 174.646 217.502 174.932 218.244 175.318C219.363 174.621 220.613 174.158 221.916 173.955C223.22 173.753 224.551 173.817 225.829 174.142C228.059 174.597 230.076 175.778 231.562 177.502C232.961 177.347 234.375 177.426 235.748 177.736C240.948 178.9 244.51 182.975 243.652 186.836C242.794 190.697 237.861 192.888 232.635 191.724C232.238 191.64 231.855 191.529 231.478 191.412C229.456 194.597 224.614 196.196 219.537 195.065C213.473 193.72 209.371 188.994 210.366 184.509C210.412 184.29 210.471 184.073 210.541 183.859C208.318 182.488 207.051 180.297 207.519 178.178Z" fill="#FF5C8A"/>
<path opacity="0.4" d="M207.519 178.178C208.169 175.247 211.926 173.583 215.897 174.467C216.713 174.646 217.502 174.932 218.244 175.318C219.363 174.621 220.613 174.158 221.916 173.955C223.22 173.753 224.551 173.817 225.829 174.142C228.059 174.597 230.076 175.778 231.562 177.502C232.961 177.347 234.375 177.426 235.748 177.736C240.948 178.9 244.51 182.975 243.652 186.836C242.794 190.697 237.861 192.888 232.635 191.724C232.238 191.64 231.855 191.529 231.478 191.412C229.456 194.597 224.614 196.196 219.537 195.065C213.473 193.72 209.371 188.994 210.366 184.509C210.412 184.29 210.471 184.073 210.541 183.859C208.318 182.488 207.051 180.297 207.519 178.178Z" fill="black"/>
<path d="M177.236 171.776C177.451 171.776 177.652 171.776 177.886 171.809C178.536 169.982 180.792 168.637 183.47 168.637C186.661 168.637 189.255 170.548 189.255 172.914C189.261 173.024 189.261 173.135 189.255 173.245C190.555 173.7 191.413 174.656 191.413 175.774C191.413 177.321 189.716 178.575 187.623 178.575C187.185 178.578 186.748 178.523 186.323 178.413C185.838 178.886 185.261 179.257 184.629 179.503C183.997 179.748 183.322 179.864 182.644 179.843C181.475 179.864 180.331 179.496 179.394 178.796C178.71 179.029 177.992 179.148 177.269 179.147C174.513 179.147 172.283 177.503 172.283 175.462C172.283 173.421 174.48 171.776 177.236 171.776Z" fill="#FF5C8A"/>
<path opacity="0.4" d="M177.236 171.776C177.451 171.776 177.652 171.776 177.886 171.809C178.536 169.982 180.792 168.637 183.47 168.637C186.661 168.637 189.255 170.548 189.255 172.914C189.261 173.024 189.261 173.135 189.255 173.245C190.555 173.7 191.413 174.656 191.413 175.774C191.413 177.321 189.716 178.575 187.623 178.575C187.185 178.578 186.748 178.523 186.323 178.413C185.838 178.886 185.261 179.257 184.629 179.503C183.997 179.748 183.322 179.864 182.644 179.843C181.475 179.864 180.331 179.496 179.394 178.796C178.71 179.029 177.992 179.148 177.269 179.147C174.513 179.147 172.283 177.503 172.283 175.462C172.283 173.421 174.48 171.776 177.236 171.776Z" fill="black"/>
<path d="M246.818 172.271C247.468 164.972 239.349 158.01 228.748 156.71C227.942 156.613 227.149 156.554 226.362 156.528C224.412 149.677 216.125 143.795 205.822 142.54C201.982 142.039 198.081 142.291 194.337 143.281C193.687 142.774 192.998 142.28 192.276 141.812C183.592 136.235 173.238 136.417 169.156 142.222C165.555 147.331 168.025 155.105 174.59 160.695C173.779 161.771 173.284 163.052 173.16 164.393C172.692 169.944 178.841 175.235 186.901 176.223C188.55 176.422 190.217 176.422 191.867 176.223C194.688 179.701 199.699 182.372 205.575 183.087C210.522 183.692 215.098 182.788 218.426 180.864C220.984 182.03 223.707 182.793 226.499 183.126C237.113 184.459 246.213 179.59 246.818 172.271Z" fill="#FF5C8A"/>
<path opacity="0.2" d="M246.818 172.271C247.468 164.972 239.349 158.01 228.748 156.71C227.942 156.613 227.149 156.554 226.362 156.528C224.412 149.677 216.125 143.795 205.822 142.54C201.982 142.039 198.081 142.291 194.337 143.281C193.687 142.774 192.998 142.28 192.276 141.812C183.592 136.235 173.238 136.417 169.156 142.222C165.555 147.331 168.025 155.105 174.59 160.695C173.779 161.771 173.284 163.052 173.16 164.393C172.692 169.944 178.841 175.235 186.901 176.223C188.55 176.422 190.217 176.422 191.867 176.223C194.688 179.701 199.699 182.372 205.575 183.087C210.522 183.692 215.098 182.788 218.426 180.864C220.984 182.03 223.707 182.793 226.499 183.126C237.113 184.459 246.213 179.59 246.818 172.271Z" fill="black"/>
<path d="M181.864 143.391C181.864 143.391 179.537 147.122 182.514 149.052C184.782 147.102 181.864 143.391 181.864 143.391Z" fill="#FF5C8A"/>
<path d="M166.264 151.388C166.264 151.388 168.695 155.054 171.678 153.162C170.814 150.296 166.264 151.388 166.264 151.388Z" fill="#FF5C8A"/>
<path d="M221.664 146.168C221.664 146.168 224.452 149.58 221.761 151.868C219.272 150.224 221.664 146.168 221.664 146.168Z" fill="#FF5C8A"/>
<path d="M199.868 144.262C199.868 144.262 198.965 147.869 201.851 148.649C203.157 146.498 199.868 144.262 199.868 144.262Z" fill="#FF5C8A"/>
<path d="M232.914 164.869C232.914 164.869 230.392 162.133 228.156 164.115C229.242 166.423 232.914 164.869 232.914 164.869Z" fill="#FF5C8A"/>
<path d="M194.766 154.48C194.766 154.48 193.719 158.055 196.566 158.952C197.964 156.846 194.766 154.48 194.766 154.48Z" fill="#FF5C8A"/>
<path d="M199.791 168.305C199.791 168.305 198.393 171.756 201.143 172.933C202.735 170.97 199.791 168.305 199.791 168.305Z" fill="#FF5C8A"/>
<path d="M211.795 157.002C211.795 157.002 208.305 155.702 207.213 158.49C209.215 160.031 211.795 157.002 211.795 157.002Z" fill="#FF5C8A"/>
<path d="M248.475 168.312C248.475 168.312 245.53 166.037 243.658 168.364C245.108 170.425 248.475 168.312 248.475 168.312Z" fill="#FF5C8A"/>
<path d="M233.714 180.447C233.714 180.447 233.656 176.729 230.666 176.723C229.964 179.141 233.714 180.447 233.714 180.447Z" fill="#FF5C8A"/>
<path d="M218.516 168.527C218.516 168.527 214.792 168.638 214.824 171.621C217.249 172.304 218.516 168.527 218.516 168.527Z" fill="#FF5C8A"/>
<path d="M184.158 163.691C184.158 163.691 184.379 167.409 187.363 167.286C187.967 164.835 184.158 163.691 184.158 163.691Z" fill="#FF5C8A"/>
<path opacity="0.5" d="M248.475 168.314C247.724 167.763 246.84 167.422 245.914 167.326C243.535 162.068 236.885 157.732 228.747 156.738C227.941 156.64 227.148 156.582 226.362 156.556C225.656 154.275 224.42 152.195 222.754 150.485C223.495 148.411 221.662 146.169 221.662 146.169C221.236 146.932 220.923 147.753 220.733 148.606C216.422 145.244 211.258 143.153 205.822 142.568C201.982 142.067 198.081 142.319 194.336 143.309C193.686 142.802 192.997 142.308 192.276 141.84C183.592 136.263 173.237 136.445 169.155 142.249C167.375 144.771 167.082 147.95 168.024 151.187C167.428 151.195 166.833 151.263 166.25 151.388C166.916 152.349 167.846 153.096 168.928 153.54C170.29 156.305 172.219 158.752 174.589 160.722C173.779 161.798 173.283 163.079 173.159 164.421C172.932 167.099 174.251 169.712 176.572 171.811C174.134 172.052 172.249 173.592 172.249 175.464C172.249 177.499 174.479 179.15 177.235 179.15C177.958 179.15 178.676 179.032 179.36 178.799C180.298 179.498 181.441 179.867 182.61 179.845C182.983 179.846 183.355 179.813 183.722 179.748L183.884 180.06V180.105C184.001 180.326 184.125 180.547 184.248 180.755L184.365 180.963L184.684 181.522L184.801 181.717C184.944 181.971 185.093 182.218 185.249 182.471L185.301 182.549C185.438 182.783 185.587 183.017 185.73 183.251L185.867 183.466L186.257 184.077C186.302 184.142 186.341 184.207 186.38 184.272L186.9 185.065L186.965 185.156L187.433 185.864L187.589 186.092L188.005 186.703L188.142 186.904L188.688 187.691L188.766 187.801L189.24 188.451L189.396 188.672L189.825 189.277L189.949 189.446L190.488 190.193L190.586 190.33C190.735 190.531 190.878 190.733 191.028 190.928L191.184 191.142L191.567 191.662L191.704 191.851L192.191 192.501L192.302 192.65L192.672 193.144L192.815 193.333L193.147 193.775C193.192 193.827 193.231 193.885 193.27 193.937C193.4 194.106 193.53 194.269 193.647 194.431L187.024 268.629H209.221L208.22 220.672C213.258 213.736 221.734 201.744 225.01 195.25C227.85 194.776 230.21 193.404 231.477 191.415C231.854 191.532 232.238 191.643 232.634 191.727C237.834 192.891 242.794 190.707 243.652 186.839C244.152 184.59 243.151 182.289 241.201 180.495C244.451 178.545 246.531 175.672 246.817 172.299C246.906 171.233 246.814 170.161 246.544 169.127C247.223 168.948 247.873 168.675 248.475 168.314ZM195.24 179.364L194.681 184.766C191.431 183.849 188.506 180.866 186.627 178.506C186.938 178.569 187.253 178.602 187.57 178.604C189.416 178.604 190.95 177.629 191.288 176.342L191.866 176.29C192.841 177.461 193.977 178.487 195.24 179.338V179.364ZM207.96 208.114L207.44 183.31C208.214 183.349 208.968 183.342 209.702 183.31C209.971 183.526 210.251 183.727 210.541 183.914C210.471 184.128 210.412 184.344 210.365 184.564C209.371 189.049 213.472 193.775 219.537 195.12C219.875 195.198 220.187 195.257 220.544 195.309C217.574 199.371 212.66 205.468 207.96 208.088V208.114Z" fill="white"/>
<path d="M182.65 88.2066C182.65 88.2066 186.017 93.2311 190.099 90.6051C188.929 86.6791 182.65 88.2066 182.65 88.2066Z" fill="#FF5C8A"/>
<path d="M81.8359 266.065L94.6929 127.895H109.955L112.828 266.065H81.8359Z" fill="#FF5C8A"/>
<path d="M107.029 183.126C118.293 180.799 132.509 157.913 132.509 157.913C132.509 157.913 134.387 157.555 136.532 159.7C133.672 169.535 105.982 206.546 105.982 206.546L107.029 183.126Z" fill="#FF5C8A"/>
<path d="M95.2057 149.312C86.4307 149.344 78.3057 136.084 78.3057 136.084C78.3057 136.084 77.0057 135.668 75.2832 137.014C76.4727 144.281 93.9252 166.127 93.9252 166.127L95.2057 149.312Z" fill="#FF5C8A"/>
<path opacity="0.1" d="M75.3027 137.014C77.0187 135.669 77.4542 136.046 77.4542 136.046C77.4542 136.046 83.3042 150.606 92.3067 151.074L94.6922 127.895L103.461 132.445L105.255 229.015L108.31 266.098H94.8872L96.6747 221.001L92.9372 225.804L86.5412 266.104H81.8352L91.1302 162.52C86.1447 156.02 76.1932 142.442 75.3027 137.014Z" fill="black"/>
<path d="M110.455 139.773C111.371 135.671 116.604 133.344 122.155 134.573C123.284 134.83 124.376 135.23 125.405 135.762C128.044 133.942 131.944 133.227 135.993 134.124C139.11 134.755 141.928 136.406 144.001 138.817C145.955 138.598 147.933 138.708 149.851 139.142C157.144 140.767 162.091 146.455 160.901 151.85C159.712 157.245 152.809 160.3 145.516 158.675C144.969 158.557 144.429 158.412 143.897 158.239C141.076 162.685 134.316 164.921 127.225 163.342C118.775 161.457 113.029 154.892 114.42 148.6C114.485 148.301 114.576 148.008 114.667 147.722C111.566 145.792 109.798 142.73 110.455 139.773Z" fill="#FF5C8A"/>
<path opacity="0.4" d="M110.455 139.773C111.371 135.671 116.604 133.344 122.155 134.573C123.284 134.83 124.376 135.23 125.405 135.762C128.044 133.942 131.944 133.227 135.993 134.124C139.11 134.755 141.928 136.406 144.001 138.817C145.955 138.598 147.933 138.708 149.851 139.142C157.144 140.767 162.091 146.455 160.901 151.85C159.712 157.245 152.809 160.3 145.516 158.675C144.969 158.557 144.429 158.412 143.897 158.239C141.076 162.685 134.316 164.921 127.225 163.342C118.775 161.457 113.029 154.892 114.42 148.6C114.485 148.301 114.576 148.008 114.667 147.722C111.566 145.792 109.798 142.73 110.455 139.773Z" fill="black"/>
<path d="M68.1659 130.826C68.4649 130.826 68.7509 130.826 69.0369 130.872C69.9599 128.324 73.0929 126.445 76.8369 126.445C81.3024 126.445 84.9164 129.117 84.9164 132.412C84.9155 132.569 84.9047 132.725 84.8839 132.88C86.6649 133.53 87.8999 134.83 87.8999 136.41C87.8999 138.574 85.5274 140.31 82.6024 140.31C82.0011 140.31 81.4024 140.231 80.8214 140.076C80.1473 140.741 79.345 141.261 78.4634 141.607C77.5818 141.952 76.6393 142.114 75.6929 142.084C74.0549 142.116 72.4533 141.599 71.1429 140.615C70.1883 140.949 69.1838 141.119 68.1724 141.116C64.3309 141.116 61.2109 138.808 61.2109 135.961C61.2109 133.114 64.3244 130.826 68.1659 130.826Z" fill="#FF5C8A"/>
<path opacity="0.4" d="M68.1659 130.826C68.4649 130.826 68.7509 130.826 69.0369 130.872C69.9599 128.324 73.0929 126.445 76.8369 126.445C81.3024 126.445 84.9164 129.117 84.9164 132.412C84.9155 132.569 84.9047 132.725 84.8839 132.88C86.6649 133.53 87.8999 134.83 87.8999 136.41C87.8999 138.574 85.5274 140.31 82.6024 140.31C82.0011 140.31 81.4024 140.231 80.8214 140.076C80.1473 140.741 79.345 141.261 78.4634 141.607C77.5818 141.952 76.6393 142.114 75.6929 142.084C74.0549 142.116 72.4533 141.599 71.1429 140.615C70.1883 140.949 69.1838 141.119 68.1724 141.116C64.3309 141.116 61.2109 138.808 61.2109 135.961C61.2109 133.114 64.3244 130.826 68.1659 130.826Z" fill="black"/>
<path d="M165.328 131.554C166.199 121.362 154.928 111.638 140.095 109.831C138.971 109.694 137.866 109.61 136.767 109.571C133.998 100.003 122.467 91.7997 108.083 90.0707C102.721 89.3742 97.2744 89.7275 92.0473 91.1107C91.1308 90.3957 90.1753 89.7132 89.1678 89.0632C77.0388 81.2632 62.5893 81.5167 56.8823 89.6287C51.8643 96.7787 55.3028 107.614 64.4743 115.427C63.3386 116.927 62.6472 118.715 62.4788 120.588C61.8288 128.336 70.4088 135.727 81.6603 137.105C83.9637 137.384 86.2924 137.384 88.5958 137.105C92.5413 141.96 99.5353 145.685 107.738 146.686C114.641 147.531 121.037 146.276 125.678 143.585C129.252 145.213 133.056 146.279 136.956 146.744C151.763 148.538 164.464 141.72 165.328 131.554Z" fill="#FF5C8A"/>
<path opacity="0.2" d="M165.328 131.554C166.199 121.362 154.928 111.638 140.095 109.831C138.971 109.694 137.866 109.61 136.767 109.571C133.998 100.003 122.467 91.7997 108.083 90.0707C102.721 89.3742 97.2744 89.7275 92.0473 91.1107C91.1308 90.3957 90.1753 89.7132 89.1678 89.0632C77.0388 81.2632 62.5893 81.5167 56.8823 89.6287C51.8643 96.7787 55.3028 107.614 64.4743 115.427C63.3386 116.927 62.6472 118.715 62.4788 120.588C61.8288 128.336 70.4088 135.727 81.6603 137.105C83.9637 137.384 86.2924 137.384 88.5958 137.105C92.5413 141.96 99.5353 145.685 107.738 146.686C114.641 147.531 121.037 146.276 125.678 143.585C129.252 145.213 133.056 146.279 136.956 146.744C151.763 148.538 164.464 141.72 165.328 131.554Z" fill="black"/>
<path d="M74.665 91.1914C74.665 91.1914 71.415 96.3914 75.5425 99.1019C78.7015 96.3784 74.665 91.1914 74.665 91.1914Z" fill="#FF5C8A"/>
<path d="M52.832 102.358C52.832 102.358 56.225 107.48 60.3915 104.835C59.2215 100.837 52.832 102.358 52.832 102.358Z" fill="#FF5C8A"/>
<path d="M130.201 95.0703C130.201 95.0703 134.101 99.8348 130.338 103.033C126.86 100.732 130.201 95.0703 130.201 95.0703Z" fill="#FF5C8A"/>
<path d="M99.769 92.4062C99.769 92.4062 98.5146 97.4503 102.538 98.5423C104.365 95.5328 99.769 92.4062 99.769 92.4062Z" fill="#FF5C8A"/>
<path d="M145.919 121.181C145.919 121.181 142.39 117.359 139.27 120.128C140.784 123.306 145.919 121.181 145.919 121.181Z" fill="#FF5C8A"/>
<path d="M92.6454 106.688C92.6454 106.688 91.1829 111.673 95.1609 112.921C97.1109 109.99 92.6454 106.688 92.6454 106.688Z" fill="#FF5C8A"/>
<path d="M99.659 125.984C99.659 125.984 97.709 130.801 101.55 132.445C103.78 129.715 99.659 125.984 99.659 125.984Z" fill="#FF5C8A"/>
<path d="M116.428 110.201C116.428 110.201 111.553 108.394 110.025 112.275C112.82 114.42 116.428 110.201 116.428 110.201Z" fill="#FF5C8A"/>
<path d="M167.642 125.998C167.642 125.998 163.534 122.813 160.914 126.063C162.936 128.949 167.642 125.998 167.642 125.998Z" fill="#FF5C8A"/>
<path d="M147.03 142.942C147.03 142.942 146.945 137.742 142.772 137.742C141.784 141.116 147.03 142.942 147.03 142.942Z" fill="#FF5C8A"/>
<path d="M125.808 126.297C125.808 126.297 120.608 126.446 120.647 130.613C124.014 131.562 125.808 126.297 125.808 126.297Z" fill="#FF5C8A"/>
<path d="M77.8633 119.535C77.8633 119.535 78.1753 124.735 82.3418 124.56C83.1478 121.134 77.8633 119.535 77.8633 119.535Z" fill="#FF5C8A"/>
<path opacity="0.3" d="M167.642 125.998C166.594 125.223 165.357 124.745 164.06 124.613C160.745 117.268 151.457 111.217 140.095 109.832C138.97 109.696 137.865 109.611 136.767 109.572C135.778 106.396 134.049 103.5 131.723 101.122C132.763 98.2297 130.202 95.0967 130.202 95.0967C129.604 96.1625 129.166 97.31 128.902 98.5027C123.65 94.2062 116.337 91.0732 108.102 90.0527C102.74 89.3562 97.2932 89.7095 92.0661 91.0927C91.1496 90.3777 90.1941 89.6952 89.1866 89.0452C77.0576 81.2452 62.6081 81.5052 56.9011 89.6107C54.4246 93.1337 54.0086 97.5667 55.3281 102.091C54.4955 102.103 53.666 102.197 52.8516 102.37C53.7791 103.713 55.0779 104.757 56.5891 105.373C58.4865 109.229 61.1727 112.644 64.4736 115.396C63.3379 116.896 62.6465 118.684 62.4781 120.557C62.1596 124.295 63.9991 127.941 67.2426 130.879C63.8366 131.217 61.2041 133.369 61.2041 135.975C61.2041 138.822 64.3241 141.13 68.1656 141.13C69.1769 141.132 70.1814 140.963 71.1361 140.629C72.4462 141.613 74.0479 142.13 75.6861 142.098C76.2072 142.098 76.7272 142.05 77.2396 141.955L77.4671 142.391L77.5061 142.462C77.6621 142.761 77.8376 143.073 78.0066 143.385L78.1756 143.678C78.3186 143.931 78.4681 144.191 78.6241 144.451L78.7801 144.731L79.4301 145.777L79.4951 145.888L80.1061 146.869L80.2946 147.168C80.4701 147.454 80.6521 147.734 80.8341 148.02L81.0096 148.293L81.7376 149.398L81.8221 149.528C82.0366 149.859 82.2576 150.178 82.4721 150.516L82.6866 150.834L83.2716 151.692L83.4601 151.965L84.2206 153.064L84.3311 153.22L84.9811 154.169C85.0591 154.266 85.1306 154.37 85.2021 154.474L85.8001 155.313L85.9756 155.553C86.2291 155.904 86.4761 156.255 86.7296 156.6L86.8596 156.782C87.0676 157.068 87.2691 157.347 87.4771 157.62L87.6981 157.926L88.2311 158.654L88.4261 158.914L89.0761 159.817L89.2321 160.025L89.7521 160.721L89.9536 160.987L90.4151 161.598C90.4736 161.67 90.5321 161.748 90.5841 161.826L91.1106 162.515L81.8351 266.066H112.827L111.436 199.116C118.463 189.438 130.286 172.694 134.882 163.626C138.84 162.976 142.136 161.026 143.904 158.27C144.43 158.439 144.97 158.582 145.522 158.706C152.815 160.331 159.705 157.276 160.908 151.881C161.61 148.735 160.212 145.498 157.489 143.015C161.993 140.272 164.931 136.287 165.328 131.575C165.45 130.088 165.322 128.592 164.951 127.148C165.896 126.888 166.801 126.501 167.642 125.998ZM93.3076 141.383L92.5276 148.923C88.0166 147.623 83.9021 143.444 81.2761 140.181C81.7038 140.27 82.1391 140.318 82.5761 140.324C85.1761 140.324 87.2951 138.965 87.7761 137.165C88.0426 137.165 88.3156 137.126 88.5821 137.093C89.9482 138.738 91.539 140.182 93.3076 141.383ZM111.066 181.534L110.364 146.921C111.436 146.973 112.489 146.967 113.523 146.921C113.894 147.226 114.285 147.506 114.693 147.76C114.602 148.046 114.511 148.338 114.446 148.637C113.055 154.897 118.788 161.494 127.251 163.379C127.719 163.483 128.187 163.568 128.655 163.639C124.495 169.359 117.637 177.868 111.066 181.534Z" fill="white"/>
<path d="M189.087 118.438C207.453 118.438 222.342 103.663 222.342 85.4375C222.342 67.2121 207.453 52.4375 189.087 52.4375C170.721 52.4375 155.832 67.2121 155.832 85.4375C155.832 103.663 170.721 118.438 189.087 118.438Z" fill="#EE6D66"/>
<g clip-path="url(#clip0_11604_120994)">
<path d="M192.004 86.3621L198.227 80.1136C198.522 79.8175 198.688 79.4158 198.689 78.9968C198.689 78.5778 198.524 78.1758 198.229 77.8792C197.934 77.5826 197.534 77.4158 197.117 77.4155C196.699 77.4151 196.299 77.5812 196.004 77.8772L189.781 84.1258L183.558 77.8772C183.262 77.5807 182.862 77.4141 182.444 77.4141C182.026 77.4141 181.626 77.5807 181.33 77.8772C181.035 78.1738 180.869 78.576 180.869 78.9954C180.869 79.4148 181.035 79.817 181.33 80.1136L187.553 86.3621L181.33 92.6107C181.035 92.9073 180.869 93.3095 180.869 93.7289C180.869 94.1483 181.035 94.5505 181.33 94.847C181.626 95.1436 182.026 95.3102 182.444 95.3102C182.862 95.3102 183.262 95.1436 183.558 94.847L189.781 88.5985L196.004 94.847C196.299 95.1436 196.7 95.3102 197.117 95.3102C197.535 95.3102 197.936 95.1436 198.231 94.847C198.526 94.5505 198.692 94.1483 198.692 93.7289C198.692 93.3095 198.526 92.9073 198.231 92.6107L192.004 86.3621Z" fill="white"/>
</g>
<path d="M166.206 290.919L170.219 289.987L168.651 280.602L164.637 281.533L166.206 290.919Z" fill="#CE7A63"/>
<path d="M170.324 289.472L165.817 290.519C165.74 290.534 165.672 290.578 165.628 290.643C165.583 290.707 165.565 290.786 165.578 290.863L166.161 294.472C166.181 294.565 166.219 294.654 166.274 294.732C166.328 294.81 166.398 294.877 166.478 294.928C166.558 294.98 166.648 295.015 166.742 295.032C166.836 295.049 166.932 295.047 167.025 295.027C168.589 294.638 169.315 294.372 171.3 293.918C172.519 293.635 177.736 292.554 179.416 292.166C181.096 291.778 180.68 290.126 179.932 290.137C176.578 290.209 172.403 290.198 171.061 289.582C170.834 289.465 170.575 289.426 170.324 289.472Z" fill="#263238"/>
<path opacity="0.2" d="M164.637 281.538L168.651 280.602L169.46 285.441L165.441 286.373L164.637 281.538Z" fill="black"/>
<path d="M158.61 188.344C158.61 188.344 163.899 221.801 165.451 233.471C167.153 246.25 170.745 283.627 170.745 283.627L163.472 285.656C163.472 285.656 156.581 249.432 153.742 237.008C150.66 223.525 143.924 188.366 143.924 188.366L158.61 188.344Z" fill="#FF5C8A"/>
<path d="M158.61 188.344C158.61 188.344 163.899 221.801 165.451 233.471C167.153 246.25 170.745 283.627 170.745 283.627L163.472 285.656C163.472 285.656 156.581 249.432 153.742 237.008C150.66 223.525 143.924 188.366 143.924 188.366L158.61 188.344Z" fill="#1C2D5E"/>
<path opacity="0.3" d="M149.984 200.096C152.756 207.187 152.601 221.208 151.409 226.153C149.745 218.042 147.816 208.34 146.336 200.795C146.879 198.854 148.293 195.783 149.984 200.096Z" fill="black"/>
<path d="M163.288 285.78L171.077 283.634L170.95 280.469L162.174 283.496L163.288 285.78Z" fill="#FF5C8A"/>
<path d="M171.903 289.84C171.538 289.913 171.167 289.949 170.795 289.945C170.775 289.945 170.757 289.94 170.741 289.929C170.725 289.918 170.713 289.902 170.706 289.884C170.698 289.869 170.693 289.852 170.693 289.834C170.693 289.817 170.698 289.8 170.706 289.784C170.817 289.662 171.776 288.626 172.314 288.703C172.374 288.713 172.431 288.738 172.48 288.776C172.528 288.814 172.567 288.863 172.591 288.92C172.643 289.003 172.671 289.099 172.671 289.197C172.671 289.295 172.643 289.391 172.591 289.474C172.413 289.675 172.169 289.805 171.903 289.84ZM171.027 289.746C171.776 289.746 172.303 289.579 172.447 289.352C172.478 289.299 172.494 289.239 172.494 289.177C172.494 289.116 172.478 289.056 172.447 289.003C172.437 288.974 172.419 288.948 172.396 288.929C172.372 288.909 172.344 288.896 172.314 288.892C172.02 288.853 171.427 289.346 171.027 289.746Z" fill="#FF5C8A"/>
<path d="M170.823 289.942H170.778C170.762 289.94 170.748 289.932 170.736 289.922C170.724 289.911 170.716 289.897 170.712 289.881C170.712 289.831 170.346 288.7 170.662 288.218C170.702 288.156 170.756 288.104 170.819 288.065C170.883 288.027 170.954 288.003 171.028 287.996C171.108 287.979 171.193 287.99 171.266 288.027C171.34 288.065 171.399 288.126 171.432 288.201C171.621 288.617 171.211 289.587 170.878 289.92L170.823 289.942ZM171.006 288.196C170.968 288.204 170.933 288.219 170.901 288.241C170.87 288.263 170.843 288.291 170.823 288.323C170.682 288.756 170.682 289.222 170.823 289.654C171.129 289.264 171.278 288.773 171.238 288.279C171.238 288.229 171.166 288.174 171.028 288.185L171.006 288.196Z" fill="#FF5C8A"/>
<path d="M158.831 156.539C159.474 157.432 160.007 158.247 160.55 159.123C161.093 159.998 161.603 160.852 162.085 161.739C163.077 163.515 163.977 165.342 164.78 167.211C165.179 168.148 165.573 169.096 165.916 170.066C166.099 170.549 166.255 171.042 166.415 171.535C166.493 171.796 166.582 171.996 166.654 172.3C166.726 172.605 166.798 172.899 166.848 173.243C166.912 173.645 166.947 174.05 166.953 174.457C166.953 174.77 166.923 175.081 166.864 175.388C166.755 175.94 166.511 176.456 166.155 176.891C165.9 177.192 165.587 177.439 165.234 177.617C164.931 177.774 164.603 177.875 164.264 177.916C163.85 177.965 163.429 177.931 163.028 177.817C162.6 177.701 162.196 177.513 161.83 177.262C161.326 176.913 160.866 176.504 160.461 176.043C160.086 175.625 159.743 175.181 159.435 174.712L161.487 172.406C162.252 172.739 163.041 173.013 163.848 173.226C163.981 173.226 164.109 173.226 164.009 173.16C163.851 173.09 163.675 173.068 163.505 173.099C163.285 173.123 163.071 173.185 162.873 173.282C162.61 173.416 162.378 173.604 162.192 173.833C162.005 174.062 161.869 174.327 161.792 174.612C161.753 174.756 161.747 174.806 161.725 174.812C161.703 174.817 161.653 174.712 161.587 174.59L161.359 174.13C161.276 173.975 161.182 173.725 161.093 173.526C160.91 173.104 160.744 172.683 160.539 172.267C160.162 171.43 159.768 170.604 159.347 169.767C158.504 168.104 157.6 166.479 156.658 164.866C156.181 164.062 155.699 163.258 155.205 162.466C154.712 161.673 154.202 160.858 153.736 160.154L158.831 156.539Z" fill="#CE7A63"/>
<path d="M157.285 152.797C153.205 151.849 150.727 154.461 151.947 159.567C152.704 162.488 153.629 165.362 154.719 168.176C154.957 168.808 155.179 169.374 155.362 169.839L164.62 164.661C163.622 160.609 160.013 153.435 157.285 152.797Z" fill="#FF5C8A"/>
<path opacity="0.3" d="M157.456 157.634C154.994 155.416 157.511 164.353 158.565 168.057L161.287 166.538C160.999 163.971 159.346 159.325 157.456 157.634Z" fill="black"/>
<path d="M135.779 292.679H139.887L140.497 283.16H136.389L135.779 292.679Z" fill="#CE7A63"/>
<path d="M140.11 292.203H135.492C135.453 292.202 135.415 292.208 135.378 292.221C135.342 292.235 135.309 292.255 135.281 292.282C135.252 292.308 135.229 292.339 135.213 292.374C135.197 292.41 135.188 292.447 135.187 292.486L134.932 296.14C134.93 296.234 134.948 296.329 134.983 296.417C135.018 296.505 135.071 296.585 135.137 296.652C135.204 296.72 135.283 296.774 135.371 296.81C135.458 296.847 135.552 296.866 135.647 296.866C137.255 296.838 138.02 296.744 140.054 296.744C141.302 296.744 146.613 296.877 148.337 296.877C150.061 296.877 150.028 295.169 149.296 295.014C146.025 294.321 141.967 293.351 140.814 292.458C140.616 292.294 140.367 292.204 140.11 292.203Z" fill="#263238"/>
<path opacity="0.2" d="M136.39 283.16H140.498L140.182 288.067H136.074L136.39 283.16Z" fill="black"/>
<path d="M150.588 188.344C150.588 188.344 150.727 219.545 149.967 231.309C149.136 244.199 141.956 286.887 141.956 286.887H134.428C134.428 286.887 138.17 245.235 137.815 232.479C137.433 218.619 136.629 188.344 136.629 188.344H150.588Z" fill="#FF5C8A"/>
<path d="M150.588 188.344C150.588 188.344 150.727 219.545 149.967 231.309C149.136 244.199 141.956 286.887 141.956 286.887H134.428C134.428 286.887 138.17 245.235 137.815 232.479C137.433 218.619 136.629 188.344 136.629 188.344H150.588Z" fill="#1C2D5E"/>
<path d="M134.123 286.888H142.262L142.733 284.027L133.752 284.476L134.123 286.888Z" fill="#FF5C8A"/>
<path d="M141.563 292.918C141.189 292.91 140.817 292.861 140.454 292.774C140.436 292.768 140.421 292.758 140.408 292.745C140.395 292.731 140.386 292.715 140.382 292.697C140.379 292.678 140.382 292.66 140.39 292.643C140.398 292.626 140.41 292.612 140.426 292.602C140.554 292.508 141.723 291.715 142.228 291.909C142.284 291.932 142.334 291.969 142.372 292.017C142.409 292.065 142.434 292.121 142.444 292.181C142.47 292.271 142.472 292.366 142.45 292.457C142.429 292.548 142.385 292.633 142.322 292.702C142.104 292.865 141.834 292.942 141.563 292.918ZM140.731 292.636C141.463 292.78 142.006 292.758 142.2 292.564C142.241 292.519 142.269 292.464 142.282 292.404C142.295 292.345 142.291 292.283 142.272 292.225C142.268 292.195 142.256 292.167 142.238 292.142C142.219 292.118 142.195 292.099 142.167 292.087C141.89 291.981 141.208 292.309 140.731 292.636Z" fill="#FF5C8A"/>
<path d="M140.487 292.773H140.442C140.429 292.764 140.417 292.753 140.409 292.739C140.4 292.726 140.394 292.711 140.393 292.695C140.393 292.645 140.304 291.464 140.725 291.065C140.777 291.012 140.841 290.972 140.911 290.949C140.982 290.926 141.057 290.92 141.13 290.932C141.211 290.935 141.289 290.965 141.351 291.017C141.413 291.069 141.456 291.141 141.474 291.22C141.568 291.669 140.947 292.529 140.537 292.773H140.487ZM141.041 291.109C141.003 291.108 140.965 291.115 140.93 291.13C140.895 291.144 140.863 291.165 140.836 291.192C140.607 291.586 140.508 292.042 140.553 292.495C140.941 292.185 141.196 291.739 141.268 291.248C141.268 291.192 141.224 291.126 141.086 291.109H141.041Z" fill="#FF5C8A"/>
<path d="M158.61 188.344H136.628C136.49 186.381 136.994 179.994 136.717 171.862C136.559 165.838 135.878 159.839 134.682 153.932C134.588 153.489 134.488 153.051 134.389 152.607C134.389 152.607 135.497 152.38 137.1 152.147C138.43 151.953 140.093 151.754 141.723 151.676C144.835 151.499 147.953 151.499 151.065 151.676C152.501 151.809 153.903 152.048 155.018 152.264C156.448 152.552 157.291 152.818 157.291 152.818C157.291 152.818 162.602 165.231 158.61 188.344Z" fill="#FF5C8A"/>
<path d="M158.909 171.667C158.527 171.002 158.019 170.418 157.412 169.949C157.003 169.714 156.612 169.449 156.243 169.156C156.205 169.127 156.16 169.109 156.113 169.104C156.066 169.098 156.018 169.105 155.974 169.123C155.93 169.142 155.892 169.171 155.863 169.209C155.835 169.247 155.816 169.292 155.81 169.339C155.766 169.66 155.899 170.187 156.686 170.952C156.747 171.967 158.239 173.087 158.239 173.087L158.909 171.667Z" fill="#CE7A63"/>
<path opacity="0.3" d="M155.555 174.118H150.986L154.146 165.109H158.715L155.555 174.118Z" fill="black"/>
<path d="M155.865 174.118H151.297L154.457 165.109H159.025L155.865 174.118Z" fill="#263238"/>
<path opacity="0.3" d="M136.716 171.861C136.558 165.837 135.878 159.838 134.682 153.932C136.151 153.804 138.662 153.932 139.061 156.321C139.483 158.872 138.867 164.87 136.716 171.861Z" fill="black"/>
<path d="M138.685 157.818L136.346 165.824L135.187 169.821L134.633 171.817L134.355 172.809L134.222 173.308V173.369C134.222 173.402 134.222 173.369 134.222 173.369C134.225 173.334 134.225 173.299 134.222 173.264C134.233 173.16 134.233 173.056 134.222 172.953C134.183 172.69 134.086 172.438 133.94 172.216C133.851 172.083 133.736 171.97 133.602 171.883C133.457 171.805 133.552 171.883 133.707 171.955C134.183 172.122 134.679 172.23 135.182 172.277C136.47 172.413 137.766 172.469 139.062 172.443C141.751 172.41 144.556 172.255 147.301 172.066L147.91 175.093C145.143 175.975 142.31 176.641 139.439 177.083C137.93 177.324 136.405 177.447 134.877 177.449C133.971 177.45 133.069 177.344 132.188 177.133C131.541 176.981 130.928 176.711 130.38 176.335C129.955 176.039 129.591 175.662 129.311 175.226C128.962 174.713 128.743 174.123 128.673 173.507C128.645 173.229 128.645 172.949 128.673 172.67C128.673 172.548 128.673 172.426 128.723 172.304L128.762 172.083L128.861 171.528L129.055 170.469C129.189 169.765 129.333 169.061 129.488 168.363C129.787 166.966 130.098 165.591 130.447 164.188C131.129 161.416 131.888 158.7 132.764 155.961L138.685 157.818Z" fill="#CE7A63"/>
<path d="M134.383 152.603C131.644 153.241 128.573 160.453 127.492 164.506C127.309 165.199 127.165 165.792 127.054 166.247C126.91 166.845 126.832 167.206 126.832 167.206L136.018 169.823C136.207 169.368 136.44 168.802 136.684 168.159C137.826 165.349 138.804 162.474 139.611 159.55C140.914 154.455 138.474 151.661 134.383 152.603Z" fill="#FF5C8A"/>
<path d="M150.616 151.644C147.905 151.001 147.445 149.321 147.639 147.475C147.686 147.012 147.761 146.553 147.866 146.1L144.484 143.273L142.001 141.199C142.671 144.21 143.409 149.693 141.357 151.699C144.077 153.963 147.093 155.845 150.322 157.293C153.532 154.937 150.616 151.644 150.616 151.644Z" fill="#CE7A63"/>
<path opacity="0.2" d="M147.866 146.097C147.762 146.55 147.686 147.009 147.639 147.472C146.375 147.217 144.462 146.086 144.312 144.656C144.32 144.187 144.385 143.722 144.507 143.27L147.866 146.097Z" fill="black"/>
<path d="M154.203 131.652C155.384 133.526 153.155 138.92 150.322 138.532C147.489 138.144 151.974 128.093 154.203 131.652Z" fill="#263238"/>
<path d="M142.25 135.126C141.751 139.19 141.247 141.535 142.871 143.997C143.395 144.813 144.133 145.47 145.004 145.897C145.874 146.325 146.845 146.506 147.812 146.421C148.778 146.337 149.703 145.99 150.486 145.418C151.27 144.846 151.882 144.071 152.257 143.176C153.781 139.756 154.347 133.691 150.754 131.257C149.983 130.712 149.081 130.378 148.141 130.289C147.2 130.201 146.252 130.36 145.392 130.752C144.532 131.143 143.789 131.753 143.238 132.52C142.687 133.288 142.346 134.186 142.25 135.126Z" fill="#CE7A63"/>
<path d="M141.779 138.243C143.858 137.983 145.361 134.518 144.934 132.899C146.464 134.008 158.611 135.416 156.759 127.493C153.294 127.493 138.835 126.845 141.236 129.966C139.573 129.966 137.998 131.474 139.129 134.956C140.271 138.537 141.779 138.243 141.779 138.243Z" fill="#263238"/>
<path d="M139.999 138.776C140.351 139.722 141.021 140.516 141.895 141.022C143.003 141.637 143.669 140.623 143.436 139.359C143.231 138.211 142.399 136.509 141.218 136.426C140.037 136.343 139.555 137.579 139.999 138.776Z" fill="#CE7A63"/>
<path d="M148.07 137.543C148.009 137.87 148.131 138.169 148.342 138.214C148.553 138.258 148.774 138.031 148.835 137.704C148.896 137.377 148.774 137.077 148.564 137.033C148.353 136.989 148.131 137.216 148.07 137.543Z" fill="#263238"/>
<path d="M151.731 138.326C151.67 138.654 151.792 138.958 152.002 139.003C152.213 139.047 152.435 138.82 152.496 138.493C152.557 138.166 152.435 137.866 152.224 137.822C152.013 137.778 151.792 138.005 151.731 138.326Z" fill="#263238"/>
<path d="M150.532 138.242C150.734 139.323 151.079 140.373 151.558 141.363C151.305 141.475 151.031 141.529 150.755 141.523C150.479 141.516 150.208 141.448 149.961 141.325L150.532 138.242Z" fill="#BA4D3C"/>
<path d="M148.475 141.925C148.112 141.803 147.778 141.609 147.492 141.355C147.206 141.1 146.975 140.791 146.811 140.445C146.804 140.432 146.799 140.418 146.797 140.404C146.796 140.389 146.797 140.375 146.802 140.361C146.807 140.347 146.814 140.335 146.824 140.324C146.834 140.313 146.847 140.305 146.86 140.3C146.874 140.295 146.888 140.292 146.903 140.293C146.917 140.294 146.931 140.298 146.944 140.305C146.957 140.312 146.968 140.322 146.977 140.333C146.985 140.345 146.991 140.358 146.994 140.373C147.178 140.746 147.445 141.072 147.774 141.326C148.104 141.58 148.488 141.755 148.896 141.836C148.909 141.838 148.922 141.843 148.933 141.85C148.944 141.857 148.953 141.866 148.961 141.877C148.968 141.888 148.973 141.901 148.975 141.914C148.977 141.927 148.977 141.94 148.974 141.953C148.967 141.977 148.951 141.998 148.93 142.012C148.908 142.025 148.882 142.03 148.857 142.025C148.728 141.999 148.6 141.966 148.475 141.925Z" fill="#263238"/>
<path d="M147.162 136.108C147.13 136.097 147.101 136.078 147.079 136.053C147.057 136.027 147.042 135.997 147.035 135.964C147.028 135.931 147.03 135.896 147.041 135.864C147.051 135.832 147.07 135.804 147.095 135.781C147.319 135.57 147.591 135.417 147.888 135.336C148.185 135.255 148.497 135.248 148.797 135.315C148.847 135.331 148.888 135.365 148.913 135.41C148.938 135.456 148.944 135.509 148.93 135.559C148.914 135.608 148.879 135.649 148.834 135.674C148.789 135.698 148.736 135.705 148.686 135.692C148.45 135.643 148.206 135.651 147.974 135.717C147.743 135.782 147.53 135.903 147.356 136.069C147.33 136.093 147.298 136.109 147.264 136.115C147.23 136.122 147.194 136.12 147.162 136.108Z" fill="#263238"/>
<path d="M153.532 137.395C153.502 137.386 153.475 137.37 153.454 137.347C153.433 137.325 153.417 137.297 153.41 137.267C153.353 137.025 153.241 136.798 153.082 136.606C152.923 136.414 152.723 136.261 152.495 136.158C152.471 136.15 152.448 136.137 152.429 136.12C152.409 136.103 152.394 136.082 152.383 136.059C152.372 136.036 152.366 136.01 152.365 135.984C152.365 135.959 152.369 135.933 152.379 135.909C152.395 135.861 152.43 135.821 152.476 135.798C152.521 135.775 152.574 135.771 152.623 135.787C152.909 135.909 153.163 136.096 153.365 136.334C153.566 136.572 153.709 136.853 153.781 137.156C153.795 137.206 153.789 137.258 153.764 137.303C153.739 137.347 153.698 137.38 153.648 137.395C153.611 137.409 153.57 137.409 153.532 137.395Z" fill="#263238"/>
<path d="M146.568 172.214L150.959 169.941L150.205 175.07C150.205 175.07 146.596 176.062 146.258 174.16L146.568 172.214Z" fill="#CE7A63"/>
<path d="M149.562 170.665C150.054 170.067 150.656 169.57 151.337 169.201C151.828 168.979 152.298 168.712 152.739 168.403C152.781 168.381 152.828 168.37 152.875 168.371C152.922 168.373 152.968 168.386 153.008 168.411C153.049 168.436 153.082 168.47 153.105 168.512C153.127 168.553 153.139 168.6 153.138 168.647C153.054 168.996 152.898 169.323 152.682 169.609C152.465 169.895 152.192 170.134 151.88 170.31C151.647 171.302 149.984 172.173 149.984 172.173L149.562 170.665Z" fill="#CE7A63"/>
<path d="M154.551 170.652L153.936 173.851C153.91 173.989 153.843 174.115 153.744 174.214C153.645 174.312 153.519 174.379 153.381 174.406L150.166 175.071L150.948 169.987L153.836 169.838C153.941 169.83 154.046 169.847 154.143 169.887C154.24 169.927 154.326 169.989 154.395 170.068C154.465 170.147 154.515 170.241 154.542 170.342C154.569 170.443 154.572 170.55 154.551 170.652Z" fill="#CE7A63"/>
<path d="M146.23 174.16L146.569 172.214L150.959 169.941" fill="#CE7A63"/>
<path d="M160.855 172.637L157.357 170.52L157.102 175.071C157.102 175.071 160.788 176.485 161.16 174.583L160.855 172.637Z" fill="#CE7A63"/>
<path d="M155.749 170.57L155.472 174.157C155.464 174.255 155.49 174.353 155.544 174.436C155.598 174.518 155.678 174.58 155.771 174.612L157.096 175.072L157.351 170.52L156.342 170.176C156.277 170.154 156.208 170.147 156.14 170.156C156.072 170.165 156.006 170.189 155.949 170.227C155.892 170.265 155.844 170.316 155.809 170.375C155.775 170.435 155.754 170.501 155.749 170.57Z" fill="#CE7A63"/>
<defs>
<clipPath id="clip0_11604_120994">
<rect width="32.679" height="32.8131" fill="white" transform="translate(172.152 67.7969)"/>
</clipPath>
</defs>
</svg>
