<svg width="20" height="20" viewBox="0 0 20 20" fill="none" xmlns="http://www.w3.org/2000/svg">
<circle cx="10" cy="10" r="10" fill="#EDF0F4"/>
<path d="M13.0005 7.99175C12.7872 7.8691 12.5131 7.8691 12.2694 7.99175L10.5636 9.00362L9.40603 9.64754L7.73066 10.6594C7.51743 10.7821 7.24328 10.7821 6.99959 10.6594L5.68975 9.86218C5.47652 9.73953 5.32422 9.49423 5.32422 9.21826V7.68513C5.32422 7.43983 5.44606 7.19452 5.68975 7.04121L6.99959 6.27464C7.21281 6.15199 7.48697 6.15199 7.73066 6.27464L9.04049 7.07187C9.25372 7.19452 9.40603 7.43983 9.40603 7.71579V8.72766L10.5636 8.05308V7.01055C10.5636 6.76525 10.4417 6.51994 10.198 6.36663L7.76112 4.92548C7.54789 4.80283 7.27374 4.80283 7.03005 4.92548L4.53222 6.39729C4.28853 6.51994 4.16669 6.76525 4.16669 7.01055V9.89284C4.16669 10.1381 4.28853 10.3834 4.53222 10.5368L6.99959 11.9779C7.21281 12.1006 7.48697 12.1006 7.73066 11.9779L9.40603 10.9967L10.5636 10.3221L12.2389 9.34091C12.4522 9.21826 12.7263 9.21826 12.97 9.34091L14.2798 10.1075C14.4931 10.2301 14.6454 10.4754 14.6454 10.7514V12.2845C14.6454 12.5298 14.5235 12.7751 14.2798 12.9285L13.0005 13.695C12.7872 13.8177 12.5131 13.8177 12.2694 13.695L10.9596 12.9285C10.7463 12.8058 10.594 12.5605 10.594 12.2845V11.3033L9.43649 11.9779V12.9898C9.43649 13.2351 9.55833 13.4804 9.80202 13.6337L12.2694 15.0748C12.4826 15.1975 12.7568 15.1975 13.0005 15.0748L15.4678 13.6337C15.681 13.511 15.8334 13.2657 15.8334 12.9898V10.0768C15.8334 9.83152 15.7115 9.58622 15.4678 9.4329L13.0005 7.99175Z" fill="#8247E5"/>
</svg>
