<svg width="25" height="24" viewBox="0 0 25 24" fill="none" xmlns="http://www.w3.org/2000/svg">
<circle cx="12.9961" cy="12" r="12" fill="#D7EB36"/>
<path d="M18.8276 17.3556C18.7962 17.3355 18.5162 17.1565 18.3681 17.0325C18.192 16.8818 18.0297 16.7155 17.8832 16.5358C17.7065 16.3241 17.543 16.1016 17.3936 15.8697C17.066 15.3585 15.3874 12.9229 14.0383 10.9658L13.696 10.4691C12.7742 9.113 11.9104 7.84091 11.8309 7.71695C11.6481 7.43085 11.4365 7.16427 11.1994 6.92138C10.9672 6.68346 10.7024 6.47974 10.413 6.31633C10.1177 6.14986 9.78423 6.0629 9.44527 6.06397H7.22961C7.09522 6.06397 6.99698 6.17436 6.99609 6.32651C6.99609 6.45298 7.06292 6.58107 7.16426 6.64512L7.2274 6.54831L7.16456 6.64527C7.19598 6.66534 7.47581 6.84449 7.62406 6.96831C7.8001 7.11911 7.96233 7.28535 8.10879 7.46504C8.2856 7.67676 8.44911 7.89923 8.59839 8.13118C8.92484 8.64061 10.5963 11.0655 11.9393 13.0141L12.2963 13.5316C13.2175 14.887 14.0812 16.1585 14.1613 16.2837C14.3441 16.5698 14.5558 16.8364 14.793 17.0793C15.0251 17.3173 15.2899 17.521 15.5794 17.6844C15.8746 17.8508 16.208 17.9378 16.5469 17.9367H18.7627C18.8971 17.9367 18.9952 17.8263 18.9961 17.6742C18.9967 17.5479 18.9291 17.4198 18.8276 17.3556Z" fill="#1C2D5E"/>
<path d="M10.7073 13.8636L10.6983 13.8506L10.3326 13.3193C9.50576 14.5221 8.79843 15.5563 8.5984 15.8688C8.44912 16.1008 8.2856 16.3232 8.1088 16.535C7.96237 16.7147 7.80015 16.8809 7.62407 17.0317C7.47655 17.1557 7.19628 17.3347 7.16456 17.3547L7.2274 17.4517L7.16427 17.3549C7.06292 17.4189 6.99536 17.5467 6.9961 17.6735C6.99698 17.8256 7.09523 17.936 7.22962 17.936H9.44528C9.78424 17.9371 10.1177 17.8502 10.413 17.6837C10.7025 17.5203 10.9672 17.3166 11.1994 17.0786C11.4365 16.8357 11.6481 16.5692 11.8309 16.2831C11.8546 16.2462 11.9489 16.1067 12.092 15.8941C11.7217 15.348 11.3116 14.7452 11.0612 14.3766L10.7073 13.8636Z" fill="#1C2D5E"/>
<path d="M15.2708 10.1156L15.2804 10.1296L15.6599 10.6803C16.4872 9.47686 17.1941 8.4434 17.394 8.13069C17.5433 7.89879 17.7068 7.67632 17.8836 7.46455C18.0301 7.28482 18.1923 7.11858 18.3685 6.96782C18.516 6.844 18.7962 6.66485 18.828 6.64478C18.9294 6.58059 18.997 6.45293 18.9963 6.32602C18.9954 6.17387 18.8973 6.06349 18.7629 6.06349H16.5471C16.2082 6.0624 15.8748 6.14935 15.5795 6.31584C15.2901 6.47925 15.0253 6.68297 14.7931 6.92089C14.556 7.16377 14.3443 7.43036 14.1615 7.71646C14.1376 7.75379 14.0435 7.89354 13.9004 8.10546C14.2708 8.65148 14.6807 9.25417 14.9312 9.6228L15.2708 10.1156Z" fill="#1C2D5E"/>
</svg>
