<svg width="91" height="86" viewBox="0 0 91 86" fill="none" xmlns="http://www.w3.org/2000/svg">
    <g clip-path="url(#clip0)">
        <path d="M69.3629 85.3246C72.052 85.3246 74.232 85.1905 74.232 85.0251C74.232 84.8597 72.052 84.7256 69.3629 84.7256C66.6737 84.7256 64.4937 84.8597 64.4937 85.0251C64.4937 85.1905 66.6737 85.3246 69.3629 85.3246Z" fill="#E6E6E6"/>
        <path d="M36.2865 77.9418H78.8533C82.9964 77.9418 86.3551 74.5784 86.3551 70.4294V46.338C86.3551 42.189 82.9964 38.8256 78.8533 38.8256L36.2865 38.8256C32.1434 38.8256 28.7847 42.189 28.7847 46.338L28.7847 70.4294C28.7847 74.5784 32.1434 77.9418 36.2865 77.9418Z" fill="#263238"/>
        <path d="M71.4296 85.0251H67.4012L59.215 65.6019H65.3802L71.4296 85.0251Z" fill="#263238"/>
        <path d="M87.5676 56.4031H87.2982V58.3837H87.5676V56.4031Z" fill="#006EFF"/>
        <path opacity="0.2" d="M87.5676 56.4031H87.2982V58.3837H87.5676V56.4031Z" fill="black"/>
        <path d="M87.5676 47.9597H87.2982V55.0511H87.5676V47.9597Z" fill="#006EFF"/>
        <path opacity="0.2" d="M87.5676 47.9597H87.2982V55.0511H87.5676V47.9597Z" fill="black"/>
        <path d="M53.3326 37.6113H49.6787V37.8812H53.3326V37.6113Z" fill="#006EFF"/>
        <path opacity="0.2" d="M53.3326 37.6113H49.6787V37.8812H53.3326V37.6113Z" fill="black"/>
        <path d="M82.5152 65.6019L71.4215 85.0251L63.2353 65.6019H82.5152Z" fill="#006EFF"/>
        <path opacity="0.2" d="M82.5184 65.6019L71.4247 85.0251L63.2385 65.6019H82.5184Z" fill="black"/>
        <path d="M39.6736 77.9418H78.8532C82.9964 77.9418 86.355 74.5784 86.355 70.4294V46.338C86.355 42.189 82.9964 38.8256 78.8532 38.8256L39.6736 38.8256C35.5305 38.8256 32.1718 42.189 32.1718 46.338L32.1718 70.4294C32.1718 74.5784 35.5305 77.9418 39.6736 77.9418Z" fill="#006EFF"/>
        <path opacity="0.2" d="M39.6736 77.9418H78.8532C82.9964 77.9418 86.355 74.5784 86.355 70.4294V46.338C86.355 42.189 82.9964 38.8256 78.8532 38.8256L39.6736 38.8256C35.5305 38.8256 32.1718 42.189 32.1718 46.338L32.1718 70.4294C32.1718 74.5784 35.5305 77.9418 39.6736 77.9418Z" fill="black"/>
        <path opacity="0.7" d="M53.2275 77.9418H46.0598L53.6424 38.8256H60.8128L53.2275 77.9418Z" fill="#006EFF"/>
        <path opacity="0.7" d="M59.7026 77.9418H55.6257L63.211 38.8256H67.2853L59.7026 77.9418Z" fill="#006EFF"/>
        <path d="M76.6356 51.4461H56.7171C56.1786 51.4267 55.6688 51.1989 55.2947 50.8106C54.9207 50.4223 54.7117 49.9038 54.7117 49.3643C54.7117 48.8248 54.9207 48.3063 55.2947 47.918C55.6688 47.5297 56.1786 47.3019 56.7171 47.2825H76.6356C76.9149 47.2724 77.1934 47.3188 77.4544 47.4189C77.7154 47.519 77.9536 47.6707 78.1547 47.865C78.3559 48.0593 78.5159 48.2922 78.6251 48.5498C78.7344 48.8074 78.7907 49.0844 78.7907 49.3643C78.7907 49.6442 78.7344 49.9212 78.6251 50.1788C78.5159 50.4364 78.3559 50.6693 78.1547 50.8636C77.9536 51.0579 77.7154 51.2096 77.4544 51.3097C77.1934 51.4098 76.9149 51.4562 76.6356 51.4461Z" fill="white"/>
        <path d="M49.8916 51.4461H40.8701C40.3317 51.4267 39.8218 51.1989 39.4477 50.8106C39.0737 50.4223 38.8647 49.9038 38.8647 49.3643C38.8647 48.8248 39.0737 48.3063 39.4477 47.918C39.8218 47.5297 40.3317 47.3019 40.8701 47.2825H49.8916C50.1709 47.2724 50.4494 47.3188 50.7104 47.4189C50.9714 47.519 51.2096 47.6707 51.4107 47.865C51.6119 48.0593 51.7719 48.2922 51.8811 48.5498C51.9904 48.8074 52.0467 49.0844 52.0467 49.3643C52.0467 49.6442 51.9904 49.9212 51.8811 50.1788C51.7719 50.4364 51.6119 50.6693 51.4107 50.8636C51.2096 51.0579 50.9714 51.2096 50.7104 51.3097C50.4494 51.4098 50.1709 51.4562 49.8916 51.4461Z" fill="white"/>
        <path d="M76.6357 60.2214H42.9854C42.447 60.202 41.9371 59.9741 41.563 59.5858C41.189 59.1976 40.98 58.6791 40.98 58.1396C40.98 57.6001 41.189 57.0816 41.563 56.6933C41.9371 56.305 42.447 56.0772 42.9854 56.0577H76.6357C76.915 56.0477 77.1934 56.0941 77.4544 56.1941C77.7154 56.2942 77.9536 56.446 78.1547 56.6403C78.3559 56.8346 78.5159 57.0675 78.6252 57.3251C78.7344 57.5827 78.7907 57.8597 78.7907 58.1396C78.7907 58.4194 78.7344 58.6965 78.6252 58.954C78.5159 59.2116 78.3559 59.4446 78.1547 59.6389C77.9536 59.8332 77.7154 59.9849 77.4544 60.085C77.1934 60.1851 76.915 60.2315 76.6357 60.2214Z" fill="white"/>
        <path d="M76.6356 68.9939H61.0473C60.5089 68.9744 59.999 68.7466 59.625 68.3583C59.2509 67.97 59.0419 67.4515 59.0419 66.912C59.0419 66.3725 59.2509 65.854 59.625 65.4658C59.999 65.0775 60.5089 64.8496 61.0473 64.8302H76.6356C76.9149 64.8201 77.1934 64.8665 77.4544 64.9666C77.7154 65.0667 77.9536 65.2184 78.1547 65.4127C78.3559 65.607 78.5159 65.84 78.6252 66.0976C78.7344 66.3551 78.7907 66.6322 78.7907 66.912C78.7907 67.1919 78.7344 67.4689 78.6252 67.7265C78.5159 67.9841 78.3559 68.217 78.1547 68.4113C77.9536 68.6056 77.7154 68.7574 77.4544 68.8575C77.1934 68.9575 76.9149 69.0039 76.6356 68.9939Z" fill="white"/>
        <path opacity="0.1" d="M41.9021 38.8176C41.9021 38.8176 38.9219 54.9541 38.9219 61.7703C38.9219 68.7619 41.3847 77.9338 41.3847 77.9338H33.5138L32.9937 69.0803C32.5036 60.8004 33.3221 52.495 35.4189 44.4707L36.8955 38.8041L41.9021 38.8176Z" fill="black"/>
        <path d="M37.7982 85.0251C37.7982 85.3435 33.3791 85.6026 27.9279 85.6026C22.4767 85.6026 18.0575 85.3327 18.0575 85.0251C18.0575 84.7175 22.4767 84.4476 27.9279 84.4476C33.3791 84.4476 37.7982 84.7067 37.7982 85.0251Z" fill="#E6E6E6"/>
        <path d="M34.4138 17.9669C33.5784 18.0991 32.797 18.1666 31.9886 18.2367C31.1802 18.3069 30.3719 18.3042 29.5635 18.2988C27.9175 18.2986 26.2766 18.1176 24.6701 17.7591C24.1596 17.6198 23.6823 17.3794 23.2662 17.0521C22.9163 16.7826 22.5867 16.4877 22.2799 16.1697C21.7139 15.5722 21.1916 14.9347 20.7171 14.262C19.7879 12.9603 18.96 11.5891 18.2407 10.1604L19.2512 9.55322C19.7039 10.1658 20.1701 10.7891 20.6497 11.3854C21.1293 11.9818 21.6063 12.5808 22.1129 13.1448C22.598 13.7019 23.1163 14.229 23.665 14.7234C23.9184 14.9513 24.1886 15.1596 24.4734 15.3467C24.6804 15.4934 24.9123 15.6013 25.1578 15.6651C25.8768 15.7859 26.6018 15.8679 27.3296 15.9107C28.0707 15.9431 28.8171 15.9619 29.5689 15.9512C30.3207 15.9404 31.0752 15.8999 31.8269 15.8459C32.5787 15.7919 33.3467 15.7137 34.0554 15.6273L34.4138 17.9669Z" fill="#FF8B7B"/>
        <path d="M36.8389 15.7758C34.7883 14.5318 32.0075 15.4358 32.0075 15.4358L33.4141 20.2929C33.4141 20.2929 35.6345 19.6669 36.5048 18.7197C37.4156 17.7402 38.0758 16.5232 36.8389 15.7758Z" fill="#263238"/>
        <path d="M19.4237 10.0578L19.9195 8.38477L17.5725 8.67619C17.7252 9.34037 18.0163 9.96474 18.4267 10.5084L19.4237 10.0578Z" fill="#FF8B7B"/>
        <path d="M19.7498 6.43384L17.7962 6.78463L17.5725 8.67622L19.9195 8.38479L19.7498 6.43384Z" fill="#FF8B7B"/>
        <path d="M46.4129 0.432519C48.4877 0.475693 47.9057 2.21077 47.9057 2.21077C47.9057 2.21077 50.1665 0.780615 50.8859 2.45093C51.6054 4.12125 49.9832 4.65014 49.0347 4.90109C49.6302 5.24379 49.6626 6.35554 48.8272 6.71982C47.9919 7.08411 46.5934 6.08299 45.5371 6.09649L44.497 4.86331C45.909 3.94585 44.3353 0.389344 46.4129 0.432519Z" fill="#263238"/>
        <path d="M46.0896 6.95462C46.995 7.11382 47.6524 7.00049 47.4746 5.99938C47.3613 5.44358 47.1098 4.92541 46.7434 4.49286C46.3769 4.06032 45.9073 3.72739 45.3782 3.52493C44.2357 3.10398 43.9797 4.99287 43.9797 4.99287L46.0896 6.95462Z" fill="#006EFF"/>
        <path d="M19.6123 76.884L17.3004 76.6168L17.7611 71.2416L20.0731 71.506L19.6123 76.884Z" fill="#FF8B7B"/>
        <path d="M34.9258 83.1848L32.603 83.0796L32.1018 77.6558L34.4272 77.7637L34.9258 83.1848Z" fill="#FF8B7B"/>
        <path d="M32.5141 82.3753H35.1279C35.1729 82.3748 35.2165 82.3906 35.2507 82.4199C35.2849 82.4492 35.3073 82.4899 35.3138 82.5345L35.6102 84.6068C35.6159 84.659 35.6105 84.7118 35.5944 84.7618C35.5783 84.8118 35.5518 84.8577 35.5167 84.8967C35.4816 84.9357 35.4386 84.9668 35.3906 84.988C35.3427 85.0092 35.2908 85.02 35.2384 85.0197C34.3276 85.0035 33.8911 84.9522 32.7378 84.9522C32.0318 84.9522 30.997 85.0251 30.0216 85.0251C29.0461 85.0251 28.9949 84.0591 29.3991 83.97C31.2234 83.5787 31.5117 83.0364 32.1261 82.521C32.234 82.4276 32.3716 82.376 32.5141 82.3753Z" fill="#263238"/>
        <path d="M17.2222 75.7695L19.8171 75.4619C19.8621 75.4558 19.9078 75.4664 19.9455 75.4918C19.9833 75.5171 20.0104 75.5555 20.0219 75.5995L20.5608 77.6206C20.5721 77.6719 20.5725 77.725 20.562 77.7764C20.5515 77.8279 20.5303 77.8766 20.4998 77.9193C20.4693 77.962 20.4302 77.9979 20.385 78.0245C20.3398 78.0512 20.2895 78.068 20.2374 78.074C19.3321 78.1657 18.8901 78.1657 17.7476 78.3006C17.047 78.3843 15.5919 78.6298 14.6327 78.7432C13.6734 78.8565 13.4982 77.904 13.8916 77.769C15.6566 77.1646 16.3033 76.544 16.8557 75.9584C16.9524 75.8549 17.0819 75.7881 17.2222 75.7695Z" fill="#263238"/>
        <path d="M17.7638 71.2416L17.524 74.0128L19.836 74.28L20.0758 71.5087L17.7638 71.2416Z" fill="#EA7063"/>
        <path d="M34.4272 77.7637L32.1018 77.6584L32.3605 80.454L34.6859 80.5592L34.4272 77.7637Z" fill="#EA7063"/>
        <path d="M34.5863 15.1578C34.5863 15.1578 33.4141 15.2307 31.827 28.9872L40.9159 31.5669C41.8132 27.8188 42.4545 25.5332 46.3752 18.4337C45.1773 17.8046 43.9354 17.2635 42.6593 16.8147C41.3127 16.3268 39.9332 15.9354 38.5312 15.6435C36.7123 15.317 34.5863 15.1578 34.5863 15.1578Z" fill="#263238"/>
        <path d="M43.5674 12.0599C42.9315 13.3147 41.9803 15.6785 42.6593 16.828C42.6593 16.828 41.9129 18.0747 39.4474 17.3677C36.7339 16.5987 38.5312 15.6515 38.5312 15.6515C40.1129 15.719 40.3851 14.6072 40.4174 13.4928L43.5674 12.0599Z" fill="#FF8B7B"/>
        <path d="M35.9901 15.2927C36.7339 15.3737 37.6689 15.4951 38.5312 15.657C39.9334 15.9481 41.313 16.3395 42.6593 16.8281C43.4327 17.098 44.1818 17.3948 44.7988 17.6727C44.6722 18.1234 43.7803 20.4683 38.4746 19.1191C33.5381 17.8454 35.427 15.7515 35.9901 15.2927Z" fill="#FF8B7B"/>
        <path d="M42.2847 12.6428L40.4228 13.4982C40.4182 13.7573 40.3911 14.0155 40.3419 14.27C40.9293 14.3482 41.9264 14.0838 42.1554 13.5063C42.2486 13.2283 42.2924 12.936 42.2847 12.6428Z" fill="#EA7063"/>
        <path d="M44.7503 9.1053C44.1925 11.3477 44.0066 12.311 42.6485 13.2636C40.606 14.6991 37.9734 13.5334 37.8494 11.1615C37.7363 9.03244 38.6578 5.72149 41.0479 5.22498C41.5732 5.11334 42.1182 5.13802 42.6313 5.29668C43.1444 5.45534 43.6084 5.74271 43.9794 6.13149C44.3503 6.52028 44.6159 6.99758 44.7508 7.51805C44.8858 8.03853 44.8856 8.58491 44.7503 9.1053Z" fill="#FF8B7B"/>
        <path d="M44.0228 11.2694C43.3464 10.9186 42.8048 9.92017 43.7803 8.99191C43.7803 8.99191 42.433 8.22286 43.1093 7.16239C43.7857 6.10191 46.4884 5.21953 46.9114 6.64429C47.3345 8.06905 46.0195 8.65461 46.0195 8.65461C46.0195 8.65461 47.0973 10.306 45.1599 10.8511C45.1599 10.8511 44.9928 13.2338 43.6024 12.1733L44.0228 11.2694Z" fill="#263238"/>
        <path d="M44.7261 11.2181C44.5978 11.6449 44.3076 12.0043 43.9177 12.2192C43.3949 12.4891 43.0069 12.06 43.0446 11.5015C43.0797 10.9969 43.3949 10.244 43.9689 10.1981C44.0947 10.1903 44.2205 10.214 44.3348 10.2672C44.4492 10.3203 44.5484 10.4012 44.6236 10.5025C44.6989 10.6038 44.7476 10.7224 44.7655 10.8473C44.7834 10.9723 44.7698 11.0997 44.7261 11.2181Z" fill="#FF8B7B"/>
        <path d="M31.827 28.9872C31.827 28.9872 21.2695 41.4565 19.4829 48.3321C17.6237 55.4829 16.7883 73.1575 16.7883 73.1575L20.4207 73.627C20.4207 73.627 22.8458 57.4554 25.8988 50.8659C29.1485 43.85 38.4961 30.8815 38.4961 30.8815L31.827 28.9872Z" fill="#006EFF"/>
        <path d="M20.9057 73.6863L16.2844 73.0819L16.2036 71.8136L21.2883 72.8471L20.9057 73.6863Z" fill="#006EFF"/>
        <path opacity="0.3" d="M20.9057 73.6863L16.2844 73.0819L16.2036 71.8136L21.2883 72.8471L20.9057 73.6863Z" fill="black"/>
        <path opacity="0.2" d="M31.6464 34.6565C30.7827 37.7198 30.1326 40.8394 29.7009 43.993C30.6656 42.4279 31.6815 40.844 32.665 39.3436C33.0234 38.5503 33.3899 37.7651 33.7428 36.9987C33.7428 36.9987 33.7428 36.9825 33.7428 36.9717L31.6464 34.6565Z" fill="black"/>
        <path d="M34.2279 29.6671C34.2279 29.6671 31.1722 45.4177 30.0674 54.4682C29.1728 61.7809 31.9886 79.5176 31.9886 79.5176L35.0174 79.7038C35.0174 79.7038 34.3788 63.8641 35.7853 56.7808C39.3476 38.8606 42.6782 36.4563 40.9051 31.5668L34.2279 29.6671Z" fill="#006EFF"/>
        <path d="M35.3919 79.7253L31.4713 79.4852L31.288 78.368L35.5347 78.8106L35.3919 79.7253Z" fill="#006EFF"/>
        <path opacity="0.3" d="M35.3919 79.7253L31.4713 79.4852L31.288 78.368L35.5347 78.8106L35.3919 79.7253Z" fill="black"/>
        <path d="M41.2042 31.0703L41.3821 32.0013C41.3956 32.0741 41.3039 32.1173 41.1988 32.0876L31.668 29.3892C31.5845 29.3676 31.5279 29.3082 31.5387 29.2543L31.6869 28.4178C31.6869 28.3584 31.7812 28.3314 31.8701 28.3557L41.0749 30.9678C41.103 30.9735 41.1293 30.9858 41.1517 31.0036C41.1742 31.0214 41.1922 31.0443 41.2042 31.0703Z" fill="#006EFF"/>
        <path opacity="0.4" d="M41.2042 31.0703L41.3821 32.0013C41.3956 32.0741 41.3039 32.1173 41.1988 32.0876L31.668 29.3892C31.5845 29.3676 31.5279 29.3082 31.5387 29.2543L31.6869 28.4178C31.6869 28.3584 31.7812 28.3314 31.8701 28.3557L41.0749 30.9678C41.103 30.9735 41.1293 30.9858 41.1517 31.0036C41.1742 31.0214 41.1922 31.0443 41.2042 31.0703Z" fill="black"/>
        <path d="M39.6764 31.7503L39.9216 31.8204C39.9701 31.8339 40.0159 31.8204 40.0213 31.7881L40.2045 30.7087C40.2045 30.6763 40.1749 30.6385 40.1264 30.625L39.8785 30.5549C39.83 30.5414 39.7869 30.5549 39.7815 30.5873L39.5955 31.6666C39.5902 31.699 39.6279 31.7368 39.6764 31.7503Z" fill="#006EFF"/>
        <path d="M32.3335 29.6671L32.5814 29.7372C32.6299 29.7507 32.6757 29.7372 32.6811 29.7048L32.8644 28.6255C32.8644 28.5958 32.8347 28.558 32.7835 28.5445L32.5383 28.4744C32.4898 28.4582 32.444 28.4744 32.4386 28.5067L32.2554 29.5861C32.25 29.6158 32.2769 29.6428 32.3335 29.6671Z" fill="#006EFF"/>
        <path d="M36.0063 30.7223L36.2515 30.7924C36.3 30.7924 36.3458 30.7924 36.3512 30.76L36.5345 29.6807C36.5345 29.6483 36.5048 29.6105 36.4563 29.597L36.2084 29.5269C36.1599 29.5107 36.1141 29.5269 36.1087 29.5592L35.9255 30.6386C35.9201 30.6575 35.9551 30.6953 36.0063 30.7223Z" fill="#006EFF"/>
        <path d="M41.1962 9.10789C41.1611 9.29138 41.0372 9.42361 40.9267 9.40202C40.8162 9.38043 40.7354 9.21043 40.7704 9.02694C40.8054 8.84345 40.9294 8.70852 41.0399 8.73281C41.1504 8.7571 41.2285 8.9217 41.1962 9.10789Z" fill="#263238"/>
        <path d="M39.1105 8.72208C39.0754 8.90827 38.9515 9.04049 38.841 9.0162C38.7305 8.99192 38.6497 8.82731 38.6847 8.64382C38.7198 8.46033 38.8437 8.32541 38.9542 8.347C39.0647 8.36858 39.1428 8.53858 39.1105 8.72208Z" fill="#263238"/>
        <path d="M39.0135 8.36856L38.5958 8.15808C38.5958 8.15808 38.744 8.54665 39.0135 8.36856Z" fill="#263238"/>
        <path d="M39.6036 9.13489C39.361 9.52564 39.0663 9.8815 38.7278 10.1927C38.8098 10.277 38.9092 10.3424 39.019 10.3844C39.1289 10.4263 39.2465 10.4438 39.3638 10.4355L39.6036 9.13489Z" fill="#FF5652"/>
        <path d="M40.2045 11.3233C40.0951 11.3226 39.9859 11.3118 39.8785 11.291C39.8646 11.2883 39.8523 11.2804 39.8442 11.2688C39.8362 11.2572 39.833 11.2428 39.8354 11.2289C39.838 11.2143 39.8462 11.2013 39.8583 11.1927C39.8704 11.1842 39.8854 11.1807 39.9 11.183C40.1286 11.2301 40.365 11.2226 40.5902 11.1612C40.8154 11.0997 41.0229 10.9861 41.1961 10.8295C41.2069 10.8207 41.2205 10.8161 41.2343 10.8167C41.2482 10.8173 41.2614 10.8229 41.2714 10.8326C41.2814 10.8422 41.2875 10.8552 41.2885 10.8691C41.2895 10.883 41.2854 10.8968 41.277 10.9078C40.9861 11.1792 40.602 11.328 40.2045 11.3233Z" fill="#263238"/>
        <path d="M41.9775 8.54934C41.9575 8.54948 41.9377 8.54399 41.9206 8.5335C41.9034 8.52301 41.8896 8.50794 41.8805 8.48997C41.8218 8.36448 41.7343 8.25462 41.6252 8.1693C41.5161 8.08398 41.3885 8.02558 41.2527 7.99886C41.2372 7.99886 41.2218 7.99558 41.2076 7.98923C41.1934 7.98288 41.1807 7.9736 41.1704 7.96201C41.16 7.95042 41.1522 7.93676 41.1475 7.92194C41.1427 7.90712 41.1412 7.89147 41.1429 7.87601C41.1446 7.86054 41.1496 7.84561 41.1574 7.8322C41.1653 7.81878 41.1759 7.80718 41.1886 7.79814C41.2012 7.78911 41.2156 7.78285 41.2308 7.77977C41.2461 7.7767 41.2618 7.77687 41.2769 7.78029C41.4508 7.80923 41.615 7.87979 41.7558 7.98597C41.8965 8.09214 42.0096 8.2308 42.0853 8.39013C42.0985 8.41626 42.1008 8.44655 42.0917 8.47437C42.0826 8.50218 42.0629 8.52526 42.0368 8.53854C42.0184 8.54731 41.9979 8.55104 41.9775 8.54934Z" fill="#263238"/>
        <path d="M38.3587 7.58865C38.3446 7.5886 38.3306 7.5857 38.3177 7.58014C38.3047 7.57458 38.293 7.56646 38.2832 7.55627C38.2726 7.54618 38.2642 7.53405 38.2584 7.52059C38.2527 7.50714 38.2497 7.49265 38.2497 7.47801C38.2497 7.46337 38.2527 7.44889 38.2584 7.43544C38.2642 7.42198 38.2726 7.40985 38.2832 7.39976C38.4024 7.27158 38.5504 7.17365 38.7148 7.11406C38.8793 7.05447 39.0556 7.03493 39.229 7.05706C39.2572 7.06354 39.2818 7.08057 39.2979 7.10465C39.3139 7.12874 39.3201 7.15805 39.3153 7.18659C39.3127 7.2009 39.3073 7.21454 39.2993 7.2267C39.2914 7.23886 39.281 7.24928 39.269 7.25735C39.2569 7.26541 39.2433 7.27095 39.229 7.27363C39.2148 7.27631 39.2001 7.27607 39.1859 7.27294C39.0495 7.25633 38.9111 7.2721 38.7819 7.31898C38.6527 7.36586 38.5364 7.44252 38.4422 7.54278C38.4326 7.55618 38.4201 7.56726 38.4056 7.57519C38.3912 7.58313 38.3752 7.58773 38.3587 7.58865Z" fill="#263238"/>
        <path d="M46.6581 20.989C46.8414 21.8147 46.9572 22.5919 47.065 23.396C47.1728 24.2001 47.2294 25.015 47.2752 25.8084C47.3705 27.4542 47.2865 29.1054 47.0246 30.733C46.9174 31.252 46.7066 31.7439 46.4048 32.1793C46.161 32.5449 45.8908 32.8921 45.5965 33.2182C45.0358 33.8229 44.4334 34.3873 43.7938 34.9074C42.5509 35.9155 41.232 36.8258 39.8489 37.6301L39.1833 36.6587C39.7653 36.1676 40.3581 35.663 40.924 35.1503C41.4899 34.6376 42.0584 34.1195 42.5866 33.5798C43.1136 33.0609 43.6085 32.5103 44.0686 31.9311C44.2797 31.665 44.4706 31.3836 44.6399 31.0892C44.7718 30.8728 44.8631 30.6341 44.9093 30.3849C44.9872 29.659 45.025 28.9293 45.0225 28.1992C45.0225 27.4544 44.9821 26.707 44.9255 25.9568C44.8689 25.2066 44.7827 24.4565 44.683 23.7063C44.5833 22.9562 44.4593 22.1952 44.33 21.4936L46.6581 20.989Z" fill="#FF8B7B"/>
        <path d="M46.3752 18.4336C47.2051 18.9733 47.4126 22.4192 47.4126 22.4192L43.1632 23.9465C43.1632 23.9465 42.6243 20.9593 43.333 19.8988C44.0794 18.7736 45.424 17.8211 46.3752 18.4336Z" fill="#263238"/>
        <path d="M31.7165 82.7826C31.5594 82.7965 31.4025 82.7534 31.2745 82.6612C31.2357 82.6245 31.2069 82.5784 31.1908 82.5274C31.1748 82.4764 31.1721 82.4221 31.1829 82.3697C31.1857 82.3362 31.1974 82.3039 31.2169 82.2764C31.2363 82.2489 31.2627 82.2271 31.2934 82.2132C31.5629 82.0891 32.2689 82.5478 32.3497 82.5991C32.3585 82.6054 32.3655 82.6141 32.3697 82.624C32.374 82.634 32.3755 82.645 32.3739 82.6558C32.3713 82.6662 32.3659 82.6757 32.3584 82.6833C32.3508 82.6909 32.3412 82.6963 32.3308 82.6989C32.1299 82.7501 31.9238 82.7782 31.7165 82.7826ZM31.4093 82.3023C31.3862 82.2976 31.3623 82.2976 31.3392 82.3023C31.3255 82.3081 31.3139 82.3179 31.3057 82.3304C31.2975 82.3429 31.2933 82.3575 31.2934 82.3724C31.2847 82.4071 31.2851 82.4435 31.2945 82.478C31.304 82.5125 31.3221 82.544 31.3473 82.5694C31.4659 82.6774 31.7704 82.6909 32.1772 82.6099C31.9447 82.4564 31.6834 82.3517 31.4093 82.3023Z" fill="#006EFF"/>
        <path d="M32.3201 82.7017C32.3113 82.7044 32.3019 82.7044 32.2931 82.7017C32.0695 82.5748 31.6464 82.0729 31.7003 81.8112C31.708 81.7676 31.7309 81.7282 31.765 81.7C31.7991 81.6718 31.8421 81.6567 31.8862 81.6574C31.9278 81.6517 31.9702 81.6553 32.0102 81.6679C32.0503 81.6805 32.0871 81.7018 32.118 81.7302C32.3713 81.9542 32.3874 82.6261 32.3874 82.6531C32.3875 82.6628 32.385 82.6724 32.3803 82.6809C32.3756 82.6894 32.3688 82.6966 32.3605 82.7017C32.3541 82.7044 32.3472 82.7058 32.3403 82.7058C32.3333 82.7058 32.3265 82.7044 32.3201 82.7017ZM31.924 81.7572H31.897C31.827 81.7572 31.8135 81.795 31.8081 81.822C31.7758 81.9812 32.0398 82.3617 32.2608 82.5371C32.2664 82.276 32.1911 82.0195 32.0452 81.8031C32.012 81.7731 31.9687 81.7567 31.924 81.7572Z" fill="#006EFF"/>
        <path d="M16.1982 76.2903C16.0681 76.2985 15.9386 76.2675 15.8263 76.2013C15.7858 76.1727 15.7528 76.1347 15.7303 76.0905C15.7077 76.0463 15.6963 75.9972 15.697 75.9476C15.695 75.9168 15.7008 75.886 15.714 75.8582C15.7272 75.8303 15.7473 75.8063 15.7724 75.7884C16.0419 75.5995 17.012 75.9611 17.1197 76.0043C17.1306 76.0083 17.1399 76.0157 17.1462 76.0254C17.1525 76.0352 17.1555 76.0467 17.1548 76.0582C17.1547 76.0697 17.1511 76.0808 17.1443 76.09C17.1375 76.0992 17.128 76.1061 17.117 76.1095C16.8208 76.2128 16.5114 76.2737 16.1982 76.2903ZM16.0042 75.845C15.9454 75.8405 15.8866 75.8526 15.8344 75.8801C15.8246 75.887 15.817 75.8964 15.8122 75.9074C15.8074 75.9183 15.8058 75.9304 15.8075 75.9422C15.8062 75.9752 15.8132 76.0081 15.8278 76.0378C15.8424 76.0674 15.8641 76.093 15.891 76.1122C16.0446 76.2201 16.4299 76.1985 16.9284 76.0528C16.6315 75.9408 16.3204 75.8709 16.0042 75.845Z" fill="#006EFF"/>
        <path d="M17.1036 76.1122H17.0874C16.7964 76.0204 16.1928 75.586 16.2063 75.3189C16.2063 75.2541 16.2413 75.1731 16.3922 75.1381C16.4461 75.1264 16.5017 75.1256 16.5558 75.1358C16.61 75.146 16.6616 75.1669 16.7075 75.1974C17.0254 75.4052 17.1521 76.0204 17.1575 76.0474C17.1592 76.0566 17.1587 76.0662 17.1559 76.0751C17.153 76.0841 17.148 76.0922 17.1413 76.0987C17.1309 76.1079 17.1174 76.1127 17.1036 76.1122ZM16.4838 75.2352C16.4614 75.2326 16.4388 75.2326 16.4165 75.2352C16.3168 75.2568 16.3168 75.2973 16.3141 75.3108C16.3141 75.4727 16.7236 75.8208 17.0254 75.9584C16.9722 75.6978 16.8394 75.4602 16.6455 75.2784C16.5957 75.2528 16.5397 75.2416 16.4838 75.246V75.2352Z" fill="#006EFF"/>
        <path d="M22.9913 42.5709C20.3611 42.5703 17.7662 41.9638 15.4075 40.7982C13.0488 39.6327 10.9895 37.9393 9.38894 35.8491L9.10331 35.4606L3.06199 35.9301C3.05446 35.9297 3.04713 35.9275 3.04058 35.9238C3.03403 35.92 3.02845 35.9148 3.02427 35.9085C3.02049 35.9019 3.01849 35.8945 3.01849 35.8869C3.01849 35.8793 3.02049 35.8719 3.02427 35.8653L7.01499 31.6207L6.83984 31.1161C5.93434 28.5358 5.65949 25.7758 6.03832 23.0673C6.41714 20.3587 7.4386 17.7805 9.01714 15.5486C10.5957 13.3167 12.6853 11.4962 15.111 10.2394C17.5367 8.98264 20.2279 8.32628 22.959 8.32532C25.5329 8.32412 28.0739 8.90471 30.3925 10.0238C32.7112 11.1429 34.7477 12.7717 36.3503 14.7887C37.9528 16.8057 39.0801 19.1589 39.6481 21.6729C40.216 24.1869 40.2101 26.7968 39.6306 29.3082C38.7745 33.0831 36.6602 36.4536 33.6357 38.8643C30.6112 41.2751 26.8569 42.5824 22.9913 42.5709ZM9.11948 35.3823C9.12534 35.3825 9.13106 35.3841 9.13621 35.3869C9.14135 35.3897 9.14577 35.3937 9.14912 35.3985L9.45092 35.7952C11.0425 37.8782 13.0919 39.5662 15.4401 40.7281C17.7883 41.89 20.3721 42.4948 22.9913 42.4953C27.1692 42.4902 31.1993 40.9466 34.3143 38.1584C37.4292 35.3702 39.4114 31.5322 39.8834 27.3752C40.3554 23.2182 39.2842 19.0326 36.8739 15.6153C34.4636 12.198 30.8824 9.78769 26.8123 8.84341C25.5488 8.55015 24.256 8.40168 22.959 8.40087C20.2407 8.40334 17.5625 9.05793 15.1486 10.3098C12.7348 11.5618 10.6556 13.3746 9.08514 15.5965C7.51466 17.8184 6.49859 20.3847 6.12201 23.0807C5.74543 25.7766 6.0193 28.5237 6.92068 31.0918L7.10391 31.618C7.10786 31.6235 7.10998 31.6301 7.10998 31.6369C7.10998 31.6437 7.10786 31.6503 7.10391 31.6558L3.15631 35.8491L9.11679 35.385L9.11948 35.3823Z" fill="#40B3E0"/>
        <g clip-path="url(#clip1)">
            <path d="M22.9806 9.40479C14.2746 9.40479 7.2171 16.5326 7.2171 25.3254C7.2171 34.1182 14.2746 41.2461 22.9806 41.2461C31.6866 41.2461 38.744 34.1182 38.744 25.3254C38.744 16.5326 31.6866 9.40479 22.9806 9.40479Z" fill="#40B3E0"/>
            <path d="M30.6508 18.5628L27.8352 32.9C27.8352 32.9 27.4415 33.8943 26.3586 33.417L19.8613 28.3861L17.4988 27.2328L13.5217 25.8806C13.5217 25.8806 12.9114 25.6619 12.8523 25.1847C12.7932 24.7074 13.5414 24.449 13.5414 24.449L29.3512 18.1852C29.3512 18.1852 30.6507 17.6086 30.6507 18.5631" fill="white"/>
            <path d="M19.3621 32.7388C19.3621 32.7388 19.1725 32.7209 18.936 31.9651C18.6999 31.2095 17.4988 27.2326 17.4988 27.2326L27.0478 21.1081C27.0478 21.1081 27.5992 20.7701 27.5795 21.1081C27.5795 21.1081 27.6779 21.1678 27.3824 21.4462C27.0872 21.7247 19.8812 28.2667 19.8812 28.2667" fill="#D2E5F1"/>
            <path d="M22.3526 30.3148L19.7827 32.6813C19.7827 32.6813 19.5818 32.8352 19.3621 32.7387L19.8542 28.3431" fill="#B5CFE4"/>
        </g>
        <path d="M39.6872 36.4537L37.6447 35.2933L38.0785 37.6221C38.0785 37.6221 39.4959 38.0916 40.1965 37.4224L39.6872 36.4537Z" fill="#FF8B7B"/>
        <path d="M35.7099 35.5821L36.1788 37.5114L38.0785 37.6221L37.6446 35.2933L35.7099 35.5821Z" fill="#FF8B7B"/>
        <path d="M41.091 8.75173L40.6707 8.54126C40.6707 8.54126 40.835 8.92983 41.091 8.75173Z" fill="#263238"/>
        <path d="M43.9796 7.68586C42.8263 7.613 41.9802 7.1057 41.8671 6.43919C41.8671 6.43919 39.221 7.54014 38.1512 5.89951C38.1512 5.89951 36.944 6.09919 36.6449 5.25728C36.3458 4.41538 37.6015 4.17792 38.1943 4.5557C38.1943 4.5557 36.3566 2.93665 38.2428 2.48602C40.129 2.03538 40.5332 3.56538 40.5332 3.56538C40.5332 3.56538 41.2769 1.3311 42.9584 2.32411C44.6398 3.31713 43.5943 4.27776 43.5943 4.27776C43.5943 4.27776 47.5877 4.58808 46.1003 6.16665C44.6129 7.74522 43.9796 7.68586 43.9796 7.68586Z" fill="#263238"/>
        <path d="M42.5354 15.441C42.7617 15.4626 42.662 16.2505 42.5596 16.3045C42.3252 16.4313 39.5013 15.8512 39.5956 15.414C39.693 15.2041 39.8282 15.0138 39.9944 14.8528C40.1183 14.761 40.5495 15.2764 42.5354 15.441Z" fill="#263238"/>
    </g>
    <defs>
        <clipPath id="clip0">
            <rect width="90" height="85" fill="white" transform="translate(0.75 0.5)"/>
        </clipPath>
        <clipPath id="clip1">
            <rect width="31.5269" height="31.8413" fill="white" transform="translate(7.2171 9.40479)"/>
        </clipPath>
    </defs>
</svg>
