<svg width="360" height="311" viewBox="0 0 360 311" fill="none" xmlns="http://www.w3.org/2000/svg">
<g clip-path="url(#clip0_1383_26418)">
<path d="M0 242.214C0 237.008 3.9945 232.673 9.18329 232.247L349.183 204.386C355.009 203.909 360 208.508 360 214.353V311H0V242.214Z" fill="#1C2D5E"/>
<path d="M81.9474 230.007L81.8078 231.033L241.495 252.777L250.513 186.552L239.78 185.09L219.7 194.633L202.115 192.238L180.642 202.442L179.936 207.629L171.826 206.525L147.388 218.136L132.48 216.106L112.257 225.717L98.9924 223.911L81.9474 230.007Z" fill="#1C2D5E"/>
<path opacity="0.2" d="M81.9474 230.007L81.8078 231.033L241.495 252.777L250.513 186.552L239.78 185.09L219.7 194.633L202.115 192.238L180.642 202.442L179.936 207.629L171.826 206.525L147.388 218.136L132.48 216.106L112.257 225.717L98.9924 223.911L81.9474 230.007Z" fill="#7182B4"/>
<path d="M92.5402 232.494L241.495 252.776L250.373 187.577L230.294 197.115L212.709 194.721L191.236 204.924L190.529 210.116L182.419 209.012L157.981 220.623L143.073 218.593L122.855 228.205L109.585 226.398L92.5402 232.494Z" fill="#1C2D5E"/>
<path opacity="0.1" d="M92.5402 232.494L241.495 252.776L250.373 187.577L230.294 197.115L212.709 194.721L191.236 204.924L190.529 210.116L182.419 209.012L157.981 220.623L143.073 218.593L122.855 228.205L109.585 226.398L92.5402 232.494Z" fill="#1C2D5E"/>
<path d="M130.619 116.585C129.883 117.238 129.044 117.965 128.312 118.693C127.579 119.421 126.786 120.154 126.055 120.909C124.602 122.37 123.259 123.936 122.038 125.595L121.617 126.208L121.46 126.441C121.415 126.504 121.375 126.595 121.327 126.672C121.124 127.07 120.949 127.482 120.804 127.904C120.484 128.822 120.2 129.828 119.94 130.851C119.444 132.901 119.007 135.055 118.585 137.17L116.063 137.053C115.882 134.781 115.884 132.499 116.068 130.227C116.164 129.045 116.339 127.87 116.593 126.712C116.728 126.069 116.918 125.439 117.159 124.829C117.233 124.659 117.293 124.496 117.386 124.319C117.479 124.142 117.571 123.947 117.637 123.835L118.091 123.047C118.703 122.02 119.376 121.031 120.107 120.086C120.813 119.146 121.575 118.27 122.32 117.41C123.066 116.55 123.894 115.729 124.724 114.964C125.14 114.559 125.565 114.154 125.989 113.791C126.412 113.428 126.839 113.047 127.328 112.647L130.619 116.585Z" fill="#E4897B"/>
<path d="M131.284 117.84C130.716 118.618 130.093 119.361 129.495 120.051C128.463 121.246 127.483 122.269 126.786 122.969C126.16 123.6 125.763 123.966 125.763 123.966L119.666 118.472C119.666 118.472 124.833 111.078 128.047 110.998C131.357 110.926 133.907 114.361 131.284 117.84Z" fill="#1C2D5E"/>
<path opacity="0.3" d="M131.284 117.84C130.716 118.618 130.093 119.361 129.495 120.051C128.463 121.246 127.483 122.269 126.786 122.969C126.16 123.6 125.763 123.966 125.763 123.966L119.666 118.472C119.666 118.472 124.833 111.078 128.047 110.998C131.357 110.926 133.907 114.361 131.284 117.84Z" fill="black"/>
<path d="M129.922 216.414L133.253 216.868L134.635 209.193L131.304 208.74L129.922 216.414Z" fill="#E4897B"/>
<path d="M99.4592 197.618L101.898 199.938L108.948 195.892L106.509 193.572L99.4592 197.618Z" fill="#E4897B"/>
<path d="M134.635 209.194L133.925 213.151L130.589 212.697L131.299 208.74L134.635 209.194Z" fill="#CE6F64"/>
<path d="M106.509 193.573L108.948 195.892L105.309 197.976L102.874 195.657L106.509 193.573Z" fill="#CE6F64"/>
<path d="M136.652 141.697C136.652 141.697 133.802 165.474 129.554 174.371C122.828 188.464 106.944 198.458 106.944 198.458L102.344 194.083C102.344 194.083 115.585 185.615 119.475 173.507C122.949 162.623 123.926 149.241 125.166 140.133L136.652 141.697Z" fill="#1C2D5E"/>
<path opacity="0.7" d="M136.652 141.697C136.652 141.697 133.802 165.474 129.554 174.371C122.828 188.464 106.944 198.458 106.944 198.458L102.344 194.083C102.344 194.083 115.585 185.615 119.475 173.507C122.949 162.623 123.926 149.241 125.166 140.133L136.652 141.697Z" fill="#FEF8E8"/>
<path d="M118.786 136.574L119.695 138.898L115.398 138.95C115.398 138.95 115.214 137.076 116.424 135.965L118.786 136.574Z" fill="#E4897B"/>
<path d="M119.939 141.857L116.387 141.734L115.398 138.95L119.695 138.898L119.939 141.857Z" fill="#E4897B"/>
<path d="M145.298 100.909C145.303 101.177 145.45 101.392 145.627 101.416C145.804 101.44 145.94 101.186 145.935 100.917C145.93 100.648 145.783 100.434 145.606 100.41C145.429 100.386 145.294 100.635 145.298 100.909Z" fill="#263238"/>
<path d="M145.425 101.397C145.765 102.219 146.217 102.99 146.768 103.688C146.587 103.827 146.377 103.925 146.154 103.974C145.931 104.024 145.7 104.024 145.477 103.974L145.425 101.397Z" fill="#DE5753"/>
<path d="M144.28 99.42C144.26 99.4178 144.24 99.4117 144.222 99.4019C144.204 99.3921 144.188 99.3789 144.175 99.363C144.163 99.3471 144.153 99.3288 144.147 99.3092C144.141 99.2895 144.14 99.269 144.142 99.2486C144.145 99.2266 144.152 99.2054 144.163 99.1863C144.175 99.1672 144.19 99.1506 144.208 99.1374C144.406 98.9825 144.639 98.8772 144.887 98.8305C145.134 98.7838 145.39 98.797 145.631 98.869C145.651 98.8755 145.669 98.8861 145.685 98.8999C145.701 98.9138 145.714 98.9307 145.723 98.9496C145.732 98.9686 145.737 98.9891 145.738 99.0101C145.739 99.0311 145.736 99.0521 145.728 99.0717C145.722 99.0912 145.711 99.1092 145.698 99.1247C145.684 99.1402 145.668 99.1528 145.649 99.1619C145.631 99.171 145.611 99.1764 145.59 99.1777C145.57 99.179 145.549 99.1762 145.53 99.1695V99.1695C145.337 99.1161 145.135 99.1091 144.939 99.1491C144.743 99.1891 144.559 99.275 144.403 99.3998C144.385 99.4117 144.365 99.4197 144.344 99.4231C144.323 99.4266 144.301 99.4256 144.28 99.42V99.42Z" fill="#263238"/>
<path d="M136.032 102.628C136.181 105.13 136.049 109.665 134.121 111.058C134.121 111.058 134.451 113.626 138.98 114.243C143.972 114.923 141.7 112.089 141.7 112.089C139.066 111.07 139.413 109.065 140.144 107.255L136.032 102.628Z" fill="#E4897B"/>
<path d="M132.045 112.458C132.7 111.687 132.069 109.53 132.069 109.53C132.069 109.53 140.372 108.604 143.227 112.15C143.82 112.882 142.938 113.724 142.938 113.724L132.045 112.458Z" fill="#1C2D5E"/>
<path d="M103.106 201.73C102.684 201.672 102.179 200.762 102.047 200.444C102.04 200.43 102.037 200.414 102.04 200.399C102.042 200.383 102.048 200.369 102.059 200.357C102.069 200.347 102.082 200.34 102.097 200.336C102.111 200.333 102.126 200.332 102.14 200.336C102.185 200.342 103.247 200.727 103.442 201.193C103.465 201.242 103.477 201.296 103.477 201.35C103.477 201.404 103.464 201.458 103.441 201.507C103.351 201.694 103.226 201.732 103.138 201.729L103.106 201.73ZM102.272 200.557C102.501 201.014 102.906 201.568 103.146 201.573C103.168 201.576 103.236 201.585 103.303 201.437C103.316 201.409 103.323 201.378 103.322 201.347C103.322 201.315 103.314 201.285 103.3 201.257C103.034 200.924 102.678 200.674 102.274 200.539L102.272 200.557Z" fill="#1C2D5E"/>
<path d="M102.643 200.613C102.451 200.591 102.263 200.542 102.085 200.467C102.075 200.458 102.067 200.447 102.062 200.434C102.058 200.422 102.056 200.408 102.058 200.394C102.06 200.381 102.065 200.368 102.073 200.357C102.081 200.346 102.091 200.337 102.104 200.331C102.139 200.308 102.969 199.811 103.457 199.929C103.517 199.943 103.573 199.97 103.622 200.007C103.671 200.044 103.712 200.09 103.742 200.143C103.778 200.192 103.796 200.252 103.792 200.312C103.788 200.372 103.763 200.429 103.721 200.473C103.53 200.65 103.056 200.669 102.643 200.613ZM102.309 200.382C102.723 200.503 103.426 200.534 103.583 200.362C103.597 200.34 103.604 200.315 103.604 200.289C103.603 200.264 103.595 200.239 103.58 200.218C103.56 200.184 103.534 200.154 103.502 200.13C103.47 200.107 103.434 200.09 103.395 200.082C103.011 200.07 102.632 200.175 102.309 200.382Z" fill="#1C2D5E"/>
<path d="M134.568 217.223C134.226 217.171 133.889 217.093 133.559 216.988C133.544 216.983 133.53 216.974 133.52 216.961C133.511 216.948 133.505 216.932 133.505 216.916C133.504 216.899 133.509 216.883 133.518 216.869C133.527 216.856 133.541 216.845 133.557 216.84C133.61 216.819 134.863 216.311 135.4 216.541C135.45 216.56 135.496 216.588 135.535 216.625C135.573 216.662 135.604 216.707 135.625 216.756C135.654 216.812 135.664 216.874 135.656 216.936C135.648 216.998 135.62 217.056 135.578 217.101C135.42 217.278 134.999 217.281 134.568 217.223ZM133.83 216.905C134.439 217.08 135.284 217.186 135.468 216.994C135.498 216.94 135.507 216.877 135.492 216.817C135.479 216.786 135.459 216.758 135.434 216.736C135.409 216.713 135.38 216.696 135.348 216.686C135.006 216.547 134.267 216.752 133.83 216.905Z" fill="#1C2D5E"/>
<path d="M133.589 216.974L133.544 216.968C133.534 216.958 133.526 216.946 133.522 216.932C133.518 216.919 133.518 216.904 133.522 216.891C133.624 216.421 133.871 215.995 134.228 215.674C134.298 215.631 134.376 215.602 134.457 215.589C134.538 215.576 134.621 215.58 134.701 215.6C134.77 215.601 134.835 215.629 134.884 215.678C134.932 215.727 134.96 215.793 134.961 215.862C134.973 216.247 134.076 216.86 133.652 216.987L133.589 216.974ZM134.591 215.723C134.49 215.711 134.388 215.733 134.301 215.786C134.01 216.041 133.802 216.379 133.707 216.754C134.154 216.561 134.771 216.067 134.756 215.838C134.756 215.838 134.767 215.761 134.614 215.727L134.591 215.723Z" fill="#1C2D5E"/>
<path d="M102.288 199.964L100.067 196.888C100.027 196.834 99.97 196.796 99.9052 196.778C99.8404 196.761 99.7718 196.766 99.7103 196.793L96.904 198.019C96.8446 198.045 96.7908 198.081 96.7457 198.127C96.7005 198.173 96.6649 198.228 96.6409 198.288C96.6168 198.348 96.6048 198.412 96.6056 198.476C96.6063 198.541 96.6198 198.604 96.6452 198.664C96.6626 198.701 96.6841 198.737 96.7094 198.77C97.4935 199.801 97.9443 200.292 98.9214 201.636C99.5254 202.462 101.086 205.291 101.915 206.435C102.744 207.578 103.987 206.902 103.746 206.361C102.69 203.933 102.33 201.62 102.445 200.507C102.462 200.313 102.406 200.119 102.288 199.964Z" fill="#263238"/>
<path d="M133.283 216.47L129.653 215.975C129.587 215.966 129.52 215.98 129.463 216.014C129.406 216.048 129.363 216.101 129.341 216.164L128.276 219.024C128.231 219.145 128.235 219.279 128.288 219.397C128.341 219.515 128.439 219.608 128.56 219.654C128.599 219.664 128.639 219.669 128.678 219.67C129.994 219.849 131.905 220.008 133.557 220.233C135.486 220.495 137.137 220.826 139.401 221.135C140.763 221.32 141.337 219.988 140.782 219.788C138.25 218.861 136.131 218.508 134.064 216.812C133.84 216.628 133.57 216.51 133.283 216.47Z" fill="#263238"/>
<path opacity="0.3" d="M129.495 120.051C128.463 121.247 127.483 122.269 126.786 122.969C127.067 121.417 127.733 118.938 129.206 117.179C129.587 117.674 129.611 118.824 129.495 120.051Z" fill="black"/>
<path d="M148.569 117.143C148.712 117.454 148.984 117.935 149.233 118.38C149.482 118.825 149.775 119.286 150.064 119.741C150.648 120.648 151.246 121.552 151.88 122.429C153.095 124.165 154.464 125.787 155.972 127.276C156.323 127.614 156.692 127.934 157.076 128.235L157.331 128.431C157.362 128.436 157.371 128.478 157.427 128.505L157.495 128.546L157.591 128.592C157.662 128.625 157.735 128.653 157.81 128.677C158.697 128.927 159.617 129.039 160.538 129.011C162.71 128.965 164.877 128.772 167.023 128.434L167.79 130.849C165.59 131.881 163.26 132.608 160.863 133.008C159.505 133.252 158.116 133.258 156.756 133.026C156.552 132.988 156.35 132.939 156.152 132.879L155.847 132.778L155.522 132.65C155.295 132.554 155.076 132.443 154.865 132.316L154.732 132.238L154.626 132.168L154.414 132.028C153.868 131.662 153.343 131.272 152.836 130.856C150.974 129.248 149.292 127.443 147.819 125.472C147.095 124.509 146.395 123.536 145.753 122.515C145.425 122.008 145.11 121.503 144.802 120.943C144.463 120.361 144.16 119.758 143.897 119.137L148.569 117.143Z" fill="#E4897B"/>
<path d="M166.406 128.964L168.979 126.629L169.962 130.683C169.962 130.683 167.928 131.33 166.51 130.606L166.406 128.964Z" fill="#E4897B"/>
<path d="M172.306 126.5L172.504 129.661L169.962 130.683L168.984 126.63L172.306 126.5Z" fill="#E4897B"/>
<path d="M136.237 100.511C136.505 103.839 136.496 105.802 138.214 107.478C140.796 110.002 144.881 108.386 145.608 105.051C146.262 102.043 145.71 97.105 142.425 95.835C141.701 95.553 140.916 95.4611 140.146 95.5681C139.376 95.6751 138.647 95.9775 138.027 96.4464C137.407 96.9153 136.917 97.5351 136.605 98.2467C136.292 98.9584 136.167 99.7383 136.241 100.512L136.237 100.511Z" fill="#E4897B"/>
<path d="M135.73 94.0127C132.883 93.7036 132.163 96.4483 133.458 97.4612C133.458 97.4612 131.717 98.0239 132.302 100.012C133.194 103.032 135.219 106.493 137.747 106.661C140.885 106.871 142.231 103.606 142.577 100.251C144.426 98.9269 143.539 98.0389 145.288 97.3155C148.383 96.036 150.487 91.446 145.703 90.8686C140.801 90.2796 142.995 94.8032 135.73 94.0127Z" fill="#263238"/>
<path d="M133.868 97.1012C133.868 97.1012 132.697 97.5195 131.146 96.3101C131.537 97.8238 133.253 98.6585 133.868 97.1012Z" fill="#263238"/>
<path d="M140.761 100.822C140.738 101.652 140.989 102.466 141.477 103.138C142.124 104.017 142.936 103.591 143.165 102.624C143.371 101.755 143.28 100.25 142.432 99.7184C141.585 99.187 140.801 99.8198 140.761 100.822Z" fill="#E4897B"/>
<path d="M109.26 197.677L106.998 198.64L101.973 193.861L104.022 192.693L109.26 197.677Z" fill="#1C2D5E"/>
<path d="M132.766 145.319C131.553 149.508 132.16 161.714 132.401 165.718C134.201 158.54 135.528 149.915 136.184 145.197C134.701 143.867 133.325 143.389 132.766 145.319Z" fill="#1C2D5E"/>
<path opacity="0.4" d="M132.766 145.319C131.553 149.508 132.16 161.714 132.401 165.718C134.201 158.54 135.528 149.915 136.184 145.197C134.701 143.867 133.325 143.389 132.766 145.319Z" fill="#FEF8E8"/>
<path d="M142.973 142.557C142.973 142.557 145.099 164.525 144.069 174.739C142.911 186.197 135.269 212.548 135.269 212.548L129.623 211.779C129.623 211.779 132.619 184.583 133.78 174.161C135.049 162.801 131.256 140.962 131.256 140.962L142.973 142.557Z" fill="#1C2D5E"/>
<path opacity="0.7" d="M142.973 142.557C142.973 142.557 145.099 164.525 144.069 174.739C142.911 186.197 135.269 212.548 135.269 212.548L129.623 211.779C129.623 211.779 132.619 184.583 133.78 174.161C135.049 162.801 131.256 140.962 131.256 140.962L142.973 142.557Z" fill="#FEF8E8"/>
<path d="M136.663 210.459C136.69 210.462 136.026 212.757 136.026 212.757L129.155 211.822L129.254 209.704L136.663 210.459Z" fill="#1C2D5E"/>
<path d="M146.86 124.806C146.706 125.94 146.509 127.185 146.258 128.551C145.585 132.268 144.542 136.873 142.964 142.556L125.143 140.13C125.391 137.39 128.932 124.255 128.047 110.998C130.078 110.887 132.115 110.908 134.144 111.061C136.688 111.259 139.218 111.604 141.723 112.093C143.429 112.501 145.102 113.038 146.727 113.699C146.727 113.699 148.092 115.794 146.86 124.806Z" fill="#1C2D5E"/>
<path opacity="0.3" d="M146.86 124.806C146.706 125.94 146.509 127.185 146.258 128.551C145.585 132.268 144.542 136.873 142.964 142.556L125.143 140.13C125.391 137.39 128.932 124.255 128.047 110.998C130.078 110.887 132.115 110.908 134.144 111.061C136.688 111.259 139.218 111.604 141.723 112.093C143.429 112.501 145.102 113.038 146.727 113.699C146.727 113.699 148.092 115.794 146.86 124.806Z" fill="black"/>
<path opacity="0.3" d="M146.86 124.806C146.706 125.94 146.509 127.184 146.258 128.551C144.444 126.224 144.871 122.034 144.871 122.034L146.86 124.806Z" fill="black"/>
<path d="M141.421 116.956C141.384 120.186 147.679 127.857 147.679 127.857L154.869 123.599C153.567 120.962 151.96 118.488 150.081 116.226C145.944 111.512 141.462 113.093 141.421 116.956Z" fill="#1C2D5E"/>
<path opacity="0.3" d="M141.421 116.956C141.384 120.186 147.679 127.857 147.679 127.857L154.869 123.599C153.567 120.962 151.96 118.488 150.081 116.226C145.944 111.512 141.462 113.093 141.421 116.956Z" fill="black"/>
<path d="M208.425 193.648L205.045 193.52L202.654 185.106L206.034 185.233L208.425 193.648Z" fill="#E4897B"/>
<path d="M231.984 186.687L228.825 188.161L224.395 181.322L227.554 179.848L231.984 186.687Z" fill="#E4897B"/>
<path d="M202.658 185.111L203.889 189.448L207.37 189.922L206.038 185.238L202.658 185.111Z" fill="#CE6F64"/>
<path d="M227.558 179.849L224.395 181.322L226.684 184.846L229.843 183.372L227.558 179.849Z" fill="#CE6F64"/>
<path d="M191.366 104.967C191.125 106.191 190.817 107.296 190.481 108.443C190.145 109.589 189.74 110.69 189.303 111.8C188.436 114.064 187.279 116.206 185.86 118.172C185.488 118.682 185.084 119.167 184.65 119.625C184.228 120.081 183.788 120.492 183.35 120.89C182.473 121.695 181.578 122.428 180.671 123.151C178.845 124.58 176.997 125.932 175.036 127.195L173.94 125.807C175.574 124.232 177.241 122.679 178.839 121.094C180.437 119.509 182.083 117.94 183.191 116.288C184.339 114.478 185.281 112.546 186 110.527C186.384 109.507 186.712 108.456 187.027 107.432C187.342 106.407 187.624 105.29 187.854 104.309L191.366 104.967Z" fill="#E4897B"/>
<path d="M193.04 82.2781C190.608 81.9469 187.493 84.1806 187.097 87.94C186.701 91.6994 186.738 97.3668 180.251 101.725C181.712 106.546 190.908 112.13 197.869 109.819C204.468 107.629 204.201 90.4769 200.394 85.4749C198.26 82.6746 195.491 81.4563 193.04 82.2781Z" fill="#263238"/>
<path d="M193.958 105.754C193.627 106.828 192.431 108.782 191.5 110.227C190.812 111.27 190.262 112.051 190.262 112.051L189.665 111.683L184.724 108.625C185.51 105.843 186.576 102.868 189.892 101.901C191.961 101.304 194.547 103.838 193.958 105.754Z" fill="#1C2D5E"/>
<path opacity="0.6" d="M193.958 105.754C193.627 106.828 192.431 108.782 191.5 110.227C190.812 111.27 190.262 112.051 190.262 112.051L189.665 111.683L184.724 108.625C185.51 105.843 186.576 102.868 189.892 101.901C191.961 101.304 194.547 103.838 193.958 105.754Z" fill="#FEF8E8"/>
<path d="M191.486 110.225C190.799 111.269 190.249 112.049 190.249 112.049L189.652 111.681C189.891 110.572 190.353 108.837 191.06 108.124C191.35 108.786 191.496 109.502 191.486 110.225V110.225Z" fill="#1C2D5E"/>
<path opacity="0.5" d="M191.482 110.257C190.794 111.3 190.244 112.081 190.244 112.081L189.647 111.713C189.886 110.603 190.349 108.868 191.056 108.156C191.346 108.818 191.491 109.534 191.482 110.257V110.257Z" fill="#FEF8E8"/>
<path d="M208.239 120.225L194.277 122.623C187.513 103.046 188.961 102.254 188.961 102.254C188.961 102.254 191.265 101.325 193.627 100.611L194.701 100.295C196.783 99.7776 198.9 99.4109 201.035 99.1975C201.35 99.1572 201.664 99.126 201.973 99.0942C203.67 98.9473 205.375 98.9 207.077 98.9525C206.931 101.517 206.839 103.69 206.803 105.585C206.753 108.056 206.792 110.044 206.885 111.772C207.111 114.621 207.564 117.448 208.239 120.225V120.225Z" fill="#1C2D5E"/>
<path opacity="0.6" d="M208.239 120.225L194.277 122.623C187.513 103.046 188.961 102.254 188.961 102.254C188.961 102.254 191.265 101.325 193.627 100.611L194.701 100.295C196.783 99.7776 198.9 99.4109 201.035 99.1975C201.35 99.1572 201.664 99.126 201.973 99.0942C203.67 98.9473 205.375 98.9 207.077 98.9525C206.931 101.517 206.839 103.69 206.803 105.585C206.753 108.056 206.792 110.044 206.885 111.772C207.111 114.621 207.564 117.448 208.239 120.225V120.225Z" fill="#FEF8E8"/>
<path d="M194.277 122.623C194.277 122.623 190.091 149.972 192.323 160.362C194.479 170.325 202.545 188.045 202.545 188.045L208.529 188.702C208.529 188.702 201.872 166.751 201.428 158.366C200.701 144.46 204.489 120.88 204.489 120.88L194.277 122.623Z" fill="#1C2D5E"/>
<path opacity="0.4" d="M194.277 122.623C194.277 122.623 190.091 149.972 192.323 160.362C194.479 170.325 202.545 188.045 202.545 188.045L208.529 188.702C208.529 188.702 201.872 166.751 201.428 158.366C200.701 144.46 204.489 120.88 204.489 120.88L194.277 122.623Z" fill="black"/>
<path opacity="0.3" d="M199.311 125.707L201.531 121.387L204.491 120.866C204.491 120.866 202.766 131.6 201.867 142.853C199.966 137.569 198.973 128.19 199.311 125.707Z" fill="black"/>
<path d="M197.345 122.153C197.345 122.153 203.751 144.699 208.115 157.63C211.639 168.071 224.963 183.258 224.963 183.258L229.493 180.949C229.493 180.949 220.242 163.853 217.792 156.762C209.95 134.071 213.787 125.682 208.243 120.226L197.345 122.153Z" fill="#1C2D5E"/>
<path opacity="0.4" d="M197.345 122.153C197.345 122.153 203.751 144.699 208.115 157.63C211.639 168.071 224.963 183.258 224.963 183.258L229.493 180.949C229.493 180.949 220.242 163.853 217.792 156.762C209.95 134.071 213.787 125.682 208.243 120.226L197.345 122.153Z" fill="black"/>
<path d="M174.792 125.595L171.684 125.745L173.435 128.942C173.435 128.942 175.169 128.054 175.69 126.702L174.792 125.595Z" fill="#E4897B"/>
<path d="M169.383 127.77L171.122 129.902L173.43 128.941L171.684 125.745L169.383 127.77Z" fill="#E4897B"/>
<path d="M227.879 187.098L231.342 185.259C231.401 185.227 231.47 185.217 231.535 185.232C231.6 185.247 231.657 185.285 231.697 185.339L233.543 187.869C233.626 187.992 233.657 188.142 233.63 188.287C233.602 188.433 233.518 188.561 233.396 188.644L233.34 188.678C232.12 189.293 231.5 189.533 229.981 190.338C229.044 190.834 227.045 192.069 225.751 192.753C224.456 193.436 223.714 192.193 224.189 191.796C226.329 189.998 227.014 188.667 227.467 187.55C227.548 187.357 227.694 187.197 227.879 187.098Z" fill="#263238"/>
<path d="M204.744 192.43L208.829 192.986C208.902 192.998 208.969 193.033 209.021 193.086C209.073 193.139 209.106 193.206 209.117 193.28L209.583 196.643C209.593 196.71 209.59 196.779 209.573 196.844C209.557 196.91 209.527 196.971 209.487 197.026C209.446 197.08 209.396 197.126 209.338 197.16C209.279 197.195 209.215 197.217 209.148 197.227C209.097 197.227 209.047 197.22 208.998 197.206L199.554 195.92C198.057 195.716 197.945 194.157 198.59 194.107C201.452 193.868 203.169 193.242 204.136 192.551C204.316 192.435 204.534 192.392 204.744 192.43Z" fill="#263238"/>
<path d="M201.981 99.1047L201.949 99.3452C201.93 99.4859 201.392 102.722 197.721 104.834L197.35 105.047L196.954 104.9C195.245 104.28 194.173 103.389 193.759 102.256C193.567 101.73 193.525 101.161 193.636 100.612L194.71 100.296C196.792 99.779 198.909 99.4123 201.044 99.1989C201.354 99.1671 201.668 99.1313 201.981 99.1047Z" fill="#FEF8E8"/>
<path d="M199.18 92.1825C199.134 94.2886 199.378 98.0936 201.038 99.2072C201.038 99.2072 200.595 102.124 197.26 104.041C193.381 102.625 194.704 100.305 194.704 100.305C196.884 99.3672 196.535 97.6926 195.863 96.1774L199.18 92.1825Z" fill="#E4897B"/>
<path d="M197.83 93.8112L195.868 96.174C196.028 96.5262 196.158 96.8919 196.255 97.2667C197.102 96.9891 198.279 95.9846 198.21 95.0601C198.159 94.6244 198.031 94.2014 197.83 93.8112V93.8112Z" fill="#CE6F64"/>
<path d="M198.865 87.43C199.568 90.8214 199.935 92.2394 198.72 94.4082C196.889 97.6673 192.574 97.7869 190.871 94.68C189.343 91.8789 188.452 86.8118 191.354 84.5768C192.348 83.8148 193.604 83.4788 194.846 83.6427C196.087 83.8065 197.213 84.4568 197.975 85.4506C198.423 86.031 198.729 86.7092 198.865 87.43V87.43Z" fill="#E4897B"/>
<path d="M195.095 83.0752C193.834 84.1192 195.41 89.4183 198.746 90.6536C202.081 91.8889 200.043 86.0832 200.043 86.0832L195.095 83.0752Z" fill="#263238"/>
<path d="M195.263 84.5222C195.205 85.901 189.457 87.2121 188.852 88.156C189.302 86.5486 189.641 84.6395 191.891 83.5592C194.141 82.4789 195.771 83.2416 195.771 83.2416L195.263 84.5222Z" fill="#263238"/>
<path d="M194.852 84.5214C194.852 84.5214 194.035 86.0049 191.474 87.6067C193.358 87.3357 195.073 86.3687 196.28 84.8962L194.852 84.5214Z" fill="#263238"/>
<path d="M200.464 90.3239C200.474 90.9933 200.22 91.6399 199.756 92.1227C199.138 92.7596 198.385 92.315 198.186 91.5021C198.005 90.7656 198.105 89.5498 198.904 89.2194C199.042 89.1631 199.19 89.1346 199.339 89.1357C199.488 89.1367 199.635 89.1672 199.773 89.2254C199.91 89.2836 200.034 89.3684 200.139 89.4749C200.243 89.5813 200.325 89.7074 200.381 89.8457C200.443 89.9971 200.471 90.1603 200.464 90.3239Z" fill="#E4897B"/>
<path d="M208.291 119.368L209.139 120.51C209.205 120.597 209.11 120.719 208.945 120.742L194.314 123.271C194.265 123.285 194.212 123.283 194.165 123.265C194.117 123.246 194.077 123.213 194.05 123.17L193.708 121.945C193.688 121.859 193.783 121.77 193.921 121.743L208.046 119.302C208.089 119.291 208.134 119.291 208.177 119.302C208.22 119.314 208.26 119.337 208.291 119.368Z" fill="#263238"/>
<path d="M193.648 89.8304C193.722 90.0994 193.636 90.3603 193.459 90.4055C193.282 90.4508 193.079 90.2753 193.005 90.0018C192.932 89.7283 193.018 89.4718 193.195 89.4266C193.372 89.3814 193.574 89.5569 193.648 89.8304Z" fill="#263238"/>
<path d="M190.582 90.6608C190.655 90.9343 190.57 91.1907 190.392 91.2405C190.214 91.2902 190.012 91.1102 189.938 90.8367C189.865 90.5632 189.95 90.3067 190.128 90.257C190.306 90.2072 190.507 90.3918 190.582 90.6608Z" fill="#263238"/>
<path d="M190.207 90.2541L189.506 90.2418C189.506 90.2418 189.981 90.6623 190.207 90.2541Z" fill="#263238"/>
<path d="M191.595 90.854C191.522 91.5398 191.354 92.2122 191.097 92.8523C191.263 92.9131 191.44 92.9371 191.615 92.9228C191.791 92.9084 191.962 92.856 192.116 92.7691L191.595 90.854Z" fill="#DE5753"/>
<path d="M193.67 93.5405C193.653 93.5369 193.637 93.5276 193.625 93.514C193.613 93.5004 193.606 93.4833 193.604 93.4653C193.603 93.4473 193.608 93.4294 193.618 93.4143C193.628 93.3992 193.642 93.3878 193.659 93.3819C193.999 93.2969 194.314 93.1335 194.579 92.9046C194.843 92.6757 195.051 92.3878 195.184 92.0641C195.186 92.0541 195.191 92.0447 195.197 92.0364C195.203 92.0282 195.211 92.0212 195.22 92.016C195.229 92.0107 195.239 92.0073 195.249 92.0059C195.259 92.0045 195.269 92.0051 195.279 92.0078C195.29 92.0109 195.3 92.0161 195.308 92.0231C195.317 92.0301 195.324 92.0387 195.329 92.0484C195.334 92.0582 195.337 92.0689 195.338 92.0799C195.339 92.0908 195.338 92.1019 195.335 92.1124C195.196 92.4642 194.976 92.7775 194.691 93.026C194.406 93.2744 194.065 93.4506 193.698 93.5397L193.67 93.5405Z" fill="#263238"/>
<path d="M194.237 88.5932C194.21 88.5941 194.182 88.5903 194.156 88.5821C193.994 88.4525 193.804 88.362 193.602 88.3176C193.4 88.2732 193.19 88.2761 192.989 88.3261C192.948 88.3402 192.903 88.3379 192.864 88.3197C192.826 88.3014 192.795 88.2687 192.78 88.2284C192.766 88.187 192.768 88.1418 192.786 88.102C192.805 88.0623 192.838 88.0312 192.878 88.0153V88.0153C193.131 87.9442 193.396 87.9349 193.653 87.9884C193.91 88.0418 194.15 88.1564 194.353 88.3223C194.387 88.3492 194.409 88.3885 194.414 88.4316C194.42 88.4748 194.408 88.5183 194.381 88.5527C194.362 88.5701 194.339 88.5827 194.314 88.5897C194.289 88.5968 194.263 88.5979 194.237 88.5932V88.5932Z" fill="#263238"/>
<path d="M188.739 89.6332L188.707 89.6289C188.687 89.6222 188.668 89.6117 188.652 89.5979C188.636 89.5841 188.623 89.5672 188.614 89.5483C188.604 89.5294 188.599 89.5088 188.597 89.4878C188.596 89.4667 188.599 89.4455 188.605 89.4255C188.684 89.1736 188.823 88.9444 189.009 88.7574C189.196 88.5704 189.424 88.431 189.676 88.351C189.719 88.3413 189.763 88.3484 189.801 88.3707C189.838 88.393 189.865 88.4289 189.877 88.4708C189.888 88.5128 189.882 88.5576 189.861 88.5953C189.839 88.6331 189.804 88.6608 189.762 88.6724C189.562 88.7383 189.38 88.8511 189.233 89.0015C189.085 89.1519 188.976 89.3355 188.914 89.5368C188.9 89.5708 188.876 89.5991 188.844 89.6167C188.812 89.6343 188.775 89.6402 188.739 89.6332Z" fill="#263238"/>
<path d="M208.696 102.445C209.181 102.923 209.583 103.361 210 103.834C210.416 104.307 210.796 104.774 211.192 105.258C211.961 106.232 212.683 107.241 213.368 108.286C214.058 109.337 214.681 110.43 215.234 111.559C215.381 111.838 215.502 112.136 215.634 112.422C215.766 112.708 215.898 112.999 216.01 113.296C216.122 113.593 216.245 113.873 216.348 114.206L216.521 114.738L216.646 115.278C216.887 116.622 216.9 117.997 216.684 119.346C216.484 120.601 216.179 121.836 215.769 123.039C215.365 124.209 214.9 125.357 214.377 126.478C213.852 127.593 213.268 128.678 212.626 129.73L211.07 128.898C211.5 127.848 211.923 126.74 212.277 125.638C212.652 124.549 212.968 123.441 213.224 122.318C213.483 121.232 213.66 120.128 213.752 119.016C213.79 118.488 213.795 117.957 213.769 117.428C213.74 116.938 213.665 116.451 213.547 115.974L213.453 115.643L213.338 115.331C213.244 115.106 213.11 114.838 212.977 114.589C212.845 114.339 212.739 114.094 212.617 113.842C212.494 113.589 212.37 113.346 212.223 113.099C211.689 112.102 211.052 111.179 210.422 110.238C209.792 109.297 209.083 108.392 208.357 107.512C207.997 107.065 207.632 106.627 207.256 106.197C206.88 105.767 206.486 105.334 206.157 104.965L208.696 102.445Z" fill="#E4897B"/>
<path d="M211.744 127.886L209.01 129.363L211.958 131.474C211.958 131.474 213.135 129.924 213.018 128.48L211.744 127.886Z" fill="#E4897B"/>
<path d="M207.82 132.196L210.315 133.358L211.975 131.486L209.009 129.372L207.82 132.196Z" fill="#E4897B"/>
<path d="M226.492 188.356L226.438 188.349C226.36 188.328 226.289 188.288 226.232 188.231C226.175 188.175 226.133 188.104 226.112 188.027C226.093 187.981 226.087 187.931 226.093 187.881C226.1 187.832 226.12 187.785 226.15 187.746C226.424 187.395 227.682 187.492 227.823 187.511C227.838 187.513 227.852 187.52 227.864 187.529C227.876 187.539 227.885 187.552 227.889 187.566C227.897 187.581 227.899 187.597 227.897 187.614C227.895 187.63 227.888 187.645 227.877 187.657C227.533 187.948 226.919 188.414 226.492 188.356ZM227.604 187.662C227.1 187.63 226.421 187.658 226.28 187.842C226.264 187.858 226.254 187.878 226.251 187.9C226.248 187.922 226.252 187.945 226.264 187.964C226.277 188.016 226.303 188.064 226.339 188.103C226.376 188.142 226.423 188.171 226.474 188.187C226.711 188.243 227.121 188.049 227.604 187.662V187.662Z" fill="#1C2D5E"/>
<path d="M227.714 187.668C227.296 187.611 226.506 187.267 226.398 186.911C226.379 186.848 226.382 186.78 226.407 186.72C226.432 186.659 226.478 186.609 226.536 186.578C226.588 186.543 226.647 186.519 226.709 186.507C226.771 186.496 226.835 186.497 226.896 186.512C227.388 186.629 227.864 187.517 227.88 187.57C227.885 187.583 227.886 187.598 227.884 187.612C227.882 187.626 227.877 187.64 227.869 187.652C227.861 187.664 227.851 187.674 227.839 187.681C227.826 187.688 227.812 187.692 227.798 187.693L227.714 187.668ZM226.824 186.668C226.79 186.663 226.756 186.664 226.723 186.673C226.69 186.681 226.659 186.696 226.632 186.716C226.546 186.774 226.548 186.825 226.557 186.863C226.626 187.099 227.239 187.418 227.661 187.476C227.488 187.188 227.153 186.727 226.849 186.653L226.824 186.668Z" fill="#1C2D5E"/>
<path d="M202.833 192.859C202.551 192.841 202.281 192.736 202.06 192.559C202.005 192.504 201.963 192.438 201.936 192.365C201.909 192.292 201.899 192.214 201.905 192.136C201.905 192.092 201.917 192.049 201.941 192.012C201.965 191.975 201.999 191.945 202.04 191.928C202.441 191.728 203.753 192.549 204.012 192.719C204.027 192.728 204.038 192.741 204.044 192.757C204.05 192.773 204.051 192.79 204.046 192.807C204.043 192.824 204.033 192.839 204.02 192.851C204.007 192.862 203.99 192.869 203.973 192.871C203.594 192.906 203.211 192.902 202.833 192.859V192.859ZM202.276 192.062C202.221 192.05 202.164 192.055 202.112 192.076C202.1 192.084 202.089 192.095 202.082 192.108C202.075 192.12 202.07 192.135 202.07 192.149C202.064 192.203 202.071 192.257 202.089 192.308C202.108 192.359 202.138 192.404 202.178 192.441C202.389 192.655 202.953 192.755 203.706 192.723C203.268 192.429 202.785 192.205 202.276 192.062V192.062Z" fill="#1C2D5E"/>
<path d="M203.955 192.868L203.923 192.864C203.495 192.611 202.657 191.735 202.764 191.356C202.776 191.27 202.859 191.175 203.071 191.176C203.901 191.192 204.047 192.696 204.049 192.784C204.05 192.799 204.047 192.814 204.04 192.828C204.033 192.841 204.023 192.853 204.011 192.862C203.994 192.871 203.973 192.873 203.955 192.868ZM203.126 191.346L203.072 191.338C202.986 191.326 202.931 191.356 202.921 191.396C202.863 191.615 203.427 192.297 203.859 192.619C203.803 192.247 203.63 191.414 203.126 191.346Z" fill="#1C2D5E"/>
<path d="M193.275 89.4191L192.574 89.4069C192.574 89.4069 193.044 89.8268 193.275 89.4191Z" fill="#263238"/>
<path d="M201.663 188.248L209.049 189.064L208.935 186.742L200.842 186.028L201.663 188.248Z" fill="#1C2D5E"/>
<path opacity="0.5" d="M201.663 188.248L209.049 189.064L208.935 186.742L200.842 186.028L201.663 188.248Z" fill="#FEF8E8"/>
<path d="M224.985 184.657L230.322 181.856L229.508 179.582L223.612 182.898L224.985 184.657Z" fill="#1C2D5E"/>
<path opacity="0.5" d="M224.985 184.657L230.322 181.856L229.508 179.582L223.612 182.898L224.985 184.657Z" fill="#FEF8E8"/>
<path d="M206.667 121.278L207.047 121.209C207.122 121.197 207.175 121.148 207.158 121.104L206.7 119.512C206.706 119.467 206.618 119.436 206.542 119.449L206.163 119.518C206.087 119.53 206.034 119.579 206.052 119.623L206.505 121.214C206.521 121.241 206.546 121.262 206.575 121.274C206.605 121.286 206.637 121.287 206.667 121.278Z" fill="#1C2D5E"/>
<path d="M195.4 123.238L195.778 123.174C195.855 123.157 195.903 123.108 195.89 123.065L195.432 121.472C195.438 121.427 195.346 121.396 195.27 121.409L194.891 121.477C194.818 121.467 194.767 121.539 194.779 121.582L195.237 123.175C195.25 123.218 195.35 123.232 195.4 123.238Z" fill="#1C2D5E"/>
<path d="M201.03 122.249L201.409 122.184C201.423 122.186 201.439 122.185 201.453 122.18C201.467 122.175 201.48 122.167 201.491 122.156C201.501 122.146 201.51 122.133 201.515 122.119C201.52 122.105 201.522 122.09 201.521 122.075L201.062 120.483C201.068 120.442 200.975 120.411 200.899 120.423L200.526 120.488C200.45 120.501 200.397 120.549 200.409 120.597L200.867 122.189C200.884 122.215 200.91 122.235 200.939 122.246C200.968 122.256 201 122.257 201.03 122.249Z" fill="#1C2D5E"/>
<path opacity="0.4" d="M206.667 121.278L207.047 121.209C207.122 121.197 207.175 121.148 207.158 121.104L206.7 119.512C206.706 119.467 206.618 119.436 206.542 119.449L206.163 119.518C206.087 119.53 206.034 119.579 206.052 119.623L206.505 121.214C206.521 121.241 206.546 121.262 206.575 121.274C206.605 121.286 206.637 121.287 206.667 121.278Z" fill="black"/>
<path opacity="0.4" d="M195.4 123.238L195.778 123.174C195.855 123.157 195.903 123.108 195.89 123.065L195.432 121.472C195.438 121.427 195.346 121.396 195.27 121.409L194.891 121.477C194.818 121.467 194.767 121.539 194.779 121.582L195.237 123.175C195.25 123.218 195.35 123.232 195.4 123.238Z" fill="black"/>
<path opacity="0.4" d="M201.03 122.249L201.409 122.184C201.423 122.186 201.439 122.185 201.453 122.18C201.467 122.175 201.48 122.167 201.491 122.156C201.501 122.146 201.51 122.133 201.515 122.119C201.52 122.105 201.522 122.09 201.521 122.075L201.062 120.483C201.068 120.442 200.975 120.411 200.899 120.423L200.526 120.488C200.45 120.501 200.397 120.549 200.409 120.597L200.867 122.189C200.884 122.215 200.91 122.235 200.939 122.246C200.968 122.256 201 122.257 201.03 122.249Z" fill="black"/>
<path d="M206.924 111.786C205.887 109.796 205.233 105.404 205.766 103.863L206.824 105.597C206.774 108.068 206.813 110.056 206.924 111.786Z" fill="#1C2D5E"/>
<path opacity="0.5" d="M206.924 111.786C205.887 109.796 205.233 105.404 205.766 103.863L206.824 105.597C206.774 108.068 206.813 110.056 206.924 111.786Z" fill="#FEF8E8"/>
<path d="M207.101 98.947C208.85 99.1065 211.686 103.842 211.686 103.842L207.457 108.351C207.457 108.351 203.905 104.632 203.897 102.38C203.885 100.501 204.871 98.7635 207.101 98.947Z" fill="#1C2D5E"/>
<path opacity="0.6" d="M207.101 98.947C208.85 99.1065 211.686 103.842 211.686 103.842L207.457 108.351C207.457 108.351 203.905 104.632 203.897 102.38C203.885 100.501 204.871 98.7635 207.101 98.947Z" fill="#FEF8E8"/>
<path d="M360.029 167.934L249.465 186.836L236.067 216.406L360 230L360.029 167.934Z" fill="#2D3E6F"/>
<path d="M360 181.5L247.035 194.253L234 217.337L360 231.001L360 181.5Z" fill="#1C2D5E"/>
</g>
<defs>
<clipPath id="clip0_1383_26418">
<rect width="360" height="311" fill="white"/>
</clipPath>
</defs>
</svg>
