<svg width="360" height="311" viewBox="0 0 360 311" fill="none" xmlns="http://www.w3.org/2000/svg">
<g clip-path="url(#clip0_1383_26533)">
<path d="M-11 200.2C-11 195 -7.01401 190.667 -1.83156 190.235L349.668 160.904C355.499 160.417 360.5 165.018 360.5 170.869V408H-11V200.2Z" fill="#1C2D5E"/>
<path d="M360.5 139L-9 165L-7 177L-0.5 230L360.5 220.761V139Z" fill="#2D3E6F"/>
<path d="M360.5 144L-6.5 174.152V243L360.5 232.949V144Z" fill="#1C2D5E"/>
<path d="M155.226 68.2591C155.226 68.2591 155.636 64.4994 156.032 64.3323C156.428 64.1652 158.437 64.7392 159.156 65.2078C159.567 65.454 159.874 65.8413 160.021 66.2975V67.4745L161.132 68.9093L159.748 70.5512L157.54 69.2362C157.54 69.2362 155.182 68.626 155.226 68.2591Z" fill="#E4897B"/>
<path d="M155.752 70.3411L162.16 72.9928L158.745 70.5482L161.433 67.8311C161.433 67.8311 168.996 71.1003 168.843 74.7328C168.691 78.3653 163.373 78.5033 156.046 77.6388L155.752 70.3411Z" fill="#1C2D5E"/>
<path opacity="0.1" d="M168.829 74.7401C168.702 77.7877 164.924 78.3726 159.385 77.9766C158.331 77.9004 157.205 77.7877 156.039 77.6497L155.926 74.7437L155.759 70.3665L162.167 73.0183L158.745 70.5482L161.433 67.8311C161.433 67.8311 168.982 71.1076 168.829 74.7401Z" fill="black"/>
<path opacity="0.2" d="M159.378 77.9658C158.324 77.8896 157.198 77.7769 156.032 77.6389L155.919 74.7329C157.417 75.3692 158.642 76.5142 159.378 77.9658V77.9658Z" fill="black"/>
<path d="M143.206 60.5142C143.14 60.5396 139.936 60.4524 139.21 63.2313C138.483 66.0101 140.826 67.4995 140.485 70.242C140.143 72.9845 138.996 75.4002 139.57 76.4681C140.143 77.5361 143.565 78.1245 144.361 74.601C145.156 71.0775 141.796 65.2945 143.198 63.5764C144.601 61.8582 143.206 60.5142 143.206 60.5142Z" fill="#263238"/>
<path d="M154.172 77.5396C154.172 77.5396 153.765 68.9524 145.534 69.0432C137.302 69.134 135.672 74.2231 137.677 78.1462C138.208 81.2711 138.552 84.4249 138.708 87.5908C138.846 91.9498 137.001 95.6694 144.092 96.1489C151.182 96.6284 155.033 94.8812 155.218 93.9694C155.403 93.0577 154.524 81.0777 154.172 77.5396Z" fill="#263238"/>
<path opacity="0.2" d="M154.172 77.5396C154.172 77.5396 153.765 68.9524 145.534 69.0432C137.302 69.134 135.672 74.2231 137.677 78.1462C138.208 81.2711 138.552 84.4249 138.708 87.5908C138.846 91.9498 137.001 95.6694 144.092 96.1489C151.182 96.6284 155.033 94.8812 155.218 93.9694C155.403 93.0577 154.524 81.0777 154.172 77.5396Z" fill="white"/>
<path d="M168.462 152.671L166.475 153.372C166.475 153.372 160.474 139.569 158.037 127.64C156.112 123.932 154.414 120.111 152.951 116.197C152.755 115.674 152.566 115.144 152.381 114.61C151.865 113.128 151.386 111.602 150.986 110.091C150.216 107.185 149.726 104.348 149.777 101.867L157.561 103.553L158.727 108.678L159.345 111.406L159.977 114.185L161.978 123.052L168.462 152.671Z" fill="#E4897B"/>
<path opacity="0.2" d="M159.337 111.406L152.374 114.61C151.858 113.128 151.379 111.602 150.979 110.091L158.72 108.678L159.337 111.406Z" fill="black"/>
<path d="M156.53 98.4522L159.748 109.611L150.482 112.459L148.593 101.867C148.593 101.867 152.207 96.6687 156.53 98.4522Z" fill="#1C2D5E"/>
<path opacity="0.6" d="M159.748 109.612L152.904 111.715L150.565 112.441L150.481 112.467L149.028 104.29L148.596 101.874C148.596 101.874 152.207 96.6617 156.533 98.4489L159.548 108.9L159.748 109.612Z" fill="white"/>
<path d="M160.445 110.218L153.082 112.863L151.386 113.473L150.565 112.449L150.489 112.351L152.861 111.45L159.545 108.907L160.082 108.704L160.445 110.218Z" fill="#1C2D5E"/>
<path opacity="0.2" d="M152.414 111.581L152.498 112.725L150.754 113.193L150.028 112.104L149.944 112.122L149.156 103.854C149.403 103.128 149.555 102.71 149.555 102.71L154.165 99.5024C154.165 99.5024 154.023 101.62 151.844 104.163L152.378 111.308L152.414 111.581Z" fill="black"/>
<path d="M165.647 152.678C165.647 152.417 168.916 152.624 168.916 152.624C168.916 152.624 170.918 154.658 172.861 155.116C174.805 155.573 173.719 156.736 171.546 156.736H166.148C164.608 156.736 165.571 155.424 165.647 152.678Z" fill="#263238"/>
<path d="M169.254 153.042L169.229 153.024C169.227 153.015 169.227 153.007 169.229 152.998C169.227 152.99 169.227 152.981 169.229 152.973V152.973C169.227 152.961 169.227 152.948 169.229 152.936C169.229 152.896 169.516 152.145 169.956 151.963C170.022 151.932 170.093 151.917 170.166 151.917C170.239 151.917 170.311 151.932 170.377 151.963C170.526 152.032 170.595 152.126 170.591 152.235C170.591 152.406 170.348 152.58 170.086 152.718C170.331 152.678 170.583 152.705 170.813 152.798C170.855 152.822 170.892 152.854 170.922 152.892C170.952 152.93 170.974 152.973 170.987 153.02C171.015 153.081 171.022 153.149 171.008 153.215C170.994 153.281 170.958 153.34 170.907 153.383C170.824 153.443 170.722 153.472 170.62 153.463C170.143 153.405 169.681 153.263 169.254 153.042V153.042ZM169.552 152.987C170.032 153.191 170.642 153.372 170.78 153.245C170.78 153.245 170.835 153.202 170.802 153.074C170.796 153.05 170.785 153.026 170.77 153.006C170.754 152.986 170.734 152.97 170.711 152.958C170.59 152.905 170.458 152.881 170.326 152.889C170.066 152.897 169.806 152.93 169.552 152.987V152.987ZM170.006 152.112C169.751 152.28 169.556 152.526 169.451 152.813C169.93 152.628 170.395 152.377 170.406 152.232C170.406 152.185 170.333 152.141 170.29 152.123C170.244 152.099 170.193 152.087 170.141 152.086C170.095 152.086 170.049 152.094 170.006 152.112V152.112Z" fill="#1C2D5E"/>
<path d="M150.667 154.103L148.578 154.375C148.578 154.375 145.581 139.624 145.672 127.451C144.559 123.423 143.691 119.332 143.071 115.199C142.345 110.215 141.981 104.664 142.948 100.523L150.213 103.793L150.362 114.69L150.485 123.771L150.667 154.103Z" fill="#E4897B"/>
<path opacity="0.2" d="M150.362 114.698L143.071 115.206C142.345 110.222 141.981 104.672 142.948 100.531L150.213 103.8L150.362 114.698Z" fill="black"/>
<path d="M147.848 152.678C147.848 152.417 151.117 152.624 151.117 152.624C151.117 152.624 153.119 154.658 155.062 155.116C157.005 155.573 155.919 156.736 153.747 156.736H148.349C146.809 156.736 147.772 155.424 147.848 152.678Z" fill="#263238"/>
<path d="M151.455 153.042L151.43 153.024C151.428 153.015 151.428 153.007 151.43 152.998C151.428 152.99 151.428 152.981 151.43 152.973V152.973C151.428 152.961 151.428 152.948 151.43 152.936C151.43 152.896 151.717 152.145 152.156 151.963C152.222 151.932 152.294 151.917 152.367 151.917C152.44 151.917 152.512 151.932 152.578 151.963C152.726 152.032 152.796 152.126 152.792 152.235C152.792 152.406 152.549 152.58 152.287 152.718C152.532 152.678 152.783 152.705 153.013 152.798C153.056 152.822 153.093 152.854 153.123 152.892C153.153 152.93 153.175 152.973 153.188 153.02C153.216 153.081 153.223 153.149 153.209 153.215C153.194 153.281 153.159 153.34 153.108 153.383C153.025 153.443 152.923 153.472 152.821 153.463C152.344 153.405 151.882 153.263 151.455 153.042V153.042ZM151.753 152.987C152.232 153.191 152.843 153.372 152.981 153.245C152.981 153.245 153.035 153.202 153.003 153.074C152.997 153.05 152.986 153.026 152.97 153.006C152.955 152.986 152.935 152.97 152.912 152.958C152.791 152.905 152.659 152.881 152.527 152.889C152.266 152.897 152.007 152.93 151.753 152.987V152.987ZM152.207 152.112C151.951 152.28 151.757 152.526 151.651 152.813C152.131 152.628 152.596 152.377 152.607 152.232C152.607 152.185 152.534 152.141 152.49 152.123C152.444 152.099 152.393 152.087 152.341 152.086C152.295 152.086 152.25 152.094 152.207 152.112V152.112Z" fill="#1C2D5E"/>
<path d="M151.153 113.026L150.881 100.461L157.111 98.6448C157.111 98.6448 156.62 92.88 155.894 90.0358C155.894 90.0358 145.777 87.5184 144.237 90.9475C144.237 90.9475 144.237 91.002 144.215 91.0202L144.19 91.0529C144.19 91.0529 137.971 95.6734 142.152 113.026H151.153Z" fill="#1C2D5E"/>
<path opacity="0.6" d="M151.153 113.026L150.881 100.461L157.111 98.6448C157.111 98.6448 156.62 92.88 155.894 90.0358C155.894 90.0358 145.777 87.5184 144.237 90.9475C144.237 90.9475 144.237 91.002 144.215 91.0202L144.19 91.0529C144.19 91.0529 137.971 95.6734 142.152 113.026H151.153Z" fill="white"/>
<path d="M144.128 89.2077V90.9222L155.752 90.025V87.998L144.128 89.2077Z" fill="#263238"/>
<path d="M148.068 88.484L147.488 88.5137L147.639 91.4739L148.22 91.4442L148.068 88.484Z" fill="#1C2D5E"/>
<path d="M153.144 88.4121L150.583 88.6416L150.757 90.5845L153.318 90.355L153.144 88.4121Z" fill="white"/>
<path d="M155.215 87.7023L154.635 87.7319L154.786 90.6922L155.366 90.6626L155.215 87.7023Z" fill="#1C2D5E"/>
<path opacity="0.6" d="M148.068 88.484L147.488 88.5137L147.639 91.4739L148.22 91.4442L148.068 88.484Z" fill="white"/>
<path opacity="0.6" d="M155.215 87.7023L154.635 87.7319L154.786 90.6922L155.366 90.6626L155.215 87.7023Z" fill="white"/>
<path d="M155.894 88.2015L144.179 89.215C143.903 84.856 143.627 82.0517 141.048 74.2926C140.823 73.6121 140.58 72.8856 140.321 72.1131C141.91 71.6076 143.533 71.2168 145.178 70.9435C146.916 70.6352 148.674 70.4494 150.438 70.3877C152.719 70.3877 155.334 70.6274 155.334 70.6274C155.334 70.6274 155.698 70.7146 155.941 73.1302C156.155 75.4187 156.362 79.9521 155.894 88.2015Z" fill="#263238"/>
<path opacity="0.2" d="M155.894 88.2018L144.183 89.2152C144.063 86.2263 143.624 83.2588 142.875 80.3628C142.573 79.1932 142.196 77.8782 141.716 76.3671C141.513 75.7205 141.291 75.0376 141.048 74.3074C140.804 73.5773 140.583 72.9053 140.321 72.1279C141.911 71.6209 143.535 71.2288 145.182 70.9546C146.92 70.6459 148.677 70.4602 150.441 70.3989C152.719 70.3807 155.338 70.6386 155.338 70.6386C155.338 70.6386 155.701 70.7294 155.945 73.1414C156.155 75.4154 156.366 79.9523 155.894 88.2018Z" fill="white"/>
<path d="M141.404 112.51L151.666 112.419L151.484 113.963L141.858 113.872L141.404 112.51Z" fill="#1C2D5E"/>
<path d="M144.368 102.649L138.356 101.414L142.352 89.7607L141.004 82.6845L140.219 78.4418L139.093 72.5353C139.093 72.5353 142.083 70.9625 144.146 70.8789C144.128 70.8789 147.365 82.6083 144.368 102.649Z" fill="#1C2D5E"/>
<path d="M151.72 69.9771C151.72 69.9771 153.936 78.8513 154.989 84.834C156.043 90.8167 156.679 100.53 156.679 100.53L158.731 99.5129L156.679 88.6372C156.679 88.6372 157.267 73.1809 155.752 70.3476L151.72 69.9771Z" fill="#1C2D5E"/>
<path d="M151.72 69.9771C151.72 69.9771 156.079 76.6536 156.762 85.2517L157.125 83.312C157.125 83.312 156.806 75.9852 152.861 69.8281L151.72 69.9771Z" fill="#263238"/>
<path opacity="0.1" d="M151.72 69.9771C151.72 69.9771 156.079 76.6536 156.762 85.2517L157.125 83.312C157.125 83.312 156.806 75.9852 152.861 69.8281L151.72 69.9771Z" fill="white"/>
<path d="M144.128 70.3403C144.128 70.3403 144.76 81.4195 141.847 87.0862L141.407 86.258C141.407 86.258 143.721 79.7594 142.428 70.8779L144.128 70.3403Z" fill="#263238"/>
<path opacity="0.1" d="M144.128 70.3403C144.128 70.3403 144.76 81.4195 141.847 87.0862L141.407 86.258C141.407 86.258 143.721 79.7594 142.428 70.8779L144.128 70.3403Z" fill="white"/>
<path d="M152.766 74.3328C152.766 74.3328 153.191 70.021 153.013 69.4289C152.835 68.8368 144.419 68.8586 143.075 69.9774C141.731 71.0962 144.942 75.3499 144.942 75.3499C144.942 75.3499 145.171 71.4595 145.28 71.2052C145.389 70.9509 149.853 70.4533 150.547 70.6494C151.241 70.8456 152.766 74.3328 152.766 74.3328Z" fill="#1C2D5E"/>
<path opacity="0.2" d="M152.766 74.3328C152.766 74.3328 153.191 70.021 153.013 69.4289C152.835 68.8368 144.419 68.8586 143.075 69.9774C141.731 71.0962 144.942 75.3499 144.942 75.3499C144.942 75.3499 145.171 71.4595 145.28 71.2052C145.389 70.9509 149.853 70.4533 150.547 70.6494C151.241 70.8456 152.766 74.3328 152.766 74.3328Z" fill="black"/>
<path d="M149.472 72.9924C146.566 72.6291 145.716 71.3868 145.716 71.3868C146.896 70.2753 146.682 68.6334 146.381 67.609C146.287 67.2843 146.165 66.9683 146.017 66.6646L149.494 67.3148C149.414 67.7952 149.369 68.2808 149.359 68.7678C149.346 69.1337 149.379 69.4998 149.457 69.8575C149.693 70.8964 150.286 70.9109 150.286 70.9109C150.903 72.0479 149.472 72.9924 149.472 72.9924Z" fill="#E4897B"/>
<path opacity="0.2" d="M149.366 68.7788C149.353 69.1447 149.386 69.5108 149.464 69.8685C148.084 69.6869 147.038 68.5826 146.38 67.6237C146.287 67.299 146.165 66.983 146.017 66.6792L149.493 67.3294C149.416 67.8088 149.373 68.2932 149.366 68.7788V68.7788Z" fill="black"/>
<path d="M152.029 61.8332C152.029 61.8332 152.646 60.057 151.124 57.8375C149.602 55.618 146.402 55.1349 144.099 57.8375C144.099 57.8375 142.846 57.9138 142.09 60.0715C141.335 62.2292 142.243 66.2831 145.832 67.1113C149.421 67.9395 152.029 61.8332 152.029 61.8332Z" fill="#263238"/>
<path d="M147.122 58.1568C150.097 57.5937 151.353 59.0031 152.149 62.0254C153.144 65.8032 152.81 68.6838 148.938 68.5639C143.674 68.4113 142.178 59.0867 147.122 58.1568Z" fill="#E4897B"/>
<path d="M150.187 62.2256C150.506 62.6239 150.872 62.9824 151.277 63.2935C151.212 63.4332 151.11 63.5522 150.982 63.6375C150.853 63.7227 150.704 63.7709 150.55 63.7767L150.187 62.2256Z" fill="#DE5753"/>
<path d="M148.324 62.3231C148.375 62.5665 148.287 62.7917 148.124 62.828C147.96 62.8643 147.79 62.6936 147.735 62.4647C147.681 62.2359 147.775 61.9961 147.935 61.9598C148.095 61.9235 148.273 62.0797 148.324 62.3231Z" fill="#263238"/>
<path d="M147.87 61.9747L148.356 61.6514C148.356 61.6514 148.186 62.1527 147.87 61.9747Z" fill="#263238"/>
<path d="M151.335 61.6297C151.386 61.8731 151.295 62.0983 151.135 62.131C150.975 62.1637 150.801 61.9966 150.746 61.7677C150.692 61.5389 150.786 61.3028 150.946 61.2665C151.106 61.2301 151.284 61.3863 151.335 61.6297Z" fill="#263238"/>
<path d="M150.881 61.2772L151.368 60.9575C151.368 60.9575 151.197 61.4588 150.881 61.2772Z" fill="#263238"/>
<path d="M147.906 60.2788C147.666 60.2938 147.432 60.3638 147.223 60.4835C147.014 60.6032 146.835 60.7693 146.7 60.969" stroke="#263238" stroke-width="0.707962" stroke-linecap="round" stroke-linejoin="round"/>
<path d="M150.027 59.7447C150.221 59.6548 150.432 59.6098 150.645 59.6129C150.858 59.6161 151.068 59.6673 151.259 59.7628" stroke="#263238" stroke-width="0.707962" stroke-linecap="round" stroke-linejoin="round"/>
<path d="M144.815 63.7804C144.815 63.7804 145.741 61.0742 145.178 59.2289C145.178 59.2289 150.627 55.709 152.033 61.6336C152.033 61.6336 151.608 56.2175 146.475 57.0639C141.342 57.9103 142.763 65.3823 145.832 67.1114C145.832 67.1114 144.241 65.4695 144.815 63.7804Z" fill="#263238"/>
<path d="M145.418 64.3142C145.323 63.9761 145.098 63.6891 144.793 63.5157C144.487 63.3423 144.126 63.2963 143.787 63.3879C142.886 63.664 142.806 65.6364 145.182 65.6582C145.523 65.6582 145.646 65.295 145.418 64.3142Z" fill="#E4897B"/>
<path d="M152.141 64.0088C152.141 64.0088 151.709 64.165 151.72 64.4955C151.727 64.7317 152.515 64.8007 152.141 64.0088Z" fill="#263238"/>
<path d="M145.174 59.2288C145.174 59.2288 148.08 57.9502 150.441 60.2786C150.441 60.2786 149.083 57.8049 145.534 58.7058C145.534 58.7058 144.88 58.8547 145.174 59.2288Z" fill="#263238"/>
<path d="M145.174 59.229C145.483 59.7373 145.684 60.3039 145.764 60.8933C145.844 61.4827 145.801 62.0822 145.639 62.6545" stroke="#263238" stroke-width="0.5" stroke-linecap="round" stroke-linejoin="round"/>
<path d="M153.039 64.3072L152.131 63.9004L151.404 65.4914L152.312 65.8983C152.434 65.9516 152.542 66.03 152.631 66.1283C152.72 66.2266 152.787 66.3425 152.828 66.4686V66.4686C152.869 66.5946 152.936 66.7105 153.025 66.8088C153.114 66.9071 153.223 66.9855 153.344 67.0389L160.609 70.3081C160.669 70.3353 160.734 70.3504 160.801 70.3523C160.867 70.3542 160.933 70.3431 160.994 70.3194C161.056 70.2958 161.113 70.2602 161.161 70.2146C161.209 70.169 161.247 70.1144 161.274 70.0539L162.084 68.2376C162.111 68.1773 162.126 68.1122 162.128 68.0461C162.13 67.9799 162.119 67.9141 162.095 67.8523C162.072 67.7905 162.036 67.734 161.99 67.686C161.945 67.6381 161.89 67.5996 161.83 67.5729L154.543 64.3036C154.422 64.2498 154.292 64.222 154.16 64.222C154.027 64.222 153.897 64.2498 153.776 64.3036V64.3036C153.66 64.3526 153.535 64.3782 153.408 64.3788C153.281 64.3794 153.156 64.3551 153.039 64.3072V64.3072Z" fill="#1C2D5E"/>
<path opacity="0.7" d="M156.864 65.3345L154.575 64.3102C154.455 64.2564 154.324 64.2286 154.192 64.2286C154.06 64.2286 153.93 64.2564 153.809 64.3102C153.688 64.3632 153.556 64.3905 153.424 64.3905C153.291 64.3905 153.16 64.3632 153.039 64.3102L152.131 63.9033L151.404 65.4944L152.312 65.9012C152.434 65.9546 152.542 66.033 152.631 66.1312C152.72 66.2295 152.787 66.3455 152.828 66.4715C152.869 66.5975 152.936 66.7135 153.025 66.8118C153.114 66.91 153.223 66.9884 153.344 67.0418L155.629 68.0662L156.864 65.3345Z" fill="white"/>
<path opacity="0.7" d="M158.502 69.3417L160.641 70.2971C160.702 70.3243 160.767 70.3393 160.833 70.3412C160.899 70.3432 160.965 70.332 161.027 70.3084C161.089 70.2847 161.145 70.2491 161.193 70.2035C161.241 70.1579 161.28 70.1033 161.306 70.0428L162.116 68.2265C162.17 68.1046 162.174 67.9663 162.126 67.8417C162.079 67.7172 161.984 67.6166 161.862 67.5618L159.722 66.6064L158.502 69.3417Z" fill="white"/>
<path opacity="0.2" d="M141.008 82.6836L140.22 78.4409L140.866 77.8052C140.866 77.8052 142.036 80.1881 141.008 82.6836Z" fill="black"/>
<path d="M139.551 82.6364L141.407 81.3723C141.407 81.3723 143.431 77.8052 144.128 77.8052C144.826 77.8052 145.218 81.0236 145.109 81.2597C145 81.4958 143.126 83.145 142.762 83.1232L140.55 85.0629L139.551 82.6364Z" fill="#E4897B"/>
<path d="M139.075 72.5347C137.488 72.64 131.385 85.8514 132.679 89.1461C133.972 92.4408 141.789 84.9542 141.789 84.9542L140.801 81.5941L138.356 82.9926C139.069 81.8865 139.854 80.8283 140.706 79.8251C140.706 79.8251 141.048 77.0789 140.706 75.0665C140.365 73.0541 139.075 72.5347 139.075 72.5347Z" fill="#1C2D5E"/>
<path opacity="0.1" d="M139.075 72.5347C137.488 72.64 131.385 85.8514 132.679 89.1461C133.972 92.4408 141.789 84.9542 141.789 84.9542L140.801 81.5941L138.356 82.9926C139.069 81.8865 139.854 80.8283 140.706 79.8251C140.706 79.8251 141.048 77.0789 140.706 75.0665C140.365 73.0541 139.075 72.5347 139.075 72.5347Z" fill="black"/>
<path d="M173.221 127.27L175.876 129.34L176.24 129.249L173.584 126.819L171.535 121.676C171.466 120.949 171.386 120.197 171.278 119.442C171.234 119.136 171.165 118.791 171.096 118.483C171.027 118.174 170.943 117.88 170.863 117.585C170.7 116.993 170.529 116.412 170.355 115.831C169.672 113.546 168.945 111.29 168.201 109.031L167.318 91.3877L165.099 91.5294L166.464 109.249V109.372L166.497 109.47C167.282 111.744 168.052 114.029 168.771 116.314C168.949 116.884 169.134 117.458 169.287 118.028C169.374 118.312 169.45 118.595 169.523 118.878C169.596 119.162 169.639 119.402 169.686 119.692C169.868 120.84 169.988 122.046 170.111 123.234C170.533 127.666 170.838 132.123 171.136 136.58L170.304 140.332L170.892 144.716L170.304 148.015L170.624 148.106L171.485 144.644L170.98 140.746L171.601 139.021L173.715 146.13L174.441 156.74L175.531 156.675L174.95 145.981V145.919L174.928 145.846L172.563 137.491C172.349 133.263 172.113 129.042 171.79 124.81L173.221 127.27Z" fill="#263238"/>
<path d="M170.733 86.4038L167.667 89.0991L165.654 88.6814C165.654 88.6814 162.781 90.9735 163.068 91.3113C163.355 91.6491 164.314 93.4327 164.986 93.4545C165.658 93.4763 168.451 91.769 168.451 91.769L172.084 89.2953L170.733 86.4038Z" fill="#E4897B"/>
<path d="M185.299 60.1621C183.676 61.4116 182.27 62.9214 181.14 64.6301C179.284 67.4453 176.973 77.4419 175.691 79.7704C174.409 82.0988 168.833 87.4531 168.833 87.4531L170.504 91.2709C170.504 91.2709 178.278 86.861 181.503 82.4693C184.729 78.0776 188.042 64.0779 188.042 64.0779L185.299 60.1621Z" fill="#1C2D5E"/>
<path opacity="0.6" d="M185.299 60.1621C183.676 61.4116 182.27 62.9214 181.14 64.6301C179.284 67.4453 176.973 77.4419 175.691 79.7704C174.409 82.0988 168.833 87.4531 168.833 87.4531L170.504 91.2709C170.504 91.2709 178.278 86.861 181.503 82.4693C184.729 78.0776 188.042 64.0779 188.042 64.0779L185.299 60.1621Z" fill="white"/>
<path d="M202.96 45.8868L198.906 45.0913C198.24 44.6632 197.502 44.3604 196.727 44.1977C195.274 43.8344 194.184 43.5148 193.763 43.9834C193.341 44.452 192.615 46.1375 193.011 46.3881C194.305 46.93 195.641 47.3637 197.007 47.6849C197.363 47.6897 197.718 47.6407 198.06 47.5396L202.466 48.7964L202.96 45.8868Z" fill="#E4897B"/>
<path d="M199.589 153.91L202.666 154.234L202.822 152.45L203.244 147.597L200.167 147.27L199.698 152.632L199.589 153.91Z" fill="#E4897B"/>
<path d="M184.228 153.521H187.21L187.235 152.846L187.239 152.762L187.391 148.436L187.395 148.349L187.457 146.688H184.471L184.228 153.521Z" fill="#E4897B"/>
<path opacity="0.2" d="M200.167 147.27L199.698 152.632L202.822 152.45L203.244 147.597L200.167 147.27Z" fill="black"/>
<path opacity="0.2" d="M184.246 153.14H184.249L187.235 152.763H187.239L187.395 148.589H187.391L184.402 148.825L184.249 153.01L184.246 153.14Z" fill="black"/>
<path d="M187.624 153.34H183.991C183.932 153.341 183.874 153.362 183.828 153.399C183.782 153.437 183.75 153.489 183.737 153.547L183.149 156.202C183.136 156.259 183.135 156.318 183.146 156.375C183.157 156.432 183.178 156.486 183.21 156.535C183.242 156.584 183.283 156.626 183.331 156.658C183.379 156.691 183.433 156.714 183.49 156.725C183.521 156.729 183.553 156.729 183.584 156.725C184.758 156.707 185.611 156.635 187.083 156.635C187.991 156.635 190.715 156.729 191.979 156.729C193.243 156.729 193.396 155.494 192.884 155.378C190.584 154.88 188.852 154.183 188.118 153.525C187.982 153.404 187.806 153.338 187.624 153.34V153.34Z" fill="#263238"/>
<path d="M202.993 153.245H199.36C199.301 153.246 199.243 153.267 199.197 153.305C199.151 153.342 199.119 153.394 199.106 153.452L198.525 156.108C198.501 156.222 198.524 156.342 198.588 156.44C198.652 156.538 198.752 156.606 198.866 156.631H198.961C200.134 156.631 200.988 156.54 202.462 156.54C203.367 156.54 206.095 156.635 207.355 156.635C208.616 156.635 208.772 155.399 208.26 155.283C205.961 154.782 204.231 154.088 203.494 153.427C203.356 153.305 203.177 153.24 202.993 153.245V153.245Z" fill="#263238"/>
<path d="M203.527 152.003H199.149C199.149 152.003 199.513 114.334 194.79 101.613C194.456 105.82 194.064 110.182 193.701 113.819C193.468 116.067 193.239 118.003 193.025 119.474C191.645 128.962 188.168 152.381 188.168 152.381H183.846C183.846 152.381 184.358 129.94 184.87 120.615C185.433 110.495 185.676 88.2458 185.702 86.3496H201.532C203.04 94.3193 206.905 126.198 203.527 152.003Z" fill="#263238"/>
<path d="M195.797 52.9017C195.757 53.047 195.717 53.1886 195.666 53.3267C195.385 54.1161 194.871 54.8014 194.191 55.2919C194.019 55.4164 193.839 55.5281 193.65 55.626C193.156 55.8889 192.609 56.038 192.05 56.0625C191.49 56.087 190.933 55.9863 190.417 55.7677C189.953 55.5706 189.533 55.2801 189.186 54.9141C187.689 53.4066 187.733 51.663 187.562 48.7134C187.512 48.0247 187.638 47.3346 187.929 46.7086C188.221 46.0827 188.668 45.5417 189.227 45.1372C189.787 44.7327 190.441 44.4781 191.127 44.3977C191.812 44.3172 192.507 44.4136 193.145 44.6777C196.026 45.8582 196.425 50.2463 195.797 52.9017Z" fill="#E4897B"/>
<path opacity="0.2" d="M194.18 55.2916C194.008 55.4161 193.828 55.5278 193.639 55.6258C193.145 55.8886 192.598 56.0377 192.039 56.0622C191.479 56.0867 190.922 55.986 190.406 55.7674C190.537 55.4129 190.715 55.0771 190.933 54.7685C192.043 54.6277 193.171 54.8093 194.18 55.2916Z" fill="black"/>
<path d="M188.241 59.12C189.694 60.4386 193.258 59.9519 193.258 59.9519C193.258 59.9519 195.477 59.3416 195.012 58.6478C193.701 58.4299 193.069 57.8196 192.807 57.0386C192.664 56.5535 192.618 56.0449 192.673 55.542C192.696 55.263 192.734 54.9853 192.785 54.7102L188.383 51.4409C188.96 53.6023 189.665 57.5581 188.241 59.12Z" fill="#E4897B"/>
<path d="M192.295 43.4025C192.295 43.4025 194.21 42.5997 195.543 43.8529C196.665 44.9136 195.935 46.5446 196.614 47.8995C197.294 49.2544 194.842 50.1408 194.842 50.1408C194.842 50.1408 194.191 51.5356 193.065 51.4485C193.065 51.4485 192.146 52.5636 192.295 53.7115C192.444 54.8594 190.788 55.7748 188.536 55.7457C186.283 55.7166 187.184 54.2927 187.184 54.2927C186.532 53.54 186.005 52.6877 185.622 51.7681C185.166 50.6496 184.949 49.4483 184.983 48.241C184.962 47.614 185.066 46.9891 185.29 46.4028C185.513 45.8165 185.851 45.2806 186.283 44.8264C187.805 43.1373 191.369 42.3018 192.295 43.4025Z" fill="#263238"/>
<path d="M192.502 50.4273C192.559 50.7046 192.677 50.9658 192.846 51.1925C193.016 51.4191 193.233 51.6056 193.483 51.7387C194.086 51.9929 194.482 51.1466 194.395 50.2602C194.311 49.472 193.904 48.3677 193.261 48.513C192.618 48.6583 192.291 49.6354 192.502 50.4273Z" fill="#E4897B"/>
<path d="M196.048 43.8019C196.934 44.8916 194.199 52.4981 190.105 53.2173C186.011 53.9366 184.656 54.2235 185.263 51.1323C185.263 51.1323 184.01 48.4733 184.976 45.6835C184.976 45.6835 184.504 45.6109 184.613 44.6773C184.721 43.7437 188.172 41.2264 190.399 41.0121C192.626 40.7978 195.07 43.5004 195.07 43.5004C195.07 43.5004 195.525 43.1553 196.048 43.8019Z" fill="#1C2D5E"/>
<path opacity="0.2" d="M194.776 101.595C194.442 105.801 194.05 110.175 193.687 113.811C193.149 108.562 192.488 104.817 192.488 104.817C192.488 104.817 191.867 104.309 190.167 101.595C188.467 98.8816 190.167 93.8179 190.167 93.8179C190.127 98.522 194.776 101.595 194.776 101.595Z" fill="black"/>
<path d="M204.017 150.768L203.803 152.003H198.634V150.863L204.017 150.768Z" fill="#1C2D5E"/>
<path d="M188.662 151.244L188.168 152.381H183.831L183.548 151.244H188.662Z" fill="#1C2D5E"/>
<path d="M185.557 88.9426V91.2711L202.146 90.1087V88.0454L185.557 88.9426Z" fill="#1C2D5E"/>
<path opacity="0.2" d="M185.557 88.9426V91.2711L202.146 90.1087V88.0454L185.557 88.9426Z" fill="white"/>
<path d="M202.957 87.0213C202.972 87.2302 202.946 87.4401 202.879 87.6386C202.812 87.8372 202.706 88.0203 202.568 88.1771C202.429 88.3339 202.26 88.4613 202.071 88.5516C201.882 88.642 201.677 88.6935 201.467 88.7031L185.898 89.4623C185.78 89.4687 185.661 89.4509 185.549 89.4101C185.437 89.3692 185.335 89.3062 185.249 89.2247C185.162 89.1432 185.093 89.0449 185.045 88.9359C184.998 88.8269 184.973 88.7094 184.972 88.5905C184.874 79.1133 181.63 61.8771 183.846 60.1625C186.138 58.3899 197.381 57.46 197.381 57.46C197.908 58.6997 198.369 59.9668 198.761 61.2559C198.808 61.4194 198.863 61.5829 198.906 61.75C199.553 63.8822 200.094 66.1852 200.563 68.5137C200.595 68.6699 200.628 68.8297 200.657 68.9859C201.764 74.9494 202.532 80.9709 202.957 87.0213V87.0213Z" fill="#1C2D5E"/>
<path opacity="0.6" d="M202.957 87.0213C202.972 87.2302 202.946 87.4401 202.879 87.6386C202.812 87.8372 202.706 88.0203 202.568 88.1771C202.429 88.3339 202.26 88.4613 202.071 88.5516C201.882 88.642 201.677 88.6935 201.467 88.7031L185.898 89.4623C185.78 89.4687 185.661 89.4509 185.549 89.4101C185.437 89.3692 185.335 89.3062 185.249 89.2247C185.162 89.1432 185.093 89.0449 185.045 88.9359C184.998 88.8269 184.973 88.7094 184.972 88.5905C184.874 79.1133 181.63 61.8771 183.846 60.1625C186.138 58.3899 197.381 57.46 197.381 57.46C197.838 58.5207 198.26 59.6758 198.648 60.8963C198.685 61.0162 198.725 61.1361 198.761 61.2596C198.797 61.3831 198.863 61.5865 198.906 61.7536C199.509 63.7369 200.018 65.8692 200.465 68.0342L200.563 68.5173C200.595 68.6735 200.628 68.8333 200.657 68.9895C201.764 74.9519 202.531 80.9721 202.957 87.0213V87.0213Z" fill="white"/>
<path d="M179.353 66.9803C179.353 66.9803 177.711 61.5752 180.119 58.8762C182.527 56.1773 190.973 56.6568 191.892 56.8493C194.722 57.4377 195.724 62.0728 196.734 67.0203C197.744 71.9678 198.895 88.8989 197.17 89.9741C195.445 91.0493 183.759 92.3352 181.746 91.26C179.734 90.1848 179.353 66.9803 179.353 66.9803Z" fill="#263238"/>
<path d="M177.82 66.8099C177.82 66.8099 176.182 61.2994 178.586 58.5169C180.991 55.7344 189.444 56.2465 190.359 56.4427C193.189 57.0457 193.4 60.6455 194.181 69.2727C195.565 84.5873 196.8 89.5057 195.078 90.6028C193.356 91.6998 182.226 92.7823 180.214 91.6707C178.201 90.5592 177.82 66.8099 177.82 66.8099Z" fill="#1C2D5E"/>
<path d="M193.421 59.2512C193.421 59.2512 194.024 56.8865 197.381 57.4604C197.381 57.4604 195.31 57.435 195.401 64.2714C195.492 71.1077 197.977 80.189 197.977 80.189C197.977 80.189 200.992 80.051 201.758 75.7283L202.121 77.0396C202.121 77.0396 201.649 83.3493 197.119 84.5988C197.145 84.5879 195.089 62.7711 193.421 59.2512Z" fill="#263238"/>
<path opacity="0.2" d="M200.465 68.0312C196.527 64.5549 197.875 60.6245 197.875 60.6245L198.649 60.8969C198.685 61.0168 198.725 61.1367 198.761 61.2602C198.798 61.3837 198.863 61.5871 198.907 61.7542C199.509 63.7339 200.018 65.8662 200.465 68.0312Z" fill="black"/>
<path d="M215.18 52.2183C214.421 47.1546 203.193 45.4365 200.519 45.0986C200.074 46.4558 199.928 47.8933 200.091 49.3123C200.091 49.3123 208.213 51.55 208.282 52.1239C208.351 52.6978 198.728 56.5083 197.384 57.4455C197.384 57.4455 196.738 58.8767 197.788 61.681C198.663 64.0131 199.709 64.656 199.709 64.656C199.709 64.656 216.045 57.9577 215.18 52.2183Z" fill="#1C2D5E"/>
<path opacity="0.6" d="M215.18 52.2183C214.421 47.1546 203.193 45.4365 200.519 45.0986C200.074 46.4558 199.928 47.8933 200.091 49.3123C200.091 49.3123 208.213 51.55 208.282 52.1239C208.351 52.6978 198.728 56.5083 197.384 57.4455C197.384 57.4455 196.738 58.8767 197.788 61.681C198.663 64.0131 199.709 64.656 199.709 64.656C199.709 64.656 216.045 57.9577 215.18 52.2183Z" fill="white"/>
</g>
<defs>
<clipPath id="clip0_1383_26533">
<rect width="360" height="311" fill="white"/>
</clipPath>
</defs>
</svg>
