<svg width="361" height="311" viewBox="0 0 361 311" fill="none" xmlns="http://www.w3.org/2000/svg">
<g clip-path="url(#clip0_3807_53668)">
<path d="M-10.5 200.2C-10.5 195 -6.51401 190.667 -1.33156 190.235L350.168 160.904C355.999 160.417 361 165.018 361 170.869V408H-10.5V200.2Z" fill="#1C2D5E"/>
<path d="M361 139L-8.5 165L-6.5 177L0 230L361 220.761V139Z" fill="#2D3E6F"/>
<path d="M361 144L-6 174.152V243L361 232.949V144Z" fill="#1C2D5E"/>
<path d="M155.725 68.2591C155.725 68.2591 156.136 64.4994 156.532 64.3323C156.928 64.1652 158.937 64.7392 159.656 65.2078C160.067 65.454 160.374 65.8413 160.52 66.2975V67.4745L161.632 68.9093L160.248 70.5512L158.039 69.2362C158.039 69.2362 155.682 68.626 155.725 68.2591Z" fill="#E4897B"/>
<path d="M156.252 70.3411L162.66 72.9928L159.245 70.5482L161.933 67.8311C161.933 67.8311 169.496 71.1003 169.344 74.7328C169.191 78.3653 163.873 78.5033 156.546 77.6388L156.252 70.3411Z" fill="#1C2D5E"/>
<path opacity="0.1" d="M169.329 74.7401C169.202 77.7877 165.424 78.3726 159.885 77.9766C158.831 77.9004 157.705 77.7877 156.539 77.6497L156.427 74.7437L156.26 70.3665L162.667 73.0183L159.245 70.5482L161.933 67.8311C161.933 67.8311 169.482 71.1076 169.329 74.7401Z" fill="black"/>
<path opacity="0.2" d="M159.877 77.9658C158.824 77.8896 157.698 77.7769 156.532 77.6389L156.419 74.7329C157.917 75.3692 159.142 76.5142 159.877 77.9658Z" fill="black"/>
<path d="M143.705 60.5142C143.64 60.5396 140.436 60.4524 139.71 63.2313C138.983 66.0101 141.326 67.4995 140.985 70.242C140.643 72.9845 139.495 75.4002 140.069 76.4681C140.643 77.5361 144.065 78.1245 144.861 74.601C145.656 71.0775 142.296 65.2945 143.698 63.5764C145.1 61.8582 143.705 60.5142 143.705 60.5142Z" fill="#263238"/>
<path d="M154.672 77.5396C154.672 77.5396 154.265 68.9524 146.034 69.0432C137.803 69.134 136.172 74.2231 138.177 78.1462C138.708 81.2711 139.053 84.4249 139.209 87.5908C139.347 91.9498 137.501 95.6694 144.592 96.1489C151.683 96.6284 155.533 94.8812 155.718 93.9694C155.904 93.0577 155.024 81.0777 154.672 77.5396Z" fill="#263238"/>
<path opacity="0.2" d="M154.672 77.5396C154.672 77.5396 154.265 68.9524 146.034 69.0432C137.803 69.134 136.172 74.2231 138.177 78.1462C138.708 81.2711 139.053 84.4249 139.209 87.5908C139.347 91.9498 137.501 95.6694 144.592 96.1489C151.683 96.6284 155.533 94.8812 155.718 93.9694C155.904 93.0577 155.024 81.0777 154.672 77.5396Z" fill="white"/>
<path d="M168.962 152.671L166.975 153.372C166.975 153.372 160.975 139.569 158.537 127.64C156.612 123.932 154.914 120.111 153.452 116.197C153.255 115.674 153.067 115.144 152.881 114.61C152.365 113.128 151.886 111.602 151.486 110.091C150.716 107.185 150.226 104.348 150.277 101.867L158.061 103.553L159.227 108.678L159.845 111.406L160.477 114.185L162.478 123.052L168.962 152.671Z" fill="#E4897B"/>
<path opacity="0.2" d="M159.837 111.406L152.874 114.61C152.358 113.128 151.879 111.602 151.479 110.091L159.22 108.678L159.837 111.406Z" fill="black"/>
<path d="M157.03 98.4522L160.248 109.611L150.981 112.459L149.093 101.867C149.093 101.867 152.707 96.6687 157.03 98.4522Z" fill="#1C2D5E"/>
<path opacity="0.6" d="M160.248 109.612L153.404 111.715L151.065 112.441L150.981 112.467L149.528 104.29L149.096 101.874C149.096 101.874 152.707 96.6617 157.033 98.4489L160.048 108.9L160.248 109.612Z" fill="white"/>
<path d="M160.945 110.218L153.582 112.863L151.886 113.473L151.065 112.449L150.989 112.351L153.361 111.45L160.045 108.907L160.582 108.704L160.945 110.218Z" fill="#1C2D5E"/>
<path opacity="0.2" d="M152.914 111.581L152.997 112.725L151.254 113.193L150.527 112.104L150.444 112.122L149.656 103.854C149.903 103.128 150.055 102.71 150.055 102.71L154.665 99.5024C154.665 99.5024 154.523 101.62 152.344 104.163L152.878 111.308L152.914 111.581Z" fill="black"/>
<path d="M166.147 152.678C166.147 152.417 169.416 152.624 169.416 152.624C169.416 152.624 171.418 154.658 173.361 155.116C175.305 155.573 174.219 156.736 172.046 156.736H166.648C165.108 156.736 166.071 155.424 166.147 152.678Z" fill="#263238"/>
<path d="M169.754 153.042L169.729 153.024C169.727 153.015 169.727 153.007 169.729 152.998C169.727 152.99 169.727 152.981 169.729 152.973C169.727 152.961 169.727 152.948 169.729 152.936C169.729 152.896 170.016 152.145 170.455 151.963C170.521 151.932 170.593 151.917 170.666 151.917C170.739 151.917 170.811 151.932 170.877 151.963C171.026 152.032 171.095 152.126 171.091 152.235C171.091 152.406 170.848 152.58 170.586 152.718C170.831 152.678 171.082 152.705 171.313 152.798C171.355 152.822 171.392 152.854 171.422 152.892C171.452 152.93 171.474 152.973 171.487 153.02C171.515 153.081 171.522 153.149 171.508 153.215C171.493 153.281 171.458 153.34 171.407 153.383C171.324 153.443 171.222 153.472 171.12 153.463C170.643 153.405 170.181 153.263 169.754 153.042ZM170.052 152.987C170.532 153.191 171.142 153.372 171.28 153.245C171.28 153.245 171.334 153.202 171.302 153.074C171.296 153.05 171.285 153.026 171.269 153.006C171.254 152.986 171.234 152.97 171.211 152.958C171.09 152.905 170.958 152.881 170.826 152.889C170.565 152.897 170.306 152.93 170.052 152.987ZM170.506 152.112C170.251 152.28 170.056 152.526 169.95 152.813C170.43 152.628 170.895 152.377 170.906 152.232C170.906 152.185 170.833 152.141 170.789 152.123C170.743 152.099 170.692 152.087 170.641 152.086C170.594 152.086 170.549 152.094 170.506 152.112Z" fill="#1C2D5E"/>
<path d="M151.167 154.103L149.078 154.375C149.078 154.375 146.081 139.624 146.172 127.451C145.059 123.423 144.191 119.332 143.571 115.199C142.845 110.215 142.481 104.664 143.448 100.523L150.713 103.793L150.862 114.69L150.985 123.771L151.167 154.103Z" fill="#E4897B"/>
<path opacity="0.2" d="M150.862 114.698L143.571 115.206C142.845 110.222 142.481 104.672 143.448 100.531L150.713 103.8L150.862 114.698Z" fill="black"/>
<path d="M148.348 152.678C148.348 152.417 151.617 152.624 151.617 152.624C151.617 152.624 153.619 154.658 155.562 155.116C157.505 155.573 156.419 156.736 154.247 156.736H148.849C147.309 156.736 148.272 155.424 148.348 152.678Z" fill="#263238"/>
<path d="M151.955 153.042L151.929 153.024C151.928 153.015 151.928 153.007 151.929 152.998C151.928 152.99 151.928 152.981 151.929 152.973C151.927 152.961 151.927 152.948 151.929 152.936C151.929 152.896 152.216 152.145 152.656 151.963C152.722 151.932 152.794 151.917 152.867 151.917C152.939 151.917 153.011 151.932 153.077 151.963C153.226 152.032 153.295 152.126 153.292 152.235C153.292 152.406 153.048 152.58 152.787 152.718C153.032 152.678 153.283 152.705 153.513 152.798C153.556 152.822 153.593 152.854 153.623 152.892C153.653 152.93 153.675 152.973 153.688 153.02C153.716 153.081 153.723 153.149 153.708 153.215C153.694 153.281 153.659 153.34 153.608 153.383C153.525 153.443 153.423 153.472 153.321 153.463C152.844 153.405 152.381 153.263 151.955 153.042ZM152.253 152.987C152.732 153.191 153.342 153.372 153.481 153.245C153.481 153.245 153.535 153.202 153.502 153.074C153.497 153.05 153.486 153.026 153.47 153.006C153.454 152.986 153.434 152.97 153.412 152.958C153.29 152.905 153.158 152.881 153.026 152.889C152.766 152.897 152.507 152.93 152.253 152.987ZM152.707 152.112C152.451 152.28 152.256 152.526 152.151 152.813C152.631 152.628 153.095 152.377 153.106 152.232C153.106 152.185 153.034 152.141 152.99 152.123C152.944 152.099 152.893 152.087 152.841 152.086C152.795 152.086 152.749 152.094 152.707 152.112Z" fill="#1C2D5E"/>
<path d="M151.653 113.026L151.381 100.461L157.611 98.6448C157.611 98.6448 157.12 92.88 156.394 90.0358C156.394 90.0358 146.277 87.5184 144.737 90.9475C144.737 90.9475 144.737 91.002 144.715 91.0202L144.69 91.0529C144.69 91.0529 138.471 95.6734 142.652 113.026H151.653Z" fill="#1C2D5E"/>
<path opacity="0.6" d="M151.653 113.026L151.381 100.461L157.611 98.6448C157.611 98.6448 157.12 92.88 156.394 90.0358C156.394 90.0358 146.277 87.5184 144.737 90.9475C144.737 90.9475 144.737 91.002 144.715 91.0202L144.69 91.0529C144.69 91.0529 138.471 95.6734 142.652 113.026H151.653Z" fill="white"/>
<path d="M144.628 89.2077V90.9222L156.252 90.025V87.998L144.628 89.2077Z" fill="#263238"/>
<path d="M148.568 88.484L147.988 88.5137L148.139 91.4739L148.72 91.4442L148.568 88.484Z" fill="#1C2D5E"/>
<path d="M153.644 88.4121L151.083 88.6416L151.257 90.5845L153.818 90.355L153.644 88.4121Z" fill="white"/>
<path d="M155.715 87.7023L155.135 87.7319L155.286 90.6922L155.866 90.6626L155.715 87.7023Z" fill="#1C2D5E"/>
<path opacity="0.6" d="M148.568 88.484L147.988 88.5137L148.139 91.4739L148.72 91.4442L148.568 88.484Z" fill="white"/>
<path opacity="0.6" d="M155.715 87.7023L155.135 87.7319L155.286 90.6922L155.866 90.6626L155.715 87.7023Z" fill="white"/>
<path d="M156.394 88.2015L144.679 89.215C144.403 84.856 144.127 82.0517 141.548 74.2926C141.323 73.6121 141.08 72.8856 140.821 72.1131C142.41 71.6076 144.033 71.2168 145.678 70.9435C147.416 70.6352 149.174 70.4494 150.938 70.3877C153.219 70.3877 155.834 70.6274 155.834 70.6274C155.834 70.6274 156.198 70.7146 156.441 73.1302C156.655 75.4187 156.862 79.9521 156.394 88.2015Z" fill="#263238"/>
<path opacity="0.2" d="M156.394 88.2018L144.683 89.2152C144.563 86.2263 144.124 83.2588 143.375 80.3628C143.073 79.1932 142.696 77.8782 142.216 76.3671C142.013 75.7205 141.791 75.0376 141.548 74.3074C141.304 73.5773 141.083 72.9053 140.821 72.1279C142.411 71.6209 144.035 71.2288 145.682 70.9546C147.42 70.6459 149.177 70.4602 150.941 70.3989C153.219 70.3807 155.838 70.6386 155.838 70.6386C155.838 70.6386 156.201 70.7294 156.445 73.1414C156.655 75.4154 156.866 79.9523 156.394 88.2018Z" fill="white"/>
<path d="M141.904 112.51L152.166 112.419L151.984 113.963L142.358 113.872L141.904 112.51Z" fill="#1C2D5E"/>
<path d="M144.868 102.649L138.856 101.414L142.852 89.7607L141.504 82.6845L140.72 78.4418L139.594 72.5353C139.594 72.5353 142.583 70.9625 144.646 70.8789C144.628 70.8789 147.865 82.6083 144.868 102.649Z" fill="#1C2D5E"/>
<path d="M152.22 69.9771C152.22 69.9771 154.436 78.8513 155.489 84.834C156.543 90.8167 157.179 100.53 157.179 100.53L159.231 99.5129L157.179 88.6372C157.179 88.6372 157.767 73.1809 156.252 70.3476L152.22 69.9771Z" fill="#1C2D5E"/>
<path d="M152.22 69.9771C152.22 69.9771 156.579 76.6536 157.262 85.2517L157.625 83.312C157.625 83.312 157.306 75.9852 153.361 69.8281L152.22 69.9771Z" fill="#263238"/>
<path opacity="0.1" d="M152.22 69.9771C152.22 69.9771 156.579 76.6536 157.262 85.2517L157.625 83.312C157.625 83.312 157.306 75.9852 153.361 69.8281L152.22 69.9771Z" fill="white"/>
<path d="M144.628 70.3403C144.628 70.3403 145.26 81.4195 142.347 87.0862L141.907 86.258C141.907 86.258 144.221 79.7594 142.928 70.8779L144.628 70.3403Z" fill="#263238"/>
<path opacity="0.1" d="M144.628 70.3403C144.628 70.3403 145.26 81.4195 142.347 87.0862L141.907 86.258C141.907 86.258 144.221 79.7594 142.928 70.8779L144.628 70.3403Z" fill="white"/>
<path d="M153.266 74.3328C153.266 74.3328 153.691 70.021 153.513 69.4289C153.335 68.8368 144.919 68.8586 143.575 69.9774C142.231 71.0962 145.442 75.3499 145.442 75.3499C145.442 75.3499 145.671 71.4595 145.78 71.2052C145.889 70.9509 150.353 70.4533 151.047 70.6494C151.741 70.8456 153.266 74.3328 153.266 74.3328Z" fill="#1C2D5E"/>
<path opacity="0.2" d="M153.266 74.3328C153.266 74.3328 153.691 70.021 153.513 69.4289C153.335 68.8368 144.919 68.8586 143.575 69.9774C142.231 71.0962 145.442 75.3499 145.442 75.3499C145.442 75.3499 145.671 71.4595 145.78 71.2052C145.889 70.9509 150.353 70.4533 151.047 70.6494C151.741 70.8456 153.266 74.3328 153.266 74.3328Z" fill="black"/>
<path d="M149.972 72.9924C147.066 72.6291 146.216 71.3868 146.216 71.3868C147.396 70.2753 147.182 68.6334 146.88 67.609C146.787 67.2843 146.665 66.9683 146.517 66.6646L149.993 67.3148C149.913 67.7952 149.868 68.2808 149.859 68.7678C149.846 69.1337 149.879 69.4998 149.957 69.8575C150.193 70.8964 150.785 70.9109 150.785 70.9109C151.403 72.0479 149.972 72.9924 149.972 72.9924Z" fill="#E4897B"/>
<path opacity="0.2" d="M149.866 68.7788C149.853 69.1447 149.886 69.5108 149.964 69.8685C148.584 69.6869 147.538 68.5826 146.88 67.6237C146.787 67.299 146.665 66.983 146.517 66.6792L149.993 67.3294C149.916 67.8088 149.873 68.2932 149.866 68.7788Z" fill="black"/>
<path d="M152.529 61.8332C152.529 61.8332 153.146 60.057 151.624 57.8375C150.102 55.618 146.902 55.1349 144.599 57.8375C144.599 57.8375 143.346 57.9138 142.59 60.0715C141.835 62.2292 142.743 66.2831 146.332 67.1113C149.921 67.9395 152.529 61.8332 152.529 61.8332Z" fill="#263238"/>
<path d="M147.621 58.1568C150.596 57.5937 151.853 59.0031 152.649 62.0254C153.644 65.8032 153.31 68.6838 149.438 68.5639C144.174 68.4113 142.677 59.0867 147.621 58.1568Z" fill="#E4897B"/>
<path d="M150.687 62.2256C151.006 62.6239 151.372 62.9824 151.777 63.2935C151.712 63.4332 151.61 63.5522 151.482 63.6375C151.354 63.7227 151.204 63.7709 151.051 63.7767L150.687 62.2256Z" fill="#DE5753"/>
<path d="M148.824 62.3231C148.875 62.5665 148.787 62.7917 148.624 62.828C148.46 62.8643 148.29 62.6936 148.235 62.4647C148.181 62.2359 148.275 61.9961 148.435 61.9598C148.595 61.9235 148.773 62.0797 148.824 62.3231Z" fill="#263238"/>
<path d="M148.37 61.9747L148.856 61.6514C148.856 61.6514 148.686 62.1527 148.37 61.9747Z" fill="#263238"/>
<path d="M151.835 61.6297C151.886 61.8731 151.795 62.0983 151.635 62.131C151.476 62.1637 151.301 61.9966 151.247 61.7677C151.192 61.5389 151.287 61.3028 151.446 61.2665C151.606 61.2301 151.784 61.3863 151.835 61.6297Z" fill="#263238"/>
<path d="M151.381 61.2772L151.868 60.9575C151.868 60.9575 151.697 61.4588 151.381 61.2772Z" fill="#263238"/>
<path d="M148.406 60.2788C148.165 60.2938 147.932 60.3638 147.723 60.4835C147.514 60.6032 147.335 60.7693 147.2 60.969" stroke="#263238" stroke-width="0.707962" stroke-linecap="round" stroke-linejoin="round"/>
<path d="M150.527 59.7447C150.721 59.6548 150.932 59.6098 151.145 59.6129C151.358 59.6161 151.568 59.6673 151.759 59.7628" stroke="#263238" stroke-width="0.707962" stroke-linecap="round" stroke-linejoin="round"/>
<path d="M145.315 63.7804C145.315 63.7804 146.241 61.0742 145.678 59.2289C145.678 59.2289 151.127 55.709 152.532 61.6336C152.532 61.6336 152.107 56.2175 146.975 57.0639C141.842 57.9103 143.262 65.3823 146.332 67.1114C146.332 67.1114 144.741 65.4695 145.315 63.7804Z" fill="#263238"/>
<path d="M145.918 64.3142C145.823 63.9761 145.598 63.6891 145.293 63.5157C144.987 63.3423 144.626 63.2963 144.287 63.3879C143.386 63.664 143.306 65.6364 145.682 65.6582C146.023 65.6582 146.146 65.295 145.918 64.3142Z" fill="#E4897B"/>
<path d="M152.642 64.0088C152.642 64.0088 152.209 64.165 152.22 64.4955C152.227 64.7317 153.016 64.8007 152.642 64.0088Z" fill="#263238"/>
<path d="M145.674 59.2288C145.674 59.2288 148.58 57.9502 150.941 60.2786C150.941 60.2786 149.583 57.8049 146.034 58.7058C146.034 58.7058 145.38 58.8547 145.674 59.2288Z" fill="#263238"/>
<path d="M145.674 59.229C145.983 59.7373 146.184 60.3039 146.264 60.8933C146.344 61.4827 146.301 62.0822 146.139 62.6545" stroke="#263238" stroke-width="0.5" stroke-linecap="round" stroke-linejoin="round"/>
<path d="M153.539 64.3072L152.631 63.9004L151.904 65.4914L152.812 65.8983C152.933 65.9516 153.042 66.03 153.131 66.1283C153.22 66.2266 153.287 66.3425 153.328 66.4686C153.369 66.5946 153.436 66.7105 153.525 66.8088C153.614 66.9071 153.723 66.9855 153.844 67.0389L161.109 70.3081C161.169 70.3353 161.234 70.3504 161.3 70.3523C161.366 70.3542 161.432 70.3431 161.494 70.3194C161.556 70.2958 161.612 70.2602 161.66 70.2146C161.708 70.169 161.747 70.1144 161.774 70.0539L162.584 68.2376C162.611 68.1773 162.626 68.1122 162.628 68.0461C162.63 67.9799 162.619 67.9141 162.595 67.8523C162.571 67.7905 162.536 67.734 162.49 67.686C162.444 67.6381 162.39 67.5996 162.329 67.5729L155.043 64.3036C154.922 64.2498 154.791 64.222 154.659 64.222C154.527 64.222 154.397 64.2498 154.276 64.3036C154.159 64.3526 154.034 64.3782 153.908 64.3788C153.781 64.3794 153.656 64.3551 153.539 64.3072Z" fill="#1C2D5E"/>
<path opacity="0.7" d="M157.364 65.3345L155.075 64.3102C154.955 64.2564 154.824 64.2286 154.692 64.2286C154.56 64.2286 154.429 64.2564 154.309 64.3102C154.187 64.3632 154.056 64.3905 153.924 64.3905C153.791 64.3905 153.66 64.3632 153.539 64.3102L152.631 63.9033L151.904 65.4944L152.812 65.9012C152.933 65.9546 153.042 66.033 153.131 66.1312C153.22 66.2295 153.287 66.3455 153.328 66.4715C153.369 66.5975 153.436 66.7135 153.525 66.8118C153.614 66.91 153.723 66.9884 153.844 67.0418L156.129 68.0662L157.364 65.3345Z" fill="white"/>
<path opacity="0.7" d="M159.002 69.3417L161.141 70.2971C161.202 70.3243 161.267 70.3393 161.333 70.3412C161.399 70.3432 161.465 70.332 161.527 70.3084C161.589 70.2847 161.645 70.2491 161.693 70.2035C161.741 70.1579 161.78 70.1033 161.806 70.0428L162.616 68.2265C162.67 68.1046 162.674 67.9663 162.626 67.8417C162.579 67.7172 162.484 67.6166 162.362 67.5618L160.222 66.6064L159.002 69.3417Z" fill="white"/>
<path opacity="0.2" d="M141.508 82.6836L140.719 78.4409L141.366 77.8052C141.366 77.8052 142.536 80.1881 141.508 82.6836Z" fill="black"/>
<path d="M140.051 82.6364L141.907 81.3723C141.907 81.3723 143.931 77.8052 144.628 77.8052C145.326 77.8052 145.718 81.0236 145.609 81.2597C145.5 81.4958 143.626 83.145 143.262 83.1232L141.05 85.0629L140.051 82.6364Z" fill="#E4897B"/>
<path d="M139.575 72.5347C137.988 72.64 131.885 85.8514 133.179 89.1461C134.472 92.4408 142.289 84.9542 142.289 84.9542L141.301 81.5941L138.856 82.9926C139.569 81.8865 140.354 80.8283 141.206 79.8251C141.206 79.8251 141.548 77.0789 141.206 75.0665C140.865 73.0541 139.575 72.5347 139.575 72.5347Z" fill="#1C2D5E"/>
<path opacity="0.1" d="M139.575 72.5347C137.988 72.64 131.885 85.8514 133.179 89.1461C134.472 92.4408 142.289 84.9542 142.289 84.9542L141.301 81.5941L138.856 82.9926C139.569 81.8865 140.354 80.8283 141.206 79.8251C141.206 79.8251 141.548 77.0789 141.206 75.0665C140.865 73.0541 139.575 72.5347 139.575 72.5347Z" fill="black"/>
<path d="M173.721 127.27L176.376 129.34L176.74 129.249L174.084 126.819L172.035 121.676C171.966 120.949 171.886 120.197 171.778 119.442C171.734 119.136 171.665 118.791 171.596 118.483C171.527 118.174 171.443 117.88 171.363 117.585C171.2 116.993 171.029 116.412 170.855 115.831C170.172 113.546 169.445 111.29 168.701 109.031L167.818 91.3877L165.599 91.5294L166.964 109.249V109.372L166.997 109.47C167.782 111.744 168.552 114.029 169.271 116.314C169.449 116.884 169.634 117.458 169.787 118.028C169.874 118.312 169.95 118.595 170.023 118.878C170.096 119.162 170.139 119.402 170.186 119.692C170.368 120.84 170.488 122.046 170.611 123.234C171.033 127.666 171.338 132.123 171.636 136.58L170.804 140.332L171.392 144.716L170.804 148.015L171.124 148.106L171.985 144.644L171.48 140.746L172.101 139.021L174.215 146.13L174.941 156.74L176.031 156.675L175.45 145.981V145.919L175.428 145.846L173.063 137.491C172.849 133.263 172.613 129.042 172.29 124.81L173.721 127.27Z" fill="#263238"/>
<path d="M171.233 86.4038L168.167 89.0991L166.154 88.6814C166.154 88.6814 163.281 90.9735 163.568 91.3113C163.855 91.6491 164.814 93.4327 165.486 93.4545C166.158 93.4763 168.951 91.769 168.951 91.769L172.584 89.2953L171.233 86.4038Z" fill="#E4897B"/>
<path d="M185.799 60.1621C184.175 61.4116 182.77 62.9214 181.64 64.6301C179.783 67.4453 177.473 77.4419 176.191 79.7704C174.909 82.0988 169.333 87.4531 169.333 87.4531L171.004 91.2709C171.004 91.2709 178.777 86.861 182.003 82.4693C185.229 78.0776 188.541 64.0779 188.541 64.0779L185.799 60.1621Z" fill="#FF5C8A"/>
<path opacity="0.6" d="M185.799 60.1621C184.175 61.4116 182.77 62.9214 181.64 64.6301C179.783 67.4453 177.473 77.4419 176.191 79.7704C174.909 82.0988 169.333 87.4531 169.333 87.4531L171.004 91.2709C171.004 91.2709 178.777 86.861 182.003 82.4693C185.229 78.0776 188.541 64.0779 188.541 64.0779L185.799 60.1621Z" fill="white"/>
<path d="M203.46 45.8868L199.406 45.0913C198.74 44.6632 198.002 44.3604 197.227 44.1977C195.774 43.8344 194.684 43.5148 194.263 43.9834C193.841 44.452 193.115 46.1375 193.511 46.3881C194.805 46.93 196.141 47.3637 197.507 47.6849C197.863 47.6897 198.218 47.6407 198.56 47.5396L202.966 48.7964L203.46 45.8868Z" fill="#E4897B"/>
<path d="M200.089 153.91L203.166 154.234L203.322 152.45L203.743 147.597L200.667 147.27L200.198 152.632L200.089 153.91Z" fill="#E4897B"/>
<path d="M184.727 153.521H187.71L187.735 152.846L187.739 152.762L187.891 148.436L187.895 148.349L187.957 146.688H184.971L184.727 153.521Z" fill="#E4897B"/>
<path opacity="0.2" d="M200.667 147.27L200.198 152.632L203.322 152.45L203.744 147.597L200.667 147.27Z" fill="black"/>
<path opacity="0.2" d="M184.746 153.14H184.749L187.735 152.763H187.739L187.895 148.589H187.891L184.902 148.825L184.749 153.01L184.746 153.14Z" fill="black"/>
<path d="M188.124 153.34H184.491C184.432 153.341 184.374 153.362 184.328 153.399C184.282 153.437 184.25 153.489 184.237 153.547L183.649 156.202C183.636 156.259 183.635 156.318 183.646 156.375C183.657 156.432 183.678 156.486 183.71 156.535C183.742 156.584 183.783 156.626 183.831 156.658C183.879 156.691 183.933 156.714 183.99 156.725C184.021 156.729 184.053 156.729 184.084 156.725C185.258 156.707 186.111 156.635 187.583 156.635C188.491 156.635 191.215 156.729 192.479 156.729C193.743 156.729 193.896 155.494 193.384 155.378C191.084 154.88 189.352 154.183 188.618 153.525C188.482 153.404 188.306 153.338 188.124 153.34Z" fill="#263238"/>
<path d="M203.493 153.245H199.86C199.801 153.246 199.743 153.267 199.697 153.305C199.651 153.342 199.619 153.394 199.606 153.452L199.025 156.108C199.001 156.222 199.024 156.342 199.088 156.44C199.152 156.538 199.252 156.606 199.366 156.631H199.461C200.634 156.631 201.488 156.54 202.962 156.54C203.867 156.54 206.595 156.635 207.855 156.635C209.116 156.635 209.272 155.399 208.76 155.283C206.461 154.782 204.731 154.088 203.994 153.427C203.856 153.305 203.677 153.24 203.493 153.245Z" fill="#263238"/>
<path d="M204.027 152.003H199.65C199.65 152.003 200.013 114.334 195.291 101.613C194.956 105.82 194.564 110.182 194.201 113.819C193.968 116.067 193.74 118.003 193.525 119.474C192.145 128.962 188.669 152.381 188.669 152.381H184.346C184.346 152.381 184.858 129.94 185.37 120.615C185.933 110.495 186.177 88.2458 186.202 86.3496H202.033C203.54 94.3193 207.405 126.198 204.027 152.003Z" fill="#263238"/>
<path d="M196.297 52.9017C196.257 53.047 196.217 53.1886 196.166 53.3267C195.885 54.1161 195.371 54.8014 194.691 55.2919C194.519 55.4164 194.338 55.5281 194.15 55.626C193.656 55.8889 193.109 56.038 192.55 56.0625C191.99 56.087 191.432 55.9863 190.917 55.7677C190.452 55.5706 190.033 55.2801 189.686 54.9141C188.189 53.4066 188.233 51.663 188.062 48.7134C188.011 48.0247 188.138 47.3346 188.429 46.7086C188.721 46.0827 189.167 45.5417 189.727 45.1372C190.287 44.7327 190.94 44.4781 191.626 44.3977C192.312 44.3172 193.007 44.4136 193.645 44.6777C196.526 45.8582 196.925 50.2463 196.297 52.9017Z" fill="#E4897B"/>
<path opacity="0.2" d="M194.68 55.2916C194.508 55.4161 194.328 55.5278 194.139 55.6258C193.645 55.8886 193.098 56.0377 192.539 56.0622C191.979 56.0867 191.422 55.986 190.906 55.7674C191.037 55.4129 191.215 55.0771 191.433 54.7685C192.543 54.6277 193.671 54.8093 194.68 55.2916Z" fill="black"/>
<path d="M188.741 59.12C190.194 60.4386 193.758 59.9519 193.758 59.9519C193.758 59.9519 195.977 59.3416 195.512 58.6478C194.201 58.4299 193.569 57.8196 193.307 57.0386C193.164 56.5535 193.118 56.0449 193.173 55.542C193.196 55.263 193.234 54.9853 193.285 54.7102L188.883 51.4409C189.46 53.6023 190.165 57.5581 188.741 59.12Z" fill="#E4897B"/>
<path d="M192.795 43.4025C192.795 43.4025 194.709 42.5997 196.042 43.8529C197.165 44.9136 196.435 46.5446 197.114 47.8995C197.793 49.2544 195.341 50.1408 195.341 50.1408C195.341 50.1408 194.691 51.5356 193.565 51.4485C193.565 51.4485 192.646 52.5636 192.795 53.7115C192.944 54.8594 191.288 55.7748 189.035 55.7457C186.783 55.7166 187.684 54.2927 187.684 54.2927C187.032 53.54 186.505 52.6877 186.122 51.7681C185.666 50.6496 185.448 49.4483 185.483 48.241C185.462 47.614 185.566 46.9891 185.789 46.4028C186.013 45.8165 186.351 45.2806 186.783 44.8264C188.305 43.1373 191.869 42.3018 192.795 43.4025Z" fill="#263238"/>
<path d="M193.002 50.4273C193.059 50.7046 193.177 50.9658 193.346 51.1925C193.516 51.4191 193.733 51.6056 193.983 51.7387C194.586 51.9929 194.982 51.1466 194.895 50.2602C194.811 49.472 194.404 48.3677 193.761 48.513C193.118 48.6583 192.791 49.6354 193.002 50.4273Z" fill="#E4897B"/>
<path d="M196.547 43.8019C197.434 44.8916 194.698 52.4981 190.605 53.2173C186.511 53.9366 185.156 54.2235 185.762 51.1323C185.762 51.1323 184.509 48.4733 185.476 45.6835C185.476 45.6835 185.003 45.6109 185.112 44.6773C185.221 43.7437 188.672 41.2264 190.899 41.0121C193.126 40.7978 195.57 43.5004 195.57 43.5004C195.57 43.5004 196.024 43.1553 196.547 43.8019Z" fill="#1C2D5E"/>
<path opacity="0.2" d="M195.276 101.595C194.942 105.801 194.55 110.175 194.186 113.811C193.649 108.562 192.988 104.817 192.988 104.817C192.988 104.817 192.366 104.309 190.666 101.595C188.966 98.8816 190.666 93.8179 190.666 93.8179C190.626 98.522 195.276 101.595 195.276 101.595Z" fill="black"/>
<path d="M204.517 150.768L204.303 152.003H199.134V150.863L204.517 150.768Z" fill="#FF5C8A"/>
<path d="M189.163 151.244L188.669 152.381H184.331L184.048 151.244H189.163Z" fill="#FF5C8A"/>
<path d="M186.057 88.9426V91.2711L202.647 90.1087V88.0454L186.057 88.9426Z" fill="#FF5C8A"/>
<path opacity="0.2" d="M186.057 88.9426V91.2711L202.647 90.1087V88.0454L186.057 88.9426Z" fill="white"/>
<path d="M203.457 87.0213C203.472 87.2302 203.446 87.4401 203.379 87.6386C203.312 87.8372 203.206 88.0203 203.068 88.1771C202.929 88.3339 202.76 88.4613 202.571 88.5516C202.382 88.642 202.177 88.6935 201.967 88.7031L186.398 89.4623C186.28 89.4687 186.161 89.4509 186.049 89.4101C185.937 89.3692 185.835 89.3062 185.749 89.2247C185.662 89.1432 185.593 89.0449 185.545 88.9359C185.498 88.8269 185.473 88.7094 185.472 88.5905C185.374 79.1133 182.13 61.8771 184.346 60.1625C186.638 58.3899 197.881 57.46 197.881 57.46C198.408 58.6997 198.869 59.9668 199.261 61.2559C199.308 61.4194 199.363 61.5829 199.406 61.75C200.053 63.8822 200.594 66.1852 201.063 68.5137C201.095 68.6699 201.128 68.8297 201.157 68.9859C202.264 74.9494 203.032 80.9709 203.457 87.0213Z" fill="#FF5C8A"/>
<path opacity="0.6" d="M203.457 87.0213C203.472 87.2302 203.446 87.4401 203.379 87.6386C203.312 87.8372 203.206 88.0203 203.068 88.1771C202.929 88.3339 202.76 88.4613 202.571 88.5516C202.382 88.642 202.177 88.6935 201.967 88.7031L186.398 89.4623C186.28 89.4687 186.161 89.4509 186.049 89.4101C185.937 89.3692 185.835 89.3062 185.749 89.2247C185.662 89.1432 185.593 89.0449 185.545 88.9359C185.498 88.8269 185.473 88.7094 185.472 88.5905C185.374 79.1133 182.13 61.8771 184.346 60.1625C186.638 58.3899 197.881 57.46 197.881 57.46C198.338 58.5207 198.76 59.6758 199.148 60.8963C199.185 61.0162 199.225 61.1361 199.261 61.2596C199.297 61.3831 199.363 61.5865 199.406 61.7536C200.009 63.7369 200.518 65.8692 200.965 68.0342L201.063 68.5173C201.095 68.6735 201.128 68.8333 201.157 68.9895C202.264 74.9519 203.031 80.9721 203.457 87.0213Z" fill="white"/>
<path d="M179.853 66.9803C179.853 66.9803 178.211 61.5752 180.619 58.8762C183.027 56.1773 191.473 56.6568 192.392 56.8493C195.222 57.4377 196.224 62.0728 197.234 67.0203C198.244 71.9678 199.395 88.8989 197.67 89.9741C195.945 91.0493 184.259 92.3352 182.246 91.26C180.234 90.1848 179.853 66.9803 179.853 66.9803Z" fill="#263238"/>
<path d="M178.32 66.8099C178.32 66.8099 176.681 61.2994 179.086 58.5169C181.491 55.7344 189.944 56.2465 190.859 56.4427C193.689 57.0457 193.899 60.6455 194.68 69.2727C196.064 84.5873 197.299 89.5057 195.578 90.6028C193.856 91.6998 182.726 92.7823 180.713 91.6707C178.701 90.5592 178.32 66.8099 178.32 66.8099Z" fill="#FF5C8A"/>
<path d="M193.921 59.2512C193.921 59.2512 194.524 56.8865 197.881 57.4604C197.881 57.4604 195.81 57.435 195.901 64.2714C195.992 71.1077 198.476 80.189 198.476 80.189C198.476 80.189 201.491 80.051 202.258 75.7283L202.621 77.0396C202.621 77.0396 202.149 83.3493 197.619 84.5988C197.644 84.5879 195.588 62.7711 193.921 59.2512Z" fill="#263238"/>
<path opacity="0.2" d="M200.965 68.0312C197.027 64.5549 198.375 60.6245 198.375 60.6245L199.148 60.8969C199.185 61.0168 199.225 61.1367 199.261 61.2602C199.297 61.3837 199.363 61.5871 199.406 61.7542C200.009 63.7339 200.518 65.8662 200.965 68.0312Z" fill="black"/>
<path d="M215.68 52.2183C214.921 47.1546 203.693 45.4365 201.019 45.0986C200.574 46.4558 200.427 47.8933 200.59 49.3123C200.59 49.3123 208.713 51.55 208.782 52.1239C208.851 52.6978 199.228 56.5083 197.884 57.4455C197.884 57.4455 197.238 58.8767 198.287 61.681C199.163 64.0131 200.209 64.656 200.209 64.656C200.209 64.656 216.544 57.9577 215.68 52.2183Z" fill="#FF5C8A"/>
<path opacity="0.6" d="M215.68 52.2183C214.921 47.1546 203.693 45.4365 201.019 45.0986C200.574 46.4558 200.427 47.8933 200.59 49.3123C200.59 49.3123 208.713 51.55 208.782 52.1239C208.851 52.6978 199.228 56.5083 197.884 57.4455C197.884 57.4455 197.238 58.8767 198.287 61.681C199.163 64.0131 200.209 64.656 200.209 64.656C200.209 64.656 216.544 57.9577 215.68 52.2183Z" fill="white"/>
</g>
<defs>
<clipPath id="clip0_3807_53668">
<rect width="360" height="311" fill="white" transform="translate(0.5)"/>
</clipPath>
</defs>
</svg>
