<svg width="360" height="311" viewBox="0 0 360 311" fill="none" xmlns="http://www.w3.org/2000/svg">
<g clip-path="url(#clip0_3807_53863)">
<path d="M351 104.677L-3.5 136.677L-10 146.177V202.677L351 193.438V104.677Z" fill="#2D3E6F"/>
<path d="M120 160.27V162.513H360V17.6768H343.869L316.158 44.0376H289.728L260.093 72.2247V83.569H247.905L214.178 115.647H191.772L163.863 142.196H143.926L120 160.27Z" fill="#1C2D5E"/>
<path opacity="0.2" d="M120 160.27V162.513H360V17.6768H343.869L316.158 44.0376H289.728L260.093 72.2247V83.569H247.905L214.178 115.647H191.772L163.863 142.196H143.926L120 160.27Z" fill="#7182B4"/>
<path d="M128.01 162.477H351.879V19.8843L324.168 46.2352H297.738L268.103 74.4223V85.7765H255.915L222.187 117.854H199.782L171.879 144.404H151.936L128.01 162.477Z" fill="#1C2D5E"/>
<path d="M351 110.677L-10 142.829V236.677L351 213.177V110.677Z" fill="#1C2D5E"/>
<path d="M-10 190.734C-10 185.52 -5.99292 181.181 -0.794775 180.766L349.205 152.861C355.023 152.397 360 156.993 360 162.829V400H-10V190.734Z" fill="#1C2D5E"/>
<path d="M214.403 107.063L216.07 110.21L222.775 106.503L221.115 103.358L214.403 107.063Z" fill="#B55B52"/>
<path opacity="0.2" d="M221.115 103.358L222.775 106.503L219.312 108.415L217.652 105.265L221.115 103.358Z" fill="black"/>
<path d="M217.144 109.589L214.219 106.768C214.172 106.719 214.11 106.688 214.042 106.68C213.975 106.672 213.907 106.688 213.85 106.725L211.396 108.417C211.342 108.458 211.297 108.51 211.263 108.569C211.229 108.628 211.207 108.693 211.199 108.76C211.19 108.828 211.196 108.896 211.214 108.962C211.233 109.027 211.264 109.089 211.307 109.142C211.326 109.171 211.35 109.196 211.379 109.216C212.405 110.172 212.975 110.632 214.248 111.856C215.029 112.606 218.42 115.429 219.806 115.8C221.191 116.171 221.621 114.887 221.094 114.562C218.424 112.896 217.579 111.289 217.428 110.132C217.394 109.925 217.294 109.735 217.144 109.589V109.589Z" fill="#263238"/>
<path d="M217.614 110.838C217.774 111.016 217.985 111.139 218.219 111.19C218.296 111.197 218.374 111.183 218.444 111.151C218.514 111.118 218.574 111.067 218.619 111.003C218.65 110.969 218.673 110.928 218.685 110.883C218.697 110.838 218.698 110.791 218.688 110.745C218.522 110.333 217.258 110.012 217.113 109.98C217.099 109.976 217.084 109.976 217.071 109.981C217.057 109.987 217.046 109.996 217.038 110.009C217.026 110.021 217.018 110.035 217.014 110.051C217.009 110.067 217.009 110.084 217.014 110.1C217.188 110.366 217.389 110.613 217.614 110.838ZM218.448 110.7C218.477 110.725 218.5 110.756 218.516 110.791C218.523 110.809 218.524 110.829 218.519 110.847C218.514 110.866 218.503 110.882 218.488 110.894C218.46 110.939 218.42 110.974 218.373 110.998C218.325 111.021 218.272 111.03 218.22 111.025C217.811 110.859 217.475 110.551 217.274 110.158C217.695 110.265 218.093 110.449 218.448 110.7V110.7Z" fill="#1C2D5E"/>
<path d="M217.005 110.11L217.045 110.121C217.434 110.226 218.431 110.192 218.622 109.869C218.652 109.813 218.662 109.749 218.651 109.687C218.639 109.625 218.607 109.569 218.56 109.527C218.52 109.479 218.471 109.438 218.416 109.409C218.361 109.379 218.3 109.361 218.238 109.355C217.726 109.297 217.035 109.953 217.005 109.994C216.99 110.01 216.981 110.03 216.981 110.052C216.981 110.074 216.989 110.095 217.005 110.11V110.11ZM218.441 109.606L218.475 109.615C218.544 109.701 218.52 109.744 218.51 109.759C218.398 109.95 217.705 110.04 217.273 109.98C217.486 109.804 217.938 109.465 218.26 109.502C218.33 109.508 218.396 109.539 218.445 109.588L218.441 109.606Z" fill="#1C2D5E"/>
<path d="M174.283 102.209L175.428 105.584L182.64 102.988L181.495 99.6137L174.283 102.209Z" fill="#B55B52"/>
<path d="M175.97 105.533L174.838 101.628C174.822 101.563 174.784 101.505 174.73 101.464C174.675 101.424 174.609 101.404 174.541 101.407L171.567 101.654C171.432 101.673 171.31 101.745 171.228 101.854C171.146 101.963 171.11 102.1 171.129 102.236C171.134 102.272 171.143 102.307 171.156 102.341C171.571 103.679 171.841 104.365 172.333 106.055C172.637 107.094 174.174 111.23 175.187 112.256C176.201 113.282 177.214 112.364 176.92 111.812C175.429 109.039 175.497 107.228 175.945 106.152C176.024 105.954 176.032 105.736 175.97 105.533Z" fill="#263238"/>
<path opacity="0.2" d="M181.495 99.6137L182.64 102.988L178.92 104.323L177.775 100.948L181.495 99.6137Z" fill="black"/>
<path d="M175.759 106.844C175.809 107.08 175.932 107.294 176.111 107.454C176.175 107.498 176.248 107.525 176.325 107.532C176.402 107.538 176.479 107.525 176.549 107.492C176.593 107.476 176.632 107.45 176.663 107.415C176.694 107.381 176.715 107.339 176.725 107.293C176.789 106.85 175.859 105.945 175.745 105.847C175.735 105.835 175.722 105.827 175.708 105.823C175.694 105.819 175.678 105.82 175.664 105.825C175.653 105.837 175.644 105.852 175.64 105.868C175.636 105.884 175.636 105.901 175.64 105.917C175.648 106.229 175.688 106.54 175.759 106.844ZM176.557 107.144C176.566 107.181 176.569 107.219 176.563 107.256C176.561 107.274 176.554 107.291 176.542 107.306C176.531 107.32 176.516 107.331 176.499 107.337C176.451 107.361 176.398 107.372 176.345 107.367C176.292 107.363 176.241 107.344 176.199 107.312C175.923 106.974 175.776 106.55 175.783 106.115C176.102 106.408 176.364 106.757 176.557 107.144Z" fill="#1C2D5E"/>
<path d="M175.611 105.934L175.645 105.943C175.922 106.238 176.811 106.697 177.138 106.509C177.191 106.476 177.232 106.426 177.253 106.367C177.274 106.308 177.275 106.244 177.255 106.184C177.242 106.12 177.215 106.059 177.176 106.005C177.138 105.952 177.089 105.907 177.032 105.873C176.622 105.573 175.692 105.79 175.643 105.813C175.628 105.817 175.615 105.825 175.605 105.837C175.595 105.849 175.59 105.863 175.589 105.879C175.587 105.889 175.589 105.899 175.592 105.909C175.596 105.919 175.603 105.927 175.611 105.934V105.934ZM177.078 106.204L177.071 106.233C177.09 106.342 177.035 106.364 177.031 106.382C176.842 106.491 176.19 106.224 175.845 105.953C176.209 105.861 176.593 105.887 176.942 106.027C177.001 106.068 177.043 106.129 177.061 106.2L177.078 106.204Z" fill="#1C2D5E"/>
<path d="M179.516 99.9486L179.728 100.619L179.909 101.183L180.986 104.423C180.986 104.423 199.968 99.0233 202.36 97.9278C204.751 96.8324 220.279 80.353 220.279 80.353C220.436 80.4505 226.815 84.5586 231.337 87.9483C233.959 89.9087 235.949 91.6385 235.774 92.156C235.272 93.6412 218.601 104.587 218.601 104.587L221.4 107.674C221.4 107.674 246.125 99.2305 247.254 92.5446C248.383 85.8587 229.35 72.5802 229.35 72.5802L231.568 62.7442L219.362 61.1487L218.723 61.0632L217.691 60.928C210.774 69.6398 200.077 89.0886 198.982 90.6357C197.886 92.1828 179.516 99.9486 179.516 99.9486Z" fill="#FF5C8A"/>
<path d="M179.733 100.602L179.913 101.166C185.104 99.1943 199.83 93.4458 200.893 91.2642C201.956 89.0826 217.116 64.768 219.356 61.1714C219.533 60.8998 219.622 60.7518 219.634 60.7305L219.106 60.4111L218.688 61.0782C215.957 65.4514 201.459 88.7407 200.333 90.9975C199.565 92.6263 188.14 97.4124 179.733 100.602Z" fill="white"/>
<path d="M264.653 50.9636L270.14 50.4766C270.286 50.0321 270.543 49.6322 270.887 49.3146C271.386 48.9392 276.305 48.2384 276.116 48.875C275.927 49.5115 275.869 51.263 274.591 51.9085C273.314 52.5541 270.257 53.2013 269.933 52.3477L265.114 53.6395L264.653 50.9636Z" fill="#B55B52"/>
<path d="M241.993 56.0092C241.993 56.0092 245.236 56.1787 248.594 56.3301L253.186 56.5296C257.137 56.6679 266.587 55.0342 267.171 54.0248C267.754 53.0154 267.36 50.48 265.826 50.2041C264.293 49.9281 254.558 50.4674 254.558 50.4674L246.027 48.304L244.109 51.9807L241.993 56.0092Z" fill="#1C2D5E"/>
<path d="M251.452 50.727C252.369 51.0249 253.302 51.2747 254.245 51.4755C254.485 51.4968 255.275 51.4569 256.768 51.3785C259.95 51.2063 265.868 50.8962 267.427 51.3508L267.58 50.7783C265.924 50.2976 260.161 50.6003 256.725 50.784C255.525 50.8429 254.492 50.8974 254.281 50.8838C253.681 50.8335 248.692 49.3249 245.476 48.322L245.322 48.8944C245.843 49.034 249.021 50.0205 251.452 50.727Z" fill="white"/>
<path d="M268.426 50.2561L266.479 50.495L267.255 53.8016L268.525 53.3687L268.426 50.2561Z" fill="#1C2D5E"/>
<path opacity="0.2" d="M268.426 50.2561L266.479 50.495L267.255 53.8016L268.525 53.3687L268.426 50.2561Z" fill="black"/>
<path opacity="0.2" d="M241.993 56.0093C241.993 56.0093 245.236 56.1789 248.594 56.3302C248.464 54.2522 245.565 52.6595 244.109 51.9809L241.993 56.0093Z" fill="black"/>
<path d="M217.257 58.2898C217.142 58.6004 217.136 58.9411 217.24 59.2556C217.344 59.5702 217.552 59.8399 217.83 60.0202C217.94 60.0928 218.059 60.1495 218.184 60.1886L218.384 60.2423L231.153 64.3141C231.462 64.4139 231.796 64.4073 232.1 64.2955C232.405 64.1836 232.663 63.9729 232.834 63.6969C233.167 63.1582 233.535 62.6419 233.936 62.1514C235.765 59.9611 237.992 58.1368 240.499 56.7746C241.225 56.3555 242.031 55.9579 242.894 55.5756C243.618 55.2685 244.268 54.811 244.801 54.2336C245.335 53.6562 245.739 52.972 245.988 52.2264C246.319 51.2309 246.393 50.1679 246.203 49.1363C246.156 48.9028 246.098 48.6719 246.026 48.4447L245.982 48.3103C245.982 48.3103 235.583 43.6156 228.906 44.1459C223.609 47.4916 219.526 52.4495 217.257 58.2898V58.2898Z" fill="#1C2D5E"/>
<path d="M217.83 60.02C217.75 60.292 217.707 60.5738 217.704 60.8574L218.322 60.8391C218.315 60.6386 218.344 60.4385 218.407 60.2482C219.33 56.6914 227.938 45.6532 229.072 45.3129C233.024 44.5312 243.567 48.1415 246.255 49.1011C246.209 48.8675 246.15 48.6366 246.078 48.4095C242.85 47.2684 232.942 43.9448 228.947 44.7272C227.703 44.9952 218.977 55.8789 217.83 60.02Z" fill="white"/>
<path d="M231.797 64.1306L217.368 59.522L216.219 61.5455L231.105 66.3013L231.797 64.1306Z" fill="#1C2D5E"/>
<path opacity="0.2" d="M231.797 64.1306L217.368 59.522L216.219 61.5455L231.105 66.3013L231.797 64.1306Z" fill="black"/>
<path d="M242.32 46.3844C242.131 45.5791 237.584 43.1766 236.879 43.4968C236.173 43.817 235.803 45.3806 235.803 45.3806C235.803 45.3806 238.554 48.8541 240.089 48.6887C241.624 48.5234 242.32 46.3844 242.32 46.3844Z" fill="#1C2D5E"/>
<path opacity="0.4" d="M242.32 46.3844C242.131 45.5791 237.584 43.1766 236.879 43.4968C236.173 43.817 235.803 45.3806 235.803 45.3806C235.803 45.3806 238.554 48.8541 240.089 48.6887C241.624 48.5234 242.32 46.3844 242.32 46.3844Z" fill="black"/>
<path d="M235.897 45.0741C235.618 46.5516 236.458 48.4087 239.155 49.3583C240.835 49.9558 241.409 49.3488 241.465 48.8667C240.757 48.0267 241.22 48.1078 241.242 47.4081C241.321 46.3125 242.16 45.4023 243.106 44.6189L243.115 44.5846L242.247 40.953L241.69 38.4538C240.639 40.7736 238.305 44.7682 235.897 45.0741Z" fill="#B55B52"/>
<path opacity="0.2" d="M240.997 40.6303C240.481 41.6962 240.236 42.8727 240.283 44.0559C240.329 45.2391 240.667 46.3925 241.265 47.4144C241.344 46.3189 242.183 45.4086 243.129 44.6252C243.129 44.6252 243.138 44.5909 243.14 44.5852L242.272 40.9536C241.969 41.2591 241.212 40.24 240.997 40.6303Z" fill="black"/>
<path d="M242.32 46.3844C242.066 46.7119 241.716 46.9519 241.319 47.071C240.922 47.1901 240.498 47.1823 240.105 47.0487C238.692 46.5965 236.879 43.4968 236.879 43.4968L234.483 44.585C234.483 44.585 236.552 49.5018 238.927 50.0708C241.303 50.6398 242.723 48.3391 242.723 48.3391L242.32 46.3844Z" fill="#1C2D5E"/>
<path opacity="0.2" d="M242.32 46.3844C242.066 46.7119 241.716 46.9519 241.319 47.071C240.922 47.1901 240.498 47.1823 240.105 47.0487C238.692 46.5965 236.879 43.4968 236.879 43.4968L234.483 44.585C234.483 44.585 236.552 49.5018 238.927 50.0708C241.303 50.6398 242.723 48.3391 242.723 48.3391L242.32 46.3844Z" fill="black"/>
<path d="M227.937 65.3484L229.025 63.4188C229.595 63.1738 230.046 62.7154 230.281 62.1417C230.723 61.3643 231.454 60.0569 234.094 57.7825C238.536 53.9355 239.161 50.5504 239.214 50.1229L240.378 47.1523L239.823 46.936L238.639 49.981L238.629 50.0153C238.62 50.0497 238.163 53.4735 233.697 57.3388C230.99 59.681 230.221 61.0395 229.763 61.8556C229.672 62.096 229.53 62.3143 229.348 62.4961C229.166 62.6779 228.948 62.8191 228.707 62.9102L228.606 62.9445L227.42 65.0809L227.937 65.3484Z" fill="#263238"/>
<path opacity="0.2" d="M227.325 57.5824C228.473 59.4116 231.73 61.1555 233.929 62.1744C235.758 59.9753 237.988 58.1431 240.499 56.7747C238.095 55.7869 234.608 54.374 234.608 54.374C234.051 51.0956 233.181 47.9298 231.699 46.6614C230.32 45.4881 227.375 46.8833 226.686 48.6558C225.996 50.4282 225.53 54.7331 227.325 57.5824Z" fill="black"/>
<path d="M249.812 34.6605C250.025 34.4149 250.185 34.1281 250.283 33.8179C250.38 33.5077 250.413 33.1808 250.379 32.8574C250.345 32.534 250.244 32.2211 250.084 31.9382C249.924 31.6553 249.707 31.4084 249.447 31.2128C247.563 29.5423 241.356 29.3516 239.356 31.1839C237.355 33.0163 235.671 33.0497 235.671 33.0497C235.694 33.3577 235.821 33.6488 236.032 33.8747C236.242 34.1007 236.524 34.2481 236.829 34.2926C236.461 34.2947 236.103 34.4133 235.807 34.6314C235.51 34.8496 235.29 35.1561 235.179 35.5069C235.594 35.7706 235.971 36.0904 236.298 36.4573C236.5 36.8057 235.838 38.1746 236.599 38.2435C237.36 38.3124 237.233 38.1679 237.465 39.089C237.696 40.0101 239.064 42.119 239.939 41.6478C240.814 41.1766 249.909 37.1592 249.909 37.1592C249.909 37.1592 251.07 34.8197 249.812 34.6605Z" fill="#263238"/>
<path d="M240.588 36.9561C240.262 39.9365 239.927 41.8285 240.831 43.6047C240.955 43.8479 241.098 44.081 241.258 44.302C243.364 47.3203 247.758 46.4915 249.139 43.2845C249.383 42.6992 249.578 42.0947 249.721 41.4772C250.393 38.6262 250.19 34.9886 247.7 33.4502C247.183 33.125 246.608 32.9049 246.007 32.8024C245.405 32.6999 244.789 32.7171 244.194 32.8529C243.599 32.9887 243.037 33.2405 242.54 33.5939C242.042 33.9473 241.619 34.3953 241.295 34.9123C240.905 35.53 240.663 36.2295 240.588 36.9561Z" fill="#B55B52"/>
<path d="M245.512 38.7541C245.44 39.0232 245.575 39.2741 245.751 39.303C245.928 39.3318 246.115 39.1366 246.164 38.8614C246.213 38.5862 246.099 38.3471 245.923 38.3182C245.747 38.2894 245.561 38.4789 245.512 38.7541Z" fill="#263238"/>
<path d="M248.598 39.2803C248.528 39.5437 248.661 39.8004 248.838 39.8292C249.014 39.858 249.197 39.6555 249.245 39.3861C249.293 39.1166 249.182 38.8661 249.005 38.8372C248.829 38.8084 248.643 39.0223 248.598 39.2803Z" fill="#263238"/>
<path d="M247.596 39.2447C247.779 40.1351 248.085 40.9957 248.506 41.8017C248.295 41.9027 248.064 41.957 247.83 41.961C247.596 41.965 247.364 41.9186 247.15 41.8249L247.596 39.2447Z" fill="#D4827D"/>
<path d="M244.643 37.3005C244.666 37.32 244.693 37.3342 244.721 37.3419C244.75 37.3496 244.78 37.3507 244.809 37.3449C244.998 37.2686 245.201 37.2375 245.403 37.2544C245.605 37.2713 245.801 37.3356 245.974 37.4422C246.008 37.4678 246.052 37.479 246.094 37.4733C246.137 37.4676 246.176 37.4454 246.203 37.4115C246.228 37.3776 246.239 37.335 246.233 37.2932C246.227 37.2513 246.204 37.2136 246.171 37.1881V37.1881C245.954 37.048 245.707 36.9618 245.45 36.9368C245.193 36.9117 244.934 36.9485 244.694 37.044C244.674 37.0509 244.655 37.0618 244.639 37.076C244.623 37.0902 244.61 37.1074 244.601 37.1267C244.592 37.1459 244.587 37.1668 244.586 37.1882C244.585 37.2095 244.588 37.2308 244.595 37.2508C244.608 37.2705 244.624 37.2875 244.643 37.3005V37.3005Z" fill="#263238"/>
<path d="M246.072 43.052C245.699 42.909 245.365 42.6791 245.098 42.3814C244.831 42.0836 244.639 41.7266 244.537 41.3399C244.534 41.3169 244.54 41.2937 244.553 41.2746C244.566 41.2555 244.585 41.2418 244.608 41.2361C244.619 41.2337 244.63 41.2334 244.64 41.2353C244.651 41.2371 244.662 41.2412 244.671 41.2471C244.68 41.253 244.688 41.2607 244.694 41.2697C244.701 41.2787 244.705 41.2889 244.707 41.2996V41.2996C244.8 41.6589 244.977 41.9913 245.222 42.2701C245.467 42.5489 245.774 42.7662 246.118 42.9047C246.129 42.9074 246.139 42.9125 246.148 42.9196C246.156 42.9267 246.163 42.9356 246.168 42.9457C246.173 42.9557 246.176 42.9668 246.176 42.9779C246.176 42.9891 246.174 43.0002 246.169 43.0105V43.0105C246.166 43.0208 246.16 43.0304 246.153 43.0385C246.146 43.0467 246.137 43.0534 246.127 43.0582C246.117 43.063 246.107 43.0657 246.096 43.0664C246.085 43.067 246.074 43.0655 246.064 43.0619L246.072 43.052Z" fill="#263238"/>
<path d="M250.25 37.7167C250.28 37.7051 250.306 37.6838 250.322 37.6561C250.33 37.6369 250.335 37.6163 250.335 37.5953C250.336 37.5743 250.332 37.5535 250.324 37.5341C250.316 37.5147 250.304 37.4972 250.289 37.4826C250.274 37.468 250.256 37.4565 250.236 37.4491V37.4491C249.998 37.3493 249.739 37.3081 249.482 37.3288C249.224 37.3494 248.976 37.4314 248.756 37.5679C248.72 37.5892 248.693 37.624 248.682 37.6647C248.672 37.7054 248.677 37.7488 248.698 37.7855V37.7855C248.719 37.8219 248.754 37.8484 248.795 37.8594C248.836 37.8703 248.879 37.8647 248.916 37.8438V37.8438C249.092 37.7403 249.29 37.6798 249.493 37.6673C249.697 37.6547 249.901 37.6904 250.088 37.7715C250.118 37.7767 250.148 37.7744 250.176 37.7648C250.205 37.7553 250.23 37.7387 250.25 37.7167V37.7167Z" fill="#263238"/>
<path d="M249.332 35.0531C249.069 34.9393 248.782 34.8883 248.496 34.9042C248.21 34.9201 247.931 35.0024 247.682 35.1447C246.676 34.8048 245.643 34.5545 244.593 34.3969C244.232 34.399 243.879 34.5022 243.574 34.6947C243.268 34.8872 243.023 35.1615 242.866 35.4863C242.718 35.7167 243.083 36.3238 243.083 36.3238C243.083 36.3238 242.235 39.3299 241.993 40.161L240.201 42.1349C239.35 39.6313 239.221 36.9391 239.828 34.3657C240.836 30.0339 249.301 32.3083 249.301 32.3083L249.332 35.0531Z" fill="#263238"/>
<path d="M238.453 40.3909C238.614 40.7829 238.852 41.139 239.152 41.4384C239.452 41.7379 239.808 41.9748 240.2 42.1353C241.251 42.5642 241.901 41.6522 241.719 40.591C241.546 39.6552 240.8 38.2711 239.693 38.3057C239.451 38.3137 239.216 38.3823 239.008 38.5052C238.8 38.6281 238.626 38.8014 238.502 39.0091C238.379 39.2168 238.31 39.4522 238.301 39.6937C238.292 39.9352 238.345 40.1749 238.453 40.3909V40.3909Z" fill="#B55B52"/>
<path d="M241.714 60.3701L247.158 62.516C247.158 62.516 250.971 61.3596 251.72 61.5174C252.469 61.6752 251.497 65.053 250.457 65.474C249.418 65.8949 247.269 65.4419 246.971 65.3434C246.672 65.245 246.341 64.4875 246.341 64.4875L240.79 62.3068L241.714 60.3701Z" fill="#B55B52"/>
<path d="M230.083 58.3703C231.423 59.3 241.583 64.2681 242.383 63.5987L242.595 63.4226L242.833 63.198C243.617 62.4507 244.513 61.2798 243.765 60.2264C242.878 58.9579 234.397 55.5749 234.011 54.68C233.625 53.7851 232.558 43.6825 228.933 44.116C228.86 44.1261 228.79 44.1442 228.722 44.17C228.435 44.2526 228.187 44.4338 228.02 44.6815C226.12 47.24 228.885 57.5523 230.083 58.3703Z" fill="#1C2D5E"/>
<path d="M228.02 44.6816C227.929 45.6653 227.923 46.655 228.001 47.6398C228.228 51.1182 229.242 56.5622 230.786 57.8532C232.764 59.4937 241.398 62.9238 242.624 63.4059L242.762 63.4427L242.866 63.1699L242.975 62.8986C242.872 62.871 233.178 59.0464 231.163 57.3837C229.958 56.3859 228.876 51.5187 228.615 47.5897C228.482 46.4481 228.527 45.2927 228.748 44.1648C228.451 44.2432 228.192 44.4269 228.02 44.6816V44.6816Z" fill="white"/>
<path d="M245.508 61.2765L243.878 60.5145L242.139 63.5459L244.08 64.3174L245.508 61.2765Z" fill="#1C2D5E"/>
<path opacity="0.2" d="M245.508 61.2765L243.878 60.5145L242.139 63.5459L244.08 64.3174L245.508 61.2765Z" fill="black"/>
<path d="M180.247 104.98L178.625 99.6549L180.069 99.189L181.846 104.69L180.247 104.98Z" fill="#1C2D5E"/>
<path opacity="0.2" d="M180.247 104.98L178.625 99.6549L180.069 99.189L181.846 104.69L180.247 104.98Z" fill="black"/>
<path d="M221.061 108.78L218.036 104.11L219.293 103.263L222.518 108.06L221.061 108.78Z" fill="#1C2D5E"/>
<path opacity="0.2" d="M221.061 108.78L218.036 104.11L219.293 103.263L222.518 108.06L221.061 108.78Z" fill="black"/>
<path opacity="0.2" d="M220.289 80.337C220.447 80.4345 226.825 84.5426 231.347 87.9323C232.323 82.2976 225.141 76.747 225.141 76.747L220.289 80.337Z" fill="black"/>
<path fill-rule="evenodd" clip-rule="evenodd" d="M21.7691 256.414C21.3837 256.809 20.7506 256.818 20.355 256.432L16.3024 252.486C15.9068 252.1 15.8984 251.467 16.2837 251.071L20.2305 247.019C20.6158 246.623 21.2489 246.615 21.6446 247C22.0402 247.386 22.0486 248.019 21.6633 248.414L19.4009 250.737L30.9857 250.584C31.5379 250.577 31.9915 251.019 31.9988 251.571C32.0061 252.123 31.5644 252.577 31.0121 252.584L19.4273 252.737L21.7504 254.999C22.146 255.385 22.1544 256.018 21.7691 256.414Z" fill="#1C2D5E"/>
</g>
<defs>
<clipPath id="clip0_3807_53863">
<rect width="360" height="311" fill="white"/>
</clipPath>
</defs>
</svg>
