<svg width="151" height="148" viewBox="0 0 151 148" fill="none" xmlns="http://www.w3.org/2000/svg">
<path d="M75.6934 147.601C117.115 147.601 150.693 145.64 150.693 143.222C150.693 140.803 117.115 138.843 75.6934 138.843C34.272 138.843 0.693359 140.803 0.693359 143.222C0.693359 145.64 34.272 147.601 75.6934 147.601Z" fill="#F5F5F5"/>
<path d="M141.375 38.6191H103.428C101.426 38.6191 99.8037 40.2419 99.8037 42.2436V52.5639C99.8037 54.5656 101.426 56.1884 103.428 56.1884H141.375C143.377 56.1884 144.999 54.5656 144.999 52.5639V42.2436C144.999 40.2419 143.377 38.6191 141.375 38.6191Z" fill="#FF5C8A"/>
<path d="M133.847 41.5823H104.206C103.855 41.5823 103.571 41.8663 103.571 42.2167V42.9129C103.571 43.2633 103.855 43.5473 104.206 43.5473H133.847C134.198 43.5473 134.482 43.2633 134.482 42.9129V42.2167C134.482 41.8663 134.198 41.5823 133.847 41.5823Z" fill="#FF5C8A"/>
<path d="M124.459 46.3167H104.206C103.855 46.3167 103.571 46.6007 103.571 46.951V47.6473C103.571 47.9977 103.855 48.2817 104.206 48.2817H124.459C124.81 48.2817 125.094 47.9977 125.094 47.6473V46.951C125.094 46.6007 124.81 46.3167 124.459 46.3167Z" fill="#FF5C8A"/>
<path d="M119.029 51.0515H104.206C103.855 51.0515 103.571 51.3355 103.571 51.6859V52.3822C103.571 52.7325 103.855 53.0165 104.206 53.0165H119.029C119.379 53.0165 119.663 52.7325 119.663 52.3822V51.6859C119.663 51.3355 119.379 51.0515 119.029 51.0515Z" fill="#FF5C8A"/>
<path d="M137.398 51.0515H122.576C122.225 51.0515 121.941 51.3355 121.941 51.6859V52.3822C121.941 52.7325 122.225 53.0165 122.576 53.0165H137.398C137.749 53.0165 138.033 52.7325 138.033 52.3822V51.6859C138.033 51.3355 137.749 51.0515 137.398 51.0515Z" fill="#FF5C8A"/>
<g opacity="0.5">
<path d="M133.847 41.5825H104.206C103.855 41.5825 103.571 41.8665 103.571 42.2169V42.9132C103.571 43.2635 103.855 43.5476 104.206 43.5476H133.847C134.198 43.5476 134.482 43.2635 134.482 42.9132V42.2169C134.482 41.8665 134.198 41.5825 133.847 41.5825Z" fill="white"/>
<path d="M124.459 46.3167H104.206C103.855 46.3167 103.571 46.6007 103.571 46.951V47.6473C103.571 47.9977 103.855 48.2817 104.206 48.2817H124.459C124.81 48.2817 125.094 47.9977 125.094 47.6473V46.951C125.094 46.6007 124.81 46.3167 124.459 46.3167Z" fill="white"/>
<path d="M119.029 51.0518H104.206C103.855 51.0518 103.571 51.3358 103.571 51.6861V52.3824C103.571 52.7328 103.855 53.0168 104.206 53.0168H119.029C119.379 53.0168 119.663 52.7328 119.663 52.3824V51.6861C119.663 51.3358 119.379 51.0518 119.029 51.0518Z" fill="white"/>
<path d="M137.398 51.0518H122.576C122.225 51.0518 121.941 51.3358 121.941 51.6861V52.3824C121.941 52.7328 122.225 53.0168 122.576 53.0168H137.398C137.749 53.0168 138.033 52.7328 138.033 52.3824V51.6861C138.033 51.3358 137.749 51.0518 137.398 51.0518Z" fill="white"/>
</g>
<path d="M110.979 34.5225H67.9067C64.9713 34.5225 62.5918 36.902 62.5918 39.8373V54.9696C62.5918 57.9049 64.9713 60.2845 67.9067 60.2845H110.979C113.914 60.2845 116.294 57.9049 116.294 54.9696V39.8373C116.294 36.902 113.914 34.5225 110.979 34.5225Z" fill="#FF5C8A"/>
<path d="M112.503 38.8665H69.0477C68.5329 38.8665 68.1155 39.2838 68.1155 39.7987V40.816C68.1155 41.3309 68.5329 41.7482 69.0477 41.7482H112.503C113.018 41.7482 113.435 41.3309 113.435 40.816V39.7987C113.435 39.2838 113.018 38.8665 112.503 38.8665Z" fill="#FF5C8A"/>
<path d="M98.7359 45.8098H69.0477C68.5329 45.8098 68.1155 46.2272 68.1155 46.742V47.7594C68.1155 48.2742 68.5329 48.6916 69.0477 48.6916H98.7359C99.2508 48.6916 99.6682 48.2742 99.6682 47.7594V46.742C99.6682 46.2272 99.2508 45.8098 98.7359 45.8098Z" fill="#FF5C8A"/>
<path d="M90.7752 52.7532H69.0477C68.5329 52.7532 68.1155 53.1705 68.1155 53.6854V54.7027C68.1155 55.2176 68.5329 55.635 69.0477 55.635H90.7752C91.2901 55.635 91.7075 55.2176 91.7075 54.7027V53.6854C91.7075 53.1705 91.2901 52.7532 90.7752 52.7532Z" fill="#FF5C8A"/>
<path d="M114.085 52.7532H95.9818C95.4669 52.7532 95.0496 53.1705 95.0496 53.6854V54.7027C95.0496 55.2176 95.4669 55.635 95.9818 55.635H114.085C114.6 55.635 115.017 55.2176 115.017 54.7027V53.6854C115.017 53.1705 114.6 52.7532 114.085 52.7532Z" fill="#FF5C8A"/>
<g opacity="0.5">
<path d="M112.503 38.8669H69.0477C68.5329 38.8669 68.1155 39.2843 68.1155 39.7992V40.8165C68.1155 41.3314 68.5329 41.7487 69.0477 41.7487H112.503C113.018 41.7487 113.435 41.3314 113.435 40.8165V39.7992C113.435 39.2843 113.018 38.8669 112.503 38.8669Z" fill="white"/>
<path d="M98.7359 45.8103H69.0477C68.5329 45.8103 68.1155 46.2277 68.1155 46.7425V47.7599C68.1155 48.2747 68.5329 48.6921 69.0477 48.6921H98.7359C99.2508 48.6921 99.6682 48.2747 99.6682 47.7599V46.7425C99.6682 46.2277 99.2508 45.8103 98.7359 45.8103Z" fill="white"/>
<path d="M90.7752 52.7537H69.0477C68.5329 52.7537 68.1155 53.171 68.1155 53.6859V54.7032C68.1155 55.2181 68.5329 55.6354 69.0477 55.6354H90.7752C91.2901 55.6354 91.7075 55.2181 91.7075 54.7032V53.6859C91.7075 53.171 91.2901 52.7537 90.7752 52.7537Z" fill="white"/>
<path d="M114.085 52.7537H95.9818C95.4669 52.7537 95.0496 53.171 95.0496 53.6859V54.7032C95.0496 55.2181 95.4669 55.6354 95.9818 55.6354H114.085C114.6 55.6354 115.017 55.2181 115.017 54.7032V53.6859C115.017 53.171 114.6 52.7537 114.085 52.7537Z" fill="white"/>
</g>
<path d="M84.1993 64.9541H63.4543C62.0828 64.9541 60.9709 66.0659 60.9709 67.4375V98.5144C60.9709 99.8859 62.0828 100.998 63.4543 100.998H84.1993C85.5708 100.998 86.6827 99.8859 86.6827 98.5144V67.4375C86.6827 66.0659 85.5708 64.9541 84.1993 64.9541Z" fill="#FF5C8A"/>
<path opacity="0.4" d="M84.1993 64.9541H63.4543C62.0828 64.9541 60.9709 66.0659 60.9709 67.4375V98.5144C60.9709 99.8859 62.0828 100.998 63.4543 100.998H84.1993C85.5708 100.998 86.6827 99.8859 86.6827 98.5144V67.4375C86.6827 66.0659 85.5708 64.9541 84.1993 64.9541Z" fill="#1C2D5E"/>
<path d="M83.2477 68.7131H64.402C64.1499 68.7131 63.9456 68.9175 63.9456 69.1696V69.8543C63.9456 70.1063 64.1499 70.3107 64.402 70.3107H83.2477C83.4998 70.3107 83.7042 70.1063 83.7042 69.8543V69.1696C83.7042 68.9175 83.4998 68.7131 83.2477 68.7131Z" fill="#FAFAFA"/>
<path d="M77.2482 72.5581H64.402C64.1499 72.5581 63.9456 72.7625 63.9456 73.0146V73.6992C63.9456 73.9513 64.1499 74.1557 64.402 74.1557H77.2482C77.5003 74.1557 77.7046 73.9513 77.7046 73.6992V73.0146C77.7046 72.7625 77.5003 72.5581 77.2482 72.5581Z" fill="#FAFAFA"/>
<path d="M83.2477 76.407H64.402C64.1499 76.407 63.9456 76.6113 63.9456 76.8634V77.5481C63.9456 77.8002 64.1499 78.0045 64.402 78.0045H83.2477C83.4998 78.0045 83.7042 77.8002 83.7042 77.5481V76.8634C83.7042 76.6113 83.4998 76.407 83.2477 76.407Z" fill="#FAFAFA"/>
<path d="M71.4073 80.252H64.402C64.1499 80.252 63.9456 80.4563 63.9456 80.7084V81.3931C63.9456 81.6452 64.1499 81.8495 64.402 81.8495H71.4073C71.6593 81.8495 71.8637 81.6452 71.8637 81.3931V80.7084C71.8637 80.4563 71.6593 80.252 71.4073 80.252Z" fill="#FAFAFA"/>
<path d="M81.2093 80.252H74.204C73.9519 80.252 73.7476 80.4563 73.7476 80.7084V81.3931C73.7476 81.6452 73.9519 81.8495 74.204 81.8495H81.2093C81.4614 81.8495 81.6657 81.6452 81.6657 81.3931V80.7084C81.6657 80.4563 81.4614 80.252 81.2093 80.252Z" fill="#FAFAFA"/>
<path d="M83.2477 84.1011H64.402C64.1499 84.1011 63.9456 84.3054 63.9456 84.5575V85.2422C63.9456 85.4943 64.1499 85.6986 64.402 85.6986H83.2477C83.4998 85.6986 83.7042 85.4943 83.7042 85.2422V84.5575C83.7042 84.3054 83.4998 84.1011 83.2477 84.1011Z" fill="#FAFAFA"/>
<path d="M83.2477 87.946H64.402C64.1499 87.946 63.9456 88.1504 63.9456 88.4025V89.0872C63.9456 89.3392 64.1499 89.5436 64.402 89.5436H83.2477C83.4998 89.5436 83.7042 89.3392 83.7042 89.0872V88.4025C83.7042 88.1504 83.4998 87.946 83.2477 87.946Z" fill="#FAFAFA"/>
<path d="M79.9056 91.7952H64.402C64.1499 91.7952 63.9456 91.9995 63.9456 92.2516V92.9363C63.9456 93.1884 64.1499 93.3927 64.402 93.3927H79.9056C80.1577 93.3927 80.3621 93.1884 80.3621 92.9363V92.2516C80.3621 91.9995 80.1577 91.7952 79.9056 91.7952Z" fill="#FAFAFA"/>
<path d="M71.6355 95.6401H64.402C64.1499 95.6401 63.9456 95.8445 63.9456 96.0966V96.7812C63.9456 97.0333 64.1499 97.2377 64.402 97.2377H71.6355C71.8876 97.2377 72.0919 97.0333 72.0919 96.7812V96.0966C72.0919 95.8445 71.8876 95.6401 71.6355 95.6401Z" fill="#FAFAFA"/>
<path d="M89.8122 64.7329H61.0369L73.7593 74.8559L93.2665 82.2054V68.1795C93.2644 67.2647 92.8996 66.388 92.252 65.7419C91.6044 65.0958 90.727 64.7329 89.8122 64.7329Z" fill="#FF5C8A"/>
<path opacity="0.4" d="M89.8122 64.7329H61.0369L73.7593 74.8559L93.2665 82.2054V68.1795C93.2644 67.2647 92.8996 66.388 92.252 65.7419C91.6044 65.0958 90.727 64.7329 89.8122 64.7329Z" fill="#1C2D5E"/>
<path d="M88.5549 69.9475H67.5005C67.1843 69.9475 66.928 70.2038 66.928 70.52V71.5876C66.928 71.9038 67.1843 72.1601 67.5005 72.1601H88.5549C88.8711 72.1601 89.1274 71.9038 89.1274 71.5876V70.52C89.1274 70.2038 88.8711 69.9475 88.5549 69.9475Z" fill="#FAFAFA"/>
<path d="M139.576 92.1354V71.8972C139.576 70.3462 138.319 69.0889 136.768 69.0889H101.626C100.075 69.0889 98.8172 70.3462 98.8172 71.8972V92.1354C98.8172 93.6864 100.075 94.9437 101.626 94.9437H136.768C138.319 94.9437 139.576 93.6864 139.576 92.1354Z" fill="#FF5C8A"/>
<path d="M145.993 85.7223V65.4841C145.993 63.9331 144.736 62.6758 143.185 62.6758H108.043C106.492 62.6758 105.234 63.9331 105.234 65.4841V85.7223C105.234 87.2733 106.492 88.5306 108.043 88.5306H143.185C144.736 88.5306 145.993 87.2733 145.993 85.7223Z" fill="#FF5C8A"/>
<path opacity="0.5" d="M145.993 85.7223V65.4841C145.993 63.9331 144.736 62.6758 143.185 62.6758H108.043C106.492 62.6758 105.234 63.9331 105.234 65.4841V85.7223C105.234 87.2733 106.492 88.5306 108.043 88.5306H143.185C144.736 88.5306 145.993 87.2733 145.993 85.7223Z" fill="white"/>
<path d="M142.427 78.7862V66.3268C142.427 65.6368 141.868 65.0774 141.178 65.0774H129.693C129.003 65.0774 128.444 65.6368 128.444 66.3268V78.7862C128.444 79.4762 129.003 80.0356 129.693 80.0356H141.178C141.868 80.0356 142.427 79.4762 142.427 78.7862Z" fill="#FF5C8A"/>
<path opacity="0.7" d="M142.427 78.7862V66.3268C142.427 65.6368 141.868 65.0774 141.178 65.0774H129.693C129.003 65.0774 128.444 65.6368 128.444 66.3268V78.7862C128.444 79.4762 129.003 80.0356 129.693 80.0356H141.178C141.868 80.0356 142.427 79.4762 142.427 78.7862Z" fill="white"/>
<path d="M126.254 84.8128V75.2662C126.254 74.7364 125.825 74.3069 125.295 74.3069H116.495C115.965 74.3069 115.535 74.7364 115.535 75.2662V84.8128C115.535 85.3427 115.965 85.7721 116.495 85.7721H125.295C125.825 85.7721 126.254 85.3427 126.254 84.8128Z" fill="#FF5C8A"/>
<path opacity="0.3" d="M126.254 84.8128V75.2662C126.254 74.7364 125.825 74.3069 125.295 74.3069H116.495C115.965 74.3069 115.535 74.7364 115.535 75.2662V84.8128C115.535 85.3427 115.965 85.7721 116.495 85.7721H125.295C125.825 85.7721 126.254 85.3427 126.254 84.8128Z" fill="white"/>
<path d="M120.893 24.2834V19.1272C120.893 17.5506 119.615 16.2725 118.038 16.2725L23.6044 16.2725C22.0278 16.2725 20.7497 17.5506 20.7497 19.1272V24.2834C20.7497 25.8601 22.0278 27.1382 23.6044 27.1382L118.038 27.1382C119.615 27.1382 120.893 25.8601 120.893 24.2834Z" fill="#FF5C8A"/>
<path opacity="0.5" d="M120.893 24.2834V19.1272C120.893 17.5506 119.615 16.2725 118.038 16.2725L23.6044 16.2725C22.0278 16.2725 20.7497 17.5506 20.7497 19.1272V24.2834C20.7497 25.8601 22.0278 27.1382 23.6044 27.1382L118.038 27.1382C119.615 27.1382 120.893 25.8601 120.893 24.2834Z" fill="white"/>
<path d="M103.026 28.9568V25.2163H75.852V28.9568H103.026Z" fill="#FF5C8A"/>
<path opacity="0.5" d="M103.026 28.9568V25.2163H75.852V28.9568H103.026Z" fill="white"/>
<path d="M130.637 8.23071V3.07444C130.637 1.49783 129.359 0.219727 127.782 0.219727L33.3483 0.219727C31.7717 0.219727 30.4936 1.49783 30.4936 3.07444V8.23071C30.4936 9.80733 31.7717 11.0854 33.3483 11.0854L127.782 11.0854C129.359 11.0854 130.637 9.80733 130.637 8.23071Z" fill="#FF5C8A"/>
<path d="M29.4144 57.3559C29.074 58.1296 28.6988 58.9651 28.37 59.7813C28.0412 60.5975 27.7008 61.4369 27.4029 62.2724C26.7918 63.9012 26.3018 65.5729 25.9369 67.2739L25.8247 67.8928L25.786 68.1249C25.786 68.1907 25.786 68.2758 25.7628 68.3532C25.7481 68.7298 25.7559 69.107 25.786 69.4827C25.8595 70.2988 25.991 71.1731 26.1729 72.0473C26.4978 73.7995 26.9117 75.606 27.3333 77.3853L25.3489 78.159C24.4239 76.4727 23.6361 74.7148 22.9932 72.9021C22.6545 71.9587 22.3805 70.9933 22.1732 70.0126C22.057 69.47 21.9845 68.919 21.9565 68.3648C21.9565 68.21 21.9565 68.063 21.9565 67.8967C21.9565 67.7304 21.9565 67.5447 21.9836 67.4364L22.061 66.6628C22.1766 65.6664 22.3535 64.6782 22.5909 63.7036C22.8075 62.7366 23.086 61.7966 23.3646 60.8682C23.6431 59.9399 23.9912 59.027 24.3587 58.1296C24.5405 57.6809 24.7455 57.236 24.9234 56.7912C25.1014 56.3464 25.3102 55.9209 25.5578 55.4451L29.4144 57.3559Z" fill="#E4897B"/>
<path d="M27.2289 76.8635L28.7375 78.3373L25.4457 79.8846C25.4457 79.8846 24.6489 78.4882 25.202 77.2271L27.2289 76.8635Z" fill="#E4897B"/>
<path d="M29.9561 80.5304L27.1749 81.6676L25.4497 79.869L28.7377 78.3372L29.9561 80.5304Z" fill="#E4897B"/>
<path opacity="0.4" d="M86.296 78.9443C80.8229 78.3298 75.6549 76.1064 71.4452 72.5551C67.2356 69.0038 64.1734 64.2842 62.6457 58.9928C61.1179 53.7015 61.1934 48.0759 62.8623 42.8274C64.5313 37.5789 67.719 32.9431 72.0223 29.5059C76.3256 26.0688 81.5514 23.9847 87.039 23.5171C92.5266 23.0495 98.0297 24.2194 102.852 26.8789C107.675 29.5384 111.601 33.5681 114.134 38.4586C116.667 43.3491 117.693 48.8808 117.083 54.3543C116.677 57.9909 115.559 61.512 113.792 64.7163C112.025 67.9205 109.644 70.7452 106.785 73.0288C103.926 75.3124 100.645 77.0103 97.1291 78.0253C93.6135 79.0403 89.9323 79.3526 86.296 78.9443V78.9443Z" fill="#FAFAFA"/>
<path opacity="0.4" d="M106.557 29.3237L64.2009 63.1663C64.023 62.7795 63.8489 62.3927 63.6865 62.0058C62.6246 59.48 61.9453 56.81 61.6711 54.0838V54.0838L98.2563 24.8521C101.26 25.854 104.068 27.3667 106.557 29.3237V29.3237Z" fill="#FAFAFA"/>
<path opacity="0.4" d="M116.332 44.1502L76.5094 75.9659C72.7262 73.9937 69.4478 71.1772 66.928 67.7344L110.41 32.9905C113.213 36.2076 115.239 40.0257 116.332 44.1502Z" fill="#FAFAFA"/>
<path d="M58.0506 40.6228L57.6831 40.4991C58.3195 38.6211 59.1194 36.8025 60.0736 35.0643L60.4102 35.2499C59.4686 36.9687 58.679 38.7665 58.0506 40.6228ZM62.7465 31.5945L62.4332 31.3663C65.6121 27.0679 69.7726 23.5918 74.5677 21.2278L74.7417 21.576C70.0011 23.9156 65.8884 27.3545 62.7465 31.6061V31.5945ZM105.138 22.1059C103.874 21.4279 102.566 20.8348 101.223 20.3304L101.362 19.9668C102.718 20.483 104.039 21.0877 105.316 21.7771L105.138 22.1059Z" fill="#FF5C8A"/>
<path opacity="0.3" d="M58.0506 40.6228L57.6831 40.4991C58.3195 38.6211 59.1194 36.8025 60.0736 35.0643L60.4102 35.2499C59.4686 36.9687 58.679 38.7665 58.0506 40.6228ZM62.7465 31.5945L62.4332 31.3663C65.6121 27.0679 69.7726 23.5918 74.5677 21.2278L74.7417 21.576C70.0011 23.9156 65.8884 27.3545 62.7465 31.6061V31.5945ZM105.138 22.1059C103.874 21.4279 102.566 20.8348 101.223 20.3304L101.362 19.9668C102.718 20.483 104.039 21.0877 105.316 21.7771L105.138 22.1059Z" fill="#1C2D5E"/>
<path d="M118.193 37.0404C114.611 29.6117 108.308 23.8462 100.59 20.9391C92.8724 18.0321 84.3319 18.2065 76.7392 21.4261C69.1466 24.6457 63.084 30.6636 59.8084 38.2323C56.5328 45.801 56.2953 54.34 59.1453 62.079C56.5613 62.9842 54.0083 63.9551 51.4708 64.957C47.8115 66.4088 44.1857 67.9251 40.5935 69.5059C37.0038 71.0958 33.4297 72.7165 29.8903 74.4108C28.1148 75.2424 26.3625 76.1205 24.5947 76.9715C23.6751 77.3667 22.8419 77.9383 22.1423 78.6542C21.7637 79.0506 21.4303 79.4878 21.1482 79.9577C20.804 80.5136 20.5433 81.117 20.3746 81.7487C20.0835 82.887 20.2094 84.0919 20.7294 85.1454C21.2495 86.199 22.1293 87.0317 23.2099 87.4929C23.81 87.7446 24.4431 87.9087 25.0899 87.9803C25.6361 88.0422 26.1876 88.0422 26.7338 87.9803C27.7265 87.8598 28.6859 87.5457 29.5576 87.0558C31.3099 86.17 33.0738 85.3152 34.8145 84.4061C38.2958 82.6306 41.7772 80.7778 45.216 78.8979C48.6548 77.0179 52.0975 75.049 55.455 73.0298C57.7759 71.6257 60.12 70.1906 62.4177 68.6897C66.8299 75.655 73.7526 80.6559 81.7514 82.656C89.7503 84.6562 98.212 83.5023 105.383 79.4336C112.555 75.3649 117.886 68.6931 120.272 60.8008C122.658 52.9085 121.916 44.4007 118.201 37.0404H118.193ZM100.608 73.993C96.1129 76.2119 91.0605 77.048 86.09 76.3956C81.1195 75.7433 76.4541 73.6317 72.6836 70.3279C68.9131 67.0241 66.207 62.6765 64.9073 57.8347C63.6076 52.993 63.7727 47.8746 65.3819 43.1268C66.991 38.3789 69.9718 34.2148 73.9474 31.1609C77.9231 28.1071 82.7149 26.3007 87.7171 25.9701C92.7194 25.6395 97.7073 26.7996 102.05 29.3037C106.393 31.8078 109.896 35.5434 112.116 40.0382C113.59 43.0232 114.462 46.2695 114.682 49.5915C114.901 52.9135 114.464 56.2462 113.396 59.3993C112.327 62.5524 110.648 65.4642 108.454 67.9682C106.259 70.4722 103.594 72.5194 100.608 73.993Z" fill="#FF5C8A"/>
<path opacity="0.3" d="M118.193 37.0404C114.611 29.6117 108.308 23.8462 100.59 20.9391C92.8724 18.0321 84.3319 18.2065 76.7392 21.4261C69.1466 24.6457 63.084 30.6636 59.8084 38.2323C56.5328 45.801 56.2953 54.34 59.1453 62.079C56.5613 62.9842 54.0083 63.9551 51.4708 64.957C47.8115 66.4088 44.1857 67.9251 40.5935 69.5059C37.0038 71.0958 33.4297 72.7165 29.8903 74.4108C28.1148 75.2424 26.3625 76.1205 24.5947 76.9715C23.6751 77.3667 22.8419 77.9383 22.1423 78.6542C21.7637 79.0506 21.4303 79.4878 21.1482 79.9577C20.804 80.5136 20.5433 81.117 20.3746 81.7487C20.0835 82.887 20.2094 84.0919 20.7294 85.1454C21.2495 86.199 22.1293 87.0317 23.2099 87.4929C23.81 87.7446 24.4431 87.9087 25.0899 87.9803C25.6361 88.0422 26.1876 88.0422 26.7338 87.9803C27.7265 87.8598 28.6859 87.5457 29.5576 87.0558C31.3099 86.17 33.0738 85.3152 34.8145 84.4061C38.2958 82.6306 41.7772 80.7778 45.216 78.8979C48.6548 77.0179 52.0975 75.049 55.455 73.0298C57.7759 71.6257 60.12 70.1906 62.4177 68.6897C66.8299 75.655 73.7526 80.6559 81.7514 82.656C89.7503 84.6562 98.212 83.5023 105.383 79.4336C112.555 75.3649 117.886 68.6931 120.272 60.8008C122.658 52.9085 121.916 44.4007 118.201 37.0404H118.193ZM100.608 73.993C96.1129 76.2119 91.0605 77.048 86.09 76.3956C81.1195 75.7433 76.4541 73.6317 72.6836 70.3279C68.9131 67.0241 66.207 62.6765 64.9073 57.8347C63.6076 52.993 63.7727 47.8746 65.3819 43.1268C66.991 38.3789 69.9718 34.2148 73.9474 31.1609C77.9231 28.1071 82.7149 26.3007 87.7171 25.9701C92.7194 25.6395 97.7073 26.7996 102.05 29.3037C106.393 31.8078 109.896 35.5434 112.116 40.0382C113.59 43.0232 114.462 46.2695 114.682 49.5915C114.901 52.9135 114.464 56.2462 113.396 59.3993C112.327 62.5524 110.648 65.4642 108.454 67.9682C106.259 70.4722 103.594 72.5194 100.608 73.993Z" fill="#1C2D5E"/>
<path d="M40.1062 43.543C40.1062 43.7713 40.2261 43.9569 40.377 43.9569C40.5278 43.9569 40.6477 43.7713 40.6477 43.543C40.6477 43.3148 40.5278 43.1292 40.377 43.1292C40.2261 43.1292 40.1062 43.3303 40.1062 43.543Z" fill="#1C2D5E"/>
<path d="M40.2144 43.9568C40.4882 44.6573 40.8565 45.3172 41.309 45.918C41.1526 46.0299 40.9735 46.1062 40.7844 46.1417C40.5953 46.1771 40.4007 46.1707 40.2144 46.123V43.9568Z" fill="#DE5753"/>
<path d="M39.3054 42.2706C39.2838 42.2707 39.2625 42.2658 39.2431 42.2564C39.2237 42.247 39.2066 42.2334 39.1932 42.2165C39.173 42.187 39.165 42.1508 39.1708 42.1155C39.1765 42.0803 39.1956 42.0485 39.2241 42.027C39.3945 41.8978 39.5936 41.8116 39.8044 41.7759C40.0152 41.7402 40.2315 41.756 40.4349 41.8219C40.4531 41.8269 40.4702 41.8357 40.4848 41.8476C40.4995 41.8596 40.5115 41.8745 40.5201 41.8914C40.5286 41.9083 40.5335 41.9268 40.5345 41.9457C40.5355 41.9646 40.5324 41.9835 40.5257 42.0012C40.5189 42.0188 40.5084 42.0349 40.495 42.0483C40.4817 42.0617 40.4656 42.0721 40.4479 42.0789C40.4303 42.0857 40.4114 42.0887 40.3925 42.0878C40.3736 42.0868 40.3551 42.0819 40.3382 42.0734C40.1766 42.0238 40.0055 42.0138 39.8393 42.0441C39.673 42.0743 39.5164 42.1441 39.3827 42.2474C39.3598 42.2626 39.3329 42.2707 39.3054 42.2706V42.2706Z" fill="#1C2D5E"/>
<path d="M32.2925 45.2642C32.6793 47.3414 33.1048 51.1515 31.6504 52.5402C31.6504 52.5402 32.219 54.6483 36.0833 54.6483C40.3383 54.6483 38.1102 52.5402 38.1102 52.5402C35.7893 51.9832 35.8551 50.2657 36.2574 48.6488L32.2925 45.2642Z" fill="#E4897B"/>
<path d="M29.9134 53.6346C30.3737 52.919 29.6001 51.1822 29.6001 51.1822C29.6001 51.1822 36.439 49.4608 39.2357 52.1028C39.8159 52.6482 39.1738 53.4528 39.1738 53.4528L29.9134 53.6346Z" fill="#FF5C8A"/>
<path opacity="0.1" d="M29.9134 53.6346C30.3737 52.919 29.6001 51.1822 29.6001 51.1822C29.6001 51.1822 36.439 49.4608 39.2357 52.1028C39.8159 52.6482 39.1738 53.4528 39.1738 53.4528L29.9134 53.6346Z" fill="#1C2D5E"/>
<path d="M18.599 132.557C18.2392 132.557 17.6629 131.958 17.4927 131.733C17.4854 131.722 17.4814 131.71 17.4814 131.697C17.4814 131.683 17.4854 131.671 17.4927 131.66C17.4989 131.649 17.508 131.64 17.5188 131.634C17.5297 131.628 17.5421 131.625 17.5546 131.625C17.5971 131.625 18.5448 131.71 18.804 132.047C18.8322 132.082 18.8523 132.123 18.863 132.167C18.8737 132.212 18.8746 132.257 18.8659 132.302C18.8625 132.36 18.8413 132.415 18.8053 132.46C18.7693 132.505 18.7202 132.537 18.6647 132.553L18.599 132.557ZM17.7016 131.784C17.9839 132.109 18.4365 132.476 18.6299 132.43C18.6299 132.43 18.7073 132.41 18.7305 132.286C18.7356 132.261 18.7347 132.234 18.728 132.209C18.7213 132.183 18.7089 132.159 18.6918 132.139C18.4053 131.922 18.0605 131.796 17.7016 131.776V131.784Z" fill="#FF5C8A"/>
<path d="M17.7442 131.776C17.6748 131.783 17.6048 131.783 17.5353 131.776C17.5231 131.775 17.5114 131.771 17.5018 131.763C17.4921 131.756 17.485 131.745 17.4812 131.734C17.4757 131.723 17.4729 131.711 17.4729 131.699C17.4729 131.687 17.4757 131.675 17.4812 131.664C17.5083 131.641 18.0769 131.049 18.5062 131.049C18.5576 131.048 18.6087 131.057 18.656 131.078C18.7033 131.098 18.7459 131.127 18.7809 131.165C18.8194 131.197 18.8457 131.242 18.8556 131.291C18.8654 131.34 18.8582 131.391 18.835 131.436C18.7229 131.652 18.131 131.776 17.7442 131.776ZM17.6939 131.641C18.0807 131.641 18.6416 131.521 18.7345 131.351C18.7345 131.351 18.7615 131.3 18.6997 131.238C18.6771 131.214 18.6495 131.195 18.6188 131.182C18.5881 131.169 18.5549 131.164 18.5217 131.165V131.165C18.2046 131.238 17.9164 131.403 17.6939 131.641V131.641Z" fill="#FF5C8A"/>
<path d="M44.1251 141.338C43.8319 141.336 43.5394 141.309 43.2509 141.257C43.2366 141.254 43.2237 141.246 43.2145 141.235C43.2053 141.223 43.2003 141.209 43.2006 141.195C43.1984 141.181 43.2002 141.168 43.2057 141.155C43.2112 141.143 43.2202 141.132 43.2316 141.125C43.2741 141.102 44.2644 140.533 44.7401 140.665C44.7843 140.675 44.8259 140.694 44.8625 140.72C44.899 140.747 44.9298 140.781 44.9529 140.819C44.9832 140.862 44.9994 140.914 44.9994 140.966C44.9994 141.019 44.9832 141.07 44.9529 141.113C44.8407 141.288 44.4887 141.338 44.1251 141.338ZM43.4714 141.156C43.9974 141.233 44.7169 141.229 44.8484 141.044C44.8678 141.021 44.8833 140.978 44.8484 140.897C44.8189 140.849 44.7717 140.814 44.7169 140.8C44.4152 140.723 43.8156 140.978 43.4714 141.156Z" fill="#FF5C8A"/>
<path d="M43.2665 141.261C43.2539 141.264 43.2404 141.264 43.2278 141.261C43.2171 141.254 43.2087 141.244 43.2039 141.232C43.199 141.22 43.1979 141.207 43.2007 141.195C43.2269 140.792 43.3815 140.409 43.6417 140.1C43.6943 140.055 43.7561 140.021 43.8229 140.002C43.8896 139.983 43.9598 139.978 44.0285 139.988C44.2142 139.988 44.2683 140.1 44.2799 140.174C44.3302 140.495 43.6533 141.11 43.309 141.265L43.2665 141.261ZM43.9589 140.1C43.8738 140.1 43.7913 140.13 43.7268 140.185C43.5081 140.43 43.3726 140.737 43.34 141.063C43.6881 140.851 44.1523 140.371 44.1136 140.178C44.1136 140.178 44.1136 140.112 43.9821 140.1H43.9589Z" fill="#FF5C8A"/>
<path d="M40.1409 141.191H42.984L43.2664 134.612H40.4232L40.1409 141.191Z" fill="#E4897B"/>
<path d="M14.8237 129.896L17.1988 131.451L22.444 127.022L20.0651 125.463L14.8237 129.896Z" fill="#E4897B"/>
<path d="M17.5895 131.304L15.1216 129.281C15.078 129.245 15.0233 129.225 14.9669 129.225C14.9104 129.225 14.8557 129.245 14.8121 129.281L12.7775 130.878C12.7283 130.917 12.6886 130.967 12.6613 131.024C12.634 131.08 12.6199 131.142 12.6199 131.205C12.6199 131.268 12.634 131.33 12.6613 131.386C12.6886 131.443 12.7283 131.493 12.7775 131.532C13.6517 132.224 14.112 132.518 15.1989 133.408C15.8681 133.953 17.5198 135.624 18.4521 136.379C19.3843 137.133 20.2392 136.321 19.9297 135.93C18.541 134.17 17.9956 132.665 17.837 131.733C17.8096 131.564 17.7216 131.412 17.5895 131.304V131.304Z" fill="#1C2D5E"/>
<path d="M42.9646 140.863H39.8701C39.8136 140.863 39.7589 140.882 39.7147 140.917C39.6705 140.952 39.6394 141.001 39.6264 141.056L39.0655 143.582C39.0514 143.643 39.0514 143.707 39.0655 143.768C39.0797 143.829 39.1076 143.886 39.1471 143.935C39.1866 143.984 39.2367 144.023 39.2936 144.05C39.3505 144.076 39.4127 144.09 39.4755 144.089C40.5934 144.069 42.2103 144.004 43.6183 144.004C45.2623 144.004 46.6858 144.092 48.6121 144.092C49.7726 144.092 50.1053 142.913 49.614 142.808C47.3937 142.321 45.5756 142.271 43.657 141.083C43.4511 140.947 43.2114 140.87 42.9646 140.863V140.863Z" fill="#1C2D5E"/>
<path d="M26.0491 53.3877C23.5851 54.5481 22.1809 62.3231 22.1809 62.3231L28.2037 64.7253C29.0852 62.5726 29.7978 60.3546 30.335 58.0914C31.1628 54.5094 28.5711 52.1885 26.0491 53.3877Z" fill="#1C2D5E"/>
<path d="M29.2443 57.7698C27.755 59.2784 27.0742 62.2337 26.7764 64.1562L28.2192 64.7325C29.0757 62.641 29.7739 60.4881 30.308 58.292C30.1804 57.472 29.8632 57.1432 29.2443 57.7698Z" fill="#203048"/>
<path d="M42.4813 53.3332C42.4813 53.3332 45.5062 56.7527 42.6515 77.8961H27.4534C27.349 75.5752 28.815 64.1834 26.5637 53.1901C28.2433 52.8644 29.9425 52.6499 31.6504 52.548C33.8018 52.4202 35.9588 52.4202 38.1102 52.548C39.5853 52.6964 41.0467 52.9589 42.4813 53.3332V53.3332Z" fill="#1C2D5E"/>
<path d="M43.8698 61.5418L41.3091 57.1282C40.8148 59.1875 40.6129 61.3061 40.7095 63.4217C40.7791 64.938 42.1678 70.5546 43.4172 71.3747C43.7488 68.1078 43.8999 64.8252 43.8698 61.5418V61.5418Z" fill="#203048"/>
<path d="M44.2258 56.3545C44.6126 58.2344 44.9994 60.1608 45.4133 62.0484C45.8272 63.9361 46.2565 65.8315 46.7555 67.6612C46.8832 68.1137 47.0031 68.5779 47.1424 69.0112L47.2468 69.3438L47.2971 69.5101V69.4908C47.27 69.456 47.2391 69.4521 47.2623 69.4908C47.4212 69.6644 47.6245 69.7915 47.8502 69.8583C48.2159 69.9944 48.5925 70.0992 48.9759 70.1716C50.8047 70.4615 52.6564 70.5819 54.5074 70.5313L54.8748 72.6356C54.3565 72.802 53.873 72.9219 53.3624 73.0418C52.8518 73.1617 52.3489 73.2623 51.8345 73.3396C50.77 73.5169 49.6908 73.5894 48.6123 73.5563C48.0128 73.5401 47.4165 73.4623 46.8329 73.3242C46.0908 73.1618 45.3936 72.8383 44.7905 72.3765C44.3966 72.0584 44.0716 71.6636 43.8351 71.216C43.7732 71.1 43.719 70.9685 43.6687 70.8563L43.5991 70.6745L43.456 70.2877C43.2587 69.7964 43.0963 69.3129 42.9183 68.8293C42.2646 66.8953 41.7192 64.9418 41.2395 62.9923C40.7599 61.0427 40.346 59.097 40.0017 57.0972L44.2258 56.3545Z" fill="#E4897B"/>
<path d="M38.6864 55.4071C37.8857 58.0026 41.1311 65.7428 41.1311 65.7428L47.5948 64.1182C47.5948 64.1182 47.3472 60.0953 45.8735 56.904C43.6531 52.092 39.6457 52.2932 38.6864 55.4071Z" fill="#1C2D5E"/>
<path d="M54.4532 70.5312L57.6716 70.45L56.1243 73.7998C56.1243 73.7998 54.813 73.9739 53.7376 72.2061L52.6042 70.8522L53.9078 70.5931C54.0873 70.5553 54.2699 70.5346 54.4532 70.5312V70.5312Z" fill="#E4897B"/>
<path d="M59.7023 71.0727L57.8611 73.8501L56.1243 73.7998L57.6715 70.45L59.7023 71.0727Z" fill="#E4897B"/>
<path d="M43.2665 134.612L43.1195 138.004H40.2764L40.4234 134.612H43.2665Z" fill="#CE6F64"/>
<path d="M20.0652 125.463L22.4441 127.022L19.7364 129.304L17.3613 127.749L20.0652 125.463Z" fill="#CE6F64"/>
<path d="M32.4703 43.0516C32.6405 45.8638 32.5979 47.5232 34.0176 48.9661C36.1528 51.1439 39.6303 49.8558 40.3033 47.032C40.9107 44.5022 40.5316 40.3246 37.7774 39.2028C37.1697 38.9575 36.5097 38.8706 35.8592 38.9503C35.2087 39.03 34.5892 39.2737 34.0587 39.6584C33.5281 40.0432 33.1041 40.5564 32.8263 41.1499C32.5484 41.7434 32.4259 42.3978 32.4703 43.0516V43.0516Z" fill="#E4897B"/>
<path d="M29.1592 42.5568C29.8594 45.1214 31.5072 48.0767 33.6386 48.2662C36.2844 48.4983 37.4797 45.7635 37.8278 42.9398C39.4138 41.8528 38.5821 40.6576 40.1719 40.5067C42.2143 40.3133 41.5606 36.5766 38.8722 35.9771C38.8722 35.9771 39.7735 37.6597 37.882 36.8087C36.0831 35.9538 34.0846 35.6074 32.1029 35.8069C32.1029 35.8069 34.5167 37.0137 32.1571 37.5514C29.7975 38.0891 29.0935 39.5435 30.1804 40.4216C30.1804 40.4255 28.6989 40.8703 29.1592 42.5568Z" fill="#263238"/>
<path d="M36.2148 43.5203C36.2668 44.2193 36.5483 44.8815 37.0156 45.4041C37.6345 46.0887 38.2804 45.6632 38.3888 44.8316C38.4893 44.085 38.2843 42.8279 37.5262 42.4488C36.768 42.0697 36.1646 42.677 36.2148 43.5203Z" fill="#E4897B"/>
<path d="M37.2591 77.8962C37.2591 77.8962 40.0287 97.9527 37.8471 105.991C34.389 118.717 21.1675 129.459 21.1675 129.459L16.6843 126.519C16.6843 126.519 27.9446 117.448 29.3216 106.791C30.5595 97.2255 27.4533 85.6558 27.4533 77.8923L37.2591 77.8962Z" fill="#FF5C8A"/>
<path opacity="0.1" d="M37.2591 77.8962C37.2591 77.8962 40.0287 97.9527 37.8471 105.991C34.389 118.717 21.1675 129.459 21.1675 129.459L16.6843 126.519C16.6843 126.519 27.9446 117.448 29.3216 106.791C30.5595 97.2255 27.4533 85.6558 27.4533 77.8923L37.2591 77.8962Z" fill="#1C2D5E"/>
<path d="M38.4041 89.3614C37.6668 88.5167 36.8551 87.74 35.9788 87.0405C36.4507 93.5507 36.8375 103.194 36.4081 110.045C36.9854 108.731 37.4664 107.378 37.8471 105.995C38.9108 102.068 38.7987 95.2875 38.4041 89.3614Z" fill="#FF5C8A"/>
<path opacity="0.3" d="M38.4041 89.3614C37.6668 88.5167 36.8551 87.74 35.9788 87.0405C36.4507 93.5507 36.8375 103.194 36.4081 110.045C36.9854 108.731 37.4664 107.378 37.8471 105.995C38.9108 102.068 38.7987 95.2875 38.4041 89.3614Z" fill="#1C2D5E"/>
<path d="M22.974 128.457C22.9933 128.457 21.2372 129.617 21.2372 129.617L16.3401 126.407L17.8874 125.126L22.974 128.457Z" fill="#FF5C8A"/>
<path opacity="0.3" d="M22.974 128.457C22.9933 128.457 21.2372 129.617 21.2372 129.617L16.3401 126.407L17.8874 125.126L22.974 128.457Z" fill="#1C2D5E"/>
<path d="M42.6514 77.8965C42.6514 77.8965 46.9296 96.0382 47.2313 104.707C47.5717 114.424 44.1793 137.346 44.1793 137.346H39.3635C39.3635 137.346 38.7716 114.246 38.5589 105.395C38.3229 95.7442 32.6599 77.8965 32.6599 77.8965H42.6514Z" fill="#FF5C8A"/>
<path opacity="0.1" d="M42.6514 77.8965C42.6514 77.8965 46.9296 96.0382 47.2313 104.707C47.5717 114.424 44.1793 137.346 44.1793 137.346H39.3635C39.3635 137.346 38.7716 114.246 38.5589 105.395C38.3229 95.7442 32.6599 77.8965 32.6599 77.8965H42.6514Z" fill="#1C2D5E"/>
<path d="M45.1037 135.432C45.1269 135.432 44.8329 137.428 44.8329 137.428H38.9765L38.8179 135.644L45.1037 135.432Z" fill="#FF5C8A"/>
<path opacity="0.3" d="M45.1037 135.432C45.1269 135.432 44.8329 137.428 44.8329 137.428H38.9765L38.8179 135.644L45.1037 135.432Z" fill="#1C2D5E"/>
<path d="M116.696 60.4622C117.025 60.7716 117.284 61.0346 117.555 61.3286C117.825 61.6226 118.081 61.9089 118.328 62.2067C118.831 62.7985 119.303 63.4213 119.759 64.048C120.671 65.305 121.482 66.632 122.185 68.0167L122.328 68.2991C122.398 68.4358 122.456 68.5781 122.502 68.7246C122.595 69.0076 122.653 69.3014 122.672 69.5988C122.697 70.1233 122.625 70.6478 122.459 71.1461C122.177 71.9736 121.757 72.7477 121.218 73.436C120.246 74.6843 119.099 75.7864 117.814 76.7085L116.851 75.6022C117.303 75.0722 117.775 74.5036 118.197 73.935C118.626 73.3841 119.014 72.8023 119.357 72.1943C119.678 71.6639 119.916 71.0872 120.061 70.4846C120.111 70.269 120.12 70.046 120.088 69.827C120.074 69.7534 120.051 69.6818 120.019 69.6143C120.004 69.5846 119.987 69.5561 119.968 69.5292L119.845 69.3203C119.099 68.1039 118.289 66.9276 117.419 65.7964C116.99 65.2277 116.53 64.6823 116.065 64.1447C115.837 63.8739 115.601 63.6109 115.365 63.3478C115.129 63.0848 114.874 62.8217 114.669 62.6167L116.696 60.4622Z" fill="#E4897B"/>
<path d="M117.222 75.2768L114.333 74.8049L115.845 77.3347C115.845 77.3347 117.706 77.269 118.236 76.1743L117.222 75.2768Z" fill="#E4897B"/>
<path d="M112.197 75.9731L113.574 78.0271L115.845 77.3347L114.333 74.8049L112.197 75.9731Z" fill="#E4897B"/>
<path d="M117.083 141.303C116.886 141.32 116.69 141.266 116.53 141.152C116.481 141.106 116.445 141.049 116.426 140.985C116.406 140.921 116.403 140.853 116.417 140.788C116.42 140.747 116.434 140.707 116.458 140.673C116.482 140.639 116.515 140.612 116.553 140.595C116.889 140.444 117.771 141.009 117.872 141.074C117.883 141.082 117.892 141.092 117.897 141.105C117.902 141.117 117.903 141.131 117.899 141.144C117.897 141.157 117.892 141.17 117.883 141.18C117.874 141.189 117.862 141.196 117.849 141.198C117.598 141.262 117.341 141.297 117.083 141.303V141.303ZM116.696 140.703C116.668 140.699 116.639 140.699 116.611 140.703C116.594 140.711 116.579 140.724 116.569 140.739C116.559 140.755 116.553 140.773 116.553 140.792C116.543 140.835 116.544 140.88 116.556 140.923C116.568 140.966 116.591 141.005 116.622 141.036C116.769 141.167 117.148 141.187 117.655 141.086C117.365 140.894 117.038 140.764 116.696 140.703V140.703Z" fill="#FF5C8A"/>
<path d="M117.856 141.194H117.822C117.547 141.036 117.017 140.421 117.083 140.084C117.095 140.031 117.125 139.984 117.166 139.949C117.208 139.914 117.26 139.894 117.315 139.891C117.367 139.883 117.42 139.888 117.471 139.904C117.521 139.92 117.567 139.947 117.605 139.984C117.922 140.262 117.926 141.098 117.926 141.144C117.925 141.156 117.922 141.167 117.916 141.177C117.91 141.187 117.901 141.196 117.891 141.202L117.856 141.194ZM117.361 140.034H117.33C117.245 140.034 117.226 140.08 117.218 140.115C117.179 140.312 117.508 140.784 117.783 141.005C117.79 140.68 117.696 140.362 117.516 140.092C117.493 140.07 117.465 140.054 117.435 140.044C117.405 140.034 117.373 140.03 117.342 140.034H117.361Z" fill="#FF5C8A"/>
<path d="M103.9 141.303C103.653 141.326 103.406 141.263 103.2 141.125C103.154 141.084 103.118 141.032 103.096 140.974C103.073 140.916 103.065 140.854 103.072 140.792C103.075 140.754 103.087 140.718 103.107 140.686C103.127 140.655 103.155 140.628 103.188 140.61C103.548 140.409 104.701 140.997 104.832 141.071C104.844 141.078 104.854 141.089 104.86 141.102C104.866 141.115 104.869 141.13 104.867 141.144C104.865 141.158 104.858 141.17 104.849 141.18C104.839 141.19 104.826 141.196 104.813 141.198C104.513 141.262 104.207 141.297 103.9 141.303V141.303ZM103.386 140.703C103.341 140.7 103.297 140.71 103.258 140.73C103.244 140.737 103.232 140.747 103.224 140.76C103.216 140.773 103.211 140.788 103.212 140.804C103.206 140.844 103.21 140.885 103.223 140.923C103.237 140.962 103.259 140.996 103.289 141.024C103.467 141.183 103.943 141.21 104.585 141.102C104.21 140.902 103.805 140.767 103.386 140.703V140.703Z" fill="#FF5C8A"/>
<path d="M104.801 141.194H104.77C104.426 141.04 103.741 140.421 103.796 140.084C103.796 140.007 103.865 139.91 104.055 139.891C104.124 139.883 104.194 139.89 104.26 139.911C104.327 139.931 104.389 139.965 104.442 140.011C104.805 140.312 104.875 141.094 104.875 141.129C104.876 141.14 104.875 141.152 104.87 141.163C104.865 141.174 104.857 141.184 104.848 141.191C104.833 141.197 104.817 141.198 104.801 141.194V141.194ZM104.109 140.034H104.066C103.943 140.034 103.935 140.096 103.931 140.111C103.9 140.309 104.364 140.8 104.705 141.013C104.671 140.682 104.536 140.37 104.318 140.119C104.259 140.069 104.186 140.039 104.109 140.034V140.034Z" fill="#FF5C8A"/>
<path d="M109.374 51.5691C109.261 53.3175 108.96 56.8685 110.302 57.851C110.302 57.851 110.058 59.642 106.89 60.0597C103.409 60.5123 104.999 58.5473 104.999 58.5473C106.844 57.8433 106.608 56.4391 106.105 55.1549L109.374 51.5691Z" fill="#E4897B"/>
<path d="M102.167 48.4786C102.148 48.4786 102.129 48.4745 102.112 48.4665C102.094 48.4585 102.079 48.4468 102.067 48.4322C101.956 48.301 101.816 48.1976 101.658 48.1304C101.5 48.0632 101.329 48.0341 101.158 48.0454C101.14 48.0487 101.121 48.0483 101.103 48.0441C101.085 48.04 101.068 48.0323 101.053 48.0214C101.039 48.0106 101.026 47.9968 101.017 47.981C101.007 47.9651 101.001 47.9476 100.999 47.9293C100.995 47.8929 101.005 47.8563 101.027 47.8273C101.05 47.7984 101.083 47.7794 101.119 47.7746C101.337 47.7561 101.557 47.7908 101.759 47.8757C101.961 47.9606 102.14 48.0931 102.279 48.262C102.296 48.2822 102.307 48.3066 102.31 48.3326C102.314 48.3586 102.31 48.3851 102.299 48.4089C102.288 48.4328 102.271 48.4531 102.249 48.4674C102.227 48.4818 102.201 48.4897 102.175 48.4902L102.167 48.4786Z" fill="#1C2D5E"/>
<path d="M101.564 50.1924C101.426 50.7472 101.214 51.2807 100.933 51.7783C101.062 51.8478 101.205 51.888 101.351 51.896C101.498 51.9041 101.644 51.8797 101.78 51.8248L101.564 50.1924Z" fill="#DE5753"/>
<path d="M101.718 49.7659C101.749 49.998 101.653 50.1992 101.502 50.2224C101.351 50.2456 101.2 50.0676 101.173 49.8356C101.146 49.6035 101.239 49.4023 101.39 49.383C101.54 49.3636 101.691 49.5184 101.718 49.7659Z" fill="#1C2D5E"/>
<path d="M101.459 49.3873L100.883 49.2983C100.883 49.2983 101.223 49.6968 101.459 49.3873Z" fill="#1C2D5E"/>
<path d="M107.989 141.133H105.088L104.894 134.422H107.795L107.989 141.133Z" fill="#E4897B"/>
<path d="M121.16 141.133H118.259L117.326 134.422H120.228L121.16 141.133Z" fill="#E4897B"/>
<path d="M118.081 140.808H121.338C121.393 140.807 121.447 140.827 121.489 140.863C121.531 140.9 121.558 140.95 121.566 141.005L121.953 143.585C121.96 143.65 121.953 143.716 121.933 143.778C121.913 143.841 121.88 143.898 121.836 143.946C121.792 143.995 121.738 144.034 121.679 144.06C121.619 144.087 121.554 144.1 121.489 144.1C120.355 144.08 119.806 144.015 118.375 144.015C117.493 144.015 116.205 144.104 114.99 144.104C113.775 144.104 113.71 142.901 114.216 142.792C116.487 142.305 116.847 141.632 117.609 140.986C117.742 140.875 117.908 140.813 118.081 140.808Z" fill="#1C2D5E"/>
<path d="M104.991 140.808H108.244C108.3 140.807 108.354 140.827 108.397 140.863C108.44 140.899 108.468 140.95 108.476 141.005L108.863 143.585C108.87 143.65 108.863 143.716 108.843 143.778C108.823 143.841 108.79 143.898 108.746 143.946C108.702 143.995 108.649 144.034 108.589 144.06C108.529 144.087 108.464 144.1 108.399 144.1C107.265 144.08 106.716 144.015 105.285 144.015C104.403 144.015 102.577 144.104 101.363 144.104C100.148 144.104 100.082 142.901 100.589 142.792C102.86 142.305 103.753 141.632 104.519 140.986C104.652 140.875 104.818 140.813 104.991 140.808Z" fill="#1C2D5E"/>
<path d="M104.894 134.422L104.995 137.884H107.896L107.795 134.422H104.894Z" fill="#CE6F64"/>
<path d="M120.228 134.422H117.326L117.81 137.884H120.707L120.228 134.422Z" fill="#CE6F64"/>
<path d="M109.412 47.9479C109.61 50.8181 109.753 52.0289 108.507 53.6806C106.631 56.1601 103.065 55.7771 102.012 53.023C101.065 50.5435 100.902 46.2692 103.54 44.7683C104.121 44.4357 104.776 44.2569 105.445 44.2488C106.114 44.2408 106.774 44.4037 107.362 44.7222C107.95 45.0407 108.447 45.5042 108.806 46.0688C109.165 46.6333 109.374 47.2802 109.412 47.9479V47.9479Z" fill="#E4897B"/>
<path d="M111.083 50.6135C112.692 51.511 113.888 49.2984 113.888 49.2984C113.888 49.2984 111.002 49.6117 111.261 47.8942C111.602 45.6159 109.969 42.8462 105.877 43.2021C105.648 43.2215 105.432 43.2485 105.219 43.2834C104.791 43.0803 104.306 43.0278 103.844 43.1346C103.382 43.2413 102.97 43.5009 102.674 43.8713C101.513 43.968 99.9468 45.3528 101.011 47.1825C101.085 46.9722 101.201 46.779 101.351 46.6139C101.44 47.6853 102.376 49.3873 103.544 49.4995C103.796 50.9655 102.821 52.6637 103.157 54.1955C103.656 56.4042 107.381 56.9032 107.381 56.9032C107.253 56.6274 107.205 56.3208 107.243 56.019C107.282 55.7171 107.405 55.4323 107.598 55.1973C110.128 56.3578 111.795 55.2244 111.795 55.2244C110.07 54.5823 110.592 53.4373 110.592 53.4373C111.188 53.7018 111.863 53.725 112.475 53.5021C113.088 53.2792 113.59 52.8275 113.876 52.242C113.303 52.2692 112.734 52.1299 112.239 51.841C111.743 51.552 111.342 51.1257 111.083 50.6135V50.6135Z" fill="#263238"/>
<path d="M104.554 49.9404C104.561 50.2158 104.513 50.4899 104.413 50.7468C104.314 51.0037 104.164 51.2384 103.974 51.4374C103.463 51.9673 102.836 51.5959 102.666 50.919C102.515 50.3078 102.6 49.2983 103.266 49.0197C103.412 48.9622 103.571 48.9422 103.727 48.9615C103.883 48.9808 104.032 49.0388 104.16 49.1303C104.288 49.2218 104.391 49.3438 104.46 49.4853C104.528 49.6268 104.561 49.7832 104.554 49.9404V49.9404Z" fill="#E4897B"/>
<path d="M106.964 76.6811C106.964 76.6811 107.699 95.7744 109.447 106.984C110.855 116.044 117.11 137.21 117.11 137.21H121.063C121.063 137.21 117.802 116.767 117.087 107.812C115.276 85.1486 119.976 80.2824 115.539 75.5632L106.964 76.6811Z" fill="#1C2D5E"/>
<path d="M110.267 82.719C110.267 82.719 108.48 82.4095 107.436 85.8135C107.822 92.2618 108.484 100.818 109.447 106.984C109.66 108.357 109.985 110.013 110.383 111.827C109.629 100.934 110.267 82.719 110.267 82.719Z" fill="#161F33"/>
<path d="M103.881 77.0838C103.881 77.0838 100.624 98.2079 100.813 107.047C101.011 116.241 104.38 137.218 104.38 137.218H108.298C108.298 137.218 107.679 116.787 108.024 107.758C108.41 97.9139 112.43 75.9736 112.43 75.9736L103.881 77.0838Z" fill="#1C2D5E"/>
<path d="M121.636 137.396H116.379L115.969 135.632L121.597 135.671L121.636 137.396Z" fill="#FF5C8A"/>
<path opacity="0.2" d="M121.636 137.396H116.379L115.969 135.632L121.597 135.671L121.636 137.396Z" fill="#1C2D5E"/>
<path d="M115.342 57.8552C116.855 58.0022 119.152 62.2997 119.152 62.2997L115.334 65.2279C115.334 65.2279 112.174 62.4544 112.549 60.8955C112.94 59.2748 113.892 57.7198 115.342 57.8552Z" fill="#FF5C8A"/>
<path opacity="0.1" d="M115.342 57.8552C116.855 58.0022 119.152 62.2997 119.152 62.2997L115.334 65.2279C115.334 65.2279 112.174 62.4544 112.549 60.8955C112.94 59.2748 113.892 57.7198 115.342 57.8552Z" fill="#1C2D5E"/>
<path d="M114.201 59.7038C113.815 59.5999 113.416 59.5556 113.017 59.5723C112.814 59.9952 112.657 60.4387 112.549 60.8952C112.162 62.4425 115.334 65.2276 115.334 65.2276L115.617 65.0109L114.201 59.7038Z" fill="#FF5C8A"/>
<path opacity="0.3" d="M114.201 59.7038C113.815 59.5999 113.416 59.5556 113.017 59.5723C112.814 59.9952 112.657 60.4387 112.549 60.8952C112.162 62.4425 115.334 65.2276 115.334 65.2276L115.617 65.0109L114.201 59.7038Z" fill="#1C2D5E"/>
<path d="M102.585 63.8311C101.482 66.6201 100.322 69.4554 99.3975 72.2521C99.3356 72.4301 99.2853 72.6003 99.2312 72.7743L99.0997 73.2037C99.0637 73.3301 99.0637 73.4641 99.0997 73.5905C99.318 74.0741 99.6644 74.4888 100.102 74.7896C101.258 75.6194 102.518 76.2944 103.85 76.7972L103.502 78.2207C101.864 78.0047 100.279 77.488 98.8289 76.6966C97.9362 76.2198 97.2092 75.4834 96.7439 74.5846C96.4768 74.0102 96.384 73.37 96.477 72.7434C96.4858 72.6667 96.4987 72.5905 96.5157 72.5152L96.5544 72.3527L96.6202 72.0587C96.6666 71.8614 96.713 71.6719 96.7633 71.4785C97.1501 69.9312 97.6452 68.4613 98.1674 67.003C98.6896 65.5447 99.235 64.1057 99.8501 62.6707L102.585 63.8311Z" fill="#E4897B"/>
<path d="M100.237 59.9168C100.237 59.9168 98.9295 60.5782 103.881 77.0837L115.555 75.5597C114.735 70.8328 114.348 67.9046 115.342 57.855C113.668 57.7352 111.988 57.7352 110.314 57.855C108.531 57.9587 106.759 58.1914 105.01 58.5513C102.771 59.0503 100.237 59.9168 100.237 59.9168Z" fill="#FF5C8A"/>
<path opacity="0.1" d="M100.237 59.9168C100.237 59.9168 98.9295 60.5782 103.881 77.0837L115.555 75.5597C114.735 70.8328 114.348 67.9046 115.342 57.855C113.668 57.7352 111.988 57.7352 110.314 57.855C108.531 57.9587 106.759 58.1914 105.01 58.5513C102.771 59.0503 100.237 59.9168 100.237 59.9168Z" fill="#1C2D5E"/>
<path d="M115.64 74.8516L116.309 75.8225C116.359 75.8999 116.274 75.9927 116.143 76.0121L103.9 77.6135C103.796 77.6135 103.699 77.5864 103.683 77.5206L103.444 76.4878C103.424 76.4182 103.509 76.3447 103.625 76.3292L115.447 74.782C115.482 74.7763 115.518 74.7797 115.552 74.7919C115.586 74.804 115.616 74.8246 115.64 74.8516Z" fill="#FF5C8A"/>
<path opacity="0.2" d="M115.64 74.8516L116.309 75.8225C116.359 75.8999 116.274 75.9927 116.143 76.0121L103.9 77.6135C103.796 77.6135 103.699 77.5864 103.683 77.5206L103.444 76.4878C103.424 76.4182 103.509 76.3447 103.625 76.3292L115.447 74.782C115.482 74.7763 115.518 74.7797 115.552 74.7919C115.586 74.804 115.616 74.8246 115.64 74.8516Z" fill="#1C2D5E"/>
<path d="M114.224 76.3801L114.541 76.3375C114.603 76.3375 114.646 76.2911 114.638 76.2524L114.313 74.914C114.301 74.8912 114.281 74.8733 114.257 74.8634C114.233 74.8536 114.206 74.8523 114.182 74.8599L113.864 74.8985C113.799 74.8985 113.756 74.945 113.768 74.9875L114.093 76.322C114.1 76.3646 114.162 76.3878 114.224 76.3801Z" fill="#1C2D5E"/>
<path d="M106.55 77.3697L106.867 77.3271C106.929 77.3271 106.975 77.2807 106.964 77.242L106.639 75.9036C106.626 75.8811 106.606 75.8632 106.583 75.8527C106.559 75.8423 106.532 75.8398 106.507 75.8456L106.19 75.8882C106.128 75.8882 106.082 75.9346 106.093 75.9733L106.418 77.3117C106.426 77.3697 106.488 77.3929 106.55 77.3697Z" fill="#1C2D5E"/>
<path d="M100.782 65.5177C101.103 67.0108 101.556 68.9023 102.217 71.2967L102.36 65.2275L100.782 65.5177Z" fill="#FF5C8A"/>
<path opacity="0.3" d="M100.782 65.5177C101.103 67.0108 101.556 68.9023 102.217 71.2967L102.36 65.2275L100.782 65.5177Z" fill="#1C2D5E"/>
<path d="M100.237 59.9169C98.7865 60.501 97.5293 65.4638 97.5293 65.4638L102.519 67.893C102.519 67.893 104.929 61.8239 103.85 60.6402C102.771 59.4565 101.908 59.2477 100.237 59.9169Z" fill="#FF5C8A"/>
<path opacity="0.1" d="M100.237 59.9169C98.7865 60.501 97.5293 65.4638 97.5293 65.4638L102.519 67.893C102.519 67.893 104.929 61.8239 103.85 60.6402C102.771 59.4565 101.908 59.2477 100.237 59.9169Z" fill="#1C2D5E"/>
<path d="M108.967 137.396H103.711L103.301 135.632L109.153 135.671L108.967 137.396Z" fill="#FF5C8A"/>
<path opacity="0.2" d="M108.967 137.396H103.711L103.301 135.632L109.153 135.671L108.967 137.396Z" fill="#1C2D5E"/>
<path d="M103.931 76.3177L103.509 76.1437C103.406 76.1015 103.293 76.0875 103.182 76.1031C103.071 76.1187 102.966 76.1634 102.878 76.2325C102.79 76.3016 102.722 76.3928 102.681 76.4967C102.64 76.6007 102.626 76.7138 102.643 76.8245L102.948 78.8398C102.963 78.9406 103 79.037 103.056 79.1219C103.113 79.2067 103.187 79.278 103.275 79.3306C103.362 79.3831 103.46 79.4156 103.562 79.4258C103.663 79.4359 103.765 79.4233 103.861 79.3891C104.015 79.3333 104.158 79.2537 104.287 79.1531C104.427 79.0371 104.537 78.8898 104.61 78.7232C104.683 78.5566 104.715 78.3752 104.705 78.1938L104.662 77.3583C104.655 77.1325 104.582 76.9138 104.452 76.7289C104.322 76.5441 104.141 76.4012 103.931 76.3177Z" fill="#E4897B"/>
</svg>
