<svg width="171" height="227" viewBox="0 0 171 227" fill="none" xmlns="http://www.w3.org/2000/svg">
<path d="M136.333 49.1901C133.919 47.6798 126.987 49.1901 128.118 56.7733C129.249 64.3564 120.339 62.4164 122.285 71.2382C124.231 80.0599 140.023 93.1661 149.749 84.2686C159.474 75.371 151.278 71.4467 151.461 60.8871C151.588 54.6121 148.744 43.3764 136.333 49.1901Z" fill="#263238"/>
<path d="M150.64 83.8895C150.595 83.8892 150.552 83.871 150.52 83.839C150.505 83.8242 150.493 83.8066 150.484 83.787C150.476 83.7675 150.472 83.7465 150.472 83.7252C150.472 83.704 150.476 83.683 150.484 83.6634C150.493 83.6439 150.505 83.6262 150.52 83.6115C156.511 77.6587 155.127 74.0314 153.376 69.4436C152.403 66.9159 151.31 64.0343 151.215 60.2996C151.12 56.2679 149.648 50.7638 145.812 48.4951C143.095 46.89 139.607 47.1681 135.449 49.323C135.411 49.341 135.367 49.3439 135.327 49.331C135.287 49.318 135.254 49.2903 135.234 49.2534C135.223 49.2345 135.216 49.2136 135.214 49.192C135.211 49.1703 135.214 49.1484 135.22 49.1277C135.227 49.1069 135.237 49.0877 135.252 49.0713C135.266 49.0549 135.284 49.0416 135.303 49.0323C139.569 46.8205 143.158 46.5488 145.983 48.2171C149.926 50.5552 151.443 56.1794 151.544 60.2869C151.632 63.9711 152.719 66.8148 153.68 69.3235C155.468 74.0251 156.89 77.7408 150.748 83.8579C150.716 83.8802 150.679 83.8914 150.64 83.8895Z" fill="#1C2D5E"/>
<path d="M152.044 83.0237C152.044 83.0237 152.145 83.1691 152.214 83.2639L152.467 83.6051C152.652 83.841 152.848 84.0748 153.055 84.3065C153.478 84.7838 153.93 85.2354 154.407 85.6589C155.386 86.555 156.443 87.3608 157.567 88.0665C158.708 88.7927 159.894 89.445 161.118 90.0192C161.75 90.3288 162.382 90.5753 163.014 90.8533C163.134 90.9102 163.014 90.8533 162.932 90.9039C162.85 90.9544 162.78 90.9987 162.85 90.9608C163.16 90.6968 163.406 90.3663 163.57 89.9939C163.85 89.4369 164.088 88.8603 164.284 88.2687C164.708 86.9489 165.052 85.6047 165.314 84.2433C165.599 82.8531 165.82 81.4313 166.016 79.9968C166.212 78.5623 166.389 77.1089 166.546 75.687H169.118C169.329 78.7091 169.306 81.743 169.049 84.7615C168.931 86.3258 168.692 87.8787 168.335 89.4062C168.143 90.2359 167.881 91.0477 167.551 91.8328C167.152 92.8327 166.535 93.7309 165.744 94.4617C165.161 94.9716 164.452 95.3144 163.69 95.4538C162.936 95.5802 162.162 95.5128 161.44 95.2579C160.701 94.9925 159.949 94.7713 159.216 94.468C157.728 93.8869 156.287 93.1918 154.906 92.3889C153.504 91.5554 152.178 90.5996 150.944 89.5326C150.318 88.9775 149.728 88.3845 149.175 87.7569C148.89 87.4409 148.612 87.1249 148.347 86.7584L147.955 86.2023C147.816 85.9938 147.721 85.8484 147.525 85.5072L152.044 83.0237Z" fill="#FFC3BD"/>
<path d="M151.177 80.6853C157.086 84.4769 156.605 86.7771 156.605 86.7771L152.89 92.1611C152.89 92.1611 143.411 88.3696 142.823 85.3932C142.204 82.2904 148.308 78.8527 151.177 80.6853Z" fill="#1C2D5E"/>
<path opacity="0.1" d="M151.177 80.6853C157.086 84.4769 156.605 86.7771 156.605 86.7771L152.89 92.1611C152.89 92.1611 143.411 88.3696 142.823 85.3932C142.204 82.2904 148.308 78.8527 151.177 80.6853Z" fill="white"/>
<path d="M156.959 86.2462C157.068 86.3239 157.143 86.4417 157.167 86.5742C157.191 86.7067 157.161 86.8431 157.085 86.954L153.293 92.3949C153.256 92.4507 153.208 92.4983 153.152 92.535C153.095 92.5718 153.032 92.5968 152.966 92.6086C152.9 92.6203 152.833 92.6187 152.767 92.6037C152.702 92.5887 152.64 92.5607 152.586 92.5213C152.531 92.4829 152.485 92.4341 152.449 92.3776C152.413 92.3212 152.389 92.2582 152.378 92.1924C152.367 92.1266 152.369 92.0593 152.384 91.9943C152.399 91.9292 152.427 91.8678 152.466 91.8135L156.257 86.3726C156.335 86.2645 156.451 86.1909 156.582 86.1673C156.713 86.1437 156.848 86.172 156.959 86.2462Z" fill="#FF5C8A"/>
<path d="M166.963 76.9256L164.031 73.0077L169.655 71.5605C169.655 71.5605 170.799 75.0488 168.929 77.6081L166.963 76.9256Z" fill="#FFC3BD"/>
<path d="M164.189 68.1923L168.872 67.4023L169.655 71.5604L164.031 73.0076L164.189 68.1923Z" fill="#FFC3BD"/>
<path d="M116.541 220.822L121.9 221.341L125.729 208.74L120.371 208.222L116.541 220.822Z" fill="#FFC3BD"/>
<path d="M82.4492 202.199L86.4241 205.928L95.0057 196.499L91.0308 192.771L82.4492 202.199Z" fill="#FFC3BD"/>
<path d="M88.262 204.139L85.273 198.762C85.2241 198.668 85.1423 198.595 85.0431 198.558C84.944 198.521 84.8346 198.521 84.7359 198.56L80.1354 200.31C80.0181 200.358 79.9126 200.43 79.8259 200.522C79.7393 200.615 79.6736 200.725 79.6334 200.845C79.5932 200.965 79.5794 201.092 79.593 201.218C79.6065 201.344 79.6471 201.465 79.712 201.574C80.7863 203.432 81.3993 204.279 82.7074 206.629C83.5162 208.083 85.0897 211.426 86.2083 213.435C87.3268 215.445 89.3679 214.453 89.0899 213.511C87.826 209.309 88.0535 206.971 88.4137 205.119C88.4789 204.785 88.4253 204.438 88.262 204.139Z" fill="#1C2D5E"/>
<path d="M122.539 219.704H116.036C115.92 219.706 115.808 219.745 115.716 219.815C115.624 219.886 115.557 219.984 115.524 220.095L114.109 225.239C114.076 225.361 114.071 225.489 114.096 225.613C114.12 225.737 114.173 225.853 114.25 225.953C114.327 226.053 114.427 226.133 114.54 226.188C114.654 226.243 114.779 226.271 114.905 226.269C117.193 226.269 118.28 226.269 121.136 226.269H129.876C132.252 226.269 132.745 223.868 131.771 223.653C127.348 222.68 124.82 221.334 123.461 220.051C123.211 219.819 122.88 219.694 122.539 219.704Z" fill="#1C2D5E"/>
<path opacity="0.2" d="M125.729 208.746L123.757 215.236H118.234L120.37 208.228L125.729 208.746Z" fill="black"/>
<path opacity="0.2" d="M91.029 192.771L95.0038 196.506L90.5803 201.365L86.6055 197.631L91.029 192.771Z" fill="black"/>
<path d="M151.177 80.6855C151.177 80.6855 153.325 82.1452 139.707 111.732L118.266 105.798C121.04 97.1662 122.544 91.7885 123.321 72.7231C126.496 72.9338 129.651 73.3752 132.762 74.0439C136.066 74.7111 139.318 75.6128 142.494 76.7422C145.454 77.9055 148.353 79.2216 151.177 80.6855Z" fill="#1C2D5E"/>
<path opacity="0.1" d="M151.177 80.6855C151.177 80.6855 153.325 82.1452 139.707 111.732L118.266 105.798C121.04 97.1662 122.544 91.7885 123.321 72.7231C126.496 72.9338 129.651 73.3752 132.762 74.0439C136.066 74.7111 139.318 75.6128 142.494 76.7422C145.454 77.9055 148.353 79.2216 151.177 80.6855Z" fill="white"/>
<path d="M136.77 63.3457C136.517 66.6507 135.538 72.5592 132.77 74.0443C132.77 74.0443 131.158 79.5231 138.148 81.539C144.069 83.2389 142.502 76.7426 142.502 76.7426C139.241 74.9416 141.238 71.7504 141.87 68.1736L136.77 63.3457Z" fill="#FFC3BD"/>
<path opacity="0.2" d="M136.738 63.3516C136.535 65.9993 135.872 70.347 134.172 72.7104C136.143 72.9063 139.227 72.306 140.137 70.8147C140.587 69.7691 140.953 68.6893 141.231 67.5855L136.738 63.3516Z" fill="black"/>
<path d="M145.439 58.5617C145.439 63.9963 145.534 66.3029 142.962 69.2413C139.088 73.6649 132.415 72.4579 130.803 67.1244C129.356 62.328 129.622 54.2456 134.803 51.7748C135.942 51.2249 137.202 50.9754 138.464 51.05C139.727 51.1246 140.949 51.5209 142.015 52.201C143.08 52.8812 143.955 53.8227 144.554 54.936C145.153 56.0494 145.458 57.2975 145.439 58.5617Z" fill="#FFC3BD"/>
<path d="M134.209 55.5474C137.261 59.8129 147.53 65.7404 148.219 60.0278C148.908 54.3151 143.663 48.653 138.468 49.2155C133.274 49.7779 131.599 51.9201 134.209 55.5474Z" fill="#263238"/>
<path d="M147.69 63.636C147.46 64.1035 147.14 64.521 146.748 64.8648C146.357 65.2085 145.902 65.4717 145.408 65.6392C144.088 66.0752 143.361 64.9125 143.671 63.6297C143.955 62.4732 144.979 60.8555 146.337 60.9756C146.633 61.006 146.916 61.1099 147.16 61.278C147.405 61.446 147.604 61.6727 147.738 61.9373C147.873 62.202 147.939 62.4961 147.93 62.7928C147.922 63.0896 147.839 63.3795 147.69 63.636Z" fill="#FFC3BD"/>
<path d="M139.707 111.751C139.707 111.751 147.341 142.671 142.336 166.059C138.98 181.725 126.885 213.372 126.885 213.372L117.406 213.132C117.406 213.132 126.563 179.924 128.452 166.862C131.694 144.517 123.978 107.403 123.978 107.403L139.707 111.751Z" fill="#FF5C8A"/>
<path opacity="0.2" d="M131.196 116.174L126.469 123.631C127.884 132.473 128.781 141.39 129.154 150.336C135.821 138.437 132.674 122.494 131.196 116.174Z" fill="black"/>
<path d="M128.579 213.846L116.541 213.549L117.35 209.264L129.458 210.174L128.579 213.846Z" fill="#1C2D5E"/>
<path d="M135.005 110.487C135.005 110.487 130.582 144.295 121.059 163.506C113.355 179.02 92.7987 201.106 92.7987 201.106L87.541 195.69C87.541 195.69 101.443 171.677 107.131 161.383C121.172 136.106 108.73 113.451 118.246 105.773L135.005 110.487Z" fill="#FF5C8A"/>
<path d="M93.3294 201.845L86.5488 195.229L88.7985 192.17L96.1921 199.81L93.3294 201.845Z" fill="#1C2D5E"/>
<path d="M118.292 104.446L116.794 106.101C116.68 106.228 116.794 106.43 117.059 106.5L139.55 112.724C139.739 112.775 139.929 112.724 139.973 112.61L140.7 110.715C140.75 110.588 140.611 110.43 140.403 110.367L118.69 104.357C118.621 104.336 118.549 104.333 118.479 104.349C118.409 104.364 118.345 104.398 118.292 104.446Z" fill="#FF5C8A"/>
<path opacity="0.5" d="M118.292 104.446L116.794 106.101C116.68 106.228 116.794 106.43 117.059 106.5L139.55 112.724C139.739 112.775 139.929 112.724 139.973 112.61L140.7 110.715C140.75 110.588 140.611 110.43 140.403 110.367L118.69 104.357C118.621 104.336 118.549 104.333 118.479 104.349C118.409 104.364 118.345 104.398 118.292 104.446Z" fill="white"/>
<path d="M120.536 107.681L119.954 107.523C119.84 107.491 119.771 107.403 119.796 107.334L120.757 104.92C120.788 104.844 120.908 104.812 121.022 104.844L121.604 105.008C121.717 105.008 121.793 105.122 121.761 105.198L120.801 107.612C120.77 107.65 120.728 107.678 120.68 107.691C120.632 107.703 120.581 107.7 120.536 107.681Z" fill="#FF5C8A"/>
<path d="M137.856 112.478L137.275 112.32C137.161 112.288 137.085 112.2 137.117 112.13L138.077 109.71C138.108 109.671 138.15 109.643 138.198 109.63C138.246 109.618 138.297 109.621 138.343 109.64L138.924 109.805C139.038 109.836 139.107 109.918 139.082 109.988L138.121 112.383C138.09 112.478 138.001 112.509 137.856 112.478Z" fill="#FF5C8A"/>
<path d="M129.198 110.083L128.617 109.918C128.497 109.918 128.427 109.805 128.452 109.735L129.419 107.315C129.419 107.245 129.565 107.214 129.678 107.245L130.26 107.403C130.38 107.403 130.449 107.523 130.424 107.593L129.457 110.013C129.432 110.083 129.312 110.114 129.198 110.083Z" fill="#FF5C8A"/>
<path d="M137.312 60.5652C137.312 61.0075 137.122 61.3804 136.838 61.393C136.553 61.4056 136.294 61.0707 136.263 60.6284C136.231 60.186 136.452 59.8132 136.743 59.7942C137.034 59.7753 137.287 60.1165 137.312 60.5652Z" fill="#1C2D5E"/>
<path d="M132.314 60.849C132.314 61.2913 132.124 61.6641 131.833 61.6831C131.543 61.7021 131.296 61.3545 131.265 60.9122C131.233 60.4698 131.454 60.097 131.745 60.0843C132.036 60.0717 132.314 60.4129 132.314 60.849Z" fill="#1C2D5E"/>
<path d="M131.885 60.0971L130.811 59.8569C130.811 59.8569 131.398 60.6532 131.885 60.0971Z" fill="#1C2D5E"/>
<path d="M133.684 61.5317C133.349 62.5594 132.878 63.5372 132.281 64.4386C132.515 64.5858 132.778 64.6802 133.052 64.7151C133.326 64.7501 133.604 64.7247 133.867 64.6408L133.684 61.5317Z" fill="#ED847E"/>
<path d="M136.327 66.1448C136.064 66.2127 135.795 66.2529 135.524 66.2648C135.51 66.2666 135.495 66.2654 135.482 66.2611C135.468 66.2568 135.455 66.2497 135.444 66.2401C135.434 66.2305 135.425 66.2188 135.419 66.2056C135.413 66.1924 135.41 66.1781 135.41 66.1637C135.409 66.1496 135.411 66.1355 135.416 66.1221C135.421 66.1088 135.428 66.0964 135.437 66.0859C135.447 66.0753 135.458 66.0667 135.471 66.0605C135.484 66.0544 135.497 66.0508 135.511 66.05C136.064 66.0277 136.604 65.8766 137.087 65.6089C137.571 65.3413 137.986 64.9643 138.298 64.5081C138.314 64.4881 138.337 64.4746 138.363 64.47C138.388 64.4654 138.414 64.47 138.436 64.483C138.458 64.496 138.475 64.5165 138.483 64.5408C138.492 64.5651 138.491 64.5916 138.482 64.6155C137.984 65.3807 137.213 65.9276 136.327 66.1448Z" fill="#1C2D5E"/>
<path d="M138.961 57.3355C138.925 57.3447 138.888 57.3443 138.852 57.3344C138.817 57.3244 138.784 57.3051 138.759 57.2786C138.529 57.0361 138.244 56.8521 137.929 56.7422C137.613 56.6322 137.276 56.5995 136.945 56.6467C136.889 56.6565 136.832 56.6452 136.784 56.6148C136.736 56.5844 136.701 56.5371 136.686 56.4824C136.675 56.4263 136.685 56.368 136.716 56.3197C136.747 56.2714 136.795 56.2368 136.85 56.2233C137.251 56.1591 137.661 56.1922 138.046 56.3198C138.431 56.4473 138.779 56.6657 139.062 56.9563C139.101 56.9984 139.123 57.0537 139.123 57.1111C139.123 57.1686 139.101 57.2239 139.062 57.266C139.034 57.2967 139 57.3205 138.961 57.3355Z" fill="#1C2D5E"/>
<path d="M130.152 57.9738C130.118 57.9939 130.08 58.0045 130.041 58.0045C130.002 58.0045 129.964 57.9939 129.931 57.9738C129.886 57.9399 129.856 57.8898 129.848 57.8343C129.84 57.7788 129.854 57.7223 129.886 57.6768C130.119 57.3452 130.429 57.0745 130.789 56.8875C131.148 56.7005 131.547 56.6028 131.953 56.6025C131.981 56.6042 132.009 56.6113 132.034 56.6236C132.06 56.636 132.082 56.6532 132.101 56.6743C132.12 56.6954 132.134 56.7201 132.144 56.7468C132.153 56.7735 132.157 56.8018 132.155 56.83C132.153 56.8583 132.146 56.8859 132.134 56.9114C132.122 56.9368 132.104 56.9596 132.083 56.9784C132.062 56.9972 132.038 57.0116 132.011 57.0208C131.984 57.0301 131.956 57.034 131.928 57.0323C131.594 57.0376 131.267 57.1216 130.973 57.2776C130.679 57.4336 130.425 57.657 130.234 57.9296C130.21 57.9504 130.182 57.9655 130.152 57.9738Z" fill="#1C2D5E"/>
<path d="M123.827 80.8687C123.278 81.7028 122.778 82.3726 122.216 83.0804C121.654 83.7882 121.104 84.4517 120.522 85.1089C119.356 86.4298 118.116 87.6831 116.807 88.8626C115.505 90.0657 114.124 91.1804 112.674 92.1991C111.96 92.73 111.195 93.1913 110.449 93.6715L109.28 94.3414L108.699 94.67C108.484 94.7837 108.206 94.9354 107.941 95.0428C106.77 95.5726 105.468 95.744 104.2 95.5357C103.002 95.3097 101.884 94.7786 100.952 93.9938C100.165 93.3374 99.4716 92.5762 98.8914 91.7315C98.3564 90.9645 97.881 90.1574 97.4696 89.3175C95.9705 86.1347 94.9362 82.7531 94.3984 79.2762L96.9262 78.6948C97.4507 80.1988 98.0384 81.7597 98.7019 83.2194C99.3234 84.6787 100.056 86.0879 100.895 87.4344C101.594 88.653 102.52 89.7257 103.625 90.5941C103.992 90.8756 104.429 91.0524 104.888 91.1059C105.29 91.123 105.689 91.0267 106.039 90.8279C106.161 90.7656 106.279 90.696 106.392 90.6193L106.885 90.3034L107.865 89.6714C108.497 89.2038 109.129 88.7678 109.761 88.2685C111.005 87.2939 112.199 86.2562 113.337 85.1595C114.494 84.0662 115.574 82.8971 116.617 81.6965C117.142 81.0961 117.653 80.4895 118.146 79.8702C118.639 79.2509 119.132 78.6063 119.53 78.0376L123.827 80.8687Z" fill="#FFC3BD"/>
<path d="M97.4118 81.0268L97.9679 75.1309L92.666 77.2984C92.666 77.2984 93.2979 80.2621 95.3201 81.3238L97.4118 81.0268Z" fill="#FFC3BD"/>
<path d="M96.275 71.9462L92.1738 71.0552L92.6667 77.2986L97.9686 75.1311L96.275 71.9462Z" fill="#FFC3BD"/>
<path d="M123.327 72.7231C120.566 72.7231 113.918 83.2637 113.918 83.2637L118.613 88.1296C118.613 88.1296 127.46 82.1642 127.808 78.6506C128.111 75.63 126.841 72.7547 123.327 72.7231Z" fill="#1C2D5E"/>
<path opacity="0.1" d="M123.327 72.7231C120.566 72.7231 113.918 83.2637 113.918 83.2637L118.613 88.1296C118.613 88.1296 127.46 82.1642 127.808 78.6506C128.111 75.63 126.841 72.7547 123.327 72.7231Z" fill="white"/>
<path d="M119.043 88.3702C118.948 88.4648 118.82 88.5178 118.686 88.5178C118.552 88.5178 118.424 88.4648 118.329 88.3702L113.583 83.7192C113.489 83.6244 113.436 83.496 113.436 83.3622C113.436 83.2283 113.489 83.0999 113.583 83.0051C113.679 82.9102 113.808 82.8569 113.943 82.8569C114.078 82.8569 114.208 82.9102 114.304 83.0051L119.043 87.6498C119.138 87.7457 119.191 87.8751 119.191 88.01C119.191 88.1449 119.138 88.2744 119.043 88.3702Z" fill="#FF5C8A"/>
<path d="M89.3435 207.033C89.5168 207.029 89.6836 206.967 89.8174 206.856C89.8809 206.816 89.9317 206.758 89.964 206.69C89.9964 206.622 90.0091 206.546 90.0007 206.471C89.9438 205.789 88.2123 204.86 88.0101 204.752C87.993 204.741 87.9733 204.736 87.9532 204.736C87.9331 204.736 87.9134 204.741 87.8963 204.752C87.8787 204.765 87.8655 204.782 87.8587 204.803C87.8519 204.823 87.8518 204.845 87.8584 204.866C88.0543 205.561 88.4904 206.762 89.1223 206.983C89.1924 207.013 89.2673 207.03 89.3435 207.033ZM88.0796 205.068C88.7115 205.409 89.6973 206.067 89.7289 206.49C89.7332 206.528 89.7259 206.567 89.7078 206.6C89.6898 206.634 89.6619 206.662 89.6278 206.68C89.5639 206.74 89.4852 206.782 89.3998 206.802C89.3144 206.822 89.2252 206.819 89.1412 206.793C88.8 206.667 88.4082 206.029 88.0796 205.068Z" fill="#FF5C8A"/>
<path d="M89.5771 205.34C89.8506 205.361 90.1234 205.292 90.3544 205.144C90.4304 205.081 90.4821 204.994 90.5006 204.897C90.5191 204.8 90.5031 204.699 90.4555 204.613C90.4221 204.522 90.3683 204.44 90.2982 204.373C90.228 204.306 90.1435 204.257 90.051 204.228C89.3117 203.968 87.9341 204.72 87.8772 204.752C87.8608 204.762 87.8471 204.776 87.8372 204.793C87.8273 204.809 87.8215 204.828 87.8203 204.847C87.8203 204.866 87.8249 204.884 87.8337 204.901C87.8425 204.917 87.8553 204.931 87.8709 204.942C88.4026 205.2 88.9857 205.336 89.5771 205.34ZM89.6845 204.386C89.7857 204.385 89.8861 204.402 89.9815 204.436C90.0441 204.455 90.1015 204.488 90.1487 204.533C90.196 204.578 90.2318 204.634 90.2532 204.695C90.3228 204.859 90.2532 204.935 90.2153 204.98C89.893 205.251 88.7556 205.1 88.1679 204.847C88.6384 204.595 89.1537 204.439 89.6845 204.386Z" fill="#FF5C8A"/>
<path d="M125.419 220.753C125.861 220.785 126.302 220.682 126.683 220.456C126.781 220.382 126.861 220.287 126.915 220.177C126.97 220.067 126.999 219.946 126.999 219.824C127.007 219.76 126.997 219.696 126.97 219.638C126.943 219.579 126.901 219.53 126.847 219.495C126.26 219.091 123.896 220.177 123.631 220.304C123.609 220.313 123.591 220.33 123.58 220.35C123.569 220.371 123.564 220.394 123.568 220.418C123.57 220.439 123.579 220.46 123.594 220.475C123.609 220.491 123.628 220.502 123.65 220.506C124.229 220.65 124.822 220.733 125.419 220.753ZM126.455 219.634C126.547 219.628 126.639 219.648 126.721 219.691C126.752 219.691 126.784 219.748 126.778 219.836C126.777 219.923 126.755 220.009 126.714 220.086C126.673 220.162 126.615 220.229 126.544 220.279C126.013 220.683 124.718 220.512 124.016 220.386C124.785 220.008 125.608 219.755 126.455 219.634Z" fill="#FF5C8A"/>
<path d="M123.668 220.531H123.706C124.42 220.241 125.905 219.046 125.823 218.452C125.823 218.326 125.722 218.168 125.399 218.13C124.136 217.985 123.586 220.304 123.561 220.405C123.557 220.425 123.558 220.445 123.565 220.464C123.572 220.483 123.583 220.499 123.598 220.512C123.619 220.525 123.643 220.532 123.668 220.531ZM125.286 218.332H125.362C125.583 218.332 125.595 218.44 125.602 218.471C125.652 218.85 124.591 219.817 123.82 220.222C123.99 219.685 124.471 218.332 125.286 218.332Z" fill="#FF5C8A"/>
<path d="M136.869 59.8065L135.795 59.5664C135.795 59.5664 136.383 60.3626 136.869 59.8065Z" fill="#1C2D5E"/>
<path d="M25.2094 223.409L96.6804 217.169C101.534 216.745 105.125 212.467 104.701 207.613L89.8154 37.1225C89.3916 32.2688 85.1134 28.6777 80.2598 29.1015L8.78868 35.3418C3.93503 35.7656 0.343922 40.0438 0.767708 44.8975L15.6537 215.388C16.0775 220.242 20.3557 223.833 25.2094 223.409Z" fill="#FF5C8A"/>
<path d="M6.1173 95.2522C6.77938 95.1896 7.39012 94.8686 7.81714 94.3588C8.24416 93.849 8.45306 93.1914 8.39857 92.5286L6.43327 70.0446C6.3722 69.3825 6.05276 68.7712 5.54415 68.343C5.03554 67.9149 4.37872 67.7043 3.71597 67.757C3.05275 67.818 2.44043 68.1383 2.01207 68.6483C1.58372 69.1583 1.37396 69.8168 1.42838 70.4806L3.4 92.9647C3.46107 93.6267 3.78051 94.238 4.28912 94.6662C4.79772 95.0944 5.45455 95.3049 6.1173 95.2522Z" fill="#FF5C8A"/>
<path d="M93.4084 77.4685L94.2835 77.3921C95.3092 77.3026 96.068 76.3985 95.9785 75.3728L94.7791 61.6364C94.6896 60.6107 93.7855 59.8519 92.7598 59.9414L91.8848 60.0178C90.8591 60.1074 90.1002 61.0114 90.1898 62.0371L91.3892 75.7736C91.4787 76.7992 92.3828 77.5581 93.4084 77.4685Z" fill="#263238"/>
<path d="M94.4352 100.593L95.3135 100.514C96.3431 100.421 97.1026 99.5116 97.01 98.482L95.769 84.6933C95.6763 83.6637 94.7666 82.9042 93.737 82.9969L92.8586 83.0759C91.8291 83.1686 91.0695 84.0783 91.1622 85.1079L92.4032 98.8966C92.4958 99.9262 93.4056 100.686 94.4352 100.593Z" fill="#263238"/>
<path d="M26.7113 223.273L98.1824 217.033C103.036 216.609 106.627 212.331 106.203 207.477L91.3174 36.9867C90.8936 32.1331 86.6154 28.542 81.7617 28.9658L10.2906 35.2061C5.43699 35.6299 1.84587 39.9081 2.26965 44.7617L17.1557 215.252C17.5794 220.106 21.8577 223.697 26.7113 223.273Z" fill="#263238"/>
<path opacity="0.4" d="M19.6716 212.658L103.244 205.359C103.681 205.319 104.084 205.108 104.366 204.772C104.648 204.435 104.785 204.001 104.748 203.564L90.6058 41.4112C90.5656 40.9756 90.3553 40.5734 90.0205 40.2919C89.6857 40.0103 89.2534 39.8721 88.8174 39.9072L5.21308 47.2123C4.99732 47.2314 4.78741 47.2928 4.59537 47.393C4.40333 47.4932 4.23291 47.6302 4.09383 47.7963C3.95476 47.9624 3.84976 48.1542 3.78483 48.3609C3.7199 48.5675 3.69631 48.7849 3.71541 49.0007L17.8833 211.16C17.9015 211.376 17.9624 211.587 18.0623 211.779C18.1623 211.971 18.2993 212.142 18.4656 212.281C18.6318 212.421 18.824 212.526 19.031 212.59C19.238 212.655 19.4557 212.678 19.6716 212.658Z" fill="#FF5C8A"/>
<path opacity="0.3" d="M77.772 40.874L67.2693 208.5L49.8027 210.029L60.3054 42.397L77.772 40.874Z" fill="#FF5C8A"/>
<path opacity="0.2" d="M55.2937 35.4949L37.4464 37.0532C37.0327 37.0894 36.7266 37.4541 36.7627 37.8678L36.8259 38.5918C36.862 39.0055 37.2267 39.3116 37.6404 39.2755L55.4878 37.7172C55.9015 37.6811 56.2076 37.3164 56.1715 36.9026L56.1083 36.1787C56.0722 35.7649 55.7075 35.4588 55.2937 35.4949Z" fill="white"/>
<path d="M38.6619 100.452H125.622C127.881 100.459 130.045 101.359 131.642 102.956C133.24 104.554 134.14 106.718 134.147 108.977V151.632C134.14 153.892 133.24 156.057 131.643 157.655C130.046 159.253 127.881 160.155 125.622 160.163H95.5293L82.1387 173.554L68.7481 160.163H38.6619C36.4014 160.157 34.2354 159.256 32.6369 157.657C31.0385 156.059 30.1375 153.893 30.1309 151.632V108.977C30.1375 106.717 31.0387 104.552 32.6373 102.954C34.2359 101.357 36.402 100.457 38.6619 100.452Z" fill="#FF5C8A"/>
<path opacity="0.3" d="M38.6619 100.452H125.622C127.881 100.459 130.045 101.359 131.642 102.956C133.24 104.554 134.14 106.718 134.147 108.977V151.632C134.14 153.892 133.24 156.057 131.643 157.655C130.046 159.253 127.881 160.155 125.622 160.163H95.5293L82.1387 173.554L68.7481 160.163H38.6619C36.4014 160.157 34.2354 159.256 32.6369 157.657C31.0385 156.059 30.1375 153.893 30.1309 151.632V108.977C30.1375 106.717 31.0387 104.552 32.6373 102.954C34.2359 101.357 36.402 100.457 38.6619 100.452Z" fill="white"/>
<path d="M44.2345 115.233V145.376C44.2244 146.545 44.6773 147.671 45.4944 148.507C46.3114 149.343 47.4261 149.821 48.5949 149.838H115.681C116.849 149.821 117.964 149.343 118.781 148.507C119.598 147.671 120.051 146.545 120.041 145.376V115.233C120.04 114.662 119.933 114.097 119.725 113.565C119.407 112.749 118.852 112.047 118.131 111.549C117.41 111.051 116.557 110.78 115.681 110.772H48.5949C47.7195 110.78 46.8668 111.05 46.1468 111.548C45.4269 112.046 44.873 112.749 44.5568 113.565C44.3426 114.095 44.2332 114.662 44.2345 115.233Z" fill="white"/>
<path opacity="0.1" d="M44.5566 113.565L76.9873 127.689C78.6127 128.398 80.3671 128.765 82.1407 128.765C83.9142 128.765 85.6687 128.398 87.294 127.689L119.725 113.565C119.407 112.749 118.851 112.047 118.131 111.549C117.41 111.051 116.556 110.78 115.68 110.772H48.5947C47.7194 110.78 46.8666 111.05 46.1466 111.548C45.4267 112.046 44.8728 112.749 44.5566 113.565Z" fill="black"/>
<path d="M46.0115 113.409C51.0755 108.345 51.0755 100.135 46.0115 95.071C40.9475 90.007 32.7371 90.007 27.6731 95.071C22.6091 100.135 22.6091 108.345 27.6731 113.409C32.7371 118.473 40.9475 118.473 46.0115 113.409Z" fill="#DE5753"/>
<path d="M39.3435 112.143H36.3228V100.769C35.2062 101.807 33.8752 102.588 32.4238 103.056V100.32C33.3559 99.9773 34.2234 99.4795 34.9895 98.8475C35.8523 98.2057 36.5107 97.3278 36.8853 96.3198H39.3371L39.3435 112.143Z" fill="white"/>
<path d="M109.797 23.8628C109.347 23.8591 108.913 23.6956 108.573 23.4016C108.233 23.1076 108.008 22.7021 107.939 22.2577C107.072 16.5607 103.982 11.4398 99.3453 8.01765C94.709 4.59545 88.9049 3.15111 83.2054 4.00121C82.7427 4.01337 82.2916 3.85586 81.937 3.55837C81.5824 3.26088 81.349 2.84396 81.2806 2.38621C81.2122 1.92847 81.3136 1.46151 81.5657 1.07338C81.8179 0.685251 82.2032 0.402753 82.6493 0.279148C89.3351 -0.717551 96.1433 0.977984 101.581 4.9939C107.018 9.00982 110.641 15.0183 111.655 21.7016C111.724 22.1936 111.597 22.6931 111.302 23.0925C111.006 23.492 110.566 23.7595 110.075 23.8375C109.983 23.855 109.89 23.8635 109.797 23.8628Z" fill="#FF5C8A"/>
<path d="M100.451 25.2659C100.002 25.2624 99.569 25.0999 99.2288 24.8071C98.8886 24.5144 98.6633 24.1104 98.593 23.6671C98.1049 20.446 96.3591 17.55 93.7387 15.6143C91.1182 13.6786 87.837 12.8612 84.6147 13.3414C84.1514 13.3553 83.6991 13.199 83.3432 12.902C82.9874 12.605 82.7526 12.188 82.6834 11.7297C82.6141 11.2714 82.7152 10.8036 82.9674 10.4147C83.2196 10.0259 83.6056 9.74291 84.0523 9.6193C88.2617 8.99048 92.5486 10.0572 95.9724 12.5854C99.3962 15.1135 101.677 18.8967 102.315 23.1047C102.386 23.5977 102.26 24.0988 101.964 24.4997C101.669 24.9006 101.227 25.169 100.735 25.2469C100.641 25.2595 100.546 25.2659 100.451 25.2659Z" fill="#FF5C8A"/>
<path d="M91.1107 26.675C90.661 26.6713 90.2272 26.5078 89.8869 26.2138C89.5465 25.9198 89.3218 25.5143 89.2529 25.0699C89.1981 24.7002 89.0708 24.345 88.8783 24.0247C88.6859 23.7044 88.4321 23.4252 88.1314 23.2033C87.8308 22.9813 87.4893 22.8209 87.1265 22.7313C86.7637 22.6417 86.3868 22.6247 86.0174 22.6812C85.5588 22.6874 85.1135 22.5272 84.764 22.2303C84.4145 21.9333 84.1845 21.5197 84.1166 21.0662C84.0487 20.6126 84.1475 20.1498 84.3948 19.7635C84.6421 19.3772 85.021 19.0937 85.4613 18.9654C86.3214 18.8357 87.1986 18.8773 88.0426 19.0879C88.8865 19.2984 89.6805 19.6738 90.3788 20.1924C91.0771 20.711 91.666 21.3626 92.1116 22.1096C92.5571 22.8567 92.8505 23.6845 92.9749 24.5454C93.044 25.0374 92.9172 25.5369 92.6217 25.9363C92.3263 26.3358 91.8858 26.6033 91.3951 26.6813C91.3003 26.6886 91.2051 26.6864 91.1107 26.675Z" fill="#FF5C8A"/>
</svg>
