<svg width="134" height="158" viewBox="0 0 134 158" fill="none" xmlns="http://www.w3.org/2000/svg">
<path d="M66.6514 157.999C103.462 157.999 133.303 156.257 133.303 154.108C133.303 151.959 103.462 150.217 66.6514 150.217C29.8409 150.217 0 151.959 0 154.108C0 156.257 29.8409 157.999 66.6514 157.999Z" fill="#F5F5F5"/>
<path d="M7.29298 110.674H6.94922V115.294H7.29298V110.674Z" fill="#1C2D5E"/>
<path d="M7.29298 116.67H6.94922V118.581H7.29298V116.67Z" fill="#1C2D5E"/>
<path d="M8.15332 93.7891H64.3682V154.108H9.76211C9.33635 154.108 8.92802 153.939 8.62695 153.638C8.32589 153.337 8.15676 152.929 8.15676 152.503V93.7891H8.15332Z" fill="#1C2D5E"/>
<path opacity="0.2" d="M64.3682 93.7891H8.15332V98.0654H40.4976L41.5701 154.108L42.3195 98.0654H64.3682V93.7891Z" fill="black"/>
<path d="M7.66815 84.6211H64.3677V96.8452H7.66815C7.45573 96.8452 7.252 96.7608 7.10179 96.6106C6.95158 96.4604 6.86719 96.2566 6.86719 96.0442V85.4255C6.86674 85.32 6.88713 85.2155 6.92718 85.1179C6.96722 85.0203 7.02615 84.9316 7.10057 84.8569C7.17499 84.7822 7.26344 84.7229 7.36084 84.6824C7.45825 84.6419 7.56268 84.6211 7.66815 84.6211V84.6211Z" fill="#1C2D5E"/>
<path d="M29.7997 154.109L29.2119 84.6211H41.436L42.0204 154.109H29.7997Z" fill="#263238"/>
<path d="M86.5231 154.107H64.3816V93.7881H88.1182L88.1182 152.502C88.1182 152.926 87.9505 153.333 87.6516 153.634C87.3528 153.934 86.9471 154.105 86.5231 154.107V154.107Z" fill="#1C2D5E"/>
<path opacity="0.2" d="M86.5231 154.107H64.3816V93.7881H88.1182L88.1182 152.502C88.1182 152.926 87.9505 153.333 87.6516 153.634C87.3528 153.934 86.9471 154.105 86.5231 154.107V154.107Z" fill="black"/>
<path opacity="0.2" d="M64.3672 93.7891H88.114V98.0654H74.8622L73.0608 154.108L73.2568 98.0654H64.3672V93.7891Z" fill="black"/>
<path d="M88.6024 96.8447H64.3673V84.6207H88.6024C88.7075 84.6207 88.8117 84.6414 88.9089 84.6816C89.006 84.7219 89.0943 84.7809 89.1687 84.8553C89.2431 84.9296 89.3021 85.0179 89.3423 85.1151C89.3826 85.2123 89.4033 85.3164 89.4033 85.4216V96.0403C89.4038 96.1458 89.3834 96.2503 89.3433 96.3479C89.3033 96.4455 89.2444 96.5342 89.1699 96.6089C89.0955 96.6837 89.0071 96.743 88.9097 96.7834C88.8123 96.8239 88.7078 96.8447 88.6024 96.8447V96.8447Z" fill="#1C2D5E"/>
<path opacity="0.2" d="M88.6024 96.8447H64.3673V84.6207H88.6024C88.7075 84.6207 88.8117 84.6414 88.9089 84.6816C89.006 84.7219 89.0943 84.7809 89.1687 84.8553C89.2431 84.9296 89.3021 85.0179 89.3423 85.1151C89.3826 85.2123 89.4033 85.3164 89.4033 85.4216V96.0403C89.4038 96.1458 89.3834 96.2503 89.3433 96.3479C89.3033 96.4455 89.2444 96.5342 89.1699 96.6089C89.0955 96.6837 89.0071 96.743 88.9097 96.7834C88.8123 96.8239 88.7078 96.8447 88.6024 96.8447V96.8447Z" fill="black"/>
<path d="M73.0615 154.109L74.0859 84.6211H81.7139L80.6895 154.109H73.0615Z" fill="#263238"/>
<path opacity="0.2" d="M73.0615 154.109L74.0859 84.6211H81.7139L80.6895 154.109H73.0615Z" fill="black"/>
<path d="M77.0424 61.5543V61.5371H67.0425C66.4669 61.585 65.9052 61.7389 65.3856 61.9909C55.2447 66.2397 50.3152 77.3741 48.1357 84.6068H58.366C58.366 84.6068 82.5769 60.8668 77.0424 61.5543Z" fill="#263238"/>
<path opacity="0.5" d="M58.3662 84.6213C58.3662 75.2264 65.4751 66.2543 75.616 62.0055C85.7569 57.7566 58.3662 84.6213 58.3662 84.6213Z" fill="black"/>
<path d="M79.6549 67.5052H72.2332C71.7595 67.5459 71.2953 67.662 70.8582 67.849C62.1129 71.0047 55.2618 79.2721 51.5664 84.6416H59.1635C59.1635 84.6416 83.9622 66.9896 79.6549 67.5052Z" fill="#263238"/>
<path opacity="0.5" d="M59.1768 84.6213C62.7553 75.3399 69.7233 70.9844 78.4685 67.8287C87.2137 64.673 59.1768 84.6213 59.1768 84.6213Z" fill="black"/>
<path d="M29.6788 58.6224V58.6018H19.6548C19.4711 58.5982 19.2898 58.6439 19.1297 58.7339C18.9695 58.824 18.8363 58.9552 18.7439 59.1139C15.6157 63.9025 29.0566 76.46 38.8297 84.6174H49.06C49.06 84.6174 34.0721 57.842 29.6788 58.6224Z" fill="#263238"/>
<path opacity="0.5" d="M49.0598 84.6213C39.3005 76.4639 25.8458 63.9064 28.974 59.1178C32.1022 54.3292 49.0598 84.6213 49.0598 84.6213Z" fill="black"/>
<path d="M40.13 65.3355H32.691C32.541 65.3392 32.3935 65.3748 32.2583 65.44C32.1232 65.5052 32.0035 65.5985 31.9072 65.7136C28.5934 69.2715 35.9773 78.5977 41.5325 84.6513H49.1192C49.1192 84.6513 43.5504 64.7373 40.13 65.3355Z" fill="#263238"/>
<path opacity="0.5" d="M49.1187 84.62C43.5635 78.563 36.1761 69.2402 39.4934 65.6823C42.8107 62.1244 49.1187 84.62 49.1187 84.62Z" fill="black"/>
<path d="M59.451 47.0123C65.7034 40.76 65.7034 30.6229 59.451 24.3705C53.1987 18.1181 43.0616 18.1181 36.8092 24.3705C30.5568 30.6229 30.5568 40.76 36.8092 47.0123C43.0616 53.2647 53.1987 53.2647 59.451 47.0123Z" fill="#1C2D5E"/>
<path opacity="0.4" d="M59.451 47.0123C65.7034 40.76 65.7034 30.6229 59.451 24.3705C53.1987 18.1181 43.0616 18.1181 36.8092 24.3705C30.5568 30.6229 30.5568 40.76 36.8092 47.0123C43.0616 53.2647 53.1987 53.2647 59.451 47.0123Z" fill="black"/>
<path opacity="0.2" d="M61.3846 37.9519C62.633 30.6325 57.7116 23.6869 50.3923 22.4384C43.0729 21.1899 36.1273 26.1113 34.8788 33.4307C33.6303 40.7501 38.5517 47.6957 45.8711 48.9442C53.1904 50.1927 60.1361 45.2713 61.3846 37.9519Z" fill="black"/>
<path d="M62.0266 36.9787C62.5255 29.8508 57.1517 23.6679 50.0237 23.169C42.8958 22.67 36.7129 28.0439 36.214 35.1718C35.715 42.2998 41.0889 48.4826 48.2169 48.9816C55.3448 49.4805 61.5276 44.1067 62.0266 36.9787Z" fill="#1C2D5E"/>
<path opacity="0.4" d="M62.0266 36.9787C62.5255 29.8508 57.1517 23.6679 50.0237 23.169C42.8958 22.67 36.7129 28.0439 36.214 35.1718C35.715 42.2998 41.0889 48.4826 48.2169 48.9816C55.3448 49.4805 61.5276 44.1067 62.0266 36.9787Z" fill="black"/>
<path d="M53.4468 34.4589L54.2893 38.1096C54.325 38.249 54.3314 38.3943 54.308 38.5363C54.2846 38.6783 54.2319 38.8139 54.1533 38.9344C54.0769 39.0576 53.9766 39.1642 53.8583 39.248C53.74 39.3318 53.6061 39.391 53.4645 39.4221L50.2542 40.1641L50.8454 42.733C50.8802 42.8718 50.8855 43.0164 50.8611 43.1574C50.8367 43.2984 50.783 43.4328 50.7035 43.5518C50.6272 43.673 50.5266 43.777 50.408 43.8574C50.2895 43.9378 50.1556 43.9928 50.0147 44.0189C49.8737 44.0542 49.727 44.0609 49.5833 44.0386C49.4396 44.0162 49.3018 43.9653 49.1782 43.8888C49.055 43.8163 48.9482 43.7189 48.8648 43.6029C48.7813 43.4868 48.7229 43.3547 48.6934 43.2148L48.1022 40.6164L44.9184 41.3525C44.7812 41.3856 44.6388 41.3906 44.4996 41.3673C44.3604 41.3439 44.2273 41.2926 44.1085 41.2165C43.985 41.144 43.8778 41.0467 43.7939 40.9307C43.7099 40.8147 43.651 40.6825 43.6207 40.5425C43.5871 40.4044 43.5818 40.2609 43.6052 40.1206C43.6286 39.9804 43.6801 39.8464 43.7567 39.7266C43.8298 39.6042 43.9274 39.4982 44.0434 39.4153C44.1593 39.3324 44.2912 39.2743 44.4307 39.2448L51.88 37.5273L51.5312 36.0108L44.1026 37.7224C43.965 37.7575 43.8218 37.7643 43.6816 37.7425C43.5414 37.7206 43.407 37.6705 43.2867 37.5953C43.1633 37.5212 43.0567 37.4222 42.9737 37.3047C42.8908 37.1871 42.8333 37.0535 42.8048 36.9124L41.9653 33.2764C41.9007 32.9969 41.9497 32.7032 42.1016 32.4599C42.2535 32.2165 42.4958 32.0434 42.7753 31.9787L45.9442 31.2485L45.353 28.6767C45.3187 28.5408 45.312 28.3993 45.3334 28.2607C45.3547 28.1221 45.4036 27.9891 45.4771 27.8697C45.5551 27.7404 45.6598 27.6292 45.7842 27.5436C45.9086 27.4579 46.0498 27.3998 46.1984 27.3731C46.3351 27.3399 46.4772 27.3348 46.6159 27.3582C46.7546 27.3815 46.8872 27.4329 47.0054 27.5091C47.1268 27.5837 47.2319 27.6822 47.3142 27.7986C47.3965 27.9149 47.4544 28.0467 47.4843 28.186L48.0756 30.7549L51.3273 30.0099C51.4679 29.9759 51.614 29.9706 51.7568 29.9945C51.8995 30.0184 52.036 30.0709 52.1579 30.1489C52.2813 30.2198 52.3885 30.3155 52.473 30.43C52.5575 30.5445 52.6173 30.6752 52.6486 30.814C52.7109 31.0999 52.6589 31.3988 52.5037 31.6468C52.3484 31.8949 52.1023 32.0723 51.818 32.1413L44.3686 33.8588L44.6938 35.3664L52.1165 33.6548C52.2572 33.6207 52.4033 33.6155 52.5461 33.6394C52.6888 33.6633 52.8253 33.7158 52.9472 33.7937C53.0725 33.8633 53.1818 33.9584 53.2679 34.0731C53.354 34.1877 53.4149 34.3191 53.4468 34.4589V34.4589Z" fill="#1C2D5E"/>
<g opacity="0.7">
<path d="M53.4468 34.4589L54.2893 38.1096C54.325 38.249 54.3314 38.3943 54.308 38.5363C54.2846 38.6783 54.2319 38.8139 54.1533 38.9344C54.0769 39.0576 53.9766 39.1642 53.8583 39.248C53.74 39.3318 53.6061 39.391 53.4645 39.4221L50.2542 40.1641L50.8454 42.733C50.8802 42.8718 50.8855 43.0164 50.8611 43.1574C50.8367 43.2984 50.783 43.4328 50.7035 43.5518C50.6272 43.673 50.5266 43.777 50.408 43.8574C50.2895 43.9378 50.1556 43.9928 50.0147 44.0189C49.8737 44.0542 49.727 44.0609 49.5833 44.0386C49.4396 44.0162 49.3018 43.9653 49.1782 43.8888C49.055 43.8163 48.9482 43.7189 48.8648 43.6029C48.7813 43.4868 48.7229 43.3547 48.6934 43.2148L48.1022 40.6164L44.9184 41.3525C44.7812 41.3856 44.6388 41.3906 44.4996 41.3673C44.3604 41.3439 44.2273 41.2926 44.1085 41.2165C43.985 41.144 43.8778 41.0467 43.7939 40.9307C43.7099 40.8147 43.651 40.6825 43.6207 40.5425C43.5871 40.4044 43.5818 40.2609 43.6052 40.1206C43.6286 39.9804 43.6801 39.8464 43.7567 39.7266C43.8298 39.6042 43.9274 39.4982 44.0434 39.4153C44.1593 39.3324 44.2912 39.2743 44.4307 39.2448L51.88 37.5273L51.5312 36.0108L44.1026 37.7224C43.965 37.7575 43.8218 37.7643 43.6816 37.7425C43.5414 37.7206 43.407 37.6705 43.2867 37.5953C43.1633 37.5212 43.0567 37.4222 42.9737 37.3047C42.8908 37.1871 42.8333 37.0535 42.8048 36.9124L41.9653 33.2764C41.9007 32.9969 41.9497 32.7032 42.1016 32.4599C42.2535 32.2165 42.4958 32.0434 42.7753 31.9787L45.9442 31.2485L45.353 28.6767C45.3187 28.5408 45.312 28.3993 45.3334 28.2607C45.3547 28.1221 45.4036 27.9891 45.4771 27.8697C45.5551 27.7404 45.6598 27.6292 45.7842 27.5436C45.9086 27.4579 46.0498 27.3998 46.1984 27.3731C46.3351 27.3399 46.4772 27.3348 46.6159 27.3582C46.7546 27.3815 46.8872 27.4329 47.0054 27.5091C47.1268 27.5837 47.2319 27.6822 47.3142 27.7986C47.3965 27.9149 47.4544 28.0467 47.4843 28.186L48.0756 30.7549L51.3273 30.0099C51.4679 29.9759 51.614 29.9706 51.7568 29.9945C51.8995 30.0184 52.036 30.0709 52.1579 30.1489C52.2813 30.2198 52.3885 30.3155 52.473 30.43C52.5575 30.5445 52.6173 30.6752 52.6486 30.814C52.7109 31.0999 52.6589 31.3988 52.5037 31.6468C52.3484 31.8949 52.1023 32.0723 51.818 32.1413L44.3686 33.8588L44.6938 35.3664L52.1165 33.6548C52.2572 33.6207 52.4033 33.6155 52.5461 33.6394C52.6888 33.6633 52.8253 33.7158 52.9472 33.7937C53.0725 33.8633 53.1818 33.9584 53.2679 34.0731C53.354 34.1877 53.4149 34.3191 53.4468 34.4589V34.4589Z" fill="#D7EB36"/>
</g>
<path d="M82.2944 22.9594C86.2777 18.2458 85.6857 11.1956 80.9721 7.21233C76.2585 3.22906 69.2083 3.82108 65.2251 8.53466C61.2418 13.2482 61.8338 20.2984 66.5474 24.2817C71.261 28.265 78.3111 27.6729 82.2944 22.9594Z" fill="#1C2D5E"/>
<path opacity="0.4" d="M82.2944 22.9594C86.2777 18.2458 85.6857 11.1956 80.9721 7.21233C76.2585 3.22906 69.2083 3.82108 65.2251 8.53466C61.2418 13.2482 61.8338 20.2984 66.5474 24.2817C71.261 28.265 78.3111 27.6729 82.2944 22.9594Z" fill="black"/>
<path opacity="0.2" d="M80.993 21.7161C84.2947 17.7222 83.7336 11.808 79.7397 8.50633C75.7458 5.20467 69.8316 5.76581 66.53 9.75968C63.2283 13.7535 63.7894 19.6677 67.7833 22.9694C71.7772 26.2711 77.6914 25.7099 80.993 21.7161Z" fill="black"/>
<path d="M81.2755 21.8148C84.2962 17.8625 83.541 12.2096 79.5886 9.18891C75.6362 6.16818 69.9834 6.92343 66.9627 10.8758C63.9419 14.8282 64.6972 20.481 68.6496 23.5017C72.602 26.5225 78.2548 25.7672 81.2755 21.8148Z" fill="#1C2D5E"/>
<path opacity="0.4" d="M81.2755 21.8148C84.2962 17.8625 83.541 12.2096 79.5886 9.18891C75.6362 6.16818 69.9834 6.92343 66.9627 10.8758C63.9419 14.8282 64.6972 20.481 68.6496 23.5017C72.602 26.5225 78.2548 25.7672 81.2755 21.8148Z" fill="black"/>
<path d="M77.4532 16.6639L76.8177 19.2002C76.7946 19.2967 76.7517 19.3873 76.6916 19.4662C76.6315 19.5451 76.5557 19.6105 76.4688 19.6584C76.3811 19.7118 76.2836 19.7469 76.182 19.7616C76.0804 19.7763 75.9769 19.7704 75.8776 19.7442L73.6635 19.1855L73.2142 20.9591C73.1913 21.056 73.1485 21.1471 73.0884 21.2265C73.0284 21.3059 72.9524 21.3719 72.8654 21.4203C72.7815 21.4723 72.688 21.5068 72.5904 21.5215C72.4928 21.5362 72.3933 21.531 72.2978 21.506C72.1995 21.4829 72.1067 21.4404 72.025 21.381C71.9433 21.3216 71.8742 21.2465 71.8219 21.1601C71.7685 21.0757 71.7331 20.9813 71.7178 20.8826C71.7026 20.784 71.7078 20.6832 71.7332 20.5866L72.1855 18.7834L69.9684 18.2425C69.8723 18.2195 69.7819 18.1772 69.7027 18.1183C69.6234 18.0594 69.5569 17.9849 69.5072 17.8996C69.4538 17.8158 69.4183 17.7218 69.4031 17.6236C69.3878 17.5254 69.3931 17.4251 69.4186 17.329C69.4407 17.2318 69.4825 17.1402 69.5415 17.0599C69.6005 16.9795 69.6754 16.9122 69.7615 16.862C69.8465 16.8101 69.9411 16.776 70.0397 16.7618C70.1383 16.7476 70.2387 16.7535 70.3349 16.7792L75.5081 18.0769L75.7742 17.0246L70.6158 15.7298C70.5192 15.7082 70.4281 15.6668 70.3482 15.6083C70.2683 15.5498 70.2014 15.4754 70.1517 15.3898C70.0981 15.3055 70.0631 15.2108 70.0488 15.112C70.0345 15.0131 70.0414 14.9124 70.0689 14.8164L70.7015 12.2889C70.7253 12.1926 70.768 12.1019 70.8271 12.0222C70.8861 11.9424 70.9604 11.8752 71.0456 11.8243C71.1308 11.7735 71.2253 11.74 71.3235 11.7259C71.4217 11.7118 71.5218 11.7172 71.6179 11.742L73.8113 12.2919L74.2606 10.5182C74.2824 10.4181 74.3246 10.3236 74.3847 10.2406C74.4447 10.1576 74.5213 10.0879 74.6096 10.036C74.6979 9.98406 74.796 9.95097 74.8978 9.93883C74.9995 9.92668 75.1026 9.93573 75.2007 9.96541C75.296 9.98748 75.3856 10.0291 75.464 10.0876C75.5423 10.1461 75.6077 10.2203 75.6559 10.3054C75.7082 10.3896 75.7428 10.4837 75.7575 10.5818C75.7723 10.6799 75.7669 10.78 75.7416 10.8759L75.2923 12.6495L77.5389 13.2142C77.6375 13.2377 77.7302 13.281 77.8116 13.3415C77.8929 13.402 77.961 13.4783 78.0119 13.5659C78.0658 13.649 78.102 13.7422 78.1183 13.8399C78.1345 13.9375 78.1305 14.0375 78.1065 14.1335C78.0818 14.232 78.0378 14.3245 77.9768 14.4058C77.9159 14.487 77.8394 14.5552 77.7518 14.6065C77.6645 14.6608 77.567 14.6967 77.4653 14.7119C77.3637 14.7272 77.26 14.7215 77.1606 14.6952L71.9844 13.3974L71.7243 14.4439L76.8797 15.7357C76.9783 15.7592 77.071 15.8026 77.1523 15.863C77.2336 15.9235 77.3018 15.9999 77.3527 16.0875C77.4097 16.1708 77.4481 16.2654 77.4654 16.3648C77.4828 16.4642 77.4786 16.5662 77.4532 16.6639V16.6639Z" fill="#1C2D5E"/>
<g opacity="0.7">
<path d="M77.4532 16.6639L76.8177 19.2002C76.7946 19.2967 76.7517 19.3873 76.6916 19.4662C76.6315 19.5451 76.5557 19.6105 76.4688 19.6584C76.3811 19.7118 76.2836 19.7469 76.182 19.7616C76.0804 19.7763 75.9769 19.7704 75.8776 19.7442L73.6635 19.1855L73.2142 20.9591C73.1913 21.056 73.1485 21.1471 73.0884 21.2265C73.0284 21.3059 72.9524 21.3719 72.8654 21.4203C72.7815 21.4723 72.688 21.5068 72.5904 21.5215C72.4928 21.5362 72.3933 21.531 72.2978 21.506C72.1995 21.4829 72.1067 21.4404 72.025 21.381C71.9433 21.3216 71.8742 21.2465 71.8219 21.1601C71.7685 21.0757 71.7331 20.9813 71.7178 20.8826C71.7026 20.784 71.7078 20.6832 71.7332 20.5866L72.1855 18.7834L69.9684 18.2425C69.8723 18.2195 69.7819 18.1772 69.7027 18.1183C69.6234 18.0594 69.5569 17.9849 69.5072 17.8996C69.4538 17.8158 69.4183 17.7218 69.4031 17.6236C69.3878 17.5254 69.3931 17.4251 69.4186 17.329C69.4407 17.2318 69.4825 17.1402 69.5415 17.0599C69.6005 16.9795 69.6754 16.9122 69.7615 16.862C69.8465 16.8101 69.9411 16.776 70.0397 16.7618C70.1383 16.7476 70.2387 16.7535 70.3349 16.7792L75.5081 18.0769L75.7742 17.0246L70.6158 15.7298C70.5192 15.7082 70.4281 15.6668 70.3482 15.6083C70.2683 15.5498 70.2014 15.4754 70.1517 15.3898C70.0981 15.3055 70.0631 15.2108 70.0488 15.112C70.0345 15.0131 70.0414 14.9124 70.0689 14.8164L70.7015 12.2889C70.7253 12.1926 70.768 12.1019 70.8271 12.0222C70.8861 11.9424 70.9604 11.8752 71.0456 11.8243C71.1308 11.7735 71.2253 11.74 71.3235 11.7259C71.4217 11.7118 71.5218 11.7172 71.6179 11.742L73.8113 12.2919L74.2606 10.5182C74.2824 10.4181 74.3246 10.3236 74.3847 10.2406C74.4447 10.1576 74.5213 10.0879 74.6096 10.036C74.6979 9.98406 74.796 9.95097 74.8978 9.93883C74.9995 9.92668 75.1026 9.93573 75.2007 9.96541C75.296 9.98748 75.3856 10.0291 75.464 10.0876C75.5423 10.1461 75.6077 10.2203 75.6559 10.3054C75.7082 10.3896 75.7428 10.4837 75.7575 10.5818C75.7723 10.6799 75.7669 10.78 75.7416 10.8759L75.2923 12.6495L77.5389 13.2142C77.6375 13.2377 77.7302 13.281 77.8116 13.3415C77.8929 13.402 77.961 13.4783 78.0119 13.5659C78.0658 13.649 78.102 13.7422 78.1183 13.8399C78.1345 13.9375 78.1305 14.0375 78.1065 14.1335C78.0818 14.232 78.0378 14.3245 77.9768 14.4058C77.9159 14.487 77.8394 14.5552 77.7518 14.6065C77.6645 14.6608 77.567 14.6967 77.4653 14.7119C77.3637 14.7272 77.26 14.7215 77.1606 14.6952L71.9844 13.3974L71.7243 14.4439L76.8797 15.7357C76.9783 15.7592 77.071 15.8026 77.1523 15.863C77.2336 15.9235 77.3018 15.9999 77.3527 16.0875C77.4097 16.1708 77.4481 16.2654 77.4654 16.3648C77.4828 16.4642 77.4786 16.5662 77.4532 16.6639V16.6639Z" fill="#D7EB36"/>
</g>
<path d="M104.529 59.0038C103.605 61.6118 102.58 64.1341 101.492 66.6563C100.391 69.2212 99.1284 71.7134 97.7108 74.1178C97.5198 74.4258 97.321 74.7338 97.1144 75.0417L96.9624 75.2717L96.7557 75.5563C96.6154 75.7357 96.4829 75.8916 96.3659 76.0436C95.8747 76.5912 95.3541 77.1117 94.8066 77.603C93.7657 78.5659 92.7053 79.4391 91.6333 80.3006C89.4814 82.0081 87.2827 83.6065 85.006 85.1229L83.6455 83.4349L89.3761 77.7862C90.3234 76.8467 91.2629 75.8994 92.1401 74.9521C92.5728 74.4804 92.9938 73.997 93.3408 73.5526C93.4265 73.4434 93.5006 73.3343 93.5669 73.2407L93.6487 73.1081L93.7618 72.9054C93.9138 72.6364 94.0737 72.3753 94.2218 72.0985C95.4147 69.8569 96.4673 67.4204 97.4808 64.9489C98.4944 62.4773 99.469 59.9862 100.405 57.5146L104.529 59.0038Z" fill="#E4897B"/>
<path d="M105.625 57.126C106.51 59.7145 101.309 67.328 101.309 67.328L96.3428 64.5641C97.1891 62.1885 98.1892 59.8706 99.3367 57.625C101.075 54.3347 104.654 54.2841 105.625 57.126Z" fill="#1C2D5E"/>
<path opacity="0.7" d="M105.625 57.126C106.51 59.7145 101.309 67.328 101.309 67.328L96.3428 64.5641C97.1891 62.1885 98.1892 59.8706 99.3367 57.625C101.075 54.3347 104.654 54.2841 105.625 57.126Z" fill="white"/>
<path opacity="0.31" d="M105.699 57.4485C104.584 56.9144 103.302 57.3627 101.949 59.499C100.596 61.6354 99.446 65.2024 99.3213 66.2198L101.313 67.3231C101.313 67.3231 106.112 60.2904 105.699 57.4485Z" fill="#1C2D5E"/>
<path d="M102.261 55.1447C102.261 55.1447 98.5493 63.8732 101.224 80.1255H116.681C116.872 77.7514 115.78 66.1771 118.458 54.9966C116.757 54.6653 115.035 54.4466 113.305 54.3417C111.117 54.2168 108.924 54.2168 106.736 54.3417C105.226 54.495 103.73 54.7635 102.261 55.1447V55.1447Z" fill="#1C2D5E"/>
<path opacity="0.7" d="M102.261 55.1447C102.261 55.1447 98.5493 63.8732 101.224 80.1255H116.681C116.872 77.7514 115.78 66.1771 118.458 54.9966C116.757 54.6653 115.035 54.4466 113.305 54.3417C111.117 54.2168 108.924 54.2168 106.736 54.3417C105.226 54.495 103.73 54.7635 102.261 55.1447V55.1447Z" fill="white"/>
<path d="M122.154 149.373L119.865 151.423L115.503 146.882L117.795 144.831L122.154 149.373Z" fill="#E4897B"/>
<path d="M114.307 153.638H111.418L111.044 146.948H113.933L114.307 153.638Z" fill="#E4897B"/>
<path d="M115.507 146.882L117.752 149.225L120.045 147.17L117.799 144.831L115.507 146.882Z" fill="#CE6F64"/>
<path d="M113.933 146.948H111.044L111.239 150.398H114.128L113.933 146.948Z" fill="#CE6F64"/>
<path d="M101.223 80.126C101.223 80.126 98.1787 101.201 97.1417 112.67C96.3075 121.874 116.209 149.314 116.209 149.314L120.056 145.693C120.056 145.693 105.523 121.09 106.642 110.845C107.726 100.924 111.398 80.1143 111.398 80.1143L101.223 80.126Z" fill="#1C2D5E"/>
<path opacity="0.7" d="M101.223 80.126C101.223 80.126 98.1787 101.201 97.1417 112.67C96.3075 121.874 116.209 149.314 116.209 149.314L120.056 145.693C120.056 145.693 105.523 121.09 106.642 110.845C107.726 100.924 111.398 80.1143 111.398 80.1143L101.223 80.126Z" fill="black"/>
<path opacity="0.2" d="M106.642 110.857C107.2 105.746 108.447 97.7388 109.519 91.1818C108.958 90.0824 107.383 87.8564 107.383 87.8564C105.972 92.7333 102.904 111.118 107.282 135.947C111.843 143.299 116.209 149.326 116.209 149.326L116.805 139.845C112.591 131.916 105.866 117.94 106.642 110.857Z" fill="black"/>
<path d="M106.72 80.126C106.72 80.126 106.447 102.21 106.915 110.487C107.425 119.546 109.998 149.568 109.998 149.568H115.292C115.292 149.568 115.132 120.279 115.444 111.313C115.791 101.567 116.688 80.126 116.688 80.126H106.72Z" fill="#1C2D5E"/>
<path opacity="0.7" d="M106.72 80.126C106.72 80.126 106.447 102.21 106.915 110.487C107.425 119.546 109.998 149.568 109.998 149.568H115.292C115.292 149.568 115.132 120.279 115.444 111.313C115.791 101.567 116.688 80.126 116.688 80.126H106.72Z" fill="black"/>
<path d="M111.266 153.306H114.513C114.568 153.304 114.62 153.323 114.66 153.359C114.701 153.396 114.725 153.447 114.728 153.501L114.888 156.07C114.888 156.137 114.875 156.203 114.85 156.265C114.825 156.328 114.788 156.384 114.741 156.432C114.694 156.48 114.638 156.518 114.576 156.544C114.514 156.57 114.448 156.584 114.381 156.584C113.25 156.565 112.708 156.499 111.282 156.499C110.404 156.499 106.67 156.592 105.457 156.592C104.245 156.592 104.288 155.391 104.791 155.282C107.095 154.795 109.952 154.113 110.771 153.481C110.912 153.37 111.086 153.308 111.266 153.306V153.306Z" fill="#263238"/>
<path d="M119.234 150.601L122.017 148.726C122.063 148.69 122.119 148.67 122.177 148.67C122.235 148.67 122.291 148.69 122.337 148.726L124.465 150.874C124.507 150.921 124.538 150.977 124.555 151.037C124.573 151.097 124.577 151.161 124.567 151.223C124.558 151.285 124.534 151.344 124.499 151.396C124.464 151.448 124.418 151.492 124.364 151.525C122.586 152.893 121.304 153.926 120.29 155.064C119.121 156.394 118.489 156.585 115.76 156.585C114.497 156.585 113.784 155.52 114.298 155.357C118.844 153.918 117.628 153.291 118.735 151.182C118.85 150.949 119.022 150.75 119.234 150.601Z" fill="#263238"/>
<path d="M84.3006 83.0732L81.2871 83.1785L81.9186 85.5409C81.9186 85.5409 85.0685 85.8216 85.3492 84.8704L84.3006 83.0732Z" fill="#E4897B"/>
<path d="M78.0361 84.586L80.1491 85.8179L81.9189 85.5411L81.2874 83.1787L78.0361 84.586Z" fill="#E4897B"/>
<path opacity="0.31" d="M115.004 57.7575C114.685 59.5975 115.11 63.9949 116.689 69.0862C116.812 64.7242 117.32 60.3815 118.205 56.1085V56.0851C117.191 55.9838 115.312 56.0305 115.004 57.7575Z" fill="#1C2D5E"/>
<path d="M112.911 46.9424C112.423 49.0553 111.874 52.9303 113.301 54.3493C113.301 54.3493 112.685 56.0997 108.755 56.0997C104.436 56.0997 106.732 54.3493 106.732 54.3493C109.11 53.7879 109.11 52.0376 108.755 50.3963L112.911 46.9424Z" fill="#E4897B"/>
<path d="M111.219 48.3496L108.759 50.3846C108.847 50.7689 108.902 51.1602 108.923 51.5541C109.827 51.4254 111.098 50.4352 111.226 49.4918C111.295 49.1139 111.293 48.7265 111.219 48.3496V48.3496Z" fill="#CE6F64"/>
<path d="M107.784 39.7782C106.307 40.281 105.126 44.1989 106.849 45.2359C108.572 46.2729 110.591 38.8231 107.784 39.7782Z" fill="#263238"/>
<path d="M113.835 44.7286C112.954 47.4574 112.58 49.1064 110.802 50.2253C110.228 50.5938 109.565 50.7986 108.884 50.8174C108.202 50.8362 107.529 50.6683 106.936 50.3319C106.343 49.9955 105.853 49.5034 105.52 48.9088C105.186 48.3142 105.022 47.6398 105.044 46.9584C105.079 44.3348 106.514 40.2961 109.535 39.7893C110.186 39.6636 110.859 39.7112 111.486 39.9273C112.113 40.1434 112.672 40.5204 113.107 41.0206C113.543 41.5207 113.839 42.1265 113.967 42.7773C114.095 43.4281 114.049 44.1009 113.835 44.7286V44.7286Z" fill="#E4897B"/>
<path d="M116.017 40.1674C115.136 42.296 117.187 40.5183 116.657 43.0444C116.314 44.6896 113.343 48.6308 112.197 48.2722C111.051 47.9135 111.063 45.1184 112.524 43.1419C113.366 42.0075 111.546 40.721 107.457 40.8575C103.367 40.9939 100.896 38.6939 106.33 37.0059C106.33 37.0059 104.326 38.1754 105.515 38.5652C107.199 39.1928 117.783 35.9026 116.017 40.1674Z" fill="#263238"/>
<path d="M115.239 41.1416C115.196 41.1416 116.155 40.9038 116.666 39.1924C116.666 39.2197 116.498 41.7419 115.239 41.1416Z" fill="#263238"/>
<path d="M107.586 37.3838C105.072 38.1635 106.113 39.0406 107.154 39.2589L109.54 38.3233C105.914 38.8028 107.586 37.3838 107.586 37.3838Z" fill="#263238"/>
<path d="M114.318 48.0613C113.795 48.5694 113.098 48.8581 112.369 48.8682C111.406 48.8682 111.2 47.956 111.718 47.1919C112.178 46.5058 113.231 45.6793 114.08 46.0497C114.93 46.42 114.958 47.4336 114.318 48.0613Z" fill="#E4897B"/>
<path d="M109.395 44.5762C109.337 44.8023 109.169 44.9661 109.005 44.9271C108.841 44.8881 108.783 44.6815 108.841 44.4554C108.9 44.2293 109.068 44.0655 109.231 44.1084C109.395 44.1513 109.453 44.3501 109.395 44.5762Z" fill="#263238"/>
<path d="M106.822 44.0116C106.763 44.2377 106.596 44.4015 106.432 44.3625C106.268 44.3235 106.21 44.1208 106.268 43.8947C106.327 43.6686 106.49 43.5049 106.658 43.5438C106.826 43.5828 106.869 43.7855 106.822 44.0116Z" fill="#263238"/>
<path d="M107.609 44.3037C107.166 44.9349 106.642 45.505 106.05 45.9995C106.18 46.1442 106.34 46.2586 106.519 46.3347C106.699 46.4108 106.892 46.4467 107.087 46.44L107.609 44.3037Z" fill="#DE5753"/>
<path d="M108.037 47.2627C107.876 47.2625 107.715 47.2442 107.558 47.2081C107.541 47.2035 107.526 47.1924 107.516 47.1772C107.507 47.162 107.504 47.1437 107.507 47.1262C107.512 47.1089 107.523 47.094 107.538 47.0846C107.553 47.0752 107.572 47.0719 107.589 47.0755C107.876 47.1395 108.174 47.1376 108.46 47.0701C108.747 47.0026 109.014 46.8712 109.242 46.6857C109.255 46.6731 109.273 46.666 109.291 46.666C109.309 46.666 109.326 46.6731 109.34 46.6857C109.352 46.6988 109.359 46.7162 109.359 46.7344C109.359 46.7526 109.352 46.7701 109.34 46.7832C108.978 47.0948 108.515 47.2651 108.037 47.2627V47.2627Z" fill="#263238"/>
<path d="M110.417 43.9259C110.39 43.9263 110.364 43.9187 110.342 43.9041C110.319 43.8895 110.302 43.8686 110.292 43.844C110.228 43.6876 110.127 43.5489 109.998 43.4397C109.869 43.3304 109.716 43.2538 109.551 43.2163C109.533 43.214 109.516 43.208 109.5 43.1988C109.484 43.1897 109.471 43.1775 109.46 43.163C109.449 43.1484 109.441 43.1319 109.437 43.1143C109.432 43.0967 109.431 43.0784 109.434 43.0604C109.44 43.0245 109.459 42.9923 109.489 42.9705C109.518 42.9486 109.554 42.939 109.59 42.9435C109.8 42.9863 109.997 43.0796 110.162 43.2155C110.328 43.3514 110.458 43.5256 110.541 43.7231C110.549 43.7394 110.553 43.7571 110.554 43.7752C110.554 43.7932 110.551 43.8111 110.545 43.8279C110.538 43.8447 110.528 43.86 110.516 43.8728C110.503 43.8856 110.488 43.8957 110.471 43.9025C110.455 43.9142 110.436 43.9222 110.417 43.9259Z" fill="#263238"/>
<path d="M105.952 42.8924C105.921 42.8921 105.891 42.8811 105.866 42.8612C105.838 42.8376 105.821 42.8041 105.817 42.7677C105.813 42.7313 105.824 42.6949 105.847 42.6662C105.984 42.4954 106.159 42.3583 106.358 42.2657C106.557 42.1731 106.774 42.1274 106.993 42.1322C107.011 42.1336 107.029 42.1387 107.045 42.1469C107.061 42.1552 107.075 42.1665 107.086 42.1803C107.098 42.194 107.107 42.21 107.112 42.2271C107.118 42.2443 107.119 42.2624 107.118 42.2803C107.117 42.2984 107.112 42.3162 107.104 42.3325C107.096 42.3487 107.085 42.3631 107.071 42.3748C107.057 42.3865 107.041 42.3953 107.023 42.4005C107.006 42.4057 106.988 42.4072 106.97 42.4051C106.794 42.4032 106.621 42.4416 106.463 42.5173C106.305 42.593 106.166 42.704 106.058 42.8417C106.045 42.8576 106.029 42.8705 106.011 42.8792C105.993 42.888 105.972 42.8925 105.952 42.8924V42.8924Z" fill="#263238"/>
<path d="M119.207 56.9893C119.511 57.461 119.765 57.8781 120.022 58.3303C120.279 58.7825 120.525 59.2191 120.767 59.6713C121.242 60.5719 121.691 61.4919 122.1 62.4314C122.959 64.3548 123.603 66.3667 124.022 68.431L124.061 68.6298L124.08 68.7273L124.108 68.891C124.141 69.109 124.158 69.3293 124.158 69.5498C124.154 69.9192 124.115 70.2873 124.041 70.6492C123.909 71.2461 123.719 71.8284 123.472 72.3878C123.035 73.368 122.513 74.3084 121.913 75.1986C120.779 76.8912 119.489 78.4743 118.061 79.9273L116.365 78.5668C117.309 76.9216 118.248 75.2142 119.036 73.5418C119.423 72.7419 119.754 71.9161 120.026 71.0702C120.137 70.7174 120.213 70.3543 120.252 69.9864C120.266 69.866 120.266 69.7444 120.252 69.6239C120.252 69.5888 120.252 69.5576 120.229 69.5537C120.205 69.5498 120.229 69.5537 120.229 69.5342L120.205 69.4563L120.159 69.2964C119.912 68.4365 119.619 67.5907 119.281 66.7625C118.938 65.9165 118.556 65.0745 118.155 64.2363C117.753 63.3982 117.321 62.5717 116.876 61.7453C116.658 61.3321 116.428 60.9227 116.198 60.5173L115.512 59.3478L119.207 56.9893Z" fill="#E4897B"/>
<path d="M110.245 153.805C110.05 153.825 109.855 153.77 109.699 153.653C109.655 153.604 109.624 153.545 109.609 153.481C109.594 153.417 109.595 153.35 109.613 153.287C109.622 153.244 109.641 153.204 109.669 153.171C109.697 153.138 109.733 153.112 109.773 153.096C110.128 152.955 110.943 153.517 111.036 153.579C111.048 153.586 111.057 153.597 111.061 153.61C111.066 153.622 111.067 153.636 111.063 153.649C111.061 153.662 111.055 153.675 111.046 153.684C111.037 153.694 111.026 153.701 111.013 153.704C110.761 153.764 110.504 153.798 110.245 153.805V153.805ZM109.906 153.209C109.878 153.204 109.851 153.204 109.824 153.209C109.804 153.216 109.786 153.228 109.773 153.245C109.76 153.261 109.752 153.281 109.75 153.302C109.735 153.343 109.732 153.387 109.741 153.429C109.749 153.472 109.768 153.511 109.796 153.544C109.929 153.677 110.307 153.692 110.826 153.591C110.55 153.4 110.236 153.271 109.906 153.213V153.209Z" fill="white"/>
<path d="M110.997 153.707H110.962C110.673 153.536 110.244 152.928 110.311 152.616C110.322 152.559 110.353 152.507 110.397 152.469C110.442 152.432 110.498 152.411 110.556 152.409C110.608 152.402 110.66 152.407 110.709 152.424C110.758 152.44 110.803 152.467 110.841 152.503C111.133 152.787 111.067 153.618 111.067 153.653C111.065 153.664 111.061 153.675 111.054 153.685C111.048 153.694 111.038 153.702 111.028 153.707H110.997ZM110.607 152.538H110.576C110.478 152.538 110.455 152.596 110.447 152.635C110.404 152.842 110.689 153.298 110.938 153.508C110.974 153.192 110.909 152.873 110.751 152.596C110.731 152.577 110.708 152.562 110.683 152.552C110.657 152.542 110.63 152.537 110.603 152.538H110.607Z" fill="white"/>
<path d="M117.363 152.168C117.291 152.17 117.219 152.157 117.153 152.129C117.101 152.108 117.056 152.076 117.02 152.034C116.984 151.991 116.958 151.941 116.946 151.887C116.936 151.854 116.935 151.82 116.942 151.786C116.95 151.753 116.966 151.722 116.989 151.696C117.25 151.381 118.618 151.474 118.774 151.486C118.789 151.486 118.803 151.491 118.814 151.501C118.825 151.51 118.833 151.522 118.837 151.536C118.84 151.551 118.838 151.565 118.833 151.578C118.827 151.592 118.818 151.603 118.806 151.611C118.37 151.897 117.878 152.088 117.363 152.168V152.168ZM118.19 151.599C117.71 151.599 117.207 151.646 117.094 151.782C117.088 151.793 117.084 151.805 117.084 151.817C117.084 151.83 117.088 151.842 117.094 151.852C117.101 151.886 117.116 151.917 117.137 151.944C117.159 151.971 117.187 151.991 117.219 152.004C117.437 152.094 117.928 151.946 118.548 151.614L118.19 151.599Z" fill="white"/>
<path d="M118.771 151.622C118.381 151.622 117.504 151.322 117.438 151.01C117.438 150.932 117.438 150.823 117.625 150.733C118.295 150.418 118.814 151.478 118.837 151.513C118.842 151.524 118.844 151.536 118.844 151.548C118.844 151.56 118.842 151.572 118.837 151.583C118.831 151.595 118.821 151.605 118.809 151.612C118.798 151.619 118.784 151.622 118.771 151.622V151.622ZM117.87 150.815C117.804 150.815 117.739 150.829 117.679 150.858C117.597 150.897 117.558 150.94 117.566 150.979C117.605 151.162 118.237 151.42 118.65 151.474C118.525 151.264 118.225 150.815 117.87 150.815V150.815Z" fill="white"/>
<path d="M117.137 77.9355L114.275 77.4326L115.753 80.7657C115.753 80.7657 118.376 80.7657 118.26 79.3935L117.137 77.9355Z" fill="#E4897B"/>
<path d="M112.112 79.1089L113.465 81.7988L115.738 80.7657L114.26 77.4326L112.112 79.1089Z" fill="#E4897B"/>
<path d="M120.29 145.485L115.975 149.547L114.583 148.054L119.522 143.556L120.29 145.485Z" fill="#1C2D5E"/>
<path opacity="0.6" d="M120.29 145.485L115.975 149.547L114.583 148.054L119.522 143.556L120.29 145.485Z" fill="white"/>
<path d="M115.503 149.567H109.785L109.469 147.556L115.78 147.871L115.503 149.567Z" fill="#1C2D5E"/>
<path opacity="0.6" d="M115.503 149.567H109.785L109.469 147.556L115.78 147.871L115.503 149.567Z" fill="white"/>
<path d="M118.459 54.9968C121.188 55.3867 123.983 64.8675 123.983 64.8675L118.135 68.111C118.135 68.111 115.761 63.6044 114.627 60.2596C113.438 56.755 115.539 54.568 118.459 54.9968Z" fill="#1C2D5E"/>
<path opacity="0.7" d="M118.459 54.9968C121.188 55.3867 123.983 64.8675 123.983 64.8675L118.135 68.111C118.135 68.111 115.761 63.6044 114.627 60.2596C113.438 56.755 115.539 54.568 118.459 54.9968Z" fill="white"/>
<path d="M108.646 56.0924C109.09 56.8116 109.347 57.6304 109.394 58.4743C109.394 58.4743 114.259 56.759 114.029 54.2446C114.029 54.2446 113.339 53.8353 112.903 53.5039C112.903 53.5039 112.739 55.0866 108.646 56.0924Z" fill="#1C2D5E"/>
<path opacity="0.6" d="M108.646 56.0924C109.09 56.8116 109.347 57.6304 109.394 58.4743C109.394 58.4743 114.259 56.759 114.029 54.2446C114.029 54.2446 113.339 53.8353 112.903 53.5039C112.903 53.5039 112.739 55.0866 108.646 56.0924Z" fill="white"/>
<path d="M108.646 56.0924C108.198 56.7732 107.876 57.5283 107.694 58.3222C107.694 58.3222 105.492 56.8331 106.155 54.3498C106.558 54.1872 106.974 54.0568 107.398 53.96C107.398 53.96 107.11 55.5661 108.646 56.0924Z" fill="#1C2D5E"/>
<path opacity="0.6" d="M108.646 56.0924C108.198 56.7732 107.876 57.5283 107.694 58.3222C107.694 58.3222 105.492 56.8331 106.155 54.3498C106.558 54.1872 106.974 54.0568 107.398 53.96C107.398 53.96 107.11 55.5661 108.646 56.0924Z" fill="white"/>
</svg>
