<svg width="329" height="328" viewBox="0 0 329 328" fill="none" xmlns="http://www.w3.org/2000/svg">
<g clip-path="url(#clip0_11604_120772)">
<rect width="328" height="328" transform="translate(0.164062)" fill="white"/>
<path d="M164.164 293.251C242.12 293.251 305.316 289.562 305.316 285.01C305.316 280.459 242.12 276.77 164.164 276.77C86.2076 276.77 23.0117 280.459 23.0117 285.01C23.0117 289.562 86.2076 293.251 164.164 293.251Z" fill="#F5F5F5"/>
<path d="M249.367 269.872L250.065 278.991C250.079 279.182 250.041 279.373 249.953 279.543C249.866 279.713 249.733 279.855 249.569 279.954C248.497 280.621 247.391 281.231 246.255 281.782C244.906 282.238 243.534 282.624 242.146 282.94C241.921 282.995 241.721 283.124 241.578 283.306C241.435 283.489 241.357 283.714 241.357 283.945C241.359 284.22 241.47 284.482 241.664 284.676C241.859 284.869 242.122 284.978 242.397 284.978H255.891C256.16 284.978 256.42 284.873 256.614 284.686C256.808 284.498 256.921 284.243 256.93 283.973L257.335 270.124C257.341 269.854 257.241 269.592 257.058 269.394C256.874 269.196 256.621 269.077 256.351 269.063L250.449 268.763C250.302 268.756 250.156 268.78 250.02 268.833C249.883 268.887 249.76 268.969 249.657 269.074C249.555 269.178 249.476 269.304 249.426 269.442C249.376 269.579 249.356 269.726 249.367 269.872Z" fill="#1C2D5E"/>
<path d="M256.308 270.925H250.762C250.457 270.925 250.156 270.865 249.876 270.748C249.595 270.631 249.34 270.459 249.126 270.243C248.912 270.027 248.743 269.771 248.628 269.489C248.514 269.207 248.456 268.906 248.459 268.602C248.459 268.602 248.459 247.859 248.94 230.402C249.757 202.312 256.078 176.051 256.078 176.051H270.555C270.555 176.051 270.59 198.377 262.469 227.625C262.062 229.081 261.858 230.586 261.862 232.098C261.862 237.428 260.99 251.787 258.583 268.951C258.507 269.499 258.234 270.002 257.816 270.365C257.398 270.728 256.862 270.927 256.308 270.925Z" fill="#FF5C8A"/>
<path opacity="0.2" d="M266.788 187.961C263.366 199.162 262.35 210.96 263.808 222.581C266.088 213.595 267.83 204.48 269.027 195.287L266.788 187.961Z" fill="black"/>
<path d="M273.096 269.873L273.794 278.992C273.808 279.183 273.77 279.374 273.682 279.544C273.595 279.714 273.462 279.856 273.298 279.955C272.224 280.621 271.115 281.232 269.977 281.783C268.628 282.25 267.257 282.648 265.868 282.976C265.641 283.029 265.44 283.158 265.295 283.34C265.151 283.522 265.072 283.748 265.072 283.981C265.074 284.255 265.184 284.518 265.379 284.711C265.574 284.905 265.837 285.013 266.112 285.013H279.626C279.896 285.013 280.154 284.908 280.347 284.721C280.54 284.533 280.652 284.277 280.659 284.008L281.064 270.159C281.071 269.889 280.973 269.626 280.789 269.428C280.605 269.229 280.35 269.111 280.08 269.098L274.184 268.798C274.04 268.791 273.897 268.813 273.762 268.864C273.627 268.915 273.505 268.993 273.402 269.095C273.3 269.196 273.219 269.317 273.167 269.451C273.114 269.585 273.09 269.729 273.096 269.873Z" fill="#1C2D5E"/>
<path d="M262.553 174.41C262.553 174.41 266.432 217.856 267.876 232.32C268.797 241.537 271.846 269.152 271.846 269.152C271.925 269.835 272.254 270.465 272.769 270.921C273.284 271.377 273.949 271.626 274.637 271.622H279.256C279.99 271.631 280.698 271.351 281.227 270.841C281.756 270.332 282.063 269.635 282.082 268.901C282.34 261.798 282.144 242.862 281.209 230.227C280.512 220.612 282.57 204.76 282.926 191.853C283.282 178.945 278.74 175.282 278.74 175.282L262.553 174.41Z" fill="#FF5C8A"/>
<path d="M275.23 130.106C274.533 129.987 273.835 129.89 273.228 129.813C273.02 129.789 272.82 129.719 272.641 129.61C272.463 129.5 272.311 129.353 272.195 129.178C270.667 126.792 270.8 122.124 271.086 119.41L265.686 124.922C266.181 126.422 266.481 127.992 265.749 129.227C265.659 129.37 265.538 129.492 265.396 129.584C265.254 129.676 265.093 129.735 264.925 129.757C264.174 129.85 263.433 130.015 262.713 130.253L261.834 131.815C261.834 131.815 261.332 134.209 261.332 134.306C261.332 134.404 263.627 137.139 263.627 137.139L269.286 137.606C269.286 137.606 283.659 131.571 275.23 130.106Z" fill="#FFB573"/>
<path opacity="0.2" d="M268.875 121.672L265.658 124.93C265.852 125.473 266.001 126.031 266.105 126.598C267.389 126.291 269.265 124.951 269.286 123.57C269.259 122.918 269.12 122.276 268.875 121.672Z" fill="black"/>
<path d="M274.596 114.535C273.284 119.53 272.845 121.672 269.782 123.758C265.177 126.905 259.316 124.212 259.114 118.93C258.918 114.179 261.081 106.811 266.426 105.771C267.603 105.538 268.82 105.609 269.962 105.978C271.104 106.346 272.132 107 272.951 107.878C273.769 108.756 274.349 109.828 274.637 110.993C274.925 112.158 274.911 113.377 274.596 114.535Z" fill="#FFB573"/>
<path d="M275.001 118.762C274.772 119.2 274.459 119.588 274.079 119.904C273.7 120.22 273.261 120.458 272.789 120.604C271.519 120.988 270.863 119.864 271.191 118.65C271.484 117.569 272.503 116.055 273.787 116.201C274.234 116.267 274.637 116.507 274.908 116.869C275.179 117.232 275.295 117.686 275.231 118.134C275.198 118.357 275.119 118.57 275.001 118.762Z" fill="#FFB573"/>
<path d="M263.104 114.473C262.552 115.34 261.882 116.126 261.115 116.81C261.292 117.001 261.509 117.151 261.75 117.25C261.991 117.349 262.25 117.394 262.511 117.382L263.104 114.473Z" fill="#ED893E"/>
<path d="M267.815 112.671C267.849 112.679 267.885 112.679 267.919 112.671C267.943 112.658 267.964 112.64 267.98 112.619C267.997 112.597 268.009 112.573 268.015 112.546C268.022 112.52 268.023 112.493 268.018 112.466C268.014 112.439 268.004 112.414 267.989 112.391C267.798 112.057 267.53 111.774 267.207 111.565C266.884 111.356 266.516 111.228 266.133 111.191C266.079 111.193 266.028 111.215 265.989 111.252C265.951 111.29 265.927 111.34 265.924 111.394C265.924 111.447 265.944 111.498 265.98 111.537C266.016 111.576 266.066 111.6 266.119 111.603C266.434 111.638 266.737 111.747 267.001 111.922C267.266 112.096 267.485 112.332 267.64 112.608C267.663 112.631 267.69 112.649 267.72 112.66C267.75 112.67 267.783 112.674 267.815 112.671Z" fill="#1C2D5E"/>
<path d="M260.216 111.124C260.253 111.121 260.289 111.109 260.321 111.089C260.593 110.93 260.899 110.836 261.214 110.816C261.529 110.795 261.844 110.848 262.135 110.971C262.159 110.984 262.185 110.992 262.212 110.995C262.239 110.998 262.266 110.996 262.292 110.988C262.318 110.98 262.343 110.967 262.363 110.95C262.384 110.932 262.402 110.911 262.414 110.887C262.437 110.837 262.44 110.781 262.423 110.73C262.406 110.678 262.371 110.634 262.323 110.608C261.972 110.454 261.589 110.384 261.206 110.406C260.823 110.428 260.45 110.54 260.119 110.733C260.07 110.759 260.033 110.802 260.016 110.854C259.999 110.907 260.003 110.963 260.028 111.012C260.046 111.047 260.073 111.075 260.106 111.095C260.14 111.115 260.178 111.125 260.216 111.124Z" fill="#1C2D5E"/>
<path d="M266.14 114.362C266.063 114.774 265.777 115.06 265.505 115.011C265.233 114.962 265.086 114.585 265.17 114.174C265.254 113.762 265.533 113.476 265.798 113.525C266.063 113.574 266.224 113.951 266.14 114.362Z" fill="#1C2D5E"/>
<path d="M261.486 113.433C261.409 113.844 261.123 114.13 260.858 114.081C260.593 114.033 260.439 113.656 260.516 113.244C260.593 112.832 260.879 112.546 261.144 112.595C261.409 112.644 261.569 113.035 261.486 113.433Z" fill="#1C2D5E"/>
<path d="M261.263 112.65L260.328 112.176C260.328 112.176 260.684 113.048 261.263 112.65Z" fill="#1C2D5E"/>
<path d="M265.915 113.564L264.98 113.09C264.98 113.09 265.336 113.962 265.915 113.564Z" fill="#1C2D5E"/>
<path d="M265.854 108.131C265.854 108.131 267.005 110.469 269.14 111.124C271.275 111.78 271.079 117.076 272.461 117.404C273.654 117.669 276.612 115.373 275.252 110.769C275.027 110.042 274.616 109.387 274.058 108.869C273.501 108.351 272.818 107.988 272.077 107.817L266.384 106.422L265.854 108.131Z" fill="#1C2D5E"/>
<path d="M265.854 108.131C265.854 108.131 267.005 110.469 269.14 111.124C271.275 111.78 271.079 117.076 272.461 117.404C273.654 117.669 276.612 115.373 275.252 110.769C275.027 110.042 274.616 109.387 274.058 108.869C273.501 108.351 272.818 107.988 272.077 107.817L266.384 106.422L265.854 108.131Z" fill="#263238"/>
<path d="M273.96 107.697C274.021 107.816 274.047 107.95 274.034 108.082C274.021 108.215 273.971 108.341 273.889 108.446C273.807 108.551 273.696 108.631 273.57 108.675C273.444 108.719 273.308 108.726 273.179 108.695C271.56 108.242 268.727 107.781 266.411 109.135C263.446 110.865 259.636 106.916 257.906 109.742C257.872 109.792 257.822 109.83 257.763 109.848C257.705 109.866 257.642 109.863 257.585 109.84C257.529 109.817 257.482 109.776 257.452 109.722C257.423 109.668 257.413 109.606 257.424 109.546C257.906 107.041 259.608 103.323 265.448 103.79C270.988 104.23 273.137 106.267 273.96 107.697Z" fill="#263238"/>
<path d="M261.905 118.803C263.541 118.579 265.195 118.511 266.844 118.601C266.405 119.689 265.588 120.554 263.726 120.519C263.278 120.552 262.836 120.406 262.496 120.113C262.155 119.82 261.945 119.404 261.912 118.956C261.906 118.905 261.903 118.854 261.905 118.803Z" fill="#1C2D5E"/>
<path d="M264.605 119.662C263.888 119.607 263.172 119.781 262.561 120.158C262.904 120.386 263.307 120.507 263.719 120.507C264.433 120.563 265.147 120.389 265.756 120.011C265.421 119.772 265.016 119.65 264.605 119.662Z" fill="#A02724"/>
<path d="M262.072 118.778C262.106 118.912 262.176 119.034 262.275 119.132C262.373 119.229 262.496 119.297 262.63 119.33C263.709 119.349 264.787 119.276 265.854 119.113C266.024 119.1 266.189 119.045 266.334 118.954C266.478 118.863 266.599 118.738 266.684 118.59C265.144 118.534 263.602 118.597 262.072 118.778Z" fill="white"/>
<path d="M274.17 119.845C274.054 119.937 273.933 120.024 273.807 120.103C273.88 120.228 273.918 120.37 273.918 120.515C273.918 120.659 273.88 120.801 273.807 120.927C273.78 120.982 273.741 121.031 273.693 121.071C273.646 121.111 273.59 121.141 273.531 121.158C273.471 121.176 273.409 121.181 273.347 121.174C273.285 121.166 273.226 121.146 273.172 121.115C272.726 120.836 272.838 119.922 273.403 119.88C273.696 119.88 273.696 119.406 273.403 119.426C273.173 119.46 272.958 119.564 272.788 119.723C272.618 119.882 272.501 120.089 272.452 120.316C272.402 120.543 272.424 120.78 272.513 120.996C272.601 121.211 272.754 121.393 272.949 121.52C273.137 121.633 273.359 121.673 273.575 121.632C273.79 121.59 273.982 121.471 274.114 121.296C274.259 121.095 274.342 120.856 274.354 120.608C274.365 120.36 274.303 120.114 274.177 119.901L274.17 119.845Z" fill="#1C2D5E"/>
<path d="M281.963 133.422C280.268 130.75 277.163 129.934 274.065 129.676C273.974 131.804 271.7 133.513 268.902 133.513C266.104 133.513 263.9 131.86 263.739 129.78C259.553 130.276 255.15 131.874 254.194 136.806C252.701 144.586 254.969 177.587 254.969 177.587H281.147C281.147 177.587 281.412 167.059 282.18 156.119C282.842 146.721 284.238 137.016 281.963 133.422Z" fill="#FF5C8A"/>
<path opacity="0.8" d="M281.963 133.422C280.268 130.75 277.163 129.934 274.065 129.676C273.974 131.804 271.7 133.513 268.902 133.513C266.104 133.513 263.9 131.86 263.739 129.78C259.553 130.276 255.15 131.874 254.194 136.806C252.701 144.586 254.969 177.587 254.969 177.587H281.147C281.147 177.587 281.412 167.059 282.18 156.119C282.842 146.721 284.238 137.016 281.963 133.422Z" fill="white"/>
<path d="M230.214 154.673L225.923 155.552C225.683 155.601 225.433 155.582 225.202 155.497C224.972 155.412 224.77 155.264 224.619 155.07L223.098 153.11C222.941 152.905 222.728 152.752 222.484 152.67L220.474 151.973C220.204 151.881 219.911 151.879 219.64 151.967C219.368 152.055 219.132 152.228 218.967 152.461L217.725 154.219C217.531 154.493 217.448 154.83 217.495 155.162C217.542 155.495 217.714 155.796 217.977 156.005L221.619 158.95C221.854 159.138 222.147 159.241 222.449 159.243H225.093L231.749 158.636L230.214 154.673Z" fill="#FFB573"/>
<path d="M257.614 131.711C257.614 131.711 251.732 134.774 244.804 149.593L227.18 154.84L227.996 159.801C227.996 159.801 244.504 158.245 248.23 156.501C251.955 154.756 259.142 136.888 259.142 136.888C259.142 136.888 259.518 130.295 257.614 131.711Z" fill="#1C2D5E"/>
<path d="M228.561 153.641L229.405 160.387L227.724 160.415L226.838 154.101L228.561 153.641Z" fill="#1C2D5E"/>
<path opacity="0.7" d="M228.561 153.641L229.405 160.387L227.724 160.415L226.838 154.101L228.561 153.641Z" fill="black"/>
<path opacity="0.2" d="M258.736 137.851C258.604 137.355 258.255 137.195 257.613 137.509C253.992 139.295 251.968 148.972 251.264 153.054C254.243 148.428 257.599 140.6 258.736 137.851Z" fill="black"/>
<path d="M262.762 129.918C258.89 130.532 255.088 132.227 254.194 136.804C252.701 144.584 254.969 177.585 254.969 177.585H263.704L262.762 129.918Z" fill="#1C2D5E"/>
<path d="M275.21 129.801C275.21 129.801 272.419 145.66 271.722 155.581C271.115 163.842 270.033 177.587 270.033 177.587H281.148C281.148 177.587 281.413 167.058 282.18 156.118C282.843 146.72 284.239 137.015 281.964 133.422C280.45 131.078 277.903 130.178 275.21 129.801Z" fill="#1C2D5E"/>
<path d="M261.633 153.399L258.479 154.145L255.304 153.503L255.221 148.187L261.549 148.082L261.633 153.399Z" fill="#1C2D5E"/>
<path d="M281.76 153.57L278.571 154.171L275.432 153.375L275.599 148.059L281.927 148.261L281.76 153.57Z" fill="#1C2D5E"/>
<path opacity="0.3" d="M261.633 153.399L258.479 154.145L255.304 153.503L255.221 148.187L261.549 148.082L261.633 153.399Z" fill="black"/>
<path opacity="0.3" d="M279.87 153.942L276.653 154.354L273.562 153.37L274.044 148.074L280.344 148.646L279.87 153.942Z" fill="black"/>
<path opacity="0.7" d="M261.633 162.438L262.554 163.714L256.602 168.598L255.221 167.433L261.633 162.438Z" fill="black"/>
<path opacity="0.7" d="M273.15 162.438L272.236 163.714L278.188 167.901L279.569 166.735L273.15 162.438Z" fill="black"/>
<path d="M262.762 129.918C261.89 130.053 261.029 130.256 260.188 130.525L257.613 141.193L260.99 140.732L263.007 142.128L262.762 129.918Z" fill="#1C2D5E"/>
<path d="M274.588 142.221L277.079 140.721L279.751 141.342L277.735 130.332C276.919 130.08 276.083 129.896 275.237 129.781L274.588 142.221Z" fill="#1C2D5E"/>
<path opacity="0.7" d="M262.762 129.918C261.89 130.053 261.029 130.256 260.188 130.525L257.613 141.193L260.99 140.732L263.007 142.128L262.762 129.918Z" fill="black"/>
<path opacity="0.7" d="M273.283 142.04L275.627 140.721L278.767 142.228L277.204 130.179C276.549 130 275.883 129.867 275.209 129.781C275.209 129.781 274.232 135.405 273.283 142.04Z" fill="black"/>
<path d="M277.094 166.836L273.033 169.25L268.652 170.024C268.353 170.076 268.069 170.192 267.82 170.365C267.571 170.537 267.362 170.761 267.208 171.022L266.384 172.383C266.116 172.816 266.015 173.331 266.1 173.834C266.184 174.336 266.449 174.79 266.845 175.111L267.542 175.676C267.897 175.976 268.34 176.149 268.804 176.169C269.267 176.19 269.724 176.055 270.103 175.788L271.861 174.58C271.972 174.506 272.089 174.441 272.21 174.385L273.947 173.625C274.323 173.458 274.643 173.187 274.868 172.843L275.322 172.145L279.592 169.906L277.094 166.836Z" fill="#FFB573"/>
<path d="M280.128 131.518C280.128 131.518 284.74 133.612 288.807 143.184C292.875 152.757 295.435 159.88 291.947 162.434C288.458 164.987 278.69 171.504 278.69 171.504L275.551 166.913L286.393 157.55L280.93 146.442C280.93 146.442 277.846 130.709 280.128 131.518Z" fill="#1C2D5E"/>
<path d="M275.774 165.824L279.57 171.755L278.111 172.718L274.441 166.836L275.774 165.824Z" fill="#1C2D5E"/>
<path opacity="0.7" d="M275.774 165.824L279.57 171.755L278.111 172.718L274.441 166.836L275.774 165.824Z" fill="black"/>
<path d="M261.884 148.842L258.409 149.595L254.907 148.953L254.879 147.272L261.856 147.16L261.884 148.842Z" fill="#1C2D5E"/>
<path d="M282.229 149.038L278.72 149.624L275.252 148.814L275.308 147.133L282.278 147.356L282.229 149.038Z" fill="#1C2D5E"/>
<path opacity="0.7" d="M261.884 148.842L258.409 149.595L254.907 148.953L254.879 147.272L261.856 147.16L261.884 148.842Z" fill="black"/>
<path opacity="0.7" d="M280.603 149.435L277.066 149.819L273.654 148.807L273.801 147.133L280.75 147.761L280.603 149.435Z" fill="black"/>
<path opacity="0.2" d="M283.08 144.5C282.982 146.258 282.828 148.121 282.668 150.033L284.629 154.01C284.809 150.765 284.28 147.52 283.08 144.5Z" fill="black"/>
<path d="M75.8477 269.398L76.95 279.808H82.4201V269.398H75.8477Z" fill="#CE7A63"/>
<path d="M82.9568 279.108C82.9298 279.101 82.9052 279.087 82.8855 279.068C82.8659 279.048 82.8519 279.023 82.8452 278.996C82.8388 278.969 82.8415 278.941 82.8529 278.916C82.8642 278.891 82.8836 278.87 82.908 278.857C82.9917 278.808 84.9592 277.664 85.9081 277.915C86.0819 277.96 86.2319 278.07 86.3267 278.222C86.3881 278.307 86.4211 278.41 86.4211 278.515C86.4211 278.62 86.3881 278.723 86.3267 278.808C85.8457 279.153 85.2555 279.312 84.6662 279.255C84.0933 279.253 83.5215 279.204 82.9568 279.108ZM83.3894 278.927C84.4429 279.045 85.8662 279.024 86.1244 278.654C86.1663 278.606 86.2011 278.522 86.1244 278.361C86.0963 278.313 86.0581 278.271 86.0124 278.238C85.9666 278.206 85.9144 278.184 85.8593 278.173C85.7738 278.159 85.6866 278.159 85.6011 278.173C84.8223 278.28 84.0714 278.536 83.3894 278.927Z" fill="#FF5C8A"/>
<path d="M82.8804 279.102C82.8616 279.089 82.8466 279.071 82.8368 279.05C82.8271 279.029 82.8228 279.006 82.8246 278.983C82.8246 278.906 82.9642 277.385 83.6828 276.785C83.7828 276.697 83.9003 276.63 84.0276 276.589C84.1549 276.548 84.2894 276.534 84.4224 276.548C84.7921 276.548 84.9108 276.765 84.9247 276.918C85.0503 277.553 83.7037 278.795 83.0339 279.102H82.999C82.961 279.117 82.9185 279.117 82.8804 279.102ZM84.3386 276.799C84.169 276.8 84.0053 276.862 83.8781 276.974C83.4602 277.467 83.2023 278.075 83.1386 278.718C83.8363 278.293 84.7224 277.323 84.6805 276.946C84.6805 276.911 84.6805 276.813 84.4154 276.792L84.3386 276.799Z" fill="#FF5C8A"/>
<path d="M82.3698 278.32L76.1951 278.375C76.0824 278.376 75.9732 278.415 75.8857 278.486C75.7982 278.557 75.7375 278.656 75.7137 278.766L74.6253 283.804C74.6016 283.909 74.5991 284.019 74.6179 284.126C74.6367 284.233 74.6764 284.335 74.7348 284.426C74.7931 284.517 74.869 284.596 74.9579 284.658C75.0469 284.72 75.1472 284.764 75.2532 284.787H75.4276C77.6533 284.732 79.6139 284.585 82.4047 284.564C85.6769 284.564 84.8467 284.934 88.6841 284.955C91.0004 284.955 91.3981 282.331 90.4144 282.206C85.9142 281.683 85.4327 280.329 83.6885 278.717C83.3095 278.434 82.8425 278.293 82.3698 278.32Z" fill="#1C2D5E"/>
<path opacity="0.2" d="M82.4197 274.603V271.812H76.1055L76.3985 274.603H82.4197Z" fill="black"/>
<path d="M77.6464 168.461C77.6464 168.461 85.0003 207.4 85.7817 220.559C86.5352 233.278 83.9258 271.491 83.9258 271.491H74.3882C74.3882 271.491 72.1136 244.469 73.3835 223.119C73.4338 222.348 73.3608 221.573 73.1672 220.824C71.688 214.97 64.9063 187.892 63.4551 176.868V168.461H77.6464Z" fill="#1C2D5E"/>
<path d="M73.1465 269.863L73.4953 272.654H84.7703L85.1191 269.863H73.1465Z" fill="#1C2D5E"/>
<path opacity="0.3" d="M73.1465 269.863L73.4953 272.654H84.7703L85.1191 269.863H73.1465Z" fill="white"/>
<path opacity="0.4" d="M64.2441 181.758C65.4721 188.554 67.5862 197.847 69.4769 205.794C69.8328 187.298 66.3931 175.793 66.3931 175.793L64.2441 181.758Z" fill="black"/>
<path d="M52.293 269.398L52.7604 279.808H58.2235L58.8654 269.398H52.293Z" fill="#CE7A63"/>
<path d="M59.0319 279.108C59.005 279.102 58.9805 279.089 58.9618 279.069C58.9431 279.049 58.931 279.023 58.9272 278.996C58.9208 278.969 58.9235 278.941 58.9349 278.916C58.9462 278.891 58.9656 278.87 58.99 278.857C59.0737 278.808 61.0412 277.664 61.9832 277.915C62.1596 277.958 62.3122 278.068 62.4088 278.222C62.4701 278.307 62.5031 278.41 62.5031 278.515C62.5031 278.62 62.4701 278.723 62.4088 278.808C61.9301 279.153 61.3423 279.311 60.7552 279.255C60.1777 279.254 59.6012 279.205 59.0319 279.108ZM59.4644 278.927C60.518 279.045 61.9483 279.024 62.2064 278.654C62.2064 278.606 62.2762 278.522 62.2064 278.361C62.1784 278.313 62.1401 278.271 62.0944 278.238C62.0486 278.206 61.9964 278.184 61.9413 278.173C61.8558 278.159 61.7686 278.159 61.6831 278.173C60.9021 278.28 60.1489 278.536 59.4644 278.927Z" fill="#FF5C8A"/>
<path d="M58.9632 279.102C58.9436 279.089 58.9276 279.072 58.9166 279.051C58.9056 279.03 58.9001 279.007 58.9004 278.984C58.9004 278.907 59.0469 277.386 59.7656 276.786C59.8654 276.697 59.9828 276.629 60.1102 276.589C60.2376 276.548 60.3721 276.534 60.5051 276.549C60.8749 276.549 60.9935 276.765 61.0075 276.918C61.1331 277.553 59.7865 278.795 59.1097 279.102H59.0539C59.0245 279.112 58.9926 279.112 58.9632 279.102ZM60.4214 276.8C60.2494 276.798 60.0829 276.86 59.9539 276.974C59.5533 277.473 59.3105 278.081 59.2562 278.718C59.9539 278.293 60.84 277.323 60.7982 276.946C60.7982 276.911 60.7982 276.814 60.533 276.793L60.4214 276.8Z" fill="#FF5C8A"/>
<path d="M58.4465 278.321L52.2718 278.377C52.1594 278.379 52.0509 278.418 51.9636 278.489C51.8764 278.56 51.8154 278.658 51.7904 278.768L50.7229 283.805C50.6993 283.911 50.6968 284.02 50.7156 284.127C50.7344 284.234 50.7741 284.336 50.8324 284.428C50.8908 284.519 50.9666 284.598 51.0556 284.66C51.1446 284.722 51.2449 284.766 51.3508 284.789C51.4088 284.796 51.4673 284.796 51.5253 284.789C53.751 284.733 55.7115 284.587 58.5023 284.566C61.7746 284.566 60.9443 284.935 64.7817 284.956C67.1051 284.956 67.5028 282.333 66.519 282.207C62.0188 281.684 61.5374 280.331 59.7861 278.719C59.4021 278.429 58.9264 278.288 58.4465 278.321Z" fill="#1C2D5E"/>
<path opacity="0.2" d="M58.5441 274.603L58.7185 271.812H52.4043L52.5299 274.603H58.5441Z" fill="black"/>
<path d="M67.6481 169.396C67.6481 169.396 66.7341 208.844 65.7573 221.954C64.8433 234.325 60.1756 271.261 60.1756 271.261H50.6101C50.6101 271.261 50.1217 238.322 52.8776 223.433C53.0926 222.249 53.1091 221.037 52.9265 219.847C51.866 212.772 48.4821 187.139 52.0613 168.461L67.6481 169.396Z" fill="#1C2D5E"/>
<path d="M49.4453 269.863L49.7942 272.654H61.0761L61.4249 269.863H49.4453Z" fill="#1C2D5E"/>
<path opacity="0.3" d="M49.4453 269.863L49.7942 272.654H61.0761L61.4249 269.863H49.4453Z" fill="white"/>
<path d="M32.7146 142.169L25.8352 137.983C25.8352 137.983 26.4213 130.175 24.2654 129.478C22.1095 128.78 19.4582 129.812 18.9628 132.464C18.4674 135.115 23.1072 140.334 23.1072 140.334L29.0726 146.92L32.7146 142.169Z" fill="#CE7A63"/>
<path d="M55.4311 122.326C55.4311 122.326 49.9123 122.235 46.947 126.77C43.9817 131.305 40.3188 144.213 40.3188 144.213L30.7253 140.027L26.5391 145.915C26.5391 145.915 36.307 154.853 42.9352 153.458C49.5634 152.062 57.5731 122.061 55.4311 122.326Z" fill="#FF5C8A"/>
<path opacity="0.8" d="M55.4311 122.326C55.4311 122.326 49.9123 122.235 46.947 126.77C43.9817 131.305 40.3188 144.213 40.3188 144.213L30.7253 140.027L26.5391 145.915C26.5391 145.915 36.307 154.853 42.9352 153.458C49.5634 152.062 57.5731 122.061 55.4311 122.326Z" fill="white"/>
<path opacity="0.1" d="M52.8717 136.051L51.9717 133.602H49.0204L47.6738 148.526C49.8083 144.546 51.5492 140.368 52.8717 136.051Z" fill="black"/>
<path d="M30.1047 138.848L25.1719 145.957L26.8673 147.269L32.2955 139.81L30.1047 138.848Z" fill="#FF5C8A"/>
<path opacity="0.5" d="M30.1047 138.848L25.1719 145.957L26.8673 147.269L32.2955 139.81L30.1047 138.848Z" fill="white"/>
<path d="M103.74 137.154L111.757 137.97C111.757 137.97 116.02 131.39 118.141 132.165C120.262 132.939 121.762 135.34 120.555 137.747C119.348 140.154 112.496 141.514 112.496 141.514L103.761 143.147L103.74 137.154Z" fill="#CE7A63"/>
<path d="M68.8972 122.85C68.8972 122.85 76.0138 124.154 89.8284 135.318L106.72 136.601V143.062C106.72 143.062 95.0961 145.783 87.8818 143.46C80.6675 141.137 71.2555 133.141 71.2555 133.141C71.2555 133.141 66.3157 122.012 68.8972 122.85Z" fill="#FF5C8A"/>
<path opacity="0.8" d="M68.8972 122.85C68.8972 122.85 76.0138 124.154 89.8284 135.318L106.72 136.601V143.062C106.72 143.062 95.0961 145.783 87.8818 143.46C80.6675 141.137 71.2555 133.141 71.2555 133.141C71.2555 133.141 66.3157 122.012 68.8972 122.85Z" fill="white"/>
<path opacity="0.1" d="M76.5667 129.215L73.0781 134.636C76.2068 137.108 79.524 139.331 82.9995 141.285L76.5667 129.215Z" fill="black"/>
<path d="M105.961 135.988V143.865L107.761 143.579V135.988H105.961Z" fill="#FF5C8A"/>
<path opacity="0.5" d="M105.961 135.988V143.865L107.761 143.579V135.988H105.961Z" fill="white"/>
<path d="M58.4604 122.063C54.8951 122.238 47.2971 122.587 48.6925 131.133C50.0879 139.68 51.1345 171.252 51.1345 171.252H78.345C78.345 171.252 79.7405 147.181 78.345 134.273C76.9496 121.366 64.2932 121.805 58.4604 122.063Z" fill="#FF5C8A"/>
<path opacity="0.8" d="M58.4604 122.063C54.8951 122.238 47.2971 122.587 48.6925 131.133C50.0879 139.68 51.1345 171.252 51.1345 171.252H78.345C78.345 171.252 79.7405 147.181 78.345 134.273C76.9496 121.366 64.2932 121.805 58.4604 122.063Z" fill="white"/>
<path d="M69.0449 98.9595C69.4371 98.7518 69.8904 98.6905 70.3237 98.7863C70.757 98.8822 71.1421 99.1291 71.4101 99.4828C72.4009 100.767 69.8194 104.66 69.8194 104.66L69.0449 98.9595Z" fill="#1C2D5E"/>
<path d="M68.4862 122.737C65.1791 121.949 64.3418 119.807 64.586 117.553C64.6445 116.988 64.7377 116.426 64.8651 115.872L60.7417 112.432L57.7136 109.941C58.5299 113.604 59.4509 119.926 56.9531 122.375C59.6951 123.84 59.7021 123.149 62.5836 124.321C64.3975 123.332 66.4209 122.789 68.4862 122.737Z" fill="#CE7A63"/>
<path opacity="0.2" d="M58.1816 112.349C58.2933 113.046 58.391 113.744 58.4607 114.442C59.4096 116.479 62.3609 117.721 64.5517 117.972C64.5517 117.826 64.5517 117.672 64.5517 117.526C64.6101 116.96 64.7033 116.398 64.8308 115.844L62.7656 114.128L58.2235 111.477C58.1816 111.756 58.1886 112.035 58.1816 112.349Z" fill="black"/>
<path d="M58.021 102.505C57.3931 107.459 56.7651 110.312 58.7745 113.354C59.4165 114.346 60.3171 115.144 61.3793 115.662C62.4415 116.18 63.6248 116.397 64.8017 116.292C65.9786 116.186 67.1043 115.761 68.0574 115.063C69.0105 114.365 69.7548 113.419 70.21 112.329C72.0938 108.142 72.7566 100.768 68.382 97.8094C67.4428 97.1461 66.3464 96.7399 65.2017 96.6311C64.057 96.5224 62.9038 96.7149 61.8565 97.1895C60.8092 97.6641 59.9042 98.4044 59.2314 99.3369C58.5586 100.269 58.1413 101.361 58.021 102.505Z" fill="#CE7A63"/>
<path d="M65.18 105.526C65.1033 105.93 65.2568 106.293 65.5079 106.349C65.7591 106.405 66.0382 106.126 66.1359 105.721C66.2335 105.316 66.0661 104.953 65.8079 104.898C65.5498 104.842 65.2568 105.128 65.18 105.526Z" fill="#1C2D5E"/>
<path d="M69.8181 106.411C69.7484 106.809 69.8949 107.179 70.153 107.228C70.4112 107.277 70.6833 107.004 70.781 106.6C70.8786 106.195 70.7042 105.832 70.4461 105.776C70.1879 105.721 69.8949 106.007 69.8181 106.411Z" fill="#1C2D5E"/>
<path d="M68.0055 106.355C68.2199 107.484 68.5641 108.585 69.0311 109.635C68.7594 109.758 68.4644 109.822 68.1659 109.822C67.8675 109.822 67.5725 109.758 67.3008 109.635L68.0055 106.355Z" fill="#BA4D3C"/>
<path d="M64.1603 103.857C64.1226 103.852 64.0867 103.838 64.0557 103.816C64.0304 103.799 64.0087 103.777 63.9918 103.752C63.9749 103.726 63.9632 103.698 63.9574 103.668C63.9516 103.638 63.9517 103.608 63.9578 103.578C63.9639 103.548 63.9758 103.52 63.9929 103.495C64.204 103.19 64.4855 102.941 64.8134 102.769C65.1414 102.596 65.5061 102.505 65.8767 102.504C65.9384 102.509 65.9956 102.539 66.036 102.585C66.0764 102.632 66.0969 102.693 66.093 102.755C66.0877 102.817 66.0586 102.875 66.0119 102.917C65.9652 102.958 65.9043 102.98 65.8418 102.978C65.548 102.976 65.2581 103.046 64.9977 103.183C64.7374 103.319 64.5145 103.517 64.3487 103.76C64.3267 103.789 64.2983 103.813 64.2657 103.83C64.2331 103.847 64.1971 103.856 64.1603 103.857Z" fill="#1C2D5E"/>
<path d="M71.5967 104.66C71.5586 104.655 71.522 104.642 71.4895 104.621C71.457 104.601 71.4293 104.574 71.4084 104.541C71.2695 104.276 71.0713 104.047 70.8292 103.872C70.5871 103.696 70.3078 103.579 70.0129 103.53C69.9814 103.528 69.9505 103.52 69.9223 103.506C69.894 103.492 69.869 103.472 69.8487 103.448C69.8284 103.423 69.8133 103.395 69.8044 103.365C69.7954 103.335 69.7928 103.303 69.7967 103.271C69.802 103.21 69.8313 103.153 69.8782 103.112C69.9251 103.072 69.986 103.051 70.0478 103.055C70.4242 103.107 70.7827 103.248 71.0935 103.466C71.4042 103.685 71.6581 103.974 71.834 104.311C71.8501 104.337 71.8608 104.367 71.8653 104.397C71.8699 104.428 71.8682 104.459 71.8604 104.489C71.8525 104.519 71.8388 104.547 71.8198 104.572C71.8009 104.596 71.7772 104.617 71.7502 104.632C71.7026 104.655 71.6495 104.665 71.5967 104.66Z" fill="#1C2D5E"/>
<path d="M59.3602 104.424C59.3602 104.424 60.9161 104.312 61.265 101.871C61.6138 99.4285 62.179 99.7774 63.3581 99.6937C64.5372 99.6099 74.347 103.531 73.3004 97.2517C72.2539 90.9723 69.4212 96.0726 66.9792 95.2423C64.5372 94.412 60.0858 92.9747 58.0834 95.8981C56.081 98.8215 57.8113 103.838 57.6229 105.624L57.9439 104.424H59.3602Z" fill="#1C2D5E"/>
<path d="M55.2927 106.677C55.5643 107.879 56.2481 108.948 57.2254 109.699C58.4813 110.626 59.4302 109.503 59.3604 107.933C59.2976 106.538 58.572 104.319 57.1835 104.033C55.7951 103.747 54.9509 105.163 55.2927 106.677Z" fill="#CE7A63"/>
<path d="M57.9443 104.426H59.3397C59.3397 104.426 58.3629 110.768 60.9375 110.705C63.512 110.642 65.04 109.673 67.8308 110.056C70.6217 110.44 70.7891 110.977 70.7891 110.977C70.7891 110.977 70.2798 115.317 69.01 115.017C68.7658 115.433 68.4006 115.765 67.9631 115.968C67.5255 116.171 67.0364 116.236 66.561 116.154C66.1991 116.458 65.758 116.652 65.2897 116.714C64.8213 116.776 64.345 116.702 63.9167 116.503C63.0241 116.687 62.095 116.514 61.3282 116.022C60.9074 115.99 60.5023 115.848 60.1534 115.61C59.8045 115.373 59.5239 115.048 59.3397 114.668C59.3397 114.668 56.0186 112.735 57.9443 104.426Z" fill="#1C2D5E"/>
<path opacity="0.1" d="M57.9443 104.426H59.3397C59.3397 104.426 58.3629 110.768 60.9375 110.705C63.512 110.642 65.04 109.673 67.8308 110.056C70.6217 110.44 70.7891 110.977 70.7891 110.977C70.7891 110.977 70.2798 115.317 69.01 115.017C68.7658 115.433 68.4006 115.765 67.9631 115.968C67.5255 116.171 67.0364 116.236 66.561 116.154C66.1991 116.458 65.758 116.652 65.2897 116.714C64.8213 116.776 64.345 116.702 63.9167 116.503C63.0241 116.687 62.095 116.514 61.3282 116.022C60.9074 115.99 60.5023 115.848 60.1534 115.61C59.8045 115.373 59.5239 115.048 59.3397 114.668C59.3397 114.668 56.0186 112.735 57.9443 104.426Z" fill="white"/>
<path d="M69.303 112.036C67.785 111.425 66.2129 110.958 64.6074 110.641C64.7609 111.799 65.3051 112.831 67.1261 113.264C67.548 113.408 68.01 113.379 68.4104 113.183C68.8107 112.987 69.1168 112.639 69.2611 112.217C69.2848 112.16 69.2989 112.098 69.303 112.036Z" fill="#1C2D5E"/>
<path opacity="0.5" d="M69.303 112.036C67.785 111.425 66.2129 110.958 64.6074 110.641C64.7609 111.799 65.3051 112.831 67.1261 113.264C67.548 113.408 68.01 113.379 68.4104 113.183C68.8107 112.987 69.1168 112.639 69.2611 112.217C69.2848 112.16 69.2989 112.098 69.303 112.036Z" fill="black"/>
<path d="M66.4969 112.155C67.1982 112.278 67.8415 112.623 68.3319 113.139C67.9462 113.277 67.5275 113.294 67.1318 113.188C66.431 113.059 65.7887 112.712 65.2969 112.197C65.682 112.054 66.1028 112.04 66.4969 112.155Z" fill="#A02724"/>
<path d="M69.1556 111.939C69.0871 112.062 68.9855 112.164 68.8623 112.233C68.739 112.302 68.599 112.336 68.4579 112.33C67.4159 112.072 66.3963 111.732 65.4089 111.311C65.2504 111.257 65.1073 111.165 64.9919 111.043C64.8765 110.922 64.7922 110.774 64.7461 110.613C66.2483 110.939 67.7226 111.383 69.1556 111.939Z" fill="white"/>
<path d="M54.7969 122.354L56.5202 121.691L62.681 123.854L68.0114 122.033L69.6859 123.052L65.9951 126.596L62.7856 124.636L59.4924 126.903L54.7969 122.354Z" fill="#FF5C8A"/>
<path opacity="0.5" d="M54.7969 122.354L56.5202 121.691L62.681 123.854L68.0114 122.033L69.6859 123.052L65.9951 126.596L62.7856 124.636L59.4924 126.903L54.7969 122.354Z" fill="white"/>
<path d="M115.875 269.02H110.175L109.365 279.136H115.296L117.04 269.02H115.875Z" fill="#FFC3BD"/>
<path d="M115.135 278.321L108.96 278.377C108.847 278.378 108.738 278.417 108.651 278.488C108.563 278.559 108.503 278.658 108.479 278.768L107.418 283.805C107.395 283.911 107.392 284.021 107.411 284.127C107.43 284.234 107.469 284.336 107.528 284.428C107.586 284.519 107.662 284.598 107.751 284.66C107.84 284.722 107.94 284.766 108.046 284.789H108.221C110.446 284.733 112.407 284.587 115.198 284.566C118.47 284.566 117.64 284.936 121.477 284.956C123.793 284.956 124.191 282.333 123.207 282.208C118.707 281.684 118.226 280.331 116.481 278.719C116.095 278.429 115.617 278.288 115.135 278.321Z" fill="#1C2D5E"/>
<path opacity="0.2" d="M110.175 269.02H115.875H117.04L116.377 272.85L109.889 272.599L110.175 269.02Z" fill="black"/>
<path d="M146.575 267.973L147.391 278.557L141.461 279.136L139.598 268.908L146.575 267.973Z" fill="#FFC3BD"/>
<path d="M147.343 278.321L141.168 278.377C141.056 278.379 140.947 278.418 140.86 278.489C140.773 278.56 140.712 278.658 140.687 278.768L139.619 283.805C139.596 283.911 139.593 284.02 139.612 284.127C139.631 284.234 139.671 284.336 139.729 284.428C139.787 284.519 139.863 284.598 139.952 284.66C140.041 284.722 140.141 284.766 140.247 284.789C140.305 284.796 140.364 284.796 140.422 284.789C142.647 284.733 144.608 284.587 147.399 284.566C150.671 284.566 149.841 284.935 153.678 284.956C155.995 284.956 156.399 282.333 155.415 282.207C150.915 281.684 150.434 280.331 148.683 278.719C148.299 278.429 147.823 278.288 147.343 278.321Z" fill="#1C2D5E"/>
<path opacity="0.2" d="M146.945 272.801L140.407 273.352L139.598 268.908L146.575 267.973L146.945 272.801Z" fill="black"/>
<path d="M126.459 187.11L134.476 227.277C134.476 227.277 133.485 244.308 137.727 270.018C137.787 270.421 137.995 270.786 138.309 271.044C138.624 271.302 139.023 271.434 139.429 271.414L147.983 270.883C148.412 270.86 148.814 270.668 149.102 270.349C149.389 270.03 149.539 269.61 149.518 269.181L147.502 226.377L141.92 172.562L126.808 173.351L126.459 187.11Z" fill="#1C2D5E"/>
<path opacity="0.4" d="M127.73 193.501L131.833 214.013C132.531 205.78 130.696 187.766 130.696 187.766L127.73 193.501Z" fill="black"/>
<path d="M131.455 187.11L119.078 269.196C119.013 269.627 118.791 270.019 118.455 270.297C118.119 270.575 117.693 270.72 117.257 270.703L109.694 270.375C109.232 270.357 108.795 270.158 108.478 269.821C108.161 269.485 107.989 269.037 107.998 268.575C108.152 261.793 108.857 236.752 111.487 223.559C111.487 223.559 111.25 191.052 115.436 172.535L131.483 171.754L131.455 187.11Z" fill="#1C2D5E"/>
<path d="M131.937 102.736C131.937 102.736 124.325 100.873 122.071 106.399C119.818 111.925 121.269 118.867 119.525 121.051C117.78 123.234 115.68 129.856 119.525 129.946C123.369 130.037 127.897 127.937 130.137 129.074C132.376 130.211 137.058 131.167 138.509 130.379C139.96 129.59 137.114 124.274 137.846 122.006C138.694 118.877 139.296 115.685 139.646 112.462C139.905 110.062 141.042 105.875 138.335 103.957C135.628 102.038 131.937 102.736 131.937 102.736Z" fill="#263238"/>
<path d="M137.469 127.987C136.268 127.501 135 127.199 133.709 127.094C133.514 127.072 133.326 127.007 133.158 126.905C132.991 126.803 132.847 126.665 132.739 126.501C132.015 125.131 131.849 123.533 132.278 122.043L125.713 116.789C126.299 119.329 126.927 123.501 126.18 126.355C126.124 126.562 126.006 126.748 125.841 126.886C125.677 127.025 125.474 127.109 125.259 127.129C124.394 127.206 123.864 127.269 123.864 127.269L121.994 129.815L122.692 132.997L128.176 136.095L132.271 136.925L136.374 134.657C136.374 134.657 141.711 129.892 137.469 127.987Z" fill="#FFC3BD"/>
<path opacity="0.2" d="M128.385 118.945L132.279 122.029C132.153 122.643 132.083 123.266 132.069 123.892C131.232 123.773 130.438 123.45 129.754 122.953C129.07 122.455 128.519 121.798 128.148 121.038C127.758 120.097 128.023 119.071 128.385 118.945Z" fill="black"/>
<path d="M124.304 111.994C125.036 116.48 125.239 119.145 127.75 121.231C131.532 124.371 136.897 121.727 137.518 117.129C138.076 112.943 136.821 106.328 132.188 104.982C131.175 104.679 130.102 104.641 129.07 104.87C128.038 105.099 127.081 105.588 126.291 106.291C125.502 106.993 124.904 107.886 124.557 108.884C124.209 109.882 124.122 110.953 124.304 111.994Z" fill="#FFC3BD"/>
<path d="M134.127 112.461C134.684 113.542 135.388 114.54 136.22 115.426C135.985 115.63 135.709 115.781 135.41 115.869C135.112 115.957 134.798 115.98 134.49 115.936L134.127 112.461Z" fill="#ED847E"/>
<path d="M129.9 111.012C129.863 111.019 129.825 111.019 129.788 111.012C129.741 110.979 129.708 110.931 129.695 110.875C129.683 110.82 129.691 110.762 129.718 110.712C129.893 110.416 130.135 110.165 130.424 109.979C130.714 109.794 131.043 109.679 131.386 109.645C131.443 109.645 131.498 109.667 131.539 109.708C131.579 109.748 131.602 109.803 131.602 109.861C131.602 109.918 131.579 109.973 131.539 110.014C131.498 110.054 131.443 110.077 131.386 110.077C131.115 110.109 130.855 110.203 130.627 110.354C130.399 110.504 130.21 110.705 130.074 110.942C130.052 110.967 130.025 110.986 129.995 110.998C129.965 111.01 129.932 111.015 129.9 111.012Z" fill="#1C2D5E"/>
<path d="M134.365 117.715C134.566 117.715 134.767 117.696 134.965 117.66C134.979 117.658 134.992 117.654 135.004 117.647C135.016 117.64 135.027 117.63 135.035 117.619C135.044 117.608 135.05 117.596 135.053 117.582C135.057 117.569 135.058 117.555 135.056 117.541C135.051 117.514 135.035 117.491 135.013 117.475C134.991 117.46 134.964 117.453 134.937 117.457C134.498 117.542 134.046 117.523 133.616 117.402C133.186 117.281 132.79 117.061 132.46 116.76C132.451 116.749 132.44 116.741 132.427 116.735C132.415 116.73 132.401 116.727 132.387 116.727C132.373 116.727 132.359 116.73 132.347 116.735C132.334 116.741 132.323 116.749 132.314 116.76C132.294 116.78 132.283 116.808 132.283 116.836C132.283 116.865 132.294 116.892 132.314 116.913C132.87 117.433 133.604 117.72 134.365 117.715Z" fill="#1C2D5E"/>
<path d="M136.375 107.272C136.375 107.272 137.624 103.435 133.668 102.995C129.712 102.556 126.223 103.435 125.086 105.13C123.949 106.826 123.209 114.898 123.209 114.898H125.177L128.595 109.616L130.688 106.386L132.223 104.991L134.163 104.725C134.766 105.121 135.283 105.633 135.684 106.233L136.375 107.272Z" fill="#263238"/>
<path d="M122.524 116.433C123.231 117.328 124.26 117.912 125.392 118.059C126.899 118.226 127.415 116.831 126.787 115.526C126.236 114.368 124.785 112.868 123.368 113.287C123.06 113.386 122.781 113.561 122.558 113.796C122.335 114.03 122.174 114.317 122.09 114.63C122.006 114.943 122.002 115.272 122.077 115.587C122.153 115.902 122.307 116.193 122.524 116.433Z" fill="#FFC3BD"/>
<path d="M132.892 105.959C132.892 105.959 134.036 109.301 132.069 109.636C130.101 109.971 132.201 107.446 131.629 106.399C131.057 105.352 130.813 110.585 129.41 110.697C128.008 110.809 125.922 112.267 125.224 120.353C124.526 128.44 123.612 125.767 123.529 123.891C123.445 122.014 124.38 111.695 125.224 108.939C126.068 106.183 132.683 103.957 132.683 103.957L135.069 104.718L137.301 107.097C137.301 107.097 138.097 111.283 136.604 110.222C135.111 109.162 134.901 110.411 132.892 105.959Z" fill="#263238"/>
<path d="M133.708 112.893C133.69 113.236 133.57 113.565 133.365 113.84C133.159 114.115 132.877 114.323 132.553 114.438C132.229 114.552 131.879 114.568 131.546 114.484C131.213 114.399 130.913 114.218 130.683 113.963C130.453 113.707 130.304 113.39 130.254 113.05C130.205 112.71 130.257 112.363 130.405 112.053C130.552 111.743 130.789 111.484 131.084 111.308C131.378 111.132 131.719 111.047 132.062 111.065C132.522 111.092 132.952 111.299 133.26 111.641C133.568 111.983 133.729 112.433 133.708 112.893Z" fill="#FF5C8A"/>
<path d="M137.992 112.733C137.973 113.075 137.854 113.405 137.648 113.68C137.442 113.955 137.16 114.163 136.836 114.278C136.512 114.392 136.162 114.408 135.829 114.323C135.496 114.239 135.196 114.058 134.966 113.802C134.736 113.547 134.587 113.23 134.538 112.89C134.488 112.55 134.541 112.203 134.688 111.893C134.836 111.583 135.072 111.324 135.367 111.148C135.662 110.972 136.002 110.887 136.345 110.905C136.805 110.93 137.237 111.136 137.546 111.479C137.854 111.821 138.014 112.272 137.992 112.733Z" fill="#FF5C8A"/>
<path d="M136.359 110.639C135.893 110.616 135.434 110.76 135.064 111.045C134.694 111.33 134.439 111.738 134.343 112.195L133.84 112.23C133.726 111.844 133.495 111.502 133.179 111.253C132.863 111.003 132.477 110.857 132.075 110.835C131.815 110.818 131.555 110.854 131.309 110.939C131.062 111.024 130.835 111.157 130.641 111.33C130.446 111.503 130.288 111.713 130.175 111.948C130.062 112.183 129.996 112.437 129.982 112.697V112.732L124.4 113.095V113.549L129.982 113.186C130.082 113.649 130.347 114.061 130.727 114.345C131.107 114.629 131.576 114.767 132.049 114.732C132.523 114.697 132.967 114.492 133.301 114.156C133.636 113.819 133.837 113.373 133.868 112.9C133.875 112.823 133.875 112.746 133.868 112.669H134.238C134.25 113.049 134.371 113.417 134.588 113.728C134.805 114.04 135.107 114.282 135.458 114.425C135.81 114.568 136.195 114.606 136.568 114.534C136.941 114.463 137.285 114.284 137.558 114.021C137.831 113.758 138.022 113.421 138.108 113.051C138.193 112.681 138.17 112.295 138.04 111.938C137.91 111.582 137.679 111.27 137.376 111.042C137.073 110.814 136.71 110.679 136.331 110.653L136.359 110.639ZM137.755 112.683C137.738 112.981 137.633 113.266 137.454 113.504C137.275 113.742 137.03 113.921 136.749 114.02C136.469 114.118 136.165 114.132 135.877 114.058C135.588 113.984 135.328 113.827 135.129 113.605C134.93 113.384 134.801 113.109 134.758 112.814C134.716 112.52 134.761 112.219 134.889 111.951C135.017 111.682 135.221 111.457 135.477 111.304C135.732 111.152 136.027 111.078 136.324 111.093C136.523 111.102 136.718 111.151 136.898 111.237C137.078 111.322 137.239 111.442 137.373 111.59C137.506 111.738 137.609 111.91 137.676 112.098C137.743 112.286 137.772 112.485 137.761 112.683H137.755ZM133.471 112.879C133.461 113.078 133.412 113.273 133.327 113.453C133.242 113.633 133.123 113.794 132.975 113.928C132.828 114.062 132.656 114.165 132.468 114.232C132.281 114.3 132.082 114.329 131.883 114.32C131.684 114.31 131.489 114.261 131.309 114.176C131.129 114.091 130.968 113.972 130.834 113.824C130.7 113.677 130.597 113.505 130.53 113.317C130.463 113.13 130.433 112.931 130.443 112.732C130.48 112.344 130.666 111.984 130.961 111.73C131.257 111.475 131.64 111.344 132.03 111.365C132.42 111.385 132.787 111.556 133.054 111.841C133.321 112.125 133.468 112.502 133.464 112.893L133.471 112.879Z" fill="#1C2D5E"/>
<path d="M95.1954 163.891L91.7069 169.242C91.7069 169.242 85.1485 170.889 85.9369 174.489C86.6695 177.866 91.1836 178.675 92.2162 176.798C93.2489 174.921 95.0489 171.14 95.0489 171.14L98.9352 166.409L95.1954 163.891Z" fill="#FFC3BD"/>
<path d="M121.507 127.993C121.507 127.993 117.439 128.398 110.923 135.668C104.406 142.938 102.418 152.504 102.418 152.504L94.2265 163.423C94.1265 163.555 94.0539 163.706 94.013 163.866C93.9721 164.027 93.9638 164.194 93.9885 164.358C94.0132 164.521 94.0704 164.679 94.1569 164.82C94.2433 164.961 94.3571 165.084 94.4916 165.181L98.0988 167.797C98.2302 167.894 98.3795 167.964 98.5379 168.003C98.6964 168.042 98.861 168.049 99.0224 168.025C99.1837 168 99.3386 167.944 99.4783 167.859C99.6179 167.775 99.7395 167.664 99.8361 167.532L109.604 154.387L116.002 139.247C116.002 139.247 123.146 127.477 121.507 127.993Z" fill="#FF5C8A"/>
<path opacity="0.1" d="M113.942 139.762C113.942 139.762 109.797 147.96 110.691 151.762L115.288 140.906L113.942 139.762Z" fill="black"/>
<path d="M91.3305 169.247C92.8585 169.247 94.2469 170.643 94.9725 171.996C95.3842 172.757 96.5424 172.08 96.1307 171.299C95.1958 169.561 93.4306 167.908 91.3305 167.887C91.1856 167.929 91.0582 168.017 90.9677 168.138C90.8771 168.259 90.8281 168.406 90.8281 168.557C90.8281 168.707 90.8771 168.854 90.9677 168.975C91.0582 169.096 91.1856 169.184 91.3305 169.226V169.247Z" fill="#FF5C8A"/>
<g opacity="0.5">
<path opacity="0.5" d="M91.3305 169.247C92.8585 169.247 94.2469 170.643 94.9725 171.996C95.3842 172.757 96.5424 172.08 96.1307 171.299C95.1958 169.561 93.4306 167.908 91.3305 167.887C91.1856 167.929 91.0582 168.017 90.9677 168.138C90.8771 168.259 90.8281 168.406 90.8281 168.557C90.8281 168.707 90.8771 168.854 90.9677 168.975C91.0582 169.096 91.1856 169.184 91.3305 169.226V169.247Z" fill="white"/>
</g>
<path d="M164.095 160.875L168.567 164.936C168.567 164.936 174.972 164.845 175.132 168.333C175.279 171.606 171.351 173.455 169.928 171.983C169.432 171.466 169.404 170.768 168.79 170.078C167.919 169.139 166.971 168.273 165.958 167.489L161.248 164.098L164.095 160.875Z" fill="#FFC3BD"/>
<path d="M138.119 128.085C138.119 128.085 141.936 128.42 146.178 133.185C150.231 137.741 156.511 152.414 156.511 152.414L165.002 159.817C165.282 160.062 165.465 160.4 165.516 160.769C165.567 161.138 165.484 161.513 165.281 161.826L163.076 165.231C162.958 165.412 162.803 165.567 162.622 165.684C162.441 165.802 162.236 165.881 162.023 165.915C161.809 165.949 161.591 165.938 161.382 165.883C161.173 165.828 160.977 165.729 160.809 165.594L150.106 157.054L141.266 140.706C141.266 140.706 134.993 126.962 138.119 128.085Z" fill="#FF5C8A"/>
<path opacity="0.1" d="M141.292 140.717L144.962 147.499C145.527 145.225 143.071 135.91 143.071 135.91L140.664 138.003L140.553 139.043C140.992 140.055 141.292 140.717 141.292 140.717Z" fill="black"/>
<path d="M143.002 131.055C142.444 128.961 138.202 128.04 135.223 127.189C133.555 129.785 132.202 133.866 129.125 133.287C126.048 132.708 124.939 129.185 124.59 127.008C120.006 127.706 115.143 129.91 114.068 136.992C112.631 146.432 113.775 159.744 114.068 175.205H142.437C142.437 175.205 145.095 138.701 143.002 131.055Z" fill="#FF5C8A"/>
<path d="M122.281 127.476C122.601 130.921 123.144 134.343 123.907 137.718C124.43 140.013 125.484 146.09 128.742 146.397C132 146.704 133.556 140.934 134.324 138.813C135.56 135.273 136.547 131.65 137.275 127.971C137.407 127.315 136.375 127.05 136.242 127.706C135.761 130.113 135.161 132.499 134.477 134.85C133.849 137.02 132.021 145.316 128.895 145.316C125.77 145.316 124.751 136.944 124.374 134.906C123.914 132.443 123.558 129.952 123.321 127.469C123.258 126.771 122.211 126.813 122.274 127.469L122.281 127.476Z" fill="#FF5C8A"/>
<g opacity="0.7">
<path opacity="0.7" d="M122.281 127.476C122.601 130.921 123.144 134.343 123.907 137.718C124.43 140.013 125.484 146.09 128.742 146.397C132 146.704 133.556 140.934 134.324 138.813C135.56 135.273 136.547 131.65 137.275 127.971C137.407 127.315 136.375 127.05 136.242 127.706C135.761 130.113 135.161 132.499 134.477 134.85C133.849 137.02 132.021 145.316 128.895 145.316C125.77 145.316 124.751 136.944 124.374 134.906C123.914 132.443 123.558 129.952 123.321 127.469C123.258 126.771 122.211 126.813 122.274 127.469L122.281 127.476Z" fill="white"/>
</g>
<path d="M211.375 213.201V222.885L215.973 279.33H221.61C221.61 279.33 223.236 234.746 220.913 224.978L223.341 209.629L211.375 213.201Z" fill="#CE7A63"/>
<path d="M213.804 279.255C213.215 279.312 212.625 279.153 212.144 278.808C212.085 278.722 212.053 278.62 212.053 278.515C212.053 278.41 212.085 278.308 212.144 278.222C212.24 278.068 212.393 277.958 212.57 277.915C213.518 277.664 215.486 278.808 215.57 278.857C215.594 278.87 215.613 278.891 215.625 278.916C215.636 278.941 215.639 278.969 215.632 278.996C215.626 279.023 215.612 279.048 215.592 279.068C215.572 279.087 215.548 279.101 215.521 279.108C214.954 279.205 214.38 279.254 213.804 279.255ZM212.918 278.145C212.833 278.131 212.746 278.131 212.66 278.145C212.605 278.156 212.553 278.178 212.507 278.21C212.461 278.243 212.423 278.285 212.395 278.334C212.29 278.494 212.325 278.578 212.395 278.627C212.653 278.996 214.077 279.017 215.13 278.899C214.448 278.508 213.697 278.252 212.918 278.145Z" fill="#FF5C8A"/>
<path d="M215.514 279.106H215.458C214.76 278.799 213.441 277.557 213.567 276.922C213.567 276.768 213.7 276.587 214.069 276.552C214.202 276.538 214.337 276.552 214.464 276.593C214.591 276.634 214.709 276.701 214.809 276.789C215.507 277.389 215.66 278.883 215.667 278.987C215.669 279.01 215.665 279.033 215.655 279.054C215.645 279.075 215.63 279.093 215.611 279.106C215.579 279.116 215.545 279.116 215.514 279.106ZM214.167 276.796H214.09C213.853 276.796 213.832 276.915 213.825 276.95C213.783 277.334 214.669 278.296 215.367 278.722C215.303 278.079 215.045 277.471 214.627 276.978C214.5 276.866 214.337 276.804 214.167 276.803V276.796Z" fill="#FF5C8A"/>
<path d="M216.12 278.32L222.295 278.376C222.408 278.377 222.517 278.416 222.605 278.487C222.692 278.558 222.753 278.657 222.777 278.767L223.851 283.804C223.897 284.018 223.857 284.241 223.739 284.425C223.622 284.609 223.436 284.74 223.223 284.788H223.049C220.823 284.732 218.862 284.586 216.072 284.565C212.799 284.565 213.623 284.935 209.792 284.956C207.476 284.956 207.078 282.332 208.062 282.207C212.562 281.683 213.044 280.33 214.788 278.718C215.171 278.431 215.643 278.29 216.12 278.32Z" fill="#1C2D5E"/>
<path opacity="0.1" d="M211.375 213.202V220.179C215.017 220.115 218.65 219.812 222.252 219.272L223.341 209.602L211.375 213.202Z" fill="black"/>
<path d="M195.126 212.506L193.933 221.067L189.244 279.353H195.328C195.328 279.353 204.07 235.517 202.773 224.772L206.959 212.492L195.126 212.506Z" fill="#CE7A63"/>
<path d="M186.955 279.255C186.366 279.312 185.775 279.153 185.294 278.808C185.235 278.722 185.203 278.62 185.203 278.515C185.203 278.41 185.235 278.308 185.294 278.222C185.391 278.068 185.544 277.958 185.72 277.915C186.669 277.664 188.636 278.808 188.72 278.857C188.744 278.87 188.764 278.891 188.775 278.916C188.787 278.941 188.789 278.969 188.783 278.996C188.776 279.023 188.762 279.048 188.743 279.068C188.723 279.087 188.698 279.101 188.671 279.108C188.104 279.205 187.53 279.254 186.955 279.255ZM186.069 278.145C185.983 278.131 185.896 278.131 185.811 278.145C185.756 278.156 185.703 278.178 185.658 278.21C185.612 278.243 185.574 278.285 185.546 278.334C185.441 278.494 185.476 278.578 185.546 278.627C185.804 278.996 187.227 279.017 188.281 278.899C187.594 278.506 186.838 278.25 186.055 278.145H186.069Z" fill="#FF5C8A"/>
<path d="M188.65 279.106H188.594C187.897 278.799 186.578 277.557 186.704 276.922C186.704 276.768 186.836 276.587 187.206 276.552C187.339 276.538 187.473 276.552 187.601 276.593C187.728 276.634 187.846 276.701 187.946 276.789C188.643 277.389 188.797 278.883 188.804 278.987C188.806 279.01 188.801 279.033 188.792 279.054C188.782 279.075 188.767 279.093 188.748 279.106C188.716 279.116 188.682 279.116 188.65 279.106ZM187.29 276.796H187.213C186.976 276.796 186.955 276.915 186.948 276.95C186.906 277.334 187.792 278.296 188.49 278.722C188.426 278.079 188.168 277.471 187.75 276.978C187.623 276.866 187.459 276.804 187.29 276.803V276.796Z" fill="#FF5C8A"/>
<path d="M189.257 278.32L195.432 278.376C195.545 278.377 195.654 278.416 195.741 278.487C195.829 278.558 195.89 278.657 195.913 278.767L196.988 283.804C197.034 284.018 196.993 284.241 196.876 284.425C196.758 284.609 196.573 284.74 196.36 284.788H196.185C193.96 284.732 191.999 284.586 189.208 284.565C185.936 284.565 186.759 284.935 182.929 284.956C180.613 284.956 180.215 282.332 181.199 282.207C185.699 281.683 186.18 280.33 187.925 278.718C188.307 278.431 188.78 278.29 189.257 278.32Z" fill="#1C2D5E"/>
<path opacity="0.1" d="M195.014 213.306L194.316 218.476C197.63 219.262 201.002 219.777 204.398 220.018L206.987 212.504H195.635L195.014 213.306Z" fill="black"/>
<path d="M206.01 134.27C203.219 134.27 200.959 136.614 197.917 140.695C196.116 143.034 194.515 145.519 193.13 148.126C192.202 150.059 190.019 151.663 188.163 152.745C185.825 154.14 176.427 163.28 175.541 163.455C174.432 163.671 173.448 163.797 172.695 163.866C171.905 163.94 171.151 164.233 170.518 164.711L169.213 165.701C169.022 165.902 168.877 166.142 168.786 166.404C168.696 166.667 168.664 166.945 168.691 167.221C168.718 167.497 168.804 167.764 168.944 168.004C169.083 168.244 169.273 168.451 169.499 168.611L171.997 170.376C172.39 170.655 172.874 170.777 173.353 170.718C173.832 170.659 174.272 170.422 174.585 170.055L177.334 166.978L180.823 164.417L194.219 155.054C194.816 154.629 195.343 154.114 195.782 153.526L205.096 141.512C205.096 141.512 208.075 134.27 206.01 134.27Z" fill="#CE7A63"/>
<path d="M205.096 134.299C205.096 134.299 199.514 141.974 200.442 168.026L191.609 214.305C191.609 214.305 206.024 219.419 225.797 215.233C225.797 215.233 232.076 186.167 221.841 168.487L229.746 136.86C229.746 136.86 220.446 132.206 205.096 134.299Z" fill="#FF5C8A"/>
<path d="M257.62 166.458L254.718 164.895L251.285 165.397C250.657 165.509 245.752 160.422 240.868 156.585C239.597 155.577 238.645 154.222 238.126 152.685C236.487 147.926 232.761 138.033 229.754 136.84C229.754 136.84 225.742 138.717 227.493 145.212L234.91 157.806C235.118 158.172 235.382 158.504 235.691 158.79L248.592 167.895L251.906 170.309L255.569 171.202C255.856 171.274 256.157 171.261 256.437 171.166C256.716 171.071 256.963 170.897 257.146 170.665L258.081 168.795C258.224 168.618 258.327 168.413 258.382 168.192C258.437 167.971 258.443 167.741 258.399 167.518C258.355 167.295 258.262 167.084 258.128 166.901C257.993 166.718 257.82 166.566 257.62 166.458Z" fill="#CE7A63"/>
<path d="M203.91 130.922C203.91 130.922 206.241 129.233 205.431 125.472C204.622 121.712 204.433 120.651 206.178 116.814C207.922 112.977 209.094 104.562 217.118 110.318C217.118 110.318 222.525 109.488 224.318 114.372C226.111 119.256 224.493 119.486 225.581 124.258C226.669 129.031 224.186 131.236 225.19 133.252C225.19 133.252 221.876 132.994 221.918 129.68C221.918 129.68 219.957 133.036 218.429 133.252C216.901 133.468 209.443 133.126 211.362 129.763C211.362 129.763 209.269 130.594 210.35 132.429C210.35 132.429 207.043 132.324 208.257 129.498C208.222 129.477 206.129 131.57 203.91 130.922Z" fill="#1C2D5E"/>
<path d="M218.457 124.258C218.081 127.181 217.871 132.512 220.02 134.298C217.859 136.23 215.455 137.872 212.869 139.182C209.485 136.74 211.048 134.912 211.048 134.912C214.208 133.907 213.971 131.535 213.287 129.33L218.457 124.258Z" fill="#CE7A63"/>
<path opacity="0.2" d="M216.337 126.344L213.26 129.344C213.436 129.857 213.564 130.384 213.643 130.921C214.864 130.656 216.644 129.435 216.685 128.13C216.677 127.518 216.559 126.913 216.337 126.344Z" fill="black"/>
<path d="M221.144 119.745C219.825 124.406 219.372 126.408 216.455 128.313C212.074 131.181 206.639 128.543 206.534 123.583C206.443 119.117 208.627 112.252 213.644 111.373C214.752 111.174 215.893 111.263 216.958 111.63C218.023 111.996 218.976 112.629 219.728 113.468C220.479 114.307 221.004 115.324 221.252 116.423C221.499 117.521 221.462 118.665 221.144 119.745Z" fill="#CE7A63"/>
<path d="M210.35 119.473C209.812 120.274 209.172 121.001 208.445 121.636C208.61 121.819 208.813 121.963 209.039 122.06C209.266 122.156 209.511 122.202 209.757 122.194L210.35 119.473Z" fill="#BA4D3C"/>
<path d="M214.494 118.271C214.526 118.278 214.559 118.278 214.592 118.271C214.613 118.259 214.632 118.243 214.647 118.223C214.663 118.203 214.674 118.181 214.68 118.157C214.687 118.133 214.688 118.108 214.685 118.083C214.682 118.059 214.674 118.035 214.661 118.013C214.489 117.697 214.243 117.426 213.945 117.225C213.646 117.023 213.303 116.896 212.945 116.855C212.917 116.85 212.888 116.851 212.86 116.858C212.832 116.865 212.806 116.878 212.784 116.896C212.762 116.915 212.744 116.938 212.732 116.964C212.719 116.99 212.713 117.018 212.713 117.047C212.713 117.076 212.719 117.104 212.732 117.13C212.744 117.156 212.762 117.179 212.784 117.197C212.806 117.216 212.832 117.229 212.86 117.236C212.888 117.243 212.917 117.244 212.945 117.239C213.238 117.279 213.517 117.387 213.759 117.556C214.002 117.725 214.201 117.948 214.34 118.209C214.36 118.229 214.384 118.246 214.41 118.256C214.437 118.267 214.465 118.272 214.494 118.271Z" fill="#1C2D5E"/>
<path d="M207.496 116.597C207.528 116.604 207.561 116.604 207.593 116.597C207.85 116.449 208.139 116.365 208.435 116.352C208.731 116.338 209.026 116.396 209.296 116.52C209.341 116.545 209.394 116.551 209.444 116.537C209.494 116.522 209.536 116.489 209.561 116.444C209.584 116.398 209.589 116.345 209.575 116.296C209.56 116.247 209.528 116.205 209.484 116.178C209.154 116.023 208.792 115.949 208.428 115.962C208.064 115.976 207.708 116.076 207.391 116.255C207.367 116.266 207.346 116.281 207.329 116.3C207.312 116.318 207.298 116.341 207.29 116.365C207.281 116.389 207.278 116.415 207.28 116.44C207.281 116.466 207.288 116.491 207.3 116.513C207.315 116.546 207.34 116.574 207.371 116.592C207.402 116.611 207.438 116.62 207.475 116.618L207.496 116.597Z" fill="#1C2D5E"/>
<path d="M213.203 119.432C213.12 119.809 212.848 120.081 212.589 120.025C212.331 119.969 212.206 119.62 212.289 119.23C212.373 118.839 212.645 118.581 212.896 118.636C213.148 118.692 213.28 119.013 213.203 119.432Z" fill="#1C2D5E"/>
<path d="M208.849 118.481C208.773 118.865 208.5 119.13 208.249 119.081C207.998 119.032 207.859 118.669 207.942 118.286C208.026 117.902 208.298 117.637 208.549 117.685C208.801 117.734 208.94 118.097 208.849 118.481Z" fill="#1C2D5E"/>
<path d="M208.654 117.733L207.789 117.266C207.789 117.266 208.11 118.089 208.654 117.733Z" fill="#1C2D5E"/>
<path d="M213.002 118.678L212.137 118.211C212.137 118.211 212.458 119.013 213.002 118.678Z" fill="#1C2D5E"/>
<path d="M209.869 113.192L217.076 115.376L218.214 118.767L219.128 123.379L221.96 121.286L223.705 117.267L221.681 112.76C221.681 112.76 217.342 110.925 217.209 110.925C217.076 110.925 213.546 109.969 213.546 109.969L210.685 110.534L209.869 113.192Z" fill="#1C2D5E"/>
<path d="M221.436 123.722C221.216 124.128 220.918 124.486 220.559 124.776C220.2 125.066 219.786 125.281 219.343 125.41C218.15 125.745 217.55 124.713 217.878 123.547C218.178 122.536 219.162 121.133 220.362 121.294C220.781 121.364 221.154 121.597 221.402 121.942C221.649 122.288 221.749 122.717 221.68 123.136C221.64 123.346 221.557 123.545 221.436 123.722Z" fill="#CE7A63"/>
<path d="M217.92 116.367C217.92 116.367 216.127 118.237 211.543 115.767C206.959 113.297 205.215 115.941 204.964 118.634C204.713 121.328 203.631 122.576 201.873 122.653C200.115 122.73 204.587 121.753 204.001 117.665C203.415 113.576 207.197 110.604 209.925 111.908C212.653 113.213 217.509 112.732 217.92 116.367Z" fill="#1C2D5E"/>
<path d="M216.685 115.068C216.685 115.068 215.513 117.217 216.685 120.377C217.857 123.538 215.157 122.701 216.685 125.471C216.621 124.968 216.686 124.457 216.876 123.987C217.065 123.516 217.372 123.102 217.766 122.785C217.766 122.785 218.039 124.836 218.994 124.794C218.749 124.144 218.664 123.443 218.748 122.753C218.832 122.063 219.082 121.404 219.476 120.831C220.829 118.773 220.746 114.545 216.685 115.068Z" fill="#1C2D5E"/>
<path d="M212.332 124.825C212.548 124.781 212.758 124.715 212.96 124.629C212.975 124.624 212.989 124.616 213 124.605C213.012 124.594 213.021 124.581 213.027 124.567C213.034 124.553 213.037 124.537 213.038 124.522C213.038 124.506 213.036 124.49 213.03 124.476C213.026 124.461 213.018 124.448 213.008 124.437C212.998 124.425 212.986 124.416 212.972 124.409C212.958 124.403 212.943 124.399 212.928 124.399C212.913 124.398 212.898 124.401 212.884 124.406C212.439 124.599 211.955 124.687 211.471 124.661C210.987 124.636 210.515 124.498 210.093 124.259C210.081 124.246 210.066 124.235 210.05 124.228C210.033 124.221 210.015 124.218 209.997 124.219C209.979 124.22 209.962 124.225 209.946 124.234C209.93 124.242 209.917 124.254 209.906 124.269C209.896 124.284 209.889 124.301 209.886 124.318C209.883 124.336 209.885 124.354 209.89 124.372C209.895 124.389 209.904 124.405 209.916 124.418C209.928 124.431 209.944 124.441 209.96 124.448C210.674 124.872 211.523 125.006 212.332 124.825Z" fill="#1C2D5E"/>
<path d="M221.325 134.44C217.945 133.884 214.519 133.669 211.096 133.798C210.329 134.893 209.54 137.252 212.247 141.236C214.663 138.253 217.783 135.918 221.325 134.44Z" fill="#CE7A63"/>
</g>
<defs>
<clipPath id="clip0_11604_120772">
<rect width="328" height="328" fill="white" transform="translate(0.164062)"/>
</clipPath>
</defs>
</svg>
