<svg width="37" height="37" viewBox="0 0 37 37" fill="none" xmlns="http://www.w3.org/2000/svg">
<path d="M11.1094 25.8496C11.9378 25.8496 12.6094 25.178 12.6094 24.3496C12.6094 23.5212 11.9378 22.8496 11.1094 22.8496V25.8496ZM24.4596 9.35108L22.9896 9.64918C23.1336 10.3593 23.7646 10.865 24.489 10.8508L24.4596 9.35108ZM9.79044 12.495L10.1187 13.9587C10.9268 13.7774 11.4351 12.9756 11.2542 12.1674L9.79044 12.495ZM25.811 22.7296C24.9991 22.8944 24.4746 23.6861 24.6394 24.498C24.8042 25.3098 25.5959 25.8344 26.4078 25.6696L25.811 22.7296ZM22.0487 20.9103C22.6345 21.4961 23.5842 21.4961 24.17 20.9103C24.7558 20.3245 24.7558 19.3747 24.17 18.7889L22.0487 20.9103ZM18.6094 15.3496L19.67 14.2889C19.0842 13.7032 18.1345 13.7032 17.5487 14.2889L18.6094 15.3496ZM13.0487 18.7889C12.4629 19.3747 12.4629 20.3245 13.0487 20.9103C13.6345 21.4961 14.5842 21.4961 15.17 20.9103L13.0487 18.7889ZM17.1094 33.3496C17.1094 34.178 17.7809 34.8496 18.6094 34.8496C19.4378 34.8496 20.1094 34.178 20.1094 33.3496H17.1094ZM11.1094 22.8496C8.62409 22.8496 6.60938 20.8349 6.60938 18.3496H3.60938C3.60938 22.4917 6.96724 25.8496 11.1094 25.8496V22.8496ZM24.6094 10.8496C27.9231 10.8496 30.6094 13.5359 30.6094 16.8496H33.6094C33.6094 11.879 29.5799 7.84961 24.6094 7.84961V10.8496ZM24.489 10.8508C24.5291 10.85 24.5692 10.8496 24.6094 10.8496V7.84961C24.5495 7.84961 24.4898 7.8502 24.4303 7.85136L24.489 10.8508ZM17.1094 4.84961C20.0108 4.84961 22.4342 6.91054 22.9896 9.64918L25.9297 9.05297C25.0964 4.94343 21.4659 1.84961 17.1094 1.84961V4.84961ZM11.1094 10.8496C11.1094 7.5359 13.7957 4.84961 17.1094 4.84961V1.84961C12.1388 1.84961 8.10938 5.87905 8.10938 10.8496H11.1094ZM11.2542 12.1674C11.1596 11.7447 11.1094 11.3039 11.1094 10.8496H8.10938C8.10938 11.5258 8.18422 12.1863 8.32666 12.8227L11.2542 12.1674ZM6.60938 18.3496C6.60938 16.2061 8.10961 14.4093 10.1187 13.9587L9.46213 11.0314C6.11284 11.7827 3.60938 14.772 3.60938 18.3496H6.60938ZM30.6094 16.8496C30.6094 19.7506 28.549 22.1738 25.811 22.7296L26.4078 25.6696C30.5164 24.8356 33.6094 21.2055 33.6094 16.8496H30.6094ZM24.17 18.7889L19.67 14.2889L17.5487 16.4103L22.0487 20.9103L24.17 18.7889ZM17.5487 14.2889L13.0487 18.7889L15.17 20.9103L19.67 16.4103L17.5487 14.2889ZM17.1094 15.3496L17.1094 33.3496H20.1094L20.1094 15.3496H17.1094Z" fill="#4A75F7"/>
</svg>
