<svg width="218" height="185" viewBox="0 0 218 185" fill="none" xmlns="http://www.w3.org/2000/svg">
<g clip-path="url(#clip0)">
<path d="M107.518 97.6534C74.7144 95.3873 -15.4415 84.836 37.1563 20.7491C51.6949 3.02519 82.7249 -7.04928 105.555 -2.20431C117.487 0.333534 125.937 9.66459 137.286 13.3919C147.372 16.7039 158.143 13.5662 168.127 17.5704C215.73 36.6478 234.322 80.8729 201.385 122.196C189.454 137.172 166.046 142.76 155.26 128.81C143.435 113.521 143.701 100.155 107.518 97.6534Z" fill="#21DD62"/>
<path opacity="0.9" d="M107.518 97.6534C74.7144 95.3873 -15.4415 84.836 37.1563 20.7491C51.6949 3.02519 82.7249 -7.04928 105.555 -2.20431C117.487 0.333534 125.937 9.66459 137.286 13.3919C147.372 16.7039 158.143 13.5662 168.127 17.5704C215.73 36.6478 234.322 80.8729 201.385 122.196C189.454 137.172 166.046 142.76 155.26 128.81C143.435 113.521 143.701 100.155 107.518 97.6534Z" fill="white"/>
<path d="M122.974 185.142C175.648 185.142 218.348 182.641 218.348 179.557C218.348 176.473 175.648 173.973 122.974 173.973C70.3008 173.973 27.6004 176.473 27.6004 179.557C27.6004 182.641 70.3008 185.142 122.974 185.142Z" fill="#F5F5F5"/>
<path d="M50.5191 25.6607C48.5203 24.2713 49.8188 18.4061 56.3468 16.5193C62.8749 14.6326 69.0758 20.3492 71.9897 25.5582C74.9035 30.7672 79.4532 31.0543 80.1689 28.5728C82.4131 30.5416 82.9499 39.2318 73.3495 39.5445C76.7132 42.9232 67.7262 49.7676 56.3622 45.1278C44.9981 40.4879 47.3854 27.9525 50.5191 25.6607Z" fill="#263238"/>
<path opacity="0.4" d="M50.5191 25.6607C48.5203 24.2713 49.8188 18.4061 56.3468 16.5193C62.8749 14.6326 69.0758 20.3492 71.9897 25.5582C74.9035 30.7672 79.4532 31.0543 80.1689 28.5728C82.4131 30.5416 82.9499 39.2318 73.3495 39.5445C76.7132 42.9232 67.7262 49.7676 56.3622 45.1278C44.9981 40.4879 47.3854 27.9525 50.5191 25.6607Z" fill="white"/>
<path d="M78.6353 183.079C75.8237 183.079 73.1296 182.889 70.9161 182.848C69.0247 182.812 68.3601 183.11 66.8265 183.074C65.5536 183.048 65.6047 181.828 65.9932 180.423C66.1926 179.715 66.5044 178.854 66.7652 177.716H72.7462C73.559 179.254 76.5803 180.664 78.7989 180.961C80.9204 181.248 80.2047 183.079 78.6353 183.079Z" fill="#263238"/>
<path d="M121.142 174.312C117.272 174.414 115.963 174.204 113.786 174.189C111.92 174.189 111.644 174.578 109.752 174.63C108.505 174.665 108.219 173.261 108.607 172.189C108.945 171.294 109.044 170.325 108.893 169.38L113.949 167.667C114.783 168.831 116.536 171.061 121.689 172.097C123.754 172.517 122.691 174.271 121.142 174.312Z" fill="#263238"/>
<path d="M85.281 73.9617C85.281 73.9617 94.3497 98.7352 99.4004 115.024C104.175 130.984 113.944 167.667 113.944 167.667C114.128 168.503 109.788 169.61 108.888 169.38C108.888 169.38 92.8519 145.57 88.8645 118.761C74.2185 100.14 67.2917 78.3658 67.2917 78.3658L85.281 73.9617Z" fill="#21DD62"/>
<path d="M79.8877 75.2896C79.8877 75.2896 81.3089 108.297 78.4615 123.939C75.476 140.346 72.1174 166.939 72.7513 177.731C71.826 178.27 68.5901 178.3 66.7702 177.731C66.7702 177.731 58.7494 141.371 67.2201 125.257C63.0896 86.9329 64.6641 79.0067 64.6641 79.0067L79.8877 75.2896Z" fill="#21DD62"/>
<path d="M73.2012 175.47C73.2184 176.213 73.2884 176.953 73.4108 177.685C73.4225 177.747 73.4216 177.81 73.4082 177.871C73.3948 177.932 73.3691 177.99 73.3328 178.041C73.2965 178.091 73.2502 178.134 73.1968 178.167C73.1434 178.199 73.0841 178.22 73.0223 178.229C70.8344 178.582 67.67 178.075 66.6629 177.89C66.5692 177.875 66.483 177.83 66.4167 177.761C66.3505 177.693 66.3078 177.605 66.2949 177.511L65.9677 175.435C65.9604 175.369 65.9671 175.303 65.9873 175.241C66.0074 175.179 66.0406 175.121 66.0846 175.073C66.1287 175.024 66.1825 174.986 66.2426 174.96C66.3026 174.934 66.3675 174.921 66.4329 174.922L72.7514 175.045C72.866 175.046 72.9761 175.09 73.0595 175.169C73.1429 175.248 73.1935 175.356 73.2012 175.47Z" fill="#263238"/>
<path opacity="0.1" d="M73.2012 175.47C73.2184 176.213 73.2884 176.953 73.4108 177.685C73.4225 177.747 73.4216 177.81 73.4082 177.871C73.3948 177.932 73.3691 177.99 73.3328 178.041C73.2965 178.091 73.2502 178.134 73.1968 178.167C73.1434 178.199 73.0841 178.22 73.0223 178.229C70.8344 178.582 67.67 178.075 66.6629 177.89C66.5692 177.875 66.483 177.83 66.4167 177.761C66.3505 177.693 66.3078 177.605 66.2949 177.511L65.9677 175.435C65.9604 175.369 65.9671 175.303 65.9873 175.241C66.0074 175.179 66.0406 175.121 66.0846 175.073C66.1287 175.024 66.1825 174.986 66.2426 174.96C66.3026 174.934 66.3675 174.921 66.4329 174.922L72.7514 175.045C72.866 175.046 72.9761 175.09 73.0595 175.169C73.1429 175.248 73.1935 175.356 73.2012 175.47Z" fill="white"/>
<path d="M113.678 165.283C113.903 165.796 114.307 166.77 114.634 167.462C114.661 167.517 114.677 167.577 114.681 167.639C114.685 167.7 114.676 167.761 114.657 167.82C114.637 167.878 114.605 167.931 114.565 167.977C114.524 168.023 114.475 168.061 114.42 168.088C112.605 168.868 110.723 169.479 108.796 169.913C108.7 169.94 108.598 169.935 108.506 169.898C108.413 169.861 108.336 169.794 108.285 169.708L107.155 167.903C107.119 167.845 107.096 167.78 107.088 167.712C107.08 167.645 107.087 167.576 107.108 167.511C107.13 167.447 107.165 167.387 107.212 167.338C107.259 167.289 107.317 167.251 107.38 167.226L113.05 165.052C113.106 165.024 113.167 165.008 113.229 165.004C113.292 165.001 113.355 165.01 113.414 165.032C113.472 165.053 113.526 165.087 113.572 165.13C113.617 165.173 113.654 165.225 113.678 165.283Z" fill="#263238"/>
<path opacity="0.1" d="M113.678 165.283C113.903 165.796 114.307 166.77 114.634 167.462C114.661 167.517 114.677 167.577 114.681 167.639C114.685 167.7 114.676 167.761 114.657 167.82C114.637 167.878 114.605 167.931 114.565 167.977C114.524 168.023 114.475 168.061 114.42 168.088C112.605 168.868 110.723 169.479 108.796 169.913C108.7 169.94 108.598 169.935 108.506 169.898C108.413 169.861 108.336 169.794 108.285 169.708L107.155 167.903C107.119 167.845 107.096 167.78 107.088 167.712C107.08 167.645 107.087 167.576 107.108 167.511C107.13 167.447 107.165 167.387 107.212 167.338C107.259 167.289 107.317 167.251 107.38 167.226L113.05 165.052C113.106 165.024 113.167 165.008 113.229 165.004C113.292 165.001 113.355 165.01 113.414 165.032C113.472 165.053 113.526 165.087 113.572 165.13C113.617 165.173 113.654 165.225 113.678 165.283Z" fill="white"/>
<path d="M78.4717 47.2401L78.6966 47.5733L78.9778 47.9783C79.1772 48.2501 79.3765 48.5321 79.5861 48.8038C80.0053 49.3524 80.4347 49.901 80.8897 50.429C81.7926 51.4916 82.7552 52.5015 83.7729 53.4539C84.7832 54.3917 85.8539 55.2618 86.9781 56.0584C88.0957 56.8297 89.2697 57.5152 90.4901 58.1092L88.9923 57.8529C89.087 57.8838 89.189 57.8838 89.2837 57.8529C89.5016 57.8095 89.7085 57.7223 89.892 57.5965C90.4965 57.1675 91.0326 56.6489 91.4818 56.0584C92.0442 55.3428 92.5566 54.589 93.0154 53.8026C93.5266 53.0028 93.9867 52.0902 94.4264 51.2904L94.5133 51.1314C94.7189 50.7551 95.0463 50.4603 95.4414 50.2957C95.8365 50.131 96.2758 50.1064 96.6868 50.2259C97.0978 50.3454 97.4558 50.6018 97.702 50.9528C97.9481 51.3039 98.0675 51.7285 98.0406 52.1568C97.9597 53.3124 97.7767 54.4585 97.4936 55.5816C97.2111 56.7399 96.8173 57.868 96.3178 58.95C95.7562 60.1859 94.9906 61.3178 94.0532 62.2979C93.4697 62.8842 92.8052 63.3832 92.0799 63.7796C91.2435 64.2311 90.3261 64.5116 89.3808 64.6051C88.9571 64.6486 88.5291 64.596 88.1283 64.4513L87.8779 64.3538C86.2167 63.7415 84.6164 62.9742 83.0981 62.0621C82.3364 61.6109 81.6105 61.1187 80.8897 60.6163C80.1689 60.1139 79.4992 59.5601 78.8449 59.0013C77.522 57.877 76.2864 56.6532 75.1489 55.3407C74.5814 54.6793 74.0294 54.0128 73.513 53.2899C73.2523 52.9361 73.0018 52.5772 72.7513 52.2081L72.3833 51.639L72.1941 51.3365L71.9794 50.9776C71.4756 50.1365 71.3192 49.1313 71.5436 48.1762C71.7681 47.2212 72.3556 46.3918 73.181 45.8649C74.0063 45.338 75.0043 45.1553 75.962 45.3557C76.9198 45.556 77.7616 46.1237 78.3081 46.9376L78.4717 47.2401Z" fill="#FFC3BD"/>
<path d="M72.7565 43.5435C76.7387 43.3333 79.5452 46.0814 84.9384 51.9415C84.6828 54.6793 79.351 58.5399 79.351 58.5399C79.351 58.5399 67.67 50.0086 72.7565 43.5435Z" fill="#263238"/>
<path d="M80.5472 49.3011C81.434 52.4303 82.1609 55.6029 82.7249 58.8065C83.5633 62.9593 84.2586 67.0711 85.281 73.9618L64.6335 78.9913C63.6111 73.0594 61.3464 66.579 54.4605 54.3563C54.0792 53.7234 53.8433 53.0133 53.7702 52.2774C53.697 51.5416 53.7884 50.7987 54.0376 50.1028C54.2869 49.4069 54.6878 48.7755 55.211 48.2545C55.7343 47.7336 56.3668 47.3362 57.0625 47.0914C57.86 46.8094 58.7086 46.5274 59.6186 46.2711C62.6836 45.2855 65.815 44.5213 68.9889 43.9845C70.0113 43.8307 71.1206 43.7025 72.1635 43.5948C74.0029 43.4293 75.8427 43.9072 77.3708 44.9473C78.899 45.9874 80.0212 47.5256 80.5472 49.3011Z" fill="#263238"/>
<path d="M57.676 35.5045C59.2096 38.3345 61.5713 43.6307 60.0991 46.1275C60.0991 46.1275 62.8545 44.9996 69.8119 47.2862C70.957 44.3331 69.4541 43.846 69.4541 43.846C65.8348 43.8716 65.1293 41.3953 64.9708 38.9446L57.676 35.5045Z" fill="#FFC3BD"/>
<path d="M68.3755 46.8402C66.4482 47.6092 67.2917 51.8902 67.2917 51.8902C67.2917 51.8902 60.186 48.4962 58.6881 46.3992L60.3138 44.9842C60.3138 44.9842 66.9287 45.9686 68.3755 46.8402Z" fill="#21DD62"/>
<path d="M70.2004 46.066C70.2004 46.066 73.0376 46.8709 74.2492 49.1421C73.6408 44.6202 70.4049 43.6102 70.4049 43.6102C69.7811 43.4355 69.115 43.4975 68.5339 43.7845C69.0333 43.9103 69.4732 44.2071 69.7775 44.6237C70.0818 45.0403 70.2314 45.5505 70.2004 46.066Z" fill="#21DD62"/>
<path opacity="0.2" d="M60.6665 36.9093L64.9964 38.96C65.0245 39.5366 65.1032 40.1097 65.2315 40.6724C63.8922 40.8006 61.6787 39.8419 61.1112 38.5499C60.8635 38.0351 60.7127 37.4789 60.6665 36.9093Z" fill="black"/>
<path d="M53.6374 30.0648C55.7334 34.7252 56.5257 36.7298 59.869 38.4012C64.9044 40.9083 70.1953 37.6424 69.541 32.5308C68.948 27.9166 65.6149 21.0772 60.2064 20.6876C59.047 20.5637 57.8757 20.7533 56.8141 21.2367C55.7524 21.72 54.8391 22.4795 54.1688 23.4363C53.4985 24.3931 53.0958 25.5123 53.0024 26.6779C52.9089 27.8435 53.1282 29.0129 53.6374 30.0648Z" fill="#FFC3BD"/>
<path opacity="0.2" d="M60.0991 28.6959C59.6216 28.5712 59.1143 28.6412 58.6881 28.8907C59.1667 28.9204 59.6463 28.8542 60.0991 28.6959Z" fill="black"/>
<path opacity="0.2" d="M60.1195 29.0394C59.8976 29.0292 59.6762 29.0675 59.4706 29.1516C59.2649 29.2357 59.0799 29.3636 58.9284 29.5264C59.3558 29.4522 59.7622 29.286 60.1195 29.0394Z" fill="black"/>
<path opacity="0.2" d="M66.8419 26.9886C66.8419 26.9886 67.1384 26.5682 67.3991 26.763C67.3256 26.8356 67.2386 26.8929 67.1429 26.9316C67.0473 26.9703 66.945 26.9897 66.8419 26.9886Z" fill="black"/>
<path opacity="0.2" d="M66.9338 27.3013C66.9338 27.3013 67.169 26.9219 67.3684 27.2398C67.3113 27.2941 67.2388 27.3292 67.1609 27.3402C67.083 27.3512 67.0037 27.3376 66.9338 27.3013Z" fill="black"/>
<path opacity="0.2" d="M63.8104 23.2972C63.8104 23.2972 61.0857 23.4356 59.7872 24.1739C61.1526 24.0078 62.4995 23.7143 63.8104 23.2972Z" fill="black"/>
<path d="M60.7432 29.0035C60.9017 29.4034 61.2544 29.6546 61.4998 29.5726C61.7451 29.4906 61.8372 29.0958 61.6787 28.701C61.5202 28.3062 61.1675 28.0447 60.9221 28.1268C60.6767 28.2088 60.5898 28.6036 60.7432 29.0035Z" fill="#263238"/>
<path d="M65.6507 27.4961C65.8092 27.896 66.162 28.1524 66.4073 28.0652C66.6527 27.9781 66.7498 27.5936 66.5914 27.1937C66.4329 26.7938 66.0802 26.5374 65.8297 26.6194C65.5792 26.7015 65.4923 27.0962 65.6507 27.4961Z" fill="#263238"/>
<path d="M65.7274 26.681L66.5658 26.0965C66.5658 26.0965 66.3664 27.004 65.7274 26.681Z" fill="#263238"/>
<path d="M65.1804 28.2549C65.8988 29.0505 66.7147 29.7516 67.6086 30.3416C67.2815 31.003 66.3051 31.0645 66.3051 31.0645L65.1804 28.2549Z" fill="#ED847E"/>
<path d="M64.613 33.2794C64.8471 33.2462 65.078 33.193 65.3031 33.1204C65.318 33.1154 65.3317 33.1073 65.3434 33.0966C65.355 33.0859 65.3642 33.0729 65.3705 33.0584C65.3767 33.0439 65.3799 33.0282 65.3797 33.0124C65.3796 32.9966 65.3761 32.981 65.3696 32.9666C65.3579 32.9345 65.3345 32.9082 65.3041 32.8929C65.2736 32.8776 65.2385 32.8747 65.206 32.8846C64.6974 33.0537 64.1572 33.1052 63.626 33.035C63.0948 32.9649 62.5863 32.775 62.1387 32.4795C62.1273 32.4681 62.1138 32.459 62.0989 32.4528C62.084 32.4466 62.068 32.4434 62.0518 32.4434C62.0357 32.4434 62.0197 32.4466 62.0048 32.4528C61.9899 32.459 61.9763 32.4681 61.9649 32.4795C61.9553 32.4929 61.9484 32.5081 61.9447 32.5242C61.941 32.5403 61.9405 32.557 61.9434 32.5732C61.9463 32.5895 61.9524 32.605 61.9613 32.6189C61.9703 32.6327 61.982 32.6446 61.9956 32.6539C62.7614 33.1788 63.6935 33.4016 64.613 33.2794Z" fill="#263238"/>
<path d="M65.5536 22.1898C64.8583 19.7904 55.1608 17.3909 52.9473 23.8765C50.652 24.6302 52.6406 32.6436 55.626 33.4691C58.8722 34.3663 57.9162 28.4242 55.626 25.3018C57.3999 24.7481 59.0562 23.6407 59.4243 22.5025C62.2256 24.3277 66.2999 24.7738 65.5536 22.1898Z" fill="#263238"/>
<path opacity="0.4" d="M65.5536 22.1898C64.8583 19.7904 55.1608 17.3909 52.9473 23.8765C50.652 24.6302 52.6406 32.6436 55.626 33.4691C58.8722 34.3663 57.9162 28.4242 55.626 25.3018C57.3999 24.7481 59.0562 23.6407 59.4243 22.5025C62.2256 24.3277 66.2999 24.7738 65.5536 22.1898Z" fill="white"/>
<path d="M53.6221 35.0225C53.9544 35.3802 54.3575 35.6644 54.8055 35.8568C55.2536 36.0493 55.7368 36.1458 56.2242 36.1402C57.4306 36.0736 57.497 34.6431 56.7354 33.4896C56.0299 32.4642 54.5576 31.2337 53.5608 31.8643C52.5639 32.4949 52.702 34.0843 53.6221 35.0225Z" fill="#FFC3BD"/>
<path d="M58.4274 26.7527C58.4618 26.7417 58.4936 26.7237 58.5209 26.6999C58.5481 26.6761 58.5702 26.647 58.5859 26.6143C58.7238 26.313 58.9287 26.0473 59.1847 25.8376C59.4408 25.6279 59.7413 25.4797 60.0633 25.4044C60.0968 25.4 60.1291 25.3889 60.1583 25.3717C60.1874 25.3545 60.2128 25.3315 60.2328 25.3042C60.2529 25.2769 60.2672 25.2458 60.275 25.2128C60.2828 25.1798 60.2838 25.1455 60.278 25.1121C60.2588 25.0448 60.2149 24.9873 60.1551 24.9512C60.0954 24.915 60.0242 24.9029 59.9559 24.9173C59.5444 25.0101 59.1599 25.1973 58.8326 25.4641C58.5053 25.731 58.2441 26.0703 58.0696 26.4554C58.0567 26.4865 58.0505 26.5201 58.0514 26.5538C58.0523 26.5875 58.0602 26.6206 58.0747 26.6511C58.0891 26.6815 58.1098 26.7086 58.1353 26.7305C58.1609 26.7524 58.1907 26.7687 58.2229 26.7784C58.292 26.7933 58.3641 26.7843 58.4274 26.7527Z" fill="#263238"/>
<path d="M67.0361 24.8916C67.0651 24.8803 67.0914 24.8631 67.1134 24.841C67.1354 24.8189 67.1526 24.7925 67.1639 24.7635C67.1754 24.7332 67.1808 24.7009 67.1798 24.6685C67.1788 24.6361 67.1715 24.6043 67.1582 24.5747C67.1449 24.5452 67.1259 24.5186 67.1023 24.4964C67.0787 24.4743 67.051 24.457 67.0208 24.4456C66.654 24.2789 66.2538 24.1991 65.8514 24.2124C65.4489 24.2257 65.0549 24.3318 64.6999 24.5225C64.6728 24.5394 64.6497 24.5618 64.6319 24.5884C64.6141 24.6149 64.6022 24.6449 64.5969 24.6764C64.5916 24.7079 64.593 24.7402 64.6011 24.7711C64.6091 24.8021 64.6236 24.8309 64.6437 24.8558C64.6828 24.9099 64.7407 24.9473 64.8061 24.9606C64.8714 24.9739 64.9393 24.9621 64.9964 24.9275C65.2798 24.7807 65.5929 24.7007 65.9118 24.6936C66.2307 24.6865 66.5471 24.7525 66.8367 24.8865C66.9001 24.9136 66.9714 24.9154 67.0361 24.8916Z" fill="#263238"/>
<path d="M62.8953 31.8336C61.7809 31.8336 60.6 30.6492 60.2217 29.1111C60.0945 28.6979 60.0557 28.2624 60.1076 27.833C60.1596 27.4037 60.3012 26.9902 60.5233 26.6194C60.6474 26.4364 60.8103 26.2831 61.0003 26.1706C61.1903 26.058 61.4027 25.9889 61.6224 25.9683C62.7829 25.8606 64.0404 27.0809 64.4392 28.6856C64.5656 29.0992 64.6037 29.5349 64.5508 29.9643C64.4979 30.3936 64.3554 30.807 64.1324 31.1773C64.0089 31.3608 63.8462 31.5145 63.6561 31.6271C63.466 31.7397 63.2533 31.8085 63.0334 31.8284L62.8953 31.8336ZM61.7656 26.2452H61.648C61.4717 26.2615 61.301 26.3158 61.1475 26.4042C60.994 26.4927 60.8613 26.6133 60.7585 26.7579C60.5597 27.0945 60.4338 27.4693 60.3888 27.858C60.3439 28.2466 60.381 28.6404 60.4978 29.0137C60.8607 30.4852 61.9905 31.6131 63.0078 31.5157C63.1854 31.5018 63.3577 31.4486 63.5124 31.3599C63.6671 31.2713 63.8003 31.1494 63.9024 31.003C64.0991 30.6655 64.2239 30.2908 64.2687 29.9025C64.3136 29.5142 64.2776 29.1208 64.1631 28.7471C63.8104 27.3372 62.7573 26.2452 61.7656 26.2452Z" fill="white"/>
<path d="M67.9767 29.7828C66.8623 29.7828 65.6865 28.5933 65.3031 27.0552C65.1783 26.6425 65.1406 26.2082 65.1925 25.78C65.2445 25.3519 65.3848 24.9393 65.6047 24.5686C65.7288 24.384 65.8922 24.2294 66.0832 24.1159C66.2742 24.0024 66.4879 23.9329 66.7089 23.9124C67.8591 23.8047 69.1218 25.0301 69.5205 26.6297C69.6478 27.0429 69.6866 27.4784 69.6347 27.9078C69.5827 28.3371 69.441 28.7507 69.2189 29.1214C69.0946 29.3053 68.931 29.4591 68.74 29.5718C68.549 29.6844 68.3354 29.753 68.1147 29.7725L67.9767 29.7828ZM66.8521 24.1944H66.7345C66.5568 24.2079 66.3843 24.261 66.2296 24.3497C66.0749 24.4383 65.9418 24.5604 65.8399 24.7071C65.6408 25.0436 65.5147 25.4184 65.4698 25.8071C65.4248 26.1958 65.4621 26.5897 65.5792 26.9629C65.9472 28.4344 67.0719 29.5572 68.0892 29.4649C68.2669 29.4513 68.4393 29.3983 68.5941 29.3096C68.7488 29.2209 68.8819 29.0989 68.9838 28.9522C69.1826 28.6156 69.3085 28.2407 69.3534 27.8521C69.3984 27.4634 69.3612 27.0697 69.2445 26.6963C68.8918 25.2864 67.8387 24.1944 66.8776 24.1944H66.8521Z" fill="white"/>
<path d="M64.1427 28.3575C64.1088 28.3564 64.0763 28.3438 64.0506 28.3216C64.0372 28.3087 64.0265 28.2932 64.0192 28.276C64.0119 28.2588 64.0081 28.2403 64.0081 28.2216C64.0081 28.2029 64.0119 28.1845 64.0192 28.1673C64.0265 28.1501 64.0372 28.1346 64.0506 28.1217C64.0915 28.0755 65.0117 27.004 65.7274 27.4859C65.7428 27.496 65.7561 27.5091 65.7665 27.5243C65.777 27.5396 65.7843 27.5567 65.7881 27.5748C65.7919 27.5929 65.7921 27.6116 65.7887 27.6298C65.7853 27.6479 65.7784 27.6653 65.7683 27.6807C65.7582 27.6962 65.7452 27.7096 65.73 27.72C65.7148 27.7305 65.6977 27.7378 65.6796 27.7416C65.6616 27.7454 65.643 27.7456 65.6249 27.7422C65.6067 27.7388 65.5895 27.7319 65.574 27.7218C65.0628 27.3885 64.2756 28.296 64.2705 28.3062C64.2542 28.3236 64.2343 28.3371 64.2122 28.346C64.1901 28.3549 64.1664 28.3588 64.1427 28.3575Z" fill="white"/>
<path d="M60.8199 28.1883L61.6633 27.6089C61.6633 27.6089 61.4742 28.5113 60.8199 28.1883Z" fill="#263238"/>
<path d="M96.0162 46.066L94.8251 47.117C94.6053 47.3114 94.4349 47.5557 94.3282 47.8295C94.2215 48.1032 94.1816 48.3986 94.2117 48.691L94.4979 51.4698C94.5532 52.0181 94.739 52.5451 95.0397 53.0064C95.3404 53.4677 95.7472 53.8497 96.2258 54.1205L96.8239 54.4588C98.9147 52.8541 99.9985 49.5677 99.9985 49.5677L100.407 48.6705C100.583 48.3033 100.607 47.8812 100.472 47.4967C100.338 47.1122 100.058 46.7968 99.6918 46.6197L97.923 45.7789C97.6116 45.6366 97.2656 45.588 96.9272 45.639C96.5887 45.6899 96.2723 45.8383 96.0162 46.066Z" fill="#FFC3BD"/>
<path d="M59.7208 54.4229L60.0633 58.6322C60.1757 60.0523 60.3189 61.4674 60.4518 62.8773C60.5847 64.2872 60.7534 65.6869 60.9272 67.0814C61.101 68.4759 61.3208 69.8397 61.5611 71.1829L60.6869 69.5987C60.9061 69.8565 61.1629 70.0795 61.4486 70.2601C61.8856 70.555 62.3415 70.8205 62.8135 71.0548C63.8359 71.5675 64.9453 72.0545 66.1006 72.5006C67.2559 72.9466 68.4419 73.3875 69.6432 73.8131L73.2574 75.064H73.3034C73.7221 75.2121 74.0754 75.5035 74.301 75.887C74.5265 76.2704 74.61 76.7214 74.5368 77.1606C74.4635 77.5997 74.2381 77.9989 73.9003 78.2878C73.5625 78.5767 73.1339 78.7368 72.69 78.7401C71.2995 78.7401 69.9704 78.6529 68.6004 78.5247C67.2303 78.3966 65.9012 78.1966 64.5414 77.9403C63.14 77.6807 61.7582 77.3244 60.4058 76.8739C59.6624 76.6277 58.9366 76.3314 58.2332 75.9869C57.3539 75.5676 56.5437 75.0161 55.8305 74.3514C55.4541 74.0011 55.1801 73.5544 55.0381 73.0594L54.9563 72.7723C54.5269 71.2701 54.1486 69.773 53.847 68.276C53.5454 66.7789 53.2643 65.2818 53.0496 63.7899C52.8348 62.2979 52.6508 60.7957 52.4975 59.2987C52.3441 57.8016 52.247 56.325 52.201 54.7562C52.1749 53.7766 52.5303 52.8253 53.1919 52.1042C53.8535 51.383 54.7692 50.9487 55.7447 50.8933C56.7203 50.838 57.6789 51.1659 58.4174 51.8076C59.1559 52.4494 59.616 53.3543 59.7003 54.3306L59.7208 54.4229Z" fill="#FFC3BD"/>
<path d="M56.8785 47.1478C53.6426 48.491 52.5435 49.8446 51.4393 57.2838C53.9544 60.6624 61.2953 60.6624 61.2953 60.6624C61.2953 60.6624 60.7432 50.9827 56.8785 47.1478Z" fill="#263238"/>
<path d="M161.636 44.1524L161.315 44.5844L163.966 46.5605L164.286 46.1285L161.636 44.1524Z" fill="#21DD62"/>
<path d="M152.656 37.4548L152.335 37.8868L159.145 42.9647L159.466 42.5327L152.656 37.4548Z" fill="#21DD62"/>
<path d="M129.157 29.588L74.7961 78.453L135.89 75.6434L196.979 72.839L138.38 29.147C137.028 28.1426 135.371 27.6378 133.69 27.7181C132.009 27.7985 130.408 28.4591 129.157 29.588Z" fill="#21DD62"/>
<path opacity="0.5" d="M129.157 29.588L74.7961 78.453L135.89 75.6434L196.979 72.839L138.38 29.147C137.028 28.1426 135.371 27.6378 133.69 27.7181C132.009 27.7985 130.408 28.4591 129.157 29.588Z" fill="white"/>
<path d="M197.633 151.681L81.3191 157.044C79.9905 157.098 78.6943 156.624 77.7129 155.724C76.7314 154.824 76.1443 153.572 76.0793 152.24L72.8331 81.1087C72.7747 79.7753 73.2445 78.4729 74.1399 77.4855C75.0354 76.4981 76.2838 75.906 77.6129 75.8382L193.932 70.5011C195.259 70.4452 196.554 70.9169 197.536 71.8136C198.519 72.7103 199.108 73.9594 199.177 75.2896L202.423 146.421C202.479 147.754 202.006 149.056 201.109 150.041C200.212 151.027 198.962 151.616 197.633 151.681Z" fill="#21DD62"/>
<path opacity="0.8" d="M197.633 151.681L81.3191 157.044C79.9905 157.098 78.6943 156.624 77.7129 155.724C76.7314 154.824 76.1443 153.572 76.0793 152.24L72.8331 81.1087C72.7747 79.7753 73.2445 78.4729 74.1399 77.4855C75.0354 76.4981 76.2838 75.906 77.6129 75.8382L193.932 70.5011C195.259 70.4452 196.554 70.9169 197.536 71.8136C198.519 72.7103 199.108 73.9594 199.177 75.2896L202.423 146.421C202.479 147.754 202.006 149.056 201.109 150.041C200.212 151.027 198.962 151.616 197.633 151.681Z" fill="white"/>
<path opacity="0.2" d="M136.504 124.59L82.4131 79.8168C82.0381 79.5079 81.7654 79.0923 81.631 78.6247C81.4965 78.1572 81.5067 77.6597 81.6601 77.1981C81.8135 76.7364 82.103 76.3324 82.4903 76.0392C82.8776 75.7461 83.3444 75.5777 83.8291 75.5563L135.767 73.1722L187.706 70.7831C188.188 70.7622 188.666 70.888 189.075 71.1438C189.485 71.3997 189.809 71.7737 190.003 72.217C190.198 72.6602 190.254 73.152 190.165 73.628C190.076 74.104 189.846 74.542 189.505 74.8846L139.719 124.432C139.299 124.855 138.737 125.105 138.142 125.135C137.547 125.164 136.963 124.97 136.504 124.59Z" fill="#21DD62"/>
<path d="M185.186 61.3308L106.006 35.4977C103.498 34.6796 100.804 36.0552 99.9884 38.5701L83.5829 89.1482C82.7672 91.6632 84.1387 94.3652 86.6463 95.1833L165.827 121.016C168.334 121.834 171.029 120.459 171.844 117.944L188.25 67.3658C189.066 64.8509 187.694 62.1489 185.186 61.3308Z" fill="#21DD62"/>
<path d="M184.617 61.1484L105.436 35.3154C102.929 34.4972 100.235 35.8728 99.4188 38.3877L83.0133 88.9658C82.1976 91.4808 83.5691 94.1828 86.0767 95.0009L165.257 120.834C167.765 121.652 170.459 120.277 171.275 117.762L187.68 67.1835C188.496 64.6685 187.124 61.9666 184.617 61.1484Z" fill="#21DD62"/>
<path opacity="0.2" d="M184.617 61.1484L105.436 35.3154C102.929 34.4972 100.235 35.8728 99.4188 38.3877L83.0133 88.9658C82.1976 91.4808 83.5691 94.1828 86.0767 95.0009L165.257 120.834C167.765 121.652 170.459 120.277 171.275 117.762L187.68 67.1835C188.496 64.6685 187.124 61.9666 184.617 61.1484Z" fill="white"/>
<path opacity="0.2" d="M116.475 104.918L103.618 100.719L149.094 49.5574L161.956 53.7513L116.475 104.918Z" fill="white"/>
<path opacity="0.2" d="M128.191 108.738L120.687 106.292L166.169 55.1253L173.673 57.576L128.191 108.738Z" fill="white"/>
<path d="M130.772 43.3889L130.204 43.2034L110.729 103.245L111.298 103.43L130.772 43.3889Z" fill="white"/>
<path d="M179.63 92.842L179.815 92.2716L91.097 63.3267L90.9119 63.8971L179.63 92.842Z" fill="white"/>
<path d="M120.753 73.5106C120.716 73.5094 120.68 73.4983 120.649 73.4785C120.617 73.4586 120.592 73.4308 120.574 73.3978C119.322 70.7266 116.797 66.8968 114.123 62.8414C109.558 55.9149 105.249 49.3729 106.593 47.6605C107.043 47.0914 108.004 47.0862 109.532 47.6605C116.326 50.1522 122.41 63.8411 120.953 73.3516C120.946 73.394 120.926 73.4331 120.896 73.4635C120.865 73.4938 120.826 73.5139 120.784 73.5208L120.753 73.5106ZM107.672 47.6297C107.532 47.6141 107.391 47.631 107.259 47.679C107.126 47.727 107.007 47.8049 106.91 47.9066C105.739 49.3934 110.371 56.4173 114.455 62.6209C116.945 66.3995 119.307 69.9832 120.646 72.6339C121.72 63.3079 115.897 50.4085 109.399 48.0245C108.849 47.7977 108.265 47.6643 107.672 47.6297Z" fill="#21DD62"/>
<path d="M96.3178 89.8912C95.8279 89.8984 95.3399 89.8292 94.8711 89.6861C93.3375 89.1734 92.5656 87.8251 92.632 85.6358C92.6883 83.826 93.7976 82.0111 95.9293 80.2372C101.629 75.4845 113.709 72.034 120.784 73.1158C120.817 73.1194 120.849 73.1317 120.876 73.1515C120.903 73.1713 120.924 73.1979 120.937 73.2286C120.953 73.2588 120.961 73.2922 120.961 73.326C120.961 73.3599 120.953 73.3932 120.937 73.4234C116.679 79.7911 102.917 89.8912 96.3178 89.8912ZM117.885 73.3106C110.851 73.3106 101.108 76.4381 96.1849 80.5397C94.1401 82.2418 93.0819 83.9593 93.0308 85.6666C92.9694 87.6559 93.6289 88.8863 94.9938 89.3273C100.433 91.0756 115.769 80.1397 120.411 73.485C119.574 73.3701 118.73 73.3119 117.885 73.3106Z" fill="#21DD62"/>
<path d="M126.177 91.6959H126.049C124.132 91.6395 122.64 90.9781 121.607 89.7323C118.862 86.4254 119.659 79.4784 120.62 73.1876C120.626 73.1446 120.645 73.1046 120.676 73.074C120.706 73.0433 120.746 73.0238 120.789 73.0184C120.831 73.0116 120.874 73.019 120.911 73.0394C120.948 73.0599 120.977 73.0922 120.994 73.1312C121.842 74.941 122.824 76.8329 123.764 78.6683C126.637 84.2311 129.117 89.0401 127.941 90.9115C127.742 91.1865 127.474 91.4039 127.164 91.5417C126.855 91.6794 126.514 91.7326 126.177 91.6959ZM120.917 73.89C120.012 79.9039 119.383 86.41 121.939 89.4759C122.905 90.6449 124.265 91.2447 126.09 91.296C126.862 91.3216 127.363 91.1268 127.624 90.7013C128.677 89.0196 126.131 84.0772 123.432 78.8478C122.543 77.202 121.673 75.5152 120.891 73.8797L120.917 73.89Z" fill="#21DD62"/>
<path d="M126.78 73.8387C124.765 73.8446 122.752 73.6989 120.758 73.4029C120.729 73.3975 120.701 73.3861 120.677 73.3693C120.652 73.3525 120.631 73.3308 120.615 73.3055C120.604 73.2779 120.598 73.2483 120.598 73.2184C120.598 73.1884 120.604 73.1588 120.615 73.1312C121.689 70.3831 125.242 67.7325 129.055 66.8302C132.368 66.0457 135.364 66.6764 137.495 68.6041C138.574 69.5782 138.518 70.378 138.282 70.8753C137.347 72.8338 132.179 73.8387 126.78 73.8387ZM121.065 73.044C128.396 74.1207 136.846 72.962 137.909 70.7061C138.17 70.1576 137.935 69.5526 137.214 68.8963C135.169 67.0609 132.312 66.4662 129.132 67.2198C125.548 68.0709 122.21 70.4959 121.065 73.044Z" fill="#21DD62"/>
<path d="M118.197 95.9564C117.686 95.9564 117.144 95.5103 116.51 94.5977C113.295 89.9835 115.519 78.5247 120.682 73.1209C120.711 73.09 120.748 73.0693 120.79 73.0619C120.831 73.0545 120.874 73.0608 120.912 73.0799C120.951 73.0992 120.982 73.1307 121.001 73.1696C121.021 73.2084 121.027 73.2525 121.019 73.2952C120.631 75.546 120.534 79.1041 120.426 82.8724C120.217 90.4552 119.966 95.4591 118.432 95.9205C118.356 95.9425 118.277 95.9545 118.197 95.9564ZM120.554 73.8797C115.81 79.3399 113.827 89.9937 116.863 94.3875C117.471 95.2591 117.983 95.6642 118.346 95.5514C119.716 95.1412 119.879 88.6248 120.053 82.8775C120.125 79.4271 120.217 76.1612 120.554 73.8797Z" fill="white"/>
<path d="M138.497 80.0475C132.736 80.0475 124.439 77.0123 120.687 73.3824C120.662 73.3595 120.644 73.3303 120.634 73.2978C120.624 73.2654 120.623 73.2308 120.631 73.1978C120.636 73.1648 120.65 73.1339 120.672 73.1085C120.693 73.0832 120.722 73.0644 120.753 73.0543C126.729 70.7267 141.713 70.6139 144.575 74.3822C145.352 75.4076 145.225 76.6329 144.197 78.0069C143.349 79.14 141.825 79.8065 139.668 79.9808C139.29 80.0321 138.901 80.0475 138.497 80.0475ZM121.193 73.3311C125.257 77.0328 134.096 80.0577 139.637 79.6014C141.682 79.4374 143.103 78.8272 143.875 77.7865C144.785 76.5714 144.898 75.5152 144.259 74.6437C141.6 71.1266 127.133 71.1881 121.193 73.3311Z" fill="white"/>
<path d="M120.753 73.5106C120.725 73.5177 120.695 73.5177 120.666 73.5106C120.628 73.4906 120.597 73.4591 120.578 73.4204C120.559 73.3817 120.552 73.3379 120.559 73.2953C121.351 68.7323 124.03 59.3756 128.503 56.6224C129.058 56.2551 129.688 56.0158 130.347 55.9218C131.005 55.8278 131.676 55.8815 132.312 56.0789C132.655 56.1489 132.972 56.3114 133.23 56.5491C133.487 56.7867 133.676 57.0904 133.774 57.4273C134.428 60.1446 128.662 65.7791 124.061 70.3062C122.885 71.4598 121.776 72.5467 120.896 73.4696C120.856 73.5008 120.805 73.5154 120.753 73.5106ZM130.977 56.2533C130.168 56.2643 129.377 56.5042 128.697 56.9454C125.058 59.191 122.236 66.5738 121.065 72.7262C121.863 71.911 122.798 70.9881 123.785 70.0243C128.089 65.8048 133.983 60.0267 133.38 57.5299C133.298 57.2596 133.144 57.017 132.934 56.8289C132.724 56.6408 132.466 56.5144 132.189 56.4635C131.803 56.3341 131.4 56.2632 130.993 56.2533H130.977Z" fill="white"/>
<path d="M116.807 74.5001C115.39 74.4988 113.985 74.231 112.666 73.7105C110.197 72.721 108.576 70.9727 108.065 68.7835C107.805 67.6505 108.208 67.1532 108.576 66.9378C110.621 65.7843 116.96 69.4039 120.845 73.1671C120.868 73.1877 120.885 73.2133 120.895 73.2418C120.906 73.2703 120.91 73.3009 120.907 73.3311C120.904 73.3601 120.895 73.3882 120.88 73.4131C120.865 73.438 120.844 73.4591 120.82 73.4747C119.605 74.1888 118.214 74.5442 116.807 74.5001ZM109.568 67.1173C109.299 67.1047 109.032 67.1612 108.791 67.2813C108.403 67.5018 108.28 67.9786 108.454 68.6912C108.924 70.742 110.473 72.4032 112.814 73.3414C115.432 74.3924 118.581 74.3668 120.431 73.2799C116.838 69.891 111.864 67.1173 109.568 67.1173Z" fill="white"/>
<path opacity="0.2" d="M131.361 109.128L81.3191 157.07L139.469 154.373L197.633 151.681L143.446 108.528C141.699 107.146 139.513 106.445 137.291 106.555C135.069 106.666 132.963 107.579 131.361 109.128Z" fill="#21DD62"/>
<path d="M133.073 110.522L81.3191 157.044L139.469 154.373L197.633 151.681L141.856 110.117C140.57 109.159 138.993 108.677 137.393 108.751C135.792 108.824 134.267 109.45 133.073 110.522Z" fill="#21DD62"/>
<path opacity="0.8" d="M133.073 110.522L81.3191 157.044L139.469 154.373L197.633 151.681L141.856 110.117C140.57 109.159 138.993 108.677 137.393 108.751C135.792 108.824 134.267 109.45 133.073 110.522Z" fill="white"/>
<path d="M78.8756 77.3404L77.981 76.0279C77.8143 75.7856 77.5924 75.5866 77.3337 75.4475C77.075 75.3084 76.7869 75.2332 76.4934 75.2281L73.7073 75.1769C73.1589 75.1669 72.6161 75.2887 72.1243 75.5322C71.6324 75.7757 71.2059 76.1338 70.8803 76.5765L70.4714 77.1353C71.8107 79.4117 74.9291 80.878 74.9291 80.878L75.7726 81.3907C75.9424 81.5019 76.1325 81.5782 76.332 81.6152C76.5314 81.6522 76.7362 81.6491 76.9345 81.6062C77.1327 81.5633 77.3205 81.4814 77.487 81.3652C77.6535 81.249 77.7953 81.1008 77.9043 80.9293L78.9523 79.2681C79.1257 78.9735 79.2107 78.6349 79.1971 78.293C79.1835 77.951 79.0719 77.6203 78.8756 77.3404Z" fill="#FFC3BD"/>
</g>
<defs>
<clipPath id="clip0">
<rect width="218" height="185" fill="white"/>
</clipPath>
</defs>
</svg>
