<svg width="277" height="170" viewBox="0 0 277 170" fill="none" xmlns="http://www.w3.org/2000/svg">
<rect x="16.9219" y="16.115" width="32" height="14" rx="4" fill="#FF5C8A"/>
<rect x="64.9219" y="16.115" width="195.549" height="14" rx="4" fill="#FF5C8A"/>
<rect x="16.9219" y="34.115" width="118.439" height="12" rx="4" fill="#FF5C8A"/>
<path d="M219.451 56.8465L219.451 56.8465L219.454 56.845C223.44 54.6926 227.823 53.6151 232.445 53.6151C237.084 53.6151 240.947 54.5724 245.44 56.8468C245.682 56.9807 245.954 57.0451 246.22 57.0451C246.833 57.0451 247.407 56.7095 247.707 56.1258C248.15 55.3135 247.83 54.3103 246.994 53.8831L246.992 53.8822C242.083 51.3996 237.588 50.2817 232.445 50.2817C227.258 50.2817 222.332 51.5149 217.842 53.9104C217.026 54.3445 216.72 55.3748 217.164 56.1798L217.168 56.1868L217.172 56.1937C217.636 56.9754 218.638 57.2795 219.451 56.8465ZM211.263 68.9979L211.263 68.998L211.271 69.0033C211.564 69.1953 211.897 69.2951 212.234 69.2951C212.743 69.2951 213.277 69.0765 213.578 68.5807C215.668 65.7117 218.311 63.4377 221.461 61.8446L221.462 61.8441C228.112 58.4633 236.66 58.4627 243.336 61.8217L243.336 61.8219C246.469 63.395 249.114 65.6513 251.205 68.5267C251.751 69.2941 252.796 69.4473 253.556 68.9279C254.335 68.3956 254.51 67.3284 253.963 66.5864C251.565 63.2793 248.511 60.6842 244.878 58.852C237.254 55.0002 227.54 55.0241 219.941 58.8755C216.306 60.7088 213.252 63.3287 210.855 66.6596L210.854 66.6596L210.852 66.6628C210.315 67.4213 210.48 68.4627 211.263 68.9979ZM223.998 89.0586L223.996 89.0559C222.598 86.6232 221.854 83.6086 221.854 80.3217C221.854 74.9869 226.557 70.5784 232.422 70.5784C238.286 70.5784 242.989 74.9869 242.989 80.3217C242.989 81.2595 243.744 81.9884 244.677 81.9884C245.609 81.9884 246.364 81.2595 246.364 80.3217C246.364 73.0848 240.076 67.2451 232.422 67.2451C224.767 67.2451 218.479 73.0848 218.479 80.3217C218.479 84.1517 219.35 87.7392 221.038 90.6952C222.654 93.5625 223.801 94.9059 225.888 96.9567C226.208 97.2997 226.653 97.4584 227.078 97.4584C227.516 97.4584 227.942 97.2917 228.29 96.9813L228.303 96.9691L228.316 96.956C228.955 96.2955 228.955 95.2647 228.316 94.6042L228.316 94.6041L228.309 94.5973C226.5 92.7972 225.488 91.6897 223.998 89.0586ZM238.351 88.2119L238.35 88.2112C235.585 86.3853 233.967 83.4347 233.967 80.3217C233.967 79.384 233.212 78.6551 232.279 78.6551C231.346 78.6551 230.592 79.384 230.592 80.3217C230.592 84.558 232.797 88.5363 236.466 90.9804C238.603 92.4205 241.197 93.1417 244.107 93.1417C244.456 93.1417 245.676 93.1177 247.07 92.8535C247.993 92.6897 248.618 91.8334 248.446 90.9173C248.277 89.9927 247.4 89.3953 246.49 89.5593C245.566 89.718 244.646 89.7851 244.107 89.7851C241.811 89.7851 239.941 89.268 238.351 88.2119ZM238.893 97.8842L238.893 97.8844L238.905 97.8873C239.007 97.9124 239.174 97.9484 239.333 97.9484C240.042 97.9484 240.756 97.4595 240.935 96.6819C241.165 95.8172 240.658 94.8899 239.746 94.655C236.474 93.7655 234.39 92.5921 232.2 90.4636C229.424 87.7579 227.91 84.1538 227.91 80.2984C227.91 78.1177 229.854 76.2717 232.35 76.2717C234.847 76.2717 236.79 78.1177 236.79 80.2984C236.79 84.384 240.322 87.6584 244.605 87.6584C248.889 87.6584 252.42 84.384 252.42 80.2984C252.42 69.9098 243.375 61.5284 232.327 61.5284C224.478 61.5284 217.289 65.8489 214.04 72.5435L214.04 72.5446C212.935 74.8373 212.375 77.4563 212.375 80.3217C212.375 83.5341 212.957 86.6268 214.141 89.7371C214.452 90.5794 215.426 91.0337 216.298 90.709C217.183 90.4031 217.622 89.4304 217.284 88.5651C215.888 84.9059 215.727 82.1009 215.727 80.3217C215.727 77.9596 216.189 75.8201 217.077 74.0084L217.078 74.007C219.766 68.4763 225.757 64.8851 232.327 64.8851C241.588 64.8851 249.045 71.837 249.045 80.3217C249.045 82.5024 247.102 84.3484 244.605 84.3484C242.109 84.3484 240.165 82.5024 240.165 80.3217C240.165 76.2361 236.634 72.9617 232.35 72.9617C228.067 72.9617 224.535 76.2361 224.535 80.3217C224.535 85.0776 226.419 89.523 229.84 92.8597L229.842 92.8616C232.496 95.4211 235.042 96.8373 238.893 97.8842Z" fill="#FF336D" stroke="#FF5C8A"/>
<rect x="16.9219" y="110.115" width="154.424" height="12" rx="4" fill="#FF5C8A"/>
<rect x="16.9219" y="130.115" width="121.804" height="14" rx="4" fill="#FF5C8A"/>
<rect x="191.922" y="130.115" width="4" height="24" rx="2" fill="#FF5C8A"/>
<rect x="196.922" y="130.115" width="4" height="24" rx="2" fill="#FF5C8A"/>
<rect x="201.922" y="130.115" width="4" height="24" rx="2" fill="#FF5C8A"/>
<rect x="206.922" y="130.115" width="4" height="24" rx="2" fill="#FF5C8A"/>
<rect x="211.922" y="130.115" width="4" height="24" rx="2" fill="#FF5C8A"/>
<rect x="216.922" y="130.115" width="4" height="24" rx="2" fill="#FF5C8A"/>
<rect x="221.922" y="130.115" width="4" height="24" rx="2" fill="#FF5C8A"/>
<rect x="226.922" y="130.115" width="4" height="24" rx="2" fill="#FF5C8A"/>
<rect x="231.922" y="130.115" width="4" height="24" rx="2" fill="#FF5C8A"/>
<rect x="236.922" y="130.115" width="4" height="24" rx="2" fill="#FF5C8A"/>
<rect x="241.922" y="130.115" width="4" height="24" rx="2" fill="#FF5C8A"/>
<rect x="246.922" y="130.115" width="4" height="24" rx="2" fill="#FF5C8A"/>
<rect x="251.922" y="130.115" width="4" height="24" rx="2" fill="#FF5C8A"/>
<rect x="256.922" y="130.115" width="4" height="24" rx="2" fill="#FF5C8A"/>
<rect x="1.92188" y="1.11499" width="274" height="167" rx="7" stroke="#FF5C8A" stroke-width="2"/>
</svg>
