<svg xmlns="http://www.w3.org/2000/svg"><defs><style>.a{fill:rgba(255,145,0,0.15);}.b{fill:#ff9100;}.c{fill:#ff7100;}</style></defs><g transform="translate(132.346 285.319)"><path class="a" d="M253.133,0C422,0,697.11,73.135,697.11,203.772S402.319,464.182,100.63,464.182s-153.259-97-153.259-227.641S84.266,0,253.133,0Z" transform="translate(50.576 -149.945)"/><path class="b" d="M253.133,0C422,0,697.11,73.135,697.11,203.772S402.319,464.182,100.63,464.182s-153.259-97-153.259-227.641S84.266,0,253.133,0Z" transform="translate(-36.568 -173.037)"/><path class="c" d="M188.967,0C282.2,0,434.084,40.377,434.084,112.5S271.332,256.272,104.771,256.272,20.158,202.717,20.158,130.593,95.736,0,188.967,0Z" transform="matrix(-0.53, -0.848, 0.848, -0.53, 97.683, 218.609)"/></g></svg>