<svg width="189" height="148" viewBox="0 0 189 148" fill="none" xmlns="http://www.w3.org/2000/svg">
<path d="M94.2324 147.984C146.068 147.984 188.089 145.531 188.089 142.505C188.089 139.478 146.068 137.025 94.2324 137.025C42.3968 137.025 0.375732 139.478 0.375732 142.505C0.375732 145.531 42.3968 147.984 94.2324 147.984Z" fill="#F5F5F5"/>
<path d="M104.529 114.888H16.476C14.086 114.888 12.1484 116.825 12.1484 119.216V134.924C12.1484 137.314 14.086 139.251 16.476 139.251H104.529C106.919 139.251 108.856 137.314 108.856 134.924V119.216C108.856 116.825 106.919 114.888 104.529 114.888Z" fill="#FF5C8A"/>
<path d="M105.55 115.911H17.4973C15.1072 115.911 13.1697 117.848 13.1697 120.238V135.946C13.1697 138.336 15.1072 140.274 17.4973 140.274H105.55C107.94 140.274 109.878 138.336 109.878 135.946V120.238C109.878 117.848 107.94 115.911 105.55 115.911Z" fill="#FF5C8A"/>
<path opacity="0.6" d="M105.55 115.911H17.4973C15.1072 115.911 13.1697 117.848 13.1697 120.238V135.946C13.1697 138.336 15.1072 140.274 17.4973 140.274H105.55C107.94 140.274 109.878 138.336 109.878 135.946V120.238C109.878 117.848 107.94 115.911 105.55 115.911Z" fill="#FAFAFA"/>
<path d="M106.571 116.932H18.5188C16.1287 116.932 14.1912 118.869 14.1912 121.259V136.972C14.1912 139.362 16.1287 141.3 18.5188 141.3H106.571C108.962 141.3 110.899 139.362 110.899 136.972V121.259C110.899 118.869 108.962 116.932 106.571 116.932Z" fill="#FF5C8A"/>
<path opacity="0.8" d="M106.571 116.932H18.5188C16.1287 116.932 14.1912 118.869 14.1912 121.259V136.972C14.1912 139.362 16.1287 141.3 18.5188 141.3H106.571C108.962 141.3 110.899 139.362 110.899 136.972V121.259C110.899 118.869 108.962 116.932 106.571 116.932Z" fill="#FAFAFA"/>
<path d="M87.257 121.051H40.2488C39.7382 121.051 39.3242 121.465 39.3242 121.976V123.815C39.3242 124.326 39.7382 124.74 40.2488 124.74H87.257C87.7677 124.74 88.1816 124.326 88.1816 123.815V121.976C88.1816 121.465 87.7677 121.051 87.257 121.051Z" fill="#FF5C8A"/>
<path d="M61.3059 127.271H40.2488C39.7382 127.271 39.3242 127.685 39.3242 128.196V130.035C39.3242 130.546 39.7382 130.96 40.2488 130.96H61.3059C61.8166 130.96 62.2305 130.546 62.2305 130.035V128.196C62.2305 127.685 61.8166 127.271 61.3059 127.271Z" fill="#FF5C8A"/>
<path d="M81.6371 127.271H65.4739C64.9633 127.271 64.5493 127.685 64.5493 128.196V130.035C64.5493 130.546 64.9633 130.96 65.4739 130.96H81.6371C82.1477 130.96 82.5616 130.546 82.5616 130.035V128.196C82.5616 127.685 82.1477 127.271 81.6371 127.271Z" fill="#FF5C8A"/>
<path d="M96.6529 133.491H39.8277C39.5496 133.491 39.3242 133.717 39.3242 133.995V134.377C39.3242 134.655 39.5496 134.881 39.8277 134.881H96.6529C96.9309 134.881 97.1563 134.655 97.1563 134.377V133.995C97.1563 133.717 96.9309 133.491 96.6529 133.491Z" fill="#FF5C8A"/>
<path opacity="0.5" d="M96.6529 133.491H39.8277C39.5496 133.491 39.3242 133.717 39.3242 133.995V134.377C39.3242 134.655 39.5496 134.881 39.8277 134.881H96.6529C96.9309 134.881 97.1563 134.655 97.1563 134.377V133.995C97.1563 133.717 96.9309 133.491 96.6529 133.491Z" fill="#FAFAFA"/>
<path d="M34.3832 131.133C35.4933 126.47 32.6129 121.79 27.9497 120.68C23.2865 119.57 18.6064 122.45 17.4963 127.113C16.3862 131.777 19.2666 136.457 23.9298 137.567C28.593 138.677 33.2732 135.797 34.3832 131.133Z" fill="#FF5C8A"/>
<path d="M33.1039 129.116C33.1039 130.533 32.6837 131.918 31.8965 133.096C31.1093 134.274 29.9904 135.193 28.6813 135.735C27.3722 136.277 25.9317 136.419 24.542 136.143C23.1522 135.866 21.8757 135.184 20.8738 134.182C19.8718 133.18 19.1895 131.903 18.9131 130.514C18.6366 129.124 18.7785 127.683 19.3207 126.374C19.863 125.065 20.7812 123.946 21.9594 123.159C23.1376 122.372 24.5227 121.952 25.9397 121.952C26.8828 121.943 27.8182 122.123 28.6912 122.48C29.5642 122.837 30.3573 123.364 31.0243 124.031C31.6912 124.698 32.2186 125.491 32.5757 126.364C32.9327 127.237 33.1123 128.173 33.1039 129.116Z" fill="#FAFAFA"/>
<path d="M32.2372 132.528C31.6215 133.66 30.712 134.605 29.6045 135.263C28.497 135.921 27.2326 136.268 25.9443 136.268C24.656 136.268 23.3916 135.921 22.2841 135.263C21.1766 134.605 20.2671 133.66 19.6514 132.528C21.5153 131.287 23.7048 130.624 25.9443 130.624C28.1838 130.624 30.3733 131.287 32.2372 132.528Z" fill="#FF5C8A"/>
<path opacity="0.7" d="M32.2372 132.528C31.6215 133.66 30.712 134.605 29.6045 135.263C28.497 135.921 27.2326 136.268 25.9443 136.268C24.656 136.268 23.3916 135.921 22.2841 135.263C21.1766 134.605 20.2671 133.66 19.6514 132.528C21.5153 131.287 23.7048 130.624 25.9443 130.624C28.1838 130.624 30.3733 131.287 32.2372 132.528Z" fill="#FAFAFA"/>
<path d="M25.9395 129.855C27.7014 129.855 29.1296 128.427 29.1296 126.665C29.1296 124.904 27.7014 123.475 25.9395 123.475C24.1777 123.475 22.7495 124.904 22.7495 126.665C22.7495 128.427 24.1777 129.855 25.9395 129.855Z" fill="#FF5C8A"/>
<path opacity="0.7" d="M25.9395 129.855C27.7014 129.855 29.1296 128.427 29.1296 126.665C29.1296 124.904 27.7014 123.475 25.9395 123.475C24.1777 123.475 22.7495 124.904 22.7495 126.665C22.7495 128.427 24.1777 129.855 25.9395 129.855Z" fill="#FAFAFA"/>
<path d="M104.529 86.6958H16.476C14.086 86.6958 12.1484 88.6333 12.1484 91.0234V106.732C12.1484 109.122 14.086 111.059 16.476 111.059H104.529C106.919 111.059 108.856 109.122 108.856 106.732V91.0234C108.856 88.6333 106.919 86.6958 104.529 86.6958Z" fill="#FF5C8A"/>
<path d="M105.55 87.7168H17.4973C15.1072 87.7168 13.1697 89.6543 13.1697 92.0444V107.757C13.1697 110.147 15.1072 112.085 17.4973 112.085H105.55C107.94 112.085 109.878 110.147 109.878 107.757V92.0444C109.878 89.6543 107.94 87.7168 105.55 87.7168Z" fill="#FF5C8A"/>
<path opacity="0.6" d="M105.55 87.7168H17.4973C15.1072 87.7168 13.1697 89.6543 13.1697 92.0444V107.757C13.1697 110.147 15.1072 112.085 17.4973 112.085H105.55C107.94 112.085 109.878 110.147 109.878 107.757V92.0444C109.878 89.6543 107.94 87.7168 105.55 87.7168Z" fill="#FAFAFA"/>
<path d="M106.571 88.7395H18.5188C16.1287 88.7395 14.1912 90.677 14.1912 93.0671V108.775C14.1912 111.165 16.1287 113.103 18.5188 113.103H106.571C108.962 113.103 110.899 111.165 110.899 108.775V93.0671C110.899 90.677 108.962 88.7395 106.571 88.7395Z" fill="#FF5C8A"/>
<path opacity="0.8" d="M106.571 88.7395H18.5188C16.1287 88.7395 14.1912 90.677 14.1912 93.0671V108.775C14.1912 111.165 16.1287 113.103 18.5188 113.103H106.571C108.962 113.103 110.899 111.165 110.899 108.775V93.0671C110.899 90.677 108.962 88.7395 106.571 88.7395Z" fill="#FAFAFA"/>
<path d="M54.2578 92.8589H40.2488C39.7382 92.8589 39.3242 93.2728 39.3242 93.7835V95.6229C39.3242 96.1336 39.7382 96.5475 40.2488 96.5475H54.2578C54.7685 96.5475 55.1824 96.1336 55.1824 95.6229V93.7835C55.1824 93.2728 54.7685 92.8589 54.2578 92.8589Z" fill="#FF5C8A"/>
<path d="M68.9833 92.8589H58.1643C57.6537 92.8589 57.2397 93.2728 57.2397 93.7835V95.6229C57.2397 96.1336 57.6537 96.5475 58.1643 96.5475H68.9833C69.494 96.5475 69.9079 96.1336 69.9079 95.6229V93.7835C69.9079 93.2728 69.494 92.8589 68.9833 92.8589Z" fill="#FF5C8A"/>
<path d="M89.4353 99.0791H40.2488C39.7382 99.0791 39.3242 99.4931 39.3242 100.004V101.843C39.3242 102.354 39.7382 102.768 40.2488 102.768H89.4353C89.946 102.768 90.3599 102.354 90.3599 101.843V100.004C90.3599 99.4931 89.946 99.0791 89.4353 99.0791Z" fill="#FF5C8A"/>
<path d="M74.1242 105.299H39.8277C39.5496 105.299 39.3242 105.525 39.3242 105.803V106.185C39.3242 106.463 39.5496 106.689 39.8277 106.689H74.1242C74.4022 106.689 74.6276 106.463 74.6276 106.185V105.803C74.6276 105.525 74.4022 105.299 74.1242 105.299Z" fill="#FF5C8A"/>
<path opacity="0.5" d="M74.1242 105.299H39.8277C39.5496 105.299 39.3242 105.525 39.3242 105.803V106.185C39.3242 106.463 39.5496 106.689 39.8277 106.689H74.1242C74.4022 106.689 74.6276 106.463 74.6276 106.185V105.803C74.6276 105.525 74.4022 105.299 74.1242 105.299Z" fill="#FAFAFA"/>
<path d="M34.3849 102.943C35.495 98.2799 32.6146 93.5998 27.9514 92.4897C23.2882 91.3796 18.6081 94.26 17.498 98.9232C16.3879 103.586 19.2683 108.267 23.9315 109.377C28.5947 110.487 33.2749 107.606 34.3849 102.943Z" fill="#FF5C8A"/>
<path d="M33.1039 100.922C33.1039 102.339 32.6837 103.724 31.8965 104.902C31.1093 106.081 29.9904 106.999 28.6813 107.541C27.3722 108.083 25.9317 108.225 24.542 107.949C23.1522 107.672 21.8757 106.99 20.8738 105.988C19.8718 104.986 19.1895 103.71 18.9131 102.32C18.6366 100.93 18.7785 99.4896 19.3207 98.1805C19.863 96.8714 20.7812 95.7525 21.9594 94.9652C23.1376 94.178 24.5227 93.7578 25.9397 93.7578C26.8828 93.7495 27.8182 93.929 28.6912 94.2861C29.5642 94.6432 30.3573 95.1705 31.0243 95.8375C31.6912 96.5044 32.2186 97.2976 32.5757 98.1706C32.9327 99.0436 33.1123 99.9789 33.1039 100.922Z" fill="#FAFAFA"/>
<path d="M32.2372 104.336C31.6215 105.468 30.712 106.413 29.6045 107.071C28.497 107.729 27.2326 108.076 25.9443 108.076C24.656 108.076 23.3916 107.729 22.2841 107.071C21.1766 106.413 20.2671 105.468 19.6514 104.336C21.5153 103.095 23.7048 102.432 25.9443 102.432C28.1838 102.432 30.3733 103.095 32.2372 104.336Z" fill="#FF5C8A"/>
<path opacity="0.7" d="M32.2372 104.336C31.6215 105.468 30.712 106.413 29.6045 107.071C28.497 107.729 27.2326 108.076 25.9443 108.076C24.656 108.076 23.3916 107.729 22.2841 107.071C21.1766 106.413 20.2671 105.468 19.6514 104.336C21.5153 103.095 23.7048 102.432 25.9443 102.432C28.1838 102.432 30.3733 103.095 32.2372 104.336Z" fill="#FAFAFA"/>
<path d="M25.9395 101.664C27.7014 101.664 29.1296 100.235 29.1296 98.4735C29.1296 96.7117 27.7014 95.2834 25.9395 95.2834C24.1777 95.2834 22.7495 96.7117 22.7495 98.4735C22.7495 100.235 24.1777 101.664 25.9395 101.664Z" fill="#FF5C8A"/>
<path opacity="0.7" d="M25.9395 101.664C27.7014 101.664 29.1296 100.235 29.1296 98.4735C29.1296 96.7117 27.7014 95.2834 25.9395 95.2834C24.1777 95.2834 22.7495 96.7117 22.7495 98.4735C22.7495 100.235 24.1777 101.664 25.9395 101.664Z" fill="#FAFAFA"/>
<path d="M104.529 58.5039H16.476C14.086 58.5039 12.1484 60.4414 12.1484 62.8315V78.5445C12.1484 80.9345 14.086 82.8721 16.476 82.8721H104.529C106.919 82.8721 108.856 80.9345 108.856 78.5445V62.8315C108.856 60.4414 106.919 58.5039 104.529 58.5039Z" fill="#FF5C8A"/>
<path d="M105.55 59.5249H17.4973C15.1072 59.5249 13.1697 61.4624 13.1697 63.8525V79.5606C13.1697 81.9507 15.1072 83.8882 17.4973 83.8882H105.55C107.94 83.8882 109.878 81.9507 109.878 79.5606V63.8525C109.878 61.4624 107.94 59.5249 105.55 59.5249Z" fill="#FF5C8A"/>
<path opacity="0.6" d="M105.55 59.5249H17.4973C15.1072 59.5249 13.1697 61.4624 13.1697 63.8525V79.5606C13.1697 81.9507 15.1072 83.8882 17.4973 83.8882H105.55C107.94 83.8882 109.878 81.9507 109.878 79.5606V63.8525C109.878 61.4624 107.94 59.5249 105.55 59.5249Z" fill="#FAFAFA"/>
<path d="M106.571 60.5459H18.5188C16.1287 60.5459 14.1912 62.4834 14.1912 64.8735V80.5865C14.1912 82.9765 16.1287 84.9141 18.5188 84.9141H106.571C108.962 84.9141 110.899 82.9765 110.899 80.5865V64.8735C110.899 62.4834 108.962 60.5459 106.571 60.5459Z" fill="#FF5C8A"/>
<path opacity="0.8" d="M106.571 60.5459H18.5188C16.1287 60.5459 14.1912 62.4834 14.1912 64.8735V80.5865C14.1912 82.9765 16.1287 84.9141 18.5188 84.9141H106.571C108.962 84.9141 110.899 82.9765 110.899 80.5865V64.8735C110.899 62.4834 108.962 60.5459 106.571 60.5459Z" fill="#FAFAFA"/>
<path d="M86.9085 64.6653H40.2488C39.7382 64.6653 39.3242 65.0792 39.3242 65.5899V67.4293C39.3242 67.94 39.7382 68.3539 40.2488 68.3539H86.9085C87.4191 68.3539 87.8331 67.94 87.8331 67.4293V65.5899C87.8331 65.0792 87.4191 64.6653 86.9085 64.6653Z" fill="#FF5C8A"/>
<path d="M71.2004 70.8855H40.2488C39.7382 70.8855 39.3242 71.2994 39.3242 71.8101V73.6495C39.3242 74.1602 39.7382 74.5741 40.2488 74.5741H71.2004C71.711 74.5741 72.1249 74.1602 72.1249 73.6495V71.8101C72.1249 71.2994 71.711 70.8855 71.2004 70.8855Z" fill="#FF5C8A"/>
<path d="M78.6647 70.8855H75.7893C75.2787 70.8855 74.8647 71.2994 74.8647 71.8101V73.6495C74.8647 74.1602 75.2787 74.5741 75.7893 74.5741H78.6647C79.1753 74.5741 79.5893 74.1602 79.5893 73.6495V71.8101C79.5893 71.2994 79.1753 70.8855 78.6647 70.8855Z" fill="#FF5C8A"/>
<path d="M64.7912 77.1057H39.8277C39.5496 77.1057 39.3242 77.3311 39.3242 77.6091V77.9916C39.3242 78.2696 39.5496 78.495 39.8277 78.495H64.7912C65.0693 78.495 65.2947 78.2696 65.2947 77.9916V77.6091C65.2947 77.3311 65.0693 77.1057 64.7912 77.1057Z" fill="#FF5C8A"/>
<path opacity="0.5" d="M64.7912 77.1057H39.8277C39.5496 77.1057 39.3242 77.3311 39.3242 77.6091V77.9916C39.3242 78.2696 39.5496 78.495 39.8277 78.495H64.7912C65.0693 78.495 65.2947 78.2696 65.2947 77.9916V77.6091C65.2947 77.3311 65.0693 77.1057 64.7912 77.1057Z" fill="#FAFAFA"/>
<path d="M97.0644 77.1057H68.4412C68.1631 77.1057 67.9377 77.3311 67.9377 77.6091V77.9916C67.9377 78.2696 68.1631 78.495 68.4412 78.495H97.0644C97.3424 78.495 97.5678 78.2696 97.5678 77.9916V77.6091C97.5678 77.3311 97.3424 77.1057 97.0644 77.1057Z" fill="#FF5C8A"/>
<path opacity="0.5" d="M97.0644 77.1057H68.4412C68.1631 77.1057 67.9377 77.3311 67.9377 77.6091V77.9916C67.9377 78.2696 68.1631 78.495 68.4412 78.495H97.0644C97.3424 78.495 97.5678 78.2696 97.5678 77.9916V77.6091C97.5678 77.3311 97.3424 77.1057 97.0644 77.1057Z" fill="#FAFAFA"/>
<path d="M32.0778 78.8653C35.4673 75.4758 35.4674 69.9803 32.0778 66.5908C28.6883 63.2012 23.1928 63.2012 19.8033 66.5908C16.4138 69.9803 16.4138 75.4758 19.8033 78.8653C23.1928 82.2548 28.6883 82.2548 32.0778 78.8653Z" fill="#FF5C8A"/>
<path d="M33.1039 72.7302C33.1039 74.1472 32.6837 75.5323 31.8965 76.7105C31.1093 77.8886 29.9904 78.8069 28.6813 79.3491C27.3722 79.8914 25.9317 80.0333 24.542 79.7568C23.1522 79.4804 21.8757 78.7981 20.8738 77.7961C19.8718 76.7942 19.1895 75.5176 18.9131 74.1279C18.6366 72.7382 18.7785 71.2977 19.3207 69.9886C19.863 68.6795 20.7812 67.5606 21.9594 66.7734C23.1376 65.9861 24.5227 65.566 25.9397 65.566C26.8828 65.5576 27.8182 65.7371 28.6912 66.0942C29.5642 66.4513 30.3573 66.9787 31.0243 67.6456C31.6912 68.3126 32.2186 69.1057 32.5757 69.9787C32.9327 70.8517 33.1123 71.7871 33.1039 72.7302Z" fill="#FAFAFA"/>
<path d="M32.2372 76.1427C31.6215 77.2744 30.712 78.219 29.6045 78.8772C28.497 79.5354 27.2326 79.8827 25.9443 79.8827C24.656 79.8827 23.3916 79.5354 22.2841 78.8772C21.1766 78.219 20.2671 77.2744 19.6514 76.1427C21.5153 74.9012 23.7048 74.2388 25.9443 74.2388C28.1838 74.2388 30.3733 74.9012 32.2372 76.1427Z" fill="#FF5C8A"/>
<path opacity="0.7" d="M32.2372 76.1427C31.6215 77.2744 30.712 78.219 29.6045 78.8772C28.497 79.5354 27.2326 79.8827 25.9443 79.8827C24.656 79.8827 23.3916 79.5354 22.2841 78.8772C21.1766 78.219 20.2671 77.2744 19.6514 76.1427C21.5153 74.9012 23.7048 74.2388 25.9443 74.2388C28.1838 74.2388 30.3733 74.9012 32.2372 76.1427Z" fill="#FAFAFA"/>
<path d="M29.1296 70.261C29.1286 70.8918 28.9407 71.508 28.5896 72.032C28.2385 72.556 27.74 72.9641 27.157 73.2048C26.574 73.4455 25.9327 73.508 25.3142 73.3843C24.6958 73.2607 24.1278 72.9565 23.6821 72.5102C23.2365 72.0639 22.9332 71.4954 22.8105 70.8768C22.6878 70.2581 22.7512 69.6169 22.9928 69.0343C23.2344 68.4517 23.6433 67.9538 24.1678 67.6034C24.6923 67.2531 25.3088 67.0662 25.9395 67.0662C26.3589 67.0662 26.7741 67.1488 27.1614 67.3095C27.5488 67.4701 27.9007 67.7055 28.197 68.0022C28.4932 68.299 28.7281 68.6512 28.8881 69.0388C29.0482 69.4264 29.1302 69.8417 29.1296 70.261Z" fill="#FF5C8A"/>
<path opacity="0.7" d="M29.1296 70.261C29.1286 70.8918 28.9407 71.508 28.5896 72.032C28.2385 72.556 27.74 72.9641 27.157 73.2048C26.574 73.4455 25.9327 73.508 25.3142 73.3843C24.6958 73.2607 24.1278 72.9565 23.6821 72.5102C23.2365 72.0639 22.9332 71.4954 22.8105 70.8768C22.6878 70.2581 22.7512 69.6169 22.9928 69.0343C23.2344 68.4517 23.6433 67.9538 24.1678 67.6034C24.6923 67.2531 25.3088 67.0662 25.9395 67.0662C26.3589 67.0662 26.7741 67.1488 27.1614 67.3095C27.5488 67.4701 27.9007 67.7055 28.197 68.0022C28.4932 68.299 28.7281 68.6512 28.8881 69.0388C29.0482 69.4264 29.1302 69.8417 29.1296 70.261Z" fill="#FAFAFA"/>
<path d="M36.3084 0.424805H34.1011V0.908877H36.3084V0.424805Z" fill="#FF5C8A"/>
<path d="M30.606 0.424805H25.3877V0.908877H30.606V0.424805Z" fill="#FF5C8A"/>
<path d="M104.529 2.11816H16.476C14.086 2.11816 12.1484 4.0557 12.1484 6.44577V22.1587C12.1484 24.5488 14.086 26.4864 16.476 26.4864H104.529C106.919 26.4864 108.856 24.5488 108.856 22.1587V6.44577C108.856 4.0557 106.919 2.11816 104.529 2.11816Z" fill="#FF5C8A"/>
<path d="M105.55 3.14087H17.4973C15.1072 3.14087 13.1697 5.0784 13.1697 7.46847V23.1815C13.1697 25.5715 15.1072 27.5091 17.4973 27.5091H105.55C107.94 27.5091 109.878 25.5715 109.878 23.1815V7.46847C109.878 5.0784 107.94 3.14087 105.55 3.14087Z" fill="#FF5C8A"/>
<path opacity="0.6" d="M105.55 3.14087H17.4973C15.1072 3.14087 13.1697 5.0784 13.1697 7.46847V23.1815C13.1697 25.5715 15.1072 27.5091 17.4973 27.5091H105.55C107.94 27.5091 109.878 25.5715 109.878 23.1815V7.46847C109.878 5.0784 107.94 3.14087 105.55 3.14087Z" fill="#FAFAFA"/>
<path d="M106.571 4.16187H18.5188C16.1287 4.16187 14.1912 6.0994 14.1912 8.48947V24.2024C14.1912 26.5925 16.1287 28.53 18.5188 28.53H106.571C108.962 28.53 110.899 26.5925 110.899 24.2024V8.48947C110.899 6.0994 108.962 4.16187 106.571 4.16187Z" fill="#FF5C8A"/>
<path opacity="0.8" d="M106.571 4.16187H18.5188C16.1287 4.16187 14.1912 6.0994 14.1912 8.48947V24.2024C14.1912 26.5925 16.1287 28.53 18.5188 28.53H106.571C108.962 28.53 110.899 26.5925 110.899 24.2024V8.48947C110.899 6.0994 108.962 4.16187 106.571 4.16187Z" fill="#FAFAFA"/>
<path d="M83.0601 8.28125H40.2488C39.7382 8.28125 39.3242 8.69519 39.3242 9.20582V11.0453C39.3242 11.5559 39.7382 11.9699 40.2488 11.9699H83.0601C83.5707 11.9699 83.9847 11.5559 83.9847 11.0453V9.20582C83.9847 8.69519 83.5707 8.28125 83.0601 8.28125Z" fill="#FF5C8A"/>
<path d="M97.8243 14.5015H40.2488C39.7382 14.5015 39.3242 14.9154 39.3242 15.426V17.2655C39.3242 17.7761 39.7382 18.1901 40.2488 18.1901H97.8243C98.335 18.1901 98.7489 17.7761 98.7489 17.2655V15.426C98.7489 14.9154 98.335 14.5015 97.8243 14.5015Z" fill="#FF5C8A"/>
<path d="M55.5406 20.7217H39.8277C39.5496 20.7217 39.3242 20.9471 39.3242 21.2251V21.6075C39.3242 21.8856 39.5496 22.111 39.8277 22.111H55.5406C55.8187 22.111 56.0441 21.8856 56.0441 21.6075V21.2251C56.0441 20.9471 55.8187 20.7217 55.5406 20.7217Z" fill="#FF5C8A"/>
<path opacity="0.5" d="M55.5406 20.7217H39.8277C39.5496 20.7217 39.3242 20.9471 39.3242 21.2251V21.6075C39.3242 21.8856 39.5496 22.111 39.8277 22.111H55.5406C55.8187 22.111 56.0441 21.8856 56.0441 21.6075V21.2251C56.0441 20.9471 55.8187 20.7217 55.5406 20.7217Z" fill="#FAFAFA"/>
<path d="M34.3845 18.3604C35.4945 13.6972 32.6141 9.01702 27.9509 7.90695C23.2877 6.79688 18.6076 9.67726 17.4975 14.3405C16.3874 19.0037 19.2678 23.6838 23.931 24.7939C28.5942 25.904 33.2744 23.0236 34.3845 18.3604Z" fill="#FF5C8A"/>
<path d="M33.1039 16.346C33.1039 17.7629 32.6838 19.1481 31.8965 20.3262C31.1093 21.5044 29.9904 22.4227 28.6813 22.9649C27.3722 23.5071 25.9317 23.649 24.542 23.3726C23.1522 23.0962 21.8757 22.4138 20.8738 21.4119C19.8718 20.4099 19.1895 19.1334 18.9131 17.7437C18.6366 16.3539 18.7785 14.9134 19.3207 13.6043C19.863 12.2952 20.7812 11.1763 21.9594 10.3891C23.1376 9.6019 24.5227 9.18172 25.9397 9.18172C26.8817 9.17723 27.8154 9.35948 28.6866 9.71793C29.5578 10.0764 30.3494 10.6039 31.0156 11.2701C31.6817 11.9362 32.2093 12.7278 32.5677 13.599C32.9262 14.4703 33.1084 15.4039 33.1039 16.346Z" fill="#FAFAFA"/>
<path d="M32.2372 19.7587C31.6215 20.8903 30.712 21.835 29.6045 22.4931C28.497 23.1513 27.2326 23.4987 25.9443 23.4987C24.656 23.4987 23.3916 23.1513 22.2841 22.4931C21.1766 21.835 20.2671 20.8903 19.6514 19.7587C21.5153 18.5172 23.7048 17.8547 25.9443 17.8547C28.1838 17.8547 30.3733 18.5172 32.2372 19.7587Z" fill="#FF5C8A"/>
<path opacity="0.7" d="M32.2372 19.7587C31.6215 20.8903 30.712 21.835 29.6045 22.4931C28.497 23.1513 27.2326 23.4987 25.9443 23.4987C24.656 23.4987 23.3916 23.1513 22.2841 22.4931C21.1766 21.835 20.2671 20.8903 19.6514 19.7587C21.5153 18.5172 23.7048 17.8547 25.9443 17.8547C28.1838 17.8547 30.3733 18.5172 32.2372 19.7587Z" fill="#FAFAFA"/>
<path d="M25.9395 17.0825C27.7014 17.0825 29.1296 15.6542 29.1296 13.8924C29.1296 12.1306 27.7014 10.7024 25.9395 10.7024C24.1777 10.7024 22.7495 12.1306 22.7495 13.8924C22.7495 15.6542 24.1777 17.0825 25.9395 17.0825Z" fill="#FF5C8A"/>
<path opacity="0.7" d="M25.9395 17.0825C27.7014 17.0825 29.1296 15.6542 29.1296 13.8924C29.1296 12.1306 27.7014 10.7024 25.9395 10.7024C24.1777 10.7024 22.7495 12.1306 22.7495 13.8924C22.7495 15.6542 24.1777 17.0825 25.9395 17.0825Z" fill="#FAFAFA"/>
<path d="M166.422 67.4119L163.246 69.0626L166.804 71.8266C166.804 71.8266 169.196 69.8226 168.256 68.4381L166.422 67.4119Z" fill="#E4897B"/>
<path d="M161.431 72.4258L164.466 74.5364L166.804 71.8256L163.246 69.0615L161.431 72.4258Z" fill="#E4897B"/>
<path d="M167.651 39.9592C168.087 40.5304 168.46 41.0435 168.837 41.6002C169.215 42.1569 169.573 42.6942 169.931 43.2461C170.638 44.3594 171.311 45.5019 171.931 46.6733C172.566 47.8569 173.141 49.0718 173.654 50.3135L174.036 51.2817L174.38 52.2498C174.501 52.5693 174.593 52.9082 174.695 53.2422L174.845 53.7262L174.879 53.8521L174.937 54.0603C174.974 54.2103 175.003 54.3622 175.024 54.5153C175.136 55.4325 175.071 56.3628 174.83 57.2551C174.651 57.9703 174.423 58.6723 174.148 59.356C173.636 60.6094 173.041 61.8272 172.366 63.0011C171.074 65.2732 169.602 67.439 167.966 69.4779L165.739 68.0257C166.809 65.7942 167.855 63.4948 168.77 61.2487C169.218 60.152 169.607 59.0322 169.936 57.8941C170.088 57.3834 170.203 56.8625 170.28 56.3354C170.343 55.993 170.343 55.6419 170.28 55.2995C170.28 55.2995 170.28 55.3285 170.28 55.2995L170.241 55.2027L170.082 54.8009C169.98 54.5346 169.883 54.2732 169.757 54.007L169.409 53.2131L169.026 52.4144C168.497 51.3591 167.929 50.3103 167.322 49.2679C166.708 48.232 166.073 47.1961 165.386 46.1796C164.699 45.163 164.016 44.1319 163.367 43.1977L167.651 39.9592Z" fill="#E4897B"/>
<path d="M174.264 47.3898L166.291 52.9809C166.291 52.9809 165.807 51.9353 165.134 50.4104C164.587 49.1954 163.905 47.6803 163.227 46.1506C162.951 45.531 162.68 44.9114 162.414 44.3063C160.57 40.1045 162.724 37.0791 166.509 37.6406C169.844 38.1392 174.264 47.3898 174.264 47.3898Z" fill="#1C2D5E"/>
<path d="M165.517 41.5706C165.672 43.0712 165.686 47.7134 165.134 50.4097C164.587 49.1947 163.905 47.6795 163.227 46.1499L165.517 41.5706Z" fill="#FF5C8A"/>
<path opacity="0.8" d="M165.517 41.5706C165.672 43.0712 165.686 47.7134 165.134 50.4097C164.587 49.1947 163.905 47.6795 163.227 46.1499L165.517 41.5706Z" fill="#FF5C8A"/>
<g opacity="0.8">
<path d="M165.517 41.5713C165.672 43.0719 165.686 47.7142 165.134 50.4104C164.587 49.1954 163.905 47.6803 163.227 46.1506L165.517 41.5713Z" fill="black"/>
<path opacity="0.8" d="M165.517 41.5713C165.672 43.0719 165.686 47.7142 165.134 50.4104C164.587 49.1954 163.905 47.6803 163.227 46.1506L165.517 41.5713Z" fill="black"/>
</g>
<path d="M177.444 79.6378L92.3541 57.0026C91.2491 56.7007 90.3074 55.9757 89.733 54.9845C89.1586 53.9933 88.9977 52.8158 89.2851 51.7069L93.3223 36.5264C93.6273 35.424 94.3536 34.4858 95.3445 33.9143C96.3353 33.3428 97.5111 33.1839 98.618 33.4719L183.708 56.1023C184.814 56.4042 185.757 57.1299 186.331 58.1222C186.906 59.1145 187.066 60.2932 186.777 61.4028L182.74 76.5543C182.441 77.6621 181.717 78.6072 180.726 79.1845C179.734 79.7619 178.555 79.9248 177.444 79.6378Z" fill="#FF5C8A"/>
<path opacity="0.8" d="M177.444 79.6378L92.3541 57.0026C91.2491 56.7007 90.3074 55.9757 89.733 54.9845C89.1586 53.9933 88.9977 52.8158 89.2851 51.7069L93.3223 36.5264C93.6273 35.424 94.3536 34.4858 95.3445 33.9143C96.3353 33.3428 97.5111 33.1839 98.618 33.4719L183.708 56.1023C184.814 56.4042 185.757 57.1299 186.331 58.1222C186.906 59.1145 187.066 60.2932 186.777 61.4028L182.74 76.5543C182.441 77.6621 181.717 78.6072 180.726 79.1845C179.734 79.7619 178.555 79.9248 177.444 79.6378Z" fill="#FAFAFA"/>
<path d="M178.165 80.9111L93.0801 58.2517C91.9741 57.9508 91.0313 57.2262 90.4559 56.2349C89.8805 55.2436 89.719 54.0655 90.0063 52.956L94.0482 37.7803C94.3491 36.6743 95.0738 35.7315 96.065 35.1561C97.0563 34.5807 98.2344 34.4192 99.344 34.7064L184.429 57.3417C185.535 57.6426 186.478 58.3672 187.054 59.3584C187.629 60.3497 187.79 61.5278 187.503 62.6374L183.466 77.8179C183.169 78.9285 182.446 79.8768 181.453 80.4562C180.46 81.0356 179.278 81.1991 178.165 80.9111Z" fill="#FF5C8A"/>
<path opacity="0.4" d="M178.165 80.9111L93.0801 58.2517C91.9741 57.9508 91.0313 57.2262 90.4559 56.2349C89.8805 55.2436 89.719 54.0655 90.0063 52.956L94.0482 37.7803C94.3491 36.6743 95.0738 35.7315 96.065 35.1561C97.0563 34.5807 98.2344 34.4192 99.344 34.7064L184.429 57.3417C185.535 57.6426 186.478 58.3672 187.054 59.3584C187.629 60.3497 187.79 61.5278 187.503 62.6374L183.466 77.8179C183.169 78.9285 182.446 79.8768 181.453 80.4562C180.46 81.0356 179.278 81.1991 178.165 80.9111Z" fill="#FAFAFA"/>
<path d="M178.892 82.1409L93.8062 59.5056C92.7002 59.2047 91.7574 58.4801 91.182 57.4889C90.6066 56.4976 90.4451 55.3195 90.7323 54.2099L94.7695 39.0294C95.0714 37.9233 95.7972 36.9807 96.7894 36.4062C97.7817 35.8317 98.9605 35.6715 100.07 35.9604L185.155 58.5907C186.268 58.8914 187.216 59.6205 187.792 60.6184C188.368 61.6164 188.525 62.8019 188.229 63.9155L184.187 79.0912C183.881 80.1927 183.154 81.1297 182.164 81.7003C181.173 82.2708 179.998 82.429 178.892 82.1409Z" fill="#FF5C8A"/>
<path opacity="0.2" d="M178.892 82.1409L93.8062 59.5056C92.7002 59.2047 91.7574 58.4801 91.182 57.4889C90.6066 56.4976 90.4451 55.3195 90.7323 54.2099L94.7695 39.0294C95.0714 37.9233 95.7972 36.9807 96.7894 36.4062C97.7817 35.8317 98.9605 35.6715 100.07 35.9604L185.155 58.5907C186.268 58.8914 187.216 59.6205 187.792 60.6184C188.368 61.6164 188.525 62.8019 188.229 63.9155L184.187 79.0912C183.881 80.1927 183.154 81.1297 182.164 81.7003C181.173 82.2708 179.998 82.429 178.892 82.1409Z" fill="black"/>
<path d="M174.098 59.9304L119.998 45.5353C119.504 45.404 118.998 45.6976 118.867 46.1911L118.394 47.9687C118.262 48.4622 118.556 48.9686 119.049 49.0999L173.15 63.495C173.643 63.6263 174.15 63.3327 174.281 62.8392L174.754 61.0616C174.885 60.5682 174.592 60.0617 174.098 59.9304Z" fill="#FF5C8A"/>
<path opacity="0.7" d="M174.098 59.9304L119.998 45.5353C119.504 45.404 118.998 45.6976 118.867 46.1911L118.394 47.9687C118.262 48.4622 118.556 48.9686 119.049 49.0999L173.15 63.495C173.643 63.6263 174.15 63.3327 174.281 62.8392L174.754 61.0616C174.885 60.5682 174.592 60.0617 174.098 59.9304Z" fill="#FAFAFA"/>
<path d="M152.574 60.6367L118.402 51.5441C117.908 51.4128 117.402 51.7064 117.27 52.1999L116.797 53.9775C116.666 54.471 116.96 54.9774 117.453 55.1087L151.626 64.2013C152.119 64.3326 152.625 64.039 152.757 63.5456L153.23 61.768C153.361 61.2745 153.067 60.768 152.574 60.6367Z" fill="#FF5C8A"/>
<path opacity="0.7" d="M152.574 60.6367L118.402 51.5441C117.908 51.4128 117.402 51.7064 117.27 52.1999L116.797 53.9775C116.666 54.471 116.96 54.9774 117.453 55.1087L151.626 64.2013C152.119 64.3326 152.625 64.039 152.757 63.5456L153.23 61.768C153.361 61.2745 153.067 60.768 152.574 60.6367Z" fill="#FAFAFA"/>
<path d="M166.257 70.7105L116.395 57.4432C116.126 57.3717 115.85 57.5315 115.779 57.8002L115.681 58.1698C115.609 58.4385 115.769 58.7142 116.038 58.7857L165.9 72.0531C166.169 72.1246 166.445 71.9647 166.516 71.696L166.614 71.3265C166.686 71.0578 166.526 70.782 166.257 70.7105Z" fill="#FAFAFA"/>
<path d="M110.889 54.2398C113.621 50.3091 112.649 44.9077 108.719 42.1754C104.788 39.4431 99.3866 40.4146 96.6543 44.3453C93.922 48.276 94.8935 53.6774 98.8241 56.4097C102.755 59.142 108.156 58.1705 110.889 54.2398Z" fill="#FF5C8A"/>
<path d="M111.03 51.4811C110.665 52.8503 109.903 54.0807 108.839 55.0167C107.776 55.9527 106.458 56.5523 105.054 56.7397C103.65 56.9271 102.221 56.6939 100.949 56.0695C99.6774 55.4451 98.6192 54.4576 97.9085 53.2319C97.1979 52.0061 96.8666 50.5972 96.9566 49.1832C97.0466 47.7692 97.5539 46.4136 98.4143 45.2879C99.2747 44.1622 100.45 43.3169 101.79 42.8588C103.131 42.4008 104.578 42.3506 105.947 42.7146C106.859 42.9511 107.716 43.3665 108.467 43.9366C109.217 44.5068 109.847 45.2203 110.32 46.0358C110.793 46.8513 111.099 47.7525 111.221 48.6873C111.343 49.622 111.278 50.5717 111.03 51.4811Z" fill="#FAFAFA"/>
<path d="M109.316 54.5542C108.431 55.4954 107.308 56.1797 106.066 56.5344C104.824 56.8892 103.508 56.9012 102.26 56.5693C101.011 56.2373 99.8761 55.5737 98.9741 54.6488C98.0721 53.7239 97.4372 52.5722 97.1367 51.3157C99.2591 50.5942 101.548 50.5167 103.714 51.093C105.88 51.6692 107.828 52.8735 109.311 54.5542H109.316Z" fill="#FF5C8A"/>
<path opacity="0.7" d="M109.316 54.5542C108.431 55.4954 107.308 56.1797 106.066 56.5344C104.824 56.8892 103.508 56.9012 102.26 56.5693C101.011 56.2373 99.8761 55.5737 98.9741 54.6488C98.0721 53.7239 97.4372 52.5722 97.1367 51.3157C99.2591 50.5942 101.548 50.5167 103.714 51.093C105.88 51.6692 107.828 52.8735 109.311 54.5542H109.316Z" fill="#FAFAFA"/>
<path d="M107.82 48.0914C107.658 48.7007 107.318 49.2481 106.844 49.6645C106.371 50.0809 105.784 50.3476 105.159 50.4308C104.534 50.514 103.898 50.4101 103.332 50.1321C102.766 49.8541 102.295 49.4146 101.979 48.869C101.662 48.3234 101.515 47.6963 101.554 47.0669C101.594 46.4375 101.82 45.8341 102.203 45.3328C102.585 44.8315 103.108 44.455 103.705 44.2507C104.301 44.0463 104.945 44.0235 105.555 44.1849C105.96 44.2923 106.341 44.4786 106.674 44.7331C107.007 44.9877 107.287 45.3055 107.498 45.6683C107.708 46.0312 107.845 46.4319 107.9 46.8477C107.956 47.2635 107.928 47.6861 107.82 48.0914Z" fill="#FF5C8A"/>
<path opacity="0.7" d="M107.82 48.0914C107.658 48.7007 107.318 49.2481 106.844 49.6645C106.371 50.0809 105.784 50.3476 105.159 50.4308C104.534 50.514 103.898 50.4101 103.332 50.1321C102.766 49.8541 102.295 49.4146 101.979 48.869C101.662 48.3234 101.515 47.6963 101.554 47.0669C101.594 46.4375 101.82 45.8341 102.203 45.3328C102.585 44.8315 103.108 44.455 103.705 44.2507C104.301 44.0463 104.945 44.0235 105.555 44.1849C105.96 44.2923 106.341 44.4786 106.674 44.7331C107.007 44.9877 107.287 45.3055 107.498 45.6683C107.708 46.0312 107.845 46.4319 107.9 46.8477C107.956 47.2635 107.928 47.6861 107.82 48.0914Z" fill="#FAFAFA"/>
<path d="M161.489 27.2373C160.584 29.7061 159.335 34.2951 160.845 36.2798C160.845 36.2798 159.737 38.7534 155.003 37.9934C149.794 37.1559 152.926 35.0115 152.926 35.0115C155.879 34.7888 156.14 32.6686 155.966 30.6064L161.489 27.2373Z" fill="#E4897B"/>
<path d="M151.837 35.8341C152.103 35.3839 151.866 33.6267 151.866 33.6267C151.866 33.6267 159.398 33.07 162.031 34.1834C163.44 34.7788 162.031 37.2863 162.031 37.2863L151.837 35.8341Z" fill="#FF5C8A"/>
<path opacity="0.1" d="M151.837 35.8341C152.103 35.3839 151.866 33.6267 151.866 33.6267C151.866 33.6267 159.398 33.07 162.031 34.1834C163.44 34.7788 162.031 37.2863 162.031 37.2863L151.837 35.8341Z" fill="black"/>
<path d="M152.805 22.9007C152.756 23.1815 152.573 23.3848 152.389 23.3557C152.205 23.3267 152.093 23.075 152.137 22.7942C152.18 22.5135 152.369 22.3101 152.553 22.3392C152.737 22.3682 152.834 22.62 152.805 22.9007Z" fill="#1C2D5E"/>
<path d="M152.771 23.0408C152.299 23.8452 151.718 24.5799 151.043 25.2239C151.211 25.3952 151.415 25.5274 151.64 25.611C151.865 25.6947 152.106 25.7278 152.345 25.708L152.771 23.0408Z" fill="#DE5753"/>
<path d="M153.938 22.0286C153.907 22.0301 153.877 22.0227 153.85 22.0072C153.823 21.9918 153.802 21.9689 153.788 21.9415C153.695 21.753 153.559 21.5893 153.391 21.4639C153.223 21.3384 153.027 21.2549 152.82 21.2202C152.78 21.2109 152.745 21.1876 152.721 21.1546C152.697 21.1217 152.686 21.0812 152.69 21.0407C152.693 21.0002 152.711 20.9623 152.741 20.9339C152.77 20.9055 152.808 20.8886 152.849 20.8862C153.111 20.9264 153.36 21.0286 153.574 21.1844C153.789 21.3402 153.964 21.545 154.083 21.7818C154.104 21.821 154.108 21.8668 154.096 21.9094C154.083 21.9519 154.054 21.9878 154.015 22.0093C153.992 22.0224 153.965 22.0291 153.938 22.0286Z" fill="#1C2D5E"/>
<path d="M130.823 134.27L127.328 133.801L127.493 125.581L130.988 126.051L130.823 134.27Z" fill="#E4897B"/>
<path d="M156.915 138.134H153.386L150.641 129.962H154.165L156.915 138.134Z" fill="#E4897B"/>
<path d="M152.916 137.722H157.22C157.289 137.723 157.357 137.748 157.411 137.791C157.466 137.835 157.504 137.896 157.52 137.964L158.217 141.101C158.233 141.177 158.232 141.256 158.213 141.332C158.194 141.407 158.158 141.478 158.109 141.538C158.059 141.598 157.996 141.646 157.925 141.678C157.854 141.711 157.777 141.727 157.699 141.725C156.314 141.701 155.308 141.623 153.565 141.623C152.49 141.623 150.283 141.735 148.802 141.735C147.32 141.735 147.127 140.282 147.732 140.137C150.452 139.542 151.474 138.724 152.345 137.94C152.502 137.799 152.706 137.722 152.916 137.722Z" fill="#1C2D5E"/>
<path d="M127.207 133.002L131.027 133.515C131.096 133.525 131.159 133.558 131.207 133.609C131.255 133.66 131.283 133.726 131.288 133.796L131.559 136.996C131.566 137.073 131.555 137.15 131.527 137.223C131.5 137.295 131.456 137.36 131.4 137.413C131.343 137.466 131.276 137.506 131.202 137.529C131.128 137.553 131.05 137.559 130.973 137.548C129.599 137.335 127.624 136.986 125.891 136.754C123.867 136.478 122.502 136.328 120.145 136.008C118.692 135.815 118.508 134.309 119.128 134.256C121.941 134.028 123.77 134.295 126.326 133.157C126.6 133.025 126.905 132.971 127.207 133.002Z" fill="#1C2D5E"/>
<path d="M127.493 125.581L127.406 129.822L130.906 130.291L130.988 126.056L127.493 125.581Z" fill="#CE6F64"/>
<path d="M154.17 129.967H150.641L152.059 134.179H155.588L154.17 129.967Z" fill="#CE6F64"/>
<path d="M147.48 35.3655C147.48 35.3655 141.928 45.3616 143.196 65.5474L161.886 68.0694C162.404 65.2183 162.491 50.9769 167.085 37.8295C165.072 37.15 163.017 36.6035 160.933 36.1933C158.308 35.6805 155.655 35.3217 152.989 35.1187C151.149 35.057 149.307 35.1395 147.48 35.3655Z" fill="#1C2D5E"/>
<path d="M149.63 40.4581C148.855 41.799 148.032 43.0963 147.209 44.413L144.707 48.2855C143.874 49.5829 143.003 50.8608 142.127 52.1581C141.691 52.7971 141.241 53.4312 140.79 54.0654L140.108 55.0335C139.856 55.3772 139.561 55.7693 139.28 56.0936C138.178 57.3538 136.962 58.5106 135.65 59.5499C134.386 60.5568 133.103 61.4862 131.777 62.3575C129.159 64.0906 126.427 65.6464 123.601 67.0143L122.309 64.7149C124.729 62.9384 127.149 61.065 129.454 59.1626C130.601 58.1945 131.724 57.2263 132.774 56.2146C133.798 55.2589 134.741 54.2194 135.592 53.1069C135.795 52.8407 135.95 52.6228 136.134 52.3179L136.729 51.3497L137.915 49.4134L140.287 45.507L142.659 41.586C143.467 40.2887 144.256 38.972 145.079 37.6892L149.63 40.4581Z" fill="#E4897B"/>
<path d="M151.353 39.6589C150.903 42.999 145.06 50.9475 145.06 50.9475L136.923 44.0785C136.923 44.0785 141.178 39.3201 144.668 36.6044C148.158 33.8888 151.837 35.9896 151.353 39.6589Z" fill="#1C2D5E"/>
<path d="M124.061 63.7083L121.016 64.7442L124.066 67.9245C124.066 67.9245 125.924 67.7018 125.755 65.1363L124.061 63.7083Z" fill="#E4897B"/>
<path d="M118.997 67.163L122.478 68.8718L124.066 67.923L121.016 64.7427L118.997 67.163Z" fill="#E4897B"/>
<path d="M162.409 23.452C161.644 26.8696 161.368 28.9075 159.345 30.3985C156.295 32.6397 152.292 30.3985 152.021 26.8018C151.774 23.5827 153.066 18.5387 156.668 17.7061C157.46 17.5191 158.287 17.5377 159.07 17.7603C159.853 17.9829 160.566 18.402 161.141 18.9778C161.716 19.5536 162.135 20.2669 162.357 21.05C162.579 21.8332 162.597 22.66 162.409 23.452Z" fill="#E4897B"/>
<path d="M167.139 23.3362C167.093 23.0732 166.993 22.8228 166.843 22.6016C166.694 22.3805 166.499 22.1936 166.272 22.0534C167.928 21.3273 167.1 20.485 165.686 19.2554C163.861 17.6241 163.101 14.3227 163.184 13.616C162.608 14.4922 162.762 15.7846 163.251 16.9464C162.642 16.2756 162.151 15.5063 161.799 14.6713C160.386 11.123 157.331 14.2259 154.383 14.3276C149.431 14.497 153.352 11.9072 156.988 11.9847C151.571 10.3243 146.169 12.3816 147.05 16.0025C147.931 19.6233 153.991 15.0343 153.957 18.3744C153.957 19.0521 154.698 19.7202 155.797 20.2478C154.272 23.3846 157.99 29.6872 160.153 29.8905C162.317 30.0938 166.107 26.3277 166.267 23.0651C166.572 23.0994 166.868 23.1914 167.139 23.3362Z" fill="#263238"/>
<path d="M157.491 24.2324C157.275 25.0852 156.733 25.819 155.981 26.2752C154.974 26.8658 154.175 26.0428 154.199 24.9343C154.223 23.942 154.78 22.4317 155.908 22.2913C156.155 22.2651 156.405 22.3009 156.635 22.3956C156.865 22.4903 157.068 22.6408 157.225 22.8334C157.382 23.0261 157.489 23.255 157.535 23.4992C157.582 23.7435 157.566 23.9955 157.491 24.2324Z" fill="#E4897B"/>
<path d="M156.861 133.36H150.385C150.385 133.36 141.855 111.611 140.95 100.327C140.756 97.9069 141.144 94.7169 141.86 91.2848C143.08 85.4179 145.249 78.8006 146.991 73.8582C148.555 69.5016 149.809 66.4277 149.809 66.4277L161.876 68.0591C160.69 76.8159 151.116 90.7427 151.004 102.719C150.912 113.765 156.861 133.36 156.861 133.36Z" fill="#FF5C8A"/>
<path opacity="0.1" d="M156.861 133.36H150.385C150.385 133.36 141.855 111.611 140.95 100.327C140.756 97.9069 141.144 94.7169 141.86 91.2848C143.08 85.4179 145.249 78.8006 146.991 73.8582C148.555 69.5016 149.809 66.4277 149.809 66.4277L161.876 68.0591C160.69 76.8159 151.116 90.7427 151.004 102.719C150.912 113.765 156.861 133.36 156.861 133.36Z" fill="black"/>
<path d="M150.06 76.6077C149.639 82.4601 145.137 88.6853 141.875 91.2848C143.094 85.4178 145.263 78.8006 147.006 73.8582C147.921 73.7469 149.368 75.5524 150.06 76.6077Z" fill="#FF5C8A"/>
<path opacity="0.2" d="M150.06 76.6077C149.639 82.4601 145.137 88.6853 141.875 91.2848C143.094 85.4178 145.263 78.8006 147.006 73.8582C147.921 73.7469 149.368 75.5524 150.06 76.6077Z" fill="black"/>
<path d="M143.196 65.5474C143.196 65.5474 126.602 87.6452 125.542 98.3384C124.438 109.472 126.205 128.835 126.205 128.835L132.125 129.634C132.125 129.634 133.912 111.452 135.649 100.589C137.537 88.7586 155.496 76.5261 156.75 67.3675L143.196 65.5474Z" fill="#FF5C8A"/>
<path opacity="0.1" d="M143.196 65.5474C143.196 65.5474 126.602 87.6452 125.542 98.3384C124.438 109.472 126.205 128.835 126.205 128.835L132.125 129.634C132.125 129.634 133.912 111.452 135.649 100.589C137.537 88.7586 155.496 76.5261 156.75 67.3675L143.196 65.5474Z" fill="black"/>
<path d="M149.257 133.501H157.704V131.226L148.264 131.081L149.257 133.501Z" fill="#FF5C8A"/>
<path opacity="0.4" d="M149.257 133.501H157.704V131.226L148.264 131.081L149.257 133.501Z" fill="#FAFAFA"/>
<path d="M125.01 128.795L133.234 129.923L133.539 127.648L124.346 126.264L125.01 128.795Z" fill="#FF5C8A"/>
<path opacity="0.4" d="M125.01 128.795L133.234 129.923L133.539 127.648L124.346 126.264L125.01 128.795Z" fill="#FAFAFA"/>
<path d="M151.75 138.341C151.51 138.359 151.271 138.294 151.072 138.157C151.008 138.105 150.958 138.037 150.927 137.96C150.897 137.883 150.887 137.799 150.898 137.717C150.898 137.668 150.911 137.62 150.937 137.578C150.963 137.536 150.999 137.502 151.043 137.48C151.43 137.286 152.573 137.964 152.699 138.061C152.712 138.069 152.723 138.082 152.73 138.096C152.736 138.111 152.739 138.127 152.737 138.143C152.736 138.159 152.728 138.175 152.717 138.187C152.706 138.199 152.691 138.208 152.674 138.211C152.373 138.291 152.062 138.335 151.75 138.341ZM151.227 137.61C151.192 137.602 151.156 137.602 151.121 137.61C151.121 137.61 151.072 137.644 151.067 137.707C151.059 137.763 151.065 137.82 151.085 137.874C151.104 137.927 151.136 137.974 151.179 138.012C151.574 138.191 152.022 138.213 152.432 138.075C152.064 137.844 151.655 137.687 151.227 137.61Z" fill="#FF5C8A"/>
<path d="M152.655 138.216H152.616C152.248 138.017 151.546 137.248 151.619 136.851C151.631 136.789 151.665 136.734 151.713 136.694C151.762 136.655 151.823 136.633 151.885 136.633C151.948 136.624 152.013 136.629 152.074 136.647C152.135 136.665 152.191 136.697 152.239 136.739C152.65 137.073 152.723 138.09 152.723 138.134C152.725 138.149 152.723 138.165 152.716 138.179C152.709 138.193 152.698 138.204 152.684 138.211L152.655 138.216ZM151.943 136.764H151.905C151.798 136.764 151.788 136.827 151.784 136.846C151.74 137.078 152.19 137.664 152.553 137.94C152.527 137.539 152.382 137.155 152.137 136.836C152.081 136.796 152.012 136.777 151.943 136.783V136.764Z" fill="#FF5C8A"/>
<path d="M126.317 133.458C125.765 133.458 125.107 133.386 124.864 133.09C124.815 133.032 124.78 132.964 124.763 132.889C124.745 132.815 124.745 132.738 124.763 132.664C124.773 132.619 124.794 132.578 124.823 132.542C124.853 132.507 124.89 132.479 124.932 132.461C125.387 132.287 126.694 133.187 126.844 133.289C126.859 133.299 126.869 133.313 126.875 133.33C126.881 133.346 126.882 133.364 126.878 133.381C126.873 133.397 126.863 133.412 126.849 133.422C126.835 133.433 126.818 133.439 126.801 133.439C126.665 133.449 126.491 133.458 126.317 133.458ZM125.068 132.606C125.038 132.599 125.006 132.599 124.976 132.606C124.959 132.612 124.944 132.622 124.933 132.636C124.922 132.649 124.915 132.666 124.913 132.684C124.9 132.732 124.899 132.783 124.91 132.832C124.921 132.881 124.944 132.926 124.976 132.964C125.165 133.182 125.741 133.298 126.525 133.269C126.088 132.953 125.593 132.728 125.068 132.606Z" fill="#FF5C8A"/>
<path d="M126.781 133.442H126.738C126.341 133.195 125.61 132.329 125.726 131.942C125.75 131.855 125.828 131.748 126.041 131.748H126.065C126.148 131.752 126.23 131.772 126.306 131.808C126.381 131.844 126.449 131.894 126.505 131.956C126.771 132.379 126.897 132.876 126.864 133.375C126.864 133.39 126.86 133.404 126.853 133.417C126.845 133.43 126.834 133.441 126.82 133.447L126.781 133.442ZM126.041 131.903C125.905 131.903 125.891 131.956 125.886 131.976C125.813 132.208 126.302 132.876 126.699 133.195C126.712 132.791 126.601 132.392 126.379 132.053C126.34 132.007 126.291 131.97 126.236 131.944C126.181 131.918 126.121 131.904 126.06 131.903H126.041Z" fill="#FF5C8A"/>
</svg>
