<svg width="41" height="41" viewBox="0 0 41 41" fill="none" xmlns="http://www.w3.org/2000/svg">
<circle cx="20.8594" cy="20.0981" r="20" fill="#E1E9FE"/>
<path d="M28.8594 11.0991H13.8594C12.2054 11.0991 10.8594 12.4451 10.8594 14.0991V26.0991C10.8594 27.7531 12.2054 29.0991 13.8594 29.0991H28.8594C29.9624 29.0991 30.8594 28.2021 30.8594 27.0991V13.0991C30.8594 11.9961 29.9624 11.0991 28.8594 11.0991ZM13.8594 27.0991C13.3074 27.0991 12.8594 26.6501 12.8594 26.0991V14.0991C12.8594 13.5481 13.3074 13.0991 13.8594 13.0991H28.8594V16.0991H22.8594C21.7564 16.0991 20.8594 16.9961 20.8594 18.0991V22.0991C20.8594 23.2021 21.7564 24.0991 22.8594 24.0991H28.8604V27.0991H13.8594ZM28.8594 18.0991V22.0991H22.8594V18.0991H28.8594Z" fill="#4A75F7"/>
</svg>
