<svg width="21" height="20" viewBox="0 0 21 20" fill="none" xmlns="http://www.w3.org/2000/svg">
<path d="M2.27089 16C2.27089 14.9273 3.1805 14 4.37499 14L4.37499 12C2.14079 12 0.270893 13.759 0.270893 16L2.27089 16ZM6.4791 16C6.4791 17.0727 5.56949 18 4.37499 18L4.37499 20C6.6092 20 8.4791 18.241 8.4791 16L6.4791 16ZM4.37499 18C3.1805 18 2.27089 17.0727 2.27089 16L0.270893 16C0.270893 18.241 2.14079 20 4.37499 20L4.37499 18ZM2.27089 4C2.27089 2.92731 3.1805 2 4.37499 2L4.37499 1.31134e-06C2.14079 1.50011e-06 0.270892 1.75898 0.270892 4L2.27089 4ZM4.37499 2C5.56949 2 6.4791 2.92731 6.4791 4L8.4791 4C8.4791 1.75898 6.6092 1.12257e-06 4.37499 1.31134e-06L4.37499 2ZM4.37499 6C3.1805 6 2.27089 5.07269 2.27089 4L0.270892 4C0.270892 6.24102 2.14079 8 4.37499 8L4.37499 6ZM16.7914 8C17.9859 8 18.8955 8.92731 18.8955 10L20.8955 10C20.8955 7.75898 19.0256 6 16.7914 6L16.7914 8ZM18.8955 10C18.8955 11.0727 17.9859 12 16.7914 12L16.7914 14C19.0256 14 20.8955 12.241 20.8955 10L18.8955 10ZM14.6873 10C14.6873 9.68256 14.7644 9.38414 14.9022 9.11827L13.1266 8.19786C12.8458 8.73957 12.6873 9.3527 12.6873 10L14.6873 10ZM14.9022 9.11827C15.2406 8.46546 15.9511 8 16.7914 8L16.7914 6C15.2012 6 13.8074 6.88437 13.1266 8.19786L14.9022 9.11827ZM16.7914 12C15.9511 12 15.2406 11.5345 14.9022 10.8817L13.1266 11.8021C13.8075 13.1156 15.2012 14 16.7914 14L16.7914 12ZM14.9022 10.8817C14.7644 10.6159 14.6873 10.3174 14.6873 10L12.6873 10C12.6873 10.6473 12.8458 11.2604 13.1266 11.8021L14.9022 10.8817ZM13.5793 10.4415L6.7169 13.7577L7.58709 15.5585L14.4495 12.2423L13.5793 10.4415ZM4.37499 14C5.21527 14 5.92579 14.4655 6.26418 15.1183L8.03981 14.1979C7.35895 12.8844 5.9652 12 4.37499 12L4.37499 14ZM6.26418 15.1183C6.402 15.3841 6.4791 15.6826 6.4791 16L8.4791 16C8.4791 15.3527 8.3206 14.7396 8.03981 14.1979L6.26418 15.1183ZM14.4495 7.75768L7.58709 4.44155L6.7169 6.24232L13.5793 9.55845L14.4495 7.75768ZM6.4791 4C6.4791 4.31744 6.402 4.61586 6.26418 4.88173L8.03981 5.80214C8.3206 5.26044 8.4791 4.6473 8.4791 4L6.4791 4ZM6.26418 4.88173C5.92579 5.53454 5.21527 6 4.37499 6L4.37499 8C5.9652 8 7.35895 7.11563 8.03981 5.80214L6.26418 4.88173Z" fill="#001966"/>
</svg>
