<svg width="24" height="24" viewBox="0 0 24 24" fill="none" xmlns="http://www.w3.org/2000/svg">
<path d="M4 18C4 16.8954 4.89543 16 6 16L6 14C3.79086 14 2 15.7909 2 18L4 18ZM8 18C8 19.1046 7.10457 20 6 20L6 22C8.20914 22 10 20.2091 10 18L8 18ZM6 20C4.89543 20 4 19.1046 4 18L2 18C2 20.2091 3.79086 22 6 22L6 20ZM4 6C4 4.89543 4.89543 4 6 4L6 2C3.79086 2 2 3.79086 2 6L4 6ZM6 4C7.10457 4 8 4.89543 8 6L10 6C10 3.79086 8.20914 2 6 2L6 4ZM6 8C4.89543 8 4 7.10457 4 6L2 6C2 8.20914 3.79086 10 6 10L6 8ZM18 10C19.1046 10 20 10.8954 20 12L22 12C22 9.79086 20.2091 8 18 8L18 10ZM20 12C20 13.1046 19.1046 14 18 14L18 16C20.2091 16 22 14.2091 22 12L20 12ZM16 12C16 11.6766 16.076 11.3739 16.2102 11.106L14.4221 10.2102C14.1517 10.7498 14 11.3586 14 12L16 12ZM16.2102 11.106C16.5398 10.4481 17.2185 10 18 10L18 8C16.4326 8 15.0775 8.90173 14.4221 10.2102L16.2102 11.106ZM18 14C17.2185 14 16.5398 13.5519 16.2102 12.894L14.4221 13.7898C15.0775 15.0983 16.4326 16 18 16L18 14ZM16.2102 12.894C16.076 12.6261 16 12.3234 16 12L14 12C14 12.6414 14.1517 13.2502 14.4221 13.7898L16.2102 12.894ZM14.8689 12.4475L8.23665 15.7636L9.13108 17.5525L15.7633 14.2364L14.8689 12.4475ZM6 16C6.78153 16 7.46021 16.4481 7.78979 17.106L9.57795 16.2102C8.92246 14.9017 7.56744 14 6 14L6 16ZM7.78979 17.106C7.924 17.3739 8 17.6766 8 18L10 18C10 17.3586 9.84831 16.7498 9.57795 16.2102L7.78979 17.106ZM15.7633 9.76364L9.13108 6.44751L8.23665 8.23636L14.8689 11.5525L15.7633 9.76364ZM8 6C8 6.32338 7.924 6.62613 7.78979 6.89403L9.57795 7.78985C9.84831 7.25017 10 6.64136 10 6L8 6ZM7.78979 6.89403C7.46021 7.5519 6.78153 8 6 8L6 10C7.56744 10 8.92246 9.09827 9.57795 7.78985L7.78979 6.89403Z" fill="white"/>
</svg>
