<svg width="25" height="24" viewBox="0 0 25 24" fill="none" xmlns="http://www.w3.org/2000/svg">
<path d="M4.27089 18C4.27089 16.9273 5.1805 16 6.37499 16L6.37499 14C4.14079 14 2.27089 15.759 2.27089 18L4.27089 18ZM8.4791 18C8.4791 19.0727 7.56949 20 6.37499 20L6.37499 22C8.6092 22 10.4791 20.241 10.4791 18L8.4791 18ZM6.37499 20C5.1805 20 4.27089 19.0727 4.27089 18L2.27089 18C2.27089 20.241 4.14079 22 6.37499 22L6.37499 20ZM4.27089 6C4.27089 4.92731 5.1805 4 6.37499 4L6.37499 2C4.14079 2 2.27089 3.75898 2.27089 6L4.27089 6ZM6.37499 4C7.56949 4 8.4791 4.92731 8.4791 6L10.4791 6C10.4791 3.75898 8.6092 2 6.37499 2L6.37499 4ZM6.37499 8C5.1805 8 4.27089 7.07269 4.27089 6L2.27089 6C2.27089 8.24102 4.14079 10 6.37499 10L6.37499 8ZM18.7914 10C19.9859 10 20.8955 10.9273 20.8955 12L22.8955 12C22.8955 9.75898 21.0256 8 18.7914 8L18.7914 10ZM20.8955 12C20.8955 13.0727 19.9859 14 18.7914 14L18.7914 16C21.0256 16 22.8955 14.241 22.8955 12L20.8955 12ZM16.6873 12C16.6873 11.6826 16.7644 11.3841 16.9022 11.1183L15.1266 10.1979C14.8458 10.7396 14.6873 11.3527 14.6873 12L16.6873 12ZM16.9022 11.1183C17.2406 10.4655 17.9511 10 18.7914 10L18.7914 8C17.2012 8 15.8074 8.88437 15.1266 10.1979L16.9022 11.1183ZM18.7914 14C17.9511 14 17.2406 13.5345 16.9022 12.8817L15.1266 13.8021C15.8075 15.1156 17.2012 16 18.7914 16L18.7914 14ZM16.9022 12.8817C16.7644 12.6159 16.6873 12.3174 16.6873 12L14.6873 12C14.6873 12.6473 14.8458 13.2604 15.1266 13.8021L16.9022 12.8817ZM15.5793 12.4415L8.7169 15.7577L9.58709 17.5585L16.4495 14.2423L15.5793 12.4415ZM6.37499 16C7.21527 16 7.92579 16.4655 8.26418 17.1183L10.0398 16.1979C9.35895 14.8844 7.9652 14 6.37499 14L6.37499 16ZM8.26418 17.1183C8.402 17.3841 8.4791 17.6826 8.4791 18L10.4791 18C10.4791 17.3527 10.3206 16.7396 10.0398 16.1979L8.26418 17.1183ZM16.4495 9.75768L9.58709 6.44155L8.7169 8.24232L15.5793 11.5585L16.4495 9.75768ZM8.4791 6C8.4791 6.31744 8.402 6.61586 8.26418 6.88173L10.0398 7.80214C10.3206 7.26044 10.4791 6.6473 10.4791 6L8.4791 6ZM8.26418 6.88173C7.92579 7.53454 7.21527 8 6.37499 8L6.37499 10C7.9652 10 9.35895 9.11563 10.0398 7.80214L8.26418 6.88173Z" fill="#001966"/>
</svg>
