<svg xmlns="http://www.w3.org/2000/svg" width="113.762" height="106" viewBox="0 0 113.762 106"><defs><style>.a{fill:#f3ba2d;}</style></defs><path class="a" d="M-1882.83-2497.937l-1.12-1.12.082-.082-15.872-15.873-.143.143-8.224-8.225,16.449-16.448,7.9,7.9.142-.142,16.12,16.118,16.119-16.118.1.1,7.855-7.855,16.449,16.448-8.224,8.225-.1-.1-15.832,15.833.082.081-1.12,1.12Zm-1.12-52.93,16.45-16.45,16.448,16.45-16.448,16.448Zm-51.811,0,16.449-16.45,16.448,16.45-16.448,16.448Zm103.622,0,10.139-10.139v20.277Zm-75.97-27.693,8.225-8.225.1.1,15.915-15.915-.083-.082,1.257-1.257h30.384l1.257,1.257-.082.082,15.873,15.874.061-.061,8.224,8.225-16.449,16.448-7.9-7.9-.06.06-16.119-16.12-16.12,16.12-.1-.1-7.937,7.937Z" transform="translate(1935.761 2603.938)"/></svg>