<svg width="32" height="32" viewBox="0 0 32 32" fill="none" xmlns="http://www.w3.org/2000/svg">
<rect width="32" height="32" rx="16" fill="black"/>
<path d="M16.6774 7H9V10H15.4731C17.1591 10 17.9821 10.6 18.1828 10.9C19.0258 11.86 18.4337 13 18.0323 13.45L14.5699 16.9H17.4301C18.1828 17.05 19.6882 17.8 19.6882 19.6C19.6882 21.4 18.1828 21.95 17.4301 22H12.6129V10.9L9 13.45V25H18.0323C19.9892 25 23 23.05 23 19.75C23 17.11 21.0932 15.55 20.1398 15.1C21.7054 14.38 21.9964 12.4 21.9462 11.5C21.9462 8.02 18.4337 7.05 16.6774 7Z" fill="white"/>
</svg>
